0
SECTION
2
HEADER
9
$ACADVER
1
AC1009
9
$DWGCODEPAGE
3
ANSI_1252
0
ENDSEC
0
SECTION
2
TABLES
0
TABLE
2
LTYPE
70
6
0
LTYPE
2
CONTINUOUS
70
0
3
Solid
72
65
73
0
40
0.0
0
LTYPE
2
DASHED
70
0
3
Dashed
72
65
73
2
40
0.75
49
0.5
74
0
49
-0.25
74
0
0
LTYPE
2
DASHED2
70
0
3
Dashed (.5x)
72
65
73
2
40
0.375
49
0.25
74
0
49
-0.125
74
0
0
LTYPE
2
HIDDEN
70
0
3
Hidden
72
65
73
2
40
0.375
49
0.25
74
0
49
-0.125
74
0
0
LTYPE
2
CENTER
70
0
3
Center
72
65
73
4
40
2.0
49
1.25
74
0
49
-0.25
74
0
49
0.25
74
0
49
-0.25
74
0
0
LTYPE
2
PHANTOM
70
0
3
Phantom
72
65
73
6
40
2.5
49
1.25
74
0
49
-0.25
74
0
49
0.25
74
0
49
-0.25
74
0
49
0.25
74
0
49
-0.25
74
0
0
ENDTAB
0
TABLE
2
LAYER
70
5
0
LAYER
2
0
70
0
62
7
6
CONTINUOUS
0
LAYER
2
LOT
70
0
62
4
6
CONTINUOUS
0
LAYER
2
LOT-FLAGGED
70
0
62
1
6
CONTINUOUS
0
LAYER
2
TEXT-LABELS
70
0
62
7
6
CONTINUOUS
0
LAYER
2
TITLEBLOCK
70
0
62
2
6
CONTINUOUS
0
ENDTAB
0
TABLE
2
STYLE
70
4
0
STYLE
2
STANDARD
70
0
40
0.0
41
1.0
50
0.0
71
0
42
0.2
3
Arial
4

0
STYLE
2
ARIAL
70
0
40
0.0
41
1.0
50
0.0
71
0
42
0.2
3
Arial
4

0
STYLE
2
ARIAL_TTF
70
0
40
0.0
41
1.0
50
0.0
71
0
42
0.2
3
arial.ttf
4

0
STYLE
2
SIMPLEX
70
0
40
0.0
41
1.0
50
0.0
71
0
42
0.2
3
simplex.shx
4

0
ENDTAB
0
ENDSEC
0
SECTION
2
ENTITIES
0
POLYLINE
8
LOT
66
1
70
1
0
VERTEX
8
LOT
10
0.0000
20
0.0000
30
0.0
0
VERTEX
8
LOT
10
621.5000
20
0.0000
30
0.0
0
VERTEX
8
LOT
10
621.5000
20
-175.2000
30
0.0
0
VERTEX
8
LOT
10
0.0000
20
-175.2000
30
0.0
0
SEQEND
0
POLYLINE
8
LOT
66
1
70
1
0
VERTEX
8
LOT
10
671.5000
20
0.0000
30
0.0
0
VERTEX
8
LOT
10
1293.0000
20
0.0000
30
0.0
0
VERTEX
8
LOT
10
1293.0000
20
-175.2000
30
0.0
0
VERTEX
8
LOT
10
671.5000
20
-175.2000
30
0.0
0
SEQEND
0
POLYLINE
8
LOT
66
1
70
1
0
VERTEX
8
LOT
10
0.0000
20
-175.2000
30
0.0
0
VERTEX
8
LOT
10
621.5000
20
-175.2000
30
0.0
0
VERTEX
8
LOT
10
621.5000
20
-350.4000
30
0.0
0
VERTEX
8
LOT
10
0.0000
20
-350.4000
30
0.0
0
SEQEND
0
POLYLINE
8
LOT
66
1
70
1
0
VERTEX
8
LOT
10
671.5000
20
-175.2000
30
0.0
0
VERTEX
8
LOT
10
1293.0000
20
-175.2000
30
0.0
0
VERTEX
8
LOT
10
1293.0000
20
-350.4000
30
0.0
0
VERTEX
8
LOT
10
671.5000
20
-350.4000
30
0.0
0
SEQEND
0
POLYLINE
8
LOT
66
1
70
1
0
VERTEX
8
LOT
10
0.0000
20
-350.4000
30
0.0
0
VERTEX
8
LOT
10
621.5000
20
-350.4000
30
0.0
0
VERTEX
8
LOT
10
621.5000
20
-525.6000
30
0.0
0
VERTEX
8
LOT
10
0.0000
20
-525.6000
30
0.0
0
SEQEND
0
POLYLINE
8
LOT
66
1
70
1
0
VERTEX
8
LOT
10
671.5000
20
-350.4000
30
0.0
0
VERTEX
8
LOT
10
1293.0000
20
-350.4000
30
0.0
0
VERTEX
8
LOT
10
1293.0000
20
-525.6000
30
0.0
0
VERTEX
8
LOT
10
671.5000
20
-525.6000
30
0.0
0
SEQEND
0
POLYLINE
8
LOT
66
1
70
1
0
VERTEX
8
LOT
10
0.0000
20
-525.6000
30
0.0
0
VERTEX
8
LOT
10
621.5000
20
-525.6000
30
0.0
0
VERTEX
8
LOT
10
621.5000
20
-700.8000
30
0.0
0
VERTEX
8
LOT
10
0.0000
20
-700.8000
30
0.0
0
SEQEND
0
POLYLINE
8
LOT
66
1
70
1
0
VERTEX
8
LOT
10
671.5000
20
-525.6000
30
0.0
0
VERTEX
8
LOT
10
1293.0000
20
-525.6000
30
0.0
0
VERTEX
8
LOT
10
1293.0000
20
-700.8000
30
0.0
0
VERTEX
8
LOT
10
671.5000
20
-700.8000
30
0.0
0
SEQEND
0
POLYLINE
8
LOT
66
1
70
1
0
VERTEX
8
LOT
10
0.0000
20
-700.8000
30
0.0
0
VERTEX
8
LOT
10
621.5000
20
-700.8000
30
0.0
0
VERTEX
8
LOT
10
621.5000
20
-876.0000
30
0.0
0
VERTEX
8
LOT
10
0.0000
20
-876.0000
30
0.0
0
SEQEND
0
POLYLINE
8
LOT
66
1
70
1
0
VERTEX
8
LOT
10
671.5000
20
-700.8000
30
0.0
0
VERTEX
8
LOT
10
1293.0000
20
-700.8000
30
0.0
0
VERTEX
8
LOT
10
1293.0000
20
-876.0000
30
0.0
0
VERTEX
8
LOT
10
671.5000
20
-876.0000
30
0.0
0
SEQEND
0
POLYLINE
8
LOT
66
1
70
1
0
VERTEX
8
LOT
10
0.0000
20
-876.0000
30
0.0
0
VERTEX
8
LOT
10
621.5000
20
-876.0000
30
0.0
0
VERTEX
8
LOT
10
621.5000
20
-1051.2000
30
0.0
0
VERTEX
8
LOT
10
0.0000
20
-1051.2000
30
0.0
0
SEQEND
0
POLYLINE
8
LOT
66
1
70
1
0
VERTEX
8
LOT
10
671.5000
20
-876.0000
30
0.0
0
VERTEX
8
LOT
10
1293.0000
20
-876.0000
30
0.0
0
VERTEX
8
LOT
10
1293.0000
20
-1051.2000
30
0.0
0
VERTEX
8
LOT
10
671.5000
20
-1051.2000
30
0.0
0
SEQEND
0
POLYLINE
8
LOT
66
1
70
1
0
VERTEX
8
LOT
10
0.0000
20
-1051.2000
30
0.0
0
VERTEX
8
LOT
10
621.5000
20
-1051.2000
30
0.0
0
VERTEX
8
LOT
10
621.5000
20
-1226.4000
30
0.0
0
VERTEX
8
LOT
10
0.0000
20
-1226.4000
30
0.0
0
SEQEND
0
POLYLINE
8
LOT
66
1
70
1
0
VERTEX
8
LOT
10
671.5000
20
-1051.2000
30
0.0
0
VERTEX
8
LOT
10
1293.0000
20
-1051.2000
30
0.0
0
VERTEX
8
LOT
10
1293.0000
20
-1226.4000
30
0.0
0
VERTEX
8
LOT
10
671.5000
20
-1226.4000
30
0.0
0
SEQEND
0
POLYLINE
8
LOT
66
1
70
1
0
VERTEX
8
LOT
10
0.0000
20
-1226.4000
30
0.0
0
VERTEX
8
LOT
10
621.5000
20
-1226.4000
30
0.0
0
VERTEX
8
LOT
10
621.5000
20
-1401.6000
30
0.0
0
VERTEX
8
LOT
10
0.0000
20
-1401.6000
30
0.0
0
SEQEND
0
POLYLINE
8
LOT
66
1
70
1
0
VERTEX
8
LOT
10
671.5000
20
-1226.4000
30
0.0
0
VERTEX
8
LOT
10
1293.0000
20
-1226.4000
30
0.0
0
VERTEX
8
LOT
10
1293.0000
20
-1401.6000
30
0.0
0
VERTEX
8
LOT
10
671.5000
20
-1401.6000
30
0.0
0
SEQEND
0
POLYLINE
8
LOT
66
1
70
1
0
VERTEX
8
LOT
10
0.0000
20
-1401.6000
30
0.0
0
VERTEX
8
LOT
10
621.5000
20
-1401.6000
30
0.0
0
VERTEX
8
LOT
10
621.5000
20
-1553.1567
30
0.0
0
VERTEX
8
LOT
10
0.0000
20
-1548.3500
30
0.0
0
SEQEND
0
POLYLINE
8
LOT
66
1
70
1
0
VERTEX
8
LOT
10
671.5000
20
-1401.6000
30
0.0
0
VERTEX
8
LOT
10
1293.0000
20
-1401.6000
30
0.0
0
VERTEX
8
LOT
10
1293.0000
20
-1558.3500
30
0.0
0
VERTEX
8
LOT
10
671.5000
20
-1553.5433
30
0.0
0
SEQEND
0
POLYLINE
8
LOT
66
1
70
1
0
VERTEX
8
LOT
10
0.0000
20
-1548.3500
30
0.0
0
VERTEX
8
LOT
10
621.5000
20
-1553.1567
30
0.0
0
VERTEX
8
LOT
10
621.5000
20
-1704.7133
30
0.0
0
VERTEX
8
LOT
10
0.0000
20
-1695.1000
30
0.0
0
SEQEND
0
POLYLINE
8
LOT
66
1
70
1
0
VERTEX
8
LOT
10
671.5000
20
-1553.5433
30
0.0
0
VERTEX
8
LOT
10
1293.0000
20
-1558.3500
30
0.0
0
VERTEX
8
LOT
10
1293.0000
20
-1715.1000
30
0.0
0
VERTEX
8
LOT
10
671.5000
20
-1705.4867
30
0.0
0
SEQEND
0
POLYLINE
8
LOT-FLAGGED
66
1
70
1
0
VERTEX
8
LOT-FLAGGED
10
905.5000
20
0.0000
30
0.0
0
VERTEX
8
LOT-FLAGGED
10
1025.5000
20
0.0000
30
0.0
0
VERTEX
8
LOT-FLAGGED
10
1025.5000
20
405.0000
30
0.0
0
VERTEX
8
LOT-FLAGGED
10
905.5000
20
391.0000
30
0.0
0
SEQEND
0
POLYLINE
8
LOT
66
1
70
1
0
VERTEX
8
LOT
10
1025.5000
20
0.0000
30
0.0
0
VERTEX
8
LOT
10
1130.5000
20
0.0000
30
0.0
0
VERTEX
8
LOT
10
1130.5000
20
405.0000
30
0.0
0
VERTEX
8
LOT
10
1025.5000
20
405.0000
30
0.0
0
SEQEND
0
POLYLINE
8
LOT
66
1
70
1
0
VERTEX
8
LOT
10
1130.5000
20
0.0000
30
0.0
0
VERTEX
8
LOT
10
1235.5000
20
0.0000
30
0.0
0
VERTEX
8
LOT
10
1235.5000
20
405.0000
30
0.0
0
VERTEX
8
LOT
10
1130.5000
20
405.0000
30
0.0
0
SEQEND
0
POLYLINE
8
LOT
66
1
70
1
0
VERTEX
8
LOT
10
1235.5000
20
0.0000
30
0.0
0
VERTEX
8
LOT
10
1340.5000
20
0.0000
30
0.0
0
VERTEX
8
LOT
10
1340.5000
20
405.0000
30
0.0
0
VERTEX
8
LOT
10
1235.5000
20
405.0000
30
0.0
0
SEQEND
0
POLYLINE
8
LOT
66
1
70
1
0
VERTEX
8
LOT
10
1340.5000
20
0.0000
30
0.0
0
VERTEX
8
LOT
10
1445.5000
20
0.0000
30
0.0
0
VERTEX
8
LOT
10
1445.5000
20
405.0000
30
0.0
0
VERTEX
8
LOT
10
1340.5000
20
405.0000
30
0.0
0
SEQEND
0
POLYLINE
8
LOT
66
1
70
1
0
VERTEX
8
LOT
10
1445.5000
20
0.0000
30
0.0
0
VERTEX
8
LOT
10
1550.5000
20
0.0000
30
0.0
0
VERTEX
8
LOT
10
1550.5000
20
405.0000
30
0.0
0
VERTEX
8
LOT
10
1445.5000
20
405.0000
30
0.0
0
SEQEND
0
POLYLINE
8
LOT
66
1
70
1
0
VERTEX
8
LOT
10
1550.5000
20
0.0000
30
0.0
0
VERTEX
8
LOT
10
1655.5000
20
0.0000
30
0.0
0
VERTEX
8
LOT
10
1655.5000
20
405.0000
30
0.0
0
VERTEX
8
LOT
10
1550.5000
20
405.0000
30
0.0
0
SEQEND
0
POLYLINE
8
LOT
66
1
70
1
0
VERTEX
8
LOT
10
1655.5000
20
0.0000
30
0.0
0
VERTEX
8
LOT
10
1760.5000
20
0.0000
30
0.0
0
VERTEX
8
LOT
10
1760.5000
20
405.0000
30
0.0
0
VERTEX
8
LOT
10
1655.5000
20
405.0000
30
0.0
0
SEQEND
0
POLYLINE
8
LOT
66
1
70
1
0
VERTEX
8
LOT
10
1760.5000
20
0.0000
30
0.0
0
VERTEX
8
LOT
10
1865.5000
20
0.0000
30
0.0
0
VERTEX
8
LOT
10
1865.5000
20
405.0000
30
0.0
0
VERTEX
8
LOT
10
1760.5000
20
405.0000
30
0.0
0
SEQEND
0
POLYLINE
8
LOT
66
1
70
1
0
VERTEX
8
LOT
10
1865.5000
20
0.0000
30
0.0
0
VERTEX
8
LOT
10
1970.5000
20
0.0000
30
0.0
0
VERTEX
8
LOT
10
1970.5000
20
405.0000
30
0.0
0
VERTEX
8
LOT
10
1865.5000
20
405.0000
30
0.0
0
SEQEND
0
POLYLINE
8
LOT
66
1
70
1
0
VERTEX
8
LOT
10
1970.5000
20
0.0000
30
0.0
0
VERTEX
8
LOT
10
2075.5000
20
0.0000
30
0.0
0
VERTEX
8
LOT
10
2075.5000
20
405.0000
30
0.0
0
VERTEX
8
LOT
10
1970.5000
20
405.0000
30
0.0
0
SEQEND
0
POLYLINE
8
LOT
66
1
70
1
0
VERTEX
8
LOT
10
2075.5000
20
0.0000
30
0.0
0
VERTEX
8
LOT
10
2180.5000
20
0.0000
30
0.0
0
VERTEX
8
LOT
10
2180.5000
20
105.0000
30
0.0
0
VERTEX
8
LOT
10
2075.5000
20
105.0000
30
0.0
0
SEQEND
0
POLYLINE
8
LOT
66
1
70
1
0
VERTEX
8
LOT
10
2180.5000
20
0.0000
30
0.0
0
VERTEX
8
LOT
10
2285.5000
20
0.0000
30
0.0
0
VERTEX
8
LOT
10
2285.5000
20
105.0000
30
0.0
0
VERTEX
8
LOT
10
2180.5000
20
105.0000
30
0.0
0
SEQEND
0
POLYLINE
8
LOT
66
1
70
1
0
VERTEX
8
LOT
10
2285.5000
20
0.0000
30
0.0
0
VERTEX
8
LOT
10
2390.5000
20
0.0000
30
0.0
0
VERTEX
8
LOT
10
2390.5000
20
105.0000
30
0.0
0
VERTEX
8
LOT
10
2285.5000
20
105.0000
30
0.0
0
SEQEND
0
POLYLINE
8
LOT
66
1
70
1
0
VERTEX
8
LOT
10
2390.5000
20
0.0000
30
0.0
0
VERTEX
8
LOT
10
2495.5000
20
0.0000
30
0.0
0
VERTEX
8
LOT
10
2495.5000
20
105.0000
30
0.0
0
VERTEX
8
LOT
10
2390.5000
20
105.0000
30
0.0
0
SEQEND
0
POLYLINE
8
LOT
66
1
70
1
0
VERTEX
8
LOT
10
2075.5000
20
105.0000
30
0.0
0
VERTEX
8
LOT
10
2495.5000
20
105.0000
30
0.0
0
VERTEX
8
LOT
10
2495.5000
20
210.0000
30
0.0
0
VERTEX
8
LOT
10
2075.5000
20
210.0000
30
0.0
0
SEQEND
0
POLYLINE
8
LOT
66
1
70
1
0
VERTEX
8
LOT
10
2075.5000
20
210.0000
30
0.0
0
VERTEX
8
LOT
10
2495.5000
20
210.0000
30
0.0
0
VERTEX
8
LOT
10
2495.5000
20
315.0000
30
0.0
0
VERTEX
8
LOT
10
2075.5000
20
315.0000
30
0.0
0
SEQEND
0
POLYLINE
8
LOT-FLAGGED
66
1
70
1
0
VERTEX
8
LOT-FLAGGED
10
2075.5000
20
315.0000
30
0.0
0
VERTEX
8
LOT-FLAGGED
10
2495.5000
20
315.0000
30
0.0
0
VERTEX
8
LOT-FLAGGED
10
2495.5000
20
405.0000
30
0.0
0
VERTEX
8
LOT-FLAGGED
10
2075.5000
20
405.0000
30
0.0
0
SEQEND
0
POLYLINE
8
LOT-FLAGGED
66
1
70
1
0
VERTEX
8
LOT-FLAGGED
10
2075.5000
20
435.0000
30
0.0
0
VERTEX
8
LOT-FLAGGED
10
2495.5000
20
435.0000
30
0.0
0
VERTEX
8
LOT-FLAGGED
10
2495.5000
20
525.0000
30
0.0
0
VERTEX
8
LOT-FLAGGED
10
2075.5000
20
525.0000
30
0.0
0
SEQEND
0
POLYLINE
8
LOT
66
1
70
1
0
VERTEX
8
LOT
10
2075.5000
20
525.0000
30
0.0
0
VERTEX
8
LOT
10
2495.5000
20
525.0000
30
0.0
0
VERTEX
8
LOT
10
2495.5000
20
630.0000
30
0.0
0
VERTEX
8
LOT
10
2075.5000
20
630.0000
30
0.0
0
SEQEND
0
POLYLINE
8
LOT
66
1
70
1
0
VERTEX
8
LOT
10
2075.5000
20
630.0000
30
0.0
0
VERTEX
8
LOT
10
2495.5000
20
630.0000
30
0.0
0
VERTEX
8
LOT
10
2495.5000
20
735.0000
30
0.0
0
VERTEX
8
LOT
10
2075.5000
20
735.0000
30
0.0
0
SEQEND
0
TEXT
8
TEXT-LABELS
7
STANDARD
10
310.7500
20
-87.6000
30
0.0
40
14
1
45  2.5A
50
0.0
72
1
11
310.7500
21
-87.6000
31
0.0
73
2
0
TEXT
8
TEXT-LABELS
7
STANDARD
10
982.2500
20
-87.6000
30
0.0
40
14
1
26  2.5A
50
0.0
72
1
11
982.2500
21
-87.6000
31
0.0
73
2
0
TEXT
8
TEXT-LABELS
7
STANDARD
10
310.7500
20
-262.8000
30
0.0
40
14
1
44  2.5A
50
0.0
72
1
11
310.7500
21
-262.8000
31
0.0
73
2
0
TEXT
8
TEXT-LABELS
7
STANDARD
10
982.2500
20
-262.8000
30
0.0
40
14
1
27  2.5A
50
0.0
72
1
11
982.2500
21
-262.8000
31
0.0
73
2
0
TEXT
8
TEXT-LABELS
7
STANDARD
10
310.7500
20
-438.0000
30
0.0
40
14
1
43  2.5A
50
0.0
72
1
11
310.7500
21
-438.0000
31
0.0
73
2
0
TEXT
8
TEXT-LABELS
7
STANDARD
10
982.2500
20
-438.0000
30
0.0
40
14
1
28  2.5A
50
0.0
72
1
11
982.2500
21
-438.0000
31
0.0
73
2
0
TEXT
8
TEXT-LABELS
7
STANDARD
10
310.7500
20
-613.2000
30
0.0
40
14
1
42  2.5A
50
0.0
72
1
11
310.7500
21
-613.2000
31
0.0
73
2
0
TEXT
8
TEXT-LABELS
7
STANDARD
10
982.2500
20
-613.2000
30
0.0
40
14
1
29  2.5A
50
0.0
72
1
11
982.2500
21
-613.2000
31
0.0
73
2
0
TEXT
8
TEXT-LABELS
7
STANDARD
10
310.7500
20
-788.4000
30
0.0
40
14
1
41  2.5A
50
0.0
72
1
11
310.7500
21
-788.4000
31
0.0
73
2
0
TEXT
8
TEXT-LABELS
7
STANDARD
10
982.2500
20
-788.4000
30
0.0
40
14
1
30  2.5A
50
0.0
72
1
11
982.2500
21
-788.4000
31
0.0
73
2
0
TEXT
8
TEXT-LABELS
7
STANDARD
10
310.7500
20
-963.6000
30
0.0
40
14
1
40  2.5A
50
0.0
72
1
11
310.7500
21
-963.6000
31
0.0
73
2
0
TEXT
8
TEXT-LABELS
7
STANDARD
10
982.2500
20
-963.6000
30
0.0
40
14
1
31  2.5A
50
0.0
72
1
11
982.2500
21
-963.6000
31
0.0
73
2
0
TEXT
8
TEXT-LABELS
7
STANDARD
10
310.7500
20
-1138.8000
30
0.0
40
14
1
39  2.5A
50
0.0
72
1
11
310.7500
21
-1138.8000
31
0.0
73
2
0
TEXT
8
TEXT-LABELS
7
STANDARD
10
982.2500
20
-1138.8000
30
0.0
40
14
1
32  2.5A
50
0.0
72
1
11
982.2500
21
-1138.8000
31
0.0
73
2
0
TEXT
8
TEXT-LABELS
7
STANDARD
10
310.7500
20
-1314.0000
30
0.0
40
14
1
38  2.5A
50
0.0
72
1
11
310.7500
21
-1314.0000
31
0.0
73
2
0
TEXT
8
TEXT-LABELS
7
STANDARD
10
982.2500
20
-1314.0000
30
0.0
40
14
1
33  2.5A
50
0.0
72
1
11
982.2500
21
-1314.0000
31
0.0
73
2
0
TEXT
8
TEXT-LABELS
7
STANDARD
10
310.7500
20
-1476.1767
30
0.0
40
14
1
37  2.16A
50
0.0
72
1
11
310.7500
21
-1476.1767
31
0.0
73
2
0
TEXT
8
TEXT-LABELS
7
STANDARD
10
982.2500
20
-1478.7733
30
0.0
40
14
1
34  2.16A
50
0.0
72
1
11
982.2500
21
-1478.7733
31
0.0
73
2
0
TEXT
8
TEXT-LABELS
7
STANDARD
10
310.7500
20
-1625.3300
30
0.0
40
14
1
36  2.16A
50
0.0
72
1
11
310.7500
21
-1625.3300
31
0.0
73
2
0
TEXT
8
TEXT-LABELS
7
STANDARD
10
982.2500
20
-1633.1200
30
0.0
40
14
1
35  2.16A
50
0.0
72
1
11
982.2500
21
-1633.1200
31
0.0
73
2
0
TEXT
8
TEXT-LABELS
7
STANDARD
10
965.5000
20
199.0000
30
0.0
40
14
1
19  1.02A
50
0.0
72
1
11
965.5000
21
199.0000
31
0.0
73
2
0
TEXT
8
TEXT-LABELS
7
STANDARD
10
1078.0000
20
202.5000
30
0.0
40
14
1
18  1.0A
50
0.0
72
1
11
1078.0000
21
202.5000
31
0.0
73
2
0
TEXT
8
TEXT-LABELS
7
STANDARD
10
1183.0000
20
202.5000
30
0.0
40
14
1
17  1.0A
50
0.0
72
1
11
1183.0000
21
202.5000
31
0.0
73
2
0
TEXT
8
TEXT-LABELS
7
STANDARD
10
1288.0000
20
202.5000
30
0.0
40
14
1
16  1.0A
50
0.0
72
1
11
1288.0000
21
202.5000
31
0.0
73
2
0
TEXT
8
TEXT-LABELS
7
STANDARD
10
1393.0000
20
202.5000
30
0.0
40
14
1
15  1.0A
50
0.0
72
1
11
1393.0000
21
202.5000
31
0.0
73
2
0
TEXT
8
TEXT-LABELS
7
STANDARD
10
1498.0000
20
202.5000
30
0.0
40
14
1
14  1.0A
50
0.0
72
1
11
1498.0000
21
202.5000
31
0.0
73
2
0
TEXT
8
TEXT-LABELS
7
STANDARD
10
1603.0000
20
202.5000
30
0.0
40
14
1
13  1.0A
50
0.0
72
1
11
1603.0000
21
202.5000
31
0.0
73
2
0
TEXT
8
TEXT-LABELS
7
STANDARD
10
1708.0000
20
202.5000
30
0.0
40
14
1
12  1.0A
50
0.0
72
1
11
1708.0000
21
202.5000
31
0.0
73
2
0
TEXT
8
TEXT-LABELS
7
STANDARD
10
1813.0000
20
202.5000
30
0.0
40
14
1
11  1.0A
50
0.0
72
1
11
1813.0000
21
202.5000
31
0.0
73
2
0
TEXT
8
TEXT-LABELS
7
STANDARD
10
1918.0000
20
202.5000
30
0.0
40
14
1
10  1.0A
50
0.0
72
1
11
1918.0000
21
202.5000
31
0.0
73
2
0
TEXT
8
TEXT-LABELS
7
STANDARD
10
2023.0000
20
202.5000
30
0.0
40
14
1
9  1.0A
50
0.0
72
1
11
2023.0000
21
202.5000
31
0.0
73
2
0
TEXT
8
TEXT-LABELS
7
STANDARD
10
2128.0000
20
52.5000
30
0.0
40
14
1
B8-4
50
0.0
72
1
11
2128.0000
21
52.5000
31
0.0
73
2
0
TEXT
8
TEXT-LABELS
7
STANDARD
10
2233.0000
20
52.5000
30
0.0
40
14
1
B8-3
50
0.0
72
1
11
2233.0000
21
52.5000
31
0.0
73
2
0
TEXT
8
TEXT-LABELS
7
STANDARD
10
2338.0000
20
52.5000
30
0.0
40
14
1
B8-2
50
0.0
72
1
11
2338.0000
21
52.5000
31
0.0
73
2
0
TEXT
8
TEXT-LABELS
7
STANDARD
10
2443.0000
20
52.5000
30
0.0
40
14
1
B8-1
50
0.0
72
1
11
2443.0000
21
52.5000
31
0.0
73
2
0
TEXT
8
TEXT-LABELS
7
STANDARD
10
2285.5000
20
157.5000
30
0.0
40
14
1
7  1.0A
50
0.0
72
1
11
2285.5000
21
157.5000
31
0.0
73
2
0
TEXT
8
TEXT-LABELS
7
STANDARD
10
2285.5000
20
262.5000
30
0.0
40
14
1
6  1.0A
50
0.0
72
1
11
2285.5000
21
262.5000
31
0.0
73
2
0
TEXT
8
TEXT-LABELS
7
STANDARD
10
2285.5000
20
360.0000
30
0.0
40
14
1
5  1.0A
50
0.0
72
1
11
2285.5000
21
360.0000
31
0.0
73
2
0
TEXT
8
TEXT-LABELS
7
STANDARD
10
2285.5000
20
480.0000
30
0.0
40
14
1
4  1.0A
50
0.0
72
1
11
2285.5000
21
480.0000
31
0.0
73
2
0
TEXT
8
TEXT-LABELS
7
STANDARD
10
2285.5000
20
577.5000
30
0.0
40
14
1
3  1.0A
50
0.0
72
1
11
2285.5000
21
577.5000
31
0.0
73
2
0
TEXT
8
TEXT-LABELS
7
STANDARD
10
2285.5000
20
682.5000
30
0.0
40
14
1
2  1.0A
50
0.0
72
1
11
2285.5000
21
682.5000
31
0.0
73
2
0
TEXT
8
TITLEBLOCK
7
STANDARD
10
646.5000
20
60.0000
30
0.0
40
18
1
JOHN M. STEVENS SUBDIVISION  PB 4 FOLIO 85 (1910)  -  claude reconstruction (in progress)
50
0.0
72
1
11
646.5000
21
60.0000
31
0.0
73
2
0
TEXT
8
TITLEBLOCK
7
STANDARD
10
646.5000
20
30.0000
30
0.0
40
10
1
NO BEARINGS ON PLAT - SECTION LINE TAKEN DUE SOUTH; LOTS NORTH OF THE SIBBALD GRANT LINE NOT YET BUILT
50
0.0
72
1
11
646.5000
21
30.0000
31
0.0
73
2
0
ENDSEC
0
EOF
