0
SECTION
2
HEADER
9
$ACADVER
1
AC1009
9
$DWGCODEPAGE
3
ANSI_1252
0
ENDSEC
0
SECTION
2
TABLES
0
TABLE
2
LTYPE
70
6
0
LTYPE
2
CONTINUOUS
70
0
3
Solid
72
65
73
0
40
0.0
0
LTYPE
2
DASHED
70
0
3
Dashed
72
65
73
2
40
0.75
49
0.5
74
0
49
-0.25
74
0
0
LTYPE
2
DASHED2
70
0
3
Dashed (.5x)
72
65
73
2
40
0.375
49
0.25
74
0
49
-0.125
74
0
0
LTYPE
2
HIDDEN
70
0
3
Hidden
72
65
73
2
40
0.375
49
0.25
74
0
49
-0.125
74
0
0
LTYPE
2
CENTER
70
0
3
Center
72
65
73
4
40
2.0
49
1.25
74
0
49
-0.25
74
0
49
0.25
74
0
49
-0.25
74
0
0
LTYPE
2
PHANTOM
70
0
3
Phantom
72
65
73
6
40
2.5
49
1.25
74
0
49
-0.25
74
0
49
0.25
74
0
49
-0.25
74
0
49
0.25
74
0
49
-0.25
74
0
0
ENDTAB
0
TABLE
2
LAYER
70
5
0
LAYER
2
0
70
0
62
7
6
CONTINUOUS
0
LAYER
2
LOT
70
0
62
4
6
CONTINUOUS
0
LAYER
2
LOT-FLAGGED
70
0
62
1
6
CONTINUOUS
0
LAYER
2
TEXT-LABELS
70
0
62
7
6
CONTINUOUS
0
LAYER
2
TITLEBLOCK
70
0
62
2
6
CONTINUOUS
0
ENDTAB
0
TABLE
2
STYLE
70
4
0
STYLE
2
STANDARD
70
0
40
0.0
41
1.0
50
0.0
71
0
42
0.2
3
Arial
4

0
STYLE
2
ARIAL
70
0
40
0.0
41
1.0
50
0.0
71
0
42
0.2
3
Arial
4

0
STYLE
2
ARIAL_TTF
70
0
40
0.0
41
1.0
50
0.0
71
0
42
0.2
3
arial.ttf
4

0
STYLE
2
SIMPLEX
70
0
40
0.0
41
1.0
50
0.0
71
0
42
0.2
3
simplex.shx
4

0
ENDTAB
0
ENDSEC
0
SECTION
2
ENTITIES
0
POLYLINE
8
LOT
66
1
70
1
0
VERTEX
8
LOT
10
0.0000
20
0.0000
30
0.0
0
VERTEX
8
LOT
10
-0.5178
20
-54.9976
30
0.0
0
VERTEX
8
LOT
10
-120.5125
20
-53.8678
30
0.0
0
VERTEX
8
LOT
10
-120.0777
20
-7.9856
30
0.0
0
VERTEX
8
LOT
10
-120.0712
20
-7.4156
30
0.0
0
VERTEX
8
LOT
10
-120.0626
20
-6.8455
30
0.0
0
VERTEX
8
LOT
10
-120.0519
20
-6.2756
30
0.0
0
VERTEX
8
LOT
10
-120.0389
20
-5.7056
30
0.0
0
VERTEX
8
LOT
10
-120.0238
20
-5.1357
30
0.0
0
VERTEX
8
LOT
10
-120.0065
20
-4.5659
30
0.0
0
VERTEX
8
LOT
10
-119.9871
20
-3.9961
30
0.0
0
VERTEX
8
LOT
10
-119.9655
20
-3.4265
30
0.0
0
VERTEX
8
LOT
10
-119.9417
20
-2.8569
30
0.0
0
VERTEX
8
LOT
10
-119.9158
20
-2.2874
30
0.0
0
VERTEX
8
LOT
10
-119.8877
20
-1.7180
30
0.0
0
VERTEX
8
LOT
10
-119.8574
20
-1.1487
30
0.0
0
VERTEX
8
LOT
10
-119.8250
20
-0.5795
30
0.0
0
VERTEX
8
LOT
10
-119.7904
20
-0.0105
30
0.0
0
VERTEX
8
LOT
10
-119.7536
20
0.5584
30
0.0
0
VERTEX
8
LOT
10
-119.7147
20
1.1272
30
0.0
0
SEQEND
0
POLYLINE
8
LOT
66
1
70
1
0
VERTEX
8
LOT
10
-0.5178
20
-54.9976
30
0.0
0
VERTEX
8
LOT
10
-1.0827
20
-114.9949
30
0.0
0
VERTEX
8
LOT
10
-118.8275
20
-113.8863
30
0.0
0
VERTEX
8
LOT
10
-119.0816
20
-112.2891
30
0.0
0
VERTEX
8
LOT
10
-119.3210
20
-110.6811
30
0.0
0
VERTEX
8
LOT
10
-119.5428
20
-109.0705
30
0.0
0
VERTEX
8
LOT
10
-119.7473
20
-107.4576
30
0.0
0
VERTEX
8
LOT
10
-119.9342
20
-105.8426
30
0.0
0
VERTEX
8
LOT
10
-120.1036
20
-104.2257
30
0.0
0
VERTEX
8
LOT
10
-120.2555
20
-102.6070
30
0.0
0
VERTEX
8
LOT
10
-120.3898
20
-100.9868
30
0.0
0
VERTEX
8
LOT
10
-120.5065
20
-99.3652
30
0.0
0
VERTEX
8
LOT
10
-120.6057
20
-97.7425
30
0.0
0
VERTEX
8
LOT
10
-120.6873
20
-96.1187
30
0.0
0
VERTEX
8
LOT
10
-120.7512
20
-94.4942
30
0.0
0
VERTEX
8
LOT
10
-120.7976
20
-92.8691
30
0.0
0
VERTEX
8
LOT
10
-120.8264
20
-91.2436
30
0.0
0
VERTEX
8
LOT
10
-120.8375
20
-89.6178
30
0.0
0
VERTEX
8
LOT
10
-120.8310
20
-87.9921
30
0.0
0
VERTEX
8
LOT
10
-120.5125
20
-53.8678
30
0.0
0
SEQEND
0
POLYLINE
8
LOT
66
1
70
1
0
VERTEX
8
LOT
10
-1.0827
20
-114.9949
30
0.0
0
VERTEX
8
LOT
10
-1.6005
20
-169.9925
30
0.0
0
VERTEX
8
LOT
10
-108.3858
20
-168.9870
30
0.0
0
VERTEX
8
LOT
10
-108.8449
20
-166.0524
30
0.0
0
VERTEX
8
LOT
10
-109.3154
20
-163.1124
30
0.0
0
VERTEX
8
LOT
10
-109.7984
20
-160.1744
30
0.0
0
VERTEX
8
LOT
10
-110.2939
20
-157.2384
30
0.0
0
VERTEX
8
LOT
10
-110.8019
20
-154.3046
30
0.0
0
VERTEX
8
LOT
10
-111.3224
20
-151.3730
30
0.0
0
VERTEX
8
LOT
10
-111.8553
20
-148.4437
30
0.0
0
VERTEX
8
LOT
10
-112.4007
20
-145.5166
30
0.0
0
VERTEX
8
LOT
10
-112.9585
20
-142.5919
30
0.0
0
VERTEX
8
LOT
10
-113.5288
20
-139.6695
30
0.0
0
VERTEX
8
LOT
10
-114.1115
20
-136.7497
30
0.0
0
VERTEX
8
LOT
10
-114.7066
20
-133.8323
30
0.0
0
VERTEX
8
LOT
10
-115.3141
20
-130.9175
30
0.0
0
VERTEX
8
LOT
10
-115.9340
20
-128.0053
30
0.0
0
VERTEX
8
LOT
10
-116.5663
20
-125.0958
30
0.0
0
VERTEX
8
LOT
10
-117.2109
20
-122.1889
30
0.0
0
VERTEX
8
LOT
10
-117.3254
20
-121.6733
30
0.0
0
VERTEX
8
LOT
10
-117.4382
20
-121.1573
30
0.0
0
VERTEX
8
LOT
10
-117.5491
20
-120.6409
30
0.0
0
VERTEX
8
LOT
10
-117.6582
20
-120.1241
30
0.0
0
VERTEX
8
LOT
10
-117.7654
20
-119.6069
30
0.0
0
VERTEX
8
LOT
10
-117.8709
20
-119.0893
30
0.0
0
VERTEX
8
LOT
10
-117.9745
20
-118.5714
30
0.0
0
VERTEX
8
LOT
10
-118.0763
20
-118.0531
30
0.0
0
VERTEX
8
LOT
10
-118.1763
20
-117.5344
30
0.0
0
VERTEX
8
LOT
10
-118.2744
20
-117.0154
30
0.0
0
VERTEX
8
LOT
10
-118.3708
20
-116.4961
30
0.0
0
VERTEX
8
LOT
10
-118.4652
20
-115.9764
30
0.0
0
VERTEX
8
LOT
10
-118.5579
20
-115.4564
30
0.0
0
VERTEX
8
LOT
10
-118.6487
20
-114.9361
30
0.0
0
VERTEX
8
LOT
10
-118.7377
20
-114.4155
30
0.0
0
VERTEX
8
LOT
10
-118.8275
20
-113.8863
30
0.0
0
SEQEND
0
POLYLINE
8
LOT
66
1
70
1
0
VERTEX
8
LOT
10
-1.6005
20
-169.9925
30
0.0
0
VERTEX
8
LOT
10
-2.1184
20
-224.9900
30
0.0
0
VERTEX
8
LOT
10
-102.1539
20
-224.0482
30
0.0
0
VERTEX
8
LOT
10
-102.4157
20
-220.5986
30
0.0
0
VERTEX
8
LOT
10
-102.6945
20
-217.1458
30
0.0
0
VERTEX
8
LOT
10
-102.9903
20
-213.6945
30
0.0
0
VERTEX
8
LOT
10
-103.3032
20
-210.2446
30
0.0
0
VERTEX
8
LOT
10
-103.6332
20
-206.7963
30
0.0
0
VERTEX
8
LOT
10
-103.9803
20
-203.3497
30
0.0
0
VERTEX
8
LOT
10
-104.3443
20
-199.9049
30
0.0
0
VERTEX
8
LOT
10
-104.7255
20
-196.4619
30
0.0
0
VERTEX
8
LOT
10
-105.1237
20
-193.0208
30
0.0
0
VERTEX
8
LOT
10
-105.5388
20
-189.5818
30
0.0
0
VERTEX
8
LOT
10
-105.9710
20
-186.1448
30
0.0
0
VERTEX
8
LOT
10
-106.4203
20
-182.7100
30
0.0
0
VERTEX
8
LOT
10
-106.8865
20
-179.2775
30
0.0
0
VERTEX
8
LOT
10
-107.3696
20
-175.8474
30
0.0
0
VERTEX
8
LOT
10
-107.8698
20
-172.4196
30
0.0
0
VERTEX
8
LOT
10
-108.3858
20
-168.9870
30
0.0
0
SEQEND
0
POLYLINE
8
LOT
66
1
70
1
0
VERTEX
8
LOT
10
-2.1184
20
-224.9900
30
0.0
0
VERTEX
8
LOT
10
-2.6833
20
-284.9874
30
0.0
0
VERTEX
8
LOT
10
-100.3389
20
-284.0679
30
0.0
0
VERTEX
8
LOT
10
-100.3016
20
-280.3212
30
0.0
0
VERTEX
8
LOT
10
-100.2842
20
-276.5670
30
0.0
0
VERTEX
8
LOT
10
-100.2870
20
-272.8127
30
0.0
0
VERTEX
8
LOT
10
-100.3098
20
-269.0585
30
0.0
0
VERTEX
8
LOT
10
-100.3529
20
-265.3045
30
0.0
0
VERTEX
8
LOT
10
-100.4160
20
-261.5508
30
0.0
0
VERTEX
8
LOT
10
-100.4993
20
-257.7974
30
0.0
0
VERTEX
8
LOT
10
-100.6027
20
-254.0446
30
0.0
0
VERTEX
8
LOT
10
-100.7262
20
-250.2923
30
0.0
0
VERTEX
8
LOT
10
-100.8699
20
-246.5408
30
0.0
0
VERTEX
8
LOT
10
-101.0336
20
-242.7901
30
0.0
0
VERTEX
8
LOT
10
-101.2175
20
-239.0403
30
0.0
0
VERTEX
8
LOT
10
-101.4215
20
-235.2916
30
0.0
0
VERTEX
8
LOT
10
-101.6456
20
-231.5440
30
0.0
0
VERTEX
8
LOT
10
-101.8898
20
-227.7977
30
0.0
0
VERTEX
8
LOT
10
-102.1539
20
-224.0482
30
0.0
0
SEQEND
0
POLYLINE
8
LOT
66
1
70
1
0
VERTEX
8
LOT
10
-2.6833
20
-284.9874
30
0.0
0
VERTEX
8
LOT
10
-3.2011
20
-339.9849
30
0.0
0
VERTEX
8
LOT
10
-103.1067
20
-339.0443
30
0.0
0
VERTEX
8
LOT
10
-102.2516
20
-327.6634
30
0.0
0
VERTEX
8
LOT
10
-102.0525
20
-324.9433
30
0.0
0
VERTEX
8
LOT
10
-101.8640
20
-322.2226
30
0.0
0
VERTEX
8
LOT
10
-101.6861
20
-319.5010
30
0.0
0
VERTEX
8
LOT
10
-101.5188
20
-316.7789
30
0.0
0
VERTEX
8
LOT
10
-101.3621
20
-314.0561
30
0.0
0
VERTEX
8
LOT
10
-101.2160
20
-311.3327
30
0.0
0
VERTEX
8
LOT
10
-101.0805
20
-308.6087
30
0.0
0
VERTEX
8
LOT
10
-100.9557
20
-305.8843
30
0.0
0
VERTEX
8
LOT
10
-100.8414
20
-303.1593
30
0.0
0
VERTEX
8
LOT
10
-100.7378
20
-300.4340
30
0.0
0
VERTEX
8
LOT
10
-100.6448
20
-297.7083
30
0.0
0
VERTEX
8
LOT
10
-100.5624
20
-294.9822
30
0.0
0
VERTEX
8
LOT
10
-100.4907
20
-292.2558
30
0.0
0
VERTEX
8
LOT
10
-100.4295
20
-289.5292
30
0.0
0
VERTEX
8
LOT
10
-100.3790
20
-286.8023
30
0.0
0
VERTEX
8
LOT
10
-100.3389
20
-284.0679
30
0.0
0
SEQEND
0
POLYLINE
8
LOT
66
1
70
1
0
VERTEX
8
LOT
10
-3.2011
20
-339.9849
30
0.0
0
VERTEX
8
LOT
10
-3.7189
20
-394.9825
30
0.0
0
VERTEX
8
LOT
10
-107.2443
20
-394.0078
30
0.0
0
VERTEX
8
LOT
10
-103.1067
20
-339.0443
30
0.0
0
SEQEND
0
POLYLINE
8
LOT
66
1
70
1
0
VERTEX
8
LOT
10
-3.7189
20
-394.9825
30
0.0
0
VERTEX
8
LOT
10
-4.2838
20
-454.9798
30
0.0
0
VERTEX
8
LOT
10
-111.7490
20
-453.9680
30
0.0
0
VERTEX
8
LOT
10
-107.2443
20
-394.0078
30
0.0
0
SEQEND
0
POLYLINE
8
LOT
66
1
70
1
0
VERTEX
8
LOT
10
-4.2838
20
-454.9798
30
0.0
0
VERTEX
8
LOT
10
-4.8016
20
-509.9774
30
0.0
0
VERTEX
8
LOT
10
-115.8767
20
-508.9316
30
0.0
0
VERTEX
8
LOT
10
-111.7490
20
-453.9680
30
0.0
0
SEQEND
0
POLYLINE
8
LOT
66
1
70
1
0
VERTEX
8
LOT
10
-4.8016
20
-509.9774
30
0.0
0
VERTEX
8
LOT
10
-5.3194
20
-564.9750
30
0.0
0
VERTEX
8
LOT
10
-120.0144
20
-563.8951
30
0.0
0
VERTEX
8
LOT
10
-115.8767
20
-508.9316
30
0.0
0
SEQEND
0
POLYLINE
8
LOT
66
1
70
1
0
VERTEX
8
LOT
10
-5.3194
20
-564.9750
30
0.0
0
VERTEX
8
LOT
10
-5.8843
20
-624.9723
30
0.0
0
VERTEX
8
LOT
10
-124.5191
20
-623.8553
30
0.0
0
VERTEX
8
LOT
10
-120.0144
20
-563.8951
30
0.0
0
SEQEND
0
POLYLINE
8
LOT
66
1
70
1
0
VERTEX
8
LOT
10
1.2978
20
137.8439
30
0.0
0
VERTEX
8
LOT
10
0.0000
20
0.0000
30
0.0
0
VERTEX
8
LOT
10
-119.7147
20
1.1272
30
0.0
0
VERTEX
8
LOT
10
-119.1592
20
7.2355
30
0.0
0
VERTEX
8
LOT
10
-118.3544
20
13.3161
30
0.0
0
VERTEX
8
LOT
10
-117.3018
20
19.3587
30
0.0
0
VERTEX
8
LOT
10
-116.0029
20
25.3532
30
0.0
0
VERTEX
8
LOT
10
-114.4601
20
31.2896
30
0.0
0
VERTEX
8
LOT
10
-112.6759
20
37.1579
30
0.0
0
VERTEX
8
LOT
10
-110.6533
20
42.9484
30
0.0
0
VERTEX
8
LOT
10
-108.3956
20
48.6514
30
0.0
0
VERTEX
8
LOT
10
-105.9067
20
54.2573
30
0.0
0
VERTEX
8
LOT
10
-103.1906
20
59.7568
30
0.0
0
VERTEX
8
LOT
10
-100.2520
20
65.1406
30
0.0
0
VERTEX
8
LOT
10
-97.0958
20
70.3998
30
0.0
0
VERTEX
8
LOT
10
-93.7272
20
75.5256
30
0.0
0
VERTEX
8
LOT
10
-90.1519
20
80.5093
30
0.0
0
VERTEX
8
LOT
10
-86.3758
20
85.3428
30
0.0
0
VERTEX
8
LOT
10
-82.4052
20
90.0178
30
0.0
0
VERTEX
8
LOT
10
-78.2469
20
94.5266
30
0.0
0
VERTEX
8
LOT
10
-73.9077
20
98.8616
30
0.0
0
VERTEX
8
LOT
10
-69.3949
20
103.0156
30
0.0
0
VERTEX
8
LOT
10
-64.7160
20
106.9816
30
0.0
0
VERTEX
8
LOT
10
-59.8790
20
110.7530
30
0.0
0
VERTEX
8
LOT
10
-54.8918
20
114.3236
30
0.0
0
VERTEX
8
LOT
10
-49.7627
20
117.6872
30
0.0
0
VERTEX
8
LOT
10
-44.5005
20
120.8384
30
0.0
0
VERTEX
8
LOT
10
-39.1138
20
123.7718
30
0.0
0
VERTEX
8
LOT
10
-33.6118
20
126.4825
30
0.0
0
VERTEX
8
LOT
10
-28.0034
20
128.9660
30
0.0
0
VERTEX
8
LOT
10
-22.2983
20
131.2182
30
0.0
0
VERTEX
8
LOT
10
-16.5058
20
133.2352
30
0.0
0
VERTEX
8
LOT
10
-10.6358
20
135.0138
30
0.0
0
VERTEX
8
LOT
10
-4.6979
20
136.5508
30
0.0
0
SEQEND
0
POLYLINE
8
LOT
66
1
70
1
0
VERTEX
8
LOT
10
-5.8843
20
-624.9723
30
0.0
0
VERTEX
8
LOT
10
-5.9785
20
-634.9719
30
0.0
0
VERTEX
8
LOT
10
2.0057
20
-680.0503
30
0.0
0
VERTEX
8
LOT
10
-118.6090
20
-678.9146
30
0.0
0
VERTEX
8
LOT
10
-119.6109
20
-676.2694
30
0.0
0
VERTEX
8
LOT
10
-120.5361
20
-673.6041
30
0.0
0
VERTEX
8
LOT
10
-121.3856
20
-670.9137
30
0.0
0
VERTEX
8
LOT
10
-122.1590
20
-668.2005
30
0.0
0
VERTEX
8
LOT
10
-122.8555
20
-665.4665
30
0.0
0
VERTEX
8
LOT
10
-123.4746
20
-662.7140
30
0.0
0
VERTEX
8
LOT
10
-124.0158
20
-659.9451
30
0.0
0
VERTEX
8
LOT
10
-124.4786
20
-657.1620
30
0.0
0
VERTEX
8
LOT
10
-124.8628
20
-654.3670
30
0.0
0
VERTEX
8
LOT
10
-125.1680
20
-651.5622
30
0.0
0
VERTEX
8
LOT
10
-125.3939
20
-648.7500
30
0.0
0
VERTEX
8
LOT
10
-125.5404
20
-645.9325
30
0.0
0
VERTEX
8
LOT
10
-125.6074
20
-643.1120
30
0.0
0
VERTEX
8
LOT
10
-125.5947
20
-640.2907
30
0.0
0
VERTEX
8
LOT
10
-125.5025
20
-637.4709
30
0.0
0
VERTEX
8
LOT
10
-125.3308
20
-634.6548
30
0.0
0
VERTEX
8
LOT
10
-124.5191
20
-623.8553
30
0.0
0
SEQEND
0
POLYLINE
8
LOT
66
1
70
1
0
VERTEX
8
LOT
10
2.0057
20
-680.0503
30
0.0
0
VERTEX
8
LOT
10
11.7635
20
-735.1428
30
0.0
0
VERTEX
8
LOT
10
-92.9019
20
-734.1573
30
0.0
0
VERTEX
8
LOT
10
-93.8592
20
-731.4497
30
0.0
0
VERTEX
8
LOT
10
-94.8446
20
-728.7560
30
0.0
0
VERTEX
8
LOT
10
-95.8628
20
-726.0745
30
0.0
0
VERTEX
8
LOT
10
-96.9136
20
-723.4056
30
0.0
0
VERTEX
8
LOT
10
-97.9970
20
-720.7498
30
0.0
0
VERTEX
8
LOT
10
-99.1127
20
-718.1074
30
0.0
0
VERTEX
8
LOT
10
-100.2605
20
-715.4788
30
0.0
0
VERTEX
8
LOT
10
-101.4403
20
-712.8644
30
0.0
0
VERTEX
8
LOT
10
-102.6520
20
-710.2646
30
0.0
0
VERTEX
8
LOT
10
-103.8953
20
-707.6798
30
0.0
0
VERTEX
8
LOT
10
-105.1701
20
-705.1103
30
0.0
0
VERTEX
8
LOT
10
-106.4761
20
-702.5566
30
0.0
0
VERTEX
8
LOT
10
-107.8132
20
-700.0191
30
0.0
0
VERTEX
8
LOT
10
-109.1811
20
-697.4980
30
0.0
0
VERTEX
8
LOT
10
-110.5798
20
-694.9938
30
0.0
0
VERTEX
8
LOT
10
-112.0089
20
-692.5069
30
0.0
0
VERTEX
8
LOT
10
-112.4810
20
-691.6880
30
0.0
0
VERTEX
8
LOT
10
-112.9453
20
-690.8646
30
0.0
0
VERTEX
8
LOT
10
-113.4018
20
-690.0369
30
0.0
0
VERTEX
8
LOT
10
-113.8505
20
-689.2049
30
0.0
0
VERTEX
8
LOT
10
-114.2913
20
-688.3687
30
0.0
0
VERTEX
8
LOT
10
-114.7242
20
-687.5284
30
0.0
0
VERTEX
8
LOT
10
-115.1491
20
-686.6840
30
0.0
0
VERTEX
8
LOT
10
-115.5660
20
-685.8356
30
0.0
0
VERTEX
8
LOT
10
-115.9749
20
-684.9833
30
0.0
0
VERTEX
8
LOT
10
-116.3757
20
-684.1272
30
0.0
0
VERTEX
8
LOT
10
-116.7684
20
-683.2674
30
0.0
0
VERTEX
8
LOT
10
-117.1529
20
-682.4039
30
0.0
0
VERTEX
8
LOT
10
-117.5293
20
-681.5368
30
0.0
0
VERTEX
8
LOT
10
-117.8975
20
-680.6661
30
0.0
0
VERTEX
8
LOT
10
-118.2574
20
-679.7921
30
0.0
0
VERTEX
8
LOT
10
-118.6090
20
-678.9146
30
0.0
0
SEQEND
0
POLYLINE
8
LOT
66
1
70
1
0
VERTEX
8
LOT
10
-298.5309
20
-102.9365
30
0.0
0
VERTEX
8
LOT
10
-352.7615
20
-93.7687
30
0.0
0
VERTEX
8
LOT
10
-374.4309
20
-221.9500
30
0.0
0
VERTEX
8
LOT
10
-320.2003
20
-231.1178
30
0.0
0
SEQEND
0
POLYLINE
8
LOT
66
1
70
1
0
VERTEX
8
LOT
10
-352.7615
20
-93.7687
30
0.0
0
VERTEX
8
LOT
10
-411.0906
20
-78.8369
30
0.0
0
VERTEX
8
LOT
10
-433.5934
20
-211.9483
30
0.0
0
VERTEX
8
LOT
10
-374.4309
20
-221.9500
30
0.0
0
SEQEND
0
POLYLINE
8
LOT
66
1
70
1
0
VERTEX
8
LOT
10
-411.0906
20
-78.8369
30
0.0
0
VERTEX
8
LOT
10
-462.8219
20
-54.8783
30
0.0
0
VERTEX
8
LOT
10
-487.8250
20
-202.7798
30
0.0
0
VERTEX
8
LOT
10
-433.5934
20
-211.9483
30
0.0
0
SEQEND
0
POLYLINE
8
LOT
66
1
70
1
0
VERTEX
8
LOT
10
-462.8219
20
-54.8783
30
0.0
0
VERTEX
8
LOT
10
-517.0524
20
-45.7105
30
0.0
0
VERTEX
8
LOT
10
-542.0555
20
-193.6120
30
0.0
0
VERTEX
8
LOT
10
-487.8250
20
-202.7798
30
0.0
0
SEQEND
0
POLYLINE
8
LOT
66
1
70
1
0
VERTEX
8
LOT
10
-517.0524
20
-45.7105
30
0.0
0
VERTEX
8
LOT
10
-576.2130
20
-35.7093
30
0.0
0
VERTEX
8
LOT
10
-601.2161
20
-183.6107
30
0.0
0
VERTEX
8
LOT
10
-542.0555
20
-193.6120
30
0.0
0
SEQEND
0
POLYLINE
8
LOT
66
1
70
1
0
VERTEX
8
LOT
10
-576.2130
20
-35.7093
30
0.0
0
VERTEX
8
LOT
10
-630.4435
20
-26.5415
30
0.0
0
VERTEX
8
LOT
10
-655.4467
20
-174.4429
30
0.0
0
VERTEX
8
LOT
10
-601.2161
20
-183.6107
30
0.0
0
SEQEND
0
POLYLINE
8
LOT-FLAGGED
66
1
70
1
0
VERTEX
8
LOT-FLAGGED
10
-630.4435
20
-26.5415
30
0.0
0
VERTEX
8
LOT-FLAGGED
10
-684.6741
20
-17.3736
30
0.0
0
VERTEX
8
LOT-FLAGGED
10
-710.4740
20
-169.9882
30
0.0
0
VERTEX
8
LOT-FLAGGED
10
-707.7723
20
-170.4256
30
0.0
0
VERTEX
8
LOT-FLAGGED
10
-705.0649
20
-170.8260
30
0.0
0
VERTEX
8
LOT-FLAGGED
10
-702.3523
20
-171.1893
30
0.0
0
VERTEX
8
LOT-FLAGGED
10
-699.6350
20
-171.5155
30
0.0
0
VERTEX
8
LOT-FLAGGED
10
-696.9135
20
-171.8044
30
0.0
0
VERTEX
8
LOT-FLAGGED
10
-694.1882
20
-172.0560
30
0.0
0
VERTEX
8
LOT-FLAGGED
10
-691.4598
20
-172.2704
30
0.0
0
VERTEX
8
LOT-FLAGGED
10
-688.7287
20
-172.4474
30
0.0
0
VERTEX
8
LOT-FLAGGED
10
-685.9954
20
-172.5870
30
0.0
0
VERTEX
8
LOT-FLAGGED
10
-683.2605
20
-172.6892
30
0.0
0
VERTEX
8
LOT-FLAGGED
10
-680.5245
20
-172.7539
30
0.0
0
VERTEX
8
LOT-FLAGGED
10
-677.7878
20
-172.7812
30
0.0
0
VERTEX
8
LOT-FLAGGED
10
-675.0510
20
-172.7711
30
0.0
0
VERTEX
8
LOT-FLAGGED
10
-672.3145
20
-172.7235
30
0.0
0
VERTEX
8
LOT-FLAGGED
10
-669.5790
20
-172.6385
30
0.0
0
VERTEX
8
LOT-FLAGGED
10
-666.8449
20
-172.5160
30
0.0
0
VERTEX
8
LOT-FLAGGED
10
-655.4467
20
-174.4429
30
0.0
0
SEQEND
0
POLYLINE
8
LOT-FLAGGED
66
1
70
1
0
VERTEX
8
LOT-FLAGGED
10
-684.6741
20
-17.3736
30
0.0
0
VERTEX
8
LOT-FLAGGED
10
-748.8334
20
-36.9520
30
0.0
0
VERTEX
8
LOT-FLAGGED
10
-771.9312
20
-173.5834
30
0.0
0
VERTEX
8
LOT-FLAGGED
10
-768.0827
20
-173.9169
30
0.0
0
VERTEX
8
LOT-FLAGGED
10
-764.2285
20
-174.1759
30
0.0
0
VERTEX
8
LOT-FLAGGED
10
-760.3700
20
-174.3605
30
0.0
0
VERTEX
8
LOT-FLAGGED
10
-756.5086
20
-174.4705
30
0.0
0
VERTEX
8
LOT-FLAGGED
10
-752.6458
20
-174.5060
30
0.0
0
VERTEX
8
LOT-FLAGGED
10
-748.7831
20
-174.4668
30
0.0
0
VERTEX
8
LOT-FLAGGED
10
-744.9218
20
-174.3530
30
0.0
0
VERTEX
8
LOT-FLAGGED
10
-741.0634
20
-174.1647
30
0.0
0
VERTEX
8
LOT-FLAGGED
10
-737.2095
20
-173.9018
30
0.0
0
VERTEX
8
LOT-FLAGGED
10
-733.3613
20
-173.5646
30
0.0
0
VERTEX
8
LOT-FLAGGED
10
-729.5203
20
-173.1532
30
0.0
0
VERTEX
8
LOT-FLAGGED
10
-725.6880
20
-172.6676
30
0.0
0
VERTEX
8
LOT-FLAGGED
10
-721.8658
20
-172.1081
30
0.0
0
VERTEX
8
LOT-FLAGGED
10
-718.0551
20
-171.4749
30
0.0
0
VERTEX
8
LOT-FLAGGED
10
-714.2574
20
-170.7682
30
0.0
0
VERTEX
8
LOT-FLAGGED
10
-710.4740
20
-169.9882
30
0.0
0
SEQEND
0
POLYLINE
8
LOT
66
1
70
1
0
VERTEX
8
LOT
10
-245.9854
20
-103.7933
30
0.0
0
VERTEX
8
LOT
10
-296.2631
20
-103.3199
30
0.0
0
VERTEX
8
LOT
10
-298.5309
20
-102.9365
30
0.0
0
VERTEX
8
LOT
10
-320.2003
20
-231.1178
30
0.0
0
VERTEX
8
LOT
10
-309.2556
20
-232.9680
30
0.0
0
VERTEX
8
LOT
10
-305.4117
20
-233.5995
30
0.0
0
VERTEX
8
LOT
10
-301.5621
20
-234.1953
30
0.0
0
VERTEX
8
LOT
10
-297.7071
20
-234.7554
30
0.0
0
VERTEX
8
LOT
10
-293.8472
20
-235.2797
30
0.0
0
VERTEX
8
LOT
10
-289.9825
20
-235.7682
30
0.0
0
VERTEX
8
LOT
10
-286.1134
20
-236.2208
30
0.0
0
VERTEX
8
LOT
10
-282.2403
20
-236.6376
30
0.0
0
VERTEX
8
LOT
10
-278.3636
20
-237.0183
30
0.0
0
VERTEX
8
LOT
10
-274.4834
20
-237.3631
30
0.0
0
VERTEX
8
LOT
10
-270.6002
20
-237.6719
30
0.0
0
VERTEX
8
LOT
10
-266.7144
20
-237.9447
30
0.0
0
VERTEX
8
LOT
10
-262.8261
20
-238.1814
30
0.0
0
VERTEX
8
LOT
10
-258.9359
20
-238.3821
30
0.0
0
VERTEX
8
LOT
10
-255.0439
20
-238.5466
30
0.0
0
VERTEX
8
LOT
10
-251.1506
20
-238.6751
30
0.0
0
VERTEX
8
LOT
10
-247.2563
20
-238.7674
30
0.0
0
VERTEX
8
LOT
10
-247.2564
20
-238.7873
30
0.0
0
SEQEND
0
POLYLINE
8
LOT
66
1
70
1
0
VERTEX
8
LOT
10
-170.2687
20
-104.5062
30
0.0
0
VERTEX
8
LOT
10
-245.9854
20
-103.7933
30
0.0
0
VERTEX
8
LOT
10
-247.2564
20
-238.7873
30
0.0
0
VERTEX
8
LOT
10
-243.2068
20
-238.8450
30
0.0
0
VERTEX
8
LOT
10
-178.4797
20
-239.4544
30
0.0
0
VERTEX
8
LOT
10
-153.3643
20
-212.0039
30
0.0
0
VERTEX
8
LOT
10
-166.0042
20
-133.1100
30
0.0
0
SEQEND
0
TEXT
8
TEXT-LABELS
7
STANDARD
10
-108.0001
20
-8.3566
30
0.0
40
6
1
136  6,599 SF
50
0.0
72
1
11
-108.0001
21
-8.3566
31
0.0
73
2
0
TEXT
8
TEXT-LABELS
7
STANDARD
10
-108.2580
20
-97.0175
30
0.0
40
6
1
135  7,181 SF
50
0.0
72
1
11
-108.2580
21
-97.0175
31
0.0
73
2
0
TEXT
8
TEXT-LABELS
7
STANDARD
10
-108.7357
20
-132.6821
30
0.0
40
6
1
134  6,161 SF
50
0.0
72
1
11
-108.7357
21
-132.6821
31
0.0
73
2
0
TEXT
8
TEXT-LABELS
7
STANDARD
10
-94.0803
20
-196.5903
30
0.0
40
6
1
133  5,668 SF
50
0.0
72
1
11
-94.0803
21
-196.5903
31
0.0
73
2
0
TEXT
8
TEXT-LABELS
7
STANDARD
10
-90.4817
20
-254.1498
30
0.0
40
6
1
132  5,905 SF
50
0.0
72
1
11
-90.4817
21
-254.1498
31
0.0
73
2
0
TEXT
8
TEXT-LABELS
7
STANDARD
10
-91.3701
20
-308.1973
30
0.0
40
6
1
131  5,416 SF
50
0.0
72
1
11
-91.3701
21
-308.1973
31
0.0
73
2
0
TEXT
8
TEXT-LABELS
7
STANDARD
10
-54.3177
20
-367.0049
30
0.0
40
6
1
130  5,595 SF
50
0.0
72
1
11
-54.3177
21
-367.0049
31
0.0
73
2
0
TEXT
8
TEXT-LABELS
7
STANDARD
10
-56.7490
20
-424.4845
30
0.0
40
6
1
129  6,330 SF
50
0.0
72
1
11
-56.7490
21
-424.4845
31
0.0
73
2
0
TEXT
8
TEXT-LABELS
7
STANDARD
10
-59.1778
20
-481.9642
30
0.0
40
6
1
128  6,010 SF
50
0.0
72
1
11
-59.1778
21
-481.9642
31
0.0
73
2
0
TEXT
8
TEXT-LABELS
7
STANDARD
10
-61.5030
20
-536.9448
30
0.0
40
6
1
127  6,209 SF
50
0.0
72
1
11
-61.5030
21
-536.9448
31
0.0
73
2
0
TEXT
8
TEXT-LABELS
7
STANDARD
10
-63.9343
20
-594.4244
30
0.0
40
6
1
126  7,000 SF
50
0.0
72
1
11
-63.9343
21
-594.4244
31
0.0
73
2
0
TEXT
8
TEXT-LABELS
7
STANDARD
10
-71.9027
20
80.2193
30
0.0
40
6
1
137  12,104 SF
50
0.0
72
1
11
-71.9027
21
80.2193
31
0.0
73
2
0
TEXT
8
TEXT-LABELS
7
STANDARD
10
-106.4048
20
-653.9609
30
0.0
40
6
1
125  6,668 SF
50
0.0
72
1
11
-106.4048
21
-653.9609
31
0.0
73
2
0
TEXT
8
TEXT-LABELS
7
STANDARD
10
-101.9478
20
-700.0791
30
0.0
40
6
1
124  6,157 SF
50
0.0
72
1
11
-101.9478
21
-700.0791
31
0.0
73
2
0
TEXT
8
TEXT-LABELS
7
STANDARD
10
-336.4809
20
-162.4433
30
0.0
40
6
1
169  7,150 SF
50
0.0
72
1
11
-336.4809
21
-162.4433
31
0.0
73
2
0
TEXT
8
TEXT-LABELS
7
STANDARD
10
-392.9691
20
-151.6260
30
0.0
40
6
1
170  7,950 SF
50
0.0
72
1
11
-392.9691
21
-151.6260
31
0.0
73
2
0
TEXT
8
TEXT-LABELS
7
STANDARD
10
-448.8327
20
-137.1108
30
0.0
40
6
1
171  7,838 SF
50
0.0
72
1
11
-448.8327
21
-137.1108
31
0.0
73
2
0
TEXT
8
TEXT-LABELS
7
STANDARD
10
-502.4387
20
-124.2452
30
0.0
40
6
1
172  8,250 SF
50
0.0
72
1
11
-502.4387
21
-124.2452
31
0.0
73
2
0
TEXT
8
TEXT-LABELS
7
STANDARD
10
-559.1343
20
-114.6606
30
0.0
40
6
1
173  9,000 SF
50
0.0
72
1
11
-559.1343
21
-114.6606
31
0.0
73
2
0
TEXT
8
TEXT-LABELS
7
STANDARD
10
-615.8298
20
-105.0761
30
0.0
40
6
1
174  8,250 SF
50
0.0
72
1
11
-615.8298
21
-105.0761
31
0.0
73
2
0
TEXT
8
TEXT-LABELS
7
STANDARD
10
-683.9255
20
-157.1171
30
0.0
40
6
1
175  8,389 SF
50
0.0
72
1
11
-683.9255
21
-157.1171
31
0.0
73
2
0
TEXT
8
TEXT-LABELS
7
STANDARD
10
-738.5513
20
-157.8921
30
0.0
40
6
1
176  8,898 SF
50
0.0
72
1
11
-738.5513
21
-157.8921
31
0.0
73
2
0
TEXT
8
TEXT-LABELS
7
STANDARD
10
-279.0787
20
-218.2696
30
0.0
40
6
1
168  8,369 SF
50
0.0
72
1
11
-279.0787
21
-218.2696
31
0.0
73
2
0
TEXT
8
TEXT-LABELS
7
STANDARD
10
-200.6522
20
-181.5000
30
0.0
40
6
1
167  11,325 SF
50
0.0
72
1
11
-200.6522
21
-181.5000
31
0.0
73
2
0
TEXT
8
TITLEBLOCK
7
STANDARD
10
-60.0000
20
160.0000
30
0.0
40
8
1
ATLANTIC BEACH CC UNIT 2  PB 67 PG 134 (SHEET 3)  LOTS 124-137, 167-176  -  claude
50
0.0
72
1
11
-60.0000
21
160.0000
31
0.0
73
2
0
ENDSEC
0
EOF
