0
SECTION
2
HEADER
0
ENDSEC
0
SECTION
2
TABLES
0
TABLE
2
LTYPE
70
2
0
LTYPE
2
CONTINUOUS
70
0
3
Solid
72
65
73
0
40
0.0
0
LTYPE
2
DASHED
70
0
3
Dashed
72
65
73
2
40
0.75
49
0.5
74
0
49
-0.25
74
0
0
ENDTAB
0
TABLE
2
LAYER
70
3
0
LAYER
2
0
70
0
62
7
6
CONTINUOUS
0
LAYER
2
LINEWORK
70
0
62
4
6
CONTINUOUS
0
LAYER
2
TITLEBLOCK
70
0
62
2
6
CONTINUOUS
0
ENDTAB
0
ENDSEC
0
SECTION
2
ENTITIES
0
POLYLINE
8
LINEWORK
66
1
70
0
0
VERTEX
8
LINEWORK
10
686.1667
20
13.8333
30
0.0
0
VERTEX
8
LINEWORK
10
686.6667
20
13.3333
30
0.0
0
SEQEND
0
POLYLINE
8
LINEWORK
66
1
70
0
0
VERTEX
8
LINEWORK
10
13.6667
20
13.8333
30
0.0
0
VERTEX
8
LINEWORK
10
13.1667
20
13.3333
30
0.0
0
SEQEND
0
POLYLINE
8
LINEWORK
66
1
70
0
0
VERTEX
8
LINEWORK
10
18.0000
20
17.5000
30
0.0
0
VERTEX
8
LINEWORK
10
681.8333
20
17.5000
30
0.0
0
SEQEND
0
POLYLINE
8
LINEWORK
66
1
70
0
0
VERTEX
8
LINEWORK
10
615.3333
20
34.1667
30
0.0
0
VERTEX
8
LINEWORK
10
614.6667
20
33.8333
30
0.0
0
VERTEX
8
LINEWORK
10
615.8333
20
34.1667
30
0.0
0
VERTEX
8
LINEWORK
10
615.5000
20
34.0000
30
0.0
0
SEQEND
0
POLYLINE
8
LINEWORK
66
1
70
0
0
VERTEX
8
LINEWORK
10
616.1667
20
34.3333
30
0.0
0
VERTEX
8
LINEWORK
10
616.3333
20
34.3333
30
0.0
0
SEQEND
0
POLYLINE
8
LINEWORK
66
1
70
0
0
VERTEX
8
LINEWORK
10
605.8333
20
34.3333
30
0.0
0
VERTEX
8
LINEWORK
10
606.6667
20
34.1667
30
0.0
0
VERTEX
8
LINEWORK
10
606.0000
20
34.1667
30
0.0
0
SEQEND
0
POLYLINE
8
LINEWORK
66
1
70
0
0
VERTEX
8
LINEWORK
10
605.3333
20
34.5000
30
0.0
0
VERTEX
8
LINEWORK
10
605.5000
20
34.5000
30
0.0
0
SEQEND
0
POLYLINE
8
LINEWORK
66
1
70
0
0
VERTEX
8
LINEWORK
10
604.0000
20
35.1667
30
0.0
0
VERTEX
8
LINEWORK
10
605.0000
20
34.6667
30
0.0
0
VERTEX
8
LINEWORK
10
604.1667
20
35.0000
30
0.0
0
SEQEND
0
POLYLINE
8
LINEWORK
66
1
70
0
0
VERTEX
8
LINEWORK
10
618.3333
20
35.3333
30
0.0
0
VERTEX
8
LINEWORK
10
617.0000
20
34.6667
30
0.0
0
VERTEX
8
LINEWORK
10
618.1667
20
35.1667
30
0.0
0
SEQEND
0
POLYLINE
8
LINEWORK
66
1
70
0
0
VERTEX
8
LINEWORK
10
599.6667
20
38.5000
30
0.0
0
VERTEX
8
LINEWORK
10
600.8333
20
37.3333
30
0.0
0
SEQEND
0
POLYLINE
8
LINEWORK
66
1
70
0
0
VERTEX
8
LINEWORK
10
624.8333
20
42.1667
30
0.0
0
VERTEX
8
LINEWORK
10
624.8333
20
42.0000
30
0.0
0
SEQEND
0
POLYLINE
8
LINEWORK
66
1
70
0
0
VERTEX
8
LINEWORK
10
597.0000
20
42.6667
30
0.0
0
VERTEX
8
LINEWORK
10
597.5000
20
41.6667
30
0.0
0
VERTEX
8
LINEWORK
10
597.0000
20
42.5000
30
0.0
0
SEQEND
0
POLYLINE
8
LINEWORK
66
1
70
0
0
VERTEX
8
LINEWORK
10
625.1667
20
43.0000
30
0.0
0
VERTEX
8
LINEWORK
10
625.1667
20
42.8333
30
0.0
0
SEQEND
0
POLYLINE
8
LINEWORK
66
1
70
0
0
VERTEX
8
LINEWORK
10
596.8333
20
43.1667
30
0.0
0
VERTEX
8
LINEWORK
10
596.8333
20
43.0000
30
0.0
0
SEQEND
0
POLYLINE
8
LINEWORK
66
1
70
0
0
VERTEX
8
LINEWORK
10
596.5000
20
44.3333
30
0.0
0
VERTEX
8
LINEWORK
10
596.6667
20
43.5000
30
0.0
0
VERTEX
8
LINEWORK
10
596.3333
20
44.1667
30
0.0
0
SEQEND
0
POLYLINE
8
LINEWORK
66
1
70
0
0
VERTEX
8
LINEWORK
10
625.8333
20
44.8333
30
0.0
0
VERTEX
8
LINEWORK
10
625.3333
20
43.3333
30
0.0
0
VERTEX
8
LINEWORK
10
625.6667
20
44.6667
30
0.0
0
SEQEND
0
POLYLINE
8
LINEWORK
66
1
70
0
0
VERTEX
8
LINEWORK
10
625.6667
20
53.1667
30
0.0
0
VERTEX
8
LINEWORK
10
625.6667
20
52.6667
30
0.0
0
VERTEX
8
LINEWORK
10
625.6667
20
53.0000
30
0.0
0
SEQEND
0
POLYLINE
8
LINEWORK
66
1
70
0
0
VERTEX
8
LINEWORK
10
623.1667
20
53.3333
30
0.0
0
VERTEX
8
LINEWORK
10
623.3333
20
53.1667
30
0.0
0
SEQEND
0
POLYLINE
8
LINEWORK
66
1
70
0
0
VERTEX
8
LINEWORK
10
596.5000
20
53.5000
30
0.0
0
VERTEX
8
LINEWORK
10
596.1667
20
52.3333
30
0.0
0
VERTEX
8
LINEWORK
10
596.5000
20
53.3333
30
0.0
0
SEQEND
0
POLYLINE
8
LINEWORK
66
1
70
0
0
VERTEX
8
LINEWORK
10
596.6667
20
54.0000
30
0.0
0
VERTEX
8
LINEWORK
10
596.6667
20
53.8333
30
0.0
0
SEQEND
0
POLYLINE
8
LINEWORK
66
1
70
0
0
VERTEX
8
LINEWORK
10
625.1667
20
54.5000
30
0.0
0
VERTEX
8
LINEWORK
10
625.5000
20
53.5000
30
0.0
0
VERTEX
8
LINEWORK
10
625.0000
20
54.3333
30
0.0
0
SEQEND
0
POLYLINE
8
LINEWORK
66
1
70
0
0
VERTEX
8
LINEWORK
10
624.5000
20
55.8333
30
0.0
0
VERTEX
8
LINEWORK
10
625.0000
20
54.8333
30
0.0
0
VERTEX
8
LINEWORK
10
624.6667
20
55.6667
30
0.0
0
SEQEND
0
POLYLINE
8
LINEWORK
66
1
70
0
0
VERTEX
8
LINEWORK
10
597.6667
20
56.0000
30
0.0
0
VERTEX
8
LINEWORK
10
597.0000
20
54.6667
30
0.0
0
VERTEX
8
LINEWORK
10
597.5000
20
55.8333
30
0.0
0
SEQEND
0
POLYLINE
8
LINEWORK
66
1
70
0
0
VERTEX
8
LINEWORK
10
621.6667
20
59.6667
30
0.0
0
VERTEX
8
LINEWORK
10
622.0000
20
59.3333
30
0.0
0
SEQEND
0
POLYLINE
8
LINEWORK
66
1
70
0
0
VERTEX
8
LINEWORK
10
604.3333
20
62.5000
30
0.0
0
VERTEX
8
LINEWORK
10
604.5000
20
62.5000
30
0.0
0
SEQEND
0
POLYLINE
8
LINEWORK
66
1
70
0
0
VERTEX
8
LINEWORK
10
617.1667
20
62.6667
30
0.0
0
VERTEX
8
LINEWORK
10
618.1667
20
62.1667
30
0.0
0
VERTEX
8
LINEWORK
10
617.3333
20
62.6667
30
0.0
0
SEQEND
0
POLYLINE
8
LINEWORK
66
1
70
0
0
VERTEX
8
LINEWORK
10
605.1667
20
62.8333
30
0.0
0
VERTEX
8
LINEWORK
10
605.3333
20
62.8333
30
0.0
0
SEQEND
0
POLYLINE
8
LINEWORK
66
1
70
0
0
VERTEX
8
LINEWORK
10
616.3333
20
63.0000
30
0.0
0
VERTEX
8
LINEWORK
10
616.5000
20
63.0000
30
0.0
0
SEQEND
0
POLYLINE
8
LINEWORK
66
1
70
0
0
VERTEX
8
LINEWORK
10
615.8333
20
63.1667
30
0.0
0
VERTEX
8
LINEWORK
10
616.0000
20
63.1667
30
0.0
0
SEQEND
0
POLYLINE
8
LINEWORK
66
1
70
0
0
VERTEX
8
LINEWORK
10
615.1667
20
63.5000
30
0.0
0
VERTEX
8
LINEWORK
10
615.3333
20
63.3333
30
0.0
0
SEQEND
0
POLYLINE
8
LINEWORK
66
1
70
0
0
VERTEX
8
LINEWORK
10
606.8333
20
63.5000
30
0.0
0
VERTEX
8
LINEWORK
10
605.6667
20
63.0000
30
0.0
0
VERTEX
8
LINEWORK
10
607.0000
20
63.3333
30
0.0
0
SEQEND
0
POLYLINE
8
LINEWORK
66
1
70
0
0
VERTEX
8
LINEWORK
10
646.0000
20
69.3333
30
0.0
0
VERTEX
8
LINEWORK
10
646.1667
20
69.1667
30
0.0
0
SEQEND
0
POLYLINE
8
LINEWORK
66
1
70
0
0
VERTEX
8
LINEWORK
10
277.5000
20
69.3333
30
0.0
0
VERTEX
8
LINEWORK
10
277.3333
20
69.1667
30
0.0
0
SEQEND
0
POLYLINE
8
LINEWORK
66
1
70
0
0
VERTEX
8
LINEWORK
10
645.8333
20
249.6667
30
0.0
0
VERTEX
8
LINEWORK
10
645.8333
20
222.6667
30
0.0
0
SEQEND
0
POLYLINE
8
LINEWORK
66
1
70
0
0
VERTEX
8
LINEWORK
10
277.6667
20
249.6667
30
0.0
0
VERTEX
8
LINEWORK
10
277.6667
20
222.6667
30
0.0
0
SEQEND
0
POLYLINE
8
LINEWORK
66
1
70
0
0
VERTEX
8
LINEWORK
10
624.8333
20
365.0000
30
0.0
0
VERTEX
8
LINEWORK
10
624.3333
20
364.6667
30
0.0
0
VERTEX
8
LINEWORK
10
624.8333
20
365.0000
30
0.0
0
VERTEX
8
LINEWORK
10
625.5000
20
364.6667
30
0.0
0
VERTEX
8
LINEWORK
10
625.0000
20
365.0000
30
0.0
0
SEQEND
0
POLYLINE
8
LINEWORK
66
1
70
0
0
VERTEX
8
LINEWORK
10
629.3333
20
365.5000
30
0.0
0
VERTEX
8
LINEWORK
10
628.0000
20
365.0000
30
0.0
0
VERTEX
8
LINEWORK
10
629.5000
20
365.3333
30
0.0
0
SEQEND
0
POLYLINE
8
LINEWORK
66
1
70
0
0
VERTEX
8
LINEWORK
10
620.1667
20
365.5000
30
0.0
0
VERTEX
8
LINEWORK
10
621.8333
20
365.0000
30
0.0
0
VERTEX
8
LINEWORK
10
620.3333
20
365.3333
30
0.0
0
SEQEND
0
POLYLINE
8
LINEWORK
66
1
70
0
0
VERTEX
8
LINEWORK
10
630.0000
20
365.6667
30
0.0
0
VERTEX
8
LINEWORK
10
630.1667
20
365.6667
30
0.0
0
SEQEND
0
POLYLINE
8
LINEWORK
66
1
70
0
0
VERTEX
8
LINEWORK
10
619.6667
20
365.6667
30
0.0
0
VERTEX
8
LINEWORK
10
619.8333
20
365.6667
30
0.0
0
SEQEND
0
POLYLINE
8
LINEWORK
66
1
70
0
0
VERTEX
8
LINEWORK
10
631.1667
20
366.1667
30
0.0
0
VERTEX
8
LINEWORK
10
631.0000
20
366.0000
30
0.0
0
SEQEND
0
POLYLINE
8
LINEWORK
66
1
70
0
0
VERTEX
8
LINEWORK
10
618.6667
20
366.1667
30
0.0
0
VERTEX
8
LINEWORK
10
618.8333
20
366.0000
30
0.0
0
SEQEND
0
POLYLINE
8
LINEWORK
66
1
70
0
0
VERTEX
8
LINEWORK
10
637.1667
20
372.0000
30
0.0
0
VERTEX
8
LINEWORK
10
636.5000
20
371.0000
30
0.0
0
VERTEX
8
LINEWORK
10
637.0000
20
371.8333
30
0.0
0
SEQEND
0
POLYLINE
8
LINEWORK
66
1
70
0
0
VERTEX
8
LINEWORK
10
612.6667
20
372.0000
30
0.0
0
VERTEX
8
LINEWORK
10
613.3333
20
371.0000
30
0.0
0
VERTEX
8
LINEWORK
10
612.8333
20
371.8333
30
0.0
0
SEQEND
0
POLYLINE
8
LINEWORK
66
1
70
0
0
VERTEX
8
LINEWORK
10
637.8333
20
373.5000
30
0.0
0
VERTEX
8
LINEWORK
10
637.6667
20
373.0000
30
0.0
0
VERTEX
8
LINEWORK
10
637.8333
20
373.3333
30
0.0
0
SEQEND
0
POLYLINE
8
LINEWORK
66
1
70
0
0
VERTEX
8
LINEWORK
10
612.0000
20
373.5000
30
0.0
0
VERTEX
8
LINEWORK
10
612.1667
20
373.0000
30
0.0
0
VERTEX
8
LINEWORK
10
612.0000
20
373.3333
30
0.0
0
SEQEND
0
POLYLINE
8
LINEWORK
66
1
70
0
0
VERTEX
8
LINEWORK
10
638.0000
20
374.0000
30
0.0
0
VERTEX
8
LINEWORK
10
638.0000
20
373.8333
30
0.0
0
SEQEND
0
POLYLINE
8
LINEWORK
66
1
70
0
0
VERTEX
8
LINEWORK
10
611.8333
20
374.0000
30
0.0
0
VERTEX
8
LINEWORK
10
611.8333
20
373.8333
30
0.0
0
SEQEND
0
POLYLINE
8
LINEWORK
66
1
70
0
0
VERTEX
8
LINEWORK
10
638.1667
20
374.5000
30
0.0
0
VERTEX
8
LINEWORK
10
638.1667
20
374.3333
30
0.0
0
SEQEND
0
POLYLINE
8
LINEWORK
66
1
70
0
0
VERTEX
8
LINEWORK
10
611.6667
20
374.5000
30
0.0
0
VERTEX
8
LINEWORK
10
611.6667
20
374.3333
30
0.0
0
SEQEND
0
POLYLINE
8
LINEWORK
66
1
70
0
0
VERTEX
8
LINEWORK
10
638.1667
20
382.8333
30
0.0
0
VERTEX
8
LINEWORK
10
638.1667
20
382.3333
30
0.0
0
VERTEX
8
LINEWORK
10
638.1667
20
382.6667
30
0.0
0
SEQEND
0
POLYLINE
8
LINEWORK
66
1
70
0
0
VERTEX
8
LINEWORK
10
611.6667
20
382.8333
30
0.0
0
VERTEX
8
LINEWORK
10
611.6667
20
382.3333
30
0.0
0
VERTEX
8
LINEWORK
10
611.6667
20
382.6667
30
0.0
0
SEQEND
0
POLYLINE
8
LINEWORK
66
1
70
0
0
VERTEX
8
LINEWORK
10
638.0000
20
383.3333
30
0.0
0
VERTEX
8
LINEWORK
10
638.0000
20
383.1667
30
0.0
0
SEQEND
0
POLYLINE
8
LINEWORK
66
1
70
0
0
VERTEX
8
LINEWORK
10
611.8333
20
383.3333
30
0.0
0
VERTEX
8
LINEWORK
10
611.8333
20
383.1667
30
0.0
0
SEQEND
0
POLYLINE
8
LINEWORK
66
1
70
0
0
VERTEX
8
LINEWORK
10
637.0000
20
385.3333
30
0.0
0
VERTEX
8
LINEWORK
10
637.6667
20
384.0000
30
0.0
0
VERTEX
8
LINEWORK
10
637.1667
20
385.1667
30
0.0
0
SEQEND
0
POLYLINE
8
LINEWORK
66
1
70
0
0
VERTEX
8
LINEWORK
10
612.8333
20
385.3333
30
0.0
0
VERTEX
8
LINEWORK
10
612.1667
20
384.0000
30
0.0
0
VERTEX
8
LINEWORK
10
612.6667
20
385.1667
30
0.0
0
SEQEND
0
POLYLINE
8
LINEWORK
66
1
70
0
0
VERTEX
8
LINEWORK
10
630.3333
20
391.3333
30
0.0
0
VERTEX
8
LINEWORK
10
632.1667
20
390.3333
30
0.0
0
VERTEX
8
LINEWORK
10
630.5000
20
391.3333
30
0.0
0
SEQEND
0
POLYLINE
8
LINEWORK
66
1
70
0
0
VERTEX
8
LINEWORK
10
619.3333
20
391.3333
30
0.0
0
VERTEX
8
LINEWORK
10
617.6667
20
390.3333
30
0.0
0
VERTEX
8
LINEWORK
10
619.5000
20
391.3333
30
0.0
0
SEQEND
0
POLYLINE
8
LINEWORK
66
1
70
0
0
VERTEX
8
LINEWORK
10
629.8333
20
391.5000
30
0.0
0
VERTEX
8
LINEWORK
10
630.0000
20
391.5000
30
0.0
0
SEQEND
0
POLYLINE
8
LINEWORK
66
1
70
0
0
VERTEX
8
LINEWORK
10
619.8333
20
391.5000
30
0.0
0
VERTEX
8
LINEWORK
10
620.0000
20
391.5000
30
0.0
0
SEQEND
0
POLYLINE
8
LINEWORK
66
1
70
0
0
VERTEX
8
LINEWORK
10
627.8333
20
392.1667
30
0.0
0
VERTEX
8
LINEWORK
10
629.5000
20
391.6667
30
0.0
0
VERTEX
8
LINEWORK
10
628.0000
20
392.0000
30
0.0
0
SEQEND
0
POLYLINE
8
LINEWORK
66
1
70
0
0
VERTEX
8
LINEWORK
10
621.6667
20
392.1667
30
0.0
0
VERTEX
8
LINEWORK
10
620.3333
20
391.6667
30
0.0
0
VERTEX
8
LINEWORK
10
621.8333
20
392.0000
30
0.0
0
SEQEND
0
POLYLINE
8
LINEWORK
66
1
70
0
0
VERTEX
8
LINEWORK
10
646.1667
20
403.3333
30
0.0
0
VERTEX
8
LINEWORK
10
646.0000
20
403.1667
30
0.0
0
SEQEND
0
POLYLINE
8
LINEWORK
66
1
70
0
0
VERTEX
8
LINEWORK
10
277.3333
20
403.3333
30
0.0
0
VERTEX
8
LINEWORK
10
277.5000
20
403.1667
30
0.0
0
SEQEND
0
POLYLINE
8
LINEWORK
66
1
70
0
0
VERTEX
8
LINEWORK
10
677.0000
20
433.3333
30
0.0
0
VERTEX
8
LINEWORK
10
677.0000
20
28.6667
30
0.0
0
SEQEND
0
POLYLINE
8
LINEWORK
66
1
70
0
0
VERTEX
8
LINEWORK
10
682.5000
20
440.1667
30
0.0
0
VERTEX
8
LINEWORK
10
682.5000
20
18.1667
30
0.0
0
SEQEND
0
POLYLINE
8
LINEWORK
66
1
70
0
0
VERTEX
8
LINEWORK
10
17.3333
20
440.1667
30
0.0
0
VERTEX
8
LINEWORK
10
17.3333
20
18.1667
30
0.0
0
SEQEND
0
POLYLINE
8
LINEWORK
66
1
70
0
0
VERTEX
8
LINEWORK
10
677.0000
20
478.5000
30
0.0
0
VERTEX
8
LINEWORK
10
677.0000
20
445.3333
30
0.0
0
SEQEND
0
POLYLINE
8
LINEWORK
66
1
70
0
0
VERTEX
8
LINEWORK
10
13.8333
20
485.3333
30
0.0
0
VERTEX
8
LINEWORK
10
13.8333
20
14.6667
30
0.0
0
SEQEND
0
POLYLINE
8
LINEWORK
66
1
70
0
0
VERTEX
8
LINEWORK
10
14.6667
20
486.1667
30
0.0
0
VERTEX
8
LINEWORK
10
685.3333
20
486.1667
30
0.0
0
SEQEND
0
POLYLINE
8
LINEWORK
66
1
70
0
0
VERTEX
8
LINEWORK
10
686.6667
20
486.8333
30
0.0
0
VERTEX
8
LINEWORK
10
686.1667
20
486.3333
30
0.0
0
SEQEND
0
POLYLINE
8
LINEWORK
66
1
70
0
0
VERTEX
8
LINEWORK
10
13.1667
20
486.8333
30
0.0
0
VERTEX
8
LINEWORK
10
13.6667
20
486.3333
30
0.0
0
SEQEND
0
TEXT
8
TITLEBLOCK
10
0.0000
20
-36.6667
30
0.0
40
20
1
SHEET 1 | 72 polylines
50
0.0
0
ENDSEC
0
EOF
