0
SECTION
2
HEADER
9
$ACADVER
1
AC1009
9
$DWGCODEPAGE
3
ANSI_1252
0
ENDSEC
0
SECTION
2
TABLES
0
TABLE
2
LTYPE
70
6
0
LTYPE
2
CONTINUOUS
70
0
3
Solid
72
65
73
0
40
0.0
0
LTYPE
2
DASHED
70
0
3
Dashed
72
65
73
2
40
0.75
49
0.5
74
0
49
-0.25
74
0
0
LTYPE
2
DASHED2
70
0
3
Dashed (.5x)
72
65
73
2
40
0.375
49
0.25
74
0
49
-0.125
74
0
0
LTYPE
2
HIDDEN
70
0
3
Hidden
72
65
73
2
40
0.375
49
0.25
74
0
49
-0.125
74
0
0
LTYPE
2
CENTER
70
0
3
Center
72
65
73
4
40
2.0
49
1.25
74
0
49
-0.25
74
0
49
0.25
74
0
49
-0.25
74
0
0
LTYPE
2
PHANTOM
70
0
3
Phantom
72
65
73
6
40
2.5
49
1.25
74
0
49
-0.25
74
0
49
0.25
74
0
49
-0.25
74
0
49
0.25
74
0
49
-0.25
74
0
0
ENDTAB
0
TABLE
2
LAYER
70
11
0
LAYER
2
0
70
0
62
7
6
CONTINUOUS
0
LAYER
2
C-PROP-LINE
70
0
62
4
6
CONTINUOUS
0
LAYER
2
C-ROAD-CNTR
70
0
62
2
6
DASHED
0
LAYER
2
C-ROAD-ROW
70
0
62
7
6
CONTINUOUS
0
LAYER
2
C-PROP-CURV
70
0
62
6
6
CONTINUOUS
0
LAYER
2
C-WATR-MEAN
70
0
62
5
6
CONTINUOUS
0
LAYER
2
C-PROP-LOTN
70
0
62
3
6
CONTINUOUS
0
LAYER
2
C-ANNO-TEXT
70
0
62
7
6
CONTINUOUS
0
LAYER
2
C-TABL-DATA
70
0
62
2
6
CONTINUOUS
0
LAYER
2
TITLEBLOCK
70
0
62
2
6
CONTINUOUS
0
LAYER
2
CONTROL
70
0
62
1
6
CONTINUOUS
0
ENDTAB
0
TABLE
2
STYLE
70
4
0
STYLE
2
STANDARD
70
0
40
0.0
41
1.0
50
0.0
71
0
42
0.2
3
Arial
4

0
STYLE
2
ARIAL
70
0
40
0.0
41
1.0
50
0.0
71
0
42
0.2
3
Arial
4

0
STYLE
2
ARIAL_TTF
70
0
40
0.0
41
1.0
50
0.0
71
0
42
0.2
3
arial.ttf
4

0
STYLE
2
SIMPLEX
70
0
40
0.0
41
1.0
50
0.0
71
0
42
0.2
3
simplex.shx
4

0
ENDTAB
0
ENDSEC
0
SECTION
2
ENTITIES
0
POLYLINE
8
C-PROP-LINE
66
1
70
1
0
VERTEX
8
C-PROP-LINE
10
9995.1945
20
9450.5265
30
0.0
0
VERTEX
8
C-PROP-LINE
10
9948.8871
20
9414.7791
30
0.0
0
VERTEX
8
C-PROP-LINE
10
9893.7347
20
9485.6723
30
0.0
0
VERTEX
8
C-PROP-LINE
10
9949.4560
20
9501.7701
30
0.0
0
VERTEX
8
C-PROP-LINE
10
9995.1945
20
9450.5265
30
0.0
0
SEQEND
0
TEXT
8
C-PROP-LOTN
7
STANDARD
10
9946.8181
20
9463.1870
30
0.0
40
6.0
1
Lot 1
50
0.0
72
1
11
9946.8181
21
9463.1870
31
0.0
73
2
0
TEXT
8
C-ANNO-TEXT
7
STANDARD
10
9946.8181
20
9455.1870
30
0.0
40
4.0
1
4,423 SF
50
0.0
72
1
11
9946.8181
21
9455.1870
31
0.0
73
2
0
POLYLINE
8
C-PROP-LINE
66
1
70
1
0
VERTEX
8
C-PROP-LINE
10
9948.8871
20
9414.7791
30
0.0
0
VERTEX
8
C-PROP-LINE
10
9902.1839
20
9378.7262
30
0.0
0
VERTEX
8
C-PROP-LINE
10
9830.7085
20
9466.6619
30
0.0
0
VERTEX
8
C-PROP-LINE
10
9893.7347
20
9485.6723
30
0.0
0
VERTEX
8
C-PROP-LINE
10
9948.8871
20
9414.7791
30
0.0
0
SEQEND
0
TEXT
8
C-PROP-LOTN
7
STANDARD
10
9893.8786
20
9436.4599
30
0.0
40
6.0
1
Lot 2
50
0.0
72
1
11
9893.8786
21
9436.4599
31
0.0
73
2
0
TEXT
8
C-ANNO-TEXT
7
STANDARD
10
9893.8786
20
9428.4599
30
0.0
40
4.0
1
6,100 SF
50
0.0
72
1
11
9893.8786
21
9428.4599
31
0.0
73
2
0
POLYLINE
8
C-PROP-LINE
66
1
70
1
0
VERTEX
8
C-PROP-LINE
10
9902.1839
20
9378.7262
30
0.0
0
VERTEX
8
C-PROP-LINE
10
9861.0218
20
9346.9507
30
0.0
0
VERTEX
8
C-PROP-LINE
10
9781.5345
20
9448.5009
30
0.0
0
VERTEX
8
C-PROP-LINE
10
9830.7085
20
9466.6619
30
0.0
0
VERTEX
8
C-PROP-LINE
10
9902.1839
20
9378.7262
30
0.0
0
SEQEND
0
TEXT
8
C-PROP-LOTN
7
STANDARD
10
9843.8622
20
9410.2099
30
0.0
40
6.0
1
Lot 3
50
0.0
72
1
11
9843.8622
21
9410.2099
31
0.0
73
2
0
TEXT
8
C-ANNO-TEXT
7
STANDARD
10
9843.8622
20
9402.2099
30
0.0
40
4.0
1
6,164 SF
50
0.0
72
1
11
9843.8622
21
9402.2099
31
0.0
73
2
0
POLYLINE
8
C-PROP-LINE
66
1
70
1
0
VERTEX
8
C-PROP-LINE
10
9861.0218
20
9346.9507
30
0.0
0
VERTEX
8
C-PROP-LINE
10
9820.6513
20
9315.7863
30
0.0
0
VERTEX
8
C-PROP-LINE
10
9731.9454
20
9429.3599
30
0.0
0
VERTEX
8
C-PROP-LINE
10
9781.5345
20
9448.5009
30
0.0
0
VERTEX
8
C-PROP-LINE
10
9861.0218
20
9346.9507
30
0.0
0
SEQEND
0
TEXT
8
C-PROP-LOTN
7
STANDARD
10
9798.7882
20
9385.1494
30
0.0
40
6.0
1
Lot 4
50
0.0
72
1
11
9798.7882
21
9385.1494
31
0.0
73
2
0
TEXT
8
C-ANNO-TEXT
7
STANDARD
10
9798.7882
20
9377.1494
30
0.0
40
4.0
1
6,953 SF
50
0.0
72
1
11
9798.7882
21
9377.1494
31
0.0
73
2
0
POLYLINE
8
C-PROP-LINE
66
1
70
1
0
VERTEX
8
C-PROP-LINE
10
9820.6513
20
9315.7863
30
0.0
0
VERTEX
8
C-PROP-LINE
10
9807.7493
20
9300.5044
30
0.0
0
VERTEX
8
C-PROP-LINE
10
9676.8926
20
9386.9825
30
0.0
0
VERTEX
8
C-PROP-LINE
10
9731.9454
20
9429.3599
30
0.0
0
VERTEX
8
C-PROP-LINE
10
9820.6513
20
9315.7863
30
0.0
0
SEQEND
0
TEXT
8
C-PROP-LOTN
7
STANDARD
10
9759.3096
20
9358.1583
30
0.0
40
6.0
1
Lot 5
50
0.0
72
1
11
9759.3096
21
9358.1583
31
0.0
73
2
0
TEXT
8
C-ANNO-TEXT
7
STANDARD
10
9759.3096
20
9350.1583
30
0.0
40
4.0
1
6,564 SF
50
0.0
72
1
11
9759.3096
21
9350.1583
31
0.0
73
2
0
POLYLINE
8
C-PROP-LINE
66
1
70
1
0
VERTEX
8
C-PROP-LINE
10
9807.7493
20
9300.5044
30
0.0
0
VERTEX
8
C-PROP-LINE
10
9802.5046
20
9281.2043
30
0.0
0
VERTEX
8
C-PROP-LINE
10
9645.3473
20
9331.9597
30
0.0
0
VERTEX
8
C-PROP-LINE
10
9676.8926
20
9386.9825
30
0.0
0
VERTEX
8
C-PROP-LINE
10
9807.7493
20
9300.5044
30
0.0
0
SEQEND
0
TEXT
8
C-PROP-LOTN
7
STANDARD
10
9733.1234
20
9325.1627
30
0.0
40
6.0
1
Lot 6
50
0.0
72
1
11
9733.1234
21
9325.1627
31
0.0
73
2
0
TEXT
8
C-ANNO-TEXT
7
STANDARD
10
9733.1234
20
9317.1627
30
0.0
40
4.0
1
6,614 SF
50
0.0
72
1
11
9733.1234
21
9317.1627
31
0.0
73
2
0
POLYLINE
8
C-PROP-LINE
66
1
70
1
0
VERTEX
8
C-PROP-LINE
10
9802.5046
20
9281.2043
30
0.0
0
VERTEX
8
C-PROP-LINE
10
9806.1213
20
9261.5340
30
0.0
0
VERTEX
8
C-PROP-LINE
10
9622.2087
20
9263.1889
30
0.0
0
VERTEX
8
C-PROP-LINE
10
9645.3473
20
9331.9597
30
0.0
0
VERTEX
8
C-PROP-LINE
10
9802.5046
20
9281.2043
30
0.0
0
SEQEND
0
TEXT
8
C-PROP-LOTN
7
STANDARD
10
9719.0455
20
9284.4717
30
0.0
40
6.0
1
Lot 7
50
0.0
72
1
11
9719.0455
21
9284.4717
31
0.0
73
2
0
TEXT
8
C-ANNO-TEXT
7
STANDARD
10
9719.0455
20
9276.4717
30
0.0
40
4.0
1
7,797 SF
50
0.0
72
1
11
9719.0455
21
9276.4717
31
0.0
73
2
0
POLYLINE
8
C-PROP-LINE
66
1
70
1
0
VERTEX
8
C-PROP-LINE
10
9806.1213
20
9261.5340
30
0.0
0
VERTEX
8
C-PROP-LINE
10
9817.8881
20
9245.3618
30
0.0
0
VERTEX
8
C-PROP-LINE
10
9678.2024
20
9203.7219
30
0.0
0
VERTEX
8
C-PROP-LINE
10
9622.2087
20
9263.1889
30
0.0
0
VERTEX
8
C-PROP-LINE
10
9806.1213
20
9261.5340
30
0.0
0
SEQEND
0
TEXT
8
C-PROP-LOTN
7
STANDARD
10
9731.1051
20
9243.4516
30
0.0
40
6.0
1
Lot 8
50
0.0
72
1
11
9731.1051
21
9243.4516
31
0.0
73
2
0
TEXT
8
C-ANNO-TEXT
7
STANDARD
10
9731.1051
20
9235.4516
30
0.0
40
4.0
1
6,797 SF
50
0.0
72
1
11
9731.1051
21
9235.4516
31
0.0
73
2
0
POLYLINE
8
C-PROP-LINE
66
1
70
1
0
VERTEX
8
C-PROP-LINE
10
9817.8881
20
9245.3618
30
0.0
0
VERTEX
8
C-PROP-LINE
10
9834.7575
20
9234.6183
30
0.0
0
VERTEX
8
C-PROP-LINE
10
9723.4058
20
9163.0273
30
0.0
0
VERTEX
8
C-PROP-LINE
10
9678.2024
20
9203.7219
30
0.0
0
VERTEX
8
C-PROP-LINE
10
9817.8881
20
9245.3618
30
0.0
0
SEQEND
0
TEXT
8
C-PROP-LOTN
7
STANDARD
10
9763.5634
20
9211.6823
30
0.0
40
6.0
1
Lot 9
50
0.0
72
1
11
9763.5634
21
9211.6823
31
0.0
73
2
0
TEXT
8
C-ANNO-TEXT
7
STANDARD
10
9763.5634
20
9203.6823
30
0.0
40
4.0
1
4,985 SF
50
0.0
72
1
11
9763.5634
21
9203.6823
31
0.0
73
2
0
POLYLINE
8
C-PROP-LINE
66
1
70
1
0
VERTEX
8
C-PROP-LINE
10
9834.7575
20
9234.6183
30
0.0
0
VERTEX
8
C-PROP-LINE
10
9850.5891
20
9246.8396
30
0.0
0
VERTEX
8
C-PROP-LINE
10
9783.9843
20
9137.0771
30
0.0
0
VERTEX
8
C-PROP-LINE
10
9723.4058
20
9163.0273
30
0.0
0
VERTEX
8
C-PROP-LINE
10
9834.7575
20
9234.6183
30
0.0
0
SEQEND
0
TEXT
8
C-PROP-LOTN
7
STANDARD
10
9798.1842
20
9195.3906
30
0.0
40
6.0
1
Lot 10
50
0.0
72
1
11
9798.1842
21
9195.3906
31
0.0
73
2
0
TEXT
8
C-ANNO-TEXT
7
STANDARD
10
9798.1842
20
9187.3906
30
0.0
40
4.0
1
4,075 SF
50
0.0
72
1
11
9798.1842
21
9187.3906
31
0.0
73
2
0
POLYLINE
8
C-PROP-LINE
66
1
70
1
0
VERTEX
8
C-PROP-LINE
10
9850.5891
20
9246.8396
30
0.0
0
VERTEX
8
C-PROP-LINE
10
9866.4207
20
9259.0609
30
0.0
0
VERTEX
8
C-PROP-LINE
10
9852.0908
20
9123.3856
30
0.0
0
VERTEX
8
C-PROP-LINE
10
9783.9843
20
9137.0771
30
0.0
0
VERTEX
8
C-PROP-LINE
10
9850.5891
20
9246.8396
30
0.0
0
SEQEND
0
TEXT
8
C-PROP-LOTN
7
STANDARD
10
9838.2712
20
9191.5908
30
0.0
40
6.0
1
Lot 11
50
0.0
72
1
11
9838.2712
21
9191.5908
31
0.0
73
2
0
TEXT
8
C-ANNO-TEXT
7
STANDARD
10
9838.2712
20
9183.5908
30
0.0
40
4.0
1
5,180 SF
50
0.0
72
1
11
9838.2712
21
9183.5908
31
0.0
73
2
0
POLYLINE
8
C-PROP-LINE
66
1
70
1
0
VERTEX
8
C-PROP-LINE
10
9866.4207
20
9259.0609
30
0.0
0
VERTEX
8
C-PROP-LINE
10
9902.6514
20
9251.5551
30
0.0
0
VERTEX
8
C-PROP-LINE
10
9931.9238
20
9082.5109
30
0.0
0
VERTEX
8
C-PROP-LINE
10
9852.0908
20
9123.3856
30
0.0
0
VERTEX
8
C-PROP-LINE
10
9866.4207
20
9259.0609
30
0.0
0
SEQEND
0
TEXT
8
C-PROP-LOTN
7
STANDARD
10
9888.2717
20
9179.1281
30
0.0
40
6.0
1
Lot 12
50
0.0
72
1
11
9888.2717
21
9179.1281
31
0.0
73
2
0
TEXT
8
C-ANNO-TEXT
7
STANDARD
10
9888.2717
20
9171.1281
30
0.0
40
4.0
1
8,661 SF
50
0.0
72
1
11
9888.2717
21
9171.1281
31
0.0
73
2
0
POLYLINE
8
C-PROP-LINE
66
1
70
1
0
VERTEX
8
C-PROP-LINE
10
9902.6514
20
9251.5551
30
0.0
0
VERTEX
8
C-PROP-LINE
10
9908.7760
20
9270.5942
30
0.0
0
VERTEX
8
C-PROP-LINE
10
9990.1137
20
9099.8810
30
0.0
0
VERTEX
8
C-PROP-LINE
10
9931.9238
20
9082.5109
30
0.0
0
VERTEX
8
C-PROP-LINE
10
9902.6514
20
9251.5551
30
0.0
0
SEQEND
0
TEXT
8
C-PROP-LOTN
7
STANDARD
10
9933.3662
20
9176.1353
30
0.0
40
6.0
1
Lot 13
50
0.0
72
1
11
9933.3662
21
9176.1353
31
0.0
73
2
0
TEXT
8
C-ANNO-TEXT
7
STANDARD
10
9933.3662
20
9168.1353
30
0.0
40
4.0
1
6,470 SF
50
0.0
72
1
11
9933.3662
21
9168.1353
31
0.0
73
2
0
POLYLINE
8
C-PROP-LINE
66
1
70
1
0
VERTEX
8
C-PROP-LINE
10
9908.7760
20
9270.5942
30
0.0
0
VERTEX
8
C-PROP-LINE
10
9918.4506
20
9288.0986
30
0.0
0
VERTEX
8
C-PROP-LINE
10
10013.4124
20
9211.9858
30
0.0
0
VERTEX
8
C-PROP-LINE
10
9990.1137
20
9099.8810
30
0.0
0
VERTEX
8
C-PROP-LINE
10
9908.7760
20
9270.5942
30
0.0
0
SEQEND
0
TEXT
8
C-PROP-LOTN
7
STANDARD
10
9957.6882
20
9217.6399
30
0.0
40
6.0
1
Lot 14
50
0.0
72
1
11
9957.6882
21
9217.6399
31
0.0
73
2
0
TEXT
8
C-ANNO-TEXT
7
STANDARD
10
9957.6882
20
9209.6399
30
0.0
40
4.0
1
7,747 SF
50
0.0
72
1
11
9957.6882
21
9209.6399
31
0.0
73
2
0
POLYLINE
8
C-PROP-LINE
66
1
70
1
0
VERTEX
8
C-PROP-LINE
10
9918.4506
20
9288.0986
30
0.0
0
VERTEX
8
C-PROP-LINE
10
9932.2666
20
9302.5596
30
0.0
0
VERTEX
8
C-PROP-LINE
10
10021.6372
20
9263.9601
30
0.0
0
VERTEX
8
C-PROP-LINE
10
10013.4124
20
9211.9858
30
0.0
0
VERTEX
8
C-PROP-LINE
10
9918.4506
20
9288.0986
30
0.0
0
SEQEND
0
TEXT
8
C-PROP-LOTN
7
STANDARD
10
9971.4417
20
9266.6510
30
0.0
40
6.0
1
Lot 15
50
0.0
72
1
11
9971.4417
21
9266.6510
31
0.0
73
2
0
TEXT
8
C-ANNO-TEXT
7
STANDARD
10
9971.4417
20
9258.6510
30
0.0
40
4.0
1
3,694 SF
50
0.0
72
1
11
9971.4417
21
9258.6510
31
0.0
73
2
0
POLYLINE
8
C-PROP-LINE
66
1
70
1
0
VERTEX
8
C-PROP-LINE
10
9932.2666
20
9302.5596
30
0.0
0
VERTEX
8
C-PROP-LINE
10
9948.0982
20
9314.7809
30
0.0
0
VERTEX
8
C-PROP-LINE
10
10008.1259
20
9315.3109
30
0.0
0
VERTEX
8
C-PROP-LINE
10
10021.6372
20
9263.9601
30
0.0
0
VERTEX
8
C-PROP-LINE
10
9932.2666
20
9302.5596
30
0.0
0
SEQEND
0
TEXT
8
C-PROP-LOTN
7
STANDARD
10
9977.5320
20
9299.1529
30
0.0
40
6.0
1
Lot 16
50
0.0
72
1
11
9977.5320
21
9299.1529
31
0.0
73
2
0
TEXT
8
C-ANNO-TEXT
7
STANDARD
10
9977.5320
20
9291.1529
30
0.0
40
4.0
1
2,396 SF
50
0.0
72
1
11
9977.5320
21
9291.1529
31
0.0
73
2
0
POLYLINE
8
C-PROP-LINE
66
1
70
1
0
VERTEX
8
C-PROP-LINE
10
9948.0982
20
9314.7809
30
0.0
0
VERTEX
8
C-PROP-LINE
10
9975.8035
20
9336.1682
30
0.0
0
VERTEX
8
C-PROP-LINE
10
10051.8970
20
9337.1643
30
0.0
0
VERTEX
8
C-PROP-LINE
10
10008.1259
20
9315.3109
30
0.0
0
VERTEX
8
C-PROP-LINE
10
9948.0982
20
9314.7809
30
0.0
0
SEQEND
0
TEXT
8
C-PROP-LOTN
7
STANDARD
10
9995.9811
20
9325.8561
30
0.0
40
6.0
1
Lot 17
50
0.0
72
1
11
9995.9811
21
9325.8561
31
0.0
73
2
0
TEXT
8
C-ANNO-TEXT
7
STANDARD
10
9995.9811
20
9317.8561
30
0.0
40
4.0
1
1,444 SF
50
0.0
72
1
11
9995.9811
21
9317.8561
31
0.0
73
2
0
POLYLINE
8
C-PROP-LINE
66
1
70
1
0
VERTEX
8
C-PROP-LINE
10
9975.8035
20
9336.1682
30
0.0
0
VERTEX
8
C-PROP-LINE
10
9995.7457
20
9322.4880
30
0.0
0
VERTEX
8
C-PROP-LINE
10
10055.5901
20
9318.1700
30
0.0
0
VERTEX
8
C-PROP-LINE
10
10051.8970
20
9337.1643
30
0.0
0
VERTEX
8
C-PROP-LINE
10
9975.8035
20
9336.1682
30
0.0
0
SEQEND
0
TEXT
8
C-PROP-LOTN
7
STANDARD
10
10019.7591
20
9328.4976
30
0.0
40
6.0
1
Lot 18
50
0.0
72
1
11
10019.7591
21
9328.4976
31
0.0
73
2
0
TEXT
8
C-ANNO-TEXT
7
STANDARD
10
10019.7591
20
9320.4976
30
0.0
40
4.0
1
1,091 SF
50
0.0
72
1
11
10019.7591
21
9320.4976
31
0.0
73
2
0
POLYLINE
8
C-PROP-LINE
66
1
70
1
0
VERTEX
8
C-PROP-LINE
10
9995.7457
20
9322.4880
30
0.0
0
VERTEX
8
C-PROP-LINE
10
10055.5901
20
9318.1700
30
0.0
0
VERTEX
8
C-PROP-LINE
10
10045.0930
20
9372.1590
30
0.0
0
VERTEX
8
C-PROP-LINE
10
9962.1336
20
9403.6740
30
0.0
0
VERTEX
8
C-PROP-LINE
10
9995.7457
20
9322.4880
30
0.0
0
SEQEND
0
TEXT
8
C-PROP-LOTN
7
STANDARD
10
10014.6406
20
9354.1228
30
0.0
40
6.0
1
Lot 19
50
0.0
72
1
11
10014.6406
21
9354.1228
31
0.0
73
2
0
TEXT
8
C-ANNO-TEXT
7
STANDARD
10
10014.6406
20
9346.1228
30
0.0
40
4.0
1
4,431 SF
50
0.0
72
1
11
10014.6406
21
9346.1228
31
0.0
73
2
0
POLYLINE
8
C-PROP-LINE
66
1
70
1
0
VERTEX
8
C-PROP-LINE
10
9822.7060
20
9298.1308
30
0.0
0
VERTEX
8
C-PROP-LINE
10
9847.8060
20
9273.0308
30
0.0
0
VERTEX
8
C-PROP-LINE
10
9822.7060
20
9247.9308
30
0.0
0
VERTEX
8
C-PROP-LINE
10
9730.5271
20
9340.4812
30
0.0
0
VERTEX
8
C-PROP-LINE
10
9770.6371
20
9380.5912
30
0.0
0
VERTEX
8
C-PROP-LINE
10
9810.7471
20
9340.4812
30
0.0
0
VERTEX
8
C-PROP-LINE
10
9822.7060
20
9298.1308
30
0.0
0
SEQEND
0
TEXT
8
C-PROP-LOTN
7
STANDARD
10
9800.8549
20
9313.4410
30
0.0
40
6.0
1
Parcel 20
50
0.0
72
1
11
9800.8549
21
9313.4410
31
0.0
73
2
0
TEXT
8
C-ANNO-TEXT
7
STANDARD
10
9800.8549
20
9305.4410
30
0.0
40
4.0
1
6,251 SF
50
0.0
72
1
11
9800.8549
21
9305.4410
31
0.0
73
2
0
LINE
8
C-ROAD-CNTR
10
10000.0000
20
10000.0000
30
0.0
11
9979.2056
21
9455.9573
31
0.0
0
TEXT
8
C-ANNO-TEXT
7
STANDARD
10
9999.6028
20
9727.9787
30
0.0
40
5.0
1
DIRT ROAD (10' WIDE) S 02%%d11'20" W - 544.44'
50
0.0
0
ARC
8
C-PROP-CURV
10
10054.6941
20
9373.4504
30
0.0
40
97.3700
50
108.0800
51
142.3300
0
ARC
8
C-PROP-CURV
10
9822.7060
20
9273.0308
30
0.0
40
35.1000
50
142.3300
51
260.8300
0
ARC
8
C-PROP-CURV
10
9770.6371
20
9340.4812
30
0.0
40
50.1100
50
322.3300
51
113.8300
0
TEXT
8
C-TABL-DATA
7
STANDARD
10
9500.0000
20
9200.0000
30
0.0
40
7.0
1
CENTERLINE CURVE DATA
50
0.0
0
TEXT
8
C-TABL-DATA
7
STANDARD
10
9500.0000
20
9188.0000
30
0.0
40
5.0
1
Curve   Rad.     Tan.      Delta
50
0.0
0
TEXT
8
C-TABL-DATA
7
STANDARD
10
9500.0000
20
9178.0000
30
0.0
40
4.5
1
a       97.37'   30.00'    34%%d15'
50
0.0
0
TEXT
8
C-TABL-DATA
7
STANDARD
10
9500.0000
20
9168.0000
30
0.0
40
4.5
1
b       35.10'   59.00'    118%%d30'
50
0.0
0
TEXT
8
C-TABL-DATA
7
STANDARD
10
9500.0000
20
9158.0000
30
0.0
40
4.5
1
c       50.11'   197.32'   151%%d30'
50
0.0
0
POINT
8
CONTROL
10
10000.0000
20
10000.0000
30
0.0
0
TEXT
8
CONTROL
7
STANDARD
10
10000.0000
20
10015.0000
30
0.0
40
6.0
1
GPS CONTROL TIE: 30.407420%%d N, -81.442180%%d W (NO FUDGING)
50
0.0
0
TEXT
8
TITLEBLOCK
7
STANDARD
10
9700.0000
20
10100.0000
30
0.0
40
10.0
1
MAP SHOWING SURVEY OF ISLAND NO. 5 (BEVERLY ISLE)
50
0.0
0
TEXT
8
TITLEBLOCK
7
STANDARD
10
9700.0000
20
10080.0000
30
0.0
40
7.0
1
SECTION 24, TOWNSHIP 1 SOUTH, RANGE 27 EAST, DUVAL COUNTY, FL
50
0.0
0
TEXT
8
TITLEBLOCK
7
STANDARD
10
9700.0000
20
10065.0000
30
0.0
40
6.0
1
SCALE: 1" = 50 FT | SURVEYED BY JOHN F. YOUNG & ASSOCIATES (1959-1960)
50
0.0
0
ENDSEC
0
EOF
