0
SECTION
2
HEADER
9
$ACADVER
1
AC1009
9
$DWGCODEPAGE
3
ANSI_1252
0
ENDSEC
0
SECTION
2
TABLES
0
TABLE
2
LTYPE
70
8
0
LTYPE
2
CONTINUOUS
70
0
3
Solid
72
65
73
0
40
0.0
0
LTYPE
2
DASHED
70
0
3
Dashed
72
65
73
2
40
0.75
49
0.5
74
0
49
-0.25
74
0
0
LTYPE
2
DASHED2
70
0
3
Dashed (.5x)
72
65
73
2
40
0.375
49
0.25
74
0
49
-0.125
74
0
0
LTYPE
2
HIDDEN
70
0
3
Hidden
72
65
73
2
40
0.375
49
0.25
74
0
49
-0.125
74
0
0
LTYPE
2
CENTER
70
0
3
Center
72
65
73
4
40
2.0
49
1.25
74
0
49
-0.25
74
0
49
0.25
74
0
49
-0.25
74
0
0
LTYPE
2
PHANTOM
70
0
3
Phantom
72
65
73
6
40
2.5
49
1.25
74
0
49
-0.25
74
0
49
0.25
74
0
49
-0.25
74
0
49
0.25
74
0
49
-0.25
74
0
0
LTYPE
2
ROT_359.88
70
0
3
Solid
72
65
73
0
40
0.0
0
LTYPE
2
ROT_89.88
70
0
3
Solid
72
65
73
0
40
0.0
0
ENDTAB
0
TABLE
2
LAYER
70
9
0
LAYER
2
0
70
0
62
7
6
CONTINUOUS
0
LAYER
2
SHEET3_SCALED
70
0
62
8
6
CONTINUOUS
0
LAYER
2
TRUE_LINEWORK
70
0
62
1
6
CONTINUOUS
0
LAYER
2
TRUE_LABELS
70
0
62
1
6
CONTINUOUS
0
LAYER
2
TRUE_LINEWORK_UNVERIFIED
70
0
62
6
6
DASHED
0
LAYER
2
ROAD_NAME
70
0
62
3
6
CONTINUOUS
0
LAYER
2
LOT_NUMBERS
70
0
62
4
6
CONTINUOUS
0
LAYER
2
CONTROL_PTS
70
0
62
2
6
CONTINUOUS
0
LAYER
2
TITLEBLOCK
70
0
62
2
6
CONTINUOUS
0
ENDTAB
0
TABLE
2
STYLE
70
4
0
STYLE
2
STANDARD
70
0
40
0.0
41
1.0
50
0.0
71
0
42
0.2
3
Arial
4

0
STYLE
2
ARIAL
70
0
40
0.0
41
1.0
50
0.0
71
0
42
0.2
3
Arial
4

0
STYLE
2
ARIAL_TTF
70
0
40
0.0
41
1.0
50
0.0
71
0
42
0.2
3
arial.ttf
4

0
STYLE
2
SIMPLEX
70
0
40
0.0
41
1.0
50
0.0
71
0
42
0.2
3
simplex.shx
4

0
ENDTAB
0
ENDSEC
0
SECTION
2
ENTITIES
0
LINE
8
SHEET3_SCALED
10
1484.5000
20
1086.8333
30
0.0
11
1484.5000
21
206.3333
31
0.0
0
LINE
8
SHEET3_SCALED
10
644.5548
20
532.8369
30
0.0
11
908.6667
21
489.8333
31
0.0
0
LINE
8
SHEET3_SCALED
10
1105.0545
20
824.1712
30
0.0
11
1133.7715
21
481.6615
31
0.0
0
LINE
8
SHEET3_SCALED
10
618.1769
20
687.8046
30
0.0
11
561.5389
21
339.1874
31
0.0
0
LINE
8
SHEET3_SCALED
10
670.1148
20
696.3147
30
0.0
11
610.6985
21
329.8552
31
0.0
0
LINE
8
SHEET3_SCALED
10
892.8333
20
720.1667
30
0.0
11
909.9217
21
472.5061
31
0.0
0
LINE
8
SHEET3_SCALED
10
713.3420
20
909.2929
30
0.0
11
903.5004
21
896.1718
31
0.0
0
LINE
8
SHEET3_SCALED
10
408.6881
20
324.1320
30
0.0
11
560.1667
21
299.5000
31
0.0
0
LINE
8
SHEET3_SCALED
10
434.5000
20
491.6667
30
0.0
11
582.3333
21
467.5000
31
0.0
0
LINE
8
SHEET3_SCALED
10
425.5000
20
432.5000
30
0.0
11
572.6667
21
408.5000
31
0.0
0
LINE
8
SHEET3_SCALED
10
1118.8382
20
627.7724
30
0.0
11
927.8107
21
612.6188
31
0.0
0
LINE
8
SHEET3_SCALED
10
983.1667
20
840.1667
30
0.0
11
994.5000
21
703.8333
31
0.0
0
LINE
8
SHEET3_SCALED
10
1152.5000
20
856.6667
30
0.0
11
1167.0755
21
681.3258
31
0.0
0
LINE
8
SHEET3_SCALED
10
653.3593
20
470.3305
30
0.0
11
865.6948
21
436.6773
31
0.0
0
LINE
8
SHEET3_SCALED
10
427.3333
20
260.6667
30
0.0
11
558.8333
21
239.3333
31
0.0
0
LINE
8
SHEET3_SCALED
10
720.5027
20
389.0168
30
0.0
11
918.0044
21
357.5274
31
0.0
0
LINE
8
SHEET3_SCALED
10
1140.5384
20
439.9212
30
0.0
11
1177.3333
21
302.1667
31
0.0
0
LINE
8
SHEET3_SCALED
10
1029.5000
20
690.6667
30
0.0
11
895.8322
21
679.5134
31
0.0
0
LINE
8
SHEET3_SCALED
10
672.6592
20
715.7872
30
0.0
11
894.6441
21
679.8607
31
0.0
0
LINE
8
SHEET3_SCALED
10
481.3333
20
656.6667
30
0.0
11
609.3256
21
635.9521
31
0.0
0
LINE
8
SHEET3_SCALED
10
669.3494
20
645.7663
30
0.0
11
850.4976
21
616.4849
31
0.0
0
LINE
8
SHEET3_SCALED
10
1130.9785
20
513.2573
30
0.0
11
908.5000
21
494.6667
31
0.0
0
LINE
8
SHEET3_SCALED
10
849.9969
20
849.6211
30
0.0
11
1019.3333
21
838.0000
31
0.0
0
LINE
8
SHEET3_SCALED
10
1074.6667
20
375.0000
30
0.0
11
1105.5000
21
260.0000
31
0.0
0
LINE
8
SHEET3_SCALED
10
705.1745
20
859.6138
30
0.0
11
856.0072
21
849.2709
31
0.0
0
LINE
8
SHEET3_SCALED
10
420.3196
20
377.7486
30
0.0
11
564.0000
21
354.5000
31
0.0
0
LINE
8
SHEET3_SCALED
10
675.4999
20
775.9995
30
0.0
11
795.3333
21
756.5000
31
0.0
0
LINE
8
SHEET3_SCALED
10
493.4895
20
710.1025
30
0.0
11
618.1667
21
689.6667
31
0.0
0
LINE
8
SHEET3_SCALED
10
1115.1989
20
449.7918
30
0.0
11
946.9928
21
423.7133
31
0.0
0
LINE
8
SHEET3_SCALED
10
614.2149
20
350.4715
30
0.0
11
838.8713
21
314.9067
31
0.0
0
LINE
8
SHEET3_SCALED
10
919.5000
20
335.3333
30
0.0
11
946.8333
21
233.1667
31
0.0
0
LINE
8
SHEET3_SCALED
10
899.5000
20
896.5005
30
0.0
11
1022.6605
21
888.0759
31
0.0
0
LINE
8
SHEET3_SCALED
10
310.0000
20
1008.6667
30
0.0
11
432.1667
21
1008.6667
31
0.0
0
LINE
8
SHEET3_SCALED
10
1006.6667
20
357.5000
30
0.0
11
1037.7352
21
241.6403
31
0.0
0
LINE
8
SHEET3_SCALED
10
1018.4938
20
559.5727
30
0.0
11
907.6667
21
550.1667
31
0.0
0
LINE
8
SHEET3_SCALED
10
1221.3333
20
755.1667
30
0.0
11
1169.0185
21
681.3203
31
0.0
0
LINE
8
SHEET3_SCALED
10
466.9736
20
598.5043
30
0.0
11
599.8382
21
576.8635
31
0.0
0
LINE
8
SHEET3_SCALED
10
698.5172
20
580.4391
30
0.0
11
854.5074
21
555.0453
31
0.0
0
LINE
8
SHEET3_SCALED
10
1114.8333
20
1024.1667
30
0.0
11
1020.8988
21
1007.1387
31
0.0
0
LINE
8
SHEET3_SCALED
10
1115.1667
20
697.3333
30
0.0
11
1030.6667
21
690.3333
31
0.0
0
LINE
8
SHEET3_SCALED
10
443.2392
20
546.5152
30
0.0
11
425.2217
21
434.8513
31
0.0
0
LINE
8
SHEET3_SCALED
10
443.3333
20
546.3333
30
0.0
11
583.6849
21
523.2776
31
0.0
0
LINE
8
SHEET3_SCALED
10
832.6667
20
311.5000
30
0.0
11
853.8333
21
232.3333
31
0.0
0
LINE
8
SHEET3_SCALED
10
1110.5000
20
757.0000
30
0.0
11
991.0203
21
747.2517
31
0.0
0
LINE
8
SHEET3_SCALED
10
829.3333
20
559.0000
30
0.0
11
904.6667
21
546.6667
31
0.0
0
LINE
8
SHEET3_SCALED
10
517.1664
20
1008.2170
30
0.0
11
631.4999
21
1007.9668
31
0.0
0
LINE
8
SHEET3_SCALED
10
1010.1667
20
1007.3333
30
0.0
11
1009.9690
21
917.0001
31
0.0
0
LINE
8
SHEET3_SCALED
10
1021.5329
20
299.7094
30
0.0
11
865.1936
21
258.2316
31
0.0
0
LINE
8
SHEET3_SCALED
10
835.3124
20
312.4120
30
0.0
11
730.5470
21
284.4905
31
0.0
0
LINE
8
SHEET3_SCALED
10
490.5000
20
823.8333
30
0.0
11
490.5000
21
750.8333
31
0.0
0
LINE
8
SHEET3_SCALED
10
418.7738
20
395.3428
30
0.0
11
407.5000
21
324.1667
31
0.0
0
LINE
8
SHEET3_SCALED
10
948.5140
20
342.1136
30
0.0
11
843.0000
21
314.3333
31
0.0
0
LINE
8
SHEET3_SCALED
10
1195.8333
20
330.1667
30
0.0
11
1213.8333
21
262.8333
31
0.0
0
LINE
8
SHEET3_SCALED
10
1152.8333
20
553.3333
30
0.0
11
1158.6667
21
484.3333
31
0.0
0
LINE
8
SHEET3_SCALED
10
645.8333
20
703.6667
30
0.0
11
634.8333
21
635.5000
31
0.0
0
LINE
8
SHEET3_SCALED
10
924.6667
20
665.6667
30
0.0
11
934.8333
21
598.6667
31
0.0
0
LINE
8
SHEET3_SCALED
10
299.5000
20
1004.6667
30
0.0
11
299.5000
21
937.6667
31
0.0
0
LINE
8
SHEET3_SCALED
10
795.6667
20
853.5000
30
0.0
11
795.6667
21
786.6667
31
0.0
0
LINE
8
SHEET3_SCALED
10
596.8333
20
400.3333
30
0.0
11
586.1667
21
334.5000
31
0.0
0
LINE
8
SHEET3_SCALED
10
1127.3333
20
856.5000
30
0.0
11
1132.8333
21
790.3333
31
0.0
0
LINE
8
SHEET3_SCALED
10
893.1667
20
846.6667
30
0.0
11
893.1667
21
780.6667
31
0.0
0
LINE
8
SHEET3_SCALED
10
613.8333
20
662.6667
30
0.0
11
603.5000
21
599.1667
31
0.0
0
LINE
8
SHEET3_SCALED
10
407.8333
20
322.6667
30
0.0
11
427.1446
21
262.0461
31
0.0
0
LINE
8
SHEET3_SCALED
10
628.6667
20
598.6667
30
0.0
11
618.8333
21
536.3333
31
0.0
0
LINE
8
SHEET3_SCALED
10
1161.6667
20
274.8333
30
0.0
11
1047.0347
21
244.3695
31
0.0
0
LINE
8
SHEET3_SCALED
10
481.8333
20
658.8333
30
0.0
11
466.6667
21
598.3333
31
0.0
0
LINE
8
SHEET3_SCALED
10
467.6667
20
600.8333
30
0.0
11
442.1667
21
544.1667
31
0.0
0
LINE
8
SHEET3_SCALED
10
1144.5000
20
653.0000
30
0.0
11
1149.8333
21
591.1667
31
0.0
0
LINE
8
SHEET3_SCALED
10
1136.1667
20
751.5000
30
0.0
11
1141.5000
21
690.5000
31
0.0
0
LINE
8
SHEET3_SCALED
10
1165.4322
20
443.4365
30
0.0
11
1186.2494
21
366.5224
31
0.0
0
LINE
8
SHEET3_SCALED
10
1030.2177
20
363.4696
30
0.0
11
942.3175
21
340.7280
31
0.0
0
LINE
8
SHEET3_SCALED
10
765.0000
20
293.5000
30
0.0
11
781.6315
21
232.0356
31
0.0
0
LINE
8
SHEET3_SCALED
10
884.1667
20
872.3333
30
0.0
11
943.9930
21
868.2310
31
0.0
0
LINE
8
SHEET3_SCALED
10
612.7774
20
499.1756
30
0.0
11
603.0000
21
437.6667
31
0.0
0
LINE
8
SHEET3_SCALED
10
675.6667
20
396.1667
30
0.0
11
733.1667
21
387.1667
31
0.0
0
LINE
8
SHEET3_SCALED
10
1126.3381
20
568.1080
30
0.0
11
1048.5005
21
561.8271
31
0.0
0
LINE
8
SHEET3_SCALED
10
1229.3333
20
413.8333
30
0.0
11
1229.6667
21
356.6667
31
0.0
0
LINE
8
SHEET3_SCALED
10
369.0000
20
394.5000
30
0.0
11
311.8333
21
394.1667
31
0.0
0
LINE
8
SHEET3_SCALED
10
1152.1667
20
395.6667
30
0.0
11
1041.8747
21
366.3443
31
0.0
0
LINE
8
SHEET3_SCALED
10
1227.0924
20
752.6669
30
0.0
11
1227.3832
21
653.4997
31
0.0
0
LINE
8
SHEET3_SCALED
10
615.0000
20
1072.3333
30
0.0
11
530.1664
21
1072.0809
31
0.0
0
LINE
8
SHEET3_SCALED
10
490.1667
20
712.3333
30
0.0
11
481.5000
21
657.3333
31
0.0
0
LINE
8
SHEET3_SCALED
10
499.8333
20
993.1667
30
0.0
11
499.8333
21
926.3333
31
0.0
0
LINE
8
SHEET3_SCALED
10
913.1134
20
426.6630
30
0.0
11
919.4673
21
335.4977
31
0.0
0
LINE
8
SHEET3_SCALED
10
705.3385
20
279.9732
30
0.0
11
616.3333
21
262.6667
31
0.0
0
LINE
8
SHEET3_SCALED
10
425.1667
20
863.5000
30
0.0
11
480.0000
21
863.5000
31
0.0
0
LINE
8
SHEET3_SCALED
10
859.0000
20
437.5000
30
0.0
11
913.0000
21
428.8333
31
0.0
0
LINE
8
SHEET3_SCALED
10
247.1667
20
1009.5000
30
0.0
11
212.8841
21
955.1347
31
0.0
0
LINE
8
SHEET3_SCALED
10
609.8333
20
1007.6667
30
0.0
11
609.8333
21
955.1667
31
0.0
0
LINE
8
SHEET3_SCALED
10
784.3333
20
879.1667
30
0.0
11
836.5000
21
875.6667
31
0.0
0
LINE
8
SHEET3_SCALED
10
1120.3333
20
993.3333
30
0.0
11
1120.3333
21
921.0000
31
0.0
0
LINE
8
SHEET3_SCALED
10
706.5000
20
279.8333
30
0.0
11
719.5000
21
231.3333
31
0.0
0
LINE
8
SHEET3_SCALED
10
625.5000
20
834.3333
30
0.0
11
625.5000
21
784.3333
31
0.0
0
LINE
8
SHEET3_SCALED
10
780.0000
20
1008.0000
30
0.0
11
780.0000
21
949.5000
31
0.0
0
LINE
8
SHEET3_SCALED
10
995.8333
20
495.6667
30
0.0
11
948.3333
21
480.3333
31
0.0
0
LINE
8
SHEET3_SCALED
10
1226.4671
20
838.0004
30
0.0
11
1226.7520
21
752.8331
31
0.0
0
LINE
8
SHEET3_SCALED
10
909.5000
20
478.5000
30
0.0
11
912.8333
21
429.1667
31
0.0
0
LINE
8
SHEET3_SCALED
10
724.8333
20
956.8333
30
0.0
11
724.8333
21
908.6667
31
0.0
0
LINE
8
SHEET3_SCALED
10
818.8333
20
387.1667
30
0.0
11
822.8333
21
339.6667
31
0.0
0
LINE
8
SHEET3_SCALED
10
556.1667
20
762.8333
30
0.0
11
625.3333
21
762.8333
31
0.0
0
LINE
8
SHEET3_SCALED
10
623.0000
20
404.3333
30
0.0
11
669.3333
21
396.8333
31
0.0
0
LINE
8
SHEET3_SCALED
10
839.8333
20
947.5000
30
0.0
11
839.8333
21
900.6667
31
0.0
0
LINE
8
SHEET3_SCALED
10
1142.3333
20
243.8333
30
0.0
11
1097.3333
21
232.0000
31
0.0
0
LINE
8
SHEET3_SCALED
10
425.6667
20
838.5000
30
0.0
11
471.5000
21
838.5000
31
0.0
0
LINE
8
SHEET3_SCALED
10
1225.0007
20
1026.4691
30
0.0
11
1122.6663
21
1026.0901
31
0.0
0
LINE
8
SHEET3_SCALED
10
1228.4086
20
556.1669
30
0.0
11
1228.7636
21
460.3331
31
0.0
0
LINE
8
SHEET3_SCALED
10
763.0000
20
1074.0000
30
0.0
11
829.0000
21
1074.0000
31
0.0
0
LINE
8
SHEET3_SCALED
10
103.7609
20
583.5004
30
0.0
11
104.0899
21
495.6664
31
0.0
0
LINE
8
SHEET3_SCALED
10
779.8333
20
949.3333
30
0.0
11
779.8333
21
904.8333
31
0.0
0
LINE
8
SHEET3_SCALED
10
669.8333
20
993.3333
30
0.0
11
669.8333
21
940.3333
31
0.0
0
LINE
8
SHEET3_SCALED
10
1224.1150
20
265.6918
30
0.0
11
1178.5258
21
253.4041
31
0.0
0
LINE
8
SHEET3_SCALED
10
395.8336
20
380.4176
30
0.0
11
309.4997
21
380.0918
31
0.0
0
LINE
8
SHEET3_SCALED
10
506.6670
20
223.0751
30
0.0
11
429.4996
21
222.7828
31
0.0
0
LINE
8
SHEET3_SCALED
10
1065.3729
20
980.8338
30
0.0
11
1065.1667
21
927.0000
31
0.0
0
LINE
8
SHEET3_SCALED
10
917.6667
20
777.3333
30
0.0
11
969.3333
21
777.3333
31
0.0
0
LINE
8
SHEET3_SCALED
10
554.8333
20
995.0000
30
0.0
11
554.6667
21
951.6667
31
0.0
0
LINE
8
SHEET3_SCALED
10
846.0000
20
617.3333
30
0.0
11
899.3200
21
608.5855
31
0.0
0
LINE
8
SHEET3_SCALED
10
908.6667
20
717.5000
30
0.0
11
965.3333
21
717.5000
31
0.0
0
LINE
8
SHEET3_SCALED
10
105.4128
20
368.8336
30
0.0
11
105.7610
21
278.9997
31
0.0
0
LINE
8
SHEET3_SCALED
10
926.6667
20
1007.6667
30
0.0
11
969.5000
21
1007.5000
31
0.0
0
LINE
8
SHEET3_SCALED
10
385.0000
20
1008.5000
30
0.0
11
385.0000
21
965.8333
31
0.0
0
LINE
8
SHEET3_SCALED
10
800.5000
20
717.8333
30
0.0
11
843.1667
21
717.8333
31
0.0
0
LINE
8
SHEET3_SCALED
10
101.5830
20
880.8337
30
0.0
11
101.9105
21
797.3330
31
0.0
0
LINE
8
SHEET3_SCALED
10
247.5000
20
1009.3333
30
0.0
11
308.8333
21
1009.3333
31
0.0
0
LINE
8
SHEET3_SCALED
10
537.0000
20
898.5000
30
0.0
11
495.5000
21
890.0000
31
0.0
0
LINE
8
SHEET3_SCALED
10
1229.0000
20
460.1667
30
0.0
11
1229.1667
21
417.8333
31
0.0
0
LINE
8
SHEET3_SCALED
10
703.8333
20
1008.3333
30
0.0
11
759.9991
21
1008.1113
31
0.0
0
LINE
8
SHEET3_SCALED
10
416.1667
20
888.6667
30
0.0
11
457.8333
21
888.5000
31
0.0
0
LINE
8
SHEET3_SCALED
10
547.8333
20
849.5000
30
0.0
11
507.1667
21
841.1667
31
0.0
0
LINE
8
SHEET3_SCALED
10
695.6667
20
885.1667
30
0.0
11
745.8387
21
881.9167
31
0.0
0
LINE
8
SHEET3_SCALED
10
149.0000
20
971.1667
30
0.0
11
108.3333
21
970.3333
31
0.0
0
LINE
8
SHEET3_SCALED
10
652.4911
20
587.4423
30
0.0
11
708.3333
21
578.8333
31
0.0
0
LINE
8
SHEET3_SCALED
10
1137.8333
20
453.6667
30
0.0
11
1098.1667
21
447.3333
31
0.0
0
LINE
8
SHEET3_SCALED
10
650.6667
20
885.0000
30
0.0
11
650.6667
21
844.8333
31
0.0
0
LINE
8
SHEET3_SCALED
10
726.6661
20
225.3788
30
0.0
11
657.4978
21
224.5070
31
0.0
0
LINE
8
SHEET3_SCALED
10
1131.0000
20
516.1667
30
0.0
11
1134.3475
21
475.8207
31
0.0
0
LINE
8
SHEET3_SCALED
10
1033.1667
20
1025.5000
30
0.0
11
1099.6667
21
1025.5000
31
0.0
0
LINE
8
SHEET3_SCALED
10
648.8333
20
224.1667
30
0.0
11
610.8333
21
223.8333
31
0.0
0
LINE
8
SHEET3_SCALED
10
964.1667
20
227.1667
30
0.0
11
926.1667
21
226.8333
31
0.0
0
LINE
8
SHEET3_SCALED
10
245.0000
20
221.6667
30
0.0
11
183.8330
21
221.3984
31
0.0
0
LINE
8
SHEET3_SCALED
10
356.5000
20
1070.6667
30
0.0
11
309.9994
21
1070.4627
31
0.0
0
LINE
8
SHEET3_SCALED
10
101.1667
20
923.5000
30
0.0
11
101.3333
21
885.5000
31
0.0
0
LINE
8
SHEET3_SCALED
10
1228.0000
20
603.8333
30
0.0
11
1228.1667
21
565.8333
31
0.0
0
LINE
8
SHEET3_SCALED
10
871.8333
20
226.3333
30
0.0
11
833.8333
21
226.1667
31
0.0
0
LINE
8
SHEET3_SCALED
10
439.8333
20
978.3333
30
0.0
11
439.8333
21
924.5000
31
0.0
0
LINE
8
SHEET3_SCALED
10
440.0000
20
1008.5000
30
0.0
11
505.8333
21
1008.5000
31
0.0
0
LINE
8
SHEET3_SCALED
10
609.6667
20
946.0000
30
0.0
11
609.6667
21
908.1667
31
0.0
0
LINE
8
SHEET3_SCALED
10
611.3333
20
289.3333
30
0.0
11
618.1667
21
252.5000
31
0.0
0
LINE
8
SHEET3_SCALED
10
1029.5000
20
1025.6667
30
0.0
11
992.1667
21
1025.5000
31
0.0
0
LINE
8
SHEET3_SCALED
10
586.1667
20
288.3333
30
0.0
11
592.8333
21
251.6667
31
0.0
0
LINE
8
SHEET3_SCALED
10
466.0000
20
1071.8333
30
0.0
11
530.0000
21
1071.8333
31
0.0
0
LINE
8
SHEET3_SCALED
10
491.0000
20
763.3333
30
0.0
11
539.8324
21
762.8934
31
0.0
0
LINE
8
SHEET3_SCALED
10
184.3333
20
1016.1667
30
0.0
11
205.8435
21
970.1714
31
0.0
0
LINE
8
SHEET3_SCALED
10
893.0000
20
756.8333
30
0.0
11
893.0000
21
720.3333
31
0.0
0
LINE
8
SHEET3_SCALED
10
950.0000
20
984.0000
30
0.0
11
950.0000
21
947.6667
31
0.0
0
LINE
8
SHEET3_SCALED
10
836.5000
20
1007.8333
30
0.0
11
905.1667
21
1007.8333
31
0.0
0
LINE
8
SHEET3_SCALED
10
506.8333
20
223.3333
30
0.0
11
542.1667
21
223.3333
31
0.0
0
LINE
8
SHEET3_SCALED
10
833.1667
20
777.5000
30
0.0
11
917.5000
21
777.5000
31
0.0
0
LINE
8
SHEET3_SCALED
10
634.4910
20
909.7906
30
0.0
11
593.6557
21
906.8172
31
0.0
0
LINE
8
SHEET3_SCALED
10
952.0000
20
424.3333
30
0.0
11
913.8058
21
418.3421
31
0.0
0
LINE
8
SHEET3_SCALED
10
1209.5000
20
695.3333
30
0.0
11
1189.6667
21
667.6667
31
0.0
0
LINE
8
SHEET3_SCALED
10
1168.3333
20
637.3333
30
0.0
11
1148.6667
21
610.0000
31
0.0
0
LINE
8
SHEET3_SCALED
10
1029.4997
20
1075.5658
30
0.0
11
952.1666
21
1075.1792
31
0.0
0
LINE
8
SHEET3_SCALED
10
552.3333
20
875.6667
30
0.0
11
493.8661
21
864.3312
31
0.0
0
LINE
8
SHEET3_SCALED
10
675.5000
20
810.6667
30
0.0
11
675.5000
21
777.5000
31
0.0
0
LINE
8
SHEET3_SCALED
10
599.3333
20
856.8333
30
0.0
11
566.5000
21
852.6667
31
0.0
0
LINE
8
SHEET3_SCALED
10
594.3333
20
252.1667
30
0.0
11
564.3333
21
238.5000
31
0.0
0
LINE
8
SHEET3_SCALED
10
427.5000
20
260.5000
30
0.0
11
418.2309
21
228.6480
31
0.0
0
LINE
8
SHEET3_SCALED
10
395.8338
20
373.2427
30
0.0
11
348.5000
21
373.0000
31
0.0
0
LINE
8
SHEET3_SCALED
10
490.3333
20
742.8333
30
0.0
11
490.3333
21
710.6667
31
0.0
0
LINE
8
SHEET3_SCALED
10
1061.5000
20
371.8333
30
0.0
11
1030.5000
21
363.5000
31
0.0
0
LINE
8
SHEET3_SCALED
10
932.5000
20
612.8333
30
0.0
11
900.6667
21
610.0000
31
0.0
0
LINE
8
SHEET3_SCALED
10
634.8333
20
473.0000
30
0.0
11
666.3333
21
468.0000
31
0.0
0
LINE
8
SHEET3_SCALED
10
840.0000
20
1001.6667
30
0.0
11
840.0000
21
956.0000
31
0.0
0
LINE
8
SHEET3_SCALED
10
1065.5000
20
1015.0000
30
0.0
11
1065.5000
21
983.6667
31
0.0
0
LINE
8
SHEET3_SCALED
10
984.0000
20
865.5000
30
0.0
11
1015.1667
21
863.3333
31
0.0
0
LINE
8
SHEET3_SCALED
10
142.5000
20
610.8333
30
0.0
11
111.6667
21
610.3333
31
0.0
0
LINE
8
SHEET3_SCALED
10
725.0000
20
1004.5000
30
0.0
11
725.0000
21
964.6667
31
0.0
0
LINE
8
SHEET3_SCALED
10
363.8333
20
396.0000
30
0.0
11
364.0000
21
366.0000
31
0.0
0
LINE
8
SHEET3_SCALED
10
1110.3333
20
1049.3333
30
0.0
11
1071.6669
21
1049.1173
31
0.0
0
LINE
8
SHEET3_SCALED
10
1096.0000
20
910.6667
30
0.0
11
1069.8333
21
896.6667
31
0.0
0
LINE
8
SHEET3_SCALED
10
384.8333
20
955.6667
30
0.0
11
384.8333
21
926.0000
31
0.0
0
LINE
8
SHEET3_SCALED
10
395.6667
20
396.0000
30
0.0
11
396.0000
21
366.6667
31
0.0
0
LINE
8
SHEET3_SCALED
10
1061.3333
20
227.8333
30
0.0
11
1116.0000
21
227.8333
31
0.0
0
LINE
8
SHEET3_SCALED
10
670.0000
20
696.8333
30
0.0
11
665.3333
21
668.1667
31
0.0
0
LINE
8
SHEET3_SCALED
10
1106.3333
20
887.8333
30
0.0
11
1081.3333
21
874.3333
31
0.0
0
LINE
8
SHEET3_SCALED
10
1224.8333
20
1069.3333
30
0.0
11
1224.8333
21
1019.6667
31
0.0
0
LINE
8
SHEET3_SCALED
10
425.6667
20
1071.5000
30
0.0
11
465.8333
21
1071.5000
31
0.0
0
LINE
8
SHEET3_SCALED
10
238.6667
20
387.0000
30
0.0
11
195.3323
21
386.2215
31
0.0
0
LINE
8
SHEET3_SCALED
10
103.1667
20
680.0000
30
0.0
11
103.1667
21
607.8333
31
0.0
0
LINE
8
SHEET3_SCALED
10
784.8333
20
1008.0000
30
0.0
11
833.3333
21
1008.0000
31
0.0
0
LINE
8
SHEET3_SCALED
10
624.5000
20
738.0000
30
0.0
11
621.3152
21
707.6511
31
0.0
0
LINE
8
SHEET3_SCALED
10
225.5000
20
1070.3333
30
0.0
11
286.0000
21
1070.3333
31
0.0
0
LINE
8
SHEET3_SCALED
10
974.8333
20
1075.0000
30
0.0
11
974.8333
21
1025.6667
31
0.0
0
LINE
8
SHEET3_SCALED
10
642.1667
20
345.6667
30
0.0
11
668.6667
21
341.5000
31
0.0
0
LINE
8
SHEET3_SCALED
10
949.8333
20
928.6667
30
0.0
11
949.8333
21
893.3333
31
0.0
0
LINE
8
SHEET3_SCALED
10
826.0000
20
1074.3333
30
0.0
11
865.1667
21
1074.3333
31
0.0
0
LINE
8
SHEET3_SCALED
10
499.6667
20
920.8333
30
0.0
11
499.6667
21
894.3333
31
0.0
0
LINE
8
SHEET3_SCALED
10
315.5000
20
221.8333
30
0.0
11
342.0000
21
221.8333
31
0.0
0
LINE
8
SHEET3_SCALED
10
1225.3333
20
1019.5000
30
0.0
11
1225.3333
21
957.1667
31
0.0
0
LINE
8
SHEET3_SCALED
10
562.3333
20
279.6667
30
0.0
11
567.1667
21
254.0000
31
0.0
0
LINE
8
SHEET3_SCALED
10
103.5000
20
609.6667
30
0.0
11
103.5000
21
583.6667
31
0.0
0
LINE
8
SHEET3_SCALED
10
1089.8333
20
1075.8333
30
0.0
11
1161.1667
21
1075.8333
31
0.0
0
LINE
8
SHEET3_SCALED
10
673.8333
20
729.3333
30
0.0
11
671.1667
21
704.0000
31
0.0
0
LINE
8
SHEET3_SCALED
10
945.8333
20
1075.0000
30
0.0
11
920.5000
21
1074.8333
31
0.0
0
LINE
8
SHEET3_SCALED
10
327.8333
20
387.3333
30
0.0
11
391.3333
21
387.3333
31
0.0
0
LINE
8
SHEET3_SCALED
10
996.0020
20
227.8057
30
0.0
11
1061.1647
21
227.3742
31
0.0
0
LINE
8
SHEET3_SCALED
10
591.9668
20
906.7358
30
0.0
11
556.0000
21
901.6667
31
0.0
0
LINE
8
SHEET3_SCALED
10
1030.1329
20
240.2921
30
0.0
11
1005.5000
21
233.6667
31
0.0
0
LINE
8
SHEET3_SCALED
10
1225.8333
20
945.6667
30
0.0
11
1225.8333
21
871.3333
31
0.0
0
LINE
8
SHEET3_SCALED
10
231.6667
20
1020.3333
30
0.0
11
206.8333
21
1020.1667
31
0.0
0
LINE
8
SHEET3_SCALED
10
737.1667
20
225.6667
30
0.0
11
808.5000
21
225.6667
31
0.0
0
LINE
8
SHEET3_SCALED
10
101.0000
20
970.0000
30
0.0
11
101.0000
21
936.1667
31
0.0
0
LINE
8
SHEET3_SCALED
10
1180.6667
20
228.8333
30
0.0
11
1226.0000
21
228.8333
31
0.0
0
LINE
8
SHEET3_SCALED
10
228.5000
20
980.0000
30
0.0
11
239.1667
21
957.8333
31
0.0
0
LINE
8
SHEET3_SCALED
10
592.1667
20
881.1667
30
0.0
11
567.8333
21
878.1667
31
0.0
0
LINE
8
SHEET3_SCALED
10
554.6667
20
930.1667
30
0.0
11
554.5000
21
905.6667
31
0.0
0
LINE
8
SHEET3_SCALED
10
100.5000
20
1034.1667
30
0.0
11
100.5000
21
986.6667
31
0.0
0
LINE
8
SHEET3_SCALED
10
812.6667
20
465.3333
30
0.0
11
775.4167
21
452.9167
31
0.0
0
LINE
8
SHEET3_SCALED
10
569.5000
20
853.0000
30
0.0
11
545.6667
21
849.0000
31
0.0
0
LINE
8
SHEET3_SCALED
10
1158.8333
20
483.3333
30
0.0
11
1162.1667
21
459.6667
31
0.0
0
LINE
8
SHEET3_SCALED
10
1120.5000
20
1025.8333
30
0.0
11
1120.5000
21
1002.0000
31
0.0
0
LINE
8
SHEET3_SCALED
10
365.8333
20
222.3333
30
0.0
11
429.3333
21
222.3333
31
0.0
0
LINE
8
SHEET3_SCALED
10
1176.8333
20
1076.3333
30
0.0
11
1224.3333
21
1076.3333
31
0.0
0
LINE
8
SHEET3_SCALED
10
795.5000
20
762.0000
30
0.0
11
794.8333
21
738.5000
31
0.0
0
LINE
8
SHEET3_SCALED
10
254.1667
20
221.8333
30
0.0
11
289.0000
21
221.8333
31
0.0
0
LINE
8
SHEET3_SCALED
10
649.3333
20
735.6667
30
0.0
11
646.4983
21
707.3168
31
0.0
0
LINE
8
SHEET3_SCALED
10
858.8333
20
717.6667
30
0.0
11
907.0000
21
717.6667
31
0.0
0
LINE
8
SHEET3_SCALED
10
102.3333
20
775.3333
30
0.0
11
102.3333
21
730.8333
31
0.0
0
LINE
8
SHEET3_SCALED
10
349.0000
20
366.0000
30
0.0
11
394.8333
21
366.0000
31
0.0
0
LINE
8
SHEET3_SCALED
10
613.0000
20
883.0000
30
0.0
11
589.8333
21
881.0000
31
0.0
0
LINE
8
SHEET3_SCALED
10
922.1667
20
691.0000
30
0.0
11
924.5386
21
665.8213
31
0.0
0
LINE
8
SHEET3_SCALED
10
555.8333
20
901.6667
30
0.0
11
533.1667
21
897.6667
31
0.0
0
LINE
8
SHEET3_SCALED
10
1227.8333
20
653.3333
30
0.0
11
1227.8333
21
607.3333
31
0.0
0
LINE
8
SHEET3_SCALED
10
1146.3333
20
1049.6667
30
0.0
11
1185.3333
21
1049.6667
31
0.0
0
LINE
8
SHEET3_SCALED
10
382.0000
20
1071.1667
30
0.0
11
425.5000
21
1071.1667
31
0.0
0
LINE
8
SHEET3_SCALED
10
895.1667
20
1007.5000
30
0.0
11
895.1667
21
984.8333
31
0.0
0
LINE
8
SHEET3_SCALED
10
617.3333
20
256.3333
30
0.0
11
595.1667
21
252.1667
31
0.0
0
LINE
8
SHEET3_SCALED
10
102.6667
20
726.1667
30
0.0
11
102.6667
21
694.5000
31
0.0
0
LINE
8
SHEET3_SCALED
10
251.0000
20
243.3333
30
0.0
11
273.5000
21
243.3333
31
0.0
0
LINE
8
SHEET3_SCALED
10
729.4603
20
284.7018
30
0.0
11
688.6667
21
276.6667
31
0.0
0
LINE
8
SHEET3_SCALED
10
104.5000
20
495.5000
30
0.0
11
104.5000
21
439.3333
31
0.0
0
LINE
8
SHEET3_SCALED
10
105.0000
20
430.3333
30
0.0
11
105.0000
21
372.8333
31
0.0
0
LINE
8
SHEET3_SCALED
10
249.6667
20
247.0000
30
0.0
11
271.8333
21
247.0000
31
0.0
0
LINE
8
SHEET3_SCALED
10
1116.1667
20
228.1667
30
0.0
11
1161.1667
21
228.1667
31
0.0
0
LINE
8
SHEET3_SCALED
10
373.6667
20
394.6667
30
0.0
11
395.6667
21
394.6667
31
0.0
0
LINE
8
SHEET3_SCALED
10
856.1667
20
471.3333
30
0.0
11
839.3333
21
457.6667
31
0.0
0
LINE
8
SHEET3_SCALED
10
157.1692
20
1018.6667
30
0.0
11
158.0000
21
964.6641
31
0.0
0
LINE
8
SHEET3_SCALED
10
100.3333
20
1068.8333
30
0.0
11
100.3333
21
1038.1667
31
0.0
0
LINE
8
SHEET3_SCALED
10
909.0000
20
485.6667
30
0.0
11
892.3333
21
472.1667
31
0.0
0
LINE
8
SHEET3_SCALED
10
207.0000
20
967.3333
30
0.0
11
216.1667
21
948.0000
31
0.0
0
LINE
8
SHEET3_SCALED
10
675.1667
20
752.0000
30
0.0
11
674.0000
21
730.6667
31
0.0
0
LINE
8
SHEET3_SCALED
10
880.3411
20
262.1364
30
0.0
11
848.1667
21
253.8333
31
0.0
0
LINE
8
SHEET3_SCALED
10
331.1667
20
262.6667
30
0.0
11
310.0000
21
260.6667
31
0.0
0
LINE
8
SHEET3_SCALED
10
139.8333
20
920.8333
30
0.0
11
107.1616
21
920.3188
31
0.0
0
LINE
8
SHEET3_SCALED
10
1230.1667
20
334.5000
30
0.0
11
1230.1667
21
276.8333
31
0.0
0
LINE
8
SHEET3_SCALED
10
650.5000
20
807.1667
30
0.0
11
650.5000
21
786.1667
31
0.0
0
LINE
8
SHEET3_SCALED
10
895.0000
20
953.8333
30
0.0
11
895.0000
21
932.8333
31
0.0
0
LINE
8
SHEET3_SCALED
10
703.5000
20
1073.6667
30
0.0
11
752.5000
21
1073.6667
31
0.0
0
LINE
8
SHEET3_SCALED
10
169.3333
20
1070.0000
30
0.0
11
225.3333
21
1070.0000
31
0.0
0
LINE
8
SHEET3_SCALED
10
699.9994
20
1008.4053
30
0.0
11
649.6666
21
1008.0027
31
0.0
0
LINE
8
SHEET3_SCALED
10
317.3333
20
395.3333
30
0.0
11
317.5000
21
374.5000
31
0.0
0
LINE
8
SHEET3_SCALED
10
110.6667
20
220.8333
30
0.0
11
140.0000
21
220.8333
31
0.0
0
LINE
8
SHEET3_SCALED
10
106.1667
20
278.8333
30
0.0
11
106.1667
21
221.3333
31
0.0
0
LINE
8
SHEET3_SCALED
10
361.1667
20
1070.8333
30
0.0
11
381.8333
21
1070.8333
31
0.0
0
LINE
8
SHEET3_SCALED
10
439.6667
20
909.5000
30
0.0
11
439.6667
21
888.8333
31
0.0
0
LINE
8
SHEET3_SCALED
10
285.1667
20
380.3333
30
0.0
11
305.6667
21
380.0000
31
0.0
0
LINE
8
SHEET3_SCALED
10
1230.5000
20
276.6667
30
0.0
11
1230.5000
21
256.3333
31
0.0
0
LINE
8
SHEET3_SCALED
10
300.8333
20
243.6667
30
0.0
11
320.6667
21
243.3333
31
0.0
0
LINE
8
SHEET3_SCALED
10
1162.6667
20
457.0000
30
0.0
11
1167.0000
21
437.6667
31
0.0
0
LINE
8
SHEET3_SCALED
10
894.8333
20
916.5000
30
0.0
11
894.8333
21
896.8333
31
0.0
0
LINE
8
SHEET3_SCALED
10
1052.3333
20
562.0000
30
0.0
11
1032.8333
21
560.5000
31
0.0
0
LINE
8
SHEET3_SCALED
10
936.1667
20
587.5000
30
0.0
11
937.3333
21
568.0000
31
0.0
0
LINE
8
SHEET3_SCALED
10
1009.8333
20
916.8333
30
0.0
11
1009.8333
21
889.0000
31
0.0
0
LINE
8
SHEET3_SCALED
10
295.0000
20
246.0000
30
0.0
11
275.6667
21
245.8333
31
0.0
0
LINE
8
SHEET3_SCALED
10
100.5000
20
1069.3333
30
0.0
11
146.0000
21
1069.3333
31
0.0
0
LINE
8
SHEET3_SCALED
10
327.5000
20
243.5000
30
0.0
11
346.8333
21
243.5000
31
0.0
0
LINE
8
SHEET3_SCALED
10
299.5000
20
242.3333
30
0.0
11
280.3333
21
242.1667
31
0.0
0
LINE
8
SHEET3_SCALED
10
976.6667
20
227.3333
30
0.0
11
995.8333
21
227.3333
31
0.0
0
LINE
8
SHEET3_SCALED
10
1161.3333
20
228.5000
30
0.0
11
1180.5000
21
228.5000
31
0.0
0
LINE
8
SHEET3_SCALED
10
384.8333
20
922.5000
30
0.0
11
384.6667
21
903.5000
31
0.0
0
LINE
8
SHEET3_SCALED
10
1032.8333
20
1075.3333
30
0.0
11
1051.8333
21
1075.3333
31
0.0
0
LINE
8
SHEET3_SCALED
10
1065.1667
20
920.8333
30
0.0
11
1065.1667
21
901.8333
31
0.0
0
LINE
8
SHEET3_SCALED
10
290.5000
20
263.5000
30
0.0
11
309.5000
21
263.5000
31
0.0
0
LINE
8
SHEET3_SCALED
10
905.3333
20
226.6667
30
0.0
11
886.5000
21
226.5000
31
0.0
0
LINE
8
SHEET3_SCALED
10
1133.3333
20
898.8333
30
0.0
11
1115.6667
21
892.3333
31
0.0
0
LINE
8
SHEET3_SCALED
10
974.5000
20
717.3333
30
0.0
11
993.1667
21
717.3333
31
0.0
0
LINE
8
SHEET3_SCALED
10
551.0000
20
223.6667
30
0.0
11
585.5000
21
223.6667
31
0.0
0
LINE
8
SHEET3_SCALED
10
285.3333
20
394.3333
30
0.0
11
303.8333
21
394.3333
31
0.0
0
LINE
8
SHEET3_SCALED
10
943.1667
20
478.8333
30
0.0
11
925.1667
21
474.6667
31
0.0
0
LINE
8
SHEET3_SCALED
10
934.3333
20
601.8333
30
0.0
11
936.3333
21
583.6667
31
0.0
0
LINE
8
SHEET3_SCALED
10
1135.5000
20
468.5000
30
0.0
11
1138.5000
21
450.6667
31
0.0
0
LINE
8
SHEET3_SCALED
10
1116.6667
20
892.5000
30
0.0
11
1123.1667
21
875.6667
31
0.0
0
LINE
8
SHEET3_SCALED
10
158.8812
20
948.0020
30
0.0
11
159.1667
21
917.1667
31
0.0
0
LINE
8
SHEET3_SCALED
10
1229.8333
20
352.3333
30
0.0
11
1229.8333
21
334.6667
31
0.0
0
LINE
8
SHEET3_SCALED
10
336.0000
20
900.3333
30
0.0
11
352.5000
21
894.5000
31
0.0
0
LINE
8
SHEET3_SCALED
10
767.1667
20
1008.1667
30
0.0
11
784.6667
21
1008.1667
31
0.0
0
LINE
8
SHEET3_SCALED
10
299.1667
20
922.8333
30
0.0
11
313.1667
21
912.5000
31
0.0
0
LINE
8
SHEET3_SCALED
10
285.1667
20
396.0000
30
0.0
11
285.1667
21
378.6667
31
0.0
0
LINE
8
SHEET3_SCALED
10
621.1667
20
707.5000
30
0.0
11
618.5000
21
690.5000
31
0.0
0
LINE
8
SHEET3_SCALED
10
678.0033
20
885.4952
30
0.0
11
639.4984
21
884.7475
31
0.0
0
LINE
8
SHEET3_SCALED
10
348.5000
20
222.0000
30
0.0
11
365.6667
21
222.0000
31
0.0
0
LINE
8
SHEET3_SCALED
10
464.3333
20
888.6667
30
0.0
11
481.5000
21
888.6667
31
0.0
0
LINE
8
SHEET3_SCALED
10
514.1667
20
868.0000
30
0.0
11
497.5000
21
865.0000
31
0.0
0
LINE
8
SHEET3_SCALED
10
299.8333
20
891.5000
30
0.0
11
314.3333
21
882.8333
31
0.0
0
LINE
8
SHEET3_SCALED
10
416.3333
20
378.3333
30
0.0
11
433.0000
21
375.6667
31
0.0
0
LINE
8
SHEET3_SCALED
10
1189.6667
20
1050.1667
30
0.0
11
1223.0000
21
1050.1667
31
0.0
0
LINE
8
SHEET3_SCALED
10
922.0000
20
714.6667
30
0.0
11
921.8333
21
698.0000
31
0.0
0
LINE
8
SHEET3_SCALED
10
1011.0000
20
499.8333
30
0.0
11
995.0000
21
495.3333
31
0.0
0
LINE
8
SHEET3_SCALED
10
216.6667
20
947.0000
30
0.0
11
224.8333
21
932.6667
31
0.0
0
LINE
8
SHEET3_SCALED
10
255.6667
20
894.8333
30
0.0
11
267.8333
21
883.8333
31
0.0
0
LINE
8
SHEET3_SCALED
10
159.3333
20
914.1667
30
0.0
11
159.8333
21
897.8333
31
0.0
0
LINE
8
SHEET3_SCALED
10
295.1667
20
387.0000
30
0.0
11
329.1667
21
387.0000
31
0.0
0
LINE
8
SHEET3_SCALED
10
153.8333
20
221.1667
30
0.0
11
183.6667
21
221.1667
31
0.0
0
LINE
8
SHEET3_SCALED
10
247.8333
20
943.1667
30
0.0
11
257.3333
21
930.0000
31
0.0
0
LINE
8
SHEET3_SCALED
10
669.8333
20
927.0000
30
0.0
11
669.6667
21
910.8333
31
0.0
0
LINE
8
SHEET3_SCALED
10
100.8333
20
986.5000
30
0.0
11
100.8333
21
970.3333
31
0.0
0
LINE
8
SHEET3_SCALED
10
727.6667
20
300.3333
30
0.0
11
734.0000
21
285.5000
31
0.0
0
LINE
8
SHEET3_SCALED
10
1069.1667
20
869.3333
30
0.0
11
1053.6667
21
865.1667
31
0.0
0
LINE
8
SHEET3_SCALED
10
1076.1667
20
845.1667
30
0.0
11
1060.6667
21
841.0000
31
0.0
0
LINE
8
SHEET3_SCALED
10
1053.0000
20
839.5000
30
0.0
11
1037.1667
21
837.6667
31
0.0
0
LINE
8
SHEET3_SCALED
10
1053.1263
20
246.1485
30
0.0
11
1030.5000
21
240.0000
31
0.0
0
LINE
8
SHEET3_SCALED
10
937.5000
20
565.5000
30
0.0
11
937.1667
21
549.6667
31
0.0
0
LINE
8
SHEET3_SCALED
10
253.1667
20
988.0000
30
0.0
11
259.3333
21
973.5000
31
0.0
0
LINE
8
SHEET3_SCALED
10
650.3333
20
766.6667
30
0.0
11
650.1667
21
751.0000
31
0.0
0
LINE
8
SHEET3_SCALED
10
135.1667
20
870.5000
30
0.0
11
107.4960
21
870.2056
31
0.0
0
LINE
8
SHEET3_SCALED
10
169.3333
20
1020.0000
30
0.0
11
194.1667
21
1020.0000
31
0.0
0
LINE
8
SHEET3_SCALED
10
287.3333
20
900.3333
30
0.0
11
300.0000
21
891.3333
31
0.0
0
LINE
8
SHEET3_SCALED
10
440.0000
20
1008.3333
30
0.0
11
440.0000
21
992.8333
31
0.0
0
LINE
8
SHEET3_SCALED
10
239.3333
20
957.6667
30
0.0
11
247.0000
21
944.3333
31
0.0
0
LINE
8
SHEET3_SCALED
10
1099.8333
20
1025.8333
30
0.0
11
1115.1667
21
1025.8333
31
0.0
0
LINE
8
SHEET3_SCALED
10
359.8333
20
892.5000
30
0.0
11
374.8333
21
890.0000
31
0.0
0
LINE
8
SHEET3_SCALED
10
838.6667
20
313.1667
30
0.0
11
824.0000
21
309.1667
31
0.0
0
LINE
8
SHEET3_SCALED
10
328.1667
20
247.1667
30
0.0
11
343.3333
21
247.1667
31
0.0
0
LINE
8
SHEET3_SCALED
10
230.6667
20
923.8333
30
0.0
11
239.8333
21
911.8333
31
0.0
0
LINE
8
SHEET3_SCALED
10
794.1667
20
729.6667
30
0.0
11
793.1667
21
714.6667
31
0.0
0
LINE
8
SHEET3_SCALED
10
625.1667
20
756.0000
30
0.0
11
624.6667
21
741.0000
31
0.0
0
LINE
8
SHEET3_SCALED
10
248.1667
20
1004.6667
30
0.0
11
252.3333
21
990.3333
31
0.0
0
LINE
8
SHEET3_SCALED
10
260.1667
20
971.6667
30
0.0
11
267.5000
21
958.6667
31
0.0
0
LINE
8
SHEET3_SCALED
10
195.1667
20
386.0000
30
0.0
11
180.3333
21
385.8333
31
0.0
0
LINE
8
SHEET3_SCALED
10
490.6667
20
839.0000
30
0.0
11
476.0000
21
838.3333
31
0.0
0
LINE
8
SHEET3_SCALED
10
906.8333
20
472.1667
30
0.0
11
892.1667
21
472.0000
31
0.0
0
LINE
8
SHEET3_SCALED
10
1075.0000
20
1075.5000
30
0.0
11
1089.6667
21
1075.5000
31
0.0
0
LINE
8
SHEET3_SCALED
10
653.1667
20
910.3333
30
0.0
11
675.0000
21
910.3333
31
0.0
0
LINE
8
SHEET3_SCALED
10
950.1667
20
1007.5000
30
0.0
11
950.1667
21
992.8333
31
0.0
0
LINE
8
SHEET3_SCALED
10
823.1667
20
333.1667
30
0.0
11
823.1667
21
318.5000
31
0.0
0
LINE
8
SHEET3_SCALED
10
139.3333
20
1019.6667
30
0.0
11
154.0000
21
1019.6667
31
0.0
0
LINE
8
SHEET3_SCALED
10
269.3333
20
916.3333
30
0.0
11
280.0000
21
906.3333
31
0.0
0
LINE
8
SHEET3_SCALED
10
244.5000
20
906.3333
30
0.0
11
254.5000
21
895.8333
31
0.0
0
LINE
8
SHEET3_SCALED
10
267.6667
20
958.5000
30
0.0
11
276.0000
21
946.6667
31
0.0
0
LINE
8
SHEET3_SCALED
10
273.5000
20
266.1667
30
0.0
11
259.1667
21
265.8333
31
0.0
0
LINE
8
SHEET3_SCALED
10
670.0000
20
1007.8333
30
0.0
11
670.0000
21
993.5000
31
0.0
0
LINE
8
SHEET3_SCALED
10
1157.0000
20
905.1667
30
0.0
11
1143.1667
21
901.8333
31
0.0
0
LINE
8
SHEET3_SCALED
10
1226.1667
20
871.1667
30
0.0
11
1226.1667
21
843.8333
31
0.0
0
LINE
8
SHEET3_SCALED
10
407.0000
20
273.0000
30
0.0
11
420.9679
21
263.9504
31
0.0
0
LINE
8
SHEET3_SCALED
10
677.3333
20
910.6667
30
0.0
11
691.3333
21
910.3333
31
0.0
0
LINE
8
SHEET3_SCALED
10
643.3333
20
1072.6667
30
0.0
11
657.0000
21
1072.6667
31
0.0
0
LINE
8
SHEET3_SCALED
10
770.8333
20
568.5000
30
0.0
11
768.8333
21
555.0000
31
0.0
0
LINE
8
SHEET3_SCALED
10
820.6667
20
424.8333
30
0.0
11
818.8333
21
411.3333
31
0.0
0
LINE
8
SHEET3_SCALED
10
609.8333
20
303.8333
30
0.0
11
611.1667
21
290.3333
31
0.0
0
LINE
8
SHEET3_SCALED
10
140.1667
20
221.0000
30
0.0
11
153.6667
21
221.0000
31
0.0
0
LINE
8
SHEET3_SCALED
10
567.6667
20
878.0000
30
0.0
11
554.3333
21
876.0000
31
0.0
0
LINE
8
SHEET3_SCALED
10
1032.8333
20
378.3333
30
0.0
11
1036.3333
21
365.3333
31
0.0
0
LINE
8
SHEET3_SCALED
10
842.3333
20
471.0000
30
0.0
11
829.0000
21
469.3333
31
0.0
0
LINE
8
SHEET3_SCALED
10
299.6667
20
247.0000
30
0.0
11
323.0000
21
247.0000
31
0.0
0
LINE
8
SHEET3_SCALED
10
1124.3333
20
872.0000
30
0.0
11
1127.0000
21
859.0000
31
0.0
0
LINE
8
SHEET3_SCALED
10
1107.5000
20
915.8333
30
0.0
11
1095.5000
21
910.3333
31
0.0
0
LINE
8
SHEET3_SCALED
10
1118.5000
20
893.3333
30
0.0
11
1106.5000
21
887.8333
31
0.0
0
LINE
8
SHEET3_SCALED
10
1062.1667
20
893.5000
30
0.0
11
1049.5000
21
889.8333
31
0.0
0
LINE
8
SHEET3_SCALED
10
1015.3333
20
895.8333
30
0.0
11
1028.5000
21
895.3333
31
0.0
0
LINE
8
SHEET3_SCALED
10
803.0000
20
777.6667
30
0.0
11
825.0000
21
777.6667
31
0.0
0
LINE
8
SHEET3_SCALED
10
542.8333
20
763.0000
30
0.0
11
556.0000
21
763.0000
31
0.0
0
LINE
8
SHEET3_SCALED
10
925.0000
20
474.6667
30
0.0
11
912.0000
21
472.8333
31
0.0
0
LINE
8
SHEET3_SCALED
10
258.6667
20
928.3333
30
0.0
11
267.3333
21
918.5000
31
0.0
0
LINE
8
SHEET3_SCALED
10
561.5000
20
338.1667
30
0.0
11
560.1667
21
325.1667
31
0.0
0
LINE
8
SHEET3_SCALED
10
262.1667
20
262.1667
30
0.0
11
287.0000
21
262.1667
31
0.0
0
LINE
8
SHEET3_SCALED
10
319.3333
20
908.6667
30
0.0
11
330.8333
21
902.6667
31
0.0
0
LINE
8
SHEET3_SCALED
10
310.3333
20
914.3333
30
0.0
11
321.3333
21
907.5000
31
0.0
0
LINE
8
SHEET3_SCALED
10
825.8333
20
468.6667
30
0.0
11
813.3333
21
465.5000
31
0.0
0
LINE
8
SHEET3_SCALED
10
159.8333
20
893.1667
30
0.0
11
160.0000
21
880.3333
31
0.0
0
LINE
8
SHEET3_SCALED
10
333.3333
20
901.5000
30
0.0
11
345.1667
21
896.8333
31
0.0
0
LINE
8
SHEET3_SCALED
10
675.5000
20
771.1667
30
0.0
11
675.3333
21
758.5000
31
0.0
0
LINE
8
SHEET3_SCALED
10
149.5000
20
1069.6667
30
0.0
11
162.1667
21
1069.6667
31
0.0
0
LINE
8
SHEET3_SCALED
10
102.1667
20
793.1667
30
0.0
11
102.1667
21
780.5000
31
0.0
0
LINE
8
SHEET3_SCALED
10
808.6667
20
226.0000
30
0.0
11
821.3333
21
226.0000
31
0.0
0
LINE
8
SHEET3_SCALED
10
1058.8333
20
1075.5000
30
0.0
11
1071.5000
21
1075.5000
31
0.0
0
LINE
8
SHEET3_SCALED
10
792.0000
20
702.3333
30
0.0
11
790.3333
21
690.0000
31
0.0
0
LINE
8
SHEET3_SCALED
10
1017.8333
20
443.5000
30
0.0
11
1020.0000
21
431.3333
31
0.0
0
LINE
8
SHEET3_SCALED
10
121.3333
20
670.1667
30
0.0
11
109.0000
21
669.8333
31
0.0
0
LINE
8
SHEET3_SCALED
10
245.5000
20
1019.8333
30
0.0
11
247.3333
21
1007.6667
31
0.0
0
LINE
8
SHEET3_SCALED
10
1080.6667
20
1061.0000
30
0.0
11
1076.3333
21
1049.5000
31
0.0
0
LINE
8
SHEET3_SCALED
10
1010.8333
20
510.5000
30
0.0
11
1011.8333
21
498.3333
31
0.0
0
LINE
8
SHEET3_SCALED
10
893.1667
20
774.1667
30
0.0
11
893.0000
21
762.0000
31
0.0
0
LINE
8
SHEET3_SCALED
10
868.1667
20
1074.5000
30
0.0
11
890.8333
21
1074.5000
31
0.0
0
LINE
8
SHEET3_SCALED
10
252.0000
20
1020.5000
30
0.0
11
264.1667
21
1020.5000
31
0.0
0
LINE
8
SHEET3_SCALED
10
818.5000
20
407.0000
30
0.0
11
818.5000
21
394.8333
31
0.0
0
LINE
8
SHEET3_SCALED
10
1142.5000
20
901.6667
30
0.0
11
1131.1667
21
898.0000
31
0.0
0
LINE
8
SHEET3_SCALED
10
560.1667
20
297.6667
30
0.0
11
561.5000
21
285.8333
31
0.0
0
LINE
8
SHEET3_SCALED
10
1080.5000
20
874.0000
30
0.0
11
1069.5000
21
869.5000
31
0.0
0
LINE
8
SHEET3_SCALED
10
1006.1667
20
566.1667
30
0.0
11
1007.1667
21
554.3333
31
0.0
0
LINE
8
SHEET3_SCALED
10
102.8333
20
692.0000
30
0.0
11
102.8333
21
680.1667
31
0.0
0
LINE
8
SHEET3_SCALED
10
495.5000
20
864.8333
30
0.0
11
483.8333
21
863.6667
31
0.0
0
LINE
8
SHEET3_SCALED
10
392.6667
20
888.6667
30
0.0
11
404.3333
21
888.6667
31
0.0
0
LINE
8
SHEET3_SCALED
10
1182.1667
20
883.5000
30
0.0
11
1170.6667
21
881.8333
31
0.0
0
LINE
8
SHEET3_SCALED
10
512.3333
20
901.0000
30
0.0
11
501.0000
21
898.5000
31
0.0
0
LINE
8
SHEET3_SCALED
10
129.1667
20
720.3333
30
0.0
11
117.8333
21
720.1667
31
0.0
0
LINE
8
SHEET3_SCALED
10
795.5000
20
777.5000
30
0.0
11
795.5000
21
766.1667
31
0.0
0
LINE
8
SHEET3_SCALED
10
769.8333
20
450.8333
30
0.0
11
759.1667
21
447.1667
31
0.0
0
LINE
8
SHEET3_SCALED
10
704.5000
20
909.6667
30
0.0
11
715.6667
21
909.1667
31
0.0
0
LINE
8
SHEET3_SCALED
10
1043.0000
20
888.6667
30
0.0
11
1032.0000
21
887.6667
31
0.0
0
LINE
8
SHEET3_SCALED
10
989.8333
20
1007.5000
30
0.0
11
1000.8333
21
1007.5000
31
0.0
0
LINE
8
SHEET3_SCALED
10
555.6667
20
349.1667
30
0.0
11
554.0000
21
338.3333
31
0.0
0
LINE
8
SHEET3_SCALED
10
752.3333
20
454.5000
30
0.0
11
750.8333
21
443.6667
31
0.0
0
LINE
8
SHEET3_SCALED
10
1127.8333
20
923.3333
30
0.0
11
1117.5000
21
919.8333
31
0.0
0
LINE
8
SHEET3_SCALED
10
158.6667
20
921.3333
30
0.0
11
147.8333
21
921.1667
31
0.0
0
LINE
8
SHEET3_SCALED
10
1161.3333
20
1076.1667
30
0.0
11
1172.1667
21
1076.1667
31
0.0
0
LINE
8
SHEET3_SCALED
10
580.1667
20
523.6667
30
0.0
11
590.8333
21
522.0000
31
0.0
0
LINE
8
SHEET3_SCALED
10
995.0880
20
697.3402
30
0.0
11
996.0000
21
685.6667
31
0.0
0
LINE
8
SHEET3_SCALED
10
158.5000
20
958.8333
30
0.0
11
158.5000
21
948.1667
31
0.0
0
LINE
8
SHEET3_SCALED
10
935.3333
20
534.6667
30
0.0
11
933.0000
21
524.3333
31
0.0
0
LINE
8
SHEET3_SCALED
10
299.5000
20
1084.6667
30
0.0
11
299.5000
21
1074.1667
31
0.0
0
LINE
8
SHEET3_SCALED
10
937.0000
20
547.6667
30
0.0
11
935.8333
21
537.3333
31
0.0
0
LINE
8
SHEET3_SCALED
10
585.9418
20
334.3478
30
0.0
11
584.8333
21
317.1667
31
0.0
0
LINE
8
SHEET3_SCALED
10
1200.8333
20
884.0000
30
0.0
11
1211.1667
21
883.8333
31
0.0
0
LINE
8
SHEET3_SCALED
10
845.1667
20
471.1667
30
0.0
11
855.5000
21
471.0000
31
0.0
0
LINE
8
SHEET3_SCALED
10
289.8333
20
1070.5000
30
0.0
11
309.8333
21
1070.5000
31
0.0
0
LINE
8
SHEET3_SCALED
10
932.8333
20
523.8333
30
0.0
11
929.3333
21
514.1667
31
0.0
0
LINE
8
SHEET3_SCALED
10
1225.5000
20
957.0000
30
0.0
11
1225.5000
21
946.8333
31
0.0
0
LINE
8
SHEET3_SCALED
10
726.8333
20
225.3333
30
0.0
11
737.0000
21
225.3333
31
0.0
0
LINE
8
SHEET3_SCALED
10
1053.5000
20
865.1667
30
0.0
11
1043.5000
21
863.5000
31
0.0
0
LINE
8
SHEET3_SCALED
10
928.3333
20
511.8333
30
0.0
11
923.6667
21
503.0000
31
0.0
0
LINE
8
SHEET3_SCALED
10
322.0000
20
264.3333
30
0.0
11
331.8333
21
263.8333
31
0.0
0
LINE
8
SHEET3_SCALED
10
625.5000
20
774.0000
30
0.0
11
625.5000
21
764.1667
31
0.0
0
LINE
8
SHEET3_SCALED
10
949.8333
20
938.6667
30
0.0
11
949.8333
21
928.8333
31
0.0
0
LINE
8
SHEET3_SCALED
10
285.3333
20
387.1667
30
0.0
11
295.0000
21
387.1667
31
0.0
0
LINE
8
SHEET3_SCALED
10
636.3333
20
884.5000
30
0.0
11
626.8333
21
884.1667
31
0.0
0
LINE
8
SHEET3_SCALED
10
121.5000
20
670.3333
30
0.0
11
131.0000
21
670.3333
31
0.0
0
LINE
8
SHEET3_SCALED
10
390.1667
20
896.1667
30
0.0
11
399.6667
21
896.1667
31
0.0
0
LINE
8
SHEET3_SCALED
10
615.1667
20
260.5000
30
0.0
11
624.5000
21
260.3333
31
0.0
0
LINE
8
SHEET3_SCALED
10
625.1667
20
1072.5000
30
0.0
11
634.5000
21
1072.5000
31
0.0
0
LINE
8
SHEET3_SCALED
10
294.1667
20
222.0000
30
0.0
11
303.5000
21
222.0000
31
0.0
0
LINE
8
SHEET3_SCALED
10
554.6667
20
943.1667
30
0.0
11
554.6667
21
933.8333
31
0.0
0
LINE
8
SHEET3_SCALED
10
895.0000
20
970.0000
30
0.0
11
895.0000
21
960.6667
31
0.0
0
LINE
8
SHEET3_SCALED
10
825.6667
20
439.8333
30
0.0
11
822.3333
21
431.1667
31
0.0
0
LINE
8
SHEET3_SCALED
10
694.1667
20
1073.5000
30
0.0
11
703.3333
21
1073.5000
31
0.0
0
LINE
8
SHEET3_SCALED
10
675.6667
20
837.0000
30
0.0
11
675.6667
21
827.8333
31
0.0
0
LINE
8
SHEET3_SCALED
10
398.1667
20
273.0000
30
0.0
11
407.1667
21
273.0000
31
0.0
0
LINE
8
SHEET3_SCALED
10
309.3333
20
380.1667
30
0.0
11
300.5000
21
380.0000
31
0.0
0
LINE
8
SHEET3_SCALED
10
559.6667
20
911.1667
30
0.0
11
559.6667
21
902.3333
31
0.0
0
LINE
8
SHEET3_SCALED
10
1062.3333
20
841.5000
30
0.0
11
1053.8333
21
839.6667
31
0.0
0
LINE
8
SHEET3_SCALED
10
613.3333
20
915.8333
30
0.0
11
604.6667
21
915.1667
31
0.0
0
LINE
8
SHEET3_SCALED
10
1230.6667
20
252.1667
30
0.0
11
1230.6667
21
243.5000
31
0.0
0
LINE
8
SHEET3_SCALED
10
1117.0000
20
919.6667
30
0.0
11
1109.0000
21
916.3333
31
0.0
0
LINE
8
SHEET3_SCALED
10
104.6667
20
439.1667
30
0.0
11
104.6667
21
430.5000
31
0.0
0
LINE
8
SHEET3_SCALED
10
507.8333
20
841.3333
30
0.0
11
499.3333
21
840.1667
31
0.0
0
LINE
8
SHEET3_SCALED
10
1191.3333
20
1065.8333
30
0.0
11
1188.5000
21
1057.8333
31
0.0
0
LINE
8
SHEET3_SCALED
10
1194.5000
20
884.0000
30
0.0
11
1186.3333
21
883.8333
31
0.0
0
LINE
8
SHEET3_SCALED
10
891.0000
20
1074.6667
30
0.0
11
899.1667
21
1074.6667
31
0.0
0
LINE
8
TRUE_LINEWORK
10
245.0000
20
1009.1667
30
0.0
11
1007.8482
21
1007.5208
31
0.0
0
TEXT
8
TRUE_LABELS
6
ROT_359.88
7
STANDARD
10
626.4289
20
1010.5437
30
0.0
40
4.5
1
N00%%d32'22"E
50
359.88
0
TEXT
8
TRUE_LABELS
6
ROT_359.88
7
STANDARD
10
626.4194
20
1006.1438
30
0.0
40
4.140000000000001
1
762.85'
50
359.88
0
LINE
8
TRUE_LINEWORK
10
382.8518
20
1009.8693
30
0.0
11
382.8475
21
1007.8693
31
0.0
0
LINE
8
TRUE_LINEWORK
10
437.8517
20
1009.7506
30
0.0
11
437.8474
21
1007.7506
31
0.0
0
LINE
8
TRUE_LINEWORK
10
497.8516
20
1009.6211
30
0.0
11
497.8473
21
1007.6211
31
0.0
0
LINE
8
TRUE_LINEWORK
10
552.8514
20
1009.5025
30
0.0
11
552.8471
21
1007.5025
31
0.0
0
LINE
8
TRUE_LINEWORK
10
607.8513
20
1009.3838
30
0.0
11
607.8470
21
1007.3838
31
0.0
0
LINE
8
TRUE_LINEWORK
10
667.8512
20
1009.2544
30
0.0
11
667.8469
21
1007.2544
31
0.0
0
LINE
8
TRUE_LINEWORK
10
722.8510
20
1009.1357
30
0.0
11
722.8467
21
1007.1357
31
0.0
0
LINE
8
TRUE_LINEWORK
10
777.8509
20
1009.0170
30
0.0
11
777.8466
21
1007.0170
31
0.0
0
LINE
8
TRUE_LINEWORK
10
837.8508
20
1008.8876
30
0.0
11
837.8465
21
1006.8876
31
0.0
0
LINE
8
TRUE_LINEWORK
10
892.8506
20
1008.7689
30
0.0
11
892.8463
21
1006.7689
31
0.0
0
LINE
8
TRUE_LINEWORK
10
947.8505
20
1008.6503
30
0.0
11
947.8462
21
1006.6503
31
0.0
0
TEXT
8
TRUE_LABELS
6
ROT_359.88
7
STANDARD
10
313.9227
20
1008.0180
30
0.0
40
2.6
1
137.85'
50
359.88
0
TEXT
8
TRUE_LABELS
6
ROT_359.88
7
STANDARD
10
410.3475
20
1007.8099
30
0.0
40
2.6
1
55.00'
50
359.88
0
TEXT
8
TRUE_LABELS
6
ROT_359.88
7
STANDARD
10
467.8473
20
1007.6859
30
0.0
40
2.6
1
60.00'
50
359.88
0
TEXT
8
TRUE_LABELS
6
ROT_359.88
7
STANDARD
10
525.3472
20
1007.5618
30
0.0
40
2.6
1
55.00'
50
359.88
0
TEXT
8
TRUE_LABELS
6
ROT_359.88
7
STANDARD
10
580.3471
20
1007.4432
30
0.0
40
2.6
1
55.00'
50
359.88
0
TEXT
8
TRUE_LABELS
6
ROT_359.88
7
STANDARD
10
637.8469
20
1007.3191
30
0.0
40
2.6
1
60.00'
50
359.88
0
TEXT
8
TRUE_LABELS
6
ROT_359.88
7
STANDARD
10
695.3468
20
1007.1950
30
0.0
40
2.6
1
55.00'
50
359.88
0
TEXT
8
TRUE_LABELS
6
ROT_359.88
7
STANDARD
10
750.3467
20
1007.0764
30
0.0
40
2.6
1
55.00'
50
359.88
0
TEXT
8
TRUE_LABELS
6
ROT_359.88
7
STANDARD
10
807.8465
20
1006.9523
30
0.0
40
2.6
1
60.00'
50
359.88
0
TEXT
8
TRUE_LABELS
6
ROT_359.88
7
STANDARD
10
865.3464
20
1006.8283
30
0.0
40
2.6
1
55.00'
50
359.88
0
TEXT
8
TRUE_LABELS
6
ROT_359.88
7
STANDARD
10
920.3463
20
1006.7096
30
0.0
40
2.6
1
55.00'
50
359.88
0
TEXT
8
TRUE_LABELS
6
ROT_359.88
7
STANDARD
10
977.8461
20
1006.5856
30
0.0
40
2.6
1
60.00'
50
359.88
0
LINE
8
TRUE_LINEWORK
10
245.0000
20
1009.1667
30
0.0
11
245.2583
21
1128.8864
31
0.0
0
TEXT
8
TRUE_LABELS
6
ROT_89.88
7
STANDARD
10
246.4291
20
1069.0237
30
0.0
40
3.0
1
N89%%d27'38"W
50
89.88
0
TEXT
8
TRUE_LABELS
6
ROT_89.88
7
STANDARD
10
243.8292
20
1069.0293
30
0.0
40
2.7600000000000002
1
119.72'
50
89.88
0
LINE
8
TRUE_LINEWORK
10
243.5000
20
1009.1699
30
0.0
11
246.5000
21
1009.1634
31
0.0
0
LINE
8
TRUE_LINEWORK
10
243.7583
20
1128.8896
30
0.0
11
246.7583
21
1128.8832
31
0.0
0
TEXT
8
TRUE_LABELS
7
STANDARD
10
283.2360
20
1046.5741
30
0.0
40
6.0
1
137
50
0.0
0
LINE
8
TRUE_LINEWORK
10
382.8497
20
1008.8693
30
0.0
11
383.1086
21
1128.8690
31
0.0
0
TEXT
8
TRUE_LABELS
6
ROT_89.88
7
STANDARD
10
384.2791
20
1068.8663
30
0.0
40
3.0
1
N89%%d27'38"W
50
89.88
0
TEXT
8
TRUE_LABELS
6
ROT_89.88
7
STANDARD
10
381.6791
20
1068.8719
30
0.0
40
2.7600000000000002
1
120.00'
50
89.88
0
LINE
8
TRUE_LINEWORK
10
381.3497
20
1008.8725
30
0.0
11
384.3497
21
1008.8660
31
0.0
0
LINE
8
TRUE_LINEWORK
10
381.6086
20
1128.8722
30
0.0
11
384.6086
21
1128.8657
31
0.0
0
TEXT
8
TRUE_LABELS
7
STANDARD
10
393.4693
20
1046.4296
30
0.0
40
6.0
1
136
50
0.0
0
LINE
8
TRUE_LINEWORK
10
437.8496
20
1008.7506
30
0.0
11
438.1036
21
1126.5003
31
0.0
0
TEXT
8
TRUE_LABELS
6
ROT_89.88
7
STANDARD
10
439.2766
20
1067.6227
30
0.0
40
3.0
1
N89%%d27'38"W
50
89.88
0
TEXT
8
TRUE_LABELS
6
ROT_89.88
7
STANDARD
10
436.6766
20
1067.6283
30
0.0
40
2.7600000000000002
1
117.75'
50
89.88
0
LINE
8
TRUE_LINEWORK
10
436.3496
20
1008.7538
30
0.0
11
439.3495
21
1008.7474
31
0.0
0
LINE
8
TRUE_LINEWORK
10
436.6036
20
1126.5036
30
0.0
11
439.6036
21
1126.4971
31
0.0
0
TEXT
8
TRUE_LABELS
7
STANDARD
10
450.1342
20
1045.5574
30
0.0
40
6.0
1
135
50
0.0
0
LINE
8
TRUE_LINEWORK
10
497.8494
20
1008.6211
30
0.0
11
498.0798
21
1115.4109
31
0.0
0
TEXT
8
TRUE_LABELS
6
ROT_89.88
7
STANDARD
10
499.2646
20
1062.0132
30
0.0
40
3.0
1
N89%%d27'38"W
50
89.88
0
TEXT
8
TRUE_LABELS
6
ROT_89.88
7
STANDARD
10
496.6646
20
1062.0188
30
0.0
40
2.7600000000000002
1
106.79'
50
89.88
0
LINE
8
TRUE_LINEWORK
10
496.3494
20
1008.6244
30
0.0
11
499.3494
21
1008.6179
31
0.0
0
LINE
8
TRUE_LINEWORK
10
496.5798
20
1115.4141
30
0.0
11
499.5798
21
1115.4077
31
0.0
0
TEXT
8
TRUE_LABELS
7
STANDARD
10
508.4595
20
1041.7782
30
0.0
40
6.0
1
134
50
0.0
0
LINE
8
TRUE_LINEWORK
10
552.8493
20
1008.5025
30
0.0
11
553.0651
21
1108.5422
31
0.0
0
TEXT
8
TRUE_LABELS
6
ROT_89.88
7
STANDARD
10
554.2572
20
1058.5196
30
0.0
40
3.0
1
N89%%d27'38"W
50
89.88
0
TEXT
8
TRUE_LABELS
6
ROT_89.88
7
STANDARD
10
551.6572
20
1058.5252
30
0.0
40
2.7600000000000002
1
100.04'
50
89.88
0
LINE
8
TRUE_LINEWORK
10
551.3493
20
1008.5057
30
0.0
11
554.3493
21
1008.4992
31
0.0
0
LINE
8
TRUE_LINEWORK
10
551.5651
20
1108.5455
30
0.0
11
554.5651
21
1108.5390
31
0.0
0
TEXT
8
TRUE_LABELS
7
STANDARD
10
563.4545
20
1039.4095
30
0.0
40
6.0
1
133
50
0.0
0
LINE
8
TRUE_LINEWORK
10
607.8492
20
1008.3838
30
0.0
11
608.0599
21
1106.0436
31
0.0
0
TEXT
8
TRUE_LABELS
6
ROT_89.88
7
STANDARD
10
609.2545
20
1057.2109
30
0.0
40
3.0
1
N89%%d27'38"W
50
89.88
0
TEXT
8
TRUE_LABELS
6
ROT_89.88
7
STANDARD
10
606.6545
20
1057.2165
30
0.0
40
2.7600000000000002
1
97.66'
50
89.88
0
LINE
8
TRUE_LINEWORK
10
606.3492
20
1008.3871
30
0.0
11
609.3492
21
1008.3806
31
0.0
0
LINE
8
TRUE_LINEWORK
10
606.5599
20
1106.0468
30
0.0
11
609.5599
21
1106.0404
31
0.0
0
TEXT
8
TRUE_LABELS
7
STANDARD
10
620.1193
20
1038.4939
30
0.0
40
6.0
1
132
50
0.0
0
LINE
8
TRUE_LINEWORK
10
667.8490
20
1008.2544
30
0.0
11
668.0646
21
1108.1641
31
0.0
0
TEXT
8
TRUE_LABELS
6
ROT_89.88
7
STANDARD
10
669.2568
20
1058.2065
30
0.0
40
3.0
1
N89%%d27'38"W
50
89.88
0
TEXT
8
TRUE_LABELS
6
ROT_89.88
7
STANDARD
10
666.6568
20
1058.2121
30
0.0
40
2.7600000000000002
1
99.91'
50
89.88
0
LINE
8
TRUE_LINEWORK
10
666.3490
20
1008.2576
30
0.0
11
669.3490
21
1008.2511
31
0.0
0
LINE
8
TRUE_LINEWORK
10
666.5646
20
1108.1674
30
0.0
11
669.5646
21
1108.1609
31
0.0
0
TEXT
8
TRUE_LABELS
7
STANDARD
10
678.4542
20
1039.1181
30
0.0
40
6.0
1
131
50
0.0
0
LINE
8
TRUE_LINEWORK
10
722.8489
20
1008.1357
30
0.0
11
723.0723
21
1111.6655
31
0.0
0
TEXT
8
TRUE_LABELS
6
ROT_89.88
7
STANDARD
10
724.2606
20
1059.8978
30
0.0
40
3.0
1
N89%%d27'38"W
50
89.88
0
TEXT
8
TRUE_LABELS
6
ROT_89.88
7
STANDARD
10
721.6606
20
1059.9034
30
0.0
40
2.7600000000000002
1
103.53'
50
89.88
0
LINE
8
TRUE_LINEWORK
10
721.3489
20
1008.1389
30
0.0
11
724.3489
21
1008.1325
31
0.0
0
LINE
8
TRUE_LINEWORK
10
721.5723
20
1111.6687
30
0.0
11
724.5722
21
1111.6622
31
0.0
0
TEXT
8
TRUE_LABELS
7
STANDARD
10
733.4566
20
1040.2061
30
0.0
40
6.0
1
130
50
0.0
0
LINE
8
TRUE_LINEWORK
10
777.8488
20
1008.0170
30
0.0
11
778.0806
21
1115.4868
31
0.0
0
TEXT
8
TRUE_LABELS
6
ROT_89.88
7
STANDARD
10
779.2647
20
1061.7491
30
0.0
40
3.0
1
N89%%d27'38"W
50
89.88
0
TEXT
8
TRUE_LABELS
6
ROT_89.88
7
STANDARD
10
776.6647
20
1061.7547
30
0.0
40
2.7600000000000002
1
107.47'
50
89.88
0
LINE
8
TRUE_LINEWORK
10
776.3488
20
1008.0203
30
0.0
11
779.3488
21
1008.0138
31
0.0
0
LINE
8
TRUE_LINEWORK
10
776.5806
20
1115.4900
30
0.0
11
779.5806
21
1115.4836
31
0.0
0
TEXT
8
TRUE_LABELS
7
STANDARD
10
790.1260
20
1041.3971
30
0.0
40
6.0
1
129
50
0.0
0
LINE
8
TRUE_LINEWORK
10
837.8486
20
1007.8876
30
0.0
11
838.0883
21
1118.9673
31
0.0
0
TEXT
8
TRUE_LABELS
6
ROT_89.88
7
STANDARD
10
839.2684
20
1063.4247
30
0.0
40
3.0
1
N89%%d27'38"W
50
89.88
0
TEXT
8
TRUE_LABELS
6
ROT_89.88
7
STANDARD
10
836.6685
20
1063.4303
30
0.0
40
2.7600000000000002
1
111.08'
50
89.88
0
LINE
8
TRUE_LINEWORK
10
836.3486
20
1007.8908
30
0.0
11
839.3486
21
1007.8844
31
0.0
0
LINE
8
TRUE_LINEWORK
10
836.5883
20
1118.9706
30
0.0
11
839.5883
21
1118.9641
31
0.0
0
TEXT
8
TRUE_LABELS
7
STANDARD
10
848.4618
20
1042.4746
30
0.0
40
6.0
1
128
50
0.0
0
LINE
8
TRUE_LINEWORK
10
892.8485
20
1007.7689
30
0.0
11
893.0960
21
1122.4687
31
0.0
0
TEXT
8
TRUE_LABELS
6
ROT_89.88
7
STANDARD
10
894.2722
20
1065.1160
30
0.0
40
3.0
1
N89%%d27'38"W
50
89.88
0
TEXT
8
TRUE_LABELS
6
ROT_89.88
7
STANDARD
10
891.6722
20
1065.1216
30
0.0
40
2.7600000000000002
1
114.70'
50
89.88
0
LINE
8
TRUE_LINEWORK
10
891.3485
20
1007.7722
30
0.0
11
894.3485
21
1007.7657
31
0.0
0
LINE
8
TRUE_LINEWORK
10
891.5960
20
1122.4719
30
0.0
11
894.5960
21
1122.4654
31
0.0
0
TEXT
8
TRUE_LABELS
7
STANDARD
10
903.4643
20
1043.5626
30
0.0
40
6.0
1
127
50
0.0
0
LINE
8
TRUE_LINEWORK
10
947.8484
20
1007.6503
30
0.0
11
948.1043
21
1126.2900
31
0.0
0
TEXT
8
TRUE_LABELS
6
ROT_89.88
7
STANDARD
10
949.2763
20
1066.9673
30
0.0
40
3.0
1
N89%%d27'38"W
50
89.88
0
TEXT
8
TRUE_LABELS
6
ROT_89.88
7
STANDARD
10
946.6763
20
1066.9729
30
0.0
40
2.7600000000000002
1
118.64'
50
89.88
0
LINE
8
TRUE_LINEWORK
10
946.3484
20
1007.6535
30
0.0
11
949.3484
21
1007.6470
31
0.0
0
LINE
8
TRUE_LINEWORK
10
946.6043
20
1126.2932
30
0.0
11
949.6043
21
1126.2868
31
0.0
0
TEXT
8
TRUE_LABELS
7
STANDARD
10
960.1336
20
1044.7537
30
0.0
40
6.0
1
126
50
0.0
0
POINT
8
LOT_NUMBERS
10
490.6190
20
281.1066
30
0.0
0
POINT
8
LOT_NUMBERS
10
883.8614
20
294.1385
30
0.0
0
POINT
8
LOT_NUMBERS
10
689.4668
20
308.1151
30
0.0
0
POINT
8
LOT_NUMBERS
10
970.8347
20
317.1769
30
0.0
0
POINT
8
LOT_NUMBERS
10
863.5877
20
343.6910
30
0.0
0
POINT
8
LOT_NUMBERS
10
1056.1225
20
308.6456
30
0.0
0
POINT
8
LOT_NUMBERS
10
486.3791
20
339.2076
30
0.0
0
POINT
8
LOT_NUMBERS
10
1128.2353
20
328.4058
30
0.0
0
POINT
8
LOT_NUMBERS
10
720.2588
20
361.0095
30
0.0
0
POINT
8
LOT_NUMBERS
10
867.8291
20
400.1305
30
0.0
0
POINT
8
LOT_NUMBERS
10
1024.6038
20
398.9170
30
0.0
0
POINT
8
LOT_NUMBERS
10
724.0663
20
423.3448
30
0.0
0
POINT
8
LOT_NUMBERS
10
503.6559
20
450.0471
30
0.0
0
POINT
8
LOT_NUMBERS
10
1025.3775
20
467.1379
30
0.0
0
POINT
8
LOT_NUMBERS
10
770.4639
20
482.8836
30
0.0
0
POINT
8
LOT_NUMBERS
10
512.7656
20
506.8192
30
0.0
0
POINT
8
LOT_NUMBERS
10
1029.9831
20
532.0224
30
0.0
0
POINT
8
LOT_NUMBERS
10
777.2856
20
539.1576
30
0.0
0
POINT
8
LOT_NUMBERS
10
525.2233
20
560.4263
30
0.0
0
POINT
8
LOT_NUMBERS
10
1030.0135
20
590.5163
30
0.0
0
POINT
8
LOT_NUMBERS
10
780.0829
20
597.1640
30
0.0
0
POINT
8
LOT_NUMBERS
10
539.4549
20
616.7999
30
0.0
0
POINT
8
LOT_NUMBERS
10
1023.0438
20
655.1760
30
0.0
0
POINT
8
LOT_NUMBERS
10
549.8130
20
673.2914
30
0.0
0
POINT
8
LOT_NUMBERS
10
782.7042
20
662.3131
30
0.0
0
POINT
8
LOT_NUMBERS
10
1017.6072
20
715.3792
30
0.0
0
POINT
8
LOT_NUMBERS
10
560.3888
20
731.5369
30
0.0
0
POINT
8
LOT_NUMBERS
10
767.6187
20
726.2935
30
0.0
0
POINT
8
LOT_NUMBERS
10
941.8911
20
747.1670
30
0.0
0
POINT
8
LOT_NUMBERS
10
843.9201
20
747.6239
30
0.0
0
POINT
8
LOT_NUMBERS
10
1046.2634
20
796.0954
30
0.0
0
POINT
8
LOT_NUMBERS
10
938.7020
20
810.1794
30
0.0
0
POINT
8
LOT_NUMBERS
10
843.6795
20
813.8648
30
0.0
0
POINT
8
LOT_NUMBERS
10
560.0516
20
806.1802
30
0.0
0
POINT
8
LOT_NUMBERS
10
737.6657
20
811.1054
30
0.0
0
POINT
8
LOT_NUMBERS
10
980.1578
20
949.2812
30
0.0
0
POINT
8
LOT_NUMBERS
10
922.6242
20
951.3110
30
0.0
0
POINT
8
LOT_NUMBERS
10
867.6125
20
953.2883
30
0.0
0
POINT
8
LOT_NUMBERS
10
639.6732
20
958.8157
30
0.0
0
POINT
8
LOT_NUMBERS
10
810.1078
20
955.3474
30
0.0
0
POINT
8
LOT_NUMBERS
10
581.9467
20
956.5674
30
0.0
0
POINT
8
LOT_NUMBERS
10
752.5726
20
957.4381
30
0.0
0
POINT
8
LOT_NUMBERS
10
697.4745
20
959.1205
30
0.0
0
POINT
8
LOT_NUMBERS
10
526.8125
20
952.2697
30
0.0
0
POINT
8
LOT_NUMBERS
10
469.7619
20
948.7080
30
0.0
0
POINT
8
LOT_NUMBERS
10
412.3592
20
948.6659
30
0.0
0
POINT
8
LOT_NUMBERS
10
329.0578
20
959.6392
30
0.0
0
POINT
8
LOT_NUMBERS
10
1037.8428
20
949.9319
30
0.0
0
POINT
8
LOT_NUMBERS
10
1092.1588
20
964.1147
30
0.0
0
POINT
8
LOT_NUMBERS
10
1099.8780
20
1050.8212
30
0.0
0
TEXT
8
TITLEBLOCK
7
STANDARD
10
165.0000
20
1269.1667
30
0.0
40
8
1
ATLANTIC BEACH CC UNIT 2, SHEET 3 -- ITERATION 2
50
0.0
0
TEXT
8
TITLEBLOCK
7
STANDARD
10
165.0000
20
1253.1667
30
0.0
40
6
1

50
0.0
0
TEXT
8
TITLEBLOCK
7
STANDARD
10
165.0000
20
1237.1667
30
0.0
40
6
1
GRAY  = scaled linework, ~1 ft accuracy (Iter 16)
50
0.0
0
TEXT
8
TITLEBLOCK
7
STANDARD
10
165.0000
20
1221.1667
30
0.0
40
6
1
RED   = TRUE traverse, EXACT closure, professional bearing/distance
50
0.0
0
TEXT
8
TITLEBLOCK
7
STANDARD
10
165.0000
20
1205.1667
30
0.0
40
6
1
labels (lots 137-126): sum of 12 widths + 10.00' remainder =
50
0.0
0
TEXT
8
TITLEBLOCK
7
STANDARD
10
165.0000
20
1189.1667
30
0.0
40
6
1
772.85' EXACT vs stated; side/front bearings exactly
50
0.0
0
TEXT
8
TITLEBLOCK
7
STANDARD
10
165.0000
20
1173.1667
30
0.0
40
6
1
perpendicular (90.000000 deg).
50
0.0
0
TEXT
8
TITLEBLOCK
7
STANDARD
10
165.0000
20
1157.1667
30
0.0
40
6
1
CYAN DOTS = every lot polygon auto-detected from the scaled linework
50
0.0
0
TEXT
8
TITLEBLOCK
7
STANDARD
10
165.0000
20
1141.1667
30
0.0
40
6
1
via enclosed-region detection (50 found on this sheet);
50
0.0
0
TEXT
8
TITLEBLOCK
7
STANDARD
10
165.0000
20
1125.1667
30
0.0
40
6
1
numbers confirmed only where they match the RED transcription.
50
0.0
0
TEXT
8
TITLEBLOCK
7
STANDARD
10
165.0000
20
1109.1667
30
0.0
40
6
1

50
0.0
0
TEXT
8
TITLEBLOCK
7
STANDARD
10
165.0000
20
1093.1667
30
0.0
40
6
1
ROAD NAMES/WIDTHS -- confirmed by direct read, recorded but NOT drawn
50
0.0
0
TEXT
8
TITLEBLOCK
7
STANDARD
10
165.0000
20
1077.1667
30
0.0
40
6
1
on the map (no verified geometric registration for these yet):
50
0.0
0
TEXT
8
TITLEBLOCK
7
STANDARD
10
165.0000
20
1061.1667
30
0.0
40
6
1
MARITIME OAK DRIVE (50' R/W)   centerline N04 17'54"E 307.87'
50
0.0
0
TEXT
8
TITLEBLOCK
7
STANDARD
10
165.0000
20
1045.1667
30
0.0
40
6
1
TIMBER BRIDGE LANE (50' R/W)   centerline N80 24'17"W 362.66'
50
0.0
0
TEXT
8
TITLEBLOCK
7
STANDARD
10
165.0000
20
1029.1667
30
0.0
40
6
1
ATLANTIC BEACH DRIVE (50' R/W, on sheet 6)
50
0.0
0
TEXT
8
TITLEBLOCK
7
STANDARD
10
165.0000
20
1013.1667
30
0.0
40
6
1

50
0.0
0
TEXT
8
TITLEBLOCK
7
STANDARD
10
165.0000
20
997.1667
30
0.0
40
6
1
DELIBERATELY NOT DRAWN THIS ITERATION -- would require guessed
50
0.0
0
TEXT
8
TITLEBLOCK
7
STANDARD
10
165.0000
20
981.1667
30
0.0
40
6
1
geometry rather than transcription:
50
0.0
0
TEXT
8
TITLEBLOCK
7
STANDARD
10
165.0000
20
965.1667
30
0.0
40
6
1
Lots 138,139,142,143: front width + ONE side read, no closure check
50
0.0
0
TEXT
8
TITLEBLOCK
7
STANDARD
10
165.0000
20
949.1667
30
0.0
40
6
1
possible without the rear boundary (not yet transcribed).
50
0.0
0
TEXT
8
TITLEBLOCK
7
STANDARD
10
165.0000
20
933.1667
30
0.0
40
6
1
Lots 169-172, 162-165: side lengths read, but the frontage split
50
0.0
0
TEXT
8
TITLEBLOCK
7
STANDARD
10
165.0000
20
917.1667
30
0.0
40
6
1
along Timber Bridge Lane's 362.66' run was not transcribed with
50
0.0
0
TEXT
8
TITLEBLOCK
7
STANDARD
10
165.0000
20
901.1667
30
0.0
40
6
1
confidence -- placing these lots would require an assumed
50
0.0
0
TEXT
8
TITLEBLOCK
7
STANDARD
10
165.0000
20
885.1667
30
0.0
40
6
1
station spacing, which is fabrication, not transcription.
50
0.0
0
TEXT
8
TITLEBLOCK
7
STANDARD
10
165.0000
20
869.1667
30
0.0
40
6
1
Next iteration: re-read those two areas at higher magnification
50
0.0
0
TEXT
8
TITLEBLOCK
7
STANDARD
10
165.0000
20
853.1667
30
0.0
40
6
1
specifically for the missing dimension, then apply the same
50
0.0
0
TEXT
8
TITLEBLOCK
7
STANDARD
10
165.0000
20
837.1667
30
0.0
40
6
1
closure-before-drawing discipline used for Block A.
50
0.0
0
ENDSEC
0
EOF
