0
SECTION
2
HEADER
9
$ACADVER
1
AC1009
9
$DWGCODEPAGE
3
ANSI_1252
0
ENDSEC
0
SECTION
2
TABLES
0
TABLE
2
LTYPE
70
6
0
LTYPE
2
CONTINUOUS
70
0
3
Solid
72
65
73
0
40
0.0
0
LTYPE
2
DASHED
70
0
3
Dashed
72
65
73
2
40
0.75
49
0.5
74
0
49
-0.25
74
0
0
LTYPE
2
DASHED2
70
0
3
Dashed (.5x)
72
65
73
2
40
0.375
49
0.25
74
0
49
-0.125
74
0
0
LTYPE
2
HIDDEN
70
0
3
Hidden
72
65
73
2
40
0.375
49
0.25
74
0
49
-0.125
74
0
0
LTYPE
2
CENTER
70
0
3
Center
72
65
73
4
40
2.0
49
1.25
74
0
49
-0.25
74
0
49
0.25
74
0
49
-0.25
74
0
0
LTYPE
2
PHANTOM
70
0
3
Phantom
72
65
73
6
40
2.5
49
1.25
74
0
49
-0.25
74
0
49
0.25
74
0
49
-0.25
74
0
49
0.25
74
0
49
-0.25
74
0
0
ENDTAB
0
TABLE
2
LAYER
70
7
0
LAYER
2
0
70
0
62
7
6
CONTINUOUS
0
LAYER
2
LOT_LINE
70
0
62
4
6
CONTINUOUS
0
LAYER
2
BOUNDARY
70
0
62
7
6
CONTINUOUS
0
LAYER
2
TEXT-LABELS
70
0
62
7
6
CONTINUOUS
0
LAYER
2
DIM-LABELS
70
0
62
3
6
CONTINUOUS
0
LAYER
2
FLAGGED
70
0
62
1
6
DASHED
0
LAYER
2
FLAGGED-TEXT
70
0
62
1
6
CONTINUOUS
0
ENDTAB
0
TABLE
2
STYLE
70
4
0
STYLE
2
STANDARD
70
0
40
0.0
41
1.0
50
0.0
71
0
42
0.2
3
Arial
4

0
STYLE
2
ARIAL
70
0
40
0.0
41
1.0
50
0.0
71
0
42
0.2
3
Arial
4

0
STYLE
2
ARIAL_TTF
70
0
40
0.0
41
1.0
50
0.0
71
0
42
0.2
3
arial.ttf
4

0
STYLE
2
SIMPLEX
70
0
40
0.0
41
1.0
50
0.0
71
0
42
0.2
3
simplex.shx
4

0
ENDTAB
0
ENDSEC
0
SECTION
2
ENTITIES
0
POLYLINE
8
LOT_LINE
66
1
70
1
0
VERTEX
8
LOT_LINE
10
900.0161
20
1001.7937
30
0.0
0
VERTEX
8
LOT_LINE
10
1000.0000
20
1000.0000
30
0.0
0
VERTEX
8
LOT_LINE
10
1001.1879
20
1098.0028
30
0.0
0
VERTEX
8
LOT_LINE
10
901.1969
20
1099.2166
30
0.0
0
SEQEND
0
TEXT
8
TEXT-LABELS
7
STANDARD
10
950.6002
20
1049.7533
30
0.0
40
3.0
1
BLK10 LOT 13
50
0.0
0
POLYLINE
8
LOT_LINE
66
1
70
1
0
VERTEX
8
LOT_LINE
10
901.1969
20
1099.2166
30
0.0
0
VERTEX
8
LOT_LINE
10
1001.1879
20
1098.0028
30
0.0
0
VERTEX
8
LOT_LINE
10
1002.0969
20
1172.9973
30
0.0
0
VERTEX
8
LOT_LINE
10
902.1059
20
1174.2110
30
0.0
0
SEQEND
0
TEXT
8
TEXT-LABELS
7
STANDARD
10
951.6469
20
1136.1069
30
0.0
40
3.0
1
BLK10 LOT 12
50
0.0
0
POLYLINE
8
LOT_LINE
66
1
70
1
0
VERTEX
8
LOT_LINE
10
902.1059
20
1174.2110
30
0.0
0
VERTEX
8
LOT_LINE
10
1002.0969
20
1172.9973
30
0.0
0
VERTEX
8
LOT_LINE
10
1003.0059
20
1247.9918
30
0.0
0
VERTEX
8
LOT_LINE
10
903.0150
20
1249.2055
30
0.0
0
SEQEND
0
TEXT
8
TEXT-LABELS
7
STANDARD
10
952.5559
20
1211.1014
30
0.0
40
3.0
1
BLK10 LOT 11
50
0.0
0
POLYLINE
8
LOT_LINE
66
1
70
1
0
VERTEX
8
LOT_LINE
10
903.0150
20
1249.2055
30
0.0
0
VERTEX
8
LOT_LINE
10
1003.0059
20
1247.9918
30
0.0
0
VERTEX
8
LOT_LINE
10
1003.9149
20
1322.9863
30
0.0
0
VERTEX
8
LOT_LINE
10
903.9240
20
1324.2000
30
0.0
0
SEQEND
0
TEXT
8
TEXT-LABELS
7
STANDARD
10
953.4649
20
1286.0959
30
0.0
40
3.0
1
BLK10 LOT 10
50
0.0
0
POLYLINE
8
LOT_LINE
66
1
70
1
0
VERTEX
8
LOT_LINE
10
903.9240
20
1324.2000
30
0.0
0
VERTEX
8
LOT_LINE
10
1003.9149
20
1322.9863
30
0.0
0
VERTEX
8
LOT_LINE
10
1004.8239
20
1397.9808
30
0.0
0
VERTEX
8
LOT_LINE
10
904.8330
20
1399.1945
30
0.0
0
SEQEND
0
TEXT
8
TEXT-LABELS
7
STANDARD
10
954.3739
20
1361.0904
30
0.0
40
3.0
1
BLK10 LOT 9
50
0.0
0
POLYLINE
8
LOT_LINE
66
1
70
1
0
VERTEX
8
LOT_LINE
10
1159.9839
20
998.2063
30
0.0
0
VERTEX
8
LOT_LINE
10
1259.9678
20
996.4126
30
0.0
0
VERTEX
8
LOT_LINE
10
1261.1050
20
1090.2357
30
0.0
0
VERTEX
8
LOT_LINE
10
1161.1141
20
1091.4494
30
0.0
0
SEQEND
0
TEXT
8
TEXT-LABELS
7
STANDARD
10
1210.5427
20
1044.0760
30
0.0
40
3.0
1
BLK11 LOT 15
50
0.0
0
POLYLINE
8
LOT_LINE
66
1
70
1
0
VERTEX
8
LOT_LINE
10
1161.1141
20
1091.4494
30
0.0
0
VERTEX
8
LOT_LINE
10
1261.1050
20
1090.2357
30
0.0
0
VERTEX
8
LOT_LINE
10
1262.0141
20
1165.2302
30
0.0
0
VERTEX
8
LOT_LINE
10
1162.0231
20
1166.4439
30
0.0
0
SEQEND
0
TEXT
8
TEXT-LABELS
7
STANDARD
10
1211.5641
20
1128.3398
30
0.0
40
3.0
1
BLK11 LOT 16
50
0.0
0
POLYLINE
8
LOT_LINE
66
1
70
1
0
VERTEX
8
LOT_LINE
10
1162.0231
20
1166.4439
30
0.0
0
VERTEX
8
LOT_LINE
10
1262.0141
20
1165.2302
30
0.0
0
VERTEX
8
LOT_LINE
10
1262.9231
20
1240.2247
30
0.0
0
VERTEX
8
LOT_LINE
10
1162.9321
20
1241.4384
30
0.0
0
SEQEND
0
TEXT
8
TEXT-LABELS
7
STANDARD
10
1212.4731
20
1203.3343
30
0.0
40
3.0
1
BLK11 LOT 17
50
0.0
0
POLYLINE
8
LOT_LINE
66
1
70
1
0
VERTEX
8
LOT_LINE
10
1060.0000
20
1000.0000
30
0.0
0
VERTEX
8
LOT_LINE
10
1159.9839
20
998.2063
30
0.0
0
VERTEX
8
LOT_LINE
10
1161.1141
20
1091.4494
30
0.0
0
VERTEX
8
LOT_LINE
10
1061.1232
20
1092.6632
30
0.0
0
SEQEND
0
TEXT
8
TEXT-LABELS
7
STANDARD
10
1110.5553
20
1045.5797
30
0.0
40
3.0
1
BLK11 LOT 14
50
0.0
0
POLYLINE
8
LOT_LINE
66
1
70
1
0
VERTEX
8
LOT_LINE
10
1061.1232
20
1092.6632
30
0.0
0
VERTEX
8
LOT_LINE
10
1161.1141
20
1091.4494
30
0.0
0
VERTEX
8
LOT_LINE
10
1162.0231
20
1166.4439
30
0.0
0
VERTEX
8
LOT_LINE
10
1062.0322
20
1167.6577
30
0.0
0
SEQEND
0
TEXT
8
TEXT-LABELS
7
STANDARD
10
1111.5731
20
1129.5536
30
0.0
40
3.0
1
BLK11 LOT 13
50
0.0
0
POLYLINE
8
LOT_LINE
66
1
70
1
0
VERTEX
8
LOT_LINE
10
1062.0322
20
1167.6577
30
0.0
0
VERTEX
8
LOT_LINE
10
1162.0231
20
1166.4439
30
0.0
0
VERTEX
8
LOT_LINE
10
1162.9321
20
1241.4384
30
0.0
0
VERTEX
8
LOT_LINE
10
1062.9412
20
1242.6522
30
0.0
0
SEQEND
0
TEXT
8
TEXT-LABELS
7
STANDARD
10
1112.4821
20
1204.5481
30
0.0
40
3.0
1
BLK11 LOT 12
50
0.0
0
POLYLINE
8
LOT_LINE
66
1
70
1
0
VERTEX
8
LOT_LINE
10
1481.2119
20
993.5198
30
0.0
0
VERTEX
8
LOT_LINE
10
1556.1998
20
992.1746
30
0.0
0
VERTEX
8
LOT_LINE
10
1557.9935
20
1092.1585
30
0.0
0
VERTEX
8
LOT_LINE
10
1483.0056
20
1093.5038
30
0.0
0
SEQEND
0
TEXT
8
TEXT-LABELS
7
STANDARD
10
1519.6027
20
1042.8392
30
0.0
40
3.0
1
BLK12 LOT 7
50
0.0
0
POLYLINE
8
LOT_LINE
66
1
70
1
0
VERTEX
8
LOT_LINE
10
1409.9533
20
994.7982
30
0.0
0
VERTEX
8
LOT_LINE
10
1481.2119
20
993.5198
30
0.0
0
VERTEX
8
LOT_LINE
10
1483.3643
20
1113.5005
30
0.0
0
VERTEX
8
LOT_LINE
10
1469.1318
20
1135.0476
30
0.0
0
VERTEX
8
LOT_LINE
10
1412.1151
20
1115.2988
30
0.0
0
SEQEND
0
TEXT
8
TEXT-LABELS
7
STANDARD
10
1451.1553
20
1070.4330
30
0.0
40
3.0
1
BLK12 LOT 6
50
0.0
0
POLYLINE
8
LOT_LINE
66
1
70
1
0
VERTEX
8
LOT_LINE
10
1344.8188
20
995.9667
30
0.0
0
VERTEX
8
LOT_LINE
10
1409.9533
20
994.7982
30
0.0
0
VERTEX
8
LOT_LINE
10
1412.1151
20
1115.2988
30
0.0
0
VERTEX
8
LOT_LINE
10
1321.4222
20
1116.4038
30
0.0
0
VERTEX
8
LOT_LINE
10
1320.2691
20
1021.2657
30
0.0
0
SEQEND
0
TEXT
8
TEXT-LABELS
7
STANDARD
10
1361.7157
20
1048.7467
30
0.0
40
3.0
1
BLK12 LOT 5
50
0.0
0
POLYLINE
8
LOT_LINE
66
1
70
1
0
VERTEX
8
LOT_LINE
10
1321.4222
20
1116.4038
30
0.0
0
VERTEX
8
LOT_LINE
10
1412.1151
20
1115.2988
30
0.0
0
VERTEX
8
LOT_LINE
10
1469.1318
20
1135.0476
30
0.0
0
VERTEX
8
LOT_LINE
10
1427.7873
20
1197.6749
30
0.0
0
VERTEX
8
LOT_LINE
10
1424.7564
20
1209.3582
30
0.0
0
VERTEX
8
LOT_LINE
10
1322.5639
20
1210.5968
30
0.0
0
SEQEND
0
TEXT
8
TEXT-LABELS
7
STANDARD
10
1396.2961
20
1164.0633
30
0.0
40
3.0
1
BLK12 LOT 4
50
0.0
0
ENDSEC
0
EOF
