0
SECTION
2
HEADER
9
$ACADVER
1
AC1009
9
$DWGCODEPAGE
3
ANSI_1252
0
ENDSEC
0
SECTION
2
TABLES
0
TABLE
2
LTYPE
70
6
0
LTYPE
2
CONTINUOUS
70
0
3
Solid
72
65
73
0
40
0.0
0
LTYPE
2
DASHED
70
0
3
Dashed
72
65
73
2
40
0.75
49
0.5
74
0
49
-0.25
74
0
0
LTYPE
2
DASHED2
70
0
3
Dashed (.5x)
72
65
73
2
40
0.375
49
0.25
74
0
49
-0.125
74
0
0
LTYPE
2
HIDDEN
70
0
3
Hidden
72
65
73
2
40
0.375
49
0.25
74
0
49
-0.125
74
0
0
LTYPE
2
CENTER
70
0
3
Center
72
65
73
4
40
2.0
49
1.25
74
0
49
-0.25
74
0
49
0.25
74
0
49
-0.25
74
0
0
LTYPE
2
PHANTOM
70
0
3
Phantom
72
65
73
6
40
2.5
49
1.25
74
0
49
-0.25
74
0
49
0.25
74
0
49
-0.25
74
0
49
0.25
74
0
49
-0.25
74
0
0
ENDTAB
0
TABLE
2
LAYER
70
10
0
LAYER
2
0
70
0
62
7
6
CONTINUOUS
0
LAYER
2
BOUNDARY
70
0
62
7
6
CONTINUOUS
0
LAYER
2
LOT_LINE
70
0
62
4
6
CONTINUOUS
0
LAYER
2
ROW_STREET
70
0
62
2
6
DASHED
0
LAYER
2
EASEMENT
70
0
62
3
6
DASHED
0
LAYER
2
CURVE
70
0
62
6
6
CONTINUOUS
0
LAYER
2
TEXT-LABELS
70
0
62
7
6
CONTINUOUS
0
LAYER
2
DIM-LABELS
70
0
62
3
6
CONTINUOUS
0
LAYER
2
TITLEBLOCK
70
0
62
2
6
CONTINUOUS
0
LAYER
2
CONTROL
70
0
62
1
6
CONTINUOUS
0
ENDTAB
0
TABLE
2
STYLE
70
4
0
STYLE
2
STANDARD
70
0
40
0.0
41
1.0
50
0.0
71
0
42
0.2
3
Arial
4

0
STYLE
2
ARIAL
70
0
40
0.0
41
1.0
50
0.0
71
0
42
0.2
3
Arial
4

0
STYLE
2
ARIAL_TTF
70
0
40
0.0
41
1.0
50
0.0
71
0
42
0.2
3
arial.ttf
4

0
STYLE
2
SIMPLEX
70
0
40
0.0
41
1.0
50
0.0
71
0
42
0.2
3
simplex.shx
4

0
ENDTAB
0
ENDSEC
0
SECTION
2
ENTITIES
0
POLYLINE
8
LOT_LINE
66
1
70
1
0
VERTEX
8
LOT_LINE
10
52.0569
20
-47.8548
30
0.0
0
VERTEX
8
LOT_LINE
10
155.4655
20
-43.5056
30
0.0
0
VERTEX
8
LOT_LINE
10
159.6676
20
-143.4173
30
0.0
0
VERTEX
8
LOT_LINE
10
56.2590
20
-147.7665
30
0.0
0
SEQEND
0
TEXT
8
TEXT-LABELS
7
STANDARD
10
105.8622
20
-95.6360
30
0.0
40
8.0
1
1
50
0.0
0
TEXT
8
DIM-LABELS
7
STANDARD
10
103.9082
20
-49.1771
30
0.0
40
5.5
1
103.5'
50
0.0
0
TEXT
8
DIM-LABELS
7
STANDARD
10
154.0696
20
-93.6085
30
0.0
40
5.5
1
100.0'
50
0.0
0
TEXT
8
DIM-LABELS
7
STANDARD
10
107.8162
20
-142.0950
30
0.0
40
5.5
1
103.5'
50
0.0
0
TEXT
8
DIM-LABELS
7
STANDARD
10
57.6548
20
-97.6636
30
0.0
40
5.5
1
100.0'
50
0.0
0
POLYLINE
8
LOT_LINE
66
1
70
1
0
VERTEX
8
LOT_LINE
10
155.4655
20
-43.5056
30
0.0
0
VERTEX
8
LOT_LINE
10
230.3992
20
-40.3540
30
0.0
0
VERTEX
8
LOT_LINE
10
234.6013
20
-140.2657
30
0.0
0
VERTEX
8
LOT_LINE
10
159.6676
20
-143.4173
30
0.0
0
SEQEND
0
TEXT
8
TEXT-LABELS
7
STANDARD
10
195.0334
20
-91.8857
30
0.0
40
8.0
1
2
50
0.0
0
TEXT
8
DIM-LABELS
7
STANDARD
10
193.0794
20
-45.4267
30
0.0
40
5.5
1
75.0'
50
0.0
0
TEXT
8
DIM-LABELS
7
STANDARD
10
229.0034
20
-90.4570
30
0.0
40
5.5
1
100.0'
50
0.0
0
TEXT
8
DIM-LABELS
7
STANDARD
10
196.9874
20
-138.3446
30
0.0
40
5.5
1
75.0'
50
0.0
0
TEXT
8
DIM-LABELS
7
STANDARD
10
161.0634
20
-93.3144
30
0.0
40
5.5
1
100.0'
50
0.0
0
POLYLINE
8
LOT_LINE
66
1
70
1
0
VERTEX
8
LOT_LINE
10
230.3992
20
-40.3540
30
0.0
0
VERTEX
8
LOT_LINE
10
305.3330
20
-37.2025
30
0.0
0
VERTEX
8
LOT_LINE
10
309.5351
20
-137.1141
30
0.0
0
VERTEX
8
LOT_LINE
10
234.6013
20
-140.2657
30
0.0
0
SEQEND
0
TEXT
8
TEXT-LABELS
7
STANDARD
10
269.9671
20
-88.7341
30
0.0
40
8.0
1
3
50
0.0
0
TEXT
8
DIM-LABELS
7
STANDARD
10
268.0132
20
-42.2752
30
0.0
40
5.5
1
75.0'
50
0.0
0
TEXT
8
DIM-LABELS
7
STANDARD
10
303.9371
20
-87.3054
30
0.0
40
5.5
1
100.0'
50
0.0
0
TEXT
8
DIM-LABELS
7
STANDARD
10
271.9211
20
-135.1930
30
0.0
40
5.5
1
75.0'
50
0.0
0
TEXT
8
DIM-LABELS
7
STANDARD
10
235.9972
20
-90.1628
30
0.0
40
5.5
1
100.0'
50
0.0
0
POLYLINE
8
LOT_LINE
66
1
70
1
0
VERTEX
8
LOT_LINE
10
305.3330
20
-37.2025
30
0.0
0
VERTEX
8
LOT_LINE
10
380.2667
20
-34.0509
30
0.0
0
VERTEX
8
LOT_LINE
10
384.4688
20
-133.9626
30
0.0
0
VERTEX
8
LOT_LINE
10
309.5351
20
-137.1141
30
0.0
0
SEQEND
0
TEXT
8
TEXT-LABELS
7
STANDARD
10
344.9009
20
-85.5825
30
0.0
40
8.0
1
4
50
0.0
0
TEXT
8
DIM-LABELS
7
STANDARD
10
342.9469
20
-39.1236
30
0.0
40
5.5
1
75.0'
50
0.0
0
TEXT
8
DIM-LABELS
7
STANDARD
10
378.8709
20
-84.1538
30
0.0
40
5.5
1
100.0'
50
0.0
0
TEXT
8
DIM-LABELS
7
STANDARD
10
346.8549
20
-132.0415
30
0.0
40
5.5
1
75.0'
50
0.0
0
TEXT
8
DIM-LABELS
7
STANDARD
10
310.9309
20
-87.0112
30
0.0
40
5.5
1
100.0'
50
0.0
0
POLYLINE
8
LOT_LINE
66
1
70
1
0
VERTEX
8
LOT_LINE
10
380.2667
20
-34.0509
30
0.0
0
VERTEX
8
LOT_LINE
10
455.2005
20
-30.8993
30
0.0
0
VERTEX
8
LOT_LINE
10
459.4026
20
-130.8110
30
0.0
0
VERTEX
8
LOT_LINE
10
384.4688
20
-133.9626
30
0.0
0
SEQEND
0
TEXT
8
TEXT-LABELS
7
STANDARD
10
419.8347
20
-82.4309
30
0.0
40
8.0
1
5
50
0.0
0
TEXT
8
DIM-LABELS
7
STANDARD
10
417.8807
20
-35.9720
30
0.0
40
5.5
1
75.0'
50
0.0
0
TEXT
8
DIM-LABELS
7
STANDARD
10
453.8046
20
-81.0022
30
0.0
40
5.5
1
100.0'
50
0.0
0
TEXT
8
DIM-LABELS
7
STANDARD
10
421.7886
20
-128.8899
30
0.0
40
5.5
1
75.0'
50
0.0
0
TEXT
8
DIM-LABELS
7
STANDARD
10
385.8647
20
-83.8597
30
0.0
40
5.5
1
100.0'
50
0.0
0
POLYLINE
8
LOT_LINE
66
1
70
1
0
VERTEX
8
LOT_LINE
10
455.2005
20
-30.8993
30
0.0
0
VERTEX
8
LOT_LINE
10
530.1342
20
-27.7478
30
0.0
0
VERTEX
8
LOT_LINE
10
534.3363
20
-127.6594
30
0.0
0
VERTEX
8
LOT_LINE
10
459.4026
20
-130.8110
30
0.0
0
SEQEND
0
TEXT
8
TEXT-LABELS
7
STANDARD
10
494.7684
20
-79.2794
30
0.0
40
8.0
1
6
50
0.0
0
TEXT
8
DIM-LABELS
7
STANDARD
10
492.8144
20
-32.8204
30
0.0
40
5.5
1
75.0'
50
0.0
0
TEXT
8
DIM-LABELS
7
STANDARD
10
528.7384
20
-77.8507
30
0.0
40
5.5
1
100.0'
50
0.0
0
TEXT
8
DIM-LABELS
7
STANDARD
10
496.7224
20
-125.7383
30
0.0
40
5.5
1
75.0'
50
0.0
0
TEXT
8
DIM-LABELS
7
STANDARD
10
460.7984
20
-80.7081
30
0.0
40
5.5
1
100.0'
50
0.0
0
POLYLINE
8
LOT_LINE
66
1
70
1
0
VERTEX
8
LOT_LINE
10
530.1342
20
-27.7478
30
0.0
0
VERTEX
8
LOT_LINE
10
605.0680
20
-24.5962
30
0.0
0
VERTEX
8
LOT_LINE
10
609.2701
20
-124.5079
30
0.0
0
VERTEX
8
LOT_LINE
10
534.3363
20
-127.6594
30
0.0
0
SEQEND
0
TEXT
8
TEXT-LABELS
7
STANDARD
10
569.7022
20
-76.1278
30
0.0
40
8.0
1
7
50
0.0
0
TEXT
8
DIM-LABELS
7
STANDARD
10
567.7482
20
-29.6689
30
0.0
40
5.5
1
75.0'
50
0.0
0
TEXT
8
DIM-LABELS
7
STANDARD
10
603.6721
20
-74.6991
30
0.0
40
5.5
1
100.0'
50
0.0
0
TEXT
8
DIM-LABELS
7
STANDARD
10
571.6561
20
-122.5867
30
0.0
40
5.5
1
75.0'
50
0.0
0
TEXT
8
DIM-LABELS
7
STANDARD
10
535.7322
20
-77.5565
30
0.0
40
5.5
1
100.0'
50
0.0
0
POLYLINE
8
LOT_LINE
66
1
70
1
0
VERTEX
8
LOT_LINE
10
605.0680
20
-24.5962
30
0.0
0
VERTEX
8
LOT_LINE
10
680.0017
20
-21.4446
30
0.0
0
VERTEX
8
LOT_LINE
10
684.2038
20
-121.3563
30
0.0
0
VERTEX
8
LOT_LINE
10
609.2701
20
-124.5079
30
0.0
0
SEQEND
0
TEXT
8
TEXT-LABELS
7
STANDARD
10
644.6359
20
-72.9762
30
0.0
40
8.0
1
8
50
0.0
0
TEXT
8
DIM-LABELS
7
STANDARD
10
642.6819
20
-26.5173
30
0.0
40
5.5
1
75.0'
50
0.0
0
TEXT
8
DIM-LABELS
7
STANDARD
10
678.6059
20
-71.5475
30
0.0
40
5.5
1
100.0'
50
0.0
0
TEXT
8
DIM-LABELS
7
STANDARD
10
646.5899
20
-119.4352
30
0.0
40
5.5
1
75.0'
50
0.0
0
TEXT
8
DIM-LABELS
7
STANDARD
10
610.6660
20
-74.4049
30
0.0
40
5.5
1
100.0'
50
0.0
0
POLYLINE
8
LOT_LINE
66
1
70
1
0
VERTEX
8
LOT_LINE
10
680.0017
20
-21.4446
30
0.0
0
VERTEX
8
LOT_LINE
10
754.9355
20
-18.2930
30
0.0
0
VERTEX
8
LOT_LINE
10
759.1376
20
-118.2047
30
0.0
0
VERTEX
8
LOT_LINE
10
684.2038
20
-121.3563
30
0.0
0
SEQEND
0
TEXT
8
TEXT-LABELS
7
STANDARD
10
719.5697
20
-69.8247
30
0.0
40
8.0
1
9
50
0.0
0
TEXT
8
DIM-LABELS
7
STANDARD
10
717.6157
20
-23.3657
30
0.0
40
5.5
1
75.0'
50
0.0
0
TEXT
8
DIM-LABELS
7
STANDARD
10
753.5396
20
-68.3959
30
0.0
40
5.5
1
100.0'
50
0.0
0
TEXT
8
DIM-LABELS
7
STANDARD
10
721.5237
20
-116.2836
30
0.0
40
5.5
1
75.0'
50
0.0
0
TEXT
8
DIM-LABELS
7
STANDARD
10
685.5997
20
-71.2534
30
0.0
40
5.5
1
100.0'
50
0.0
0
POLYLINE
8
LOT_LINE
66
1
70
1
0
VERTEX
8
LOT_LINE
10
754.9355
20
-18.2930
30
0.0
0
VERTEX
8
LOT_LINE
10
829.8693
20
-15.1415
30
0.0
0
VERTEX
8
LOT_LINE
10
834.0714
20
-115.0531
30
0.0
0
VERTEX
8
LOT_LINE
10
759.1376
20
-118.2047
30
0.0
0
SEQEND
0
TEXT
8
TEXT-LABELS
7
STANDARD
10
794.5034
20
-66.6731
30
0.0
40
8.0
1
10
50
0.0
0
TEXT
8
DIM-LABELS
7
STANDARD
10
792.5495
20
-20.2142
30
0.0
40
5.5
1
75.0'
50
0.0
0
TEXT
8
DIM-LABELS
7
STANDARD
10
828.4734
20
-65.2444
30
0.0
40
5.5
1
100.0'
50
0.0
0
TEXT
8
DIM-LABELS
7
STANDARD
10
796.4574
20
-113.1320
30
0.0
40
5.5
1
75.0'
50
0.0
0
TEXT
8
DIM-LABELS
7
STANDARD
10
760.5335
20
-68.1018
30
0.0
40
5.5
1
100.0'
50
0.0
0
POLYLINE
8
LOT_LINE
66
1
70
1
0
VERTEX
8
LOT_LINE
10
829.8693
20
-15.1415
30
0.0
0
VERTEX
8
LOT_LINE
10
904.8030
20
-11.9899
30
0.0
0
VERTEX
8
LOT_LINE
10
909.0051
20
-111.9016
30
0.0
0
VERTEX
8
LOT_LINE
10
834.0714
20
-115.0531
30
0.0
0
SEQEND
0
TEXT
8
TEXT-LABELS
7
STANDARD
10
869.4372
20
-63.5215
30
0.0
40
8.0
1
11
50
0.0
0
TEXT
8
DIM-LABELS
7
STANDARD
10
867.4832
20
-17.0626
30
0.0
40
5.5
1
75.0'
50
0.0
0
TEXT
8
DIM-LABELS
7
STANDARD
10
903.4072
20
-62.0928
30
0.0
40
5.5
1
100.0'
50
0.0
0
TEXT
8
DIM-LABELS
7
STANDARD
10
871.3912
20
-109.9804
30
0.0
40
5.5
1
75.0'
50
0.0
0
TEXT
8
DIM-LABELS
7
STANDARD
10
835.4672
20
-64.9502
30
0.0
40
5.5
1
100.0'
50
0.0
0
POLYLINE
8
LOT_LINE
66
1
70
1
0
VERTEX
8
LOT_LINE
10
904.8030
20
-11.9899
30
0.0
0
VERTEX
8
LOT_LINE
10
979.7368
20
-8.8383
30
0.0
0
VERTEX
8
LOT_LINE
10
983.9389
20
-108.7500
30
0.0
0
VERTEX
8
LOT_LINE
10
909.0051
20
-111.9016
30
0.0
0
SEQEND
0
TEXT
8
TEXT-LABELS
7
STANDARD
10
944.3709
20
-60.3699
30
0.0
40
8.0
1
12
50
0.0
0
TEXT
8
DIM-LABELS
7
STANDARD
10
942.4170
20
-13.9110
30
0.0
40
5.5
1
75.0'
50
0.0
0
TEXT
8
DIM-LABELS
7
STANDARD
10
978.3409
20
-58.9412
30
0.0
40
5.5
1
100.0'
50
0.0
0
TEXT
8
DIM-LABELS
7
STANDARD
10
946.3249
20
-106.8289
30
0.0
40
5.5
1
75.0'
50
0.0
0
TEXT
8
DIM-LABELS
7
STANDARD
10
910.4010
20
-61.7987
30
0.0
40
5.5
1
100.0'
50
0.0
0
POLYLINE
8
LOT_LINE
66
1
70
1
0
VERTEX
8
LOT_LINE
10
979.7368
20
-8.8383
30
0.0
0
VERTEX
8
LOT_LINE
10
1054.6705
20
-5.6867
30
0.0
0
VERTEX
8
LOT_LINE
10
1058.8726
20
-105.5984
30
0.0
0
VERTEX
8
LOT_LINE
10
983.9389
20
-108.7500
30
0.0
0
SEQEND
0
TEXT
8
TEXT-LABELS
7
STANDARD
10
1019.3047
20
-57.2184
30
0.0
40
8.0
1
13
50
0.0
0
TEXT
8
DIM-LABELS
7
STANDARD
10
1017.3507
20
-10.7594
30
0.0
40
5.5
1
75.0'
50
0.0
0
TEXT
8
DIM-LABELS
7
STANDARD
10
1053.2747
20
-55.7897
30
0.0
40
5.5
1
100.0'
50
0.0
0
TEXT
8
DIM-LABELS
7
STANDARD
10
1021.2587
20
-103.6773
30
0.0
40
5.5
1
75.0'
50
0.0
0
TEXT
8
DIM-LABELS
7
STANDARD
10
985.3347
20
-58.6471
30
0.0
40
5.5
1
100.0'
50
0.0
0
POLYLINE
8
LOT_LINE
66
1
70
1
0
VERTEX
8
LOT_LINE
10
1054.6705
20
-5.6867
30
0.0
0
VERTEX
8
LOT_LINE
10
1129.6043
20
-2.5352
30
0.0
0
VERTEX
8
LOT_LINE
10
1133.8064
20
-102.4468
30
0.0
0
VERTEX
8
LOT_LINE
10
1058.8726
20
-105.5984
30
0.0
0
SEQEND
0
TEXT
8
TEXT-LABELS
7
STANDARD
10
1094.2384
20
-54.0668
30
0.0
40
8.0
1
14
50
0.0
0
TEXT
8
DIM-LABELS
7
STANDARD
10
1092.2845
20
-7.6079
30
0.0
40
5.5
1
75.0'
50
0.0
0
TEXT
8
DIM-LABELS
7
STANDARD
10
1128.2084
20
-52.6381
30
0.0
40
5.5
1
100.0'
50
0.0
0
TEXT
8
DIM-LABELS
7
STANDARD
10
1096.1924
20
-100.5257
30
0.0
40
5.5
1
75.0'
50
0.0
0
TEXT
8
DIM-LABELS
7
STANDARD
10
1060.2685
20
-55.4955
30
0.0
40
5.5
1
100.0'
50
0.0
0
POLYLINE
8
LOT_LINE
66
1
70
1
0
VERTEX
8
LOT_LINE
10
1129.6043
20
-2.5352
30
0.0
0
VERTEX
8
LOT_LINE
10
1204.5380
20
0.6164
30
0.0
0
VERTEX
8
LOT_LINE
10
1208.7401
20
-99.2953
30
0.0
0
VERTEX
8
LOT_LINE
10
1133.8064
20
-102.4468
30
0.0
0
SEQEND
0
TEXT
8
TEXT-LABELS
7
STANDARD
10
1169.1722
20
-50.9152
30
0.0
40
8.0
1
15
50
0.0
0
TEXT
8
DIM-LABELS
7
STANDARD
10
1167.2182
20
-4.4563
30
0.0
40
5.5
1
75.0'
50
0.0
0
TEXT
8
DIM-LABELS
7
STANDARD
10
1203.1422
20
-49.4865
30
0.0
40
5.5
1
100.0'
50
0.0
0
TEXT
8
DIM-LABELS
7
STANDARD
10
1171.1262
20
-97.3741
30
0.0
40
5.5
1
75.0'
50
0.0
0
TEXT
8
DIM-LABELS
7
STANDARD
10
1135.2022
20
-52.3439
30
0.0
40
5.5
1
100.0'
50
0.0
0
POLYLINE
8
LOT_LINE
66
1
70
1
0
VERTEX
8
LOT_LINE
10
1204.5380
20
0.6164
30
0.0
0
VERTEX
8
LOT_LINE
10
1279.4718
20
3.7680
30
0.0
0
VERTEX
8
LOT_LINE
10
1283.6739
20
-96.1437
30
0.0
0
VERTEX
8
LOT_LINE
10
1208.7401
20
-99.2953
30
0.0
0
SEQEND
0
TEXT
8
TEXT-LABELS
7
STANDARD
10
1244.1060
20
-47.7636
30
0.0
40
8.0
1
16
50
0.0
0
TEXT
8
DIM-LABELS
7
STANDARD
10
1242.1520
20
-1.3047
30
0.0
40
5.5
1
75.0'
50
0.0
0
TEXT
8
DIM-LABELS
7
STANDARD
10
1278.0759
20
-46.3349
30
0.0
40
5.5
1
100.0'
50
0.0
0
TEXT
8
DIM-LABELS
7
STANDARD
10
1246.0599
20
-94.2226
30
0.0
40
5.5
1
75.0'
50
0.0
0
TEXT
8
DIM-LABELS
7
STANDARD
10
1210.1360
20
-49.1924
30
0.0
40
5.5
1
100.0'
50
0.0
0
POLYLINE
8
LOT_LINE
66
1
70
1
0
VERTEX
8
LOT_LINE
10
1279.4718
20
3.7680
30
0.0
0
VERTEX
8
LOT_LINE
10
1354.4055
20
6.9195
30
0.0
0
VERTEX
8
LOT_LINE
10
1358.6076
20
-92.9921
30
0.0
0
VERTEX
8
LOT_LINE
10
1283.6739
20
-96.1437
30
0.0
0
SEQEND
0
TEXT
8
TEXT-LABELS
7
STANDARD
10
1319.0397
20
-44.6121
30
0.0
40
8.0
1
17
50
0.0
0
TEXT
8
DIM-LABELS
7
STANDARD
10
1317.0857
20
1.8469
30
0.0
40
5.5
1
75.0'
50
0.0
0
TEXT
8
DIM-LABELS
7
STANDARD
10
1353.0097
20
-43.1834
30
0.0
40
5.5
1
100.0'
50
0.0
0
TEXT
8
DIM-LABELS
7
STANDARD
10
1320.9937
20
-91.0710
30
0.0
40
5.5
1
75.0'
50
0.0
0
TEXT
8
DIM-LABELS
7
STANDARD
10
1285.0697
20
-46.0408
30
0.0
40
5.5
1
100.0'
50
0.0
0
POLYLINE
8
LOT_LINE
66
1
70
1
0
VERTEX
8
LOT_LINE
10
1354.4055
20
6.9195
30
0.0
0
VERTEX
8
LOT_LINE
10
1429.3393
20
10.0711
30
0.0
0
VERTEX
8
LOT_LINE
10
1433.5414
20
-89.8406
30
0.0
0
VERTEX
8
LOT_LINE
10
1358.6076
20
-92.9921
30
0.0
0
SEQEND
0
TEXT
8
TEXT-LABELS
7
STANDARD
10
1393.9735
20
-41.4605
30
0.0
40
8.0
1
18
50
0.0
0
TEXT
8
DIM-LABELS
7
STANDARD
10
1392.0195
20
4.9984
30
0.0
40
5.5
1
75.0'
50
0.0
0
TEXT
8
DIM-LABELS
7
STANDARD
10
1427.9434
20
-40.0318
30
0.0
40
5.5
1
100.0'
50
0.0
0
TEXT
8
DIM-LABELS
7
STANDARD
10
1395.9274
20
-87.9194
30
0.0
40
5.5
1
75.0'
50
0.0
0
TEXT
8
DIM-LABELS
7
STANDARD
10
1360.0035
20
-42.8892
30
0.0
40
5.5
1
100.0'
50
0.0
0
POLYLINE
8
CURVE
66
1
70
0
0
VERTEX
8
CURVE
10
1504.2731
20
13.2227
30
0.0
0
VERTEX
8
CURVE
10
1504.3863
20
6.9737
30
0.0
0
VERTEX
8
CURVE
10
1504.5194
20
0.7251
30
0.0
0
VERTEX
8
CURVE
10
1504.6725
20
-5.5230
30
0.0
0
VERTEX
8
CURVE
10
1504.8455
20
-11.7706
30
0.0
0
VERTEX
8
CURVE
10
1505.0384
20
-18.0176
30
0.0
0
VERTEX
8
CURVE
10
1505.2512
20
-24.2640
30
0.0
0
VERTEX
8
CURVE
10
1505.4840
20
-30.5096
30
0.0
0
VERTEX
8
CURVE
10
1505.7367
20
-36.7545
30
0.0
0
VERTEX
8
CURVE
10
1506.0093
20
-42.9986
30
0.0
0
VERTEX
8
CURVE
10
1506.3018
20
-49.2417
30
0.0
0
VERTEX
8
CURVE
10
1506.6142
20
-55.4839
30
0.0
0
VERTEX
8
CURVE
10
1506.9465
20
-61.7251
30
0.0
0
VERTEX
8
CURVE
10
1507.2987
20
-67.9651
30
0.0
0
VERTEX
8
CURVE
10
1507.6708
20
-74.2040
30
0.0
0
VERTEX
8
CURVE
10
1508.0628
20
-80.4417
30
0.0
0
VERTEX
8
CURVE
10
1508.4747
20
-86.6781
30
0.0
0
SEQEND
0
POLYLINE
8
LOT_LINE
66
1
70
1
0
VERTEX
8
LOT_LINE
10
1429.3393
20
10.0711
30
0.0
0
VERTEX
8
LOT_LINE
10
1504.2731
20
13.2227
30
0.0
0
VERTEX
8
LOT_LINE
10
1504.3863
20
6.9737
30
0.0
0
VERTEX
8
LOT_LINE
10
1504.5194
20
0.7251
30
0.0
0
VERTEX
8
LOT_LINE
10
1504.6725
20
-5.5230
30
0.0
0
VERTEX
8
LOT_LINE
10
1504.8455
20
-11.7706
30
0.0
0
VERTEX
8
LOT_LINE
10
1505.0384
20
-18.0176
30
0.0
0
VERTEX
8
LOT_LINE
10
1505.2512
20
-24.2640
30
0.0
0
VERTEX
8
LOT_LINE
10
1505.4840
20
-30.5096
30
0.0
0
VERTEX
8
LOT_LINE
10
1505.7367
20
-36.7545
30
0.0
0
VERTEX
8
LOT_LINE
10
1506.0093
20
-42.9986
30
0.0
0
VERTEX
8
LOT_LINE
10
1506.3018
20
-49.2417
30
0.0
0
VERTEX
8
LOT_LINE
10
1506.6142
20
-55.4839
30
0.0
0
VERTEX
8
LOT_LINE
10
1506.9465
20
-61.7251
30
0.0
0
VERTEX
8
LOT_LINE
10
1507.2987
20
-67.9651
30
0.0
0
VERTEX
8
LOT_LINE
10
1507.6708
20
-74.2040
30
0.0
0
VERTEX
8
LOT_LINE
10
1508.0628
20
-80.4417
30
0.0
0
VERTEX
8
LOT_LINE
10
1508.4751
20
-86.6890
30
0.0
0
VERTEX
8
LOT_LINE
10
1433.5414
20
-89.8406
30
0.0
0
SEQEND
0
TEXT
8
TEXT-LABELS
7
STANDARD
10
1468.9072
20
-38.3089
30
0.0
40
8.0
1
19
50
0.0
0
TEXT
8
DIM-LABELS
7
STANDARD
10
1466.9532
20
8.1500
30
0.0
40
5.5
1
75.0'
50
0.0
0
TEXT
8
DIM-LABELS
7
STANDARD
10
1502.8772
20
-36.8802
30
0.0
40
5.5
1
100.0'
50
0.0
0
TEXT
8
DIM-LABELS
7
STANDARD
10
1470.8612
20
-84.7679
30
0.0
40
5.5
1
75.0'
50
0.0
0
TEXT
8
DIM-LABELS
7
STANDARD
10
1434.9373
20
-39.7376
30
0.0
40
5.5
1
100.0'
50
0.0
0
POLYLINE
8
LOT_LINE
66
1
70
1
0
VERTEX
8
LOT_LINE
10
218.6389
20
-200.9901
30
0.0
0
VERTEX
8
LOT_LINE
10
312.0563
20
-197.0611
30
0.0
0
VERTEX
8
LOT_LINE
10
316.2584
20
-296.9728
30
0.0
0
VERTEX
8
LOT_LINE
10
222.8410
20
-300.9018
30
0.0
0
SEQEND
0
TEXT
8
TEXT-LABELS
7
STANDARD
10
267.4487
20
-248.9815
30
0.0
40
8.0
1
1
50
0.0
0
TEXT
8
DIM-LABELS
7
STANDARD
10
265.4947
20
-202.5225
30
0.0
40
5.5
1
93.5'
50
0.0
0
TEXT
8
DIM-LABELS
7
STANDARD
10
310.6605
20
-247.1641
30
0.0
40
5.5
1
100.0'
50
0.0
0
TEXT
8
DIM-LABELS
7
STANDARD
10
269.4026
20
-295.4404
30
0.0
40
5.5
1
93.5'
50
0.0
0
TEXT
8
DIM-LABELS
7
STANDARD
10
224.2369
20
-250.7989
30
0.0
40
5.5
1
100.0'
50
0.0
0
POLYLINE
8
LOT_LINE
66
1
70
1
0
VERTEX
8
LOT_LINE
10
312.0563
20
-197.0611
30
0.0
0
VERTEX
8
LOT_LINE
10
386.9901
20
-193.9096
30
0.0
0
VERTEX
8
LOT_LINE
10
391.1922
20
-293.8212
30
0.0
0
VERTEX
8
LOT_LINE
10
316.2584
20
-296.9728
30
0.0
0
SEQEND
0
TEXT
8
TEXT-LABELS
7
STANDARD
10
351.6243
20
-245.4412
30
0.0
40
8.0
1
2
50
0.0
0
TEXT
8
DIM-LABELS
7
STANDARD
10
349.6703
20
-198.9823
30
0.0
40
5.5
1
75.0'
50
0.0
0
TEXT
8
DIM-LABELS
7
STANDARD
10
385.5942
20
-244.0125
30
0.0
40
5.5
1
100.0'
50
0.0
0
TEXT
8
DIM-LABELS
7
STANDARD
10
353.5782
20
-291.9001
30
0.0
40
5.5
1
75.0'
50
0.0
0
TEXT
8
DIM-LABELS
7
STANDARD
10
317.6543
20
-246.8699
30
0.0
40
5.5
1
100.0'
50
0.0
0
POLYLINE
8
LOT_LINE
66
1
70
1
0
VERTEX
8
LOT_LINE
10
386.9901
20
-193.9096
30
0.0
0
VERTEX
8
LOT_LINE
10
461.9238
20
-190.7580
30
0.0
0
VERTEX
8
LOT_LINE
10
466.1259
20
-290.6697
30
0.0
0
VERTEX
8
LOT_LINE
10
391.1922
20
-293.8212
30
0.0
0
SEQEND
0
TEXT
8
TEXT-LABELS
7
STANDARD
10
426.5580
20
-242.2896
30
0.0
40
8.0
1
3
50
0.0
0
TEXT
8
DIM-LABELS
7
STANDARD
10
424.6040
20
-195.8307
30
0.0
40
5.5
1
75.0'
50
0.0
0
TEXT
8
DIM-LABELS
7
STANDARD
10
460.5280
20
-240.8609
30
0.0
40
5.5
1
100.0'
50
0.0
0
TEXT
8
DIM-LABELS
7
STANDARD
10
428.5120
20
-288.7486
30
0.0
40
5.5
1
75.0'
50
0.0
0
TEXT
8
DIM-LABELS
7
STANDARD
10
392.5880
20
-243.7183
30
0.0
40
5.5
1
100.0'
50
0.0
0
POLYLINE
8
LOT_LINE
66
1
70
1
0
VERTEX
8
LOT_LINE
10
461.9238
20
-190.7580
30
0.0
0
VERTEX
8
LOT_LINE
10
536.8576
20
-187.6064
30
0.0
0
VERTEX
8
LOT_LINE
10
541.0597
20
-287.5181
30
0.0
0
VERTEX
8
LOT_LINE
10
466.1259
20
-290.6697
30
0.0
0
SEQEND
0
TEXT
8
TEXT-LABELS
7
STANDARD
10
501.4918
20
-239.1381
30
0.0
40
8.0
1
4
50
0.0
0
TEXT
8
DIM-LABELS
7
STANDARD
10
499.5378
20
-192.6791
30
0.0
40
5.5
1
75.0'
50
0.0
0
TEXT
8
DIM-LABELS
7
STANDARD
10
535.4617
20
-237.7093
30
0.0
40
5.5
1
100.0'
50
0.0
0
TEXT
8
DIM-LABELS
7
STANDARD
10
503.4457
20
-285.5970
30
0.0
40
5.5
1
75.0'
50
0.0
0
TEXT
8
DIM-LABELS
7
STANDARD
10
467.5218
20
-240.5668
30
0.0
40
5.5
1
100.0'
50
0.0
0
POLYLINE
8
LOT_LINE
66
1
70
1
0
VERTEX
8
LOT_LINE
10
536.8576
20
-187.6064
30
0.0
0
VERTEX
8
LOT_LINE
10
611.7913
20
-184.4549
30
0.0
0
VERTEX
8
LOT_LINE
10
615.9934
20
-284.3665
30
0.0
0
VERTEX
8
LOT_LINE
10
541.0597
20
-287.5181
30
0.0
0
SEQEND
0
TEXT
8
TEXT-LABELS
7
STANDARD
10
576.4255
20
-235.9865
30
0.0
40
8.0
1
5
50
0.0
0
TEXT
8
DIM-LABELS
7
STANDARD
10
574.4715
20
-189.5276
30
0.0
40
5.5
1
75.0'
50
0.0
0
TEXT
8
DIM-LABELS
7
STANDARD
10
610.3955
20
-234.5578
30
0.0
40
5.5
1
100.0'
50
0.0
0
TEXT
8
DIM-LABELS
7
STANDARD
10
578.3795
20
-282.4454
30
0.0
40
5.5
1
75.0'
50
0.0
0
TEXT
8
DIM-LABELS
7
STANDARD
10
542.4556
20
-237.4152
30
0.0
40
5.5
1
100.0'
50
0.0
0
POLYLINE
8
LOT_LINE
66
1
70
1
0
VERTEX
8
LOT_LINE
10
611.7913
20
-184.4549
30
0.0
0
VERTEX
8
LOT_LINE
10
686.7251
20
-181.3033
30
0.0
0
VERTEX
8
LOT_LINE
10
690.9272
20
-281.2150
30
0.0
0
VERTEX
8
LOT_LINE
10
615.9934
20
-284.3665
30
0.0
0
SEQEND
0
TEXT
8
TEXT-LABELS
7
STANDARD
10
651.3593
20
-232.8349
30
0.0
40
8.0
1
6
50
0.0
0
TEXT
8
DIM-LABELS
7
STANDARD
10
649.4053
20
-186.3760
30
0.0
40
5.5
1
75.0'
50
0.0
0
TEXT
8
DIM-LABELS
7
STANDARD
10
685.3292
20
-231.4062
30
0.0
40
5.5
1
100.0'
50
0.0
0
TEXT
8
DIM-LABELS
7
STANDARD
10
653.3133
20
-279.2938
30
0.0
40
5.5
1
75.0'
50
0.0
0
TEXT
8
DIM-LABELS
7
STANDARD
10
617.3893
20
-234.2636
30
0.0
40
5.5
1
100.0'
50
0.0
0
POLYLINE
8
LOT_LINE
66
1
70
1
0
VERTEX
8
LOT_LINE
10
686.7251
20
-181.3033
30
0.0
0
VERTEX
8
LOT_LINE
10
761.6589
20
-178.1517
30
0.0
0
VERTEX
8
LOT_LINE
10
765.8610
20
-278.0634
30
0.0
0
VERTEX
8
LOT_LINE
10
690.9272
20
-281.2150
30
0.0
0
SEQEND
0
TEXT
8
TEXT-LABELS
7
STANDARD
10
726.2930
20
-229.6833
30
0.0
40
8.0
1
7
50
0.0
0
TEXT
8
DIM-LABELS
7
STANDARD
10
724.3391
20
-183.2244
30
0.0
40
5.5
1
75.0'
50
0.0
0
TEXT
8
DIM-LABELS
7
STANDARD
10
760.2630
20
-228.2546
30
0.0
40
5.5
1
100.0'
50
0.0
0
TEXT
8
DIM-LABELS
7
STANDARD
10
728.2470
20
-276.1423
30
0.0
40
5.5
1
75.0'
50
0.0
0
TEXT
8
DIM-LABELS
7
STANDARD
10
692.3231
20
-231.1120
30
0.0
40
5.5
1
100.0'
50
0.0
0
POLYLINE
8
LOT_LINE
66
1
70
1
0
VERTEX
8
LOT_LINE
10
761.6589
20
-178.1517
30
0.0
0
VERTEX
8
LOT_LINE
10
836.5926
20
-175.0001
30
0.0
0
VERTEX
8
LOT_LINE
10
840.7947
20
-274.9118
30
0.0
0
VERTEX
8
LOT_LINE
10
765.8610
20
-278.0634
30
0.0
0
SEQEND
0
TEXT
8
TEXT-LABELS
7
STANDARD
10
801.2268
20
-226.5318
30
0.0
40
8.0
1
8
50
0.0
0
TEXT
8
DIM-LABELS
7
STANDARD
10
799.2728
20
-180.0728
30
0.0
40
5.5
1
75.0'
50
0.0
0
TEXT
8
DIM-LABELS
7
STANDARD
10
835.1968
20
-225.1030
30
0.0
40
5.5
1
100.0'
50
0.0
0
TEXT
8
DIM-LABELS
7
STANDARD
10
803.1808
20
-272.9907
30
0.0
40
5.5
1
75.0'
50
0.0
0
TEXT
8
DIM-LABELS
7
STANDARD
10
767.2568
20
-227.9605
30
0.0
40
5.5
1
100.0'
50
0.0
0
POLYLINE
8
LOT_LINE
66
1
70
1
0
VERTEX
8
LOT_LINE
10
836.5926
20
-175.0001
30
0.0
0
VERTEX
8
LOT_LINE
10
911.5264
20
-171.8486
30
0.0
0
VERTEX
8
LOT_LINE
10
915.7285
20
-271.7602
30
0.0
0
VERTEX
8
LOT_LINE
10
840.7947
20
-274.9118
30
0.0
0
SEQEND
0
TEXT
8
TEXT-LABELS
7
STANDARD
10
876.1605
20
-223.3802
30
0.0
40
8.0
1
9
50
0.0
0
TEXT
8
DIM-LABELS
7
STANDARD
10
874.2066
20
-176.9213
30
0.0
40
5.5
1
75.0'
50
0.0
0
TEXT
8
DIM-LABELS
7
STANDARD
10
910.1305
20
-221.9515
30
0.0
40
5.5
1
100.0'
50
0.0
0
TEXT
8
DIM-LABELS
7
STANDARD
10
878.1145
20
-269.8391
30
0.0
40
5.5
1
75.0'
50
0.0
0
TEXT
8
DIM-LABELS
7
STANDARD
10
842.1906
20
-224.8089
30
0.0
40
5.5
1
100.0'
50
0.0
0
POLYLINE
8
LOT_LINE
66
1
70
1
0
VERTEX
8
LOT_LINE
10
911.5264
20
-171.8486
30
0.0
0
VERTEX
8
LOT_LINE
10
986.4601
20
-168.6970
30
0.0
0
VERTEX
8
LOT_LINE
10
990.6622
20
-268.6087
30
0.0
0
VERTEX
8
LOT_LINE
10
915.7285
20
-271.7602
30
0.0
0
SEQEND
0
TEXT
8
TEXT-LABELS
7
STANDARD
10
951.0943
20
-220.2286
30
0.0
40
8.0
1
10
50
0.0
0
TEXT
8
DIM-LABELS
7
STANDARD
10
949.1403
20
-173.7697
30
0.0
40
5.5
1
75.0'
50
0.0
0
TEXT
8
DIM-LABELS
7
STANDARD
10
985.0643
20
-218.7999
30
0.0
40
5.5
1
100.0'
50
0.0
0
TEXT
8
DIM-LABELS
7
STANDARD
10
953.0483
20
-266.6875
30
0.0
40
5.5
1
75.0'
50
0.0
0
TEXT
8
DIM-LABELS
7
STANDARD
10
917.1243
20
-221.6573
30
0.0
40
5.5
1
100.0'
50
0.0
0
POLYLINE
8
LOT_LINE
66
1
70
1
0
VERTEX
8
LOT_LINE
10
986.4601
20
-168.6970
30
0.0
0
VERTEX
8
LOT_LINE
10
1061.3939
20
-165.5454
30
0.0
0
VERTEX
8
LOT_LINE
10
1065.5960
20
-265.4571
30
0.0
0
VERTEX
8
LOT_LINE
10
990.6622
20
-268.6087
30
0.0
0
SEQEND
0
TEXT
8
TEXT-LABELS
7
STANDARD
10
1026.0280
20
-217.0770
30
0.0
40
8.0
1
11
50
0.0
0
TEXT
8
DIM-LABELS
7
STANDARD
10
1024.0741
20
-170.6181
30
0.0
40
5.5
1
75.0'
50
0.0
0
TEXT
8
DIM-LABELS
7
STANDARD
10
1059.9980
20
-215.6483
30
0.0
40
5.5
1
100.0'
50
0.0
0
TEXT
8
DIM-LABELS
7
STANDARD
10
1027.9820
20
-263.5360
30
0.0
40
5.5
1
75.0'
50
0.0
0
TEXT
8
DIM-LABELS
7
STANDARD
10
992.0581
20
-218.5058
30
0.0
40
5.5
1
100.0'
50
0.0
0
POLYLINE
8
LOT_LINE
66
1
70
1
0
VERTEX
8
LOT_LINE
10
1061.3939
20
-165.5454
30
0.0
0
VERTEX
8
LOT_LINE
10
1136.3276
20
-162.3938
30
0.0
0
VERTEX
8
LOT_LINE
10
1140.5297
20
-262.3055
30
0.0
0
VERTEX
8
LOT_LINE
10
1065.5960
20
-265.4571
30
0.0
0
SEQEND
0
TEXT
8
TEXT-LABELS
7
STANDARD
10
1100.9618
20
-213.9255
30
0.0
40
8.0
1
12
50
0.0
0
TEXT
8
DIM-LABELS
7
STANDARD
10
1099.0078
20
-167.4665
30
0.0
40
5.5
1
75.0'
50
0.0
0
TEXT
8
DIM-LABELS
7
STANDARD
10
1134.9318
20
-212.4968
30
0.0
40
5.5
1
100.0'
50
0.0
0
TEXT
8
DIM-LABELS
7
STANDARD
10
1102.9158
20
-260.3844
30
0.0
40
5.5
1
75.0'
50
0.0
0
TEXT
8
DIM-LABELS
7
STANDARD
10
1066.9918
20
-215.3542
30
0.0
40
5.5
1
100.0'
50
0.0
0
POLYLINE
8
LOT_LINE
66
1
70
1
0
VERTEX
8
LOT_LINE
10
1136.3276
20
-162.3938
30
0.0
0
VERTEX
8
LOT_LINE
10
1211.2614
20
-159.2423
30
0.0
0
VERTEX
8
LOT_LINE
10
1215.4635
20
-259.1539
30
0.0
0
VERTEX
8
LOT_LINE
10
1140.5297
20
-262.3055
30
0.0
0
SEQEND
0
TEXT
8
TEXT-LABELS
7
STANDARD
10
1175.8956
20
-210.7739
30
0.0
40
8.0
1
13
50
0.0
0
TEXT
8
DIM-LABELS
7
STANDARD
10
1173.9416
20
-164.3150
30
0.0
40
5.5
1
75.0'
50
0.0
0
TEXT
8
DIM-LABELS
7
STANDARD
10
1209.8655
20
-209.3452
30
0.0
40
5.5
1
100.0'
50
0.0
0
TEXT
8
DIM-LABELS
7
STANDARD
10
1177.8495
20
-257.2328
30
0.0
40
5.5
1
75.0'
50
0.0
0
TEXT
8
DIM-LABELS
7
STANDARD
10
1141.9256
20
-212.2026
30
0.0
40
5.5
1
100.0'
50
0.0
0
POLYLINE
8
LOT_LINE
66
1
70
1
0
VERTEX
8
LOT_LINE
10
1211.2614
20
-159.2423
30
0.0
0
VERTEX
8
LOT_LINE
10
1286.1951
20
-156.0907
30
0.0
0
VERTEX
8
LOT_LINE
10
1290.3972
20
-256.0024
30
0.0
0
VERTEX
8
LOT_LINE
10
1215.4635
20
-259.1539
30
0.0
0
SEQEND
0
TEXT
8
TEXT-LABELS
7
STANDARD
10
1250.8293
20
-207.6223
30
0.0
40
8.0
1
14
50
0.0
0
TEXT
8
DIM-LABELS
7
STANDARD
10
1248.8753
20
-161.1634
30
0.0
40
5.5
1
75.0'
50
0.0
0
TEXT
8
DIM-LABELS
7
STANDARD
10
1284.7993
20
-206.1936
30
0.0
40
5.5
1
100.0'
50
0.0
0
TEXT
8
DIM-LABELS
7
STANDARD
10
1252.7833
20
-254.0813
30
0.0
40
5.5
1
75.0'
50
0.0
0
TEXT
8
DIM-LABELS
7
STANDARD
10
1216.8593
20
-209.0510
30
0.0
40
5.5
1
100.0'
50
0.0
0
POLYLINE
8
LOT_LINE
66
1
70
1
0
VERTEX
8
LOT_LINE
10
1286.1951
20
-156.0907
30
0.0
0
VERTEX
8
LOT_LINE
10
1361.1289
20
-152.9391
30
0.0
0
VERTEX
8
LOT_LINE
10
1365.3310
20
-252.8508
30
0.0
0
VERTEX
8
LOT_LINE
10
1290.3972
20
-256.0024
30
0.0
0
SEQEND
0
TEXT
8
TEXT-LABELS
7
STANDARD
10
1325.7631
20
-204.4708
30
0.0
40
8.0
1
15
50
0.0
0
TEXT
8
DIM-LABELS
7
STANDARD
10
1323.8091
20
-158.0118
30
0.0
40
5.5
1
75.0'
50
0.0
0
TEXT
8
DIM-LABELS
7
STANDARD
10
1359.7330
20
-203.0420
30
0.0
40
5.5
1
100.0'
50
0.0
0
TEXT
8
DIM-LABELS
7
STANDARD
10
1327.7170
20
-250.9297
30
0.0
40
5.5
1
75.0'
50
0.0
0
TEXT
8
DIM-LABELS
7
STANDARD
10
1291.7931
20
-205.8995
30
0.0
40
5.5
1
100.0'
50
0.0
0
POLYLINE
8
LOT_LINE
66
1
70
1
0
VERTEX
8
LOT_LINE
10
1361.1289
20
-152.9391
30
0.0
0
VERTEX
8
LOT_LINE
10
1436.0627
20
-149.7876
30
0.0
0
VERTEX
8
LOT_LINE
10
1440.2647
20
-249.6992
30
0.0
0
VERTEX
8
LOT_LINE
10
1365.3310
20
-252.8508
30
0.0
0
SEQEND
0
TEXT
8
TEXT-LABELS
7
STANDARD
10
1400.6968
20
-201.3192
30
0.0
40
8.0
1
16
50
0.0
0
TEXT
8
DIM-LABELS
7
STANDARD
10
1398.7428
20
-154.8603
30
0.0
40
5.5
1
75.0'
50
0.0
0
TEXT
8
DIM-LABELS
7
STANDARD
10
1434.6668
20
-199.8905
30
0.0
40
5.5
1
100.0'
50
0.0
0
TEXT
8
DIM-LABELS
7
STANDARD
10
1402.6508
20
-247.7781
30
0.0
40
5.5
1
75.0'
50
0.0
0
TEXT
8
DIM-LABELS
7
STANDARD
10
1366.7269
20
-202.7479
30
0.0
40
5.5
1
100.0'
50
0.0
0
POLYLINE
8
CURVE
66
1
70
0
0
VERTEX
8
CURVE
10
1510.9964
20
-146.6360
30
0.0
0
VERTEX
8
CURVE
10
1511.1096
20
-152.8850
30
0.0
0
VERTEX
8
CURVE
10
1511.2428
20
-159.1335
30
0.0
0
VERTEX
8
CURVE
10
1511.3958
20
-165.3817
30
0.0
0
VERTEX
8
CURVE
10
1511.5688
20
-171.6293
30
0.0
0
VERTEX
8
CURVE
10
1511.7618
20
-177.8763
30
0.0
0
VERTEX
8
CURVE
10
1511.9746
20
-184.1227
30
0.0
0
VERTEX
8
CURVE
10
1512.2073
20
-190.3683
30
0.0
0
VERTEX
8
CURVE
10
1512.4600
20
-196.6132
30
0.0
0
VERTEX
8
CURVE
10
1512.7326
20
-202.8573
30
0.0
0
VERTEX
8
CURVE
10
1513.0251
20
-209.1004
30
0.0
0
VERTEX
8
CURVE
10
1513.3375
20
-215.3426
30
0.0
0
VERTEX
8
CURVE
10
1513.6698
20
-221.5837
30
0.0
0
VERTEX
8
CURVE
10
1514.0220
20
-227.8238
30
0.0
0
VERTEX
8
CURVE
10
1514.3941
20
-234.0627
30
0.0
0
VERTEX
8
CURVE
10
1514.7862
20
-240.3004
30
0.0
0
VERTEX
8
CURVE
10
1515.1980
20
-246.5368
30
0.0
0
SEQEND
0
POLYLINE
8
LOT_LINE
66
1
70
1
0
VERTEX
8
LOT_LINE
10
1436.0627
20
-149.7876
30
0.0
0
VERTEX
8
LOT_LINE
10
1510.9964
20
-146.6360
30
0.0
0
VERTEX
8
LOT_LINE
10
1511.1096
20
-152.8850
30
0.0
0
VERTEX
8
LOT_LINE
10
1511.2428
20
-159.1335
30
0.0
0
VERTEX
8
LOT_LINE
10
1511.3958
20
-165.3817
30
0.0
0
VERTEX
8
LOT_LINE
10
1511.5688
20
-171.6293
30
0.0
0
VERTEX
8
LOT_LINE
10
1511.7618
20
-177.8763
30
0.0
0
VERTEX
8
LOT_LINE
10
1511.9746
20
-184.1227
30
0.0
0
VERTEX
8
LOT_LINE
10
1512.2073
20
-190.3683
30
0.0
0
VERTEX
8
LOT_LINE
10
1512.4600
20
-196.6132
30
0.0
0
VERTEX
8
LOT_LINE
10
1512.7326
20
-202.8573
30
0.0
0
VERTEX
8
LOT_LINE
10
1513.0251
20
-209.1004
30
0.0
0
VERTEX
8
LOT_LINE
10
1513.3375
20
-215.3426
30
0.0
0
VERTEX
8
LOT_LINE
10
1513.6698
20
-221.5837
30
0.0
0
VERTEX
8
LOT_LINE
10
1514.0220
20
-227.8238
30
0.0
0
VERTEX
8
LOT_LINE
10
1514.3941
20
-234.0627
30
0.0
0
VERTEX
8
LOT_LINE
10
1514.7862
20
-240.3004
30
0.0
0
VERTEX
8
LOT_LINE
10
1515.1985
20
-246.5477
30
0.0
0
VERTEX
8
LOT_LINE
10
1440.2647
20
-249.6992
30
0.0
0
SEQEND
0
TEXT
8
TEXT-LABELS
7
STANDARD
10
1475.6306
20
-198.1676
30
0.0
40
8.0
1
17
50
0.0
0
TEXT
8
DIM-LABELS
7
STANDARD
10
1473.6766
20
-151.7087
30
0.0
40
5.5
1
75.0'
50
0.0
0
TEXT
8
DIM-LABELS
7
STANDARD
10
1509.6005
20
-196.7389
30
0.0
40
5.5
1
100.0'
50
0.0
0
TEXT
8
DIM-LABELS
7
STANDARD
10
1477.5846
20
-244.6265
30
0.0
40
5.5
1
75.0'
50
0.0
0
TEXT
8
DIM-LABELS
7
STANDARD
10
1441.6606
20
-199.5963
30
0.0
40
5.5
1
100.0'
50
0.0
0
POLYLINE
8
LOT_LINE
66
1
70
1
0
VERTEX
8
LOT_LINE
10
222.8410
20
-300.9018
30
0.0
0
VERTEX
8
LOT_LINE
10
316.2584
20
-296.9728
30
0.0
0
VERTEX
8
LOT_LINE
10
320.4605
20
-396.8845
30
0.0
0
VERTEX
8
LOT_LINE
10
227.0431
20
-400.8135
30
0.0
0
SEQEND
0
TEXT
8
TEXT-LABELS
7
STANDARD
10
271.6508
20
-348.8931
30
0.0
40
8.0
1
34
50
0.0
0
TEXT
8
DIM-LABELS
7
STANDARD
10
269.6968
20
-302.4342
30
0.0
40
5.5
1
93.5'
50
0.0
0
TEXT
8
DIM-LABELS
7
STANDARD
10
314.8626
20
-347.0757
30
0.0
40
5.5
1
100.0'
50
0.0
0
TEXT
8
DIM-LABELS
7
STANDARD
10
273.6047
20
-395.3521
30
0.0
40
5.5
1
93.5'
50
0.0
0
TEXT
8
DIM-LABELS
7
STANDARD
10
228.4390
20
-350.7105
30
0.0
40
5.5
1
100.0'
50
0.0
0
POLYLINE
8
LOT_LINE
66
1
70
1
0
VERTEX
8
LOT_LINE
10
316.2584
20
-296.9728
30
0.0
0
VERTEX
8
LOT_LINE
10
391.1922
20
-293.8212
30
0.0
0
VERTEX
8
LOT_LINE
10
395.3943
20
-393.7329
30
0.0
0
VERTEX
8
LOT_LINE
10
320.4605
20
-396.8845
30
0.0
0
SEQEND
0
TEXT
8
TEXT-LABELS
7
STANDARD
10
355.8264
20
-345.3529
30
0.0
40
8.0
1
33
50
0.0
0
TEXT
8
DIM-LABELS
7
STANDARD
10
353.8724
20
-298.8939
30
0.0
40
5.5
1
75.0'
50
0.0
0
TEXT
8
DIM-LABELS
7
STANDARD
10
389.7963
20
-343.9242
30
0.0
40
5.5
1
100.0'
50
0.0
0
TEXT
8
DIM-LABELS
7
STANDARD
10
357.7803
20
-391.8118
30
0.0
40
5.5
1
75.0'
50
0.0
0
TEXT
8
DIM-LABELS
7
STANDARD
10
321.8564
20
-346.7816
30
0.0
40
5.5
1
100.0'
50
0.0
0
POLYLINE
8
LOT_LINE
66
1
70
1
0
VERTEX
8
LOT_LINE
10
391.1922
20
-293.8212
30
0.0
0
VERTEX
8
LOT_LINE
10
466.1259
20
-290.6697
30
0.0
0
VERTEX
8
LOT_LINE
10
470.3280
20
-390.5813
30
0.0
0
VERTEX
8
LOT_LINE
10
395.3943
20
-393.7329
30
0.0
0
SEQEND
0
TEXT
8
TEXT-LABELS
7
STANDARD
10
430.7601
20
-342.2013
30
0.0
40
8.0
1
32
50
0.0
0
TEXT
8
DIM-LABELS
7
STANDARD
10
428.8061
20
-295.7424
30
0.0
40
5.5
1
75.0'
50
0.0
0
TEXT
8
DIM-LABELS
7
STANDARD
10
464.7301
20
-340.7726
30
0.0
40
5.5
1
100.0'
50
0.0
0
TEXT
8
DIM-LABELS
7
STANDARD
10
432.7141
20
-388.6602
30
0.0
40
5.5
1
75.0'
50
0.0
0
TEXT
8
DIM-LABELS
7
STANDARD
10
396.7901
20
-343.6300
30
0.0
40
5.5
1
100.0'
50
0.0
0
POLYLINE
8
LOT_LINE
66
1
70
1
0
VERTEX
8
LOT_LINE
10
466.1259
20
-290.6697
30
0.0
0
VERTEX
8
LOT_LINE
10
541.0597
20
-287.5181
30
0.0
0
VERTEX
8
LOT_LINE
10
545.2618
20
-387.4298
30
0.0
0
VERTEX
8
LOT_LINE
10
470.3280
20
-390.5813
30
0.0
0
SEQEND
0
TEXT
8
TEXT-LABELS
7
STANDARD
10
505.6939
20
-339.0497
30
0.0
40
8.0
1
31
50
0.0
0
TEXT
8
DIM-LABELS
7
STANDARD
10
503.7399
20
-292.5908
30
0.0
40
5.5
1
75.0'
50
0.0
0
TEXT
8
DIM-LABELS
7
STANDARD
10
539.6638
20
-337.6210
30
0.0
40
5.5
1
100.0'
50
0.0
0
TEXT
8
DIM-LABELS
7
STANDARD
10
507.6478
20
-385.5087
30
0.0
40
5.5
1
75.0'
50
0.0
0
TEXT
8
DIM-LABELS
7
STANDARD
10
471.7239
20
-340.4784
30
0.0
40
5.5
1
100.0'
50
0.0
0
POLYLINE
8
LOT_LINE
66
1
70
1
0
VERTEX
8
LOT_LINE
10
541.0597
20
-287.5181
30
0.0
0
VERTEX
8
LOT_LINE
10
615.9934
20
-284.3665
30
0.0
0
VERTEX
8
LOT_LINE
10
620.1955
20
-384.2782
30
0.0
0
VERTEX
8
LOT_LINE
10
545.2618
20
-387.4298
30
0.0
0
SEQEND
0
TEXT
8
TEXT-LABELS
7
STANDARD
10
580.6276
20
-335.8982
30
0.0
40
8.0
1
30
50
0.0
0
TEXT
8
DIM-LABELS
7
STANDARD
10
578.6736
20
-289.4392
30
0.0
40
5.5
1
75.0'
50
0.0
0
TEXT
8
DIM-LABELS
7
STANDARD
10
614.5976
20
-334.4694
30
0.0
40
5.5
1
100.0'
50
0.0
0
TEXT
8
DIM-LABELS
7
STANDARD
10
582.5816
20
-382.3571
30
0.0
40
5.5
1
75.0'
50
0.0
0
TEXT
8
DIM-LABELS
7
STANDARD
10
546.6576
20
-337.3269
30
0.0
40
5.5
1
100.0'
50
0.0
0
POLYLINE
8
LOT_LINE
66
1
70
1
0
VERTEX
8
LOT_LINE
10
615.9934
20
-284.3665
30
0.0
0
VERTEX
8
LOT_LINE
10
690.9272
20
-281.2150
30
0.0
0
VERTEX
8
LOT_LINE
10
695.1293
20
-381.1266
30
0.0
0
VERTEX
8
LOT_LINE
10
620.1955
20
-384.2782
30
0.0
0
SEQEND
0
TEXT
8
TEXT-LABELS
7
STANDARD
10
655.5614
20
-332.7466
30
0.0
40
8.0
1
29
50
0.0
0
TEXT
8
DIM-LABELS
7
STANDARD
10
653.6074
20
-286.2877
30
0.0
40
5.5
1
75.0'
50
0.0
0
TEXT
8
DIM-LABELS
7
STANDARD
10
689.5313
20
-331.3179
30
0.0
40
5.5
1
100.0'
50
0.0
0
TEXT
8
DIM-LABELS
7
STANDARD
10
657.5153
20
-379.2055
30
0.0
40
5.5
1
75.0'
50
0.0
0
TEXT
8
DIM-LABELS
7
STANDARD
10
621.5914
20
-334.1753
30
0.0
40
5.5
1
100.0'
50
0.0
0
POLYLINE
8
LOT_LINE
66
1
70
1
0
VERTEX
8
LOT_LINE
10
690.9272
20
-281.2150
30
0.0
0
VERTEX
8
LOT_LINE
10
765.8610
20
-278.0634
30
0.0
0
VERTEX
8
LOT_LINE
10
770.0631
20
-377.9751
30
0.0
0
VERTEX
8
LOT_LINE
10
695.1293
20
-381.1266
30
0.0
0
SEQEND
0
TEXT
8
TEXT-LABELS
7
STANDARD
10
730.4951
20
-329.5950
30
0.0
40
8.0
1
28
50
0.0
0
TEXT
8
DIM-LABELS
7
STANDARD
10
728.5412
20
-283.1361
30
0.0
40
5.5
1
75.0'
50
0.0
0
TEXT
8
DIM-LABELS
7
STANDARD
10
764.4651
20
-328.1663
30
0.0
40
5.5
1
100.0'
50
0.0
0
TEXT
8
DIM-LABELS
7
STANDARD
10
732.4491
20
-376.0539
30
0.0
40
5.5
1
75.0'
50
0.0
0
TEXT
8
DIM-LABELS
7
STANDARD
10
696.5252
20
-331.0237
30
0.0
40
5.5
1
100.0'
50
0.0
0
POLYLINE
8
LOT_LINE
66
1
70
1
0
VERTEX
8
LOT_LINE
10
765.8610
20
-278.0634
30
0.0
0
VERTEX
8
LOT_LINE
10
840.7947
20
-274.9118
30
0.0
0
VERTEX
8
LOT_LINE
10
844.9968
20
-374.8235
30
0.0
0
VERTEX
8
LOT_LINE
10
770.0631
20
-377.9751
30
0.0
0
SEQEND
0
TEXT
8
TEXT-LABELS
7
STANDARD
10
805.4289
20
-326.4434
30
0.0
40
8.0
1
27
50
0.0
0
TEXT
8
DIM-LABELS
7
STANDARD
10
803.4749
20
-279.9845
30
0.0
40
5.5
1
75.0'
50
0.0
0
TEXT
8
DIM-LABELS
7
STANDARD
10
839.3989
20
-325.0147
30
0.0
40
5.5
1
100.0'
50
0.0
0
TEXT
8
DIM-LABELS
7
STANDARD
10
807.3829
20
-372.9024
30
0.0
40
5.5
1
75.0'
50
0.0
0
TEXT
8
DIM-LABELS
7
STANDARD
10
771.4589
20
-327.8721
30
0.0
40
5.5
1
100.0'
50
0.0
0
POLYLINE
8
LOT_LINE
66
1
70
1
0
VERTEX
8
LOT_LINE
10
840.7947
20
-274.9118
30
0.0
0
VERTEX
8
LOT_LINE
10
915.7285
20
-271.7602
30
0.0
0
VERTEX
8
LOT_LINE
10
919.9306
20
-371.6719
30
0.0
0
VERTEX
8
LOT_LINE
10
844.9968
20
-374.8235
30
0.0
0
SEQEND
0
TEXT
8
TEXT-LABELS
7
STANDARD
10
880.3626
20
-323.2919
30
0.0
40
8.0
1
26
50
0.0
0
TEXT
8
DIM-LABELS
7
STANDARD
10
878.4087
20
-276.8329
30
0.0
40
5.5
1
75.0'
50
0.0
0
TEXT
8
DIM-LABELS
7
STANDARD
10
914.3326
20
-321.8631
30
0.0
40
5.5
1
100.0'
50
0.0
0
TEXT
8
DIM-LABELS
7
STANDARD
10
882.3166
20
-369.7508
30
0.0
40
5.5
1
75.0'
50
0.0
0
TEXT
8
DIM-LABELS
7
STANDARD
10
846.3927
20
-324.7206
30
0.0
40
5.5
1
100.0'
50
0.0
0
POLYLINE
8
LOT_LINE
66
1
70
1
0
VERTEX
8
LOT_LINE
10
915.7285
20
-271.7602
30
0.0
0
VERTEX
8
LOT_LINE
10
990.6622
20
-268.6087
30
0.0
0
VERTEX
8
LOT_LINE
10
994.8643
20
-368.5203
30
0.0
0
VERTEX
8
LOT_LINE
10
919.9306
20
-371.6719
30
0.0
0
SEQEND
0
TEXT
8
TEXT-LABELS
7
STANDARD
10
955.2964
20
-320.1403
30
0.0
40
8.0
1
25
50
0.0
0
TEXT
8
DIM-LABELS
7
STANDARD
10
953.3424
20
-273.6814
30
0.0
40
5.5
1
75.0'
50
0.0
0
TEXT
8
DIM-LABELS
7
STANDARD
10
989.2664
20
-318.7116
30
0.0
40
5.5
1
100.0'
50
0.0
0
TEXT
8
DIM-LABELS
7
STANDARD
10
957.2504
20
-366.5992
30
0.0
40
5.5
1
75.0'
50
0.0
0
TEXT
8
DIM-LABELS
7
STANDARD
10
921.3264
20
-321.5690
30
0.0
40
5.5
1
100.0'
50
0.0
0
POLYLINE
8
LOT_LINE
66
1
70
1
0
VERTEX
8
LOT_LINE
10
990.6622
20
-268.6087
30
0.0
0
VERTEX
8
LOT_LINE
10
1065.5960
20
-265.4571
30
0.0
0
VERTEX
8
LOT_LINE
10
1069.7981
20
-365.3688
30
0.0
0
VERTEX
8
LOT_LINE
10
994.8643
20
-368.5203
30
0.0
0
SEQEND
0
TEXT
8
TEXT-LABELS
7
STANDARD
10
1030.2301
20
-316.9887
30
0.0
40
8.0
1
24
50
0.0
0
TEXT
8
DIM-LABELS
7
STANDARD
10
1028.2762
20
-270.5298
30
0.0
40
5.5
1
75.0'
50
0.0
0
TEXT
8
DIM-LABELS
7
STANDARD
10
1064.2001
20
-315.5600
30
0.0
40
5.5
1
100.0'
50
0.0
0
TEXT
8
DIM-LABELS
7
STANDARD
10
1032.1841
20
-363.4476
30
0.0
40
5.5
1
75.0'
50
0.0
0
TEXT
8
DIM-LABELS
7
STANDARD
10
996.2602
20
-318.4174
30
0.0
40
5.5
1
100.0'
50
0.0
0
POLYLINE
8
LOT_LINE
66
1
70
1
0
VERTEX
8
LOT_LINE
10
1065.5960
20
-265.4571
30
0.0
0
VERTEX
8
LOT_LINE
10
1140.5297
20
-262.3055
30
0.0
0
VERTEX
8
LOT_LINE
10
1144.7318
20
-362.2172
30
0.0
0
VERTEX
8
LOT_LINE
10
1069.7981
20
-365.3688
30
0.0
0
SEQEND
0
TEXT
8
TEXT-LABELS
7
STANDARD
10
1105.1639
20
-313.8371
30
0.0
40
8.0
1
23
50
0.0
0
TEXT
8
DIM-LABELS
7
STANDARD
10
1103.2099
20
-267.3782
30
0.0
40
5.5
1
75.0'
50
0.0
0
TEXT
8
DIM-LABELS
7
STANDARD
10
1139.1339
20
-312.4084
30
0.0
40
5.5
1
100.0'
50
0.0
0
TEXT
8
DIM-LABELS
7
STANDARD
10
1107.1179
20
-360.2961
30
0.0
40
5.5
1
75.0'
50
0.0
0
TEXT
8
DIM-LABELS
7
STANDARD
10
1071.1939
20
-315.2659
30
0.0
40
5.5
1
100.0'
50
0.0
0
POLYLINE
8
LOT_LINE
66
1
70
1
0
VERTEX
8
LOT_LINE
10
1140.5297
20
-262.3055
30
0.0
0
VERTEX
8
LOT_LINE
10
1215.4635
20
-259.1539
30
0.0
0
VERTEX
8
LOT_LINE
10
1219.6656
20
-359.0656
30
0.0
0
VERTEX
8
LOT_LINE
10
1144.7318
20
-362.2172
30
0.0
0
SEQEND
0
TEXT
8
TEXT-LABELS
7
STANDARD
10
1180.0977
20
-310.6856
30
0.0
40
8.0
1
22
50
0.0
0
TEXT
8
DIM-LABELS
7
STANDARD
10
1178.1437
20
-264.2266
30
0.0
40
5.5
1
75.0'
50
0.0
0
TEXT
8
DIM-LABELS
7
STANDARD
10
1214.0676
20
-309.2569
30
0.0
40
5.5
1
100.0'
50
0.0
0
TEXT
8
DIM-LABELS
7
STANDARD
10
1182.0516
20
-357.1445
30
0.0
40
5.5
1
75.0'
50
0.0
0
TEXT
8
DIM-LABELS
7
STANDARD
10
1146.1277
20
-312.1143
30
0.0
40
5.5
1
100.0'
50
0.0
0
POLYLINE
8
LOT_LINE
66
1
70
1
0
VERTEX
8
LOT_LINE
10
1215.4635
20
-259.1539
30
0.0
0
VERTEX
8
LOT_LINE
10
1290.3972
20
-256.0024
30
0.0
0
VERTEX
8
LOT_LINE
10
1294.5993
20
-355.9140
30
0.0
0
VERTEX
8
LOT_LINE
10
1219.6656
20
-359.0656
30
0.0
0
SEQEND
0
TEXT
8
TEXT-LABELS
7
STANDARD
10
1255.0314
20
-307.5340
30
0.0
40
8.0
1
21
50
0.0
0
TEXT
8
DIM-LABELS
7
STANDARD
10
1253.0774
20
-261.0751
30
0.0
40
5.5
1
75.0'
50
0.0
0
TEXT
8
DIM-LABELS
7
STANDARD
10
1289.0014
20
-306.1053
30
0.0
40
5.5
1
100.0'
50
0.0
0
TEXT
8
DIM-LABELS
7
STANDARD
10
1256.9854
20
-353.9929
30
0.0
40
5.5
1
75.0'
50
0.0
0
TEXT
8
DIM-LABELS
7
STANDARD
10
1221.0614
20
-308.9627
30
0.0
40
5.5
1
100.0'
50
0.0
0
POLYLINE
8
LOT_LINE
66
1
70
1
0
VERTEX
8
LOT_LINE
10
1290.3972
20
-256.0024
30
0.0
0
VERTEX
8
LOT_LINE
10
1365.3310
20
-252.8508
30
0.0
0
VERTEX
8
LOT_LINE
10
1369.5331
20
-352.7625
30
0.0
0
VERTEX
8
LOT_LINE
10
1294.5993
20
-355.9140
30
0.0
0
SEQEND
0
TEXT
8
TEXT-LABELS
7
STANDARD
10
1329.9652
20
-304.3824
30
0.0
40
8.0
1
20
50
0.0
0
TEXT
8
DIM-LABELS
7
STANDARD
10
1328.0112
20
-257.9235
30
0.0
40
5.5
1
75.0'
50
0.0
0
TEXT
8
DIM-LABELS
7
STANDARD
10
1363.9351
20
-302.9537
30
0.0
40
5.5
1
100.0'
50
0.0
0
TEXT
8
DIM-LABELS
7
STANDARD
10
1331.9191
20
-350.8414
30
0.0
40
5.5
1
75.0'
50
0.0
0
TEXT
8
DIM-LABELS
7
STANDARD
10
1295.9952
20
-305.8111
30
0.0
40
5.5
1
100.0'
50
0.0
0
POLYLINE
8
LOT_LINE
66
1
70
1
0
VERTEX
8
LOT_LINE
10
1365.3310
20
-252.8508
30
0.0
0
VERTEX
8
LOT_LINE
10
1440.2647
20
-249.6992
30
0.0
0
VERTEX
8
LOT_LINE
10
1444.4668
20
-349.6109
30
0.0
0
VERTEX
8
LOT_LINE
10
1369.5331
20
-352.7625
30
0.0
0
SEQEND
0
TEXT
8
TEXT-LABELS
7
STANDARD
10
1404.8989
20
-301.2309
30
0.0
40
8.0
1
19
50
0.0
0
TEXT
8
DIM-LABELS
7
STANDARD
10
1402.9449
20
-254.7719
30
0.0
40
5.5
1
75.0'
50
0.0
0
TEXT
8
DIM-LABELS
7
STANDARD
10
1438.8689
20
-299.8021
30
0.0
40
5.5
1
100.0'
50
0.0
0
TEXT
8
DIM-LABELS
7
STANDARD
10
1406.8529
20
-347.6898
30
0.0
40
5.5
1
75.0'
50
0.0
0
TEXT
8
DIM-LABELS
7
STANDARD
10
1370.9290
20
-302.6596
30
0.0
40
5.5
1
100.0'
50
0.0
0
POLYLINE
8
CURVE
66
1
70
0
0
VERTEX
8
CURVE
10
1515.1985
20
-246.5477
30
0.0
0
VERTEX
8
CURVE
10
1515.3117
20
-252.7966
30
0.0
0
VERTEX
8
CURVE
10
1515.4449
20
-259.0452
30
0.0
0
VERTEX
8
CURVE
10
1515.5979
20
-265.2933
30
0.0
0
VERTEX
8
CURVE
10
1515.7709
20
-271.5409
30
0.0
0
VERTEX
8
CURVE
10
1515.9639
20
-277.7880
30
0.0
0
VERTEX
8
CURVE
10
1516.1767
20
-284.0343
30
0.0
0
VERTEX
8
CURVE
10
1516.4094
20
-290.2800
30
0.0
0
VERTEX
8
CURVE
10
1516.6621
20
-296.5249
30
0.0
0
VERTEX
8
CURVE
10
1516.9347
20
-302.7689
30
0.0
0
VERTEX
8
CURVE
10
1517.2272
20
-309.0121
30
0.0
0
VERTEX
8
CURVE
10
1517.5396
20
-315.2543
30
0.0
0
VERTEX
8
CURVE
10
1517.8719
20
-321.4954
30
0.0
0
VERTEX
8
CURVE
10
1518.2241
20
-327.7355
30
0.0
0
VERTEX
8
CURVE
10
1518.5962
20
-333.9744
30
0.0
0
VERTEX
8
CURVE
10
1518.9882
20
-340.2121
30
0.0
0
VERTEX
8
CURVE
10
1519.4001
20
-346.4485
30
0.0
0
SEQEND
0
POLYLINE
8
LOT_LINE
66
1
70
1
0
VERTEX
8
LOT_LINE
10
1440.2647
20
-249.6992
30
0.0
0
VERTEX
8
LOT_LINE
10
1515.1985
20
-246.5477
30
0.0
0
VERTEX
8
LOT_LINE
10
1515.3117
20
-252.7966
30
0.0
0
VERTEX
8
LOT_LINE
10
1515.4449
20
-259.0452
30
0.0
0
VERTEX
8
LOT_LINE
10
1515.5979
20
-265.2933
30
0.0
0
VERTEX
8
LOT_LINE
10
1515.7709
20
-271.5409
30
0.0
0
VERTEX
8
LOT_LINE
10
1515.9639
20
-277.7880
30
0.0
0
VERTEX
8
LOT_LINE
10
1516.1767
20
-284.0343
30
0.0
0
VERTEX
8
LOT_LINE
10
1516.4094
20
-290.2800
30
0.0
0
VERTEX
8
LOT_LINE
10
1516.6621
20
-296.5249
30
0.0
0
VERTEX
8
LOT_LINE
10
1516.9347
20
-302.7689
30
0.0
0
VERTEX
8
LOT_LINE
10
1517.2272
20
-309.0121
30
0.0
0
VERTEX
8
LOT_LINE
10
1517.5396
20
-315.2543
30
0.0
0
VERTEX
8
LOT_LINE
10
1517.8719
20
-321.4954
30
0.0
0
VERTEX
8
LOT_LINE
10
1518.2241
20
-327.7355
30
0.0
0
VERTEX
8
LOT_LINE
10
1518.5962
20
-333.9744
30
0.0
0
VERTEX
8
LOT_LINE
10
1518.9882
20
-340.2121
30
0.0
0
VERTEX
8
LOT_LINE
10
1519.4006
20
-346.4593
30
0.0
0
VERTEX
8
LOT_LINE
10
1444.4668
20
-349.6109
30
0.0
0
SEQEND
0
TEXT
8
TEXT-LABELS
7
STANDARD
10
1479.8327
20
-298.0793
30
0.0
40
8.0
1
18
50
0.0
0
TEXT
8
DIM-LABELS
7
STANDARD
10
1477.8787
20
-251.6204
30
0.0
40
5.5
1
75.0'
50
0.0
0
TEXT
8
DIM-LABELS
7
STANDARD
10
1513.8026
20
-296.6506
30
0.0
40
5.5
1
100.0'
50
0.0
0
TEXT
8
DIM-LABELS
7
STANDARD
10
1481.7866
20
-344.5382
30
0.0
40
5.5
1
75.0'
50
0.0
0
TEXT
8
DIM-LABELS
7
STANDARD
10
1445.8627
20
-299.5080
30
0.0
40
5.5
1
100.0'
50
0.0
0
POLYLINE
8
LOT_LINE
66
1
70
1
0
VERTEX
8
LOT_LINE
10
229.5644
20
-460.7605
30
0.0
0
VERTEX
8
LOT_LINE
10
322.9818
20
-456.8315
30
0.0
0
VERTEX
8
LOT_LINE
10
327.1839
20
-556.7432
30
0.0
0
VERTEX
8
LOT_LINE
10
233.7665
20
-560.6721
30
0.0
0
SEQEND
0
TEXT
8
TEXT-LABELS
7
STANDARD
10
278.3741
20
-508.7518
30
0.0
40
8.0
1
1
50
0.0
0
TEXT
8
DIM-LABELS
7
STANDARD
10
276.4201
20
-462.2929
30
0.0
40
5.5
1
93.5'
50
0.0
0
TEXT
8
DIM-LABELS
7
STANDARD
10
321.5859
20
-506.9344
30
0.0
40
5.5
1
100.0'
50
0.0
0
TEXT
8
DIM-LABELS
7
STANDARD
10
280.3281
20
-555.2107
30
0.0
40
5.5
1
93.5'
50
0.0
0
TEXT
8
DIM-LABELS
7
STANDARD
10
235.1623
20
-510.5692
30
0.0
40
5.5
1
100.0'
50
0.0
0
POLYLINE
8
LOT_LINE
66
1
70
1
0
VERTEX
8
LOT_LINE
10
322.9818
20
-456.8315
30
0.0
0
VERTEX
8
LOT_LINE
10
397.9155
20
-453.6799
30
0.0
0
VERTEX
8
LOT_LINE
10
402.1176
20
-553.5916
30
0.0
0
VERTEX
8
LOT_LINE
10
327.1839
20
-556.7432
30
0.0
0
SEQEND
0
TEXT
8
TEXT-LABELS
7
STANDARD
10
362.5497
20
-505.2115
30
0.0
40
8.0
1
2
50
0.0
0
TEXT
8
DIM-LABELS
7
STANDARD
10
360.5957
20
-458.7526
30
0.0
40
5.5
1
75.0'
50
0.0
0
TEXT
8
DIM-LABELS
7
STANDARD
10
396.5197
20
-503.7828
30
0.0
40
5.5
1
100.0'
50
0.0
0
TEXT
8
DIM-LABELS
7
STANDARD
10
364.5037
20
-551.6705
30
0.0
40
5.5
1
75.0'
50
0.0
0
TEXT
8
DIM-LABELS
7
STANDARD
10
328.5797
20
-506.6403
30
0.0
40
5.5
1
100.0'
50
0.0
0
POLYLINE
8
LOT_LINE
66
1
70
1
0
VERTEX
8
LOT_LINE
10
397.9155
20
-453.6799
30
0.0
0
VERTEX
8
LOT_LINE
10
472.8493
20
-450.5284
30
0.0
0
VERTEX
8
LOT_LINE
10
477.0514
20
-550.4400
30
0.0
0
VERTEX
8
LOT_LINE
10
402.1176
20
-553.5916
30
0.0
0
SEQEND
0
TEXT
8
TEXT-LABELS
7
STANDARD
10
437.4835
20
-502.0600
30
0.0
40
8.0
1
3
50
0.0
0
TEXT
8
DIM-LABELS
7
STANDARD
10
435.5295
20
-455.6010
30
0.0
40
5.5
1
75.0'
50
0.0
0
TEXT
8
DIM-LABELS
7
STANDARD
10
471.4534
20
-500.6313
30
0.0
40
5.5
1
100.0'
50
0.0
0
TEXT
8
DIM-LABELS
7
STANDARD
10
439.4374
20
-548.5189
30
0.0
40
5.5
1
75.0'
50
0.0
0
TEXT
8
DIM-LABELS
7
STANDARD
10
403.5135
20
-503.4887
30
0.0
40
5.5
1
100.0'
50
0.0
0
POLYLINE
8
LOT_LINE
66
1
70
1
0
VERTEX
8
LOT_LINE
10
472.8493
20
-450.5284
30
0.0
0
VERTEX
8
LOT_LINE
10
547.7830
20
-447.3768
30
0.0
0
VERTEX
8
LOT_LINE
10
551.9851
20
-547.2885
30
0.0
0
VERTEX
8
LOT_LINE
10
477.0514
20
-550.4400
30
0.0
0
SEQEND
0
TEXT
8
TEXT-LABELS
7
STANDARD
10
512.4172
20
-498.9084
30
0.0
40
8.0
1
4
50
0.0
0
TEXT
8
DIM-LABELS
7
STANDARD
10
510.4632
20
-452.4495
30
0.0
40
5.5
1
75.0'
50
0.0
0
TEXT
8
DIM-LABELS
7
STANDARD
10
546.3872
20
-497.4797
30
0.0
40
5.5
1
100.0'
50
0.0
0
TEXT
8
DIM-LABELS
7
STANDARD
10
514.3712
20
-545.3673
30
0.0
40
5.5
1
75.0'
50
0.0
0
TEXT
8
DIM-LABELS
7
STANDARD
10
478.4472
20
-500.3371
30
0.0
40
5.5
1
100.0'
50
0.0
0
POLYLINE
8
LOT_LINE
66
1
70
1
0
VERTEX
8
LOT_LINE
10
547.7830
20
-447.3768
30
0.0
0
VERTEX
8
LOT_LINE
10
622.7168
20
-444.2252
30
0.0
0
VERTEX
8
LOT_LINE
10
626.9189
20
-544.1369
30
0.0
0
VERTEX
8
LOT_LINE
10
551.9851
20
-547.2885
30
0.0
0
SEQEND
0
TEXT
8
TEXT-LABELS
7
STANDARD
10
587.3510
20
-495.7568
30
0.0
40
8.0
1
5
50
0.0
0
TEXT
8
DIM-LABELS
7
STANDARD
10
585.3970
20
-449.2979
30
0.0
40
5.5
1
75.0'
50
0.0
0
TEXT
8
DIM-LABELS
7
STANDARD
10
621.3209
20
-494.3281
30
0.0
40
5.5
1
100.0'
50
0.0
0
TEXT
8
DIM-LABELS
7
STANDARD
10
589.3049
20
-542.2158
30
0.0
40
5.5
1
75.0'
50
0.0
0
TEXT
8
DIM-LABELS
7
STANDARD
10
553.3810
20
-497.1855
30
0.0
40
5.5
1
100.0'
50
0.0
0
POLYLINE
8
LOT_LINE
66
1
70
1
0
VERTEX
8
LOT_LINE
10
622.7168
20
-444.2252
30
0.0
0
VERTEX
8
LOT_LINE
10
697.6506
20
-441.0736
30
0.0
0
VERTEX
8
LOT_LINE
10
701.8527
20
-540.9853
30
0.0
0
VERTEX
8
LOT_LINE
10
626.9189
20
-544.1369
30
0.0
0
SEQEND
0
TEXT
8
TEXT-LABELS
7
STANDARD
10
662.2847
20
-492.6053
30
0.0
40
8.0
1
6
50
0.0
0
TEXT
8
DIM-LABELS
7
STANDARD
10
660.3308
20
-446.1463
30
0.0
40
5.5
1
75.0'
50
0.0
0
TEXT
8
DIM-LABELS
7
STANDARD
10
696.2547
20
-491.1765
30
0.0
40
5.5
1
100.0'
50
0.0
0
TEXT
8
DIM-LABELS
7
STANDARD
10
664.2387
20
-539.0642
30
0.0
40
5.5
1
75.0'
50
0.0
0
TEXT
8
DIM-LABELS
7
STANDARD
10
628.3148
20
-494.0340
30
0.0
40
5.5
1
100.0'
50
0.0
0
POLYLINE
8
LOT_LINE
66
1
70
1
0
VERTEX
8
LOT_LINE
10
697.6506
20
-441.0736
30
0.0
0
VERTEX
8
LOT_LINE
10
772.5843
20
-437.9221
30
0.0
0
VERTEX
8
LOT_LINE
10
776.7864
20
-537.8337
30
0.0
0
VERTEX
8
LOT_LINE
10
701.8527
20
-540.9853
30
0.0
0
SEQEND
0
TEXT
8
TEXT-LABELS
7
STANDARD
10
737.2185
20
-489.4537
30
0.0
40
8.0
1
7
50
0.0
0
TEXT
8
DIM-LABELS
7
STANDARD
10
735.2645
20
-442.9948
30
0.0
40
5.5
1
75.0'
50
0.0
0
TEXT
8
DIM-LABELS
7
STANDARD
10
771.1885
20
-488.0250
30
0.0
40
5.5
1
100.0'
50
0.0
0
TEXT
8
DIM-LABELS
7
STANDARD
10
739.1725
20
-535.9126
30
0.0
40
5.5
1
75.0'
50
0.0
0
TEXT
8
DIM-LABELS
7
STANDARD
10
703.2485
20
-490.8824
30
0.0
40
5.5
1
100.0'
50
0.0
0
POLYLINE
8
LOT_LINE
66
1
70
1
0
VERTEX
8
LOT_LINE
10
772.5843
20
-437.9221
30
0.0
0
VERTEX
8
LOT_LINE
10
847.5181
20
-434.7705
30
0.0
0
VERTEX
8
LOT_LINE
10
851.7202
20
-534.6822
30
0.0
0
VERTEX
8
LOT_LINE
10
776.7864
20
-537.8337
30
0.0
0
SEQEND
0
TEXT
8
TEXT-LABELS
7
STANDARD
10
812.1522
20
-486.3021
30
0.0
40
8.0
1
8
50
0.0
0
TEXT
8
DIM-LABELS
7
STANDARD
10
810.1983
20
-439.8432
30
0.0
40
5.5
1
75.0'
50
0.0
0
TEXT
8
DIM-LABELS
7
STANDARD
10
846.1222
20
-484.8734
30
0.0
40
5.5
1
100.0'
50
0.0
0
TEXT
8
DIM-LABELS
7
STANDARD
10
814.1062
20
-532.7610
30
0.0
40
5.5
1
75.0'
50
0.0
0
TEXT
8
DIM-LABELS
7
STANDARD
10
778.1823
20
-487.7308
30
0.0
40
5.5
1
100.0'
50
0.0
0
POLYLINE
8
LOT_LINE
66
1
70
1
0
VERTEX
8
LOT_LINE
10
847.5181
20
-434.7705
30
0.0
0
VERTEX
8
LOT_LINE
10
922.4518
20
-431.6189
30
0.0
0
VERTEX
8
LOT_LINE
10
926.6539
20
-531.5306
30
0.0
0
VERTEX
8
LOT_LINE
10
851.7202
20
-534.6822
30
0.0
0
SEQEND
0
TEXT
8
TEXT-LABELS
7
STANDARD
10
887.0860
20
-483.1505
30
0.0
40
8.0
1
9
50
0.0
0
TEXT
8
DIM-LABELS
7
STANDARD
10
885.1320
20
-436.6916
30
0.0
40
5.5
1
75.0'
50
0.0
0
TEXT
8
DIM-LABELS
7
STANDARD
10
921.0560
20
-481.7218
30
0.0
40
5.5
1
100.0'
50
0.0
0
TEXT
8
DIM-LABELS
7
STANDARD
10
889.0400
20
-529.6095
30
0.0
40
5.5
1
75.0'
50
0.0
0
TEXT
8
DIM-LABELS
7
STANDARD
10
853.1160
20
-484.5793
30
0.0
40
5.5
1
100.0'
50
0.0
0
POLYLINE
8
LOT_LINE
66
1
70
1
0
VERTEX
8
LOT_LINE
10
922.4518
20
-431.6189
30
0.0
0
VERTEX
8
LOT_LINE
10
997.3856
20
-428.4673
30
0.0
0
VERTEX
8
LOT_LINE
10
1001.5877
20
-528.3790
30
0.0
0
VERTEX
8
LOT_LINE
10
926.6539
20
-531.5306
30
0.0
0
SEQEND
0
TEXT
8
TEXT-LABELS
7
STANDARD
10
962.0197
20
-479.9990
30
0.0
40
8.0
1
10
50
0.0
0
TEXT
8
DIM-LABELS
7
STANDARD
10
960.0658
20
-433.5400
30
0.0
40
5.5
1
75.0'
50
0.0
0
TEXT
8
DIM-LABELS
7
STANDARD
10
995.9897
20
-478.5703
30
0.0
40
5.5
1
100.0'
50
0.0
0
TEXT
8
DIM-LABELS
7
STANDARD
10
963.9737
20
-526.4579
30
0.0
40
5.5
1
75.0'
50
0.0
0
TEXT
8
DIM-LABELS
7
STANDARD
10
928.0498
20
-481.4277
30
0.0
40
5.5
1
100.0'
50
0.0
0
POLYLINE
8
LOT_LINE
66
1
70
1
0
VERTEX
8
LOT_LINE
10
997.3856
20
-428.4673
30
0.0
0
VERTEX
8
LOT_LINE
10
1072.3193
20
-425.3158
30
0.0
0
VERTEX
8
LOT_LINE
10
1076.5214
20
-525.2274
30
0.0
0
VERTEX
8
LOT_LINE
10
1001.5877
20
-528.3790
30
0.0
0
SEQEND
0
TEXT
8
TEXT-LABELS
7
STANDARD
10
1036.9535
20
-476.8474
30
0.0
40
8.0
1
11
50
0.0
0
TEXT
8
DIM-LABELS
7
STANDARD
10
1034.9995
20
-430.3885
30
0.0
40
5.5
1
75.0'
50
0.0
0
TEXT
8
DIM-LABELS
7
STANDARD
10
1070.9235
20
-475.4187
30
0.0
40
5.5
1
100.0'
50
0.0
0
TEXT
8
DIM-LABELS
7
STANDARD
10
1038.9075
20
-523.3063
30
0.0
40
5.5
1
75.0'
50
0.0
0
TEXT
8
DIM-LABELS
7
STANDARD
10
1002.9835
20
-478.2761
30
0.0
40
5.5
1
100.0'
50
0.0
0
POLYLINE
8
LOT_LINE
66
1
70
1
0
VERTEX
8
LOT_LINE
10
1072.3193
20
-425.3158
30
0.0
0
VERTEX
8
LOT_LINE
10
1147.2531
20
-422.1642
30
0.0
0
VERTEX
8
LOT_LINE
10
1151.4552
20
-522.0759
30
0.0
0
VERTEX
8
LOT_LINE
10
1076.5214
20
-525.2274
30
0.0
0
SEQEND
0
TEXT
8
TEXT-LABELS
7
STANDARD
10
1111.8873
20
-473.6958
30
0.0
40
8.0
1
12
50
0.0
0
TEXT
8
DIM-LABELS
7
STANDARD
10
1109.9333
20
-427.2369
30
0.0
40
5.5
1
75.0'
50
0.0
0
TEXT
8
DIM-LABELS
7
STANDARD
10
1145.8572
20
-472.2671
30
0.0
40
5.5
1
100.0'
50
0.0
0
TEXT
8
DIM-LABELS
7
STANDARD
10
1113.8412
20
-520.1547
30
0.0
40
5.5
1
75.0'
50
0.0
0
TEXT
8
DIM-LABELS
7
STANDARD
10
1077.9173
20
-475.1245
30
0.0
40
5.5
1
100.0'
50
0.0
0
POLYLINE
8
LOT_LINE
66
1
70
1
0
VERTEX
8
LOT_LINE
10
1147.2531
20
-422.1642
30
0.0
0
VERTEX
8
LOT_LINE
10
1222.1868
20
-419.0126
30
0.0
0
VERTEX
8
LOT_LINE
10
1226.3889
20
-518.9243
30
0.0
0
VERTEX
8
LOT_LINE
10
1151.4552
20
-522.0759
30
0.0
0
SEQEND
0
TEXT
8
TEXT-LABELS
7
STANDARD
10
1186.8210
20
-470.5442
30
0.0
40
8.0
1
13
50
0.0
0
TEXT
8
DIM-LABELS
7
STANDARD
10
1184.8670
20
-424.0853
30
0.0
40
5.5
1
75.0'
50
0.0
0
TEXT
8
DIM-LABELS
7
STANDARD
10
1220.7910
20
-469.1155
30
0.0
40
5.5
1
100.0'
50
0.0
0
TEXT
8
DIM-LABELS
7
STANDARD
10
1188.7750
20
-517.0032
30
0.0
40
5.5
1
75.0'
50
0.0
0
TEXT
8
DIM-LABELS
7
STANDARD
10
1152.8510
20
-471.9730
30
0.0
40
5.5
1
100.0'
50
0.0
0
POLYLINE
8
LOT_LINE
66
1
70
1
0
VERTEX
8
LOT_LINE
10
1222.1868
20
-419.0126
30
0.0
0
VERTEX
8
LOT_LINE
10
1297.1206
20
-415.8611
30
0.0
0
VERTEX
8
LOT_LINE
10
1301.3227
20
-515.7727
30
0.0
0
VERTEX
8
LOT_LINE
10
1226.3889
20
-518.9243
30
0.0
0
SEQEND
0
TEXT
8
TEXT-LABELS
7
STANDARD
10
1261.7548
20
-467.3927
30
0.0
40
8.0
1
14
50
0.0
0
TEXT
8
DIM-LABELS
7
STANDARD
10
1259.8008
20
-420.9337
30
0.0
40
5.5
1
75.0'
50
0.0
0
TEXT
8
DIM-LABELS
7
STANDARD
10
1295.7247
20
-465.9640
30
0.0
40
5.5
1
100.0'
50
0.0
0
TEXT
8
DIM-LABELS
7
STANDARD
10
1263.7087
20
-513.8516
30
0.0
40
5.5
1
75.0'
50
0.0
0
TEXT
8
DIM-LABELS
7
STANDARD
10
1227.7848
20
-468.8214
30
0.0
40
5.5
1
100.0'
50
0.0
0
POLYLINE
8
LOT_LINE
66
1
70
1
0
VERTEX
8
LOT_LINE
10
1297.1206
20
-415.8611
30
0.0
0
VERTEX
8
LOT_LINE
10
1372.0543
20
-412.7095
30
0.0
0
VERTEX
8
LOT_LINE
10
1376.2564
20
-512.6212
30
0.0
0
VERTEX
8
LOT_LINE
10
1301.3227
20
-515.7727
30
0.0
0
SEQEND
0
TEXT
8
TEXT-LABELS
7
STANDARD
10
1336.6885
20
-464.2411
30
0.0
40
8.0
1
15
50
0.0
0
TEXT
8
DIM-LABELS
7
STANDARD
10
1334.7345
20
-417.7822
30
0.0
40
5.5
1
75.0'
50
0.0
0
TEXT
8
DIM-LABELS
7
STANDARD
10
1370.6585
20
-462.8124
30
0.0
40
5.5
1
100.0'
50
0.0
0
TEXT
8
DIM-LABELS
7
STANDARD
10
1338.6425
20
-510.7000
30
0.0
40
5.5
1
75.0'
50
0.0
0
TEXT
8
DIM-LABELS
7
STANDARD
10
1302.7186
20
-465.6698
30
0.0
40
5.5
1
100.0'
50
0.0
0
POLYLINE
8
LOT_LINE
66
1
70
1
0
VERTEX
8
LOT_LINE
10
1372.0543
20
-412.7095
30
0.0
0
VERTEX
8
LOT_LINE
10
1446.9881
20
-409.5579
30
0.0
0
VERTEX
8
LOT_LINE
10
1451.1902
20
-509.4696
30
0.0
0
VERTEX
8
LOT_LINE
10
1376.2564
20
-512.6212
30
0.0
0
SEQEND
0
TEXT
8
TEXT-LABELS
7
STANDARD
10
1411.6223
20
-461.0895
30
0.0
40
8.0
1
16
50
0.0
0
TEXT
8
DIM-LABELS
7
STANDARD
10
1409.6683
20
-414.6306
30
0.0
40
5.5
1
75.0'
50
0.0
0
TEXT
8
DIM-LABELS
7
STANDARD
10
1445.5922
20
-459.6608
30
0.0
40
5.5
1
100.0'
50
0.0
0
TEXT
8
DIM-LABELS
7
STANDARD
10
1413.5762
20
-507.5485
30
0.0
40
5.5
1
75.0'
50
0.0
0
TEXT
8
DIM-LABELS
7
STANDARD
10
1377.6523
20
-462.5182
30
0.0
40
5.5
1
100.0'
50
0.0
0
POLYLINE
8
CURVE
66
1
70
0
0
VERTEX
8
CURVE
10
1521.9219
20
-406.4063
30
0.0
0
VERTEX
8
CURVE
10
1522.0351
20
-412.6553
30
0.0
0
VERTEX
8
CURVE
10
1522.1682
20
-418.9039
30
0.0
0
VERTEX
8
CURVE
10
1522.3213
20
-425.1520
30
0.0
0
VERTEX
8
CURVE
10
1522.4943
20
-431.3996
30
0.0
0
VERTEX
8
CURVE
10
1522.6872
20
-437.6466
30
0.0
0
VERTEX
8
CURVE
10
1522.9000
20
-443.8930
30
0.0
0
VERTEX
8
CURVE
10
1523.1328
20
-450.1387
30
0.0
0
VERTEX
8
CURVE
10
1523.3855
20
-456.3836
30
0.0
0
VERTEX
8
CURVE
10
1523.6581
20
-462.6276
30
0.0
0
VERTEX
8
CURVE
10
1523.9506
20
-468.8708
30
0.0
0
VERTEX
8
CURVE
10
1524.2630
20
-475.1129
30
0.0
0
VERTEX
8
CURVE
10
1524.5953
20
-481.3541
30
0.0
0
VERTEX
8
CURVE
10
1524.9475
20
-487.5942
30
0.0
0
VERTEX
8
CURVE
10
1525.3196
20
-493.8331
30
0.0
0
VERTEX
8
CURVE
10
1525.7116
20
-500.0708
30
0.0
0
VERTEX
8
CURVE
10
1526.1235
20
-506.3072
30
0.0
0
SEQEND
0
POLYLINE
8
LOT_LINE
66
1
70
1
0
VERTEX
8
LOT_LINE
10
1446.9881
20
-409.5579
30
0.0
0
VERTEX
8
LOT_LINE
10
1521.9219
20
-406.4063
30
0.0
0
VERTEX
8
LOT_LINE
10
1522.0351
20
-412.6553
30
0.0
0
VERTEX
8
LOT_LINE
10
1522.1682
20
-418.9039
30
0.0
0
VERTEX
8
LOT_LINE
10
1522.3213
20
-425.1520
30
0.0
0
VERTEX
8
LOT_LINE
10
1522.4943
20
-431.3996
30
0.0
0
VERTEX
8
LOT_LINE
10
1522.6872
20
-437.6466
30
0.0
0
VERTEX
8
LOT_LINE
10
1522.9000
20
-443.8930
30
0.0
0
VERTEX
8
LOT_LINE
10
1523.1328
20
-450.1387
30
0.0
0
VERTEX
8
LOT_LINE
10
1523.3855
20
-456.3836
30
0.0
0
VERTEX
8
LOT_LINE
10
1523.6581
20
-462.6276
30
0.0
0
VERTEX
8
LOT_LINE
10
1523.9506
20
-468.8708
30
0.0
0
VERTEX
8
LOT_LINE
10
1524.2630
20
-475.1129
30
0.0
0
VERTEX
8
LOT_LINE
10
1524.5953
20
-481.3541
30
0.0
0
VERTEX
8
LOT_LINE
10
1524.9475
20
-487.5942
30
0.0
0
VERTEX
8
LOT_LINE
10
1525.3196
20
-493.8331
30
0.0
0
VERTEX
8
LOT_LINE
10
1525.7116
20
-500.0708
30
0.0
0
VERTEX
8
LOT_LINE
10
1526.1240
20
-506.3180
30
0.0
0
VERTEX
8
LOT_LINE
10
1451.1902
20
-509.4696
30
0.0
0
SEQEND
0
TEXT
8
TEXT-LABELS
7
STANDARD
10
1486.5560
20
-457.9380
30
0.0
40
8.0
1
17
50
0.0
0
TEXT
8
DIM-LABELS
7
STANDARD
10
1484.6021
20
-411.4790
30
0.0
40
5.5
1
75.0'
50
0.0
0
TEXT
8
DIM-LABELS
7
STANDARD
10
1520.5260
20
-456.5092
30
0.0
40
5.5
1
100.0'
50
0.0
0
TEXT
8
DIM-LABELS
7
STANDARD
10
1488.5100
20
-504.3969
30
0.0
40
5.5
1
75.0'
50
0.0
0
TEXT
8
DIM-LABELS
7
STANDARD
10
1452.5861
20
-459.3667
30
0.0
40
5.5
1
100.0'
50
0.0
0
POLYLINE
8
LOT_LINE
66
1
70
1
0
VERTEX
8
LOT_LINE
10
233.7665
20
-560.6721
30
0.0
0
VERTEX
8
LOT_LINE
10
327.1839
20
-556.7432
30
0.0
0
VERTEX
8
LOT_LINE
10
331.3860
20
-656.6548
30
0.0
0
VERTEX
8
LOT_LINE
10
237.9686
20
-660.5838
30
0.0
0
SEQEND
0
TEXT
8
TEXT-LABELS
7
STANDARD
10
282.5762
20
-608.6635
30
0.0
40
8.0
1
34
50
0.0
0
TEXT
8
DIM-LABELS
7
STANDARD
10
280.6222
20
-562.2046
30
0.0
40
5.5
1
93.5'
50
0.0
0
TEXT
8
DIM-LABELS
7
STANDARD
10
325.7880
20
-606.8461
30
0.0
40
5.5
1
100.0'
50
0.0
0
TEXT
8
DIM-LABELS
7
STANDARD
10
284.5302
20
-655.1224
30
0.0
40
5.5
1
93.5'
50
0.0
0
TEXT
8
DIM-LABELS
7
STANDARD
10
239.3644
20
-610.4809
30
0.0
40
5.5
1
100.0'
50
0.0
0
POLYLINE
8
LOT_LINE
66
1
70
1
0
VERTEX
8
LOT_LINE
10
327.1839
20
-556.7432
30
0.0
0
VERTEX
8
LOT_LINE
10
402.1176
20
-553.5916
30
0.0
0
VERTEX
8
LOT_LINE
10
406.3197
20
-653.5033
30
0.0
0
VERTEX
8
LOT_LINE
10
331.3860
20
-656.6548
30
0.0
0
SEQEND
0
TEXT
8
TEXT-LABELS
7
STANDARD
10
366.7518
20
-605.1232
30
0.0
40
8.0
1
33
50
0.0
0
TEXT
8
DIM-LABELS
7
STANDARD
10
364.7978
20
-558.6643
30
0.0
40
5.5
1
75.0'
50
0.0
0
TEXT
8
DIM-LABELS
7
STANDARD
10
400.7218
20
-603.6945
30
0.0
40
5.5
1
100.0'
50
0.0
0
TEXT
8
DIM-LABELS
7
STANDARD
10
368.7058
20
-651.5821
30
0.0
40
5.5
1
75.0'
50
0.0
0
TEXT
8
DIM-LABELS
7
STANDARD
10
332.7818
20
-606.5519
30
0.0
40
5.5
1
100.0'
50
0.0
0
POLYLINE
8
LOT_LINE
66
1
70
1
0
VERTEX
8
LOT_LINE
10
402.1176
20
-553.5916
30
0.0
0
VERTEX
8
LOT_LINE
10
491.7984
20
-549.8198
30
0.0
0
VERTEX
8
LOT_LINE
10
496.0004
20
-649.7315
30
0.0
0
VERTEX
8
LOT_LINE
10
406.3197
20
-653.5033
30
0.0
0
SEQEND
0
TEXT
8
TEXT-LABELS
7
STANDARD
10
449.0590
20
-601.6615
30
0.0
40
8.0
1
32
50
0.0
0
TEXT
8
DIM-LABELS
7
STANDARD
10
447.1051
20
-555.2026
30
0.0
40
5.5
1
89.8'
50
0.0
0
TEXT
8
DIM-LABELS
7
STANDARD
10
490.4025
20
-599.9227
30
0.0
40
5.5
1
100.0'
50
0.0
0
TEXT
8
DIM-LABELS
7
STANDARD
10
451.0130
20
-648.1205
30
0.0
40
5.5
1
89.8'
50
0.0
0
TEXT
8
DIM-LABELS
7
STANDARD
10
407.7156
20
-603.4004
30
0.0
40
5.5
1
100.0'
50
0.0
0
POLYLINE
8
CURVE
66
1
70
0
0
VERTEX
8
CURVE
10
581.0441
20
-655.4953
30
0.0
0
VERTEX
8
CURVE
10
575.7834
20
-654.5895
30
0.0
0
VERTEX
8
CURVE
10
570.5108
20
-653.7559
30
0.0
0
VERTEX
8
CURVE
10
565.2273
20
-652.9946
30
0.0
0
VERTEX
8
CURVE
10
559.9338
20
-652.3059
30
0.0
0
VERTEX
8
CURVE
10
554.6314
20
-651.6898
30
0.0
0
VERTEX
8
CURVE
10
549.3211
20
-651.1465
30
0.0
0
VERTEX
8
CURVE
10
544.0038
20
-650.6761
30
0.0
0
VERTEX
8
CURVE
10
538.6805
20
-650.2786
30
0.0
0
VERTEX
8
CURVE
10
533.3523
20
-649.9542
30
0.0
0
VERTEX
8
CURVE
10
528.0201
20
-649.7028
30
0.0
0
VERTEX
8
CURVE
10
522.6850
20
-649.5246
30
0.0
0
VERTEX
8
CURVE
10
517.3480
20
-649.4196
30
0.0
0
VERTEX
8
CURVE
10
512.0100
20
-649.3878
30
0.0
0
VERTEX
8
CURVE
10
506.6721
20
-649.4292
30
0.0
0
VERTEX
8
CURVE
10
501.3352
20
-649.5437
30
0.0
0
VERTEX
8
CURVE
10
496.0005
20
-649.7315
30
0.0
0
SEQEND
0
POLYLINE
8
LOT_LINE
66
1
70
1
0
VERTEX
8
LOT_LINE
10
491.7984
20
-549.8198
30
0.0
0
VERTEX
8
LOT_LINE
10
601.7012
20
-545.1975
30
0.0
0
VERTEX
8
LOT_LINE
10
581.0441
20
-655.4953
30
0.0
0
VERTEX
8
LOT_LINE
10
575.7834
20
-654.5895
30
0.0
0
VERTEX
8
LOT_LINE
10
570.5108
20
-653.7559
30
0.0
0
VERTEX
8
LOT_LINE
10
565.2273
20
-652.9946
30
0.0
0
VERTEX
8
LOT_LINE
10
559.9338
20
-652.3059
30
0.0
0
VERTEX
8
LOT_LINE
10
554.6314
20
-651.6898
30
0.0
0
VERTEX
8
LOT_LINE
10
549.3211
20
-651.1465
30
0.0
0
VERTEX
8
LOT_LINE
10
544.0038
20
-650.6761
30
0.0
0
VERTEX
8
LOT_LINE
10
538.6805
20
-650.2786
30
0.0
0
VERTEX
8
LOT_LINE
10
533.3523
20
-649.9542
30
0.0
0
VERTEX
8
LOT_LINE
10
528.0201
20
-649.7028
30
0.0
0
VERTEX
8
LOT_LINE
10
522.6850
20
-649.5246
30
0.0
0
VERTEX
8
LOT_LINE
10
517.3480
20
-649.4196
30
0.0
0
VERTEX
8
LOT_LINE
10
512.0100
20
-649.3878
30
0.0
0
VERTEX
8
LOT_LINE
10
506.6721
20
-649.4292
30
0.0
0
VERTEX
8
LOT_LINE
10
501.3352
20
-649.5437
30
0.0
0
VERTEX
8
LOT_LINE
10
496.0004
20
-649.7315
30
0.0
0
SEQEND
0
TEXT
8
TEXT-LABELS
7
STANDARD
10
542.6360
20
-600.0610
30
0.0
40
8.0
1
31
50
0.0
0
TEXT
8
DIM-LABELS
7
STANDARD
10
546.8968
20
-551.0056
30
0.0
40
5.5
1
110.0'
50
0.0
0
TEXT
8
DIM-LABELS
7
STANDARD
10
587.9324
20
-599.7021
30
0.0
40
5.5
1
112.2'
50
0.0
0
TEXT
8
DIM-LABELS
7
STANDARD
10
538.7589
20
-649.1214
30
0.0
40
5.5
1
85.2'
50
0.0
0
TEXT
8
DIM-LABELS
7
STANDARD
10
497.3963
20
-599.6286
30
0.0
40
5.5
1
100.0'
50
0.0
0
POLYLINE
8
CURVE
66
1
70
0
0
VERTEX
8
CURVE
10
662.7943
20
-679.6311
30
0.0
0
VERTEX
8
CURVE
10
657.8569
20
-677.6020
30
0.0
0
VERTEX
8
CURVE
10
652.8922
20
-675.6407
30
0.0
0
VERTEX
8
CURVE
10
647.9010
20
-673.7478
30
0.0
0
VERTEX
8
CURVE
10
642.8844
20
-671.9234
30
0.0
0
VERTEX
8
CURVE
10
637.8432
20
-670.1680
30
0.0
0
VERTEX
8
CURVE
10
632.7784
20
-668.4819
30
0.0
0
VERTEX
8
CURVE
10
627.6909
20
-666.8654
30
0.0
0
VERTEX
8
CURVE
10
622.5818
20
-665.3189
30
0.0
0
VERTEX
8
CURVE
10
617.4519
20
-663.8425
30
0.0
0
VERTEX
8
CURVE
10
612.3023
20
-662.4366
30
0.0
0
VERTEX
8
CURVE
10
607.1339
20
-661.1015
30
0.0
0
VERTEX
8
CURVE
10
601.9477
20
-659.8373
30
0.0
0
VERTEX
8
CURVE
10
596.7446
20
-658.6444
30
0.0
0
VERTEX
8
CURVE
10
591.5256
20
-657.5230
30
0.0
0
VERTEX
8
CURVE
10
586.2918
20
-656.4732
30
0.0
0
VERTEX
8
CURVE
10
581.0441
20
-655.4953
30
0.0
0
SEQEND
0
POLYLINE
8
LOT_LINE
66
1
70
1
0
VERTEX
8
LOT_LINE
10
601.7012
20
-545.1975
30
0.0
0
VERTEX
8
LOT_LINE
10
711.6040
20
-540.5752
30
0.0
0
VERTEX
8
LOT_LINE
10
662.7943
20
-679.6311
30
0.0
0
VERTEX
8
LOT_LINE
10
657.8569
20
-677.6020
30
0.0
0
VERTEX
8
LOT_LINE
10
652.8922
20
-675.6407
30
0.0
0
VERTEX
8
LOT_LINE
10
647.9010
20
-673.7478
30
0.0
0
VERTEX
8
LOT_LINE
10
642.8844
20
-671.9234
30
0.0
0
VERTEX
8
LOT_LINE
10
637.8432
20
-670.1680
30
0.0
0
VERTEX
8
LOT_LINE
10
632.7784
20
-668.4819
30
0.0
0
VERTEX
8
LOT_LINE
10
627.6909
20
-666.8654
30
0.0
0
VERTEX
8
LOT_LINE
10
622.5818
20
-665.3189
30
0.0
0
VERTEX
8
LOT_LINE
10
617.4519
20
-663.8425
30
0.0
0
VERTEX
8
LOT_LINE
10
612.3023
20
-662.4366
30
0.0
0
VERTEX
8
LOT_LINE
10
607.1339
20
-661.1015
30
0.0
0
VERTEX
8
LOT_LINE
10
601.9477
20
-659.8373
30
0.0
0
VERTEX
8
LOT_LINE
10
596.7446
20
-658.6444
30
0.0
0
VERTEX
8
LOT_LINE
10
591.5256
20
-657.5230
30
0.0
0
VERTEX
8
LOT_LINE
10
586.2918
20
-656.4732
30
0.0
0
VERTEX
8
LOT_LINE
10
581.0441
20
-655.4953
30
0.0
0
SEQEND
0
TEXT
8
TEXT-LABELS
7
STANDARD
10
639.2859
20
-605.2248
30
0.0
40
8.0
1
30
50
0.0
0
TEXT
8
DIM-LABELS
7
STANDARD
10
656.7997
20
-546.3832
30
0.0
40
5.5
1
110.0'
50
0.0
0
TEXT
8
DIM-LABELS
7
STANDARD
10
683.8967
20
-608.9440
30
0.0
40
5.5
1
147.4'
50
0.0
0
TEXT
8
DIM-LABELS
7
STANDARD
10
622.9102
20
-664.2065
30
0.0
40
5.5
1
85.2'
50
0.0
0
TEXT
8
DIM-LABELS
7
STANDARD
10
594.8128
20
-600.9907
30
0.0
40
5.5
1
112.2'
50
0.0
0
POLYLINE
8
CURVE
66
1
70
0
0
VERTEX
8
CURVE
10
737.3314
20
-720.9816
30
0.0
0
VERTEX
8
CURVE
10
732.9540
20
-717.9264
30
0.0
0
VERTEX
8
CURVE
10
728.5352
20
-714.9316
30
0.0
0
VERTEX
8
CURVE
10
724.0757
20
-711.9977
30
0.0
0
VERTEX
8
CURVE
10
719.5764
20
-709.1252
30
0.0
0
VERTEX
8
CURVE
10
715.0381
20
-706.3146
30
0.0
0
VERTEX
8
CURVE
10
710.4617
20
-703.5666
30
0.0
0
VERTEX
8
CURVE
10
705.8481
20
-700.8815
30
0.0
0
VERTEX
8
CURVE
10
701.1981
20
-698.2600
30
0.0
0
VERTEX
8
CURVE
10
696.5125
20
-695.7025
30
0.0
0
VERTEX
8
CURVE
10
691.7924
20
-693.2095
30
0.0
0
VERTEX
8
CURVE
10
687.0385
20
-690.7814
30
0.0
0
VERTEX
8
CURVE
10
682.2517
20
-688.4188
30
0.0
0
VERTEX
8
CURVE
10
677.4330
20
-686.1220
30
0.0
0
VERTEX
8
CURVE
10
672.5833
20
-683.8915
30
0.0
0
VERTEX
8
CURVE
10
667.7034
20
-681.7278
30
0.0
0
VERTEX
8
CURVE
10
662.7943
20
-679.6311
30
0.0
0
SEQEND
0
POLYLINE
8
LOT_LINE
66
1
70
1
0
VERTEX
8
LOT_LINE
10
711.6040
20
-540.5752
30
0.0
0
VERTEX
8
LOT_LINE
10
821.5069
20
-535.9529
30
0.0
0
VERTEX
8
LOT_LINE
10
737.3314
20
-720.9816
30
0.0
0
VERTEX
8
LOT_LINE
10
732.9540
20
-717.9264
30
0.0
0
VERTEX
8
LOT_LINE
10
728.5352
20
-714.9316
30
0.0
0
VERTEX
8
LOT_LINE
10
724.0757
20
-711.9977
30
0.0
0
VERTEX
8
LOT_LINE
10
719.5764
20
-709.1252
30
0.0
0
VERTEX
8
LOT_LINE
10
715.0381
20
-706.3146
30
0.0
0
VERTEX
8
LOT_LINE
10
710.4617
20
-703.5666
30
0.0
0
VERTEX
8
LOT_LINE
10
705.8481
20
-700.8815
30
0.0
0
VERTEX
8
LOT_LINE
10
701.1981
20
-698.2600
30
0.0
0
VERTEX
8
LOT_LINE
10
696.5125
20
-695.7025
30
0.0
0
VERTEX
8
LOT_LINE
10
691.7924
20
-693.2095
30
0.0
0
VERTEX
8
LOT_LINE
10
687.0385
20
-690.7814
30
0.0
0
VERTEX
8
LOT_LINE
10
682.2517
20
-688.4188
30
0.0
0
VERTEX
8
LOT_LINE
10
677.4330
20
-686.1220
30
0.0
0
VERTEX
8
LOT_LINE
10
672.5833
20
-683.8915
30
0.0
0
VERTEX
8
LOT_LINE
10
667.7034
20
-681.7278
30
0.0
0
VERTEX
8
LOT_LINE
10
662.7943
20
-679.6311
30
0.0
0
SEQEND
0
TEXT
8
TEXT-LABELS
7
STANDARD
10
733.3091
20
-619.2852
30
0.0
40
8.0
1
29
50
0.0
0
TEXT
8
DIM-LABELS
7
STANDARD
10
766.7025
20
-541.7609
30
0.0
40
5.5
1
110.0'
50
0.0
0
TEXT
8
DIM-LABELS
7
STANDARD
10
776.2333
20
-627.0179
30
0.0
40
5.5
1
203.3'
50
0.0
0
TEXT
8
DIM-LABELS
7
STANDARD
10
701.7607
20
-697.2458
30
0.0
40
5.5
1
85.2'
50
0.0
0
TEXT
8
DIM-LABELS
7
STANDARD
10
690.5016
20
-611.2623
30
0.0
40
5.5
1
147.4'
50
0.0
0
POLYLINE
8
LOT_LINE
66
1
70
1
0
VERTEX
8
LOT_LINE
10
821.5069
20
-535.9529
30
0.0
0
VERTEX
8
LOT_LINE
10
926.6539
20
-531.5306
30
0.0
0
VERTEX
8
LOT_LINE
10
972.1729
20
-638.6178
30
0.0
0
VERTEX
8
LOT_LINE
10
737.3314
20
-720.9816
30
0.0
0
SEQEND
0
TEXT
8
TEXT-LABELS
7
STANDARD
10
864.4163
20
-606.7707
30
0.0
40
8.0
1
28
50
0.0
0
TEXT
8
DIM-LABELS
7
STANDARD
10
874.2275
20
-537.2386
30
0.0
40
5.5
1
105.2'
50
0.0
0
TEXT
8
DIM-LABELS
7
STANDARD
10
946.1923
20
-586.4434
30
0.0
40
5.5
1
116.4'
50
0.0
0
TEXT
8
DIM-LABELS
7
STANDARD
10
853.5938
20
-676.4969
30
0.0
40
5.5
1
248.9'
50
0.0
0
TEXT
8
DIM-LABELS
7
STANDARD
10
782.6050
20
-629.9166
30
0.0
40
5.5
1
203.3'
50
0.0
0
POLYLINE
8
LOT_LINE
66
1
70
1
0
VERTEX
8
LOT_LINE
10
926.6539
20
-531.5306
30
0.0
0
VERTEX
8
LOT_LINE
10
1001.5877
20
-528.3790
30
0.0
0
VERTEX
8
LOT_LINE
10
1005.7898
20
-628.2907
30
0.0
0
VERTEX
8
LOT_LINE
10
930.8560
20
-631.4423
30
0.0
0
SEQEND
0
TEXT
8
TEXT-LABELS
7
STANDARD
10
966.2218
20
-579.9106
30
0.0
40
8.0
1
27
50
0.0
0
TEXT
8
DIM-LABELS
7
STANDARD
10
964.2679
20
-533.4517
30
0.0
40
5.5
1
75.0'
50
0.0
0
TEXT
8
DIM-LABELS
7
STANDARD
10
1000.1918
20
-578.4819
30
0.0
40
5.5
1
100.0'
50
0.0
0
TEXT
8
DIM-LABELS
7
STANDARD
10
968.1758
20
-626.3696
30
0.0
40
5.5
1
75.0'
50
0.0
0
TEXT
8
DIM-LABELS
7
STANDARD
10
932.2519
20
-581.3394
30
0.0
40
5.5
1
100.0'
50
0.0
0
POLYLINE
8
LOT_LINE
66
1
70
1
0
VERTEX
8
LOT_LINE
10
1001.5877
20
-528.3790
30
0.0
0
VERTEX
8
LOT_LINE
10
1076.5214
20
-525.2274
30
0.0
0
VERTEX
8
LOT_LINE
10
1080.7235
20
-625.1391
30
0.0
0
VERTEX
8
LOT_LINE
10
1005.7898
20
-628.2907
30
0.0
0
SEQEND
0
TEXT
8
TEXT-LABELS
7
STANDARD
10
1041.1556
20
-576.7591
30
0.0
40
8.0
1
26
50
0.0
0
TEXT
8
DIM-LABELS
7
STANDARD
10
1039.2016
20
-530.3001
30
0.0
40
5.5
1
75.0'
50
0.0
0
TEXT
8
DIM-LABELS
7
STANDARD
10
1075.1256
20
-575.3304
30
0.0
40
5.5
1
100.0'
50
0.0
0
TEXT
8
DIM-LABELS
7
STANDARD
10
1043.1096
20
-623.2180
30
0.0
40
5.5
1
75.0'
50
0.0
0
TEXT
8
DIM-LABELS
7
STANDARD
10
1007.1856
20
-578.1878
30
0.0
40
5.5
1
100.0'
50
0.0
0
POLYLINE
8
LOT_LINE
66
1
70
1
0
VERTEX
8
LOT_LINE
10
1076.5214
20
-525.2274
30
0.0
0
VERTEX
8
LOT_LINE
10
1151.4552
20
-522.0759
30
0.0
0
VERTEX
8
LOT_LINE
10
1155.6573
20
-621.9875
30
0.0
0
VERTEX
8
LOT_LINE
10
1080.7235
20
-625.1391
30
0.0
0
SEQEND
0
TEXT
8
TEXT-LABELS
7
STANDARD
10
1116.0894
20
-573.6075
30
0.0
40
8.0
1
25
50
0.0
0
TEXT
8
DIM-LABELS
7
STANDARD
10
1114.1354
20
-527.1486
30
0.0
40
5.5
1
75.0'
50
0.0
0
TEXT
8
DIM-LABELS
7
STANDARD
10
1150.0593
20
-572.1788
30
0.0
40
5.5
1
100.0'
50
0.0
0
TEXT
8
DIM-LABELS
7
STANDARD
10
1118.0433
20
-620.0664
30
0.0
40
5.5
1
75.0'
50
0.0
0
TEXT
8
DIM-LABELS
7
STANDARD
10
1082.1194
20
-575.0362
30
0.0
40
5.5
1
100.0'
50
0.0
0
POLYLINE
8
LOT_LINE
66
1
70
1
0
VERTEX
8
LOT_LINE
10
1151.4552
20
-522.0759
30
0.0
0
VERTEX
8
LOT_LINE
10
1226.3889
20
-518.9243
30
0.0
0
VERTEX
8
LOT_LINE
10
1230.5910
20
-618.8360
30
0.0
0
VERTEX
8
LOT_LINE
10
1155.6573
20
-621.9875
30
0.0
0
SEQEND
0
TEXT
8
TEXT-LABELS
7
STANDARD
10
1191.0231
20
-570.4559
30
0.0
40
8.0
1
24
50
0.0
0
TEXT
8
DIM-LABELS
7
STANDARD
10
1189.0691
20
-523.9970
30
0.0
40
5.5
1
75.0'
50
0.0
0
TEXT
8
DIM-LABELS
7
STANDARD
10
1224.9931
20
-569.0272
30
0.0
40
5.5
1
100.0'
50
0.0
0
TEXT
8
DIM-LABELS
7
STANDARD
10
1192.9771
20
-616.9148
30
0.0
40
5.5
1
75.0'
50
0.0
0
TEXT
8
DIM-LABELS
7
STANDARD
10
1157.0531
20
-571.8846
30
0.0
40
5.5
1
100.0'
50
0.0
0
POLYLINE
8
LOT_LINE
66
1
70
1
0
VERTEX
8
LOT_LINE
10
1226.3889
20
-518.9243
30
0.0
0
VERTEX
8
LOT_LINE
10
1301.3227
20
-515.7727
30
0.0
0
VERTEX
8
LOT_LINE
10
1305.5248
20
-615.6844
30
0.0
0
VERTEX
8
LOT_LINE
10
1230.5910
20
-618.8360
30
0.0
0
SEQEND
0
TEXT
8
TEXT-LABELS
7
STANDARD
10
1265.9569
20
-567.3043
30
0.0
40
8.0
1
23
50
0.0
0
TEXT
8
DIM-LABELS
7
STANDARD
10
1264.0029
20
-520.8454
30
0.0
40
5.5
1
75.0'
50
0.0
0
TEXT
8
DIM-LABELS
7
STANDARD
10
1299.9268
20
-565.8756
30
0.0
40
5.5
1
100.0'
50
0.0
0
TEXT
8
DIM-LABELS
7
STANDARD
10
1267.9108
20
-613.7633
30
0.0
40
5.5
1
75.0'
50
0.0
0
TEXT
8
DIM-LABELS
7
STANDARD
10
1231.9869
20
-568.7331
30
0.0
40
5.5
1
100.0'
50
0.0
0
POLYLINE
8
LOT_LINE
66
1
70
1
0
VERTEX
8
LOT_LINE
10
1301.3227
20
-515.7727
30
0.0
0
VERTEX
8
LOT_LINE
10
1376.2564
20
-512.6212
30
0.0
0
VERTEX
8
LOT_LINE
10
1380.4585
20
-612.5328
30
0.0
0
VERTEX
8
LOT_LINE
10
1305.5248
20
-615.6844
30
0.0
0
SEQEND
0
TEXT
8
TEXT-LABELS
7
STANDARD
10
1340.8906
20
-564.1528
30
0.0
40
8.0
1
22
50
0.0
0
TEXT
8
DIM-LABELS
7
STANDARD
10
1338.9366
20
-517.6938
30
0.0
40
5.5
1
75.0'
50
0.0
0
TEXT
8
DIM-LABELS
7
STANDARD
10
1374.8606
20
-562.7241
30
0.0
40
5.5
1
100.0'
50
0.0
0
TEXT
8
DIM-LABELS
7
STANDARD
10
1342.8446
20
-610.6117
30
0.0
40
5.5
1
75.0'
50
0.0
0
TEXT
8
DIM-LABELS
7
STANDARD
10
1306.9206
20
-565.5815
30
0.0
40
5.5
1
100.0'
50
0.0
0
POLYLINE
8
LOT_LINE
66
1
70
1
0
VERTEX
8
LOT_LINE
10
1376.2564
20
-512.6212
30
0.0
0
VERTEX
8
LOT_LINE
10
1451.1902
20
-509.4696
30
0.0
0
VERTEX
8
LOT_LINE
10
1455.3923
20
-609.3813
30
0.0
0
VERTEX
8
LOT_LINE
10
1380.4585
20
-612.5328
30
0.0
0
SEQEND
0
TEXT
8
TEXT-LABELS
7
STANDARD
10
1415.8244
20
-561.0012
30
0.0
40
8.0
1
21
50
0.0
0
TEXT
8
DIM-LABELS
7
STANDARD
10
1413.8704
20
-514.5423
30
0.0
40
5.5
1
75.0'
50
0.0
0
TEXT
8
DIM-LABELS
7
STANDARD
10
1449.7943
20
-559.5725
30
0.0
40
5.5
1
100.0'
50
0.0
0
TEXT
8
DIM-LABELS
7
STANDARD
10
1417.7783
20
-607.4601
30
0.0
40
5.5
1
75.0'
50
0.0
0
TEXT
8
DIM-LABELS
7
STANDARD
10
1381.8544
20
-562.4299
30
0.0
40
5.5
1
100.0'
50
0.0
0
POLYLINE
8
LOT_LINE
66
1
70
1
0
VERTEX
8
LOT_LINE
10
1451.1902
20
-509.4696
30
0.0
0
VERTEX
8
LOT_LINE
10
1526.1240
20
-506.3180
30
0.0
0
VERTEX
8
LOT_LINE
10
1530.3261
20
-606.2297
30
0.0
0
VERTEX
8
LOT_LINE
10
1455.3923
20
-609.3813
30
0.0
0
SEQEND
0
TEXT
8
TEXT-LABELS
7
STANDARD
10
1490.7581
20
-557.8496
30
0.0
40
8.0
1
20
50
0.0
0
TEXT
8
DIM-LABELS
7
STANDARD
10
1488.8042
20
-511.3907
30
0.0
40
5.5
1
75.0'
50
0.0
0
TEXT
8
DIM-LABELS
7
STANDARD
10
1524.7281
20
-556.4209
30
0.0
40
5.5
1
100.0'
50
0.0
0
TEXT
8
DIM-LABELS
7
STANDARD
10
1492.7121
20
-604.3086
30
0.0
40
5.5
1
75.0'
50
0.0
0
TEXT
8
DIM-LABELS
7
STANDARD
10
1456.7882
20
-559.2783
30
0.0
40
5.5
1
100.0'
50
0.0
0
POLYLINE
8
LOT_LINE
66
1
70
1
0
VERTEX
8
LOT_LINE
10
1526.1240
20
-506.3180
30
0.0
0
VERTEX
8
LOT_LINE
10
1601.0577
20
-503.1664
30
0.0
0
VERTEX
8
LOT_LINE
10
1605.2598
20
-603.0781
30
0.0
0
VERTEX
8
LOT_LINE
10
1530.3261
20
-606.2297
30
0.0
0
SEQEND
0
TEXT
8
TEXT-LABELS
7
STANDARD
10
1565.6919
20
-554.6981
30
0.0
40
8.0
1
19
50
0.0
0
TEXT
8
DIM-LABELS
7
STANDARD
10
1563.7379
20
-508.2391
30
0.0
40
5.5
1
75.0'
50
0.0
0
TEXT
8
DIM-LABELS
7
STANDARD
10
1599.6618
20
-553.2693
30
0.0
40
5.5
1
100.0'
50
0.0
0
TEXT
8
DIM-LABELS
7
STANDARD
10
1567.6459
20
-601.1570
30
0.0
40
5.5
1
75.0'
50
0.0
0
TEXT
8
DIM-LABELS
7
STANDARD
10
1531.7219
20
-556.1268
30
0.0
40
5.5
1
100.0'
50
0.0
0
POLYLINE
8
CURVE
66
1
70
0
0
VERTEX
8
CURVE
10
1675.9915
20
-500.0149
30
0.0
0
VERTEX
8
CURVE
10
1676.1047
20
-506.2638
30
0.0
0
VERTEX
8
CURVE
10
1676.2378
20
-512.5124
30
0.0
0
VERTEX
8
CURVE
10
1676.3909
20
-518.7605
30
0.0
0
VERTEX
8
CURVE
10
1676.5639
20
-525.0081
30
0.0
0
VERTEX
8
CURVE
10
1676.7568
20
-531.2552
30
0.0
0
VERTEX
8
CURVE
10
1676.9697
20
-537.5015
30
0.0
0
VERTEX
8
CURVE
10
1677.2024
20
-543.7472
30
0.0
0
VERTEX
8
CURVE
10
1677.4551
20
-549.9921
30
0.0
0
VERTEX
8
CURVE
10
1677.7277
20
-556.2361
30
0.0
0
VERTEX
8
CURVE
10
1678.0202
20
-562.4793
30
0.0
0
VERTEX
8
CURVE
10
1678.3326
20
-568.7215
30
0.0
0
VERTEX
8
CURVE
10
1678.6649
20
-574.9626
30
0.0
0
VERTEX
8
CURVE
10
1679.0171
20
-581.2027
30
0.0
0
VERTEX
8
CURVE
10
1679.3892
20
-587.4416
30
0.0
0
VERTEX
8
CURVE
10
1679.7812
20
-593.6793
30
0.0
0
VERTEX
8
CURVE
10
1680.1931
20
-599.9157
30
0.0
0
SEQEND
0
POLYLINE
8
LOT_LINE
66
1
70
1
0
VERTEX
8
LOT_LINE
10
1601.0577
20
-503.1664
30
0.0
0
VERTEX
8
LOT_LINE
10
1675.9915
20
-500.0149
30
0.0
0
VERTEX
8
LOT_LINE
10
1676.1047
20
-506.2638
30
0.0
0
VERTEX
8
LOT_LINE
10
1676.2378
20
-512.5124
30
0.0
0
VERTEX
8
LOT_LINE
10
1676.3909
20
-518.7605
30
0.0
0
VERTEX
8
LOT_LINE
10
1676.5639
20
-525.0081
30
0.0
0
VERTEX
8
LOT_LINE
10
1676.7568
20
-531.2552
30
0.0
0
VERTEX
8
LOT_LINE
10
1676.9697
20
-537.5015
30
0.0
0
VERTEX
8
LOT_LINE
10
1677.2024
20
-543.7472
30
0.0
0
VERTEX
8
LOT_LINE
10
1677.4551
20
-549.9921
30
0.0
0
VERTEX
8
LOT_LINE
10
1677.7277
20
-556.2361
30
0.0
0
VERTEX
8
LOT_LINE
10
1678.0202
20
-562.4793
30
0.0
0
VERTEX
8
LOT_LINE
10
1678.3326
20
-568.7215
30
0.0
0
VERTEX
8
LOT_LINE
10
1678.6649
20
-574.9626
30
0.0
0
VERTEX
8
LOT_LINE
10
1679.0171
20
-581.2027
30
0.0
0
VERTEX
8
LOT_LINE
10
1679.3892
20
-587.4416
30
0.0
0
VERTEX
8
LOT_LINE
10
1679.7812
20
-593.6793
30
0.0
0
VERTEX
8
LOT_LINE
10
1680.1936
20
-599.9265
30
0.0
0
VERTEX
8
LOT_LINE
10
1605.2598
20
-603.0781
30
0.0
0
SEQEND
0
TEXT
8
TEXT-LABELS
7
STANDARD
10
1640.6256
20
-551.5465
30
0.0
40
8.0
1
18
50
0.0
0
TEXT
8
DIM-LABELS
7
STANDARD
10
1638.6717
20
-505.0876
30
0.0
40
5.5
1
75.0'
50
0.0
0
TEXT
8
DIM-LABELS
7
STANDARD
10
1674.5956
20
-550.1178
30
0.0
40
5.5
1
100.0'
50
0.0
0
TEXT
8
DIM-LABELS
7
STANDARD
10
1642.5796
20
-598.0054
30
0.0
40
5.5
1
75.0'
50
0.0
0
TEXT
8
DIM-LABELS
7
STANDARD
10
1606.6557
20
-552.9752
30
0.0
40
5.5
1
100.0'
50
0.0
0
POLYLINE
8
LOT_LINE
66
1
70
1
0
VERTEX
8
LOT_LINE
10
240.4898
20
-720.5308
30
0.0
0
VERTEX
8
LOT_LINE
10
333.9072
20
-716.6018
30
0.0
0
VERTEX
8
LOT_LINE
10
338.1093
20
-816.5135
30
0.0
0
VERTEX
8
LOT_LINE
10
244.6919
20
-820.4425
30
0.0
0
SEQEND
0
TEXT
8
TEXT-LABELS
7
STANDARD
10
289.2996
20
-768.5222
30
0.0
40
8.0
1
1
50
0.0
0
TEXT
8
DIM-LABELS
7
STANDARD
10
287.3456
20
-722.0632
30
0.0
40
5.5
1
93.5'
50
0.0
0
TEXT
8
DIM-LABELS
7
STANDARD
10
332.5114
20
-766.7048
30
0.0
40
5.5
1
100.0'
50
0.0
0
TEXT
8
DIM-LABELS
7
STANDARD
10
291.2536
20
-814.9811
30
0.0
40
5.5
1
93.5'
50
0.0
0
TEXT
8
DIM-LABELS
7
STANDARD
10
246.0878
20
-770.3396
30
0.0
40
5.5
1
100.0'
50
0.0
0
POLYLINE
8
LOT_LINE
66
1
70
1
0
VERTEX
8
LOT_LINE
10
333.9072
20
-716.6018
30
0.0
0
VERTEX
8
LOT_LINE
10
408.8410
20
-713.4503
30
0.0
0
VERTEX
8
LOT_LINE
10
413.0431
20
-813.3619
30
0.0
0
VERTEX
8
LOT_LINE
10
338.1093
20
-816.5135
30
0.0
0
SEQEND
0
TEXT
8
TEXT-LABELS
7
STANDARD
10
373.4752
20
-764.9819
30
0.0
40
8.0
1
2
50
0.0
0
TEXT
8
DIM-LABELS
7
STANDARD
10
371.5212
20
-718.5230
30
0.0
40
5.5
1
75.0'
50
0.0
0
TEXT
8
DIM-LABELS
7
STANDARD
10
407.4451
20
-763.5532
30
0.0
40
5.5
1
100.0'
50
0.0
0
TEXT
8
DIM-LABELS
7
STANDARD
10
375.4291
20
-811.4408
30
0.0
40
5.5
1
75.0'
50
0.0
0
TEXT
8
DIM-LABELS
7
STANDARD
10
339.5052
20
-766.4106
30
0.0
40
5.5
1
100.0'
50
0.0
0
POLYLINE
8
LOT_LINE
66
1
70
1
0
VERTEX
8
LOT_LINE
10
408.8410
20
-713.4503
30
0.0
0
VERTEX
8
LOT_LINE
10
483.7747
20
-710.2987
30
0.0
0
VERTEX
8
LOT_LINE
10
487.9768
20
-810.2104
30
0.0
0
VERTEX
8
LOT_LINE
10
413.0431
20
-813.3619
30
0.0
0
SEQEND
0
TEXT
8
TEXT-LABELS
7
STANDARD
10
448.4089
20
-761.8303
30
0.0
40
8.0
1
3
50
0.0
0
TEXT
8
DIM-LABELS
7
STANDARD
10
446.4549
20
-715.3714
30
0.0
40
5.5
1
75.0'
50
0.0
0
TEXT
8
DIM-LABELS
7
STANDARD
10
482.3789
20
-760.4016
30
0.0
40
5.5
1
100.0'
50
0.0
0
TEXT
8
DIM-LABELS
7
STANDARD
10
450.3629
20
-808.2893
30
0.0
40
5.5
1
75.0'
50
0.0
0
TEXT
8
DIM-LABELS
7
STANDARD
10
414.4389
20
-763.2590
30
0.0
40
5.5
1
100.0'
50
0.0
0
POLYLINE
8
LOT_LINE
66
1
70
1
0
VERTEX
8
LOT_LINE
10
483.7747
20
-710.2987
30
0.0
0
VERTEX
8
LOT_LINE
10
558.7085
20
-707.1471
30
0.0
0
VERTEX
8
LOT_LINE
10
562.9106
20
-807.0588
30
0.0
0
VERTEX
8
LOT_LINE
10
487.9768
20
-810.2104
30
0.0
0
SEQEND
0
TEXT
8
TEXT-LABELS
7
STANDARD
10
523.3427
20
-758.6788
30
0.0
40
8.0
1
4
50
0.0
0
TEXT
8
DIM-LABELS
7
STANDARD
10
521.3887
20
-712.2198
30
0.0
40
5.5
1
75.0'
50
0.0
0
TEXT
8
DIM-LABELS
7
STANDARD
10
557.3126
20
-757.2500
30
0.0
40
5.5
1
100.0'
50
0.0
0
TEXT
8
DIM-LABELS
7
STANDARD
10
525.2966
20
-805.1377
30
0.0
40
5.5
1
75.0'
50
0.0
0
TEXT
8
DIM-LABELS
7
STANDARD
10
489.3727
20
-760.1075
30
0.0
40
5.5
1
100.0'
50
0.0
0
POLYLINE
8
LOT_LINE
66
1
70
1
0
VERTEX
8
LOT_LINE
10
558.7085
20
-707.1471
30
0.0
0
VERTEX
8
LOT_LINE
10
633.6423
20
-703.9956
30
0.0
0
VERTEX
8
LOT_LINE
10
637.8444
20
-803.9072
30
0.0
0
VERTEX
8
LOT_LINE
10
562.9106
20
-807.0588
30
0.0
0
SEQEND
0
TEXT
8
TEXT-LABELS
7
STANDARD
10
598.2764
20
-755.5272
30
0.0
40
8.0
1
5
50
0.0
0
TEXT
8
DIM-LABELS
7
STANDARD
10
596.3224
20
-709.0683
30
0.0
40
5.5
1
75.0'
50
0.0
0
TEXT
8
DIM-LABELS
7
STANDARD
10
632.2464
20
-754.0985
30
0.0
40
5.5
1
100.0'
50
0.0
0
TEXT
8
DIM-LABELS
7
STANDARD
10
600.2304
20
-801.9861
30
0.0
40
5.5
1
75.0'
50
0.0
0
TEXT
8
DIM-LABELS
7
STANDARD
10
564.3065
20
-756.9559
30
0.0
40
5.5
1
100.0'
50
0.0
0
POLYLINE
8
LOT_LINE
66
1
70
1
0
VERTEX
8
LOT_LINE
10
633.6423
20
-703.9956
30
0.0
0
VERTEX
8
LOT_LINE
10
708.5760
20
-700.8440
30
0.0
0
VERTEX
8
LOT_LINE
10
712.7781
20
-800.7557
30
0.0
0
VERTEX
8
LOT_LINE
10
637.8444
20
-803.9072
30
0.0
0
SEQEND
0
TEXT
8
TEXT-LABELS
7
STANDARD
10
673.2102
20
-752.3756
30
0.0
40
8.0
1
6
50
0.0
0
TEXT
8
DIM-LABELS
7
STANDARD
10
671.2562
20
-705.9167
30
0.0
40
5.5
1
75.0'
50
0.0
0
TEXT
8
DIM-LABELS
7
STANDARD
10
707.1801
20
-750.9469
30
0.0
40
5.5
1
100.0'
50
0.0
0
TEXT
8
DIM-LABELS
7
STANDARD
10
675.1642
20
-798.8345
30
0.0
40
5.5
1
75.0'
50
0.0
0
TEXT
8
DIM-LABELS
7
STANDARD
10
639.2402
20
-753.8043
30
0.0
40
5.5
1
100.0'
50
0.0
0
POLYLINE
8
LOT_LINE
66
1
70
1
0
VERTEX
8
LOT_LINE
10
708.5760
20
-700.8440
30
0.0
0
VERTEX
8
LOT_LINE
10
783.5098
20
-697.6924
30
0.0
0
VERTEX
8
LOT_LINE
10
787.7119
20
-797.6041
30
0.0
0
VERTEX
8
LOT_LINE
10
712.7781
20
-800.7557
30
0.0
0
SEQEND
0
TEXT
8
TEXT-LABELS
7
STANDARD
10
748.1439
20
-749.2240
30
0.0
40
8.0
1
7
50
0.0
0
TEXT
8
DIM-LABELS
7
STANDARD
10
746.1900
20
-702.7651
30
0.0
40
5.5
1
75.0'
50
0.0
0
TEXT
8
DIM-LABELS
7
STANDARD
10
782.1139
20
-747.7953
30
0.0
40
5.5
1
100.0'
50
0.0
0
TEXT
8
DIM-LABELS
7
STANDARD
10
750.0979
20
-795.6830
30
0.0
40
5.5
1
75.0'
50
0.0
0
TEXT
8
DIM-LABELS
7
STANDARD
10
714.1740
20
-750.6527
30
0.0
40
5.5
1
100.0'
50
0.0
0
POLYLINE
8
LOT_LINE
66
1
70
1
0
VERTEX
8
LOT_LINE
10
783.5098
20
-697.6924
30
0.0
0
VERTEX
8
LOT_LINE
10
858.4435
20
-694.5408
30
0.0
0
VERTEX
8
LOT_LINE
10
862.6456
20
-794.4525
30
0.0
0
VERTEX
8
LOT_LINE
10
787.7119
20
-797.6041
30
0.0
0
SEQEND
0
TEXT
8
TEXT-LABELS
7
STANDARD
10
823.0777
20
-746.0725
30
0.0
40
8.0
1
8
50
0.0
0
TEXT
8
DIM-LABELS
7
STANDARD
10
821.1237
20
-699.6135
30
0.0
40
5.5
1
75.0'
50
0.0
0
TEXT
8
DIM-LABELS
7
STANDARD
10
857.0477
20
-744.6437
30
0.0
40
5.5
1
100.0'
50
0.0
0
TEXT
8
DIM-LABELS
7
STANDARD
10
825.0317
20
-792.5314
30
0.0
40
5.5
1
75.0'
50
0.0
0
TEXT
8
DIM-LABELS
7
STANDARD
10
789.1077
20
-747.5012
30
0.0
40
5.5
1
100.0'
50
0.0
0
POLYLINE
8
CURVE
66
1
70
0
0
VERTEX
8
CURVE
10
933.3773
20
-691.3893
30
0.0
0
VERTEX
8
CURVE
10
933.4905
20
-697.6382
30
0.0
0
VERTEX
8
CURVE
10
933.6236
20
-703.8868
30
0.0
0
VERTEX
8
CURVE
10
933.7767
20
-710.1349
30
0.0
0
VERTEX
8
CURVE
10
933.9497
20
-716.3825
30
0.0
0
VERTEX
8
CURVE
10
934.1426
20
-722.6296
30
0.0
0
VERTEX
8
CURVE
10
934.3555
20
-728.8759
30
0.0
0
VERTEX
8
CURVE
10
934.5882
20
-735.1216
30
0.0
0
VERTEX
8
CURVE
10
934.8409
20
-741.3665
30
0.0
0
VERTEX
8
CURVE
10
935.1135
20
-747.6105
30
0.0
0
VERTEX
8
CURVE
10
935.4060
20
-753.8537
30
0.0
0
VERTEX
8
CURVE
10
935.7184
20
-760.0959
30
0.0
0
VERTEX
8
CURVE
10
936.0507
20
-766.3370
30
0.0
0
VERTEX
8
CURVE
10
936.4029
20
-772.5771
30
0.0
0
VERTEX
8
CURVE
10
936.7750
20
-778.8160
30
0.0
0
VERTEX
8
CURVE
10
937.1670
20
-785.0537
30
0.0
0
VERTEX
8
CURVE
10
937.5789
20
-791.2901
30
0.0
0
SEQEND
0
POLYLINE
8
LOT_LINE
66
1
70
1
0
VERTEX
8
LOT_LINE
10
858.4435
20
-694.5408
30
0.0
0
VERTEX
8
LOT_LINE
10
933.3773
20
-691.3893
30
0.0
0
VERTEX
8
LOT_LINE
10
933.4905
20
-697.6382
30
0.0
0
VERTEX
8
LOT_LINE
10
933.6236
20
-703.8868
30
0.0
0
VERTEX
8
LOT_LINE
10
933.7767
20
-710.1349
30
0.0
0
VERTEX
8
LOT_LINE
10
933.9497
20
-716.3825
30
0.0
0
VERTEX
8
LOT_LINE
10
934.1426
20
-722.6296
30
0.0
0
VERTEX
8
LOT_LINE
10
934.3555
20
-728.8759
30
0.0
0
VERTEX
8
LOT_LINE
10
934.5882
20
-735.1216
30
0.0
0
VERTEX
8
LOT_LINE
10
934.8409
20
-741.3665
30
0.0
0
VERTEX
8
LOT_LINE
10
935.1135
20
-747.6105
30
0.0
0
VERTEX
8
LOT_LINE
10
935.4060
20
-753.8537
30
0.0
0
VERTEX
8
LOT_LINE
10
935.7184
20
-760.0959
30
0.0
0
VERTEX
8
LOT_LINE
10
936.0507
20
-766.3370
30
0.0
0
VERTEX
8
LOT_LINE
10
936.4029
20
-772.5771
30
0.0
0
VERTEX
8
LOT_LINE
10
936.7750
20
-778.8160
30
0.0
0
VERTEX
8
LOT_LINE
10
937.1670
20
-785.0537
30
0.0
0
VERTEX
8
LOT_LINE
10
937.5794
20
-791.3009
30
0.0
0
VERTEX
8
LOT_LINE
10
862.6456
20
-794.4525
30
0.0
0
SEQEND
0
TEXT
8
TEXT-LABELS
7
STANDARD
10
898.0114
20
-742.9209
30
0.0
40
8.0
1
9
50
0.0
0
TEXT
8
DIM-LABELS
7
STANDARD
10
896.0575
20
-696.4620
30
0.0
40
5.5
1
75.0'
50
0.0
0
TEXT
8
DIM-LABELS
7
STANDARD
10
931.9814
20
-741.4922
30
0.0
40
5.5
1
100.0'
50
0.0
0
TEXT
8
DIM-LABELS
7
STANDARD
10
899.9654
20
-789.3798
30
0.0
40
5.5
1
75.0'
50
0.0
0
TEXT
8
DIM-LABELS
7
STANDARD
10
864.0415
20
-744.3496
30
0.0
40
5.5
1
100.0'
50
0.0
0
POLYLINE
8
LOT_LINE
66
1
70
1
0
VERTEX
8
LOT_LINE
10
933.3773
20
-691.3893
30
0.0
0
VERTEX
8
LOT_LINE
10
1008.3110
20
-688.2377
30
0.0
0
VERTEX
8
LOT_LINE
10
1012.5131
20
-788.1494
30
0.0
0
VERTEX
8
LOT_LINE
10
937.5794
20
-791.3009
30
0.0
0
SEQEND
0
TEXT
8
TEXT-LABELS
7
STANDARD
10
972.9452
20
-739.7693
30
0.0
40
8.0
1
10
50
0.0
0
TEXT
8
DIM-LABELS
7
STANDARD
10
970.9912
20
-693.3104
30
0.0
40
5.5
1
75.0'
50
0.0
0
TEXT
8
DIM-LABELS
7
STANDARD
10
1006.9152
20
-738.3406
30
0.0
40
5.5
1
100.0'
50
0.0
0
TEXT
8
DIM-LABELS
7
STANDARD
10
974.8992
20
-786.2282
30
0.0
40
5.5
1
75.0'
50
0.0
0
TEXT
8
DIM-LABELS
7
STANDARD
10
938.9752
20
-741.1980
30
0.0
40
5.5
1
100.0'
50
0.0
0
POLYLINE
8
LOT_LINE
66
1
70
1
0
VERTEX
8
LOT_LINE
10
1008.3110
20
-688.2377
30
0.0
0
VERTEX
8
LOT_LINE
10
1083.2448
20
-685.0861
30
0.0
0
VERTEX
8
LOT_LINE
10
1087.4469
20
-784.9978
30
0.0
0
VERTEX
8
LOT_LINE
10
1012.5131
20
-788.1494
30
0.0
0
SEQEND
0
TEXT
8
TEXT-LABELS
7
STANDARD
10
1047.8790
20
-736.6177
30
0.0
40
8.0
1
11
50
0.0
0
TEXT
8
DIM-LABELS
7
STANDARD
10
1045.9250
20
-690.1588
30
0.0
40
5.5
1
75.0'
50
0.0
0
TEXT
8
DIM-LABELS
7
STANDARD
10
1081.8489
20
-735.1890
30
0.0
40
5.5
1
100.0'
50
0.0
0
TEXT
8
DIM-LABELS
7
STANDARD
10
1049.8329
20
-783.0767
30
0.0
40
5.5
1
75.0'
50
0.0
0
TEXT
8
DIM-LABELS
7
STANDARD
10
1013.9090
20
-738.0465
30
0.0
40
5.5
1
100.0'
50
0.0
0
POLYLINE
8
LOT_LINE
66
1
70
1
0
VERTEX
8
LOT_LINE
10
1083.2448
20
-685.0861
30
0.0
0
VERTEX
8
LOT_LINE
10
1158.1785
20
-681.9345
30
0.0
0
VERTEX
8
LOT_LINE
10
1162.3806
20
-781.8462
30
0.0
0
VERTEX
8
LOT_LINE
10
1087.4469
20
-784.9978
30
0.0
0
SEQEND
0
TEXT
8
TEXT-LABELS
7
STANDARD
10
1122.8127
20
-733.4662
30
0.0
40
8.0
1
12
50
0.0
0
TEXT
8
DIM-LABELS
7
STANDARD
10
1120.8587
20
-687.0072
30
0.0
40
5.5
1
75.0'
50
0.0
0
TEXT
8
DIM-LABELS
7
STANDARD
10
1156.7827
20
-732.0375
30
0.0
40
5.5
1
100.0'
50
0.0
0
TEXT
8
DIM-LABELS
7
STANDARD
10
1124.7667
20
-779.9251
30
0.0
40
5.5
1
75.0'
50
0.0
0
TEXT
8
DIM-LABELS
7
STANDARD
10
1088.8427
20
-734.8949
30
0.0
40
5.5
1
100.0'
50
0.0
0
POLYLINE
8
LOT_LINE
66
1
70
1
0
VERTEX
8
LOT_LINE
10
1158.1785
20
-681.9345
30
0.0
0
VERTEX
8
LOT_LINE
10
1233.1123
20
-678.7830
30
0.0
0
VERTEX
8
LOT_LINE
10
1237.3144
20
-778.6946
30
0.0
0
VERTEX
8
LOT_LINE
10
1162.3806
20
-781.8462
30
0.0
0
SEQEND
0
TEXT
8
TEXT-LABELS
7
STANDARD
10
1197.7465
20
-730.3146
30
0.0
40
8.0
1
13
50
0.0
0
TEXT
8
DIM-LABELS
7
STANDARD
10
1195.7925
20
-683.8557
30
0.0
40
5.5
1
75.0'
50
0.0
0
TEXT
8
DIM-LABELS
7
STANDARD
10
1231.7164
20
-728.8859
30
0.0
40
5.5
1
100.0'
50
0.0
0
TEXT
8
DIM-LABELS
7
STANDARD
10
1199.7004
20
-776.7735
30
0.0
40
5.5
1
75.0'
50
0.0
0
TEXT
8
DIM-LABELS
7
STANDARD
10
1163.7765
20
-731.7433
30
0.0
40
5.5
1
100.0'
50
0.0
0
POLYLINE
8
LOT_LINE
66
1
70
1
0
VERTEX
8
LOT_LINE
10
1233.1123
20
-678.7830
30
0.0
0
VERTEX
8
LOT_LINE
10
1308.0460
20
-675.6314
30
0.0
0
VERTEX
8
LOT_LINE
10
1312.2481
20
-775.5431
30
0.0
0
VERTEX
8
LOT_LINE
10
1237.3144
20
-778.6946
30
0.0
0
SEQEND
0
TEXT
8
TEXT-LABELS
7
STANDARD
10
1272.6802
20
-727.1630
30
0.0
40
8.0
1
14
50
0.0
0
TEXT
8
DIM-LABELS
7
STANDARD
10
1270.7262
20
-680.7041
30
0.0
40
5.5
1
75.0'
50
0.0
0
TEXT
8
DIM-LABELS
7
STANDARD
10
1306.6502
20
-725.7343
30
0.0
40
5.5
1
100.0'
50
0.0
0
TEXT
8
DIM-LABELS
7
STANDARD
10
1274.6342
20
-773.6220
30
0.0
40
5.5
1
75.0'
50
0.0
0
TEXT
8
DIM-LABELS
7
STANDARD
10
1238.7102
20
-728.5917
30
0.0
40
5.5
1
100.0'
50
0.0
0
POLYLINE
8
LOT_LINE
66
1
70
1
0
VERTEX
8
LOT_LINE
10
1308.0460
20
-675.6314
30
0.0
0
VERTEX
8
LOT_LINE
10
1382.9798
20
-672.4798
30
0.0
0
VERTEX
8
LOT_LINE
10
1387.1819
20
-772.3915
30
0.0
0
VERTEX
8
LOT_LINE
10
1312.2481
20
-775.5431
30
0.0
0
SEQEND
0
TEXT
8
TEXT-LABELS
7
STANDARD
10
1347.6140
20
-724.0115
30
0.0
40
8.0
1
15
50
0.0
0
TEXT
8
DIM-LABELS
7
STANDARD
10
1345.6600
20
-677.5525
30
0.0
40
5.5
1
75.0'
50
0.0
0
TEXT
8
DIM-LABELS
7
STANDARD
10
1381.5839
20
-722.5827
30
0.0
40
5.5
1
100.0'
50
0.0
0
TEXT
8
DIM-LABELS
7
STANDARD
10
1349.5679
20
-770.4704
30
0.0
40
5.5
1
75.0'
50
0.0
0
TEXT
8
DIM-LABELS
7
STANDARD
10
1313.6440
20
-725.4402
30
0.0
40
5.5
1
100.0'
50
0.0
0
POLYLINE
8
LOT_LINE
66
1
70
1
0
VERTEX
8
LOT_LINE
10
1382.9798
20
-672.4798
30
0.0
0
VERTEX
8
LOT_LINE
10
1457.9136
20
-669.3283
30
0.0
0
VERTEX
8
LOT_LINE
10
1462.1157
20
-769.2399
30
0.0
0
VERTEX
8
LOT_LINE
10
1387.1819
20
-772.3915
30
0.0
0
SEQEND
0
TEXT
8
TEXT-LABELS
7
STANDARD
10
1422.5477
20
-720.8599
30
0.0
40
8.0
1
16
50
0.0
0
TEXT
8
DIM-LABELS
7
STANDARD
10
1420.5938
20
-674.4010
30
0.0
40
5.5
1
75.0'
50
0.0
0
TEXT
8
DIM-LABELS
7
STANDARD
10
1456.5177
20
-719.4312
30
0.0
40
5.5
1
100.0'
50
0.0
0
TEXT
8
DIM-LABELS
7
STANDARD
10
1424.5017
20
-767.3188
30
0.0
40
5.5
1
75.0'
50
0.0
0
TEXT
8
DIM-LABELS
7
STANDARD
10
1388.5778
20
-722.2886
30
0.0
40
5.5
1
100.0'
50
0.0
0
POLYLINE
8
LOT_LINE
66
1
70
1
0
VERTEX
8
LOT_LINE
10
1457.9136
20
-669.3283
30
0.0
0
VERTEX
8
LOT_LINE
10
1532.8473
20
-666.1767
30
0.0
0
VERTEX
8
LOT_LINE
10
1537.0494
20
-766.0884
30
0.0
0
VERTEX
8
LOT_LINE
10
1462.1157
20
-769.2399
30
0.0
0
SEQEND
0
TEXT
8
TEXT-LABELS
7
STANDARD
10
1497.4815
20
-717.7083
30
0.0
40
8.0
1
17
50
0.0
0
TEXT
8
DIM-LABELS
7
STANDARD
10
1495.5275
20
-671.2494
30
0.0
40
5.5
1
75.0'
50
0.0
0
TEXT
8
DIM-LABELS
7
STANDARD
10
1531.4514
20
-716.2796
30
0.0
40
5.5
1
100.0'
50
0.0
0
TEXT
8
DIM-LABELS
7
STANDARD
10
1499.4355
20
-764.1672
30
0.0
40
5.5
1
75.0'
50
0.0
0
TEXT
8
DIM-LABELS
7
STANDARD
10
1463.5115
20
-719.1370
30
0.0
40
5.5
1
100.0'
50
0.0
0
POLYLINE
8
LOT_LINE
66
1
70
1
0
VERTEX
8
LOT_LINE
10
244.6919
20
-820.4425
30
0.0
0
VERTEX
8
LOT_LINE
10
338.1093
20
-816.5135
30
0.0
0
VERTEX
8
LOT_LINE
10
342.3114
20
-916.4252
30
0.0
0
VERTEX
8
LOT_LINE
10
248.8940
20
-920.3542
30
0.0
0
SEQEND
0
TEXT
8
TEXT-LABELS
7
STANDARD
10
293.5017
20
-868.4338
30
0.0
40
8.0
1
34
50
0.0
0
TEXT
8
DIM-LABELS
7
STANDARD
10
291.5477
20
-821.9749
30
0.0
40
5.5
1
93.5'
50
0.0
0
TEXT
8
DIM-LABELS
7
STANDARD
10
336.7135
20
-866.6164
30
0.0
40
5.5
1
100.0'
50
0.0
0
TEXT
8
DIM-LABELS
7
STANDARD
10
295.4556
20
-914.8928
30
0.0
40
5.5
1
93.5'
50
0.0
0
TEXT
8
DIM-LABELS
7
STANDARD
10
250.2899
20
-870.2512
30
0.0
40
5.5
1
100.0'
50
0.0
0
POLYLINE
8
LOT_LINE
66
1
70
1
0
VERTEX
8
LOT_LINE
10
338.1093
20
-816.5135
30
0.0
0
VERTEX
8
LOT_LINE
10
413.0431
20
-813.3619
30
0.0
0
VERTEX
8
LOT_LINE
10
417.2452
20
-913.2736
30
0.0
0
VERTEX
8
LOT_LINE
10
342.3114
20
-916.4252
30
0.0
0
SEQEND
0
TEXT
8
TEXT-LABELS
7
STANDARD
10
377.6773
20
-864.8936
30
0.0
40
8.0
1
33
50
0.0
0
TEXT
8
DIM-LABELS
7
STANDARD
10
375.7233
20
-818.4346
30
0.0
40
5.5
1
75.0'
50
0.0
0
TEXT
8
DIM-LABELS
7
STANDARD
10
411.6472
20
-863.4649
30
0.0
40
5.5
1
100.0'
50
0.0
0
TEXT
8
DIM-LABELS
7
STANDARD
10
379.6312
20
-911.3525
30
0.0
40
5.5
1
75.0'
50
0.0
0
TEXT
8
DIM-LABELS
7
STANDARD
10
343.7073
20
-866.3223
30
0.0
40
5.5
1
100.0'
50
0.0
0
POLYLINE
8
LOT_LINE
66
1
70
1
0
VERTEX
8
LOT_LINE
10
413.0431
20
-813.3619
30
0.0
0
VERTEX
8
LOT_LINE
10
487.9768
20
-810.2104
30
0.0
0
VERTEX
8
LOT_LINE
10
492.1789
20
-910.1220
30
0.0
0
VERTEX
8
LOT_LINE
10
417.2452
20
-913.2736
30
0.0
0
SEQEND
0
TEXT
8
TEXT-LABELS
7
STANDARD
10
452.6110
20
-861.7420
30
0.0
40
8.0
1
32
50
0.0
0
TEXT
8
DIM-LABELS
7
STANDARD
10
450.6570
20
-815.2831
30
0.0
40
5.5
1
75.0'
50
0.0
0
TEXT
8
DIM-LABELS
7
STANDARD
10
486.5810
20
-860.3133
30
0.0
40
5.5
1
100.0'
50
0.0
0
TEXT
8
DIM-LABELS
7
STANDARD
10
454.5650
20
-908.2009
30
0.0
40
5.5
1
75.0'
50
0.0
0
TEXT
8
DIM-LABELS
7
STANDARD
10
418.6410
20
-863.1707
30
0.0
40
5.5
1
100.0'
50
0.0
0
POLYLINE
8
LOT_LINE
66
1
70
1
0
VERTEX
8
LOT_LINE
10
487.9768
20
-810.2104
30
0.0
0
VERTEX
8
LOT_LINE
10
562.9106
20
-807.0588
30
0.0
0
VERTEX
8
LOT_LINE
10
567.1127
20
-906.9705
30
0.0
0
VERTEX
8
LOT_LINE
10
492.1789
20
-910.1220
30
0.0
0
SEQEND
0
TEXT
8
TEXT-LABELS
7
STANDARD
10
527.5448
20
-858.5904
30
0.0
40
8.0
1
31
50
0.0
0
TEXT
8
DIM-LABELS
7
STANDARD
10
525.5908
20
-812.1315
30
0.0
40
5.5
1
75.0'
50
0.0
0
TEXT
8
DIM-LABELS
7
STANDARD
10
561.5147
20
-857.1617
30
0.0
40
5.5
1
100.0'
50
0.0
0
TEXT
8
DIM-LABELS
7
STANDARD
10
529.4987
20
-905.0494
30
0.0
40
5.5
1
75.0'
50
0.0
0
TEXT
8
DIM-LABELS
7
STANDARD
10
493.5748
20
-860.0191
30
0.0
40
5.5
1
100.0'
50
0.0
0
POLYLINE
8
LOT_LINE
66
1
70
1
0
VERTEX
8
LOT_LINE
10
562.9106
20
-807.0588
30
0.0
0
VERTEX
8
LOT_LINE
10
637.8444
20
-803.9072
30
0.0
0
VERTEX
8
LOT_LINE
10
642.0464
20
-903.8189
30
0.0
0
VERTEX
8
LOT_LINE
10
567.1127
20
-906.9705
30
0.0
0
SEQEND
0
TEXT
8
TEXT-LABELS
7
STANDARD
10
602.4785
20
-855.4389
30
0.0
40
8.0
1
30
50
0.0
0
TEXT
8
DIM-LABELS
7
STANDARD
10
600.5245
20
-808.9799
30
0.0
40
5.5
1
75.0'
50
0.0
0
TEXT
8
DIM-LABELS
7
STANDARD
10
636.4485
20
-854.0101
30
0.0
40
5.5
1
100.0'
50
0.0
0
TEXT
8
DIM-LABELS
7
STANDARD
10
604.4325
20
-901.8978
30
0.0
40
5.5
1
75.0'
50
0.0
0
TEXT
8
DIM-LABELS
7
STANDARD
10
568.5086
20
-856.8676
30
0.0
40
5.5
1
100.0'
50
0.0
0
POLYLINE
8
LOT_LINE
66
1
70
1
0
VERTEX
8
LOT_LINE
10
637.8444
20
-803.9072
30
0.0
0
VERTEX
8
LOT_LINE
10
712.7781
20
-800.7557
30
0.0
0
VERTEX
8
LOT_LINE
10
716.9802
20
-900.6673
30
0.0
0
VERTEX
8
LOT_LINE
10
642.0464
20
-903.8189
30
0.0
0
SEQEND
0
TEXT
8
TEXT-LABELS
7
STANDARD
10
677.4123
20
-852.2873
30
0.0
40
8.0
1
29
50
0.0
0
TEXT
8
DIM-LABELS
7
STANDARD
10
675.4583
20
-805.8284
30
0.0
40
5.5
1
75.0'
50
0.0
0
TEXT
8
DIM-LABELS
7
STANDARD
10
711.3822
20
-850.8586
30
0.0
40
5.5
1
100.0'
50
0.0
0
TEXT
8
DIM-LABELS
7
STANDARD
10
679.3663
20
-898.7462
30
0.0
40
5.5
1
75.0'
50
0.0
0
TEXT
8
DIM-LABELS
7
STANDARD
10
643.4423
20
-853.7160
30
0.0
40
5.5
1
100.0'
50
0.0
0
POLYLINE
8
LOT_LINE
66
1
70
1
0
VERTEX
8
LOT_LINE
10
712.7781
20
-800.7557
30
0.0
0
VERTEX
8
LOT_LINE
10
787.7119
20
-797.6041
30
0.0
0
VERTEX
8
LOT_LINE
10
791.9140
20
-897.5158
30
0.0
0
VERTEX
8
LOT_LINE
10
716.9802
20
-900.6673
30
0.0
0
SEQEND
0
TEXT
8
TEXT-LABELS
7
STANDARD
10
752.3460
20
-849.1357
30
0.0
40
8.0
1
28
50
0.0
0
TEXT
8
DIM-LABELS
7
STANDARD
10
750.3921
20
-802.6768
30
0.0
40
5.5
1
75.0'
50
0.0
0
TEXT
8
DIM-LABELS
7
STANDARD
10
786.3160
20
-847.7070
30
0.0
40
5.5
1
100.0'
50
0.0
0
TEXT
8
DIM-LABELS
7
STANDARD
10
754.3000
20
-895.5946
30
0.0
40
5.5
1
75.0'
50
0.0
0
TEXT
8
DIM-LABELS
7
STANDARD
10
718.3761
20
-850.5644
30
0.0
40
5.5
1
100.0'
50
0.0
0
POLYLINE
8
LOT_LINE
66
1
70
1
0
VERTEX
8
LOT_LINE
10
787.7119
20
-797.6041
30
0.0
0
VERTEX
8
LOT_LINE
10
862.6456
20
-794.4525
30
0.0
0
VERTEX
8
LOT_LINE
10
866.8477
20
-894.3642
30
0.0
0
VERTEX
8
LOT_LINE
10
791.9140
20
-897.5158
30
0.0
0
SEQEND
0
TEXT
8
TEXT-LABELS
7
STANDARD
10
827.2798
20
-845.9841
30
0.0
40
8.0
1
27
50
0.0
0
TEXT
8
DIM-LABELS
7
STANDARD
10
825.3258
20
-799.5252
30
0.0
40
5.5
1
75.0'
50
0.0
0
TEXT
8
DIM-LABELS
7
STANDARD
10
861.2498
20
-844.5554
30
0.0
40
5.5
1
100.0'
50
0.0
0
TEXT
8
DIM-LABELS
7
STANDARD
10
829.2338
20
-892.4431
30
0.0
40
5.5
1
75.0'
50
0.0
0
TEXT
8
DIM-LABELS
7
STANDARD
10
793.3098
20
-847.4128
30
0.0
40
5.5
1
100.0'
50
0.0
0
POLYLINE
8
LOT_LINE
66
1
70
1
0
VERTEX
8
LOT_LINE
10
862.6456
20
-794.4525
30
0.0
0
VERTEX
8
LOT_LINE
10
937.5794
20
-791.3009
30
0.0
0
VERTEX
8
LOT_LINE
10
941.7815
20
-891.2126
30
0.0
0
VERTEX
8
LOT_LINE
10
866.8477
20
-894.3642
30
0.0
0
SEQEND
0
TEXT
8
TEXT-LABELS
7
STANDARD
10
902.2135
20
-842.8326
30
0.0
40
8.0
1
26
50
0.0
0
TEXT
8
DIM-LABELS
7
STANDARD
10
900.2596
20
-796.3736
30
0.0
40
5.5
1
75.0'
50
0.0
0
TEXT
8
DIM-LABELS
7
STANDARD
10
936.1835
20
-841.4038
30
0.0
40
5.5
1
100.0'
50
0.0
0
TEXT
8
DIM-LABELS
7
STANDARD
10
904.1675
20
-889.2915
30
0.0
40
5.5
1
75.0'
50
0.0
0
TEXT
8
DIM-LABELS
7
STANDARD
10
868.2436
20
-844.2613
30
0.0
40
5.5
1
100.0'
50
0.0
0
POLYLINE
8
LOT_LINE
66
1
70
1
0
VERTEX
8
LOT_LINE
10
937.5794
20
-791.3009
30
0.0
0
VERTEX
8
LOT_LINE
10
1012.5131
20
-788.1494
30
0.0
0
VERTEX
8
LOT_LINE
10
1016.7152
20
-888.0610
30
0.0
0
VERTEX
8
LOT_LINE
10
941.7815
20
-891.2126
30
0.0
0
SEQEND
0
TEXT
8
TEXT-LABELS
7
STANDARD
10
977.1473
20
-839.6810
30
0.0
40
8.0
1
25
50
0.0
0
TEXT
8
DIM-LABELS
7
STANDARD
10
975.1933
20
-793.2221
30
0.0
40
5.5
1
75.0'
50
0.0
0
TEXT
8
DIM-LABELS
7
STANDARD
10
1011.1173
20
-838.2523
30
0.0
40
5.5
1
100.0'
50
0.0
0
TEXT
8
DIM-LABELS
7
STANDARD
10
979.1013
20
-886.1399
30
0.0
40
5.5
1
75.0'
50
0.0
0
TEXT
8
DIM-LABELS
7
STANDARD
10
943.1773
20
-841.1097
30
0.0
40
5.5
1
100.0'
50
0.0
0
POLYLINE
8
LOT_LINE
66
1
70
1
0
VERTEX
8
LOT_LINE
10
1012.5131
20
-788.1494
30
0.0
0
VERTEX
8
LOT_LINE
10
1087.4469
20
-784.9978
30
0.0
0
VERTEX
8
LOT_LINE
10
1091.6490
20
-884.9095
30
0.0
0
VERTEX
8
LOT_LINE
10
1016.7152
20
-888.0610
30
0.0
0
SEQEND
0
TEXT
8
TEXT-LABELS
7
STANDARD
10
1052.0811
20
-836.5294
30
0.0
40
8.0
1
24
50
0.0
0
TEXT
8
DIM-LABELS
7
STANDARD
10
1050.1271
20
-790.0705
30
0.0
40
5.5
1
75.0'
50
0.0
0
TEXT
8
DIM-LABELS
7
STANDARD
10
1086.0510
20
-835.1007
30
0.0
40
5.5
1
100.0'
50
0.0
0
TEXT
8
DIM-LABELS
7
STANDARD
10
1054.0350
20
-882.9883
30
0.0
40
5.5
1
75.0'
50
0.0
0
TEXT
8
DIM-LABELS
7
STANDARD
10
1018.1111
20
-837.9581
30
0.0
40
5.5
1
100.0'
50
0.0
0
POLYLINE
8
LOT_LINE
66
1
70
1
0
VERTEX
8
LOT_LINE
10
1087.4469
20
-784.9978
30
0.0
0
VERTEX
8
LOT_LINE
10
1162.3806
20
-781.8462
30
0.0
0
VERTEX
8
LOT_LINE
10
1166.5827
20
-881.7579
30
0.0
0
VERTEX
8
LOT_LINE
10
1091.6490
20
-884.9095
30
0.0
0
SEQEND
0
TEXT
8
TEXT-LABELS
7
STANDARD
10
1127.0148
20
-833.3778
30
0.0
40
8.0
1
23
50
0.0
0
TEXT
8
DIM-LABELS
7
STANDARD
10
1125.0608
20
-786.9189
30
0.0
40
5.5
1
75.0'
50
0.0
0
TEXT
8
DIM-LABELS
7
STANDARD
10
1160.9848
20
-831.9491
30
0.0
40
5.5
1
100.0'
50
0.0
0
TEXT
8
DIM-LABELS
7
STANDARD
10
1128.9688
20
-879.8368
30
0.0
40
5.5
1
75.0'
50
0.0
0
TEXT
8
DIM-LABELS
7
STANDARD
10
1093.0448
20
-834.8066
30
0.0
40
5.5
1
100.0'
50
0.0
0
POLYLINE
8
LOT_LINE
66
1
70
1
0
VERTEX
8
LOT_LINE
10
1162.3806
20
-781.8462
30
0.0
0
VERTEX
8
LOT_LINE
10
1237.3144
20
-778.6946
30
0.0
0
VERTEX
8
LOT_LINE
10
1241.5165
20
-878.6063
30
0.0
0
VERTEX
8
LOT_LINE
10
1166.5827
20
-881.7579
30
0.0
0
SEQEND
0
TEXT
8
TEXT-LABELS
7
STANDARD
10
1201.9486
20
-830.2263
30
0.0
40
8.0
1
22
50
0.0
0
TEXT
8
DIM-LABELS
7
STANDARD
10
1199.9946
20
-783.7673
30
0.0
40
5.5
1
75.0'
50
0.0
0
TEXT
8
DIM-LABELS
7
STANDARD
10
1235.9185
20
-828.7976
30
0.0
40
5.5
1
100.0'
50
0.0
0
TEXT
8
DIM-LABELS
7
STANDARD
10
1203.9025
20
-876.6852
30
0.0
40
5.5
1
75.0'
50
0.0
0
TEXT
8
DIM-LABELS
7
STANDARD
10
1167.9786
20
-831.6550
30
0.0
40
5.5
1
100.0'
50
0.0
0
POLYLINE
8
LOT_LINE
66
1
70
1
0
VERTEX
8
LOT_LINE
10
1237.3144
20
-778.6946
30
0.0
0
VERTEX
8
LOT_LINE
10
1312.2481
20
-775.5431
30
0.0
0
VERTEX
8
LOT_LINE
10
1316.4502
20
-875.4547
30
0.0
0
VERTEX
8
LOT_LINE
10
1241.5165
20
-878.6063
30
0.0
0
SEQEND
0
TEXT
8
TEXT-LABELS
7
STANDARD
10
1276.8823
20
-827.0747
30
0.0
40
8.0
1
21
50
0.0
0
TEXT
8
DIM-LABELS
7
STANDARD
10
1274.9283
20
-780.6158
30
0.0
40
5.5
1
75.0'
50
0.0
0
TEXT
8
DIM-LABELS
7
STANDARD
10
1310.8523
20
-825.6460
30
0.0
40
5.5
1
100.0'
50
0.0
0
TEXT
8
DIM-LABELS
7
STANDARD
10
1278.8363
20
-873.5336
30
0.0
40
5.5
1
75.0'
50
0.0
0
TEXT
8
DIM-LABELS
7
STANDARD
10
1242.9123
20
-828.5034
30
0.0
40
5.5
1
100.0'
50
0.0
0
POLYLINE
8
LOT_LINE
66
1
70
1
0
VERTEX
8
LOT_LINE
10
1312.2481
20
-775.5431
30
0.0
0
VERTEX
8
LOT_LINE
10
1387.1819
20
-772.3915
30
0.0
0
VERTEX
8
LOT_LINE
10
1391.3840
20
-872.3032
30
0.0
0
VERTEX
8
LOT_LINE
10
1316.4502
20
-875.4547
30
0.0
0
SEQEND
0
TEXT
8
TEXT-LABELS
7
STANDARD
10
1351.8161
20
-823.9231
30
0.0
40
8.0
1
20
50
0.0
0
TEXT
8
DIM-LABELS
7
STANDARD
10
1349.8621
20
-777.4642
30
0.0
40
5.5
1
75.0'
50
0.0
0
TEXT
8
DIM-LABELS
7
STANDARD
10
1385.7860
20
-822.4944
30
0.0
40
5.5
1
100.0'
50
0.0
0
TEXT
8
DIM-LABELS
7
STANDARD
10
1353.7700
20
-870.3821
30
0.0
40
5.5
1
75.0'
50
0.0
0
TEXT
8
DIM-LABELS
7
STANDARD
10
1317.8461
20
-825.3518
30
0.0
40
5.5
1
100.0'
50
0.0
0
POLYLINE
8
LOT_LINE
66
1
70
1
0
VERTEX
8
LOT_LINE
10
1387.1819
20
-772.3915
30
0.0
0
VERTEX
8
LOT_LINE
10
1462.1157
20
-769.2399
30
0.0
0
VERTEX
8
LOT_LINE
10
1466.3177
20
-869.1516
30
0.0
0
VERTEX
8
LOT_LINE
10
1391.3840
20
-872.3032
30
0.0
0
SEQEND
0
TEXT
8
TEXT-LABELS
7
STANDARD
10
1426.7498
20
-820.7716
30
0.0
40
8.0
1
19
50
0.0
0
TEXT
8
DIM-LABELS
7
STANDARD
10
1424.7958
20
-774.3126
30
0.0
40
5.5
1
75.0'
50
0.0
0
TEXT
8
DIM-LABELS
7
STANDARD
10
1460.7198
20
-819.3428
30
0.0
40
5.5
1
100.0'
50
0.0
0
TEXT
8
DIM-LABELS
7
STANDARD
10
1428.7038
20
-867.2305
30
0.0
40
5.5
1
75.0'
50
0.0
0
TEXT
8
DIM-LABELS
7
STANDARD
10
1392.7799
20
-822.2003
30
0.0
40
5.5
1
100.0'
50
0.0
0
POLYLINE
8
LOT_LINE
66
1
70
1
0
VERTEX
8
LOT_LINE
10
1462.1157
20
-769.2399
30
0.0
0
VERTEX
8
LOT_LINE
10
1537.0494
20
-766.0884
30
0.0
0
VERTEX
8
LOT_LINE
10
1541.2515
20
-866.0000
30
0.0
0
VERTEX
8
LOT_LINE
10
1466.3177
20
-869.1516
30
0.0
0
SEQEND
0
TEXT
8
TEXT-LABELS
7
STANDARD
10
1501.6836
20
-817.6200
30
0.0
40
8.0
1
18
50
0.0
0
TEXT
8
DIM-LABELS
7
STANDARD
10
1499.7296
20
-771.1611
30
0.0
40
5.5
1
75.0'
50
0.0
0
TEXT
8
DIM-LABELS
7
STANDARD
10
1535.6535
20
-816.1913
30
0.0
40
5.5
1
100.0'
50
0.0
0
TEXT
8
DIM-LABELS
7
STANDARD
10
1503.6376
20
-864.0789
30
0.0
40
5.5
1
75.0'
50
0.0
0
TEXT
8
DIM-LABELS
7
STANDARD
10
1467.7136
20
-819.0487
30
0.0
40
5.5
1
100.0'
50
0.0
0
LINE
8
BOUNDARY
10
0.0000
20
0.0000
30
0.0
11
1624.9335
21
68.3416
31
0.0
0
TEXT
8
DIM-LABELS
7
STANDARD
10
450.0000
20
12.0000
30
0.0
40
10
1
N'ly line Section 32   S87%%d35'30"W  1626.37'
50
0.0
0
LINE
8
EASEMENT
10
2.1010
20
-49.9558
30
0.0
11
1627.0345
21
18.3858
31
0.0
0
LINE
8
EASEMENT
10
49.9558
20
2.1010
30
0.0
11
89.0353
21
-927.0775
31
0.0
0
LINE
8
ROW_STREET
10
216.1177
20
-141.0431
30
0.0
11
1508.4751
21
-86.6890
31
0.0
0
LINE
8
ROW_STREET
10
218.6389
20
-200.9901
30
0.0
11
1510.9964
21
-146.6360
31
0.0
0
TEXT
8
ROW_STREET
7
STANDARD
10
567.0691
20
-156.3093
30
0.0
40
10.0
1
STARFISH AVENUE (60' R/W)   S87%%d35'30"W
50
0.0
0
LINE
8
ROW_STREET
10
227.0431
20
-400.8135
30
0.0
11
1519.4006
21
-346.4593
31
0.0
0
LINE
8
ROW_STREET
10
229.5644
20
-460.7605
30
0.0
11
1521.9219
21
-406.4063
31
0.0
0
TEXT
8
ROW_STREET
7
STANDARD
10
577.9946
20
-416.0796
30
0.0
40
10.0
1
SAIL AVENUE (60' R/W)   S87%%d35'30"W
50
0.0
0
POINT
8
CONTROL
10
187.4048
20
-172.2772
30
0.0
0
TEXT
8
CONTROL
7
STANDARD
10
187.4048
20
-154.2772
30
0.0
40
11.0
1
GROUND GPS TIE: Starfish Ave & Mangrove Ave (30.292130%%d N, -81.530280%%d W) [Zero Fudging]
50
0.0
0
TEXT
8
TITLEBLOCK
7
STANDARD
10
0.0000
20
250.0000
30
0.0
40
12.0
1
BEACHWOOD UNIT TWO -- PLAT BOOK 30, PAGES 82 & 82A, DUVAL COUNTY, FL (1960)
50
0.0
0
TEXT
8
TITLEBLOCK
7
STANDARD
10
0.0000
20
222.0000
30
0.0
40
8.5
1
Beach Boulevard Estates, Inc.  |  Simmerson, Bell & Akel  |  Scale 1"=100'
50
0.0
0
TEXT
8
TITLEBLOCK
7
STANDARD
10
0.0000
20
194.0000
30
0.0
40
8.5
1
121 AUTONOMOUS AGENT LOT TRAVERSES WITH INTEGRATED OMNI-PARAMETER CURVE SOLVER
50
0.0
0
TEXT
8
TITLEBLOCK
7
STANDARD
10
0.0000
20
166.0000
30
0.0
40
8.5
1

50
0.0
0
TEXT
8
TITLEBLOCK
7
STANDARD
10
0.0000
20
138.0000
30
0.0
40
8.5
1
AUDIT SUMMARY: 121 of 121 lots certified closed (precision >= 1:10,000)
50
0.0
0
TEXT
8
TITLEBLOCK
7
STANDARD
10
0.0000
20
110.0000
30
0.0
40
8.5
1
STANDARD LOT AREA: 7,500.0 SF (75.00' x 100.00') | END LOTS: 9,350 SF to 13,105 SF
50
0.0
0
TEXT
8
TITLEBLOCK
7
STANDARD
10
0.0000
20
82.0000
30
0.0
40
8.5
1
CURVES SOLVED: Marina Ave R=389.27' (C6-C8), Beachwood Blvd R=1959.86' (C2)
50
0.0
0
TEXT
8
TITLEBLOCK
7
STANDARD
10
0.0000
20
54.0000
30
0.0
40
8.5
1
NATURAL PHYSICAL GPS TIE: 30.292130 N, -81.530280 W (Zero Artificial Offset Fudging)
50
0.0
0
ENDSEC
0
EOF
