0
SECTION
2
HEADER
9
$ACADVER
1
AC1009
9
$DWGCODEPAGE
3
ANSI_1252
0
ENDSEC
0
SECTION
2
TABLES
0
TABLE
2
LTYPE
70
9
0
LTYPE
2
CONTINUOUS
70
0
3
Solid
72
65
73
0
40
0.0
0
LTYPE
2
DASHED
70
0
3
Dashed
72
65
73
2
40
0.75
49
0.5
74
0
49
-0.25
74
0
0
LTYPE
2
DASHED2
70
0
3
Dashed (.5x)
72
65
73
2
40
0.375
49
0.25
74
0
49
-0.125
74
0
0
LTYPE
2
HIDDEN
70
0
3
Hidden
72
65
73
2
40
0.375
49
0.25
74
0
49
-0.125
74
0
0
LTYPE
2
CENTER
70
0
3
Center
72
65
73
4
40
2.0
49
1.25
74
0
49
-0.25
74
0
49
0.25
74
0
49
-0.25
74
0
0
LTYPE
2
PHANTOM
70
0
3
Phantom
72
65
73
6
40
2.5
49
1.25
74
0
49
-0.25
74
0
49
0.25
74
0
49
-0.25
74
0
49
0.25
74
0
49
-0.25
74
0
0
LTYPE
2
ROT_-78.54
70
0
3
Solid
72
65
73
0
40
0.0
0
LTYPE
2
ROT_-89.58
70
0
3
Solid
72
65
73
0
40
0.0
0
LTYPE
2
ROT_0.42
70
0
3
Solid
72
65
73
0
40
0.0
0
ENDTAB
0
TABLE
2
LAYER
70
11
0
LAYER
2
0
70
0
62
7
6
CONTINUOUS
0
LAYER
2
BOUNDARY
70
0
62
7
6
CONTINUOUS
0
LAYER
2
LOT_LINE
70
0
62
4
6
CONTINUOUS
0
LAYER
2
ROW_STREET
70
0
62
2
6
DASHED
0
LAYER
2
TEXT-LABELS
70
0
62
7
6
CONTINUOUS
0
LAYER
2
DIM-LABELS
70
0
62
3
6
CONTINUOUS
0
LAYER
2
TITLEBLOCK
70
0
62
2
6
CONTINUOUS
0
LAYER
2
CONTROL
70
0
62
1
6
CONTINUOUS
0
LAYER
2
TABLE_BORDER
70
0
62
7
6
CONTINUOUS
0
LAYER
2
TABLE_TEXT
70
0
62
7
6
CONTINUOUS
0
LAYER
2
TABLE_HEADER
70
0
62
2
6
CONTINUOUS
0
ENDTAB
0
TABLE
2
STYLE
70
4
0
STYLE
2
STANDARD
70
0
40
0.0
41
1.0
50
0.0
71
0
42
0.2
3
Arial
4

0
STYLE
2
ARIAL
70
0
40
0.0
41
1.0
50
0.0
71
0
42
0.2
3
Arial
4

0
STYLE
2
ARIAL_TTF
70
0
40
0.0
41
1.0
50
0.0
71
0
42
0.2
3
arial.ttf
4

0
STYLE
2
SIMPLEX
70
0
40
0.0
41
1.0
50
0.0
71
0
42
0.2
3
simplex.shx
4

0
ENDTAB
0
ENDSEC
0
SECTION
2
ENTITIES
0
LINE
8
BOUNDARY
10
0.0000
20
0.0000
30
0.0
11
-279.9926
21
-2.0362
31
0.0
0
LINE
8
BOUNDARY
10
-279.9926
20
-2.0362
30
0.0
11
-500.1962
21
1083.9912
31
0.0
0
LINE
8
BOUNDARY
10
-500.1962
20
1083.9912
30
0.0
11
-7.9092
21
1087.5712
31
0.0
0
LINE
8
BOUNDARY
10
-7.9092
20
1087.5712
30
0.0
11
0.0000
21
0.0000
31
0.0
0
TEXT
8
DIM-LABELS
6
ROT_0.42
7
STANDARD
10
-139.8218
20
-25.0175
30
0.0
40
6.0
1
16TH STREET  S89%%d35'00"W  280.00'
50
0.42
72
1
11
-139.8218
21
-25.0175
31
0.0
73
2
0
TEXT
8
DIM-LABELS
6
ROT_-78.54
7
STANDARD
10
-413.6157
20
536.2083
30
0.0
40
6.0
1
OLD F.E.C. RAILWAY R/W  N11%%d27'42.98"W  1108.13'
50
-78.54
72
1
11
-413.6157
21
536.2083
31
0.0
73
2
0
TEXT
8
DIM-LABELS
6
ROT_0.42
7
STANDARD
10
-254.2272
20
1109.7806
30
0.0
40
6.0
1
17TH STREET  N89%%d35'00"E  492.30'
50
0.42
72
1
11
-254.2272
21
1109.7806
31
0.0
73
2
0
TEXT
8
DIM-LABELS
6
ROT_-89.58
7
STANDARD
10
20.0448
20
543.9602
30
0.0
40
6.0
1
OCEAN BOULEVARD  S00%%d25'00"E  1087.60'
50
-89.58
72
1
11
20.0448
21
543.9602
31
0.0
73
2
0
POLYLINE
8
LOT_LINE
66
1
70
1
0
VERTEX
8
LOT_LINE
10
-440.1977
20
1084.4275
30
0.0
0
VERTEX
8
LOT_LINE
10
-390.1991
20
1084.7911
30
0.0
0
VERTEX
8
LOT_LINE
10
-389.3264
20
964.7943
30
0.0
0
VERTEX
8
LOT_LINE
10
-439.3251
20
964.4307
30
0.0
0
SEQEND
0
TEXT
8
TEXT-LABELS
7
STANDARD
10
-414.7621
20
1024.6109
30
0.0
40
4.0
1
1
50
0.0
72
1
11
-414.7621
21
1024.6109
31
0.0
73
2
0
POLYLINE
8
LOT_LINE
66
1
70
1
0
VERTEX
8
LOT_LINE
10
-390.1991
20
1084.7911
30
0.0
0
VERTEX
8
LOT_LINE
10
-340.2004
20
1085.1547
30
0.0
0
VERTEX
8
LOT_LINE
10
-339.3277
20
965.1579
30
0.0
0
VERTEX
8
LOT_LINE
10
-389.3264
20
964.7943
30
0.0
0
SEQEND
0
TEXT
8
TEXT-LABELS
7
STANDARD
10
-364.7634
20
1024.9745
30
0.0
40
4.0
1
2
50
0.0
72
1
11
-364.7634
21
1024.9745
31
0.0
73
2
0
POLYLINE
8
LOT_LINE
66
1
70
1
0
VERTEX
8
LOT_LINE
10
-340.2004
20
1085.1547
30
0.0
0
VERTEX
8
LOT_LINE
10
-290.2017
20
1085.5183
30
0.0
0
VERTEX
8
LOT_LINE
10
-289.3291
20
965.5215
30
0.0
0
VERTEX
8
LOT_LINE
10
-339.3277
20
965.1579
30
0.0
0
SEQEND
0
TEXT
8
TEXT-LABELS
7
STANDARD
10
-314.7647
20
1025.3381
30
0.0
40
4.0
1
3
50
0.0
72
1
11
-314.7647
21
1025.3381
31
0.0
73
2
0
POLYLINE
8
LOT_LINE
66
1
70
1
0
VERTEX
8
LOT_LINE
10
-290.2017
20
1085.5183
30
0.0
0
VERTEX
8
LOT_LINE
10
-240.2030
20
1085.8819
30
0.0
0
VERTEX
8
LOT_LINE
10
-239.3304
20
965.8851
30
0.0
0
VERTEX
8
LOT_LINE
10
-289.3291
20
965.5215
30
0.0
0
SEQEND
0
TEXT
8
TEXT-LABELS
7
STANDARD
10
-264.7660
20
1025.7017
30
0.0
40
4.0
1
4
50
0.0
72
1
11
-264.7660
21
1025.7017
31
0.0
73
2
0
POLYLINE
8
LOT_LINE
66
1
70
1
0
VERTEX
8
LOT_LINE
10
-240.2030
20
1085.8819
30
0.0
0
VERTEX
8
LOT_LINE
10
-190.2044
20
1086.2455
30
0.0
0
VERTEX
8
LOT_LINE
10
-189.3317
20
966.2487
30
0.0
0
VERTEX
8
LOT_LINE
10
-239.3304
20
965.8851
30
0.0
0
SEQEND
0
TEXT
8
TEXT-LABELS
7
STANDARD
10
-214.7674
20
1026.0653
30
0.0
40
4.0
1
5
50
0.0
72
1
11
-214.7674
21
1026.0653
31
0.0
73
2
0
POLYLINE
8
LOT_LINE
66
1
70
1
0
VERTEX
8
LOT_LINE
10
-190.2044
20
1086.2455
30
0.0
0
VERTEX
8
LOT_LINE
10
-140.2057
20
1086.6091
30
0.0
0
VERTEX
8
LOT_LINE
10
-139.3330
20
966.6123
30
0.0
0
VERTEX
8
LOT_LINE
10
-189.3317
20
966.2487
30
0.0
0
SEQEND
0
TEXT
8
TEXT-LABELS
7
STANDARD
10
-164.7687
20
1026.4289
30
0.0
40
4.0
1
6
50
0.0
72
1
11
-164.7687
21
1026.4289
31
0.0
73
2
0
POLYLINE
8
LOT_LINE
66
1
70
1
0
VERTEX
8
LOT_LINE
10
-140.2057
20
1086.6091
30
0.0
0
VERTEX
8
LOT_LINE
10
-90.2070
20
1086.9727
30
0.0
0
VERTEX
8
LOT_LINE
10
-89.3343
20
966.9759
30
0.0
0
VERTEX
8
LOT_LINE
10
-139.3330
20
966.6123
30
0.0
0
SEQEND
0
TEXT
8
TEXT-LABELS
7
STANDARD
10
-114.7700
20
1026.7925
30
0.0
40
4.0
1
7
50
0.0
72
1
11
-114.7700
21
1026.7925
31
0.0
73
2
0
POLYLINE
8
LOT_LINE
66
1
70
1
0
VERTEX
8
LOT_LINE
10
-90.2070
20
1086.9727
30
0.0
0
VERTEX
8
LOT_LINE
10
-40.2083
20
1087.3364
30
0.0
0
VERTEX
8
LOT_LINE
10
-39.3357
20
967.3395
30
0.0
0
VERTEX
8
LOT_LINE
10
-89.3343
20
966.9759
30
0.0
0
SEQEND
0
TEXT
8
TEXT-LABELS
7
STANDARD
10
-64.7713
20
1027.1561
30
0.0
40
4.0
1
8
50
0.0
72
1
11
-64.7713
21
1027.1561
31
0.0
73
2
0
POLYLINE
8
LOT_LINE
66
1
70
1
0
VERTEX
8
LOT_LINE
10
-40.2083
20
1087.3364
30
0.0
0
VERTEX
8
LOT_LINE
10
9.7904
20
1087.7000
30
0.0
0
VERTEX
8
LOT_LINE
10
10.6630
20
967.7031
30
0.0
0
VERTEX
8
LOT_LINE
10
-39.3357
20
967.3395
30
0.0
0
SEQEND
0
TEXT
8
TEXT-LABELS
7
STANDARD
10
-14.7727
20
1027.5197
30
0.0
40
4.0
1
9
50
0.0
72
1
11
-14.7727
21
1027.5197
31
0.0
73
2
0
POLYLINE
8
LOT_LINE
66
1
70
1
0
VERTEX
8
LOT_LINE
10
9.7904
20
1087.7000
30
0.0
0
VERTEX
8
LOT_LINE
10
59.7890
20
1088.0636
30
0.0
0
VERTEX
8
LOT_LINE
10
60.6617
20
968.0667
30
0.0
0
VERTEX
8
LOT_LINE
10
10.6630
20
967.7031
30
0.0
0
SEQEND
0
TEXT
8
TEXT-LABELS
7
STANDARD
10
35.2260
20
1027.8833
30
0.0
40
4.0
1
10
50
0.0
72
1
11
35.2260
21
1027.8833
31
0.0
73
2
0
POLYLINE
8
LOT_LINE
66
1
70
1
0
VERTEX
8
LOT_LINE
10
-438.9615
20
914.4320
30
0.0
0
VERTEX
8
LOT_LINE
10
-388.9628
20
914.7956
30
0.0
0
VERTEX
8
LOT_LINE
10
-388.0902
20
794.7988
30
0.0
0
VERTEX
8
LOT_LINE
10
-438.0888
20
794.4352
30
0.0
0
SEQEND
0
TEXT
8
TEXT-LABELS
7
STANDARD
10
-413.5258
20
854.6154
30
0.0
40
4.0
1
1
50
0.0
72
1
11
-413.5258
21
854.6154
31
0.0
73
2
0
POLYLINE
8
LOT_LINE
66
1
70
1
0
VERTEX
8
LOT_LINE
10
-388.9628
20
914.7956
30
0.0
0
VERTEX
8
LOT_LINE
10
-338.9641
20
915.1592
30
0.0
0
VERTEX
8
LOT_LINE
10
-338.0915
20
795.1624
30
0.0
0
VERTEX
8
LOT_LINE
10
-388.0902
20
794.7988
30
0.0
0
SEQEND
0
TEXT
8
TEXT-LABELS
7
STANDARD
10
-363.5271
20
854.9790
30
0.0
40
4.0
1
2
50
0.0
72
1
11
-363.5271
21
854.9790
31
0.0
73
2
0
POLYLINE
8
LOT_LINE
66
1
70
1
0
VERTEX
8
LOT_LINE
10
-338.9641
20
915.1592
30
0.0
0
VERTEX
8
LOT_LINE
10
-288.9655
20
915.5228
30
0.0
0
VERTEX
8
LOT_LINE
10
-288.0928
20
795.5260
30
0.0
0
VERTEX
8
LOT_LINE
10
-338.0915
20
795.1624
30
0.0
0
SEQEND
0
TEXT
8
TEXT-LABELS
7
STANDARD
10
-313.5285
20
855.3426
30
0.0
40
4.0
1
3
50
0.0
72
1
11
-313.5285
21
855.3426
31
0.0
73
2
0
POLYLINE
8
LOT_LINE
66
1
70
1
0
VERTEX
8
LOT_LINE
10
-288.9655
20
915.5228
30
0.0
0
VERTEX
8
LOT_LINE
10
-238.9668
20
915.8864
30
0.0
0
VERTEX
8
LOT_LINE
10
-238.0941
20
795.8896
30
0.0
0
VERTEX
8
LOT_LINE
10
-288.0928
20
795.5260
30
0.0
0
SEQEND
0
TEXT
8
TEXT-LABELS
7
STANDARD
10
-263.5298
20
855.7062
30
0.0
40
4.0
1
4
50
0.0
72
1
11
-263.5298
21
855.7062
31
0.0
73
2
0
POLYLINE
8
LOT_LINE
66
1
70
1
0
VERTEX
8
LOT_LINE
10
-238.9668
20
915.8864
30
0.0
0
VERTEX
8
LOT_LINE
10
-188.9681
20
916.2500
30
0.0
0
VERTEX
8
LOT_LINE
10
-188.0954
20
796.2532
30
0.0
0
VERTEX
8
LOT_LINE
10
-238.0941
20
795.8896
30
0.0
0
SEQEND
0
TEXT
8
TEXT-LABELS
7
STANDARD
10
-213.5311
20
856.0698
30
0.0
40
4.0
1
5
50
0.0
72
1
11
-213.5311
21
856.0698
31
0.0
73
2
0
POLYLINE
8
LOT_LINE
66
1
70
1
0
VERTEX
8
LOT_LINE
10
-188.9681
20
916.2500
30
0.0
0
VERTEX
8
LOT_LINE
10
-138.9694
20
916.6136
30
0.0
0
VERTEX
8
LOT_LINE
10
-138.0968
20
796.6168
30
0.0
0
VERTEX
8
LOT_LINE
10
-188.0954
20
796.2532
30
0.0
0
SEQEND
0
TEXT
8
TEXT-LABELS
7
STANDARD
10
-163.5324
20
856.4334
30
0.0
40
4.0
1
6
50
0.0
72
1
11
-163.5324
21
856.4334
31
0.0
73
2
0
POLYLINE
8
LOT_LINE
66
1
70
1
0
VERTEX
8
LOT_LINE
10
-138.9694
20
916.6136
30
0.0
0
VERTEX
8
LOT_LINE
10
-88.9707
20
916.9772
30
0.0
0
VERTEX
8
LOT_LINE
10
-88.0981
20
796.9804
30
0.0
0
VERTEX
8
LOT_LINE
10
-138.0968
20
796.6168
30
0.0
0
SEQEND
0
TEXT
8
TEXT-LABELS
7
STANDARD
10
-113.5338
20
856.7970
30
0.0
40
4.0
1
7
50
0.0
72
1
11
-113.5338
21
856.7970
31
0.0
73
2
0
POLYLINE
8
LOT_LINE
66
1
70
1
0
VERTEX
8
LOT_LINE
10
-88.9707
20
916.9772
30
0.0
0
VERTEX
8
LOT_LINE
10
-38.9721
20
917.3408
30
0.0
0
VERTEX
8
LOT_LINE
10
-38.0994
20
797.3440
30
0.0
0
VERTEX
8
LOT_LINE
10
-88.0981
20
796.9804
30
0.0
0
SEQEND
0
TEXT
8
TEXT-LABELS
7
STANDARD
10
-63.5351
20
857.1606
30
0.0
40
4.0
1
8
50
0.0
72
1
11
-63.5351
21
857.1606
31
0.0
73
2
0
POLYLINE
8
LOT_LINE
66
1
70
1
0
VERTEX
8
LOT_LINE
10
-38.9721
20
917.3408
30
0.0
0
VERTEX
8
LOT_LINE
10
11.0266
20
917.7045
30
0.0
0
VERTEX
8
LOT_LINE
10
11.8993
20
797.7076
30
0.0
0
VERTEX
8
LOT_LINE
10
-38.0994
20
797.3440
30
0.0
0
SEQEND
0
TEXT
8
TEXT-LABELS
7
STANDARD
10
-13.5364
20
857.5242
30
0.0
40
4.0
1
9
50
0.0
72
1
11
-13.5364
21
857.5242
31
0.0
73
2
0
POLYLINE
8
LOT_LINE
66
1
70
1
0
VERTEX
8
LOT_LINE
10
11.0266
20
917.7045
30
0.0
0
VERTEX
8
LOT_LINE
10
61.0253
20
918.0681
30
0.0
0
VERTEX
8
LOT_LINE
10
61.8980
20
798.0712
30
0.0
0
VERTEX
8
LOT_LINE
10
11.8993
20
797.7076
30
0.0
0
SEQEND
0
TEXT
8
TEXT-LABELS
7
STANDARD
10
36.4623
20
857.8878
30
0.0
40
4.0
1
10
50
0.0
72
1
11
36.4623
21
857.8878
31
0.0
73
2
0
TEXT
8
DIM-LABELS
7
STANDARD
10
-190.1977
20
1024.4275
30
0.0
40
4.5
1
BLOCK 1 -- LOTS 1 TO 10 (50' x 120' TYP., 6,000 SF)
50
0.0
72
1
11
-190.1977
21
1024.4275
31
0.0
73
2
0
TEXT
8
DIM-LABELS
7
STANDARD
10
-188.9615
20
854.4320
30
0.0
40
4.5
1
BLOCK 2 -- LOTS 1 TO 10 (50' x 120' TYP., 6,000 SF)
50
0.0
72
1
11
-188.9615
21
854.4320
31
0.0
73
2
0
LINE
8
ROW_STREET
10
-439.3251
20
964.4307
30
0.0
11
60.6617
21
968.0667
31
0.0
0
LINE
8
ROW_STREET
10
-438.9615
20
914.4320
30
0.0
11
61.0253
21
918.0681
31
0.0
0
TEXT
8
ROW_STREET
6
ROT_0.42
7
STANDARD
10
-189.1499
20
941.2494
30
0.0
40
4.5
1
17TH STREET (50' R/W)
50
0.42
72
1
11
-189.1499
21
941.2494
31
0.0
73
2
0
POINT
8
CONTROL
10
0.0000
20
0.0000
30
0.0
0
TEXT
8
CONTROL
7
STANDARD
10
0.0000
20
15.0000
30
0.0
40
8.0
1
P.O.B. (16th St & Ocean Blvd)
50
0.0
0
TEXT
8
TITLEBLOCK
7
STANDARD
10
-440.1962
20
1347.5712
30
0.0
40
8.0
1
OCEAN GROVE, UNIT NO. 1 -- PLAT BOOK 15, PAGE 82, DUVAL COUNTY, FL (1939)
50
0.0
0
TEXT
8
TITLEBLOCK
7
STANDARD
10
-440.1962
20
1319.5712
30
0.0
40
5.0
1
Subdivision of part of Lot 7, Fractional Section 8, T2S, R29E, North Atlantic Beach
50
0.0
0
TEXT
8
TITLEBLOCK
7
STANDARD
10
-440.1962
20
1291.5712
30
0.0
40
5.0
1
COMPLETE PARENT BOUNDARY TRAVERSE (CAPTION) & LOT FABRIC
50
0.0
0
TEXT
8
TITLEBLOCK
7
STANDARD
10
-440.1962
20
1263.5712
30
0.0
40
5.0
1
PARENT TRACT: 4 courses (16th St, FEC Railway, 17th St, Ocean Blvd).
50
0.0
0
TEXT
8
TITLEBLOCK
7
STANDARD
10
-440.1962
20
1235.5712
30
0.0
40
5.0
1
Perimeter: 2968.0 ft | Area: 419,977 SF (9.64 Acres).
50
0.0
0
TEXT
8
TITLEBLOCK
7
STANDARD
10
-440.1962
20
1207.5712
30
0.0
40
5.0
1
FEC Corridor Bearing: N11%%d27'42.98"W (1108.13 ft) | Orthogonality: EXACT 90%%d.
50
0.0
0
TEXT
8
TITLEBLOCK
7
STANDARD
10
-440.1962
20
1179.5712
30
0.0
40
5.0
1
LOT BLOCKS: 20 lots in Blocks 1 & 2 closure-verified (all at 6,000.0 SF).
50
0.0
0
TEXT
8
TITLEBLOCK
7
STANDARD
10
-440.1962
20
1151.5712
30
0.0
40
5.0
1
GROUND-TRUTHED GPS TIE: Dewees Ave & Coquina Pl (30.342120%%d N, -81.398650%%d W).
50
0.0
0
LINE
8
TABLE_BORDER
10
70.0000
20
1080.0000
30
0.0
11
480.0000
21
1080.0000
31
0.0
0
LINE
8
TABLE_BORDER
10
70.0000
20
530.0000
30
0.0
11
480.0000
21
530.0000
31
0.0
0
LINE
8
TABLE_BORDER
10
70.0000
20
1080.0000
30
0.0
11
70.0000
21
530.0000
31
0.0
0
LINE
8
TABLE_BORDER
10
480.0000
20
1080.0000
30
0.0
11
480.0000
21
530.0000
31
0.0
0
LINE
8
TABLE_BORDER
10
70.0000
20
1042.0000
30
0.0
11
480.0000
21
1042.0000
31
0.0
0
TEXT
8
TABLE_HEADER
7
STANDARD
10
275.0000
20
1061.0000
30
0.0
40
9.5
1
OCEAN GROVE UNIT NO. 1 -- LOT SCHEDULE TABLE
50
0.0
72
1
11
275.0000
21
1061.0000
31
0.0
73
2
0
LINE
8
TABLE_BORDER
10
70.0000
20
1010.0000
30
0.0
11
480.0000
21
1010.0000
31
0.0
0
TEXT
8
TABLE_HEADER
7
STANDARD
10
92.5000
20
1026.0000
30
0.0
40
8.049999999999999
1
LOT
50
0.0
72
1
11
92.5000
21
1026.0000
31
0.0
73
2
0
TEXT
8
TABLE_HEADER
7
STANDARD
10
137.5000
20
1026.0000
30
0.0
40
8.049999999999999
1
BLOCK
50
0.0
72
1
11
137.5000
21
1026.0000
31
0.0
73
2
0
LINE
8
TABLE_BORDER
10
115.0000
20
1042.0000
30
0.0
11
115.0000
21
1010.0000
31
0.0
0
TEXT
8
TABLE_HEADER
7
STANDARD
10
207.5000
20
1026.0000
30
0.0
40
8.049999999999999
1
DIMENSIONS
50
0.0
72
1
11
207.5000
21
1026.0000
31
0.0
73
2
0
LINE
8
TABLE_BORDER
10
160.0000
20
1042.0000
30
0.0
11
160.0000
21
1010.0000
31
0.0
0
TEXT
8
TABLE_HEADER
7
STANDARD
10
300.0000
20
1026.0000
30
0.0
40
8.049999999999999
1
AREA (SF)
50
0.0
72
1
11
300.0000
21
1026.0000
31
0.0
73
2
0
LINE
8
TABLE_BORDER
10
255.0000
20
1042.0000
30
0.0
11
255.0000
21
1010.0000
31
0.0
0
TEXT
8
TABLE_HEADER
7
STANDARD
10
375.0000
20
1026.0000
30
0.0
40
8.049999999999999
1
ACRES
50
0.0
72
1
11
375.0000
21
1026.0000
31
0.0
73
2
0
LINE
8
TABLE_BORDER
10
345.0000
20
1042.0000
30
0.0
11
345.0000
21
1010.0000
31
0.0
0
TEXT
8
TABLE_HEADER
7
STANDARD
10
442.5000
20
1026.0000
30
0.0
40
8.049999999999999
1
PERIMETER
50
0.0
72
1
11
442.5000
21
1026.0000
31
0.0
73
2
0
LINE
8
TABLE_BORDER
10
405.0000
20
1042.0000
30
0.0
11
405.0000
21
1010.0000
31
0.0
0
LINE
8
TABLE_BORDER
10
70.0000
20
986.0000
30
0.0
11
480.0000
21
986.0000
31
0.0
0
TEXT
8
TABLE_TEXT
7
STANDARD
10
92.5000
20
998.0000
30
0.0
40
7.0
1
1
50
0.0
72
1
11
92.5000
21
998.0000
31
0.0
73
2
0
TEXT
8
TABLE_TEXT
7
STANDARD
10
137.5000
20
998.0000
30
0.0
40
7.0
1
1
50
0.0
72
1
11
137.5000
21
998.0000
31
0.0
73
2
0
TEXT
8
TABLE_TEXT
7
STANDARD
10
207.5000
20
998.0000
30
0.0
40
7.0
1
50.0' x 120.0'
50
0.0
72
1
11
207.5000
21
998.0000
31
0.0
73
2
0
TEXT
8
TABLE_TEXT
7
STANDARD
10
339.0000
20
998.0000
30
0.0
40
7.0
1
6,000.0
50
0.0
72
2
11
339.0000
21
998.0000
31
0.0
73
2
0
TEXT
8
TABLE_TEXT
7
STANDARD
10
399.0000
20
998.0000
30
0.0
40
7.0
1
0.1377
50
0.0
72
2
11
399.0000
21
998.0000
31
0.0
73
2
0
TEXT
8
TABLE_TEXT
7
STANDARD
10
474.0000
20
998.0000
30
0.0
40
7.0
1
340.0'
50
0.0
72
2
11
474.0000
21
998.0000
31
0.0
73
2
0
LINE
8
TABLE_BORDER
10
70.0000
20
962.0000
30
0.0
11
480.0000
21
962.0000
31
0.0
0
TEXT
8
TABLE_TEXT
7
STANDARD
10
92.5000
20
974.0000
30
0.0
40
7.0
1
2
50
0.0
72
1
11
92.5000
21
974.0000
31
0.0
73
2
0
TEXT
8
TABLE_TEXT
7
STANDARD
10
137.5000
20
974.0000
30
0.0
40
7.0
1
1
50
0.0
72
1
11
137.5000
21
974.0000
31
0.0
73
2
0
TEXT
8
TABLE_TEXT
7
STANDARD
10
207.5000
20
974.0000
30
0.0
40
7.0
1
50.0' x 120.0'
50
0.0
72
1
11
207.5000
21
974.0000
31
0.0
73
2
0
TEXT
8
TABLE_TEXT
7
STANDARD
10
339.0000
20
974.0000
30
0.0
40
7.0
1
6,000.0
50
0.0
72
2
11
339.0000
21
974.0000
31
0.0
73
2
0
TEXT
8
TABLE_TEXT
7
STANDARD
10
399.0000
20
974.0000
30
0.0
40
7.0
1
0.1377
50
0.0
72
2
11
399.0000
21
974.0000
31
0.0
73
2
0
TEXT
8
TABLE_TEXT
7
STANDARD
10
474.0000
20
974.0000
30
0.0
40
7.0
1
340.0'
50
0.0
72
2
11
474.0000
21
974.0000
31
0.0
73
2
0
LINE
8
TABLE_BORDER
10
70.0000
20
938.0000
30
0.0
11
480.0000
21
938.0000
31
0.0
0
TEXT
8
TABLE_TEXT
7
STANDARD
10
92.5000
20
950.0000
30
0.0
40
7.0
1
3
50
0.0
72
1
11
92.5000
21
950.0000
31
0.0
73
2
0
TEXT
8
TABLE_TEXT
7
STANDARD
10
137.5000
20
950.0000
30
0.0
40
7.0
1
1
50
0.0
72
1
11
137.5000
21
950.0000
31
0.0
73
2
0
TEXT
8
TABLE_TEXT
7
STANDARD
10
207.5000
20
950.0000
30
0.0
40
7.0
1
50.0' x 120.0'
50
0.0
72
1
11
207.5000
21
950.0000
31
0.0
73
2
0
TEXT
8
TABLE_TEXT
7
STANDARD
10
339.0000
20
950.0000
30
0.0
40
7.0
1
6,000.0
50
0.0
72
2
11
339.0000
21
950.0000
31
0.0
73
2
0
TEXT
8
TABLE_TEXT
7
STANDARD
10
399.0000
20
950.0000
30
0.0
40
7.0
1
0.1377
50
0.0
72
2
11
399.0000
21
950.0000
31
0.0
73
2
0
TEXT
8
TABLE_TEXT
7
STANDARD
10
474.0000
20
950.0000
30
0.0
40
7.0
1
340.0'
50
0.0
72
2
11
474.0000
21
950.0000
31
0.0
73
2
0
LINE
8
TABLE_BORDER
10
70.0000
20
914.0000
30
0.0
11
480.0000
21
914.0000
31
0.0
0
TEXT
8
TABLE_TEXT
7
STANDARD
10
92.5000
20
926.0000
30
0.0
40
7.0
1
4
50
0.0
72
1
11
92.5000
21
926.0000
31
0.0
73
2
0
TEXT
8
TABLE_TEXT
7
STANDARD
10
137.5000
20
926.0000
30
0.0
40
7.0
1
1
50
0.0
72
1
11
137.5000
21
926.0000
31
0.0
73
2
0
TEXT
8
TABLE_TEXT
7
STANDARD
10
207.5000
20
926.0000
30
0.0
40
7.0
1
50.0' x 120.0'
50
0.0
72
1
11
207.5000
21
926.0000
31
0.0
73
2
0
TEXT
8
TABLE_TEXT
7
STANDARD
10
339.0000
20
926.0000
30
0.0
40
7.0
1
6,000.0
50
0.0
72
2
11
339.0000
21
926.0000
31
0.0
73
2
0
TEXT
8
TABLE_TEXT
7
STANDARD
10
399.0000
20
926.0000
30
0.0
40
7.0
1
0.1377
50
0.0
72
2
11
399.0000
21
926.0000
31
0.0
73
2
0
TEXT
8
TABLE_TEXT
7
STANDARD
10
474.0000
20
926.0000
30
0.0
40
7.0
1
340.0'
50
0.0
72
2
11
474.0000
21
926.0000
31
0.0
73
2
0
LINE
8
TABLE_BORDER
10
70.0000
20
890.0000
30
0.0
11
480.0000
21
890.0000
31
0.0
0
TEXT
8
TABLE_TEXT
7
STANDARD
10
92.5000
20
902.0000
30
0.0
40
7.0
1
5
50
0.0
72
1
11
92.5000
21
902.0000
31
0.0
73
2
0
TEXT
8
TABLE_TEXT
7
STANDARD
10
137.5000
20
902.0000
30
0.0
40
7.0
1
1
50
0.0
72
1
11
137.5000
21
902.0000
31
0.0
73
2
0
TEXT
8
TABLE_TEXT
7
STANDARD
10
207.5000
20
902.0000
30
0.0
40
7.0
1
50.0' x 120.0'
50
0.0
72
1
11
207.5000
21
902.0000
31
0.0
73
2
0
TEXT
8
TABLE_TEXT
7
STANDARD
10
339.0000
20
902.0000
30
0.0
40
7.0
1
6,000.0
50
0.0
72
2
11
339.0000
21
902.0000
31
0.0
73
2
0
TEXT
8
TABLE_TEXT
7
STANDARD
10
399.0000
20
902.0000
30
0.0
40
7.0
1
0.1377
50
0.0
72
2
11
399.0000
21
902.0000
31
0.0
73
2
0
TEXT
8
TABLE_TEXT
7
STANDARD
10
474.0000
20
902.0000
30
0.0
40
7.0
1
340.0'
50
0.0
72
2
11
474.0000
21
902.0000
31
0.0
73
2
0
LINE
8
TABLE_BORDER
10
70.0000
20
866.0000
30
0.0
11
480.0000
21
866.0000
31
0.0
0
TEXT
8
TABLE_TEXT
7
STANDARD
10
92.5000
20
878.0000
30
0.0
40
7.0
1
6
50
0.0
72
1
11
92.5000
21
878.0000
31
0.0
73
2
0
TEXT
8
TABLE_TEXT
7
STANDARD
10
137.5000
20
878.0000
30
0.0
40
7.0
1
1
50
0.0
72
1
11
137.5000
21
878.0000
31
0.0
73
2
0
TEXT
8
TABLE_TEXT
7
STANDARD
10
207.5000
20
878.0000
30
0.0
40
7.0
1
50.0' x 120.0'
50
0.0
72
1
11
207.5000
21
878.0000
31
0.0
73
2
0
TEXT
8
TABLE_TEXT
7
STANDARD
10
339.0000
20
878.0000
30
0.0
40
7.0
1
6,000.0
50
0.0
72
2
11
339.0000
21
878.0000
31
0.0
73
2
0
TEXT
8
TABLE_TEXT
7
STANDARD
10
399.0000
20
878.0000
30
0.0
40
7.0
1
0.1377
50
0.0
72
2
11
399.0000
21
878.0000
31
0.0
73
2
0
TEXT
8
TABLE_TEXT
7
STANDARD
10
474.0000
20
878.0000
30
0.0
40
7.0
1
340.0'
50
0.0
72
2
11
474.0000
21
878.0000
31
0.0
73
2
0
LINE
8
TABLE_BORDER
10
70.0000
20
842.0000
30
0.0
11
480.0000
21
842.0000
31
0.0
0
TEXT
8
TABLE_TEXT
7
STANDARD
10
92.5000
20
854.0000
30
0.0
40
7.0
1
7
50
0.0
72
1
11
92.5000
21
854.0000
31
0.0
73
2
0
TEXT
8
TABLE_TEXT
7
STANDARD
10
137.5000
20
854.0000
30
0.0
40
7.0
1
1
50
0.0
72
1
11
137.5000
21
854.0000
31
0.0
73
2
0
TEXT
8
TABLE_TEXT
7
STANDARD
10
207.5000
20
854.0000
30
0.0
40
7.0
1
50.0' x 120.0'
50
0.0
72
1
11
207.5000
21
854.0000
31
0.0
73
2
0
TEXT
8
TABLE_TEXT
7
STANDARD
10
339.0000
20
854.0000
30
0.0
40
7.0
1
6,000.0
50
0.0
72
2
11
339.0000
21
854.0000
31
0.0
73
2
0
TEXT
8
TABLE_TEXT
7
STANDARD
10
399.0000
20
854.0000
30
0.0
40
7.0
1
0.1377
50
0.0
72
2
11
399.0000
21
854.0000
31
0.0
73
2
0
TEXT
8
TABLE_TEXT
7
STANDARD
10
474.0000
20
854.0000
30
0.0
40
7.0
1
340.0'
50
0.0
72
2
11
474.0000
21
854.0000
31
0.0
73
2
0
LINE
8
TABLE_BORDER
10
70.0000
20
818.0000
30
0.0
11
480.0000
21
818.0000
31
0.0
0
TEXT
8
TABLE_TEXT
7
STANDARD
10
92.5000
20
830.0000
30
0.0
40
7.0
1
8
50
0.0
72
1
11
92.5000
21
830.0000
31
0.0
73
2
0
TEXT
8
TABLE_TEXT
7
STANDARD
10
137.5000
20
830.0000
30
0.0
40
7.0
1
1
50
0.0
72
1
11
137.5000
21
830.0000
31
0.0
73
2
0
TEXT
8
TABLE_TEXT
7
STANDARD
10
207.5000
20
830.0000
30
0.0
40
7.0
1
50.0' x 120.0'
50
0.0
72
1
11
207.5000
21
830.0000
31
0.0
73
2
0
TEXT
8
TABLE_TEXT
7
STANDARD
10
339.0000
20
830.0000
30
0.0
40
7.0
1
6,000.0
50
0.0
72
2
11
339.0000
21
830.0000
31
0.0
73
2
0
TEXT
8
TABLE_TEXT
7
STANDARD
10
399.0000
20
830.0000
30
0.0
40
7.0
1
0.1377
50
0.0
72
2
11
399.0000
21
830.0000
31
0.0
73
2
0
TEXT
8
TABLE_TEXT
7
STANDARD
10
474.0000
20
830.0000
30
0.0
40
7.0
1
340.0'
50
0.0
72
2
11
474.0000
21
830.0000
31
0.0
73
2
0
LINE
8
TABLE_BORDER
10
70.0000
20
794.0000
30
0.0
11
480.0000
21
794.0000
31
0.0
0
TEXT
8
TABLE_TEXT
7
STANDARD
10
92.5000
20
806.0000
30
0.0
40
7.0
1
9
50
0.0
72
1
11
92.5000
21
806.0000
31
0.0
73
2
0
TEXT
8
TABLE_TEXT
7
STANDARD
10
137.5000
20
806.0000
30
0.0
40
7.0
1
1
50
0.0
72
1
11
137.5000
21
806.0000
31
0.0
73
2
0
TEXT
8
TABLE_TEXT
7
STANDARD
10
207.5000
20
806.0000
30
0.0
40
7.0
1
50.0' x 120.0'
50
0.0
72
1
11
207.5000
21
806.0000
31
0.0
73
2
0
TEXT
8
TABLE_TEXT
7
STANDARD
10
339.0000
20
806.0000
30
0.0
40
7.0
1
6,000.0
50
0.0
72
2
11
339.0000
21
806.0000
31
0.0
73
2
0
TEXT
8
TABLE_TEXT
7
STANDARD
10
399.0000
20
806.0000
30
0.0
40
7.0
1
0.1377
50
0.0
72
2
11
399.0000
21
806.0000
31
0.0
73
2
0
TEXT
8
TABLE_TEXT
7
STANDARD
10
474.0000
20
806.0000
30
0.0
40
7.0
1
340.0'
50
0.0
72
2
11
474.0000
21
806.0000
31
0.0
73
2
0
LINE
8
TABLE_BORDER
10
70.0000
20
770.0000
30
0.0
11
480.0000
21
770.0000
31
0.0
0
TEXT
8
TABLE_TEXT
7
STANDARD
10
92.5000
20
782.0000
30
0.0
40
7.0
1
10
50
0.0
72
1
11
92.5000
21
782.0000
31
0.0
73
2
0
TEXT
8
TABLE_TEXT
7
STANDARD
10
137.5000
20
782.0000
30
0.0
40
7.0
1
1
50
0.0
72
1
11
137.5000
21
782.0000
31
0.0
73
2
0
TEXT
8
TABLE_TEXT
7
STANDARD
10
207.5000
20
782.0000
30
0.0
40
7.0
1
50.0' x 120.0'
50
0.0
72
1
11
207.5000
21
782.0000
31
0.0
73
2
0
TEXT
8
TABLE_TEXT
7
STANDARD
10
339.0000
20
782.0000
30
0.0
40
7.0
1
6,000.0
50
0.0
72
2
11
339.0000
21
782.0000
31
0.0
73
2
0
TEXT
8
TABLE_TEXT
7
STANDARD
10
399.0000
20
782.0000
30
0.0
40
7.0
1
0.1377
50
0.0
72
2
11
399.0000
21
782.0000
31
0.0
73
2
0
TEXT
8
TABLE_TEXT
7
STANDARD
10
474.0000
20
782.0000
30
0.0
40
7.0
1
340.0'
50
0.0
72
2
11
474.0000
21
782.0000
31
0.0
73
2
0
LINE
8
TABLE_BORDER
10
70.0000
20
746.0000
30
0.0
11
480.0000
21
746.0000
31
0.0
0
TEXT
8
TABLE_TEXT
7
STANDARD
10
92.5000
20
758.0000
30
0.0
40
7.0
1
1
50
0.0
72
1
11
92.5000
21
758.0000
31
0.0
73
2
0
TEXT
8
TABLE_TEXT
7
STANDARD
10
137.5000
20
758.0000
30
0.0
40
7.0
1
2
50
0.0
72
1
11
137.5000
21
758.0000
31
0.0
73
2
0
TEXT
8
TABLE_TEXT
7
STANDARD
10
207.5000
20
758.0000
30
0.0
40
7.0
1
50.0' x 120.0'
50
0.0
72
1
11
207.5000
21
758.0000
31
0.0
73
2
0
TEXT
8
TABLE_TEXT
7
STANDARD
10
339.0000
20
758.0000
30
0.0
40
7.0
1
6,000.0
50
0.0
72
2
11
339.0000
21
758.0000
31
0.0
73
2
0
TEXT
8
TABLE_TEXT
7
STANDARD
10
399.0000
20
758.0000
30
0.0
40
7.0
1
0.1377
50
0.0
72
2
11
399.0000
21
758.0000
31
0.0
73
2
0
TEXT
8
TABLE_TEXT
7
STANDARD
10
474.0000
20
758.0000
30
0.0
40
7.0
1
340.0'
50
0.0
72
2
11
474.0000
21
758.0000
31
0.0
73
2
0
LINE
8
TABLE_BORDER
10
70.0000
20
722.0000
30
0.0
11
480.0000
21
722.0000
31
0.0
0
TEXT
8
TABLE_TEXT
7
STANDARD
10
92.5000
20
734.0000
30
0.0
40
7.0
1
2
50
0.0
72
1
11
92.5000
21
734.0000
31
0.0
73
2
0
TEXT
8
TABLE_TEXT
7
STANDARD
10
137.5000
20
734.0000
30
0.0
40
7.0
1
2
50
0.0
72
1
11
137.5000
21
734.0000
31
0.0
73
2
0
TEXT
8
TABLE_TEXT
7
STANDARD
10
207.5000
20
734.0000
30
0.0
40
7.0
1
50.0' x 120.0'
50
0.0
72
1
11
207.5000
21
734.0000
31
0.0
73
2
0
TEXT
8
TABLE_TEXT
7
STANDARD
10
339.0000
20
734.0000
30
0.0
40
7.0
1
6,000.0
50
0.0
72
2
11
339.0000
21
734.0000
31
0.0
73
2
0
TEXT
8
TABLE_TEXT
7
STANDARD
10
399.0000
20
734.0000
30
0.0
40
7.0
1
0.1377
50
0.0
72
2
11
399.0000
21
734.0000
31
0.0
73
2
0
TEXT
8
TABLE_TEXT
7
STANDARD
10
474.0000
20
734.0000
30
0.0
40
7.0
1
340.0'
50
0.0
72
2
11
474.0000
21
734.0000
31
0.0
73
2
0
LINE
8
TABLE_BORDER
10
70.0000
20
698.0000
30
0.0
11
480.0000
21
698.0000
31
0.0
0
TEXT
8
TABLE_TEXT
7
STANDARD
10
92.5000
20
710.0000
30
0.0
40
7.0
1
3
50
0.0
72
1
11
92.5000
21
710.0000
31
0.0
73
2
0
TEXT
8
TABLE_TEXT
7
STANDARD
10
137.5000
20
710.0000
30
0.0
40
7.0
1
2
50
0.0
72
1
11
137.5000
21
710.0000
31
0.0
73
2
0
TEXT
8
TABLE_TEXT
7
STANDARD
10
207.5000
20
710.0000
30
0.0
40
7.0
1
50.0' x 120.0'
50
0.0
72
1
11
207.5000
21
710.0000
31
0.0
73
2
0
TEXT
8
TABLE_TEXT
7
STANDARD
10
339.0000
20
710.0000
30
0.0
40
7.0
1
6,000.0
50
0.0
72
2
11
339.0000
21
710.0000
31
0.0
73
2
0
TEXT
8
TABLE_TEXT
7
STANDARD
10
399.0000
20
710.0000
30
0.0
40
7.0
1
0.1377
50
0.0
72
2
11
399.0000
21
710.0000
31
0.0
73
2
0
TEXT
8
TABLE_TEXT
7
STANDARD
10
474.0000
20
710.0000
30
0.0
40
7.0
1
340.0'
50
0.0
72
2
11
474.0000
21
710.0000
31
0.0
73
2
0
LINE
8
TABLE_BORDER
10
70.0000
20
674.0000
30
0.0
11
480.0000
21
674.0000
31
0.0
0
TEXT
8
TABLE_TEXT
7
STANDARD
10
92.5000
20
686.0000
30
0.0
40
7.0
1
4
50
0.0
72
1
11
92.5000
21
686.0000
31
0.0
73
2
0
TEXT
8
TABLE_TEXT
7
STANDARD
10
137.5000
20
686.0000
30
0.0
40
7.0
1
2
50
0.0
72
1
11
137.5000
21
686.0000
31
0.0
73
2
0
TEXT
8
TABLE_TEXT
7
STANDARD
10
207.5000
20
686.0000
30
0.0
40
7.0
1
50.0' x 120.0'
50
0.0
72
1
11
207.5000
21
686.0000
31
0.0
73
2
0
TEXT
8
TABLE_TEXT
7
STANDARD
10
339.0000
20
686.0000
30
0.0
40
7.0
1
6,000.0
50
0.0
72
2
11
339.0000
21
686.0000
31
0.0
73
2
0
TEXT
8
TABLE_TEXT
7
STANDARD
10
399.0000
20
686.0000
30
0.0
40
7.0
1
0.1377
50
0.0
72
2
11
399.0000
21
686.0000
31
0.0
73
2
0
TEXT
8
TABLE_TEXT
7
STANDARD
10
474.0000
20
686.0000
30
0.0
40
7.0
1
340.0'
50
0.0
72
2
11
474.0000
21
686.0000
31
0.0
73
2
0
LINE
8
TABLE_BORDER
10
70.0000
20
650.0000
30
0.0
11
480.0000
21
650.0000
31
0.0
0
TEXT
8
TABLE_TEXT
7
STANDARD
10
92.5000
20
662.0000
30
0.0
40
7.0
1
5
50
0.0
72
1
11
92.5000
21
662.0000
31
0.0
73
2
0
TEXT
8
TABLE_TEXT
7
STANDARD
10
137.5000
20
662.0000
30
0.0
40
7.0
1
2
50
0.0
72
1
11
137.5000
21
662.0000
31
0.0
73
2
0
TEXT
8
TABLE_TEXT
7
STANDARD
10
207.5000
20
662.0000
30
0.0
40
7.0
1
50.0' x 120.0'
50
0.0
72
1
11
207.5000
21
662.0000
31
0.0
73
2
0
TEXT
8
TABLE_TEXT
7
STANDARD
10
339.0000
20
662.0000
30
0.0
40
7.0
1
6,000.0
50
0.0
72
2
11
339.0000
21
662.0000
31
0.0
73
2
0
TEXT
8
TABLE_TEXT
7
STANDARD
10
399.0000
20
662.0000
30
0.0
40
7.0
1
0.1377
50
0.0
72
2
11
399.0000
21
662.0000
31
0.0
73
2
0
TEXT
8
TABLE_TEXT
7
STANDARD
10
474.0000
20
662.0000
30
0.0
40
7.0
1
340.0'
50
0.0
72
2
11
474.0000
21
662.0000
31
0.0
73
2
0
LINE
8
TABLE_BORDER
10
70.0000
20
626.0000
30
0.0
11
480.0000
21
626.0000
31
0.0
0
TEXT
8
TABLE_TEXT
7
STANDARD
10
92.5000
20
638.0000
30
0.0
40
7.0
1
6
50
0.0
72
1
11
92.5000
21
638.0000
31
0.0
73
2
0
TEXT
8
TABLE_TEXT
7
STANDARD
10
137.5000
20
638.0000
30
0.0
40
7.0
1
2
50
0.0
72
1
11
137.5000
21
638.0000
31
0.0
73
2
0
TEXT
8
TABLE_TEXT
7
STANDARD
10
207.5000
20
638.0000
30
0.0
40
7.0
1
50.0' x 120.0'
50
0.0
72
1
11
207.5000
21
638.0000
31
0.0
73
2
0
TEXT
8
TABLE_TEXT
7
STANDARD
10
339.0000
20
638.0000
30
0.0
40
7.0
1
6,000.0
50
0.0
72
2
11
339.0000
21
638.0000
31
0.0
73
2
0
TEXT
8
TABLE_TEXT
7
STANDARD
10
399.0000
20
638.0000
30
0.0
40
7.0
1
0.1377
50
0.0
72
2
11
399.0000
21
638.0000
31
0.0
73
2
0
TEXT
8
TABLE_TEXT
7
STANDARD
10
474.0000
20
638.0000
30
0.0
40
7.0
1
340.0'
50
0.0
72
2
11
474.0000
21
638.0000
31
0.0
73
2
0
LINE
8
TABLE_BORDER
10
70.0000
20
602.0000
30
0.0
11
480.0000
21
602.0000
31
0.0
0
TEXT
8
TABLE_TEXT
7
STANDARD
10
92.5000
20
614.0000
30
0.0
40
7.0
1
7
50
0.0
72
1
11
92.5000
21
614.0000
31
0.0
73
2
0
TEXT
8
TABLE_TEXT
7
STANDARD
10
137.5000
20
614.0000
30
0.0
40
7.0
1
2
50
0.0
72
1
11
137.5000
21
614.0000
31
0.0
73
2
0
TEXT
8
TABLE_TEXT
7
STANDARD
10
207.5000
20
614.0000
30
0.0
40
7.0
1
50.0' x 120.0'
50
0.0
72
1
11
207.5000
21
614.0000
31
0.0
73
2
0
TEXT
8
TABLE_TEXT
7
STANDARD
10
339.0000
20
614.0000
30
0.0
40
7.0
1
6,000.0
50
0.0
72
2
11
339.0000
21
614.0000
31
0.0
73
2
0
TEXT
8
TABLE_TEXT
7
STANDARD
10
399.0000
20
614.0000
30
0.0
40
7.0
1
0.1377
50
0.0
72
2
11
399.0000
21
614.0000
31
0.0
73
2
0
TEXT
8
TABLE_TEXT
7
STANDARD
10
474.0000
20
614.0000
30
0.0
40
7.0
1
340.0'
50
0.0
72
2
11
474.0000
21
614.0000
31
0.0
73
2
0
LINE
8
TABLE_BORDER
10
70.0000
20
578.0000
30
0.0
11
480.0000
21
578.0000
31
0.0
0
TEXT
8
TABLE_TEXT
7
STANDARD
10
92.5000
20
590.0000
30
0.0
40
7.0
1
8
50
0.0
72
1
11
92.5000
21
590.0000
31
0.0
73
2
0
TEXT
8
TABLE_TEXT
7
STANDARD
10
137.5000
20
590.0000
30
0.0
40
7.0
1
2
50
0.0
72
1
11
137.5000
21
590.0000
31
0.0
73
2
0
TEXT
8
TABLE_TEXT
7
STANDARD
10
207.5000
20
590.0000
30
0.0
40
7.0
1
50.0' x 120.0'
50
0.0
72
1
11
207.5000
21
590.0000
31
0.0
73
2
0
TEXT
8
TABLE_TEXT
7
STANDARD
10
339.0000
20
590.0000
30
0.0
40
7.0
1
6,000.0
50
0.0
72
2
11
339.0000
21
590.0000
31
0.0
73
2
0
TEXT
8
TABLE_TEXT
7
STANDARD
10
399.0000
20
590.0000
30
0.0
40
7.0
1
0.1377
50
0.0
72
2
11
399.0000
21
590.0000
31
0.0
73
2
0
TEXT
8
TABLE_TEXT
7
STANDARD
10
474.0000
20
590.0000
30
0.0
40
7.0
1
340.0'
50
0.0
72
2
11
474.0000
21
590.0000
31
0.0
73
2
0
LINE
8
TABLE_BORDER
10
70.0000
20
554.0000
30
0.0
11
480.0000
21
554.0000
31
0.0
0
TEXT
8
TABLE_TEXT
7
STANDARD
10
92.5000
20
566.0000
30
0.0
40
7.0
1
9
50
0.0
72
1
11
92.5000
21
566.0000
31
0.0
73
2
0
TEXT
8
TABLE_TEXT
7
STANDARD
10
137.5000
20
566.0000
30
0.0
40
7.0
1
2
50
0.0
72
1
11
137.5000
21
566.0000
31
0.0
73
2
0
TEXT
8
TABLE_TEXT
7
STANDARD
10
207.5000
20
566.0000
30
0.0
40
7.0
1
50.0' x 120.0'
50
0.0
72
1
11
207.5000
21
566.0000
31
0.0
73
2
0
TEXT
8
TABLE_TEXT
7
STANDARD
10
339.0000
20
566.0000
30
0.0
40
7.0
1
6,000.0
50
0.0
72
2
11
339.0000
21
566.0000
31
0.0
73
2
0
TEXT
8
TABLE_TEXT
7
STANDARD
10
399.0000
20
566.0000
30
0.0
40
7.0
1
0.1377
50
0.0
72
2
11
399.0000
21
566.0000
31
0.0
73
2
0
TEXT
8
TABLE_TEXT
7
STANDARD
10
474.0000
20
566.0000
30
0.0
40
7.0
1
340.0'
50
0.0
72
2
11
474.0000
21
566.0000
31
0.0
73
2
0
LINE
8
TABLE_BORDER
10
70.0000
20
530.0000
30
0.0
11
480.0000
21
530.0000
31
0.0
0
TEXT
8
TABLE_TEXT
7
STANDARD
10
92.5000
20
542.0000
30
0.0
40
7.0
1
10
50
0.0
72
1
11
92.5000
21
542.0000
31
0.0
73
2
0
TEXT
8
TABLE_TEXT
7
STANDARD
10
137.5000
20
542.0000
30
0.0
40
7.0
1
2
50
0.0
72
1
11
137.5000
21
542.0000
31
0.0
73
2
0
TEXT
8
TABLE_TEXT
7
STANDARD
10
207.5000
20
542.0000
30
0.0
40
7.0
1
50.0' x 120.0'
50
0.0
72
1
11
207.5000
21
542.0000
31
0.0
73
2
0
TEXT
8
TABLE_TEXT
7
STANDARD
10
339.0000
20
542.0000
30
0.0
40
7.0
1
6,000.0
50
0.0
72
2
11
339.0000
21
542.0000
31
0.0
73
2
0
TEXT
8
TABLE_TEXT
7
STANDARD
10
399.0000
20
542.0000
30
0.0
40
7.0
1
0.1377
50
0.0
72
2
11
399.0000
21
542.0000
31
0.0
73
2
0
TEXT
8
TABLE_TEXT
7
STANDARD
10
474.0000
20
542.0000
30
0.0
40
7.0
1
340.0'
50
0.0
72
2
11
474.0000
21
542.0000
31
0.0
73
2
0
LINE
8
TABLE_BORDER
10
115.0000
20
1010.0000
30
0.0
11
115.0000
21
530.0000
31
0.0
0
LINE
8
TABLE_BORDER
10
160.0000
20
1010.0000
30
0.0
11
160.0000
21
530.0000
31
0.0
0
LINE
8
TABLE_BORDER
10
255.0000
20
1010.0000
30
0.0
11
255.0000
21
530.0000
31
0.0
0
LINE
8
TABLE_BORDER
10
345.0000
20
1010.0000
30
0.0
11
345.0000
21
530.0000
31
0.0
0
LINE
8
TABLE_BORDER
10
405.0000
20
1010.0000
30
0.0
11
405.0000
21
530.0000
31
0.0
0
LINE
8
TABLE_BORDER
10
70.0000
20
480.0000
30
0.0
11
480.0000
21
480.0000
31
0.0
0
LINE
8
TABLE_BORDER
10
70.0000
20
218.0000
30
0.0
11
480.0000
21
218.0000
31
0.0
0
LINE
8
TABLE_BORDER
10
70.0000
20
480.0000
30
0.0
11
70.0000
21
218.0000
31
0.0
0
LINE
8
TABLE_BORDER
10
480.0000
20
480.0000
30
0.0
11
480.0000
21
218.0000
31
0.0
0
LINE
8
TABLE_BORDER
10
70.0000
20
442.0000
30
0.0
11
480.0000
21
442.0000
31
0.0
0
TEXT
8
TABLE_HEADER
7
STANDARD
10
275.0000
20
461.0000
30
0.0
40
9.5
1
LINE TABLE
50
0.0
72
1
11
275.0000
21
461.0000
31
0.0
73
2
0
LINE
8
TABLE_BORDER
10
70.0000
20
410.0000
30
0.0
11
480.0000
21
410.0000
31
0.0
0
TEXT
8
TABLE_HEADER
7
STANDARD
10
92.5000
20
426.0000
30
0.0
40
8.049999999999999
1
LINE
50
0.0
72
1
11
92.5000
21
426.0000
31
0.0
73
2
0
TEXT
8
TABLE_HEADER
7
STANDARD
10
167.5000
20
426.0000
30
0.0
40
8.049999999999999
1
BEARING
50
0.0
72
1
11
167.5000
21
426.0000
31
0.0
73
2
0
LINE
8
TABLE_BORDER
10
115.0000
20
442.0000
30
0.0
11
115.0000
21
410.0000
31
0.0
0
TEXT
8
TABLE_HEADER
7
STANDARD
10
255.0000
20
426.0000
30
0.0
40
8.049999999999999
1
DISTANCE
50
0.0
72
1
11
255.0000
21
426.0000
31
0.0
73
2
0
LINE
8
TABLE_BORDER
10
220.0000
20
442.0000
30
0.0
11
220.0000
21
410.0000
31
0.0
0
TEXT
8
TABLE_HEADER
7
STANDARD
10
385.0000
20
426.0000
30
0.0
40
8.049999999999999
1
DESCRIPTION
50
0.0
72
1
11
385.0000
21
426.0000
31
0.0
73
2
0
LINE
8
TABLE_BORDER
10
290.0000
20
442.0000
30
0.0
11
290.0000
21
410.0000
31
0.0
0
LINE
8
TABLE_BORDER
10
70.0000
20
386.0000
30
0.0
11
480.0000
21
386.0000
31
0.0
0
TEXT
8
TABLE_TEXT
7
STANDARD
10
92.5000
20
398.0000
30
0.0
40
7.0
1
L1
50
0.0
72
1
11
92.5000
21
398.0000
31
0.0
73
2
0
TEXT
8
TABLE_TEXT
7
STANDARD
10
167.5000
20
398.0000
30
0.0
40
7.0
1
N89%%d35'00"E
50
0.0
72
1
11
167.5000
21
398.0000
31
0.0
73
2
0
TEXT
8
TABLE_TEXT
7
STANDARD
10
284.0000
20
398.0000
30
0.0
40
7.0
1
50.00'
50
0.0
72
2
11
284.0000
21
398.0000
31
0.0
73
2
0
TEXT
8
TABLE_TEXT
7
STANDARD
10
296.0000
20
398.0000
30
0.0
40
7.0
1
Lot Frontage / 17th St R/W
50
0.0
72
0
11
296.0000
21
398.0000
31
0.0
73
2
0
LINE
8
TABLE_BORDER
10
70.0000
20
362.0000
30
0.0
11
480.0000
21
362.0000
31
0.0
0
TEXT
8
TABLE_TEXT
7
STANDARD
10
92.5000
20
374.0000
30
0.0
40
7.0
1
L2
50
0.0
72
1
11
92.5000
21
374.0000
31
0.0
73
2
0
TEXT
8
TABLE_TEXT
7
STANDARD
10
167.5000
20
374.0000
30
0.0
40
7.0
1
S00%%d25'00"E
50
0.0
72
1
11
167.5000
21
374.0000
31
0.0
73
2
0
TEXT
8
TABLE_TEXT
7
STANDARD
10
284.0000
20
374.0000
30
0.0
40
7.0
1
120.00'
50
0.0
72
2
11
284.0000
21
374.0000
31
0.0
73
2
0
TEXT
8
TABLE_TEXT
7
STANDARD
10
296.0000
20
374.0000
30
0.0
40
7.0
1
Lot Interior Side Line
50
0.0
72
0
11
296.0000
21
374.0000
31
0.0
73
2
0
LINE
8
TABLE_BORDER
10
70.0000
20
338.0000
30
0.0
11
480.0000
21
338.0000
31
0.0
0
TEXT
8
TABLE_TEXT
7
STANDARD
10
92.5000
20
350.0000
30
0.0
40
7.0
1
L3
50
0.0
72
1
11
92.5000
21
350.0000
31
0.0
73
2
0
TEXT
8
TABLE_TEXT
7
STANDARD
10
167.5000
20
350.0000
30
0.0
40
7.0
1
S89%%d35'00"W
50
0.0
72
1
11
167.5000
21
350.0000
31
0.0
73
2
0
TEXT
8
TABLE_TEXT
7
STANDARD
10
284.0000
20
350.0000
30
0.0
40
7.0
1
50.00'
50
0.0
72
2
11
284.0000
21
350.0000
31
0.0
73
2
0
TEXT
8
TABLE_TEXT
7
STANDARD
10
296.0000
20
350.0000
30
0.0
40
7.0
1
Lot Rear Boundary Line
50
0.0
72
0
11
296.0000
21
350.0000
31
0.0
73
2
0
LINE
8
TABLE_BORDER
10
70.0000
20
314.0000
30
0.0
11
480.0000
21
314.0000
31
0.0
0
TEXT
8
TABLE_TEXT
7
STANDARD
10
92.5000
20
326.0000
30
0.0
40
7.0
1
L4
50
0.0
72
1
11
92.5000
21
326.0000
31
0.0
73
2
0
TEXT
8
TABLE_TEXT
7
STANDARD
10
167.5000
20
326.0000
30
0.0
40
7.0
1
N00%%d25'00"W
50
0.0
72
1
11
167.5000
21
326.0000
31
0.0
73
2
0
TEXT
8
TABLE_TEXT
7
STANDARD
10
284.0000
20
326.0000
30
0.0
40
7.0
1
120.00'
50
0.0
72
2
11
284.0000
21
326.0000
31
0.0
73
2
0
TEXT
8
TABLE_TEXT
7
STANDARD
10
296.0000
20
326.0000
30
0.0
40
7.0
1
Lot Interior Side Line
50
0.0
72
0
11
296.0000
21
326.0000
31
0.0
73
2
0
LINE
8
TABLE_BORDER
10
70.0000
20
290.0000
30
0.0
11
480.0000
21
290.0000
31
0.0
0
TEXT
8
TABLE_TEXT
7
STANDARD
10
92.5000
20
302.0000
30
0.0
40
7.0
1
L5
50
0.0
72
1
11
92.5000
21
302.0000
31
0.0
73
2
0
TEXT
8
TABLE_TEXT
7
STANDARD
10
167.5000
20
302.0000
30
0.0
40
7.0
1
S89%%d35'00"W
50
0.0
72
1
11
167.5000
21
302.0000
31
0.0
73
2
0
TEXT
8
TABLE_TEXT
7
STANDARD
10
284.0000
20
302.0000
30
0.0
40
7.0
1
280.00'
50
0.0
72
2
11
284.0000
21
302.0000
31
0.0
73
2
0
TEXT
8
TABLE_TEXT
7
STANDARD
10
296.0000
20
302.0000
30
0.0
40
7.0
1
16th Street North R/W
50
0.0
72
0
11
296.0000
21
302.0000
31
0.0
73
2
0
LINE
8
TABLE_BORDER
10
70.0000
20
266.0000
30
0.0
11
480.0000
21
266.0000
31
0.0
0
TEXT
8
TABLE_TEXT
7
STANDARD
10
92.5000
20
278.0000
30
0.0
40
7.0
1
L6
50
0.0
72
1
11
92.5000
21
278.0000
31
0.0
73
2
0
TEXT
8
TABLE_TEXT
7
STANDARD
10
167.5000
20
278.0000
30
0.0
40
7.0
1
N11%%d27'42.98"W
50
0.0
72
1
11
167.5000
21
278.0000
31
0.0
73
2
0
TEXT
8
TABLE_TEXT
7
STANDARD
10
284.0000
20
278.0000
30
0.0
40
7.0
1
1108.13'
50
0.0
72
2
11
284.0000
21
278.0000
31
0.0
73
2
0
TEXT
8
TABLE_TEXT
7
STANDARD
10
296.0000
20
278.0000
30
0.0
40
7.0
1
Old F.E.C. Railway R/W
50
0.0
72
0
11
296.0000
21
278.0000
31
0.0
73
2
0
LINE
8
TABLE_BORDER
10
70.0000
20
242.0000
30
0.0
11
480.0000
21
242.0000
31
0.0
0
TEXT
8
TABLE_TEXT
7
STANDARD
10
92.5000
20
254.0000
30
0.0
40
7.0
1
L7
50
0.0
72
1
11
92.5000
21
254.0000
31
0.0
73
2
0
TEXT
8
TABLE_TEXT
7
STANDARD
10
167.5000
20
254.0000
30
0.0
40
7.0
1
N89%%d35'00"E
50
0.0
72
1
11
167.5000
21
254.0000
31
0.0
73
2
0
TEXT
8
TABLE_TEXT
7
STANDARD
10
284.0000
20
254.0000
30
0.0
40
7.0
1
492.30'
50
0.0
72
2
11
284.0000
21
254.0000
31
0.0
73
2
0
TEXT
8
TABLE_TEXT
7
STANDARD
10
296.0000
20
254.0000
30
0.0
40
7.0
1
17th Street South R/W
50
0.0
72
0
11
296.0000
21
254.0000
31
0.0
73
2
0
LINE
8
TABLE_BORDER
10
70.0000
20
218.0000
30
0.0
11
480.0000
21
218.0000
31
0.0
0
TEXT
8
TABLE_TEXT
7
STANDARD
10
92.5000
20
230.0000
30
0.0
40
7.0
1
L8
50
0.0
72
1
11
92.5000
21
230.0000
31
0.0
73
2
0
TEXT
8
TABLE_TEXT
7
STANDARD
10
167.5000
20
230.0000
30
0.0
40
7.0
1
S00%%d25'00"E
50
0.0
72
1
11
167.5000
21
230.0000
31
0.0
73
2
0
TEXT
8
TABLE_TEXT
7
STANDARD
10
284.0000
20
230.0000
30
0.0
40
7.0
1
1087.60'
50
0.0
72
2
11
284.0000
21
230.0000
31
0.0
73
2
0
TEXT
8
TABLE_TEXT
7
STANDARD
10
296.0000
20
230.0000
30
0.0
40
7.0
1
Ocean Boulevard West R/W
50
0.0
72
0
11
296.0000
21
230.0000
31
0.0
73
2
0
LINE
8
TABLE_BORDER
10
115.0000
20
410.0000
30
0.0
11
115.0000
21
218.0000
31
0.0
0
LINE
8
TABLE_BORDER
10
220.0000
20
410.0000
30
0.0
11
220.0000
21
218.0000
31
0.0
0
LINE
8
TABLE_BORDER
10
290.0000
20
410.0000
30
0.0
11
290.0000
21
218.0000
31
0.0
0
LINE
8
TABLE_BORDER
10
70.0000
20
200.0000
30
0.0
11
480.0000
21
200.0000
31
0.0
0
LINE
8
TABLE_BORDER
10
70.0000
20
106.0000
30
0.0
11
480.0000
21
106.0000
31
0.0
0
LINE
8
TABLE_BORDER
10
70.0000
20
200.0000
30
0.0
11
70.0000
21
106.0000
31
0.0
0
LINE
8
TABLE_BORDER
10
480.0000
20
200.0000
30
0.0
11
480.0000
21
106.0000
31
0.0
0
LINE
8
TABLE_BORDER
10
70.0000
20
162.0000
30
0.0
11
480.0000
21
162.0000
31
0.0
0
TEXT
8
TABLE_HEADER
7
STANDARD
10
275.0000
20
181.0000
30
0.0
40
9.5
1
CURVE TABLE
50
0.0
72
1
11
275.0000
21
181.0000
31
0.0
73
2
0
LINE
8
TABLE_BORDER
10
70.0000
20
130.0000
30
0.0
11
480.0000
21
130.0000
31
0.0
0
TEXT
8
TABLE_HEADER
7
STANDARD
10
92.5000
20
146.0000
30
0.0
40
8.049999999999999
1
CURVE
50
0.0
72
1
11
92.5000
21
146.0000
31
0.0
73
2
0
TEXT
8
TABLE_HEADER
7
STANDARD
10
147.5000
20
146.0000
30
0.0
40
8.049999999999999
1
RADIUS
50
0.0
72
1
11
147.5000
21
146.0000
31
0.0
73
2
0
LINE
8
TABLE_BORDER
10
115.0000
20
162.0000
30
0.0
11
115.0000
21
130.0000
31
0.0
0
TEXT
8
TABLE_HEADER
7
STANDARD
10
212.5000
20
146.0000
30
0.0
40
8.049999999999999
1
ARC
50
0.0
72
1
11
212.5000
21
146.0000
31
0.0
73
2
0
LINE
8
TABLE_BORDER
10
180.0000
20
162.0000
30
0.0
11
180.0000
21
130.0000
31
0.0
0
TEXT
8
TABLE_HEADER
7
STANDARD
10
307.5000
20
146.0000
30
0.0
40
8.049999999999999
1
CHORD BEARING
50
0.0
72
1
11
307.5000
21
146.0000
31
0.0
73
2
0
LINE
8
TABLE_BORDER
10
245.0000
20
162.0000
30
0.0
11
245.0000
21
130.0000
31
0.0
0
TEXT
8
TABLE_HEADER
7
STANDARD
10
397.5000
20
146.0000
30
0.0
40
8.049999999999999
1
CHORD
50
0.0
72
1
11
397.5000
21
146.0000
31
0.0
73
2
0
LINE
8
TABLE_BORDER
10
370.0000
20
162.0000
30
0.0
11
370.0000
21
130.0000
31
0.0
0
TEXT
8
TABLE_HEADER
7
STANDARD
10
452.5000
20
146.0000
30
0.0
40
8.049999999999999
1
DELTA
50
0.0
72
1
11
452.5000
21
146.0000
31
0.0
73
2
0
LINE
8
TABLE_BORDER
10
425.0000
20
162.0000
30
0.0
11
425.0000
21
130.0000
31
0.0
0
LINE
8
TABLE_BORDER
10
70.0000
20
106.0000
30
0.0
11
480.0000
21
106.0000
31
0.0
0
TEXT
8
TABLE_TEXT
7
STANDARD
10
92.5000
20
118.0000
30
0.0
40
7.0
1
-
50
0.0
72
1
11
92.5000
21
118.0000
31
0.0
73
2
0
TEXT
8
TABLE_TEXT
7
STANDARD
10
147.5000
20
118.0000
30
0.0
40
7.0
1
NONE
50
0.0
72
1
11
147.5000
21
118.0000
31
0.0
73
2
0
TEXT
8
TABLE_TEXT
7
STANDARD
10
212.5000
20
118.0000
30
0.0
40
7.0
1
NONE
50
0.0
72
1
11
212.5000
21
118.0000
31
0.0
73
2
0
TEXT
8
TABLE_TEXT
7
STANDARD
10
307.5000
20
118.0000
30
0.0
40
7.0
1
RECTILINEAR 90%%d00'00"
50
0.0
72
1
11
307.5000
21
118.0000
31
0.0
73
2
0
TEXT
8
TABLE_TEXT
7
STANDARD
10
397.5000
20
118.0000
30
0.0
40
7.0
1
NONE
50
0.0
72
1
11
397.5000
21
118.0000
31
0.0
73
2
0
TEXT
8
TABLE_TEXT
7
STANDARD
10
452.5000
20
118.0000
30
0.0
40
7.0
1
0%%d00'00"
50
0.0
72
1
11
452.5000
21
118.0000
31
0.0
73
2
0
LINE
8
TABLE_BORDER
10
115.0000
20
130.0000
30
0.0
11
115.0000
21
106.0000
31
0.0
0
LINE
8
TABLE_BORDER
10
180.0000
20
130.0000
30
0.0
11
180.0000
21
106.0000
31
0.0
0
LINE
8
TABLE_BORDER
10
245.0000
20
130.0000
30
0.0
11
245.0000
21
106.0000
31
0.0
0
LINE
8
TABLE_BORDER
10
370.0000
20
130.0000
30
0.0
11
370.0000
21
106.0000
31
0.0
0
LINE
8
TABLE_BORDER
10
425.0000
20
130.0000
30
0.0
11
425.0000
21
106.0000
31
0.0
0
ENDSEC
0
EOF
