0
SECTION
2
HEADER
9
$ACADVER
1
AC1009
9
$DWGCODEPAGE
3
ANSI_1252
0
ENDSEC
0
SECTION
2
TABLES
0
TABLE
2
LTYPE
70
17
0
LTYPE
2
CONTINUOUS
70
0
3
Solid
72
65
73
0
40
0.0
0
LTYPE
2
DASHED
70
0
3
Dashed
72
65
73
2
40
0.75
49
0.5
74
0
49
-0.25
74
0
0
LTYPE
2
DASHED2
70
0
3
Dashed (.5x)
72
65
73
2
40
0.375
49
0.25
74
0
49
-0.125
74
0
0
LTYPE
2
HIDDEN
70
0
3
Hidden
72
65
73
2
40
0.375
49
0.25
74
0
49
-0.125
74
0
0
LTYPE
2
CENTER
70
0
3
Center
72
65
73
4
40
2.0
49
1.25
74
0
49
-0.25
74
0
49
0.25
74
0
49
-0.25
74
0
0
LTYPE
2
PHANTOM
70
0
3
Phantom
72
65
73
6
40
2.5
49
1.25
74
0
49
-0.25
74
0
49
0.25
74
0
49
-0.25
74
0
49
0.25
74
0
49
-0.25
74
0
0
LTYPE
2
ROT_10.26
70
0
3
Solid
72
65
73
0
40
0.0
0
LTYPE
2
ROT_2.22
70
0
3
Solid
72
65
73
0
40
0.0
0
LTYPE
2
ROT_2.36
70
0
3
Solid
72
65
73
0
40
0.0
0
LTYPE
2
ROT_270.96
70
0
3
Solid
72
65
73
0
40
0.0
0
LTYPE
2
ROT_355.79
70
0
3
Solid
72
65
73
0
40
0.0
0
LTYPE
2
ROT_356.12
70
0
3
Solid
72
65
73
0
40
0.0
0
LTYPE
2
ROT_356.44
70
0
3
Solid
72
65
73
0
40
0.0
0
LTYPE
2
ROT_357.73
70
0
3
Solid
72
65
73
0
40
0.0
0
LTYPE
2
ROT_359.76
70
0
3
Solid
72
65
73
0
40
0.0
0
LTYPE
2
ROT_359.88
70
0
3
Solid
72
65
73
0
40
0.0
0
LTYPE
2
ROT_6.89
70
0
3
Solid
72
65
73
0
40
0.0
0
ENDTAB
0
TABLE
2
LAYER
70
9
0
LAYER
2
0
70
0
62
7
6
CONTINUOUS
0
LAYER
2
LOT_LINE
70
0
62
4
6
CONTINUOUS
0
LAYER
2
ERROR
70
0
62
1
6
DASHED
0
LAYER
2
LABELS
70
0
62
7
6
CONTINUOUS
0
LAYER
2
AREA_PROV
70
0
62
1
6
CONTINUOUS
0
LAYER
2
AREA_OK
70
0
62
3
6
CONTINUOUS
0
LAYER
2
VERTEX
70
0
62
2
6
CONTINUOUS
0
LAYER
2
ROAD_NAME
70
0
62
3
6
CONTINUOUS
0
LAYER
2
TITLEBLOCK
70
0
62
2
6
CONTINUOUS
0
ENDTAB
0
TABLE
2
STYLE
70
4
0
STYLE
2
STANDARD
70
0
40
0.0
41
1.0
50
0.0
71
0
42
0.2
3
Arial
4

0
STYLE
2
ARIAL
70
0
40
0.0
41
1.0
50
0.0
71
0
42
0.2
3
Arial
4

0
STYLE
2
ARIAL_TTF
70
0
40
0.0
41
1.0
50
0.0
71
0
42
0.2
3
arial.ttf
4

0
STYLE
2
SIMPLEX
70
0
40
0.0
41
1.0
50
0.0
71
0
42
0.2
3
simplex.shx
4

0
ENDTAB
0
ENDSEC
0
SECTION
2
ENTITIES
0
LINE
8
LOT_LINE
10
245.0000
20
1009.1667
30
0.0
11
1007.8482
21
1007.5208
31
0.0
0
TEXT
8
LABELS
6
ROT_359.88
7
STANDARD
10
626.4293
20
1010.7437
30
0.0
40
4.5
1
N00%%d32'22"E
50
359.88
0
TEXT
8
LABELS
6
ROT_359.88
7
STANDARD
10
626.4189
20
1005.9438
30
0.0
40
4.140000000000001
1
762.85'
50
359.88
0
TEXT
8
LABELS
6
ROT_359.88
7
STANDARD
10
313.9227
20
1008.0180
30
0.0
40
2.6
1
137.85'
50
359.88
0
LINE
8
LOT_LINE
10
245.0022
20
1010.1667
30
0.0
11
244.9978
21
1008.1667
31
0.0
0
TEXT
8
LABELS
6
ROT_359.88
7
STANDARD
10
410.3475
20
1007.8099
30
0.0
40
2.6
1
55.00'
50
359.88
0
LINE
8
LOT_LINE
10
382.8518
20
1009.8693
30
0.0
11
382.8475
21
1007.8693
31
0.0
0
TEXT
8
LABELS
6
ROT_359.88
7
STANDARD
10
467.8473
20
1007.6859
30
0.0
40
2.6
1
60.00'
50
359.88
0
LINE
8
LOT_LINE
10
437.8517
20
1009.7506
30
0.0
11
437.8474
21
1007.7506
31
0.0
0
TEXT
8
LABELS
6
ROT_359.88
7
STANDARD
10
525.3472
20
1007.5618
30
0.0
40
2.6
1
55.00'
50
359.88
0
LINE
8
LOT_LINE
10
497.8516
20
1009.6211
30
0.0
11
497.8473
21
1007.6211
31
0.0
0
TEXT
8
LABELS
6
ROT_359.88
7
STANDARD
10
580.3471
20
1007.4432
30
0.0
40
2.6
1
55.00'
50
359.88
0
LINE
8
LOT_LINE
10
552.8514
20
1009.5025
30
0.0
11
552.8471
21
1007.5025
31
0.0
0
TEXT
8
LABELS
6
ROT_359.88
7
STANDARD
10
637.8469
20
1007.3191
30
0.0
40
2.6
1
60.00'
50
359.88
0
LINE
8
LOT_LINE
10
607.8513
20
1009.3838
30
0.0
11
607.8470
21
1007.3838
31
0.0
0
TEXT
8
LABELS
6
ROT_359.88
7
STANDARD
10
695.3468
20
1007.1950
30
0.0
40
2.6
1
55.00'
50
359.88
0
LINE
8
LOT_LINE
10
667.8512
20
1009.2544
30
0.0
11
667.8469
21
1007.2544
31
0.0
0
TEXT
8
LABELS
6
ROT_359.88
7
STANDARD
10
750.3467
20
1007.0764
30
0.0
40
2.6
1
55.00'
50
359.88
0
LINE
8
LOT_LINE
10
722.8510
20
1009.1357
30
0.0
11
722.8467
21
1007.1357
31
0.0
0
TEXT
8
LABELS
6
ROT_359.88
7
STANDARD
10
807.8465
20
1006.9523
30
0.0
40
2.6
1
60.00'
50
359.88
0
LINE
8
LOT_LINE
10
777.8509
20
1009.0170
30
0.0
11
777.8466
21
1007.0170
31
0.0
0
TEXT
8
LABELS
6
ROT_359.88
7
STANDARD
10
865.3464
20
1006.8283
30
0.0
40
2.6
1
55.00'
50
359.88
0
LINE
8
LOT_LINE
10
837.8508
20
1008.8876
30
0.0
11
837.8465
21
1006.8876
31
0.0
0
TEXT
8
LABELS
6
ROT_359.88
7
STANDARD
10
920.3463
20
1006.7096
30
0.0
40
2.6
1
55.00'
50
359.88
0
LINE
8
LOT_LINE
10
892.8506
20
1008.7689
30
0.0
11
892.8463
21
1006.7689
31
0.0
0
TEXT
8
LABELS
6
ROT_359.88
7
STANDARD
10
977.8461
20
1006.5856
30
0.0
40
2.6
1
60.00'
50
359.88
0
LINE
8
LOT_LINE
10
947.8505
20
1008.6503
30
0.0
11
947.8462
21
1006.6503
31
0.0
0
LINE
8
LOT_LINE
10
245.0000
20
1009.1667
30
0.0
11
246.9960
21
889.4633
31
0.0
0
TEXT
8
LABELS
6
ROT_270.96
7
STANDARD
10
247.2978
20
949.3367
30
0.0
40
3.0
1
N89%%d27'38"E
50
270.96
0
TEXT
8
LABELS
6
ROT_270.96
7
STANDARD
10
244.6982
20
949.2933
30
0.0
40
2.7600000000000002
1
119.72'
50
270.96
0
LINE
8
LOT_LINE
10
246.4998
20
1009.1917
30
0.0
11
243.5002
21
1009.1417
31
0.0
0
LINE
8
LOT_LINE
10
248.4958
20
889.4883
30
0.0
11
245.4962
21
889.4383
31
0.0
0
LINE
8
LOT_LINE
10
382.8497
20
1008.8693
30
0.0
11
384.8503
21
888.8859
31
0.0
0
TEXT
8
LABELS
6
ROT_270.96
7
STANDARD
10
385.1498
20
948.8993
30
0.0
40
3.0
1
N89%%d27'38"E
50
270.96
0
TEXT
8
LABELS
6
ROT_270.96
7
STANDARD
10
382.5502
20
948.8559
30
0.0
40
2.7600000000000002
1
120.00'
50
270.96
0
LINE
8
LOT_LINE
10
384.3495
20
1008.8943
30
0.0
11
381.3499
21
1008.8442
31
0.0
0
LINE
8
LOT_LINE
10
386.3501
20
888.9109
30
0.0
11
383.3505
21
888.8609
31
0.0
0
LINE
8
LOT_LINE
10
437.8496
20
1008.7506
30
0.0
11
439.8127
21
891.0170
31
0.0
0
TEXT
8
LABELS
6
ROT_270.96
7
STANDARD
10
440.1309
20
949.9055
30
0.0
40
3.0
1
N89%%d27'38"E
50
270.96
0
TEXT
8
LABELS
6
ROT_270.96
7
STANDARD
10
437.5313
20
949.8621
30
0.0
40
2.7600000000000002
1
117.75'
50
270.96
0
LINE
8
LOT_LINE
10
439.3493
20
1008.7756
30
0.0
11
436.3498
21
1008.7256
31
0.0
0
LINE
8
LOT_LINE
10
441.3125
20
891.0420
30
0.0
11
438.3129
21
890.9920
31
0.0
0
LINE
8
LOT_LINE
10
497.8494
20
1008.6211
30
0.0
11
499.6298
21
901.8460
31
0.0
0
TEXT
8
LABELS
6
ROT_270.96
7
STANDARD
10
500.0394
20
955.2552
30
0.0
40
3.0
1
N89%%d27'38"E
50
270.96
0
TEXT
8
LABELS
6
ROT_270.96
7
STANDARD
10
497.4398
20
955.2119
30
0.0
40
2.7600000000000002
1
106.79'
50
270.96
0
LINE
8
LOT_LINE
10
499.3492
20
1008.6462
30
0.0
11
496.3496
21
1008.5961
31
0.0
0
LINE
8
LOT_LINE
10
501.1296
20
901.8710
30
0.0
11
498.1300
21
901.8210
31
0.0
0
LINE
8
LOT_LINE
10
552.8493
20
1008.5025
30
0.0
11
554.5171
21
908.4764
31
0.0
0
TEXT
8
LABELS
6
ROT_270.96
7
STANDARD
10
554.9830
20
958.5111
30
0.0
40
3.0
1
N89%%d27'38"E
50
270.96
0
TEXT
8
LABELS
6
ROT_270.96
7
STANDARD
10
552.3834
20
958.4678
30
0.0
40
2.7600000000000002
1
100.04'
50
270.96
0
LINE
8
LOT_LINE
10
554.3491
20
1008.5275
30
0.0
11
551.3495
21
1008.4775
31
0.0
0
LINE
8
LOT_LINE
10
556.0169
20
908.5014
30
0.0
11
553.0173
21
908.4514
31
0.0
0
LINE
8
LOT_LINE
10
607.8492
20
1008.3838
30
0.0
11
609.4773
21
910.7374
31
0.0
0
TEXT
8
LABELS
6
ROT_270.96
7
STANDARD
10
609.9631
20
959.5823
30
0.0
40
3.0
1
N89%%d27'38"E
50
270.96
0
TEXT
8
LABELS
6
ROT_270.96
7
STANDARD
10
607.3634
20
959.5389
30
0.0
40
2.7600000000000002
1
97.66'
50
270.96
0
LINE
8
LOT_LINE
10
609.3489
20
1008.4088
30
0.0
11
606.3494
21
1008.3588
31
0.0
0
LINE
8
LOT_LINE
10
610.9771
20
910.7624
30
0.0
11
607.9775
21
910.7124
31
0.0
0
LINE
8
LOT_LINE
10
667.8490
20
1008.2544
30
0.0
11
669.5147
21
908.3583
31
0.0
0
TEXT
8
LABELS
6
ROT_270.96
7
STANDARD
10
669.9817
20
958.3280
30
0.0
40
3.0
1
N89%%d27'38"E
50
270.96
0
TEXT
8
LABELS
6
ROT_270.96
7
STANDARD
10
667.3820
20
958.2846
30
0.0
40
2.7600000000000002
1
99.91'
50
270.96
0
LINE
8
LOT_LINE
10
669.3488
20
1008.2794
30
0.0
11
666.3492
21
1008.2294
31
0.0
0
LINE
8
LOT_LINE
10
671.0145
20
908.3833
30
0.0
11
668.0149
21
908.3332
31
0.0
0
LINE
8
LOT_LINE
10
722.8489
20
1008.1357
30
0.0
11
724.5749
21
904.6201
31
0.0
0
TEXT
8
LABELS
6
ROT_270.96
7
STANDARD
10
725.0117
20
956.3996
30
0.0
40
3.0
1
N89%%d27'38"E
50
270.96
0
TEXT
8
LABELS
6
ROT_270.96
7
STANDARD
10
722.4121
20
956.3562
30
0.0
40
2.7600000000000002
1
103.53'
50
270.96
0
LINE
8
LOT_LINE
10
724.3487
20
1008.1607
30
0.0
11
721.3491
21
1008.1107
31
0.0
0
LINE
8
LOT_LINE
10
726.0747
20
904.6451
30
0.0
11
723.0751
21
904.5951
31
0.0
0
LINE
8
LOT_LINE
10
777.8488
20
1008.0170
30
0.0
11
779.6405
21
900.5620
31
0.0
0
TEXT
8
LABELS
6
ROT_270.96
7
STANDARD
10
780.0444
20
954.3112
30
0.0
40
3.0
1
N89%%d27'38"E
50
270.96
0
TEXT
8
LABELS
6
ROT_270.96
7
STANDARD
10
777.4448
20
954.2678
30
0.0
40
2.7600000000000002
1
107.47'
50
270.96
0
LINE
8
LOT_LINE
10
779.3486
20
1008.0421
30
0.0
11
776.3490
21
1007.9920
31
0.0
0
LINE
8
LOT_LINE
10
781.1403
20
900.5870
30
0.0
11
778.1407
21
900.5370
31
0.0
0
LINE
8
LOT_LINE
10
837.8486
20
1007.8876
30
0.0
11
839.7005
21
896.8230
31
0.0
0
TEXT
8
LABELS
6
ROT_270.96
7
STANDARD
10
840.0744
20
952.3770
30
0.0
40
3.0
1
N89%%d27'38"E
50
270.96
0
TEXT
8
LABELS
6
ROT_270.96
7
STANDARD
10
837.4748
20
952.3336
30
0.0
40
2.7600000000000002
1
111.08'
50
270.96
0
LINE
8
LOT_LINE
10
839.3484
20
1007.9126
30
0.0
11
836.3488
21
1007.8626
31
0.0
0
LINE
8
LOT_LINE
10
841.2003
20
896.8480
30
0.0
11
838.2007
21
896.7980
31
0.0
0
LINE
8
LOT_LINE
10
892.8485
20
1007.7689
30
0.0
11
894.7608
21
893.0849
31
0.0
0
TEXT
8
LABELS
6
ROT_270.96
7
STANDARD
10
895.1044
20
950.4486
30
0.0
40
3.0
1
N89%%d27'38"E
50
270.96
0
TEXT
8
LABELS
6
ROT_270.96
7
STANDARD
10
892.5048
20
950.4052
30
0.0
40
2.7600000000000002
1
114.70'
50
270.96
0
LINE
8
LOT_LINE
10
894.3483
20
1007.7939
30
0.0
11
891.3487
21
1007.7439
31
0.0
0
LINE
8
LOT_LINE
10
896.2606
20
893.1099
30
0.0
11
893.2610
21
893.0599
31
0.0
0
LINE
8
LOT_LINE
10
947.8484
20
1007.6503
30
0.0
11
949.8263
21
889.0268
31
0.0
0
TEXT
8
LABELS
6
ROT_270.96
7
STANDARD
10
950.1372
20
948.3602
30
0.0
40
3.0
1
N89%%d27'38"E
50
270.96
0
TEXT
8
LABELS
6
ROT_270.96
7
STANDARD
10
947.5375
20
948.3168
30
0.0
40
2.7600000000000002
1
118.64'
50
270.96
0
LINE
8
LOT_LINE
10
949.3482
20
1007.6753
30
0.0
11
946.3486
21
1007.6253
31
0.0
0
LINE
8
LOT_LINE
10
951.3261
20
889.0518
30
0.0
11
948.3265
21
889.0018
31
0.0
0
LINE
8
ERROR
10
1007.8482
20
1007.5208
30
0.0
11
1009.8919
21
884.9579
31
0.0
0
TEXT
8
LABELS
6
ROT_270.96
7
STANDARD
10
1010.1699
20
946.2610
30
0.0
40
3.0
1
N89%%d27'38"E
50
270.96
0
TEXT
8
LABELS
6
ROT_270.96
7
STANDARD
10
1007.5702
20
946.2177
30
0.0
40
2.7600000000000002
1
122.58'
50
270.96
0
LINE
8
ERROR
10
1009.3480
20
1007.5458
30
0.0
11
1006.3484
21
1007.4958
31
0.0
0
LINE
8
ERROR
10
1011.3917
20
884.9829
30
0.0
11
1008.3921
21
884.9329
31
0.0
0
TEXT
8
ERROR
7
STANDARD
10
1008.8700
20
942.2393
30
0.0
40
2.4
1
ASSUMED DEPTH
50
0.0
0
LINE
8
ERROR
10
246.9960
20
889.4633
30
0.0
11
384.8503
21
888.8859
31
0.0
0
TEXT
8
LABELS
6
ROT_359.76
7
STANDARD
10
315.9286
20
890.4746
30
0.0
40
2.8
1
N00%%d39'20.87"E
50
359.76
0
TEXT
8
LABELS
6
ROT_359.76
7
STANDARD
10
315.9177
20
887.8746
30
0.0
40
2.576
1
137.86'
50
359.76
0
LINE
8
ERROR
10
384.8503
20
888.8859
30
0.0
11
439.8127
21
891.0170
31
0.0
0
TEXT
8
LABELS
6
ROT_2.22
7
STANDARD
10
412.3819
20
888.6524
30
0.0
40
2.8
1
N01%%d48'16.40"W
50
2.22
0
TEXT
8
LABELS
6
ROT_2.22
7
STANDARD
10
412.2811
20
891.2505
30
0.0
40
2.576
1
55.00'
50
2.22
0
LINE
8
ERROR
10
439.8127
20
891.0170
30
0.0
11
499.6298
21
901.8460
31
0.0
0
TEXT
8
LABELS
6
ROT_10.26
7
STANDARD
10
469.9528
20
895.1523
30
0.0
40
2.8
1
N09%%d50'44.17"W
50
10.26
0
TEXT
8
LABELS
6
ROT_10.26
7
STANDARD
10
469.4897
20
897.7107
30
0.0
40
2.576
1
60.79'
50
10.26
0
LINE
8
ERROR
10
499.6298
20
901.8460
30
0.0
11
554.5171
21
908.4764
31
0.0
0
TEXT
8
LABELS
6
ROT_6.89
7
STANDARD
10
527.2294
20
903.8706
30
0.0
40
2.8
1
N06%%d28'19.69"W
50
6.89
0
TEXT
8
LABELS
6
ROT_6.89
7
STANDARD
10
526.9176
20
906.4518
30
0.0
40
2.576
1
55.29'
50
6.89
0
LINE
8
ERROR
10
554.5171
20
908.4764
30
0.0
11
609.4773
21
910.7374
31
0.0
0
TEXT
8
LABELS
6
ROT_2.36
7
STANDARD
10
582.0507
20
908.3080
30
0.0
40
2.8
1
N01%%d56'23.76"W
50
2.36
0
TEXT
8
LABELS
6
ROT_2.36
7
STANDARD
10
581.9438
20
910.9058
30
0.0
40
2.576
1
55.01'
50
2.36
0
LINE
8
ERROR
10
609.4773
20
910.7374
30
0.0
11
669.5147
21
908.3583
31
0.0
0
TEXT
8
LABELS
6
ROT_357.73
7
STANDARD
10
639.5475
20
910.8468
30
0.0
40
2.8
1
N02%%d41'06.49"E
50
357.73
0
TEXT
8
LABELS
6
ROT_357.73
7
STANDARD
10
639.4445
20
908.2488
30
0.0
40
2.576
1
60.08'
50
357.73
0
LINE
8
ERROR
10
669.5147
20
908.3583
30
0.0
11
724.5749
21
904.6201
31
0.0
0
TEXT
8
LABELS
6
ROT_356.12
7
STANDARD
10
697.1329
20
907.7862
30
0.0
40
2.8
1
N04%%d17'59.30"E
50
356.12
0
TEXT
8
LABELS
6
ROT_356.12
7
STANDARD
10
696.9568
20
905.1922
30
0.0
40
2.576
1
55.19'
50
356.12
0
LINE
8
ERROR
10
724.5749
20
904.6201
30
0.0
11
779.6405
21
900.5620
31
0.0
0
TEXT
8
LABELS
6
ROT_355.79
7
STANDARD
10
752.2033
20
903.8875
30
0.0
40
2.8
1
N04%%d37'50.46"E
50
355.79
0
TEXT
8
LABELS
6
ROT_355.79
7
STANDARD
10
752.0122
20
901.2946
30
0.0
40
2.576
1
55.21'
50
355.79
0
LINE
8
ERROR
10
779.6405
20
900.5620
30
0.0
11
839.7005
21
896.8230
31
0.0
0
TEXT
8
LABELS
6
ROT_356.44
7
STANDARD
10
809.7513
20
899.9900
30
0.0
40
2.8
1
N03%%d58'41.14"E
50
356.44
0
TEXT
8
LABELS
6
ROT_356.44
7
STANDARD
10
809.5897
20
897.3950
30
0.0
40
2.576
1
60.18'
50
356.44
0
LINE
8
ERROR
10
839.7005
20
896.8230
30
0.0
11
894.7608
21
893.0849
31
0.0
0
TEXT
8
LABELS
6
ROT_356.12
7
STANDARD
10
867.3187
20
896.2510
30
0.0
40
2.8
1
N04%%d17'59.30"E
50
356.12
0
TEXT
8
LABELS
6
ROT_356.12
7
STANDARD
10
867.1426
20
893.6569
30
0.0
40
2.576
1
55.19'
50
356.12
0
LINE
8
ERROR
10
894.7608
20
893.0849
30
0.0
11
949.8263
21
889.0268
31
0.0
0
TEXT
8
LABELS
6
ROT_355.79
7
STANDARD
10
922.3891
20
892.3523
30
0.0
40
2.8
1
N04%%d37'50.46"E
50
355.79
0
TEXT
8
LABELS
6
ROT_355.79
7
STANDARD
10
922.1980
20
889.7593
30
0.0
40
2.576
1
55.21'
50
355.79
0
LINE
8
ERROR
10
949.8263
20
889.0268
30
0.0
11
1009.8919
21
884.9579
31
0.0
0
TEXT
8
LABELS
6
ROT_356.12
7
STANDARD
10
979.9470
20
888.2893
30
0.0
40
2.8
1
N04%%d17'28.26"E
50
356.12
0
TEXT
8
LABELS
6
ROT_356.12
7
STANDARD
10
979.7712
20
885.6953
30
0.0
40
2.576
1
60.20'
50
356.12
0
TEXT
8
LABELS
7
STANDARD
10
305.9240
20
946.0963
30
0.0
40
7.0
1
137
50
0.0
0
TEXT
8
AREA_PROV
7
STANDARD
10
303.9240
20
938.0963
30
0.0
40
3.2
1
16,520 SF
50
0.0
0
TEXT
8
AREA_PROV
7
STANDARD
10
303.9240
20
933.0963
30
0.0
40
2.2
1
(PROVISIONAL)
50
0.0
0
TEXT
8
LABELS
7
STANDARD
10
402.3406
20
946.3807
30
0.0
40
7.0
1
136
50
0.0
0
TEXT
8
AREA_PROV
7
STANDARD
10
400.3406
20
938.3807
30
0.0
40
3.2
1
6,537 SF
50
0.0
0
TEXT
8
AREA_PROV
7
STANDARD
10
400.3406
20
933.3807
30
0.0
40
2.2
1
(PROVISIONAL)
50
0.0
0
TEXT
8
LABELS
7
STANDARD
10
459.7854
20
949.5587
30
0.0
40
7.0
1
135
50
0.0
0
TEXT
8
AREA_PROV
7
STANDARD
10
457.7854
20
941.5587
30
0.0
40
3.2
1
6,735 SF
50
0.0
0
TEXT
8
AREA_PROV
7
STANDARD
10
457.7854
20
936.5587
30
0.0
40
2.2
1
(PROVISIONAL)
50
0.0
0
TEXT
8
LABELS
7
STANDARD
10
517.2114
20
953.8615
30
0.0
40
7.0
1
134
50
0.0
0
TEXT
8
AREA_PROV
7
STANDARD
10
515.2114
20
945.8615
30
0.0
40
3.2
1
5,687 SF
50
0.0
0
TEXT
8
AREA_PROV
7
STANDARD
10
515.2114
20
940.8615
30
0.0
40
2.2
1
(PROVISIONAL)
50
0.0
0
TEXT
8
LABELS
7
STANDARD
10
572.1732
20
956.0250
30
0.0
40
7.0
1
133
50
0.0
0
TEXT
8
AREA_PROV
7
STANDARD
10
570.1732
20
948.0250
30
0.0
40
3.2
1
5,436 SF
50
0.0
0
TEXT
8
AREA_PROV
7
STANDARD
10
570.1732
20
943.0250
30
0.0
40
2.2
1
(PROVISIONAL)
50
0.0
0
TEXT
8
LABELS
7
STANDARD
10
629.6726
20
955.9335
30
0.0
40
7.0
1
132
50
0.0
0
TEXT
8
AREA_PROV
7
STANDARD
10
627.6726
20
947.9335
30
0.0
40
3.2
1
5,926 SF
50
0.0
0
TEXT
8
AREA_PROV
7
STANDARD
10
627.6726
20
942.9335
30
0.0
40
2.2
1
(PROVISIONAL)
50
0.0
0
TEXT
8
LABELS
7
STANDARD
10
687.1969
20
954.3421
30
0.0
40
7.0
1
131
50
0.0
0
TEXT
8
AREA_PROV
7
STANDARD
10
685.1969
20
946.3421
30
0.0
40
3.2
1
5,594 SF
50
0.0
0
TEXT
8
AREA_PROV
7
STANDARD
10
685.1969
20
941.3421
30
0.0
40
2.2
1
(PROVISIONAL)
50
0.0
0
TEXT
8
LABELS
7
STANDARD
10
742.2283
20
952.3337
30
0.0
40
7.0
1
130
50
0.0
0
TEXT
8
AREA_PROV
7
STANDARD
10
740.2283
20
944.3337
30
0.0
40
3.2
1
5,801 SF
50
0.0
0
TEXT
8
AREA_PROV
7
STANDARD
10
740.2283
20
939.3337
30
0.0
40
2.2
1
(PROVISIONAL)
50
0.0
0
TEXT
8
LABELS
7
STANDARD
10
799.7596
20
950.3224
30
0.0
40
7.0
1
129
50
0.0
0
TEXT
8
AREA_PROV
7
STANDARD
10
797.7596
20
942.3224
30
0.0
40
3.2
1
6,555 SF
50
0.0
0
TEXT
8
AREA_PROV
7
STANDARD
10
797.7596
20
937.3224
30
0.0
40
2.2
1
(PROVISIONAL)
50
0.0
0
TEXT
8
LABELS
7
STANDARD
10
857.2896
20
948.3911
30
0.0
40
7.0
1
128
50
0.0
0
TEXT
8
AREA_PROV
7
STANDARD
10
855.2896
20
940.3911
30
0.0
40
3.2
1
6,208 SF
50
0.0
0
TEXT
8
AREA_PROV
7
STANDARD
10
855.2896
20
935.3911
30
0.0
40
2.2
1
(PROVISIONAL)
50
0.0
0
TEXT
8
LABELS
7
STANDARD
10
912.3210
20
946.3827
30
0.0
40
7.0
1
127
50
0.0
0
TEXT
8
AREA_PROV
7
STANDARD
10
910.3210
20
938.3827
30
0.0
40
3.2
1
6,416 SF
50
0.0
0
TEXT
8
AREA_PROV
7
STANDARD
10
910.3210
20
933.3827
30
0.0
40
2.2
1
(PROVISIONAL)
50
0.0
0
TEXT
8
LABELS
7
STANDARD
10
969.8537
20
944.2889
30
0.0
40
7.0
1
126
50
0.0
0
TEXT
8
AREA_PROV
7
STANDARD
10
967.8537
20
936.2889
30
0.0
40
3.2
1
7,235 SF
50
0.0
0
TEXT
8
AREA_PROV
7
STANDARD
10
967.8537
20
931.2889
30
0.0
40
2.2
1
(PROVISIONAL)
50
0.0
0
POINT
8
VERTEX
10
245.0000
20
1009.1667
30
0.0
0
POINT
8
VERTEX
10
382.8497
20
1008.8693
30
0.0
0
POINT
8
VERTEX
10
437.8496
20
1008.7506
30
0.0
0
POINT
8
VERTEX
10
497.8494
20
1008.6211
30
0.0
0
POINT
8
VERTEX
10
552.8493
20
1008.5025
30
0.0
0
POINT
8
VERTEX
10
607.8492
20
1008.3838
30
0.0
0
POINT
8
VERTEX
10
667.8490
20
1008.2544
30
0.0
0
POINT
8
VERTEX
10
722.8489
20
1008.1357
30
0.0
0
POINT
8
VERTEX
10
777.8488
20
1008.0170
30
0.0
0
POINT
8
VERTEX
10
837.8486
20
1007.8876
30
0.0
0
POINT
8
VERTEX
10
892.8485
20
1007.7689
30
0.0
0
POINT
8
VERTEX
10
947.8484
20
1007.6503
30
0.0
0
POINT
8
VERTEX
10
1007.8482
20
1007.5208
30
0.0
0
POINT
8
VERTEX
10
246.9960
20
889.4633
30
0.0
0
POINT
8
VERTEX
10
384.8503
20
888.8859
30
0.0
0
POINT
8
VERTEX
10
439.8127
20
891.0170
30
0.0
0
POINT
8
VERTEX
10
499.6298
20
901.8460
30
0.0
0
POINT
8
VERTEX
10
554.5171
20
908.4764
30
0.0
0
POINT
8
VERTEX
10
609.4773
20
910.7374
30
0.0
0
POINT
8
VERTEX
10
669.5147
20
908.3583
30
0.0
0
POINT
8
VERTEX
10
724.5749
20
904.6201
30
0.0
0
POINT
8
VERTEX
10
779.6405
20
900.5620
30
0.0
0
POINT
8
VERTEX
10
839.7005
20
896.8230
30
0.0
0
POINT
8
VERTEX
10
894.7608
20
893.0849
30
0.0
0
POINT
8
VERTEX
10
949.8263
20
889.0268
30
0.0
0
POINT
8
VERTEX
10
1009.8919
20
884.9579
30
0.0
0
TEXT
8
ROAD_NAME
7
STANDARD
10
263.0000
20
949.1667
30
0.0
40
5.0
1
MARITIME OAK DRIVE
50
0.0
0
TEXT
8
ROAD_NAME
7
STANDARD
10
263.0000
20
942.1667
30
0.0
40
3.4
1
(50' RIGHT OF WAY)
50
0.0
0
TEXT
8
ROAD_NAME
7
STANDARD
10
263.0000
20
929.1667
30
0.0
40
5.0
1
TIMBER BRIDGE LANE
50
0.0
0
TEXT
8
ROAD_NAME
7
STANDARD
10
263.0000
20
922.1667
30
0.0
40
3.4
1
(50' RIGHT OF WAY)
50
0.0
0
TEXT
8
ROAD_NAME
7
STANDARD
10
263.0000
20
909.1667
30
0.0
40
5.0
1
ATLANTIC BEACH DRIVE
50
0.0
0
TEXT
8
ROAD_NAME
7
STANDARD
10
263.0000
20
902.1667
30
0.0
40
3.4
1
(50' RIGHT OF WAY) [sheet 6]
50
0.0
0
TEXT
8
TITLEBLOCK
7
STANDARD
10
175.0000
20
1259.1667
30
0.0
40
8
1
ATLANTIC BEACH CC UNIT 2, SHEET 3, BLOCK A -- FORCE-CLOSED
50
0.0
0
TEXT
8
TITLEBLOCK
7
STANDARD
10
175.0000
20
1243.1667
30
0.0
40
6
1

50
0.0
0
TEXT
8
TITLEBLOCK
7
STANDARD
10
175.0000
20
1227.1667
30
0.0
40
6
1
*** RED 'ERROR' LAYER = ASSUMED GEOMETRY, NOT RECORDED ***
50
0.0
0
TEXT
8
TITLEBLOCK
7
STANDARD
10
175.0000
20
1211.1667
30
0.0
40
6
1
Every red segment fills a gap in transcription so the lot closes.
50
0.0
0
TEXT
8
TITLEBLOCK
7
STANDARD
10
175.0000
20
1195.1667
30
0.0
40
6
1
Any area shown in red is PROVISIONAL because its ring uses one.
50
0.0
0
TEXT
8
TITLEBLOCK
7
STANDARD
10
175.0000
20
1179.1667
30
0.0
40
6
1

50
0.0
0
TEXT
8
TITLEBLOCK
7
STANDARD
10
175.0000
20
1163.1667
30
0.0
40
6
1
CYAN (transcribed, recorded precision):
50
0.0
0
TEXT
8
TITLEBLOCK
7
STANDARD
10
175.0000
20
1147.1667
30
0.0
40
6
1
   front boundary N00d32'22"E 772.85' -- 12 widths + 10.00' = EXACT
50
0.0
0
TEXT
8
TITLEBLOCK
7
STANDARD
10
175.0000
20
1131.1667
30
0.0
40
6
1
   12 side-line depths, bearing N89d27'38"E
50
0.0
0
TEXT
8
TITLEBLOCK
7
STANDARD
10
175.0000
20
1115.1667
30
0.0
40
6
1
   front/side perpendicularity 90.000000 deg EXACT
50
0.0
0
TEXT
8
TITLEBLOCK
7
STANDARD
10
175.0000
20
1099.1667
30
0.0
40
6
1

50
0.0
0
TEXT
8
TITLEBLOCK
7
STANDARD
10
175.0000
20
1083.1667
30
0.0
40
6
1
RED (assumed):
50
0.0
0
TEXT
8
TITLEBLOCK
7
STANDARD
10
175.0000
20
1067.1667
30
0.0
40
6
1
   rear boundary: straight chord between adjacent side endpoints.
50
0.0
0
TEXT
8
TITLEBLOCK
7
STANDARD
10
175.0000
20
1051.1667
30
0.0
40
6
1
     Known: rear is two validated curve chains, R=700' (C195-198) and
50
0.0
0
TEXT
8
TITLEBLOCK
7
STANDARD
10
175.0000
20
1035.1667
30
0.0
40
6
1
     R=150' (C199-201), plus an 80.00' tangent parallel to the front
50
0.0
0
TEXT
8
TITLEBLOCK
7
STANDARD
10
175.0000
20
1019.1667
30
0.0
40
6
1
     (confirmed: 45.89'+34.12'=80.01'). NOT known: which curve station
50
0.0
0
TEXT
8
TITLEBLOCK
7
STANDARD
10
175.0000
20
1003.1667
30
0.0
40
6
1
     belongs to which lot corner -- hence the chord assumption.
50
0.0
0
TEXT
8
TITLEBLOCK
7
STANDARD
10
175.0000
20
987.1667
30
0.0
40
6
1
     Measured against the drawn linework, the assumed rear deviates
50
0.0
0
TEXT
8
TITLEBLOCK
7
STANDARD
10
175.0000
20
971.1667
30
0.0
40
6
1
     at most 12.45 ft. That is the size of this assumption.
50
0.0
0
TEXT
8
TITLEBLOCK
7
STANDARD
10
175.0000
20
955.1667
30
0.0
40
6
1
   east side of lot 126: depth continued from the trend, not read.
50
0.0
0
TEXT
8
TITLEBLOCK
7
STANDARD
10
175.0000
20
939.1667
30
0.0
40
6
1

50
0.0
0
TEXT
8
TITLEBLOCK
7
STANDARD
10
175.0000
20
923.1667
30
0.0
40
6
1
TO REMOVE THE ASSUMPTIONS: one high-magnification read of the P.C./P.T.
50
0.0
0
TEXT
8
TITLEBLOCK
7
STANDARD
10
175.0000
20
907.1667
30
0.0
40
6
1
station ties along C195-C201 converts every red segment to cyan and
50
0.0
0
TEXT
8
TITLEBLOCK
7
STANDARD
10
175.0000
20
891.1667
30
0.0
40
6
1
every provisional area to final.
50
0.0
0
ENDSEC
0
EOF
