0
SECTION
2
HEADER
9
$ACADVER
1
AC1009
9
$DWGCODEPAGE
3
ANSI_1252
0
ENDSEC
0
SECTION
2
TABLES
0
TABLE
2
LTYPE
70
11
0
LTYPE
2
CONTINUOUS
70
0
3
Solid
72
65
73
0
40
0.0
0
LTYPE
2
DASHED
70
0
3
Dashed
72
65
73
2
40
0.75
49
0.5
74
0
49
-0.25
74
0
0
LTYPE
2
DASHED2
70
0
3
Dashed (.5x)
72
65
73
2
40
0.375
49
0.25
74
0
49
-0.125
74
0
0
LTYPE
2
HIDDEN
70
0
3
Hidden
72
65
73
2
40
0.375
49
0.25
74
0
49
-0.125
74
0
0
LTYPE
2
CENTER
70
0
3
Center
72
65
73
4
40
2.0
49
1.25
74
0
49
-0.25
74
0
49
0.25
74
0
49
-0.25
74
0
0
LTYPE
2
PHANTOM
70
0
3
Phantom
72
65
73
6
40
2.5
49
1.25
74
0
49
-0.25
74
0
49
0.25
74
0
49
-0.25
74
0
49
0.25
74
0
49
-0.25
74
0
0
LTYPE
2
ROT_0.69
70
0
3
Solid
72
65
73
0
40
0.0
0
LTYPE
2
ROT_1.03
70
0
3
Solid
72
65
73
0
40
0.0
0
LTYPE
2
ROT_271.03
70
0
3
Solid
72
65
73
0
40
0.0
0
LTYPE
2
ROT_316.03
70
0
3
Solid
72
65
73
0
40
0.0
0
LTYPE
2
ROT_45.86
70
0
3
Solid
72
65
73
0
40
0.0
0
ENDTAB
0
TABLE
2
LAYER
70
6
0
LAYER
2
0
70
0
62
7
6
CONTINUOUS
0
LAYER
2
LOT_POLYLINE
70
0
62
4
6
CONTINUOUS
0
LAYER
2
SHEET_LABELS
70
0
62
7
6
CONTINUOUS
0
LAYER
2
SHEET_FRAME
70
0
62
2
6
CONTINUOUS
0
LAYER
2
ERROR
70
0
62
1
6
CONTINUOUS
0
LAYER
2
TITLEBLOCK
70
0
62
2
6
CONTINUOUS
0
ENDTAB
0
TABLE
2
STYLE
70
4
0
STYLE
2
STANDARD
70
0
40
0.0
41
1.0
50
0.0
71
0
42
0.2
3
Arial
4

0
STYLE
2
ARIAL
70
0
40
0.0
41
1.0
50
0.0
71
0
42
0.2
3
Arial
4

0
STYLE
2
ARIAL_TTF
70
0
40
0.0
41
1.0
50
0.0
71
0
42
0.2
3
arial.ttf
4

0
STYLE
2
SIMPLEX
70
0
40
0.0
41
1.0
50
0.0
71
0
42
0.2
3
simplex.shx
4

0
ENDTAB
0
ENDSEC
0
SECTION
2
ENTITIES
0
LINE
8
SHEET_FRAME
10
0.0000
20
0.0000
30
0.0
11
300.0000
21
0.0000
31
0.0
0
LINE
8
SHEET_FRAME
10
300.0000
20
0.0000
30
0.0
11
300.0000
21
260.0000
31
0.0
0
LINE
8
SHEET_FRAME
10
300.0000
20
260.0000
30
0.0
11
0.0000
21
260.0000
31
0.0
0
LINE
8
SHEET_FRAME
10
0.0000
20
260.0000
30
0.0
11
0.0000
21
0.0000
31
0.0
0
POLYLINE
8
LOT_POLYLINE
66
1
70
1
0
VERTEX
8
LOT_POLYLINE
10
29.0801
20
26.0000
30
0.0
0
VERTEX
8
LOT_POLYLINE
10
26.0000
20
197.6899
30
0.0
0
VERTEX
8
LOT_POLYLINE
10
154.7674
20
200.0000
30
0.0
0
VERTEX
8
LOT_POLYLINE
10
198.4599
20
157.8476
30
0.0
0
VERTEX
8
LOT_POLYLINE
10
200.7700
20
29.0801
30
0.0
0
SEQEND
0
POLYLINE
8
LOT_POLYLINE
66
1
70
0
0
VERTEX
8
LOT_POLYLINE
10
154.7674
20
200.0000
30
0.0
0
VERTEX
8
LOT_POLYLINE
10
158.9783
20
199.8688
30
0.0
0
VERTEX
8
LOT_POLYLINE
10
163.1560
20
199.3255
30
0.0
0
VERTEX
8
LOT_POLYLINE
10
167.2603
20
198.3753
30
0.0
0
VERTEX
8
LOT_POLYLINE
10
171.2518
20
197.0274
30
0.0
0
VERTEX
8
LOT_POLYLINE
10
175.0919
20
195.2948
30
0.0
0
VERTEX
8
LOT_POLYLINE
10
178.7436
20
193.1941
30
0.0
0
VERTEX
8
LOT_POLYLINE
10
182.1719
20
190.7455
30
0.0
0
VERTEX
8
LOT_POLYLINE
10
185.3437
20
187.9728
30
0.0
0
VERTEX
8
LOT_POLYLINE
10
188.2285
20
184.9025
30
0.0
0
VERTEX
8
LOT_POLYLINE
10
190.7984
20
181.5642
30
0.0
0
VERTEX
8
LOT_POLYLINE
10
193.0287
20
177.9901
30
0.0
0
VERTEX
8
LOT_POLYLINE
10
194.8980
20
174.2147
30
0.0
0
VERTEX
8
LOT_POLYLINE
10
196.3882
20
170.2741
30
0.0
0
VERTEX
8
LOT_POLYLINE
10
197.4850
20
166.2065
30
0.0
0
VERTEX
8
LOT_POLYLINE
10
198.1778
20
162.0510
30
0.0
0
VERTEX
8
LOT_POLYLINE
10
198.4599
20
157.8476
30
0.0
0
SEQEND
0
TEXT
8
SHEET_LABELS
6
ROT_271.03
7
STANDARD
10
30.5396
20
111.8988
30
0.0
40
3.4
1
N01%%d01'40.00"W
50
271.03
0
TEXT
8
SHEET_LABELS
6
ROT_271.03
7
STANDARD
10
24.5405
20
111.7911
30
0.0
40
3.2
1
100.00'
50
271.03
0
POINT
8
SHEET_LABELS
10
29.0801
20
26.0000
30
0.0
0
TEXT
8
SHEET_LABELS
6
ROT_1.03
7
STANDARD
10
90.4375
20
195.8454
30
0.0
40
3.4
1
N88%%d58'20.00"E
50
1.03
0
TEXT
8
SHEET_LABELS
6
ROT_1.03
7
STANDARD
10
90.3299
20
201.8445
30
0.0
40
3.2
1
75.00'
50
1.03
0
POINT
8
SHEET_LABELS
10
26.0000
20
197.6899
30
0.0
0
TEXT
8
SHEET_LABELS
6
ROT_316.03
7
STANDARD
10
178.6966
20
181.0828
30
0.0
40
3.4
1
S46%%d01'40.00"E
50
316.03
0
TEXT
8
SHEET_LABELS
6
ROT_316.03
7
STANDARD
10
174.5308
20
176.7647
30
0.0
40
3.2
1
35.36'
50
316.03
0
POINT
8
SHEET_LABELS
10
154.7674
20
200.0000
30
0.0
0
TEXT
8
SHEET_LABELS
6
ROT_271.03
7
STANDARD
10
202.6145
20
93.5176
30
0.0
40
3.4
1
S01%%d01'40.00"E
50
271.03
0
TEXT
8
SHEET_LABELS
6
ROT_271.03
7
STANDARD
10
196.6155
20
93.4100
30
0.0
40
3.2
1
75.00'
50
271.03
0
POINT
8
SHEET_LABELS
10
198.4599
20
157.8476
30
0.0
0
TEXT
8
SHEET_LABELS
6
ROT_1.03
7
STANDARD
10
114.9789
20
24.5405
30
0.0
40
3.4
1
S88%%d58'20.00"W
50
1.03
0
TEXT
8
SHEET_LABELS
6
ROT_1.03
7
STANDARD
10
114.8713
20
30.5396
30
0.0
40
3.2
1
100.00'
50
1.03
0
POINT
8
SHEET_LABELS
10
200.7700
20
29.0801
30
0.0
0
TEXT
8
SHEET_LABELS
7
STANDARD
10
8.0000
20
250.0000
30
0.0
40
8.0
1
LOT Blk 13 - Lot 1   PASS
50
0.0
0
TEXT
8
SHEET_LABELS
7
STANDARD
10
8.0000
20
239.0000
30
0.0
40
4.6
1
AREA 9,866 SF (0.226 ac)
50
0.0
0
TEXT
8
SHEET_LABELS
7
STANDARD
10
8.0000
20
232.0000
30
0.0
40
4.0
1
PERIMETER 385.36'   VERTICES 5   CLOSING SIDE 0.00'
50
0.0
0
TEXT
8
SHEET_LABELS
7
STANDARD
10
8.0000
20
225.0000
30
0.0
40
3.4
1
all geometric checks passed: closed single polyline, no self-intersection, no overlap, no spikes
50
0.0
0
LINE
8
SHEET_FRAME
10
340.0000
20
0.0000
30
0.0
11
640.0000
21
0.0000
31
0.0
0
LINE
8
SHEET_FRAME
10
640.0000
20
0.0000
30
0.0
11
640.0000
21
260.0000
31
0.0
0
LINE
8
SHEET_FRAME
10
640.0000
20
260.0000
30
0.0
11
340.0000
21
260.0000
31
0.0
0
LINE
8
SHEET_FRAME
10
340.0000
20
260.0000
30
0.0
11
340.0000
21
0.0000
31
0.0
0
POLYLINE
8
LOT_POLYLINE
66
1
70
1
0
VERTEX
8
LOT_POLYLINE
10
369.0507
20
26.0000
30
0.0
0
VERTEX
8
LOT_POLYLINE
10
366.0000
20
196.0509
30
0.0
0
VERTEX
8
LOT_POLYLINE
10
586.1306
20
200.0000
30
0.0
0
VERTEX
8
LOT_POLYLINE
10
589.1813
20
29.9491
30
0.0
0
SEQEND
0
TEXT
8
SHEET_LABELS
6
ROT_271.03
7
STANDARD
10
370.5249
20
111.0792
30
0.0
40
3.4
1
N01%%d01'40.00"W
50
271.03
0
TEXT
8
SHEET_LABELS
6
ROT_271.03
7
STANDARD
10
364.5258
20
110.9716
30
0.0
40
3.2
1
77.25'
50
271.03
0
POINT
8
SHEET_LABELS
10
369.0507
20
26.0000
30
0.0
0
TEXT
8
SHEET_LABELS
6
ROT_1.03
7
STANDARD
10
476.1191
20
195.0259
30
0.0
40
3.4
1
N88%%d58'20.00"E
50
1.03
0
TEXT
8
SHEET_LABELS
6
ROT_1.03
7
STANDARD
10
476.0115
20
201.0249
30
0.0
40
3.2
1
100.00'
50
1.03
0
POINT
8
SHEET_LABELS
10
366.0000
20
196.0509
30
0.0
0
TEXT
8
SHEET_LABELS
6
ROT_271.03
7
STANDARD
10
590.6554
20
115.0284
30
0.0
40
3.4
1
S01%%d01'40.00"E
50
271.03
0
TEXT
8
SHEET_LABELS
6
ROT_271.03
7
STANDARD
10
584.6564
20
114.9208
30
0.0
40
3.2
1
77.25'
50
271.03
0
POINT
8
SHEET_LABELS
10
586.1306
20
200.0000
30
0.0
0
TEXT
8
SHEET_LABELS
6
ROT_1.03
7
STANDARD
10
479.1698
20
24.9751
30
0.0
40
3.4
1
S88%%d58'20.00"W
50
1.03
0
TEXT
8
SHEET_LABELS
6
ROT_1.03
7
STANDARD
10
479.0622
20
30.9741
30
0.0
40
3.2
1
100.00'
50
1.03
0
POINT
8
SHEET_LABELS
10
589.1813
20
29.9491
30
0.0
0
TEXT
8
SHEET_LABELS
7
STANDARD
10
348.0000
20
250.0000
30
0.0
40
8.0
1
LOT Blk 13 - Lot 2   PASS
50
0.0
0
TEXT
8
SHEET_LABELS
7
STANDARD
10
348.0000
20
239.0000
30
0.0
40
4.6
1
AREA 7,725 SF (0.177 ac)
50
0.0
0
TEXT
8
SHEET_LABELS
7
STANDARD
10
348.0000
20
232.0000
30
0.0
40
4.0
1
PERIMETER 354.50'   VERTICES 4   CLOSING SIDE 0.00'
50
0.0
0
TEXT
8
SHEET_LABELS
7
STANDARD
10
348.0000
20
225.0000
30
0.0
40
3.4
1
all geometric checks passed: closed single polyline, no self-intersection, no overlap, no spikes
50
0.0
0
LINE
8
SHEET_FRAME
10
680.0000
20
0.0000
30
0.0
11
980.0000
21
0.0000
31
0.0
0
LINE
8
SHEET_FRAME
10
980.0000
20
0.0000
30
0.0
11
980.0000
21
260.0000
31
0.0
0
LINE
8
SHEET_FRAME
10
980.0000
20
260.0000
30
0.0
11
680.0000
21
260.0000
31
0.0
0
LINE
8
SHEET_FRAME
10
680.0000
20
260.0000
30
0.0
11
680.0000
21
0.0000
31
0.0
0
POLYLINE
8
LOT_POLYLINE
66
1
70
1
0
VERTEX
8
LOT_POLYLINE
10
709.0507
20
26.0000
30
0.0
0
VERTEX
8
LOT_POLYLINE
10
706.0000
20
196.0509
30
0.0
0
VERTEX
8
LOT_POLYLINE
10
926.1306
20
200.0000
30
0.0
0
VERTEX
8
LOT_POLYLINE
10
929.1813
20
29.9491
30
0.0
0
SEQEND
0
TEXT
8
SHEET_LABELS
6
ROT_271.03
7
STANDARD
10
710.5249
20
111.0792
30
0.0
40
3.4
1
N01%%d01'40.00"W
50
271.03
0
TEXT
8
SHEET_LABELS
6
ROT_271.03
7
STANDARD
10
704.5258
20
110.9716
30
0.0
40
3.2
1
77.25'
50
271.03
0
POINT
8
SHEET_LABELS
10
709.0507
20
26.0000
30
0.0
0
TEXT
8
SHEET_LABELS
6
ROT_1.03
7
STANDARD
10
816.1191
20
195.0259
30
0.0
40
3.4
1
N88%%d58'20.00"E
50
1.03
0
TEXT
8
SHEET_LABELS
6
ROT_1.03
7
STANDARD
10
816.0115
20
201.0249
30
0.0
40
3.2
1
100.00'
50
1.03
0
POINT
8
SHEET_LABELS
10
706.0000
20
196.0509
30
0.0
0
TEXT
8
SHEET_LABELS
6
ROT_271.03
7
STANDARD
10
930.6554
20
115.0284
30
0.0
40
3.4
1
S01%%d01'40.00"E
50
271.03
0
TEXT
8
SHEET_LABELS
6
ROT_271.03
7
STANDARD
10
924.6564
20
114.9208
30
0.0
40
3.2
1
77.25'
50
271.03
0
POINT
8
SHEET_LABELS
10
926.1306
20
200.0000
30
0.0
0
TEXT
8
SHEET_LABELS
6
ROT_1.03
7
STANDARD
10
819.1698
20
24.9751
30
0.0
40
3.4
1
S88%%d58'20.00"W
50
1.03
0
TEXT
8
SHEET_LABELS
6
ROT_1.03
7
STANDARD
10
819.0622
20
30.9741
30
0.0
40
3.2
1
100.00'
50
1.03
0
POINT
8
SHEET_LABELS
10
929.1813
20
29.9491
30
0.0
0
TEXT
8
SHEET_LABELS
7
STANDARD
10
688.0000
20
250.0000
30
0.0
40
8.0
1
LOT Blk 13 - Lot 3   PASS
50
0.0
0
TEXT
8
SHEET_LABELS
7
STANDARD
10
688.0000
20
239.0000
30
0.0
40
4.6
1
AREA 7,725 SF (0.177 ac)
50
0.0
0
TEXT
8
SHEET_LABELS
7
STANDARD
10
688.0000
20
232.0000
30
0.0
40
4.0
1
PERIMETER 354.50'   VERTICES 4   CLOSING SIDE 0.00'
50
0.0
0
TEXT
8
SHEET_LABELS
7
STANDARD
10
688.0000
20
225.0000
30
0.0
40
3.4
1
all geometric checks passed: closed single polyline, no self-intersection, no overlap, no spikes
50
0.0
0
LINE
8
SHEET_FRAME
10
1020.0000
20
0.0000
30
0.0
11
1320.0000
21
0.0000
31
0.0
0
LINE
8
SHEET_FRAME
10
1320.0000
20
0.0000
30
0.0
11
1320.0000
21
260.0000
31
0.0
0
LINE
8
SHEET_FRAME
10
1320.0000
20
260.0000
30
0.0
11
1020.0000
21
260.0000
31
0.0
0
LINE
8
SHEET_FRAME
10
1020.0000
20
260.0000
30
0.0
11
1020.0000
21
0.0000
31
0.0
0
POLYLINE
8
LOT_POLYLINE
66
1
70
1
0
VERTEX
8
LOT_POLYLINE
10
1049.0507
20
26.0000
30
0.0
0
VERTEX
8
LOT_POLYLINE
10
1046.0000
20
196.0509
30
0.0
0
VERTEX
8
LOT_POLYLINE
10
1266.1306
20
200.0000
30
0.0
0
VERTEX
8
LOT_POLYLINE
10
1269.1813
20
29.9491
30
0.0
0
SEQEND
0
TEXT
8
SHEET_LABELS
6
ROT_271.03
7
STANDARD
10
1050.5249
20
111.0792
30
0.0
40
3.4
1
N01%%d01'40.00"W
50
271.03
0
TEXT
8
SHEET_LABELS
6
ROT_271.03
7
STANDARD
10
1044.5258
20
110.9716
30
0.0
40
3.2
1
77.25'
50
271.03
0
POINT
8
SHEET_LABELS
10
1049.0507
20
26.0000
30
0.0
0
TEXT
8
SHEET_LABELS
6
ROT_1.03
7
STANDARD
10
1156.1191
20
195.0259
30
0.0
40
3.4
1
N88%%d58'20.00"E
50
1.03
0
TEXT
8
SHEET_LABELS
6
ROT_1.03
7
STANDARD
10
1156.0115
20
201.0249
30
0.0
40
3.2
1
100.00'
50
1.03
0
POINT
8
SHEET_LABELS
10
1046.0000
20
196.0509
30
0.0
0
TEXT
8
SHEET_LABELS
6
ROT_271.03
7
STANDARD
10
1270.6554
20
115.0284
30
0.0
40
3.4
1
S01%%d01'40.00"E
50
271.03
0
TEXT
8
SHEET_LABELS
6
ROT_271.03
7
STANDARD
10
1264.6564
20
114.9208
30
0.0
40
3.2
1
77.25'
50
271.03
0
POINT
8
SHEET_LABELS
10
1266.1306
20
200.0000
30
0.0
0
TEXT
8
SHEET_LABELS
6
ROT_1.03
7
STANDARD
10
1159.1698
20
24.9751
30
0.0
40
3.4
1
S88%%d58'20.00"W
50
1.03
0
TEXT
8
SHEET_LABELS
6
ROT_1.03
7
STANDARD
10
1159.0622
20
30.9741
30
0.0
40
3.2
1
100.00'
50
1.03
0
POINT
8
SHEET_LABELS
10
1269.1813
20
29.9491
30
0.0
0
TEXT
8
SHEET_LABELS
7
STANDARD
10
1028.0000
20
250.0000
30
0.0
40
8.0
1
LOT Blk 13 - Lot 4   PASS
50
0.0
0
TEXT
8
SHEET_LABELS
7
STANDARD
10
1028.0000
20
239.0000
30
0.0
40
4.6
1
AREA 7,725 SF (0.177 ac)
50
0.0
0
TEXT
8
SHEET_LABELS
7
STANDARD
10
1028.0000
20
232.0000
30
0.0
40
4.0
1
PERIMETER 354.50'   VERTICES 4   CLOSING SIDE 0.00'
50
0.0
0
TEXT
8
SHEET_LABELS
7
STANDARD
10
1028.0000
20
225.0000
30
0.0
40
3.4
1
all geometric checks passed: closed single polyline, no self-intersection, no overlap, no spikes
50
0.0
0
LINE
8
SHEET_FRAME
10
0.0000
20
-300.0000
30
0.0
11
300.0000
21
-300.0000
31
0.0
0
LINE
8
SHEET_FRAME
10
300.0000
20
-300.0000
30
0.0
11
300.0000
21
-40.0000
31
0.0
0
LINE
8
SHEET_FRAME
10
300.0000
20
-40.0000
30
0.0
11
0.0000
21
-40.0000
31
0.0
0
LINE
8
SHEET_FRAME
10
0.0000
20
-40.0000
30
0.0
11
0.0000
21
-300.0000
31
0.0
0
POLYLINE
8
LOT_POLYLINE
66
1
70
1
0
VERTEX
8
LOT_POLYLINE
10
29.0507
20
-274.0000
30
0.0
0
VERTEX
8
LOT_POLYLINE
10
26.0000
20
-103.9491
30
0.0
0
VERTEX
8
LOT_POLYLINE
10
246.1306
20
-100.0000
30
0.0
0
VERTEX
8
LOT_POLYLINE
10
249.1813
20
-270.0509
30
0.0
0
SEQEND
0
TEXT
8
SHEET_LABELS
6
ROT_271.03
7
STANDARD
10
30.5249
20
-188.9208
30
0.0
40
3.4
1
N01%%d01'40.00"W
50
271.03
0
TEXT
8
SHEET_LABELS
6
ROT_271.03
7
STANDARD
10
24.5258
20
-189.0284
30
0.0
40
3.2
1
77.25'
50
271.03
0
POINT
8
SHEET_LABELS
10
29.0507
20
-274.0000
30
0.0
0
TEXT
8
SHEET_LABELS
6
ROT_1.03
7
STANDARD
10
136.1191
20
-104.9741
30
0.0
40
3.4
1
N88%%d58'20.00"E
50
1.03
0
TEXT
8
SHEET_LABELS
6
ROT_1.03
7
STANDARD
10
136.0115
20
-98.9751
30
0.0
40
3.2
1
100.00'
50
1.03
0
POINT
8
SHEET_LABELS
10
26.0000
20
-103.9491
30
0.0
0
TEXT
8
SHEET_LABELS
6
ROT_271.03
7
STANDARD
10
250.6554
20
-184.9716
30
0.0
40
3.4
1
S01%%d01'40.00"E
50
271.03
0
TEXT
8
SHEET_LABELS
6
ROT_271.03
7
STANDARD
10
244.6564
20
-185.0792
30
0.0
40
3.2
1
77.25'
50
271.03
0
POINT
8
SHEET_LABELS
10
246.1306
20
-100.0000
30
0.0
0
TEXT
8
SHEET_LABELS
6
ROT_1.03
7
STANDARD
10
139.1698
20
-275.0249
30
0.0
40
3.4
1
S88%%d58'20.00"W
50
1.03
0
TEXT
8
SHEET_LABELS
6
ROT_1.03
7
STANDARD
10
139.0622
20
-269.0259
30
0.0
40
3.2
1
100.00'
50
1.03
0
POINT
8
SHEET_LABELS
10
249.1813
20
-270.0509
30
0.0
0
TEXT
8
SHEET_LABELS
7
STANDARD
10
8.0000
20
-50.0000
30
0.0
40
8.0
1
LOT Blk 13 - Lot 5   PASS
50
0.0
0
TEXT
8
SHEET_LABELS
7
STANDARD
10
8.0000
20
-61.0000
30
0.0
40
4.6
1
AREA 7,725 SF (0.177 ac)
50
0.0
0
TEXT
8
SHEET_LABELS
7
STANDARD
10
8.0000
20
-68.0000
30
0.0
40
4.0
1
PERIMETER 354.50'   VERTICES 4   CLOSING SIDE 0.00'
50
0.0
0
TEXT
8
SHEET_LABELS
7
STANDARD
10
8.0000
20
-75.0000
30
0.0
40
3.4
1
all geometric checks passed: closed single polyline, no self-intersection, no overlap, no spikes
50
0.0
0
LINE
8
SHEET_FRAME
10
340.0000
20
-300.0000
30
0.0
11
640.0000
21
-300.0000
31
0.0
0
LINE
8
SHEET_FRAME
10
640.0000
20
-300.0000
30
0.0
11
640.0000
21
-40.0000
31
0.0
0
LINE
8
SHEET_FRAME
10
640.0000
20
-40.0000
30
0.0
11
340.0000
21
-40.0000
31
0.0
0
LINE
8
SHEET_FRAME
10
340.0000
20
-40.0000
30
0.0
11
340.0000
21
-300.0000
31
0.0
0
POLYLINE
8
LOT_POLYLINE
66
1
70
1
0
VERTEX
8
LOT_POLYLINE
10
369.0507
20
-274.0000
30
0.0
0
VERTEX
8
LOT_POLYLINE
10
366.0000
20
-103.9491
30
0.0
0
VERTEX
8
LOT_POLYLINE
10
586.1306
20
-100.0000
30
0.0
0
VERTEX
8
LOT_POLYLINE
10
589.1813
20
-270.0509
30
0.0
0
SEQEND
0
TEXT
8
SHEET_LABELS
6
ROT_271.03
7
STANDARD
10
370.5249
20
-188.9208
30
0.0
40
3.4
1
N01%%d01'40.00"W
50
271.03
0
TEXT
8
SHEET_LABELS
6
ROT_271.03
7
STANDARD
10
364.5258
20
-189.0284
30
0.0
40
3.2
1
77.25'
50
271.03
0
POINT
8
SHEET_LABELS
10
369.0507
20
-274.0000
30
0.0
0
TEXT
8
SHEET_LABELS
6
ROT_1.03
7
STANDARD
10
476.1191
20
-104.9741
30
0.0
40
3.4
1
N88%%d58'20.00"E
50
1.03
0
TEXT
8
SHEET_LABELS
6
ROT_1.03
7
STANDARD
10
476.0115
20
-98.9751
30
0.0
40
3.2
1
100.00'
50
1.03
0
POINT
8
SHEET_LABELS
10
366.0000
20
-103.9491
30
0.0
0
TEXT
8
SHEET_LABELS
6
ROT_271.03
7
STANDARD
10
590.6554
20
-184.9716
30
0.0
40
3.4
1
S01%%d01'40.00"E
50
271.03
0
TEXT
8
SHEET_LABELS
6
ROT_271.03
7
STANDARD
10
584.6564
20
-185.0792
30
0.0
40
3.2
1
77.25'
50
271.03
0
POINT
8
SHEET_LABELS
10
586.1306
20
-100.0000
30
0.0
0
TEXT
8
SHEET_LABELS
6
ROT_1.03
7
STANDARD
10
479.1698
20
-275.0249
30
0.0
40
3.4
1
S88%%d58'20.00"W
50
1.03
0
TEXT
8
SHEET_LABELS
6
ROT_1.03
7
STANDARD
10
479.0622
20
-269.0259
30
0.0
40
3.2
1
100.00'
50
1.03
0
POINT
8
SHEET_LABELS
10
589.1813
20
-270.0509
30
0.0
0
TEXT
8
SHEET_LABELS
7
STANDARD
10
348.0000
20
-50.0000
30
0.0
40
8.0
1
LOT Blk 13 - Lot 6   PASS
50
0.0
0
TEXT
8
SHEET_LABELS
7
STANDARD
10
348.0000
20
-61.0000
30
0.0
40
4.6
1
AREA 7,725 SF (0.177 ac)
50
0.0
0
TEXT
8
SHEET_LABELS
7
STANDARD
10
348.0000
20
-68.0000
30
0.0
40
4.0
1
PERIMETER 354.50'   VERTICES 4   CLOSING SIDE 0.00'
50
0.0
0
TEXT
8
SHEET_LABELS
7
STANDARD
10
348.0000
20
-75.0000
30
0.0
40
3.4
1
all geometric checks passed: closed single polyline, no self-intersection, no overlap, no spikes
50
0.0
0
LINE
8
SHEET_FRAME
10
680.0000
20
-300.0000
30
0.0
11
980.0000
21
-300.0000
31
0.0
0
LINE
8
SHEET_FRAME
10
980.0000
20
-300.0000
30
0.0
11
980.0000
21
-40.0000
31
0.0
0
LINE
8
SHEET_FRAME
10
980.0000
20
-40.0000
30
0.0
11
680.0000
21
-40.0000
31
0.0
0
LINE
8
SHEET_FRAME
10
680.0000
20
-40.0000
30
0.0
11
680.0000
21
-300.0000
31
0.0
0
POLYLINE
8
LOT_POLYLINE
66
1
70
1
0
VERTEX
8
LOT_POLYLINE
10
709.0507
20
-274.0000
30
0.0
0
VERTEX
8
LOT_POLYLINE
10
706.0000
20
-103.9491
30
0.0
0
VERTEX
8
LOT_POLYLINE
10
926.1306
20
-100.0000
30
0.0
0
VERTEX
8
LOT_POLYLINE
10
929.1813
20
-270.0509
30
0.0
0
SEQEND
0
TEXT
8
SHEET_LABELS
6
ROT_271.03
7
STANDARD
10
710.5249
20
-188.9208
30
0.0
40
3.4
1
N01%%d01'40.00"W
50
271.03
0
TEXT
8
SHEET_LABELS
6
ROT_271.03
7
STANDARD
10
704.5258
20
-189.0284
30
0.0
40
3.2
1
77.25'
50
271.03
0
POINT
8
SHEET_LABELS
10
709.0507
20
-274.0000
30
0.0
0
TEXT
8
SHEET_LABELS
6
ROT_1.03
7
STANDARD
10
816.1191
20
-104.9741
30
0.0
40
3.4
1
N88%%d58'20.00"E
50
1.03
0
TEXT
8
SHEET_LABELS
6
ROT_1.03
7
STANDARD
10
816.0115
20
-98.9751
30
0.0
40
3.2
1
100.00'
50
1.03
0
POINT
8
SHEET_LABELS
10
706.0000
20
-103.9491
30
0.0
0
TEXT
8
SHEET_LABELS
6
ROT_271.03
7
STANDARD
10
930.6554
20
-184.9716
30
0.0
40
3.4
1
S01%%d01'40.00"E
50
271.03
0
TEXT
8
SHEET_LABELS
6
ROT_271.03
7
STANDARD
10
924.6564
20
-185.0792
30
0.0
40
3.2
1
77.25'
50
271.03
0
POINT
8
SHEET_LABELS
10
926.1306
20
-100.0000
30
0.0
0
TEXT
8
SHEET_LABELS
6
ROT_1.03
7
STANDARD
10
819.1698
20
-275.0249
30
0.0
40
3.4
1
S88%%d58'20.00"W
50
1.03
0
TEXT
8
SHEET_LABELS
6
ROT_1.03
7
STANDARD
10
819.0622
20
-269.0259
30
0.0
40
3.2
1
100.00'
50
1.03
0
POINT
8
SHEET_LABELS
10
929.1813
20
-270.0509
30
0.0
0
TEXT
8
SHEET_LABELS
7
STANDARD
10
688.0000
20
-50.0000
30
0.0
40
8.0
1
LOT Blk 13 - Lot 7   PASS
50
0.0
0
TEXT
8
SHEET_LABELS
7
STANDARD
10
688.0000
20
-61.0000
30
0.0
40
4.6
1
AREA 7,725 SF (0.177 ac)
50
0.0
0
TEXT
8
SHEET_LABELS
7
STANDARD
10
688.0000
20
-68.0000
30
0.0
40
4.0
1
PERIMETER 354.50'   VERTICES 4   CLOSING SIDE 0.00'
50
0.0
0
TEXT
8
SHEET_LABELS
7
STANDARD
10
688.0000
20
-75.0000
30
0.0
40
3.4
1
all geometric checks passed: closed single polyline, no self-intersection, no overlap, no spikes
50
0.0
0
LINE
8
SHEET_FRAME
10
1020.0000
20
-300.0000
30
0.0
11
1320.0000
21
-300.0000
31
0.0
0
LINE
8
SHEET_FRAME
10
1320.0000
20
-300.0000
30
0.0
11
1320.0000
21
-40.0000
31
0.0
0
LINE
8
SHEET_FRAME
10
1320.0000
20
-40.0000
30
0.0
11
1020.0000
21
-40.0000
31
0.0
0
LINE
8
SHEET_FRAME
10
1020.0000
20
-40.0000
30
0.0
11
1020.0000
21
-300.0000
31
0.0
0
POLYLINE
8
LOT_POLYLINE
66
1
70
1
0
VERTEX
8
LOT_POLYLINE
10
1049.0507
20
-274.0000
30
0.0
0
VERTEX
8
LOT_POLYLINE
10
1046.0000
20
-103.9491
30
0.0
0
VERTEX
8
LOT_POLYLINE
10
1266.1306
20
-100.0000
30
0.0
0
VERTEX
8
LOT_POLYLINE
10
1269.1813
20
-270.0509
30
0.0
0
SEQEND
0
TEXT
8
SHEET_LABELS
6
ROT_271.03
7
STANDARD
10
1050.5249
20
-188.9208
30
0.0
40
3.4
1
N01%%d01'40.00"W
50
271.03
0
TEXT
8
SHEET_LABELS
6
ROT_271.03
7
STANDARD
10
1044.5258
20
-189.0284
30
0.0
40
3.2
1
77.25'
50
271.03
0
POINT
8
SHEET_LABELS
10
1049.0507
20
-274.0000
30
0.0
0
TEXT
8
SHEET_LABELS
6
ROT_1.03
7
STANDARD
10
1156.1191
20
-104.9741
30
0.0
40
3.4
1
N88%%d58'20.00"E
50
1.03
0
TEXT
8
SHEET_LABELS
6
ROT_1.03
7
STANDARD
10
1156.0115
20
-98.9751
30
0.0
40
3.2
1
100.00'
50
1.03
0
POINT
8
SHEET_LABELS
10
1046.0000
20
-103.9491
30
0.0
0
TEXT
8
SHEET_LABELS
6
ROT_271.03
7
STANDARD
10
1270.6554
20
-184.9716
30
0.0
40
3.4
1
S01%%d01'40.00"E
50
271.03
0
TEXT
8
SHEET_LABELS
6
ROT_271.03
7
STANDARD
10
1264.6564
20
-185.0792
30
0.0
40
3.2
1
77.25'
50
271.03
0
POINT
8
SHEET_LABELS
10
1266.1306
20
-100.0000
30
0.0
0
TEXT
8
SHEET_LABELS
6
ROT_1.03
7
STANDARD
10
1159.1698
20
-275.0249
30
0.0
40
3.4
1
S88%%d58'20.00"W
50
1.03
0
TEXT
8
SHEET_LABELS
6
ROT_1.03
7
STANDARD
10
1159.0622
20
-269.0259
30
0.0
40
3.2
1
100.00'
50
1.03
0
POINT
8
SHEET_LABELS
10
1269.1813
20
-270.0509
30
0.0
0
TEXT
8
SHEET_LABELS
7
STANDARD
10
1028.0000
20
-50.0000
30
0.0
40
8.0
1
LOT Blk 13 - Lot 8   PASS
50
0.0
0
TEXT
8
SHEET_LABELS
7
STANDARD
10
1028.0000
20
-61.0000
30
0.0
40
4.6
1
AREA 7,725 SF (0.177 ac)
50
0.0
0
TEXT
8
SHEET_LABELS
7
STANDARD
10
1028.0000
20
-68.0000
30
0.0
40
4.0
1
PERIMETER 354.50'   VERTICES 4   CLOSING SIDE 0.00'
50
0.0
0
TEXT
8
SHEET_LABELS
7
STANDARD
10
1028.0000
20
-75.0000
30
0.0
40
3.4
1
all geometric checks passed: closed single polyline, no self-intersection, no overlap, no spikes
50
0.0
0
LINE
8
SHEET_FRAME
10
0.0000
20
-600.0000
30
0.0
11
300.0000
21
-600.0000
31
0.0
0
LINE
8
SHEET_FRAME
10
300.0000
20
-600.0000
30
0.0
11
300.0000
21
-340.0000
31
0.0
0
LINE
8
SHEET_FRAME
10
300.0000
20
-340.0000
30
0.0
11
0.0000
21
-340.0000
31
0.0
0
LINE
8
SHEET_FRAME
10
0.0000
20
-340.0000
30
0.0
11
0.0000
21
-600.0000
31
0.0
0
POLYLINE
8
LOT_POLYLINE
66
1
70
1
0
VERTEX
8
LOT_POLYLINE
10
29.0507
20
-574.0000
30
0.0
0
VERTEX
8
LOT_POLYLINE
10
26.0000
20
-403.9491
30
0.0
0
VERTEX
8
LOT_POLYLINE
10
246.1306
20
-400.0000
30
0.0
0
VERTEX
8
LOT_POLYLINE
10
249.1813
20
-570.0509
30
0.0
0
SEQEND
0
TEXT
8
SHEET_LABELS
6
ROT_271.03
7
STANDARD
10
30.5249
20
-488.9208
30
0.0
40
3.4
1
N01%%d01'40.00"W
50
271.03
0
TEXT
8
SHEET_LABELS
6
ROT_271.03
7
STANDARD
10
24.5258
20
-489.0284
30
0.0
40
3.2
1
77.25'
50
271.03
0
POINT
8
SHEET_LABELS
10
29.0507
20
-574.0000
30
0.0
0
TEXT
8
SHEET_LABELS
6
ROT_1.03
7
STANDARD
10
136.1191
20
-404.9741
30
0.0
40
3.4
1
N88%%d58'20.00"E
50
1.03
0
TEXT
8
SHEET_LABELS
6
ROT_1.03
7
STANDARD
10
136.0115
20
-398.9751
30
0.0
40
3.2
1
100.00'
50
1.03
0
POINT
8
SHEET_LABELS
10
26.0000
20
-403.9491
30
0.0
0
TEXT
8
SHEET_LABELS
6
ROT_271.03
7
STANDARD
10
250.6554
20
-484.9716
30
0.0
40
3.4
1
S01%%d01'40.00"E
50
271.03
0
TEXT
8
SHEET_LABELS
6
ROT_271.03
7
STANDARD
10
244.6564
20
-485.0792
30
0.0
40
3.2
1
77.25'
50
271.03
0
POINT
8
SHEET_LABELS
10
246.1306
20
-400.0000
30
0.0
0
TEXT
8
SHEET_LABELS
6
ROT_1.03
7
STANDARD
10
139.1698
20
-575.0249
30
0.0
40
3.4
1
S88%%d58'20.00"W
50
1.03
0
TEXT
8
SHEET_LABELS
6
ROT_1.03
7
STANDARD
10
139.0622
20
-569.0259
30
0.0
40
3.2
1
100.00'
50
1.03
0
POINT
8
SHEET_LABELS
10
249.1813
20
-570.0509
30
0.0
0
TEXT
8
SHEET_LABELS
7
STANDARD
10
8.0000
20
-350.0000
30
0.0
40
8.0
1
LOT Blk 13 - Lot 9   PASS
50
0.0
0
TEXT
8
SHEET_LABELS
7
STANDARD
10
8.0000
20
-361.0000
30
0.0
40
4.6
1
AREA 7,725 SF (0.177 ac)
50
0.0
0
TEXT
8
SHEET_LABELS
7
STANDARD
10
8.0000
20
-368.0000
30
0.0
40
4.0
1
PERIMETER 354.50'   VERTICES 4   CLOSING SIDE 0.00'
50
0.0
0
TEXT
8
SHEET_LABELS
7
STANDARD
10
8.0000
20
-375.0000
30
0.0
40
3.4
1
all geometric checks passed: closed single polyline, no self-intersection, no overlap, no spikes
50
0.0
0
LINE
8
SHEET_FRAME
10
340.0000
20
-600.0000
30
0.0
11
640.0000
21
-600.0000
31
0.0
0
LINE
8
SHEET_FRAME
10
640.0000
20
-600.0000
30
0.0
11
640.0000
21
-340.0000
31
0.0
0
LINE
8
SHEET_FRAME
10
640.0000
20
-340.0000
30
0.0
11
340.0000
21
-340.0000
31
0.0
0
LINE
8
SHEET_FRAME
10
340.0000
20
-340.0000
30
0.0
11
340.0000
21
-600.0000
31
0.0
0
POLYLINE
8
LOT_POLYLINE
66
1
70
1
0
VERTEX
8
LOT_POLYLINE
10
369.0504
20
-574.0000
30
0.0
0
VERTEX
8
LOT_POLYLINE
10
366.0000
20
-403.9657
30
0.0
0
VERTEX
8
LOT_POLYLINE
10
587.0534
20
-400.0000
30
0.0
0
VERTEX
8
LOT_POLYLINE
10
590.1038
20
-570.0343
30
0.0
0
SEQEND
0
TEXT
8
SHEET_LABELS
6
ROT_271.03
7
STANDARD
10
370.5247
20
-488.9290
30
0.0
40
3.4
1
N01%%d01'40.00"W
50
271.03
0
TEXT
8
SHEET_LABELS
6
ROT_271.03
7
STANDARD
10
364.5257
20
-489.0367
30
0.0
40
3.2
1
76.92'
50
271.03
0
POINT
8
SHEET_LABELS
10
369.0504
20
-574.0000
30
0.0
0
TEXT
8
SHEET_LABELS
6
ROT_1.03
7
STANDARD
10
476.5805
20
-404.9824
30
0.0
40
3.4
1
N88%%d58'20.00"E
50
1.03
0
TEXT
8
SHEET_LABELS
6
ROT_1.03
7
STANDARD
10
476.4729
20
-398.9833
30
0.0
40
3.2
1
100.00'
50
1.03
0
POINT
8
SHEET_LABELS
10
366.0000
20
-403.9657
30
0.0
0
TEXT
8
SHEET_LABELS
6
ROT_271.03
7
STANDARD
10
591.5782
20
-484.9633
30
0.0
40
3.4
1
S01%%d01'40.00"E
50
271.03
0
TEXT
8
SHEET_LABELS
6
ROT_271.03
7
STANDARD
10
585.5791
20
-485.0710
30
0.0
40
3.2
1
76.92'
50
271.03
0
POINT
8
SHEET_LABELS
10
587.0534
20
-400.0000
30
0.0
0
TEXT
8
SHEET_LABELS
6
ROT_1.03
7
STANDARD
10
479.6309
20
-575.0167
30
0.0
40
3.4
1
S88%%d58'20.00"W
50
1.03
0
TEXT
8
SHEET_LABELS
6
ROT_1.03
7
STANDARD
10
479.5233
20
-569.0176
30
0.0
40
3.2
1
100.00'
50
1.03
0
POINT
8
SHEET_LABELS
10
590.1038
20
-570.0343
30
0.0
0
TEXT
8
SHEET_LABELS
7
STANDARD
10
348.0000
20
-350.0000
30
0.0
40
8.0
1
LOT Blk 13 - Lot 10   PASS
50
0.0
0
TEXT
8
SHEET_LABELS
7
STANDARD
10
348.0000
20
-361.0000
30
0.0
40
4.6
1
AREA 7,692 SF (0.177 ac)
50
0.0
0
TEXT
8
SHEET_LABELS
7
STANDARD
10
348.0000
20
-368.0000
30
0.0
40
4.0
1
PERIMETER 353.84'   VERTICES 4   CLOSING SIDE 0.00'
50
0.0
0
TEXT
8
SHEET_LABELS
7
STANDARD
10
348.0000
20
-375.0000
30
0.0
40
3.4
1
all geometric checks passed: closed single polyline, no self-intersection, no overlap, no spikes
50
0.0
0
LINE
8
SHEET_FRAME
10
680.0000
20
-600.0000
30
0.0
11
980.0000
21
-600.0000
31
0.0
0
LINE
8
SHEET_FRAME
10
980.0000
20
-600.0000
30
0.0
11
980.0000
21
-340.0000
31
0.0
0
LINE
8
SHEET_FRAME
10
980.0000
20
-340.0000
30
0.0
11
680.0000
21
-340.0000
31
0.0
0
LINE
8
SHEET_FRAME
10
680.0000
20
-340.0000
30
0.0
11
680.0000
21
-600.0000
31
0.0
0
POLYLINE
8
LOT_POLYLINE
66
1
70
1
0
VERTEX
8
LOT_POLYLINE
10
709.0662
20
-574.0000
30
0.0
0
VERTEX
8
LOT_POLYLINE
10
706.0000
20
-403.0841
30
0.0
0
VERTEX
8
LOT_POLYLINE
10
877.9130
20
-400.0000
30
0.0
0
VERTEX
8
LOT_POLYLINE
10
880.2216
20
-528.6870
30
0.0
0
VERTEX
8
LOT_POLYLINE
10
837.7643
20
-572.4401
30
0.0
0
SEQEND
0
POLYLINE
8
LOT_POLYLINE
66
1
70
0
0
VERTEX
8
LOT_POLYLINE
10
880.2216
20
-528.6870
30
0.0
0
VERTEX
8
LOT_POLYLINE
10
880.0890
20
-532.9189
30
0.0
0
VERTEX
8
LOT_POLYLINE
10
879.5407
20
-537.1172
30
0.0
0
VERTEX
8
LOT_POLYLINE
10
878.5820
20
-541.2412
30
0.0
0
VERTEX
8
LOT_POLYLINE
10
877.2222
20
-545.2509
30
0.0
0
VERTEX
8
LOT_POLYLINE
10
875.4746
20
-549.1074
30
0.0
0
VERTEX
8
LOT_POLYLINE
10
873.3561
20
-552.7732
30
0.0
0
VERTEX
8
LOT_POLYLINE
10
870.8872
20
-556.2129
30
0.0
0
VERTEX
8
LOT_POLYLINE
10
868.0918
20
-559.3929
30
0.0
0
VERTEX
8
LOT_POLYLINE
10
864.9972
20
-562.2825
30
0.0
0
VERTEX
8
LOT_POLYLINE
10
861.6333
20
-564.8537
30
0.0
0
VERTEX
8
LOT_POLYLINE
10
858.0328
20
-567.0815
30
0.0
0
VERTEX
8
LOT_POLYLINE
10
854.2306
20
-568.9442
30
0.0
0
VERTEX
8
LOT_POLYLINE
10
850.2636
20
-570.4239
30
0.0
0
VERTEX
8
LOT_POLYLINE
10
846.1703
20
-571.5060
30
0.0
0
VERTEX
8
LOT_POLYLINE
10
841.9903
20
-572.1803
30
0.0
0
VERTEX
8
LOT_POLYLINE
10
837.7643
20
-572.4400
30
0.0
0
SEQEND
0
TEXT
8
SHEET_LABELS
6
ROT_271.03
7
STANDARD
10
710.5326
20
-488.4883
30
0.0
40
3.4
1
N01%%d01'40.00"W
50
271.03
0
TEXT
8
SHEET_LABELS
6
ROT_271.03
7
STANDARD
10
704.5336
20
-488.5959
30
0.0
40
3.2
1
99.42'
50
271.03
0
POINT
8
SHEET_LABELS
10
709.0662
20
-574.0000
30
0.0
0
TEXT
8
SHEET_LABELS
6
ROT_1.03
7
STANDARD
10
792.0103
20
-404.5416
30
0.0
40
3.4
1
N88%%d58'20.00"E
50
1.03
0
TEXT
8
SHEET_LABELS
6
ROT_1.03
7
STANDARD
10
791.9027
20
-398.5425
30
0.0
40
3.2
1
100.00'
50
1.03
0
POINT
8
SHEET_LABELS
10
706.0000
20
-403.0841
30
0.0
0
TEXT
8
SHEET_LABELS
6
ROT_271.03
7
STANDARD
10
882.0668
20
-464.2897
30
0.0
40
3.4
1
S01%%d01'40.00"E
50
271.03
0
TEXT
8
SHEET_LABELS
6
ROT_271.03
7
STANDARD
10
876.0678
20
-464.3973
30
0.0
40
3.2
1
74.86'
50
271.03
0
POINT
8
SHEET_LABELS
10
877.9130
20
-400.0000
30
0.0
0
TEXT
8
SHEET_LABELS
6
ROT_45.86
7
STANDARD
10
861.1459
20
-552.6527
30
0.0
40
3.4
1
S44%%d08'20.00"W
50
45.86
0
TEXT
8
SHEET_LABELS
6
ROT_45.86
7
STANDARD
10
856.8400
20
-548.4743
30
0.0
40
3.2
1
35.46'
50
45.86
0
POINT
8
SHEET_LABELS
10
880.2216
20
-528.6870
30
0.0
0
TEXT
8
SHEET_LABELS
6
ROT_0.69
7
STANDARD
10
773.4516
20
-576.2198
30
0.0
40
3.4
1
S89%%d18'20.00"W
50
0.69
0
TEXT
8
SHEET_LABELS
6
ROT_0.69
7
STANDARD
10
773.3789
20
-570.2202
30
0.0
40
3.2
1
74.86'
50
0.69
0
POINT
8
SHEET_LABELS
10
837.7643
20
-572.4401
30
0.0
0
TEXT
8
SHEET_LABELS
7
STANDARD
10
688.0000
20
-350.0000
30
0.0
40
8.0
1
LOT Blk 13 - Lot 11   PASS
50
0.0
0
TEXT
8
SHEET_LABELS
7
STANDARD
10
688.0000
20
-361.0000
30
0.0
40
4.6
1
AREA 9,835 SF (0.226 ac)
50
0.0
0
TEXT
8
SHEET_LABELS
7
STANDARD
10
688.0000
20
-368.0000
30
0.0
40
4.0
1
PERIMETER 384.59'   VERTICES 5   CLOSING SIDE 0.00'
50
0.0
0
TEXT
8
SHEET_LABELS
7
STANDARD
10
688.0000
20
-375.0000
30
0.0
40
3.4
1
all geometric checks passed: closed single polyline, no self-intersection, no overlap, no spikes
50
0.0
0
ENDSEC
0
EOF
