0
SECTION
2
HEADER
9
$ACADVER
1
AC1009
9
$DWGCODEPAGE
3
ANSI_1252
0
ENDSEC
0
SECTION
2
TABLES
0
TABLE
2
LTYPE
70
6
0
LTYPE
2
CONTINUOUS
70
0
3
Solid
72
65
73
0
40
0.0
0
LTYPE
2
DASHED
70
0
3
Dashed
72
65
73
2
40
0.75
49
0.5
74
0
49
-0.25
74
0
0
LTYPE
2
DASHED2
70
0
3
Dashed (.5x)
72
65
73
2
40
0.375
49
0.25
74
0
49
-0.125
74
0
0
LTYPE
2
HIDDEN
70
0
3
Hidden
72
65
73
2
40
0.375
49
0.25
74
0
49
-0.125
74
0
0
LTYPE
2
CENTER
70
0
3
Center
72
65
73
4
40
2.0
49
1.25
74
0
49
-0.25
74
0
49
0.25
74
0
49
-0.25
74
0
0
LTYPE
2
PHANTOM
70
0
3
Phantom
72
65
73
6
40
2.5
49
1.25
74
0
49
-0.25
74
0
49
0.25
74
0
49
-0.25
74
0
49
0.25
74
0
49
-0.25
74
0
0
ENDTAB
0
TABLE
2
LAYER
70
5
0
LAYER
2
0
70
0
62
7
6
CONTINUOUS
0
LAYER
2
LOT_LINE
70
0
62
4
6
CONTINUOUS
0
LAYER
2
CURVE
70
0
62
6
6
CONTINUOUS
0
LAYER
2
TEXT-LABELS
70
0
62
7
6
CONTINUOUS
0
LAYER
2
TITLEBLOCK
70
0
62
2
6
CONTINUOUS
0
ENDTAB
0
TABLE
2
STYLE
70
4
0
STYLE
2
STANDARD
70
0
40
0.0
41
1.0
50
0.0
71
0
42
0.2
3
Arial
4

0
STYLE
2
ARIAL
70
0
40
0.0
41
1.0
50
0.0
71
0
42
0.2
3
Arial
4

0
STYLE
2
ARIAL_TTF
70
0
40
0.0
41
1.0
50
0.0
71
0
42
0.2
3
arial.ttf
4

0
STYLE
2
SIMPLEX
70
0
40
0.0
41
1.0
50
0.0
71
0
42
0.2
3
simplex.shx
4

0
ENDTAB
0
ENDSEC
0
SECTION
2
ENTITIES
0
LINE
8
LOT_LINE
10
-729.4159
20
-74.4044
30
0.0
11
-802.8632
21
-22.3901
31
0.0
0
POLYLINE
8
CURVE
66
1
70
0
0
VERTEX
8
CURVE
10
-802.8632
20
-22.3901
30
0.0
0
VERTEX
8
CURVE
10
-804.7934
20
-20.8757
30
0.0
0
VERTEX
8
CURVE
10
-806.5658
20
-19.1793
30
0.0
0
VERTEX
8
CURVE
10
-808.1635
20
-17.3174
30
0.0
0
VERTEX
8
CURVE
10
-809.5709
20
-15.3079
30
0.0
0
VERTEX
8
CURVE
10
-810.7746
20
-13.1701
30
0.0
0
VERTEX
8
CURVE
10
-811.7630
20
-10.9246
30
0.0
0
VERTEX
8
CURVE
10
-812.5265
20
-8.5931
30
0.0
0
VERTEX
8
CURVE
10
-813.0578
20
-6.1979
30
0.0
0
VERTEX
8
CURVE
10
-813.3518
20
-3.7622
30
0.0
0
VERTEX
8
CURVE
10
-813.4056
20
-1.3094
30
0.0
0
VERTEX
8
CURVE
10
-813.2187
20
1.1368
30
0.0
0
VERTEX
8
CURVE
10
-812.7930
20
3.5530
30
0.0
0
VERTEX
8
CURVE
10
-812.1325
20
5.9158
30
0.0
0
VERTEX
8
CURVE
10
-811.2436
20
8.2025
30
0.0
0
VERTEX
8
CURVE
10
-810.1348
20
10.3910
30
0.0
0
VERTEX
8
CURVE
10
-808.8168
20
12.4603
30
0.0
0
SEQEND
0
POLYLINE
8
CURVE
66
1
70
0
0
VERTEX
8
CURVE
10
-808.8168
20
12.4603
30
0.0
0
VERTEX
8
CURVE
10
-804.0890
20
18.7482
30
0.0
0
VERTEX
8
CURVE
10
-799.0105
20
24.7563
30
0.0
0
VERTEX
8
CURVE
10
-793.5977
20
30.4651
30
0.0
0
VERTEX
8
CURVE
10
-787.8683
20
35.8561
30
0.0
0
VERTEX
8
CURVE
10
-781.8408
20
40.9117
30
0.0
0
VERTEX
8
CURVE
10
-775.5350
20
45.6155
30
0.0
0
VERTEX
8
CURVE
10
-768.9714
20
49.9522
30
0.0
0
VERTEX
8
CURVE
10
-762.1711
20
53.9077
30
0.0
0
VERTEX
8
CURVE
10
-755.1565
20
57.4691
30
0.0
0
VERTEX
8
CURVE
10
-747.9502
20
60.6249
30
0.0
0
VERTEX
8
CURVE
10
-740.5758
20
63.3647
30
0.0
0
VERTEX
8
CURVE
10
-733.0572
20
65.6797
30
0.0
0
VERTEX
8
CURVE
10
-725.4188
20
67.5624
30
0.0
0
VERTEX
8
CURVE
10
-717.6856
20
69.0066
30
0.0
0
VERTEX
8
CURVE
10
-709.8826
20
70.0076
30
0.0
0
VERTEX
8
CURVE
10
-702.0352
20
70.5621
30
0.0
0
SEQEND
0
LINE
8
LOT_LINE
10
-702.0352
20
70.5621
30
0.0
11
-687.0484
21
71.1924
31
0.0
0
LINE
8
LOT_LINE
10
-687.0484
20
71.1924
30
0.0
11
-683.6401
21
-9.7665
31
0.0
0
LINE
8
LOT_LINE
10
-683.6401
20
-9.7665
30
0.0
11
-729.4159
21
-74.4044
31
0.0
0
TEXT
8
TEXT-LABELS
7
STANDARD
10
-735.6366
20
7.9423
30
0.0
40
8.0
1
1
50
0.0
72
1
11
-735.6366
21
7.9423
31
0.0
73
2
0
TEXT
8
TEXT-LABELS
7
STANDARD
10
-735.6366
20
-4.0577
30
0.0
40
4.0
1
12,445 SF
50
0.0
72
1
11
-735.6366
21
-4.0577
31
0.0
73
2
0
LINE
8
LOT_LINE
10
-687.0484
20
71.1924
30
0.0
11
-587.1368
21
75.3945
31
0.0
0
LINE
8
LOT_LINE
10
-587.1368
20
75.3945
30
0.0
11
-582.9347
21
-24.5171
31
0.0
0
LINE
8
LOT_LINE
10
-582.9347
20
-24.5171
30
0.0
11
-683.6401
21
-9.7665
31
0.0
0
LINE
8
LOT_LINE
10
-683.6401
20
-9.7665
30
0.0
11
-687.0484
21
71.1924
31
0.0
0
TEXT
8
TEXT-LABELS
7
STANDARD
10
-635.1900
20
28.0758
30
0.0
40
8.0
1
2
50
0.0
72
1
11
-635.1900
21
28.0758
31
0.0
73
2
0
TEXT
8
TEXT-LABELS
7
STANDARD
10
-635.1900
20
16.0758
30
0.0
40
4.0
1
9,051 SF
50
0.0
72
1
11
-635.1900
21
16.0758
31
0.0
73
2
0
LINE
8
LOT_LINE
10
-587.1368
20
75.3945
30
0.0
11
-498.7149
21
79.1134
31
0.0
0
LINE
8
LOT_LINE
10
-498.7149
20
79.1134
30
0.0
11
-494.5128
21
-20.7983
31
0.0
0
LINE
8
LOT_LINE
10
-494.5128
20
-20.7983
30
0.0
11
-582.9347
21
-24.5171
31
0.0
0
LINE
8
LOT_LINE
10
-582.9347
20
-24.5171
30
0.0
11
-587.1368
21
75.3945
31
0.0
0
TEXT
8
TEXT-LABELS
7
STANDARD
10
-540.8248
20
27.2981
30
0.0
40
8.0
1
3
50
0.0
72
1
11
-540.8248
21
27.2981
31
0.0
73
2
0
TEXT
8
TEXT-LABELS
7
STANDARD
10
-540.8248
20
15.2981
30
0.0
40
4.0
1
8,850 SF
50
0.0
72
1
11
-540.8248
21
15.2981
31
0.0
73
2
0
LINE
8
LOT_LINE
10
-498.7149
20
79.1134
30
0.0
11
-410.3131
21
82.8314
31
0.0
0
LINE
8
LOT_LINE
10
-410.3131
20
82.8314
30
0.0
11
-406.1110
21
-17.0803
31
0.0
0
LINE
8
LOT_LINE
10
-406.1110
20
-17.0803
30
0.0
11
-494.5128
21
-20.7983
31
0.0
0
LINE
8
LOT_LINE
10
-494.5128
20
-20.7983
30
0.0
11
-498.7149
21
79.1134
31
0.0
0
TEXT
8
TEXT-LABELS
7
STANDARD
10
-452.4129
20
31.0166
30
0.0
40
8.0
1
4
50
0.0
72
1
11
-452.4129
21
31.0166
31
0.0
73
2
0
TEXT
8
TEXT-LABELS
7
STANDARD
10
-452.4129
20
19.0166
30
0.0
40
4.0
1
8,848 SF
50
0.0
72
1
11
-452.4129
21
19.0166
31
0.0
73
2
0
LINE
8
LOT_LINE
10
-410.3131
20
82.8314
30
0.0
11
-321.9112
21
86.5494
31
0.0
0
LINE
8
LOT_LINE
10
-321.9112
20
86.5494
30
0.0
11
-317.7091
21
-13.3622
31
0.0
0
LINE
8
LOT_LINE
10
-317.7091
20
-13.3622
30
0.0
11
-406.1110
21
-17.0803
31
0.0
0
LINE
8
LOT_LINE
10
-406.1110
20
-17.0803
30
0.0
11
-410.3131
21
82.8314
31
0.0
0
TEXT
8
TEXT-LABELS
7
STANDARD
10
-364.0111
20
34.7346
30
0.0
40
8.0
1
5
50
0.0
72
1
11
-364.0111
21
34.7346
31
0.0
73
2
0
TEXT
8
TEXT-LABELS
7
STANDARD
10
-364.0111
20
22.7346
30
0.0
40
4.0
1
8,848 SF
50
0.0
72
1
11
-364.0111
21
22.7346
31
0.0
73
2
0
LINE
8
LOT_LINE
10
-321.9112
20
86.5494
30
0.0
11
-246.9775
21
89.7010
31
0.0
0
LINE
8
LOT_LINE
10
-246.9775
20
89.7010
30
0.0
11
-242.7754
21
-10.2107
31
0.0
0
LINE
8
LOT_LINE
10
-242.7754
20
-10.2107
30
0.0
11
-317.7091
21
-13.3622
31
0.0
0
LINE
8
LOT_LINE
10
-317.7091
20
-13.3622
30
0.0
11
-321.9112
21
86.5494
31
0.0
0
TEXT
8
TEXT-LABELS
7
STANDARD
10
-282.3433
20
38.1694
30
0.0
40
8.0
1
6
50
0.0
72
1
11
-282.3433
21
38.1694
31
0.0
73
2
0
TEXT
8
TEXT-LABELS
7
STANDARD
10
-282.3433
20
26.1694
30
0.0
40
4.0
1
7,500 SF
50
0.0
72
1
11
-282.3433
21
26.1694
31
0.0
73
2
0
LINE
8
LOT_LINE
10
-246.9775
20
89.7010
30
0.0
11
-172.0437
21
92.8526
31
0.0
0
LINE
8
LOT_LINE
10
-172.0437
20
92.8526
30
0.0
11
-167.8416
21
-7.0591
31
0.0
0
LINE
8
LOT_LINE
10
-167.8416
20
-7.0591
30
0.0
11
-242.7754
21
-10.2107
31
0.0
0
LINE
8
LOT_LINE
10
-242.7754
20
-10.2107
30
0.0
11
-246.9775
21
89.7010
31
0.0
0
TEXT
8
TEXT-LABELS
7
STANDARD
10
-207.4095
20
41.3209
30
0.0
40
8.0
1
7
50
0.0
72
1
11
-207.4095
21
41.3209
31
0.0
73
2
0
TEXT
8
TEXT-LABELS
7
STANDARD
10
-207.4095
20
29.3209
30
0.0
40
4.0
1
7,500 SF
50
0.0
72
1
11
-207.4095
21
29.3209
31
0.0
73
2
0
LINE
8
LOT_LINE
10
-172.0437
20
92.8526
30
0.0
11
-97.1100
21
96.0041
31
0.0
0
LINE
8
LOT_LINE
10
-97.1100
20
96.0041
30
0.0
11
-92.9079
21
-3.9075
31
0.0
0
LINE
8
LOT_LINE
10
-92.9079
20
-3.9075
30
0.0
11
-167.8416
21
-7.0591
31
0.0
0
LINE
8
LOT_LINE
10
-167.8416
20
-7.0591
30
0.0
11
-172.0437
21
92.8526
31
0.0
0
TEXT
8
TEXT-LABELS
7
STANDARD
10
-132.4758
20
44.4725
30
0.0
40
8.0
1
8
50
0.0
72
1
11
-132.4758
21
44.4725
31
0.0
73
2
0
TEXT
8
TEXT-LABELS
7
STANDARD
10
-132.4758
20
32.4725
30
0.0
40
4.0
1
7,500 SF
50
0.0
72
1
11
-132.4758
21
32.4725
31
0.0
73
2
0
LINE
8
LOT_LINE
10
-97.1100
20
96.0041
30
0.0
11
-26.9512
21
98.9549
31
0.0
0
POLYLINE
8
CURVE
66
1
70
0
0
VERTEX
8
CURVE
10
-26.9512
20
98.9549
30
0.0
0
VERTEX
8
CURVE
10
-24.4512
20
98.9349
30
0.0
0
VERTEX
8
CURVE
10
-21.9657
20
98.6654
30
0.0
0
VERTEX
8
CURVE
10
-19.5196
20
98.1489
30
0.0
0
VERTEX
8
CURVE
10
-17.1373
20
97.3907
30
0.0
0
VERTEX
8
CURVE
10
-14.8426
20
96.3984
30
0.0
0
VERTEX
8
CURVE
10
-12.6585
20
95.1818
30
0.0
0
VERTEX
8
CURVE
10
-10.6068
20
93.7532
30
0.0
0
VERTEX
8
CURVE
10
-8.7081
20
92.1268
30
0.0
0
VERTEX
8
CURVE
10
-6.9813
20
90.3188
30
0.0
0
VERTEX
8
CURVE
10
-5.4437
20
88.3475
30
0.0
0
VERTEX
8
CURVE
10
-4.1107
20
86.2325
30
0.0
0
VERTEX
8
CURVE
10
-2.9956
20
83.9949
30
0.0
0
VERTEX
8
CURVE
10
-2.1096
20
81.6571
30
0.0
0
VERTEX
8
CURVE
10
-1.4615
20
79.2425
30
0.0
0
VERTEX
8
CURVE
10
-1.0578
20
76.7752
30
0.0
0
VERTEX
8
CURVE
10
-0.9025
20
74.2800
30
0.0
0
SEQEND
0
LINE
8
LOT_LINE
10
-0.9025
20
74.2800
30
0.0
11
0.0000
21
0.0000
31
0.0
0
LINE
8
LOT_LINE
10
0.0000
20
0.0000
30
0.0
11
-92.9079
21
-3.9075
31
0.0
0
LINE
8
LOT_LINE
10
-92.9079
20
-3.9075
30
0.0
11
-97.1100
21
96.0041
31
0.0
0
TEXT
8
TEXT-LABELS
7
STANDARD
10
-43.5743
20
53.0663
30
0.0
40
8.0
1
9
50
0.0
72
1
11
-43.5743
21
53.0663
31
0.0
73
2
0
TEXT
8
TEXT-LABELS
7
STANDARD
10
-43.5743
20
41.0663
30
0.0
40
4.0
1
9,305 SF
50
0.0
72
1
11
-43.5743
21
41.0663
31
0.0
73
2
0
LINE
8
LOT_LINE
10
-92.9079
20
-3.9075
30
0.0
11
0.0000
21
0.0000
31
0.0
0
LINE
8
LOT_LINE
10
0.0000
20
0.0000
30
0.0
11
0.9207
21
-75.7760
31
0.0
0
POLYLINE
8
CURVE
66
1
70
0
0
VERTEX
8
CURVE
10
0.9207
20
-75.7760
30
0.0
0
VERTEX
8
CURVE
10
0.8340
20
-78.1811
30
0.0
0
VERTEX
8
CURVE
10
0.5164
20
-80.5668
30
0.0
0
VERTEX
8
CURVE
10
-0.0291
20
-82.9108
30
0.0
0
VERTEX
8
CURVE
10
-0.7975
20
-85.1916
30
0.0
0
VERTEX
8
CURVE
10
-1.7816
20
-87.3879
30
0.0
0
VERTEX
8
CURVE
10
-2.9723
20
-89.4794
30
0.0
0
VERTEX
8
CURVE
10
-4.3586
20
-91.4467
30
0.0
0
VERTEX
8
CURVE
10
-5.9277
20
-93.2716
30
0.0
0
VERTEX
8
CURVE
10
-7.6650
20
-94.9371
30
0.0
0
VERTEX
8
CURVE
10
-9.5544
20
-96.4279
30
0.0
0
VERTEX
8
CURVE
10
-11.5783
20
-97.7301
30
0.0
0
VERTEX
8
CURVE
10
-13.7182
20
-98.8316
30
0.0
0
VERTEX
8
CURVE
10
-15.9540
20
-99.7223
30
0.0
0
VERTEX
8
CURVE
10
-18.2651
20
-100.3939
30
0.0
0
VERTEX
8
CURVE
10
-20.6301
20
-100.8401
30
0.0
0
VERTEX
8
CURVE
10
-23.0270
20
-101.0569
30
0.0
0
SEQEND
0
LINE
8
LOT_LINE
10
-23.0270
20
-101.0569
30
0.0
11
-88.7058
21
-103.8192
31
0.0
0
LINE
8
LOT_LINE
10
-88.7058
20
-103.8192
30
0.0
11
-92.9079
21
-3.9075
31
0.0
0
TEXT
8
TEXT-LABELS
7
STANDARD
10
-40.7440
20
-56.9119
30
0.0
40
8.0
1
10
50
0.0
72
1
11
-40.7440
21
-56.9119
31
0.0
73
2
0
TEXT
8
TEXT-LABELS
7
STANDARD
10
-40.7440
20
-68.9119
30
0.0
40
4.0
1
9,024 SF
50
0.0
72
1
11
-40.7440
21
-68.9119
31
0.0
73
2
0
LINE
8
LOT_LINE
10
-167.8416
20
-7.0591
30
0.0
11
-92.9079
21
-3.9075
31
0.0
0
LINE
8
LOT_LINE
10
-92.9079
20
-3.9075
30
0.0
11
-88.7058
21
-103.8192
31
0.0
0
LINE
8
LOT_LINE
10
-88.7058
20
-103.8192
30
0.0
11
-163.6395
21
-106.9708
31
0.0
0
LINE
8
LOT_LINE
10
-163.6395
20
-106.9708
30
0.0
11
-167.8416
21
-7.0591
31
0.0
0
TEXT
8
TEXT-LABELS
7
STANDARD
10
-128.2737
20
-55.4392
30
0.0
40
8.0
1
11
50
0.0
72
1
11
-128.2737
21
-55.4392
31
0.0
73
2
0
TEXT
8
TEXT-LABELS
7
STANDARD
10
-128.2737
20
-67.4392
30
0.0
40
4.0
1
7,500 SF
50
0.0
72
1
11
-128.2737
21
-67.4392
31
0.0
73
2
0
LINE
8
LOT_LINE
10
-242.7754
20
-10.2107
30
0.0
11
-167.8416
21
-7.0591
31
0.0
0
LINE
8
LOT_LINE
10
-167.8416
20
-7.0591
30
0.0
11
-163.6395
21
-106.9708
31
0.0
0
LINE
8
LOT_LINE
10
-163.6395
20
-106.9708
30
0.0
11
-238.5733
21
-110.1223
31
0.0
0
LINE
8
LOT_LINE
10
-238.5733
20
-110.1223
30
0.0
11
-242.7754
21
-10.2107
31
0.0
0
TEXT
8
TEXT-LABELS
7
STANDARD
10
-203.2074
20
-58.5907
30
0.0
40
8.0
1
12
50
0.0
72
1
11
-203.2074
21
-58.5907
31
0.0
73
2
0
TEXT
8
TEXT-LABELS
7
STANDARD
10
-203.2074
20
-70.5907
30
0.0
40
4.0
1
7,500 SF
50
0.0
72
1
11
-203.2074
21
-70.5907
31
0.0
73
2
0
LINE
8
LOT_LINE
10
-317.7091
20
-13.3622
30
0.0
11
-242.7754
21
-10.2107
31
0.0
0
LINE
8
LOT_LINE
10
-242.7754
20
-10.2107
30
0.0
11
-238.5733
21
-110.1223
31
0.0
0
LINE
8
LOT_LINE
10
-238.5733
20
-110.1223
30
0.0
11
-313.5070
21
-113.2739
31
0.0
0
LINE
8
LOT_LINE
10
-313.5070
20
-113.2739
30
0.0
11
-317.7091
21
-13.3622
31
0.0
0
TEXT
8
TEXT-LABELS
7
STANDARD
10
-278.1412
20
-61.7423
30
0.0
40
8.0
1
13
50
0.0
72
1
11
-278.1412
21
-61.7423
31
0.0
73
2
0
TEXT
8
TEXT-LABELS
7
STANDARD
10
-278.1412
20
-73.7423
30
0.0
40
4.0
1
7,500 SF
50
0.0
72
1
11
-278.1412
21
-73.7423
31
0.0
73
2
0
LINE
8
LOT_LINE
10
-392.6429
20
-16.5138
30
0.0
11
-317.7091
21
-13.3622
31
0.0
0
LINE
8
LOT_LINE
10
-317.7091
20
-13.3622
30
0.0
11
-313.5070
21
-113.2739
31
0.0
0
LINE
8
LOT_LINE
10
-313.5070
20
-113.2739
30
0.0
11
-388.4408
21
-116.4255
31
0.0
0
LINE
8
LOT_LINE
10
-388.4408
20
-116.4255
30
0.0
11
-392.6429
21
-16.5138
31
0.0
0
TEXT
8
TEXT-LABELS
7
STANDARD
10
-353.0750
20
-64.8939
30
0.0
40
8.0
1
14
50
0.0
72
1
11
-353.0750
21
-64.8939
31
0.0
73
2
0
TEXT
8
TEXT-LABELS
7
STANDARD
10
-353.0750
20
-76.8939
30
0.0
40
4.0
1
7,500 SF
50
0.0
72
1
11
-353.0750
21
-76.8939
31
0.0
73
2
0
LINE
8
LOT_LINE
10
-467.5766
20
-19.6654
30
0.0
11
-392.6429
21
-16.5138
31
0.0
0
LINE
8
LOT_LINE
10
-392.6429
20
-16.5138
30
0.0
11
-388.4408
21
-116.4255
31
0.0
0
POLYLINE
8
CURVE
66
1
70
0
0
VERTEX
8
CURVE
10
-388.4408
20
-116.4255
30
0.0
0
VERTEX
8
CURVE
10
-393.1771
20
-116.6885
30
0.0
0
VERTEX
8
CURVE
10
-397.9044
20
-117.0805
30
0.0
0
VERTEX
8
CURVE
10
-402.6193
20
-117.6014
30
0.0
0
VERTEX
8
CURVE
10
-407.3182
20
-118.2506
30
0.0
0
VERTEX
8
CURVE
10
-411.9977
20
-119.0277
30
0.0
0
VERTEX
8
CURVE
10
-416.6543
20
-119.9321
30
0.0
0
VERTEX
8
CURVE
10
-421.2844
20
-120.9632
30
0.0
0
VERTEX
8
CURVE
10
-425.8847
20
-122.1202
30
0.0
0
VERTEX
8
CURVE
10
-430.4518
20
-123.4022
30
0.0
0
VERTEX
8
CURVE
10
-434.9822
20
-124.8082
30
0.0
0
VERTEX
8
CURVE
10
-439.4725
20
-126.3373
30
0.0
0
VERTEX
8
CURVE
10
-443.9195
20
-127.9883
30
0.0
0
VERTEX
8
CURVE
10
-448.3198
20
-129.7599
30
0.0
0
VERTEX
8
CURVE
10
-452.6702
20
-131.6509
30
0.0
0
VERTEX
8
CURVE
10
-456.9674
20
-133.6597
30
0.0
0
VERTEX
8
CURVE
10
-461.2082
20
-135.7851
30
0.0
0
SEQEND
0
LINE
8
LOT_LINE
10
-461.2082
20
-135.7851
30
0.0
11
-467.5766
21
-19.6654
31
0.0
0
TEXT
8
TEXT-LABELS
7
STANDARD
10
-427.4671
20
-72.0974
30
0.0
40
8.0
1
15
50
0.0
72
1
11
-427.4671
21
-72.0974
31
0.0
73
2
0
TEXT
8
TEXT-LABELS
7
STANDARD
10
-427.4671
20
-84.0974
30
0.0
40
4.0
1
7,829 SF
50
0.0
72
1
11
-427.4671
21
-84.0974
31
0.0
73
2
0
LINE
8
LOT_LINE
10
-542.5104
20
-22.8170
30
0.0
11
-467.5766
21
-19.6654
31
0.0
0
LINE
8
LOT_LINE
10
-467.5766
20
-19.6654
30
0.0
11
-461.2082
21
-135.7851
31
0.0
0
POLYLINE
8
CURVE
66
1
70
0
0
VERTEX
8
CURVE
10
-461.2082
20
-135.7851
30
0.0
0
VERTEX
8
CURVE
10
-465.7679
20
-138.2362
30
0.0
0
VERTEX
8
CURVE
10
-470.2526
20
-140.8220
30
0.0
0
VERTEX
8
CURVE
10
-474.6584
20
-143.5400
30
0.0
0
VERTEX
8
CURVE
10
-478.9813
20
-146.3880
30
0.0
0
VERTEX
8
CURVE
10
-483.2176
20
-149.3634
30
0.0
0
VERTEX
8
CURVE
10
-487.3634
20
-152.4635
30
0.0
0
VERTEX
8
CURVE
10
-491.4152
20
-155.6856
30
0.0
0
VERTEX
8
CURVE
10
-495.3692
20
-159.0269
30
0.0
0
VERTEX
8
CURVE
10
-499.2221
20
-162.4844
30
0.0
0
VERTEX
8
CURVE
10
-502.9704
20
-166.0550
30
0.0
0
VERTEX
8
CURVE
10
-506.6107
20
-169.7356
30
0.0
0
VERTEX
8
CURVE
10
-510.1399
20
-173.5229
30
0.0
0
VERTEX
8
CURVE
10
-513.5548
20
-177.4135
30
0.0
0
VERTEX
8
CURVE
10
-516.8525
20
-181.4040
30
0.0
0
VERTEX
8
CURVE
10
-520.0299
20
-185.4910
30
0.0
0
VERTEX
8
CURVE
10
-523.0843
20
-189.6706
30
0.0
0
SEQEND
0
LINE
8
LOT_LINE
10
-523.0843
20
-189.6706
30
0.0
11
-542.5104
21
-22.8170
31
0.0
0
TEXT
8
TEXT-LABELS
7
STANDARD
10
-498.5949
20
-91.9845
30
0.0
40
8.0
1
16
50
0.0
72
1
11
-498.5949
21
-91.9845
31
0.0
73
2
0
TEXT
8
TEXT-LABELS
7
STANDARD
10
-498.5949
20
-103.9845
30
0.0
40
4.0
1
9,777 SF
50
0.0
72
1
11
-498.5949
21
-103.9845
31
0.0
73
2
0
LINE
8
LOT_LINE
10
-582.9347
20
-24.5171
30
0.0
11
-542.5104
21
-22.8170
31
0.0
0
LINE
8
LOT_LINE
10
-542.5104
20
-22.8170
30
0.0
11
-523.0843
21
-189.6706
31
0.0
0
LINE
8
LOT_LINE
10
-523.0843
20
-189.6706
30
0.0
11
-523.1883
21
-189.8175
31
0.0
0
POLYLINE
8
CURVE
66
1
70
0
0
VERTEX
8
CURVE
10
-523.1883
20
-189.8175
30
0.0
0
VERTEX
8
CURVE
10
-524.7027
20
-191.7477
30
0.0
0
VERTEX
8
CURVE
10
-526.3991
20
-193.5201
30
0.0
0
VERTEX
8
CURVE
10
-528.2609
20
-195.1178
30
0.0
0
VERTEX
8
CURVE
10
-530.2705
20
-196.5252
30
0.0
0
VERTEX
8
CURVE
10
-532.4083
20
-197.7289
30
0.0
0
VERTEX
8
CURVE
10
-534.6538
20
-198.7173
30
0.0
0
VERTEX
8
CURVE
10
-536.9853
20
-199.4808
30
0.0
0
VERTEX
8
CURVE
10
-539.3805
20
-200.0121
30
0.0
0
VERTEX
8
CURVE
10
-541.8162
20
-200.3061
30
0.0
0
VERTEX
8
CURVE
10
-544.2690
20
-200.3599
30
0.0
0
VERTEX
8
CURVE
10
-546.7152
20
-200.1730
30
0.0
0
VERTEX
8
CURVE
10
-549.1314
20
-199.7473
30
0.0
0
VERTEX
8
CURVE
10
-551.4942
20
-199.0868
30
0.0
0
VERTEX
8
CURVE
10
-553.7809
20
-198.1979
30
0.0
0
VERTEX
8
CURVE
10
-555.9694
20
-197.0891
30
0.0
0
VERTEX
8
CURVE
10
-558.0387
20
-195.7711
30
0.0
0
SEQEND
0
LINE
8
LOT_LINE
10
-558.0387
20
-195.7711
30
0.0
11
-639.6469
21
-137.9775
31
0.0
0
LINE
8
LOT_LINE
10
-639.6469
20
-137.9775
30
0.0
11
-582.9347
21
-24.5171
31
0.0
0
TEXT
8
TEXT-LABELS
7
STANDARD
10
-561.5672
20
-126.7618
30
0.0
40
8.0
1
17
50
0.0
72
1
11
-561.5672
21
-126.7618
31
0.0
73
2
0
TEXT
8
TEXT-LABELS
7
STANDARD
10
-561.5672
20
-138.7618
30
0.0
40
4.0
1
12,907 SF
50
0.0
72
1
11
-561.5672
21
-138.7618
31
0.0
73
2
0
LINE
8
LOT_LINE
10
-729.4159
20
-74.4044
30
0.0
11
-683.6401
21
-9.7665
31
0.0
0
LINE
8
LOT_LINE
10
-683.6401
20
-9.7665
30
0.0
11
-582.9347
21
-24.5171
31
0.0
0
LINE
8
LOT_LINE
10
-582.9347
20
-24.5171
30
0.0
11
-639.6469
21
-137.9775
31
0.0
0
LINE
8
LOT_LINE
10
-639.6469
20
-137.9775
30
0.0
11
-729.4159
21
-74.4044
31
0.0
0
TEXT
8
TEXT-LABELS
7
STANDARD
10
-658.9094
20
-61.6664
30
0.0
40
8.0
1
18
50
0.0
72
1
11
-658.9094
21
-61.6664
31
0.0
73
2
0
TEXT
8
TEXT-LABELS
7
STANDARD
10
-658.9094
20
-73.6664
30
0.0
40
4.0
1
10,488 SF
50
0.0
72
1
11
-658.9094
21
-73.6664
31
0.0
73
2
0
TEXT
8
TITLEBLOCK
7
STANDARD
10
-650.0000
20
180.0000
30
0.0
40
12.0
1
BEACHWOOD UNIT TWO -- BLOCK 15 (LOTS 1-18)  PB 30 PG 82A
50
0.0
0
ENDSEC
0
EOF
