0
SECTION
2
HEADER
0
ENDSEC
0
SECTION
2
TABLES
0
TABLE
2
LTYPE
70
2
0
LTYPE
2
CONTINUOUS
70
0
3
Solid
72
65
73
0
40
0.0
0
LTYPE
2
DASHED
70
0
3
Dashed
72
65
73
2
40
0.75
49
0.5
74
0
49
-0.25
74
0
0
ENDTAB
0
TABLE
2
LAYER
70
6
0
LAYER
2
0
70
0
62
7
6
CONTINUOUS
0
LAYER
2
LOT_POLYLINE
70
0
62
4
6
CONTINUOUS
0
LAYER
2
ERROR
70
0
62
1
6
CONTINUOUS
0
LAYER
2
SHEET_LABELS
70
0
62
7
6
CONTINUOUS
0
LAYER
2
SHEET_FRAME
70
0
62
8
6
CONTINUOUS
0
LAYER
2
TITLEBLOCK
70
0
62
2
6
CONTINUOUS
0
ENDTAB
0
ENDSEC
0
SECTION
2
ENTITIES
0
LINE
8
SHEET_FRAME
10
0.0000
20
0.0000
30
0.0
11
300.0000
21
0.0000
31
0.0
0
LINE
8
SHEET_FRAME
10
300.0000
20
0.0000
30
0.0
11
300.0000
21
260.0000
31
0.0
0
LINE
8
SHEET_FRAME
10
300.0000
20
260.0000
30
0.0
11
0.0000
21
260.0000
31
0.0
0
LINE
8
SHEET_FRAME
10
0.0000
20
260.0000
30
0.0
11
0.0000
21
0.0000
31
0.0
0
POLYLINE
8
LOT_POLYLINE
66
1
70
1
0
VERTEX
8
LOT_POLYLINE
10
26.0000
20
199.4743
30
0.0
0
VERTEX
8
LOT_POLYLINE
10
98.2810
20
200.0000
30
0.0
0
VERTEX
8
LOT_POLYLINE
10
99.5425
20
26.5257
30
0.0
0
VERTEX
8
LOT_POLYLINE
10
27.2616
20
26.0000
30
0.0
0
SEQEND
0
TEXT
8
SHEET_LABELS
10
62.1623
20
196.7373
30
0.0
40
3.4
1
N89°35'00.00"E
50
0.4166666666667851
0
TEXT
8
SHEET_LABELS
10
62.1187
20
202.7371
30
0.0
40
3.2
1
50.00'
50
0.4166666666667851
0
POINT
8
SHEET_LABELS
10
26.0000
20
199.4743
30
0.0
0
TEXT
8
SHEET_LABELS
10
101.9117
20
113.2846
30
0.0
40
3.4
1
S00°25'00.00"E
50
270.41666666666663
0
TEXT
8
SHEET_LABELS
10
95.9118
20
113.2410
30
0.0
40
3.2
1
120.00'
50
270.41666666666663
0
POINT
8
SHEET_LABELS
10
98.2810
20
200.0000
30
0.0
0
TEXT
8
SHEET_LABELS
10
63.4239
20
23.2629
30
0.0
40
3.4
1
S89°35'00.00"W
50
0.4166666666667993
0
TEXT
8
SHEET_LABELS
10
63.3802
20
29.2627
30
0.0
40
3.2
1
50.00'
50
0.4166666666667993
0
POINT
8
SHEET_LABELS
10
99.5425
20
26.5257
30
0.0
0
TEXT
8
SHEET_LABELS
10
29.6307
20
112.7590
30
0.0
40
3.4
1
N00°25'00.00"W
50
270.41666666666663
0
TEXT
8
SHEET_LABELS
10
23.6309
20
112.7154
30
0.0
40
3.2
1
120.00'
50
270.41666666666663
0
POINT
8
SHEET_LABELS
10
27.2616
20
26.0000
30
0.0
0
TEXT
8
SHEET_LABELS
10
8.0000
20
250.0000
30
0.0
40
8.0
1
LOT B1-Lot1   PASS
50
0.0
0
TEXT
8
SHEET_LABELS
10
8.0000
20
239.0000
30
0.0
40
4.6
1
AREA 6,000 SF (0.138 ac)
50
0.0
0
TEXT
8
SHEET_LABELS
10
8.0000
20
232.0000
30
0.0
40
4.0
1
PERIMETER 340.00'   VERTICES 4   CLOSING SIDE 120.00'
50
0.0
0
TEXT
8
SHEET_LABELS
10
8.0000
20
225.0000
30
0.0
40
3.4
1
all geometric checks passed: closed single polyline, no self-intersection, no overlap, no spikes
50
0.0
0
LINE
8
SHEET_FRAME
10
320.0000
20
0.0000
30
0.0
11
620.0000
21
0.0000
31
0.0
0
LINE
8
SHEET_FRAME
10
620.0000
20
0.0000
30
0.0
11
620.0000
21
260.0000
31
0.0
0
LINE
8
SHEET_FRAME
10
620.0000
20
260.0000
30
0.0
11
320.0000
21
260.0000
31
0.0
0
LINE
8
SHEET_FRAME
10
320.0000
20
260.0000
30
0.0
11
320.0000
21
0.0000
31
0.0
0
POLYLINE
8
LOT_POLYLINE
66
1
70
1
0
VERTEX
8
LOT_POLYLINE
10
346.0000
20
199.4743
30
0.0
0
VERTEX
8
LOT_POLYLINE
10
418.2810
20
200.0000
30
0.0
0
VERTEX
8
LOT_POLYLINE
10
419.5425
20
26.5257
30
0.0
0
VERTEX
8
LOT_POLYLINE
10
347.2616
20
26.0000
30
0.0
0
SEQEND
0
TEXT
8
SHEET_LABELS
10
382.1623
20
196.7373
30
0.0
40
3.4
1
N89°35'00.00"E
50
0.4166666666665293
0
TEXT
8
SHEET_LABELS
10
382.1187
20
202.7371
30
0.0
40
3.2
1
50.00'
50
0.4166666666665293
0
POINT
8
SHEET_LABELS
10
346.0000
20
199.4743
30
0.0
0
TEXT
8
SHEET_LABELS
10
421.9117
20
113.2846
30
0.0
40
3.4
1
S00°25'00.00"E
50
270.41666666666663
0
TEXT
8
SHEET_LABELS
10
415.9118
20
113.2410
30
0.0
40
3.2
1
120.00'
50
270.41666666666663
0
POINT
8
SHEET_LABELS
10
418.2810
20
200.0000
30
0.0
0
TEXT
8
SHEET_LABELS
10
383.4239
20
23.2629
30
0.0
40
3.4
1
S89°35'00.00"W
50
0.4166666666665151
0
TEXT
8
SHEET_LABELS
10
383.3802
20
29.2627
30
0.0
40
3.2
1
50.00'
50
0.4166666666665151
0
POINT
8
SHEET_LABELS
10
419.5425
20
26.5257
30
0.0
0
TEXT
8
SHEET_LABELS
10
349.6307
20
112.7590
30
0.0
40
3.4
1
N00°25'00.00"W
50
270.41666666666663
0
TEXT
8
SHEET_LABELS
10
343.6309
20
112.7154
30
0.0
40
3.2
1
120.00'
50
270.41666666666663
0
POINT
8
SHEET_LABELS
10
347.2616
20
26.0000
30
0.0
0
TEXT
8
SHEET_LABELS
10
328.0000
20
250.0000
30
0.0
40
8.0
1
LOT B1-Lot2   PASS
50
0.0
0
TEXT
8
SHEET_LABELS
10
328.0000
20
239.0000
30
0.0
40
4.6
1
AREA 6,000 SF (0.138 ac)
50
0.0
0
TEXT
8
SHEET_LABELS
10
328.0000
20
232.0000
30
0.0
40
4.0
1
PERIMETER 340.00'   VERTICES 4   CLOSING SIDE 120.00'
50
0.0
0
TEXT
8
SHEET_LABELS
10
328.0000
20
225.0000
30
0.0
40
3.4
1
all geometric checks passed: closed single polyline, no self-intersection, no overlap, no spikes
50
0.0
0
LINE
8
SHEET_FRAME
10
640.0000
20
0.0000
30
0.0
11
940.0000
21
0.0000
31
0.0
0
LINE
8
SHEET_FRAME
10
940.0000
20
0.0000
30
0.0
11
940.0000
21
260.0000
31
0.0
0
LINE
8
SHEET_FRAME
10
940.0000
20
260.0000
30
0.0
11
640.0000
21
260.0000
31
0.0
0
LINE
8
SHEET_FRAME
10
640.0000
20
260.0000
30
0.0
11
640.0000
21
0.0000
31
0.0
0
POLYLINE
8
LOT_POLYLINE
66
1
70
1
0
VERTEX
8
LOT_POLYLINE
10
666.0000
20
199.4743
30
0.0
0
VERTEX
8
LOT_POLYLINE
10
738.2810
20
200.0000
30
0.0
0
VERTEX
8
LOT_POLYLINE
10
739.5425
20
26.5257
30
0.0
0
VERTEX
8
LOT_POLYLINE
10
667.2616
20
26.0000
30
0.0
0
SEQEND
0
TEXT
8
SHEET_LABELS
10
702.1623
20
196.7373
30
0.0
40
3.4
1
N89°35'00.00"E
50
0.4166666666667851
0
TEXT
8
SHEET_LABELS
10
702.1187
20
202.7371
30
0.0
40
3.2
1
50.00'
50
0.4166666666667851
0
POINT
8
SHEET_LABELS
10
666.0000
20
199.4743
30
0.0
0
TEXT
8
SHEET_LABELS
10
741.9117
20
113.2846
30
0.0
40
3.4
1
S00°25'00.00"E
50
270.41666666666663
0
TEXT
8
SHEET_LABELS
10
735.9118
20
113.2410
30
0.0
40
3.2
1
120.00'
50
270.41666666666663
0
POINT
8
SHEET_LABELS
10
738.2810
20
200.0000
30
0.0
0
TEXT
8
SHEET_LABELS
10
703.4239
20
23.2629
30
0.0
40
3.4
1
S89°35'00.00"W
50
0.4166666666667993
0
TEXT
8
SHEET_LABELS
10
703.3802
20
29.2627
30
0.0
40
3.2
1
50.00'
50
0.4166666666667993
0
POINT
8
SHEET_LABELS
10
739.5425
20
26.5257
30
0.0
0
TEXT
8
SHEET_LABELS
10
669.6307
20
112.7590
30
0.0
40
3.4
1
N00°25'00.00"W
50
270.41666666666663
0
TEXT
8
SHEET_LABELS
10
663.6309
20
112.7154
30
0.0
40
3.2
1
120.00'
50
270.41666666666663
0
POINT
8
SHEET_LABELS
10
667.2616
20
26.0000
30
0.0
0
TEXT
8
SHEET_LABELS
10
648.0000
20
250.0000
30
0.0
40
8.0
1
LOT B1-Lot3   PASS
50
0.0
0
TEXT
8
SHEET_LABELS
10
648.0000
20
239.0000
30
0.0
40
4.6
1
AREA 6,000 SF (0.138 ac)
50
0.0
0
TEXT
8
SHEET_LABELS
10
648.0000
20
232.0000
30
0.0
40
4.0
1
PERIMETER 340.00'   VERTICES 4   CLOSING SIDE 120.00'
50
0.0
0
TEXT
8
SHEET_LABELS
10
648.0000
20
225.0000
30
0.0
40
3.4
1
all geometric checks passed: closed single polyline, no self-intersection, no overlap, no spikes
50
0.0
0
LINE
8
SHEET_FRAME
10
960.0000
20
0.0000
30
0.0
11
1260.0000
21
0.0000
31
0.0
0
LINE
8
SHEET_FRAME
10
1260.0000
20
0.0000
30
0.0
11
1260.0000
21
260.0000
31
0.0
0
LINE
8
SHEET_FRAME
10
1260.0000
20
260.0000
30
0.0
11
960.0000
21
260.0000
31
0.0
0
LINE
8
SHEET_FRAME
10
960.0000
20
260.0000
30
0.0
11
960.0000
21
0.0000
31
0.0
0
POLYLINE
8
LOT_POLYLINE
66
1
70
1
0
VERTEX
8
LOT_POLYLINE
10
986.0000
20
199.4743
30
0.0
0
VERTEX
8
LOT_POLYLINE
10
1058.2810
20
200.0000
30
0.0
0
VERTEX
8
LOT_POLYLINE
10
1059.5425
20
26.5257
30
0.0
0
VERTEX
8
LOT_POLYLINE
10
987.2616
20
26.0000
30
0.0
0
SEQEND
0
TEXT
8
SHEET_LABELS
10
1022.1623
20
196.7373
30
0.0
40
3.4
1
N89°35'00.00"E
50
0.4166666666665293
0
TEXT
8
SHEET_LABELS
10
1022.1187
20
202.7371
30
0.0
40
3.2
1
50.00'
50
0.4166666666665293
0
POINT
8
SHEET_LABELS
10
986.0000
20
199.4743
30
0.0
0
TEXT
8
SHEET_LABELS
10
1061.9117
20
113.2846
30
0.0
40
3.4
1
S00°25'00.00"E
50
270.4166666666667
0
TEXT
8
SHEET_LABELS
10
1055.9118
20
113.2410
30
0.0
40
3.2
1
120.00'
50
270.4166666666667
0
POINT
8
SHEET_LABELS
10
1058.2810
20
200.0000
30
0.0
0
TEXT
8
SHEET_LABELS
10
1023.4239
20
23.2629
30
0.0
40
3.4
1
S89°35'00.00"W
50
0.4166666666665151
0
TEXT
8
SHEET_LABELS
10
1023.3802
20
29.2627
30
0.0
40
3.2
1
50.00'
50
0.4166666666665151
0
POINT
8
SHEET_LABELS
10
1059.5425
20
26.5257
30
0.0
0
TEXT
8
SHEET_LABELS
10
989.6307
20
112.7590
30
0.0
40
3.4
1
N00°25'00.00"W
50
270.41666666666663
0
TEXT
8
SHEET_LABELS
10
983.6309
20
112.7154
30
0.0
40
3.2
1
120.00'
50
270.41666666666663
0
POINT
8
SHEET_LABELS
10
987.2616
20
26.0000
30
0.0
0
TEXT
8
SHEET_LABELS
10
968.0000
20
250.0000
30
0.0
40
8.0
1
LOT B1-Lot4   PASS
50
0.0
0
TEXT
8
SHEET_LABELS
10
968.0000
20
239.0000
30
0.0
40
4.6
1
AREA 6,000 SF (0.138 ac)
50
0.0
0
TEXT
8
SHEET_LABELS
10
968.0000
20
232.0000
30
0.0
40
4.0
1
PERIMETER 340.00'   VERTICES 4   CLOSING SIDE 120.00'
50
0.0
0
TEXT
8
SHEET_LABELS
10
968.0000
20
225.0000
30
0.0
40
3.4
1
all geometric checks passed: closed single polyline, no self-intersection, no overlap, no spikes
50
0.0
0
LINE
8
SHEET_FRAME
10
1280.0000
20
0.0000
30
0.0
11
1580.0000
21
0.0000
31
0.0
0
LINE
8
SHEET_FRAME
10
1580.0000
20
0.0000
30
0.0
11
1580.0000
21
260.0000
31
0.0
0
LINE
8
SHEET_FRAME
10
1580.0000
20
260.0000
30
0.0
11
1280.0000
21
260.0000
31
0.0
0
LINE
8
SHEET_FRAME
10
1280.0000
20
260.0000
30
0.0
11
1280.0000
21
0.0000
31
0.0
0
POLYLINE
8
LOT_POLYLINE
66
1
70
1
0
VERTEX
8
LOT_POLYLINE
10
1306.0000
20
199.4743
30
0.0
0
VERTEX
8
LOT_POLYLINE
10
1378.2810
20
200.0000
30
0.0
0
VERTEX
8
LOT_POLYLINE
10
1379.5425
20
26.5257
30
0.0
0
VERTEX
8
LOT_POLYLINE
10
1307.2616
20
26.0000
30
0.0
0
SEQEND
0
TEXT
8
SHEET_LABELS
10
1342.1623
20
196.7373
30
0.0
40
3.4
1
N89°35'00.00"E
50
0.4166666666667851
0
TEXT
8
SHEET_LABELS
10
1342.1187
20
202.7371
30
0.0
40
3.2
1
50.00'
50
0.4166666666667851
0
POINT
8
SHEET_LABELS
10
1306.0000
20
199.4743
30
0.0
0
TEXT
8
SHEET_LABELS
10
1381.9117
20
113.2846
30
0.0
40
3.4
1
S00°25'00.00"E
50
270.4166666666667
0
TEXT
8
SHEET_LABELS
10
1375.9118
20
113.2410
30
0.0
40
3.2
1
120.00'
50
270.4166666666667
0
POINT
8
SHEET_LABELS
10
1378.2810
20
200.0000
30
0.0
0
TEXT
8
SHEET_LABELS
10
1343.4239
20
23.2629
30
0.0
40
3.4
1
S89°35'00.00"W
50
0.4166666666667993
0
TEXT
8
SHEET_LABELS
10
1343.3802
20
29.2627
30
0.0
40
3.2
1
50.00'
50
0.4166666666667993
0
POINT
8
SHEET_LABELS
10
1379.5425
20
26.5257
30
0.0
0
TEXT
8
SHEET_LABELS
10
1309.6307
20
112.7590
30
0.0
40
3.4
1
N00°25'00.00"W
50
270.4166666666667
0
TEXT
8
SHEET_LABELS
10
1303.6309
20
112.7154
30
0.0
40
3.2
1
120.00'
50
270.4166666666667
0
POINT
8
SHEET_LABELS
10
1307.2616
20
26.0000
30
0.0
0
TEXT
8
SHEET_LABELS
10
1288.0000
20
250.0000
30
0.0
40
8.0
1
LOT B1-Lot5   PASS
50
0.0
0
TEXT
8
SHEET_LABELS
10
1288.0000
20
239.0000
30
0.0
40
4.6
1
AREA 6,000 SF (0.138 ac)
50
0.0
0
TEXT
8
SHEET_LABELS
10
1288.0000
20
232.0000
30
0.0
40
4.0
1
PERIMETER 340.00'   VERTICES 4   CLOSING SIDE 120.00'
50
0.0
0
TEXT
8
SHEET_LABELS
10
1288.0000
20
225.0000
30
0.0
40
3.4
1
all geometric checks passed: closed single polyline, no self-intersection, no overlap, no spikes
50
0.0
0
LINE
8
SHEET_FRAME
10
0.0000
20
-280.0000
30
0.0
11
300.0000
21
-280.0000
31
0.0
0
LINE
8
SHEET_FRAME
10
300.0000
20
-280.0000
30
0.0
11
300.0000
21
-20.0000
31
0.0
0
LINE
8
SHEET_FRAME
10
300.0000
20
-20.0000
30
0.0
11
0.0000
21
-20.0000
31
0.0
0
LINE
8
SHEET_FRAME
10
0.0000
20
-20.0000
30
0.0
11
0.0000
21
-280.0000
31
0.0
0
POLYLINE
8
LOT_POLYLINE
66
1
70
1
0
VERTEX
8
LOT_POLYLINE
10
26.0000
20
-80.5257
30
0.0
0
VERTEX
8
LOT_POLYLINE
10
98.2810
20
-80.0000
30
0.0
0
VERTEX
8
LOT_POLYLINE
10
99.5425
20
-253.4743
30
0.0
0
VERTEX
8
LOT_POLYLINE
10
27.2616
20
-254.0000
30
0.0
0
SEQEND
0
TEXT
8
SHEET_LABELS
10
62.1623
20
-83.2627
30
0.0
40
3.4
1
N89°35'00.00"E
50
0.4166666666665293
0
TEXT
8
SHEET_LABELS
10
62.1187
20
-77.2629
30
0.0
40
3.2
1
50.00'
50
0.4166666666665293
0
POINT
8
SHEET_LABELS
10
26.0000
20
-80.5257
30
0.0
0
TEXT
8
SHEET_LABELS
10
101.9117
20
-166.7154
30
0.0
40
3.4
1
S00°25'00.00"E
50
270.41666666666663
0
TEXT
8
SHEET_LABELS
10
95.9118
20
-166.7590
30
0.0
40
3.2
1
120.00'
50
270.41666666666663
0
POINT
8
SHEET_LABELS
10
98.2810
20
-80.0000
30
0.0
0
TEXT
8
SHEET_LABELS
10
63.4239
20
-256.7371
30
0.0
40
3.4
1
S89°35'00.00"W
50
0.4166666666665151
0
TEXT
8
SHEET_LABELS
10
63.3802
20
-250.7373
30
0.0
40
3.2
1
50.00'
50
0.4166666666665151
0
POINT
8
SHEET_LABELS
10
99.5425
20
-253.4743
30
0.0
0
TEXT
8
SHEET_LABELS
10
29.6307
20
-167.2410
30
0.0
40
3.4
1
N00°25'00.00"W
50
270.41666666666663
0
TEXT
8
SHEET_LABELS
10
23.6309
20
-167.2846
30
0.0
40
3.2
1
120.00'
50
270.41666666666663
0
POINT
8
SHEET_LABELS
10
27.2616
20
-254.0000
30
0.0
0
TEXT
8
SHEET_LABELS
10
8.0000
20
-30.0000
30
0.0
40
8.0
1
LOT B1-Lot6   PASS
50
0.0
0
TEXT
8
SHEET_LABELS
10
8.0000
20
-41.0000
30
0.0
40
4.6
1
AREA 6,000 SF (0.138 ac)
50
0.0
0
TEXT
8
SHEET_LABELS
10
8.0000
20
-48.0000
30
0.0
40
4.0
1
PERIMETER 340.00'   VERTICES 4   CLOSING SIDE 120.00'
50
0.0
0
TEXT
8
SHEET_LABELS
10
8.0000
20
-55.0000
30
0.0
40
3.4
1
all geometric checks passed: closed single polyline, no self-intersection, no overlap, no spikes
50
0.0
0
LINE
8
SHEET_FRAME
10
320.0000
20
-280.0000
30
0.0
11
620.0000
21
-280.0000
31
0.0
0
LINE
8
SHEET_FRAME
10
620.0000
20
-280.0000
30
0.0
11
620.0000
21
-20.0000
31
0.0
0
LINE
8
SHEET_FRAME
10
620.0000
20
-20.0000
30
0.0
11
320.0000
21
-20.0000
31
0.0
0
LINE
8
SHEET_FRAME
10
320.0000
20
-20.0000
30
0.0
11
320.0000
21
-280.0000
31
0.0
0
POLYLINE
8
LOT_POLYLINE
66
1
70
1
0
VERTEX
8
LOT_POLYLINE
10
346.0000
20
-80.5257
30
0.0
0
VERTEX
8
LOT_POLYLINE
10
418.2810
20
-80.0000
30
0.0
0
VERTEX
8
LOT_POLYLINE
10
419.5425
20
-253.4743
30
0.0
0
VERTEX
8
LOT_POLYLINE
10
347.2616
20
-254.0000
30
0.0
0
SEQEND
0
TEXT
8
SHEET_LABELS
10
382.1623
20
-83.2627
30
0.0
40
3.4
1
N89°35'00.00"E
50
0.4166666666667851
0
TEXT
8
SHEET_LABELS
10
382.1187
20
-77.2629
30
0.0
40
3.2
1
50.00'
50
0.4166666666667851
0
POINT
8
SHEET_LABELS
10
346.0000
20
-80.5257
30
0.0
0
TEXT
8
SHEET_LABELS
10
421.9117
20
-166.7154
30
0.0
40
3.4
1
S00°25'00.00"E
50
270.41666666666663
0
TEXT
8
SHEET_LABELS
10
415.9118
20
-166.7590
30
0.0
40
3.2
1
120.00'
50
270.41666666666663
0
POINT
8
SHEET_LABELS
10
418.2810
20
-80.0000
30
0.0
0
TEXT
8
SHEET_LABELS
10
383.4239
20
-256.7371
30
0.0
40
3.4
1
S89°35'00.00"W
50
0.4166666666667993
0
TEXT
8
SHEET_LABELS
10
383.3802
20
-250.7373
30
0.0
40
3.2
1
50.00'
50
0.4166666666667993
0
POINT
8
SHEET_LABELS
10
419.5425
20
-253.4743
30
0.0
0
TEXT
8
SHEET_LABELS
10
349.6307
20
-167.2410
30
0.0
40
3.4
1
N00°25'00.00"W
50
270.41666666666663
0
TEXT
8
SHEET_LABELS
10
343.6309
20
-167.2846
30
0.0
40
3.2
1
120.00'
50
270.41666666666663
0
POINT
8
SHEET_LABELS
10
347.2616
20
-254.0000
30
0.0
0
TEXT
8
SHEET_LABELS
10
328.0000
20
-30.0000
30
0.0
40
8.0
1
LOT B1-Lot7   PASS
50
0.0
0
TEXT
8
SHEET_LABELS
10
328.0000
20
-41.0000
30
0.0
40
4.6
1
AREA 6,000 SF (0.138 ac)
50
0.0
0
TEXT
8
SHEET_LABELS
10
328.0000
20
-48.0000
30
0.0
40
4.0
1
PERIMETER 340.00'   VERTICES 4   CLOSING SIDE 120.00'
50
0.0
0
TEXT
8
SHEET_LABELS
10
328.0000
20
-55.0000
30
0.0
40
3.4
1
all geometric checks passed: closed single polyline, no self-intersection, no overlap, no spikes
50
0.0
0
LINE
8
SHEET_FRAME
10
640.0000
20
-280.0000
30
0.0
11
940.0000
21
-280.0000
31
0.0
0
LINE
8
SHEET_FRAME
10
940.0000
20
-280.0000
30
0.0
11
940.0000
21
-20.0000
31
0.0
0
LINE
8
SHEET_FRAME
10
940.0000
20
-20.0000
30
0.0
11
640.0000
21
-20.0000
31
0.0
0
LINE
8
SHEET_FRAME
10
640.0000
20
-20.0000
30
0.0
11
640.0000
21
-280.0000
31
0.0
0
POLYLINE
8
LOT_POLYLINE
66
1
70
1
0
VERTEX
8
LOT_POLYLINE
10
666.0000
20
-80.5257
30
0.0
0
VERTEX
8
LOT_POLYLINE
10
738.2810
20
-80.0000
30
0.0
0
VERTEX
8
LOT_POLYLINE
10
739.5425
20
-253.4743
30
0.0
0
VERTEX
8
LOT_POLYLINE
10
667.2616
20
-254.0000
30
0.0
0
SEQEND
0
TEXT
8
SHEET_LABELS
10
702.1623
20
-83.2627
30
0.0
40
3.4
1
N89°35'00.00"E
50
0.4166666666665293
0
TEXT
8
SHEET_LABELS
10
702.1187
20
-77.2629
30
0.0
40
3.2
1
50.00'
50
0.4166666666665293
0
POINT
8
SHEET_LABELS
10
666.0000
20
-80.5257
30
0.0
0
TEXT
8
SHEET_LABELS
10
741.9117
20
-166.7154
30
0.0
40
3.4
1
S00°25'00.00"E
50
270.4166666666667
0
TEXT
8
SHEET_LABELS
10
735.9118
20
-166.7590
30
0.0
40
3.2
1
120.00'
50
270.4166666666667
0
POINT
8
SHEET_LABELS
10
738.2810
20
-80.0000
30
0.0
0
TEXT
8
SHEET_LABELS
10
703.4239
20
-256.7371
30
0.0
40
3.4
1
S89°35'00.00"W
50
0.4166666666665151
0
TEXT
8
SHEET_LABELS
10
703.3802
20
-250.7373
30
0.0
40
3.2
1
50.00'
50
0.4166666666665151
0
POINT
8
SHEET_LABELS
10
739.5425
20
-253.4743
30
0.0
0
TEXT
8
SHEET_LABELS
10
669.6307
20
-167.2410
30
0.0
40
3.4
1
N00°25'00.00"W
50
270.41666666666663
0
TEXT
8
SHEET_LABELS
10
663.6309
20
-167.2846
30
0.0
40
3.2
1
120.00'
50
270.41666666666663
0
POINT
8
SHEET_LABELS
10
667.2616
20
-254.0000
30
0.0
0
TEXT
8
SHEET_LABELS
10
648.0000
20
-30.0000
30
0.0
40
8.0
1
LOT B1-Lot8   PASS
50
0.0
0
TEXT
8
SHEET_LABELS
10
648.0000
20
-41.0000
30
0.0
40
4.6
1
AREA 6,000 SF (0.138 ac)
50
0.0
0
TEXT
8
SHEET_LABELS
10
648.0000
20
-48.0000
30
0.0
40
4.0
1
PERIMETER 340.00'   VERTICES 4   CLOSING SIDE 120.00'
50
0.0
0
TEXT
8
SHEET_LABELS
10
648.0000
20
-55.0000
30
0.0
40
3.4
1
all geometric checks passed: closed single polyline, no self-intersection, no overlap, no spikes
50
0.0
0
LINE
8
SHEET_FRAME
10
960.0000
20
-280.0000
30
0.0
11
1260.0000
21
-280.0000
31
0.0
0
LINE
8
SHEET_FRAME
10
1260.0000
20
-280.0000
30
0.0
11
1260.0000
21
-20.0000
31
0.0
0
LINE
8
SHEET_FRAME
10
1260.0000
20
-20.0000
30
0.0
11
960.0000
21
-20.0000
31
0.0
0
LINE
8
SHEET_FRAME
10
960.0000
20
-20.0000
30
0.0
11
960.0000
21
-280.0000
31
0.0
0
POLYLINE
8
LOT_POLYLINE
66
1
70
1
0
VERTEX
8
LOT_POLYLINE
10
986.0000
20
-80.5257
30
0.0
0
VERTEX
8
LOT_POLYLINE
10
1058.2810
20
-80.0000
30
0.0
0
VERTEX
8
LOT_POLYLINE
10
1059.5425
20
-253.4743
30
0.0
0
VERTEX
8
LOT_POLYLINE
10
987.2616
20
-254.0000
30
0.0
0
SEQEND
0
TEXT
8
SHEET_LABELS
10
1022.1623
20
-83.2627
30
0.0
40
3.4
1
N89°35'00.00"E
50
0.4166666666667851
0
TEXT
8
SHEET_LABELS
10
1022.1187
20
-77.2629
30
0.0
40
3.2
1
50.00'
50
0.4166666666667851
0
POINT
8
SHEET_LABELS
10
986.0000
20
-80.5257
30
0.0
0
TEXT
8
SHEET_LABELS
10
1061.9117
20
-166.7154
30
0.0
40
3.4
1
S00°25'00.00"E
50
270.4166666666667
0
TEXT
8
SHEET_LABELS
10
1055.9118
20
-166.7590
30
0.0
40
3.2
1
120.00'
50
270.4166666666667
0
POINT
8
SHEET_LABELS
10
1058.2810
20
-80.0000
30
0.0
0
TEXT
8
SHEET_LABELS
10
1023.4239
20
-256.7371
30
0.0
40
3.4
1
S89°35'00.00"W
50
0.4166666666667993
0
TEXT
8
SHEET_LABELS
10
1023.3802
20
-250.7373
30
0.0
40
3.2
1
50.00'
50
0.4166666666667993
0
POINT
8
SHEET_LABELS
10
1059.5425
20
-253.4743
30
0.0
0
TEXT
8
SHEET_LABELS
10
989.6307
20
-167.2410
30
0.0
40
3.4
1
N00°25'00.00"W
50
270.4166666666667
0
TEXT
8
SHEET_LABELS
10
983.6309
20
-167.2846
30
0.0
40
3.2
1
120.00'
50
270.4166666666667
0
POINT
8
SHEET_LABELS
10
987.2616
20
-254.0000
30
0.0
0
TEXT
8
SHEET_LABELS
10
968.0000
20
-30.0000
30
0.0
40
8.0
1
LOT B1-Lot9   PASS
50
0.0
0
TEXT
8
SHEET_LABELS
10
968.0000
20
-41.0000
30
0.0
40
4.6
1
AREA 6,000 SF (0.138 ac)
50
0.0
0
TEXT
8
SHEET_LABELS
10
968.0000
20
-48.0000
30
0.0
40
4.0
1
PERIMETER 340.00'   VERTICES 4   CLOSING SIDE 120.00'
50
0.0
0
TEXT
8
SHEET_LABELS
10
968.0000
20
-55.0000
30
0.0
40
3.4
1
all geometric checks passed: closed single polyline, no self-intersection, no overlap, no spikes
50
0.0
0
LINE
8
SHEET_FRAME
10
1280.0000
20
-280.0000
30
0.0
11
1580.0000
21
-280.0000
31
0.0
0
LINE
8
SHEET_FRAME
10
1580.0000
20
-280.0000
30
0.0
11
1580.0000
21
-20.0000
31
0.0
0
LINE
8
SHEET_FRAME
10
1580.0000
20
-20.0000
30
0.0
11
1280.0000
21
-20.0000
31
0.0
0
LINE
8
SHEET_FRAME
10
1280.0000
20
-20.0000
30
0.0
11
1280.0000
21
-280.0000
31
0.0
0
POLYLINE
8
LOT_POLYLINE
66
1
70
1
0
VERTEX
8
LOT_POLYLINE
10
1306.0000
20
-80.5257
30
0.0
0
VERTEX
8
LOT_POLYLINE
10
1378.2810
20
-80.0000
30
0.0
0
VERTEX
8
LOT_POLYLINE
10
1379.5425
20
-253.4743
30
0.0
0
VERTEX
8
LOT_POLYLINE
10
1307.2616
20
-254.0000
30
0.0
0
SEQEND
0
TEXT
8
SHEET_LABELS
10
1342.1623
20
-83.2627
30
0.0
40
3.4
1
N89°35'00.00"E
50
0.4166666666667851
0
TEXT
8
SHEET_LABELS
10
1342.1187
20
-77.2629
30
0.0
40
3.2
1
50.00'
50
0.4166666666667851
0
POINT
8
SHEET_LABELS
10
1306.0000
20
-80.5257
30
0.0
0
TEXT
8
SHEET_LABELS
10
1381.9117
20
-166.7154
30
0.0
40
3.4
1
S00°25'00.00"E
50
270.4166666666667
0
TEXT
8
SHEET_LABELS
10
1375.9118
20
-166.7590
30
0.0
40
3.2
1
120.00'
50
270.4166666666667
0
POINT
8
SHEET_LABELS
10
1378.2810
20
-80.0000
30
0.0
0
TEXT
8
SHEET_LABELS
10
1343.4239
20
-256.7371
30
0.0
40
3.4
1
S89°35'00.00"W
50
0.4166666666667993
0
TEXT
8
SHEET_LABELS
10
1343.3802
20
-250.7373
30
0.0
40
3.2
1
50.00'
50
0.4166666666667993
0
POINT
8
SHEET_LABELS
10
1379.5425
20
-253.4743
30
0.0
0
TEXT
8
SHEET_LABELS
10
1309.6307
20
-167.2410
30
0.0
40
3.4
1
N00°25'00.00"W
50
270.4166666666667
0
TEXT
8
SHEET_LABELS
10
1303.6309
20
-167.2846
30
0.0
40
3.2
1
120.00'
50
270.4166666666667
0
POINT
8
SHEET_LABELS
10
1307.2616
20
-254.0000
30
0.0
0
TEXT
8
SHEET_LABELS
10
1288.0000
20
-30.0000
30
0.0
40
8.0
1
LOT B1-Lot10   PASS
50
0.0
0
TEXT
8
SHEET_LABELS
10
1288.0000
20
-41.0000
30
0.0
40
4.6
1
AREA 6,000 SF (0.138 ac)
50
0.0
0
TEXT
8
SHEET_LABELS
10
1288.0000
20
-48.0000
30
0.0
40
4.0
1
PERIMETER 340.00'   VERTICES 4   CLOSING SIDE 120.00'
50
0.0
0
TEXT
8
SHEET_LABELS
10
1288.0000
20
-55.0000
30
0.0
40
3.4
1
all geometric checks passed: closed single polyline, no self-intersection, no overlap, no spikes
50
0.0
0
LINE
8
SHEET_FRAME
10
0.0000
20
-560.0000
30
0.0
11
300.0000
21
-560.0000
31
0.0
0
LINE
8
SHEET_FRAME
10
300.0000
20
-560.0000
30
0.0
11
300.0000
21
-300.0000
31
0.0
0
LINE
8
SHEET_FRAME
10
300.0000
20
-300.0000
30
0.0
11
0.0000
21
-300.0000
31
0.0
0
LINE
8
SHEET_FRAME
10
0.0000
20
-300.0000
30
0.0
11
0.0000
21
-560.0000
31
0.0
0
POLYLINE
8
LOT_POLYLINE
66
1
70
1
0
VERTEX
8
LOT_POLYLINE
10
26.0000
20
-360.5257
30
0.0
0
VERTEX
8
LOT_POLYLINE
10
98.2810
20
-360.0000
30
0.0
0
VERTEX
8
LOT_POLYLINE
10
99.5425
20
-533.4743
30
0.0
0
VERTEX
8
LOT_POLYLINE
10
27.2616
20
-534.0000
30
0.0
0
SEQEND
0
TEXT
8
SHEET_LABELS
10
62.1623
20
-363.2627
30
0.0
40
3.4
1
N89°35'00.00"E
50
0.416666666666643
0
TEXT
8
SHEET_LABELS
10
62.1187
20
-357.2629
30
0.0
40
3.2
1
50.00'
50
0.416666666666643
0
POINT
8
SHEET_LABELS
10
26.0000
20
-360.5257
30
0.0
0
TEXT
8
SHEET_LABELS
10
101.9117
20
-446.7154
30
0.0
40
3.4
1
S00°25'00.00"E
50
270.41666666666663
0
TEXT
8
SHEET_LABELS
10
95.9118
20
-446.7590
30
0.0
40
3.2
1
120.00'
50
270.41666666666663
0
POINT
8
SHEET_LABELS
10
98.2810
20
-360.0000
30
0.0
0
TEXT
8
SHEET_LABELS
10
63.4239
20
-536.7371
30
0.0
40
3.4
1
S89°35'00.00"W
50
0.41666666666674246
0
TEXT
8
SHEET_LABELS
10
63.3802
20
-530.7373
30
0.0
40
3.2
1
50.00'
50
0.41666666666674246
0
POINT
8
SHEET_LABELS
10
99.5425
20
-533.4743
30
0.0
0
TEXT
8
SHEET_LABELS
10
29.6307
20
-447.2410
30
0.0
40
3.4
1
N00°25'00.00"W
50
270.41666666666663
0
TEXT
8
SHEET_LABELS
10
23.6309
20
-447.2846
30
0.0
40
3.2
1
120.00'
50
270.41666666666663
0
POINT
8
SHEET_LABELS
10
27.2616
20
-534.0000
30
0.0
0
TEXT
8
SHEET_LABELS
10
8.0000
20
-310.0000
30
0.0
40
8.0
1
LOT B2-Lot1   PASS
50
0.0
0
TEXT
8
SHEET_LABELS
10
8.0000
20
-321.0000
30
0.0
40
4.6
1
AREA 6,000 SF (0.138 ac)
50
0.0
0
TEXT
8
SHEET_LABELS
10
8.0000
20
-328.0000
30
0.0
40
4.0
1
PERIMETER 340.00'   VERTICES 4   CLOSING SIDE 120.00'
50
0.0
0
TEXT
8
SHEET_LABELS
10
8.0000
20
-335.0000
30
0.0
40
3.4
1
all geometric checks passed: closed single polyline, no self-intersection, no overlap, no spikes
50
0.0
0
LINE
8
SHEET_FRAME
10
320.0000
20
-560.0000
30
0.0
11
620.0000
21
-560.0000
31
0.0
0
LINE
8
SHEET_FRAME
10
620.0000
20
-560.0000
30
0.0
11
620.0000
21
-300.0000
31
0.0
0
LINE
8
SHEET_FRAME
10
620.0000
20
-300.0000
30
0.0
11
320.0000
21
-300.0000
31
0.0
0
LINE
8
SHEET_FRAME
10
320.0000
20
-300.0000
30
0.0
11
320.0000
21
-560.0000
31
0.0
0
POLYLINE
8
LOT_POLYLINE
66
1
70
1
0
VERTEX
8
LOT_POLYLINE
10
346.0000
20
-360.5257
30
0.0
0
VERTEX
8
LOT_POLYLINE
10
418.2810
20
-360.0000
30
0.0
0
VERTEX
8
LOT_POLYLINE
10
419.5425
20
-533.4743
30
0.0
0
VERTEX
8
LOT_POLYLINE
10
347.2616
20
-534.0000
30
0.0
0
SEQEND
0
TEXT
8
SHEET_LABELS
10
382.1623
20
-363.2627
30
0.0
40
3.4
1
N89°35'00.00"E
50
0.4166666666666572
0
TEXT
8
SHEET_LABELS
10
382.1187
20
-357.2629
30
0.0
40
3.2
1
50.00'
50
0.4166666666666572
0
POINT
8
SHEET_LABELS
10
346.0000
20
-360.5257
30
0.0
0
TEXT
8
SHEET_LABELS
10
421.9117
20
-446.7154
30
0.0
40
3.4
1
S00°25'00.00"E
50
270.41666666666663
0
TEXT
8
SHEET_LABELS
10
415.9118
20
-446.7590
30
0.0
40
3.2
1
120.00'
50
270.41666666666663
0
POINT
8
SHEET_LABELS
10
418.2810
20
-360.0000
30
0.0
0
TEXT
8
SHEET_LABELS
10
383.4239
20
-536.7371
30
0.0
40
3.4
1
S89°35'00.00"W
50
0.41666666666674246
0
TEXT
8
SHEET_LABELS
10
383.3802
20
-530.7373
30
0.0
40
3.2
1
50.00'
50
0.41666666666674246
0
POINT
8
SHEET_LABELS
10
419.5425
20
-533.4743
30
0.0
0
TEXT
8
SHEET_LABELS
10
349.6307
20
-447.2410
30
0.0
40
3.4
1
N00°25'00.00"W
50
270.41666666666663
0
TEXT
8
SHEET_LABELS
10
343.6309
20
-447.2846
30
0.0
40
3.2
1
120.00'
50
270.41666666666663
0
POINT
8
SHEET_LABELS
10
347.2616
20
-534.0000
30
0.0
0
TEXT
8
SHEET_LABELS
10
328.0000
20
-310.0000
30
0.0
40
8.0
1
LOT B2-Lot2   PASS
50
0.0
0
TEXT
8
SHEET_LABELS
10
328.0000
20
-321.0000
30
0.0
40
4.6
1
AREA 6,000 SF (0.138 ac)
50
0.0
0
TEXT
8
SHEET_LABELS
10
328.0000
20
-328.0000
30
0.0
40
4.0
1
PERIMETER 340.00'   VERTICES 4   CLOSING SIDE 120.00'
50
0.0
0
TEXT
8
SHEET_LABELS
10
328.0000
20
-335.0000
30
0.0
40
3.4
1
all geometric checks passed: closed single polyline, no self-intersection, no overlap, no spikes
50
0.0
0
LINE
8
SHEET_FRAME
10
640.0000
20
-560.0000
30
0.0
11
940.0000
21
-560.0000
31
0.0
0
LINE
8
SHEET_FRAME
10
940.0000
20
-560.0000
30
0.0
11
940.0000
21
-300.0000
31
0.0
0
LINE
8
SHEET_FRAME
10
940.0000
20
-300.0000
30
0.0
11
640.0000
21
-300.0000
31
0.0
0
LINE
8
SHEET_FRAME
10
640.0000
20
-300.0000
30
0.0
11
640.0000
21
-560.0000
31
0.0
0
POLYLINE
8
LOT_POLYLINE
66
1
70
1
0
VERTEX
8
LOT_POLYLINE
10
666.0000
20
-360.5257
30
0.0
0
VERTEX
8
LOT_POLYLINE
10
738.2810
20
-360.0000
30
0.0
0
VERTEX
8
LOT_POLYLINE
10
739.5425
20
-533.4743
30
0.0
0
VERTEX
8
LOT_POLYLINE
10
667.2616
20
-534.0000
30
0.0
0
SEQEND
0
TEXT
8
SHEET_LABELS
10
702.1623
20
-363.2627
30
0.0
40
3.4
1
N89°35'00.00"E
50
0.4166666666666572
0
TEXT
8
SHEET_LABELS
10
702.1187
20
-357.2629
30
0.0
40
3.2
1
50.00'
50
0.4166666666666572
0
POINT
8
SHEET_LABELS
10
666.0000
20
-360.5257
30
0.0
0
TEXT
8
SHEET_LABELS
10
741.9117
20
-446.7154
30
0.0
40
3.4
1
S00°25'00.00"E
50
270.41666666666663
0
TEXT
8
SHEET_LABELS
10
735.9118
20
-446.7590
30
0.0
40
3.2
1
120.00'
50
270.41666666666663
0
POINT
8
SHEET_LABELS
10
738.2810
20
-360.0000
30
0.0
0
TEXT
8
SHEET_LABELS
10
703.4239
20
-536.7371
30
0.0
40
3.4
1
S89°35'00.00"W
50
0.41666666666674246
0
TEXT
8
SHEET_LABELS
10
703.3802
20
-530.7373
30
0.0
40
3.2
1
50.00'
50
0.41666666666674246
0
POINT
8
SHEET_LABELS
10
739.5425
20
-533.4743
30
0.0
0
TEXT
8
SHEET_LABELS
10
669.6307
20
-447.2410
30
0.0
40
3.4
1
N00°25'00.00"W
50
270.41666666666663
0
TEXT
8
SHEET_LABELS
10
663.6309
20
-447.2846
30
0.0
40
3.2
1
120.00'
50
270.41666666666663
0
POINT
8
SHEET_LABELS
10
667.2616
20
-534.0000
30
0.0
0
TEXT
8
SHEET_LABELS
10
648.0000
20
-310.0000
30
0.0
40
8.0
1
LOT B2-Lot3   PASS
50
0.0
0
TEXT
8
SHEET_LABELS
10
648.0000
20
-321.0000
30
0.0
40
4.6
1
AREA 6,000 SF (0.138 ac)
50
0.0
0
TEXT
8
SHEET_LABELS
10
648.0000
20
-328.0000
30
0.0
40
4.0
1
PERIMETER 340.00'   VERTICES 4   CLOSING SIDE 120.00'
50
0.0
0
TEXT
8
SHEET_LABELS
10
648.0000
20
-335.0000
30
0.0
40
3.4
1
all geometric checks passed: closed single polyline, no self-intersection, no overlap, no spikes
50
0.0
0
LINE
8
SHEET_FRAME
10
960.0000
20
-560.0000
30
0.0
11
1260.0000
21
-560.0000
31
0.0
0
LINE
8
SHEET_FRAME
10
1260.0000
20
-560.0000
30
0.0
11
1260.0000
21
-300.0000
31
0.0
0
LINE
8
SHEET_FRAME
10
1260.0000
20
-300.0000
30
0.0
11
960.0000
21
-300.0000
31
0.0
0
LINE
8
SHEET_FRAME
10
960.0000
20
-300.0000
30
0.0
11
960.0000
21
-560.0000
31
0.0
0
POLYLINE
8
LOT_POLYLINE
66
1
70
1
0
VERTEX
8
LOT_POLYLINE
10
986.0000
20
-360.5257
30
0.0
0
VERTEX
8
LOT_POLYLINE
10
1058.2810
20
-360.0000
30
0.0
0
VERTEX
8
LOT_POLYLINE
10
1059.5425
20
-533.4743
30
0.0
0
VERTEX
8
LOT_POLYLINE
10
987.2616
20
-534.0000
30
0.0
0
SEQEND
0
TEXT
8
SHEET_LABELS
10
1022.1623
20
-363.2627
30
0.0
40
3.4
1
N89°35'00.00"E
50
0.416666666666643
0
TEXT
8
SHEET_LABELS
10
1022.1187
20
-357.2629
30
0.0
40
3.2
1
50.00'
50
0.416666666666643
0
POINT
8
SHEET_LABELS
10
986.0000
20
-360.5257
30
0.0
0
TEXT
8
SHEET_LABELS
10
1061.9117
20
-446.7154
30
0.0
40
3.4
1
S00°25'00.00"E
50
270.41666666666663
0
TEXT
8
SHEET_LABELS
10
1055.9118
20
-446.7590
30
0.0
40
3.2
1
120.00'
50
270.41666666666663
0
POINT
8
SHEET_LABELS
10
1058.2810
20
-360.0000
30
0.0
0
TEXT
8
SHEET_LABELS
10
1023.4239
20
-536.7371
30
0.0
40
3.4
1
S89°35'00.00"W
50
0.41666666666674246
0
TEXT
8
SHEET_LABELS
10
1023.3802
20
-530.7373
30
0.0
40
3.2
1
50.00'
50
0.41666666666674246
0
POINT
8
SHEET_LABELS
10
1059.5425
20
-533.4743
30
0.0
0
TEXT
8
SHEET_LABELS
10
989.6307
20
-447.2410
30
0.0
40
3.4
1
N00°25'00.00"W
50
270.41666666666663
0
TEXT
8
SHEET_LABELS
10
983.6309
20
-447.2846
30
0.0
40
3.2
1
120.00'
50
270.41666666666663
0
POINT
8
SHEET_LABELS
10
987.2616
20
-534.0000
30
0.0
0
TEXT
8
SHEET_LABELS
10
968.0000
20
-310.0000
30
0.0
40
8.0
1
LOT B2-Lot4   PASS
50
0.0
0
TEXT
8
SHEET_LABELS
10
968.0000
20
-321.0000
30
0.0
40
4.6
1
AREA 6,000 SF (0.138 ac)
50
0.0
0
TEXT
8
SHEET_LABELS
10
968.0000
20
-328.0000
30
0.0
40
4.0
1
PERIMETER 340.00'   VERTICES 4   CLOSING SIDE 120.00'
50
0.0
0
TEXT
8
SHEET_LABELS
10
968.0000
20
-335.0000
30
0.0
40
3.4
1
all geometric checks passed: closed single polyline, no self-intersection, no overlap, no spikes
50
0.0
0
LINE
8
SHEET_FRAME
10
1280.0000
20
-560.0000
30
0.0
11
1580.0000
21
-560.0000
31
0.0
0
LINE
8
SHEET_FRAME
10
1580.0000
20
-560.0000
30
0.0
11
1580.0000
21
-300.0000
31
0.0
0
LINE
8
SHEET_FRAME
10
1580.0000
20
-300.0000
30
0.0
11
1280.0000
21
-300.0000
31
0.0
0
LINE
8
SHEET_FRAME
10
1280.0000
20
-300.0000
30
0.0
11
1280.0000
21
-560.0000
31
0.0
0
POLYLINE
8
LOT_POLYLINE
66
1
70
1
0
VERTEX
8
LOT_POLYLINE
10
1306.0000
20
-360.5257
30
0.0
0
VERTEX
8
LOT_POLYLINE
10
1378.2810
20
-360.0000
30
0.0
0
VERTEX
8
LOT_POLYLINE
10
1379.5425
20
-533.4743
30
0.0
0
VERTEX
8
LOT_POLYLINE
10
1307.2616
20
-534.0000
30
0.0
0
SEQEND
0
TEXT
8
SHEET_LABELS
10
1342.1623
20
-363.2627
30
0.0
40
3.4
1
N89°35'00.00"E
50
0.4166666666667851
0
TEXT
8
SHEET_LABELS
10
1342.1187
20
-357.2629
30
0.0
40
3.2
1
50.00'
50
0.4166666666667851
0
POINT
8
SHEET_LABELS
10
1306.0000
20
-360.5257
30
0.0
0
TEXT
8
SHEET_LABELS
10
1381.9117
20
-446.7154
30
0.0
40
3.4
1
S00°25'00.00"E
50
270.4166666666667
0
TEXT
8
SHEET_LABELS
10
1375.9118
20
-446.7590
30
0.0
40
3.2
1
120.00'
50
270.4166666666667
0
POINT
8
SHEET_LABELS
10
1378.2810
20
-360.0000
30
0.0
0
TEXT
8
SHEET_LABELS
10
1343.4239
20
-536.7371
30
0.0
40
3.4
1
S89°35'00.00"W
50
0.4166666666667993
0
TEXT
8
SHEET_LABELS
10
1343.3802
20
-530.7373
30
0.0
40
3.2
1
50.00'
50
0.4166666666667993
0
POINT
8
SHEET_LABELS
10
1379.5425
20
-533.4743
30
0.0
0
TEXT
8
SHEET_LABELS
10
1309.6307
20
-447.2410
30
0.0
40
3.4
1
N00°25'00.00"W
50
270.4166666666667
0
TEXT
8
SHEET_LABELS
10
1303.6309
20
-447.2846
30
0.0
40
3.2
1
120.00'
50
270.4166666666667
0
POINT
8
SHEET_LABELS
10
1307.2616
20
-534.0000
30
0.0
0
TEXT
8
SHEET_LABELS
10
1288.0000
20
-310.0000
30
0.0
40
8.0
1
LOT B2-Lot5   PASS
50
0.0
0
TEXT
8
SHEET_LABELS
10
1288.0000
20
-321.0000
30
0.0
40
4.6
1
AREA 6,000 SF (0.138 ac)
50
0.0
0
TEXT
8
SHEET_LABELS
10
1288.0000
20
-328.0000
30
0.0
40
4.0
1
PERIMETER 340.00'   VERTICES 4   CLOSING SIDE 120.00'
50
0.0
0
TEXT
8
SHEET_LABELS
10
1288.0000
20
-335.0000
30
0.0
40
3.4
1
all geometric checks passed: closed single polyline, no self-intersection, no overlap, no spikes
50
0.0
0
LINE
8
SHEET_FRAME
10
0.0000
20
-840.0000
30
0.0
11
300.0000
21
-840.0000
31
0.0
0
LINE
8
SHEET_FRAME
10
300.0000
20
-840.0000
30
0.0
11
300.0000
21
-580.0000
31
0.0
0
LINE
8
SHEET_FRAME
10
300.0000
20
-580.0000
30
0.0
11
0.0000
21
-580.0000
31
0.0
0
LINE
8
SHEET_FRAME
10
0.0000
20
-580.0000
30
0.0
11
0.0000
21
-840.0000
31
0.0
0
POLYLINE
8
LOT_POLYLINE
66
1
70
1
0
VERTEX
8
LOT_POLYLINE
10
26.0000
20
-640.5257
30
0.0
0
VERTEX
8
LOT_POLYLINE
10
98.2810
20
-640.0000
30
0.0
0
VERTEX
8
LOT_POLYLINE
10
99.5425
20
-813.4743
30
0.0
0
VERTEX
8
LOT_POLYLINE
10
27.2616
20
-814.0000
30
0.0
0
SEQEND
0
TEXT
8
SHEET_LABELS
10
62.1623
20
-643.2627
30
0.0
40
3.4
1
N89°35'00.00"E
50
0.4166666666666998
0
TEXT
8
SHEET_LABELS
10
62.1187
20
-637.2629
30
0.0
40
3.2
1
50.00'
50
0.4166666666666998
0
POINT
8
SHEET_LABELS
10
26.0000
20
-640.5257
30
0.0
0
TEXT
8
SHEET_LABELS
10
101.9117
20
-726.7154
30
0.0
40
3.4
1
S00°25'00.00"E
50
270.41666666666663
0
TEXT
8
SHEET_LABELS
10
95.9118
20
-726.7590
30
0.0
40
3.2
1
120.00'
50
270.41666666666663
0
POINT
8
SHEET_LABELS
10
98.2810
20
-640.0000
30
0.0
0
TEXT
8
SHEET_LABELS
10
63.4239
20
-816.7371
30
0.0
40
3.4
1
S89°35'00.00"W
50
0.41666666666674246
0
TEXT
8
SHEET_LABELS
10
63.3802
20
-810.7373
30
0.0
40
3.2
1
50.00'
50
0.41666666666674246
0
POINT
8
SHEET_LABELS
10
99.5425
20
-813.4743
30
0.0
0
TEXT
8
SHEET_LABELS
10
29.6307
20
-727.2410
30
0.0
40
3.4
1
N00°25'00.00"W
50
270.41666666666663
0
TEXT
8
SHEET_LABELS
10
23.6309
20
-727.2846
30
0.0
40
3.2
1
120.00'
50
270.41666666666663
0
POINT
8
SHEET_LABELS
10
27.2616
20
-814.0000
30
0.0
0
TEXT
8
SHEET_LABELS
10
8.0000
20
-590.0000
30
0.0
40
8.0
1
LOT B2-Lot6   PASS
50
0.0
0
TEXT
8
SHEET_LABELS
10
8.0000
20
-601.0000
30
0.0
40
4.6
1
AREA 6,000 SF (0.138 ac)
50
0.0
0
TEXT
8
SHEET_LABELS
10
8.0000
20
-608.0000
30
0.0
40
4.0
1
PERIMETER 340.00'   VERTICES 4   CLOSING SIDE 120.00'
50
0.0
0
TEXT
8
SHEET_LABELS
10
8.0000
20
-615.0000
30
0.0
40
3.4
1
all geometric checks passed: closed single polyline, no self-intersection, no overlap, no spikes
50
0.0
0
LINE
8
SHEET_FRAME
10
320.0000
20
-840.0000
30
0.0
11
620.0000
21
-840.0000
31
0.0
0
LINE
8
SHEET_FRAME
10
620.0000
20
-840.0000
30
0.0
11
620.0000
21
-580.0000
31
0.0
0
LINE
8
SHEET_FRAME
10
620.0000
20
-580.0000
30
0.0
11
320.0000
21
-580.0000
31
0.0
0
LINE
8
SHEET_FRAME
10
320.0000
20
-580.0000
30
0.0
11
320.0000
21
-840.0000
31
0.0
0
POLYLINE
8
LOT_POLYLINE
66
1
70
1
0
VERTEX
8
LOT_POLYLINE
10
346.0000
20
-640.5257
30
0.0
0
VERTEX
8
LOT_POLYLINE
10
418.2810
20
-640.0000
30
0.0
0
VERTEX
8
LOT_POLYLINE
10
419.5425
20
-813.4743
30
0.0
0
VERTEX
8
LOT_POLYLINE
10
347.2616
20
-814.0000
30
0.0
0
SEQEND
0
TEXT
8
SHEET_LABELS
10
382.1623
20
-643.2627
30
0.0
40
3.4
1
N89°35'00.00"E
50
0.4166666666666998
0
TEXT
8
SHEET_LABELS
10
382.1187
20
-637.2629
30
0.0
40
3.2
1
50.00'
50
0.4166666666666998
0
POINT
8
SHEET_LABELS
10
346.0000
20
-640.5257
30
0.0
0
TEXT
8
SHEET_LABELS
10
421.9117
20
-726.7154
30
0.0
40
3.4
1
S00°25'00.00"E
50
270.41666666666663
0
TEXT
8
SHEET_LABELS
10
415.9118
20
-726.7590
30
0.0
40
3.2
1
120.00'
50
270.41666666666663
0
POINT
8
SHEET_LABELS
10
418.2810
20
-640.0000
30
0.0
0
TEXT
8
SHEET_LABELS
10
383.4239
20
-816.7371
30
0.0
40
3.4
1
S89°35'00.00"W
50
0.41666666666674246
0
TEXT
8
SHEET_LABELS
10
383.3802
20
-810.7373
30
0.0
40
3.2
1
50.00'
50
0.41666666666674246
0
POINT
8
SHEET_LABELS
10
419.5425
20
-813.4743
30
0.0
0
TEXT
8
SHEET_LABELS
10
349.6307
20
-727.2410
30
0.0
40
3.4
1
N00°25'00.00"W
50
270.41666666666663
0
TEXT
8
SHEET_LABELS
10
343.6309
20
-727.2846
30
0.0
40
3.2
1
120.00'
50
270.41666666666663
0
POINT
8
SHEET_LABELS
10
347.2616
20
-814.0000
30
0.0
0
TEXT
8
SHEET_LABELS
10
328.0000
20
-590.0000
30
0.0
40
8.0
1
LOT B2-Lot7   PASS
50
0.0
0
TEXT
8
SHEET_LABELS
10
328.0000
20
-601.0000
30
0.0
40
4.6
1
AREA 6,000 SF (0.138 ac)
50
0.0
0
TEXT
8
SHEET_LABELS
10
328.0000
20
-608.0000
30
0.0
40
4.0
1
PERIMETER 340.00'   VERTICES 4   CLOSING SIDE 120.00'
50
0.0
0
TEXT
8
SHEET_LABELS
10
328.0000
20
-615.0000
30
0.0
40
3.4
1
all geometric checks passed: closed single polyline, no self-intersection, no overlap, no spikes
50
0.0
0
LINE
8
SHEET_FRAME
10
640.0000
20
-840.0000
30
0.0
11
940.0000
21
-840.0000
31
0.0
0
LINE
8
SHEET_FRAME
10
940.0000
20
-840.0000
30
0.0
11
940.0000
21
-580.0000
31
0.0
0
LINE
8
SHEET_FRAME
10
940.0000
20
-580.0000
30
0.0
11
640.0000
21
-580.0000
31
0.0
0
LINE
8
SHEET_FRAME
10
640.0000
20
-580.0000
30
0.0
11
640.0000
21
-840.0000
31
0.0
0
POLYLINE
8
LOT_POLYLINE
66
1
70
1
0
VERTEX
8
LOT_POLYLINE
10
666.0000
20
-640.5257
30
0.0
0
VERTEX
8
LOT_POLYLINE
10
738.2810
20
-640.0000
30
0.0
0
VERTEX
8
LOT_POLYLINE
10
739.5425
20
-813.4743
30
0.0
0
VERTEX
8
LOT_POLYLINE
10
667.2616
20
-814.0000
30
0.0
0
SEQEND
0
TEXT
8
SHEET_LABELS
10
702.1623
20
-643.2627
30
0.0
40
3.4
1
N89°35'00.00"E
50
0.4166666666666998
0
TEXT
8
SHEET_LABELS
10
702.1187
20
-637.2629
30
0.0
40
3.2
1
50.00'
50
0.4166666666666998
0
POINT
8
SHEET_LABELS
10
666.0000
20
-640.5257
30
0.0
0
TEXT
8
SHEET_LABELS
10
741.9117
20
-726.7154
30
0.0
40
3.4
1
S00°25'00.00"E
50
270.41666666666663
0
TEXT
8
SHEET_LABELS
10
735.9118
20
-726.7590
30
0.0
40
3.2
1
120.00'
50
270.41666666666663
0
POINT
8
SHEET_LABELS
10
738.2810
20
-640.0000
30
0.0
0
TEXT
8
SHEET_LABELS
10
703.4239
20
-816.7371
30
0.0
40
3.4
1
S89°35'00.00"W
50
0.41666666666674246
0
TEXT
8
SHEET_LABELS
10
703.3802
20
-810.7373
30
0.0
40
3.2
1
50.00'
50
0.41666666666674246
0
POINT
8
SHEET_LABELS
10
739.5425
20
-813.4743
30
0.0
0
TEXT
8
SHEET_LABELS
10
669.6307
20
-727.2410
30
0.0
40
3.4
1
N00°25'00.00"W
50
270.41666666666663
0
TEXT
8
SHEET_LABELS
10
663.6309
20
-727.2846
30
0.0
40
3.2
1
120.00'
50
270.41666666666663
0
POINT
8
SHEET_LABELS
10
667.2616
20
-814.0000
30
0.0
0
TEXT
8
SHEET_LABELS
10
648.0000
20
-590.0000
30
0.0
40
8.0
1
LOT B2-Lot8   PASS
50
0.0
0
TEXT
8
SHEET_LABELS
10
648.0000
20
-601.0000
30
0.0
40
4.6
1
AREA 6,000 SF (0.138 ac)
50
0.0
0
TEXT
8
SHEET_LABELS
10
648.0000
20
-608.0000
30
0.0
40
4.0
1
PERIMETER 340.00'   VERTICES 4   CLOSING SIDE 120.00'
50
0.0
0
TEXT
8
SHEET_LABELS
10
648.0000
20
-615.0000
30
0.0
40
3.4
1
all geometric checks passed: closed single polyline, no self-intersection, no overlap, no spikes
50
0.0
0
LINE
8
SHEET_FRAME
10
960.0000
20
-840.0000
30
0.0
11
1260.0000
21
-840.0000
31
0.0
0
LINE
8
SHEET_FRAME
10
1260.0000
20
-840.0000
30
0.0
11
1260.0000
21
-580.0000
31
0.0
0
LINE
8
SHEET_FRAME
10
1260.0000
20
-580.0000
30
0.0
11
960.0000
21
-580.0000
31
0.0
0
LINE
8
SHEET_FRAME
10
960.0000
20
-580.0000
30
0.0
11
960.0000
21
-840.0000
31
0.0
0
POLYLINE
8
LOT_POLYLINE
66
1
70
1
0
VERTEX
8
LOT_POLYLINE
10
986.0000
20
-640.5257
30
0.0
0
VERTEX
8
LOT_POLYLINE
10
1058.2810
20
-640.0000
30
0.0
0
VERTEX
8
LOT_POLYLINE
10
1059.5425
20
-813.4743
30
0.0
0
VERTEX
8
LOT_POLYLINE
10
987.2616
20
-814.0000
30
0.0
0
SEQEND
0
TEXT
8
SHEET_LABELS
10
1022.1623
20
-643.2627
30
0.0
40
3.4
1
N89°35'00.00"E
50
0.4166666666666998
0
TEXT
8
SHEET_LABELS
10
1022.1187
20
-637.2629
30
0.0
40
3.2
1
50.00'
50
0.4166666666666998
0
POINT
8
SHEET_LABELS
10
986.0000
20
-640.5257
30
0.0
0
TEXT
8
SHEET_LABELS
10
1061.9117
20
-726.7154
30
0.0
40
3.4
1
S00°25'00.00"E
50
270.41666666666663
0
TEXT
8
SHEET_LABELS
10
1055.9118
20
-726.7590
30
0.0
40
3.2
1
120.00'
50
270.41666666666663
0
POINT
8
SHEET_LABELS
10
1058.2810
20
-640.0000
30
0.0
0
TEXT
8
SHEET_LABELS
10
1023.4239
20
-816.7371
30
0.0
40
3.4
1
S89°35'00.00"W
50
0.41666666666674246
0
TEXT
8
SHEET_LABELS
10
1023.3802
20
-810.7373
30
0.0
40
3.2
1
50.00'
50
0.41666666666674246
0
POINT
8
SHEET_LABELS
10
1059.5425
20
-813.4743
30
0.0
0
TEXT
8
SHEET_LABELS
10
989.6307
20
-727.2410
30
0.0
40
3.4
1
N00°25'00.00"W
50
270.4166666666667
0
TEXT
8
SHEET_LABELS
10
983.6309
20
-727.2846
30
0.0
40
3.2
1
120.00'
50
270.4166666666667
0
POINT
8
SHEET_LABELS
10
987.2616
20
-814.0000
30
0.0
0
TEXT
8
SHEET_LABELS
10
968.0000
20
-590.0000
30
0.0
40
8.0
1
LOT B2-Lot9   PASS
50
0.0
0
TEXT
8
SHEET_LABELS
10
968.0000
20
-601.0000
30
0.0
40
4.6
1
AREA 6,000 SF (0.138 ac)
50
0.0
0
TEXT
8
SHEET_LABELS
10
968.0000
20
-608.0000
30
0.0
40
4.0
1
PERIMETER 340.00'   VERTICES 4   CLOSING SIDE 120.00'
50
0.0
0
TEXT
8
SHEET_LABELS
10
968.0000
20
-615.0000
30
0.0
40
3.4
1
all geometric checks passed: closed single polyline, no self-intersection, no overlap, no spikes
50
0.0
0
LINE
8
SHEET_FRAME
10
1280.0000
20
-840.0000
30
0.0
11
1580.0000
21
-840.0000
31
0.0
0
LINE
8
SHEET_FRAME
10
1580.0000
20
-840.0000
30
0.0
11
1580.0000
21
-580.0000
31
0.0
0
LINE
8
SHEET_FRAME
10
1580.0000
20
-580.0000
30
0.0
11
1280.0000
21
-580.0000
31
0.0
0
LINE
8
SHEET_FRAME
10
1280.0000
20
-580.0000
30
0.0
11
1280.0000
21
-840.0000
31
0.0
0
POLYLINE
8
LOT_POLYLINE
66
1
70
1
0
VERTEX
8
LOT_POLYLINE
10
1306.0000
20
-640.5257
30
0.0
0
VERTEX
8
LOT_POLYLINE
10
1378.2810
20
-640.0000
30
0.0
0
VERTEX
8
LOT_POLYLINE
10
1379.5425
20
-813.4743
30
0.0
0
VERTEX
8
LOT_POLYLINE
10
1307.2616
20
-814.0000
30
0.0
0
SEQEND
0
TEXT
8
SHEET_LABELS
10
1342.1623
20
-643.2627
30
0.0
40
3.4
1
N89°35'00.00"E
50
0.4166666666666998
0
TEXT
8
SHEET_LABELS
10
1342.1187
20
-637.2629
30
0.0
40
3.2
1
50.00'
50
0.4166666666666998
0
POINT
8
SHEET_LABELS
10
1306.0000
20
-640.5257
30
0.0
0
TEXT
8
SHEET_LABELS
10
1381.9117
20
-726.7154
30
0.0
40
3.4
1
S00°25'00.00"E
50
270.4166666666667
0
TEXT
8
SHEET_LABELS
10
1375.9118
20
-726.7590
30
0.0
40
3.2
1
120.00'
50
270.4166666666667
0
POINT
8
SHEET_LABELS
10
1378.2810
20
-640.0000
30
0.0
0
TEXT
8
SHEET_LABELS
10
1343.4239
20
-816.7371
30
0.0
40
3.4
1
S89°35'00.00"W
50
0.41666666666674246
0
TEXT
8
SHEET_LABELS
10
1343.3802
20
-810.7373
30
0.0
40
3.2
1
50.00'
50
0.41666666666674246
0
POINT
8
SHEET_LABELS
10
1379.5425
20
-813.4743
30
0.0
0
TEXT
8
SHEET_LABELS
10
1309.6307
20
-727.2410
30
0.0
40
3.4
1
N00°25'00.00"W
50
270.4166666666667
0
TEXT
8
SHEET_LABELS
10
1303.6309
20
-727.2846
30
0.0
40
3.2
1
120.00'
50
270.4166666666667
0
POINT
8
SHEET_LABELS
10
1307.2616
20
-814.0000
30
0.0
0
TEXT
8
SHEET_LABELS
10
1288.0000
20
-590.0000
30
0.0
40
8.0
1
LOT B2-Lot10   PASS
50
0.0
0
TEXT
8
SHEET_LABELS
10
1288.0000
20
-601.0000
30
0.0
40
4.6
1
AREA 6,000 SF (0.138 ac)
50
0.0
0
TEXT
8
SHEET_LABELS
10
1288.0000
20
-608.0000
30
0.0
40
4.0
1
PERIMETER 340.00'   VERTICES 4   CLOSING SIDE 120.00'
50
0.0
0
TEXT
8
SHEET_LABELS
10
1288.0000
20
-615.0000
30
0.0
40
3.4
1
all geometric checks passed: closed single polyline, no self-intersection, no overlap, no spikes
50
0.0
0
ENDSEC
0
EOF
