0
SECTION
2
HEADER
9
$ACADVER
1
AC1009
9
$DWGCODEPAGE
3
ANSI_1252
0
ENDSEC
0
SECTION
2
TABLES
0
TABLE
2
LTYPE
70
8
0
LTYPE
2
CONTINUOUS
70
0
3
Solid
72
65
73
0
40
0.0
0
LTYPE
2
DASHED
70
0
3
Dashed
72
65
73
2
40
0.75
49
0.5
74
0
49
-0.25
74
0
0
LTYPE
2
DASHED2
70
0
3
Dashed (.5x)
72
65
73
2
40
0.375
49
0.25
74
0
49
-0.125
74
0
0
LTYPE
2
HIDDEN
70
0
3
Hidden
72
65
73
2
40
0.375
49
0.25
74
0
49
-0.125
74
0
0
LTYPE
2
CENTER
70
0
3
Center
72
65
73
4
40
2.0
49
1.25
74
0
49
-0.25
74
0
49
0.25
74
0
49
-0.25
74
0
0
LTYPE
2
PHANTOM
70
0
3
Phantom
72
65
73
6
40
2.5
49
1.25
74
0
49
-0.25
74
0
49
0.25
74
0
49
-0.25
74
0
49
0.25
74
0
49
-0.25
74
0
0
LTYPE
2
ROT_2.41
70
0
3
Solid
72
65
73
0
40
0.0
0
LTYPE
2
ROT_272.41
70
0
3
Solid
72
65
73
0
40
0.0
0
ENDTAB
0
TABLE
2
LAYER
70
6
0
LAYER
2
0
70
0
62
7
6
CONTINUOUS
0
LAYER
2
LOT_POLYLINE
70
0
62
4
6
CONTINUOUS
0
LAYER
2
ERROR
70
0
62
1
6
CONTINUOUS
0
LAYER
2
SHEET_LABELS
70
0
62
7
6
CONTINUOUS
0
LAYER
2
SHEET_FRAME
70
0
62
8
6
CONTINUOUS
0
LAYER
2
TITLEBLOCK
70
0
62
2
6
CONTINUOUS
0
ENDTAB
0
TABLE
2
STYLE
70
4
0
STYLE
2
STANDARD
70
0
40
0.0
41
1.0
50
0.0
71
0
42
0.2
3
Arial
4

0
STYLE
2
ARIAL
70
0
40
0.0
41
1.0
50
0.0
71
0
42
0.2
3
Arial
4

0
STYLE
2
ARIAL_TTF
70
0
40
0.0
41
1.0
50
0.0
71
0
42
0.2
3
arial.ttf
4

0
STYLE
2
SIMPLEX
70
0
40
0.0
41
1.0
50
0.0
71
0
42
0.2
3
simplex.shx
4

0
ENDTAB
0
ENDSEC
0
SECTION
2
ENTITIES
0
LINE
8
SHEET_FRAME
10
0.0000
20
0.0000
30
0.0
11
300.0000
21
0.0000
31
0.0
0
LINE
8
SHEET_FRAME
10
300.0000
20
0.0000
30
0.0
11
300.0000
21
260.0000
31
0.0
0
LINE
8
SHEET_FRAME
10
300.0000
20
260.0000
30
0.0
11
0.0000
21
260.0000
31
0.0
0
LINE
8
SHEET_FRAME
10
0.0000
20
260.0000
30
0.0
11
0.0000
21
0.0000
31
0.0
0
POLYLINE
8
LOT_POLYLINE
66
1
70
1
0
VERTEX
8
LOT_POLYLINE
10
26.0000
20
192.7417
30
0.0
0
VERTEX
8
LOT_POLYLINE
10
198.5777
20
200.0000
30
0.0
0
VERTEX
8
LOT_POLYLINE
10
205.5905
20
33.2583
30
0.0
0
VERTEX
8
LOT_POLYLINE
10
33.0128
20
26.0000
30
0.0
0
SEQEND
0
TEXT
8
SHEET_LABELS
6
ROT_2.41
7
STANDARD
10
112.4149
20
193.3735
30
0.0
40
3.4
1
N87%%d35'30.00"E
50
2.41
0
TEXT
8
SHEET_LABELS
6
ROT_2.41
7
STANDARD
10
112.1628
20
199.3682
30
0.0
40
3.2
1
103.50'
50
2.41
0
POINT
8
SHEET_LABELS
10
26.0000
20
192.7417
30
0.0
0
TEXT
8
SHEET_LABELS
6
ROT_272.41
7
STANDARD
10
205.0814
20
116.7552
30
0.0
40
3.4
1
S02%%d24'30.00"E
50
272.41
0
TEXT
8
SHEET_LABELS
6
ROT_272.41
7
STANDARD
10
199.0867
20
116.5031
30
0.0
40
3.2
1
100.00'
50
272.41
0
POINT
8
SHEET_LABELS
10
198.5777
20
200.0000
30
0.0
0
TEXT
8
SHEET_LABELS
6
ROT_2.41
7
STANDARD
10
119.4277
20
26.6318
30
0.0
40
3.4
1
S87%%d35'30.00"W
50
2.41
0
TEXT
8
SHEET_LABELS
6
ROT_2.41
7
STANDARD
10
119.1756
20
32.6265
30
0.0
40
3.2
1
103.50'
50
2.41
0
POINT
8
SHEET_LABELS
10
205.5905
20
33.2583
30
0.0
0
TEXT
8
SHEET_LABELS
6
ROT_272.41
7
STANDARD
10
32.5038
20
109.4969
30
0.0
40
3.4
1
N02%%d24'30.00"W
50
272.41
0
TEXT
8
SHEET_LABELS
6
ROT_272.41
7
STANDARD
10
26.5091
20
109.2448
30
0.0
40
3.2
1
100.00'
50
272.41
0
POINT
8
SHEET_LABELS
10
33.0128
20
26.0000
30
0.0
0
TEXT
8
SHEET_LABELS
7
STANDARD
10
8.0000
20
250.0000
30
0.0
40
8.0
1
LOT Blk18-L1   PASS
50
0.0
0
TEXT
8
SHEET_LABELS
7
STANDARD
10
8.0000
20
239.0000
30
0.0
40
4.6
1
AREA 10,350 SF (0.238 ac)
50
0.0
0
TEXT
8
SHEET_LABELS
7
STANDARD
10
8.0000
20
232.0000
30
0.0
40
4.0
1
PERIMETER 407.00'   VERTICES 4   CLOSING SIDE 100.00'
50
0.0
0
TEXT
8
SHEET_LABELS
7
STANDARD
10
8.0000
20
225.0000
30
0.0
40
3.4
1
all geometric checks passed: closed single polyline, no self-intersection, no overlap, no spikes
50
0.0
0
LINE
8
SHEET_FRAME
10
320.0000
20
0.0000
30
0.0
11
620.0000
21
0.0000
31
0.0
0
LINE
8
SHEET_FRAME
10
620.0000
20
0.0000
30
0.0
11
620.0000
21
260.0000
31
0.0
0
LINE
8
SHEET_FRAME
10
620.0000
20
260.0000
30
0.0
11
320.0000
21
260.0000
31
0.0
0
LINE
8
SHEET_FRAME
10
320.0000
20
260.0000
30
0.0
11
320.0000
21
0.0000
31
0.0
0
POLYLINE
8
LOT_POLYLINE
66
1
70
1
0
VERTEX
8
LOT_POLYLINE
10
346.0000
20
194.6793
30
0.0
0
VERTEX
8
LOT_POLYLINE
10
472.5094
20
200.0000
30
0.0
0
VERTEX
8
LOT_POLYLINE
10
479.6038
20
31.3207
30
0.0
0
VERTEX
8
LOT_POLYLINE
10
353.0943
20
26.0000
30
0.0
0
SEQEND
0
TEXT
8
SHEET_LABELS
6
ROT_2.41
7
STANDARD
10
409.3808
20
194.3423
30
0.0
40
3.4
1
N87%%d35'30.00"E
50
2.41
0
TEXT
8
SHEET_LABELS
6
ROT_2.41
7
STANDARD
10
409.1287
20
200.3370
30
0.0
40
3.2
1
75.00'
50
2.41
0
POINT
8
SHEET_LABELS
10
346.0000
20
194.6793
30
0.0
0
TEXT
8
SHEET_LABELS
6
ROT_272.41
7
STANDARD
10
479.0540
20
115.7864
30
0.0
40
3.4
1
S02%%d24'30.00"E
50
272.41
0
TEXT
8
SHEET_LABELS
6
ROT_272.41
7
STANDARD
10
473.0593
20
115.5343
30
0.0
40
3.2
1
100.00'
50
272.41
0
POINT
8
SHEET_LABELS
10
472.5094
20
200.0000
30
0.0
0
TEXT
8
SHEET_LABELS
6
ROT_2.41
7
STANDARD
10
416.4751
20
25.6630
30
0.0
40
3.4
1
S87%%d35'30.00"W
50
2.41
0
TEXT
8
SHEET_LABELS
6
ROT_2.41
7
STANDARD
10
416.2230
20
31.6577
30
0.0
40
3.2
1
75.00'
50
2.41
0
POINT
8
SHEET_LABELS
10
479.6038
20
31.3207
30
0.0
0
TEXT
8
SHEET_LABELS
6
ROT_272.41
7
STANDARD
10
352.5445
20
110.4657
30
0.0
40
3.4
1
N02%%d24'30.00"W
50
272.41
0
TEXT
8
SHEET_LABELS
6
ROT_272.41
7
STANDARD
10
346.5498
20
110.2136
30
0.0
40
3.2
1
100.00'
50
272.41
0
POINT
8
SHEET_LABELS
10
353.0943
20
26.0000
30
0.0
0
TEXT
8
SHEET_LABELS
7
STANDARD
10
328.0000
20
250.0000
30
0.0
40
8.0
1
LOT Blk18-L2   PASS
50
0.0
0
TEXT
8
SHEET_LABELS
7
STANDARD
10
328.0000
20
239.0000
30
0.0
40
4.6
1
AREA 7,500 SF (0.172 ac)
50
0.0
0
TEXT
8
SHEET_LABELS
7
STANDARD
10
328.0000
20
232.0000
30
0.0
40
4.0
1
PERIMETER 350.00'   VERTICES 4   CLOSING SIDE 100.00'
50
0.0
0
TEXT
8
SHEET_LABELS
7
STANDARD
10
328.0000
20
225.0000
30
0.0
40
3.4
1
all geometric checks passed: closed single polyline, no self-intersection, no overlap, no spikes
50
0.0
0
LINE
8
SHEET_FRAME
10
640.0000
20
0.0000
30
0.0
11
940.0000
21
0.0000
31
0.0
0
LINE
8
SHEET_FRAME
10
940.0000
20
0.0000
30
0.0
11
940.0000
21
260.0000
31
0.0
0
LINE
8
SHEET_FRAME
10
940.0000
20
260.0000
30
0.0
11
640.0000
21
260.0000
31
0.0
0
LINE
8
SHEET_FRAME
10
640.0000
20
260.0000
30
0.0
11
640.0000
21
0.0000
31
0.0
0
POLYLINE
8
LOT_POLYLINE
66
1
70
1
0
VERTEX
8
LOT_POLYLINE
10
666.0000
20
194.6793
30
0.0
0
VERTEX
8
LOT_POLYLINE
10
792.5094
20
200.0000
30
0.0
0
VERTEX
8
LOT_POLYLINE
10
799.6038
20
31.3207
30
0.0
0
VERTEX
8
LOT_POLYLINE
10
673.0943
20
26.0000
30
0.0
0
SEQEND
0
TEXT
8
SHEET_LABELS
6
ROT_2.41
7
STANDARD
10
729.3808
20
194.3423
30
0.0
40
3.4
1
N87%%d35'30.00"E
50
2.41
0
TEXT
8
SHEET_LABELS
6
ROT_2.41
7
STANDARD
10
729.1287
20
200.3370
30
0.0
40
3.2
1
75.00'
50
2.41
0
POINT
8
SHEET_LABELS
10
666.0000
20
194.6793
30
0.0
0
TEXT
8
SHEET_LABELS
6
ROT_272.41
7
STANDARD
10
799.0540
20
115.7864
30
0.0
40
3.4
1
S02%%d24'30.00"E
50
272.41
0
TEXT
8
SHEET_LABELS
6
ROT_272.41
7
STANDARD
10
793.0593
20
115.5343
30
0.0
40
3.2
1
100.00'
50
272.41
0
POINT
8
SHEET_LABELS
10
792.5094
20
200.0000
30
0.0
0
TEXT
8
SHEET_LABELS
6
ROT_2.41
7
STANDARD
10
736.4751
20
25.6630
30
0.0
40
3.4
1
S87%%d35'30.00"W
50
2.41
0
TEXT
8
SHEET_LABELS
6
ROT_2.41
7
STANDARD
10
736.2230
20
31.6577
30
0.0
40
3.2
1
75.00'
50
2.41
0
POINT
8
SHEET_LABELS
10
799.6038
20
31.3207
30
0.0
0
TEXT
8
SHEET_LABELS
6
ROT_272.41
7
STANDARD
10
672.5445
20
110.4657
30
0.0
40
3.4
1
N02%%d24'30.00"W
50
272.41
0
TEXT
8
SHEET_LABELS
6
ROT_272.41
7
STANDARD
10
666.5498
20
110.2136
30
0.0
40
3.2
1
100.00'
50
272.41
0
POINT
8
SHEET_LABELS
10
673.0943
20
26.0000
30
0.0
0
TEXT
8
SHEET_LABELS
7
STANDARD
10
648.0000
20
250.0000
30
0.0
40
8.0
1
LOT Blk18-L3   PASS
50
0.0
0
TEXT
8
SHEET_LABELS
7
STANDARD
10
648.0000
20
239.0000
30
0.0
40
4.6
1
AREA 7,500 SF (0.172 ac)
50
0.0
0
TEXT
8
SHEET_LABELS
7
STANDARD
10
648.0000
20
232.0000
30
0.0
40
4.0
1
PERIMETER 350.00'   VERTICES 4   CLOSING SIDE 100.00'
50
0.0
0
TEXT
8
SHEET_LABELS
7
STANDARD
10
648.0000
20
225.0000
30
0.0
40
3.4
1
all geometric checks passed: closed single polyline, no self-intersection, no overlap, no spikes
50
0.0
0
LINE
8
SHEET_FRAME
10
960.0000
20
0.0000
30
0.0
11
1260.0000
21
0.0000
31
0.0
0
LINE
8
SHEET_FRAME
10
1260.0000
20
0.0000
30
0.0
11
1260.0000
21
260.0000
31
0.0
0
LINE
8
SHEET_FRAME
10
1260.0000
20
260.0000
30
0.0
11
960.0000
21
260.0000
31
0.0
0
LINE
8
SHEET_FRAME
10
960.0000
20
260.0000
30
0.0
11
960.0000
21
0.0000
31
0.0
0
POLYLINE
8
LOT_POLYLINE
66
1
70
1
0
VERTEX
8
LOT_POLYLINE
10
986.0000
20
194.6793
30
0.0
0
VERTEX
8
LOT_POLYLINE
10
1112.5094
20
200.0000
30
0.0
0
VERTEX
8
LOT_POLYLINE
10
1119.6038
20
31.3207
30
0.0
0
VERTEX
8
LOT_POLYLINE
10
993.0943
20
26.0000
30
0.0
0
SEQEND
0
TEXT
8
SHEET_LABELS
6
ROT_2.41
7
STANDARD
10
1049.3808
20
194.3423
30
0.0
40
3.4
1
N87%%d35'30.00"E
50
2.41
0
TEXT
8
SHEET_LABELS
6
ROT_2.41
7
STANDARD
10
1049.1287
20
200.3370
30
0.0
40
3.2
1
75.00'
50
2.41
0
POINT
8
SHEET_LABELS
10
986.0000
20
194.6793
30
0.0
0
TEXT
8
SHEET_LABELS
6
ROT_272.41
7
STANDARD
10
1119.0540
20
115.7864
30
0.0
40
3.4
1
S02%%d24'30.00"E
50
272.41
0
TEXT
8
SHEET_LABELS
6
ROT_272.41
7
STANDARD
10
1113.0593
20
115.5343
30
0.0
40
3.2
1
100.00'
50
272.41
0
POINT
8
SHEET_LABELS
10
1112.5094
20
200.0000
30
0.0
0
TEXT
8
SHEET_LABELS
6
ROT_2.41
7
STANDARD
10
1056.4751
20
25.6630
30
0.0
40
3.4
1
S87%%d35'30.00"W
50
2.41
0
TEXT
8
SHEET_LABELS
6
ROT_2.41
7
STANDARD
10
1056.2230
20
31.6577
30
0.0
40
3.2
1
75.00'
50
2.41
0
POINT
8
SHEET_LABELS
10
1119.6038
20
31.3207
30
0.0
0
TEXT
8
SHEET_LABELS
6
ROT_272.41
7
STANDARD
10
992.5445
20
110.4657
30
0.0
40
3.4
1
N02%%d24'30.00"W
50
272.41
0
TEXT
8
SHEET_LABELS
6
ROT_272.41
7
STANDARD
10
986.5498
20
110.2136
30
0.0
40
3.2
1
100.00'
50
272.41
0
POINT
8
SHEET_LABELS
10
993.0943
20
26.0000
30
0.0
0
TEXT
8
SHEET_LABELS
7
STANDARD
10
968.0000
20
250.0000
30
0.0
40
8.0
1
LOT Blk18-L4   PASS
50
0.0
0
TEXT
8
SHEET_LABELS
7
STANDARD
10
968.0000
20
239.0000
30
0.0
40
4.6
1
AREA 7,500 SF (0.172 ac)
50
0.0
0
TEXT
8
SHEET_LABELS
7
STANDARD
10
968.0000
20
232.0000
30
0.0
40
4.0
1
PERIMETER 350.00'   VERTICES 4   CLOSING SIDE 100.00'
50
0.0
0
TEXT
8
SHEET_LABELS
7
STANDARD
10
968.0000
20
225.0000
30
0.0
40
3.4
1
all geometric checks passed: closed single polyline, no self-intersection, no overlap, no spikes
50
0.0
0
LINE
8
SHEET_FRAME
10
1280.0000
20
0.0000
30
0.0
11
1580.0000
21
0.0000
31
0.0
0
LINE
8
SHEET_FRAME
10
1580.0000
20
0.0000
30
0.0
11
1580.0000
21
260.0000
31
0.0
0
LINE
8
SHEET_FRAME
10
1580.0000
20
260.0000
30
0.0
11
1280.0000
21
260.0000
31
0.0
0
LINE
8
SHEET_FRAME
10
1280.0000
20
260.0000
30
0.0
11
1280.0000
21
0.0000
31
0.0
0
POLYLINE
8
LOT_POLYLINE
66
1
70
1
0
VERTEX
8
LOT_POLYLINE
10
1306.0000
20
194.6793
30
0.0
0
VERTEX
8
LOT_POLYLINE
10
1432.5094
20
200.0000
30
0.0
0
VERTEX
8
LOT_POLYLINE
10
1439.6038
20
31.3207
30
0.0
0
VERTEX
8
LOT_POLYLINE
10
1313.0943
20
26.0000
30
0.0
0
SEQEND
0
TEXT
8
SHEET_LABELS
6
ROT_2.41
7
STANDARD
10
1369.3808
20
194.3423
30
0.0
40
3.4
1
N87%%d35'30.00"E
50
2.41
0
TEXT
8
SHEET_LABELS
6
ROT_2.41
7
STANDARD
10
1369.1287
20
200.3370
30
0.0
40
3.2
1
75.00'
50
2.41
0
POINT
8
SHEET_LABELS
10
1306.0000
20
194.6793
30
0.0
0
TEXT
8
SHEET_LABELS
6
ROT_272.41
7
STANDARD
10
1439.0540
20
115.7864
30
0.0
40
3.4
1
S02%%d24'30.00"E
50
272.41
0
TEXT
8
SHEET_LABELS
6
ROT_272.41
7
STANDARD
10
1433.0593
20
115.5343
30
0.0
40
3.2
1
100.00'
50
272.41
0
POINT
8
SHEET_LABELS
10
1432.5094
20
200.0000
30
0.0
0
TEXT
8
SHEET_LABELS
6
ROT_2.41
7
STANDARD
10
1376.4751
20
25.6630
30
0.0
40
3.4
1
S87%%d35'30.00"W
50
2.41
0
TEXT
8
SHEET_LABELS
6
ROT_2.41
7
STANDARD
10
1376.2230
20
31.6577
30
0.0
40
3.2
1
75.00'
50
2.41
0
POINT
8
SHEET_LABELS
10
1439.6038
20
31.3207
30
0.0
0
TEXT
8
SHEET_LABELS
6
ROT_272.41
7
STANDARD
10
1312.5445
20
110.4657
30
0.0
40
3.4
1
N02%%d24'30.00"W
50
272.41
0
TEXT
8
SHEET_LABELS
6
ROT_272.41
7
STANDARD
10
1306.5498
20
110.2136
30
0.0
40
3.2
1
100.00'
50
272.41
0
POINT
8
SHEET_LABELS
10
1313.0943
20
26.0000
30
0.0
0
TEXT
8
SHEET_LABELS
7
STANDARD
10
1288.0000
20
250.0000
30
0.0
40
8.0
1
LOT Blk18-L5   PASS
50
0.0
0
TEXT
8
SHEET_LABELS
7
STANDARD
10
1288.0000
20
239.0000
30
0.0
40
4.6
1
AREA 7,500 SF (0.172 ac)
50
0.0
0
TEXT
8
SHEET_LABELS
7
STANDARD
10
1288.0000
20
232.0000
30
0.0
40
4.0
1
PERIMETER 350.00'   VERTICES 4   CLOSING SIDE 100.00'
50
0.0
0
TEXT
8
SHEET_LABELS
7
STANDARD
10
1288.0000
20
225.0000
30
0.0
40
3.4
1
all geometric checks passed: closed single polyline, no self-intersection, no overlap, no spikes
50
0.0
0
LINE
8
SHEET_FRAME
10
1600.0000
20
0.0000
30
0.0
11
1900.0000
21
0.0000
31
0.0
0
LINE
8
SHEET_FRAME
10
1900.0000
20
0.0000
30
0.0
11
1900.0000
21
260.0000
31
0.0
0
LINE
8
SHEET_FRAME
10
1900.0000
20
260.0000
30
0.0
11
1600.0000
21
260.0000
31
0.0
0
LINE
8
SHEET_FRAME
10
1600.0000
20
260.0000
30
0.0
11
1600.0000
21
0.0000
31
0.0
0
POLYLINE
8
LOT_POLYLINE
66
1
70
1
0
VERTEX
8
LOT_POLYLINE
10
1626.0000
20
194.6793
30
0.0
0
VERTEX
8
LOT_POLYLINE
10
1752.5094
20
200.0000
30
0.0
0
VERTEX
8
LOT_POLYLINE
10
1759.6038
20
31.3207
30
0.0
0
VERTEX
8
LOT_POLYLINE
10
1633.0943
20
26.0000
30
0.0
0
SEQEND
0
TEXT
8
SHEET_LABELS
6
ROT_2.41
7
STANDARD
10
1689.3808
20
194.3423
30
0.0
40
3.4
1
N87%%d35'30.00"E
50
2.41
0
TEXT
8
SHEET_LABELS
6
ROT_2.41
7
STANDARD
10
1689.1287
20
200.3370
30
0.0
40
3.2
1
75.00'
50
2.41
0
POINT
8
SHEET_LABELS
10
1626.0000
20
194.6793
30
0.0
0
TEXT
8
SHEET_LABELS
6
ROT_272.41
7
STANDARD
10
1759.0540
20
115.7864
30
0.0
40
3.4
1
S02%%d24'30.00"E
50
272.41
0
TEXT
8
SHEET_LABELS
6
ROT_272.41
7
STANDARD
10
1753.0593
20
115.5343
30
0.0
40
3.2
1
100.00'
50
272.41
0
POINT
8
SHEET_LABELS
10
1752.5094
20
200.0000
30
0.0
0
TEXT
8
SHEET_LABELS
6
ROT_2.41
7
STANDARD
10
1696.4751
20
25.6630
30
0.0
40
3.4
1
S87%%d35'30.00"W
50
2.41
0
TEXT
8
SHEET_LABELS
6
ROT_2.41
7
STANDARD
10
1696.2230
20
31.6577
30
0.0
40
3.2
1
75.00'
50
2.41
0
POINT
8
SHEET_LABELS
10
1759.6038
20
31.3207
30
0.0
0
TEXT
8
SHEET_LABELS
6
ROT_272.41
7
STANDARD
10
1632.5445
20
110.4657
30
0.0
40
3.4
1
N02%%d24'30.00"W
50
272.41
0
TEXT
8
SHEET_LABELS
6
ROT_272.41
7
STANDARD
10
1626.5498
20
110.2136
30
0.0
40
3.2
1
100.00'
50
272.41
0
POINT
8
SHEET_LABELS
10
1633.0943
20
26.0000
30
0.0
0
TEXT
8
SHEET_LABELS
7
STANDARD
10
1608.0000
20
250.0000
30
0.0
40
8.0
1
LOT Blk18-L6   PASS
50
0.0
0
TEXT
8
SHEET_LABELS
7
STANDARD
10
1608.0000
20
239.0000
30
0.0
40
4.6
1
AREA 7,500 SF (0.172 ac)
50
0.0
0
TEXT
8
SHEET_LABELS
7
STANDARD
10
1608.0000
20
232.0000
30
0.0
40
4.0
1
PERIMETER 350.00'   VERTICES 4   CLOSING SIDE 100.00'
50
0.0
0
TEXT
8
SHEET_LABELS
7
STANDARD
10
1608.0000
20
225.0000
30
0.0
40
3.4
1
all geometric checks passed: closed single polyline, no self-intersection, no overlap, no spikes
50
0.0
0
LINE
8
SHEET_FRAME
10
1920.0000
20
0.0000
30
0.0
11
2220.0000
21
0.0000
31
0.0
0
LINE
8
SHEET_FRAME
10
2220.0000
20
0.0000
30
0.0
11
2220.0000
21
260.0000
31
0.0
0
LINE
8
SHEET_FRAME
10
2220.0000
20
260.0000
30
0.0
11
1920.0000
21
260.0000
31
0.0
0
LINE
8
SHEET_FRAME
10
1920.0000
20
260.0000
30
0.0
11
1920.0000
21
0.0000
31
0.0
0
POLYLINE
8
LOT_POLYLINE
66
1
70
1
0
VERTEX
8
LOT_POLYLINE
10
1946.0000
20
194.6793
30
0.0
0
VERTEX
8
LOT_POLYLINE
10
2072.5094
20
200.0000
30
0.0
0
VERTEX
8
LOT_POLYLINE
10
2079.6038
20
31.3207
30
0.0
0
VERTEX
8
LOT_POLYLINE
10
1953.0943
20
26.0000
30
0.0
0
SEQEND
0
TEXT
8
SHEET_LABELS
6
ROT_2.41
7
STANDARD
10
2009.3808
20
194.3423
30
0.0
40
3.4
1
N87%%d35'30.00"E
50
2.41
0
TEXT
8
SHEET_LABELS
6
ROT_2.41
7
STANDARD
10
2009.1287
20
200.3370
30
0.0
40
3.2
1
75.00'
50
2.41
0
POINT
8
SHEET_LABELS
10
1946.0000
20
194.6793
30
0.0
0
TEXT
8
SHEET_LABELS
6
ROT_272.41
7
STANDARD
10
2079.0540
20
115.7864
30
0.0
40
3.4
1
S02%%d24'30.00"E
50
272.41
0
TEXT
8
SHEET_LABELS
6
ROT_272.41
7
STANDARD
10
2073.0593
20
115.5343
30
0.0
40
3.2
1
100.00'
50
272.41
0
POINT
8
SHEET_LABELS
10
2072.5094
20
200.0000
30
0.0
0
TEXT
8
SHEET_LABELS
6
ROT_2.41
7
STANDARD
10
2016.4751
20
25.6630
30
0.0
40
3.4
1
S87%%d35'30.00"W
50
2.41
0
TEXT
8
SHEET_LABELS
6
ROT_2.41
7
STANDARD
10
2016.2230
20
31.6577
30
0.0
40
3.2
1
75.00'
50
2.41
0
POINT
8
SHEET_LABELS
10
2079.6038
20
31.3207
30
0.0
0
TEXT
8
SHEET_LABELS
6
ROT_272.41
7
STANDARD
10
1952.5445
20
110.4657
30
0.0
40
3.4
1
N02%%d24'30.00"W
50
272.41
0
TEXT
8
SHEET_LABELS
6
ROT_272.41
7
STANDARD
10
1946.5498
20
110.2136
30
0.0
40
3.2
1
100.00'
50
272.41
0
POINT
8
SHEET_LABELS
10
1953.0943
20
26.0000
30
0.0
0
TEXT
8
SHEET_LABELS
7
STANDARD
10
1928.0000
20
250.0000
30
0.0
40
8.0
1
LOT Blk18-L7   PASS
50
0.0
0
TEXT
8
SHEET_LABELS
7
STANDARD
10
1928.0000
20
239.0000
30
0.0
40
4.6
1
AREA 7,500 SF (0.172 ac)
50
0.0
0
TEXT
8
SHEET_LABELS
7
STANDARD
10
1928.0000
20
232.0000
30
0.0
40
4.0
1
PERIMETER 350.00'   VERTICES 4   CLOSING SIDE 100.00'
50
0.0
0
TEXT
8
SHEET_LABELS
7
STANDARD
10
1928.0000
20
225.0000
30
0.0
40
3.4
1
all geometric checks passed: closed single polyline, no self-intersection, no overlap, no spikes
50
0.0
0
LINE
8
SHEET_FRAME
10
2240.0000
20
0.0000
30
0.0
11
2540.0000
21
0.0000
31
0.0
0
LINE
8
SHEET_FRAME
10
2540.0000
20
0.0000
30
0.0
11
2540.0000
21
260.0000
31
0.0
0
LINE
8
SHEET_FRAME
10
2540.0000
20
260.0000
30
0.0
11
2240.0000
21
260.0000
31
0.0
0
LINE
8
SHEET_FRAME
10
2240.0000
20
260.0000
30
0.0
11
2240.0000
21
0.0000
31
0.0
0
POLYLINE
8
LOT_POLYLINE
66
1
70
1
0
VERTEX
8
LOT_POLYLINE
10
2266.0000
20
194.6793
30
0.0
0
VERTEX
8
LOT_POLYLINE
10
2392.5094
20
200.0000
30
0.0
0
VERTEX
8
LOT_POLYLINE
10
2399.6038
20
31.3207
30
0.0
0
VERTEX
8
LOT_POLYLINE
10
2273.0943
20
26.0000
30
0.0
0
SEQEND
0
TEXT
8
SHEET_LABELS
6
ROT_2.41
7
STANDARD
10
2329.3808
20
194.3423
30
0.0
40
3.4
1
N87%%d35'30.00"E
50
2.41
0
TEXT
8
SHEET_LABELS
6
ROT_2.41
7
STANDARD
10
2329.1287
20
200.3370
30
0.0
40
3.2
1
75.00'
50
2.41
0
POINT
8
SHEET_LABELS
10
2266.0000
20
194.6793
30
0.0
0
TEXT
8
SHEET_LABELS
6
ROT_272.41
7
STANDARD
10
2399.0540
20
115.7864
30
0.0
40
3.4
1
S02%%d24'30.00"E
50
272.41
0
TEXT
8
SHEET_LABELS
6
ROT_272.41
7
STANDARD
10
2393.0593
20
115.5343
30
0.0
40
3.2
1
100.00'
50
272.41
0
POINT
8
SHEET_LABELS
10
2392.5094
20
200.0000
30
0.0
0
TEXT
8
SHEET_LABELS
6
ROT_2.41
7
STANDARD
10
2336.4751
20
25.6630
30
0.0
40
3.4
1
S87%%d35'30.00"W
50
2.41
0
TEXT
8
SHEET_LABELS
6
ROT_2.41
7
STANDARD
10
2336.2230
20
31.6577
30
0.0
40
3.2
1
75.00'
50
2.41
0
POINT
8
SHEET_LABELS
10
2399.6038
20
31.3207
30
0.0
0
TEXT
8
SHEET_LABELS
6
ROT_272.41
7
STANDARD
10
2272.5445
20
110.4657
30
0.0
40
3.4
1
N02%%d24'30.00"W
50
272.41
0
TEXT
8
SHEET_LABELS
6
ROT_272.41
7
STANDARD
10
2266.5498
20
110.2136
30
0.0
40
3.2
1
100.00'
50
272.41
0
POINT
8
SHEET_LABELS
10
2273.0943
20
26.0000
30
0.0
0
TEXT
8
SHEET_LABELS
7
STANDARD
10
2248.0000
20
250.0000
30
0.0
40
8.0
1
LOT Blk18-L8   PASS
50
0.0
0
TEXT
8
SHEET_LABELS
7
STANDARD
10
2248.0000
20
239.0000
30
0.0
40
4.6
1
AREA 7,500 SF (0.172 ac)
50
0.0
0
TEXT
8
SHEET_LABELS
7
STANDARD
10
2248.0000
20
232.0000
30
0.0
40
4.0
1
PERIMETER 350.00'   VERTICES 4   CLOSING SIDE 100.00'
50
0.0
0
TEXT
8
SHEET_LABELS
7
STANDARD
10
2248.0000
20
225.0000
30
0.0
40
3.4
1
all geometric checks passed: closed single polyline, no self-intersection, no overlap, no spikes
50
0.0
0
LINE
8
SHEET_FRAME
10
2560.0000
20
0.0000
30
0.0
11
2860.0000
21
0.0000
31
0.0
0
LINE
8
SHEET_FRAME
10
2860.0000
20
0.0000
30
0.0
11
2860.0000
21
260.0000
31
0.0
0
LINE
8
SHEET_FRAME
10
2860.0000
20
260.0000
30
0.0
11
2560.0000
21
260.0000
31
0.0
0
LINE
8
SHEET_FRAME
10
2560.0000
20
260.0000
30
0.0
11
2560.0000
21
0.0000
31
0.0
0
POLYLINE
8
LOT_POLYLINE
66
1
70
1
0
VERTEX
8
LOT_POLYLINE
10
2586.0000
20
194.6793
30
0.0
0
VERTEX
8
LOT_POLYLINE
10
2712.5094
20
200.0000
30
0.0
0
VERTEX
8
LOT_POLYLINE
10
2719.6038
20
31.3207
30
0.0
0
VERTEX
8
LOT_POLYLINE
10
2593.0943
20
26.0000
30
0.0
0
SEQEND
0
TEXT
8
SHEET_LABELS
6
ROT_2.41
7
STANDARD
10
2649.3808
20
194.3423
30
0.0
40
3.4
1
N87%%d35'30.00"E
50
2.41
0
TEXT
8
SHEET_LABELS
6
ROT_2.41
7
STANDARD
10
2649.1287
20
200.3370
30
0.0
40
3.2
1
75.00'
50
2.41
0
POINT
8
SHEET_LABELS
10
2586.0000
20
194.6793
30
0.0
0
TEXT
8
SHEET_LABELS
6
ROT_272.41
7
STANDARD
10
2719.0540
20
115.7864
30
0.0
40
3.4
1
S02%%d24'30.00"E
50
272.41
0
TEXT
8
SHEET_LABELS
6
ROT_272.41
7
STANDARD
10
2713.0593
20
115.5343
30
0.0
40
3.2
1
100.00'
50
272.41
0
POINT
8
SHEET_LABELS
10
2712.5094
20
200.0000
30
0.0
0
TEXT
8
SHEET_LABELS
6
ROT_2.41
7
STANDARD
10
2656.4751
20
25.6630
30
0.0
40
3.4
1
S87%%d35'30.00"W
50
2.41
0
TEXT
8
SHEET_LABELS
6
ROT_2.41
7
STANDARD
10
2656.2230
20
31.6577
30
0.0
40
3.2
1
75.00'
50
2.41
0
POINT
8
SHEET_LABELS
10
2719.6038
20
31.3207
30
0.0
0
TEXT
8
SHEET_LABELS
6
ROT_272.41
7
STANDARD
10
2592.5445
20
110.4657
30
0.0
40
3.4
1
N02%%d24'30.00"W
50
272.41
0
TEXT
8
SHEET_LABELS
6
ROT_272.41
7
STANDARD
10
2586.5498
20
110.2136
30
0.0
40
3.2
1
100.00'
50
272.41
0
POINT
8
SHEET_LABELS
10
2593.0943
20
26.0000
30
0.0
0
TEXT
8
SHEET_LABELS
7
STANDARD
10
2568.0000
20
250.0000
30
0.0
40
8.0
1
LOT Blk18-L9   PASS
50
0.0
0
TEXT
8
SHEET_LABELS
7
STANDARD
10
2568.0000
20
239.0000
30
0.0
40
4.6
1
AREA 7,500 SF (0.172 ac)
50
0.0
0
TEXT
8
SHEET_LABELS
7
STANDARD
10
2568.0000
20
232.0000
30
0.0
40
4.0
1
PERIMETER 350.00'   VERTICES 4   CLOSING SIDE 100.00'
50
0.0
0
TEXT
8
SHEET_LABELS
7
STANDARD
10
2568.0000
20
225.0000
30
0.0
40
3.4
1
all geometric checks passed: closed single polyline, no self-intersection, no overlap, no spikes
50
0.0
0
LINE
8
SHEET_FRAME
10
2880.0000
20
0.0000
30
0.0
11
3180.0000
21
0.0000
31
0.0
0
LINE
8
SHEET_FRAME
10
3180.0000
20
0.0000
30
0.0
11
3180.0000
21
260.0000
31
0.0
0
LINE
8
SHEET_FRAME
10
3180.0000
20
260.0000
30
0.0
11
2880.0000
21
260.0000
31
0.0
0
LINE
8
SHEET_FRAME
10
2880.0000
20
260.0000
30
0.0
11
2880.0000
21
0.0000
31
0.0
0
POLYLINE
8
LOT_POLYLINE
66
1
70
1
0
VERTEX
8
LOT_POLYLINE
10
2906.0000
20
194.6793
30
0.0
0
VERTEX
8
LOT_POLYLINE
10
3032.5094
20
200.0000
30
0.0
0
VERTEX
8
LOT_POLYLINE
10
3039.6038
20
31.3207
30
0.0
0
VERTEX
8
LOT_POLYLINE
10
2913.0943
20
26.0000
30
0.0
0
SEQEND
0
TEXT
8
SHEET_LABELS
6
ROT_2.41
7
STANDARD
10
2969.3808
20
194.3423
30
0.0
40
3.4
1
N87%%d35'30.00"E
50
2.41
0
TEXT
8
SHEET_LABELS
6
ROT_2.41
7
STANDARD
10
2969.1287
20
200.3370
30
0.0
40
3.2
1
75.00'
50
2.41
0
POINT
8
SHEET_LABELS
10
2906.0000
20
194.6793
30
0.0
0
TEXT
8
SHEET_LABELS
6
ROT_272.41
7
STANDARD
10
3039.0540
20
115.7864
30
0.0
40
3.4
1
S02%%d24'30.00"E
50
272.41
0
TEXT
8
SHEET_LABELS
6
ROT_272.41
7
STANDARD
10
3033.0593
20
115.5343
30
0.0
40
3.2
1
100.00'
50
272.41
0
POINT
8
SHEET_LABELS
10
3032.5094
20
200.0000
30
0.0
0
TEXT
8
SHEET_LABELS
6
ROT_2.41
7
STANDARD
10
2976.4751
20
25.6630
30
0.0
40
3.4
1
S87%%d35'30.00"W
50
2.41
0
TEXT
8
SHEET_LABELS
6
ROT_2.41
7
STANDARD
10
2976.2230
20
31.6577
30
0.0
40
3.2
1
75.00'
50
2.41
0
POINT
8
SHEET_LABELS
10
3039.6038
20
31.3207
30
0.0
0
TEXT
8
SHEET_LABELS
6
ROT_272.41
7
STANDARD
10
2912.5445
20
110.4657
30
0.0
40
3.4
1
N02%%d24'30.00"W
50
272.41
0
TEXT
8
SHEET_LABELS
6
ROT_272.41
7
STANDARD
10
2906.5498
20
110.2136
30
0.0
40
3.2
1
100.00'
50
272.41
0
POINT
8
SHEET_LABELS
10
2913.0943
20
26.0000
30
0.0
0
TEXT
8
SHEET_LABELS
7
STANDARD
10
2888.0000
20
250.0000
30
0.0
40
8.0
1
LOT Blk18-L10   PASS
50
0.0
0
TEXT
8
SHEET_LABELS
7
STANDARD
10
2888.0000
20
239.0000
30
0.0
40
4.6
1
AREA 7,500 SF (0.172 ac)
50
0.0
0
TEXT
8
SHEET_LABELS
7
STANDARD
10
2888.0000
20
232.0000
30
0.0
40
4.0
1
PERIMETER 350.00'   VERTICES 4   CLOSING SIDE 100.00'
50
0.0
0
TEXT
8
SHEET_LABELS
7
STANDARD
10
2888.0000
20
225.0000
30
0.0
40
3.4
1
all geometric checks passed: closed single polyline, no self-intersection, no overlap, no spikes
50
0.0
0
LINE
8
SHEET_FRAME
10
0.0000
20
-280.0000
30
0.0
11
300.0000
21
-280.0000
31
0.0
0
LINE
8
SHEET_FRAME
10
300.0000
20
-280.0000
30
0.0
11
300.0000
21
-20.0000
31
0.0
0
LINE
8
SHEET_FRAME
10
300.0000
20
-20.0000
30
0.0
11
0.0000
21
-20.0000
31
0.0
0
LINE
8
SHEET_FRAME
10
0.0000
20
-20.0000
30
0.0
11
0.0000
21
-280.0000
31
0.0
0
POLYLINE
8
LOT_POLYLINE
66
1
70
1
0
VERTEX
8
LOT_POLYLINE
10
26.0000
20
-85.3207
30
0.0
0
VERTEX
8
LOT_POLYLINE
10
152.5094
20
-80.0000
30
0.0
0
VERTEX
8
LOT_POLYLINE
10
159.6038
20
-248.6793
30
0.0
0
VERTEX
8
LOT_POLYLINE
10
33.0943
20
-254.0000
30
0.0
0
SEQEND
0
TEXT
8
SHEET_LABELS
6
ROT_2.41
7
STANDARD
10
89.3808
20
-85.6577
30
0.0
40
3.4
1
N87%%d35'30.00"E
50
2.41
0
TEXT
8
SHEET_LABELS
6
ROT_2.41
7
STANDARD
10
89.1287
20
-79.6630
30
0.0
40
3.2
1
75.00'
50
2.41
0
POINT
8
SHEET_LABELS
10
26.0000
20
-85.3207
30
0.0
0
TEXT
8
SHEET_LABELS
6
ROT_272.41
7
STANDARD
10
159.0540
20
-164.2136
30
0.0
40
3.4
1
S02%%d24'30.00"E
50
272.41
0
TEXT
8
SHEET_LABELS
6
ROT_272.41
7
STANDARD
10
153.0593
20
-164.4657
30
0.0
40
3.2
1
100.00'
50
272.41
0
POINT
8
SHEET_LABELS
10
152.5094
20
-80.0000
30
0.0
0
TEXT
8
SHEET_LABELS
6
ROT_2.41
7
STANDARD
10
96.4751
20
-254.3370
30
0.0
40
3.4
1
S87%%d35'30.00"W
50
2.41
0
TEXT
8
SHEET_LABELS
6
ROT_2.41
7
STANDARD
10
96.2230
20
-248.3423
30
0.0
40
3.2
1
75.00'
50
2.41
0
POINT
8
SHEET_LABELS
10
159.6038
20
-248.6793
30
0.0
0
TEXT
8
SHEET_LABELS
6
ROT_272.41
7
STANDARD
10
32.5445
20
-169.5343
30
0.0
40
3.4
1
N02%%d24'30.00"W
50
272.41
0
TEXT
8
SHEET_LABELS
6
ROT_272.41
7
STANDARD
10
26.5498
20
-169.7864
30
0.0
40
3.2
1
100.00'
50
272.41
0
POINT
8
SHEET_LABELS
10
33.0943
20
-254.0000
30
0.0
0
TEXT
8
SHEET_LABELS
7
STANDARD
10
8.0000
20
-30.0000
30
0.0
40
8.0
1
LOT Blk18-L11   PASS
50
0.0
0
TEXT
8
SHEET_LABELS
7
STANDARD
10
8.0000
20
-41.0000
30
0.0
40
4.6
1
AREA 7,500 SF (0.172 ac)
50
0.0
0
TEXT
8
SHEET_LABELS
7
STANDARD
10
8.0000
20
-48.0000
30
0.0
40
4.0
1
PERIMETER 350.00'   VERTICES 4   CLOSING SIDE 100.00'
50
0.0
0
TEXT
8
SHEET_LABELS
7
STANDARD
10
8.0000
20
-55.0000
30
0.0
40
3.4
1
all geometric checks passed: closed single polyline, no self-intersection, no overlap, no spikes
50
0.0
0
LINE
8
SHEET_FRAME
10
320.0000
20
-280.0000
30
0.0
11
620.0000
21
-280.0000
31
0.0
0
LINE
8
SHEET_FRAME
10
620.0000
20
-280.0000
30
0.0
11
620.0000
21
-20.0000
31
0.0
0
LINE
8
SHEET_FRAME
10
620.0000
20
-20.0000
30
0.0
11
320.0000
21
-20.0000
31
0.0
0
LINE
8
SHEET_FRAME
10
320.0000
20
-20.0000
30
0.0
11
320.0000
21
-280.0000
31
0.0
0
POLYLINE
8
LOT_POLYLINE
66
1
70
1
0
VERTEX
8
LOT_POLYLINE
10
346.0000
20
-85.3207
30
0.0
0
VERTEX
8
LOT_POLYLINE
10
472.5094
20
-80.0000
30
0.0
0
VERTEX
8
LOT_POLYLINE
10
479.6038
20
-248.6793
30
0.0
0
VERTEX
8
LOT_POLYLINE
10
353.0943
20
-254.0000
30
0.0
0
SEQEND
0
TEXT
8
SHEET_LABELS
6
ROT_2.41
7
STANDARD
10
409.3808
20
-85.6577
30
0.0
40
3.4
1
N87%%d35'30.00"E
50
2.41
0
TEXT
8
SHEET_LABELS
6
ROT_2.41
7
STANDARD
10
409.1287
20
-79.6630
30
0.0
40
3.2
1
75.00'
50
2.41
0
POINT
8
SHEET_LABELS
10
346.0000
20
-85.3207
30
0.0
0
TEXT
8
SHEET_LABELS
6
ROT_272.41
7
STANDARD
10
479.0540
20
-164.2136
30
0.0
40
3.4
1
S02%%d24'30.00"E
50
272.41
0
TEXT
8
SHEET_LABELS
6
ROT_272.41
7
STANDARD
10
473.0593
20
-164.4657
30
0.0
40
3.2
1
100.00'
50
272.41
0
POINT
8
SHEET_LABELS
10
472.5094
20
-80.0000
30
0.0
0
TEXT
8
SHEET_LABELS
6
ROT_2.41
7
STANDARD
10
416.4751
20
-254.3370
30
0.0
40
3.4
1
S87%%d35'30.00"W
50
2.41
0
TEXT
8
SHEET_LABELS
6
ROT_2.41
7
STANDARD
10
416.2230
20
-248.3423
30
0.0
40
3.2
1
75.00'
50
2.41
0
POINT
8
SHEET_LABELS
10
479.6038
20
-248.6793
30
0.0
0
TEXT
8
SHEET_LABELS
6
ROT_272.41
7
STANDARD
10
352.5445
20
-169.5343
30
0.0
40
3.4
1
N02%%d24'30.00"W
50
272.41
0
TEXT
8
SHEET_LABELS
6
ROT_272.41
7
STANDARD
10
346.5498
20
-169.7864
30
0.0
40
3.2
1
100.00'
50
272.41
0
POINT
8
SHEET_LABELS
10
353.0943
20
-254.0000
30
0.0
0
TEXT
8
SHEET_LABELS
7
STANDARD
10
328.0000
20
-30.0000
30
0.0
40
8.0
1
LOT Blk18-L12   PASS
50
0.0
0
TEXT
8
SHEET_LABELS
7
STANDARD
10
328.0000
20
-41.0000
30
0.0
40
4.6
1
AREA 7,500 SF (0.172 ac)
50
0.0
0
TEXT
8
SHEET_LABELS
7
STANDARD
10
328.0000
20
-48.0000
30
0.0
40
4.0
1
PERIMETER 350.00'   VERTICES 4   CLOSING SIDE 100.00'
50
0.0
0
TEXT
8
SHEET_LABELS
7
STANDARD
10
328.0000
20
-55.0000
30
0.0
40
3.4
1
all geometric checks passed: closed single polyline, no self-intersection, no overlap, no spikes
50
0.0
0
LINE
8
SHEET_FRAME
10
640.0000
20
-280.0000
30
0.0
11
940.0000
21
-280.0000
31
0.0
0
LINE
8
SHEET_FRAME
10
940.0000
20
-280.0000
30
0.0
11
940.0000
21
-20.0000
31
0.0
0
LINE
8
SHEET_FRAME
10
940.0000
20
-20.0000
30
0.0
11
640.0000
21
-20.0000
31
0.0
0
LINE
8
SHEET_FRAME
10
640.0000
20
-20.0000
30
0.0
11
640.0000
21
-280.0000
31
0.0
0
POLYLINE
8
LOT_POLYLINE
66
1
70
1
0
VERTEX
8
LOT_POLYLINE
10
666.0000
20
-85.3207
30
0.0
0
VERTEX
8
LOT_POLYLINE
10
792.5094
20
-80.0000
30
0.0
0
VERTEX
8
LOT_POLYLINE
10
799.6038
20
-248.6793
30
0.0
0
VERTEX
8
LOT_POLYLINE
10
673.0943
20
-254.0000
30
0.0
0
SEQEND
0
TEXT
8
SHEET_LABELS
6
ROT_2.41
7
STANDARD
10
729.3808
20
-85.6577
30
0.0
40
3.4
1
N87%%d35'30.00"E
50
2.41
0
TEXT
8
SHEET_LABELS
6
ROT_2.41
7
STANDARD
10
729.1287
20
-79.6630
30
0.0
40
3.2
1
75.00'
50
2.41
0
POINT
8
SHEET_LABELS
10
666.0000
20
-85.3207
30
0.0
0
TEXT
8
SHEET_LABELS
6
ROT_272.41
7
STANDARD
10
799.0540
20
-164.2136
30
0.0
40
3.4
1
S02%%d24'30.00"E
50
272.41
0
TEXT
8
SHEET_LABELS
6
ROT_272.41
7
STANDARD
10
793.0593
20
-164.4657
30
0.0
40
3.2
1
100.00'
50
272.41
0
POINT
8
SHEET_LABELS
10
792.5094
20
-80.0000
30
0.0
0
TEXT
8
SHEET_LABELS
6
ROT_2.41
7
STANDARD
10
736.4751
20
-254.3370
30
0.0
40
3.4
1
S87%%d35'30.00"W
50
2.41
0
TEXT
8
SHEET_LABELS
6
ROT_2.41
7
STANDARD
10
736.2230
20
-248.3423
30
0.0
40
3.2
1
75.00'
50
2.41
0
POINT
8
SHEET_LABELS
10
799.6038
20
-248.6793
30
0.0
0
TEXT
8
SHEET_LABELS
6
ROT_272.41
7
STANDARD
10
672.5445
20
-169.5343
30
0.0
40
3.4
1
N02%%d24'30.00"W
50
272.41
0
TEXT
8
SHEET_LABELS
6
ROT_272.41
7
STANDARD
10
666.5498
20
-169.7864
30
0.0
40
3.2
1
100.00'
50
272.41
0
POINT
8
SHEET_LABELS
10
673.0943
20
-254.0000
30
0.0
0
TEXT
8
SHEET_LABELS
7
STANDARD
10
648.0000
20
-30.0000
30
0.0
40
8.0
1
LOT Blk18-L13   PASS
50
0.0
0
TEXT
8
SHEET_LABELS
7
STANDARD
10
648.0000
20
-41.0000
30
0.0
40
4.6
1
AREA 7,500 SF (0.172 ac)
50
0.0
0
TEXT
8
SHEET_LABELS
7
STANDARD
10
648.0000
20
-48.0000
30
0.0
40
4.0
1
PERIMETER 350.00'   VERTICES 4   CLOSING SIDE 100.00'
50
0.0
0
TEXT
8
SHEET_LABELS
7
STANDARD
10
648.0000
20
-55.0000
30
0.0
40
3.4
1
all geometric checks passed: closed single polyline, no self-intersection, no overlap, no spikes
50
0.0
0
LINE
8
SHEET_FRAME
10
960.0000
20
-280.0000
30
0.0
11
1260.0000
21
-280.0000
31
0.0
0
LINE
8
SHEET_FRAME
10
1260.0000
20
-280.0000
30
0.0
11
1260.0000
21
-20.0000
31
0.0
0
LINE
8
SHEET_FRAME
10
1260.0000
20
-20.0000
30
0.0
11
960.0000
21
-20.0000
31
0.0
0
LINE
8
SHEET_FRAME
10
960.0000
20
-20.0000
30
0.0
11
960.0000
21
-280.0000
31
0.0
0
POLYLINE
8
LOT_POLYLINE
66
1
70
1
0
VERTEX
8
LOT_POLYLINE
10
986.0000
20
-85.3207
30
0.0
0
VERTEX
8
LOT_POLYLINE
10
1112.5094
20
-80.0000
30
0.0
0
VERTEX
8
LOT_POLYLINE
10
1119.6038
20
-248.6793
30
0.0
0
VERTEX
8
LOT_POLYLINE
10
993.0943
20
-254.0000
30
0.0
0
SEQEND
0
TEXT
8
SHEET_LABELS
6
ROT_2.41
7
STANDARD
10
1049.3808
20
-85.6577
30
0.0
40
3.4
1
N87%%d35'30.00"E
50
2.41
0
TEXT
8
SHEET_LABELS
6
ROT_2.41
7
STANDARD
10
1049.1287
20
-79.6630
30
0.0
40
3.2
1
75.00'
50
2.41
0
POINT
8
SHEET_LABELS
10
986.0000
20
-85.3207
30
0.0
0
TEXT
8
SHEET_LABELS
6
ROT_272.41
7
STANDARD
10
1119.0540
20
-164.2136
30
0.0
40
3.4
1
S02%%d24'30.00"E
50
272.41
0
TEXT
8
SHEET_LABELS
6
ROT_272.41
7
STANDARD
10
1113.0593
20
-164.4657
30
0.0
40
3.2
1
100.00'
50
272.41
0
POINT
8
SHEET_LABELS
10
1112.5094
20
-80.0000
30
0.0
0
TEXT
8
SHEET_LABELS
6
ROT_2.41
7
STANDARD
10
1056.4751
20
-254.3370
30
0.0
40
3.4
1
S87%%d35'30.00"W
50
2.41
0
TEXT
8
SHEET_LABELS
6
ROT_2.41
7
STANDARD
10
1056.2230
20
-248.3423
30
0.0
40
3.2
1
75.00'
50
2.41
0
POINT
8
SHEET_LABELS
10
1119.6038
20
-248.6793
30
0.0
0
TEXT
8
SHEET_LABELS
6
ROT_272.41
7
STANDARD
10
992.5445
20
-169.5343
30
0.0
40
3.4
1
N02%%d24'30.00"W
50
272.41
0
TEXT
8
SHEET_LABELS
6
ROT_272.41
7
STANDARD
10
986.5498
20
-169.7864
30
0.0
40
3.2
1
100.00'
50
272.41
0
POINT
8
SHEET_LABELS
10
993.0943
20
-254.0000
30
0.0
0
TEXT
8
SHEET_LABELS
7
STANDARD
10
968.0000
20
-30.0000
30
0.0
40
8.0
1
LOT Blk18-L14   PASS
50
0.0
0
TEXT
8
SHEET_LABELS
7
STANDARD
10
968.0000
20
-41.0000
30
0.0
40
4.6
1
AREA 7,500 SF (0.172 ac)
50
0.0
0
TEXT
8
SHEET_LABELS
7
STANDARD
10
968.0000
20
-48.0000
30
0.0
40
4.0
1
PERIMETER 350.00'   VERTICES 4   CLOSING SIDE 100.00'
50
0.0
0
TEXT
8
SHEET_LABELS
7
STANDARD
10
968.0000
20
-55.0000
30
0.0
40
3.4
1
all geometric checks passed: closed single polyline, no self-intersection, no overlap, no spikes
50
0.0
0
LINE
8
SHEET_FRAME
10
1280.0000
20
-280.0000
30
0.0
11
1580.0000
21
-280.0000
31
0.0
0
LINE
8
SHEET_FRAME
10
1580.0000
20
-280.0000
30
0.0
11
1580.0000
21
-20.0000
31
0.0
0
LINE
8
SHEET_FRAME
10
1580.0000
20
-20.0000
30
0.0
11
1280.0000
21
-20.0000
31
0.0
0
LINE
8
SHEET_FRAME
10
1280.0000
20
-20.0000
30
0.0
11
1280.0000
21
-280.0000
31
0.0
0
POLYLINE
8
LOT_POLYLINE
66
1
70
1
0
VERTEX
8
LOT_POLYLINE
10
1306.0000
20
-85.3207
30
0.0
0
VERTEX
8
LOT_POLYLINE
10
1432.5094
20
-80.0000
30
0.0
0
VERTEX
8
LOT_POLYLINE
10
1439.6038
20
-248.6793
30
0.0
0
VERTEX
8
LOT_POLYLINE
10
1313.0943
20
-254.0000
30
0.0
0
SEQEND
0
TEXT
8
SHEET_LABELS
6
ROT_2.41
7
STANDARD
10
1369.3808
20
-85.6577
30
0.0
40
3.4
1
N87%%d35'30.00"E
50
2.41
0
TEXT
8
SHEET_LABELS
6
ROT_2.41
7
STANDARD
10
1369.1287
20
-79.6630
30
0.0
40
3.2
1
75.00'
50
2.41
0
POINT
8
SHEET_LABELS
10
1306.0000
20
-85.3207
30
0.0
0
TEXT
8
SHEET_LABELS
6
ROT_272.41
7
STANDARD
10
1439.0540
20
-164.2136
30
0.0
40
3.4
1
S02%%d24'30.00"E
50
272.41
0
TEXT
8
SHEET_LABELS
6
ROT_272.41
7
STANDARD
10
1433.0593
20
-164.4657
30
0.0
40
3.2
1
100.00'
50
272.41
0
POINT
8
SHEET_LABELS
10
1432.5094
20
-80.0000
30
0.0
0
TEXT
8
SHEET_LABELS
6
ROT_2.41
7
STANDARD
10
1376.4751
20
-254.3370
30
0.0
40
3.4
1
S87%%d35'30.00"W
50
2.41
0
TEXT
8
SHEET_LABELS
6
ROT_2.41
7
STANDARD
10
1376.2230
20
-248.3423
30
0.0
40
3.2
1
75.00'
50
2.41
0
POINT
8
SHEET_LABELS
10
1439.6038
20
-248.6793
30
0.0
0
TEXT
8
SHEET_LABELS
6
ROT_272.41
7
STANDARD
10
1312.5445
20
-169.5343
30
0.0
40
3.4
1
N02%%d24'30.00"W
50
272.41
0
TEXT
8
SHEET_LABELS
6
ROT_272.41
7
STANDARD
10
1306.5498
20
-169.7864
30
0.0
40
3.2
1
100.00'
50
272.41
0
POINT
8
SHEET_LABELS
10
1313.0943
20
-254.0000
30
0.0
0
TEXT
8
SHEET_LABELS
7
STANDARD
10
1288.0000
20
-30.0000
30
0.0
40
8.0
1
LOT Blk18-L15   PASS
50
0.0
0
TEXT
8
SHEET_LABELS
7
STANDARD
10
1288.0000
20
-41.0000
30
0.0
40
4.6
1
AREA 7,500 SF (0.172 ac)
50
0.0
0
TEXT
8
SHEET_LABELS
7
STANDARD
10
1288.0000
20
-48.0000
30
0.0
40
4.0
1
PERIMETER 350.00'   VERTICES 4   CLOSING SIDE 100.00'
50
0.0
0
TEXT
8
SHEET_LABELS
7
STANDARD
10
1288.0000
20
-55.0000
30
0.0
40
3.4
1
all geometric checks passed: closed single polyline, no self-intersection, no overlap, no spikes
50
0.0
0
LINE
8
SHEET_FRAME
10
1600.0000
20
-280.0000
30
0.0
11
1900.0000
21
-280.0000
31
0.0
0
LINE
8
SHEET_FRAME
10
1900.0000
20
-280.0000
30
0.0
11
1900.0000
21
-20.0000
31
0.0
0
LINE
8
SHEET_FRAME
10
1900.0000
20
-20.0000
30
0.0
11
1600.0000
21
-20.0000
31
0.0
0
LINE
8
SHEET_FRAME
10
1600.0000
20
-20.0000
30
0.0
11
1600.0000
21
-280.0000
31
0.0
0
POLYLINE
8
LOT_POLYLINE
66
1
70
1
0
VERTEX
8
LOT_POLYLINE
10
1626.0000
20
-85.3207
30
0.0
0
VERTEX
8
LOT_POLYLINE
10
1752.5094
20
-80.0000
30
0.0
0
VERTEX
8
LOT_POLYLINE
10
1759.6038
20
-248.6793
30
0.0
0
VERTEX
8
LOT_POLYLINE
10
1633.0943
20
-254.0000
30
0.0
0
SEQEND
0
TEXT
8
SHEET_LABELS
6
ROT_2.41
7
STANDARD
10
1689.3808
20
-85.6577
30
0.0
40
3.4
1
N87%%d35'30.00"E
50
2.41
0
TEXT
8
SHEET_LABELS
6
ROT_2.41
7
STANDARD
10
1689.1287
20
-79.6630
30
0.0
40
3.2
1
75.00'
50
2.41
0
POINT
8
SHEET_LABELS
10
1626.0000
20
-85.3207
30
0.0
0
TEXT
8
SHEET_LABELS
6
ROT_272.41
7
STANDARD
10
1759.0540
20
-164.2136
30
0.0
40
3.4
1
S02%%d24'30.00"E
50
272.41
0
TEXT
8
SHEET_LABELS
6
ROT_272.41
7
STANDARD
10
1753.0593
20
-164.4657
30
0.0
40
3.2
1
100.00'
50
272.41
0
POINT
8
SHEET_LABELS
10
1752.5094
20
-80.0000
30
0.0
0
TEXT
8
SHEET_LABELS
6
ROT_2.41
7
STANDARD
10
1696.4751
20
-254.3370
30
0.0
40
3.4
1
S87%%d35'30.00"W
50
2.41
0
TEXT
8
SHEET_LABELS
6
ROT_2.41
7
STANDARD
10
1696.2230
20
-248.3423
30
0.0
40
3.2
1
75.00'
50
2.41
0
POINT
8
SHEET_LABELS
10
1759.6038
20
-248.6793
30
0.0
0
TEXT
8
SHEET_LABELS
6
ROT_272.41
7
STANDARD
10
1632.5445
20
-169.5343
30
0.0
40
3.4
1
N02%%d24'30.00"W
50
272.41
0
TEXT
8
SHEET_LABELS
6
ROT_272.41
7
STANDARD
10
1626.5498
20
-169.7864
30
0.0
40
3.2
1
100.00'
50
272.41
0
POINT
8
SHEET_LABELS
10
1633.0943
20
-254.0000
30
0.0
0
TEXT
8
SHEET_LABELS
7
STANDARD
10
1608.0000
20
-30.0000
30
0.0
40
8.0
1
LOT Blk18-L16   PASS
50
0.0
0
TEXT
8
SHEET_LABELS
7
STANDARD
10
1608.0000
20
-41.0000
30
0.0
40
4.6
1
AREA 7,500 SF (0.172 ac)
50
0.0
0
TEXT
8
SHEET_LABELS
7
STANDARD
10
1608.0000
20
-48.0000
30
0.0
40
4.0
1
PERIMETER 350.00'   VERTICES 4   CLOSING SIDE 100.00'
50
0.0
0
TEXT
8
SHEET_LABELS
7
STANDARD
10
1608.0000
20
-55.0000
30
0.0
40
3.4
1
all geometric checks passed: closed single polyline, no self-intersection, no overlap, no spikes
50
0.0
0
LINE
8
SHEET_FRAME
10
1920.0000
20
-280.0000
30
0.0
11
2220.0000
21
-280.0000
31
0.0
0
LINE
8
SHEET_FRAME
10
2220.0000
20
-280.0000
30
0.0
11
2220.0000
21
-20.0000
31
0.0
0
LINE
8
SHEET_FRAME
10
2220.0000
20
-20.0000
30
0.0
11
1920.0000
21
-20.0000
31
0.0
0
LINE
8
SHEET_FRAME
10
1920.0000
20
-20.0000
30
0.0
11
1920.0000
21
-280.0000
31
0.0
0
POLYLINE
8
LOT_POLYLINE
66
1
70
1
0
VERTEX
8
LOT_POLYLINE
10
1946.0000
20
-85.3207
30
0.0
0
VERTEX
8
LOT_POLYLINE
10
2072.5094
20
-80.0000
30
0.0
0
VERTEX
8
LOT_POLYLINE
10
2079.6038
20
-248.6793
30
0.0
0
VERTEX
8
LOT_POLYLINE
10
1953.0943
20
-254.0000
30
0.0
0
SEQEND
0
TEXT
8
SHEET_LABELS
6
ROT_2.41
7
STANDARD
10
2009.3808
20
-85.6577
30
0.0
40
3.4
1
N87%%d35'30.00"E
50
2.41
0
TEXT
8
SHEET_LABELS
6
ROT_2.41
7
STANDARD
10
2009.1287
20
-79.6630
30
0.0
40
3.2
1
75.00'
50
2.41
0
POINT
8
SHEET_LABELS
10
1946.0000
20
-85.3207
30
0.0
0
TEXT
8
SHEET_LABELS
6
ROT_272.41
7
STANDARD
10
2079.0540
20
-164.2136
30
0.0
40
3.4
1
S02%%d24'30.00"E
50
272.41
0
TEXT
8
SHEET_LABELS
6
ROT_272.41
7
STANDARD
10
2073.0593
20
-164.4657
30
0.0
40
3.2
1
100.00'
50
272.41
0
POINT
8
SHEET_LABELS
10
2072.5094
20
-80.0000
30
0.0
0
TEXT
8
SHEET_LABELS
6
ROT_2.41
7
STANDARD
10
2016.4751
20
-254.3370
30
0.0
40
3.4
1
S87%%d35'30.00"W
50
2.41
0
TEXT
8
SHEET_LABELS
6
ROT_2.41
7
STANDARD
10
2016.2230
20
-248.3423
30
0.0
40
3.2
1
75.00'
50
2.41
0
POINT
8
SHEET_LABELS
10
2079.6038
20
-248.6793
30
0.0
0
TEXT
8
SHEET_LABELS
6
ROT_272.41
7
STANDARD
10
1952.5445
20
-169.5343
30
0.0
40
3.4
1
N02%%d24'30.00"W
50
272.41
0
TEXT
8
SHEET_LABELS
6
ROT_272.41
7
STANDARD
10
1946.5498
20
-169.7864
30
0.0
40
3.2
1
100.00'
50
272.41
0
POINT
8
SHEET_LABELS
10
1953.0943
20
-254.0000
30
0.0
0
TEXT
8
SHEET_LABELS
7
STANDARD
10
1928.0000
20
-30.0000
30
0.0
40
8.0
1
LOT Blk18-L17   PASS
50
0.0
0
TEXT
8
SHEET_LABELS
7
STANDARD
10
1928.0000
20
-41.0000
30
0.0
40
4.6
1
AREA 7,500 SF (0.172 ac)
50
0.0
0
TEXT
8
SHEET_LABELS
7
STANDARD
10
1928.0000
20
-48.0000
30
0.0
40
4.0
1
PERIMETER 350.00'   VERTICES 4   CLOSING SIDE 100.00'
50
0.0
0
TEXT
8
SHEET_LABELS
7
STANDARD
10
1928.0000
20
-55.0000
30
0.0
40
3.4
1
all geometric checks passed: closed single polyline, no self-intersection, no overlap, no spikes
50
0.0
0
LINE
8
SHEET_FRAME
10
2240.0000
20
-280.0000
30
0.0
11
2540.0000
21
-280.0000
31
0.0
0
LINE
8
SHEET_FRAME
10
2540.0000
20
-280.0000
30
0.0
11
2540.0000
21
-20.0000
31
0.0
0
LINE
8
SHEET_FRAME
10
2540.0000
20
-20.0000
30
0.0
11
2240.0000
21
-20.0000
31
0.0
0
LINE
8
SHEET_FRAME
10
2240.0000
20
-20.0000
30
0.0
11
2240.0000
21
-280.0000
31
0.0
0
POLYLINE
8
LOT_POLYLINE
66
1
70
1
0
VERTEX
8
LOT_POLYLINE
10
2266.0000
20
-85.3207
30
0.0
0
VERTEX
8
LOT_POLYLINE
10
2392.5094
20
-80.0000
30
0.0
0
VERTEX
8
LOT_POLYLINE
10
2399.6038
20
-248.6793
30
0.0
0
VERTEX
8
LOT_POLYLINE
10
2273.0943
20
-254.0000
30
0.0
0
SEQEND
0
TEXT
8
SHEET_LABELS
6
ROT_2.41
7
STANDARD
10
2329.3808
20
-85.6577
30
0.0
40
3.4
1
N87%%d35'30.00"E
50
2.41
0
TEXT
8
SHEET_LABELS
6
ROT_2.41
7
STANDARD
10
2329.1287
20
-79.6630
30
0.0
40
3.2
1
75.00'
50
2.41
0
POINT
8
SHEET_LABELS
10
2266.0000
20
-85.3207
30
0.0
0
TEXT
8
SHEET_LABELS
6
ROT_272.41
7
STANDARD
10
2399.0540
20
-164.2136
30
0.0
40
3.4
1
S02%%d24'30.00"E
50
272.41
0
TEXT
8
SHEET_LABELS
6
ROT_272.41
7
STANDARD
10
2393.0593
20
-164.4657
30
0.0
40
3.2
1
100.00'
50
272.41
0
POINT
8
SHEET_LABELS
10
2392.5094
20
-80.0000
30
0.0
0
TEXT
8
SHEET_LABELS
6
ROT_2.41
7
STANDARD
10
2336.4751
20
-254.3370
30
0.0
40
3.4
1
S87%%d35'30.00"W
50
2.41
0
TEXT
8
SHEET_LABELS
6
ROT_2.41
7
STANDARD
10
2336.2230
20
-248.3423
30
0.0
40
3.2
1
75.00'
50
2.41
0
POINT
8
SHEET_LABELS
10
2399.6038
20
-248.6793
30
0.0
0
TEXT
8
SHEET_LABELS
6
ROT_272.41
7
STANDARD
10
2272.5445
20
-169.5343
30
0.0
40
3.4
1
N02%%d24'30.00"W
50
272.41
0
TEXT
8
SHEET_LABELS
6
ROT_272.41
7
STANDARD
10
2266.5498
20
-169.7864
30
0.0
40
3.2
1
100.00'
50
272.41
0
POINT
8
SHEET_LABELS
10
2273.0943
20
-254.0000
30
0.0
0
TEXT
8
SHEET_LABELS
7
STANDARD
10
2248.0000
20
-30.0000
30
0.0
40
8.0
1
LOT Blk18-L18   PASS
50
0.0
0
TEXT
8
SHEET_LABELS
7
STANDARD
10
2248.0000
20
-41.0000
30
0.0
40
4.6
1
AREA 7,500 SF (0.172 ac)
50
0.0
0
TEXT
8
SHEET_LABELS
7
STANDARD
10
2248.0000
20
-48.0000
30
0.0
40
4.0
1
PERIMETER 350.00'   VERTICES 4   CLOSING SIDE 100.00'
50
0.0
0
TEXT
8
SHEET_LABELS
7
STANDARD
10
2248.0000
20
-55.0000
30
0.0
40
3.4
1
all geometric checks passed: closed single polyline, no self-intersection, no overlap, no spikes
50
0.0
0
LINE
8
SHEET_FRAME
10
2560.0000
20
-280.0000
30
0.0
11
2860.0000
21
-280.0000
31
0.0
0
LINE
8
SHEET_FRAME
10
2860.0000
20
-280.0000
30
0.0
11
2860.0000
21
-20.0000
31
0.0
0
LINE
8
SHEET_FRAME
10
2860.0000
20
-20.0000
30
0.0
11
2560.0000
21
-20.0000
31
0.0
0
LINE
8
SHEET_FRAME
10
2560.0000
20
-20.0000
30
0.0
11
2560.0000
21
-280.0000
31
0.0
0
POLYLINE
8
LOT_POLYLINE
66
1
70
1
0
VERTEX
8
LOT_POLYLINE
10
2586.0000
20
-85.3207
30
0.0
0
VERTEX
8
LOT_POLYLINE
10
2712.5094
20
-80.0000
30
0.0
0
VERTEX
8
LOT_POLYLINE
10
2719.6038
20
-248.6793
30
0.0
0
VERTEX
8
LOT_POLYLINE
10
2593.0943
20
-254.0000
30
0.0
0
SEQEND
0
TEXT
8
SHEET_LABELS
6
ROT_2.41
7
STANDARD
10
2649.3808
20
-85.6577
30
0.0
40
3.4
1
N87%%d35'30.00"E
50
2.41
0
TEXT
8
SHEET_LABELS
6
ROT_2.41
7
STANDARD
10
2649.1287
20
-79.6630
30
0.0
40
3.2
1
75.00'
50
2.41
0
POINT
8
SHEET_LABELS
10
2586.0000
20
-85.3207
30
0.0
0
TEXT
8
SHEET_LABELS
6
ROT_272.41
7
STANDARD
10
2719.0540
20
-164.2136
30
0.0
40
3.4
1
S02%%d24'30.00"E
50
272.41
0
TEXT
8
SHEET_LABELS
6
ROT_272.41
7
STANDARD
10
2713.0593
20
-164.4657
30
0.0
40
3.2
1
100.00'
50
272.41
0
POINT
8
SHEET_LABELS
10
2712.5094
20
-80.0000
30
0.0
0
TEXT
8
SHEET_LABELS
6
ROT_2.41
7
STANDARD
10
2656.4751
20
-254.3370
30
0.0
40
3.4
1
S87%%d35'30.00"W
50
2.41
0
TEXT
8
SHEET_LABELS
6
ROT_2.41
7
STANDARD
10
2656.2230
20
-248.3423
30
0.0
40
3.2
1
75.00'
50
2.41
0
POINT
8
SHEET_LABELS
10
2719.6038
20
-248.6793
30
0.0
0
TEXT
8
SHEET_LABELS
6
ROT_272.41
7
STANDARD
10
2592.5445
20
-169.5343
30
0.0
40
3.4
1
N02%%d24'30.00"W
50
272.41
0
TEXT
8
SHEET_LABELS
6
ROT_272.41
7
STANDARD
10
2586.5498
20
-169.7864
30
0.0
40
3.2
1
100.00'
50
272.41
0
POINT
8
SHEET_LABELS
10
2593.0943
20
-254.0000
30
0.0
0
TEXT
8
SHEET_LABELS
7
STANDARD
10
2568.0000
20
-30.0000
30
0.0
40
8.0
1
LOT Blk18-L19   PASS
50
0.0
0
TEXT
8
SHEET_LABELS
7
STANDARD
10
2568.0000
20
-41.0000
30
0.0
40
4.6
1
AREA 7,500 SF (0.172 ac)
50
0.0
0
TEXT
8
SHEET_LABELS
7
STANDARD
10
2568.0000
20
-48.0000
30
0.0
40
4.0
1
PERIMETER 350.00'   VERTICES 4   CLOSING SIDE 100.00'
50
0.0
0
TEXT
8
SHEET_LABELS
7
STANDARD
10
2568.0000
20
-55.0000
30
0.0
40
3.4
1
all geometric checks passed: closed single polyline, no self-intersection, no overlap, no spikes
50
0.0
0
LINE
8
SHEET_FRAME
10
2880.0000
20
-280.0000
30
0.0
11
3180.0000
21
-280.0000
31
0.0
0
LINE
8
SHEET_FRAME
10
3180.0000
20
-280.0000
30
0.0
11
3180.0000
21
-20.0000
31
0.0
0
LINE
8
SHEET_FRAME
10
3180.0000
20
-20.0000
30
0.0
11
2880.0000
21
-20.0000
31
0.0
0
LINE
8
SHEET_FRAME
10
2880.0000
20
-20.0000
30
0.0
11
2880.0000
21
-280.0000
31
0.0
0
POLYLINE
8
LOT_POLYLINE
66
1
70
1
0
VERTEX
8
LOT_POLYLINE
10
2906.0000
20
-86.5835
30
0.0
0
VERTEX
8
LOT_POLYLINE
10
3062.5344
20
-80.0000
30
0.0
0
VERTEX
8
LOT_POLYLINE
10
3069.5756
20
-247.4165
30
0.0
0
VERTEX
8
LOT_POLYLINE
10
2913.0412
20
-254.0000
30
0.0
0
SEQEND
0
TEXT
8
SHEET_LABELS
6
ROT_2.41
7
STANDARD
10
2984.3933
20
-86.2891
30
0.0
40
3.4
1
N87%%d35'30.00"E
50
2.41
0
TEXT
8
SHEET_LABELS
6
ROT_2.41
7
STANDARD
10
2984.1411
20
-80.2944
30
0.0
40
3.2
1
93.50'
50
2.41
0
POINT
8
SHEET_LABELS
10
2906.0000
20
-86.5835
30
0.0
0
TEXT
8
SHEET_LABELS
6
ROT_272.41
7
STANDARD
10
3069.0523
20
-163.5822
30
0.0
40
3.4
1
S02%%d24'30.00"E
50
272.41
0
TEXT
8
SHEET_LABELS
6
ROT_272.41
7
STANDARD
10
3063.0576
20
-163.8343
30
0.0
40
3.2
1
100.00'
50
272.41
0
POINT
8
SHEET_LABELS
10
3062.5344
20
-80.0000
30
0.0
0
TEXT
8
SHEET_LABELS
6
ROT_2.41
7
STANDARD
10
2991.4345
20
-253.7056
30
0.0
40
3.4
1
S87%%d35'30.00"W
50
2.41
0
TEXT
8
SHEET_LABELS
6
ROT_2.41
7
STANDARD
10
2991.1824
20
-247.7109
30
0.0
40
3.2
1
93.50'
50
2.41
0
POINT
8
SHEET_LABELS
10
3069.5756
20
-247.4165
30
0.0
0
TEXT
8
SHEET_LABELS
6
ROT_272.41
7
STANDARD
10
2912.5180
20
-170.1657
30
0.0
40
3.4
1
N02%%d24'30.00"W
50
272.41
0
TEXT
8
SHEET_LABELS
6
ROT_272.41
7
STANDARD
10
2906.5233
20
-170.4178
30
0.0
40
3.2
1
100.00'
50
272.41
0
POINT
8
SHEET_LABELS
10
2913.0412
20
-254.0000
30
0.0
0
TEXT
8
SHEET_LABELS
7
STANDARD
10
2888.0000
20
-30.0000
30
0.0
40
8.0
1
LOT Blk17N-L1   PASS
50
0.0
0
TEXT
8
SHEET_LABELS
7
STANDARD
10
2888.0000
20
-41.0000
30
0.0
40
4.6
1
AREA 9,350 SF (0.215 ac)
50
0.0
0
TEXT
8
SHEET_LABELS
7
STANDARD
10
2888.0000
20
-48.0000
30
0.0
40
4.0
1
PERIMETER 387.00'   VERTICES 4   CLOSING SIDE 100.00'
50
0.0
0
TEXT
8
SHEET_LABELS
7
STANDARD
10
2888.0000
20
-55.0000
30
0.0
40
3.4
1
all geometric checks passed: closed single polyline, no self-intersection, no overlap, no spikes
50
0.0
0
LINE
8
SHEET_FRAME
10
0.0000
20
-560.0000
30
0.0
11
300.0000
21
-560.0000
31
0.0
0
LINE
8
SHEET_FRAME
10
300.0000
20
-560.0000
30
0.0
11
300.0000
21
-300.0000
31
0.0
0
LINE
8
SHEET_FRAME
10
300.0000
20
-300.0000
30
0.0
11
0.0000
21
-300.0000
31
0.0
0
LINE
8
SHEET_FRAME
10
0.0000
20
-300.0000
30
0.0
11
0.0000
21
-560.0000
31
0.0
0
POLYLINE
8
LOT_POLYLINE
66
1
70
1
0
VERTEX
8
LOT_POLYLINE
10
26.0000
20
-365.3207
30
0.0
0
VERTEX
8
LOT_POLYLINE
10
152.5094
20
-360.0000
30
0.0
0
VERTEX
8
LOT_POLYLINE
10
159.6038
20
-528.6793
30
0.0
0
VERTEX
8
LOT_POLYLINE
10
33.0943
20
-534.0000
30
0.0
0
SEQEND
0
TEXT
8
SHEET_LABELS
6
ROT_2.41
7
STANDARD
10
89.3808
20
-365.6577
30
0.0
40
3.4
1
N87%%d35'30.00"E
50
2.41
0
TEXT
8
SHEET_LABELS
6
ROT_2.41
7
STANDARD
10
89.1287
20
-359.6630
30
0.0
40
3.2
1
75.00'
50
2.41
0
POINT
8
SHEET_LABELS
10
26.0000
20
-365.3207
30
0.0
0
TEXT
8
SHEET_LABELS
6
ROT_272.41
7
STANDARD
10
159.0540
20
-444.2136
30
0.0
40
3.4
1
S02%%d24'30.00"E
50
272.41
0
TEXT
8
SHEET_LABELS
6
ROT_272.41
7
STANDARD
10
153.0593
20
-444.4657
30
0.0
40
3.2
1
100.00'
50
272.41
0
POINT
8
SHEET_LABELS
10
152.5094
20
-360.0000
30
0.0
0
TEXT
8
SHEET_LABELS
6
ROT_2.41
7
STANDARD
10
96.4751
20
-534.3370
30
0.0
40
3.4
1
S87%%d35'30.00"W
50
2.41
0
TEXT
8
SHEET_LABELS
6
ROT_2.41
7
STANDARD
10
96.2230
20
-528.3423
30
0.0
40
3.2
1
75.00'
50
2.41
0
POINT
8
SHEET_LABELS
10
159.6038
20
-528.6793
30
0.0
0
TEXT
8
SHEET_LABELS
6
ROT_272.41
7
STANDARD
10
32.5445
20
-449.5343
30
0.0
40
3.4
1
N02%%d24'30.00"W
50
272.41
0
TEXT
8
SHEET_LABELS
6
ROT_272.41
7
STANDARD
10
26.5498
20
-449.7864
30
0.0
40
3.2
1
100.00'
50
272.41
0
POINT
8
SHEET_LABELS
10
33.0943
20
-534.0000
30
0.0
0
TEXT
8
SHEET_LABELS
7
STANDARD
10
8.0000
20
-310.0000
30
0.0
40
8.0
1
LOT Blk17N-L2   PASS
50
0.0
0
TEXT
8
SHEET_LABELS
7
STANDARD
10
8.0000
20
-321.0000
30
0.0
40
4.6
1
AREA 7,500 SF (0.172 ac)
50
0.0
0
TEXT
8
SHEET_LABELS
7
STANDARD
10
8.0000
20
-328.0000
30
0.0
40
4.0
1
PERIMETER 350.00'   VERTICES 4   CLOSING SIDE 100.00'
50
0.0
0
TEXT
8
SHEET_LABELS
7
STANDARD
10
8.0000
20
-335.0000
30
0.0
40
3.4
1
all geometric checks passed: closed single polyline, no self-intersection, no overlap, no spikes
50
0.0
0
LINE
8
SHEET_FRAME
10
320.0000
20
-560.0000
30
0.0
11
620.0000
21
-560.0000
31
0.0
0
LINE
8
SHEET_FRAME
10
620.0000
20
-560.0000
30
0.0
11
620.0000
21
-300.0000
31
0.0
0
LINE
8
SHEET_FRAME
10
620.0000
20
-300.0000
30
0.0
11
320.0000
21
-300.0000
31
0.0
0
LINE
8
SHEET_FRAME
10
320.0000
20
-300.0000
30
0.0
11
320.0000
21
-560.0000
31
0.0
0
POLYLINE
8
LOT_POLYLINE
66
1
70
1
0
VERTEX
8
LOT_POLYLINE
10
346.0000
20
-365.3207
30
0.0
0
VERTEX
8
LOT_POLYLINE
10
472.5094
20
-360.0000
30
0.0
0
VERTEX
8
LOT_POLYLINE
10
479.6038
20
-528.6793
30
0.0
0
VERTEX
8
LOT_POLYLINE
10
353.0943
20
-534.0000
30
0.0
0
SEQEND
0
TEXT
8
SHEET_LABELS
6
ROT_2.41
7
STANDARD
10
409.3808
20
-365.6577
30
0.0
40
3.4
1
N87%%d35'30.00"E
50
2.41
0
TEXT
8
SHEET_LABELS
6
ROT_2.41
7
STANDARD
10
409.1287
20
-359.6630
30
0.0
40
3.2
1
75.00'
50
2.41
0
POINT
8
SHEET_LABELS
10
346.0000
20
-365.3207
30
0.0
0
TEXT
8
SHEET_LABELS
6
ROT_272.41
7
STANDARD
10
479.0540
20
-444.2136
30
0.0
40
3.4
1
S02%%d24'30.00"E
50
272.41
0
TEXT
8
SHEET_LABELS
6
ROT_272.41
7
STANDARD
10
473.0593
20
-444.4657
30
0.0
40
3.2
1
100.00'
50
272.41
0
POINT
8
SHEET_LABELS
10
472.5094
20
-360.0000
30
0.0
0
TEXT
8
SHEET_LABELS
6
ROT_2.41
7
STANDARD
10
416.4751
20
-534.3370
30
0.0
40
3.4
1
S87%%d35'30.00"W
50
2.41
0
TEXT
8
SHEET_LABELS
6
ROT_2.41
7
STANDARD
10
416.2230
20
-528.3423
30
0.0
40
3.2
1
75.00'
50
2.41
0
POINT
8
SHEET_LABELS
10
479.6038
20
-528.6793
30
0.0
0
TEXT
8
SHEET_LABELS
6
ROT_272.41
7
STANDARD
10
352.5445
20
-449.5343
30
0.0
40
3.4
1
N02%%d24'30.00"W
50
272.41
0
TEXT
8
SHEET_LABELS
6
ROT_272.41
7
STANDARD
10
346.5498
20
-449.7864
30
0.0
40
3.2
1
100.00'
50
272.41
0
POINT
8
SHEET_LABELS
10
353.0943
20
-534.0000
30
0.0
0
TEXT
8
SHEET_LABELS
7
STANDARD
10
328.0000
20
-310.0000
30
0.0
40
8.0
1
LOT Blk17N-L3   PASS
50
0.0
0
TEXT
8
SHEET_LABELS
7
STANDARD
10
328.0000
20
-321.0000
30
0.0
40
4.6
1
AREA 7,500 SF (0.172 ac)
50
0.0
0
TEXT
8
SHEET_LABELS
7
STANDARD
10
328.0000
20
-328.0000
30
0.0
40
4.0
1
PERIMETER 350.00'   VERTICES 4   CLOSING SIDE 100.00'
50
0.0
0
TEXT
8
SHEET_LABELS
7
STANDARD
10
328.0000
20
-335.0000
30
0.0
40
3.4
1
all geometric checks passed: closed single polyline, no self-intersection, no overlap, no spikes
50
0.0
0
LINE
8
SHEET_FRAME
10
640.0000
20
-560.0000
30
0.0
11
940.0000
21
-560.0000
31
0.0
0
LINE
8
SHEET_FRAME
10
940.0000
20
-560.0000
30
0.0
11
940.0000
21
-300.0000
31
0.0
0
LINE
8
SHEET_FRAME
10
940.0000
20
-300.0000
30
0.0
11
640.0000
21
-300.0000
31
0.0
0
LINE
8
SHEET_FRAME
10
640.0000
20
-300.0000
30
0.0
11
640.0000
21
-560.0000
31
0.0
0
POLYLINE
8
LOT_POLYLINE
66
1
70
1
0
VERTEX
8
LOT_POLYLINE
10
666.0000
20
-365.3207
30
0.0
0
VERTEX
8
LOT_POLYLINE
10
792.5094
20
-360.0000
30
0.0
0
VERTEX
8
LOT_POLYLINE
10
799.6038
20
-528.6793
30
0.0
0
VERTEX
8
LOT_POLYLINE
10
673.0943
20
-534.0000
30
0.0
0
SEQEND
0
TEXT
8
SHEET_LABELS
6
ROT_2.41
7
STANDARD
10
729.3808
20
-365.6577
30
0.0
40
3.4
1
N87%%d35'30.00"E
50
2.41
0
TEXT
8
SHEET_LABELS
6
ROT_2.41
7
STANDARD
10
729.1287
20
-359.6630
30
0.0
40
3.2
1
75.00'
50
2.41
0
POINT
8
SHEET_LABELS
10
666.0000
20
-365.3207
30
0.0
0
TEXT
8
SHEET_LABELS
6
ROT_272.41
7
STANDARD
10
799.0540
20
-444.2136
30
0.0
40
3.4
1
S02%%d24'30.00"E
50
272.41
0
TEXT
8
SHEET_LABELS
6
ROT_272.41
7
STANDARD
10
793.0593
20
-444.4657
30
0.0
40
3.2
1
100.00'
50
272.41
0
POINT
8
SHEET_LABELS
10
792.5094
20
-360.0000
30
0.0
0
TEXT
8
SHEET_LABELS
6
ROT_2.41
7
STANDARD
10
736.4751
20
-534.3370
30
0.0
40
3.4
1
S87%%d35'30.00"W
50
2.41
0
TEXT
8
SHEET_LABELS
6
ROT_2.41
7
STANDARD
10
736.2230
20
-528.3423
30
0.0
40
3.2
1
75.00'
50
2.41
0
POINT
8
SHEET_LABELS
10
799.6038
20
-528.6793
30
0.0
0
TEXT
8
SHEET_LABELS
6
ROT_272.41
7
STANDARD
10
672.5445
20
-449.5343
30
0.0
40
3.4
1
N02%%d24'30.00"W
50
272.41
0
TEXT
8
SHEET_LABELS
6
ROT_272.41
7
STANDARD
10
666.5498
20
-449.7864
30
0.0
40
3.2
1
100.00'
50
272.41
0
POINT
8
SHEET_LABELS
10
673.0943
20
-534.0000
30
0.0
0
TEXT
8
SHEET_LABELS
7
STANDARD
10
648.0000
20
-310.0000
30
0.0
40
8.0
1
LOT Blk17N-L4   PASS
50
0.0
0
TEXT
8
SHEET_LABELS
7
STANDARD
10
648.0000
20
-321.0000
30
0.0
40
4.6
1
AREA 7,500 SF (0.172 ac)
50
0.0
0
TEXT
8
SHEET_LABELS
7
STANDARD
10
648.0000
20
-328.0000
30
0.0
40
4.0
1
PERIMETER 350.00'   VERTICES 4   CLOSING SIDE 100.00'
50
0.0
0
TEXT
8
SHEET_LABELS
7
STANDARD
10
648.0000
20
-335.0000
30
0.0
40
3.4
1
all geometric checks passed: closed single polyline, no self-intersection, no overlap, no spikes
50
0.0
0
LINE
8
SHEET_FRAME
10
960.0000
20
-560.0000
30
0.0
11
1260.0000
21
-560.0000
31
0.0
0
LINE
8
SHEET_FRAME
10
1260.0000
20
-560.0000
30
0.0
11
1260.0000
21
-300.0000
31
0.0
0
LINE
8
SHEET_FRAME
10
1260.0000
20
-300.0000
30
0.0
11
960.0000
21
-300.0000
31
0.0
0
LINE
8
SHEET_FRAME
10
960.0000
20
-300.0000
30
0.0
11
960.0000
21
-560.0000
31
0.0
0
POLYLINE
8
LOT_POLYLINE
66
1
70
1
0
VERTEX
8
LOT_POLYLINE
10
986.0000
20
-365.3207
30
0.0
0
VERTEX
8
LOT_POLYLINE
10
1112.5094
20
-360.0000
30
0.0
0
VERTEX
8
LOT_POLYLINE
10
1119.6038
20
-528.6793
30
0.0
0
VERTEX
8
LOT_POLYLINE
10
993.0943
20
-534.0000
30
0.0
0
SEQEND
0
TEXT
8
SHEET_LABELS
6
ROT_2.41
7
STANDARD
10
1049.3808
20
-365.6577
30
0.0
40
3.4
1
N87%%d35'30.00"E
50
2.41
0
TEXT
8
SHEET_LABELS
6
ROT_2.41
7
STANDARD
10
1049.1287
20
-359.6630
30
0.0
40
3.2
1
75.00'
50
2.41
0
POINT
8
SHEET_LABELS
10
986.0000
20
-365.3207
30
0.0
0
TEXT
8
SHEET_LABELS
6
ROT_272.41
7
STANDARD
10
1119.0540
20
-444.2136
30
0.0
40
3.4
1
S02%%d24'30.00"E
50
272.41
0
TEXT
8
SHEET_LABELS
6
ROT_272.41
7
STANDARD
10
1113.0593
20
-444.4657
30
0.0
40
3.2
1
100.00'
50
272.41
0
POINT
8
SHEET_LABELS
10
1112.5094
20
-360.0000
30
0.0
0
TEXT
8
SHEET_LABELS
6
ROT_2.41
7
STANDARD
10
1056.4751
20
-534.3370
30
0.0
40
3.4
1
S87%%d35'30.00"W
50
2.41
0
TEXT
8
SHEET_LABELS
6
ROT_2.41
7
STANDARD
10
1056.2230
20
-528.3423
30
0.0
40
3.2
1
75.00'
50
2.41
0
POINT
8
SHEET_LABELS
10
1119.6038
20
-528.6793
30
0.0
0
TEXT
8
SHEET_LABELS
6
ROT_272.41
7
STANDARD
10
992.5445
20
-449.5343
30
0.0
40
3.4
1
N02%%d24'30.00"W
50
272.41
0
TEXT
8
SHEET_LABELS
6
ROT_272.41
7
STANDARD
10
986.5498
20
-449.7864
30
0.0
40
3.2
1
100.00'
50
272.41
0
POINT
8
SHEET_LABELS
10
993.0943
20
-534.0000
30
0.0
0
TEXT
8
SHEET_LABELS
7
STANDARD
10
968.0000
20
-310.0000
30
0.0
40
8.0
1
LOT Blk17N-L5   PASS
50
0.0
0
TEXT
8
SHEET_LABELS
7
STANDARD
10
968.0000
20
-321.0000
30
0.0
40
4.6
1
AREA 7,500 SF (0.172 ac)
50
0.0
0
TEXT
8
SHEET_LABELS
7
STANDARD
10
968.0000
20
-328.0000
30
0.0
40
4.0
1
PERIMETER 350.00'   VERTICES 4   CLOSING SIDE 100.00'
50
0.0
0
TEXT
8
SHEET_LABELS
7
STANDARD
10
968.0000
20
-335.0000
30
0.0
40
3.4
1
all geometric checks passed: closed single polyline, no self-intersection, no overlap, no spikes
50
0.0
0
LINE
8
SHEET_FRAME
10
1280.0000
20
-560.0000
30
0.0
11
1580.0000
21
-560.0000
31
0.0
0
LINE
8
SHEET_FRAME
10
1580.0000
20
-560.0000
30
0.0
11
1580.0000
21
-300.0000
31
0.0
0
LINE
8
SHEET_FRAME
10
1580.0000
20
-300.0000
30
0.0
11
1280.0000
21
-300.0000
31
0.0
0
LINE
8
SHEET_FRAME
10
1280.0000
20
-300.0000
30
0.0
11
1280.0000
21
-560.0000
31
0.0
0
POLYLINE
8
LOT_POLYLINE
66
1
70
1
0
VERTEX
8
LOT_POLYLINE
10
1306.0000
20
-365.3207
30
0.0
0
VERTEX
8
LOT_POLYLINE
10
1432.5094
20
-360.0000
30
0.0
0
VERTEX
8
LOT_POLYLINE
10
1439.6038
20
-528.6793
30
0.0
0
VERTEX
8
LOT_POLYLINE
10
1313.0943
20
-534.0000
30
0.0
0
SEQEND
0
TEXT
8
SHEET_LABELS
6
ROT_2.41
7
STANDARD
10
1369.3808
20
-365.6577
30
0.0
40
3.4
1
N87%%d35'30.00"E
50
2.41
0
TEXT
8
SHEET_LABELS
6
ROT_2.41
7
STANDARD
10
1369.1287
20
-359.6630
30
0.0
40
3.2
1
75.00'
50
2.41
0
POINT
8
SHEET_LABELS
10
1306.0000
20
-365.3207
30
0.0
0
TEXT
8
SHEET_LABELS
6
ROT_272.41
7
STANDARD
10
1439.0540
20
-444.2136
30
0.0
40
3.4
1
S02%%d24'30.00"E
50
272.41
0
TEXT
8
SHEET_LABELS
6
ROT_272.41
7
STANDARD
10
1433.0593
20
-444.4657
30
0.0
40
3.2
1
100.00'
50
272.41
0
POINT
8
SHEET_LABELS
10
1432.5094
20
-360.0000
30
0.0
0
TEXT
8
SHEET_LABELS
6
ROT_2.41
7
STANDARD
10
1376.4751
20
-534.3370
30
0.0
40
3.4
1
S87%%d35'30.00"W
50
2.41
0
TEXT
8
SHEET_LABELS
6
ROT_2.41
7
STANDARD
10
1376.2230
20
-528.3423
30
0.0
40
3.2
1
75.00'
50
2.41
0
POINT
8
SHEET_LABELS
10
1439.6038
20
-528.6793
30
0.0
0
TEXT
8
SHEET_LABELS
6
ROT_272.41
7
STANDARD
10
1312.5445
20
-449.5343
30
0.0
40
3.4
1
N02%%d24'30.00"W
50
272.41
0
TEXT
8
SHEET_LABELS
6
ROT_272.41
7
STANDARD
10
1306.5498
20
-449.7864
30
0.0
40
3.2
1
100.00'
50
272.41
0
POINT
8
SHEET_LABELS
10
1313.0943
20
-534.0000
30
0.0
0
TEXT
8
SHEET_LABELS
7
STANDARD
10
1288.0000
20
-310.0000
30
0.0
40
8.0
1
LOT Blk17N-L6   PASS
50
0.0
0
TEXT
8
SHEET_LABELS
7
STANDARD
10
1288.0000
20
-321.0000
30
0.0
40
4.6
1
AREA 7,500 SF (0.172 ac)
50
0.0
0
TEXT
8
SHEET_LABELS
7
STANDARD
10
1288.0000
20
-328.0000
30
0.0
40
4.0
1
PERIMETER 350.00'   VERTICES 4   CLOSING SIDE 100.00'
50
0.0
0
TEXT
8
SHEET_LABELS
7
STANDARD
10
1288.0000
20
-335.0000
30
0.0
40
3.4
1
all geometric checks passed: closed single polyline, no self-intersection, no overlap, no spikes
50
0.0
0
LINE
8
SHEET_FRAME
10
1600.0000
20
-560.0000
30
0.0
11
1900.0000
21
-560.0000
31
0.0
0
LINE
8
SHEET_FRAME
10
1900.0000
20
-560.0000
30
0.0
11
1900.0000
21
-300.0000
31
0.0
0
LINE
8
SHEET_FRAME
10
1900.0000
20
-300.0000
30
0.0
11
1600.0000
21
-300.0000
31
0.0
0
LINE
8
SHEET_FRAME
10
1600.0000
20
-300.0000
30
0.0
11
1600.0000
21
-560.0000
31
0.0
0
POLYLINE
8
LOT_POLYLINE
66
1
70
1
0
VERTEX
8
LOT_POLYLINE
10
1626.0000
20
-365.3207
30
0.0
0
VERTEX
8
LOT_POLYLINE
10
1752.5094
20
-360.0000
30
0.0
0
VERTEX
8
LOT_POLYLINE
10
1759.6038
20
-528.6793
30
0.0
0
VERTEX
8
LOT_POLYLINE
10
1633.0943
20
-534.0000
30
0.0
0
SEQEND
0
TEXT
8
SHEET_LABELS
6
ROT_2.41
7
STANDARD
10
1689.3808
20
-365.6577
30
0.0
40
3.4
1
N87%%d35'30.00"E
50
2.41
0
TEXT
8
SHEET_LABELS
6
ROT_2.41
7
STANDARD
10
1689.1287
20
-359.6630
30
0.0
40
3.2
1
75.00'
50
2.41
0
POINT
8
SHEET_LABELS
10
1626.0000
20
-365.3207
30
0.0
0
TEXT
8
SHEET_LABELS
6
ROT_272.41
7
STANDARD
10
1759.0540
20
-444.2136
30
0.0
40
3.4
1
S02%%d24'30.00"E
50
272.41
0
TEXT
8
SHEET_LABELS
6
ROT_272.41
7
STANDARD
10
1753.0593
20
-444.4657
30
0.0
40
3.2
1
100.00'
50
272.41
0
POINT
8
SHEET_LABELS
10
1752.5094
20
-360.0000
30
0.0
0
TEXT
8
SHEET_LABELS
6
ROT_2.41
7
STANDARD
10
1696.4751
20
-534.3370
30
0.0
40
3.4
1
S87%%d35'30.00"W
50
2.41
0
TEXT
8
SHEET_LABELS
6
ROT_2.41
7
STANDARD
10
1696.2230
20
-528.3423
30
0.0
40
3.2
1
75.00'
50
2.41
0
POINT
8
SHEET_LABELS
10
1759.6038
20
-528.6793
30
0.0
0
TEXT
8
SHEET_LABELS
6
ROT_272.41
7
STANDARD
10
1632.5445
20
-449.5343
30
0.0
40
3.4
1
N02%%d24'30.00"W
50
272.41
0
TEXT
8
SHEET_LABELS
6
ROT_272.41
7
STANDARD
10
1626.5498
20
-449.7864
30
0.0
40
3.2
1
100.00'
50
272.41
0
POINT
8
SHEET_LABELS
10
1633.0943
20
-534.0000
30
0.0
0
TEXT
8
SHEET_LABELS
7
STANDARD
10
1608.0000
20
-310.0000
30
0.0
40
8.0
1
LOT Blk17N-L7   PASS
50
0.0
0
TEXT
8
SHEET_LABELS
7
STANDARD
10
1608.0000
20
-321.0000
30
0.0
40
4.6
1
AREA 7,500 SF (0.172 ac)
50
0.0
0
TEXT
8
SHEET_LABELS
7
STANDARD
10
1608.0000
20
-328.0000
30
0.0
40
4.0
1
PERIMETER 350.00'   VERTICES 4   CLOSING SIDE 100.00'
50
0.0
0
TEXT
8
SHEET_LABELS
7
STANDARD
10
1608.0000
20
-335.0000
30
0.0
40
3.4
1
all geometric checks passed: closed single polyline, no self-intersection, no overlap, no spikes
50
0.0
0
LINE
8
SHEET_FRAME
10
1920.0000
20
-560.0000
30
0.0
11
2220.0000
21
-560.0000
31
0.0
0
LINE
8
SHEET_FRAME
10
2220.0000
20
-560.0000
30
0.0
11
2220.0000
21
-300.0000
31
0.0
0
LINE
8
SHEET_FRAME
10
2220.0000
20
-300.0000
30
0.0
11
1920.0000
21
-300.0000
31
0.0
0
LINE
8
SHEET_FRAME
10
1920.0000
20
-300.0000
30
0.0
11
1920.0000
21
-560.0000
31
0.0
0
POLYLINE
8
LOT_POLYLINE
66
1
70
1
0
VERTEX
8
LOT_POLYLINE
10
1946.0000
20
-365.3207
30
0.0
0
VERTEX
8
LOT_POLYLINE
10
2072.5094
20
-360.0000
30
0.0
0
VERTEX
8
LOT_POLYLINE
10
2079.6038
20
-528.6793
30
0.0
0
VERTEX
8
LOT_POLYLINE
10
1953.0943
20
-534.0000
30
0.0
0
SEQEND
0
TEXT
8
SHEET_LABELS
6
ROT_2.41
7
STANDARD
10
2009.3808
20
-365.6577
30
0.0
40
3.4
1
N87%%d35'30.00"E
50
2.41
0
TEXT
8
SHEET_LABELS
6
ROT_2.41
7
STANDARD
10
2009.1287
20
-359.6630
30
0.0
40
3.2
1
75.00'
50
2.41
0
POINT
8
SHEET_LABELS
10
1946.0000
20
-365.3207
30
0.0
0
TEXT
8
SHEET_LABELS
6
ROT_272.41
7
STANDARD
10
2079.0540
20
-444.2136
30
0.0
40
3.4
1
S02%%d24'30.00"E
50
272.41
0
TEXT
8
SHEET_LABELS
6
ROT_272.41
7
STANDARD
10
2073.0593
20
-444.4657
30
0.0
40
3.2
1
100.00'
50
272.41
0
POINT
8
SHEET_LABELS
10
2072.5094
20
-360.0000
30
0.0
0
TEXT
8
SHEET_LABELS
6
ROT_2.41
7
STANDARD
10
2016.4751
20
-534.3370
30
0.0
40
3.4
1
S87%%d35'30.00"W
50
2.41
0
TEXT
8
SHEET_LABELS
6
ROT_2.41
7
STANDARD
10
2016.2230
20
-528.3423
30
0.0
40
3.2
1
75.00'
50
2.41
0
POINT
8
SHEET_LABELS
10
2079.6038
20
-528.6793
30
0.0
0
TEXT
8
SHEET_LABELS
6
ROT_272.41
7
STANDARD
10
1952.5445
20
-449.5343
30
0.0
40
3.4
1
N02%%d24'30.00"W
50
272.41
0
TEXT
8
SHEET_LABELS
6
ROT_272.41
7
STANDARD
10
1946.5498
20
-449.7864
30
0.0
40
3.2
1
100.00'
50
272.41
0
POINT
8
SHEET_LABELS
10
1953.0943
20
-534.0000
30
0.0
0
TEXT
8
SHEET_LABELS
7
STANDARD
10
1928.0000
20
-310.0000
30
0.0
40
8.0
1
LOT Blk17N-L8   PASS
50
0.0
0
TEXT
8
SHEET_LABELS
7
STANDARD
10
1928.0000
20
-321.0000
30
0.0
40
4.6
1
AREA 7,500 SF (0.172 ac)
50
0.0
0
TEXT
8
SHEET_LABELS
7
STANDARD
10
1928.0000
20
-328.0000
30
0.0
40
4.0
1
PERIMETER 350.00'   VERTICES 4   CLOSING SIDE 100.00'
50
0.0
0
TEXT
8
SHEET_LABELS
7
STANDARD
10
1928.0000
20
-335.0000
30
0.0
40
3.4
1
all geometric checks passed: closed single polyline, no self-intersection, no overlap, no spikes
50
0.0
0
LINE
8
SHEET_FRAME
10
2240.0000
20
-560.0000
30
0.0
11
2540.0000
21
-560.0000
31
0.0
0
LINE
8
SHEET_FRAME
10
2540.0000
20
-560.0000
30
0.0
11
2540.0000
21
-300.0000
31
0.0
0
LINE
8
SHEET_FRAME
10
2540.0000
20
-300.0000
30
0.0
11
2240.0000
21
-300.0000
31
0.0
0
LINE
8
SHEET_FRAME
10
2240.0000
20
-300.0000
30
0.0
11
2240.0000
21
-560.0000
31
0.0
0
POLYLINE
8
LOT_POLYLINE
66
1
70
1
0
VERTEX
8
LOT_POLYLINE
10
2266.0000
20
-365.3207
30
0.0
0
VERTEX
8
LOT_POLYLINE
10
2392.5094
20
-360.0000
30
0.0
0
VERTEX
8
LOT_POLYLINE
10
2399.6038
20
-528.6793
30
0.0
0
VERTEX
8
LOT_POLYLINE
10
2273.0943
20
-534.0000
30
0.0
0
SEQEND
0
TEXT
8
SHEET_LABELS
6
ROT_2.41
7
STANDARD
10
2329.3808
20
-365.6577
30
0.0
40
3.4
1
N87%%d35'30.00"E
50
2.41
0
TEXT
8
SHEET_LABELS
6
ROT_2.41
7
STANDARD
10
2329.1287
20
-359.6630
30
0.0
40
3.2
1
75.00'
50
2.41
0
POINT
8
SHEET_LABELS
10
2266.0000
20
-365.3207
30
0.0
0
TEXT
8
SHEET_LABELS
6
ROT_272.41
7
STANDARD
10
2399.0540
20
-444.2136
30
0.0
40
3.4
1
S02%%d24'30.00"E
50
272.41
0
TEXT
8
SHEET_LABELS
6
ROT_272.41
7
STANDARD
10
2393.0593
20
-444.4657
30
0.0
40
3.2
1
100.00'
50
272.41
0
POINT
8
SHEET_LABELS
10
2392.5094
20
-360.0000
30
0.0
0
TEXT
8
SHEET_LABELS
6
ROT_2.41
7
STANDARD
10
2336.4751
20
-534.3370
30
0.0
40
3.4
1
S87%%d35'30.00"W
50
2.41
0
TEXT
8
SHEET_LABELS
6
ROT_2.41
7
STANDARD
10
2336.2230
20
-528.3423
30
0.0
40
3.2
1
75.00'
50
2.41
0
POINT
8
SHEET_LABELS
10
2399.6038
20
-528.6793
30
0.0
0
TEXT
8
SHEET_LABELS
6
ROT_272.41
7
STANDARD
10
2272.5445
20
-449.5343
30
0.0
40
3.4
1
N02%%d24'30.00"W
50
272.41
0
TEXT
8
SHEET_LABELS
6
ROT_272.41
7
STANDARD
10
2266.5498
20
-449.7864
30
0.0
40
3.2
1
100.00'
50
272.41
0
POINT
8
SHEET_LABELS
10
2273.0943
20
-534.0000
30
0.0
0
TEXT
8
SHEET_LABELS
7
STANDARD
10
2248.0000
20
-310.0000
30
0.0
40
8.0
1
LOT Blk17N-L9   PASS
50
0.0
0
TEXT
8
SHEET_LABELS
7
STANDARD
10
2248.0000
20
-321.0000
30
0.0
40
4.6
1
AREA 7,500 SF (0.172 ac)
50
0.0
0
TEXT
8
SHEET_LABELS
7
STANDARD
10
2248.0000
20
-328.0000
30
0.0
40
4.0
1
PERIMETER 350.00'   VERTICES 4   CLOSING SIDE 100.00'
50
0.0
0
TEXT
8
SHEET_LABELS
7
STANDARD
10
2248.0000
20
-335.0000
30
0.0
40
3.4
1
all geometric checks passed: closed single polyline, no self-intersection, no overlap, no spikes
50
0.0
0
LINE
8
SHEET_FRAME
10
2560.0000
20
-560.0000
30
0.0
11
2860.0000
21
-560.0000
31
0.0
0
LINE
8
SHEET_FRAME
10
2860.0000
20
-560.0000
30
0.0
11
2860.0000
21
-300.0000
31
0.0
0
LINE
8
SHEET_FRAME
10
2860.0000
20
-300.0000
30
0.0
11
2560.0000
21
-300.0000
31
0.0
0
LINE
8
SHEET_FRAME
10
2560.0000
20
-300.0000
30
0.0
11
2560.0000
21
-560.0000
31
0.0
0
POLYLINE
8
LOT_POLYLINE
66
1
70
1
0
VERTEX
8
LOT_POLYLINE
10
2586.0000
20
-365.3207
30
0.0
0
VERTEX
8
LOT_POLYLINE
10
2712.5094
20
-360.0000
30
0.0
0
VERTEX
8
LOT_POLYLINE
10
2719.6038
20
-528.6793
30
0.0
0
VERTEX
8
LOT_POLYLINE
10
2593.0943
20
-534.0000
30
0.0
0
SEQEND
0
TEXT
8
SHEET_LABELS
6
ROT_2.41
7
STANDARD
10
2649.3808
20
-365.6577
30
0.0
40
3.4
1
N87%%d35'30.00"E
50
2.41
0
TEXT
8
SHEET_LABELS
6
ROT_2.41
7
STANDARD
10
2649.1287
20
-359.6630
30
0.0
40
3.2
1
75.00'
50
2.41
0
POINT
8
SHEET_LABELS
10
2586.0000
20
-365.3207
30
0.0
0
TEXT
8
SHEET_LABELS
6
ROT_272.41
7
STANDARD
10
2719.0540
20
-444.2136
30
0.0
40
3.4
1
S02%%d24'30.00"E
50
272.41
0
TEXT
8
SHEET_LABELS
6
ROT_272.41
7
STANDARD
10
2713.0593
20
-444.4657
30
0.0
40
3.2
1
100.00'
50
272.41
0
POINT
8
SHEET_LABELS
10
2712.5094
20
-360.0000
30
0.0
0
TEXT
8
SHEET_LABELS
6
ROT_2.41
7
STANDARD
10
2656.4751
20
-534.3370
30
0.0
40
3.4
1
S87%%d35'30.00"W
50
2.41
0
TEXT
8
SHEET_LABELS
6
ROT_2.41
7
STANDARD
10
2656.2230
20
-528.3423
30
0.0
40
3.2
1
75.00'
50
2.41
0
POINT
8
SHEET_LABELS
10
2719.6038
20
-528.6793
30
0.0
0
TEXT
8
SHEET_LABELS
6
ROT_272.41
7
STANDARD
10
2592.5445
20
-449.5343
30
0.0
40
3.4
1
N02%%d24'30.00"W
50
272.41
0
TEXT
8
SHEET_LABELS
6
ROT_272.41
7
STANDARD
10
2586.5498
20
-449.7864
30
0.0
40
3.2
1
100.00'
50
272.41
0
POINT
8
SHEET_LABELS
10
2593.0943
20
-534.0000
30
0.0
0
TEXT
8
SHEET_LABELS
7
STANDARD
10
2568.0000
20
-310.0000
30
0.0
40
8.0
1
LOT Blk17N-L10   PASS
50
0.0
0
TEXT
8
SHEET_LABELS
7
STANDARD
10
2568.0000
20
-321.0000
30
0.0
40
4.6
1
AREA 7,500 SF (0.172 ac)
50
0.0
0
TEXT
8
SHEET_LABELS
7
STANDARD
10
2568.0000
20
-328.0000
30
0.0
40
4.0
1
PERIMETER 350.00'   VERTICES 4   CLOSING SIDE 100.00'
50
0.0
0
TEXT
8
SHEET_LABELS
7
STANDARD
10
2568.0000
20
-335.0000
30
0.0
40
3.4
1
all geometric checks passed: closed single polyline, no self-intersection, no overlap, no spikes
50
0.0
0
LINE
8
SHEET_FRAME
10
2880.0000
20
-560.0000
30
0.0
11
3180.0000
21
-560.0000
31
0.0
0
LINE
8
SHEET_FRAME
10
3180.0000
20
-560.0000
30
0.0
11
3180.0000
21
-300.0000
31
0.0
0
LINE
8
SHEET_FRAME
10
3180.0000
20
-300.0000
30
0.0
11
2880.0000
21
-300.0000
31
0.0
0
LINE
8
SHEET_FRAME
10
2880.0000
20
-300.0000
30
0.0
11
2880.0000
21
-560.0000
31
0.0
0
POLYLINE
8
LOT_POLYLINE
66
1
70
1
0
VERTEX
8
LOT_POLYLINE
10
2906.0000
20
-365.3207
30
0.0
0
VERTEX
8
LOT_POLYLINE
10
3032.5094
20
-360.0000
30
0.0
0
VERTEX
8
LOT_POLYLINE
10
3039.6038
20
-528.6793
30
0.0
0
VERTEX
8
LOT_POLYLINE
10
2913.0943
20
-534.0000
30
0.0
0
SEQEND
0
TEXT
8
SHEET_LABELS
6
ROT_2.41
7
STANDARD
10
2969.3808
20
-365.6577
30
0.0
40
3.4
1
N87%%d35'30.00"E
50
2.41
0
TEXT
8
SHEET_LABELS
6
ROT_2.41
7
STANDARD
10
2969.1287
20
-359.6630
30
0.0
40
3.2
1
75.00'
50
2.41
0
POINT
8
SHEET_LABELS
10
2906.0000
20
-365.3207
30
0.0
0
TEXT
8
SHEET_LABELS
6
ROT_272.41
7
STANDARD
10
3039.0540
20
-444.2136
30
0.0
40
3.4
1
S02%%d24'30.00"E
50
272.41
0
TEXT
8
SHEET_LABELS
6
ROT_272.41
7
STANDARD
10
3033.0593
20
-444.4657
30
0.0
40
3.2
1
100.00'
50
272.41
0
POINT
8
SHEET_LABELS
10
3032.5094
20
-360.0000
30
0.0
0
TEXT
8
SHEET_LABELS
6
ROT_2.41
7
STANDARD
10
2976.4751
20
-534.3370
30
0.0
40
3.4
1
S87%%d35'30.00"W
50
2.41
0
TEXT
8
SHEET_LABELS
6
ROT_2.41
7
STANDARD
10
2976.2230
20
-528.3423
30
0.0
40
3.2
1
75.00'
50
2.41
0
POINT
8
SHEET_LABELS
10
3039.6038
20
-528.6793
30
0.0
0
TEXT
8
SHEET_LABELS
6
ROT_272.41
7
STANDARD
10
2912.5445
20
-449.5343
30
0.0
40
3.4
1
N02%%d24'30.00"W
50
272.41
0
TEXT
8
SHEET_LABELS
6
ROT_272.41
7
STANDARD
10
2906.5498
20
-449.7864
30
0.0
40
3.2
1
100.00'
50
272.41
0
POINT
8
SHEET_LABELS
10
2913.0943
20
-534.0000
30
0.0
0
TEXT
8
SHEET_LABELS
7
STANDARD
10
2888.0000
20
-310.0000
30
0.0
40
8.0
1
LOT Blk17N-L11   PASS
50
0.0
0
TEXT
8
SHEET_LABELS
7
STANDARD
10
2888.0000
20
-321.0000
30
0.0
40
4.6
1
AREA 7,500 SF (0.172 ac)
50
0.0
0
TEXT
8
SHEET_LABELS
7
STANDARD
10
2888.0000
20
-328.0000
30
0.0
40
4.0
1
PERIMETER 350.00'   VERTICES 4   CLOSING SIDE 100.00'
50
0.0
0
TEXT
8
SHEET_LABELS
7
STANDARD
10
2888.0000
20
-335.0000
30
0.0
40
3.4
1
all geometric checks passed: closed single polyline, no self-intersection, no overlap, no spikes
50
0.0
0
LINE
8
SHEET_FRAME
10
0.0000
20
-840.0000
30
0.0
11
300.0000
21
-840.0000
31
0.0
0
LINE
8
SHEET_FRAME
10
300.0000
20
-840.0000
30
0.0
11
300.0000
21
-580.0000
31
0.0
0
LINE
8
SHEET_FRAME
10
300.0000
20
-580.0000
30
0.0
11
0.0000
21
-580.0000
31
0.0
0
LINE
8
SHEET_FRAME
10
0.0000
20
-580.0000
30
0.0
11
0.0000
21
-840.0000
31
0.0
0
POLYLINE
8
LOT_POLYLINE
66
1
70
1
0
VERTEX
8
LOT_POLYLINE
10
26.0000
20
-645.3207
30
0.0
0
VERTEX
8
LOT_POLYLINE
10
152.5094
20
-640.0000
30
0.0
0
VERTEX
8
LOT_POLYLINE
10
159.6038
20
-808.6793
30
0.0
0
VERTEX
8
LOT_POLYLINE
10
33.0943
20
-814.0000
30
0.0
0
SEQEND
0
TEXT
8
SHEET_LABELS
6
ROT_2.41
7
STANDARD
10
89.3808
20
-645.6577
30
0.0
40
3.4
1
N87%%d35'30.00"E
50
2.41
0
TEXT
8
SHEET_LABELS
6
ROT_2.41
7
STANDARD
10
89.1287
20
-639.6630
30
0.0
40
3.2
1
75.00'
50
2.41
0
POINT
8
SHEET_LABELS
10
26.0000
20
-645.3207
30
0.0
0
TEXT
8
SHEET_LABELS
6
ROT_272.41
7
STANDARD
10
159.0540
20
-724.2136
30
0.0
40
3.4
1
S02%%d24'30.00"E
50
272.41
0
TEXT
8
SHEET_LABELS
6
ROT_272.41
7
STANDARD
10
153.0593
20
-724.4657
30
0.0
40
3.2
1
100.00'
50
272.41
0
POINT
8
SHEET_LABELS
10
152.5094
20
-640.0000
30
0.0
0
TEXT
8
SHEET_LABELS
6
ROT_2.41
7
STANDARD
10
96.4751
20
-814.3370
30
0.0
40
3.4
1
S87%%d35'30.00"W
50
2.41
0
TEXT
8
SHEET_LABELS
6
ROT_2.41
7
STANDARD
10
96.2230
20
-808.3423
30
0.0
40
3.2
1
75.00'
50
2.41
0
POINT
8
SHEET_LABELS
10
159.6038
20
-808.6793
30
0.0
0
TEXT
8
SHEET_LABELS
6
ROT_272.41
7
STANDARD
10
32.5445
20
-729.5343
30
0.0
40
3.4
1
N02%%d24'30.00"W
50
272.41
0
TEXT
8
SHEET_LABELS
6
ROT_272.41
7
STANDARD
10
26.5498
20
-729.7864
30
0.0
40
3.2
1
100.00'
50
272.41
0
POINT
8
SHEET_LABELS
10
33.0943
20
-814.0000
30
0.0
0
TEXT
8
SHEET_LABELS
7
STANDARD
10
8.0000
20
-590.0000
30
0.0
40
8.0
1
LOT Blk17N-L12   PASS
50
0.0
0
TEXT
8
SHEET_LABELS
7
STANDARD
10
8.0000
20
-601.0000
30
0.0
40
4.6
1
AREA 7,500 SF (0.172 ac)
50
0.0
0
TEXT
8
SHEET_LABELS
7
STANDARD
10
8.0000
20
-608.0000
30
0.0
40
4.0
1
PERIMETER 350.00'   VERTICES 4   CLOSING SIDE 100.00'
50
0.0
0
TEXT
8
SHEET_LABELS
7
STANDARD
10
8.0000
20
-615.0000
30
0.0
40
3.4
1
all geometric checks passed: closed single polyline, no self-intersection, no overlap, no spikes
50
0.0
0
LINE
8
SHEET_FRAME
10
320.0000
20
-840.0000
30
0.0
11
620.0000
21
-840.0000
31
0.0
0
LINE
8
SHEET_FRAME
10
620.0000
20
-840.0000
30
0.0
11
620.0000
21
-580.0000
31
0.0
0
LINE
8
SHEET_FRAME
10
620.0000
20
-580.0000
30
0.0
11
320.0000
21
-580.0000
31
0.0
0
LINE
8
SHEET_FRAME
10
320.0000
20
-580.0000
30
0.0
11
320.0000
21
-840.0000
31
0.0
0
POLYLINE
8
LOT_POLYLINE
66
1
70
1
0
VERTEX
8
LOT_POLYLINE
10
346.0000
20
-645.3207
30
0.0
0
VERTEX
8
LOT_POLYLINE
10
472.5094
20
-640.0000
30
0.0
0
VERTEX
8
LOT_POLYLINE
10
479.6038
20
-808.6793
30
0.0
0
VERTEX
8
LOT_POLYLINE
10
353.0943
20
-814.0000
30
0.0
0
SEQEND
0
TEXT
8
SHEET_LABELS
6
ROT_2.41
7
STANDARD
10
409.3808
20
-645.6577
30
0.0
40
3.4
1
N87%%d35'30.00"E
50
2.41
0
TEXT
8
SHEET_LABELS
6
ROT_2.41
7
STANDARD
10
409.1287
20
-639.6630
30
0.0
40
3.2
1
75.00'
50
2.41
0
POINT
8
SHEET_LABELS
10
346.0000
20
-645.3207
30
0.0
0
TEXT
8
SHEET_LABELS
6
ROT_272.41
7
STANDARD
10
479.0540
20
-724.2136
30
0.0
40
3.4
1
S02%%d24'30.00"E
50
272.41
0
TEXT
8
SHEET_LABELS
6
ROT_272.41
7
STANDARD
10
473.0593
20
-724.4657
30
0.0
40
3.2
1
100.00'
50
272.41
0
POINT
8
SHEET_LABELS
10
472.5094
20
-640.0000
30
0.0
0
TEXT
8
SHEET_LABELS
6
ROT_2.41
7
STANDARD
10
416.4751
20
-814.3370
30
0.0
40
3.4
1
S87%%d35'30.00"W
50
2.41
0
TEXT
8
SHEET_LABELS
6
ROT_2.41
7
STANDARD
10
416.2230
20
-808.3423
30
0.0
40
3.2
1
75.00'
50
2.41
0
POINT
8
SHEET_LABELS
10
479.6038
20
-808.6793
30
0.0
0
TEXT
8
SHEET_LABELS
6
ROT_272.41
7
STANDARD
10
352.5445
20
-729.5343
30
0.0
40
3.4
1
N02%%d24'30.00"W
50
272.41
0
TEXT
8
SHEET_LABELS
6
ROT_272.41
7
STANDARD
10
346.5498
20
-729.7864
30
0.0
40
3.2
1
100.00'
50
272.41
0
POINT
8
SHEET_LABELS
10
353.0943
20
-814.0000
30
0.0
0
TEXT
8
SHEET_LABELS
7
STANDARD
10
328.0000
20
-590.0000
30
0.0
40
8.0
1
LOT Blk17N-L13   PASS
50
0.0
0
TEXT
8
SHEET_LABELS
7
STANDARD
10
328.0000
20
-601.0000
30
0.0
40
4.6
1
AREA 7,500 SF (0.172 ac)
50
0.0
0
TEXT
8
SHEET_LABELS
7
STANDARD
10
328.0000
20
-608.0000
30
0.0
40
4.0
1
PERIMETER 350.00'   VERTICES 4   CLOSING SIDE 100.00'
50
0.0
0
TEXT
8
SHEET_LABELS
7
STANDARD
10
328.0000
20
-615.0000
30
0.0
40
3.4
1
all geometric checks passed: closed single polyline, no self-intersection, no overlap, no spikes
50
0.0
0
LINE
8
SHEET_FRAME
10
640.0000
20
-840.0000
30
0.0
11
940.0000
21
-840.0000
31
0.0
0
LINE
8
SHEET_FRAME
10
940.0000
20
-840.0000
30
0.0
11
940.0000
21
-580.0000
31
0.0
0
LINE
8
SHEET_FRAME
10
940.0000
20
-580.0000
30
0.0
11
640.0000
21
-580.0000
31
0.0
0
LINE
8
SHEET_FRAME
10
640.0000
20
-580.0000
30
0.0
11
640.0000
21
-840.0000
31
0.0
0
POLYLINE
8
LOT_POLYLINE
66
1
70
1
0
VERTEX
8
LOT_POLYLINE
10
666.0000
20
-645.3207
30
0.0
0
VERTEX
8
LOT_POLYLINE
10
792.5094
20
-640.0000
30
0.0
0
VERTEX
8
LOT_POLYLINE
10
799.6038
20
-808.6793
30
0.0
0
VERTEX
8
LOT_POLYLINE
10
673.0943
20
-814.0000
30
0.0
0
SEQEND
0
TEXT
8
SHEET_LABELS
6
ROT_2.41
7
STANDARD
10
729.3808
20
-645.6577
30
0.0
40
3.4
1
N87%%d35'30.00"E
50
2.41
0
TEXT
8
SHEET_LABELS
6
ROT_2.41
7
STANDARD
10
729.1287
20
-639.6630
30
0.0
40
3.2
1
75.00'
50
2.41
0
POINT
8
SHEET_LABELS
10
666.0000
20
-645.3207
30
0.0
0
TEXT
8
SHEET_LABELS
6
ROT_272.41
7
STANDARD
10
799.0540
20
-724.2136
30
0.0
40
3.4
1
S02%%d24'30.00"E
50
272.41
0
TEXT
8
SHEET_LABELS
6
ROT_272.41
7
STANDARD
10
793.0593
20
-724.4657
30
0.0
40
3.2
1
100.00'
50
272.41
0
POINT
8
SHEET_LABELS
10
792.5094
20
-640.0000
30
0.0
0
TEXT
8
SHEET_LABELS
6
ROT_2.41
7
STANDARD
10
736.4751
20
-814.3370
30
0.0
40
3.4
1
S87%%d35'30.00"W
50
2.41
0
TEXT
8
SHEET_LABELS
6
ROT_2.41
7
STANDARD
10
736.2230
20
-808.3423
30
0.0
40
3.2
1
75.00'
50
2.41
0
POINT
8
SHEET_LABELS
10
799.6038
20
-808.6793
30
0.0
0
TEXT
8
SHEET_LABELS
6
ROT_272.41
7
STANDARD
10
672.5445
20
-729.5343
30
0.0
40
3.4
1
N02%%d24'30.00"W
50
272.41
0
TEXT
8
SHEET_LABELS
6
ROT_272.41
7
STANDARD
10
666.5498
20
-729.7864
30
0.0
40
3.2
1
100.00'
50
272.41
0
POINT
8
SHEET_LABELS
10
673.0943
20
-814.0000
30
0.0
0
TEXT
8
SHEET_LABELS
7
STANDARD
10
648.0000
20
-590.0000
30
0.0
40
8.0
1
LOT Blk17N-L14   PASS
50
0.0
0
TEXT
8
SHEET_LABELS
7
STANDARD
10
648.0000
20
-601.0000
30
0.0
40
4.6
1
AREA 7,500 SF (0.172 ac)
50
0.0
0
TEXT
8
SHEET_LABELS
7
STANDARD
10
648.0000
20
-608.0000
30
0.0
40
4.0
1
PERIMETER 350.00'   VERTICES 4   CLOSING SIDE 100.00'
50
0.0
0
TEXT
8
SHEET_LABELS
7
STANDARD
10
648.0000
20
-615.0000
30
0.0
40
3.4
1
all geometric checks passed: closed single polyline, no self-intersection, no overlap, no spikes
50
0.0
0
LINE
8
SHEET_FRAME
10
960.0000
20
-840.0000
30
0.0
11
1260.0000
21
-840.0000
31
0.0
0
LINE
8
SHEET_FRAME
10
1260.0000
20
-840.0000
30
0.0
11
1260.0000
21
-580.0000
31
0.0
0
LINE
8
SHEET_FRAME
10
1260.0000
20
-580.0000
30
0.0
11
960.0000
21
-580.0000
31
0.0
0
LINE
8
SHEET_FRAME
10
960.0000
20
-580.0000
30
0.0
11
960.0000
21
-840.0000
31
0.0
0
POLYLINE
8
LOT_POLYLINE
66
1
70
1
0
VERTEX
8
LOT_POLYLINE
10
986.0000
20
-645.3207
30
0.0
0
VERTEX
8
LOT_POLYLINE
10
1112.5094
20
-640.0000
30
0.0
0
VERTEX
8
LOT_POLYLINE
10
1119.6038
20
-808.6793
30
0.0
0
VERTEX
8
LOT_POLYLINE
10
993.0943
20
-814.0000
30
0.0
0
SEQEND
0
TEXT
8
SHEET_LABELS
6
ROT_2.41
7
STANDARD
10
1049.3808
20
-645.6577
30
0.0
40
3.4
1
N87%%d35'30.00"E
50
2.41
0
TEXT
8
SHEET_LABELS
6
ROT_2.41
7
STANDARD
10
1049.1287
20
-639.6630
30
0.0
40
3.2
1
75.00'
50
2.41
0
POINT
8
SHEET_LABELS
10
986.0000
20
-645.3207
30
0.0
0
TEXT
8
SHEET_LABELS
6
ROT_272.41
7
STANDARD
10
1119.0540
20
-724.2136
30
0.0
40
3.4
1
S02%%d24'30.00"E
50
272.41
0
TEXT
8
SHEET_LABELS
6
ROT_272.41
7
STANDARD
10
1113.0593
20
-724.4657
30
0.0
40
3.2
1
100.00'
50
272.41
0
POINT
8
SHEET_LABELS
10
1112.5094
20
-640.0000
30
0.0
0
TEXT
8
SHEET_LABELS
6
ROT_2.41
7
STANDARD
10
1056.4751
20
-814.3370
30
0.0
40
3.4
1
S87%%d35'30.00"W
50
2.41
0
TEXT
8
SHEET_LABELS
6
ROT_2.41
7
STANDARD
10
1056.2230
20
-808.3423
30
0.0
40
3.2
1
75.00'
50
2.41
0
POINT
8
SHEET_LABELS
10
1119.6038
20
-808.6793
30
0.0
0
TEXT
8
SHEET_LABELS
6
ROT_272.41
7
STANDARD
10
992.5445
20
-729.5343
30
0.0
40
3.4
1
N02%%d24'30.00"W
50
272.41
0
TEXT
8
SHEET_LABELS
6
ROT_272.41
7
STANDARD
10
986.5498
20
-729.7864
30
0.0
40
3.2
1
100.00'
50
272.41
0
POINT
8
SHEET_LABELS
10
993.0943
20
-814.0000
30
0.0
0
TEXT
8
SHEET_LABELS
7
STANDARD
10
968.0000
20
-590.0000
30
0.0
40
8.0
1
LOT Blk17N-L15   PASS
50
0.0
0
TEXT
8
SHEET_LABELS
7
STANDARD
10
968.0000
20
-601.0000
30
0.0
40
4.6
1
AREA 7,500 SF (0.172 ac)
50
0.0
0
TEXT
8
SHEET_LABELS
7
STANDARD
10
968.0000
20
-608.0000
30
0.0
40
4.0
1
PERIMETER 350.00'   VERTICES 4   CLOSING SIDE 100.00'
50
0.0
0
TEXT
8
SHEET_LABELS
7
STANDARD
10
968.0000
20
-615.0000
30
0.0
40
3.4
1
all geometric checks passed: closed single polyline, no self-intersection, no overlap, no spikes
50
0.0
0
LINE
8
SHEET_FRAME
10
1280.0000
20
-840.0000
30
0.0
11
1580.0000
21
-840.0000
31
0.0
0
LINE
8
SHEET_FRAME
10
1580.0000
20
-840.0000
30
0.0
11
1580.0000
21
-580.0000
31
0.0
0
LINE
8
SHEET_FRAME
10
1580.0000
20
-580.0000
30
0.0
11
1280.0000
21
-580.0000
31
0.0
0
LINE
8
SHEET_FRAME
10
1280.0000
20
-580.0000
30
0.0
11
1280.0000
21
-840.0000
31
0.0
0
POLYLINE
8
LOT_POLYLINE
66
1
70
1
0
VERTEX
8
LOT_POLYLINE
10
1306.0000
20
-645.3207
30
0.0
0
VERTEX
8
LOT_POLYLINE
10
1432.5094
20
-640.0000
30
0.0
0
VERTEX
8
LOT_POLYLINE
10
1439.6038
20
-808.6793
30
0.0
0
VERTEX
8
LOT_POLYLINE
10
1313.0943
20
-814.0000
30
0.0
0
SEQEND
0
TEXT
8
SHEET_LABELS
6
ROT_2.41
7
STANDARD
10
1369.3808
20
-645.6577
30
0.0
40
3.4
1
N87%%d35'30.00"E
50
2.41
0
TEXT
8
SHEET_LABELS
6
ROT_2.41
7
STANDARD
10
1369.1287
20
-639.6630
30
0.0
40
3.2
1
75.00'
50
2.41
0
POINT
8
SHEET_LABELS
10
1306.0000
20
-645.3207
30
0.0
0
TEXT
8
SHEET_LABELS
6
ROT_272.41
7
STANDARD
10
1439.0540
20
-724.2136
30
0.0
40
3.4
1
S02%%d24'30.00"E
50
272.41
0
TEXT
8
SHEET_LABELS
6
ROT_272.41
7
STANDARD
10
1433.0593
20
-724.4657
30
0.0
40
3.2
1
100.00'
50
272.41
0
POINT
8
SHEET_LABELS
10
1432.5094
20
-640.0000
30
0.0
0
TEXT
8
SHEET_LABELS
6
ROT_2.41
7
STANDARD
10
1376.4751
20
-814.3370
30
0.0
40
3.4
1
S87%%d35'30.00"W
50
2.41
0
TEXT
8
SHEET_LABELS
6
ROT_2.41
7
STANDARD
10
1376.2230
20
-808.3423
30
0.0
40
3.2
1
75.00'
50
2.41
0
POINT
8
SHEET_LABELS
10
1439.6038
20
-808.6793
30
0.0
0
TEXT
8
SHEET_LABELS
6
ROT_272.41
7
STANDARD
10
1312.5445
20
-729.5343
30
0.0
40
3.4
1
N02%%d24'30.00"W
50
272.41
0
TEXT
8
SHEET_LABELS
6
ROT_272.41
7
STANDARD
10
1306.5498
20
-729.7864
30
0.0
40
3.2
1
100.00'
50
272.41
0
POINT
8
SHEET_LABELS
10
1313.0943
20
-814.0000
30
0.0
0
TEXT
8
SHEET_LABELS
7
STANDARD
10
1288.0000
20
-590.0000
30
0.0
40
8.0
1
LOT Blk17N-L16   PASS
50
0.0
0
TEXT
8
SHEET_LABELS
7
STANDARD
10
1288.0000
20
-601.0000
30
0.0
40
4.6
1
AREA 7,500 SF (0.172 ac)
50
0.0
0
TEXT
8
SHEET_LABELS
7
STANDARD
10
1288.0000
20
-608.0000
30
0.0
40
4.0
1
PERIMETER 350.00'   VERTICES 4   CLOSING SIDE 100.00'
50
0.0
0
TEXT
8
SHEET_LABELS
7
STANDARD
10
1288.0000
20
-615.0000
30
0.0
40
3.4
1
all geometric checks passed: closed single polyline, no self-intersection, no overlap, no spikes
50
0.0
0
LINE
8
SHEET_FRAME
10
1600.0000
20
-840.0000
30
0.0
11
1900.0000
21
-840.0000
31
0.0
0
LINE
8
SHEET_FRAME
10
1900.0000
20
-840.0000
30
0.0
11
1900.0000
21
-580.0000
31
0.0
0
LINE
8
SHEET_FRAME
10
1900.0000
20
-580.0000
30
0.0
11
1600.0000
21
-580.0000
31
0.0
0
LINE
8
SHEET_FRAME
10
1600.0000
20
-580.0000
30
0.0
11
1600.0000
21
-840.0000
31
0.0
0
POLYLINE
8
LOT_POLYLINE
66
1
70
1
0
VERTEX
8
LOT_POLYLINE
10
1626.0000
20
-645.3207
30
0.0
0
VERTEX
8
LOT_POLYLINE
10
1752.5094
20
-640.0000
30
0.0
0
VERTEX
8
LOT_POLYLINE
10
1759.6038
20
-808.6793
30
0.0
0
VERTEX
8
LOT_POLYLINE
10
1633.0943
20
-814.0000
30
0.0
0
SEQEND
0
TEXT
8
SHEET_LABELS
6
ROT_2.41
7
STANDARD
10
1689.3808
20
-645.6577
30
0.0
40
3.4
1
N87%%d35'30.00"E
50
2.41
0
TEXT
8
SHEET_LABELS
6
ROT_2.41
7
STANDARD
10
1689.1287
20
-639.6630
30
0.0
40
3.2
1
75.00'
50
2.41
0
POINT
8
SHEET_LABELS
10
1626.0000
20
-645.3207
30
0.0
0
TEXT
8
SHEET_LABELS
6
ROT_272.41
7
STANDARD
10
1759.0540
20
-724.2136
30
0.0
40
3.4
1
S02%%d24'30.00"E
50
272.41
0
TEXT
8
SHEET_LABELS
6
ROT_272.41
7
STANDARD
10
1753.0593
20
-724.4657
30
0.0
40
3.2
1
100.00'
50
272.41
0
POINT
8
SHEET_LABELS
10
1752.5094
20
-640.0000
30
0.0
0
TEXT
8
SHEET_LABELS
6
ROT_2.41
7
STANDARD
10
1696.4751
20
-814.3370
30
0.0
40
3.4
1
S87%%d35'30.00"W
50
2.41
0
TEXT
8
SHEET_LABELS
6
ROT_2.41
7
STANDARD
10
1696.2230
20
-808.3423
30
0.0
40
3.2
1
75.00'
50
2.41
0
POINT
8
SHEET_LABELS
10
1759.6038
20
-808.6793
30
0.0
0
TEXT
8
SHEET_LABELS
6
ROT_272.41
7
STANDARD
10
1632.5445
20
-729.5343
30
0.0
40
3.4
1
N02%%d24'30.00"W
50
272.41
0
TEXT
8
SHEET_LABELS
6
ROT_272.41
7
STANDARD
10
1626.5498
20
-729.7864
30
0.0
40
3.2
1
100.00'
50
272.41
0
POINT
8
SHEET_LABELS
10
1633.0943
20
-814.0000
30
0.0
0
TEXT
8
SHEET_LABELS
7
STANDARD
10
1608.0000
20
-590.0000
30
0.0
40
8.0
1
LOT Blk17N-L17   PASS
50
0.0
0
TEXT
8
SHEET_LABELS
7
STANDARD
10
1608.0000
20
-601.0000
30
0.0
40
4.6
1
AREA 7,500 SF (0.172 ac)
50
0.0
0
TEXT
8
SHEET_LABELS
7
STANDARD
10
1608.0000
20
-608.0000
30
0.0
40
4.0
1
PERIMETER 350.00'   VERTICES 4   CLOSING SIDE 100.00'
50
0.0
0
TEXT
8
SHEET_LABELS
7
STANDARD
10
1608.0000
20
-615.0000
30
0.0
40
3.4
1
all geometric checks passed: closed single polyline, no self-intersection, no overlap, no spikes
50
0.0
0
LINE
8
SHEET_FRAME
10
1920.0000
20
-840.0000
30
0.0
11
2220.0000
21
-840.0000
31
0.0
0
LINE
8
SHEET_FRAME
10
2220.0000
20
-840.0000
30
0.0
11
2220.0000
21
-580.0000
31
0.0
0
LINE
8
SHEET_FRAME
10
2220.0000
20
-580.0000
30
0.0
11
1920.0000
21
-580.0000
31
0.0
0
LINE
8
SHEET_FRAME
10
1920.0000
20
-580.0000
30
0.0
11
1920.0000
21
-840.0000
31
0.0
0
POLYLINE
8
LOT_POLYLINE
66
1
70
1
0
VERTEX
8
LOT_POLYLINE
10
1946.0000
20
-646.5835
30
0.0
0
VERTEX
8
LOT_POLYLINE
10
2102.5344
20
-640.0000
30
0.0
0
VERTEX
8
LOT_POLYLINE
10
2109.5756
20
-807.4165
30
0.0
0
VERTEX
8
LOT_POLYLINE
10
1953.0412
20
-814.0000
30
0.0
0
SEQEND
0
TEXT
8
SHEET_LABELS
6
ROT_2.41
7
STANDARD
10
2024.3933
20
-646.2891
30
0.0
40
3.4
1
N87%%d35'30.00"E
50
2.41
0
TEXT
8
SHEET_LABELS
6
ROT_2.41
7
STANDARD
10
2024.1411
20
-640.2944
30
0.0
40
3.2
1
93.50'
50
2.41
0
POINT
8
SHEET_LABELS
10
1946.0000
20
-646.5835
30
0.0
0
TEXT
8
SHEET_LABELS
6
ROT_272.41
7
STANDARD
10
2109.0523
20
-723.5822
30
0.0
40
3.4
1
S02%%d24'30.00"E
50
272.41
0
TEXT
8
SHEET_LABELS
6
ROT_272.41
7
STANDARD
10
2103.0576
20
-723.8343
30
0.0
40
3.2
1
100.00'
50
272.41
0
POINT
8
SHEET_LABELS
10
2102.5344
20
-640.0000
30
0.0
0
TEXT
8
SHEET_LABELS
6
ROT_2.41
7
STANDARD
10
2031.4345
20
-813.7056
30
0.0
40
3.4
1
S87%%d35'30.00"W
50
2.41
0
TEXT
8
SHEET_LABELS
6
ROT_2.41
7
STANDARD
10
2031.1824
20
-807.7109
30
0.0
40
3.2
1
93.50'
50
2.41
0
POINT
8
SHEET_LABELS
10
2109.5756
20
-807.4165
30
0.0
0
TEXT
8
SHEET_LABELS
6
ROT_272.41
7
STANDARD
10
1952.5180
20
-730.1657
30
0.0
40
3.4
1
N02%%d24'30.00"W
50
272.41
0
TEXT
8
SHEET_LABELS
6
ROT_272.41
7
STANDARD
10
1946.5233
20
-730.4178
30
0.0
40
3.2
1
100.00'
50
272.41
0
POINT
8
SHEET_LABELS
10
1953.0412
20
-814.0000
30
0.0
0
TEXT
8
SHEET_LABELS
7
STANDARD
10
1928.0000
20
-590.0000
30
0.0
40
8.0
1
LOT Blk17S-L34   PASS
50
0.0
0
TEXT
8
SHEET_LABELS
7
STANDARD
10
1928.0000
20
-601.0000
30
0.0
40
4.6
1
AREA 9,350 SF (0.215 ac)
50
0.0
0
TEXT
8
SHEET_LABELS
7
STANDARD
10
1928.0000
20
-608.0000
30
0.0
40
4.0
1
PERIMETER 387.00'   VERTICES 4   CLOSING SIDE 100.00'
50
0.0
0
TEXT
8
SHEET_LABELS
7
STANDARD
10
1928.0000
20
-615.0000
30
0.0
40
3.4
1
all geometric checks passed: closed single polyline, no self-intersection, no overlap, no spikes
50
0.0
0
LINE
8
SHEET_FRAME
10
2240.0000
20
-840.0000
30
0.0
11
2540.0000
21
-840.0000
31
0.0
0
LINE
8
SHEET_FRAME
10
2540.0000
20
-840.0000
30
0.0
11
2540.0000
21
-580.0000
31
0.0
0
LINE
8
SHEET_FRAME
10
2540.0000
20
-580.0000
30
0.0
11
2240.0000
21
-580.0000
31
0.0
0
LINE
8
SHEET_FRAME
10
2240.0000
20
-580.0000
30
0.0
11
2240.0000
21
-840.0000
31
0.0
0
POLYLINE
8
LOT_POLYLINE
66
1
70
1
0
VERTEX
8
LOT_POLYLINE
10
2266.0000
20
-645.3207
30
0.0
0
VERTEX
8
LOT_POLYLINE
10
2392.5094
20
-640.0000
30
0.0
0
VERTEX
8
LOT_POLYLINE
10
2399.6038
20
-808.6793
30
0.0
0
VERTEX
8
LOT_POLYLINE
10
2273.0943
20
-814.0000
30
0.0
0
SEQEND
0
TEXT
8
SHEET_LABELS
6
ROT_2.41
7
STANDARD
10
2329.3808
20
-645.6577
30
0.0
40
3.4
1
N87%%d35'30.00"E
50
2.41
0
TEXT
8
SHEET_LABELS
6
ROT_2.41
7
STANDARD
10
2329.1287
20
-639.6630
30
0.0
40
3.2
1
75.00'
50
2.41
0
POINT
8
SHEET_LABELS
10
2266.0000
20
-645.3207
30
0.0
0
TEXT
8
SHEET_LABELS
6
ROT_272.41
7
STANDARD
10
2399.0540
20
-724.2136
30
0.0
40
3.4
1
S02%%d24'30.00"E
50
272.41
0
TEXT
8
SHEET_LABELS
6
ROT_272.41
7
STANDARD
10
2393.0593
20
-724.4657
30
0.0
40
3.2
1
100.00'
50
272.41
0
POINT
8
SHEET_LABELS
10
2392.5094
20
-640.0000
30
0.0
0
TEXT
8
SHEET_LABELS
6
ROT_2.41
7
STANDARD
10
2336.4751
20
-814.3370
30
0.0
40
3.4
1
S87%%d35'30.00"W
50
2.41
0
TEXT
8
SHEET_LABELS
6
ROT_2.41
7
STANDARD
10
2336.2230
20
-808.3423
30
0.0
40
3.2
1
75.00'
50
2.41
0
POINT
8
SHEET_LABELS
10
2399.6038
20
-808.6793
30
0.0
0
TEXT
8
SHEET_LABELS
6
ROT_272.41
7
STANDARD
10
2272.5445
20
-729.5343
30
0.0
40
3.4
1
N02%%d24'30.00"W
50
272.41
0
TEXT
8
SHEET_LABELS
6
ROT_272.41
7
STANDARD
10
2266.5498
20
-729.7864
30
0.0
40
3.2
1
100.00'
50
272.41
0
POINT
8
SHEET_LABELS
10
2273.0943
20
-814.0000
30
0.0
0
TEXT
8
SHEET_LABELS
7
STANDARD
10
2248.0000
20
-590.0000
30
0.0
40
8.0
1
LOT Blk17S-L33   PASS
50
0.0
0
TEXT
8
SHEET_LABELS
7
STANDARD
10
2248.0000
20
-601.0000
30
0.0
40
4.6
1
AREA 7,500 SF (0.172 ac)
50
0.0
0
TEXT
8
SHEET_LABELS
7
STANDARD
10
2248.0000
20
-608.0000
30
0.0
40
4.0
1
PERIMETER 350.00'   VERTICES 4   CLOSING SIDE 100.00'
50
0.0
0
TEXT
8
SHEET_LABELS
7
STANDARD
10
2248.0000
20
-615.0000
30
0.0
40
3.4
1
all geometric checks passed: closed single polyline, no self-intersection, no overlap, no spikes
50
0.0
0
LINE
8
SHEET_FRAME
10
2560.0000
20
-840.0000
30
0.0
11
2860.0000
21
-840.0000
31
0.0
0
LINE
8
SHEET_FRAME
10
2860.0000
20
-840.0000
30
0.0
11
2860.0000
21
-580.0000
31
0.0
0
LINE
8
SHEET_FRAME
10
2860.0000
20
-580.0000
30
0.0
11
2560.0000
21
-580.0000
31
0.0
0
LINE
8
SHEET_FRAME
10
2560.0000
20
-580.0000
30
0.0
11
2560.0000
21
-840.0000
31
0.0
0
POLYLINE
8
LOT_POLYLINE
66
1
70
1
0
VERTEX
8
LOT_POLYLINE
10
2586.0000
20
-645.3207
30
0.0
0
VERTEX
8
LOT_POLYLINE
10
2712.5094
20
-640.0000
30
0.0
0
VERTEX
8
LOT_POLYLINE
10
2719.6038
20
-808.6793
30
0.0
0
VERTEX
8
LOT_POLYLINE
10
2593.0943
20
-814.0000
30
0.0
0
SEQEND
0
TEXT
8
SHEET_LABELS
6
ROT_2.41
7
STANDARD
10
2649.3808
20
-645.6577
30
0.0
40
3.4
1
N87%%d35'30.00"E
50
2.41
0
TEXT
8
SHEET_LABELS
6
ROT_2.41
7
STANDARD
10
2649.1287
20
-639.6630
30
0.0
40
3.2
1
75.00'
50
2.41
0
POINT
8
SHEET_LABELS
10
2586.0000
20
-645.3207
30
0.0
0
TEXT
8
SHEET_LABELS
6
ROT_272.41
7
STANDARD
10
2719.0540
20
-724.2136
30
0.0
40
3.4
1
S02%%d24'30.00"E
50
272.41
0
TEXT
8
SHEET_LABELS
6
ROT_272.41
7
STANDARD
10
2713.0593
20
-724.4657
30
0.0
40
3.2
1
100.00'
50
272.41
0
POINT
8
SHEET_LABELS
10
2712.5094
20
-640.0000
30
0.0
0
TEXT
8
SHEET_LABELS
6
ROT_2.41
7
STANDARD
10
2656.4751
20
-814.3370
30
0.0
40
3.4
1
S87%%d35'30.00"W
50
2.41
0
TEXT
8
SHEET_LABELS
6
ROT_2.41
7
STANDARD
10
2656.2230
20
-808.3423
30
0.0
40
3.2
1
75.00'
50
2.41
0
POINT
8
SHEET_LABELS
10
2719.6038
20
-808.6793
30
0.0
0
TEXT
8
SHEET_LABELS
6
ROT_272.41
7
STANDARD
10
2592.5445
20
-729.5343
30
0.0
40
3.4
1
N02%%d24'30.00"W
50
272.41
0
TEXT
8
SHEET_LABELS
6
ROT_272.41
7
STANDARD
10
2586.5498
20
-729.7864
30
0.0
40
3.2
1
100.00'
50
272.41
0
POINT
8
SHEET_LABELS
10
2593.0943
20
-814.0000
30
0.0
0
TEXT
8
SHEET_LABELS
7
STANDARD
10
2568.0000
20
-590.0000
30
0.0
40
8.0
1
LOT Blk17S-L32   PASS
50
0.0
0
TEXT
8
SHEET_LABELS
7
STANDARD
10
2568.0000
20
-601.0000
30
0.0
40
4.6
1
AREA 7,500 SF (0.172 ac)
50
0.0
0
TEXT
8
SHEET_LABELS
7
STANDARD
10
2568.0000
20
-608.0000
30
0.0
40
4.0
1
PERIMETER 350.00'   VERTICES 4   CLOSING SIDE 100.00'
50
0.0
0
TEXT
8
SHEET_LABELS
7
STANDARD
10
2568.0000
20
-615.0000
30
0.0
40
3.4
1
all geometric checks passed: closed single polyline, no self-intersection, no overlap, no spikes
50
0.0
0
LINE
8
SHEET_FRAME
10
2880.0000
20
-840.0000
30
0.0
11
3180.0000
21
-840.0000
31
0.0
0
LINE
8
SHEET_FRAME
10
3180.0000
20
-840.0000
30
0.0
11
3180.0000
21
-580.0000
31
0.0
0
LINE
8
SHEET_FRAME
10
3180.0000
20
-580.0000
30
0.0
11
2880.0000
21
-580.0000
31
0.0
0
LINE
8
SHEET_FRAME
10
2880.0000
20
-580.0000
30
0.0
11
2880.0000
21
-840.0000
31
0.0
0
POLYLINE
8
LOT_POLYLINE
66
1
70
1
0
VERTEX
8
LOT_POLYLINE
10
2906.0000
20
-645.3207
30
0.0
0
VERTEX
8
LOT_POLYLINE
10
3032.5094
20
-640.0000
30
0.0
0
VERTEX
8
LOT_POLYLINE
10
3039.6038
20
-808.6793
30
0.0
0
VERTEX
8
LOT_POLYLINE
10
2913.0943
20
-814.0000
30
0.0
0
SEQEND
0
TEXT
8
SHEET_LABELS
6
ROT_2.41
7
STANDARD
10
2969.3808
20
-645.6577
30
0.0
40
3.4
1
N87%%d35'30.00"E
50
2.41
0
TEXT
8
SHEET_LABELS
6
ROT_2.41
7
STANDARD
10
2969.1287
20
-639.6630
30
0.0
40
3.2
1
75.00'
50
2.41
0
POINT
8
SHEET_LABELS
10
2906.0000
20
-645.3207
30
0.0
0
TEXT
8
SHEET_LABELS
6
ROT_272.41
7
STANDARD
10
3039.0540
20
-724.2136
30
0.0
40
3.4
1
S02%%d24'30.00"E
50
272.41
0
TEXT
8
SHEET_LABELS
6
ROT_272.41
7
STANDARD
10
3033.0593
20
-724.4657
30
0.0
40
3.2
1
100.00'
50
272.41
0
POINT
8
SHEET_LABELS
10
3032.5094
20
-640.0000
30
0.0
0
TEXT
8
SHEET_LABELS
6
ROT_2.41
7
STANDARD
10
2976.4751
20
-814.3370
30
0.0
40
3.4
1
S87%%d35'30.00"W
50
2.41
0
TEXT
8
SHEET_LABELS
6
ROT_2.41
7
STANDARD
10
2976.2230
20
-808.3423
30
0.0
40
3.2
1
75.00'
50
2.41
0
POINT
8
SHEET_LABELS
10
3039.6038
20
-808.6793
30
0.0
0
TEXT
8
SHEET_LABELS
6
ROT_272.41
7
STANDARD
10
2912.5445
20
-729.5343
30
0.0
40
3.4
1
N02%%d24'30.00"W
50
272.41
0
TEXT
8
SHEET_LABELS
6
ROT_272.41
7
STANDARD
10
2906.5498
20
-729.7864
30
0.0
40
3.2
1
100.00'
50
272.41
0
POINT
8
SHEET_LABELS
10
2913.0943
20
-814.0000
30
0.0
0
TEXT
8
SHEET_LABELS
7
STANDARD
10
2888.0000
20
-590.0000
30
0.0
40
8.0
1
LOT Blk17S-L31   PASS
50
0.0
0
TEXT
8
SHEET_LABELS
7
STANDARD
10
2888.0000
20
-601.0000
30
0.0
40
4.6
1
AREA 7,500 SF (0.172 ac)
50
0.0
0
TEXT
8
SHEET_LABELS
7
STANDARD
10
2888.0000
20
-608.0000
30
0.0
40
4.0
1
PERIMETER 350.00'   VERTICES 4   CLOSING SIDE 100.00'
50
0.0
0
TEXT
8
SHEET_LABELS
7
STANDARD
10
2888.0000
20
-615.0000
30
0.0
40
3.4
1
all geometric checks passed: closed single polyline, no self-intersection, no overlap, no spikes
50
0.0
0
LINE
8
SHEET_FRAME
10
0.0000
20
-1120.0000
30
0.0
11
300.0000
21
-1120.0000
31
0.0
0
LINE
8
SHEET_FRAME
10
300.0000
20
-1120.0000
30
0.0
11
300.0000
21
-860.0000
31
0.0
0
LINE
8
SHEET_FRAME
10
300.0000
20
-860.0000
30
0.0
11
0.0000
21
-860.0000
31
0.0
0
LINE
8
SHEET_FRAME
10
0.0000
20
-860.0000
30
0.0
11
0.0000
21
-1120.0000
31
0.0
0
POLYLINE
8
LOT_POLYLINE
66
1
70
1
0
VERTEX
8
LOT_POLYLINE
10
26.0000
20
-925.3207
30
0.0
0
VERTEX
8
LOT_POLYLINE
10
152.5094
20
-920.0000
30
0.0
0
VERTEX
8
LOT_POLYLINE
10
159.6038
20
-1088.6793
30
0.0
0
VERTEX
8
LOT_POLYLINE
10
33.0943
20
-1094.0000
30
0.0
0
SEQEND
0
TEXT
8
SHEET_LABELS
6
ROT_2.41
7
STANDARD
10
89.3808
20
-925.6577
30
0.0
40
3.4
1
N87%%d35'30.00"E
50
2.41
0
TEXT
8
SHEET_LABELS
6
ROT_2.41
7
STANDARD
10
89.1287
20
-919.6630
30
0.0
40
3.2
1
75.00'
50
2.41
0
POINT
8
SHEET_LABELS
10
26.0000
20
-925.3207
30
0.0
0
TEXT
8
SHEET_LABELS
6
ROT_272.41
7
STANDARD
10
159.0540
20
-1004.2136
30
0.0
40
3.4
1
S02%%d24'30.00"E
50
272.41
0
TEXT
8
SHEET_LABELS
6
ROT_272.41
7
STANDARD
10
153.0593
20
-1004.4657
30
0.0
40
3.2
1
100.00'
50
272.41
0
POINT
8
SHEET_LABELS
10
152.5094
20
-920.0000
30
0.0
0
TEXT
8
SHEET_LABELS
6
ROT_2.41
7
STANDARD
10
96.4751
20
-1094.3370
30
0.0
40
3.4
1
S87%%d35'30.00"W
50
2.41
0
TEXT
8
SHEET_LABELS
6
ROT_2.41
7
STANDARD
10
96.2230
20
-1088.3423
30
0.0
40
3.2
1
75.00'
50
2.41
0
POINT
8
SHEET_LABELS
10
159.6038
20
-1088.6793
30
0.0
0
TEXT
8
SHEET_LABELS
6
ROT_272.41
7
STANDARD
10
32.5445
20
-1009.5343
30
0.0
40
3.4
1
N02%%d24'30.00"W
50
272.41
0
TEXT
8
SHEET_LABELS
6
ROT_272.41
7
STANDARD
10
26.5498
20
-1009.7864
30
0.0
40
3.2
1
100.00'
50
272.41
0
POINT
8
SHEET_LABELS
10
33.0943
20
-1094.0000
30
0.0
0
TEXT
8
SHEET_LABELS
7
STANDARD
10
8.0000
20
-870.0000
30
0.0
40
8.0
1
LOT Blk17S-L30   PASS
50
0.0
0
TEXT
8
SHEET_LABELS
7
STANDARD
10
8.0000
20
-881.0000
30
0.0
40
4.6
1
AREA 7,500 SF (0.172 ac)
50
0.0
0
TEXT
8
SHEET_LABELS
7
STANDARD
10
8.0000
20
-888.0000
30
0.0
40
4.0
1
PERIMETER 350.00'   VERTICES 4   CLOSING SIDE 100.00'
50
0.0
0
TEXT
8
SHEET_LABELS
7
STANDARD
10
8.0000
20
-895.0000
30
0.0
40
3.4
1
all geometric checks passed: closed single polyline, no self-intersection, no overlap, no spikes
50
0.0
0
LINE
8
SHEET_FRAME
10
320.0000
20
-1120.0000
30
0.0
11
620.0000
21
-1120.0000
31
0.0
0
LINE
8
SHEET_FRAME
10
620.0000
20
-1120.0000
30
0.0
11
620.0000
21
-860.0000
31
0.0
0
LINE
8
SHEET_FRAME
10
620.0000
20
-860.0000
30
0.0
11
320.0000
21
-860.0000
31
0.0
0
LINE
8
SHEET_FRAME
10
320.0000
20
-860.0000
30
0.0
11
320.0000
21
-1120.0000
31
0.0
0
POLYLINE
8
LOT_POLYLINE
66
1
70
1
0
VERTEX
8
LOT_POLYLINE
10
346.0000
20
-925.3207
30
0.0
0
VERTEX
8
LOT_POLYLINE
10
472.5094
20
-920.0000
30
0.0
0
VERTEX
8
LOT_POLYLINE
10
479.6038
20
-1088.6793
30
0.0
0
VERTEX
8
LOT_POLYLINE
10
353.0943
20
-1094.0000
30
0.0
0
SEQEND
0
TEXT
8
SHEET_LABELS
6
ROT_2.41
7
STANDARD
10
409.3808
20
-925.6577
30
0.0
40
3.4
1
N87%%d35'30.00"E
50
2.41
0
TEXT
8
SHEET_LABELS
6
ROT_2.41
7
STANDARD
10
409.1287
20
-919.6630
30
0.0
40
3.2
1
75.00'
50
2.41
0
POINT
8
SHEET_LABELS
10
346.0000
20
-925.3207
30
0.0
0
TEXT
8
SHEET_LABELS
6
ROT_272.41
7
STANDARD
10
479.0540
20
-1004.2136
30
0.0
40
3.4
1
S02%%d24'30.00"E
50
272.41
0
TEXT
8
SHEET_LABELS
6
ROT_272.41
7
STANDARD
10
473.0593
20
-1004.4657
30
0.0
40
3.2
1
100.00'
50
272.41
0
POINT
8
SHEET_LABELS
10
472.5094
20
-920.0000
30
0.0
0
TEXT
8
SHEET_LABELS
6
ROT_2.41
7
STANDARD
10
416.4751
20
-1094.3370
30
0.0
40
3.4
1
S87%%d35'30.00"W
50
2.41
0
TEXT
8
SHEET_LABELS
6
ROT_2.41
7
STANDARD
10
416.2230
20
-1088.3423
30
0.0
40
3.2
1
75.00'
50
2.41
0
POINT
8
SHEET_LABELS
10
479.6038
20
-1088.6793
30
0.0
0
TEXT
8
SHEET_LABELS
6
ROT_272.41
7
STANDARD
10
352.5445
20
-1009.5343
30
0.0
40
3.4
1
N02%%d24'30.00"W
50
272.41
0
TEXT
8
SHEET_LABELS
6
ROT_272.41
7
STANDARD
10
346.5498
20
-1009.7864
30
0.0
40
3.2
1
100.00'
50
272.41
0
POINT
8
SHEET_LABELS
10
353.0943
20
-1094.0000
30
0.0
0
TEXT
8
SHEET_LABELS
7
STANDARD
10
328.0000
20
-870.0000
30
0.0
40
8.0
1
LOT Blk17S-L29   PASS
50
0.0
0
TEXT
8
SHEET_LABELS
7
STANDARD
10
328.0000
20
-881.0000
30
0.0
40
4.6
1
AREA 7,500 SF (0.172 ac)
50
0.0
0
TEXT
8
SHEET_LABELS
7
STANDARD
10
328.0000
20
-888.0000
30
0.0
40
4.0
1
PERIMETER 350.00'   VERTICES 4   CLOSING SIDE 100.00'
50
0.0
0
TEXT
8
SHEET_LABELS
7
STANDARD
10
328.0000
20
-895.0000
30
0.0
40
3.4
1
all geometric checks passed: closed single polyline, no self-intersection, no overlap, no spikes
50
0.0
0
LINE
8
SHEET_FRAME
10
640.0000
20
-1120.0000
30
0.0
11
940.0000
21
-1120.0000
31
0.0
0
LINE
8
SHEET_FRAME
10
940.0000
20
-1120.0000
30
0.0
11
940.0000
21
-860.0000
31
0.0
0
LINE
8
SHEET_FRAME
10
940.0000
20
-860.0000
30
0.0
11
640.0000
21
-860.0000
31
0.0
0
LINE
8
SHEET_FRAME
10
640.0000
20
-860.0000
30
0.0
11
640.0000
21
-1120.0000
31
0.0
0
POLYLINE
8
LOT_POLYLINE
66
1
70
1
0
VERTEX
8
LOT_POLYLINE
10
666.0000
20
-925.3207
30
0.0
0
VERTEX
8
LOT_POLYLINE
10
792.5094
20
-920.0000
30
0.0
0
VERTEX
8
LOT_POLYLINE
10
799.6038
20
-1088.6793
30
0.0
0
VERTEX
8
LOT_POLYLINE
10
673.0943
20
-1094.0000
30
0.0
0
SEQEND
0
TEXT
8
SHEET_LABELS
6
ROT_2.41
7
STANDARD
10
729.3808
20
-925.6577
30
0.0
40
3.4
1
N87%%d35'30.00"E
50
2.41
0
TEXT
8
SHEET_LABELS
6
ROT_2.41
7
STANDARD
10
729.1287
20
-919.6630
30
0.0
40
3.2
1
75.00'
50
2.41
0
POINT
8
SHEET_LABELS
10
666.0000
20
-925.3207
30
0.0
0
TEXT
8
SHEET_LABELS
6
ROT_272.41
7
STANDARD
10
799.0540
20
-1004.2136
30
0.0
40
3.4
1
S02%%d24'30.00"E
50
272.41
0
TEXT
8
SHEET_LABELS
6
ROT_272.41
7
STANDARD
10
793.0593
20
-1004.4657
30
0.0
40
3.2
1
100.00'
50
272.41
0
POINT
8
SHEET_LABELS
10
792.5094
20
-920.0000
30
0.0
0
TEXT
8
SHEET_LABELS
6
ROT_2.41
7
STANDARD
10
736.4751
20
-1094.3370
30
0.0
40
3.4
1
S87%%d35'30.00"W
50
2.41
0
TEXT
8
SHEET_LABELS
6
ROT_2.41
7
STANDARD
10
736.2230
20
-1088.3423
30
0.0
40
3.2
1
75.00'
50
2.41
0
POINT
8
SHEET_LABELS
10
799.6038
20
-1088.6793
30
0.0
0
TEXT
8
SHEET_LABELS
6
ROT_272.41
7
STANDARD
10
672.5445
20
-1009.5343
30
0.0
40
3.4
1
N02%%d24'30.00"W
50
272.41
0
TEXT
8
SHEET_LABELS
6
ROT_272.41
7
STANDARD
10
666.5498
20
-1009.7864
30
0.0
40
3.2
1
100.00'
50
272.41
0
POINT
8
SHEET_LABELS
10
673.0943
20
-1094.0000
30
0.0
0
TEXT
8
SHEET_LABELS
7
STANDARD
10
648.0000
20
-870.0000
30
0.0
40
8.0
1
LOT Blk17S-L28   PASS
50
0.0
0
TEXT
8
SHEET_LABELS
7
STANDARD
10
648.0000
20
-881.0000
30
0.0
40
4.6
1
AREA 7,500 SF (0.172 ac)
50
0.0
0
TEXT
8
SHEET_LABELS
7
STANDARD
10
648.0000
20
-888.0000
30
0.0
40
4.0
1
PERIMETER 350.00'   VERTICES 4   CLOSING SIDE 100.00'
50
0.0
0
TEXT
8
SHEET_LABELS
7
STANDARD
10
648.0000
20
-895.0000
30
0.0
40
3.4
1
all geometric checks passed: closed single polyline, no self-intersection, no overlap, no spikes
50
0.0
0
LINE
8
SHEET_FRAME
10
960.0000
20
-1120.0000
30
0.0
11
1260.0000
21
-1120.0000
31
0.0
0
LINE
8
SHEET_FRAME
10
1260.0000
20
-1120.0000
30
0.0
11
1260.0000
21
-860.0000
31
0.0
0
LINE
8
SHEET_FRAME
10
1260.0000
20
-860.0000
30
0.0
11
960.0000
21
-860.0000
31
0.0
0
LINE
8
SHEET_FRAME
10
960.0000
20
-860.0000
30
0.0
11
960.0000
21
-1120.0000
31
0.0
0
POLYLINE
8
LOT_POLYLINE
66
1
70
1
0
VERTEX
8
LOT_POLYLINE
10
986.0000
20
-925.3207
30
0.0
0
VERTEX
8
LOT_POLYLINE
10
1112.5094
20
-920.0000
30
0.0
0
VERTEX
8
LOT_POLYLINE
10
1119.6038
20
-1088.6793
30
0.0
0
VERTEX
8
LOT_POLYLINE
10
993.0943
20
-1094.0000
30
0.0
0
SEQEND
0
TEXT
8
SHEET_LABELS
6
ROT_2.41
7
STANDARD
10
1049.3808
20
-925.6577
30
0.0
40
3.4
1
N87%%d35'30.00"E
50
2.41
0
TEXT
8
SHEET_LABELS
6
ROT_2.41
7
STANDARD
10
1049.1287
20
-919.6630
30
0.0
40
3.2
1
75.00'
50
2.41
0
POINT
8
SHEET_LABELS
10
986.0000
20
-925.3207
30
0.0
0
TEXT
8
SHEET_LABELS
6
ROT_272.41
7
STANDARD
10
1119.0540
20
-1004.2136
30
0.0
40
3.4
1
S02%%d24'30.00"E
50
272.41
0
TEXT
8
SHEET_LABELS
6
ROT_272.41
7
STANDARD
10
1113.0593
20
-1004.4657
30
0.0
40
3.2
1
100.00'
50
272.41
0
POINT
8
SHEET_LABELS
10
1112.5094
20
-920.0000
30
0.0
0
TEXT
8
SHEET_LABELS
6
ROT_2.41
7
STANDARD
10
1056.4751
20
-1094.3370
30
0.0
40
3.4
1
S87%%d35'30.00"W
50
2.41
0
TEXT
8
SHEET_LABELS
6
ROT_2.41
7
STANDARD
10
1056.2230
20
-1088.3423
30
0.0
40
3.2
1
75.00'
50
2.41
0
POINT
8
SHEET_LABELS
10
1119.6038
20
-1088.6793
30
0.0
0
TEXT
8
SHEET_LABELS
6
ROT_272.41
7
STANDARD
10
992.5445
20
-1009.5343
30
0.0
40
3.4
1
N02%%d24'30.00"W
50
272.41
0
TEXT
8
SHEET_LABELS
6
ROT_272.41
7
STANDARD
10
986.5498
20
-1009.7864
30
0.0
40
3.2
1
100.00'
50
272.41
0
POINT
8
SHEET_LABELS
10
993.0943
20
-1094.0000
30
0.0
0
TEXT
8
SHEET_LABELS
7
STANDARD
10
968.0000
20
-870.0000
30
0.0
40
8.0
1
LOT Blk17S-L27   PASS
50
0.0
0
TEXT
8
SHEET_LABELS
7
STANDARD
10
968.0000
20
-881.0000
30
0.0
40
4.6
1
AREA 7,500 SF (0.172 ac)
50
0.0
0
TEXT
8
SHEET_LABELS
7
STANDARD
10
968.0000
20
-888.0000
30
0.0
40
4.0
1
PERIMETER 350.00'   VERTICES 4   CLOSING SIDE 100.00'
50
0.0
0
TEXT
8
SHEET_LABELS
7
STANDARD
10
968.0000
20
-895.0000
30
0.0
40
3.4
1
all geometric checks passed: closed single polyline, no self-intersection, no overlap, no spikes
50
0.0
0
LINE
8
SHEET_FRAME
10
1280.0000
20
-1120.0000
30
0.0
11
1580.0000
21
-1120.0000
31
0.0
0
LINE
8
SHEET_FRAME
10
1580.0000
20
-1120.0000
30
0.0
11
1580.0000
21
-860.0000
31
0.0
0
LINE
8
SHEET_FRAME
10
1580.0000
20
-860.0000
30
0.0
11
1280.0000
21
-860.0000
31
0.0
0
LINE
8
SHEET_FRAME
10
1280.0000
20
-860.0000
30
0.0
11
1280.0000
21
-1120.0000
31
0.0
0
POLYLINE
8
LOT_POLYLINE
66
1
70
1
0
VERTEX
8
LOT_POLYLINE
10
1306.0000
20
-925.3207
30
0.0
0
VERTEX
8
LOT_POLYLINE
10
1432.5094
20
-920.0000
30
0.0
0
VERTEX
8
LOT_POLYLINE
10
1439.6038
20
-1088.6793
30
0.0
0
VERTEX
8
LOT_POLYLINE
10
1313.0943
20
-1094.0000
30
0.0
0
SEQEND
0
TEXT
8
SHEET_LABELS
6
ROT_2.41
7
STANDARD
10
1369.3808
20
-925.6577
30
0.0
40
3.4
1
N87%%d35'30.00"E
50
2.41
0
TEXT
8
SHEET_LABELS
6
ROT_2.41
7
STANDARD
10
1369.1287
20
-919.6630
30
0.0
40
3.2
1
75.00'
50
2.41
0
POINT
8
SHEET_LABELS
10
1306.0000
20
-925.3207
30
0.0
0
TEXT
8
SHEET_LABELS
6
ROT_272.41
7
STANDARD
10
1439.0540
20
-1004.2136
30
0.0
40
3.4
1
S02%%d24'30.00"E
50
272.41
0
TEXT
8
SHEET_LABELS
6
ROT_272.41
7
STANDARD
10
1433.0593
20
-1004.4657
30
0.0
40
3.2
1
100.00'
50
272.41
0
POINT
8
SHEET_LABELS
10
1432.5094
20
-920.0000
30
0.0
0
TEXT
8
SHEET_LABELS
6
ROT_2.41
7
STANDARD
10
1376.4751
20
-1094.3370
30
0.0
40
3.4
1
S87%%d35'30.00"W
50
2.41
0
TEXT
8
SHEET_LABELS
6
ROT_2.41
7
STANDARD
10
1376.2230
20
-1088.3423
30
0.0
40
3.2
1
75.00'
50
2.41
0
POINT
8
SHEET_LABELS
10
1439.6038
20
-1088.6793
30
0.0
0
TEXT
8
SHEET_LABELS
6
ROT_272.41
7
STANDARD
10
1312.5445
20
-1009.5343
30
0.0
40
3.4
1
N02%%d24'30.00"W
50
272.41
0
TEXT
8
SHEET_LABELS
6
ROT_272.41
7
STANDARD
10
1306.5498
20
-1009.7864
30
0.0
40
3.2
1
100.00'
50
272.41
0
POINT
8
SHEET_LABELS
10
1313.0943
20
-1094.0000
30
0.0
0
TEXT
8
SHEET_LABELS
7
STANDARD
10
1288.0000
20
-870.0000
30
0.0
40
8.0
1
LOT Blk17S-L26   PASS
50
0.0
0
TEXT
8
SHEET_LABELS
7
STANDARD
10
1288.0000
20
-881.0000
30
0.0
40
4.6
1
AREA 7,500 SF (0.172 ac)
50
0.0
0
TEXT
8
SHEET_LABELS
7
STANDARD
10
1288.0000
20
-888.0000
30
0.0
40
4.0
1
PERIMETER 350.00'   VERTICES 4   CLOSING SIDE 100.00'
50
0.0
0
TEXT
8
SHEET_LABELS
7
STANDARD
10
1288.0000
20
-895.0000
30
0.0
40
3.4
1
all geometric checks passed: closed single polyline, no self-intersection, no overlap, no spikes
50
0.0
0
LINE
8
SHEET_FRAME
10
1600.0000
20
-1120.0000
30
0.0
11
1900.0000
21
-1120.0000
31
0.0
0
LINE
8
SHEET_FRAME
10
1900.0000
20
-1120.0000
30
0.0
11
1900.0000
21
-860.0000
31
0.0
0
LINE
8
SHEET_FRAME
10
1900.0000
20
-860.0000
30
0.0
11
1600.0000
21
-860.0000
31
0.0
0
LINE
8
SHEET_FRAME
10
1600.0000
20
-860.0000
30
0.0
11
1600.0000
21
-1120.0000
31
0.0
0
POLYLINE
8
LOT_POLYLINE
66
1
70
1
0
VERTEX
8
LOT_POLYLINE
10
1626.0000
20
-925.3207
30
0.0
0
VERTEX
8
LOT_POLYLINE
10
1752.5094
20
-920.0000
30
0.0
0
VERTEX
8
LOT_POLYLINE
10
1759.6038
20
-1088.6793
30
0.0
0
VERTEX
8
LOT_POLYLINE
10
1633.0943
20
-1094.0000
30
0.0
0
SEQEND
0
TEXT
8
SHEET_LABELS
6
ROT_2.41
7
STANDARD
10
1689.3808
20
-925.6577
30
0.0
40
3.4
1
N87%%d35'30.00"E
50
2.41
0
TEXT
8
SHEET_LABELS
6
ROT_2.41
7
STANDARD
10
1689.1287
20
-919.6630
30
0.0
40
3.2
1
75.00'
50
2.41
0
POINT
8
SHEET_LABELS
10
1626.0000
20
-925.3207
30
0.0
0
TEXT
8
SHEET_LABELS
6
ROT_272.41
7
STANDARD
10
1759.0540
20
-1004.2136
30
0.0
40
3.4
1
S02%%d24'30.00"E
50
272.41
0
TEXT
8
SHEET_LABELS
6
ROT_272.41
7
STANDARD
10
1753.0593
20
-1004.4657
30
0.0
40
3.2
1
100.00'
50
272.41
0
POINT
8
SHEET_LABELS
10
1752.5094
20
-920.0000
30
0.0
0
TEXT
8
SHEET_LABELS
6
ROT_2.41
7
STANDARD
10
1696.4751
20
-1094.3370
30
0.0
40
3.4
1
S87%%d35'30.00"W
50
2.41
0
TEXT
8
SHEET_LABELS
6
ROT_2.41
7
STANDARD
10
1696.2230
20
-1088.3423
30
0.0
40
3.2
1
75.00'
50
2.41
0
POINT
8
SHEET_LABELS
10
1759.6038
20
-1088.6793
30
0.0
0
TEXT
8
SHEET_LABELS
6
ROT_272.41
7
STANDARD
10
1632.5445
20
-1009.5343
30
0.0
40
3.4
1
N02%%d24'30.00"W
50
272.41
0
TEXT
8
SHEET_LABELS
6
ROT_272.41
7
STANDARD
10
1626.5498
20
-1009.7864
30
0.0
40
3.2
1
100.00'
50
272.41
0
POINT
8
SHEET_LABELS
10
1633.0943
20
-1094.0000
30
0.0
0
TEXT
8
SHEET_LABELS
7
STANDARD
10
1608.0000
20
-870.0000
30
0.0
40
8.0
1
LOT Blk17S-L25   PASS
50
0.0
0
TEXT
8
SHEET_LABELS
7
STANDARD
10
1608.0000
20
-881.0000
30
0.0
40
4.6
1
AREA 7,500 SF (0.172 ac)
50
0.0
0
TEXT
8
SHEET_LABELS
7
STANDARD
10
1608.0000
20
-888.0000
30
0.0
40
4.0
1
PERIMETER 350.00'   VERTICES 4   CLOSING SIDE 100.00'
50
0.0
0
TEXT
8
SHEET_LABELS
7
STANDARD
10
1608.0000
20
-895.0000
30
0.0
40
3.4
1
all geometric checks passed: closed single polyline, no self-intersection, no overlap, no spikes
50
0.0
0
LINE
8
SHEET_FRAME
10
1920.0000
20
-1120.0000
30
0.0
11
2220.0000
21
-1120.0000
31
0.0
0
LINE
8
SHEET_FRAME
10
2220.0000
20
-1120.0000
30
0.0
11
2220.0000
21
-860.0000
31
0.0
0
LINE
8
SHEET_FRAME
10
2220.0000
20
-860.0000
30
0.0
11
1920.0000
21
-860.0000
31
0.0
0
LINE
8
SHEET_FRAME
10
1920.0000
20
-860.0000
30
0.0
11
1920.0000
21
-1120.0000
31
0.0
0
POLYLINE
8
LOT_POLYLINE
66
1
70
1
0
VERTEX
8
LOT_POLYLINE
10
1946.0000
20
-925.3207
30
0.0
0
VERTEX
8
LOT_POLYLINE
10
2072.5094
20
-920.0000
30
0.0
0
VERTEX
8
LOT_POLYLINE
10
2079.6038
20
-1088.6793
30
0.0
0
VERTEX
8
LOT_POLYLINE
10
1953.0943
20
-1094.0000
30
0.0
0
SEQEND
0
TEXT
8
SHEET_LABELS
6
ROT_2.41
7
STANDARD
10
2009.3808
20
-925.6577
30
0.0
40
3.4
1
N87%%d35'30.00"E
50
2.41
0
TEXT
8
SHEET_LABELS
6
ROT_2.41
7
STANDARD
10
2009.1287
20
-919.6630
30
0.0
40
3.2
1
75.00'
50
2.41
0
POINT
8
SHEET_LABELS
10
1946.0000
20
-925.3207
30
0.0
0
TEXT
8
SHEET_LABELS
6
ROT_272.41
7
STANDARD
10
2079.0540
20
-1004.2136
30
0.0
40
3.4
1
S02%%d24'30.00"E
50
272.41
0
TEXT
8
SHEET_LABELS
6
ROT_272.41
7
STANDARD
10
2073.0593
20
-1004.4657
30
0.0
40
3.2
1
100.00'
50
272.41
0
POINT
8
SHEET_LABELS
10
2072.5094
20
-920.0000
30
0.0
0
TEXT
8
SHEET_LABELS
6
ROT_2.41
7
STANDARD
10
2016.4751
20
-1094.3370
30
0.0
40
3.4
1
S87%%d35'30.00"W
50
2.41
0
TEXT
8
SHEET_LABELS
6
ROT_2.41
7
STANDARD
10
2016.2230
20
-1088.3423
30
0.0
40
3.2
1
75.00'
50
2.41
0
POINT
8
SHEET_LABELS
10
2079.6038
20
-1088.6793
30
0.0
0
TEXT
8
SHEET_LABELS
6
ROT_272.41
7
STANDARD
10
1952.5445
20
-1009.5343
30
0.0
40
3.4
1
N02%%d24'30.00"W
50
272.41
0
TEXT
8
SHEET_LABELS
6
ROT_272.41
7
STANDARD
10
1946.5498
20
-1009.7864
30
0.0
40
3.2
1
100.00'
50
272.41
0
POINT
8
SHEET_LABELS
10
1953.0943
20
-1094.0000
30
0.0
0
TEXT
8
SHEET_LABELS
7
STANDARD
10
1928.0000
20
-870.0000
30
0.0
40
8.0
1
LOT Blk17S-L24   PASS
50
0.0
0
TEXT
8
SHEET_LABELS
7
STANDARD
10
1928.0000
20
-881.0000
30
0.0
40
4.6
1
AREA 7,500 SF (0.172 ac)
50
0.0
0
TEXT
8
SHEET_LABELS
7
STANDARD
10
1928.0000
20
-888.0000
30
0.0
40
4.0
1
PERIMETER 350.00'   VERTICES 4   CLOSING SIDE 100.00'
50
0.0
0
TEXT
8
SHEET_LABELS
7
STANDARD
10
1928.0000
20
-895.0000
30
0.0
40
3.4
1
all geometric checks passed: closed single polyline, no self-intersection, no overlap, no spikes
50
0.0
0
LINE
8
SHEET_FRAME
10
2240.0000
20
-1120.0000
30
0.0
11
2540.0000
21
-1120.0000
31
0.0
0
LINE
8
SHEET_FRAME
10
2540.0000
20
-1120.0000
30
0.0
11
2540.0000
21
-860.0000
31
0.0
0
LINE
8
SHEET_FRAME
10
2540.0000
20
-860.0000
30
0.0
11
2240.0000
21
-860.0000
31
0.0
0
LINE
8
SHEET_FRAME
10
2240.0000
20
-860.0000
30
0.0
11
2240.0000
21
-1120.0000
31
0.0
0
POLYLINE
8
LOT_POLYLINE
66
1
70
1
0
VERTEX
8
LOT_POLYLINE
10
2266.0000
20
-925.3207
30
0.0
0
VERTEX
8
LOT_POLYLINE
10
2392.5094
20
-920.0000
30
0.0
0
VERTEX
8
LOT_POLYLINE
10
2399.6038
20
-1088.6793
30
0.0
0
VERTEX
8
LOT_POLYLINE
10
2273.0943
20
-1094.0000
30
0.0
0
SEQEND
0
TEXT
8
SHEET_LABELS
6
ROT_2.41
7
STANDARD
10
2329.3808
20
-925.6577
30
0.0
40
3.4
1
N87%%d35'30.00"E
50
2.41
0
TEXT
8
SHEET_LABELS
6
ROT_2.41
7
STANDARD
10
2329.1287
20
-919.6630
30
0.0
40
3.2
1
75.00'
50
2.41
0
POINT
8
SHEET_LABELS
10
2266.0000
20
-925.3207
30
0.0
0
TEXT
8
SHEET_LABELS
6
ROT_272.41
7
STANDARD
10
2399.0540
20
-1004.2136
30
0.0
40
3.4
1
S02%%d24'30.00"E
50
272.41
0
TEXT
8
SHEET_LABELS
6
ROT_272.41
7
STANDARD
10
2393.0593
20
-1004.4657
30
0.0
40
3.2
1
100.00'
50
272.41
0
POINT
8
SHEET_LABELS
10
2392.5094
20
-920.0000
30
0.0
0
TEXT
8
SHEET_LABELS
6
ROT_2.41
7
STANDARD
10
2336.4751
20
-1094.3370
30
0.0
40
3.4
1
S87%%d35'30.00"W
50
2.41
0
TEXT
8
SHEET_LABELS
6
ROT_2.41
7
STANDARD
10
2336.2230
20
-1088.3423
30
0.0
40
3.2
1
75.00'
50
2.41
0
POINT
8
SHEET_LABELS
10
2399.6038
20
-1088.6793
30
0.0
0
TEXT
8
SHEET_LABELS
6
ROT_272.41
7
STANDARD
10
2272.5445
20
-1009.5343
30
0.0
40
3.4
1
N02%%d24'30.00"W
50
272.41
0
TEXT
8
SHEET_LABELS
6
ROT_272.41
7
STANDARD
10
2266.5498
20
-1009.7864
30
0.0
40
3.2
1
100.00'
50
272.41
0
POINT
8
SHEET_LABELS
10
2273.0943
20
-1094.0000
30
0.0
0
TEXT
8
SHEET_LABELS
7
STANDARD
10
2248.0000
20
-870.0000
30
0.0
40
8.0
1
LOT Blk17S-L23   PASS
50
0.0
0
TEXT
8
SHEET_LABELS
7
STANDARD
10
2248.0000
20
-881.0000
30
0.0
40
4.6
1
AREA 7,500 SF (0.172 ac)
50
0.0
0
TEXT
8
SHEET_LABELS
7
STANDARD
10
2248.0000
20
-888.0000
30
0.0
40
4.0
1
PERIMETER 350.00'   VERTICES 4   CLOSING SIDE 100.00'
50
0.0
0
TEXT
8
SHEET_LABELS
7
STANDARD
10
2248.0000
20
-895.0000
30
0.0
40
3.4
1
all geometric checks passed: closed single polyline, no self-intersection, no overlap, no spikes
50
0.0
0
LINE
8
SHEET_FRAME
10
2560.0000
20
-1120.0000
30
0.0
11
2860.0000
21
-1120.0000
31
0.0
0
LINE
8
SHEET_FRAME
10
2860.0000
20
-1120.0000
30
0.0
11
2860.0000
21
-860.0000
31
0.0
0
LINE
8
SHEET_FRAME
10
2860.0000
20
-860.0000
30
0.0
11
2560.0000
21
-860.0000
31
0.0
0
LINE
8
SHEET_FRAME
10
2560.0000
20
-860.0000
30
0.0
11
2560.0000
21
-1120.0000
31
0.0
0
POLYLINE
8
LOT_POLYLINE
66
1
70
1
0
VERTEX
8
LOT_POLYLINE
10
2586.0000
20
-925.3207
30
0.0
0
VERTEX
8
LOT_POLYLINE
10
2712.5094
20
-920.0000
30
0.0
0
VERTEX
8
LOT_POLYLINE
10
2719.6038
20
-1088.6793
30
0.0
0
VERTEX
8
LOT_POLYLINE
10
2593.0943
20
-1094.0000
30
0.0
0
SEQEND
0
TEXT
8
SHEET_LABELS
6
ROT_2.41
7
STANDARD
10
2649.3808
20
-925.6577
30
0.0
40
3.4
1
N87%%d35'30.00"E
50
2.41
0
TEXT
8
SHEET_LABELS
6
ROT_2.41
7
STANDARD
10
2649.1287
20
-919.6630
30
0.0
40
3.2
1
75.00'
50
2.41
0
POINT
8
SHEET_LABELS
10
2586.0000
20
-925.3207
30
0.0
0
TEXT
8
SHEET_LABELS
6
ROT_272.41
7
STANDARD
10
2719.0540
20
-1004.2136
30
0.0
40
3.4
1
S02%%d24'30.00"E
50
272.41
0
TEXT
8
SHEET_LABELS
6
ROT_272.41
7
STANDARD
10
2713.0593
20
-1004.4657
30
0.0
40
3.2
1
100.00'
50
272.41
0
POINT
8
SHEET_LABELS
10
2712.5094
20
-920.0000
30
0.0
0
TEXT
8
SHEET_LABELS
6
ROT_2.41
7
STANDARD
10
2656.4751
20
-1094.3370
30
0.0
40
3.4
1
S87%%d35'30.00"W
50
2.41
0
TEXT
8
SHEET_LABELS
6
ROT_2.41
7
STANDARD
10
2656.2230
20
-1088.3423
30
0.0
40
3.2
1
75.00'
50
2.41
0
POINT
8
SHEET_LABELS
10
2719.6038
20
-1088.6793
30
0.0
0
TEXT
8
SHEET_LABELS
6
ROT_272.41
7
STANDARD
10
2592.5445
20
-1009.5343
30
0.0
40
3.4
1
N02%%d24'30.00"W
50
272.41
0
TEXT
8
SHEET_LABELS
6
ROT_272.41
7
STANDARD
10
2586.5498
20
-1009.7864
30
0.0
40
3.2
1
100.00'
50
272.41
0
POINT
8
SHEET_LABELS
10
2593.0943
20
-1094.0000
30
0.0
0
TEXT
8
SHEET_LABELS
7
STANDARD
10
2568.0000
20
-870.0000
30
0.0
40
8.0
1
LOT Blk17S-L22   PASS
50
0.0
0
TEXT
8
SHEET_LABELS
7
STANDARD
10
2568.0000
20
-881.0000
30
0.0
40
4.6
1
AREA 7,500 SF (0.172 ac)
50
0.0
0
TEXT
8
SHEET_LABELS
7
STANDARD
10
2568.0000
20
-888.0000
30
0.0
40
4.0
1
PERIMETER 350.00'   VERTICES 4   CLOSING SIDE 100.00'
50
0.0
0
TEXT
8
SHEET_LABELS
7
STANDARD
10
2568.0000
20
-895.0000
30
0.0
40
3.4
1
all geometric checks passed: closed single polyline, no self-intersection, no overlap, no spikes
50
0.0
0
LINE
8
SHEET_FRAME
10
2880.0000
20
-1120.0000
30
0.0
11
3180.0000
21
-1120.0000
31
0.0
0
LINE
8
SHEET_FRAME
10
3180.0000
20
-1120.0000
30
0.0
11
3180.0000
21
-860.0000
31
0.0
0
LINE
8
SHEET_FRAME
10
3180.0000
20
-860.0000
30
0.0
11
2880.0000
21
-860.0000
31
0.0
0
LINE
8
SHEET_FRAME
10
2880.0000
20
-860.0000
30
0.0
11
2880.0000
21
-1120.0000
31
0.0
0
POLYLINE
8
LOT_POLYLINE
66
1
70
1
0
VERTEX
8
LOT_POLYLINE
10
2906.0000
20
-925.3207
30
0.0
0
VERTEX
8
LOT_POLYLINE
10
3032.5094
20
-920.0000
30
0.0
0
VERTEX
8
LOT_POLYLINE
10
3039.6038
20
-1088.6793
30
0.0
0
VERTEX
8
LOT_POLYLINE
10
2913.0943
20
-1094.0000
30
0.0
0
SEQEND
0
TEXT
8
SHEET_LABELS
6
ROT_2.41
7
STANDARD
10
2969.3808
20
-925.6577
30
0.0
40
3.4
1
N87%%d35'30.00"E
50
2.41
0
TEXT
8
SHEET_LABELS
6
ROT_2.41
7
STANDARD
10
2969.1287
20
-919.6630
30
0.0
40
3.2
1
75.00'
50
2.41
0
POINT
8
SHEET_LABELS
10
2906.0000
20
-925.3207
30
0.0
0
TEXT
8
SHEET_LABELS
6
ROT_272.41
7
STANDARD
10
3039.0540
20
-1004.2136
30
0.0
40
3.4
1
S02%%d24'30.00"E
50
272.41
0
TEXT
8
SHEET_LABELS
6
ROT_272.41
7
STANDARD
10
3033.0593
20
-1004.4657
30
0.0
40
3.2
1
100.00'
50
272.41
0
POINT
8
SHEET_LABELS
10
3032.5094
20
-920.0000
30
0.0
0
TEXT
8
SHEET_LABELS
6
ROT_2.41
7
STANDARD
10
2976.4751
20
-1094.3370
30
0.0
40
3.4
1
S87%%d35'30.00"W
50
2.41
0
TEXT
8
SHEET_LABELS
6
ROT_2.41
7
STANDARD
10
2976.2230
20
-1088.3423
30
0.0
40
3.2
1
75.00'
50
2.41
0
POINT
8
SHEET_LABELS
10
3039.6038
20
-1088.6793
30
0.0
0
TEXT
8
SHEET_LABELS
6
ROT_272.41
7
STANDARD
10
2912.5445
20
-1009.5343
30
0.0
40
3.4
1
N02%%d24'30.00"W
50
272.41
0
TEXT
8
SHEET_LABELS
6
ROT_272.41
7
STANDARD
10
2906.5498
20
-1009.7864
30
0.0
40
3.2
1
100.00'
50
272.41
0
POINT
8
SHEET_LABELS
10
2913.0943
20
-1094.0000
30
0.0
0
TEXT
8
SHEET_LABELS
7
STANDARD
10
2888.0000
20
-870.0000
30
0.0
40
8.0
1
LOT Blk17S-L21   PASS
50
0.0
0
TEXT
8
SHEET_LABELS
7
STANDARD
10
2888.0000
20
-881.0000
30
0.0
40
4.6
1
AREA 7,500 SF (0.172 ac)
50
0.0
0
TEXT
8
SHEET_LABELS
7
STANDARD
10
2888.0000
20
-888.0000
30
0.0
40
4.0
1
PERIMETER 350.00'   VERTICES 4   CLOSING SIDE 100.00'
50
0.0
0
TEXT
8
SHEET_LABELS
7
STANDARD
10
2888.0000
20
-895.0000
30
0.0
40
3.4
1
all geometric checks passed: closed single polyline, no self-intersection, no overlap, no spikes
50
0.0
0
LINE
8
SHEET_FRAME
10
0.0000
20
-1400.0000
30
0.0
11
300.0000
21
-1400.0000
31
0.0
0
LINE
8
SHEET_FRAME
10
300.0000
20
-1400.0000
30
0.0
11
300.0000
21
-1140.0000
31
0.0
0
LINE
8
SHEET_FRAME
10
300.0000
20
-1140.0000
30
0.0
11
0.0000
21
-1140.0000
31
0.0
0
LINE
8
SHEET_FRAME
10
0.0000
20
-1140.0000
30
0.0
11
0.0000
21
-1400.0000
31
0.0
0
POLYLINE
8
LOT_POLYLINE
66
1
70
1
0
VERTEX
8
LOT_POLYLINE
10
26.0000
20
-1205.3207
30
0.0
0
VERTEX
8
LOT_POLYLINE
10
152.5094
20
-1200.0000
30
0.0
0
VERTEX
8
LOT_POLYLINE
10
159.6038
20
-1368.6793
30
0.0
0
VERTEX
8
LOT_POLYLINE
10
33.0943
20
-1374.0000
30
0.0
0
SEQEND
0
TEXT
8
SHEET_LABELS
6
ROT_2.41
7
STANDARD
10
89.3808
20
-1205.6577
30
0.0
40
3.4
1
N87%%d35'30.00"E
50
2.41
0
TEXT
8
SHEET_LABELS
6
ROT_2.41
7
STANDARD
10
89.1287
20
-1199.6630
30
0.0
40
3.2
1
75.00'
50
2.41
0
POINT
8
SHEET_LABELS
10
26.0000
20
-1205.3207
30
0.0
0
TEXT
8
SHEET_LABELS
6
ROT_272.41
7
STANDARD
10
159.0540
20
-1284.2136
30
0.0
40
3.4
1
S02%%d24'30.00"E
50
272.41
0
TEXT
8
SHEET_LABELS
6
ROT_272.41
7
STANDARD
10
153.0593
20
-1284.4657
30
0.0
40
3.2
1
100.00'
50
272.41
0
POINT
8
SHEET_LABELS
10
152.5094
20
-1200.0000
30
0.0
0
TEXT
8
SHEET_LABELS
6
ROT_2.41
7
STANDARD
10
96.4751
20
-1374.3370
30
0.0
40
3.4
1
S87%%d35'30.00"W
50
2.41
0
TEXT
8
SHEET_LABELS
6
ROT_2.41
7
STANDARD
10
96.2230
20
-1368.3423
30
0.0
40
3.2
1
75.00'
50
2.41
0
POINT
8
SHEET_LABELS
10
159.6038
20
-1368.6793
30
0.0
0
TEXT
8
SHEET_LABELS
6
ROT_272.41
7
STANDARD
10
32.5445
20
-1289.5343
30
0.0
40
3.4
1
N02%%d24'30.00"W
50
272.41
0
TEXT
8
SHEET_LABELS
6
ROT_272.41
7
STANDARD
10
26.5498
20
-1289.7864
30
0.0
40
3.2
1
100.00'
50
272.41
0
POINT
8
SHEET_LABELS
10
33.0943
20
-1374.0000
30
0.0
0
TEXT
8
SHEET_LABELS
7
STANDARD
10
8.0000
20
-1150.0000
30
0.0
40
8.0
1
LOT Blk17S-L20   PASS
50
0.0
0
TEXT
8
SHEET_LABELS
7
STANDARD
10
8.0000
20
-1161.0000
30
0.0
40
4.6
1
AREA 7,500 SF (0.172 ac)
50
0.0
0
TEXT
8
SHEET_LABELS
7
STANDARD
10
8.0000
20
-1168.0000
30
0.0
40
4.0
1
PERIMETER 350.00'   VERTICES 4   CLOSING SIDE 100.00'
50
0.0
0
TEXT
8
SHEET_LABELS
7
STANDARD
10
8.0000
20
-1175.0000
30
0.0
40
3.4
1
all geometric checks passed: closed single polyline, no self-intersection, no overlap, no spikes
50
0.0
0
LINE
8
SHEET_FRAME
10
320.0000
20
-1400.0000
30
0.0
11
620.0000
21
-1400.0000
31
0.0
0
LINE
8
SHEET_FRAME
10
620.0000
20
-1400.0000
30
0.0
11
620.0000
21
-1140.0000
31
0.0
0
LINE
8
SHEET_FRAME
10
620.0000
20
-1140.0000
30
0.0
11
320.0000
21
-1140.0000
31
0.0
0
LINE
8
SHEET_FRAME
10
320.0000
20
-1140.0000
30
0.0
11
320.0000
21
-1400.0000
31
0.0
0
POLYLINE
8
LOT_POLYLINE
66
1
70
1
0
VERTEX
8
LOT_POLYLINE
10
346.0000
20
-1205.3207
30
0.0
0
VERTEX
8
LOT_POLYLINE
10
472.5094
20
-1200.0000
30
0.0
0
VERTEX
8
LOT_POLYLINE
10
479.6038
20
-1368.6793
30
0.0
0
VERTEX
8
LOT_POLYLINE
10
353.0943
20
-1374.0000
30
0.0
0
SEQEND
0
TEXT
8
SHEET_LABELS
6
ROT_2.41
7
STANDARD
10
409.3808
20
-1205.6577
30
0.0
40
3.4
1
N87%%d35'30.00"E
50
2.41
0
TEXT
8
SHEET_LABELS
6
ROT_2.41
7
STANDARD
10
409.1287
20
-1199.6630
30
0.0
40
3.2
1
75.00'
50
2.41
0
POINT
8
SHEET_LABELS
10
346.0000
20
-1205.3207
30
0.0
0
TEXT
8
SHEET_LABELS
6
ROT_272.41
7
STANDARD
10
479.0540
20
-1284.2136
30
0.0
40
3.4
1
S02%%d24'30.00"E
50
272.41
0
TEXT
8
SHEET_LABELS
6
ROT_272.41
7
STANDARD
10
473.0593
20
-1284.4657
30
0.0
40
3.2
1
100.00'
50
272.41
0
POINT
8
SHEET_LABELS
10
472.5094
20
-1200.0000
30
0.0
0
TEXT
8
SHEET_LABELS
6
ROT_2.41
7
STANDARD
10
416.4751
20
-1374.3370
30
0.0
40
3.4
1
S87%%d35'30.00"W
50
2.41
0
TEXT
8
SHEET_LABELS
6
ROT_2.41
7
STANDARD
10
416.2230
20
-1368.3423
30
0.0
40
3.2
1
75.00'
50
2.41
0
POINT
8
SHEET_LABELS
10
479.6038
20
-1368.6793
30
0.0
0
TEXT
8
SHEET_LABELS
6
ROT_272.41
7
STANDARD
10
352.5445
20
-1289.5343
30
0.0
40
3.4
1
N02%%d24'30.00"W
50
272.41
0
TEXT
8
SHEET_LABELS
6
ROT_272.41
7
STANDARD
10
346.5498
20
-1289.7864
30
0.0
40
3.2
1
100.00'
50
272.41
0
POINT
8
SHEET_LABELS
10
353.0943
20
-1374.0000
30
0.0
0
TEXT
8
SHEET_LABELS
7
STANDARD
10
328.0000
20
-1150.0000
30
0.0
40
8.0
1
LOT Blk17S-L19   PASS
50
0.0
0
TEXT
8
SHEET_LABELS
7
STANDARD
10
328.0000
20
-1161.0000
30
0.0
40
4.6
1
AREA 7,500 SF (0.172 ac)
50
0.0
0
TEXT
8
SHEET_LABELS
7
STANDARD
10
328.0000
20
-1168.0000
30
0.0
40
4.0
1
PERIMETER 350.00'   VERTICES 4   CLOSING SIDE 100.00'
50
0.0
0
TEXT
8
SHEET_LABELS
7
STANDARD
10
328.0000
20
-1175.0000
30
0.0
40
3.4
1
all geometric checks passed: closed single polyline, no self-intersection, no overlap, no spikes
50
0.0
0
LINE
8
SHEET_FRAME
10
640.0000
20
-1400.0000
30
0.0
11
940.0000
21
-1400.0000
31
0.0
0
LINE
8
SHEET_FRAME
10
940.0000
20
-1400.0000
30
0.0
11
940.0000
21
-1140.0000
31
0.0
0
LINE
8
SHEET_FRAME
10
940.0000
20
-1140.0000
30
0.0
11
640.0000
21
-1140.0000
31
0.0
0
LINE
8
SHEET_FRAME
10
640.0000
20
-1140.0000
30
0.0
11
640.0000
21
-1400.0000
31
0.0
0
POLYLINE
8
LOT_POLYLINE
66
1
70
1
0
VERTEX
8
LOT_POLYLINE
10
666.0000
20
-1205.3207
30
0.0
0
VERTEX
8
LOT_POLYLINE
10
792.5094
20
-1200.0000
30
0.0
0
VERTEX
8
LOT_POLYLINE
10
799.6038
20
-1368.6793
30
0.0
0
VERTEX
8
LOT_POLYLINE
10
673.0943
20
-1374.0000
30
0.0
0
SEQEND
0
TEXT
8
SHEET_LABELS
6
ROT_2.41
7
STANDARD
10
729.3808
20
-1205.6577
30
0.0
40
3.4
1
N87%%d35'30.00"E
50
2.41
0
TEXT
8
SHEET_LABELS
6
ROT_2.41
7
STANDARD
10
729.1287
20
-1199.6630
30
0.0
40
3.2
1
75.00'
50
2.41
0
POINT
8
SHEET_LABELS
10
666.0000
20
-1205.3207
30
0.0
0
TEXT
8
SHEET_LABELS
6
ROT_272.41
7
STANDARD
10
799.0540
20
-1284.2136
30
0.0
40
3.4
1
S02%%d24'30.00"E
50
272.41
0
TEXT
8
SHEET_LABELS
6
ROT_272.41
7
STANDARD
10
793.0593
20
-1284.4657
30
0.0
40
3.2
1
100.00'
50
272.41
0
POINT
8
SHEET_LABELS
10
792.5094
20
-1200.0000
30
0.0
0
TEXT
8
SHEET_LABELS
6
ROT_2.41
7
STANDARD
10
736.4751
20
-1374.3370
30
0.0
40
3.4
1
S87%%d35'30.00"W
50
2.41
0
TEXT
8
SHEET_LABELS
6
ROT_2.41
7
STANDARD
10
736.2230
20
-1368.3423
30
0.0
40
3.2
1
75.00'
50
2.41
0
POINT
8
SHEET_LABELS
10
799.6038
20
-1368.6793
30
0.0
0
TEXT
8
SHEET_LABELS
6
ROT_272.41
7
STANDARD
10
672.5445
20
-1289.5343
30
0.0
40
3.4
1
N02%%d24'30.00"W
50
272.41
0
TEXT
8
SHEET_LABELS
6
ROT_272.41
7
STANDARD
10
666.5498
20
-1289.7864
30
0.0
40
3.2
1
100.00'
50
272.41
0
POINT
8
SHEET_LABELS
10
673.0943
20
-1374.0000
30
0.0
0
TEXT
8
SHEET_LABELS
7
STANDARD
10
648.0000
20
-1150.0000
30
0.0
40
8.0
1
LOT Blk17S-L18   PASS
50
0.0
0
TEXT
8
SHEET_LABELS
7
STANDARD
10
648.0000
20
-1161.0000
30
0.0
40
4.6
1
AREA 7,500 SF (0.172 ac)
50
0.0
0
TEXT
8
SHEET_LABELS
7
STANDARD
10
648.0000
20
-1168.0000
30
0.0
40
4.0
1
PERIMETER 350.00'   VERTICES 4   CLOSING SIDE 100.00'
50
0.0
0
TEXT
8
SHEET_LABELS
7
STANDARD
10
648.0000
20
-1175.0000
30
0.0
40
3.4
1
all geometric checks passed: closed single polyline, no self-intersection, no overlap, no spikes
50
0.0
0
LINE
8
SHEET_FRAME
10
960.0000
20
-1400.0000
30
0.0
11
1260.0000
21
-1400.0000
31
0.0
0
LINE
8
SHEET_FRAME
10
1260.0000
20
-1400.0000
30
0.0
11
1260.0000
21
-1140.0000
31
0.0
0
LINE
8
SHEET_FRAME
10
1260.0000
20
-1140.0000
30
0.0
11
960.0000
21
-1140.0000
31
0.0
0
LINE
8
SHEET_FRAME
10
960.0000
20
-1140.0000
30
0.0
11
960.0000
21
-1400.0000
31
0.0
0
POLYLINE
8
LOT_POLYLINE
66
1
70
1
0
VERTEX
8
LOT_POLYLINE
10
986.0000
20
-1206.5835
30
0.0
0
VERTEX
8
LOT_POLYLINE
10
1142.5344
20
-1200.0000
30
0.0
0
VERTEX
8
LOT_POLYLINE
10
1149.5756
20
-1367.4165
30
0.0
0
VERTEX
8
LOT_POLYLINE
10
993.0412
20
-1374.0000
30
0.0
0
SEQEND
0
TEXT
8
SHEET_LABELS
6
ROT_2.41
7
STANDARD
10
1064.3933
20
-1206.2891
30
0.0
40
3.4
1
N87%%d35'30.00"E
50
2.41
0
TEXT
8
SHEET_LABELS
6
ROT_2.41
7
STANDARD
10
1064.1411
20
-1200.2944
30
0.0
40
3.2
1
93.50'
50
2.41
0
POINT
8
SHEET_LABELS
10
986.0000
20
-1206.5835
30
0.0
0
TEXT
8
SHEET_LABELS
6
ROT_272.41
7
STANDARD
10
1149.0523
20
-1283.5822
30
0.0
40
3.4
1
S02%%d24'30.00"E
50
272.41
0
TEXT
8
SHEET_LABELS
6
ROT_272.41
7
STANDARD
10
1143.0576
20
-1283.8343
30
0.0
40
3.2
1
100.00'
50
272.41
0
POINT
8
SHEET_LABELS
10
1142.5344
20
-1200.0000
30
0.0
0
TEXT
8
SHEET_LABELS
6
ROT_2.41
7
STANDARD
10
1071.4345
20
-1373.7056
30
0.0
40
3.4
1
S87%%d35'30.00"W
50
2.41
0
TEXT
8
SHEET_LABELS
6
ROT_2.41
7
STANDARD
10
1071.1824
20
-1367.7109
30
0.0
40
3.2
1
93.50'
50
2.41
0
POINT
8
SHEET_LABELS
10
1149.5756
20
-1367.4165
30
0.0
0
TEXT
8
SHEET_LABELS
6
ROT_272.41
7
STANDARD
10
992.5180
20
-1290.1657
30
0.0
40
3.4
1
N02%%d24'30.00"W
50
272.41
0
TEXT
8
SHEET_LABELS
6
ROT_272.41
7
STANDARD
10
986.5233
20
-1290.4178
30
0.0
40
3.2
1
100.00'
50
272.41
0
POINT
8
SHEET_LABELS
10
993.0412
20
-1374.0000
30
0.0
0
TEXT
8
SHEET_LABELS
7
STANDARD
10
968.0000
20
-1150.0000
30
0.0
40
8.0
1
LOT Blk16N-L1   PASS
50
0.0
0
TEXT
8
SHEET_LABELS
7
STANDARD
10
968.0000
20
-1161.0000
30
0.0
40
4.6
1
AREA 9,350 SF (0.215 ac)
50
0.0
0
TEXT
8
SHEET_LABELS
7
STANDARD
10
968.0000
20
-1168.0000
30
0.0
40
4.0
1
PERIMETER 387.00'   VERTICES 4   CLOSING SIDE 100.00'
50
0.0
0
TEXT
8
SHEET_LABELS
7
STANDARD
10
968.0000
20
-1175.0000
30
0.0
40
3.4
1
all geometric checks passed: closed single polyline, no self-intersection, no overlap, no spikes
50
0.0
0
LINE
8
SHEET_FRAME
10
1280.0000
20
-1400.0000
30
0.0
11
1580.0000
21
-1400.0000
31
0.0
0
LINE
8
SHEET_FRAME
10
1580.0000
20
-1400.0000
30
0.0
11
1580.0000
21
-1140.0000
31
0.0
0
LINE
8
SHEET_FRAME
10
1580.0000
20
-1140.0000
30
0.0
11
1280.0000
21
-1140.0000
31
0.0
0
LINE
8
SHEET_FRAME
10
1280.0000
20
-1140.0000
30
0.0
11
1280.0000
21
-1400.0000
31
0.0
0
POLYLINE
8
LOT_POLYLINE
66
1
70
1
0
VERTEX
8
LOT_POLYLINE
10
1306.0000
20
-1205.3207
30
0.0
0
VERTEX
8
LOT_POLYLINE
10
1432.5094
20
-1200.0000
30
0.0
0
VERTEX
8
LOT_POLYLINE
10
1439.6038
20
-1368.6793
30
0.0
0
VERTEX
8
LOT_POLYLINE
10
1313.0943
20
-1374.0000
30
0.0
0
SEQEND
0
TEXT
8
SHEET_LABELS
6
ROT_2.41
7
STANDARD
10
1369.3808
20
-1205.6577
30
0.0
40
3.4
1
N87%%d35'30.00"E
50
2.41
0
TEXT
8
SHEET_LABELS
6
ROT_2.41
7
STANDARD
10
1369.1287
20
-1199.6630
30
0.0
40
3.2
1
75.00'
50
2.41
0
POINT
8
SHEET_LABELS
10
1306.0000
20
-1205.3207
30
0.0
0
TEXT
8
SHEET_LABELS
6
ROT_272.41
7
STANDARD
10
1439.0540
20
-1284.2136
30
0.0
40
3.4
1
S02%%d24'30.00"E
50
272.41
0
TEXT
8
SHEET_LABELS
6
ROT_272.41
7
STANDARD
10
1433.0593
20
-1284.4657
30
0.0
40
3.2
1
100.00'
50
272.41
0
POINT
8
SHEET_LABELS
10
1432.5094
20
-1200.0000
30
0.0
0
TEXT
8
SHEET_LABELS
6
ROT_2.41
7
STANDARD
10
1376.4751
20
-1374.3370
30
0.0
40
3.4
1
S87%%d35'30.00"W
50
2.41
0
TEXT
8
SHEET_LABELS
6
ROT_2.41
7
STANDARD
10
1376.2230
20
-1368.3423
30
0.0
40
3.2
1
75.00'
50
2.41
0
POINT
8
SHEET_LABELS
10
1439.6038
20
-1368.6793
30
0.0
0
TEXT
8
SHEET_LABELS
6
ROT_272.41
7
STANDARD
10
1312.5445
20
-1289.5343
30
0.0
40
3.4
1
N02%%d24'30.00"W
50
272.41
0
TEXT
8
SHEET_LABELS
6
ROT_272.41
7
STANDARD
10
1306.5498
20
-1289.7864
30
0.0
40
3.2
1
100.00'
50
272.41
0
POINT
8
SHEET_LABELS
10
1313.0943
20
-1374.0000
30
0.0
0
TEXT
8
SHEET_LABELS
7
STANDARD
10
1288.0000
20
-1150.0000
30
0.0
40
8.0
1
LOT Blk16N-L2   PASS
50
0.0
0
TEXT
8
SHEET_LABELS
7
STANDARD
10
1288.0000
20
-1161.0000
30
0.0
40
4.6
1
AREA 7,500 SF (0.172 ac)
50
0.0
0
TEXT
8
SHEET_LABELS
7
STANDARD
10
1288.0000
20
-1168.0000
30
0.0
40
4.0
1
PERIMETER 350.00'   VERTICES 4   CLOSING SIDE 100.00'
50
0.0
0
TEXT
8
SHEET_LABELS
7
STANDARD
10
1288.0000
20
-1175.0000
30
0.0
40
3.4
1
all geometric checks passed: closed single polyline, no self-intersection, no overlap, no spikes
50
0.0
0
LINE
8
SHEET_FRAME
10
1600.0000
20
-1400.0000
30
0.0
11
1900.0000
21
-1400.0000
31
0.0
0
LINE
8
SHEET_FRAME
10
1900.0000
20
-1400.0000
30
0.0
11
1900.0000
21
-1140.0000
31
0.0
0
LINE
8
SHEET_FRAME
10
1900.0000
20
-1140.0000
30
0.0
11
1600.0000
21
-1140.0000
31
0.0
0
LINE
8
SHEET_FRAME
10
1600.0000
20
-1140.0000
30
0.0
11
1600.0000
21
-1400.0000
31
0.0
0
POLYLINE
8
LOT_POLYLINE
66
1
70
1
0
VERTEX
8
LOT_POLYLINE
10
1626.0000
20
-1205.3207
30
0.0
0
VERTEX
8
LOT_POLYLINE
10
1752.5094
20
-1200.0000
30
0.0
0
VERTEX
8
LOT_POLYLINE
10
1759.6038
20
-1368.6793
30
0.0
0
VERTEX
8
LOT_POLYLINE
10
1633.0943
20
-1374.0000
30
0.0
0
SEQEND
0
TEXT
8
SHEET_LABELS
6
ROT_2.41
7
STANDARD
10
1689.3808
20
-1205.6577
30
0.0
40
3.4
1
N87%%d35'30.00"E
50
2.41
0
TEXT
8
SHEET_LABELS
6
ROT_2.41
7
STANDARD
10
1689.1287
20
-1199.6630
30
0.0
40
3.2
1
75.00'
50
2.41
0
POINT
8
SHEET_LABELS
10
1626.0000
20
-1205.3207
30
0.0
0
TEXT
8
SHEET_LABELS
6
ROT_272.41
7
STANDARD
10
1759.0540
20
-1284.2136
30
0.0
40
3.4
1
S02%%d24'30.00"E
50
272.41
0
TEXT
8
SHEET_LABELS
6
ROT_272.41
7
STANDARD
10
1753.0593
20
-1284.4657
30
0.0
40
3.2
1
100.00'
50
272.41
0
POINT
8
SHEET_LABELS
10
1752.5094
20
-1200.0000
30
0.0
0
TEXT
8
SHEET_LABELS
6
ROT_2.41
7
STANDARD
10
1696.4751
20
-1374.3370
30
0.0
40
3.4
1
S87%%d35'30.00"W
50
2.41
0
TEXT
8
SHEET_LABELS
6
ROT_2.41
7
STANDARD
10
1696.2230
20
-1368.3423
30
0.0
40
3.2
1
75.00'
50
2.41
0
POINT
8
SHEET_LABELS
10
1759.6038
20
-1368.6793
30
0.0
0
TEXT
8
SHEET_LABELS
6
ROT_272.41
7
STANDARD
10
1632.5445
20
-1289.5343
30
0.0
40
3.4
1
N02%%d24'30.00"W
50
272.41
0
TEXT
8
SHEET_LABELS
6
ROT_272.41
7
STANDARD
10
1626.5498
20
-1289.7864
30
0.0
40
3.2
1
100.00'
50
272.41
0
POINT
8
SHEET_LABELS
10
1633.0943
20
-1374.0000
30
0.0
0
TEXT
8
SHEET_LABELS
7
STANDARD
10
1608.0000
20
-1150.0000
30
0.0
40
8.0
1
LOT Blk16N-L3   PASS
50
0.0
0
TEXT
8
SHEET_LABELS
7
STANDARD
10
1608.0000
20
-1161.0000
30
0.0
40
4.6
1
AREA 7,500 SF (0.172 ac)
50
0.0
0
TEXT
8
SHEET_LABELS
7
STANDARD
10
1608.0000
20
-1168.0000
30
0.0
40
4.0
1
PERIMETER 350.00'   VERTICES 4   CLOSING SIDE 100.00'
50
0.0
0
TEXT
8
SHEET_LABELS
7
STANDARD
10
1608.0000
20
-1175.0000
30
0.0
40
3.4
1
all geometric checks passed: closed single polyline, no self-intersection, no overlap, no spikes
50
0.0
0
LINE
8
SHEET_FRAME
10
1920.0000
20
-1400.0000
30
0.0
11
2220.0000
21
-1400.0000
31
0.0
0
LINE
8
SHEET_FRAME
10
2220.0000
20
-1400.0000
30
0.0
11
2220.0000
21
-1140.0000
31
0.0
0
LINE
8
SHEET_FRAME
10
2220.0000
20
-1140.0000
30
0.0
11
1920.0000
21
-1140.0000
31
0.0
0
LINE
8
SHEET_FRAME
10
1920.0000
20
-1140.0000
30
0.0
11
1920.0000
21
-1400.0000
31
0.0
0
POLYLINE
8
LOT_POLYLINE
66
1
70
1
0
VERTEX
8
LOT_POLYLINE
10
1946.0000
20
-1205.3207
30
0.0
0
VERTEX
8
LOT_POLYLINE
10
2072.5094
20
-1200.0000
30
0.0
0
VERTEX
8
LOT_POLYLINE
10
2079.6038
20
-1368.6793
30
0.0
0
VERTEX
8
LOT_POLYLINE
10
1953.0943
20
-1374.0000
30
0.0
0
SEQEND
0
TEXT
8
SHEET_LABELS
6
ROT_2.41
7
STANDARD
10
2009.3808
20
-1205.6577
30
0.0
40
3.4
1
N87%%d35'30.00"E
50
2.41
0
TEXT
8
SHEET_LABELS
6
ROT_2.41
7
STANDARD
10
2009.1287
20
-1199.6630
30
0.0
40
3.2
1
75.00'
50
2.41
0
POINT
8
SHEET_LABELS
10
1946.0000
20
-1205.3207
30
0.0
0
TEXT
8
SHEET_LABELS
6
ROT_272.41
7
STANDARD
10
2079.0540
20
-1284.2136
30
0.0
40
3.4
1
S02%%d24'30.00"E
50
272.41
0
TEXT
8
SHEET_LABELS
6
ROT_272.41
7
STANDARD
10
2073.0593
20
-1284.4657
30
0.0
40
3.2
1
100.00'
50
272.41
0
POINT
8
SHEET_LABELS
10
2072.5094
20
-1200.0000
30
0.0
0
TEXT
8
SHEET_LABELS
6
ROT_2.41
7
STANDARD
10
2016.4751
20
-1374.3370
30
0.0
40
3.4
1
S87%%d35'30.00"W
50
2.41
0
TEXT
8
SHEET_LABELS
6
ROT_2.41
7
STANDARD
10
2016.2230
20
-1368.3423
30
0.0
40
3.2
1
75.00'
50
2.41
0
POINT
8
SHEET_LABELS
10
2079.6038
20
-1368.6793
30
0.0
0
TEXT
8
SHEET_LABELS
6
ROT_272.41
7
STANDARD
10
1952.5445
20
-1289.5343
30
0.0
40
3.4
1
N02%%d24'30.00"W
50
272.41
0
TEXT
8
SHEET_LABELS
6
ROT_272.41
7
STANDARD
10
1946.5498
20
-1289.7864
30
0.0
40
3.2
1
100.00'
50
272.41
0
POINT
8
SHEET_LABELS
10
1953.0943
20
-1374.0000
30
0.0
0
TEXT
8
SHEET_LABELS
7
STANDARD
10
1928.0000
20
-1150.0000
30
0.0
40
8.0
1
LOT Blk16N-L4   PASS
50
0.0
0
TEXT
8
SHEET_LABELS
7
STANDARD
10
1928.0000
20
-1161.0000
30
0.0
40
4.6
1
AREA 7,500 SF (0.172 ac)
50
0.0
0
TEXT
8
SHEET_LABELS
7
STANDARD
10
1928.0000
20
-1168.0000
30
0.0
40
4.0
1
PERIMETER 350.00'   VERTICES 4   CLOSING SIDE 100.00'
50
0.0
0
TEXT
8
SHEET_LABELS
7
STANDARD
10
1928.0000
20
-1175.0000
30
0.0
40
3.4
1
all geometric checks passed: closed single polyline, no self-intersection, no overlap, no spikes
50
0.0
0
LINE
8
SHEET_FRAME
10
2240.0000
20
-1400.0000
30
0.0
11
2540.0000
21
-1400.0000
31
0.0
0
LINE
8
SHEET_FRAME
10
2540.0000
20
-1400.0000
30
0.0
11
2540.0000
21
-1140.0000
31
0.0
0
LINE
8
SHEET_FRAME
10
2540.0000
20
-1140.0000
30
0.0
11
2240.0000
21
-1140.0000
31
0.0
0
LINE
8
SHEET_FRAME
10
2240.0000
20
-1140.0000
30
0.0
11
2240.0000
21
-1400.0000
31
0.0
0
POLYLINE
8
LOT_POLYLINE
66
1
70
1
0
VERTEX
8
LOT_POLYLINE
10
2266.0000
20
-1205.3207
30
0.0
0
VERTEX
8
LOT_POLYLINE
10
2392.5094
20
-1200.0000
30
0.0
0
VERTEX
8
LOT_POLYLINE
10
2399.6038
20
-1368.6793
30
0.0
0
VERTEX
8
LOT_POLYLINE
10
2273.0943
20
-1374.0000
30
0.0
0
SEQEND
0
TEXT
8
SHEET_LABELS
6
ROT_2.41
7
STANDARD
10
2329.3808
20
-1205.6577
30
0.0
40
3.4
1
N87%%d35'30.00"E
50
2.41
0
TEXT
8
SHEET_LABELS
6
ROT_2.41
7
STANDARD
10
2329.1287
20
-1199.6630
30
0.0
40
3.2
1
75.00'
50
2.41
0
POINT
8
SHEET_LABELS
10
2266.0000
20
-1205.3207
30
0.0
0
TEXT
8
SHEET_LABELS
6
ROT_272.41
7
STANDARD
10
2399.0540
20
-1284.2136
30
0.0
40
3.4
1
S02%%d24'30.00"E
50
272.41
0
TEXT
8
SHEET_LABELS
6
ROT_272.41
7
STANDARD
10
2393.0593
20
-1284.4657
30
0.0
40
3.2
1
100.00'
50
272.41
0
POINT
8
SHEET_LABELS
10
2392.5094
20
-1200.0000
30
0.0
0
TEXT
8
SHEET_LABELS
6
ROT_2.41
7
STANDARD
10
2336.4751
20
-1374.3370
30
0.0
40
3.4
1
S87%%d35'30.00"W
50
2.41
0
TEXT
8
SHEET_LABELS
6
ROT_2.41
7
STANDARD
10
2336.2230
20
-1368.3423
30
0.0
40
3.2
1
75.00'
50
2.41
0
POINT
8
SHEET_LABELS
10
2399.6038
20
-1368.6793
30
0.0
0
TEXT
8
SHEET_LABELS
6
ROT_272.41
7
STANDARD
10
2272.5445
20
-1289.5343
30
0.0
40
3.4
1
N02%%d24'30.00"W
50
272.41
0
TEXT
8
SHEET_LABELS
6
ROT_272.41
7
STANDARD
10
2266.5498
20
-1289.7864
30
0.0
40
3.2
1
100.00'
50
272.41
0
POINT
8
SHEET_LABELS
10
2273.0943
20
-1374.0000
30
0.0
0
TEXT
8
SHEET_LABELS
7
STANDARD
10
2248.0000
20
-1150.0000
30
0.0
40
8.0
1
LOT Blk16N-L5   PASS
50
0.0
0
TEXT
8
SHEET_LABELS
7
STANDARD
10
2248.0000
20
-1161.0000
30
0.0
40
4.6
1
AREA 7,500 SF (0.172 ac)
50
0.0
0
TEXT
8
SHEET_LABELS
7
STANDARD
10
2248.0000
20
-1168.0000
30
0.0
40
4.0
1
PERIMETER 350.00'   VERTICES 4   CLOSING SIDE 100.00'
50
0.0
0
TEXT
8
SHEET_LABELS
7
STANDARD
10
2248.0000
20
-1175.0000
30
0.0
40
3.4
1
all geometric checks passed: closed single polyline, no self-intersection, no overlap, no spikes
50
0.0
0
LINE
8
SHEET_FRAME
10
2560.0000
20
-1400.0000
30
0.0
11
2860.0000
21
-1400.0000
31
0.0
0
LINE
8
SHEET_FRAME
10
2860.0000
20
-1400.0000
30
0.0
11
2860.0000
21
-1140.0000
31
0.0
0
LINE
8
SHEET_FRAME
10
2860.0000
20
-1140.0000
30
0.0
11
2560.0000
21
-1140.0000
31
0.0
0
LINE
8
SHEET_FRAME
10
2560.0000
20
-1140.0000
30
0.0
11
2560.0000
21
-1400.0000
31
0.0
0
POLYLINE
8
LOT_POLYLINE
66
1
70
1
0
VERTEX
8
LOT_POLYLINE
10
2586.0000
20
-1205.3207
30
0.0
0
VERTEX
8
LOT_POLYLINE
10
2712.5094
20
-1200.0000
30
0.0
0
VERTEX
8
LOT_POLYLINE
10
2719.6038
20
-1368.6793
30
0.0
0
VERTEX
8
LOT_POLYLINE
10
2593.0943
20
-1374.0000
30
0.0
0
SEQEND
0
TEXT
8
SHEET_LABELS
6
ROT_2.41
7
STANDARD
10
2649.3808
20
-1205.6577
30
0.0
40
3.4
1
N87%%d35'30.00"E
50
2.41
0
TEXT
8
SHEET_LABELS
6
ROT_2.41
7
STANDARD
10
2649.1287
20
-1199.6630
30
0.0
40
3.2
1
75.00'
50
2.41
0
POINT
8
SHEET_LABELS
10
2586.0000
20
-1205.3207
30
0.0
0
TEXT
8
SHEET_LABELS
6
ROT_272.41
7
STANDARD
10
2719.0540
20
-1284.2136
30
0.0
40
3.4
1
S02%%d24'30.00"E
50
272.41
0
TEXT
8
SHEET_LABELS
6
ROT_272.41
7
STANDARD
10
2713.0593
20
-1284.4657
30
0.0
40
3.2
1
100.00'
50
272.41
0
POINT
8
SHEET_LABELS
10
2712.5094
20
-1200.0000
30
0.0
0
TEXT
8
SHEET_LABELS
6
ROT_2.41
7
STANDARD
10
2656.4751
20
-1374.3370
30
0.0
40
3.4
1
S87%%d35'30.00"W
50
2.41
0
TEXT
8
SHEET_LABELS
6
ROT_2.41
7
STANDARD
10
2656.2230
20
-1368.3423
30
0.0
40
3.2
1
75.00'
50
2.41
0
POINT
8
SHEET_LABELS
10
2719.6038
20
-1368.6793
30
0.0
0
TEXT
8
SHEET_LABELS
6
ROT_272.41
7
STANDARD
10
2592.5445
20
-1289.5343
30
0.0
40
3.4
1
N02%%d24'30.00"W
50
272.41
0
TEXT
8
SHEET_LABELS
6
ROT_272.41
7
STANDARD
10
2586.5498
20
-1289.7864
30
0.0
40
3.2
1
100.00'
50
272.41
0
POINT
8
SHEET_LABELS
10
2593.0943
20
-1374.0000
30
0.0
0
TEXT
8
SHEET_LABELS
7
STANDARD
10
2568.0000
20
-1150.0000
30
0.0
40
8.0
1
LOT Blk16N-L6   PASS
50
0.0
0
TEXT
8
SHEET_LABELS
7
STANDARD
10
2568.0000
20
-1161.0000
30
0.0
40
4.6
1
AREA 7,500 SF (0.172 ac)
50
0.0
0
TEXT
8
SHEET_LABELS
7
STANDARD
10
2568.0000
20
-1168.0000
30
0.0
40
4.0
1
PERIMETER 350.00'   VERTICES 4   CLOSING SIDE 100.00'
50
0.0
0
TEXT
8
SHEET_LABELS
7
STANDARD
10
2568.0000
20
-1175.0000
30
0.0
40
3.4
1
all geometric checks passed: closed single polyline, no self-intersection, no overlap, no spikes
50
0.0
0
LINE
8
SHEET_FRAME
10
2880.0000
20
-1400.0000
30
0.0
11
3180.0000
21
-1400.0000
31
0.0
0
LINE
8
SHEET_FRAME
10
3180.0000
20
-1400.0000
30
0.0
11
3180.0000
21
-1140.0000
31
0.0
0
LINE
8
SHEET_FRAME
10
3180.0000
20
-1140.0000
30
0.0
11
2880.0000
21
-1140.0000
31
0.0
0
LINE
8
SHEET_FRAME
10
2880.0000
20
-1140.0000
30
0.0
11
2880.0000
21
-1400.0000
31
0.0
0
POLYLINE
8
LOT_POLYLINE
66
1
70
1
0
VERTEX
8
LOT_POLYLINE
10
2906.0000
20
-1205.3207
30
0.0
0
VERTEX
8
LOT_POLYLINE
10
3032.5094
20
-1200.0000
30
0.0
0
VERTEX
8
LOT_POLYLINE
10
3039.6038
20
-1368.6793
30
0.0
0
VERTEX
8
LOT_POLYLINE
10
2913.0943
20
-1374.0000
30
0.0
0
SEQEND
0
TEXT
8
SHEET_LABELS
6
ROT_2.41
7
STANDARD
10
2969.3808
20
-1205.6577
30
0.0
40
3.4
1
N87%%d35'30.00"E
50
2.41
0
TEXT
8
SHEET_LABELS
6
ROT_2.41
7
STANDARD
10
2969.1287
20
-1199.6630
30
0.0
40
3.2
1
75.00'
50
2.41
0
POINT
8
SHEET_LABELS
10
2906.0000
20
-1205.3207
30
0.0
0
TEXT
8
SHEET_LABELS
6
ROT_272.41
7
STANDARD
10
3039.0540
20
-1284.2136
30
0.0
40
3.4
1
S02%%d24'30.00"E
50
272.41
0
TEXT
8
SHEET_LABELS
6
ROT_272.41
7
STANDARD
10
3033.0593
20
-1284.4657
30
0.0
40
3.2
1
100.00'
50
272.41
0
POINT
8
SHEET_LABELS
10
3032.5094
20
-1200.0000
30
0.0
0
TEXT
8
SHEET_LABELS
6
ROT_2.41
7
STANDARD
10
2976.4751
20
-1374.3370
30
0.0
40
3.4
1
S87%%d35'30.00"W
50
2.41
0
TEXT
8
SHEET_LABELS
6
ROT_2.41
7
STANDARD
10
2976.2230
20
-1368.3423
30
0.0
40
3.2
1
75.00'
50
2.41
0
POINT
8
SHEET_LABELS
10
3039.6038
20
-1368.6793
30
0.0
0
TEXT
8
SHEET_LABELS
6
ROT_272.41
7
STANDARD
10
2912.5445
20
-1289.5343
30
0.0
40
3.4
1
N02%%d24'30.00"W
50
272.41
0
TEXT
8
SHEET_LABELS
6
ROT_272.41
7
STANDARD
10
2906.5498
20
-1289.7864
30
0.0
40
3.2
1
100.00'
50
272.41
0
POINT
8
SHEET_LABELS
10
2913.0943
20
-1374.0000
30
0.0
0
TEXT
8
SHEET_LABELS
7
STANDARD
10
2888.0000
20
-1150.0000
30
0.0
40
8.0
1
LOT Blk16N-L7   PASS
50
0.0
0
TEXT
8
SHEET_LABELS
7
STANDARD
10
2888.0000
20
-1161.0000
30
0.0
40
4.6
1
AREA 7,500 SF (0.172 ac)
50
0.0
0
TEXT
8
SHEET_LABELS
7
STANDARD
10
2888.0000
20
-1168.0000
30
0.0
40
4.0
1
PERIMETER 350.00'   VERTICES 4   CLOSING SIDE 100.00'
50
0.0
0
TEXT
8
SHEET_LABELS
7
STANDARD
10
2888.0000
20
-1175.0000
30
0.0
40
3.4
1
all geometric checks passed: closed single polyline, no self-intersection, no overlap, no spikes
50
0.0
0
LINE
8
SHEET_FRAME
10
0.0000
20
-1680.0000
30
0.0
11
300.0000
21
-1680.0000
31
0.0
0
LINE
8
SHEET_FRAME
10
300.0000
20
-1680.0000
30
0.0
11
300.0000
21
-1420.0000
31
0.0
0
LINE
8
SHEET_FRAME
10
300.0000
20
-1420.0000
30
0.0
11
0.0000
21
-1420.0000
31
0.0
0
LINE
8
SHEET_FRAME
10
0.0000
20
-1420.0000
30
0.0
11
0.0000
21
-1680.0000
31
0.0
0
POLYLINE
8
LOT_POLYLINE
66
1
70
1
0
VERTEX
8
LOT_POLYLINE
10
26.0000
20
-1485.3207
30
0.0
0
VERTEX
8
LOT_POLYLINE
10
152.5094
20
-1480.0000
30
0.0
0
VERTEX
8
LOT_POLYLINE
10
159.6038
20
-1648.6793
30
0.0
0
VERTEX
8
LOT_POLYLINE
10
33.0943
20
-1654.0000
30
0.0
0
SEQEND
0
TEXT
8
SHEET_LABELS
6
ROT_2.41
7
STANDARD
10
89.3808
20
-1485.6577
30
0.0
40
3.4
1
N87%%d35'30.00"E
50
2.41
0
TEXT
8
SHEET_LABELS
6
ROT_2.41
7
STANDARD
10
89.1287
20
-1479.6630
30
0.0
40
3.2
1
75.00'
50
2.41
0
POINT
8
SHEET_LABELS
10
26.0000
20
-1485.3207
30
0.0
0
TEXT
8
SHEET_LABELS
6
ROT_272.41
7
STANDARD
10
159.0540
20
-1564.2136
30
0.0
40
3.4
1
S02%%d24'30.00"E
50
272.41
0
TEXT
8
SHEET_LABELS
6
ROT_272.41
7
STANDARD
10
153.0593
20
-1564.4657
30
0.0
40
3.2
1
100.00'
50
272.41
0
POINT
8
SHEET_LABELS
10
152.5094
20
-1480.0000
30
0.0
0
TEXT
8
SHEET_LABELS
6
ROT_2.41
7
STANDARD
10
96.4751
20
-1654.3370
30
0.0
40
3.4
1
S87%%d35'30.00"W
50
2.41
0
TEXT
8
SHEET_LABELS
6
ROT_2.41
7
STANDARD
10
96.2230
20
-1648.3423
30
0.0
40
3.2
1
75.00'
50
2.41
0
POINT
8
SHEET_LABELS
10
159.6038
20
-1648.6793
30
0.0
0
TEXT
8
SHEET_LABELS
6
ROT_272.41
7
STANDARD
10
32.5445
20
-1569.5343
30
0.0
40
3.4
1
N02%%d24'30.00"W
50
272.41
0
TEXT
8
SHEET_LABELS
6
ROT_272.41
7
STANDARD
10
26.5498
20
-1569.7864
30
0.0
40
3.2
1
100.00'
50
272.41
0
POINT
8
SHEET_LABELS
10
33.0943
20
-1654.0000
30
0.0
0
TEXT
8
SHEET_LABELS
7
STANDARD
10
8.0000
20
-1430.0000
30
0.0
40
8.0
1
LOT Blk16N-L8   PASS
50
0.0
0
TEXT
8
SHEET_LABELS
7
STANDARD
10
8.0000
20
-1441.0000
30
0.0
40
4.6
1
AREA 7,500 SF (0.172 ac)
50
0.0
0
TEXT
8
SHEET_LABELS
7
STANDARD
10
8.0000
20
-1448.0000
30
0.0
40
4.0
1
PERIMETER 350.00'   VERTICES 4   CLOSING SIDE 100.00'
50
0.0
0
TEXT
8
SHEET_LABELS
7
STANDARD
10
8.0000
20
-1455.0000
30
0.0
40
3.4
1
all geometric checks passed: closed single polyline, no self-intersection, no overlap, no spikes
50
0.0
0
LINE
8
SHEET_FRAME
10
320.0000
20
-1680.0000
30
0.0
11
620.0000
21
-1680.0000
31
0.0
0
LINE
8
SHEET_FRAME
10
620.0000
20
-1680.0000
30
0.0
11
620.0000
21
-1420.0000
31
0.0
0
LINE
8
SHEET_FRAME
10
620.0000
20
-1420.0000
30
0.0
11
320.0000
21
-1420.0000
31
0.0
0
LINE
8
SHEET_FRAME
10
320.0000
20
-1420.0000
30
0.0
11
320.0000
21
-1680.0000
31
0.0
0
POLYLINE
8
LOT_POLYLINE
66
1
70
1
0
VERTEX
8
LOT_POLYLINE
10
346.0000
20
-1485.3207
30
0.0
0
VERTEX
8
LOT_POLYLINE
10
472.5094
20
-1480.0000
30
0.0
0
VERTEX
8
LOT_POLYLINE
10
479.6038
20
-1648.6793
30
0.0
0
VERTEX
8
LOT_POLYLINE
10
353.0943
20
-1654.0000
30
0.0
0
SEQEND
0
TEXT
8
SHEET_LABELS
6
ROT_2.41
7
STANDARD
10
409.3808
20
-1485.6577
30
0.0
40
3.4
1
N87%%d35'30.00"E
50
2.41
0
TEXT
8
SHEET_LABELS
6
ROT_2.41
7
STANDARD
10
409.1287
20
-1479.6630
30
0.0
40
3.2
1
75.00'
50
2.41
0
POINT
8
SHEET_LABELS
10
346.0000
20
-1485.3207
30
0.0
0
TEXT
8
SHEET_LABELS
6
ROT_272.41
7
STANDARD
10
479.0540
20
-1564.2136
30
0.0
40
3.4
1
S02%%d24'30.00"E
50
272.41
0
TEXT
8
SHEET_LABELS
6
ROT_272.41
7
STANDARD
10
473.0593
20
-1564.4657
30
0.0
40
3.2
1
100.00'
50
272.41
0
POINT
8
SHEET_LABELS
10
472.5094
20
-1480.0000
30
0.0
0
TEXT
8
SHEET_LABELS
6
ROT_2.41
7
STANDARD
10
416.4751
20
-1654.3370
30
0.0
40
3.4
1
S87%%d35'30.00"W
50
2.41
0
TEXT
8
SHEET_LABELS
6
ROT_2.41
7
STANDARD
10
416.2230
20
-1648.3423
30
0.0
40
3.2
1
75.00'
50
2.41
0
POINT
8
SHEET_LABELS
10
479.6038
20
-1648.6793
30
0.0
0
TEXT
8
SHEET_LABELS
6
ROT_272.41
7
STANDARD
10
352.5445
20
-1569.5343
30
0.0
40
3.4
1
N02%%d24'30.00"W
50
272.41
0
TEXT
8
SHEET_LABELS
6
ROT_272.41
7
STANDARD
10
346.5498
20
-1569.7864
30
0.0
40
3.2
1
100.00'
50
272.41
0
POINT
8
SHEET_LABELS
10
353.0943
20
-1654.0000
30
0.0
0
TEXT
8
SHEET_LABELS
7
STANDARD
10
328.0000
20
-1430.0000
30
0.0
40
8.0
1
LOT Blk16N-L9   PASS
50
0.0
0
TEXT
8
SHEET_LABELS
7
STANDARD
10
328.0000
20
-1441.0000
30
0.0
40
4.6
1
AREA 7,500 SF (0.172 ac)
50
0.0
0
TEXT
8
SHEET_LABELS
7
STANDARD
10
328.0000
20
-1448.0000
30
0.0
40
4.0
1
PERIMETER 350.00'   VERTICES 4   CLOSING SIDE 100.00'
50
0.0
0
TEXT
8
SHEET_LABELS
7
STANDARD
10
328.0000
20
-1455.0000
30
0.0
40
3.4
1
all geometric checks passed: closed single polyline, no self-intersection, no overlap, no spikes
50
0.0
0
LINE
8
SHEET_FRAME
10
640.0000
20
-1680.0000
30
0.0
11
940.0000
21
-1680.0000
31
0.0
0
LINE
8
SHEET_FRAME
10
940.0000
20
-1680.0000
30
0.0
11
940.0000
21
-1420.0000
31
0.0
0
LINE
8
SHEET_FRAME
10
940.0000
20
-1420.0000
30
0.0
11
640.0000
21
-1420.0000
31
0.0
0
LINE
8
SHEET_FRAME
10
640.0000
20
-1420.0000
30
0.0
11
640.0000
21
-1680.0000
31
0.0
0
POLYLINE
8
LOT_POLYLINE
66
1
70
1
0
VERTEX
8
LOT_POLYLINE
10
666.0000
20
-1485.3207
30
0.0
0
VERTEX
8
LOT_POLYLINE
10
792.5094
20
-1480.0000
30
0.0
0
VERTEX
8
LOT_POLYLINE
10
799.6038
20
-1648.6793
30
0.0
0
VERTEX
8
LOT_POLYLINE
10
673.0943
20
-1654.0000
30
0.0
0
SEQEND
0
TEXT
8
SHEET_LABELS
6
ROT_2.41
7
STANDARD
10
729.3808
20
-1485.6577
30
0.0
40
3.4
1
N87%%d35'30.00"E
50
2.41
0
TEXT
8
SHEET_LABELS
6
ROT_2.41
7
STANDARD
10
729.1287
20
-1479.6630
30
0.0
40
3.2
1
75.00'
50
2.41
0
POINT
8
SHEET_LABELS
10
666.0000
20
-1485.3207
30
0.0
0
TEXT
8
SHEET_LABELS
6
ROT_272.41
7
STANDARD
10
799.0540
20
-1564.2136
30
0.0
40
3.4
1
S02%%d24'30.00"E
50
272.41
0
TEXT
8
SHEET_LABELS
6
ROT_272.41
7
STANDARD
10
793.0593
20
-1564.4657
30
0.0
40
3.2
1
100.00'
50
272.41
0
POINT
8
SHEET_LABELS
10
792.5094
20
-1480.0000
30
0.0
0
TEXT
8
SHEET_LABELS
6
ROT_2.41
7
STANDARD
10
736.4751
20
-1654.3370
30
0.0
40
3.4
1
S87%%d35'30.00"W
50
2.41
0
TEXT
8
SHEET_LABELS
6
ROT_2.41
7
STANDARD
10
736.2230
20
-1648.3423
30
0.0
40
3.2
1
75.00'
50
2.41
0
POINT
8
SHEET_LABELS
10
799.6038
20
-1648.6793
30
0.0
0
TEXT
8
SHEET_LABELS
6
ROT_272.41
7
STANDARD
10
672.5445
20
-1569.5343
30
0.0
40
3.4
1
N02%%d24'30.00"W
50
272.41
0
TEXT
8
SHEET_LABELS
6
ROT_272.41
7
STANDARD
10
666.5498
20
-1569.7864
30
0.0
40
3.2
1
100.00'
50
272.41
0
POINT
8
SHEET_LABELS
10
673.0943
20
-1654.0000
30
0.0
0
TEXT
8
SHEET_LABELS
7
STANDARD
10
648.0000
20
-1430.0000
30
0.0
40
8.0
1
LOT Blk16N-L10   PASS
50
0.0
0
TEXT
8
SHEET_LABELS
7
STANDARD
10
648.0000
20
-1441.0000
30
0.0
40
4.6
1
AREA 7,500 SF (0.172 ac)
50
0.0
0
TEXT
8
SHEET_LABELS
7
STANDARD
10
648.0000
20
-1448.0000
30
0.0
40
4.0
1
PERIMETER 350.00'   VERTICES 4   CLOSING SIDE 100.00'
50
0.0
0
TEXT
8
SHEET_LABELS
7
STANDARD
10
648.0000
20
-1455.0000
30
0.0
40
3.4
1
all geometric checks passed: closed single polyline, no self-intersection, no overlap, no spikes
50
0.0
0
LINE
8
SHEET_FRAME
10
960.0000
20
-1680.0000
30
0.0
11
1260.0000
21
-1680.0000
31
0.0
0
LINE
8
SHEET_FRAME
10
1260.0000
20
-1680.0000
30
0.0
11
1260.0000
21
-1420.0000
31
0.0
0
LINE
8
SHEET_FRAME
10
1260.0000
20
-1420.0000
30
0.0
11
960.0000
21
-1420.0000
31
0.0
0
LINE
8
SHEET_FRAME
10
960.0000
20
-1420.0000
30
0.0
11
960.0000
21
-1680.0000
31
0.0
0
POLYLINE
8
LOT_POLYLINE
66
1
70
1
0
VERTEX
8
LOT_POLYLINE
10
986.0000
20
-1485.3207
30
0.0
0
VERTEX
8
LOT_POLYLINE
10
1112.5094
20
-1480.0000
30
0.0
0
VERTEX
8
LOT_POLYLINE
10
1119.6038
20
-1648.6793
30
0.0
0
VERTEX
8
LOT_POLYLINE
10
993.0943
20
-1654.0000
30
0.0
0
SEQEND
0
TEXT
8
SHEET_LABELS
6
ROT_2.41
7
STANDARD
10
1049.3808
20
-1485.6577
30
0.0
40
3.4
1
N87%%d35'30.00"E
50
2.41
0
TEXT
8
SHEET_LABELS
6
ROT_2.41
7
STANDARD
10
1049.1287
20
-1479.6630
30
0.0
40
3.2
1
75.00'
50
2.41
0
POINT
8
SHEET_LABELS
10
986.0000
20
-1485.3207
30
0.0
0
TEXT
8
SHEET_LABELS
6
ROT_272.41
7
STANDARD
10
1119.0540
20
-1564.2136
30
0.0
40
3.4
1
S02%%d24'30.00"E
50
272.41
0
TEXT
8
SHEET_LABELS
6
ROT_272.41
7
STANDARD
10
1113.0593
20
-1564.4657
30
0.0
40
3.2
1
100.00'
50
272.41
0
POINT
8
SHEET_LABELS
10
1112.5094
20
-1480.0000
30
0.0
0
TEXT
8
SHEET_LABELS
6
ROT_2.41
7
STANDARD
10
1056.4751
20
-1654.3370
30
0.0
40
3.4
1
S87%%d35'30.00"W
50
2.41
0
TEXT
8
SHEET_LABELS
6
ROT_2.41
7
STANDARD
10
1056.2230
20
-1648.3423
30
0.0
40
3.2
1
75.00'
50
2.41
0
POINT
8
SHEET_LABELS
10
1119.6038
20
-1648.6793
30
0.0
0
TEXT
8
SHEET_LABELS
6
ROT_272.41
7
STANDARD
10
992.5445
20
-1569.5343
30
0.0
40
3.4
1
N02%%d24'30.00"W
50
272.41
0
TEXT
8
SHEET_LABELS
6
ROT_272.41
7
STANDARD
10
986.5498
20
-1569.7864
30
0.0
40
3.2
1
100.00'
50
272.41
0
POINT
8
SHEET_LABELS
10
993.0943
20
-1654.0000
30
0.0
0
TEXT
8
SHEET_LABELS
7
STANDARD
10
968.0000
20
-1430.0000
30
0.0
40
8.0
1
LOT Blk16N-L11   PASS
50
0.0
0
TEXT
8
SHEET_LABELS
7
STANDARD
10
968.0000
20
-1441.0000
30
0.0
40
4.6
1
AREA 7,500 SF (0.172 ac)
50
0.0
0
TEXT
8
SHEET_LABELS
7
STANDARD
10
968.0000
20
-1448.0000
30
0.0
40
4.0
1
PERIMETER 350.00'   VERTICES 4   CLOSING SIDE 100.00'
50
0.0
0
TEXT
8
SHEET_LABELS
7
STANDARD
10
968.0000
20
-1455.0000
30
0.0
40
3.4
1
all geometric checks passed: closed single polyline, no self-intersection, no overlap, no spikes
50
0.0
0
LINE
8
SHEET_FRAME
10
1280.0000
20
-1680.0000
30
0.0
11
1580.0000
21
-1680.0000
31
0.0
0
LINE
8
SHEET_FRAME
10
1580.0000
20
-1680.0000
30
0.0
11
1580.0000
21
-1420.0000
31
0.0
0
LINE
8
SHEET_FRAME
10
1580.0000
20
-1420.0000
30
0.0
11
1280.0000
21
-1420.0000
31
0.0
0
LINE
8
SHEET_FRAME
10
1280.0000
20
-1420.0000
30
0.0
11
1280.0000
21
-1680.0000
31
0.0
0
POLYLINE
8
LOT_POLYLINE
66
1
70
1
0
VERTEX
8
LOT_POLYLINE
10
1306.0000
20
-1485.3207
30
0.0
0
VERTEX
8
LOT_POLYLINE
10
1432.5094
20
-1480.0000
30
0.0
0
VERTEX
8
LOT_POLYLINE
10
1439.6038
20
-1648.6793
30
0.0
0
VERTEX
8
LOT_POLYLINE
10
1313.0943
20
-1654.0000
30
0.0
0
SEQEND
0
TEXT
8
SHEET_LABELS
6
ROT_2.41
7
STANDARD
10
1369.3808
20
-1485.6577
30
0.0
40
3.4
1
N87%%d35'30.00"E
50
2.41
0
TEXT
8
SHEET_LABELS
6
ROT_2.41
7
STANDARD
10
1369.1287
20
-1479.6630
30
0.0
40
3.2
1
75.00'
50
2.41
0
POINT
8
SHEET_LABELS
10
1306.0000
20
-1485.3207
30
0.0
0
TEXT
8
SHEET_LABELS
6
ROT_272.41
7
STANDARD
10
1439.0540
20
-1564.2136
30
0.0
40
3.4
1
S02%%d24'30.00"E
50
272.41
0
TEXT
8
SHEET_LABELS
6
ROT_272.41
7
STANDARD
10
1433.0593
20
-1564.4657
30
0.0
40
3.2
1
100.00'
50
272.41
0
POINT
8
SHEET_LABELS
10
1432.5094
20
-1480.0000
30
0.0
0
TEXT
8
SHEET_LABELS
6
ROT_2.41
7
STANDARD
10
1376.4751
20
-1654.3370
30
0.0
40
3.4
1
S87%%d35'30.00"W
50
2.41
0
TEXT
8
SHEET_LABELS
6
ROT_2.41
7
STANDARD
10
1376.2230
20
-1648.3423
30
0.0
40
3.2
1
75.00'
50
2.41
0
POINT
8
SHEET_LABELS
10
1439.6038
20
-1648.6793
30
0.0
0
TEXT
8
SHEET_LABELS
6
ROT_272.41
7
STANDARD
10
1312.5445
20
-1569.5343
30
0.0
40
3.4
1
N02%%d24'30.00"W
50
272.41
0
TEXT
8
SHEET_LABELS
6
ROT_272.41
7
STANDARD
10
1306.5498
20
-1569.7864
30
0.0
40
3.2
1
100.00'
50
272.41
0
POINT
8
SHEET_LABELS
10
1313.0943
20
-1654.0000
30
0.0
0
TEXT
8
SHEET_LABELS
7
STANDARD
10
1288.0000
20
-1430.0000
30
0.0
40
8.0
1
LOT Blk16N-L12   PASS
50
0.0
0
TEXT
8
SHEET_LABELS
7
STANDARD
10
1288.0000
20
-1441.0000
30
0.0
40
4.6
1
AREA 7,500 SF (0.172 ac)
50
0.0
0
TEXT
8
SHEET_LABELS
7
STANDARD
10
1288.0000
20
-1448.0000
30
0.0
40
4.0
1
PERIMETER 350.00'   VERTICES 4   CLOSING SIDE 100.00'
50
0.0
0
TEXT
8
SHEET_LABELS
7
STANDARD
10
1288.0000
20
-1455.0000
30
0.0
40
3.4
1
all geometric checks passed: closed single polyline, no self-intersection, no overlap, no spikes
50
0.0
0
LINE
8
SHEET_FRAME
10
1600.0000
20
-1680.0000
30
0.0
11
1900.0000
21
-1680.0000
31
0.0
0
LINE
8
SHEET_FRAME
10
1900.0000
20
-1680.0000
30
0.0
11
1900.0000
21
-1420.0000
31
0.0
0
LINE
8
SHEET_FRAME
10
1900.0000
20
-1420.0000
30
0.0
11
1600.0000
21
-1420.0000
31
0.0
0
LINE
8
SHEET_FRAME
10
1600.0000
20
-1420.0000
30
0.0
11
1600.0000
21
-1680.0000
31
0.0
0
POLYLINE
8
LOT_POLYLINE
66
1
70
1
0
VERTEX
8
LOT_POLYLINE
10
1626.0000
20
-1485.3207
30
0.0
0
VERTEX
8
LOT_POLYLINE
10
1752.5094
20
-1480.0000
30
0.0
0
VERTEX
8
LOT_POLYLINE
10
1759.6038
20
-1648.6793
30
0.0
0
VERTEX
8
LOT_POLYLINE
10
1633.0943
20
-1654.0000
30
0.0
0
SEQEND
0
TEXT
8
SHEET_LABELS
6
ROT_2.41
7
STANDARD
10
1689.3808
20
-1485.6577
30
0.0
40
3.4
1
N87%%d35'30.00"E
50
2.41
0
TEXT
8
SHEET_LABELS
6
ROT_2.41
7
STANDARD
10
1689.1287
20
-1479.6630
30
0.0
40
3.2
1
75.00'
50
2.41
0
POINT
8
SHEET_LABELS
10
1626.0000
20
-1485.3207
30
0.0
0
TEXT
8
SHEET_LABELS
6
ROT_272.41
7
STANDARD
10
1759.0540
20
-1564.2136
30
0.0
40
3.4
1
S02%%d24'30.00"E
50
272.41
0
TEXT
8
SHEET_LABELS
6
ROT_272.41
7
STANDARD
10
1753.0593
20
-1564.4657
30
0.0
40
3.2
1
100.00'
50
272.41
0
POINT
8
SHEET_LABELS
10
1752.5094
20
-1480.0000
30
0.0
0
TEXT
8
SHEET_LABELS
6
ROT_2.41
7
STANDARD
10
1696.4751
20
-1654.3370
30
0.0
40
3.4
1
S87%%d35'30.00"W
50
2.41
0
TEXT
8
SHEET_LABELS
6
ROT_2.41
7
STANDARD
10
1696.2230
20
-1648.3423
30
0.0
40
3.2
1
75.00'
50
2.41
0
POINT
8
SHEET_LABELS
10
1759.6038
20
-1648.6793
30
0.0
0
TEXT
8
SHEET_LABELS
6
ROT_272.41
7
STANDARD
10
1632.5445
20
-1569.5343
30
0.0
40
3.4
1
N02%%d24'30.00"W
50
272.41
0
TEXT
8
SHEET_LABELS
6
ROT_272.41
7
STANDARD
10
1626.5498
20
-1569.7864
30
0.0
40
3.2
1
100.00'
50
272.41
0
POINT
8
SHEET_LABELS
10
1633.0943
20
-1654.0000
30
0.0
0
TEXT
8
SHEET_LABELS
7
STANDARD
10
1608.0000
20
-1430.0000
30
0.0
40
8.0
1
LOT Blk16N-L13   PASS
50
0.0
0
TEXT
8
SHEET_LABELS
7
STANDARD
10
1608.0000
20
-1441.0000
30
0.0
40
4.6
1
AREA 7,500 SF (0.172 ac)
50
0.0
0
TEXT
8
SHEET_LABELS
7
STANDARD
10
1608.0000
20
-1448.0000
30
0.0
40
4.0
1
PERIMETER 350.00'   VERTICES 4   CLOSING SIDE 100.00'
50
0.0
0
TEXT
8
SHEET_LABELS
7
STANDARD
10
1608.0000
20
-1455.0000
30
0.0
40
3.4
1
all geometric checks passed: closed single polyline, no self-intersection, no overlap, no spikes
50
0.0
0
LINE
8
SHEET_FRAME
10
1920.0000
20
-1680.0000
30
0.0
11
2220.0000
21
-1680.0000
31
0.0
0
LINE
8
SHEET_FRAME
10
2220.0000
20
-1680.0000
30
0.0
11
2220.0000
21
-1420.0000
31
0.0
0
LINE
8
SHEET_FRAME
10
2220.0000
20
-1420.0000
30
0.0
11
1920.0000
21
-1420.0000
31
0.0
0
LINE
8
SHEET_FRAME
10
1920.0000
20
-1420.0000
30
0.0
11
1920.0000
21
-1680.0000
31
0.0
0
POLYLINE
8
LOT_POLYLINE
66
1
70
1
0
VERTEX
8
LOT_POLYLINE
10
1946.0000
20
-1485.3207
30
0.0
0
VERTEX
8
LOT_POLYLINE
10
2072.5094
20
-1480.0000
30
0.0
0
VERTEX
8
LOT_POLYLINE
10
2079.6038
20
-1648.6793
30
0.0
0
VERTEX
8
LOT_POLYLINE
10
1953.0943
20
-1654.0000
30
0.0
0
SEQEND
0
TEXT
8
SHEET_LABELS
6
ROT_2.41
7
STANDARD
10
2009.3808
20
-1485.6577
30
0.0
40
3.4
1
N87%%d35'30.00"E
50
2.41
0
TEXT
8
SHEET_LABELS
6
ROT_2.41
7
STANDARD
10
2009.1287
20
-1479.6630
30
0.0
40
3.2
1
75.00'
50
2.41
0
POINT
8
SHEET_LABELS
10
1946.0000
20
-1485.3207
30
0.0
0
TEXT
8
SHEET_LABELS
6
ROT_272.41
7
STANDARD
10
2079.0540
20
-1564.2136
30
0.0
40
3.4
1
S02%%d24'30.00"E
50
272.41
0
TEXT
8
SHEET_LABELS
6
ROT_272.41
7
STANDARD
10
2073.0593
20
-1564.4657
30
0.0
40
3.2
1
100.00'
50
272.41
0
POINT
8
SHEET_LABELS
10
2072.5094
20
-1480.0000
30
0.0
0
TEXT
8
SHEET_LABELS
6
ROT_2.41
7
STANDARD
10
2016.4751
20
-1654.3370
30
0.0
40
3.4
1
S87%%d35'30.00"W
50
2.41
0
TEXT
8
SHEET_LABELS
6
ROT_2.41
7
STANDARD
10
2016.2230
20
-1648.3423
30
0.0
40
3.2
1
75.00'
50
2.41
0
POINT
8
SHEET_LABELS
10
2079.6038
20
-1648.6793
30
0.0
0
TEXT
8
SHEET_LABELS
6
ROT_272.41
7
STANDARD
10
1952.5445
20
-1569.5343
30
0.0
40
3.4
1
N02%%d24'30.00"W
50
272.41
0
TEXT
8
SHEET_LABELS
6
ROT_272.41
7
STANDARD
10
1946.5498
20
-1569.7864
30
0.0
40
3.2
1
100.00'
50
272.41
0
POINT
8
SHEET_LABELS
10
1953.0943
20
-1654.0000
30
0.0
0
TEXT
8
SHEET_LABELS
7
STANDARD
10
1928.0000
20
-1430.0000
30
0.0
40
8.0
1
LOT Blk16N-L14   PASS
50
0.0
0
TEXT
8
SHEET_LABELS
7
STANDARD
10
1928.0000
20
-1441.0000
30
0.0
40
4.6
1
AREA 7,500 SF (0.172 ac)
50
0.0
0
TEXT
8
SHEET_LABELS
7
STANDARD
10
1928.0000
20
-1448.0000
30
0.0
40
4.0
1
PERIMETER 350.00'   VERTICES 4   CLOSING SIDE 100.00'
50
0.0
0
TEXT
8
SHEET_LABELS
7
STANDARD
10
1928.0000
20
-1455.0000
30
0.0
40
3.4
1
all geometric checks passed: closed single polyline, no self-intersection, no overlap, no spikes
50
0.0
0
LINE
8
SHEET_FRAME
10
2240.0000
20
-1680.0000
30
0.0
11
2540.0000
21
-1680.0000
31
0.0
0
LINE
8
SHEET_FRAME
10
2540.0000
20
-1680.0000
30
0.0
11
2540.0000
21
-1420.0000
31
0.0
0
LINE
8
SHEET_FRAME
10
2540.0000
20
-1420.0000
30
0.0
11
2240.0000
21
-1420.0000
31
0.0
0
LINE
8
SHEET_FRAME
10
2240.0000
20
-1420.0000
30
0.0
11
2240.0000
21
-1680.0000
31
0.0
0
POLYLINE
8
LOT_POLYLINE
66
1
70
1
0
VERTEX
8
LOT_POLYLINE
10
2266.0000
20
-1485.3207
30
0.0
0
VERTEX
8
LOT_POLYLINE
10
2392.5094
20
-1480.0000
30
0.0
0
VERTEX
8
LOT_POLYLINE
10
2399.6038
20
-1648.6793
30
0.0
0
VERTEX
8
LOT_POLYLINE
10
2273.0943
20
-1654.0000
30
0.0
0
SEQEND
0
TEXT
8
SHEET_LABELS
6
ROT_2.41
7
STANDARD
10
2329.3808
20
-1485.6577
30
0.0
40
3.4
1
N87%%d35'30.00"E
50
2.41
0
TEXT
8
SHEET_LABELS
6
ROT_2.41
7
STANDARD
10
2329.1287
20
-1479.6630
30
0.0
40
3.2
1
75.00'
50
2.41
0
POINT
8
SHEET_LABELS
10
2266.0000
20
-1485.3207
30
0.0
0
TEXT
8
SHEET_LABELS
6
ROT_272.41
7
STANDARD
10
2399.0540
20
-1564.2136
30
0.0
40
3.4
1
S02%%d24'30.00"E
50
272.41
0
TEXT
8
SHEET_LABELS
6
ROT_272.41
7
STANDARD
10
2393.0593
20
-1564.4657
30
0.0
40
3.2
1
100.00'
50
272.41
0
POINT
8
SHEET_LABELS
10
2392.5094
20
-1480.0000
30
0.0
0
TEXT
8
SHEET_LABELS
6
ROT_2.41
7
STANDARD
10
2336.4751
20
-1654.3370
30
0.0
40
3.4
1
S87%%d35'30.00"W
50
2.41
0
TEXT
8
SHEET_LABELS
6
ROT_2.41
7
STANDARD
10
2336.2230
20
-1648.3423
30
0.0
40
3.2
1
75.00'
50
2.41
0
POINT
8
SHEET_LABELS
10
2399.6038
20
-1648.6793
30
0.0
0
TEXT
8
SHEET_LABELS
6
ROT_272.41
7
STANDARD
10
2272.5445
20
-1569.5343
30
0.0
40
3.4
1
N02%%d24'30.00"W
50
272.41
0
TEXT
8
SHEET_LABELS
6
ROT_272.41
7
STANDARD
10
2266.5498
20
-1569.7864
30
0.0
40
3.2
1
100.00'
50
272.41
0
POINT
8
SHEET_LABELS
10
2273.0943
20
-1654.0000
30
0.0
0
TEXT
8
SHEET_LABELS
7
STANDARD
10
2248.0000
20
-1430.0000
30
0.0
40
8.0
1
LOT Blk16N-L15   PASS
50
0.0
0
TEXT
8
SHEET_LABELS
7
STANDARD
10
2248.0000
20
-1441.0000
30
0.0
40
4.6
1
AREA 7,500 SF (0.172 ac)
50
0.0
0
TEXT
8
SHEET_LABELS
7
STANDARD
10
2248.0000
20
-1448.0000
30
0.0
40
4.0
1
PERIMETER 350.00'   VERTICES 4   CLOSING SIDE 100.00'
50
0.0
0
TEXT
8
SHEET_LABELS
7
STANDARD
10
2248.0000
20
-1455.0000
30
0.0
40
3.4
1
all geometric checks passed: closed single polyline, no self-intersection, no overlap, no spikes
50
0.0
0
LINE
8
SHEET_FRAME
10
2560.0000
20
-1680.0000
30
0.0
11
2860.0000
21
-1680.0000
31
0.0
0
LINE
8
SHEET_FRAME
10
2860.0000
20
-1680.0000
30
0.0
11
2860.0000
21
-1420.0000
31
0.0
0
LINE
8
SHEET_FRAME
10
2860.0000
20
-1420.0000
30
0.0
11
2560.0000
21
-1420.0000
31
0.0
0
LINE
8
SHEET_FRAME
10
2560.0000
20
-1420.0000
30
0.0
11
2560.0000
21
-1680.0000
31
0.0
0
POLYLINE
8
LOT_POLYLINE
66
1
70
1
0
VERTEX
8
LOT_POLYLINE
10
2586.0000
20
-1485.3207
30
0.0
0
VERTEX
8
LOT_POLYLINE
10
2712.5094
20
-1480.0000
30
0.0
0
VERTEX
8
LOT_POLYLINE
10
2719.6038
20
-1648.6793
30
0.0
0
VERTEX
8
LOT_POLYLINE
10
2593.0943
20
-1654.0000
30
0.0
0
SEQEND
0
TEXT
8
SHEET_LABELS
6
ROT_2.41
7
STANDARD
10
2649.3808
20
-1485.6577
30
0.0
40
3.4
1
N87%%d35'30.00"E
50
2.41
0
TEXT
8
SHEET_LABELS
6
ROT_2.41
7
STANDARD
10
2649.1287
20
-1479.6630
30
0.0
40
3.2
1
75.00'
50
2.41
0
POINT
8
SHEET_LABELS
10
2586.0000
20
-1485.3207
30
0.0
0
TEXT
8
SHEET_LABELS
6
ROT_272.41
7
STANDARD
10
2719.0540
20
-1564.2136
30
0.0
40
3.4
1
S02%%d24'30.00"E
50
272.41
0
TEXT
8
SHEET_LABELS
6
ROT_272.41
7
STANDARD
10
2713.0593
20
-1564.4657
30
0.0
40
3.2
1
100.00'
50
272.41
0
POINT
8
SHEET_LABELS
10
2712.5094
20
-1480.0000
30
0.0
0
TEXT
8
SHEET_LABELS
6
ROT_2.41
7
STANDARD
10
2656.4751
20
-1654.3370
30
0.0
40
3.4
1
S87%%d35'30.00"W
50
2.41
0
TEXT
8
SHEET_LABELS
6
ROT_2.41
7
STANDARD
10
2656.2230
20
-1648.3423
30
0.0
40
3.2
1
75.00'
50
2.41
0
POINT
8
SHEET_LABELS
10
2719.6038
20
-1648.6793
30
0.0
0
TEXT
8
SHEET_LABELS
6
ROT_272.41
7
STANDARD
10
2592.5445
20
-1569.5343
30
0.0
40
3.4
1
N02%%d24'30.00"W
50
272.41
0
TEXT
8
SHEET_LABELS
6
ROT_272.41
7
STANDARD
10
2586.5498
20
-1569.7864
30
0.0
40
3.2
1
100.00'
50
272.41
0
POINT
8
SHEET_LABELS
10
2593.0943
20
-1654.0000
30
0.0
0
TEXT
8
SHEET_LABELS
7
STANDARD
10
2568.0000
20
-1430.0000
30
0.0
40
8.0
1
LOT Blk16N-L16   PASS
50
0.0
0
TEXT
8
SHEET_LABELS
7
STANDARD
10
2568.0000
20
-1441.0000
30
0.0
40
4.6
1
AREA 7,500 SF (0.172 ac)
50
0.0
0
TEXT
8
SHEET_LABELS
7
STANDARD
10
2568.0000
20
-1448.0000
30
0.0
40
4.0
1
PERIMETER 350.00'   VERTICES 4   CLOSING SIDE 100.00'
50
0.0
0
TEXT
8
SHEET_LABELS
7
STANDARD
10
2568.0000
20
-1455.0000
30
0.0
40
3.4
1
all geometric checks passed: closed single polyline, no self-intersection, no overlap, no spikes
50
0.0
0
LINE
8
SHEET_FRAME
10
2880.0000
20
-1680.0000
30
0.0
11
3180.0000
21
-1680.0000
31
0.0
0
LINE
8
SHEET_FRAME
10
3180.0000
20
-1680.0000
30
0.0
11
3180.0000
21
-1420.0000
31
0.0
0
LINE
8
SHEET_FRAME
10
3180.0000
20
-1420.0000
30
0.0
11
2880.0000
21
-1420.0000
31
0.0
0
LINE
8
SHEET_FRAME
10
2880.0000
20
-1420.0000
30
0.0
11
2880.0000
21
-1680.0000
31
0.0
0
POLYLINE
8
LOT_POLYLINE
66
1
70
1
0
VERTEX
8
LOT_POLYLINE
10
2906.0000
20
-1485.3207
30
0.0
0
VERTEX
8
LOT_POLYLINE
10
3032.5094
20
-1480.0000
30
0.0
0
VERTEX
8
LOT_POLYLINE
10
3039.6038
20
-1648.6793
30
0.0
0
VERTEX
8
LOT_POLYLINE
10
2913.0943
20
-1654.0000
30
0.0
0
SEQEND
0
TEXT
8
SHEET_LABELS
6
ROT_2.41
7
STANDARD
10
2969.3808
20
-1485.6577
30
0.0
40
3.4
1
N87%%d35'30.00"E
50
2.41
0
TEXT
8
SHEET_LABELS
6
ROT_2.41
7
STANDARD
10
2969.1287
20
-1479.6630
30
0.0
40
3.2
1
75.00'
50
2.41
0
POINT
8
SHEET_LABELS
10
2906.0000
20
-1485.3207
30
0.0
0
TEXT
8
SHEET_LABELS
6
ROT_272.41
7
STANDARD
10
3039.0540
20
-1564.2136
30
0.0
40
3.4
1
S02%%d24'30.00"E
50
272.41
0
TEXT
8
SHEET_LABELS
6
ROT_272.41
7
STANDARD
10
3033.0593
20
-1564.4657
30
0.0
40
3.2
1
100.00'
50
272.41
0
POINT
8
SHEET_LABELS
10
3032.5094
20
-1480.0000
30
0.0
0
TEXT
8
SHEET_LABELS
6
ROT_2.41
7
STANDARD
10
2976.4751
20
-1654.3370
30
0.0
40
3.4
1
S87%%d35'30.00"W
50
2.41
0
TEXT
8
SHEET_LABELS
6
ROT_2.41
7
STANDARD
10
2976.2230
20
-1648.3423
30
0.0
40
3.2
1
75.00'
50
2.41
0
POINT
8
SHEET_LABELS
10
3039.6038
20
-1648.6793
30
0.0
0
TEXT
8
SHEET_LABELS
6
ROT_272.41
7
STANDARD
10
2912.5445
20
-1569.5343
30
0.0
40
3.4
1
N02%%d24'30.00"W
50
272.41
0
TEXT
8
SHEET_LABELS
6
ROT_272.41
7
STANDARD
10
2906.5498
20
-1569.7864
30
0.0
40
3.2
1
100.00'
50
272.41
0
POINT
8
SHEET_LABELS
10
2913.0943
20
-1654.0000
30
0.0
0
TEXT
8
SHEET_LABELS
7
STANDARD
10
2888.0000
20
-1430.0000
30
0.0
40
8.0
1
LOT Blk16N-L17   PASS
50
0.0
0
TEXT
8
SHEET_LABELS
7
STANDARD
10
2888.0000
20
-1441.0000
30
0.0
40
4.6
1
AREA 7,500 SF (0.172 ac)
50
0.0
0
TEXT
8
SHEET_LABELS
7
STANDARD
10
2888.0000
20
-1448.0000
30
0.0
40
4.0
1
PERIMETER 350.00'   VERTICES 4   CLOSING SIDE 100.00'
50
0.0
0
TEXT
8
SHEET_LABELS
7
STANDARD
10
2888.0000
20
-1455.0000
30
0.0
40
3.4
1
all geometric checks passed: closed single polyline, no self-intersection, no overlap, no spikes
50
0.0
0
ENDSEC
0
EOF
