0
SECTION
2
HEADER
9
$ACADVER
1
AC1009
9
$DWGCODEPAGE
3
ANSI_1252
0
ENDSEC
0
SECTION
2
TABLES
0
TABLE
2
LTYPE
70
7
0
LTYPE
2
CONTINUOUS
70
0
3
Solid
72
65
73
0
40
0.0
0
LTYPE
2
DASHED
70
0
3
Dashed
72
65
73
2
40
0.75
49
0.5
74
0
49
-0.25
74
0
0
LTYPE
2
DASHED2
70
0
3
Dashed (.5x)
72
65
73
2
40
0.375
49
0.25
74
0
49
-0.125
74
0
0
LTYPE
2
HIDDEN
70
0
3
Hidden
72
65
73
2
40
0.375
49
0.25
74
0
49
-0.125
74
0
0
LTYPE
2
CENTER
70
0
3
Center
72
65
73
4
40
2.0
49
1.25
74
0
49
-0.25
74
0
49
0.25
74
0
49
-0.25
74
0
0
LTYPE
2
PHANTOM
70
0
3
Phantom
72
65
73
6
40
2.5
49
1.25
74
0
49
-0.25
74
0
49
0.25
74
0
49
-0.25
74
0
49
0.25
74
0
49
-0.25
74
0
0
LTYPE
2
ROT_90.00
70
0
3
Solid
72
65
73
0
40
0.0
0
ENDTAB
0
TABLE
2
LAYER
70
15
0
LAYER
2
0
70
0
62
7
6
CONTINUOUS
0
LAYER
2
LOT_LINE
70
0
62
4
6
CONTINUOUS
0
LAYER
2
CURVE
70
0
62
6
6
CONTINUOUS
0
LAYER
2
RADIAL_LINE
70
0
62
1
6
DASHED
0
LAYER
2
BOUNDARY
70
0
62
7
6
CONTINUOUS
0
LAYER
2
MONUMENT
70
0
62
2
6
CONTINUOUS
0
LAYER
2
ROW_STREET
70
0
62
2
6
CONTINUOUS
0
LAYER
2
STREET_CL
70
0
62
2
6
DASHDOT
0
LAYER
2
BLOCK_CL
70
0
62
2
6
DASHDOT
0
LAYER
2
EASEMENT
70
0
62
3
6
DASHED
0
LAYER
2
TEXT-LABELS
70
0
62
7
6
CONTINUOUS
0
LAYER
2
DIM-LABELS
70
0
62
3
6
CONTINUOUS
0
LAYER
2
TABLE_FRAME
70
0
62
7
6
CONTINUOUS
0
LAYER
2
TABLE_TEXT
70
0
62
4
6
CONTINUOUS
0
LAYER
2
TITLEBLOCK
70
0
62
2
6
CONTINUOUS
0
ENDTAB
0
TABLE
2
STYLE
70
4
0
STYLE
2
STANDARD
70
0
40
0.0
41
1.0
50
0.0
71
0
42
0.2
3
Arial
4

0
STYLE
2
ARIAL
70
0
40
0.0
41
1.0
50
0.0
71
0
42
0.2
3
Arial
4

0
STYLE
2
ARIAL_TTF
70
0
40
0.0
41
1.0
50
0.0
71
0
42
0.2
3
arial.ttf
4

0
STYLE
2
SIMPLEX
70
0
40
0.0
41
1.0
50
0.0
71
0
42
0.2
3
simplex.shx
4

0
ENDTAB
0
ENDSEC
0
SECTION
2
ENTITIES
0
POLYLINE
8
CURVE
66
1
70
0
0
VERTEX
8
CURVE
10
996.8484
20
1074.9338
30
0.0
0
VERTEX
8
CURVE
10
996.8657
20
1077.3871
30
0.0
0
VERTEX
8
CURVE
10
997.1234
20
1079.8269
30
0.0
0
VERTEX
8
CURVE
10
997.6190
20
1082.2297
30
0.0
0
VERTEX
8
CURVE
10
998.3477
20
1084.5724
30
0.0
0
VERTEX
8
CURVE
10
999.3026
20
1086.8323
30
0.0
0
VERTEX
8
CURVE
10
1000.4743
20
1088.9878
30
0.0
0
VERTEX
8
CURVE
10
1001.8517
20
1091.0180
30
0.0
0
VERTEX
8
CURVE
10
1003.4215
20
1092.9035
30
0.0
0
VERTEX
8
CURVE
10
1005.1685
20
1094.6260
30
0.0
0
VERTEX
8
CURVE
10
1007.0759
20
1096.1690
30
0.0
0
VERTEX
8
CURVE
10
1009.1254
20
1097.5176
30
0.0
0
VERTEX
8
CURVE
10
1011.2972
20
1098.6588
30
0.0
0
VERTEX
8
CURVE
10
1013.5703
20
1099.5817
30
0.0
0
VERTEX
8
CURVE
10
1015.9231
20
1100.2773
30
0.0
0
VERTEX
8
CURVE
10
1018.3326
20
1100.7390
30
0.0
0
VERTEX
8
CURVE
10
1020.7758
20
1100.9622
30
0.0
0
SEQEND
0
POLYLINE
8
LOT_LINE
66
1
70
1
0
VERTEX
8
LOT_LINE
10
1000.0000
20
1000.0000
30
0.0
0
VERTEX
8
LOT_LINE
10
996.8484
20
1074.9338
30
0.0
0
VERTEX
8
LOT_LINE
10
996.8657
20
1077.3871
30
0.0
0
VERTEX
8
LOT_LINE
10
997.1234
20
1079.8269
30
0.0
0
VERTEX
8
LOT_LINE
10
997.6190
20
1082.2297
30
0.0
0
VERTEX
8
LOT_LINE
10
998.3477
20
1084.5724
30
0.0
0
VERTEX
8
LOT_LINE
10
999.3026
20
1086.8323
30
0.0
0
VERTEX
8
LOT_LINE
10
1000.4743
20
1088.9878
30
0.0
0
VERTEX
8
LOT_LINE
10
1001.8517
20
1091.0180
30
0.0
0
VERTEX
8
LOT_LINE
10
1003.4215
20
1092.9035
30
0.0
0
VERTEX
8
LOT_LINE
10
1005.1685
20
1094.6260
30
0.0
0
VERTEX
8
LOT_LINE
10
1007.0759
20
1096.1690
30
0.0
0
VERTEX
8
LOT_LINE
10
1009.1254
20
1097.5176
30
0.0
0
VERTEX
8
LOT_LINE
10
1011.2972
20
1098.6588
30
0.0
0
VERTEX
8
LOT_LINE
10
1013.5703
20
1099.5817
30
0.0
0
VERTEX
8
LOT_LINE
10
1015.9231
20
1100.2773
30
0.0
0
VERTEX
8
LOT_LINE
10
1018.3326
20
1100.7390
30
0.0
0
VERTEX
8
LOT_LINE
10
1020.7758
20
1100.9622
30
0.0
0
VERTEX
8
LOT_LINE
10
1089.2153
20
1103.8406
30
0.0
0
VERTEX
8
LOT_LINE
10
1093.4174
20
1003.9290
30
0.0
0
SEQEND
0
TEXT
8
TEXT-LABELS
7
STANDARD
10
1013.7878
20
1082.7496
30
0.0
40
4.5
1
LOT 1
50
0.0
72
1
11
1013.7878
21
1082.7496
31
0.0
73
2
0
POLYLINE
8
LOT_LINE
66
1
70
1
0
VERTEX
8
LOT_LINE
10
1093.4174
20
1003.9290
30
0.0
0
VERTEX
8
LOT_LINE
10
1089.2153
20
1103.8406
30
0.0
0
VERTEX
8
LOT_LINE
10
1164.1491
20
1106.9922
30
0.0
0
VERTEX
8
LOT_LINE
10
1168.3512
20
1007.0805
30
0.0
0
SEQEND
0
TEXT
8
TEXT-LABELS
7
STANDARD
10
1128.7832
20
1055.4606
30
0.0
40
4.5
1
LOT 2
50
0.0
72
1
11
1128.7832
21
1055.4606
31
0.0
73
2
0
POLYLINE
8
LOT_LINE
66
1
70
1
0
VERTEX
8
LOT_LINE
10
1168.3512
20
1007.0805
30
0.0
0
VERTEX
8
LOT_LINE
10
1164.1491
20
1106.9922
30
0.0
0
VERTEX
8
LOT_LINE
10
1239.0828
20
1110.1438
30
0.0
0
VERTEX
8
LOT_LINE
10
1243.2849
20
1010.2321
30
0.0
0
SEQEND
0
TEXT
8
TEXT-LABELS
7
STANDARD
10
1203.7170
20
1058.6122
30
0.0
40
4.5
1
LOT 3
50
0.0
72
1
11
1203.7170
21
1058.6122
31
0.0
73
2
0
POLYLINE
8
LOT_LINE
66
1
70
1
0
VERTEX
8
LOT_LINE
10
1243.2849
20
1010.2321
30
0.0
0
VERTEX
8
LOT_LINE
10
1239.0828
20
1110.1438
30
0.0
0
VERTEX
8
LOT_LINE
10
1314.0166
20
1113.2954
30
0.0
0
VERTEX
8
LOT_LINE
10
1318.2187
20
1013.3837
30
0.0
0
SEQEND
0
TEXT
8
TEXT-LABELS
7
STANDARD
10
1278.6508
20
1061.7637
30
0.0
40
4.5
1
LOT 4
50
0.0
72
1
11
1278.6508
21
1061.7637
31
0.0
73
2
0
POLYLINE
8
LOT_LINE
66
1
70
1
0
VERTEX
8
LOT_LINE
10
1318.2187
20
1013.3837
30
0.0
0
VERTEX
8
LOT_LINE
10
1314.0166
20
1113.2954
30
0.0
0
VERTEX
8
LOT_LINE
10
1388.9503
20
1116.4469
30
0.0
0
VERTEX
8
LOT_LINE
10
1393.1524
20
1016.5353
30
0.0
0
SEQEND
0
TEXT
8
TEXT-LABELS
7
STANDARD
10
1353.5845
20
1064.9153
30
0.0
40
4.5
1
LOT 5
50
0.0
72
1
11
1353.5845
21
1064.9153
31
0.0
73
2
0
POLYLINE
8
LOT_LINE
66
1
70
1
0
VERTEX
8
LOT_LINE
10
1393.1524
20
1016.5353
30
0.0
0
VERTEX
8
LOT_LINE
10
1388.9503
20
1116.4469
30
0.0
0
VERTEX
8
LOT_LINE
10
1463.8841
20
1119.5985
30
0.0
0
VERTEX
8
LOT_LINE
10
1468.0862
20
1019.6868
30
0.0
0
SEQEND
0
TEXT
8
TEXT-LABELS
7
STANDARD
10
1428.5183
20
1068.0669
30
0.0
40
4.5
1
LOT 6
50
0.0
72
1
11
1428.5183
21
1068.0669
31
0.0
73
2
0
POLYLINE
8
LOT_LINE
66
1
70
1
0
VERTEX
8
LOT_LINE
10
1468.0862
20
1019.6868
30
0.0
0
VERTEX
8
LOT_LINE
10
1463.8841
20
1119.5985
30
0.0
0
VERTEX
8
LOT_LINE
10
1538.8178
20
1122.7501
30
0.0
0
VERTEX
8
LOT_LINE
10
1543.0199
20
1022.8384
30
0.0
0
SEQEND
0
TEXT
8
TEXT-LABELS
7
STANDARD
10
1503.4520
20
1071.2184
30
0.0
40
4.5
1
LOT 7
50
0.0
72
1
11
1503.4520
21
1071.2184
31
0.0
73
2
0
POLYLINE
8
LOT_LINE
66
1
70
1
0
VERTEX
8
LOT_LINE
10
1543.0199
20
1022.8384
30
0.0
0
VERTEX
8
LOT_LINE
10
1538.8178
20
1122.7501
30
0.0
0
VERTEX
8
LOT_LINE
10
1613.7516
20
1125.9016
30
0.0
0
VERTEX
8
LOT_LINE
10
1617.9537
20
1025.9900
30
0.0
0
SEQEND
0
TEXT
8
TEXT-LABELS
7
STANDARD
10
1578.3858
20
1074.3700
30
0.0
40
4.5
1
LOT 8
50
0.0
72
1
11
1578.3858
21
1074.3700
31
0.0
73
2
0
POLYLINE
8
CURVE
66
1
70
0
0
VERTEX
8
CURVE
10
1003.1516
20
925.0662
30
0.0
0
VERTEX
8
CURVE
10
1005.6049
20
925.0489
30
0.0
0
VERTEX
8
CURVE
10
1008.0447
20
924.7912
30
0.0
0
VERTEX
8
CURVE
10
1010.4475
20
924.2957
30
0.0
0
VERTEX
8
CURVE
10
1012.7902
20
923.5669
30
0.0
0
VERTEX
8
CURVE
10
1015.0501
20
922.6121
30
0.0
0
VERTEX
8
CURVE
10
1017.2056
20
921.4403
30
0.0
0
VERTEX
8
CURVE
10
1019.2359
20
920.0630
30
0.0
0
VERTEX
8
CURVE
10
1021.1213
20
918.4932
30
0.0
0
VERTEX
8
CURVE
10
1022.8438
20
916.7462
30
0.0
0
VERTEX
8
CURVE
10
1024.3868
20
914.8388
30
0.0
0
VERTEX
8
CURVE
10
1025.7354
20
912.7893
30
0.0
0
VERTEX
8
CURVE
10
1026.8767
20
910.6175
30
0.0
0
VERTEX
8
CURVE
10
1027.7995
20
908.3443
30
0.0
0
VERTEX
8
CURVE
10
1028.4951
20
905.9916
30
0.0
0
VERTEX
8
CURVE
10
1028.9568
20
903.5821
30
0.0
0
VERTEX
8
CURVE
10
1029.1800
20
901.1389
30
0.0
0
SEQEND
0
POLYLINE
8
LOT_LINE
66
1
70
1
0
VERTEX
8
LOT_LINE
10
1029.1800
20
901.1389
30
0.0
0
VERTEX
8
LOT_LINE
10
1097.6195
20
904.0173
30
0.0
0
VERTEX
8
LOT_LINE
10
1093.4174
20
1003.9290
30
0.0
0
VERTEX
8
LOT_LINE
10
1000.0000
20
1000.0000
30
0.0
0
VERTEX
8
LOT_LINE
10
1003.1516
20
925.0662
30
0.0
0
VERTEX
8
LOT_LINE
10
1005.6049
20
925.0489
30
0.0
0
VERTEX
8
LOT_LINE
10
1008.0447
20
924.7912
30
0.0
0
VERTEX
8
LOT_LINE
10
1010.4475
20
924.2957
30
0.0
0
VERTEX
8
LOT_LINE
10
1012.7902
20
923.5669
30
0.0
0
VERTEX
8
LOT_LINE
10
1015.0501
20
922.6121
30
0.0
0
VERTEX
8
LOT_LINE
10
1017.2056
20
921.4403
30
0.0
0
VERTEX
8
LOT_LINE
10
1019.2359
20
920.0630
30
0.0
0
VERTEX
8
LOT_LINE
10
1021.1213
20
918.4932
30
0.0
0
VERTEX
8
LOT_LINE
10
1022.8438
20
916.7462
30
0.0
0
VERTEX
8
LOT_LINE
10
1024.3868
20
914.8388
30
0.0
0
VERTEX
8
LOT_LINE
10
1025.7354
20
912.7893
30
0.0
0
VERTEX
8
LOT_LINE
10
1026.8767
20
910.6175
30
0.0
0
VERTEX
8
LOT_LINE
10
1027.7995
20
908.3443
30
0.0
0
VERTEX
8
LOT_LINE
10
1028.4951
20
905.9916
30
0.0
0
VERTEX
8
LOT_LINE
10
1028.9568
20
903.5821
30
0.0
0
SEQEND
0
TEXT
8
TEXT-LABELS
7
STANDARD
10
1025.8981
20
924.3686
30
0.0
40
4.5
1
LOT 33
50
0.0
72
1
11
1025.8981
21
924.3686
31
0.0
73
2
0
POLYLINE
8
LOT_LINE
66
1
70
1
0
VERTEX
8
LOT_LINE
10
1097.6195
20
904.0173
30
0.0
0
VERTEX
8
LOT_LINE
10
1187.3002
20
907.7891
30
0.0
0
VERTEX
8
LOT_LINE
10
1183.0981
20
1007.7008
30
0.0
0
VERTEX
8
LOT_LINE
10
1093.4174
20
1003.9290
30
0.0
0
SEQEND
0
TEXT
8
TEXT-LABELS
7
STANDARD
10
1140.3588
20
955.8590
30
0.0
40
4.5
1
LOT 32
50
0.0
72
1
11
1140.3588
21
955.8590
31
0.0
73
2
0
POLYLINE
8
CURVE
66
1
70
0
0
VERTEX
8
CURVE
10
1187.3002
20
907.7891
30
0.0
0
VERTEX
8
CURVE
10
1192.6350
20
907.9768
30
0.0
0
VERTEX
8
CURVE
10
1197.9719
20
908.0914
30
0.0
0
VERTEX
8
CURVE
10
1203.3098
20
908.1328
30
0.0
0
VERTEX
8
CURVE
10
1208.6478
20
908.1009
30
0.0
0
VERTEX
8
CURVE
10
1213.9848
20
907.9959
30
0.0
0
VERTEX
8
CURVE
10
1219.3199
20
907.8177
30
0.0
0
VERTEX
8
CURVE
10
1224.6521
20
907.5664
30
0.0
0
VERTEX
8
CURVE
10
1229.9803
20
907.2419
30
0.0
0
VERTEX
8
CURVE
10
1235.3035
20
906.8445
30
0.0
0
VERTEX
8
CURVE
10
1240.6208
20
906.3740
30
0.0
0
VERTEX
8
CURVE
10
1245.9312
20
905.8307
30
0.0
0
VERTEX
8
CURVE
10
1251.2336
20
905.2147
30
0.0
0
VERTEX
8
CURVE
10
1256.5271
20
904.5259
30
0.0
0
VERTEX
8
CURVE
10
1261.8106
20
903.7647
30
0.0
0
VERTEX
8
CURVE
10
1267.0832
20
902.9311
30
0.0
0
VERTEX
8
CURVE
10
1272.3438
20
902.0252
30
0.0
0
SEQEND
0
POLYLINE
8
LOT_LINE
66
1
70
1
0
VERTEX
8
LOT_LINE
10
1187.3002
20
907.7891
30
0.0
0
VERTEX
8
LOT_LINE
10
1192.6350
20
907.9768
30
0.0
0
VERTEX
8
LOT_LINE
10
1197.9719
20
908.0914
30
0.0
0
VERTEX
8
LOT_LINE
10
1203.3098
20
908.1328
30
0.0
0
VERTEX
8
LOT_LINE
10
1208.6478
20
908.1009
30
0.0
0
VERTEX
8
LOT_LINE
10
1213.9848
20
907.9959
30
0.0
0
VERTEX
8
LOT_LINE
10
1219.3199
20
907.8177
30
0.0
0
VERTEX
8
LOT_LINE
10
1224.6521
20
907.5664
30
0.0
0
VERTEX
8
LOT_LINE
10
1229.9803
20
907.2419
30
0.0
0
VERTEX
8
LOT_LINE
10
1235.3035
20
906.8445
30
0.0
0
VERTEX
8
LOT_LINE
10
1240.6208
20
906.3740
30
0.0
0
VERTEX
8
LOT_LINE
10
1245.9312
20
905.8307
30
0.0
0
VERTEX
8
LOT_LINE
10
1251.2336
20
905.2147
30
0.0
0
VERTEX
8
LOT_LINE
10
1256.5271
20
904.5259
30
0.0
0
VERTEX
8
LOT_LINE
10
1261.8106
20
903.7647
30
0.0
0
VERTEX
8
LOT_LINE
10
1267.0832
20
902.9311
30
0.0
0
VERTEX
8
LOT_LINE
10
1272.3438
20
902.0252
30
0.0
0
VERTEX
8
LOT_LINE
10
1293.0010
20
1012.3231
30
0.0
0
VERTEX
8
LOT_LINE
10
1183.0981
20
1007.7008
30
0.0
0
SEQEND
0
TEXT
8
TEXT-LABELS
7
STANDARD
10
1230.7766
20
917.2762
30
0.0
40
4.5
1
LOT 31
50
0.0
72
1
11
1230.7766
21
917.2762
31
0.0
73
2
0
POLYLINE
8
CURVE
66
1
70
0
0
VERTEX
8
CURVE
10
1272.3438
20
902.0252
30
0.0
0
VERTEX
8
CURVE
10
1277.5916
20
901.0473
30
0.0
0
VERTEX
8
CURVE
10
1282.8254
20
899.9976
30
0.0
0
VERTEX
8
CURVE
10
1288.0444
20
898.8761
30
0.0
0
VERTEX
8
CURVE
10
1293.2475
20
897.6832
30
0.0
0
VERTEX
8
CURVE
10
1298.4337
20
896.4191
30
0.0
0
VERTEX
8
CURVE
10
1303.6021
20
895.0839
30
0.0
0
VERTEX
8
CURVE
10
1308.7517
20
893.6781
30
0.0
0
VERTEX
8
CURVE
10
1313.8816
20
892.2017
30
0.0
0
VERTEX
8
CURVE
10
1318.9907
20
890.6551
30
0.0
0
VERTEX
8
CURVE
10
1324.0781
20
889.0386
30
0.0
0
VERTEX
8
CURVE
10
1329.1429
20
887.3525
30
0.0
0
VERTEX
8
CURVE
10
1334.1841
20
885.5971
30
0.0
0
VERTEX
8
CURVE
10
1339.2008
20
883.7728
30
0.0
0
VERTEX
8
CURVE
10
1344.1920
20
881.8798
30
0.0
0
VERTEX
8
CURVE
10
1349.1567
20
879.9186
30
0.0
0
VERTEX
8
CURVE
10
1354.0941
20
877.8894
30
0.0
0
SEQEND
0
POLYLINE
8
LOT_LINE
66
1
70
1
0
VERTEX
8
LOT_LINE
10
1272.3438
20
902.0252
30
0.0
0
VERTEX
8
LOT_LINE
10
1277.5916
20
901.0473
30
0.0
0
VERTEX
8
LOT_LINE
10
1282.8254
20
899.9976
30
0.0
0
VERTEX
8
LOT_LINE
10
1288.0444
20
898.8761
30
0.0
0
VERTEX
8
LOT_LINE
10
1293.2475
20
897.6832
30
0.0
0
VERTEX
8
LOT_LINE
10
1298.4337
20
896.4191
30
0.0
0
VERTEX
8
LOT_LINE
10
1303.6021
20
895.0839
30
0.0
0
VERTEX
8
LOT_LINE
10
1308.7517
20
893.6781
30
0.0
0
VERTEX
8
LOT_LINE
10
1313.8816
20
892.2017
30
0.0
0
VERTEX
8
LOT_LINE
10
1318.9907
20
890.6551
30
0.0
0
VERTEX
8
LOT_LINE
10
1324.0781
20
889.0386
30
0.0
0
VERTEX
8
LOT_LINE
10
1329.1429
20
887.3525
30
0.0
0
VERTEX
8
LOT_LINE
10
1334.1841
20
885.5971
30
0.0
0
VERTEX
8
LOT_LINE
10
1339.2008
20
883.7728
30
0.0
0
VERTEX
8
LOT_LINE
10
1344.1920
20
881.8798
30
0.0
0
VERTEX
8
LOT_LINE
10
1349.1567
20
879.9186
30
0.0
0
VERTEX
8
LOT_LINE
10
1354.0941
20
877.8894
30
0.0
0
VERTEX
8
LOT_LINE
10
1402.9038
20
1016.9454
30
0.0
0
VERTEX
8
LOT_LINE
10
1293.0010
20
1012.3231
30
0.0
0
SEQEND
0
TEXT
8
TEXT-LABELS
7
STANDARD
10
1317.2456
20
904.3360
30
0.0
40
4.5
1
LOT 30
50
0.0
72
1
11
1317.2456
21
904.3360
31
0.0
73
2
0
POLYLINE
8
CURVE
66
1
70
0
0
VERTEX
8
CURVE
10
1354.0941
20
877.8894
30
0.0
0
VERTEX
8
CURVE
10
1359.0032
20
875.7928
30
0.0
0
VERTEX
8
CURVE
10
1363.8830
20
873.6290
30
0.0
0
VERTEX
8
CURVE
10
1368.7328
20
871.3985
30
0.0
0
VERTEX
8
CURVE
10
1373.5515
20
869.1018
30
0.0
0
VERTEX
8
CURVE
10
1378.3382
20
866.7391
30
0.0
0
VERTEX
8
CURVE
10
1383.0922
20
864.3111
30
0.0
0
VERTEX
8
CURVE
10
1387.8123
20
861.8181
30
0.0
0
VERTEX
8
CURVE
10
1392.4979
20
859.2605
30
0.0
0
VERTEX
8
CURVE
10
1397.1479
20
856.6390
30
0.0
0
VERTEX
8
CURVE
10
1401.7615
20
853.9540
30
0.0
0
VERTEX
8
CURVE
10
1406.3379
20
851.2059
30
0.0
0
VERTEX
8
CURVE
10
1410.8762
20
848.3954
30
0.0
0
VERTEX
8
CURVE
10
1415.3755
20
845.5229
30
0.0
0
VERTEX
8
CURVE
10
1419.8350
20
842.5889
30
0.0
0
VERTEX
8
CURVE
10
1424.2538
20
839.5941
30
0.0
0
VERTEX
8
CURVE
10
1428.6312
20
836.5390
30
0.0
0
SEQEND
0
POLYLINE
8
CURVE
66
1
70
0
0
VERTEX
8
CURVE
10
1428.6312
20
836.5390
30
0.0
0
VERTEX
8
CURVE
10
1430.7005
20
835.2210
30
0.0
0
VERTEX
8
CURVE
10
1432.8890
20
834.1123
30
0.0
0
VERTEX
8
CURVE
10
1435.1757
20
833.2233
30
0.0
0
VERTEX
8
CURVE
10
1437.5385
20
832.5628
30
0.0
0
VERTEX
8
CURVE
10
1439.9547
20
832.1371
30
0.0
0
VERTEX
8
CURVE
10
1442.4009
20
831.9502
30
0.0
0
VERTEX
8
CURVE
10
1444.8537
20
832.0041
30
0.0
0
VERTEX
8
CURVE
10
1447.2894
20
832.2980
30
0.0
0
VERTEX
8
CURVE
10
1449.6846
20
832.8293
30
0.0
0
VERTEX
8
CURVE
10
1452.0162
20
833.5928
30
0.0
0
VERTEX
8
CURVE
10
1454.2616
20
834.5812
30
0.0
0
VERTEX
8
CURVE
10
1456.3994
20
835.7849
30
0.0
0
VERTEX
8
CURVE
10
1458.4090
20
837.1924
30
0.0
0
VERTEX
8
CURVE
10
1460.2709
20
838.7900
30
0.0
0
VERTEX
8
CURVE
10
1461.9672
20
840.5624
30
0.0
0
VERTEX
8
CURVE
10
1463.4816
20
842.4926
30
0.0
0
SEQEND
0
POLYLINE
8
LOT_LINE
66
1
70
1
0
VERTEX
8
LOT_LINE
10
1354.0941
20
877.8894
30
0.0
0
VERTEX
8
LOT_LINE
10
1359.0032
20
875.7928
30
0.0
0
VERTEX
8
LOT_LINE
10
1363.8830
20
873.6290
30
0.0
0
VERTEX
8
LOT_LINE
10
1368.7328
20
871.3985
30
0.0
0
VERTEX
8
LOT_LINE
10
1373.5515
20
869.1018
30
0.0
0
VERTEX
8
LOT_LINE
10
1378.3382
20
866.7391
30
0.0
0
VERTEX
8
LOT_LINE
10
1383.0922
20
864.3111
30
0.0
0
VERTEX
8
LOT_LINE
10
1387.8123
20
861.8181
30
0.0
0
VERTEX
8
LOT_LINE
10
1392.4979
20
859.2605
30
0.0
0
VERTEX
8
LOT_LINE
10
1397.1479
20
856.6390
30
0.0
0
VERTEX
8
LOT_LINE
10
1401.7615
20
853.9540
30
0.0
0
VERTEX
8
LOT_LINE
10
1406.3379
20
851.2059
30
0.0
0
VERTEX
8
LOT_LINE
10
1410.8762
20
848.3954
30
0.0
0
VERTEX
8
LOT_LINE
10
1415.3755
20
845.5229
30
0.0
0
VERTEX
8
LOT_LINE
10
1419.8350
20
842.5889
30
0.0
0
VERTEX
8
LOT_LINE
10
1424.2538
20
839.5941
30
0.0
0
VERTEX
8
LOT_LINE
10
1428.6312
20
836.5390
30
0.0
0
VERTEX
8
LOT_LINE
10
1430.7005
20
835.2210
30
0.0
0
VERTEX
8
LOT_LINE
10
1432.8890
20
834.1123
30
0.0
0
VERTEX
8
LOT_LINE
10
1435.1757
20
833.2233
30
0.0
0
VERTEX
8
LOT_LINE
10
1437.5385
20
832.5628
30
0.0
0
VERTEX
8
LOT_LINE
10
1439.9547
20
832.1371
30
0.0
0
VERTEX
8
LOT_LINE
10
1442.4009
20
831.9502
30
0.0
0
VERTEX
8
LOT_LINE
10
1444.8537
20
832.0041
30
0.0
0
VERTEX
8
LOT_LINE
10
1447.2894
20
832.2980
30
0.0
0
VERTEX
8
LOT_LINE
10
1449.6846
20
832.8293
30
0.0
0
VERTEX
8
LOT_LINE
10
1452.0162
20
833.5928
30
0.0
0
VERTEX
8
LOT_LINE
10
1454.2616
20
834.5812
30
0.0
0
VERTEX
8
LOT_LINE
10
1456.3994
20
835.7849
30
0.0
0
VERTEX
8
LOT_LINE
10
1458.4090
20
837.1924
30
0.0
0
VERTEX
8
LOT_LINE
10
1460.2709
20
838.7900
30
0.0
0
VERTEX
8
LOT_LINE
10
1461.9672
20
840.5624
30
0.0
0
VERTEX
8
LOT_LINE
10
1463.4816
20
842.4926
30
0.0
0
VERTEX
8
LOT_LINE
10
1498.6037
20
880.4155
30
0.0
0
VERTEX
8
LOT_LINE
10
1402.9038
20
1016.9454
30
0.0
0
SEQEND
0
TEXT
8
TEXT-LABELS
7
STANDARD
10
1420.9721
20
852.8879
30
0.0
40
4.5
1
LOT 29
50
0.0
72
1
11
1420.9721
21
852.8879
31
0.0
73
2
0
POLYLINE
8
CURVE
66
1
70
0
0
VERTEX
8
CURVE
10
1498.6037
20
880.4155
30
0.0
0
VERTEX
8
CURVE
10
1501.8810
20
883.2417
30
0.0
0
VERTEX
8
CURVE
10
1505.2301
20
885.9825
30
0.0
0
VERTEX
8
CURVE
10
1508.6486
20
888.6361
30
0.0
0
VERTEX
8
CURVE
10
1512.1344
20
891.2008
30
0.0
0
VERTEX
8
CURVE
10
1515.6850
20
893.6748
30
0.0
0
VERTEX
8
CURVE
10
1519.2983
20
896.0565
30
0.0
0
VERTEX
8
CURVE
10
1522.9717
20
898.3443
30
0.0
0
VERTEX
8
CURVE
10
1526.7029
20
900.5367
30
0.0
0
VERTEX
8
CURVE
10
1530.4893
20
902.6323
30
0.0
0
VERTEX
8
CURVE
10
1534.3284
20
904.6296
30
0.0
0
VERTEX
8
CURVE
10
1538.2177
20
906.5273
30
0.0
0
VERTEX
8
CURVE
10
1542.1546
20
908.3242
30
0.0
0
VERTEX
8
CURVE
10
1546.1365
20
910.0190
30
0.0
0
VERTEX
8
CURVE
10
1550.1608
20
911.6107
30
0.0
0
VERTEX
8
CURVE
10
1554.2247
20
913.0982
30
0.0
0
VERTEX
8
CURVE
10
1558.3256
20
914.4805
30
0.0
0
SEQEND
0
POLYLINE
8
LOT_LINE
66
1
70
1
0
VERTEX
8
LOT_LINE
10
1498.6037
20
880.4155
30
0.0
0
VERTEX
8
LOT_LINE
10
1501.8810
20
883.2417
30
0.0
0
VERTEX
8
LOT_LINE
10
1505.2301
20
885.9825
30
0.0
0
VERTEX
8
LOT_LINE
10
1508.6486
20
888.6361
30
0.0
0
VERTEX
8
LOT_LINE
10
1512.1344
20
891.2008
30
0.0
0
VERTEX
8
LOT_LINE
10
1515.6850
20
893.6748
30
0.0
0
VERTEX
8
LOT_LINE
10
1519.2983
20
896.0565
30
0.0
0
VERTEX
8
LOT_LINE
10
1522.9717
20
898.3443
30
0.0
0
VERTEX
8
LOT_LINE
10
1526.7029
20
900.5367
30
0.0
0
VERTEX
8
LOT_LINE
10
1530.4893
20
902.6323
30
0.0
0
VERTEX
8
LOT_LINE
10
1534.3284
20
904.6296
30
0.0
0
VERTEX
8
LOT_LINE
10
1538.2177
20
906.5273
30
0.0
0
VERTEX
8
LOT_LINE
10
1542.1546
20
908.3242
30
0.0
0
VERTEX
8
LOT_LINE
10
1546.1365
20
910.0190
30
0.0
0
VERTEX
8
LOT_LINE
10
1550.1608
20
911.6107
30
0.0
0
VERTEX
8
LOT_LINE
10
1554.2247
20
913.0982
30
0.0
0
VERTEX
8
LOT_LINE
10
1558.3256
20
914.4805
30
0.0
0
VERTEX
8
LOT_LINE
10
1512.8067
20
1021.5677
30
0.0
0
VERTEX
8
LOT_LINE
10
1402.9038
20
1016.9454
30
0.0
0
SEQEND
0
TEXT
8
TEXT-LABELS
7
STANDARD
10
1520.0476
20
911.9960
30
0.0
40
4.5
1
LOT 28
50
0.0
72
1
11
1520.0476
21
911.9960
31
0.0
73
2
0
LINE
8
ROW_STREET
10
996.0920
20
1092.9179
30
0.0
11
995.7979
21
1099.9117
31
0.0
0
LINE
8
ROW_STREET
10
995.7979
20
1099.9117
30
0.0
11
1002.7917
21
1100.2058
31
0.0
0
TEXT
8
DIM-LABELS
7
STANDARD
10
997.7979
20
1101.9117
30
0.0
40
3.2
1
P.I.
50
0.0
0
LINE
8
RADIAL_LINE
10
996.8484
20
1074.9338
30
0.0
11
995.7979
21
1099.9117
31
0.0
0
LINE
8
RADIAL_LINE
10
1020.7758
20
1100.9622
30
0.0
11
995.7979
21
1099.9117
31
0.0
0
LINE
8
RADIAL_LINE
10
1021.8263
20
1075.9843
30
0.0
11
996.8484
21
1074.9338
31
0.0
0
LINE
8
RADIAL_LINE
10
1021.8263
20
1075.9843
30
0.0
11
1020.7758
21
1100.9622
31
0.0
0
TEXT
8
TEXT-LABELS
7
STANDARD
10
1006.8263
20
1070.9843
30
0.0
40
3.0
1
R=25.00'
50
0.0
0
LINE
8
ROW_STREET
10
1003.9080
20
907.0821
30
0.0
11
1004.2021
21
900.0883
31
0.0
0
LINE
8
ROW_STREET
10
1004.2021
20
900.0883
30
0.0
11
1011.1959
21
900.3825
31
0.0
0
TEXT
8
DIM-LABELS
7
STANDARD
10
1006.2021
20
902.0883
30
0.0
40
3.2
1
P.I.
50
0.0
0
LINE
8
RADIAL_LINE
10
1003.1516
20
925.0662
30
0.0
11
1004.2021
21
900.0883
31
0.0
0
LINE
8
RADIAL_LINE
10
1029.1800
20
901.1389
30
0.0
11
1004.2021
21
900.0883
31
0.0
0
LINE
8
RADIAL_LINE
10
1028.1295
20
926.1168
30
0.0
11
1003.1516
21
925.0662
31
0.0
0
LINE
8
RADIAL_LINE
10
1028.1295
20
926.1168
30
0.0
11
1029.1800
21
901.1389
31
0.0
0
TEXT
8
TEXT-LABELS
7
STANDARD
10
1013.1295
20
929.1168
30
0.0
40
3.0
1
R=25.00'
50
0.0
0
LINE
8
ROW_STREET
10
1443.3206
20
826.1361
30
0.0
11
1449.0332
21
822.0906
31
0.0
0
LINE
8
ROW_STREET
10
1449.0332
20
822.0906
30
0.0
11
1453.0788
21
827.8031
31
0.0
0
TEXT
8
DIM-LABELS
7
STANDARD
10
1451.0332
20
824.0906
30
0.0
40
3.2
1
P.I.
50
0.0
0
LINE
8
RADIAL_LINE
10
1428.6312
20
836.5390
30
0.0
11
1449.0332
21
822.0906
31
0.0
0
LINE
8
RADIAL_LINE
10
1463.4816
20
842.4926
30
0.0
11
1449.0332
21
822.0906
31
0.0
0
LINE
8
RADIAL_LINE
10
1414.1828
20
816.1369
30
0.0
11
1428.6312
21
836.5390
31
0.0
0
LINE
8
RADIAL_LINE
10
1414.1828
20
816.1369
30
0.0
11
1463.4816
21
842.4926
31
0.0
0
TEXT
8
TEXT-LABELS
7
STANDARD
10
1417.1828
20
812.1369
30
0.0
40
3.0
1
R=25.00'
50
0.0
0
POINT
8
MONUMENT
10
1097.6195
20
904.0173
30
0.0
0
POLYLINE
8
MONUMENT
66
1
70
1
0
VERTEX
8
MONUMENT
10
1100.1195
20
904.0173
30
0.0
0
VERTEX
8
MONUMENT
10
1099.3873
20
905.7851
30
0.0
0
VERTEX
8
MONUMENT
10
1097.6195
20
906.5173
30
0.0
0
VERTEX
8
MONUMENT
10
1095.8517
20
905.7851
30
0.0
0
VERTEX
8
MONUMENT
10
1095.1195
20
904.0173
30
0.0
0
VERTEX
8
MONUMENT
10
1095.8517
20
902.2495
30
0.0
0
VERTEX
8
MONUMENT
10
1097.6195
20
901.5173
30
0.0
0
VERTEX
8
MONUMENT
10
1099.3873
20
902.2495
30
0.0
0
SEQEND
0
TEXT
8
MONUMENT
7
STANDARD
10
1082.6195
20
896.0173
30
0.0
40
3.8
1
P.R.M. (Lot 33/32)
50
0.0
0
LINE
8
BLOCK_CL
10
1000.0000
20
1000.0000
30
0.0
11
1617.9537
21
1025.9900
31
0.0
0
TEXT
8
BLOCK_CL
7
STANDARD
10
1258.9768
20
1014.9950
30
0.0
40
4.5
1
BLOCK CENTERLINE -- N 87%%d35'30" E - 618.50'
50
0.0
0
LINE
8
STREET_CL
10
994.5373
20
1129.8852
30
0.0
11
1612.4910
21
1155.8751
31
0.0
0
TEXT
8
ROW_STREET
7
STANDARD
10
1253.5141
20
1145.8802
30
0.0
40
5.5
1
SAIL AVENUE (60' R/W) -- N 87%%d35'30" E
50
0.0
0
LINE
8
STREET_CL
10
964.5638
20
1128.6245
30
0.0
11
975.4892
21
868.8542
31
0.0
0
TEXT
8
ROW_STREET
6
ROT_90.00
7
STANDARD
10
955.0265
20
998.7394
30
0.0
40
5.0
1
60' WEST CROSS STREET -- N 02%%d24'30" W
50
90.0
0
LINE
8
STREET_CL
10
1005.4627
20
870.1148
30
0.0
11
1188.5609
21
877.8156
31
0.0
0
TEXT
8
ROW_STREET
7
STANDARD
10
1057.0118
20
862.1148
30
0.0
40
5.0
1
SOUTH STREET (60' R/W) -- N 87%%d35'30" E
50
0.0
0
LINE
8
RADIAL_LINE
10
1203.6577
20
518.8629
30
0.0
11
1187.3002
21
907.7891
31
0.0
0
LINE
8
RADIAL_LINE
10
1203.6577
20
518.8629
30
0.0
11
1272.3438
21
902.0252
31
0.0
0
LINE
8
RADIAL_LINE
10
1203.6577
20
518.8629
30
0.0
11
1354.0941
21
877.8894
31
0.0
0
LINE
8
RADIAL_LINE
10
1203.6577
20
518.8629
30
0.0
11
1428.6312
21
836.5390
31
0.0
0
TEXT
8
DIM-LABELS
7
STANDARD
10
1183.6577
20
548.8629
30
0.0
40
4.0
1
MARINA AVE CURVE R=389.27' (DELTA=37%%d42'50")
50
0.0
0
LINE
8
EASEMENT
10
1548.0199
20
1022.8384
30
0.0
11
1543.8178
21
1122.7501
31
0.0
0
LINE
8
EASEMENT
10
1538.0199
20
1022.8384
30
0.0
11
1533.8178
21
1122.7501
31
0.0
0
TEXT
8
EASEMENT
7
STANDARD
10
1548.9189
20
1072.7942
30
0.0
40
2.8
1
10' EASEMENT
50
0.0
0
TEXT
8
TITLEBLOCK
7
STANDARD
10
1045.7979
20
1179.9117
30
0.0
40
9.0
1
BEACHWOOD UNIT TWO -- BLOCK 16 SURVEY MAPCHECK AUDIT
50
0.0
0
TEXT
8
TITLEBLOCK
7
STANDARD
10
1045.7979
20
1164.9117
30
0.0
40
5.5
1
Plat Book 30, Pages 82 & 82A, Duval County, FL | 100% Survey-Grade Closed (14 Lots)
50
0.0
0
TEXT
8
TITLEBLOCK
7
STANDARD
10
1675.7979
20
1139.9117
30
0.0
40
4.5
1
CURVE TABLE (BLOCK 16)
50
0.0
0
TEXT
8
TABLE_FRAME
7
STANDARD
10
1675.7979
20
1131.9117
30
0.0
40
3.0
1
Tag   | Radius  | Delta      | Arc     | Tan     | Chord   | Chord Bearing
50
0.0
0
LINE
8
TABLE_FRAME
10
1675.7979
20
1129.9117
30
0.0
11
1935.7979
21
1129.9117
31
0.0
0
TEXT
8
TABLE_TEXT
7
STANDARD
10
1675.7979
20
1123.9117
30
0.0
40
2.8
1
C1    | 25.00   | 90%%d00'00"  | 39.27   | 25.00   | 35.36   | N42%%d35'30"E
50
0.0
0
TEXT
8
TABLE_TEXT
7
STANDARD
10
1675.7979
20
1117.9117
30
0.0
40
2.8
1
C2    | 25.00   | 90%%d00'00"  | 39.27   | 25.00   | 35.36   | S47%%d24'30"E
50
0.0
0
TEXT
8
TABLE_TEXT
7
STANDARD
10
1675.7979
20
1111.9117
30
0.0
40
2.8
1
C3    | 389.27  | 12%%d34'17"  | 85.41   | 42.88   | 85.24   | S86%%d07'22"E
50
0.0
0
TEXT
8
TABLE_TEXT
7
STANDARD
10
1675.7979
20
1105.9117
30
0.0
40
2.8
1
C4    | 389.27  | 12%%d34'17"  | 85.41   | 42.88   | 85.24   | S73%%d33'06"E
50
0.0
0
TEXT
8
TABLE_TEXT
7
STANDARD
10
1675.7979
20
1099.9117
30
0.0
40
2.8
1
C5    | 389.27  | 12%%d34'17"  | 85.41   | 42.88   | 85.24   | S60%%d58'49"E
50
0.0
0
TEXT
8
TABLE_TEXT
7
STANDARD
10
1675.7979
20
1093.9117
30
0.0
40
2.8
1
C6    | 25.00   | 90%%d00'00"  | 39.27   | 25.00   | 35.36   | N80%%d18'20"E
50
0.0
0
TEXT
8
TABLE_TEXT
7
STANDARD
10
1675.7979
20
1087.9117
30
0.0
40
2.8
1
C7    | 167.95  | 23%%d37'15"  | 69.24   | 35.12   | 68.75   | N60%%d18'20"E
50
0.0
0
TEXT
8
TITLEBLOCK
7
STANDARD
10
1675.7979
20
1066.9117
30
0.0
40
4.5
1
LINE TABLE (BLOCK 16)
50
0.0
0
TEXT
8
TABLE_FRAME
7
STANDARD
10
1675.7979
20
1058.9117
30
0.0
40
3.0
1
Tag   | Bearing        | Dist (ft)  | Description
50
0.0
0
LINE
8
TABLE_FRAME
10
1675.7979
20
1056.9117
30
0.0
11
1935.7979
21
1056.9117
31
0.0
0
TEXT
8
TABLE_TEXT
7
STANDARD
10
1675.7979
20
1050.9117
30
0.0
40
2.6
1
L1    | N02%%d24'30"W    | 75.00      | Lot 1 West Straight to PC
50
0.0
0
TEXT
8
TABLE_TEXT
7
STANDARD
10
1675.7979
20
1045.4117
30
0.0
40
2.6
1
L2    | N87%%d35'30"E    | 68.50      | Lot 1 Sail Ave Straight from PT
50
0.0
0
TEXT
8
TABLE_TEXT
7
STANDARD
10
1675.7979
20
1039.9117
30
0.0
40
2.6
1
L3    | S02%%d24'30"E    | 100.00     | Lot 1/2 Dividing Line
50
0.0
0
TEXT
8
TABLE_TEXT
7
STANDARD
10
1675.7979
20
1034.4117
30
0.0
40
2.6
1
L4    | N87%%d35'30"E    | 75.00      | Lots 2-8 Sail Ave Frontage (each)
50
0.0
0
TEXT
8
TABLE_TEXT
7
STANDARD
10
1675.7979
20
1028.9117
30
0.0
40
2.6
1
L5    | S02%%d24'30"E    | 100.00     | Lots 2-8 Side Dividing Lines (each)
50
0.0
0
TEXT
8
TABLE_TEXT
7
STANDARD
10
1675.7979
20
1023.4117
30
0.0
40
2.6
1
L6    | S02%%d24'30"E    | 75.00      | Lot 33 West Straight to PC
50
0.0
0
TEXT
8
TABLE_TEXT
7
STANDARD
10
1675.7979
20
1017.9117
30
0.0
40
2.6
1
L7    | N87%%d35'30"E    | 68.50      | Lot 33 South St Straight to PRM
50
0.0
0
TEXT
8
TABLE_TEXT
7
STANDARD
10
1675.7979
20
1012.4117
30
0.0
40
2.6
1
L8    | N02%%d24'30"W    | 100.00     | Lot 33/32 Dividing Line (PRM Monument)
50
0.0
0
TEXT
8
TABLE_TEXT
7
STANDARD
10
1675.7979
20
1006.9117
30
0.0
40
2.6
1
L9    | N87%%d35'30"E    | 89.76      | Lot 32 South St Frontage to Marina PC
50
0.0
0
TEXT
8
TABLE_TEXT
7
STANDARD
10
1675.7979
20
1001.4117
30
0.0
40
2.6
1
L10   | N02%%d24'30"W    | 100.00     | Lot 32/31 Dividing Line (at PC)
50
0.0
0
TEXT
8
TABLE_TEXT
7
STANDARD
10
1675.7979
20
995.9117
30
0.0
40
2.6
1
L11   | S10%%d36'36"W    | 112.21     | Lot 31/30 Dividing Line
50
0.0
0
TEXT
8
TABLE_TEXT
7
STANDARD
10
1675.7979
20
990.4117
30
0.0
40
2.6
1
L12   | S19%%d20'32"W    | 147.37     | Lot 30/29 Dividing Line to Apex
50
0.0
0
TEXT
8
TABLE_TEXT
7
STANDARD
10
1675.7979
20
984.9117
30
0.0
40
2.6
1
L13   | N42%%d48'20"E    | 51.68      | Lot 29 South Frontage from Return PT
50
0.0
0
TEXT
8
TABLE_TEXT
7
STANDARD
10
1675.7979
20
979.4117
30
0.0
40
2.6
1
L14   | S35%%d01'42"E    | 166.73     | Lot 29/28 Dividing Line from Apex
50
0.0
0
TEXT
8
TABLE_TEXT
7
STANDARD
10
1675.7979
20
973.9117
30
0.0
40
2.6
1
L15   | S23%%d01'43"E    | 116.36     | Lot 28/27 Dividing Line
50
0.0
0
TEXT
8
TABLE_TEXT
7
STANDARD
10
1675.7979
20
968.4117
30
0.0
40
2.6
1
L16   | N87%%d35'30"E    | 110.00     | Lot 31, 30, 28 Centerline Rear Lines (each)
50
0.0
0
TEXT
8
TITLEBLOCK
7
STANDARD
10
1675.7979
20
947.9117
30
0.0
40
4.5
1
LOT SUMMARY & CLOSURE AUDIT (F.A.C. 5J-17)
50
0.0
0
TEXT
8
TABLE_FRAME
7
STANDARD
10
1675.7979
20
939.9117
30
0.0
40
3.0
1
Lot   | Perimeter   | Area (SF)   | Acres    | Misclose   | Status
50
0.0
0
LINE
8
TABLE_FRAME
10
1675.7979
20
937.9117
30
0.0
11
1935.7979
21
937.9117
31
0.0
0
TEXT
8
TABLE_TEXT
7
STANDARD
10
1675.7979
20
931.9117
30
0.0
40
2.6
1
1     | 376.27      | 9215.9      | 0.2116   | 0.00000    | PASS (5J-17)
50
0.0
0
TEXT
8
TABLE_TEXT
7
STANDARD
10
1675.7979
20
926.4117
30
0.0
40
2.6
1
2     | 350.00      | 7500.0      | 0.1722   | 0.00000    | PASS (5J-17)
50
0.0
0
TEXT
8
TABLE_TEXT
7
STANDARD
10
1675.7979
20
920.9117
30
0.0
40
2.6
1
3     | 350.00      | 7500.0      | 0.1722   | 0.00000    | PASS (5J-17)
50
0.0
0
TEXT
8
TABLE_TEXT
7
STANDARD
10
1675.7979
20
915.4117
30
0.0
40
2.6
1
4     | 350.00      | 7500.0      | 0.1722   | 0.00000    | PASS (5J-17)
50
0.0
0
TEXT
8
TABLE_TEXT
7
STANDARD
10
1675.7979
20
909.9117
30
0.0
40
2.6
1
5     | 350.00      | 7500.0      | 0.1722   | 0.00000    | PASS (5J-17)
50
0.0
0
TEXT
8
TABLE_TEXT
7
STANDARD
10
1675.7979
20
904.4117
30
0.0
40
2.6
1
6     | 350.00      | 7500.0      | 0.1722   | 0.00000    | PASS (5J-17)
50
0.0
0
TEXT
8
TABLE_TEXT
7
STANDARD
10
1675.7979
20
898.9117
30
0.0
40
2.6
1
7     | 350.00      | 7500.0      | 0.1722   | 0.00000    | PASS (5J-17)
50
0.0
0
TEXT
8
TABLE_TEXT
7
STANDARD
10
1675.7979
20
893.4117
30
0.0
40
2.6
1
8     | 350.00      | 7500.0      | 0.1722   | 0.00000    | PASS (5J-17)
50
0.0
0
TEXT
8
TABLE_TEXT
7
STANDARD
10
1675.7979
20
887.9117
30
0.0
40
2.6
1
33    | 376.27      | 9215.9      | 0.2116   | 0.00000    | PASS (5J-17)
50
0.0
0
TEXT
8
TABLE_TEXT
7
STANDARD
10
1675.7979
20
882.4117
30
0.0
40
2.6
1
32    | 379.52      | 8976.0      | 0.2061   | 0.00000    | PASS (5J-17)
50
0.0
0
TEXT
8
TABLE_TEXT
7
STANDARD
10
1675.7979
20
876.9117
30
0.0
40
2.6
1
31    | 407.63      | 10382.7     | 0.2384   | 0.00000    | PASS (5J-17)
50
0.0
0
TEXT
8
TABLE_TEXT
7
STANDARD
10
1675.7979
20
871.4117
30
0.0
40
2.6
1
30    | 455.00      | 12419.3     | 0.2851   | 0.00000    | PASS (5J-17)
50
0.0
0
TEXT
8
TABLE_TEXT
7
STANDARD
10
1675.7979
20
865.9117
30
0.0
40
2.6
1
29    | 490.47      | 13578.7     | 0.3117   | 0.00000    | PASS (5J-17)
50
0.0
0
TEXT
8
TABLE_TEXT
7
STANDARD
10
1675.7979
20
860.4117
30
0.0
40
2.6
1
28    | 462.33      | 11860.1     | 0.2723   | 0.00000    | PASS (5J-17)
50
0.0
0
ENDSEC
0
EOF
