0
SECTION
2
HEADER
0
ENDSEC
0
SECTION
2
TABLES
0
TABLE
2
LTYPE
70
2
0
LTYPE
2
CONTINUOUS
70
0
3
Solid
72
65
73
0
40
0.0
0
LTYPE
2
DASHED
70
0
3
Dashed
72
65
73
2
40
0.75
49
0.5
74
0
49
-0.25
74
0
0
ENDTAB
0
TABLE
2
LAYER
70
8
0
LAYER
2
0
70
0
62
7
6
CONTINUOUS
0
LAYER
2
BOUNDARY
70
0
62
7
6
CONTINUOUS
0
LAYER
2
LOT_LINE
70
0
62
4
6
CONTINUOUS
0
LAYER
2
ROW_STREET
70
0
62
2
6
DASHED
0
LAYER
2
TEXT-LABELS
70
0
62
7
6
CONTINUOUS
0
LAYER
2
DIM-LABELS
70
0
62
3
6
CONTINUOUS
0
LAYER
2
TITLEBLOCK
70
0
62
2
6
CONTINUOUS
0
LAYER
2
UNRESOLVED
70
0
62
1
6
DASHED
0
ENDTAB
0
ENDSEC
0
SECTION
2
ENTITIES
0
LINE
8
LOT_LINE
10
0.0000
20
0.0000
30
0.0
11
95.0171
21
0.7463
31
0.0
0
LINE
8
LOT_LINE
10
95.0171
20
0.7463
30
0.0
11
98.8120
21
-117.8130
31
0.0
0
LINE
8
LOT_LINE
10
98.8120
20
-117.8130
30
0.0
11
3.8148
21
-119.1790
31
0.0
0
LINE
8
LOT_LINE
10
3.8148
20
-119.1790
30
0.0
11
0.0000
21
0.0000
31
0.0
0
TEXT
8
TEXT-LABELS
10
49.4110
20
-59.0614
30
0.0
40
10
1
1
50
0.0
0
TEXT
8
TEXT-LABELS
10
31.4110
20
-73.0614
30
0.0
40
6
1
11,297 sf
50
0.0
0
LINE
8
LOT_LINE
10
95.0171
20
0.7463
30
0.0
11
175.0246
21
1.3747
31
0.0
0
LINE
8
LOT_LINE
10
175.0246
20
1.3747
30
0.0
11
178.7997
21
-116.5649
31
0.0
0
LINE
8
LOT_LINE
10
178.7997
20
-116.5649
30
0.0
11
98.8120
21
-117.8130
31
0.0
0
LINE
8
LOT_LINE
10
98.8120
20
-117.8130
30
0.0
11
95.0171
21
0.7463
31
0.0
0
TEXT
8
TEXT-LABELS
10
136.9133
20
-58.0642
30
0.0
40
10
1
2
50
0.0
0
TEXT
8
TEXT-LABELS
10
118.9133
20
-72.0642
30
0.0
40
6
1
9,463 sf
50
0.0
0
LINE
8
LOT_LINE
10
175.0246
20
1.3747
30
0.0
11
255.0321
21
2.0031
31
0.0
0
LINE
8
LOT_LINE
10
255.0321
20
2.0031
30
0.0
11
258.7867
21
-115.2969
31
0.0
0
LINE
8
LOT_LINE
10
258.7867
20
-115.2969
30
0.0
11
178.7997
21
-116.5649
31
0.0
0
LINE
8
LOT_LINE
10
178.7997
20
-116.5649
30
0.0
11
175.0246
21
1.3747
31
0.0
0
TEXT
8
TEXT-LABELS
10
216.9108
20
-57.1210
30
0.0
40
10
1
3
50
0.0
0
TEXT
8
TEXT-LABELS
10
198.9108
20
-71.1210
30
0.0
40
6
1
9,413 sf
50
0.0
0
LINE
8
LOT_LINE
10
255.0321
20
2.0031
30
0.0
11
335.0397
21
2.6314
31
0.0
0
LINE
8
LOT_LINE
10
335.0397
20
2.6314
30
0.0
11
338.7741
21
-114.0388
31
0.0
0
LINE
8
LOT_LINE
10
338.7741
20
-114.0388
30
0.0
11
258.7867
21
-115.2969
31
0.0
0
LINE
8
LOT_LINE
10
258.7867
20
-115.2969
30
0.0
11
255.0321
21
2.0031
31
0.0
0
TEXT
8
TEXT-LABELS
10
296.9082
20
-56.1753
30
0.0
40
10
1
4
50
0.0
0
TEXT
8
TEXT-LABELS
10
278.9082
20
-70.1753
30
0.0
40
6
1
9,362 sf
50
0.0
0
LINE
8
LOT_LINE
10
335.0397
20
2.6314
30
0.0
11
415.0472
21
3.2598
31
0.0
0
LINE
8
LOT_LINE
10
415.0472
20
3.2598
30
0.0
11
418.7615
21
-112.7807
31
0.0
0
LINE
8
LOT_LINE
10
418.7615
20
-112.7807
30
0.0
11
338.7741
21
-114.0388
31
0.0
0
LINE
8
LOT_LINE
10
338.7741
20
-114.0388
30
0.0
11
335.0397
21
2.6314
31
0.0
0
TEXT
8
TEXT-LABELS
10
376.9056
20
-55.2321
30
0.0
40
10
1
5
50
0.0
0
TEXT
8
TEXT-LABELS
10
358.9056
20
-69.2321
30
0.0
40
6
1
9,312 sf
50
0.0
0
LINE
8
LOT_LINE
10
415.0472
20
3.2598
30
0.0
11
495.0547
21
3.8882
31
0.0
0
LINE
8
LOT_LINE
10
495.0547
20
3.8882
30
0.0
11
498.7489
21
-111.5227
31
0.0
0
LINE
8
LOT_LINE
10
498.7489
20
-111.5227
30
0.0
11
418.7615
21
-112.7807
31
0.0
0
LINE
8
LOT_LINE
10
418.7615
20
-112.7807
30
0.0
11
415.0472
21
3.2598
31
0.0
0
TEXT
8
TEXT-LABELS
10
456.9031
20
-54.2888
30
0.0
40
10
1
6
50
0.0
0
TEXT
8
TEXT-LABELS
10
438.9031
20
-68.2888
30
0.0
40
6
1
9,261 sf
50
0.0
0
LINE
8
LOT_LINE
10
495.0547
20
3.8882
30
0.0
11
575.0623
21
4.5166
31
0.0
0
LINE
8
LOT_LINE
10
575.0623
20
4.5166
30
0.0
11
578.7366
21
-110.2746
31
0.0
0
LINE
8
LOT_LINE
10
578.7366
20
-110.2746
30
0.0
11
498.7489
21
-111.5227
31
0.0
0
LINE
8
LOT_LINE
10
498.7489
20
-111.5227
30
0.0
11
495.0547
21
3.8882
31
0.0
0
TEXT
8
TEXT-LABELS
10
536.9006
20
-53.3481
30
0.0
40
10
1
7
50
0.0
0
TEXT
8
TEXT-LABELS
10
518.9006
20
-67.3481
30
0.0
40
6
1
9,211 sf
50
0.0
0
LINE
8
LOT_LINE
10
575.0623
20
4.5166
30
0.0
11
655.0698
21
5.1450
31
0.0
0
LINE
8
LOT_LINE
10
655.0698
20
5.1450
30
0.0
11
658.7239
21
-109.0165
31
0.0
0
LINE
8
LOT_LINE
10
658.7239
20
-109.0165
30
0.0
11
578.7366
21
-110.2746
31
0.0
0
LINE
8
LOT_LINE
10
578.7366
20
-110.2746
30
0.0
11
575.0623
21
4.5166
31
0.0
0
TEXT
8
TEXT-LABELS
10
616.8981
20
-52.4074
30
0.0
40
10
1
8
50
0.0
0
TEXT
8
TEXT-LABELS
10
598.8981
20
-66.4074
30
0.0
40
6
1
9,161 sf
50
0.0
0
LINE
8
LOT_LINE
10
4.7572
20
-179.1716
30
0.0
11
104.7449
21
-177.6008
31
0.0
0
LINE
8
LOT_LINE
10
104.7449
20
-177.6008
30
0.0
11
106.6297
21
-297.5860
31
0.0
0
LINE
8
LOT_LINE
10
106.6297
20
-297.5860
30
0.0
11
6.6421
21
-299.1568
31
0.0
0
LINE
8
LOT_LINE
10
6.6421
20
-299.1568
30
0.0
11
4.7572
21
-179.1716
31
0.0
0
TEXT
8
TEXT-LABELS
10
55.6935
20
-238.3788
30
0.0
40
10
1
1
50
0.0
0
TEXT
8
TEXT-LABELS
10
37.6935
20
-252.3788
30
0.0
40
6
1
12,000 sf
50
0.0
0
LINE
8
LOT_LINE
10
104.7449
20
-177.6008
30
0.0
11
184.7350
21
-176.3442
31
0.0
0
LINE
8
LOT_LINE
10
184.7350
20
-176.3442
30
0.0
11
186.6199
21
-296.3294
31
0.0
0
LINE
8
LOT_LINE
10
186.6199
20
-296.3294
30
0.0
11
106.6297
21
-297.5860
31
0.0
0
LINE
8
LOT_LINE
10
106.6297
20
-297.5860
30
0.0
11
104.7449
21
-177.6008
31
0.0
0
TEXT
8
TEXT-LABELS
10
145.6824
20
-236.9651
30
0.0
40
10
1
2
50
0.0
0
TEXT
8
TEXT-LABELS
10
127.6824
20
-250.9651
30
0.0
40
6
1
9,600 sf
50
0.0
0
LINE
8
LOT_LINE
10
184.7350
20
-176.3442
30
0.0
11
264.7251
21
-175.0877
31
0.0
0
LINE
8
LOT_LINE
10
264.7251
20
-175.0877
30
0.0
11
266.6100
21
-295.0729
31
0.0
0
LINE
8
LOT_LINE
10
266.6100
20
-295.0729
30
0.0
11
186.6199
21
-296.3294
31
0.0
0
LINE
8
LOT_LINE
10
186.6199
20
-296.3294
30
0.0
11
184.7350
21
-176.3442
31
0.0
0
TEXT
8
TEXT-LABELS
10
225.6725
20
-235.7085
30
0.0
40
10
1
3
50
0.0
0
TEXT
8
TEXT-LABELS
10
207.6725
20
-249.7085
30
0.0
40
6
1
9,600 sf
50
0.0
0
LINE
8
LOT_LINE
10
264.7251
20
-175.0877
30
0.0
11
344.7152
21
-173.8311
31
0.0
0
LINE
8
LOT_LINE
10
344.7152
20
-173.8311
30
0.0
11
346.6001
21
-293.8163
31
0.0
0
LINE
8
LOT_LINE
10
346.6001
20
-293.8163
30
0.0
11
266.6100
21
-295.0729
31
0.0
0
LINE
8
LOT_LINE
10
266.6100
20
-295.0729
30
0.0
11
264.7251
21
-175.0877
31
0.0
0
TEXT
8
TEXT-LABELS
10
305.6626
20
-234.4520
30
0.0
40
10
1
4
50
0.0
0
TEXT
8
TEXT-LABELS
10
287.6626
20
-248.4520
30
0.0
40
6
1
9,600 sf
50
0.0
0
LINE
8
LOT_LINE
10
344.7152
20
-173.8311
30
0.0
11
424.7054
21
-172.5745
31
0.0
0
LINE
8
LOT_LINE
10
424.7054
20
-172.5745
30
0.0
11
426.5903
21
-292.5597
31
0.0
0
LINE
8
LOT_LINE
10
426.5903
20
-292.5597
30
0.0
11
346.6001
21
-293.8163
31
0.0
0
LINE
8
LOT_LINE
10
346.6001
20
-293.8163
30
0.0
11
344.7152
21
-173.8311
31
0.0
0
TEXT
8
TEXT-LABELS
10
385.6528
20
-233.1954
30
0.0
40
10
1
5
50
0.0
0
TEXT
8
TEXT-LABELS
10
367.6528
20
-247.1954
30
0.0
40
6
1
9,600 sf
50
0.0
0
LINE
8
LOT_LINE
10
424.7054
20
-172.5745
30
0.0
11
504.6955
21
-171.3179
31
0.0
0
LINE
8
LOT_LINE
10
504.6955
20
-171.3179
30
0.0
11
506.5804
21
-291.3031
31
0.0
0
LINE
8
LOT_LINE
10
506.5804
20
-291.3031
30
0.0
11
426.5903
21
-292.5597
31
0.0
0
LINE
8
LOT_LINE
10
426.5903
20
-292.5597
30
0.0
11
424.7054
21
-172.5745
31
0.0
0
TEXT
8
TEXT-LABELS
10
465.6429
20
-231.9388
30
0.0
40
10
1
6
50
0.0
0
TEXT
8
TEXT-LABELS
10
447.6429
20
-245.9388
30
0.0
40
6
1
9,600 sf
50
0.0
0
LINE
8
LOT_LINE
10
504.6955
20
-171.3179
30
0.0
11
584.6856
21
-170.0613
31
0.0
0
LINE
8
LOT_LINE
10
584.6856
20
-170.0613
30
0.0
11
586.5705
21
-290.0465
31
0.0
0
LINE
8
LOT_LINE
10
586.5705
20
-290.0465
30
0.0
11
506.5804
21
-291.3031
31
0.0
0
LINE
8
LOT_LINE
10
506.5804
20
-291.3031
30
0.0
11
504.6955
21
-171.3179
31
0.0
0
TEXT
8
TEXT-LABELS
10
545.6330
20
-230.6822
30
0.0
40
10
1
7
50
0.0
0
TEXT
8
TEXT-LABELS
10
527.6330
20
-244.6822
30
0.0
40
6
1
9,600 sf
50
0.0
0
LINE
8
LOT_LINE
10
584.6856
20
-170.0613
30
0.0
11
664.6758
21
-168.8047
31
0.0
0
LINE
8
LOT_LINE
10
664.6758
20
-168.8047
30
0.0
11
666.5606
21
-288.7899
31
0.0
0
LINE
8
LOT_LINE
10
666.5606
20
-288.7899
30
0.0
11
586.5705
21
-290.0465
31
0.0
0
LINE
8
LOT_LINE
10
586.5705
20
-290.0465
30
0.0
11
584.6856
21
-170.0613
31
0.0
0
TEXT
8
TEXT-LABELS
10
625.6231
20
-229.4256
30
0.0
40
10
1
8
50
0.0
0
TEXT
8
TEXT-LABELS
10
607.6231
20
-243.4256
30
0.0
40
6
1
9,600 sf
50
0.0
0
LINE
8
BOUNDARY
10
0.0000
20
0.0000
30
0.0
11
95.0171
21
0.7463
31
0.0
0
TEXT
8
DIM-LABELS
10
47.5085
20
5.3731
30
0.0
40
7
1
95.02'
50
0.0
0
LINE
8
BOUNDARY
10
95.0171
20
0.7463
30
0.0
11
175.0246
21
1.3747
31
0.0
0
TEXT
8
DIM-LABELS
10
135.0208
20
6.0605
30
0.0
40
7
1
80.01'
50
0.0
0
LINE
8
BOUNDARY
10
175.0246
20
1.3747
30
0.0
11
255.0321
21
2.0031
31
0.0
0
TEXT
8
DIM-LABELS
10
215.0284
20
6.6889
30
0.0
40
7
1
80.01'
50
0.0
0
LINE
8
BOUNDARY
10
255.0321
20
2.0031
30
0.0
11
335.0397
21
2.6314
31
0.0
0
TEXT
8
DIM-LABELS
10
295.0359
20
7.3173
30
0.0
40
7
1
80.01'
50
0.0
0
LINE
8
BOUNDARY
10
335.0397
20
2.6314
30
0.0
11
415.0472
21
3.2598
31
0.0
0
TEXT
8
DIM-LABELS
10
375.0434
20
7.9456
30
0.0
40
7
1
80.01'
50
0.0
0
LINE
8
BOUNDARY
10
415.0472
20
3.2598
30
0.0
11
495.0547
21
3.8882
31
0.0
0
TEXT
8
DIM-LABELS
10
455.0510
20
8.5740
30
0.0
40
7
1
80.01'
50
0.0
0
LINE
8
BOUNDARY
10
495.0547
20
3.8882
30
0.0
11
575.0623
21
4.5166
31
0.0
0
TEXT
8
DIM-LABELS
10
535.0585
20
9.2024
30
0.0
40
7
1
80.01'
50
0.0
0
LINE
8
BOUNDARY
10
575.0623
20
4.5166
30
0.0
11
655.0698
21
5.1450
31
0.0
0
TEXT
8
DIM-LABELS
10
615.0660
20
9.8308
30
0.0
40
7
1
80.01'
50
0.0
0
TEXT
8
DIM-LABELS
10
0.0000
20
22.0000
30
0.0
40
9
1
N'ly line of Lot 4, Blk 1, Ortega Farms  N89°33'00"E (1090'+/- total)
50
0.0
0
TEXT
8
DIM-LABELS
10
-4.0926
20
-59.5895
30
0.0
40
6
1
119.24'
50
0.0
0
TEXT
8
DIM-LABELS
10
90.9145
20
-58.5334
30
0.0
40
6
1
118.62'
50
0.0
0
TEXT
8
DIM-LABELS
10
170.9121
20
-57.5951
30
0.0
40
6
1
118.00'
50
0.0
0
TEXT
8
DIM-LABELS
10
250.9094
20
-56.6469
30
0.0
40
6
1
117.36'
50
0.0
0
TEXT
8
DIM-LABELS
10
330.9069
20
-55.7037
30
0.0
40
6
1
116.73'
50
0.0
0
TEXT
8
DIM-LABELS
10
410.9043
20
-54.7604
30
0.0
40
6
1
116.10'
50
0.0
0
TEXT
8
DIM-LABELS
10
490.9018
20
-53.8172
30
0.0
40
6
1
115.47'
50
0.0
0
TEXT
8
DIM-LABELS
10
570.8994
20
-52.8790
30
0.0
40
6
1
114.85'
50
0.0
0
TEXT
8
DIM-LABELS
10
650.8969
20
-51.9358
30
0.0
40
6
1
114.22'
50
0.0
0
LINE
8
ROW_STREET
10
3.8148
20
-119.1790
30
0.0
11
658.7239
21
-109.0165
31
0.0
0
LINE
8
ROW_STREET
10
4.7572
20
-179.1716
30
0.0
11
664.6758
21
-168.8047
31
0.0
0
TEXT
8
ROW_STREET
10
124.2860
20
-149.1753
30
0.0
40
11
1
CEDAR OAKS DRIVE (60' R/W)  89°06'
50
0.0
0
LINE
8
UNRESOLVED
10
655.0698
20
5.1450
30
0.0
11
985.0698
21
5.1450
31
0.0
0
TEXT
8
UNRESOLVED
10
695.0698
20
19.1450
30
0.0
40
9
1
EAST END UNRESOLVED (Lots 9-11, 'Not Included' parcel, Cedar Creek)
50
0.0
0
TEXT
8
TITLEBLOCK
10
0.0000
20
125.1450
30
0.0
40
11
1
CEDAR OAKS -- PLAT BOOK 24, PAGE 18, DUVAL COUNTY, FL (1953)
50
0.0
0
TEXT
8
TITLEBLOCK
10
0.0000
20
99.1450
30
0.0
40
8
1
Replat of Lots 4 & 5, Blk 1, Ortega Farms (PB 3 pg 79). R.L. Cropsdell & Co.
50
0.0
0
TEXT
8
TITLEBLOCK
10
0.0000
20
73.1450
30
0.0
40
8
1

50
0.0
0
TEXT
8
TITLEBLOCK
10
0.0000
20
47.1450
30
0.0
40
8
1
SOURCE: 200 DPI scan; values transcribed by visual read at 3x, NOT by OCR.
50
0.0
0
TEXT
8
TITLEBLOCK
10
0.0000
20
21.1450
30
0.0
40
8
1
PLAT NOTE: bearings/distances on curves are CHORD bearings and distances.
50
0.0
0
TEXT
8
TITLEBLOCK
10
0.0000
20
-4.8550
30
0.0
40
8
1

50
0.0
0
TEXT
8
TITLEBLOCK
10
0.0000
20
-30.8550
30
0.0
40
8
1
VALIDATION:
50
0.0
0
TEXT
8
TITLEBLOCK
10
0.0000
20
-56.8550
30
0.0
40
8
1
  Bearing convergence 27' predicts 0.628 ft depth loss per 80.01' lot;
50
0.0
0
TEXT
8
TITLEBLOCK
10
0.0000
20
-82.8550
30
0.0
40
8
1
  observed decrement 0.627 ft -> independent confirmation of both the
50
0.0
0
TEXT
8
TITLEBLOCK
10
0.0000
20
-108.8550
30
0.0
40
8
1
  bearings and the depth sequence. No progression outliers.
50
0.0
0
TEXT
8
TITLEBLOCK
10
0.0000
20
-134.8550
30
0.0
40
8
1
  North segments sum 1090.09 ft vs stated 1090'+/-.
50
0.0
0
TEXT
8
TITLEBLOCK
10
0.0000
20
-160.8550
30
0.0
40
8
1

50
0.0
0
TEXT
8
TITLEBLOCK
10
0.0000
20
-186.8550
30
0.0
40
8
1
SCOPE: Block 1 Lots 1-8 and Block 2 Lots 1-8 built and closure-checked.
50
0.0
0
TEXT
8
TITLEBLOCK
10
0.0000
20
-212.8550
30
0.0
40
8
1
East end and Park Road curve NOT built -- not legible at this resolution.
50
0.0
0
ENDSEC
0
EOF
