0
SECTION
2
HEADER
9
$ACADVER
1
AC1009
9
$DWGCODEPAGE
3
ANSI_1252
0
ENDSEC
0
SECTION
2
TABLES
0
TABLE
2
LTYPE
70
25
0
LTYPE
2
CONTINUOUS
70
0
3
Solid
72
65
73
0
40
0.0
0
LTYPE
2
DASHED
70
0
3
Dashed
72
65
73
2
40
0.75
49
0.5
74
0
49
-0.25
74
0
0
LTYPE
2
DASHED2
70
0
3
Dashed (.5x)
72
65
73
2
40
0.375
49
0.25
74
0
49
-0.125
74
0
0
LTYPE
2
HIDDEN
70
0
3
Hidden
72
65
73
2
40
0.375
49
0.25
74
0
49
-0.125
74
0
0
LTYPE
2
CENTER
70
0
3
Center
72
65
73
4
40
2.0
49
1.25
74
0
49
-0.25
74
0
49
0.25
74
0
49
-0.25
74
0
0
LTYPE
2
PHANTOM
70
0
3
Phantom
72
65
73
6
40
2.5
49
1.25
74
0
49
-0.25
74
0
49
0.25
74
0
49
-0.25
74
0
49
0.25
74
0
49
-0.25
74
0
0
LTYPE
2
ROT_11.03
70
0
3
Solid
72
65
73
0
40
0.0
0
LTYPE
2
ROT_2.24
70
0
3
Solid
72
65
73
0
40
0.0
0
LTYPE
2
ROT_2.41
70
0
3
Solid
72
65
73
0
40
0.0
0
LTYPE
2
ROT_29.70
70
0
3
Solid
72
65
73
0
40
0.0
0
LTYPE
2
ROT_293.03
70
0
3
Solid
72
65
73
0
40
0.0
0
LTYPE
2
ROT_305.03
70
0
3
Solid
72
65
73
0
40
0.0
0
LTYPE
2
ROT_316.55
70
0
3
Solid
72
65
73
0
40
0.0
0
LTYPE
2
ROT_317.41
70
0
3
Solid
72
65
73
0
40
0.0
0
LTYPE
2
ROT_330.98
70
0
3
Solid
72
65
73
0
40
0.0
0
LTYPE
2
ROT_343.55
70
0
3
Solid
72
65
73
0
40
0.0
0
LTYPE
2
ROT_356.12
70
0
3
Solid
72
65
73
0
40
0.0
0
LTYPE
2
ROT_46.55
70
0
3
Solid
72
65
73
0
40
0.0
0
LTYPE
2
ROT_47.20
70
0
3
Solid
72
65
73
0
40
0.0
0
LTYPE
2
ROT_47.41
70
0
3
Solid
72
65
73
0
40
0.0
0
LTYPE
2
ROT_70.66
70
0
3
Solid
72
65
73
0
40
0.0
0
LTYPE
2
ROT_79.39
70
0
3
Solid
72
65
73
0
40
0.0
0
LTYPE
2
ROT_9.69
70
0
3
Solid
72
65
73
0
40
0.0
0
LTYPE
2
ROT_90.70
70
0
3
Solid
72
65
73
0
40
0.0
0
LTYPE
2
ROT_92.41
70
0
3
Solid
72
65
73
0
40
0.0
0
ENDTAB
0
TABLE
2
LAYER
70
6
0
LAYER
2
0
70
0
62
7
6
CONTINUOUS
0
LAYER
2
LOT_POLYLINE
70
0
62
4
6
CONTINUOUS
0
LAYER
2
SHEET_LABELS
70
0
62
7
6
CONTINUOUS
0
LAYER
2
SHEET_FRAME
70
0
62
2
6
CONTINUOUS
0
LAYER
2
ERROR
70
0
62
1
6
CONTINUOUS
0
LAYER
2
TITLEBLOCK
70
0
62
2
6
CONTINUOUS
0
ENDTAB
0
TABLE
2
STYLE
70
4
0
STYLE
2
STANDARD
70
0
40
0.0
41
1.0
50
0.0
71
0
42
0.2
3
Arial
4

0
STYLE
2
ARIAL
70
0
40
0.0
41
1.0
50
0.0
71
0
42
0.2
3
Arial
4

0
STYLE
2
ARIAL_TTF
70
0
40
0.0
41
1.0
50
0.0
71
0
42
0.2
3
arial.ttf
4

0
STYLE
2
SIMPLEX
70
0
40
0.0
41
1.0
50
0.0
71
0
42
0.2
3
simplex.shx
4

0
ENDTAB
0
ENDSEC
0
SECTION
2
ENTITIES
0
LINE
8
SHEET_FRAME
10
0.0000
20
0.0000
30
0.0
11
300.0000
21
0.0000
31
0.0
0
LINE
8
SHEET_FRAME
10
300.0000
20
0.0000
30
0.0
11
300.0000
21
260.0000
31
0.0
0
LINE
8
SHEET_FRAME
10
300.0000
20
260.0000
30
0.0
11
0.0000
21
260.0000
31
0.0
0
LINE
8
SHEET_FRAME
10
0.0000
20
260.0000
30
0.0
11
0.0000
21
0.0000
31
0.0
0
POLYLINE
8
LOT_POLYLINE
66
1
70
1
0
VERTEX
8
LOT_POLYLINE
10
31.2809
20
26.0000
30
0.0
0
VERTEX
8
LOT_POLYLINE
10
26.0000
20
151.5623
30
0.0
0
VERTEX
8
LOT_POLYLINE
10
66.0938
20
195.1768
30
0.0
0
VERTEX
8
LOT_POLYLINE
10
180.7741
20
200.0000
30
0.0
0
VERTEX
8
LOT_POLYLINE
10
187.8153
20
32.5835
30
0.0
0
SEQEND
0
POLYLINE
8
LOT_POLYLINE
66
1
70
0
0
VERTEX
8
LOT_POLYLINE
10
26.0000
20
151.5623
30
0.0
0
VERTEX
8
LOT_POLYLINE
10
26.0290
20
155.6732
30
0.0
0
VERTEX
8
LOT_POLYLINE
10
26.4608
20
159.7615
30
0.0
0
VERTEX
8
LOT_POLYLINE
10
27.2912
20
163.7877
30
0.0
0
VERTEX
8
LOT_POLYLINE
10
28.5123
20
167.7132
30
0.0
0
VERTEX
8
LOT_POLYLINE
10
30.1123
20
171.5001
30
0.0
0
VERTEX
8
LOT_POLYLINE
10
32.0757
20
175.1119
30
0.0
0
VERTEX
8
LOT_POLYLINE
10
34.3837
20
178.5139
30
0.0
0
VERTEX
8
LOT_POLYLINE
10
37.0141
20
181.6733
30
0.0
0
VERTEX
8
LOT_POLYLINE
10
39.9414
20
184.5596
30
0.0
0
VERTEX
8
LOT_POLYLINE
10
43.1376
20
187.1451
30
0.0
0
VERTEX
8
LOT_POLYLINE
10
46.5718
20
189.4049
30
0.0
0
VERTEX
8
LOT_POLYLINE
10
50.2109
20
191.3172
30
0.0
0
VERTEX
8
LOT_POLYLINE
10
54.0200
20
192.8635
30
0.0
0
VERTEX
8
LOT_POLYLINE
10
57.9623
20
194.0291
30
0.0
0
VERTEX
8
LOT_POLYLINE
10
61.9999
20
194.8027
30
0.0
0
VERTEX
8
LOT_POLYLINE
10
66.0938
20
195.1768
30
0.0
0
SEQEND
0
TEXT
8
SHEET_LABELS
6
ROT_92.41
7
STANDARD
10
25.6431
20
88.6551
30
0.0
40
3.4
1
N02%%d24'30.00"W
50
92.41
72
1
11
25.6431
21
88.6551
31
0.0
73
1
0
TEXT
8
SHEET_LABELS
6
ROT_92.41
7
STANDARD
10
31.6378
20
88.9072
30
0.0
40
3.2
1
75.00'
50
92.41
72
1
11
31.6378
21
88.9072
31
0.0
73
3
0
POINT
8
SHEET_LABELS
10
31.2809
20
26.0000
30
0.0
0
TEXT
8
SHEET_LABELS
6
ROT_47.41
7
STANDARD
10
43.8383
20
175.3999
30
0.0
40
3.4
1
N42%%d35'30.00"E
50
47.41
72
1
11
43.8383
21
175.3999
31
0.0
73
1
0
TEXT
8
SHEET_LABELS
6
ROT_47.41
7
STANDARD
10
48.2555
20
171.3392
30
0.0
40
3.2
1
35.36'
50
47.41
72
1
11
48.2555
21
171.3392
31
0.0
73
3
0
POINT
8
SHEET_LABELS
10
26.0000
20
151.5623
30
0.0
0
TEXT
8
SHEET_LABELS
6
ROT_2.41
7
STANDARD
10
123.3079
20
200.5857
30
0.0
40
3.4
1
N87%%d35'30.00"E
50
2.41
72
1
11
123.3079
21
200.5857
31
0.0
73
1
0
TEXT
8
SHEET_LABELS
6
ROT_2.41
7
STANDARD
10
123.5600
20
194.5910
30
0.0
40
3.2
1
68.50'
50
2.41
72
1
11
123.5600
21
194.5910
31
0.0
73
3
0
POINT
8
SHEET_LABELS
10
66.0938
20
195.1768
30
0.0
0
TEXT
8
SHEET_LABELS
6
ROT_92.41
7
STANDARD
10
181.2973
20
116.1657
30
0.0
40
3.4
1
S02%%d24'30.00"E
50
92.41
72
1
11
181.2973
21
116.1657
31
0.0
73
1
0
TEXT
8
SHEET_LABELS
6
ROT_92.41
7
STANDARD
10
187.2920
20
116.4178
30
0.0
40
3.2
1
100.00'
50
92.41
72
1
11
187.2920
21
116.4178
31
0.0
73
3
0
POINT
8
SHEET_LABELS
10
180.7741
20
200.0000
30
0.0
0
TEXT
8
SHEET_LABELS
6
ROT_2.41
7
STANDARD
10
109.4220
20
32.2891
30
0.0
40
3.4
1
S87%%d35'30.00"W
50
2.41
72
1
11
109.4220
21
32.2891
31
0.0
73
1
0
TEXT
8
SHEET_LABELS
6
ROT_2.41
7
STANDARD
10
109.6742
20
26.2944
30
0.0
40
3.2
1
93.50'
50
2.41
72
1
11
109.6742
21
26.2944
31
0.0
73
3
0
POINT
8
SHEET_LABELS
10
187.8153
20
32.5835
30
0.0
0
TEXT
8
SHEET_LABELS
7
STANDARD
10
8.0000
20
250.0000
30
0.0
40
8.0
1
LOT Blk 16 - Lot 1   PASS
50
0.0
0
TEXT
8
SHEET_LABELS
7
STANDARD
10
8.0000
20
239.0000
30
0.0
40
4.6
1
AREA 9,216 SF (0.212 ac)
50
0.0
0
TEXT
8
SHEET_LABELS
7
STANDARD
10
8.0000
20
232.0000
30
0.0
40
4.0
1
PERIMETER 376.27'   VERTICES 5   CLOSING SIDE 0.00'
50
0.0
0
TEXT
8
SHEET_LABELS
7
STANDARD
10
8.0000
20
225.0000
30
0.0
40
3.4
1
all geometric checks passed: closed single polyline, no self-intersection, no overlap, no spikes
50
0.0
0
LINE
8
SHEET_FRAME
10
340.0000
20
0.0000
30
0.0
11
640.0000
21
0.0000
31
0.0
0
LINE
8
SHEET_FRAME
10
640.0000
20
0.0000
30
0.0
11
640.0000
21
260.0000
31
0.0
0
LINE
8
SHEET_FRAME
10
640.0000
20
260.0000
30
0.0
11
340.0000
21
260.0000
31
0.0
0
LINE
8
SHEET_FRAME
10
340.0000
20
260.0000
30
0.0
11
340.0000
21
0.0000
31
0.0
0
POLYLINE
8
LOT_POLYLINE
66
1
70
1
0
VERTEX
8
LOT_POLYLINE
10
373.0943
20
26.0000
30
0.0
0
VERTEX
8
LOT_POLYLINE
10
366.0000
20
194.6793
30
0.0
0
VERTEX
8
LOT_POLYLINE
10
492.5094
20
200.0000
30
0.0
0
VERTEX
8
LOT_POLYLINE
10
499.6038
20
31.3207
30
0.0
0
SEQEND
0
TEXT
8
SHEET_LABELS
6
ROT_92.41
7
STANDARD
10
366.5498
20
110.2136
30
0.0
40
3.4
1
N02%%d24'30.00"W
50
92.41
72
1
11
366.5498
21
110.2136
31
0.0
73
1
0
TEXT
8
SHEET_LABELS
6
ROT_92.41
7
STANDARD
10
372.5445
20
110.4657
30
0.0
40
3.2
1
100.00'
50
92.41
72
1
11
372.5445
21
110.4657
31
0.0
73
3
0
POINT
8
SHEET_LABELS
10
373.0943
20
26.0000
30
0.0
0
TEXT
8
SHEET_LABELS
6
ROT_2.41
7
STANDARD
10
429.1287
20
200.3370
30
0.0
40
3.4
1
N87%%d35'30.00"E
50
2.41
72
1
11
429.1287
21
200.3370
31
0.0
73
1
0
TEXT
8
SHEET_LABELS
6
ROT_2.41
7
STANDARD
10
429.3808
20
194.3423
30
0.0
40
3.2
1
75.00'
50
2.41
72
1
11
429.3808
21
194.3423
31
0.0
73
3
0
POINT
8
SHEET_LABELS
10
366.0000
20
194.6793
30
0.0
0
TEXT
8
SHEET_LABELS
6
ROT_92.41
7
STANDARD
10
493.0593
20
115.5343
30
0.0
40
3.4
1
S02%%d24'30.00"E
50
92.41
72
1
11
493.0593
21
115.5343
31
0.0
73
1
0
TEXT
8
SHEET_LABELS
6
ROT_92.41
7
STANDARD
10
499.0540
20
115.7864
30
0.0
40
3.2
1
100.00'
50
92.41
72
1
11
499.0540
21
115.7864
31
0.0
73
3
0
POINT
8
SHEET_LABELS
10
492.5094
20
200.0000
30
0.0
0
TEXT
8
SHEET_LABELS
6
ROT_2.41
7
STANDARD
10
436.2230
20
31.6577
30
0.0
40
3.4
1
S87%%d35'30.00"W
50
2.41
72
1
11
436.2230
21
31.6577
31
0.0
73
1
0
TEXT
8
SHEET_LABELS
6
ROT_2.41
7
STANDARD
10
436.4751
20
25.6630
30
0.0
40
3.2
1
75.00'
50
2.41
72
1
11
436.4751
21
25.6630
31
0.0
73
3
0
POINT
8
SHEET_LABELS
10
499.6038
20
31.3207
30
0.0
0
TEXT
8
SHEET_LABELS
7
STANDARD
10
348.0000
20
250.0000
30
0.0
40
8.0
1
LOT Blk 16 - Lot 2   PASS
50
0.0
0
TEXT
8
SHEET_LABELS
7
STANDARD
10
348.0000
20
239.0000
30
0.0
40
4.6
1
AREA 7,500 SF (0.172 ac)
50
0.0
0
TEXT
8
SHEET_LABELS
7
STANDARD
10
348.0000
20
232.0000
30
0.0
40
4.0
1
PERIMETER 350.00'   VERTICES 4   CLOSING SIDE 0.00'
50
0.0
0
TEXT
8
SHEET_LABELS
7
STANDARD
10
348.0000
20
225.0000
30
0.0
40
3.4
1
all geometric checks passed: closed single polyline, no self-intersection, no overlap, no spikes
50
0.0
0
LINE
8
SHEET_FRAME
10
680.0000
20
0.0000
30
0.0
11
980.0000
21
0.0000
31
0.0
0
LINE
8
SHEET_FRAME
10
980.0000
20
0.0000
30
0.0
11
980.0000
21
260.0000
31
0.0
0
LINE
8
SHEET_FRAME
10
980.0000
20
260.0000
30
0.0
11
680.0000
21
260.0000
31
0.0
0
LINE
8
SHEET_FRAME
10
680.0000
20
260.0000
30
0.0
11
680.0000
21
0.0000
31
0.0
0
POLYLINE
8
LOT_POLYLINE
66
1
70
1
0
VERTEX
8
LOT_POLYLINE
10
713.0943
20
26.0000
30
0.0
0
VERTEX
8
LOT_POLYLINE
10
706.0000
20
194.6793
30
0.0
0
VERTEX
8
LOT_POLYLINE
10
832.5094
20
200.0000
30
0.0
0
VERTEX
8
LOT_POLYLINE
10
839.6038
20
31.3207
30
0.0
0
SEQEND
0
TEXT
8
SHEET_LABELS
6
ROT_92.41
7
STANDARD
10
706.5498
20
110.2136
30
0.0
40
3.4
1
N02%%d24'30.00"W
50
92.41
72
1
11
706.5498
21
110.2136
31
0.0
73
1
0
TEXT
8
SHEET_LABELS
6
ROT_92.41
7
STANDARD
10
712.5445
20
110.4657
30
0.0
40
3.2
1
100.00'
50
92.41
72
1
11
712.5445
21
110.4657
31
0.0
73
3
0
POINT
8
SHEET_LABELS
10
713.0943
20
26.0000
30
0.0
0
TEXT
8
SHEET_LABELS
6
ROT_2.41
7
STANDARD
10
769.1287
20
200.3370
30
0.0
40
3.4
1
N87%%d35'30.00"E
50
2.41
72
1
11
769.1287
21
200.3370
31
0.0
73
1
0
TEXT
8
SHEET_LABELS
6
ROT_2.41
7
STANDARD
10
769.3808
20
194.3423
30
0.0
40
3.2
1
75.00'
50
2.41
72
1
11
769.3808
21
194.3423
31
0.0
73
3
0
POINT
8
SHEET_LABELS
10
706.0000
20
194.6793
30
0.0
0
TEXT
8
SHEET_LABELS
6
ROT_92.41
7
STANDARD
10
833.0593
20
115.5343
30
0.0
40
3.4
1
S02%%d24'30.00"E
50
92.41
72
1
11
833.0593
21
115.5343
31
0.0
73
1
0
TEXT
8
SHEET_LABELS
6
ROT_92.41
7
STANDARD
10
839.0540
20
115.7864
30
0.0
40
3.2
1
100.00'
50
92.41
72
1
11
839.0540
21
115.7864
31
0.0
73
3
0
POINT
8
SHEET_LABELS
10
832.5094
20
200.0000
30
0.0
0
TEXT
8
SHEET_LABELS
6
ROT_2.41
7
STANDARD
10
776.2230
20
31.6577
30
0.0
40
3.4
1
S87%%d35'30.00"W
50
2.41
72
1
11
776.2230
21
31.6577
31
0.0
73
1
0
TEXT
8
SHEET_LABELS
6
ROT_2.41
7
STANDARD
10
776.4751
20
25.6630
30
0.0
40
3.2
1
75.00'
50
2.41
72
1
11
776.4751
21
25.6630
31
0.0
73
3
0
POINT
8
SHEET_LABELS
10
839.6038
20
31.3207
30
0.0
0
TEXT
8
SHEET_LABELS
7
STANDARD
10
688.0000
20
250.0000
30
0.0
40
8.0
1
LOT Blk 16 - Lot 3   PASS
50
0.0
0
TEXT
8
SHEET_LABELS
7
STANDARD
10
688.0000
20
239.0000
30
0.0
40
4.6
1
AREA 7,500 SF (0.172 ac)
50
0.0
0
TEXT
8
SHEET_LABELS
7
STANDARD
10
688.0000
20
232.0000
30
0.0
40
4.0
1
PERIMETER 350.00'   VERTICES 4   CLOSING SIDE 0.00'
50
0.0
0
TEXT
8
SHEET_LABELS
7
STANDARD
10
688.0000
20
225.0000
30
0.0
40
3.4
1
all geometric checks passed: closed single polyline, no self-intersection, no overlap, no spikes
50
0.0
0
LINE
8
SHEET_FRAME
10
1020.0000
20
0.0000
30
0.0
11
1320.0000
21
0.0000
31
0.0
0
LINE
8
SHEET_FRAME
10
1320.0000
20
0.0000
30
0.0
11
1320.0000
21
260.0000
31
0.0
0
LINE
8
SHEET_FRAME
10
1320.0000
20
260.0000
30
0.0
11
1020.0000
21
260.0000
31
0.0
0
LINE
8
SHEET_FRAME
10
1020.0000
20
260.0000
30
0.0
11
1020.0000
21
0.0000
31
0.0
0
POLYLINE
8
LOT_POLYLINE
66
1
70
1
0
VERTEX
8
LOT_POLYLINE
10
1053.0943
20
26.0000
30
0.0
0
VERTEX
8
LOT_POLYLINE
10
1046.0000
20
194.6793
30
0.0
0
VERTEX
8
LOT_POLYLINE
10
1172.5094
20
200.0000
30
0.0
0
VERTEX
8
LOT_POLYLINE
10
1179.6038
20
31.3207
30
0.0
0
SEQEND
0
TEXT
8
SHEET_LABELS
6
ROT_92.41
7
STANDARD
10
1046.5498
20
110.2136
30
0.0
40
3.4
1
N02%%d24'30.00"W
50
92.41
72
1
11
1046.5498
21
110.2136
31
0.0
73
1
0
TEXT
8
SHEET_LABELS
6
ROT_92.41
7
STANDARD
10
1052.5445
20
110.4657
30
0.0
40
3.2
1
100.00'
50
92.41
72
1
11
1052.5445
21
110.4657
31
0.0
73
3
0
POINT
8
SHEET_LABELS
10
1053.0943
20
26.0000
30
0.0
0
TEXT
8
SHEET_LABELS
6
ROT_2.41
7
STANDARD
10
1109.1287
20
200.3370
30
0.0
40
3.4
1
N87%%d35'30.00"E
50
2.41
72
1
11
1109.1287
21
200.3370
31
0.0
73
1
0
TEXT
8
SHEET_LABELS
6
ROT_2.41
7
STANDARD
10
1109.3808
20
194.3423
30
0.0
40
3.2
1
75.00'
50
2.41
72
1
11
1109.3808
21
194.3423
31
0.0
73
3
0
POINT
8
SHEET_LABELS
10
1046.0000
20
194.6793
30
0.0
0
TEXT
8
SHEET_LABELS
6
ROT_92.41
7
STANDARD
10
1173.0593
20
115.5343
30
0.0
40
3.4
1
S02%%d24'30.00"E
50
92.41
72
1
11
1173.0593
21
115.5343
31
0.0
73
1
0
TEXT
8
SHEET_LABELS
6
ROT_92.41
7
STANDARD
10
1179.0540
20
115.7864
30
0.0
40
3.2
1
100.00'
50
92.41
72
1
11
1179.0540
21
115.7864
31
0.0
73
3
0
POINT
8
SHEET_LABELS
10
1172.5094
20
200.0000
30
0.0
0
TEXT
8
SHEET_LABELS
6
ROT_2.41
7
STANDARD
10
1116.2230
20
31.6577
30
0.0
40
3.4
1
S87%%d35'30.00"W
50
2.41
72
1
11
1116.2230
21
31.6577
31
0.0
73
1
0
TEXT
8
SHEET_LABELS
6
ROT_2.41
7
STANDARD
10
1116.4751
20
25.6630
30
0.0
40
3.2
1
75.00'
50
2.41
72
1
11
1116.4751
21
25.6630
31
0.0
73
3
0
POINT
8
SHEET_LABELS
10
1179.6038
20
31.3207
30
0.0
0
TEXT
8
SHEET_LABELS
7
STANDARD
10
1028.0000
20
250.0000
30
0.0
40
8.0
1
LOT Blk 16 - Lot 4   PASS
50
0.0
0
TEXT
8
SHEET_LABELS
7
STANDARD
10
1028.0000
20
239.0000
30
0.0
40
4.6
1
AREA 7,500 SF (0.172 ac)
50
0.0
0
TEXT
8
SHEET_LABELS
7
STANDARD
10
1028.0000
20
232.0000
30
0.0
40
4.0
1
PERIMETER 350.00'   VERTICES 4   CLOSING SIDE 0.00'
50
0.0
0
TEXT
8
SHEET_LABELS
7
STANDARD
10
1028.0000
20
225.0000
30
0.0
40
3.4
1
all geometric checks passed: closed single polyline, no self-intersection, no overlap, no spikes
50
0.0
0
LINE
8
SHEET_FRAME
10
0.0000
20
-300.0000
30
0.0
11
300.0000
21
-300.0000
31
0.0
0
LINE
8
SHEET_FRAME
10
300.0000
20
-300.0000
30
0.0
11
300.0000
21
-40.0000
31
0.0
0
LINE
8
SHEET_FRAME
10
300.0000
20
-40.0000
30
0.0
11
0.0000
21
-40.0000
31
0.0
0
LINE
8
SHEET_FRAME
10
0.0000
20
-40.0000
30
0.0
11
0.0000
21
-300.0000
31
0.0
0
POLYLINE
8
LOT_POLYLINE
66
1
70
1
0
VERTEX
8
LOT_POLYLINE
10
33.0943
20
-274.0000
30
0.0
0
VERTEX
8
LOT_POLYLINE
10
26.0000
20
-105.3207
30
0.0
0
VERTEX
8
LOT_POLYLINE
10
152.5094
20
-100.0000
30
0.0
0
VERTEX
8
LOT_POLYLINE
10
159.6038
20
-268.6793
30
0.0
0
SEQEND
0
TEXT
8
SHEET_LABELS
6
ROT_92.41
7
STANDARD
10
26.5498
20
-189.7864
30
0.0
40
3.4
1
N02%%d24'30.00"W
50
92.41
72
1
11
26.5498
21
-189.7864
31
0.0
73
1
0
TEXT
8
SHEET_LABELS
6
ROT_92.41
7
STANDARD
10
32.5445
20
-189.5343
30
0.0
40
3.2
1
100.00'
50
92.41
72
1
11
32.5445
21
-189.5343
31
0.0
73
3
0
POINT
8
SHEET_LABELS
10
33.0943
20
-274.0000
30
0.0
0
TEXT
8
SHEET_LABELS
6
ROT_2.41
7
STANDARD
10
89.1287
20
-99.6630
30
0.0
40
3.4
1
N87%%d35'30.00"E
50
2.41
72
1
11
89.1287
21
-99.6630
31
0.0
73
1
0
TEXT
8
SHEET_LABELS
6
ROT_2.41
7
STANDARD
10
89.3808
20
-105.6577
30
0.0
40
3.2
1
75.00'
50
2.41
72
1
11
89.3808
21
-105.6577
31
0.0
73
3
0
POINT
8
SHEET_LABELS
10
26.0000
20
-105.3207
30
0.0
0
TEXT
8
SHEET_LABELS
6
ROT_92.41
7
STANDARD
10
153.0593
20
-184.4657
30
0.0
40
3.4
1
S02%%d24'30.00"E
50
92.41
72
1
11
153.0593
21
-184.4657
31
0.0
73
1
0
TEXT
8
SHEET_LABELS
6
ROT_92.41
7
STANDARD
10
159.0540
20
-184.2136
30
0.0
40
3.2
1
100.00'
50
92.41
72
1
11
159.0540
21
-184.2136
31
0.0
73
3
0
POINT
8
SHEET_LABELS
10
152.5094
20
-100.0000
30
0.0
0
TEXT
8
SHEET_LABELS
6
ROT_2.41
7
STANDARD
10
96.2230
20
-268.3423
30
0.0
40
3.4
1
S87%%d35'30.00"W
50
2.41
72
1
11
96.2230
21
-268.3423
31
0.0
73
1
0
TEXT
8
SHEET_LABELS
6
ROT_2.41
7
STANDARD
10
96.4751
20
-274.3370
30
0.0
40
3.2
1
75.00'
50
2.41
72
1
11
96.4751
21
-274.3370
31
0.0
73
3
0
POINT
8
SHEET_LABELS
10
159.6038
20
-268.6793
30
0.0
0
TEXT
8
SHEET_LABELS
7
STANDARD
10
8.0000
20
-50.0000
30
0.0
40
8.0
1
LOT Blk 16 - Lot 5   PASS
50
0.0
0
TEXT
8
SHEET_LABELS
7
STANDARD
10
8.0000
20
-61.0000
30
0.0
40
4.6
1
AREA 7,500 SF (0.172 ac)
50
0.0
0
TEXT
8
SHEET_LABELS
7
STANDARD
10
8.0000
20
-68.0000
30
0.0
40
4.0
1
PERIMETER 350.00'   VERTICES 4   CLOSING SIDE 0.00'
50
0.0
0
TEXT
8
SHEET_LABELS
7
STANDARD
10
8.0000
20
-75.0000
30
0.0
40
3.4
1
all geometric checks passed: closed single polyline, no self-intersection, no overlap, no spikes
50
0.0
0
LINE
8
SHEET_FRAME
10
340.0000
20
-300.0000
30
0.0
11
640.0000
21
-300.0000
31
0.0
0
LINE
8
SHEET_FRAME
10
640.0000
20
-300.0000
30
0.0
11
640.0000
21
-40.0000
31
0.0
0
LINE
8
SHEET_FRAME
10
640.0000
20
-40.0000
30
0.0
11
340.0000
21
-40.0000
31
0.0
0
LINE
8
SHEET_FRAME
10
340.0000
20
-40.0000
30
0.0
11
340.0000
21
-300.0000
31
0.0
0
POLYLINE
8
LOT_POLYLINE
66
1
70
1
0
VERTEX
8
LOT_POLYLINE
10
373.0943
20
-274.0000
30
0.0
0
VERTEX
8
LOT_POLYLINE
10
366.0000
20
-105.3207
30
0.0
0
VERTEX
8
LOT_POLYLINE
10
492.5094
20
-100.0000
30
0.0
0
VERTEX
8
LOT_POLYLINE
10
499.6038
20
-268.6793
30
0.0
0
SEQEND
0
TEXT
8
SHEET_LABELS
6
ROT_92.41
7
STANDARD
10
366.5498
20
-189.7864
30
0.0
40
3.4
1
N02%%d24'30.00"W
50
92.41
72
1
11
366.5498
21
-189.7864
31
0.0
73
1
0
TEXT
8
SHEET_LABELS
6
ROT_92.41
7
STANDARD
10
372.5445
20
-189.5343
30
0.0
40
3.2
1
100.00'
50
92.41
72
1
11
372.5445
21
-189.5343
31
0.0
73
3
0
POINT
8
SHEET_LABELS
10
373.0943
20
-274.0000
30
0.0
0
TEXT
8
SHEET_LABELS
6
ROT_2.41
7
STANDARD
10
429.1287
20
-99.6630
30
0.0
40
3.4
1
N87%%d35'30.00"E
50
2.41
72
1
11
429.1287
21
-99.6630
31
0.0
73
1
0
TEXT
8
SHEET_LABELS
6
ROT_2.41
7
STANDARD
10
429.3808
20
-105.6577
30
0.0
40
3.2
1
75.00'
50
2.41
72
1
11
429.3808
21
-105.6577
31
0.0
73
3
0
POINT
8
SHEET_LABELS
10
366.0000
20
-105.3207
30
0.0
0
TEXT
8
SHEET_LABELS
6
ROT_92.41
7
STANDARD
10
493.0593
20
-184.4657
30
0.0
40
3.4
1
S02%%d24'30.00"E
50
92.41
72
1
11
493.0593
21
-184.4657
31
0.0
73
1
0
TEXT
8
SHEET_LABELS
6
ROT_92.41
7
STANDARD
10
499.0540
20
-184.2136
30
0.0
40
3.2
1
100.00'
50
92.41
72
1
11
499.0540
21
-184.2136
31
0.0
73
3
0
POINT
8
SHEET_LABELS
10
492.5094
20
-100.0000
30
0.0
0
TEXT
8
SHEET_LABELS
6
ROT_2.41
7
STANDARD
10
436.2230
20
-268.3423
30
0.0
40
3.4
1
S87%%d35'30.00"W
50
2.41
72
1
11
436.2230
21
-268.3423
31
0.0
73
1
0
TEXT
8
SHEET_LABELS
6
ROT_2.41
7
STANDARD
10
436.4751
20
-274.3370
30
0.0
40
3.2
1
75.00'
50
2.41
72
1
11
436.4751
21
-274.3370
31
0.0
73
3
0
POINT
8
SHEET_LABELS
10
499.6038
20
-268.6793
30
0.0
0
TEXT
8
SHEET_LABELS
7
STANDARD
10
348.0000
20
-50.0000
30
0.0
40
8.0
1
LOT Blk 16 - Lot 6   PASS
50
0.0
0
TEXT
8
SHEET_LABELS
7
STANDARD
10
348.0000
20
-61.0000
30
0.0
40
4.6
1
AREA 7,500 SF (0.172 ac)
50
0.0
0
TEXT
8
SHEET_LABELS
7
STANDARD
10
348.0000
20
-68.0000
30
0.0
40
4.0
1
PERIMETER 350.00'   VERTICES 4   CLOSING SIDE 0.00'
50
0.0
0
TEXT
8
SHEET_LABELS
7
STANDARD
10
348.0000
20
-75.0000
30
0.0
40
3.4
1
all geometric checks passed: closed single polyline, no self-intersection, no overlap, no spikes
50
0.0
0
LINE
8
SHEET_FRAME
10
680.0000
20
-300.0000
30
0.0
11
980.0000
21
-300.0000
31
0.0
0
LINE
8
SHEET_FRAME
10
980.0000
20
-300.0000
30
0.0
11
980.0000
21
-40.0000
31
0.0
0
LINE
8
SHEET_FRAME
10
980.0000
20
-40.0000
30
0.0
11
680.0000
21
-40.0000
31
0.0
0
LINE
8
SHEET_FRAME
10
680.0000
20
-40.0000
30
0.0
11
680.0000
21
-300.0000
31
0.0
0
POLYLINE
8
LOT_POLYLINE
66
1
70
1
0
VERTEX
8
LOT_POLYLINE
10
713.0943
20
-274.0000
30
0.0
0
VERTEX
8
LOT_POLYLINE
10
706.0000
20
-105.3207
30
0.0
0
VERTEX
8
LOT_POLYLINE
10
832.5094
20
-100.0000
30
0.0
0
VERTEX
8
LOT_POLYLINE
10
839.6038
20
-268.6793
30
0.0
0
SEQEND
0
TEXT
8
SHEET_LABELS
6
ROT_92.41
7
STANDARD
10
706.5498
20
-189.7864
30
0.0
40
3.4
1
N02%%d24'30.00"W
50
92.41
72
1
11
706.5498
21
-189.7864
31
0.0
73
1
0
TEXT
8
SHEET_LABELS
6
ROT_92.41
7
STANDARD
10
712.5445
20
-189.5343
30
0.0
40
3.2
1
100.00'
50
92.41
72
1
11
712.5445
21
-189.5343
31
0.0
73
3
0
POINT
8
SHEET_LABELS
10
713.0943
20
-274.0000
30
0.0
0
TEXT
8
SHEET_LABELS
6
ROT_2.41
7
STANDARD
10
769.1287
20
-99.6630
30
0.0
40
3.4
1
N87%%d35'30.00"E
50
2.41
72
1
11
769.1287
21
-99.6630
31
0.0
73
1
0
TEXT
8
SHEET_LABELS
6
ROT_2.41
7
STANDARD
10
769.3808
20
-105.6577
30
0.0
40
3.2
1
75.00'
50
2.41
72
1
11
769.3808
21
-105.6577
31
0.0
73
3
0
POINT
8
SHEET_LABELS
10
706.0000
20
-105.3207
30
0.0
0
TEXT
8
SHEET_LABELS
6
ROT_92.41
7
STANDARD
10
833.0593
20
-184.4657
30
0.0
40
3.4
1
S02%%d24'30.00"E
50
92.41
72
1
11
833.0593
21
-184.4657
31
0.0
73
1
0
TEXT
8
SHEET_LABELS
6
ROT_92.41
7
STANDARD
10
839.0540
20
-184.2136
30
0.0
40
3.2
1
100.00'
50
92.41
72
1
11
839.0540
21
-184.2136
31
0.0
73
3
0
POINT
8
SHEET_LABELS
10
832.5094
20
-100.0000
30
0.0
0
TEXT
8
SHEET_LABELS
6
ROT_2.41
7
STANDARD
10
776.2230
20
-268.3423
30
0.0
40
3.4
1
S87%%d35'30.00"W
50
2.41
72
1
11
776.2230
21
-268.3423
31
0.0
73
1
0
TEXT
8
SHEET_LABELS
6
ROT_2.41
7
STANDARD
10
776.4751
20
-274.3370
30
0.0
40
3.2
1
75.00'
50
2.41
72
1
11
776.4751
21
-274.3370
31
0.0
73
3
0
POINT
8
SHEET_LABELS
10
839.6038
20
-268.6793
30
0.0
0
TEXT
8
SHEET_LABELS
7
STANDARD
10
688.0000
20
-50.0000
30
0.0
40
8.0
1
LOT Blk 16 - Lot 7   PASS
50
0.0
0
TEXT
8
SHEET_LABELS
7
STANDARD
10
688.0000
20
-61.0000
30
0.0
40
4.6
1
AREA 7,500 SF (0.172 ac)
50
0.0
0
TEXT
8
SHEET_LABELS
7
STANDARD
10
688.0000
20
-68.0000
30
0.0
40
4.0
1
PERIMETER 350.00'   VERTICES 4   CLOSING SIDE 0.00'
50
0.0
0
TEXT
8
SHEET_LABELS
7
STANDARD
10
688.0000
20
-75.0000
30
0.0
40
3.4
1
all geometric checks passed: closed single polyline, no self-intersection, no overlap, no spikes
50
0.0
0
LINE
8
SHEET_FRAME
10
1020.0000
20
-300.0000
30
0.0
11
1320.0000
21
-300.0000
31
0.0
0
LINE
8
SHEET_FRAME
10
1320.0000
20
-300.0000
30
0.0
11
1320.0000
21
-40.0000
31
0.0
0
LINE
8
SHEET_FRAME
10
1320.0000
20
-40.0000
30
0.0
11
1020.0000
21
-40.0000
31
0.0
0
LINE
8
SHEET_FRAME
10
1020.0000
20
-40.0000
30
0.0
11
1020.0000
21
-300.0000
31
0.0
0
POLYLINE
8
LOT_POLYLINE
66
1
70
1
0
VERTEX
8
LOT_POLYLINE
10
1053.0943
20
-274.0000
30
0.0
0
VERTEX
8
LOT_POLYLINE
10
1046.0000
20
-105.3207
30
0.0
0
VERTEX
8
LOT_POLYLINE
10
1172.5094
20
-100.0000
30
0.0
0
VERTEX
8
LOT_POLYLINE
10
1179.6038
20
-268.6793
30
0.0
0
SEQEND
0
TEXT
8
SHEET_LABELS
6
ROT_92.41
7
STANDARD
10
1046.5498
20
-189.7864
30
0.0
40
3.4
1
N02%%d24'30.00"W
50
92.41
72
1
11
1046.5498
21
-189.7864
31
0.0
73
1
0
TEXT
8
SHEET_LABELS
6
ROT_92.41
7
STANDARD
10
1052.5445
20
-189.5343
30
0.0
40
3.2
1
100.00'
50
92.41
72
1
11
1052.5445
21
-189.5343
31
0.0
73
3
0
POINT
8
SHEET_LABELS
10
1053.0943
20
-274.0000
30
0.0
0
TEXT
8
SHEET_LABELS
6
ROT_2.41
7
STANDARD
10
1109.1287
20
-99.6630
30
0.0
40
3.4
1
N87%%d35'30.00"E
50
2.41
72
1
11
1109.1287
21
-99.6630
31
0.0
73
1
0
TEXT
8
SHEET_LABELS
6
ROT_2.41
7
STANDARD
10
1109.3808
20
-105.6577
30
0.0
40
3.2
1
75.00'
50
2.41
72
1
11
1109.3808
21
-105.6577
31
0.0
73
3
0
POINT
8
SHEET_LABELS
10
1046.0000
20
-105.3207
30
0.0
0
TEXT
8
SHEET_LABELS
6
ROT_92.41
7
STANDARD
10
1173.0593
20
-184.4657
30
0.0
40
3.4
1
S02%%d24'30.00"E
50
92.41
72
1
11
1173.0593
21
-184.4657
31
0.0
73
1
0
TEXT
8
SHEET_LABELS
6
ROT_92.41
7
STANDARD
10
1179.0540
20
-184.2136
30
0.0
40
3.2
1
100.00'
50
92.41
72
1
11
1179.0540
21
-184.2136
31
0.0
73
3
0
POINT
8
SHEET_LABELS
10
1172.5094
20
-100.0000
30
0.0
0
TEXT
8
SHEET_LABELS
6
ROT_2.41
7
STANDARD
10
1116.2230
20
-268.3423
30
0.0
40
3.4
1
S87%%d35'30.00"W
50
2.41
72
1
11
1116.2230
21
-268.3423
31
0.0
73
1
0
TEXT
8
SHEET_LABELS
6
ROT_2.41
7
STANDARD
10
1116.4751
20
-274.3370
30
0.0
40
3.2
1
75.00'
50
2.41
72
1
11
1116.4751
21
-274.3370
31
0.0
73
3
0
POINT
8
SHEET_LABELS
10
1179.6038
20
-268.6793
30
0.0
0
TEXT
8
SHEET_LABELS
7
STANDARD
10
1028.0000
20
-50.0000
30
0.0
40
8.0
1
LOT Blk 16 - Lot 8   PASS
50
0.0
0
TEXT
8
SHEET_LABELS
7
STANDARD
10
1028.0000
20
-61.0000
30
0.0
40
4.6
1
AREA 7,500 SF (0.172 ac)
50
0.0
0
TEXT
8
SHEET_LABELS
7
STANDARD
10
1028.0000
20
-68.0000
30
0.0
40
4.0
1
PERIMETER 350.00'   VERTICES 4   CLOSING SIDE 0.00'
50
0.0
0
TEXT
8
SHEET_LABELS
7
STANDARD
10
1028.0000
20
-75.0000
30
0.0
40
3.4
1
all geometric checks passed: closed single polyline, no self-intersection, no overlap, no spikes
50
0.0
0
LINE
8
SHEET_FRAME
10
0.0000
20
-600.0000
30
0.0
11
300.0000
21
-600.0000
31
0.0
0
LINE
8
SHEET_FRAME
10
300.0000
20
-600.0000
30
0.0
11
300.0000
21
-340.0000
31
0.0
0
LINE
8
SHEET_FRAME
10
300.0000
20
-340.0000
30
0.0
11
0.0000
21
-340.0000
31
0.0
0
LINE
8
SHEET_FRAME
10
0.0000
20
-340.0000
30
0.0
11
0.0000
21
-600.0000
31
0.0
0
POLYLINE
8
LOT_POLYLINE
66
1
70
1
0
VERTEX
8
LOT_POLYLINE
10
33.0943
20
-574.0000
30
0.0
0
VERTEX
8
LOT_POLYLINE
10
26.0000
20
-405.3207
30
0.0
0
VERTEX
8
LOT_POLYLINE
10
152.5094
20
-400.0000
30
0.0
0
VERTEX
8
LOT_POLYLINE
10
159.6038
20
-568.6793
30
0.0
0
SEQEND
0
TEXT
8
SHEET_LABELS
6
ROT_92.41
7
STANDARD
10
26.5498
20
-489.7864
30
0.0
40
3.4
1
N02%%d24'30.00"W
50
92.41
72
1
11
26.5498
21
-489.7864
31
0.0
73
1
0
TEXT
8
SHEET_LABELS
6
ROT_92.41
7
STANDARD
10
32.5445
20
-489.5343
30
0.0
40
3.2
1
100.00'
50
92.41
72
1
11
32.5445
21
-489.5343
31
0.0
73
3
0
POINT
8
SHEET_LABELS
10
33.0943
20
-574.0000
30
0.0
0
TEXT
8
SHEET_LABELS
6
ROT_2.41
7
STANDARD
10
89.1287
20
-399.6630
30
0.0
40
3.4
1
N87%%d35'30.00"E
50
2.41
72
1
11
89.1287
21
-399.6630
31
0.0
73
1
0
TEXT
8
SHEET_LABELS
6
ROT_2.41
7
STANDARD
10
89.3808
20
-405.6577
30
0.0
40
3.2
1
75.00'
50
2.41
72
1
11
89.3808
21
-405.6577
31
0.0
73
3
0
POINT
8
SHEET_LABELS
10
26.0000
20
-405.3207
30
0.0
0
TEXT
8
SHEET_LABELS
6
ROT_92.41
7
STANDARD
10
153.0593
20
-484.4657
30
0.0
40
3.4
1
S02%%d24'30.00"E
50
92.41
72
1
11
153.0593
21
-484.4657
31
0.0
73
1
0
TEXT
8
SHEET_LABELS
6
ROT_92.41
7
STANDARD
10
159.0540
20
-484.2136
30
0.0
40
3.2
1
100.00'
50
92.41
72
1
11
159.0540
21
-484.2136
31
0.0
73
3
0
POINT
8
SHEET_LABELS
10
152.5094
20
-400.0000
30
0.0
0
TEXT
8
SHEET_LABELS
6
ROT_2.41
7
STANDARD
10
96.2230
20
-568.3423
30
0.0
40
3.4
1
S87%%d35'30.00"W
50
2.41
72
1
11
96.2230
21
-568.3423
31
0.0
73
1
0
TEXT
8
SHEET_LABELS
6
ROT_2.41
7
STANDARD
10
96.4751
20
-574.3370
30
0.0
40
3.2
1
75.00'
50
2.41
72
1
11
96.4751
21
-574.3370
31
0.0
73
3
0
POINT
8
SHEET_LABELS
10
159.6038
20
-568.6793
30
0.0
0
TEXT
8
SHEET_LABELS
7
STANDARD
10
8.0000
20
-350.0000
30
0.0
40
8.0
1
LOT Blk 16 - Lot 9   PASS
50
0.0
0
TEXT
8
SHEET_LABELS
7
STANDARD
10
8.0000
20
-361.0000
30
0.0
40
4.6
1
AREA 7,500 SF (0.172 ac)
50
0.0
0
TEXT
8
SHEET_LABELS
7
STANDARD
10
8.0000
20
-368.0000
30
0.0
40
4.0
1
PERIMETER 350.00'   VERTICES 4   CLOSING SIDE 0.00'
50
0.0
0
TEXT
8
SHEET_LABELS
7
STANDARD
10
8.0000
20
-375.0000
30
0.0
40
3.4
1
all geometric checks passed: closed single polyline, no self-intersection, no overlap, no spikes
50
0.0
0
LINE
8
SHEET_FRAME
10
340.0000
20
-600.0000
30
0.0
11
640.0000
21
-600.0000
31
0.0
0
LINE
8
SHEET_FRAME
10
640.0000
20
-600.0000
30
0.0
11
640.0000
21
-340.0000
31
0.0
0
LINE
8
SHEET_FRAME
10
640.0000
20
-340.0000
30
0.0
11
340.0000
21
-340.0000
31
0.0
0
LINE
8
SHEET_FRAME
10
340.0000
20
-340.0000
30
0.0
11
340.0000
21
-600.0000
31
0.0
0
POLYLINE
8
LOT_POLYLINE
66
1
70
1
0
VERTEX
8
LOT_POLYLINE
10
373.0943
20
-574.0000
30
0.0
0
VERTEX
8
LOT_POLYLINE
10
366.0000
20
-405.3207
30
0.0
0
VERTEX
8
LOT_POLYLINE
10
492.5094
20
-400.0000
30
0.0
0
VERTEX
8
LOT_POLYLINE
10
499.6038
20
-568.6793
30
0.0
0
SEQEND
0
TEXT
8
SHEET_LABELS
6
ROT_92.41
7
STANDARD
10
366.5498
20
-489.7864
30
0.0
40
3.4
1
N02%%d24'30.00"W
50
92.41
72
1
11
366.5498
21
-489.7864
31
0.0
73
1
0
TEXT
8
SHEET_LABELS
6
ROT_92.41
7
STANDARD
10
372.5445
20
-489.5343
30
0.0
40
3.2
1
100.00'
50
92.41
72
1
11
372.5445
21
-489.5343
31
0.0
73
3
0
POINT
8
SHEET_LABELS
10
373.0943
20
-574.0000
30
0.0
0
TEXT
8
SHEET_LABELS
6
ROT_2.41
7
STANDARD
10
429.1287
20
-399.6630
30
0.0
40
3.4
1
N87%%d35'30.00"E
50
2.41
72
1
11
429.1287
21
-399.6630
31
0.0
73
1
0
TEXT
8
SHEET_LABELS
6
ROT_2.41
7
STANDARD
10
429.3808
20
-405.6577
30
0.0
40
3.2
1
75.00'
50
2.41
72
1
11
429.3808
21
-405.6577
31
0.0
73
3
0
POINT
8
SHEET_LABELS
10
366.0000
20
-405.3207
30
0.0
0
TEXT
8
SHEET_LABELS
6
ROT_92.41
7
STANDARD
10
493.0593
20
-484.4657
30
0.0
40
3.4
1
S02%%d24'30.00"E
50
92.41
72
1
11
493.0593
21
-484.4657
31
0.0
73
1
0
TEXT
8
SHEET_LABELS
6
ROT_92.41
7
STANDARD
10
499.0540
20
-484.2136
30
0.0
40
3.2
1
100.00'
50
92.41
72
1
11
499.0540
21
-484.2136
31
0.0
73
3
0
POINT
8
SHEET_LABELS
10
492.5094
20
-400.0000
30
0.0
0
TEXT
8
SHEET_LABELS
6
ROT_2.41
7
STANDARD
10
436.2230
20
-568.3423
30
0.0
40
3.4
1
S87%%d35'30.00"W
50
2.41
72
1
11
436.2230
21
-568.3423
31
0.0
73
1
0
TEXT
8
SHEET_LABELS
6
ROT_2.41
7
STANDARD
10
436.4751
20
-574.3370
30
0.0
40
3.2
1
75.00'
50
2.41
72
1
11
436.4751
21
-574.3370
31
0.0
73
3
0
POINT
8
SHEET_LABELS
10
499.6038
20
-568.6793
30
0.0
0
TEXT
8
SHEET_LABELS
7
STANDARD
10
348.0000
20
-350.0000
30
0.0
40
8.0
1
LOT Blk 16 - Lot 10   PASS
50
0.0
0
TEXT
8
SHEET_LABELS
7
STANDARD
10
348.0000
20
-361.0000
30
0.0
40
4.6
1
AREA 7,500 SF (0.172 ac)
50
0.0
0
TEXT
8
SHEET_LABELS
7
STANDARD
10
348.0000
20
-368.0000
30
0.0
40
4.0
1
PERIMETER 350.00'   VERTICES 4   CLOSING SIDE 0.00'
50
0.0
0
TEXT
8
SHEET_LABELS
7
STANDARD
10
348.0000
20
-375.0000
30
0.0
40
3.4
1
all geometric checks passed: closed single polyline, no self-intersection, no overlap, no spikes
50
0.0
0
LINE
8
SHEET_FRAME
10
680.0000
20
-600.0000
30
0.0
11
980.0000
21
-600.0000
31
0.0
0
LINE
8
SHEET_FRAME
10
980.0000
20
-600.0000
30
0.0
11
980.0000
21
-340.0000
31
0.0
0
LINE
8
SHEET_FRAME
10
980.0000
20
-340.0000
30
0.0
11
680.0000
21
-340.0000
31
0.0
0
LINE
8
SHEET_FRAME
10
680.0000
20
-340.0000
30
0.0
11
680.0000
21
-600.0000
31
0.0
0
POLYLINE
8
LOT_POLYLINE
66
1
70
1
0
VERTEX
8
LOT_POLYLINE
10
713.0943
20
-574.0000
30
0.0
0
VERTEX
8
LOT_POLYLINE
10
706.0000
20
-405.3207
30
0.0
0
VERTEX
8
LOT_POLYLINE
10
832.5094
20
-400.0000
30
0.0
0
VERTEX
8
LOT_POLYLINE
10
839.6038
20
-568.6793
30
0.0
0
SEQEND
0
TEXT
8
SHEET_LABELS
6
ROT_92.41
7
STANDARD
10
706.5498
20
-489.7864
30
0.0
40
3.4
1
N02%%d24'30.00"W
50
92.41
72
1
11
706.5498
21
-489.7864
31
0.0
73
1
0
TEXT
8
SHEET_LABELS
6
ROT_92.41
7
STANDARD
10
712.5445
20
-489.5343
30
0.0
40
3.2
1
100.00'
50
92.41
72
1
11
712.5445
21
-489.5343
31
0.0
73
3
0
POINT
8
SHEET_LABELS
10
713.0943
20
-574.0000
30
0.0
0
TEXT
8
SHEET_LABELS
6
ROT_2.41
7
STANDARD
10
769.1287
20
-399.6630
30
0.0
40
3.4
1
N87%%d35'30.00"E
50
2.41
72
1
11
769.1287
21
-399.6630
31
0.0
73
1
0
TEXT
8
SHEET_LABELS
6
ROT_2.41
7
STANDARD
10
769.3808
20
-405.6577
30
0.0
40
3.2
1
75.00'
50
2.41
72
1
11
769.3808
21
-405.6577
31
0.0
73
3
0
POINT
8
SHEET_LABELS
10
706.0000
20
-405.3207
30
0.0
0
TEXT
8
SHEET_LABELS
6
ROT_92.41
7
STANDARD
10
833.0593
20
-484.4657
30
0.0
40
3.4
1
S02%%d24'30.00"E
50
92.41
72
1
11
833.0593
21
-484.4657
31
0.0
73
1
0
TEXT
8
SHEET_LABELS
6
ROT_92.41
7
STANDARD
10
839.0540
20
-484.2136
30
0.0
40
3.2
1
100.00'
50
92.41
72
1
11
839.0540
21
-484.2136
31
0.0
73
3
0
POINT
8
SHEET_LABELS
10
832.5094
20
-400.0000
30
0.0
0
TEXT
8
SHEET_LABELS
6
ROT_2.41
7
STANDARD
10
776.2230
20
-568.3423
30
0.0
40
3.4
1
S87%%d35'30.00"W
50
2.41
72
1
11
776.2230
21
-568.3423
31
0.0
73
1
0
TEXT
8
SHEET_LABELS
6
ROT_2.41
7
STANDARD
10
776.4751
20
-574.3370
30
0.0
40
3.2
1
75.00'
50
2.41
72
1
11
776.4751
21
-574.3370
31
0.0
73
3
0
POINT
8
SHEET_LABELS
10
839.6038
20
-568.6793
30
0.0
0
TEXT
8
SHEET_LABELS
7
STANDARD
10
688.0000
20
-350.0000
30
0.0
40
8.0
1
LOT Blk 16 - Lot 11   PASS
50
0.0
0
TEXT
8
SHEET_LABELS
7
STANDARD
10
688.0000
20
-361.0000
30
0.0
40
4.6
1
AREA 7,500 SF (0.172 ac)
50
0.0
0
TEXT
8
SHEET_LABELS
7
STANDARD
10
688.0000
20
-368.0000
30
0.0
40
4.0
1
PERIMETER 350.00'   VERTICES 4   CLOSING SIDE 0.00'
50
0.0
0
TEXT
8
SHEET_LABELS
7
STANDARD
10
688.0000
20
-375.0000
30
0.0
40
3.4
1
all geometric checks passed: closed single polyline, no self-intersection, no overlap, no spikes
50
0.0
0
LINE
8
SHEET_FRAME
10
1020.0000
20
-600.0000
30
0.0
11
1320.0000
21
-600.0000
31
0.0
0
LINE
8
SHEET_FRAME
10
1320.0000
20
-600.0000
30
0.0
11
1320.0000
21
-340.0000
31
0.0
0
LINE
8
SHEET_FRAME
10
1320.0000
20
-340.0000
30
0.0
11
1020.0000
21
-340.0000
31
0.0
0
LINE
8
SHEET_FRAME
10
1020.0000
20
-340.0000
30
0.0
11
1020.0000
21
-600.0000
31
0.0
0
POLYLINE
8
LOT_POLYLINE
66
1
70
1
0
VERTEX
8
LOT_POLYLINE
10
1053.0943
20
-574.0000
30
0.0
0
VERTEX
8
LOT_POLYLINE
10
1046.0000
20
-405.3207
30
0.0
0
VERTEX
8
LOT_POLYLINE
10
1172.5094
20
-400.0000
30
0.0
0
VERTEX
8
LOT_POLYLINE
10
1179.6038
20
-568.6793
30
0.0
0
SEQEND
0
TEXT
8
SHEET_LABELS
6
ROT_92.41
7
STANDARD
10
1046.5498
20
-489.7864
30
0.0
40
3.4
1
N02%%d24'30.00"W
50
92.41
72
1
11
1046.5498
21
-489.7864
31
0.0
73
1
0
TEXT
8
SHEET_LABELS
6
ROT_92.41
7
STANDARD
10
1052.5445
20
-489.5343
30
0.0
40
3.2
1
100.00'
50
92.41
72
1
11
1052.5445
21
-489.5343
31
0.0
73
3
0
POINT
8
SHEET_LABELS
10
1053.0943
20
-574.0000
30
0.0
0
TEXT
8
SHEET_LABELS
6
ROT_2.41
7
STANDARD
10
1109.1287
20
-399.6630
30
0.0
40
3.4
1
N87%%d35'30.00"E
50
2.41
72
1
11
1109.1287
21
-399.6630
31
0.0
73
1
0
TEXT
8
SHEET_LABELS
6
ROT_2.41
7
STANDARD
10
1109.3808
20
-405.6577
30
0.0
40
3.2
1
75.00'
50
2.41
72
1
11
1109.3808
21
-405.6577
31
0.0
73
3
0
POINT
8
SHEET_LABELS
10
1046.0000
20
-405.3207
30
0.0
0
TEXT
8
SHEET_LABELS
6
ROT_92.41
7
STANDARD
10
1173.0593
20
-484.4657
30
0.0
40
3.4
1
S02%%d24'30.00"E
50
92.41
72
1
11
1173.0593
21
-484.4657
31
0.0
73
1
0
TEXT
8
SHEET_LABELS
6
ROT_92.41
7
STANDARD
10
1179.0540
20
-484.2136
30
0.0
40
3.2
1
100.00'
50
92.41
72
1
11
1179.0540
21
-484.2136
31
0.0
73
3
0
POINT
8
SHEET_LABELS
10
1172.5094
20
-400.0000
30
0.0
0
TEXT
8
SHEET_LABELS
6
ROT_2.41
7
STANDARD
10
1116.2230
20
-568.3423
30
0.0
40
3.4
1
S87%%d35'30.00"W
50
2.41
72
1
11
1116.2230
21
-568.3423
31
0.0
73
1
0
TEXT
8
SHEET_LABELS
6
ROT_2.41
7
STANDARD
10
1116.4751
20
-574.3370
30
0.0
40
3.2
1
75.00'
50
2.41
72
1
11
1116.4751
21
-574.3370
31
0.0
73
3
0
POINT
8
SHEET_LABELS
10
1179.6038
20
-568.6793
30
0.0
0
TEXT
8
SHEET_LABELS
7
STANDARD
10
1028.0000
20
-350.0000
30
0.0
40
8.0
1
LOT Blk 16 - Lot 12   PASS
50
0.0
0
TEXT
8
SHEET_LABELS
7
STANDARD
10
1028.0000
20
-361.0000
30
0.0
40
4.6
1
AREA 7,500 SF (0.172 ac)
50
0.0
0
TEXT
8
SHEET_LABELS
7
STANDARD
10
1028.0000
20
-368.0000
30
0.0
40
4.0
1
PERIMETER 350.00'   VERTICES 4   CLOSING SIDE 0.00'
50
0.0
0
TEXT
8
SHEET_LABELS
7
STANDARD
10
1028.0000
20
-375.0000
30
0.0
40
3.4
1
all geometric checks passed: closed single polyline, no self-intersection, no overlap, no spikes
50
0.0
0
LINE
8
SHEET_FRAME
10
0.0000
20
-900.0000
30
0.0
11
300.0000
21
-900.0000
31
0.0
0
LINE
8
SHEET_FRAME
10
300.0000
20
-900.0000
30
0.0
11
300.0000
21
-640.0000
31
0.0
0
LINE
8
SHEET_FRAME
10
300.0000
20
-640.0000
30
0.0
11
0.0000
21
-640.0000
31
0.0
0
LINE
8
SHEET_FRAME
10
0.0000
20
-640.0000
30
0.0
11
0.0000
21
-900.0000
31
0.0
0
POLYLINE
8
LOT_POLYLINE
66
1
70
1
0
VERTEX
8
LOT_POLYLINE
10
33.0943
20
-874.0000
30
0.0
0
VERTEX
8
LOT_POLYLINE
10
26.0000
20
-705.3207
30
0.0
0
VERTEX
8
LOT_POLYLINE
10
152.5094
20
-700.0000
30
0.0
0
VERTEX
8
LOT_POLYLINE
10
159.6038
20
-868.6793
30
0.0
0
SEQEND
0
TEXT
8
SHEET_LABELS
6
ROT_92.41
7
STANDARD
10
26.5498
20
-789.7864
30
0.0
40
3.4
1
N02%%d24'30.00"W
50
92.41
72
1
11
26.5498
21
-789.7864
31
0.0
73
1
0
TEXT
8
SHEET_LABELS
6
ROT_92.41
7
STANDARD
10
32.5445
20
-789.5343
30
0.0
40
3.2
1
100.00'
50
92.41
72
1
11
32.5445
21
-789.5343
31
0.0
73
3
0
POINT
8
SHEET_LABELS
10
33.0943
20
-874.0000
30
0.0
0
TEXT
8
SHEET_LABELS
6
ROT_2.41
7
STANDARD
10
89.1287
20
-699.6630
30
0.0
40
3.4
1
N87%%d35'30.00"E
50
2.41
72
1
11
89.1287
21
-699.6630
31
0.0
73
1
0
TEXT
8
SHEET_LABELS
6
ROT_2.41
7
STANDARD
10
89.3808
20
-705.6577
30
0.0
40
3.2
1
75.00'
50
2.41
72
1
11
89.3808
21
-705.6577
31
0.0
73
3
0
POINT
8
SHEET_LABELS
10
26.0000
20
-705.3207
30
0.0
0
TEXT
8
SHEET_LABELS
6
ROT_92.41
7
STANDARD
10
153.0593
20
-784.4657
30
0.0
40
3.4
1
S02%%d24'30.00"E
50
92.41
72
1
11
153.0593
21
-784.4657
31
0.0
73
1
0
TEXT
8
SHEET_LABELS
6
ROT_92.41
7
STANDARD
10
159.0540
20
-784.2136
30
0.0
40
3.2
1
100.00'
50
92.41
72
1
11
159.0540
21
-784.2136
31
0.0
73
3
0
POINT
8
SHEET_LABELS
10
152.5094
20
-700.0000
30
0.0
0
TEXT
8
SHEET_LABELS
6
ROT_2.41
7
STANDARD
10
96.2230
20
-868.3423
30
0.0
40
3.4
1
S87%%d35'30.00"W
50
2.41
72
1
11
96.2230
21
-868.3423
31
0.0
73
1
0
TEXT
8
SHEET_LABELS
6
ROT_2.41
7
STANDARD
10
96.4751
20
-874.3370
30
0.0
40
3.2
1
75.00'
50
2.41
72
1
11
96.4751
21
-874.3370
31
0.0
73
3
0
POINT
8
SHEET_LABELS
10
159.6038
20
-868.6793
30
0.0
0
TEXT
8
SHEET_LABELS
7
STANDARD
10
8.0000
20
-650.0000
30
0.0
40
8.0
1
LOT Blk 16 - Lot 13   PASS
50
0.0
0
TEXT
8
SHEET_LABELS
7
STANDARD
10
8.0000
20
-661.0000
30
0.0
40
4.6
1
AREA 7,500 SF (0.172 ac)
50
0.0
0
TEXT
8
SHEET_LABELS
7
STANDARD
10
8.0000
20
-668.0000
30
0.0
40
4.0
1
PERIMETER 350.00'   VERTICES 4   CLOSING SIDE 0.00'
50
0.0
0
TEXT
8
SHEET_LABELS
7
STANDARD
10
8.0000
20
-675.0000
30
0.0
40
3.4
1
all geometric checks passed: closed single polyline, no self-intersection, no overlap, no spikes
50
0.0
0
LINE
8
SHEET_FRAME
10
340.0000
20
-900.0000
30
0.0
11
640.0000
21
-900.0000
31
0.0
0
LINE
8
SHEET_FRAME
10
640.0000
20
-900.0000
30
0.0
11
640.0000
21
-640.0000
31
0.0
0
LINE
8
SHEET_FRAME
10
640.0000
20
-640.0000
30
0.0
11
340.0000
21
-640.0000
31
0.0
0
LINE
8
SHEET_FRAME
10
340.0000
20
-640.0000
30
0.0
11
340.0000
21
-900.0000
31
0.0
0
POLYLINE
8
LOT_POLYLINE
66
1
70
1
0
VERTEX
8
LOT_POLYLINE
10
373.0943
20
-874.0000
30
0.0
0
VERTEX
8
LOT_POLYLINE
10
366.0000
20
-705.3207
30
0.0
0
VERTEX
8
LOT_POLYLINE
10
492.5094
20
-700.0000
30
0.0
0
VERTEX
8
LOT_POLYLINE
10
499.6038
20
-868.6793
30
0.0
0
SEQEND
0
TEXT
8
SHEET_LABELS
6
ROT_92.41
7
STANDARD
10
366.5498
20
-789.7864
30
0.0
40
3.4
1
N02%%d24'30.00"W
50
92.41
72
1
11
366.5498
21
-789.7864
31
0.0
73
1
0
TEXT
8
SHEET_LABELS
6
ROT_92.41
7
STANDARD
10
372.5445
20
-789.5343
30
0.0
40
3.2
1
100.00'
50
92.41
72
1
11
372.5445
21
-789.5343
31
0.0
73
3
0
POINT
8
SHEET_LABELS
10
373.0943
20
-874.0000
30
0.0
0
TEXT
8
SHEET_LABELS
6
ROT_2.41
7
STANDARD
10
429.1287
20
-699.6630
30
0.0
40
3.4
1
N87%%d35'30.00"E
50
2.41
72
1
11
429.1287
21
-699.6630
31
0.0
73
1
0
TEXT
8
SHEET_LABELS
6
ROT_2.41
7
STANDARD
10
429.3808
20
-705.6577
30
0.0
40
3.2
1
75.00'
50
2.41
72
1
11
429.3808
21
-705.6577
31
0.0
73
3
0
POINT
8
SHEET_LABELS
10
366.0000
20
-705.3207
30
0.0
0
TEXT
8
SHEET_LABELS
6
ROT_92.41
7
STANDARD
10
493.0593
20
-784.4657
30
0.0
40
3.4
1
S02%%d24'30.00"E
50
92.41
72
1
11
493.0593
21
-784.4657
31
0.0
73
1
0
TEXT
8
SHEET_LABELS
6
ROT_92.41
7
STANDARD
10
499.0540
20
-784.2136
30
0.0
40
3.2
1
100.00'
50
92.41
72
1
11
499.0540
21
-784.2136
31
0.0
73
3
0
POINT
8
SHEET_LABELS
10
492.5094
20
-700.0000
30
0.0
0
TEXT
8
SHEET_LABELS
6
ROT_2.41
7
STANDARD
10
436.2230
20
-868.3423
30
0.0
40
3.4
1
S87%%d35'30.00"W
50
2.41
72
1
11
436.2230
21
-868.3423
31
0.0
73
1
0
TEXT
8
SHEET_LABELS
6
ROT_2.41
7
STANDARD
10
436.4751
20
-874.3370
30
0.0
40
3.2
1
75.00'
50
2.41
72
1
11
436.4751
21
-874.3370
31
0.0
73
3
0
POINT
8
SHEET_LABELS
10
499.6038
20
-868.6793
30
0.0
0
TEXT
8
SHEET_LABELS
7
STANDARD
10
348.0000
20
-650.0000
30
0.0
40
8.0
1
LOT Blk 16 - Lot 14   PASS
50
0.0
0
TEXT
8
SHEET_LABELS
7
STANDARD
10
348.0000
20
-661.0000
30
0.0
40
4.6
1
AREA 7,500 SF (0.172 ac)
50
0.0
0
TEXT
8
SHEET_LABELS
7
STANDARD
10
348.0000
20
-668.0000
30
0.0
40
4.0
1
PERIMETER 350.00'   VERTICES 4   CLOSING SIDE 0.00'
50
0.0
0
TEXT
8
SHEET_LABELS
7
STANDARD
10
348.0000
20
-675.0000
30
0.0
40
3.4
1
all geometric checks passed: closed single polyline, no self-intersection, no overlap, no spikes
50
0.0
0
LINE
8
SHEET_FRAME
10
680.0000
20
-900.0000
30
0.0
11
980.0000
21
-900.0000
31
0.0
0
LINE
8
SHEET_FRAME
10
980.0000
20
-900.0000
30
0.0
11
980.0000
21
-640.0000
31
0.0
0
LINE
8
SHEET_FRAME
10
980.0000
20
-640.0000
30
0.0
11
680.0000
21
-640.0000
31
0.0
0
LINE
8
SHEET_FRAME
10
680.0000
20
-640.0000
30
0.0
11
680.0000
21
-900.0000
31
0.0
0
POLYLINE
8
LOT_POLYLINE
66
1
70
1
0
VERTEX
8
LOT_POLYLINE
10
713.0943
20
-874.0000
30
0.0
0
VERTEX
8
LOT_POLYLINE
10
706.0000
20
-705.3207
30
0.0
0
VERTEX
8
LOT_POLYLINE
10
832.5094
20
-700.0000
30
0.0
0
VERTEX
8
LOT_POLYLINE
10
839.6038
20
-868.6793
30
0.0
0
SEQEND
0
TEXT
8
SHEET_LABELS
6
ROT_92.41
7
STANDARD
10
706.5498
20
-789.7864
30
0.0
40
3.4
1
N02%%d24'30.00"W
50
92.41
72
1
11
706.5498
21
-789.7864
31
0.0
73
1
0
TEXT
8
SHEET_LABELS
6
ROT_92.41
7
STANDARD
10
712.5445
20
-789.5343
30
0.0
40
3.2
1
100.00'
50
92.41
72
1
11
712.5445
21
-789.5343
31
0.0
73
3
0
POINT
8
SHEET_LABELS
10
713.0943
20
-874.0000
30
0.0
0
TEXT
8
SHEET_LABELS
6
ROT_2.41
7
STANDARD
10
769.1287
20
-699.6630
30
0.0
40
3.4
1
N87%%d35'30.00"E
50
2.41
72
1
11
769.1287
21
-699.6630
31
0.0
73
1
0
TEXT
8
SHEET_LABELS
6
ROT_2.41
7
STANDARD
10
769.3808
20
-705.6577
30
0.0
40
3.2
1
75.00'
50
2.41
72
1
11
769.3808
21
-705.6577
31
0.0
73
3
0
POINT
8
SHEET_LABELS
10
706.0000
20
-705.3207
30
0.0
0
TEXT
8
SHEET_LABELS
6
ROT_92.41
7
STANDARD
10
833.0593
20
-784.4657
30
0.0
40
3.4
1
S02%%d24'30.00"E
50
92.41
72
1
11
833.0593
21
-784.4657
31
0.0
73
1
0
TEXT
8
SHEET_LABELS
6
ROT_92.41
7
STANDARD
10
839.0540
20
-784.2136
30
0.0
40
3.2
1
100.00'
50
92.41
72
1
11
839.0540
21
-784.2136
31
0.0
73
3
0
POINT
8
SHEET_LABELS
10
832.5094
20
-700.0000
30
0.0
0
TEXT
8
SHEET_LABELS
6
ROT_2.41
7
STANDARD
10
776.2230
20
-868.3423
30
0.0
40
3.4
1
S87%%d35'30.00"W
50
2.41
72
1
11
776.2230
21
-868.3423
31
0.0
73
1
0
TEXT
8
SHEET_LABELS
6
ROT_2.41
7
STANDARD
10
776.4751
20
-874.3370
30
0.0
40
3.2
1
75.00'
50
2.41
72
1
11
776.4751
21
-874.3370
31
0.0
73
3
0
POINT
8
SHEET_LABELS
10
839.6038
20
-868.6793
30
0.0
0
TEXT
8
SHEET_LABELS
7
STANDARD
10
688.0000
20
-650.0000
30
0.0
40
8.0
1
LOT Blk 16 - Lot 15   PASS
50
0.0
0
TEXT
8
SHEET_LABELS
7
STANDARD
10
688.0000
20
-661.0000
30
0.0
40
4.6
1
AREA 7,500 SF (0.172 ac)
50
0.0
0
TEXT
8
SHEET_LABELS
7
STANDARD
10
688.0000
20
-668.0000
30
0.0
40
4.0
1
PERIMETER 350.00'   VERTICES 4   CLOSING SIDE 0.00'
50
0.0
0
TEXT
8
SHEET_LABELS
7
STANDARD
10
688.0000
20
-675.0000
30
0.0
40
3.4
1
all geometric checks passed: closed single polyline, no self-intersection, no overlap, no spikes
50
0.0
0
LINE
8
SHEET_FRAME
10
1020.0000
20
-900.0000
30
0.0
11
1320.0000
21
-900.0000
31
0.0
0
LINE
8
SHEET_FRAME
10
1320.0000
20
-900.0000
30
0.0
11
1320.0000
21
-640.0000
31
0.0
0
LINE
8
SHEET_FRAME
10
1320.0000
20
-640.0000
30
0.0
11
1020.0000
21
-640.0000
31
0.0
0
LINE
8
SHEET_FRAME
10
1020.0000
20
-640.0000
30
0.0
11
1020.0000
21
-900.0000
31
0.0
0
POLYLINE
8
LOT_POLYLINE
66
1
70
1
0
VERTEX
8
LOT_POLYLINE
10
1053.0943
20
-874.0000
30
0.0
0
VERTEX
8
LOT_POLYLINE
10
1046.0000
20
-705.3207
30
0.0
0
VERTEX
8
LOT_POLYLINE
10
1172.5094
20
-700.0000
30
0.0
0
VERTEX
8
LOT_POLYLINE
10
1179.6038
20
-868.6793
30
0.0
0
SEQEND
0
TEXT
8
SHEET_LABELS
6
ROT_92.41
7
STANDARD
10
1046.5498
20
-789.7864
30
0.0
40
3.4
1
N02%%d24'30.00"W
50
92.41
72
1
11
1046.5498
21
-789.7864
31
0.0
73
1
0
TEXT
8
SHEET_LABELS
6
ROT_92.41
7
STANDARD
10
1052.5445
20
-789.5343
30
0.0
40
3.2
1
100.00'
50
92.41
72
1
11
1052.5445
21
-789.5343
31
0.0
73
3
0
POINT
8
SHEET_LABELS
10
1053.0943
20
-874.0000
30
0.0
0
TEXT
8
SHEET_LABELS
6
ROT_2.41
7
STANDARD
10
1109.1287
20
-699.6630
30
0.0
40
3.4
1
N87%%d35'30.00"E
50
2.41
72
1
11
1109.1287
21
-699.6630
31
0.0
73
1
0
TEXT
8
SHEET_LABELS
6
ROT_2.41
7
STANDARD
10
1109.3808
20
-705.6577
30
0.0
40
3.2
1
75.00'
50
2.41
72
1
11
1109.3808
21
-705.6577
31
0.0
73
3
0
POINT
8
SHEET_LABELS
10
1046.0000
20
-705.3207
30
0.0
0
TEXT
8
SHEET_LABELS
6
ROT_92.41
7
STANDARD
10
1173.0593
20
-784.4657
30
0.0
40
3.4
1
S02%%d24'30.00"E
50
92.41
72
1
11
1173.0593
21
-784.4657
31
0.0
73
1
0
TEXT
8
SHEET_LABELS
6
ROT_92.41
7
STANDARD
10
1179.0540
20
-784.2136
30
0.0
40
3.2
1
100.00'
50
92.41
72
1
11
1179.0540
21
-784.2136
31
0.0
73
3
0
POINT
8
SHEET_LABELS
10
1172.5094
20
-700.0000
30
0.0
0
TEXT
8
SHEET_LABELS
6
ROT_2.41
7
STANDARD
10
1116.2230
20
-868.3423
30
0.0
40
3.4
1
S87%%d35'30.00"W
50
2.41
72
1
11
1116.2230
21
-868.3423
31
0.0
73
1
0
TEXT
8
SHEET_LABELS
6
ROT_2.41
7
STANDARD
10
1116.4751
20
-874.3370
30
0.0
40
3.2
1
75.00'
50
2.41
72
1
11
1116.4751
21
-874.3370
31
0.0
73
3
0
POINT
8
SHEET_LABELS
10
1179.6038
20
-868.6793
30
0.0
0
TEXT
8
SHEET_LABELS
7
STANDARD
10
1028.0000
20
-650.0000
30
0.0
40
8.0
1
LOT Blk 16 - Lot 16   PASS
50
0.0
0
TEXT
8
SHEET_LABELS
7
STANDARD
10
1028.0000
20
-661.0000
30
0.0
40
4.6
1
AREA 7,500 SF (0.172 ac)
50
0.0
0
TEXT
8
SHEET_LABELS
7
STANDARD
10
1028.0000
20
-668.0000
30
0.0
40
4.0
1
PERIMETER 350.00'   VERTICES 4   CLOSING SIDE 0.00'
50
0.0
0
TEXT
8
SHEET_LABELS
7
STANDARD
10
1028.0000
20
-675.0000
30
0.0
40
3.4
1
all geometric checks passed: closed single polyline, no self-intersection, no overlap, no spikes
50
0.0
0
LINE
8
SHEET_FRAME
10
0.0000
20
-1200.0000
30
0.0
11
300.0000
21
-1200.0000
31
0.0
0
LINE
8
SHEET_FRAME
10
300.0000
20
-1200.0000
30
0.0
11
300.0000
21
-940.0000
31
0.0
0
LINE
8
SHEET_FRAME
10
300.0000
20
-940.0000
30
0.0
11
0.0000
21
-940.0000
31
0.0
0
LINE
8
SHEET_FRAME
10
0.0000
20
-940.0000
30
0.0
11
0.0000
21
-1200.0000
31
0.0
0
POLYLINE
8
LOT_POLYLINE
66
1
70
1
0
VERTEX
8
LOT_POLYLINE
10
33.0857
20
-1174.0000
30
0.0
0
VERTEX
8
LOT_POLYLINE
10
26.0000
20
-1005.5269
30
0.0
0
VERTEX
8
LOT_POLYLINE
10
157.4103
20
-1000.0000
30
0.0
0
VERTEX
8
LOT_POLYLINE
10
201.3342
20
-1041.6074
30
0.0
0
VERTEX
8
LOT_POLYLINE
10
202.8560
20
-1166.8598
30
0.0
0
SEQEND
0
POLYLINE
8
LOT_POLYLINE
66
1
70
0
0
VERTEX
8
LOT_POLYLINE
10
157.4103
20
-1000.0000
30
0.0
0
VERTEX
8
LOT_POLYLINE
10
161.6259
20
-1000.0337
30
0.0
0
VERTEX
8
LOT_POLYLINE
10
165.8169
20
-1000.4882
30
0.0
0
VERTEX
8
LOT_POLYLINE
10
169.9417
20
-1001.3591
30
0.0
0
VERTEX
8
LOT_POLYLINE
10
173.9588
20
-1002.6376
30
0.0
0
VERTEX
8
LOT_POLYLINE
10
177.8281
20
-1004.3109
30
0.0
0
VERTEX
8
LOT_POLYLINE
10
181.5110
20
-1006.3623
30
0.0
0
VERTEX
8
LOT_POLYLINE
10
184.9706
20
-1008.7713
30
0.0
0
VERTEX
8
LOT_POLYLINE
10
188.1722
20
-1011.5137
30
0.0
0
VERTEX
8
LOT_POLYLINE
10
191.0840
20
-1014.5623
30
0.0
0
VERTEX
8
LOT_POLYLINE
10
193.6767
20
-1017.8864
30
0.0
0
VERTEX
8
LOT_POLYLINE
10
195.9244
20
-1021.4528
30
0.0
0
VERTEX
8
LOT_POLYLINE
10
197.8047
20
-1025.2259
30
0.0
0
VERTEX
8
LOT_POLYLINE
10
199.2988
20
-1029.1679
30
0.0
0
VERTEX
8
LOT_POLYLINE
10
200.3916
20
-1033.2395
30
0.0
0
VERTEX
8
LOT_POLYLINE
10
201.0724
20
-1037.3998
30
0.0
0
VERTEX
8
LOT_POLYLINE
10
201.3342
20
-1041.6074
30
0.0
0
SEQEND
0
TEXT
8
SHEET_LABELS
6
ROT_92.41
7
STANDARD
10
26.5455
20
-1089.8895
30
0.0
40
3.4
1
N02%%d24'30.00"W
50
92.41
72
1
11
26.5455
21
-1089.8895
31
0.0
73
1
0
TEXT
8
SHEET_LABELS
6
ROT_92.41
7
STANDARD
10
32.5402
20
-1089.6374
30
0.0
40
3.2
1
100.00'
50
92.41
72
1
11
32.5402
21
-1089.6374
31
0.0
73
3
0
POINT
8
SHEET_LABELS
10
33.0857
20
-1174.0000
30
0.0
0
TEXT
8
SHEET_LABELS
6
ROT_2.41
7
STANDARD
10
91.5791
20
-999.7661
30
0.0
40
3.4
1
N87%%d35'30.00"E
50
2.41
72
1
11
91.5791
21
-999.7661
31
0.0
73
1
0
TEXT
8
SHEET_LABELS
6
ROT_2.41
7
STANDARD
10
91.8312
20
-1005.7608
30
0.0
40
3.2
1
78.00'
50
2.41
72
1
11
91.8312
21
-1005.7608
31
0.0
73
3
0
POINT
8
SHEET_LABELS
10
26.0000
20
-1005.5269
30
0.0
0
TEXT
8
SHEET_LABELS
6
ROT_316.55
7
STANDARD
10
181.4354
20
-1018.6257
30
0.0
40
3.4
1
S46%%d33'05.00"E
50
316.55
72
1
11
181.4354
21
-1018.6257
31
0.0
73
1
0
TEXT
8
SHEET_LABELS
6
ROT_316.55
7
STANDARD
10
177.3091
20
-1022.9817
30
0.0
40
3.2
1
35.88'
50
316.55
72
1
11
177.3091
21
-1022.9817
31
0.0
73
3
0
POINT
8
SHEET_LABELS
10
157.4103
20
-1000.0000
30
0.0
0
TEXT
8
SHEET_LABELS
6
ROT_90.70
7
STANDARD
10
199.0953
20
-1104.2700
30
0.0
40
3.4
1
S00%%d41'46.09"E
50
90.7
72
1
11
199.0953
21
-1104.2700
31
0.0
73
1
0
TEXT
8
SHEET_LABELS
6
ROT_90.70
7
STANDARD
10
205.0949
20
-1104.1971
30
0.0
40
3.2
1
74.29'
50
90.7
72
1
11
205.0949
21
-1104.1971
31
0.0
73
3
0
POINT
8
SHEET_LABELS
10
201.3342
20
-1041.6074
30
0.0
0
TEXT
8
SHEET_LABELS
6
ROT_2.41
7
STANDARD
10
117.8448
20
-1167.4325
30
0.0
40
3.4
1
S87%%d35'30.00"W
50
2.41
72
1
11
117.8448
21
-1167.4325
31
0.0
73
1
0
TEXT
8
SHEET_LABELS
6
ROT_2.41
7
STANDARD
10
118.0969
20
-1173.4272
30
0.0
40
3.2
1
100.77'
50
2.41
72
1
11
118.0969
21
-1173.4272
31
0.0
73
3
0
POINT
8
SHEET_LABELS
10
202.8560
20
-1166.8598
30
0.0
0
TEXT
8
SHEET_LABELS
7
STANDARD
10
8.0000
20
-950.0000
30
0.0
40
8.0
1
LOT Blk 16 - Lot 17   PASS
50
0.0
0
TEXT
8
SHEET_LABELS
7
STANDARD
10
8.0000
20
-961.0000
30
0.0
40
4.6
1
AREA 10,083 SF (0.231 ac)
50
0.0
0
TEXT
8
SHEET_LABELS
7
STANDARD
10
8.0000
20
-968.0000
30
0.0
40
4.0
1
PERIMETER 393.07'   VERTICES 5   CLOSING SIDE 0.00'
50
0.0
0
TEXT
8
SHEET_LABELS
7
STANDARD
10
8.0000
20
-975.0000
30
0.0
40
3.4
1
all geometric checks passed: closed single polyline, no self-intersection, no overlap, no spikes
50
0.0
0
LINE
8
SHEET_FRAME
10
340.0000
20
-1200.0000
30
0.0
11
640.0000
21
-1200.0000
31
0.0
0
LINE
8
SHEET_FRAME
10
640.0000
20
-1200.0000
30
0.0
11
640.0000
21
-940.0000
31
0.0
0
LINE
8
SHEET_FRAME
10
640.0000
20
-940.0000
30
0.0
11
340.0000
21
-940.0000
31
0.0
0
LINE
8
SHEET_FRAME
10
340.0000
20
-940.0000
30
0.0
11
340.0000
21
-1200.0000
31
0.0
0
POLYLINE
8
LOT_POLYLINE
66
1
70
1
0
VERTEX
8
LOT_POLYLINE
10
366.0000
20
-1006.6508
30
0.0
0
VERTEX
8
LOT_POLYLINE
10
524.1342
20
-1000.0000
30
0.0
0
VERTEX
8
LOT_POLYLINE
10
531.2474
20
-1169.1275
30
0.0
0
VERTEX
8
LOT_POLYLINE
10
415.3951
20
-1174.0000
30
0.0
0
VERTEX
8
LOT_POLYLINE
10
371.3349
20
-1133.4964
30
0.0
0
SEQEND
0
POLYLINE
8
LOT_POLYLINE
66
1
70
0
0
VERTEX
8
LOT_POLYLINE
10
415.3951
20
-1174.0000
30
0.0
0
VERTEX
8
LOT_POLYLINE
10
411.2421
20
-1173.9707
30
0.0
0
VERTEX
8
LOT_POLYLINE
10
407.1121
20
-1173.5345
30
0.0
0
VERTEX
8
LOT_POLYLINE
10
403.0447
20
-1172.6956
30
0.0
0
VERTEX
8
LOT_POLYLINE
10
399.0791
20
-1171.4620
30
0.0
0
VERTEX
8
LOT_POLYLINE
10
395.2535
20
-1169.8457
30
0.0
0
VERTEX
8
LOT_POLYLINE
10
391.6048
20
-1167.8622
30
0.0
0
VERTEX
8
LOT_POLYLINE
10
388.1681
20
-1165.5306
30
0.0
0
VERTEX
8
LOT_POLYLINE
10
384.9764
20
-1162.8734
30
0.0
0
VERTEX
8
LOT_POLYLINE
10
382.0606
20
-1159.9161
30
0.0
0
VERTEX
8
LOT_POLYLINE
10
379.4486
20
-1156.6873
30
0.0
0
VERTEX
8
LOT_POLYLINE
10
377.1658
20
-1153.2180
30
0.0
0
VERTEX
8
LOT_POLYLINE
10
375.2339
20
-1149.5416
30
0.0
0
VERTEX
8
LOT_POLYLINE
10
373.6717
20
-1145.6936
30
0.0
0
VERTEX
8
LOT_POLYLINE
10
372.4942
20
-1141.7110
30
0.0
0
VERTEX
8
LOT_POLYLINE
10
371.7128
20
-1137.6322
30
0.0
0
VERTEX
8
LOT_POLYLINE
10
371.3349
20
-1133.4964
30
0.0
0
SEQEND
0
TEXT
8
SHEET_LABELS
6
ROT_2.41
7
STANDARD
10
444.9410
20
-1000.3281
30
0.0
40
3.4
1
N87%%d35'30.00"E
50
2.41
72
1
11
444.9410
21
-1000.3281
31
0.0
73
1
0
TEXT
8
SHEET_LABELS
6
ROT_2.41
7
STANDARD
10
445.1932
20
-1006.3228
30
0.0
40
3.2
1
93.50'
50
2.41
72
1
11
445.1932
21
-1006.3228
31
0.0
73
3
0
POINT
8
SHEET_LABELS
10
366.0000
20
-1006.6508
30
0.0
0
TEXT
8
SHEET_LABELS
6
ROT_92.41
7
STANDARD
10
524.6934
20
-1084.6898
30
0.0
40
3.4
1
S02%%d24'30.00"E
50
92.41
72
1
11
524.6934
21
-1084.6898
31
0.0
73
1
0
TEXT
8
SHEET_LABELS
6
ROT_92.41
7
STANDARD
10
530.6881
20
-1084.4377
30
0.0
40
3.2
1
100.00'
50
92.41
72
1
11
530.6881
21
-1084.4377
31
0.0
73
3
0
POINT
8
SHEET_LABELS
10
524.1342
20
-1000.0000
30
0.0
0
TEXT
8
SHEET_LABELS
6
ROT_2.41
7
STANDARD
10
473.1951
20
-1168.5664
30
0.0
40
3.4
1
S87%%d35'30.00"W
50
2.41
72
1
11
473.1951
21
-1168.5664
31
0.0
73
1
0
TEXT
8
SHEET_LABELS
6
ROT_2.41
7
STANDARD
10
473.4473
20
-1174.5611
30
0.0
40
3.2
1
68.50'
50
2.41
72
1
11
473.4473
21
-1174.5611
31
0.0
73
3
0
POINT
8
SHEET_LABELS
10
531.2474
20
-1169.1275
30
0.0
0
TEXT
8
SHEET_LABELS
6
ROT_317.41
7
STANDARD
10
395.3953
20
-1151.5396
30
0.0
40
3.4
1
N47%%d24'30.00"W
50
317.41
72
1
11
395.3953
21
-1151.5396
31
0.0
73
1
0
TEXT
8
SHEET_LABELS
6
ROT_317.41
7
STANDARD
10
391.3347
20
-1155.9568
30
0.0
40
3.2
1
35.36'
50
317.41
72
1
11
391.3347
21
-1155.9568
31
0.0
73
3
0
POINT
8
SHEET_LABELS
10
415.3951
20
-1174.0000
30
0.0
0
TEXT
8
SHEET_LABELS
6
ROT_92.41
7
STANDARD
10
365.6701
20
-1070.1997
30
0.0
40
3.4
1
N02%%d24'30.00"W
50
92.41
72
1
11
365.6701
21
-1070.1997
31
0.0
73
1
0
TEXT
8
SHEET_LABELS
6
ROT_92.41
7
STANDARD
10
371.6648
20
-1069.9476
30
0.0
40
3.2
1
75.00'
50
92.41
72
1
11
371.6648
21
-1069.9476
31
0.0
73
3
0
POINT
8
SHEET_LABELS
10
371.3349
20
-1133.4964
30
0.0
0
TEXT
8
SHEET_LABELS
7
STANDARD
10
348.0000
20
-950.0000
30
0.0
40
8.0
1
LOT Blk 16 - Lot 33   PASS
50
0.0
0
TEXT
8
SHEET_LABELS
7
STANDARD
10
348.0000
20
-961.0000
30
0.0
40
4.6
1
AREA 9,216 SF (0.212 ac)
50
0.0
0
TEXT
8
SHEET_LABELS
7
STANDARD
10
348.0000
20
-968.0000
30
0.0
40
4.0
1
PERIMETER 376.27'   VERTICES 5   CLOSING SIDE 0.00'
50
0.0
0
TEXT
8
SHEET_LABELS
7
STANDARD
10
348.0000
20
-975.0000
30
0.0
40
3.4
1
all geometric checks passed: closed single polyline, no self-intersection, no overlap, no spikes
50
0.0
0
LINE
8
SHEET_FRAME
10
680.0000
20
-1200.0000
30
0.0
11
980.0000
21
-1200.0000
31
0.0
0
LINE
8
SHEET_FRAME
10
980.0000
20
-1200.0000
30
0.0
11
980.0000
21
-940.0000
31
0.0
0
LINE
8
SHEET_FRAME
10
980.0000
20
-940.0000
30
0.0
11
680.0000
21
-940.0000
31
0.0
0
LINE
8
SHEET_FRAME
10
680.0000
20
-940.0000
30
0.0
11
680.0000
21
-1200.0000
31
0.0
0
POLYLINE
8
LOT_POLYLINE
66
1
70
1
0
VERTEX
8
LOT_POLYLINE
10
713.0519
20
-1174.0000
30
0.0
0
VERTEX
8
LOT_POLYLINE
10
863.5527
20
-1167.6702
30
0.0
0
VERTEX
8
LOT_POLYLINE
10
856.5008
20
-1000.0000
30
0.0
0
VERTEX
8
LOT_POLYLINE
10
706.0000
20
-1006.3298
30
0.0
0
SEQEND
0
TEXT
8
SHEET_LABELS
6
ROT_2.41
7
STANDARD
10
788.1762
20
-1167.8378
30
0.0
40
3.4
1
N87%%d35'30.00"E
50
2.41
72
1
11
788.1762
21
-1167.8378
31
0.0
73
1
0
TEXT
8
SHEET_LABELS
6
ROT_2.41
7
STANDARD
10
788.4284
20
-1173.8325
30
0.0
40
3.2
1
89.76'
50
2.41
72
1
11
788.4284
21
-1173.8325
31
0.0
73
3
0
POINT
8
SHEET_LABELS
10
713.0519
20
-1174.0000
30
0.0
0
TEXT
8
SHEET_LABELS
6
ROT_92.41
7
STANDARD
10
857.0294
20
-1083.9612
30
0.0
40
3.4
1
N02%%d24'30.00"W
50
92.41
72
1
11
857.0294
21
-1083.9612
31
0.0
73
1
0
TEXT
8
SHEET_LABELS
6
ROT_92.41
7
STANDARD
10
863.0241
20
-1083.7090
30
0.0
40
3.2
1
100.00'
50
92.41
72
1
11
863.0241
21
-1083.7090
31
0.0
73
3
0
POINT
8
SHEET_LABELS
10
863.5527
20
-1167.6702
30
0.0
0
TEXT
8
SHEET_LABELS
6
ROT_2.41
7
STANDARD
10
781.1243
20
-1000.1675
30
0.0
40
3.4
1
S87%%d35'30.00"W
50
2.41
72
1
11
781.1243
21
-1000.1675
31
0.0
73
1
0
TEXT
8
SHEET_LABELS
6
ROT_2.41
7
STANDARD
10
781.3765
20
-1006.1622
30
0.0
40
3.2
1
89.76'
50
2.41
72
1
11
781.3765
21
-1006.1622
31
0.0
73
3
0
POINT
8
SHEET_LABELS
10
856.5008
20
-1000.0000
30
0.0
0
TEXT
8
SHEET_LABELS
6
ROT_92.41
7
STANDARD
10
706.5286
20
-1090.2910
30
0.0
40
3.4
1
S02%%d24'30.00"E
50
92.41
72
1
11
706.5286
21
-1090.2910
31
0.0
73
1
0
TEXT
8
SHEET_LABELS
6
ROT_92.41
7
STANDARD
10
712.5233
20
-1090.0388
30
0.0
40
3.2
1
100.00'
50
92.41
72
1
11
712.5233
21
-1090.0388
31
0.0
73
3
0
POINT
8
SHEET_LABELS
10
706.0000
20
-1006.3298
30
0.0
0
TEXT
8
SHEET_LABELS
7
STANDARD
10
688.0000
20
-950.0000
30
0.0
40
8.0
1
LOT Blk 16 - Lot 32   PASS
50
0.0
0
TEXT
8
SHEET_LABELS
7
STANDARD
10
688.0000
20
-961.0000
30
0.0
40
4.6
1
AREA 8,976 SF (0.206 ac)
50
0.0
0
TEXT
8
SHEET_LABELS
7
STANDARD
10
688.0000
20
-968.0000
30
0.0
40
4.0
1
PERIMETER 379.52'   VERTICES 4   CLOSING SIDE 0.00'
50
0.0
0
TEXT
8
SHEET_LABELS
7
STANDARD
10
688.0000
20
-975.0000
30
0.0
40
3.4
1
all geometric checks passed: closed single polyline, no self-intersection, no overlap, no spikes
50
0.0
0
LINE
8
SHEET_FRAME
10
1020.0000
20
-1200.0000
30
0.0
11
1320.0000
21
-1200.0000
31
0.0
0
LINE
8
SHEET_FRAME
10
1320.0000
20
-1200.0000
30
0.0
11
1320.0000
21
-940.0000
31
0.0
0
LINE
8
SHEET_FRAME
10
1320.0000
20
-940.0000
30
0.0
11
1020.0000
21
-940.0000
31
0.0
0
LINE
8
SHEET_FRAME
10
1020.0000
20
-940.0000
30
0.0
11
1020.0000
21
-1200.0000
31
0.0
0
POLYLINE
8
LOT_POLYLINE
66
1
70
1
0
VERTEX
8
LOT_POLYLINE
10
1052.6290
20
-1164.9072
30
0.0
0
VERTEX
8
LOT_POLYLINE
10
1186.7893
20
-1174.0000
30
0.0
0
VERTEX
8
LOT_POLYLINE
10
1219.3769
20
-1000.0000
30
0.0
0
VERTEX
8
LOT_POLYLINE
10
1046.0000
20
-1007.2919
30
0.0
0
SEQEND
0
POLYLINE
8
LOT_POLYLINE
66
1
70
0
0
VERTEX
8
LOT_POLYLINE
10
1052.6290
20
-1164.9072
30
0.0
0
VERTEX
8
LOT_POLYLINE
10
1061.0449
20
-1164.6111
30
0.0
0
VERTEX
8
LOT_POLYLINE
10
1069.4640
20
-1164.4303
30
0.0
0
VERTEX
8
LOT_POLYLINE
10
1077.8848
20
-1164.3651
30
0.0
0
VERTEX
8
LOT_POLYLINE
10
1086.3057
20
-1164.4153
30
0.0
0
VERTEX
8
LOT_POLYLINE
10
1094.7252
20
-1164.5810
30
0.0
0
VERTEX
8
LOT_POLYLINE
10
1103.1415
20
-1164.8621
30
0.0
0
VERTEX
8
LOT_POLYLINE
10
1111.5533
20
-1165.2586
30
0.0
0
VERTEX
8
LOT_POLYLINE
10
1119.9588
20
-1165.7704
30
0.0
0
VERTEX
8
LOT_POLYLINE
10
1128.3565
20
-1166.3974
30
0.0
0
VERTEX
8
LOT_POLYLINE
10
1136.7448
20
-1167.1396
30
0.0
0
VERTEX
8
LOT_POLYLINE
10
1145.1221
20
-1167.9966
30
0.0
0
VERTEX
8
LOT_POLYLINE
10
1153.4869
20
-1168.9685
30
0.0
0
VERTEX
8
LOT_POLYLINE
10
1161.8376
20
-1170.0550
30
0.0
0
VERTEX
8
LOT_POLYLINE
10
1170.1726
20
-1171.2559
30
0.0
0
VERTEX
8
LOT_POLYLINE
10
1178.4903
20
-1172.5710
30
0.0
0
VERTEX
8
LOT_POLYLINE
10
1186.7893
20
-1174.0000
30
0.0
0
SEQEND
0
TEXT
8
SHEET_LABELS
6
ROT_356.12
7
STANDARD
10
1119.9120
20
-1166.4605
30
0.0
40
3.4
1
S86%%d07'21.67"E
50
356.12
72
1
11
1119.9120
21
-1166.4605
31
0.0
73
1
0
TEXT
8
SHEET_LABELS
6
ROT_356.12
7
STANDARD
10
1119.5063
20
-1172.4468
30
0.0
40
3.2
1
85.24'
50
356.12
72
1
11
1119.5063
21
-1172.4468
31
0.0
73
3
0
POINT
8
SHEET_LABELS
10
1052.6290
20
-1164.9072
30
0.0
0
TEXT
8
SHEET_LABELS
6
ROT_79.39
7
STANDARD
10
1200.1343
20
-1086.4477
30
0.0
40
3.4
1
N10%%d36'27.92"E
50
79.39
72
1
11
1200.1343
21
-1086.4477
31
0.0
73
1
0
TEXT
8
SHEET_LABELS
6
ROT_79.39
7
STANDARD
10
1206.0318
20
-1087.5523
30
0.0
40
3.2
1
112.22'
50
79.39
72
1
11
1206.0318
21
-1087.5523
31
0.0
73
3
0
POINT
8
SHEET_LABELS
10
1186.7893
20
-1174.0000
30
0.0
0
TEXT
8
SHEET_LABELS
6
ROT_2.41
7
STANDARD
10
1132.5624
20
-1000.6486
30
0.0
40
3.4
1
S87%%d35'30.00"W
50
2.41
72
1
11
1132.5624
21
-1000.6486
31
0.0
73
1
0
TEXT
8
SHEET_LABELS
6
ROT_2.41
7
STANDARD
10
1132.8145
20
-1006.6433
30
0.0
40
3.2
1
110.00'
50
2.41
72
1
11
1132.8145
21
-1006.6433
31
0.0
73
3
0
POINT
8
SHEET_LABELS
10
1219.3769
20
-1000.0000
30
0.0
0
TEXT
8
SHEET_LABELS
6
ROT_92.41
7
STANDARD
10
1046.3172
20
-1086.2256
30
0.0
40
3.4
1
S02%%d24'30.00"E
50
92.41
72
1
11
1046.3172
21
-1086.2256
31
0.0
73
1
0
TEXT
8
SHEET_LABELS
6
ROT_92.41
7
STANDARD
10
1052.3119
20
-1085.9735
30
0.0
40
3.2
1
100.00'
50
92.41
72
1
11
1052.3119
21
-1085.9735
31
0.0
73
3
0
POINT
8
SHEET_LABELS
10
1046.0000
20
-1007.2919
30
0.0
0
TEXT
8
SHEET_LABELS
7
STANDARD
10
1028.0000
20
-950.0000
30
0.0
40
8.0
1
LOT Blk 16 - Lot 31   PASS
50
0.0
0
TEXT
8
SHEET_LABELS
7
STANDARD
10
1028.0000
20
-961.0000
30
0.0
40
4.6
1
AREA 10,117 SF (0.232 ac)
50
0.0
0
TEXT
8
SHEET_LABELS
7
STANDARD
10
1028.0000
20
-968.0000
30
0.0
40
4.0
1
PERIMETER 407.63'   VERTICES 4   CLOSING SIDE 0.00'
50
0.0
0
TEXT
8
SHEET_LABELS
7
STANDARD
10
1028.0000
20
-975.0000
30
0.0
40
3.4
1
all geometric checks passed: closed single polyline, no self-intersection, no overlap, no spikes
50
0.0
0
LINE
8
SHEET_FRAME
10
0.0000
20
-1500.0000
30
0.0
11
300.0000
21
-1500.0000
31
0.0
0
LINE
8
SHEET_FRAME
10
300.0000
20
-1500.0000
30
0.0
11
300.0000
21
-1240.0000
31
0.0
0
LINE
8
SHEET_FRAME
10
300.0000
20
-1240.0000
30
0.0
11
0.0000
21
-1240.0000
31
0.0
0
LINE
8
SHEET_FRAME
10
0.0000
20
-1240.0000
30
0.0
11
0.0000
21
-1500.0000
31
0.0
0
POLYLINE
8
LOT_POLYLINE
66
1
70
1
0
VERTEX
8
LOT_POLYLINE
10
26.0000
20
-1443.7990
30
0.0
0
VERTEX
8
LOT_POLYLINE
10
128.2937
20
-1474.0000
30
0.0
0
VERTEX
8
LOT_POLYLINE
10
189.3690
20
-1300.0000
30
0.0
0
VERTEX
8
LOT_POLYLINE
10
51.8482
20
-1305.7839
30
0.0
0
SEQEND
0
POLYLINE
8
LOT_POLYLINE
66
1
70
0
0
VERTEX
8
LOT_POLYLINE
10
26.0000
20
-1443.7990
30
0.0
0
VERTEX
8
LOT_POLYLINE
10
32.5665
20
-1445.0226
30
0.0
0
VERTEX
8
LOT_POLYLINE
10
39.1155
20
-1446.3362
30
0.0
0
VERTEX
8
LOT_POLYLINE
10
45.6460
20
-1447.7395
30
0.0
0
VERTEX
8
LOT_POLYLINE
10
52.1566
20
-1449.2321
30
0.0
0
VERTEX
8
LOT_POLYLINE
10
58.6461
20
-1450.8140
30
0.0
0
VERTEX
8
LOT_POLYLINE
10
65.1133
20
-1452.4846
30
0.0
0
VERTEX
8
LOT_POLYLINE
10
71.5570
20
-1454.2438
30
0.0
0
VERTEX
8
LOT_POLYLINE
10
77.9760
20
-1456.0911
30
0.0
0
VERTEX
8
LOT_POLYLINE
10
84.3690
20
-1458.0264
30
0.0
0
VERTEX
8
LOT_POLYLINE
10
90.7349
20
-1460.0491
30
0.0
0
VERTEX
8
LOT_POLYLINE
10
97.0724
20
-1462.1589
30
0.0
0
VERTEX
8
LOT_POLYLINE
10
103.3805
20
-1464.3554
30
0.0
0
VERTEX
8
LOT_POLYLINE
10
109.6578
20
-1466.6382
30
0.0
0
VERTEX
8
LOT_POLYLINE
10
115.9032
20
-1469.0069
30
0.0
0
VERTEX
8
LOT_POLYLINE
10
122.1155
20
-1471.4610
30
0.0
0
VERTEX
8
LOT_POLYLINE
10
128.2937
20
-1474.0000
30
0.0
0
SEQEND
0
TEXT
8
SHEET_LABELS
6
ROT_343.55
7
STANDARD
10
77.9963
20
-1456.0223
30
0.0
40
3.4
1
S73%%d33'05.00"E
50
343.55
72
1
11
77.9963
21
-1456.0223
31
0.0
73
1
0
TEXT
8
SHEET_LABELS
6
ROT_343.55
7
STANDARD
10
76.2974
20
-1461.7767
30
0.0
40
3.2
1
85.24'
50
343.55
72
1
11
76.2974
21
-1461.7767
31
0.0
73
3
0
POINT
8
SHEET_LABELS
10
26.0000
20
-1443.7990
30
0.0
0
TEXT
8
SHEET_LABELS
6
ROT_70.66
7
STANDARD
10
156.0007
20
-1386.0064
30
0.0
40
3.4
1
N19%%d20'29.31"E
50
70.66
72
1
11
156.0007
21
-1386.0064
31
0.0
73
1
0
TEXT
8
SHEET_LABELS
6
ROT_70.66
7
STANDARD
10
161.6620
20
-1387.9936
30
0.0
40
3.2
1
147.37'
50
70.66
72
1
11
161.6620
21
-1387.9936
31
0.0
73
3
0
POINT
8
SHEET_LABELS
10
128.2937
20
-1474.0000
30
0.0
0
TEXT
8
SHEET_LABELS
6
ROT_2.41
7
STANDARD
10
120.4825
20
-1299.8946
30
0.0
40
3.4
1
S87%%d35'30.00"W
50
2.41
72
1
11
120.4825
21
-1299.8946
31
0.0
73
1
0
TEXT
8
SHEET_LABELS
6
ROT_2.41
7
STANDARD
10
120.7347
20
-1305.8893
30
0.0
40
3.2
1
110.00'
50
2.41
72
1
11
120.7347
21
-1305.8893
31
0.0
73
3
0
POINT
8
SHEET_LABELS
10
189.3690
20
-1300.0000
30
0.0
0
TEXT
8
SHEET_LABELS
6
ROT_79.39
7
STANDARD
10
35.9754
20
-1374.2392
30
0.0
40
3.4
1
S10%%d36'27.92"W
50
79.39
72
1
11
35.9754
21
-1374.2392
31
0.0
73
1
0
TEXT
8
SHEET_LABELS
6
ROT_79.39
7
STANDARD
10
41.8728
20
-1375.3437
30
0.0
40
3.2
1
112.22'
50
79.39
72
1
11
41.8728
21
-1375.3437
31
0.0
73
3
0
POINT
8
SHEET_LABELS
10
51.8482
20
-1305.7839
30
0.0
0
TEXT
8
SHEET_LABELS
7
STANDARD
10
8.0000
20
-1250.0000
30
0.0
40
8.0
1
LOT Blk 16 - Lot 30   PASS
50
0.0
0
TEXT
8
SHEET_LABELS
7
STANDARD
10
8.0000
20
-1261.0000
30
0.0
40
4.6
1
AREA 12,153 SF (0.279 ac)
50
0.0
0
TEXT
8
SHEET_LABELS
7
STANDARD
10
8.0000
20
-1268.0000
30
0.0
40
4.0
1
PERIMETER 455.00'   VERTICES 4   CLOSING SIDE 0.00'
50
0.0
0
TEXT
8
SHEET_LABELS
7
STANDARD
10
8.0000
20
-1275.0000
30
0.0
40
3.4
1
all geometric checks passed: closed single polyline, no self-intersection, no overlap, no spikes
50
0.0
0
LINE
8
SHEET_FRAME
10
340.0000
20
-1500.0000
30
0.0
11
640.0000
21
-1500.0000
31
0.0
0
LINE
8
SHEET_FRAME
10
640.0000
20
-1500.0000
30
0.0
11
640.0000
21
-1240.0000
31
0.0
0
LINE
8
SHEET_FRAME
10
640.0000
20
-1240.0000
30
0.0
11
340.0000
21
-1240.0000
31
0.0
0
LINE
8
SHEET_FRAME
10
340.0000
20
-1240.0000
30
0.0
11
340.0000
21
-1500.0000
31
0.0
0
POLYLINE
8
LOT_POLYLINE
66
1
70
1
0
VERTEX
8
LOT_POLYLINE
10
366.0000
20
-1430.7912
30
0.0
0
VERTEX
8
LOT_POLYLINE
10
436.1070
20
-1469.6840
30
0.0
0
VERTEX
8
LOT_POLYLINE
10
468.8861
20
-1464.0842
30
0.0
0
VERTEX
8
LOT_POLYLINE
10
501.9208
20
-1428.4153
30
0.0
0
VERTEX
8
LOT_POLYLINE
10
411.9087
20
-1300.0000
30
0.0
0
SEQEND
0
POLYLINE
8
LOT_POLYLINE
66
1
70
0
0
VERTEX
8
LOT_POLYLINE
10
366.0000
20
-1430.7912
30
0.0
0
VERTEX
8
LOT_POLYLINE
10
370.6173
20
-1432.7632
30
0.0
0
VERTEX
8
LOT_POLYLINE
10
375.2072
20
-1434.7984
30
0.0
0
VERTEX
8
LOT_POLYLINE
10
379.7687
20
-1436.8963
30
0.0
0
VERTEX
8
LOT_POLYLINE
10
384.3010
20
-1439.0566
30
0.0
0
VERTEX
8
LOT_POLYLINE
10
388.8032
20
-1441.2788
30
0.0
0
VERTEX
8
LOT_POLYLINE
10
393.2746
20
-1443.5625
30
0.0
0
VERTEX
8
LOT_POLYLINE
10
397.7142
20
-1445.9074
30
0.0
0
VERTEX
8
LOT_POLYLINE
10
402.1213
20
-1448.3129
30
0.0
0
VERTEX
8
LOT_POLYLINE
10
406.4949
20
-1450.7786
30
0.0
0
VERTEX
8
LOT_POLYLINE
10
410.8343
20
-1453.3040
30
0.0
0
VERTEX
8
LOT_POLYLINE
10
415.1387
20
-1455.8888
30
0.0
0
VERTEX
8
LOT_POLYLINE
10
419.4073
20
-1458.5323
30
0.0
0
VERTEX
8
LOT_POLYLINE
10
423.6392
20
-1461.2340
30
0.0
0
VERTEX
8
LOT_POLYLINE
10
427.8336
20
-1463.9936
30
0.0
0
VERTEX
8
LOT_POLYLINE
10
431.9898
20
-1466.8104
30
0.0
0
VERTEX
8
LOT_POLYLINE
10
436.1070
20
-1469.6840
30
0.0
0
SEQEND
0
POLYLINE
8
LOT_POLYLINE
66
1
70
0
0
VERTEX
8
LOT_POLYLINE
10
436.1070
20
-1469.6840
30
0.0
0
VERTEX
8
LOT_POLYLINE
10
438.0533
20
-1470.9236
30
0.0
0
VERTEX
8
LOT_POLYLINE
10
440.1118
20
-1471.9665
30
0.0
0
VERTEX
8
LOT_POLYLINE
10
442.2626
20
-1472.8026
30
0.0
0
VERTEX
8
LOT_POLYLINE
10
444.4849
20
-1473.4238
30
0.0
0
VERTEX
8
LOT_POLYLINE
10
446.7575
20
-1473.8242
30
0.0
0
VERTEX
8
LOT_POLYLINE
10
449.0584
20
-1474.0000
30
0.0
0
VERTEX
8
LOT_POLYLINE
10
451.3654
20
-1473.9494
30
0.0
0
VERTEX
8
LOT_POLYLINE
10
453.6563
20
-1473.6729
30
0.0
0
VERTEX
8
LOT_POLYLINE
10
455.9091
20
-1473.1732
30
0.0
0
VERTEX
8
LOT_POLYLINE
10
458.1021
20
-1472.4550
30
0.0
0
VERTEX
8
LOT_POLYLINE
10
460.2141
20
-1471.5254
30
0.0
0
VERTEX
8
LOT_POLYLINE
10
462.2249
20
-1470.3932
30
0.0
0
VERTEX
8
LOT_POLYLINE
10
464.1150
20
-1469.0695
30
0.0
0
VERTEX
8
LOT_POLYLINE
10
465.8662
20
-1467.5668
30
0.0
0
VERTEX
8
LOT_POLYLINE
10
467.4617
20
-1465.8997
30
0.0
0
VERTEX
8
LOT_POLYLINE
10
468.8861
20
-1464.0842
30
0.0
0
SEQEND
0
POLYLINE
8
LOT_POLYLINE
66
1
70
0
0
VERTEX
8
LOT_POLYLINE
10
468.8861
20
-1464.0842
30
0.0
0
VERTEX
8
LOT_POLYLINE
10
470.6674
20
-1461.6118
30
0.0
0
VERTEX
8
LOT_POLYLINE
10
472.4888
20
-1459.1690
30
0.0
0
VERTEX
8
LOT_POLYLINE
10
474.3500
20
-1456.7562
30
0.0
0
VERTEX
8
LOT_POLYLINE
10
476.2504
20
-1454.3743
30
0.0
0
VERTEX
8
LOT_POLYLINE
10
478.1896
20
-1452.0237
30
0.0
0
VERTEX
8
LOT_POLYLINE
10
480.1670
20
-1449.7052
30
0.0
0
VERTEX
8
LOT_POLYLINE
10
482.1820
20
-1447.4194
30
0.0
0
VERTEX
8
LOT_POLYLINE
10
484.2342
20
-1445.1669
30
0.0
0
VERTEX
8
LOT_POLYLINE
10
486.3230
20
-1442.9482
30
0.0
0
VERTEX
8
LOT_POLYLINE
10
488.4478
20
-1440.7641
30
0.0
0
VERTEX
8
LOT_POLYLINE
10
490.6081
20
-1438.6150
30
0.0
0
VERTEX
8
LOT_POLYLINE
10
492.8032
20
-1436.5015
30
0.0
0
VERTEX
8
LOT_POLYLINE
10
495.0327
20
-1434.4243
30
0.0
0
VERTEX
8
LOT_POLYLINE
10
497.2958
20
-1432.3838
30
0.0
0
VERTEX
8
LOT_POLYLINE
10
499.5921
20
-1430.3806
30
0.0
0
VERTEX
8
LOT_POLYLINE
10
501.9208
20
-1428.4153
30
0.0
0
SEQEND
0
TEXT
8
SHEET_LABELS
6
ROT_330.98
7
STANDARD
10
402.5088
20
-1447.6142
30
0.0
40
3.4
1
S60%%d58'48.33"E
50
330.98
72
1
11
402.5088
21
-1447.6142
31
0.0
73
1
0
TEXT
8
SHEET_LABELS
6
ROT_330.98
7
STANDARD
10
399.5982
20
-1452.8609
30
0.0
40
3.2
1
85.24'
50
330.98
72
1
11
399.5982
21
-1452.8609
31
0.0
73
3
0
POINT
8
SHEET_LABELS
10
366.0000
20
-1430.7912
30
0.0
0
TEXT
8
SHEET_LABELS
6
ROT_9.69
7
STANDARD
10
451.9914
20
-1463.9269
30
0.0
40
3.4
1
N80%%d18'20.00"E
50
9.69
72
1
11
451.9914
21
-1463.9269
31
0.0
73
1
0
TEXT
8
SHEET_LABELS
6
ROT_9.69
7
STANDARD
10
453.0017
20
-1469.8413
30
0.0
40
3.2
1
35.36'
50
9.69
72
1
11
453.0017
21
-1469.8413
31
0.0
73
3
0
POINT
8
SHEET_LABELS
10
436.1070
20
-1469.6840
30
0.0
0
TEXT
8
SHEET_LABELS
6
ROT_47.20
7
STANDARD
10
483.2024
20
-1444.2113
30
0.0
40
3.4
1
N42%%d48'15.10"E
50
47.2
72
1
11
483.2024
21
-1444.2113
31
0.0
73
1
0
TEXT
8
SHEET_LABELS
6
ROT_47.20
7
STANDARD
10
487.6045
20
-1448.2882
30
0.0
40
3.2
1
51.69'
50
47.2
72
1
11
487.6045
21
-1448.2882
31
0.0
73
3
0
POINT
8
SHEET_LABELS
10
468.8861
20
-1464.0842
30
0.0
0
TEXT
8
SHEET_LABELS
6
ROT_305.03
7
STANDARD
10
459.3714
20
-1362.4857
30
0.0
40
3.4
1
N35%%d01'42.00"W
50
305.03
72
1
11
459.3714
21
-1362.4857
31
0.0
73
1
0
TEXT
8
SHEET_LABELS
6
ROT_305.03
7
STANDARD
10
454.4581
20
-1365.9296
30
0.0
40
3.2
1
166.73'
50
305.03
72
1
11
454.4581
21
-1365.9296
31
0.0
73
3
0
POINT
8
SHEET_LABELS
10
501.9208
20
-1428.4153
30
0.0
0
TEXT
8
SHEET_LABELS
6
ROT_70.66
7
STANDARD
10
386.1237
20
-1364.4020
30
0.0
40
3.4
1
S19%%d20'29.31"W
50
70.66
72
1
11
386.1237
21
-1364.4020
31
0.0
73
1
0
TEXT
8
SHEET_LABELS
6
ROT_70.66
7
STANDARD
10
391.7851
20
-1366.3892
30
0.0
40
3.2
1
147.37'
50
70.66
72
1
11
391.7851
21
-1366.3892
31
0.0
73
3
0
POINT
8
SHEET_LABELS
10
411.9087
20
-1300.0000
30
0.0
0
TEXT
8
SHEET_LABELS
7
STANDARD
10
348.0000
20
-1250.0000
30
0.0
40
8.0
1
LOT Blk 16 - Lot 29   PASS
50
0.0
0
TEXT
8
SHEET_LABELS
7
STANDARD
10
348.0000
20
-1261.0000
30
0.0
40
4.6
1
AREA 13,611 SF (0.312 ac)
50
0.0
0
TEXT
8
SHEET_LABELS
7
STANDARD
10
348.0000
20
-1268.0000
30
0.0
40
4.0
1
PERIMETER 490.62'   VERTICES 5   CLOSING SIDE 0.00'
50
0.0
0
TEXT
8
SHEET_LABELS
7
STANDARD
10
348.0000
20
-1275.0000
30
0.0
40
3.4
1
all geometric checks passed: closed single polyline, no self-intersection, no overlap, no spikes
50
0.0
0
LINE
8
SHEET_FRAME
10
680.0000
20
-1500.0000
30
0.0
11
980.0000
21
-1500.0000
31
0.0
0
LINE
8
SHEET_FRAME
10
980.0000
20
-1500.0000
30
0.0
11
980.0000
21
-1240.0000
31
0.0
0
LINE
8
SHEET_FRAME
10
980.0000
20
-1240.0000
30
0.0
11
680.0000
21
-1240.0000
31
0.0
0
LINE
8
SHEET_FRAME
10
680.0000
20
-1240.0000
30
0.0
11
680.0000
21
-1500.0000
31
0.0
0
POLYLINE
8
LOT_POLYLINE
66
1
70
1
0
VERTEX
8
LOT_POLYLINE
10
823.9704
20
-1474.0000
30
0.0
0
VERTEX
8
LOT_POLYLINE
10
897.5903
20
-1432.0077
30
0.0
0
VERTEX
8
LOT_POLYLINE
10
841.4785
20
-1300.0000
30
0.0
0
VERTEX
8
LOT_POLYLINE
10
706.0000
20
-1305.6980
30
0.0
0
SEQEND
0
POLYLINE
8
LOT_POLYLINE
66
1
70
0
0
VERTEX
8
LOT_POLYLINE
10
823.9704
20
-1474.0000
30
0.0
0
VERTEX
8
LOT_POLYLINE
10
828.1035
20
-1470.6440
30
0.0
0
VERTEX
8
LOT_POLYLINE
10
832.3088
20
-1467.3790
30
0.0
0
VERTEX
8
LOT_POLYLINE
10
836.5844
20
-1464.2065
30
0.0
0
VERTEX
8
LOT_POLYLINE
10
840.9281
20
-1461.1280
30
0.0
0
VERTEX
8
LOT_POLYLINE
10
845.3380
20
-1458.1450
30
0.0
0
VERTEX
8
LOT_POLYLINE
10
849.8119
20
-1455.2590
30
0.0
0
VERTEX
8
LOT_POLYLINE
10
854.3477
20
-1452.4712
30
0.0
0
VERTEX
8
LOT_POLYLINE
10
858.9432
20
-1449.7831
30
0.0
0
VERTEX
8
LOT_POLYLINE
10
863.5963
20
-1447.1958
30
0.0
0
VERTEX
8
LOT_POLYLINE
10
868.3048
20
-1444.7107
30
0.0
0
VERTEX
8
LOT_POLYLINE
10
873.0663
20
-1442.3289
30
0.0
0
VERTEX
8
LOT_POLYLINE
10
877.8787
20
-1440.0516
30
0.0
0
VERTEX
8
LOT_POLYLINE
10
882.7396
20
-1437.8798
30
0.0
0
VERTEX
8
LOT_POLYLINE
10
887.6467
20
-1435.8146
30
0.0
0
VERTEX
8
LOT_POLYLINE
10
892.5977
20
-1433.8569
30
0.0
0
VERTEX
8
LOT_POLYLINE
10
897.5903
20
-1432.0077
30
0.0
0
SEQEND
0
TEXT
8
SHEET_LABELS
6
ROT_29.70
7
STANDARD
10
859.2940
20
-1450.3980
30
0.0
40
3.4
1
N60%%d17'59.38"E
50
29.7
72
1
11
859.2940
21
-1450.3980
31
0.0
73
1
0
TEXT
8
SHEET_LABELS
6
ROT_29.70
7
STANDARD
10
862.2667
20
-1455.6097
30
0.0
40
3.2
1
68.75'
50
29.7
72
1
11
862.2667
21
-1455.6097
31
0.0
73
3
0
POINT
8
SHEET_LABELS
10
823.9704
20
-1474.0000
30
0.0
0
TEXT
8
SHEET_LABELS
6
ROT_293.03
7
STANDARD
10
872.2953
20
-1364.8303
30
0.0
40
3.4
1
N23%%d01'43.00"W
50
293.03
72
1
11
872.2953
21
-1364.8303
31
0.0
73
1
0
TEXT
8
SHEET_LABELS
6
ROT_293.03
7
STANDARD
10
866.7735
20
-1367.1774
30
0.0
40
3.2
1
116.36'
50
293.03
72
1
11
866.7735
21
-1367.1774
31
0.0
73
3
0
POINT
8
SHEET_LABELS
10
897.5903
20
-1432.0077
30
0.0
0
TEXT
8
SHEET_LABELS
6
ROT_2.41
7
STANDARD
10
773.6132
20
-1299.8516
30
0.0
40
3.4
1
S87%%d35'30.00"W
50
2.41
72
1
11
773.6132
21
-1299.8516
31
0.0
73
1
0
TEXT
8
SHEET_LABELS
6
ROT_2.41
7
STANDARD
10
773.8653
20
-1305.8463
30
0.0
40
3.2
1
110.00'
50
2.41
72
1
11
773.8653
21
-1305.8463
31
0.0
73
3
0
POINT
8
SHEET_LABELS
10
841.4785
20
-1300.0000
30
0.0
0
TEXT
8
SHEET_LABELS
6
ROT_305.03
7
STANDARD
10
767.4418
20
-1388.1270
30
0.0
40
3.4
1
S35%%d01'42.00"E
50
305.03
72
1
11
767.4418
21
-1388.1270
31
0.0
73
1
0
TEXT
8
SHEET_LABELS
6
ROT_305.03
7
STANDARD
10
762.5286
20
-1391.5709
30
0.0
40
3.2
1
166.73'
50
305.03
72
1
11
762.5286
21
-1391.5709
31
0.0
73
3
0
POINT
8
SHEET_LABELS
10
706.0000
20
-1305.6980
30
0.0
0
TEXT
8
SHEET_LABELS
7
STANDARD
10
688.0000
20
-1250.0000
30
0.0
40
8.0
1
LOT Blk 16 - Lot 28   PASS
50
0.0
0
TEXT
8
SHEET_LABELS
7
STANDARD
10
688.0000
20
-1261.0000
30
0.0
40
4.6
1
AREA 11,559 SF (0.265 ac)
50
0.0
0
TEXT
8
SHEET_LABELS
7
STANDARD
10
688.0000
20
-1268.0000
30
0.0
40
4.0
1
PERIMETER 462.19'   VERTICES 4   CLOSING SIDE 0.00'
50
0.0
0
TEXT
8
SHEET_LABELS
7
STANDARD
10
688.0000
20
-1275.0000
30
0.0
40
3.4
1
all geometric checks passed: closed single polyline, no self-intersection, no overlap, no spikes
50
0.0
0
LINE
8
SHEET_FRAME
10
1020.0000
20
-1500.0000
30
0.0
11
1320.0000
21
-1500.0000
31
0.0
0
LINE
8
SHEET_FRAME
10
1320.0000
20
-1500.0000
30
0.0
11
1320.0000
21
-1240.0000
31
0.0
0
LINE
8
SHEET_FRAME
10
1320.0000
20
-1240.0000
30
0.0
11
1020.0000
21
-1240.0000
31
0.0
0
LINE
8
SHEET_FRAME
10
1020.0000
20
-1240.0000
30
0.0
11
1020.0000
21
-1500.0000
31
0.0
0
POLYLINE
8
LOT_POLYLINE
66
1
70
1
0
VERTEX
8
LOT_POLYLINE
10
1046.0000
20
-1306.9006
30
0.0
0
VERTEX
8
LOT_POLYLINE
10
1210.0720
20
-1300.0000
30
0.0
0
VERTEX
8
LOT_POLYLINE
10
1216.6289
20
-1455.9027
30
0.0
0
VERTEX
8
LOT_POLYLINE
10
1208.1457
20
-1456.2344
30
0.0
0
VERTEX
8
LOT_POLYLINE
10
1117.0280
20
-1474.0000
30
0.0
0
SEQEND
0
POLYLINE
8
LOT_POLYLINE
66
1
70
0
0
VERTEX
8
LOT_POLYLINE
10
1208.1457
20
-1456.2344
30
0.0
0
VERTEX
8
LOT_POLYLINE
10
1202.3293
20
-1456.5321
30
0.0
0
VERTEX
8
LOT_POLYLINE
10
1196.5194
20
-1456.9395
30
0.0
0
VERTEX
8
LOT_POLYLINE
10
1190.7184
20
-1457.4563
30
0.0
0
VERTEX
8
LOT_POLYLINE
10
1184.9280
20
-1458.0824
30
0.0
0
VERTEX
8
LOT_POLYLINE
10
1179.1506
20
-1458.8175
30
0.0
0
VERTEX
8
LOT_POLYLINE
10
1173.3880
20
-1459.6615
30
0.0
0
VERTEX
8
LOT_POLYLINE
10
1167.6423
20
-1460.6139
30
0.0
0
VERTEX
8
LOT_POLYLINE
10
1161.9156
20
-1461.6745
30
0.0
0
VERTEX
8
LOT_POLYLINE
10
1156.2100
20
-1462.8429
30
0.0
0
VERTEX
8
LOT_POLYLINE
10
1150.5273
20
-1464.1187
30
0.0
0
VERTEX
8
LOT_POLYLINE
10
1144.8698
20
-1465.5014
30
0.0
0
VERTEX
8
LOT_POLYLINE
10
1139.2393
20
-1466.9905
30
0.0
0
VERTEX
8
LOT_POLYLINE
10
1133.6379
20
-1468.5855
30
0.0
0
VERTEX
8
LOT_POLYLINE
10
1128.0676
20
-1470.2858
30
0.0
0
VERTEX
8
LOT_POLYLINE
10
1122.5303
20
-1472.0909
30
0.0
0
VERTEX
8
LOT_POLYLINE
10
1117.0280
20
-1474.0000
30
0.0
0
SEQEND
0
TEXT
8
SHEET_LABELS
6
ROT_2.41
7
STANDARD
10
1127.9099
20
-1300.4529
30
0.0
40
3.4
1
N87%%d35'30.00"E
50
2.41
72
1
11
1127.9099
21
-1300.4529
31
0.0
73
1
0
TEXT
8
SHEET_LABELS
6
ROT_2.41
7
STANDARD
10
1128.1620
20
-1306.4476
30
0.0
40
3.2
1
105.24'
50
2.41
72
1
11
1128.1620
21
-1306.4476
31
0.0
73
3
0
POINT
8
SHEET_LABELS
10
1046.0000
20
-1306.9006
30
0.0
0
TEXT
8
SHEET_LABELS
6
ROT_92.41
7
STANDARD
10
1210.3531
20
-1378.0774
30
0.0
40
3.4
1
S02%%d24'30.00"E
50
92.41
72
1
11
1210.3531
21
-1378.0774
31
0.0
73
1
0
TEXT
8
SHEET_LABELS
6
ROT_92.41
7
STANDARD
10
1216.3478
20
-1377.8253
30
0.0
40
3.2
1
100.00'
50
92.41
72
1
11
1216.3478
21
-1377.8253
31
0.0
73
3
0
POINT
8
SHEET_LABELS
10
1210.0720
20
-1300.0000
30
0.0
0
TEXT
8
SHEET_LABELS
6
ROT_2.24
7
STANDARD
10
1212.2701
20
-1453.0708
30
0.0
40
3.4
1
S87%%d45'38.15"W
50
2.24
72
1
11
1212.2701
21
-1453.0708
31
0.0
73
1
0
TEXT
8
SHEET_LABELS
6
ROT_2.24
7
STANDARD
10
1212.5045
20
-1459.0662
30
0.0
40
3.2
1
5.44'
50
2.24
72
1
11
1212.5045
21
-1459.0662
31
0.0
73
3
0
POINT
8
SHEET_LABELS
10
1216.6289
20
-1455.9027
30
0.0
0
TEXT
8
SHEET_LABELS
6
ROT_11.03
7
STANDARD
10
1162.0127
20
-1462.1726
30
0.0
40
3.4
1
S78%%d58'01.99"W
50
11.03
72
1
11
1162.0127
21
-1462.1726
31
0.0
73
1
0
TEXT
8
SHEET_LABELS
6
ROT_11.03
7
STANDARD
10
1163.1610
20
-1468.0618
30
0.0
40
3.2
1
59.49'
50
11.03
72
1
11
1163.1610
21
-1468.0618
31
0.0
73
3
0
POINT
8
SHEET_LABELS
10
1208.1457
20
-1456.2344
30
0.0
0
TEXT
8
SHEET_LABELS
6
ROT_293.03
7
STANDARD
10
1084.2749
20
-1389.2767
30
0.0
40
3.4
1
N23%%d01'43.00"W
50
293.03
72
1
11
1084.2749
21
-1389.2767
31
0.0
73
1
0
TEXT
8
SHEET_LABELS
6
ROT_293.03
7
STANDARD
10
1078.7531
20
-1391.6239
30
0.0
40
3.2
1
116.36'
50
293.03
72
1
11
1078.7531
21
-1391.6239
31
0.0
73
3
0
POINT
8
SHEET_LABELS
10
1117.0280
20
-1474.0000
30
0.0
0
TEXT
8
SHEET_LABELS
7
STANDARD
10
1028.0000
20
-1250.0000
30
0.0
40
8.0
1
LOT Blk 16 - Lot 27   PASS
50
0.0
0
TEXT
8
SHEET_LABELS
7
STANDARD
10
1028.0000
20
-1261.0000
30
0.0
40
4.6
1
AREA 8,830 SF (0.203 ac)
50
0.0
0
TEXT
8
SHEET_LABELS
7
STANDARD
10
1028.0000
20
-1268.0000
30
0.0
40
4.0
1
PERIMETER 386.76'   VERTICES 5   CLOSING SIDE 0.00'
50
0.0
0
TEXT
8
SHEET_LABELS
7
STANDARD
10
1028.0000
20
-1275.0000
30
0.0
40
3.4
1
all geometric checks passed: closed single polyline, no self-intersection, no overlap, no spikes
50
0.0
0
LINE
8
SHEET_FRAME
10
0.0000
20
-1800.0000
30
0.0
11
300.0000
21
-1800.0000
31
0.0
0
LINE
8
SHEET_FRAME
10
300.0000
20
-1800.0000
30
0.0
11
300.0000
21
-1540.0000
31
0.0
0
LINE
8
SHEET_FRAME
10
300.0000
20
-1540.0000
30
0.0
11
0.0000
21
-1540.0000
31
0.0
0
LINE
8
SHEET_FRAME
10
0.0000
20
-1540.0000
30
0.0
11
0.0000
21
-1800.0000
31
0.0
0
POLYLINE
8
LOT_POLYLINE
66
1
70
1
0
VERTEX
8
LOT_POLYLINE
10
26.0000
20
-1605.3207
30
0.0
0
VERTEX
8
LOT_POLYLINE
10
152.5094
20
-1600.0000
30
0.0
0
VERTEX
8
LOT_POLYLINE
10
159.6038
20
-1768.6793
30
0.0
0
VERTEX
8
LOT_POLYLINE
10
33.0943
20
-1774.0000
30
0.0
0
SEQEND
0
TEXT
8
SHEET_LABELS
6
ROT_2.41
7
STANDARD
10
89.1287
20
-1599.6630
30
0.0
40
3.4
1
N87%%d35'30.00"E
50
2.41
72
1
11
89.1287
21
-1599.6630
31
0.0
73
1
0
TEXT
8
SHEET_LABELS
6
ROT_2.41
7
STANDARD
10
89.3808
20
-1605.6577
30
0.0
40
3.2
1
75.00'
50
2.41
72
1
11
89.3808
21
-1605.6577
31
0.0
73
3
0
POINT
8
SHEET_LABELS
10
26.0000
20
-1605.3207
30
0.0
0
TEXT
8
SHEET_LABELS
6
ROT_92.41
7
STANDARD
10
153.0593
20
-1684.4657
30
0.0
40
3.4
1
S02%%d24'30.00"E
50
92.41
72
1
11
153.0593
21
-1684.4657
31
0.0
73
1
0
TEXT
8
SHEET_LABELS
6
ROT_92.41
7
STANDARD
10
159.0540
20
-1684.2136
30
0.0
40
3.2
1
100.00'
50
92.41
72
1
11
159.0540
21
-1684.2136
31
0.0
73
3
0
POINT
8
SHEET_LABELS
10
152.5094
20
-1600.0000
30
0.0
0
TEXT
8
SHEET_LABELS
6
ROT_2.41
7
STANDARD
10
96.2230
20
-1768.3423
30
0.0
40
3.4
1
S87%%d35'30.00"W
50
2.41
72
1
11
96.2230
21
-1768.3423
31
0.0
73
1
0
TEXT
8
SHEET_LABELS
6
ROT_2.41
7
STANDARD
10
96.4751
20
-1774.3370
30
0.0
40
3.2
1
75.00'
50
2.41
72
1
11
96.4751
21
-1774.3370
31
0.0
73
3
0
POINT
8
SHEET_LABELS
10
159.6038
20
-1768.6793
30
0.0
0
TEXT
8
SHEET_LABELS
6
ROT_92.41
7
STANDARD
10
26.5498
20
-1689.7864
30
0.0
40
3.4
1
N02%%d24'30.00"W
50
92.41
72
1
11
26.5498
21
-1689.7864
31
0.0
73
1
0
TEXT
8
SHEET_LABELS
6
ROT_92.41
7
STANDARD
10
32.5445
20
-1689.5343
30
0.0
40
3.2
1
100.00'
50
92.41
72
1
11
32.5445
21
-1689.5343
31
0.0
73
3
0
POINT
8
SHEET_LABELS
10
33.0943
20
-1774.0000
30
0.0
0
TEXT
8
SHEET_LABELS
7
STANDARD
10
8.0000
20
-1550.0000
30
0.0
40
8.0
1
LOT Blk 16 - Lot 26   PASS
50
0.0
0
TEXT
8
SHEET_LABELS
7
STANDARD
10
8.0000
20
-1561.0000
30
0.0
40
4.6
1
AREA 7,500 SF (0.172 ac)
50
0.0
0
TEXT
8
SHEET_LABELS
7
STANDARD
10
8.0000
20
-1568.0000
30
0.0
40
4.0
1
PERIMETER 350.00'   VERTICES 4   CLOSING SIDE 0.00'
50
0.0
0
TEXT
8
SHEET_LABELS
7
STANDARD
10
8.0000
20
-1575.0000
30
0.0
40
3.4
1
all geometric checks passed: closed single polyline, no self-intersection, no overlap, no spikes
50
0.0
0
LINE
8
SHEET_FRAME
10
340.0000
20
-1800.0000
30
0.0
11
640.0000
21
-1800.0000
31
0.0
0
LINE
8
SHEET_FRAME
10
640.0000
20
-1800.0000
30
0.0
11
640.0000
21
-1540.0000
31
0.0
0
LINE
8
SHEET_FRAME
10
640.0000
20
-1540.0000
30
0.0
11
340.0000
21
-1540.0000
31
0.0
0
LINE
8
SHEET_FRAME
10
340.0000
20
-1540.0000
30
0.0
11
340.0000
21
-1800.0000
31
0.0
0
POLYLINE
8
LOT_POLYLINE
66
1
70
1
0
VERTEX
8
LOT_POLYLINE
10
366.0000
20
-1605.3207
30
0.0
0
VERTEX
8
LOT_POLYLINE
10
492.5094
20
-1600.0000
30
0.0
0
VERTEX
8
LOT_POLYLINE
10
499.6038
20
-1768.6793
30
0.0
0
VERTEX
8
LOT_POLYLINE
10
373.0943
20
-1774.0000
30
0.0
0
SEQEND
0
TEXT
8
SHEET_LABELS
6
ROT_2.41
7
STANDARD
10
429.1287
20
-1599.6630
30
0.0
40
3.4
1
N87%%d35'30.00"E
50
2.41
72
1
11
429.1287
21
-1599.6630
31
0.0
73
1
0
TEXT
8
SHEET_LABELS
6
ROT_2.41
7
STANDARD
10
429.3808
20
-1605.6577
30
0.0
40
3.2
1
75.00'
50
2.41
72
1
11
429.3808
21
-1605.6577
31
0.0
73
3
0
POINT
8
SHEET_LABELS
10
366.0000
20
-1605.3207
30
0.0
0
TEXT
8
SHEET_LABELS
6
ROT_92.41
7
STANDARD
10
493.0593
20
-1684.4657
30
0.0
40
3.4
1
S02%%d24'30.00"E
50
92.41
72
1
11
493.0593
21
-1684.4657
31
0.0
73
1
0
TEXT
8
SHEET_LABELS
6
ROT_92.41
7
STANDARD
10
499.0540
20
-1684.2136
30
0.0
40
3.2
1
100.00'
50
92.41
72
1
11
499.0540
21
-1684.2136
31
0.0
73
3
0
POINT
8
SHEET_LABELS
10
492.5094
20
-1600.0000
30
0.0
0
TEXT
8
SHEET_LABELS
6
ROT_2.41
7
STANDARD
10
436.2230
20
-1768.3423
30
0.0
40
3.4
1
S87%%d35'30.00"W
50
2.41
72
1
11
436.2230
21
-1768.3423
31
0.0
73
1
0
TEXT
8
SHEET_LABELS
6
ROT_2.41
7
STANDARD
10
436.4751
20
-1774.3370
30
0.0
40
3.2
1
75.00'
50
2.41
72
1
11
436.4751
21
-1774.3370
31
0.0
73
3
0
POINT
8
SHEET_LABELS
10
499.6038
20
-1768.6793
30
0.0
0
TEXT
8
SHEET_LABELS
6
ROT_92.41
7
STANDARD
10
366.5498
20
-1689.7864
30
0.0
40
3.4
1
N02%%d24'30.00"W
50
92.41
72
1
11
366.5498
21
-1689.7864
31
0.0
73
1
0
TEXT
8
SHEET_LABELS
6
ROT_92.41
7
STANDARD
10
372.5445
20
-1689.5343
30
0.0
40
3.2
1
100.00'
50
92.41
72
1
11
372.5445
21
-1689.5343
31
0.0
73
3
0
POINT
8
SHEET_LABELS
10
373.0943
20
-1774.0000
30
0.0
0
TEXT
8
SHEET_LABELS
7
STANDARD
10
348.0000
20
-1550.0000
30
0.0
40
8.0
1
LOT Blk 16 - Lot 25   PASS
50
0.0
0
TEXT
8
SHEET_LABELS
7
STANDARD
10
348.0000
20
-1561.0000
30
0.0
40
4.6
1
AREA 7,500 SF (0.172 ac)
50
0.0
0
TEXT
8
SHEET_LABELS
7
STANDARD
10
348.0000
20
-1568.0000
30
0.0
40
4.0
1
PERIMETER 350.00'   VERTICES 4   CLOSING SIDE 0.00'
50
0.0
0
TEXT
8
SHEET_LABELS
7
STANDARD
10
348.0000
20
-1575.0000
30
0.0
40
3.4
1
all geometric checks passed: closed single polyline, no self-intersection, no overlap, no spikes
50
0.0
0
LINE
8
SHEET_FRAME
10
680.0000
20
-1800.0000
30
0.0
11
980.0000
21
-1800.0000
31
0.0
0
LINE
8
SHEET_FRAME
10
980.0000
20
-1800.0000
30
0.0
11
980.0000
21
-1540.0000
31
0.0
0
LINE
8
SHEET_FRAME
10
980.0000
20
-1540.0000
30
0.0
11
680.0000
21
-1540.0000
31
0.0
0
LINE
8
SHEET_FRAME
10
680.0000
20
-1540.0000
30
0.0
11
680.0000
21
-1800.0000
31
0.0
0
POLYLINE
8
LOT_POLYLINE
66
1
70
1
0
VERTEX
8
LOT_POLYLINE
10
706.0000
20
-1605.3207
30
0.0
0
VERTEX
8
LOT_POLYLINE
10
832.5094
20
-1600.0000
30
0.0
0
VERTEX
8
LOT_POLYLINE
10
839.6038
20
-1768.6793
30
0.0
0
VERTEX
8
LOT_POLYLINE
10
713.0943
20
-1774.0000
30
0.0
0
SEQEND
0
TEXT
8
SHEET_LABELS
6
ROT_2.41
7
STANDARD
10
769.1287
20
-1599.6630
30
0.0
40
3.4
1
N87%%d35'30.00"E
50
2.41
72
1
11
769.1287
21
-1599.6630
31
0.0
73
1
0
TEXT
8
SHEET_LABELS
6
ROT_2.41
7
STANDARD
10
769.3808
20
-1605.6577
30
0.0
40
3.2
1
75.00'
50
2.41
72
1
11
769.3808
21
-1605.6577
31
0.0
73
3
0
POINT
8
SHEET_LABELS
10
706.0000
20
-1605.3207
30
0.0
0
TEXT
8
SHEET_LABELS
6
ROT_92.41
7
STANDARD
10
833.0593
20
-1684.4657
30
0.0
40
3.4
1
S02%%d24'30.00"E
50
92.41
72
1
11
833.0593
21
-1684.4657
31
0.0
73
1
0
TEXT
8
SHEET_LABELS
6
ROT_92.41
7
STANDARD
10
839.0540
20
-1684.2136
30
0.0
40
3.2
1
100.00'
50
92.41
72
1
11
839.0540
21
-1684.2136
31
0.0
73
3
0
POINT
8
SHEET_LABELS
10
832.5094
20
-1600.0000
30
0.0
0
TEXT
8
SHEET_LABELS
6
ROT_2.41
7
STANDARD
10
776.2230
20
-1768.3423
30
0.0
40
3.4
1
S87%%d35'30.00"W
50
2.41
72
1
11
776.2230
21
-1768.3423
31
0.0
73
1
0
TEXT
8
SHEET_LABELS
6
ROT_2.41
7
STANDARD
10
776.4751
20
-1774.3370
30
0.0
40
3.2
1
75.00'
50
2.41
72
1
11
776.4751
21
-1774.3370
31
0.0
73
3
0
POINT
8
SHEET_LABELS
10
839.6038
20
-1768.6793
30
0.0
0
TEXT
8
SHEET_LABELS
6
ROT_92.41
7
STANDARD
10
706.5498
20
-1689.7864
30
0.0
40
3.4
1
N02%%d24'30.00"W
50
92.41
72
1
11
706.5498
21
-1689.7864
31
0.0
73
1
0
TEXT
8
SHEET_LABELS
6
ROT_92.41
7
STANDARD
10
712.5445
20
-1689.5343
30
0.0
40
3.2
1
100.00'
50
92.41
72
1
11
712.5445
21
-1689.5343
31
0.0
73
3
0
POINT
8
SHEET_LABELS
10
713.0943
20
-1774.0000
30
0.0
0
TEXT
8
SHEET_LABELS
7
STANDARD
10
688.0000
20
-1550.0000
30
0.0
40
8.0
1
LOT Blk 16 - Lot 24   PASS
50
0.0
0
TEXT
8
SHEET_LABELS
7
STANDARD
10
688.0000
20
-1561.0000
30
0.0
40
4.6
1
AREA 7,500 SF (0.172 ac)
50
0.0
0
TEXT
8
SHEET_LABELS
7
STANDARD
10
688.0000
20
-1568.0000
30
0.0
40
4.0
1
PERIMETER 350.00'   VERTICES 4   CLOSING SIDE 0.00'
50
0.0
0
TEXT
8
SHEET_LABELS
7
STANDARD
10
688.0000
20
-1575.0000
30
0.0
40
3.4
1
all geometric checks passed: closed single polyline, no self-intersection, no overlap, no spikes
50
0.0
0
LINE
8
SHEET_FRAME
10
1020.0000
20
-1800.0000
30
0.0
11
1320.0000
21
-1800.0000
31
0.0
0
LINE
8
SHEET_FRAME
10
1320.0000
20
-1800.0000
30
0.0
11
1320.0000
21
-1540.0000
31
0.0
0
LINE
8
SHEET_FRAME
10
1320.0000
20
-1540.0000
30
0.0
11
1020.0000
21
-1540.0000
31
0.0
0
LINE
8
SHEET_FRAME
10
1020.0000
20
-1540.0000
30
0.0
11
1020.0000
21
-1800.0000
31
0.0
0
POLYLINE
8
LOT_POLYLINE
66
1
70
1
0
VERTEX
8
LOT_POLYLINE
10
1046.0000
20
-1605.3207
30
0.0
0
VERTEX
8
LOT_POLYLINE
10
1172.5094
20
-1600.0000
30
0.0
0
VERTEX
8
LOT_POLYLINE
10
1179.6038
20
-1768.6793
30
0.0
0
VERTEX
8
LOT_POLYLINE
10
1053.0943
20
-1774.0000
30
0.0
0
SEQEND
0
TEXT
8
SHEET_LABELS
6
ROT_2.41
7
STANDARD
10
1109.1287
20
-1599.6630
30
0.0
40
3.4
1
N87%%d35'30.00"E
50
2.41
72
1
11
1109.1287
21
-1599.6630
31
0.0
73
1
0
TEXT
8
SHEET_LABELS
6
ROT_2.41
7
STANDARD
10
1109.3808
20
-1605.6577
30
0.0
40
3.2
1
75.00'
50
2.41
72
1
11
1109.3808
21
-1605.6577
31
0.0
73
3
0
POINT
8
SHEET_LABELS
10
1046.0000
20
-1605.3207
30
0.0
0
TEXT
8
SHEET_LABELS
6
ROT_92.41
7
STANDARD
10
1173.0593
20
-1684.4657
30
0.0
40
3.4
1
S02%%d24'30.00"E
50
92.41
72
1
11
1173.0593
21
-1684.4657
31
0.0
73
1
0
TEXT
8
SHEET_LABELS
6
ROT_92.41
7
STANDARD
10
1179.0540
20
-1684.2136
30
0.0
40
3.2
1
100.00'
50
92.41
72
1
11
1179.0540
21
-1684.2136
31
0.0
73
3
0
POINT
8
SHEET_LABELS
10
1172.5094
20
-1600.0000
30
0.0
0
TEXT
8
SHEET_LABELS
6
ROT_2.41
7
STANDARD
10
1116.2230
20
-1768.3423
30
0.0
40
3.4
1
S87%%d35'30.00"W
50
2.41
72
1
11
1116.2230
21
-1768.3423
31
0.0
73
1
0
TEXT
8
SHEET_LABELS
6
ROT_2.41
7
STANDARD
10
1116.4751
20
-1774.3370
30
0.0
40
3.2
1
75.00'
50
2.41
72
1
11
1116.4751
21
-1774.3370
31
0.0
73
3
0
POINT
8
SHEET_LABELS
10
1179.6038
20
-1768.6793
30
0.0
0
TEXT
8
SHEET_LABELS
6
ROT_92.41
7
STANDARD
10
1046.5498
20
-1689.7864
30
0.0
40
3.4
1
N02%%d24'30.00"W
50
92.41
72
1
11
1046.5498
21
-1689.7864
31
0.0
73
1
0
TEXT
8
SHEET_LABELS
6
ROT_92.41
7
STANDARD
10
1052.5445
20
-1689.5343
30
0.0
40
3.2
1
100.00'
50
92.41
72
1
11
1052.5445
21
-1689.5343
31
0.0
73
3
0
POINT
8
SHEET_LABELS
10
1053.0943
20
-1774.0000
30
0.0
0
TEXT
8
SHEET_LABELS
7
STANDARD
10
1028.0000
20
-1550.0000
30
0.0
40
8.0
1
LOT Blk 16 - Lot 23   PASS
50
0.0
0
TEXT
8
SHEET_LABELS
7
STANDARD
10
1028.0000
20
-1561.0000
30
0.0
40
4.6
1
AREA 7,500 SF (0.172 ac)
50
0.0
0
TEXT
8
SHEET_LABELS
7
STANDARD
10
1028.0000
20
-1568.0000
30
0.0
40
4.0
1
PERIMETER 350.00'   VERTICES 4   CLOSING SIDE 0.00'
50
0.0
0
TEXT
8
SHEET_LABELS
7
STANDARD
10
1028.0000
20
-1575.0000
30
0.0
40
3.4
1
all geometric checks passed: closed single polyline, no self-intersection, no overlap, no spikes
50
0.0
0
LINE
8
SHEET_FRAME
10
0.0000
20
-2100.0000
30
0.0
11
300.0000
21
-2100.0000
31
0.0
0
LINE
8
SHEET_FRAME
10
300.0000
20
-2100.0000
30
0.0
11
300.0000
21
-1840.0000
31
0.0
0
LINE
8
SHEET_FRAME
10
300.0000
20
-1840.0000
30
0.0
11
0.0000
21
-1840.0000
31
0.0
0
LINE
8
SHEET_FRAME
10
0.0000
20
-1840.0000
30
0.0
11
0.0000
21
-2100.0000
31
0.0
0
POLYLINE
8
LOT_POLYLINE
66
1
70
1
0
VERTEX
8
LOT_POLYLINE
10
26.0000
20
-1905.3207
30
0.0
0
VERTEX
8
LOT_POLYLINE
10
152.5094
20
-1900.0000
30
0.0
0
VERTEX
8
LOT_POLYLINE
10
159.6038
20
-2068.6793
30
0.0
0
VERTEX
8
LOT_POLYLINE
10
33.0943
20
-2074.0000
30
0.0
0
SEQEND
0
TEXT
8
SHEET_LABELS
6
ROT_2.41
7
STANDARD
10
89.1287
20
-1899.6630
30
0.0
40
3.4
1
N87%%d35'30.00"E
50
2.41
72
1
11
89.1287
21
-1899.6630
31
0.0
73
1
0
TEXT
8
SHEET_LABELS
6
ROT_2.41
7
STANDARD
10
89.3808
20
-1905.6577
30
0.0
40
3.2
1
75.00'
50
2.41
72
1
11
89.3808
21
-1905.6577
31
0.0
73
3
0
POINT
8
SHEET_LABELS
10
26.0000
20
-1905.3207
30
0.0
0
TEXT
8
SHEET_LABELS
6
ROT_92.41
7
STANDARD
10
153.0593
20
-1984.4657
30
0.0
40
3.4
1
S02%%d24'30.00"E
50
92.41
72
1
11
153.0593
21
-1984.4657
31
0.0
73
1
0
TEXT
8
SHEET_LABELS
6
ROT_92.41
7
STANDARD
10
159.0540
20
-1984.2136
30
0.0
40
3.2
1
100.00'
50
92.41
72
1
11
159.0540
21
-1984.2136
31
0.0
73
3
0
POINT
8
SHEET_LABELS
10
152.5094
20
-1900.0000
30
0.0
0
TEXT
8
SHEET_LABELS
6
ROT_2.41
7
STANDARD
10
96.2230
20
-2068.3423
30
0.0
40
3.4
1
S87%%d35'30.00"W
50
2.41
72
1
11
96.2230
21
-2068.3423
31
0.0
73
1
0
TEXT
8
SHEET_LABELS
6
ROT_2.41
7
STANDARD
10
96.4751
20
-2074.3370
30
0.0
40
3.2
1
75.00'
50
2.41
72
1
11
96.4751
21
-2074.3370
31
0.0
73
3
0
POINT
8
SHEET_LABELS
10
159.6038
20
-2068.6793
30
0.0
0
TEXT
8
SHEET_LABELS
6
ROT_92.41
7
STANDARD
10
26.5498
20
-1989.7864
30
0.0
40
3.4
1
N02%%d24'30.00"W
50
92.41
72
1
11
26.5498
21
-1989.7864
31
0.0
73
1
0
TEXT
8
SHEET_LABELS
6
ROT_92.41
7
STANDARD
10
32.5445
20
-1989.5343
30
0.0
40
3.2
1
100.00'
50
92.41
72
1
11
32.5445
21
-1989.5343
31
0.0
73
3
0
POINT
8
SHEET_LABELS
10
33.0943
20
-2074.0000
30
0.0
0
TEXT
8
SHEET_LABELS
7
STANDARD
10
8.0000
20
-1850.0000
30
0.0
40
8.0
1
LOT Blk 16 - Lot 22   PASS
50
0.0
0
TEXT
8
SHEET_LABELS
7
STANDARD
10
8.0000
20
-1861.0000
30
0.0
40
4.6
1
AREA 7,500 SF (0.172 ac)
50
0.0
0
TEXT
8
SHEET_LABELS
7
STANDARD
10
8.0000
20
-1868.0000
30
0.0
40
4.0
1
PERIMETER 350.00'   VERTICES 4   CLOSING SIDE 0.00'
50
0.0
0
TEXT
8
SHEET_LABELS
7
STANDARD
10
8.0000
20
-1875.0000
30
0.0
40
3.4
1
all geometric checks passed: closed single polyline, no self-intersection, no overlap, no spikes
50
0.0
0
LINE
8
SHEET_FRAME
10
340.0000
20
-2100.0000
30
0.0
11
640.0000
21
-2100.0000
31
0.0
0
LINE
8
SHEET_FRAME
10
640.0000
20
-2100.0000
30
0.0
11
640.0000
21
-1840.0000
31
0.0
0
LINE
8
SHEET_FRAME
10
640.0000
20
-1840.0000
30
0.0
11
340.0000
21
-1840.0000
31
0.0
0
LINE
8
SHEET_FRAME
10
340.0000
20
-1840.0000
30
0.0
11
340.0000
21
-2100.0000
31
0.0
0
POLYLINE
8
LOT_POLYLINE
66
1
70
1
0
VERTEX
8
LOT_POLYLINE
10
366.0000
20
-1905.3207
30
0.0
0
VERTEX
8
LOT_POLYLINE
10
492.5094
20
-1900.0000
30
0.0
0
VERTEX
8
LOT_POLYLINE
10
499.6038
20
-2068.6793
30
0.0
0
VERTEX
8
LOT_POLYLINE
10
373.0943
20
-2074.0000
30
0.0
0
SEQEND
0
TEXT
8
SHEET_LABELS
6
ROT_2.41
7
STANDARD
10
429.1287
20
-1899.6630
30
0.0
40
3.4
1
N87%%d35'30.00"E
50
2.41
72
1
11
429.1287
21
-1899.6630
31
0.0
73
1
0
TEXT
8
SHEET_LABELS
6
ROT_2.41
7
STANDARD
10
429.3808
20
-1905.6577
30
0.0
40
3.2
1
75.00'
50
2.41
72
1
11
429.3808
21
-1905.6577
31
0.0
73
3
0
POINT
8
SHEET_LABELS
10
366.0000
20
-1905.3207
30
0.0
0
TEXT
8
SHEET_LABELS
6
ROT_92.41
7
STANDARD
10
493.0593
20
-1984.4657
30
0.0
40
3.4
1
S02%%d24'30.00"E
50
92.41
72
1
11
493.0593
21
-1984.4657
31
0.0
73
1
0
TEXT
8
SHEET_LABELS
6
ROT_92.41
7
STANDARD
10
499.0540
20
-1984.2136
30
0.0
40
3.2
1
100.00'
50
92.41
72
1
11
499.0540
21
-1984.2136
31
0.0
73
3
0
POINT
8
SHEET_LABELS
10
492.5094
20
-1900.0000
30
0.0
0
TEXT
8
SHEET_LABELS
6
ROT_2.41
7
STANDARD
10
436.2230
20
-2068.3423
30
0.0
40
3.4
1
S87%%d35'30.00"W
50
2.41
72
1
11
436.2230
21
-2068.3423
31
0.0
73
1
0
TEXT
8
SHEET_LABELS
6
ROT_2.41
7
STANDARD
10
436.4751
20
-2074.3370
30
0.0
40
3.2
1
75.00'
50
2.41
72
1
11
436.4751
21
-2074.3370
31
0.0
73
3
0
POINT
8
SHEET_LABELS
10
499.6038
20
-2068.6793
30
0.0
0
TEXT
8
SHEET_LABELS
6
ROT_92.41
7
STANDARD
10
366.5498
20
-1989.7864
30
0.0
40
3.4
1
N02%%d24'30.00"W
50
92.41
72
1
11
366.5498
21
-1989.7864
31
0.0
73
1
0
TEXT
8
SHEET_LABELS
6
ROT_92.41
7
STANDARD
10
372.5445
20
-1989.5343
30
0.0
40
3.2
1
100.00'
50
92.41
72
1
11
372.5445
21
-1989.5343
31
0.0
73
3
0
POINT
8
SHEET_LABELS
10
373.0943
20
-2074.0000
30
0.0
0
TEXT
8
SHEET_LABELS
7
STANDARD
10
348.0000
20
-1850.0000
30
0.0
40
8.0
1
LOT Blk 16 - Lot 21   PASS
50
0.0
0
TEXT
8
SHEET_LABELS
7
STANDARD
10
348.0000
20
-1861.0000
30
0.0
40
4.6
1
AREA 7,500 SF (0.172 ac)
50
0.0
0
TEXT
8
SHEET_LABELS
7
STANDARD
10
348.0000
20
-1868.0000
30
0.0
40
4.0
1
PERIMETER 350.00'   VERTICES 4   CLOSING SIDE 0.00'
50
0.0
0
TEXT
8
SHEET_LABELS
7
STANDARD
10
348.0000
20
-1875.0000
30
0.0
40
3.4
1
all geometric checks passed: closed single polyline, no self-intersection, no overlap, no spikes
50
0.0
0
LINE
8
SHEET_FRAME
10
680.0000
20
-2100.0000
30
0.0
11
980.0000
21
-2100.0000
31
0.0
0
LINE
8
SHEET_FRAME
10
980.0000
20
-2100.0000
30
0.0
11
980.0000
21
-1840.0000
31
0.0
0
LINE
8
SHEET_FRAME
10
980.0000
20
-1840.0000
30
0.0
11
680.0000
21
-1840.0000
31
0.0
0
LINE
8
SHEET_FRAME
10
680.0000
20
-1840.0000
30
0.0
11
680.0000
21
-2100.0000
31
0.0
0
POLYLINE
8
LOT_POLYLINE
66
1
70
1
0
VERTEX
8
LOT_POLYLINE
10
706.0000
20
-1905.3207
30
0.0
0
VERTEX
8
LOT_POLYLINE
10
832.5094
20
-1900.0000
30
0.0
0
VERTEX
8
LOT_POLYLINE
10
839.6038
20
-2068.6793
30
0.0
0
VERTEX
8
LOT_POLYLINE
10
713.0943
20
-2074.0000
30
0.0
0
SEQEND
0
TEXT
8
SHEET_LABELS
6
ROT_2.41
7
STANDARD
10
769.1287
20
-1899.6630
30
0.0
40
3.4
1
N87%%d35'30.00"E
50
2.41
72
1
11
769.1287
21
-1899.6630
31
0.0
73
1
0
TEXT
8
SHEET_LABELS
6
ROT_2.41
7
STANDARD
10
769.3808
20
-1905.6577
30
0.0
40
3.2
1
75.00'
50
2.41
72
1
11
769.3808
21
-1905.6577
31
0.0
73
3
0
POINT
8
SHEET_LABELS
10
706.0000
20
-1905.3207
30
0.0
0
TEXT
8
SHEET_LABELS
6
ROT_92.41
7
STANDARD
10
833.0593
20
-1984.4657
30
0.0
40
3.4
1
S02%%d24'30.00"E
50
92.41
72
1
11
833.0593
21
-1984.4657
31
0.0
73
1
0
TEXT
8
SHEET_LABELS
6
ROT_92.41
7
STANDARD
10
839.0540
20
-1984.2136
30
0.0
40
3.2
1
100.00'
50
92.41
72
1
11
839.0540
21
-1984.2136
31
0.0
73
3
0
POINT
8
SHEET_LABELS
10
832.5094
20
-1900.0000
30
0.0
0
TEXT
8
SHEET_LABELS
6
ROT_2.41
7
STANDARD
10
776.2230
20
-2068.3423
30
0.0
40
3.4
1
S87%%d35'30.00"W
50
2.41
72
1
11
776.2230
21
-2068.3423
31
0.0
73
1
0
TEXT
8
SHEET_LABELS
6
ROT_2.41
7
STANDARD
10
776.4751
20
-2074.3370
30
0.0
40
3.2
1
75.00'
50
2.41
72
1
11
776.4751
21
-2074.3370
31
0.0
73
3
0
POINT
8
SHEET_LABELS
10
839.6038
20
-2068.6793
30
0.0
0
TEXT
8
SHEET_LABELS
6
ROT_92.41
7
STANDARD
10
706.5498
20
-1989.7864
30
0.0
40
3.4
1
N02%%d24'30.00"W
50
92.41
72
1
11
706.5498
21
-1989.7864
31
0.0
73
1
0
TEXT
8
SHEET_LABELS
6
ROT_92.41
7
STANDARD
10
712.5445
20
-1989.5343
30
0.0
40
3.2
1
100.00'
50
92.41
72
1
11
712.5445
21
-1989.5343
31
0.0
73
3
0
POINT
8
SHEET_LABELS
10
713.0943
20
-2074.0000
30
0.0
0
TEXT
8
SHEET_LABELS
7
STANDARD
10
688.0000
20
-1850.0000
30
0.0
40
8.0
1
LOT Blk 16 - Lot 20   PASS
50
0.0
0
TEXT
8
SHEET_LABELS
7
STANDARD
10
688.0000
20
-1861.0000
30
0.0
40
4.6
1
AREA 7,500 SF (0.172 ac)
50
0.0
0
TEXT
8
SHEET_LABELS
7
STANDARD
10
688.0000
20
-1868.0000
30
0.0
40
4.0
1
PERIMETER 350.00'   VERTICES 4   CLOSING SIDE 0.00'
50
0.0
0
TEXT
8
SHEET_LABELS
7
STANDARD
10
688.0000
20
-1875.0000
30
0.0
40
3.4
1
all geometric checks passed: closed single polyline, no self-intersection, no overlap, no spikes
50
0.0
0
LINE
8
SHEET_FRAME
10
1020.0000
20
-2100.0000
30
0.0
11
1320.0000
21
-2100.0000
31
0.0
0
LINE
8
SHEET_FRAME
10
1320.0000
20
-2100.0000
30
0.0
11
1320.0000
21
-1840.0000
31
0.0
0
LINE
8
SHEET_FRAME
10
1320.0000
20
-1840.0000
30
0.0
11
1020.0000
21
-1840.0000
31
0.0
0
LINE
8
SHEET_FRAME
10
1020.0000
20
-1840.0000
30
0.0
11
1020.0000
21
-2100.0000
31
0.0
0
POLYLINE
8
LOT_POLYLINE
66
1
70
1
0
VERTEX
8
LOT_POLYLINE
10
1046.0000
20
-1905.3207
30
0.0
0
VERTEX
8
LOT_POLYLINE
10
1172.5094
20
-1900.0000
30
0.0
0
VERTEX
8
LOT_POLYLINE
10
1179.6038
20
-2068.6793
30
0.0
0
VERTEX
8
LOT_POLYLINE
10
1053.0943
20
-2074.0000
30
0.0
0
SEQEND
0
TEXT
8
SHEET_LABELS
6
ROT_2.41
7
STANDARD
10
1109.1287
20
-1899.6630
30
0.0
40
3.4
1
N87%%d35'30.00"E
50
2.41
72
1
11
1109.1287
21
-1899.6630
31
0.0
73
1
0
TEXT
8
SHEET_LABELS
6
ROT_2.41
7
STANDARD
10
1109.3808
20
-1905.6577
30
0.0
40
3.2
1
75.00'
50
2.41
72
1
11
1109.3808
21
-1905.6577
31
0.0
73
3
0
POINT
8
SHEET_LABELS
10
1046.0000
20
-1905.3207
30
0.0
0
TEXT
8
SHEET_LABELS
6
ROT_92.41
7
STANDARD
10
1173.0593
20
-1984.4657
30
0.0
40
3.4
1
S02%%d24'30.00"E
50
92.41
72
1
11
1173.0593
21
-1984.4657
31
0.0
73
1
0
TEXT
8
SHEET_LABELS
6
ROT_92.41
7
STANDARD
10
1179.0540
20
-1984.2136
30
0.0
40
3.2
1
100.00'
50
92.41
72
1
11
1179.0540
21
-1984.2136
31
0.0
73
3
0
POINT
8
SHEET_LABELS
10
1172.5094
20
-1900.0000
30
0.0
0
TEXT
8
SHEET_LABELS
6
ROT_2.41
7
STANDARD
10
1116.2230
20
-2068.3423
30
0.0
40
3.4
1
S87%%d35'30.00"W
50
2.41
72
1
11
1116.2230
21
-2068.3423
31
0.0
73
1
0
TEXT
8
SHEET_LABELS
6
ROT_2.41
7
STANDARD
10
1116.4751
20
-2074.3370
30
0.0
40
3.2
1
75.00'
50
2.41
72
1
11
1116.4751
21
-2074.3370
31
0.0
73
3
0
POINT
8
SHEET_LABELS
10
1179.6038
20
-2068.6793
30
0.0
0
TEXT
8
SHEET_LABELS
6
ROT_92.41
7
STANDARD
10
1046.5498
20
-1989.7864
30
0.0
40
3.4
1
N02%%d24'30.00"W
50
92.41
72
1
11
1046.5498
21
-1989.7864
31
0.0
73
1
0
TEXT
8
SHEET_LABELS
6
ROT_92.41
7
STANDARD
10
1052.5445
20
-1989.5343
30
0.0
40
3.2
1
100.00'
50
92.41
72
1
11
1052.5445
21
-1989.5343
31
0.0
73
3
0
POINT
8
SHEET_LABELS
10
1053.0943
20
-2074.0000
30
0.0
0
TEXT
8
SHEET_LABELS
7
STANDARD
10
1028.0000
20
-1850.0000
30
0.0
40
8.0
1
LOT Blk 16 - Lot 19   PASS
50
0.0
0
TEXT
8
SHEET_LABELS
7
STANDARD
10
1028.0000
20
-1861.0000
30
0.0
40
4.6
1
AREA 7,500 SF (0.172 ac)
50
0.0
0
TEXT
8
SHEET_LABELS
7
STANDARD
10
1028.0000
20
-1868.0000
30
0.0
40
4.0
1
PERIMETER 350.00'   VERTICES 4   CLOSING SIDE 0.00'
50
0.0
0
TEXT
8
SHEET_LABELS
7
STANDARD
10
1028.0000
20
-1875.0000
30
0.0
40
3.4
1
all geometric checks passed: closed single polyline, no self-intersection, no overlap, no spikes
50
0.0
0
LINE
8
SHEET_FRAME
10
0.0000
20
-2400.0000
30
0.0
11
300.0000
21
-2400.0000
31
0.0
0
LINE
8
SHEET_FRAME
10
300.0000
20
-2400.0000
30
0.0
11
300.0000
21
-2140.0000
31
0.0
0
LINE
8
SHEET_FRAME
10
300.0000
20
-2140.0000
30
0.0
11
0.0000
21
-2140.0000
31
0.0
0
LINE
8
SHEET_FRAME
10
0.0000
20
-2140.0000
30
0.0
11
0.0000
21
-2400.0000
31
0.0
0
POLYLINE
8
LOT_POLYLINE
66
1
70
1
0
VERTEX
8
LOT_POLYLINE
10
26.0000
20
-2207.0746
30
0.0
0
VERTEX
8
LOT_POLYLINE
10
194.2107
20
-2200.0000
30
0.0
0
VERTEX
8
LOT_POLYLINE
10
195.7489
20
-2326.6011
30
0.0
0
VERTEX
8
LOT_POLYLINE
10
155.7389
20
-2368.8387
30
0.0
0
VERTEX
8
LOT_POLYLINE
10
33.0206
20
-2374.0000
30
0.0
0
SEQEND
0
POLYLINE
8
LOT_POLYLINE
66
1
70
0
0
VERTEX
8
LOT_POLYLINE
10
195.7489
20
-2326.6011
30
0.0
0
VERTEX
8
LOT_POLYLINE
10
195.6040
20
-2330.6195
30
0.0
0
VERTEX
8
LOT_POLYLINE
10
195.0735
20
-2334.6052
30
0.0
0
VERTEX
8
LOT_POLYLINE
10
194.1621
20
-2338.5215
30
0.0
0
VERTEX
8
LOT_POLYLINE
10
192.8784
20
-2342.3321
30
0.0
0
VERTEX
8
LOT_POLYLINE
10
191.2342
20
-2346.0015
30
0.0
0
VERTEX
8
LOT_POLYLINE
10
189.2448
20
-2349.4958
30
0.0
0
VERTEX
8
LOT_POLYLINE
10
186.9286
20
-2352.7826
30
0.0
0
VERTEX
8
LOT_POLYLINE
10
184.3071
20
-2355.8315
30
0.0
0
VERTEX
8
LOT_POLYLINE
10
181.4046
20
-2358.6142
30
0.0
0
VERTEX
8
LOT_POLYLINE
10
178.2479
20
-2361.1049
30
0.0
0
VERTEX
8
LOT_POLYLINE
10
174.8664
20
-2363.2805
30
0.0
0
VERTEX
8
LOT_POLYLINE
10
171.2914
20
-2365.1209
30
0.0
0
VERTEX
8
LOT_POLYLINE
10
167.5559
20
-2366.6090
30
0.0
0
VERTEX
8
LOT_POLYLINE
10
163.6947
20
-2367.7310
30
0.0
0
VERTEX
8
LOT_POLYLINE
10
159.7435
20
-2368.4766
30
0.0
0
VERTEX
8
LOT_POLYLINE
10
155.7389
20
-2368.8387
30
0.0
0
SEQEND
0
TEXT
8
SHEET_LABELS
6
ROT_2.41
7
STANDARD
10
109.9793
20
-2200.5400
30
0.0
40
3.4
1
N87%%d35'30.00"E
50
2.41
72
1
11
109.9793
21
-2200.5400
31
0.0
73
1
0
TEXT
8
SHEET_LABELS
6
ROT_2.41
7
STANDARD
10
110.2314
20
-2206.5347
30
0.0
40
3.2
1
100.77'
50
2.41
72
1
11
110.2314
21
-2206.5347
31
0.0
73
3
0
POINT
8
SHEET_LABELS
10
26.0000
20
-2207.0746
30
0.0
0
TEXT
8
SHEET_LABELS
6
ROT_90.70
7
STANDARD
10
191.9800
20
-2263.3370
30
0.0
40
3.4
1
S00%%d41'45.97"E
50
90.7
72
1
11
191.9800
21
-2263.3370
31
0.0
73
1
0
TEXT
8
SHEET_LABELS
6
ROT_90.70
7
STANDARD
10
197.9796
20
-2263.2641
30
0.0
40
3.2
1
75.78'
50
90.7
72
1
11
197.9796
21
-2263.2641
31
0.0
73
3
0
POINT
8
SHEET_LABELS
10
194.2107
20
-2200.0000
30
0.0
0
TEXT
8
SHEET_LABELS
6
ROT_46.55
7
STANDARD
10
173.5659
20
-2345.6568
30
0.0
40
3.4
1
S43%%d26'55.00"W
50
46.55
72
1
11
173.5659
21
-2345.6568
31
0.0
73
1
0
TEXT
8
SHEET_LABELS
6
ROT_46.55
7
STANDARD
10
177.9218
20
-2349.7830
30
0.0
40
3.2
1
34.82'
50
46.55
72
1
11
177.9218
21
-2349.7830
31
0.0
73
3
0
POINT
8
SHEET_LABELS
10
195.7489
20
-2326.6011
30
0.0
0
TEXT
8
SHEET_LABELS
6
ROT_2.41
7
STANDARD
10
94.2537
20
-2368.4220
30
0.0
40
3.4
1
S87%%d35'30.00"W
50
2.41
72
1
11
94.2537
21
-2368.4220
31
0.0
73
1
0
TEXT
8
SHEET_LABELS
6
ROT_2.41
7
STANDARD
10
94.5058
20
-2374.4167
30
0.0
40
3.2
1
73.52'
50
2.41
72
1
11
94.5058
21
-2374.4167
31
0.0
73
3
0
POINT
8
SHEET_LABELS
10
155.7389
20
-2368.8387
30
0.0
0
TEXT
8
SHEET_LABELS
6
ROT_92.41
7
STANDARD
10
26.5129
20
-2290.6634
30
0.0
40
3.4
1
N02%%d24'30.00"W
50
92.41
72
1
11
26.5129
21
-2290.6634
31
0.0
73
1
0
TEXT
8
SHEET_LABELS
6
ROT_92.41
7
STANDARD
10
32.5076
20
-2290.4112
30
0.0
40
3.2
1
100.00'
50
92.41
72
1
11
32.5076
21
-2290.4112
31
0.0
73
3
0
POINT
8
SHEET_LABELS
10
33.0206
20
-2374.0000
30
0.0
0
TEXT
8
SHEET_LABELS
7
STANDARD
10
8.0000
20
-2150.0000
30
0.0
40
8.0
1
LOT Blk 16 - Lot 18   PASS
50
0.0
0
TEXT
8
SHEET_LABELS
7
STANDARD
10
8.0000
20
-2161.0000
30
0.0
40
4.6
1
AREA 9,802 SF (0.225 ac)
50
0.0
0
TEXT
8
SHEET_LABELS
7
STANDARD
10
8.0000
20
-2168.0000
30
0.0
40
4.0
1
PERIMETER 388.59'   VERTICES 5   CLOSING SIDE 0.00'
50
0.0
0
TEXT
8
SHEET_LABELS
7
STANDARD
10
8.0000
20
-2175.0000
30
0.0
40
3.4
1
all geometric checks passed: closed single polyline, no self-intersection, no overlap, no spikes
50
0.0
0
ENDSEC
0
EOF
