0
SECTION
2
HEADER
0
ENDSEC
0
SECTION
2
TABLES
0
TABLE
2
LTYPE
70
2
0
LTYPE
2
CONTINUOUS
70
0
3
Solid
72
65
73
0
40
0.0
0
LTYPE
2
DASHED
70
0
3
Dashed
72
65
73
2
40
0.75
49
0.5
74
0
49
-0.25
74
0
0
ENDTAB
0
TABLE
2
LAYER
70
10
0
LAYER
2
0
70
0
62
7
6
CONTINUOUS
0
LAYER
2
BOUNDARY
70
0
62
7
6
CONTINUOUS
0
LAYER
2
LOT_LINE
70
0
62
4
6
CONTINUOUS
0
LAYER
2
MEANDER
70
0
62
6
6
DASHED
0
LAYER
2
SETBACK
70
0
62
3
6
DASHED
0
LAYER
2
TEXT-LABELS
70
0
62
7
6
CONTINUOUS
0
LAYER
2
DIM-LABELS
70
0
62
3
6
CONTINUOUS
0
LAYER
2
TITLEBLOCK
70
0
62
2
6
CONTINUOUS
0
LAYER
2
CONTROL
70
0
62
1
6
CONTINUOUS
0
LAYER
2
UNRESOLVED
70
0
62
1
6
DASHED
0
ENDTAB
0
ENDSEC
0
SECTION
2
ENTITIES
0
LINE
8
LOT_LINE
10
0.0000
20
0.0000
30
0.0
11
75.0000
21
0.0000
31
0.0
0
LINE
8
LOT_LINE
10
75.0000
20
0.0000
30
0.0
11
75.0000
21
207.8800
31
0.0
0
LINE
8
MEANDER
10
75.0000
20
207.8800
30
0.0
11
1.9096
21
203.0467
31
0.0
0
LINE
8
LOT_LINE
10
1.9096
20
203.0467
30
0.0
11
0.0000
21
0.0000
31
0.0
0
TEXT
8
TEXT-LABELS
10
37.9774
20
102.7317
30
0.0
40
11
1
41
50
0.0
0
TEXT
8
TEXT-LABELS
10
23.9774
20
86.7317
30
0.0
40
6
1
15,211 sf
50
0.0
0
LINE
8
LOT_LINE
10
75.0000
20
0.0000
30
0.0
11
150.0000
21
0.0000
31
0.0
0
LINE
8
LOT_LINE
10
150.0000
20
0.0000
30
0.0
11
150.0000
21
212.0500
31
0.0
0
LINE
8
MEANDER
10
150.0000
20
212.0500
30
0.0
11
75.0483
21
207.8377
31
0.0
0
LINE
8
LOT_LINE
10
75.0483
20
207.8377
30
0.0
11
75.0000
21
0.0000
31
0.0
0
TEXT
8
TEXT-LABELS
10
112.5121
20
104.9719
30
0.0
40
11
1
40
50
0.0
0
TEXT
8
TEXT-LABELS
10
98.5121
20
88.9719
30
0.0
40
6
1
15,741 sf
50
0.0
0
LINE
8
LOT_LINE
10
150.0000
20
0.0000
30
0.0
11
225.0000
21
0.0000
31
0.0
0
LINE
8
LOT_LINE
10
225.0000
20
0.0000
30
0.0
11
225.0000
21
212.3500
31
0.0
0
LINE
8
MEANDER
10
225.0000
20
212.3500
30
0.0
11
150.0008
21
212.0118
31
0.0
0
LINE
8
LOT_LINE
10
150.0008
20
212.0118
30
0.0
11
150.0000
21
0.0000
31
0.0
0
TEXT
8
TEXT-LABELS
10
187.5002
20
106.0905
30
0.0
40
11
1
39
50
0.0
0
TEXT
8
TEXT-LABELS
10
173.5002
20
90.0905
30
0.0
40
6
1
15,913 sf
50
0.0
0
LINE
8
LOT_LINE
10
225.0000
20
0.0000
30
0.0
11
300.0000
21
0.0000
31
0.0
0
LINE
8
LOT_LINE
10
300.0000
20
0.0000
30
0.0
11
300.0000
21
236.3100
31
0.0
0
LINE
8
MEANDER
10
300.0000
20
236.3100
30
0.0
11
225.0038
21
212.1230
31
0.0
0
LINE
8
LOT_LINE
10
225.0038
20
212.1230
30
0.0
11
225.0000
21
0.0000
31
0.0
0
TEXT
8
TEXT-LABELS
10
262.5010
20
112.1083
30
0.0
40
11
1
38
50
0.0
0
TEXT
8
TEXT-LABELS
10
248.5010
20
96.1083
30
0.0
40
6
1
16,816 sf
50
0.0
0
TEXT
8
DIM-LABELS
10
27.5000
20
-9.0000
30
0.0
40
7
1
75'
50
0.0
0
TEXT
8
DIM-LABELS
10
78.0000
20
103.9400
30
0.0
40
6
1
207.88'
50
0.0
0
TEXT
8
MEANDER
10
18.4548
20
210.4633
30
0.0
40
6
1
S86°13'00"W 73.25'
50
0.0
0
TEXT
8
DIM-LABELS
10
102.5000
20
-9.0000
30
0.0
40
7
1
75'
50
0.0
0
TEXT
8
DIM-LABELS
10
153.0000
20
106.0250
30
0.0
40
6
1
212.05'
50
0.0
0
TEXT
8
MEANDER
10
92.5241
20
214.9438
30
0.0
40
6
1
S86°47'00"W 75.07'
50
0.0
0
TEXT
8
DIM-LABELS
10
177.5000
20
-9.0000
30
0.0
40
7
1
75'
50
0.0
0
TEXT
8
DIM-LABELS
10
228.0000
20
106.1750
30
0.0
40
6
1
212.35'
50
0.0
0
TEXT
8
MEANDER
10
167.5004
20
217.1809
30
0.0
40
6
1
S89°44'30"W 75.00'
50
0.0
0
TEXT
8
DIM-LABELS
10
252.5000
20
-9.0000
30
0.0
40
7
1
75'
50
0.0
0
TEXT
8
DIM-LABELS
10
303.0000
20
118.1550
30
0.0
40
6
1
236.31'
50
0.0
0
TEXT
8
MEANDER
10
242.5019
20
229.2165
30
0.0
40
6
1
S72°07'30"W 78.80'
50
0.0
0
LINE
8
SETBACK
10
0.0000
20
25.0000
30
0.0
11
75.0000
21
25.0000
31
0.0
0
LINE
8
SETBACK
10
75.0000
20
25.0000
30
0.0
11
150.0000
21
25.0000
31
0.0
0
LINE
8
SETBACK
10
150.0000
20
25.0000
30
0.0
11
225.0000
21
25.0000
31
0.0
0
LINE
8
SETBACK
10
225.0000
20
25.0000
30
0.0
11
300.0000
21
25.0000
31
0.0
0
POINT
8
CONTROL
10
-0.4436
20
-49.9980
30
0.0
0
TEXT
8
CONTROL
10
-0.4436
20
-63.9980
30
0.0
40
9
1
P.O.B. -- SW cor NW1/4 of SW1/4 Sec 17
50
0.0
0
LINE
8
BOUNDARY
10
-0.4436
20
-49.9980
30
0.0
11
1319.5564
21
-49.9980
31
0.0
0
TEXT
8
DIM-LABELS
10
299.5564
20
-58.9980
30
0.0
40
9
1
EAST  1320.0'  (S line NW1/4 of SW1/4)
50
0.0
0
LINE
8
BOUNDARY
10
0.0000
20
0.0000
30
0.0
11
378.0000
21
0.0000
31
0.0
0
TEXT
8
DIM-LABELS
10
130.0000
20
-8.0000
30
0.0
40
8
1
EAST  378.0'
50
0.0
0
LINE
8
BOUNDARY
10
-0.4436
20
-49.9980
30
0.0
11
1.7991
21
202.7820
31
0.0
0
TEXT
8
DIM-LABELS
10
-26.4436
20
76.3920
30
0.0
40
8
1
S.0°30'30"W.  300'+/-
50
0.0
0
LINE
8
UNRESOLVED
10
300.0000
20
0.0000
30
0.0
11
300.0000
21
260.0000
31
0.0
0
TEXT
8
UNRESOLVED
10
308.0000
20
40.0000
30
0.0
40
9
1
LOT 37 AND EAST OF HERE UNRESOLVED: ties to Carroll Drive curve (N76°51'50"E 125.0, delta=48°00', R=300.0)
50
0.0
0
TEXT
8
TITLEBLOCK
10
0.0000
20
330.0000
30
0.0
40
11
1
BROOKLYN LAKE ESTATES -- PLAT BOOK 4, PAGE 39, CLAY COUNTY, FL
50
0.0
0
TEXT
8
TITLEBLOCK
10
0.0000
20
308.0000
30
0.0
40
8
1
Re-subdivision in Sec 17, T8S, R23E  |  1" = 100'
50
0.0
0
TEXT
8
TITLEBLOCK
10
0.0000
20
286.0000
30
0.0
40
8
1
SOUTHWEST LAKE-FRONT LOTS 38-41, worked from the P.O.B.
50
0.0
0
TEXT
8
TITLEBLOCK
10
0.0000
20
264.0000
30
0.0
40
8
1

50
0.0
0
TEXT
8
TITLEBLOCK
10
0.0000
20
242.0000
30
0.0
40
8
1
SOURCE: visual transcription at 2.6x; NOT OCR.
50
0.0
0
TEXT
8
TITLEBLOCK
10
0.0000
20
220.0000
30
0.0
40
8
1
NOTE: the lake front shown is a CLOSING MEANDER ONLY and does not
50
0.0
0
TEXT
8
TITLEBLOCK
10
0.0000
20
198.0000
30
0.0
40
8
1
represent the true lot boundary (plat note). Drawn on its own layer.
50
0.0
0
TEXT
8
TITLEBLOCK
10
0.0000
20
176.0000
30
0.0
40
8
1

50
0.0
0
TEXT
8
TITLEBLOCK
10
0.0000
20
154.0000
30
0.0
40
8
1
VALIDATION:
50
0.0
0
TEXT
8
TITLEBLOCK
10
0.0000
20
132.0000
30
0.0
40
8
1
  South frontages 75+75+75+75+77.80 = 377.80 ft vs stated EAST 378.0 ft.
50
0.0
0
TEXT
8
TITLEBLOCK
10
0.0000
20
110.0000
30
0.0
40
8
1
  Per-lot closure: the west side line is DETERMINED by the other three
50
0.0
0
TEXT
8
TITLEBLOCK
10
0.0000
20
88.0000
30
0.0
40
8
1
  courses and was compared against the independently transcribed value:
50
0.0
0
TEXT
8
TITLEBLOCK
10
0.0000
20
66.0000
30
0.0
40
8
1
    Lot 41: implied  203.06 vs read  202.79 -> 0.27 ft
50
0.0
0
TEXT
8
TITLEBLOCK
10
0.0000
20
44.0000
30
0.0
40
8
1
    Lot 40: implied  207.84 vs read  207.88 -> 0.04 ft
50
0.0
0
TEXT
8
TITLEBLOCK
10
0.0000
20
22.0000
30
0.0
40
8
1
    Lot 39: implied  212.01 vs read  212.05 -> 0.04 ft
50
0.0
0
TEXT
8
TITLEBLOCK
10
0.0000
20
0.0000
30
0.0
40
8
1
    Lot 38: implied  212.12 vs read  212.35 -> 0.23 ft
50
0.0
0
TEXT
8
TITLEBLOCK
10
0.0000
20
-22.0000
30
0.0
40
8
1

50
0.0
0
TEXT
8
TITLEBLOCK
10
0.0000
20
-44.0000
30
0.0
40
8
1
Bearings are ASSUMED per the plat, based on the S line of the NW1/4 of
50
0.0
0
TEXT
8
TITLEBLOCK
10
0.0000
20
-66.0000
30
0.0
40
8
1
the SW1/4 of Sec 17 having a bearing of 'East'.
50
0.0
0
ENDSEC
0
EOF
