0
SECTION
2
HEADER
9
$ACADVER
1
AC1009
9
$DWGCODEPAGE
3
ANSI_1252
0
ENDSEC
0
SECTION
2
TABLES
0
TABLE
2
LTYPE
70
6
0
LTYPE
2
CONTINUOUS
70
0
3
Solid
72
65
73
0
40
0.0
0
LTYPE
2
DASHED
70
0
3
Dashed
72
65
73
2
40
0.75
49
0.5
74
0
49
-0.25
74
0
0
LTYPE
2
DASHED2
70
0
3
Dashed (.5x)
72
65
73
2
40
0.375
49
0.25
74
0
49
-0.125
74
0
0
LTYPE
2
HIDDEN
70
0
3
Hidden
72
65
73
2
40
0.375
49
0.25
74
0
49
-0.125
74
0
0
LTYPE
2
CENTER
70
0
3
Center
72
65
73
4
40
2.0
49
1.25
74
0
49
-0.25
74
0
49
0.25
74
0
49
-0.25
74
0
0
LTYPE
2
PHANTOM
70
0
3
Phantom
72
65
73
6
40
2.5
49
1.25
74
0
49
-0.25
74
0
49
0.25
74
0
49
-0.25
74
0
49
0.25
74
0
49
-0.25
74
0
0
ENDTAB
0
TABLE
2
LAYER
70
16
0
LAYER
2
0
70
0
62
7
6
CONTINUOUS
0
LAYER
2
C-BOUNDARY
70
0
62
7
6
CONTINUOUS
0
LAYER
2
C-ROAD-CNTR
70
0
62
2
6
DASHED
0
LAYER
2
C-ROAD-CURV
70
0
62
4
6
CONTINUOUS
0
LAYER
2
C-ROAD-ROW-EDGE
70
0
62
4
6
DASHED
0
LAYER
2
C-ROAD-ALIGNMENT
70
0
62
2
6
CONTINUOUS
0
LAYER
2
C-ROAD-INTX
70
0
62
3
6
CONTINUOUS
0
LAYER
2
C-ROAD-TIE
70
0
62
4
6
CONTINUOUS
0
LAYER
2
C-ROAD-ASSUMP
70
0
62
1
6
DASHED
0
LAYER
2
C-ROAD-ASSUMP-INTX
70
0
62
1
6
CONTINUOUS
0
LAYER
2
C-ROAD-PI-TANGENT
70
0
62
1
6
DASHED
0
LAYER
2
C-ROAD-CULDESAC
70
0
62
1
6
CONTINUOUS
0
LAYER
2
C-ROAD-TEXT
70
0
62
7
6
CONTINUOUS
0
LAYER
2
C-ROAD-ASSUMP-TEXT
70
0
62
1
6
CONTINUOUS
0
LAYER
2
CONTROL
70
0
62
1
6
CONTINUOUS
0
LAYER
2
TITLEBLOCK
70
0
62
2
6
CONTINUOUS
0
ENDTAB
0
TABLE
2
STYLE
70
4
0
STYLE
2
STANDARD
70
0
40
0.0
41
1.0
50
0.0
71
0
42
0.2
3
Arial
4

0
STYLE
2
ARIAL
70
0
40
0.0
41
1.0
50
0.0
71
0
42
0.2
3
Arial
4

0
STYLE
2
ARIAL_TTF
70
0
40
0.0
41
1.0
50
0.0
71
0
42
0.2
3
arial.ttf
4

0
STYLE
2
SIMPLEX
70
0
40
0.0
41
1.0
50
0.0
71
0
42
0.2
3
simplex.shx
4

0
ENDTAB
0
ENDSEC
0
SECTION
2
ENTITIES
0
LINE
8
C-BOUNDARY
10
9812.5952
20
10172.2772
30
0.0
11
9843.2918
21
9442.2618
31
0.0
0
TEXT
8
C-ROAD-TEXT
7
STANDARD
10
9827.9435
20
9807.2695
30
0.0
40
5.0
1
S02%%d24'30"E 730.66'
50
0.0
72
1
11
9827.9435
21
9807.2695
31
0.0
73
2
0
LINE
8
C-BOUNDARY
10
9843.2918
20
9442.2618
30
0.0
11
9870.2384
21
7939.9332
31
0.0
0
TEXT
8
C-ROAD-TEXT
7
STANDARD
10
9856.7651
20
8691.0975
30
0.0
40
5.0
1
S01%%d01'40"E 1502.57'
50
0.0
72
1
11
9856.7651
21
8691.0975
31
0.0
73
2
0
LINE
8
C-BOUNDARY
10
9870.2384
20
7939.9332
30
0.0
11
9920.2347
21
7940.5282
31
0.0
0
TEXT
8
C-ROAD-TEXT
7
STANDARD
10
9895.2365
20
7940.2307
30
0.0
40
5.0
1
N89%%d18'20"E 50.00'
50
0.0
72
1
11
9895.2365
21
7940.2307
31
0.0
73
2
0
LINE
8
C-BOUNDARY
10
9920.2347
20
7940.5282
30
0.0
11
9922.0285
21
7840.5223
31
0.0
0
TEXT
8
C-ROAD-TEXT
7
STANDARD
10
9921.1316
20
7890.5253
30
0.0
40
5.0
1
S01%%d01'40"E 100.02'
50
0.0
72
1
11
9921.1316
21
7890.5253
31
0.0
73
2
0
LINE
8
C-BOUNDARY
10
9922.0285
20
7840.5223
30
0.0
11
10508.4956
21
7847.5019
31
0.0
0
TEXT
8
C-ROAD-TEXT
7
STANDARD
10
10215.2620
20
7844.0121
30
0.0
40
5.0
1
N89%%d18'20"E 586.51'
50
0.0
72
1
11
10215.2620
21
7844.0121
31
0.0
73
2
0
LINE
8
C-BOUNDARY
10
10508.4956
20
7847.5019
30
0.0
11
10507.2837
21
7947.4726
31
0.0
0
TEXT
8
C-ROAD-TEXT
7
STANDARD
10
10507.8896
20
7897.4872
30
0.0
40
5.0
1
N00%%d41'40"W 99.98'
50
0.0
72
1
11
10507.8896
21
7897.4872
31
0.0
73
2
0
LINE
8
C-BOUNDARY
10
10507.2837
20
7947.4726
30
0.0
11
10510.8638
21
8007.5127
31
0.0
0
TEXT
8
C-ROAD-TEXT
7
STANDARD
10
10509.0737
20
7977.4926
30
0.0
40
5.0
1
N03%%d24'42"E 60.15'
50
0.0
72
1
11
10509.0737
21
7977.4926
31
0.0
73
2
0
LINE
8
C-BOUNDARY
10
10510.8638
20
8007.5127
30
0.0
11
10508.4399
21
8207.4540
31
0.0
0
TEXT
8
C-ROAD-TEXT
7
STANDARD
10
10509.6518
20
8107.4834
30
0.0
40
5.0
1
N00%%d41'40"W 199.96'
50
0.0
72
1
11
10509.6518
21
8107.4834
31
0.0
73
2
0
LINE
8
C-BOUNDARY
10
10508.4399
20
8207.4540
30
0.0
11
10480.0078
21
8262.6381
31
0.0
0
TEXT
8
C-ROAD-TEXT
7
STANDARD
10
10494.2238
20
8235.0461
30
0.0
40
5.0
1
N27%%d15'10"W 62.08'
50
0.0
72
1
11
10494.2238
21
8235.0461
31
0.0
73
2
0
LINE
8
C-BOUNDARY
10
10480.0078
20
8262.6381
30
0.0
11
10478.7692
21
8364.8081
31
0.0
0
TEXT
8
C-ROAD-TEXT
7
STANDARD
10
10479.3885
20
8313.7231
30
0.0
40
5.0
1
N00%%d41'40"W 102.18'
50
0.0
72
1
11
10479.3885
21
8313.7231
31
0.0
73
2
0
LINE
8
C-BOUNDARY
10
10478.7692
20
8364.8081
30
0.0
11
10418.6880
21
8380.3807
31
0.0
0
TEXT
8
C-ROAD-TEXT
7
STANDARD
10
10448.7286
20
8372.5944
30
0.0
40
5.0
1
N75%%d27'25"W 62.07'
50
0.0
72
1
11
10448.7286
21
8372.5944
31
0.0
73
2
0
LINE
8
C-BOUNDARY
10
10418.6880
20
8380.3807
30
0.0
11
10488.0404
21
8478.2841
31
0.0
0
TEXT
8
C-ROAD-TEXT
7
STANDARD
10
10453.3642
20
8429.3324
30
0.0
40
5.0
1
N35%%d18'20"E 119.98'
50
0.0
72
1
11
10453.3642
21
8429.3324
31
0.0
73
2
0
LINE
8
C-BOUNDARY
10
10488.0404
20
8478.2841
30
0.0
11
10435.6478
21
8535.8890
31
0.0
0
TEXT
8
C-ROAD-TEXT
7
STANDARD
10
10461.8441
20
8507.0866
30
0.0
40
5.0
1
N42%%d16'43"W 77.87'
50
0.0
72
1
11
10461.8441
21
8507.0866
31
0.0
73
2
0
LINE
8
C-BOUNDARY
10
10435.6478
20
8535.8890
30
0.0
11
10551.2352
21
8699.0614
31
0.0
0
TEXT
8
C-ROAD-TEXT
7
STANDARD
10
10493.4415
20
8617.4752
30
0.0
40
5.0
1
N35%%d18'20"E 199.96'
50
0.0
72
1
11
10493.4415
21
8617.4752
31
0.0
73
2
0
LINE
8
C-BOUNDARY
10
10551.2352
20
8699.0614
30
0.0
11
10502.1767
21
8737.9162
31
0.0
0
TEXT
8
C-ROAD-TEXT
7
STANDARD
10
10526.7060
20
8718.4888
30
0.0
40
5.0
1
N51%%d36'38"W 62.58'
50
0.0
72
1
11
10526.7060
21
8718.4888
31
0.0
73
2
0
LINE
8
C-BOUNDARY
10
10502.1767
20
8737.9162
30
0.0
11
10583.0879
21
8852.1368
31
0.0
0
TEXT
8
C-ROAD-TEXT
7
STANDARD
10
10542.6323
20
8795.0265
30
0.0
40
5.0
1
N35%%d18'20"E 139.97'
50
0.0
72
1
11
10542.6323
21
8795.0265
31
0.0
73
2
0
LINE
8
C-BOUNDARY
10
10583.0879
20
8852.1368
30
0.0
11
10827.9125
21
8678.6898
31
0.0
0
TEXT
8
C-ROAD-TEXT
7
STANDARD
10
10705.5002
20
8765.4133
30
0.0
40
5.0
1
S54%%d41'40"E 300.04'
50
0.0
72
1
11
10705.5002
21
8765.4133
31
0.0
73
2
0
LINE
8
C-BOUNDARY
10
10827.9125
20
8678.6898
30
0.0
11
10885.7062
21
8760.2760
31
0.0
0
TEXT
8
C-ROAD-TEXT
7
STANDARD
10
10856.8094
20
8719.4829
30
0.0
40
5.0
1
N35%%d18'20"E 99.98'
50
0.0
72
1
11
10856.8094
21
8719.4829
31
0.0
73
2
0
LINE
8
C-BOUNDARY
10
10885.7062
20
8760.2760
30
0.0
11
10923.6086
21
8806.9557
31
0.0
0
TEXT
8
C-ROAD-TEXT
7
STANDARD
10
10904.6574
20
8783.6159
30
0.0
40
5.0
1
N39%%d04'03"E 60.13'
50
0.0
72
1
11
10904.6574
21
8783.6159
31
0.0
73
2
0
LINE
8
C-BOUNDARY
10
10923.6086
20
8806.9557
30
0.0
11
11073.8723
21
9019.0798
31
0.0
0
TEXT
8
C-ROAD-TEXT
7
STANDARD
10
10998.7404
20
8913.0177
30
0.0
40
5.0
1
N35%%d18'20"E 259.95'
50
0.0
72
1
11
10998.7404
21
8913.0177
31
0.0
73
2
0
LINE
8
C-BOUNDARY
10
11073.8723
20
9019.0798
30
0.0
11
11155.6110
21
8961.1716
31
0.0
0
TEXT
8
C-ROAD-TEXT
7
STANDARD
10
11114.7416
20
8990.1257
30
0.0
40
5.0
1
S54%%d41'40"E 100.17'
50
0.0
72
1
11
11114.7416
21
8990.1257
31
0.0
73
2
0
LINE
8
C-BOUNDARY
10
11155.6110
20
8961.1716
30
0.0
11
11240.3061
21
8908.0200
31
0.0
0
TEXT
8
C-ROAD-TEXT
7
STANDARD
10
11197.9586
20
8934.5958
30
0.0
40
5.0
1
S57%%d53'59"E 99.99'
50
0.0
72
1
11
11197.9586
21
8934.5958
31
0.0
73
2
0
LINE
8
C-BOUNDARY
10
11240.3061
20
8908.0200
30
0.0
11
11288.6267
21
8995.5486
31
0.0
0
TEXT
8
C-ROAD-TEXT
7
STANDARD
10
11264.4664
20
8951.7843
30
0.0
40
5.0
1
N28%%d53'42"E 99.98'
50
0.0
72
1
11
11264.4664
21
8951.7843
31
0.0
73
2
0
LINE
8
C-BOUNDARY
10
11288.6267
20
8995.5486
30
0.0
11
11373.0126
21
8962.8014
31
0.0
0
TEXT
8
C-ROAD-TEXT
7
STANDARD
10
11330.8197
20
8979.1750
30
0.0
40
5.0
1
S68%%d48'08"E 90.52'
50
0.0
72
1
11
11330.8197
21
8979.1750
31
0.0
73
2
0
LINE
8
C-BOUNDARY
10
11373.0126
20
8962.8014
30
0.0
11
11452.6527
21
8993.3925
31
0.0
0
TEXT
8
C-ROAD-TEXT
7
STANDARD
10
11412.8327
20
8978.0970
30
0.0
40
5.0
1
N68%%d58'32"E 85.31'
50
0.0
72
1
11
11412.8327
21
8978.0970
31
0.0
73
2
0
LINE
8
C-BOUNDARY
10
11452.6527
20
8993.3925
30
0.0
11
11437.5280
21
10240.9765
31
0.0
0
TEXT
8
C-ROAD-TEXT
7
STANDARD
10
11445.0904
20
9617.1845
30
0.0
40
5.0
1
N00%%d41'40"W 1247.68'
50
0.0
72
1
11
11445.0904
21
9617.1845
31
0.0
73
2
0
LINE
8
C-BOUNDARY
10
11437.5280
20
10240.9765
30
0.0
11
9812.5952
21
10172.2772
31
0.0
0
TEXT
8
C-ROAD-TEXT
7
STANDARD
10
10625.0616
20
10206.6269
30
0.0
40
5.0
1
S87%%d35'30"W 1626.38'
50
0.0
72
1
11
10625.0616
21
10206.6269
31
0.0
73
2
0
LINE
8
C-ROAD-CNTR
10
10000.0000
20
10000.0000
30
0.0
11
9992.4362
21
10179.8410
31
0.0
0
LINE
8
C-ROAD-ROW-EDGE
10
9970.0265
20
9998.7394
30
0.0
11
9962.4627
21
10178.5804
31
0.0
0
LINE
8
C-ROAD-ROW-EDGE
10
10029.9735
20
10001.2606
30
0.0
11
10022.4097
21
10181.1016
31
0.0
0
TEXT
8
C-ROAD-TEXT
7
STANDARD
10
9996.2181
20
10094.9205
30
0.0
40
4.5
1
Mangrove Avenue [N02%%d24'30"W - 180.00']
50
0.0
72
1
11
9996.2181
21
10094.9205
31
0.0
73
2
0
LINE
8
C-ROAD-CNTR
10
10000.0000
20
10000.0000
30
0.0
11
10010.9255
21
9740.2297
31
0.0
0
LINE
8
C-ROAD-ROW-EDGE
10
10029.9735
20
10001.2606
30
0.0
11
10040.8990
21
9741.4903
31
0.0
0
LINE
8
C-ROAD-ROW-EDGE
10
9970.0265
20
9998.7394
30
0.0
11
9980.9520
21
9738.9690
31
0.0
0
TEXT
8
C-ROAD-TEXT
7
STANDARD
10
10005.4627
20
9875.1148
30
0.0
40
4.5
1
Mangrove Avenue [S02%%d24'30"E - 260.00']
50
0.0
72
1
11
10005.4627
21
9875.1148
31
0.0
73
2
0
LINE
8
C-ROAD-CNTR
10
10010.9255
20
9740.2297
30
0.0
11
10021.8509
21
9480.4593
31
0.0
0
LINE
8
C-ROAD-ROW-EDGE
10
10040.8990
20
9741.4903
30
0.0
11
10051.8244
21
9481.7199
31
0.0
0
LINE
8
C-ROAD-ROW-EDGE
10
9980.9520
20
9738.9690
30
0.0
11
9991.8774
21
9479.1987
31
0.0
0
TEXT
8
C-ROAD-TEXT
7
STANDARD
10
10016.3882
20
9615.3445
30
0.0
40
4.5
1
Mangrove Avenue [S02%%d24'30"E - 260.00']
50
0.0
72
1
11
10016.3882
21
9615.3445
31
0.0
73
2
0
LINE
8
C-ROAD-CNTR
10
10021.8509
20
9480.4593
30
0.0
11
10023.1325
21
9449.9862
31
0.0
0
LINE
8
C-ROAD-ROW-EDGE
10
10051.8244
20
9481.7199
30
0.0
11
10053.1060
21
9451.2469
31
0.0
0
LINE
8
C-ROAD-ROW-EDGE
10
9991.8774
20
9479.1987
30
0.0
11
9993.1590
21
9448.7256
31
0.0
0
TEXT
8
C-ROAD-TEXT
7
STANDARD
10
10022.4917
20
9470.2228
30
0.0
40
4.5
1
Mangrove Avenue [S02%%d24'30"E - 30.50']
50
0.0
72
1
11
10022.4917
21
9470.2228
31
0.0
73
2
0
LINE
8
C-ROAD-CNTR
10
10023.1325
20
9449.9862
30
0.0
11
10027.0787
21
9230.0216
31
0.0
0
LINE
8
C-ROAD-ROW-EDGE
10
10053.1277
20
9450.5244
30
0.0
11
10057.0739
21
9230.5597
31
0.0
0
LINE
8
C-ROAD-ROW-EDGE
10
9993.1374
20
9449.4481
30
0.0
11
9997.0835
21
9229.4835
31
0.0
0
TEXT
8
C-ROAD-TEXT
7
STANDARD
10
10025.1056
20
9345.0039
30
0.0
40
4.5
1
Mangrove Avenue [S01%%d01'40"E - 220.00']
50
0.0
72
1
11
10025.1056
21
9345.0039
31
0.0
73
2
0
LINE
8
C-ROAD-CNTR
10
10027.0787
20
9230.0216
30
0.0
11
10045.0560
21
8227.9429
31
0.0
0
LINE
8
C-ROAD-ROW-EDGE
10
10057.0739
20
9230.5597
30
0.0
11
10075.0512
21
8228.4810
31
0.0
0
LINE
8
C-ROAD-ROW-EDGE
10
9997.0835
20
9229.4835
30
0.0
11
10015.0609
21
8227.4048
31
0.0
0
TEXT
8
C-ROAD-TEXT
7
STANDARD
10
10036.0674
20
8733.9823
30
0.0
40
4.5
1
Mangrove Avenue [S01%%d01'40"E - 1002.24']
50
0.0
72
1
11
10036.0674
21
8733.9823
31
0.0
73
2
0
LINE
8
C-ROAD-CNTR
10
10045.0560
20
8227.9429
30
0.0
11
10047.7466
21
8077.9670
31
0.0
0
LINE
8
C-ROAD-ROW-EDGE
10
10075.0512
20
8228.4810
30
0.0
11
10077.7418
21
8078.5051
31
0.0
0
LINE
8
C-ROAD-ROW-EDGE
10
10015.0609
20
8227.4048
30
0.0
11
10017.7514
21
8077.4289
31
0.0
0
TEXT
8
C-ROAD-TEXT
7
STANDARD
10
10046.4013
20
8157.9549
30
0.0
40
4.5
1
Mangrove Avenue [S01%%d01'40"E - 150.00']
50
0.0
72
1
11
10046.4013
21
8157.9549
31
0.0
73
2
0
LINE
8
C-ROAD-CNTR
10
10047.7466
20
8077.9670
30
0.0
11
10050.0784
21
7947.9879
31
0.0
0
LINE
8
C-ROAD-ROW-EDGE
10
10077.7418
20
8078.5051
30
0.0
11
10080.0736
21
7948.5260
31
0.0
0
LINE
8
C-ROAD-ROW-EDGE
10
10017.7514
20
8077.4289
30
0.0
11
10020.0833
21
7947.4498
31
0.0
0
TEXT
8
C-ROAD-TEXT
7
STANDARD
10
10048.9125
20
8017.9775
30
0.0
40
4.5
1
Mangrove Avenue [S01%%d01'40"E - 130.00']
50
0.0
72
1
11
10048.9125
21
8017.9775
31
0.0
73
2
0
LINE
8
C-ROAD-CNTR
10
9865.0693
20
8225.7613
30
0.0
11
10045.0560
21
8227.9429
31
0.0
0
LINE
8
C-ROAD-ROW-EDGE
10
9864.7057
20
8255.7591
30
0.0
11
10044.6924
21
8257.9407
31
0.0
0
LINE
8
C-ROAD-ROW-EDGE
10
9865.4329
20
8195.7635
30
0.0
11
10045.4196
21
8197.9451
31
0.0
0
TEXT
8
C-ROAD-TEXT
7
STANDARD
10
9955.0626
20
8231.8521
30
0.0
40
4.5
1
Surfwood Avenue [N89%%d18'20"E - 180.00']
50
0.0
72
1
11
9955.0626
21
8231.8521
31
0.0
73
2
0
LINE
8
C-ROAD-CNTR
10
10045.0560
20
8227.9429
30
0.0
11
10489.6234
21
8233.3315
31
0.0
0
LINE
8
C-ROAD-ROW-EDGE
10
10044.6924
20
8257.9407
30
0.0
11
10489.2598
21
8263.3292
31
0.0
0
LINE
8
C-ROAD-ROW-EDGE
10
10045.4196
20
8197.9451
30
0.0
11
10489.9870
21
8203.3337
31
0.0
0
TEXT
8
C-ROAD-TEXT
7
STANDARD
10
10267.3397
20
8235.6372
30
0.0
40
4.5
1
Surfwood Avenue [N89%%d18'20"E - 444.60']
50
0.0
72
1
11
10267.3397
21
8235.6372
31
0.0
73
2
0
LINE
8
C-ROAD-ASSUMP
10
10047.7466
20
8077.9670
30
0.0
11
10351.7243
21
8081.6515
31
0.0
0
LINE
8
C-ROAD-ROW-EDGE
10
10047.3830
20
8107.9648
30
0.0
11
10351.3607
21
8111.6493
31
0.0
0
LINE
8
C-ROAD-ROW-EDGE
10
10048.1102
20
8047.9692
30
0.0
11
10352.0879
21
8051.6537
31
0.0
0
TEXT
8
C-ROAD-ASSUMP-TEXT
7
STANDARD
10
10199.7354
20
8084.8093
30
0.0
40
4.5
1
Bayou Avenue Corridor [N89%%d18'20"E - 304.00'] (ASSUMED)
50
0.0
72
1
11
10199.7354
21
8084.8093
31
0.0
73
2
0
LINE
8
C-ROAD-CNTR
10
9719.5470
20
8725.6589
30
0.0
11
10250.0000
21
8350.0000
31
0.0
0
LINE
8
C-ROAD-ROW-EDGE
10
9736.8851
20
8750.1413
30
0.0
11
10267.3381
21
8374.4824
31
0.0
0
LINE
8
C-ROAD-ROW-EDGE
10
9702.2089
20
8701.1764
30
0.0
11
10232.6619
21
8325.5176
31
0.0
0
TEXT
8
C-ROAD-TEXT
7
STANDARD
10
9984.7735
20
8542.8294
30
0.0
40
4.5
1
San Salvadore Avenue [S54%%d41'40"E - 650.00']
50
0.0
72
1
11
9984.7735
21
8542.8294
31
0.0
73
2
0
LINE
8
C-ROAD-ASSUMP
10
10428.7384
20
8294.8801
30
0.0
11
10489.6234
21
8233.3315
31
0.0
0
LINE
8
C-ROAD-ROW-EDGE
10
10456.3044
20
8283.0431
30
0.0
11
10517.1894
21
8221.4945
31
0.0
0
LINE
8
C-ROAD-ROW-EDGE
10
10401.1723
20
8306.7170
30
0.0
11
10462.0574
21
8245.1684
31
0.0
0
TEXT
8
C-ROAD-ASSUMP-TEXT
7
STANDARD
10
10459.1809
20
8269.1058
30
0.0
40
4.5
1
San Salvadore - Surfwood Transition Tie [S23%%d14'20"W - 86.57'] (ASSUMED)
50
0.0
72
1
11
10459.1809
21
8269.1058
31
0.0
73
2
0
LINE
8
C-ROAD-CNTR
10
9869.8105
20
8937.8401
30
0.0
11
10522.6758
21
8475.4907
31
0.0
0
LINE
8
C-ROAD-ROW-EDGE
10
9887.1486
20
8962.3225
30
0.0
11
10540.0139
21
8499.9731
31
0.0
0
LINE
8
C-ROAD-ROW-EDGE
10
9852.4724
20
8913.3576
30
0.0
11
10505.3377
21
8451.0082
31
0.0
0
TEXT
8
C-ROAD-TEXT
7
STANDARD
10
10196.2432
20
8711.6654
30
0.0
40
4.5
1
Cape Horn Avenue [S54%%d41'40"E - 800.00']
50
0.0
72
1
11
10196.2432
21
8711.6654
31
0.0
73
2
0
LINE
8
C-ROAD-CNTR
10
9820.1590
20
9992.4362
30
0.0
11
10000.0000
21
10000.0000
31
0.0
0
LINE
8
C-ROAD-ROW-EDGE
10
9818.8984
20
10022.4097
30
0.0
11
9998.7394
21
10029.9735
31
0.0
0
LINE
8
C-ROAD-ROW-EDGE
10
9821.4196
20
9962.4627
30
0.0
11
10001.2606
21
9970.0265
31
0.0
0
TEXT
8
C-ROAD-TEXT
7
STANDARD
10
9910.0795
20
10001.2181
30
0.0
40
4.5
1
Starfish Avenue [N87%%d35'30"E - 180.00']
50
0.0
72
1
11
9910.0795
21
10001.2181
31
0.0
73
2
0
LINE
8
C-ROAD-CNTR
10
10000.0000
20
10000.0000
30
0.0
11
11452.2162
21
10061.0775
31
0.0
0
LINE
8
C-ROAD-ROW-EDGE
10
9998.7394
20
10029.9735
30
0.0
11
11450.9555
21
10091.0510
31
0.0
0
LINE
8
C-ROAD-ROW-EDGE
10
10001.2606
20
9970.0265
30
0.0
11
11453.4768
21
10031.1040
31
0.0
0
TEXT
8
C-ROAD-TEXT
7
STANDARD
10
10726.1081
20
10035.5387
30
0.0
40
4.5
1
Starfish Avenue [N87%%d35'30"E - 1453.50']
50
0.0
72
1
11
10726.1081
21
10035.5387
31
0.0
73
2
0
LINE
8
C-ROAD-CNTR
10
9831.0844
20
9732.6659
30
0.0
11
10010.9255
21
9740.2297
31
0.0
0
LINE
8
C-ROAD-ROW-EDGE
10
9829.8238
20
9762.6394
30
0.0
11
10009.6648
21
9770.2032
31
0.0
0
LINE
8
C-ROAD-ROW-EDGE
10
9832.3451
20
9702.6924
30
0.0
11
10012.1861
21
9710.2561
31
0.0
0
TEXT
8
C-ROAD-TEXT
7
STANDARD
10
9921.0049
20
9741.4478
30
0.0
40
4.5
1
Sail Avenue [N87%%d35'30"E - 180.00']
50
0.0
72
1
11
9921.0049
21
9741.4478
31
0.0
73
2
0
LINE
8
C-ROAD-CNTR
10
10010.9255
20
9740.2297
30
0.0
11
11463.1416
21
9801.3071
31
0.0
0
LINE
8
C-ROAD-ROW-EDGE
10
10009.6648
20
9770.2032
30
0.0
11
11461.8810
21
9831.2806
31
0.0
0
LINE
8
C-ROAD-ROW-EDGE
10
10012.1861
20
9710.2561
30
0.0
11
11464.4022
21
9771.3336
31
0.0
0
TEXT
8
C-ROAD-TEXT
7
STANDARD
10
10737.0335
20
9775.7684
30
0.0
40
4.5
1
Sail Avenue [N87%%d35'30"E - 1453.50']
50
0.0
72
1
11
10737.0335
21
9775.7684
31
0.0
73
2
0
LINE
8
C-ROAD-CNTR
10
9842.0099
20
9472.8955
30
0.0
11
10021.8509
21
9480.4593
31
0.0
0
LINE
8
C-ROAD-ROW-EDGE
10
9840.7493
20
9502.8690
30
0.0
11
10020.5903
21
9510.4328
31
0.0
0
LINE
8
C-ROAD-ROW-EDGE
10
9843.2705
20
9442.9220
30
0.0
11
10023.1115
21
9450.4858
31
0.0
0
TEXT
8
C-ROAD-TEXT
7
STANDARD
10
9931.9304
20
9481.6774
30
0.0
40
4.5
1
South Street [N87%%d35'30"E - 180.00']
50
0.0
72
1
11
9931.9304
21
9481.6774
31
0.0
73
2
0
LINE
8
C-ROAD-CNTR
10
10021.8509
20
9480.4593
30
0.0
11
10279.8828
21
9491.3116
31
0.0
0
LINE
8
C-ROAD-ROW-EDGE
10
10020.5903
20
9510.4328
30
0.0
11
10278.6222
21
9521.2851
31
0.0
0
LINE
8
C-ROAD-ROW-EDGE
10
10023.1115
20
9450.4858
30
0.0
11
10281.1434
21
9461.3381
31
0.0
0
TEXT
8
C-ROAD-TEXT
7
STANDARD
10
10150.8668
20
9490.8855
30
0.0
40
4.5
1
South Street [N87%%d35'30"E - 258.26']
50
0.0
72
1
11
10150.8668
21
9490.8855
31
0.0
73
2
0
LINE
8
C-ROAD-CNTR
10
10539.8129
20
9414.5717
30
0.0
11
10700.3939
21
9279.2435
31
0.0
0
LINE
8
C-ROAD-ROW-EDGE
10
10559.1455
20
9437.5119
30
0.0
11
10719.7265
21
9302.1836
31
0.0
0
LINE
8
C-ROAD-ROW-EDGE
10
10520.4803
20
9391.6316
30
0.0
11
10681.0613
21
9256.3033
31
0.0
0
TEXT
8
C-ROAD-TEXT
7
STANDARD
10
10620.1034
20
9351.9076
30
0.0
40
4.5
1
Marina Avenue [S49%%d52'40"E - 210.00']
50
0.0
72
1
11
10620.1034
21
9351.9076
31
0.0
73
2
0
LINE
8
C-ROAD-CNTR
10
10700.3939
20
9279.2435
30
0.0
11
10480.7779
21
8969.1325
31
0.0
0
LINE
8
C-ROAD-ROW-EDGE
10
10724.8763
20
9261.9054
30
0.0
11
10505.2604
21
8951.7944
31
0.0
0
LINE
8
C-ROAD-ROW-EDGE
10
10675.9114
20
9296.5816
30
0.0
11
10456.2955
21
8986.4706
31
0.0
0
TEXT
8
C-ROAD-TEXT
7
STANDARD
10
10590.5859
20
9129.1880
30
0.0
40
4.5
1
Keel Drive [S35%%d18'20"W - 380.00']
50
0.0
72
1
11
10590.5859
21
9129.1880
31
0.0
73
2
0
LINE
8
C-ROAD-ASSUMP
10
11463.1416
20
9801.3071
30
0.0
11
11514.8749
21
9455.1516
31
0.0
0
LINE
8
C-ROAD-ROW-EDGE
10
11512.5924
20
9808.6976
30
0.0
11
11564.3257
21
9462.5420
31
0.0
0
LINE
8
C-ROAD-ROW-EDGE
10
11413.6908
20
9793.9167
30
0.0
11
11465.4241
21
9447.7611
31
0.0
0
TEXT
8
C-ROAD-ASSUMP-TEXT
7
STANDARD
10
11489.0083
20
9633.2294
30
0.0
40
4.5
1
Beachwood Boulevard South Projection [S08%%d30'00"E - 350.00'] (ASSUMED)
50
0.0
72
1
11
11489.0083
21
9633.2294
31
0.0
73
2
0
LINE
8
C-ROAD-ASSUMP
10
11514.8749
20
9455.1516
30
0.0
11
11460.0000
21
9480.0000
31
0.0
0
LINE
8
C-ROAD-ROW-EDGE
10
11516.1355
20
9425.1781
30
0.0
11
11461.2606
21
9450.0265
31
0.0
0
LINE
8
C-ROAD-ROW-EDGE
10
11513.6143
20
9485.1251
30
0.0
11
11458.7394
21
9509.9735
31
0.0
0
TEXT
8
C-ROAD-ASSUMP-TEXT
7
STANDARD
10
11487.4375
20
9472.5758
30
0.0
40
4.5
1
Sands Avenue Approach [S87%%d35'30"W - 60.24'] (ASSUMED)
50
0.0
72
1
11
11487.4375
21
9472.5758
31
0.0
73
2
0
LINE
8
C-ROAD-CNTR
10
9847.2377
20
9222.4579
30
0.0
11
10027.0787
21
9230.0216
31
0.0
0
LINE
8
C-ROAD-ROW-EDGE
10
9845.9771
20
9252.4314
30
0.0
11
10025.8181
21
9259.9951
31
0.0
0
LINE
8
C-ROAD-ROW-EDGE
10
9848.4983
20
9192.4844
30
0.0
11
10028.3393
21
9200.0481
31
0.0
0
TEXT
8
C-ROAD-TEXT
7
STANDARD
10
9937.1582
20
9231.2397
30
0.0
40
4.5
1
Shellfish Drive [N87%%d35'30"E - 180.00']
50
0.0
72
1
11
9937.1582
21
9231.2397
31
0.0
73
2
0
LINE
8
C-ROAD-CNTR
10
10027.0787
20
9230.0216
30
0.0
11
10678.3200
21
9247.9100
31
0.0
0
LINE
8
C-ROAD-ROW-EDGE
10
10025.8181
20
9259.9951
30
0.0
11
10677.0594
21
9277.8835
31
0.0
0
LINE
8
C-ROAD-ROW-EDGE
10
10028.3393
20
9200.0481
30
0.0
11
10679.5806
21
9217.9365
31
0.0
0
TEXT
8
C-ROAD-TEXT
7
STANDARD
10
10352.6994
20
9243.9658
30
0.0
40
4.5
1
Shellfish Drive [N87%%d35'30"E - 651.49']
50
0.0
72
1
11
10352.6994
21
9243.9658
31
0.0
73
2
0
LINE
8
C-ROAD-ASSUMP
10
10678.3200
20
9247.9100
30
0.0
11
11176.0630
21
9278.3458
31
0.0
0
LINE
8
C-ROAD-ROW-EDGE
10
10677.0594
20
9277.8835
30
0.0
11
11174.8023
21
9308.3193
31
0.0
0
LINE
8
C-ROAD-ROW-EDGE
10
10679.5806
20
9217.9365
30
0.0
11
11177.3236
21
9248.3722
31
0.0
0
TEXT
8
C-ROAD-ASSUMP-TEXT
7
STANDARD
10
10927.1915
20
9268.1279
30
0.0
40
4.5
1
Shellfish Drive East Extension [N87%%d35'30"E - 498.67'] (ASSUMED)
50
0.0
72
1
11
10927.1915
21
9268.1279
31
0.0
73
2
0
LINE
8
C-ROAD-PI-TANGENT
10
10279.8828
20
9491.3116
30
0.0
11
10422.9526
21
9497.3289
31
0.0
0
LINE
8
C-ROAD-PI-TANGENT
10
10422.9526
20
9497.3289
30
0.0
11
10539.8129
21
9414.5717
31
0.0
0
LINE
8
C-ROAD-PI-TANGENT
10
10250.0000
20
8350.0000
30
0.0
11
10330.3257
21
8293.1146
31
0.0
0
LINE
8
C-ROAD-PI-TANGENT
10
10330.3257
20
8293.1146
30
0.0
11
10428.7384
21
8294.8801
31
0.0
0
LINE
8
C-ROAD-PI-TANGENT
10
11452.2162
20
10061.0775
30
0.0
11
11457.6932
21
9930.8526
31
0.0
0
LINE
8
C-ROAD-PI-TANGENT
10
11457.6932
20
9930.8526
30
0.0
11
11463.1416
21
9801.3071
31
0.0
0
LINE
8
C-ROAD-PI-TANGENT
10
11460.0000
20
9480.0000
30
0.0
11
11309.3993
21
9473.6660
31
0.0
0
LINE
8
C-ROAD-PI-TANGENT
10
11309.3993
20
9473.6660
30
0.0
11
11189.6664
21
9574.6989
31
0.0
0
LINE
8
C-ROAD-PI-TANGENT
10
10550.5029
20
9067.5884
30
0.0
11
10591.3311
21
9125.2402
31
0.0
0
LINE
8
C-ROAD-PI-TANGENT
10
10591.3311
20
9125.2402
30
0.0
11
10661.9134
21
9128.2088
31
0.0
0
LINE
8
C-ROAD-PI-TANGENT
10
10318.6554
20
8619.9749
30
0.0
11
10406.2247
21
8557.9596
31
0.0
0
LINE
8
C-ROAD-PI-TANGENT
10
10406.2247
20
8557.9596
30
0.0
11
10515.0183
21
8565.0057
31
0.0
0
POLYLINE
8
C-ROAD-CURV
66
1
70
0
0
VERTEX
8
C-ROAD-CURV
10
10250.0000
20
8350.0000
30
0.0
0
VERTEX
8
C-ROAD-CURV
10
10254.8166
20
8346.5168
30
0.0
0
VERTEX
8
C-ROAD-CURV
10
10259.5633
20
8342.9388
30
0.0
0
VERTEX
8
C-ROAD-CURV
10
10264.2381
20
8339.2674
30
0.0
0
VERTEX
8
C-ROAD-CURV
10
10268.8393
20
8335.5042
30
0.0
0
VERTEX
8
C-ROAD-CURV
10
10273.3650
20
8331.6505
30
0.0
0
VERTEX
8
C-ROAD-CURV
10
10277.8134
20
8327.7079
30
0.0
0
VERTEX
8
C-ROAD-CURV
10
10282.1828
20
8323.6779
30
0.0
0
VERTEX
8
C-ROAD-CURV
10
10286.4715
20
8319.5621
30
0.0
0
VERTEX
8
C-ROAD-CURV
10
10290.6779
20
8315.3621
30
0.0
0
VERTEX
8
C-ROAD-CURV
10
10294.8001
20
8311.0797
30
0.0
0
VERTEX
8
C-ROAD-CURV
10
10298.8367
20
8306.7163
30
0.0
0
VERTEX
8
C-ROAD-CURV
10
10302.7861
20
8302.2739
30
0.0
0
VERTEX
8
C-ROAD-CURV
10
10306.6466
20
8297.7540
30
0.0
0
VERTEX
8
C-ROAD-CURV
10
10310.4169
20
8293.1586
30
0.0
0
VERTEX
8
C-ROAD-CURV
10
10314.0953
20
8288.4893
30
0.0
0
VERTEX
8
C-ROAD-CURV
10
10317.6805
20
8283.7481
30
0.0
0
VERTEX
8
C-ROAD-CURV
10
10321.1710
20
8278.9368
30
0.0
0
VERTEX
8
C-ROAD-CURV
10
10324.5655
20
8274.0572
30
0.0
0
VERTEX
8
C-ROAD-CURV
10
10327.8626
20
8269.1113
30
0.0
0
VERTEX
8
C-ROAD-CURV
10
10331.0611
20
8264.1011
30
0.0
0
VERTEX
8
C-ROAD-CURV
10
10334.1597
20
8259.0285
30
0.0
0
VERTEX
8
C-ROAD-CURV
10
10337.1572
20
8253.8954
30
0.0
0
VERTEX
8
C-ROAD-CURV
10
10340.0523
20
8248.7040
30
0.0
0
VERTEX
8
C-ROAD-CURV
10
10342.8440
20
8243.4562
30
0.0
0
VERTEX
8
C-ROAD-CURV
10
10345.5312
20
8238.1542
30
0.0
0
VERTEX
8
C-ROAD-CURV
10
10348.1128
20
8232.7999
30
0.0
0
VERTEX
8
C-ROAD-CURV
10
10350.5878
20
8227.3955
30
0.0
0
VERTEX
8
C-ROAD-CURV
10
10352.9552
20
8221.9432
30
0.0
0
VERTEX
8
C-ROAD-CURV
10
10355.2141
20
8216.4450
30
0.0
0
VERTEX
8
C-ROAD-CURV
10
10357.3636
20
8210.9031
30
0.0
0
VERTEX
8
C-ROAD-CURV
10
10359.4029
20
8205.3197
30
0.0
0
VERTEX
8
C-ROAD-CURV
10
10361.3311
20
8199.6971
30
0.0
0
SEQEND
0
POLYLINE
8
C-ROAD-ROW-EDGE
66
1
70
0
0
VERTEX
8
C-ROAD-ROW-EDGE
10
10232.6619
20
8325.5176
30
0.0
0
VERTEX
8
C-ROAD-ROW-EDGE
10
10236.9968
20
8322.3827
30
0.0
0
VERTEX
8
C-ROAD-ROW-EDGE
10
10241.2687
20
8319.1625
30
0.0
0
VERTEX
8
C-ROAD-ROW-EDGE
10
10245.4760
20
8315.8584
30
0.0
0
VERTEX
8
C-ROAD-ROW-EDGE
10
10249.6170
20
8312.4715
30
0.0
0
VERTEX
8
C-ROAD-ROW-EDGE
10
10253.6900
20
8309.0032
30
0.0
0
VERTEX
8
C-ROAD-ROW-EDGE
10
10257.6936
20
8305.4549
30
0.0
0
VERTEX
8
C-ROAD-ROW-EDGE
10
10261.6260
20
8301.8280
30
0.0
0
VERTEX
8
C-ROAD-ROW-EDGE
10
10265.4858
20
8298.1238
30
0.0
0
VERTEX
8
C-ROAD-ROW-EDGE
10
10269.2714
20
8294.3439
30
0.0
0
VERTEX
8
C-ROAD-ROW-EDGE
10
10272.9814
20
8290.4898
30
0.0
0
VERTEX
8
C-ROAD-ROW-EDGE
10
10276.6143
20
8286.5628
30
0.0
0
VERTEX
8
C-ROAD-ROW-EDGE
10
10280.1687
20
8282.5647
30
0.0
0
VERTEX
8
C-ROAD-ROW-EDGE
10
10283.6431
20
8278.4969
30
0.0
0
VERTEX
8
C-ROAD-ROW-EDGE
10
10287.0363
20
8274.3610
30
0.0
0
VERTEX
8
C-ROAD-ROW-EDGE
10
10290.3468
20
8270.1588
30
0.0
0
VERTEX
8
C-ROAD-ROW-EDGE
10
10293.5734
20
8265.8917
30
0.0
0
VERTEX
8
C-ROAD-ROW-EDGE
10
10296.7148
20
8261.5616
30
0.0
0
VERTEX
8
C-ROAD-ROW-EDGE
10
10299.7698
20
8257.1700
30
0.0
0
VERTEX
8
C-ROAD-ROW-EDGE
10
10302.7372
20
8252.7188
30
0.0
0
VERTEX
8
C-ROAD-ROW-EDGE
10
10305.6158
20
8248.2097
30
0.0
0
VERTEX
8
C-ROAD-ROW-EDGE
10
10308.4045
20
8243.6444
30
0.0
0
VERTEX
8
C-ROAD-ROW-EDGE
10
10311.1022
20
8239.0247
30
0.0
0
VERTEX
8
C-ROAD-ROW-EDGE
10
10313.7078
20
8234.3525
30
0.0
0
VERTEX
8
C-ROAD-ROW-EDGE
10
10316.2203
20
8229.6296
30
0.0
0
VERTEX
8
C-ROAD-ROW-EDGE
10
10318.6387
20
8224.8578
30
0.0
0
VERTEX
8
C-ROAD-ROW-EDGE
10
10320.9621
20
8220.0390
30
0.0
0
VERTEX
8
C-ROAD-ROW-EDGE
10
10323.1896
20
8215.1752
30
0.0
0
VERTEX
8
C-ROAD-ROW-EDGE
10
10325.3202
20
8210.2681
30
0.0
0
VERTEX
8
C-ROAD-ROW-EDGE
10
10327.3532
20
8205.3198
30
0.0
0
VERTEX
8
C-ROAD-ROW-EDGE
10
10329.2877
20
8200.3322
30
0.0
0
VERTEX
8
C-ROAD-ROW-EDGE
10
10331.1230
20
8195.3073
30
0.0
0
VERTEX
8
C-ROAD-ROW-EDGE
10
10332.8584
20
8190.2469
30
0.0
0
SEQEND
0
POLYLINE
8
C-ROAD-ROW-EDGE
66
1
70
0
0
VERTEX
8
C-ROAD-ROW-EDGE
10
10267.3381
20
8374.4824
30
0.0
0
VERTEX
8
C-ROAD-ROW-EDGE
10
10272.6365
20
8370.6508
30
0.0
0
VERTEX
8
C-ROAD-ROW-EDGE
10
10277.8578
20
8366.7150
30
0.0
0
VERTEX
8
C-ROAD-ROW-EDGE
10
10283.0002
20
8362.6765
30
0.0
0
VERTEX
8
C-ROAD-ROW-EDGE
10
10288.0615
20
8358.5368
30
0.0
0
VERTEX
8
C-ROAD-ROW-EDGE
10
10293.0399
20
8354.2977
30
0.0
0
VERTEX
8
C-ROAD-ROW-EDGE
10
10297.9332
20
8349.9608
30
0.0
0
VERTEX
8
C-ROAD-ROW-EDGE
10
10302.7396
20
8345.5278
30
0.0
0
VERTEX
8
C-ROAD-ROW-EDGE
10
10307.4573
20
8341.0003
30
0.0
0
VERTEX
8
C-ROAD-ROW-EDGE
10
10312.0843
20
8336.3803
30
0.0
0
VERTEX
8
C-ROAD-ROW-EDGE
10
10316.6189
20
8331.6696
30
0.0
0
VERTEX
8
C-ROAD-ROW-EDGE
10
10321.0592
20
8326.8698
30
0.0
0
VERTEX
8
C-ROAD-ROW-EDGE
10
10325.4035
20
8321.9831
30
0.0
0
VERTEX
8
C-ROAD-ROW-EDGE
10
10329.6502
20
8317.0112
30
0.0
0
VERTEX
8
C-ROAD-ROW-EDGE
10
10333.7975
20
8311.9561
30
0.0
0
VERTEX
8
C-ROAD-ROW-EDGE
10
10337.8438
20
8306.8199
30
0.0
0
VERTEX
8
C-ROAD-ROW-EDGE
10
10341.7875
20
8301.6045
30
0.0
0
VERTEX
8
C-ROAD-ROW-EDGE
10
10345.6271
20
8296.3119
30
0.0
0
VERTEX
8
C-ROAD-ROW-EDGE
10
10349.3611
20
8290.9443
30
0.0
0
VERTEX
8
C-ROAD-ROW-EDGE
10
10352.9880
20
8285.5038
30
0.0
0
VERTEX
8
C-ROAD-ROW-EDGE
10
10356.5064
20
8279.9925
30
0.0
0
VERTEX
8
C-ROAD-ROW-EDGE
10
10359.9149
20
8274.4125
30
0.0
0
VERTEX
8
C-ROAD-ROW-EDGE
10
10363.2121
20
8268.7661
30
0.0
0
VERTEX
8
C-ROAD-ROW-EDGE
10
10366.3969
20
8263.0555
30
0.0
0
VERTEX
8
C-ROAD-ROW-EDGE
10
10369.4678
20
8257.2829
30
0.0
0
VERTEX
8
C-ROAD-ROW-EDGE
10
10372.4237
20
8251.4506
30
0.0
0
VERTEX
8
C-ROAD-ROW-EDGE
10
10375.2635
20
8245.5608
30
0.0
0
VERTEX
8
C-ROAD-ROW-EDGE
10
10377.9860
20
8239.6159
30
0.0
0
VERTEX
8
C-ROAD-ROW-EDGE
10
10380.5902
20
8233.6183
30
0.0
0
VERTEX
8
C-ROAD-ROW-EDGE
10
10383.0750
20
8227.5702
30
0.0
0
VERTEX
8
C-ROAD-ROW-EDGE
10
10385.4395
20
8221.4740
30
0.0
0
VERTEX
8
C-ROAD-ROW-EDGE
10
10387.6828
20
8215.3322
30
0.0
0
VERTEX
8
C-ROAD-ROW-EDGE
10
10389.8038
20
8209.1472
30
0.0
0
SEQEND
0
TEXT
8
C-ROAD-TEXT
7
STANDARD
10
10317.6805
20
8291.7481
30
0.0
40
5.0
1
San Salvadore Avenue CURVE: R=299.96', L=190.22', Delta=36.33%%d
50
0.0
72
1
11
10317.6805
21
8291.7481
31
0.0
73
2
0
POLYLINE
8
C-ROAD-CURV
66
1
70
0
0
VERTEX
8
C-ROAD-CURV
10
10279.8828
20
9491.3116
30
0.0
0
VERTEX
8
C-ROAD-CURV
10
10288.5026
20
9491.5854
30
0.0
0
VERTEX
8
C-ROAD-CURV
10
10297.1261
20
9491.6818
30
0.0
0
VERTEX
8
C-ROAD-CURV
10
10305.7499
20
9491.6008
30
0.0
0
VERTEX
8
C-ROAD-CURV
10
10314.3701
20
9491.3425
30
0.0
0
VERTEX
8
C-ROAD-CURV
10
10322.9833
20
9490.9069
30
0.0
0
VERTEX
8
C-ROAD-CURV
10
10331.5856
20
9490.2942
30
0.0
0
VERTEX
8
C-ROAD-CURV
10
10340.1735
20
9489.5047
30
0.0
0
VERTEX
8
C-ROAD-CURV
10
10348.7433
20
9488.5388
30
0.0
0
VERTEX
8
C-ROAD-CURV
10
10357.2915
20
9487.3968
30
0.0
0
VERTEX
8
C-ROAD-CURV
10
10365.8144
20
9486.0792
30
0.0
0
VERTEX
8
C-ROAD-CURV
10
10374.3084
20
9484.5866
30
0.0
0
VERTEX
8
C-ROAD-CURV
10
10382.7699
20
9482.9196
30
0.0
0
VERTEX
8
C-ROAD-CURV
10
10391.1953
20
9481.0790
30
0.0
0
VERTEX
8
C-ROAD-CURV
10
10399.5810
20
9479.0654
30
0.0
0
VERTEX
8
C-ROAD-CURV
10
10407.9236
20
9476.8797
30
0.0
0
VERTEX
8
C-ROAD-CURV
10
10416.2194
20
9474.5230
30
0.0
0
VERTEX
8
C-ROAD-CURV
10
10424.4650
20
9471.9961
30
0.0
0
VERTEX
8
C-ROAD-CURV
10
10432.6569
20
9469.3001
30
0.0
0
VERTEX
8
C-ROAD-CURV
10
10440.7917
20
9466.4362
30
0.0
0
VERTEX
8
C-ROAD-CURV
10
10448.8658
20
9463.4056
30
0.0
0
VERTEX
8
C-ROAD-CURV
10
10456.8758
20
9460.2096
30
0.0
0
VERTEX
8
C-ROAD-CURV
10
10464.8184
20
9456.8495
30
0.0
0
VERTEX
8
C-ROAD-CURV
10
10472.6902
20
9453.3267
30
0.0
0
VERTEX
8
C-ROAD-CURV
10
10480.4879
20
9449.6428
30
0.0
0
VERTEX
8
C-ROAD-CURV
10
10488.2082
20
9445.7992
30
0.0
0
VERTEX
8
C-ROAD-CURV
10
10495.8478
20
9441.7977
30
0.0
0
VERTEX
8
C-ROAD-CURV
10
10503.4035
20
9437.6399
30
0.0
0
VERTEX
8
C-ROAD-CURV
10
10510.8720
20
9433.3276
30
0.0
0
VERTEX
8
C-ROAD-CURV
10
10518.2503
20
9428.8626
30
0.0
0
VERTEX
8
C-ROAD-CURV
10
10525.5352
20
9424.2467
30
0.0
0
VERTEX
8
C-ROAD-CURV
10
10532.7236
20
9419.4820
30
0.0
0
VERTEX
8
C-ROAD-CURV
10
10539.8125
20
9414.5705
30
0.0
0
SEQEND
0
POLYLINE
8
C-ROAD-ROW-EDGE
66
1
70
0
0
VERTEX
8
C-ROAD-ROW-EDGE
10
10281.1434
20
9461.3381
30
0.0
0
VERTEX
8
C-ROAD-ROW-EDGE
10
10289.1464
20
9461.5923
30
0.0
0
VERTEX
8
C-ROAD-ROW-EDGE
10
10297.1530
20
9461.6818
30
0.0
0
VERTEX
8
C-ROAD-ROW-EDGE
10
10305.1597
20
9461.6066
30
0.0
0
VERTEX
8
C-ROAD-ROW-EDGE
10
10313.1631
20
9461.3668
30
0.0
0
VERTEX
8
C-ROAD-ROW-EDGE
10
10321.1599
20
9460.9623
30
0.0
0
VERTEX
8
C-ROAD-ROW-EDGE
10
10329.1467
20
9460.3935
30
0.0
0
VERTEX
8
C-ROAD-ROW-EDGE
10
10337.1201
20
9459.6605
30
0.0
0
VERTEX
8
C-ROAD-ROW-EDGE
10
10345.0768
20
9458.7637
30
0.0
0
VERTEX
8
C-ROAD-ROW-EDGE
10
10353.0133
20
9457.7034
30
0.0
0
VERTEX
8
C-ROAD-ROW-EDGE
10
10360.9264
20
9456.4801
30
0.0
0
VERTEX
8
C-ROAD-ROW-EDGE
10
10368.8126
20
9455.0943
30
0.0
0
VERTEX
8
C-ROAD-ROW-EDGE
10
10376.6686
20
9453.5466
30
0.0
0
VERTEX
8
C-ROAD-ROW-EDGE
10
10384.4911
20
9451.8376
30
0.0
0
VERTEX
8
C-ROAD-ROW-EDGE
10
10392.2769
20
9449.9681
30
0.0
0
VERTEX
8
C-ROAD-ROW-EDGE
10
10400.0225
20
9447.9389
30
0.0
0
VERTEX
8
C-ROAD-ROW-EDGE
10
10407.7248
20
9445.7507
30
0.0
0
VERTEX
8
C-ROAD-ROW-EDGE
10
10415.3804
20
9443.4046
30
0.0
0
VERTEX
8
C-ROAD-ROW-EDGE
10
10422.9861
20
9440.9016
30
0.0
0
VERTEX
8
C-ROAD-ROW-EDGE
10
10430.5388
20
9438.2426
30
0.0
0
VERTEX
8
C-ROAD-ROW-EDGE
10
10438.0352
20
9435.4289
30
0.0
0
VERTEX
8
C-ROAD-ROW-EDGE
10
10445.4721
20
9432.4615
30
0.0
0
VERTEX
8
C-ROAD-ROW-EDGE
10
10452.8464
20
9429.3418
30
0.0
0
VERTEX
8
C-ROAD-ROW-EDGE
10
10460.1549
20
9426.0711
30
0.0
0
VERTEX
8
C-ROAD-ROW-EDGE
10
10467.3947
20
9422.6508
30
0.0
0
VERTEX
8
C-ROAD-ROW-EDGE
10
10474.5626
20
9419.0823
30
0.0
0
VERTEX
8
C-ROAD-ROW-EDGE
10
10481.6555
20
9415.3671
30
0.0
0
VERTEX
8
C-ROAD-ROW-EDGE
10
10488.6706
20
9411.5068
30
0.0
0
VERTEX
8
C-ROAD-ROW-EDGE
10
10495.6047
20
9407.5030
30
0.0
0
VERTEX
8
C-ROAD-ROW-EDGE
10
10502.4550
20
9403.3575
30
0.0
0
VERTEX
8
C-ROAD-ROW-EDGE
10
10509.2187
20
9399.0719
30
0.0
0
VERTEX
8
C-ROAD-ROW-EDGE
10
10515.8927
20
9394.6481
30
0.0
0
VERTEX
8
C-ROAD-ROW-EDGE
10
10522.4744
20
9390.0880
30
0.0
0
SEQEND
0
POLYLINE
8
C-ROAD-ROW-EDGE
66
1
70
0
0
VERTEX
8
C-ROAD-ROW-EDGE
10
10278.6222
20
9521.2851
30
0.0
0
VERTEX
8
C-ROAD-ROW-EDGE
10
10287.8587
20
9521.5785
30
0.0
0
VERTEX
8
C-ROAD-ROW-EDGE
10
10297.0993
20
9521.6818
30
0.0
0
VERTEX
8
C-ROAD-ROW-EDGE
10
10306.3401
20
9521.5950
30
0.0
0
VERTEX
8
C-ROAD-ROW-EDGE
10
10315.5772
20
9521.3182
30
0.0
0
VERTEX
8
C-ROAD-ROW-EDGE
10
10324.8066
20
9520.8514
30
0.0
0
VERTEX
8
C-ROAD-ROW-EDGE
10
10334.0244
20
9520.1949
30
0.0
0
VERTEX
8
C-ROAD-ROW-EDGE
10
10343.2268
20
9519.3490
30
0.0
0
VERTEX
8
C-ROAD-ROW-EDGE
10
10352.4099
20
9518.3139
30
0.0
0
VERTEX
8
C-ROAD-ROW-EDGE
10
10361.5697
20
9517.0902
30
0.0
0
VERTEX
8
C-ROAD-ROW-EDGE
10
10370.7024
20
9515.6783
30
0.0
0
VERTEX
8
C-ROAD-ROW-EDGE
10
10379.8042
20
9514.0789
30
0.0
0
VERTEX
8
C-ROAD-ROW-EDGE
10
10388.8711
20
9512.2927
30
0.0
0
VERTEX
8
C-ROAD-ROW-EDGE
10
10397.8994
20
9510.3203
30
0.0
0
VERTEX
8
C-ROAD-ROW-EDGE
10
10406.8851
20
9508.1626
30
0.0
0
VERTEX
8
C-ROAD-ROW-EDGE
10
10415.8246
20
9505.8206
30
0.0
0
VERTEX
8
C-ROAD-ROW-EDGE
10
10424.7141
20
9503.2952
30
0.0
0
VERTEX
8
C-ROAD-ROW-EDGE
10
10433.5497
20
9500.5875
30
0.0
0
VERTEX
8
C-ROAD-ROW-EDGE
10
10442.3278
20
9497.6986
30
0.0
0
VERTEX
8
C-ROAD-ROW-EDGE
10
10451.0445
20
9494.6298
30
0.0
0
VERTEX
8
C-ROAD-ROW-EDGE
10
10459.6964
20
9491.3823
30
0.0
0
VERTEX
8
C-ROAD-ROW-EDGE
10
10468.2795
20
9487.9576
30
0.0
0
VERTEX
8
C-ROAD-ROW-EDGE
10
10476.7905
20
9484.3571
30
0.0
0
VERTEX
8
C-ROAD-ROW-EDGE
10
10485.2256
20
9480.5823
30
0.0
0
VERTEX
8
C-ROAD-ROW-EDGE
10
10493.5812
20
9476.6347
30
0.0
0
VERTEX
8
C-ROAD-ROW-EDGE
10
10501.8539
20
9472.5162
30
0.0
0
VERTEX
8
C-ROAD-ROW-EDGE
10
10510.0401
20
9468.2284
30
0.0
0
VERTEX
8
C-ROAD-ROW-EDGE
10
10518.1364
20
9463.7731
30
0.0
0
VERTEX
8
C-ROAD-ROW-EDGE
10
10526.1394
20
9459.1522
30
0.0
0
VERTEX
8
C-ROAD-ROW-EDGE
10
10534.0456
20
9454.3677
30
0.0
0
VERTEX
8
C-ROAD-ROW-EDGE
10
10541.8517
20
9449.4215
30
0.0
0
VERTEX
8
C-ROAD-ROW-EDGE
10
10549.5545
20
9444.3159
30
0.0
0
VERTEX
8
C-ROAD-ROW-EDGE
10
10557.1506
20
9439.0529
30
0.0
0
SEQEND
0
TEXT
8
C-ROAD-TEXT
7
STANDARD
10
10416.2194
20
9482.5230
30
0.0
40
5.0
1
Marina Avenue CURVE: R=419.27', L=275.98', Delta=37.71%%d
50
0.0
72
1
11
10416.2194
21
9482.5230
31
0.0
73
2
0
POLYLINE
8
C-ROAD-CURV
66
1
70
0
0
VERTEX
8
C-ROAD-CURV
10
10550.5029
20
9067.5884
30
0.0
0
VERTEX
8
C-ROAD-CURV
10
10548.0833
20
9064.2730
30
0.0
0
VERTEX
8
C-ROAD-CURV
10
10545.5702
20
9061.0280
30
0.0
0
VERTEX
8
C-ROAD-CURV
10
10542.9655
20
9057.8560
30
0.0
0
VERTEX
8
C-ROAD-CURV
10
10540.2714
20
9054.7595
30
0.0
0
VERTEX
8
C-ROAD-CURV
10
10537.4902
20
9051.7411
30
0.0
0
VERTEX
8
C-ROAD-CURV
10
10534.6240
20
9048.8032
30
0.0
0
VERTEX
8
C-ROAD-CURV
10
10531.6752
20
9045.9482
30
0.0
0
VERTEX
8
C-ROAD-CURV
10
10528.6462
20
9043.1785
30
0.0
0
VERTEX
8
C-ROAD-CURV
10
10525.5395
20
9040.4963
30
0.0
0
VERTEX
8
C-ROAD-CURV
10
10522.3575
20
9037.9037
30
0.0
0
VERTEX
8
C-ROAD-CURV
10
10519.1030
20
9035.4029
30
0.0
0
VERTEX
8
C-ROAD-CURV
10
10515.7784
20
9032.9960
30
0.0
0
VERTEX
8
C-ROAD-CURV
10
10512.3866
20
9030.6848
30
0.0
0
VERTEX
8
C-ROAD-CURV
10
10508.9302
20
9028.4713
30
0.0
0
VERTEX
8
C-ROAD-CURV
10
10505.4121
20
9026.3572
30
0.0
0
VERTEX
8
C-ROAD-CURV
10
10501.8352
20
9024.3443
30
0.0
0
VERTEX
8
C-ROAD-CURV
10
10498.2023
20
9022.4343
30
0.0
0
VERTEX
8
C-ROAD-CURV
10
10494.5165
20
9020.6285
30
0.0
0
VERTEX
8
C-ROAD-CURV
10
10490.7806
20
9018.9287
30
0.0
0
VERTEX
8
C-ROAD-CURV
10
10486.9978
20
9017.3360
30
0.0
0
VERTEX
8
C-ROAD-CURV
10
10483.1711
20
9015.8518
30
0.0
0
VERTEX
8
C-ROAD-CURV
10
10479.3037
20
9014.4774
30
0.0
0
VERTEX
8
C-ROAD-CURV
10
10475.3987
20
9013.2138
30
0.0
0
VERTEX
8
C-ROAD-CURV
10
10471.4592
20
9012.0620
30
0.0
0
VERTEX
8
C-ROAD-CURV
10
10467.4884
20
9011.0230
30
0.0
0
VERTEX
8
C-ROAD-CURV
10
10463.4897
20
9010.0977
30
0.0
0
VERTEX
8
C-ROAD-CURV
10
10459.4662
20
9009.2868
30
0.0
0
VERTEX
8
C-ROAD-CURV
10
10455.4212
20
9008.5910
30
0.0
0
VERTEX
8
C-ROAD-CURV
10
10451.3580
20
9008.0107
30
0.0
0
VERTEX
8
C-ROAD-CURV
10
10447.2799
20
9007.5466
30
0.0
0
VERTEX
8
C-ROAD-CURV
10
10443.1903
20
9007.1989
30
0.0
0
VERTEX
8
C-ROAD-CURV
10
10439.0924
20
9006.9680
30
0.0
0
SEQEND
0
POLYLINE
8
C-ROAD-ROW-EDGE
66
1
70
0
0
VERTEX
8
C-ROAD-ROW-EDGE
10
10526.0205
20
9084.9265
30
0.0
0
VERTEX
8
C-ROAD-ROW-EDGE
10
10524.1052
20
9082.3022
30
0.0
0
VERTEX
8
C-ROAD-ROW-EDGE
10
10522.1159
20
9079.7335
30
0.0
0
VERTEX
8
C-ROAD-ROW-EDGE
10
10520.0541
20
9077.2226
30
0.0
0
VERTEX
8
C-ROAD-ROW-EDGE
10
10517.9216
20
9074.7716
30
0.0
0
VERTEX
8
C-ROAD-ROW-EDGE
10
10515.7201
20
9072.3823
30
0.0
0
VERTEX
8
C-ROAD-ROW-EDGE
10
10513.4513
20
9070.0568
30
0.0
0
VERTEX
8
C-ROAD-ROW-EDGE
10
10511.1171
20
9067.7969
30
0.0
0
VERTEX
8
C-ROAD-ROW-EDGE
10
10508.7195
20
9065.6045
30
0.0
0
VERTEX
8
C-ROAD-ROW-EDGE
10
10506.2603
20
9063.4813
30
0.0
0
VERTEX
8
C-ROAD-ROW-EDGE
10
10503.7416
20
9061.4291
30
0.0
0
VERTEX
8
C-ROAD-ROW-EDGE
10
10501.1654
20
9059.4496
30
0.0
0
VERTEX
8
C-ROAD-ROW-EDGE
10
10498.5337
20
9057.5444
30
0.0
0
VERTEX
8
C-ROAD-ROW-EDGE
10
10495.8489
20
9055.7149
30
0.0
0
VERTEX
8
C-ROAD-ROW-EDGE
10
10493.1129
20
9053.9628
30
0.0
0
VERTEX
8
C-ROAD-ROW-EDGE
10
10490.3281
20
9052.2893
30
0.0
0
VERTEX
8
C-ROAD-ROW-EDGE
10
10487.4968
20
9050.6960
30
0.0
0
VERTEX
8
C-ROAD-ROW-EDGE
10
10484.6211
20
9049.1840
30
0.0
0
VERTEX
8
C-ROAD-ROW-EDGE
10
10481.7035
20
9047.7547
30
0.0
0
VERTEX
8
C-ROAD-ROW-EDGE
10
10478.7464
20
9046.4091
30
0.0
0
VERTEX
8
C-ROAD-ROW-EDGE
10
10475.7520
20
9045.1484
30
0.0
0
VERTEX
8
C-ROAD-ROW-EDGE
10
10472.7230
20
9043.9736
30
0.0
0
VERTEX
8
C-ROAD-ROW-EDGE
10
10469.6616
20
9042.8856
30
0.0
0
VERTEX
8
C-ROAD-ROW-EDGE
10
10466.5705
20
9041.8854
30
0.0
0
VERTEX
8
C-ROAD-ROW-EDGE
10
10463.4522
20
9040.9737
30
0.0
0
VERTEX
8
C-ROAD-ROW-EDGE
10
10460.3091
20
9040.1513
30
0.0
0
VERTEX
8
C-ROAD-ROW-EDGE
10
10457.1438
20
9039.4189
30
0.0
0
VERTEX
8
C-ROAD-ROW-EDGE
10
10453.9590
20
9038.7770
30
0.0
0
VERTEX
8
C-ROAD-ROW-EDGE
10
10450.7571
20
9038.2262
30
0.0
0
VERTEX
8
C-ROAD-ROW-EDGE
10
10447.5408
20
9037.7669
30
0.0
0
VERTEX
8
C-ROAD-ROW-EDGE
10
10444.3127
20
9037.3995
30
0.0
0
VERTEX
8
C-ROAD-ROW-EDGE
10
10441.0755
20
9037.1243
30
0.0
0
VERTEX
8
C-ROAD-ROW-EDGE
10
10437.8317
20
9036.9415
30
0.0
0
SEQEND
0
POLYLINE
8
C-ROAD-ROW-EDGE
66
1
70
0
0
VERTEX
8
C-ROAD-ROW-EDGE
10
10574.9854
20
9050.2503
30
0.0
0
VERTEX
8
C-ROAD-ROW-EDGE
10
10572.0614
20
9046.2439
30
0.0
0
VERTEX
8
C-ROAD-ROW-EDGE
10
10569.0244
20
9042.3225
30
0.0
0
VERTEX
8
C-ROAD-ROW-EDGE
10
10565.8769
20
9038.4893
30
0.0
0
VERTEX
8
C-ROAD-ROW-EDGE
10
10562.6213
20
9034.7474
30
0.0
0
VERTEX
8
C-ROAD-ROW-EDGE
10
10559.2603
20
9031.0998
30
0.0
0
VERTEX
8
C-ROAD-ROW-EDGE
10
10555.7968
20
9027.5496
30
0.0
0
VERTEX
8
C-ROAD-ROW-EDGE
10
10552.2333
20
9024.0995
30
0.0
0
VERTEX
8
C-ROAD-ROW-EDGE
10
10548.5730
20
9020.7525
30
0.0
0
VERTEX
8
C-ROAD-ROW-EDGE
10
10544.8187
20
9017.5112
30
0.0
0
VERTEX
8
C-ROAD-ROW-EDGE
10
10540.9735
20
9014.3783
30
0.0
0
VERTEX
8
C-ROAD-ROW-EDGE
10
10537.0406
20
9011.3563
30
0.0
0
VERTEX
8
C-ROAD-ROW-EDGE
10
10533.0231
20
9008.4476
30
0.0
0
VERTEX
8
C-ROAD-ROW-EDGE
10
10528.9242
20
9005.6547
30
0.0
0
VERTEX
8
C-ROAD-ROW-EDGE
10
10524.7474
20
9002.9798
30
0.0
0
VERTEX
8
C-ROAD-ROW-EDGE
10
10520.4961
20
9000.4251
30
0.0
0
VERTEX
8
C-ROAD-ROW-EDGE
10
10516.1736
20
8997.9927
30
0.0
0
VERTEX
8
C-ROAD-ROW-EDGE
10
10511.7835
20
8995.6845
30
0.0
0
VERTEX
8
C-ROAD-ROW-EDGE
10
10507.3294
20
8993.5024
30
0.0
0
VERTEX
8
C-ROAD-ROW-EDGE
10
10502.8149
20
8991.4482
30
0.0
0
VERTEX
8
C-ROAD-ROW-EDGE
10
10498.2436
20
8989.5235
30
0.0
0
VERTEX
8
C-ROAD-ROW-EDGE
10
10493.6193
20
8987.7300
30
0.0
0
VERTEX
8
C-ROAD-ROW-EDGE
10
10488.9458
20
8986.0691
30
0.0
0
VERTEX
8
C-ROAD-ROW-EDGE
10
10484.2268
20
8984.5421
30
0.0
0
VERTEX
8
C-ROAD-ROW-EDGE
10
10479.4662
20
8983.1503
30
0.0
0
VERTEX
8
C-ROAD-ROW-EDGE
10
10474.6678
20
8981.8948
30
0.0
0
VERTEX
8
C-ROAD-ROW-EDGE
10
10469.8356
20
8980.7766
30
0.0
0
VERTEX
8
C-ROAD-ROW-EDGE
10
10464.9734
20
8979.7966
30
0.0
0
VERTEX
8
C-ROAD-ROW-EDGE
10
10460.0853
20
8978.9557
30
0.0
0
VERTEX
8
C-ROAD-ROW-EDGE
10
10455.1752
20
8978.2546
30
0.0
0
VERTEX
8
C-ROAD-ROW-EDGE
10
10450.2471
20
8977.6937
30
0.0
0
VERTEX
8
C-ROAD-ROW-EDGE
10
10445.3051
20
8977.2735
30
0.0
0
VERTEX
8
C-ROAD-ROW-EDGE
10
10440.3530
20
8976.9945
30
0.0
0
SEQEND
0
TEXT
8
C-ROAD-TEXT
7
STANDARD
10
10501.8352
20
9032.3443
30
0.0
40
5.0
1
Keel Drive CURVE: R=143.93', L=131.35', Delta=52.29%%d
50
0.0
72
1
11
10501.8352
21
9032.3443
31
0.0
73
2
0
POLYLINE
8
C-ROAD-CURV
66
1
70
0
0
VERTEX
8
C-ROAD-CURV
10
11452.2162
20
10061.0775
30
0.0
0
VERTEX
8
C-ROAD-CURV
10
11452.5411
20
10052.9511
30
0.0
0
VERTEX
8
C-ROAD-CURV
10
11452.8322
20
10044.8235
30
0.0
0
VERTEX
8
C-ROAD-CURV
10
11453.0897
20
10036.6948
30
0.0
0
VERTEX
8
C-ROAD-CURV
10
11453.3134
20
10028.5650
30
0.0
0
VERTEX
8
C-ROAD-CURV
10
11453.5033
20
10020.4344
30
0.0
0
VERTEX
8
C-ROAD-CURV
10
11453.6595
20
10012.3031
30
0.0
0
VERTEX
8
C-ROAD-CURV
10
11453.7820
20
10004.1712
30
0.0
0
VERTEX
8
C-ROAD-CURV
10
11453.8708
20
9996.0388
30
0.0
0
VERTEX
8
C-ROAD-CURV
10
11453.9257
20
9987.9062
30
0.0
0
VERTEX
8
C-ROAD-CURV
10
11453.9470
20
9979.7734
30
0.0
0
VERTEX
8
C-ROAD-CURV
10
11453.9345
20
9971.6406
30
0.0
0
VERTEX
8
C-ROAD-CURV
10
11453.8882
20
9963.5079
30
0.0
0
VERTEX
8
C-ROAD-CURV
10
11453.8082
20
9955.3754
30
0.0
0
VERTEX
8
C-ROAD-CURV
10
11453.6944
20
9947.2434
30
0.0
0
VERTEX
8
C-ROAD-CURV
10
11453.5469
20
9939.1119
30
0.0
0
VERTEX
8
C-ROAD-CURV
10
11453.3657
20
9930.9811
30
0.0
0
VERTEX
8
C-ROAD-CURV
10
11453.1507
20
9922.8511
30
0.0
0
VERTEX
8
C-ROAD-CURV
10
11452.9020
20
9914.7221
30
0.0
0
VERTEX
8
C-ROAD-CURV
10
11452.6195
20
9906.5942
30
0.0
0
VERTEX
8
C-ROAD-CURV
10
11452.3034
20
9898.4675
30
0.0
0
VERTEX
8
C-ROAD-CURV
10
11451.9535
20
9890.3422
30
0.0
0
VERTEX
8
C-ROAD-CURV
10
11451.5699
20
9882.2184
30
0.0
0
VERTEX
8
C-ROAD-CURV
10
11451.1526
20
9874.0963
30
0.0
0
VERTEX
8
C-ROAD-CURV
10
11450.7015
20
9865.9760
30
0.0
0
VERTEX
8
C-ROAD-CURV
10
11450.2168
20
9857.8576
30
0.0
0
VERTEX
8
C-ROAD-CURV
10
11449.6984
20
9849.7413
30
0.0
0
VERTEX
8
C-ROAD-CURV
10
11449.1464
20
9841.6272
30
0.0
0
VERTEX
8
C-ROAD-CURV
10
11448.5606
20
9833.5155
30
0.0
0
VERTEX
8
C-ROAD-CURV
10
11447.9413
20
9825.4063
30
0.0
0
VERTEX
8
C-ROAD-CURV
10
11447.2882
20
9817.2998
30
0.0
0
VERTEX
8
C-ROAD-CURV
10
11446.6015
20
9809.1960
30
0.0
0
VERTEX
8
C-ROAD-CURV
10
11445.8813
20
9801.0951
30
0.0
0
SEQEND
0
POLYLINE
8
C-ROAD-ROW-EDGE
66
1
70
0
0
VERTEX
8
C-ROAD-ROW-EDGE
10
11402.2603
20
10058.9764
30
0.0
0
VERTEX
8
C-ROAD-ROW-EDGE
10
11402.5769
20
10051.0574
30
0.0
0
VERTEX
8
C-ROAD-ROW-EDGE
10
11402.8607
20
10043.1372
30
0.0
0
VERTEX
8
C-ROAD-ROW-EDGE
10
11403.1115
20
10035.2158
30
0.0
0
VERTEX
8
C-ROAD-ROW-EDGE
10
11403.3295
20
10027.2934
30
0.0
0
VERTEX
8
C-ROAD-ROW-EDGE
10
11403.5146
20
10019.3703
30
0.0
0
VERTEX
8
C-ROAD-ROW-EDGE
10
11403.6669
20
10011.4464
30
0.0
0
VERTEX
8
C-ROAD-ROW-EDGE
10
11403.7862
20
10003.5219
30
0.0
0
VERTEX
8
C-ROAD-ROW-EDGE
10
11403.8727
20
9995.5971
30
0.0
0
VERTEX
8
C-ROAD-ROW-EDGE
10
11403.9263
20
9987.6719
30
0.0
0
VERTEX
8
C-ROAD-ROW-EDGE
10
11403.9470
20
9979.7466
30
0.0
0
VERTEX
8
C-ROAD-ROW-EDGE
10
11403.9348
20
9971.8212
30
0.0
0
VERTEX
8
C-ROAD-ROW-EDGE
10
11403.8897
20
9963.8960
30
0.0
0
VERTEX
8
C-ROAD-ROW-EDGE
10
11403.8117
20
9955.9711
30
0.0
0
VERTEX
8
C-ROAD-ROW-EDGE
10
11403.7009
20
9948.0465
30
0.0
0
VERTEX
8
C-ROAD-ROW-EDGE
10
11403.5571
20
9940.1225
30
0.0
0
VERTEX
8
C-ROAD-ROW-EDGE
10
11403.3805
20
9932.1991
30
0.0
0
VERTEX
8
C-ROAD-ROW-EDGE
10
11403.1710
20
9924.2765
30
0.0
0
VERTEX
8
C-ROAD-ROW-EDGE
10
11402.9287
20
9916.3549
30
0.0
0
VERTEX
8
C-ROAD-ROW-EDGE
10
11402.6534
20
9908.4343
30
0.0
0
VERTEX
8
C-ROAD-ROW-EDGE
10
11402.3453
20
9900.5149
30
0.0
0
VERTEX
8
C-ROAD-ROW-EDGE
10
11402.0044
20
9892.5969
30
0.0
0
VERTEX
8
C-ROAD-ROW-EDGE
10
11401.6305
20
9884.6804
30
0.0
0
VERTEX
8
C-ROAD-ROW-EDGE
10
11401.2239
20
9876.7655
30
0.0
0
VERTEX
8
C-ROAD-ROW-EDGE
10
11400.7844
20
9868.8524
30
0.0
0
VERTEX
8
C-ROAD-ROW-EDGE
10
11400.3120
20
9860.9411
30
0.0
0
VERTEX
8
C-ROAD-ROW-EDGE
10
11399.8068
20
9853.0319
30
0.0
0
VERTEX
8
C-ROAD-ROW-EDGE
10
11399.2689
20
9845.1248
30
0.0
0
VERTEX
8
C-ROAD-ROW-EDGE
10
11398.6981
20
9837.2201
30
0.0
0
VERTEX
8
C-ROAD-ROW-EDGE
10
11398.0945
20
9829.3177
30
0.0
0
VERTEX
8
C-ROAD-ROW-EDGE
10
11397.4581
20
9821.4180
30
0.0
0
VERTEX
8
C-ROAD-ROW-EDGE
10
11396.7889
20
9813.5209
30
0.0
0
VERTEX
8
C-ROAD-ROW-EDGE
10
11396.0870
20
9805.6267
30
0.0
0
SEQEND
0
POLYLINE
8
C-ROAD-ROW-EDGE
66
1
70
0
0
VERTEX
8
C-ROAD-ROW-EDGE
10
11502.1720
20
10063.1785
30
0.0
0
VERTEX
8
C-ROAD-ROW-EDGE
10
11502.5052
20
10054.8449
30
0.0
0
VERTEX
8
C-ROAD-ROW-EDGE
10
11502.8038
20
10046.5099
30
0.0
0
VERTEX
8
C-ROAD-ROW-EDGE
10
11503.0678
20
10038.1738
30
0.0
0
VERTEX
8
C-ROAD-ROW-EDGE
10
11503.2972
20
10029.8366
30
0.0
0
VERTEX
8
C-ROAD-ROW-EDGE
10
11503.4920
20
10021.4986
30
0.0
0
VERTEX
8
C-ROAD-ROW-EDGE
10
11503.6522
20
10013.1598
30
0.0
0
VERTEX
8
C-ROAD-ROW-EDGE
10
11503.7778
20
10004.8204
30
0.0
0
VERTEX
8
C-ROAD-ROW-EDGE
10
11503.8688
20
9996.4806
30
0.0
0
VERTEX
8
C-ROAD-ROW-EDGE
10
11503.9252
20
9988.1405
30
0.0
0
VERTEX
8
C-ROAD-ROW-EDGE
10
11503.9470
20
9979.8002
30
0.0
0
VERTEX
8
C-ROAD-ROW-EDGE
10
11503.9341
20
9971.4599
30
0.0
0
VERTEX
8
C-ROAD-ROW-EDGE
10
11503.8867
20
9963.1197
30
0.0
0
VERTEX
8
C-ROAD-ROW-EDGE
10
11503.8046
20
9954.7798
30
0.0
0
VERTEX
8
C-ROAD-ROW-EDGE
10
11503.6880
20
9946.4403
30
0.0
0
VERTEX
8
C-ROAD-ROW-EDGE
10
11503.5367
20
9938.1014
30
0.0
0
VERTEX
8
C-ROAD-ROW-EDGE
10
11503.3509
20
9929.7631
30
0.0
0
VERTEX
8
C-ROAD-ROW-EDGE
10
11503.1304
20
9921.4257
30
0.0
0
VERTEX
8
C-ROAD-ROW-EDGE
10
11502.8753
20
9913.0893
30
0.0
0
VERTEX
8
C-ROAD-ROW-EDGE
10
11502.5857
20
9904.7540
30
0.0
0
VERTEX
8
C-ROAD-ROW-EDGE
10
11502.2614
20
9896.4200
30
0.0
0
VERTEX
8
C-ROAD-ROW-EDGE
10
11501.9026
20
9888.0874
30
0.0
0
VERTEX
8
C-ROAD-ROW-EDGE
10
11501.5092
20
9879.7564
30
0.0
0
VERTEX
8
C-ROAD-ROW-EDGE
10
11501.0813
20
9871.4271
30
0.0
0
VERTEX
8
C-ROAD-ROW-EDGE
10
11500.6187
20
9863.0996
30
0.0
0
VERTEX
8
C-ROAD-ROW-EDGE
10
11500.1217
20
9854.7741
30
0.0
0
VERTEX
8
C-ROAD-ROW-EDGE
10
11499.5900
20
9846.4508
30
0.0
0
VERTEX
8
C-ROAD-ROW-EDGE
10
11499.0239
20
9838.1297
30
0.0
0
VERTEX
8
C-ROAD-ROW-EDGE
10
11498.4232
20
9829.8110
30
0.0
0
VERTEX
8
C-ROAD-ROW-EDGE
10
11497.7880
20
9821.4949
30
0.0
0
VERTEX
8
C-ROAD-ROW-EDGE
10
11497.1183
20
9813.1815
30
0.0
0
VERTEX
8
C-ROAD-ROW-EDGE
10
11496.4141
20
9804.8710
30
0.0
0
VERTEX
8
C-ROAD-ROW-EDGE
10
11495.6755
20
9796.5635
30
0.0
0
SEQEND
0
TEXT
8
C-ROAD-TEXT
7
STANDARD
10
11453.3657
20
9938.9811
30
0.0
40
5.0
1
Beachwood Boulevard CURVE: R=1959.86', L=260.19', Delta=7.61%%d
50
0.0
72
1
11
11453.3657
21
9938.9811
31
0.0
73
2
0
POLYLINE
8
C-ROAD-ASSUMP
66
1
70
0
0
VERTEX
8
C-ROAD-ASSUMP
10
11460.0000
20
9480.0000
30
0.0
0
VERTEX
8
C-ROAD-ASSUMP
10
11469.0906
20
9480.4726
30
0.0
0
VERTEX
8
C-ROAD-ASSUMP
10
11478.1701
20
9481.1253
30
0.0
0
VERTEX
8
C-ROAD-ASSUMP
10
11487.2348
20
9481.9577
30
0.0
0
VERTEX
8
C-ROAD-ASSUMP
10
11496.2812
20
9482.9696
30
0.0
0
VERTEX
8
C-ROAD-ASSUMP
10
11505.3059
20
9484.1605
30
0.0
0
VERTEX
8
C-ROAD-ASSUMP
10
11514.3051
20
9485.5301
30
0.0
0
VERTEX
8
C-ROAD-ASSUMP
10
11523.2755
20
9487.0777
30
0.0
0
VERTEX
8
C-ROAD-ASSUMP
10
11532.2134
20
9488.8027
30
0.0
0
VERTEX
8
C-ROAD-ASSUMP
10
11541.1154
20
9490.7046
30
0.0
0
VERTEX
8
C-ROAD-ASSUMP
10
11549.9780
20
9492.7824
30
0.0
0
VERTEX
8
C-ROAD-ASSUMP
10
11558.7976
20
9495.0355
30
0.0
0
VERTEX
8
C-ROAD-ASSUMP
10
11567.5709
20
9497.4628
30
0.0
0
VERTEX
8
C-ROAD-ASSUMP
10
11576.2943
20
9500.0636
30
0.0
0
VERTEX
8
C-ROAD-ASSUMP
10
11584.9645
20
9502.8367
30
0.0
0
VERTEX
8
C-ROAD-ASSUMP
10
11593.5781
20
9505.7810
30
0.0
0
VERTEX
8
C-ROAD-ASSUMP
10
11602.1316
20
9508.8955
30
0.0
0
VERTEX
8
C-ROAD-ASSUMP
10
11610.6217
20
9512.1788
30
0.0
0
VERTEX
8
C-ROAD-ASSUMP
10
11619.0451
20
9515.6297
30
0.0
0
VERTEX
8
C-ROAD-ASSUMP
10
11627.3985
20
9519.2469
30
0.0
0
VERTEX
8
C-ROAD-ASSUMP
10
11635.6785
20
9523.0289
30
0.0
0
VERTEX
8
C-ROAD-ASSUMP
10
11643.8820
20
9526.9742
30
0.0
0
VERTEX
8
C-ROAD-ASSUMP
10
11652.0056
20
9531.0813
30
0.0
0
VERTEX
8
C-ROAD-ASSUMP
10
11660.0463
20
9535.3485
30
0.0
0
VERTEX
8
C-ROAD-ASSUMP
10
11668.0009
20
9539.7743
30
0.0
0
VERTEX
8
C-ROAD-ASSUMP
10
11675.8662
20
9544.3568
30
0.0
0
VERTEX
8
C-ROAD-ASSUMP
10
11683.6392
20
9549.0942
30
0.0
0
VERTEX
8
C-ROAD-ASSUMP
10
11691.3167
20
9553.9848
30
0.0
0
VERTEX
8
C-ROAD-ASSUMP
10
11698.8959
20
9559.0265
30
0.0
0
VERTEX
8
C-ROAD-ASSUMP
10
11706.3736
20
9564.2175
30
0.0
0
VERTEX
8
C-ROAD-ASSUMP
10
11713.7470
20
9569.5555
30
0.0
0
VERTEX
8
C-ROAD-ASSUMP
10
11721.0132
20
9575.0387
30
0.0
0
VERTEX
8
C-ROAD-ASSUMP
10
11728.1693
20
9580.6647
30
0.0
0
SEQEND
0
POLYLINE
8
C-ROAD-ROW-EDGE
66
1
70
0
0
VERTEX
8
C-ROAD-ROW-EDGE
10
11458.7394
20
9509.9735
30
0.0
0
VERTEX
8
C-ROAD-ROW-EDGE
10
11467.2363
20
9510.4152
30
0.0
0
VERTEX
8
C-ROAD-ROW-EDGE
10
11475.7228
20
9511.0253
30
0.0
0
VERTEX
8
C-ROAD-ROW-EDGE
10
11484.1955
20
9511.8033
30
0.0
0
VERTEX
8
C-ROAD-ROW-EDGE
10
11492.6512
20
9512.7491
30
0.0
0
VERTEX
8
C-ROAD-ROW-EDGE
10
11501.0864
20
9513.8623
30
0.0
0
VERTEX
8
C-ROAD-ROW-EDGE
10
11509.4979
20
9515.1424
30
0.0
0
VERTEX
8
C-ROAD-ROW-EDGE
10
11517.8825
20
9516.5890
30
0.0
0
VERTEX
8
C-ROAD-ROW-EDGE
10
11526.2367
20
9518.2013
30
0.0
0
VERTEX
8
C-ROAD-ROW-EDGE
10
11534.5573
20
9519.9790
30
0.0
0
VERTEX
8
C-ROAD-ROW-EDGE
10
11542.8410
20
9521.9211
30
0.0
0
VERTEX
8
C-ROAD-ROW-EDGE
10
11551.0847
20
9524.0270
30
0.0
0
VERTEX
8
C-ROAD-ROW-EDGE
10
11559.2850
20
9526.2959
30
0.0
0
VERTEX
8
C-ROAD-ROW-EDGE
10
11567.4387
20
9528.7268
30
0.0
0
VERTEX
8
C-ROAD-ROW-EDGE
10
11575.5427
20
9531.3187
30
0.0
0
VERTEX
8
C-ROAD-ROW-EDGE
10
11583.5937
20
9534.0708
30
0.0
0
VERTEX
8
C-ROAD-ROW-EDGE
10
11591.5886
20
9536.9819
30
0.0
0
VERTEX
8
C-ROAD-ROW-EDGE
10
11599.5242
20
9540.0508
30
0.0
0
VERTEX
8
C-ROAD-ROW-EDGE
10
11607.3975
20
9543.2763
30
0.0
0
VERTEX
8
C-ROAD-ROW-EDGE
10
11615.2053
20
9546.6573
30
0.0
0
VERTEX
8
C-ROAD-ROW-EDGE
10
11622.9446
20
9550.1922
30
0.0
0
VERTEX
8
C-ROAD-ROW-EDGE
10
11630.6123
20
9553.8799
30
0.0
0
VERTEX
8
C-ROAD-ROW-EDGE
10
11638.2055
20
9557.7187
30
0.0
0
VERTEX
8
C-ROAD-ROW-EDGE
10
11645.7210
20
9561.7073
30
0.0
0
VERTEX
8
C-ROAD-ROW-EDGE
10
11653.1561
20
9565.8440
30
0.0
0
VERTEX
8
C-ROAD-ROW-EDGE
10
11660.5077
20
9570.1273
30
0.0
0
VERTEX
8
C-ROAD-ROW-EDGE
10
11667.7731
20
9574.5553
30
0.0
0
VERTEX
8
C-ROAD-ROW-EDGE
10
11674.9492
20
9579.1265
30
0.0
0
VERTEX
8
C-ROAD-ROW-EDGE
10
11682.0334
20
9583.8389
30
0.0
0
VERTEX
8
C-ROAD-ROW-EDGE
10
11689.0228
20
9588.6909
30
0.0
0
VERTEX
8
C-ROAD-ROW-EDGE
10
11695.9146
20
9593.6803
30
0.0
0
VERTEX
8
C-ROAD-ROW-EDGE
10
11702.7063
20
9598.8054
30
0.0
0
VERTEX
8
C-ROAD-ROW-EDGE
10
11709.3950
20
9604.0640
30
0.0
0
SEQEND
0
POLYLINE
8
C-ROAD-ROW-EDGE
66
1
70
0
0
VERTEX
8
C-ROAD-ROW-EDGE
10
11461.2606
20
9450.0265
30
0.0
0
VERTEX
8
C-ROAD-ROW-EDGE
10
11470.9449
20
9450.5300
30
0.0
0
VERTEX
8
C-ROAD-ROW-EDGE
10
11480.6173
20
9451.2252
30
0.0
0
VERTEX
8
C-ROAD-ROW-EDGE
10
11490.2741
20
9452.1120
30
0.0
0
VERTEX
8
C-ROAD-ROW-EDGE
10
11499.9113
20
9453.1900
30
0.0
0
VERTEX
8
C-ROAD-ROW-EDGE
10
11509.5254
20
9454.4587
30
0.0
0
VERTEX
8
C-ROAD-ROW-EDGE
10
11519.1123
20
9455.9177
30
0.0
0
VERTEX
8
C-ROAD-ROW-EDGE
10
11528.6685
20
9457.5664
30
0.0
0
VERTEX
8
C-ROAD-ROW-EDGE
10
11538.1902
20
9459.4041
30
0.0
0
VERTEX
8
C-ROAD-ROW-EDGE
10
11547.6736
20
9461.4301
30
0.0
0
VERTEX
8
C-ROAD-ROW-EDGE
10
11557.1149
20
9463.6437
30
0.0
0
VERTEX
8
C-ROAD-ROW-EDGE
10
11566.5106
20
9466.0439
30
0.0
0
VERTEX
8
C-ROAD-ROW-EDGE
10
11575.8568
20
9468.6298
30
0.0
0
VERTEX
8
C-ROAD-ROW-EDGE
10
11585.1499
20
9471.4004
30
0.0
0
VERTEX
8
C-ROAD-ROW-EDGE
10
11594.3864
20
9474.3546
30
0.0
0
VERTEX
8
C-ROAD-ROW-EDGE
10
11603.5625
20
9477.4912
30
0.0
0
VERTEX
8
C-ROAD-ROW-EDGE
10
11612.6746
20
9480.8091
30
0.0
0
VERTEX
8
C-ROAD-ROW-EDGE
10
11621.7192
20
9484.3068
30
0.0
0
VERTEX
8
C-ROAD-ROW-EDGE
10
11630.6927
20
9487.9831
30
0.0
0
VERTEX
8
C-ROAD-ROW-EDGE
10
11639.5916
20
9491.8365
30
0.0
0
VERTEX
8
C-ROAD-ROW-EDGE
10
11648.4124
20
9495.8655
30
0.0
0
VERTEX
8
C-ROAD-ROW-EDGE
10
11657.1516
20
9500.0685
30
0.0
0
VERTEX
8
C-ROAD-ROW-EDGE
10
11665.8058
20
9504.4438
30
0.0
0
VERTEX
8
C-ROAD-ROW-EDGE
10
11674.3717
20
9508.9897
30
0.0
0
VERTEX
8
C-ROAD-ROW-EDGE
10
11682.8457
20
9513.7045
30
0.0
0
VERTEX
8
C-ROAD-ROW-EDGE
10
11691.2247
20
9518.5863
30
0.0
0
VERTEX
8
C-ROAD-ROW-EDGE
10
11699.5053
20
9523.6332
30
0.0
0
VERTEX
8
C-ROAD-ROW-EDGE
10
11707.6842
20
9528.8431
30
0.0
0
VERTEX
8
C-ROAD-ROW-EDGE
10
11715.7584
20
9534.2141
30
0.0
0
VERTEX
8
C-ROAD-ROW-EDGE
10
11723.7245
20
9539.7440
30
0.0
0
VERTEX
8
C-ROAD-ROW-EDGE
10
11731.5794
20
9545.4307
30
0.0
0
VERTEX
8
C-ROAD-ROW-EDGE
10
11739.3202
20
9551.2720
30
0.0
0
VERTEX
8
C-ROAD-ROW-EDGE
10
11746.9436
20
9557.2654
30
0.0
0
SEQEND
0
TEXT
8
C-ROAD-TEXT
7
STANDARD
10
11602.1316
20
9516.8955
30
0.0
40
5.0
1
Sands Avenue CURVE: R=459.36', L=291.30', Delta=36.33%%d
50
0.0
72
1
11
11602.1316
21
9516.8955
31
0.0
73
2
0
POLYLINE
8
C-ROAD-CURV
66
1
70
0
0
VERTEX
8
C-ROAD-CURV
10
10318.6554
20
8619.9749
30
0.0
0
VERTEX
8
C-ROAD-CURV
10
10323.9806
20
8616.2823
30
0.0
0
VERTEX
8
C-ROAD-CURV
10
10329.3779
20
8612.6960
30
0.0
0
VERTEX
8
C-ROAD-CURV
10
10334.8452
20
8609.2174
30
0.0
0
VERTEX
8
C-ROAD-CURV
10
10340.3804
20
8605.8478
30
0.0
0
VERTEX
8
C-ROAD-CURV
10
10345.9813
20
8602.5885
30
0.0
0
VERTEX
8
C-ROAD-CURV
10
10351.6456
20
8599.4408
30
0.0
0
VERTEX
8
C-ROAD-CURV
10
10357.3713
20
8596.4060
30
0.0
0
VERTEX
8
C-ROAD-CURV
10
10363.1559
20
8593.4853
30
0.0
0
VERTEX
8
C-ROAD-CURV
10
10368.9972
20
8590.6797
30
0.0
0
VERTEX
8
C-ROAD-CURV
10
10374.8931
20
8587.9905
30
0.0
0
VERTEX
8
C-ROAD-CURV
10
10380.8410
20
8585.4186
30
0.0
0
VERTEX
8
C-ROAD-CURV
10
10386.8387
20
8582.9651
30
0.0
0
VERTEX
8
C-ROAD-CURV
10
10392.8839
20
8580.6309
30
0.0
0
VERTEX
8
C-ROAD-CURV
10
10398.9742
20
8578.4169
30
0.0
0
VERTEX
8
C-ROAD-CURV
10
10405.1071
20
8576.3241
30
0.0
0
VERTEX
8
C-ROAD-CURV
10
10411.2803
20
8574.3532
30
0.0
0
VERTEX
8
C-ROAD-CURV
10
10417.4913
20
8572.5050
30
0.0
0
VERTEX
8
C-ROAD-CURV
10
10423.7377
20
8570.7802
30
0.0
0
VERTEX
8
C-ROAD-CURV
10
10430.0171
20
8569.1796
30
0.0
0
VERTEX
8
C-ROAD-CURV
10
10436.3270
20
8567.7037
30
0.0
0
VERTEX
8
C-ROAD-CURV
10
10442.6648
20
8566.3531
30
0.0
0
VERTEX
8
C-ROAD-CURV
10
10449.0282
20
8565.1284
30
0.0
0
VERTEX
8
C-ROAD-CURV
10
10455.4146
20
8564.0300
30
0.0
0
VERTEX
8
C-ROAD-CURV
10
10461.8215
20
8563.0584
30
0.0
0
VERTEX
8
C-ROAD-CURV
10
10468.2464
20
8562.2140
30
0.0
0
VERTEX
8
C-ROAD-CURV
10
10474.6868
20
8561.4970
30
0.0
0
VERTEX
8
C-ROAD-CURV
10
10481.1402
20
8560.9077
30
0.0
0
VERTEX
8
C-ROAD-CURV
10
10487.6039
20
8560.4465
30
0.0
0
VERTEX
8
C-ROAD-CURV
10
10494.0755
20
8560.1134
30
0.0
0
VERTEX
8
C-ROAD-CURV
10
10500.5524
20
8559.9087
30
0.0
0
VERTEX
8
C-ROAD-CURV
10
10507.0322
20
8559.8323
30
0.0
0
VERTEX
8
C-ROAD-CURV
10
10513.5121
20
8559.8843
30
0.0
0
SEQEND
0
POLYLINE
8
C-ROAD-ROW-EDGE
66
1
70
0
0
VERTEX
8
C-ROAD-ROW-EDGE
10
10335.9935
20
8644.4573
30
0.0
0
VERTEX
8
C-ROAD-ROW-EDGE
10
10340.8302
20
8641.1035
30
0.0
0
VERTEX
8
C-ROAD-ROW-EDGE
10
10345.7323
20
8637.8462
30
0.0
0
VERTEX
8
C-ROAD-ROW-EDGE
10
10350.6981
20
8634.6867
30
0.0
0
VERTEX
8
C-ROAD-ROW-EDGE
10
10355.7255
20
8631.6262
30
0.0
0
VERTEX
8
C-ROAD-ROW-EDGE
10
10360.8125
20
8628.6660
30
0.0
0
VERTEX
8
C-ROAD-ROW-EDGE
10
10365.9572
20
8625.8071
30
0.0
0
VERTEX
8
C-ROAD-ROW-EDGE
10
10371.1576
20
8623.0507
30
0.0
0
VERTEX
8
C-ROAD-ROW-EDGE
10
10376.4115
20
8620.3979
30
0.0
0
VERTEX
8
C-ROAD-ROW-EDGE
10
10381.7170
20
8617.8497
30
0.0
0
VERTEX
8
C-ROAD-ROW-EDGE
10
10387.0719
20
8615.4072
30
0.0
0
VERTEX
8
C-ROAD-ROW-EDGE
10
10392.4742
20
8613.0712
30
0.0
0
VERTEX
8
C-ROAD-ROW-EDGE
10
10397.9217
20
8610.8428
30
0.0
0
VERTEX
8
C-ROAD-ROW-EDGE
10
10403.4123
20
8608.7227
30
0.0
0
VERTEX
8
C-ROAD-ROW-EDGE
10
10408.9438
20
8606.7119
30
0.0
0
VERTEX
8
C-ROAD-ROW-EDGE
10
10414.5141
20
8604.8111
30
0.0
0
VERTEX
8
C-ROAD-ROW-EDGE
10
10420.1209
20
8603.0210
30
0.0
0
VERTEX
8
C-ROAD-ROW-EDGE
10
10425.7621
20
8601.3423
30
0.0
0
VERTEX
8
C-ROAD-ROW-EDGE
10
10431.4355
20
8599.7758
30
0.0
0
VERTEX
8
C-ROAD-ROW-EDGE
10
10437.1388
20
8598.3220
30
0.0
0
VERTEX
8
C-ROAD-ROW-EDGE
10
10442.8698
20
8596.9815
30
0.0
0
VERTEX
8
C-ROAD-ROW-EDGE
10
10448.6263
20
8595.7549
30
0.0
0
VERTEX
8
C-ROAD-ROW-EDGE
10
10454.4059
20
8594.6425
30
0.0
0
VERTEX
8
C-ROAD-ROW-EDGE
10
10460.2064
20
8593.6449
30
0.0
0
VERTEX
8
C-ROAD-ROW-EDGE
10
10466.0255
20
8592.7624
30
0.0
0
VERTEX
8
C-ROAD-ROW-EDGE
10
10471.8610
20
8591.9954
30
0.0
0
VERTEX
8
C-ROAD-ROW-EDGE
10
10477.7106
20
8591.3442
30
0.0
0
VERTEX
8
C-ROAD-ROW-EDGE
10
10483.5719
20
8590.8090
30
0.0
0
VERTEX
8
C-ROAD-ROW-EDGE
10
10489.4426
20
8590.3901
30
0.0
0
VERTEX
8
C-ROAD-ROW-EDGE
10
10495.3205
20
8590.0876
30
0.0
0
VERTEX
8
C-ROAD-ROW-EDGE
10
10501.2033
20
8589.9016
30
0.0
0
VERTEX
8
C-ROAD-ROW-EDGE
10
10507.0885
20
8589.8322
30
0.0
0
VERTEX
8
C-ROAD-ROW-EDGE
10
10512.9740
20
8589.8795
30
0.0
0
SEQEND
0
POLYLINE
8
C-ROAD-ROW-EDGE
66
1
70
0
0
VERTEX
8
C-ROAD-ROW-EDGE
10
10301.3173
20
8595.4924
30
0.0
0
VERTEX
8
C-ROAD-ROW-EDGE
10
10307.1310
20
8591.4611
30
0.0
0
VERTEX
8
C-ROAD-ROW-EDGE
10
10313.0235
20
8587.5458
30
0.0
0
VERTEX
8
C-ROAD-ROW-EDGE
10
10318.9924
20
8583.7480
30
0.0
0
VERTEX
8
C-ROAD-ROW-EDGE
10
10325.0354
20
8580.0693
30
0.0
0
VERTEX
8
C-ROAD-ROW-EDGE
10
10331.1501
20
8576.5110
30
0.0
0
VERTEX
8
C-ROAD-ROW-EDGE
10
10337.3341
20
8573.0746
30
0.0
0
VERTEX
8
C-ROAD-ROW-EDGE
10
10343.5850
20
8569.7614
30
0.0
0
VERTEX
8
C-ROAD-ROW-EDGE
10
10349.9003
20
8566.5727
30
0.0
0
VERTEX
8
C-ROAD-ROW-EDGE
10
10356.2775
20
8563.5097
30
0.0
0
VERTEX
8
C-ROAD-ROW-EDGE
10
10362.7142
20
8560.5738
30
0.0
0
VERTEX
8
C-ROAD-ROW-EDGE
10
10369.2078
20
8557.7659
30
0.0
0
VERTEX
8
C-ROAD-ROW-EDGE
10
10375.7558
20
8555.0873
30
0.0
0
VERTEX
8
C-ROAD-ROW-EDGE
10
10382.3556
20
8552.5390
30
0.0
0
VERTEX
8
C-ROAD-ROW-EDGE
10
10389.0045
20
8550.1219
30
0.0
0
VERTEX
8
C-ROAD-ROW-EDGE
10
10395.7001
20
8547.8371
30
0.0
0
VERTEX
8
C-ROAD-ROW-EDGE
10
10402.4396
20
8545.6854
30
0.0
0
VERTEX
8
C-ROAD-ROW-EDGE
10
10409.2204
20
8543.6676
30
0.0
0
VERTEX
8
C-ROAD-ROW-EDGE
10
10416.0399
20
8541.7847
30
0.0
0
VERTEX
8
C-ROAD-ROW-EDGE
10
10422.8953
20
8540.0372
30
0.0
0
VERTEX
8
C-ROAD-ROW-EDGE
10
10429.7841
20
8538.4259
30
0.0
0
VERTEX
8
C-ROAD-ROW-EDGE
10
10436.7034
20
8536.9514
30
0.0
0
VERTEX
8
C-ROAD-ROW-EDGE
10
10443.6505
20
8535.6143
30
0.0
0
VERTEX
8
C-ROAD-ROW-EDGE
10
10450.6228
20
8534.4152
30
0.0
0
VERTEX
8
C-ROAD-ROW-EDGE
10
10457.6175
20
8533.3544
30
0.0
0
VERTEX
8
C-ROAD-ROW-EDGE
10
10464.6319
20
8532.4325
30
0.0
0
VERTEX
8
C-ROAD-ROW-EDGE
10
10471.6631
20
8531.6497
30
0.0
0
VERTEX
8
C-ROAD-ROW-EDGE
10
10478.7085
20
8531.0065
30
0.0
0
VERTEX
8
C-ROAD-ROW-EDGE
10
10485.7652
20
8530.5029
30
0.0
0
VERTEX
8
C-ROAD-ROW-EDGE
10
10492.8305
20
8530.1393
30
0.0
0
VERTEX
8
C-ROAD-ROW-EDGE
10
10499.9016
20
8529.9157
30
0.0
0
VERTEX
8
C-ROAD-ROW-EDGE
10
10506.9758
20
8529.8323
30
0.0
0
VERTEX
8
C-ROAD-ROW-EDGE
10
10514.0502
20
8529.8891
30
0.0
0
SEQEND
0
TEXT
8
C-ROAD-TEXT
7
STANDARD
10
10411.2803
20
8582.3532
30
0.0
40
5.0
1
Cape Horn Avenue CURVE: R=327.01', L=207.37', Delta=36.33%%d
50
0.0
72
1
11
10411.2803
21
8582.3532
31
0.0
73
2
0
POLYLINE
8
C-ROAD-ALIGNMENT
66
1
70
0
0
VERTEX
8
C-ROAD-ALIGNMENT
10
9992.4362
20
10179.8410
30
0.0
0
VERTEX
8
C-ROAD-ALIGNMENT
10
10000.0000
20
10000.0000
30
0.0
0
VERTEX
8
C-ROAD-ALIGNMENT
10
10010.9255
20
9740.2297
30
0.0
0
VERTEX
8
C-ROAD-ALIGNMENT
10
10021.8509
20
9480.4593
30
0.0
0
VERTEX
8
C-ROAD-ALIGNMENT
10
10023.1325
20
9449.9862
30
0.0
0
VERTEX
8
C-ROAD-ALIGNMENT
10
10027.0787
20
9230.0216
30
0.0
0
VERTEX
8
C-ROAD-ALIGNMENT
10
10045.0560
20
8227.9429
30
0.0
0
VERTEX
8
C-ROAD-ALIGNMENT
10
10047.7466
20
8077.9670
30
0.0
0
VERTEX
8
C-ROAD-ALIGNMENT
10
10050.0784
20
7947.9879
30
0.0
0
SEQEND
0
TEXT
8
C-ROAD-TEXT
7
STANDARD
10
9994.4362
20
10181.8410
30
0.0
40
3.5
1
STA 0+00.00
50
0.0
0
TEXT
8
C-ROAD-TEXT
7
STANDARD
10
10002.0000
20
10002.0000
30
0.0
40
3.5
1
STA 1+80.00
50
0.0
0
TEXT
8
C-ROAD-TEXT
7
STANDARD
10
10012.9255
20
9742.2297
30
0.0
40
3.5
1
STA 4+40.00
50
0.0
0
TEXT
8
C-ROAD-TEXT
7
STANDARD
10
10023.8509
20
9482.4593
30
0.0
40
3.5
1
STA 7+00.00
50
0.0
0
TEXT
8
C-ROAD-TEXT
7
STANDARD
10
10025.1325
20
9451.9862
30
0.0
40
3.5
1
STA 7+30.50
50
0.0
0
TEXT
8
C-ROAD-TEXT
7
STANDARD
10
10029.0787
20
9232.0216
30
0.0
40
3.5
1
STA 9+50.50
50
0.0
0
TEXT
8
C-ROAD-TEXT
7
STANDARD
10
10047.0560
20
8229.9429
30
0.0
40
3.5
1
STA 19+52.74
50
0.0
0
TEXT
8
C-ROAD-TEXT
7
STANDARD
10
10049.7466
20
8079.9670
30
0.0
40
3.5
1
STA 21+02.74
50
0.0
0
TEXT
8
C-ROAD-TEXT
7
STANDARD
10
10052.0784
20
7949.9879
30
0.0
40
3.5
1
STA 22+32.74
50
0.0
0
POLYLINE
8
C-ROAD-ALIGNMENT
66
1
70
0
0
VERTEX
8
C-ROAD-ALIGNMENT
10
9820.1590
20
9992.4362
30
0.0
0
VERTEX
8
C-ROAD-ALIGNMENT
10
10000.0000
20
10000.0000
30
0.0
0
VERTEX
8
C-ROAD-ALIGNMENT
10
11452.2162
20
10061.0775
30
0.0
0
SEQEND
0
TEXT
8
C-ROAD-TEXT
7
STANDARD
10
9822.1590
20
9994.4362
30
0.0
40
3.5
1
STA 0+00.00
50
0.0
0
TEXT
8
C-ROAD-TEXT
7
STANDARD
10
10002.0000
20
10002.0000
30
0.0
40
3.5
1
STA 1+80.00
50
0.0
0
TEXT
8
C-ROAD-TEXT
7
STANDARD
10
11454.2162
20
10063.0775
30
0.0
40
3.5
1
STA 16+33.50
50
0.0
0
POLYLINE
8
C-ROAD-ALIGNMENT
66
1
70
0
0
VERTEX
8
C-ROAD-ALIGNMENT
10
9831.0844
20
9732.6659
30
0.0
0
VERTEX
8
C-ROAD-ALIGNMENT
10
10010.9255
20
9740.2297
30
0.0
0
VERTEX
8
C-ROAD-ALIGNMENT
10
11463.1416
20
9801.3071
30
0.0
0
SEQEND
0
TEXT
8
C-ROAD-TEXT
7
STANDARD
10
9833.0844
20
9734.6659
30
0.0
40
3.5
1
STA 0+00.00
50
0.0
0
TEXT
8
C-ROAD-TEXT
7
STANDARD
10
10012.9255
20
9742.2297
30
0.0
40
3.5
1
STA 1+80.00
50
0.0
0
TEXT
8
C-ROAD-TEXT
7
STANDARD
10
11465.1416
20
9803.3071
30
0.0
40
3.5
1
STA 16+33.50
50
0.0
0
POLYLINE
8
C-ROAD-ALIGNMENT
66
1
70
0
0
VERTEX
8
C-ROAD-ALIGNMENT
10
9842.0099
20
9472.8955
30
0.0
0
VERTEX
8
C-ROAD-ALIGNMENT
10
10021.8509
20
9480.4593
30
0.0
0
VERTEX
8
C-ROAD-ALIGNMENT
10
10279.8828
20
9491.3116
30
0.0
0
VERTEX
8
C-ROAD-ALIGNMENT
10
10297.1261
20
9491.6818
30
0.0
0
VERTEX
8
C-ROAD-ALIGNMENT
10
10314.3701
20
9491.3425
30
0.0
0
VERTEX
8
C-ROAD-ALIGNMENT
10
10331.5856
20
9490.2942
30
0.0
0
VERTEX
8
C-ROAD-ALIGNMENT
10
10348.7433
20
9488.5388
30
0.0
0
VERTEX
8
C-ROAD-ALIGNMENT
10
10365.8144
20
9486.0792
30
0.0
0
VERTEX
8
C-ROAD-ALIGNMENT
10
10382.7699
20
9482.9196
30
0.0
0
VERTEX
8
C-ROAD-ALIGNMENT
10
10399.5810
20
9479.0654
30
0.0
0
VERTEX
8
C-ROAD-ALIGNMENT
10
10416.2194
20
9474.5230
30
0.0
0
VERTEX
8
C-ROAD-ALIGNMENT
10
10432.6569
20
9469.3001
30
0.0
0
VERTEX
8
C-ROAD-ALIGNMENT
10
10448.8658
20
9463.4056
30
0.0
0
VERTEX
8
C-ROAD-ALIGNMENT
10
10464.8184
20
9456.8495
30
0.0
0
VERTEX
8
C-ROAD-ALIGNMENT
10
10480.4879
20
9449.6428
30
0.0
0
VERTEX
8
C-ROAD-ALIGNMENT
10
10495.8478
20
9441.7977
30
0.0
0
VERTEX
8
C-ROAD-ALIGNMENT
10
10510.8720
20
9433.3276
30
0.0
0
VERTEX
8
C-ROAD-ALIGNMENT
10
10525.5352
20
9424.2467
30
0.0
0
VERTEX
8
C-ROAD-ALIGNMENT
10
10539.8129
20
9414.5717
30
0.0
0
VERTEX
8
C-ROAD-ALIGNMENT
10
10700.3939
20
9279.2435
30
0.0
0
SEQEND
0
TEXT
8
C-ROAD-TEXT
7
STANDARD
10
9844.0099
20
9474.8955
30
0.0
40
3.5
1
STA 0+00.00
50
0.0
0
TEXT
8
C-ROAD-TEXT
7
STANDARD
10
10023.8509
20
9482.4593
30
0.0
40
3.5
1
STA 1+80.00
50
0.0
0
TEXT
8
C-ROAD-TEXT
7
STANDARD
10
10281.8828
20
9493.3116
30
0.0
40
3.5
1
STA 4+38.26
50
0.0
0
TEXT
8
C-ROAD-TEXT
7
STANDARD
10
10541.8129
20
9416.5717
30
0.0
40
3.5
1
STA 7+14.24
50
0.0
0
TEXT
8
C-ROAD-TEXT
7
STANDARD
10
10702.3939
20
9281.2435
30
0.0
40
3.5
1
STA 9+24.24
50
0.0
0
POLYLINE
8
C-ROAD-ALIGNMENT
66
1
70
0
0
VERTEX
8
C-ROAD-ALIGNMENT
10
9865.0693
20
8225.7613
30
0.0
0
VERTEX
8
C-ROAD-ALIGNMENT
10
10045.0560
20
8227.9429
30
0.0
0
VERTEX
8
C-ROAD-ALIGNMENT
10
10489.6234
20
8233.3315
30
0.0
0
SEQEND
0
TEXT
8
C-ROAD-TEXT
7
STANDARD
10
9867.0693
20
8227.7613
30
0.0
40
3.5
1
STA 0+00.00
50
0.0
0
TEXT
8
C-ROAD-TEXT
7
STANDARD
10
10047.0560
20
8229.9429
30
0.0
40
3.5
1
STA 1+80.00
50
0.0
0
TEXT
8
C-ROAD-TEXT
7
STANDARD
10
10491.6234
20
8235.3315
30
0.0
40
3.5
1
STA 6+24.60
50
0.0
0
POLYLINE
8
C-ROAD-ALIGNMENT
66
1
70
0
0
VERTEX
8
C-ROAD-ALIGNMENT
10
9847.2377
20
9222.4579
30
0.0
0
VERTEX
8
C-ROAD-ALIGNMENT
10
10027.0787
20
9230.0216
30
0.0
0
VERTEX
8
C-ROAD-ALIGNMENT
10
10678.3200
20
9247.9100
30
0.0
0
SEQEND
0
TEXT
8
C-ROAD-TEXT
7
STANDARD
10
9849.2377
20
9224.4579
30
0.0
40
3.5
1
STA 0+00.00
50
0.0
0
TEXT
8
C-ROAD-TEXT
7
STANDARD
10
10029.0787
20
9232.0216
30
0.0
40
3.5
1
STA 1+80.00
50
0.0
0
TEXT
8
C-ROAD-TEXT
7
STANDARD
10
10680.3200
20
9249.9100
30
0.0
40
3.5
1
STA 8+31.49
50
0.0
0
POLYLINE
8
C-ROAD-ALIGNMENT
66
1
70
0
0
VERTEX
8
C-ROAD-ALIGNMENT
10
11452.2162
20
10061.0775
30
0.0
0
VERTEX
8
C-ROAD-ALIGNMENT
10
11463.1416
20
9801.3071
30
0.0
0
VERTEX
8
C-ROAD-ALIGNMENT
10
11457.6932
20
9930.8526
30
0.0
0
VERTEX
8
C-ROAD-ALIGNMENT
10
11514.8749
20
9455.1516
30
0.0
0
SEQEND
0
TEXT
8
C-ROAD-TEXT
7
STANDARD
10
11454.2162
20
10063.0775
30
0.0
40
3.5
1
STA 0+00.00
50
0.0
0
TEXT
8
C-ROAD-TEXT
7
STANDARD
10
11465.1416
20
9803.3071
30
0.0
40
3.5
1
STA 2+60.00
50
0.0
0
TEXT
8
C-ROAD-TEXT
7
STANDARD
10
11459.6932
20
9932.8526
30
0.0
40
3.5
1
STA 3+89.66
50
0.0
0
TEXT
8
C-ROAD-TEXT
7
STANDARD
10
11516.8749
20
9457.1516
30
0.0
40
3.5
1
STA 8+68.79
50
0.0
0
POLYLINE
8
C-ROAD-ALIGNMENT
66
1
70
0
0
VERTEX
8
C-ROAD-ALIGNMENT
10
10480.7779
20
8969.1325
30
0.0
0
VERTEX
8
C-ROAD-ALIGNMENT
10
10550.5029
20
9067.5884
30
0.0
0
VERTEX
8
C-ROAD-ALIGNMENT
10
10661.9134
20
9128.2088
30
0.0
0
VERTEX
8
C-ROAD-ALIGNMENT
10
10700.3939
20
9279.2435
30
0.0
0
SEQEND
0
TEXT
8
C-ROAD-TEXT
7
STANDARD
10
10482.7779
20
8971.1325
30
0.0
40
3.5
1
STA 0+00.00
50
0.0
0
TEXT
8
C-ROAD-TEXT
7
STANDARD
10
10552.5029
20
9069.5884
30
0.0
40
3.5
1
STA 1+20.64
50
0.0
0
TEXT
8
C-ROAD-TEXT
7
STANDARD
10
10663.9134
20
9130.2088
30
0.0
40
3.5
1
STA 2+47.48
50
0.0
0
TEXT
8
C-ROAD-TEXT
7
STANDARD
10
10702.3939
20
9281.2435
30
0.0
40
3.5
1
STA 4+03.34
50
0.0
0
POLYLINE
8
C-ROAD-CULDESAC
66
1
70
0
0
VERTEX
8
C-ROAD-CULDESAC
10
10563.9989
20
9034.7367
30
0.0
0
VERTEX
8
C-ROAD-CULDESAC
10
10563.1389
20
9033.4385
30
0.0
0
VERTEX
8
C-ROAD-CULDESAC
10
10562.3615
20
9032.0893
30
0.0
0
VERTEX
8
C-ROAD-CULDESAC
10
10561.6695
20
9030.6942
30
0.0
0
VERTEX
8
C-ROAD-CULDESAC
10
10561.0658
20
9029.2588
30
0.0
0
VERTEX
8
C-ROAD-CULDESAC
10
10560.5525
20
9027.7886
30
0.0
0
VERTEX
8
C-ROAD-CULDESAC
10
10560.1319
20
9026.2893
30
0.0
0
VERTEX
8
C-ROAD-CULDESAC
10
10559.8053
20
9024.7667
30
0.0
0
VERTEX
8
C-ROAD-CULDESAC
10
10559.5742
20
9023.2267
30
0.0
0
VERTEX
8
C-ROAD-CULDESAC
10
10559.4394
20
9021.6754
30
0.0
0
VERTEX
8
C-ROAD-CULDESAC
10
10559.4015
20
9020.1186
30
0.0
0
VERTEX
8
C-ROAD-CULDESAC
10
10559.4606
20
9018.5625
30
0.0
0
VERTEX
8
C-ROAD-CULDESAC
10
10559.6164
20
9017.0131
30
0.0
0
VERTEX
8
C-ROAD-CULDESAC
10
10560.0472
20
9010.5921
30
0.0
0
VERTEX
8
C-ROAD-CULDESAC
10
10559.6496
20
9004.1688
30
0.0
0
VERTEX
8
C-ROAD-CULDESAC
10
10558.4304
20
8997.8499
30
0.0
0
VERTEX
8
C-ROAD-CULDESAC
10
10556.4096
20
8991.7399
30
0.0
0
VERTEX
8
C-ROAD-CULDESAC
10
10553.6208
20
8985.9401
30
0.0
0
VERTEX
8
C-ROAD-CULDESAC
10
10550.1101
20
8980.5465
30
0.0
0
VERTEX
8
C-ROAD-CULDESAC
10
10545.9357
20
8975.6485
30
0.0
0
VERTEX
8
C-ROAD-CULDESAC
10
10541.1668
20
8971.3273
30
0.0
0
VERTEX
8
C-ROAD-CULDESAC
10
10535.8823
20
8967.6544
30
0.0
0
VERTEX
8
C-ROAD-CULDESAC
10
10530.1699
20
8964.6906
30
0.0
0
VERTEX
8
C-ROAD-CULDESAC
10
10524.1241
20
8962.4852
30
0.0
0
VERTEX
8
C-ROAD-CULDESAC
10
10517.8452
20
8961.0745
30
0.0
0
VERTEX
8
C-ROAD-CULDESAC
10
10511.4370
20
8960.4820
30
0.0
0
VERTEX
8
C-ROAD-CULDESAC
10
10505.0058
20
8960.7175
30
0.0
0
VERTEX
8
C-ROAD-CULDESAC
10
10498.6581
20
8961.7771
30
0.0
0
VERTEX
8
C-ROAD-CULDESAC
10
10492.4991
20
8963.6432
30
0.0
0
VERTEX
8
C-ROAD-CULDESAC
10
10486.6309
20
8966.2850
30
0.0
0
VERTEX
8
C-ROAD-CULDESAC
10
10481.1505
20
8969.6586
30
0.0
0
VERTEX
8
C-ROAD-CULDESAC
10
10476.1489
20
8973.7082
30
0.0
0
VERTEX
8
C-ROAD-CULDESAC
10
10471.7088
20
8978.3667
30
0.0
0
VERTEX
8
C-ROAD-CULDESAC
10
10467.9038
20
8983.5568
30
0.0
0
VERTEX
8
C-ROAD-CULDESAC
10
10464.7970
20
8989.1928
30
0.0
0
VERTEX
8
C-ROAD-CULDESAC
10
10462.4399
20
8995.1810
30
0.0
0
VERTEX
8
C-ROAD-CULDESAC
10
10460.8714
20
9001.4225
30
0.0
0
VERTEX
8
C-ROAD-CULDESAC
10
10460.1176
20
9007.8137
30
0.0
0
VERTEX
8
C-ROAD-CULDESAC
10
10460.1909
20
9014.2487
30
0.0
0
VERTEX
8
C-ROAD-CULDESAC
10
10461.0901
20
9020.6211
30
0.0
0
VERTEX
8
C-ROAD-CULDESAC
10
10462.8004
20
9026.8252
30
0.0
0
VERTEX
8
C-ROAD-CULDESAC
10
10465.2934
20
9032.7582
30
0.0
0
VERTEX
8
C-ROAD-CULDESAC
10
10468.5278
20
9038.3218
30
0.0
0
VERTEX
8
C-ROAD-CULDESAC
10
10472.4501
20
9043.4240
30
0.0
0
VERTEX
8
C-ROAD-CULDESAC
10
10476.9951
20
9047.9800
30
0.0
0
VERTEX
8
C-ROAD-CULDESAC
10
10482.0878
20
9051.9146
30
0.0
0
VERTEX
8
C-ROAD-CULDESAC
10
10487.6436
20
9055.1625
30
0.0
0
VERTEX
8
C-ROAD-CULDESAC
10
10493.5705
20
9057.6698
30
0.0
0
VERTEX
8
C-ROAD-CULDESAC
10
10499.7704
20
9059.3951
30
0.0
0
VERTEX
8
C-ROAD-CULDESAC
10
10501.2837
20
9059.7625
30
0.0
0
VERTEX
8
C-ROAD-CULDESAC
10
10502.7711
20
9060.2234
30
0.0
0
VERTEX
8
C-ROAD-CULDESAC
10
10504.2270
20
9060.7760
30
0.0
0
VERTEX
8
C-ROAD-CULDESAC
10
10505.6457
20
9061.4181
30
0.0
0
VERTEX
8
C-ROAD-CULDESAC
10
10507.0216
20
9062.1474
30
0.0
0
VERTEX
8
C-ROAD-CULDESAC
10
10508.3494
20
9062.9609
30
0.0
0
VERTEX
8
C-ROAD-CULDESAC
10
10509.6240
20
9063.8554
30
0.0
0
VERTEX
8
C-ROAD-CULDESAC
10
10510.8405
20
9064.8276
30
0.0
0
VERTEX
8
C-ROAD-CULDESAC
10
10511.9941
20
9065.8737
30
0.0
0
VERTEX
8
C-ROAD-CULDESAC
10
10513.0803
20
9066.9895
30
0.0
0
VERTEX
8
C-ROAD-CULDESAC
10
10514.0949
20
9068.1708
30
0.0
0
VERTEX
8
C-ROAD-CULDESAC
10
10515.0340
20
9069.4130
30
0.0
0
SEQEND
0
TEXT
8
C-ROAD-ASSUMP-TEXT
7
STANDARD
10
10510.0473
20
8952.4627
30
0.0
40
5.5
1
OPEN CUL-DE-SAC: Keel Drive (R=50.0', Fillet R=25.0')
50
0.0
72
1
11
10510.0473
21
8952.4627
31
0.0
73
2
0
POINT
8
C-ROAD-INTX
10
10000.0000
20
10000.0000
30
0.0
0
TEXT
8
C-ROAD-TEXT
7
STANDARD
10
10003.0000
20
10003.0000
30
0.0
40
3.5
1
Starfish Ave & Mangrove Ave
50
0.0
0
POINT
8
C-ROAD-TIE
10
9992.4362
20
10179.8410
30
0.0
0
TEXT
8
C-ROAD-TEXT
7
STANDARD
10
9995.4362
20
10182.8410
30
0.0
40
3.5
1
Mangrove Ave & Sec 32 North Line (Subdivision Limit)
50
0.0
0
POINT
8
C-ROAD-INTX
10
10010.9255
20
9740.2297
30
0.0
0
TEXT
8
C-ROAD-TEXT
7
STANDARD
10
10013.9255
20
9743.2297
30
0.0
40
3.5
1
Sail Ave & Mangrove Ave
50
0.0
0
POINT
8
C-ROAD-INTX
10
10021.8509
20
9480.4593
30
0.0
0
TEXT
8
C-ROAD-TEXT
7
STANDARD
10
10024.8509
20
9483.4593
30
0.0
40
3.5
1
South St & Mangrove Ave
50
0.0
0
POINT
8
C-ROAD-INTX
10
10023.1325
20
9449.9862
30
0.0
0
TEXT
8
C-ROAD-TEXT
7
STANDARD
10
10026.1325
20
9452.9862
30
0.0
40
3.5
1
Mangrove Ave Deflection Point (N-Leg to S-Leg)
50
0.0
0
POINT
8
C-ROAD-INTX
10
10027.0787
20
9230.0216
30
0.0
0
TEXT
8
C-ROAD-TEXT
7
STANDARD
10
10030.0787
20
9233.0216
30
0.0
40
3.5
1
Shellfish Dr & Mangrove Ave
50
0.0
0
POINT
8
C-ROAD-INTX
10
10045.0560
20
8227.9429
30
0.0
0
TEXT
8
C-ROAD-TEXT
7
STANDARD
10
10048.0560
20
8230.9429
30
0.0
40
3.5
1
Surfwood Ave & Mangrove Ave
50
0.0
0
POINT
8
C-ROAD-INTX
10
10047.7466
20
8077.9670
30
0.0
0
TEXT
8
C-ROAD-TEXT
7
STANDARD
10
10050.7466
20
8080.9670
30
0.0
40
3.5
1
Bayou Ave & Mangrove Ave
50
0.0
0
POINT
8
C-ROAD-TIE
10
10050.0784
20
7947.9879
30
0.0
0
TEXT
8
C-ROAD-TEXT
7
STANDARD
10
10053.0784
20
7950.9879
30
0.0
40
3.5
1
Mangrove Ave & Plat South Limit
50
0.0
0
POINT
8
C-ROAD-TIE
10
9865.0693
20
8225.7613
30
0.0
0
TEXT
8
C-ROAD-TEXT
7
STANDARD
10
9868.0693
20
8228.7613
30
0.0
40
3.5
1
Surfwood Ave & West Boundary (Course 2)
50
0.0
0
POINT
8
C-ROAD-TIE
10
10489.6234
20
8233.3315
30
0.0
0
TEXT
8
C-ROAD-TEXT
7
STANDARD
10
10492.6234
20
8236.3315
30
0.0
40
3.5
1
Surfwood Ave & Unit One Matchline
50
0.0
0
POINT
8
C-ROAD-TIE
10
10351.7243
20
8081.6515
30
0.0
0
TEXT
8
C-ROAD-TEXT
7
STANDARD
10
10354.7243
20
8084.6515
30
0.0
40
3.5
1
Bayou Ave & Unit One Matchline (Course 8)
50
0.0
0
POINT
8
C-ROAD-INTX
10
10250.0000
20
8350.0000
30
0.0
0
TEXT
8
C-ROAD-TEXT
7
STANDARD
10
10253.0000
20
8353.0000
30
0.0
40
3.5
1
San Salvadore Ave P.C. (Point of Curvature)
50
0.0
0
POINT
8
C-ROAD-INTX
10
10428.7384
20
8294.8801
30
0.0
0
TEXT
8
C-ROAD-TEXT
7
STANDARD
10
10431.7384
20
8297.8801
30
0.0
40
3.5
1
San Salvadore Ave P.T. (Point of Tangency)
50
0.0
0
POINT
8
C-ROAD-ASSUMP-INTX
10
10330.3257
20
8293.1146
30
0.0
0
TEXT
8
C-ROAD-TEXT
7
STANDARD
10
10333.3257
20
8296.1146
30
0.0
40
3.5
1
Assumed P.I. Tie (San Salvadore to Surfwood)
50
0.0
0
POINT
8
C-ROAD-TIE
10
10522.6758
20
8475.4907
30
0.0
0
TEXT
8
C-ROAD-TEXT
7
STANDARD
10
10525.6758
20
8478.4907
30
0.0
40
3.5
1
Cape Horn Ave & Unit One Matchline (P.R.M. Monument)
50
0.0
0
POINT
8
C-ROAD-TIE
10
9820.1590
20
9992.4362
30
0.0
0
TEXT
8
C-ROAD-TEXT
7
STANDARD
10
9823.1590
20
9995.4362
30
0.0
40
3.5
1
Starfish Ave & West Boundary (Course 1)
50
0.0
0
POINT
8
C-ROAD-INTX
10
11452.2162
20
10061.0775
30
0.0
0
TEXT
8
C-ROAD-TEXT
7
STANDARD
10
11455.2162
20
10064.0775
30
0.0
40
3.5
1
Starfish Ave & Beachwood Blvd
50
0.0
0
POINT
8
C-ROAD-TIE
10
9831.0844
20
9732.6659
30
0.0
0
TEXT
8
C-ROAD-TEXT
7
STANDARD
10
9834.0844
20
9735.6659
30
0.0
40
3.5
1
Sail Ave & West Boundary (Course 1)
50
0.0
0
POINT
8
C-ROAD-INTX
10
11463.1416
20
9801.3071
30
0.0
0
TEXT
8
C-ROAD-TEXT
7
STANDARD
10
11466.1416
20
9804.3071
30
0.0
40
3.5
1
Sail Ave & Beachwood Blvd
50
0.0
0
POINT
8
C-ROAD-TIE
10
9842.0099
20
9472.8955
30
0.0
0
TEXT
8
C-ROAD-TEXT
7
STANDARD
10
9845.0099
20
9475.8955
30
0.0
40
3.5
1
South St & West Boundary (Course 1)
50
0.0
0
POINT
8
C-ROAD-INTX
10
10279.8828
20
9491.3116
30
0.0
0
TEXT
8
C-ROAD-TEXT
7
STANDARD
10
10282.8828
20
9494.3116
30
0.0
40
3.5
1
South St & Marina Ave P.C.
50
0.0
0
POINT
8
C-ROAD-INTX
10
10539.8129
20
9414.5717
30
0.0
0
TEXT
8
C-ROAD-TEXT
7
STANDARD
10
10542.8129
20
9417.5717
30
0.0
40
3.5
1
Marina Ave P.T. (Point of Tangency)
50
0.0
0
POINT
8
C-ROAD-INTX
10
10700.3939
20
9279.2435
30
0.0
0
TEXT
8
C-ROAD-TEXT
7
STANDARD
10
10703.3939
20
9282.2435
30
0.0
40
3.5
1
Marina Ave & Keel Drive
50
0.0
0
POINT
8
C-ROAD-INTX
10
10480.7779
20
8969.1325
30
0.0
0
TEXT
8
C-ROAD-TEXT
7
STANDARD
10
10483.7779
20
8972.1325
30
0.0
40
3.5
1
Keel Drive Southwest Terminus
50
0.0
0
POINT
8
C-ROAD-INTX
10
10550.5029
20
9067.5884
30
0.0
0
TEXT
8
C-ROAD-TEXT
7
STANDARD
10
10553.5029
20
9070.5884
30
0.0
40
3.5
1
Keel Drive Curve P.C.
50
0.0
0
POINT
8
C-ROAD-INTX
10
10661.9134
20
9128.2088
30
0.0
0
TEXT
8
C-ROAD-TEXT
7
STANDARD
10
10664.9134
20
9131.2088
30
0.0
40
3.5
1
Keel Drive Curve P.T.
50
0.0
0
POINT
8
C-ROAD-ASSUMP-INTX
10
10510.0473
20
9010.4627
30
0.0
0
TEXT
8
C-ROAD-TEXT
7
STANDARD
10
10513.0473
20
9013.4627
30
0.0
40
3.5
1
Keel Drive Open-Ended Cul-de-Sac Terminus
50
0.0
0
POINT
8
C-ROAD-ASSUMP-INTX
10
11514.8749
20
9455.1516
30
0.0
0
TEXT
8
C-ROAD-TEXT
7
STANDARD
10
11517.8749
20
9458.1516
30
0.0
40
3.5
1
Assumed Beachwood Blvd & Sands Ave Intersection
50
0.0
0
POINT
8
C-ROAD-ASSUMP-INTX
10
11460.0000
20
9480.0000
30
0.0
0
TEXT
8
C-ROAD-TEXT
7
STANDARD
10
11463.0000
20
9483.0000
30
0.0
40
3.5
1
Assumed Sands Ave Curve P.C.
50
0.0
0
POINT
8
C-ROAD-TIE
10
9847.2377
20
9222.4579
30
0.0
0
TEXT
8
C-ROAD-TEXT
7
STANDARD
10
9850.2377
20
9225.4579
30
0.0
40
3.5
1
Shellfish Dr & West Boundary (Course 2)
50
0.0
0
POINT
8
C-ROAD-INTX
10
10678.3200
20
9247.9100
30
0.0
0
TEXT
8
C-ROAD-TEXT
7
STANDARD
10
10681.3200
20
9250.9100
30
0.0
40
3.5
1
Shellfish Dr & Keel Drive Intersection
50
0.0
0
POINT
8
C-ROAD-ASSUMP-INTX
10
11189.6664
20
9574.6989
30
0.0
0
TEXT
8
C-ROAD-TEXT
7
STANDARD
10
11192.6664
20
9577.6989
30
0.0
40
3.5
1
Assumed Sands Ave Curve P.T.
50
0.0
0
POINT
8
C-ROAD-INTX
10
10318.6554
20
8619.9749
30
0.0
0
TEXT
8
C-ROAD-TEXT
7
STANDARD
10
10321.6554
20
8622.9749
30
0.0
40
3.5
1
Cape Horn Ave Curve P.C.
50
0.0
0
POINT
8
C-ROAD-INTX
10
10515.0183
20
8565.0057
30
0.0
0
TEXT
8
C-ROAD-TEXT
7
STANDARD
10
10518.0183
20
8568.0057
30
0.0
40
3.5
1
Cape Horn Ave Curve P.T.
50
0.0
0
POINT
8
C-ROAD-ASSUMP-INTX
10
10422.9526
20
9497.3289
30
0.0
0
TEXT
8
C-ROAD-TEXT
7
STANDARD
10
10425.9526
20
9500.3289
30
0.0
40
3.5
1
Marina Avenue Projected P.I. (T=143.20')
50
0.0
0
POINT
8
C-ROAD-ASSUMP-INTX
10
10330.3257
20
8293.1146
30
0.0
0
TEXT
8
C-ROAD-TEXT
7
STANDARD
10
10333.3257
20
8296.1146
30
0.0
40
3.5
1
San Salvadore Projected P.I. (T=98.42')
50
0.0
0
POINT
8
C-ROAD-ASSUMP-INTX
10
11457.6932
20
9930.8526
30
0.0
0
TEXT
8
C-ROAD-TEXT
7
STANDARD
10
11460.6932
20
9933.8526
30
0.0
40
3.5
1
Beachwood Blvd Projected P.I. (T=130.34')
50
0.0
0
POINT
8
C-ROAD-ASSUMP-INTX
10
11309.3993
20
9473.6660
30
0.0
0
TEXT
8
C-ROAD-TEXT
7
STANDARD
10
11312.3993
20
9476.6660
30
0.0
40
3.5
1
Sands Avenue Projected P.I. (T=150.73')
50
0.0
0
POINT
8
C-ROAD-ASSUMP-INTX
10
10591.3311
20
9125.2402
30
0.0
0
TEXT
8
C-ROAD-TEXT
7
STANDARD
10
10594.3311
20
9128.2402
30
0.0
40
3.5
1
Keel Drive Projected P.I. (T=70.64')
50
0.0
0
POINT
8
C-ROAD-ASSUMP-INTX
10
10406.2247
20
8557.9596
30
0.0
0
TEXT
8
C-ROAD-TEXT
7
STANDARD
10
10409.2247
20
8560.9596
30
0.0
40
3.5
1
Cape Horn Projected P.I. (T=107.30')
50
0.0
0
POINT
8
CONTROL
10
10000.0000
20
10000.0000
30
0.0
0
TEXT
8
CONTROL
7
STANDARD
10
10000.0000
20
10012.0000
30
0.0
40
6.0
1
GROUND GPS TIE: Starfish & Mangrove (30.292130%%dN, -81.530280%%dW) [ZERO FUDGING]
50
0.0
72
1
11
10000.0000
21
10012.0000
31
0.0
73
2
0
TEXT
8
TITLEBLOCK
7
STANDARD
10
9750.0000
20
10180.0000
30
0.0
40
10.0
1
BEACHWOOD UNIT TWO -- ROAD CENTERLINE NETWORK & CLOSED BOUNDARY
50
0.0
0
TEXT
8
TITLEBLOCK
7
STANDARD
10
9750.0000
20
10168.0000
30
0.0
40
7.0
1
100-Agent Multiagent Consensus Cadastral Reconstruction | Scale 1" = 100'
50
0.0
0
TEXT
8
TITLEBLOCK
7
STANDARD
10
9750.0000
20
10158.0000
30
0.0
40
5.5
1
Plat Book 30, Pages 82 & 82A, Duval County, FL (Duval_Plat_Book_30_Page_82-2.pdf)
50
0.0
0
TEXT
8
TITLEBLOCK
7
STANDARD
10
9750.0000
20
10148.0000
30
0.0
40
5.0
1
RULE: Closed Outer Boundary + Parallel Centerline Offsets + Open-Ended Cul-de-Sac
50
0.0
0
ENDSEC
0
EOF
