0
SECTION
2
HEADER
0
ENDSEC
0
SECTION
2
TABLES
0
TABLE
2
LTYPE
70
2
0
LTYPE
2
CONTINUOUS
70
0
3
Solid
72
65
73
0
40
0.0
0
LTYPE
2
DASHED
70
0
3
Dashed
72
65
73
2
40
0.75
49
0.5
74
0
49
-0.25
74
0
0
ENDTAB
0
TABLE
2
LAYER
70
7
0
LAYER
2
0
70
0
62
7
6
CONTINUOUS
0
LAYER
2
BOUNDARY_AS_READ
70
0
62
7
6
CONTINUOUS
0
LAYER
2
HYP_A_SWAPPED
70
0
62
4
6
CONTINUOUS
0
LAYER
2
HYP_B_SWAP_PLUS_DIST
70
0
62
6
6
DASHED
0
LAYER
2
CLOSURE_GAP
70
0
62
1
6
DASHED
0
LAYER
2
TEXT-LABELS
70
0
62
7
6
CONTINUOUS
0
LAYER
2
TITLEBLOCK
70
0
62
2
6
CONTINUOUS
0
ENDTAB
0
ENDSEC
0
SECTION
2
ENTITIES
0
LINE
8
BOUNDARY_AS_READ
10
0.0000
20
0.0000
30
0.0
11
-1360.5419
21
-143.7990
31
0.0
0
TEXT
8
TEXT-LABELS
10
-680.2709
20
-71.8995
30
0.0
40
12
1
S83°58'00"W 1368.12'
50
0.0
0
LINE
8
BOUNDARY_AS_READ
10
-1360.5419
20
-143.7990
30
0.0
11
-1411.7135
21
-1465.8090
31
0.0
0
TEXT
8
TEXT-LABELS
10
-1386.1277
20
-804.8040
30
0.0
40
12
1
S02°13'00"W 1323.00'
50
0.0
0
LINE
8
BOUNDARY_AS_READ
10
-1411.7135
20
-1465.8090
30
0.0
11
-17.0542
21
-1419.1373
31
0.0
0
TEXT
8
TEXT-LABELS
10
-714.3839
20
-1442.4732
30
0.0
40
12
1
N88°05'00"E 1395.44'
50
0.0
0
LINE
8
BOUNDARY_AS_READ
10
-17.0542
20
-1419.1373
30
0.0
11
5.9830
21
-99.3383
31
0.0
0
TEXT
8
TEXT-LABELS
10
-5.5356
20
-759.2378
30
0.0
40
12
1
N01°00'00"E 1320.00'
50
0.0
0
LINE
8
CLOSURE_GAP
10
5.9830
20
-99.3383
30
0.0
11
0.0000
21
0.0000
31
0.0
0
TEXT
8
CLOSURE_GAP
10
5.9830
20
-99.3383
30
0.0
40
14
1
AS READ: misclose 99.52'
50
0.0
0
LINE
8
HYP_A_SWAPPED
10
0.0000
20
0.0000
30
0.0
11
-1367.3546
21
-45.7580
31
0.0
0
TEXT
8
TEXT-LABELS
10
-683.6773
20
-22.8790
30
0.0
40
12
1
S88°05'00"W 1368.12'
50
0.0
0
LINE
8
HYP_A_SWAPPED
10
-1367.3546
20
-45.7580
30
0.0
11
-1418.5262
21
-1367.7680
31
0.0
0
TEXT
8
TEXT-LABELS
10
-1392.9404
20
-706.7630
30
0.0
40
12
1
S02°13'00"W 1323.00'
50
0.0
0
LINE
8
HYP_A_SWAPPED
10
-1418.5262
20
-1367.7680
30
0.0
11
-30.8157
21
-1221.0975
31
0.0
0
TEXT
8
TEXT-LABELS
10
-724.6709
20
-1294.4327
30
0.0
40
12
1
N83°58'00"E 1395.44'
50
0.0
0
LINE
8
HYP_A_SWAPPED
10
-30.8157
20
-1221.0975
30
0.0
11
-7.7785
21
98.7015
31
0.0
0
TEXT
8
TEXT-LABELS
10
-19.2971
20
-561.1980
30
0.0
40
12
1
N01°00'00"E 1320.00'
50
0.0
0
LINE
8
CLOSURE_GAP
10
-7.7785
20
98.7015
30
0.0
11
0.0000
21
0.0000
31
0.0
0
TEXT
8
CLOSURE_GAP
10
-7.7785
20
98.7015
30
0.0
40
14
1
HYP A: bearings 1<->3 swapped: misclose 99.01'
50
0.0
0
LINE
8
HYP_B_SWAP_PLUS_DIST
10
0.0000
20
0.0000
30
0.0
11
-1367.3546
21
-45.7580
31
0.0
0
TEXT
8
TEXT-LABELS
10
-683.6773
20
-22.8790
30
0.0
40
12
1
S88°05'00"W 1368.12'
50
0.0
0
LINE
8
HYP_B_SWAP_PLUS_DIST
10
-1367.3546
20
-45.7580
30
0.0
11
-1422.3941
21
-1467.6932
31
0.0
0
TEXT
8
TEXT-LABELS
10
-1394.8743
20
-756.7256
30
0.0
40
12
1
S02°13'00"W 1423.00'
50
0.0
0
LINE
8
HYP_B_SWAP_PLUS_DIST
10
-1422.3941
20
-1467.6932
30
0.0
11
-34.6835
21
-1321.0226
31
0.0
0
TEXT
8
TEXT-LABELS
10
-728.5388
20
-1394.3579
30
0.0
40
12
1
N83°58'00"E 1395.44'
50
0.0
0
LINE
8
HYP_B_SWAP_PLUS_DIST
10
-34.6835
20
-1321.0226
30
0.0
11
-11.6463
21
-1.2237
31
0.0
0
TEXT
8
TEXT-LABELS
10
-23.1649
20
-661.1232
30
0.0
40
12
1
N01°00'00"E 1320.00'
50
0.0
0
LINE
8
CLOSURE_GAP
10
-11.6463
20
-1.2237
30
0.0
11
0.0000
21
0.0000
31
0.0
0
TEXT
8
CLOSURE_GAP
10
-11.6463
20
-1.2237
30
0.0
40
14
1
HYP B: A + course2 dist 1423: misclose 11.71'
50
0.0
0
TEXT
8
TITLEBLOCK
10
-1411.7135
20
150.0000
30
0.0
40
16
1
LINCOLN PLACE -- PLAT BOOK 11, PAGE 50, DUVAL COUNTY, FL (1926)
50
0.0
0
TEXT
8
TITLEBLOCK
10
-1411.7135
20
105.0000
30
0.0
40
12
1
NE 1/4 of NW 1/4, Section 10, Township 2 South, Range 26 East
50
0.0
0
TEXT
8
TITLEBLOCK
10
-1411.7135
20
60.0000
30
0.0
40
12
1
Lincoln Development Co.  |  B.G. Moore & Marcel Mazeau, Engineers
50
0.0
0
TEXT
8
TITLEBLOCK
10
-1411.7135
20
15.0000
30
0.0
40
12
1

50
0.0
0
TEXT
8
TITLEBLOCK
10
-1411.7135
20
-30.0000
30
0.0
40
12
1
SOURCE: 200 DPI scan, hand-lettered. Tesseract OCR parsed 0 bearings;
50
0.0
0
TEXT
8
TITLEBLOCK
10
-1411.7135
20
-75.0000
30
0.0
40
12
1
no preprocessing variant succeeded. Values transcribed by visual read
50
0.0
0
TEXT
8
TITLEBLOCK
10
-1411.7135
20
-120.0000
30
0.0
40
12
1
and MUST be verified against the original document.
50
0.0
0
TEXT
8
TITLEBLOCK
10
-1411.7135
20
-165.0000
30
0.0
40
12
1

50
0.0
0
TEXT
8
TITLEBLOCK
10
-1411.7135
20
-210.0000
30
0.0
40
12
1
CLOSURE ANALYSIS -- TWO CHECKS DISAGREE:
50
0.0
0
TEXT
8
TITLEBLOCK
10
-1411.7135
20
-255.0000
30
0.0
40
12
1
  AS READ: misclose 99.52 ft (1:54), area 43.39 ac
50
0.0
0
TEXT
8
TITLEBLOCK
10
-1411.7135
20
-300.0000
30
0.0
40
12
1
  HYP A: bearings 1<->3 swapped: misclose 99.01 ft (1:55), area 39.98 ac
50
0.0
0
TEXT
8
TITLEBLOCK
10
-1411.7135
20
-345.0000
30
0.0
40
12
1
  HYP B: A + course2 dist 1423: misclose 11.71 ft (1:470), area 43.10 ac
50
0.0
0
TEXT
8
TITLEBLOCK
10
-1411.7135
20
-390.0000
30
0.0
40
12
1

50
0.0
0
TEXT
8
TITLEBLOCK
10
-1411.7135
20
-435.0000
30
0.0
40
12
1
  Nominal quarter-quarter section area = 40.00 ac.
50
0.0
0
TEXT
8
TITLEBLOCK
10
-1411.7135
20
-480.0000
30
0.0
40
12
1
  HYP A matches AREA (39.98 ac) but not closure (99.0 ft).
50
0.0
0
TEXT
8
TITLEBLOCK
10
-1411.7135
20
-525.0000
30
0.0
40
12
1
  HYP B matches CLOSURE (11.7 ft) but not area (43.10 ac).
50
0.0
0
TEXT
8
TITLEBLOCK
10
-1411.7135
20
-570.0000
30
0.0
40
12
1
  -> UNRESOLVED. Do not treat either as authoritative.
50
0.0
0
TEXT
8
TITLEBLOCK
10
-1411.7135
20
-615.0000
30
0.0
40
12
1
  -> 1926 plats frequently do not close; a misclose is NOT by itself
50
0.0
0
TEXT
8
TITLEBLOCK
10
-1411.7135
20
-660.0000
30
0.0
40
12
1
     proof of a transcription error.
50
0.0
0
ENDSEC
0
EOF
