0
SECTION
2
HEADER
9
$ACADVER
1
AC1009
9
$DWGCODEPAGE
3
ANSI_1252
0
ENDSEC
0
SECTION
2
TABLES
0
TABLE
2
LTYPE
70
8
0
LTYPE
2
CONTINUOUS
70
0
3
Solid
72
65
73
0
40
0.0
0
LTYPE
2
DASHED
70
0
3
Dashed
72
65
73
2
40
0.75
49
0.5
74
0
49
-0.25
74
0
0
LTYPE
2
DASHED2
70
0
3
Dashed (.5x)
72
65
73
2
40
0.375
49
0.25
74
0
49
-0.125
74
0
0
LTYPE
2
HIDDEN
70
0
3
Hidden
72
65
73
2
40
0.375
49
0.25
74
0
49
-0.125
74
0
0
LTYPE
2
CENTER
70
0
3
Center
72
65
73
4
40
2.0
49
1.25
74
0
49
-0.25
74
0
49
0.25
74
0
49
-0.25
74
0
0
LTYPE
2
PHANTOM
70
0
3
Phantom
72
65
73
6
40
2.5
49
1.25
74
0
49
-0.25
74
0
49
0.25
74
0
49
-0.25
74
0
49
0.25
74
0
49
-0.25
74
0
0
LTYPE
2
ROT_308.38
70
0
3
Solid
72
65
73
0
40
0.0
0
LTYPE
2
ROT_38.38
70
0
3
Solid
72
65
73
0
40
0.0
0
ENDTAB
0
TABLE
2
LAYER
70
6
0
LAYER
2
0
70
0
62
7
6
CONTINUOUS
0
LAYER
2
LOT_POLYLINE
70
0
62
4
6
CONTINUOUS
0
LAYER
2
ERROR
70
0
62
1
6
CONTINUOUS
0
LAYER
2
SHEET_LABELS
70
0
62
7
6
CONTINUOUS
0
LAYER
2
SHEET_FRAME
70
0
62
8
6
CONTINUOUS
0
LAYER
2
TITLEBLOCK
70
0
62
2
6
CONTINUOUS
0
ENDTAB
0
TABLE
2
STYLE
70
4
0
STYLE
2
STANDARD
70
0
40
0.0
41
1.0
50
0.0
71
0
42
0.2
3
Arial
4

0
STYLE
2
ARIAL
70
0
40
0.0
41
1.0
50
0.0
71
0
42
0.2
3
Arial
4

0
STYLE
2
ARIAL_TTF
70
0
40
0.0
41
1.0
50
0.0
71
0
42
0.2
3
arial.ttf
4

0
STYLE
2
SIMPLEX
70
0
40
0.0
41
1.0
50
0.0
71
0
42
0.2
3
simplex.shx
4

0
ENDTAB
0
ENDSEC
0
SECTION
2
ENTITIES
0
LINE
8
SHEET_FRAME
10
0.0000
20
0.0000
30
0.0
11
300.0000
21
0.0000
31
0.0
0
LINE
8
SHEET_FRAME
10
300.0000
20
0.0000
30
0.0
11
300.0000
21
260.0000
31
0.0
0
LINE
8
SHEET_FRAME
10
300.0000
20
260.0000
30
0.0
11
0.0000
21
260.0000
31
0.0
0
LINE
8
SHEET_FRAME
10
0.0000
20
260.0000
30
0.0
11
0.0000
21
0.0000
31
0.0
0
POLYLINE
8
LOT_POLYLINE
66
1
70
1
0
VERTEX
8
LOT_POLYLINE
10
205.8630
20
115.3778
30
0.0
0
VERTEX
8
LOT_POLYLINE
10
138.8296
20
200.0000
30
0.0
0
VERTEX
8
LOT_POLYLINE
10
26.0000
20
110.6222
30
0.0
0
VERTEX
8
LOT_POLYLINE
10
93.0333
20
26.0000
30
0.0
0
SEQEND
0
TEXT
8
SHEET_LABELS
6
ROT_308.38
7
STANDARD
10
174.6979
20
159.5517
30
0.0
40
3.4
1
N38%%d23'04.00"W
50
308.38
0
TEXT
8
SHEET_LABELS
6
ROT_308.38
7
STANDARD
10
169.9947
20
155.8261
30
0.0
40
3.2
1
90.00'
50
308.38
0
POINT
8
SHEET_LABELS
10
205.8630
20
115.3778
30
0.0
0
TEXT
8
SHEET_LABELS
6
ROT_38.38
7
STANDARD
10
84.2776
20
152.9595
30
0.0
40
3.4
1
S51%%d36'56.00"W
50
38.38
0
TEXT
8
SHEET_LABELS
6
ROT_38.38
7
STANDARD
10
80.5520
20
157.6627
30
0.0
40
3.2
1
120.00'
50
38.38
0
POINT
8
SHEET_LABELS
10
138.8296
20
200.0000
30
0.0
0
TEXT
8
SHEET_LABELS
6
ROT_308.38
7
STANDARD
10
61.8683
20
70.1739
30
0.0
40
3.4
1
S38%%d23'04.00"E
50
308.38
0
TEXT
8
SHEET_LABELS
6
ROT_308.38
7
STANDARD
10
57.1651
20
66.4483
30
0.0
40
3.2
1
90.00'
50
308.38
0
POINT
8
SHEET_LABELS
10
26.0000
20
110.6222
30
0.0
0
TEXT
8
SHEET_LABELS
6
ROT_38.38
7
STANDARD
10
151.3110
20
68.3373
30
0.0
40
3.4
1
N51%%d36'56.00"E
50
38.38
0
TEXT
8
SHEET_LABELS
6
ROT_38.38
7
STANDARD
10
147.5853
20
73.0405
30
0.0
40
3.2
1
120.00'
50
38.38
0
POINT
8
SHEET_LABELS
10
93.0333
20
26.0000
30
0.0
0
TEXT
8
SHEET_LABELS
7
STANDARD
10
8.0000
20
250.0000
30
0.0
40
8.0
1
LOT 114   PASS
50
0.0
0
TEXT
8
SHEET_LABELS
7
STANDARD
10
8.0000
20
239.0000
30
0.0
40
4.6
1
AREA 10,800 SF (0.248 ac)
50
0.0
0
TEXT
8
SHEET_LABELS
7
STANDARD
10
8.0000
20
232.0000
30
0.0
40
4.0
1
PERIMETER 420.00'   VERTICES 4   CLOSING SIDE 120.00'
50
0.0
0
TEXT
8
SHEET_LABELS
7
STANDARD
10
8.0000
20
225.0000
30
0.0
40
3.4
1
all geometric checks passed: closed single polyline, no self-intersection, no overlap, no spikes
50
0.0
0
LINE
8
SHEET_FRAME
10
320.0000
20
0.0000
30
0.0
11
620.0000
21
0.0000
31
0.0
0
LINE
8
SHEET_FRAME
10
620.0000
20
0.0000
30
0.0
11
620.0000
21
260.0000
31
0.0
0
LINE
8
SHEET_FRAME
10
620.0000
20
260.0000
30
0.0
11
320.0000
21
260.0000
31
0.0
0
LINE
8
SHEET_FRAME
10
320.0000
20
260.0000
30
0.0
11
320.0000
21
0.0000
31
0.0
0
POLYLINE
8
LOT_POLYLINE
66
1
70
1
0
VERTEX
8
LOT_POLYLINE
10
525.8630
20
115.3778
30
0.0
0
VERTEX
8
LOT_POLYLINE
10
458.8296
20
200.0000
30
0.0
0
VERTEX
8
LOT_POLYLINE
10
346.0000
20
110.6222
30
0.0
0
VERTEX
8
LOT_POLYLINE
10
413.0333
20
26.0000
30
0.0
0
SEQEND
0
TEXT
8
SHEET_LABELS
6
ROT_308.38
7
STANDARD
10
494.6979
20
159.5517
30
0.0
40
3.4
1
N38%%d23'04.00"W
50
308.38
0
TEXT
8
SHEET_LABELS
6
ROT_308.38
7
STANDARD
10
489.9947
20
155.8261
30
0.0
40
3.2
1
90.00'
50
308.38
0
POINT
8
SHEET_LABELS
10
525.8630
20
115.3778
30
0.0
0
TEXT
8
SHEET_LABELS
6
ROT_38.38
7
STANDARD
10
404.2776
20
152.9595
30
0.0
40
3.4
1
S51%%d36'56.00"W
50
38.38
0
TEXT
8
SHEET_LABELS
6
ROT_38.38
7
STANDARD
10
400.5520
20
157.6627
30
0.0
40
3.2
1
120.00'
50
38.38
0
POINT
8
SHEET_LABELS
10
458.8296
20
200.0000
30
0.0
0
TEXT
8
SHEET_LABELS
6
ROT_308.38
7
STANDARD
10
381.8683
20
70.1739
30
0.0
40
3.4
1
S38%%d23'04.00"E
50
308.38
0
TEXT
8
SHEET_LABELS
6
ROT_308.38
7
STANDARD
10
377.1651
20
66.4483
30
0.0
40
3.2
1
90.00'
50
308.38
0
POINT
8
SHEET_LABELS
10
346.0000
20
110.6222
30
0.0
0
TEXT
8
SHEET_LABELS
6
ROT_38.38
7
STANDARD
10
471.3110
20
68.3373
30
0.0
40
3.4
1
N51%%d36'56.00"E
50
38.38
0
TEXT
8
SHEET_LABELS
6
ROT_38.38
7
STANDARD
10
467.5853
20
73.0405
30
0.0
40
3.2
1
120.00'
50
38.38
0
POINT
8
SHEET_LABELS
10
413.0333
20
26.0000
30
0.0
0
TEXT
8
SHEET_LABELS
7
STANDARD
10
328.0000
20
250.0000
30
0.0
40
8.0
1
LOT 113   PASS
50
0.0
0
TEXT
8
SHEET_LABELS
7
STANDARD
10
328.0000
20
239.0000
30
0.0
40
4.6
1
AREA 10,800 SF (0.248 ac)
50
0.0
0
TEXT
8
SHEET_LABELS
7
STANDARD
10
328.0000
20
232.0000
30
0.0
40
4.0
1
PERIMETER 420.00'   VERTICES 4   CLOSING SIDE 120.00'
50
0.0
0
TEXT
8
SHEET_LABELS
7
STANDARD
10
328.0000
20
225.0000
30
0.0
40
3.4
1
all geometric checks passed: closed single polyline, no self-intersection, no overlap, no spikes
50
0.0
0
LINE
8
SHEET_FRAME
10
640.0000
20
0.0000
30
0.0
11
940.0000
21
0.0000
31
0.0
0
LINE
8
SHEET_FRAME
10
940.0000
20
0.0000
30
0.0
11
940.0000
21
260.0000
31
0.0
0
LINE
8
SHEET_FRAME
10
940.0000
20
260.0000
30
0.0
11
640.0000
21
260.0000
31
0.0
0
LINE
8
SHEET_FRAME
10
640.0000
20
260.0000
30
0.0
11
640.0000
21
0.0000
31
0.0
0
POLYLINE
8
LOT_POLYLINE
66
1
70
1
0
VERTEX
8
LOT_POLYLINE
10
845.8630
20
115.3778
30
0.0
0
VERTEX
8
LOT_POLYLINE
10
778.8296
20
200.0000
30
0.0
0
VERTEX
8
LOT_POLYLINE
10
666.0000
20
110.6222
30
0.0
0
VERTEX
8
LOT_POLYLINE
10
733.0333
20
26.0000
30
0.0
0
SEQEND
0
TEXT
8
SHEET_LABELS
6
ROT_308.38
7
STANDARD
10
814.6979
20
159.5517
30
0.0
40
3.4
1
N38%%d23'04.00"W
50
308.38
0
TEXT
8
SHEET_LABELS
6
ROT_308.38
7
STANDARD
10
809.9947
20
155.8261
30
0.0
40
3.2
1
90.00'
50
308.38
0
POINT
8
SHEET_LABELS
10
845.8630
20
115.3778
30
0.0
0
TEXT
8
SHEET_LABELS
6
ROT_38.38
7
STANDARD
10
724.2776
20
152.9595
30
0.0
40
3.4
1
S51%%d36'56.00"W
50
38.38
0
TEXT
8
SHEET_LABELS
6
ROT_38.38
7
STANDARD
10
720.5520
20
157.6627
30
0.0
40
3.2
1
120.00'
50
38.38
0
POINT
8
SHEET_LABELS
10
778.8296
20
200.0000
30
0.0
0
TEXT
8
SHEET_LABELS
6
ROT_308.38
7
STANDARD
10
701.8683
20
70.1739
30
0.0
40
3.4
1
S38%%d23'04.00"E
50
308.38
0
TEXT
8
SHEET_LABELS
6
ROT_308.38
7
STANDARD
10
697.1651
20
66.4483
30
0.0
40
3.2
1
90.00'
50
308.38
0
POINT
8
SHEET_LABELS
10
666.0000
20
110.6222
30
0.0
0
TEXT
8
SHEET_LABELS
6
ROT_38.38
7
STANDARD
10
791.3110
20
68.3373
30
0.0
40
3.4
1
N51%%d36'56.00"E
50
38.38
0
TEXT
8
SHEET_LABELS
6
ROT_38.38
7
STANDARD
10
787.5853
20
73.0405
30
0.0
40
3.2
1
120.00'
50
38.38
0
POINT
8
SHEET_LABELS
10
733.0333
20
26.0000
30
0.0
0
TEXT
8
SHEET_LABELS
7
STANDARD
10
648.0000
20
250.0000
30
0.0
40
8.0
1
LOT 112   PASS
50
0.0
0
TEXT
8
SHEET_LABELS
7
STANDARD
10
648.0000
20
239.0000
30
0.0
40
4.6
1
AREA 10,800 SF (0.248 ac)
50
0.0
0
TEXT
8
SHEET_LABELS
7
STANDARD
10
648.0000
20
232.0000
30
0.0
40
4.0
1
PERIMETER 420.00'   VERTICES 4   CLOSING SIDE 120.00'
50
0.0
0
TEXT
8
SHEET_LABELS
7
STANDARD
10
648.0000
20
225.0000
30
0.0
40
3.4
1
all geometric checks passed: closed single polyline, no self-intersection, no overlap, no spikes
50
0.0
0
LINE
8
SHEET_FRAME
10
0.0000
20
-280.0000
30
0.0
11
300.0000
21
-280.0000
31
0.0
0
LINE
8
SHEET_FRAME
10
300.0000
20
-280.0000
30
0.0
11
300.0000
21
-20.0000
31
0.0
0
LINE
8
SHEET_FRAME
10
300.0000
20
-20.0000
30
0.0
11
0.0000
21
-20.0000
31
0.0
0
LINE
8
SHEET_FRAME
10
0.0000
20
-20.0000
30
0.0
11
0.0000
21
-280.0000
31
0.0
0
POLYLINE
8
LOT_POLYLINE
66
1
70
1
0
VERTEX
8
LOT_POLYLINE
10
205.8630
20
-164.6222
30
0.0
0
VERTEX
8
LOT_POLYLINE
10
138.8296
20
-80.0000
30
0.0
0
VERTEX
8
LOT_POLYLINE
10
26.0000
20
-169.3778
30
0.0
0
VERTEX
8
LOT_POLYLINE
10
93.0333
20
-254.0000
30
0.0
0
SEQEND
0
TEXT
8
SHEET_LABELS
6
ROT_308.38
7
STANDARD
10
174.6979
20
-120.4483
30
0.0
40
3.4
1
N38%%d23'04.00"W
50
308.38
0
TEXT
8
SHEET_LABELS
6
ROT_308.38
7
STANDARD
10
169.9947
20
-124.1739
30
0.0
40
3.2
1
90.00'
50
308.38
0
POINT
8
SHEET_LABELS
10
205.8630
20
-164.6222
30
0.0
0
TEXT
8
SHEET_LABELS
6
ROT_38.38
7
STANDARD
10
84.2776
20
-127.0405
30
0.0
40
3.4
1
S51%%d36'56.00"W
50
38.38
0
TEXT
8
SHEET_LABELS
6
ROT_38.38
7
STANDARD
10
80.5520
20
-122.3373
30
0.0
40
3.2
1
120.00'
50
38.38
0
POINT
8
SHEET_LABELS
10
138.8296
20
-80.0000
30
0.0
0
TEXT
8
SHEET_LABELS
6
ROT_308.38
7
STANDARD
10
61.8683
20
-209.8261
30
0.0
40
3.4
1
S38%%d23'04.00"E
50
308.38
0
TEXT
8
SHEET_LABELS
6
ROT_308.38
7
STANDARD
10
57.1651
20
-213.5517
30
0.0
40
3.2
1
90.00'
50
308.38
0
POINT
8
SHEET_LABELS
10
26.0000
20
-169.3778
30
0.0
0
TEXT
8
SHEET_LABELS
6
ROT_38.38
7
STANDARD
10
151.3110
20
-211.6627
30
0.0
40
3.4
1
N51%%d36'56.00"E
50
38.38
0
TEXT
8
SHEET_LABELS
6
ROT_38.38
7
STANDARD
10
147.5853
20
-206.9595
30
0.0
40
3.2
1
120.00'
50
38.38
0
POINT
8
SHEET_LABELS
10
93.0333
20
-254.0000
30
0.0
0
TEXT
8
SHEET_LABELS
7
STANDARD
10
8.0000
20
-30.0000
30
0.0
40
8.0
1
LOT 111   PASS
50
0.0
0
TEXT
8
SHEET_LABELS
7
STANDARD
10
8.0000
20
-41.0000
30
0.0
40
4.6
1
AREA 10,800 SF (0.248 ac)
50
0.0
0
TEXT
8
SHEET_LABELS
7
STANDARD
10
8.0000
20
-48.0000
30
0.0
40
4.0
1
PERIMETER 420.00'   VERTICES 4   CLOSING SIDE 120.00'
50
0.0
0
TEXT
8
SHEET_LABELS
7
STANDARD
10
8.0000
20
-55.0000
30
0.0
40
3.4
1
all geometric checks passed: closed single polyline, no self-intersection, no overlap, no spikes
50
0.0
0
LINE
8
SHEET_FRAME
10
320.0000
20
-280.0000
30
0.0
11
620.0000
21
-280.0000
31
0.0
0
LINE
8
SHEET_FRAME
10
620.0000
20
-280.0000
30
0.0
11
620.0000
21
-20.0000
31
0.0
0
LINE
8
SHEET_FRAME
10
620.0000
20
-20.0000
30
0.0
11
320.0000
21
-20.0000
31
0.0
0
LINE
8
SHEET_FRAME
10
320.0000
20
-20.0000
30
0.0
11
320.0000
21
-280.0000
31
0.0
0
POLYLINE
8
LOT_POLYLINE
66
1
70
1
0
VERTEX
8
LOT_POLYLINE
10
399.3351
20
-254.0000
30
0.0
0
VERTEX
8
LOT_POLYLINE
10
346.0000
20
-186.6703
30
0.0
0
VERTEX
8
LOT_POLYLINE
10
480.6595
20
-80.0000
30
0.0
0
VERTEX
8
LOT_POLYLINE
10
533.9946
20
-147.3297
30
0.0
0
SEQEND
0
TEXT
8
SHEET_LABELS
6
ROT_308.38
7
STANDARD
10
375.0192
20
-218.4723
30
0.0
40
3.4
1
N38%%d23'04.00"W
50
308.38
0
TEXT
8
SHEET_LABELS
6
ROT_308.38
7
STANDARD
10
370.3160
20
-222.1979
30
0.0
40
3.2
1
60.00'
50
308.38
0
POINT
8
SHEET_LABELS
10
399.3351
20
-254.0000
30
0.0
0
TEXT
8
SHEET_LABELS
6
ROT_38.38
7
STANDARD
10
415.1925
20
-135.6867
30
0.0
40
3.4
1
N51%%d36'56.00"E
50
38.38
0
TEXT
8
SHEET_LABELS
6
ROT_38.38
7
STANDARD
10
411.4669
20
-130.9835
30
0.0
40
3.2
1
120.00'
50
38.38
0
POINT
8
SHEET_LABELS
10
346.0000
20
-186.6703
30
0.0
0
TEXT
8
SHEET_LABELS
6
ROT_308.38
7
STANDARD
10
509.6786
20
-111.8021
30
0.0
40
3.4
1
S38%%d23'04.00"E
50
308.38
0
TEXT
8
SHEET_LABELS
6
ROT_308.38
7
STANDARD
10
504.9754
20
-115.5277
30
0.0
40
3.2
1
60.00'
50
308.38
0
POINT
8
SHEET_LABELS
10
480.6595
20
-80.0000
30
0.0
0
TEXT
8
SHEET_LABELS
6
ROT_38.38
7
STANDARD
10
468.5277
20
-203.0165
30
0.0
40
3.4
1
S51%%d36'56.00"W
50
38.38
0
TEXT
8
SHEET_LABELS
6
ROT_38.38
7
STANDARD
10
464.8021
20
-198.3133
30
0.0
40
3.2
1
120.00'
50
38.38
0
POINT
8
SHEET_LABELS
10
533.9946
20
-147.3297
30
0.0
0
TEXT
8
SHEET_LABELS
7
STANDARD
10
328.0000
20
-30.0000
30
0.0
40
8.0
1
LOT 99   PASS
50
0.0
0
TEXT
8
SHEET_LABELS
7
STANDARD
10
328.0000
20
-41.0000
30
0.0
40
4.6
1
AREA 7,200 SF (0.165 ac)
50
0.0
0
TEXT
8
SHEET_LABELS
7
STANDARD
10
328.0000
20
-48.0000
30
0.0
40
4.0
1
PERIMETER 360.00'   VERTICES 4   CLOSING SIDE 120.00'
50
0.0
0
TEXT
8
SHEET_LABELS
7
STANDARD
10
328.0000
20
-55.0000
30
0.0
40
3.4
1
all geometric checks passed: closed single polyline, no self-intersection, no overlap, no spikes
50
0.0
0
LINE
8
SHEET_FRAME
10
640.0000
20
-280.0000
30
0.0
11
940.0000
21
-280.0000
31
0.0
0
LINE
8
SHEET_FRAME
10
940.0000
20
-280.0000
30
0.0
11
940.0000
21
-20.0000
31
0.0
0
LINE
8
SHEET_FRAME
10
940.0000
20
-20.0000
30
0.0
11
640.0000
21
-20.0000
31
0.0
0
LINE
8
SHEET_FRAME
10
640.0000
20
-20.0000
30
0.0
11
640.0000
21
-280.0000
31
0.0
0
POLYLINE
8
LOT_POLYLINE
66
1
70
1
0
VERTEX
8
LOT_POLYLINE
10
719.3351
20
-254.0000
30
0.0
0
VERTEX
8
LOT_POLYLINE
10
666.0000
20
-186.6703
30
0.0
0
VERTEX
8
LOT_POLYLINE
10
800.6595
20
-80.0000
30
0.0
0
VERTEX
8
LOT_POLYLINE
10
853.9946
20
-147.3297
30
0.0
0
SEQEND
0
TEXT
8
SHEET_LABELS
6
ROT_308.38
7
STANDARD
10
695.0192
20
-218.4723
30
0.0
40
3.4
1
N38%%d23'04.00"W
50
308.38
0
TEXT
8
SHEET_LABELS
6
ROT_308.38
7
STANDARD
10
690.3160
20
-222.1979
30
0.0
40
3.2
1
60.00'
50
308.38
0
POINT
8
SHEET_LABELS
10
719.3351
20
-254.0000
30
0.0
0
TEXT
8
SHEET_LABELS
6
ROT_38.38
7
STANDARD
10
735.1925
20
-135.6867
30
0.0
40
3.4
1
N51%%d36'56.00"E
50
38.38
0
TEXT
8
SHEET_LABELS
6
ROT_38.38
7
STANDARD
10
731.4669
20
-130.9835
30
0.0
40
3.2
1
120.00'
50
38.38
0
POINT
8
SHEET_LABELS
10
666.0000
20
-186.6703
30
0.0
0
TEXT
8
SHEET_LABELS
6
ROT_308.38
7
STANDARD
10
829.6786
20
-111.8021
30
0.0
40
3.4
1
S38%%d23'04.00"E
50
308.38
0
TEXT
8
SHEET_LABELS
6
ROT_308.38
7
STANDARD
10
824.9754
20
-115.5277
30
0.0
40
3.2
1
60.00'
50
308.38
0
POINT
8
SHEET_LABELS
10
800.6595
20
-80.0000
30
0.0
0
TEXT
8
SHEET_LABELS
6
ROT_38.38
7
STANDARD
10
788.5277
20
-203.0165
30
0.0
40
3.4
1
S51%%d36'56.00"W
50
38.38
0
TEXT
8
SHEET_LABELS
6
ROT_38.38
7
STANDARD
10
784.8021
20
-198.3133
30
0.0
40
3.2
1
120.00'
50
38.38
0
POINT
8
SHEET_LABELS
10
853.9946
20
-147.3297
30
0.0
0
TEXT
8
SHEET_LABELS
7
STANDARD
10
648.0000
20
-30.0000
30
0.0
40
8.0
1
LOT 100   PASS
50
0.0
0
TEXT
8
SHEET_LABELS
7
STANDARD
10
648.0000
20
-41.0000
30
0.0
40
4.6
1
AREA 7,200 SF (0.165 ac)
50
0.0
0
TEXT
8
SHEET_LABELS
7
STANDARD
10
648.0000
20
-48.0000
30
0.0
40
4.0
1
PERIMETER 360.00'   VERTICES 4   CLOSING SIDE 120.00'
50
0.0
0
TEXT
8
SHEET_LABELS
7
STANDARD
10
648.0000
20
-55.0000
30
0.0
40
3.4
1
all geometric checks passed: closed single polyline, no self-intersection, no overlap, no spikes
50
0.0
0
TEXT
8
TITLEBLOCK
7
STANDARD
10
0.0000
20
140.0000
30
0.0
40
7
1
ATLANTIC BEACH CC UNIT 2 -- SHEET 4 -- LOT CLOSURE CHECK SHEETS
50
0.0
0
TEXT
8
TITLEBLOCK
7
STANDARD
10
0.0000
20
129.0000
30
0.0
40
5
1
6 lots, one page each, each a SINGLE CLOSED POLYLINE.
50
0.0
0
TEXT
8
TITLEBLOCK
7
STANDARD
10
0.0000
20
118.0000
30
0.0
40
5
1
Drawn in SHEET 4's OWN LOCAL FRAME -- not joined to sheets 3/5/6.
50
0.0
0
TEXT
8
TITLEBLOCK
7
STANDARD
10
0.0000
20
107.0000
30
0.0
40
5
1
Joining is a separate registration step, deliberately deferred.
50
0.0
0
TEXT
8
TITLEBLOCK
7
STANDARD
10
0.0000
20
96.0000
30
0.0
40
5
1

50
0.0
0
TEXT
8
TITLEBLOCK
7
STANDARD
10
0.0000
20
85.0000
30
0.0
40
5
1
Bearings transcribed off the sheet; front and side bearings are
50
0.0
0
TEXT
8
TITLEBLOCK
7
STANDARD
10
0.0000
20
74.0000
30
0.0
40
5
1
EXACTLY complementary (90d00'00") on both blocks -- independent
50
0.0
0
TEXT
8
TITLEBLOCK
7
STANDARD
10
0.0000
20
63.0000
30
0.0
40
5
1
confirmation, since they are lettered in different places.
50
0.0
0
TEXT
8
TITLEBLOCK
7
STANDARD
10
0.0000
20
52.0000
30
0.0
40
5
1
RESULT: 6 of 6 lots pass all geometric checks.
50
0.0
0
TEXT
8
TITLEBLOCK
7
STANDARD
10
0.0000
20
41.0000
30
0.0
40
5
1
These areas are FINAL (not provisional): all four sides of every lot
50
0.0
0
TEXT
8
TITLEBLOCK
7
STANDARD
10
0.0000
20
30.0000
30
0.0
40
5
1
here are transcribed -- no assumed rear boundary was needed.
50
0.0
0
ENDSEC
0
EOF
