0
SECTION
2
HEADER
9
$ACADVER
1
AC1009
9
$DWGCODEPAGE
3
ANSI_1252
0
ENDSEC
0
SECTION
2
TABLES
0
TABLE
2
LTYPE
70
18
0
LTYPE
2
CONTINUOUS
70
0
3
Solid
72
65
73
0
40
0.0
0
LTYPE
2
DASHED
70
0
3
Dashed
72
65
73
2
40
0.75
49
0.5
74
0
49
-0.25
74
0
0
LTYPE
2
DASHED2
70
0
3
Dashed (.5x)
72
65
73
2
40
0.375
49
0.25
74
0
49
-0.125
74
0
0
LTYPE
2
HIDDEN
70
0
3
Hidden
72
65
73
2
40
0.375
49
0.25
74
0
49
-0.125
74
0
0
LTYPE
2
CENTER
70
0
3
Center
72
65
73
4
40
2.0
49
1.25
74
0
49
-0.25
74
0
49
0.25
74
0
49
-0.25
74
0
0
LTYPE
2
PHANTOM
70
0
3
Phantom
72
65
73
6
40
2.5
49
1.25
74
0
49
-0.25
74
0
49
0.25
74
0
49
-0.25
74
0
49
0.25
74
0
49
-0.25
74
0
0
LTYPE
2
ROT_0.54
70
0
3
Solid
72
65
73
0
40
0.0
0
LTYPE
2
ROT_271.80
70
0
3
Solid
72
65
73
0
40
0.0
0
LTYPE
2
ROT_271.94
70
0
3
Solid
72
65
73
0
40
0.0
0
LTYPE
2
ROT_276.47
70
0
3
Solid
72
65
73
0
40
0.0
0
LTYPE
2
ROT_279.85
70
0
3
Solid
72
65
73
0
40
0.0
0
LTYPE
2
ROT_85.37
70
0
3
Solid
72
65
73
0
40
0.0
0
LTYPE
2
ROT_85.70
70
0
3
Solid
72
65
73
0
40
0.0
0
LTYPE
2
ROT_85.71
70
0
3
Solid
72
65
73
0
40
0.0
0
LTYPE
2
ROT_86.02
70
0
3
Solid
72
65
73
0
40
0.0
0
LTYPE
2
ROT_87.31
70
0
3
Solid
72
65
73
0
40
0.0
0
LTYPE
2
ROT_89.34
70
0
3
Solid
72
65
73
0
40
0.0
0
LTYPE
2
ROT_89.46
70
0
3
Solid
72
65
73
0
40
0.0
0
ENDTAB
0
TABLE
2
LAYER
70
6
0
LAYER
2
0
70
0
62
7
6
CONTINUOUS
0
LAYER
2
LOT_POLYLINE
70
0
62
4
6
CONTINUOUS
0
LAYER
2
ERROR
70
0
62
1
6
CONTINUOUS
0
LAYER
2
SHEET_LABELS
70
0
62
7
6
CONTINUOUS
0
LAYER
2
SHEET_FRAME
70
0
62
8
6
CONTINUOUS
0
LAYER
2
TITLEBLOCK
70
0
62
2
6
CONTINUOUS
0
ENDTAB
0
TABLE
2
STYLE
70
4
0
STYLE
2
STANDARD
70
0
40
0.0
41
1.0
50
0.0
71
0
42
0.2
3
Arial
4

0
STYLE
2
ARIAL
70
0
40
0.0
41
1.0
50
0.0
71
0
42
0.2
3
Arial
4

0
STYLE
2
ARIAL_TTF
70
0
40
0.0
41
1.0
50
0.0
71
0
42
0.2
3
arial.ttf
4

0
STYLE
2
SIMPLEX
70
0
40
0.0
41
1.0
50
0.0
71
0
42
0.2
3
simplex.shx
4

0
ENDTAB
0
ENDSEC
0
SECTION
2
ENTITIES
0
LINE
8
SHEET_FRAME
10
0.0000
20
0.0000
30
0.0
11
300.0000
21
0.0000
31
0.0
0
LINE
8
SHEET_FRAME
10
300.0000
20
0.0000
30
0.0
11
300.0000
21
260.0000
31
0.0
0
LINE
8
SHEET_FRAME
10
300.0000
20
260.0000
30
0.0
11
0.0000
21
260.0000
31
0.0
0
LINE
8
SHEET_FRAME
10
0.0000
20
260.0000
30
0.0
11
0.0000
21
0.0000
31
0.0
0
POLYLINE
8
LOT_POLYLINE
66
1
70
1
0
VERTEX
8
LOT_POLYLINE
10
26.0000
20
26.0000
30
0.0
0
VERTEX
8
LOT_POLYLINE
10
27.6250
20
198.5855
30
0.0
0
VERTEX
8
LOT_POLYLINE
10
177.8626
20
200.0000
30
0.0
0
VERTEX
8
LOT_POLYLINE
10
175.8871
20
27.4112
30
0.0
0
SEQEND
0
TEXT
8
SHEET_LABELS
6
ROT_89.46
7
STANDARD
10
29.8123
20
112.2645
30
0.0
40
3.4
1
N00%%d32'22.00"E
50
89.46
0
TEXT
8
SHEET_LABELS
6
ROT_89.46
7
STANDARD
10
23.8126
20
112.3210
30
0.0
40
3.2
1
137.85'
50
89.46
0
POINT
8
SHEET_LABELS
10
26.0000
20
26.0000
30
0.0
0
TEXT
8
SHEET_LABELS
6
ROT_0.54
7
STANDARD
10
102.7720
20
196.2929
30
0.0
40
3.4
1
N89%%d27'38.00"E
50
0.54
0
TEXT
8
SHEET_LABELS
6
ROT_0.54
7
STANDARD
10
102.7155
20
202.2926
30
0.0
40
3.2
1
120.00'
50
0.54
0
POINT
8
SHEET_LABELS
10
27.6250
20
198.5855
30
0.0
0
TEXT
8
SHEET_LABELS
6
ROT_89.34
7
STANDARD
10
179.8746
20
113.6713
30
0.0
40
3.4
1
S00%%d39'20.87"W
50
89.34
0
TEXT
8
SHEET_LABELS
6
ROT_89.34
7
STANDARD
10
173.8750
20
113.7400
30
0.0
40
3.2
1
137.86'
50
89.34
0
POINT
8
SHEET_LABELS
10
177.8626
20
200.0000
30
0.0
0
TEXT
8
SHEET_LABELS
6
ROT_0.54
7
STANDARD
10
100.9718
20
23.7058
30
0.0
40
3.4
1
S89%%d27'38.00"W
50
0.54
0
TEXT
8
SHEET_LABELS
6
ROT_0.54
7
STANDARD
10
100.9153
20
29.7055
30
0.0
40
3.2
1
119.72'
50
0.54
0
POINT
8
SHEET_LABELS
10
175.8871
20
27.4112
30
0.0
0
TEXT
8
SHEET_LABELS
7
STANDARD
10
8.0000
20
250.0000
30
0.0
40
8.0
1
LOT 137   PASS
50
0.0
0
TEXT
8
SHEET_LABELS
7
STANDARD
10
8.0000
20
239.0000
30
0.0
40
4.6
1
AREA 16,520 SF (0.379 ac)
50
0.0
0
TEXT
8
SHEET_LABELS
7
STANDARD
10
8.0000
20
232.0000
30
0.0
40
4.0
1
PERIMETER 515.43'   VERTICES 4   CLOSING SIDE 119.72'
50
0.0
0
TEXT
8
SHEET_LABELS
7
STANDARD
10
8.0000
20
225.0000
30
0.0
40
3.4
1
all geometric checks passed: closed single polyline, no self-intersection, no overlap, no spikes
50
0.0
0
LINE
8
SHEET_FRAME
10
320.0000
20
0.0000
30
0.0
11
620.0000
21
0.0000
31
0.0
0
LINE
8
SHEET_FRAME
10
620.0000
20
0.0000
30
0.0
11
620.0000
21
260.0000
31
0.0
0
LINE
8
SHEET_FRAME
10
620.0000
20
260.0000
30
0.0
11
320.0000
21
260.0000
31
0.0
0
LINE
8
SHEET_FRAME
10
320.0000
20
260.0000
30
0.0
11
320.0000
21
0.0000
31
0.0
0
POLYLINE
8
LOT_POLYLINE
66
1
70
1
0
VERTEX
8
LOT_POLYLINE
10
346.0000
20
26.0000
30
0.0
0
VERTEX
8
LOT_POLYLINE
10
347.0702
20
139.6667
30
0.0
0
VERTEX
8
LOT_POLYLINE
10
590.4202
20
141.9579
30
0.0
0
VERTEX
8
LOT_POLYLINE
10
594.0000
20
28.3350
30
0.0
0
SEQEND
0
TEXT
8
SHEET_LABELS
6
ROT_89.46
7
STANDARD
10
349.5350
20
82.8051
30
0.0
40
3.4
1
N00%%d32'22.00"E
50
89.46
0
TEXT
8
SHEET_LABELS
6
ROT_89.46
7
STANDARD
10
343.5352
20
82.8616
30
0.0
40
3.2
1
55.00'
50
89.46
0
POINT
8
SHEET_LABELS
10
346.0000
20
26.0000
30
0.0
0
TEXT
8
SHEET_LABELS
6
ROT_0.54
7
STANDARD
10
468.7735
20
137.8124
30
0.0
40
3.4
1
N89%%d27'38.00"E
50
0.54
0
TEXT
8
SHEET_LABELS
6
ROT_0.54
7
STANDARD
10
468.7170
20
143.8121
30
0.0
40
3.2
1
117.75'
50
0.54
0
POINT
8
SHEET_LABELS
10
347.0702
20
139.6667
30
0.0
0
TEXT
8
SHEET_LABELS
6
ROT_271.80
7
STANDARD
10
595.2086
20
85.2409
30
0.0
40
3.4
1
S01%%d48'16.40"E
50
271.8
0
TEXT
8
SHEET_LABELS
6
ROT_271.80
7
STANDARD
10
589.2116
20
85.0520
30
0.0
40
3.2
1
55.00'
50
271.8
0
POINT
8
SHEET_LABELS
10
590.4202
20
141.9579
30
0.0
0
TEXT
8
SHEET_LABELS
6
ROT_0.54
7
STANDARD
10
470.0282
20
24.1676
30
0.0
40
3.4
1
S89%%d27'38.00"W
50
0.54
0
TEXT
8
SHEET_LABELS
6
ROT_0.54
7
STANDARD
10
469.9718
20
30.1674
30
0.0
40
3.2
1
120.00'
50
0.54
0
POINT
8
SHEET_LABELS
10
594.0000
20
28.3350
30
0.0
0
TEXT
8
SHEET_LABELS
7
STANDARD
10
328.0000
20
250.0000
30
0.0
40
8.0
1
LOT 136   PASS
50
0.0
0
TEXT
8
SHEET_LABELS
7
STANDARD
10
328.0000
20
239.0000
30
0.0
40
4.6
1
AREA 6,537 SF (0.150 ac)
50
0.0
0
TEXT
8
SHEET_LABELS
7
STANDARD
10
328.0000
20
232.0000
30
0.0
40
4.0
1
PERIMETER 347.75'   VERTICES 4   CLOSING SIDE 120.00'
50
0.0
0
TEXT
8
SHEET_LABELS
7
STANDARD
10
328.0000
20
225.0000
30
0.0
40
3.4
1
all geometric checks passed: closed single polyline, no self-intersection, no overlap, no spikes
50
0.0
0
LINE
8
SHEET_FRAME
10
640.0000
20
0.0000
30
0.0
11
940.0000
21
0.0000
31
0.0
0
LINE
8
SHEET_FRAME
10
940.0000
20
0.0000
30
0.0
11
940.0000
21
260.0000
31
0.0
0
LINE
8
SHEET_FRAME
10
940.0000
20
260.0000
30
0.0
11
640.0000
21
260.0000
31
0.0
0
LINE
8
SHEET_FRAME
10
640.0000
20
260.0000
30
0.0
11
640.0000
21
0.0000
31
0.0
0
POLYLINE
8
LOT_POLYLINE
66
1
70
1
0
VERTEX
8
LOT_POLYLINE
10
666.0000
20
26.0000
30
0.0
0
VERTEX
8
LOT_POLYLINE
10
667.1898
20
152.3694
30
0.0
0
VERTEX
8
LOT_POLYLINE
10
892.1063
20
154.4871
30
0.0
0
VERTEX
8
LOT_POLYLINE
10
914.0000
20
28.3350
30
0.0
0
SEQEND
0
TEXT
8
SHEET_LABELS
6
ROT_89.46
7
STANDARD
10
669.5948
20
89.1565
30
0.0
40
3.4
1
N00%%d32'22.00"E
50
89.46
0
TEXT
8
SHEET_LABELS
6
ROT_89.46
7
STANDARD
10
663.5950
20
89.2130
30
0.0
40
3.2
1
60.00'
50
89.46
0
POINT
8
SHEET_LABELS
10
666.0000
20
26.0000
30
0.0
0
TEXT
8
SHEET_LABELS
6
ROT_0.54
7
STANDARD
10
779.6763
20
150.4284
30
0.0
40
3.4
1
N89%%d27'38.00"E
50
0.54
0
TEXT
8
SHEET_LABELS
6
ROT_0.54
7
STANDARD
10
779.6198
20
156.4281
30
0.0
40
3.2
1
106.79'
50
0.54
0
POINT
8
SHEET_LABELS
10
667.1898
20
152.3694
30
0.0
0
TEXT
8
SHEET_LABELS
6
ROT_279.85
7
STANDARD
10
906.0090
20
91.9240
30
0.0
40
3.4
1
S09%%d50'44.17"E
50
279.85
0
TEXT
8
SHEET_LABELS
6
ROT_279.85
7
STANDARD
10
900.0973
20
90.8981
30
0.0
40
3.2
1
60.79'
50
279.85
0
POINT
8
SHEET_LABELS
10
892.1063
20
154.4871
30
0.0
0
TEXT
8
SHEET_LABELS
6
ROT_0.54
7
STANDARD
10
790.0282
20
24.1676
30
0.0
40
3.4
1
S89%%d27'38.00"W
50
0.54
0
TEXT
8
SHEET_LABELS
6
ROT_0.54
7
STANDARD
10
789.9718
20
30.1674
30
0.0
40
3.2
1
117.75'
50
0.54
0
POINT
8
SHEET_LABELS
10
914.0000
20
28.3350
30
0.0
0
TEXT
8
SHEET_LABELS
7
STANDARD
10
648.0000
20
250.0000
30
0.0
40
8.0
1
LOT 135   PASS
50
0.0
0
TEXT
8
SHEET_LABELS
7
STANDARD
10
648.0000
20
239.0000
30
0.0
40
4.6
1
AREA 6,735 SF (0.155 ac)
50
0.0
0
TEXT
8
SHEET_LABELS
7
STANDARD
10
648.0000
20
232.0000
30
0.0
40
4.0
1
PERIMETER 345.33'   VERTICES 4   CLOSING SIDE 117.75'
50
0.0
0
TEXT
8
SHEET_LABELS
7
STANDARD
10
648.0000
20
225.0000
30
0.0
40
3.4
1
all geometric checks passed: closed single polyline, no self-intersection, no overlap, no spikes
50
0.0
0
LINE
8
SHEET_FRAME
10
960.0000
20
0.0000
30
0.0
11
1260.0000
21
0.0000
31
0.0
0
LINE
8
SHEET_FRAME
10
1260.0000
20
0.0000
30
0.0
11
1260.0000
21
260.0000
31
0.0
0
LINE
8
SHEET_FRAME
10
1260.0000
20
260.0000
30
0.0
11
960.0000
21
260.0000
31
0.0
0
LINE
8
SHEET_FRAME
10
960.0000
20
260.0000
30
0.0
11
960.0000
21
0.0000
31
0.0
0
POLYLINE
8
LOT_POLYLINE
66
1
70
1
0
VERTEX
8
LOT_POLYLINE
10
986.0000
20
26.0000
30
0.0
0
VERTEX
8
LOT_POLYLINE
10
987.2026
20
153.7273
30
0.0
0
VERTEX
8
LOT_POLYLINE
10
1219.5270
20
155.9147
30
0.0
0
VERTEX
8
LOT_POLYLINE
10
1234.0000
20
28.3350
30
0.0
0
SEQEND
0
TEXT
8
SHEET_LABELS
6
ROT_89.46
7
STANDARD
10
989.6012
20
89.8354
30
0.0
40
3.4
1
N00%%d32'22.00"E
50
89.46
0
TEXT
8
SHEET_LABELS
6
ROT_89.46
7
STANDARD
10
983.6014
20
89.8919
30
0.0
40
3.2
1
55.00'
50
89.46
0
POINT
8
SHEET_LABELS
10
986.0000
20
26.0000
30
0.0
0
TEXT
8
SHEET_LABELS
6
ROT_0.54
7
STANDARD
10
1103.3930
20
151.8212
30
0.0
40
3.4
1
N89%%d27'38.00"E
50
0.54
0
TEXT
8
SHEET_LABELS
6
ROT_0.54
7
STANDARD
10
1103.3365
20
157.8209
30
0.0
40
3.2
1
100.04'
50
0.54
0
POINT
8
SHEET_LABELS
10
987.2026
20
153.7273
30
0.0
0
TEXT
8
SHEET_LABELS
6
ROT_276.47
7
STANDARD
10
1229.7444
20
92.4630
30
0.0
40
3.4
1
S06%%d28'19.69"E
50
276.47
0
TEXT
8
SHEET_LABELS
6
ROT_276.47
7
STANDARD
10
1223.7826
20
91.7867
30
0.0
40
3.2
1
55.29'
50
276.47
0
POINT
8
SHEET_LABELS
10
1219.5270
20
155.9147
30
0.0
0
TEXT
8
SHEET_LABELS
6
ROT_0.54
7
STANDARD
10
1110.0282
20
24.1676
30
0.0
40
3.4
1
S89%%d27'38.00"W
50
0.54
0
TEXT
8
SHEET_LABELS
6
ROT_0.54
7
STANDARD
10
1109.9718
20
30.1674
30
0.0
40
3.2
1
106.79'
50
0.54
0
POINT
8
SHEET_LABELS
10
1234.0000
20
28.3350
30
0.0
0
TEXT
8
SHEET_LABELS
7
STANDARD
10
968.0000
20
250.0000
30
0.0
40
8.0
1
LOT 134   PASS
50
0.0
0
TEXT
8
SHEET_LABELS
7
STANDARD
10
968.0000
20
239.0000
30
0.0
40
4.6
1
AREA 5,687 SF (0.131 ac)
50
0.0
0
TEXT
8
SHEET_LABELS
7
STANDARD
10
968.0000
20
232.0000
30
0.0
40
4.0
1
PERIMETER 317.12'   VERTICES 4   CLOSING SIDE 106.79'
50
0.0
0
TEXT
8
SHEET_LABELS
7
STANDARD
10
968.0000
20
225.0000
30
0.0
40
3.4
1
all geometric checks passed: closed single polyline, no self-intersection, no overlap, no spikes
50
0.0
0
LINE
8
SHEET_FRAME
10
0.0000
20
-280.0000
30
0.0
11
300.0000
21
-280.0000
31
0.0
0
LINE
8
SHEET_FRAME
10
300.0000
20
-280.0000
30
0.0
11
300.0000
21
-20.0000
31
0.0
0
LINE
8
SHEET_FRAME
10
300.0000
20
-20.0000
30
0.0
11
0.0000
21
-20.0000
31
0.0
0
LINE
8
SHEET_FRAME
10
0.0000
20
-20.0000
30
0.0
11
0.0000
21
-280.0000
31
0.0
0
POLYLINE
8
LOT_POLYLINE
66
1
70
1
0
VERTEX
8
LOT_POLYLINE
10
26.0000
20
-254.0000
30
0.0
0
VERTEX
8
LOT_POLYLINE
10
27.2837
20
-117.6545
30
0.0
0
VERTEX
8
LOT_POLYLINE
10
269.3837
20
-115.3751
30
0.0
0
VERTEX
8
LOT_POLYLINE
10
274.0000
20
-251.6650
30
0.0
0
SEQEND
0
TEXT
8
SHEET_LABELS
6
ROT_89.46
7
STANDARD
10
29.6417
20
-185.8555
30
0.0
40
3.4
1
N00%%d32'22.00"E
50
89.46
0
TEXT
8
SHEET_LABELS
6
ROT_89.46
7
STANDARD
10
23.6420
20
-185.7990
30
0.0
40
3.2
1
55.00'
50
89.46
0
POINT
8
SHEET_LABELS
10
26.0000
20
-254.0000
30
0.0
0
TEXT
8
SHEET_LABELS
6
ROT_0.54
7
STANDARD
10
148.3620
20
-119.5147
30
0.0
40
3.4
1
N89%%d27'38.00"E
50
0.54
0
TEXT
8
SHEET_LABELS
6
ROT_0.54
7
STANDARD
10
148.3055
20
-113.5149
30
0.0
40
3.2
1
97.66'
50
0.54
0
POINT
8
SHEET_LABELS
10
27.2837
20
-117.6545
30
0.0
0
TEXT
8
SHEET_LABELS
6
ROT_271.94
7
STANDARD
10
274.6901
20
-183.4185
30
0.0
40
3.4
1
S01%%d56'23.76"E
50
271.94
0
TEXT
8
SHEET_LABELS
6
ROT_271.94
7
STANDARD
10
268.6936
20
-183.6216
30
0.0
40
3.2
1
55.01'
50
271.94
0
POINT
8
SHEET_LABELS
10
269.3837
20
-115.3751
30
0.0
0
TEXT
8
SHEET_LABELS
6
ROT_0.54
7
STANDARD
10
150.0282
20
-255.8324
30
0.0
40
3.4
1
S89%%d27'38.00"W
50
0.54
0
TEXT
8
SHEET_LABELS
6
ROT_0.54
7
STANDARD
10
149.9718
20
-249.8326
30
0.0
40
3.2
1
100.04'
50
0.54
0
POINT
8
SHEET_LABELS
10
274.0000
20
-251.6650
30
0.0
0
TEXT
8
SHEET_LABELS
7
STANDARD
10
8.0000
20
-30.0000
30
0.0
40
8.0
1
LOT 133   PASS
50
0.0
0
TEXT
8
SHEET_LABELS
7
STANDARD
10
8.0000
20
-41.0000
30
0.0
40
4.6
1
AREA 5,436 SF (0.125 ac)
50
0.0
0
TEXT
8
SHEET_LABELS
7
STANDARD
10
8.0000
20
-48.0000
30
0.0
40
4.0
1
PERIMETER 307.71'   VERTICES 4   CLOSING SIDE 100.04'
50
0.0
0
TEXT
8
SHEET_LABELS
7
STANDARD
10
8.0000
20
-55.0000
30
0.0
40
3.4
1
all geometric checks passed: closed single polyline, no self-intersection, no overlap, no spikes
50
0.0
0
LINE
8
SHEET_FRAME
10
320.0000
20
-280.0000
30
0.0
11
620.0000
21
-280.0000
31
0.0
0
LINE
8
SHEET_FRAME
10
620.0000
20
-280.0000
30
0.0
11
620.0000
21
-20.0000
31
0.0
0
LINE
8
SHEET_FRAME
10
620.0000
20
-20.0000
30
0.0
11
320.0000
21
-20.0000
31
0.0
0
LINE
8
SHEET_FRAME
10
320.0000
20
-20.0000
30
0.0
11
320.0000
21
-280.0000
31
0.0
0
POLYLINE
8
LOT_POLYLINE
66
1
70
1
0
VERTEX
8
LOT_POLYLINE
10
346.0000
20
-254.0000
30
0.0
0
VERTEX
8
LOT_POLYLINE
10
347.3944
20
-105.9033
30
0.0
0
VERTEX
8
LOT_POLYLINE
10
594.0000
20
-103.5815
30
0.0
0
VERTEX
8
LOT_POLYLINE
10
587.0520
20
-251.7304
30
0.0
0
SEQEND
0
TEXT
8
SHEET_LABELS
6
ROT_89.46
7
STANDARD
10
349.6971
20
-179.9799
30
0.0
40
3.4
1
N00%%d32'22.00"E
50
89.46
0
TEXT
8
SHEET_LABELS
6
ROT_89.46
7
STANDARD
10
343.6973
20
-179.9234
30
0.0
40
3.2
1
60.00'
50
89.46
0
POINT
8
SHEET_LABELS
10
346.0000
20
-254.0000
30
0.0
0
TEXT
8
SHEET_LABELS
6
ROT_0.54
7
STANDARD
10
470.7254
20
-107.7423
30
0.0
40
3.4
1
N89%%d27'38.00"E
50
0.54
0
TEXT
8
SHEET_LABELS
6
ROT_0.54
7
STANDARD
10
470.6689
20
-101.7425
30
0.0
40
3.2
1
99.91'
50
0.54
0
POINT
8
SHEET_LABELS
10
347.3944
20
-105.9033
30
0.0
0
TEXT
8
SHEET_LABELS
6
ROT_87.31
7
STANDARD
10
593.5227
20
-177.7965
30
0.0
40
3.4
1
S02%%d41'06.49"W
50
87.31
0
TEXT
8
SHEET_LABELS
6
ROT_87.31
7
STANDARD
10
587.5293
20
-177.5154
30
0.0
40
3.2
1
60.08'
50
87.31
0
POINT
8
SHEET_LABELS
10
594.0000
20
-103.5815
30
0.0
0
TEXT
8
SHEET_LABELS
6
ROT_0.54
7
STANDARD
10
466.5542
20
-255.8651
30
0.0
40
3.4
1
S89%%d27'38.00"W
50
0.54
0
TEXT
8
SHEET_LABELS
6
ROT_0.54
7
STANDARD
10
466.4978
20
-249.8653
30
0.0
40
3.2
1
97.66'
50
0.54
0
POINT
8
SHEET_LABELS
10
587.0520
20
-251.7304
30
0.0
0
TEXT
8
SHEET_LABELS
7
STANDARD
10
328.0000
20
-30.0000
30
0.0
40
8.0
1
LOT 132   PASS
50
0.0
0
TEXT
8
SHEET_LABELS
7
STANDARD
10
328.0000
20
-41.0000
30
0.0
40
4.6
1
AREA 5,926 SF (0.136 ac)
50
0.0
0
TEXT
8
SHEET_LABELS
7
STANDARD
10
328.0000
20
-48.0000
30
0.0
40
4.0
1
PERIMETER 317.65'   VERTICES 4   CLOSING SIDE 97.66'
50
0.0
0
TEXT
8
SHEET_LABELS
7
STANDARD
10
328.0000
20
-55.0000
30
0.0
40
3.4
1
all geometric checks passed: closed single polyline, no self-intersection, no overlap, no spikes
50
0.0
0
LINE
8
SHEET_FRAME
10
640.0000
20
-280.0000
30
0.0
11
940.0000
21
-280.0000
31
0.0
0
LINE
8
SHEET_FRAME
10
940.0000
20
-280.0000
30
0.0
11
940.0000
21
-20.0000
31
0.0
0
LINE
8
SHEET_FRAME
10
940.0000
20
-20.0000
30
0.0
11
640.0000
21
-20.0000
31
0.0
0
LINE
8
SHEET_FRAME
10
640.0000
20
-20.0000
30
0.0
11
640.0000
21
-280.0000
31
0.0
0
POLYLINE
8
LOT_POLYLINE
66
1
70
1
0
VERTEX
8
LOT_POLYLINE
10
666.0000
20
-254.0000
30
0.0
0
VERTEX
8
LOT_POLYLINE
10
667.2343
20
-122.9065
30
0.0
0
VERTEX
8
LOT_POLYLINE
10
914.0000
20
-120.5831
30
0.0
0
VERTEX
8
LOT_POLYLINE
10
904.1374
20
-251.7579
30
0.0
0
SEQEND
0
TEXT
8
SHEET_LABELS
6
ROT_89.46
7
STANDARD
10
669.6170
20
-188.4815
30
0.0
40
3.4
1
N00%%d32'22.00"E
50
89.46
0
TEXT
8
SHEET_LABELS
6
ROT_89.46
7
STANDARD
10
663.6173
20
-188.4250
30
0.0
40
3.2
1
55.00'
50
89.46
0
POINT
8
SHEET_LABELS
10
666.0000
20
-254.0000
30
0.0
0
TEXT
8
SHEET_LABELS
6
ROT_0.54
7
STANDARD
10
790.6454
20
-124.7446
30
0.0
40
3.4
1
N89%%d27'38.00"E
50
0.54
0
TEXT
8
SHEET_LABELS
6
ROT_0.54
7
STANDARD
10
790.5889
20
-118.7449
30
0.0
40
3.2
1
103.53'
50
0.54
0
POINT
8
SHEET_LABELS
10
667.2343
20
-122.9065
30
0.0
0
TEXT
8
SHEET_LABELS
6
ROT_85.70
7
STANDARD
10
912.0602
20
-186.3954
30
0.0
40
3.4
1
S04%%d17'59.30"W
50
85.7
0
TEXT
8
SHEET_LABELS
6
ROT_85.70
7
STANDARD
10
906.0771
20
-185.9455
30
0.0
40
3.2
1
55.19'
50
85.7
0
POINT
8
SHEET_LABELS
10
914.0000
20
-120.5831
30
0.0
0
TEXT
8
SHEET_LABELS
6
ROT_0.54
7
STANDARD
10
785.0969
20
-255.8788
30
0.0
40
3.4
1
S89%%d27'38.00"W
50
0.54
0
TEXT
8
SHEET_LABELS
6
ROT_0.54
7
STANDARD
10
785.0404
20
-249.8791
30
0.0
40
3.2
1
99.91'
50
0.54
0
POINT
8
SHEET_LABELS
10
904.1374
20
-251.7579
30
0.0
0
TEXT
8
SHEET_LABELS
7
STANDARD
10
648.0000
20
-30.0000
30
0.0
40
8.0
1
LOT 131   PASS
50
0.0
0
TEXT
8
SHEET_LABELS
7
STANDARD
10
648.0000
20
-41.0000
30
0.0
40
4.6
1
AREA 5,594 SF (0.128 ac)
50
0.0
0
TEXT
8
SHEET_LABELS
7
STANDARD
10
648.0000
20
-48.0000
30
0.0
40
4.0
1
PERIMETER 313.63'   VERTICES 4   CLOSING SIDE 99.91'
50
0.0
0
TEXT
8
SHEET_LABELS
7
STANDARD
10
648.0000
20
-55.0000
30
0.0
40
3.4
1
all geometric checks passed: closed single polyline, no self-intersection, no overlap, no spikes
50
0.0
0
LINE
8
SHEET_FRAME
10
960.0000
20
-280.0000
30
0.0
11
1260.0000
21
-280.0000
31
0.0
0
LINE
8
SHEET_FRAME
10
1260.0000
20
-280.0000
30
0.0
11
1260.0000
21
-20.0000
31
0.0
0
LINE
8
SHEET_FRAME
10
1260.0000
20
-20.0000
30
0.0
11
960.0000
21
-20.0000
31
0.0
0
LINE
8
SHEET_FRAME
10
960.0000
20
-20.0000
30
0.0
11
960.0000
21
-280.0000
31
0.0
0
POLYLINE
8
LOT_POLYLINE
66
1
70
1
0
VERTEX
8
LOT_POLYLINE
10
986.0000
20
-254.0000
30
0.0
0
VERTEX
8
LOT_POLYLINE
10
987.1893
20
-127.6895
30
0.0
0
VERTEX
8
LOT_POLYLINE
10
1234.0000
20
-125.3657
30
0.0
0
VERTEX
8
LOT_POLYLINE
10
1223.7623
20
-251.7614
30
0.0
0
SEQEND
0
TEXT
8
SHEET_LABELS
6
ROT_89.46
7
STANDARD
10
989.5945
20
-190.8730
30
0.0
40
3.4
1
N00%%d32'22.00"E
50
89.46
0
TEXT
8
SHEET_LABELS
6
ROT_89.46
7
STANDARD
10
983.5948
20
-190.8165
30
0.0
40
3.2
1
55.00'
50
89.46
0
POINT
8
SHEET_LABELS
10
986.0000
20
-254.0000
30
0.0
0
TEXT
8
SHEET_LABELS
6
ROT_0.54
7
STANDARD
10
1110.6229
20
-129.5274
30
0.0
40
3.4
1
N89%%d27'38.00"E
50
0.54
0
TEXT
8
SHEET_LABELS
6
ROT_0.54
7
STANDARD
10
1110.5664
20
-123.5277
30
0.0
40
3.2
1
107.47'
50
0.54
0
POINT
8
SHEET_LABELS
10
987.1893
20
-127.6895
30
0.0
0
TEXT
8
SHEET_LABELS
6
ROT_85.37
7
STANDARD
10
1231.8714
20
-188.8057
30
0.0
40
3.4
1
S04%%d37'50.46"W
50
85.37
0
TEXT
8
SHEET_LABELS
6
ROT_85.37
7
STANDARD
10
1225.8910
20
-188.3213
30
0.0
40
3.2
1
55.21'
50
85.37
0
POINT
8
SHEET_LABELS
10
1234.0000
20
-125.3657
30
0.0
0
TEXT
8
SHEET_LABELS
6
ROT_0.54
7
STANDARD
10
1104.9094
20
-255.8806
30
0.0
40
3.4
1
S89%%d27'38.00"W
50
0.54
0
TEXT
8
SHEET_LABELS
6
ROT_0.54
7
STANDARD
10
1104.8529
20
-249.8808
30
0.0
40
3.2
1
103.53'
50
0.54
0
POINT
8
SHEET_LABELS
10
1223.7623
20
-251.7614
30
0.0
0
TEXT
8
SHEET_LABELS
7
STANDARD
10
968.0000
20
-30.0000
30
0.0
40
8.0
1
LOT 130   PASS
50
0.0
0
TEXT
8
SHEET_LABELS
7
STANDARD
10
968.0000
20
-41.0000
30
0.0
40
4.6
1
AREA 5,801 SF (0.133 ac)
50
0.0
0
TEXT
8
SHEET_LABELS
7
STANDARD
10
968.0000
20
-48.0000
30
0.0
40
4.0
1
PERIMETER 321.21'   VERTICES 4   CLOSING SIDE 103.53'
50
0.0
0
TEXT
8
SHEET_LABELS
7
STANDARD
10
968.0000
20
-55.0000
30
0.0
40
3.4
1
all geometric checks passed: closed single polyline, no self-intersection, no overlap, no spikes
50
0.0
0
LINE
8
SHEET_FRAME
10
0.0000
20
-560.0000
30
0.0
11
300.0000
21
-560.0000
31
0.0
0
LINE
8
SHEET_FRAME
10
300.0000
20
-560.0000
30
0.0
11
300.0000
21
-300.0000
31
0.0
0
LINE
8
SHEET_FRAME
10
300.0000
20
-300.0000
30
0.0
11
0.0000
21
-300.0000
31
0.0
0
LINE
8
SHEET_FRAME
10
0.0000
20
-300.0000
30
0.0
11
0.0000
21
-560.0000
31
0.0
0
POLYLINE
8
LOT_POLYLINE
66
1
70
1
0
VERTEX
8
LOT_POLYLINE
10
26.0000
20
-534.0000
30
0.0
0
VERTEX
8
LOT_POLYLINE
10
27.2549
20
-400.7203
30
0.0
0
VERTEX
8
LOT_POLYLINE
10
274.0000
20
-398.3971
30
0.0
0
VERTEX
8
LOT_POLYLINE
10
264.7261
20
-531.7523
30
0.0
0
SEQEND
0
TEXT
8
SHEET_LABELS
6
ROT_89.46
7
STANDARD
10
29.6273
20
-467.3884
30
0.0
40
3.4
1
N00%%d32'22.00"E
50
89.46
0
TEXT
8
SHEET_LABELS
6
ROT_89.46
7
STANDARD
10
23.6276
20
-467.3319
30
0.0
40
3.2
1
60.00'
50
89.46
0
POINT
8
SHEET_LABELS
10
26.0000
20
-534.0000
30
0.0
0
TEXT
8
SHEET_LABELS
6
ROT_0.54
7
STANDARD
10
150.6557
20
-402.5586
30
0.0
40
3.4
1
N89%%d27'38.00"E
50
0.54
0
TEXT
8
SHEET_LABELS
6
ROT_0.54
7
STANDARD
10
150.5992
20
-396.5589
30
0.0
40
3.2
1
111.08'
50
0.54
0
POINT
8
SHEET_LABELS
10
27.2549
20
-400.7203
30
0.0
0
TEXT
8
SHEET_LABELS
6
ROT_86.02
7
STANDARD
10
272.3558
20
-465.2828
30
0.0
40
3.4
1
S03%%d58'41.14"W
50
86.02
0
TEXT
8
SHEET_LABELS
6
ROT_86.02
7
STANDARD
10
266.3703
20
-464.8666
30
0.0
40
3.2
1
60.18'
50
86.02
0
POINT
8
SHEET_LABELS
10
274.0000
20
-398.3971
30
0.0
0
TEXT
8
SHEET_LABELS
6
ROT_0.54
7
STANDARD
10
145.3913
20
-535.8760
30
0.0
40
3.4
1
S89%%d27'38.00"W
50
0.54
0
TEXT
8
SHEET_LABELS
6
ROT_0.54
7
STANDARD
10
145.3348
20
-529.8763
30
0.0
40
3.2
1
107.47'
50
0.54
0
POINT
8
SHEET_LABELS
10
264.7261
20
-531.7523
30
0.0
0
TEXT
8
SHEET_LABELS
7
STANDARD
10
8.0000
20
-310.0000
30
0.0
40
8.0
1
LOT 129   PASS
50
0.0
0
TEXT
8
SHEET_LABELS
7
STANDARD
10
8.0000
20
-321.0000
30
0.0
40
4.6
1
AREA 6,555 SF (0.150 ac)
50
0.0
0
TEXT
8
SHEET_LABELS
7
STANDARD
10
8.0000
20
-328.0000
30
0.0
40
4.0
1
PERIMETER 338.73'   VERTICES 4   CLOSING SIDE 107.47'
50
0.0
0
TEXT
8
SHEET_LABELS
7
STANDARD
10
8.0000
20
-335.0000
30
0.0
40
3.4
1
all geometric checks passed: closed single polyline, no self-intersection, no overlap, no spikes
50
0.0
0
LINE
8
SHEET_FRAME
10
320.0000
20
-560.0000
30
0.0
11
620.0000
21
-560.0000
31
0.0
0
LINE
8
SHEET_FRAME
10
620.0000
20
-560.0000
30
0.0
11
620.0000
21
-300.0000
31
0.0
0
LINE
8
SHEET_FRAME
10
620.0000
20
-300.0000
30
0.0
11
320.0000
21
-300.0000
31
0.0
0
LINE
8
SHEET_FRAME
10
320.0000
20
-300.0000
30
0.0
11
320.0000
21
-560.0000
31
0.0
0
POLYLINE
8
LOT_POLYLINE
66
1
70
1
0
VERTEX
8
LOT_POLYLINE
10
346.0000
20
-534.0000
30
0.0
0
VERTEX
8
LOT_POLYLINE
10
347.1146
20
-415.6156
30
0.0
0
VERTEX
8
LOT_POLYLINE
10
594.0000
20
-413.2910
30
0.0
0
VERTEX
8
LOT_POLYLINE
10
585.0935
20
-531.7488
30
0.0
0
SEQEND
0
TEXT
8
SHEET_LABELS
6
ROT_89.46
7
STANDARD
10
349.5572
20
-474.8360
30
0.0
40
3.4
1
N00%%d32'22.00"E
50
89.46
0
TEXT
8
SHEET_LABELS
6
ROT_89.46
7
STANDARD
10
343.5574
20
-474.7795
30
0.0
40
3.2
1
55.00'
50
89.46
0
POINT
8
SHEET_LABELS
10
346.0000
20
-534.0000
30
0.0
0
TEXT
8
SHEET_LABELS
6
ROT_0.54
7
STANDARD
10
470.5856
20
-417.4532
30
0.0
40
3.4
1
N89%%d27'38.00"E
50
0.54
0
TEXT
8
SHEET_LABELS
6
ROT_0.54
7
STANDARD
10
470.5291
20
-411.4534
30
0.0
40
3.2
1
114.70'
50
0.54
0
POINT
8
SHEET_LABELS
10
347.1146
20
-415.6156
30
0.0
0
TEXT
8
SHEET_LABELS
6
ROT_85.70
7
STANDARD
10
592.5383
20
-472.7449
30
0.0
40
3.4
1
S04%%d17'59.30"W
50
85.7
0
TEXT
8
SHEET_LABELS
6
ROT_85.70
7
STANDARD
10
586.5552
20
-472.2950
30
0.0
40
3.2
1
55.19'
50
85.7
0
POINT
8
SHEET_LABELS
10
594.0000
20
-413.2910
30
0.0
0
TEXT
8
SHEET_LABELS
6
ROT_0.54
7
STANDARD
10
465.5750
20
-535.8743
30
0.0
40
3.4
1
S89%%d27'38.00"W
50
0.54
0
TEXT
8
SHEET_LABELS
6
ROT_0.54
7
STANDARD
10
465.5185
20
-529.8746
30
0.0
40
3.2
1
111.08'
50
0.54
0
POINT
8
SHEET_LABELS
10
585.0935
20
-531.7488
30
0.0
0
TEXT
8
SHEET_LABELS
7
STANDARD
10
328.0000
20
-310.0000
30
0.0
40
8.0
1
LOT 128   PASS
50
0.0
0
TEXT
8
SHEET_LABELS
7
STANDARD
10
328.0000
20
-321.0000
30
0.0
40
4.6
1
AREA 6,208 SF (0.143 ac)
50
0.0
0
TEXT
8
SHEET_LABELS
7
STANDARD
10
328.0000
20
-328.0000
30
0.0
40
4.0
1
PERIMETER 335.97'   VERTICES 4   CLOSING SIDE 111.08'
50
0.0
0
TEXT
8
SHEET_LABELS
7
STANDARD
10
328.0000
20
-335.0000
30
0.0
40
3.4
1
all geometric checks passed: closed single polyline, no self-intersection, no overlap, no spikes
50
0.0
0
LINE
8
SHEET_FRAME
10
640.0000
20
-560.0000
30
0.0
11
940.0000
21
-560.0000
31
0.0
0
LINE
8
SHEET_FRAME
10
940.0000
20
-560.0000
30
0.0
11
940.0000
21
-300.0000
31
0.0
0
LINE
8
SHEET_FRAME
10
940.0000
20
-300.0000
30
0.0
11
640.0000
21
-300.0000
31
0.0
0
LINE
8
SHEET_FRAME
10
640.0000
20
-300.0000
30
0.0
11
640.0000
21
-560.0000
31
0.0
0
POLYLINE
8
LOT_POLYLINE
66
1
70
1
0
VERTEX
8
LOT_POLYLINE
10
666.0000
20
-534.0000
30
0.0
0
VERTEX
8
LOT_POLYLINE
10
667.0778
20
-419.5300
30
0.0
0
VERTEX
8
LOT_POLYLINE
10
914.0000
20
-417.2051
30
0.0
0
VERTEX
8
LOT_POLYLINE
10
904.7220
20
-531.7523
30
0.0
0
SEQEND
0
TEXT
8
SHEET_LABELS
6
ROT_89.46
7
STANDARD
10
669.5388
20
-476.7932
30
0.0
40
3.4
1
N00%%d32'22.00"E
50
89.46
0
TEXT
8
SHEET_LABELS
6
ROT_89.46
7
STANDARD
10
663.5390
20
-476.7367
30
0.0
40
3.2
1
55.00'
50
89.46
0
POINT
8
SHEET_LABELS
10
666.0000
20
-534.0000
30
0.0
0
TEXT
8
SHEET_LABELS
6
ROT_0.54
7
STANDARD
10
790.5671
20
-421.3674
30
0.0
40
3.4
1
N89%%d27'38.00"E
50
0.54
0
TEXT
8
SHEET_LABELS
6
ROT_0.54
7
STANDARD
10
790.5106
20
-415.3677
30
0.0
40
3.2
1
118.64'
50
0.54
0
POINT
8
SHEET_LABELS
10
667.0778
20
-419.5300
30
0.0
0
TEXT
8
SHEET_LABELS
6
ROT_85.37
7
STANDARD
10
912.3512
20
-474.7209
30
0.0
40
3.4
1
S04%%d37'50.46"W
50
85.37
0
TEXT
8
SHEET_LABELS
6
ROT_85.37
7
STANDARD
10
906.3708
20
-474.2365
30
0.0
40
3.2
1
55.21'
50
85.37
0
POINT
8
SHEET_LABELS
10
914.0000
20
-417.2051
30
0.0
0
TEXT
8
SHEET_LABELS
6
ROT_0.54
7
STANDARD
10
785.3892
20
-535.8760
30
0.0
40
3.4
1
S89%%d27'38.00"W
50
0.54
0
TEXT
8
SHEET_LABELS
6
ROT_0.54
7
STANDARD
10
785.3328
20
-529.8763
30
0.0
40
3.2
1
114.70'
50
0.54
0
POINT
8
SHEET_LABELS
10
904.7220
20
-531.7523
30
0.0
0
TEXT
8
SHEET_LABELS
7
STANDARD
10
648.0000
20
-310.0000
30
0.0
40
8.0
1
LOT 127   PASS
50
0.0
0
TEXT
8
SHEET_LABELS
7
STANDARD
10
648.0000
20
-321.0000
30
0.0
40
4.6
1
AREA 6,416 SF (0.147 ac)
50
0.0
0
TEXT
8
SHEET_LABELS
7
STANDARD
10
648.0000
20
-328.0000
30
0.0
40
4.0
1
PERIMETER 343.55'   VERTICES 4   CLOSING SIDE 114.70'
50
0.0
0
TEXT
8
SHEET_LABELS
7
STANDARD
10
648.0000
20
-335.0000
30
0.0
40
3.4
1
all geometric checks passed: closed single polyline, no self-intersection, no overlap, no spikes
50
0.0
0
LINE
8
SHEET_FRAME
10
960.0000
20
-560.0000
30
0.0
11
1260.0000
21
-560.0000
31
0.0
0
LINE
8
SHEET_FRAME
10
1260.0000
20
-560.0000
30
0.0
11
1260.0000
21
-300.0000
31
0.0
0
LINE
8
SHEET_FRAME
10
1260.0000
20
-300.0000
30
0.0
11
960.0000
21
-300.0000
31
0.0
0
LINE
8
SHEET_FRAME
10
960.0000
20
-300.0000
30
0.0
11
960.0000
21
-560.0000
31
0.0
0
POLYLINE
8
LOT_POLYLINE
66
1
70
1
0
VERTEX
8
LOT_POLYLINE
10
986.0000
20
-534.0000
30
0.0
0
VERTEX
8
LOT_POLYLINE
10
987.1377
20
-413.1668
30
0.0
0
VERTEX
8
LOT_POLYLINE
10
1234.0000
20
-410.8425
30
0.0
0
VERTEX
8
LOT_POLYLINE
10
1224.9276
20
-531.7504
30
0.0
0
SEQEND
0
TEXT
8
SHEET_LABELS
6
ROT_89.46
7
STANDARD
10
989.5687
20
-473.6116
30
0.0
40
3.4
1
N00%%d32'22.00"E
50
89.46
0
TEXT
8
SHEET_LABELS
6
ROT_89.46
7
STANDARD
10
983.5690
20
-473.5551
30
0.0
40
3.2
1
60.00'
50
89.46
0
POINT
8
SHEET_LABELS
10
986.0000
20
-534.0000
30
0.0
0
TEXT
8
SHEET_LABELS
6
ROT_0.54
7
STANDARD
10
1110.5971
20
-415.0045
30
0.0
40
3.4
1
N89%%d27'38.00"E
50
0.54
0
TEXT
8
SHEET_LABELS
6
ROT_0.54
7
STANDARD
10
1110.5406
20
-409.0047
30
0.0
40
3.2
1
122.58'
50
0.54
0
POINT
8
SHEET_LABELS
10
987.1377
20
-413.1668
30
0.0
0
TEXT
8
SHEET_LABELS
6
ROT_85.71
7
STANDARD
10
1232.4554
20
-471.5209
30
0.0
40
3.4
1
S04%%d17'28.26"W
50
85.71
0
TEXT
8
SHEET_LABELS
6
ROT_85.71
7
STANDARD
10
1226.4722
20
-471.0720
30
0.0
40
3.2
1
60.20'
50
85.71
0
POINT
8
SHEET_LABELS
10
1234.0000
20
-410.8425
30
0.0
0
TEXT
8
SHEET_LABELS
6
ROT_0.54
7
STANDARD
10
1105.4920
20
-535.8751
30
0.0
40
3.4
1
S89%%d27'38.00"W
50
0.54
0
TEXT
8
SHEET_LABELS
6
ROT_0.54
7
STANDARD
10
1105.4356
20
-529.8753
30
0.0
40
3.2
1
118.64'
50
0.54
0
POINT
8
SHEET_LABELS
10
1224.9276
20
-531.7504
30
0.0
0
TEXT
8
SHEET_LABELS
7
STANDARD
10
968.0000
20
-310.0000
30
0.0
40
8.0
1
LOT 126   PASS
50
0.0
0
TEXT
8
SHEET_LABELS
7
STANDARD
10
968.0000
20
-321.0000
30
0.0
40
4.6
1
AREA 7,235 SF (0.166 ac)
50
0.0
0
TEXT
8
SHEET_LABELS
7
STANDARD
10
968.0000
20
-328.0000
30
0.0
40
4.0
1
PERIMETER 361.42'   VERTICES 4   CLOSING SIDE 118.64'
50
0.0
0
TEXT
8
SHEET_LABELS
7
STANDARD
10
968.0000
20
-335.0000
30
0.0
40
3.4
1
all geometric checks passed: closed single polyline, no self-intersection, no overlap, no spikes
50
0.0
0
TEXT
8
TITLEBLOCK
7
STANDARD
10
0.0000
20
120.0000
30
0.0
40
7
1
ATLANTIC BEACH CC UNIT 2 -- SHEET 3 BLOCK A -- LOT CLOSURE CHECK SHEETS
50
0.0
0
TEXT
8
TITLEBLOCK
7
STANDARD
10
0.0000
20
109.0000
30
0.0
40
5
1
12 lots, one page each. Each lot drawn as a SINGLE CLOSED POLYLINE.
50
0.0
0
TEXT
8
TITLEBLOCK
7
STANDARD
10
0.0000
20
98.0000
30
0.0
40
5
1
Checks per lot: ring closed / no zero-length side / no duplicate vertex /
50
0.0
0
TEXT
8
TITLEBLOCK
7
STANDARD
10
0.0000
20
87.0000
30
0.0
40
5
1
single continuous loop (every vertex degree 2) / no self-intersection /
50
0.0
0
TEXT
8
TITLEBLOCK
7
STANDARD
10
0.0000
20
76.0000
30
0.0
40
5
1
no collinear overlapping sides / no spike vertices / positive area /
50
0.0
0
TEXT
8
TITLEBLOCK
7
STANDARD
10
0.0000
20
65.0000
30
0.0
40
5
1
arc endpoints meet their vertices.
50
0.0
0
TEXT
8
TITLEBLOCK
7
STANDARD
10
0.0000
20
54.0000
30
0.0
40
5
1
RED = geometry that failed a check, drawn on top of the offending side.
50
0.0
0
TEXT
8
TITLEBLOCK
7
STANDARD
10
0.0000
20
43.0000
30
0.0
40
5
1
RESULT: 12 of 12 lots pass all geometric checks.
50
0.0
0
TEXT
8
TITLEBLOCK
7
STANDARD
10
0.0000
20
32.0000
30
0.0
40
5
1

50
0.0
0
TEXT
8
TITLEBLOCK
7
STANDARD
10
0.0000
20
21.0000
30
0.0
40
5
1
NOTE ON AREAS: these rings use an ASSUMED rear boundary (see the plan
50
0.0
0
TEXT
8
TITLEBLOCK
7
STANDARD
10
0.0000
20
10.0000
30
0.0
40
5
1
drawing's ERROR layer). The geometry is verified sound; the AREAS remain
50
0.0
0
TEXT
8
TITLEBLOCK
7
STANDARD
10
0.0000
20
-1.0000
30
0.0
40
5
1
PROVISIONAL until the rear curve stations are transcribed.
50
0.0
0
ENDSEC
0
EOF
