0
SECTION
2
HEADER
9
$ACADVER
1
AC1009
9
$DWGCODEPAGE
3
ANSI_1252
0
ENDSEC
0
SECTION
2
TABLES
0
TABLE
2
LTYPE
70
8
0
LTYPE
2
CONTINUOUS
70
0
3
Solid
72
65
73
0
40
0.0
0
LTYPE
2
DASHED
70
0
3
Dashed
72
65
73
2
40
0.75
49
0.5
74
0
49
-0.25
74
0
0
LTYPE
2
DASHED2
70
0
3
Dashed (.5x)
72
65
73
2
40
0.375
49
0.25
74
0
49
-0.125
74
0
0
LTYPE
2
HIDDEN
70
0
3
Hidden
72
65
73
2
40
0.375
49
0.25
74
0
49
-0.125
74
0
0
LTYPE
2
CENTER
70
0
3
Center
72
65
73
4
40
2.0
49
1.25
74
0
49
-0.25
74
0
49
0.25
74
0
49
-0.25
74
0
0
LTYPE
2
PHANTOM
70
0
3
Phantom
72
65
73
6
40
2.5
49
1.25
74
0
49
-0.25
74
0
49
0.25
74
0
49
-0.25
74
0
49
0.25
74
0
49
-0.25
74
0
0
LTYPE
2
ROT_-35.00
70
0
3
Solid
72
65
73
0
40
0.0
0
LTYPE
2
ROT_35.30
70
0
3
Solid
72
65
73
0
40
0.0
0
ENDTAB
0
TABLE
2
LAYER
70
12
0
LAYER
2
0
70
0
62
7
6
CONTINUOUS
0
LAYER
2
LOT_LINE
70
0
62
4
6
CONTINUOUS
0
LAYER
2
CURVE
70
0
62
6
6
CONTINUOUS
0
LAYER
2
RADIAL_LINE
70
0
62
1
6
DASHED
0
LAYER
2
MATCHLINE
70
0
62
7
6
CONTINUOUS
0
LAYER
2
MONUMENT
70
0
62
2
6
CONTINUOUS
0
LAYER
2
ROW_STREET
70
0
62
2
6
CONTINUOUS
0
LAYER
2
STREET_CL
70
0
62
2
6
DASHDOT
0
LAYER
2
EASEMENT
70
0
62
3
6
DASHED
0
LAYER
2
TEXT-LABELS
70
0
62
7
6
CONTINUOUS
0
LAYER
2
DIM-LABELS
70
0
62
3
6
CONTINUOUS
0
LAYER
2
TITLEBLOCK
70
0
62
2
6
CONTINUOUS
0
ENDTAB
0
TABLE
2
STYLE
70
4
0
STYLE
2
STANDARD
70
0
40
0.0
41
1.0
50
0.0
71
0
42
0.2
3
Arial
4

0
STYLE
2
ARIAL
70
0
40
0.0
41
1.0
50
0.0
71
0
42
0.2
3
Arial
4

0
STYLE
2
ARIAL_TTF
70
0
40
0.0
41
1.0
50
0.0
71
0
42
0.2
3
arial.ttf
4

0
STYLE
2
SIMPLEX
70
0
40
0.0
41
1.0
50
0.0
71
0
42
0.2
3
simplex.shx
4

0
ENDTAB
0
ENDSEC
0
SECTION
2
ENTITIES
0
POLYLINE
8
CURVE
66
1
70
0
0
VERTEX
8
CURVE
10
-275.7334
20
326.7585
30
0.0
0
VERTEX
8
CURVE
10
-275.6570
20
329.2107
30
0.0
0
VERTEX
8
CURVE
10
-275.3406
20
331.6436
30
0.0
0
VERTEX
8
CURVE
10
-274.7873
20
334.0338
30
0.0
0
VERTEX
8
CURVE
10
-274.0023
20
336.3582
30
0.0
0
VERTEX
8
CURVE
10
-272.9933
20
338.5945
30
0.0
0
VERTEX
8
CURVE
10
-271.7700
20
340.7211
30
0.0
0
VERTEX
8
CURVE
10
-270.3441
20
342.7176
30
0.0
0
VERTEX
8
CURVE
10
-268.7293
20
344.5647
30
0.0
0
VERTEX
8
CURVE
10
-266.9413
20
346.2446
30
0.0
0
VERTEX
8
CURVE
10
-264.9973
20
347.7412
30
0.0
0
VERTEX
8
CURVE
10
-262.9159
20
349.0400
30
0.0
0
VERTEX
8
CURVE
10
-260.7173
20
350.1286
30
0.0
0
VERTEX
8
CURVE
10
-258.4225
20
350.9964
30
0.0
0
VERTEX
8
CURVE
10
-256.0537
20
351.6352
30
0.0
0
VERTEX
8
CURVE
10
-253.6337
20
352.0386
30
0.0
0
VERTEX
8
CURVE
10
-251.1859
20
352.2029
30
0.0
0
SEQEND
0
POLYLINE
8
LOT_LINE
66
1
70
1
0
VERTEX
8
LOT_LINE
10
-273.6706
20
211.7770
30
0.0
0
VERTEX
8
LOT_LINE
10
-275.7334
20
326.7585
30
0.0
0
VERTEX
8
LOT_LINE
10
-275.6570
20
329.2107
30
0.0
0
VERTEX
8
LOT_LINE
10
-275.3406
20
331.6436
30
0.0
0
VERTEX
8
LOT_LINE
10
-274.7873
20
334.0338
30
0.0
0
VERTEX
8
LOT_LINE
10
-274.0023
20
336.3582
30
0.0
0
VERTEX
8
LOT_LINE
10
-272.9933
20
338.5945
30
0.0
0
VERTEX
8
LOT_LINE
10
-271.7700
20
340.7211
30
0.0
0
VERTEX
8
LOT_LINE
10
-270.3441
20
342.7176
30
0.0
0
VERTEX
8
LOT_LINE
10
-268.7293
20
344.5647
30
0.0
0
VERTEX
8
LOT_LINE
10
-266.9413
20
346.2446
30
0.0
0
VERTEX
8
LOT_LINE
10
-264.9973
20
347.7412
30
0.0
0
VERTEX
8
LOT_LINE
10
-262.9159
20
349.0400
30
0.0
0
VERTEX
8
LOT_LINE
10
-260.7173
20
350.1286
30
0.0
0
VERTEX
8
LOT_LINE
10
-258.4225
20
350.9964
30
0.0
0
VERTEX
8
LOT_LINE
10
-256.0537
20
351.6352
30
0.0
0
VERTEX
8
LOT_LINE
10
-253.6337
20
352.0386
30
0.0
0
VERTEX
8
LOT_LINE
10
-251.1859
20
352.2029
30
0.0
0
VERTEX
8
LOT_LINE
10
-179.1866
20
344.6712
30
0.0
0
VERTEX
8
LOT_LINE
10
-185.3943
20
229.3069
30
0.0
0
SEQEND
0
ARC
8
CURVE
10
-250.7374
20
327.2070
30
0.0
40
25.0000
50
91.0278
51
181.0278
0
TEXT
8
TEXT-LABELS
7
STANDARD
10
-233.0342
20
292.9433
30
0.0
40
8.0
1
27
50
0.0
0
TEXT
8
DIM-LABELS
7
STANDARD
10
-271.2026
20
269.3306
30
0.0
40
5.5
1
115.0'
50
0.0
0
TEXT
8
DIM-LABELS
7
STANDARD
10
-260.9408
20
337.0506
30
0.0
40
5.5
1
35.4'
50
0.0
0
TEXT
8
DIM-LABELS
7
STANDARD
10
-215.5504
20
344.9560
30
0.0
40
5.5
1
72.4'
50
0.0
0
TEXT
8
DIM-LABELS
7
STANDARD
10
-185.7854
20
287.1771
30
0.0
40
5.5
1
115.5'
50
0.0
0
TEXT
8
DIM-LABELS
7
STANDARD
10
-230.2142
20
223.9749
30
0.0
40
5.5
1
90.0'
50
0.0
0
POLYLINE
8
LOT_LINE
66
1
70
1
0
VERTEX
8
LOT_LINE
10
-185.3943
20
229.3069
30
0.0
0
VERTEX
8
LOT_LINE
10
-179.1866
20
344.6712
30
0.0
0
VERTEX
8
LOT_LINE
10
-79.8939
20
301.5547
30
0.0
0
VERTEX
8
LOT_LINE
10
-125.3144
20
198.9583
30
0.0
0
SEQEND
0
TEXT
8
TEXT-LABELS
7
STANDARD
10
-142.4473
20
268.6228
30
0.0
40
8.0
1
28
50
0.0
0
TEXT
8
DIM-LABELS
7
STANDARD
10
-178.7955
20
286.8010
30
0.0
40
5.5
1
115.5'
50
0.0
0
TEXT
8
DIM-LABELS
7
STANDARD
10
-130.9343
20
319.9026
30
0.0
40
5.5
1
108.3'
50
0.0
0
TEXT
8
DIM-LABELS
7
STANDARD
10
-105.8046
20
251.6734
30
0.0
40
5.5
1
112.2'
50
0.0
0
TEXT
8
DIM-LABELS
7
STANDARD
10
-153.7763
20
217.2567
30
0.0
40
5.5
1
67.3'
50
0.0
0
POLYLINE
8
LOT_LINE
66
1
70
1
0
VERTEX
8
LOT_LINE
10
-125.3144
20
198.9583
30
0.0
0
VERTEX
8
LOT_LINE
10
-79.8939
20
301.5547
30
0.0
0
VERTEX
8
LOT_LINE
10
-74.2087
20
297.6271
30
0.0
0
VERTEX
8
LOT_LINE
10
-6.8249
20
249.9068
30
0.0
0
VERTEX
8
LOT_LINE
10
-64.6186
20
168.2987
30
0.0
0
SEQEND
0
TEXT
8
TEXT-LABELS
7
STANDARD
10
-70.1721
20
243.2691
30
0.0
40
8.0
1
29
50
0.0
0
TEXT
8
DIM-LABELS
7
STANDARD
10
-99.4038
20
248.8397
30
0.0
40
5.5
1
112.2'
50
0.0
0
TEXT
8
DIM-LABELS
7
STANDARD
10
-79.0407
20
296.7113
30
0.0
40
5.5
1
6.9'
50
0.0
0
TEXT
8
DIM-LABELS
7
STANDARD
10
-42.5396
20
270.9107
30
0.0
40
5.5
1
82.6'
50
0.0
0
TEXT
8
DIM-LABELS
7
STANDARD
10
-38.5780
20
211.1255
30
0.0
40
5.5
1
100.0'
50
0.0
0
TEXT
8
DIM-LABELS
7
STANDARD
10
-93.3884
20
186.7526
30
0.0
40
5.5
1
68.0'
50
0.0
0
POLYLINE
8
LOT_LINE
66
1
70
1
0
VERTEX
8
LOT_LINE
10
-64.6186
20
168.2987
30
0.0
0
VERTEX
8
LOT_LINE
10
-6.8249
20
249.9068
30
0.0
0
VERTEX
8
LOT_LINE
10
54.3812
20
206.5616
30
0.0
0
VERTEX
8
LOT_LINE
10
-3.4124
20
124.9534
30
0.0
0
SEQEND
0
TEXT
8
TEXT-LABELS
7
STANDARD
10
-5.1187
20
187.4301
30
0.0
40
8.0
1
30
50
0.0
0
TEXT
8
DIM-LABELS
7
STANDARD
10
-32.8654
20
207.0800
30
0.0
40
5.5
1
100.0'
50
0.0
0
TEXT
8
DIM-LABELS
7
STANDARD
10
21.7554
20
225.3779
30
0.0
40
5.5
1
75.0'
50
0.0
0
TEXT
8
DIM-LABELS
7
STANDARD
10
22.6281
20
167.7803
30
0.0
40
5.5
1
100.0'
50
0.0
0
TEXT
8
DIM-LABELS
7
STANDARD
10
-31.9927
20
149.4823
30
0.0
40
5.5
1
75.0'
50
0.0
0
POLYLINE
8
LOT_LINE
66
1
70
1
0
VERTEX
8
LOT_LINE
10
-3.4124
20
124.9534
30
0.0
0
VERTEX
8
LOT_LINE
10
54.3812
20
206.5616
30
0.0
0
VERTEX
8
LOT_LINE
10
115.5874
20
163.2163
30
0.0
0
VERTEX
8
LOT_LINE
10
57.7937
20
81.6082
30
0.0
0
SEQEND
0
TEXT
8
TEXT-LABELS
7
STANDARD
10
56.0875
20
144.0849
30
0.0
40
8.0
1
31
50
0.0
0
TEXT
8
DIM-LABELS
7
STANDARD
10
28.3407
20
163.7347
30
0.0
40
5.5
1
100.0'
50
0.0
0
TEXT
8
DIM-LABELS
7
STANDARD
10
82.9615
20
182.0327
30
0.0
40
5.5
1
75.0'
50
0.0
0
TEXT
8
DIM-LABELS
7
STANDARD
10
83.8342
20
124.4350
30
0.0
40
5.5
1
100.0'
50
0.0
0
TEXT
8
DIM-LABELS
7
STANDARD
10
29.2134
20
106.1371
30
0.0
40
5.5
1
75.0'
50
0.0
0
POLYLINE
8
CURVE
66
1
70
0
0
VERTEX
8
CURVE
10
-246.7072
20
103.2578
30
0.0
0
VERTEX
8
CURVE
10
-248.9827
20
103.3194
30
0.0
0
VERTEX
8
CURVE
10
-251.2431
20
103.5876
30
0.0
0
VERTEX
8
CURVE
10
-253.4698
20
104.0603
30
0.0
0
VERTEX
8
CURVE
10
-255.6443
20
104.7337
30
0.0
0
VERTEX
8
CURVE
10
-257.7485
20
105.6020
30
0.0
0
VERTEX
8
CURVE
10
-259.7650
20
106.6581
30
0.0
0
VERTEX
8
CURVE
10
-261.6771
20
107.8932
30
0.0
0
VERTEX
8
CURVE
10
-263.4689
20
109.2972
30
0.0
0
VERTEX
8
CURVE
10
-265.1256
20
110.8583
30
0.0
0
VERTEX
8
CURVE
10
-266.6334
20
112.5636
30
0.0
0
VERTEX
8
CURVE
10
-267.9798
20
114.3990
30
0.0
0
VERTEX
8
CURVE
10
-269.1538
20
116.3492
30
0.0
0
VERTEX
8
CURVE
10
-270.1454
20
118.3982
30
0.0
0
VERTEX
8
CURVE
10
-270.9466
20
120.5289
30
0.0
0
VERTEX
8
CURVE
10
-271.5507
20
122.7236
30
0.0
0
VERTEX
8
CURVE
10
-271.9526
20
124.9641
30
0.0
0
SEQEND
0
POLYLINE
8
LOT_LINE
66
1
70
1
0
VERTEX
8
LOT_LINE
10
-273.6706
20
211.7770
30
0.0
0
VERTEX
8
LOT_LINE
10
-185.3943
20
229.3069
30
0.0
0
VERTEX
8
LOT_LINE
10
-158.6168
20
215.7806
30
0.0
0
VERTEX
8
LOT_LINE
10
-179.1067
20
96.7817
30
0.0
0
VERTEX
8
LOT_LINE
10
-246.7072
20
103.2578
30
0.0
0
VERTEX
8
LOT_LINE
10
-248.9827
20
103.3194
30
0.0
0
VERTEX
8
LOT_LINE
10
-251.2431
20
103.5876
30
0.0
0
VERTEX
8
LOT_LINE
10
-253.4698
20
104.0603
30
0.0
0
VERTEX
8
LOT_LINE
10
-255.6443
20
104.7337
30
0.0
0
VERTEX
8
LOT_LINE
10
-257.7485
20
105.6020
30
0.0
0
VERTEX
8
LOT_LINE
10
-259.7650
20
106.6581
30
0.0
0
VERTEX
8
LOT_LINE
10
-261.6771
20
107.8932
30
0.0
0
VERTEX
8
LOT_LINE
10
-263.4689
20
109.2972
30
0.0
0
VERTEX
8
LOT_LINE
10
-265.1256
20
110.8583
30
0.0
0
VERTEX
8
LOT_LINE
10
-266.6334
20
112.5636
30
0.0
0
VERTEX
8
LOT_LINE
10
-267.9798
20
114.3990
30
0.0
0
VERTEX
8
LOT_LINE
10
-269.1538
20
116.3492
30
0.0
0
VERTEX
8
LOT_LINE
10
-270.1454
20
118.3982
30
0.0
0
VERTEX
8
LOT_LINE
10
-270.9466
20
120.5289
30
0.0
0
VERTEX
8
LOT_LINE
10
-271.5507
20
122.7236
30
0.0
0
VERTEX
8
LOT_LINE
10
-272.1157
20
125.1044
30
0.0
0
SEQEND
0
ARC
8
CURVE
10
-247.3145
20
128.2505
30
0.0
40
25.0000
50
187.2295
51
271.3919
0
TEXT
8
TEXT-LABELS
7
STANDARD
10
-219.2686
20
163.6681
30
0.0
40
8.0
1
26
50
0.0
0
TEXT
8
DIM-LABELS
7
STANDARD
10
-228.8508
20
217.1090
30
0.0
40
5.5
1
90.0'
50
0.0
0
TEXT
8
DIM-LABELS
7
STANDARD
10
-173.5836
20
219.4197
30
0.0
40
5.5
1
30.0'
50
0.0
0
TEXT
8
DIM-LABELS
7
STANDARD
10
-172.3110
20
156.8751
30
0.0
40
5.5
1
120.8'
50
0.0
0
TEXT
8
DIM-LABELS
7
STANDARD
10
-212.5732
20
103.5038
30
0.0
40
5.5
1
67.9'
50
0.0
0
TEXT
8
DIM-LABELS
7
STANDARD
10
-257.1296
20
116.8350
30
0.0
40
5.5
1
33.5'
50
0.0
0
TEXT
8
DIM-LABELS
7
STANDARD
10
-269.3937
20
168.5035
30
0.0
40
5.5
1
86.7'
50
0.0
0
POLYLINE
8
LOT_LINE
66
1
70
1
0
VERTEX
8
LOT_LINE
10
-179.1067
20
96.7817
30
0.0
0
VERTEX
8
LOT_LINE
10
-158.6168
20
215.7806
30
0.0
0
VERTEX
8
LOT_LINE
10
-85.1480
20
178.6689
30
0.0
0
VERTEX
8
LOT_LINE
10
-116.2757
20
75.9956
30
0.0
0
SEQEND
0
TEXT
8
TEXT-LABELS
7
STANDARD
10
-134.7868
20
141.8067
30
0.0
40
8.0
1
25
50
0.0
0
TEXT
8
DIM-LABELS
7
STANDARD
10
-165.4125
20
155.6872
30
0.0
40
5.5
1
120.8'
50
0.0
0
TEXT
8
DIM-LABELS
7
STANDARD
10
-123.4605
20
194.1007
30
0.0
40
5.5
1
82.3'
50
0.0
0
TEXT
8
DIM-LABELS
7
STANDARD
10
-104.0613
20
128.3477
30
0.0
40
5.5
1
107.3'
50
0.0
0
TEXT
8
DIM-LABELS
7
STANDARD
10
-146.5919
20
89.7116
30
0.0
40
5.5
1
66.2'
50
0.0
0
POLYLINE
8
LOT_LINE
66
1
70
1
0
VERTEX
8
LOT_LINE
10
-116.2757
20
75.9956
30
0.0
0
VERTEX
8
LOT_LINE
10
-85.1480
20
178.6689
30
0.0
0
VERTEX
8
LOT_LINE
10
-64.6186
20
168.2987
30
0.0
0
VERTEX
8
LOT_LINE
10
-3.4124
20
124.9534
30
0.0
0
VERTEX
8
LOT_LINE
10
-61.1910
20
43.3364
30
0.0
0
VERTEX
8
LOT_LINE
10
-67.9726
20
48.1390
30
0.0
0
SEQEND
0
TEXT
8
TEXT-LABELS
7
STANDARD
10
-66.4364
20
106.5653
30
0.0
40
8.0
1
24
50
0.0
0
TEXT
8
DIM-LABELS
7
STANDARD
10
-97.3624
20
126.3168
30
0.0
40
5.5
1
107.3'
50
0.0
0
TEXT
8
DIM-LABELS
7
STANDARD
10
-76.4614
20
170.3597
30
0.0
40
5.5
1
23.0'
50
0.0
0
TEXT
8
DIM-LABELS
7
STANDARD
10
-36.0383
20
143.7698
30
0.0
40
5.5
1
75.0'
50
0.0
0
TEXT
8
DIM-LABELS
7
STANDARD
10
-35.1584
20
86.1672
30
0.0
40
5.5
1
100.0'
50
0.0
0
TEXT
8
DIM-LABELS
7
STANDARD
10
-62.5590
20
48.5940
30
0.0
40
5.5
1
8.3'
50
0.0
0
TEXT
8
DIM-LABELS
7
STANDARD
10
-90.3756
20
65.0993
30
0.0
40
5.5
1
55.8'
50
0.0
0
POLYLINE
8
LOT_LINE
66
1
70
1
0
VERTEX
8
LOT_LINE
10
-61.1910
20
43.3364
30
0.0
0
VERTEX
8
LOT_LINE
10
-3.4124
20
124.9534
30
0.0
0
VERTEX
8
LOT_LINE
10
57.7937
20
81.6082
30
0.0
0
VERTEX
8
LOT_LINE
10
0.0000
20
0.0000
30
0.0
0
SEQEND
0
TEXT
8
TEXT-LABELS
7
STANDARD
10
-1.7024
20
62.4745
30
0.0
40
8.0
1
23
50
0.0
0
TEXT
8
DIM-LABELS
7
STANDARD
10
-29.4451
20
82.1226
30
0.0
40
5.5
1
100.0'
50
0.0
0
TEXT
8
DIM-LABELS
7
STANDARD
10
25.1678
20
100.4245
30
0.0
40
5.5
1
75.0'
50
0.0
0
TEXT
8
DIM-LABELS
7
STANDARD
10
26.0406
20
42.8269
30
0.0
40
5.5
1
100.0'
50
0.0
0
TEXT
8
DIM-LABELS
7
STANDARD
10
-28.5727
20
24.5244
30
0.0
40
5.5
1
75.0'
50
0.0
0
LINE
8
ROW_STREET
10
351.8801
20
-269.1830
30
0.0
11
351.7545
21
-276.1818
31
0.0
0
LINE
8
ROW_STREET
10
351.7545
20
-276.1818
30
0.0
11
344.7556
21
-276.0563
31
0.0
0
TEXT
8
DIM-LABELS
7
STANDARD
10
-274.1818
20
353.7545
30
0.0
40
3.5
1
P.I.
50
0.0
0
LINE
8
RADIAL_LINE
10
326.7585
20
-275.7334
30
0.0
11
351.7545
21
-276.1818
31
0.0
0
LINE
8
RADIAL_LINE
10
352.2029
20
-251.1859
30
0.0
11
351.7545
21
-276.1818
31
0.0
0
LINE
8
RADIAL_LINE
10
327.2070
20
-250.7374
30
0.0
11
326.7585
21
-275.7334
31
0.0
0
LINE
8
RADIAL_LINE
10
327.2070
20
-250.7374
30
0.0
11
352.2029
21
-251.1859
31
0.0
0
TEXT
8
TEXT-LABELS
7
STANDARD
10
-248.7374
20
322.2070
30
0.0
40
3.2
1
R=25.00'
50
0.0
0
LINE
8
ROW_STREET
10
102.9201
20
-264.7166
30
0.0
11
102.7946
21
-271.7155
31
0.0
0
LINE
8
ROW_STREET
10
102.7946
20
-271.7155
30
0.0
11
109.7934
21
-271.8410
31
0.0
0
TEXT
8
DIM-LABELS
7
STANDARD
10
-269.7155
20
104.7946
30
0.0
40
3.5
1
P.I.
50
0.0
0
LINE
8
RADIAL_LINE
10
125.1044
20
-272.1157
30
0.0
11
102.7946
21
-271.7155
31
0.0
0
LINE
8
RADIAL_LINE
10
103.2578
20
-246.7072
30
0.0
11
102.7946
21
-271.7155
31
0.0
0
LINE
8
RADIAL_LINE
10
125.5528
20
-247.1197
30
0.0
11
125.1044
21
-272.1157
31
0.0
0
LINE
8
RADIAL_LINE
10
125.5528
20
-247.1197
30
0.0
11
103.2578
21
-246.7072
31
0.0
0
TEXT
8
TEXT-LABELS
7
STANDARD
10
-245.1197
20
128.5528
30
0.0
40
3.2
1
R=25.00'
50
0.0
0
LINE
8
MATCHLINE
10
-32.6433
20
-23.1175
30
0.0
11
0.0000
21
0.0000
31
0.0
0
LINE
8
MATCHLINE
10
0.0000
20
0.0000
30
0.0
11
163.2163
21
115.5874
31
0.0
0
LINE
8
MATCHLINE
10
163.2163
20
115.5874
30
0.0
11
195.8596
21
138.7048
31
0.0
0
TEXT
8
MATCHLINE
6
ROT_35.30
7
STANDARD
10
65.7937
20
89.6082
30
0.0
40
4.5
1
MATCH LINE (PB 30, PG 82A) - N 35%%d18'20" E 200.0'
50
35.3
0
POINT
8
MONUMENT
10
115.5874
20
163.2163
30
0.0
0
POLYLINE
8
MONUMENT
66
1
70
1
0
VERTEX
8
MONUMENT
10
118.0874
20
163.2163
30
0.0
0
VERTEX
8
MONUMENT
10
117.3551
20
164.9841
30
0.0
0
VERTEX
8
MONUMENT
10
115.5874
20
165.7163
30
0.0
0
VERTEX
8
MONUMENT
10
113.8196
20
164.9841
30
0.0
0
VERTEX
8
MONUMENT
10
113.0874
20
163.2163
30
0.0
0
VERTEX
8
MONUMENT
10
113.8196
20
161.4485
30
0.0
0
VERTEX
8
MONUMENT
10
115.5874
20
160.7163
30
0.0
0
VERTEX
8
MONUMENT
10
117.3551
20
161.4485
30
0.0
0
SEQEND
0
TEXT
8
MONUMENT
7
STANDARD
10
121.5874
20
167.2163
30
0.0
40
5.0
1
P.R.M.
50
0.0
0
LINE
8
EASEMENT
10
229.3069
20
-185.3943
30
0.0
11
215.7806
21
-158.6168
31
0.0
0
LINE
8
EASEMENT
10
215.7806
20
-158.6168
30
0.0
11
178.6689
21
-85.1480
31
0.0
0
LINE
8
EASEMENT
10
178.6689
20
-85.1480
30
0.0
11
168.2987
21
-64.6186
31
0.0
0
LINE
8
EASEMENT
10
168.2987
20
-64.6186
30
0.0
11
81.6082
21
57.7937
31
0.0
0
TEXT
8
EASEMENT
7
STANDARD
10
-84.6186
20
172.2987
30
0.0
40
3.5
1
10' EASEMENT
50
0.0
0
LINE
8
STREET_CL
10
382.1981
20
-251.7240
30
0.0
11
187.6988
21
132.9255
31
0.0
0
TEXT
8
ROW_STREET
6
ROT_-35.00
7
STANDARD
10
102.9255
20
197.6988
30
0.0
40
6.0
1
CAPE HORN AVENUE (60' R/W)
50
-35.0
0
LINE
8
STREET_CL
10
73.2627
20
-246.1691
30
0.0
11
-24.4824
21
-17.3381
31
0.0
0
TEXT
8
ROW_STREET
6
ROT_-35.00
7
STANDARD
10
-57.3381
20
-39.4824
30
0.0
40
6.0
1
SAN SALVADORE AVENUE (60' R/W)
50
-35.0
0
TEXT
8
TITLEBLOCK
7
STANDARD
10
-271.7155
20
57.7946
30
0.0
40
10.0
1
BEACHWOOD UNIT TWO -- BLOCK 9 (WEST OF MATCHLINE) MAPCHECK AUDIT
50
0.0
0
TEXT
8
TITLEBLOCK
7
STANDARD
10
-271.7155
20
42.7946
30
0.0
40
6.5
1
Plat Book 30, Pages 82 & 82A, Duval County, FL | 100%% Survey-Grade Closed (9 Lots)
50
0.0
0
ENDSEC
0
EOF
