0
SECTION
2
HEADER
9
$ACADVER
1
AC1009
9
$DWGCODEPAGE
3
ANSI_1252
0
ENDSEC
0
SECTION
2
TABLES
0
TABLE
2
LTYPE
70
6
0
LTYPE
2
CONTINUOUS
70
0
3
Solid
72
65
73
0
40
0.0
0
LTYPE
2
DASHED
70
0
3
Dashed
72
65
73
2
40
0.75
49
0.5
74
0
49
-0.25
74
0
0
LTYPE
2
DASHED2
70
0
3
Dashed (.5x)
72
65
73
2
40
0.375
49
0.25
74
0
49
-0.125
74
0
0
LTYPE
2
HIDDEN
70
0
3
Hidden
72
65
73
2
40
0.375
49
0.25
74
0
49
-0.125
74
0
0
LTYPE
2
CENTER
70
0
3
Center
72
65
73
4
40
2.0
49
1.25
74
0
49
-0.25
74
0
49
0.25
74
0
49
-0.25
74
0
0
LTYPE
2
PHANTOM
70
0
3
Phantom
72
65
73
6
40
2.5
49
1.25
74
0
49
-0.25
74
0
49
0.25
74
0
49
-0.25
74
0
49
0.25
74
0
49
-0.25
74
0
0
ENDTAB
0
TABLE
2
LAYER
70
8
0
LAYER
2
0
70
0
62
7
6
CONTINUOUS
0
LAYER
2
LOT_LINE
70
0
62
4
6
CONTINUOUS
0
LAYER
2
CURVE
70
0
62
6
6
CONTINUOUS
0
LAYER
2
RADIAL_LINE
70
0
62
1
6
DASHED
0
LAYER
2
TEXT-LABELS
70
0
62
7
6
CONTINUOUS
0
LAYER
2
DIM-LABELS
70
0
62
3
6
CONTINUOUS
0
LAYER
2
STREET_CL
70
0
62
2
6
DASHDOT
0
LAYER
2
TITLEBLOCK
70
0
62
2
6
CONTINUOUS
0
ENDTAB
0
TABLE
2
STYLE
70
4
0
STYLE
2
STANDARD
70
0
40
0.0
41
1.0
50
0.0
71
0
42
0.2
3
Arial
4

0
STYLE
2
ARIAL
70
0
40
0.0
41
1.0
50
0.0
71
0
42
0.2
3
Arial
4

0
STYLE
2
ARIAL_TTF
70
0
40
0.0
41
1.0
50
0.0
71
0
42
0.2
3
arial.ttf
4

0
STYLE
2
SIMPLEX
70
0
40
0.0
41
1.0
50
0.0
71
0
42
0.2
3
simplex.shx
4

0
ENDTAB
0
ENDSEC
0
SECTION
2
ENTITIES
0
POLYLINE
8
CURVE
66
1
70
0
0
VERTEX
8
CURVE
10
340.8739
20
-49.3153
30
0.0
0
VERTEX
8
CURVE
10
336.1382
20
-49.5792
30
0.0
0
VERTEX
8
CURVE
10
331.4115
20
-49.9721
30
0.0
0
VERTEX
8
CURVE
10
326.6973
20
-50.4938
30
0.0
0
VERTEX
8
CURVE
10
321.9990
20
-51.1438
30
0.0
0
VERTEX
8
CURVE
10
317.3202
20
-51.9217
30
0.0
0
VERTEX
8
CURVE
10
312.6644
20
-52.8269
30
0.0
0
VERTEX
8
CURVE
10
308.0350
20
-53.8587
30
0.0
0
VERTEX
8
CURVE
10
303.4354
20
-55.0164
30
0.0
0
VERTEX
8
CURVE
10
298.8691
20
-56.2990
30
0.0
0
VERTEX
8
CURVE
10
294.3395
20
-57.7057
30
0.0
0
VERTEX
8
CURVE
10
289.8499
20
-59.2353
30
0.0
0
VERTEX
8
CURVE
10
285.4037
20
-60.8868
30
0.0
0
VERTEX
8
CURVE
10
281.0042
20
-62.6589
30
0.0
0
VERTEX
8
CURVE
10
276.6546
20
-64.5503
30
0.0
0
VERTEX
8
CURVE
10
272.3582
20
-66.5597
30
0.0
0
VERTEX
8
CURVE
10
268.1182
20
-68.6854
30
0.0
0
SEQEND
0
POLYLINE
8
LOT_LINE
66
1
70
1
0
VERTEX
8
LOT_LINE
10
249.6569
20
46.1197
30
0.0
0
VERTEX
8
LOT_LINE
10
336.6718
20
50.5964
30
0.0
0
VERTEX
8
LOT_LINE
10
340.8739
20
-49.3153
30
0.0
0
VERTEX
8
LOT_LINE
10
336.1382
20
-49.5792
30
0.0
0
VERTEX
8
LOT_LINE
10
331.4115
20
-49.9721
30
0.0
0
VERTEX
8
LOT_LINE
10
326.6973
20
-50.4938
30
0.0
0
VERTEX
8
LOT_LINE
10
321.9990
20
-51.1438
30
0.0
0
VERTEX
8
LOT_LINE
10
317.3202
20
-51.9217
30
0.0
0
VERTEX
8
LOT_LINE
10
312.6644
20
-52.8269
30
0.0
0
VERTEX
8
LOT_LINE
10
308.0350
20
-53.8587
30
0.0
0
VERTEX
8
LOT_LINE
10
303.4354
20
-55.0164
30
0.0
0
VERTEX
8
LOT_LINE
10
298.8691
20
-56.2990
30
0.0
0
VERTEX
8
LOT_LINE
10
294.3395
20
-57.7057
30
0.0
0
VERTEX
8
LOT_LINE
10
289.8499
20
-59.2353
30
0.0
0
VERTEX
8
LOT_LINE
10
285.4037
20
-60.8868
30
0.0
0
VERTEX
8
LOT_LINE
10
281.0042
20
-62.6589
30
0.0
0
VERTEX
8
LOT_LINE
10
276.6546
20
-64.5503
30
0.0
0
VERTEX
8
LOT_LINE
10
272.3582
20
-66.5597
30
0.0
0
VERTEX
8
LOT_LINE
10
268.1182
20
-68.6854
30
0.0
0
SEQEND
0
ARC
8
CURVE
10
348.1829
20
-223.0916
30
0.0
40
173.9300
50
92.4084
51
117.4082
0
TEXT
8
TEXT-LABELS
7
STANDARD
10
298.8302
20
-5.3211
30
0.0
40
8.0
1
15
50
0.0
0
TEXT
8
DIM-LABELS
7
STANDARD
10
293.3442
20
44.8627
30
0.0
40
5.5
1
87.1'
50
0.0
0
TEXT
8
DIM-LABELS
7
STANDARD
10
335.2759
20
0.4935
30
0.0
40
5.5
1
100.0'
50
0.0
0
TEXT
8
DIM-LABELS
7
STANDARD
10
303.5956
20
-55.6182
30
0.0
40
5.5
1
75.3'
50
0.0
0
TEXT
8
DIM-LABELS
7
STANDARD
10
262.3432
20
-10.7271
30
0.0
40
5.5
1
116.3'
50
0.0
0
POLYLINE
8
CURVE
66
1
70
0
0
VERTEX
8
CURVE
10
268.1182
20
-68.6854
30
0.0
0
VERTEX
8
CURVE
10
263.5332
20
-71.1436
30
0.0
0
VERTEX
8
CURVE
10
259.0237
20
-73.7379
30
0.0
0
VERTEX
8
CURVE
10
254.5939
20
-76.4658
30
0.0
0
VERTEX
8
CURVE
10
250.2476
20
-79.3251
30
0.0
0
VERTEX
8
CURVE
10
245.9888
20
-82.3130
30
0.0
0
VERTEX
8
CURVE
10
241.8212
20
-85.4270
30
0.0
0
VERTEX
8
CURVE
10
237.7486
20
-88.6642
30
0.0
0
VERTEX
8
CURVE
10
233.7747
20
-92.0217
30
0.0
0
VERTEX
8
CURVE
10
229.9030
20
-95.4967
30
0.0
0
VERTEX
8
CURVE
10
226.1369
20
-99.0858
30
0.0
0
VERTEX
8
CURVE
10
222.4798
20
-102.7860
30
0.0
0
VERTEX
8
CURVE
10
218.9351
20
-106.5939
30
0.0
0
VERTEX
8
CURVE
10
215.5058
20
-110.5062
30
0.0
0
VERTEX
8
CURVE
10
212.1951
20
-114.5192
30
0.0
0
VERTEX
8
CURVE
10
209.0059
20
-118.6294
30
0.0
0
VERTEX
8
CURVE
10
205.9410
20
-122.8332
30
0.0
0
SEQEND
0
POLYLINE
8
LOT_LINE
66
1
70
1
0
VERTEX
8
LOT_LINE
10
186.5109
20
44.0192
30
0.0
0
VERTEX
8
LOT_LINE
10
249.6569
20
46.1197
30
0.0
0
VERTEX
8
LOT_LINE
10
268.1182
20
-68.6854
30
0.0
0
VERTEX
8
LOT_LINE
10
263.5332
20
-71.1436
30
0.0
0
VERTEX
8
LOT_LINE
10
259.0237
20
-73.7379
30
0.0
0
VERTEX
8
LOT_LINE
10
254.5939
20
-76.4658
30
0.0
0
VERTEX
8
LOT_LINE
10
250.2476
20
-79.3251
30
0.0
0
VERTEX
8
LOT_LINE
10
245.9888
20
-82.3130
30
0.0
0
VERTEX
8
LOT_LINE
10
241.8212
20
-85.4270
30
0.0
0
VERTEX
8
LOT_LINE
10
237.7486
20
-88.6642
30
0.0
0
VERTEX
8
LOT_LINE
10
233.7747
20
-92.0217
30
0.0
0
VERTEX
8
LOT_LINE
10
229.9030
20
-95.4967
30
0.0
0
VERTEX
8
LOT_LINE
10
226.1369
20
-99.0858
30
0.0
0
VERTEX
8
LOT_LINE
10
222.4798
20
-102.7860
30
0.0
0
VERTEX
8
LOT_LINE
10
218.9351
20
-106.5939
30
0.0
0
VERTEX
8
LOT_LINE
10
215.5058
20
-110.5062
30
0.0
0
VERTEX
8
LOT_LINE
10
212.1951
20
-114.5192
30
0.0
0
VERTEX
8
LOT_LINE
10
209.0059
20
-118.6294
30
0.0
0
VERTEX
8
LOT_LINE
10
205.9410
20
-122.8333
30
0.0
0
SEQEND
0
ARC
8
CURVE
10
348.0007
20
-223.1860
30
0.0
40
173.9300
50
117.3406
51
144.7622
0
TEXT
8
TEXT-LABELS
7
STANDARD
10
227.5568
20
-25.3449
30
0.0
40
8.0
1
16
50
0.0
0
TEXT
8
DIM-LABELS
7
STANDARD
10
218.2003
20
41.5714
30
0.0
40
5.5
1
63.2'
50
0.0
0
TEXT
8
DIM-LABELS
7
STANDARD
10
255.4320
20
-11.8385
30
0.0
40
5.5
1
116.3'
50
0.0
0
TEXT
8
DIM-LABELS
7
STANDARD
10
234.7310
20
-93.1199
30
0.0
40
5.5
1
82.5'
50
0.0
0
TEXT
8
DIM-LABELS
7
STANDARD
10
199.7024
20
-39.0022
30
0.0
40
5.5
1
168.0'
50
0.0
0
POLYLINE
8
CURVE
66
1
70
0
0
VERTEX
8
CURVE
10
205.9410
20
-122.8333
30
0.0
0
VERTEX
8
CURVE
10
205.3915
20
-124.3077
30
0.0
0
VERTEX
8
CURVE
10
204.7504
20
-125.7446
30
0.0
0
VERTEX
8
CURVE
10
204.0201
20
-127.1384
30
0.0
0
VERTEX
8
CURVE
10
203.2036
20
-128.4835
30
0.0
0
VERTEX
8
CURVE
10
202.3042
20
-129.7745
30
0.0
0
VERTEX
8
CURVE
10
201.3252
20
-131.0064
30
0.0
0
VERTEX
8
CURVE
10
200.2708
20
-132.1743
30
0.0
0
VERTEX
8
CURVE
10
199.1449
20
-133.2735
30
0.0
0
VERTEX
8
CURVE
10
197.9521
20
-134.2998
30
0.0
0
VERTEX
8
CURVE
10
196.6971
20
-135.2489
30
0.0
0
VERTEX
8
CURVE
10
195.3849
20
-136.1173
30
0.0
0
VERTEX
8
CURVE
10
194.0207
20
-136.9013
30
0.0
0
VERTEX
8
CURVE
10
192.6099
20
-137.5980
30
0.0
0
VERTEX
8
CURVE
10
191.1580
20
-138.2046
30
0.0
0
VERTEX
8
CURVE
10
189.6708
20
-138.7186
30
0.0
0
VERTEX
8
CURVE
10
188.1543
20
-139.1380
30
0.0
0
SEQEND
0
POLYLINE
8
LOT_LINE
66
1
70
1
0
VERTEX
8
LOT_LINE
10
146.4780
20
49.8830
30
0.0
0
VERTEX
8
LOT_LINE
10
186.5109
20
44.0192
30
0.0
0
VERTEX
8
LOT_LINE
10
205.9410
20
-122.8333
30
0.0
0
VERTEX
8
LOT_LINE
10
205.3915
20
-124.3077
30
0.0
0
VERTEX
8
LOT_LINE
10
204.7504
20
-125.7446
30
0.0
0
VERTEX
8
LOT_LINE
10
204.0201
20
-127.1384
30
0.0
0
VERTEX
8
LOT_LINE
10
203.2036
20
-128.4835
30
0.0
0
VERTEX
8
LOT_LINE
10
202.3042
20
-129.7745
30
0.0
0
VERTEX
8
LOT_LINE
10
201.3252
20
-131.0064
30
0.0
0
VERTEX
8
LOT_LINE
10
200.2708
20
-132.1743
30
0.0
0
VERTEX
8
LOT_LINE
10
199.1449
20
-133.2735
30
0.0
0
VERTEX
8
LOT_LINE
10
197.9521
20
-134.2998
30
0.0
0
VERTEX
8
LOT_LINE
10
196.6971
20
-135.2489
30
0.0
0
VERTEX
8
LOT_LINE
10
195.3849
20
-136.1173
30
0.0
0
VERTEX
8
LOT_LINE
10
194.0207
20
-136.9013
30
0.0
0
VERTEX
8
LOT_LINE
10
192.6099
20
-137.5980
30
0.0
0
VERTEX
8
LOT_LINE
10
191.1580
20
-138.2046
30
0.0
0
VERTEX
8
LOT_LINE
10
189.6708
20
-138.7186
30
0.0
0
VERTEX
8
LOT_LINE
10
191.7792
20
-135.8151
30
0.0
0
VERTEX
8
LOT_LINE
10
89.7690
20
-63.5730
30
0.0
0
SEQEND
0
ARC
8
CURVE
10
183.2636
20
-112.3101
30
0.0
40
25.0000
50
289.9149
51
335.1070
0
TEXT
8
TEXT-LABELS
7
STANDARD
10
164.0956
20
-45.6638
30
0.0
40
8.0
1
17
50
0.0
0
TEXT
8
DIM-LABELS
7
STANDARD
10
165.9872
20
43.4881
30
0.0
40
5.5
1
40.5'
50
0.0
0
TEXT
8
DIM-LABELS
7
STANDARD
10
192.7494
20
-39.8119
30
0.0
40
5.5
1
168.0'
50
0.0
0
TEXT
8
DIM-LABELS
7
STANDARD
10
196.4950
20
-126.7442
30
0.0
40
5.5
1
19.2'
50
0.0
0
TEXT
8
DIM-LABELS
7
STANDARD
10
142.7968
20
-96.8378
30
0.0
40
5.5
1
125.0'
50
0.0
0
TEXT
8
DIM-LABELS
7
STANDARD
10
121.2542
20
-8.4099
30
0.0
40
5.5
1
126.8'
50
0.0
0
POLYLINE
8
LOT_LINE
66
1
70
1
0
VERTEX
8
LOT_LINE
10
45.7726
20
64.6337
30
0.0
0
VERTEX
8
LOT_LINE
10
146.4780
20
49.8830
30
0.0
0
VERTEX
8
LOT_LINE
10
89.7690
20
-63.5730
30
0.0
0
VERTEX
8
LOT_LINE
10
0.0000
20
0.0000
30
0.0
0
SEQEND
0
TEXT
8
TEXT-LABELS
7
STANDARD
10
70.5049
20
12.7359
30
0.0
40
8.0
1
18
50
0.0
0
TEXT
8
DIM-LABELS
7
STANDARD
10
95.6181
20
53.7953
30
0.0
40
5.5
1
101.8'
50
0.0
0
TEXT
8
DIM-LABELS
7
STANDARD
10
114.9928
20
-5.2802
30
0.0
40
5.5
1
126.8'
50
0.0
0
TEXT
8
DIM-LABELS
7
STANDARD
10
46.9073
20
-28.9302
30
0.0
40
5.5
1
110.0'
50
0.0
0
TEXT
8
DIM-LABELS
7
STANDARD
10
25.7426
20
30.2941
30
0.0
40
5.5
1
79.2'
50
0.0
0
LINE
8
RADIAL_LINE
10
124.4611
20
333.5652
30
0.0
11
-49.3153
21
340.8739
31
0.0
0
LINE
8
RADIAL_LINE
10
124.4611
20
333.5652
30
0.0
11
-68.6854
21
268.1182
31
0.0
0
LINE
8
RADIAL_LINE
10
124.4611
20
333.5652
30
0.0
11
-122.8333
21
205.9410
31
0.0
0
TEXT
8
TEXT-LABELS
7
STANDARD
10
124.4611
20
338.5652
30
0.0
40
3.0
1
RADIUS POINT (R=173.93')
50
0.0
0
POLYLINE
8
STREET_CL
66
1
70
0
0
VERTEX
8
STREET_CL
10
-79.2888
20
342.1345
30
0.0
0
VERTEX
8
STREET_CL
10
-79.6226
20
336.6723
30
0.0
0
VERTEX
8
STREET_CL
10
-80.1639
20
331.2267
30
0.0
0
VERTEX
8
STREET_CL
10
-80.9118
20
325.8057
30
0.0
0
VERTEX
8
STREET_CL
10
-81.8652
20
320.4170
30
0.0
0
VERTEX
8
STREET_CL
10
-83.0228
20
315.0684
30
0.0
0
VERTEX
8
STREET_CL
10
-84.3828
20
309.7677
30
0.0
0
VERTEX
8
STREET_CL
10
-85.9434
20
304.5226
30
0.0
0
VERTEX
8
STREET_CL
10
-87.7022
20
299.3405
30
0.0
0
VERTEX
8
STREET_CL
10
-89.6568
20
294.2291
30
0.0
0
VERTEX
8
STREET_CL
10
-91.8043
20
289.1956
30
0.0
0
VERTEX
8
STREET_CL
10
-94.1415
20
284.2475
30
0.0
0
VERTEX
8
STREET_CL
10
-96.6652
20
279.3917
30
0.0
0
VERTEX
8
STREET_CL
10
-99.3716
20
274.6354
30
0.0
0
VERTEX
8
STREET_CL
10
-102.2569
20
269.9854
30
0.0
0
VERTEX
8
STREET_CL
10
-105.3168
20
265.4485
30
0.0
0
VERTEX
8
STREET_CL
10
-108.5470
20
261.0312
30
0.0
0
VERTEX
8
STREET_CL
10
-111.9428
20
256.7398
30
0.0
0
VERTEX
8
STREET_CL
10
-115.4993
20
252.5807
30
0.0
0
VERTEX
8
STREET_CL
10
-119.2113
20
248.5597
30
0.0
0
VERTEX
8
STREET_CL
10
-123.0735
20
244.6828
30
0.0
0
VERTEX
8
STREET_CL
10
-127.0803
20
240.9555
30
0.0
0
VERTEX
8
STREET_CL
10
-131.2258
20
237.3831
30
0.0
0
VERTEX
8
STREET_CL
10
-135.5042
20
233.9710
30
0.0
0
VERTEX
8
STREET_CL
10
-139.9092
20
230.7240
30
0.0
0
SEQEND
0
TEXT
8
TITLEBLOCK
7
STANDARD
10
-40.0000
20
-50.0000
30
0.0
40
6.0
1
BEACHWOOD UNIT TWO -- BLOCK 15 (LOTS 15-18) CURVE AUDIT
50
0.0
0
TEXT
8
TITLEBLOCK
7
STANDARD
10
-50.0000
20
-50.0000
30
0.0
40
4.0
1
All 4 Lots 100% Survey-Grade Closed (0.0000 ft Misclose) | PB 30, Pages 82 & 82A
50
0.0
0
ENDSEC
0
EOF
