0
SECTION
2
HEADER
9
$ACADVER
1
AC1009
9
$DWGCODEPAGE
3
ANSI_1252
0
ENDSEC
0
SECTION
2
TABLES
0
TABLE
2
LTYPE
70
7
0
LTYPE
2
CONTINUOUS
70
0
3
Solid
72
65
73
0
40
0.0
0
LTYPE
2
DASHED
70
0
3
Dashed
72
65
73
2
40
0.75
49
0.5
74
0
49
-0.25
74
0
0
LTYPE
2
DASHED2
70
0
3
Dashed (.5x)
72
65
73
2
40
0.375
49
0.25
74
0
49
-0.125
74
0
0
LTYPE
2
HIDDEN
70
0
3
Hidden
72
65
73
2
40
0.375
49
0.25
74
0
49
-0.125
74
0
0
LTYPE
2
CENTER
70
0
3
Center
72
65
73
4
40
2.0
49
1.25
74
0
49
-0.25
74
0
49
0.25
74
0
49
-0.25
74
0
0
LTYPE
2
PHANTOM
70
0
3
Phantom
72
65
73
6
40
2.5
49
1.25
74
0
49
-0.25
74
0
49
0.25
74
0
49
-0.25
74
0
49
0.25
74
0
49
-0.25
74
0
0
LTYPE
2
ROT_90.00
70
0
3
Solid
72
65
73
0
40
0.0
0
ENDTAB
0
TABLE
2
LAYER
70
7
0
LAYER
2
0
70
0
62
7
6
CONTINUOUS
0
LAYER
2
BOUNDARY
70
0
62
7
6
CONTINUOUS
0
LAYER
2
LOT_LINES
70
0
62
4
6
CONTINUOUS
0
LAYER
2
ROW_STREET
70
0
62
2
6
DASHED
0
LAYER
2
DIMENSIONS
70
0
62
7
6
CONTINUOUS
0
LAYER
2
LOT_NUMBERS
70
0
62
7
6
CONTINUOUS
0
LAYER
2
CONTROL
70
0
62
1
6
CONTINUOUS
0
ENDTAB
0
TABLE
2
STYLE
70
4
0
STYLE
2
STANDARD
70
0
40
0.0
41
1.0
50
0.0
71
0
42
0.2
3
Arial
4

0
STYLE
2
ARIAL
70
0
40
0.0
41
1.0
50
0.0
71
0
42
0.2
3
Arial
4

0
STYLE
2
ARIAL_TTF
70
0
40
0.0
41
1.0
50
0.0
71
0
42
0.2
3
arial.ttf
4

0
STYLE
2
SIMPLEX
70
0
40
0.0
41
1.0
50
0.0
71
0
42
0.2
3
simplex.shx
4

0
ENDTAB
0
ENDSEC
0
SECTION
2
ENTITIES
0
LINE
8
ROW_STREET
10
524950.0000
20
2064962.5000
30
0.0
11
526050.0000
21
2064962.5000
31
0.0
0
TEXT
8
ROW_STREET
7
STANDARD
10
525500.0000
20
2064956.5000
30
0.0
40
8.0
1
BROADWAY
50
0.0
0
TEXT
8
ROW_STREET
7
STANDARD
10
525500.0000
20
2064968.5000
30
0.0
40
6.0
1
(75' RIGHT-OF-WAY)
50
0.0
0
LINE
8
ROW_STREET
10
525550.0000
20
2064900.0000
30
0.0
11
525550.0000
21
2065550.0000
31
0.0
0
TEXT
8
ROW_STREET
6
ROT_90.00
7
STANDARD
10
525556.0000
20
2065225.0000
30
0.0
40
8.0
1
ST. JOHNS BOULEVARD
50
90.0
0
TEXT
8
ROW_STREET
6
ROT_90.00
7
STANDARD
10
525544.0000
20
2065225.0000
30
0.0
40
6.0
1
(100' RIGHT-OF-WAY)
50
90.0
0
LINE
8
ROW_STREET
10
524950.0000
20
2065460.6000
30
0.0
11
525550.0000
21
2065460.6000
31
0.0
0
TEXT
8
ROW_STREET
7
STANDARD
10
525250.0000
20
2065454.6000
30
0.0
40
6.0
1
FIRST STREET
50
0.0
0
TEXT
8
ROW_STREET
7
STANDARD
10
525250.0000
20
2065466.6000
30
0.0
40
4.5
1
(50' RIGHT-OF-WAY)
50
0.0
0
POLYLINE
8
LOT_LINES
66
1
70
1
0
VERTEX
8
LOT_LINES
10
525000.0000
20
2065000.0000
30
0.0
0
VERTEX
8
LOT_LINES
10
525100.0000
20
2065000.0000
30
0.0
0
VERTEX
8
LOT_LINES
10
525100.0000
20
2065217.8000
30
0.0
0
VERTEX
8
LOT_LINES
10
525000.0000
20
2065217.8000
30
0.0
0
SEQEND
0
LINE
8
LOT_LINES
10
525000.0000
20
2065000.0000
30
0.0
11
525100.0000
21
2065000.0000
31
0.0
0
TEXT
8
DIMENSIONS
7
STANDARD
10
525050.0000
20
2064998.2000
30
0.0
40
3.5
1
EAST
50
0.0
0
TEXT
8
DIMENSIONS
7
STANDARD
10
525050.0000
20
2065001.8000
30
0.0
40
3.22
1
100.00'
50
0.0
0
LINE
8
LOT_LINES
10
525000.0000
20
2065001.7500
30
0.0
11
525000.0000
21
2064998.2500
31
0.0
0
LINE
8
LOT_LINES
10
525100.0000
20
2065001.7500
30
0.0
11
525100.0000
21
2064998.2500
31
0.0
0
TEXT
8
LOT_NUMBERS
7
STANDARD
10
525039.6000
20
2065105.7000
30
0.0
40
8.0
1
1
50
0.0
0
TEXT
8
DIMENSIONS
7
STANDARD
10
525039.6000
20
2065100.1000
30
0.0
40
3.6
1
21,780 SF
50
0.0
0
POLYLINE
8
LOT_LINES
66
1
70
1
0
VERTEX
8
LOT_LINES
10
525100.0000
20
2065000.0000
30
0.0
0
VERTEX
8
LOT_LINES
10
525200.0000
20
2065000.0000
30
0.0
0
VERTEX
8
LOT_LINES
10
525200.0000
20
2065217.8000
30
0.0
0
VERTEX
8
LOT_LINES
10
525100.0000
20
2065217.8000
30
0.0
0
SEQEND
0
LINE
8
LOT_LINES
10
525100.0000
20
2065000.0000
30
0.0
11
525200.0000
21
2065000.0000
31
0.0
0
TEXT
8
DIMENSIONS
7
STANDARD
10
525150.0000
20
2064998.2000
30
0.0
40
3.5
1
EAST
50
0.0
0
TEXT
8
DIMENSIONS
7
STANDARD
10
525150.0000
20
2065001.8000
30
0.0
40
3.22
1
100.00'
50
0.0
0
LINE
8
LOT_LINES
10
525100.0000
20
2065001.7500
30
0.0
11
525100.0000
21
2064998.2500
31
0.0
0
LINE
8
LOT_LINES
10
525200.0000
20
2065001.7500
30
0.0
11
525200.0000
21
2064998.2500
31
0.0
0
TEXT
8
LOT_NUMBERS
7
STANDARD
10
525139.6000
20
2065105.7000
30
0.0
40
8.0
1
2
50
0.0
0
TEXT
8
DIMENSIONS
7
STANDARD
10
525139.6000
20
2065100.1000
30
0.0
40
3.6
1
21,780 SF
50
0.0
0
POLYLINE
8
LOT_LINES
66
1
70
1
0
VERTEX
8
LOT_LINES
10
525200.0000
20
2065000.0000
30
0.0
0
VERTEX
8
LOT_LINES
10
525300.0000
20
2065000.0000
30
0.0
0
VERTEX
8
LOT_LINES
10
525300.0000
20
2065217.8000
30
0.0
0
VERTEX
8
LOT_LINES
10
525200.0000
20
2065217.8000
30
0.0
0
SEQEND
0
LINE
8
LOT_LINES
10
525200.0000
20
2065000.0000
30
0.0
11
525300.0000
21
2065000.0000
31
0.0
0
TEXT
8
DIMENSIONS
7
STANDARD
10
525250.0000
20
2064998.2000
30
0.0
40
3.5
1
EAST
50
0.0
0
TEXT
8
DIMENSIONS
7
STANDARD
10
525250.0000
20
2065001.8000
30
0.0
40
3.22
1
100.00'
50
0.0
0
LINE
8
LOT_LINES
10
525200.0000
20
2065001.7500
30
0.0
11
525200.0000
21
2064998.2500
31
0.0
0
LINE
8
LOT_LINES
10
525300.0000
20
2065001.7500
30
0.0
11
525300.0000
21
2064998.2500
31
0.0
0
TEXT
8
LOT_NUMBERS
7
STANDARD
10
525239.6000
20
2065105.7000
30
0.0
40
8.0
1
3
50
0.0
0
TEXT
8
DIMENSIONS
7
STANDARD
10
525239.6000
20
2065100.1000
30
0.0
40
3.6
1
21,780 SF
50
0.0
0
POLYLINE
8
LOT_LINES
66
1
70
1
0
VERTEX
8
LOT_LINES
10
525300.0000
20
2065000.0000
30
0.0
0
VERTEX
8
LOT_LINES
10
525400.0000
20
2065000.0000
30
0.0
0
VERTEX
8
LOT_LINES
10
525400.0000
20
2065217.8000
30
0.0
0
VERTEX
8
LOT_LINES
10
525300.0000
20
2065217.8000
30
0.0
0
SEQEND
0
LINE
8
LOT_LINES
10
525300.0000
20
2065000.0000
30
0.0
11
525400.0000
21
2065000.0000
31
0.0
0
TEXT
8
DIMENSIONS
7
STANDARD
10
525350.0000
20
2064998.2000
30
0.0
40
3.5
1
EAST
50
0.0
0
TEXT
8
DIMENSIONS
7
STANDARD
10
525350.0000
20
2065001.8000
30
0.0
40
3.22
1
100.00'
50
0.0
0
LINE
8
LOT_LINES
10
525300.0000
20
2065001.7500
30
0.0
11
525300.0000
21
2064998.2500
31
0.0
0
LINE
8
LOT_LINES
10
525400.0000
20
2065001.7500
30
0.0
11
525400.0000
21
2064998.2500
31
0.0
0
TEXT
8
LOT_NUMBERS
7
STANDARD
10
525339.6000
20
2065105.7000
30
0.0
40
8.0
1
4
50
0.0
0
TEXT
8
DIMENSIONS
7
STANDARD
10
525339.6000
20
2065100.1000
30
0.0
40
3.6
1
21,780 SF
50
0.0
0
POLYLINE
8
LOT_LINES
66
1
70
1
0
VERTEX
8
LOT_LINES
10
525400.0000
20
2065000.0000
30
0.0
0
VERTEX
8
LOT_LINES
10
525500.0000
20
2065000.0000
30
0.0
0
VERTEX
8
LOT_LINES
10
525500.0000
20
2065217.8000
30
0.0
0
VERTEX
8
LOT_LINES
10
525400.0000
20
2065217.8000
30
0.0
0
SEQEND
0
LINE
8
LOT_LINES
10
525400.0000
20
2065000.0000
30
0.0
11
525500.0000
21
2065000.0000
31
0.0
0
TEXT
8
DIMENSIONS
7
STANDARD
10
525450.0000
20
2064998.2000
30
0.0
40
3.5
1
EAST
50
0.0
0
TEXT
8
DIMENSIONS
7
STANDARD
10
525450.0000
20
2065001.8000
30
0.0
40
3.22
1
100.00'
50
0.0
0
LINE
8
LOT_LINES
10
525400.0000
20
2065001.7500
30
0.0
11
525400.0000
21
2064998.2500
31
0.0
0
LINE
8
LOT_LINES
10
525500.0000
20
2065001.7500
30
0.0
11
525500.0000
21
2064998.2500
31
0.0
0
TEXT
8
LOT_NUMBERS
7
STANDARD
10
525439.6000
20
2065105.7000
30
0.0
40
8.0
1
5
50
0.0
0
TEXT
8
DIMENSIONS
7
STANDARD
10
525439.6000
20
2065100.1000
30
0.0
40
3.6
1
21,780 SF
50
0.0
0
POLYLINE
8
LOT_LINES
66
1
70
1
0
VERTEX
8
LOT_LINES
10
525400.0000
20
2065217.8000
30
0.0
0
VERTEX
8
LOT_LINES
10
525500.0000
20
2065217.8000
30
0.0
0
VERTEX
8
LOT_LINES
10
525500.0000
20
2065435.6000
30
0.0
0
VERTEX
8
LOT_LINES
10
525400.0000
20
2065435.6000
30
0.0
0
SEQEND
0
LINE
8
LOT_LINES
10
525400.0000
20
2065217.8000
30
0.0
11
525500.0000
21
2065217.8000
31
0.0
0
TEXT
8
DIMENSIONS
7
STANDARD
10
525450.0000
20
2065216.0000
30
0.0
40
3.5
1
EAST
50
0.0
0
TEXT
8
DIMENSIONS
7
STANDARD
10
525450.0000
20
2065219.6000
30
0.0
40
3.22
1
100.00'
50
0.0
0
LINE
8
LOT_LINES
10
525400.0000
20
2065219.5500
30
0.0
11
525400.0000
21
2065216.0500
31
0.0
0
LINE
8
LOT_LINES
10
525500.0000
20
2065219.5500
30
0.0
11
525500.0000
21
2065216.0500
31
0.0
0
TEXT
8
LOT_NUMBERS
7
STANDARD
10
525439.6000
20
2065323.5000
30
0.0
40
8.0
1
6
50
0.0
0
TEXT
8
DIMENSIONS
7
STANDARD
10
525439.6000
20
2065317.9000
30
0.0
40
3.6
1
21,780 SF
50
0.0
0
POLYLINE
8
LOT_LINES
66
1
70
1
0
VERTEX
8
LOT_LINES
10
525300.0000
20
2065217.8000
30
0.0
0
VERTEX
8
LOT_LINES
10
525400.0000
20
2065217.8000
30
0.0
0
VERTEX
8
LOT_LINES
10
525400.0000
20
2065435.6000
30
0.0
0
VERTEX
8
LOT_LINES
10
525300.0000
20
2065435.6000
30
0.0
0
SEQEND
0
LINE
8
LOT_LINES
10
525300.0000
20
2065217.8000
30
0.0
11
525400.0000
21
2065217.8000
31
0.0
0
TEXT
8
DIMENSIONS
7
STANDARD
10
525350.0000
20
2065216.0000
30
0.0
40
3.5
1
EAST
50
0.0
0
TEXT
8
DIMENSIONS
7
STANDARD
10
525350.0000
20
2065219.6000
30
0.0
40
3.22
1
100.00'
50
0.0
0
LINE
8
LOT_LINES
10
525300.0000
20
2065219.5500
30
0.0
11
525300.0000
21
2065216.0500
31
0.0
0
LINE
8
LOT_LINES
10
525400.0000
20
2065219.5500
30
0.0
11
525400.0000
21
2065216.0500
31
0.0
0
TEXT
8
LOT_NUMBERS
7
STANDARD
10
525339.6000
20
2065323.5000
30
0.0
40
8.0
1
7
50
0.0
0
TEXT
8
DIMENSIONS
7
STANDARD
10
525339.6000
20
2065317.9000
30
0.0
40
3.6
1
21,780 SF
50
0.0
0
POLYLINE
8
LOT_LINES
66
1
70
1
0
VERTEX
8
LOT_LINES
10
525200.0000
20
2065217.8000
30
0.0
0
VERTEX
8
LOT_LINES
10
525300.0000
20
2065217.8000
30
0.0
0
VERTEX
8
LOT_LINES
10
525300.0000
20
2065435.6000
30
0.0
0
VERTEX
8
LOT_LINES
10
525200.0000
20
2065435.6000
30
0.0
0
SEQEND
0
LINE
8
LOT_LINES
10
525200.0000
20
2065217.8000
30
0.0
11
525300.0000
21
2065217.8000
31
0.0
0
TEXT
8
DIMENSIONS
7
STANDARD
10
525250.0000
20
2065216.0000
30
0.0
40
3.5
1
EAST
50
0.0
0
TEXT
8
DIMENSIONS
7
STANDARD
10
525250.0000
20
2065219.6000
30
0.0
40
3.22
1
100.00'
50
0.0
0
LINE
8
LOT_LINES
10
525200.0000
20
2065219.5500
30
0.0
11
525200.0000
21
2065216.0500
31
0.0
0
LINE
8
LOT_LINES
10
525300.0000
20
2065219.5500
30
0.0
11
525300.0000
21
2065216.0500
31
0.0
0
TEXT
8
LOT_NUMBERS
7
STANDARD
10
525239.6000
20
2065323.5000
30
0.0
40
8.0
1
8
50
0.0
0
TEXT
8
DIMENSIONS
7
STANDARD
10
525239.6000
20
2065317.9000
30
0.0
40
3.6
1
21,780 SF
50
0.0
0
POLYLINE
8
LOT_LINES
66
1
70
1
0
VERTEX
8
LOT_LINES
10
525100.0000
20
2065217.8000
30
0.0
0
VERTEX
8
LOT_LINES
10
525200.0000
20
2065217.8000
30
0.0
0
VERTEX
8
LOT_LINES
10
525200.0000
20
2065435.6000
30
0.0
0
VERTEX
8
LOT_LINES
10
525100.0000
20
2065435.6000
30
0.0
0
SEQEND
0
LINE
8
LOT_LINES
10
525100.0000
20
2065217.8000
30
0.0
11
525200.0000
21
2065217.8000
31
0.0
0
TEXT
8
DIMENSIONS
7
STANDARD
10
525150.0000
20
2065216.0000
30
0.0
40
3.5
1
EAST
50
0.0
0
TEXT
8
DIMENSIONS
7
STANDARD
10
525150.0000
20
2065219.6000
30
0.0
40
3.22
1
100.00'
50
0.0
0
LINE
8
LOT_LINES
10
525100.0000
20
2065219.5500
30
0.0
11
525100.0000
21
2065216.0500
31
0.0
0
LINE
8
LOT_LINES
10
525200.0000
20
2065219.5500
30
0.0
11
525200.0000
21
2065216.0500
31
0.0
0
TEXT
8
LOT_NUMBERS
7
STANDARD
10
525139.6000
20
2065323.5000
30
0.0
40
8.0
1
9
50
0.0
0
TEXT
8
DIMENSIONS
7
STANDARD
10
525139.6000
20
2065317.9000
30
0.0
40
3.6
1
21,780 SF
50
0.0
0
POLYLINE
8
LOT_LINES
66
1
70
1
0
VERTEX
8
LOT_LINES
10
525000.0000
20
2065217.8000
30
0.0
0
VERTEX
8
LOT_LINES
10
525100.0000
20
2065217.8000
30
0.0
0
VERTEX
8
LOT_LINES
10
525100.0000
20
2065435.6000
30
0.0
0
VERTEX
8
LOT_LINES
10
525000.0000
20
2065435.6000
30
0.0
0
SEQEND
0
LINE
8
LOT_LINES
10
525000.0000
20
2065217.8000
30
0.0
11
525100.0000
21
2065217.8000
31
0.0
0
TEXT
8
DIMENSIONS
7
STANDARD
10
525050.0000
20
2065216.0000
30
0.0
40
3.5
1
EAST
50
0.0
0
TEXT
8
DIMENSIONS
7
STANDARD
10
525050.0000
20
2065219.6000
30
0.0
40
3.22
1
100.00'
50
0.0
0
LINE
8
LOT_LINES
10
525000.0000
20
2065219.5500
30
0.0
11
525000.0000
21
2065216.0500
31
0.0
0
LINE
8
LOT_LINES
10
525100.0000
20
2065219.5500
30
0.0
11
525100.0000
21
2065216.0500
31
0.0
0
TEXT
8
LOT_NUMBERS
7
STANDARD
10
525039.6000
20
2065323.5000
30
0.0
40
8.0
1
10
50
0.0
0
TEXT
8
DIMENSIONS
7
STANDARD
10
525039.6000
20
2065317.9000
30
0.0
40
3.6
1
21,780 SF
50
0.0
0
POLYLINE
8
LOT_LINES
66
1
70
1
0
VERTEX
8
LOT_LINES
10
525600.0000
20
2065000.0000
30
0.0
0
VERTEX
8
LOT_LINES
10
525700.0000
20
2065000.0000
30
0.0
0
VERTEX
8
LOT_LINES
10
525700.0000
20
2065435.6000
30
0.0
0
VERTEX
8
LOT_LINES
10
525600.0000
20
2065435.6000
30
0.0
0
SEQEND
0
LINE
8
LOT_LINES
10
525600.0000
20
2065000.0000
30
0.0
11
525700.0000
21
2065000.0000
31
0.0
0
TEXT
8
DIMENSIONS
7
STANDARD
10
525650.0000
20
2064998.2000
30
0.0
40
3.5
1
EAST
50
0.0
0
TEXT
8
DIMENSIONS
7
STANDARD
10
525650.0000
20
2065001.8000
30
0.0
40
3.22
1
100.00'
50
0.0
0
LINE
8
LOT_LINES
10
525600.0000
20
2065001.7500
30
0.0
11
525600.0000
21
2064998.2500
31
0.0
0
LINE
8
LOT_LINES
10
525700.0000
20
2065001.7500
30
0.0
11
525700.0000
21
2064998.2500
31
0.0
0
TEXT
8
LOT_NUMBERS
7
STANDARD
10
525639.6000
20
2065214.6000
30
0.0
40
8.0
1
11
50
0.0
0
TEXT
8
DIMENSIONS
7
STANDARD
10
525639.6000
20
2065209.0000
30
0.0
40
3.6
1
43,560 SF
50
0.0
0
POLYLINE
8
LOT_LINES
66
1
70
1
0
VERTEX
8
LOT_LINES
10
525700.0000
20
2065000.0000
30
0.0
0
VERTEX
8
LOT_LINES
10
525800.0000
20
2065000.0000
30
0.0
0
VERTEX
8
LOT_LINES
10
525800.0000
20
2065435.6000
30
0.0
0
VERTEX
8
LOT_LINES
10
525700.0000
20
2065435.6000
30
0.0
0
SEQEND
0
LINE
8
LOT_LINES
10
525700.0000
20
2065000.0000
30
0.0
11
525800.0000
21
2065000.0000
31
0.0
0
TEXT
8
DIMENSIONS
7
STANDARD
10
525750.0000
20
2064998.2000
30
0.0
40
3.5
1
EAST
50
0.0
0
TEXT
8
DIMENSIONS
7
STANDARD
10
525750.0000
20
2065001.8000
30
0.0
40
3.22
1
100.00'
50
0.0
0
LINE
8
LOT_LINES
10
525700.0000
20
2065001.7500
30
0.0
11
525700.0000
21
2064998.2500
31
0.0
0
LINE
8
LOT_LINES
10
525800.0000
20
2065001.7500
30
0.0
11
525800.0000
21
2064998.2500
31
0.0
0
TEXT
8
LOT_NUMBERS
7
STANDARD
10
525739.6000
20
2065214.6000
30
0.0
40
8.0
1
12
50
0.0
0
TEXT
8
DIMENSIONS
7
STANDARD
10
525739.6000
20
2065209.0000
30
0.0
40
3.6
1
43,560 SF
50
0.0
0
POLYLINE
8
LOT_LINES
66
1
70
1
0
VERTEX
8
LOT_LINES
10
525800.0000
20
2065000.0000
30
0.0
0
VERTEX
8
LOT_LINES
10
525900.0000
20
2065000.0000
30
0.0
0
VERTEX
8
LOT_LINES
10
525900.0000
20
2065435.6000
30
0.0
0
VERTEX
8
LOT_LINES
10
525800.0000
20
2065435.6000
30
0.0
0
SEQEND
0
LINE
8
LOT_LINES
10
525800.0000
20
2065000.0000
30
0.0
11
525900.0000
21
2065000.0000
31
0.0
0
TEXT
8
DIMENSIONS
7
STANDARD
10
525850.0000
20
2064998.2000
30
0.0
40
3.5
1
EAST
50
0.0
0
TEXT
8
DIMENSIONS
7
STANDARD
10
525850.0000
20
2065001.8000
30
0.0
40
3.22
1
100.00'
50
0.0
0
LINE
8
LOT_LINES
10
525800.0000
20
2065001.7500
30
0.0
11
525800.0000
21
2064998.2500
31
0.0
0
LINE
8
LOT_LINES
10
525900.0000
20
2065001.7500
30
0.0
11
525900.0000
21
2064998.2500
31
0.0
0
TEXT
8
LOT_NUMBERS
7
STANDARD
10
525839.6000
20
2065214.6000
30
0.0
40
8.0
1
13
50
0.0
0
TEXT
8
DIMENSIONS
7
STANDARD
10
525839.6000
20
2065209.0000
30
0.0
40
3.6
1
43,560 SF
50
0.0
0
POLYLINE
8
LOT_LINES
66
1
70
1
0
VERTEX
8
LOT_LINES
10
525900.0000
20
2065000.0000
30
0.0
0
VERTEX
8
LOT_LINES
10
526000.0000
20
2065000.0000
30
0.0
0
VERTEX
8
LOT_LINES
10
526000.0000
20
2065435.6000
30
0.0
0
VERTEX
8
LOT_LINES
10
525900.0000
20
2065435.6000
30
0.0
0
SEQEND
0
LINE
8
LOT_LINES
10
525900.0000
20
2065000.0000
30
0.0
11
526000.0000
21
2065000.0000
31
0.0
0
TEXT
8
DIMENSIONS
7
STANDARD
10
525950.0000
20
2064998.2000
30
0.0
40
3.5
1
EAST
50
0.0
0
TEXT
8
DIMENSIONS
7
STANDARD
10
525950.0000
20
2065001.8000
30
0.0
40
3.22
1
100.00'
50
0.0
0
LINE
8
LOT_LINES
10
525900.0000
20
2065001.7500
30
0.0
11
525900.0000
21
2064998.2500
31
0.0
0
LINE
8
LOT_LINES
10
526000.0000
20
2065001.7500
30
0.0
11
526000.0000
21
2064998.2500
31
0.0
0
TEXT
8
LOT_NUMBERS
7
STANDARD
10
525939.6000
20
2065214.6000
30
0.0
40
8.0
1
14
50
0.0
0
TEXT
8
DIMENSIONS
7
STANDARD
10
525939.6000
20
2065209.0000
30
0.0
40
3.6
1
43,560 SF
50
0.0
0
POINT
8
CONTROL
10
525000.0000
20
2065000.0000
30
0.0
0
TEXT
8
CONTROL
7
STANDARD
10
525010.0000
20
2064985.0000
30
0.0
40
6.0
1
GROUND TIE: Kavie Ct & Industrial Park Rd (29.949625 N, -81.691813 W) [ZERO FUDGING]
50
0.0
0
TEXT
8
BOUNDARY
7
STANDARD
10
525000.0000
20
2064920.0000
30
0.0
40
12.0
1
MAP OF GRANADA -- PLAT BOOK 1, PAGE 1
50
0.0
0
TEXT
8
BOUNDARY
7
STANDARD
10
525000.0000
20
2064900.0000
30
0.0
40
8.0
1
CLAY COUNTY PUBLIC RECORDS -- SURVEY GRADE COGO (EPSG:2236)
50
0.0
0
ENDSEC
0
EOF
