0
SECTION
2
HEADER
9
$ACADVER
1
AC1009
9
$DWGCODEPAGE
3
ANSI_1252
0
ENDSEC
0
SECTION
2
TABLES
0
TABLE
2
LTYPE
70
7
0
LTYPE
2
CONTINUOUS
70
0
3
Solid
72
65
73
0
40
0.0
0
LTYPE
2
DASHED
70
0
3
Dashed
72
65
73
2
40
0.75
49
0.5
74
0
49
-0.25
74
0
0
LTYPE
2
DASHED2
70
0
3
Dashed (.5x)
72
65
73
2
40
0.375
49
0.25
74
0
49
-0.125
74
0
0
LTYPE
2
HIDDEN
70
0
3
Hidden
72
65
73
2
40
0.375
49
0.25
74
0
49
-0.125
74
0
0
LTYPE
2
CENTER
70
0
3
Center
72
65
73
4
40
2.0
49
1.25
74
0
49
-0.25
74
0
49
0.25
74
0
49
-0.25
74
0
0
LTYPE
2
PHANTOM
70
0
3
Phantom
72
65
73
6
40
2.5
49
1.25
74
0
49
-0.25
74
0
49
0.25
74
0
49
-0.25
74
0
49
0.25
74
0
49
-0.25
74
0
0
LTYPE
2
ROT_90.00
70
0
3
Solid
72
65
73
0
40
0.0
0
ENDTAB
0
TABLE
2
LAYER
70
15
0
LAYER
2
0
70
0
62
7
6
CONTINUOUS
0
LAYER
2
LOT_LINE
70
0
62
4
6
CONTINUOUS
0
LAYER
2
CURVE
70
0
62
6
6
CONTINUOUS
0
LAYER
2
RADIAL_LINE
70
0
62
1
6
DASHED
0
LAYER
2
BOUNDARY
70
0
62
7
6
CONTINUOUS
0
LAYER
2
MONUMENT
70
0
62
2
6
CONTINUOUS
0
LAYER
2
ROW_STREET
70
0
62
2
6
CONTINUOUS
0
LAYER
2
STREET_CL
70
0
62
2
6
DASHDOT
0
LAYER
2
BLOCK_CL
70
0
62
2
6
DASHDOT
0
LAYER
2
EASEMENT
70
0
62
3
6
DASHED
0
LAYER
2
TEXT-LABELS
70
0
62
7
6
CONTINUOUS
0
LAYER
2
DIM-LABELS
70
0
62
3
6
CONTINUOUS
0
LAYER
2
TABLE_FRAME
70
0
62
7
6
CONTINUOUS
0
LAYER
2
TABLE_TEXT
70
0
62
4
6
CONTINUOUS
0
LAYER
2
TITLEBLOCK
70
0
62
2
6
CONTINUOUS
0
ENDTAB
0
TABLE
2
STYLE
70
4
0
STYLE
2
STANDARD
70
0
40
0.0
41
1.0
50
0.0
71
0
42
0.2
3
Arial
4

0
STYLE
2
ARIAL
70
0
40
0.0
41
1.0
50
0.0
71
0
42
0.2
3
Arial
4

0
STYLE
2
ARIAL_TTF
70
0
40
0.0
41
1.0
50
0.0
71
0
42
0.2
3
arial.ttf
4

0
STYLE
2
SIMPLEX
70
0
40
0.0
41
1.0
50
0.0
71
0
42
0.2
3
simplex.shx
4

0
ENDTAB
0
ENDSEC
0
SECTION
2
ENTITIES
0
POLYLINE
8
CURVE
66
1
70
0
0
VERTEX
8
CURVE
10
996.8484
20
1074.9338
30
0.0
0
VERTEX
8
CURVE
10
996.8657
20
1077.3871
30
0.0
0
VERTEX
8
CURVE
10
997.1234
20
1079.8269
30
0.0
0
VERTEX
8
CURVE
10
997.6190
20
1082.2297
30
0.0
0
VERTEX
8
CURVE
10
998.3477
20
1084.5724
30
0.0
0
VERTEX
8
CURVE
10
999.3026
20
1086.8323
30
0.0
0
VERTEX
8
CURVE
10
1000.4743
20
1088.9878
30
0.0
0
VERTEX
8
CURVE
10
1001.8517
20
1091.0180
30
0.0
0
VERTEX
8
CURVE
10
1003.4215
20
1092.9035
30
0.0
0
VERTEX
8
CURVE
10
1005.1685
20
1094.6260
30
0.0
0
VERTEX
8
CURVE
10
1007.0759
20
1096.1690
30
0.0
0
VERTEX
8
CURVE
10
1009.1254
20
1097.5176
30
0.0
0
VERTEX
8
CURVE
10
1011.2972
20
1098.6588
30
0.0
0
VERTEX
8
CURVE
10
1013.5703
20
1099.5817
30
0.0
0
VERTEX
8
CURVE
10
1015.9231
20
1100.2773
30
0.0
0
VERTEX
8
CURVE
10
1018.3326
20
1100.7390
30
0.0
0
VERTEX
8
CURVE
10
1020.7758
20
1100.9622
30
0.0
0
SEQEND
0
POLYLINE
8
LOT_LINE
66
1
70
1
0
VERTEX
8
LOT_LINE
10
1000.0000
20
1000.0000
30
0.0
0
VERTEX
8
LOT_LINE
10
996.8484
20
1074.9338
30
0.0
0
VERTEX
8
LOT_LINE
10
996.8657
20
1077.3871
30
0.0
0
VERTEX
8
LOT_LINE
10
997.1234
20
1079.8269
30
0.0
0
VERTEX
8
LOT_LINE
10
997.6190
20
1082.2297
30
0.0
0
VERTEX
8
LOT_LINE
10
998.3477
20
1084.5724
30
0.0
0
VERTEX
8
LOT_LINE
10
999.3026
20
1086.8323
30
0.0
0
VERTEX
8
LOT_LINE
10
1000.4743
20
1088.9878
30
0.0
0
VERTEX
8
LOT_LINE
10
1001.8517
20
1091.0180
30
0.0
0
VERTEX
8
LOT_LINE
10
1003.4215
20
1092.9035
30
0.0
0
VERTEX
8
LOT_LINE
10
1005.1685
20
1094.6260
30
0.0
0
VERTEX
8
LOT_LINE
10
1007.0759
20
1096.1690
30
0.0
0
VERTEX
8
LOT_LINE
10
1009.1254
20
1097.5176
30
0.0
0
VERTEX
8
LOT_LINE
10
1011.2972
20
1098.6588
30
0.0
0
VERTEX
8
LOT_LINE
10
1013.5703
20
1099.5817
30
0.0
0
VERTEX
8
LOT_LINE
10
1015.9231
20
1100.2773
30
0.0
0
VERTEX
8
LOT_LINE
10
1018.3326
20
1100.7390
30
0.0
0
VERTEX
8
LOT_LINE
10
1020.7758
20
1100.9622
30
0.0
0
VERTEX
8
LOT_LINE
10
1089.2153
20
1103.8406
30
0.0
0
VERTEX
8
LOT_LINE
10
1093.4174
20
1003.9290
30
0.0
0
SEQEND
0
TEXT
8
TEXT-LABELS
7
STANDARD
10
1013.7878
20
1082.7496
30
0.0
40
4.5
1
LOT 1
50
0.0
72
1
11
1013.7878
21
1082.7496
31
0.0
73
2
0
POLYLINE
8
LOT_LINE
66
1
70
1
0
VERTEX
8
LOT_LINE
10
1093.4174
20
1003.9290
30
0.0
0
VERTEX
8
LOT_LINE
10
1089.2153
20
1103.8406
30
0.0
0
VERTEX
8
LOT_LINE
10
1164.1491
20
1106.9922
30
0.0
0
VERTEX
8
LOT_LINE
10
1168.3512
20
1007.0805
30
0.0
0
SEQEND
0
TEXT
8
TEXT-LABELS
7
STANDARD
10
1128.7832
20
1055.4606
30
0.0
40
4.5
1
LOT 2
50
0.0
72
1
11
1128.7832
21
1055.4606
31
0.0
73
2
0
POLYLINE
8
LOT_LINE
66
1
70
1
0
VERTEX
8
LOT_LINE
10
1168.3512
20
1007.0805
30
0.0
0
VERTEX
8
LOT_LINE
10
1164.1491
20
1106.9922
30
0.0
0
VERTEX
8
LOT_LINE
10
1239.0828
20
1110.1438
30
0.0
0
VERTEX
8
LOT_LINE
10
1243.2849
20
1010.2321
30
0.0
0
SEQEND
0
TEXT
8
TEXT-LABELS
7
STANDARD
10
1203.7170
20
1058.6122
30
0.0
40
4.5
1
LOT 3
50
0.0
72
1
11
1203.7170
21
1058.6122
31
0.0
73
2
0
POLYLINE
8
LOT_LINE
66
1
70
1
0
VERTEX
8
LOT_LINE
10
1243.2849
20
1010.2321
30
0.0
0
VERTEX
8
LOT_LINE
10
1239.0828
20
1110.1438
30
0.0
0
VERTEX
8
LOT_LINE
10
1314.0166
20
1113.2954
30
0.0
0
VERTEX
8
LOT_LINE
10
1318.2187
20
1013.3837
30
0.0
0
SEQEND
0
TEXT
8
TEXT-LABELS
7
STANDARD
10
1278.6508
20
1061.7637
30
0.0
40
4.5
1
LOT 4
50
0.0
72
1
11
1278.6508
21
1061.7637
31
0.0
73
2
0
POLYLINE
8
LOT_LINE
66
1
70
1
0
VERTEX
8
LOT_LINE
10
1318.2187
20
1013.3837
30
0.0
0
VERTEX
8
LOT_LINE
10
1314.0166
20
1113.2954
30
0.0
0
VERTEX
8
LOT_LINE
10
1388.9503
20
1116.4469
30
0.0
0
VERTEX
8
LOT_LINE
10
1393.1524
20
1016.5353
30
0.0
0
SEQEND
0
TEXT
8
TEXT-LABELS
7
STANDARD
10
1353.5845
20
1064.9153
30
0.0
40
4.5
1
LOT 5
50
0.0
72
1
11
1353.5845
21
1064.9153
31
0.0
73
2
0
POLYLINE
8
LOT_LINE
66
1
70
1
0
VERTEX
8
LOT_LINE
10
1393.1524
20
1016.5353
30
0.0
0
VERTEX
8
LOT_LINE
10
1388.9503
20
1116.4469
30
0.0
0
VERTEX
8
LOT_LINE
10
1463.8841
20
1119.5985
30
0.0
0
VERTEX
8
LOT_LINE
10
1468.0862
20
1019.6868
30
0.0
0
SEQEND
0
TEXT
8
TEXT-LABELS
7
STANDARD
10
1428.5183
20
1068.0669
30
0.0
40
4.5
1
LOT 6
50
0.0
72
1
11
1428.5183
21
1068.0669
31
0.0
73
2
0
POLYLINE
8
LOT_LINE
66
1
70
1
0
VERTEX
8
LOT_LINE
10
1468.0862
20
1019.6868
30
0.0
0
VERTEX
8
LOT_LINE
10
1463.8841
20
1119.5985
30
0.0
0
VERTEX
8
LOT_LINE
10
1538.8178
20
1122.7501
30
0.0
0
VERTEX
8
LOT_LINE
10
1543.0199
20
1022.8384
30
0.0
0
SEQEND
0
TEXT
8
TEXT-LABELS
7
STANDARD
10
1503.4520
20
1071.2184
30
0.0
40
4.5
1
LOT 7
50
0.0
72
1
11
1503.4520
21
1071.2184
31
0.0
73
2
0
POLYLINE
8
LOT_LINE
66
1
70
1
0
VERTEX
8
LOT_LINE
10
1543.0199
20
1022.8384
30
0.0
0
VERTEX
8
LOT_LINE
10
1538.8178
20
1122.7501
30
0.0
0
VERTEX
8
LOT_LINE
10
1613.7516
20
1125.9016
30
0.0
0
VERTEX
8
LOT_LINE
10
1617.9537
20
1025.9900
30
0.0
0
SEQEND
0
TEXT
8
TEXT-LABELS
7
STANDARD
10
1578.3858
20
1074.3700
30
0.0
40
4.5
1
LOT 8
50
0.0
72
1
11
1578.3858
21
1074.3700
31
0.0
73
2
0
POLYLINE
8
LOT_LINE
66
1
70
1
0
VERTEX
8
LOT_LINE
10
1617.9537
20
1025.9900
30
0.0
0
VERTEX
8
LOT_LINE
10
1613.7516
20
1125.9016
30
0.0
0
VERTEX
8
LOT_LINE
10
1688.6854
20
1129.0532
30
0.0
0
VERTEX
8
LOT_LINE
10
1692.8875
20
1029.1415
30
0.0
0
SEQEND
0
TEXT
8
TEXT-LABELS
7
STANDARD
10
1653.3195
20
1077.5216
30
0.0
40
4.5
1
LOT 9
50
0.0
72
1
11
1653.3195
21
1077.5216
31
0.0
73
2
0
POLYLINE
8
LOT_LINE
66
1
70
1
0
VERTEX
8
LOT_LINE
10
1692.8875
20
1029.1415
30
0.0
0
VERTEX
8
LOT_LINE
10
1688.6854
20
1129.0532
30
0.0
0
VERTEX
8
LOT_LINE
10
1763.6191
20
1132.2048
30
0.0
0
VERTEX
8
LOT_LINE
10
1767.8212
20
1032.2931
30
0.0
0
SEQEND
0
TEXT
8
TEXT-LABELS
7
STANDARD
10
1728.2533
20
1080.6732
30
0.0
40
4.5
1
LOT 10
50
0.0
72
1
11
1728.2533
21
1080.6732
31
0.0
73
2
0
POLYLINE
8
LOT_LINE
66
1
70
1
0
VERTEX
8
LOT_LINE
10
1767.8212
20
1032.2931
30
0.0
0
VERTEX
8
LOT_LINE
10
1763.6191
20
1132.2048
30
0.0
0
VERTEX
8
LOT_LINE
10
1838.5529
20
1135.3564
30
0.0
0
VERTEX
8
LOT_LINE
10
1842.7550
20
1035.4447
30
0.0
0
SEQEND
0
TEXT
8
TEXT-LABELS
7
STANDARD
10
1803.1870
20
1083.8247
30
0.0
40
4.5
1
LOT 11
50
0.0
72
1
11
1803.1870
21
1083.8247
31
0.0
73
2
0
POLYLINE
8
LOT_LINE
66
1
70
1
0
VERTEX
8
LOT_LINE
10
1842.7550
20
1035.4447
30
0.0
0
VERTEX
8
LOT_LINE
10
1838.5529
20
1135.3564
30
0.0
0
VERTEX
8
LOT_LINE
10
1913.4866
20
1138.5079
30
0.0
0
VERTEX
8
LOT_LINE
10
1917.6887
20
1038.5963
30
0.0
0
SEQEND
0
TEXT
8
TEXT-LABELS
7
STANDARD
10
1878.1208
20
1086.9763
30
0.0
40
4.5
1
LOT 12
50
0.0
72
1
11
1878.1208
21
1086.9763
31
0.0
73
2
0
POLYLINE
8
LOT_LINE
66
1
70
1
0
VERTEX
8
LOT_LINE
10
1917.6887
20
1038.5963
30
0.0
0
VERTEX
8
LOT_LINE
10
1913.4866
20
1138.5079
30
0.0
0
VERTEX
8
LOT_LINE
10
1988.4204
20
1141.6595
30
0.0
0
VERTEX
8
LOT_LINE
10
1992.6225
20
1041.7478
30
0.0
0
SEQEND
0
TEXT
8
TEXT-LABELS
7
STANDARD
10
1953.0545
20
1090.1279
30
0.0
40
4.5
1
LOT 13
50
0.0
72
1
11
1953.0545
21
1090.1279
31
0.0
73
2
0
POLYLINE
8
LOT_LINE
66
1
70
1
0
VERTEX
8
LOT_LINE
10
1992.6225
20
1041.7478
30
0.0
0
VERTEX
8
LOT_LINE
10
1988.4204
20
1141.6595
30
0.0
0
VERTEX
8
LOT_LINE
10
2063.3541
20
1144.8111
30
0.0
0
VERTEX
8
LOT_LINE
10
2067.5562
20
1044.8994
30
0.0
0
SEQEND
0
TEXT
8
TEXT-LABELS
7
STANDARD
10
2027.9883
20
1093.2795
30
0.0
40
4.5
1
LOT 14
50
0.0
72
1
11
2027.9883
21
1093.2795
31
0.0
73
2
0
POLYLINE
8
LOT_LINE
66
1
70
1
0
VERTEX
8
LOT_LINE
10
2067.5562
20
1044.8994
30
0.0
0
VERTEX
8
LOT_LINE
10
2063.3541
20
1144.8111
30
0.0
0
VERTEX
8
LOT_LINE
10
2138.2879
20
1147.9627
30
0.0
0
VERTEX
8
LOT_LINE
10
2142.4900
20
1048.0510
30
0.0
0
SEQEND
0
TEXT
8
TEXT-LABELS
7
STANDARD
10
2102.9221
20
1096.4310
30
0.0
40
4.5
1
LOT 15
50
0.0
72
1
11
2102.9221
21
1096.4310
31
0.0
73
2
0
POLYLINE
8
LOT_LINE
66
1
70
1
0
VERTEX
8
LOT_LINE
10
2142.4900
20
1048.0510
30
0.0
0
VERTEX
8
LOT_LINE
10
2138.2879
20
1147.9627
30
0.0
0
VERTEX
8
LOT_LINE
10
2213.2216
20
1151.1142
30
0.0
0
VERTEX
8
LOT_LINE
10
2217.4237
20
1051.2026
30
0.0
0
SEQEND
0
TEXT
8
TEXT-LABELS
7
STANDARD
10
2177.8558
20
1099.5826
30
0.0
40
4.5
1
LOT 16
50
0.0
72
1
11
2177.8558
21
1099.5826
31
0.0
73
2
0
POLYLINE
8
CURVE
66
1
70
0
0
VERTEX
8
CURVE
10
2291.1535
20
1154.3919
30
0.0
0
VERTEX
8
CURVE
10
2293.6535
20
1154.3719
30
0.0
0
VERTEX
8
CURVE
10
2296.1390
20
1154.1024
30
0.0
0
VERTEX
8
CURVE
10
2298.5851
20
1153.5859
30
0.0
0
VERTEX
8
CURVE
10
2300.9674
20
1152.8277
30
0.0
0
VERTEX
8
CURVE
10
2303.2621
20
1151.8354
30
0.0
0
VERTEX
8
CURVE
10
2305.4462
20
1150.6188
30
0.0
0
VERTEX
8
CURVE
10
2307.4979
20
1149.1902
30
0.0
0
VERTEX
8
CURVE
10
2309.3966
20
1147.5638
30
0.0
0
VERTEX
8
CURVE
10
2311.1234
20
1145.7559
30
0.0
0
VERTEX
8
CURVE
10
2312.6610
20
1143.7845
30
0.0
0
VERTEX
8
CURVE
10
2313.9940
20
1141.6695
30
0.0
0
VERTEX
8
CURVE
10
2315.1091
20
1139.4319
30
0.0
0
VERTEX
8
CURVE
10
2315.9951
20
1137.0941
30
0.0
0
VERTEX
8
CURVE
10
2316.6432
20
1134.6795
30
0.0
0
VERTEX
8
CURVE
10
2317.0469
20
1132.2122
30
0.0
0
VERTEX
8
CURVE
10
2317.2022
20
1129.7170
30
0.0
0
SEQEND
0
POLYLINE
8
LOT_LINE
66
1
70
1
0
VERTEX
8
LOT_LINE
10
2217.4237
20
1051.2026
30
0.0
0
VERTEX
8
LOT_LINE
10
2213.2216
20
1151.1142
30
0.0
0
VERTEX
8
LOT_LINE
10
2291.1535
20
1154.3919
30
0.0
0
VERTEX
8
LOT_LINE
10
2293.6535
20
1154.3719
30
0.0
0
VERTEX
8
LOT_LINE
10
2296.1390
20
1154.1024
30
0.0
0
VERTEX
8
LOT_LINE
10
2298.5851
20
1153.5859
30
0.0
0
VERTEX
8
LOT_LINE
10
2300.9674
20
1152.8277
30
0.0
0
VERTEX
8
LOT_LINE
10
2303.2621
20
1151.8354
30
0.0
0
VERTEX
8
LOT_LINE
10
2305.4462
20
1150.6188
30
0.0
0
VERTEX
8
LOT_LINE
10
2307.4979
20
1149.1902
30
0.0
0
VERTEX
8
LOT_LINE
10
2309.3966
20
1147.5638
30
0.0
0
VERTEX
8
LOT_LINE
10
2311.1234
20
1145.7559
30
0.0
0
VERTEX
8
LOT_LINE
10
2312.6610
20
1143.7845
30
0.0
0
VERTEX
8
LOT_LINE
10
2313.9940
20
1141.6695
30
0.0
0
VERTEX
8
LOT_LINE
10
2315.1091
20
1139.4319
30
0.0
0
VERTEX
8
LOT_LINE
10
2315.9951
20
1137.0941
30
0.0
0
VERTEX
8
LOT_LINE
10
2316.6432
20
1134.6795
30
0.0
0
VERTEX
8
LOT_LINE
10
2317.0469
20
1132.2122
30
0.0
0
VERTEX
8
LOT_LINE
10
2317.2022
20
1129.7170
30
0.0
0
VERTEX
8
LOT_LINE
10
2318.1047
20
1055.4370
30
0.0
0
SEQEND
0
TEXT
8
TEXT-LABELS
7
STANDARD
10
2298.7313
20
1136.5293
30
0.0
40
4.5
1
LOT 17
50
0.0
72
1
11
2298.7313
21
1136.5293
31
0.0
73
2
0
POLYLINE
8
CURVE
66
1
70
0
0
VERTEX
8
CURVE
10
1029.1800
20
901.1389
30
0.0
0
VERTEX
8
CURVE
10
1026.7267
20
901.1562
30
0.0
0
VERTEX
8
CURVE
10
1024.2869
20
901.4138
30
0.0
0
VERTEX
8
CURVE
10
1021.8841
20
901.9094
30
0.0
0
VERTEX
8
CURVE
10
1019.5414
20
902.6382
30
0.0
0
VERTEX
8
CURVE
10
1017.2815
20
903.5930
30
0.0
0
VERTEX
8
CURVE
10
1015.1260
20
904.7647
30
0.0
0
VERTEX
8
CURVE
10
1013.0957
20
906.1421
30
0.0
0
VERTEX
8
CURVE
10
1011.2103
20
907.7119
30
0.0
0
VERTEX
8
CURVE
10
1009.4877
20
909.4589
30
0.0
0
VERTEX
8
CURVE
10
1007.9448
20
911.3663
30
0.0
0
VERTEX
8
CURVE
10
1006.5961
20
913.4158
30
0.0
0
VERTEX
8
CURVE
10
1005.4549
20
915.5876
30
0.0
0
VERTEX
8
CURVE
10
1004.5321
20
917.8608
30
0.0
0
VERTEX
8
CURVE
10
1003.8365
20
920.2135
30
0.0
0
VERTEX
8
CURVE
10
1003.3748
20
922.6230
30
0.0
0
VERTEX
8
CURVE
10
1003.1516
20
925.0662
30
0.0
0
SEQEND
0
POLYLINE
8
LOT_LINE
66
1
70
1
0
VERTEX
8
LOT_LINE
10
1000.0000
20
1000.0000
30
0.0
0
VERTEX
8
LOT_LINE
10
1093.4174
20
1003.9290
30
0.0
0
VERTEX
8
LOT_LINE
10
1097.6195
20
904.0173
30
0.0
0
VERTEX
8
LOT_LINE
10
1029.1800
20
901.1389
30
0.0
0
VERTEX
8
LOT_LINE
10
1026.7267
20
901.1562
30
0.0
0
VERTEX
8
LOT_LINE
10
1024.2869
20
901.4138
30
0.0
0
VERTEX
8
LOT_LINE
10
1021.8841
20
901.9094
30
0.0
0
VERTEX
8
LOT_LINE
10
1019.5414
20
902.6382
30
0.0
0
VERTEX
8
LOT_LINE
10
1017.2815
20
903.5930
30
0.0
0
VERTEX
8
LOT_LINE
10
1015.1260
20
904.7647
30
0.0
0
VERTEX
8
LOT_LINE
10
1013.0957
20
906.1421
30
0.0
0
VERTEX
8
LOT_LINE
10
1011.2103
20
907.7119
30
0.0
0
VERTEX
8
LOT_LINE
10
1009.4877
20
909.4589
30
0.0
0
VERTEX
8
LOT_LINE
10
1007.9448
20
911.3663
30
0.0
0
VERTEX
8
LOT_LINE
10
1006.5961
20
913.4158
30
0.0
0
VERTEX
8
LOT_LINE
10
1005.4549
20
915.5876
30
0.0
0
VERTEX
8
LOT_LINE
10
1004.5321
20
917.8608
30
0.0
0
VERTEX
8
LOT_LINE
10
1003.8365
20
920.2135
30
0.0
0
VERTEX
8
LOT_LINE
10
1003.3748
20
922.6230
30
0.0
0
VERTEX
8
LOT_LINE
10
1003.1516
20
925.0662
30
0.0
0
SEQEND
0
TEXT
8
TEXT-LABELS
7
STANDARD
10
1020.6874
20
918.7003
30
0.0
40
4.5
1
LOT 33
50
0.0
72
1
11
1020.6874
21
918.7003
31
0.0
73
2
0
POLYLINE
8
LOT_LINE
66
1
70
1
0
VERTEX
8
LOT_LINE
10
1097.6195
20
904.0173
30
0.0
0
VERTEX
8
LOT_LINE
10
1187.3002
20
907.7891
30
0.0
0
VERTEX
8
LOT_LINE
10
1183.0981
20
1007.7008
30
0.0
0
VERTEX
8
LOT_LINE
10
1093.4174
20
1003.9290
30
0.0
0
SEQEND
0
TEXT
8
TEXT-LABELS
7
STANDARD
10
1140.3588
20
955.8590
30
0.0
40
4.5
1
LOT 32
50
0.0
72
1
11
1140.3588
21
955.8590
31
0.0
73
2
0
POLYLINE
8
CURVE
66
1
70
0
0
VERTEX
8
CURVE
10
1187.3002
20
907.7891
30
0.0
0
VERTEX
8
CURVE
10
1192.6350
20
907.9768
30
0.0
0
VERTEX
8
CURVE
10
1197.9719
20
908.0914
30
0.0
0
VERTEX
8
CURVE
10
1203.3098
20
908.1328
30
0.0
0
VERTEX
8
CURVE
10
1208.6478
20
908.1009
30
0.0
0
VERTEX
8
CURVE
10
1213.9848
20
907.9959
30
0.0
0
VERTEX
8
CURVE
10
1219.3199
20
907.8177
30
0.0
0
VERTEX
8
CURVE
10
1224.6521
20
907.5664
30
0.0
0
VERTEX
8
CURVE
10
1229.9803
20
907.2419
30
0.0
0
VERTEX
8
CURVE
10
1235.3035
20
906.8445
30
0.0
0
VERTEX
8
CURVE
10
1240.6208
20
906.3740
30
0.0
0
VERTEX
8
CURVE
10
1245.9312
20
905.8307
30
0.0
0
VERTEX
8
CURVE
10
1251.2336
20
905.2147
30
0.0
0
VERTEX
8
CURVE
10
1256.5271
20
904.5259
30
0.0
0
VERTEX
8
CURVE
10
1261.8106
20
903.7647
30
0.0
0
VERTEX
8
CURVE
10
1267.0832
20
902.9311
30
0.0
0
VERTEX
8
CURVE
10
1272.3438
20
902.0252
30
0.0
0
SEQEND
0
POLYLINE
8
LOT_LINE
66
1
70
1
0
VERTEX
8
LOT_LINE
10
1187.3002
20
907.7891
30
0.0
0
VERTEX
8
LOT_LINE
10
1192.6350
20
907.9768
30
0.0
0
VERTEX
8
LOT_LINE
10
1197.9719
20
908.0914
30
0.0
0
VERTEX
8
LOT_LINE
10
1203.3098
20
908.1328
30
0.0
0
VERTEX
8
LOT_LINE
10
1208.6478
20
908.1009
30
0.0
0
VERTEX
8
LOT_LINE
10
1213.9848
20
907.9959
30
0.0
0
VERTEX
8
LOT_LINE
10
1219.3199
20
907.8177
30
0.0
0
VERTEX
8
LOT_LINE
10
1224.6521
20
907.5664
30
0.0
0
VERTEX
8
LOT_LINE
10
1229.9803
20
907.2419
30
0.0
0
VERTEX
8
LOT_LINE
10
1235.3035
20
906.8445
30
0.0
0
VERTEX
8
LOT_LINE
10
1240.6208
20
906.3740
30
0.0
0
VERTEX
8
LOT_LINE
10
1245.9312
20
905.8307
30
0.0
0
VERTEX
8
LOT_LINE
10
1251.2336
20
905.2147
30
0.0
0
VERTEX
8
LOT_LINE
10
1256.5271
20
904.5259
30
0.0
0
VERTEX
8
LOT_LINE
10
1261.8106
20
903.7647
30
0.0
0
VERTEX
8
LOT_LINE
10
1267.0832
20
902.9311
30
0.0
0
VERTEX
8
LOT_LINE
10
1272.3438
20
902.0252
30
0.0
0
VERTEX
8
LOT_LINE
10
1293.0010
20
1012.3231
30
0.0
0
VERTEX
8
LOT_LINE
10
1183.0981
20
1007.7008
30
0.0
0
SEQEND
0
TEXT
8
TEXT-LABELS
7
STANDARD
10
1230.7766
20
917.2762
30
0.0
40
4.5
1
LOT 31
50
0.0
72
1
11
1230.7766
21
917.2762
31
0.0
73
2
0
POLYLINE
8
CURVE
66
1
70
0
0
VERTEX
8
CURVE
10
1272.3438
20
902.0252
30
0.0
0
VERTEX
8
CURVE
10
1277.5916
20
901.0473
30
0.0
0
VERTEX
8
CURVE
10
1282.8254
20
899.9976
30
0.0
0
VERTEX
8
CURVE
10
1288.0444
20
898.8761
30
0.0
0
VERTEX
8
CURVE
10
1293.2475
20
897.6832
30
0.0
0
VERTEX
8
CURVE
10
1298.4337
20
896.4191
30
0.0
0
VERTEX
8
CURVE
10
1303.6021
20
895.0839
30
0.0
0
VERTEX
8
CURVE
10
1308.7517
20
893.6781
30
0.0
0
VERTEX
8
CURVE
10
1313.8816
20
892.2017
30
0.0
0
VERTEX
8
CURVE
10
1318.9907
20
890.6551
30
0.0
0
VERTEX
8
CURVE
10
1324.0781
20
889.0386
30
0.0
0
VERTEX
8
CURVE
10
1329.1429
20
887.3525
30
0.0
0
VERTEX
8
CURVE
10
1334.1841
20
885.5971
30
0.0
0
VERTEX
8
CURVE
10
1339.2008
20
883.7728
30
0.0
0
VERTEX
8
CURVE
10
1344.1920
20
881.8798
30
0.0
0
VERTEX
8
CURVE
10
1349.1567
20
879.9186
30
0.0
0
VERTEX
8
CURVE
10
1354.0941
20
877.8894
30
0.0
0
SEQEND
0
POLYLINE
8
LOT_LINE
66
1
70
1
0
VERTEX
8
LOT_LINE
10
1272.3438
20
902.0252
30
0.0
0
VERTEX
8
LOT_LINE
10
1277.5916
20
901.0473
30
0.0
0
VERTEX
8
LOT_LINE
10
1282.8254
20
899.9976
30
0.0
0
VERTEX
8
LOT_LINE
10
1288.0444
20
898.8761
30
0.0
0
VERTEX
8
LOT_LINE
10
1293.2475
20
897.6832
30
0.0
0
VERTEX
8
LOT_LINE
10
1298.4337
20
896.4191
30
0.0
0
VERTEX
8
LOT_LINE
10
1303.6021
20
895.0839
30
0.0
0
VERTEX
8
LOT_LINE
10
1308.7517
20
893.6781
30
0.0
0
VERTEX
8
LOT_LINE
10
1313.8816
20
892.2017
30
0.0
0
VERTEX
8
LOT_LINE
10
1318.9907
20
890.6551
30
0.0
0
VERTEX
8
LOT_LINE
10
1324.0781
20
889.0386
30
0.0
0
VERTEX
8
LOT_LINE
10
1329.1429
20
887.3525
30
0.0
0
VERTEX
8
LOT_LINE
10
1334.1841
20
885.5971
30
0.0
0
VERTEX
8
LOT_LINE
10
1339.2008
20
883.7728
30
0.0
0
VERTEX
8
LOT_LINE
10
1344.1920
20
881.8798
30
0.0
0
VERTEX
8
LOT_LINE
10
1349.1567
20
879.9186
30
0.0
0
VERTEX
8
LOT_LINE
10
1354.0941
20
877.8894
30
0.0
0
VERTEX
8
LOT_LINE
10
1402.9038
20
1016.9454
30
0.0
0
VERTEX
8
LOT_LINE
10
1293.0010
20
1012.3231
30
0.0
0
SEQEND
0
TEXT
8
TEXT-LABELS
7
STANDARD
10
1317.2456
20
904.3360
30
0.0
40
4.5
1
LOT 30
50
0.0
72
1
11
1317.2456
21
904.3360
31
0.0
73
2
0
POLYLINE
8
CURVE
66
1
70
0
0
VERTEX
8
CURVE
10
1354.0941
20
877.8894
30
0.0
0
VERTEX
8
CURVE
10
1359.0032
20
875.7928
30
0.0
0
VERTEX
8
CURVE
10
1363.8830
20
873.6290
30
0.0
0
VERTEX
8
CURVE
10
1368.7328
20
871.3985
30
0.0
0
VERTEX
8
CURVE
10
1373.5515
20
869.1018
30
0.0
0
VERTEX
8
CURVE
10
1378.3382
20
866.7391
30
0.0
0
VERTEX
8
CURVE
10
1383.0922
20
864.3111
30
0.0
0
VERTEX
8
CURVE
10
1387.8123
20
861.8181
30
0.0
0
VERTEX
8
CURVE
10
1392.4979
20
859.2605
30
0.0
0
VERTEX
8
CURVE
10
1397.1479
20
856.6390
30
0.0
0
VERTEX
8
CURVE
10
1401.7615
20
853.9540
30
0.0
0
VERTEX
8
CURVE
10
1406.3379
20
851.2059
30
0.0
0
VERTEX
8
CURVE
10
1410.8762
20
848.3954
30
0.0
0
VERTEX
8
CURVE
10
1415.3755
20
845.5229
30
0.0
0
VERTEX
8
CURVE
10
1419.8350
20
842.5889
30
0.0
0
VERTEX
8
CURVE
10
1424.2538
20
839.5941
30
0.0
0
VERTEX
8
CURVE
10
1428.6312
20
836.5390
30
0.0
0
SEQEND
0
POLYLINE
8
CURVE
66
1
70
0
0
VERTEX
8
CURVE
10
1428.6312
20
836.5390
30
0.0
0
VERTEX
8
CURVE
10
1430.7005
20
835.2210
30
0.0
0
VERTEX
8
CURVE
10
1432.8890
20
834.1123
30
0.0
0
VERTEX
8
CURVE
10
1435.1757
20
833.2233
30
0.0
0
VERTEX
8
CURVE
10
1437.5385
20
832.5628
30
0.0
0
VERTEX
8
CURVE
10
1439.9547
20
832.1371
30
0.0
0
VERTEX
8
CURVE
10
1442.4009
20
831.9502
30
0.0
0
VERTEX
8
CURVE
10
1444.8537
20
832.0041
30
0.0
0
VERTEX
8
CURVE
10
1447.2894
20
832.2980
30
0.0
0
VERTEX
8
CURVE
10
1449.6846
20
832.8293
30
0.0
0
VERTEX
8
CURVE
10
1452.0162
20
833.5928
30
0.0
0
VERTEX
8
CURVE
10
1454.2616
20
834.5812
30
0.0
0
VERTEX
8
CURVE
10
1456.3994
20
835.7849
30
0.0
0
VERTEX
8
CURVE
10
1458.4090
20
837.1924
30
0.0
0
VERTEX
8
CURVE
10
1460.2709
20
838.7900
30
0.0
0
VERTEX
8
CURVE
10
1461.9672
20
840.5624
30
0.0
0
VERTEX
8
CURVE
10
1463.4816
20
842.4926
30
0.0
0
SEQEND
0
POLYLINE
8
CURVE
66
1
70
0
0
VERTEX
8
CURVE
10
1463.4816
20
842.4926
30
0.0
0
VERTEX
8
CURVE
10
1465.3754
20
845.1212
30
0.0
0
VERTEX
8
CURVE
10
1467.3120
20
847.7185
30
0.0
0
VERTEX
8
CURVE
10
1469.2908
20
850.2837
30
0.0
0
VERTEX
8
CURVE
10
1471.3113
20
852.8161
30
0.0
0
VERTEX
8
CURVE
10
1473.3730
20
855.3152
30
0.0
0
VERTEX
8
CURVE
10
1475.4753
20
857.7802
30
0.0
0
VERTEX
8
CURVE
10
1477.6177
20
860.2105
30
0.0
0
VERTEX
8
CURVE
10
1479.7996
20
862.6053
30
0.0
0
VERTEX
8
CURVE
10
1482.0203
20
864.9642
30
0.0
0
VERTEX
8
CURVE
10
1484.2794
20
867.2864
30
0.0
0
VERTEX
8
CURVE
10
1486.5762
20
869.5713
30
0.0
0
VERTEX
8
CURVE
10
1488.9101
20
871.8183
30
0.0
0
VERTEX
8
CURVE
10
1491.2804
20
874.0268
30
0.0
0
VERTEX
8
CURVE
10
1493.6865
20
876.1962
30
0.0
0
VERTEX
8
CURVE
10
1496.1279
20
878.3260
30
0.0
0
VERTEX
8
CURVE
10
1498.6037
20
880.4155
30
0.0
0
SEQEND
0
POLYLINE
8
LOT_LINE
66
1
70
1
0
VERTEX
8
LOT_LINE
10
1354.0941
20
877.8894
30
0.0
0
VERTEX
8
LOT_LINE
10
1359.0032
20
875.7928
30
0.0
0
VERTEX
8
LOT_LINE
10
1363.8830
20
873.6290
30
0.0
0
VERTEX
8
LOT_LINE
10
1368.7328
20
871.3985
30
0.0
0
VERTEX
8
LOT_LINE
10
1373.5515
20
869.1018
30
0.0
0
VERTEX
8
LOT_LINE
10
1378.3382
20
866.7391
30
0.0
0
VERTEX
8
LOT_LINE
10
1383.0922
20
864.3111
30
0.0
0
VERTEX
8
LOT_LINE
10
1387.8123
20
861.8181
30
0.0
0
VERTEX
8
LOT_LINE
10
1392.4979
20
859.2605
30
0.0
0
VERTEX
8
LOT_LINE
10
1397.1479
20
856.6390
30
0.0
0
VERTEX
8
LOT_LINE
10
1401.7615
20
853.9540
30
0.0
0
VERTEX
8
LOT_LINE
10
1406.3379
20
851.2059
30
0.0
0
VERTEX
8
LOT_LINE
10
1410.8762
20
848.3954
30
0.0
0
VERTEX
8
LOT_LINE
10
1415.3755
20
845.5229
30
0.0
0
VERTEX
8
LOT_LINE
10
1419.8350
20
842.5889
30
0.0
0
VERTEX
8
LOT_LINE
10
1424.2538
20
839.5941
30
0.0
0
VERTEX
8
LOT_LINE
10
1428.6312
20
836.5390
30
0.0
0
VERTEX
8
LOT_LINE
10
1430.7005
20
835.2210
30
0.0
0
VERTEX
8
LOT_LINE
10
1432.8890
20
834.1123
30
0.0
0
VERTEX
8
LOT_LINE
10
1435.1757
20
833.2233
30
0.0
0
VERTEX
8
LOT_LINE
10
1437.5385
20
832.5628
30
0.0
0
VERTEX
8
LOT_LINE
10
1439.9547
20
832.1371
30
0.0
0
VERTEX
8
LOT_LINE
10
1442.4009
20
831.9502
30
0.0
0
VERTEX
8
LOT_LINE
10
1444.8537
20
832.0041
30
0.0
0
VERTEX
8
LOT_LINE
10
1447.2894
20
832.2980
30
0.0
0
VERTEX
8
LOT_LINE
10
1449.6846
20
832.8293
30
0.0
0
VERTEX
8
LOT_LINE
10
1452.0162
20
833.5928
30
0.0
0
VERTEX
8
LOT_LINE
10
1454.2616
20
834.5812
30
0.0
0
VERTEX
8
LOT_LINE
10
1456.3994
20
835.7849
30
0.0
0
VERTEX
8
LOT_LINE
10
1458.4090
20
837.1924
30
0.0
0
VERTEX
8
LOT_LINE
10
1460.2709
20
838.7900
30
0.0
0
VERTEX
8
LOT_LINE
10
1461.9672
20
840.5624
30
0.0
0
VERTEX
8
LOT_LINE
10
1463.4816
20
842.4926
30
0.0
0
VERTEX
8
LOT_LINE
10
1465.3754
20
845.1212
30
0.0
0
VERTEX
8
LOT_LINE
10
1467.3120
20
847.7185
30
0.0
0
VERTEX
8
LOT_LINE
10
1469.2908
20
850.2837
30
0.0
0
VERTEX
8
LOT_LINE
10
1471.3113
20
852.8161
30
0.0
0
VERTEX
8
LOT_LINE
10
1473.3730
20
855.3152
30
0.0
0
VERTEX
8
LOT_LINE
10
1475.4753
20
857.7802
30
0.0
0
VERTEX
8
LOT_LINE
10
1477.6177
20
860.2105
30
0.0
0
VERTEX
8
LOT_LINE
10
1479.7996
20
862.6053
30
0.0
0
VERTEX
8
LOT_LINE
10
1482.0203
20
864.9642
30
0.0
0
VERTEX
8
LOT_LINE
10
1484.2794
20
867.2864
30
0.0
0
VERTEX
8
LOT_LINE
10
1486.5762
20
869.5713
30
0.0
0
VERTEX
8
LOT_LINE
10
1488.9101
20
871.8183
30
0.0
0
VERTEX
8
LOT_LINE
10
1491.2804
20
874.0268
30
0.0
0
VERTEX
8
LOT_LINE
10
1493.6865
20
876.1962
30
0.0
0
VERTEX
8
LOT_LINE
10
1496.1279
20
878.3260
30
0.0
0
VERTEX
8
LOT_LINE
10
1498.6037
20
880.4155
30
0.0
0
VERTEX
8
LOT_LINE
10
1402.9038
20
1016.9454
30
0.0
0
SEQEND
0
TEXT
8
TEXT-LABELS
7
STANDARD
10
1438.7292
20
855.7023
30
0.0
40
4.5
1
LOT 29
50
0.0
72
1
11
1438.7292
21
855.7023
31
0.0
73
2
0
POLYLINE
8
CURVE
66
1
70
0
0
VERTEX
8
CURVE
10
1498.6037
20
880.4155
30
0.0
0
VERTEX
8
CURVE
10
1501.9566
20
883.1379
30
0.0
0
VERTEX
8
CURVE
10
1505.3680
20
885.7866
30
0.0
0
VERTEX
8
CURVE
10
1508.8364
20
888.3602
30
0.0
0
VERTEX
8
CURVE
10
1512.3601
20
890.8575
30
0.0
0
VERTEX
8
CURVE
10
1515.9375
20
893.2773
30
0.0
0
VERTEX
8
CURVE
10
1519.5668
20
895.6186
30
0.0
0
VERTEX
8
CURVE
10
1523.2464
20
897.8800
30
0.0
0
VERTEX
8
CURVE
10
1526.9744
20
900.0607
30
0.0
0
VERTEX
8
CURVE
10
1530.7491
20
902.1595
30
0.0
0
VERTEX
8
CURVE
10
1534.5686
20
904.1755
30
0.0
0
VERTEX
8
CURVE
10
1538.4313
20
906.1076
30
0.0
0
VERTEX
8
CURVE
10
1542.3352
20
907.9551
30
0.0
0
VERTEX
8
CURVE
10
1546.2784
20
909.7169
30
0.0
0
VERTEX
8
CURVE
10
1550.2592
20
911.3922
30
0.0
0
VERTEX
8
CURVE
10
1554.2756
20
912.9803
30
0.0
0
VERTEX
8
CURVE
10
1558.3256
20
914.4805
30
0.0
0
SEQEND
0
POLYLINE
8
LOT_LINE
66
1
70
1
0
VERTEX
8
LOT_LINE
10
1498.6037
20
880.4155
30
0.0
0
VERTEX
8
LOT_LINE
10
1501.9566
20
883.1379
30
0.0
0
VERTEX
8
LOT_LINE
10
1505.3680
20
885.7866
30
0.0
0
VERTEX
8
LOT_LINE
10
1508.8364
20
888.3602
30
0.0
0
VERTEX
8
LOT_LINE
10
1512.3601
20
890.8575
30
0.0
0
VERTEX
8
LOT_LINE
10
1515.9375
20
893.2773
30
0.0
0
VERTEX
8
LOT_LINE
10
1519.5668
20
895.6186
30
0.0
0
VERTEX
8
LOT_LINE
10
1523.2464
20
897.8800
30
0.0
0
VERTEX
8
LOT_LINE
10
1526.9744
20
900.0607
30
0.0
0
VERTEX
8
LOT_LINE
10
1530.7491
20
902.1595
30
0.0
0
VERTEX
8
LOT_LINE
10
1534.5686
20
904.1755
30
0.0
0
VERTEX
8
LOT_LINE
10
1538.4313
20
906.1076
30
0.0
0
VERTEX
8
LOT_LINE
10
1542.3352
20
907.9551
30
0.0
0
VERTEX
8
LOT_LINE
10
1546.2784
20
909.7169
30
0.0
0
VERTEX
8
LOT_LINE
10
1550.2592
20
911.3922
30
0.0
0
VERTEX
8
LOT_LINE
10
1554.2756
20
912.9803
30
0.0
0
VERTEX
8
LOT_LINE
10
1558.3256
20
914.4805
30
0.0
0
VERTEX
8
LOT_LINE
10
1512.8067
20
1021.5677
30
0.0
0
VERTEX
8
LOT_LINE
10
1402.9038
20
1016.9454
30
0.0
0
SEQEND
0
TEXT
8
TEXT-LABELS
7
STANDARD
10
1520.1991
20
911.7303
30
0.0
40
4.5
1
LOT 28
50
0.0
72
1
11
1520.1991
21
911.7303
31
0.0
73
2
0
POLYLINE
8
CURVE
66
1
70
0
0
VERTEX
8
CURVE
10
1616.7192
20
925.8657
30
0.0
0
VERTEX
8
CURVE
10
1612.9917
20
925.6749
30
0.0
0
VERTEX
8
CURVE
10
1609.2684
20
925.4139
30
0.0
0
VERTEX
8
CURVE
10
1605.5508
20
925.0827
30
0.0
0
VERTEX
8
CURVE
10
1601.8400
20
924.6814
30
0.0
0
VERTEX
8
CURVE
10
1598.1374
20
924.2103
30
0.0
0
VERTEX
8
CURVE
10
1594.4444
20
923.6694
30
0.0
0
VERTEX
8
CURVE
10
1590.7622
20
923.0591
30
0.0
0
VERTEX
8
CURVE
10
1587.0923
20
922.3794
30
0.0
0
VERTEX
8
CURVE
10
1583.4357
20
921.6306
30
0.0
0
VERTEX
8
CURVE
10
1579.7940
20
920.8130
30
0.0
0
VERTEX
8
CURVE
10
1576.1683
20
919.9269
30
0.0
0
VERTEX
8
CURVE
10
1572.5599
20
918.9726
30
0.0
0
VERTEX
8
CURVE
10
1568.9702
20
917.9504
30
0.0
0
VERTEX
8
CURVE
10
1565.4004
20
916.8607
30
0.0
0
VERTEX
8
CURVE
10
1561.8518
20
915.7039
30
0.0
0
VERTEX
8
CURVE
10
1558.3256
20
914.4805
30
0.0
0
SEQEND
0
POLYLINE
8
LOT_LINE
66
1
70
1
0
VERTEX
8
LOT_LINE
10
1512.8067
20
1021.5677
30
0.0
0
VERTEX
8
LOT_LINE
10
1617.9537
20
1025.9900
30
0.0
0
VERTEX
8
LOT_LINE
10
1622.1558
20
926.0783
30
0.0
0
VERTEX
8
LOT_LINE
10
1616.7192
20
925.8657
30
0.0
0
VERTEX
8
LOT_LINE
10
1612.9917
20
925.6749
30
0.0
0
VERTEX
8
LOT_LINE
10
1609.2684
20
925.4139
30
0.0
0
VERTEX
8
LOT_LINE
10
1605.5508
20
925.0827
30
0.0
0
VERTEX
8
LOT_LINE
10
1601.8400
20
924.6814
30
0.0
0
VERTEX
8
LOT_LINE
10
1598.1374
20
924.2103
30
0.0
0
VERTEX
8
LOT_LINE
10
1594.4444
20
923.6694
30
0.0
0
VERTEX
8
LOT_LINE
10
1590.7622
20
923.0591
30
0.0
0
VERTEX
8
LOT_LINE
10
1587.0923
20
922.3794
30
0.0
0
VERTEX
8
LOT_LINE
10
1583.4357
20
921.6306
30
0.0
0
VERTEX
8
LOT_LINE
10
1579.7940
20
920.8130
30
0.0
0
VERTEX
8
LOT_LINE
10
1576.1683
20
919.9269
30
0.0
0
VERTEX
8
LOT_LINE
10
1572.5599
20
918.9726
30
0.0
0
VERTEX
8
LOT_LINE
10
1568.9702
20
917.9504
30
0.0
0
VERTEX
8
LOT_LINE
10
1565.4004
20
916.8607
30
0.0
0
VERTEX
8
LOT_LINE
10
1561.8518
20
915.7039
30
0.0
0
VERTEX
8
LOT_LINE
10
1558.3256
20
914.4805
30
0.0
0
SEQEND
0
TEXT
8
TEXT-LABELS
7
STANDARD
10
1586.8114
20
932.0006
30
0.0
40
4.5
1
LOT 27
50
0.0
72
1
11
1586.8114
21
932.0006
31
0.0
73
2
0
POLYLINE
8
LOT_LINE
66
1
70
1
0
VERTEX
8
LOT_LINE
10
1617.9537
20
1025.9900
30
0.0
0
VERTEX
8
LOT_LINE
10
1692.8875
20
1029.1415
30
0.0
0
VERTEX
8
LOT_LINE
10
1697.0895
20
929.2299
30
0.0
0
VERTEX
8
LOT_LINE
10
1622.1558
20
926.0783
30
0.0
0
SEQEND
0
TEXT
8
TEXT-LABELS
7
STANDARD
10
1657.5216
20
977.6099
30
0.0
40
4.5
1
LOT 26
50
0.0
72
1
11
1657.5216
21
977.6099
31
0.0
73
2
0
POLYLINE
8
LOT_LINE
66
1
70
1
0
VERTEX
8
LOT_LINE
10
1692.8875
20
1029.1415
30
0.0
0
VERTEX
8
LOT_LINE
10
1767.8212
20
1032.2931
30
0.0
0
VERTEX
8
LOT_LINE
10
1772.0233
20
932.3814
30
0.0
0
VERTEX
8
LOT_LINE
10
1697.0895
20
929.2299
30
0.0
0
SEQEND
0
TEXT
8
TEXT-LABELS
7
STANDARD
10
1732.4554
20
980.7615
30
0.0
40
4.5
1
LOT 25
50
0.0
72
1
11
1732.4554
21
980.7615
31
0.0
73
2
0
POLYLINE
8
LOT_LINE
66
1
70
1
0
VERTEX
8
LOT_LINE
10
1767.8212
20
1032.2931
30
0.0
0
VERTEX
8
LOT_LINE
10
1842.7550
20
1035.4447
30
0.0
0
VERTEX
8
LOT_LINE
10
1846.9571
20
935.5330
30
0.0
0
VERTEX
8
LOT_LINE
10
1772.0233
20
932.3814
30
0.0
0
SEQEND
0
TEXT
8
TEXT-LABELS
7
STANDARD
10
1807.3891
20
983.9131
30
0.0
40
4.5
1
LOT 24
50
0.0
72
1
11
1807.3891
21
983.9131
31
0.0
73
2
0
POLYLINE
8
LOT_LINE
66
1
70
1
0
VERTEX
8
LOT_LINE
10
1842.7550
20
1035.4447
30
0.0
0
VERTEX
8
LOT_LINE
10
1917.6887
20
1038.5963
30
0.0
0
VERTEX
8
LOT_LINE
10
1921.8908
20
938.6846
30
0.0
0
VERTEX
8
LOT_LINE
10
1846.9571
20
935.5330
30
0.0
0
SEQEND
0
TEXT
8
TEXT-LABELS
7
STANDARD
10
1882.3229
20
987.0646
30
0.0
40
4.5
1
LOT 23
50
0.0
72
1
11
1882.3229
21
987.0646
31
0.0
73
2
0
POLYLINE
8
LOT_LINE
66
1
70
1
0
VERTEX
8
LOT_LINE
10
1917.6887
20
1038.5963
30
0.0
0
VERTEX
8
LOT_LINE
10
1992.6225
20
1041.7478
30
0.0
0
VERTEX
8
LOT_LINE
10
1996.8246
20
941.8362
30
0.0
0
VERTEX
8
LOT_LINE
10
1921.8908
20
938.6846
30
0.0
0
SEQEND
0
TEXT
8
TEXT-LABELS
7
STANDARD
10
1957.2566
20
990.2162
30
0.0
40
4.5
1
LOT 22
50
0.0
72
1
11
1957.2566
21
990.2162
31
0.0
73
2
0
POLYLINE
8
LOT_LINE
66
1
70
1
0
VERTEX
8
LOT_LINE
10
1992.6225
20
1041.7478
30
0.0
0
VERTEX
8
LOT_LINE
10
2067.5562
20
1044.8994
30
0.0
0
VERTEX
8
LOT_LINE
10
2071.7583
20
944.9877
30
0.0
0
VERTEX
8
LOT_LINE
10
1996.8246
20
941.8362
30
0.0
0
SEQEND
0
TEXT
8
TEXT-LABELS
7
STANDARD
10
2032.1904
20
993.3678
30
0.0
40
4.5
1
LOT 21
50
0.0
72
1
11
2032.1904
21
993.3678
31
0.0
73
2
0
POLYLINE
8
LOT_LINE
66
1
70
1
0
VERTEX
8
LOT_LINE
10
2067.5562
20
1044.8994
30
0.0
0
VERTEX
8
LOT_LINE
10
2142.4900
20
1048.0510
30
0.0
0
VERTEX
8
LOT_LINE
10
2146.6921
20
948.1393
30
0.0
0
VERTEX
8
LOT_LINE
10
2071.7583
20
944.9877
30
0.0
0
SEQEND
0
TEXT
8
TEXT-LABELS
7
STANDARD
10
2107.1242
20
996.5194
30
0.0
40
4.5
1
LOT 20
50
0.0
72
1
11
2107.1242
21
996.5194
31
0.0
73
2
0
POLYLINE
8
LOT_LINE
66
1
70
1
0
VERTEX
8
LOT_LINE
10
2142.4900
20
1048.0510
30
0.0
0
VERTEX
8
LOT_LINE
10
2217.4237
20
1051.2026
30
0.0
0
VERTEX
8
LOT_LINE
10
2221.6258
20
951.2909
30
0.0
0
VERTEX
8
LOT_LINE
10
2146.6921
20
948.1393
30
0.0
0
SEQEND
0
TEXT
8
TEXT-LABELS
7
STANDARD
10
2182.0579
20
999.6709
30
0.0
40
4.5
1
LOT 19
50
0.0
72
1
11
2182.0579
21
999.6709
31
0.0
73
2
0
POLYLINE
8
CURVE
66
1
70
0
0
VERTEX
8
CURVE
10
2319.0254
20
979.6610
30
0.0
0
VERTEX
8
CURVE
10
2318.9387
20
977.2559
30
0.0
0
VERTEX
8
CURVE
10
2318.6211
20
974.8703
30
0.0
0
VERTEX
8
CURVE
10
2318.0756
20
972.5262
30
0.0
0
VERTEX
8
CURVE
10
2317.3073
20
970.2454
30
0.0
0
VERTEX
8
CURVE
10
2316.3232
20
968.0491
30
0.0
0
VERTEX
8
CURVE
10
2315.1324
20
965.9576
30
0.0
0
VERTEX
8
CURVE
10
2313.7461
20
963.9903
30
0.0
0
VERTEX
8
CURVE
10
2312.1770
20
962.1655
30
0.0
0
VERTEX
8
CURVE
10
2310.4397
20
960.4999
30
0.0
0
VERTEX
8
CURVE
10
2308.5504
20
959.0091
30
0.0
0
VERTEX
8
CURVE
10
2306.5264
20
957.7069
30
0.0
0
VERTEX
8
CURVE
10
2304.3866
20
956.6054
30
0.0
0
VERTEX
8
CURVE
10
2302.1507
20
955.7147
30
0.0
0
VERTEX
8
CURVE
10
2299.8396
20
955.0431
30
0.0
0
VERTEX
8
CURVE
10
2297.4747
20
954.5969
30
0.0
0
VERTEX
8
CURVE
10
2295.0778
20
954.3801
30
0.0
0
SEQEND
0
POLYLINE
8
LOT_LINE
66
1
70
1
0
VERTEX
8
LOT_LINE
10
2217.4237
20
1051.2026
30
0.0
0
VERTEX
8
LOT_LINE
10
2318.1047
20
1055.4370
30
0.0
0
VERTEX
8
LOT_LINE
10
2319.0254
20
979.6610
30
0.0
0
VERTEX
8
LOT_LINE
10
2318.9387
20
977.2559
30
0.0
0
VERTEX
8
LOT_LINE
10
2318.6211
20
974.8703
30
0.0
0
VERTEX
8
LOT_LINE
10
2318.0756
20
972.5262
30
0.0
0
VERTEX
8
LOT_LINE
10
2317.3073
20
970.2454
30
0.0
0
VERTEX
8
LOT_LINE
10
2316.3232
20
968.0491
30
0.0
0
VERTEX
8
LOT_LINE
10
2315.1324
20
965.9576
30
0.0
0
VERTEX
8
LOT_LINE
10
2313.7461
20
963.9903
30
0.0
0
VERTEX
8
LOT_LINE
10
2312.1770
20
962.1655
30
0.0
0
VERTEX
8
LOT_LINE
10
2310.4397
20
960.4999
30
0.0
0
VERTEX
8
LOT_LINE
10
2308.5504
20
959.0091
30
0.0
0
VERTEX
8
LOT_LINE
10
2306.5264
20
957.7069
30
0.0
0
VERTEX
8
LOT_LINE
10
2304.3866
20
956.6054
30
0.0
0
VERTEX
8
LOT_LINE
10
2302.1507
20
955.7147
30
0.0
0
VERTEX
8
LOT_LINE
10
2299.8396
20
955.0431
30
0.0
0
VERTEX
8
LOT_LINE
10
2297.4747
20
954.5969
30
0.0
0
VERTEX
8
LOT_LINE
10
2295.0778
20
954.3801
30
0.0
0
VERTEX
8
LOT_LINE
10
2221.6258
20
951.2909
30
0.0
0
SEQEND
0
TEXT
8
TEXT-LABELS
7
STANDARD
10
2301.5473
20
972.3104
30
0.0
40
4.5
1
LOT 18
50
0.0
72
1
11
2301.5473
21
972.3104
31
0.0
73
2
0
LINE
8
ROW_STREET
10
996.0920
20
1092.9179
30
0.0
11
995.7979
21
1099.9117
31
0.0
0
LINE
8
ROW_STREET
10
995.7979
20
1099.9117
30
0.0
11
1002.7917
21
1100.2058
31
0.0
0
TEXT
8
DIM-LABELS
7
STANDARD
10
997.7979
20
1101.9117
30
0.0
40
3.2
1
P.I.
50
0.0
0
LINE
8
RADIAL_LINE
10
996.8484
20
1074.9338
30
0.0
11
995.7979
21
1099.9117
31
0.0
0
LINE
8
RADIAL_LINE
10
1020.7758
20
1100.9622
30
0.0
11
995.7979
21
1099.9117
31
0.0
0
LINE
8
RADIAL_LINE
10
1021.8263
20
1075.9843
30
0.0
11
996.8484
21
1074.9338
31
0.0
0
LINE
8
RADIAL_LINE
10
1021.8263
20
1075.9843
30
0.0
11
1020.7758
21
1100.9622
31
0.0
0
TEXT
8
TEXT-LABELS
7
STANDARD
10
1006.8263
20
1070.9843
30
0.0
40
3.0
1
R=25.00'
50
0.0
0
LINE
8
ROW_STREET
10
1003.9080
20
907.0821
30
0.0
11
1004.2021
21
900.0883
31
0.0
0
LINE
8
ROW_STREET
10
1004.2021
20
900.0883
30
0.0
11
1011.1959
21
900.3825
31
0.0
0
TEXT
8
DIM-LABELS
7
STANDARD
10
1006.2021
20
902.0883
30
0.0
40
3.2
1
P.I.
50
0.0
0
LINE
8
RADIAL_LINE
10
1003.1516
20
925.0662
30
0.0
11
1004.2021
21
900.0883
31
0.0
0
LINE
8
RADIAL_LINE
10
1029.1800
20
901.1389
30
0.0
11
1004.2021
21
900.0883
31
0.0
0
LINE
8
RADIAL_LINE
10
1028.1295
20
926.1168
30
0.0
11
1003.1516
21
925.0662
31
0.0
0
LINE
8
RADIAL_LINE
10
1028.1295
20
926.1168
30
0.0
11
1029.1800
21
901.1389
31
0.0
0
TEXT
8
TEXT-LABELS
7
STANDARD
10
1013.1295
20
929.1168
30
0.0
40
3.0
1
R=25.00'
50
0.0
0
LINE
8
ROW_STREET
10
1443.3206
20
826.1361
30
0.0
11
1449.0332
21
822.0906
31
0.0
0
LINE
8
ROW_STREET
10
1449.0332
20
822.0906
30
0.0
11
1453.0788
21
827.8031
31
0.0
0
TEXT
8
DIM-LABELS
7
STANDARD
10
1451.0332
20
824.0906
30
0.0
40
3.2
1
P.I.
50
0.0
0
LINE
8
RADIAL_LINE
10
1428.6312
20
836.5390
30
0.0
11
1449.0332
21
822.0906
31
0.0
0
LINE
8
RADIAL_LINE
10
1463.4816
20
842.4926
30
0.0
11
1449.0332
21
822.0906
31
0.0
0
LINE
8
RADIAL_LINE
10
1414.1828
20
816.1369
30
0.0
11
1428.6312
21
836.5390
31
0.0
0
LINE
8
RADIAL_LINE
10
1414.1828
20
816.1369
30
0.0
11
1463.4816
21
842.4926
31
0.0
0
TEXT
8
TEXT-LABELS
7
STANDARD
10
1417.1828
20
812.1369
30
0.0
40
3.0
1
R=25.00'
50
0.0
0
POINT
8
MONUMENT
10
1097.6195
20
904.0173
30
0.0
0
POLYLINE
8
MONUMENT
66
1
70
1
0
VERTEX
8
MONUMENT
10
1100.1195
20
904.0173
30
0.0
0
VERTEX
8
MONUMENT
10
1099.3873
20
905.7851
30
0.0
0
VERTEX
8
MONUMENT
10
1097.6195
20
906.5173
30
0.0
0
VERTEX
8
MONUMENT
10
1095.8517
20
905.7851
30
0.0
0
VERTEX
8
MONUMENT
10
1095.1195
20
904.0173
30
0.0
0
VERTEX
8
MONUMENT
10
1095.8517
20
902.2495
30
0.0
0
VERTEX
8
MONUMENT
10
1097.6195
20
901.5173
30
0.0
0
VERTEX
8
MONUMENT
10
1099.3873
20
902.2495
30
0.0
0
SEQEND
0
TEXT
8
MONUMENT
7
STANDARD
10
1082.6195
20
896.0173
30
0.0
40
3.8
1
P.R.M. (Lot 33/32)
50
0.0
0
LINE
8
BLOCK_CL
10
1000.0000
20
1000.0000
30
0.0
11
1617.9537
21
1025.9900
31
0.0
0
TEXT
8
BLOCK_CL
7
STANDARD
10
1258.9768
20
1014.9950
30
0.0
40
4.5
1
BLOCK CENTERLINE -- N 87%%d35'30" E - 618.50'
50
0.0
0
LINE
8
STREET_CL
10
994.5373
20
1129.8852
30
0.0
11
1612.4910
21
1155.8751
31
0.0
0
TEXT
8
ROW_STREET
7
STANDARD
10
1253.5141
20
1145.8802
30
0.0
40
5.5
1
SAIL AVENUE (60' R/W) -- N 87%%d35'30" E
50
0.0
0
LINE
8
STREET_CL
10
964.5638
20
1128.6245
30
0.0
11
975.4892
21
868.8542
31
0.0
0
TEXT
8
ROW_STREET
6
ROT_90.00
7
STANDARD
10
955.0265
20
998.7394
30
0.0
40
5.0
1
60' WEST CROSS STREET -- N 02%%d24'30" W
50
90.0
0
LINE
8
STREET_CL
10
1005.4627
20
870.1148
30
0.0
11
1188.5609
21
877.8156
31
0.0
0
TEXT
8
ROW_STREET
7
STANDARD
10
1057.0118
20
862.1148
30
0.0
40
5.0
1
SOUTH STREET (60' R/W) -- N 87%%d35'30" E
50
0.0
0
LINE
8
RADIAL_LINE
10
1203.6577
20
518.8629
30
0.0
11
1187.3002
21
907.7891
31
0.0
0
LINE
8
RADIAL_LINE
10
1203.6577
20
518.8629
30
0.0
11
1272.3438
21
902.0252
31
0.0
0
LINE
8
RADIAL_LINE
10
1203.6577
20
518.8629
30
0.0
11
1354.0941
21
877.8894
31
0.0
0
LINE
8
RADIAL_LINE
10
1203.6577
20
518.8629
30
0.0
11
1428.6312
21
836.5390
31
0.0
0
TEXT
8
DIM-LABELS
7
STANDARD
10
1183.6577
20
548.8629
30
0.0
40
4.0
1
MARINA AVE CURVE R=389.27' (DELTA=37%%d42'50")
50
0.0
0
LINE
8
EASEMENT
10
1548.0199
20
1022.8384
30
0.0
11
1543.8178
21
1122.7501
31
0.0
0
LINE
8
EASEMENT
10
1538.0199
20
1022.8384
30
0.0
11
1533.8178
21
1122.7501
31
0.0
0
TEXT
8
EASEMENT
7
STANDARD
10
1548.9189
20
1072.7942
30
0.0
40
2.8
1
10' EASEMENT
50
0.0
0
TEXT
8
TITLEBLOCK
7
STANDARD
10
1045.7979
20
1179.9117
30
0.0
40
9.0
1
BEACHWOOD UNIT TWO -- BLOCK 16 SURVEY MAPCHECK AUDIT
50
0.0
0
TEXT
8
TITLEBLOCK
7
STANDARD
10
1045.7979
20
1164.9117
30
0.0
40
5.5
1
Plat Book 30, Pages 82 & 82A, Duval County, FL | 100% Survey-Grade Closed (14 Lots)
50
0.0
0
TEXT
8
TITLEBLOCK
7
STANDARD
10
1675.7979
20
1139.9117
30
0.0
40
4.5
1
CURVE TABLE (BLOCK 16)
50
0.0
0
TEXT
8
TABLE_FRAME
7
STANDARD
10
1675.7979
20
1131.9117
30
0.0
40
3.0
1
Tag   | Radius  | Delta      | Arc     | Tan     | Chord   | Chord Bearing
50
0.0
0
LINE
8
TABLE_FRAME
10
1675.7979
20
1129.9117
30
0.0
11
1935.7979
21
1129.9117
31
0.0
0
TEXT
8
TABLE_TEXT
7
STANDARD
10
1675.7979
20
1123.9117
30
0.0
40
2.8
1
C1    | 25.00   | 90%%d00'00"  | 39.27   | 25.00   | 35.36   | N42%%d35'30"E
50
0.0
0
TEXT
8
TABLE_TEXT
7
STANDARD
10
1675.7979
20
1117.9117
30
0.0
40
2.8
1
C2    | 25.00   | 90%%d00'00"  | 39.27   | 25.00   | 35.36   | S47%%d24'30"E
50
0.0
0
TEXT
8
TABLE_TEXT
7
STANDARD
10
1675.7979
20
1111.9117
30
0.0
40
2.8
1
C3    | 389.27  | 12%%d34'17"  | 85.41   | 42.88   | 85.24   | S86%%d07'22"E
50
0.0
0
TEXT
8
TABLE_TEXT
7
STANDARD
10
1675.7979
20
1105.9117
30
0.0
40
2.8
1
C4    | 389.27  | 12%%d34'17"  | 85.41   | 42.88   | 85.24   | S73%%d33'06"E
50
0.0
0
TEXT
8
TABLE_TEXT
7
STANDARD
10
1675.7979
20
1099.9117
30
0.0
40
2.8
1
C5    | 389.27  | 12%%d34'17"  | 85.41   | 42.88   | 85.24   | S60%%d58'49"E
50
0.0
0
TEXT
8
TABLE_TEXT
7
STANDARD
10
1675.7979
20
1093.9117
30
0.0
40
2.8
1
C6    | 25.00   | 90%%d00'00"  | 39.27   | 25.00   | 35.36   | N80%%d18'20"E
50
0.0
0
TEXT
8
TABLE_TEXT
7
STANDARD
10
1675.7979
20
1087.9117
30
0.0
40
2.8
1
C7    | 197.95  | 20%%d00'03"  | 69.10   | 34.91   | 68.75   | N60%%d18'20"E
50
0.0
0
TEXT
8
TABLE_TEXT
7
STANDARD
10
1675.7979
20
1081.9117
30
0.0
40
2.8
1
C8    | 197.95  | 15%%d00'05"  | 51.83   | 26.06   | 51.68   | N42%%d48'20"E
50
0.0
0
TEXT
8
TABLE_TEXT
7
STANDARD
10
1675.7979
20
1075.9117
30
0.0
40
2.8
1
C9    | 197.95  | 17%%d17'15"  | 59.73   | 30.09   | 59.50   | N78%%d56'55"E
50
0.0
0
TEXT
8
TABLE_TEXT
7
STANDARD
10
1675.7979
20
1069.9117
30
0.0
40
2.8
1
C10   | 25.00   | 91%%d42'50"  | 40.02   | 25.76   | 35.88   | S46%%d33'05"E
50
0.0
0
TEXT
8
TABLE_TEXT
7
STANDARD
10
1675.7979
20
1063.9117
30
0.0
40
2.8
1
C11   | 25.00   | 88%%d17'10"  | 38.52   | 24.26   | 34.82   | S43%%d26'55"W
50
0.0
0
TEXT
8
TITLEBLOCK
7
STANDARD
10
1675.7979
20
1042.9117
30
0.0
40
4.5
1
LINE TABLE (BLOCK 16)
50
0.0
0
TEXT
8
TABLE_FRAME
7
STANDARD
10
1675.7979
20
1034.9117
30
0.0
40
3.0
1
Tag   | Bearing        | Dist (ft)  | Description
50
0.0
0
LINE
8
TABLE_FRAME
10
1675.7979
20
1032.9117
30
0.0
11
1935.7979
21
1032.9117
31
0.0
0
TEXT
8
TABLE_TEXT
7
STANDARD
10
1675.7979
20
1026.9117
30
0.0
40
2.6
1
L1    | N02%%d24'30"W    | 75.00      | Lot 1 West Straight to PC
50
0.0
0
TEXT
8
TABLE_TEXT
7
STANDARD
10
1675.7979
20
1021.4117
30
0.0
40
2.6
1
L2    | N87%%d35'30"E    | 68.50      | Lot 1 Sail Ave Straight from PT
50
0.0
0
TEXT
8
TABLE_TEXT
7
STANDARD
10
1675.7979
20
1015.9117
30
0.0
40
2.6
1
L3    | S02%%d24'30"E    | 100.00     | Lot 1/2 Dividing Line
50
0.0
0
TEXT
8
TABLE_TEXT
7
STANDARD
10
1675.7979
20
1010.4117
30
0.0
40
2.6
1
L4    | N87%%d35'30"E    | 75.00      | Lots 2-8 Sail Ave Frontage (each)
50
0.0
0
TEXT
8
TABLE_TEXT
7
STANDARD
10
1675.7979
20
1004.9117
30
0.0
40
2.6
1
L5    | S02%%d24'30"E    | 100.00     | Lots 2-8 Side Dividing Lines (each)
50
0.0
0
TEXT
8
TABLE_TEXT
7
STANDARD
10
1675.7979
20
999.4117
30
0.0
40
2.6
1
L6    | S02%%d24'30"E    | 75.00      | Lot 33 West Straight to PC
50
0.0
0
TEXT
8
TABLE_TEXT
7
STANDARD
10
1675.7979
20
993.9117
30
0.0
40
2.6
1
L7    | N87%%d35'30"E    | 68.50      | Lot 33 South St Straight to PRM
50
0.0
0
TEXT
8
TABLE_TEXT
7
STANDARD
10
1675.7979
20
988.4117
30
0.0
40
2.6
1
L8    | N02%%d24'30"W    | 100.00     | Lot 33/32 Dividing Line (PRM Monument)
50
0.0
0
TEXT
8
TABLE_TEXT
7
STANDARD
10
1675.7979
20
982.9117
30
0.0
40
2.6
1
L9    | N87%%d35'30"E    | 89.76      | Lot 32 South St Frontage to Marina PC
50
0.0
0
TEXT
8
TABLE_TEXT
7
STANDARD
10
1675.7979
20
977.4117
30
0.0
40
2.6
1
L10   | N02%%d24'30"W    | 100.00     | Lot 32/31 Dividing Line (at PC)
50
0.0
0
TEXT
8
TABLE_TEXT
7
STANDARD
10
1675.7979
20
971.9117
30
0.0
40
2.6
1
L11   | S10%%d36'36"W    | 112.21     | Lot 31/30 Dividing Line
50
0.0
0
TEXT
8
TABLE_TEXT
7
STANDARD
10
1675.7979
20
966.4117
30
0.0
40
2.6
1
L12   | S19%%d20'32"W    | 147.37     | Lot 30/29 Dividing Line to Apex
50
0.0
0
TEXT
8
TABLE_TEXT
7
STANDARD
10
1675.7979
20
960.9117
30
0.0
40
2.6
1
L13   | N42%%d48'20"E    | 51.68      | Lot 29 South Frontage from Return PT
50
0.0
0
TEXT
8
TABLE_TEXT
7
STANDARD
10
1675.7979
20
955.4117
30
0.0
40
2.6
1
L14   | S35%%d01'42"E    | 166.73     | Lot 29/28 Dividing Line from Apex
50
0.0
0
TEXT
8
TABLE_TEXT
7
STANDARD
10
1675.7979
20
949.9117
30
0.0
40
2.6
1
L15   | S23%%d01'43"E    | 116.36     | Lot 28/27 Dividing Line
50
0.0
0
TEXT
8
TABLE_TEXT
7
STANDARD
10
1675.7979
20
944.4117
30
0.0
40
2.6
1
L16   | N87%%d35'30"E    | 110.00     | Lot 31, 30, 28 Centerline Rear Lines (each)
50
0.0
0
TEXT
8
TITLEBLOCK
7
STANDARD
10
1675.7979
20
923.9117
30
0.0
40
4.5
1
LOT SUMMARY & CLOSURE AUDIT (F.A.C. 5J-17)
50
0.0
0
TEXT
8
TABLE_FRAME
7
STANDARD
10
1675.7979
20
915.9117
30
0.0
40
3.0
1
Lot   | Perimeter   | Area (SF)   | Acres    | Misclose   | Status
50
0.0
0
LINE
8
TABLE_FRAME
10
1675.7979
20
913.9117
30
0.0
11
1935.7979
21
913.9117
31
0.0
0
TEXT
8
TABLE_TEXT
7
STANDARD
10
1675.7979
20
907.9117
30
0.0
40
2.6
1
1     | 376.27      | 9215.9      | 0.2116   | 0.00000    | PASS (5J-17)
50
0.0
0
TEXT
8
TABLE_TEXT
7
STANDARD
10
1675.7979
20
902.4117
30
0.0
40
2.6
1
2     | 350.00      | 7500.0      | 0.1722   | 0.00000    | PASS (5J-17)
50
0.0
0
TEXT
8
TABLE_TEXT
7
STANDARD
10
1675.7979
20
896.9117
30
0.0
40
2.6
1
3     | 350.00      | 7500.0      | 0.1722   | 0.00000    | PASS (5J-17)
50
0.0
0
TEXT
8
TABLE_TEXT
7
STANDARD
10
1675.7979
20
891.4117
30
0.0
40
2.6
1
4     | 350.00      | 7500.0      | 0.1722   | 0.00000    | PASS (5J-17)
50
0.0
0
TEXT
8
TABLE_TEXT
7
STANDARD
10
1675.7979
20
885.9117
30
0.0
40
2.6
1
5     | 350.00      | 7500.0      | 0.1722   | 0.00000    | PASS (5J-17)
50
0.0
0
TEXT
8
TABLE_TEXT
7
STANDARD
10
1675.7979
20
880.4117
30
0.0
40
2.6
1
6     | 350.00      | 7500.0      | 0.1722   | 0.00000    | PASS (5J-17)
50
0.0
0
TEXT
8
TABLE_TEXT
7
STANDARD
10
1675.7979
20
874.9117
30
0.0
40
2.6
1
7     | 350.00      | 7500.0      | 0.1722   | 0.00000    | PASS (5J-17)
50
0.0
0
TEXT
8
TABLE_TEXT
7
STANDARD
10
1675.7979
20
869.4117
30
0.0
40
2.6
1
8     | 350.00      | 7500.0      | 0.1722   | 0.00000    | PASS (5J-17)
50
0.0
0
TEXT
8
TABLE_TEXT
7
STANDARD
10
1675.7979
20
863.9117
30
0.0
40
2.6
1
9     | 350.00      | 7500.0      | 0.1722   | 0.00000    | PASS (5J-17)
50
0.0
0
TEXT
8
TABLE_TEXT
7
STANDARD
10
1675.7979
20
858.4117
30
0.0
40
2.6
1
10    | 350.00      | 7500.0      | 0.1722   | 0.00000    | PASS (5J-17)
50
0.0
0
TEXT
8
TABLE_TEXT
7
STANDARD
10
1675.7979
20
852.9117
30
0.0
40
2.6
1
11    | 350.00      | 7500.0      | 0.1722   | 0.00000    | PASS (5J-17)
50
0.0
0
TEXT
8
TABLE_TEXT
7
STANDARD
10
1675.7979
20
847.4117
30
0.0
40
2.6
1
12    | 350.00      | 7500.0      | 0.1722   | 0.00000    | PASS (5J-17)
50
0.0
0
TEXT
8
TABLE_TEXT
7
STANDARD
10
1675.7979
20
841.9117
30
0.0
40
2.6
1
13    | 350.00      | 7500.0      | 0.1722   | 0.00000    | PASS (5J-17)
50
0.0
0
TEXT
8
TABLE_TEXT
7
STANDARD
10
1675.7979
20
836.4117
30
0.0
40
2.6
1
14    | 350.00      | 7500.0      | 0.1722   | 0.00000    | PASS (5J-17)
50
0.0
0
TEXT
8
TABLE_TEXT
7
STANDARD
10
1675.7979
20
830.9117
30
0.0
40
2.6
1
15    | 350.00      | 7500.0      | 0.1722   | 0.00000    | PASS (5J-17)
50
0.0
0
TEXT
8
TABLE_TEXT
7
STANDARD
10
1675.7979
20
825.4117
30
0.0
40
2.6
1
16    | 350.00      | 7500.0      | 0.1722   | 0.00000    | PASS (5J-17)
50
0.0
0
TEXT
8
TABLE_TEXT
7
STANDARD
10
1675.7979
20
819.9117
30
0.0
40
2.6
1
17    | 393.07      | 10082.7     | 0.2315   | 0.00000    | PASS (5J-17)
50
0.0
0
TEXT
8
TABLE_TEXT
7
STANDARD
10
1675.7979
20
814.4117
30
0.0
40
2.6
1
33    | 376.27      | 9215.9      | 0.2116   | 0.00000    | PASS (5J-17)
50
0.0
0
TEXT
8
TABLE_TEXT
7
STANDARD
10
1675.7979
20
808.9117
30
0.0
40
2.6
1
32    | 379.52      | 8976.0      | 0.2061   | 0.00000    | PASS (5J-17)
50
0.0
0
TEXT
8
TABLE_TEXT
7
STANDARD
10
1675.7979
20
803.4117
30
0.0
40
2.6
1
31    | 407.63      | 10116.5     | 0.2322   | 0.00000    | PASS (5J-17)
50
0.0
0
TEXT
8
TABLE_TEXT
7
STANDARD
10
1675.7979
20
797.9117
30
0.0
40
2.6
1
30    | 455.00      | 12153.2     | 0.2790   | 0.00000    | PASS (5J-17)
50
0.0
0
TEXT
8
TABLE_TEXT
7
STANDARD
10
1675.7979
20
792.4117
30
0.0
40
2.6
1
29    | 490.62      | 13610.9     | 0.3125   | 0.00000    | PASS (5J-17)
50
0.0
0
TEXT
8
TABLE_TEXT
7
STANDARD
10
1675.7979
20
786.9117
30
0.0
40
2.6
1
28    | 462.19      | 11558.6     | 0.2653   | 0.00000    | PASS (5J-17)
50
0.0
0
TEXT
8
TABLE_TEXT
7
STANDARD
10
1675.7979
20
781.4117
30
0.0
40
2.6
1
27    | 386.76      | 8829.7      | 0.2027   | 0.00000    | PASS (5J-17)
50
0.0
0
TEXT
8
TABLE_TEXT
7
STANDARD
10
1675.7979
20
775.9117
30
0.0
40
2.6
1
26    | 350.00      | 7500.0      | 0.1722   | 0.00000    | PASS (5J-17)
50
0.0
0
TEXT
8
TABLE_TEXT
7
STANDARD
10
1675.7979
20
770.4117
30
0.0
40
2.6
1
25    | 350.00      | 7500.0      | 0.1722   | 0.00000    | PASS (5J-17)
50
0.0
0
TEXT
8
TABLE_TEXT
7
STANDARD
10
1675.7979
20
764.9117
30
0.0
40
2.6
1
24    | 350.00      | 7500.0      | 0.1722   | 0.00000    | PASS (5J-17)
50
0.0
0
TEXT
8
TABLE_TEXT
7
STANDARD
10
1675.7979
20
759.4117
30
0.0
40
2.6
1
23    | 350.00      | 7500.0      | 0.1722   | 0.00000    | PASS (5J-17)
50
0.0
0
TEXT
8
TABLE_TEXT
7
STANDARD
10
1675.7979
20
753.9117
30
0.0
40
2.6
1
22    | 350.00      | 7500.0      | 0.1722   | 0.00000    | PASS (5J-17)
50
0.0
0
TEXT
8
TABLE_TEXT
7
STANDARD
10
1675.7979
20
748.4117
30
0.0
40
2.6
1
21    | 350.00      | 7500.0      | 0.1722   | 0.00000    | PASS (5J-17)
50
0.0
0
TEXT
8
TABLE_TEXT
7
STANDARD
10
1675.7979
20
742.9117
30
0.0
40
2.6
1
20    | 350.00      | 7500.0      | 0.1722   | 0.00000    | PASS (5J-17)
50
0.0
0
TEXT
8
TABLE_TEXT
7
STANDARD
10
1675.7979
20
737.4117
30
0.0
40
2.6
1
19    | 350.00      | 7500.0      | 0.1722   | 0.00000    | PASS (5J-17)
50
0.0
0
TEXT
8
TABLE_TEXT
7
STANDARD
10
1675.7979
20
731.9117
30
0.0
40
2.6
1
18    | 388.59      | 9802.5      | 0.2250   | 0.00000    | PASS (5J-17)
50
0.0
0
ENDSEC
0
EOF
