0
SECTION
2
HEADER
0
ENDSEC
0
SECTION
2
TABLES
0
TABLE
2
LTYPE
70
2
0
LTYPE
2
CONTINUOUS
70
0
3
Solid
72
65
73
0
40
0.0
0
LTYPE
2
DASHED
70
0
3
Dashed
72
65
73
2
40
0.75
49
0.5
74
0
49
-0.25
74
0
0
ENDTAB
0
TABLE
2
LAYER
70
6
0
LAYER
2
0
70
0
62
7
6
CONTINUOUS
0
LAYER
2
LOT_LINE
70
0
62
4
6
CONTINUOUS
0
LAYER
2
LABELS
70
0
62
1
6
CONTINUOUS
0
LAYER
2
VERTEX
70
0
62
2
6
CONTINUOUS
0
LAYER
2
OPEN_BOUNDARY
70
0
62
6
6
DASHED
0
LAYER
2
TITLEBLOCK
70
0
62
2
6
CONTINUOUS
0
ENDTAB
0
ENDSEC
0
SECTION
2
ENTITIES
0
LINE
8
LOT_LINE
10
0.0000
20
0.0000
30
0.0
11
7.1822
21
762.8162
31
0.0
0
TEXT
8
LABELS
10
5.7910
20
381.3874
30
0.0
40
4.5
1
N00°32'22"E
50
89.46055555555556
0
TEXT
8
LABELS
10
1.3912
20
381.4288
30
0.0
40
4.140000000000001
1
762.85'
50
89.46055555555556
0
LINE
8
LOT_LINE
10
0.2979
20
137.8533
30
0.0
11
2.2978
21
137.8345
31
0.0
0
LINE
8
LOT_LINE
10
0.8157
20
192.8509
30
0.0
11
2.8156
21
192.8320
31
0.0
0
LINE
8
LOT_LINE
10
1.3806
20
252.8482
30
0.0
11
3.3805
21
252.8294
31
0.0
0
LINE
8
LOT_LINE
10
1.8984
20
307.8458
30
0.0
11
3.8983
21
307.8269
31
0.0
0
LINE
8
LOT_LINE
10
2.4163
20
362.8433
30
0.0
11
4.4162
21
362.8245
31
0.0
0
LINE
8
LOT_LINE
10
2.9812
20
422.8407
30
0.0
11
4.9811
21
422.8218
31
0.0
0
LINE
8
LOT_LINE
10
3.4990
20
477.8382
30
0.0
11
5.4989
21
477.8194
31
0.0
0
LINE
8
LOT_LINE
10
4.0168
20
532.8358
30
0.0
11
6.0167
21
532.8170
31
0.0
0
LINE
8
LOT_LINE
10
4.5817
20
592.8331
30
0.0
11
6.5816
21
592.8143
31
0.0
0
LINE
8
LOT_LINE
10
5.0995
20
647.8307
30
0.0
11
7.0994
21
647.8119
31
0.0
0
LINE
8
LOT_LINE
10
5.6173
20
702.8283
30
0.0
11
7.6172
21
702.8094
31
0.0
0
TEXT
8
LABELS
10
-0.3510
20
68.9314
30
0.0
40
2.6
1
137.85'
50
89.46055555555556
0
TEXT
8
LABELS
10
0.5568
20
165.3521
30
0.0
40
2.6
1
55.00'
50
89.46055555555556
0
TEXT
8
LABELS
10
1.0982
20
222.8495
30
0.0
40
2.6
1
60.00'
50
89.46055555555556
0
TEXT
8
LABELS
10
1.6395
20
280.3470
30
0.0
40
2.6
1
55.00'
50
89.46055555555556
0
TEXT
8
LABELS
10
2.1573
20
335.3446
30
0.0
40
2.6
1
55.00'
50
89.46055555555556
0
TEXT
8
LABELS
10
2.6987
20
392.8420
30
0.0
40
2.6
1
60.00'
50
89.46055555555556
0
TEXT
8
LABELS
10
3.2401
20
450.3395
30
0.0
40
2.6
1
55.00'
50
89.46055555555556
0
TEXT
8
LABELS
10
3.7579
20
505.3370
30
0.0
40
2.6
1
55.00'
50
89.46055555555556
0
TEXT
8
LABELS
10
4.2992
20
562.8345
30
0.0
40
2.6
1
60.00'
50
89.46055555555556
0
TEXT
8
LABELS
10
4.8406
20
620.3319
30
0.0
40
2.6
1
55.00'
50
89.46055555555556
0
TEXT
8
LABELS
10
5.3584
20
675.3295
30
0.0
40
2.6
1
55.00'
50
89.46055555555556
0
TEXT
8
LABELS
10
5.8998
20
732.8269
30
0.0
40
2.6
1
60.00'
50
89.46055555555556
0
LINE
8
LOT_LINE
10
0.0000
20
0.0000
30
0.0
11
119.7147
21
1.1272
31
0.0
0
TEXT
8
LABELS
10
59.8696
20
-0.7364
30
0.0
40
3.0
1
N89°27'38"E
50
0.5394444444444275
0
TEXT
8
LABELS
10
59.8451
20
1.8635
30
0.0
40
2.7600000000000002
1
119.72'
50
0.5394444444444275
0
LINE
8
LOT_LINE
10
-0.0141
20
1.4999
30
0.0
11
0.0141
21
-1.4999
31
0.0
0
LINE
8
LOT_LINE
10
119.7006
20
2.6271
30
0.0
11
119.7288
21
-0.3728
31
0.0
0
TEXT
8
LABELS
10
26.3375
20
42.3237
30
0.0
40
6.5
1
137
50
0.0
0
TEXT
8
LABELS
10
26.3375
20
34.3237
30
0.0
40
2.2
1
AREA: rear boundary
50
0.0
0
TEXT
8
LABELS
10
26.3375
20
31.3237
30
0.0
40
2.2
1
not yet confirmed
50
0.0
0
LINE
8
LOT_LINE
10
1.2978
20
137.8439
30
0.0
11
121.2925
21
138.9737
31
0.0
0
TEXT
8
LABELS
10
61.3074
20
137.1088
30
0.0
40
3.0
1
N89°27'38"E
50
0.5394444444444275
0
TEXT
8
LABELS
10
61.2830
20
139.7087
30
0.0
40
2.7600000000000002
1
120.00'
50
0.5394444444444275
0
LINE
8
LOT_LINE
10
1.2837
20
139.3438
30
0.0
11
1.3120
21
136.3440
31
0.0
0
LINE
8
LOT_LINE
10
121.2784
20
140.4736
30
0.0
11
121.3067
21
137.4737
31
0.0
0
TEXT
8
LABELS
10
27.4687
20
152.5530
30
0.0
40
6.5
1
136
50
0.0
0
TEXT
8
LABELS
10
27.4687
20
144.5530
30
0.0
40
2.2
1
AREA: rear boundary
50
0.0
0
TEXT
8
LABELS
10
27.4687
20
141.5530
30
0.0
40
2.2
1
not yet confirmed
50
0.0
0
LINE
8
LOT_LINE
10
1.8157
20
192.8415
30
0.0
11
119.5605
21
193.9501
31
0.0
0
TEXT
8
LABELS
10
60.7003
20
192.0958
30
0.0
40
3.0
1
N89°27'38"E
50
0.5394444444444275
0
TEXT
8
LABELS
10
60.6758
20
194.6957
30
0.0
40
2.7600000000000002
1
117.75'
50
0.5394444444444275
0
LINE
8
LOT_LINE
10
1.8015
20
194.3414
30
0.0
11
1.8298
21
191.3415
31
0.0
0
LINE
8
LOT_LINE
10
119.5463
20
195.4500
30
0.0
11
119.5746
21
192.4501
31
0.0
0
TEXT
8
LABELS
10
27.2522
20
209.2101
30
0.0
40
6.5
1
135
50
0.0
0
TEXT
8
LABELS
10
27.2522
20
201.2101
30
0.0
40
2.2
1
AREA: rear boundary
50
0.0
0
TEXT
8
LABELS
10
27.2522
20
198.2101
30
0.0
40
2.2
1
not yet confirmed
50
0.0
0
LINE
8
LOT_LINE
10
2.3806
20
252.8388
30
0.0
11
109.1658
21
253.8442
31
0.0
0
TEXT
8
LABELS
10
55.7854
20
252.0416
30
0.0
40
3.0
1
N89°27'38"E
50
0.5394444444444275
0
TEXT
8
LABELS
10
55.7610
20
254.6414
30
0.0
40
2.7600000000000002
1
106.79'
50
0.5394444444444275
0
LINE
8
LOT_LINE
10
2.3664
20
254.3387
30
0.0
11
2.3947
21
251.3389
31
0.0
0
LINE
8
LOT_LINE
10
109.1517
20
255.3441
30
0.0
11
109.1800
21
252.3443
31
0.0
0
TEXT
8
LABELS
10
24.1483
20
267.5065
30
0.0
40
6.5
1
134
50
0.0
0
TEXT
8
LABELS
10
24.1483
20
259.5065
30
0.0
40
2.2
1
AREA: rear boundary
50
0.0
0
TEXT
8
LABELS
10
24.1483
20
256.5065
30
0.0
40
2.2
1
not yet confirmed
50
0.0
0
LINE
8
LOT_LINE
10
2.8984
20
307.8364
30
0.0
11
102.9340
21
308.7782
31
0.0
0
TEXT
8
LABELS
10
52.9284
20
307.0073
30
0.0
40
3.0
1
N89°27'38"E
50
0.5394444444444417
0
TEXT
8
LABELS
10
52.9039
20
309.6072
30
0.0
40
2.7600000000000002
1
100.04'
50
0.5394444444444417
0
LINE
8
LOT_LINE
10
2.8843
20
309.3363
30
0.0
11
2.9125
21
306.3364
31
0.0
0
LINE
8
LOT_LINE
10
102.9198
20
310.2782
30
0.0
11
102.9481
21
307.2783
31
0.0
0
TEXT
8
LABELS
10
22.4162
20
322.4828
30
0.0
40
6.5
1
133
50
0.0
0
TEXT
8
LABELS
10
22.4162
20
314.4828
30
0.0
40
2.2
1
AREA: rear boundary
50
0.0
0
TEXT
8
LABELS
10
22.4162
20
311.4828
30
0.0
40
2.2
1
not yet confirmed
50
0.0
0
LINE
8
LOT_LINE
10
3.4162
20
362.8339
30
0.0
11
101.0719
21
363.7534
31
0.0
0
TEXT
8
LABELS
10
52.2563
20
361.9937
30
0.0
40
3.0
1
N89°27'38"E
50
0.5394444444444275
0
TEXT
8
LABELS
10
52.2318
20
364.5936
30
0.0
40
2.7600000000000002
1
97.66'
50
0.5394444444444275
0
LINE
8
LOT_LINE
10
3.4021
20
364.3339
30
0.0
11
3.4303
21
361.3340
31
0.0
0
LINE
8
LOT_LINE
10
101.0578
20
365.2533
30
0.0
11
101.0860
21
362.2534
31
0.0
0
TEXT
8
LABELS
10
22.1564
20
379.1395
30
0.0
40
6.5
1
132
50
0.0
0
TEXT
8
LABELS
10
22.1564
20
371.1395
30
0.0
40
2.2
1
AREA: rear boundary
50
0.0
0
TEXT
8
LABELS
10
22.1564
20
368.1395
30
0.0
40
2.2
1
not yet confirmed
50
0.0
0
LINE
8
LOT_LINE
10
3.9811
20
422.8313
30
0.0
11
103.8867
21
423.7719
31
0.0
0
TEXT
8
LABELS
10
53.9461
20
422.0016
30
0.0
40
3.0
1
N89°27'38"E
50
0.5394444444444275
0
TEXT
8
LABELS
10
53.9217
20
424.6015
30
0.0
40
2.7600000000000002
1
99.91'
50
0.5394444444444275
0
LINE
8
LOT_LINE
10
3.9670
20
424.3312
30
0.0
11
3.9952
21
421.3313
31
0.0
0
LINE
8
LOT_LINE
10
103.8726
20
425.2718
30
0.0
11
103.9008
21
422.2720
31
0.0
0
TEXT
8
LABELS
10
23.4556
20
437.4773
30
0.0
40
6.5
1
131
50
0.0
0
TEXT
8
LABELS
10
23.4556
20
429.4773
30
0.0
40
2.2
1
AREA: rear boundary
50
0.0
0
TEXT
8
LABELS
10
23.4556
20
426.4773
30
0.0
40
2.2
1
not yet confirmed
50
0.0
0
LINE
8
LOT_LINE
10
4.4989
20
477.8288
30
0.0
11
108.0243
21
478.8035
31
0.0
0
TEXT
8
LABELS
10
56.2739
20
477.0162
30
0.0
40
3.0
1
N89°27'38"E
50
0.5394444444444417
0
TEXT
8
LABELS
10
56.2494
20
479.6161
30
0.0
40
2.7600000000000002
1
103.53'
50
0.5394444444444417
0
LINE
8
LOT_LINE
10
4.4848
20
479.3288
30
0.0
11
4.5131
21
476.3289
31
0.0
0
LINE
8
LOT_LINE
10
108.0102
20
480.3035
30
0.0
11
108.0385
21
477.3036
31
0.0
0
TEXT
8
LABELS
10
25.1800
20
492.4863
30
0.0
40
6.5
1
130
50
0.0
0
TEXT
8
LABELS
10
25.1800
20
484.4863
30
0.0
40
2.2
1
AREA: rear boundary
50
0.0
0
TEXT
8
LABELS
10
25.1800
20
481.4863
30
0.0
40
2.2
1
not yet confirmed
50
0.0
0
LINE
8
LOT_LINE
10
5.0168
20
532.8264
30
0.0
11
112.4820
21
533.8382
31
0.0
0
TEXT
8
LABELS
10
58.7616
20
532.0324
30
0.0
40
3.0
1
N89°27'38"E
50
0.5394444444444417
0
TEXT
8
LABELS
10
58.7371
20
534.6322
30
0.0
40
2.7600000000000002
1
107.47'
50
0.5394444444444417
0
LINE
8
LOT_LINE
10
5.0026
20
534.3263
30
0.0
11
5.0309
21
531.3264
31
0.0
0
LINE
8
LOT_LINE
10
112.4679
20
535.3381
30
0.0
11
112.4961
21
532.3383
31
0.0
0
TEXT
8
LABELS
10
27.0268
20
549.1628
30
0.0
40
6.5
1
129
50
0.0
0
TEXT
8
LABELS
10
27.0268
20
541.1628
30
0.0
40
2.2
1
AREA: rear boundary
50
0.0
0
TEXT
8
LABELS
10
27.0268
20
538.1628
30
0.0
40
2.2
1
not yet confirmed
50
0.0
0
LINE
8
LOT_LINE
10
5.5816
20
592.8237
30
0.0
11
116.6567
21
593.8695
31
0.0
0
TEXT
8
LABELS
10
61.1314
20
592.0467
30
0.0
40
3.0
1
N89°27'38"E
50
0.5394444444444133
0
TEXT
8
LABELS
10
61.1069
20
594.6466
30
0.0
40
2.7600000000000002
1
111.08'
50
0.5394444444444133
0
LINE
8
LOT_LINE
10
5.5675
20
594.3237
30
0.0
11
5.5958
21
591.3238
31
0.0
0
LINE
8
LOT_LINE
10
116.6426
20
595.3695
30
0.0
11
116.6708
21
592.3696
31
0.0
0
TEXT
8
LABELS
10
28.7793
20
607.5048
30
0.0
40
6.5
1
128
50
0.0
0
TEXT
8
LABELS
10
28.7793
20
599.5048
30
0.0
40
2.2
1
AREA: rear boundary
50
0.0
0
TEXT
8
LABELS
10
28.7793
20
596.5048
30
0.0
40
2.2
1
not yet confirmed
50
0.0
0
LINE
8
LOT_LINE
10
6.0995
20
647.8213
30
0.0
11
120.7944
21
648.9012
31
0.0
0
TEXT
8
LABELS
10
63.4592
20
647.0613
30
0.0
40
3.0
1
N89°27'38"E
50
0.5394444444444275
0
TEXT
8
LABELS
10
63.4347
20
649.6612
30
0.0
40
2.7600000000000002
1
114.70'
50
0.5394444444444275
0
LINE
8
LOT_LINE
10
6.0853
20
649.3212
30
0.0
11
6.1136
21
646.3214
31
0.0
0
LINE
8
LOT_LINE
10
120.7803
20
650.4011
30
0.0
11
120.8085
21
647.4012
31
0.0
0
TEXT
8
LABELS
10
30.5037
20
662.5138
30
0.0
40
6.5
1
127
50
0.0
0
TEXT
8
LABELS
10
30.5037
20
654.5138
30
0.0
40
2.2
1
AREA: rear boundary
50
0.0
0
TEXT
8
LABELS
10
30.5037
20
651.5138
30
0.0
40
2.2
1
not yet confirmed
50
0.0
0
LINE
8
LOT_LINE
10
6.6173
20
702.8188
30
0.0
11
125.2520
21
703.9358
31
0.0
0
TEXT
8
LABELS
10
65.9469
20
702.0774
30
0.0
40
3.0
1
N89°27'38"E
50
0.5394444444444275
0
TEXT
8
LABELS
10
65.9224
20
704.6773
30
0.0
40
2.7600000000000002
1
118.64'
50
0.5394444444444275
0
LINE
8
LOT_LINE
10
6.6032
20
704.3188
30
0.0
11
6.6314
21
701.3189
31
0.0
0
LINE
8
LOT_LINE
10
125.2379
20
705.4358
30
0.0
11
125.2662
21
702.4359
31
0.0
0
TEXT
8
LABELS
10
32.3505
20
719.1903
30
0.0
40
6.5
1
126
50
0.0
0
TEXT
8
LABELS
10
32.3505
20
711.1903
30
0.0
40
2.2
1
AREA: rear boundary
50
0.0
0
TEXT
8
LABELS
10
32.3505
20
708.1903
30
0.0
40
2.2
1
not yet confirmed
50
0.0
0
TEXT
8
LABELS
10
20.0000
20
-55.0000
30
0.0
40
5.0
1
MARITIME OAK DRIVE
50
0.0
0
TEXT
8
LABELS
10
20.0000
20
-62.0000
30
0.0
40
3.4
1
(50' RIGHT OF WAY)
50
0.0
0
TEXT
8
LABELS
10
20.0000
20
-75.0000
30
0.0
40
5.0
1
TIMBER BRIDGE LANE
50
0.0
0
TEXT
8
LABELS
10
20.0000
20
-82.0000
30
0.0
40
3.4
1
(50' RIGHT OF WAY)
50
0.0
0
TEXT
8
LABELS
10
20.0000
20
-95.0000
30
0.0
40
5.0
1
ATLANTIC BEACH DRIVE
50
0.0
0
TEXT
8
LABELS
10
20.0000
20
-102.0000
30
0.0
40
3.4
1
(50' RIGHT OF WAY)  [sheet 6]
50
0.0
0
POINT
8
VERTEX
10
0.0000
20
0.0000
30
0.0
0
POINT
8
VERTEX
10
1.2978
20
137.8439
30
0.0
0
POINT
8
VERTEX
10
1.8157
20
192.8415
30
0.0
0
POINT
8
VERTEX
10
2.3806
20
252.8388
30
0.0
0
POINT
8
VERTEX
10
2.8984
20
307.8364
30
0.0
0
POINT
8
VERTEX
10
3.4162
20
362.8339
30
0.0
0
POINT
8
VERTEX
10
3.9811
20
422.8313
30
0.0
0
POINT
8
VERTEX
10
4.4989
20
477.8288
30
0.0
0
POINT
8
VERTEX
10
5.0168
20
532.8264
30
0.0
0
POINT
8
VERTEX
10
5.5816
20
592.8237
30
0.0
0
POINT
8
VERTEX
10
6.0995
20
647.8213
30
0.0
0
POINT
8
VERTEX
10
6.6173
20
702.8188
30
0.0
0
POINT
8
VERTEX
10
7.1822
20
762.8162
30
0.0
0
POINT
8
VERTEX
10
119.7147
20
1.1272
30
0.0
0
POINT
8
VERTEX
10
121.2925
20
138.9737
30
0.0
0
POINT
8
VERTEX
10
119.5605
20
193.9501
30
0.0
0
POINT
8
VERTEX
10
109.1658
20
253.8442
30
0.0
0
POINT
8
VERTEX
10
102.9340
20
308.7782
30
0.0
0
POINT
8
VERTEX
10
101.0719
20
363.7534
30
0.0
0
POINT
8
VERTEX
10
103.8867
20
423.7719
30
0.0
0
POINT
8
VERTEX
10
108.0243
20
478.8035
30
0.0
0
POINT
8
VERTEX
10
112.4820
20
533.8382
30
0.0
0
POINT
8
VERTEX
10
116.6567
20
593.8695
30
0.0
0
POINT
8
VERTEX
10
120.7944
20
648.9012
30
0.0
0
POINT
8
VERTEX
10
125.2520
20
703.9358
30
0.0
0
LINE
8
OPEN_BOUNDARY
10
119.7147
20
1.1272
30
0.0
11
125.2520
21
703.9358
31
0.0
0
TEXT
8
OPEN_BOUNDARY
10
122.4834
20
342.5315
30
0.0
40
4
1
REAR BOUNDARY NOT YET CONFIRMED -- see title block
50
0.0
0
TEXT
8
TITLEBLOCK
10
-60.0000
20
220.0000
30
0.0
40
8
1
ATLANTIC BEACH CC UNIT 2, SHEET 3, BLOCK A -- SHARED-VERTEX NETWORK
50
0.0
0
TEXT
8
TITLEBLOCK
10
-60.0000
20
204.0000
30
0.0
40
6
1

50
0.0
0
TEXT
8
TITLEBLOCK
10
-60.0000
20
188.0000
30
0.0
40
6
1
FIX APPLIED: every lot corner is ONE vertex, referenced by both
50
0.0
0
TEXT
8
TITLEBLOCK
10
-60.0000
20
172.0000
30
0.0
40
6
1
adjacent lots -- not two independently-computed near-duplicate points.
50
0.0
0
TEXT
8
TITLEBLOCK
10
-60.0000
20
156.0000
30
0.0
40
6
1
13 front vertices (F0-F12) + 12 side vertices (S0-S11) = 25 total,
50
0.0
0
TEXT
8
TITLEBLOCK
10
-60.0000
20
140.0000
30
0.0
40
6
1
each created exactly once. Yellow points mark every vertex.
50
0.0
0
TEXT
8
TITLEBLOCK
10
-60.0000
20
124.0000
30
0.0
40
6
1

50
0.0
0
TEXT
8
TITLEBLOCK
10
-60.0000
20
108.0000
30
0.0
40
6
1
CONFIRMED EXACT:
50
0.0
0
TEXT
8
TITLEBLOCK
10
-60.0000
20
92.0000
30
0.0
40
6
1
  front: 12 widths + 10.00' = 772.85' vs stated (EXACT)
50
0.0
0
TEXT
8
TITLEBLOCK
10
-60.0000
20
76.0000
30
0.0
40
6
1
  front/side perpendicularity: 90.000000 deg (EXACT)
50
0.0
0
TEXT
8
TITLEBLOCK
10
-60.0000
20
60.0000
30
0.0
40
6
1
  rear curve data (C195-201): both R=700' and R=150' chains pass
50
0.0
0
TEXT
8
TITLEBLOCK
10
-60.0000
20
44.0000
30
0.0
40
6
1
  independent L/chord validation
50
0.0
0
TEXT
8
TITLEBLOCK
10
-60.0000
20
28.0000
30
0.0
40
6
1

50
0.0
0
TEXT
8
TITLEBLOCK
10
-60.0000
20
12.0000
30
0.0
40
6
1
NOT YET CLOSED -- stated, not estimated:
50
0.0
0
TEXT
8
TITLEBLOCK
10
-60.0000
20
-4.0000
30
0.0
40
6
1
  Rear boundary station-to-lot assignment is not confirmed. NO lot
50
0.0
0
TEXT
8
TITLEBLOCK
10
-60.0000
20
-20.0000
30
0.0
40
6
1
  in this block has a computed square footage this pass. Drawing a
50
0.0
0
TEXT
8
TITLEBLOCK
10
-60.0000
20
-36.0000
30
0.0
40
6
1
  rear line without that confirmation would repeat the fabrication
50
0.0
0
TEXT
8
TITLEBLOCK
10
-60.0000
20
-52.0000
30
0.0
40
6
1
  error this project already corrected once (see MASTER_PROMPT
50
0.0
0
TEXT
8
TITLEBLOCK
10
-60.0000
20
-68.0000
30
0.0
40
6
1
  Iter 18). Next step: re-crop the C195-201 region at higher
50
0.0
0
TEXT
8
TITLEBLOCK
10
-60.0000
20
-84.0000
30
0.0
40
6
1
  magnification specifically to find the P.C./P.T. tie distances
50
0.0
0
TEXT
8
TITLEBLOCK
10
-60.0000
20
-100.0000
30
0.0
40
6
1
  from each lot's side-line endpoint to its curve station.
50
0.0
0
ENDSEC
0
EOF
