0
SECTION
2
HEADER
9
$ACADVER
1
AC1009
9
$DWGCODEPAGE
3
ANSI_1252
0
ENDSEC
0
SECTION
2
TABLES
0
TABLE
2
LTYPE
70
11
0
LTYPE
2
CONTINUOUS
70
0
3
Solid
72
65
73
0
40
0.0
0
LTYPE
2
DASHED
70
0
3
Dashed
72
65
73
2
40
0.75
49
0.5
74
0
49
-0.25
74
0
0
LTYPE
2
DASHED2
70
0
3
Dashed (.5x)
72
65
73
2
40
0.375
49
0.25
74
0
49
-0.125
74
0
0
LTYPE
2
HIDDEN
70
0
3
Hidden
72
65
73
2
40
0.375
49
0.25
74
0
49
-0.125
74
0
0
LTYPE
2
CENTER
70
0
3
Center
72
65
73
4
40
2.0
49
1.25
74
0
49
-0.25
74
0
49
0.25
74
0
49
-0.25
74
0
0
LTYPE
2
PHANTOM
70
0
3
Phantom
72
65
73
6
40
2.5
49
1.25
74
0
49
-0.25
74
0
49
0.25
74
0
49
-0.25
74
0
49
0.25
74
0
49
-0.25
74
0
0
LTYPE
2
ROT_0.69
70
0
3
Solid
72
65
73
0
40
0.0
0
LTYPE
2
ROT_1.03
70
0
3
Solid
72
65
73
0
40
0.0
0
LTYPE
2
ROT_271.03
70
0
3
Solid
72
65
73
0
40
0.0
0
LTYPE
2
ROT_316.03
70
0
3
Solid
72
65
73
0
40
0.0
0
LTYPE
2
ROT_45.86
70
0
3
Solid
72
65
73
0
40
0.0
0
ENDTAB
0
TABLE
2
LAYER
70
6
0
LAYER
2
0
70
0
62
7
6
CONTINUOUS
0
LAYER
2
LOT_POLYLINE
70
0
62
4
6
CONTINUOUS
0
LAYER
2
SHEET_LABELS
70
0
62
7
6
CONTINUOUS
0
LAYER
2
SHEET_FRAME
70
0
62
2
6
CONTINUOUS
0
LAYER
2
ERROR
70
0
62
1
6
CONTINUOUS
0
LAYER
2
TITLEBLOCK
70
0
62
2
6
CONTINUOUS
0
ENDTAB
0
TABLE
2
STYLE
70
4
0
STYLE
2
STANDARD
70
0
40
0.0
41
1.0
50
0.0
71
0
42
0.2
3
Arial
4

0
STYLE
2
ARIAL
70
0
40
0.0
41
1.0
50
0.0
71
0
42
0.2
3
Arial
4

0
STYLE
2
ARIAL_TTF
70
0
40
0.0
41
1.0
50
0.0
71
0
42
0.2
3
arial.ttf
4

0
STYLE
2
SIMPLEX
70
0
40
0.0
41
1.0
50
0.0
71
0
42
0.2
3
simplex.shx
4

0
ENDTAB
0
ENDSEC
0
SECTION
2
ENTITIES
0
LINE
8
SHEET_FRAME
10
0.0000
20
0.0000
30
0.0
11
300.0000
21
0.0000
31
0.0
0
LINE
8
SHEET_FRAME
10
300.0000
20
0.0000
30
0.0
11
300.0000
21
260.0000
31
0.0
0
LINE
8
SHEET_FRAME
10
300.0000
20
260.0000
30
0.0
11
0.0000
21
260.0000
31
0.0
0
LINE
8
SHEET_FRAME
10
0.0000
20
260.0000
30
0.0
11
0.0000
21
0.0000
31
0.0
0
POLYLINE
8
LOT_POLYLINE
66
1
70
1
0
VERTEX
8
LOT_POLYLINE
10
28.9000
20
26.0000
30
0.0
0
VERTEX
8
LOT_POLYLINE
10
26.0000
20
187.6507
30
0.0
0
VERTEX
8
LOT_POLYLINE
10
147.2381
20
189.8258
30
0.0
0
VERTEX
8
LOT_POLYLINE
10
188.3758
20
150.1381
30
0.0
0
VERTEX
8
LOT_POLYLINE
10
190.5508
20
28.9000
30
0.0
0
SEQEND
0
POLYLINE
8
LOT_POLYLINE
66
1
70
0
0
VERTEX
8
LOT_POLYLINE
10
26.0000
20
187.6507
30
0.0
0
VERTEX
8
LOT_POLYLINE
10
28.8908
20
190.3668
30
0.0
0
VERTEX
8
LOT_POLYLINE
10
32.0338
20
192.7864
30
0.0
0
VERTEX
8
LOT_POLYLINE
10
35.3989
20
194.8864
30
0.0
0
VERTEX
8
LOT_POLYLINE
10
38.9537
20
196.6463
30
0.0
0
VERTEX
8
LOT_POLYLINE
10
42.6638
20
198.0494
30
0.0
0
VERTEX
8
LOT_POLYLINE
10
46.4935
20
199.0820
30
0.0
0
VERTEX
8
LOT_POLYLINE
10
50.4061
20
199.7343
30
0.0
0
VERTEX
8
LOT_POLYLINE
10
54.3637
20
200.0000
30
0.0
0
VERTEX
8
LOT_POLYLINE
10
58.3284
20
199.8765
30
0.0
0
VERTEX
8
LOT_POLYLINE
10
62.2618
20
199.3649
30
0.0
0
VERTEX
8
LOT_POLYLINE
10
66.1261
20
198.4703
30
0.0
0
VERTEX
8
LOT_POLYLINE
10
69.8842
20
197.2012
30
0.0
0
VERTEX
8
LOT_POLYLINE
10
73.4997
20
195.5699
30
0.0
0
VERTEX
8
LOT_POLYLINE
10
76.9380
20
193.5920
30
0.0
0
VERTEX
8
LOT_POLYLINE
10
80.1658
20
191.2867
30
0.0
0
VERTEX
8
LOT_POLYLINE
10
83.1522
20
188.6761
30
0.0
0
SEQEND
0
TEXT
8
SHEET_LABELS
6
ROT_271.03
7
STANDARD
10
30.4495
20
106.8792
30
0.0
40
3.4
1
N01%%d01'40.00"W
50
271.03
0
TEXT
8
SHEET_LABELS
6
ROT_271.03
7
STANDARD
10
24.4505
20
106.7716
30
0.0
40
3.2
1
100.00'
50
271.03
0
POINT
8
SHEET_LABELS
10
28.9000
20
26.0000
30
0.0
0
TEXT
8
SHEET_LABELS
6
ROT_1.03
7
STANDARD
10
86.6728
20
185.7387
30
0.0
40
3.4
1
N88%%d58'20.00"E
50
1.03
0
TEXT
8
SHEET_LABELS
6
ROT_1.03
7
STANDARD
10
86.5652
20
191.7378
30
0.0
40
3.2
1
75.00'
50
1.03
0
POINT
8
SHEET_LABELS
10
26.0000
20
187.6507
30
0.0
0
TEXT
8
SHEET_LABELS
6
ROT_316.03
7
STANDARD
10
169.8898
20
172.1410
30
0.0
40
3.4
1
S46%%d01'40.00"E
50
316.03
0
TEXT
8
SHEET_LABELS
6
ROT_316.03
7
STANDARD
10
165.7240
20
167.8229
30
0.0
40
3.2
1
35.36'
50
316.03
0
POINT
8
SHEET_LABELS
10
147.2381
20
189.8258
30
0.0
0
TEXT
8
SHEET_LABELS
6
ROT_271.03
7
STANDARD
10
192.4628
20
89.5729
30
0.0
40
3.4
1
S01%%d01'40.00"E
50
271.03
0
TEXT
8
SHEET_LABELS
6
ROT_271.03
7
STANDARD
10
186.4637
20
89.4652
30
0.0
40
3.2
1
75.00'
50
271.03
0
POINT
8
SHEET_LABELS
10
188.3758
20
150.1381
30
0.0
0
TEXT
8
SHEET_LABELS
6
ROT_1.03
7
STANDARD
10
109.7792
20
24.4505
30
0.0
40
3.4
1
S88%%d58'20.00"W
50
1.03
0
TEXT
8
SHEET_LABELS
6
ROT_1.03
7
STANDARD
10
109.6716
20
30.4495
30
0.0
40
3.2
1
100.00'
50
1.03
0
POINT
8
SHEET_LABELS
10
190.5508
20
28.9000
30
0.0
0
TEXT
8
SHEET_LABELS
7
STANDARD
10
8.0000
20
250.0000
30
0.0
40
8.0
1
LOT Blk 13 - Lot 1   PASS
50
0.0
0
TEXT
8
SHEET_LABELS
7
STANDARD
10
8.0000
20
239.0000
30
0.0
40
4.6
1
AREA 9,866 SF (0.226 ac)
50
0.0
0
TEXT
8
SHEET_LABELS
7
STANDARD
10
8.0000
20
232.0000
30
0.0
40
4.0
1
PERIMETER 385.36'   VERTICES 5   CLOSING SIDE 0.00'
50
0.0
0
TEXT
8
SHEET_LABELS
7
STANDARD
10
8.0000
20
225.0000
30
0.0
40
3.4
1
all geometric checks passed: closed single polyline, no self-intersection, no overlap, no spikes
50
0.0
0
LINE
8
SHEET_FRAME
10
340.0000
20
0.0000
30
0.0
11
640.0000
21
0.0000
31
0.0
0
LINE
8
SHEET_FRAME
10
640.0000
20
0.0000
30
0.0
11
640.0000
21
260.0000
31
0.0
0
LINE
8
SHEET_FRAME
10
640.0000
20
260.0000
30
0.0
11
340.0000
21
260.0000
31
0.0
0
LINE
8
SHEET_FRAME
10
340.0000
20
260.0000
30
0.0
11
340.0000
21
0.0000
31
0.0
0
POLYLINE
8
LOT_POLYLINE
66
1
70
1
0
VERTEX
8
LOT_POLYLINE
10
369.0507
20
26.0000
30
0.0
0
VERTEX
8
LOT_POLYLINE
10
366.0000
20
196.0509
30
0.0
0
VERTEX
8
LOT_POLYLINE
10
586.1306
20
200.0000
30
0.0
0
VERTEX
8
LOT_POLYLINE
10
589.1813
20
29.9491
30
0.0
0
SEQEND
0
TEXT
8
SHEET_LABELS
6
ROT_271.03
7
STANDARD
10
370.5249
20
111.0792
30
0.0
40
3.4
1
N01%%d01'40.00"W
50
271.03
0
TEXT
8
SHEET_LABELS
6
ROT_271.03
7
STANDARD
10
364.5258
20
110.9716
30
0.0
40
3.2
1
77.25'
50
271.03
0
POINT
8
SHEET_LABELS
10
369.0507
20
26.0000
30
0.0
0
TEXT
8
SHEET_LABELS
6
ROT_1.03
7
STANDARD
10
476.1191
20
195.0259
30
0.0
40
3.4
1
N88%%d58'20.00"E
50
1.03
0
TEXT
8
SHEET_LABELS
6
ROT_1.03
7
STANDARD
10
476.0115
20
201.0249
30
0.0
40
3.2
1
100.00'
50
1.03
0
POINT
8
SHEET_LABELS
10
366.0000
20
196.0509
30
0.0
0
TEXT
8
SHEET_LABELS
6
ROT_271.03
7
STANDARD
10
590.6554
20
115.0284
30
0.0
40
3.4
1
S01%%d01'40.00"E
50
271.03
0
TEXT
8
SHEET_LABELS
6
ROT_271.03
7
STANDARD
10
584.6564
20
114.9208
30
0.0
40
3.2
1
77.25'
50
271.03
0
POINT
8
SHEET_LABELS
10
586.1306
20
200.0000
30
0.0
0
TEXT
8
SHEET_LABELS
6
ROT_1.03
7
STANDARD
10
479.1698
20
24.9751
30
0.0
40
3.4
1
S88%%d58'20.00"W
50
1.03
0
TEXT
8
SHEET_LABELS
6
ROT_1.03
7
STANDARD
10
479.0622
20
30.9741
30
0.0
40
3.2
1
100.00'
50
1.03
0
POINT
8
SHEET_LABELS
10
589.1813
20
29.9491
30
0.0
0
TEXT
8
SHEET_LABELS
7
STANDARD
10
348.0000
20
250.0000
30
0.0
40
8.0
1
LOT Blk 13 - Lot 2   PASS
50
0.0
0
TEXT
8
SHEET_LABELS
7
STANDARD
10
348.0000
20
239.0000
30
0.0
40
4.6
1
AREA 7,725 SF (0.177 ac)
50
0.0
0
TEXT
8
SHEET_LABELS
7
STANDARD
10
348.0000
20
232.0000
30
0.0
40
4.0
1
PERIMETER 354.50'   VERTICES 4   CLOSING SIDE 0.00'
50
0.0
0
TEXT
8
SHEET_LABELS
7
STANDARD
10
348.0000
20
225.0000
30
0.0
40
3.4
1
all geometric checks passed: closed single polyline, no self-intersection, no overlap, no spikes
50
0.0
0
LINE
8
SHEET_FRAME
10
680.0000
20
0.0000
30
0.0
11
980.0000
21
0.0000
31
0.0
0
LINE
8
SHEET_FRAME
10
980.0000
20
0.0000
30
0.0
11
980.0000
21
260.0000
31
0.0
0
LINE
8
SHEET_FRAME
10
980.0000
20
260.0000
30
0.0
11
680.0000
21
260.0000
31
0.0
0
LINE
8
SHEET_FRAME
10
680.0000
20
260.0000
30
0.0
11
680.0000
21
0.0000
31
0.0
0
POLYLINE
8
LOT_POLYLINE
66
1
70
1
0
VERTEX
8
LOT_POLYLINE
10
709.0507
20
26.0000
30
0.0
0
VERTEX
8
LOT_POLYLINE
10
706.0000
20
196.0509
30
0.0
0
VERTEX
8
LOT_POLYLINE
10
926.1306
20
200.0000
30
0.0
0
VERTEX
8
LOT_POLYLINE
10
929.1813
20
29.9491
30
0.0
0
SEQEND
0
TEXT
8
SHEET_LABELS
6
ROT_271.03
7
STANDARD
10
710.5249
20
111.0792
30
0.0
40
3.4
1
N01%%d01'40.00"W
50
271.03
0
TEXT
8
SHEET_LABELS
6
ROT_271.03
7
STANDARD
10
704.5258
20
110.9716
30
0.0
40
3.2
1
77.25'
50
271.03
0
POINT
8
SHEET_LABELS
10
709.0507
20
26.0000
30
0.0
0
TEXT
8
SHEET_LABELS
6
ROT_1.03
7
STANDARD
10
816.1191
20
195.0259
30
0.0
40
3.4
1
N88%%d58'20.00"E
50
1.03
0
TEXT
8
SHEET_LABELS
6
ROT_1.03
7
STANDARD
10
816.0115
20
201.0249
30
0.0
40
3.2
1
100.00'
50
1.03
0
POINT
8
SHEET_LABELS
10
706.0000
20
196.0509
30
0.0
0
TEXT
8
SHEET_LABELS
6
ROT_271.03
7
STANDARD
10
930.6554
20
115.0284
30
0.0
40
3.4
1
S01%%d01'40.00"E
50
271.03
0
TEXT
8
SHEET_LABELS
6
ROT_271.03
7
STANDARD
10
924.6564
20
114.9208
30
0.0
40
3.2
1
77.25'
50
271.03
0
POINT
8
SHEET_LABELS
10
926.1306
20
200.0000
30
0.0
0
TEXT
8
SHEET_LABELS
6
ROT_1.03
7
STANDARD
10
819.1698
20
24.9751
30
0.0
40
3.4
1
S88%%d58'20.00"W
50
1.03
0
TEXT
8
SHEET_LABELS
6
ROT_1.03
7
STANDARD
10
819.0622
20
30.9741
30
0.0
40
3.2
1
100.00'
50
1.03
0
POINT
8
SHEET_LABELS
10
929.1813
20
29.9491
30
0.0
0
TEXT
8
SHEET_LABELS
7
STANDARD
10
688.0000
20
250.0000
30
0.0
40
8.0
1
LOT Blk 13 - Lot 3   PASS
50
0.0
0
TEXT
8
SHEET_LABELS
7
STANDARD
10
688.0000
20
239.0000
30
0.0
40
4.6
1
AREA 7,725 SF (0.177 ac)
50
0.0
0
TEXT
8
SHEET_LABELS
7
STANDARD
10
688.0000
20
232.0000
30
0.0
40
4.0
1
PERIMETER 354.50'   VERTICES 4   CLOSING SIDE 0.00'
50
0.0
0
TEXT
8
SHEET_LABELS
7
STANDARD
10
688.0000
20
225.0000
30
0.0
40
3.4
1
all geometric checks passed: closed single polyline, no self-intersection, no overlap, no spikes
50
0.0
0
LINE
8
SHEET_FRAME
10
1020.0000
20
0.0000
30
0.0
11
1320.0000
21
0.0000
31
0.0
0
LINE
8
SHEET_FRAME
10
1320.0000
20
0.0000
30
0.0
11
1320.0000
21
260.0000
31
0.0
0
LINE
8
SHEET_FRAME
10
1320.0000
20
260.0000
30
0.0
11
1020.0000
21
260.0000
31
0.0
0
LINE
8
SHEET_FRAME
10
1020.0000
20
260.0000
30
0.0
11
1020.0000
21
0.0000
31
0.0
0
POLYLINE
8
LOT_POLYLINE
66
1
70
1
0
VERTEX
8
LOT_POLYLINE
10
1049.0507
20
26.0000
30
0.0
0
VERTEX
8
LOT_POLYLINE
10
1046.0000
20
196.0509
30
0.0
0
VERTEX
8
LOT_POLYLINE
10
1266.1306
20
200.0000
30
0.0
0
VERTEX
8
LOT_POLYLINE
10
1269.1813
20
29.9491
30
0.0
0
SEQEND
0
TEXT
8
SHEET_LABELS
6
ROT_271.03
7
STANDARD
10
1050.5249
20
111.0792
30
0.0
40
3.4
1
N01%%d01'40.00"W
50
271.03
0
TEXT
8
SHEET_LABELS
6
ROT_271.03
7
STANDARD
10
1044.5258
20
110.9716
30
0.0
40
3.2
1
77.25'
50
271.03
0
POINT
8
SHEET_LABELS
10
1049.0507
20
26.0000
30
0.0
0
TEXT
8
SHEET_LABELS
6
ROT_1.03
7
STANDARD
10
1156.1191
20
195.0259
30
0.0
40
3.4
1
N88%%d58'20.00"E
50
1.03
0
TEXT
8
SHEET_LABELS
6
ROT_1.03
7
STANDARD
10
1156.0115
20
201.0249
30
0.0
40
3.2
1
100.00'
50
1.03
0
POINT
8
SHEET_LABELS
10
1046.0000
20
196.0509
30
0.0
0
TEXT
8
SHEET_LABELS
6
ROT_271.03
7
STANDARD
10
1270.6554
20
115.0284
30
0.0
40
3.4
1
S01%%d01'40.00"E
50
271.03
0
TEXT
8
SHEET_LABELS
6
ROT_271.03
7
STANDARD
10
1264.6564
20
114.9208
30
0.0
40
3.2
1
77.25'
50
271.03
0
POINT
8
SHEET_LABELS
10
1266.1306
20
200.0000
30
0.0
0
TEXT
8
SHEET_LABELS
6
ROT_1.03
7
STANDARD
10
1159.1698
20
24.9751
30
0.0
40
3.4
1
S88%%d58'20.00"W
50
1.03
0
TEXT
8
SHEET_LABELS
6
ROT_1.03
7
STANDARD
10
1159.0622
20
30.9741
30
0.0
40
3.2
1
100.00'
50
1.03
0
POINT
8
SHEET_LABELS
10
1269.1813
20
29.9491
30
0.0
0
TEXT
8
SHEET_LABELS
7
STANDARD
10
1028.0000
20
250.0000
30
0.0
40
8.0
1
LOT Blk 13 - Lot 4   PASS
50
0.0
0
TEXT
8
SHEET_LABELS
7
STANDARD
10
1028.0000
20
239.0000
30
0.0
40
4.6
1
AREA 7,725 SF (0.177 ac)
50
0.0
0
TEXT
8
SHEET_LABELS
7
STANDARD
10
1028.0000
20
232.0000
30
0.0
40
4.0
1
PERIMETER 354.50'   VERTICES 4   CLOSING SIDE 0.00'
50
0.0
0
TEXT
8
SHEET_LABELS
7
STANDARD
10
1028.0000
20
225.0000
30
0.0
40
3.4
1
all geometric checks passed: closed single polyline, no self-intersection, no overlap, no spikes
50
0.0
0
LINE
8
SHEET_FRAME
10
0.0000
20
-300.0000
30
0.0
11
300.0000
21
-300.0000
31
0.0
0
LINE
8
SHEET_FRAME
10
300.0000
20
-300.0000
30
0.0
11
300.0000
21
-40.0000
31
0.0
0
LINE
8
SHEET_FRAME
10
300.0000
20
-40.0000
30
0.0
11
0.0000
21
-40.0000
31
0.0
0
LINE
8
SHEET_FRAME
10
0.0000
20
-40.0000
30
0.0
11
0.0000
21
-300.0000
31
0.0
0
POLYLINE
8
LOT_POLYLINE
66
1
70
1
0
VERTEX
8
LOT_POLYLINE
10
29.0507
20
-274.0000
30
0.0
0
VERTEX
8
LOT_POLYLINE
10
26.0000
20
-103.9491
30
0.0
0
VERTEX
8
LOT_POLYLINE
10
246.1306
20
-100.0000
30
0.0
0
VERTEX
8
LOT_POLYLINE
10
249.1813
20
-270.0509
30
0.0
0
SEQEND
0
TEXT
8
SHEET_LABELS
6
ROT_271.03
7
STANDARD
10
30.5249
20
-188.9208
30
0.0
40
3.4
1
N01%%d01'40.00"W
50
271.03
0
TEXT
8
SHEET_LABELS
6
ROT_271.03
7
STANDARD
10
24.5258
20
-189.0284
30
0.0
40
3.2
1
77.25'
50
271.03
0
POINT
8
SHEET_LABELS
10
29.0507
20
-274.0000
30
0.0
0
TEXT
8
SHEET_LABELS
6
ROT_1.03
7
STANDARD
10
136.1191
20
-104.9741
30
0.0
40
3.4
1
N88%%d58'20.00"E
50
1.03
0
TEXT
8
SHEET_LABELS
6
ROT_1.03
7
STANDARD
10
136.0115
20
-98.9751
30
0.0
40
3.2
1
100.00'
50
1.03
0
POINT
8
SHEET_LABELS
10
26.0000
20
-103.9491
30
0.0
0
TEXT
8
SHEET_LABELS
6
ROT_271.03
7
STANDARD
10
250.6554
20
-184.9716
30
0.0
40
3.4
1
S01%%d01'40.00"E
50
271.03
0
TEXT
8
SHEET_LABELS
6
ROT_271.03
7
STANDARD
10
244.6564
20
-185.0792
30
0.0
40
3.2
1
77.25'
50
271.03
0
POINT
8
SHEET_LABELS
10
246.1306
20
-100.0000
30
0.0
0
TEXT
8
SHEET_LABELS
6
ROT_1.03
7
STANDARD
10
139.1698
20
-275.0249
30
0.0
40
3.4
1
S88%%d58'20.00"W
50
1.03
0
TEXT
8
SHEET_LABELS
6
ROT_1.03
7
STANDARD
10
139.0622
20
-269.0259
30
0.0
40
3.2
1
100.00'
50
1.03
0
POINT
8
SHEET_LABELS
10
249.1813
20
-270.0509
30
0.0
0
TEXT
8
SHEET_LABELS
7
STANDARD
10
8.0000
20
-50.0000
30
0.0
40
8.0
1
LOT Blk 13 - Lot 5   PASS
50
0.0
0
TEXT
8
SHEET_LABELS
7
STANDARD
10
8.0000
20
-61.0000
30
0.0
40
4.6
1
AREA 7,725 SF (0.177 ac)
50
0.0
0
TEXT
8
SHEET_LABELS
7
STANDARD
10
8.0000
20
-68.0000
30
0.0
40
4.0
1
PERIMETER 354.50'   VERTICES 4   CLOSING SIDE 0.00'
50
0.0
0
TEXT
8
SHEET_LABELS
7
STANDARD
10
8.0000
20
-75.0000
30
0.0
40
3.4
1
all geometric checks passed: closed single polyline, no self-intersection, no overlap, no spikes
50
0.0
0
LINE
8
SHEET_FRAME
10
340.0000
20
-300.0000
30
0.0
11
640.0000
21
-300.0000
31
0.0
0
LINE
8
SHEET_FRAME
10
640.0000
20
-300.0000
30
0.0
11
640.0000
21
-40.0000
31
0.0
0
LINE
8
SHEET_FRAME
10
640.0000
20
-40.0000
30
0.0
11
340.0000
21
-40.0000
31
0.0
0
LINE
8
SHEET_FRAME
10
340.0000
20
-40.0000
30
0.0
11
340.0000
21
-300.0000
31
0.0
0
POLYLINE
8
LOT_POLYLINE
66
1
70
1
0
VERTEX
8
LOT_POLYLINE
10
369.0507
20
-274.0000
30
0.0
0
VERTEX
8
LOT_POLYLINE
10
366.0000
20
-103.9491
30
0.0
0
VERTEX
8
LOT_POLYLINE
10
586.1306
20
-100.0000
30
0.0
0
VERTEX
8
LOT_POLYLINE
10
589.1813
20
-270.0509
30
0.0
0
SEQEND
0
TEXT
8
SHEET_LABELS
6
ROT_271.03
7
STANDARD
10
370.5249
20
-188.9208
30
0.0
40
3.4
1
N01%%d01'40.00"W
50
271.03
0
TEXT
8
SHEET_LABELS
6
ROT_271.03
7
STANDARD
10
364.5258
20
-189.0284
30
0.0
40
3.2
1
77.25'
50
271.03
0
POINT
8
SHEET_LABELS
10
369.0507
20
-274.0000
30
0.0
0
TEXT
8
SHEET_LABELS
6
ROT_1.03
7
STANDARD
10
476.1191
20
-104.9741
30
0.0
40
3.4
1
N88%%d58'20.00"E
50
1.03
0
TEXT
8
SHEET_LABELS
6
ROT_1.03
7
STANDARD
10
476.0115
20
-98.9751
30
0.0
40
3.2
1
100.00'
50
1.03
0
POINT
8
SHEET_LABELS
10
366.0000
20
-103.9491
30
0.0
0
TEXT
8
SHEET_LABELS
6
ROT_271.03
7
STANDARD
10
590.6554
20
-184.9716
30
0.0
40
3.4
1
S01%%d01'40.00"E
50
271.03
0
TEXT
8
SHEET_LABELS
6
ROT_271.03
7
STANDARD
10
584.6564
20
-185.0792
30
0.0
40
3.2
1
77.25'
50
271.03
0
POINT
8
SHEET_LABELS
10
586.1306
20
-100.0000
30
0.0
0
TEXT
8
SHEET_LABELS
6
ROT_1.03
7
STANDARD
10
479.1698
20
-275.0249
30
0.0
40
3.4
1
S88%%d58'20.00"W
50
1.03
0
TEXT
8
SHEET_LABELS
6
ROT_1.03
7
STANDARD
10
479.0622
20
-269.0259
30
0.0
40
3.2
1
100.00'
50
1.03
0
POINT
8
SHEET_LABELS
10
589.1813
20
-270.0509
30
0.0
0
TEXT
8
SHEET_LABELS
7
STANDARD
10
348.0000
20
-50.0000
30
0.0
40
8.0
1
LOT Blk 13 - Lot 6   PASS
50
0.0
0
TEXT
8
SHEET_LABELS
7
STANDARD
10
348.0000
20
-61.0000
30
0.0
40
4.6
1
AREA 7,725 SF (0.177 ac)
50
0.0
0
TEXT
8
SHEET_LABELS
7
STANDARD
10
348.0000
20
-68.0000
30
0.0
40
4.0
1
PERIMETER 354.50'   VERTICES 4   CLOSING SIDE 0.00'
50
0.0
0
TEXT
8
SHEET_LABELS
7
STANDARD
10
348.0000
20
-75.0000
30
0.0
40
3.4
1
all geometric checks passed: closed single polyline, no self-intersection, no overlap, no spikes
50
0.0
0
LINE
8
SHEET_FRAME
10
680.0000
20
-300.0000
30
0.0
11
980.0000
21
-300.0000
31
0.0
0
LINE
8
SHEET_FRAME
10
980.0000
20
-300.0000
30
0.0
11
980.0000
21
-40.0000
31
0.0
0
LINE
8
SHEET_FRAME
10
980.0000
20
-40.0000
30
0.0
11
680.0000
21
-40.0000
31
0.0
0
LINE
8
SHEET_FRAME
10
680.0000
20
-40.0000
30
0.0
11
680.0000
21
-300.0000
31
0.0
0
POLYLINE
8
LOT_POLYLINE
66
1
70
1
0
VERTEX
8
LOT_POLYLINE
10
709.0507
20
-274.0000
30
0.0
0
VERTEX
8
LOT_POLYLINE
10
706.0000
20
-103.9491
30
0.0
0
VERTEX
8
LOT_POLYLINE
10
926.1306
20
-100.0000
30
0.0
0
VERTEX
8
LOT_POLYLINE
10
929.1813
20
-270.0509
30
0.0
0
SEQEND
0
TEXT
8
SHEET_LABELS
6
ROT_271.03
7
STANDARD
10
710.5249
20
-188.9208
30
0.0
40
3.4
1
N01%%d01'40.00"W
50
271.03
0
TEXT
8
SHEET_LABELS
6
ROT_271.03
7
STANDARD
10
704.5258
20
-189.0284
30
0.0
40
3.2
1
77.25'
50
271.03
0
POINT
8
SHEET_LABELS
10
709.0507
20
-274.0000
30
0.0
0
TEXT
8
SHEET_LABELS
6
ROT_1.03
7
STANDARD
10
816.1191
20
-104.9741
30
0.0
40
3.4
1
N88%%d58'20.00"E
50
1.03
0
TEXT
8
SHEET_LABELS
6
ROT_1.03
7
STANDARD
10
816.0115
20
-98.9751
30
0.0
40
3.2
1
100.00'
50
1.03
0
POINT
8
SHEET_LABELS
10
706.0000
20
-103.9491
30
0.0
0
TEXT
8
SHEET_LABELS
6
ROT_271.03
7
STANDARD
10
930.6554
20
-184.9716
30
0.0
40
3.4
1
S01%%d01'40.00"E
50
271.03
0
TEXT
8
SHEET_LABELS
6
ROT_271.03
7
STANDARD
10
924.6564
20
-185.0792
30
0.0
40
3.2
1
77.25'
50
271.03
0
POINT
8
SHEET_LABELS
10
926.1306
20
-100.0000
30
0.0
0
TEXT
8
SHEET_LABELS
6
ROT_1.03
7
STANDARD
10
819.1698
20
-275.0249
30
0.0
40
3.4
1
S88%%d58'20.00"W
50
1.03
0
TEXT
8
SHEET_LABELS
6
ROT_1.03
7
STANDARD
10
819.0622
20
-269.0259
30
0.0
40
3.2
1
100.00'
50
1.03
0
POINT
8
SHEET_LABELS
10
929.1813
20
-270.0509
30
0.0
0
TEXT
8
SHEET_LABELS
7
STANDARD
10
688.0000
20
-50.0000
30
0.0
40
8.0
1
LOT Blk 13 - Lot 7   PASS
50
0.0
0
TEXT
8
SHEET_LABELS
7
STANDARD
10
688.0000
20
-61.0000
30
0.0
40
4.6
1
AREA 7,725 SF (0.177 ac)
50
0.0
0
TEXT
8
SHEET_LABELS
7
STANDARD
10
688.0000
20
-68.0000
30
0.0
40
4.0
1
PERIMETER 354.50'   VERTICES 4   CLOSING SIDE 0.00'
50
0.0
0
TEXT
8
SHEET_LABELS
7
STANDARD
10
688.0000
20
-75.0000
30
0.0
40
3.4
1
all geometric checks passed: closed single polyline, no self-intersection, no overlap, no spikes
50
0.0
0
LINE
8
SHEET_FRAME
10
1020.0000
20
-300.0000
30
0.0
11
1320.0000
21
-300.0000
31
0.0
0
LINE
8
SHEET_FRAME
10
1320.0000
20
-300.0000
30
0.0
11
1320.0000
21
-40.0000
31
0.0
0
LINE
8
SHEET_FRAME
10
1320.0000
20
-40.0000
30
0.0
11
1020.0000
21
-40.0000
31
0.0
0
LINE
8
SHEET_FRAME
10
1020.0000
20
-40.0000
30
0.0
11
1020.0000
21
-300.0000
31
0.0
0
POLYLINE
8
LOT_POLYLINE
66
1
70
1
0
VERTEX
8
LOT_POLYLINE
10
1049.0507
20
-274.0000
30
0.0
0
VERTEX
8
LOT_POLYLINE
10
1046.0000
20
-103.9491
30
0.0
0
VERTEX
8
LOT_POLYLINE
10
1266.1306
20
-100.0000
30
0.0
0
VERTEX
8
LOT_POLYLINE
10
1269.1813
20
-270.0509
30
0.0
0
SEQEND
0
TEXT
8
SHEET_LABELS
6
ROT_271.03
7
STANDARD
10
1050.5249
20
-188.9208
30
0.0
40
3.4
1
N01%%d01'40.00"W
50
271.03
0
TEXT
8
SHEET_LABELS
6
ROT_271.03
7
STANDARD
10
1044.5258
20
-189.0284
30
0.0
40
3.2
1
77.25'
50
271.03
0
POINT
8
SHEET_LABELS
10
1049.0507
20
-274.0000
30
0.0
0
TEXT
8
SHEET_LABELS
6
ROT_1.03
7
STANDARD
10
1156.1191
20
-104.9741
30
0.0
40
3.4
1
N88%%d58'20.00"E
50
1.03
0
TEXT
8
SHEET_LABELS
6
ROT_1.03
7
STANDARD
10
1156.0115
20
-98.9751
30
0.0
40
3.2
1
100.00'
50
1.03
0
POINT
8
SHEET_LABELS
10
1046.0000
20
-103.9491
30
0.0
0
TEXT
8
SHEET_LABELS
6
ROT_271.03
7
STANDARD
10
1270.6554
20
-184.9716
30
0.0
40
3.4
1
S01%%d01'40.00"E
50
271.03
0
TEXT
8
SHEET_LABELS
6
ROT_271.03
7
STANDARD
10
1264.6564
20
-185.0792
30
0.0
40
3.2
1
77.25'
50
271.03
0
POINT
8
SHEET_LABELS
10
1266.1306
20
-100.0000
30
0.0
0
TEXT
8
SHEET_LABELS
6
ROT_1.03
7
STANDARD
10
1159.1698
20
-275.0249
30
0.0
40
3.4
1
S88%%d58'20.00"W
50
1.03
0
TEXT
8
SHEET_LABELS
6
ROT_1.03
7
STANDARD
10
1159.0622
20
-269.0259
30
0.0
40
3.2
1
100.00'
50
1.03
0
POINT
8
SHEET_LABELS
10
1269.1813
20
-270.0509
30
0.0
0
TEXT
8
SHEET_LABELS
7
STANDARD
10
1028.0000
20
-50.0000
30
0.0
40
8.0
1
LOT Blk 13 - Lot 8   PASS
50
0.0
0
TEXT
8
SHEET_LABELS
7
STANDARD
10
1028.0000
20
-61.0000
30
0.0
40
4.6
1
AREA 7,725 SF (0.177 ac)
50
0.0
0
TEXT
8
SHEET_LABELS
7
STANDARD
10
1028.0000
20
-68.0000
30
0.0
40
4.0
1
PERIMETER 354.50'   VERTICES 4   CLOSING SIDE 0.00'
50
0.0
0
TEXT
8
SHEET_LABELS
7
STANDARD
10
1028.0000
20
-75.0000
30
0.0
40
3.4
1
all geometric checks passed: closed single polyline, no self-intersection, no overlap, no spikes
50
0.0
0
LINE
8
SHEET_FRAME
10
0.0000
20
-600.0000
30
0.0
11
300.0000
21
-600.0000
31
0.0
0
LINE
8
SHEET_FRAME
10
300.0000
20
-600.0000
30
0.0
11
300.0000
21
-340.0000
31
0.0
0
LINE
8
SHEET_FRAME
10
300.0000
20
-340.0000
30
0.0
11
0.0000
21
-340.0000
31
0.0
0
LINE
8
SHEET_FRAME
10
0.0000
20
-340.0000
30
0.0
11
0.0000
21
-600.0000
31
0.0
0
POLYLINE
8
LOT_POLYLINE
66
1
70
1
0
VERTEX
8
LOT_POLYLINE
10
29.0507
20
-574.0000
30
0.0
0
VERTEX
8
LOT_POLYLINE
10
26.0000
20
-403.9491
30
0.0
0
VERTEX
8
LOT_POLYLINE
10
246.1306
20
-400.0000
30
0.0
0
VERTEX
8
LOT_POLYLINE
10
249.1813
20
-570.0509
30
0.0
0
SEQEND
0
TEXT
8
SHEET_LABELS
6
ROT_271.03
7
STANDARD
10
30.5249
20
-488.9208
30
0.0
40
3.4
1
N01%%d01'40.00"W
50
271.03
0
TEXT
8
SHEET_LABELS
6
ROT_271.03
7
STANDARD
10
24.5258
20
-489.0284
30
0.0
40
3.2
1
77.25'
50
271.03
0
POINT
8
SHEET_LABELS
10
29.0507
20
-574.0000
30
0.0
0
TEXT
8
SHEET_LABELS
6
ROT_1.03
7
STANDARD
10
136.1191
20
-404.9741
30
0.0
40
3.4
1
N88%%d58'20.00"E
50
1.03
0
TEXT
8
SHEET_LABELS
6
ROT_1.03
7
STANDARD
10
136.0115
20
-398.9751
30
0.0
40
3.2
1
100.00'
50
1.03
0
POINT
8
SHEET_LABELS
10
26.0000
20
-403.9491
30
0.0
0
TEXT
8
SHEET_LABELS
6
ROT_271.03
7
STANDARD
10
250.6554
20
-484.9716
30
0.0
40
3.4
1
S01%%d01'40.00"E
50
271.03
0
TEXT
8
SHEET_LABELS
6
ROT_271.03
7
STANDARD
10
244.6564
20
-485.0792
30
0.0
40
3.2
1
77.25'
50
271.03
0
POINT
8
SHEET_LABELS
10
246.1306
20
-400.0000
30
0.0
0
TEXT
8
SHEET_LABELS
6
ROT_1.03
7
STANDARD
10
139.1698
20
-575.0249
30
0.0
40
3.4
1
S88%%d58'20.00"W
50
1.03
0
TEXT
8
SHEET_LABELS
6
ROT_1.03
7
STANDARD
10
139.0622
20
-569.0259
30
0.0
40
3.2
1
100.00'
50
1.03
0
POINT
8
SHEET_LABELS
10
249.1813
20
-570.0509
30
0.0
0
TEXT
8
SHEET_LABELS
7
STANDARD
10
8.0000
20
-350.0000
30
0.0
40
8.0
1
LOT Blk 13 - Lot 9   PASS
50
0.0
0
TEXT
8
SHEET_LABELS
7
STANDARD
10
8.0000
20
-361.0000
30
0.0
40
4.6
1
AREA 7,725 SF (0.177 ac)
50
0.0
0
TEXT
8
SHEET_LABELS
7
STANDARD
10
8.0000
20
-368.0000
30
0.0
40
4.0
1
PERIMETER 354.50'   VERTICES 4   CLOSING SIDE 0.00'
50
0.0
0
TEXT
8
SHEET_LABELS
7
STANDARD
10
8.0000
20
-375.0000
30
0.0
40
3.4
1
all geometric checks passed: closed single polyline, no self-intersection, no overlap, no spikes
50
0.0
0
LINE
8
SHEET_FRAME
10
340.0000
20
-600.0000
30
0.0
11
640.0000
21
-600.0000
31
0.0
0
LINE
8
SHEET_FRAME
10
640.0000
20
-600.0000
30
0.0
11
640.0000
21
-340.0000
31
0.0
0
LINE
8
SHEET_FRAME
10
640.0000
20
-340.0000
30
0.0
11
340.0000
21
-340.0000
31
0.0
0
LINE
8
SHEET_FRAME
10
340.0000
20
-340.0000
30
0.0
11
340.0000
21
-600.0000
31
0.0
0
POLYLINE
8
LOT_POLYLINE
66
1
70
1
0
VERTEX
8
LOT_POLYLINE
10
369.0504
20
-574.0000
30
0.0
0
VERTEX
8
LOT_POLYLINE
10
366.0000
20
-403.9657
30
0.0
0
VERTEX
8
LOT_POLYLINE
10
587.0534
20
-400.0000
30
0.0
0
VERTEX
8
LOT_POLYLINE
10
590.1038
20
-570.0343
30
0.0
0
SEQEND
0
TEXT
8
SHEET_LABELS
6
ROT_271.03
7
STANDARD
10
370.5247
20
-488.9290
30
0.0
40
3.4
1
N01%%d01'40.00"W
50
271.03
0
TEXT
8
SHEET_LABELS
6
ROT_271.03
7
STANDARD
10
364.5257
20
-489.0367
30
0.0
40
3.2
1
76.92'
50
271.03
0
POINT
8
SHEET_LABELS
10
369.0504
20
-574.0000
30
0.0
0
TEXT
8
SHEET_LABELS
6
ROT_1.03
7
STANDARD
10
476.5805
20
-404.9824
30
0.0
40
3.4
1
N88%%d58'20.00"E
50
1.03
0
TEXT
8
SHEET_LABELS
6
ROT_1.03
7
STANDARD
10
476.4729
20
-398.9833
30
0.0
40
3.2
1
100.00'
50
1.03
0
POINT
8
SHEET_LABELS
10
366.0000
20
-403.9657
30
0.0
0
TEXT
8
SHEET_LABELS
6
ROT_271.03
7
STANDARD
10
591.5782
20
-484.9633
30
0.0
40
3.4
1
S01%%d01'40.00"E
50
271.03
0
TEXT
8
SHEET_LABELS
6
ROT_271.03
7
STANDARD
10
585.5791
20
-485.0710
30
0.0
40
3.2
1
76.92'
50
271.03
0
POINT
8
SHEET_LABELS
10
587.0534
20
-400.0000
30
0.0
0
TEXT
8
SHEET_LABELS
6
ROT_1.03
7
STANDARD
10
479.6309
20
-575.0167
30
0.0
40
3.4
1
S88%%d58'20.00"W
50
1.03
0
TEXT
8
SHEET_LABELS
6
ROT_1.03
7
STANDARD
10
479.5233
20
-569.0176
30
0.0
40
3.2
1
100.00'
50
1.03
0
POINT
8
SHEET_LABELS
10
590.1038
20
-570.0343
30
0.0
0
TEXT
8
SHEET_LABELS
7
STANDARD
10
348.0000
20
-350.0000
30
0.0
40
8.0
1
LOT Blk 13 - Lot 10   PASS
50
0.0
0
TEXT
8
SHEET_LABELS
7
STANDARD
10
348.0000
20
-361.0000
30
0.0
40
4.6
1
AREA 7,692 SF (0.177 ac)
50
0.0
0
TEXT
8
SHEET_LABELS
7
STANDARD
10
348.0000
20
-368.0000
30
0.0
40
4.0
1
PERIMETER 353.84'   VERTICES 4   CLOSING SIDE 0.00'
50
0.0
0
TEXT
8
SHEET_LABELS
7
STANDARD
10
348.0000
20
-375.0000
30
0.0
40
3.4
1
all geometric checks passed: closed single polyline, no self-intersection, no overlap, no spikes
50
0.0
0
LINE
8
SHEET_FRAME
10
680.0000
20
-600.0000
30
0.0
11
980.0000
21
-600.0000
31
0.0
0
LINE
8
SHEET_FRAME
10
980.0000
20
-600.0000
30
0.0
11
980.0000
21
-340.0000
31
0.0
0
LINE
8
SHEET_FRAME
10
980.0000
20
-340.0000
30
0.0
11
680.0000
21
-340.0000
31
0.0
0
LINE
8
SHEET_FRAME
10
680.0000
20
-340.0000
30
0.0
11
680.0000
21
-600.0000
31
0.0
0
POLYLINE
8
LOT_POLYLINE
66
1
70
1
0
VERTEX
8
LOT_POLYLINE
10
709.0662
20
-574.0000
30
0.0
0
VERTEX
8
LOT_POLYLINE
10
706.0000
20
-403.0841
30
0.0
0
VERTEX
8
LOT_POLYLINE
10
877.9130
20
-400.0000
30
0.0
0
VERTEX
8
LOT_POLYLINE
10
880.2216
20
-528.6870
30
0.0
0
VERTEX
8
LOT_POLYLINE
10
837.7643
20
-572.4401
30
0.0
0
SEQEND
0
POLYLINE
8
LOT_POLYLINE
66
1
70
0
0
VERTEX
8
LOT_POLYLINE
10
877.9130
20
-400.0000
30
0.0
0
VERTEX
8
LOT_POLYLINE
10
880.8206
20
-403.0777
30
0.0
0
VERTEX
8
LOT_POLYLINE
10
883.4113
20
-406.4266
30
0.0
0
VERTEX
8
LOT_POLYLINE
10
885.6599
20
-410.0141
30
0.0
0
VERTEX
8
LOT_POLYLINE
10
887.5448
20
-413.8054
30
0.0
0
VERTEX
8
LOT_POLYLINE
10
889.0475
20
-417.7637
30
0.0
0
VERTEX
8
LOT_POLYLINE
10
890.1535
20
-421.8507
30
0.0
0
VERTEX
8
LOT_POLYLINE
10
890.8520
20
-426.0267
30
0.0
0
VERTEX
8
LOT_POLYLINE
10
891.1364
20
-430.2511
30
0.0
0
VERTEX
8
LOT_POLYLINE
10
891.0037
20
-434.4830
30
0.0
0
VERTEX
8
LOT_POLYLINE
10
890.4554
20
-438.6813
30
0.0
0
VERTEX
8
LOT_POLYLINE
10
889.4967
20
-442.8053
30
0.0
0
VERTEX
8
LOT_POLYLINE
10
888.1370
20
-446.8150
30
0.0
0
VERTEX
8
LOT_POLYLINE
10
886.3893
20
-450.6715
30
0.0
0
VERTEX
8
LOT_POLYLINE
10
884.2708
20
-454.3373
30
0.0
0
VERTEX
8
LOT_POLYLINE
10
881.8019
20
-457.7770
30
0.0
0
VERTEX
8
LOT_POLYLINE
10
879.0065
20
-460.9570
30
0.0
0
SEQEND
0
TEXT
8
SHEET_LABELS
6
ROT_271.03
7
STANDARD
10
710.5326
20
-488.4883
30
0.0
40
3.4
1
N01%%d01'40.00"W
50
271.03
0
TEXT
8
SHEET_LABELS
6
ROT_271.03
7
STANDARD
10
704.5336
20
-488.5959
30
0.0
40
3.2
1
99.42'
50
271.03
0
POINT
8
SHEET_LABELS
10
709.0662
20
-574.0000
30
0.0
0
TEXT
8
SHEET_LABELS
6
ROT_1.03
7
STANDARD
10
792.0103
20
-404.5416
30
0.0
40
3.4
1
N88%%d58'20.00"E
50
1.03
0
TEXT
8
SHEET_LABELS
6
ROT_1.03
7
STANDARD
10
791.9027
20
-398.5425
30
0.0
40
3.2
1
100.00'
50
1.03
0
POINT
8
SHEET_LABELS
10
706.0000
20
-403.0841
30
0.0
0
TEXT
8
SHEET_LABELS
6
ROT_271.03
7
STANDARD
10
882.0668
20
-464.2897
30
0.0
40
3.4
1
S01%%d01'40.00"E
50
271.03
0
TEXT
8
SHEET_LABELS
6
ROT_271.03
7
STANDARD
10
876.0678
20
-464.3973
30
0.0
40
3.2
1
74.86'
50
271.03
0
POINT
8
SHEET_LABELS
10
877.9130
20
-400.0000
30
0.0
0
TEXT
8
SHEET_LABELS
6
ROT_45.86
7
STANDARD
10
861.1459
20
-552.6527
30
0.0
40
3.4
1
S44%%d08'20.00"W
50
45.86
0
TEXT
8
SHEET_LABELS
6
ROT_45.86
7
STANDARD
10
856.8400
20
-548.4743
30
0.0
40
3.2
1
35.46'
50
45.86
0
POINT
8
SHEET_LABELS
10
880.2216
20
-528.6870
30
0.0
0
TEXT
8
SHEET_LABELS
6
ROT_0.69
7
STANDARD
10
773.4516
20
-576.2198
30
0.0
40
3.4
1
S89%%d18'20.00"W
50
0.69
0
TEXT
8
SHEET_LABELS
6
ROT_0.69
7
STANDARD
10
773.3789
20
-570.2202
30
0.0
40
3.2
1
74.86'
50
0.69
0
POINT
8
SHEET_LABELS
10
837.7643
20
-572.4401
30
0.0
0
TEXT
8
SHEET_LABELS
7
STANDARD
10
688.0000
20
-350.0000
30
0.0
40
8.0
1
LOT Blk 13 - Lot 11   PASS
50
0.0
0
TEXT
8
SHEET_LABELS
7
STANDARD
10
688.0000
20
-361.0000
30
0.0
40
4.6
1
AREA 9,835 SF (0.226 ac)
50
0.0
0
TEXT
8
SHEET_LABELS
7
STANDARD
10
688.0000
20
-368.0000
30
0.0
40
4.0
1
PERIMETER 384.59'   VERTICES 5   CLOSING SIDE 0.00'
50
0.0
0
TEXT
8
SHEET_LABELS
7
STANDARD
10
688.0000
20
-375.0000
30
0.0
40
3.4
1
all geometric checks passed: closed single polyline, no self-intersection, no overlap, no spikes
50
0.0
0
ENDSEC
0
EOF
