0
SECTION
2
HEADER
9
$ACADVER
1
AC1009
9
$DWGCODEPAGE
3
ANSI_1252
0
ENDSEC
0
SECTION
2
TABLES
0
TABLE
2
LTYPE
70
6
0
LTYPE
2
CONTINUOUS
70
0
3
Solid
72
65
73
0
40
0.0
0
LTYPE
2
DASHED
70
0
3
Dashed
72
65
73
2
40
0.75
49
0.5
74
0
49
-0.25
74
0
0
LTYPE
2
DASHED2
70
0
3
Dashed (.5x)
72
65
73
2
40
0.375
49
0.25
74
0
49
-0.125
74
0
0
LTYPE
2
HIDDEN
70
0
3
Hidden
72
65
73
2
40
0.375
49
0.25
74
0
49
-0.125
74
0
0
LTYPE
2
CENTER
70
0
3
Center
72
65
73
4
40
2.0
49
1.25
74
0
49
-0.25
74
0
49
0.25
74
0
49
-0.25
74
0
0
LTYPE
2
PHANTOM
70
0
3
Phantom
72
65
73
6
40
2.5
49
1.25
74
0
49
-0.25
74
0
49
0.25
74
0
49
-0.25
74
0
49
0.25
74
0
49
-0.25
74
0
0
ENDTAB
0
TABLE
2
LAYER
70
7
0
LAYER
2
0
70
0
62
7
6
CONTINUOUS
0
LAYER
2
LOT-BOUNDARY
70
0
62
4
6
CONTINUOUS
0
LAYER
2
LOT-CURVE
70
0
62
6
6
CONTINUOUS
0
LAYER
2
LOT-TEXT
70
0
62
2
6
CONTINUOUS
0
LAYER
2
LOT-DIM
70
0
62
7
6
CONTINUOUS
0
LAYER
2
BLOCK-TITLE
70
0
62
2
6
CONTINUOUS
0
LAYER
2
BLOCK-BORDER
70
0
62
8
6
DASHED
0
ENDTAB
0
TABLE
2
STYLE
70
4
0
STYLE
2
STANDARD
70
0
40
0.0
41
1.0
50
0.0
71
0
42
0.2
3
Arial
4

0
STYLE
2
ARIAL
70
0
40
0.0
41
1.0
50
0.0
71
0
42
0.2
3
Arial
4

0
STYLE
2
ARIAL_TTF
70
0
40
0.0
41
1.0
50
0.0
71
0
42
0.2
3
arial.ttf
4

0
STYLE
2
SIMPLEX
70
0
40
0.0
41
1.0
50
0.0
71
0
42
0.2
3
simplex.shx
4

0
ENDTAB
0
ENDSEC
0
SECTION
2
ENTITIES
0
TEXT
8
BLOCK-TITLE
7
STANDARD
10
0.0000
20
30.0000
30
0.0
40
8.0
1
BLOCK_18 (19 LOTS)
50
0.0
0
LINE
8
BLOCK-BORDER
10
-15.0000
20
-114.9117
30
0.0
11
-15.0000
21
107.8142
31
0.0
0
LINE
8
BLOCK-BORDER
10
-15.0000
20
107.8142
30
0.0
11
1509.7244
21
107.8142
31
0.0
0
LINE
8
BLOCK-BORDER
10
1509.7244
20
107.8142
30
0.0
11
1509.7244
21
-114.9117
31
0.0
0
LINE
8
BLOCK-BORDER
10
1509.7244
20
-114.9117
30
0.0
11
-15.0000
21
-114.9117
31
0.0
0
LINE
8
LOT-BOUNDARY
10
0.0000
20
0.0000
30
0.0
11
103.4086
21
4.3492
31
0.0
0
LINE
8
LOT-BOUNDARY
10
103.4086
20
4.3492
30
0.0
11
107.6107
21
-95.5625
31
0.0
0
LINE
8
LOT-BOUNDARY
10
107.6107
20
-95.5625
30
0.0
11
4.2021
21
-99.9117
31
0.0
0
LINE
8
LOT-BOUNDARY
10
4.2021
20
-99.9117
30
0.0
11
0.0000
21
0.0000
31
0.0
0
TEXT
8
LOT-TEXT
7
STANDARD
10
38.8053
20
-47.7813
30
0.0
40
4.5
1
L1
50
0.0
0
TEXT
8
LOT-TEXT
7
STANDARD
10
38.8053
20
-55.7813
30
0.0
40
3.0
1
10,350sf
50
0.0
0
LINE
8
LOT-BOUNDARY
10
103.4086
20
4.3492
30
0.0
11
178.3423
21
7.5007
31
0.0
0
LINE
8
LOT-BOUNDARY
10
178.3423
20
7.5007
30
0.0
11
182.5444
21
-92.4109
31
0.0
0
LINE
8
LOT-BOUNDARY
10
182.5444
20
-92.4109
30
0.0
11
107.6107
21
-95.5625
31
0.0
0
LINE
8
LOT-BOUNDARY
10
107.6107
20
-95.5625
30
0.0
11
103.4086
21
4.3492
31
0.0
0
TEXT
8
LOT-TEXT
7
STANDARD
10
127.9765
20
-44.0309
30
0.0
40
4.5
1
L2
50
0.0
0
TEXT
8
LOT-TEXT
7
STANDARD
10
127.9765
20
-52.0309
30
0.0
40
3.0
1
7,500sf
50
0.0
0
LINE
8
LOT-BOUNDARY
10
178.3423
20
7.5007
30
0.0
11
253.2761
21
10.6523
31
0.0
0
LINE
8
LOT-BOUNDARY
10
253.2761
20
10.6523
30
0.0
11
257.4782
21
-89.2594
31
0.0
0
LINE
8
LOT-BOUNDARY
10
257.4782
20
-89.2594
30
0.0
11
182.5444
21
-92.4109
31
0.0
0
LINE
8
LOT-BOUNDARY
10
182.5444
20
-92.4109
30
0.0
11
178.3423
21
7.5007
31
0.0
0
TEXT
8
LOT-TEXT
7
STANDARD
10
202.9103
20
-40.8793
30
0.0
40
4.5
1
L3
50
0.0
0
TEXT
8
LOT-TEXT
7
STANDARD
10
202.9103
20
-48.8793
30
0.0
40
3.0
1
7,500sf
50
0.0
0
LINE
8
LOT-BOUNDARY
10
253.2761
20
10.6523
30
0.0
11
328.2098
21
13.8039
31
0.0
0
LINE
8
LOT-BOUNDARY
10
328.2098
20
13.8039
30
0.0
11
332.4119
21
-86.1078
31
0.0
0
LINE
8
LOT-BOUNDARY
10
332.4119
20
-86.1078
30
0.0
11
257.4782
21
-89.2594
31
0.0
0
LINE
8
LOT-BOUNDARY
10
257.4782
20
-89.2594
30
0.0
11
253.2761
21
10.6523
31
0.0
0
TEXT
8
LOT-TEXT
7
STANDARD
10
277.8440
20
-37.7277
30
0.0
40
4.5
1
L4
50
0.0
0
TEXT
8
LOT-TEXT
7
STANDARD
10
277.8440
20
-45.7277
30
0.0
40
3.0
1
7,500sf
50
0.0
0
LINE
8
LOT-BOUNDARY
10
328.2098
20
13.8039
30
0.0
11
403.1436
21
16.9555
31
0.0
0
LINE
8
LOT-BOUNDARY
10
403.1436
20
16.9555
30
0.0
11
407.3457
21
-82.9562
31
0.0
0
LINE
8
LOT-BOUNDARY
10
407.3457
20
-82.9562
30
0.0
11
332.4119
21
-86.1078
31
0.0
0
LINE
8
LOT-BOUNDARY
10
332.4119
20
-86.1078
30
0.0
11
328.2098
21
13.8039
31
0.0
0
TEXT
8
LOT-TEXT
7
STANDARD
10
352.7778
20
-34.5762
30
0.0
40
4.5
1
L5
50
0.0
0
TEXT
8
LOT-TEXT
7
STANDARD
10
352.7778
20
-42.5762
30
0.0
40
3.0
1
7,500sf
50
0.0
0
LINE
8
LOT-BOUNDARY
10
403.1436
20
16.9555
30
0.0
11
478.0774
21
20.1070
31
0.0
0
LINE
8
LOT-BOUNDARY
10
478.0774
20
20.1070
30
0.0
11
482.2795
21
-79.8046
31
0.0
0
LINE
8
LOT-BOUNDARY
10
482.2795
20
-79.8046
30
0.0
11
407.3457
21
-82.9562
31
0.0
0
LINE
8
LOT-BOUNDARY
10
407.3457
20
-82.9562
30
0.0
11
403.1436
21
16.9555
31
0.0
0
TEXT
8
LOT-TEXT
7
STANDARD
10
427.7115
20
-31.4246
30
0.0
40
4.5
1
L6
50
0.0
0
TEXT
8
LOT-TEXT
7
STANDARD
10
427.7115
20
-39.4246
30
0.0
40
3.0
1
7,500sf
50
0.0
0
LINE
8
LOT-BOUNDARY
10
478.0774
20
20.1070
30
0.0
11
553.0111
21
23.2586
31
0.0
0
LINE
8
LOT-BOUNDARY
10
553.0111
20
23.2586
30
0.0
11
557.2132
21
-76.6531
31
0.0
0
LINE
8
LOT-BOUNDARY
10
557.2132
20
-76.6531
30
0.0
11
482.2795
21
-79.8046
31
0.0
0
LINE
8
LOT-BOUNDARY
10
482.2795
20
-79.8046
30
0.0
11
478.0774
21
20.1070
31
0.0
0
TEXT
8
LOT-TEXT
7
STANDARD
10
502.6453
20
-28.2730
30
0.0
40
4.5
1
L7
50
0.0
0
TEXT
8
LOT-TEXT
7
STANDARD
10
502.6453
20
-36.2730
30
0.0
40
3.0
1
7,500sf
50
0.0
0
LINE
8
LOT-BOUNDARY
10
553.0111
20
23.2586
30
0.0
11
627.9449
21
26.4102
31
0.0
0
LINE
8
LOT-BOUNDARY
10
627.9449
20
26.4102
30
0.0
11
632.1470
21
-73.5015
31
0.0
0
LINE
8
LOT-BOUNDARY
10
632.1470
20
-73.5015
30
0.0
11
557.2132
21
-76.6531
31
0.0
0
LINE
8
LOT-BOUNDARY
10
557.2132
20
-76.6531
30
0.0
11
553.0111
21
23.2586
31
0.0
0
TEXT
8
LOT-TEXT
7
STANDARD
10
577.5790
20
-25.1214
30
0.0
40
4.5
1
L8
50
0.0
0
TEXT
8
LOT-TEXT
7
STANDARD
10
577.5790
20
-33.1214
30
0.0
40
3.0
1
7,500sf
50
0.0
0
LINE
8
LOT-BOUNDARY
10
627.9449
20
26.4102
30
0.0
11
702.8786
21
29.5618
31
0.0
0
LINE
8
LOT-BOUNDARY
10
702.8786
20
29.5618
30
0.0
11
707.0807
21
-70.3499
31
0.0
0
LINE
8
LOT-BOUNDARY
10
707.0807
20
-70.3499
30
0.0
11
632.1470
21
-73.5015
31
0.0
0
LINE
8
LOT-BOUNDARY
10
632.1470
20
-73.5015
30
0.0
11
627.9449
21
26.4102
31
0.0
0
TEXT
8
LOT-TEXT
7
STANDARD
10
652.5128
20
-21.9699
30
0.0
40
4.5
1
L9
50
0.0
0
TEXT
8
LOT-TEXT
7
STANDARD
10
652.5128
20
-29.9699
30
0.0
40
3.0
1
7,500sf
50
0.0
0
LINE
8
LOT-BOUNDARY
10
702.8786
20
29.5618
30
0.0
11
777.8124
21
32.7133
31
0.0
0
LINE
8
LOT-BOUNDARY
10
777.8124
20
32.7133
30
0.0
11
782.0145
21
-67.1983
31
0.0
0
LINE
8
LOT-BOUNDARY
10
782.0145
20
-67.1983
30
0.0
11
707.0807
21
-70.3499
31
0.0
0
LINE
8
LOT-BOUNDARY
10
707.0807
20
-70.3499
30
0.0
11
702.8786
21
29.5618
31
0.0
0
TEXT
8
LOT-TEXT
7
STANDARD
10
727.4465
20
-18.8183
30
0.0
40
4.5
1
L10
50
0.0
0
TEXT
8
LOT-TEXT
7
STANDARD
10
727.4465
20
-26.8183
30
0.0
40
3.0
1
7,500sf
50
0.0
0
LINE
8
LOT-BOUNDARY
10
777.8124
20
32.7133
30
0.0
11
852.7461
21
35.8649
31
0.0
0
LINE
8
LOT-BOUNDARY
10
852.7461
20
35.8649
30
0.0
11
856.9482
21
-64.0468
31
0.0
0
LINE
8
LOT-BOUNDARY
10
856.9482
20
-64.0468
30
0.0
11
782.0145
21
-67.1983
31
0.0
0
LINE
8
LOT-BOUNDARY
10
782.0145
20
-67.1983
30
0.0
11
777.8124
21
32.7133
31
0.0
0
TEXT
8
LOT-TEXT
7
STANDARD
10
802.3803
20
-15.6667
30
0.0
40
4.5
1
L11
50
0.0
0
TEXT
8
LOT-TEXT
7
STANDARD
10
802.3803
20
-23.6667
30
0.0
40
3.0
1
7,500sf
50
0.0
0
LINE
8
LOT-BOUNDARY
10
852.7461
20
35.8649
30
0.0
11
927.6799
21
39.0165
31
0.0
0
LINE
8
LOT-BOUNDARY
10
927.6799
20
39.0165
30
0.0
11
931.8820
21
-60.8952
31
0.0
0
LINE
8
LOT-BOUNDARY
10
931.8820
20
-60.8952
30
0.0
11
856.9482
21
-64.0468
31
0.0
0
LINE
8
LOT-BOUNDARY
10
856.9482
20
-64.0468
30
0.0
11
852.7461
21
35.8649
31
0.0
0
TEXT
8
LOT-TEXT
7
STANDARD
10
877.3141
20
-12.5152
30
0.0
40
4.5
1
L12
50
0.0
0
TEXT
8
LOT-TEXT
7
STANDARD
10
877.3141
20
-20.5152
30
0.0
40
3.0
1
7,500sf
50
0.0
0
LINE
8
LOT-BOUNDARY
10
927.6799
20
39.0165
30
0.0
11
1002.6136
21
42.1680
31
0.0
0
LINE
8
LOT-BOUNDARY
10
1002.6136
20
42.1680
30
0.0
11
1006.8157
21
-57.7436
31
0.0
0
LINE
8
LOT-BOUNDARY
10
1006.8157
20
-57.7436
30
0.0
11
931.8820
21
-60.8952
31
0.0
0
LINE
8
LOT-BOUNDARY
10
931.8820
20
-60.8952
30
0.0
11
927.6799
21
39.0165
31
0.0
0
TEXT
8
LOT-TEXT
7
STANDARD
10
952.2478
20
-9.3636
30
0.0
40
4.5
1
L13
50
0.0
0
TEXT
8
LOT-TEXT
7
STANDARD
10
952.2478
20
-17.3636
30
0.0
40
3.0
1
7,500sf
50
0.0
0
LINE
8
LOT-BOUNDARY
10
1002.6136
20
42.1680
30
0.0
11
1077.5474
21
45.3196
31
0.0
0
LINE
8
LOT-BOUNDARY
10
1077.5474
20
45.3196
30
0.0
11
1081.7495
21
-54.5921
31
0.0
0
LINE
8
LOT-BOUNDARY
10
1081.7495
20
-54.5921
30
0.0
11
1006.8157
21
-57.7436
31
0.0
0
LINE
8
LOT-BOUNDARY
10
1006.8157
20
-57.7436
30
0.0
11
1002.6136
21
42.1680
31
0.0
0
TEXT
8
LOT-TEXT
7
STANDARD
10
1027.1816
20
-6.2120
30
0.0
40
4.5
1
L14
50
0.0
0
TEXT
8
LOT-TEXT
7
STANDARD
10
1027.1816
20
-14.2120
30
0.0
40
3.0
1
7,500sf
50
0.0
0
LINE
8
LOT-BOUNDARY
10
1077.5474
20
45.3196
30
0.0
11
1152.4811
21
48.4712
31
0.0
0
LINE
8
LOT-BOUNDARY
10
1152.4811
20
48.4712
30
0.0
11
1156.6832
21
-51.4405
31
0.0
0
LINE
8
LOT-BOUNDARY
10
1156.6832
20
-51.4405
30
0.0
11
1081.7495
21
-54.5921
31
0.0
0
LINE
8
LOT-BOUNDARY
10
1081.7495
20
-54.5921
30
0.0
11
1077.5474
21
45.3196
31
0.0
0
TEXT
8
LOT-TEXT
7
STANDARD
10
1102.1153
20
-3.0604
30
0.0
40
4.5
1
L15
50
0.0
0
TEXT
8
LOT-TEXT
7
STANDARD
10
1102.1153
20
-11.0604
30
0.0
40
3.0
1
7,500sf
50
0.0
0
LINE
8
LOT-BOUNDARY
10
1152.4811
20
48.4712
30
0.0
11
1227.4149
21
51.6228
31
0.0
0
LINE
8
LOT-BOUNDARY
10
1227.4149
20
51.6228
30
0.0
11
1231.6170
21
-48.2889
31
0.0
0
LINE
8
LOT-BOUNDARY
10
1231.6170
20
-48.2889
30
0.0
11
1156.6832
21
-51.4405
31
0.0
0
LINE
8
LOT-BOUNDARY
10
1156.6832
20
-51.4405
30
0.0
11
1152.4811
21
48.4712
31
0.0
0
TEXT
8
LOT-TEXT
7
STANDARD
10
1177.0491
20
0.0911
30
0.0
40
4.5
1
L16
50
0.0
0
TEXT
8
LOT-TEXT
7
STANDARD
10
1177.0491
20
-7.9089
30
0.0
40
3.0
1
7,500sf
50
0.0
0
LINE
8
LOT-BOUNDARY
10
1227.4149
20
51.6228
30
0.0
11
1302.3487
21
54.7743
31
0.0
0
LINE
8
LOT-BOUNDARY
10
1302.3487
20
54.7743
30
0.0
11
1306.5508
21
-45.1373
31
0.0
0
LINE
8
LOT-BOUNDARY
10
1306.5508
20
-45.1373
30
0.0
11
1231.6170
21
-48.2889
31
0.0
0
LINE
8
LOT-BOUNDARY
10
1231.6170
20
-48.2889
30
0.0
11
1227.4149
21
51.6228
31
0.0
0
TEXT
8
LOT-TEXT
7
STANDARD
10
1251.9828
20
3.2427
30
0.0
40
4.5
1
L17
50
0.0
0
TEXT
8
LOT-TEXT
7
STANDARD
10
1251.9828
20
-4.7573
30
0.0
40
3.0
1
7,500sf
50
0.0
0
LINE
8
LOT-BOUNDARY
10
1302.3487
20
54.7743
30
0.0
11
1377.2824
21
57.9259
31
0.0
0
LINE
8
LOT-BOUNDARY
10
1377.2824
20
57.9259
30
0.0
11
1381.4845
21
-41.9858
31
0.0
0
LINE
8
LOT-BOUNDARY
10
1381.4845
20
-41.9858
30
0.0
11
1306.5508
21
-45.1373
31
0.0
0
LINE
8
LOT-BOUNDARY
10
1306.5508
20
-45.1373
30
0.0
11
1302.3487
21
54.7743
31
0.0
0
TEXT
8
LOT-TEXT
7
STANDARD
10
1326.9166
20
6.3943
30
0.0
40
4.5
1
L18
50
0.0
0
TEXT
8
LOT-TEXT
7
STANDARD
10
1326.9166
20
-1.6057
30
0.0
40
3.0
1
7,500sf
50
0.0
0
LINE
8
LOT-BOUNDARY
10
1377.2824
20
57.9259
30
0.0
11
1493.5097
21
62.8142
31
0.0
0
LINE
8
LOT-BOUNDARY
10
1493.5097
20
62.8142
30
0.0
11
1494.4303
21
-12.9618
31
0.0
0
LINE
8
LOT-CURVE
10
1494.4303
20
-12.9618
30
0.0
11
1494.3436
21
-15.3669
31
0.0
0
LINE
8
LOT-CURVE
10
1494.3436
20
-15.3669
30
0.0
11
1494.0261
21
-17.7525
31
0.0
0
LINE
8
LOT-CURVE
10
1494.0261
20
-17.7525
30
0.0
11
1493.4806
21
-20.0966
31
0.0
0
LINE
8
LOT-CURVE
10
1493.4806
20
-20.0966
30
0.0
11
1492.7122
21
-22.3774
31
0.0
0
LINE
8
LOT-CURVE
10
1492.7122
20
-22.3774
30
0.0
11
1491.7281
21
-24.5737
31
0.0
0
LINE
8
LOT-CURVE
10
1491.7281
20
-24.5737
30
0.0
11
1490.5374
21
-26.6652
31
0.0
0
LINE
8
LOT-CURVE
10
1490.5374
20
-26.6652
30
0.0
11
1489.1510
21
-28.6325
31
0.0
0
LINE
8
LOT-CURVE
10
1489.1510
20
-28.6325
30
0.0
11
1487.5820
21
-30.4573
31
0.0
0
LINE
8
LOT-CURVE
10
1487.5820
20
-30.4573
30
0.0
11
1485.8447
21
-32.1229
31
0.0
0
LINE
8
LOT-CURVE
10
1485.8447
20
-32.1229
30
0.0
11
1483.9553
21
-33.6137
31
0.0
0
LINE
8
LOT-CURVE
10
1483.9553
20
-33.6137
30
0.0
11
1481.9313
21
-34.9159
31
0.0
0
LINE
8
LOT-CURVE
10
1481.9313
20
-34.9159
30
0.0
11
1479.7915
21
-36.0174
31
0.0
0
LINE
8
LOT-CURVE
10
1479.7915
20
-36.0174
30
0.0
11
1477.5557
21
-36.9081
31
0.0
0
LINE
8
LOT-CURVE
10
1477.5557
20
-36.9081
30
0.0
11
1475.2446
21
-37.5797
31
0.0
0
LINE
8
LOT-CURVE
10
1475.2446
20
-37.5797
30
0.0
11
1472.8796
21
-38.0259
31
0.0
0
LINE
8
LOT-CURVE
10
1472.8796
20
-38.0259
30
0.0
11
1470.4827
21
-38.2427
31
0.0
0
TEXT
8
LOT-DIM
7
STANDARD
10
1489.0820
20
-28.9573
30
0.0
40
2.2
1
R=25.0' L=38.5' D=88%%d17'10"
50
0.0
0
LINE
8
LOT-BOUNDARY
10
1470.4827
20
-38.2427
30
0.0
11
1381.4845
21
-41.9858
31
0.0
0
LINE
8
LOT-BOUNDARY
10
1381.4845
20
-41.9858
30
0.0
11
1377.2824
21
57.9259
31
0.0
0
TEXT
8
LOT-TEXT
7
STANDARD
10
1428.4379
20
5.5100
30
0.0
40
4.5
1
L19
50
0.0
0
TEXT
8
LOT-TEXT
7
STANDARD
10
1428.4379
20
-2.4900
30
0.0
40
3.0
1
11,358sf
50
0.0
0
TEXT
8
BLOCK-TITLE
7
STANDARD
10
0.0000
20
-370.0000
30
0.0
40
8.0
1
BLOCK_17 (34 LOTS)
50
0.0
0
LINE
8
BLOCK-BORDER
10
-15.0000
20
-614.8233
30
0.0
11
-15.0000
21
-299.2361
31
0.0
0
LINE
8
BLOCK-BORDER
10
-15.0000
20
-299.2361
30
0.0
11
1348.0673
21
-299.2361
31
0.0
0
LINE
8
BLOCK-BORDER
10
1348.0673
20
-299.2361
30
0.0
11
1348.0673
21
-614.8233
31
0.0
0
LINE
8
BLOCK-BORDER
10
1348.0673
20
-614.8233
30
0.0
11
-15.0000
21
-614.8233
31
0.0
0
LINE
8
LOT-CURVE
10
1.0505
20
-424.9779
30
0.0
11
1.0678
21
-422.5246
31
0.0
0
LINE
8
LOT-CURVE
10
1.0678
20
-422.5246
30
0.0
11
1.3255
21
-420.0848
31
0.0
0
LINE
8
LOT-CURVE
10
1.3255
20
-420.0848
30
0.0
11
1.8211
21
-417.6820
31
0.0
0
LINE
8
LOT-CURVE
10
1.8211
20
-417.6820
30
0.0
11
2.5498
21
-415.3393
31
0.0
0
LINE
8
LOT-CURVE
10
2.5498
20
-415.3393
30
0.0
11
3.5047
21
-413.0794
31
0.0
0
LINE
8
LOT-CURVE
10
3.5047
20
-413.0794
30
0.0
11
4.6764
21
-410.9239
31
0.0
0
LINE
8
LOT-CURVE
10
4.6764
20
-410.9239
30
0.0
11
6.0538
21
-408.8936
31
0.0
0
LINE
8
LOT-CURVE
10
6.0538
20
-408.8936
30
0.0
11
7.6236
21
-407.0082
31
0.0
0
LINE
8
LOT-CURVE
10
7.6236
20
-407.0082
30
0.0
11
9.3706
21
-405.2856
31
0.0
0
LINE
8
LOT-CURVE
10
9.3706
20
-405.2856
30
0.0
11
11.2780
21
-403.7427
31
0.0
0
LINE
8
LOT-CURVE
10
11.2780
20
-403.7427
30
0.0
11
13.3275
21
-402.3941
31
0.0
0
LINE
8
LOT-CURVE
10
13.3275
20
-402.3941
30
0.0
11
15.4992
21
-401.2528
31
0.0
0
LINE
8
LOT-CURVE
10
15.4992
20
-401.2528
30
0.0
11
17.7724
21
-400.3300
31
0.0
0
LINE
8
LOT-CURVE
10
17.7724
20
-400.3300
30
0.0
11
20.1252
21
-399.6344
31
0.0
0
LINE
8
LOT-CURVE
10
20.1252
20
-399.6344
30
0.0
11
22.5347
21
-399.1727
31
0.0
0
LINE
8
LOT-CURVE
10
22.5347
20
-399.1727
30
0.0
11
24.9779
21
-398.9495
31
0.0
0
TEXT
8
LOT-DIM
7
STANDARD
10
9.1236
20
-405.5082
30
0.0
40
2.2
1
R=25.0' L=39.3' D=90%%d00'00"
50
0.0
0
LINE
8
LOT-BOUNDARY
10
24.9779
20
-398.9495
30
0.0
11
93.4174
21
-396.0710
31
0.0
0
LINE
8
LOT-BOUNDARY
10
93.4174
20
-396.0710
30
0.0
11
97.6195
21
-495.9827
31
0.0
0
LINE
8
LOT-BOUNDARY
10
97.6195
20
-495.9827
30
0.0
11
4.2021
21
-499.9117
31
0.0
0
LINE
8
LOT-BOUNDARY
10
4.2021
20
-499.9117
30
0.0
11
1.0505
21
-424.9779
31
0.0
0
TEXT
8
LOT-TEXT
7
STANDARD
10
29.2535
20
-443.1786
30
0.0
40
4.5
1
L1
50
0.0
0
TEXT
8
LOT-TEXT
7
STANDARD
10
29.2535
20
-451.1786
30
0.0
40
3.0
1
9,216sf
50
0.0
0
LINE
8
LOT-BOUNDARY
10
93.4174
20
-396.0710
30
0.0
11
168.3512
21
-392.9195
31
0.0
0
LINE
8
LOT-BOUNDARY
10
168.3512
20
-392.9195
30
0.0
11
172.5533
21
-492.8311
31
0.0
0
LINE
8
LOT-BOUNDARY
10
172.5533
20
-492.8311
30
0.0
11
97.6195
21
-495.9827
31
0.0
0
LINE
8
LOT-BOUNDARY
10
97.6195
20
-495.9827
30
0.0
11
93.4174
21
-396.0710
31
0.0
0
TEXT
8
LOT-TEXT
7
STANDARD
10
117.9853
20
-444.4511
30
0.0
40
4.5
1
L2
50
0.0
0
TEXT
8
LOT-TEXT
7
STANDARD
10
117.9853
20
-452.4511
30
0.0
40
3.0
1
7,500sf
50
0.0
0
LINE
8
LOT-BOUNDARY
10
168.3512
20
-392.9195
30
0.0
11
243.2849
21
-389.7679
31
0.0
0
LINE
8
LOT-BOUNDARY
10
243.2849
20
-389.7679
30
0.0
11
247.4870
21
-489.6796
31
0.0
0
LINE
8
LOT-BOUNDARY
10
247.4870
20
-489.6796
30
0.0
11
172.5533
21
-492.8311
31
0.0
0
LINE
8
LOT-BOUNDARY
10
172.5533
20
-492.8311
30
0.0
11
168.3512
21
-392.9195
31
0.0
0
TEXT
8
LOT-TEXT
7
STANDARD
10
192.9191
20
-441.2995
30
0.0
40
4.5
1
L3
50
0.0
0
TEXT
8
LOT-TEXT
7
STANDARD
10
192.9191
20
-449.2995
30
0.0
40
3.0
1
7,500sf
50
0.0
0
LINE
8
LOT-BOUNDARY
10
243.2849
20
-389.7679
30
0.0
11
318.2187
21
-386.6163
31
0.0
0
LINE
8
LOT-BOUNDARY
10
318.2187
20
-386.6163
30
0.0
11
322.4208
21
-486.5280
31
0.0
0
LINE
8
LOT-BOUNDARY
10
322.4208
20
-486.5280
30
0.0
11
247.4870
21
-489.6796
31
0.0
0
LINE
8
LOT-BOUNDARY
10
247.4870
20
-489.6796
30
0.0
11
243.2849
21
-389.7679
31
0.0
0
TEXT
8
LOT-TEXT
7
STANDARD
10
267.8528
20
-438.1479
30
0.0
40
4.5
1
L4
50
0.0
0
TEXT
8
LOT-TEXT
7
STANDARD
10
267.8528
20
-446.1479
30
0.0
40
3.0
1
7,500sf
50
0.0
0
LINE
8
LOT-BOUNDARY
10
318.2187
20
-386.6163
30
0.0
11
393.1524
21
-383.4647
31
0.0
0
LINE
8
LOT-BOUNDARY
10
393.1524
20
-383.4647
30
0.0
11
397.3545
21
-483.3764
31
0.0
0
LINE
8
LOT-BOUNDARY
10
397.3545
20
-483.3764
30
0.0
11
322.4208
21
-486.5280
31
0.0
0
LINE
8
LOT-BOUNDARY
10
322.4208
20
-486.5280
30
0.0
11
318.2187
21
-386.6163
31
0.0
0
TEXT
8
LOT-TEXT
7
STANDARD
10
342.7866
20
-434.9964
30
0.0
40
4.5
1
L5
50
0.0
0
TEXT
8
LOT-TEXT
7
STANDARD
10
342.7866
20
-442.9964
30
0.0
40
3.0
1
7,500sf
50
0.0
0
LINE
8
LOT-BOUNDARY
10
393.1524
20
-383.4647
30
0.0
11
468.0862
21
-380.3132
31
0.0
0
LINE
8
LOT-BOUNDARY
10
468.0862
20
-380.3132
30
0.0
11
472.2883
21
-480.2248
31
0.0
0
LINE
8
LOT-BOUNDARY
10
472.2883
20
-480.2248
30
0.0
11
397.3545
21
-483.3764
31
0.0
0
LINE
8
LOT-BOUNDARY
10
397.3545
20
-483.3764
30
0.0
11
393.1524
21
-383.4647
31
0.0
0
TEXT
8
LOT-TEXT
7
STANDARD
10
417.7204
20
-431.8448
30
0.0
40
4.5
1
L6
50
0.0
0
TEXT
8
LOT-TEXT
7
STANDARD
10
417.7204
20
-439.8448
30
0.0
40
3.0
1
7,500sf
50
0.0
0
LINE
8
LOT-BOUNDARY
10
468.0862
20
-380.3132
30
0.0
11
543.0199
21
-377.1616
31
0.0
0
LINE
8
LOT-BOUNDARY
10
543.0199
20
-377.1616
30
0.0
11
547.2220
21
-477.0733
31
0.0
0
LINE
8
LOT-BOUNDARY
10
547.2220
20
-477.0733
30
0.0
11
472.2883
21
-480.2248
31
0.0
0
LINE
8
LOT-BOUNDARY
10
472.2883
20
-480.2248
30
0.0
11
468.0862
21
-380.3132
31
0.0
0
TEXT
8
LOT-TEXT
7
STANDARD
10
492.6541
20
-428.6932
30
0.0
40
4.5
1
L7
50
0.0
0
TEXT
8
LOT-TEXT
7
STANDARD
10
492.6541
20
-436.6932
30
0.0
40
3.0
1
7,500sf
50
0.0
0
LINE
8
LOT-BOUNDARY
10
543.0199
20
-377.1616
30
0.0
11
617.9537
21
-374.0100
31
0.0
0
LINE
8
LOT-BOUNDARY
10
617.9537
20
-374.0100
30
0.0
11
622.1558
21
-473.9217
31
0.0
0
LINE
8
LOT-BOUNDARY
10
622.1558
20
-473.9217
30
0.0
11
547.2220
21
-477.0733
31
0.0
0
LINE
8
LOT-BOUNDARY
10
547.2220
20
-477.0733
30
0.0
11
543.0199
21
-377.1616
31
0.0
0
TEXT
8
LOT-TEXT
7
STANDARD
10
567.5879
20
-425.5417
30
0.0
40
4.5
1
L8
50
0.0
0
TEXT
8
LOT-TEXT
7
STANDARD
10
567.5879
20
-433.5417
30
0.0
40
3.0
1
7,500sf
50
0.0
0
LINE
8
LOT-BOUNDARY
10
617.9537
20
-374.0100
30
0.0
11
692.8875
21
-370.8585
31
0.0
0
LINE
8
LOT-BOUNDARY
10
692.8875
20
-370.8585
30
0.0
11
697.0895
21
-470.7701
31
0.0
0
LINE
8
LOT-BOUNDARY
10
697.0895
20
-470.7701
30
0.0
11
622.1558
21
-473.9217
31
0.0
0
LINE
8
LOT-BOUNDARY
10
622.1558
20
-473.9217
30
0.0
11
617.9537
21
-374.0100
31
0.0
0
TEXT
8
LOT-TEXT
7
STANDARD
10
642.5216
20
-422.3901
30
0.0
40
4.5
1
L9
50
0.0
0
TEXT
8
LOT-TEXT
7
STANDARD
10
642.5216
20
-430.3901
30
0.0
40
3.0
1
7,500sf
50
0.0
0
LINE
8
LOT-BOUNDARY
10
692.8875
20
-370.8585
30
0.0
11
767.8212
21
-367.7069
31
0.0
0
LINE
8
LOT-BOUNDARY
10
767.8212
20
-367.7069
30
0.0
11
772.0233
21
-467.6186
31
0.0
0
LINE
8
LOT-BOUNDARY
10
772.0233
20
-467.6186
30
0.0
11
697.0895
21
-470.7701
31
0.0
0
LINE
8
LOT-BOUNDARY
10
697.0895
20
-470.7701
30
0.0
11
692.8875
21
-370.8585
31
0.0
0
TEXT
8
LOT-TEXT
7
STANDARD
10
717.4554
20
-419.2385
30
0.0
40
4.5
1
L10
50
0.0
0
TEXT
8
LOT-TEXT
7
STANDARD
10
717.4554
20
-427.2385
30
0.0
40
3.0
1
7,500sf
50
0.0
0
LINE
8
LOT-BOUNDARY
10
767.8212
20
-367.7069
30
0.0
11
842.7550
21
-364.5553
31
0.0
0
LINE
8
LOT-BOUNDARY
10
842.7550
20
-364.5553
30
0.0
11
846.9571
21
-464.4670
31
0.0
0
LINE
8
LOT-BOUNDARY
10
846.9571
20
-464.4670
30
0.0
11
772.0233
21
-467.6186
31
0.0
0
LINE
8
LOT-BOUNDARY
10
772.0233
20
-467.6186
30
0.0
11
767.8212
21
-367.7069
31
0.0
0
TEXT
8
LOT-TEXT
7
STANDARD
10
792.3891
20
-416.0869
30
0.0
40
4.5
1
L11
50
0.0
0
TEXT
8
LOT-TEXT
7
STANDARD
10
792.3891
20
-424.0869
30
0.0
40
3.0
1
7,500sf
50
0.0
0
LINE
8
LOT-BOUNDARY
10
842.7550
20
-364.5553
30
0.0
11
917.6887
21
-361.4037
31
0.0
0
LINE
8
LOT-BOUNDARY
10
917.6887
20
-361.4037
30
0.0
11
921.8908
21
-461.3154
31
0.0
0
LINE
8
LOT-BOUNDARY
10
921.8908
20
-461.3154
30
0.0
11
846.9571
21
-464.4670
31
0.0
0
LINE
8
LOT-BOUNDARY
10
846.9571
20
-464.4670
30
0.0
11
842.7550
21
-364.5553
31
0.0
0
TEXT
8
LOT-TEXT
7
STANDARD
10
867.3229
20
-412.9354
30
0.0
40
4.5
1
L12
50
0.0
0
TEXT
8
LOT-TEXT
7
STANDARD
10
867.3229
20
-420.9354
30
0.0
40
3.0
1
7,500sf
50
0.0
0
LINE
8
LOT-BOUNDARY
10
917.6887
20
-361.4037
30
0.0
11
992.6225
21
-358.2522
31
0.0
0
LINE
8
LOT-BOUNDARY
10
992.6225
20
-358.2522
30
0.0
11
996.8246
21
-458.1638
31
0.0
0
LINE
8
LOT-BOUNDARY
10
996.8246
20
-458.1638
30
0.0
11
921.8908
21
-461.3154
31
0.0
0
LINE
8
LOT-BOUNDARY
10
921.8908
20
-461.3154
30
0.0
11
917.6887
21
-361.4037
31
0.0
0
TEXT
8
LOT-TEXT
7
STANDARD
10
942.2566
20
-409.7838
30
0.0
40
4.5
1
L13
50
0.0
0
TEXT
8
LOT-TEXT
7
STANDARD
10
942.2566
20
-417.7838
30
0.0
40
3.0
1
7,500sf
50
0.0
0
LINE
8
LOT-BOUNDARY
10
992.6225
20
-358.2522
30
0.0
11
1067.5562
21
-355.1006
31
0.0
0
LINE
8
LOT-BOUNDARY
10
1067.5562
20
-355.1006
30
0.0
11
1071.7583
21
-455.0123
31
0.0
0
LINE
8
LOT-BOUNDARY
10
1071.7583
20
-455.0123
30
0.0
11
996.8246
21
-458.1638
31
0.0
0
LINE
8
LOT-BOUNDARY
10
996.8246
20
-458.1638
30
0.0
11
992.6225
21
-358.2522
31
0.0
0
TEXT
8
LOT-TEXT
7
STANDARD
10
1017.1904
20
-406.6322
30
0.0
40
4.5
1
L14
50
0.0
0
TEXT
8
LOT-TEXT
7
STANDARD
10
1017.1904
20
-414.6322
30
0.0
40
3.0
1
7,500sf
50
0.0
0
LINE
8
LOT-BOUNDARY
10
1067.5562
20
-355.1006
30
0.0
11
1142.4900
21
-351.9490
31
0.0
0
LINE
8
LOT-BOUNDARY
10
1142.4900
20
-351.9490
30
0.0
11
1146.6921
21
-451.8607
31
0.0
0
LINE
8
LOT-BOUNDARY
10
1146.6921
20
-451.8607
30
0.0
11
1071.7583
21
-455.0123
31
0.0
0
LINE
8
LOT-BOUNDARY
10
1071.7583
20
-455.0123
30
0.0
11
1067.5562
21
-355.1006
31
0.0
0
TEXT
8
LOT-TEXT
7
STANDARD
10
1092.1242
20
-403.4806
30
0.0
40
4.5
1
L15
50
0.0
0
TEXT
8
LOT-TEXT
7
STANDARD
10
1092.1242
20
-411.4806
30
0.0
40
3.0
1
7,500sf
50
0.0
0
LINE
8
LOT-BOUNDARY
10
1142.4900
20
-351.9490
30
0.0
11
1217.4237
21
-348.7974
31
0.0
0
LINE
8
LOT-BOUNDARY
10
1217.4237
20
-348.7974
30
0.0
11
1221.6258
21
-448.7091
31
0.0
0
LINE
8
LOT-BOUNDARY
10
1221.6258
20
-448.7091
30
0.0
11
1146.6921
21
-451.8607
31
0.0
0
LINE
8
LOT-BOUNDARY
10
1146.6921
20
-451.8607
30
0.0
11
1142.4900
21
-351.9490
31
0.0
0
TEXT
8
LOT-TEXT
7
STANDARD
10
1167.0579
20
-400.3291
30
0.0
40
4.5
1
L16
50
0.0
0
TEXT
8
LOT-TEXT
7
STANDARD
10
1167.0579
20
-408.3291
30
0.0
40
3.0
1
7,500sf
50
0.0
0
LINE
8
LOT-BOUNDARY
10
1217.4237
20
-348.7974
30
0.0
11
1325.8779
21
-344.2361
31
0.0
0
LINE
8
LOT-BOUNDARY
10
1325.8779
20
-344.2361
30
0.0
11
1333.0673
21
-444.0221
31
0.0
0
LINE
8
LOT-BOUNDARY
10
1333.0673
20
-444.0221
30
0.0
11
1221.6258
21
-448.7091
31
0.0
0
LINE
8
LOT-BOUNDARY
10
1221.6258
20
-448.7091
30
0.0
11
1217.4237
21
-348.7974
31
0.0
0
TEXT
8
LOT-TEXT
7
STANDARD
10
1259.4987
20
-396.4412
30
0.0
40
4.5
1
L17
50
0.0
0
TEXT
8
LOT-TEXT
7
STANDARD
10
1259.4987
20
-404.4412
30
0.0
40
3.0
1
11,004sf
50
0.0
0
LINE
8
LOT-BOUNDARY
10
4.2021
20
-499.9117
30
0.0
11
97.6195
21
-495.9827
31
0.0
0
LINE
8
LOT-BOUNDARY
10
97.6195
20
-495.9827
30
0.0
11
101.8216
21
-595.8944
31
0.0
0
LINE
8
LOT-BOUNDARY
10
101.8216
20
-595.8944
30
0.0
11
33.3821
21
-598.7728
31
0.0
0
LINE
8
LOT-CURVE
10
33.3821
20
-598.7728
30
0.0
11
30.9288
21
-598.7555
31
0.0
0
LINE
8
LOT-CURVE
10
30.9288
20
-598.7555
30
0.0
11
28.4890
21
-598.4978
31
0.0
0
LINE
8
LOT-CURVE
10
28.4890
20
-598.4978
30
0.0
11
26.0862
21
-598.0022
31
0.0
0
LINE
8
LOT-CURVE
10
26.0862
20
-598.0022
30
0.0
11
23.7435
21
-597.2735
31
0.0
0
LINE
8
LOT-CURVE
10
23.7435
20
-597.2735
30
0.0
11
21.4836
21
-596.3187
31
0.0
0
LINE
8
LOT-CURVE
10
21.4836
20
-596.3187
30
0.0
11
19.3281
21
-595.1469
31
0.0
0
LINE
8
LOT-CURVE
10
19.3281
20
-595.1469
30
0.0
11
17.2978
21
-593.7695
31
0.0
0
LINE
8
LOT-CURVE
10
17.2978
20
-593.7695
30
0.0
11
15.4124
21
-592.1998
31
0.0
0
LINE
8
LOT-CURVE
10
15.4124
20
-592.1998
30
0.0
11
13.6898
21
-590.4528
31
0.0
0
LINE
8
LOT-CURVE
10
13.6898
20
-590.4528
30
0.0
11
12.1468
21
-588.5454
31
0.0
0
LINE
8
LOT-CURVE
10
12.1468
20
-588.5454
30
0.0
11
10.7982
21
-586.4959
31
0.0
0
LINE
8
LOT-CURVE
10
10.7982
20
-586.4959
30
0.0
11
9.6570
21
-584.3241
31
0.0
0
LINE
8
LOT-CURVE
10
9.6570
20
-584.3241
30
0.0
11
8.7342
21
-582.0509
31
0.0
0
LINE
8
LOT-CURVE
10
8.7342
20
-582.0509
30
0.0
11
8.0386
21
-579.6982
31
0.0
0
LINE
8
LOT-CURVE
10
8.0386
20
-579.6982
30
0.0
11
7.5769
21
-577.2886
31
0.0
0
LINE
8
LOT-CURVE
10
7.5769
20
-577.2886
30
0.0
11
7.3537
21
-574.8454
31
0.0
0
TEXT
8
LOT-DIM
7
STANDARD
10
16.9124
20
-590.6998
30
0.0
40
2.2
1
R=25.0' L=39.3' D=90%%d00'00"
50
0.0
0
LINE
8
LOT-BOUNDARY
10
7.3537
20
-574.8454
30
0.0
11
4.2021
21
-499.9117
31
0.0
0
TEXT
8
LOT-TEXT
7
STANDARD
10
33.8758
20
-553.0814
30
0.0
40
4.5
1
L34
50
0.0
0
TEXT
8
LOT-TEXT
7
STANDARD
10
33.8758
20
-561.0814
30
0.0
40
3.0
1
9,216sf
50
0.0
0
LINE
8
LOT-BOUNDARY
10
97.6195
20
-495.9827
30
0.0
11
172.5533
21
-492.8311
31
0.0
0
LINE
8
LOT-BOUNDARY
10
172.5533
20
-492.8311
30
0.0
11
176.7554
21
-592.7428
31
0.0
0
LINE
8
LOT-BOUNDARY
10
176.7554
20
-592.7428
30
0.0
11
101.8216
21
-595.8944
31
0.0
0
LINE
8
LOT-BOUNDARY
10
101.8216
20
-595.8944
30
0.0
11
97.6195
21
-495.9827
31
0.0
0
TEXT
8
LOT-TEXT
7
STANDARD
10
122.1874
20
-544.3628
30
0.0
40
4.5
1
L33
50
0.0
0
TEXT
8
LOT-TEXT
7
STANDARD
10
122.1874
20
-552.3628
30
0.0
40
3.0
1
7,500sf
50
0.0
0
LINE
8
LOT-BOUNDARY
10
172.5533
20
-492.8311
30
0.0
11
247.4870
21
-489.6796
31
0.0
0
LINE
8
LOT-BOUNDARY
10
247.4870
20
-489.6796
30
0.0
11
251.6891
21
-589.5912
31
0.0
0
LINE
8
LOT-BOUNDARY
10
251.6891
20
-589.5912
30
0.0
11
176.7554
21
-592.7428
31
0.0
0
LINE
8
LOT-BOUNDARY
10
176.7554
20
-592.7428
30
0.0
11
172.5533
21
-492.8311
31
0.0
0
TEXT
8
LOT-TEXT
7
STANDARD
10
197.1212
20
-541.2112
30
0.0
40
4.5
1
L32
50
0.0
0
TEXT
8
LOT-TEXT
7
STANDARD
10
197.1212
20
-549.2112
30
0.0
40
3.0
1
7,500sf
50
0.0
0
LINE
8
LOT-BOUNDARY
10
247.4870
20
-489.6796
30
0.0
11
322.4208
21
-486.5280
31
0.0
0
LINE
8
LOT-BOUNDARY
10
322.4208
20
-486.5280
30
0.0
11
326.6229
21
-586.4397
31
0.0
0
LINE
8
LOT-BOUNDARY
10
326.6229
20
-586.4397
30
0.0
11
251.6891
21
-589.5912
31
0.0
0
LINE
8
LOT-BOUNDARY
10
251.6891
20
-589.5912
30
0.0
11
247.4870
21
-489.6796
31
0.0
0
TEXT
8
LOT-TEXT
7
STANDARD
10
272.0549
20
-538.0596
30
0.0
40
4.5
1
L31
50
0.0
0
TEXT
8
LOT-TEXT
7
STANDARD
10
272.0549
20
-546.0596
30
0.0
40
3.0
1
7,500sf
50
0.0
0
LINE
8
LOT-BOUNDARY
10
322.4208
20
-486.5280
30
0.0
11
397.3545
21
-483.3764
31
0.0
0
LINE
8
LOT-BOUNDARY
10
397.3545
20
-483.3764
30
0.0
11
401.5566
21
-583.2881
31
0.0
0
LINE
8
LOT-BOUNDARY
10
401.5566
20
-583.2881
30
0.0
11
326.6229
21
-586.4397
31
0.0
0
LINE
8
LOT-BOUNDARY
10
326.6229
20
-586.4397
30
0.0
11
322.4208
21
-486.5280
31
0.0
0
TEXT
8
LOT-TEXT
7
STANDARD
10
346.9887
20
-534.9080
30
0.0
40
4.5
1
L30
50
0.0
0
TEXT
8
LOT-TEXT
7
STANDARD
10
346.9887
20
-542.9080
30
0.0
40
3.0
1
7,500sf
50
0.0
0
LINE
8
LOT-BOUNDARY
10
397.3545
20
-483.3764
30
0.0
11
472.2883
21
-480.2248
31
0.0
0
LINE
8
LOT-BOUNDARY
10
472.2883
20
-480.2248
30
0.0
11
476.4904
21
-580.1365
31
0.0
0
LINE
8
LOT-BOUNDARY
10
476.4904
20
-580.1365
30
0.0
11
401.5566
21
-583.2881
31
0.0
0
LINE
8
LOT-BOUNDARY
10
401.5566
20
-583.2881
30
0.0
11
397.3545
21
-483.3764
31
0.0
0
TEXT
8
LOT-TEXT
7
STANDARD
10
421.9225
20
-531.7565
30
0.0
40
4.5
1
L29
50
0.0
0
TEXT
8
LOT-TEXT
7
STANDARD
10
421.9225
20
-539.7565
30
0.0
40
3.0
1
7,500sf
50
0.0
0
LINE
8
LOT-BOUNDARY
10
472.2883
20
-480.2248
30
0.0
11
547.2220
21
-477.0733
31
0.0
0
LINE
8
LOT-BOUNDARY
10
547.2220
20
-477.0733
30
0.0
11
551.4241
21
-576.9849
31
0.0
0
LINE
8
LOT-BOUNDARY
10
551.4241
20
-576.9849
30
0.0
11
476.4904
21
-580.1365
31
0.0
0
LINE
8
LOT-BOUNDARY
10
476.4904
20
-580.1365
30
0.0
11
472.2883
21
-480.2248
31
0.0
0
TEXT
8
LOT-TEXT
7
STANDARD
10
496.8562
20
-528.6049
30
0.0
40
4.5
1
L28
50
0.0
0
TEXT
8
LOT-TEXT
7
STANDARD
10
496.8562
20
-536.6049
30
0.0
40
3.0
1
7,500sf
50
0.0
0
LINE
8
LOT-BOUNDARY
10
547.2220
20
-477.0733
30
0.0
11
622.1558
21
-473.9217
31
0.0
0
LINE
8
LOT-BOUNDARY
10
622.1558
20
-473.9217
30
0.0
11
626.3579
21
-573.8334
31
0.0
0
LINE
8
LOT-BOUNDARY
10
626.3579
20
-573.8334
30
0.0
11
551.4241
21
-576.9849
31
0.0
0
LINE
8
LOT-BOUNDARY
10
551.4241
20
-576.9849
30
0.0
11
547.2220
21
-477.0733
31
0.0
0
TEXT
8
LOT-TEXT
7
STANDARD
10
571.7900
20
-525.4533
30
0.0
40
4.5
1
L27
50
0.0
0
TEXT
8
LOT-TEXT
7
STANDARD
10
571.7900
20
-533.4533
30
0.0
40
3.0
1
7,500sf
50
0.0
0
LINE
8
LOT-BOUNDARY
10
622.1558
20
-473.9217
30
0.0
11
697.0895
21
-470.7701
31
0.0
0
LINE
8
LOT-BOUNDARY
10
697.0895
20
-470.7701
30
0.0
11
701.2916
21
-570.6818
31
0.0
0
LINE
8
LOT-BOUNDARY
10
701.2916
20
-570.6818
30
0.0
11
626.3579
21
-573.8334
31
0.0
0
LINE
8
LOT-BOUNDARY
10
626.3579
20
-573.8334
30
0.0
11
622.1558
21
-473.9217
31
0.0
0
TEXT
8
LOT-TEXT
7
STANDARD
10
646.7237
20
-522.3018
30
0.0
40
4.5
1
L26
50
0.0
0
TEXT
8
LOT-TEXT
7
STANDARD
10
646.7237
20
-530.3018
30
0.0
40
3.0
1
7,500sf
50
0.0
0
LINE
8
LOT-BOUNDARY
10
697.0895
20
-470.7701
30
0.0
11
772.0233
21
-467.6186
31
0.0
0
LINE
8
LOT-BOUNDARY
10
772.0233
20
-467.6186
30
0.0
11
776.2254
21
-567.5302
31
0.0
0
LINE
8
LOT-BOUNDARY
10
776.2254
20
-567.5302
30
0.0
11
701.2916
21
-570.6818
31
0.0
0
LINE
8
LOT-BOUNDARY
10
701.2916
20
-570.6818
30
0.0
11
697.0895
21
-470.7701
31
0.0
0
TEXT
8
LOT-TEXT
7
STANDARD
10
721.6575
20
-519.1502
30
0.0
40
4.5
1
L25
50
0.0
0
TEXT
8
LOT-TEXT
7
STANDARD
10
721.6575
20
-527.1502
30
0.0
40
3.0
1
7,500sf
50
0.0
0
LINE
8
LOT-BOUNDARY
10
772.0233
20
-467.6186
30
0.0
11
846.9571
21
-464.4670
31
0.0
0
LINE
8
LOT-BOUNDARY
10
846.9571
20
-464.4670
30
0.0
11
851.1592
21
-564.3787
31
0.0
0
LINE
8
LOT-BOUNDARY
10
851.1592
20
-564.3787
30
0.0
11
776.2254
21
-567.5302
31
0.0
0
LINE
8
LOT-BOUNDARY
10
776.2254
20
-567.5302
30
0.0
11
772.0233
21
-467.6186
31
0.0
0
TEXT
8
LOT-TEXT
7
STANDARD
10
796.5912
20
-515.9986
30
0.0
40
4.5
1
L24
50
0.0
0
TEXT
8
LOT-TEXT
7
STANDARD
10
796.5912
20
-523.9986
30
0.0
40
3.0
1
7,500sf
50
0.0
0
LINE
8
LOT-BOUNDARY
10
846.9571
20
-464.4670
30
0.0
11
921.8908
21
-461.3154
31
0.0
0
LINE
8
LOT-BOUNDARY
10
921.8908
20
-461.3154
30
0.0
11
926.0929
21
-561.2271
31
0.0
0
LINE
8
LOT-BOUNDARY
10
926.0929
20
-561.2271
30
0.0
11
851.1592
21
-564.3787
31
0.0
0
LINE
8
LOT-BOUNDARY
10
851.1592
20
-564.3787
30
0.0
11
846.9571
21
-464.4670
31
0.0
0
TEXT
8
LOT-TEXT
7
STANDARD
10
871.5250
20
-512.8470
30
0.0
40
4.5
1
L23
50
0.0
0
TEXT
8
LOT-TEXT
7
STANDARD
10
871.5250
20
-520.8470
30
0.0
40
3.0
1
7,500sf
50
0.0
0
LINE
8
LOT-BOUNDARY
10
921.8908
20
-461.3154
30
0.0
11
996.8246
21
-458.1638
31
0.0
0
LINE
8
LOT-BOUNDARY
10
996.8246
20
-458.1638
30
0.0
11
1001.0267
21
-558.0755
31
0.0
0
LINE
8
LOT-BOUNDARY
10
1001.0267
20
-558.0755
30
0.0
11
926.0929
21
-561.2271
31
0.0
0
LINE
8
LOT-BOUNDARY
10
926.0929
20
-561.2271
30
0.0
11
921.8908
21
-461.3154
31
0.0
0
TEXT
8
LOT-TEXT
7
STANDARD
10
946.4587
20
-509.6955
30
0.0
40
4.5
1
L22
50
0.0
0
TEXT
8
LOT-TEXT
7
STANDARD
10
946.4587
20
-517.6955
30
0.0
40
3.0
1
7,500sf
50
0.0
0
LINE
8
LOT-BOUNDARY
10
996.8246
20
-458.1638
30
0.0
11
1071.7583
21
-455.0123
31
0.0
0
LINE
8
LOT-BOUNDARY
10
1071.7583
20
-455.0123
30
0.0
11
1075.9604
21
-554.9239
31
0.0
0
LINE
8
LOT-BOUNDARY
10
1075.9604
20
-554.9239
30
0.0
11
1001.0267
21
-558.0755
31
0.0
0
LINE
8
LOT-BOUNDARY
10
1001.0267
20
-558.0755
30
0.0
11
996.8246
21
-458.1638
31
0.0
0
TEXT
8
LOT-TEXT
7
STANDARD
10
1021.3925
20
-506.5439
30
0.0
40
4.5
1
L21
50
0.0
0
TEXT
8
LOT-TEXT
7
STANDARD
10
1021.3925
20
-514.5439
30
0.0
40
3.0
1
7,500sf
50
0.0
0
LINE
8
LOT-BOUNDARY
10
1071.7583
20
-455.0123
30
0.0
11
1146.6921
21
-451.8607
31
0.0
0
LINE
8
LOT-BOUNDARY
10
1146.6921
20
-451.8607
30
0.0
11
1150.8942
21
-551.7724
31
0.0
0
LINE
8
LOT-BOUNDARY
10
1150.8942
20
-551.7724
30
0.0
11
1075.9604
21
-554.9239
31
0.0
0
LINE
8
LOT-BOUNDARY
10
1075.9604
20
-554.9239
30
0.0
11
1071.7583
21
-455.0123
31
0.0
0
TEXT
8
LOT-TEXT
7
STANDARD
10
1096.3262
20
-503.3923
30
0.0
40
4.5
1
L20
50
0.0
0
TEXT
8
LOT-TEXT
7
STANDARD
10
1096.3262
20
-511.3923
30
0.0
40
3.0
1
7,500sf
50
0.0
0
LINE
8
LOT-BOUNDARY
10
1146.6921
20
-451.8607
30
0.0
11
1221.6258
21
-448.7091
31
0.0
0
LINE
8
LOT-BOUNDARY
10
1221.6258
20
-448.7091
30
0.0
11
1225.8279
21
-548.6208
31
0.0
0
LINE
8
LOT-BOUNDARY
10
1225.8279
20
-548.6208
30
0.0
11
1150.8942
21
-551.7724
31
0.0
0
LINE
8
LOT-BOUNDARY
10
1150.8942
20
-551.7724
30
0.0
11
1146.6921
21
-451.8607
31
0.0
0
TEXT
8
LOT-TEXT
7
STANDARD
10
1171.2600
20
-500.2407
30
0.0
40
4.5
1
L19
50
0.0
0
TEXT
8
LOT-TEXT
7
STANDARD
10
1171.2600
20
-508.2407
30
0.0
40
3.0
1
7,500sf
50
0.0
0
LINE
8
LOT-BOUNDARY
10
1221.6258
20
-448.7091
30
0.0
11
1333.0673
21
-444.0221
31
0.0
0
LINE
8
LOT-BOUNDARY
10
1333.0673
20
-444.0221
30
0.0
11
1331.2947
21
-544.1851
31
0.0
0
LINE
8
LOT-BOUNDARY
10
1331.2947
20
-544.1851
30
0.0
11
1225.8279
21
-548.6208
31
0.0
0
LINE
8
LOT-BOUNDARY
10
1225.8279
20
-548.6208
30
0.0
11
1221.6258
21
-448.7091
31
0.0
0
TEXT
8
LOT-TEXT
7
STANDARD
10
1262.9539
20
-496.3843
30
0.0
40
4.5
1
L18
50
0.0
0
TEXT
8
LOT-TEXT
7
STANDARD
10
1262.9539
20
-504.3843
30
0.0
40
3.0
1
10,855sf
50
0.0
0
TEXT
8
BLOCK-TITLE
7
STANDARD
10
0.0000
20
-770.0000
30
0.0
40
8.0
1
BLOCK_16 (14 LOTS)
50
0.0
0
LINE
8
BLOCK-BORDER
10
-19.2021
20
-1296.1371
30
0.0
11
-19.2021
21
-629.0984
31
0.0
0
LINE
8
BLOCK-BORDER
10
-19.2021
20
-629.0984
30
0.0
11
632.9537
21
-629.0984
31
0.0
0
LINE
8
BLOCK-BORDER
10
632.9537
20
-629.0984
30
0.0
11
632.9537
21
-1296.1371
31
0.0
0
LINE
8
BLOCK-BORDER
10
632.9537
20
-1296.1371
30
0.0
11
-19.2021
21
-1296.1371
31
0.0
0
LINE
8
LOT-BOUNDARY
10
0.0000
20
-800.0000
30
0.0
11
-3.1516
21
-725.0662
31
0.0
0
LINE
8
LOT-CURVE
10
-3.1516
20
-725.0662
30
0.0
11
-3.1343
21
-722.6129
31
0.0
0
LINE
8
LOT-CURVE
10
-3.1343
20
-722.6129
30
0.0
11
-2.8766
21
-720.1731
31
0.0
0
LINE
8
LOT-CURVE
10
-2.8766
20
-720.1731
30
0.0
11
-2.3810
21
-717.7703
31
0.0
0
LINE
8
LOT-CURVE
10
-2.3810
20
-717.7703
30
0.0
11
-1.6523
21
-715.4276
31
0.0
0
LINE
8
LOT-CURVE
10
-1.6523
20
-715.4276
30
0.0
11
-0.6974
21
-713.1677
31
0.0
0
LINE
8
LOT-CURVE
10
-0.6974
20
-713.1677
30
0.0
11
0.4743
21
-711.0122
31
0.0
0
LINE
8
LOT-CURVE
10
0.4743
20
-711.0122
30
0.0
11
1.8517
21
-708.9820
31
0.0
0
LINE
8
LOT-CURVE
10
1.8517
20
-708.9820
30
0.0
11
3.4215
21
-707.0965
31
0.0
0
LINE
8
LOT-CURVE
10
3.4215
20
-707.0965
30
0.0
11
5.1685
21
-705.3740
31
0.0
0
LINE
8
LOT-CURVE
10
5.1685
20
-705.3740
30
0.0
11
7.0759
21
-703.8310
31
0.0
0
LINE
8
LOT-CURVE
10
7.0759
20
-703.8310
30
0.0
11
9.1254
21
-702.4824
31
0.0
0
LINE
8
LOT-CURVE
10
9.1254
20
-702.4824
30
0.0
11
11.2972
21
-701.3412
31
0.0
0
LINE
8
LOT-CURVE
10
11.2972
20
-701.3412
30
0.0
11
13.5703
21
-700.4183
31
0.0
0
LINE
8
LOT-CURVE
10
13.5703
20
-700.4183
30
0.0
11
15.9231
21
-699.7227
31
0.0
0
LINE
8
LOT-CURVE
10
15.9231
20
-699.7227
30
0.0
11
18.3326
21
-699.2610
31
0.0
0
LINE
8
LOT-CURVE
10
18.3326
20
-699.2610
30
0.0
11
20.7758
21
-699.0378
31
0.0
0
TEXT
8
LOT-DIM
7
STANDARD
10
4.9215
20
-705.5965
30
0.0
40
2.2
1
R=25.0' L=39.3' D=90%%d00'00"
50
0.0
0
LINE
8
LOT-BOUNDARY
10
20.7758
20
-699.0378
30
0.0
11
89.2153
21
-696.1594
31
0.0
0
LINE
8
LOT-BOUNDARY
10
89.2153
20
-696.1594
30
0.0
11
93.4174
21
-796.0710
31
0.0
0
LINE
8
LOT-BOUNDARY
10
93.4174
20
-796.0710
30
0.0
11
0.0000
21
-800.0000
31
0.0
0
TEXT
8
LOT-TEXT
7
STANDARD
10
25.0514
20
-743.2669
30
0.0
40
4.5
1
L1
50
0.0
0
TEXT
8
LOT-TEXT
7
STANDARD
10
25.0514
20
-751.2669
30
0.0
40
3.0
1
9,216sf
50
0.0
0
LINE
8
LOT-BOUNDARY
10
93.4174
20
-796.0710
30
0.0
11
89.2153
21
-696.1594
31
0.0
0
LINE
8
LOT-BOUNDARY
10
89.2153
20
-696.1594
30
0.0
11
164.1491
21
-693.0078
31
0.0
0
LINE
8
LOT-BOUNDARY
10
164.1491
20
-693.0078
30
0.0
11
168.3512
21
-792.9195
31
0.0
0
LINE
8
LOT-BOUNDARY
10
168.3512
20
-792.9195
30
0.0
11
93.4174
21
-796.0710
31
0.0
0
TEXT
8
LOT-TEXT
7
STANDARD
10
113.7832
20
-744.5394
30
0.0
40
4.5
1
L2
50
0.0
0
TEXT
8
LOT-TEXT
7
STANDARD
10
113.7832
20
-752.5394
30
0.0
40
3.0
1
7,500sf
50
0.0
0
LINE
8
LOT-BOUNDARY
10
168.3512
20
-792.9195
30
0.0
11
164.1491
21
-693.0078
31
0.0
0
LINE
8
LOT-BOUNDARY
10
164.1491
20
-693.0078
30
0.0
11
239.0828
21
-689.8562
31
0.0
0
LINE
8
LOT-BOUNDARY
10
239.0828
20
-689.8562
30
0.0
11
243.2849
21
-789.7679
31
0.0
0
LINE
8
LOT-BOUNDARY
10
243.2849
20
-789.7679
30
0.0
11
168.3512
21
-792.9195
31
0.0
0
TEXT
8
LOT-TEXT
7
STANDARD
10
188.7170
20
-741.3878
30
0.0
40
4.5
1
L3
50
0.0
0
TEXT
8
LOT-TEXT
7
STANDARD
10
188.7170
20
-749.3878
30
0.0
40
3.0
1
7,500sf
50
0.0
0
LINE
8
LOT-BOUNDARY
10
243.2849
20
-789.7679
30
0.0
11
239.0828
21
-689.8562
31
0.0
0
LINE
8
LOT-BOUNDARY
10
239.0828
20
-689.8562
30
0.0
11
314.0166
21
-686.7046
31
0.0
0
LINE
8
LOT-BOUNDARY
10
314.0166
20
-686.7046
30
0.0
11
318.2187
21
-786.6163
31
0.0
0
LINE
8
LOT-BOUNDARY
10
318.2187
20
-786.6163
30
0.0
11
243.2849
21
-789.7679
31
0.0
0
TEXT
8
LOT-TEXT
7
STANDARD
10
263.6508
20
-738.2363
30
0.0
40
4.5
1
L4
50
0.0
0
TEXT
8
LOT-TEXT
7
STANDARD
10
263.6508
20
-746.2363
30
0.0
40
3.0
1
7,500sf
50
0.0
0
LINE
8
LOT-BOUNDARY
10
318.2187
20
-786.6163
30
0.0
11
314.0166
21
-686.7046
31
0.0
0
LINE
8
LOT-BOUNDARY
10
314.0166
20
-686.7046
30
0.0
11
388.9503
21
-683.5531
31
0.0
0
LINE
8
LOT-BOUNDARY
10
388.9503
20
-683.5531
30
0.0
11
393.1524
21
-783.4647
31
0.0
0
LINE
8
LOT-BOUNDARY
10
393.1524
20
-783.4647
30
0.0
11
318.2187
21
-786.6163
31
0.0
0
TEXT
8
LOT-TEXT
7
STANDARD
10
338.5845
20
-735.0847
30
0.0
40
4.5
1
L5
50
0.0
0
TEXT
8
LOT-TEXT
7
STANDARD
10
338.5845
20
-743.0847
30
0.0
40
3.0
1
7,500sf
50
0.0
0
LINE
8
LOT-BOUNDARY
10
393.1524
20
-783.4647
30
0.0
11
388.9503
21
-683.5531
31
0.0
0
LINE
8
LOT-BOUNDARY
10
388.9503
20
-683.5531
30
0.0
11
463.8841
21
-680.4015
31
0.0
0
LINE
8
LOT-BOUNDARY
10
463.8841
20
-680.4015
30
0.0
11
468.0862
21
-780.3132
31
0.0
0
LINE
8
LOT-BOUNDARY
10
468.0862
20
-780.3132
30
0.0
11
393.1524
21
-783.4647
31
0.0
0
TEXT
8
LOT-TEXT
7
STANDARD
10
413.5183
20
-731.9331
30
0.0
40
4.5
1
L6
50
0.0
0
TEXT
8
LOT-TEXT
7
STANDARD
10
413.5183
20
-739.9331
30
0.0
40
3.0
1
7,500sf
50
0.0
0
LINE
8
LOT-BOUNDARY
10
468.0862
20
-780.3132
30
0.0
11
463.8841
21
-680.4015
31
0.0
0
LINE
8
LOT-BOUNDARY
10
463.8841
20
-680.4015
30
0.0
11
538.8178
21
-677.2499
31
0.0
0
LINE
8
LOT-BOUNDARY
10
538.8178
20
-677.2499
30
0.0
11
543.0199
21
-777.1616
31
0.0
0
LINE
8
LOT-BOUNDARY
10
543.0199
20
-777.1616
30
0.0
11
468.0862
21
-780.3132
31
0.0
0
TEXT
8
LOT-TEXT
7
STANDARD
10
488.4520
20
-728.7816
30
0.0
40
4.5
1
L7
50
0.0
0
TEXT
8
LOT-TEXT
7
STANDARD
10
488.4520
20
-736.7816
30
0.0
40
3.0
1
7,500sf
50
0.0
0
LINE
8
LOT-BOUNDARY
10
543.0199
20
-777.1616
30
0.0
11
538.8178
21
-677.2499
31
0.0
0
LINE
8
LOT-BOUNDARY
10
538.8178
20
-677.2499
30
0.0
11
613.7516
21
-674.0984
31
0.0
0
LINE
8
LOT-BOUNDARY
10
613.7516
20
-674.0984
30
0.0
11
617.9537
21
-774.0100
31
0.0
0
LINE
8
LOT-BOUNDARY
10
617.9537
20
-774.0100
30
0.0
11
543.0199
21
-777.1616
31
0.0
0
TEXT
8
LOT-TEXT
7
STANDARD
10
563.3858
20
-725.6300
30
0.0
40
4.5
1
L8
50
0.0
0
TEXT
8
LOT-TEXT
7
STANDARD
10
563.3858
20
-733.6300
30
0.0
40
3.0
1
7,500sf
50
0.0
0
LINE
8
LOT-BOUNDARY
10
0.0000
20
-800.0000
30
0.0
11
93.4174
21
-796.0710
31
0.0
0
LINE
8
LOT-BOUNDARY
10
93.4174
20
-796.0710
30
0.0
11
97.6195
21
-895.9827
31
0.0
0
LINE
8
LOT-BOUNDARY
10
97.6195
20
-895.9827
30
0.0
11
29.1800
21
-898.8611
31
0.0
0
LINE
8
LOT-CURVE
10
29.1800
20
-898.8611
30
0.0
11
26.7267
21
-898.8438
31
0.0
0
LINE
8
LOT-CURVE
10
26.7267
20
-898.8438
30
0.0
11
24.2869
21
-898.5862
31
0.0
0
LINE
8
LOT-CURVE
10
24.2869
20
-898.5862
30
0.0
11
21.8841
21
-898.0906
31
0.0
0
LINE
8
LOT-CURVE
10
21.8841
20
-898.0906
30
0.0
11
19.5414
21
-897.3618
31
0.0
0
LINE
8
LOT-CURVE
10
19.5414
20
-897.3618
30
0.0
11
17.2815
21
-896.4070
31
0.0
0
LINE
8
LOT-CURVE
10
17.2815
20
-896.4070
30
0.0
11
15.1260
21
-895.2353
31
0.0
0
LINE
8
LOT-CURVE
10
15.1260
20
-895.2353
30
0.0
11
13.0957
21
-893.8579
31
0.0
0
LINE
8
LOT-CURVE
10
13.0957
20
-893.8579
30
0.0
11
11.2103
21
-892.2881
31
0.0
0
LINE
8
LOT-CURVE
10
11.2103
20
-892.2881
30
0.0
11
9.4877
21
-890.5411
31
0.0
0
LINE
8
LOT-CURVE
10
9.4877
20
-890.5411
30
0.0
11
7.9448
21
-888.6337
31
0.0
0
LINE
8
LOT-CURVE
10
7.9448
20
-888.6337
30
0.0
11
6.5961
21
-886.5842
31
0.0
0
LINE
8
LOT-CURVE
10
6.5961
20
-886.5842
30
0.0
11
5.4549
21
-884.4124
31
0.0
0
LINE
8
LOT-CURVE
10
5.4549
20
-884.4124
30
0.0
11
4.5321
21
-882.1392
31
0.0
0
LINE
8
LOT-CURVE
10
4.5321
20
-882.1392
30
0.0
11
3.8365
21
-879.7865
31
0.0
0
LINE
8
LOT-CURVE
10
3.8365
20
-879.7865
30
0.0
11
3.3748
21
-877.3770
31
0.0
0
LINE
8
LOT-CURVE
10
3.3748
20
-877.3770
30
0.0
11
3.1516
21
-874.9338
31
0.0
0
TEXT
8
LOT-DIM
7
STANDARD
10
12.7103
20
-890.7881
30
0.0
40
2.2
1
R=25.0' L=39.3' D=90%%d00'00"
50
0.0
0
LINE
8
LOT-BOUNDARY
10
3.1516
20
-874.9338
30
0.0
11
0.0000
21
-800.0000
31
0.0
0
TEXT
8
LOT-TEXT
7
STANDARD
10
29.6737
20
-853.1697
30
0.0
40
4.5
1
L33
50
0.0
0
TEXT
8
LOT-TEXT
7
STANDARD
10
29.6737
20
-861.1697
30
0.0
40
3.0
1
9,216sf
50
0.0
0
LINE
8
LOT-BOUNDARY
10
97.6195
20
-895.9827
30
0.0
11
187.3002
21
-892.2109
31
0.0
0
LINE
8
LOT-BOUNDARY
10
187.3002
20
-892.2109
30
0.0
11
183.0981
21
-792.2992
31
0.0
0
LINE
8
LOT-BOUNDARY
10
183.0981
20
-792.2992
30
0.0
11
93.4174
21
-796.0710
31
0.0
0
LINE
8
LOT-BOUNDARY
10
93.4174
20
-796.0710
30
0.0
11
97.6195
21
-895.9827
31
0.0
0
TEXT
8
LOT-TEXT
7
STANDARD
10
125.3588
20
-844.1410
30
0.0
40
4.5
1
L32
50
0.0
0
TEXT
8
LOT-TEXT
7
STANDARD
10
125.3588
20
-852.1410
30
0.0
40
3.0
1
8,976sf
50
0.0
0
LINE
8
LOT-CURVE
10
187.3002
20
-892.2109
30
0.0
11
192.6350
21
-892.0232
31
0.0
0
LINE
8
LOT-CURVE
10
192.6350
20
-892.0232
30
0.0
11
197.9719
21
-891.9086
31
0.0
0
LINE
8
LOT-CURVE
10
197.9719
20
-891.9086
30
0.0
11
203.3098
21
-891.8672
31
0.0
0
LINE
8
LOT-CURVE
10
203.3098
20
-891.8672
30
0.0
11
208.6478
21
-891.8991
31
0.0
0
LINE
8
LOT-CURVE
10
208.6478
20
-891.8991
30
0.0
11
213.9848
21
-892.0041
31
0.0
0
LINE
8
LOT-CURVE
10
213.9848
20
-892.0041
30
0.0
11
219.3199
21
-892.1823
31
0.0
0
LINE
8
LOT-CURVE
10
219.3199
20
-892.1823
30
0.0
11
224.6521
21
-892.4336
31
0.0
0
LINE
8
LOT-CURVE
10
224.6521
20
-892.4336
30
0.0
11
229.9803
21
-892.7581
31
0.0
0
LINE
8
LOT-CURVE
10
229.9803
20
-892.7581
30
0.0
11
235.3035
21
-893.1555
31
0.0
0
LINE
8
LOT-CURVE
10
235.3035
20
-893.1555
30
0.0
11
240.6208
21
-893.6260
31
0.0
0
LINE
8
LOT-CURVE
10
240.6208
20
-893.6260
30
0.0
11
245.9312
21
-894.1693
31
0.0
0
LINE
8
LOT-CURVE
10
245.9312
20
-894.1693
30
0.0
11
251.2336
21
-894.7853
31
0.0
0
LINE
8
LOT-CURVE
10
251.2336
20
-894.7853
30
0.0
11
256.5271
21
-895.4741
31
0.0
0
LINE
8
LOT-CURVE
10
256.5271
20
-895.4741
30
0.0
11
261.8106
21
-896.2353
31
0.0
0
LINE
8
LOT-CURVE
10
261.8106
20
-896.2353
30
0.0
11
267.0832
21
-897.0689
31
0.0
0
LINE
8
LOT-CURVE
10
267.0832
20
-897.0689
30
0.0
11
272.3438
21
-897.9748
31
0.0
0
TEXT
8
LOT-DIM
7
STANDARD
10
231.4803
20
-891.2581
30
0.0
40
2.2
1
R=389.3' L=85.4' D=12%%d34'17"
50
0.0
0
LINE
8
LOT-BOUNDARY
10
272.3438
20
-897.9748
30
0.0
11
293.0010
21
-787.6769
31
0.0
0
LINE
8
LOT-BOUNDARY
10
293.0010
20
-787.6769
30
0.0
11
183.0981
21
-792.2992
31
0.0
0
LINE
8
LOT-BOUNDARY
10
183.0981
20
-792.2992
30
0.0
11
187.3002
21
-892.2109
31
0.0
0
TEXT
8
LOT-TEXT
7
STANDARD
10
218.9358
20
-842.5405
30
0.0
40
4.5
1
L31
50
0.0
0
TEXT
8
LOT-TEXT
7
STANDARD
10
218.9358
20
-850.5405
30
0.0
40
3.0
1
10,383sf
50
0.0
0
LINE
8
LOT-CURVE
10
272.3438
20
-897.9748
30
0.0
11
277.5916
21
-898.9527
31
0.0
0
LINE
8
LOT-CURVE
10
277.5916
20
-898.9527
30
0.0
11
282.8254
21
-900.0024
31
0.0
0
LINE
8
LOT-CURVE
10
282.8254
20
-900.0024
30
0.0
11
288.0444
21
-901.1239
31
0.0
0
LINE
8
LOT-CURVE
10
288.0444
20
-901.1239
30
0.0
11
293.2475
21
-902.3168
31
0.0
0
LINE
8
LOT-CURVE
10
293.2475
20
-902.3168
30
0.0
11
298.4337
21
-903.5809
31
0.0
0
LINE
8
LOT-CURVE
10
298.4337
20
-903.5809
30
0.0
11
303.6021
21
-904.9161
31
0.0
0
LINE
8
LOT-CURVE
10
303.6021
20
-904.9161
30
0.0
11
308.7517
21
-906.3219
31
0.0
0
LINE
8
LOT-CURVE
10
308.7517
20
-906.3219
30
0.0
11
313.8816
21
-907.7983
31
0.0
0
LINE
8
LOT-CURVE
10
313.8816
20
-907.7983
30
0.0
11
318.9907
21
-909.3449
31
0.0
0
LINE
8
LOT-CURVE
10
318.9907
20
-909.3449
30
0.0
11
324.0781
21
-910.9614
31
0.0
0
LINE
8
LOT-CURVE
10
324.0781
20
-910.9614
30
0.0
11
329.1429
21
-912.6475
31
0.0
0
LINE
8
LOT-CURVE
10
329.1429
20
-912.6475
30
0.0
11
334.1841
21
-914.4029
31
0.0
0
LINE
8
LOT-CURVE
10
334.1841
20
-914.4029
30
0.0
11
339.2008
21
-916.2272
31
0.0
0
LINE
8
LOT-CURVE
10
339.2008
20
-916.2272
30
0.0
11
344.1920
21
-918.1202
31
0.0
0
LINE
8
LOT-CURVE
10
344.1920
20
-918.1202
30
0.0
11
349.1567
21
-920.0814
31
0.0
0
LINE
8
LOT-CURVE
10
349.1567
20
-920.0814
30
0.0
11
354.0941
21
-922.1106
31
0.0
0
TEXT
8
LOT-DIM
7
STANDARD
10
315.3816
20
-906.2983
30
0.0
40
2.2
1
R=389.3' L=85.4' D=12%%d34'17"
50
0.0
0
LINE
8
LOT-BOUNDARY
10
354.0941
20
-922.1106
30
0.0
11
402.9038
21
-783.0546
31
0.0
0
LINE
8
LOT-BOUNDARY
10
402.9038
20
-783.0546
30
0.0
11
293.0010
21
-787.6769
31
0.0
0
LINE
8
LOT-BOUNDARY
10
293.0010
20
-787.6769
30
0.0
11
272.3438
21
-897.9748
31
0.0
0
TEXT
8
LOT-TEXT
7
STANDARD
10
315.5857
20
-847.7042
30
0.0
40
4.5
1
L30
50
0.0
0
TEXT
8
LOT-TEXT
7
STANDARD
10
315.5857
20
-855.7042
30
0.0
40
3.0
1
12,419sf
50
0.0
0
LINE
8
LOT-CURVE
10
354.0941
20
-922.1106
30
0.0
11
359.0032
21
-924.2072
31
0.0
0
LINE
8
LOT-CURVE
10
359.0032
20
-924.2072
30
0.0
11
363.8830
21
-926.3710
31
0.0
0
LINE
8
LOT-CURVE
10
363.8830
20
-926.3710
30
0.0
11
368.7328
21
-928.6015
31
0.0
0
LINE
8
LOT-CURVE
10
368.7328
20
-928.6015
30
0.0
11
373.5515
21
-930.8982
31
0.0
0
LINE
8
LOT-CURVE
10
373.5515
20
-930.8982
30
0.0
11
378.3382
21
-933.2609
31
0.0
0
LINE
8
LOT-CURVE
10
378.3382
20
-933.2609
30
0.0
11
383.0922
21
-935.6889
31
0.0
0
LINE
8
LOT-CURVE
10
383.0922
20
-935.6889
30
0.0
11
387.8123
21
-938.1819
31
0.0
0
LINE
8
LOT-CURVE
10
387.8123
20
-938.1819
30
0.0
11
392.4979
21
-940.7395
31
0.0
0
LINE
8
LOT-CURVE
10
392.4979
20
-940.7395
30
0.0
11
397.1479
21
-943.3610
31
0.0
0
LINE
8
LOT-CURVE
10
397.1479
20
-943.3610
30
0.0
11
401.7615
21
-946.0460
31
0.0
0
LINE
8
LOT-CURVE
10
401.7615
20
-946.0460
30
0.0
11
406.3379
21
-948.7941
31
0.0
0
LINE
8
LOT-CURVE
10
406.3379
20
-948.7941
30
0.0
11
410.8762
21
-951.6046
31
0.0
0
LINE
8
LOT-CURVE
10
410.8762
20
-951.6046
30
0.0
11
415.3755
21
-954.4771
31
0.0
0
LINE
8
LOT-CURVE
10
415.3755
20
-954.4771
30
0.0
11
419.8350
21
-957.4111
31
0.0
0
LINE
8
LOT-CURVE
10
419.8350
20
-957.4111
30
0.0
11
424.2538
21
-960.4059
31
0.0
0
LINE
8
LOT-CURVE
10
424.2538
20
-960.4059
30
0.0
11
428.6312
21
-963.4610
31
0.0
0
TEXT
8
LOT-DIM
7
STANDARD
10
393.9979
20
-939.2395
30
0.0
40
2.2
1
R=389.3' L=85.4' D=12%%d34'17"
50
0.0
0
LINE
8
LOT-CURVE
10
428.6312
20
-963.4610
30
0.0
11
430.7005
21
-964.7790
31
0.0
0
LINE
8
LOT-CURVE
10
430.7005
20
-964.7790
30
0.0
11
432.8890
21
-965.8877
31
0.0
0
LINE
8
LOT-CURVE
10
432.8890
20
-965.8877
30
0.0
11
435.1757
21
-966.7767
31
0.0
0
LINE
8
LOT-CURVE
10
435.1757
20
-966.7767
30
0.0
11
437.5385
21
-967.4372
31
0.0
0
LINE
8
LOT-CURVE
10
437.5385
20
-967.4372
30
0.0
11
439.9547
21
-967.8629
31
0.0
0
LINE
8
LOT-CURVE
10
439.9547
20
-967.8629
30
0.0
11
442.4009
21
-968.0498
31
0.0
0
LINE
8
LOT-CURVE
10
442.4009
20
-968.0498
30
0.0
11
444.8537
21
-967.9959
31
0.0
0
LINE
8
LOT-CURVE
10
444.8537
20
-967.9959
30
0.0
11
447.2894
21
-967.7020
31
0.0
0
LINE
8
LOT-CURVE
10
447.2894
20
-967.7020
30
0.0
11
449.6846
21
-967.1707
31
0.0
0
LINE
8
LOT-CURVE
10
449.6846
20
-967.1707
30
0.0
11
452.0162
21
-966.4072
31
0.0
0
LINE
8
LOT-CURVE
10
452.0162
20
-966.4072
30
0.0
11
454.2616
21
-965.4188
31
0.0
0
LINE
8
LOT-CURVE
10
454.2616
20
-965.4188
30
0.0
11
456.3994
21
-964.2151
31
0.0
0
LINE
8
LOT-CURVE
10
456.3994
20
-964.2151
30
0.0
11
458.4090
21
-962.8076
31
0.0
0
LINE
8
LOT-CURVE
10
458.4090
20
-962.8076
30
0.0
11
460.2709
21
-961.2100
31
0.0
0
LINE
8
LOT-CURVE
10
460.2709
20
-961.2100
30
0.0
11
461.9672
21
-959.4376
31
0.0
0
LINE
8
LOT-CURVE
10
461.9672
20
-959.4376
30
0.0
11
463.4816
21
-957.5074
31
0.0
0
TEXT
8
LOT-DIM
7
STANDARD
10
448.7894
20
-966.2020
30
0.0
40
2.2
1
R=25.0' L=39.3' D=90%%d00'00"
50
0.0
0
LINE
8
LOT-BOUNDARY
10
463.4816
20
-957.5074
30
0.0
11
498.6037
21
-919.5845
31
0.0
0
LINE
8
LOT-BOUNDARY
10
498.6037
20
-919.5845
30
0.0
11
402.9038
21
-783.0546
31
0.0
0
LINE
8
LOT-BOUNDARY
10
402.9038
20
-783.0546
30
0.0
11
354.0941
21
-922.1106
31
0.0
0
TEXT
8
LOT-TEXT
7
STANDARD
10
414.5429
20
-909.1436
30
0.0
40
4.5
1
L29
50
0.0
0
TEXT
8
LOT-TEXT
7
STANDARD
10
414.5429
20
-917.1436
30
0.0
40
3.0
1
13,579sf
50
0.0
0
LINE
8
LOT-CURVE
10
498.6037
20
-919.5845
30
0.0
11
501.8810
21
-916.7583
31
0.0
0
LINE
8
LOT-CURVE
10
501.8810
20
-916.7583
30
0.0
11
505.2301
21
-914.0175
31
0.0
0
LINE
8
LOT-CURVE
10
505.2301
20
-914.0175
30
0.0
11
508.6486
21
-911.3639
31
0.0
0
LINE
8
LOT-CURVE
10
508.6486
20
-911.3639
30
0.0
11
512.1344
21
-908.7992
31
0.0
0
LINE
8
LOT-CURVE
10
512.1344
20
-908.7992
30
0.0
11
515.6850
21
-906.3252
31
0.0
0
LINE
8
LOT-CURVE
10
515.6850
20
-906.3252
30
0.0
11
519.2983
21
-903.9435
31
0.0
0
LINE
8
LOT-CURVE
10
519.2983
20
-903.9435
30
0.0
11
522.9717
21
-901.6557
31
0.0
0
LINE
8
LOT-CURVE
10
522.9717
20
-901.6557
30
0.0
11
526.7029
21
-899.4633
31
0.0
0
LINE
8
LOT-CURVE
10
526.7029
20
-899.4633
30
0.0
11
530.4893
21
-897.3677
31
0.0
0
LINE
8
LOT-CURVE
10
530.4893
20
-897.3677
30
0.0
11
534.3284
21
-895.3704
31
0.0
0
LINE
8
LOT-CURVE
10
534.3284
20
-895.3704
30
0.0
11
538.2177
21
-893.4727
31
0.0
0
LINE
8
LOT-CURVE
10
538.2177
20
-893.4727
30
0.0
11
542.1546
21
-891.6758
31
0.0
0
LINE
8
LOT-CURVE
10
542.1546
20
-891.6758
30
0.0
11
546.1365
21
-889.9810
31
0.0
0
LINE
8
LOT-CURVE
10
546.1365
20
-889.9810
30
0.0
11
550.1608
21
-888.3893
31
0.0
0
LINE
8
LOT-CURVE
10
550.1608
20
-888.3893
30
0.0
11
554.2247
21
-886.9018
31
0.0
0
LINE
8
LOT-CURVE
10
554.2247
20
-886.9018
30
0.0
11
558.3256
21
-885.5195
31
0.0
0
TEXT
8
LOT-DIM
7
STANDARD
10
528.2029
20
-897.9633
30
0.0
40
2.2
1
R=167.9' L=69.2' D=23%%d37'20"
50
0.0
0
LINE
8
LOT-BOUNDARY
10
558.3256
20
-885.5195
30
0.0
11
512.8067
21
-778.4323
31
0.0
0
LINE
8
LOT-BOUNDARY
10
512.8067
20
-778.4323
30
0.0
11
402.9038
21
-783.0546
31
0.0
0
LINE
8
LOT-BOUNDARY
10
402.9038
20
-783.0546
30
0.0
11
498.6037
21
-919.5845
31
0.0
0
TEXT
8
LOT-TEXT
7
STANDARD
10
478.1600
20
-841.6478
30
0.0
40
4.5
1
L28
50
0.0
0
TEXT
8
LOT-TEXT
7
STANDARD
10
478.1600
20
-849.6478
30
0.0
40
3.0
1
11,860sf
50
0.0
0
TEXT
8
BLOCK-TITLE
7
STANDARD
10
0.0000
20
-1170.0000
30
0.0
40
8.0
1
BLOCK_15 (18 LOTS)
50
0.0
0
LINE
8
BLOCK-BORDER
10
-844.2157
20
-1404.8578
30
0.0
11
-844.2157
21
-1054.9627
31
0.0
0
LINE
8
BLOCK-BORDER
10
-844.2157
20
-1054.9627
30
0.0
11
19.2038
21
-1054.9627
31
0.0
0
LINE
8
BLOCK-BORDER
10
19.2038
20
-1054.9627
30
0.0
11
19.2038
21
-1404.8578
31
0.0
0
LINE
8
BLOCK-BORDER
10
19.2038
20
-1404.8578
30
0.0
11
-844.2157
21
-1404.8578
31
0.0
0
LINE
8
LOT-BOUNDARY
10
-97.1100
20
-1103.9959
30
0.0
11
-1.2147
21
-1099.9627
31
0.0
0
LINE
8
LOT-CURVE
10
-1.2147
20
-1099.9627
30
0.0
11
-0.9892
21
-1106.2121
31
0.0
0
LINE
8
LOT-CURVE
10
-0.9892
20
-1106.2121
30
0.0
11
-0.7836
21
-1112.4622
31
0.0
0
LINE
8
LOT-CURVE
10
-0.7836
20
-1112.4622
30
0.0
11
-0.5980
21
-1118.7129
31
0.0
0
LINE
8
LOT-CURVE
10
-0.5980
20
-1118.7129
30
0.0
11
-0.4323
21
-1124.9642
31
0.0
0
LINE
8
LOT-CURVE
10
-0.4323
20
-1124.9642
30
0.0
11
-0.2865
21
-1131.2159
31
0.0
0
LINE
8
LOT-CURVE
10
-0.2865
20
-1131.2159
30
0.0
11
-0.1607
21
-1137.4681
31
0.0
0
LINE
8
LOT-CURVE
10
-0.1607
20
-1137.4681
30
0.0
11
-0.0548
21
-1143.7207
31
0.0
0
LINE
8
LOT-CURVE
10
-0.0548
20
-1143.7207
30
0.0
11
0.0311
21
-1149.9736
31
0.0
0
LINE
8
LOT-CURVE
10
0.0311
20
-1149.9736
30
0.0
11
0.0970
21
-1156.2267
31
0.0
0
LINE
8
LOT-CURVE
10
0.0970
20
-1156.2267
30
0.0
11
0.1430
21
-1162.4800
31
0.0
0
LINE
8
LOT-CURVE
10
0.1430
20
-1162.4800
30
0.0
11
0.1691
21
-1168.7334
31
0.0
0
LINE
8
LOT-CURVE
10
0.1691
20
-1168.7334
30
0.0
11
0.1752
21
-1174.9869
31
0.0
0
LINE
8
LOT-CURVE
10
0.1752
20
-1174.9869
30
0.0
11
0.1613
21
-1181.2403
31
0.0
0
LINE
8
LOT-CURVE
10
0.1613
20
-1181.2403
30
0.0
11
0.1275
21
-1187.4937
31
0.0
0
LINE
8
LOT-CURVE
10
0.1275
20
-1187.4937
30
0.0
11
0.0737
21
-1193.7470
31
0.0
0
LINE
8
LOT-CURVE
10
0.0737
20
-1193.7470
30
0.0
11
0.0000
21
-1200.0000
31
0.0
0
TEXT
8
LOT-DIM
7
STANDARD
10
1.5311
20
-1148.4736
30
0.0
40
2.2
1
R=1959.9' L=100.1' D=2%%d55'30"
50
0.0
0
LINE
8
LOT-BOUNDARY
10
0.0000
20
-1200.0000
30
0.0
11
-92.9079
21
-1203.9075
31
0.0
0
LINE
8
LOT-BOUNDARY
10
-92.9079
20
-1203.9075
30
0.0
11
-97.1100
21
-1103.9959
31
0.0
0
TEXT
8
LOT-TEXT
7
STANDARD
10
-62.8081
20
-1151.9665
30
0.0
40
4.5
1
L9
50
0.0
0
TEXT
8
LOT-TEXT
7
STANDARD
10
-62.8081
20
-1159.9665
30
0.0
40
3.0
1
9,491sf
50
0.0
0
LINE
8
LOT-BOUNDARY
10
-172.0437
20
-1107.1474
30
0.0
11
-97.1100
21
-1103.9959
31
0.0
0
LINE
8
LOT-BOUNDARY
10
-97.1100
20
-1103.9959
30
0.0
11
-92.9079
21
-1203.9075
31
0.0
0
LINE
8
LOT-BOUNDARY
10
-92.9079
20
-1203.9075
30
0.0
11
-167.8416
21
-1207.0591
31
0.0
0
LINE
8
LOT-BOUNDARY
10
-167.8416
20
-1207.0591
30
0.0
11
-172.0437
21
-1107.1474
31
0.0
0
TEXT
8
LOT-TEXT
7
STANDARD
10
-147.4758
20
-1155.5275
30
0.0
40
4.5
1
L8
50
0.0
0
TEXT
8
LOT-TEXT
7
STANDARD
10
-147.4758
20
-1163.5275
30
0.0
40
3.0
1
7,500sf
50
0.0
0
LINE
8
LOT-BOUNDARY
10
-246.9775
20
-1110.2990
30
0.0
11
-172.0437
21
-1107.1474
31
0.0
0
LINE
8
LOT-BOUNDARY
10
-172.0437
20
-1107.1474
30
0.0
11
-167.8416
21
-1207.0591
31
0.0
0
LINE
8
LOT-BOUNDARY
10
-167.8416
20
-1207.0591
30
0.0
11
-242.7754
21
-1210.2107
31
0.0
0
LINE
8
LOT-BOUNDARY
10
-242.7754
20
-1210.2107
30
0.0
11
-246.9775
21
-1110.2990
31
0.0
0
TEXT
8
LOT-TEXT
7
STANDARD
10
-222.4095
20
-1158.6791
30
0.0
40
4.5
1
L7
50
0.0
0
TEXT
8
LOT-TEXT
7
STANDARD
10
-222.4095
20
-1166.6791
30
0.0
40
3.0
1
7,500sf
50
0.0
0
LINE
8
LOT-BOUNDARY
10
-321.9112
20
-1113.4506
30
0.0
11
-246.9775
21
-1110.2990
31
0.0
0
LINE
8
LOT-BOUNDARY
10
-246.9775
20
-1110.2990
30
0.0
11
-242.7754
21
-1210.2107
31
0.0
0
LINE
8
LOT-BOUNDARY
10
-242.7754
20
-1210.2107
30
0.0
11
-317.7091
21
-1213.3622
31
0.0
0
LINE
8
LOT-BOUNDARY
10
-317.7091
20
-1213.3622
30
0.0
11
-321.9112
21
-1113.4506
31
0.0
0
TEXT
8
LOT-TEXT
7
STANDARD
10
-297.3433
20
-1161.8306
30
0.0
40
4.5
1
L6
50
0.0
0
TEXT
8
LOT-TEXT
7
STANDARD
10
-297.3433
20
-1169.8306
30
0.0
40
3.0
1
7,500sf
50
0.0
0
LINE
8
LOT-BOUNDARY
10
-410.3131
20
-1117.1686
30
0.0
11
-321.9112
21
-1113.4506
31
0.0
0
LINE
8
LOT-BOUNDARY
10
-321.9112
20
-1113.4506
30
0.0
11
-317.7091
21
-1213.3622
31
0.0
0
LINE
8
LOT-BOUNDARY
10
-317.7091
20
-1213.3622
30
0.0
11
-406.1110
21
-1217.0803
31
0.0
0
LINE
8
LOT-BOUNDARY
10
-406.1110
20
-1217.0803
30
0.0
11
-410.3131
21
-1117.1686
31
0.0
0
TEXT
8
LOT-TEXT
7
STANDARD
10
-379.0111
20
-1165.2654
30
0.0
40
4.5
1
L5
50
0.0
0
TEXT
8
LOT-TEXT
7
STANDARD
10
-379.0111
20
-1173.2654
30
0.0
40
3.0
1
8,848sf
50
0.0
0
LINE
8
LOT-BOUNDARY
10
-498.7149
20
-1120.8866
30
0.0
11
-410.3131
21
-1117.1686
31
0.0
0
LINE
8
LOT-BOUNDARY
10
-410.3131
20
-1117.1686
30
0.0
11
-406.1110
21
-1217.0803
31
0.0
0
LINE
8
LOT-BOUNDARY
10
-406.1110
20
-1217.0803
30
0.0
11
-494.5128
21
-1220.7983
31
0.0
0
LINE
8
LOT-BOUNDARY
10
-494.5128
20
-1220.7983
30
0.0
11
-498.7149
21
-1120.8866
31
0.0
0
TEXT
8
LOT-TEXT
7
STANDARD
10
-467.4129
20
-1168.9834
30
0.0
40
4.5
1
L4
50
0.0
0
TEXT
8
LOT-TEXT
7
STANDARD
10
-467.4129
20
-1176.9834
30
0.0
40
3.0
1
8,848sf
50
0.0
0
LINE
8
LOT-BOUNDARY
10
-587.1368
20
-1124.6055
30
0.0
11
-498.7149
21
-1120.8866
31
0.0
0
LINE
8
LOT-BOUNDARY
10
-498.7149
20
-1120.8866
30
0.0
11
-494.5128
21
-1220.7983
31
0.0
0
LINE
8
LOT-BOUNDARY
10
-494.5128
20
-1220.7983
30
0.0
11
-582.9347
21
-1224.5171
31
0.0
0
LINE
8
LOT-BOUNDARY
10
-582.9347
20
-1224.5171
30
0.0
11
-587.1368
21
-1124.6055
31
0.0
0
TEXT
8
LOT-TEXT
7
STANDARD
10
-555.8248
20
-1172.7019
30
0.0
40
4.5
1
L3
50
0.0
0
TEXT
8
LOT-TEXT
7
STANDARD
10
-555.8248
20
-1180.7019
30
0.0
40
3.0
1
8,850sf
50
0.0
0
LINE
8
LOT-BOUNDARY
10
-687.0484
20
-1128.8076
30
0.0
11
-587.1368
21
-1124.6055
31
0.0
0
LINE
8
LOT-BOUNDARY
10
-587.1368
20
-1124.6055
30
0.0
11
-582.9347
21
-1224.5171
31
0.0
0
LINE
8
LOT-BOUNDARY
10
-582.9347
20
-1224.5171
30
0.0
11
-683.6401
21
-1209.7665
31
0.0
0
LINE
8
LOT-BOUNDARY
10
-683.6401
20
-1209.7665
30
0.0
11
-687.0484
21
-1128.8076
31
0.0
0
TEXT
8
LOT-TEXT
7
STANDARD
10
-650.1900
20
-1171.9242
30
0.0
40
4.5
1
L2
50
0.0
0
TEXT
8
LOT-TEXT
7
STANDARD
10
-650.1900
20
-1179.9242
30
0.0
40
3.0
1
9,051sf
50
0.0
0
LINE
8
LOT-CURVE
10
-829.2157
20
-1173.0869
30
0.0
11
-822.6293
21
-1165.7921
31
0.0
0
LINE
8
LOT-CURVE
10
-822.6293
20
-1165.7921
30
0.0
11
-815.5402
21
-1158.9848
31
0.0
0
LINE
8
LOT-CURVE
10
-815.5402
20
-1158.9848
30
0.0
11
-807.9845
21
-1152.6995
31
0.0
0
LINE
8
LOT-CURVE
10
-807.9845
20
-1152.6995
30
0.0
11
-800.0004
21
-1146.9681
31
0.0
0
LINE
8
LOT-CURVE
10
-800.0004
20
-1146.9681
30
0.0
11
-791.6285
21
-1141.8197
31
0.0
0
LINE
8
LOT-CURVE
10
-791.6285
20
-1141.8197
30
0.0
11
-782.9113
21
-1137.2805
31
0.0
0
LINE
8
LOT-CURVE
10
-782.9113
20
-1137.2805
30
0.0
11
-773.8930
21
-1133.3734
31
0.0
0
LINE
8
LOT-CURVE
10
-773.8930
20
-1133.3734
30
0.0
11
-764.6194
21
-1130.1183
31
0.0
0
LINE
8
LOT-CURVE
10
-764.6194
20
-1130.1183
30
0.0
11
-755.1376
21
-1127.5318
31
0.0
0
LINE
8
LOT-CURVE
10
-755.1376
20
-1127.5318
30
0.0
11
-745.4957
21
-1125.6270
31
0.0
0
LINE
8
LOT-CURVE
10
-745.4957
20
-1125.6270
30
0.0
11
-735.7427
21
-1124.4135
31
0.0
0
LINE
8
LOT-CURVE
10
-735.7427
20
-1124.4135
30
0.0
11
-725.9280
21
-1123.8975
31
0.0
0
LINE
8
LOT-CURVE
10
-725.9280
20
-1123.8975
30
0.0
11
-716.1014
21
-1124.0816
31
0.0
0
LINE
8
LOT-CURVE
10
-716.1014
20
-1124.0816
30
0.0
11
-706.3130
21
-1124.9649
31
0.0
0
LINE
8
LOT-CURVE
10
-706.3130
20
-1124.9649
30
0.0
11
-696.6122
21
-1126.5429
31
0.0
0
LINE
8
LOT-CURVE
10
-696.6122
20
-1126.5429
30
0.0
11
-687.0484
21
-1128.8076
31
0.0
0
TEXT
8
LOT-DIM
7
STANDARD
10
-763.1194
20
-1128.6183
30
0.0
40
2.2
1
R=137.9' L=157.3' D=65%%d19'35"
50
0.0
0
LINE
8
LOT-BOUNDARY
10
-687.0484
20
-1128.8076
30
0.0
11
-683.6401
21
-1209.7665
31
0.0
0
LINE
8
LOT-BOUNDARY
10
-683.6401
20
-1209.7665
30
0.0
11
-729.4127
21
-1274.4001
31
0.0
0
LINE
8
LOT-BOUNDARY
10
-729.4127
20
-1274.4001
30
0.0
11
-823.2621
21
-1207.9374
31
0.0
0
LINE
8
LOT-BOUNDARY
10
-823.2621
20
-1207.9374
30
0.0
11
-829.2157
21
-1173.0869
31
0.0
0
TEXT
8
LOT-TEXT
7
STANDARD
10
-765.5158
20
-1198.7997
30
0.0
40
4.5
1
L1
50
0.0
0
TEXT
8
LOT-TEXT
7
STANDARD
10
-765.5158
20
-1206.7997
30
0.0
40
3.0
1
15,014sf
50
0.0
0
LINE
8
LOT-BOUNDARY
10
-92.9079
20
-1203.9075
30
0.0
11
0.0000
21
-1200.0000
31
0.0
0
LINE
8
LOT-CURVE
10
0.0000
20
-1200.0000
30
0.0
11
0.4122
21
-1206.2396
31
0.0
0
LINE
8
LOT-CURVE
10
0.4122
20
-1206.2396
30
0.0
11
0.8044
21
-1212.4804
31
0.0
0
LINE
8
LOT-CURVE
10
0.8044
20
-1212.4804
30
0.0
11
1.1768
21
-1218.7225
31
0.0
0
LINE
8
LOT-CURVE
10
1.1768
20
-1218.7225
30
0.0
11
1.5292
21
-1224.9658
31
0.0
0
LINE
8
LOT-CURVE
10
1.5292
20
-1224.9658
30
0.0
11
1.8618
21
-1231.2101
31
0.0
0
LINE
8
LOT-CURVE
10
1.8618
20
-1231.2101
30
0.0
11
2.1743
21
-1237.4554
31
0.0
0
LINE
8
LOT-CURVE
10
2.1743
20
-1237.4554
30
0.0
11
2.4670
21
-1243.7018
31
0.0
0
LINE
8
LOT-CURVE
10
2.4670
20
-1243.7018
30
0.0
11
2.7397
21
-1249.9490
31
0.0
0
LINE
8
LOT-CURVE
10
2.7397
20
-1249.9490
30
0.0
11
2.9925
21
-1256.1971
31
0.0
0
LINE
8
LOT-CURVE
10
2.9925
20
-1256.1971
30
0.0
11
3.2254
21
-1262.4459
31
0.0
0
LINE
8
LOT-CURVE
10
3.2254
20
-1262.4459
30
0.0
11
3.4383
21
-1268.6954
31
0.0
0
LINE
8
LOT-CURVE
10
3.4383
20
-1268.6954
30
0.0
11
3.6313
21
-1274.9456
31
0.0
0
LINE
8
LOT-CURVE
10
3.6313
20
-1274.9456
30
0.0
11
3.8043
21
-1281.1964
31
0.0
0
LINE
8
LOT-CURVE
10
3.8043
20
-1281.1964
30
0.0
11
3.9574
21
-1287.4477
31
0.0
0
LINE
8
LOT-CURVE
10
3.9574
20
-1287.4477
30
0.0
11
4.0906
21
-1293.6995
31
0.0
0
LINE
8
LOT-CURVE
10
4.0906
20
-1293.6995
30
0.0
11
4.2038
21
-1299.9516
31
0.0
0
TEXT
8
LOT-DIM
7
STANDARD
10
4.2397
20
-1248.4490
30
0.0
40
2.2
1
R=1959.9' L=100.1' D=2%%d55'30"
50
0.0
0
LINE
8
LOT-BOUNDARY
10
4.2038
20
-1299.9516
30
0.0
11
-85.7167
21
-1303.7335
31
0.0
0
LINE
8
LOT-BOUNDARY
10
-85.7167
20
-1303.7335
30
0.0
11
-92.9079
21
-1203.9075
31
0.0
0
TEXT
8
LOT-TEXT
7
STANDARD
10
-58.6052
20
-1251.8982
30
0.0
40
4.5
1
L10
50
0.0
0
TEXT
8
LOT-TEXT
7
STANDARD
10
-58.6052
20
-1259.8982
30
0.0
40
3.0
1
9,196sf
50
0.0
0
LINE
8
LOT-BOUNDARY
10
-167.8416
20
-1207.0591
30
0.0
11
-92.9079
21
-1203.9075
31
0.0
0
LINE
8
LOT-BOUNDARY
10
-92.9079
20
-1203.9075
30
0.0
11
-85.7167
21
-1303.7335
31
0.0
0
LINE
8
LOT-BOUNDARY
10
-85.7167
20
-1303.7335
30
0.0
11
-160.6505
21
-1306.8851
31
0.0
0
LINE
8
LOT-BOUNDARY
10
-160.6505
20
-1306.8851
30
0.0
11
-167.8416
21
-1207.0591
31
0.0
0
TEXT
8
LOT-TEXT
7
STANDARD
10
-141.7792
20
-1255.3963
30
0.0
40
4.5
1
L11
50
0.0
0
TEXT
8
LOT-TEXT
7
STANDARD
10
-141.7792
20
-1263.3963
30
0.0
40
3.0
1
7,503sf
50
0.0
0
LINE
8
LOT-BOUNDARY
10
-242.7754
20
-1210.2107
30
0.0
11
-167.8416
21
-1207.0591
31
0.0
0
LINE
8
LOT-BOUNDARY
10
-167.8416
20
-1207.0591
30
0.0
11
-160.6505
21
-1306.8851
31
0.0
0
LINE
8
LOT-BOUNDARY
10
-160.6505
20
-1306.8851
30
0.0
11
-235.5842
21
-1310.0367
31
0.0
0
LINE
8
LOT-BOUNDARY
10
-235.5842
20
-1310.0367
30
0.0
11
-242.7754
21
-1210.2107
31
0.0
0
TEXT
8
LOT-TEXT
7
STANDARD
10
-216.7129
20
-1258.5479
30
0.0
40
4.5
1
L12
50
0.0
0
TEXT
8
LOT-TEXT
7
STANDARD
10
-216.7129
20
-1266.5479
30
0.0
40
3.0
1
7,503sf
50
0.0
0
LINE
8
LOT-BOUNDARY
10
-317.7091
20
-1213.3622
30
0.0
11
-242.7754
21
-1210.2107
31
0.0
0
LINE
8
LOT-BOUNDARY
10
-242.7754
20
-1210.2107
30
0.0
11
-235.5842
21
-1310.0367
31
0.0
0
LINE
8
LOT-BOUNDARY
10
-235.5842
20
-1310.0367
30
0.0
11
-310.5180
21
-1313.1882
31
0.0
0
LINE
8
LOT-BOUNDARY
10
-310.5180
20
-1313.1882
30
0.0
11
-317.7091
21
-1213.3622
31
0.0
0
TEXT
8
LOT-TEXT
7
STANDARD
10
-291.6467
20
-1261.6995
30
0.0
40
4.5
1
L13
50
0.0
0
TEXT
8
LOT-TEXT
7
STANDARD
10
-291.6467
20
-1269.6995
30
0.0
40
3.0
1
7,503sf
50
0.0
0
LINE
8
LOT-BOUNDARY
10
-392.6429
20
-1216.5138
30
0.0
11
-317.7091
21
-1213.3622
31
0.0
0
LINE
8
LOT-BOUNDARY
10
-317.7091
20
-1213.3622
30
0.0
11
-310.5180
21
-1313.1882
31
0.0
0
LINE
8
LOT-BOUNDARY
10
-310.5180
20
-1313.1882
30
0.0
11
-385.4517
21
-1316.3398
31
0.0
0
LINE
8
LOT-BOUNDARY
10
-385.4517
20
-1316.3398
30
0.0
11
-392.6429
21
-1216.5138
31
0.0
0
TEXT
8
LOT-TEXT
7
STANDARD
10
-366.5804
20
-1264.8510
30
0.0
40
4.5
1
L14
50
0.0
0
TEXT
8
LOT-TEXT
7
STANDARD
10
-366.5804
20
-1272.8510
30
0.0
40
3.0
1
7,503sf
50
0.0
0
LINE
8
LOT-BOUNDARY
10
-476.6687
20
-1220.9048
30
0.0
11
-392.6429
21
-1216.5138
31
0.0
0
LINE
8
LOT-BOUNDARY
10
-392.6429
20
-1216.5138
30
0.0
11
-385.4517
21
-1316.3398
31
0.0
0
LINE
8
LOT-CURVE
10
-385.4517
20
-1316.3398
30
0.0
11
-390.1874
21
-1316.6037
31
0.0
0
LINE
8
LOT-CURVE
10
-390.1874
20
-1316.6037
30
0.0
11
-394.9141
21
-1316.9967
31
0.0
0
LINE
8
LOT-CURVE
10
-394.9141
20
-1316.9967
30
0.0
11
-399.6284
21
-1317.5183
31
0.0
0
LINE
8
LOT-CURVE
10
-399.6284
20
-1317.5183
30
0.0
11
-404.3266
21
-1318.1684
31
0.0
0
LINE
8
LOT-CURVE
10
-404.3266
20
-1318.1684
30
0.0
11
-409.0054
21
-1318.9463
31
0.0
0
LINE
8
LOT-CURVE
10
-409.0054
20
-1318.9463
30
0.0
11
-413.6612
21
-1319.8514
31
0.0
0
LINE
8
LOT-CURVE
10
-413.6612
20
-1319.8514
30
0.0
11
-418.2907
21
-1320.8832
31
0.0
0
LINE
8
LOT-CURVE
10
-418.2907
20
-1320.8832
30
0.0
11
-422.8902
21
-1322.0409
31
0.0
0
LINE
8
LOT-CURVE
10
-422.8902
20
-1322.0409
30
0.0
11
-427.4565
21
-1323.3235
31
0.0
0
LINE
8
LOT-CURVE
10
-427.4565
20
-1323.3235
30
0.0
11
-431.9862
21
-1324.7302
31
0.0
0
LINE
8
LOT-CURVE
10
-431.9862
20
-1324.7302
30
0.0
11
-436.4757
21
-1326.2598
31
0.0
0
LINE
8
LOT-CURVE
10
-436.4757
20
-1326.2598
30
0.0
11
-440.9219
21
-1327.9113
31
0.0
0
LINE
8
LOT-CURVE
10
-440.9219
20
-1327.9113
30
0.0
11
-445.3215
21
-1329.6835
31
0.0
0
LINE
8
LOT-CURVE
10
-445.3215
20
-1329.6835
30
0.0
11
-449.6710
21
-1331.5749
31
0.0
0
LINE
8
LOT-CURVE
10
-449.6710
20
-1331.5749
30
0.0
11
-453.9674
21
-1333.5842
31
0.0
0
LINE
8
LOT-CURVE
10
-453.9674
20
-1333.5842
30
0.0
11
-458.2074
21
-1335.7099
31
0.0
0
TEXT
8
LOT-DIM
7
STANDARD
10
-421.3902
20
-1320.5409
30
0.0
40
2.2
1
R=173.9' L=75.9' D=24%%d59'59"
50
0.0
0
LINE
8
LOT-BOUNDARY
10
-458.2074
20
-1335.7099
30
0.0
11
-476.6687
21
-1220.9048
31
0.0
0
TEXT
8
LOT-TEXT
7
STANDARD
10
-443.2427
20
-1272.3671
30
0.0
40
4.5
1
L15
50
0.0
0
TEXT
8
LOT-TEXT
7
STANDARD
10
-443.2427
20
-1280.3671
30
0.0
40
3.0
1
8,357sf
50
0.0
0
LINE
8
LOT-BOUNDARY
10
-539.8148
20
-1223.0053
30
0.0
11
-476.6687
21
-1220.9048
31
0.0
0
LINE
8
LOT-BOUNDARY
10
-476.6687
20
-1220.9048
30
0.0
11
-458.2074
21
-1335.7099
31
0.0
0
LINE
8
LOT-CURVE
10
-458.2074
20
-1335.7099
30
0.0
11
-462.7924
21
-1338.1681
31
0.0
0
LINE
8
LOT-CURVE
10
-462.7924
20
-1338.1681
30
0.0
11
-467.3019
21
-1340.7624
31
0.0
0
LINE
8
LOT-CURVE
10
-467.3019
20
-1340.7624
30
0.0
11
-471.7317
21
-1343.4904
31
0.0
0
LINE
8
LOT-CURVE
10
-471.7317
20
-1343.4904
30
0.0
11
-476.0780
21
-1346.3496
31
0.0
0
LINE
8
LOT-CURVE
10
-476.0780
20
-1346.3496
30
0.0
11
-480.3369
21
-1349.3375
31
0.0
0
LINE
8
LOT-CURVE
10
-480.3369
20
-1349.3375
30
0.0
11
-484.5044
21
-1352.4515
31
0.0
0
LINE
8
LOT-CURVE
10
-484.5044
20
-1352.4515
30
0.0
11
-488.5770
21
-1355.6887
31
0.0
0
LINE
8
LOT-CURVE
10
-488.5770
20
-1355.6887
30
0.0
11
-492.5509
21
-1359.0463
31
0.0
0
LINE
8
LOT-CURVE
10
-492.5509
20
-1359.0463
30
0.0
11
-496.4227
21
-1362.5212
31
0.0
0
LINE
8
LOT-CURVE
10
-496.4227
20
-1362.5212
30
0.0
11
-500.1887
21
-1366.1104
31
0.0
0
LINE
8
LOT-CURVE
10
-500.1887
20
-1366.1104
30
0.0
11
-503.8458
21
-1369.8106
31
0.0
0
LINE
8
LOT-CURVE
10
-503.8458
20
-1369.8106
30
0.0
11
-507.3905
21
-1373.6185
31
0.0
0
LINE
8
LOT-CURVE
10
-507.3905
20
-1373.6185
30
0.0
11
-510.8198
21
-1377.5307
31
0.0
0
LINE
8
LOT-CURVE
10
-510.8198
20
-1377.5307
30
0.0
11
-514.1305
21
-1381.5437
31
0.0
0
LINE
8
LOT-CURVE
10
-514.1305
20
-1381.5437
30
0.0
11
-517.3198
21
-1385.6540
31
0.0
0
LINE
8
LOT-CURVE
10
-517.3198
20
-1385.6540
30
0.0
11
-520.3846
21
-1389.8578
31
0.0
0
TEXT
8
LOT-DIM
7
STANDARD
10
-491.0509
20
-1357.5463
30
0.0
40
2.2
1
R=173.9' L=83.2' D=27%%d25'17"
50
0.0
0
LINE
8
LOT-BOUNDARY
10
-520.3846
20
-1389.8578
30
0.0
11
-539.8148
21
-1223.0053
31
0.0
0
TEXT
8
LOT-TEXT
7
STANDARD
10
-513.7689
20
-1292.3694
30
0.0
40
4.5
1
L16
50
0.0
0
TEXT
8
LOT-TEXT
7
STANDARD
10
-513.7689
20
-1300.3694
30
0.0
40
3.0
1
9,084sf
50
0.0
0
LINE
8
LOT-BOUNDARY
10
-579.8476
20
-1217.1415
30
0.0
11
-539.8148
21
-1223.0053
31
0.0
0
LINE
8
LOT-BOUNDARY
10
-539.8148
20
-1223.0053
30
0.0
11
-520.3846
21
-1389.8578
31
0.0
0
LINE
8
LOT-BOUNDARY
10
-520.3846
20
-1389.8578
30
0.0
11
-622.3948
21
-1317.6157
31
0.0
0
LINE
8
LOT-BOUNDARY
10
-622.3948
20
-1317.6157
30
0.0
11
-579.8476
21
-1217.1415
31
0.0
0
TEXT
8
LOT-TEXT
7
STANDARD
10
-580.6105
20
-1286.9051
30
0.0
40
4.5
1
L17
50
0.0
0
TEXT
8
LOT-TEXT
7
STANDARD
10
-580.6105
20
-1294.9051
30
0.0
40
3.0
1
9,944sf
50
0.0
0
LINE
8
LOT-BOUNDARY
10
-666.3912
20
-1189.4090
30
0.0
11
-579.8476
21
-1217.1415
31
0.0
0
LINE
8
LOT-BOUNDARY
10
-579.8476
20
-1217.1415
30
0.0
11
-622.3948
21
-1317.6157
31
0.0
0
LINE
8
LOT-BOUNDARY
10
-622.3948
20
-1317.6157
30
0.0
11
-712.1638
21
-1254.0426
31
0.0
0
LINE
8
LOT-BOUNDARY
10
-712.1638
20
-1254.0426
30
0.0
11
-666.3912
21
-1189.4090
31
0.0
0
TEXT
8
LOT-TEXT
7
STANDARD
10
-660.1994
20
-1244.5522
30
0.0
40
4.5
1
L18
50
0.0
0
TEXT
8
LOT-TEXT
7
STANDARD
10
-660.1994
20
-1252.5522
30
0.0
40
3.0
1
9,294sf
50
0.0
0
TEXT
8
BLOCK-TITLE
7
STANDARD
10
0.0000
20
-1570.0000
30
0.0
40
8.0
1
BLOCK_14 (24 LOTS)
50
0.0
0
LINE
8
BLOCK-BORDER
10
-117.1616
20
-1814.8233
30
0.0
11
-117.1616
21
-1489.1064
31
0.0
0
LINE
8
BLOCK-BORDER
10
-117.1616
20
-1489.1064
30
0.0
11
945.7630
21
-1489.1064
31
0.0
0
LINE
8
BLOCK-BORDER
10
945.7630
20
-1489.1064
30
0.0
11
945.7630
21
-1814.8233
31
0.0
0
LINE
8
BLOCK-BORDER
10
945.7630
20
-1814.8233
30
0.0
11
-117.1616
21
-1814.8233
31
0.0
0
LINE
8
LOT-BOUNDARY
10
0.0000
20
-1600.0000
30
0.0
11
102.2896
21
-1595.6979
31
0.0
0
LINE
8
LOT-BOUNDARY
10
102.2896
20
-1595.6979
30
0.0
11
106.4917
21
-1695.6096
31
0.0
0
LINE
8
LOT-BOUNDARY
10
106.4917
20
-1695.6096
30
0.0
11
4.2021
21
-1699.9117
31
0.0
0
LINE
8
LOT-BOUNDARY
10
4.2021
20
-1699.9117
30
0.0
11
0.0000
21
-1600.0000
31
0.0
0
TEXT
8
LOT-TEXT
7
STANDARD
10
38.2458
20
-1647.8048
30
0.0
40
4.5
1
L1
50
0.0
0
TEXT
8
LOT-TEXT
7
STANDARD
10
38.2458
20
-1655.8048
30
0.0
40
3.0
1
10,238sf
50
0.0
0
LINE
8
LOT-BOUNDARY
10
102.2896
20
-1595.6979
30
0.0
11
177.2233
21
-1592.5463
31
0.0
0
LINE
8
LOT-BOUNDARY
10
177.2233
20
-1592.5463
30
0.0
11
181.4254
21
-1692.4580
31
0.0
0
LINE
8
LOT-BOUNDARY
10
181.4254
20
-1692.4580
30
0.0
11
106.4917
21
-1695.6096
31
0.0
0
LINE
8
LOT-BOUNDARY
10
106.4917
20
-1695.6096
30
0.0
11
102.2896
21
-1595.6979
31
0.0
0
TEXT
8
LOT-TEXT
7
STANDARD
10
126.8575
20
-1644.0779
30
0.0
40
4.5
1
L2
50
0.0
0
TEXT
8
LOT-TEXT
7
STANDARD
10
126.8575
20
-1652.0779
30
0.0
40
3.0
1
7,500sf
50
0.0
0
LINE
8
LOT-BOUNDARY
10
177.2233
20
-1592.5463
30
0.0
11
252.1571
21
-1589.3947
31
0.0
0
LINE
8
LOT-BOUNDARY
10
252.1571
20
-1589.3947
30
0.0
11
256.3592
21
-1689.3064
31
0.0
0
LINE
8
LOT-BOUNDARY
10
256.3592
20
-1689.3064
30
0.0
11
181.4254
21
-1692.4580
31
0.0
0
LINE
8
LOT-BOUNDARY
10
181.4254
20
-1692.4580
30
0.0
11
177.2233
21
-1592.5463
31
0.0
0
TEXT
8
LOT-TEXT
7
STANDARD
10
201.7913
20
-1640.9264
30
0.0
40
4.5
1
L3
50
0.0
0
TEXT
8
LOT-TEXT
7
STANDARD
10
201.7913
20
-1648.9264
30
0.0
40
3.0
1
7,500sf
50
0.0
0
LINE
8
LOT-BOUNDARY
10
252.1571
20
-1589.3947
30
0.0
11
327.0908
21
-1586.2432
31
0.0
0
LINE
8
LOT-BOUNDARY
10
327.0908
20
-1586.2432
30
0.0
11
331.2929
21
-1686.1548
31
0.0
0
LINE
8
LOT-BOUNDARY
10
331.2929
20
-1686.1548
30
0.0
11
256.3592
21
-1689.3064
31
0.0
0
LINE
8
LOT-BOUNDARY
10
256.3592
20
-1689.3064
30
0.0
11
252.1571
21
-1589.3947
31
0.0
0
TEXT
8
LOT-TEXT
7
STANDARD
10
276.7250
20
-1637.7748
30
0.0
40
4.5
1
L4
50
0.0
0
TEXT
8
LOT-TEXT
7
STANDARD
10
276.7250
20
-1645.7748
30
0.0
40
3.0
1
7,500sf
50
0.0
0
LINE
8
LOT-BOUNDARY
10
327.0908
20
-1586.2432
30
0.0
11
402.0246
21
-1583.0916
31
0.0
0
LINE
8
LOT-BOUNDARY
10
402.0246
20
-1583.0916
30
0.0
11
406.2267
21
-1683.0033
31
0.0
0
LINE
8
LOT-BOUNDARY
10
406.2267
20
-1683.0033
30
0.0
11
331.2929
21
-1686.1548
31
0.0
0
LINE
8
LOT-BOUNDARY
10
331.2929
20
-1686.1548
30
0.0
11
327.0908
21
-1586.2432
31
0.0
0
TEXT
8
LOT-TEXT
7
STANDARD
10
351.6588
20
-1634.6232
30
0.0
40
4.5
1
L5
50
0.0
0
TEXT
8
LOT-TEXT
7
STANDARD
10
351.6588
20
-1642.6232
30
0.0
40
3.0
1
7,500sf
50
0.0
0
LINE
8
LOT-BOUNDARY
10
402.0246
20
-1583.0916
30
0.0
11
476.9583
21
-1579.9400
31
0.0
0
LINE
8
LOT-BOUNDARY
10
476.9583
20
-1579.9400
30
0.0
11
481.1604
21
-1679.8517
31
0.0
0
LINE
8
LOT-BOUNDARY
10
481.1604
20
-1679.8517
30
0.0
11
406.2267
21
-1683.0033
31
0.0
0
LINE
8
LOT-BOUNDARY
10
406.2267
20
-1683.0033
30
0.0
11
402.0246
21
-1583.0916
31
0.0
0
TEXT
8
LOT-TEXT
7
STANDARD
10
426.5925
20
-1631.4717
30
0.0
40
4.5
1
L6
50
0.0
0
TEXT
8
LOT-TEXT
7
STANDARD
10
426.5925
20
-1639.4717
30
0.0
40
3.0
1
7,500sf
50
0.0
0
LINE
8
LOT-BOUNDARY
10
476.9583
20
-1579.9400
30
0.0
11
551.8921
21
-1576.7885
31
0.0
0
LINE
8
LOT-BOUNDARY
10
551.8921
20
-1576.7885
30
0.0
11
556.0942
21
-1676.7001
31
0.0
0
LINE
8
LOT-BOUNDARY
10
556.0942
20
-1676.7001
30
0.0
11
481.1604
21
-1679.8517
31
0.0
0
LINE
8
LOT-BOUNDARY
10
481.1604
20
-1679.8517
30
0.0
11
476.9583
21
-1579.9400
31
0.0
0
TEXT
8
LOT-TEXT
7
STANDARD
10
501.5263
20
-1628.3201
30
0.0
40
4.5
1
L7
50
0.0
0
TEXT
8
LOT-TEXT
7
STANDARD
10
501.5263
20
-1636.3201
30
0.0
40
3.0
1
7,500sf
50
0.0
0
LINE
8
LOT-BOUNDARY
10
551.8921
20
-1576.7885
30
0.0
11
626.8259
21
-1573.6369
31
0.0
0
LINE
8
LOT-BOUNDARY
10
626.8259
20
-1573.6369
30
0.0
11
631.0280
21
-1673.5486
31
0.0
0
LINE
8
LOT-BOUNDARY
10
631.0280
20
-1673.5486
30
0.0
11
556.0942
21
-1676.7001
31
0.0
0
LINE
8
LOT-BOUNDARY
10
556.0942
20
-1676.7001
30
0.0
11
551.8921
21
-1576.7885
31
0.0
0
TEXT
8
LOT-TEXT
7
STANDARD
10
576.4600
20
-1625.1685
30
0.0
40
4.5
1
L8
50
0.0
0
TEXT
8
LOT-TEXT
7
STANDARD
10
576.4600
20
-1633.1685
30
0.0
40
3.0
1
7,500sf
50
0.0
0
LINE
8
LOT-BOUNDARY
10
626.8259
20
-1573.6369
30
0.0
11
701.7596
21
-1570.4853
31
0.0
0
LINE
8
LOT-BOUNDARY
10
701.7596
20
-1570.4853
30
0.0
11
705.9617
21
-1670.3970
31
0.0
0
LINE
8
LOT-BOUNDARY
10
705.9617
20
-1670.3970
30
0.0
11
631.0280
21
-1673.5486
31
0.0
0
LINE
8
LOT-BOUNDARY
10
631.0280
20
-1673.5486
30
0.0
11
626.8259
21
-1573.6369
31
0.0
0
TEXT
8
LOT-TEXT
7
STANDARD
10
651.3938
20
-1622.0169
30
0.0
40
4.5
1
L9
50
0.0
0
TEXT
8
LOT-TEXT
7
STANDARD
10
651.3938
20
-1630.0169
30
0.0
40
3.0
1
7,500sf
50
0.0
0
LINE
8
LOT-BOUNDARY
10
701.7596
20
-1570.4853
30
0.0
11
776.6934
21
-1567.3337
31
0.0
0
LINE
8
LOT-BOUNDARY
10
776.6934
20
-1567.3337
30
0.0
11
780.8955
21
-1667.2454
31
0.0
0
LINE
8
LOT-BOUNDARY
10
780.8955
20
-1667.2454
30
0.0
11
705.9617
21
-1670.3970
31
0.0
0
LINE
8
LOT-BOUNDARY
10
705.9617
20
-1670.3970
30
0.0
11
701.7596
21
-1570.4853
31
0.0
0
TEXT
8
LOT-TEXT
7
STANDARD
10
726.3275
20
-1618.8654
30
0.0
40
4.5
1
L10
50
0.0
0
TEXT
8
LOT-TEXT
7
STANDARD
10
726.3275
20
-1626.8654
30
0.0
40
3.0
1
7,500sf
50
0.0
0
LINE
8
LOT-BOUNDARY
10
776.6934
20
-1567.3337
30
0.0
11
851.6271
21
-1564.1822
31
0.0
0
LINE
8
LOT-BOUNDARY
10
851.6271
20
-1564.1822
30
0.0
11
855.8292
21
-1664.0938
31
0.0
0
LINE
8
LOT-BOUNDARY
10
855.8292
20
-1664.0938
30
0.0
11
780.8955
21
-1667.2454
31
0.0
0
LINE
8
LOT-BOUNDARY
10
780.8955
20
-1667.2454
30
0.0
11
776.6934
21
-1567.3337
31
0.0
0
TEXT
8
LOT-TEXT
7
STANDARD
10
801.2613
20
-1615.7138
30
0.0
40
4.5
1
L11
50
0.0
0
TEXT
8
LOT-TEXT
7
STANDARD
10
801.2613
20
-1623.7138
30
0.0
40
3.0
1
7,500sf
50
0.0
0
LINE
8
LOT-BOUNDARY
10
851.6271
20
-1564.1822
30
0.0
11
926.5609
21
-1561.0306
31
0.0
0
LINE
8
LOT-BOUNDARY
10
926.5609
20
-1561.0306
30
0.0
11
930.7630
21
-1660.9423
31
0.0
0
LINE
8
LOT-BOUNDARY
10
930.7630
20
-1660.9423
30
0.0
11
855.8292
21
-1664.0938
31
0.0
0
LINE
8
LOT-BOUNDARY
10
855.8292
20
-1664.0938
30
0.0
11
851.6271
21
-1564.1822
31
0.0
0
TEXT
8
LOT-TEXT
7
STANDARD
10
876.1950
20
-1612.5622
30
0.0
40
4.5
1
L12
50
0.0
0
TEXT
8
LOT-TEXT
7
STANDARD
10
876.1950
20
-1620.5622
30
0.0
40
3.0
1
7,500sf
50
0.0
0
LINE
8
LOT-BOUNDARY
10
4.2021
20
-1699.9117
30
0.0
11
97.3797
21
-1695.9928
31
0.0
0
LINE
8
LOT-BOUNDARY
10
97.3797
20
-1695.9928
30
0.0
11
101.5818
21
-1795.9045
31
0.0
0
LINE
8
LOT-BOUNDARY
10
101.5818
20
-1795.9045
30
0.0
11
8.4042
21
-1799.8233
31
0.0
0
LINE
8
LOT-BOUNDARY
10
8.4042
20
-1799.8233
30
0.0
11
4.2021
21
-1699.9117
31
0.0
0
TEXT
8
LOT-TEXT
7
STANDARD
10
37.8920
20
-1747.9081
30
0.0
40
4.5
1
L24
50
0.0
0
TEXT
8
LOT-TEXT
7
STANDARD
10
37.8920
20
-1755.9081
30
0.0
40
3.0
1
9,326sf
50
0.0
0
LINE
8
LOT-BOUNDARY
10
97.3797
20
-1695.9928
30
0.0
11
172.3135
21
-1692.8412
31
0.0
0
LINE
8
LOT-BOUNDARY
10
172.3135
20
-1692.8412
30
0.0
11
176.5156
21
-1792.7529
31
0.0
0
LINE
8
LOT-BOUNDARY
10
176.5156
20
-1792.7529
30
0.0
11
101.5818
21
-1795.9045
31
0.0
0
LINE
8
LOT-BOUNDARY
10
101.5818
20
-1795.9045
30
0.0
11
97.3797
21
-1695.9928
31
0.0
0
TEXT
8
LOT-TEXT
7
STANDARD
10
121.9476
20
-1744.3728
30
0.0
40
4.5
1
L23
50
0.0
0
TEXT
8
LOT-TEXT
7
STANDARD
10
121.9476
20
-1752.3728
30
0.0
40
3.0
1
7,500sf
50
0.0
0
LINE
8
LOT-BOUNDARY
10
172.3135
20
-1692.8412
30
0.0
11
247.2472
21
-1689.6897
31
0.0
0
LINE
8
LOT-BOUNDARY
10
247.2472
20
-1689.6897
30
0.0
11
251.4493
21
-1789.6013
31
0.0
0
LINE
8
LOT-BOUNDARY
10
251.4493
20
-1789.6013
30
0.0
11
176.5156
21
-1792.7529
31
0.0
0
LINE
8
LOT-BOUNDARY
10
176.5156
20
-1792.7529
30
0.0
11
172.3135
21
-1692.8412
31
0.0
0
TEXT
8
LOT-TEXT
7
STANDARD
10
196.8814
20
-1741.2213
30
0.0
40
4.5
1
L22
50
0.0
0
TEXT
8
LOT-TEXT
7
STANDARD
10
196.8814
20
-1749.2213
30
0.0
40
3.0
1
7,500sf
50
0.0
0
LINE
8
LOT-BOUNDARY
10
247.2472
20
-1689.6897
30
0.0
11
322.1810
21
-1686.5381
31
0.0
0
LINE
8
LOT-BOUNDARY
10
322.1810
20
-1686.5381
30
0.0
11
326.3831
21
-1786.4498
31
0.0
0
LINE
8
LOT-BOUNDARY
10
326.3831
20
-1786.4498
30
0.0
11
251.4493
21
-1789.6013
31
0.0
0
LINE
8
LOT-BOUNDARY
10
251.4493
20
-1789.6013
30
0.0
11
247.2472
21
-1689.6897
31
0.0
0
TEXT
8
LOT-TEXT
7
STANDARD
10
271.8152
20
-1738.0697
30
0.0
40
4.5
1
L21
50
0.0
0
TEXT
8
LOT-TEXT
7
STANDARD
10
271.8152
20
-1746.0697
30
0.0
40
3.0
1
7,500sf
50
0.0
0
LINE
8
LOT-BOUNDARY
10
322.1810
20
-1686.5381
30
0.0
11
397.1147
21
-1683.3865
31
0.0
0
LINE
8
LOT-BOUNDARY
10
397.1147
20
-1683.3865
30
0.0
11
401.3168
21
-1783.2982
31
0.0
0
LINE
8
LOT-BOUNDARY
10
401.3168
20
-1783.2982
30
0.0
11
326.3831
21
-1786.4498
31
0.0
0
LINE
8
LOT-BOUNDARY
10
326.3831
20
-1786.4498
30
0.0
11
322.1810
21
-1686.5381
31
0.0
0
TEXT
8
LOT-TEXT
7
STANDARD
10
346.7489
20
-1734.9181
30
0.0
40
4.5
1
L20
50
0.0
0
TEXT
8
LOT-TEXT
7
STANDARD
10
346.7489
20
-1742.9181
30
0.0
40
3.0
1
7,500sf
50
0.0
0
LINE
8
LOT-BOUNDARY
10
397.1147
20
-1683.3865
30
0.0
11
472.0485
21
-1680.2349
31
0.0
0
LINE
8
LOT-BOUNDARY
10
472.0485
20
-1680.2349
30
0.0
11
476.2506
21
-1780.1466
31
0.0
0
LINE
8
LOT-BOUNDARY
10
476.2506
20
-1780.1466
30
0.0
11
401.3168
21
-1783.2982
31
0.0
0
LINE
8
LOT-BOUNDARY
10
401.3168
20
-1783.2982
30
0.0
11
397.1147
21
-1683.3865
31
0.0
0
TEXT
8
LOT-TEXT
7
STANDARD
10
421.6827
20
-1731.7666
30
0.0
40
4.5
1
L19
50
0.0
0
TEXT
8
LOT-TEXT
7
STANDARD
10
421.6827
20
-1739.7666
30
0.0
40
3.0
1
7,500sf
50
0.0
0
LINE
8
LOT-BOUNDARY
10
472.0485
20
-1680.2349
30
0.0
11
546.9823
21
-1677.0834
31
0.0
0
LINE
8
LOT-BOUNDARY
10
546.9823
20
-1677.0834
30
0.0
11
551.1843
21
-1776.9950
31
0.0
0
LINE
8
LOT-BOUNDARY
10
551.1843
20
-1776.9950
30
0.0
11
476.2506
21
-1780.1466
31
0.0
0
LINE
8
LOT-BOUNDARY
10
476.2506
20
-1780.1466
30
0.0
11
472.0485
21
-1680.2349
31
0.0
0
TEXT
8
LOT-TEXT
7
STANDARD
10
496.6164
20
-1728.6150
30
0.0
40
4.5
1
L18
50
0.0
0
TEXT
8
LOT-TEXT
7
STANDARD
10
496.6164
20
-1736.6150
30
0.0
40
3.0
1
7,500sf
50
0.0
0
LINE
8
LOT-BOUNDARY
10
546.9823
20
-1677.0834
30
0.0
11
621.9160
21
-1673.9318
31
0.0
0
LINE
8
LOT-BOUNDARY
10
621.9160
20
-1673.9318
30
0.0
11
626.1181
21
-1773.8435
31
0.0
0
LINE
8
LOT-BOUNDARY
10
626.1181
20
-1773.8435
30
0.0
11
551.1843
21
-1776.9950
31
0.0
0
LINE
8
LOT-BOUNDARY
10
551.1843
20
-1776.9950
30
0.0
11
546.9823
21
-1677.0834
31
0.0
0
TEXT
8
LOT-TEXT
7
STANDARD
10
571.5502
20
-1725.4634
30
0.0
40
4.5
1
L17
50
0.0
0
TEXT
8
LOT-TEXT
7
STANDARD
10
571.5502
20
-1733.4634
30
0.0
40
3.0
1
7,500sf
50
0.0
0
LINE
8
LOT-BOUNDARY
10
621.9160
20
-1673.9318
30
0.0
11
696.8498
21
-1670.7802
31
0.0
0
LINE
8
LOT-BOUNDARY
10
696.8498
20
-1670.7802
30
0.0
11
701.0519
21
-1770.6919
31
0.0
0
LINE
8
LOT-BOUNDARY
10
701.0519
20
-1770.6919
30
0.0
11
626.1181
21
-1773.8435
31
0.0
0
LINE
8
LOT-BOUNDARY
10
626.1181
20
-1773.8435
30
0.0
11
621.9160
21
-1673.9318
31
0.0
0
TEXT
8
LOT-TEXT
7
STANDARD
10
646.4839
20
-1722.3118
30
0.0
40
4.5
1
L16
50
0.0
0
TEXT
8
LOT-TEXT
7
STANDARD
10
646.4839
20
-1730.3118
30
0.0
40
3.0
1
7,500sf
50
0.0
0
LINE
8
LOT-BOUNDARY
10
696.8498
20
-1670.7802
30
0.0
11
771.7835
21
-1667.6286
31
0.0
0
LINE
8
LOT-BOUNDARY
10
771.7835
20
-1667.6286
30
0.0
11
775.9856
21
-1767.5403
31
0.0
0
LINE
8
LOT-BOUNDARY
10
775.9856
20
-1767.5403
30
0.0
11
701.0519
21
-1770.6919
31
0.0
0
LINE
8
LOT-BOUNDARY
10
701.0519
20
-1770.6919
30
0.0
11
696.8498
21
-1670.7802
31
0.0
0
TEXT
8
LOT-TEXT
7
STANDARD
10
721.4177
20
-1719.1603
30
0.0
40
4.5
1
L15
50
0.0
0
TEXT
8
LOT-TEXT
7
STANDARD
10
721.4177
20
-1727.1603
30
0.0
40
3.0
1
7,500sf
50
0.0
0
LINE
8
LOT-BOUNDARY
10
771.7835
20
-1667.6286
30
0.0
11
846.7173
21
-1664.4771
31
0.0
0
LINE
8
LOT-BOUNDARY
10
846.7173
20
-1664.4771
30
0.0
11
850.9194
21
-1764.3887
31
0.0
0
LINE
8
LOT-BOUNDARY
10
850.9194
20
-1764.3887
30
0.0
11
775.9856
21
-1767.5403
31
0.0
0
LINE
8
LOT-BOUNDARY
10
775.9856
20
-1767.5403
30
0.0
11
771.7835
21
-1667.6286
31
0.0
0
TEXT
8
LOT-TEXT
7
STANDARD
10
796.3514
20
-1716.0087
30
0.0
40
4.5
1
L14
50
0.0
0
TEXT
8
LOT-TEXT
7
STANDARD
10
796.3514
20
-1724.0087
30
0.0
40
3.0
1
7,500sf
50
0.0
0
LINE
8
LOT-BOUNDARY
10
846.7173
20
-1664.4771
30
0.0
11
921.6510
21
-1661.3255
31
0.0
0
LINE
8
LOT-BOUNDARY
10
921.6510
20
-1661.3255
30
0.0
11
925.8531
21
-1761.2372
31
0.0
0
LINE
8
LOT-BOUNDARY
10
925.8531
20
-1761.2372
30
0.0
11
850.9194
21
-1764.3887
31
0.0
0
LINE
8
LOT-BOUNDARY
10
850.9194
20
-1764.3887
30
0.0
11
846.7173
21
-1664.4771
31
0.0
0
TEXT
8
LOT-TEXT
7
STANDARD
10
871.2852
20
-1712.8571
30
0.0
40
4.5
1
L13
50
0.0
0
TEXT
8
LOT-TEXT
7
STANDARD
10
871.2852
20
-1720.8571
30
0.0
40
3.0
1
7,500sf
50
0.0
0
TEXT
8
BLOCK-TITLE
7
STANDARD
10
0.0000
20
-1970.0000
30
0.0
40
8.0
1
BLOCK_13 (11 LOTS)
50
0.0
0
LINE
8
BLOCK-BORDER
10
-15.0000
20
-2909.1961
30
0.0
11
-15.0000
21
-1953.2063
31
0.0
0
LINE
8
BLOCK-BORDER
10
-15.0000
20
-1953.2063
30
0.0
11
131.0363
21
-1953.2063
31
0.0
0
LINE
8
BLOCK-BORDER
10
131.0363
20
-1953.2063
30
0.0
11
131.0363
21
-2909.1961
31
0.0
0
LINE
8
BLOCK-BORDER
10
131.0363
20
-2909.1961
30
0.0
11
-15.0000
21
-2909.1961
31
0.0
0
LINE
8
LOT-BOUNDARY
10
1.7937
20
-2099.9839
30
0.0
11
0.0000
21
-2000.0000
31
0.0
0
LINE
8
LOT-BOUNDARY
10
0.0000
20
-2000.0000
30
0.0
11
74.9879
21
-1998.6547
31
0.0
0
LINE
8
LOT-CURVE
10
74.9879
20
-1998.6547
30
0.0
11
77.4401
21
-1998.7311
31
0.0
0
LINE
8
LOT-CURVE
10
77.4401
20
-1998.7311
30
0.0
11
79.8730
21
-1999.0475
31
0.0
0
LINE
8
LOT-CURVE
10
79.8730
20
-1999.0475
30
0.0
11
82.2632
21
-1999.6009
31
0.0
0
LINE
8
LOT-CURVE
10
82.2632
20
-1999.6009
30
0.0
11
84.5876
21
-2000.3858
31
0.0
0
LINE
8
LOT-CURVE
10
84.5876
20
-2000.3858
30
0.0
11
86.8239
21
-2001.3948
31
0.0
0
LINE
8
LOT-CURVE
10
86.8239
20
-2001.3948
30
0.0
11
88.9505
21
-2002.6182
31
0.0
0
LINE
8
LOT-CURVE
10
88.9505
20
-2002.6182
30
0.0
11
90.9470
21
-2004.0441
31
0.0
0
LINE
8
LOT-CURVE
10
90.9470
20
-2004.0441
30
0.0
11
92.7941
21
-2005.6588
31
0.0
0
LINE
8
LOT-CURVE
10
92.7941
20
-2005.6588
30
0.0
11
94.4740
21
-2007.4468
31
0.0
0
LINE
8
LOT-CURVE
10
94.4740
20
-2007.4468
30
0.0
11
95.9706
21
-2009.3908
31
0.0
0
LINE
8
LOT-CURVE
10
95.9706
20
-2009.3908
30
0.0
11
97.2695
21
-2011.4722
31
0.0
0
LINE
8
LOT-CURVE
10
97.2695
20
-2011.4722
30
0.0
11
98.3580
21
-2013.6709
31
0.0
0
LINE
8
LOT-CURVE
10
98.3580
20
-2013.6709
30
0.0
11
99.2258
21
-2015.9656
31
0.0
0
LINE
8
LOT-CURVE
10
99.2258
20
-2015.9656
30
0.0
11
99.8646
21
-2018.3344
31
0.0
0
LINE
8
LOT-CURVE
10
99.8646
20
-2018.3344
30
0.0
11
100.2680
21
-2020.7544
31
0.0
0
LINE
8
LOT-CURVE
10
100.2680
20
-2020.7544
30
0.0
11
100.4323
21
-2023.2023
31
0.0
0
TEXT
8
LOT-DIM
7
STANDARD
10
94.2941
20
-2004.1588
30
0.0
40
2.2
1
R=25.0' L=39.3' D=90%%d00'00"
50
0.0
0
LINE
8
LOT-BOUNDARY
10
100.4323
20
-2023.2023
30
0.0
11
101.7776
21
-2098.1902
31
0.0
0
LINE
8
LOT-BOUNDARY
10
101.7776
20
-2098.1902
30
0.0
11
1.7937
21
-2099.9839
31
0.0
0
TEXT
8
LOT-TEXT
7
STANDARD
10
40.7983
20
-2044.0062
30
0.0
40
4.5
1
L1
50
0.0
0
TEXT
8
LOT-TEXT
7
STANDARD
10
40.7983
20
-2052.0062
30
0.0
40
3.0
1
9,866sf
50
0.0
0
LINE
8
LOT-BOUNDARY
10
3.1794
20
-2177.2215
30
0.0
11
1.7937
21
-2099.9839
31
0.0
0
LINE
8
LOT-BOUNDARY
10
1.7937
20
-2099.9839
30
0.0
11
101.7776
21
-2098.1902
31
0.0
0
LINE
8
LOT-BOUNDARY
10
101.7776
20
-2098.1902
30
0.0
11
103.1633
21
-2175.4278
31
0.0
0
LINE
8
LOT-BOUNDARY
10
103.1633
20
-2175.4278
30
0.0
11
3.1794
21
-2177.2215
31
0.0
0
TEXT
8
LOT-TEXT
7
STANDARD
10
37.4785
20
-2137.7058
30
0.0
40
4.5
1
L2
50
0.0
0
TEXT
8
LOT-TEXT
7
STANDARD
10
37.4785
20
-2145.7058
30
0.0
40
3.0
1
7,725sf
50
0.0
0
LINE
8
LOT-BOUNDARY
10
4.5650
20
-2254.4591
30
0.0
11
3.1794
21
-2177.2215
31
0.0
0
LINE
8
LOT-BOUNDARY
10
3.1794
20
-2177.2215
30
0.0
11
103.1633
21
-2175.4278
31
0.0
0
LINE
8
LOT-BOUNDARY
10
103.1633
20
-2175.4278
30
0.0
11
104.5489
21
-2252.6653
31
0.0
0
LINE
8
LOT-BOUNDARY
10
104.5489
20
-2252.6653
30
0.0
11
4.5650
21
-2254.4591
31
0.0
0
TEXT
8
LOT-TEXT
7
STANDARD
10
38.8641
20
-2214.9434
30
0.0
40
4.5
1
L3
50
0.0
0
TEXT
8
LOT-TEXT
7
STANDARD
10
38.8641
20
-2222.9434
30
0.0
40
3.0
1
7,725sf
50
0.0
0
LINE
8
LOT-BOUNDARY
10
5.9506
20
-2331.6966
30
0.0
11
4.5650
21
-2254.4591
31
0.0
0
LINE
8
LOT-BOUNDARY
10
4.5650
20
-2254.4591
30
0.0
11
104.5489
21
-2252.6653
31
0.0
0
LINE
8
LOT-BOUNDARY
10
104.5489
20
-2252.6653
30
0.0
11
105.9346
21
-2329.9029
31
0.0
0
LINE
8
LOT-BOUNDARY
10
105.9346
20
-2329.9029
30
0.0
11
5.9506
21
-2331.6966
31
0.0
0
TEXT
8
LOT-TEXT
7
STANDARD
10
40.2498
20
-2292.1810
30
0.0
40
4.5
1
L4
50
0.0
0
TEXT
8
LOT-TEXT
7
STANDARD
10
40.2498
20
-2300.1810
30
0.0
40
3.0
1
7,725sf
50
0.0
0
LINE
8
LOT-BOUNDARY
10
7.3363
20
-2408.9342
30
0.0
11
5.9506
21
-2331.6966
31
0.0
0
LINE
8
LOT-BOUNDARY
10
5.9506
20
-2331.6966
30
0.0
11
105.9346
21
-2329.9029
31
0.0
0
LINE
8
LOT-BOUNDARY
10
105.9346
20
-2329.9029
30
0.0
11
107.3202
21
-2407.1405
31
0.0
0
LINE
8
LOT-BOUNDARY
10
107.3202
20
-2407.1405
30
0.0
11
7.3363
21
-2408.9342
31
0.0
0
TEXT
8
LOT-TEXT
7
STANDARD
10
41.6354
20
-2369.4186
30
0.0
40
4.5
1
L5
50
0.0
0
TEXT
8
LOT-TEXT
7
STANDARD
10
41.6354
20
-2377.4186
30
0.0
40
3.0
1
7,725sf
50
0.0
0
LINE
8
LOT-BOUNDARY
10
8.7219
20
-2486.1718
30
0.0
11
7.3363
21
-2408.9342
31
0.0
0
LINE
8
LOT-BOUNDARY
10
7.3363
20
-2408.9342
30
0.0
11
107.3202
21
-2407.1405
31
0.0
0
LINE
8
LOT-BOUNDARY
10
107.3202
20
-2407.1405
30
0.0
11
108.7058
21
-2484.3781
31
0.0
0
LINE
8
LOT-BOUNDARY
10
108.7058
20
-2484.3781
30
0.0
11
8.7219
21
-2486.1718
31
0.0
0
TEXT
8
LOT-TEXT
7
STANDARD
10
43.0211
20
-2446.6561
30
0.0
40
4.5
1
L6
50
0.0
0
TEXT
8
LOT-TEXT
7
STANDARD
10
43.0211
20
-2454.6561
30
0.0
40
3.0
1
7,725sf
50
0.0
0
LINE
8
LOT-BOUNDARY
10
10.1076
20
-2563.4093
30
0.0
11
8.7219
21
-2486.1718
31
0.0
0
LINE
8
LOT-BOUNDARY
10
8.7219
20
-2486.1718
30
0.0
11
108.7058
21
-2484.3781
31
0.0
0
LINE
8
LOT-BOUNDARY
10
108.7058
20
-2484.3781
30
0.0
11
110.0915
21
-2561.6156
31
0.0
0
LINE
8
LOT-BOUNDARY
10
110.0915
20
-2561.6156
30
0.0
11
10.1076
21
-2563.4093
31
0.0
0
TEXT
8
LOT-TEXT
7
STANDARD
10
44.4067
20
-2523.8937
30
0.0
40
4.5
1
L7
50
0.0
0
TEXT
8
LOT-TEXT
7
STANDARD
10
44.4067
20
-2531.8937
30
0.0
40
3.0
1
7,725sf
50
0.0
0
LINE
8
LOT-BOUNDARY
10
11.4932
20
-2640.6469
30
0.0
11
10.1076
21
-2563.4093
31
0.0
0
LINE
8
LOT-BOUNDARY
10
10.1076
20
-2563.4093
30
0.0
11
110.0915
21
-2561.6156
31
0.0
0
LINE
8
LOT-BOUNDARY
10
110.0915
20
-2561.6156
30
0.0
11
111.4771
21
-2638.8532
31
0.0
0
LINE
8
LOT-BOUNDARY
10
111.4771
20
-2638.8532
30
0.0
11
11.4932
21
-2640.6469
31
0.0
0
TEXT
8
LOT-TEXT
7
STANDARD
10
45.7924
20
-2601.1313
30
0.0
40
4.5
1
L8
50
0.0
0
TEXT
8
LOT-TEXT
7
STANDARD
10
45.7924
20
-2609.1313
30
0.0
40
3.0
1
7,725sf
50
0.0
0
LINE
8
LOT-BOUNDARY
10
12.8789
20
-2717.8845
30
0.0
11
11.4932
21
-2640.6469
31
0.0
0
LINE
8
LOT-BOUNDARY
10
11.4932
20
-2640.6469
30
0.0
11
111.4771
21
-2638.8532
31
0.0
0
LINE
8
LOT-BOUNDARY
10
111.4771
20
-2638.8532
30
0.0
11
112.8628
21
-2716.0908
31
0.0
0
LINE
8
LOT-BOUNDARY
10
112.8628
20
-2716.0908
30
0.0
11
12.8789
21
-2717.8845
31
0.0
0
TEXT
8
LOT-TEXT
7
STANDARD
10
47.1780
20
-2678.3688
30
0.0
40
4.5
1
L9
50
0.0
0
TEXT
8
LOT-TEXT
7
STANDARD
10
47.1780
20
-2686.3688
30
0.0
40
3.0
1
7,725sf
50
0.0
0
LINE
8
LOT-BOUNDARY
10
14.2586
20
-2794.7921
30
0.0
11
12.8789
21
-2717.8845
31
0.0
0
LINE
8
LOT-BOUNDARY
10
12.8789
20
-2717.8845
30
0.0
11
112.8628
21
-2716.0908
31
0.0
0
LINE
8
LOT-BOUNDARY
10
112.8628
20
-2716.0908
30
0.0
11
114.2425
21
-2792.9984
31
0.0
0
LINE
8
LOT-BOUNDARY
10
114.2425
20
-2792.9984
30
0.0
11
14.2586
21
-2794.7921
31
0.0
0
TEXT
8
LOT-TEXT
7
STANDARD
10
48.5607
20
-2755.4414
30
0.0
40
4.5
1
L10
50
0.0
0
TEXT
8
LOT-TEXT
7
STANDARD
10
48.5607
20
-2763.4414
30
0.0
40
3.0
1
7,692sf
50
0.0
0
LINE
8
LOT-BOUNDARY
10
16.0419
20
-2894.1961
30
0.0
11
14.2586
21
-2794.7921
31
0.0
0
LINE
8
LOT-BOUNDARY
10
14.2586
20
-2794.7921
30
0.0
11
114.2425
21
-2792.9984
31
0.0
0
LINE
8
LOT-BOUNDARY
10
114.2425
20
-2792.9984
30
0.0
11
115.5852
21
-2867.8423
31
0.0
0
LINE
8
LOT-CURVE
10
115.5852
20
-2867.8423
30
0.0
11
115.5081
21
-2870.3035
31
0.0
0
LINE
8
LOT-CURVE
10
115.5081
20
-2870.3035
30
0.0
11
115.1892
21
-2872.7452
31
0.0
0
LINE
8
LOT-CURVE
10
115.1892
20
-2872.7452
30
0.0
11
114.6316
21
-2875.1438
31
0.0
0
LINE
8
LOT-CURVE
10
114.6316
20
-2875.1438
30
0.0
11
113.8408
21
-2877.4758
31
0.0
0
LINE
8
LOT-CURVE
10
113.8408
20
-2877.4758
30
0.0
11
112.8244
21
-2879.7187
31
0.0
0
LINE
8
LOT-CURVE
10
112.8244
20
-2879.7187
30
0.0
11
111.5922
21
-2881.8507
31
0.0
0
LINE
8
LOT-CURVE
10
111.5922
20
-2881.8507
30
0.0
11
110.1563
21
-2883.8512
31
0.0
0
LINE
8
LOT-CURVE
10
110.1563
20
-2883.8512
30
0.0
11
108.5306
21
-2885.7007
31
0.0
0
LINE
8
LOT-CURVE
10
108.5306
20
-2885.7007
30
0.0
11
106.7308
21
-2887.3813
31
0.0
0
LINE
8
LOT-CURVE
10
106.7308
20
-2887.3813
30
0.0
11
104.7743
21
-2888.8767
31
0.0
0
LINE
8
LOT-CURVE
10
104.7743
20
-2888.8767
30
0.0
11
102.6803
21
-2890.1723
31
0.0
0
LINE
8
LOT-CURVE
10
102.6803
20
-2890.1723
30
0.0
11
100.4690
21
-2891.2557
31
0.0
0
LINE
8
LOT-CURVE
10
100.4690
20
-2891.2557
30
0.0
11
98.1618
21
-2892.1162
31
0.0
0
LINE
8
LOT-CURVE
10
98.1618
20
-2892.1162
30
0.0
11
95.7811
21
-2892.7456
31
0.0
0
LINE
8
LOT-CURVE
10
95.7811
20
-2892.7456
30
0.0
11
93.3501
21
-2893.1378
31
0.0
0
LINE
8
LOT-CURVE
10
93.3501
20
-2893.1378
30
0.0
11
90.8922
21
-2893.2889
31
0.0
0
TEXT
8
LOT-DIM
7
STANDARD
10
110.0306
20
-2884.2007
30
0.0
40
2.2
1
R=25.0' L=39.4' D=90%%d20'00"
50
0.0
0
LINE
8
LOT-BOUNDARY
10
90.8922
20
-2893.2889
30
0.0
11
16.0419
21
-2894.1961
31
0.0
0
TEXT
8
LOT-TEXT
7
STANDARD
10
55.2041
20
-2848.6235
30
0.0
40
4.5
1
L11
50
0.0
0
TEXT
8
LOT-TEXT
7
STANDARD
10
55.2041
20
-2856.6235
30
0.0
40
3.0
1
9,835sf
50
0.0
0
TEXT
8
BLOCK-TITLE
7
STANDARD
10
2200.0000
20
30.0000
30
0.0
40
8.0
1
BLOCK_12 (4 LOTS)
50
0.0
0
LINE
8
BLOCK-BORDER
10
2185.0000
20
-251.2320
30
0.0
11
2185.0000
21
46.7937
31
0.0
0
LINE
8
BLOCK-BORDER
10
2185.0000
20
46.7937
30
0.0
11
2501.5360
21
46.7937
31
0.0
0
LINE
8
BLOCK-BORDER
10
2501.5360
20
46.7937
30
0.0
11
2501.5360
21
-251.2320
31
0.0
0
LINE
8
BLOCK-BORDER
10
2501.5360
20
-251.2320
30
0.0
11
2185.0000
21
-251.2320
31
0.0
0
LINE
8
LOT-BOUNDARY
10
2201.3453
20
-74.9879
30
0.0
11
2200.0000
21
0.0000
31
0.0
0
LINE
8
LOT-BOUNDARY
10
2200.0000
20
0.0000
30
0.0
11
2299.9839
21
1.7937
31
0.0
0
LINE
8
LOT-BOUNDARY
10
2299.9839
20
1.7937
30
0.0
11
2321.3260
21
-72.8355
31
0.0
0
LINE
8
LOT-BOUNDARY
10
2321.3260
20
-72.8355
30
0.0
11
2201.3453
21
-74.9879
31
0.0
0
TEXT
8
LOT-TEXT
7
STANDARD
10
2240.6638
20
-36.5074
30
0.0
40
4.5
1
L7
50
0.0
0
TEXT
8
LOT-TEXT
7
STANDARD
10
2240.6638
20
-44.5074
30
0.0
40
3.0
1
8,250sf
50
0.0
0
LINE
8
LOT-BOUNDARY
10
2202.6237
20
-146.2465
30
0.0
11
2201.3453
21
-74.9879
31
0.0
0
LINE
8
LOT-BOUNDARY
10
2201.3453
20
-74.9879
30
0.0
11
2321.3260
21
-72.8355
31
0.0
0
LINE
8
LOT-BOUNDARY
10
2321.3260
20
-72.8355
30
0.0
11
2323.1243
21
-144.0847
31
0.0
0
LINE
8
LOT-BOUNDARY
10
2323.1243
20
-144.0847
30
0.0
11
2202.6237
21
-146.2465
31
0.0
0
TEXT
8
LOT-TEXT
7
STANDARD
10
2247.1048
20
-109.5386
30
0.0
40
4.5
1
L6
50
0.0
0
TEXT
8
LOT-TEXT
7
STANDARD
10
2247.1048
20
-117.5386
30
0.0
40
3.0
1
8,571sf
50
0.0
0
LINE
8
LOT-BOUNDARY
10
2204.2380
20
-236.2320
30
0.0
11
2202.6237
21
-146.2465
31
0.0
0
LINE
8
LOT-BOUNDARY
10
2202.6237
20
-146.2465
30
0.0
11
2323.1243
21
-144.0847
31
0.0
0
LINE
8
LOT-BOUNDARY
10
2323.1243
20
-144.0847
30
0.0
11
2324.2292
21
-234.7776
31
0.0
0
LINE
8
LOT-BOUNDARY
10
2324.2292
20
-234.7776
30
0.0
11
2204.2380
21
-236.2320
31
0.0
0
TEXT
8
LOT-TEXT
7
STANDARD
10
2248.5538
20
-190.3352
30
0.0
40
4.5
1
L5
50
0.0
0
TEXT
8
LOT-TEXT
7
STANDARD
10
2248.5538
20
-198.3352
30
0.0
40
3.0
1
10,865sf
50
0.0
0
LINE
8
LOT-BOUNDARY
10
2324.2292
20
-234.7776
30
0.0
11
2323.1300
21
-144.0942
31
0.0
0
LINE
8
LOT-BOUNDARY
10
2323.1300
20
-144.0942
30
0.0
11
2417.1836
21
-131.4434
31
0.0
0
LINE
8
LOT-BOUNDARY
10
2417.1836
20
-131.4434
30
0.0
11
2418.4223
21
-233.6359
31
0.0
0
LINE
8
LOT-BOUNDARY
10
2418.4223
20
-233.6359
30
0.0
11
2324.2292
21
-234.7776
31
0.0
0
TEXT
8
LOT-TEXT
7
STANDARD
10
2355.7413
20
-185.9878
30
0.0
40
4.5
1
L4
50
0.0
0
TEXT
8
LOT-TEXT
7
STANDARD
10
2355.7413
20
-193.9878
30
0.0
40
3.0
1
9,085sf
50
0.0
0
TEXT
8
BLOCK-TITLE
7
STANDARD
10
2200.0000
20
-370.0000
30
0.0
40
8.0
1
BLOCK_11 (6 LOTS)
50
0.0
0
LINE
8
BLOCK-BORDER
10
2185.0000
20
-614.9678
30
0.0
11
2185.0000
21
-352.0448
31
0.0
0
LINE
8
BLOCK-BORDER
10
2185.0000
20
-352.0448
30
0.0
11
2461.2396
21
-352.0448
31
0.0
0
LINE
8
BLOCK-BORDER
10
2461.2396
20
-352.0448
30
0.0
11
2461.2396
21
-614.9678
31
0.0
0
LINE
8
BLOCK-BORDER
10
2461.2396
20
-614.9678
30
0.0
11
2185.0000
21
-614.9678
31
0.0
0
LINE
8
LOT-BOUNDARY
10
2201.7937
20
-499.9839
30
0.0
11
2200.0000
21
-400.0000
31
0.0
0
LINE
8
LOT-BOUNDARY
10
2200.0000
20
-400.0000
30
0.0
11
2293.8231
21
-398.8628
31
0.0
0
LINE
8
LOT-BOUNDARY
10
2293.8231
20
-398.8628
30
0.0
11
2295.0369
21
-498.8537
31
0.0
0
LINE
8
LOT-BOUNDARY
10
2295.0369
20
-498.8537
30
0.0
11
2201.7937
21
-499.9839
31
0.0
0
TEXT
8
LOT-TEXT
7
STANDARD
10
2232.6634
20
-449.4251
30
0.0
40
4.5
1
L15
50
0.0
0
TEXT
8
LOT-TEXT
7
STANDARD
10
2232.6634
20
-457.4251
30
0.0
40
3.0
1
9,354sf
50
0.0
0
LINE
8
LOT-BOUNDARY
10
2295.0369
20
-498.8537
30
0.0
11
2293.8231
21
-398.8628
31
0.0
0
LINE
8
LOT-BOUNDARY
10
2293.8231
20
-398.8628
30
0.0
11
2368.8176
21
-397.9538
31
0.0
0
LINE
8
LOT-BOUNDARY
10
2368.8176
20
-397.9538
30
0.0
11
2370.0314
21
-497.9447
31
0.0
0
LINE
8
LOT-BOUNDARY
10
2370.0314
20
-497.9447
30
0.0
11
2295.0369
21
-498.8537
31
0.0
0
TEXT
8
LOT-TEXT
7
STANDARD
10
2316.9272
20
-448.4037
30
0.0
40
4.5
1
L16
50
0.0
0
TEXT
8
LOT-TEXT
7
STANDARD
10
2316.9272
20
-456.4037
30
0.0
40
3.0
1
7,500sf
50
0.0
0
LINE
8
LOT-BOUNDARY
10
2370.0314
20
-497.9447
30
0.0
11
2368.8176
21
-397.9538
31
0.0
0
LINE
8
LOT-BOUNDARY
10
2368.8176
20
-397.9538
30
0.0
11
2443.8121
21
-397.0448
31
0.0
0
LINE
8
LOT-BOUNDARY
10
2443.8121
20
-397.0448
30
0.0
11
2445.0258
21
-497.0357
31
0.0
0
LINE
8
LOT-BOUNDARY
10
2445.0258
20
-497.0357
30
0.0
11
2370.0314
21
-497.9447
31
0.0
0
TEXT
8
LOT-TEXT
7
STANDARD
10
2391.9217
20
-447.4947
30
0.0
40
4.5
1
L17
50
0.0
0
TEXT
8
LOT-TEXT
7
STANDARD
10
2391.9217
20
-455.4947
30
0.0
40
3.0
1
7,500sf
50
0.0
0
LINE
8
LOT-BOUNDARY
10
2203.5874
20
-599.9678
30
0.0
11
2201.7937
21
-499.9839
31
0.0
0
LINE
8
LOT-BOUNDARY
10
2201.7937
20
-499.9839
30
0.0
11
2295.0369
21
-498.8537
31
0.0
0
LINE
8
LOT-BOUNDARY
10
2295.0369
20
-498.8537
30
0.0
11
2296.2506
21
-598.8447
31
0.0
0
LINE
8
LOT-BOUNDARY
10
2296.2506
20
-598.8447
30
0.0
11
2203.5874
21
-599.9678
31
0.0
0
TEXT
8
LOT-TEXT
7
STANDARD
10
2234.1672
20
-549.4125
30
0.0
40
4.5
1
L14
50
0.0
0
TEXT
8
LOT-TEXT
7
STANDARD
10
2234.1672
20
-557.4125
30
0.0
40
3.0
1
9,296sf
50
0.0
0
LINE
8
LOT-BOUNDARY
10
2296.2506
20
-598.8447
30
0.0
11
2295.0369
21
-498.8537
31
0.0
0
LINE
8
LOT-BOUNDARY
10
2295.0369
20
-498.8537
30
0.0
11
2370.0314
21
-497.9447
31
0.0
0
LINE
8
LOT-BOUNDARY
10
2370.0314
20
-497.9447
30
0.0
11
2371.2451
21
-597.9357
31
0.0
0
LINE
8
LOT-BOUNDARY
10
2371.2451
20
-597.9357
30
0.0
11
2296.2506
21
-598.8447
31
0.0
0
TEXT
8
LOT-TEXT
7
STANDARD
10
2318.1410
20
-548.3947
30
0.0
40
4.5
1
L13
50
0.0
0
TEXT
8
LOT-TEXT
7
STANDARD
10
2318.1410
20
-556.3947
30
0.0
40
3.0
1
7,500sf
50
0.0
0
LINE
8
LOT-BOUNDARY
10
2371.2451
20
-597.9357
30
0.0
11
2370.0314
21
-497.9447
31
0.0
0
LINE
8
LOT-BOUNDARY
10
2370.0314
20
-497.9447
30
0.0
11
2445.0258
21
-497.0357
31
0.0
0
LINE
8
LOT-BOUNDARY
10
2445.0258
20
-497.0357
30
0.0
11
2446.2396
21
-597.0267
31
0.0
0
LINE
8
LOT-BOUNDARY
10
2446.2396
20
-597.0267
30
0.0
11
2371.2451
21
-597.9357
31
0.0
0
TEXT
8
LOT-TEXT
7
STANDARD
10
2393.1355
20
-547.4857
30
0.0
40
4.5
1
L12
50
0.0
0
TEXT
8
LOT-TEXT
7
STANDARD
10
2393.1355
20
-555.4857
30
0.0
40
3.0
1
7,500sf
50
0.0
0
TEXT
8
BLOCK-TITLE
7
STANDARD
10
2200.0000
20
-770.0000
30
0.0
40
8.0
1
BLOCK_10 (5 LOTS)
50
0.0
0
LINE
8
BLOCK-BORDER
10
2185.0000
20
-914.9839
30
0.0
11
2185.0000
21
-750.1761
31
0.0
0
LINE
8
BLOCK-BORDER
10
2185.0000
20
-750.1761
30
0.0
11
2614.1945
21
-750.1761
31
0.0
0
LINE
8
BLOCK-BORDER
10
2614.1945
20
-750.1761
30
0.0
11
2614.1945
21
-914.9839
31
0.0
0
LINE
8
BLOCK-BORDER
10
2614.1945
20
-914.9839
30
0.0
11
2185.0000
21
-914.9839
31
0.0
0
LINE
8
LOT-BOUNDARY
10
2201.7937
20
-899.9839
30
0.0
11
2200.0000
21
-800.0000
31
0.0
0
LINE
8
LOT-BOUNDARY
10
2200.0000
20
-800.0000
30
0.0
11
2298.0028
21
-798.8121
31
0.0
0
LINE
8
LOT-BOUNDARY
10
2298.0028
20
-798.8121
30
0.0
11
2299.2166
21
-898.8031
31
0.0
0
LINE
8
LOT-BOUNDARY
10
2299.2166
20
-898.8031
30
0.0
11
2201.7937
21
-899.9839
31
0.0
0
TEXT
8
LOT-TEXT
7
STANDARD
10
2234.7533
20
-849.3998
30
0.0
40
4.5
1
L13
50
0.0
0
TEXT
8
LOT-TEXT
7
STANDARD
10
2234.7533
20
-857.3998
30
0.0
40
3.0
1
9,772sf
50
0.0
0
LINE
8
LOT-BOUNDARY
10
2299.2166
20
-898.8031
30
0.0
11
2298.0028
21
-798.8121
31
0.0
0
LINE
8
LOT-BOUNDARY
10
2298.0028
20
-798.8121
30
0.0
11
2372.9973
21
-797.9031
31
0.0
0
LINE
8
LOT-BOUNDARY
10
2372.9973
20
-797.9031
30
0.0
11
2374.2110
21
-897.8941
31
0.0
0
LINE
8
LOT-BOUNDARY
10
2374.2110
20
-897.8941
30
0.0
11
2299.2166
21
-898.8031
31
0.0
0
TEXT
8
LOT-TEXT
7
STANDARD
10
2321.1069
20
-848.3531
30
0.0
40
4.5
1
L12
50
0.0
0
TEXT
8
LOT-TEXT
7
STANDARD
10
2321.1069
20
-856.3531
30
0.0
40
3.0
1
7,500sf
50
0.0
0
LINE
8
LOT-BOUNDARY
10
2374.2110
20
-897.8941
30
0.0
11
2372.9973
21
-797.9031
31
0.0
0
LINE
8
LOT-BOUNDARY
10
2372.9973
20
-797.9031
30
0.0
11
2447.9918
21
-796.9941
31
0.0
0
LINE
8
LOT-BOUNDARY
10
2447.9918
20
-796.9941
30
0.0
11
2449.2055
21
-896.9850
31
0.0
0
LINE
8
LOT-BOUNDARY
10
2449.2055
20
-896.9850
30
0.0
11
2374.2110
21
-897.8941
31
0.0
0
TEXT
8
LOT-TEXT
7
STANDARD
10
2396.1014
20
-847.4441
30
0.0
40
4.5
1
L11
50
0.0
0
TEXT
8
LOT-TEXT
7
STANDARD
10
2396.1014
20
-855.4441
30
0.0
40
3.0
1
7,500sf
50
0.0
0
LINE
8
LOT-BOUNDARY
10
2449.2055
20
-896.9850
30
0.0
11
2447.9918
21
-796.9941
31
0.0
0
LINE
8
LOT-BOUNDARY
10
2447.9918
20
-796.9941
30
0.0
11
2522.9863
21
-796.0851
31
0.0
0
LINE
8
LOT-BOUNDARY
10
2522.9863
20
-796.0851
30
0.0
11
2524.2000
21
-896.0760
31
0.0
0
LINE
8
LOT-BOUNDARY
10
2524.2000
20
-896.0760
30
0.0
11
2449.2055
21
-896.9850
31
0.0
0
TEXT
8
LOT-TEXT
7
STANDARD
10
2471.0959
20
-846.5351
30
0.0
40
4.5
1
L10
50
0.0
0
TEXT
8
LOT-TEXT
7
STANDARD
10
2471.0959
20
-854.5351
30
0.0
40
3.0
1
7,500sf
50
0.0
0
LINE
8
LOT-BOUNDARY
10
2524.2000
20
-896.0760
30
0.0
11
2522.9863
21
-796.0851
31
0.0
0
LINE
8
LOT-BOUNDARY
10
2522.9863
20
-796.0851
30
0.0
11
2597.9808
21
-795.1761
31
0.0
0
LINE
8
LOT-BOUNDARY
10
2597.9808
20
-795.1761
30
0.0
11
2599.1945
21
-895.1670
31
0.0
0
LINE
8
LOT-BOUNDARY
10
2599.1945
20
-895.1670
30
0.0
11
2524.2000
21
-896.0760
31
0.0
0
TEXT
8
LOT-TEXT
7
STANDARD
10
2546.0904
20
-845.6261
30
0.0
40
4.5
1
L9
50
0.0
0
TEXT
8
LOT-TEXT
7
STANDARD
10
2546.0904
20
-853.6261
30
0.0
40
3.0
1
7,500sf
50
0.0
0
TEXT
8
BLOCK-TITLE
7
STANDARD
10
2200.0000
20
-1170.0000
30
0.0
40
8.0
1
BLOCK_9 (9 LOTS)
50
0.0
0
LINE
8
BLOCK-BORDER
10
1908.8182
20
-1215.0000
30
0.0
11
1908.8182
21
-802.7971
31
0.0
0
LINE
8
BLOCK-BORDER
10
1908.8182
20
-802.7971
30
0.0
11
2330.5874
21
-802.7971
31
0.0
0
LINE
8
BLOCK-BORDER
10
2330.5874
20
-802.7971
30
0.0
11
2330.5874
21
-1215.0000
31
0.0
0
LINE
8
BLOCK-BORDER
10
2330.5874
20
-1215.0000
30
0.0
11
1908.8182
21
-1215.0000
31
0.0
0
LINE
8
LOT-BOUNDARY
10
1926.3294
20
-988.2230
30
0.0
11
1924.2666
21
-873.2415
31
0.0
0
LINE
8
LOT-CURVE
10
1924.2666
20
-873.2415
30
0.0
11
1924.3430
21
-870.7893
31
0.0
0
LINE
8
LOT-CURVE
10
1924.3430
20
-870.7893
30
0.0
11
1924.6594
21
-868.3564
31
0.0
0
LINE
8
LOT-CURVE
10
1924.6594
20
-868.3564
30
0.0
11
1925.2127
21
-865.9662
31
0.0
0
LINE
8
LOT-CURVE
10
1925.2127
20
-865.9662
30
0.0
11
1925.9977
21
-863.6418
31
0.0
0
LINE
8
LOT-CURVE
10
1925.9977
20
-863.6418
30
0.0
11
1927.0067
21
-861.4055
31
0.0
0
LINE
8
LOT-CURVE
10
1927.0067
20
-861.4055
30
0.0
11
1928.2300
21
-859.2789
31
0.0
0
LINE
8
LOT-CURVE
10
1928.2300
20
-859.2789
30
0.0
11
1929.6559
21
-857.2824
31
0.0
0
LINE
8
LOT-CURVE
10
1929.6559
20
-857.2824
30
0.0
11
1931.2707
21
-855.4353
31
0.0
0
LINE
8
LOT-CURVE
10
1931.2707
20
-855.4353
30
0.0
11
1933.0587
21
-853.7554
31
0.0
0
LINE
8
LOT-CURVE
10
1933.0587
20
-853.7554
30
0.0
11
1935.0027
21
-852.2588
31
0.0
0
LINE
8
LOT-CURVE
10
1935.0027
20
-852.2588
30
0.0
11
1937.0841
21
-850.9600
31
0.0
0
LINE
8
LOT-CURVE
10
1937.0841
20
-850.9600
30
0.0
11
1939.2827
21
-849.8714
31
0.0
0
LINE
8
LOT-CURVE
10
1939.2827
20
-849.8714
30
0.0
11
1941.5775
21
-849.0036
31
0.0
0
LINE
8
LOT-CURVE
10
1941.5775
20
-849.0036
30
0.0
11
1943.9463
21
-848.3648
31
0.0
0
LINE
8
LOT-CURVE
10
1943.9463
20
-848.3648
30
0.0
11
1946.3663
21
-847.9614
31
0.0
0
LINE
8
LOT-CURVE
10
1946.3663
20
-847.9614
30
0.0
11
1948.8141
21
-847.7971
31
0.0
0
TEXT
8
LOT-DIM
7
STANDARD
10
1932.7707
20
-853.9353
30
0.0
40
2.2
1
R=25.0' L=39.3' D=90%%d00'00"
50
0.0
0
LINE
8
LOT-BOUNDARY
10
1948.8141
20
-847.7971
30
0.0
11
2020.8134
21
-855.3288
31
0.0
0
LINE
8
LOT-BOUNDARY
10
2020.8134
20
-855.3288
30
0.0
11
2014.6057
21
-970.6931
31
0.0
0
LINE
8
LOT-BOUNDARY
10
2014.6057
20
-970.6931
30
0.0
11
1926.3294
21
-988.2230
31
0.0
0
TEXT
8
LOT-TEXT
7
STANDARD
10
1951.9658
20
-907.0567
30
0.0
40
4.5
1
L27
50
0.0
0
TEXT
8
LOT-TEXT
7
STANDARD
10
1951.9658
20
-915.0567
30
0.0
40
3.0
1
11,793sf
50
0.0
0
LINE
8
LOT-BOUNDARY
10
2014.6057
20
-970.6931
30
0.0
11
2020.8134
21
-855.3288
31
0.0
0
LINE
8
LOT-BOUNDARY
10
2020.8134
20
-855.3288
30
0.0
11
2120.1061
21
-898.4453
31
0.0
0
LINE
8
LOT-BOUNDARY
10
2120.1061
20
-898.4453
30
0.0
11
2074.6856
21
-1001.0417
31
0.0
0
LINE
8
LOT-BOUNDARY
10
2074.6856
20
-1001.0417
30
0.0
11
2014.6057
21
-970.6931
31
0.0
0
TEXT
8
LOT-TEXT
7
STANDARD
10
2042.5527
20
-931.3772
30
0.0
40
4.5
1
L28
50
0.0
0
TEXT
8
LOT-TEXT
7
STANDARD
10
2042.5527
20
-939.3772
30
0.0
40
3.0
1
9,632sf
50
0.0
0
LINE
8
LOT-BOUNDARY
10
2074.6856
20
-1001.0417
30
0.0
11
2120.1061
21
-898.4453
31
0.0
0
LINE
8
LOT-BOUNDARY
10
2120.1061
20
-898.4453
30
0.0
11
2125.7913
21
-902.3729
31
0.0
0
LINE
8
LOT-BOUNDARY
10
2125.7913
20
-902.3729
30
0.0
11
2193.1751
21
-950.0932
31
0.0
0
LINE
8
LOT-BOUNDARY
10
2193.1751
20
-950.0932
30
0.0
11
2135.3814
21
-1031.7013
31
0.0
0
LINE
8
LOT-BOUNDARY
10
2135.3814
20
-1031.7013
30
0.0
11
2074.6856
21
-1001.0417
31
0.0
0
TEXT
8
LOT-TEXT
7
STANDARD
10
2114.8279
20
-956.7309
30
0.0
40
4.5
1
L29
50
0.0
0
TEXT
8
LOT-TEXT
7
STANDARD
10
2114.8279
20
-964.7309
30
0.0
40
3.0
1
8,287sf
50
0.0
0
LINE
8
LOT-BOUNDARY
10
2135.3814
20
-1031.7013
30
0.0
11
2193.1751
21
-950.0932
31
0.0
0
LINE
8
LOT-BOUNDARY
10
2193.1751
20
-950.0932
30
0.0
11
2254.3812
21
-993.4384
31
0.0
0
LINE
8
LOT-BOUNDARY
10
2254.3812
20
-993.4384
30
0.0
11
2196.5876
21
-1075.0466
31
0.0
0
LINE
8
LOT-BOUNDARY
10
2196.5876
20
-1075.0466
30
0.0
11
2135.3814
21
-1031.7013
31
0.0
0
TEXT
8
LOT-TEXT
7
STANDARD
10
2179.8813
20
-1012.5699
30
0.0
40
4.5
1
L30
50
0.0
0
TEXT
8
LOT-TEXT
7
STANDARD
10
2179.8813
20
-1020.5699
30
0.0
40
3.0
1
7,500sf
50
0.0
0
LINE
8
LOT-BOUNDARY
10
2196.5876
20
-1075.0466
30
0.0
11
2254.3812
21
-993.4384
31
0.0
0
LINE
8
LOT-BOUNDARY
10
2254.3812
20
-993.4384
30
0.0
11
2315.5874
21
-1036.7837
31
0.0
0
LINE
8
LOT-BOUNDARY
10
2315.5874
20
-1036.7837
30
0.0
11
2257.7937
21
-1118.3918
31
0.0
0
LINE
8
LOT-BOUNDARY
10
2257.7937
20
-1118.3918
30
0.0
11
2196.5876
21
-1075.0466
31
0.0
0
TEXT
8
LOT-TEXT
7
STANDARD
10
2241.0875
20
-1055.9151
30
0.0
40
4.5
1
L31
50
0.0
0
TEXT
8
LOT-TEXT
7
STANDARD
10
2241.0875
20
-1063.9151
30
0.0
40
3.0
1
7,500sf
50
0.0
0
LINE
8
LOT-BOUNDARY
10
1926.3294
20
-988.2230
30
0.0
11
2014.6057
21
-970.6931
31
0.0
0
LINE
8
LOT-BOUNDARY
10
2014.6057
20
-970.6931
30
0.0
11
2041.3832
21
-984.2194
31
0.0
0
LINE
8
LOT-BOUNDARY
10
2041.3832
20
-984.2194
30
0.0
11
2020.8933
21
-1103.2183
31
0.0
0
LINE
8
LOT-BOUNDARY
10
2020.8933
20
-1103.2183
30
0.0
11
1953.2928
21
-1096.7422
31
0.0
0
LINE
8
LOT-CURVE
10
1953.2928
20
-1096.7422
30
0.0
11
1950.9990
21
-1096.6926
31
0.0
0
LINE
8
LOT-CURVE
10
1950.9990
20
-1096.6926
30
0.0
11
1948.7194
21
-1096.4329
31
0.0
0
LINE
8
LOT-CURVE
10
1948.7194
20
-1096.4329
30
0.0
11
1946.4731
21
-1095.9654
31
0.0
0
LINE
8
LOT-CURVE
10
1946.4731
20
-1095.9654
30
0.0
11
1944.2792
21
-1095.2938
31
0.0
0
LINE
8
LOT-CURVE
10
1944.2792
20
-1095.2938
30
0.0
11
1942.1561
21
-1094.4240
31
0.0
0
LINE
8
LOT-CURVE
10
1942.1561
20
-1094.4240
30
0.0
11
1940.1217
21
-1093.3632
31
0.0
0
LINE
8
LOT-CURVE
10
1940.1217
20
-1093.3632
30
0.0
11
1938.1932
21
-1092.1204
31
0.0
0
LINE
8
LOT-CURVE
10
1938.1932
20
-1092.1204
30
0.0
11
1936.3866
21
-1090.7060
31
0.0
0
LINE
8
LOT-CURVE
10
1936.3866
20
-1090.7060
30
0.0
11
1934.7174
21
-1089.1319
31
0.0
0
LINE
8
LOT-CURVE
10
1934.7174
20
-1089.1319
30
0.0
11
1933.1995
21
-1087.4114
31
0.0
0
LINE
8
LOT-CURVE
10
1933.1995
20
-1087.4114
30
0.0
11
1931.8457
21
-1085.5590
31
0.0
0
LINE
8
LOT-CURVE
10
1931.8457
20
-1085.5590
30
0.0
11
1930.6674
21
-1083.5903
31
0.0
0
LINE
8
LOT-CURVE
10
1930.6674
20
-1083.5903
30
0.0
11
1929.6746
21
-1081.5218
31
0.0
0
LINE
8
LOT-CURVE
10
1929.6746
20
-1081.5218
30
0.0
11
1928.8756
21
-1079.3711
31
0.0
0
LINE
8
LOT-CURVE
10
1928.8756
20
-1079.3711
30
0.0
11
1928.2772
21
-1077.1562
31
0.0
0
LINE
8
LOT-CURVE
10
1928.2772
20
-1077.1562
30
0.0
11
1927.8843
21
-1074.8957
31
0.0
0
TEXT
8
LOT-DIM
7
STANDARD
10
1937.8866
20
-1089.2060
30
0.0
40
2.2
1
R=25.0' L=36.7' D=84%%d09'44"
50
0.0
0
LINE
8
LOT-BOUNDARY
10
1927.8843
20
-1074.8957
30
0.0
11
1926.3294
21
-988.2230
31
0.0
0
TEXT
8
LOT-TEXT
7
STANDARD
10
1965.7314
20
-1036.3319
30
0.0
40
4.5
1
L26
50
0.0
0
TEXT
8
LOT-TEXT
7
STANDARD
10
1965.7314
20
-1044.3319
30
0.0
40
3.0
1
12,449sf
50
0.0
0
LINE
8
LOT-BOUNDARY
10
2020.8933
20
-1103.2183
30
0.0
11
2041.3832
21
-984.2194
31
0.0
0
LINE
8
LOT-BOUNDARY
10
2041.3832
20
-984.2194
30
0.0
11
2114.8520
21
-1021.3311
31
0.0
0
LINE
8
LOT-BOUNDARY
10
2114.8520
20
-1021.3311
30
0.0
11
2083.7243
21
-1124.0044
31
0.0
0
LINE
8
LOT-BOUNDARY
10
2083.7243
20
-1124.0044
30
0.0
11
2020.8933
21
-1103.2183
31
0.0
0
TEXT
8
LOT-TEXT
7
STANDARD
10
2050.2132
20
-1058.1933
30
0.0
40
4.5
1
L25
50
0.0
0
TEXT
8
LOT-TEXT
7
STANDARD
10
2050.2132
20
-1066.1933
30
0.0
40
3.0
1
8,301sf
50
0.0
0
LINE
8
LOT-BOUNDARY
10
2083.7243
20
-1124.0044
30
0.0
11
2114.8520
21
-1021.3311
31
0.0
0
LINE
8
LOT-BOUNDARY
10
2114.8520
20
-1021.3311
30
0.0
11
2135.3814
21
-1031.7013
31
0.0
0
LINE
8
LOT-BOUNDARY
10
2135.3814
20
-1031.7013
30
0.0
11
2196.5876
21
-1075.0466
31
0.0
0
LINE
8
LOT-BOUNDARY
10
2196.5876
20
-1075.0466
30
0.0
11
2138.8090
21
-1156.6636
31
0.0
0
LINE
8
LOT-BOUNDARY
10
2138.8090
20
-1156.6636
30
0.0
11
2132.0274
21
-1151.8610
31
0.0
0
LINE
8
LOT-BOUNDARY
10
2132.0274
20
-1151.8610
30
0.0
11
2083.7243
21
-1124.0044
31
0.0
0
TEXT
8
LOT-TEXT
7
STANDARD
10
2118.5636
20
-1093.4347
30
0.0
40
4.5
1
L24
50
0.0
0
TEXT
8
LOT-TEXT
7
STANDARD
10
2118.5636
20
-1101.4347
30
0.0
40
3.0
1
8,330sf
50
0.0
0
LINE
8
LOT-BOUNDARY
10
2138.8090
20
-1156.6636
30
0.0
11
2196.5876
21
-1075.0466
31
0.0
0
LINE
8
LOT-BOUNDARY
10
2196.5876
20
-1075.0466
30
0.0
11
2257.7937
21
-1118.3918
31
0.0
0
LINE
8
LOT-BOUNDARY
10
2257.7937
20
-1118.3918
30
0.0
11
2200.0000
21
-1200.0000
31
0.0
0
LINE
8
LOT-BOUNDARY
10
2200.0000
20
-1200.0000
30
0.0
11
2138.8090
21
-1156.6636
31
0.0
0
TEXT
8
LOT-TEXT
7
STANDARD
10
2183.2976
20
-1137.5255
30
0.0
40
4.5
1
L23
50
0.0
0
TEXT
8
LOT-TEXT
7
STANDARD
10
2183.2976
20
-1145.5255
30
0.0
40
3.0
1
7,499sf
50
0.0
0
ENDSEC
0
EOF
