0
SECTION
2
HEADER
0
ENDSEC
0
SECTION
2
TABLES
0
TABLE
2
LTYPE
70
2
0
LTYPE
2
CONTINUOUS
70
0
3
Solid
72
65
73
0
40
0.0
0
LTYPE
2
DASHED
70
0
3
Dashed
72
65
73
2
40
0.75
49
0.5
74
0
49
-0.25
74
0
0
ENDTAB
0
TABLE
2
LAYER
70
10
0
LAYER
2
0
70
0
62
7
6
CONTINUOUS
0
LAYER
2
BOUNDARY
70
0
62
7
6
CONTINUOUS
0
LAYER
2
LOT_LINE
70
0
62
4
6
CONTINUOUS
0
LAYER
2
ROW_STREET
70
0
62
2
6
DASHED
0
LAYER
2
EASEMENT
70
0
62
3
6
DASHED
0
LAYER
2
TEXT-LABELS
70
0
62
7
6
CONTINUOUS
0
LAYER
2
DIM-LABELS
70
0
62
3
6
CONTINUOUS
0
LAYER
2
TITLEBLOCK
70
0
62
2
6
CONTINUOUS
0
LAYER
2
UNRESOLVED
70
0
62
1
6
DASHED
0
LAYER
2
CONTROL
70
0
62
1
6
CONTINUOUS
0
ENDTAB
0
ENDSEC
0
SECTION
2
ENTITIES
0
POLYLINE
8
LOT_LINE
66
1
70
1
0
VERTEX
8
LOT_LINE
10
52.0569
20
-47.8548
30
0.0
0
VERTEX
8
LOT_LINE
10
155.4655
20
-43.5056
30
0.0
0
VERTEX
8
LOT_LINE
10
159.6676
20
-143.4173
30
0.0
0
VERTEX
8
LOT_LINE
10
56.2590
20
-147.7665
30
0.0
0
SEQEND
0
TEXT
8
TEXT-LABELS
10
105.8622
20
-95.6360
30
0.0
40
9
1
1
50
0.0
0
POLYLINE
8
LOT_LINE
66
1
70
1
0
VERTEX
8
LOT_LINE
10
155.4655
20
-43.5056
30
0.0
0
VERTEX
8
LOT_LINE
10
230.3992
20
-40.3540
30
0.0
0
VERTEX
8
LOT_LINE
10
234.6013
20
-140.2657
30
0.0
0
VERTEX
8
LOT_LINE
10
159.6676
20
-143.4173
30
0.0
0
SEQEND
0
TEXT
8
TEXT-LABELS
10
195.0334
20
-91.8857
30
0.0
40
9
1
2
50
0.0
0
POLYLINE
8
LOT_LINE
66
1
70
1
0
VERTEX
8
LOT_LINE
10
230.3992
20
-40.3540
30
0.0
0
VERTEX
8
LOT_LINE
10
305.3330
20
-37.2025
30
0.0
0
VERTEX
8
LOT_LINE
10
309.5351
20
-137.1141
30
0.0
0
VERTEX
8
LOT_LINE
10
234.6013
20
-140.2657
30
0.0
0
SEQEND
0
TEXT
8
TEXT-LABELS
10
269.9671
20
-88.7341
30
0.0
40
9
1
3
50
0.0
0
POLYLINE
8
LOT_LINE
66
1
70
1
0
VERTEX
8
LOT_LINE
10
305.3330
20
-37.2025
30
0.0
0
VERTEX
8
LOT_LINE
10
380.2667
20
-34.0509
30
0.0
0
VERTEX
8
LOT_LINE
10
384.4688
20
-133.9626
30
0.0
0
VERTEX
8
LOT_LINE
10
309.5351
20
-137.1141
30
0.0
0
SEQEND
0
TEXT
8
TEXT-LABELS
10
344.9009
20
-85.5825
30
0.0
40
9
1
4
50
0.0
0
POLYLINE
8
LOT_LINE
66
1
70
1
0
VERTEX
8
LOT_LINE
10
380.2667
20
-34.0509
30
0.0
0
VERTEX
8
LOT_LINE
10
455.2005
20
-30.8993
30
0.0
0
VERTEX
8
LOT_LINE
10
459.4026
20
-130.8110
30
0.0
0
VERTEX
8
LOT_LINE
10
384.4688
20
-133.9626
30
0.0
0
SEQEND
0
TEXT
8
TEXT-LABELS
10
419.8347
20
-82.4309
30
0.0
40
9
1
5
50
0.0
0
POLYLINE
8
LOT_LINE
66
1
70
1
0
VERTEX
8
LOT_LINE
10
455.2005
20
-30.8993
30
0.0
0
VERTEX
8
LOT_LINE
10
530.1342
20
-27.7478
30
0.0
0
VERTEX
8
LOT_LINE
10
534.3363
20
-127.6594
30
0.0
0
VERTEX
8
LOT_LINE
10
459.4026
20
-130.8110
30
0.0
0
SEQEND
0
TEXT
8
TEXT-LABELS
10
494.7684
20
-79.2794
30
0.0
40
9
1
6
50
0.0
0
POLYLINE
8
LOT_LINE
66
1
70
1
0
VERTEX
8
LOT_LINE
10
530.1342
20
-27.7478
30
0.0
0
VERTEX
8
LOT_LINE
10
605.0680
20
-24.5962
30
0.0
0
VERTEX
8
LOT_LINE
10
609.2701
20
-124.5079
30
0.0
0
VERTEX
8
LOT_LINE
10
534.3363
20
-127.6594
30
0.0
0
SEQEND
0
TEXT
8
TEXT-LABELS
10
569.7022
20
-76.1278
30
0.0
40
9
1
7
50
0.0
0
POLYLINE
8
LOT_LINE
66
1
70
1
0
VERTEX
8
LOT_LINE
10
605.0680
20
-24.5962
30
0.0
0
VERTEX
8
LOT_LINE
10
680.0017
20
-21.4446
30
0.0
0
VERTEX
8
LOT_LINE
10
684.2038
20
-121.3563
30
0.0
0
VERTEX
8
LOT_LINE
10
609.2701
20
-124.5079
30
0.0
0
SEQEND
0
TEXT
8
TEXT-LABELS
10
644.6359
20
-72.9762
30
0.0
40
9
1
8
50
0.0
0
POLYLINE
8
LOT_LINE
66
1
70
1
0
VERTEX
8
LOT_LINE
10
680.0017
20
-21.4446
30
0.0
0
VERTEX
8
LOT_LINE
10
754.9355
20
-18.2930
30
0.0
0
VERTEX
8
LOT_LINE
10
759.1376
20
-118.2047
30
0.0
0
VERTEX
8
LOT_LINE
10
684.2038
20
-121.3563
30
0.0
0
SEQEND
0
TEXT
8
TEXT-LABELS
10
719.5697
20
-69.8247
30
0.0
40
9
1
9
50
0.0
0
POLYLINE
8
LOT_LINE
66
1
70
1
0
VERTEX
8
LOT_LINE
10
754.9355
20
-18.2930
30
0.0
0
VERTEX
8
LOT_LINE
10
829.8693
20
-15.1415
30
0.0
0
VERTEX
8
LOT_LINE
10
834.0714
20
-115.0531
30
0.0
0
VERTEX
8
LOT_LINE
10
759.1376
20
-118.2047
30
0.0
0
SEQEND
0
TEXT
8
TEXT-LABELS
10
794.5034
20
-66.6731
30
0.0
40
9
1
10
50
0.0
0
POLYLINE
8
LOT_LINE
66
1
70
1
0
VERTEX
8
LOT_LINE
10
829.8693
20
-15.1415
30
0.0
0
VERTEX
8
LOT_LINE
10
904.8030
20
-11.9899
30
0.0
0
VERTEX
8
LOT_LINE
10
909.0051
20
-111.9016
30
0.0
0
VERTEX
8
LOT_LINE
10
834.0714
20
-115.0531
30
0.0
0
SEQEND
0
TEXT
8
TEXT-LABELS
10
869.4372
20
-63.5215
30
0.0
40
9
1
11
50
0.0
0
POLYLINE
8
LOT_LINE
66
1
70
1
0
VERTEX
8
LOT_LINE
10
904.8030
20
-11.9899
30
0.0
0
VERTEX
8
LOT_LINE
10
979.7368
20
-8.8383
30
0.0
0
VERTEX
8
LOT_LINE
10
983.9389
20
-108.7500
30
0.0
0
VERTEX
8
LOT_LINE
10
909.0051
20
-111.9016
30
0.0
0
SEQEND
0
TEXT
8
TEXT-LABELS
10
944.3709
20
-60.3699
30
0.0
40
9
1
12
50
0.0
0
POLYLINE
8
LOT_LINE
66
1
70
1
0
VERTEX
8
LOT_LINE
10
979.7368
20
-8.8383
30
0.0
0
VERTEX
8
LOT_LINE
10
1054.6705
20
-5.6867
30
0.0
0
VERTEX
8
LOT_LINE
10
1058.8726
20
-105.5984
30
0.0
0
VERTEX
8
LOT_LINE
10
983.9389
20
-108.7500
30
0.0
0
SEQEND
0
TEXT
8
TEXT-LABELS
10
1019.3047
20
-57.2184
30
0.0
40
9
1
13
50
0.0
0
POLYLINE
8
LOT_LINE
66
1
70
1
0
VERTEX
8
LOT_LINE
10
1054.6705
20
-5.6867
30
0.0
0
VERTEX
8
LOT_LINE
10
1129.6043
20
-2.5352
30
0.0
0
VERTEX
8
LOT_LINE
10
1133.8064
20
-102.4468
30
0.0
0
VERTEX
8
LOT_LINE
10
1058.8726
20
-105.5984
30
0.0
0
SEQEND
0
TEXT
8
TEXT-LABELS
10
1094.2384
20
-54.0668
30
0.0
40
9
1
14
50
0.0
0
POLYLINE
8
LOT_LINE
66
1
70
1
0
VERTEX
8
LOT_LINE
10
1129.6043
20
-2.5352
30
0.0
0
VERTEX
8
LOT_LINE
10
1204.5380
20
0.6164
30
0.0
0
VERTEX
8
LOT_LINE
10
1208.7401
20
-99.2953
30
0.0
0
VERTEX
8
LOT_LINE
10
1133.8064
20
-102.4468
30
0.0
0
SEQEND
0
TEXT
8
TEXT-LABELS
10
1169.1722
20
-50.9152
30
0.0
40
9
1
15
50
0.0
0
POLYLINE
8
LOT_LINE
66
1
70
1
0
VERTEX
8
LOT_LINE
10
1204.5380
20
0.6164
30
0.0
0
VERTEX
8
LOT_LINE
10
1279.4718
20
3.7680
30
0.0
0
VERTEX
8
LOT_LINE
10
1283.6739
20
-96.1437
30
0.0
0
VERTEX
8
LOT_LINE
10
1208.7401
20
-99.2953
30
0.0
0
SEQEND
0
TEXT
8
TEXT-LABELS
10
1244.1060
20
-47.7636
30
0.0
40
9
1
16
50
0.0
0
POLYLINE
8
LOT_LINE
66
1
70
1
0
VERTEX
8
LOT_LINE
10
1279.4718
20
3.7680
30
0.0
0
VERTEX
8
LOT_LINE
10
1354.4055
20
6.9195
30
0.0
0
VERTEX
8
LOT_LINE
10
1358.6076
20
-92.9921
30
0.0
0
VERTEX
8
LOT_LINE
10
1283.6739
20
-96.1437
30
0.0
0
SEQEND
0
TEXT
8
TEXT-LABELS
10
1319.0397
20
-44.6121
30
0.0
40
9
1
17
50
0.0
0
POLYLINE
8
LOT_LINE
66
1
70
1
0
VERTEX
8
LOT_LINE
10
1354.4055
20
6.9195
30
0.0
0
VERTEX
8
LOT_LINE
10
1429.3393
20
10.0711
30
0.0
0
VERTEX
8
LOT_LINE
10
1433.5414
20
-89.8406
30
0.0
0
VERTEX
8
LOT_LINE
10
1358.6076
20
-92.9921
30
0.0
0
SEQEND
0
TEXT
8
TEXT-LABELS
10
1393.9735
20
-41.4605
30
0.0
40
9
1
18
50
0.0
0
POLYLINE
8
LOT_LINE
66
1
70
1
0
VERTEX
8
LOT_LINE
10
1429.3393
20
10.0711
30
0.0
0
VERTEX
8
LOT_LINE
10
1504.2731
20
13.2227
30
0.0
0
VERTEX
8
LOT_LINE
10
1508.4751
20
-86.6890
30
0.0
0
VERTEX
8
LOT_LINE
10
1433.5414
20
-89.8406
30
0.0
0
SEQEND
0
TEXT
8
TEXT-LABELS
10
1468.9072
20
-38.3089
30
0.0
40
9
1
19
50
0.0
0
POLYLINE
8
LOT_LINE
66
1
70
1
0
VERTEX
8
LOT_LINE
10
218.6389
20
-200.9901
30
0.0
0
VERTEX
8
LOT_LINE
10
312.0563
20
-197.0611
30
0.0
0
VERTEX
8
LOT_LINE
10
316.2584
20
-296.9728
30
0.0
0
VERTEX
8
LOT_LINE
10
222.8410
20
-300.9018
30
0.0
0
SEQEND
0
TEXT
8
TEXT-LABELS
10
267.4487
20
-248.9815
30
0.0
40
9
1
1
50
0.0
0
POLYLINE
8
LOT_LINE
66
1
70
1
0
VERTEX
8
LOT_LINE
10
312.0563
20
-197.0611
30
0.0
0
VERTEX
8
LOT_LINE
10
386.9901
20
-193.9096
30
0.0
0
VERTEX
8
LOT_LINE
10
391.1922
20
-293.8212
30
0.0
0
VERTEX
8
LOT_LINE
10
316.2584
20
-296.9728
30
0.0
0
SEQEND
0
TEXT
8
TEXT-LABELS
10
351.6243
20
-245.4412
30
0.0
40
9
1
2
50
0.0
0
POLYLINE
8
LOT_LINE
66
1
70
1
0
VERTEX
8
LOT_LINE
10
386.9901
20
-193.9096
30
0.0
0
VERTEX
8
LOT_LINE
10
461.9238
20
-190.7580
30
0.0
0
VERTEX
8
LOT_LINE
10
466.1259
20
-290.6697
30
0.0
0
VERTEX
8
LOT_LINE
10
391.1922
20
-293.8212
30
0.0
0
SEQEND
0
TEXT
8
TEXT-LABELS
10
426.5580
20
-242.2896
30
0.0
40
9
1
3
50
0.0
0
POLYLINE
8
LOT_LINE
66
1
70
1
0
VERTEX
8
LOT_LINE
10
461.9238
20
-190.7580
30
0.0
0
VERTEX
8
LOT_LINE
10
536.8576
20
-187.6064
30
0.0
0
VERTEX
8
LOT_LINE
10
541.0597
20
-287.5181
30
0.0
0
VERTEX
8
LOT_LINE
10
466.1259
20
-290.6697
30
0.0
0
SEQEND
0
TEXT
8
TEXT-LABELS
10
501.4918
20
-239.1381
30
0.0
40
9
1
4
50
0.0
0
POLYLINE
8
LOT_LINE
66
1
70
1
0
VERTEX
8
LOT_LINE
10
536.8576
20
-187.6064
30
0.0
0
VERTEX
8
LOT_LINE
10
611.7913
20
-184.4549
30
0.0
0
VERTEX
8
LOT_LINE
10
615.9934
20
-284.3665
30
0.0
0
VERTEX
8
LOT_LINE
10
541.0597
20
-287.5181
30
0.0
0
SEQEND
0
TEXT
8
TEXT-LABELS
10
576.4255
20
-235.9865
30
0.0
40
9
1
5
50
0.0
0
POLYLINE
8
LOT_LINE
66
1
70
1
0
VERTEX
8
LOT_LINE
10
611.7913
20
-184.4549
30
0.0
0
VERTEX
8
LOT_LINE
10
686.7251
20
-181.3033
30
0.0
0
VERTEX
8
LOT_LINE
10
690.9272
20
-281.2150
30
0.0
0
VERTEX
8
LOT_LINE
10
615.9934
20
-284.3665
30
0.0
0
SEQEND
0
TEXT
8
TEXT-LABELS
10
651.3593
20
-232.8349
30
0.0
40
9
1
6
50
0.0
0
POLYLINE
8
LOT_LINE
66
1
70
1
0
VERTEX
8
LOT_LINE
10
686.7251
20
-181.3033
30
0.0
0
VERTEX
8
LOT_LINE
10
761.6589
20
-178.1517
30
0.0
0
VERTEX
8
LOT_LINE
10
765.8610
20
-278.0634
30
0.0
0
VERTEX
8
LOT_LINE
10
690.9272
20
-281.2150
30
0.0
0
SEQEND
0
TEXT
8
TEXT-LABELS
10
726.2930
20
-229.6833
30
0.0
40
9
1
7
50
0.0
0
POLYLINE
8
LOT_LINE
66
1
70
1
0
VERTEX
8
LOT_LINE
10
761.6589
20
-178.1517
30
0.0
0
VERTEX
8
LOT_LINE
10
836.5926
20
-175.0001
30
0.0
0
VERTEX
8
LOT_LINE
10
840.7947
20
-274.9118
30
0.0
0
VERTEX
8
LOT_LINE
10
765.8610
20
-278.0634
30
0.0
0
SEQEND
0
TEXT
8
TEXT-LABELS
10
801.2268
20
-226.5318
30
0.0
40
9
1
8
50
0.0
0
POLYLINE
8
LOT_LINE
66
1
70
1
0
VERTEX
8
LOT_LINE
10
836.5926
20
-175.0001
30
0.0
0
VERTEX
8
LOT_LINE
10
911.5264
20
-171.8486
30
0.0
0
VERTEX
8
LOT_LINE
10
915.7285
20
-271.7602
30
0.0
0
VERTEX
8
LOT_LINE
10
840.7947
20
-274.9118
30
0.0
0
SEQEND
0
TEXT
8
TEXT-LABELS
10
876.1605
20
-223.3802
30
0.0
40
9
1
9
50
0.0
0
POLYLINE
8
LOT_LINE
66
1
70
1
0
VERTEX
8
LOT_LINE
10
911.5264
20
-171.8486
30
0.0
0
VERTEX
8
LOT_LINE
10
986.4601
20
-168.6970
30
0.0
0
VERTEX
8
LOT_LINE
10
990.6622
20
-268.6087
30
0.0
0
VERTEX
8
LOT_LINE
10
915.7285
20
-271.7602
30
0.0
0
SEQEND
0
TEXT
8
TEXT-LABELS
10
951.0943
20
-220.2286
30
0.0
40
9
1
10
50
0.0
0
POLYLINE
8
LOT_LINE
66
1
70
1
0
VERTEX
8
LOT_LINE
10
986.4601
20
-168.6970
30
0.0
0
VERTEX
8
LOT_LINE
10
1061.3939
20
-165.5454
30
0.0
0
VERTEX
8
LOT_LINE
10
1065.5960
20
-265.4571
30
0.0
0
VERTEX
8
LOT_LINE
10
990.6622
20
-268.6087
30
0.0
0
SEQEND
0
TEXT
8
TEXT-LABELS
10
1026.0280
20
-217.0770
30
0.0
40
9
1
11
50
0.0
0
POLYLINE
8
LOT_LINE
66
1
70
1
0
VERTEX
8
LOT_LINE
10
1061.3939
20
-165.5454
30
0.0
0
VERTEX
8
LOT_LINE
10
1136.3276
20
-162.3938
30
0.0
0
VERTEX
8
LOT_LINE
10
1140.5297
20
-262.3055
30
0.0
0
VERTEX
8
LOT_LINE
10
1065.5960
20
-265.4571
30
0.0
0
SEQEND
0
TEXT
8
TEXT-LABELS
10
1100.9618
20
-213.9255
30
0.0
40
9
1
12
50
0.0
0
POLYLINE
8
LOT_LINE
66
1
70
1
0
VERTEX
8
LOT_LINE
10
1136.3276
20
-162.3938
30
0.0
0
VERTEX
8
LOT_LINE
10
1211.2614
20
-159.2423
30
0.0
0
VERTEX
8
LOT_LINE
10
1215.4635
20
-259.1539
30
0.0
0
VERTEX
8
LOT_LINE
10
1140.5297
20
-262.3055
30
0.0
0
SEQEND
0
TEXT
8
TEXT-LABELS
10
1175.8956
20
-210.7739
30
0.0
40
9
1
13
50
0.0
0
POLYLINE
8
LOT_LINE
66
1
70
1
0
VERTEX
8
LOT_LINE
10
1211.2614
20
-159.2423
30
0.0
0
VERTEX
8
LOT_LINE
10
1286.1951
20
-156.0907
30
0.0
0
VERTEX
8
LOT_LINE
10
1290.3972
20
-256.0024
30
0.0
0
VERTEX
8
LOT_LINE
10
1215.4635
20
-259.1539
30
0.0
0
SEQEND
0
TEXT
8
TEXT-LABELS
10
1250.8293
20
-207.6223
30
0.0
40
9
1
14
50
0.0
0
POLYLINE
8
LOT_LINE
66
1
70
1
0
VERTEX
8
LOT_LINE
10
1286.1951
20
-156.0907
30
0.0
0
VERTEX
8
LOT_LINE
10
1361.1289
20
-152.9391
30
0.0
0
VERTEX
8
LOT_LINE
10
1365.3310
20
-252.8508
30
0.0
0
VERTEX
8
LOT_LINE
10
1290.3972
20
-256.0024
30
0.0
0
SEQEND
0
TEXT
8
TEXT-LABELS
10
1325.7631
20
-204.4708
30
0.0
40
9
1
15
50
0.0
0
POLYLINE
8
LOT_LINE
66
1
70
1
0
VERTEX
8
LOT_LINE
10
1361.1289
20
-152.9391
30
0.0
0
VERTEX
8
LOT_LINE
10
1436.0627
20
-149.7876
30
0.0
0
VERTEX
8
LOT_LINE
10
1440.2647
20
-249.6992
30
0.0
0
VERTEX
8
LOT_LINE
10
1365.3310
20
-252.8508
30
0.0
0
SEQEND
0
TEXT
8
TEXT-LABELS
10
1400.6968
20
-201.3192
30
0.0
40
9
1
16
50
0.0
0
POLYLINE
8
LOT_LINE
66
1
70
1
0
VERTEX
8
LOT_LINE
10
1436.0627
20
-149.7876
30
0.0
0
VERTEX
8
LOT_LINE
10
1510.9964
20
-146.6360
30
0.0
0
VERTEX
8
LOT_LINE
10
1515.1985
20
-246.5477
30
0.0
0
VERTEX
8
LOT_LINE
10
1440.2647
20
-249.6992
30
0.0
0
SEQEND
0
TEXT
8
TEXT-LABELS
10
1475.6306
20
-198.1676
30
0.0
40
9
1
17
50
0.0
0
POLYLINE
8
LOT_LINE
66
1
70
1
0
VERTEX
8
LOT_LINE
10
222.8410
20
-300.9018
30
0.0
0
VERTEX
8
LOT_LINE
10
316.2584
20
-296.9728
30
0.0
0
VERTEX
8
LOT_LINE
10
320.4605
20
-396.8845
30
0.0
0
VERTEX
8
LOT_LINE
10
227.0431
20
-400.8135
30
0.0
0
SEQEND
0
TEXT
8
TEXT-LABELS
10
271.6508
20
-348.8931
30
0.0
40
9
1
34
50
0.0
0
POLYLINE
8
LOT_LINE
66
1
70
1
0
VERTEX
8
LOT_LINE
10
316.2584
20
-296.9728
30
0.0
0
VERTEX
8
LOT_LINE
10
391.1922
20
-293.8212
30
0.0
0
VERTEX
8
LOT_LINE
10
395.3943
20
-393.7329
30
0.0
0
VERTEX
8
LOT_LINE
10
320.4605
20
-396.8845
30
0.0
0
SEQEND
0
TEXT
8
TEXT-LABELS
10
355.8264
20
-345.3529
30
0.0
40
9
1
33
50
0.0
0
POLYLINE
8
LOT_LINE
66
1
70
1
0
VERTEX
8
LOT_LINE
10
391.1922
20
-293.8212
30
0.0
0
VERTEX
8
LOT_LINE
10
466.1259
20
-290.6697
30
0.0
0
VERTEX
8
LOT_LINE
10
470.3280
20
-390.5813
30
0.0
0
VERTEX
8
LOT_LINE
10
395.3943
20
-393.7329
30
0.0
0
SEQEND
0
TEXT
8
TEXT-LABELS
10
430.7601
20
-342.2013
30
0.0
40
9
1
32
50
0.0
0
POLYLINE
8
LOT_LINE
66
1
70
1
0
VERTEX
8
LOT_LINE
10
466.1259
20
-290.6697
30
0.0
0
VERTEX
8
LOT_LINE
10
541.0597
20
-287.5181
30
0.0
0
VERTEX
8
LOT_LINE
10
545.2618
20
-387.4298
30
0.0
0
VERTEX
8
LOT_LINE
10
470.3280
20
-390.5813
30
0.0
0
SEQEND
0
TEXT
8
TEXT-LABELS
10
505.6939
20
-339.0497
30
0.0
40
9
1
31
50
0.0
0
POLYLINE
8
LOT_LINE
66
1
70
1
0
VERTEX
8
LOT_LINE
10
541.0597
20
-287.5181
30
0.0
0
VERTEX
8
LOT_LINE
10
615.9934
20
-284.3665
30
0.0
0
VERTEX
8
LOT_LINE
10
620.1955
20
-384.2782
30
0.0
0
VERTEX
8
LOT_LINE
10
545.2618
20
-387.4298
30
0.0
0
SEQEND
0
TEXT
8
TEXT-LABELS
10
580.6276
20
-335.8982
30
0.0
40
9
1
30
50
0.0
0
POLYLINE
8
LOT_LINE
66
1
70
1
0
VERTEX
8
LOT_LINE
10
615.9934
20
-284.3665
30
0.0
0
VERTEX
8
LOT_LINE
10
690.9272
20
-281.2150
30
0.0
0
VERTEX
8
LOT_LINE
10
695.1293
20
-381.1266
30
0.0
0
VERTEX
8
LOT_LINE
10
620.1955
20
-384.2782
30
0.0
0
SEQEND
0
TEXT
8
TEXT-LABELS
10
655.5614
20
-332.7466
30
0.0
40
9
1
29
50
0.0
0
POLYLINE
8
LOT_LINE
66
1
70
1
0
VERTEX
8
LOT_LINE
10
690.9272
20
-281.2150
30
0.0
0
VERTEX
8
LOT_LINE
10
765.8610
20
-278.0634
30
0.0
0
VERTEX
8
LOT_LINE
10
770.0631
20
-377.9751
30
0.0
0
VERTEX
8
LOT_LINE
10
695.1293
20
-381.1266
30
0.0
0
SEQEND
0
TEXT
8
TEXT-LABELS
10
730.4951
20
-329.5950
30
0.0
40
9
1
28
50
0.0
0
POLYLINE
8
LOT_LINE
66
1
70
1
0
VERTEX
8
LOT_LINE
10
765.8610
20
-278.0634
30
0.0
0
VERTEX
8
LOT_LINE
10
840.7947
20
-274.9118
30
0.0
0
VERTEX
8
LOT_LINE
10
844.9968
20
-374.8235
30
0.0
0
VERTEX
8
LOT_LINE
10
770.0631
20
-377.9751
30
0.0
0
SEQEND
0
TEXT
8
TEXT-LABELS
10
805.4289
20
-326.4434
30
0.0
40
9
1
27
50
0.0
0
POLYLINE
8
LOT_LINE
66
1
70
1
0
VERTEX
8
LOT_LINE
10
840.7947
20
-274.9118
30
0.0
0
VERTEX
8
LOT_LINE
10
915.7285
20
-271.7602
30
0.0
0
VERTEX
8
LOT_LINE
10
919.9306
20
-371.6719
30
0.0
0
VERTEX
8
LOT_LINE
10
844.9968
20
-374.8235
30
0.0
0
SEQEND
0
TEXT
8
TEXT-LABELS
10
880.3626
20
-323.2919
30
0.0
40
9
1
26
50
0.0
0
POLYLINE
8
LOT_LINE
66
1
70
1
0
VERTEX
8
LOT_LINE
10
915.7285
20
-271.7602
30
0.0
0
VERTEX
8
LOT_LINE
10
990.6622
20
-268.6087
30
0.0
0
VERTEX
8
LOT_LINE
10
994.8643
20
-368.5203
30
0.0
0
VERTEX
8
LOT_LINE
10
919.9306
20
-371.6719
30
0.0
0
SEQEND
0
TEXT
8
TEXT-LABELS
10
955.2964
20
-320.1403
30
0.0
40
9
1
25
50
0.0
0
POLYLINE
8
LOT_LINE
66
1
70
1
0
VERTEX
8
LOT_LINE
10
990.6622
20
-268.6087
30
0.0
0
VERTEX
8
LOT_LINE
10
1065.5960
20
-265.4571
30
0.0
0
VERTEX
8
LOT_LINE
10
1069.7981
20
-365.3688
30
0.0
0
VERTEX
8
LOT_LINE
10
994.8643
20
-368.5203
30
0.0
0
SEQEND
0
TEXT
8
TEXT-LABELS
10
1030.2301
20
-316.9887
30
0.0
40
9
1
24
50
0.0
0
POLYLINE
8
LOT_LINE
66
1
70
1
0
VERTEX
8
LOT_LINE
10
1065.5960
20
-265.4571
30
0.0
0
VERTEX
8
LOT_LINE
10
1140.5297
20
-262.3055
30
0.0
0
VERTEX
8
LOT_LINE
10
1144.7318
20
-362.2172
30
0.0
0
VERTEX
8
LOT_LINE
10
1069.7981
20
-365.3688
30
0.0
0
SEQEND
0
TEXT
8
TEXT-LABELS
10
1105.1639
20
-313.8371
30
0.0
40
9
1
23
50
0.0
0
POLYLINE
8
LOT_LINE
66
1
70
1
0
VERTEX
8
LOT_LINE
10
1140.5297
20
-262.3055
30
0.0
0
VERTEX
8
LOT_LINE
10
1215.4635
20
-259.1539
30
0.0
0
VERTEX
8
LOT_LINE
10
1219.6656
20
-359.0656
30
0.0
0
VERTEX
8
LOT_LINE
10
1144.7318
20
-362.2172
30
0.0
0
SEQEND
0
TEXT
8
TEXT-LABELS
10
1180.0977
20
-310.6856
30
0.0
40
9
1
22
50
0.0
0
POLYLINE
8
LOT_LINE
66
1
70
1
0
VERTEX
8
LOT_LINE
10
1215.4635
20
-259.1539
30
0.0
0
VERTEX
8
LOT_LINE
10
1290.3972
20
-256.0024
30
0.0
0
VERTEX
8
LOT_LINE
10
1294.5993
20
-355.9140
30
0.0
0
VERTEX
8
LOT_LINE
10
1219.6656
20
-359.0656
30
0.0
0
SEQEND
0
TEXT
8
TEXT-LABELS
10
1255.0314
20
-307.5340
30
0.0
40
9
1
21
50
0.0
0
POLYLINE
8
LOT_LINE
66
1
70
1
0
VERTEX
8
LOT_LINE
10
1290.3972
20
-256.0024
30
0.0
0
VERTEX
8
LOT_LINE
10
1365.3310
20
-252.8508
30
0.0
0
VERTEX
8
LOT_LINE
10
1369.5331
20
-352.7625
30
0.0
0
VERTEX
8
LOT_LINE
10
1294.5993
20
-355.9140
30
0.0
0
SEQEND
0
TEXT
8
TEXT-LABELS
10
1329.9652
20
-304.3824
30
0.0
40
9
1
20
50
0.0
0
POLYLINE
8
LOT_LINE
66
1
70
1
0
VERTEX
8
LOT_LINE
10
1365.3310
20
-252.8508
30
0.0
0
VERTEX
8
LOT_LINE
10
1440.2647
20
-249.6992
30
0.0
0
VERTEX
8
LOT_LINE
10
1444.4668
20
-349.6109
30
0.0
0
VERTEX
8
LOT_LINE
10
1369.5331
20
-352.7625
30
0.0
0
SEQEND
0
TEXT
8
TEXT-LABELS
10
1404.8989
20
-301.2309
30
0.0
40
9
1
19
50
0.0
0
POLYLINE
8
LOT_LINE
66
1
70
1
0
VERTEX
8
LOT_LINE
10
1440.2647
20
-249.6992
30
0.0
0
VERTEX
8
LOT_LINE
10
1515.1985
20
-246.5477
30
0.0
0
VERTEX
8
LOT_LINE
10
1519.4006
20
-346.4593
30
0.0
0
VERTEX
8
LOT_LINE
10
1444.4668
20
-349.6109
30
0.0
0
SEQEND
0
TEXT
8
TEXT-LABELS
10
1479.8327
20
-298.0793
30
0.0
40
9
1
18
50
0.0
0
POLYLINE
8
LOT_LINE
66
1
70
1
0
VERTEX
8
LOT_LINE
10
229.5644
20
-460.7605
30
0.0
0
VERTEX
8
LOT_LINE
10
322.9818
20
-456.8315
30
0.0
0
VERTEX
8
LOT_LINE
10
327.1839
20
-556.7432
30
0.0
0
VERTEX
8
LOT_LINE
10
233.7665
20
-560.6721
30
0.0
0
SEQEND
0
TEXT
8
TEXT-LABELS
10
278.3741
20
-508.7518
30
0.0
40
9
1
1
50
0.0
0
POLYLINE
8
LOT_LINE
66
1
70
1
0
VERTEX
8
LOT_LINE
10
322.9818
20
-456.8315
30
0.0
0
VERTEX
8
LOT_LINE
10
397.9155
20
-453.6799
30
0.0
0
VERTEX
8
LOT_LINE
10
402.1176
20
-553.5916
30
0.0
0
VERTEX
8
LOT_LINE
10
327.1839
20
-556.7432
30
0.0
0
SEQEND
0
TEXT
8
TEXT-LABELS
10
362.5497
20
-505.2115
30
0.0
40
9
1
2
50
0.0
0
POLYLINE
8
LOT_LINE
66
1
70
1
0
VERTEX
8
LOT_LINE
10
397.9155
20
-453.6799
30
0.0
0
VERTEX
8
LOT_LINE
10
472.8493
20
-450.5284
30
0.0
0
VERTEX
8
LOT_LINE
10
477.0514
20
-550.4400
30
0.0
0
VERTEX
8
LOT_LINE
10
402.1176
20
-553.5916
30
0.0
0
SEQEND
0
TEXT
8
TEXT-LABELS
10
437.4835
20
-502.0600
30
0.0
40
9
1
3
50
0.0
0
POLYLINE
8
LOT_LINE
66
1
70
1
0
VERTEX
8
LOT_LINE
10
472.8493
20
-450.5284
30
0.0
0
VERTEX
8
LOT_LINE
10
547.7830
20
-447.3768
30
0.0
0
VERTEX
8
LOT_LINE
10
551.9851
20
-547.2885
30
0.0
0
VERTEX
8
LOT_LINE
10
477.0514
20
-550.4400
30
0.0
0
SEQEND
0
TEXT
8
TEXT-LABELS
10
512.4172
20
-498.9084
30
0.0
40
9
1
4
50
0.0
0
POLYLINE
8
LOT_LINE
66
1
70
1
0
VERTEX
8
LOT_LINE
10
547.7830
20
-447.3768
30
0.0
0
VERTEX
8
LOT_LINE
10
622.7168
20
-444.2252
30
0.0
0
VERTEX
8
LOT_LINE
10
626.9189
20
-544.1369
30
0.0
0
VERTEX
8
LOT_LINE
10
551.9851
20
-547.2885
30
0.0
0
SEQEND
0
TEXT
8
TEXT-LABELS
10
587.3510
20
-495.7568
30
0.0
40
9
1
5
50
0.0
0
POLYLINE
8
LOT_LINE
66
1
70
1
0
VERTEX
8
LOT_LINE
10
622.7168
20
-444.2252
30
0.0
0
VERTEX
8
LOT_LINE
10
697.6506
20
-441.0736
30
0.0
0
VERTEX
8
LOT_LINE
10
701.8527
20
-540.9853
30
0.0
0
VERTEX
8
LOT_LINE
10
626.9189
20
-544.1369
30
0.0
0
SEQEND
0
TEXT
8
TEXT-LABELS
10
662.2847
20
-492.6053
30
0.0
40
9
1
6
50
0.0
0
POLYLINE
8
LOT_LINE
66
1
70
1
0
VERTEX
8
LOT_LINE
10
697.6506
20
-441.0736
30
0.0
0
VERTEX
8
LOT_LINE
10
772.5843
20
-437.9221
30
0.0
0
VERTEX
8
LOT_LINE
10
776.7864
20
-537.8337
30
0.0
0
VERTEX
8
LOT_LINE
10
701.8527
20
-540.9853
30
0.0
0
SEQEND
0
TEXT
8
TEXT-LABELS
10
737.2185
20
-489.4537
30
0.0
40
9
1
7
50
0.0
0
POLYLINE
8
LOT_LINE
66
1
70
1
0
VERTEX
8
LOT_LINE
10
772.5843
20
-437.9221
30
0.0
0
VERTEX
8
LOT_LINE
10
847.5181
20
-434.7705
30
0.0
0
VERTEX
8
LOT_LINE
10
851.7202
20
-534.6822
30
0.0
0
VERTEX
8
LOT_LINE
10
776.7864
20
-537.8337
30
0.0
0
SEQEND
0
TEXT
8
TEXT-LABELS
10
812.1522
20
-486.3021
30
0.0
40
9
1
8
50
0.0
0
POLYLINE
8
LOT_LINE
66
1
70
1
0
VERTEX
8
LOT_LINE
10
847.5181
20
-434.7705
30
0.0
0
VERTEX
8
LOT_LINE
10
922.4518
20
-431.6189
30
0.0
0
VERTEX
8
LOT_LINE
10
926.6539
20
-531.5306
30
0.0
0
VERTEX
8
LOT_LINE
10
851.7202
20
-534.6822
30
0.0
0
SEQEND
0
TEXT
8
TEXT-LABELS
10
887.0860
20
-483.1505
30
0.0
40
9
1
9
50
0.0
0
POLYLINE
8
LOT_LINE
66
1
70
1
0
VERTEX
8
LOT_LINE
10
922.4518
20
-431.6189
30
0.0
0
VERTEX
8
LOT_LINE
10
997.3856
20
-428.4673
30
0.0
0
VERTEX
8
LOT_LINE
10
1001.5877
20
-528.3790
30
0.0
0
VERTEX
8
LOT_LINE
10
926.6539
20
-531.5306
30
0.0
0
SEQEND
0
TEXT
8
TEXT-LABELS
10
962.0197
20
-479.9990
30
0.0
40
9
1
10
50
0.0
0
POLYLINE
8
LOT_LINE
66
1
70
1
0
VERTEX
8
LOT_LINE
10
997.3856
20
-428.4673
30
0.0
0
VERTEX
8
LOT_LINE
10
1072.3193
20
-425.3158
30
0.0
0
VERTEX
8
LOT_LINE
10
1076.5214
20
-525.2274
30
0.0
0
VERTEX
8
LOT_LINE
10
1001.5877
20
-528.3790
30
0.0
0
SEQEND
0
TEXT
8
TEXT-LABELS
10
1036.9535
20
-476.8474
30
0.0
40
9
1
11
50
0.0
0
POLYLINE
8
LOT_LINE
66
1
70
1
0
VERTEX
8
LOT_LINE
10
1072.3193
20
-425.3158
30
0.0
0
VERTEX
8
LOT_LINE
10
1147.2531
20
-422.1642
30
0.0
0
VERTEX
8
LOT_LINE
10
1151.4552
20
-522.0759
30
0.0
0
VERTEX
8
LOT_LINE
10
1076.5214
20
-525.2274
30
0.0
0
SEQEND
0
TEXT
8
TEXT-LABELS
10
1111.8873
20
-473.6958
30
0.0
40
9
1
12
50
0.0
0
POLYLINE
8
LOT_LINE
66
1
70
1
0
VERTEX
8
LOT_LINE
10
1147.2531
20
-422.1642
30
0.0
0
VERTEX
8
LOT_LINE
10
1222.1868
20
-419.0126
30
0.0
0
VERTEX
8
LOT_LINE
10
1226.3889
20
-518.9243
30
0.0
0
VERTEX
8
LOT_LINE
10
1151.4552
20
-522.0759
30
0.0
0
SEQEND
0
TEXT
8
TEXT-LABELS
10
1186.8210
20
-470.5442
30
0.0
40
9
1
13
50
0.0
0
POLYLINE
8
LOT_LINE
66
1
70
1
0
VERTEX
8
LOT_LINE
10
1222.1868
20
-419.0126
30
0.0
0
VERTEX
8
LOT_LINE
10
1297.1206
20
-415.8611
30
0.0
0
VERTEX
8
LOT_LINE
10
1301.3227
20
-515.7727
30
0.0
0
VERTEX
8
LOT_LINE
10
1226.3889
20
-518.9243
30
0.0
0
SEQEND
0
TEXT
8
TEXT-LABELS
10
1261.7548
20
-467.3927
30
0.0
40
9
1
14
50
0.0
0
POLYLINE
8
LOT_LINE
66
1
70
1
0
VERTEX
8
LOT_LINE
10
1297.1206
20
-415.8611
30
0.0
0
VERTEX
8
LOT_LINE
10
1372.0543
20
-412.7095
30
0.0
0
VERTEX
8
LOT_LINE
10
1376.2564
20
-512.6212
30
0.0
0
VERTEX
8
LOT_LINE
10
1301.3227
20
-515.7727
30
0.0
0
SEQEND
0
TEXT
8
TEXT-LABELS
10
1336.6885
20
-464.2411
30
0.0
40
9
1
15
50
0.0
0
POLYLINE
8
LOT_LINE
66
1
70
1
0
VERTEX
8
LOT_LINE
10
1372.0543
20
-412.7095
30
0.0
0
VERTEX
8
LOT_LINE
10
1446.9881
20
-409.5579
30
0.0
0
VERTEX
8
LOT_LINE
10
1451.1902
20
-509.4696
30
0.0
0
VERTEX
8
LOT_LINE
10
1376.2564
20
-512.6212
30
0.0
0
SEQEND
0
TEXT
8
TEXT-LABELS
10
1411.6223
20
-461.0895
30
0.0
40
9
1
16
50
0.0
0
POLYLINE
8
LOT_LINE
66
1
70
1
0
VERTEX
8
LOT_LINE
10
1446.9881
20
-409.5579
30
0.0
0
VERTEX
8
LOT_LINE
10
1521.9219
20
-406.4063
30
0.0
0
VERTEX
8
LOT_LINE
10
1526.1240
20
-506.3180
30
0.0
0
VERTEX
8
LOT_LINE
10
1451.1902
20
-509.4696
30
0.0
0
SEQEND
0
TEXT
8
TEXT-LABELS
10
1486.5560
20
-457.9380
30
0.0
40
9
1
17
50
0.0
0
LINE
8
BOUNDARY
10
0.0000
20
0.0000
30
0.0
11
1624.9335
21
68.3416
31
0.0
0
POINT
8
CONTROL
10
0.0000
20
0.0000
30
0.0
0
TEXT
8
CONTROL
10
0.0000
20
16.0000
30
0.0
40
12
1
P.O.B.
50
0.0
0
TEXT
8
DIM-LABELS
10
380.0000
20
6.0000
30
0.0
40
10
1
N'ly line Section 32   S87°35'30"W  1626.37'
50
0.0
0
LINE
8
EASEMENT
10
2.1010
20
-49.9558
30
0.0
11
1627.0345
21
18.3858
31
0.0
0
TEXT
8
EASEMENT
10
122.1010
20
-43.9558
30
0.0
40
9
1
50' R/W FOR DRAINAGE AND UTILITIES
50
0.0
0
LINE
8
EASEMENT
10
49.9558
20
2.1010
30
0.0
11
73.9078
21
-567.3955
31
0.0
0
LINE
8
ROW_STREET
10
216.1177
20
-141.0431
30
0.0
11
1508.4751
21
-86.6890
31
0.0
0
LINE
8
ROW_STREET
10
218.6389
20
-200.9901
30
0.0
11
1510.9964
21
-146.6360
31
0.0
0
TEXT
8
ROW_STREET
10
517.1133
20
-158.4103
30
0.0
40
11
1
STARFISH AVENUE (60' R/W)   S87°35'30"W
50
0.0
0
LINE
8
ROW_STREET
10
227.0431
20
-400.8135
30
0.0
11
1519.4006
21
-346.4593
31
0.0
0
LINE
8
ROW_STREET
10
229.5644
20
-460.7605
30
0.0
11
1521.9219
21
-406.4063
31
0.0
0
TEXT
8
ROW_STREET
10
528.0388
20
-418.1807
30
0.0
40
11
1
SAIL AVENUE (60' R/W)   S87°35'30"W
50
0.0
0
TEXT
8
TEXT-LABELS
10
-5.7891
20
-100.3319
30
0.0
40
12
1
BLK 18
50
0.0
0
TEXT
8
TEXT-LABELS
10
160.7930
20
-253.4672
30
0.0
40
12
1
BLK 17N
50
0.0
0
TEXT
8
TEXT-LABELS
10
164.9951
20
-353.3789
30
0.0
40
12
1
BLK 17S
50
0.0
0
TEXT
8
TEXT-LABELS
10
171.7184
20
-513.2376
30
0.0
40
12
1
BLK 16N
50
0.0
0
LINE
8
UNRESOLVED
10
1502.1720
20
63.1785
30
0.0
11
1526.1240
21
-506.3180
31
0.0
0
TEXT
8
UNRESOLVED
10
1514.1720
20
33.1785
30
0.0
40
10
1
EAST TIE TO BEACHWOOD BLVD UNRESOLVED (122.87' remainder)
50
0.0
0
LINE
8
UNRESOLVED
10
233.7665
20
-560.6721
30
0.0
11
1526.1240
21
-506.3180
31
0.0
0
TEXT
8
UNRESOLVED
10
433.7665
20
-580.6721
30
0.0
40
9
1
SOUTH OF HERE UNRESOLVED: Blk 16 south row transitions to the diagonal Marina/Sands/Cape Horn fabric (inline curve data, not legible at 200 DPI)
50
0.0
0
TEXT
8
TITLEBLOCK
10
0.0000
20
260.0000
30
0.0
40
12
1
BEACHWOOD UNIT TWO -- PB 30, PAGES 82 & 82A, DUVAL COUNTY, FL (1960)
50
0.0
0
TEXT
8
TITLEBLOCK
10
0.0000
20
230.0000
30
0.0
40
9
1
Beach Boulevard Estates, Inc.  |  Simmerson, Bell & Akel  |  1"=100'
50
0.0
0
TEXT
8
TITLEBLOCK
10
0.0000
20
200.0000
30
0.0
40
9
1
INTERIOR WORKED FROM THE P.O.B. INWARD
50
0.0
0
TEXT
8
TITLEBLOCK
10
0.0000
20
170.0000
30
0.0
40
9
1

50
0.0
0
TEXT
8
TITLEBLOCK
10
0.0000
20
140.0000
30
0.0
40
9
1
SOURCE: 200 DPI scan; visual transcription at 3x, NOT OCR.
50
0.0
0
TEXT
8
TITLEBLOCK
10
0.0000
20
110.0000
30
0.0
40
9
1

50
0.0
0
TEXT
8
TITLEBLOCK
10
0.0000
20
80.0000
30
0.0
40
9
1
VALIDATION:
50
0.0
0
TEXT
8
TITLEBLOCK
10
0.0000
20
50.0000
30
0.0
40
9
1
  A. Three independently-transcribed rows (different lot counts, different
50
0.0
0
TEXT
8
TITLEBLOCK
10
0.0000
20
20.0000
30
0.0
40
9
1
     west offsets) all terminate at 1503.50 ft east of the west
50
0.0
0
TEXT
8
TITLEBLOCK
10
0.0000
20
-10.0000
30
0.0
40
9
1
     boundary. Spread = 0.00 ft. Blk 18: 50.00+103.50+18(75); 
50
0.0
0
TEXT
8
TITLEBLOCK
10
0.0000
20
-40.0000
30
0.0
40
9
1
     Blk 17/16: 210.00+93.50+16(75). Independent agreement.
50
0.0
0
TEXT
8
TITLEBLOCK
10
0.0000
20
-70.0000
30
0.0
40
9
1
  B. Side bearing N2d24'30"W + street S87d35'30"W = 90d00'00" exactly
50
0.0
0
TEXT
8
TITLEBLOCK
10
0.0000
20
-100.0000
30
0.0
40
9
1
     (computed 90.000000 deg).
50
0.0
0
TEXT
8
TITLEBLOCK
10
0.0000
20
-130.0000
30
0.0
40
9
1
  C. All rows parallel -> depth must be constant; all transcribed at 100.00 ft.
50
0.0
0
TEXT
8
TITLEBLOCK
10
0.0000
20
-160.0000
30
0.0
40
9
1
  D. 66 of 70 lots close at exactly 7,500 sf; remainder are the
50
0.0
0
TEXT
8
TITLEBLOCK
10
0.0000
20
-190.0000
30
0.0
40
9
1
     wider west end lots (103.50 / 93.50 frontage), as drawn.
50
0.0
0
TEXT
8
TITLEBLOCK
10
0.0000
20
-220.0000
30
0.0
40
9
1

50
0.0
0
TEXT
8
TITLEBLOCK
10
0.0000
20
-250.0000
30
0.0
40
9
1
SCOPE: Blocks 18, 17 (both rows) and 16 (north row). South and east edges
50
0.0
0
TEXT
8
TITLEBLOCK
10
0.0000
20
-280.0000
30
0.0
40
9
1
flagged UNRESOLVED -- not guessed.
50
0.0
0
TEXT
8
TITLEBLOCK
10
0.0000
20
-310.0000
30
0.0
40
9
1
PLAT NOTE: curve bearings/distances are CHORD bearings and distances.
50
0.0
0
ENDSEC
0
EOF
