0
SECTION
2
HEADER
9
$ACADVER
1
AC1009
9
$DWGCODEPAGE
3
ANSI_1252
0
ENDSEC
0
SECTION
2
TABLES
0
TABLE
2
LTYPE
70
6
0
LTYPE
2
CONTINUOUS
70
0
3
Solid
72
65
73
0
40
0.0
0
LTYPE
2
DASHED
70
0
3
Dashed
72
65
73
2
40
0.75
49
0.5
74
0
49
-0.25
74
0
0
LTYPE
2
DASHED2
70
0
3
Dashed (.5x)
72
65
73
2
40
0.375
49
0.25
74
0
49
-0.125
74
0
0
LTYPE
2
HIDDEN
70
0
3
Hidden
72
65
73
2
40
0.375
49
0.25
74
0
49
-0.125
74
0
0
LTYPE
2
CENTER
70
0
3
Center
72
65
73
4
40
2.0
49
1.25
74
0
49
-0.25
74
0
49
0.25
74
0
49
-0.25
74
0
0
LTYPE
2
PHANTOM
70
0
3
Phantom
72
65
73
6
40
2.5
49
1.25
74
0
49
-0.25
74
0
49
0.25
74
0
49
-0.25
74
0
49
0.25
74
0
49
-0.25
74
0
0
ENDTAB
0
TABLE
2
LAYER
70
10
0
LAYER
2
0
70
0
62
7
6
CONTINUOUS
0
LAYER
2
BOUNDARY
70
0
62
7
6
CONTINUOUS
0
LAYER
2
LOT_LINE
70
0
62
4
6
CONTINUOUS
0
LAYER
2
ROW_STREET
70
0
62
2
6
DASHED
0
LAYER
2
EASEMENT
70
0
62
3
6
DASHED
0
LAYER
2
CURVE
70
0
62
6
6
CONTINUOUS
0
LAYER
2
TEXT-LABELS
70
0
62
7
6
CONTINUOUS
0
LAYER
2
DIM-LABELS
70
0
62
3
6
CONTINUOUS
0
LAYER
2
TITLEBLOCK
70
0
62
2
6
CONTINUOUS
0
LAYER
2
CONTROL
70
0
62
1
6
CONTINUOUS
0
ENDTAB
0
TABLE
2
STYLE
70
4
0
STYLE
2
STANDARD
70
0
40
0.0
41
1.0
50
0.0
71
0
42
0.2
3
Arial
4

0
STYLE
2
ARIAL
70
0
40
0.0
41
1.0
50
0.0
71
0
42
0.2
3
Arial
4

0
STYLE
2
ARIAL_TTF
70
0
40
0.0
41
1.0
50
0.0
71
0
42
0.2
3
arial.ttf
4

0
STYLE
2
SIMPLEX
70
0
40
0.0
41
1.0
50
0.0
71
0
42
0.2
3
simplex.shx
4

0
ENDTAB
0
ENDSEC
0
SECTION
2
ENTITIES
0
POLYLINE
8
LOT_LINE
66
1
70
1
0
VERTEX
8
LOT_LINE
10
52.0569
20
-47.8548
30
0.0
0
VERTEX
8
LOT_LINE
10
155.4655
20
-43.5056
30
0.0
0
VERTEX
8
LOT_LINE
10
159.6676
20
-143.4173
30
0.0
0
VERTEX
8
LOT_LINE
10
56.2590
20
-147.7665
30
0.0
0
SEQEND
0
TEXT
8
TEXT-LABELS
7
STANDARD
10
105.8622
20
-95.6360
30
0.0
40
8.0
1
1
50
0.0
0
TEXT
8
DIM-LABELS
7
STANDARD
10
103.9082
20
-49.1771
30
0.0
40
5.5
1
103.5'
50
0.0
0
TEXT
8
DIM-LABELS
7
STANDARD
10
154.0696
20
-93.6085
30
0.0
40
5.5
1
100.0'
50
0.0
0
TEXT
8
DIM-LABELS
7
STANDARD
10
107.8162
20
-142.0950
30
0.0
40
5.5
1
103.5'
50
0.0
0
TEXT
8
DIM-LABELS
7
STANDARD
10
57.6548
20
-97.6636
30
0.0
40
5.5
1
100.0'
50
0.0
0
POLYLINE
8
LOT_LINE
66
1
70
1
0
VERTEX
8
LOT_LINE
10
155.4655
20
-43.5056
30
0.0
0
VERTEX
8
LOT_LINE
10
230.3992
20
-40.3540
30
0.0
0
VERTEX
8
LOT_LINE
10
234.6013
20
-140.2657
30
0.0
0
VERTEX
8
LOT_LINE
10
159.6676
20
-143.4173
30
0.0
0
SEQEND
0
TEXT
8
TEXT-LABELS
7
STANDARD
10
195.0334
20
-91.8857
30
0.0
40
8.0
1
2
50
0.0
0
TEXT
8
DIM-LABELS
7
STANDARD
10
193.0794
20
-45.4267
30
0.0
40
5.5
1
75.0'
50
0.0
0
TEXT
8
DIM-LABELS
7
STANDARD
10
229.0034
20
-90.4570
30
0.0
40
5.5
1
100.0'
50
0.0
0
TEXT
8
DIM-LABELS
7
STANDARD
10
196.9874
20
-138.3446
30
0.0
40
5.5
1
75.0'
50
0.0
0
TEXT
8
DIM-LABELS
7
STANDARD
10
161.0634
20
-93.3144
30
0.0
40
5.5
1
100.0'
50
0.0
0
POLYLINE
8
LOT_LINE
66
1
70
1
0
VERTEX
8
LOT_LINE
10
230.3992
20
-40.3540
30
0.0
0
VERTEX
8
LOT_LINE
10
305.3330
20
-37.2025
30
0.0
0
VERTEX
8
LOT_LINE
10
309.5351
20
-137.1141
30
0.0
0
VERTEX
8
LOT_LINE
10
234.6013
20
-140.2657
30
0.0
0
SEQEND
0
TEXT
8
TEXT-LABELS
7
STANDARD
10
269.9671
20
-88.7341
30
0.0
40
8.0
1
3
50
0.0
0
TEXT
8
DIM-LABELS
7
STANDARD
10
268.0132
20
-42.2752
30
0.0
40
5.5
1
75.0'
50
0.0
0
TEXT
8
DIM-LABELS
7
STANDARD
10
303.9371
20
-87.3054
30
0.0
40
5.5
1
100.0'
50
0.0
0
TEXT
8
DIM-LABELS
7
STANDARD
10
271.9211
20
-135.1930
30
0.0
40
5.5
1
75.0'
50
0.0
0
TEXT
8
DIM-LABELS
7
STANDARD
10
235.9972
20
-90.1628
30
0.0
40
5.5
1
100.0'
50
0.0
0
POLYLINE
8
LOT_LINE
66
1
70
1
0
VERTEX
8
LOT_LINE
10
305.3330
20
-37.2025
30
0.0
0
VERTEX
8
LOT_LINE
10
380.2667
20
-34.0509
30
0.0
0
VERTEX
8
LOT_LINE
10
384.4688
20
-133.9626
30
0.0
0
VERTEX
8
LOT_LINE
10
309.5351
20
-137.1141
30
0.0
0
SEQEND
0
TEXT
8
TEXT-LABELS
7
STANDARD
10
344.9009
20
-85.5825
30
0.0
40
8.0
1
4
50
0.0
0
TEXT
8
DIM-LABELS
7
STANDARD
10
342.9469
20
-39.1236
30
0.0
40
5.5
1
75.0'
50
0.0
0
TEXT
8
DIM-LABELS
7
STANDARD
10
378.8709
20
-84.1538
30
0.0
40
5.5
1
100.0'
50
0.0
0
TEXT
8
DIM-LABELS
7
STANDARD
10
346.8549
20
-132.0415
30
0.0
40
5.5
1
75.0'
50
0.0
0
TEXT
8
DIM-LABELS
7
STANDARD
10
310.9309
20
-87.0112
30
0.0
40
5.5
1
100.0'
50
0.0
0
POLYLINE
8
LOT_LINE
66
1
70
1
0
VERTEX
8
LOT_LINE
10
380.2667
20
-34.0509
30
0.0
0
VERTEX
8
LOT_LINE
10
455.2005
20
-30.8993
30
0.0
0
VERTEX
8
LOT_LINE
10
459.4026
20
-130.8110
30
0.0
0
VERTEX
8
LOT_LINE
10
384.4688
20
-133.9626
30
0.0
0
SEQEND
0
TEXT
8
TEXT-LABELS
7
STANDARD
10
419.8347
20
-82.4309
30
0.0
40
8.0
1
5
50
0.0
0
TEXT
8
DIM-LABELS
7
STANDARD
10
417.8807
20
-35.9720
30
0.0
40
5.5
1
75.0'
50
0.0
0
TEXT
8
DIM-LABELS
7
STANDARD
10
453.8046
20
-81.0022
30
0.0
40
5.5
1
100.0'
50
0.0
0
TEXT
8
DIM-LABELS
7
STANDARD
10
421.7886
20
-128.8899
30
0.0
40
5.5
1
75.0'
50
0.0
0
TEXT
8
DIM-LABELS
7
STANDARD
10
385.8647
20
-83.8597
30
0.0
40
5.5
1
100.0'
50
0.0
0
POLYLINE
8
LOT_LINE
66
1
70
1
0
VERTEX
8
LOT_LINE
10
455.2005
20
-30.8993
30
0.0
0
VERTEX
8
LOT_LINE
10
530.1342
20
-27.7478
30
0.0
0
VERTEX
8
LOT_LINE
10
534.3363
20
-127.6594
30
0.0
0
VERTEX
8
LOT_LINE
10
459.4026
20
-130.8110
30
0.0
0
SEQEND
0
TEXT
8
TEXT-LABELS
7
STANDARD
10
494.7684
20
-79.2794
30
0.0
40
8.0
1
6
50
0.0
0
TEXT
8
DIM-LABELS
7
STANDARD
10
492.8144
20
-32.8204
30
0.0
40
5.5
1
75.0'
50
0.0
0
TEXT
8
DIM-LABELS
7
STANDARD
10
528.7384
20
-77.8507
30
0.0
40
5.5
1
100.0'
50
0.0
0
TEXT
8
DIM-LABELS
7
STANDARD
10
496.7224
20
-125.7383
30
0.0
40
5.5
1
75.0'
50
0.0
0
TEXT
8
DIM-LABELS
7
STANDARD
10
460.7984
20
-80.7081
30
0.0
40
5.5
1
100.0'
50
0.0
0
POLYLINE
8
LOT_LINE
66
1
70
1
0
VERTEX
8
LOT_LINE
10
530.1342
20
-27.7478
30
0.0
0
VERTEX
8
LOT_LINE
10
605.0680
20
-24.5962
30
0.0
0
VERTEX
8
LOT_LINE
10
609.2701
20
-124.5079
30
0.0
0
VERTEX
8
LOT_LINE
10
534.3363
20
-127.6594
30
0.0
0
SEQEND
0
TEXT
8
TEXT-LABELS
7
STANDARD
10
569.7022
20
-76.1278
30
0.0
40
8.0
1
7
50
0.0
0
TEXT
8
DIM-LABELS
7
STANDARD
10
567.7482
20
-29.6689
30
0.0
40
5.5
1
75.0'
50
0.0
0
TEXT
8
DIM-LABELS
7
STANDARD
10
603.6721
20
-74.6991
30
0.0
40
5.5
1
100.0'
50
0.0
0
TEXT
8
DIM-LABELS
7
STANDARD
10
571.6561
20
-122.5867
30
0.0
40
5.5
1
75.0'
50
0.0
0
TEXT
8
DIM-LABELS
7
STANDARD
10
535.7322
20
-77.5565
30
0.0
40
5.5
1
100.0'
50
0.0
0
POLYLINE
8
LOT_LINE
66
1
70
1
0
VERTEX
8
LOT_LINE
10
605.0680
20
-24.5962
30
0.0
0
VERTEX
8
LOT_LINE
10
680.0017
20
-21.4446
30
0.0
0
VERTEX
8
LOT_LINE
10
684.2038
20
-121.3563
30
0.0
0
VERTEX
8
LOT_LINE
10
609.2701
20
-124.5079
30
0.0
0
SEQEND
0
TEXT
8
TEXT-LABELS
7
STANDARD
10
644.6359
20
-72.9762
30
0.0
40
8.0
1
8
50
0.0
0
TEXT
8
DIM-LABELS
7
STANDARD
10
642.6819
20
-26.5173
30
0.0
40
5.5
1
75.0'
50
0.0
0
TEXT
8
DIM-LABELS
7
STANDARD
10
678.6059
20
-71.5475
30
0.0
40
5.5
1
100.0'
50
0.0
0
TEXT
8
DIM-LABELS
7
STANDARD
10
646.5899
20
-119.4352
30
0.0
40
5.5
1
75.0'
50
0.0
0
TEXT
8
DIM-LABELS
7
STANDARD
10
610.6660
20
-74.4049
30
0.0
40
5.5
1
100.0'
50
0.0
0
POLYLINE
8
LOT_LINE
66
1
70
1
0
VERTEX
8
LOT_LINE
10
680.0017
20
-21.4446
30
0.0
0
VERTEX
8
LOT_LINE
10
754.9355
20
-18.2930
30
0.0
0
VERTEX
8
LOT_LINE
10
759.1376
20
-118.2047
30
0.0
0
VERTEX
8
LOT_LINE
10
684.2038
20
-121.3563
30
0.0
0
SEQEND
0
TEXT
8
TEXT-LABELS
7
STANDARD
10
719.5697
20
-69.8247
30
0.0
40
8.0
1
9
50
0.0
0
TEXT
8
DIM-LABELS
7
STANDARD
10
717.6157
20
-23.3657
30
0.0
40
5.5
1
75.0'
50
0.0
0
TEXT
8
DIM-LABELS
7
STANDARD
10
753.5396
20
-68.3959
30
0.0
40
5.5
1
100.0'
50
0.0
0
TEXT
8
DIM-LABELS
7
STANDARD
10
721.5237
20
-116.2836
30
0.0
40
5.5
1
75.0'
50
0.0
0
TEXT
8
DIM-LABELS
7
STANDARD
10
685.5997
20
-71.2534
30
0.0
40
5.5
1
100.0'
50
0.0
0
POLYLINE
8
LOT_LINE
66
1
70
1
0
VERTEX
8
LOT_LINE
10
754.9355
20
-18.2930
30
0.0
0
VERTEX
8
LOT_LINE
10
829.8693
20
-15.1415
30
0.0
0
VERTEX
8
LOT_LINE
10
834.0714
20
-115.0531
30
0.0
0
VERTEX
8
LOT_LINE
10
759.1376
20
-118.2047
30
0.0
0
SEQEND
0
TEXT
8
TEXT-LABELS
7
STANDARD
10
794.5034
20
-66.6731
30
0.0
40
8.0
1
10
50
0.0
0
TEXT
8
DIM-LABELS
7
STANDARD
10
792.5495
20
-20.2142
30
0.0
40
5.5
1
75.0'
50
0.0
0
TEXT
8
DIM-LABELS
7
STANDARD
10
828.4734
20
-65.2444
30
0.0
40
5.5
1
100.0'
50
0.0
0
TEXT
8
DIM-LABELS
7
STANDARD
10
796.4574
20
-113.1320
30
0.0
40
5.5
1
75.0'
50
0.0
0
TEXT
8
DIM-LABELS
7
STANDARD
10
760.5335
20
-68.1018
30
0.0
40
5.5
1
100.0'
50
0.0
0
POLYLINE
8
LOT_LINE
66
1
70
1
0
VERTEX
8
LOT_LINE
10
829.8693
20
-15.1415
30
0.0
0
VERTEX
8
LOT_LINE
10
904.8030
20
-11.9899
30
0.0
0
VERTEX
8
LOT_LINE
10
909.0051
20
-111.9016
30
0.0
0
VERTEX
8
LOT_LINE
10
834.0714
20
-115.0531
30
0.0
0
SEQEND
0
TEXT
8
TEXT-LABELS
7
STANDARD
10
869.4372
20
-63.5215
30
0.0
40
8.0
1
11
50
0.0
0
TEXT
8
DIM-LABELS
7
STANDARD
10
867.4832
20
-17.0626
30
0.0
40
5.5
1
75.0'
50
0.0
0
TEXT
8
DIM-LABELS
7
STANDARD
10
903.4072
20
-62.0928
30
0.0
40
5.5
1
100.0'
50
0.0
0
TEXT
8
DIM-LABELS
7
STANDARD
10
871.3912
20
-109.9804
30
0.0
40
5.5
1
75.0'
50
0.0
0
TEXT
8
DIM-LABELS
7
STANDARD
10
835.4672
20
-64.9502
30
0.0
40
5.5
1
100.0'
50
0.0
0
POLYLINE
8
LOT_LINE
66
1
70
1
0
VERTEX
8
LOT_LINE
10
904.8030
20
-11.9899
30
0.0
0
VERTEX
8
LOT_LINE
10
979.7368
20
-8.8383
30
0.0
0
VERTEX
8
LOT_LINE
10
983.9389
20
-108.7500
30
0.0
0
VERTEX
8
LOT_LINE
10
909.0051
20
-111.9016
30
0.0
0
SEQEND
0
TEXT
8
TEXT-LABELS
7
STANDARD
10
944.3709
20
-60.3699
30
0.0
40
8.0
1
12
50
0.0
0
TEXT
8
DIM-LABELS
7
STANDARD
10
942.4170
20
-13.9110
30
0.0
40
5.5
1
75.0'
50
0.0
0
TEXT
8
DIM-LABELS
7
STANDARD
10
978.3409
20
-58.9412
30
0.0
40
5.5
1
100.0'
50
0.0
0
TEXT
8
DIM-LABELS
7
STANDARD
10
946.3249
20
-106.8289
30
0.0
40
5.5
1
75.0'
50
0.0
0
TEXT
8
DIM-LABELS
7
STANDARD
10
910.4010
20
-61.7987
30
0.0
40
5.5
1
100.0'
50
0.0
0
POLYLINE
8
LOT_LINE
66
1
70
1
0
VERTEX
8
LOT_LINE
10
979.7368
20
-8.8383
30
0.0
0
VERTEX
8
LOT_LINE
10
1054.6705
20
-5.6867
30
0.0
0
VERTEX
8
LOT_LINE
10
1058.8726
20
-105.5984
30
0.0
0
VERTEX
8
LOT_LINE
10
983.9389
20
-108.7500
30
0.0
0
SEQEND
0
TEXT
8
TEXT-LABELS
7
STANDARD
10
1019.3047
20
-57.2184
30
0.0
40
8.0
1
13
50
0.0
0
TEXT
8
DIM-LABELS
7
STANDARD
10
1017.3507
20
-10.7594
30
0.0
40
5.5
1
75.0'
50
0.0
0
TEXT
8
DIM-LABELS
7
STANDARD
10
1053.2747
20
-55.7897
30
0.0
40
5.5
1
100.0'
50
0.0
0
TEXT
8
DIM-LABELS
7
STANDARD
10
1021.2587
20
-103.6773
30
0.0
40
5.5
1
75.0'
50
0.0
0
TEXT
8
DIM-LABELS
7
STANDARD
10
985.3347
20
-58.6471
30
0.0
40
5.5
1
100.0'
50
0.0
0
POLYLINE
8
LOT_LINE
66
1
70
1
0
VERTEX
8
LOT_LINE
10
1054.6705
20
-5.6867
30
0.0
0
VERTEX
8
LOT_LINE
10
1129.6043
20
-2.5352
30
0.0
0
VERTEX
8
LOT_LINE
10
1133.8064
20
-102.4468
30
0.0
0
VERTEX
8
LOT_LINE
10
1058.8726
20
-105.5984
30
0.0
0
SEQEND
0
TEXT
8
TEXT-LABELS
7
STANDARD
10
1094.2384
20
-54.0668
30
0.0
40
8.0
1
14
50
0.0
0
TEXT
8
DIM-LABELS
7
STANDARD
10
1092.2845
20
-7.6079
30
0.0
40
5.5
1
75.0'
50
0.0
0
TEXT
8
DIM-LABELS
7
STANDARD
10
1128.2084
20
-52.6381
30
0.0
40
5.5
1
100.0'
50
0.0
0
TEXT
8
DIM-LABELS
7
STANDARD
10
1096.1924
20
-100.5257
30
0.0
40
5.5
1
75.0'
50
0.0
0
TEXT
8
DIM-LABELS
7
STANDARD
10
1060.2685
20
-55.4955
30
0.0
40
5.5
1
100.0'
50
0.0
0
POLYLINE
8
LOT_LINE
66
1
70
1
0
VERTEX
8
LOT_LINE
10
1129.6043
20
-2.5352
30
0.0
0
VERTEX
8
LOT_LINE
10
1204.5380
20
0.6164
30
0.0
0
VERTEX
8
LOT_LINE
10
1208.7401
20
-99.2953
30
0.0
0
VERTEX
8
LOT_LINE
10
1133.8064
20
-102.4468
30
0.0
0
SEQEND
0
TEXT
8
TEXT-LABELS
7
STANDARD
10
1169.1722
20
-50.9152
30
0.0
40
8.0
1
15
50
0.0
0
TEXT
8
DIM-LABELS
7
STANDARD
10
1167.2182
20
-4.4563
30
0.0
40
5.5
1
75.0'
50
0.0
0
TEXT
8
DIM-LABELS
7
STANDARD
10
1203.1422
20
-49.4865
30
0.0
40
5.5
1
100.0'
50
0.0
0
TEXT
8
DIM-LABELS
7
STANDARD
10
1171.1262
20
-97.3741
30
0.0
40
5.5
1
75.0'
50
0.0
0
TEXT
8
DIM-LABELS
7
STANDARD
10
1135.2022
20
-52.3439
30
0.0
40
5.5
1
100.0'
50
0.0
0
POLYLINE
8
LOT_LINE
66
1
70
1
0
VERTEX
8
LOT_LINE
10
1204.5380
20
0.6164
30
0.0
0
VERTEX
8
LOT_LINE
10
1279.4718
20
3.7680
30
0.0
0
VERTEX
8
LOT_LINE
10
1283.6739
20
-96.1437
30
0.0
0
VERTEX
8
LOT_LINE
10
1208.7401
20
-99.2953
30
0.0
0
SEQEND
0
TEXT
8
TEXT-LABELS
7
STANDARD
10
1244.1060
20
-47.7636
30
0.0
40
8.0
1
16
50
0.0
0
TEXT
8
DIM-LABELS
7
STANDARD
10
1242.1520
20
-1.3047
30
0.0
40
5.5
1
75.0'
50
0.0
0
TEXT
8
DIM-LABELS
7
STANDARD
10
1278.0759
20
-46.3349
30
0.0
40
5.5
1
100.0'
50
0.0
0
TEXT
8
DIM-LABELS
7
STANDARD
10
1246.0599
20
-94.2226
30
0.0
40
5.5
1
75.0'
50
0.0
0
TEXT
8
DIM-LABELS
7
STANDARD
10
1210.1360
20
-49.1924
30
0.0
40
5.5
1
100.0'
50
0.0
0
POLYLINE
8
LOT_LINE
66
1
70
1
0
VERTEX
8
LOT_LINE
10
1279.4718
20
3.7680
30
0.0
0
VERTEX
8
LOT_LINE
10
1354.4055
20
6.9195
30
0.0
0
VERTEX
8
LOT_LINE
10
1358.6076
20
-92.9921
30
0.0
0
VERTEX
8
LOT_LINE
10
1283.6739
20
-96.1437
30
0.0
0
SEQEND
0
TEXT
8
TEXT-LABELS
7
STANDARD
10
1319.0397
20
-44.6121
30
0.0
40
8.0
1
17
50
0.0
0
TEXT
8
DIM-LABELS
7
STANDARD
10
1317.0857
20
1.8469
30
0.0
40
5.5
1
75.0'
50
0.0
0
TEXT
8
DIM-LABELS
7
STANDARD
10
1353.0097
20
-43.1834
30
0.0
40
5.5
1
100.0'
50
0.0
0
TEXT
8
DIM-LABELS
7
STANDARD
10
1320.9937
20
-91.0710
30
0.0
40
5.5
1
75.0'
50
0.0
0
TEXT
8
DIM-LABELS
7
STANDARD
10
1285.0697
20
-46.0408
30
0.0
40
5.5
1
100.0'
50
0.0
0
POLYLINE
8
LOT_LINE
66
1
70
1
0
VERTEX
8
LOT_LINE
10
1354.4055
20
6.9195
30
0.0
0
VERTEX
8
LOT_LINE
10
1429.3393
20
10.0711
30
0.0
0
VERTEX
8
LOT_LINE
10
1433.5414
20
-89.8406
30
0.0
0
VERTEX
8
LOT_LINE
10
1358.6076
20
-92.9921
30
0.0
0
SEQEND
0
TEXT
8
TEXT-LABELS
7
STANDARD
10
1393.9735
20
-41.4605
30
0.0
40
8.0
1
18
50
0.0
0
TEXT
8
DIM-LABELS
7
STANDARD
10
1392.0195
20
4.9984
30
0.0
40
5.5
1
75.0'
50
0.0
0
TEXT
8
DIM-LABELS
7
STANDARD
10
1427.9434
20
-40.0318
30
0.0
40
5.5
1
100.0'
50
0.0
0
TEXT
8
DIM-LABELS
7
STANDARD
10
1395.9274
20
-87.9194
30
0.0
40
5.5
1
75.0'
50
0.0
0
TEXT
8
DIM-LABELS
7
STANDARD
10
1360.0035
20
-42.8892
30
0.0
40
5.5
1
100.0'
50
0.0
0
POLYLINE
8
CURVE
66
1
70
0
0
VERTEX
8
CURVE
10
1504.2731
20
13.2227
30
0.0
0
VERTEX
8
CURVE
10
1504.6849
20
6.9863
30
0.0
0
VERTEX
8
CURVE
10
1505.0769
20
0.7486
30
0.0
0
VERTEX
8
CURVE
10
1505.4491
20
-5.4903
30
0.0
0
VERTEX
8
CURVE
10
1505.8013
20
-11.7304
30
0.0
0
VERTEX
8
CURVE
10
1506.1336
20
-17.9715
30
0.0
0
VERTEX
8
CURVE
10
1506.4460
20
-24.2137
30
0.0
0
VERTEX
8
CURVE
10
1506.7385
20
-30.4569
30
0.0
0
VERTEX
8
CURVE
10
1507.0111
20
-36.7009
30
0.0
0
VERTEX
8
CURVE
10
1507.2637
20
-42.9458
30
0.0
0
VERTEX
8
CURVE
10
1507.4965
20
-49.1915
30
0.0
0
VERTEX
8
CURVE
10
1507.7093
20
-55.4379
30
0.0
0
VERTEX
8
CURVE
10
1507.9023
20
-61.6849
30
0.0
0
VERTEX
8
CURVE
10
1508.0753
20
-67.9325
30
0.0
0
VERTEX
8
CURVE
10
1508.2283
20
-74.1806
30
0.0
0
VERTEX
8
CURVE
10
1508.3615
20
-80.4292
30
0.0
0
VERTEX
8
CURVE
10
1508.4747
20
-86.6781
30
0.0
0
SEQEND
0
POLYLINE
8
LOT_LINE
66
1
70
1
0
VERTEX
8
LOT_LINE
10
1429.3393
20
10.0711
30
0.0
0
VERTEX
8
LOT_LINE
10
1504.2731
20
13.2227
30
0.0
0
VERTEX
8
LOT_LINE
10
1504.6849
20
6.9863
30
0.0
0
VERTEX
8
LOT_LINE
10
1505.0769
20
0.7486
30
0.0
0
VERTEX
8
LOT_LINE
10
1505.4491
20
-5.4903
30
0.0
0
VERTEX
8
LOT_LINE
10
1505.8013
20
-11.7304
30
0.0
0
VERTEX
8
LOT_LINE
10
1506.1336
20
-17.9715
30
0.0
0
VERTEX
8
LOT_LINE
10
1506.4460
20
-24.2137
30
0.0
0
VERTEX
8
LOT_LINE
10
1506.7385
20
-30.4569
30
0.0
0
VERTEX
8
LOT_LINE
10
1507.0111
20
-36.7009
30
0.0
0
VERTEX
8
LOT_LINE
10
1507.2637
20
-42.9458
30
0.0
0
VERTEX
8
LOT_LINE
10
1507.4965
20
-49.1915
30
0.0
0
VERTEX
8
LOT_LINE
10
1507.7093
20
-55.4379
30
0.0
0
VERTEX
8
LOT_LINE
10
1507.9023
20
-61.6849
30
0.0
0
VERTEX
8
LOT_LINE
10
1508.0753
20
-67.9325
30
0.0
0
VERTEX
8
LOT_LINE
10
1508.2283
20
-74.1806
30
0.0
0
VERTEX
8
LOT_LINE
10
1508.3615
20
-80.4292
30
0.0
0
VERTEX
8
LOT_LINE
10
1508.4751
20
-86.6890
30
0.0
0
VERTEX
8
LOT_LINE
10
1433.5414
20
-89.8406
30
0.0
0
SEQEND
0
TEXT
8
TEXT-LABELS
7
STANDARD
10
1468.9072
20
-38.3089
30
0.0
40
8.0
1
19
50
0.0
0
TEXT
8
DIM-LABELS
7
STANDARD
10
1466.9532
20
8.1500
30
0.0
40
5.5
1
75.0'
50
0.0
0
TEXT
8
DIM-LABELS
7
STANDARD
10
1502.8772
20
-36.8802
30
0.0
40
5.5
1
100.0'
50
0.0
0
TEXT
8
DIM-LABELS
7
STANDARD
10
1470.8612
20
-84.7679
30
0.0
40
5.5
1
75.0'
50
0.0
0
TEXT
8
DIM-LABELS
7
STANDARD
10
1434.9373
20
-39.7376
30
0.0
40
5.5
1
100.0'
50
0.0
0
POLYLINE
8
LOT_LINE
66
1
70
1
0
VERTEX
8
LOT_LINE
10
218.6389
20
-200.9901
30
0.0
0
VERTEX
8
LOT_LINE
10
312.0563
20
-197.0611
30
0.0
0
VERTEX
8
LOT_LINE
10
316.2584
20
-296.9728
30
0.0
0
VERTEX
8
LOT_LINE
10
222.8410
20
-300.9018
30
0.0
0
SEQEND
0
TEXT
8
TEXT-LABELS
7
STANDARD
10
267.4487
20
-248.9815
30
0.0
40
8.0
1
1
50
0.0
0
TEXT
8
DIM-LABELS
7
STANDARD
10
265.4947
20
-202.5225
30
0.0
40
5.5
1
93.5'
50
0.0
0
TEXT
8
DIM-LABELS
7
STANDARD
10
310.6605
20
-247.1641
30
0.0
40
5.5
1
100.0'
50
0.0
0
TEXT
8
DIM-LABELS
7
STANDARD
10
269.4026
20
-295.4404
30
0.0
40
5.5
1
93.5'
50
0.0
0
TEXT
8
DIM-LABELS
7
STANDARD
10
224.2369
20
-250.7989
30
0.0
40
5.5
1
100.0'
50
0.0
0
POLYLINE
8
LOT_LINE
66
1
70
1
0
VERTEX
8
LOT_LINE
10
312.0563
20
-197.0611
30
0.0
0
VERTEX
8
LOT_LINE
10
386.9901
20
-193.9096
30
0.0
0
VERTEX
8
LOT_LINE
10
391.1922
20
-293.8212
30
0.0
0
VERTEX
8
LOT_LINE
10
316.2584
20
-296.9728
30
0.0
0
SEQEND
0
TEXT
8
TEXT-LABELS
7
STANDARD
10
351.6243
20
-245.4412
30
0.0
40
8.0
1
2
50
0.0
0
TEXT
8
DIM-LABELS
7
STANDARD
10
349.6703
20
-198.9823
30
0.0
40
5.5
1
75.0'
50
0.0
0
TEXT
8
DIM-LABELS
7
STANDARD
10
385.5942
20
-244.0125
30
0.0
40
5.5
1
100.0'
50
0.0
0
TEXT
8
DIM-LABELS
7
STANDARD
10
353.5782
20
-291.9001
30
0.0
40
5.5
1
75.0'
50
0.0
0
TEXT
8
DIM-LABELS
7
STANDARD
10
317.6543
20
-246.8699
30
0.0
40
5.5
1
100.0'
50
0.0
0
POLYLINE
8
LOT_LINE
66
1
70
1
0
VERTEX
8
LOT_LINE
10
386.9901
20
-193.9096
30
0.0
0
VERTEX
8
LOT_LINE
10
461.9238
20
-190.7580
30
0.0
0
VERTEX
8
LOT_LINE
10
466.1259
20
-290.6697
30
0.0
0
VERTEX
8
LOT_LINE
10
391.1922
20
-293.8212
30
0.0
0
SEQEND
0
TEXT
8
TEXT-LABELS
7
STANDARD
10
426.5580
20
-242.2896
30
0.0
40
8.0
1
3
50
0.0
0
TEXT
8
DIM-LABELS
7
STANDARD
10
424.6040
20
-195.8307
30
0.0
40
5.5
1
75.0'
50
0.0
0
TEXT
8
DIM-LABELS
7
STANDARD
10
460.5280
20
-240.8609
30
0.0
40
5.5
1
100.0'
50
0.0
0
TEXT
8
DIM-LABELS
7
STANDARD
10
428.5120
20
-288.7486
30
0.0
40
5.5
1
75.0'
50
0.0
0
TEXT
8
DIM-LABELS
7
STANDARD
10
392.5880
20
-243.7183
30
0.0
40
5.5
1
100.0'
50
0.0
0
POLYLINE
8
LOT_LINE
66
1
70
1
0
VERTEX
8
LOT_LINE
10
461.9238
20
-190.7580
30
0.0
0
VERTEX
8
LOT_LINE
10
536.8576
20
-187.6064
30
0.0
0
VERTEX
8
LOT_LINE
10
541.0597
20
-287.5181
30
0.0
0
VERTEX
8
LOT_LINE
10
466.1259
20
-290.6697
30
0.0
0
SEQEND
0
TEXT
8
TEXT-LABELS
7
STANDARD
10
501.4918
20
-239.1381
30
0.0
40
8.0
1
4
50
0.0
0
TEXT
8
DIM-LABELS
7
STANDARD
10
499.5378
20
-192.6791
30
0.0
40
5.5
1
75.0'
50
0.0
0
TEXT
8
DIM-LABELS
7
STANDARD
10
535.4617
20
-237.7093
30
0.0
40
5.5
1
100.0'
50
0.0
0
TEXT
8
DIM-LABELS
7
STANDARD
10
503.4457
20
-285.5970
30
0.0
40
5.5
1
75.0'
50
0.0
0
TEXT
8
DIM-LABELS
7
STANDARD
10
467.5218
20
-240.5668
30
0.0
40
5.5
1
100.0'
50
0.0
0
POLYLINE
8
LOT_LINE
66
1
70
1
0
VERTEX
8
LOT_LINE
10
536.8576
20
-187.6064
30
0.0
0
VERTEX
8
LOT_LINE
10
611.7913
20
-184.4549
30
0.0
0
VERTEX
8
LOT_LINE
10
615.9934
20
-284.3665
30
0.0
0
VERTEX
8
LOT_LINE
10
541.0597
20
-287.5181
30
0.0
0
SEQEND
0
TEXT
8
TEXT-LABELS
7
STANDARD
10
576.4255
20
-235.9865
30
0.0
40
8.0
1
5
50
0.0
0
TEXT
8
DIM-LABELS
7
STANDARD
10
574.4715
20
-189.5276
30
0.0
40
5.5
1
75.0'
50
0.0
0
TEXT
8
DIM-LABELS
7
STANDARD
10
610.3955
20
-234.5578
30
0.0
40
5.5
1
100.0'
50
0.0
0
TEXT
8
DIM-LABELS
7
STANDARD
10
578.3795
20
-282.4454
30
0.0
40
5.5
1
75.0'
50
0.0
0
TEXT
8
DIM-LABELS
7
STANDARD
10
542.4556
20
-237.4152
30
0.0
40
5.5
1
100.0'
50
0.0
0
POLYLINE
8
LOT_LINE
66
1
70
1
0
VERTEX
8
LOT_LINE
10
611.7913
20
-184.4549
30
0.0
0
VERTEX
8
LOT_LINE
10
686.7251
20
-181.3033
30
0.0
0
VERTEX
8
LOT_LINE
10
690.9272
20
-281.2150
30
0.0
0
VERTEX
8
LOT_LINE
10
615.9934
20
-284.3665
30
0.0
0
SEQEND
0
TEXT
8
TEXT-LABELS
7
STANDARD
10
651.3593
20
-232.8349
30
0.0
40
8.0
1
6
50
0.0
0
TEXT
8
DIM-LABELS
7
STANDARD
10
649.4053
20
-186.3760
30
0.0
40
5.5
1
75.0'
50
0.0
0
TEXT
8
DIM-LABELS
7
STANDARD
10
685.3292
20
-231.4062
30
0.0
40
5.5
1
100.0'
50
0.0
0
TEXT
8
DIM-LABELS
7
STANDARD
10
653.3133
20
-279.2938
30
0.0
40
5.5
1
75.0'
50
0.0
0
TEXT
8
DIM-LABELS
7
STANDARD
10
617.3893
20
-234.2636
30
0.0
40
5.5
1
100.0'
50
0.0
0
POLYLINE
8
LOT_LINE
66
1
70
1
0
VERTEX
8
LOT_LINE
10
686.7251
20
-181.3033
30
0.0
0
VERTEX
8
LOT_LINE
10
761.6589
20
-178.1517
30
0.0
0
VERTEX
8
LOT_LINE
10
765.8610
20
-278.0634
30
0.0
0
VERTEX
8
LOT_LINE
10
690.9272
20
-281.2150
30
0.0
0
SEQEND
0
TEXT
8
TEXT-LABELS
7
STANDARD
10
726.2930
20
-229.6833
30
0.0
40
8.0
1
7
50
0.0
0
TEXT
8
DIM-LABELS
7
STANDARD
10
724.3391
20
-183.2244
30
0.0
40
5.5
1
75.0'
50
0.0
0
TEXT
8
DIM-LABELS
7
STANDARD
10
760.2630
20
-228.2546
30
0.0
40
5.5
1
100.0'
50
0.0
0
TEXT
8
DIM-LABELS
7
STANDARD
10
728.2470
20
-276.1423
30
0.0
40
5.5
1
75.0'
50
0.0
0
TEXT
8
DIM-LABELS
7
STANDARD
10
692.3231
20
-231.1120
30
0.0
40
5.5
1
100.0'
50
0.0
0
POLYLINE
8
LOT_LINE
66
1
70
1
0
VERTEX
8
LOT_LINE
10
761.6589
20
-178.1517
30
0.0
0
VERTEX
8
LOT_LINE
10
836.5926
20
-175.0001
30
0.0
0
VERTEX
8
LOT_LINE
10
840.7947
20
-274.9118
30
0.0
0
VERTEX
8
LOT_LINE
10
765.8610
20
-278.0634
30
0.0
0
SEQEND
0
TEXT
8
TEXT-LABELS
7
STANDARD
10
801.2268
20
-226.5318
30
0.0
40
8.0
1
8
50
0.0
0
TEXT
8
DIM-LABELS
7
STANDARD
10
799.2728
20
-180.0728
30
0.0
40
5.5
1
75.0'
50
0.0
0
TEXT
8
DIM-LABELS
7
STANDARD
10
835.1968
20
-225.1030
30
0.0
40
5.5
1
100.0'
50
0.0
0
TEXT
8
DIM-LABELS
7
STANDARD
10
803.1808
20
-272.9907
30
0.0
40
5.5
1
75.0'
50
0.0
0
TEXT
8
DIM-LABELS
7
STANDARD
10
767.2568
20
-227.9605
30
0.0
40
5.5
1
100.0'
50
0.0
0
POLYLINE
8
LOT_LINE
66
1
70
1
0
VERTEX
8
LOT_LINE
10
836.5926
20
-175.0001
30
0.0
0
VERTEX
8
LOT_LINE
10
911.5264
20
-171.8486
30
0.0
0
VERTEX
8
LOT_LINE
10
915.7285
20
-271.7602
30
0.0
0
VERTEX
8
LOT_LINE
10
840.7947
20
-274.9118
30
0.0
0
SEQEND
0
TEXT
8
TEXT-LABELS
7
STANDARD
10
876.1605
20
-223.3802
30
0.0
40
8.0
1
9
50
0.0
0
TEXT
8
DIM-LABELS
7
STANDARD
10
874.2066
20
-176.9213
30
0.0
40
5.5
1
75.0'
50
0.0
0
TEXT
8
DIM-LABELS
7
STANDARD
10
910.1305
20
-221.9515
30
0.0
40
5.5
1
100.0'
50
0.0
0
TEXT
8
DIM-LABELS
7
STANDARD
10
878.1145
20
-269.8391
30
0.0
40
5.5
1
75.0'
50
0.0
0
TEXT
8
DIM-LABELS
7
STANDARD
10
842.1906
20
-224.8089
30
0.0
40
5.5
1
100.0'
50
0.0
0
POLYLINE
8
LOT_LINE
66
1
70
1
0
VERTEX
8
LOT_LINE
10
911.5264
20
-171.8486
30
0.0
0
VERTEX
8
LOT_LINE
10
986.4601
20
-168.6970
30
0.0
0
VERTEX
8
LOT_LINE
10
990.6622
20
-268.6087
30
0.0
0
VERTEX
8
LOT_LINE
10
915.7285
20
-271.7602
30
0.0
0
SEQEND
0
TEXT
8
TEXT-LABELS
7
STANDARD
10
951.0943
20
-220.2286
30
0.0
40
8.0
1
10
50
0.0
0
TEXT
8
DIM-LABELS
7
STANDARD
10
949.1403
20
-173.7697
30
0.0
40
5.5
1
75.0'
50
0.0
0
TEXT
8
DIM-LABELS
7
STANDARD
10
985.0643
20
-218.7999
30
0.0
40
5.5
1
100.0'
50
0.0
0
TEXT
8
DIM-LABELS
7
STANDARD
10
953.0483
20
-266.6875
30
0.0
40
5.5
1
75.0'
50
0.0
0
TEXT
8
DIM-LABELS
7
STANDARD
10
917.1243
20
-221.6573
30
0.0
40
5.5
1
100.0'
50
0.0
0
POLYLINE
8
LOT_LINE
66
1
70
1
0
VERTEX
8
LOT_LINE
10
986.4601
20
-168.6970
30
0.0
0
VERTEX
8
LOT_LINE
10
1061.3939
20
-165.5454
30
0.0
0
VERTEX
8
LOT_LINE
10
1065.5960
20
-265.4571
30
0.0
0
VERTEX
8
LOT_LINE
10
990.6622
20
-268.6087
30
0.0
0
SEQEND
0
TEXT
8
TEXT-LABELS
7
STANDARD
10
1026.0280
20
-217.0770
30
0.0
40
8.0
1
11
50
0.0
0
TEXT
8
DIM-LABELS
7
STANDARD
10
1024.0741
20
-170.6181
30
0.0
40
5.5
1
75.0'
50
0.0
0
TEXT
8
DIM-LABELS
7
STANDARD
10
1059.9980
20
-215.6483
30
0.0
40
5.5
1
100.0'
50
0.0
0
TEXT
8
DIM-LABELS
7
STANDARD
10
1027.9820
20
-263.5360
30
0.0
40
5.5
1
75.0'
50
0.0
0
TEXT
8
DIM-LABELS
7
STANDARD
10
992.0581
20
-218.5058
30
0.0
40
5.5
1
100.0'
50
0.0
0
POLYLINE
8
LOT_LINE
66
1
70
1
0
VERTEX
8
LOT_LINE
10
1061.3939
20
-165.5454
30
0.0
0
VERTEX
8
LOT_LINE
10
1136.3276
20
-162.3938
30
0.0
0
VERTEX
8
LOT_LINE
10
1140.5297
20
-262.3055
30
0.0
0
VERTEX
8
LOT_LINE
10
1065.5960
20
-265.4571
30
0.0
0
SEQEND
0
TEXT
8
TEXT-LABELS
7
STANDARD
10
1100.9618
20
-213.9255
30
0.0
40
8.0
1
12
50
0.0
0
TEXT
8
DIM-LABELS
7
STANDARD
10
1099.0078
20
-167.4665
30
0.0
40
5.5
1
75.0'
50
0.0
0
TEXT
8
DIM-LABELS
7
STANDARD
10
1134.9318
20
-212.4968
30
0.0
40
5.5
1
100.0'
50
0.0
0
TEXT
8
DIM-LABELS
7
STANDARD
10
1102.9158
20
-260.3844
30
0.0
40
5.5
1
75.0'
50
0.0
0
TEXT
8
DIM-LABELS
7
STANDARD
10
1066.9918
20
-215.3542
30
0.0
40
5.5
1
100.0'
50
0.0
0
POLYLINE
8
LOT_LINE
66
1
70
1
0
VERTEX
8
LOT_LINE
10
1136.3276
20
-162.3938
30
0.0
0
VERTEX
8
LOT_LINE
10
1211.2614
20
-159.2423
30
0.0
0
VERTEX
8
LOT_LINE
10
1215.4635
20
-259.1539
30
0.0
0
VERTEX
8
LOT_LINE
10
1140.5297
20
-262.3055
30
0.0
0
SEQEND
0
TEXT
8
TEXT-LABELS
7
STANDARD
10
1175.8956
20
-210.7739
30
0.0
40
8.0
1
13
50
0.0
0
TEXT
8
DIM-LABELS
7
STANDARD
10
1173.9416
20
-164.3150
30
0.0
40
5.5
1
75.0'
50
0.0
0
TEXT
8
DIM-LABELS
7
STANDARD
10
1209.8655
20
-209.3452
30
0.0
40
5.5
1
100.0'
50
0.0
0
TEXT
8
DIM-LABELS
7
STANDARD
10
1177.8495
20
-257.2328
30
0.0
40
5.5
1
75.0'
50
0.0
0
TEXT
8
DIM-LABELS
7
STANDARD
10
1141.9256
20
-212.2026
30
0.0
40
5.5
1
100.0'
50
0.0
0
POLYLINE
8
LOT_LINE
66
1
70
1
0
VERTEX
8
LOT_LINE
10
1211.2614
20
-159.2423
30
0.0
0
VERTEX
8
LOT_LINE
10
1286.1951
20
-156.0907
30
0.0
0
VERTEX
8
LOT_LINE
10
1290.3972
20
-256.0024
30
0.0
0
VERTEX
8
LOT_LINE
10
1215.4635
20
-259.1539
30
0.0
0
SEQEND
0
TEXT
8
TEXT-LABELS
7
STANDARD
10
1250.8293
20
-207.6223
30
0.0
40
8.0
1
14
50
0.0
0
TEXT
8
DIM-LABELS
7
STANDARD
10
1248.8753
20
-161.1634
30
0.0
40
5.5
1
75.0'
50
0.0
0
TEXT
8
DIM-LABELS
7
STANDARD
10
1284.7993
20
-206.1936
30
0.0
40
5.5
1
100.0'
50
0.0
0
TEXT
8
DIM-LABELS
7
STANDARD
10
1252.7833
20
-254.0813
30
0.0
40
5.5
1
75.0'
50
0.0
0
TEXT
8
DIM-LABELS
7
STANDARD
10
1216.8593
20
-209.0510
30
0.0
40
5.5
1
100.0'
50
0.0
0
POLYLINE
8
LOT_LINE
66
1
70
1
0
VERTEX
8
LOT_LINE
10
1286.1951
20
-156.0907
30
0.0
0
VERTEX
8
LOT_LINE
10
1361.1289
20
-152.9391
30
0.0
0
VERTEX
8
LOT_LINE
10
1365.3310
20
-252.8508
30
0.0
0
VERTEX
8
LOT_LINE
10
1290.3972
20
-256.0024
30
0.0
0
SEQEND
0
TEXT
8
TEXT-LABELS
7
STANDARD
10
1325.7631
20
-204.4708
30
0.0
40
8.0
1
15
50
0.0
0
TEXT
8
DIM-LABELS
7
STANDARD
10
1323.8091
20
-158.0118
30
0.0
40
5.5
1
75.0'
50
0.0
0
TEXT
8
DIM-LABELS
7
STANDARD
10
1359.7330
20
-203.0420
30
0.0
40
5.5
1
100.0'
50
0.0
0
TEXT
8
DIM-LABELS
7
STANDARD
10
1327.7170
20
-250.9297
30
0.0
40
5.5
1
75.0'
50
0.0
0
TEXT
8
DIM-LABELS
7
STANDARD
10
1291.7931
20
-205.8995
30
0.0
40
5.5
1
100.0'
50
0.0
0
POLYLINE
8
LOT_LINE
66
1
70
1
0
VERTEX
8
LOT_LINE
10
1361.1289
20
-152.9391
30
0.0
0
VERTEX
8
LOT_LINE
10
1436.0627
20
-149.7876
30
0.0
0
VERTEX
8
LOT_LINE
10
1440.2647
20
-249.6992
30
0.0
0
VERTEX
8
LOT_LINE
10
1365.3310
20
-252.8508
30
0.0
0
SEQEND
0
TEXT
8
TEXT-LABELS
7
STANDARD
10
1400.6968
20
-201.3192
30
0.0
40
8.0
1
16
50
0.0
0
TEXT
8
DIM-LABELS
7
STANDARD
10
1398.7428
20
-154.8603
30
0.0
40
5.5
1
75.0'
50
0.0
0
TEXT
8
DIM-LABELS
7
STANDARD
10
1434.6668
20
-199.8905
30
0.0
40
5.5
1
100.0'
50
0.0
0
TEXT
8
DIM-LABELS
7
STANDARD
10
1402.6508
20
-247.7781
30
0.0
40
5.5
1
75.0'
50
0.0
0
TEXT
8
DIM-LABELS
7
STANDARD
10
1366.7269
20
-202.7479
30
0.0
40
5.5
1
100.0'
50
0.0
0
POLYLINE
8
CURVE
66
1
70
0
0
VERTEX
8
CURVE
10
1510.9964
20
-146.6360
30
0.0
0
VERTEX
8
CURVE
10
1511.4083
20
-152.8724
30
0.0
0
VERTEX
8
CURVE
10
1511.8003
20
-159.1101
30
0.0
0
VERTEX
8
CURVE
10
1512.1724
20
-165.3490
30
0.0
0
VERTEX
8
CURVE
10
1512.5246
20
-171.5891
30
0.0
0
VERTEX
8
CURVE
10
1512.8569
20
-177.8302
30
0.0
0
VERTEX
8
CURVE
10
1513.1693
20
-184.0724
30
0.0
0
VERTEX
8
CURVE
10
1513.4618
20
-190.3156
30
0.0
0
VERTEX
8
CURVE
10
1513.7344
20
-196.5596
30
0.0
0
VERTEX
8
CURVE
10
1513.9871
20
-202.8045
30
0.0
0
VERTEX
8
CURVE
10
1514.2199
20
-209.0502
30
0.0
0
VERTEX
8
CURVE
10
1514.4327
20
-215.2965
30
0.0
0
VERTEX
8
CURVE
10
1514.6256
20
-221.5435
30
0.0
0
VERTEX
8
CURVE
10
1514.7986
20
-227.7912
30
0.0
0
VERTEX
8
CURVE
10
1514.9517
20
-234.0393
30
0.0
0
VERTEX
8
CURVE
10
1515.0848
20
-240.2879
30
0.0
0
VERTEX
8
CURVE
10
1515.1980
20
-246.5368
30
0.0
0
SEQEND
0
POLYLINE
8
LOT_LINE
66
1
70
1
0
VERTEX
8
LOT_LINE
10
1436.0627
20
-149.7876
30
0.0
0
VERTEX
8
LOT_LINE
10
1510.9964
20
-146.6360
30
0.0
0
VERTEX
8
LOT_LINE
10
1511.4083
20
-152.8724
30
0.0
0
VERTEX
8
LOT_LINE
10
1511.8003
20
-159.1101
30
0.0
0
VERTEX
8
LOT_LINE
10
1512.1724
20
-165.3490
30
0.0
0
VERTEX
8
LOT_LINE
10
1512.5246
20
-171.5891
30
0.0
0
VERTEX
8
LOT_LINE
10
1512.8569
20
-177.8302
30
0.0
0
VERTEX
8
LOT_LINE
10
1513.1693
20
-184.0724
30
0.0
0
VERTEX
8
LOT_LINE
10
1513.4618
20
-190.3156
30
0.0
0
VERTEX
8
LOT_LINE
10
1513.7344
20
-196.5596
30
0.0
0
VERTEX
8
LOT_LINE
10
1513.9871
20
-202.8045
30
0.0
0
VERTEX
8
LOT_LINE
10
1514.2199
20
-209.0502
30
0.0
0
VERTEX
8
LOT_LINE
10
1514.4327
20
-215.2965
30
0.0
0
VERTEX
8
LOT_LINE
10
1514.6256
20
-221.5435
30
0.0
0
VERTEX
8
LOT_LINE
10
1514.7986
20
-227.7912
30
0.0
0
VERTEX
8
LOT_LINE
10
1514.9517
20
-234.0393
30
0.0
0
VERTEX
8
LOT_LINE
10
1515.0848
20
-240.2879
30
0.0
0
VERTEX
8
LOT_LINE
10
1515.1985
20
-246.5477
30
0.0
0
VERTEX
8
LOT_LINE
10
1440.2647
20
-249.6992
30
0.0
0
SEQEND
0
TEXT
8
TEXT-LABELS
7
STANDARD
10
1475.6306
20
-198.1676
30
0.0
40
8.0
1
17
50
0.0
0
TEXT
8
DIM-LABELS
7
STANDARD
10
1473.6766
20
-151.7087
30
0.0
40
5.5
1
75.0'
50
0.0
0
TEXT
8
DIM-LABELS
7
STANDARD
10
1509.6005
20
-196.7389
30
0.0
40
5.5
1
100.0'
50
0.0
0
TEXT
8
DIM-LABELS
7
STANDARD
10
1477.5846
20
-244.6265
30
0.0
40
5.5
1
75.0'
50
0.0
0
TEXT
8
DIM-LABELS
7
STANDARD
10
1441.6606
20
-199.5963
30
0.0
40
5.5
1
100.0'
50
0.0
0
POLYLINE
8
LOT_LINE
66
1
70
1
0
VERTEX
8
LOT_LINE
10
222.8410
20
-300.9018
30
0.0
0
VERTEX
8
LOT_LINE
10
316.2584
20
-296.9728
30
0.0
0
VERTEX
8
LOT_LINE
10
320.4605
20
-396.8845
30
0.0
0
VERTEX
8
LOT_LINE
10
227.0431
20
-400.8135
30
0.0
0
SEQEND
0
TEXT
8
TEXT-LABELS
7
STANDARD
10
271.6508
20
-348.8931
30
0.0
40
8.0
1
34
50
0.0
0
TEXT
8
DIM-LABELS
7
STANDARD
10
269.6968
20
-302.4342
30
0.0
40
5.5
1
93.5'
50
0.0
0
TEXT
8
DIM-LABELS
7
STANDARD
10
314.8626
20
-347.0757
30
0.0
40
5.5
1
100.0'
50
0.0
0
TEXT
8
DIM-LABELS
7
STANDARD
10
273.6047
20
-395.3521
30
0.0
40
5.5
1
93.5'
50
0.0
0
TEXT
8
DIM-LABELS
7
STANDARD
10
228.4390
20
-350.7105
30
0.0
40
5.5
1
100.0'
50
0.0
0
POLYLINE
8
LOT_LINE
66
1
70
1
0
VERTEX
8
LOT_LINE
10
316.2584
20
-296.9728
30
0.0
0
VERTEX
8
LOT_LINE
10
391.1922
20
-293.8212
30
0.0
0
VERTEX
8
LOT_LINE
10
395.3943
20
-393.7329
30
0.0
0
VERTEX
8
LOT_LINE
10
320.4605
20
-396.8845
30
0.0
0
SEQEND
0
TEXT
8
TEXT-LABELS
7
STANDARD
10
355.8264
20
-345.3529
30
0.0
40
8.0
1
33
50
0.0
0
TEXT
8
DIM-LABELS
7
STANDARD
10
353.8724
20
-298.8939
30
0.0
40
5.5
1
75.0'
50
0.0
0
TEXT
8
DIM-LABELS
7
STANDARD
10
389.7963
20
-343.9242
30
0.0
40
5.5
1
100.0'
50
0.0
0
TEXT
8
DIM-LABELS
7
STANDARD
10
357.7803
20
-391.8118
30
0.0
40
5.5
1
75.0'
50
0.0
0
TEXT
8
DIM-LABELS
7
STANDARD
10
321.8564
20
-346.7816
30
0.0
40
5.5
1
100.0'
50
0.0
0
POLYLINE
8
LOT_LINE
66
1
70
1
0
VERTEX
8
LOT_LINE
10
391.1922
20
-293.8212
30
0.0
0
VERTEX
8
LOT_LINE
10
466.1259
20
-290.6697
30
0.0
0
VERTEX
8
LOT_LINE
10
470.3280
20
-390.5813
30
0.0
0
VERTEX
8
LOT_LINE
10
395.3943
20
-393.7329
30
0.0
0
SEQEND
0
TEXT
8
TEXT-LABELS
7
STANDARD
10
430.7601
20
-342.2013
30
0.0
40
8.0
1
32
50
0.0
0
TEXT
8
DIM-LABELS
7
STANDARD
10
428.8061
20
-295.7424
30
0.0
40
5.5
1
75.0'
50
0.0
0
TEXT
8
DIM-LABELS
7
STANDARD
10
464.7301
20
-340.7726
30
0.0
40
5.5
1
100.0'
50
0.0
0
TEXT
8
DIM-LABELS
7
STANDARD
10
432.7141
20
-388.6602
30
0.0
40
5.5
1
75.0'
50
0.0
0
TEXT
8
DIM-LABELS
7
STANDARD
10
396.7901
20
-343.6300
30
0.0
40
5.5
1
100.0'
50
0.0
0
POLYLINE
8
LOT_LINE
66
1
70
1
0
VERTEX
8
LOT_LINE
10
466.1259
20
-290.6697
30
0.0
0
VERTEX
8
LOT_LINE
10
541.0597
20
-287.5181
30
0.0
0
VERTEX
8
LOT_LINE
10
545.2618
20
-387.4298
30
0.0
0
VERTEX
8
LOT_LINE
10
470.3280
20
-390.5813
30
0.0
0
SEQEND
0
TEXT
8
TEXT-LABELS
7
STANDARD
10
505.6939
20
-339.0497
30
0.0
40
8.0
1
31
50
0.0
0
TEXT
8
DIM-LABELS
7
STANDARD
10
503.7399
20
-292.5908
30
0.0
40
5.5
1
75.0'
50
0.0
0
TEXT
8
DIM-LABELS
7
STANDARD
10
539.6638
20
-337.6210
30
0.0
40
5.5
1
100.0'
50
0.0
0
TEXT
8
DIM-LABELS
7
STANDARD
10
507.6478
20
-385.5087
30
0.0
40
5.5
1
75.0'
50
0.0
0
TEXT
8
DIM-LABELS
7
STANDARD
10
471.7239
20
-340.4784
30
0.0
40
5.5
1
100.0'
50
0.0
0
POLYLINE
8
LOT_LINE
66
1
70
1
0
VERTEX
8
LOT_LINE
10
541.0597
20
-287.5181
30
0.0
0
VERTEX
8
LOT_LINE
10
615.9934
20
-284.3665
30
0.0
0
VERTEX
8
LOT_LINE
10
620.1955
20
-384.2782
30
0.0
0
VERTEX
8
LOT_LINE
10
545.2618
20
-387.4298
30
0.0
0
SEQEND
0
TEXT
8
TEXT-LABELS
7
STANDARD
10
580.6276
20
-335.8982
30
0.0
40
8.0
1
30
50
0.0
0
TEXT
8
DIM-LABELS
7
STANDARD
10
578.6736
20
-289.4392
30
0.0
40
5.5
1
75.0'
50
0.0
0
TEXT
8
DIM-LABELS
7
STANDARD
10
614.5976
20
-334.4694
30
0.0
40
5.5
1
100.0'
50
0.0
0
TEXT
8
DIM-LABELS
7
STANDARD
10
582.5816
20
-382.3571
30
0.0
40
5.5
1
75.0'
50
0.0
0
TEXT
8
DIM-LABELS
7
STANDARD
10
546.6576
20
-337.3269
30
0.0
40
5.5
1
100.0'
50
0.0
0
POLYLINE
8
LOT_LINE
66
1
70
1
0
VERTEX
8
LOT_LINE
10
615.9934
20
-284.3665
30
0.0
0
VERTEX
8
LOT_LINE
10
690.9272
20
-281.2150
30
0.0
0
VERTEX
8
LOT_LINE
10
695.1293
20
-381.1266
30
0.0
0
VERTEX
8
LOT_LINE
10
620.1955
20
-384.2782
30
0.0
0
SEQEND
0
TEXT
8
TEXT-LABELS
7
STANDARD
10
655.5614
20
-332.7466
30
0.0
40
8.0
1
29
50
0.0
0
TEXT
8
DIM-LABELS
7
STANDARD
10
653.6074
20
-286.2877
30
0.0
40
5.5
1
75.0'
50
0.0
0
TEXT
8
DIM-LABELS
7
STANDARD
10
689.5313
20
-331.3179
30
0.0
40
5.5
1
100.0'
50
0.0
0
TEXT
8
DIM-LABELS
7
STANDARD
10
657.5153
20
-379.2055
30
0.0
40
5.5
1
75.0'
50
0.0
0
TEXT
8
DIM-LABELS
7
STANDARD
10
621.5914
20
-334.1753
30
0.0
40
5.5
1
100.0'
50
0.0
0
POLYLINE
8
LOT_LINE
66
1
70
1
0
VERTEX
8
LOT_LINE
10
690.9272
20
-281.2150
30
0.0
0
VERTEX
8
LOT_LINE
10
765.8610
20
-278.0634
30
0.0
0
VERTEX
8
LOT_LINE
10
770.0631
20
-377.9751
30
0.0
0
VERTEX
8
LOT_LINE
10
695.1293
20
-381.1266
30
0.0
0
SEQEND
0
TEXT
8
TEXT-LABELS
7
STANDARD
10
730.4951
20
-329.5950
30
0.0
40
8.0
1
28
50
0.0
0
TEXT
8
DIM-LABELS
7
STANDARD
10
728.5412
20
-283.1361
30
0.0
40
5.5
1
75.0'
50
0.0
0
TEXT
8
DIM-LABELS
7
STANDARD
10
764.4651
20
-328.1663
30
0.0
40
5.5
1
100.0'
50
0.0
0
TEXT
8
DIM-LABELS
7
STANDARD
10
732.4491
20
-376.0539
30
0.0
40
5.5
1
75.0'
50
0.0
0
TEXT
8
DIM-LABELS
7
STANDARD
10
696.5252
20
-331.0237
30
0.0
40
5.5
1
100.0'
50
0.0
0
POLYLINE
8
LOT_LINE
66
1
70
1
0
VERTEX
8
LOT_LINE
10
765.8610
20
-278.0634
30
0.0
0
VERTEX
8
LOT_LINE
10
840.7947
20
-274.9118
30
0.0
0
VERTEX
8
LOT_LINE
10
844.9968
20
-374.8235
30
0.0
0
VERTEX
8
LOT_LINE
10
770.0631
20
-377.9751
30
0.0
0
SEQEND
0
TEXT
8
TEXT-LABELS
7
STANDARD
10
805.4289
20
-326.4434
30
0.0
40
8.0
1
27
50
0.0
0
TEXT
8
DIM-LABELS
7
STANDARD
10
803.4749
20
-279.9845
30
0.0
40
5.5
1
75.0'
50
0.0
0
TEXT
8
DIM-LABELS
7
STANDARD
10
839.3989
20
-325.0147
30
0.0
40
5.5
1
100.0'
50
0.0
0
TEXT
8
DIM-LABELS
7
STANDARD
10
807.3829
20
-372.9024
30
0.0
40
5.5
1
75.0'
50
0.0
0
TEXT
8
DIM-LABELS
7
STANDARD
10
771.4589
20
-327.8721
30
0.0
40
5.5
1
100.0'
50
0.0
0
POLYLINE
8
LOT_LINE
66
1
70
1
0
VERTEX
8
LOT_LINE
10
840.7947
20
-274.9118
30
0.0
0
VERTEX
8
LOT_LINE
10
915.7285
20
-271.7602
30
0.0
0
VERTEX
8
LOT_LINE
10
919.9306
20
-371.6719
30
0.0
0
VERTEX
8
LOT_LINE
10
844.9968
20
-374.8235
30
0.0
0
SEQEND
0
TEXT
8
TEXT-LABELS
7
STANDARD
10
880.3626
20
-323.2919
30
0.0
40
8.0
1
26
50
0.0
0
TEXT
8
DIM-LABELS
7
STANDARD
10
878.4087
20
-276.8329
30
0.0
40
5.5
1
75.0'
50
0.0
0
TEXT
8
DIM-LABELS
7
STANDARD
10
914.3326
20
-321.8631
30
0.0
40
5.5
1
100.0'
50
0.0
0
TEXT
8
DIM-LABELS
7
STANDARD
10
882.3166
20
-369.7508
30
0.0
40
5.5
1
75.0'
50
0.0
0
TEXT
8
DIM-LABELS
7
STANDARD
10
846.3927
20
-324.7206
30
0.0
40
5.5
1
100.0'
50
0.0
0
POLYLINE
8
LOT_LINE
66
1
70
1
0
VERTEX
8
LOT_LINE
10
915.7285
20
-271.7602
30
0.0
0
VERTEX
8
LOT_LINE
10
990.6622
20
-268.6087
30
0.0
0
VERTEX
8
LOT_LINE
10
994.8643
20
-368.5203
30
0.0
0
VERTEX
8
LOT_LINE
10
919.9306
20
-371.6719
30
0.0
0
SEQEND
0
TEXT
8
TEXT-LABELS
7
STANDARD
10
955.2964
20
-320.1403
30
0.0
40
8.0
1
25
50
0.0
0
TEXT
8
DIM-LABELS
7
STANDARD
10
953.3424
20
-273.6814
30
0.0
40
5.5
1
75.0'
50
0.0
0
TEXT
8
DIM-LABELS
7
STANDARD
10
989.2664
20
-318.7116
30
0.0
40
5.5
1
100.0'
50
0.0
0
TEXT
8
DIM-LABELS
7
STANDARD
10
957.2504
20
-366.5992
30
0.0
40
5.5
1
75.0'
50
0.0
0
TEXT
8
DIM-LABELS
7
STANDARD
10
921.3264
20
-321.5690
30
0.0
40
5.5
1
100.0'
50
0.0
0
POLYLINE
8
LOT_LINE
66
1
70
1
0
VERTEX
8
LOT_LINE
10
990.6622
20
-268.6087
30
0.0
0
VERTEX
8
LOT_LINE
10
1065.5960
20
-265.4571
30
0.0
0
VERTEX
8
LOT_LINE
10
1069.7981
20
-365.3688
30
0.0
0
VERTEX
8
LOT_LINE
10
994.8643
20
-368.5203
30
0.0
0
SEQEND
0
TEXT
8
TEXT-LABELS
7
STANDARD
10
1030.2301
20
-316.9887
30
0.0
40
8.0
1
24
50
0.0
0
TEXT
8
DIM-LABELS
7
STANDARD
10
1028.2762
20
-270.5298
30
0.0
40
5.5
1
75.0'
50
0.0
0
TEXT
8
DIM-LABELS
7
STANDARD
10
1064.2001
20
-315.5600
30
0.0
40
5.5
1
100.0'
50
0.0
0
TEXT
8
DIM-LABELS
7
STANDARD
10
1032.1841
20
-363.4476
30
0.0
40
5.5
1
75.0'
50
0.0
0
TEXT
8
DIM-LABELS
7
STANDARD
10
996.2602
20
-318.4174
30
0.0
40
5.5
1
100.0'
50
0.0
0
POLYLINE
8
LOT_LINE
66
1
70
1
0
VERTEX
8
LOT_LINE
10
1065.5960
20
-265.4571
30
0.0
0
VERTEX
8
LOT_LINE
10
1140.5297
20
-262.3055
30
0.0
0
VERTEX
8
LOT_LINE
10
1144.7318
20
-362.2172
30
0.0
0
VERTEX
8
LOT_LINE
10
1069.7981
20
-365.3688
30
0.0
0
SEQEND
0
TEXT
8
TEXT-LABELS
7
STANDARD
10
1105.1639
20
-313.8371
30
0.0
40
8.0
1
23
50
0.0
0
TEXT
8
DIM-LABELS
7
STANDARD
10
1103.2099
20
-267.3782
30
0.0
40
5.5
1
75.0'
50
0.0
0
TEXT
8
DIM-LABELS
7
STANDARD
10
1139.1339
20
-312.4084
30
0.0
40
5.5
1
100.0'
50
0.0
0
TEXT
8
DIM-LABELS
7
STANDARD
10
1107.1179
20
-360.2961
30
0.0
40
5.5
1
75.0'
50
0.0
0
TEXT
8
DIM-LABELS
7
STANDARD
10
1071.1939
20
-315.2659
30
0.0
40
5.5
1
100.0'
50
0.0
0
POLYLINE
8
LOT_LINE
66
1
70
1
0
VERTEX
8
LOT_LINE
10
1140.5297
20
-262.3055
30
0.0
0
VERTEX
8
LOT_LINE
10
1215.4635
20
-259.1539
30
0.0
0
VERTEX
8
LOT_LINE
10
1219.6656
20
-359.0656
30
0.0
0
VERTEX
8
LOT_LINE
10
1144.7318
20
-362.2172
30
0.0
0
SEQEND
0
TEXT
8
TEXT-LABELS
7
STANDARD
10
1180.0977
20
-310.6856
30
0.0
40
8.0
1
22
50
0.0
0
TEXT
8
DIM-LABELS
7
STANDARD
10
1178.1437
20
-264.2266
30
0.0
40
5.5
1
75.0'
50
0.0
0
TEXT
8
DIM-LABELS
7
STANDARD
10
1214.0676
20
-309.2569
30
0.0
40
5.5
1
100.0'
50
0.0
0
TEXT
8
DIM-LABELS
7
STANDARD
10
1182.0516
20
-357.1445
30
0.0
40
5.5
1
75.0'
50
0.0
0
TEXT
8
DIM-LABELS
7
STANDARD
10
1146.1277
20
-312.1143
30
0.0
40
5.5
1
100.0'
50
0.0
0
POLYLINE
8
LOT_LINE
66
1
70
1
0
VERTEX
8
LOT_LINE
10
1215.4635
20
-259.1539
30
0.0
0
VERTEX
8
LOT_LINE
10
1290.3972
20
-256.0024
30
0.0
0
VERTEX
8
LOT_LINE
10
1294.5993
20
-355.9140
30
0.0
0
VERTEX
8
LOT_LINE
10
1219.6656
20
-359.0656
30
0.0
0
SEQEND
0
TEXT
8
TEXT-LABELS
7
STANDARD
10
1255.0314
20
-307.5340
30
0.0
40
8.0
1
21
50
0.0
0
TEXT
8
DIM-LABELS
7
STANDARD
10
1253.0774
20
-261.0751
30
0.0
40
5.5
1
75.0'
50
0.0
0
TEXT
8
DIM-LABELS
7
STANDARD
10
1289.0014
20
-306.1053
30
0.0
40
5.5
1
100.0'
50
0.0
0
TEXT
8
DIM-LABELS
7
STANDARD
10
1256.9854
20
-353.9929
30
0.0
40
5.5
1
75.0'
50
0.0
0
TEXT
8
DIM-LABELS
7
STANDARD
10
1221.0614
20
-308.9627
30
0.0
40
5.5
1
100.0'
50
0.0
0
POLYLINE
8
LOT_LINE
66
1
70
1
0
VERTEX
8
LOT_LINE
10
1290.3972
20
-256.0024
30
0.0
0
VERTEX
8
LOT_LINE
10
1365.3310
20
-252.8508
30
0.0
0
VERTEX
8
LOT_LINE
10
1369.5331
20
-352.7625
30
0.0
0
VERTEX
8
LOT_LINE
10
1294.5993
20
-355.9140
30
0.0
0
SEQEND
0
TEXT
8
TEXT-LABELS
7
STANDARD
10
1329.9652
20
-304.3824
30
0.0
40
8.0
1
20
50
0.0
0
TEXT
8
DIM-LABELS
7
STANDARD
10
1328.0112
20
-257.9235
30
0.0
40
5.5
1
75.0'
50
0.0
0
TEXT
8
DIM-LABELS
7
STANDARD
10
1363.9351
20
-302.9537
30
0.0
40
5.5
1
100.0'
50
0.0
0
TEXT
8
DIM-LABELS
7
STANDARD
10
1331.9191
20
-350.8414
30
0.0
40
5.5
1
75.0'
50
0.0
0
TEXT
8
DIM-LABELS
7
STANDARD
10
1295.9952
20
-305.8111
30
0.0
40
5.5
1
100.0'
50
0.0
0
POLYLINE
8
LOT_LINE
66
1
70
1
0
VERTEX
8
LOT_LINE
10
1365.3310
20
-252.8508
30
0.0
0
VERTEX
8
LOT_LINE
10
1440.2647
20
-249.6992
30
0.0
0
VERTEX
8
LOT_LINE
10
1444.4668
20
-349.6109
30
0.0
0
VERTEX
8
LOT_LINE
10
1369.5331
20
-352.7625
30
0.0
0
SEQEND
0
TEXT
8
TEXT-LABELS
7
STANDARD
10
1404.8989
20
-301.2309
30
0.0
40
8.0
1
19
50
0.0
0
TEXT
8
DIM-LABELS
7
STANDARD
10
1402.9449
20
-254.7719
30
0.0
40
5.5
1
75.0'
50
0.0
0
TEXT
8
DIM-LABELS
7
STANDARD
10
1438.8689
20
-299.8021
30
0.0
40
5.5
1
100.0'
50
0.0
0
TEXT
8
DIM-LABELS
7
STANDARD
10
1406.8529
20
-347.6898
30
0.0
40
5.5
1
75.0'
50
0.0
0
TEXT
8
DIM-LABELS
7
STANDARD
10
1370.9290
20
-302.6596
30
0.0
40
5.5
1
100.0'
50
0.0
0
POLYLINE
8
CURVE
66
1
70
0
0
VERTEX
8
CURVE
10
1515.1985
20
-246.5477
30
0.0
0
VERTEX
8
CURVE
10
1515.6104
20
-252.7841
30
0.0
0
VERTEX
8
CURVE
10
1516.0024
20
-259.0218
30
0.0
0
VERTEX
8
CURVE
10
1516.3745
20
-265.2607
30
0.0
0
VERTEX
8
CURVE
10
1516.7267
20
-271.5007
30
0.0
0
VERTEX
8
CURVE
10
1517.0590
20
-277.7419
30
0.0
0
VERTEX
8
CURVE
10
1517.3714
20
-283.9841
30
0.0
0
VERTEX
8
CURVE
10
1517.6639
20
-290.2272
30
0.0
0
VERTEX
8
CURVE
10
1517.9365
20
-296.4713
30
0.0
0
VERTEX
8
CURVE
10
1518.1892
20
-302.7162
30
0.0
0
VERTEX
8
CURVE
10
1518.4220
20
-308.9618
30
0.0
0
VERTEX
8
CURVE
10
1518.6348
20
-315.2082
30
0.0
0
VERTEX
8
CURVE
10
1518.8277
20
-321.4552
30
0.0
0
VERTEX
8
CURVE
10
1519.0007
20
-327.7028
30
0.0
0
VERTEX
8
CURVE
10
1519.1538
20
-333.9509
30
0.0
0
VERTEX
8
CURVE
10
1519.2869
20
-340.1995
30
0.0
0
VERTEX
8
CURVE
10
1519.4001
20
-346.4485
30
0.0
0
SEQEND
0
POLYLINE
8
LOT_LINE
66
1
70
1
0
VERTEX
8
LOT_LINE
10
1440.2647
20
-249.6992
30
0.0
0
VERTEX
8
LOT_LINE
10
1515.1985
20
-246.5477
30
0.0
0
VERTEX
8
LOT_LINE
10
1515.6104
20
-252.7841
30
0.0
0
VERTEX
8
LOT_LINE
10
1516.0024
20
-259.0218
30
0.0
0
VERTEX
8
LOT_LINE
10
1516.3745
20
-265.2607
30
0.0
0
VERTEX
8
LOT_LINE
10
1516.7267
20
-271.5007
30
0.0
0
VERTEX
8
LOT_LINE
10
1517.0590
20
-277.7419
30
0.0
0
VERTEX
8
LOT_LINE
10
1517.3714
20
-283.9841
30
0.0
0
VERTEX
8
LOT_LINE
10
1517.6639
20
-290.2272
30
0.0
0
VERTEX
8
LOT_LINE
10
1517.9365
20
-296.4713
30
0.0
0
VERTEX
8
LOT_LINE
10
1518.1892
20
-302.7162
30
0.0
0
VERTEX
8
LOT_LINE
10
1518.4220
20
-308.9618
30
0.0
0
VERTEX
8
LOT_LINE
10
1518.6348
20
-315.2082
30
0.0
0
VERTEX
8
LOT_LINE
10
1518.8277
20
-321.4552
30
0.0
0
VERTEX
8
LOT_LINE
10
1519.0007
20
-327.7028
30
0.0
0
VERTEX
8
LOT_LINE
10
1519.1538
20
-333.9509
30
0.0
0
VERTEX
8
LOT_LINE
10
1519.2869
20
-340.1995
30
0.0
0
VERTEX
8
LOT_LINE
10
1519.4006
20
-346.4593
30
0.0
0
VERTEX
8
LOT_LINE
10
1444.4668
20
-349.6109
30
0.0
0
SEQEND
0
TEXT
8
TEXT-LABELS
7
STANDARD
10
1479.8327
20
-298.0793
30
0.0
40
8.0
1
18
50
0.0
0
TEXT
8
DIM-LABELS
7
STANDARD
10
1477.8787
20
-251.6204
30
0.0
40
5.5
1
75.0'
50
0.0
0
TEXT
8
DIM-LABELS
7
STANDARD
10
1513.8026
20
-296.6506
30
0.0
40
5.5
1
100.0'
50
0.0
0
TEXT
8
DIM-LABELS
7
STANDARD
10
1481.7866
20
-344.5382
30
0.0
40
5.5
1
75.0'
50
0.0
0
TEXT
8
DIM-LABELS
7
STANDARD
10
1445.8627
20
-299.5080
30
0.0
40
5.5
1
100.0'
50
0.0
0
POLYLINE
8
LOT_LINE
66
1
70
1
0
VERTEX
8
LOT_LINE
10
229.5644
20
-460.7605
30
0.0
0
VERTEX
8
LOT_LINE
10
322.9818
20
-456.8315
30
0.0
0
VERTEX
8
LOT_LINE
10
327.1839
20
-556.7432
30
0.0
0
VERTEX
8
LOT_LINE
10
233.7665
20
-560.6721
30
0.0
0
SEQEND
0
TEXT
8
TEXT-LABELS
7
STANDARD
10
278.3741
20
-508.7518
30
0.0
40
8.0
1
1
50
0.0
0
TEXT
8
DIM-LABELS
7
STANDARD
10
276.4201
20
-462.2929
30
0.0
40
5.5
1
93.5'
50
0.0
0
TEXT
8
DIM-LABELS
7
STANDARD
10
321.5859
20
-506.9344
30
0.0
40
5.5
1
100.0'
50
0.0
0
TEXT
8
DIM-LABELS
7
STANDARD
10
280.3281
20
-555.2107
30
0.0
40
5.5
1
93.5'
50
0.0
0
TEXT
8
DIM-LABELS
7
STANDARD
10
235.1623
20
-510.5692
30
0.0
40
5.5
1
100.0'
50
0.0
0
POLYLINE
8
LOT_LINE
66
1
70
1
0
VERTEX
8
LOT_LINE
10
322.9818
20
-456.8315
30
0.0
0
VERTEX
8
LOT_LINE
10
397.9155
20
-453.6799
30
0.0
0
VERTEX
8
LOT_LINE
10
402.1176
20
-553.5916
30
0.0
0
VERTEX
8
LOT_LINE
10
327.1839
20
-556.7432
30
0.0
0
SEQEND
0
TEXT
8
TEXT-LABELS
7
STANDARD
10
362.5497
20
-505.2115
30
0.0
40
8.0
1
2
50
0.0
0
TEXT
8
DIM-LABELS
7
STANDARD
10
360.5957
20
-458.7526
30
0.0
40
5.5
1
75.0'
50
0.0
0
TEXT
8
DIM-LABELS
7
STANDARD
10
396.5197
20
-503.7828
30
0.0
40
5.5
1
100.0'
50
0.0
0
TEXT
8
DIM-LABELS
7
STANDARD
10
364.5037
20
-551.6705
30
0.0
40
5.5
1
75.0'
50
0.0
0
TEXT
8
DIM-LABELS
7
STANDARD
10
328.5797
20
-506.6403
30
0.0
40
5.5
1
100.0'
50
0.0
0
POLYLINE
8
LOT_LINE
66
1
70
1
0
VERTEX
8
LOT_LINE
10
397.9155
20
-453.6799
30
0.0
0
VERTEX
8
LOT_LINE
10
472.8493
20
-450.5284
30
0.0
0
VERTEX
8
LOT_LINE
10
477.0514
20
-550.4400
30
0.0
0
VERTEX
8
LOT_LINE
10
402.1176
20
-553.5916
30
0.0
0
SEQEND
0
TEXT
8
TEXT-LABELS
7
STANDARD
10
437.4835
20
-502.0600
30
0.0
40
8.0
1
3
50
0.0
0
TEXT
8
DIM-LABELS
7
STANDARD
10
435.5295
20
-455.6010
30
0.0
40
5.5
1
75.0'
50
0.0
0
TEXT
8
DIM-LABELS
7
STANDARD
10
471.4534
20
-500.6313
30
0.0
40
5.5
1
100.0'
50
0.0
0
TEXT
8
DIM-LABELS
7
STANDARD
10
439.4374
20
-548.5189
30
0.0
40
5.5
1
75.0'
50
0.0
0
TEXT
8
DIM-LABELS
7
STANDARD
10
403.5135
20
-503.4887
30
0.0
40
5.5
1
100.0'
50
0.0
0
POLYLINE
8
LOT_LINE
66
1
70
1
0
VERTEX
8
LOT_LINE
10
472.8493
20
-450.5284
30
0.0
0
VERTEX
8
LOT_LINE
10
547.7830
20
-447.3768
30
0.0
0
VERTEX
8
LOT_LINE
10
551.9851
20
-547.2885
30
0.0
0
VERTEX
8
LOT_LINE
10
477.0514
20
-550.4400
30
0.0
0
SEQEND
0
TEXT
8
TEXT-LABELS
7
STANDARD
10
512.4172
20
-498.9084
30
0.0
40
8.0
1
4
50
0.0
0
TEXT
8
DIM-LABELS
7
STANDARD
10
510.4632
20
-452.4495
30
0.0
40
5.5
1
75.0'
50
0.0
0
TEXT
8
DIM-LABELS
7
STANDARD
10
546.3872
20
-497.4797
30
0.0
40
5.5
1
100.0'
50
0.0
0
TEXT
8
DIM-LABELS
7
STANDARD
10
514.3712
20
-545.3673
30
0.0
40
5.5
1
75.0'
50
0.0
0
TEXT
8
DIM-LABELS
7
STANDARD
10
478.4472
20
-500.3371
30
0.0
40
5.5
1
100.0'
50
0.0
0
POLYLINE
8
LOT_LINE
66
1
70
1
0
VERTEX
8
LOT_LINE
10
547.7830
20
-447.3768
30
0.0
0
VERTEX
8
LOT_LINE
10
622.7168
20
-444.2252
30
0.0
0
VERTEX
8
LOT_LINE
10
626.9189
20
-544.1369
30
0.0
0
VERTEX
8
LOT_LINE
10
551.9851
20
-547.2885
30
0.0
0
SEQEND
0
TEXT
8
TEXT-LABELS
7
STANDARD
10
587.3510
20
-495.7568
30
0.0
40
8.0
1
5
50
0.0
0
TEXT
8
DIM-LABELS
7
STANDARD
10
585.3970
20
-449.2979
30
0.0
40
5.5
1
75.0'
50
0.0
0
TEXT
8
DIM-LABELS
7
STANDARD
10
621.3209
20
-494.3281
30
0.0
40
5.5
1
100.0'
50
0.0
0
TEXT
8
DIM-LABELS
7
STANDARD
10
589.3049
20
-542.2158
30
0.0
40
5.5
1
75.0'
50
0.0
0
TEXT
8
DIM-LABELS
7
STANDARD
10
553.3810
20
-497.1855
30
0.0
40
5.5
1
100.0'
50
0.0
0
POLYLINE
8
LOT_LINE
66
1
70
1
0
VERTEX
8
LOT_LINE
10
622.7168
20
-444.2252
30
0.0
0
VERTEX
8
LOT_LINE
10
697.6506
20
-441.0736
30
0.0
0
VERTEX
8
LOT_LINE
10
701.8527
20
-540.9853
30
0.0
0
VERTEX
8
LOT_LINE
10
626.9189
20
-544.1369
30
0.0
0
SEQEND
0
TEXT
8
TEXT-LABELS
7
STANDARD
10
662.2847
20
-492.6053
30
0.0
40
8.0
1
6
50
0.0
0
TEXT
8
DIM-LABELS
7
STANDARD
10
660.3308
20
-446.1463
30
0.0
40
5.5
1
75.0'
50
0.0
0
TEXT
8
DIM-LABELS
7
STANDARD
10
696.2547
20
-491.1765
30
0.0
40
5.5
1
100.0'
50
0.0
0
TEXT
8
DIM-LABELS
7
STANDARD
10
664.2387
20
-539.0642
30
0.0
40
5.5
1
75.0'
50
0.0
0
TEXT
8
DIM-LABELS
7
STANDARD
10
628.3148
20
-494.0340
30
0.0
40
5.5
1
100.0'
50
0.0
0
POLYLINE
8
LOT_LINE
66
1
70
1
0
VERTEX
8
LOT_LINE
10
697.6506
20
-441.0736
30
0.0
0
VERTEX
8
LOT_LINE
10
772.5843
20
-437.9221
30
0.0
0
VERTEX
8
LOT_LINE
10
776.7864
20
-537.8337
30
0.0
0
VERTEX
8
LOT_LINE
10
701.8527
20
-540.9853
30
0.0
0
SEQEND
0
TEXT
8
TEXT-LABELS
7
STANDARD
10
737.2185
20
-489.4537
30
0.0
40
8.0
1
7
50
0.0
0
TEXT
8
DIM-LABELS
7
STANDARD
10
735.2645
20
-442.9948
30
0.0
40
5.5
1
75.0'
50
0.0
0
TEXT
8
DIM-LABELS
7
STANDARD
10
771.1885
20
-488.0250
30
0.0
40
5.5
1
100.0'
50
0.0
0
TEXT
8
DIM-LABELS
7
STANDARD
10
739.1725
20
-535.9126
30
0.0
40
5.5
1
75.0'
50
0.0
0
TEXT
8
DIM-LABELS
7
STANDARD
10
703.2485
20
-490.8824
30
0.0
40
5.5
1
100.0'
50
0.0
0
POLYLINE
8
LOT_LINE
66
1
70
1
0
VERTEX
8
LOT_LINE
10
772.5843
20
-437.9221
30
0.0
0
VERTEX
8
LOT_LINE
10
847.5181
20
-434.7705
30
0.0
0
VERTEX
8
LOT_LINE
10
851.7202
20
-534.6822
30
0.0
0
VERTEX
8
LOT_LINE
10
776.7864
20
-537.8337
30
0.0
0
SEQEND
0
TEXT
8
TEXT-LABELS
7
STANDARD
10
812.1522
20
-486.3021
30
0.0
40
8.0
1
8
50
0.0
0
TEXT
8
DIM-LABELS
7
STANDARD
10
810.1983
20
-439.8432
30
0.0
40
5.5
1
75.0'
50
0.0
0
TEXT
8
DIM-LABELS
7
STANDARD
10
846.1222
20
-484.8734
30
0.0
40
5.5
1
100.0'
50
0.0
0
TEXT
8
DIM-LABELS
7
STANDARD
10
814.1062
20
-532.7610
30
0.0
40
5.5
1
75.0'
50
0.0
0
TEXT
8
DIM-LABELS
7
STANDARD
10
778.1823
20
-487.7308
30
0.0
40
5.5
1
100.0'
50
0.0
0
POLYLINE
8
LOT_LINE
66
1
70
1
0
VERTEX
8
LOT_LINE
10
847.5181
20
-434.7705
30
0.0
0
VERTEX
8
LOT_LINE
10
922.4518
20
-431.6189
30
0.0
0
VERTEX
8
LOT_LINE
10
926.6539
20
-531.5306
30
0.0
0
VERTEX
8
LOT_LINE
10
851.7202
20
-534.6822
30
0.0
0
SEQEND
0
TEXT
8
TEXT-LABELS
7
STANDARD
10
887.0860
20
-483.1505
30
0.0
40
8.0
1
9
50
0.0
0
TEXT
8
DIM-LABELS
7
STANDARD
10
885.1320
20
-436.6916
30
0.0
40
5.5
1
75.0'
50
0.0
0
TEXT
8
DIM-LABELS
7
STANDARD
10
921.0560
20
-481.7218
30
0.0
40
5.5
1
100.0'
50
0.0
0
TEXT
8
DIM-LABELS
7
STANDARD
10
889.0400
20
-529.6095
30
0.0
40
5.5
1
75.0'
50
0.0
0
TEXT
8
DIM-LABELS
7
STANDARD
10
853.1160
20
-484.5793
30
0.0
40
5.5
1
100.0'
50
0.0
0
POLYLINE
8
LOT_LINE
66
1
70
1
0
VERTEX
8
LOT_LINE
10
922.4518
20
-431.6189
30
0.0
0
VERTEX
8
LOT_LINE
10
997.3856
20
-428.4673
30
0.0
0
VERTEX
8
LOT_LINE
10
1001.5877
20
-528.3790
30
0.0
0
VERTEX
8
LOT_LINE
10
926.6539
20
-531.5306
30
0.0
0
SEQEND
0
TEXT
8
TEXT-LABELS
7
STANDARD
10
962.0197
20
-479.9990
30
0.0
40
8.0
1
10
50
0.0
0
TEXT
8
DIM-LABELS
7
STANDARD
10
960.0658
20
-433.5400
30
0.0
40
5.5
1
75.0'
50
0.0
0
TEXT
8
DIM-LABELS
7
STANDARD
10
995.9897
20
-478.5703
30
0.0
40
5.5
1
100.0'
50
0.0
0
TEXT
8
DIM-LABELS
7
STANDARD
10
963.9737
20
-526.4579
30
0.0
40
5.5
1
75.0'
50
0.0
0
TEXT
8
DIM-LABELS
7
STANDARD
10
928.0498
20
-481.4277
30
0.0
40
5.5
1
100.0'
50
0.0
0
POLYLINE
8
LOT_LINE
66
1
70
1
0
VERTEX
8
LOT_LINE
10
997.3856
20
-428.4673
30
0.0
0
VERTEX
8
LOT_LINE
10
1072.3193
20
-425.3158
30
0.0
0
VERTEX
8
LOT_LINE
10
1076.5214
20
-525.2274
30
0.0
0
VERTEX
8
LOT_LINE
10
1001.5877
20
-528.3790
30
0.0
0
SEQEND
0
TEXT
8
TEXT-LABELS
7
STANDARD
10
1036.9535
20
-476.8474
30
0.0
40
8.0
1
11
50
0.0
0
TEXT
8
DIM-LABELS
7
STANDARD
10
1034.9995
20
-430.3885
30
0.0
40
5.5
1
75.0'
50
0.0
0
TEXT
8
DIM-LABELS
7
STANDARD
10
1070.9235
20
-475.4187
30
0.0
40
5.5
1
100.0'
50
0.0
0
TEXT
8
DIM-LABELS
7
STANDARD
10
1038.9075
20
-523.3063
30
0.0
40
5.5
1
75.0'
50
0.0
0
TEXT
8
DIM-LABELS
7
STANDARD
10
1002.9835
20
-478.2761
30
0.0
40
5.5
1
100.0'
50
0.0
0
POLYLINE
8
LOT_LINE
66
1
70
1
0
VERTEX
8
LOT_LINE
10
1072.3193
20
-425.3158
30
0.0
0
VERTEX
8
LOT_LINE
10
1147.2531
20
-422.1642
30
0.0
0
VERTEX
8
LOT_LINE
10
1151.4552
20
-522.0759
30
0.0
0
VERTEX
8
LOT_LINE
10
1076.5214
20
-525.2274
30
0.0
0
SEQEND
0
TEXT
8
TEXT-LABELS
7
STANDARD
10
1111.8873
20
-473.6958
30
0.0
40
8.0
1
12
50
0.0
0
TEXT
8
DIM-LABELS
7
STANDARD
10
1109.9333
20
-427.2369
30
0.0
40
5.5
1
75.0'
50
0.0
0
TEXT
8
DIM-LABELS
7
STANDARD
10
1145.8572
20
-472.2671
30
0.0
40
5.5
1
100.0'
50
0.0
0
TEXT
8
DIM-LABELS
7
STANDARD
10
1113.8412
20
-520.1547
30
0.0
40
5.5
1
75.0'
50
0.0
0
TEXT
8
DIM-LABELS
7
STANDARD
10
1077.9173
20
-475.1245
30
0.0
40
5.5
1
100.0'
50
0.0
0
POLYLINE
8
LOT_LINE
66
1
70
1
0
VERTEX
8
LOT_LINE
10
1147.2531
20
-422.1642
30
0.0
0
VERTEX
8
LOT_LINE
10
1222.1868
20
-419.0126
30
0.0
0
VERTEX
8
LOT_LINE
10
1226.3889
20
-518.9243
30
0.0
0
VERTEX
8
LOT_LINE
10
1151.4552
20
-522.0759
30
0.0
0
SEQEND
0
TEXT
8
TEXT-LABELS
7
STANDARD
10
1186.8210
20
-470.5442
30
0.0
40
8.0
1
13
50
0.0
0
TEXT
8
DIM-LABELS
7
STANDARD
10
1184.8670
20
-424.0853
30
0.0
40
5.5
1
75.0'
50
0.0
0
TEXT
8
DIM-LABELS
7
STANDARD
10
1220.7910
20
-469.1155
30
0.0
40
5.5
1
100.0'
50
0.0
0
TEXT
8
DIM-LABELS
7
STANDARD
10
1188.7750
20
-517.0032
30
0.0
40
5.5
1
75.0'
50
0.0
0
TEXT
8
DIM-LABELS
7
STANDARD
10
1152.8510
20
-471.9730
30
0.0
40
5.5
1
100.0'
50
0.0
0
POLYLINE
8
LOT_LINE
66
1
70
1
0
VERTEX
8
LOT_LINE
10
1222.1868
20
-419.0126
30
0.0
0
VERTEX
8
LOT_LINE
10
1297.1206
20
-415.8611
30
0.0
0
VERTEX
8
LOT_LINE
10
1301.3227
20
-515.7727
30
0.0
0
VERTEX
8
LOT_LINE
10
1226.3889
20
-518.9243
30
0.0
0
SEQEND
0
TEXT
8
TEXT-LABELS
7
STANDARD
10
1261.7548
20
-467.3927
30
0.0
40
8.0
1
14
50
0.0
0
TEXT
8
DIM-LABELS
7
STANDARD
10
1259.8008
20
-420.9337
30
0.0
40
5.5
1
75.0'
50
0.0
0
TEXT
8
DIM-LABELS
7
STANDARD
10
1295.7247
20
-465.9640
30
0.0
40
5.5
1
100.0'
50
0.0
0
TEXT
8
DIM-LABELS
7
STANDARD
10
1263.7087
20
-513.8516
30
0.0
40
5.5
1
75.0'
50
0.0
0
TEXT
8
DIM-LABELS
7
STANDARD
10
1227.7848
20
-468.8214
30
0.0
40
5.5
1
100.0'
50
0.0
0
POLYLINE
8
LOT_LINE
66
1
70
1
0
VERTEX
8
LOT_LINE
10
1297.1206
20
-415.8611
30
0.0
0
VERTEX
8
LOT_LINE
10
1372.0543
20
-412.7095
30
0.0
0
VERTEX
8
LOT_LINE
10
1376.2564
20
-512.6212
30
0.0
0
VERTEX
8
LOT_LINE
10
1301.3227
20
-515.7727
30
0.0
0
SEQEND
0
TEXT
8
TEXT-LABELS
7
STANDARD
10
1336.6885
20
-464.2411
30
0.0
40
8.0
1
15
50
0.0
0
TEXT
8
DIM-LABELS
7
STANDARD
10
1334.7345
20
-417.7822
30
0.0
40
5.5
1
75.0'
50
0.0
0
TEXT
8
DIM-LABELS
7
STANDARD
10
1370.6585
20
-462.8124
30
0.0
40
5.5
1
100.0'
50
0.0
0
TEXT
8
DIM-LABELS
7
STANDARD
10
1338.6425
20
-510.7000
30
0.0
40
5.5
1
75.0'
50
0.0
0
TEXT
8
DIM-LABELS
7
STANDARD
10
1302.7186
20
-465.6698
30
0.0
40
5.5
1
100.0'
50
0.0
0
POLYLINE
8
LOT_LINE
66
1
70
1
0
VERTEX
8
LOT_LINE
10
1372.0543
20
-412.7095
30
0.0
0
VERTEX
8
LOT_LINE
10
1446.9881
20
-409.5579
30
0.0
0
VERTEX
8
LOT_LINE
10
1451.1902
20
-509.4696
30
0.0
0
VERTEX
8
LOT_LINE
10
1376.2564
20
-512.6212
30
0.0
0
SEQEND
0
TEXT
8
TEXT-LABELS
7
STANDARD
10
1411.6223
20
-461.0895
30
0.0
40
8.0
1
16
50
0.0
0
TEXT
8
DIM-LABELS
7
STANDARD
10
1409.6683
20
-414.6306
30
0.0
40
5.5
1
75.0'
50
0.0
0
TEXT
8
DIM-LABELS
7
STANDARD
10
1445.5922
20
-459.6608
30
0.0
40
5.5
1
100.0'
50
0.0
0
TEXT
8
DIM-LABELS
7
STANDARD
10
1413.5762
20
-507.5485
30
0.0
40
5.5
1
75.0'
50
0.0
0
TEXT
8
DIM-LABELS
7
STANDARD
10
1377.6523
20
-462.5182
30
0.0
40
5.5
1
100.0'
50
0.0
0
POLYLINE
8
CURVE
66
1
70
0
0
VERTEX
8
CURVE
10
1521.9219
20
-406.4063
30
0.0
0
VERTEX
8
CURVE
10
1522.3338
20
-412.6427
30
0.0
0
VERTEX
8
CURVE
10
1522.7258
20
-418.8804
30
0.0
0
VERTEX
8
CURVE
10
1523.0979
20
-425.1193
30
0.0
0
VERTEX
8
CURVE
10
1523.4501
20
-431.3594
30
0.0
0
VERTEX
8
CURVE
10
1523.7824
20
-437.6006
30
0.0
0
VERTEX
8
CURVE
10
1524.0948
20
-443.8428
30
0.0
0
VERTEX
8
CURVE
10
1524.3873
20
-450.0859
30
0.0
0
VERTEX
8
CURVE
10
1524.6599
20
-456.3300
30
0.0
0
VERTEX
8
CURVE
10
1524.9126
20
-462.5748
30
0.0
0
VERTEX
8
CURVE
10
1525.1453
20
-468.8205
30
0.0
0
VERTEX
8
CURVE
10
1525.3582
20
-475.0669
30
0.0
0
VERTEX
8
CURVE
10
1525.5511
20
-481.3139
30
0.0
0
VERTEX
8
CURVE
10
1525.7241
20
-487.5615
30
0.0
0
VERTEX
8
CURVE
10
1525.8771
20
-493.8096
30
0.0
0
VERTEX
8
CURVE
10
1526.0103
20
-500.0582
30
0.0
0
VERTEX
8
CURVE
10
1526.1235
20
-506.3072
30
0.0
0
SEQEND
0
POLYLINE
8
LOT_LINE
66
1
70
1
0
VERTEX
8
LOT_LINE
10
1446.9881
20
-409.5579
30
0.0
0
VERTEX
8
LOT_LINE
10
1521.9219
20
-406.4063
30
0.0
0
VERTEX
8
LOT_LINE
10
1522.3338
20
-412.6427
30
0.0
0
VERTEX
8
LOT_LINE
10
1522.7258
20
-418.8804
30
0.0
0
VERTEX
8
LOT_LINE
10
1523.0979
20
-425.1193
30
0.0
0
VERTEX
8
LOT_LINE
10
1523.4501
20
-431.3594
30
0.0
0
VERTEX
8
LOT_LINE
10
1523.7824
20
-437.6006
30
0.0
0
VERTEX
8
LOT_LINE
10
1524.0948
20
-443.8428
30
0.0
0
VERTEX
8
LOT_LINE
10
1524.3873
20
-450.0859
30
0.0
0
VERTEX
8
LOT_LINE
10
1524.6599
20
-456.3300
30
0.0
0
VERTEX
8
LOT_LINE
10
1524.9126
20
-462.5748
30
0.0
0
VERTEX
8
LOT_LINE
10
1525.1453
20
-468.8205
30
0.0
0
VERTEX
8
LOT_LINE
10
1525.3582
20
-475.0669
30
0.0
0
VERTEX
8
LOT_LINE
10
1525.5511
20
-481.3139
30
0.0
0
VERTEX
8
LOT_LINE
10
1525.7241
20
-487.5615
30
0.0
0
VERTEX
8
LOT_LINE
10
1525.8771
20
-493.8096
30
0.0
0
VERTEX
8
LOT_LINE
10
1526.0103
20
-500.0582
30
0.0
0
VERTEX
8
LOT_LINE
10
1526.1240
20
-506.3180
30
0.0
0
VERTEX
8
LOT_LINE
10
1451.1902
20
-509.4696
30
0.0
0
SEQEND
0
TEXT
8
TEXT-LABELS
7
STANDARD
10
1486.5560
20
-457.9380
30
0.0
40
8.0
1
17
50
0.0
0
TEXT
8
DIM-LABELS
7
STANDARD
10
1484.6021
20
-411.4790
30
0.0
40
5.5
1
75.0'
50
0.0
0
TEXT
8
DIM-LABELS
7
STANDARD
10
1520.5260
20
-456.5092
30
0.0
40
5.5
1
100.0'
50
0.0
0
TEXT
8
DIM-LABELS
7
STANDARD
10
1488.5100
20
-504.3969
30
0.0
40
5.5
1
75.0'
50
0.0
0
TEXT
8
DIM-LABELS
7
STANDARD
10
1452.5861
20
-459.3667
30
0.0
40
5.5
1
100.0'
50
0.0
0
POLYLINE
8
LOT_LINE
66
1
70
1
0
VERTEX
8
LOT_LINE
10
233.7665
20
-560.6721
30
0.0
0
VERTEX
8
LOT_LINE
10
327.1839
20
-556.7432
30
0.0
0
VERTEX
8
LOT_LINE
10
331.3860
20
-656.6548
30
0.0
0
VERTEX
8
LOT_LINE
10
237.9686
20
-660.5838
30
0.0
0
SEQEND
0
TEXT
8
TEXT-LABELS
7
STANDARD
10
282.5762
20
-608.6635
30
0.0
40
8.0
1
34
50
0.0
0
TEXT
8
DIM-LABELS
7
STANDARD
10
280.6222
20
-562.2046
30
0.0
40
5.5
1
93.5'
50
0.0
0
TEXT
8
DIM-LABELS
7
STANDARD
10
325.7880
20
-606.8461
30
0.0
40
5.5
1
100.0'
50
0.0
0
TEXT
8
DIM-LABELS
7
STANDARD
10
284.5302
20
-655.1224
30
0.0
40
5.5
1
93.5'
50
0.0
0
TEXT
8
DIM-LABELS
7
STANDARD
10
239.3644
20
-610.4809
30
0.0
40
5.5
1
100.0'
50
0.0
0
POLYLINE
8
LOT_LINE
66
1
70
1
0
VERTEX
8
LOT_LINE
10
327.1839
20
-556.7432
30
0.0
0
VERTEX
8
LOT_LINE
10
402.1176
20
-553.5916
30
0.0
0
VERTEX
8
LOT_LINE
10
406.3197
20
-653.5033
30
0.0
0
VERTEX
8
LOT_LINE
10
331.3860
20
-656.6548
30
0.0
0
SEQEND
0
TEXT
8
TEXT-LABELS
7
STANDARD
10
366.7518
20
-605.1232
30
0.0
40
8.0
1
33
50
0.0
0
TEXT
8
DIM-LABELS
7
STANDARD
10
364.7978
20
-558.6643
30
0.0
40
5.5
1
75.0'
50
0.0
0
TEXT
8
DIM-LABELS
7
STANDARD
10
400.7218
20
-603.6945
30
0.0
40
5.5
1
100.0'
50
0.0
0
TEXT
8
DIM-LABELS
7
STANDARD
10
368.7058
20
-651.5821
30
0.0
40
5.5
1
75.0'
50
0.0
0
TEXT
8
DIM-LABELS
7
STANDARD
10
332.7818
20
-606.5519
30
0.0
40
5.5
1
100.0'
50
0.0
0
POLYLINE
8
LOT_LINE
66
1
70
1
0
VERTEX
8
LOT_LINE
10
402.1176
20
-553.5916
30
0.0
0
VERTEX
8
LOT_LINE
10
491.7984
20
-549.8198
30
0.0
0
VERTEX
8
LOT_LINE
10
496.0004
20
-649.7315
30
0.0
0
VERTEX
8
LOT_LINE
10
406.3197
20
-653.5033
30
0.0
0
SEQEND
0
TEXT
8
TEXT-LABELS
7
STANDARD
10
449.0590
20
-601.6615
30
0.0
40
8.0
1
32
50
0.0
0
TEXT
8
DIM-LABELS
7
STANDARD
10
447.1051
20
-555.2026
30
0.0
40
5.5
1
89.8'
50
0.0
0
TEXT
8
DIM-LABELS
7
STANDARD
10
490.4025
20
-599.9227
30
0.0
40
5.5
1
100.0'
50
0.0
0
TEXT
8
DIM-LABELS
7
STANDARD
10
451.0130
20
-648.1205
30
0.0
40
5.5
1
89.8'
50
0.0
0
TEXT
8
DIM-LABELS
7
STANDARD
10
407.7156
20
-603.4004
30
0.0
40
5.5
1
100.0'
50
0.0
0
POLYLINE
8
CURVE
66
1
70
0
0
VERTEX
8
CURVE
10
581.0441
20
-655.4953
30
0.0
0
VERTEX
8
CURVE
10
575.7834
20
-654.5895
30
0.0
0
VERTEX
8
CURVE
10
570.5108
20
-653.7559
30
0.0
0
VERTEX
8
CURVE
10
565.2273
20
-652.9946
30
0.0
0
VERTEX
8
CURVE
10
559.9338
20
-652.3059
30
0.0
0
VERTEX
8
CURVE
10
554.6314
20
-651.6898
30
0.0
0
VERTEX
8
CURVE
10
549.3211
20
-651.1465
30
0.0
0
VERTEX
8
CURVE
10
544.0038
20
-650.6761
30
0.0
0
VERTEX
8
CURVE
10
538.6805
20
-650.2786
30
0.0
0
VERTEX
8
CURVE
10
533.3523
20
-649.9542
30
0.0
0
VERTEX
8
CURVE
10
528.0201
20
-649.7028
30
0.0
0
VERTEX
8
CURVE
10
522.6850
20
-649.5246
30
0.0
0
VERTEX
8
CURVE
10
517.3480
20
-649.4196
30
0.0
0
VERTEX
8
CURVE
10
512.0100
20
-649.3878
30
0.0
0
VERTEX
8
CURVE
10
506.6721
20
-649.4292
30
0.0
0
VERTEX
8
CURVE
10
501.3352
20
-649.5437
30
0.0
0
VERTEX
8
CURVE
10
496.0005
20
-649.7315
30
0.0
0
SEQEND
0
POLYLINE
8
LOT_LINE
66
1
70
1
0
VERTEX
8
LOT_LINE
10
491.7984
20
-549.8198
30
0.0
0
VERTEX
8
LOT_LINE
10
601.7012
20
-545.1975
30
0.0
0
VERTEX
8
LOT_LINE
10
581.0441
20
-655.4953
30
0.0
0
VERTEX
8
LOT_LINE
10
575.7834
20
-654.5895
30
0.0
0
VERTEX
8
LOT_LINE
10
570.5108
20
-653.7559
30
0.0
0
VERTEX
8
LOT_LINE
10
565.2273
20
-652.9946
30
0.0
0
VERTEX
8
LOT_LINE
10
559.9338
20
-652.3059
30
0.0
0
VERTEX
8
LOT_LINE
10
554.6314
20
-651.6898
30
0.0
0
VERTEX
8
LOT_LINE
10
549.3211
20
-651.1465
30
0.0
0
VERTEX
8
LOT_LINE
10
544.0038
20
-650.6761
30
0.0
0
VERTEX
8
LOT_LINE
10
538.6805
20
-650.2786
30
0.0
0
VERTEX
8
LOT_LINE
10
533.3523
20
-649.9542
30
0.0
0
VERTEX
8
LOT_LINE
10
528.0201
20
-649.7028
30
0.0
0
VERTEX
8
LOT_LINE
10
522.6850
20
-649.5246
30
0.0
0
VERTEX
8
LOT_LINE
10
517.3480
20
-649.4196
30
0.0
0
VERTEX
8
LOT_LINE
10
512.0100
20
-649.3878
30
0.0
0
VERTEX
8
LOT_LINE
10
506.6721
20
-649.4292
30
0.0
0
VERTEX
8
LOT_LINE
10
501.3352
20
-649.5437
30
0.0
0
VERTEX
8
LOT_LINE
10
496.0004
20
-649.7315
30
0.0
0
SEQEND
0
TEXT
8
TEXT-LABELS
7
STANDARD
10
542.6360
20
-600.0610
30
0.0
40
8.0
1
31
50
0.0
0
TEXT
8
DIM-LABELS
7
STANDARD
10
546.8968
20
-551.0056
30
0.0
40
5.5
1
110.0'
50
0.0
0
TEXT
8
DIM-LABELS
7
STANDARD
10
587.9324
20
-599.7021
30
0.0
40
5.5
1
112.2'
50
0.0
0
TEXT
8
DIM-LABELS
7
STANDARD
10
538.7589
20
-649.1214
30
0.0
40
5.5
1
85.2'
50
0.0
0
TEXT
8
DIM-LABELS
7
STANDARD
10
497.3963
20
-599.6286
30
0.0
40
5.5
1
100.0'
50
0.0
0
POLYLINE
8
CURVE
66
1
70
0
0
VERTEX
8
CURVE
10
662.7943
20
-679.6311
30
0.0
0
VERTEX
8
CURVE
10
657.8569
20
-677.6020
30
0.0
0
VERTEX
8
CURVE
10
652.8922
20
-675.6407
30
0.0
0
VERTEX
8
CURVE
10
647.9010
20
-673.7478
30
0.0
0
VERTEX
8
CURVE
10
642.8844
20
-671.9234
30
0.0
0
VERTEX
8
CURVE
10
637.8432
20
-670.1680
30
0.0
0
VERTEX
8
CURVE
10
632.7784
20
-668.4819
30
0.0
0
VERTEX
8
CURVE
10
627.6909
20
-666.8654
30
0.0
0
VERTEX
8
CURVE
10
622.5818
20
-665.3189
30
0.0
0
VERTEX
8
CURVE
10
617.4519
20
-663.8425
30
0.0
0
VERTEX
8
CURVE
10
612.3023
20
-662.4366
30
0.0
0
VERTEX
8
CURVE
10
607.1339
20
-661.1015
30
0.0
0
VERTEX
8
CURVE
10
601.9477
20
-659.8373
30
0.0
0
VERTEX
8
CURVE
10
596.7446
20
-658.6444
30
0.0
0
VERTEX
8
CURVE
10
591.5256
20
-657.5230
30
0.0
0
VERTEX
8
CURVE
10
586.2918
20
-656.4732
30
0.0
0
VERTEX
8
CURVE
10
581.0441
20
-655.4953
30
0.0
0
SEQEND
0
POLYLINE
8
LOT_LINE
66
1
70
1
0
VERTEX
8
LOT_LINE
10
601.7012
20
-545.1975
30
0.0
0
VERTEX
8
LOT_LINE
10
711.6040
20
-540.5752
30
0.0
0
VERTEX
8
LOT_LINE
10
662.7943
20
-679.6311
30
0.0
0
VERTEX
8
LOT_LINE
10
657.8569
20
-677.6020
30
0.0
0
VERTEX
8
LOT_LINE
10
652.8922
20
-675.6407
30
0.0
0
VERTEX
8
LOT_LINE
10
647.9010
20
-673.7478
30
0.0
0
VERTEX
8
LOT_LINE
10
642.8844
20
-671.9234
30
0.0
0
VERTEX
8
LOT_LINE
10
637.8432
20
-670.1680
30
0.0
0
VERTEX
8
LOT_LINE
10
632.7784
20
-668.4819
30
0.0
0
VERTEX
8
LOT_LINE
10
627.6909
20
-666.8654
30
0.0
0
VERTEX
8
LOT_LINE
10
622.5818
20
-665.3189
30
0.0
0
VERTEX
8
LOT_LINE
10
617.4519
20
-663.8425
30
0.0
0
VERTEX
8
LOT_LINE
10
612.3023
20
-662.4366
30
0.0
0
VERTEX
8
LOT_LINE
10
607.1339
20
-661.1015
30
0.0
0
VERTEX
8
LOT_LINE
10
601.9477
20
-659.8373
30
0.0
0
VERTEX
8
LOT_LINE
10
596.7446
20
-658.6444
30
0.0
0
VERTEX
8
LOT_LINE
10
591.5256
20
-657.5230
30
0.0
0
VERTEX
8
LOT_LINE
10
586.2918
20
-656.4732
30
0.0
0
VERTEX
8
LOT_LINE
10
581.0441
20
-655.4953
30
0.0
0
SEQEND
0
TEXT
8
TEXT-LABELS
7
STANDARD
10
639.2859
20
-605.2248
30
0.0
40
8.0
1
30
50
0.0
0
TEXT
8
DIM-LABELS
7
STANDARD
10
656.7997
20
-546.3832
30
0.0
40
5.5
1
110.0'
50
0.0
0
TEXT
8
DIM-LABELS
7
STANDARD
10
683.8967
20
-608.9440
30
0.0
40
5.5
1
147.4'
50
0.0
0
TEXT
8
DIM-LABELS
7
STANDARD
10
622.9102
20
-664.2065
30
0.0
40
5.5
1
85.2'
50
0.0
0
TEXT
8
DIM-LABELS
7
STANDARD
10
594.8128
20
-600.9907
30
0.0
40
5.5
1
112.2'
50
0.0
0
POLYLINE
8
CURVE
66
1
70
0
0
VERTEX
8
CURVE
10
737.3314
20
-720.9816
30
0.0
0
VERTEX
8
CURVE
10
732.9540
20
-717.9264
30
0.0
0
VERTEX
8
CURVE
10
728.5352
20
-714.9316
30
0.0
0
VERTEX
8
CURVE
10
724.0757
20
-711.9977
30
0.0
0
VERTEX
8
CURVE
10
719.5764
20
-709.1252
30
0.0
0
VERTEX
8
CURVE
10
715.0381
20
-706.3146
30
0.0
0
VERTEX
8
CURVE
10
710.4617
20
-703.5666
30
0.0
0
VERTEX
8
CURVE
10
705.8481
20
-700.8815
30
0.0
0
VERTEX
8
CURVE
10
701.1981
20
-698.2600
30
0.0
0
VERTEX
8
CURVE
10
696.5125
20
-695.7025
30
0.0
0
VERTEX
8
CURVE
10
691.7924
20
-693.2095
30
0.0
0
VERTEX
8
CURVE
10
687.0385
20
-690.7814
30
0.0
0
VERTEX
8
CURVE
10
682.2517
20
-688.4188
30
0.0
0
VERTEX
8
CURVE
10
677.4330
20
-686.1220
30
0.0
0
VERTEX
8
CURVE
10
672.5833
20
-683.8915
30
0.0
0
VERTEX
8
CURVE
10
667.7034
20
-681.7278
30
0.0
0
VERTEX
8
CURVE
10
662.7943
20
-679.6311
30
0.0
0
SEQEND
0
POLYLINE
8
LOT_LINE
66
1
70
1
0
VERTEX
8
LOT_LINE
10
711.6040
20
-540.5752
30
0.0
0
VERTEX
8
LOT_LINE
10
821.5069
20
-535.9529
30
0.0
0
VERTEX
8
LOT_LINE
10
737.3314
20
-720.9816
30
0.0
0
VERTEX
8
LOT_LINE
10
732.9540
20
-717.9264
30
0.0
0
VERTEX
8
LOT_LINE
10
728.5352
20
-714.9316
30
0.0
0
VERTEX
8
LOT_LINE
10
724.0757
20
-711.9977
30
0.0
0
VERTEX
8
LOT_LINE
10
719.5764
20
-709.1252
30
0.0
0
VERTEX
8
LOT_LINE
10
715.0381
20
-706.3146
30
0.0
0
VERTEX
8
LOT_LINE
10
710.4617
20
-703.5666
30
0.0
0
VERTEX
8
LOT_LINE
10
705.8481
20
-700.8815
30
0.0
0
VERTEX
8
LOT_LINE
10
701.1981
20
-698.2600
30
0.0
0
VERTEX
8
LOT_LINE
10
696.5125
20
-695.7025
30
0.0
0
VERTEX
8
LOT_LINE
10
691.7924
20
-693.2095
30
0.0
0
VERTEX
8
LOT_LINE
10
687.0385
20
-690.7814
30
0.0
0
VERTEX
8
LOT_LINE
10
682.2517
20
-688.4188
30
0.0
0
VERTEX
8
LOT_LINE
10
677.4330
20
-686.1220
30
0.0
0
VERTEX
8
LOT_LINE
10
672.5833
20
-683.8915
30
0.0
0
VERTEX
8
LOT_LINE
10
667.7034
20
-681.7278
30
0.0
0
VERTEX
8
LOT_LINE
10
662.7943
20
-679.6311
30
0.0
0
SEQEND
0
TEXT
8
TEXT-LABELS
7
STANDARD
10
733.3091
20
-619.2852
30
0.0
40
8.0
1
29
50
0.0
0
TEXT
8
DIM-LABELS
7
STANDARD
10
766.7025
20
-541.7609
30
0.0
40
5.5
1
110.0'
50
0.0
0
TEXT
8
DIM-LABELS
7
STANDARD
10
776.2333
20
-627.0179
30
0.0
40
5.5
1
203.3'
50
0.0
0
TEXT
8
DIM-LABELS
7
STANDARD
10
701.7607
20
-697.2458
30
0.0
40
5.5
1
85.2'
50
0.0
0
TEXT
8
DIM-LABELS
7
STANDARD
10
690.5016
20
-611.2623
30
0.0
40
5.5
1
147.4'
50
0.0
0
POLYLINE
8
LOT_LINE
66
1
70
1
0
VERTEX
8
LOT_LINE
10
821.5069
20
-535.9529
30
0.0
0
VERTEX
8
LOT_LINE
10
926.6539
20
-531.5306
30
0.0
0
VERTEX
8
LOT_LINE
10
972.1729
20
-638.6178
30
0.0
0
VERTEX
8
LOT_LINE
10
737.3314
20
-720.9816
30
0.0
0
SEQEND
0
TEXT
8
TEXT-LABELS
7
STANDARD
10
864.4163
20
-606.7707
30
0.0
40
8.0
1
28
50
0.0
0
TEXT
8
DIM-LABELS
7
STANDARD
10
874.2275
20
-537.2386
30
0.0
40
5.5
1
105.2'
50
0.0
0
TEXT
8
DIM-LABELS
7
STANDARD
10
946.1923
20
-586.4434
30
0.0
40
5.5
1
116.4'
50
0.0
0
TEXT
8
DIM-LABELS
7
STANDARD
10
853.5938
20
-676.4969
30
0.0
40
5.5
1
248.9'
50
0.0
0
TEXT
8
DIM-LABELS
7
STANDARD
10
782.6050
20
-629.9166
30
0.0
40
5.5
1
203.3'
50
0.0
0
POLYLINE
8
LOT_LINE
66
1
70
1
0
VERTEX
8
LOT_LINE
10
926.6539
20
-531.5306
30
0.0
0
VERTEX
8
LOT_LINE
10
1001.5877
20
-528.3790
30
0.0
0
VERTEX
8
LOT_LINE
10
1005.7898
20
-628.2907
30
0.0
0
VERTEX
8
LOT_LINE
10
930.8560
20
-631.4423
30
0.0
0
SEQEND
0
TEXT
8
TEXT-LABELS
7
STANDARD
10
966.2218
20
-579.9106
30
0.0
40
8.0
1
27
50
0.0
0
TEXT
8
DIM-LABELS
7
STANDARD
10
964.2679
20
-533.4517
30
0.0
40
5.5
1
75.0'
50
0.0
0
TEXT
8
DIM-LABELS
7
STANDARD
10
1000.1918
20
-578.4819
30
0.0
40
5.5
1
100.0'
50
0.0
0
TEXT
8
DIM-LABELS
7
STANDARD
10
968.1758
20
-626.3696
30
0.0
40
5.5
1
75.0'
50
0.0
0
TEXT
8
DIM-LABELS
7
STANDARD
10
932.2519
20
-581.3394
30
0.0
40
5.5
1
100.0'
50
0.0
0
POLYLINE
8
LOT_LINE
66
1
70
1
0
VERTEX
8
LOT_LINE
10
1001.5877
20
-528.3790
30
0.0
0
VERTEX
8
LOT_LINE
10
1076.5214
20
-525.2274
30
0.0
0
VERTEX
8
LOT_LINE
10
1080.7235
20
-625.1391
30
0.0
0
VERTEX
8
LOT_LINE
10
1005.7898
20
-628.2907
30
0.0
0
SEQEND
0
TEXT
8
TEXT-LABELS
7
STANDARD
10
1041.1556
20
-576.7591
30
0.0
40
8.0
1
26
50
0.0
0
TEXT
8
DIM-LABELS
7
STANDARD
10
1039.2016
20
-530.3001
30
0.0
40
5.5
1
75.0'
50
0.0
0
TEXT
8
DIM-LABELS
7
STANDARD
10
1075.1256
20
-575.3304
30
0.0
40
5.5
1
100.0'
50
0.0
0
TEXT
8
DIM-LABELS
7
STANDARD
10
1043.1096
20
-623.2180
30
0.0
40
5.5
1
75.0'
50
0.0
0
TEXT
8
DIM-LABELS
7
STANDARD
10
1007.1856
20
-578.1878
30
0.0
40
5.5
1
100.0'
50
0.0
0
POLYLINE
8
LOT_LINE
66
1
70
1
0
VERTEX
8
LOT_LINE
10
1076.5214
20
-525.2274
30
0.0
0
VERTEX
8
LOT_LINE
10
1151.4552
20
-522.0759
30
0.0
0
VERTEX
8
LOT_LINE
10
1155.6573
20
-621.9875
30
0.0
0
VERTEX
8
LOT_LINE
10
1080.7235
20
-625.1391
30
0.0
0
SEQEND
0
TEXT
8
TEXT-LABELS
7
STANDARD
10
1116.0894
20
-573.6075
30
0.0
40
8.0
1
25
50
0.0
0
TEXT
8
DIM-LABELS
7
STANDARD
10
1114.1354
20
-527.1486
30
0.0
40
5.5
1
75.0'
50
0.0
0
TEXT
8
DIM-LABELS
7
STANDARD
10
1150.0593
20
-572.1788
30
0.0
40
5.5
1
100.0'
50
0.0
0
TEXT
8
DIM-LABELS
7
STANDARD
10
1118.0433
20
-620.0664
30
0.0
40
5.5
1
75.0'
50
0.0
0
TEXT
8
DIM-LABELS
7
STANDARD
10
1082.1194
20
-575.0362
30
0.0
40
5.5
1
100.0'
50
0.0
0
POLYLINE
8
LOT_LINE
66
1
70
1
0
VERTEX
8
LOT_LINE
10
1151.4552
20
-522.0759
30
0.0
0
VERTEX
8
LOT_LINE
10
1226.3889
20
-518.9243
30
0.0
0
VERTEX
8
LOT_LINE
10
1230.5910
20
-618.8360
30
0.0
0
VERTEX
8
LOT_LINE
10
1155.6573
20
-621.9875
30
0.0
0
SEQEND
0
TEXT
8
TEXT-LABELS
7
STANDARD
10
1191.0231
20
-570.4559
30
0.0
40
8.0
1
24
50
0.0
0
TEXT
8
DIM-LABELS
7
STANDARD
10
1189.0691
20
-523.9970
30
0.0
40
5.5
1
75.0'
50
0.0
0
TEXT
8
DIM-LABELS
7
STANDARD
10
1224.9931
20
-569.0272
30
0.0
40
5.5
1
100.0'
50
0.0
0
TEXT
8
DIM-LABELS
7
STANDARD
10
1192.9771
20
-616.9148
30
0.0
40
5.5
1
75.0'
50
0.0
0
TEXT
8
DIM-LABELS
7
STANDARD
10
1157.0531
20
-571.8846
30
0.0
40
5.5
1
100.0'
50
0.0
0
POLYLINE
8
LOT_LINE
66
1
70
1
0
VERTEX
8
LOT_LINE
10
1226.3889
20
-518.9243
30
0.0
0
VERTEX
8
LOT_LINE
10
1301.3227
20
-515.7727
30
0.0
0
VERTEX
8
LOT_LINE
10
1305.5248
20
-615.6844
30
0.0
0
VERTEX
8
LOT_LINE
10
1230.5910
20
-618.8360
30
0.0
0
SEQEND
0
TEXT
8
TEXT-LABELS
7
STANDARD
10
1265.9569
20
-567.3043
30
0.0
40
8.0
1
23
50
0.0
0
TEXT
8
DIM-LABELS
7
STANDARD
10
1264.0029
20
-520.8454
30
0.0
40
5.5
1
75.0'
50
0.0
0
TEXT
8
DIM-LABELS
7
STANDARD
10
1299.9268
20
-565.8756
30
0.0
40
5.5
1
100.0'
50
0.0
0
TEXT
8
DIM-LABELS
7
STANDARD
10
1267.9108
20
-613.7633
30
0.0
40
5.5
1
75.0'
50
0.0
0
TEXT
8
DIM-LABELS
7
STANDARD
10
1231.9869
20
-568.7331
30
0.0
40
5.5
1
100.0'
50
0.0
0
POLYLINE
8
LOT_LINE
66
1
70
1
0
VERTEX
8
LOT_LINE
10
1301.3227
20
-515.7727
30
0.0
0
VERTEX
8
LOT_LINE
10
1376.2564
20
-512.6212
30
0.0
0
VERTEX
8
LOT_LINE
10
1380.4585
20
-612.5328
30
0.0
0
VERTEX
8
LOT_LINE
10
1305.5248
20
-615.6844
30
0.0
0
SEQEND
0
TEXT
8
TEXT-LABELS
7
STANDARD
10
1340.8906
20
-564.1528
30
0.0
40
8.0
1
22
50
0.0
0
TEXT
8
DIM-LABELS
7
STANDARD
10
1338.9366
20
-517.6938
30
0.0
40
5.5
1
75.0'
50
0.0
0
TEXT
8
DIM-LABELS
7
STANDARD
10
1374.8606
20
-562.7241
30
0.0
40
5.5
1
100.0'
50
0.0
0
TEXT
8
DIM-LABELS
7
STANDARD
10
1342.8446
20
-610.6117
30
0.0
40
5.5
1
75.0'
50
0.0
0
TEXT
8
DIM-LABELS
7
STANDARD
10
1306.9206
20
-565.5815
30
0.0
40
5.5
1
100.0'
50
0.0
0
POLYLINE
8
LOT_LINE
66
1
70
1
0
VERTEX
8
LOT_LINE
10
1376.2564
20
-512.6212
30
0.0
0
VERTEX
8
LOT_LINE
10
1451.1902
20
-509.4696
30
0.0
0
VERTEX
8
LOT_LINE
10
1455.3923
20
-609.3813
30
0.0
0
VERTEX
8
LOT_LINE
10
1380.4585
20
-612.5328
30
0.0
0
SEQEND
0
TEXT
8
TEXT-LABELS
7
STANDARD
10
1415.8244
20
-561.0012
30
0.0
40
8.0
1
21
50
0.0
0
TEXT
8
DIM-LABELS
7
STANDARD
10
1413.8704
20
-514.5423
30
0.0
40
5.5
1
75.0'
50
0.0
0
TEXT
8
DIM-LABELS
7
STANDARD
10
1449.7943
20
-559.5725
30
0.0
40
5.5
1
100.0'
50
0.0
0
TEXT
8
DIM-LABELS
7
STANDARD
10
1417.7783
20
-607.4601
30
0.0
40
5.5
1
75.0'
50
0.0
0
TEXT
8
DIM-LABELS
7
STANDARD
10
1381.8544
20
-562.4299
30
0.0
40
5.5
1
100.0'
50
0.0
0
POLYLINE
8
LOT_LINE
66
1
70
1
0
VERTEX
8
LOT_LINE
10
1451.1902
20
-509.4696
30
0.0
0
VERTEX
8
LOT_LINE
10
1526.1240
20
-506.3180
30
0.0
0
VERTEX
8
LOT_LINE
10
1530.3261
20
-606.2297
30
0.0
0
VERTEX
8
LOT_LINE
10
1455.3923
20
-609.3813
30
0.0
0
SEQEND
0
TEXT
8
TEXT-LABELS
7
STANDARD
10
1490.7581
20
-557.8496
30
0.0
40
8.0
1
20
50
0.0
0
TEXT
8
DIM-LABELS
7
STANDARD
10
1488.8042
20
-511.3907
30
0.0
40
5.5
1
75.0'
50
0.0
0
TEXT
8
DIM-LABELS
7
STANDARD
10
1524.7281
20
-556.4209
30
0.0
40
5.5
1
100.0'
50
0.0
0
TEXT
8
DIM-LABELS
7
STANDARD
10
1492.7121
20
-604.3086
30
0.0
40
5.5
1
75.0'
50
0.0
0
TEXT
8
DIM-LABELS
7
STANDARD
10
1456.7882
20
-559.2783
30
0.0
40
5.5
1
100.0'
50
0.0
0
POLYLINE
8
LOT_LINE
66
1
70
1
0
VERTEX
8
LOT_LINE
10
1526.1240
20
-506.3180
30
0.0
0
VERTEX
8
LOT_LINE
10
1601.0577
20
-503.1664
30
0.0
0
VERTEX
8
LOT_LINE
10
1605.2598
20
-603.0781
30
0.0
0
VERTEX
8
LOT_LINE
10
1530.3261
20
-606.2297
30
0.0
0
SEQEND
0
TEXT
8
TEXT-LABELS
7
STANDARD
10
1565.6919
20
-554.6981
30
0.0
40
8.0
1
19
50
0.0
0
TEXT
8
DIM-LABELS
7
STANDARD
10
1563.7379
20
-508.2391
30
0.0
40
5.5
1
75.0'
50
0.0
0
TEXT
8
DIM-LABELS
7
STANDARD
10
1599.6618
20
-553.2693
30
0.0
40
5.5
1
100.0'
50
0.0
0
TEXT
8
DIM-LABELS
7
STANDARD
10
1567.6459
20
-601.1570
30
0.0
40
5.5
1
75.0'
50
0.0
0
TEXT
8
DIM-LABELS
7
STANDARD
10
1531.7219
20
-556.1268
30
0.0
40
5.5
1
100.0'
50
0.0
0
POLYLINE
8
CURVE
66
1
70
0
0
VERTEX
8
CURVE
10
1675.9915
20
-500.0149
30
0.0
0
VERTEX
8
CURVE
10
1676.4034
20
-506.2513
30
0.0
0
VERTEX
8
CURVE
10
1676.7954
20
-512.4890
30
0.0
0
VERTEX
8
CURVE
10
1677.1675
20
-518.7279
30
0.0
0
VERTEX
8
CURVE
10
1677.5197
20
-524.9679
30
0.0
0
VERTEX
8
CURVE
10
1677.8520
20
-531.2091
30
0.0
0
VERTEX
8
CURVE
10
1678.1644
20
-537.4513
30
0.0
0
VERTEX
8
CURVE
10
1678.4569
20
-543.6944
30
0.0
0
VERTEX
8
CURVE
10
1678.7295
20
-549.9385
30
0.0
0
VERTEX
8
CURVE
10
1678.9822
20
-556.1834
30
0.0
0
VERTEX
8
CURVE
10
1679.2149
20
-562.4290
30
0.0
0
VERTEX
8
CURVE
10
1679.4278
20
-568.6754
30
0.0
0
VERTEX
8
CURVE
10
1679.6207
20
-574.9224
30
0.0
0
VERTEX
8
CURVE
10
1679.7937
20
-581.1700
30
0.0
0
VERTEX
8
CURVE
10
1679.9467
20
-587.4181
30
0.0
0
VERTEX
8
CURVE
10
1680.0799
20
-593.6667
30
0.0
0
VERTEX
8
CURVE
10
1680.1931
20
-599.9157
30
0.0
0
SEQEND
0
POLYLINE
8
LOT_LINE
66
1
70
1
0
VERTEX
8
LOT_LINE
10
1601.0577
20
-503.1664
30
0.0
0
VERTEX
8
LOT_LINE
10
1675.9915
20
-500.0149
30
0.0
0
VERTEX
8
LOT_LINE
10
1676.4034
20
-506.2513
30
0.0
0
VERTEX
8
LOT_LINE
10
1676.7954
20
-512.4890
30
0.0
0
VERTEX
8
LOT_LINE
10
1677.1675
20
-518.7279
30
0.0
0
VERTEX
8
LOT_LINE
10
1677.5197
20
-524.9679
30
0.0
0
VERTEX
8
LOT_LINE
10
1677.8520
20
-531.2091
30
0.0
0
VERTEX
8
LOT_LINE
10
1678.1644
20
-537.4513
30
0.0
0
VERTEX
8
LOT_LINE
10
1678.4569
20
-543.6944
30
0.0
0
VERTEX
8
LOT_LINE
10
1678.7295
20
-549.9385
30
0.0
0
VERTEX
8
LOT_LINE
10
1678.9822
20
-556.1834
30
0.0
0
VERTEX
8
LOT_LINE
10
1679.2149
20
-562.4290
30
0.0
0
VERTEX
8
LOT_LINE
10
1679.4278
20
-568.6754
30
0.0
0
VERTEX
8
LOT_LINE
10
1679.6207
20
-574.9224
30
0.0
0
VERTEX
8
LOT_LINE
10
1679.7937
20
-581.1700
30
0.0
0
VERTEX
8
LOT_LINE
10
1679.9467
20
-587.4181
30
0.0
0
VERTEX
8
LOT_LINE
10
1680.0799
20
-593.6667
30
0.0
0
VERTEX
8
LOT_LINE
10
1680.1936
20
-599.9265
30
0.0
0
VERTEX
8
LOT_LINE
10
1605.2598
20
-603.0781
30
0.0
0
SEQEND
0
TEXT
8
TEXT-LABELS
7
STANDARD
10
1640.6256
20
-551.5465
30
0.0
40
8.0
1
18
50
0.0
0
TEXT
8
DIM-LABELS
7
STANDARD
10
1638.6717
20
-505.0876
30
0.0
40
5.5
1
75.0'
50
0.0
0
TEXT
8
DIM-LABELS
7
STANDARD
10
1674.5956
20
-550.1178
30
0.0
40
5.5
1
100.0'
50
0.0
0
TEXT
8
DIM-LABELS
7
STANDARD
10
1642.5796
20
-598.0054
30
0.0
40
5.5
1
75.0'
50
0.0
0
TEXT
8
DIM-LABELS
7
STANDARD
10
1606.6557
20
-552.9752
30
0.0
40
5.5
1
100.0'
50
0.0
0
POLYLINE
8
LOT_LINE
66
1
70
1
0
VERTEX
8
LOT_LINE
10
240.4898
20
-720.5308
30
0.0
0
VERTEX
8
LOT_LINE
10
333.9072
20
-716.6018
30
0.0
0
VERTEX
8
LOT_LINE
10
338.1093
20
-816.5135
30
0.0
0
VERTEX
8
LOT_LINE
10
244.6919
20
-820.4425
30
0.0
0
SEQEND
0
TEXT
8
TEXT-LABELS
7
STANDARD
10
289.2996
20
-768.5222
30
0.0
40
8.0
1
1
50
0.0
0
TEXT
8
DIM-LABELS
7
STANDARD
10
287.3456
20
-722.0632
30
0.0
40
5.5
1
93.5'
50
0.0
0
TEXT
8
DIM-LABELS
7
STANDARD
10
332.5114
20
-766.7048
30
0.0
40
5.5
1
100.0'
50
0.0
0
TEXT
8
DIM-LABELS
7
STANDARD
10
291.2536
20
-814.9811
30
0.0
40
5.5
1
93.5'
50
0.0
0
TEXT
8
DIM-LABELS
7
STANDARD
10
246.0878
20
-770.3396
30
0.0
40
5.5
1
100.0'
50
0.0
0
POLYLINE
8
LOT_LINE
66
1
70
1
0
VERTEX
8
LOT_LINE
10
333.9072
20
-716.6018
30
0.0
0
VERTEX
8
LOT_LINE
10
408.8410
20
-713.4503
30
0.0
0
VERTEX
8
LOT_LINE
10
413.0431
20
-813.3619
30
0.0
0
VERTEX
8
LOT_LINE
10
338.1093
20
-816.5135
30
0.0
0
SEQEND
0
TEXT
8
TEXT-LABELS
7
STANDARD
10
373.4752
20
-764.9819
30
0.0
40
8.0
1
2
50
0.0
0
TEXT
8
DIM-LABELS
7
STANDARD
10
371.5212
20
-718.5230
30
0.0
40
5.5
1
75.0'
50
0.0
0
TEXT
8
DIM-LABELS
7
STANDARD
10
407.4451
20
-763.5532
30
0.0
40
5.5
1
100.0'
50
0.0
0
TEXT
8
DIM-LABELS
7
STANDARD
10
375.4291
20
-811.4408
30
0.0
40
5.5
1
75.0'
50
0.0
0
TEXT
8
DIM-LABELS
7
STANDARD
10
339.5052
20
-766.4106
30
0.0
40
5.5
1
100.0'
50
0.0
0
POLYLINE
8
LOT_LINE
66
1
70
1
0
VERTEX
8
LOT_LINE
10
408.8410
20
-713.4503
30
0.0
0
VERTEX
8
LOT_LINE
10
483.7747
20
-710.2987
30
0.0
0
VERTEX
8
LOT_LINE
10
487.9768
20
-810.2104
30
0.0
0
VERTEX
8
LOT_LINE
10
413.0431
20
-813.3619
30
0.0
0
SEQEND
0
TEXT
8
TEXT-LABELS
7
STANDARD
10
448.4089
20
-761.8303
30
0.0
40
8.0
1
3
50
0.0
0
TEXT
8
DIM-LABELS
7
STANDARD
10
446.4549
20
-715.3714
30
0.0
40
5.5
1
75.0'
50
0.0
0
TEXT
8
DIM-LABELS
7
STANDARD
10
482.3789
20
-760.4016
30
0.0
40
5.5
1
100.0'
50
0.0
0
TEXT
8
DIM-LABELS
7
STANDARD
10
450.3629
20
-808.2893
30
0.0
40
5.5
1
75.0'
50
0.0
0
TEXT
8
DIM-LABELS
7
STANDARD
10
414.4389
20
-763.2590
30
0.0
40
5.5
1
100.0'
50
0.0
0
POLYLINE
8
LOT_LINE
66
1
70
1
0
VERTEX
8
LOT_LINE
10
483.7747
20
-710.2987
30
0.0
0
VERTEX
8
LOT_LINE
10
558.7085
20
-707.1471
30
0.0
0
VERTEX
8
LOT_LINE
10
562.9106
20
-807.0588
30
0.0
0
VERTEX
8
LOT_LINE
10
487.9768
20
-810.2104
30
0.0
0
SEQEND
0
TEXT
8
TEXT-LABELS
7
STANDARD
10
523.3427
20
-758.6788
30
0.0
40
8.0
1
4
50
0.0
0
TEXT
8
DIM-LABELS
7
STANDARD
10
521.3887
20
-712.2198
30
0.0
40
5.5
1
75.0'
50
0.0
0
TEXT
8
DIM-LABELS
7
STANDARD
10
557.3126
20
-757.2500
30
0.0
40
5.5
1
100.0'
50
0.0
0
TEXT
8
DIM-LABELS
7
STANDARD
10
525.2966
20
-805.1377
30
0.0
40
5.5
1
75.0'
50
0.0
0
TEXT
8
DIM-LABELS
7
STANDARD
10
489.3727
20
-760.1075
30
0.0
40
5.5
1
100.0'
50
0.0
0
POLYLINE
8
LOT_LINE
66
1
70
1
0
VERTEX
8
LOT_LINE
10
558.7085
20
-707.1471
30
0.0
0
VERTEX
8
LOT_LINE
10
633.6423
20
-703.9956
30
0.0
0
VERTEX
8
LOT_LINE
10
637.8444
20
-803.9072
30
0.0
0
VERTEX
8
LOT_LINE
10
562.9106
20
-807.0588
30
0.0
0
SEQEND
0
TEXT
8
TEXT-LABELS
7
STANDARD
10
598.2764
20
-755.5272
30
0.0
40
8.0
1
5
50
0.0
0
TEXT
8
DIM-LABELS
7
STANDARD
10
596.3224
20
-709.0683
30
0.0
40
5.5
1
75.0'
50
0.0
0
TEXT
8
DIM-LABELS
7
STANDARD
10
632.2464
20
-754.0985
30
0.0
40
5.5
1
100.0'
50
0.0
0
TEXT
8
DIM-LABELS
7
STANDARD
10
600.2304
20
-801.9861
30
0.0
40
5.5
1
75.0'
50
0.0
0
TEXT
8
DIM-LABELS
7
STANDARD
10
564.3065
20
-756.9559
30
0.0
40
5.5
1
100.0'
50
0.0
0
POLYLINE
8
LOT_LINE
66
1
70
1
0
VERTEX
8
LOT_LINE
10
633.6423
20
-703.9956
30
0.0
0
VERTEX
8
LOT_LINE
10
708.5760
20
-700.8440
30
0.0
0
VERTEX
8
LOT_LINE
10
712.7781
20
-800.7557
30
0.0
0
VERTEX
8
LOT_LINE
10
637.8444
20
-803.9072
30
0.0
0
SEQEND
0
TEXT
8
TEXT-LABELS
7
STANDARD
10
673.2102
20
-752.3756
30
0.0
40
8.0
1
6
50
0.0
0
TEXT
8
DIM-LABELS
7
STANDARD
10
671.2562
20
-705.9167
30
0.0
40
5.5
1
75.0'
50
0.0
0
TEXT
8
DIM-LABELS
7
STANDARD
10
707.1801
20
-750.9469
30
0.0
40
5.5
1
100.0'
50
0.0
0
TEXT
8
DIM-LABELS
7
STANDARD
10
675.1642
20
-798.8345
30
0.0
40
5.5
1
75.0'
50
0.0
0
TEXT
8
DIM-LABELS
7
STANDARD
10
639.2402
20
-753.8043
30
0.0
40
5.5
1
100.0'
50
0.0
0
POLYLINE
8
LOT_LINE
66
1
70
1
0
VERTEX
8
LOT_LINE
10
708.5760
20
-700.8440
30
0.0
0
VERTEX
8
LOT_LINE
10
783.5098
20
-697.6924
30
0.0
0
VERTEX
8
LOT_LINE
10
787.7119
20
-797.6041
30
0.0
0
VERTEX
8
LOT_LINE
10
712.7781
20
-800.7557
30
0.0
0
SEQEND
0
TEXT
8
TEXT-LABELS
7
STANDARD
10
748.1439
20
-749.2240
30
0.0
40
8.0
1
7
50
0.0
0
TEXT
8
DIM-LABELS
7
STANDARD
10
746.1900
20
-702.7651
30
0.0
40
5.5
1
75.0'
50
0.0
0
TEXT
8
DIM-LABELS
7
STANDARD
10
782.1139
20
-747.7953
30
0.0
40
5.5
1
100.0'
50
0.0
0
TEXT
8
DIM-LABELS
7
STANDARD
10
750.0979
20
-795.6830
30
0.0
40
5.5
1
75.0'
50
0.0
0
TEXT
8
DIM-LABELS
7
STANDARD
10
714.1740
20
-750.6527
30
0.0
40
5.5
1
100.0'
50
0.0
0
POLYLINE
8
LOT_LINE
66
1
70
1
0
VERTEX
8
LOT_LINE
10
783.5098
20
-697.6924
30
0.0
0
VERTEX
8
LOT_LINE
10
858.4435
20
-694.5408
30
0.0
0
VERTEX
8
LOT_LINE
10
862.6456
20
-794.4525
30
0.0
0
VERTEX
8
LOT_LINE
10
787.7119
20
-797.6041
30
0.0
0
SEQEND
0
TEXT
8
TEXT-LABELS
7
STANDARD
10
823.0777
20
-746.0725
30
0.0
40
8.0
1
8
50
0.0
0
TEXT
8
DIM-LABELS
7
STANDARD
10
821.1237
20
-699.6135
30
0.0
40
5.5
1
75.0'
50
0.0
0
TEXT
8
DIM-LABELS
7
STANDARD
10
857.0477
20
-744.6437
30
0.0
40
5.5
1
100.0'
50
0.0
0
TEXT
8
DIM-LABELS
7
STANDARD
10
825.0317
20
-792.5314
30
0.0
40
5.5
1
75.0'
50
0.0
0
TEXT
8
DIM-LABELS
7
STANDARD
10
789.1077
20
-747.5012
30
0.0
40
5.5
1
100.0'
50
0.0
0
POLYLINE
8
LOT_LINE
66
1
70
1
0
VERTEX
8
LOT_LINE
10
858.4435
20
-694.5408
30
0.0
0
VERTEX
8
LOT_LINE
10
933.3773
20
-691.3893
30
0.0
0
VERTEX
8
LOT_LINE
10
937.5794
20
-791.3009
30
0.0
0
VERTEX
8
LOT_LINE
10
862.6456
20
-794.4525
30
0.0
0
SEQEND
0
TEXT
8
TEXT-LABELS
7
STANDARD
10
898.0114
20
-742.9209
30
0.0
40
8.0
1
9
50
0.0
0
TEXT
8
DIM-LABELS
7
STANDARD
10
896.0575
20
-696.4620
30
0.0
40
5.5
1
75.0'
50
0.0
0
TEXT
8
DIM-LABELS
7
STANDARD
10
931.9814
20
-741.4922
30
0.0
40
5.5
1
100.0'
50
0.0
0
TEXT
8
DIM-LABELS
7
STANDARD
10
899.9654
20
-789.3798
30
0.0
40
5.5
1
75.0'
50
0.0
0
TEXT
8
DIM-LABELS
7
STANDARD
10
864.0415
20
-744.3496
30
0.0
40
5.5
1
100.0'
50
0.0
0
POLYLINE
8
LOT_LINE
66
1
70
1
0
VERTEX
8
LOT_LINE
10
933.3773
20
-691.3893
30
0.0
0
VERTEX
8
LOT_LINE
10
1008.3110
20
-688.2377
30
0.0
0
VERTEX
8
LOT_LINE
10
1012.5131
20
-788.1494
30
0.0
0
VERTEX
8
LOT_LINE
10
937.5794
20
-791.3009
30
0.0
0
SEQEND
0
TEXT
8
TEXT-LABELS
7
STANDARD
10
972.9452
20
-739.7693
30
0.0
40
8.0
1
10
50
0.0
0
TEXT
8
DIM-LABELS
7
STANDARD
10
970.9912
20
-693.3104
30
0.0
40
5.5
1
75.0'
50
0.0
0
TEXT
8
DIM-LABELS
7
STANDARD
10
1006.9152
20
-738.3406
30
0.0
40
5.5
1
100.0'
50
0.0
0
TEXT
8
DIM-LABELS
7
STANDARD
10
974.8992
20
-786.2282
30
0.0
40
5.5
1
75.0'
50
0.0
0
TEXT
8
DIM-LABELS
7
STANDARD
10
938.9752
20
-741.1980
30
0.0
40
5.5
1
100.0'
50
0.0
0
POLYLINE
8
LOT_LINE
66
1
70
1
0
VERTEX
8
LOT_LINE
10
1008.3110
20
-688.2377
30
0.0
0
VERTEX
8
LOT_LINE
10
1083.2448
20
-685.0861
30
0.0
0
VERTEX
8
LOT_LINE
10
1087.4469
20
-784.9978
30
0.0
0
VERTEX
8
LOT_LINE
10
1012.5131
20
-788.1494
30
0.0
0
SEQEND
0
TEXT
8
TEXT-LABELS
7
STANDARD
10
1047.8790
20
-736.6177
30
0.0
40
8.0
1
11
50
0.0
0
TEXT
8
DIM-LABELS
7
STANDARD
10
1045.9250
20
-690.1588
30
0.0
40
5.5
1
75.0'
50
0.0
0
TEXT
8
DIM-LABELS
7
STANDARD
10
1081.8489
20
-735.1890
30
0.0
40
5.5
1
100.0'
50
0.0
0
TEXT
8
DIM-LABELS
7
STANDARD
10
1049.8329
20
-783.0767
30
0.0
40
5.5
1
75.0'
50
0.0
0
TEXT
8
DIM-LABELS
7
STANDARD
10
1013.9090
20
-738.0465
30
0.0
40
5.5
1
100.0'
50
0.0
0
POLYLINE
8
LOT_LINE
66
1
70
1
0
VERTEX
8
LOT_LINE
10
1083.2448
20
-685.0861
30
0.0
0
VERTEX
8
LOT_LINE
10
1158.1785
20
-681.9345
30
0.0
0
VERTEX
8
LOT_LINE
10
1162.3806
20
-781.8462
30
0.0
0
VERTEX
8
LOT_LINE
10
1087.4469
20
-784.9978
30
0.0
0
SEQEND
0
TEXT
8
TEXT-LABELS
7
STANDARD
10
1122.8127
20
-733.4662
30
0.0
40
8.0
1
12
50
0.0
0
TEXT
8
DIM-LABELS
7
STANDARD
10
1120.8587
20
-687.0072
30
0.0
40
5.5
1
75.0'
50
0.0
0
TEXT
8
DIM-LABELS
7
STANDARD
10
1156.7827
20
-732.0375
30
0.0
40
5.5
1
100.0'
50
0.0
0
TEXT
8
DIM-LABELS
7
STANDARD
10
1124.7667
20
-779.9251
30
0.0
40
5.5
1
75.0'
50
0.0
0
TEXT
8
DIM-LABELS
7
STANDARD
10
1088.8427
20
-734.8949
30
0.0
40
5.5
1
100.0'
50
0.0
0
POLYLINE
8
LOT_LINE
66
1
70
1
0
VERTEX
8
LOT_LINE
10
1158.1785
20
-681.9345
30
0.0
0
VERTEX
8
LOT_LINE
10
1233.1123
20
-678.7830
30
0.0
0
VERTEX
8
LOT_LINE
10
1237.3144
20
-778.6946
30
0.0
0
VERTEX
8
LOT_LINE
10
1162.3806
20
-781.8462
30
0.0
0
SEQEND
0
TEXT
8
TEXT-LABELS
7
STANDARD
10
1197.7465
20
-730.3146
30
0.0
40
8.0
1
13
50
0.0
0
TEXT
8
DIM-LABELS
7
STANDARD
10
1195.7925
20
-683.8557
30
0.0
40
5.5
1
75.0'
50
0.0
0
TEXT
8
DIM-LABELS
7
STANDARD
10
1231.7164
20
-728.8859
30
0.0
40
5.5
1
100.0'
50
0.0
0
TEXT
8
DIM-LABELS
7
STANDARD
10
1199.7004
20
-776.7735
30
0.0
40
5.5
1
75.0'
50
0.0
0
TEXT
8
DIM-LABELS
7
STANDARD
10
1163.7765
20
-731.7433
30
0.0
40
5.5
1
100.0'
50
0.0
0
POLYLINE
8
LOT_LINE
66
1
70
1
0
VERTEX
8
LOT_LINE
10
1233.1123
20
-678.7830
30
0.0
0
VERTEX
8
LOT_LINE
10
1308.0460
20
-675.6314
30
0.0
0
VERTEX
8
LOT_LINE
10
1312.2481
20
-775.5431
30
0.0
0
VERTEX
8
LOT_LINE
10
1237.3144
20
-778.6946
30
0.0
0
SEQEND
0
TEXT
8
TEXT-LABELS
7
STANDARD
10
1272.6802
20
-727.1630
30
0.0
40
8.0
1
14
50
0.0
0
TEXT
8
DIM-LABELS
7
STANDARD
10
1270.7262
20
-680.7041
30
0.0
40
5.5
1
75.0'
50
0.0
0
TEXT
8
DIM-LABELS
7
STANDARD
10
1306.6502
20
-725.7343
30
0.0
40
5.5
1
100.0'
50
0.0
0
TEXT
8
DIM-LABELS
7
STANDARD
10
1274.6342
20
-773.6220
30
0.0
40
5.5
1
75.0'
50
0.0
0
TEXT
8
DIM-LABELS
7
STANDARD
10
1238.7102
20
-728.5917
30
0.0
40
5.5
1
100.0'
50
0.0
0
POLYLINE
8
LOT_LINE
66
1
70
1
0
VERTEX
8
LOT_LINE
10
1308.0460
20
-675.6314
30
0.0
0
VERTEX
8
LOT_LINE
10
1382.9798
20
-672.4798
30
0.0
0
VERTEX
8
LOT_LINE
10
1387.1819
20
-772.3915
30
0.0
0
VERTEX
8
LOT_LINE
10
1312.2481
20
-775.5431
30
0.0
0
SEQEND
0
TEXT
8
TEXT-LABELS
7
STANDARD
10
1347.6140
20
-724.0115
30
0.0
40
8.0
1
15
50
0.0
0
TEXT
8
DIM-LABELS
7
STANDARD
10
1345.6600
20
-677.5525
30
0.0
40
5.5
1
75.0'
50
0.0
0
TEXT
8
DIM-LABELS
7
STANDARD
10
1381.5839
20
-722.5827
30
0.0
40
5.5
1
100.0'
50
0.0
0
TEXT
8
DIM-LABELS
7
STANDARD
10
1349.5679
20
-770.4704
30
0.0
40
5.5
1
75.0'
50
0.0
0
TEXT
8
DIM-LABELS
7
STANDARD
10
1313.6440
20
-725.4402
30
0.0
40
5.5
1
100.0'
50
0.0
0
POLYLINE
8
LOT_LINE
66
1
70
1
0
VERTEX
8
LOT_LINE
10
1382.9798
20
-672.4798
30
0.0
0
VERTEX
8
LOT_LINE
10
1457.9136
20
-669.3283
30
0.0
0
VERTEX
8
LOT_LINE
10
1462.1157
20
-769.2399
30
0.0
0
VERTEX
8
LOT_LINE
10
1387.1819
20
-772.3915
30
0.0
0
SEQEND
0
TEXT
8
TEXT-LABELS
7
STANDARD
10
1422.5477
20
-720.8599
30
0.0
40
8.0
1
16
50
0.0
0
TEXT
8
DIM-LABELS
7
STANDARD
10
1420.5938
20
-674.4010
30
0.0
40
5.5
1
75.0'
50
0.0
0
TEXT
8
DIM-LABELS
7
STANDARD
10
1456.5177
20
-719.4312
30
0.0
40
5.5
1
100.0'
50
0.0
0
TEXT
8
DIM-LABELS
7
STANDARD
10
1424.5017
20
-767.3188
30
0.0
40
5.5
1
75.0'
50
0.0
0
TEXT
8
DIM-LABELS
7
STANDARD
10
1388.5778
20
-722.2886
30
0.0
40
5.5
1
100.0'
50
0.0
0
POLYLINE
8
CURVE
66
1
70
0
0
VERTEX
8
CURVE
10
1532.8473
20
-666.1767
30
0.0
0
VERTEX
8
CURVE
10
1533.2592
20
-672.4131
30
0.0
0
VERTEX
8
CURVE
10
1533.6512
20
-678.6508
30
0.0
0
VERTEX
8
CURVE
10
1534.0233
20
-684.8897
30
0.0
0
VERTEX
8
CURVE
10
1534.3755
20
-691.1298
30
0.0
0
VERTEX
8
CURVE
10
1534.7078
20
-697.3709
30
0.0
0
VERTEX
8
CURVE
10
1535.0202
20
-703.6131
30
0.0
0
VERTEX
8
CURVE
10
1535.3127
20
-709.8563
30
0.0
0
VERTEX
8
CURVE
10
1535.5853
20
-716.1003
30
0.0
0
VERTEX
8
CURVE
10
1535.8380
20
-722.3452
30
0.0
0
VERTEX
8
CURVE
10
1536.0708
20
-728.5909
30
0.0
0
VERTEX
8
CURVE
10
1536.2836
20
-734.8372
30
0.0
0
VERTEX
8
CURVE
10
1536.4765
20
-741.0842
30
0.0
0
VERTEX
8
CURVE
10
1536.6495
20
-747.3318
30
0.0
0
VERTEX
8
CURVE
10
1536.8026
20
-753.5800
30
0.0
0
VERTEX
8
CURVE
10
1536.9357
20
-759.8286
30
0.0
0
VERTEX
8
CURVE
10
1537.0490
20
-766.0775
30
0.0
0
SEQEND
0
POLYLINE
8
LOT_LINE
66
1
70
1
0
VERTEX
8
LOT_LINE
10
1457.9136
20
-669.3283
30
0.0
0
VERTEX
8
LOT_LINE
10
1532.8473
20
-666.1767
30
0.0
0
VERTEX
8
LOT_LINE
10
1533.2592
20
-672.4131
30
0.0
0
VERTEX
8
LOT_LINE
10
1533.6512
20
-678.6508
30
0.0
0
VERTEX
8
LOT_LINE
10
1534.0233
20
-684.8897
30
0.0
0
VERTEX
8
LOT_LINE
10
1534.3755
20
-691.1298
30
0.0
0
VERTEX
8
LOT_LINE
10
1534.7078
20
-697.3709
30
0.0
0
VERTEX
8
LOT_LINE
10
1535.0202
20
-703.6131
30
0.0
0
VERTEX
8
LOT_LINE
10
1535.3127
20
-709.8563
30
0.0
0
VERTEX
8
LOT_LINE
10
1535.5853
20
-716.1003
30
0.0
0
VERTEX
8
LOT_LINE
10
1535.8380
20
-722.3452
30
0.0
0
VERTEX
8
LOT_LINE
10
1536.0708
20
-728.5909
30
0.0
0
VERTEX
8
LOT_LINE
10
1536.2836
20
-734.8372
30
0.0
0
VERTEX
8
LOT_LINE
10
1536.4765
20
-741.0842
30
0.0
0
VERTEX
8
LOT_LINE
10
1536.6495
20
-747.3318
30
0.0
0
VERTEX
8
LOT_LINE
10
1536.8026
20
-753.5800
30
0.0
0
VERTEX
8
LOT_LINE
10
1536.9357
20
-759.8286
30
0.0
0
VERTEX
8
LOT_LINE
10
1537.0494
20
-766.0884
30
0.0
0
VERTEX
8
LOT_LINE
10
1462.1157
20
-769.2399
30
0.0
0
SEQEND
0
TEXT
8
TEXT-LABELS
7
STANDARD
10
1497.4815
20
-717.7083
30
0.0
40
8.0
1
17
50
0.0
0
TEXT
8
DIM-LABELS
7
STANDARD
10
1495.5275
20
-671.2494
30
0.0
40
5.5
1
75.0'
50
0.0
0
TEXT
8
DIM-LABELS
7
STANDARD
10
1531.4514
20
-716.2796
30
0.0
40
5.5
1
100.0'
50
0.0
0
TEXT
8
DIM-LABELS
7
STANDARD
10
1499.4355
20
-764.1672
30
0.0
40
5.5
1
75.0'
50
0.0
0
TEXT
8
DIM-LABELS
7
STANDARD
10
1463.5115
20
-719.1370
30
0.0
40
5.5
1
100.0'
50
0.0
0
POLYLINE
8
LOT_LINE
66
1
70
1
0
VERTEX
8
LOT_LINE
10
244.6919
20
-820.4425
30
0.0
0
VERTEX
8
LOT_LINE
10
338.1093
20
-816.5135
30
0.0
0
VERTEX
8
LOT_LINE
10
342.3114
20
-916.4252
30
0.0
0
VERTEX
8
LOT_LINE
10
248.8940
20
-920.3542
30
0.0
0
SEQEND
0
TEXT
8
TEXT-LABELS
7
STANDARD
10
293.5017
20
-868.4338
30
0.0
40
8.0
1
34
50
0.0
0
TEXT
8
DIM-LABELS
7
STANDARD
10
291.5477
20
-821.9749
30
0.0
40
5.5
1
93.5'
50
0.0
0
TEXT
8
DIM-LABELS
7
STANDARD
10
336.7135
20
-866.6164
30
0.0
40
5.5
1
100.0'
50
0.0
0
TEXT
8
DIM-LABELS
7
STANDARD
10
295.4556
20
-914.8928
30
0.0
40
5.5
1
93.5'
50
0.0
0
TEXT
8
DIM-LABELS
7
STANDARD
10
250.2899
20
-870.2512
30
0.0
40
5.5
1
100.0'
50
0.0
0
POLYLINE
8
LOT_LINE
66
1
70
1
0
VERTEX
8
LOT_LINE
10
338.1093
20
-816.5135
30
0.0
0
VERTEX
8
LOT_LINE
10
413.0431
20
-813.3619
30
0.0
0
VERTEX
8
LOT_LINE
10
417.2452
20
-913.2736
30
0.0
0
VERTEX
8
LOT_LINE
10
342.3114
20
-916.4252
30
0.0
0
SEQEND
0
TEXT
8
TEXT-LABELS
7
STANDARD
10
377.6773
20
-864.8936
30
0.0
40
8.0
1
33
50
0.0
0
TEXT
8
DIM-LABELS
7
STANDARD
10
375.7233
20
-818.4346
30
0.0
40
5.5
1
75.0'
50
0.0
0
TEXT
8
DIM-LABELS
7
STANDARD
10
411.6472
20
-863.4649
30
0.0
40
5.5
1
100.0'
50
0.0
0
TEXT
8
DIM-LABELS
7
STANDARD
10
379.6312
20
-911.3525
30
0.0
40
5.5
1
75.0'
50
0.0
0
TEXT
8
DIM-LABELS
7
STANDARD
10
343.7073
20
-866.3223
30
0.0
40
5.5
1
100.0'
50
0.0
0
POLYLINE
8
LOT_LINE
66
1
70
1
0
VERTEX
8
LOT_LINE
10
413.0431
20
-813.3619
30
0.0
0
VERTEX
8
LOT_LINE
10
487.9768
20
-810.2104
30
0.0
0
VERTEX
8
LOT_LINE
10
492.1789
20
-910.1220
30
0.0
0
VERTEX
8
LOT_LINE
10
417.2452
20
-913.2736
30
0.0
0
SEQEND
0
TEXT
8
TEXT-LABELS
7
STANDARD
10
452.6110
20
-861.7420
30
0.0
40
8.0
1
32
50
0.0
0
TEXT
8
DIM-LABELS
7
STANDARD
10
450.6570
20
-815.2831
30
0.0
40
5.5
1
75.0'
50
0.0
0
TEXT
8
DIM-LABELS
7
STANDARD
10
486.5810
20
-860.3133
30
0.0
40
5.5
1
100.0'
50
0.0
0
TEXT
8
DIM-LABELS
7
STANDARD
10
454.5650
20
-908.2009
30
0.0
40
5.5
1
75.0'
50
0.0
0
TEXT
8
DIM-LABELS
7
STANDARD
10
418.6410
20
-863.1707
30
0.0
40
5.5
1
100.0'
50
0.0
0
POLYLINE
8
LOT_LINE
66
1
70
1
0
VERTEX
8
LOT_LINE
10
487.9768
20
-810.2104
30
0.0
0
VERTEX
8
LOT_LINE
10
562.9106
20
-807.0588
30
0.0
0
VERTEX
8
LOT_LINE
10
567.1127
20
-906.9705
30
0.0
0
VERTEX
8
LOT_LINE
10
492.1789
20
-910.1220
30
0.0
0
SEQEND
0
TEXT
8
TEXT-LABELS
7
STANDARD
10
527.5448
20
-858.5904
30
0.0
40
8.0
1
31
50
0.0
0
TEXT
8
DIM-LABELS
7
STANDARD
10
525.5908
20
-812.1315
30
0.0
40
5.5
1
75.0'
50
0.0
0
TEXT
8
DIM-LABELS
7
STANDARD
10
561.5147
20
-857.1617
30
0.0
40
5.5
1
100.0'
50
0.0
0
TEXT
8
DIM-LABELS
7
STANDARD
10
529.4987
20
-905.0494
30
0.0
40
5.5
1
75.0'
50
0.0
0
TEXT
8
DIM-LABELS
7
STANDARD
10
493.5748
20
-860.0191
30
0.0
40
5.5
1
100.0'
50
0.0
0
POLYLINE
8
LOT_LINE
66
1
70
1
0
VERTEX
8
LOT_LINE
10
562.9106
20
-807.0588
30
0.0
0
VERTEX
8
LOT_LINE
10
637.8444
20
-803.9072
30
0.0
0
VERTEX
8
LOT_LINE
10
642.0464
20
-903.8189
30
0.0
0
VERTEX
8
LOT_LINE
10
567.1127
20
-906.9705
30
0.0
0
SEQEND
0
TEXT
8
TEXT-LABELS
7
STANDARD
10
602.4785
20
-855.4389
30
0.0
40
8.0
1
30
50
0.0
0
TEXT
8
DIM-LABELS
7
STANDARD
10
600.5245
20
-808.9799
30
0.0
40
5.5
1
75.0'
50
0.0
0
TEXT
8
DIM-LABELS
7
STANDARD
10
636.4485
20
-854.0101
30
0.0
40
5.5
1
100.0'
50
0.0
0
TEXT
8
DIM-LABELS
7
STANDARD
10
604.4325
20
-901.8978
30
0.0
40
5.5
1
75.0'
50
0.0
0
TEXT
8
DIM-LABELS
7
STANDARD
10
568.5086
20
-856.8676
30
0.0
40
5.5
1
100.0'
50
0.0
0
POLYLINE
8
LOT_LINE
66
1
70
1
0
VERTEX
8
LOT_LINE
10
637.8444
20
-803.9072
30
0.0
0
VERTEX
8
LOT_LINE
10
712.7781
20
-800.7557
30
0.0
0
VERTEX
8
LOT_LINE
10
716.9802
20
-900.6673
30
0.0
0
VERTEX
8
LOT_LINE
10
642.0464
20
-903.8189
30
0.0
0
SEQEND
0
TEXT
8
TEXT-LABELS
7
STANDARD
10
677.4123
20
-852.2873
30
0.0
40
8.0
1
29
50
0.0
0
TEXT
8
DIM-LABELS
7
STANDARD
10
675.4583
20
-805.8284
30
0.0
40
5.5
1
75.0'
50
0.0
0
TEXT
8
DIM-LABELS
7
STANDARD
10
711.3822
20
-850.8586
30
0.0
40
5.5
1
100.0'
50
0.0
0
TEXT
8
DIM-LABELS
7
STANDARD
10
679.3663
20
-898.7462
30
0.0
40
5.5
1
75.0'
50
0.0
0
TEXT
8
DIM-LABELS
7
STANDARD
10
643.4423
20
-853.7160
30
0.0
40
5.5
1
100.0'
50
0.0
0
POLYLINE
8
LOT_LINE
66
1
70
1
0
VERTEX
8
LOT_LINE
10
712.7781
20
-800.7557
30
0.0
0
VERTEX
8
LOT_LINE
10
787.7119
20
-797.6041
30
0.0
0
VERTEX
8
LOT_LINE
10
791.9140
20
-897.5158
30
0.0
0
VERTEX
8
LOT_LINE
10
716.9802
20
-900.6673
30
0.0
0
SEQEND
0
TEXT
8
TEXT-LABELS
7
STANDARD
10
752.3460
20
-849.1357
30
0.0
40
8.0
1
28
50
0.0
0
TEXT
8
DIM-LABELS
7
STANDARD
10
750.3921
20
-802.6768
30
0.0
40
5.5
1
75.0'
50
0.0
0
TEXT
8
DIM-LABELS
7
STANDARD
10
786.3160
20
-847.7070
30
0.0
40
5.5
1
100.0'
50
0.0
0
TEXT
8
DIM-LABELS
7
STANDARD
10
754.3000
20
-895.5946
30
0.0
40
5.5
1
75.0'
50
0.0
0
TEXT
8
DIM-LABELS
7
STANDARD
10
718.3761
20
-850.5644
30
0.0
40
5.5
1
100.0'
50
0.0
0
POLYLINE
8
LOT_LINE
66
1
70
1
0
VERTEX
8
LOT_LINE
10
787.7119
20
-797.6041
30
0.0
0
VERTEX
8
LOT_LINE
10
862.6456
20
-794.4525
30
0.0
0
VERTEX
8
LOT_LINE
10
866.8477
20
-894.3642
30
0.0
0
VERTEX
8
LOT_LINE
10
791.9140
20
-897.5158
30
0.0
0
SEQEND
0
TEXT
8
TEXT-LABELS
7
STANDARD
10
827.2798
20
-845.9841
30
0.0
40
8.0
1
27
50
0.0
0
TEXT
8
DIM-LABELS
7
STANDARD
10
825.3258
20
-799.5252
30
0.0
40
5.5
1
75.0'
50
0.0
0
TEXT
8
DIM-LABELS
7
STANDARD
10
861.2498
20
-844.5554
30
0.0
40
5.5
1
100.0'
50
0.0
0
TEXT
8
DIM-LABELS
7
STANDARD
10
829.2338
20
-892.4431
30
0.0
40
5.5
1
75.0'
50
0.0
0
TEXT
8
DIM-LABELS
7
STANDARD
10
793.3098
20
-847.4128
30
0.0
40
5.5
1
100.0'
50
0.0
0
POLYLINE
8
LOT_LINE
66
1
70
1
0
VERTEX
8
LOT_LINE
10
862.6456
20
-794.4525
30
0.0
0
VERTEX
8
LOT_LINE
10
937.5794
20
-791.3009
30
0.0
0
VERTEX
8
LOT_LINE
10
941.7815
20
-891.2126
30
0.0
0
VERTEX
8
LOT_LINE
10
866.8477
20
-894.3642
30
0.0
0
SEQEND
0
TEXT
8
TEXT-LABELS
7
STANDARD
10
902.2135
20
-842.8326
30
0.0
40
8.0
1
26
50
0.0
0
TEXT
8
DIM-LABELS
7
STANDARD
10
900.2596
20
-796.3736
30
0.0
40
5.5
1
75.0'
50
0.0
0
TEXT
8
DIM-LABELS
7
STANDARD
10
936.1835
20
-841.4038
30
0.0
40
5.5
1
100.0'
50
0.0
0
TEXT
8
DIM-LABELS
7
STANDARD
10
904.1675
20
-889.2915
30
0.0
40
5.5
1
75.0'
50
0.0
0
TEXT
8
DIM-LABELS
7
STANDARD
10
868.2436
20
-844.2613
30
0.0
40
5.5
1
100.0'
50
0.0
0
POLYLINE
8
LOT_LINE
66
1
70
1
0
VERTEX
8
LOT_LINE
10
937.5794
20
-791.3009
30
0.0
0
VERTEX
8
LOT_LINE
10
1012.5131
20
-788.1494
30
0.0
0
VERTEX
8
LOT_LINE
10
1016.7152
20
-888.0610
30
0.0
0
VERTEX
8
LOT_LINE
10
941.7815
20
-891.2126
30
0.0
0
SEQEND
0
TEXT
8
TEXT-LABELS
7
STANDARD
10
977.1473
20
-839.6810
30
0.0
40
8.0
1
25
50
0.0
0
TEXT
8
DIM-LABELS
7
STANDARD
10
975.1933
20
-793.2221
30
0.0
40
5.5
1
75.0'
50
0.0
0
TEXT
8
DIM-LABELS
7
STANDARD
10
1011.1173
20
-838.2523
30
0.0
40
5.5
1
100.0'
50
0.0
0
TEXT
8
DIM-LABELS
7
STANDARD
10
979.1013
20
-886.1399
30
0.0
40
5.5
1
75.0'
50
0.0
0
TEXT
8
DIM-LABELS
7
STANDARD
10
943.1773
20
-841.1097
30
0.0
40
5.5
1
100.0'
50
0.0
0
POLYLINE
8
LOT_LINE
66
1
70
1
0
VERTEX
8
LOT_LINE
10
1012.5131
20
-788.1494
30
0.0
0
VERTEX
8
LOT_LINE
10
1087.4469
20
-784.9978
30
0.0
0
VERTEX
8
LOT_LINE
10
1091.6490
20
-884.9095
30
0.0
0
VERTEX
8
LOT_LINE
10
1016.7152
20
-888.0610
30
0.0
0
SEQEND
0
TEXT
8
TEXT-LABELS
7
STANDARD
10
1052.0811
20
-836.5294
30
0.0
40
8.0
1
24
50
0.0
0
TEXT
8
DIM-LABELS
7
STANDARD
10
1050.1271
20
-790.0705
30
0.0
40
5.5
1
75.0'
50
0.0
0
TEXT
8
DIM-LABELS
7
STANDARD
10
1086.0510
20
-835.1007
30
0.0
40
5.5
1
100.0'
50
0.0
0
TEXT
8
DIM-LABELS
7
STANDARD
10
1054.0350
20
-882.9883
30
0.0
40
5.5
1
75.0'
50
0.0
0
TEXT
8
DIM-LABELS
7
STANDARD
10
1018.1111
20
-837.9581
30
0.0
40
5.5
1
100.0'
50
0.0
0
POLYLINE
8
LOT_LINE
66
1
70
1
0
VERTEX
8
LOT_LINE
10
1087.4469
20
-784.9978
30
0.0
0
VERTEX
8
LOT_LINE
10
1162.3806
20
-781.8462
30
0.0
0
VERTEX
8
LOT_LINE
10
1166.5827
20
-881.7579
30
0.0
0
VERTEX
8
LOT_LINE
10
1091.6490
20
-884.9095
30
0.0
0
SEQEND
0
TEXT
8
TEXT-LABELS
7
STANDARD
10
1127.0148
20
-833.3778
30
0.0
40
8.0
1
23
50
0.0
0
TEXT
8
DIM-LABELS
7
STANDARD
10
1125.0608
20
-786.9189
30
0.0
40
5.5
1
75.0'
50
0.0
0
TEXT
8
DIM-LABELS
7
STANDARD
10
1160.9848
20
-831.9491
30
0.0
40
5.5
1
100.0'
50
0.0
0
TEXT
8
DIM-LABELS
7
STANDARD
10
1128.9688
20
-879.8368
30
0.0
40
5.5
1
75.0'
50
0.0
0
TEXT
8
DIM-LABELS
7
STANDARD
10
1093.0448
20
-834.8066
30
0.0
40
5.5
1
100.0'
50
0.0
0
POLYLINE
8
LOT_LINE
66
1
70
1
0
VERTEX
8
LOT_LINE
10
1162.3806
20
-781.8462
30
0.0
0
VERTEX
8
LOT_LINE
10
1237.3144
20
-778.6946
30
0.0
0
VERTEX
8
LOT_LINE
10
1241.5165
20
-878.6063
30
0.0
0
VERTEX
8
LOT_LINE
10
1166.5827
20
-881.7579
30
0.0
0
SEQEND
0
TEXT
8
TEXT-LABELS
7
STANDARD
10
1201.9486
20
-830.2263
30
0.0
40
8.0
1
22
50
0.0
0
TEXT
8
DIM-LABELS
7
STANDARD
10
1199.9946
20
-783.7673
30
0.0
40
5.5
1
75.0'
50
0.0
0
TEXT
8
DIM-LABELS
7
STANDARD
10
1235.9185
20
-828.7976
30
0.0
40
5.5
1
100.0'
50
0.0
0
TEXT
8
DIM-LABELS
7
STANDARD
10
1203.9025
20
-876.6852
30
0.0
40
5.5
1
75.0'
50
0.0
0
TEXT
8
DIM-LABELS
7
STANDARD
10
1167.9786
20
-831.6550
30
0.0
40
5.5
1
100.0'
50
0.0
0
POLYLINE
8
LOT_LINE
66
1
70
1
0
VERTEX
8
LOT_LINE
10
1237.3144
20
-778.6946
30
0.0
0
VERTEX
8
LOT_LINE
10
1312.2481
20
-775.5431
30
0.0
0
VERTEX
8
LOT_LINE
10
1316.4502
20
-875.4547
30
0.0
0
VERTEX
8
LOT_LINE
10
1241.5165
20
-878.6063
30
0.0
0
SEQEND
0
TEXT
8
TEXT-LABELS
7
STANDARD
10
1276.8823
20
-827.0747
30
0.0
40
8.0
1
21
50
0.0
0
TEXT
8
DIM-LABELS
7
STANDARD
10
1274.9283
20
-780.6158
30
0.0
40
5.5
1
75.0'
50
0.0
0
TEXT
8
DIM-LABELS
7
STANDARD
10
1310.8523
20
-825.6460
30
0.0
40
5.5
1
100.0'
50
0.0
0
TEXT
8
DIM-LABELS
7
STANDARD
10
1278.8363
20
-873.5336
30
0.0
40
5.5
1
75.0'
50
0.0
0
TEXT
8
DIM-LABELS
7
STANDARD
10
1242.9123
20
-828.5034
30
0.0
40
5.5
1
100.0'
50
0.0
0
POLYLINE
8
LOT_LINE
66
1
70
1
0
VERTEX
8
LOT_LINE
10
1312.2481
20
-775.5431
30
0.0
0
VERTEX
8
LOT_LINE
10
1387.1819
20
-772.3915
30
0.0
0
VERTEX
8
LOT_LINE
10
1391.3840
20
-872.3032
30
0.0
0
VERTEX
8
LOT_LINE
10
1316.4502
20
-875.4547
30
0.0
0
SEQEND
0
TEXT
8
TEXT-LABELS
7
STANDARD
10
1351.8161
20
-823.9231
30
0.0
40
8.0
1
20
50
0.0
0
TEXT
8
DIM-LABELS
7
STANDARD
10
1349.8621
20
-777.4642
30
0.0
40
5.5
1
75.0'
50
0.0
0
TEXT
8
DIM-LABELS
7
STANDARD
10
1385.7860
20
-822.4944
30
0.0
40
5.5
1
100.0'
50
0.0
0
TEXT
8
DIM-LABELS
7
STANDARD
10
1353.7700
20
-870.3821
30
0.0
40
5.5
1
75.0'
50
0.0
0
TEXT
8
DIM-LABELS
7
STANDARD
10
1317.8461
20
-825.3518
30
0.0
40
5.5
1
100.0'
50
0.0
0
POLYLINE
8
LOT_LINE
66
1
70
1
0
VERTEX
8
LOT_LINE
10
1387.1819
20
-772.3915
30
0.0
0
VERTEX
8
LOT_LINE
10
1462.1157
20
-769.2399
30
0.0
0
VERTEX
8
LOT_LINE
10
1466.3177
20
-869.1516
30
0.0
0
VERTEX
8
LOT_LINE
10
1391.3840
20
-872.3032
30
0.0
0
SEQEND
0
TEXT
8
TEXT-LABELS
7
STANDARD
10
1426.7498
20
-820.7716
30
0.0
40
8.0
1
19
50
0.0
0
TEXT
8
DIM-LABELS
7
STANDARD
10
1424.7958
20
-774.3126
30
0.0
40
5.5
1
75.0'
50
0.0
0
TEXT
8
DIM-LABELS
7
STANDARD
10
1460.7198
20
-819.3428
30
0.0
40
5.5
1
100.0'
50
0.0
0
TEXT
8
DIM-LABELS
7
STANDARD
10
1428.7038
20
-867.2305
30
0.0
40
5.5
1
75.0'
50
0.0
0
TEXT
8
DIM-LABELS
7
STANDARD
10
1392.7799
20
-822.2003
30
0.0
40
5.5
1
100.0'
50
0.0
0
POLYLINE
8
CURVE
66
1
70
0
0
VERTEX
8
CURVE
10
1537.0494
20
-766.0884
30
0.0
0
VERTEX
8
CURVE
10
1537.4613
20
-772.3248
30
0.0
0
VERTEX
8
CURVE
10
1537.8533
20
-778.5625
30
0.0
0
VERTEX
8
CURVE
10
1538.2254
20
-784.8014
30
0.0
0
VERTEX
8
CURVE
10
1538.5776
20
-791.0414
30
0.0
0
VERTEX
8
CURVE
10
1538.9099
20
-797.2826
30
0.0
0
VERTEX
8
CURVE
10
1539.2223
20
-803.5248
30
0.0
0
VERTEX
8
CURVE
10
1539.5148
20
-809.7679
30
0.0
0
VERTEX
8
CURVE
10
1539.7874
20
-816.0120
30
0.0
0
VERTEX
8
CURVE
10
1540.0401
20
-822.2569
30
0.0
0
VERTEX
8
CURVE
10
1540.2729
20
-828.5025
30
0.0
0
VERTEX
8
CURVE
10
1540.4857
20
-834.7489
30
0.0
0
VERTEX
8
CURVE
10
1540.6786
20
-840.9959
30
0.0
0
VERTEX
8
CURVE
10
1540.8516
20
-847.2435
30
0.0
0
VERTEX
8
CURVE
10
1541.0047
20
-853.4916
30
0.0
0
VERTEX
8
CURVE
10
1541.1378
20
-859.7402
30
0.0
0
VERTEX
8
CURVE
10
1541.2510
20
-865.9892
30
0.0
0
SEQEND
0
POLYLINE
8
LOT_LINE
66
1
70
1
0
VERTEX
8
LOT_LINE
10
1462.1157
20
-769.2399
30
0.0
0
VERTEX
8
LOT_LINE
10
1537.0494
20
-766.0884
30
0.0
0
VERTEX
8
LOT_LINE
10
1537.4613
20
-772.3248
30
0.0
0
VERTEX
8
LOT_LINE
10
1537.8533
20
-778.5625
30
0.0
0
VERTEX
8
LOT_LINE
10
1538.2254
20
-784.8014
30
0.0
0
VERTEX
8
LOT_LINE
10
1538.5776
20
-791.0414
30
0.0
0
VERTEX
8
LOT_LINE
10
1538.9099
20
-797.2826
30
0.0
0
VERTEX
8
LOT_LINE
10
1539.2223
20
-803.5248
30
0.0
0
VERTEX
8
LOT_LINE
10
1539.5148
20
-809.7679
30
0.0
0
VERTEX
8
LOT_LINE
10
1539.7874
20
-816.0120
30
0.0
0
VERTEX
8
LOT_LINE
10
1540.0401
20
-822.2569
30
0.0
0
VERTEX
8
LOT_LINE
10
1540.2729
20
-828.5025
30
0.0
0
VERTEX
8
LOT_LINE
10
1540.4857
20
-834.7489
30
0.0
0
VERTEX
8
LOT_LINE
10
1540.6786
20
-840.9959
30
0.0
0
VERTEX
8
LOT_LINE
10
1540.8516
20
-847.2435
30
0.0
0
VERTEX
8
LOT_LINE
10
1541.0047
20
-853.4916
30
0.0
0
VERTEX
8
LOT_LINE
10
1541.1378
20
-859.7402
30
0.0
0
VERTEX
8
LOT_LINE
10
1541.2515
20
-866.0000
30
0.0
0
VERTEX
8
LOT_LINE
10
1466.3177
20
-869.1516
30
0.0
0
SEQEND
0
TEXT
8
TEXT-LABELS
7
STANDARD
10
1501.6836
20
-817.6200
30
0.0
40
8.0
1
18
50
0.0
0
TEXT
8
DIM-LABELS
7
STANDARD
10
1499.7296
20
-771.1611
30
0.0
40
5.5
1
75.0'
50
0.0
0
TEXT
8
DIM-LABELS
7
STANDARD
10
1535.6535
20
-816.1913
30
0.0
40
5.5
1
100.0'
50
0.0
0
TEXT
8
DIM-LABELS
7
STANDARD
10
1503.6376
20
-864.0789
30
0.0
40
5.5
1
75.0'
50
0.0
0
TEXT
8
DIM-LABELS
7
STANDARD
10
1467.7136
20
-819.0487
30
0.0
40
5.5
1
100.0'
50
0.0
0
POLYLINE
8
LOT_LINE
66
1
70
1
0
VERTEX
8
LOT_LINE
10
621.0885
20
-964.7534
30
0.0
0
VERTEX
8
LOT_LINE
10
723.3780
20
-960.4513
30
0.0
0
VERTEX
8
LOT_LINE
10
727.5801
20
-1060.3630
30
0.0
0
VERTEX
8
LOT_LINE
10
625.2906
20
-1064.6651
30
0.0
0
SEQEND
0
TEXT
8
TEXT-LABELS
7
STANDARD
10
674.3343
20
-1012.5582
30
0.0
40
8.0
1
1
50
0.0
0
TEXT
8
DIM-LABELS
7
STANDARD
10
672.3803
20
-966.0993
30
0.0
40
5.5
1
102.4'
50
0.0
0
TEXT
8
DIM-LABELS
7
STANDARD
10
721.9822
20
-1010.5542
30
0.0
40
5.5
1
100.0'
50
0.0
0
TEXT
8
DIM-LABELS
7
STANDARD
10
676.2883
20
-1059.0171
30
0.0
40
5.5
1
102.4'
50
0.0
0
TEXT
8
DIM-LABELS
7
STANDARD
10
626.6864
20
-1014.5622
30
0.0
40
5.5
1
100.0'
50
0.0
0
POLYLINE
8
LOT_LINE
66
1
70
1
0
VERTEX
8
LOT_LINE
10
723.3780
20
-960.4513
30
0.0
0
VERTEX
8
LOT_LINE
10
798.3118
20
-957.2997
30
0.0
0
VERTEX
8
LOT_LINE
10
802.5139
20
-1057.2114
30
0.0
0
VERTEX
8
LOT_LINE
10
727.5801
20
-1060.3630
30
0.0
0
SEQEND
0
TEXT
8
TEXT-LABELS
7
STANDARD
10
762.9460
20
-1008.8313
30
0.0
40
8.0
1
2
50
0.0
0
TEXT
8
DIM-LABELS
7
STANDARD
10
760.9920
20
-962.3724
30
0.0
40
5.5
1
75.0'
50
0.0
0
TEXT
8
DIM-LABELS
7
STANDARD
10
796.9159
20
-1007.4026
30
0.0
40
5.5
1
100.0'
50
0.0
0
TEXT
8
DIM-LABELS
7
STANDARD
10
764.8999
20
-1055.2903
30
0.0
40
5.5
1
75.0'
50
0.0
0
TEXT
8
DIM-LABELS
7
STANDARD
10
728.9760
20
-1010.2601
30
0.0
40
5.5
1
100.0'
50
0.0
0
POLYLINE
8
LOT_LINE
66
1
70
1
0
VERTEX
8
LOT_LINE
10
798.3118
20
-957.2997
30
0.0
0
VERTEX
8
LOT_LINE
10
873.2455
20
-954.1481
30
0.0
0
VERTEX
8
LOT_LINE
10
877.4476
20
-1054.0598
30
0.0
0
VERTEX
8
LOT_LINE
10
802.5139
20
-1057.2114
30
0.0
0
SEQEND
0
TEXT
8
TEXT-LABELS
7
STANDARD
10
837.8797
20
-1005.6798
30
0.0
40
8.0
1
3
50
0.0
0
TEXT
8
DIM-LABELS
7
STANDARD
10
835.9257
20
-959.2208
30
0.0
40
5.5
1
75.0'
50
0.0
0
TEXT
8
DIM-LABELS
7
STANDARD
10
871.8497
20
-1004.2511
30
0.0
40
5.5
1
100.0'
50
0.0
0
TEXT
8
DIM-LABELS
7
STANDARD
10
839.8337
20
-1052.1387
30
0.0
40
5.5
1
75.0'
50
0.0
0
TEXT
8
DIM-LABELS
7
STANDARD
10
803.9097
20
-1007.1085
30
0.0
40
5.5
1
100.0'
50
0.0
0
POLYLINE
8
LOT_LINE
66
1
70
1
0
VERTEX
8
LOT_LINE
10
873.2455
20
-954.1481
30
0.0
0
VERTEX
8
LOT_LINE
10
948.1793
20
-950.9966
30
0.0
0
VERTEX
8
LOT_LINE
10
952.3814
20
-1050.9082
30
0.0
0
VERTEX
8
LOT_LINE
10
877.4476
20
-1054.0598
30
0.0
0
SEQEND
0
TEXT
8
TEXT-LABELS
7
STANDARD
10
912.8135
20
-1002.5282
30
0.0
40
8.0
1
4
50
0.0
0
TEXT
8
DIM-LABELS
7
STANDARD
10
910.8595
20
-956.0693
30
0.0
40
5.5
1
75.0'
50
0.0
0
TEXT
8
DIM-LABELS
7
STANDARD
10
946.7834
20
-1001.0995
30
0.0
40
5.5
1
100.0'
50
0.0
0
TEXT
8
DIM-LABELS
7
STANDARD
10
914.7674
20
-1048.9871
30
0.0
40
5.5
1
75.0'
50
0.0
0
TEXT
8
DIM-LABELS
7
STANDARD
10
878.8435
20
-1003.9569
30
0.0
40
5.5
1
100.0'
50
0.0
0
POLYLINE
8
LOT_LINE
66
1
70
1
0
VERTEX
8
LOT_LINE
10
948.1793
20
-950.9966
30
0.0
0
VERTEX
8
LOT_LINE
10
1023.1131
20
-947.8450
30
0.0
0
VERTEX
8
LOT_LINE
10
1027.3151
20
-1047.7567
30
0.0
0
VERTEX
8
LOT_LINE
10
952.3814
20
-1050.9082
30
0.0
0
SEQEND
0
TEXT
8
TEXT-LABELS
7
STANDARD
10
987.7472
20
-999.3766
30
0.0
40
8.0
1
5
50
0.0
0
TEXT
8
DIM-LABELS
7
STANDARD
10
985.7932
20
-952.9177
30
0.0
40
5.5
1
75.0'
50
0.0
0
TEXT
8
DIM-LABELS
7
STANDARD
10
1021.7172
20
-997.9479
30
0.0
40
5.5
1
100.0'
50
0.0
0
TEXT
8
DIM-LABELS
7
STANDARD
10
989.7012
20
-1045.8356
30
0.0
40
5.5
1
75.0'
50
0.0
0
TEXT
8
DIM-LABELS
7
STANDARD
10
953.7773
20
-1000.8053
30
0.0
40
5.5
1
100.0'
50
0.0
0
POLYLINE
8
LOT_LINE
66
1
70
1
0
VERTEX
8
LOT_LINE
10
1023.1131
20
-947.8450
30
0.0
0
VERTEX
8
LOT_LINE
10
1098.0468
20
-944.6934
30
0.0
0
VERTEX
8
LOT_LINE
10
1102.2489
20
-1044.6051
30
0.0
0
VERTEX
8
LOT_LINE
10
1027.3151
20
-1047.7567
30
0.0
0
SEQEND
0
TEXT
8
TEXT-LABELS
7
STANDARD
10
1062.6810
20
-996.2251
30
0.0
40
8.0
1
6
50
0.0
0
TEXT
8
DIM-LABELS
7
STANDARD
10
1060.7270
20
-949.7661
30
0.0
40
5.5
1
75.0'
50
0.0
0
TEXT
8
DIM-LABELS
7
STANDARD
10
1096.6509
20
-994.7963
30
0.0
40
5.5
1
100.0'
50
0.0
0
TEXT
8
DIM-LABELS
7
STANDARD
10
1064.6350
20
-1042.6840
30
0.0
40
5.5
1
75.0'
50
0.0
0
TEXT
8
DIM-LABELS
7
STANDARD
10
1028.7110
20
-997.6538
30
0.0
40
5.5
1
100.0'
50
0.0
0
POLYLINE
8
LOT_LINE
66
1
70
1
0
VERTEX
8
LOT_LINE
10
1098.0468
20
-944.6934
30
0.0
0
VERTEX
8
LOT_LINE
10
1172.9806
20
-941.5419
30
0.0
0
VERTEX
8
LOT_LINE
10
1177.1827
20
-1041.4535
30
0.0
0
VERTEX
8
LOT_LINE
10
1102.2489
20
-1044.6051
30
0.0
0
SEQEND
0
TEXT
8
TEXT-LABELS
7
STANDARD
10
1137.6147
20
-993.0735
30
0.0
40
8.0
1
7
50
0.0
0
TEXT
8
DIM-LABELS
7
STANDARD
10
1135.6608
20
-946.6146
30
0.0
40
5.5
1
75.0'
50
0.0
0
TEXT
8
DIM-LABELS
7
STANDARD
10
1171.5847
20
-991.6448
30
0.0
40
5.5
1
100.0'
50
0.0
0
TEXT
8
DIM-LABELS
7
STANDARD
10
1139.5687
20
-1039.5324
30
0.0
40
5.5
1
75.0'
50
0.0
0
TEXT
8
DIM-LABELS
7
STANDARD
10
1103.6448
20
-994.5022
30
0.0
40
5.5
1
100.0'
50
0.0
0
POLYLINE
8
LOT_LINE
66
1
70
1
0
VERTEX
8
LOT_LINE
10
1172.9806
20
-941.5419
30
0.0
0
VERTEX
8
LOT_LINE
10
1247.9143
20
-938.3903
30
0.0
0
VERTEX
8
LOT_LINE
10
1252.1164
20
-1038.3020
30
0.0
0
VERTEX
8
LOT_LINE
10
1177.1827
20
-1041.4535
30
0.0
0
SEQEND
0
TEXT
8
TEXT-LABELS
7
STANDARD
10
1212.5485
20
-989.9219
30
0.0
40
8.0
1
8
50
0.0
0
TEXT
8
DIM-LABELS
7
STANDARD
10
1210.5945
20
-943.4630
30
0.0
40
5.5
1
75.0'
50
0.0
0
TEXT
8
DIM-LABELS
7
STANDARD
10
1246.5185
20
-988.4932
30
0.0
40
5.5
1
100.0'
50
0.0
0
TEXT
8
DIM-LABELS
7
STANDARD
10
1214.5025
20
-1036.3808
30
0.0
40
5.5
1
75.0'
50
0.0
0
TEXT
8
DIM-LABELS
7
STANDARD
10
1178.5785
20
-991.3506
30
0.0
40
5.5
1
100.0'
50
0.0
0
POLYLINE
8
LOT_LINE
66
1
70
1
0
VERTEX
8
LOT_LINE
10
1247.9143
20
-938.3903
30
0.0
0
VERTEX
8
LOT_LINE
10
1322.8481
20
-935.2387
30
0.0
0
VERTEX
8
LOT_LINE
10
1327.0502
20
-1035.1504
30
0.0
0
VERTEX
8
LOT_LINE
10
1252.1164
20
-1038.3020
30
0.0
0
SEQEND
0
TEXT
8
TEXT-LABELS
7
STANDARD
10
1287.4822
20
-986.7703
30
0.0
40
8.0
1
9
50
0.0
0
TEXT
8
DIM-LABELS
7
STANDARD
10
1285.5283
20
-940.3114
30
0.0
40
5.5
1
75.0'
50
0.0
0
TEXT
8
DIM-LABELS
7
STANDARD
10
1321.4522
20
-985.3416
30
0.0
40
5.5
1
100.0'
50
0.0
0
TEXT
8
DIM-LABELS
7
STANDARD
10
1289.4362
20
-1033.2293
30
0.0
40
5.5
1
75.0'
50
0.0
0
TEXT
8
DIM-LABELS
7
STANDARD
10
1253.5123
20
-988.1990
30
0.0
40
5.5
1
100.0'
50
0.0
0
POLYLINE
8
LOT_LINE
66
1
70
1
0
VERTEX
8
LOT_LINE
10
1322.8481
20
-935.2387
30
0.0
0
VERTEX
8
LOT_LINE
10
1397.7818
20
-932.0871
30
0.0
0
VERTEX
8
LOT_LINE
10
1401.9839
20
-1031.9988
30
0.0
0
VERTEX
8
LOT_LINE
10
1327.0502
20
-1035.1504
30
0.0
0
SEQEND
0
TEXT
8
TEXT-LABELS
7
STANDARD
10
1362.4160
20
-983.6188
30
0.0
40
8.0
1
10
50
0.0
0
TEXT
8
DIM-LABELS
7
STANDARD
10
1360.4620
20
-937.1598
30
0.0
40
5.5
1
75.0'
50
0.0
0
TEXT
8
DIM-LABELS
7
STANDARD
10
1396.3860
20
-982.1900
30
0.0
40
5.5
1
100.0'
50
0.0
0
TEXT
8
DIM-LABELS
7
STANDARD
10
1364.3700
20
-1030.0777
30
0.0
40
5.5
1
75.0'
50
0.0
0
TEXT
8
DIM-LABELS
7
STANDARD
10
1328.4460
20
-985.0475
30
0.0
40
5.5
1
100.0'
50
0.0
0
POLYLINE
8
LOT_LINE
66
1
70
1
0
VERTEX
8
LOT_LINE
10
1397.7818
20
-932.0871
30
0.0
0
VERTEX
8
LOT_LINE
10
1472.7156
20
-928.9356
30
0.0
0
VERTEX
8
LOT_LINE
10
1476.9177
20
-1028.8472
30
0.0
0
VERTEX
8
LOT_LINE
10
1401.9839
20
-1031.9988
30
0.0
0
SEQEND
0
TEXT
8
TEXT-LABELS
7
STANDARD
10
1437.3498
20
-980.4672
30
0.0
40
8.0
1
11
50
0.0
0
TEXT
8
DIM-LABELS
7
STANDARD
10
1435.3958
20
-934.0083
30
0.0
40
5.5
1
75.0'
50
0.0
0
TEXT
8
DIM-LABELS
7
STANDARD
10
1471.3197
20
-979.0385
30
0.0
40
5.5
1
100.0'
50
0.0
0
TEXT
8
DIM-LABELS
7
STANDARD
10
1439.3037
20
-1026.9261
30
0.0
40
5.5
1
75.0'
50
0.0
0
TEXT
8
DIM-LABELS
7
STANDARD
10
1403.3798
20
-981.8959
30
0.0
40
5.5
1
100.0'
50
0.0
0
POLYLINE
8
CURVE
66
1
70
0
0
VERTEX
8
CURVE
10
1547.6493
20
-925.7840
30
0.0
0
VERTEX
8
CURVE
10
1548.0612
20
-932.0204
30
0.0
0
VERTEX
8
CURVE
10
1548.4532
20
-938.2581
30
0.0
0
VERTEX
8
CURVE
10
1548.8253
20
-944.4970
30
0.0
0
VERTEX
8
CURVE
10
1549.1776
20
-950.7371
30
0.0
0
VERTEX
8
CURVE
10
1549.5099
20
-956.9782
30
0.0
0
VERTEX
8
CURVE
10
1549.8223
20
-963.2204
30
0.0
0
VERTEX
8
CURVE
10
1550.1148
20
-969.4636
30
0.0
0
VERTEX
8
CURVE
10
1550.3874
20
-975.7076
30
0.0
0
VERTEX
8
CURVE
10
1550.6400
20
-981.9525
30
0.0
0
VERTEX
8
CURVE
10
1550.8728
20
-988.1982
30
0.0
0
VERTEX
8
CURVE
10
1551.0856
20
-994.4445
30
0.0
0
VERTEX
8
CURVE
10
1551.2785
20
-1000.6916
30
0.0
0
VERTEX
8
CURVE
10
1551.4515
20
-1006.9392
30
0.0
0
VERTEX
8
CURVE
10
1551.6046
20
-1013.1873
30
0.0
0
VERTEX
8
CURVE
10
1551.7378
20
-1019.4359
30
0.0
0
VERTEX
8
CURVE
10
1551.8510
20
-1025.6848
30
0.0
0
SEQEND
0
POLYLINE
8
LOT_LINE
66
1
70
1
0
VERTEX
8
LOT_LINE
10
1472.7156
20
-928.9356
30
0.0
0
VERTEX
8
LOT_LINE
10
1547.6493
20
-925.7840
30
0.0
0
VERTEX
8
LOT_LINE
10
1548.0612
20
-932.0204
30
0.0
0
VERTEX
8
LOT_LINE
10
1548.4532
20
-938.2581
30
0.0
0
VERTEX
8
LOT_LINE
10
1548.8253
20
-944.4970
30
0.0
0
VERTEX
8
LOT_LINE
10
1549.1776
20
-950.7371
30
0.0
0
VERTEX
8
LOT_LINE
10
1549.5099
20
-956.9782
30
0.0
0
VERTEX
8
LOT_LINE
10
1549.8223
20
-963.2204
30
0.0
0
VERTEX
8
LOT_LINE
10
1550.1148
20
-969.4636
30
0.0
0
VERTEX
8
LOT_LINE
10
1550.3874
20
-975.7076
30
0.0
0
VERTEX
8
LOT_LINE
10
1550.6400
20
-981.9525
30
0.0
0
VERTEX
8
LOT_LINE
10
1550.8728
20
-988.1982
30
0.0
0
VERTEX
8
LOT_LINE
10
1551.0856
20
-994.4445
30
0.0
0
VERTEX
8
LOT_LINE
10
1551.2785
20
-1000.6916
30
0.0
0
VERTEX
8
LOT_LINE
10
1551.4515
20
-1006.9392
30
0.0
0
VERTEX
8
LOT_LINE
10
1551.6046
20
-1013.1873
30
0.0
0
VERTEX
8
LOT_LINE
10
1551.7378
20
-1019.4359
30
0.0
0
VERTEX
8
LOT_LINE
10
1551.8514
20
-1025.6957
30
0.0
0
VERTEX
8
LOT_LINE
10
1476.9177
20
-1028.8472
30
0.0
0
SEQEND
0
TEXT
8
TEXT-LABELS
7
STANDARD
10
1512.2835
20
-977.3156
30
0.0
40
8.0
1
12
50
0.0
0
TEXT
8
DIM-LABELS
7
STANDARD
10
1510.3295
20
-930.8567
30
0.0
40
5.5
1
75.0'
50
0.0
0
TEXT
8
DIM-LABELS
7
STANDARD
10
1546.2535
20
-975.8869
30
0.0
40
5.5
1
100.0'
50
0.0
0
TEXT
8
DIM-LABELS
7
STANDARD
10
1514.2375
20
-1023.7745
30
0.0
40
5.5
1
75.0'
50
0.0
0
TEXT
8
DIM-LABELS
7
STANDARD
10
1478.3135
20
-978.7443
30
0.0
40
5.5
1
100.0'
50
0.0
0
POLYLINE
8
LOT_LINE
66
1
70
1
0
VERTEX
8
LOT_LINE
10
625.2906
20
-1064.6651
30
0.0
0
VERTEX
8
LOT_LINE
10
718.4682
20
-1060.7462
30
0.0
0
VERTEX
8
LOT_LINE
10
722.6703
20
-1160.6579
30
0.0
0
VERTEX
8
LOT_LINE
10
629.4927
20
-1164.5767
30
0.0
0
SEQEND
0
TEXT
8
TEXT-LABELS
7
STANDARD
10
673.9804
20
-1112.6615
30
0.0
40
8.0
1
24
50
0.0
0
TEXT
8
DIM-LABELS
7
STANDARD
10
672.0264
20
-1066.2025
30
0.0
40
5.5
1
93.3'
50
0.0
0
TEXT
8
DIM-LABELS
7
STANDARD
10
717.0723
20
-1110.8491
30
0.0
40
5.5
1
100.0'
50
0.0
0
TEXT
8
DIM-LABELS
7
STANDARD
10
675.9344
20
-1159.1204
30
0.0
40
5.5
1
93.3'
50
0.0
0
TEXT
8
DIM-LABELS
7
STANDARD
10
630.8885
20
-1114.4738
30
0.0
40
5.5
1
100.0'
50
0.0
0
POLYLINE
8
LOT_LINE
66
1
70
1
0
VERTEX
8
LOT_LINE
10
718.4682
20
-1060.7462
30
0.0
0
VERTEX
8
LOT_LINE
10
793.4019
20
-1057.5946
30
0.0
0
VERTEX
8
LOT_LINE
10
797.6040
20
-1157.5063
30
0.0
0
VERTEX
8
LOT_LINE
10
722.6703
20
-1160.6579
30
0.0
0
SEQEND
0
TEXT
8
TEXT-LABELS
7
STANDARD
10
758.0361
20
-1109.1262
30
0.0
40
8.0
1
23
50
0.0
0
TEXT
8
DIM-LABELS
7
STANDARD
10
756.0821
20
-1062.6673
30
0.0
40
5.5
1
75.0'
50
0.0
0
TEXT
8
DIM-LABELS
7
STANDARD
10
792.0061
20
-1107.6975
30
0.0
40
5.5
1
100.0'
50
0.0
0
TEXT
8
DIM-LABELS
7
STANDARD
10
759.9901
20
-1155.5852
30
0.0
40
5.5
1
75.0'
50
0.0
0
TEXT
8
DIM-LABELS
7
STANDARD
10
724.0661
20
-1110.5550
30
0.0
40
5.5
1
100.0'
50
0.0
0
POLYLINE
8
LOT_LINE
66
1
70
1
0
VERTEX
8
LOT_LINE
10
793.4019
20
-1057.5946
30
0.0
0
VERTEX
8
LOT_LINE
10
868.3357
20
-1054.4431
30
0.0
0
VERTEX
8
LOT_LINE
10
872.5378
20
-1154.3547
30
0.0
0
VERTEX
8
LOT_LINE
10
797.6040
20
-1157.5063
30
0.0
0
SEQEND
0
TEXT
8
TEXT-LABELS
7
STANDARD
10
832.9699
20
-1105.9747
30
0.0
40
8.0
1
22
50
0.0
0
TEXT
8
DIM-LABELS
7
STANDARD
10
831.0159
20
-1059.5157
30
0.0
40
5.5
1
75.0'
50
0.0
0
TEXT
8
DIM-LABELS
7
STANDARD
10
866.9398
20
-1104.5460
30
0.0
40
5.5
1
100.0'
50
0.0
0
TEXT
8
DIM-LABELS
7
STANDARD
10
834.9238
20
-1152.4336
30
0.0
40
5.5
1
75.0'
50
0.0
0
TEXT
8
DIM-LABELS
7
STANDARD
10
798.9999
20
-1107.4034
30
0.0
40
5.5
1
100.0'
50
0.0
0
POLYLINE
8
LOT_LINE
66
1
70
1
0
VERTEX
8
LOT_LINE
10
868.3357
20
-1054.4431
30
0.0
0
VERTEX
8
LOT_LINE
10
943.2695
20
-1051.2915
30
0.0
0
VERTEX
8
LOT_LINE
10
947.4715
20
-1151.2032
30
0.0
0
VERTEX
8
LOT_LINE
10
872.5378
20
-1154.3547
30
0.0
0
SEQEND
0
TEXT
8
TEXT-LABELS
7
STANDARD
10
907.9036
20
-1102.8231
30
0.0
40
8.0
1
21
50
0.0
0
TEXT
8
DIM-LABELS
7
STANDARD
10
905.9496
20
-1056.3642
30
0.0
40
5.5
1
75.0'
50
0.0
0
TEXT
8
DIM-LABELS
7
STANDARD
10
941.8736
20
-1101.3944
30
0.0
40
5.5
1
100.0'
50
0.0
0
TEXT
8
DIM-LABELS
7
STANDARD
10
909.8576
20
-1149.2820
30
0.0
40
5.5
1
75.0'
50
0.0
0
TEXT
8
DIM-LABELS
7
STANDARD
10
873.9337
20
-1104.2518
30
0.0
40
5.5
1
100.0'
50
0.0
0
POLYLINE
8
LOT_LINE
66
1
70
1
0
VERTEX
8
LOT_LINE
10
943.2695
20
-1051.2915
30
0.0
0
VERTEX
8
LOT_LINE
10
1018.2032
20
-1048.1399
30
0.0
0
VERTEX
8
LOT_LINE
10
1022.4053
20
-1148.0516
30
0.0
0
VERTEX
8
LOT_LINE
10
947.4715
20
-1151.2032
30
0.0
0
SEQEND
0
TEXT
8
TEXT-LABELS
7
STANDARD
10
982.8374
20
-1099.6715
30
0.0
40
8.0
1
20
50
0.0
0
TEXT
8
DIM-LABELS
7
STANDARD
10
980.8834
20
-1053.2126
30
0.0
40
5.5
1
75.0'
50
0.0
0
TEXT
8
DIM-LABELS
7
STANDARD
10
1016.8073
20
-1098.2428
30
0.0
40
5.5
1
100.0'
50
0.0
0
TEXT
8
DIM-LABELS
7
STANDARD
10
984.7914
20
-1146.1305
30
0.0
40
5.5
1
75.0'
50
0.0
0
TEXT
8
DIM-LABELS
7
STANDARD
10
948.8674
20
-1101.1002
30
0.0
40
5.5
1
100.0'
50
0.0
0
POLYLINE
8
LOT_LINE
66
1
70
1
0
VERTEX
8
LOT_LINE
10
1018.2032
20
-1048.1399
30
0.0
0
VERTEX
8
LOT_LINE
10
1093.1370
20
-1044.9883
30
0.0
0
VERTEX
8
LOT_LINE
10
1097.3391
20
-1144.9000
30
0.0
0
VERTEX
8
LOT_LINE
10
1022.4053
20
-1148.0516
30
0.0
0
SEQEND
0
TEXT
8
TEXT-LABELS
7
STANDARD
10
1057.7711
20
-1096.5200
30
0.0
40
8.0
1
19
50
0.0
0
TEXT
8
DIM-LABELS
7
STANDARD
10
1055.8172
20
-1050.0610
30
0.0
40
5.5
1
75.0'
50
0.0
0
TEXT
8
DIM-LABELS
7
STANDARD
10
1091.7411
20
-1095.0912
30
0.0
40
5.5
1
100.0'
50
0.0
0
TEXT
8
DIM-LABELS
7
STANDARD
10
1059.7251
20
-1142.9789
30
0.0
40
5.5
1
75.0'
50
0.0
0
TEXT
8
DIM-LABELS
7
STANDARD
10
1023.8012
20
-1097.9487
30
0.0
40
5.5
1
100.0'
50
0.0
0
POLYLINE
8
LOT_LINE
66
1
70
1
0
VERTEX
8
LOT_LINE
10
1093.1370
20
-1044.9883
30
0.0
0
VERTEX
8
LOT_LINE
10
1168.0707
20
-1041.8368
30
0.0
0
VERTEX
8
LOT_LINE
10
1172.2728
20
-1141.7484
30
0.0
0
VERTEX
8
LOT_LINE
10
1097.3391
20
-1144.9000
30
0.0
0
SEQEND
0
TEXT
8
TEXT-LABELS
7
STANDARD
10
1132.7049
20
-1093.3684
30
0.0
40
8.0
1
18
50
0.0
0
TEXT
8
DIM-LABELS
7
STANDARD
10
1130.7509
20
-1046.9095
30
0.0
40
5.5
1
75.0'
50
0.0
0
TEXT
8
DIM-LABELS
7
STANDARD
10
1166.6749
20
-1091.9397
30
0.0
40
5.5
1
100.0'
50
0.0
0
TEXT
8
DIM-LABELS
7
STANDARD
10
1134.6589
20
-1139.8273
30
0.0
40
5.5
1
75.0'
50
0.0
0
TEXT
8
DIM-LABELS
7
STANDARD
10
1098.7349
20
-1094.7971
30
0.0
40
5.5
1
100.0'
50
0.0
0
POLYLINE
8
LOT_LINE
66
1
70
1
0
VERTEX
8
LOT_LINE
10
1168.0707
20
-1041.8368
30
0.0
0
VERTEX
8
LOT_LINE
10
1243.0045
20
-1038.6852
30
0.0
0
VERTEX
8
LOT_LINE
10
1247.2066
20
-1138.5969
30
0.0
0
VERTEX
8
LOT_LINE
10
1172.2728
20
-1141.7484
30
0.0
0
SEQEND
0
TEXT
8
TEXT-LABELS
7
STANDARD
10
1207.6386
20
-1090.2168
30
0.0
40
8.0
1
17
50
0.0
0
TEXT
8
DIM-LABELS
7
STANDARD
10
1205.6847
20
-1043.7579
30
0.0
40
5.5
1
75.0'
50
0.0
0
TEXT
8
DIM-LABELS
7
STANDARD
10
1241.6086
20
-1088.7881
30
0.0
40
5.5
1
100.0'
50
0.0
0
TEXT
8
DIM-LABELS
7
STANDARD
10
1209.5926
20
-1136.6757
30
0.0
40
5.5
1
75.0'
50
0.0
0
TEXT
8
DIM-LABELS
7
STANDARD
10
1173.6687
20
-1091.6455
30
0.0
40
5.5
1
100.0'
50
0.0
0
POLYLINE
8
LOT_LINE
66
1
70
1
0
VERTEX
8
LOT_LINE
10
1243.0045
20
-1038.6852
30
0.0
0
VERTEX
8
LOT_LINE
10
1317.9382
20
-1035.5336
30
0.0
0
VERTEX
8
LOT_LINE
10
1322.1403
20
-1135.4453
30
0.0
0
VERTEX
8
LOT_LINE
10
1247.2066
20
-1138.5969
30
0.0
0
SEQEND
0
TEXT
8
TEXT-LABELS
7
STANDARD
10
1282.5724
20
-1087.0652
30
0.0
40
8.0
1
16
50
0.0
0
TEXT
8
DIM-LABELS
7
STANDARD
10
1280.6184
20
-1040.6063
30
0.0
40
5.5
1
75.0'
50
0.0
0
TEXT
8
DIM-LABELS
7
STANDARD
10
1316.5424
20
-1085.6365
30
0.0
40
5.5
1
100.0'
50
0.0
0
TEXT
8
DIM-LABELS
7
STANDARD
10
1284.5264
20
-1133.5242
30
0.0
40
5.5
1
75.0'
50
0.0
0
TEXT
8
DIM-LABELS
7
STANDARD
10
1248.6024
20
-1088.4940
30
0.0
40
5.5
1
100.0'
50
0.0
0
POLYLINE
8
LOT_LINE
66
1
70
1
0
VERTEX
8
LOT_LINE
10
1317.9382
20
-1035.5336
30
0.0
0
VERTEX
8
LOT_LINE
10
1392.8720
20
-1032.3820
30
0.0
0
VERTEX
8
LOT_LINE
10
1397.0741
20
-1132.2937
30
0.0
0
VERTEX
8
LOT_LINE
10
1322.1403
20
-1135.4453
30
0.0
0
SEQEND
0
TEXT
8
TEXT-LABELS
7
STANDARD
10
1357.5061
20
-1083.9137
30
0.0
40
8.0
1
15
50
0.0
0
TEXT
8
DIM-LABELS
7
STANDARD
10
1355.5522
20
-1037.4547
30
0.0
40
5.5
1
75.0'
50
0.0
0
TEXT
8
DIM-LABELS
7
STANDARD
10
1391.4761
20
-1082.4850
30
0.0
40
5.5
1
100.0'
50
0.0
0
TEXT
8
DIM-LABELS
7
STANDARD
10
1359.4601
20
-1130.3726
30
0.0
40
5.5
1
75.0'
50
0.0
0
TEXT
8
DIM-LABELS
7
STANDARD
10
1323.5362
20
-1085.3424
30
0.0
40
5.5
1
100.0'
50
0.0
0
POLYLINE
8
LOT_LINE
66
1
70
1
0
VERTEX
8
LOT_LINE
10
1392.8720
20
-1032.3820
30
0.0
0
VERTEX
8
LOT_LINE
10
1467.8057
20
-1029.2305
30
0.0
0
VERTEX
8
LOT_LINE
10
1472.0078
20
-1129.1421
30
0.0
0
VERTEX
8
LOT_LINE
10
1397.0741
20
-1132.2937
30
0.0
0
SEQEND
0
TEXT
8
TEXT-LABELS
7
STANDARD
10
1432.4399
20
-1080.7621
30
0.0
40
8.0
1
14
50
0.0
0
TEXT
8
DIM-LABELS
7
STANDARD
10
1430.4859
20
-1034.3032
30
0.0
40
5.5
1
75.0'
50
0.0
0
TEXT
8
DIM-LABELS
7
STANDARD
10
1466.4099
20
-1079.3334
30
0.0
40
5.5
1
100.0'
50
0.0
0
TEXT
8
DIM-LABELS
7
STANDARD
10
1434.3939
20
-1127.2210
30
0.0
40
5.5
1
75.0'
50
0.0
0
TEXT
8
DIM-LABELS
7
STANDARD
10
1398.4699
20
-1082.1908
30
0.0
40
5.5
1
100.0'
50
0.0
0
POLYLINE
8
CURVE
66
1
70
0
0
VERTEX
8
CURVE
10
1542.7395
20
-1026.0789
30
0.0
0
VERTEX
8
CURVE
10
1543.1514
20
-1032.3153
30
0.0
0
VERTEX
8
CURVE
10
1543.5434
20
-1038.5530
30
0.0
0
VERTEX
8
CURVE
10
1543.9155
20
-1044.7919
30
0.0
0
VERTEX
8
CURVE
10
1544.2677
20
-1051.0320
30
0.0
0
VERTEX
8
CURVE
10
1544.6000
20
-1057.2731
30
0.0
0
VERTEX
8
CURVE
10
1544.9124
20
-1063.5153
30
0.0
0
VERTEX
8
CURVE
10
1545.2049
20
-1069.7585
30
0.0
0
VERTEX
8
CURVE
10
1545.4775
20
-1076.0025
30
0.0
0
VERTEX
8
CURVE
10
1545.7302
20
-1082.2474
30
0.0
0
VERTEX
8
CURVE
10
1545.9629
20
-1088.4931
30
0.0
0
VERTEX
8
CURVE
10
1546.1758
20
-1094.7394
30
0.0
0
VERTEX
8
CURVE
10
1546.3687
20
-1100.9865
30
0.0
0
VERTEX
8
CURVE
10
1546.5417
20
-1107.2341
30
0.0
0
VERTEX
8
CURVE
10
1546.6948
20
-1113.4822
30
0.0
0
VERTEX
8
CURVE
10
1546.8279
20
-1119.7308
30
0.0
0
VERTEX
8
CURVE
10
1546.9411
20
-1125.9797
30
0.0
0
SEQEND
0
POLYLINE
8
LOT_LINE
66
1
70
1
0
VERTEX
8
LOT_LINE
10
1467.8057
20
-1029.2305
30
0.0
0
VERTEX
8
LOT_LINE
10
1542.7395
20
-1026.0789
30
0.0
0
VERTEX
8
LOT_LINE
10
1543.1514
20
-1032.3153
30
0.0
0
VERTEX
8
LOT_LINE
10
1543.5434
20
-1038.5530
30
0.0
0
VERTEX
8
LOT_LINE
10
1543.9155
20
-1044.7919
30
0.0
0
VERTEX
8
LOT_LINE
10
1544.2677
20
-1051.0320
30
0.0
0
VERTEX
8
LOT_LINE
10
1544.6000
20
-1057.2731
30
0.0
0
VERTEX
8
LOT_LINE
10
1544.9124
20
-1063.5153
30
0.0
0
VERTEX
8
LOT_LINE
10
1545.2049
20
-1069.7585
30
0.0
0
VERTEX
8
LOT_LINE
10
1545.4775
20
-1076.0025
30
0.0
0
VERTEX
8
LOT_LINE
10
1545.7302
20
-1082.2474
30
0.0
0
VERTEX
8
LOT_LINE
10
1545.9629
20
-1088.4931
30
0.0
0
VERTEX
8
LOT_LINE
10
1546.1758
20
-1094.7394
30
0.0
0
VERTEX
8
LOT_LINE
10
1546.3687
20
-1100.9865
30
0.0
0
VERTEX
8
LOT_LINE
10
1546.5417
20
-1107.2341
30
0.0
0
VERTEX
8
LOT_LINE
10
1546.6948
20
-1113.4822
30
0.0
0
VERTEX
8
LOT_LINE
10
1546.8279
20
-1119.7308
30
0.0
0
VERTEX
8
LOT_LINE
10
1546.9416
20
-1125.9906
30
0.0
0
VERTEX
8
LOT_LINE
10
1472.0078
20
-1129.1421
30
0.0
0
SEQEND
0
TEXT
8
TEXT-LABELS
7
STANDARD
10
1507.3737
20
-1077.6105
30
0.0
40
8.0
1
13
50
0.0
0
TEXT
8
DIM-LABELS
7
STANDARD
10
1505.4197
20
-1031.1516
30
0.0
40
5.5
1
75.0'
50
0.0
0
TEXT
8
DIM-LABELS
7
STANDARD
10
1541.3436
20
-1076.1818
30
0.0
40
5.5
1
100.0'
50
0.0
0
TEXT
8
DIM-LABELS
7
STANDARD
10
1509.3276
20
-1124.0694
30
0.0
40
5.5
1
75.0'
50
0.0
0
TEXT
8
DIM-LABELS
7
STANDARD
10
1473.4037
20
-1079.0392
30
0.0
40
5.5
1
100.0'
50
0.0
0
POLYLINE
8
LOT_LINE
66
1
70
1
0
VERTEX
8
LOT_LINE
10
781.8814
20
-1218.2206
30
0.0
0
VERTEX
8
LOT_LINE
10
870.2833
20
-1214.5026
30
0.0
0
VERTEX
8
LOT_LINE
10
874.4854
20
-1314.4143
30
0.0
0
VERTEX
8
LOT_LINE
10
786.0835
20
-1318.1323
30
0.0
0
SEQEND
0
TEXT
8
TEXT-LABELS
7
STANDARD
10
828.1834
20
-1266.3174
30
0.0
40
8.0
1
1
50
0.0
0
TEXT
8
DIM-LABELS
7
STANDARD
10
826.2294
20
-1219.8585
30
0.0
40
5.5
1
88.5'
50
0.0
0
TEXT
8
DIM-LABELS
7
STANDARD
10
868.8874
20
-1264.6055
30
0.0
40
5.5
1
100.0'
50
0.0
0
TEXT
8
DIM-LABELS
7
STANDARD
10
830.1374
20
-1312.7764
30
0.0
40
5.5
1
88.5'
50
0.0
0
TEXT
8
DIM-LABELS
7
STANDARD
10
787.4794
20
-1268.0294
30
0.0
40
5.5
1
100.0'
50
0.0
0
POLYLINE
8
LOT_LINE
66
1
70
1
0
VERTEX
8
LOT_LINE
10
870.2833
20
-1214.5026
30
0.0
0
VERTEX
8
LOT_LINE
10
945.2170
20
-1211.3510
30
0.0
0
VERTEX
8
LOT_LINE
10
949.4191
20
-1311.2627
30
0.0
0
VERTEX
8
LOT_LINE
10
874.4854
20
-1314.4143
30
0.0
0
SEQEND
0
TEXT
8
TEXT-LABELS
7
STANDARD
10
909.8512
20
-1262.8826
30
0.0
40
8.0
1
2
50
0.0
0
TEXT
8
DIM-LABELS
7
STANDARD
10
907.8972
20
-1216.4237
30
0.0
40
5.5
1
75.0'
50
0.0
0
TEXT
8
DIM-LABELS
7
STANDARD
10
943.8212
20
-1261.4539
30
0.0
40
5.5
1
100.0'
50
0.0
0
TEXT
8
DIM-LABELS
7
STANDARD
10
911.8052
20
-1309.3416
30
0.0
40
5.5
1
75.0'
50
0.0
0
TEXT
8
DIM-LABELS
7
STANDARD
10
875.8812
20
-1264.3114
30
0.0
40
5.5
1
100.0'
50
0.0
0
POLYLINE
8
LOT_LINE
66
1
70
1
0
VERTEX
8
LOT_LINE
10
945.2170
20
-1211.3510
30
0.0
0
VERTEX
8
LOT_LINE
10
1020.1508
20
-1208.1994
30
0.0
0
VERTEX
8
LOT_LINE
10
1024.3529
20
-1308.1111
30
0.0
0
VERTEX
8
LOT_LINE
10
949.4191
20
-1311.2627
30
0.0
0
SEQEND
0
TEXT
8
TEXT-LABELS
7
STANDARD
10
984.7850
20
-1259.7311
30
0.0
40
8.0
1
3
50
0.0
0
TEXT
8
DIM-LABELS
7
STANDARD
10
982.8310
20
-1213.2721
30
0.0
40
5.5
1
75.0'
50
0.0
0
TEXT
8
DIM-LABELS
7
STANDARD
10
1018.7549
20
-1258.3024
30
0.0
40
5.5
1
100.0'
50
0.0
0
TEXT
8
DIM-LABELS
7
STANDARD
10
986.7389
20
-1306.1900
30
0.0
40
5.5
1
75.0'
50
0.0
0
TEXT
8
DIM-LABELS
7
STANDARD
10
950.8150
20
-1261.1598
30
0.0
40
5.5
1
100.0'
50
0.0
0
POLYLINE
8
LOT_LINE
66
1
70
1
0
VERTEX
8
LOT_LINE
10
1020.1508
20
-1208.1994
30
0.0
0
VERTEX
8
LOT_LINE
10
1095.0845
20
-1205.0479
30
0.0
0
VERTEX
8
LOT_LINE
10
1099.2866
20
-1304.9595
30
0.0
0
VERTEX
8
LOT_LINE
10
1024.3529
20
-1308.1111
30
0.0
0
SEQEND
0
TEXT
8
TEXT-LABELS
7
STANDARD
10
1059.7187
20
-1256.5795
30
0.0
40
8.0
1
4
50
0.0
0
TEXT
8
DIM-LABELS
7
STANDARD
10
1057.7647
20
-1210.1206
30
0.0
40
5.5
1
75.0'
50
0.0
0
TEXT
8
DIM-LABELS
7
STANDARD
10
1093.6887
20
-1255.1508
30
0.0
40
5.5
1
100.0'
50
0.0
0
TEXT
8
DIM-LABELS
7
STANDARD
10
1061.6727
20
-1303.0384
30
0.0
40
5.5
1
75.0'
50
0.0
0
TEXT
8
DIM-LABELS
7
STANDARD
10
1025.7487
20
-1258.0082
30
0.0
40
5.5
1
100.0'
50
0.0
0
POLYLINE
8
LOT_LINE
66
1
70
1
0
VERTEX
8
LOT_LINE
10
1095.0845
20
-1205.0479
30
0.0
0
VERTEX
8
LOT_LINE
10
1170.0183
20
-1201.8963
30
0.0
0
VERTEX
8
LOT_LINE
10
1174.2204
20
-1301.8080
30
0.0
0
VERTEX
8
LOT_LINE
10
1099.2866
20
-1304.9595
30
0.0
0
SEQEND
0
TEXT
8
TEXT-LABELS
7
STANDARD
10
1134.6525
20
-1253.4279
30
0.0
40
8.0
1
5
50
0.0
0
TEXT
8
DIM-LABELS
7
STANDARD
10
1132.6985
20
-1206.9690
30
0.0
40
5.5
1
75.0'
50
0.0
0
TEXT
8
DIM-LABELS
7
STANDARD
10
1168.6224
20
-1251.9992
30
0.0
40
5.5
1
100.0'
50
0.0
0
TEXT
8
DIM-LABELS
7
STANDARD
10
1136.6064
20
-1299.8868
30
0.0
40
5.5
1
75.0'
50
0.0
0
TEXT
8
DIM-LABELS
7
STANDARD
10
1100.6825
20
-1254.8566
30
0.0
40
5.5
1
100.0'
50
0.0
0
POLYLINE
8
LOT_LINE
66
1
70
1
0
VERTEX
8
LOT_LINE
10
1170.0183
20
-1201.8963
30
0.0
0
VERTEX
8
LOT_LINE
10
1244.9520
20
-1198.7447
30
0.0
0
VERTEX
8
LOT_LINE
10
1249.1541
20
-1298.6564
30
0.0
0
VERTEX
8
LOT_LINE
10
1174.2204
20
-1301.8080
30
0.0
0
SEQEND
0
TEXT
8
TEXT-LABELS
7
STANDARD
10
1209.5862
20
-1250.2763
30
0.0
40
8.0
1
6
50
0.0
0
TEXT
8
DIM-LABELS
7
STANDARD
10
1207.6322
20
-1203.8174
30
0.0
40
5.5
1
75.0'
50
0.0
0
TEXT
8
DIM-LABELS
7
STANDARD
10
1243.5562
20
-1248.8476
30
0.0
40
5.5
1
100.0'
50
0.0
0
TEXT
8
DIM-LABELS
7
STANDARD
10
1211.5402
20
-1296.7353
30
0.0
40
5.5
1
75.0'
50
0.0
0
TEXT
8
DIM-LABELS
7
STANDARD
10
1175.6162
20
-1251.7051
30
0.0
40
5.5
1
100.0'
50
0.0
0
POLYLINE
8
LOT_LINE
66
1
70
1
0
VERTEX
8
LOT_LINE
10
1244.9520
20
-1198.7447
30
0.0
0
VERTEX
8
LOT_LINE
10
1319.8858
20
-1195.5932
30
0.0
0
VERTEX
8
LOT_LINE
10
1324.0879
20
-1295.5048
30
0.0
0
VERTEX
8
LOT_LINE
10
1249.1541
20
-1298.6564
30
0.0
0
SEQEND
0
TEXT
8
TEXT-LABELS
7
STANDARD
10
1284.5200
20
-1247.1248
30
0.0
40
8.0
1
7
50
0.0
0
TEXT
8
DIM-LABELS
7
STANDARD
10
1282.5660
20
-1200.6658
30
0.0
40
5.5
1
75.0'
50
0.0
0
TEXT
8
DIM-LABELS
7
STANDARD
10
1318.4899
20
-1245.6961
30
0.0
40
5.5
1
100.0'
50
0.0
0
TEXT
8
DIM-LABELS
7
STANDARD
10
1286.4739
20
-1293.5837
30
0.0
40
5.5
1
75.0'
50
0.0
0
TEXT
8
DIM-LABELS
7
STANDARD
10
1250.5500
20
-1248.5535
30
0.0
40
5.5
1
100.0'
50
0.0
0
POLYLINE
8
LOT_LINE
66
1
70
1
0
VERTEX
8
LOT_LINE
10
1319.8858
20
-1195.5932
30
0.0
0
VERTEX
8
LOT_LINE
10
1394.8196
20
-1192.4416
30
0.0
0
VERTEX
8
LOT_LINE
10
1399.0217
20
-1292.3533
30
0.0
0
VERTEX
8
LOT_LINE
10
1324.0879
20
-1295.5048
30
0.0
0
SEQEND
0
TEXT
8
TEXT-LABELS
7
STANDARD
10
1359.4537
20
-1243.9732
30
0.0
40
8.0
1
8
50
0.0
0
TEXT
8
DIM-LABELS
7
STANDARD
10
1357.4998
20
-1197.5143
30
0.0
40
5.5
1
75.0'
50
0.0
0
TEXT
8
DIM-LABELS
7
STANDARD
10
1393.4237
20
-1242.5445
30
0.0
40
5.5
1
100.0'
50
0.0
0
TEXT
8
DIM-LABELS
7
STANDARD
10
1361.4077
20
-1290.4321
30
0.0
40
5.5
1
75.0'
50
0.0
0
TEXT
8
DIM-LABELS
7
STANDARD
10
1325.4838
20
-1245.4019
30
0.0
40
5.5
1
100.0'
50
0.0
0
POLYLINE
8
LOT_LINE
66
1
70
1
0
VERTEX
8
LOT_LINE
10
1394.8196
20
-1192.4416
30
0.0
0
VERTEX
8
LOT_LINE
10
1469.7533
20
-1189.2900
30
0.0
0
VERTEX
8
LOT_LINE
10
1473.9554
20
-1289.2017
30
0.0
0
VERTEX
8
LOT_LINE
10
1399.0217
20
-1292.3533
30
0.0
0
SEQEND
0
TEXT
8
TEXT-LABELS
7
STANDARD
10
1434.3875
20
-1240.8216
30
0.0
40
8.0
1
9
50
0.0
0
TEXT
8
DIM-LABELS
7
STANDARD
10
1432.4335
20
-1194.3627
30
0.0
40
5.5
1
75.0'
50
0.0
0
TEXT
8
DIM-LABELS
7
STANDARD
10
1468.3574
20
-1239.3929
30
0.0
40
5.5
1
100.0'
50
0.0
0
TEXT
8
DIM-LABELS
7
STANDARD
10
1436.3415
20
-1287.2806
30
0.0
40
5.5
1
75.0'
50
0.0
0
TEXT
8
DIM-LABELS
7
STANDARD
10
1400.4175
20
-1242.2503
30
0.0
40
5.5
1
100.0'
50
0.0
0
POLYLINE
8
CURVE
66
1
70
0
0
VERTEX
8
CURVE
10
1544.6871
20
-1186.1384
30
0.0
0
VERTEX
8
CURVE
10
1545.0990
20
-1192.3748
30
0.0
0
VERTEX
8
CURVE
10
1545.4910
20
-1198.6125
30
0.0
0
VERTEX
8
CURVE
10
1545.8631
20
-1204.8514
30
0.0
0
VERTEX
8
CURVE
10
1546.2153
20
-1211.0915
30
0.0
0
VERTEX
8
CURVE
10
1546.5476
20
-1217.3327
30
0.0
0
VERTEX
8
CURVE
10
1546.8600
20
-1223.5749
30
0.0
0
VERTEX
8
CURVE
10
1547.1525
20
-1229.8180
30
0.0
0
VERTEX
8
CURVE
10
1547.4251
20
-1236.0621
30
0.0
0
VERTEX
8
CURVE
10
1547.6778
20
-1242.3069
30
0.0
0
VERTEX
8
CURVE
10
1547.9105
20
-1248.5526
30
0.0
0
VERTEX
8
CURVE
10
1548.1234
20
-1254.7990
30
0.0
0
VERTEX
8
CURVE
10
1548.3163
20
-1261.0460
30
0.0
0
VERTEX
8
CURVE
10
1548.4893
20
-1267.2936
30
0.0
0
VERTEX
8
CURVE
10
1548.6423
20
-1273.5417
30
0.0
0
VERTEX
8
CURVE
10
1548.7755
20
-1279.7903
30
0.0
0
VERTEX
8
CURVE
10
1548.8887
20
-1286.0393
30
0.0
0
SEQEND
0
POLYLINE
8
LOT_LINE
66
1
70
1
0
VERTEX
8
LOT_LINE
10
1469.7533
20
-1189.2900
30
0.0
0
VERTEX
8
LOT_LINE
10
1544.6871
20
-1186.1384
30
0.0
0
VERTEX
8
LOT_LINE
10
1545.0990
20
-1192.3748
30
0.0
0
VERTEX
8
LOT_LINE
10
1545.4910
20
-1198.6125
30
0.0
0
VERTEX
8
LOT_LINE
10
1545.8631
20
-1204.8514
30
0.0
0
VERTEX
8
LOT_LINE
10
1546.2153
20
-1211.0915
30
0.0
0
VERTEX
8
LOT_LINE
10
1546.5476
20
-1217.3327
30
0.0
0
VERTEX
8
LOT_LINE
10
1546.8600
20
-1223.5749
30
0.0
0
VERTEX
8
LOT_LINE
10
1547.1525
20
-1229.8180
30
0.0
0
VERTEX
8
LOT_LINE
10
1547.4251
20
-1236.0621
30
0.0
0
VERTEX
8
LOT_LINE
10
1547.6778
20
-1242.3069
30
0.0
0
VERTEX
8
LOT_LINE
10
1547.9105
20
-1248.5526
30
0.0
0
VERTEX
8
LOT_LINE
10
1548.1234
20
-1254.7990
30
0.0
0
VERTEX
8
LOT_LINE
10
1548.3163
20
-1261.0460
30
0.0
0
VERTEX
8
LOT_LINE
10
1548.4893
20
-1267.2936
30
0.0
0
VERTEX
8
LOT_LINE
10
1548.6423
20
-1273.5417
30
0.0
0
VERTEX
8
LOT_LINE
10
1548.7755
20
-1279.7903
30
0.0
0
VERTEX
8
LOT_LINE
10
1548.8892
20
-1286.0501
30
0.0
0
VERTEX
8
LOT_LINE
10
1473.9554
20
-1289.2017
30
0.0
0
SEQEND
0
TEXT
8
TEXT-LABELS
7
STANDARD
10
1509.3212
20
-1237.6701
30
0.0
40
8.0
1
10
50
0.0
0
TEXT
8
DIM-LABELS
7
STANDARD
10
1507.3673
20
-1191.2111
30
0.0
40
5.5
1
75.0'
50
0.0
0
TEXT
8
DIM-LABELS
7
STANDARD
10
1543.2912
20
-1236.2413
30
0.0
40
5.5
1
100.0'
50
0.0
0
TEXT
8
DIM-LABELS
7
STANDARD
10
1511.2752
20
-1284.1290
30
0.0
40
5.5
1
75.0'
50
0.0
0
TEXT
8
DIM-LABELS
7
STANDARD
10
1475.3513
20
-1239.0988
30
0.0
40
5.5
1
100.0'
50
0.0
0
POLYLINE
8
LOT_LINE
66
1
70
1
0
VERTEX
8
LOT_LINE
10
786.0835
20
-1318.1323
30
0.0
0
VERTEX
8
LOT_LINE
10
874.4854
20
-1314.4143
30
0.0
0
VERTEX
8
LOT_LINE
10
878.6875
20
-1414.3259
30
0.0
0
VERTEX
8
LOT_LINE
10
790.2856
20
-1418.0439
30
0.0
0
SEQEND
0
TEXT
8
TEXT-LABELS
7
STANDARD
10
832.3855
20
-1366.2291
30
0.0
40
8.0
1
20
50
0.0
0
TEXT
8
DIM-LABELS
7
STANDARD
10
830.4315
20
-1319.7702
30
0.0
40
5.5
1
88.5'
50
0.0
0
TEXT
8
DIM-LABELS
7
STANDARD
10
873.0895
20
-1364.5172
30
0.0
40
5.5
1
100.0'
50
0.0
0
TEXT
8
DIM-LABELS
7
STANDARD
10
834.3395
20
-1412.6880
30
0.0
40
5.5
1
88.5'
50
0.0
0
TEXT
8
DIM-LABELS
7
STANDARD
10
791.6815
20
-1367.9410
30
0.0
40
5.5
1
100.0'
50
0.0
0
POLYLINE
8
LOT_LINE
66
1
70
1
0
VERTEX
8
LOT_LINE
10
874.4854
20
-1314.4143
30
0.0
0
VERTEX
8
LOT_LINE
10
949.4191
20
-1311.2627
30
0.0
0
VERTEX
8
LOT_LINE
10
953.6212
20
-1411.1744
30
0.0
0
VERTEX
8
LOT_LINE
10
878.6875
20
-1414.3259
30
0.0
0
SEQEND
0
TEXT
8
TEXT-LABELS
7
STANDARD
10
914.0533
20
-1362.7943
30
0.0
40
8.0
1
19
50
0.0
0
TEXT
8
DIM-LABELS
7
STANDARD
10
912.0993
20
-1316.3354
30
0.0
40
5.5
1
75.0'
50
0.0
0
TEXT
8
DIM-LABELS
7
STANDARD
10
948.0233
20
-1361.3656
30
0.0
40
5.5
1
100.0'
50
0.0
0
TEXT
8
DIM-LABELS
7
STANDARD
10
916.0073
20
-1409.2532
30
0.0
40
5.5
1
75.0'
50
0.0
0
TEXT
8
DIM-LABELS
7
STANDARD
10
880.0833
20
-1364.2230
30
0.0
40
5.5
1
100.0'
50
0.0
0
POLYLINE
8
LOT_LINE
66
1
70
1
0
VERTEX
8
LOT_LINE
10
949.4191
20
-1311.2627
30
0.0
0
VERTEX
8
LOT_LINE
10
1024.3529
20
-1308.1111
30
0.0
0
VERTEX
8
LOT_LINE
10
1028.5550
20
-1408.0228
30
0.0
0
VERTEX
8
LOT_LINE
10
953.6212
20
-1411.1744
30
0.0
0
SEQEND
0
TEXT
8
TEXT-LABELS
7
STANDARD
10
988.9871
20
-1359.6427
30
0.0
40
8.0
1
18
50
0.0
0
TEXT
8
DIM-LABELS
7
STANDARD
10
987.0331
20
-1313.1838
30
0.0
40
5.5
1
75.0'
50
0.0
0
TEXT
8
DIM-LABELS
7
STANDARD
10
1022.9570
20
-1358.2140
30
0.0
40
5.5
1
100.0'
50
0.0
0
TEXT
8
DIM-LABELS
7
STANDARD
10
990.9410
20
-1406.1017
30
0.0
40
5.5
1
75.0'
50
0.0
0
TEXT
8
DIM-LABELS
7
STANDARD
10
955.0171
20
-1361.0715
30
0.0
40
5.5
1
100.0'
50
0.0
0
POLYLINE
8
LOT_LINE
66
1
70
1
0
VERTEX
8
LOT_LINE
10
1024.3529
20
-1308.1111
30
0.0
0
VERTEX
8
LOT_LINE
10
1099.2866
20
-1304.9595
30
0.0
0
VERTEX
8
LOT_LINE
10
1103.4887
20
-1404.8712
30
0.0
0
VERTEX
8
LOT_LINE
10
1028.5550
20
-1408.0228
30
0.0
0
SEQEND
0
TEXT
8
TEXT-LABELS
7
STANDARD
10
1063.9208
20
-1356.4912
30
0.0
40
8.0
1
17
50
0.0
0
TEXT
8
DIM-LABELS
7
STANDARD
10
1061.9668
20
-1310.0322
30
0.0
40
5.5
1
75.0'
50
0.0
0
TEXT
8
DIM-LABELS
7
STANDARD
10
1097.8908
20
-1355.0625
30
0.0
40
5.5
1
100.0'
50
0.0
0
TEXT
8
DIM-LABELS
7
STANDARD
10
1065.8748
20
-1402.9501
30
0.0
40
5.5
1
75.0'
50
0.0
0
TEXT
8
DIM-LABELS
7
STANDARD
10
1029.9508
20
-1357.9199
30
0.0
40
5.5
1
100.0'
50
0.0
0
POLYLINE
8
LOT_LINE
66
1
70
1
0
VERTEX
8
LOT_LINE
10
1099.2866
20
-1304.9595
30
0.0
0
VERTEX
8
LOT_LINE
10
1174.2204
20
-1301.8080
30
0.0
0
VERTEX
8
LOT_LINE
10
1178.4225
20
-1401.7196
30
0.0
0
VERTEX
8
LOT_LINE
10
1103.4887
20
-1404.8712
30
0.0
0
SEQEND
0
TEXT
8
TEXT-LABELS
7
STANDARD
10
1138.8546
20
-1353.3396
30
0.0
40
8.0
1
16
50
0.0
0
TEXT
8
DIM-LABELS
7
STANDARD
10
1136.9006
20
-1306.8807
30
0.0
40
5.5
1
75.0'
50
0.0
0
TEXT
8
DIM-LABELS
7
STANDARD
10
1172.8245
20
-1351.9109
30
0.0
40
5.5
1
100.0'
50
0.0
0
TEXT
8
DIM-LABELS
7
STANDARD
10
1140.8085
20
-1399.7985
30
0.0
40
5.5
1
75.0'
50
0.0
0
TEXT
8
DIM-LABELS
7
STANDARD
10
1104.8846
20
-1354.7683
30
0.0
40
5.5
1
100.0'
50
0.0
0
POLYLINE
8
LOT_LINE
66
1
70
1
0
VERTEX
8
LOT_LINE
10
1174.2204
20
-1301.8080
30
0.0
0
VERTEX
8
LOT_LINE
10
1249.1541
20
-1298.6564
30
0.0
0
VERTEX
8
LOT_LINE
10
1253.3562
20
-1398.5681
30
0.0
0
VERTEX
8
LOT_LINE
10
1178.4225
20
-1401.7196
30
0.0
0
SEQEND
0
TEXT
8
TEXT-LABELS
7
STANDARD
10
1213.7883
20
-1350.1880
30
0.0
40
8.0
1
15
50
0.0
0
TEXT
8
DIM-LABELS
7
STANDARD
10
1211.8343
20
-1303.7291
30
0.0
40
5.5
1
75.0'
50
0.0
0
TEXT
8
DIM-LABELS
7
STANDARD
10
1247.7583
20
-1348.7593
30
0.0
40
5.5
1
100.0'
50
0.0
0
TEXT
8
DIM-LABELS
7
STANDARD
10
1215.7423
20
-1396.6469
30
0.0
40
5.5
1
75.0'
50
0.0
0
TEXT
8
DIM-LABELS
7
STANDARD
10
1179.8183
20
-1351.6167
30
0.0
40
5.5
1
100.0'
50
0.0
0
POLYLINE
8
LOT_LINE
66
1
70
1
0
VERTEX
8
LOT_LINE
10
1249.1541
20
-1298.6564
30
0.0
0
VERTEX
8
LOT_LINE
10
1324.0879
20
-1295.5048
30
0.0
0
VERTEX
8
LOT_LINE
10
1328.2900
20
-1395.4165
30
0.0
0
VERTEX
8
LOT_LINE
10
1253.3562
20
-1398.5681
30
0.0
0
SEQEND
0
TEXT
8
TEXT-LABELS
7
STANDARD
10
1288.7221
20
-1347.0364
30
0.0
40
8.0
1
14
50
0.0
0
TEXT
8
DIM-LABELS
7
STANDARD
10
1286.7681
20
-1300.5775
30
0.0
40
5.5
1
75.0'
50
0.0
0
TEXT
8
DIM-LABELS
7
STANDARD
10
1322.6920
20
-1345.6077
30
0.0
40
5.5
1
100.0'
50
0.0
0
TEXT
8
DIM-LABELS
7
STANDARD
10
1290.6760
20
-1393.4954
30
0.0
40
5.5
1
75.0'
50
0.0
0
TEXT
8
DIM-LABELS
7
STANDARD
10
1254.7521
20
-1348.4652
30
0.0
40
5.5
1
100.0'
50
0.0
0
POLYLINE
8
LOT_LINE
66
1
70
1
0
VERTEX
8
LOT_LINE
10
1324.0879
20
-1295.5048
30
0.0
0
VERTEX
8
LOT_LINE
10
1399.0217
20
-1292.3533
30
0.0
0
VERTEX
8
LOT_LINE
10
1403.2237
20
-1392.2649
30
0.0
0
VERTEX
8
LOT_LINE
10
1328.2900
20
-1395.4165
30
0.0
0
SEQEND
0
TEXT
8
TEXT-LABELS
7
STANDARD
10
1363.6558
20
-1343.8849
30
0.0
40
8.0
1
13
50
0.0
0
TEXT
8
DIM-LABELS
7
STANDARD
10
1361.7018
20
-1297.4259
30
0.0
40
5.5
1
75.0'
50
0.0
0
TEXT
8
DIM-LABELS
7
STANDARD
10
1397.6258
20
-1342.4562
30
0.0
40
5.5
1
100.0'
50
0.0
0
TEXT
8
DIM-LABELS
7
STANDARD
10
1365.6098
20
-1390.3438
30
0.0
40
5.5
1
75.0'
50
0.0
0
TEXT
8
DIM-LABELS
7
STANDARD
10
1329.6859
20
-1345.3136
30
0.0
40
5.5
1
100.0'
50
0.0
0
POLYLINE
8
LOT_LINE
66
1
70
1
0
VERTEX
8
LOT_LINE
10
1399.0217
20
-1292.3533
30
0.0
0
VERTEX
8
LOT_LINE
10
1473.9554
20
-1289.2017
30
0.0
0
VERTEX
8
LOT_LINE
10
1478.1575
20
-1389.1134
30
0.0
0
VERTEX
8
LOT_LINE
10
1403.2237
20
-1392.2649
30
0.0
0
SEQEND
0
TEXT
8
TEXT-LABELS
7
STANDARD
10
1438.5896
20
-1340.7333
30
0.0
40
8.0
1
12
50
0.0
0
TEXT
8
DIM-LABELS
7
STANDARD
10
1436.6356
20
-1294.2744
30
0.0
40
5.5
1
75.0'
50
0.0
0
TEXT
8
DIM-LABELS
7
STANDARD
10
1472.5595
20
-1339.3046
30
0.0
40
5.5
1
100.0'
50
0.0
0
TEXT
8
DIM-LABELS
7
STANDARD
10
1440.5436
20
-1387.1922
30
0.0
40
5.5
1
75.0'
50
0.0
0
TEXT
8
DIM-LABELS
7
STANDARD
10
1404.6196
20
-1342.1620
30
0.0
40
5.5
1
100.0'
50
0.0
0
POLYLINE
8
CURVE
66
1
70
0
0
VERTEX
8
CURVE
10
1548.8892
20
-1286.0501
30
0.0
0
VERTEX
8
CURVE
10
1549.3011
20
-1292.2865
30
0.0
0
VERTEX
8
CURVE
10
1549.6931
20
-1298.5242
30
0.0
0
VERTEX
8
CURVE
10
1550.0652
20
-1304.7631
30
0.0
0
VERTEX
8
CURVE
10
1550.4174
20
-1311.0032
30
0.0
0
VERTEX
8
CURVE
10
1550.7497
20
-1317.2443
30
0.0
0
VERTEX
8
CURVE
10
1551.0621
20
-1323.4865
30
0.0
0
VERTEX
8
CURVE
10
1551.3546
20
-1329.7297
30
0.0
0
VERTEX
8
CURVE
10
1551.6272
20
-1335.9737
30
0.0
0
VERTEX
8
CURVE
10
1551.8799
20
-1342.2186
30
0.0
0
VERTEX
8
CURVE
10
1552.1126
20
-1348.4643
30
0.0
0
VERTEX
8
CURVE
10
1552.3255
20
-1354.7106
30
0.0
0
VERTEX
8
CURVE
10
1552.5184
20
-1360.9577
30
0.0
0
VERTEX
8
CURVE
10
1552.6914
20
-1367.2053
30
0.0
0
VERTEX
8
CURVE
10
1552.8444
20
-1373.4534
30
0.0
0
VERTEX
8
CURVE
10
1552.9776
20
-1379.7020
30
0.0
0
VERTEX
8
CURVE
10
1553.0908
20
-1385.9509
30
0.0
0
SEQEND
0
POLYLINE
8
LOT_LINE
66
1
70
1
0
VERTEX
8
LOT_LINE
10
1473.9554
20
-1289.2017
30
0.0
0
VERTEX
8
LOT_LINE
10
1548.8892
20
-1286.0501
30
0.0
0
VERTEX
8
LOT_LINE
10
1549.3011
20
-1292.2865
30
0.0
0
VERTEX
8
LOT_LINE
10
1549.6931
20
-1298.5242
30
0.0
0
VERTEX
8
LOT_LINE
10
1550.0652
20
-1304.7631
30
0.0
0
VERTEX
8
LOT_LINE
10
1550.4174
20
-1311.0032
30
0.0
0
VERTEX
8
LOT_LINE
10
1550.7497
20
-1317.2443
30
0.0
0
VERTEX
8
LOT_LINE
10
1551.0621
20
-1323.4865
30
0.0
0
VERTEX
8
LOT_LINE
10
1551.3546
20
-1329.7297
30
0.0
0
VERTEX
8
LOT_LINE
10
1551.6272
20
-1335.9737
30
0.0
0
VERTEX
8
LOT_LINE
10
1551.8799
20
-1342.2186
30
0.0
0
VERTEX
8
LOT_LINE
10
1552.1126
20
-1348.4643
30
0.0
0
VERTEX
8
LOT_LINE
10
1552.3255
20
-1354.7106
30
0.0
0
VERTEX
8
LOT_LINE
10
1552.5184
20
-1360.9577
30
0.0
0
VERTEX
8
LOT_LINE
10
1552.6914
20
-1367.2053
30
0.0
0
VERTEX
8
LOT_LINE
10
1552.8444
20
-1373.4534
30
0.0
0
VERTEX
8
LOT_LINE
10
1552.9776
20
-1379.7020
30
0.0
0
VERTEX
8
LOT_LINE
10
1553.0913
20
-1385.9618
30
0.0
0
VERTEX
8
LOT_LINE
10
1478.1575
20
-1389.1134
30
0.0
0
SEQEND
0
TEXT
8
TEXT-LABELS
7
STANDARD
10
1513.5233
20
-1337.5817
30
0.0
40
8.0
1
11
50
0.0
0
TEXT
8
DIM-LABELS
7
STANDARD
10
1511.5694
20
-1291.1228
30
0.0
40
5.5
1
75.0'
50
0.0
0
TEXT
8
DIM-LABELS
7
STANDARD
10
1547.4933
20
-1336.1530
30
0.0
40
5.5
1
100.0'
50
0.0
0
TEXT
8
DIM-LABELS
7
STANDARD
10
1515.4773
20
-1384.0407
30
0.0
40
5.5
1
75.0'
50
0.0
0
TEXT
8
DIM-LABELS
7
STANDARD
10
1479.5534
20
-1339.0104
30
0.0
40
5.5
1
100.0'
50
0.0
0
POLYLINE
8
LOT_LINE
66
1
70
1
0
VERTEX
8
LOT_LINE
10
942.6744
20
-1471.6878
30
0.0
0
VERTEX
8
LOT_LINE
10
1027.5993
20
-1468.1160
30
0.0
0
VERTEX
8
LOT_LINE
10
1031.8014
20
-1568.0277
30
0.0
0
VERTEX
8
LOT_LINE
10
946.8765
20
-1571.5995
30
0.0
0
SEQEND
0
TEXT
8
TEXT-LABELS
7
STANDARD
10
987.2379
20
-1519.8578
30
0.0
40
8.0
1
1
50
0.0
0
TEXT
8
DIM-LABELS
7
STANDARD
10
985.2839
20
-1473.3988
30
0.0
40
5.5
1
85.0'
50
0.0
0
TEXT
8
DIM-LABELS
7
STANDARD
10
1026.2034
20
-1518.2189
30
0.0
40
5.5
1
100.0'
50
0.0
0
TEXT
8
DIM-LABELS
7
STANDARD
10
989.1919
20
-1566.3167
30
0.0
40
5.5
1
85.0'
50
0.0
0
TEXT
8
DIM-LABELS
7
STANDARD
10
948.2723
20
-1521.4966
30
0.0
40
5.5
1
100.0'
50
0.0
0
POLYLINE
8
LOT_LINE
66
1
70
1
0
VERTEX
8
LOT_LINE
10
1027.5993
20
-1468.1160
30
0.0
0
VERTEX
8
LOT_LINE
10
1102.5331
20
-1464.9645
30
0.0
0
VERTEX
8
LOT_LINE
10
1106.7352
20
-1564.8761
30
0.0
0
VERTEX
8
LOT_LINE
10
1031.8014
20
-1568.0277
30
0.0
0
SEQEND
0
TEXT
8
TEXT-LABELS
7
STANDARD
10
1067.1672
20
-1516.4961
30
0.0
40
8.0
1
2
50
0.0
0
TEXT
8
DIM-LABELS
7
STANDARD
10
1065.2133
20
-1470.0371
30
0.0
40
5.5
1
75.0'
50
0.0
0
TEXT
8
DIM-LABELS
7
STANDARD
10
1101.1372
20
-1515.0674
30
0.0
40
5.5
1
100.0'
50
0.0
0
TEXT
8
DIM-LABELS
7
STANDARD
10
1069.1212
20
-1562.9550
30
0.0
40
5.5
1
75.0'
50
0.0
0
TEXT
8
DIM-LABELS
7
STANDARD
10
1033.1973
20
-1517.9248
30
0.0
40
5.5
1
100.0'
50
0.0
0
POLYLINE
8
LOT_LINE
66
1
70
1
0
VERTEX
8
LOT_LINE
10
1102.5331
20
-1464.9645
30
0.0
0
VERTEX
8
LOT_LINE
10
1177.4668
20
-1461.8129
30
0.0
0
VERTEX
8
LOT_LINE
10
1181.6689
20
-1561.7246
30
0.0
0
VERTEX
8
LOT_LINE
10
1106.7352
20
-1564.8761
30
0.0
0
SEQEND
0
TEXT
8
TEXT-LABELS
7
STANDARD
10
1142.1010
20
-1513.3445
30
0.0
40
8.0
1
3
50
0.0
0
TEXT
8
DIM-LABELS
7
STANDARD
10
1140.1470
20
-1466.8856
30
0.0
40
5.5
1
75.0'
50
0.0
0
TEXT
8
DIM-LABELS
7
STANDARD
10
1176.0710
20
-1511.9158
30
0.0
40
5.5
1
100.0'
50
0.0
0
TEXT
8
DIM-LABELS
7
STANDARD
10
1144.0550
20
-1559.8034
30
0.0
40
5.5
1
75.0'
50
0.0
0
TEXT
8
DIM-LABELS
7
STANDARD
10
1108.1310
20
-1514.7732
30
0.0
40
5.5
1
100.0'
50
0.0
0
POLYLINE
8
LOT_LINE
66
1
70
1
0
VERTEX
8
LOT_LINE
10
1177.4668
20
-1461.8129
30
0.0
0
VERTEX
8
LOT_LINE
10
1252.4006
20
-1458.6613
30
0.0
0
VERTEX
8
LOT_LINE
10
1256.6027
20
-1558.5730
30
0.0
0
VERTEX
8
LOT_LINE
10
1181.6689
20
-1561.7246
30
0.0
0
SEQEND
0
TEXT
8
TEXT-LABELS
7
STANDARD
10
1217.0347
20
-1510.1929
30
0.0
40
8.0
1
4
50
0.0
0
TEXT
8
DIM-LABELS
7
STANDARD
10
1215.0808
20
-1463.7340
30
0.0
40
5.5
1
75.0'
50
0.0
0
TEXT
8
DIM-LABELS
7
STANDARD
10
1251.0047
20
-1508.7642
30
0.0
40
5.5
1
100.0'
50
0.0
0
TEXT
8
DIM-LABELS
7
STANDARD
10
1218.9887
20
-1556.6519
30
0.0
40
5.5
1
75.0'
50
0.0
0
TEXT
8
DIM-LABELS
7
STANDARD
10
1183.0648
20
-1511.6216
30
0.0
40
5.5
1
100.0'
50
0.0
0
POLYLINE
8
LOT_LINE
66
1
70
1
0
VERTEX
8
LOT_LINE
10
1252.4006
20
-1458.6613
30
0.0
0
VERTEX
8
LOT_LINE
10
1327.3343
20
-1455.5097
30
0.0
0
VERTEX
8
LOT_LINE
10
1331.5364
20
-1555.4214
30
0.0
0
VERTEX
8
LOT_LINE
10
1256.6027
20
-1558.5730
30
0.0
0
SEQEND
0
TEXT
8
TEXT-LABELS
7
STANDARD
10
1291.9685
20
-1507.0414
30
0.0
40
8.0
1
5
50
0.0
0
TEXT
8
DIM-LABELS
7
STANDARD
10
1290.0145
20
-1460.5824
30
0.0
40
5.5
1
75.0'
50
0.0
0
TEXT
8
DIM-LABELS
7
STANDARD
10
1325.9385
20
-1505.6126
30
0.0
40
5.5
1
100.0'
50
0.0
0
TEXT
8
DIM-LABELS
7
STANDARD
10
1293.9225
20
-1553.5003
30
0.0
40
5.5
1
75.0'
50
0.0
0
TEXT
8
DIM-LABELS
7
STANDARD
10
1257.9985
20
-1508.4701
30
0.0
40
5.5
1
100.0'
50
0.0
0
POLYLINE
8
LOT_LINE
66
1
70
1
0
VERTEX
8
LOT_LINE
10
1327.3343
20
-1455.5097
30
0.0
0
VERTEX
8
LOT_LINE
10
1402.2681
20
-1452.3582
30
0.0
0
VERTEX
8
LOT_LINE
10
1406.4702
20
-1552.2698
30
0.0
0
VERTEX
8
LOT_LINE
10
1331.5364
20
-1555.4214
30
0.0
0
SEQEND
0
TEXT
8
TEXT-LABELS
7
STANDARD
10
1366.9023
20
-1503.8898
30
0.0
40
8.0
1
6
50
0.0
0
TEXT
8
DIM-LABELS
7
STANDARD
10
1364.9483
20
-1457.4309
30
0.0
40
5.5
1
75.0'
50
0.0
0
TEXT
8
DIM-LABELS
7
STANDARD
10
1400.8722
20
-1502.4611
30
0.0
40
5.5
1
100.0'
50
0.0
0
TEXT
8
DIM-LABELS
7
STANDARD
10
1368.8562
20
-1550.3487
30
0.0
40
5.5
1
75.0'
50
0.0
0
TEXT
8
DIM-LABELS
7
STANDARD
10
1332.9323
20
-1505.3185
30
0.0
40
5.5
1
100.0'
50
0.0
0
POLYLINE
8
LOT_LINE
66
1
70
1
0
VERTEX
8
LOT_LINE
10
1402.2681
20
-1452.3582
30
0.0
0
VERTEX
8
LOT_LINE
10
1477.2018
20
-1449.2066
30
0.0
0
VERTEX
8
LOT_LINE
10
1481.4039
20
-1549.1183
30
0.0
0
VERTEX
8
LOT_LINE
10
1406.4702
20
-1552.2698
30
0.0
0
SEQEND
0
TEXT
8
TEXT-LABELS
7
STANDARD
10
1441.8360
20
-1500.7382
30
0.0
40
8.0
1
7
50
0.0
0
TEXT
8
DIM-LABELS
7
STANDARD
10
1439.8820
20
-1454.2793
30
0.0
40
5.5
1
75.0'
50
0.0
0
TEXT
8
DIM-LABELS
7
STANDARD
10
1475.8060
20
-1499.3095
30
0.0
40
5.5
1
100.0'
50
0.0
0
TEXT
8
DIM-LABELS
7
STANDARD
10
1443.7900
20
-1547.1971
30
0.0
40
5.5
1
75.0'
50
0.0
0
TEXT
8
DIM-LABELS
7
STANDARD
10
1407.8660
20
-1502.1669
30
0.0
40
5.5
1
100.0'
50
0.0
0
POLYLINE
8
CURVE
66
1
70
0
0
VERTEX
8
CURVE
10
1552.1356
20
-1446.0550
30
0.0
0
VERTEX
8
CURVE
10
1552.5475
20
-1452.2914
30
0.0
0
VERTEX
8
CURVE
10
1552.9395
20
-1458.5291
30
0.0
0
VERTEX
8
CURVE
10
1553.3116
20
-1464.7680
30
0.0
0
VERTEX
8
CURVE
10
1553.6638
20
-1471.0081
30
0.0
0
VERTEX
8
CURVE
10
1553.9961
20
-1477.2493
30
0.0
0
VERTEX
8
CURVE
10
1554.3085
20
-1483.4914
30
0.0
0
VERTEX
8
CURVE
10
1554.6010
20
-1489.7346
30
0.0
0
VERTEX
8
CURVE
10
1554.8736
20
-1495.9786
30
0.0
0
VERTEX
8
CURVE
10
1555.1263
20
-1502.2235
30
0.0
0
VERTEX
8
CURVE
10
1555.3590
20
-1508.4692
30
0.0
0
VERTEX
8
CURVE
10
1555.5719
20
-1514.7156
30
0.0
0
VERTEX
8
CURVE
10
1555.7648
20
-1520.9626
30
0.0
0
VERTEX
8
CURVE
10
1555.9378
20
-1527.2102
30
0.0
0
VERTEX
8
CURVE
10
1556.0909
20
-1533.4583
30
0.0
0
VERTEX
8
CURVE
10
1556.2240
20
-1539.7069
30
0.0
0
VERTEX
8
CURVE
10
1556.3372
20
-1545.9559
30
0.0
0
SEQEND
0
POLYLINE
8
LOT_LINE
66
1
70
1
0
VERTEX
8
LOT_LINE
10
1477.2018
20
-1449.2066
30
0.0
0
VERTEX
8
LOT_LINE
10
1552.1356
20
-1446.0550
30
0.0
0
VERTEX
8
LOT_LINE
10
1552.5475
20
-1452.2914
30
0.0
0
VERTEX
8
LOT_LINE
10
1552.9395
20
-1458.5291
30
0.0
0
VERTEX
8
LOT_LINE
10
1553.3116
20
-1464.7680
30
0.0
0
VERTEX
8
LOT_LINE
10
1553.6638
20
-1471.0081
30
0.0
0
VERTEX
8
LOT_LINE
10
1553.9961
20
-1477.2493
30
0.0
0
VERTEX
8
LOT_LINE
10
1554.3085
20
-1483.4914
30
0.0
0
VERTEX
8
LOT_LINE
10
1554.6010
20
-1489.7346
30
0.0
0
VERTEX
8
LOT_LINE
10
1554.8736
20
-1495.9786
30
0.0
0
VERTEX
8
LOT_LINE
10
1555.1263
20
-1502.2235
30
0.0
0
VERTEX
8
LOT_LINE
10
1555.3590
20
-1508.4692
30
0.0
0
VERTEX
8
LOT_LINE
10
1555.5719
20
-1514.7156
30
0.0
0
VERTEX
8
LOT_LINE
10
1555.7648
20
-1520.9626
30
0.0
0
VERTEX
8
LOT_LINE
10
1555.9378
20
-1527.2102
30
0.0
0
VERTEX
8
LOT_LINE
10
1556.0909
20
-1533.4583
30
0.0
0
VERTEX
8
LOT_LINE
10
1556.2240
20
-1539.7069
30
0.0
0
VERTEX
8
LOT_LINE
10
1556.3377
20
-1545.9667
30
0.0
0
VERTEX
8
LOT_LINE
10
1481.4039
20
-1549.1183
30
0.0
0
SEQEND
0
TEXT
8
TEXT-LABELS
7
STANDARD
10
1516.7698
20
-1497.5866
30
0.0
40
8.0
1
8
50
0.0
0
TEXT
8
DIM-LABELS
7
STANDARD
10
1514.8158
20
-1451.1277
30
0.0
40
5.5
1
75.0'
50
0.0
0
TEXT
8
DIM-LABELS
7
STANDARD
10
1550.7397
20
-1496.1579
30
0.0
40
5.5
1
100.0'
50
0.0
0
TEXT
8
DIM-LABELS
7
STANDARD
10
1518.7237
20
-1544.0456
30
0.0
40
5.5
1
75.0'
50
0.0
0
TEXT
8
DIM-LABELS
7
STANDARD
10
1482.7998
20
-1499.0154
30
0.0
40
5.5
1
100.0'
50
0.0
0
POLYLINE
8
LOT_LINE
66
1
70
1
0
VERTEX
8
LOT_LINE
10
946.8765
20
-1571.5995
30
0.0
0
VERTEX
8
LOT_LINE
10
1031.8014
20
-1568.0277
30
0.0
0
VERTEX
8
LOT_LINE
10
1036.0035
20
-1667.9394
30
0.0
0
VERTEX
8
LOT_LINE
10
951.0786
20
-1671.5112
30
0.0
0
SEQEND
0
TEXT
8
TEXT-LABELS
7
STANDARD
10
991.4400
20
-1619.7694
30
0.0
40
8.0
1
16
50
0.0
0
TEXT
8
DIM-LABELS
7
STANDARD
10
989.4860
20
-1573.3105
30
0.0
40
5.5
1
85.0'
50
0.0
0
TEXT
8
DIM-LABELS
7
STANDARD
10
1030.4055
20
-1618.1306
30
0.0
40
5.5
1
100.0'
50
0.0
0
TEXT
8
DIM-LABELS
7
STANDARD
10
993.3940
20
-1666.2284
30
0.0
40
5.5
1
85.0'
50
0.0
0
TEXT
8
DIM-LABELS
7
STANDARD
10
952.4744
20
-1621.4082
30
0.0
40
5.5
1
100.0'
50
0.0
0
POLYLINE
8
LOT_LINE
66
1
70
1
0
VERTEX
8
LOT_LINE
10
1031.8014
20
-1568.0277
30
0.0
0
VERTEX
8
LOT_LINE
10
1106.7352
20
-1564.8761
30
0.0
0
VERTEX
8
LOT_LINE
10
1110.9373
20
-1664.7878
30
0.0
0
VERTEX
8
LOT_LINE
10
1036.0035
20
-1667.9394
30
0.0
0
SEQEND
0
TEXT
8
TEXT-LABELS
7
STANDARD
10
1071.3693
20
-1616.4077
30
0.0
40
8.0
1
15
50
0.0
0
TEXT
8
DIM-LABELS
7
STANDARD
10
1069.4154
20
-1569.9488
30
0.0
40
5.5
1
75.0'
50
0.0
0
TEXT
8
DIM-LABELS
7
STANDARD
10
1105.3393
20
-1614.9790
30
0.0
40
5.5
1
100.0'
50
0.0
0
TEXT
8
DIM-LABELS
7
STANDARD
10
1073.3233
20
-1662.8667
30
0.0
40
5.5
1
75.0'
50
0.0
0
TEXT
8
DIM-LABELS
7
STANDARD
10
1037.3994
20
-1617.8365
30
0.0
40
5.5
1
100.0'
50
0.0
0
POLYLINE
8
LOT_LINE
66
1
70
1
0
VERTEX
8
LOT_LINE
10
1106.7352
20
-1564.8761
30
0.0
0
VERTEX
8
LOT_LINE
10
1181.6689
20
-1561.7246
30
0.0
0
VERTEX
8
LOT_LINE
10
1185.8710
20
-1661.6362
30
0.0
0
VERTEX
8
LOT_LINE
10
1110.9373
20
-1664.7878
30
0.0
0
SEQEND
0
TEXT
8
TEXT-LABELS
7
STANDARD
10
1146.3031
20
-1613.2562
30
0.0
40
8.0
1
14
50
0.0
0
TEXT
8
DIM-LABELS
7
STANDARD
10
1144.3491
20
-1566.7972
30
0.0
40
5.5
1
75.0'
50
0.0
0
TEXT
8
DIM-LABELS
7
STANDARD
10
1180.2731
20
-1611.8275
30
0.0
40
5.5
1
100.0'
50
0.0
0
TEXT
8
DIM-LABELS
7
STANDARD
10
1148.2571
20
-1659.7151
30
0.0
40
5.5
1
75.0'
50
0.0
0
TEXT
8
DIM-LABELS
7
STANDARD
10
1112.3331
20
-1614.6849
30
0.0
40
5.5
1
100.0'
50
0.0
0
POLYLINE
8
LOT_LINE
66
1
70
1
0
VERTEX
8
LOT_LINE
10
1181.6689
20
-1561.7246
30
0.0
0
VERTEX
8
LOT_LINE
10
1256.6027
20
-1558.5730
30
0.0
0
VERTEX
8
LOT_LINE
10
1260.8048
20
-1658.4847
30
0.0
0
VERTEX
8
LOT_LINE
10
1185.8710
20
-1661.6362
30
0.0
0
SEQEND
0
TEXT
8
TEXT-LABELS
7
STANDARD
10
1221.2368
20
-1610.1046
30
0.0
40
8.0
1
13
50
0.0
0
TEXT
8
DIM-LABELS
7
STANDARD
10
1219.2829
20
-1563.6457
30
0.0
40
5.5
1
75.0'
50
0.0
0
TEXT
8
DIM-LABELS
7
STANDARD
10
1255.2068
20
-1608.6759
30
0.0
40
5.5
1
100.0'
50
0.0
0
TEXT
8
DIM-LABELS
7
STANDARD
10
1223.1908
20
-1656.5635
30
0.0
40
5.5
1
75.0'
50
0.0
0
TEXT
8
DIM-LABELS
7
STANDARD
10
1187.2669
20
-1611.5333
30
0.0
40
5.5
1
100.0'
50
0.0
0
POLYLINE
8
LOT_LINE
66
1
70
1
0
VERTEX
8
LOT_LINE
10
1256.6027
20
-1558.5730
30
0.0
0
VERTEX
8
LOT_LINE
10
1331.5364
20
-1555.4214
30
0.0
0
VERTEX
8
LOT_LINE
10
1335.7385
20
-1655.3331
30
0.0
0
VERTEX
8
LOT_LINE
10
1260.8048
20
-1658.4847
30
0.0
0
SEQEND
0
TEXT
8
TEXT-LABELS
7
STANDARD
10
1296.1706
20
-1606.9530
30
0.0
40
8.0
1
12
50
0.0
0
TEXT
8
DIM-LABELS
7
STANDARD
10
1294.2166
20
-1560.4941
30
0.0
40
5.5
1
75.0'
50
0.0
0
TEXT
8
DIM-LABELS
7
STANDARD
10
1330.1406
20
-1605.5243
30
0.0
40
5.5
1
100.0'
50
0.0
0
TEXT
8
DIM-LABELS
7
STANDARD
10
1298.1246
20
-1653.4120
30
0.0
40
5.5
1
75.0'
50
0.0
0
TEXT
8
DIM-LABELS
7
STANDARD
10
1262.2006
20
-1608.3817
30
0.0
40
5.5
1
100.0'
50
0.0
0
POLYLINE
8
LOT_LINE
66
1
70
1
0
VERTEX
8
LOT_LINE
10
1331.5364
20
-1555.4214
30
0.0
0
VERTEX
8
LOT_LINE
10
1406.4702
20
-1552.2698
30
0.0
0
VERTEX
8
LOT_LINE
10
1410.6723
20
-1652.1815
30
0.0
0
VERTEX
8
LOT_LINE
10
1335.7385
20
-1655.3331
30
0.0
0
SEQEND
0
TEXT
8
TEXT-LABELS
7
STANDARD
10
1371.1043
20
-1603.8015
30
0.0
40
8.0
1
11
50
0.0
0
TEXT
8
DIM-LABELS
7
STANDARD
10
1369.1504
20
-1557.3425
30
0.0
40
5.5
1
75.0'
50
0.0
0
TEXT
8
DIM-LABELS
7
STANDARD
10
1405.0743
20
-1602.3727
30
0.0
40
5.5
1
100.0'
50
0.0
0
TEXT
8
DIM-LABELS
7
STANDARD
10
1373.0583
20
-1650.2604
30
0.0
40
5.5
1
75.0'
50
0.0
0
TEXT
8
DIM-LABELS
7
STANDARD
10
1337.1344
20
-1605.2302
30
0.0
40
5.5
1
100.0'
50
0.0
0
POLYLINE
8
LOT_LINE
66
1
70
1
0
VERTEX
8
LOT_LINE
10
1406.4702
20
-1552.2698
30
0.0
0
VERTEX
8
LOT_LINE
10
1481.4039
20
-1549.1183
30
0.0
0
VERTEX
8
LOT_LINE
10
1485.6060
20
-1649.0299
30
0.0
0
VERTEX
8
LOT_LINE
10
1410.6723
20
-1652.1815
30
0.0
0
SEQEND
0
TEXT
8
TEXT-LABELS
7
STANDARD
10
1446.0381
20
-1600.6499
30
0.0
40
8.0
1
10
50
0.0
0
TEXT
8
DIM-LABELS
7
STANDARD
10
1444.0841
20
-1554.1910
30
0.0
40
5.5
1
75.0'
50
0.0
0
TEXT
8
DIM-LABELS
7
STANDARD
10
1480.0081
20
-1599.2212
30
0.0
40
5.5
1
100.0'
50
0.0
0
TEXT
8
DIM-LABELS
7
STANDARD
10
1447.9921
20
-1647.1088
30
0.0
40
5.5
1
75.0'
50
0.0
0
TEXT
8
DIM-LABELS
7
STANDARD
10
1412.0681
20
-1602.0786
30
0.0
40
5.5
1
100.0'
50
0.0
0
POLYLINE
8
CURVE
66
1
70
0
0
VERTEX
8
CURVE
10
1556.3377
20
-1545.9667
30
0.0
0
VERTEX
8
CURVE
10
1556.7496
20
-1552.2031
30
0.0
0
VERTEX
8
CURVE
10
1557.1416
20
-1558.4408
30
0.0
0
VERTEX
8
CURVE
10
1557.5137
20
-1564.6797
30
0.0
0
VERTEX
8
CURVE
10
1557.8659
20
-1570.9198
30
0.0
0
VERTEX
8
CURVE
10
1558.1982
20
-1577.1609
30
0.0
0
VERTEX
8
CURVE
10
1558.5106
20
-1583.4031
30
0.0
0
VERTEX
8
CURVE
10
1558.8031
20
-1589.6463
30
0.0
0
VERTEX
8
CURVE
10
1559.0757
20
-1595.8903
30
0.0
0
VERTEX
8
CURVE
10
1559.3284
20
-1602.1352
30
0.0
0
VERTEX
8
CURVE
10
1559.5611
20
-1608.3809
30
0.0
0
VERTEX
8
CURVE
10
1559.7740
20
-1614.6272
30
0.0
0
VERTEX
8
CURVE
10
1559.9669
20
-1620.8743
30
0.0
0
VERTEX
8
CURVE
10
1560.1399
20
-1627.1219
30
0.0
0
VERTEX
8
CURVE
10
1560.2930
20
-1633.3700
30
0.0
0
VERTEX
8
CURVE
10
1560.4261
20
-1639.6186
30
0.0
0
VERTEX
8
CURVE
10
1560.5393
20
-1645.8675
30
0.0
0
SEQEND
0
POLYLINE
8
LOT_LINE
66
1
70
1
0
VERTEX
8
LOT_LINE
10
1481.4039
20
-1549.1183
30
0.0
0
VERTEX
8
LOT_LINE
10
1556.3377
20
-1545.9667
30
0.0
0
VERTEX
8
LOT_LINE
10
1556.7496
20
-1552.2031
30
0.0
0
VERTEX
8
LOT_LINE
10
1557.1416
20
-1558.4408
30
0.0
0
VERTEX
8
LOT_LINE
10
1557.5137
20
-1564.6797
30
0.0
0
VERTEX
8
LOT_LINE
10
1557.8659
20
-1570.9198
30
0.0
0
VERTEX
8
LOT_LINE
10
1558.1982
20
-1577.1609
30
0.0
0
VERTEX
8
LOT_LINE
10
1558.5106
20
-1583.4031
30
0.0
0
VERTEX
8
LOT_LINE
10
1558.8031
20
-1589.6463
30
0.0
0
VERTEX
8
LOT_LINE
10
1559.0757
20
-1595.8903
30
0.0
0
VERTEX
8
LOT_LINE
10
1559.3284
20
-1602.1352
30
0.0
0
VERTEX
8
LOT_LINE
10
1559.5611
20
-1608.3809
30
0.0
0
VERTEX
8
LOT_LINE
10
1559.7740
20
-1614.6272
30
0.0
0
VERTEX
8
LOT_LINE
10
1559.9669
20
-1620.8743
30
0.0
0
VERTEX
8
LOT_LINE
10
1560.1399
20
-1627.1219
30
0.0
0
VERTEX
8
LOT_LINE
10
1560.2930
20
-1633.3700
30
0.0
0
VERTEX
8
LOT_LINE
10
1560.4261
20
-1639.6186
30
0.0
0
VERTEX
8
LOT_LINE
10
1560.5398
20
-1645.8784
30
0.0
0
VERTEX
8
LOT_LINE
10
1485.6060
20
-1649.0299
30
0.0
0
SEQEND
0
TEXT
8
TEXT-LABELS
7
STANDARD
10
1520.9719
20
-1597.4983
30
0.0
40
8.0
1
9
50
0.0
0
TEXT
8
DIM-LABELS
7
STANDARD
10
1519.0179
20
-1551.0394
30
0.0
40
5.5
1
75.0'
50
0.0
0
TEXT
8
DIM-LABELS
7
STANDARD
10
1554.9418
20
-1596.0696
30
0.0
40
5.5
1
100.0'
50
0.0
0
TEXT
8
DIM-LABELS
7
STANDARD
10
1522.9258
20
-1643.9572
30
0.0
40
5.5
1
75.0'
50
0.0
0
TEXT
8
DIM-LABELS
7
STANDARD
10
1487.0019
20
-1598.9270
30
0.0
40
5.5
1
100.0'
50
0.0
0
POLYLINE
8
LOT_LINE
66
1
70
1
0
VERTEX
8
LOT_LINE
10
1103.4673
20
-1725.1550
30
0.0
0
VERTEX
8
LOT_LINE
10
1183.3967
20
-1721.7933
30
0.0
0
VERTEX
8
LOT_LINE
10
1187.5988
20
-1821.7050
30
0.0
0
VERTEX
8
LOT_LINE
10
1107.6694
20
-1825.0667
30
0.0
0
SEQEND
0
TEXT
8
TEXT-LABELS
7
STANDARD
10
1145.5331
20
-1773.4300
30
0.0
40
8.0
1
1
50
0.0
0
TEXT
8
DIM-LABELS
7
STANDARD
10
1143.5791
20
-1726.9711
30
0.0
40
5.5
1
80.0'
50
0.0
0
TEXT
8
DIM-LABELS
7
STANDARD
10
1182.0008
20
-1771.8962
30
0.0
40
5.5
1
100.0'
50
0.0
0
TEXT
8
DIM-LABELS
7
STANDARD
10
1147.4870
20
-1819.8889
30
0.0
40
5.5
1
80.0'
50
0.0
0
TEXT
8
DIM-LABELS
7
STANDARD
10
1109.0653
20
-1774.9638
30
0.0
40
5.5
1
100.0'
50
0.0
0
POLYLINE
8
LOT_LINE
66
1
70
1
0
VERTEX
8
LOT_LINE
10
1183.3967
20
-1721.7933
30
0.0
0
VERTEX
8
LOT_LINE
10
1258.3304
20
-1718.6418
30
0.0
0
VERTEX
8
LOT_LINE
10
1262.5325
20
-1818.5534
30
0.0
0
VERTEX
8
LOT_LINE
10
1187.5988
20
-1821.7050
30
0.0
0
SEQEND
0
TEXT
8
TEXT-LABELS
7
STANDARD
10
1222.9646
20
-1770.1734
30
0.0
40
8.0
1
2
50
0.0
0
TEXT
8
DIM-LABELS
7
STANDARD
10
1221.0106
20
-1723.7145
30
0.0
40
5.5
1
75.0'
50
0.0
0
TEXT
8
DIM-LABELS
7
STANDARD
10
1256.9346
20
-1768.7447
30
0.0
40
5.5
1
100.0'
50
0.0
0
TEXT
8
DIM-LABELS
7
STANDARD
10
1224.9186
20
-1816.6323
30
0.0
40
5.5
1
75.0'
50
0.0
0
TEXT
8
DIM-LABELS
7
STANDARD
10
1188.9946
20
-1771.6021
30
0.0
40
5.5
1
100.0'
50
0.0
0
POLYLINE
8
LOT_LINE
66
1
70
1
0
VERTEX
8
LOT_LINE
10
1258.3304
20
-1718.6418
30
0.0
0
VERTEX
8
LOT_LINE
10
1333.2642
20
-1715.4902
30
0.0
0
VERTEX
8
LOT_LINE
10
1337.4663
20
-1815.4019
30
0.0
0
VERTEX
8
LOT_LINE
10
1262.5325
20
-1818.5534
30
0.0
0
SEQEND
0
TEXT
8
TEXT-LABELS
7
STANDARD
10
1297.8984
20
-1767.0218
30
0.0
40
8.0
1
3
50
0.0
0
TEXT
8
DIM-LABELS
7
STANDARD
10
1295.9444
20
-1720.5629
30
0.0
40
5.5
1
75.0'
50
0.0
0
TEXT
8
DIM-LABELS
7
STANDARD
10
1331.8683
20
-1765.5931
30
0.0
40
5.5
1
100.0'
50
0.0
0
TEXT
8
DIM-LABELS
7
STANDARD
10
1299.8523
20
-1813.4807
30
0.0
40
5.5
1
75.0'
50
0.0
0
TEXT
8
DIM-LABELS
7
STANDARD
10
1263.9284
20
-1768.4505
30
0.0
40
5.5
1
100.0'
50
0.0
0
POLYLINE
8
LOT_LINE
66
1
70
1
0
VERTEX
8
LOT_LINE
10
1333.2642
20
-1715.4902
30
0.0
0
VERTEX
8
LOT_LINE
10
1408.1979
20
-1712.3386
30
0.0
0
VERTEX
8
LOT_LINE
10
1412.4000
20
-1812.2503
30
0.0
0
VERTEX
8
LOT_LINE
10
1337.4663
20
-1815.4019
30
0.0
0
SEQEND
0
TEXT
8
TEXT-LABELS
7
STANDARD
10
1372.8321
20
-1763.8702
30
0.0
40
8.0
1
4
50
0.0
0
TEXT
8
DIM-LABELS
7
STANDARD
10
1370.8781
20
-1717.4113
30
0.0
40
5.5
1
75.0'
50
0.0
0
TEXT
8
DIM-LABELS
7
STANDARD
10
1406.8021
20
-1762.4415
30
0.0
40
5.5
1
100.0'
50
0.0
0
TEXT
8
DIM-LABELS
7
STANDARD
10
1374.7861
20
-1810.3292
30
0.0
40
5.5
1
75.0'
50
0.0
0
TEXT
8
DIM-LABELS
7
STANDARD
10
1338.8622
20
-1765.2990
30
0.0
40
5.5
1
100.0'
50
0.0
0
POLYLINE
8
LOT_LINE
66
1
70
1
0
VERTEX
8
LOT_LINE
10
1408.1979
20
-1712.3386
30
0.0
0
VERTEX
8
LOT_LINE
10
1483.1317
20
-1709.1870
30
0.0
0
VERTEX
8
LOT_LINE
10
1487.3338
20
-1809.0987
30
0.0
0
VERTEX
8
LOT_LINE
10
1412.4000
20
-1812.2503
30
0.0
0
SEQEND
0
TEXT
8
TEXT-LABELS
7
STANDARD
10
1447.7659
20
-1760.7187
30
0.0
40
8.0
1
5
50
0.0
0
TEXT
8
DIM-LABELS
7
STANDARD
10
1445.8119
20
-1714.2597
30
0.0
40
5.5
1
75.0'
50
0.0
0
TEXT
8
DIM-LABELS
7
STANDARD
10
1481.7358
20
-1759.2900
30
0.0
40
5.5
1
100.0'
50
0.0
0
TEXT
8
DIM-LABELS
7
STANDARD
10
1449.7199
20
-1807.1776
30
0.0
40
5.5
1
75.0'
50
0.0
0
TEXT
8
DIM-LABELS
7
STANDARD
10
1413.7959
20
-1762.1474
30
0.0
40
5.5
1
100.0'
50
0.0
0
POLYLINE
8
LOT_LINE
66
1
70
1
0
VERTEX
8
LOT_LINE
10
1483.1317
20
-1709.1870
30
0.0
0
VERTEX
8
LOT_LINE
10
1558.0655
20
-1706.0355
30
0.0
0
VERTEX
8
LOT_LINE
10
1562.2676
20
-1805.9471
30
0.0
0
VERTEX
8
LOT_LINE
10
1487.3338
20
-1809.0987
30
0.0
0
SEQEND
0
TEXT
8
TEXT-LABELS
7
STANDARD
10
1522.6996
20
-1757.5671
30
0.0
40
8.0
1
6
50
0.0
0
TEXT
8
DIM-LABELS
7
STANDARD
10
1520.7457
20
-1711.1082
30
0.0
40
5.5
1
75.0'
50
0.0
0
TEXT
8
DIM-LABELS
7
STANDARD
10
1556.6696
20
-1756.1384
30
0.0
40
5.5
1
100.0'
50
0.0
0
TEXT
8
DIM-LABELS
7
STANDARD
10
1524.6536
20
-1804.0260
30
0.0
40
5.5
1
75.0'
50
0.0
0
TEXT
8
DIM-LABELS
7
STANDARD
10
1488.7297
20
-1758.9958
30
0.0
40
5.5
1
100.0'
50
0.0
0
POLYLINE
8
CURVE
66
1
70
0
0
VERTEX
8
CURVE
10
1632.9992
20
-1702.8839
30
0.0
0
VERTEX
8
CURVE
10
1633.4111
20
-1709.1203
30
0.0
0
VERTEX
8
CURVE
10
1633.8031
20
-1715.3580
30
0.0
0
VERTEX
8
CURVE
10
1634.1752
20
-1721.5969
30
0.0
0
VERTEX
8
CURVE
10
1634.5274
20
-1727.8370
30
0.0
0
VERTEX
8
CURVE
10
1634.8597
20
-1734.0781
30
0.0
0
VERTEX
8
CURVE
10
1635.1722
20
-1740.3203
30
0.0
0
VERTEX
8
CURVE
10
1635.4646
20
-1746.5635
30
0.0
0
VERTEX
8
CURVE
10
1635.7372
20
-1752.8075
30
0.0
0
VERTEX
8
CURVE
10
1635.9899
20
-1759.0524
30
0.0
0
VERTEX
8
CURVE
10
1636.2227
20
-1765.2981
30
0.0
0
VERTEX
8
CURVE
10
1636.4355
20
-1771.5444
30
0.0
0
VERTEX
8
CURVE
10
1636.6284
20
-1777.7915
30
0.0
0
VERTEX
8
CURVE
10
1636.8014
20
-1784.0391
30
0.0
0
VERTEX
8
CURVE
10
1636.9545
20
-1790.2872
30
0.0
0
VERTEX
8
CURVE
10
1637.0876
20
-1796.5358
30
0.0
0
VERTEX
8
CURVE
10
1637.2009
20
-1802.7847
30
0.0
0
SEQEND
0
POLYLINE
8
LOT_LINE
66
1
70
1
0
VERTEX
8
LOT_LINE
10
1558.0655
20
-1706.0355
30
0.0
0
VERTEX
8
LOT_LINE
10
1632.9992
20
-1702.8839
30
0.0
0
VERTEX
8
LOT_LINE
10
1633.4111
20
-1709.1203
30
0.0
0
VERTEX
8
LOT_LINE
10
1633.8031
20
-1715.3580
30
0.0
0
VERTEX
8
LOT_LINE
10
1634.1752
20
-1721.5969
30
0.0
0
VERTEX
8
LOT_LINE
10
1634.5274
20
-1727.8370
30
0.0
0
VERTEX
8
LOT_LINE
10
1634.8597
20
-1734.0781
30
0.0
0
VERTEX
8
LOT_LINE
10
1635.1722
20
-1740.3203
30
0.0
0
VERTEX
8
LOT_LINE
10
1635.4646
20
-1746.5635
30
0.0
0
VERTEX
8
LOT_LINE
10
1635.7372
20
-1752.8075
30
0.0
0
VERTEX
8
LOT_LINE
10
1635.9899
20
-1759.0524
30
0.0
0
VERTEX
8
LOT_LINE
10
1636.2227
20
-1765.2981
30
0.0
0
VERTEX
8
LOT_LINE
10
1636.4355
20
-1771.5444
30
0.0
0
VERTEX
8
LOT_LINE
10
1636.6284
20
-1777.7915
30
0.0
0
VERTEX
8
LOT_LINE
10
1636.8014
20
-1784.0391
30
0.0
0
VERTEX
8
LOT_LINE
10
1636.9545
20
-1790.2872
30
0.0
0
VERTEX
8
LOT_LINE
10
1637.0876
20
-1796.5358
30
0.0
0
VERTEX
8
LOT_LINE
10
1637.2013
20
-1802.7956
30
0.0
0
VERTEX
8
LOT_LINE
10
1562.2676
20
-1805.9471
30
0.0
0
SEQEND
0
TEXT
8
TEXT-LABELS
7
STANDARD
10
1597.6334
20
-1754.4155
30
0.0
40
8.0
1
7
50
0.0
0
TEXT
8
DIM-LABELS
7
STANDARD
10
1595.6794
20
-1707.9566
30
0.0
40
5.5
1
75.0'
50
0.0
0
TEXT
8
DIM-LABELS
7
STANDARD
10
1631.6034
20
-1752.9868
30
0.0
40
5.5
1
100.0'
50
0.0
0
TEXT
8
DIM-LABELS
7
STANDARD
10
1599.5874
20
-1800.8744
30
0.0
40
5.5
1
75.0'
50
0.0
0
TEXT
8
DIM-LABELS
7
STANDARD
10
1563.6634
20
-1755.8442
30
0.0
40
5.5
1
100.0'
50
0.0
0
POLYLINE
8
LOT_LINE
66
1
70
1
0
VERTEX
8
LOT_LINE
10
1107.6694
20
-1825.0667
30
0.0
0
VERTEX
8
LOT_LINE
10
1187.5988
20
-1821.7050
30
0.0
0
VERTEX
8
LOT_LINE
10
1191.8009
20
-1921.6167
30
0.0
0
VERTEX
8
LOT_LINE
10
1111.8715
20
-1924.9784
30
0.0
0
SEQEND
0
TEXT
8
TEXT-LABELS
7
STANDARD
10
1149.7352
20
-1873.3417
30
0.0
40
8.0
1
14
50
0.0
0
TEXT
8
DIM-LABELS
7
STANDARD
10
1147.7812
20
-1826.8828
30
0.0
40
5.5
1
80.0'
50
0.0
0
TEXT
8
DIM-LABELS
7
STANDARD
10
1186.2029
20
-1871.8079
30
0.0
40
5.5
1
100.0'
50
0.0
0
TEXT
8
DIM-LABELS
7
STANDARD
10
1151.6891
20
-1919.8006
30
0.0
40
5.5
1
80.0'
50
0.0
0
TEXT
8
DIM-LABELS
7
STANDARD
10
1113.2674
20
-1874.8754
30
0.0
40
5.5
1
100.0'
50
0.0
0
POLYLINE
8
LOT_LINE
66
1
70
1
0
VERTEX
8
LOT_LINE
10
1187.5988
20
-1821.7050
30
0.0
0
VERTEX
8
LOT_LINE
10
1262.5325
20
-1818.5534
30
0.0
0
VERTEX
8
LOT_LINE
10
1266.7346
20
-1918.4651
30
0.0
0
VERTEX
8
LOT_LINE
10
1191.8009
20
-1921.6167
30
0.0
0
SEQEND
0
TEXT
8
TEXT-LABELS
7
STANDARD
10
1227.1667
20
-1870.0851
30
0.0
40
8.0
1
13
50
0.0
0
TEXT
8
DIM-LABELS
7
STANDARD
10
1225.2127
20
-1823.6261
30
0.0
40
5.5
1
75.0'
50
0.0
0
TEXT
8
DIM-LABELS
7
STANDARD
10
1261.1367
20
-1868.6563
30
0.0
40
5.5
1
100.0'
50
0.0
0
TEXT
8
DIM-LABELS
7
STANDARD
10
1229.1207
20
-1916.5440
30
0.0
40
5.5
1
75.0'
50
0.0
0
TEXT
8
DIM-LABELS
7
STANDARD
10
1193.1967
20
-1871.5138
30
0.0
40
5.5
1
100.0'
50
0.0
0
POLYLINE
8
LOT_LINE
66
1
70
1
0
VERTEX
8
LOT_LINE
10
1262.5325
20
-1818.5534
30
0.0
0
VERTEX
8
LOT_LINE
10
1337.4663
20
-1815.4019
30
0.0
0
VERTEX
8
LOT_LINE
10
1341.6684
20
-1915.3135
30
0.0
0
VERTEX
8
LOT_LINE
10
1266.7346
20
-1918.4651
30
0.0
0
SEQEND
0
TEXT
8
TEXT-LABELS
7
STANDARD
10
1302.1005
20
-1866.9335
30
0.0
40
8.0
1
12
50
0.0
0
TEXT
8
DIM-LABELS
7
STANDARD
10
1300.1465
20
-1820.4746
30
0.0
40
5.5
1
75.0'
50
0.0
0
TEXT
8
DIM-LABELS
7
STANDARD
10
1336.0704
20
-1865.5048
30
0.0
40
5.5
1
100.0'
50
0.0
0
TEXT
8
DIM-LABELS
7
STANDARD
10
1304.0544
20
-1913.3924
30
0.0
40
5.5
1
75.0'
50
0.0
0
TEXT
8
DIM-LABELS
7
STANDARD
10
1268.1305
20
-1868.3622
30
0.0
40
5.5
1
100.0'
50
0.0
0
POLYLINE
8
LOT_LINE
66
1
70
1
0
VERTEX
8
LOT_LINE
10
1337.4663
20
-1815.4019
30
0.0
0
VERTEX
8
LOT_LINE
10
1412.4000
20
-1812.2503
30
0.0
0
VERTEX
8
LOT_LINE
10
1416.6021
20
-1912.1620
30
0.0
0
VERTEX
8
LOT_LINE
10
1341.6684
20
-1915.3135
30
0.0
0
SEQEND
0
TEXT
8
TEXT-LABELS
7
STANDARD
10
1377.0342
20
-1863.7819
30
0.0
40
8.0
1
11
50
0.0
0
TEXT
8
DIM-LABELS
7
STANDARD
10
1375.0802
20
-1817.3230
30
0.0
40
5.5
1
75.0'
50
0.0
0
TEXT
8
DIM-LABELS
7
STANDARD
10
1411.0042
20
-1862.3532
30
0.0
40
5.5
1
100.0'
50
0.0
0
TEXT
8
DIM-LABELS
7
STANDARD
10
1378.9882
20
-1910.2408
30
0.0
40
5.5
1
75.0'
50
0.0
0
TEXT
8
DIM-LABELS
7
STANDARD
10
1343.0642
20
-1865.2106
30
0.0
40
5.5
1
100.0'
50
0.0
0
POLYLINE
8
LOT_LINE
66
1
70
1
0
VERTEX
8
LOT_LINE
10
1412.4000
20
-1812.2503
30
0.0
0
VERTEX
8
LOT_LINE
10
1487.3338
20
-1809.0987
30
0.0
0
VERTEX
8
LOT_LINE
10
1491.5359
20
-1909.0104
30
0.0
0
VERTEX
8
LOT_LINE
10
1416.6021
20
-1912.1620
30
0.0
0
SEQEND
0
TEXT
8
TEXT-LABELS
7
STANDARD
10
1451.9680
20
-1860.6303
30
0.0
40
8.0
1
10
50
0.0
0
TEXT
8
DIM-LABELS
7
STANDARD
10
1450.0140
20
-1814.1714
30
0.0
40
5.5
1
75.0'
50
0.0
0
TEXT
8
DIM-LABELS
7
STANDARD
10
1485.9379
20
-1859.2016
30
0.0
40
5.5
1
100.0'
50
0.0
0
TEXT
8
DIM-LABELS
7
STANDARD
10
1453.9219
20
-1907.0893
30
0.0
40
5.5
1
75.0'
50
0.0
0
TEXT
8
DIM-LABELS
7
STANDARD
10
1417.9980
20
-1862.0591
30
0.0
40
5.5
1
100.0'
50
0.0
0
POLYLINE
8
LOT_LINE
66
1
70
1
0
VERTEX
8
LOT_LINE
10
1487.3338
20
-1809.0987
30
0.0
0
VERTEX
8
LOT_LINE
10
1562.2676
20
-1805.9471
30
0.0
0
VERTEX
8
LOT_LINE
10
1566.4697
20
-1905.8588
30
0.0
0
VERTEX
8
LOT_LINE
10
1491.5359
20
-1909.0104
30
0.0
0
SEQEND
0
TEXT
8
TEXT-LABELS
7
STANDARD
10
1526.9017
20
-1857.4788
30
0.0
40
8.0
1
9
50
0.0
0
TEXT
8
DIM-LABELS
7
STANDARD
10
1524.9478
20
-1811.0198
30
0.0
40
5.5
1
75.0'
50
0.0
0
TEXT
8
DIM-LABELS
7
STANDARD
10
1560.8717
20
-1856.0501
30
0.0
40
5.5
1
100.0'
50
0.0
0
TEXT
8
DIM-LABELS
7
STANDARD
10
1528.8557
20
-1903.9377
30
0.0
40
5.5
1
75.0'
50
0.0
0
TEXT
8
DIM-LABELS
7
STANDARD
10
1492.9318
20
-1858.9075
30
0.0
40
5.5
1
100.0'
50
0.0
0
POLYLINE
8
CURVE
66
1
70
0
0
VERTEX
8
CURVE
10
1637.2013
20
-1802.7956
30
0.0
0
VERTEX
8
CURVE
10
1637.6132
20
-1809.0320
30
0.0
0
VERTEX
8
CURVE
10
1638.0052
20
-1815.2697
30
0.0
0
VERTEX
8
CURVE
10
1638.3773
20
-1821.5086
30
0.0
0
VERTEX
8
CURVE
10
1638.7295
20
-1827.7486
30
0.0
0
VERTEX
8
CURVE
10
1639.0618
20
-1833.9898
30
0.0
0
VERTEX
8
CURVE
10
1639.3742
20
-1840.2320
30
0.0
0
VERTEX
8
CURVE
10
1639.6667
20
-1846.4751
30
0.0
0
VERTEX
8
CURVE
10
1639.9393
20
-1852.7192
30
0.0
0
VERTEX
8
CURVE
10
1640.1920
20
-1858.9641
30
0.0
0
VERTEX
8
CURVE
10
1640.4248
20
-1865.2097
30
0.0
0
VERTEX
8
CURVE
10
1640.6376
20
-1871.4561
30
0.0
0
VERTEX
8
CURVE
10
1640.8305
20
-1877.7031
30
0.0
0
VERTEX
8
CURVE
10
1641.0035
20
-1883.9507
30
0.0
0
VERTEX
8
CURVE
10
1641.1566
20
-1890.1989
30
0.0
0
VERTEX
8
CURVE
10
1641.2897
20
-1896.4474
30
0.0
0
VERTEX
8
CURVE
10
1641.4030
20
-1902.6964
30
0.0
0
SEQEND
0
POLYLINE
8
LOT_LINE
66
1
70
1
0
VERTEX
8
LOT_LINE
10
1562.2676
20
-1805.9471
30
0.0
0
VERTEX
8
LOT_LINE
10
1637.2013
20
-1802.7956
30
0.0
0
VERTEX
8
LOT_LINE
10
1637.6132
20
-1809.0320
30
0.0
0
VERTEX
8
LOT_LINE
10
1638.0052
20
-1815.2697
30
0.0
0
VERTEX
8
LOT_LINE
10
1638.3773
20
-1821.5086
30
0.0
0
VERTEX
8
LOT_LINE
10
1638.7295
20
-1827.7486
30
0.0
0
VERTEX
8
LOT_LINE
10
1639.0618
20
-1833.9898
30
0.0
0
VERTEX
8
LOT_LINE
10
1639.3742
20
-1840.2320
30
0.0
0
VERTEX
8
LOT_LINE
10
1639.6667
20
-1846.4751
30
0.0
0
VERTEX
8
LOT_LINE
10
1639.9393
20
-1852.7192
30
0.0
0
VERTEX
8
LOT_LINE
10
1640.1920
20
-1858.9641
30
0.0
0
VERTEX
8
LOT_LINE
10
1640.4248
20
-1865.2097
30
0.0
0
VERTEX
8
LOT_LINE
10
1640.6376
20
-1871.4561
30
0.0
0
VERTEX
8
LOT_LINE
10
1640.8305
20
-1877.7031
30
0.0
0
VERTEX
8
LOT_LINE
10
1641.0035
20
-1883.9507
30
0.0
0
VERTEX
8
LOT_LINE
10
1641.1566
20
-1890.1989
30
0.0
0
VERTEX
8
LOT_LINE
10
1641.2897
20
-1896.4474
30
0.0
0
VERTEX
8
LOT_LINE
10
1641.4034
20
-1902.7072
30
0.0
0
VERTEX
8
LOT_LINE
10
1566.4697
20
-1905.8588
30
0.0
0
SEQEND
0
TEXT
8
TEXT-LABELS
7
STANDARD
10
1601.8355
20
-1854.3272
30
0.0
40
8.0
1
8
50
0.0
0
TEXT
8
DIM-LABELS
7
STANDARD
10
1599.8815
20
-1807.8683
30
0.0
40
5.5
1
75.0'
50
0.0
0
TEXT
8
DIM-LABELS
7
STANDARD
10
1635.8055
20
-1852.8985
30
0.0
40
5.5
1
100.0'
50
0.0
0
TEXT
8
DIM-LABELS
7
STANDARD
10
1603.7895
20
-1900.7861
30
0.0
40
5.5
1
75.0'
50
0.0
0
TEXT
8
DIM-LABELS
7
STANDARD
10
1567.8655
20
-1855.7559
30
0.0
40
5.5
1
100.0'
50
0.0
0
POLYLINE
8
LOT_LINE
66
1
70
1
0
VERTEX
8
LOT_LINE
10
1264.2603
20
-1978.6222
30
0.0
0
VERTEX
8
LOT_LINE
10
1339.1941
20
-1975.4706
30
0.0
0
VERTEX
8
LOT_LINE
10
1343.3962
20
-2075.3823
30
0.0
0
VERTEX
8
LOT_LINE
10
1268.4624
20
-2078.5339
30
0.0
0
SEQEND
0
TEXT
8
TEXT-LABELS
7
STANDARD
10
1303.8282
20
-2027.0023
30
0.0
40
8.0
1
1
50
0.0
0
TEXT
8
DIM-LABELS
7
STANDARD
10
1301.8743
20
-1980.5433
30
0.0
40
5.5
1
75.0'
50
0.0
0
TEXT
8
DIM-LABELS
7
STANDARD
10
1337.7982
20
-2025.5736
30
0.0
40
5.5
1
100.0'
50
0.0
0
TEXT
8
DIM-LABELS
7
STANDARD
10
1305.7822
20
-2073.4612
30
0.0
40
5.5
1
75.0'
50
0.0
0
TEXT
8
DIM-LABELS
7
STANDARD
10
1269.8583
20
-2028.4310
30
0.0
40
5.5
1
100.0'
50
0.0
0
POLYLINE
8
LOT_LINE
66
1
70
1
0
VERTEX
8
LOT_LINE
10
1339.1941
20
-1975.4706
30
0.0
0
VERTEX
8
LOT_LINE
10
1414.1278
20
-1972.3191
30
0.0
0
VERTEX
8
LOT_LINE
10
1418.3299
20
-2072.2307
30
0.0
0
VERTEX
8
LOT_LINE
10
1343.3962
20
-2075.3823
30
0.0
0
SEQEND
0
TEXT
8
TEXT-LABELS
7
STANDARD
10
1378.7620
20
-2023.8507
30
0.0
40
8.0
1
2
50
0.0
0
TEXT
8
DIM-LABELS
7
STANDARD
10
1376.8080
20
-1977.3918
30
0.0
40
5.5
1
75.0'
50
0.0
0
TEXT
8
DIM-LABELS
7
STANDARD
10
1412.7320
20
-2022.4220
30
0.0
40
5.5
1
100.0'
50
0.0
0
TEXT
8
DIM-LABELS
7
STANDARD
10
1380.7160
20
-2070.3096
30
0.0
40
5.5
1
75.0'
50
0.0
0
TEXT
8
DIM-LABELS
7
STANDARD
10
1344.7920
20
-2025.2794
30
0.0
40
5.5
1
100.0'
50
0.0
0
POLYLINE
8
LOT_LINE
66
1
70
1
0
VERTEX
8
LOT_LINE
10
1414.1278
20
-1972.3191
30
0.0
0
VERTEX
8
LOT_LINE
10
1489.0616
20
-1969.1675
30
0.0
0
VERTEX
8
LOT_LINE
10
1493.2637
20
-2069.0792
30
0.0
0
VERTEX
8
LOT_LINE
10
1418.3299
20
-2072.2307
30
0.0
0
SEQEND
0
TEXT
8
TEXT-LABELS
7
STANDARD
10
1453.6957
20
-2020.6991
30
0.0
40
8.0
1
3
50
0.0
0
TEXT
8
DIM-LABELS
7
STANDARD
10
1451.7418
20
-1974.2402
30
0.0
40
5.5
1
75.0'
50
0.0
0
TEXT
8
DIM-LABELS
7
STANDARD
10
1487.6657
20
-2019.2704
30
0.0
40
5.5
1
100.0'
50
0.0
0
TEXT
8
DIM-LABELS
7
STANDARD
10
1455.6497
20
-2067.1580
30
0.0
40
5.5
1
75.0'
50
0.0
0
TEXT
8
DIM-LABELS
7
STANDARD
10
1419.7258
20
-2022.1278
30
0.0
40
5.5
1
100.0'
50
0.0
0
POLYLINE
8
LOT_LINE
66
1
70
1
0
VERTEX
8
LOT_LINE
10
1489.0616
20
-1969.1675
30
0.0
0
VERTEX
8
LOT_LINE
10
1563.9953
20
-1966.0159
30
0.0
0
VERTEX
8
LOT_LINE
10
1568.1974
20
-2065.9276
30
0.0
0
VERTEX
8
LOT_LINE
10
1493.2637
20
-2069.0792
30
0.0
0
SEQEND
0
TEXT
8
TEXT-LABELS
7
STANDARD
10
1528.6295
20
-2017.5475
30
0.0
40
8.0
1
4
50
0.0
0
TEXT
8
DIM-LABELS
7
STANDARD
10
1526.6755
20
-1971.0886
30
0.0
40
5.5
1
75.0'
50
0.0
0
TEXT
8
DIM-LABELS
7
STANDARD
10
1562.5995
20
-2016.1188
30
0.0
40
5.5
1
100.0'
50
0.0
0
TEXT
8
DIM-LABELS
7
STANDARD
10
1530.5835
20
-2064.0065
30
0.0
40
5.5
1
75.0'
50
0.0
0
TEXT
8
DIM-LABELS
7
STANDARD
10
1494.6595
20
-2018.9763
30
0.0
40
5.5
1
100.0'
50
0.0
0
POLYLINE
8
LOT_LINE
66
1
70
1
0
VERTEX
8
LOT_LINE
10
1563.9953
20
-1966.0159
30
0.0
0
VERTEX
8
LOT_LINE
10
1638.9291
20
-1962.8644
30
0.0
0
VERTEX
8
LOT_LINE
10
1643.1312
20
-2062.7760
30
0.0
0
VERTEX
8
LOT_LINE
10
1568.1974
20
-2065.9276
30
0.0
0
SEQEND
0
TEXT
8
TEXT-LABELS
7
STANDARD
10
1603.5633
20
-2014.3960
30
0.0
40
8.0
1
5
50
0.0
0
TEXT
8
DIM-LABELS
7
STANDARD
10
1601.6093
20
-1967.9370
30
0.0
40
5.5
1
75.0'
50
0.0
0
TEXT
8
DIM-LABELS
7
STANDARD
10
1637.5332
20
-2012.9673
30
0.0
40
5.5
1
100.0'
50
0.0
0
TEXT
8
DIM-LABELS
7
STANDARD
10
1605.5172
20
-2060.8549
30
0.0
40
5.5
1
75.0'
50
0.0
0
TEXT
8
DIM-LABELS
7
STANDARD
10
1569.5933
20
-2015.8247
30
0.0
40
5.5
1
100.0'
50
0.0
0
POLYLINE
8
LOT_LINE
66
1
70
1
0
VERTEX
8
LOT_LINE
10
1638.9291
20
-1962.8644
30
0.0
0
VERTEX
8
LOT_LINE
10
1713.8628
20
-1959.7128
30
0.0
0
VERTEX
8
LOT_LINE
10
1718.0649
20
-2059.6245
30
0.0
0
VERTEX
8
LOT_LINE
10
1643.1312
20
-2062.7760
30
0.0
0
SEQEND
0
TEXT
8
TEXT-LABELS
7
STANDARD
10
1678.4970
20
-2011.2444
30
0.0
40
8.0
1
6
50
0.0
0
TEXT
8
DIM-LABELS
7
STANDARD
10
1676.5430
20
-1964.7855
30
0.0
40
5.5
1
75.0'
50
0.0
0
TEXT
8
DIM-LABELS
7
STANDARD
10
1712.4670
20
-2009.8157
30
0.0
40
5.5
1
100.0'
50
0.0
0
TEXT
8
DIM-LABELS
7
STANDARD
10
1680.4510
20
-2057.7033
30
0.0
40
5.5
1
75.0'
50
0.0
0
TEXT
8
DIM-LABELS
7
STANDARD
10
1644.5270
20
-2012.6731
30
0.0
40
5.5
1
100.0'
50
0.0
0
POLYLINE
8
LOT_LINE
66
1
70
1
0
VERTEX
8
LOT_LINE
10
1713.8628
20
-1959.7128
30
0.0
0
VERTEX
8
LOT_LINE
10
1788.7966
20
-1956.5612
30
0.0
0
VERTEX
8
LOT_LINE
10
1792.9987
20
-2056.4729
30
0.0
0
VERTEX
8
LOT_LINE
10
1718.0649
20
-2059.6245
30
0.0
0
SEQEND
0
TEXT
8
TEXT-LABELS
7
STANDARD
10
1753.4308
20
-2008.0928
30
0.0
40
8.0
1
7
50
0.0
0
TEXT
8
DIM-LABELS
7
STANDARD
10
1751.4768
20
-1961.6339
30
0.0
40
5.5
1
75.0'
50
0.0
0
TEXT
8
DIM-LABELS
7
STANDARD
10
1787.4007
20
-2006.6641
30
0.0
40
5.5
1
100.0'
50
0.0
0
TEXT
8
DIM-LABELS
7
STANDARD
10
1755.3847
20
-2054.5518
30
0.0
40
5.5
1
75.0'
50
0.0
0
TEXT
8
DIM-LABELS
7
STANDARD
10
1719.4608
20
-2009.5215
30
0.0
40
5.5
1
100.0'
50
0.0
0
POLYLINE
8
LOT_LINE
66
1
70
1
0
VERTEX
8
LOT_LINE
10
1788.7966
20
-1956.5612
30
0.0
0
VERTEX
8
LOT_LINE
10
1863.7303
20
-1953.4096
30
0.0
0
VERTEX
8
LOT_LINE
10
1867.9324
20
-2053.3213
30
0.0
0
VERTEX
8
LOT_LINE
10
1792.9987
20
-2056.4729
30
0.0
0
SEQEND
0
TEXT
8
TEXT-LABELS
7
STANDARD
10
1828.3645
20
-2004.9413
30
0.0
40
8.0
1
8
50
0.0
0
TEXT
8
DIM-LABELS
7
STANDARD
10
1826.4105
20
-1958.4823
30
0.0
40
5.5
1
75.0'
50
0.0
0
TEXT
8
DIM-LABELS
7
STANDARD
10
1862.3345
20
-2003.5125
30
0.0
40
5.5
1
100.0'
50
0.0
0
TEXT
8
DIM-LABELS
7
STANDARD
10
1830.3185
20
-2051.4002
30
0.0
40
5.5
1
75.0'
50
0.0
0
TEXT
8
DIM-LABELS
7
STANDARD
10
1794.3945
20
-2006.3700
30
0.0
40
5.5
1
100.0'
50
0.0
0
POLYLINE
8
LOT_LINE
66
1
70
1
0
VERTEX
8
LOT_LINE
10
1268.4624
20
-2078.5339
30
0.0
0
VERTEX
8
LOT_LINE
10
1328.4094
20
-2076.0126
30
0.0
0
VERTEX
8
LOT_LINE
10
1330.9307
20
-2135.9596
30
0.0
0
VERTEX
8
LOT_LINE
10
1270.9837
20
-2138.4809
30
0.0
0
SEQEND
0
TEXT
8
TEXT-LABELS
7
STANDARD
10
1299.6965
20
-2107.2468
30
0.0
40
8.0
1
A
50
0.0
0
TEXT
8
DIM-LABELS
7
STANDARD
10
1298.5830
20
-2080.7702
30
0.0
40
5.5
1
60.0'
50
0.0
0
TEXT
8
DIM-LABELS
7
STANDARD
10
1326.1731
20
-2106.1332
30
0.0
40
5.5
1
60.0'
50
0.0
0
TEXT
8
DIM-LABELS
7
STANDARD
10
1300.8101
20
-2133.7234
30
0.0
40
5.5
1
60.0'
50
0.0
0
TEXT
8
DIM-LABELS
7
STANDARD
10
1273.2199
20
-2108.3603
30
0.0
40
5.5
1
60.0'
50
0.0
0
LINE
8
BOUNDARY
10
0.0000
20
0.0000
30
0.0
11
1624.9335
21
68.3416
31
0.0
0
TEXT
8
DIM-LABELS
7
STANDARD
10
450.0000
20
12.0000
30
0.0
40
10
1
N'ly line Section 32   S87%%d35'30"W  1626.37'
50
0.0
0
LINE
8
EASEMENT
10
2.1010
20
-49.9558
30
0.0
11
1627.0345
21
18.3858
31
0.0
0
LINE
8
EASEMENT
10
49.9558
20
2.1010
30
0.0
11
139.4605
21
-2126.0176
31
0.0
0
LINE
8
ROW_STREET
10
216.1177
20
-141.0431
30
0.0
11
1508.4751
21
-86.6890
31
0.0
0
LINE
8
ROW_STREET
10
218.6389
20
-200.9901
30
0.0
11
1510.9964
21
-146.6360
31
0.0
0
TEXT
8
ROW_STREET
7
STANDARD
10
863.5570
20
-143.8395
30
0.0
40
10.0
1
STARFISH AVENUE (60' R/W)   S87%%d35'30"W
50
0.0
0
LINE
8
ROW_STREET
10
227.0431
20
-400.8135
30
0.0
11
1519.4006
21
-346.4593
31
0.0
0
LINE
8
ROW_STREET
10
229.5644
20
-460.7605
30
0.0
11
1521.9219
21
-406.4063
31
0.0
0
TEXT
8
ROW_STREET
7
STANDARD
10
874.4825
20
-403.6099
30
0.0
40
10.0
1
SAIL AVENUE (60' R/W)   S87%%d35'30"W
50
0.0
0
LINE
8
ROW_STREET
10
233.7665
20
-560.6721
30
0.0
11
1526.1240
21
-506.3180
31
0.0
0
LINE
8
ROW_STREET
10
236.2877
20
-620.6191
30
0.0
11
1528.6452
21
-566.2650
31
0.0
0
TEXT
8
ROW_STREET
7
STANDARD
10
881.2058
20
-563.4686
30
0.0
40
10.0
1
MARINA AVENUE (60' R/W)   S87%%d35'30"W
50
0.0
0
LINE
8
ROW_STREET
10
244.6919
20
-820.4425
30
0.0
11
1537.0494
21
-766.0884
31
0.0
0
LINE
8
ROW_STREET
10
247.2132
20
-880.3895
30
0.0
11
1539.5707
21
-826.0354
31
0.0
0
TEXT
8
ROW_STREET
7
STANDARD
10
892.1313
20
-823.2389
30
0.0
40
10.0
1
SANDS AVENUE (60' R/W)   S87%%d35'30"W
50
0.0
0
LINE
8
ROW_STREET
10
625.2906
20
-1064.6651
30
0.0
11
1551.8514
21
-1025.6957
31
0.0
0
LINE
8
ROW_STREET
10
627.8118
20
-1124.6121
30
0.0
11
1554.3727
21
-1085.6427
31
0.0
0
TEXT
8
ROW_STREET
7
STANDARD
10
1089.8316
20
-1075.1539
30
0.0
40
10.0
1
SHELLFISH DRIVE (60' R/W)   S87%%d35'30"W
50
0.0
0
LINE
8
ROW_STREET
10
786.0835
20
-1318.1323
30
0.0
11
1548.8892
21
-1286.0501
31
0.0
0
LINE
8
ROW_STREET
10
788.6048
20
-1378.0793
30
0.0
11
1551.4104
21
-1345.9971
31
0.0
0
TEXT
8
ROW_STREET
7
STANDARD
10
1168.7470
20
-1332.0647
30
0.0
40
10.0
1
KEEL DRIVE (60' R/W)   S87%%d35'30"W
50
0.0
0
LINE
8
ROW_STREET
10
946.8765
20
-1571.5995
30
0.0
11
1556.3377
21
-1545.9667
31
0.0
0
LINE
8
ROW_STREET
10
949.3977
20
-1631.5465
30
0.0
11
1558.8589
21
-1605.9137
31
0.0
0
TEXT
8
ROW_STREET
7
STANDARD
10
1252.8677
20
-1588.7566
30
0.0
40
10.0
1
CAPE HORN AVENUE (60' R/W)   S87%%d35'30"W
50
0.0
0
LINE
8
ROW_STREET
10
1107.6694
20
-1825.0667
30
0.0
11
1637.2013
21
-1802.7956
31
0.0
0
LINE
8
ROW_STREET
10
1110.1907
20
-1885.0137
30
0.0
11
1639.7226
21
-1862.7426
31
0.0
0
TEXT
8
ROW_STREET
7
STANDARD
10
1373.6960
20
-1843.9046
30
0.0
40
10.0
1
SALVADORE AVENUE (60' R/W)   S87%%d35'30"W
50
0.0
0
POINT
8
CONTROL
10
187.4048
20
-172.2772
30
0.0
0
TEXT
8
CONTROL
7
STANDARD
10
187.4048
20
-154.2772
30
0.0
40
11.0
1
GROUND GPS TIE: Starfish Ave & Mangrove Ave (30.292130%%d N, -81.530280%%d W) [Zero Fudging]
50
0.0
0
TEXT
8
TITLEBLOCK
7
STANDARD
10
0.0000
20
250.0000
30
0.0
40
12.0
1
BEACHWOOD UNIT TWO -- PLAT BOOK 30, PAGES 82 & 82A, DUVAL COUNTY, FL (1960)
50
0.0
0
TEXT
8
TITLEBLOCK
7
STANDARD
10
0.0000
20
222.0000
30
0.0
40
8.5
1
Beach Boulevard Estates, Inc.  |  Simmerson, Bell & Akel  |  Scale 1"=100'
50
0.0
0
TEXT
8
TITLEBLOCK
7
STANDARD
10
0.0000
20
194.0000
30
0.0
40
8.5
1
COMPLETE SUBDIVISION: 204 AUTONOMOUS AGENT LOT TRAVERSES (BLOCKS 18-10 + TRACT A)
50
0.0
0
TEXT
8
TITLEBLOCK
7
STANDARD
10
0.0000
20
166.0000
30
0.0
40
8.5
1

50
0.0
0
TEXT
8
TITLEBLOCK
7
STANDARD
10
0.0000
20
138.0000
30
0.0
40
8.5
1
AUDIT SUMMARY: 204 of 204 lots certified closed (precision >= 1:10,000)
50
0.0
0
TEXT
8
TITLEBLOCK
7
STANDARD
10
0.0000
20
110.0000
30
0.0
40
8.5
1
STANDARD LOT AREA: 7,500.0 SF (75.00' x 100.00') | END LOTS: 7,484 SF to 13,105 SF
50
0.0
0
TEXT
8
TITLEBLOCK
7
STANDARD
10
0.0000
20
82.0000
30
0.0
40
8.5
1
CURVES SOLVED: Marina Ave R=389.27' (C6-C8), Beachwood Blvd R=1959.86' (C2)
50
0.0
0
TEXT
8
TITLEBLOCK
7
STANDARD
10
0.0000
20
54.0000
30
0.0
40
8.5
1
NATURAL PHYSICAL GPS TIE: 30.292130 N, -81.530280 W (Zero Artificial Offset Fudging)
50
0.0
0
ENDSEC
0
EOF
