0
SECTION
2
HEADER
9
$ACADVER
1
AC1009
9
$DWGCODEPAGE
3
ANSI_1252
0
ENDSEC
0
SECTION
2
TABLES
0
TABLE
2
LTYPE
70
19
0
LTYPE
2
CONTINUOUS
70
0
3
Solid
72
65
73
0
40
0.0
0
LTYPE
2
DASHED
70
0
3
Dashed
72
65
73
2
40
0.75
49
0.5
74
0
49
-0.25
74
0
0
LTYPE
2
DASHED2
70
0
3
Dashed (.5x)
72
65
73
2
40
0.375
49
0.25
74
0
49
-0.125
74
0
0
LTYPE
2
HIDDEN
70
0
3
Hidden
72
65
73
2
40
0.375
49
0.25
74
0
49
-0.125
74
0
0
LTYPE
2
CENTER
70
0
3
Center
72
65
73
4
40
2.0
49
1.25
74
0
49
-0.25
74
0
49
0.25
74
0
49
-0.25
74
0
0
LTYPE
2
PHANTOM
70
0
3
Phantom
72
65
73
6
40
2.5
49
1.25
74
0
49
-0.25
74
0
49
0.25
74
0
49
-0.25
74
0
49
0.25
74
0
49
-0.25
74
0
0
LTYPE
2
ROT_0.03
70
0
3
Solid
72
65
73
0
40
0.0
0
LTYPE
2
ROT_1.03
70
0
3
Solid
72
65
73
0
40
0.0
0
LTYPE
2
ROT_2.41
70
0
3
Solid
72
65
73
0
40
0.0
0
LTYPE
2
ROT_270.70
70
0
3
Solid
72
65
73
0
40
0.0
0
LTYPE
2
ROT_271.02
70
0
3
Solid
72
65
73
0
40
0.0
0
LTYPE
2
ROT_271.03
70
0
3
Solid
72
65
73
0
40
0.0
0
LTYPE
2
ROT_272.41
70
0
3
Solid
72
65
73
0
40
0.0
0
LTYPE
2
ROT_316.04
70
0
3
Solid
72
65
73
0
40
0.0
0
LTYPE
2
ROT_316.55
70
0
3
Solid
72
65
73
0
40
0.0
0
LTYPE
2
ROT_46.03
70
0
3
Solid
72
65
73
0
40
0.0
0
LTYPE
2
ROT_46.56
70
0
3
Solid
72
65
73
0
40
0.0
0
LTYPE
2
ROT_46.72
70
0
3
Solid
72
65
73
0
40
0.0
0
LTYPE
2
ROT_88.00
70
0
3
Solid
72
65
73
0
40
0.0
0
ENDTAB
0
TABLE
2
LAYER
70
6
0
LAYER
2
0
70
0
62
7
6
CONTINUOUS
0
LAYER
2
LOT_POLYLINE
70
0
62
4
6
CONTINUOUS
0
LAYER
2
SHEET_LABELS
70
0
62
7
6
CONTINUOUS
0
LAYER
2
SHEET_FRAME
70
0
62
2
6
CONTINUOUS
0
LAYER
2
ERROR
70
0
62
1
6
CONTINUOUS
0
LAYER
2
TITLEBLOCK
70
0
62
2
6
CONTINUOUS
0
ENDTAB
0
TABLE
2
STYLE
70
4
0
STYLE
2
STANDARD
70
0
40
0.0
41
1.0
50
0.0
71
0
42
0.2
3
Arial
4

0
STYLE
2
ARIAL
70
0
40
0.0
41
1.0
50
0.0
71
0
42
0.2
3
Arial
4

0
STYLE
2
ARIAL_TTF
70
0
40
0.0
41
1.0
50
0.0
71
0
42
0.2
3
arial.ttf
4

0
STYLE
2
SIMPLEX
70
0
40
0.0
41
1.0
50
0.0
71
0
42
0.2
3
simplex.shx
4

0
ENDTAB
0
ENDSEC
0
SECTION
2
ENTITIES
0
LINE
8
SHEET_FRAME
10
0.0000
20
0.0000
30
0.0
11
300.0000
21
0.0000
31
0.0
0
LINE
8
SHEET_FRAME
10
300.0000
20
0.0000
30
0.0
11
300.0000
21
260.0000
31
0.0
0
LINE
8
SHEET_FRAME
10
300.0000
20
260.0000
30
0.0
11
0.0000
21
260.0000
31
0.0
0
LINE
8
SHEET_FRAME
10
0.0000
20
260.0000
30
0.0
11
0.0000
21
0.0000
31
0.0
0
POLYLINE
8
LOT_POLYLINE
66
1
70
1
0
VERTEX
8
LOT_POLYLINE
10
26.0000
20
195.9351
30
0.0
0
VERTEX
8
LOT_POLYLINE
10
252.5802
20
200.0000
30
0.0
0
VERTEX
8
LOT_POLYLINE
10
255.6288
20
30.0649
30
0.0
0
VERTEX
8
LOT_POLYLINE
10
29.0486
20
26.0000
30
0.0
0
SEQEND
0
TEXT
8
SHEET_LABELS
6
ROT_1.03
7
STANDARD
10
139.3439
20
194.9681
30
0.0
40
3.4
1
N88%%d58'20.00"E
50
1.03
0
TEXT
8
SHEET_LABELS
6
ROT_1.03
7
STANDARD
10
139.2363
20
200.9671
30
0.0
40
3.2
1
100.00'
50
1.03
0
POINT
8
SHEET_LABELS
10
26.0000
20
195.9351
30
0.0
0
TEXT
8
SHEET_LABELS
6
ROT_271.03
7
STANDARD
10
257.1040
20
115.0862
30
0.0
40
3.4
1
S01%%d01'40.00"E
50
271.03
0
TEXT
8
SHEET_LABELS
6
ROT_271.03
7
STANDARD
10
251.1050
20
114.9786
30
0.0
40
3.2
1
75.00'
50
271.03
0
POINT
8
SHEET_LABELS
10
252.5802
20
200.0000
30
0.0
0
TEXT
8
SHEET_LABELS
6
ROT_1.03
7
STANDARD
10
142.3925
20
25.0329
30
0.0
40
3.4
1
S88%%d58'20.00"W
50
1.03
0
TEXT
8
SHEET_LABELS
6
ROT_1.03
7
STANDARD
10
142.2849
20
31.0319
30
0.0
40
3.2
1
100.00'
50
1.03
0
POINT
8
SHEET_LABELS
10
255.6288
20
30.0649
30
0.0
0
TEXT
8
SHEET_LABELS
6
ROT_271.03
7
STANDARD
10
30.5238
20
111.0214
30
0.0
40
3.4
1
N01%%d01'40.00"W
50
271.03
0
TEXT
8
SHEET_LABELS
6
ROT_271.03
7
STANDARD
10
24.5248
20
110.9138
30
0.0
40
3.2
1
75.00'
50
271.03
0
POINT
8
SHEET_LABELS
10
29.0486
20
26.0000
30
0.0
0
TEXT
8
SHEET_LABELS
7
STANDARD
10
8.0000
20
250.0000
30
0.0
40
8.0
1
LOT 14-7   PASS
50
0.0
0
TEXT
8
SHEET_LABELS
7
STANDARD
10
8.0000
20
239.0000
30
0.0
40
4.6
1
AREA 7,500 SF (0.172 ac)
50
0.0
0
TEXT
8
SHEET_LABELS
7
STANDARD
10
8.0000
20
232.0000
30
0.0
40
4.0
1
PERIMETER 350.00'   VERTICES 4   CLOSING SIDE 0.00'
50
0.0
0
TEXT
8
SHEET_LABELS
7
STANDARD
10
8.0000
20
225.0000
30
0.0
40
3.4
1
all geometric checks passed: closed single polyline, no self-intersection, no overlap, no spikes
50
0.0
0
LINE
8
SHEET_FRAME
10
340.0000
20
0.0000
30
0.0
11
640.0000
21
0.0000
31
0.0
0
LINE
8
SHEET_FRAME
10
640.0000
20
0.0000
30
0.0
11
640.0000
21
260.0000
31
0.0
0
LINE
8
SHEET_FRAME
10
640.0000
20
260.0000
30
0.0
11
340.0000
21
260.0000
31
0.0
0
LINE
8
SHEET_FRAME
10
340.0000
20
260.0000
30
0.0
11
340.0000
21
0.0000
31
0.0
0
POLYLINE
8
LOT_POLYLINE
66
1
70
1
0
VERTEX
8
LOT_POLYLINE
10
366.0000
20
195.9351
30
0.0
0
VERTEX
8
LOT_POLYLINE
10
592.5802
20
200.0000
30
0.0
0
VERTEX
8
LOT_POLYLINE
10
595.6288
20
30.0649
30
0.0
0
VERTEX
8
LOT_POLYLINE
10
369.0486
20
26.0000
30
0.0
0
SEQEND
0
TEXT
8
SHEET_LABELS
6
ROT_1.03
7
STANDARD
10
479.3439
20
194.9681
30
0.0
40
3.4
1
N88%%d58'20.00"E
50
1.03
0
TEXT
8
SHEET_LABELS
6
ROT_1.03
7
STANDARD
10
479.2363
20
200.9671
30
0.0
40
3.2
1
100.00'
50
1.03
0
POINT
8
SHEET_LABELS
10
366.0000
20
195.9351
30
0.0
0
TEXT
8
SHEET_LABELS
6
ROT_271.03
7
STANDARD
10
597.1040
20
115.0862
30
0.0
40
3.4
1
S01%%d01'40.00"E
50
271.03
0
TEXT
8
SHEET_LABELS
6
ROT_271.03
7
STANDARD
10
591.1050
20
114.9786
30
0.0
40
3.2
1
75.00'
50
271.03
0
POINT
8
SHEET_LABELS
10
592.5802
20
200.0000
30
0.0
0
TEXT
8
SHEET_LABELS
6
ROT_1.03
7
STANDARD
10
482.3925
20
25.0329
30
0.0
40
3.4
1
S88%%d58'20.00"W
50
1.03
0
TEXT
8
SHEET_LABELS
6
ROT_1.03
7
STANDARD
10
482.2849
20
31.0319
30
0.0
40
3.2
1
100.00'
50
1.03
0
POINT
8
SHEET_LABELS
10
595.6288
20
30.0649
30
0.0
0
TEXT
8
SHEET_LABELS
6
ROT_271.03
7
STANDARD
10
370.5238
20
111.0214
30
0.0
40
3.4
1
N01%%d01'40.00"W
50
271.03
0
TEXT
8
SHEET_LABELS
6
ROT_271.03
7
STANDARD
10
364.5248
20
110.9138
30
0.0
40
3.2
1
75.00'
50
271.03
0
POINT
8
SHEET_LABELS
10
369.0486
20
26.0000
30
0.0
0
TEXT
8
SHEET_LABELS
7
STANDARD
10
348.0000
20
250.0000
30
0.0
40
8.0
1
LOT 14-8   PASS
50
0.0
0
TEXT
8
SHEET_LABELS
7
STANDARD
10
348.0000
20
239.0000
30
0.0
40
4.6
1
AREA 7,500 SF (0.172 ac)
50
0.0
0
TEXT
8
SHEET_LABELS
7
STANDARD
10
348.0000
20
232.0000
30
0.0
40
4.0
1
PERIMETER 350.00'   VERTICES 4   CLOSING SIDE 0.00'
50
0.0
0
TEXT
8
SHEET_LABELS
7
STANDARD
10
348.0000
20
225.0000
30
0.0
40
3.4
1
all geometric checks passed: closed single polyline, no self-intersection, no overlap, no spikes
50
0.0
0
LINE
8
SHEET_FRAME
10
680.0000
20
0.0000
30
0.0
11
980.0000
21
0.0000
31
0.0
0
LINE
8
SHEET_FRAME
10
980.0000
20
0.0000
30
0.0
11
980.0000
21
260.0000
31
0.0
0
LINE
8
SHEET_FRAME
10
980.0000
20
260.0000
30
0.0
11
680.0000
21
260.0000
31
0.0
0
LINE
8
SHEET_FRAME
10
680.0000
20
260.0000
30
0.0
11
680.0000
21
0.0000
31
0.0
0
POLYLINE
8
LOT_POLYLINE
66
1
70
1
0
VERTEX
8
LOT_POLYLINE
10
706.0000
20
195.9351
30
0.0
0
VERTEX
8
LOT_POLYLINE
10
932.5802
20
200.0000
30
0.0
0
VERTEX
8
LOT_POLYLINE
10
935.6288
20
30.0649
30
0.0
0
VERTEX
8
LOT_POLYLINE
10
709.0486
20
26.0000
30
0.0
0
SEQEND
0
TEXT
8
SHEET_LABELS
6
ROT_1.03
7
STANDARD
10
819.3439
20
194.9681
30
0.0
40
3.4
1
N88%%d58'20.00"E
50
1.03
0
TEXT
8
SHEET_LABELS
6
ROT_1.03
7
STANDARD
10
819.2363
20
200.9671
30
0.0
40
3.2
1
100.00'
50
1.03
0
POINT
8
SHEET_LABELS
10
706.0000
20
195.9351
30
0.0
0
TEXT
8
SHEET_LABELS
6
ROT_271.03
7
STANDARD
10
937.1040
20
115.0862
30
0.0
40
3.4
1
S01%%d01'40.00"E
50
271.03
0
TEXT
8
SHEET_LABELS
6
ROT_271.03
7
STANDARD
10
931.1050
20
114.9786
30
0.0
40
3.2
1
75.00'
50
271.03
0
POINT
8
SHEET_LABELS
10
932.5802
20
200.0000
30
0.0
0
TEXT
8
SHEET_LABELS
6
ROT_1.03
7
STANDARD
10
822.3925
20
25.0329
30
0.0
40
3.4
1
S88%%d58'20.00"W
50
1.03
0
TEXT
8
SHEET_LABELS
6
ROT_1.03
7
STANDARD
10
822.2849
20
31.0319
30
0.0
40
3.2
1
100.00'
50
1.03
0
POINT
8
SHEET_LABELS
10
935.6288
20
30.0649
30
0.0
0
TEXT
8
SHEET_LABELS
6
ROT_271.03
7
STANDARD
10
710.5238
20
111.0214
30
0.0
40
3.4
1
N01%%d01'40.00"W
50
271.03
0
TEXT
8
SHEET_LABELS
6
ROT_271.03
7
STANDARD
10
704.5248
20
110.9138
30
0.0
40
3.2
1
75.00'
50
271.03
0
POINT
8
SHEET_LABELS
10
709.0486
20
26.0000
30
0.0
0
TEXT
8
SHEET_LABELS
7
STANDARD
10
688.0000
20
250.0000
30
0.0
40
8.0
1
LOT 14-9   PASS
50
0.0
0
TEXT
8
SHEET_LABELS
7
STANDARD
10
688.0000
20
239.0000
30
0.0
40
4.6
1
AREA 7,500 SF (0.172 ac)
50
0.0
0
TEXT
8
SHEET_LABELS
7
STANDARD
10
688.0000
20
232.0000
30
0.0
40
4.0
1
PERIMETER 350.00'   VERTICES 4   CLOSING SIDE 0.00'
50
0.0
0
TEXT
8
SHEET_LABELS
7
STANDARD
10
688.0000
20
225.0000
30
0.0
40
3.4
1
all geometric checks passed: closed single polyline, no self-intersection, no overlap, no spikes
50
0.0
0
LINE
8
SHEET_FRAME
10
1020.0000
20
0.0000
30
0.0
11
1320.0000
21
0.0000
31
0.0
0
LINE
8
SHEET_FRAME
10
1320.0000
20
0.0000
30
0.0
11
1320.0000
21
260.0000
31
0.0
0
LINE
8
SHEET_FRAME
10
1320.0000
20
260.0000
30
0.0
11
1020.0000
21
260.0000
31
0.0
0
LINE
8
SHEET_FRAME
10
1020.0000
20
260.0000
30
0.0
11
1020.0000
21
0.0000
31
0.0
0
POLYLINE
8
LOT_POLYLINE
66
1
70
1
0
VERTEX
8
LOT_POLYLINE
10
1046.0000
20
195.9351
30
0.0
0
VERTEX
8
LOT_POLYLINE
10
1272.5802
20
200.0000
30
0.0
0
VERTEX
8
LOT_POLYLINE
10
1275.6288
20
30.0649
30
0.0
0
VERTEX
8
LOT_POLYLINE
10
1049.0486
20
26.0000
30
0.0
0
SEQEND
0
TEXT
8
SHEET_LABELS
6
ROT_1.03
7
STANDARD
10
1159.3439
20
194.9681
30
0.0
40
3.4
1
N88%%d58'20.00"E
50
1.03
0
TEXT
8
SHEET_LABELS
6
ROT_1.03
7
STANDARD
10
1159.2363
20
200.9671
30
0.0
40
3.2
1
100.00'
50
1.03
0
POINT
8
SHEET_LABELS
10
1046.0000
20
195.9351
30
0.0
0
TEXT
8
SHEET_LABELS
6
ROT_271.03
7
STANDARD
10
1277.1040
20
115.0862
30
0.0
40
3.4
1
S01%%d01'40.00"E
50
271.03
0
TEXT
8
SHEET_LABELS
6
ROT_271.03
7
STANDARD
10
1271.1050
20
114.9786
30
0.0
40
3.2
1
75.00'
50
271.03
0
POINT
8
SHEET_LABELS
10
1272.5802
20
200.0000
30
0.0
0
TEXT
8
SHEET_LABELS
6
ROT_1.03
7
STANDARD
10
1162.3925
20
25.0329
30
0.0
40
3.4
1
S88%%d58'20.00"W
50
1.03
0
TEXT
8
SHEET_LABELS
6
ROT_1.03
7
STANDARD
10
1162.2849
20
31.0319
30
0.0
40
3.2
1
100.00'
50
1.03
0
POINT
8
SHEET_LABELS
10
1275.6288
20
30.0649
30
0.0
0
TEXT
8
SHEET_LABELS
6
ROT_271.03
7
STANDARD
10
1050.5238
20
111.0214
30
0.0
40
3.4
1
N01%%d01'40.00"W
50
271.03
0
TEXT
8
SHEET_LABELS
6
ROT_271.03
7
STANDARD
10
1044.5248
20
110.9138
30
0.0
40
3.2
1
75.00'
50
271.03
0
POINT
8
SHEET_LABELS
10
1049.0486
20
26.0000
30
0.0
0
TEXT
8
SHEET_LABELS
7
STANDARD
10
1028.0000
20
250.0000
30
0.0
40
8.0
1
LOT 14-10   PASS
50
0.0
0
TEXT
8
SHEET_LABELS
7
STANDARD
10
1028.0000
20
239.0000
30
0.0
40
4.6
1
AREA 7,500 SF (0.172 ac)
50
0.0
0
TEXT
8
SHEET_LABELS
7
STANDARD
10
1028.0000
20
232.0000
30
0.0
40
4.0
1
PERIMETER 350.00'   VERTICES 4   CLOSING SIDE 0.00'
50
0.0
0
TEXT
8
SHEET_LABELS
7
STANDARD
10
1028.0000
20
225.0000
30
0.0
40
3.4
1
all geometric checks passed: closed single polyline, no self-intersection, no overlap, no spikes
50
0.0
0
LINE
8
SHEET_FRAME
10
0.0000
20
-300.0000
30
0.0
11
300.0000
21
-300.0000
31
0.0
0
LINE
8
SHEET_FRAME
10
300.0000
20
-300.0000
30
0.0
11
300.0000
21
-40.0000
31
0.0
0
LINE
8
SHEET_FRAME
10
300.0000
20
-40.0000
30
0.0
11
0.0000
21
-40.0000
31
0.0
0
LINE
8
SHEET_FRAME
10
0.0000
20
-40.0000
30
0.0
11
0.0000
21
-300.0000
31
0.0
0
POLYLINE
8
LOT_POLYLINE
66
1
70
1
0
VERTEX
8
LOT_POLYLINE
10
26.0000
20
-175.5068
30
0.0
0
VERTEX
8
LOT_POLYLINE
10
272.2330
20
-171.0894
30
0.0
0
VERTEX
8
LOT_POLYLINE
10
274.0000
20
-269.5826
30
0.0
0
VERTEX
8
LOT_POLYLINE
10
27.7670
20
-274.0000
30
0.0
0
SEQEND
0
TEXT
8
SHEET_LABELS
6
ROT_1.03
7
STANDARD
10
149.1703
20
-176.2976
30
0.0
40
3.4
1
N88%%d58'20.00"E
50
1.03
0
TEXT
8
SHEET_LABELS
6
ROT_1.03
7
STANDARD
10
149.0627
20
-170.2986
30
0.0
40
3.2
1
100.00'
50
1.03
0
POINT
8
SHEET_LABELS
10
26.0000
20
-175.5068
30
0.0
0
TEXT
8
SHEET_LABELS
6
ROT_271.03
7
STANDARD
10
276.1160
20
-220.2822
30
0.0
40
3.4
1
S01%%d01'40.00"E
50
271.03
0
TEXT
8
SHEET_LABELS
6
ROT_271.03
7
STANDARD
10
270.1170
20
-220.3898
30
0.0
40
3.2
1
40.00'
50
271.03
0
POINT
8
SHEET_LABELS
10
272.2330
20
-171.0894
30
0.0
0
TEXT
8
SHEET_LABELS
6
ROT_1.03
7
STANDARD
10
150.9373
20
-274.7908
30
0.0
40
3.4
1
S88%%d58'20.00"W
50
1.03
0
TEXT
8
SHEET_LABELS
6
ROT_1.03
7
STANDARD
10
150.8297
20
-268.7918
30
0.0
40
3.2
1
100.00'
50
1.03
0
POINT
8
SHEET_LABELS
10
274.0000
20
-269.5826
30
0.0
0
TEXT
8
SHEET_LABELS
6
ROT_271.03
7
STANDARD
10
29.8830
20
-224.6996
30
0.0
40
3.4
1
N01%%d01'40.00"W
50
271.03
0
TEXT
8
SHEET_LABELS
6
ROT_271.03
7
STANDARD
10
23.8840
20
-224.8072
30
0.0
40
3.2
1
40.00'
50
271.03
0
POINT
8
SHEET_LABELS
10
27.7670
20
-274.0000
30
0.0
0
TEXT
8
SHEET_LABELS
7
STANDARD
10
8.0000
20
-50.0000
30
0.0
40
8.0
1
LOT 14-Tract A   PASS
50
0.0
0
TEXT
8
SHEET_LABELS
7
STANDARD
10
8.0000
20
-61.0000
30
0.0
40
4.6
1
AREA 4,000 SF (0.092 ac)
50
0.0
0
TEXT
8
SHEET_LABELS
7
STANDARD
10
8.0000
20
-68.0000
30
0.0
40
4.0
1
PERIMETER 280.00'   VERTICES 4   CLOSING SIDE 0.00'
50
0.0
0
TEXT
8
SHEET_LABELS
7
STANDARD
10
8.0000
20
-75.0000
30
0.0
40
3.4
1
all geometric checks passed: closed single polyline, no self-intersection, no overlap, no spikes
50
0.0
0
LINE
8
SHEET_FRAME
10
340.0000
20
-300.0000
30
0.0
11
640.0000
21
-300.0000
31
0.0
0
LINE
8
SHEET_FRAME
10
640.0000
20
-300.0000
30
0.0
11
640.0000
21
-40.0000
31
0.0
0
LINE
8
SHEET_FRAME
10
640.0000
20
-40.0000
30
0.0
11
340.0000
21
-40.0000
31
0.0
0
LINE
8
SHEET_FRAME
10
340.0000
20
-40.0000
30
0.0
11
340.0000
21
-300.0000
31
0.0
0
POLYLINE
8
LOT_POLYLINE
66
1
70
1
0
VERTEX
8
LOT_POLYLINE
10
366.0000
20
-175.5068
30
0.0
0
VERTEX
8
LOT_POLYLINE
10
612.2330
20
-171.0894
30
0.0
0
VERTEX
8
LOT_POLYLINE
10
614.0000
20
-269.5826
30
0.0
0
VERTEX
8
LOT_POLYLINE
10
367.7670
20
-274.0000
30
0.0
0
SEQEND
0
TEXT
8
SHEET_LABELS
6
ROT_1.03
7
STANDARD
10
489.1703
20
-176.2976
30
0.0
40
3.4
1
N88%%d58'20.00"E
50
1.03
0
TEXT
8
SHEET_LABELS
6
ROT_1.03
7
STANDARD
10
489.0627
20
-170.2986
30
0.0
40
3.2
1
100.00'
50
1.03
0
POINT
8
SHEET_LABELS
10
366.0000
20
-175.5068
30
0.0
0
TEXT
8
SHEET_LABELS
6
ROT_271.03
7
STANDARD
10
616.1160
20
-220.2822
30
0.0
40
3.4
1
S01%%d01'40.00"E
50
271.03
0
TEXT
8
SHEET_LABELS
6
ROT_271.03
7
STANDARD
10
610.1170
20
-220.3898
30
0.0
40
3.2
1
40.00'
50
271.03
0
POINT
8
SHEET_LABELS
10
612.2330
20
-171.0894
30
0.0
0
TEXT
8
SHEET_LABELS
6
ROT_1.03
7
STANDARD
10
490.9373
20
-274.7908
30
0.0
40
3.4
1
S88%%d58'20.00"W
50
1.03
0
TEXT
8
SHEET_LABELS
6
ROT_1.03
7
STANDARD
10
490.8297
20
-268.7918
30
0.0
40
3.2
1
100.00'
50
1.03
0
POINT
8
SHEET_LABELS
10
614.0000
20
-269.5826
30
0.0
0
TEXT
8
SHEET_LABELS
6
ROT_271.03
7
STANDARD
10
369.8830
20
-224.6996
30
0.0
40
3.4
1
N01%%d01'40.00"W
50
271.03
0
TEXT
8
SHEET_LABELS
6
ROT_271.03
7
STANDARD
10
363.8840
20
-224.8072
30
0.0
40
3.2
1
40.00'
50
271.03
0
POINT
8
SHEET_LABELS
10
367.7670
20
-274.0000
30
0.0
0
TEXT
8
SHEET_LABELS
7
STANDARD
10
348.0000
20
-50.0000
30
0.0
40
8.0
1
LOT 14-40' R/W   PASS
50
0.0
0
TEXT
8
SHEET_LABELS
7
STANDARD
10
348.0000
20
-61.0000
30
0.0
40
4.6
1
AREA 4,000 SF (0.092 ac)
50
0.0
0
TEXT
8
SHEET_LABELS
7
STANDARD
10
348.0000
20
-68.0000
30
0.0
40
4.0
1
PERIMETER 280.00'   VERTICES 4   CLOSING SIDE 0.00'
50
0.0
0
TEXT
8
SHEET_LABELS
7
STANDARD
10
348.0000
20
-75.0000
30
0.0
40
3.4
1
all geometric checks passed: closed single polyline, no self-intersection, no overlap, no spikes
50
0.0
0
LINE
8
SHEET_FRAME
10
680.0000
20
-300.0000
30
0.0
11
980.0000
21
-300.0000
31
0.0
0
LINE
8
SHEET_FRAME
10
980.0000
20
-300.0000
30
0.0
11
980.0000
21
-40.0000
31
0.0
0
LINE
8
SHEET_FRAME
10
980.0000
20
-40.0000
30
0.0
11
680.0000
21
-40.0000
31
0.0
0
LINE
8
SHEET_FRAME
10
680.0000
20
-40.0000
30
0.0
11
680.0000
21
-300.0000
31
0.0
0
POLYLINE
8
LOT_POLYLINE
66
1
70
1
0
VERTEX
8
LOT_POLYLINE
10
706.0000
20
-103.0666
30
0.0
0
VERTEX
8
LOT_POLYLINE
10
876.9335
20
-100.0000
30
0.0
0
VERTEX
8
LOT_POLYLINE
10
879.2334
20
-228.2001
30
0.0
0
VERTEX
8
LOT_POLYLINE
10
837.2667
20
-271.7001
30
0.0
0
VERTEX
8
LOT_POLYLINE
10
709.0666
20
-274.0000
30
0.0
0
SEQEND
0
POLYLINE
8
LOT_POLYLINE
66
1
70
0
0
VERTEX
8
LOT_POLYLINE
10
879.2334
20
-228.2001
30
0.0
0
VERTEX
8
LOT_POLYLINE
10
879.1028
20
-232.3924
30
0.0
0
VERTEX
8
LOT_POLYLINE
10
878.5619
20
-236.5517
30
0.0
0
VERTEX
8
LOT_POLYLINE
10
877.6159
20
-240.6380
30
0.0
0
VERTEX
8
LOT_POLYLINE
10
876.2739
20
-244.6118
30
0.0
0
VERTEX
8
LOT_POLYLINE
10
874.5489
20
-248.4350
30
0.0
0
VERTEX
8
LOT_POLYLINE
10
872.4575
20
-252.0707
30
0.0
0
VERTEX
8
LOT_POLYLINE
10
870.0197
20
-255.4839
30
0.0
0
VERTEX
8
LOT_POLYLINE
10
867.2592
20
-258.6417
30
0.0
0
VERTEX
8
LOT_POLYLINE
10
864.2024
20
-261.5137
30
0.0
0
VERTEX
8
LOT_POLYLINE
10
860.8789
20
-264.0723
30
0.0
0
VERTEX
8
LOT_POLYLINE
10
857.3205
20
-266.2928
30
0.0
0
VERTEX
8
LOT_POLYLINE
10
853.5617
20
-268.1539
30
0.0
0
VERTEX
8
LOT_POLYLINE
10
849.6385
20
-269.6375
30
0.0
0
VERTEX
8
LOT_POLYLINE
10
845.5888
20
-270.7295
30
0.0
0
VERTEX
8
LOT_POLYLINE
10
841.4516
20
-271.4192
30
0.0
0
VERTEX
8
LOT_POLYLINE
10
837.2667
20
-271.7001
30
0.0
0
SEQEND
0
TEXT
8
SHEET_LABELS
6
ROT_1.03
7
STANDARD
10
791.5206
20
-104.5328
30
0.0
40
3.4
1
N88%%d58'20.00"E
50
1.03
0
TEXT
8
SHEET_LABELS
6
ROT_1.03
7
STANDARD
10
791.4129
20
-98.5338
30
0.0
40
3.2
1
100.00'
50
1.03
0
POINT
8
SHEET_LABELS
10
706.0000
20
-103.0666
30
0.0
0
TEXT
8
SHEET_LABELS
6
ROT_271.03
7
STANDARD
10
881.0830
20
-164.0462
30
0.0
40
3.4
1
S01%%d01'40.00"E
50
271.03
0
TEXT
8
SHEET_LABELS
6
ROT_271.03
7
STANDARD
10
875.0839
20
-164.1539
30
0.0
40
3.2
1
75.00'
50
271.03
0
POINT
8
SHEET_LABELS
10
876.9335
20
-100.0000
30
0.0
0
TEXT
8
SHEET_LABELS
6
ROT_46.03
7
STANDARD
10
860.4091
20
-252.0330
30
0.0
40
3.4
1
S43%%d58'20.00"W
50
46.03
0
TEXT
8
SHEET_LABELS
6
ROT_46.03
7
STANDARD
10
856.0910
20
-247.8672
30
0.0
40
3.2
1
35.36'
50
46.03
0
POINT
8
SHEET_LABELS
10
879.2334
20
-228.2001
30
0.0
0
TEXT
8
SHEET_LABELS
6
ROT_1.03
7
STANDARD
10
773.2205
20
-275.8496
30
0.0
40
3.4
1
S88%%d58'20.00"W
50
1.03
0
TEXT
8
SHEET_LABELS
6
ROT_1.03
7
STANDARD
10
773.1128
20
-269.8505
30
0.0
40
3.2
1
75.00'
50
1.03
0
POINT
8
SHEET_LABELS
10
837.2667
20
-271.7001
30
0.0
0
TEXT
8
SHEET_LABELS
6
ROT_271.03
7
STANDARD
10
710.5328
20
-188.4795
30
0.0
40
3.4
1
N01%%d01'40.06"W
50
271.03
0
TEXT
8
SHEET_LABELS
6
ROT_271.03
7
STANDARD
10
704.5338
20
-188.5871
30
0.0
40
3.2
1
100.00'
50
271.03
0
POINT
8
SHEET_LABELS
10
709.0666
20
-274.0000
30
0.0
0
TEXT
8
SHEET_LABELS
7
STANDARD
10
688.0000
20
-50.0000
30
0.0
40
8.0
1
LOT 14-11   PASS
50
0.0
0
TEXT
8
SHEET_LABELS
7
STANDARD
10
688.0000
20
-61.0000
30
0.0
40
4.6
1
AREA 9,866 SF (0.226 ac)
50
0.0
0
TEXT
8
SHEET_LABELS
7
STANDARD
10
688.0000
20
-68.0000
30
0.0
40
4.0
1
PERIMETER 385.36'   VERTICES 5   CLOSING SIDE 0.00'
50
0.0
0
TEXT
8
SHEET_LABELS
7
STANDARD
10
688.0000
20
-75.0000
30
0.0
40
3.4
1
all geometric checks passed: closed single polyline, no self-intersection, no overlap, no spikes
50
0.0
0
LINE
8
SHEET_FRAME
10
1020.0000
20
-300.0000
30
0.0
11
1320.0000
21
-300.0000
31
0.0
0
LINE
8
SHEET_FRAME
10
1320.0000
20
-300.0000
30
0.0
11
1320.0000
21
-40.0000
31
0.0
0
LINE
8
SHEET_FRAME
10
1320.0000
20
-40.0000
30
0.0
11
1020.0000
21
-40.0000
31
0.0
0
LINE
8
SHEET_FRAME
10
1020.0000
20
-40.0000
30
0.0
11
1020.0000
21
-300.0000
31
0.0
0
POLYLINE
8
LOT_POLYLINE
66
1
70
1
0
VERTEX
8
LOT_POLYLINE
10
1046.0000
20
-104.9917
30
0.0
0
VERTEX
8
LOT_POLYLINE
10
1164.6856
20
-100.0000
30
0.0
0
VERTEX
8
LOT_POLYLINE
10
1208.7510
20
-141.7404
30
0.0
0
VERTEX
8
LOT_POLYLINE
10
1210.2770
20
-267.3898
30
0.0
0
VERTEX
8
LOT_POLYLINE
10
1053.1088
20
-274.0000
30
0.0
0
SEQEND
0
POLYLINE
8
LOT_POLYLINE
66
1
70
0
0
VERTEX
8
LOT_POLYLINE
10
1164.6856
20
-100.0000
30
0.0
0
VERTEX
8
LOT_POLYLINE
10
1168.9146
20
-100.0338
30
0.0
0
VERTEX
8
LOT_POLYLINE
10
1173.1192
20
-100.4898
30
0.0
0
VERTEX
8
LOT_POLYLINE
10
1177.2571
20
-101.3634
30
0.0
0
VERTEX
8
LOT_POLYLINE
10
1181.2871
20
-102.6460
30
0.0
0
VERTEX
8
LOT_POLYLINE
10
1185.1689
20
-104.3246
30
0.0
0
VERTEX
8
LOT_POLYLINE
10
1188.8636
20
-106.3826
30
0.0
0
VERTEX
8
LOT_POLYLINE
10
1192.3343
20
-108.7993
30
0.0
0
VERTEX
8
LOT_POLYLINE
10
1195.5463
20
-111.5505
30
0.0
0
VERTEX
8
LOT_POLYLINE
10
1198.4674
20
-114.6088
30
0.0
0
VERTEX
8
LOT_POLYLINE
10
1201.0685
20
-117.9435
30
0.0
0
VERTEX
8
LOT_POLYLINE
10
1203.3235
20
-121.5213
30
0.0
0
VERTEX
8
LOT_POLYLINE
10
1205.2099
20
-125.3065
30
0.0
0
VERTEX
8
LOT_POLYLINE
10
1206.7088
20
-129.2612
30
0.0
0
VERTEX
8
LOT_POLYLINE
10
1207.8052
20
-133.3458
30
0.0
0
VERTEX
8
LOT_POLYLINE
10
1208.4882
20
-137.5194
30
0.0
0
VERTEX
8
LOT_POLYLINE
10
1208.7510
20
-141.7404
30
0.0
0
SEQEND
0
TEXT
8
SHEET_LABELS
6
ROT_2.41
7
STANDARD
10
1105.4689
20
-105.4932
30
0.0
40
3.4
1
N87%%d35'30.00"E
50
2.41
0
TEXT
8
SHEET_LABELS
6
ROT_2.41
7
STANDARD
10
1105.2167
20
-99.4985
30
0.0
40
3.2
1
70.22'
50
2.41
0
POINT
8
SHEET_LABELS
10
1046.0000
20
-104.9917
30
0.0
0
TEXT
8
SHEET_LABELS
6
ROT_316.55
7
STANDARD
10
1188.7814
20
-118.6922
30
0.0
40
3.4
1
S46%%d33'07.50"E
50
316.55
0
TEXT
8
SHEET_LABELS
6
ROT_316.55
7
STANDARD
10
1184.6552
20
-123.0482
30
0.0
40
3.2
1
35.88'
50
316.55
0
POINT
8
SHEET_LABELS
10
1164.6856
20
-100.0000
30
0.0
0
TEXT
8
SHEET_LABELS
6
ROT_270.70
7
STANDARD
10
1212.5138
20
-204.5287
30
0.0
40
3.4
1
S00%%d41'45.00"E
50
270.7
0
TEXT
8
SHEET_LABELS
6
ROT_270.70
7
STANDARD
10
1206.5142
20
-204.6016
30
0.0
40
3.2
1
74.28'
50
270.7
0
POINT
8
SHEET_LABELS
10
1208.7510
20
-141.7404
30
0.0
0
TEXT
8
SHEET_LABELS
6
ROT_2.41
7
STANDARD
10
1131.8190
20
-273.6923
30
0.0
40
3.4
1
S87%%d35'30.00"W
50
2.41
0
TEXT
8
SHEET_LABELS
6
ROT_2.41
7
STANDARD
10
1131.5668
20
-267.6976
30
0.0
40
3.2
1
92.99'
50
2.41
0
POINT
8
SHEET_LABELS
10
1210.2770
20
-267.3898
30
0.0
0
TEXT
8
SHEET_LABELS
6
ROT_272.41
7
STANDARD
10
1052.5518
20
-189.3698
30
0.0
40
3.4
1
N02%%d24'30.77"W
50
272.41
0
TEXT
8
SHEET_LABELS
6
ROT_272.41
7
STANDARD
10
1046.5571
20
-189.6219
30
0.0
40
3.2
1
100.00'
50
272.41
0
POINT
8
SHEET_LABELS
10
1053.1088
20
-274.0000
30
0.0
0
TEXT
8
SHEET_LABELS
7
STANDARD
10
1028.0000
20
-50.0000
30
0.0
40
8.0
1
LOT 15-9   PASS
50
0.0
0
TEXT
8
SHEET_LABELS
7
STANDARD
10
1028.0000
20
-61.0000
30
0.0
40
4.6
1
AREA 9,304 SF (0.214 ac)
50
0.0
0
TEXT
8
SHEET_LABELS
7
STANDARD
10
1028.0000
20
-68.0000
30
0.0
40
4.0
1
PERIMETER 373.37'   VERTICES 5   CLOSING SIDE 0.00'
50
0.0
0
TEXT
8
SHEET_LABELS
7
STANDARD
10
1028.0000
20
-75.0000
30
0.0
40
3.4
1
all geometric checks passed: closed single polyline, no self-intersection, no overlap, no spikes
50
0.0
0
LINE
8
SHEET_FRAME
10
0.0000
20
-600.0000
30
0.0
11
300.0000
21
-600.0000
31
0.0
0
LINE
8
SHEET_FRAME
10
300.0000
20
-600.0000
30
0.0
11
300.0000
21
-340.0000
31
0.0
0
LINE
8
SHEET_FRAME
10
300.0000
20
-340.0000
30
0.0
11
0.0000
21
-340.0000
31
0.0
0
LINE
8
SHEET_FRAME
10
0.0000
20
-340.0000
30
0.0
11
0.0000
21
-600.0000
31
0.0
0
POLYLINE
8
LOT_POLYLINE
66
1
70
1
0
VERTEX
8
LOT_POLYLINE
10
26.0000
20
-406.5490
30
0.0
0
VERTEX
8
LOT_POLYLINE
10
181.7127
20
-400.0000
30
0.0
0
VERTEX
8
LOT_POLYLINE
10
183.2550
20
-526.9910
30
0.0
0
VERTEX
8
LOT_POLYLINE
10
143.1188
20
-569.3704
30
0.0
0
VERTEX
8
LOT_POLYLINE
10
33.0427
20
-574.0000
30
0.0
0
SEQEND
0
POLYLINE
8
LOT_POLYLINE
66
1
70
0
0
VERTEX
8
LOT_POLYLINE
10
183.2550
20
-526.9910
30
0.0
0
VERTEX
8
LOT_POLYLINE
10
183.1102
20
-531.0221
30
0.0
0
VERTEX
8
LOT_POLYLINE
10
182.5784
20
-535.0205
30
0.0
0
VERTEX
8
LOT_POLYLINE
10
181.6645
20
-538.9493
30
0.0
0
VERTEX
8
LOT_POLYLINE
10
180.3772
20
-542.7720
30
0.0
0
VERTEX
8
LOT_POLYLINE
10
178.7282
20
-546.4532
30
0.0
0
VERTEX
8
LOT_POLYLINE
10
176.7328
20
-549.9588
30
0.0
0
VERTEX
8
LOT_POLYLINE
10
174.4097
20
-553.2563
30
0.0
0
VERTEX
8
LOT_POLYLINE
10
171.7802
20
-556.3151
30
0.0
0
VERTEX
8
LOT_POLYLINE
10
168.8688
20
-559.1069
30
0.0
0
VERTEX
8
LOT_POLYLINE
10
165.7024
20
-561.6058
30
0.0
0
VERTEX
8
LOT_POLYLINE
10
162.3104
20
-563.7886
30
0.0
0
VERTEX
8
LOT_POLYLINE
10
158.7242
20
-565.6352
30
0.0
0
VERTEX
8
LOT_POLYLINE
10
154.9770
20
-567.1284
30
0.0
0
VERTEX
8
LOT_POLYLINE
10
151.1037
20
-568.2543
30
0.0
0
VERTEX
8
LOT_POLYLINE
10
147.1400
20
-569.0025
30
0.0
0
VERTEX
8
LOT_POLYLINE
10
143.1228
20
-569.3662
30
0.0
0
SEQEND
0
TEXT
8
SHEET_LABELS
6
ROT_2.41
7
STANDARD
10
103.9824
20
-406.2718
30
0.0
40
3.4
1
N87%%d35'30.00"E
50
2.41
0
TEXT
8
SHEET_LABELS
6
ROT_2.41
7
STANDARD
10
103.7303
20
-400.2771
30
0.0
40
3.2
1
92.99'
50
2.41
0
POINT
8
SHEET_LABELS
10
26.0000
20
-406.5490
30
0.0
0
TEXT
8
SHEET_LABELS
6
ROT_270.70
7
STANDARD
10
185.4836
20
-463.4591
30
0.0
40
3.4
1
S00%%d41'45.00"E
50
270.7
0
TEXT
8
SHEET_LABELS
6
ROT_270.70
7
STANDARD
10
179.4841
20
-463.5319
30
0.0
40
3.2
1
75.78'
50
270.7
0
POINT
8
SHEET_LABELS
10
181.7127
20
-400.0000
30
0.0
0
TEXT
8
SHEET_LABELS
6
ROT_46.56
7
STANDARD
10
165.3651
20
-550.2436
30
0.0
40
3.4
1
S43%%d26'34.14"W
50
46.56
0
TEXT
8
SHEET_LABELS
6
ROT_46.56
7
STANDARD
10
161.0087
20
-546.1178
30
0.0
40
3.2
1
34.83'
50
46.56
0
POINT
8
SHEET_LABELS
10
183.2550
20
-526.9910
30
0.0
0
TEXT
8
SHEET_LABELS
6
ROT_2.41
7
STANDARD
10
88.2068
20
-574.6826
30
0.0
40
3.4
1
S87%%d35'30.00"W
50
2.41
0
TEXT
8
SHEET_LABELS
6
ROT_2.41
7
STANDARD
10
87.9547
20
-568.6879
30
0.0
40
3.2
1
65.74'
50
2.41
0
POINT
8
SHEET_LABELS
10
143.1188
20
-569.3704
30
0.0
0
TEXT
8
SHEET_LABELS
6
ROT_272.41
7
STANDARD
10
32.5187
20
-490.1484
30
0.0
40
3.4
1
N02%%d24'30.00"W
50
272.41
0
TEXT
8
SHEET_LABELS
6
ROT_272.41
7
STANDARD
10
26.5240
20
-490.4006
30
0.0
40
3.2
1
100.00'
50
272.41
0
POINT
8
SHEET_LABELS
10
33.0427
20
-574.0000
30
0.0
0
TEXT
8
SHEET_LABELS
7
STANDARD
10
8.0000
20
-350.0000
30
0.0
40
8.0
1
LOT 15-10   PASS
50
0.0
0
TEXT
8
SHEET_LABELS
7
STANDARD
10
8.0000
20
-361.0000
30
0.0
40
4.6
1
AREA 9,024 SF (0.207 ac)
50
0.0
0
TEXT
8
SHEET_LABELS
7
STANDARD
10
8.0000
20
-368.0000
30
0.0
40
4.0
1
PERIMETER 369.33'   VERTICES 5   CLOSING SIDE 0.00'
50
0.0
0
TEXT
8
SHEET_LABELS
7
STANDARD
10
8.0000
20
-375.0000
30
0.0
40
3.4
1
all geometric checks passed: closed single polyline, no self-intersection, no overlap, no spikes
50
0.0
0
LINE
8
SHEET_FRAME
10
340.0000
20
-600.0000
30
0.0
11
640.0000
21
-600.0000
31
0.0
0
LINE
8
SHEET_FRAME
10
640.0000
20
-600.0000
30
0.0
11
640.0000
21
-340.0000
31
0.0
0
LINE
8
SHEET_FRAME
10
640.0000
20
-340.0000
30
0.0
11
340.0000
21
-340.0000
31
0.0
0
LINE
8
SHEET_FRAME
10
340.0000
20
-340.0000
30
0.0
11
340.0000
21
-600.0000
31
0.0
0
POLYLINE
8
LOT_POLYLINE
66
1
70
1
0
VERTEX
8
LOT_POLYLINE
10
405.7102
20
-405.2630
30
0.0
0
VERTEX
8
LOT_POLYLINE
10
530.8476
20
-400.0000
30
0.0
0
VERTEX
8
LOT_POLYLINE
10
538.0371
20
-570.9419
30
0.0
0
VERTEX
8
LOT_POLYLINE
10
368.2707
20
-574.0000
30
0.0
0
VERTEX
8
LOT_POLYLINE
10
366.0000
20
-447.4291
30
0.0
0
SEQEND
0
POLYLINE
8
LOT_POLYLINE
66
1
70
0
0
VERTEX
8
LOT_POLYLINE
10
366.0000
20
-447.4291
30
0.0
0
VERTEX
8
LOT_POLYLINE
10
366.1218
20
-443.4248
30
0.0
0
VERTEX
8
LOT_POLYLINE
10
366.6294
20
-439.4508
30
0.0
0
VERTEX
8
LOT_POLYLINE
10
367.5183
20
-435.5445
30
0.0
0
VERTEX
8
LOT_POLYLINE
10
368.7801
20
-431.7421
30
0.0
0
VERTEX
8
LOT_POLYLINE
10
370.4029
20
-428.0793
30
0.0
0
VERTEX
8
LOT_POLYLINE
10
372.3718
20
-424.5902
30
0.0
0
VERTEX
8
LOT_POLYLINE
10
374.6681
20
-421.3075
30
0.0
0
VERTEX
8
LOT_POLYLINE
10
377.2706
20
-418.2617
30
0.0
0
VERTEX
8
LOT_POLYLINE
10
380.1550
20
-415.4813
30
0.0
0
VERTEX
8
LOT_POLYLINE
10
383.2942
20
-412.9923
30
0.0
0
VERTEX
8
LOT_POLYLINE
10
386.6590
20
-410.8179
30
0.0
0
VERTEX
8
LOT_POLYLINE
10
390.2180
20
-408.9784
30
0.0
0
VERTEX
8
LOT_POLYLINE
10
393.9378
20
-407.4910
30
0.0
0
VERTEX
8
LOT_POLYLINE
10
397.7839
20
-406.3696
30
0.0
0
VERTEX
8
LOT_POLYLINE
10
401.7203
20
-405.6247
30
0.0
0
VERTEX
8
LOT_POLYLINE
10
405.7102
20
-405.2631
30
0.0
0
SEQEND
0
TEXT
8
SHEET_LABELS
6
ROT_2.41
7
STANDARD
10
468.4050
20
-405.6289
30
0.0
40
3.4
1
N87%%d35'30.00"E
50
2.41
0
TEXT
8
SHEET_LABELS
6
ROT_2.41
7
STANDARD
10
468.1528
20
-399.6342
30
0.0
40
3.2
1
75.53'
50
2.41
0
POINT
8
SHEET_LABELS
10
405.7102
20
-405.2630
30
0.0
0
TEXT
8
SHEET_LABELS
6
ROT_272.41
7
STANDARD
10
537.4397
20
-485.3449
30
0.0
40
3.4
1
S02%%d24'30.00"E
50
272.41
0
TEXT
8
SHEET_LABELS
6
ROT_272.41
7
STANDARD
10
531.4450
20
-485.5970
30
0.0
40
3.2
1
103.17'
50
272.41
0
POINT
8
SHEET_LABELS
10
530.8476
20
-400.0000
30
0.0
0
TEXT
8
SHEET_LABELS
6
ROT_1.03
7
STANDARD
10
453.2079
20
-575.4704
30
0.0
40
3.4
1
S88%%d58'04.79"W
50
1.03
0
TEXT
8
SHEET_LABELS
6
ROT_1.03
7
STANDARD
10
453.0998
20
-569.4714
30
0.0
40
3.2
1
102.39'
50
1.03
0
POINT
8
SHEET_LABELS
10
538.0371
20
-570.9419
30
0.0
0
TEXT
8
SHEET_LABELS
6
ROT_271.03
7
STANDARD
10
370.1349
20
-510.6608
30
0.0
40
3.4
1
N01%%d01'40.00"W
50
271.03
0
TEXT
8
SHEET_LABELS
6
ROT_271.03
7
STANDARD
10
364.1358
20
-510.7684
30
0.0
40
3.2
1
76.34'
50
271.03
0
POINT
8
SHEET_LABELS
10
368.2707
20
-574.0000
30
0.0
0
TEXT
8
SHEET_LABELS
6
ROT_46.72
7
STANDARD
10
388.0391
20
-428.4029
30
0.0
40
3.4
1
N43%%d16'55.00"E
50
46.72
0
TEXT
8
SHEET_LABELS
6
ROT_46.72
7
STANDARD
10
383.6712
20
-424.2893
30
0.0
40
3.2
1
34.93'
50
46.72
0
POINT
8
SHEET_LABELS
10
366.0000
20
-447.4291
30
0.0
0
TEXT
8
SHEET_LABELS
7
STANDARD
10
348.0000
20
-350.0000
30
0.0
40
8.0
1
LOT 14-24   PASS
50
0.0
0
TEXT
8
SHEET_LABELS
7
STANDARD
10
348.0000
20
-361.0000
30
0.0
40
4.6
1
AREA 10,185 SF (0.234 ac)
50
0.0
0
TEXT
8
SHEET_LABELS
7
STANDARD
10
348.0000
20
-368.0000
30
0.0
40
4.0
1
PERIMETER 392.34'   VERTICES 5   CLOSING SIDE 0.00'
50
0.0
0
TEXT
8
SHEET_LABELS
7
STANDARD
10
348.0000
20
-375.0000
30
0.0
40
3.4
1
all geometric checks passed: closed single polyline, no self-intersection, no overlap, no spikes
50
0.0
0
LINE
8
SHEET_FRAME
10
680.0000
20
-600.0000
30
0.0
11
980.0000
21
-600.0000
31
0.0
0
LINE
8
SHEET_FRAME
10
980.0000
20
-600.0000
30
0.0
11
980.0000
21
-340.0000
31
0.0
0
LINE
8
SHEET_FRAME
10
980.0000
20
-340.0000
30
0.0
11
680.0000
21
-340.0000
31
0.0
0
LINE
8
SHEET_FRAME
10
680.0000
20
-340.0000
30
0.0
11
680.0000
21
-600.0000
31
0.0
0
POLYLINE
8
LOT_POLYLINE
66
1
70
1
0
VERTEX
8
LOT_POLYLINE
10
706.0000
20
-403.1650
30
0.0
0
VERTEX
8
LOT_POLYLINE
10
881.6998
20
-400.0000
30
0.0
0
VERTEX
8
LOT_POLYLINE
10
875.6768
20
-572.2923
30
0.0
0
VERTEX
8
LOT_POLYLINE
10
846.3621
20
-572.3065
30
0.0
0
VERTEX
8
LOT_POLYLINE
10
751.9658
20
-574.0000
30
0.0
0
VERTEX
8
LOT_POLYLINE
10
708.2953
20
-531.8825
30
0.0
0
SEQEND
0
POLYLINE
8
LOT_POLYLINE
66
1
70
0
0
VERTEX
8
LOT_POLYLINE
10
751.9658
20
-574.0000
30
0.0
0
VERTEX
8
LOT_POLYLINE
10
747.7579
20
-573.8689
30
0.0
0
VERTEX
8
LOT_POLYLINE
10
743.5831
20
-573.3261
30
0.0
0
VERTEX
8
LOT_POLYLINE
10
739.4816
20
-572.3768
30
0.0
0
VERTEX
8
LOT_POLYLINE
10
735.4929
20
-571.0302
30
0.0
0
VERTEX
8
LOT_POLYLINE
10
731.6553
20
-569.2991
30
0.0
0
VERTEX
8
LOT_POLYLINE
10
728.0059
20
-567.2003
30
0.0
0
VERTEX
8
LOT_POLYLINE
10
724.5797
20
-564.7539
30
0.0
0
VERTEX
8
LOT_POLYLINE
10
721.4097
20
-561.9836
30
0.0
0
VERTEX
8
LOT_POLYLINE
10
718.5265
20
-558.9160
30
0.0
0
VERTEX
8
LOT_POLYLINE
10
715.9577
20
-555.5806
30
0.0
0
VERTEX
8
LOT_POLYLINE
10
713.7282
20
-552.0095
30
0.0
0
VERTEX
8
LOT_POLYLINE
10
711.8594
20
-548.2371
30
0.0
0
VERTEX
8
LOT_POLYLINE
10
710.3692
20
-544.2997
30
0.0
0
VERTEX
8
LOT_POLYLINE
10
709.2721
20
-540.2353
30
0.0
0
VERTEX
8
LOT_POLYLINE
10
708.5786
20
-536.0829
30
0.0
0
VERTEX
8
LOT_POLYLINE
10
708.2953
20
-531.8825
30
0.0
0
SEQEND
0
TEXT
8
SHEET_LABELS
6
ROT_1.03
7
STANDARD
10
793.9039
20
-404.5820
30
0.0
40
3.4
1
N88%%d58'04.79"E
50
1.03
0
TEXT
8
SHEET_LABELS
6
ROT_1.03
7
STANDARD
10
793.7958
20
-398.5830
30
0.0
40
3.2
1
102.39'
50
1.03
0
POINT
8
SHEET_LABELS
10
706.0000
20
-403.1650
30
0.0
0
TEXT
8
SHEET_LABELS
6
ROT_88.00
7
STANDARD
10
881.6865
20
-486.2510
30
0.0
40
3.4
1
S02%%d00'07.59"W
50
88.0
0
TEXT
8
SHEET_LABELS
6
ROT_88.00
7
STANDARD
10
875.6901
20
-486.0413
30
0.0
40
3.2
1
100.45'
50
88.0
0
POINT
8
SHEET_LABELS
10
881.6998
20
-400.0000
30
0.0
0
TEXT
8
SHEET_LABELS
6
ROT_0.03
7
STANDARD
10
861.0209
20
-575.2994
30
0.0
40
3.4
1
S89%%d58'20.00"W
50
0.03
0
TEXT
8
SHEET_LABELS
6
ROT_0.03
7
STANDARD
10
861.0180
20
-569.2994
30
0.0
40
3.2
1
17.08'
50
0.03
0
POINT
8
SHEET_LABELS
10
875.6768
20
-572.2923
30
0.0
0
TEXT
8
SHEET_LABELS
6
ROT_1.03
7
STANDARD
10
799.2177
20
-576.1528
30
0.0
40
3.4
1
S88%%d58'20.00"W
50
1.03
0
TEXT
8
SHEET_LABELS
6
ROT_1.03
7
STANDARD
10
799.1101
20
-570.1537
30
0.0
40
3.2
1
55.01'
50
1.03
0
POINT
8
SHEET_LABELS
10
846.3621
20
-572.3065
30
0.0
0
TEXT
8
SHEET_LABELS
6
ROT_316.04
7
STANDARD
10
732.2131
20
-550.7819
30
0.0
40
3.4
1
N46%%d02'13.50"W
50
316.04
0
TEXT
8
SHEET_LABELS
6
ROT_316.04
7
STANDARD
10
728.0479
20
-555.1006
30
0.0
40
3.2
1
35.35'
50
316.04
0
POINT
8
SHEET_LABELS
10
751.9658
20
-574.0000
30
0.0
0
TEXT
8
SHEET_LABELS
6
ROT_271.02
7
STANDARD
10
710.1472
20
-467.4703
30
0.0
40
3.4
1
N01%%d01'17.68"W
50
271.02
0
TEXT
8
SHEET_LABELS
6
ROT_271.02
7
STANDARD
10
704.1481
20
-467.5772
30
0.0
40
3.2
1
75.01'
50
271.02
0
POINT
8
SHEET_LABELS
10
708.2953
20
-531.8825
30
0.0
0
TEXT
8
SHEET_LABELS
7
STANDARD
10
688.0000
20
-350.0000
30
0.0
40
8.0
1
LOT 14-23   PASS
50
0.0
0
TEXT
8
SHEET_LABELS
7
STANDARD
10
688.0000
20
-361.0000
30
0.0
40
4.6
1
AREA 9,843 SF (0.226 ac)
50
0.0
0
TEXT
8
SHEET_LABELS
7
STANDARD
10
688.0000
20
-368.0000
30
0.0
40
4.0
1
PERIMETER 385.28'   VERTICES 6   CLOSING SIDE 0.00'
50
0.0
0
TEXT
8
SHEET_LABELS
7
STANDARD
10
688.0000
20
-375.0000
30
0.0
40
3.4
1
all geometric checks passed: closed single polyline, no self-intersection, no overlap, no spikes
50
0.0
0
ENDSEC
0
EOF
