0
SECTION
2
HEADER
9
$ACADVER
1
AC1009
9
$DWGCODEPAGE
3
ANSI_1252
0
ENDSEC
0
SECTION
2
TABLES
0
TABLE
2
LTYPE
70
22
0
LTYPE
2
CONTINUOUS
70
0
3
Solid
72
65
73
0
40
0.0
0
LTYPE
2
DASHED
70
0
3
Dashed
72
65
73
2
40
0.75
49
0.5
74
0
49
-0.25
74
0
0
LTYPE
2
DASHED2
70
0
3
Dashed (.5x)
72
65
73
2
40
0.375
49
0.25
74
0
49
-0.125
74
0
0
LTYPE
2
HIDDEN
70
0
3
Hidden
72
65
73
2
40
0.375
49
0.25
74
0
49
-0.125
74
0
0
LTYPE
2
CENTER
70
0
3
Center
72
65
73
4
40
2.0
49
1.25
74
0
49
-0.25
74
0
49
0.25
74
0
49
-0.25
74
0
0
LTYPE
2
PHANTOM
70
0
3
Phantom
72
65
73
6
40
2.5
49
1.25
74
0
49
-0.25
74
0
49
0.25
74
0
49
-0.25
74
0
49
0.25
74
0
49
-0.25
74
0
0
LTYPE
2
ROT_-35.00
70
0
3
Solid
72
65
73
0
40
0.0
0
LTYPE
2
ROT_1.15
70
0
3
Solid
72
65
73
0
40
0.0
0
LTYPE
2
ROT_11.96
70
0
3
Solid
72
65
73
0
40
0.0
0
LTYPE
2
ROT_14.04
70
0
3
Solid
72
65
73
0
40
0.0
0
LTYPE
2
ROT_25.00
70
0
3
Solid
72
65
73
0
40
0.0
0
LTYPE
2
ROT_270.00
70
0
3
Solid
72
65
73
0
40
0.0
0
LTYPE
2
ROT_270.27
70
0
3
Solid
72
65
73
0
40
0.0
0
LTYPE
2
ROT_270.34
70
0
3
Solid
72
65
73
0
40
0.0
0
LTYPE
2
ROT_281.64
70
0
3
Solid
72
65
73
0
40
0.0
0
LTYPE
2
ROT_293.05
70
0
3
Solid
72
65
73
0
40
0.0
0
LTYPE
2
ROT_319.36
70
0
3
Solid
72
65
73
0
40
0.0
0
LTYPE
2
ROT_339.11
70
0
3
Solid
72
65
73
0
40
0.0
0
LTYPE
2
ROT_357.87
70
0
3
Solid
72
65
73
0
40
0.0
0
LTYPE
2
ROT_358.75
70
0
3
Solid
72
65
73
0
40
0.0
0
LTYPE
2
ROT_5.55
70
0
3
Solid
72
65
73
0
40
0.0
0
LTYPE
2
ROT_88.87
70
0
3
Solid
72
65
73
0
40
0.0
0
ENDTAB
0
TABLE
2
LAYER
70
8
0
LAYER
2
0
70
0
62
7
6
CONTINUOUS
0
LAYER
2
BOUNDARY
70
0
62
7
6
CONTINUOUS
0
LAYER
2
LOT_LINES
70
0
62
4
6
CONTINUOUS
0
LAYER
2
ROW_STREET
70
0
62
2
6
DASHED
0
LAYER
2
DIMENSIONS
70
0
62
7
6
CONTINUOUS
0
LAYER
2
LOT_NUMBERS
70
0
62
7
6
CONTINUOUS
0
LAYER
2
WATER_RIVER
70
0
62
5
6
CONTINUOUS
0
LAYER
2
CONTROL
70
0
62
1
6
CONTINUOUS
0
ENDTAB
0
TABLE
2
STYLE
70
4
0
STYLE
2
STANDARD
70
0
40
0.0
41
1.0
50
0.0
71
0
42
0.2
3
Arial
4

0
STYLE
2
ARIAL
70
0
40
0.0
41
1.0
50
0.0
71
0
42
0.2
3
Arial
4

0
STYLE
2
ARIAL_TTF
70
0
40
0.0
41
1.0
50
0.0
71
0
42
0.2
3
arial.ttf
4

0
STYLE
2
SIMPLEX
70
0
40
0.0
41
1.0
50
0.0
71
0
42
0.2
3
simplex.shx
4

0
ENDTAB
0
ENDSEC
0
SECTION
2
ENTITIES
0
LINE
8
BOUNDARY
10
530000.0000
20
2135000.0000
30
0.0
11
529998.9988
21
2134949.2444
31
0.0
0
LINE
8
BOUNDARY
10
530000.0000
20
2135000.0000
30
0.0
11
529998.9988
21
2134949.2444
31
0.0
0
TEXT
8
DIMENSIONS
6
ROT_88.87
7
STANDARD
10
530001.2991
20
2134974.5867
30
0.0
40
8.0
1
S00%%d27'00"W
50
88.87
0
TEXT
8
DIMENSIONS
6
ROT_88.87
7
STANDARD
10
529997.6998
20
2134974.6577
30
0.0
40
7.36
1
50.00'
50
88.87
0
LINE
8
BOUNDARY
10
530003.9992
20
2134999.9211
30
0.0
11
529996.0008
21
2135000.0789
31
0.0
0
LINE
8
BOUNDARY
10
530002.9980
20
2134949.1655
30
0.0
11
529994.9996
21
2134949.3233
31
0.0
0
LINE
8
BOUNDARY
10
529998.9988
20
2134949.2444
30
0.0
11
530579.3371
21
2134936.5884
31
0.0
0
LINE
8
BOUNDARY
10
529998.9988
20
2134949.2444
30
0.0
11
530579.3371
21
2134936.5884
31
0.0
0
TEXT
8
DIMENSIONS
6
ROT_358.75
7
STANDARD
10
530289.2072
20
2134944.7160
30
0.0
40
8.0
1
S89%%d38'00"E
50
358.75
0
TEXT
8
DIMENSIONS
6
ROT_358.75
7
STANDARD
10
530289.1287
20
2134941.1168
30
0.0
40
7.36
1
587.50'
50
358.75
0
LINE
8
BOUNDARY
10
529999.0860
20
2134953.2435
30
0.0
11
529998.9116
21
2134945.2454
31
0.0
0
LINE
8
BOUNDARY
10
530579.4244
20
2134940.5874
30
0.0
11
530579.2499
21
2134932.5893
31
0.0
0
LINE
8
BOUNDARY
10
530579.3371
20
2134936.5884
30
0.0
11
530577.6638
21
2135222.1910
31
0.0
0
LINE
8
BOUNDARY
10
530579.3371
20
2134936.5884
30
0.0
11
530577.6638
21
2135222.1910
31
0.0
0
TEXT
8
DIMENSIONS
6
ROT_270.34
7
STANDARD
10
530580.3004
20
2135079.4002
30
0.0
40
8.0
1
N00%%d22'00"E
50
270.34
0
TEXT
8
DIMENSIONS
6
ROT_270.34
7
STANDARD
10
530576.7005
20
2135079.3792
30
0.0
40
7.36
1
290.00'
50
270.34
0
LINE
8
BOUNDARY
10
530575.3372
20
2134936.5649
30
0.0
11
530583.3371
21
2134936.6118
31
0.0
0
LINE
8
BOUNDARY
10
530573.6639
20
2135222.1676
30
0.0
11
530581.6637
21
2135222.2145
31
0.0
0
LINE
8
BOUNDARY
10
530577.6638
20
2135222.1910
30
0.0
11
532009.1345
21
2135250.8384
31
0.0
0
LINE
8
BOUNDARY
10
530577.6638
20
2135222.1910
30
0.0
11
532009.1345
21
2135250.8384
31
0.0
0
TEXT
8
DIMENSIONS
6
ROT_1.15
7
STANDARD
10
531293.4352
20
2135234.7151
30
0.0
40
8.0
1
N88%%d00'00"E
50
1.15
0
TEXT
8
DIMENSIONS
6
ROT_1.15
7
STANDARD
10
531293.3632
20
2135238.3143
30
0.0
40
7.36
1
1450.00'
50
1.15
0
LINE
8
BOUNDARY
10
530577.5838
20
2135226.1902
30
0.0
11
530577.7438
21
2135218.1918
31
0.0
0
LINE
8
BOUNDARY
10
532009.0545
20
2135254.8376
30
0.0
11
532009.2146
21
2135246.8392
31
0.0
0
LINE
8
BOUNDARY
10
532009.1345
20
2135250.8384
30
0.0
11
532621.9445
21
2132276.5222
31
0.0
0
LINE
8
BOUNDARY
10
532009.1345
20
2135250.8384
30
0.0
11
532621.9445
21
2132276.5222
31
0.0
0
TEXT
8
DIMENSIONS
6
ROT_281.64
7
STANDARD
10
532317.3025
20
2133764.0435
30
0.0
40
8.0
1
S12%%d30'00"E
50
281.64
0
TEXT
8
DIMENSIONS
6
ROT_281.64
7
STANDARD
10
532313.7766
20
2133763.3171
30
0.0
40
7.36
1
3000.00'
50
281.64
0
LINE
8
BOUNDARY
10
532013.0523
20
2135251.6456
30
0.0
11
532005.2168
21
2135250.0312
31
0.0
0
LINE
8
BOUNDARY
10
532625.8622
20
2132277.3294
30
0.0
11
532618.0268
21
2132275.7150
31
0.0
0
LINE
8
BOUNDARY
10
532621.9445
20
2132276.5222
30
0.0
11
530806.2213
21
2132100.2106
31
0.0
0
LINE
8
BOUNDARY
10
532621.9445
20
2132276.5222
30
0.0
11
530806.2213
21
2132100.2106
31
0.0
0
TEXT
8
DIMENSIONS
6
ROT_5.55
7
STANDARD
10
531714.2569
20
2132186.5748
30
0.0
40
8.0
1
S85%%d15'00"W
50
5.55
0
TEXT
8
DIMENSIONS
6
ROT_5.55
7
STANDARD
10
531713.9089
20
2132190.1580
30
0.0
40
7.36
1
1800.00'
50
5.55
0
LINE
8
BOUNDARY
10
532622.3311
20
2132272.5409
30
0.0
11
532621.5579
21
2132280.5035
31
0.0
0
LINE
8
BOUNDARY
10
530806.6079
20
2132096.2293
30
0.0
11
530805.8347
21
2132104.1918
31
0.0
0
LINE
8
BOUNDARY
10
530806.2213
20
2132100.2106
30
0.0
11
528910.6538
21
2133727.0579
31
0.0
0
LINE
8
BOUNDARY
10
530806.2213
20
2132100.2106
30
0.0
11
528910.6538
21
2133727.0579
31
0.0
0
TEXT
8
DIMENSIONS
6
ROT_319.36
7
STANDARD
10
529859.6098
20
2132915.0002
30
0.0
40
8.0
1
N48%%d15'00"W
50
319.36
0
TEXT
8
DIMENSIONS
6
ROT_319.36
7
STANDARD
10
529857.2653
20
2132912.2683
30
0.0
40
7.36
1
2500.00'
50
319.36
0
LINE
8
BOUNDARY
10
530803.6162
20
2132097.1752
30
0.0
11
530808.8264
21
2132103.2459
31
0.0
0
LINE
8
BOUNDARY
10
528908.0487
20
2133724.0226
30
0.0
11
528913.2589
21
2133730.0933
31
0.0
0
LINE
8
BOUNDARY
10
528910.6538
20
2133727.0579
30
0.0
11
528903.2832
21
2135302.7838
31
0.0
0
LINE
8
BOUNDARY
10
528910.6538
20
2133727.0579
30
0.0
11
528903.2832
21
2135302.7838
31
0.0
0
TEXT
8
DIMENSIONS
6
ROT_270.27
7
STANDARD
10
528908.7685
20
2134514.9293
30
0.0
40
8.0
1
N00%%d26'00"E
50
270.27
0
TEXT
8
DIMENSIONS
6
ROT_270.27
7
STANDARD
10
528905.1685
20
2134514.9125
30
0.0
40
7.36
1
1600.00'
50
270.27
0
LINE
8
BOUNDARY
10
528906.6538
20
2133727.0392
30
0.0
11
528914.6537
21
2133727.0767
31
0.0
0
LINE
8
BOUNDARY
10
528899.2833
20
2135302.7651
30
0.0
11
528907.2832
21
2135302.8026
31
0.0
0
LINE
8
BOUNDARY
10
528903.2832
20
2135302.7838
30
0.0
11
529057.6449
21
2135297.0528
31
0.0
0
LINE
8
BOUNDARY
10
528903.2832
20
2135302.7838
30
0.0
11
529057.6449
21
2135297.0528
31
0.0
0
TEXT
8
DIMENSIONS
6
ROT_357.87
7
STANDARD
10
528980.5308
20
2135301.7171
30
0.0
40
8.0
1
S88%%d46'00"E
50
357.87
0
TEXT
8
DIMENSIONS
6
ROT_357.87
7
STANDARD
10
528980.3973
20
2135298.1196
30
0.0
40
7.36
1
156.30'
50
357.87
0
LINE
8
BOUNDARY
10
528903.4316
20
2135306.7811
30
0.0
11
528903.1348
21
2135298.7866
31
0.0
0
LINE
8
BOUNDARY
10
529057.7933
20
2135301.0501
30
0.0
11
529057.4965
21
2135293.0556
31
0.0
0
LINE
8
BOUNDARY
10
529057.6449
20
2135297.0528
30
0.0
11
529205.9286
21
2135240.4507
31
0.0
0
LINE
8
BOUNDARY
10
529057.6449
20
2135297.0528
30
0.0
11
529205.9286
21
2135240.4507
31
0.0
0
TEXT
8
DIMENSIONS
6
ROT_339.11
7
STANDARD
10
529132.4287
20
2135270.4334
30
0.0
40
8.0
1
S70%%d10'00"E
50
339.11
0
TEXT
8
DIMENSIONS
6
ROT_339.11
7
STANDARD
10
529131.1448
20
2135267.0701
30
0.0
40
7.36
1
159.70'
50
339.11
0
LINE
8
BOUNDARY
10
529059.0714
20
2135300.7898
30
0.0
11
529056.2184
21
2135293.3158
31
0.0
0
LINE
8
BOUNDARY
10
529207.3550
20
2135244.1877
30
0.0
11
529204.5021
21
2135236.7137
31
0.0
0
LINE
8
BOUNDARY
10
529205.9286
20
2135240.4507
30
0.0
11
529233.2299
21
2135176.2947
31
0.0
0
LINE
8
BOUNDARY
10
529205.9286
20
2135240.4507
30
0.0
11
529233.2299
21
2135176.2947
31
0.0
0
TEXT
8
DIMENSIONS
6
ROT_293.05
7
STANDARD
10
529221.2355
20
2135209.0775
30
0.0
40
8.0
1
S24%%d02'00"E
50
293.05
0
TEXT
8
DIMENSIONS
6
ROT_293.05
7
STANDARD
10
529217.9230
20
2135207.6679
30
0.0
40
7.36
1
69.10'
50
293.05
0
LINE
8
BOUNDARY
10
529209.6092
20
2135242.0169
30
0.0
11
529202.2480
21
2135238.8844
31
0.0
0
LINE
8
BOUNDARY
10
529236.9105
20
2135177.8610
30
0.0
11
529229.5493
21
2135174.7284
31
0.0
0
LINE
8
BOUNDARY
10
529233.2299
20
2135176.2947
30
0.0
11
529478.1936
21
2135237.5717
31
0.0
0
LINE
8
BOUNDARY
10
529233.2299
20
2135176.2947
30
0.0
11
529478.1936
21
2135237.5717
31
0.0
0
TEXT
8
DIMENSIONS
6
ROT_14.04
7
STANDARD
10
529356.1485
20
2135205.1870
30
0.0
40
8.0
1
N75%%d17'00"E
50
14.04
0
TEXT
8
DIMENSIONS
6
ROT_14.04
7
STANDARD
10
529355.2749
20
2135208.6794
30
0.0
40
7.36
1
256.50'
50
14.04
0
LINE
8
BOUNDARY
10
529232.2592
20
2135180.1751
30
0.0
11
529234.2006
21
2135172.4143
31
0.0
0
LINE
8
BOUNDARY
10
529477.2229
20
2135241.4521
30
0.0
11
529479.1643
21
2135233.6912
31
0.0
0
LINE
8
BOUNDARY
10
529478.1936
20
2135237.5717
30
0.0
11
529757.5101
21
2135296.7507
31
0.0
0
LINE
8
BOUNDARY
10
529478.1936
20
2135237.5717
30
0.0
11
529757.5101
21
2135296.7507
31
0.0
0
TEXT
8
DIMENSIONS
6
ROT_11.96
7
STANDARD
10
529618.2249
20
2135265.4003
30
0.0
40
8.0
1
N77%%d20'00"E
50
11.96
0
TEXT
8
DIMENSIONS
6
ROT_11.96
7
STANDARD
10
529617.4788
20
2135268.9221
30
0.0
40
7.36
1
289.90'
50
11.96
0
LINE
8
BOUNDARY
10
529477.3645
20
2135241.4848
30
0.0
11
529479.0227
21
2135233.6585
31
0.0
0
LINE
8
BOUNDARY
10
529756.6810
20
2135300.6638
30
0.0
11
529758.3392
21
2135292.8375
31
0.0
0
LINE
8
BOUNDARY
10
529757.5101
20
2135296.7507
30
0.0
11
530005.7468
21
2135291.3371
31
0.0
0
LINE
8
BOUNDARY
10
529757.5101
20
2135296.7507
30
0.0
11
530005.7468
21
2135291.3371
31
0.0
0
TEXT
8
DIMENSIONS
6
ROT_358.75
7
STANDARD
10
529881.6677
20
2135295.8435
30
0.0
40
8.0
1
S89%%d38'00"E
50
358.75
0
TEXT
8
DIMENSIONS
6
ROT_358.75
7
STANDARD
10
529881.5892
20
2135292.2443
30
0.0
40
7.36
1
251.30'
50
358.75
0
LINE
8
BOUNDARY
10
529757.5973
20
2135300.7497
30
0.0
11
529757.4229
21
2135292.7516
31
0.0
0
LINE
8
BOUNDARY
10
530005.8340
20
2135295.3362
30
0.0
11
530005.6595
21
2135287.3381
31
0.0
0
LINE
8
BOUNDARY
10
530005.7468
20
2135291.3371
30
0.0
11
530000.0000
21
2135000.0000
31
0.0
0
LINE
8
BOUNDARY
10
530005.7468
20
2135291.3371
30
0.0
11
530000.0000
21
2135000.0000
31
0.0
0
TEXT
8
DIMENSIONS
6
ROT_88.87
7
STANDARD
10
530004.6730
20
2135145.6331
30
0.0
40
8.0
1
S00%%d27'00"W
50
88.87
0
TEXT
8
DIMENSIONS
6
ROT_88.87
7
STANDARD
10
530001.0737
20
2135145.7041
30
0.0
40
7.36
1
287.00'
50
88.87
0
LINE
8
BOUNDARY
10
530009.7460
20
2135291.2582
30
0.0
11
530001.7475
21
2135291.4160
31
0.0
0
LINE
8
BOUNDARY
10
530003.9992
20
2134999.9211
30
0.0
11
529996.0008
21
2135000.0789
31
0.0
0
LINE
8
ROW_STREET
10
529900.0000
20
2134400.0000
30
0.0
11
532000.0000
21
2134400.0000
31
0.0
0
TEXT
8
ROW_STREET
7
STANDARD
10
530900.0000
20
2134394.0000
30
0.0
40
14.0
1
HOLLY POINT DRIVE
50
0.0
0
TEXT
8
ROW_STREET
7
STANDARD
10
530900.0000
20
2134406.0000
30
0.0
40
10.5
1
(60' RIGHT-OF-WAY)
50
0.0
0
LINE
8
ROW_STREET
10
530300.0000
20
2135100.0000
30
0.0
11
530300.0000
21
2133200.0000
31
0.0
0
TEXT
8
ROW_STREET
6
ROT_270.00
7
STANDARD
10
530306.0000
20
2134250.0000
30
0.0
40
14.0
1
RIVER ROAD
50
270.0
0
TEXT
8
ROW_STREET
6
ROT_270.00
7
STANDARD
10
530294.0000
20
2134250.0000
30
0.0
40
10.5
1
(60' RIGHT-OF-WAY)
50
270.0
0
POLYLINE
8
LOT_LINES
66
1
70
1
0
VERTEX
8
LOT_LINES
10
530330.0000
20
2134430.0000
30
0.0
0
VERTEX
8
LOT_LINES
10
530450.0000
20
2134430.0000
30
0.0
0
VERTEX
8
LOT_LINES
10
530450.0000
20
2134710.0000
30
0.0
0
VERTEX
8
LOT_LINES
10
530330.0000
20
2134710.0000
30
0.0
0
SEQEND
0
LINE
8
LOT_LINES
10
530330.0000
20
2134430.0000
30
0.0
11
530450.0000
21
2134430.0000
31
0.0
0
TEXT
8
DIMENSIONS
7
STANDARD
10
530390.0000
20
2134428.2000
30
0.0
40
4.0
1
EAST
50
0.0
0
TEXT
8
DIMENSIONS
7
STANDARD
10
530390.0000
20
2134431.8000
30
0.0
40
3.68
1
120.00'
50
0.0
0
LINE
8
LOT_LINES
10
530330.0000
20
2134432.0000
30
0.0
11
530330.0000
21
2134428.0000
31
0.0
0
LINE
8
LOT_LINES
10
530450.0000
20
2134432.0000
30
0.0
11
530450.0000
21
2134428.0000
31
0.0
0
TEXT
8
LOT_NUMBERS
7
STANDARD
10
530377.0000
20
2134566.0000
30
0.0
40
10.0
1
LOT 1
50
0.0
0
TEXT
8
DIMENSIONS
7
STANDARD
10
530377.0000
20
2134559.0000
30
0.0
40
4.5
1
33,600 SF
50
0.0
0
POLYLINE
8
LOT_LINES
66
1
70
1
0
VERTEX
8
LOT_LINES
10
530450.0000
20
2134430.0000
30
0.0
0
VERTEX
8
LOT_LINES
10
530570.0000
20
2134430.0000
30
0.0
0
VERTEX
8
LOT_LINES
10
530570.0000
20
2134710.0000
30
0.0
0
VERTEX
8
LOT_LINES
10
530450.0000
20
2134710.0000
30
0.0
0
SEQEND
0
LINE
8
LOT_LINES
10
530450.0000
20
2134430.0000
30
0.0
11
530570.0000
21
2134430.0000
31
0.0
0
TEXT
8
DIMENSIONS
7
STANDARD
10
530510.0000
20
2134428.2000
30
0.0
40
4.0
1
EAST
50
0.0
0
TEXT
8
DIMENSIONS
7
STANDARD
10
530510.0000
20
2134431.8000
30
0.0
40
3.68
1
120.00'
50
0.0
0
LINE
8
LOT_LINES
10
530450.0000
20
2134432.0000
30
0.0
11
530450.0000
21
2134428.0000
31
0.0
0
LINE
8
LOT_LINES
10
530570.0000
20
2134432.0000
30
0.0
11
530570.0000
21
2134428.0000
31
0.0
0
TEXT
8
LOT_NUMBERS
7
STANDARD
10
530497.0000
20
2134566.0000
30
0.0
40
10.0
1
LOT 2
50
0.0
0
TEXT
8
DIMENSIONS
7
STANDARD
10
530497.0000
20
2134559.0000
30
0.0
40
4.5
1
33,600 SF
50
0.0
0
POLYLINE
8
LOT_LINES
66
1
70
1
0
VERTEX
8
LOT_LINES
10
530570.0000
20
2134430.0000
30
0.0
0
VERTEX
8
LOT_LINES
10
530690.0000
20
2134430.0000
30
0.0
0
VERTEX
8
LOT_LINES
10
530690.0000
20
2134710.0000
30
0.0
0
VERTEX
8
LOT_LINES
10
530570.0000
20
2134710.0000
30
0.0
0
SEQEND
0
LINE
8
LOT_LINES
10
530570.0000
20
2134430.0000
30
0.0
11
530690.0000
21
2134430.0000
31
0.0
0
TEXT
8
DIMENSIONS
7
STANDARD
10
530630.0000
20
2134428.2000
30
0.0
40
4.0
1
EAST
50
0.0
0
TEXT
8
DIMENSIONS
7
STANDARD
10
530630.0000
20
2134431.8000
30
0.0
40
3.68
1
120.00'
50
0.0
0
LINE
8
LOT_LINES
10
530570.0000
20
2134432.0000
30
0.0
11
530570.0000
21
2134428.0000
31
0.0
0
LINE
8
LOT_LINES
10
530690.0000
20
2134432.0000
30
0.0
11
530690.0000
21
2134428.0000
31
0.0
0
TEXT
8
LOT_NUMBERS
7
STANDARD
10
530617.0000
20
2134566.0000
30
0.0
40
10.0
1
LOT 3
50
0.0
0
TEXT
8
DIMENSIONS
7
STANDARD
10
530617.0000
20
2134559.0000
30
0.0
40
4.5
1
33,600 SF
50
0.0
0
POLYLINE
8
LOT_LINES
66
1
70
1
0
VERTEX
8
LOT_LINES
10
530690.0000
20
2134430.0000
30
0.0
0
VERTEX
8
LOT_LINES
10
530810.0000
20
2134430.0000
30
0.0
0
VERTEX
8
LOT_LINES
10
530810.0000
20
2134710.0000
30
0.0
0
VERTEX
8
LOT_LINES
10
530690.0000
20
2134710.0000
30
0.0
0
SEQEND
0
LINE
8
LOT_LINES
10
530690.0000
20
2134430.0000
30
0.0
11
530810.0000
21
2134430.0000
31
0.0
0
TEXT
8
DIMENSIONS
7
STANDARD
10
530750.0000
20
2134428.2000
30
0.0
40
4.0
1
EAST
50
0.0
0
TEXT
8
DIMENSIONS
7
STANDARD
10
530750.0000
20
2134431.8000
30
0.0
40
3.68
1
120.00'
50
0.0
0
LINE
8
LOT_LINES
10
530690.0000
20
2134432.0000
30
0.0
11
530690.0000
21
2134428.0000
31
0.0
0
LINE
8
LOT_LINES
10
530810.0000
20
2134432.0000
30
0.0
11
530810.0000
21
2134428.0000
31
0.0
0
TEXT
8
LOT_NUMBERS
7
STANDARD
10
530737.0000
20
2134566.0000
30
0.0
40
10.0
1
LOT 4
50
0.0
0
TEXT
8
DIMENSIONS
7
STANDARD
10
530737.0000
20
2134559.0000
30
0.0
40
4.5
1
33,600 SF
50
0.0
0
POLYLINE
8
LOT_LINES
66
1
70
1
0
VERTEX
8
LOT_LINES
10
530810.0000
20
2134430.0000
30
0.0
0
VERTEX
8
LOT_LINES
10
530930.0000
20
2134430.0000
30
0.0
0
VERTEX
8
LOT_LINES
10
530930.0000
20
2134710.0000
30
0.0
0
VERTEX
8
LOT_LINES
10
530810.0000
20
2134710.0000
30
0.0
0
SEQEND
0
LINE
8
LOT_LINES
10
530810.0000
20
2134430.0000
30
0.0
11
530930.0000
21
2134430.0000
31
0.0
0
TEXT
8
DIMENSIONS
7
STANDARD
10
530870.0000
20
2134428.2000
30
0.0
40
4.0
1
EAST
50
0.0
0
TEXT
8
DIMENSIONS
7
STANDARD
10
530870.0000
20
2134431.8000
30
0.0
40
3.68
1
120.00'
50
0.0
0
LINE
8
LOT_LINES
10
530810.0000
20
2134432.0000
30
0.0
11
530810.0000
21
2134428.0000
31
0.0
0
LINE
8
LOT_LINES
10
530930.0000
20
2134432.0000
30
0.0
11
530930.0000
21
2134428.0000
31
0.0
0
TEXT
8
LOT_NUMBERS
7
STANDARD
10
530857.0000
20
2134566.0000
30
0.0
40
10.0
1
LOT 5
50
0.0
0
TEXT
8
DIMENSIONS
7
STANDARD
10
530857.0000
20
2134559.0000
30
0.0
40
4.5
1
33,600 SF
50
0.0
0
POLYLINE
8
LOT_LINES
66
1
70
1
0
VERTEX
8
LOT_LINES
10
530930.0000
20
2134430.0000
30
0.0
0
VERTEX
8
LOT_LINES
10
531050.0000
20
2134430.0000
30
0.0
0
VERTEX
8
LOT_LINES
10
531050.0000
20
2134710.0000
30
0.0
0
VERTEX
8
LOT_LINES
10
530930.0000
20
2134710.0000
30
0.0
0
SEQEND
0
LINE
8
LOT_LINES
10
530930.0000
20
2134430.0000
30
0.0
11
531050.0000
21
2134430.0000
31
0.0
0
TEXT
8
DIMENSIONS
7
STANDARD
10
530990.0000
20
2134428.2000
30
0.0
40
4.0
1
EAST
50
0.0
0
TEXT
8
DIMENSIONS
7
STANDARD
10
530990.0000
20
2134431.8000
30
0.0
40
3.68
1
120.00'
50
0.0
0
LINE
8
LOT_LINES
10
530930.0000
20
2134432.0000
30
0.0
11
530930.0000
21
2134428.0000
31
0.0
0
LINE
8
LOT_LINES
10
531050.0000
20
2134432.0000
30
0.0
11
531050.0000
21
2134428.0000
31
0.0
0
TEXT
8
LOT_NUMBERS
7
STANDARD
10
530977.0000
20
2134566.0000
30
0.0
40
10.0
1
LOT 6
50
0.0
0
TEXT
8
DIMENSIONS
7
STANDARD
10
530977.0000
20
2134559.0000
30
0.0
40
4.5
1
33,600 SF
50
0.0
0
POLYLINE
8
LOT_LINES
66
1
70
1
0
VERTEX
8
LOT_LINES
10
531050.0000
20
2134430.0000
30
0.0
0
VERTEX
8
LOT_LINES
10
531170.0000
20
2134430.0000
30
0.0
0
VERTEX
8
LOT_LINES
10
531170.0000
20
2134710.0000
30
0.0
0
VERTEX
8
LOT_LINES
10
531050.0000
20
2134710.0000
30
0.0
0
SEQEND
0
LINE
8
LOT_LINES
10
531050.0000
20
2134430.0000
30
0.0
11
531170.0000
21
2134430.0000
31
0.0
0
TEXT
8
DIMENSIONS
7
STANDARD
10
531110.0000
20
2134428.2000
30
0.0
40
4.0
1
EAST
50
0.0
0
TEXT
8
DIMENSIONS
7
STANDARD
10
531110.0000
20
2134431.8000
30
0.0
40
3.68
1
120.00'
50
0.0
0
LINE
8
LOT_LINES
10
531050.0000
20
2134432.0000
30
0.0
11
531050.0000
21
2134428.0000
31
0.0
0
LINE
8
LOT_LINES
10
531170.0000
20
2134432.0000
30
0.0
11
531170.0000
21
2134428.0000
31
0.0
0
TEXT
8
LOT_NUMBERS
7
STANDARD
10
531097.0000
20
2134566.0000
30
0.0
40
10.0
1
LOT 7
50
0.0
0
TEXT
8
DIMENSIONS
7
STANDARD
10
531097.0000
20
2134559.0000
30
0.0
40
4.5
1
33,600 SF
50
0.0
0
POLYLINE
8
LOT_LINES
66
1
70
1
0
VERTEX
8
LOT_LINES
10
531170.0000
20
2134430.0000
30
0.0
0
VERTEX
8
LOT_LINES
10
531290.0000
20
2134430.0000
30
0.0
0
VERTEX
8
LOT_LINES
10
531290.0000
20
2134710.0000
30
0.0
0
VERTEX
8
LOT_LINES
10
531170.0000
20
2134710.0000
30
0.0
0
SEQEND
0
LINE
8
LOT_LINES
10
531170.0000
20
2134430.0000
30
0.0
11
531290.0000
21
2134430.0000
31
0.0
0
TEXT
8
DIMENSIONS
7
STANDARD
10
531230.0000
20
2134428.2000
30
0.0
40
4.0
1
EAST
50
0.0
0
TEXT
8
DIMENSIONS
7
STANDARD
10
531230.0000
20
2134431.8000
30
0.0
40
3.68
1
120.00'
50
0.0
0
LINE
8
LOT_LINES
10
531170.0000
20
2134432.0000
30
0.0
11
531170.0000
21
2134428.0000
31
0.0
0
LINE
8
LOT_LINES
10
531290.0000
20
2134432.0000
30
0.0
11
531290.0000
21
2134428.0000
31
0.0
0
TEXT
8
LOT_NUMBERS
7
STANDARD
10
531217.0000
20
2134566.0000
30
0.0
40
10.0
1
LOT 8
50
0.0
0
TEXT
8
DIMENSIONS
7
STANDARD
10
531217.0000
20
2134559.0000
30
0.0
40
4.5
1
33,600 SF
50
0.0
0
POLYLINE
8
LOT_LINES
66
1
70
1
0
VERTEX
8
LOT_LINES
10
531290.0000
20
2134430.0000
30
0.0
0
VERTEX
8
LOT_LINES
10
531410.0000
20
2134430.0000
30
0.0
0
VERTEX
8
LOT_LINES
10
531410.0000
20
2134710.0000
30
0.0
0
VERTEX
8
LOT_LINES
10
531290.0000
20
2134710.0000
30
0.0
0
SEQEND
0
LINE
8
LOT_LINES
10
531290.0000
20
2134430.0000
30
0.0
11
531410.0000
21
2134430.0000
31
0.0
0
TEXT
8
DIMENSIONS
7
STANDARD
10
531350.0000
20
2134428.2000
30
0.0
40
4.0
1
EAST
50
0.0
0
TEXT
8
DIMENSIONS
7
STANDARD
10
531350.0000
20
2134431.8000
30
0.0
40
3.68
1
120.00'
50
0.0
0
LINE
8
LOT_LINES
10
531290.0000
20
2134432.0000
30
0.0
11
531290.0000
21
2134428.0000
31
0.0
0
LINE
8
LOT_LINES
10
531410.0000
20
2134432.0000
30
0.0
11
531410.0000
21
2134428.0000
31
0.0
0
TEXT
8
LOT_NUMBERS
7
STANDARD
10
531337.0000
20
2134566.0000
30
0.0
40
10.0
1
LOT 9
50
0.0
0
TEXT
8
DIMENSIONS
7
STANDARD
10
531337.0000
20
2134559.0000
30
0.0
40
4.5
1
33,600 SF
50
0.0
0
POLYLINE
8
LOT_LINES
66
1
70
1
0
VERTEX
8
LOT_LINES
10
531410.0000
20
2134430.0000
30
0.0
0
VERTEX
8
LOT_LINES
10
531530.0000
20
2134430.0000
30
0.0
0
VERTEX
8
LOT_LINES
10
531530.0000
20
2134710.0000
30
0.0
0
VERTEX
8
LOT_LINES
10
531410.0000
20
2134710.0000
30
0.0
0
SEQEND
0
LINE
8
LOT_LINES
10
531410.0000
20
2134430.0000
30
0.0
11
531530.0000
21
2134430.0000
31
0.0
0
TEXT
8
DIMENSIONS
7
STANDARD
10
531470.0000
20
2134428.2000
30
0.0
40
4.0
1
EAST
50
0.0
0
TEXT
8
DIMENSIONS
7
STANDARD
10
531470.0000
20
2134431.8000
30
0.0
40
3.68
1
120.00'
50
0.0
0
LINE
8
LOT_LINES
10
531410.0000
20
2134432.0000
30
0.0
11
531410.0000
21
2134428.0000
31
0.0
0
LINE
8
LOT_LINES
10
531530.0000
20
2134432.0000
30
0.0
11
531530.0000
21
2134428.0000
31
0.0
0
TEXT
8
LOT_NUMBERS
7
STANDARD
10
531457.0000
20
2134566.0000
30
0.0
40
10.0
1
LOT 10
50
0.0
0
TEXT
8
DIMENSIONS
7
STANDARD
10
531457.0000
20
2134559.0000
30
0.0
40
4.5
1
33,600 SF
50
0.0
0
POLYLINE
8
LOT_LINES
66
1
70
1
0
VERTEX
8
LOT_LINES
10
530330.0000
20
2134090.0000
30
0.0
0
VERTEX
8
LOT_LINES
10
530450.0000
20
2134090.0000
30
0.0
0
VERTEX
8
LOT_LINES
10
530450.0000
20
2134370.0000
30
0.0
0
VERTEX
8
LOT_LINES
10
530330.0000
20
2134370.0000
30
0.0
0
SEQEND
0
LINE
8
LOT_LINES
10
530330.0000
20
2134090.0000
30
0.0
11
530450.0000
21
2134090.0000
31
0.0
0
TEXT
8
DIMENSIONS
7
STANDARD
10
530390.0000
20
2134088.2000
30
0.0
40
4.0
1
EAST
50
0.0
0
TEXT
8
DIMENSIONS
7
STANDARD
10
530390.0000
20
2134091.8000
30
0.0
40
3.68
1
120.00'
50
0.0
0
LINE
8
LOT_LINES
10
530330.0000
20
2134092.0000
30
0.0
11
530330.0000
21
2134088.0000
31
0.0
0
LINE
8
LOT_LINES
10
530450.0000
20
2134092.0000
30
0.0
11
530450.0000
21
2134088.0000
31
0.0
0
TEXT
8
LOT_NUMBERS
7
STANDARD
10
530377.0000
20
2134226.0000
30
0.0
40
10.0
1
LOT 11
50
0.0
0
TEXT
8
DIMENSIONS
7
STANDARD
10
530377.0000
20
2134219.0000
30
0.0
40
4.5
1
33,600 SF
50
0.0
0
POLYLINE
8
LOT_LINES
66
1
70
1
0
VERTEX
8
LOT_LINES
10
530450.0000
20
2134090.0000
30
0.0
0
VERTEX
8
LOT_LINES
10
530570.0000
20
2134090.0000
30
0.0
0
VERTEX
8
LOT_LINES
10
530570.0000
20
2134370.0000
30
0.0
0
VERTEX
8
LOT_LINES
10
530450.0000
20
2134370.0000
30
0.0
0
SEQEND
0
LINE
8
LOT_LINES
10
530450.0000
20
2134090.0000
30
0.0
11
530570.0000
21
2134090.0000
31
0.0
0
TEXT
8
DIMENSIONS
7
STANDARD
10
530510.0000
20
2134088.2000
30
0.0
40
4.0
1
EAST
50
0.0
0
TEXT
8
DIMENSIONS
7
STANDARD
10
530510.0000
20
2134091.8000
30
0.0
40
3.68
1
120.00'
50
0.0
0
LINE
8
LOT_LINES
10
530450.0000
20
2134092.0000
30
0.0
11
530450.0000
21
2134088.0000
31
0.0
0
LINE
8
LOT_LINES
10
530570.0000
20
2134092.0000
30
0.0
11
530570.0000
21
2134088.0000
31
0.0
0
TEXT
8
LOT_NUMBERS
7
STANDARD
10
530497.0000
20
2134226.0000
30
0.0
40
10.0
1
LOT 12
50
0.0
0
TEXT
8
DIMENSIONS
7
STANDARD
10
530497.0000
20
2134219.0000
30
0.0
40
4.5
1
33,600 SF
50
0.0
0
POLYLINE
8
LOT_LINES
66
1
70
1
0
VERTEX
8
LOT_LINES
10
530570.0000
20
2134090.0000
30
0.0
0
VERTEX
8
LOT_LINES
10
530690.0000
20
2134090.0000
30
0.0
0
VERTEX
8
LOT_LINES
10
530690.0000
20
2134370.0000
30
0.0
0
VERTEX
8
LOT_LINES
10
530570.0000
20
2134370.0000
30
0.0
0
SEQEND
0
LINE
8
LOT_LINES
10
530570.0000
20
2134090.0000
30
0.0
11
530690.0000
21
2134090.0000
31
0.0
0
TEXT
8
DIMENSIONS
7
STANDARD
10
530630.0000
20
2134088.2000
30
0.0
40
4.0
1
EAST
50
0.0
0
TEXT
8
DIMENSIONS
7
STANDARD
10
530630.0000
20
2134091.8000
30
0.0
40
3.68
1
120.00'
50
0.0
0
LINE
8
LOT_LINES
10
530570.0000
20
2134092.0000
30
0.0
11
530570.0000
21
2134088.0000
31
0.0
0
LINE
8
LOT_LINES
10
530690.0000
20
2134092.0000
30
0.0
11
530690.0000
21
2134088.0000
31
0.0
0
TEXT
8
LOT_NUMBERS
7
STANDARD
10
530617.0000
20
2134226.0000
30
0.0
40
10.0
1
LOT 13
50
0.0
0
TEXT
8
DIMENSIONS
7
STANDARD
10
530617.0000
20
2134219.0000
30
0.0
40
4.5
1
33,600 SF
50
0.0
0
POLYLINE
8
LOT_LINES
66
1
70
1
0
VERTEX
8
LOT_LINES
10
530690.0000
20
2134090.0000
30
0.0
0
VERTEX
8
LOT_LINES
10
530810.0000
20
2134090.0000
30
0.0
0
VERTEX
8
LOT_LINES
10
530810.0000
20
2134370.0000
30
0.0
0
VERTEX
8
LOT_LINES
10
530690.0000
20
2134370.0000
30
0.0
0
SEQEND
0
LINE
8
LOT_LINES
10
530690.0000
20
2134090.0000
30
0.0
11
530810.0000
21
2134090.0000
31
0.0
0
TEXT
8
DIMENSIONS
7
STANDARD
10
530750.0000
20
2134088.2000
30
0.0
40
4.0
1
EAST
50
0.0
0
TEXT
8
DIMENSIONS
7
STANDARD
10
530750.0000
20
2134091.8000
30
0.0
40
3.68
1
120.00'
50
0.0
0
LINE
8
LOT_LINES
10
530690.0000
20
2134092.0000
30
0.0
11
530690.0000
21
2134088.0000
31
0.0
0
LINE
8
LOT_LINES
10
530810.0000
20
2134092.0000
30
0.0
11
530810.0000
21
2134088.0000
31
0.0
0
TEXT
8
LOT_NUMBERS
7
STANDARD
10
530737.0000
20
2134226.0000
30
0.0
40
10.0
1
LOT 14
50
0.0
0
TEXT
8
DIMENSIONS
7
STANDARD
10
530737.0000
20
2134219.0000
30
0.0
40
4.5
1
33,600 SF
50
0.0
0
POLYLINE
8
LOT_LINES
66
1
70
1
0
VERTEX
8
LOT_LINES
10
530810.0000
20
2134090.0000
30
0.0
0
VERTEX
8
LOT_LINES
10
530930.0000
20
2134090.0000
30
0.0
0
VERTEX
8
LOT_LINES
10
530930.0000
20
2134370.0000
30
0.0
0
VERTEX
8
LOT_LINES
10
530810.0000
20
2134370.0000
30
0.0
0
SEQEND
0
LINE
8
LOT_LINES
10
530810.0000
20
2134090.0000
30
0.0
11
530930.0000
21
2134090.0000
31
0.0
0
TEXT
8
DIMENSIONS
7
STANDARD
10
530870.0000
20
2134088.2000
30
0.0
40
4.0
1
EAST
50
0.0
0
TEXT
8
DIMENSIONS
7
STANDARD
10
530870.0000
20
2134091.8000
30
0.0
40
3.68
1
120.00'
50
0.0
0
LINE
8
LOT_LINES
10
530810.0000
20
2134092.0000
30
0.0
11
530810.0000
21
2134088.0000
31
0.0
0
LINE
8
LOT_LINES
10
530930.0000
20
2134092.0000
30
0.0
11
530930.0000
21
2134088.0000
31
0.0
0
TEXT
8
LOT_NUMBERS
7
STANDARD
10
530857.0000
20
2134226.0000
30
0.0
40
10.0
1
LOT 15
50
0.0
0
TEXT
8
DIMENSIONS
7
STANDARD
10
530857.0000
20
2134219.0000
30
0.0
40
4.5
1
33,600 SF
50
0.0
0
POLYLINE
8
LOT_LINES
66
1
70
1
0
VERTEX
8
LOT_LINES
10
530930.0000
20
2134090.0000
30
0.0
0
VERTEX
8
LOT_LINES
10
531050.0000
20
2134090.0000
30
0.0
0
VERTEX
8
LOT_LINES
10
531050.0000
20
2134370.0000
30
0.0
0
VERTEX
8
LOT_LINES
10
530930.0000
20
2134370.0000
30
0.0
0
SEQEND
0
LINE
8
LOT_LINES
10
530930.0000
20
2134090.0000
30
0.0
11
531050.0000
21
2134090.0000
31
0.0
0
TEXT
8
DIMENSIONS
7
STANDARD
10
530990.0000
20
2134088.2000
30
0.0
40
4.0
1
EAST
50
0.0
0
TEXT
8
DIMENSIONS
7
STANDARD
10
530990.0000
20
2134091.8000
30
0.0
40
3.68
1
120.00'
50
0.0
0
LINE
8
LOT_LINES
10
530930.0000
20
2134092.0000
30
0.0
11
530930.0000
21
2134088.0000
31
0.0
0
LINE
8
LOT_LINES
10
531050.0000
20
2134092.0000
30
0.0
11
531050.0000
21
2134088.0000
31
0.0
0
TEXT
8
LOT_NUMBERS
7
STANDARD
10
530977.0000
20
2134226.0000
30
0.0
40
10.0
1
LOT 16
50
0.0
0
TEXT
8
DIMENSIONS
7
STANDARD
10
530977.0000
20
2134219.0000
30
0.0
40
4.5
1
33,600 SF
50
0.0
0
POLYLINE
8
LOT_LINES
66
1
70
1
0
VERTEX
8
LOT_LINES
10
531050.0000
20
2134090.0000
30
0.0
0
VERTEX
8
LOT_LINES
10
531170.0000
20
2134090.0000
30
0.0
0
VERTEX
8
LOT_LINES
10
531170.0000
20
2134370.0000
30
0.0
0
VERTEX
8
LOT_LINES
10
531050.0000
20
2134370.0000
30
0.0
0
SEQEND
0
LINE
8
LOT_LINES
10
531050.0000
20
2134090.0000
30
0.0
11
531170.0000
21
2134090.0000
31
0.0
0
TEXT
8
DIMENSIONS
7
STANDARD
10
531110.0000
20
2134088.2000
30
0.0
40
4.0
1
EAST
50
0.0
0
TEXT
8
DIMENSIONS
7
STANDARD
10
531110.0000
20
2134091.8000
30
0.0
40
3.68
1
120.00'
50
0.0
0
LINE
8
LOT_LINES
10
531050.0000
20
2134092.0000
30
0.0
11
531050.0000
21
2134088.0000
31
0.0
0
LINE
8
LOT_LINES
10
531170.0000
20
2134092.0000
30
0.0
11
531170.0000
21
2134088.0000
31
0.0
0
TEXT
8
LOT_NUMBERS
7
STANDARD
10
531097.0000
20
2134226.0000
30
0.0
40
10.0
1
LOT 17
50
0.0
0
TEXT
8
DIMENSIONS
7
STANDARD
10
531097.0000
20
2134219.0000
30
0.0
40
4.5
1
33,600 SF
50
0.0
0
POLYLINE
8
LOT_LINES
66
1
70
1
0
VERTEX
8
LOT_LINES
10
531170.0000
20
2134090.0000
30
0.0
0
VERTEX
8
LOT_LINES
10
531290.0000
20
2134090.0000
30
0.0
0
VERTEX
8
LOT_LINES
10
531290.0000
20
2134370.0000
30
0.0
0
VERTEX
8
LOT_LINES
10
531170.0000
20
2134370.0000
30
0.0
0
SEQEND
0
LINE
8
LOT_LINES
10
531170.0000
20
2134090.0000
30
0.0
11
531290.0000
21
2134090.0000
31
0.0
0
TEXT
8
DIMENSIONS
7
STANDARD
10
531230.0000
20
2134088.2000
30
0.0
40
4.0
1
EAST
50
0.0
0
TEXT
8
DIMENSIONS
7
STANDARD
10
531230.0000
20
2134091.8000
30
0.0
40
3.68
1
120.00'
50
0.0
0
LINE
8
LOT_LINES
10
531170.0000
20
2134092.0000
30
0.0
11
531170.0000
21
2134088.0000
31
0.0
0
LINE
8
LOT_LINES
10
531290.0000
20
2134092.0000
30
0.0
11
531290.0000
21
2134088.0000
31
0.0
0
TEXT
8
LOT_NUMBERS
7
STANDARD
10
531217.0000
20
2134226.0000
30
0.0
40
10.0
1
LOT 18
50
0.0
0
TEXT
8
DIMENSIONS
7
STANDARD
10
531217.0000
20
2134219.0000
30
0.0
40
4.5
1
33,600 SF
50
0.0
0
POLYLINE
8
LOT_LINES
66
1
70
1
0
VERTEX
8
LOT_LINES
10
531290.0000
20
2134090.0000
30
0.0
0
VERTEX
8
LOT_LINES
10
531410.0000
20
2134090.0000
30
0.0
0
VERTEX
8
LOT_LINES
10
531410.0000
20
2134370.0000
30
0.0
0
VERTEX
8
LOT_LINES
10
531290.0000
20
2134370.0000
30
0.0
0
SEQEND
0
LINE
8
LOT_LINES
10
531290.0000
20
2134090.0000
30
0.0
11
531410.0000
21
2134090.0000
31
0.0
0
TEXT
8
DIMENSIONS
7
STANDARD
10
531350.0000
20
2134088.2000
30
0.0
40
4.0
1
EAST
50
0.0
0
TEXT
8
DIMENSIONS
7
STANDARD
10
531350.0000
20
2134091.8000
30
0.0
40
3.68
1
120.00'
50
0.0
0
LINE
8
LOT_LINES
10
531290.0000
20
2134092.0000
30
0.0
11
531290.0000
21
2134088.0000
31
0.0
0
LINE
8
LOT_LINES
10
531410.0000
20
2134092.0000
30
0.0
11
531410.0000
21
2134088.0000
31
0.0
0
TEXT
8
LOT_NUMBERS
7
STANDARD
10
531337.0000
20
2134226.0000
30
0.0
40
10.0
1
LOT 19
50
0.0
0
TEXT
8
DIMENSIONS
7
STANDARD
10
531337.0000
20
2134219.0000
30
0.0
40
4.5
1
33,600 SF
50
0.0
0
POLYLINE
8
LOT_LINES
66
1
70
1
0
VERTEX
8
LOT_LINES
10
531410.0000
20
2134090.0000
30
0.0
0
VERTEX
8
LOT_LINES
10
531530.0000
20
2134090.0000
30
0.0
0
VERTEX
8
LOT_LINES
10
531530.0000
20
2134370.0000
30
0.0
0
VERTEX
8
LOT_LINES
10
531410.0000
20
2134370.0000
30
0.0
0
SEQEND
0
LINE
8
LOT_LINES
10
531410.0000
20
2134090.0000
30
0.0
11
531530.0000
21
2134090.0000
31
0.0
0
TEXT
8
DIMENSIONS
7
STANDARD
10
531470.0000
20
2134088.2000
30
0.0
40
4.0
1
EAST
50
0.0
0
TEXT
8
DIMENSIONS
7
STANDARD
10
531470.0000
20
2134091.8000
30
0.0
40
3.68
1
120.00'
50
0.0
0
LINE
8
LOT_LINES
10
531410.0000
20
2134092.0000
30
0.0
11
531410.0000
21
2134088.0000
31
0.0
0
LINE
8
LOT_LINES
10
531530.0000
20
2134092.0000
30
0.0
11
531530.0000
21
2134088.0000
31
0.0
0
TEXT
8
LOT_NUMBERS
7
STANDARD
10
531457.0000
20
2134226.0000
30
0.0
40
10.0
1
LOT 20
50
0.0
0
TEXT
8
DIMENSIONS
7
STANDARD
10
531457.0000
20
2134219.0000
30
0.0
40
4.5
1
33,600 SF
50
0.0
0
TEXT
8
WATER_RIVER
6
ROT_-35.00
7
STANDARD
10
531500.0000
20
2133800.0000
30
0.0
40
18.0
1
ST. JOHNS RIVER WATERFRONT CORRIDOR
50
-35.0
0
TEXT
8
WATER_RIVER
6
ROT_25.00
7
STANDARD
10
530500.0000
20
2132800.0000
30
0.0
40
18.0
1
DOCTORS LAKE / INLET WATERFRONT
50
25.0
0
POINT
8
CONTROL
10
530000.0000
20
2135000.0000
30
0.0
0
TEXT
8
CONTROL
7
STANDARD
10
530000.0000
20
2135020.0000
30
0.0
40
8.0
1
POB: SE Cor. Lot 4, Blk 29 Orange Park Point (PB 3 Pg 4) [Ground-Truthed WGS84]
50
0.0
0
TEXT
8
BOUNDARY
7
STANDARD
10
530000.0000
20
2135150.0000
30
0.0
40
18.0
1
HOLLY POINT -- PLAT BOOK 4, PAGE 17 (7 SHEETS ASSEMBLED)
50
0.0
0
ENDSEC
0
EOF
