0
SECTION
2
HEADER
9
$ACADVER
1
AC1009
9
$DWGCODEPAGE
3
ANSI_1252
0
ENDSEC
0
SECTION
2
TABLES
0
TABLE
2
LTYPE
70
6
0
LTYPE
2
CONTINUOUS
70
0
3
Solid
72
65
73
0
40
0.0
0
LTYPE
2
DASHED
70
0
3
Dashed
72
65
73
2
40
0.75
49
0.5
74
0
49
-0.25
74
0
0
LTYPE
2
DASHED2
70
0
3
Dashed (.5x)
72
65
73
2
40
0.375
49
0.25
74
0
49
-0.125
74
0
0
LTYPE
2
HIDDEN
70
0
3
Hidden
72
65
73
2
40
0.375
49
0.25
74
0
49
-0.125
74
0
0
LTYPE
2
CENTER
70
0
3
Center
72
65
73
4
40
2.0
49
1.25
74
0
49
-0.25
74
0
49
0.25
74
0
49
-0.25
74
0
0
LTYPE
2
PHANTOM
70
0
3
Phantom
72
65
73
6
40
2.5
49
1.25
74
0
49
-0.25
74
0
49
0.25
74
0
49
-0.25
74
0
49
0.25
74
0
49
-0.25
74
0
0
ENDTAB
0
TABLE
2
LAYER
70
17
0
LAYER
2
0
70
0
62
7
6
CONTINUOUS
0
LAYER
2
C-BOUNDARY
70
0
62
7
6
CONTINUOUS
0
LAYER
2
C-ROAD-CNTR
70
0
62
2
6
DASHED
0
LAYER
2
C-ROAD-CURV
70
0
62
4
6
CONTINUOUS
0
LAYER
2
C-ROAD-ROW-EDGE
70
0
62
4
6
DASHED
0
LAYER
2
C-ROAD-ALIGNMENT
70
0
62
2
6
CONTINUOUS
0
LAYER
2
C-ROAD-INTX
70
0
62
3
6
CONTINUOUS
0
LAYER
2
C-ROAD-TIE
70
0
62
4
6
CONTINUOUS
0
LAYER
2
C-ROAD-ASSUMP
70
0
62
1
6
DASHED
0
LAYER
2
C-ROAD-ASSUMP-INTX
70
0
62
1
6
CONTINUOUS
0
LAYER
2
C-ROAD-PI-TANGENT
70
0
62
1
6
DASHED
0
LAYER
2
C-ROAD-CULDESAC
70
0
62
1
6
CONTINUOUS
0
LAYER
2
C-ROAD-FILLET
70
0
62
3
6
CONTINUOUS
0
LAYER
2
C-ROAD-TEXT
70
0
62
7
6
CONTINUOUS
0
LAYER
2
C-ROAD-ASSUMP-TEXT
70
0
62
1
6
CONTINUOUS
0
LAYER
2
CONTROL
70
0
62
1
6
CONTINUOUS
0
LAYER
2
TITLEBLOCK
70
0
62
2
6
CONTINUOUS
0
ENDTAB
0
TABLE
2
STYLE
70
4
0
STYLE
2
STANDARD
70
0
40
0.0
41
1.0
50
0.0
71
0
42
0.2
3
Arial
4

0
STYLE
2
ARIAL
70
0
40
0.0
41
1.0
50
0.0
71
0
42
0.2
3
Arial
4

0
STYLE
2
ARIAL_TTF
70
0
40
0.0
41
1.0
50
0.0
71
0
42
0.2
3
arial.ttf
4

0
STYLE
2
SIMPLEX
70
0
40
0.0
41
1.0
50
0.0
71
0
42
0.2
3
simplex.shx
4

0
ENDTAB
0
ENDSEC
0
SECTION
2
ENTITIES
0
LINE
8
C-BOUNDARY
10
9812.5952
20
10172.2772
30
0.0
11
9843.2918
21
9442.2618
31
0.0
0
TEXT
8
C-ROAD-TEXT
7
STANDARD
10
9827.9435
20
9807.2695
30
0.0
40
5.0
1
S02%%d24'30"E 730.66'
50
0.0
72
1
11
9827.9435
21
9807.2695
31
0.0
73
2
0
LINE
8
C-BOUNDARY
10
9843.2918
20
9442.2618
30
0.0
11
9870.2384
21
7939.9332
31
0.0
0
TEXT
8
C-ROAD-TEXT
7
STANDARD
10
9856.7651
20
8691.0975
30
0.0
40
5.0
1
S01%%d01'40"E 1502.57'
50
0.0
72
1
11
9856.7651
21
8691.0975
31
0.0
73
2
0
LINE
8
C-BOUNDARY
10
9870.2384
20
7939.9332
30
0.0
11
9920.2347
21
7940.5282
31
0.0
0
TEXT
8
C-ROAD-TEXT
7
STANDARD
10
9895.2365
20
7940.2307
30
0.0
40
5.0
1
N89%%d18'20"E 50.00'
50
0.0
72
1
11
9895.2365
21
7940.2307
31
0.0
73
2
0
LINE
8
C-BOUNDARY
10
9920.2347
20
7940.5282
30
0.0
11
9922.0285
21
7840.5223
31
0.0
0
TEXT
8
C-ROAD-TEXT
7
STANDARD
10
9921.1316
20
7890.5253
30
0.0
40
5.0
1
S01%%d01'40"E 100.02'
50
0.0
72
1
11
9921.1316
21
7890.5253
31
0.0
73
2
0
LINE
8
C-BOUNDARY
10
9922.0285
20
7840.5223
30
0.0
11
10508.4956
21
7847.5019
31
0.0
0
TEXT
8
C-ROAD-TEXT
7
STANDARD
10
10215.2620
20
7844.0121
30
0.0
40
5.0
1
N89%%d18'20"E 586.51'
50
0.0
72
1
11
10215.2620
21
7844.0121
31
0.0
73
2
0
LINE
8
C-BOUNDARY
10
10508.4956
20
7847.5019
30
0.0
11
10507.2837
21
7947.4726
31
0.0
0
TEXT
8
C-ROAD-TEXT
7
STANDARD
10
10507.8896
20
7897.4872
30
0.0
40
5.0
1
N00%%d41'40"W 99.98'
50
0.0
72
1
11
10507.8896
21
7897.4872
31
0.0
73
2
0
LINE
8
C-BOUNDARY
10
10507.2837
20
7947.4726
30
0.0
11
10510.8638
21
8007.5127
31
0.0
0
TEXT
8
C-ROAD-TEXT
7
STANDARD
10
10509.0737
20
7977.4926
30
0.0
40
5.0
1
N03%%d24'42"E 60.15'
50
0.0
72
1
11
10509.0737
21
7977.4926
31
0.0
73
2
0
LINE
8
C-BOUNDARY
10
10510.8638
20
8007.5127
30
0.0
11
10508.4399
21
8207.4540
31
0.0
0
TEXT
8
C-ROAD-TEXT
7
STANDARD
10
10509.6518
20
8107.4834
30
0.0
40
5.0
1
N00%%d41'40"W 199.96'
50
0.0
72
1
11
10509.6518
21
8107.4834
31
0.0
73
2
0
LINE
8
C-BOUNDARY
10
10508.4399
20
8207.4540
30
0.0
11
10480.0078
21
8262.6381
31
0.0
0
TEXT
8
C-ROAD-TEXT
7
STANDARD
10
10494.2238
20
8235.0461
30
0.0
40
5.0
1
N27%%d15'10"W 62.08'
50
0.0
72
1
11
10494.2238
21
8235.0461
31
0.0
73
2
0
LINE
8
C-BOUNDARY
10
10480.0078
20
8262.6381
30
0.0
11
10478.7692
21
8364.8081
31
0.0
0
TEXT
8
C-ROAD-TEXT
7
STANDARD
10
10479.3885
20
8313.7231
30
0.0
40
5.0
1
N00%%d41'40"W 102.18'
50
0.0
72
1
11
10479.3885
21
8313.7231
31
0.0
73
2
0
LINE
8
C-BOUNDARY
10
10478.7692
20
8364.8081
30
0.0
11
10418.6880
21
8380.3807
31
0.0
0
TEXT
8
C-ROAD-TEXT
7
STANDARD
10
10448.7286
20
8372.5944
30
0.0
40
5.0
1
N75%%d27'25"W 62.07'
50
0.0
72
1
11
10448.7286
21
8372.5944
31
0.0
73
2
0
LINE
8
C-BOUNDARY
10
10418.6880
20
8380.3807
30
0.0
11
10488.0404
21
8478.2841
31
0.0
0
TEXT
8
C-ROAD-TEXT
7
STANDARD
10
10453.3642
20
8429.3324
30
0.0
40
5.0
1
N35%%d18'20"E 119.98'
50
0.0
72
1
11
10453.3642
21
8429.3324
31
0.0
73
2
0
LINE
8
C-BOUNDARY
10
10488.0404
20
8478.2841
30
0.0
11
10435.6478
21
8535.8890
31
0.0
0
TEXT
8
C-ROAD-TEXT
7
STANDARD
10
10461.8441
20
8507.0866
30
0.0
40
5.0
1
N42%%d16'43"W 77.87'
50
0.0
72
1
11
10461.8441
21
8507.0866
31
0.0
73
2
0
LINE
8
C-BOUNDARY
10
10435.6478
20
8535.8890
30
0.0
11
10551.2352
21
8699.0614
31
0.0
0
TEXT
8
C-ROAD-TEXT
7
STANDARD
10
10493.4415
20
8617.4752
30
0.0
40
5.0
1
N35%%d18'20"E 199.96'
50
0.0
72
1
11
10493.4415
21
8617.4752
31
0.0
73
2
0
LINE
8
C-BOUNDARY
10
10551.2352
20
8699.0614
30
0.0
11
10502.1767
21
8737.9162
31
0.0
0
TEXT
8
C-ROAD-TEXT
7
STANDARD
10
10526.7060
20
8718.4888
30
0.0
40
5.0
1
N51%%d36'38"W 62.58'
50
0.0
72
1
11
10526.7060
21
8718.4888
31
0.0
73
2
0
LINE
8
C-BOUNDARY
10
10502.1767
20
8737.9162
30
0.0
11
10583.0879
21
8852.1368
31
0.0
0
TEXT
8
C-ROAD-TEXT
7
STANDARD
10
10542.6323
20
8795.0265
30
0.0
40
5.0
1
N35%%d18'20"E 139.97'
50
0.0
72
1
11
10542.6323
21
8795.0265
31
0.0
73
2
0
LINE
8
C-BOUNDARY
10
10583.0879
20
8852.1368
30
0.0
11
10827.9125
21
8678.6898
31
0.0
0
TEXT
8
C-ROAD-TEXT
7
STANDARD
10
10705.5002
20
8765.4133
30
0.0
40
5.0
1
S54%%d41'40"E 300.04'
50
0.0
72
1
11
10705.5002
21
8765.4133
31
0.0
73
2
0
LINE
8
C-BOUNDARY
10
10827.9125
20
8678.6898
30
0.0
11
10885.7062
21
8760.2760
31
0.0
0
TEXT
8
C-ROAD-TEXT
7
STANDARD
10
10856.8094
20
8719.4829
30
0.0
40
5.0
1
N35%%d18'20"E 99.98'
50
0.0
72
1
11
10856.8094
21
8719.4829
31
0.0
73
2
0
LINE
8
C-BOUNDARY
10
10885.7062
20
8760.2760
30
0.0
11
10923.6086
21
8806.9557
31
0.0
0
TEXT
8
C-ROAD-TEXT
7
STANDARD
10
10904.6574
20
8783.6159
30
0.0
40
5.0
1
N39%%d04'03"E 60.13'
50
0.0
72
1
11
10904.6574
21
8783.6159
31
0.0
73
2
0
LINE
8
C-BOUNDARY
10
10923.6086
20
8806.9557
30
0.0
11
11073.8723
21
9019.0798
31
0.0
0
TEXT
8
C-ROAD-TEXT
7
STANDARD
10
10998.7404
20
8913.0177
30
0.0
40
5.0
1
N35%%d18'20"E 259.95'
50
0.0
72
1
11
10998.7404
21
8913.0177
31
0.0
73
2
0
LINE
8
C-BOUNDARY
10
11073.8723
20
9019.0798
30
0.0
11
11155.6110
21
8961.1716
31
0.0
0
TEXT
8
C-ROAD-TEXT
7
STANDARD
10
11114.7416
20
8990.1257
30
0.0
40
5.0
1
S54%%d41'40"E 100.17'
50
0.0
72
1
11
11114.7416
21
8990.1257
31
0.0
73
2
0
LINE
8
C-BOUNDARY
10
11155.6110
20
8961.1716
30
0.0
11
11240.3061
21
8908.0200
31
0.0
0
TEXT
8
C-ROAD-TEXT
7
STANDARD
10
11197.9586
20
8934.5958
30
0.0
40
5.0
1
S57%%d53'59"E 99.99'
50
0.0
72
1
11
11197.9586
21
8934.5958
31
0.0
73
2
0
LINE
8
C-BOUNDARY
10
11240.3061
20
8908.0200
30
0.0
11
11288.6267
21
8995.5486
31
0.0
0
TEXT
8
C-ROAD-TEXT
7
STANDARD
10
11264.4664
20
8951.7843
30
0.0
40
5.0
1
N28%%d53'42"E 99.98'
50
0.0
72
1
11
11264.4664
21
8951.7843
31
0.0
73
2
0
LINE
8
C-BOUNDARY
10
11288.6267
20
8995.5486
30
0.0
11
11373.0126
21
8962.8014
31
0.0
0
TEXT
8
C-ROAD-TEXT
7
STANDARD
10
11330.8197
20
8979.1750
30
0.0
40
5.0
1
S68%%d48'08"E 90.52'
50
0.0
72
1
11
11330.8197
21
8979.1750
31
0.0
73
2
0
LINE
8
C-BOUNDARY
10
11373.0126
20
8962.8014
30
0.0
11
11452.6527
21
8993.3925
31
0.0
0
TEXT
8
C-ROAD-TEXT
7
STANDARD
10
11412.8327
20
8978.0970
30
0.0
40
5.0
1
N68%%d58'32"E 85.31'
50
0.0
72
1
11
11412.8327
21
8978.0970
31
0.0
73
2
0
LINE
8
C-BOUNDARY
10
11452.6527
20
8993.3925
30
0.0
11
11437.5280
21
10240.9765
31
0.0
0
TEXT
8
C-ROAD-TEXT
7
STANDARD
10
11445.0904
20
9617.1845
30
0.0
40
5.0
1
N00%%d41'40"W 1247.68'
50
0.0
72
1
11
11445.0904
21
9617.1845
31
0.0
73
2
0
LINE
8
C-BOUNDARY
10
11437.5280
20
10240.9765
30
0.0
11
9812.5952
21
10172.2772
31
0.0
0
TEXT
8
C-ROAD-TEXT
7
STANDARD
10
10625.0616
20
10206.6269
30
0.0
40
5.0
1
S87%%d35'30"W 1626.38'
50
0.0
72
1
11
10625.0616
21
10206.6269
31
0.0
73
2
0
LINE
8
C-ROAD-CNTR
10
10000.0000
20
10000.0000
30
0.0
11
9992.4362
21
10179.8410
31
0.0
0
TEXT
8
C-ROAD-TEXT
7
STANDARD
10
9996.2181
20
10094.9205
30
0.0
40
4.5
1
Mangrove Avenue [N02%%d24'30"W - 180.00']
50
0.0
72
1
11
9996.2181
21
10094.9205
31
0.0
73
2
0
LINE
8
C-ROAD-CNTR
10
10000.0000
20
10000.0000
30
0.0
11
10010.9255
21
9740.2297
31
0.0
0
TEXT
8
C-ROAD-TEXT
7
STANDARD
10
10005.4627
20
9875.1148
30
0.0
40
4.5
1
Mangrove Avenue [S02%%d24'30"E - 260.00']
50
0.0
72
1
11
10005.4627
21
9875.1148
31
0.0
73
2
0
LINE
8
C-ROAD-CNTR
10
10010.9255
20
9740.2297
30
0.0
11
10021.8509
21
9480.4593
31
0.0
0
TEXT
8
C-ROAD-TEXT
7
STANDARD
10
10016.3882
20
9615.3445
30
0.0
40
4.5
1
Mangrove Avenue [S02%%d24'30"E - 260.00']
50
0.0
72
1
11
10016.3882
21
9615.3445
31
0.0
73
2
0
LINE
8
C-ROAD-CNTR
10
10021.8509
20
9480.4593
30
0.0
11
10023.2237
21
9447.8195
31
0.0
0
TEXT
8
C-ROAD-TEXT
7
STANDARD
10
10022.5373
20
9469.1394
30
0.0
40
4.5
1
Mangrove Avenue [S02%%d24'30"E - 32.67']
50
0.0
72
1
11
10022.5373
21
9469.1394
31
0.0
73
2
0
LINE
8
C-ROAD-CNTR
10
10023.2237
20
9447.8195
30
0.0
11
10027.3016
21
9220.5085
31
0.0
0
TEXT
8
C-ROAD-TEXT
7
STANDARD
10
10025.2627
20
9339.1640
30
0.0
40
4.5
1
Mangrove Avenue [S01%%d01'40"E - 227.35']
50
0.0
72
1
11
10025.2627
21
9339.1640
31
0.0
73
2
0
LINE
8
C-ROAD-CNTR
10
10027.3016
20
9220.5085
30
0.0
11
10029.9922
21
9070.5326
31
0.0
0
TEXT
8
C-ROAD-TEXT
7
STANDARD
10
10028.6469
20
9150.5206
30
0.0
40
4.5
1
Mangrove Avenue [S01%%d01'40"E - 150.00']
50
0.0
72
1
11
10028.6469
21
9150.5206
31
0.0
73
2
0
LINE
8
C-ROAD-CNTR
10
10029.9922
20
9070.5326
30
0.0
11
10032.6828
21
8920.5568
31
0.0
0
TEXT
8
C-ROAD-TEXT
7
STANDARD
10
10031.3375
20
9000.5447
30
0.0
40
4.5
1
Mangrove Avenue [S01%%d01'40"E - 150.00']
50
0.0
72
1
11
10031.3375
21
9000.5447
31
0.0
73
2
0
LINE
8
C-ROAD-CNTR
10
10032.6828
20
8920.5568
30
0.0
11
10038.2254
21
8611.6065
31
0.0
0
TEXT
8
C-ROAD-TEXT
7
STANDARD
10
10035.4541
20
8771.0816
30
0.0
40
4.5
1
Mangrove Avenue [S01%%d01'40"E - 309.00']
50
0.0
72
1
11
10035.4541
21
8771.0816
31
0.0
73
2
0
LINE
8
C-ROAD-CNTR
10
10038.2254
20
8611.6065
30
0.0
11
10045.1472
21
8225.7761
31
0.0
0
TEXT
8
C-ROAD-TEXT
7
STANDARD
10
10041.6863
20
8423.6913
30
0.0
40
4.5
1
Mangrove Avenue [S01%%d01'40"E - 385.89']
50
0.0
72
1
11
10041.6863
21
8423.6913
31
0.0
73
2
0
LINE
8
C-ROAD-CNTR
10
10045.1472
20
8225.7761
30
0.0
11
10047.8377
21
8075.8003
31
0.0
0
TEXT
8
C-ROAD-TEXT
7
STANDARD
10
10046.4925
20
8155.7882
30
0.0
40
4.5
1
Mangrove Avenue [S01%%d01'40"E - 150.00']
50
0.0
72
1
11
10046.4925
21
8155.7882
31
0.0
73
2
0
LINE
8
C-ROAD-CNTR
10
10047.8377
20
8075.8003
30
0.0
11
10050.1696
21
7945.8212
31
0.0
0
TEXT
8
C-ROAD-TEXT
7
STANDARD
10
10049.0037
20
8015.8107
30
0.0
40
4.5
1
Mangrove Avenue [S01%%d01'40"E - 130.00']
50
0.0
72
1
11
10049.0037
21
8015.8107
31
0.0
73
2
0
LINE
8
C-ROAD-CNTR
10
9865.1604
20
8223.5945
30
0.0
11
10045.1472
21
8225.7761
31
0.0
0
LINE
8
C-ROAD-ROW-EDGE
10
9864.7968
20
8253.5923
30
0.0
11
10044.7836
21
8255.7739
31
0.0
0
LINE
8
C-ROAD-ROW-EDGE
10
9865.5240
20
8193.5967
30
0.0
11
10045.5108
21
8195.7783
31
0.0
0
TEXT
8
C-ROAD-TEXT
7
STANDARD
10
9955.1538
20
8229.6853
30
0.0
40
4.5
1
Surfwood Avenue [N89%%d18'20"E - 180.00']
50
0.0
72
1
11
9955.1538
21
8229.6853
31
0.0
73
2
0
LINE
8
C-ROAD-CNTR
10
10045.1472
20
8225.7761
30
0.0
11
10489.7145
21
8231.1647
31
0.0
0
LINE
8
C-ROAD-ROW-EDGE
10
10044.7836
20
8255.7739
30
0.0
11
10489.3509
21
8261.1625
31
0.0
0
LINE
8
C-ROAD-ROW-EDGE
10
10045.5108
20
8195.7783
30
0.0
11
10490.0781
21
8201.1669
31
0.0
0
TEXT
8
C-ROAD-TEXT
7
STANDARD
10
10267.4308
20
8233.4704
30
0.0
40
4.5
1
Surfwood Avenue [N89%%d18'20"E - 444.60']
50
0.0
72
1
11
10267.4308
21
8233.4704
31
0.0
73
2
0
LINE
8
C-ROAD-ASSUMP
10
10047.8377
20
8075.8003
30
0.0
11
10351.8154
21
8079.4847
31
0.0
0
LINE
8
C-ROAD-ROW-EDGE
10
10047.4741
20
8105.7980
30
0.0
11
10351.4518
21
8109.4825
31
0.0
0
LINE
8
C-ROAD-ROW-EDGE
10
10048.2013
20
8045.8025
30
0.0
11
10352.1790
21
8049.4869
31
0.0
0
TEXT
8
C-ROAD-ASSUMP-TEXT
7
STANDARD
10
10199.8266
20
8082.6425
30
0.0
40
4.5
1
Bayou Avenue Corridor [N89%%d18'20"E - 304.00'] (ASSUMED)
50
0.0
72
1
11
10199.8266
21
8082.6425
31
0.0
73
2
0
LINE
8
C-ROAD-CNTR
10
10038.2254
20
8611.6065
30
0.0
11
10093.2165
21
8612.5930
31
0.0
0
TEXT
8
C-ROAD-TEXT
7
STANDARD
10
10065.7209
20
8617.0998
30
0.0
40
4.5
1
San Salvadore Avenue [N88%%d58'20"E - 55.00']
50
0.0
72
1
11
10065.7209
21
8617.0998
31
0.0
73
2
0
LINE
8
C-ROAD-CNTR
10
10254.0786
20
8562.9858
30
0.0
11
10342.3028
21
8500.5068
31
0.0
0
TEXT
8
C-ROAD-TEXT
7
STANDARD
10
10298.1907
20
8536.7463
30
0.0
40
4.5
1
San Salvadore Avenue [S54%%d41'40"E - 108.11']
50
0.0
72
1
11
10298.1907
21
8536.7463
31
0.0
73
2
0
LINE
8
C-ROAD-CNTR
10
9820.1590
20
9992.4362
30
0.0
11
10000.0000
21
10000.0000
31
0.0
0
TEXT
8
C-ROAD-TEXT
7
STANDARD
10
9910.0795
20
10001.2181
30
0.0
40
4.5
1
Starfish Avenue [N87%%d35'30"E - 180.00']
50
0.0
72
1
11
9910.0795
21
10001.2181
31
0.0
73
2
0
LINE
8
C-ROAD-CNTR
10
10000.0000
20
10000.0000
30
0.0
11
11399.7176
21
10058.8695
31
0.0
0
TEXT
8
C-ROAD-TEXT
7
STANDARD
10
10699.8588
20
10034.4347
30
0.0
40
4.5
1
Starfish Avenue [N87%%d35'30"E - 1400.95']
50
0.0
72
1
11
10699.8588
21
10034.4347
31
0.0
73
2
0
LINE
8
C-ROAD-CNTR
10
10010.9255
20
9740.2297
30
0.0
11
11402.8702
21
9798.7722
31
0.0
0
TEXT
8
C-ROAD-TEXT
7
STANDARD
10
10706.8978
20
9774.5009
30
0.0
40
4.5
1
Sail Avenue [N87%%d35'30"E - 1393.18']
50
0.0
72
1
11
10706.8978
21
9774.5009
31
0.0
73
2
0
LINE
8
C-ROAD-CNTR
10
10021.8509
20
9480.4593
30
0.0
11
10234.9225
21
9489.4207
31
0.0
0
TEXT
8
C-ROAD-TEXT
7
STANDARD
10
10128.3867
20
9489.9400
30
0.0
40
4.5
1
Marina Drive (west leg) [N87%%d35'30"E - 213.26']
50
0.0
72
1
11
10128.3867
21
9489.9400
31
0.0
73
2
0
LINE
8
C-ROAD-CNTR
10
10457.6548
20
9423.6616
30
0.0
11
10837.1458
21
9154.9118
31
0.0
0
TEXT
8
C-ROAD-TEXT
7
STANDARD
10
10647.4003
20
9294.2867
30
0.0
40
4.5
1
Marina Avenue [S54%%d41'40"E - 465.02']
50
0.0
72
1
11
10647.4003
21
9294.2867
31
0.0
73
2
0
LINE
8
C-ROAD-CNTR
10
10837.1458
20
9154.9118
30
0.0
11
11058.3450
21
8998.2618
31
0.0
0
TEXT
8
C-ROAD-TEXT
7
STANDARD
10
10947.7454
20
9081.5868
30
0.0
40
4.5
1
Marina Avenue [S54%%d41'40"E - 271.05']
50
0.0
72
1
11
10947.7454
21
9081.5868
31
0.0
73
2
0
LINE
8
C-ROAD-CNTR
10
10837.1458
20
9154.9118
30
0.0
11
10869.0237
21
9199.9252
31
0.0
0
TEXT
8
C-ROAD-TEXT
7
STANDARD
10
10853.0847
20
9182.4185
30
0.0
40
4.5
1
Keel Drive [N35%%d18'20"E - 55.16']
50
0.0
72
1
11
10853.0847
21
9182.4185
31
0.0
73
2
0
LINE
8
C-ROAD-CNTR
10
10980.4342
20
9260.5457
30
0.0
11
11409.1754
21
9278.5777
31
0.0
0
TEXT
8
C-ROAD-TEXT
7
STANDARD
10
11194.8048
20
9274.5617
30
0.0
40
4.5
1
Keel Drive [N87%%d35'30"E - 429.12']
50
0.0
72
1
11
11194.8048
21
9274.5617
31
0.0
73
2
0
LINE
8
C-ROAD-CNTR
10
11397.5345
20
10238.9773
30
0.0
11
11399.7176
21
10058.8695
31
0.0
0
TEXT
8
C-ROAD-TEXT
7
STANDARD
10
11398.6260
20
10153.9234
30
0.0
40
4.5
1
Beachwood Boulevard [S00%%d41'40"E - 180.12']
50
0.0
72
1
11
11398.6260
21
10153.9234
31
0.0
73
2
0
LINE
8
C-ROAD-CNTR
10
11399.7176
20
10058.8695
30
0.0
11
11402.8702
21
9798.7722
31
0.0
0
TEXT
8
C-ROAD-TEXT
7
STANDARD
10
11401.2939
20
9933.8209
30
0.0
40
4.5
1
Beachwood Boulevard [S00%%d41'40"E - 260.12']
50
0.0
72
1
11
11401.2939
21
9933.8209
31
0.0
73
2
0
LINE
8
C-ROAD-CNTR
10
11402.8702
20
9798.7722
30
0.0
11
11406.0228
21
9538.6750
31
0.0
0
TEXT
8
C-ROAD-TEXT
7
STANDARD
10
11404.4465
20
9673.7236
30
0.0
40
4.5
1
Beachwood Boulevard [S00%%d41'40"E - 260.12']
50
0.0
72
1
11
11404.4465
21
9673.7236
31
0.0
73
2
0
LINE
8
C-ROAD-CNTR
10
11406.0228
20
9538.6750
30
0.0
11
11409.1754
21
9278.5777
31
0.0
0
TEXT
8
C-ROAD-TEXT
7
STANDARD
10
11407.5991
20
9413.6263
30
0.0
40
4.5
1
Beachwood Boulevard [S00%%d41'40"E - 260.12']
50
0.0
72
1
11
11407.5991
21
9413.6263
31
0.0
73
2
0
LINE
8
C-ROAD-CNTR
10
11409.1754
20
9278.5777
30
0.0
11
11412.8248
21
8977.4966
31
0.0
0
TEXT
8
C-ROAD-TEXT
7
STANDARD
10
11411.0001
20
9133.0372
30
0.0
40
4.5
1
Beachwood Boulevard [S00%%d41'40"E - 301.10']
50
0.0
72
1
11
11411.0001
21
9133.0372
31
0.0
73
2
0
LINE
8
C-ROAD-CNTR
10
10502.5462
20
9391.8702
30
0.0
11
10534.3248
21
9436.7435
31
0.0
0
TEXT
8
C-ROAD-TEXT
7
STANDARD
10
10518.4355
20
9419.3069
30
0.0
40
4.5
1
Shellfish Drive [N35%%d18'20"E - 54.99']
50
0.0
72
1
11
10518.4355
21
9419.3069
31
0.0
73
2
0
LINE
8
C-ROAD-CNTR
10
10664.3282
20
9507.4807
30
0.0
11
11406.0228
21
9538.6750
31
0.0
0
TEXT
8
C-ROAD-TEXT
7
STANDARD
10
11035.1755
20
9528.0778
30
0.0
40
4.5
1
Shellfish Drive [N87%%d35'30"E - 742.35']
50
0.0
72
1
11
11035.1755
21
9528.0778
31
0.0
73
2
0
LINE
8
C-ROAD-CNTR
10
10027.3016
20
9220.5085
30
0.0
11
10137.2839
21
9222.4816
31
0.0
0
TEXT
8
C-ROAD-TEXT
7
STANDARD
10
10082.2928
20
9226.4950
30
0.0
40
4.5
1
Sands Avenue [N88%%d58'20"E - 110.00']
50
0.0
72
1
11
10082.2928
21
9226.4950
31
0.0
73
2
0
LINE
8
C-ROAD-CNTR
10
10411.0046
20
9138.0707
30
0.0
11
10906.4543
21
8787.2006
31
0.0
0
TEXT
8
C-ROAD-TEXT
7
STANDARD
10
10658.7294
20
8967.6357
30
0.0
40
4.5
1
Sands Avenue [S54%%d41'40"E - 607.11']
50
0.0
72
1
11
10658.7294
21
8967.6357
31
0.0
73
2
0
LINE
8
C-ROAD-CNTR
10
9852.7117
20
8917.3281
30
0.0
11
10032.6828
21
8920.5568
31
0.0
0
TEXT
8
C-ROAD-TEXT
7
STANDARD
10
9942.6973
20
8923.9424
30
0.0
40
4.5
1
Cape Horn Avenue [N88%%d58'20"E - 180.00']
50
0.0
72
1
11
9942.6973
21
8923.9424
31
0.0
73
2
0
LINE
8
C-ROAD-CNTR
10
10032.6828
20
8920.5568
30
0.0
11
10087.6739
21
8921.5433
31
0.0
0
TEXT
8
C-ROAD-TEXT
7
STANDARD
10
10060.1784
20
8926.0500
30
0.0
40
4.5
1
Cape Horn Avenue [N88%%d58'20"E - 55.00']
50
0.0
72
1
11
10060.1784
21
8926.0500
31
0.0
73
2
0
LINE
8
C-ROAD-CNTR
10
10282.5307
20
8861.4528
30
0.0
11
10479.4782
21
8721.9774
31
0.0
0
TEXT
8
C-ROAD-TEXT
7
STANDARD
10
10381.0045
20
8796.7151
30
0.0
40
4.5
1
Cape Horn Avenue [S54%%d41'40"E - 241.33']
50
0.0
72
1
11
10381.0045
21
8796.7151
31
0.0
73
2
0
LINE
8
C-ROAD-PI-TANGENT
10
10093.2165
20
8612.5930
30
0.0
11
10181.7866
21
8614.1820
31
0.0
0
LINE
8
C-ROAD-PI-TANGENT
10
10181.7866
20
8614.1820
30
0.0
11
10254.0786
21
8562.9858
31
0.0
0
LINE
8
C-ROAD-PI-TANGENT
10
10137.2839
20
9222.4816
30
0.0
11
10287.9935
21
9225.1853
31
0.0
0
LINE
8
C-ROAD-PI-TANGENT
10
10287.9935
20
9225.1853
30
0.0
11
10411.0046
21
9138.0707
31
0.0
0
LINE
8
C-ROAD-PI-TANGENT
10
10087.6739
20
8921.5433
30
0.0
11
10194.9613
21
8923.4681
31
0.0
0
LINE
8
C-ROAD-PI-TANGENT
10
10194.9613
20
8923.4681
30
0.0
11
10282.5307
21
8861.4528
31
0.0
0
LINE
8
C-ROAD-PI-TANGENT
10
10234.9225
20
9489.4207
30
0.0
11
10357.5182
21
9494.5768
31
0.0
0
LINE
8
C-ROAD-PI-TANGENT
10
10357.5182
20
9494.5768
30
0.0
11
10457.6548
21
9423.6616
31
0.0
0
LINE
8
C-ROAD-PI-TANGENT
10
10869.0237
20
9199.9252
30
0.0
11
10909.8519
21
9257.5771
31
0.0
0
LINE
8
C-ROAD-PI-TANGENT
10
10909.8519
20
9257.5771
30
0.0
11
10980.4342
21
9260.5457
31
0.0
0
LINE
8
C-ROAD-PI-TANGENT
10
10534.3248
20
9436.7435
30
0.0
11
10581.9666
21
9504.0167
31
0.0
0
LINE
8
C-ROAD-PI-TANGENT
10
10581.9666
20
9504.0167
30
0.0
11
10664.3282
21
9507.4807
31
0.0
0
POLYLINE
8
C-ROAD-ROW-EDGE
66
1
70
0
0
VERTEX
8
C-ROAD-ROW-EDGE
10
10022.4080
20
10181.1421
30
0.0
0
VERTEX
8
C-ROAD-ROW-EDGE
10
10028.7129
20
10031.2341
30
0.0
0
SEQEND
0
POLYLINE
8
C-ROAD-ROW-EDGE
66
1
70
0
0
VERTEX
8
C-ROAD-ROW-EDGE
10
10032.2847
20
9946.3092
30
0.0
0
VERTEX
8
C-ROAD-ROW-EDGE
10
10038.5878
20
9796.4417
30
0.0
0
SEQEND
0
POLYLINE
8
C-ROAD-ROW-EDGE
66
1
70
0
0
VERTEX
8
C-ROAD-ROW-EDGE
10
10043.2101
20
9686.5389
30
0.0
0
VERTEX
8
C-ROAD-ROW-EDGE
10
10049.5133
20
9536.6714
30
0.0
0
SEQEND
0
POLYLINE
8
C-ROAD-ROW-EDGE
66
1
70
0
0
VERTEX
8
C-ROAD-ROW-EDGE
10
9962.4610
20
10178.6208
30
0.0
0
VERTEX
8
C-ROAD-ROW-EDGE
10
9968.7659
20
10028.7129
30
0.0
0
SEQEND
0
POLYLINE
8
C-ROAD-ROW-EDGE
66
1
70
0
0
VERTEX
8
C-ROAD-ROW-EDGE
10
9972.3377
20
9943.7880
30
0.0
0
VERTEX
8
C-ROAD-ROW-EDGE
10
9993.2350
20
9446.9200
30
0.0
0
SEQEND
0
POLYLINE
8
C-ROAD-ROW-EDGE
66
1
70
0
0
VERTEX
8
C-ROAD-ROW-EDGE
10
10053.5957
20
9427.3487
30
0.0
0
VERTEX
8
C-ROAD-ROW-EDGE
10
10056.3103
20
9276.0378
30
0.0
0
SEQEND
0
POLYLINE
8
C-ROAD-ROW-EDGE
66
1
70
0
0
VERTEX
8
C-ROAD-ROW-EDGE
10
10058.2834
20
9166.0555
30
0.0
0
VERTEX
8
C-ROAD-ROW-EDGE
10
10059.1802
20
9116.0635
30
0.0
0
SEQEND
0
POLYLINE
8
C-ROAD-ROW-EDGE
66
1
70
0
0
VERTEX
8
C-ROAD-ROW-EDGE
10
10060.7946
20
9026.0780
30
0.0
0
VERTEX
8
C-ROAD-ROW-EDGE
10
10061.6914
20
8976.0860
30
0.0
0
SEQEND
0
POLYLINE
8
C-ROAD-ROW-EDGE
66
1
70
0
0
VERTEX
8
C-ROAD-ROW-EDGE
10
10063.6645
20
8866.1037
30
0.0
0
VERTEX
8
C-ROAD-ROW-EDGE
10
10067.2340
20
8667.1357
30
0.0
0
SEQEND
0
POLYLINE
8
C-ROAD-ROW-EDGE
66
1
70
0
0
VERTEX
8
C-ROAD-ROW-EDGE
10
10069.2071
20
8557.1534
30
0.0
0
VERTEX
8
C-ROAD-ROW-EDGE
10
10082.1448
20
7835.9866
30
0.0
0
SEQEND
0
POLYLINE
8
C-ROAD-ROW-EDGE
66
1
70
0
0
VERTEX
8
C-ROAD-ROW-EDGE
10
9993.2350
20
9446.9200
30
0.0
0
VERTEX
8
C-ROAD-ROW-EDGE
10
9999.1899
20
9114.9873
30
0.0
0
SEQEND
0
POLYLINE
8
C-ROAD-ROW-EDGE
66
1
70
0
0
VERTEX
8
C-ROAD-ROW-EDGE
10
10000.8042
20
9025.0018
30
0.0
0
VERTEX
8
C-ROAD-ROW-EDGE
10
10001.7011
20
8975.0098
30
0.0
0
SEQEND
0
POLYLINE
8
C-ROAD-ROW-EDGE
66
1
70
0
0
VERTEX
8
C-ROAD-ROW-EDGE
10
10003.6742
20
8865.0275
30
0.0
0
VERTEX
8
C-ROAD-ROW-EDGE
10
10022.1482
20
7835.2594
30
0.0
0
SEQEND
0
POLYLINE
8
C-ROAD-ROW-EDGE
66
1
70
0
0
VERTEX
8
C-ROAD-ROW-EDGE
10
9818.8984
20
10022.4097
30
0.0
0
VERTEX
8
C-ROAD-ROW-EDGE
10
9968.7659
20
10028.7129
30
0.0
0
SEQEND
0
POLYLINE
8
C-ROAD-ROW-EDGE
66
1
70
0
0
VERTEX
8
C-ROAD-ROW-EDGE
10
10028.7129
20
10031.2341
30
0.0
0
VERTEX
8
C-ROAD-ROW-EDGE
10
11335.1295
20
10086.1796
30
0.0
0
SEQEND
0
POLYLINE
8
C-ROAD-ROW-EDGE
66
1
70
0
0
VERTEX
8
C-ROAD-ROW-EDGE
10
9821.4196
20
9962.4627
30
0.0
0
VERTEX
8
C-ROAD-ROW-EDGE
10
9946.3092
20
9967.7153
30
0.0
0
SEQEND
0
POLYLINE
8
C-ROAD-ROW-EDGE
66
1
70
0
0
VERTEX
8
C-ROAD-ROW-EDGE
10
10056.2120
20
9972.3377
30
0.0
0
VERTEX
8
C-ROAD-ROW-EDGE
10
11334.3623
20
10026.0942
30
0.0
0
SEQEND
0
POLYLINE
8
C-ROAD-ROW-EDGE
66
1
70
0
0
VERTEX
8
C-ROAD-ROW-EDGE
10
10064.6162
20
9772.5143
30
0.0
0
VERTEX
8
C-ROAD-ROW-EDGE
10
11338.2821
20
9826.0823
30
0.0
0
SEQEND
0
POLYLINE
8
C-ROAD-ROW-EDGE
66
1
70
0
0
VERTEX
8
C-ROAD-ROW-EDGE
10
10067.1375
20
9712.5673
30
0.0
0
VERTEX
8
C-ROAD-ROW-EDGE
10
11337.5149
20
9765.9970
30
0.0
0
SEQEND
0
POLYLINE
8
C-ROAD-ROW-EDGE
66
1
70
0
0
VERTEX
8
C-ROAD-ROW-EDGE
10
11437.5170
20
10240.6589
30
0.0
0
VERTEX
8
C-ROAD-ROW-EDGE
10
11452.6422
20
8992.8006
30
0.0
0
SEQEND
0
POLYLINE
8
C-ROAD-ROW-EDGE
66
1
70
0
0
VERTEX
8
C-ROAD-ROW-EDGE
10
11357.5519
20
10237.2957
30
0.0
0
VERTEX
8
C-ROAD-ROW-EDGE
10
11359.0772
20
10111.4605
30
0.0
0
SEQEND
0
POLYLINE
8
C-ROAD-ROW-EDGE
66
1
70
0
0
VERTEX
8
C-ROAD-ROW-EDGE
10
11360.4110
20
10001.4193
30
0.0
0
VERTEX
8
C-ROAD-ROW-EDGE
10
11362.2298
20
9851.3632
30
0.0
0
SEQEND
0
POLYLINE
8
C-ROAD-ROW-EDGE
66
1
70
0
0
VERTEX
8
C-ROAD-ROW-EDGE
10
11363.5636
20
9741.3221
30
0.0
0
VERTEX
8
C-ROAD-ROW-EDGE
10
11365.3824
20
9591.2660
30
0.0
0
SEQEND
0
POLYLINE
8
C-ROAD-ROW-EDGE
66
1
70
0
0
VERTEX
8
C-ROAD-ROW-EDGE
10
11366.7162
20
9481.2248
30
0.0
0
VERTEX
8
C-ROAD-ROW-EDGE
10
11368.5350
20
9331.1687
30
0.0
0
SEQEND
0
POLYLINE
8
C-ROAD-ROW-EDGE
66
1
70
0
0
VERTEX
8
C-ROAD-ROW-EDGE
10
11369.8688
20
9221.1275
30
0.0
0
VERTEX
8
C-ROAD-ROW-EDGE
10
11373.0074
20
8962.1926
30
0.0
0
SEQEND
0
POLYLINE
8
C-ROAD-ROW-EDGE
66
1
70
0
0
VERTEX
8
C-ROAD-ROW-EDGE
10
10075.5417
20
9512.7440
30
0.0
0
VERTEX
8
C-ROAD-ROW-EDGE
10
10233.6619
20
9519.3942
30
0.0
0
SEQEND
0
POLYLINE
8
C-ROAD-ROW-EDGE
66
1
70
0
0
VERTEX
8
C-ROAD-ROW-EDGE
10
10077.5412
20
9452.7750
30
0.0
0
VERTEX
8
C-ROAD-ROW-EDGE
10
10236.1832
20
9459.4472
30
0.0
0
SEQEND
0
POLYLINE
8
C-ROAD-ROW-EDGE
66
1
70
0
0
VERTEX
8
C-ROAD-ROW-EDGE
10
10236.1832
20
9459.4472
30
0.0
0
VERTEX
8
C-ROAD-ROW-EDGE
10
10241.2205
20
9459.6204
30
0.0
0
VERTEX
8
C-ROAD-ROW-EDGE
10
10246.2599
20
9459.7166
30
0.0
0
VERTEX
8
C-ROAD-ROW-EDGE
10
10251.3002
20
9459.7355
30
0.0
0
VERTEX
8
C-ROAD-ROW-EDGE
10
10256.3402
20
9459.6774
30
0.0
0
VERTEX
8
C-ROAD-ROW-EDGE
10
10261.3787
20
9459.5420
30
0.0
0
VERTEX
8
C-ROAD-ROW-EDGE
10
10266.4145
20
9459.3296
30
0.0
0
VERTEX
8
C-ROAD-ROW-EDGE
10
10271.4465
20
9459.0401
30
0.0
0
VERTEX
8
C-ROAD-ROW-EDGE
10
10276.4735
20
9458.6736
30
0.0
0
VERTEX
8
C-ROAD-ROW-EDGE
10
10281.4943
20
9458.2302
30
0.0
0
VERTEX
8
C-ROAD-ROW-EDGE
10
10286.5077
20
9457.7100
30
0.0
0
VERTEX
8
C-ROAD-ROW-EDGE
10
10291.5125
20
9457.1132
30
0.0
0
VERTEX
8
C-ROAD-ROW-EDGE
10
10296.5077
20
9456.4398
30
0.0
0
VERTEX
8
C-ROAD-ROW-EDGE
10
10301.4919
20
9455.6900
30
0.0
0
VERTEX
8
C-ROAD-ROW-EDGE
10
10306.4641
20
9454.8640
30
0.0
0
VERTEX
8
C-ROAD-ROW-EDGE
10
10311.4231
20
9453.9620
30
0.0
0
VERTEX
8
C-ROAD-ROW-EDGE
10
10316.3676
20
9452.9841
30
0.0
0
VERTEX
8
C-ROAD-ROW-EDGE
10
10321.2966
20
9451.9308
30
0.0
0
VERTEX
8
C-ROAD-ROW-EDGE
10
10326.2089
20
9450.8021
30
0.0
0
VERTEX
8
C-ROAD-ROW-EDGE
10
10331.1034
20
9449.5983
30
0.0
0
VERTEX
8
C-ROAD-ROW-EDGE
10
10335.9789
20
9448.3197
30
0.0
0
VERTEX
8
C-ROAD-ROW-EDGE
10
10340.8342
20
9446.9667
30
0.0
0
VERTEX
8
C-ROAD-ROW-EDGE
10
10345.6682
20
9445.5395
30
0.0
0
VERTEX
8
C-ROAD-ROW-EDGE
10
10350.4799
20
9444.0385
30
0.0
0
VERTEX
8
C-ROAD-ROW-EDGE
10
10355.2680
20
9442.4640
30
0.0
0
VERTEX
8
C-ROAD-ROW-EDGE
10
10360.0314
20
9440.8164
30
0.0
0
VERTEX
8
C-ROAD-ROW-EDGE
10
10364.7690
20
9439.0961
30
0.0
0
VERTEX
8
C-ROAD-ROW-EDGE
10
10369.4798
20
9437.3034
30
0.0
0
VERTEX
8
C-ROAD-ROW-EDGE
10
10374.1626
20
9435.4389
30
0.0
0
VERTEX
8
C-ROAD-ROW-EDGE
10
10378.8162
20
9433.5029
30
0.0
0
VERTEX
8
C-ROAD-ROW-EDGE
10
10383.4397
20
9431.4959
30
0.0
0
VERTEX
8
C-ROAD-ROW-EDGE
10
10388.0320
20
9429.4183
30
0.0
0
VERTEX
8
C-ROAD-ROW-EDGE
10
10392.5919
20
9427.2707
30
0.0
0
VERTEX
8
C-ROAD-ROW-EDGE
10
10397.1183
20
9425.0536
30
0.0
0
VERTEX
8
C-ROAD-ROW-EDGE
10
10401.6104
20
9422.7674
30
0.0
0
VERTEX
8
C-ROAD-ROW-EDGE
10
10406.0669
20
9420.4127
30
0.0
0
VERTEX
8
C-ROAD-ROW-EDGE
10
10410.4868
20
9417.9901
30
0.0
0
VERTEX
8
C-ROAD-ROW-EDGE
10
10414.8691
20
9415.5001
30
0.0
0
VERTEX
8
C-ROAD-ROW-EDGE
10
10419.2128
20
9412.9434
30
0.0
0
VERTEX
8
C-ROAD-ROW-EDGE
10
10423.5169
20
9410.3204
30
0.0
0
VERTEX
8
C-ROAD-ROW-EDGE
10
10427.7803
20
9407.6319
30
0.0
0
VERTEX
8
C-ROAD-ROW-EDGE
10
10432.0021
20
9404.8784
30
0.0
0
VERTEX
8
C-ROAD-ROW-EDGE
10
10436.1812
20
9402.0606
30
0.0
0
VERTEX
8
C-ROAD-ROW-EDGE
10
10440.3166
20
9399.1792
30
0.0
0
SEQEND
0
POLYLINE
8
C-ROAD-ROW-EDGE
66
1
70
0
0
VERTEX
8
C-ROAD-ROW-EDGE
10
10233.6619
20
9519.3942
30
0.0
0
VERTEX
8
C-ROAD-ROW-EDGE
10
10238.6828
20
9519.5729
30
0.0
0
VERTEX
8
C-ROAD-ROW-EDGE
10
10243.7056
20
9519.6868
30
0.0
0
VERTEX
8
C-ROAD-ROW-EDGE
10
10248.7294
20
9519.7359
30
0.0
0
VERTEX
8
C-ROAD-ROW-EDGE
10
10253.7535
20
9519.7201
30
0.0
0
VERTEX
8
C-ROAD-ROW-EDGE
10
10258.7769
20
9519.6395
30
0.0
0
VERTEX
8
C-ROAD-ROW-EDGE
10
10263.7989
20
9519.4941
30
0.0
0
VERTEX
8
C-ROAD-ROW-EDGE
10
10268.8186
20
9519.2838
30
0.0
0
VERTEX
8
C-ROAD-ROW-EDGE
10
10273.8351
20
9519.0088
30
0.0
0
VERTEX
8
C-ROAD-ROW-EDGE
10
10278.8477
20
9518.6691
30
0.0
0
VERTEX
8
C-ROAD-ROW-EDGE
10
10283.8555
20
9518.2647
30
0.0
0
VERTEX
8
C-ROAD-ROW-EDGE
10
10288.8576
20
9517.7957
30
0.0
0
VERTEX
8
C-ROAD-ROW-EDGE
10
10293.8533
20
9517.2622
30
0.0
0
VERTEX
8
C-ROAD-ROW-EDGE
10
10298.8417
20
9516.6642
30
0.0
0
VERTEX
8
C-ROAD-ROW-EDGE
10
10303.8219
20
9516.0020
30
0.0
0
VERTEX
8
C-ROAD-ROW-EDGE
10
10308.7932
20
9515.2755
30
0.0
0
VERTEX
8
C-ROAD-ROW-EDGE
10
10313.7547
20
9514.4849
30
0.0
0
VERTEX
8
C-ROAD-ROW-EDGE
10
10318.7055
20
9513.6303
30
0.0
0
VERTEX
8
C-ROAD-ROW-EDGE
10
10323.6449
20
9512.7119
30
0.0
0
VERTEX
8
C-ROAD-ROW-EDGE
10
10328.5721
20
9511.7299
30
0.0
0
VERTEX
8
C-ROAD-ROW-EDGE
10
10333.4862
20
9510.6843
30
0.0
0
VERTEX
8
C-ROAD-ROW-EDGE
10
10338.3864
20
9509.5754
30
0.0
0
VERTEX
8
C-ROAD-ROW-EDGE
10
10343.2718
20
9508.4034
30
0.0
0
VERTEX
8
C-ROAD-ROW-EDGE
10
10348.1417
20
9507.1684
30
0.0
0
VERTEX
8
C-ROAD-ROW-EDGE
10
10352.9953
20
9505.8706
30
0.0
0
VERTEX
8
C-ROAD-ROW-EDGE
10
10357.8317
20
9504.5103
30
0.0
0
VERTEX
8
C-ROAD-ROW-EDGE
10
10362.6502
20
9503.0877
30
0.0
0
VERTEX
8
C-ROAD-ROW-EDGE
10
10367.4499
20
9501.6031
30
0.0
0
VERTEX
8
C-ROAD-ROW-EDGE
10
10372.2300
20
9500.0566
30
0.0
0
VERTEX
8
C-ROAD-ROW-EDGE
10
10376.9898
20
9498.4485
30
0.0
0
VERTEX
8
C-ROAD-ROW-EDGE
10
10381.7285
20
9496.7792
30
0.0
0
VERTEX
8
C-ROAD-ROW-EDGE
10
10386.4452
20
9495.0488
30
0.0
0
VERTEX
8
C-ROAD-ROW-EDGE
10
10391.1391
20
9493.2577
30
0.0
0
VERTEX
8
C-ROAD-ROW-EDGE
10
10395.8096
20
9491.4062
30
0.0
0
VERTEX
8
C-ROAD-ROW-EDGE
10
10400.4558
20
9489.4945
30
0.0
0
VERTEX
8
C-ROAD-ROW-EDGE
10
10405.0769
20
9487.5231
30
0.0
0
VERTEX
8
C-ROAD-ROW-EDGE
10
10409.6722
20
9485.4922
30
0.0
0
VERTEX
8
C-ROAD-ROW-EDGE
10
10414.2409
20
9483.4021
30
0.0
0
VERTEX
8
C-ROAD-ROW-EDGE
10
10418.7822
20
9481.2532
30
0.0
0
VERTEX
8
C-ROAD-ROW-EDGE
10
10423.2954
20
9479.0459
30
0.0
0
VERTEX
8
C-ROAD-ROW-EDGE
10
10427.7798
20
9476.7806
30
0.0
0
VERTEX
8
C-ROAD-ROW-EDGE
10
10432.2345
20
9474.4575
30
0.0
0
VERTEX
8
C-ROAD-ROW-EDGE
10
10436.6589
20
9472.0772
30
0.0
0
VERTEX
8
C-ROAD-ROW-EDGE
10
10441.0523
20
9469.6399
30
0.0
0
VERTEX
8
C-ROAD-ROW-EDGE
10
10445.4137
20
9467.1462
30
0.0
0
VERTEX
8
C-ROAD-ROW-EDGE
10
10449.7427
20
9464.5964
30
0.0
0
VERTEX
8
C-ROAD-ROW-EDGE
10
10454.0384
20
9461.9909
30
0.0
0
VERTEX
8
C-ROAD-ROW-EDGE
10
10458.3001
20
9459.3302
30
0.0
0
VERTEX
8
C-ROAD-ROW-EDGE
10
10462.5270
20
9456.6147
30
0.0
0
VERTEX
8
C-ROAD-ROW-EDGE
10
10466.7186
20
9453.8449
30
0.0
0
VERTEX
8
C-ROAD-ROW-EDGE
10
10470.8741
20
9451.0212
30
0.0
0
VERTEX
8
C-ROAD-ROW-EDGE
10
10474.9929
20
9448.1441
30
0.0
0
SEQEND
0
POLYLINE
8
C-ROAD-ROW-EDGE
66
1
70
0
0
VERTEX
8
C-ROAD-ROW-EDGE
10
10474.9929
20
9448.1441
30
0.0
0
VERTEX
8
C-ROAD-ROW-EDGE
10
10474.9998
20
9448.1392
30
0.0
0
SEQEND
0
POLYLINE
8
C-ROAD-ROW-EDGE
66
1
70
0
0
VERTEX
8
C-ROAD-ROW-EDGE
10
10564.7688
20
9384.5661
30
0.0
0
VERTEX
8
C-ROAD-ROW-EDGE
10
10809.5994
20
9211.1807
30
0.0
0
SEQEND
0
POLYLINE
8
C-ROAD-ROW-EDGE
66
1
70
0
0
VERTEX
8
C-ROAD-ROW-EDGE
10
10899.3684
20
9147.6077
30
0.0
0
VERTEX
8
C-ROAD-ROW-EDGE
10
11075.6831
20
9022.7443
30
0.0
0
SEQEND
0
POLYLINE
8
C-ROAD-ROW-EDGE
66
1
70
0
0
VERTEX
8
C-ROAD-ROW-EDGE
10
10440.3166
20
9399.1792
30
0.0
0
VERTEX
8
C-ROAD-ROW-EDGE
10
11041.0069
20
8973.7794
30
0.0
0
SEQEND
0
POLYLINE
8
C-ROAD-ROW-EDGE
66
1
70
0
0
VERTEX
8
C-ROAD-ROW-EDGE
10
10558.8072
20
9419.4054
30
0.0
0
VERTEX
8
C-ROAD-ROW-EDGE
10
10558.8112
20
9419.4110
30
0.0
0
VERTEX
8
C-ROAD-ROW-EDGE
10
10558.8151
20
9419.4166
30
0.0
0
SEQEND
0
POLYLINE
8
C-ROAD-ROW-EDGE
66
1
70
0
0
VERTEX
8
C-ROAD-ROW-EDGE
10
10558.8151
20
9419.4166
30
0.0
0
VERTEX
8
C-ROAD-ROW-EDGE
10
10561.7998
20
9423.4712
30
0.0
0
VERTEX
8
C-ROAD-ROW-EDGE
10
10564.9304
20
9427.4143
30
0.0
0
VERTEX
8
C-ROAD-ROW-EDGE
10
10568.2028
20
9431.2405
30
0.0
0
VERTEX
8
C-ROAD-ROW-EDGE
10
10571.6126
20
9434.9447
30
0.0
0
VERTEX
8
C-ROAD-ROW-EDGE
10
10575.1554
20
9438.5220
30
0.0
0
VERTEX
8
C-ROAD-ROW-EDGE
10
10578.8263
20
9441.9677
30
0.0
0
VERTEX
8
C-ROAD-ROW-EDGE
10
10582.6205
20
9445.2771
30
0.0
0
VERTEX
8
C-ROAD-ROW-EDGE
10
10586.5329
20
9448.4458
30
0.0
0
VERTEX
8
C-ROAD-ROW-EDGE
10
10590.5584
20
9451.4697
30
0.0
0
VERTEX
8
C-ROAD-ROW-EDGE
10
10594.6915
20
9454.3447
30
0.0
0
VERTEX
8
C-ROAD-ROW-EDGE
10
10598.9268
20
9457.0669
30
0.0
0
VERTEX
8
C-ROAD-ROW-EDGE
10
10603.2586
20
9459.6328
30
0.0
0
VERTEX
8
C-ROAD-ROW-EDGE
10
10607.6812
20
9462.0389
30
0.0
0
VERTEX
8
C-ROAD-ROW-EDGE
10
10612.1886
20
9464.2820
30
0.0
0
VERTEX
8
C-ROAD-ROW-EDGE
10
10616.7748
20
9466.3592
30
0.0
0
VERTEX
8
C-ROAD-ROW-EDGE
10
10621.4338
20
9468.2676
30
0.0
0
VERTEX
8
C-ROAD-ROW-EDGE
10
10626.1594
20
9470.0047
30
0.0
0
VERTEX
8
C-ROAD-ROW-EDGE
10
10630.9451
20
9471.5683
30
0.0
0
VERTEX
8
C-ROAD-ROW-EDGE
10
10635.7848
20
9472.9561
30
0.0
0
VERTEX
8
C-ROAD-ROW-EDGE
10
10640.6718
20
9474.1664
30
0.0
0
VERTEX
8
C-ROAD-ROW-EDGE
10
10645.5998
20
9475.1976
30
0.0
0
VERTEX
8
C-ROAD-ROW-EDGE
10
10650.5621
20
9476.0483
30
0.0
0
VERTEX
8
C-ROAD-ROW-EDGE
10
10655.5522
20
9476.7174
30
0.0
0
VERTEX
8
C-ROAD-ROW-EDGE
10
10660.5633
20
9477.2039
30
0.0
0
VERTEX
8
C-ROAD-ROW-EDGE
10
10665.5889
20
9477.5072
30
0.0
0
SEQEND
0
POLYLINE
8
C-ROAD-ROW-EDGE
66
1
70
0
0
VERTEX
8
C-ROAD-ROW-EDGE
10
10509.8502
20
9454.0928
30
0.0
0
VERTEX
8
C-ROAD-ROW-EDGE
10
10512.8019
20
9458.1501
30
0.0
0
VERTEX
8
C-ROAD-ROW-EDGE
10
10515.8554
20
9462.1312
30
0.0
0
VERTEX
8
C-ROAD-ROW-EDGE
10
10519.0088
20
9466.0337
30
0.0
0
VERTEX
8
C-ROAD-ROW-EDGE
10
10522.2602
20
9469.8550
30
0.0
0
VERTEX
8
C-ROAD-ROW-EDGE
10
10525.6073
20
9473.5927
30
0.0
0
VERTEX
8
C-ROAD-ROW-EDGE
10
10529.0481
20
9477.2443
30
0.0
0
VERTEX
8
C-ROAD-ROW-EDGE
10
10532.5803
20
9480.8076
30
0.0
0
VERTEX
8
C-ROAD-ROW-EDGE
10
10536.2017
20
9484.2802
30
0.0
0
VERTEX
8
C-ROAD-ROW-EDGE
10
10539.9100
20
9487.6599
30
0.0
0
VERTEX
8
C-ROAD-ROW-EDGE
10
10543.7027
20
9490.9446
30
0.0
0
VERTEX
8
C-ROAD-ROW-EDGE
10
10547.5774
20
9494.1320
30
0.0
0
VERTEX
8
C-ROAD-ROW-EDGE
10
10551.5317
20
9497.2202
30
0.0
0
VERTEX
8
C-ROAD-ROW-EDGE
10
10555.5630
20
9500.2073
30
0.0
0
VERTEX
8
C-ROAD-ROW-EDGE
10
10559.6687
20
9503.0911
30
0.0
0
VERTEX
8
C-ROAD-ROW-EDGE
10
10563.8462
20
9505.8701
30
0.0
0
VERTEX
8
C-ROAD-ROW-EDGE
10
10568.0927
20
9508.5422
30
0.0
0
VERTEX
8
C-ROAD-ROW-EDGE
10
10572.4056
20
9511.1058
30
0.0
0
VERTEX
8
C-ROAD-ROW-EDGE
10
10576.7821
20
9513.5594
30
0.0
0
VERTEX
8
C-ROAD-ROW-EDGE
10
10581.2194
20
9515.9012
30
0.0
0
VERTEX
8
C-ROAD-ROW-EDGE
10
10585.7146
20
9518.1298
30
0.0
0
VERTEX
8
C-ROAD-ROW-EDGE
10
10590.2649
20
9520.2437
30
0.0
0
VERTEX
8
C-ROAD-ROW-EDGE
10
10594.8672
20
9522.2417
30
0.0
0
VERTEX
8
C-ROAD-ROW-EDGE
10
10599.5187
20
9524.1224
30
0.0
0
VERTEX
8
C-ROAD-ROW-EDGE
10
10604.2164
20
9525.8845
30
0.0
0
VERTEX
8
C-ROAD-ROW-EDGE
10
10608.9573
20
9527.5271
30
0.0
0
VERTEX
8
C-ROAD-ROW-EDGE
10
10613.7382
20
9529.0490
30
0.0
0
VERTEX
8
C-ROAD-ROW-EDGE
10
10618.5562
20
9530.4492
30
0.0
0
VERTEX
8
C-ROAD-ROW-EDGE
10
10623.4081
20
9531.7268
30
0.0
0
VERTEX
8
C-ROAD-ROW-EDGE
10
10628.2909
20
9532.8811
30
0.0
0
VERTEX
8
C-ROAD-ROW-EDGE
10
10633.2013
20
9533.9113
30
0.0
0
VERTEX
8
C-ROAD-ROW-EDGE
10
10638.1362
20
9534.8166
30
0.0
0
VERTEX
8
C-ROAD-ROW-EDGE
10
10643.0926
20
9535.5966
30
0.0
0
VERTEX
8
C-ROAD-ROW-EDGE
10
10648.0671
20
9536.2508
30
0.0
0
VERTEX
8
C-ROAD-ROW-EDGE
10
10653.0565
20
9536.7786
30
0.0
0
VERTEX
8
C-ROAD-ROW-EDGE
10
10658.0578
20
9537.1798
30
0.0
0
VERTEX
8
C-ROAD-ROW-EDGE
10
10663.0676
20
9537.4542
30
0.0
0
SEQEND
0
POLYLINE
8
C-ROAD-ROW-EDGE
66
1
70
0
0
VERTEX
8
C-ROAD-ROW-EDGE
10
10663.0676
20
9537.4542
30
0.0
0
VERTEX
8
C-ROAD-ROW-EDGE
10
11341.4348
20
9565.9850
30
0.0
0
SEQEND
0
POLYLINE
8
C-ROAD-ROW-EDGE
66
1
70
0
0
VERTEX
8
C-ROAD-ROW-EDGE
10
10665.5889
20
9477.5072
30
0.0
0
VERTEX
8
C-ROAD-ROW-EDGE
10
11340.6675
20
9505.8997
30
0.0
0
SEQEND
0
POLYLINE
8
C-ROAD-ROW-EDGE
66
1
70
0
0
VERTEX
8
C-ROAD-ROW-EDGE
10
10844.4499
20
9217.1343
30
0.0
0
VERTEX
8
C-ROAD-ROW-EDGE
10
10844.5412
20
9217.2633
30
0.0
0
SEQEND
0
POLYLINE
8
C-ROAD-ROW-EDGE
66
1
70
0
0
VERTEX
8
C-ROAD-ROW-EDGE
10
10893.4148
20
9182.4581
30
0.0
0
VERTEX
8
C-ROAD-ROW-EDGE
10
10893.5061
20
9182.5871
30
0.0
0
SEQEND
0
POLYLINE
8
C-ROAD-ROW-EDGE
66
1
70
0
0
VERTEX
8
C-ROAD-ROW-EDGE
10
10893.5061
20
9182.5871
30
0.0
0
VERTEX
8
C-ROAD-ROW-EDGE
10
10896.6062
20
9186.7595
30
0.0
0
VERTEX
8
C-ROAD-ROW-EDGE
10
10899.8934
20
9190.7861
30
0.0
0
VERTEX
8
C-ROAD-ROW-EDGE
10
10903.3608
20
9194.6585
30
0.0
0
VERTEX
8
C-ROAD-ROW-EDGE
10
10907.0012
20
9198.3688
30
0.0
0
VERTEX
8
C-ROAD-ROW-EDGE
10
10910.8071
20
9201.9092
30
0.0
0
VERTEX
8
C-ROAD-ROW-EDGE
10
10914.7705
20
9205.2722
30
0.0
0
VERTEX
8
C-ROAD-ROW-EDGE
10
10918.8832
20
9208.4511
30
0.0
0
VERTEX
8
C-ROAD-ROW-EDGE
10
10923.1366
20
9211.4390
30
0.0
0
VERTEX
8
C-ROAD-ROW-EDGE
10
10927.5218
20
9214.2298
30
0.0
0
VERTEX
8
C-ROAD-ROW-EDGE
10
10932.0298
20
9216.8176
30
0.0
0
VERTEX
8
C-ROAD-ROW-EDGE
10
10936.6511
20
9219.1972
30
0.0
0
VERTEX
8
C-ROAD-ROW-EDGE
10
10941.3762
20
9221.3635
30
0.0
0
VERTEX
8
C-ROAD-ROW-EDGE
10
10946.1951
20
9223.3120
30
0.0
0
VERTEX
8
C-ROAD-ROW-EDGE
10
10951.0979
20
9225.0386
30
0.0
0
VERTEX
8
C-ROAD-ROW-EDGE
10
10956.0744
20
9226.5399
30
0.0
0
VERTEX
8
C-ROAD-ROW-EDGE
10
10961.1142
20
9227.8126
30
0.0
0
VERTEX
8
C-ROAD-ROW-EDGE
10
10966.2067
20
9228.8541
30
0.0
0
VERTEX
8
C-ROAD-ROW-EDGE
10
10971.3415
20
9229.6622
30
0.0
0
VERTEX
8
C-ROAD-ROW-EDGE
10
10976.5078
20
9230.2353
30
0.0
0
VERTEX
8
C-ROAD-ROW-EDGE
10
10981.6948
20
9230.5722
30
0.0
0
SEQEND
0
POLYLINE
8
C-ROAD-ROW-EDGE
66
1
70
0
0
VERTEX
8
C-ROAD-ROW-EDGE
10
10844.5412
20
9217.2633
30
0.0
0
VERTEX
8
C-ROAD-ROW-EDGE
10
10847.5614
20
9221.3976
30
0.0
0
VERTEX
8
C-ROAD-ROW-EDGE
10
10850.7019
20
9225.4411
30
0.0
0
VERTEX
8
C-ROAD-ROW-EDGE
10
10853.9601
20
9229.3905
30
0.0
0
VERTEX
8
C-ROAD-ROW-EDGE
10
10857.3331
20
9233.2423
30
0.0
0
VERTEX
8
C-ROAD-ROW-EDGE
10
10860.8180
20
9236.9931
30
0.0
0
VERTEX
8
C-ROAD-ROW-EDGE
10
10864.4118
20
9240.6397
30
0.0
0
VERTEX
8
C-ROAD-ROW-EDGE
10
10868.1114
20
9244.1790
30
0.0
0
VERTEX
8
C-ROAD-ROW-EDGE
10
10871.9136
20
9247.6078
30
0.0
0
VERTEX
8
C-ROAD-ROW-EDGE
10
10875.8150
20
9250.9232
30
0.0
0
VERTEX
8
C-ROAD-ROW-EDGE
10
10879.8123
20
9254.1224
30
0.0
0
VERTEX
8
C-ROAD-ROW-EDGE
10
10883.9021
20
9257.2025
30
0.0
0
VERTEX
8
C-ROAD-ROW-EDGE
10
10888.0807
20
9260.1610
30
0.0
0
VERTEX
8
C-ROAD-ROW-EDGE
10
10892.3446
20
9262.9951
30
0.0
0
VERTEX
8
C-ROAD-ROW-EDGE
10
10896.6901
20
9265.7025
30
0.0
0
VERTEX
8
C-ROAD-ROW-EDGE
10
10901.1134
20
9268.2809
30
0.0
0
VERTEX
8
C-ROAD-ROW-EDGE
10
10905.6106
20
9270.7279
30
0.0
0
VERTEX
8
C-ROAD-ROW-EDGE
10
10910.1780
20
9273.0415
30
0.0
0
VERTEX
8
C-ROAD-ROW-EDGE
10
10914.8114
20
9275.2197
30
0.0
0
VERTEX
8
C-ROAD-ROW-EDGE
10
10919.5070
20
9277.2605
30
0.0
0
VERTEX
8
C-ROAD-ROW-EDGE
10
10924.2606
20
9279.1623
30
0.0
0
VERTEX
8
C-ROAD-ROW-EDGE
10
10929.0681
20
9280.9233
30
0.0
0
VERTEX
8
C-ROAD-ROW-EDGE
10
10933.9253
20
9282.5421
30
0.0
0
VERTEX
8
C-ROAD-ROW-EDGE
10
10938.8281
20
9284.0172
30
0.0
0
VERTEX
8
C-ROAD-ROW-EDGE
10
10943.7722
20
9285.3473
30
0.0
0
VERTEX
8
C-ROAD-ROW-EDGE
10
10948.7533
20
9286.5314
30
0.0
0
VERTEX
8
C-ROAD-ROW-EDGE
10
10953.7671
20
9287.5683
30
0.0
0
VERTEX
8
C-ROAD-ROW-EDGE
10
10958.8092
20
9288.4572
30
0.0
0
VERTEX
8
C-ROAD-ROW-EDGE
10
10963.8753
20
9289.1973
30
0.0
0
VERTEX
8
C-ROAD-ROW-EDGE
10
10968.9610
20
9289.7880
30
0.0
0
VERTEX
8
C-ROAD-ROW-EDGE
10
10974.0619
20
9290.2288
30
0.0
0
VERTEX
8
C-ROAD-ROW-EDGE
10
10979.1736
20
9290.5192
30
0.0
0
SEQEND
0
POLYLINE
8
C-ROAD-ROW-EDGE
66
1
70
0
0
VERTEX
8
C-ROAD-ROW-EDGE
10
10979.1736
20
9290.5192
30
0.0
0
VERTEX
8
C-ROAD-ROW-EDGE
10
11344.5874
20
9305.8878
30
0.0
0
SEQEND
0
POLYLINE
8
C-ROAD-ROW-EDGE
66
1
70
0
0
VERTEX
8
C-ROAD-ROW-EDGE
10
10981.6948
20
9230.5722
30
0.0
0
VERTEX
8
C-ROAD-ROW-EDGE
10
11343.8201
20
9245.8025
30
0.0
0
SEQEND
0
POLYLINE
8
C-ROAD-ROW-EDGE
66
1
70
0
0
VERTEX
8
C-ROAD-ROW-EDGE
10
10081.7547
20
9251.4902
30
0.0
0
VERTEX
8
C-ROAD-ROW-EDGE
10
10136.7458
20
9252.4768
30
0.0
0
SEQEND
0
POLYLINE
8
C-ROAD-ROW-EDGE
66
1
70
0
0
VERTEX
8
C-ROAD-ROW-EDGE
10
10082.8309
20
9191.4999
30
0.0
0
VERTEX
8
C-ROAD-ROW-EDGE
10
10137.8221
20
9192.4864
30
0.0
0
SEQEND
0
POLYLINE
8
C-ROAD-ROW-EDGE
66
1
70
0
0
VERTEX
8
C-ROAD-ROW-EDGE
10
10137.8221
20
9192.4864
30
0.0
0
VERTEX
8
C-ROAD-ROW-EDGE
10
10142.8637
20
9192.5473
30
0.0
0
VERTEX
8
C-ROAD-ROW-EDGE
10
10147.9058
20
9192.5489
30
0.0
0
VERTEX
8
C-ROAD-ROW-EDGE
10
10152.9475
20
9192.4913
30
0.0
0
VERTEX
8
C-ROAD-ROW-EDGE
10
10157.9882
20
9192.3745
30
0.0
0
VERTEX
8
C-ROAD-ROW-EDGE
10
10163.0272
20
9192.1986
30
0.0
0
VERTEX
8
C-ROAD-ROW-EDGE
10
10168.0638
20
9191.9634
30
0.0
0
VERTEX
8
C-ROAD-ROW-EDGE
10
10173.0973
20
9191.6692
30
0.0
0
VERTEX
8
C-ROAD-ROW-EDGE
10
10178.1269
20
9191.3158
30
0.0
0
VERTEX
8
C-ROAD-ROW-EDGE
10
10183.1521
20
9190.9035
30
0.0
0
VERTEX
8
C-ROAD-ROW-EDGE
10
10188.1721
20
9190.4321
30
0.0
0
VERTEX
8
C-ROAD-ROW-EDGE
10
10193.1862
20
9189.9018
30
0.0
0
VERTEX
8
C-ROAD-ROW-EDGE
10
10198.1937
20
9189.3127
30
0.0
0
VERTEX
8
C-ROAD-ROW-EDGE
10
10203.1940
20
9188.6648
30
0.0
0
VERTEX
8
C-ROAD-ROW-EDGE
10
10208.1863
20
9187.9582
30
0.0
0
VERTEX
8
C-ROAD-ROW-EDGE
10
10213.1699
20
9187.1931
30
0.0
0
VERTEX
8
C-ROAD-ROW-EDGE
10
10218.1443
20
9186.3695
30
0.0
0
VERTEX
8
C-ROAD-ROW-EDGE
10
10223.1086
20
9185.4875
30
0.0
0
VERTEX
8
C-ROAD-ROW-EDGE
10
10228.0622
20
9184.5473
30
0.0
0
VERTEX
8
C-ROAD-ROW-EDGE
10
10233.0045
20
9183.5490
30
0.0
0
VERTEX
8
C-ROAD-ROW-EDGE
10
10237.9346
20
9182.4928
30
0.0
0
VERTEX
8
C-ROAD-ROW-EDGE
10
10242.8521
20
9181.3787
30
0.0
0
VERTEX
8
C-ROAD-ROW-EDGE
10
10247.7561
20
9180.2069
30
0.0
0
VERTEX
8
C-ROAD-ROW-EDGE
10
10252.6460
20
9178.9776
30
0.0
0
VERTEX
8
C-ROAD-ROW-EDGE
10
10257.5211
20
9177.6910
30
0.0
0
VERTEX
8
C-ROAD-ROW-EDGE
10
10262.3808
20
9176.3473
30
0.0
0
VERTEX
8
C-ROAD-ROW-EDGE
10
10267.2244
20
9174.9465
30
0.0
0
VERTEX
8
C-ROAD-ROW-EDGE
10
10272.0512
20
9173.4890
30
0.0
0
VERTEX
8
C-ROAD-ROW-EDGE
10
10276.8606
20
9171.9749
30
0.0
0
VERTEX
8
C-ROAD-ROW-EDGE
10
10281.6518
20
9170.4044
30
0.0
0
VERTEX
8
C-ROAD-ROW-EDGE
10
10286.4243
20
9168.7778
30
0.0
0
VERTEX
8
C-ROAD-ROW-EDGE
10
10291.1773
20
9167.0952
30
0.0
0
VERTEX
8
C-ROAD-ROW-EDGE
10
10295.9103
20
9165.3570
30
0.0
0
VERTEX
8
C-ROAD-ROW-EDGE
10
10300.6225
20
9163.5632
30
0.0
0
VERTEX
8
C-ROAD-ROW-EDGE
10
10305.3133
20
9161.7143
30
0.0
0
VERTEX
8
C-ROAD-ROW-EDGE
10
10309.9821
20
9159.8104
30
0.0
0
VERTEX
8
C-ROAD-ROW-EDGE
10
10314.6282
20
9157.8518
30
0.0
0
VERTEX
8
C-ROAD-ROW-EDGE
10
10319.2510
20
9155.8388
30
0.0
0
VERTEX
8
C-ROAD-ROW-EDGE
10
10323.8498
20
9153.7717
30
0.0
0
VERTEX
8
C-ROAD-ROW-EDGE
10
10328.4240
20
9151.6507
30
0.0
0
VERTEX
8
C-ROAD-ROW-EDGE
10
10332.9731
20
9149.4761
30
0.0
0
VERTEX
8
C-ROAD-ROW-EDGE
10
10337.4962
20
9147.2482
30
0.0
0
VERTEX
8
C-ROAD-ROW-EDGE
10
10341.9929
20
9144.9674
30
0.0
0
VERTEX
8
C-ROAD-ROW-EDGE
10
10346.4625
20
9142.6340
30
0.0
0
VERTEX
8
C-ROAD-ROW-EDGE
10
10350.9044
20
9140.2482
30
0.0
0
VERTEX
8
C-ROAD-ROW-EDGE
10
10355.3180
20
9137.8104
30
0.0
0
VERTEX
8
C-ROAD-ROW-EDGE
10
10359.7026
20
9135.3209
30
0.0
0
VERTEX
8
C-ROAD-ROW-EDGE
10
10364.0577
20
9132.7802
30
0.0
0
VERTEX
8
C-ROAD-ROW-EDGE
10
10368.3827
20
9130.1884
30
0.0
0
VERTEX
8
C-ROAD-ROW-EDGE
10
10372.6769
20
9127.5461
30
0.0
0
VERTEX
8
C-ROAD-ROW-EDGE
10
10376.9398
20
9124.8535
30
0.0
0
VERTEX
8
C-ROAD-ROW-EDGE
10
10381.1708
20
9122.1111
30
0.0
0
VERTEX
8
C-ROAD-ROW-EDGE
10
10385.3693
20
9119.3191
30
0.0
0
VERTEX
8
C-ROAD-ROW-EDGE
10
10389.5347
20
9116.4781
30
0.0
0
VERTEX
8
C-ROAD-ROW-EDGE
10
10393.6665
20
9113.5883
30
0.0
0
SEQEND
0
POLYLINE
8
C-ROAD-ROW-EDGE
66
1
70
0
0
VERTEX
8
C-ROAD-ROW-EDGE
10
10136.7458
20
9252.4768
30
0.0
0
VERTEX
8
C-ROAD-ROW-EDGE
10
10141.7506
20
9252.5409
30
0.0
0
VERTEX
8
C-ROAD-ROW-EDGE
10
10146.7557
20
9252.5539
30
0.0
0
VERTEX
8
C-ROAD-ROW-EDGE
10
10151.7607
20
9252.5157
30
0.0
0
VERTEX
8
C-ROAD-ROW-EDGE
10
10156.7651
20
9252.4264
30
0.0
0
VERTEX
8
C-ROAD-ROW-EDGE
10
10161.7683
20
9252.2858
30
0.0
0
VERTEX
8
C-ROAD-ROW-EDGE
10
10166.7697
20
9252.0941
30
0.0
0
VERTEX
8
C-ROAD-ROW-EDGE
10
10171.7690
20
9251.8512
30
0.0
0
VERTEX
8
C-ROAD-ROW-EDGE
10
10176.7655
20
9251.5572
30
0.0
0
VERTEX
8
C-ROAD-ROW-EDGE
10
10181.7588
20
9251.2121
30
0.0
0
VERTEX
8
C-ROAD-ROW-EDGE
10
10186.7482
20
9250.8160
30
0.0
0
VERTEX
8
C-ROAD-ROW-EDGE
10
10191.7333
20
9250.3688
30
0.0
0
VERTEX
8
C-ROAD-ROW-EDGE
10
10196.7137
20
9249.8707
30
0.0
0
VERTEX
8
C-ROAD-ROW-EDGE
10
10201.6886
20
9249.3217
30
0.0
0
VERTEX
8
C-ROAD-ROW-EDGE
10
10206.6577
20
9248.7218
30
0.0
0
VERTEX
8
C-ROAD-ROW-EDGE
10
10211.6204
20
9248.0712
30
0.0
0
VERTEX
8
C-ROAD-ROW-EDGE
10
10216.5761
20
9247.3698
30
0.0
0
VERTEX
8
C-ROAD-ROW-EDGE
10
10221.5245
20
9246.6177
30
0.0
0
VERTEX
8
C-ROAD-ROW-EDGE
10
10226.4648
20
9245.8151
30
0.0
0
VERTEX
8
C-ROAD-ROW-EDGE
10
10231.3968
20
9244.9620
30
0.0
0
VERTEX
8
C-ROAD-ROW-EDGE
10
10236.3197
20
9244.0585
30
0.0
0
VERTEX
8
C-ROAD-ROW-EDGE
10
10241.2331
20
9243.1047
30
0.0
0
VERTEX
8
C-ROAD-ROW-EDGE
10
10246.1366
20
9242.1007
30
0.0
0
VERTEX
8
C-ROAD-ROW-EDGE
10
10251.0295
20
9241.0466
30
0.0
0
VERTEX
8
C-ROAD-ROW-EDGE
10
10255.9113
20
9239.9425
30
0.0
0
VERTEX
8
C-ROAD-ROW-EDGE
10
10260.7816
20
9238.7886
30
0.0
0
VERTEX
8
C-ROAD-ROW-EDGE
10
10265.6399
20
9237.5849
30
0.0
0
VERTEX
8
C-ROAD-ROW-EDGE
10
10270.4856
20
9236.3315
30
0.0
0
VERTEX
8
C-ROAD-ROW-EDGE
10
10275.3182
20
9235.0287
30
0.0
0
VERTEX
8
C-ROAD-ROW-EDGE
10
10280.1372
20
9233.6765
30
0.0
0
VERTEX
8
C-ROAD-ROW-EDGE
10
10284.9422
20
9232.2751
30
0.0
0
VERTEX
8
C-ROAD-ROW-EDGE
10
10289.7326
20
9230.8246
30
0.0
0
VERTEX
8
C-ROAD-ROW-EDGE
10
10294.5078
20
9229.3252
30
0.0
0
VERTEX
8
C-ROAD-ROW-EDGE
10
10299.2675
20
9227.7770
30
0.0
0
VERTEX
8
C-ROAD-ROW-EDGE
10
10304.0112
20
9226.1803
30
0.0
0
VERTEX
8
C-ROAD-ROW-EDGE
10
10308.7382
20
9224.5351
30
0.0
0
VERTEX
8
C-ROAD-ROW-EDGE
10
10313.4482
20
9222.8416
30
0.0
0
VERTEX
8
C-ROAD-ROW-EDGE
10
10318.1406
20
9221.1000
30
0.0
0
VERTEX
8
C-ROAD-ROW-EDGE
10
10322.8149
20
9219.3106
30
0.0
0
VERTEX
8
C-ROAD-ROW-EDGE
10
10327.4707
20
9217.4734
30
0.0
0
VERTEX
8
C-ROAD-ROW-EDGE
10
10332.1074
20
9215.5887
30
0.0
0
VERTEX
8
C-ROAD-ROW-EDGE
10
10336.7247
20
9213.6567
30
0.0
0
VERTEX
8
C-ROAD-ROW-EDGE
10
10341.3219
20
9211.6776
30
0.0
0
VERTEX
8
C-ROAD-ROW-EDGE
10
10345.8987
20
9209.6516
30
0.0
0
VERTEX
8
C-ROAD-ROW-EDGE
10
10350.4545
20
9207.5788
30
0.0
0
VERTEX
8
C-ROAD-ROW-EDGE
10
10354.9888
20
9205.4596
30
0.0
0
VERTEX
8
C-ROAD-ROW-EDGE
10
10359.5013
20
9203.2941
30
0.0
0
VERTEX
8
C-ROAD-ROW-EDGE
10
10363.9913
20
9201.0825
30
0.0
0
VERTEX
8
C-ROAD-ROW-EDGE
10
10368.4585
20
9198.8252
30
0.0
0
VERTEX
8
C-ROAD-ROW-EDGE
10
10372.9024
20
9196.5222
30
0.0
0
VERTEX
8
C-ROAD-ROW-EDGE
10
10377.3225
20
9194.1740
30
0.0
0
VERTEX
8
C-ROAD-ROW-EDGE
10
10381.7184
20
9191.7806
30
0.0
0
VERTEX
8
C-ROAD-ROW-EDGE
10
10386.0895
20
9189.3424
30
0.0
0
VERTEX
8
C-ROAD-ROW-EDGE
10
10390.4355
20
9186.8597
30
0.0
0
VERTEX
8
C-ROAD-ROW-EDGE
10
10394.7558
20
9184.3326
30
0.0
0
VERTEX
8
C-ROAD-ROW-EDGE
10
10399.0501
20
9181.7615
30
0.0
0
VERTEX
8
C-ROAD-ROW-EDGE
10
10403.3179
20
9179.1466
30
0.0
0
VERTEX
8
C-ROAD-ROW-EDGE
10
10407.5587
20
9176.4881
30
0.0
0
VERTEX
8
C-ROAD-ROW-EDGE
10
10411.7721
20
9173.7865
30
0.0
0
VERTEX
8
C-ROAD-ROW-EDGE
10
10415.9576
20
9171.0418
30
0.0
0
VERTEX
8
C-ROAD-ROW-EDGE
10
10420.1148
20
9168.2546
30
0.0
0
VERTEX
8
C-ROAD-ROW-EDGE
10
10424.2433
20
9165.4249
30
0.0
0
VERTEX
8
C-ROAD-ROW-EDGE
10
10428.3427
20
9162.5532
30
0.0
0
SEQEND
0
POLYLINE
8
C-ROAD-ROW-EDGE
66
1
70
0
0
VERTEX
8
C-ROAD-ROW-EDGE
10
10428.3427
20
9162.5532
30
0.0
0
VERTEX
8
C-ROAD-ROW-EDGE
10
10925.4022
20
8810.5430
30
0.0
0
SEQEND
0
POLYLINE
8
C-ROAD-ROW-EDGE
66
1
70
0
0
VERTEX
8
C-ROAD-ROW-EDGE
10
10393.6665
20
9113.5883
30
0.0
0
VERTEX
8
C-ROAD-ROW-EDGE
10
10887.5064
20
8763.8582
30
0.0
0
SEQEND
0
POLYLINE
8
C-ROAD-ROW-EDGE
66
1
70
0
0
VERTEX
8
C-ROAD-ROW-EDGE
10
9852.1736
20
8947.3233
30
0.0
0
VERTEX
8
C-ROAD-ROW-EDGE
10
9977.1535
20
8949.5654
30
0.0
0
SEQEND
0
POLYLINE
8
C-ROAD-ROW-EDGE
66
1
70
0
0
VERTEX
8
C-ROAD-ROW-EDGE
10
9853.2499
20
8887.3329
30
0.0
0
VERTEX
8
C-ROAD-ROW-EDGE
10
9978.2297
20
8889.5751
30
0.0
0
SEQEND
0
POLYLINE
8
C-ROAD-ROW-EDGE
66
1
70
0
0
VERTEX
8
C-ROAD-ROW-EDGE
10
10088.2120
20
8891.5481
30
0.0
0
VERTEX
8
C-ROAD-ROW-EDGE
10
10093.3022
20
8891.5958
30
0.0
0
VERTEX
8
C-ROAD-ROW-EDGE
10
10098.3923
20
8891.5563
30
0.0
0
VERTEX
8
C-ROAD-ROW-EDGE
10
10103.4811
20
8891.4295
30
0.0
0
VERTEX
8
C-ROAD-ROW-EDGE
10
10108.5669
20
8891.2155
30
0.0
0
VERTEX
8
C-ROAD-ROW-EDGE
10
10113.6484
20
8890.9144
30
0.0
0
VERTEX
8
C-ROAD-ROW-EDGE
10
10118.7239
20
8890.5263
30
0.0
0
VERTEX
8
C-ROAD-ROW-EDGE
10
10123.7920
20
8890.0512
30
0.0
0
VERTEX
8
C-ROAD-ROW-EDGE
10
10128.8512
20
8889.4893
30
0.0
0
VERTEX
8
C-ROAD-ROW-EDGE
10
10133.9001
20
8888.8409
30
0.0
0
VERTEX
8
C-ROAD-ROW-EDGE
10
10138.9371
20
8888.1059
30
0.0
0
VERTEX
8
C-ROAD-ROW-EDGE
10
10143.9608
20
8887.2848
30
0.0
0
VERTEX
8
C-ROAD-ROW-EDGE
10
10148.9697
20
8886.3777
30
0.0
0
VERTEX
8
C-ROAD-ROW-EDGE
10
10153.9622
20
8885.3849
30
0.0
0
VERTEX
8
C-ROAD-ROW-EDGE
10
10158.9371
20
8884.3067
30
0.0
0
VERTEX
8
C-ROAD-ROW-EDGE
10
10163.8927
20
8883.1433
30
0.0
0
VERTEX
8
C-ROAD-ROW-EDGE
10
10168.8276
20
8881.8952
30
0.0
0
VERTEX
8
C-ROAD-ROW-EDGE
10
10173.7405
20
8880.5628
30
0.0
0
VERTEX
8
C-ROAD-ROW-EDGE
10
10178.6298
20
8879.1463
30
0.0
0
VERTEX
8
C-ROAD-ROW-EDGE
10
10183.4941
20
8877.6462
30
0.0
0
VERTEX
8
C-ROAD-ROW-EDGE
10
10188.3319
20
8876.0630
30
0.0
0
VERTEX
8
C-ROAD-ROW-EDGE
10
10193.1420
20
8874.3971
30
0.0
0
VERTEX
8
C-ROAD-ROW-EDGE
10
10197.9227
20
8872.6490
30
0.0
0
VERTEX
8
C-ROAD-ROW-EDGE
10
10202.6728
20
8870.8193
30
0.0
0
VERTEX
8
C-ROAD-ROW-EDGE
10
10207.3909
20
8868.9084
30
0.0
0
VERTEX
8
C-ROAD-ROW-EDGE
10
10212.0755
20
8866.9169
30
0.0
0
VERTEX
8
C-ROAD-ROW-EDGE
10
10216.7253
20
8864.8455
30
0.0
0
VERTEX
8
C-ROAD-ROW-EDGE
10
10221.3389
20
8862.6946
30
0.0
0
VERTEX
8
C-ROAD-ROW-EDGE
10
10225.9150
20
8860.4650
30
0.0
0
VERTEX
8
C-ROAD-ROW-EDGE
10
10230.4522
20
8858.1573
30
0.0
0
VERTEX
8
C-ROAD-ROW-EDGE
10
10234.9492
20
8855.7722
30
0.0
0
VERTEX
8
C-ROAD-ROW-EDGE
10
10239.4046
20
8853.3104
30
0.0
0
VERTEX
8
C-ROAD-ROW-EDGE
10
10243.8172
20
8850.7725
30
0.0
0
VERTEX
8
C-ROAD-ROW-EDGE
10
10248.1856
20
8848.1594
30
0.0
0
VERTEX
8
C-ROAD-ROW-EDGE
10
10252.5087
20
8845.4719
30
0.0
0
VERTEX
8
C-ROAD-ROW-EDGE
10
10256.7850
20
8842.7106
30
0.0
0
VERTEX
8
C-ROAD-ROW-EDGE
10
10261.0134
20
8839.8765
30
0.0
0
VERTEX
8
C-ROAD-ROW-EDGE
10
10265.1926
20
8836.9703
30
0.0
0
SEQEND
0
POLYLINE
8
C-ROAD-ROW-EDGE
66
1
70
0
0
VERTEX
8
C-ROAD-ROW-EDGE
10
10087.1358
20
8951.5385
30
0.0
0
VERTEX
8
C-ROAD-ROW-EDGE
10
10092.1664
20
8951.5933
30
0.0
0
VERTEX
8
C-ROAD-ROW-EDGE
10
10097.1973
20
8951.5772
30
0.0
0
VERTEX
8
C-ROAD-ROW-EDGE
10
10102.2275
20
8951.4902
30
0.0
0
VERTEX
8
C-ROAD-ROW-EDGE
10
10107.2559
20
8951.3323
30
0.0
0
VERTEX
8
C-ROAD-ROW-EDGE
10
10112.2816
20
8951.1036
30
0.0
0
VERTEX
8
C-ROAD-ROW-EDGE
10
10117.3036
20
8950.8041
30
0.0
0
VERTEX
8
C-ROAD-ROW-EDGE
10
10122.3209
20
8950.4339
30
0.0
0
VERTEX
8
C-ROAD-ROW-EDGE
10
10127.3325
20
8949.9930
30
0.0
0
VERTEX
8
C-ROAD-ROW-EDGE
10
10132.3373
20
8949.4815
30
0.0
0
VERTEX
8
C-ROAD-ROW-EDGE
10
10137.3344
20
8948.8996
30
0.0
0
VERTEX
8
C-ROAD-ROW-EDGE
10
10142.3229
20
8948.2472
30
0.0
0
VERTEX
8
C-ROAD-ROW-EDGE
10
10147.3016
20
8947.5247
30
0.0
0
VERTEX
8
C-ROAD-ROW-EDGE
10
10152.2697
20
8946.7321
30
0.0
0
VERTEX
8
C-ROAD-ROW-EDGE
10
10157.2261
20
8945.8695
30
0.0
0
VERTEX
8
C-ROAD-ROW-EDGE
10
10162.1699
20
8944.9372
30
0.0
0
VERTEX
8
C-ROAD-ROW-EDGE
10
10167.1001
20
8943.9353
30
0.0
0
VERTEX
8
C-ROAD-ROW-EDGE
10
10172.0156
20
8942.8640
30
0.0
0
VERTEX
8
C-ROAD-ROW-EDGE
10
10176.9155
20
8941.7236
30
0.0
0
VERTEX
8
C-ROAD-ROW-EDGE
10
10181.7989
20
8940.5143
30
0.0
0
VERTEX
8
C-ROAD-ROW-EDGE
10
10186.6648
20
8939.2362
30
0.0
0
VERTEX
8
C-ROAD-ROW-EDGE
10
10191.5122
20
8937.8897
30
0.0
0
VERTEX
8
C-ROAD-ROW-EDGE
10
10196.3401
20
8936.4751
30
0.0
0
VERTEX
8
C-ROAD-ROW-EDGE
10
10201.1476
20
8934.9925
30
0.0
0
VERTEX
8
C-ROAD-ROW-EDGE
10
10205.9338
20
8933.4424
30
0.0
0
VERTEX
8
C-ROAD-ROW-EDGE
10
10210.6976
20
8931.8249
30
0.0
0
VERTEX
8
C-ROAD-ROW-EDGE
10
10215.4381
20
8930.1405
30
0.0
0
VERTEX
8
C-ROAD-ROW-EDGE
10
10220.1545
20
8928.3895
30
0.0
0
VERTEX
8
C-ROAD-ROW-EDGE
10
10224.8457
20
8926.5721
30
0.0
0
VERTEX
8
C-ROAD-ROW-EDGE
10
10229.5108
20
8924.6889
30
0.0
0
VERTEX
8
C-ROAD-ROW-EDGE
10
10234.1489
20
8922.7401
30
0.0
0
VERTEX
8
C-ROAD-ROW-EDGE
10
10238.7591
20
8920.7261
30
0.0
0
VERTEX
8
C-ROAD-ROW-EDGE
10
10243.3405
20
8918.6474
30
0.0
0
VERTEX
8
C-ROAD-ROW-EDGE
10
10247.8921
20
8916.5043
30
0.0
0
VERTEX
8
C-ROAD-ROW-EDGE
10
10252.4131
20
8914.2973
30
0.0
0
VERTEX
8
C-ROAD-ROW-EDGE
10
10256.9025
20
8912.0267
30
0.0
0
VERTEX
8
C-ROAD-ROW-EDGE
10
10261.3595
20
8909.6932
30
0.0
0
VERTEX
8
C-ROAD-ROW-EDGE
10
10265.7832
20
8907.2971
30
0.0
0
VERTEX
8
C-ROAD-ROW-EDGE
10
10270.1726
20
8904.8389
30
0.0
0
VERTEX
8
C-ROAD-ROW-EDGE
10
10274.5270
20
8902.3191
30
0.0
0
VERTEX
8
C-ROAD-ROW-EDGE
10
10278.8454
20
8899.7381
30
0.0
0
VERTEX
8
C-ROAD-ROW-EDGE
10
10283.1271
20
8897.0966
30
0.0
0
VERTEX
8
C-ROAD-ROW-EDGE
10
10287.3711
20
8894.3950
30
0.0
0
VERTEX
8
C-ROAD-ROW-EDGE
10
10291.5766
20
8891.6339
30
0.0
0
VERTEX
8
C-ROAD-ROW-EDGE
10
10295.7427
20
8888.8137
30
0.0
0
VERTEX
8
C-ROAD-ROW-EDGE
10
10299.8688
20
8885.9352
30
0.0
0
SEQEND
0
POLYLINE
8
C-ROAD-ROW-EDGE
66
1
70
0
0
VERTEX
8
C-ROAD-ROW-EDGE
10
10299.8688
20
8885.9352
30
0.0
0
VERTEX
8
C-ROAD-ROW-EDGE
10
10503.9778
20
8741.3882
30
0.0
0
SEQEND
0
POLYLINE
8
C-ROAD-ROW-EDGE
66
1
70
0
0
VERTEX
8
C-ROAD-ROW-EDGE
10
10265.1926
20
8836.9703
30
0.0
0
VERTEX
8
C-ROAD-ROW-EDGE
10
10454.9787
20
8702.5666
30
0.0
0
SEQEND
0
POLYLINE
8
C-ROAD-ROW-EDGE
66
1
70
0
0
VERTEX
8
C-ROAD-ROW-EDGE
10
10093.7546
20
8582.5979
30
0.0
0
VERTEX
8
C-ROAD-ROW-EDGE
10
10098.8266
20
8582.6352
30
0.0
0
VERTEX
8
C-ROAD-ROW-EDGE
10
10103.8983
20
8582.5654
30
0.0
0
VERTEX
8
C-ROAD-ROW-EDGE
10
10108.9674
20
8582.3884
30
0.0
0
VERTEX
8
C-ROAD-ROW-EDGE
10
10114.0316
20
8582.1043
30
0.0
0
VERTEX
8
C-ROAD-ROW-EDGE
10
10119.0886
20
8581.7132
30
0.0
0
VERTEX
8
C-ROAD-ROW-EDGE
10
10124.1363
20
8581.2153
30
0.0
0
VERTEX
8
C-ROAD-ROW-EDGE
10
10129.1723
20
8580.6108
30
0.0
0
VERTEX
8
C-ROAD-ROW-EDGE
10
10134.1944
20
8579.9000
30
0.0
0
VERTEX
8
C-ROAD-ROW-EDGE
10
10139.2003
20
8579.0833
30
0.0
0
VERTEX
8
C-ROAD-ROW-EDGE
10
10144.1879
20
8578.1609
30
0.0
0
VERTEX
8
C-ROAD-ROW-EDGE
10
10149.1549
20
8577.1333
30
0.0
0
VERTEX
8
C-ROAD-ROW-EDGE
10
10154.0990
20
8576.0009
30
0.0
0
VERTEX
8
C-ROAD-ROW-EDGE
10
10159.0181
20
8574.7643
30
0.0
0
VERTEX
8
C-ROAD-ROW-EDGE
10
10163.9100
20
8573.4240
30
0.0
0
VERTEX
8
C-ROAD-ROW-EDGE
10
10168.7724
20
8571.9806
30
0.0
0
VERTEX
8
C-ROAD-ROW-EDGE
10
10173.6032
20
8570.4348
30
0.0
0
VERTEX
8
C-ROAD-ROW-EDGE
10
10178.4003
20
8568.7871
30
0.0
0
VERTEX
8
C-ROAD-ROW-EDGE
10
10183.1615
20
8567.0385
30
0.0
0
VERTEX
8
C-ROAD-ROW-EDGE
10
10187.8847
20
8565.1896
30
0.0
0
VERTEX
8
C-ROAD-ROW-EDGE
10
10192.5677
20
8563.2413
30
0.0
0
VERTEX
8
C-ROAD-ROW-EDGE
10
10197.2086
20
8561.1945
30
0.0
0
VERTEX
8
C-ROAD-ROW-EDGE
10
10201.8051
20
8559.0500
30
0.0
0
VERTEX
8
C-ROAD-ROW-EDGE
10
10206.3552
20
8556.8089
30
0.0
0
VERTEX
8
C-ROAD-ROW-EDGE
10
10210.8570
20
8554.4721
30
0.0
0
VERTEX
8
C-ROAD-ROW-EDGE
10
10215.3084
20
8552.0406
30
0.0
0
VERTEX
8
C-ROAD-ROW-EDGE
10
10219.7074
20
8549.5156
30
0.0
0
VERTEX
8
C-ROAD-ROW-EDGE
10
10224.0520
20
8546.8982
30
0.0
0
VERTEX
8
C-ROAD-ROW-EDGE
10
10228.3404
20
8544.1895
30
0.0
0
VERTEX
8
C-ROAD-ROW-EDGE
10
10232.5705
20
8541.3909
30
0.0
0
VERTEX
8
C-ROAD-ROW-EDGE
10
10236.7405
20
8538.5034
30
0.0
0
SEQEND
0
POLYLINE
8
C-ROAD-ROW-EDGE
66
1
70
0
0
VERTEX
8
C-ROAD-ROW-EDGE
10
10092.6784
20
8642.5882
30
0.0
0
VERTEX
8
C-ROAD-ROW-EDGE
10
10097.6838
20
8642.6362
30
0.0
0
VERTEX
8
C-ROAD-ROW-EDGE
10
10102.6893
20
8642.6007
30
0.0
0
VERTEX
8
C-ROAD-ROW-EDGE
10
10107.6935
20
8642.4817
30
0.0
0
VERTEX
8
C-ROAD-ROW-EDGE
10
10112.6950
20
8642.2792
30
0.0
0
VERTEX
8
C-ROAD-ROW-EDGE
10
10117.6924
20
8641.9932
30
0.0
0
VERTEX
8
C-ROAD-ROW-EDGE
10
10122.6844
20
8641.6239
30
0.0
0
VERTEX
8
C-ROAD-ROW-EDGE
10
10127.6695
20
8641.1714
30
0.0
0
VERTEX
8
C-ROAD-ROW-EDGE
10
10132.6464
20
8640.6357
30
0.0
0
VERTEX
8
C-ROAD-ROW-EDGE
10
10137.6136
20
8640.0170
30
0.0
0
VERTEX
8
C-ROAD-ROW-EDGE
10
10142.5698
20
8639.3156
30
0.0
0
VERTEX
8
C-ROAD-ROW-EDGE
10
10147.5137
20
8638.5315
30
0.0
0
VERTEX
8
C-ROAD-ROW-EDGE
10
10152.4437
20
8637.6651
30
0.0
0
VERTEX
8
C-ROAD-ROW-EDGE
10
10157.3586
20
8636.7165
30
0.0
0
VERTEX
8
C-ROAD-ROW-EDGE
10
10162.2570
20
8635.6860
30
0.0
0
VERTEX
8
C-ROAD-ROW-EDGE
10
10167.1375
20
8634.5739
30
0.0
0
VERTEX
8
C-ROAD-ROW-EDGE
10
10171.9988
20
8633.3806
30
0.0
0
VERTEX
8
C-ROAD-ROW-EDGE
10
10176.8395
20
8632.1063
30
0.0
0
VERTEX
8
C-ROAD-ROW-EDGE
10
10181.6583
20
8630.7513
30
0.0
0
VERTEX
8
C-ROAD-ROW-EDGE
10
10186.4537
20
8629.3162
30
0.0
0
VERTEX
8
C-ROAD-ROW-EDGE
10
10191.2246
20
8627.8012
30
0.0
0
VERTEX
8
C-ROAD-ROW-EDGE
10
10195.9695
20
8626.2069
30
0.0
0
VERTEX
8
C-ROAD-ROW-EDGE
10
10200.6871
20
8624.5336
30
0.0
0
VERTEX
8
C-ROAD-ROW-EDGE
10
10205.3762
20
8622.7818
30
0.0
0
VERTEX
8
C-ROAD-ROW-EDGE
10
10210.0354
20
8620.9519
30
0.0
0
VERTEX
8
C-ROAD-ROW-EDGE
10
10214.6634
20
8619.0446
30
0.0
0
VERTEX
8
C-ROAD-ROW-EDGE
10
10219.2589
20
8617.0604
30
0.0
0
VERTEX
8
C-ROAD-ROW-EDGE
10
10223.8207
20
8614.9997
30
0.0
0
VERTEX
8
C-ROAD-ROW-EDGE
10
10228.3474
20
8612.8632
30
0.0
0
VERTEX
8
C-ROAD-ROW-EDGE
10
10232.8379
20
8610.6515
30
0.0
0
VERTEX
8
C-ROAD-ROW-EDGE
10
10237.2909
20
8608.3651
30
0.0
0
VERTEX
8
C-ROAD-ROW-EDGE
10
10241.7050
20
8606.0047
30
0.0
0
VERTEX
8
C-ROAD-ROW-EDGE
10
10246.0792
20
8603.5710
30
0.0
0
VERTEX
8
C-ROAD-ROW-EDGE
10
10250.4121
20
8601.0647
30
0.0
0
VERTEX
8
C-ROAD-ROW-EDGE
10
10254.7026
20
8598.4864
30
0.0
0
VERTEX
8
C-ROAD-ROW-EDGE
10
10258.9495
20
8595.8368
30
0.0
0
VERTEX
8
C-ROAD-ROW-EDGE
10
10263.1516
20
8593.1168
30
0.0
0
VERTEX
8
C-ROAD-ROW-EDGE
10
10267.3077
20
8590.3270
30
0.0
0
VERTEX
8
C-ROAD-ROW-EDGE
10
10271.4167
20
8587.4683
30
0.0
0
SEQEND
0
POLYLINE
8
C-ROAD-ROW-EDGE
66
1
70
0
0
VERTEX
8
C-ROAD-ROW-EDGE
10
10271.4167
20
8587.4683
30
0.0
0
VERTEX
8
C-ROAD-ROW-EDGE
10
10339.3986
20
8539.3245
30
0.0
0
SEQEND
0
POLYLINE
8
C-ROAD-ROW-EDGE
66
1
70
0
0
VERTEX
8
C-ROAD-ROW-EDGE
10
10236.7405
20
8538.5034
30
0.0
0
VERTEX
8
C-ROAD-ROW-EDGE
10
10345.2069
20
8461.6891
30
0.0
0
SEQEND
0
POLYLINE
8
C-ROAD-ROW-EDGE
66
1
70
0
0
VERTEX
8
C-ROAD-ROW-EDGE
10
9849.6624
20
9087.3007
30
0.0
0
VERTEX
8
C-ROAD-ROW-EDGE
10
9974.6423
20
9089.5429
30
0.0
0
SEQEND
0
POLYLINE
8
C-ROAD-ROW-EDGE
66
1
70
0
0
VERTEX
8
C-ROAD-ROW-EDGE
10
10084.6246
20
9091.5160
30
0.0
0
VERTEX
8
C-ROAD-ROW-EDGE
10
10156.4131
20
9092.8038
30
0.0
0
SEQEND
0
POLYLINE
8
C-ROAD-ROW-EDGE
66
1
70
0
0
VERTEX
8
C-ROAD-ROW-EDGE
10
9850.3799
20
9047.3072
30
0.0
0
VERTEX
8
C-ROAD-ROW-EDGE
10
9975.3598
20
9049.5493
30
0.0
0
SEQEND
0
POLYLINE
8
C-ROAD-ROW-EDGE
66
1
70
0
0
VERTEX
8
C-ROAD-ROW-EDGE
10
10085.3421
20
9051.5224
30
0.0
0
VERTEX
8
C-ROAD-ROW-EDGE
10
10157.1306
20
9052.8103
30
0.0
0
SEQEND
0
POLYLINE
8
C-ROAD-FILLET
66
1
70
0
0
VERTEX
8
C-ROAD-FILLET
10
9946.3092
20
9967.7153
30
0.0
0
VERTEX
8
C-ROAD-FILLET
10
9949.5785
20
9967.6388
30
0.0
0
VERTEX
8
C-ROAD-FILLET
10
9952.8098
20
9967.1361
30
0.0
0
VERTEX
8
C-ROAD-FILLET
10
9955.9478
20
9966.2160
30
0.0
0
VERTEX
8
C-ROAD-FILLET
10
9958.9389
20
9964.8942
30
0.0
0
VERTEX
8
C-ROAD-FILLET
10
9961.7319
20
9963.1933
30
0.0
0
VERTEX
8
C-ROAD-FILLET
10
9964.2790
20
9961.1423
30
0.0
0
VERTEX
8
C-ROAD-FILLET
10
9966.5365
20
9958.7765
30
0.0
0
VERTEX
8
C-ROAD-FILLET
10
9968.4660
20
9956.1362
30
0.0
0
VERTEX
8
C-ROAD-FILLET
10
9970.0343
20
9953.2666
30
0.0
0
VERTEX
8
C-ROAD-FILLET
10
9971.2147
20
9950.2169
30
0.0
0
VERTEX
8
C-ROAD-FILLET
10
9971.9868
20
9947.0392
30
0.0
0
VERTEX
8
C-ROAD-FILLET
10
9972.3377
20
9943.7880
30
0.0
0
SEQEND
0
POLYLINE
8
C-ROAD-FILLET
66
1
70
0
0
VERTEX
8
C-ROAD-FILLET
10
10032.2847
20
9946.3092
30
0.0
0
VERTEX
8
C-ROAD-FILLET
10
10032.3612
20
9949.5785
30
0.0
0
VERTEX
8
C-ROAD-FILLET
10
10032.8639
20
9952.8098
30
0.0
0
VERTEX
8
C-ROAD-FILLET
10
10033.7840
20
9955.9478
30
0.0
0
VERTEX
8
C-ROAD-FILLET
10
10035.1058
20
9958.9389
30
0.0
0
VERTEX
8
C-ROAD-FILLET
10
10036.8067
20
9961.7319
30
0.0
0
VERTEX
8
C-ROAD-FILLET
10
10038.8577
20
9964.2790
30
0.0
0
VERTEX
8
C-ROAD-FILLET
10
10041.2235
20
9966.5365
30
0.0
0
VERTEX
8
C-ROAD-FILLET
10
10043.8638
20
9968.4660
30
0.0
0
VERTEX
8
C-ROAD-FILLET
10
10046.7334
20
9970.0343
30
0.0
0
VERTEX
8
C-ROAD-FILLET
10
10049.7831
20
9971.2147
30
0.0
0
VERTEX
8
C-ROAD-FILLET
10
10052.9608
20
9971.9868
30
0.0
0
VERTEX
8
C-ROAD-FILLET
10
10056.2120
20
9972.3377
30
0.0
0
SEQEND
0
POLYLINE
8
C-ROAD-FILLET
66
1
70
0
0
VERTEX
8
C-ROAD-FILLET
10
10064.6162
20
9772.5143
30
0.0
0
VERTEX
8
C-ROAD-FILLET
10
10061.3470
20
9772.5909
30
0.0
0
VERTEX
8
C-ROAD-FILLET
10
10058.1157
20
9773.0935
30
0.0
0
VERTEX
8
C-ROAD-FILLET
10
10054.9776
20
9774.0136
30
0.0
0
VERTEX
8
C-ROAD-FILLET
10
10051.9865
20
9775.3355
30
0.0
0
VERTEX
8
C-ROAD-FILLET
10
10049.1936
20
9777.0364
30
0.0
0
VERTEX
8
C-ROAD-FILLET
10
10046.6465
20
9779.0873
30
0.0
0
VERTEX
8
C-ROAD-FILLET
10
10044.3889
20
9781.4532
30
0.0
0
VERTEX
8
C-ROAD-FILLET
10
10042.4595
20
9784.0935
30
0.0
0
VERTEX
8
C-ROAD-FILLET
10
10040.8911
20
9786.9630
30
0.0
0
VERTEX
8
C-ROAD-FILLET
10
10039.7108
20
9790.0127
30
0.0
0
VERTEX
8
C-ROAD-FILLET
10
10038.9386
20
9793.1904
30
0.0
0
VERTEX
8
C-ROAD-FILLET
10
10038.5878
20
9796.4417
30
0.0
0
SEQEND
0
POLYLINE
8
C-ROAD-FILLET
66
1
70
0
0
VERTEX
8
C-ROAD-FILLET
10
10043.2101
20
9686.5389
30
0.0
0
VERTEX
8
C-ROAD-FILLET
10
10043.2867
20
9689.8081
30
0.0
0
VERTEX
8
C-ROAD-FILLET
10
10043.7893
20
9693.0394
30
0.0
0
VERTEX
8
C-ROAD-FILLET
10
10044.7094
20
9696.1775
30
0.0
0
VERTEX
8
C-ROAD-FILLET
10
10046.0313
20
9699.1686
30
0.0
0
VERTEX
8
C-ROAD-FILLET
10
10047.7322
20
9701.9615
30
0.0
0
VERTEX
8
C-ROAD-FILLET
10
10049.7831
20
9704.5086
30
0.0
0
VERTEX
8
C-ROAD-FILLET
10
10052.1490
20
9706.7662
30
0.0
0
VERTEX
8
C-ROAD-FILLET
10
10054.7893
20
9708.6956
30
0.0
0
VERTEX
8
C-ROAD-FILLET
10
10057.6588
20
9710.2640
30
0.0
0
VERTEX
8
C-ROAD-FILLET
10
10060.7085
20
9711.4443
30
0.0
0
VERTEX
8
C-ROAD-FILLET
10
10063.8862
20
9712.2165
30
0.0
0
VERTEX
8
C-ROAD-FILLET
10
10067.1375
20
9712.5673
30
0.0
0
SEQEND
0
POLYLINE
8
C-ROAD-FILLET
66
1
70
0
0
VERTEX
8
C-ROAD-FILLET
10
11335.1295
20
10086.1796
30
0.0
0
VERTEX
8
C-ROAD-FILLET
10
11338.3194
20
10086.5197
30
0.0
0
VERTEX
8
C-ROAD-FILLET
10
11341.4395
20
10087.2656
30
0.0
0
VERTEX
8
C-ROAD-FILLET
10
11344.4383
20
10088.4048
30
0.0
0
VERTEX
8
C-ROAD-FILLET
10
11347.2666
20
10089.9187
30
0.0
0
VERTEX
8
C-ROAD-FILLET
10
11349.8778
20
10091.7823
30
0.0
0
VERTEX
8
C-ROAD-FILLET
10
11352.2288
20
10093.9649
30
0.0
0
VERTEX
8
C-ROAD-FILLET
10
11354.2809
20
10096.4306
30
0.0
0
VERTEX
8
C-ROAD-FILLET
10
11356.0005
20
10099.1388
30
0.0
0
VERTEX
8
C-ROAD-FILLET
10
11357.3590
20
10102.0449
30
0.0
0
VERTEX
8
C-ROAD-FILLET
10
11358.3343
20
10105.1010
30
0.0
0
VERTEX
8
C-ROAD-FILLET
10
11358.9102
20
10108.2569
30
0.0
0
VERTEX
8
C-ROAD-FILLET
10
11359.0772
20
10111.4605
30
0.0
0
SEQEND
0
POLYLINE
8
C-ROAD-FILLET
66
1
70
0
0
VERTEX
8
C-ROAD-FILLET
10
11334.3623
20
10026.0942
30
0.0
0
VERTEX
8
C-ROAD-FILLET
10
11337.6936
20
10026.0121
30
0.0
0
VERTEX
8
C-ROAD-FILLET
10
11340.9844
20
10025.4876
30
0.0
0
VERTEX
8
C-ROAD-FILLET
10
11344.1762
20
10024.5301
30
0.0
0
VERTEX
8
C-ROAD-FILLET
10
11347.2123
20
10023.1565
30
0.0
0
VERTEX
8
C-ROAD-FILLET
10
11350.0388
20
10021.3914
30
0.0
0
VERTEX
8
C-ROAD-FILLET
10
11352.6054
20
10019.2661
30
0.0
0
VERTEX
8
C-ROAD-FILLET
10
11354.8665
20
10016.8183
30
0.0
0
VERTEX
8
C-ROAD-FILLET
10
11356.7820
20
10014.0915
30
0.0
0
VERTEX
8
C-ROAD-FILLET
10
11358.3179
20
10011.1342
30
0.0
0
VERTEX
8
C-ROAD-FILLET
10
11359.4467
20
10007.9989
30
0.0
0
VERTEX
8
C-ROAD-FILLET
10
11360.1486
20
10004.7413
30
0.0
0
VERTEX
8
C-ROAD-FILLET
10
11360.4110
20
10001.4193
30
0.0
0
SEQEND
0
POLYLINE
8
C-ROAD-FILLET
66
1
70
0
0
VERTEX
8
C-ROAD-FILLET
10
11338.2821
20
9826.0823
30
0.0
0
VERTEX
8
C-ROAD-FILLET
10
11341.4720
20
9826.4225
30
0.0
0
VERTEX
8
C-ROAD-FILLET
10
11344.5921
20
9827.1683
30
0.0
0
VERTEX
8
C-ROAD-FILLET
10
11347.5910
20
9828.3075
30
0.0
0
VERTEX
8
C-ROAD-FILLET
10
11350.4192
20
9829.8214
30
0.0
0
VERTEX
8
C-ROAD-FILLET
10
11353.0304
20
9831.6850
30
0.0
0
VERTEX
8
C-ROAD-FILLET
10
11355.3814
20
9833.8676
30
0.0
0
VERTEX
8
C-ROAD-FILLET
10
11357.4336
20
9836.3333
30
0.0
0
VERTEX
8
C-ROAD-FILLET
10
11359.1531
20
9839.0415
30
0.0
0
VERTEX
8
C-ROAD-FILLET
10
11360.5117
20
9841.9476
30
0.0
0
VERTEX
8
C-ROAD-FILLET
10
11361.4869
20
9845.0037
30
0.0
0
VERTEX
8
C-ROAD-FILLET
10
11362.0628
20
9848.1596
30
0.0
0
VERTEX
8
C-ROAD-FILLET
10
11362.2298
20
9851.3632
30
0.0
0
SEQEND
0
POLYLINE
8
C-ROAD-FILLET
66
1
70
0
0
VERTEX
8
C-ROAD-FILLET
10
11337.5149
20
9765.9970
30
0.0
0
VERTEX
8
C-ROAD-FILLET
10
11340.8462
20
9765.9148
30
0.0
0
VERTEX
8
C-ROAD-FILLET
10
11344.1370
20
9765.3903
30
0.0
0
VERTEX
8
C-ROAD-FILLET
10
11347.3288
20
9764.4328
30
0.0
0
VERTEX
8
C-ROAD-FILLET
10
11350.3649
20
9763.0593
30
0.0
0
VERTEX
8
C-ROAD-FILLET
10
11353.1914
20
9761.2942
30
0.0
0
VERTEX
8
C-ROAD-FILLET
10
11355.7580
20
9759.1689
30
0.0
0
VERTEX
8
C-ROAD-FILLET
10
11358.0192
20
9756.7211
30
0.0
0
VERTEX
8
C-ROAD-FILLET
10
11359.9347
20
9753.9943
30
0.0
0
VERTEX
8
C-ROAD-FILLET
10
11361.4705
20
9751.0370
30
0.0
0
VERTEX
8
C-ROAD-FILLET
10
11362.5994
20
9747.9017
30
0.0
0
VERTEX
8
C-ROAD-FILLET
10
11363.3012
20
9744.6441
30
0.0
0
VERTEX
8
C-ROAD-FILLET
10
11363.5636
20
9741.3221
30
0.0
0
SEQEND
0
POLYLINE
8
C-ROAD-FILLET
66
1
70
0
0
VERTEX
8
C-ROAD-FILLET
10
11341.4348
20
9565.9850
30
0.0
0
VERTEX
8
C-ROAD-FILLET
10
11344.6246
20
9566.3252
30
0.0
0
VERTEX
8
C-ROAD-FILLET
10
11347.7447
20
9567.0710
30
0.0
0
VERTEX
8
C-ROAD-FILLET
10
11350.7436
20
9568.2103
30
0.0
0
VERTEX
8
C-ROAD-FILLET
10
11353.5719
20
9569.7242
30
0.0
0
VERTEX
8
C-ROAD-FILLET
10
11356.1830
20
9571.5877
30
0.0
0
VERTEX
8
C-ROAD-FILLET
10
11358.5340
20
9573.7704
30
0.0
0
VERTEX
8
C-ROAD-FILLET
10
11360.5862
20
9576.2361
30
0.0
0
VERTEX
8
C-ROAD-FILLET
10
11362.3057
20
9578.9443
30
0.0
0
VERTEX
8
C-ROAD-FILLET
10
11363.6643
20
9581.8503
30
0.0
0
VERTEX
8
C-ROAD-FILLET
10
11364.6395
20
9584.9065
30
0.0
0
VERTEX
8
C-ROAD-FILLET
10
11365.2154
20
9588.0623
30
0.0
0
VERTEX
8
C-ROAD-FILLET
10
11365.3824
20
9591.2660
30
0.0
0
SEQEND
0
POLYLINE
8
C-ROAD-FILLET
66
1
70
0
0
VERTEX
8
C-ROAD-FILLET
10
11340.6675
20
9505.8997
30
0.0
0
VERTEX
8
C-ROAD-FILLET
10
11343.9988
20
9505.8175
30
0.0
0
VERTEX
8
C-ROAD-FILLET
10
11347.2896
20
9505.2930
30
0.0
0
VERTEX
8
C-ROAD-FILLET
10
11350.4815
20
9504.3355
30
0.0
0
VERTEX
8
C-ROAD-FILLET
10
11353.5176
20
9502.9620
30
0.0
0
VERTEX
8
C-ROAD-FILLET
10
11356.3440
20
9501.1969
30
0.0
0
VERTEX
8
C-ROAD-FILLET
10
11358.9106
20
9499.0716
30
0.0
0
VERTEX
8
C-ROAD-FILLET
10
11361.1718
20
9496.6238
30
0.0
0
VERTEX
8
C-ROAD-FILLET
10
11363.0873
20
9493.8970
30
0.0
0
VERTEX
8
C-ROAD-FILLET
10
11364.6231
20
9490.9397
30
0.0
0
VERTEX
8
C-ROAD-FILLET
10
11365.7520
20
9487.8044
30
0.0
0
VERTEX
8
C-ROAD-FILLET
10
11366.4538
20
9484.5468
30
0.0
0
VERTEX
8
C-ROAD-FILLET
10
11366.7162
20
9481.2248
30
0.0
0
SEQEND
0
POLYLINE
8
C-ROAD-FILLET
66
1
70
0
0
VERTEX
8
C-ROAD-FILLET
10
11344.5874
20
9305.8878
30
0.0
0
VERTEX
8
C-ROAD-FILLET
10
11347.7773
20
9306.2279
30
0.0
0
VERTEX
8
C-ROAD-FILLET
10
11350.8973
20
9306.9738
30
0.0
0
VERTEX
8
C-ROAD-FILLET
10
11353.8962
20
9308.1130
30
0.0
0
VERTEX
8
C-ROAD-FILLET
10
11356.7245
20
9309.6269
30
0.0
0
VERTEX
8
C-ROAD-FILLET
10
11359.3356
20
9311.4905
30
0.0
0
VERTEX
8
C-ROAD-FILLET
10
11361.6866
20
9313.6731
30
0.0
0
VERTEX
8
C-ROAD-FILLET
10
11363.7388
20
9316.1388
30
0.0
0
VERTEX
8
C-ROAD-FILLET
10
11365.4583
20
9318.8470
30
0.0
0
VERTEX
8
C-ROAD-FILLET
10
11366.8169
20
9321.7531
30
0.0
0
VERTEX
8
C-ROAD-FILLET
10
11367.7922
20
9324.8092
30
0.0
0
VERTEX
8
C-ROAD-FILLET
10
11368.3680
20
9327.9651
30
0.0
0
VERTEX
8
C-ROAD-FILLET
10
11368.5350
20
9331.1687
30
0.0
0
SEQEND
0
POLYLINE
8
C-ROAD-FILLET
66
1
70
0
0
VERTEX
8
C-ROAD-FILLET
10
11343.8201
20
9245.8025
30
0.0
0
VERTEX
8
C-ROAD-FILLET
10
11347.1515
20
9245.7203
30
0.0
0
VERTEX
8
C-ROAD-FILLET
10
11350.4423
20
9245.1958
30
0.0
0
VERTEX
8
C-ROAD-FILLET
10
11353.6341
20
9244.2383
30
0.0
0
VERTEX
8
C-ROAD-FILLET
10
11356.6702
20
9242.8648
30
0.0
0
VERTEX
8
C-ROAD-FILLET
10
11359.4967
20
9241.0997
30
0.0
0
VERTEX
8
C-ROAD-FILLET
10
11362.0633
20
9238.9743
30
0.0
0
VERTEX
8
C-ROAD-FILLET
10
11364.3244
20
9236.5265
30
0.0
0
VERTEX
8
C-ROAD-FILLET
10
11366.2399
20
9233.7997
30
0.0
0
VERTEX
8
C-ROAD-FILLET
10
11367.7757
20
9230.8424
30
0.0
0
VERTEX
8
C-ROAD-FILLET
10
11368.9046
20
9227.7071
30
0.0
0
VERTEX
8
C-ROAD-FILLET
10
11369.6065
20
9224.4495
30
0.0
0
VERTEX
8
C-ROAD-FILLET
10
11369.8688
20
9221.1275
30
0.0
0
SEQEND
0
POLYLINE
8
C-ROAD-FILLET
66
1
70
0
0
VERTEX
8
C-ROAD-FILLET
10
10075.5417
20
9512.7440
30
0.0
0
VERTEX
8
C-ROAD-FILLET
10
10072.2724
20
9512.8205
30
0.0
0
VERTEX
8
C-ROAD-FILLET
10
10069.0411
20
9513.3232
30
0.0
0
VERTEX
8
C-ROAD-FILLET
10
10065.9031
20
9514.2433
30
0.0
0
VERTEX
8
C-ROAD-FILLET
10
10062.9120
20
9515.5651
30
0.0
0
VERTEX
8
C-ROAD-FILLET
10
10060.1190
20
9517.2660
30
0.0
0
VERTEX
8
C-ROAD-FILLET
10
10057.5719
20
9519.3170
30
0.0
0
VERTEX
8
C-ROAD-FILLET
10
10055.3144
20
9521.6828
30
0.0
0
VERTEX
8
C-ROAD-FILLET
10
10053.3849
20
9524.3231
30
0.0
0
VERTEX
8
C-ROAD-FILLET
10
10051.8166
20
9527.1927
30
0.0
0
VERTEX
8
C-ROAD-FILLET
10
10050.6363
20
9530.2424
30
0.0
0
VERTEX
8
C-ROAD-FILLET
10
10049.8641
20
9533.4201
30
0.0
0
VERTEX
8
C-ROAD-FILLET
10
10049.5133
20
9536.6714
30
0.0
0
SEQEND
0
POLYLINE
8
C-ROAD-FILLET
66
1
70
0
0
VERTEX
8
C-ROAD-FILLET
10
10053.5957
20
9427.3487
30
0.0
0
VERTEX
8
C-ROAD-FILLET
10
10053.7455
20
9430.5652
30
0.0
0
VERTEX
8
C-ROAD-FILLET
10
10054.3074
20
9433.7359
30
0.0
0
VERTEX
8
C-ROAD-FILLET
10
10055.2721
20
9436.8080
30
0.0
0
VERTEX
8
C-ROAD-FILLET
10
10056.6238
20
9439.7307
30
0.0
0
VERTEX
8
C-ROAD-FILLET
10
10058.3399
20
9442.4553
30
0.0
0
VERTEX
8
C-ROAD-FILLET
10
10060.3920
20
9444.9368
30
0.0
0
VERTEX
8
C-ROAD-FILLET
10
10062.7460
20
9447.1339
30
0.0
0
VERTEX
8
C-ROAD-FILLET
10
10065.3629
20
9449.0103
30
0.0
0
VERTEX
8
C-ROAD-FILLET
10
10068.1993
20
9450.5347
30
0.0
0
VERTEX
8
C-ROAD-FILLET
10
10071.2081
20
9451.6819
30
0.0
0
VERTEX
8
C-ROAD-FILLET
10
10074.3394
20
9452.4328
30
0.0
0
VERTEX
8
C-ROAD-FILLET
10
10077.5412
20
9452.7750
30
0.0
0
SEQEND
0
POLYLINE
8
C-ROAD-FILLET
66
1
70
0
0
VERTEX
8
C-ROAD-FILLET
10
10081.7547
20
9251.4902
30
0.0
0
VERTEX
8
C-ROAD-FILLET
10
10078.4882
20
9251.6455
30
0.0
0
VERTEX
8
C-ROAD-FILLET
10
10075.2700
20
9252.2259
30
0.0
0
VERTEX
8
C-ROAD-FILLET
10
10072.1550
20
9253.2213
30
0.0
0
VERTEX
8
C-ROAD-FILLET
10
10069.1966
20
9254.6148
30
0.0
0
VERTEX
8
C-ROAD-FILLET
10
10066.4454
20
9256.3826
30
0.0
0
VERTEX
8
C-ROAD-FILLET
10
10063.9485
20
9258.4943
30
0.0
0
VERTEX
8
C-ROAD-FILLET
10
10061.7486
20
9260.9138
30
0.0
0
VERTEX
8
C-ROAD-FILLET
10
10059.8833
20
9263.5999
30
0.0
0
VERTEX
8
C-ROAD-FILLET
10
10058.3846
20
9266.5064
30
0.0
0
VERTEX
8
C-ROAD-FILLET
10
10057.2780
20
9269.5836
30
0.0
0
VERTEX
8
C-ROAD-FILLET
10
10056.5826
20
9272.7790
30
0.0
0
VERTEX
8
C-ROAD-FILLET
10
10056.3103
20
9276.0378
30
0.0
0
SEQEND
0
POLYLINE
8
C-ROAD-FILLET
66
1
70
0
0
VERTEX
8
C-ROAD-FILLET
10
10058.2834
20
9166.0555
30
0.0
0
VERTEX
8
C-ROAD-FILLET
10
10058.4387
20
9169.3219
30
0.0
0
VERTEX
8
C-ROAD-FILLET
10
10059.0190
20
9172.5402
30
0.0
0
VERTEX
8
C-ROAD-FILLET
10
10060.0145
20
9175.6551
30
0.0
0
VERTEX
8
C-ROAD-FILLET
10
10061.4080
20
9178.6135
30
0.0
0
VERTEX
8
C-ROAD-FILLET
10
10063.1757
20
9181.3647
30
0.0
0
VERTEX
8
C-ROAD-FILLET
10
10065.2874
20
9183.8616
30
0.0
0
VERTEX
8
C-ROAD-FILLET
10
10067.7070
20
9186.0616
30
0.0
0
VERTEX
8
C-ROAD-FILLET
10
10070.3930
20
9187.9268
30
0.0
0
VERTEX
8
C-ROAD-FILLET
10
10073.2995
20
9189.4256
30
0.0
0
VERTEX
8
C-ROAD-FILLET
10
10076.3768
20
9190.5321
30
0.0
0
VERTEX
8
C-ROAD-FILLET
10
10079.5721
20
9191.2275
30
0.0
0
VERTEX
8
C-ROAD-FILLET
10
10082.8309
20
9191.4999
30
0.0
0
SEQEND
0
POLYLINE
8
C-ROAD-FILLET
66
1
70
0
0
VERTEX
8
C-ROAD-FILLET
10
10084.6246
20
9091.5160
30
0.0
0
VERTEX
8
C-ROAD-FILLET
10
10081.3582
20
9091.6713
30
0.0
0
VERTEX
8
C-ROAD-FILLET
10
10078.1399
20
9092.2516
30
0.0
0
VERTEX
8
C-ROAD-FILLET
10
10075.0249
20
9093.2471
30
0.0
0
VERTEX
8
C-ROAD-FILLET
10
10072.0666
20
9094.6406
30
0.0
0
VERTEX
8
C-ROAD-FILLET
10
10069.3154
20
9096.4083
30
0.0
0
VERTEX
8
C-ROAD-FILLET
10
10066.8185
20
9098.5200
30
0.0
0
VERTEX
8
C-ROAD-FILLET
10
10064.6185
20
9100.9396
30
0.0
0
VERTEX
8
C-ROAD-FILLET
10
10062.7533
20
9103.6256
30
0.0
0
VERTEX
8
C-ROAD-FILLET
10
10061.2545
20
9106.5321
30
0.0
0
VERTEX
8
C-ROAD-FILLET
10
10060.1480
20
9109.6094
30
0.0
0
VERTEX
8
C-ROAD-FILLET
10
10059.4526
20
9112.8047
30
0.0
0
VERTEX
8
C-ROAD-FILLET
10
10059.1802
20
9116.0635
30
0.0
0
SEQEND
0
POLYLINE
8
C-ROAD-FILLET
66
1
70
0
0
VERTEX
8
C-ROAD-FILLET
10
10060.7946
20
9026.0780
30
0.0
0
VERTEX
8
C-ROAD-FILLET
10
10060.9499
20
9029.3445
30
0.0
0
VERTEX
8
C-ROAD-FILLET
10
10061.5302
20
9032.5627
30
0.0
0
VERTEX
8
C-ROAD-FILLET
10
10062.5257
20
9035.6777
30
0.0
0
VERTEX
8
C-ROAD-FILLET
10
10063.9192
20
9038.6361
30
0.0
0
VERTEX
8
C-ROAD-FILLET
10
10065.6869
20
9041.3872
30
0.0
0
VERTEX
8
C-ROAD-FILLET
10
10067.7986
20
9043.8842
30
0.0
0
VERTEX
8
C-ROAD-FILLET
10
10070.2182
20
9046.0841
30
0.0
0
VERTEX
8
C-ROAD-FILLET
10
10072.9042
20
9047.9494
30
0.0
0
VERTEX
8
C-ROAD-FILLET
10
10075.8107
20
9049.4481
30
0.0
0
VERTEX
8
C-ROAD-FILLET
10
10078.8880
20
9050.5546
30
0.0
0
VERTEX
8
C-ROAD-FILLET
10
10082.0833
20
9051.2500
30
0.0
0
VERTEX
8
C-ROAD-FILLET
10
10085.3421
20
9051.5224
30
0.0
0
SEQEND
0
POLYLINE
8
C-ROAD-FILLET
66
1
70
0
0
VERTEX
8
C-ROAD-FILLET
10
9999.1899
20
9114.9873
30
0.0
0
VERTEX
8
C-ROAD-FILLET
10
9999.0346
20
9111.7208
30
0.0
0
VERTEX
8
C-ROAD-FILLET
10
9998.4542
20
9108.5026
30
0.0
0
VERTEX
8
C-ROAD-FILLET
10
9997.4588
20
9105.3876
30
0.0
0
VERTEX
8
C-ROAD-FILLET
10
9996.0653
20
9102.4292
30
0.0
0
VERTEX
8
C-ROAD-FILLET
10
9994.2975
20
9099.6780
30
0.0
0
VERTEX
8
C-ROAD-FILLET
10
9992.1858
20
9097.1811
30
0.0
0
VERTEX
8
C-ROAD-FILLET
10
9989.7662
20
9094.9812
30
0.0
0
VERTEX
8
C-ROAD-FILLET
10
9987.0802
20
9093.1159
30
0.0
0
VERTEX
8
C-ROAD-FILLET
10
9984.1737
20
9091.6172
30
0.0
0
VERTEX
8
C-ROAD-FILLET
10
9981.0965
20
9090.5107
30
0.0
0
VERTEX
8
C-ROAD-FILLET
10
9977.9011
20
9089.8153
30
0.0
0
VERTEX
8
C-ROAD-FILLET
10
9974.6423
20
9089.5429
30
0.0
0
SEQEND
0
POLYLINE
8
C-ROAD-FILLET
66
1
70
0
0
VERTEX
8
C-ROAD-FILLET
10
9975.3598
20
9049.5493
30
0.0
0
VERTEX
8
C-ROAD-FILLET
10
9978.6263
20
9049.3940
30
0.0
0
VERTEX
8
C-ROAD-FILLET
10
9981.8445
20
9048.8137
30
0.0
0
VERTEX
8
C-ROAD-FILLET
10
9984.9595
20
9047.8182
30
0.0
0
VERTEX
8
C-ROAD-FILLET
10
9987.9179
20
9046.4247
30
0.0
0
VERTEX
8
C-ROAD-FILLET
10
9990.6691
20
9044.6570
30
0.0
0
VERTEX
8
C-ROAD-FILLET
10
9993.1660
20
9042.5452
30
0.0
0
VERTEX
8
C-ROAD-FILLET
10
9995.3659
20
9040.1257
30
0.0
0
VERTEX
8
C-ROAD-FILLET
10
9997.2312
20
9037.4397
30
0.0
0
VERTEX
8
C-ROAD-FILLET
10
9998.7299
20
9034.5332
30
0.0
0
VERTEX
8
C-ROAD-FILLET
10
9999.8364
20
9031.4559
30
0.0
0
VERTEX
8
C-ROAD-FILLET
10
10000.5318
20
9028.2606
30
0.0
0
VERTEX
8
C-ROAD-FILLET
10
10000.8042
20
9025.0018
30
0.0
0
SEQEND
0
POLYLINE
8
C-ROAD-FILLET
66
1
70
0
0
VERTEX
8
C-ROAD-FILLET
10
10087.1358
20
8951.5385
30
0.0
0
VERTEX
8
C-ROAD-FILLET
10
10083.8694
20
8951.6938
30
0.0
0
VERTEX
8
C-ROAD-FILLET
10
10080.6511
20
8952.2741
30
0.0
0
VERTEX
8
C-ROAD-FILLET
10
10077.5361
20
8953.2696
30
0.0
0
VERTEX
8
C-ROAD-FILLET
10
10074.5778
20
8954.6631
30
0.0
0
VERTEX
8
C-ROAD-FILLET
10
10071.8266
20
8956.4308
30
0.0
0
VERTEX
8
C-ROAD-FILLET
10
10069.3297
20
8958.5426
30
0.0
0
VERTEX
8
C-ROAD-FILLET
10
10067.1297
20
8960.9621
30
0.0
0
VERTEX
8
C-ROAD-FILLET
10
10065.2645
20
8963.6481
30
0.0
0
VERTEX
8
C-ROAD-FILLET
10
10063.7657
20
8966.5546
30
0.0
0
VERTEX
8
C-ROAD-FILLET
10
10062.6592
20
8969.6319
30
0.0
0
VERTEX
8
C-ROAD-FILLET
10
10061.9638
20
8972.8272
30
0.0
0
VERTEX
8
C-ROAD-FILLET
10
10061.6914
20
8976.0860
30
0.0
0
SEQEND
0
POLYLINE
8
C-ROAD-FILLET
66
1
70
0
0
VERTEX
8
C-ROAD-FILLET
10
10063.6645
20
8866.1037
30
0.0
0
VERTEX
8
C-ROAD-FILLET
10
10063.8198
20
8869.3702
30
0.0
0
VERTEX
8
C-ROAD-FILLET
10
10064.4002
20
8872.5884
30
0.0
0
VERTEX
8
C-ROAD-FILLET
10
10065.3956
20
8875.7034
30
0.0
0
VERTEX
8
C-ROAD-FILLET
10
10066.7891
20
8878.6618
30
0.0
0
VERTEX
8
C-ROAD-FILLET
10
10068.5568
20
8881.4130
30
0.0
0
VERTEX
8
C-ROAD-FILLET
10
10070.6686
20
8883.9099
30
0.0
0
VERTEX
8
C-ROAD-FILLET
10
10073.0881
20
8886.1098
30
0.0
0
VERTEX
8
C-ROAD-FILLET
10
10075.7741
20
8887.9751
30
0.0
0
VERTEX
8
C-ROAD-FILLET
10
10078.6806
20
8889.4738
30
0.0
0
VERTEX
8
C-ROAD-FILLET
10
10081.7579
20
8890.5804
30
0.0
0
VERTEX
8
C-ROAD-FILLET
10
10084.9533
20
8891.2758
30
0.0
0
VERTEX
8
C-ROAD-FILLET
10
10088.2120
20
8891.5481
30
0.0
0
SEQEND
0
POLYLINE
8
C-ROAD-FILLET
66
1
70
0
0
VERTEX
8
C-ROAD-FILLET
10
10001.7011
20
8975.0098
30
0.0
0
VERTEX
8
C-ROAD-FILLET
10
10001.5458
20
8971.7433
30
0.0
0
VERTEX
8
C-ROAD-FILLET
10
10000.9654
20
8968.5251
30
0.0
0
VERTEX
8
C-ROAD-FILLET
10
9999.9700
20
8965.4101
30
0.0
0
VERTEX
8
C-ROAD-FILLET
10
9998.5765
20
8962.4517
30
0.0
0
VERTEX
8
C-ROAD-FILLET
10
9996.8087
20
8959.7006
30
0.0
0
VERTEX
8
C-ROAD-FILLET
10
9994.6970
20
8957.2036
30
0.0
0
VERTEX
8
C-ROAD-FILLET
10
9992.2774
20
8955.0037
30
0.0
0
VERTEX
8
C-ROAD-FILLET
10
9989.5914
20
8953.1384
30
0.0
0
VERTEX
8
C-ROAD-FILLET
10
9986.6849
20
8951.6397
30
0.0
0
VERTEX
8
C-ROAD-FILLET
10
9983.6077
20
8950.5332
30
0.0
0
VERTEX
8
C-ROAD-FILLET
10
9980.4123
20
8949.8378
30
0.0
0
VERTEX
8
C-ROAD-FILLET
10
9977.1535
20
8949.5654
30
0.0
0
SEQEND
0
POLYLINE
8
C-ROAD-FILLET
66
1
70
0
0
VERTEX
8
C-ROAD-FILLET
10
9978.2297
20
8889.5751
30
0.0
0
VERTEX
8
C-ROAD-FILLET
10
9981.4962
20
8889.4197
30
0.0
0
VERTEX
8
C-ROAD-FILLET
10
9984.7145
20
8888.8394
30
0.0
0
VERTEX
8
C-ROAD-FILLET
10
9987.8294
20
8887.8440
30
0.0
0
VERTEX
8
C-ROAD-FILLET
10
9990.7878
20
8886.4504
30
0.0
0
VERTEX
8
C-ROAD-FILLET
10
9993.5390
20
8884.6827
30
0.0
0
VERTEX
8
C-ROAD-FILLET
10
9996.0359
20
8882.5710
30
0.0
0
VERTEX
8
C-ROAD-FILLET
10
9998.2358
20
8880.1514
30
0.0
0
VERTEX
8
C-ROAD-FILLET
10
10000.1011
20
8877.4654
30
0.0
0
VERTEX
8
C-ROAD-FILLET
10
10001.5998
20
8874.5589
30
0.0
0
VERTEX
8
C-ROAD-FILLET
10
10002.7064
20
8871.4817
30
0.0
0
VERTEX
8
C-ROAD-FILLET
10
10003.4018
20
8868.2863
30
0.0
0
VERTEX
8
C-ROAD-FILLET
10
10003.6742
20
8865.0275
30
0.0
0
SEQEND
0
POLYLINE
8
C-ROAD-FILLET
66
1
70
0
0
VERTEX
8
C-ROAD-FILLET
10
10509.8502
20
9454.0928
30
0.0
0
VERTEX
8
C-ROAD-FILLET
10
10507.7898
20
9451.5534
30
0.0
0
VERTEX
8
C-ROAD-FILLET
10
10505.4155
20
9449.3047
30
0.0
0
VERTEX
8
C-ROAD-FILLET
10
10502.7681
20
9447.3851
30
0.0
0
VERTEX
8
C-ROAD-FILLET
10
10499.8927
20
9445.8275
30
0.0
0
VERTEX
8
C-ROAD-FILLET
10
10496.8386
20
9444.6585
30
0.0
0
VERTEX
8
C-ROAD-FILLET
10
10493.6581
20
9443.8982
30
0.0
0
VERTEX
8
C-ROAD-FILLET
10
10490.4055
20
9443.5596
30
0.0
0
VERTEX
8
C-ROAD-FILLET
10
10487.1365
20
9443.6483
30
0.0
0
VERTEX
8
C-ROAD-FILLET
10
10483.9071
20
9444.1630
30
0.0
0
VERTEX
8
C-ROAD-FILLET
10
10480.7725
20
9445.0948
30
0.0
0
VERTEX
8
C-ROAD-FILLET
10
10477.7864
20
9446.4278
30
0.0
0
VERTEX
8
C-ROAD-FILLET
10
10474.9998
20
9448.1392
30
0.0
0
SEQEND
0
POLYLINE
8
C-ROAD-FILLET
66
1
70
0
0
VERTEX
8
C-ROAD-FILLET
10
10564.7688
20
9384.5661
30
0.0
0
VERTEX
8
C-ROAD-FILLET
10
10562.2294
20
9386.6266
30
0.0
0
VERTEX
8
C-ROAD-FILLET
10
10559.9806
20
9389.0008
30
0.0
0
VERTEX
8
C-ROAD-FILLET
10
10558.0611
20
9391.6483
30
0.0
0
VERTEX
8
C-ROAD-FILLET
10
10556.5035
20
9394.5237
30
0.0
0
VERTEX
8
C-ROAD-FILLET
10
10555.3345
20
9397.5778
30
0.0
0
VERTEX
8
C-ROAD-FILLET
10
10554.5742
20
9400.7583
30
0.0
0
VERTEX
8
C-ROAD-FILLET
10
10554.2355
20
9404.0109
30
0.0
0
VERTEX
8
C-ROAD-FILLET
10
10554.3243
20
9407.2799
30
0.0
0
VERTEX
8
C-ROAD-FILLET
10
10554.8390
20
9410.5093
30
0.0
0
VERTEX
8
C-ROAD-FILLET
10
10555.7708
20
9413.6438
30
0.0
0
VERTEX
8
C-ROAD-FILLET
10
10557.1038
20
9416.6300
30
0.0
0
VERTEX
8
C-ROAD-FILLET
10
10558.8151
20
9419.4166
30
0.0
0
SEQEND
0
POLYLINE
8
C-ROAD-FILLET
66
1
70
0
0
VERTEX
8
C-ROAD-FILLET
10
10844.4499
20
9217.1343
30
0.0
0
VERTEX
8
C-ROAD-FILLET
10
10842.3894
20
9214.5950
30
0.0
0
VERTEX
8
C-ROAD-FILLET
10
10840.0152
20
9212.3462
30
0.0
0
VERTEX
8
C-ROAD-FILLET
10
10837.3677
20
9210.4266
30
0.0
0
VERTEX
8
C-ROAD-FILLET
10
10834.4923
20
9208.8690
30
0.0
0
VERTEX
8
C-ROAD-FILLET
10
10831.4382
20
9207.7001
30
0.0
0
VERTEX
8
C-ROAD-FILLET
10
10828.2577
20
9206.9398
30
0.0
0
VERTEX
8
C-ROAD-FILLET
10
10825.0051
20
9206.6011
30
0.0
0
VERTEX
8
C-ROAD-FILLET
10
10821.7362
20
9206.6899
30
0.0
0
VERTEX
8
C-ROAD-FILLET
10
10818.5068
20
9207.2046
30
0.0
0
VERTEX
8
C-ROAD-FILLET
10
10815.3722
20
9208.1364
30
0.0
0
VERTEX
8
C-ROAD-FILLET
10
10812.3860
20
9209.4694
30
0.0
0
VERTEX
8
C-ROAD-FILLET
10
10809.5994
20
9211.1807
30
0.0
0
SEQEND
0
POLYLINE
8
C-ROAD-FILLET
66
1
70
0
0
VERTEX
8
C-ROAD-FILLET
10
10899.3684
20
9147.6077
30
0.0
0
VERTEX
8
C-ROAD-FILLET
10
10896.8290
20
9149.6681
30
0.0
0
VERTEX
8
C-ROAD-FILLET
10
10894.5803
20
9152.0424
30
0.0
0
VERTEX
8
C-ROAD-FILLET
10
10892.6607
20
9154.6899
30
0.0
0
VERTEX
8
C-ROAD-FILLET
10
10891.1031
20
9157.5652
30
0.0
0
VERTEX
8
C-ROAD-FILLET
10
10889.9341
20
9160.6193
30
0.0
0
VERTEX
8
C-ROAD-FILLET
10
10889.1738
20
9163.7999
30
0.0
0
VERTEX
8
C-ROAD-FILLET
10
10888.8351
20
9167.0525
30
0.0
0
VERTEX
8
C-ROAD-FILLET
10
10888.9239
20
9170.3214
30
0.0
0
VERTEX
8
C-ROAD-FILLET
10
10889.4386
20
9173.5508
30
0.0
0
VERTEX
8
C-ROAD-FILLET
10
10890.3704
20
9176.6854
30
0.0
0
VERTEX
8
C-ROAD-FILLET
10
10891.7034
20
9179.6715
30
0.0
0
VERTEX
8
C-ROAD-FILLET
10
10893.4148
20
9182.4581
30
0.0
0
SEQEND
0
POLYLINE
8
C-ROAD-FILLET
66
1
70
0
0
VERTEX
8
C-ROAD-FILLET
10
10092.6784
20
8642.5882
30
0.0
0
VERTEX
8
C-ROAD-FILLET
10
10089.4119
20
8642.7435
30
0.0
0
VERTEX
8
C-ROAD-FILLET
10
10086.1937
20
8643.3239
30
0.0
0
VERTEX
8
C-ROAD-FILLET
10
10083.0787
20
8644.3193
30
0.0
0
VERTEX
8
C-ROAD-FILLET
10
10080.1203
20
8645.7128
30
0.0
0
VERTEX
8
C-ROAD-FILLET
10
10077.3691
20
8647.4805
30
0.0
0
VERTEX
8
C-ROAD-FILLET
10
10074.8722
20
8649.5923
30
0.0
0
VERTEX
8
C-ROAD-FILLET
10
10072.6723
20
8652.0118
30
0.0
0
VERTEX
8
C-ROAD-FILLET
10
10070.8070
20
8654.6978
30
0.0
0
VERTEX
8
C-ROAD-FILLET
10
10069.3083
20
8657.6043
30
0.0
0
VERTEX
8
C-ROAD-FILLET
10
10068.2018
20
8660.6816
30
0.0
0
VERTEX
8
C-ROAD-FILLET
10
10067.5064
20
8663.8770
30
0.0
0
VERTEX
8
C-ROAD-FILLET
10
10067.2340
20
8667.1357
30
0.0
0
SEQEND
0
POLYLINE
8
C-ROAD-FILLET
66
1
70
0
0
VERTEX
8
C-ROAD-FILLET
10
10069.2071
20
8557.1534
30
0.0
0
VERTEX
8
C-ROAD-FILLET
10
10069.3624
20
8560.4199
30
0.0
0
VERTEX
8
C-ROAD-FILLET
10
10069.9427
20
8563.6382
30
0.0
0
VERTEX
8
C-ROAD-FILLET
10
10070.9382
20
8566.7531
30
0.0
0
VERTEX
8
C-ROAD-FILLET
10
10072.3317
20
8569.7115
30
0.0
0
VERTEX
8
C-ROAD-FILLET
10
10074.0994
20
8572.4627
30
0.0
0
VERTEX
8
C-ROAD-FILLET
10
10076.2111
20
8574.9596
30
0.0
0
VERTEX
8
C-ROAD-FILLET
10
10078.6307
20
8577.1595
30
0.0
0
VERTEX
8
C-ROAD-FILLET
10
10081.3167
20
8579.0248
30
0.0
0
VERTEX
8
C-ROAD-FILLET
10
10084.2232
20
8580.5235
30
0.0
0
VERTEX
8
C-ROAD-FILLET
10
10087.3005
20
8581.6301
30
0.0
0
VERTEX
8
C-ROAD-FILLET
10
10090.4958
20
8582.3255
30
0.0
0
VERTEX
8
C-ROAD-FILLET
10
10093.7546
20
8582.5979
30
0.0
0
SEQEND
0
POLYLINE
8
C-ROAD-CURV
66
1
70
0
0
VERTEX
8
C-ROAD-CURV
10
10093.2165
20
8612.5930
30
0.0
0
VERTEX
8
C-ROAD-CURV
10
10098.5660
20
8612.6360
30
0.0
0
VERTEX
8
C-ROAD-CURV
10
10103.9153
20
8612.5729
30
0.0
0
VERTEX
8
C-ROAD-CURV
10
10109.2622
20
8612.4039
30
0.0
0
VERTEX
8
C-ROAD-CURV
10
10114.6048
20
8612.1289
30
0.0
0
VERTEX
8
C-ROAD-CURV
10
10119.9409
20
8611.7482
30
0.0
0
VERTEX
8
C-ROAD-CURV
10
10125.2684
20
8611.2617
30
0.0
0
VERTEX
8
C-ROAD-CURV
10
10130.5852
20
8610.6698
30
0.0
0
VERTEX
8
C-ROAD-CURV
10
10135.8892
20
8609.9727
30
0.0
0
VERTEX
8
C-ROAD-CURV
10
10141.1784
20
8609.1706
30
0.0
0
VERTEX
8
C-ROAD-CURV
10
10146.4506
20
8608.2638
30
0.0
0
VERTEX
8
C-ROAD-CURV
10
10151.7038
20
8607.2528
30
0.0
0
VERTEX
8
C-ROAD-CURV
10
10156.9360
20
8606.1378
30
0.0
0
VERTEX
8
C-ROAD-CURV
10
10162.1450
20
8604.9194
30
0.0
0
VERTEX
8
C-ROAD-CURV
10
10167.3289
20
8603.5980
30
0.0
0
VERTEX
8
C-ROAD-CURV
10
10172.4856
20
8602.1742
30
0.0
0
VERTEX
8
C-ROAD-CURV
10
10177.6131
20
8600.6484
30
0.0
0
VERTEX
8
C-ROAD-CURV
10
10182.7093
20
8599.0213
30
0.0
0
VERTEX
8
C-ROAD-CURV
10
10187.7722
20
8597.2936
30
0.0
0
VERTEX
8
C-ROAD-CURV
10
10192.8000
20
8595.4659
30
0.0
0
VERTEX
8
C-ROAD-CURV
10
10197.7905
20
8593.5389
30
0.0
0
VERTEX
8
C-ROAD-CURV
10
10202.7419
20
8591.5135
30
0.0
0
VERTEX
8
C-ROAD-CURV
10
10207.6522
20
8589.3903
30
0.0
0
VERTEX
8
C-ROAD-CURV
10
10212.5194
20
8587.1702
30
0.0
0
VERTEX
8
C-ROAD-CURV
10
10217.3417
20
8584.8541
30
0.0
0
VERTEX
8
C-ROAD-CURV
10
10222.1171
20
8582.4429
30
0.0
0
VERTEX
8
C-ROAD-CURV
10
10226.8438
20
8579.9375
30
0.0
0
VERTEX
8
C-ROAD-CURV
10
10231.5200
20
8577.3390
30
0.0
0
VERTEX
8
C-ROAD-CURV
10
10236.1437
20
8574.6483
30
0.0
0
VERTEX
8
C-ROAD-CURV
10
10240.7133
20
8571.8666
30
0.0
0
VERTEX
8
C-ROAD-CURV
10
10245.2268
20
8568.9948
30
0.0
0
VERTEX
8
C-ROAD-CURV
10
10249.6825
20
8566.0342
30
0.0
0
VERTEX
8
C-ROAD-CURV
10
10254.0786
20
8562.9858
30
0.0
0
SEQEND
0
TEXT
8
C-ROAD-TEXT
7
STANDARD
10
10177.6131
20
8608.6484
30
0.0
40
5.0
1
San Salvadore Avenue CURVE: R=269.96', L=171.19', Delta=36.33%%d
50
0.0
72
1
11
10177.6131
21
8608.6484
31
0.0
73
2
0
POLYLINE
8
C-ROAD-CURV
66
1
70
0
0
VERTEX
8
C-ROAD-CURV
10
10234.9225
20
9489.4207
30
0.0
0
VERTEX
8
C-ROAD-CURV
10
10242.3088
20
9489.6553
30
0.0
0
VERTEX
8
C-ROAD-CURV
10
10249.6983
20
9489.7379
30
0.0
0
VERTEX
8
C-ROAD-CURV
10
10257.0879
20
9489.6685
30
0.0
0
VERTEX
8
C-ROAD-CURV
10
10264.4745
20
9489.4471
30
0.0
0
VERTEX
8
C-ROAD-CURV
10
10271.8551
20
9489.0738
30
0.0
0
VERTEX
8
C-ROAD-CURV
10
10279.2264
20
9488.5489
30
0.0
0
VERTEX
8
C-ROAD-CURV
10
10286.5853
20
9487.8724
30
0.0
0
VERTEX
8
C-ROAD-CURV
10
10293.9287
20
9487.0447
30
0.0
0
VERTEX
8
C-ROAD-CURV
10
10301.2536
20
9486.0661
30
0.0
0
VERTEX
8
C-ROAD-CURV
10
10308.5568
20
9484.9371
30
0.0
0
VERTEX
8
C-ROAD-CURV
10
10315.8353
20
9483.6581
30
0.0
0
VERTEX
8
C-ROAD-CURV
10
10323.0859
20
9482.2296
30
0.0
0
VERTEX
8
C-ROAD-CURV
10
10330.3055
20
9480.6524
30
0.0
0
VERTEX
8
C-ROAD-CURV
10
10337.4912
20
9478.9269
30
0.0
0
VERTEX
8
C-ROAD-CURV
10
10344.6399
20
9477.0541
30
0.0
0
VERTEX
8
C-ROAD-CURV
10
10351.7486
20
9475.0346
30
0.0
0
VERTEX
8
C-ROAD-CURV
10
10358.8142
20
9472.8693
30
0.0
0
VERTEX
8
C-ROAD-CURV
10
10365.8338
20
9470.5591
30
0.0
0
VERTEX
8
C-ROAD-CURV
10
10372.8044
20
9468.1051
30
0.0
0
VERTEX
8
C-ROAD-CURV
10
10379.7230
20
9465.5082
30
0.0
0
VERTEX
8
C-ROAD-CURV
10
10386.5868
20
9462.7695
30
0.0
0
VERTEX
8
C-ROAD-CURV
10
10393.3928
20
9459.8903
30
0.0
0
VERTEX
8
C-ROAD-CURV
10
10400.1381
20
9456.8716
30
0.0
0
VERTEX
8
C-ROAD-CURV
10
10406.8199
20
9453.7149
30
0.0
0
VERTEX
8
C-ROAD-CURV
10
10413.4354
20
9450.4214
30
0.0
0
VERTEX
8
C-ROAD-CURV
10
10419.9817
20
9446.9925
30
0.0
0
VERTEX
8
C-ROAD-CURV
10
10426.4561
20
9443.4297
30
0.0
0
VERTEX
8
C-ROAD-CURV
10
10432.8559
20
9439.7345
30
0.0
0
VERTEX
8
C-ROAD-CURV
10
10439.1783
20
9435.9085
30
0.0
0
VERTEX
8
C-ROAD-CURV
10
10445.4206
20
9431.9532
30
0.0
0
VERTEX
8
C-ROAD-CURV
10
10451.5803
20
9427.8703
30
0.0
0
VERTEX
8
C-ROAD-CURV
10
10457.6548
20
9423.6616
30
0.0
0
SEQEND
0
TEXT
8
C-ROAD-TEXT
7
STANDARD
10
10351.7486
20
9483.0346
30
0.0
40
5.0
1
Marina Avenue CURVE: R=359.27', L=236.48', Delta=37.71%%d
50
0.0
72
1
11
10351.7486
21
9483.0346
31
0.0
73
2
0
POLYLINE
8
C-ROAD-CURV
66
1
70
0
0
VERTEX
8
C-ROAD-CURV
10
10869.0237
20
9199.9252
30
0.0
0
VERTEX
8
C-ROAD-CURV
10
10871.4433
20
9203.2406
30
0.0
0
VERTEX
8
C-ROAD-CURV
10
10873.9564
20
9206.4856
30
0.0
0
VERTEX
8
C-ROAD-CURV
10
10876.5611
20
9209.6577
30
0.0
0
VERTEX
8
C-ROAD-CURV
10
10879.2551
20
9212.7542
30
0.0
0
VERTEX
8
C-ROAD-CURV
10
10882.0364
20
9215.7726
30
0.0
0
VERTEX
8
C-ROAD-CURV
10
10884.9026
20
9218.7105
30
0.0
0
VERTEX
8
C-ROAD-CURV
10
10887.8513
20
9221.5654
30
0.0
0
VERTEX
8
C-ROAD-CURV
10
10890.8803
20
9224.3351
30
0.0
0
VERTEX
8
C-ROAD-CURV
10
10893.9871
20
9227.0174
30
0.0
0
VERTEX
8
C-ROAD-CURV
10
10897.1690
20
9229.6099
30
0.0
0
VERTEX
8
C-ROAD-CURV
10
10900.4236
20
9232.1107
30
0.0
0
VERTEX
8
C-ROAD-CURV
10
10903.7482
20
9234.5176
30
0.0
0
VERTEX
8
C-ROAD-CURV
10
10907.1400
20
9236.8288
30
0.0
0
VERTEX
8
C-ROAD-CURV
10
10910.5964
20
9239.0423
30
0.0
0
VERTEX
8
C-ROAD-CURV
10
10914.1145
20
9241.1564
30
0.0
0
VERTEX
8
C-ROAD-CURV
10
10917.6914
20
9243.1693
30
0.0
0
VERTEX
8
C-ROAD-CURV
10
10921.3243
20
9245.0794
30
0.0
0
VERTEX
8
C-ROAD-CURV
10
10925.0101
20
9246.8851
30
0.0
0
VERTEX
8
C-ROAD-CURV
10
10928.7460
20
9248.5850
30
0.0
0
VERTEX
8
C-ROAD-CURV
10
10932.5288
20
9250.1777
30
0.0
0
VERTEX
8
C-ROAD-CURV
10
10936.3554
20
9251.6618
30
0.0
0
VERTEX
8
C-ROAD-CURV
10
10940.2229
20
9253.0363
30
0.0
0
VERTEX
8
C-ROAD-CURV
10
10944.1279
20
9254.2999
30
0.0
0
VERTEX
8
C-ROAD-CURV
10
10948.0674
20
9255.4516
30
0.0
0
VERTEX
8
C-ROAD-CURV
10
10952.0381
20
9256.4906
30
0.0
0
VERTEX
8
C-ROAD-CURV
10
10956.0369
20
9257.4159
30
0.0
0
VERTEX
8
C-ROAD-CURV
10
10960.0604
20
9258.2268
30
0.0
0
VERTEX
8
C-ROAD-CURV
10
10964.1054
20
9258.9227
30
0.0
0
VERTEX
8
C-ROAD-CURV
10
10968.1686
20
9259.5029
30
0.0
0
VERTEX
8
C-ROAD-CURV
10
10972.2466
20
9259.9671
30
0.0
0
VERTEX
8
C-ROAD-CURV
10
10976.3363
20
9260.3147
30
0.0
0
VERTEX
8
C-ROAD-CURV
10
10980.4342
20
9260.5457
30
0.0
0
SEQEND
0
TEXT
8
C-ROAD-TEXT
7
STANDARD
10
10917.6914
20
9251.1693
30
0.0
40
5.0
1
Keel Drive CURVE: R=143.93', L=131.35', Delta=52.29%%d
50
0.0
72
1
11
10917.6914
21
9251.1693
31
0.0
73
2
0
POLYLINE
8
C-ROAD-CURV
66
1
70
0
0
VERTEX
8
C-ROAD-CURV
10
10534.3248
20
9436.7435
30
0.0
0
VERTEX
8
C-ROAD-CURV
10
10537.1482
20
9440.6122
30
0.0
0
VERTEX
8
C-ROAD-CURV
10
10540.0807
20
9444.3988
30
0.0
0
VERTEX
8
C-ROAD-CURV
10
10543.1201
20
9448.1002
30
0.0
0
VERTEX
8
C-ROAD-CURV
10
10546.2637
20
9451.7134
30
0.0
0
VERTEX
8
C-ROAD-CURV
10
10549.5091
20
9455.2356
30
0.0
0
VERTEX
8
C-ROAD-CURV
10
10552.8536
20
9458.6637
30
0.0
0
VERTEX
8
C-ROAD-CURV
10
10556.2945
20
9461.9952
30
0.0
0
VERTEX
8
C-ROAD-CURV
10
10559.8290
20
9465.2271
30
0.0
0
VERTEX
8
C-ROAD-CURV
10
10563.4542
20
9468.3570
30
0.0
0
VERTEX
8
C-ROAD-CURV
10
10567.1672
20
9471.3822
30
0.0
0
VERTEX
8
C-ROAD-CURV
10
10570.9650
20
9474.3003
30
0.0
0
VERTEX
8
C-ROAD-CURV
10
10574.8443
20
9477.1089
30
0.0
0
VERTEX
8
C-ROAD-CURV
10
10578.8022
20
9479.8058
30
0.0
0
VERTEX
8
C-ROAD-CURV
10
10582.8354
20
9482.3887
30
0.0
0
VERTEX
8
C-ROAD-CURV
10
10586.9406
20
9484.8556
30
0.0
0
VERTEX
8
C-ROAD-CURV
10
10591.1145
20
9487.2044
30
0.0
0
VERTEX
8
C-ROAD-CURV
10
10595.3537
20
9489.4333
30
0.0
0
VERTEX
8
C-ROAD-CURV
10
10599.6546
20
9491.5404
30
0.0
0
VERTEX
8
C-ROAD-CURV
10
10604.0139
20
9493.5239
30
0.0
0
VERTEX
8
C-ROAD-CURV
10
10608.4280
20
9495.3824
30
0.0
0
VERTEX
8
C-ROAD-CURV
10
10612.8933
20
9497.1143
30
0.0
0
VERTEX
8
C-ROAD-CURV
10
10617.4062
20
9498.7181
30
0.0
0
VERTEX
8
C-ROAD-CURV
10
10621.9629
20
9500.1926
30
0.0
0
VERTEX
8
C-ROAD-CURV
10
10626.5599
20
9501.5365
30
0.0
0
VERTEX
8
C-ROAD-CURV
10
10631.1933
20
9502.7489
30
0.0
0
VERTEX
8
C-ROAD-CURV
10
10635.8593
20
9503.8286
30
0.0
0
VERTEX
8
C-ROAD-CURV
10
10640.5543
20
9504.7749
30
0.0
0
VERTEX
8
C-ROAD-CURV
10
10645.2744
20
9505.5868
30
0.0
0
VERTEX
8
C-ROAD-CURV
10
10650.0156
20
9506.2639
30
0.0
0
VERTEX
8
C-ROAD-CURV
10
10654.7743
20
9506.8055
30
0.0
0
VERTEX
8
C-ROAD-CURV
10
10659.5465
20
9507.2112
30
0.0
0
VERTEX
8
C-ROAD-CURV
10
10664.3282
20
9507.4807
30
0.0
0
SEQEND
0
TEXT
8
C-ROAD-TEXT
7
STANDARD
10
10591.1145
20
9495.2044
30
0.0
40
5.0
1
Shellfish Drive CURVE: R=167.95', L=153.27', Delta=52.29%%d
50
0.0
72
1
11
10591.1145
21
9495.2044
31
0.0
73
2
0
POLYLINE
8
C-ROAD-CURV
66
1
70
0
0
VERTEX
8
C-ROAD-CURV
10
10137.2839
20
9222.4816
30
0.0
0
VERTEX
8
C-ROAD-CURV
10
10146.3865
20
9222.5547
30
0.0
0
VERTEX
8
C-ROAD-CURV
10
10155.4888
20
9222.4474
30
0.0
0
VERTEX
8
C-ROAD-CURV
10
10164.5871
20
9222.1598
30
0.0
0
VERTEX
8
C-ROAD-CURV
10
10173.6779
20
9221.6919
30
0.0
0
VERTEX
8
C-ROAD-CURV
10
10182.7577
20
9221.0440
30
0.0
0
VERTEX
8
C-ROAD-CURV
10
10191.8229
20
9220.2163
30
0.0
0
VERTEX
8
C-ROAD-CURV
10
10200.8699
20
9219.2091
30
0.0
0
VERTEX
8
C-ROAD-CURV
10
10209.8951
20
9218.0228
30
0.0
0
VERTEX
8
C-ROAD-CURV
10
10218.8951
20
9216.6580
30
0.0
0
VERTEX
8
C-ROAD-CURV
10
10227.8663
20
9215.1150
30
0.0
0
VERTEX
8
C-ROAD-CURV
10
10236.8051
20
9213.3947
30
0.0
0
VERTEX
8
C-ROAD-CURV
10
10245.7081
20
9211.4975
30
0.0
0
VERTEX
8
C-ROAD-CURV
10
10254.5717
20
9209.4243
30
0.0
0
VERTEX
8
C-ROAD-CURV
10
10263.3926
20
9207.1758
30
0.0
0
VERTEX
8
C-ROAD-CURV
10
10272.1671
20
9204.7530
30
0.0
0
VERTEX
8
C-ROAD-CURV
10
10280.8919
20
9202.1568
30
0.0
0
VERTEX
8
C-ROAD-CURV
10
10289.5635
20
9199.3882
30
0.0
0
VERTEX
8
C-ROAD-CURV
10
10298.1786
20
9196.4484
30
0.0
0
VERTEX
8
C-ROAD-CURV
10
10306.7337
20
9193.3384
30
0.0
0
VERTEX
8
C-ROAD-CURV
10
10315.2256
20
9190.0594
30
0.0
0
VERTEX
8
C-ROAD-CURV
10
10323.6508
20
9186.6129
30
0.0
0
VERTEX
8
C-ROAD-CURV
10
10332.0060
20
9183.0001
30
0.0
0
VERTEX
8
C-ROAD-CURV
10
10340.2880
20
9179.2224
30
0.0
0
VERTEX
8
C-ROAD-CURV
10
10348.4935
20
9175.2814
30
0.0
0
VERTEX
8
C-ROAD-CURV
10
10356.6193
20
9171.1786
30
0.0
0
VERTEX
8
C-ROAD-CURV
10
10364.6623
20
9166.9155
30
0.0
0
VERTEX
8
C-ROAD-CURV
10
10372.6191
20
9162.4939
30
0.0
0
VERTEX
8
C-ROAD-CURV
10
10380.4868
20
9157.9155
30
0.0
0
VERTEX
8
C-ROAD-CURV
10
10388.2623
20
9153.1821
30
0.0
0
VERTEX
8
C-ROAD-CURV
10
10395.9424
20
9148.2955
30
0.0
0
VERTEX
8
C-ROAD-CURV
10
10403.5241
20
9143.2577
30
0.0
0
VERTEX
8
C-ROAD-CURV
10
10411.0046
20
9138.0707
30
0.0
0
SEQEND
0
TEXT
8
C-ROAD-TEXT
7
STANDARD
10
10280.8919
20
9210.1568
30
0.0
40
5.0
1
Sands Avenue CURVE: R=459.36', L=291.30', Delta=36.33%%d
50
0.0
72
1
11
10280.8919
21
9210.1568
31
0.0
73
2
0
POLYLINE
8
C-ROAD-CURV
66
1
70
0
0
VERTEX
8
C-ROAD-CURV
10
10087.6739
20
8921.5433
30
0.0
0
VERTEX
8
C-ROAD-CURV
10
10094.1539
20
8921.5953
30
0.0
0
VERTEX
8
C-ROAD-CURV
10
10100.6336
20
8921.5190
30
0.0
0
VERTEX
8
C-ROAD-CURV
10
10107.1106
20
8921.3142
30
0.0
0
VERTEX
8
C-ROAD-CURV
10
10113.5822
20
8920.9811
30
0.0
0
VERTEX
8
C-ROAD-CURV
10
10120.0459
20
8920.5199
30
0.0
0
VERTEX
8
C-ROAD-CURV
10
10126.4992
20
8919.9307
30
0.0
0
VERTEX
8
C-ROAD-CURV
10
10132.9396
20
8919.2137
30
0.0
0
VERTEX
8
C-ROAD-CURV
10
10139.3645
20
8918.3692
30
0.0
0
VERTEX
8
C-ROAD-CURV
10
10145.7714
20
8917.3976
30
0.0
0
VERTEX
8
C-ROAD-CURV
10
10152.1579
20
8916.2992
30
0.0
0
VERTEX
8
C-ROAD-CURV
10
10158.5212
20
8915.0745
30
0.0
0
VERTEX
8
C-ROAD-CURV
10
10164.8591
20
8913.7239
30
0.0
0
VERTEX
8
C-ROAD-CURV
10
10171.1690
20
8912.2480
30
0.0
0
VERTEX
8
C-ROAD-CURV
10
10177.4484
20
8910.6474
30
0.0
0
VERTEX
8
C-ROAD-CURV
10
10183.6948
20
8908.9226
30
0.0
0
VERTEX
8
C-ROAD-CURV
10
10189.9058
20
8907.0745
30
0.0
0
VERTEX
8
C-ROAD-CURV
10
10196.0790
20
8905.1036
30
0.0
0
VERTEX
8
C-ROAD-CURV
10
10202.2119
20
8903.0107
30
0.0
0
VERTEX
8
C-ROAD-CURV
10
10208.3022
20
8900.7968
30
0.0
0
VERTEX
8
C-ROAD-CURV
10
10214.3473
20
8898.4626
30
0.0
0
VERTEX
8
C-ROAD-CURV
10
10220.3451
20
8896.0091
30
0.0
0
VERTEX
8
C-ROAD-CURV
10
10226.2930
20
8893.4372
30
0.0
0
VERTEX
8
C-ROAD-CURV
10
10232.1888
20
8890.7479
30
0.0
0
VERTEX
8
C-ROAD-CURV
10
10238.0302
20
8887.9424
30
0.0
0
VERTEX
8
C-ROAD-CURV
10
10243.8148
20
8885.0216
30
0.0
0
VERTEX
8
C-ROAD-CURV
10
10249.5404
20
8881.9868
30
0.0
0
VERTEX
8
C-ROAD-CURV
10
10255.2048
20
8878.8392
30
0.0
0
VERTEX
8
C-ROAD-CURV
10
10260.8056
20
8875.5799
30
0.0
0
VERTEX
8
C-ROAD-CURV
10
10266.3408
20
8872.2102
30
0.0
0
VERTEX
8
C-ROAD-CURV
10
10271.8081
20
8868.7316
30
0.0
0
VERTEX
8
C-ROAD-CURV
10
10277.2055
20
8865.1453
30
0.0
0
VERTEX
8
C-ROAD-CURV
10
10282.5307
20
8861.4528
30
0.0
0
SEQEND
0
TEXT
8
C-ROAD-TEXT
7
STANDARD
10
10189.9058
20
8915.0745
30
0.0
40
5.0
1
Cape Horn Avenue CURVE: R=327.01', L=207.37', Delta=36.33%%d
50
0.0
72
1
11
10189.9058
21
8915.0745
31
0.0
73
2
0
POLYLINE
8
C-ROAD-ALIGNMENT
66
1
70
0
0
VERTEX
8
C-ROAD-ALIGNMENT
10
9992.4362
20
10179.8410
30
0.0
0
VERTEX
8
C-ROAD-ALIGNMENT
10
10000.0000
20
10000.0000
30
0.0
0
VERTEX
8
C-ROAD-ALIGNMENT
10
10010.9255
20
9740.2297
30
0.0
0
VERTEX
8
C-ROAD-ALIGNMENT
10
10021.8509
20
9480.4593
30
0.0
0
VERTEX
8
C-ROAD-ALIGNMENT
10
10023.2237
20
9447.8195
30
0.0
0
VERTEX
8
C-ROAD-ALIGNMENT
10
10027.3016
20
9220.5085
30
0.0
0
VERTEX
8
C-ROAD-ALIGNMENT
10
10029.9922
20
9070.5326
30
0.0
0
VERTEX
8
C-ROAD-ALIGNMENT
10
10032.6828
20
8920.5568
30
0.0
0
VERTEX
8
C-ROAD-ALIGNMENT
10
10045.1472
20
8225.7761
30
0.0
0
VERTEX
8
C-ROAD-ALIGNMENT
10
10047.8377
20
8075.8003
30
0.0
0
VERTEX
8
C-ROAD-ALIGNMENT
10
10050.1696
20
7945.8212
30
0.0
0
SEQEND
0
TEXT
8
C-ROAD-TEXT
7
STANDARD
10
9994.4362
20
10181.8410
30
0.0
40
3.5
1
STA 0+00.00
50
0.0
0
TEXT
8
C-ROAD-TEXT
7
STANDARD
10
10002.0000
20
10002.0000
30
0.0
40
3.5
1
STA 1+80.00
50
0.0
0
TEXT
8
C-ROAD-TEXT
7
STANDARD
10
10012.9255
20
9742.2297
30
0.0
40
3.5
1
STA 4+40.00
50
0.0
0
TEXT
8
C-ROAD-TEXT
7
STANDARD
10
10023.8509
20
9482.4593
30
0.0
40
3.5
1
STA 7+00.00
50
0.0
0
TEXT
8
C-ROAD-TEXT
7
STANDARD
10
10025.2237
20
9449.8195
30
0.0
40
3.5
1
STA 7+32.67
50
0.0
0
TEXT
8
C-ROAD-TEXT
7
STANDARD
10
10029.3016
20
9222.5085
30
0.0
40
3.5
1
STA 9+60.02
50
0.0
0
TEXT
8
C-ROAD-TEXT
7
STANDARD
10
10031.9922
20
9072.5326
30
0.0
40
3.5
1
STA 11+10.02
50
0.0
0
TEXT
8
C-ROAD-TEXT
7
STANDARD
10
10034.6828
20
8922.5568
30
0.0
40
3.5
1
STA 12+60.02
50
0.0
0
TEXT
8
C-ROAD-TEXT
7
STANDARD
10
10047.1472
20
8227.7761
30
0.0
40
3.5
1
STA 19+54.91
50
0.0
0
TEXT
8
C-ROAD-TEXT
7
STANDARD
10
10049.8377
20
8077.8003
30
0.0
40
3.5
1
STA 21+04.91
50
0.0
0
TEXT
8
C-ROAD-TEXT
7
STANDARD
10
10052.1696
20
7947.8212
30
0.0
40
3.5
1
STA 22+34.91
50
0.0
0
POLYLINE
8
C-ROAD-ALIGNMENT
66
1
70
0
0
VERTEX
8
C-ROAD-ALIGNMENT
10
9820.1590
20
9992.4362
30
0.0
0
VERTEX
8
C-ROAD-ALIGNMENT
10
10000.0000
20
10000.0000
30
0.0
0
VERTEX
8
C-ROAD-ALIGNMENT
10
11399.7176
20
10058.8695
30
0.0
0
SEQEND
0
TEXT
8
C-ROAD-TEXT
7
STANDARD
10
9822.1590
20
9994.4362
30
0.0
40
3.5
1
STA 0+00.00
50
0.0
0
TEXT
8
C-ROAD-TEXT
7
STANDARD
10
10002.0000
20
10002.0000
30
0.0
40
3.5
1
STA 1+80.00
50
0.0
0
TEXT
8
C-ROAD-TEXT
7
STANDARD
10
11401.7176
20
10060.8695
30
0.0
40
3.5
1
STA 15+80.95
50
0.0
0
POLYLINE
8
C-ROAD-ALIGNMENT
66
1
70
0
0
VERTEX
8
C-ROAD-ALIGNMENT
10
10010.9255
20
9740.2297
30
0.0
0
VERTEX
8
C-ROAD-ALIGNMENT
10
11402.8702
20
9798.7722
30
0.0
0
SEQEND
0
TEXT
8
C-ROAD-TEXT
7
STANDARD
10
10012.9255
20
9742.2297
30
0.0
40
3.5
1
STA 0+00.00
50
0.0
0
TEXT
8
C-ROAD-TEXT
7
STANDARD
10
11404.8702
20
9800.7722
30
0.0
40
3.5
1
STA 13+93.18
50
0.0
0
POLYLINE
8
C-ROAD-ALIGNMENT
66
1
70
0
0
VERTEX
8
C-ROAD-ALIGNMENT
10
10021.8509
20
9480.4593
30
0.0
0
VERTEX
8
C-ROAD-ALIGNMENT
10
10234.9225
20
9489.4207
30
0.0
0
VERTEX
8
C-ROAD-ALIGNMENT
10
10249.6983
20
9489.7379
30
0.0
0
VERTEX
8
C-ROAD-ALIGNMENT
10
10264.4745
20
9489.4471
30
0.0
0
VERTEX
8
C-ROAD-ALIGNMENT
10
10279.2264
20
9488.5489
30
0.0
0
VERTEX
8
C-ROAD-ALIGNMENT
10
10293.9287
20
9487.0447
30
0.0
0
VERTEX
8
C-ROAD-ALIGNMENT
10
10308.5568
20
9484.9371
30
0.0
0
VERTEX
8
C-ROAD-ALIGNMENT
10
10323.0859
20
9482.2296
30
0.0
0
VERTEX
8
C-ROAD-ALIGNMENT
10
10337.4912
20
9478.9269
30
0.0
0
VERTEX
8
C-ROAD-ALIGNMENT
10
10351.7486
20
9475.0346
30
0.0
0
VERTEX
8
C-ROAD-ALIGNMENT
10
10365.8338
20
9470.5591
30
0.0
0
VERTEX
8
C-ROAD-ALIGNMENT
10
10379.7230
20
9465.5082
30
0.0
0
VERTEX
8
C-ROAD-ALIGNMENT
10
10393.3928
20
9459.8903
30
0.0
0
VERTEX
8
C-ROAD-ALIGNMENT
10
10406.8199
20
9453.7149
30
0.0
0
VERTEX
8
C-ROAD-ALIGNMENT
10
10419.9817
20
9446.9925
30
0.0
0
VERTEX
8
C-ROAD-ALIGNMENT
10
10432.8559
20
9439.7345
30
0.0
0
VERTEX
8
C-ROAD-ALIGNMENT
10
10445.4206
20
9431.9532
30
0.0
0
VERTEX
8
C-ROAD-ALIGNMENT
10
10457.6548
20
9423.6616
30
0.0
0
VERTEX
8
C-ROAD-ALIGNMENT
10
10837.1458
20
9154.9118
30
0.0
0
VERTEX
8
C-ROAD-ALIGNMENT
10
11058.3450
20
8998.2618
30
0.0
0
SEQEND
0
TEXT
8
C-ROAD-TEXT
7
STANDARD
10
10023.8509
20
9482.4593
30
0.0
40
3.5
1
STA 0+00.00
50
0.0
0
TEXT
8
C-ROAD-TEXT
7
STANDARD
10
10236.9225
20
9491.4207
30
0.0
40
3.5
1
STA 2+13.26
50
0.0
0
TEXT
8
C-ROAD-TEXT
7
STANDARD
10
10459.6548
20
9425.6616
30
0.0
40
3.5
1
STA 4+49.74
50
0.0
0
TEXT
8
C-ROAD-TEXT
7
STANDARD
10
10839.1458
20
9156.9118
30
0.0
40
3.5
1
STA 9+14.76
50
0.0
0
TEXT
8
C-ROAD-TEXT
7
STANDARD
10
11060.3450
20
9000.2618
30
0.0
40
3.5
1
STA 11+85.81
50
0.0
0
POLYLINE
8
C-ROAD-ALIGNMENT
66
1
70
0
0
VERTEX
8
C-ROAD-ALIGNMENT
10
9865.1604
20
8223.5945
30
0.0
0
VERTEX
8
C-ROAD-ALIGNMENT
10
10045.1472
20
8225.7761
30
0.0
0
VERTEX
8
C-ROAD-ALIGNMENT
10
10489.7145
20
8231.1647
30
0.0
0
SEQEND
0
TEXT
8
C-ROAD-TEXT
7
STANDARD
10
9867.1604
20
8225.5945
30
0.0
40
3.5
1
STA 0+00.00
50
0.0
0
TEXT
8
C-ROAD-TEXT
7
STANDARD
10
10047.1472
20
8227.7761
30
0.0
40
3.5
1
STA 1+80.00
50
0.0
0
TEXT
8
C-ROAD-TEXT
7
STANDARD
10
10491.7145
20
8233.1647
30
0.0
40
3.5
1
STA 6+24.60
50
0.0
0
POLYLINE
8
C-ROAD-ALIGNMENT
66
1
70
0
0
VERTEX
8
C-ROAD-ALIGNMENT
10
10502.5462
20
9391.8702
30
0.0
0
VERTEX
8
C-ROAD-ALIGNMENT
10
10534.3248
20
9436.7435
30
0.0
0
VERTEX
8
C-ROAD-ALIGNMENT
10
10664.3282
20
9507.4807
30
0.0
0
VERTEX
8
C-ROAD-ALIGNMENT
10
11406.0228
20
9538.6750
30
0.0
0
SEQEND
0
TEXT
8
C-ROAD-TEXT
7
STANDARD
10
10504.5462
20
9393.8702
30
0.0
40
3.5
1
STA 0+00.00
50
0.0
0
TEXT
8
C-ROAD-TEXT
7
STANDARD
10
10536.3248
20
9438.7435
30
0.0
40
3.5
1
STA 0+54.99
50
0.0
0
TEXT
8
C-ROAD-TEXT
7
STANDARD
10
10666.3282
20
9509.4807
30
0.0
40
3.5
1
STA 2+02.99
50
0.0
0
TEXT
8
C-ROAD-TEXT
7
STANDARD
10
11408.0228
20
9540.6750
30
0.0
40
3.5
1
STA 9+45.34
50
0.0
0
POLYLINE
8
C-ROAD-ALIGNMENT
66
1
70
0
0
VERTEX
8
C-ROAD-ALIGNMENT
10
11397.5345
20
10238.9773
30
0.0
0
VERTEX
8
C-ROAD-ALIGNMENT
10
11399.7176
20
10058.8695
30
0.0
0
VERTEX
8
C-ROAD-ALIGNMENT
10
11402.8702
20
9798.7722
30
0.0
0
VERTEX
8
C-ROAD-ALIGNMENT
10
11406.0228
20
9538.6750
30
0.0
0
VERTEX
8
C-ROAD-ALIGNMENT
10
11409.1754
20
9278.5777
30
0.0
0
VERTEX
8
C-ROAD-ALIGNMENT
10
11412.8248
20
8977.4966
30
0.0
0
SEQEND
0
TEXT
8
C-ROAD-TEXT
7
STANDARD
10
11399.5345
20
10240.9773
30
0.0
40
3.5
1
STA 0+00.00
50
0.0
0
TEXT
8
C-ROAD-TEXT
7
STANDARD
10
11401.7176
20
10060.8695
30
0.0
40
3.5
1
STA 1+80.12
50
0.0
0
TEXT
8
C-ROAD-TEXT
7
STANDARD
10
11404.8702
20
9800.7722
30
0.0
40
3.5
1
STA 4+40.24
50
0.0
0
TEXT
8
C-ROAD-TEXT
7
STANDARD
10
11408.0228
20
9540.6750
30
0.0
40
3.5
1
STA 7+00.35
50
0.0
0
TEXT
8
C-ROAD-TEXT
7
STANDARD
10
11411.1754
20
9280.5777
30
0.0
40
3.5
1
STA 9+60.47
50
0.0
0
TEXT
8
C-ROAD-TEXT
7
STANDARD
10
11414.8248
20
8979.4966
30
0.0
40
3.5
1
STA 12+61.57
50
0.0
0
POLYLINE
8
C-ROAD-ALIGNMENT
66
1
70
0
0
VERTEX
8
C-ROAD-ALIGNMENT
10
10837.1458
20
9154.9118
30
0.0
0
VERTEX
8
C-ROAD-ALIGNMENT
10
10869.0237
20
9199.9252
30
0.0
0
VERTEX
8
C-ROAD-ALIGNMENT
10
10980.4342
20
9260.5457
30
0.0
0
VERTEX
8
C-ROAD-ALIGNMENT
10
11409.1754
20
9278.5777
30
0.0
0
SEQEND
0
TEXT
8
C-ROAD-TEXT
7
STANDARD
10
10839.1458
20
9156.9118
30
0.0
40
3.5
1
STA 0+00.00
50
0.0
0
TEXT
8
C-ROAD-TEXT
7
STANDARD
10
10871.0237
20
9201.9252
30
0.0
40
3.5
1
STA 0+55.16
50
0.0
0
TEXT
8
C-ROAD-TEXT
7
STANDARD
10
10982.4342
20
9262.5457
30
0.0
40
3.5
1
STA 1+81.99
50
0.0
0
TEXT
8
C-ROAD-TEXT
7
STANDARD
10
11411.1754
20
9280.5777
30
0.0
40
3.5
1
STA 6+11.11
50
0.0
0
POINT
8
C-ROAD-INTX
10
10000.0000
20
10000.0000
30
0.0
0
TEXT
8
C-ROAD-TEXT
7
STANDARD
10
10003.0000
20
10003.0000
30
0.0
40
3.5
1
Starfish Ave & Mangrove Ave
50
0.0
0
POINT
8
C-ROAD-TIE
10
9992.4362
20
10179.8410
30
0.0
0
TEXT
8
C-ROAD-TEXT
7
STANDARD
10
9995.4362
20
10182.8410
30
0.0
40
3.5
1
Mangrove Ave & Sec 32 North Line (Subdivision Limit)
50
0.0
0
POINT
8
C-ROAD-INTX
10
10010.9255
20
9740.2297
30
0.0
0
TEXT
8
C-ROAD-TEXT
7
STANDARD
10
10013.9255
20
9743.2297
30
0.0
40
3.5
1
Sail Ave & Mangrove Ave
50
0.0
0
POINT
8
C-ROAD-INTX
10
10021.8509
20
9480.4593
30
0.0
0
TEXT
8
C-ROAD-TEXT
7
STANDARD
10
10024.8509
20
9483.4593
30
0.0
40
3.5
1
Marina Dr (west leg) & Mangrove Ave
50
0.0
0
POINT
8
C-ROAD-INTX
10
10023.2237
20
9447.8195
30
0.0
0
TEXT
8
C-ROAD-TEXT
7
STANDARD
10
10026.2237
20
9450.8195
30
0.0
40
3.5
1
Mangrove Ave Deflection Point (N-Leg to S-Leg)
50
0.0
0
POINT
8
C-ROAD-INTX
10
10027.3016
20
9220.5085
30
0.0
0
TEXT
8
C-ROAD-TEXT
7
STANDARD
10
10030.3016
20
9223.5085
30
0.0
40
3.5
1
Sands Ave & Mangrove Ave
50
0.0
0
POINT
8
C-ROAD-INTX
10
10029.9922
20
9070.5326
30
0.0
0
TEXT
8
C-ROAD-TEXT
7
STANDARD
10
10032.9922
20
9073.5326
30
0.0
40
3.5
1
40' Drainage R/W & Mangrove Ave
50
0.0
0
POINT
8
C-ROAD-INTX
10
10032.6828
20
8920.5568
30
0.0
0
TEXT
8
C-ROAD-TEXT
7
STANDARD
10
10035.6828
20
8923.5568
30
0.0
40
3.5
1
Cape Horn Ave & Mangrove Ave
50
0.0
0
POINT
8
C-ROAD-INTX
10
10038.2254
20
8611.6065
30
0.0
0
TEXT
8
C-ROAD-TEXT
7
STANDARD
10
10041.2254
20
8614.6065
30
0.0
40
3.5
1
San Salvadore Ave & Mangrove Ave
50
0.0
0
POINT
8
C-ROAD-INTX
10
10045.1472
20
8225.7761
30
0.0
0
TEXT
8
C-ROAD-TEXT
7
STANDARD
10
10048.1472
20
8228.7761
30
0.0
40
3.5
1
Surfwood Ave & Mangrove Ave
50
0.0
0
POINT
8
C-ROAD-INTX
10
10047.8377
20
8075.8003
30
0.0
0
TEXT
8
C-ROAD-TEXT
7
STANDARD
10
10050.8377
20
8078.8003
30
0.0
40
3.5
1
Bayou Ave & Mangrove Ave
50
0.0
0
POINT
8
C-ROAD-TIE
10
10050.1696
20
7945.8212
30
0.0
0
TEXT
8
C-ROAD-TEXT
7
STANDARD
10
10053.1696
20
7948.8212
30
0.0
40
3.5
1
Mangrove Ave & Plat South Limit
50
0.0
0
POINT
8
C-ROAD-TIE
10
9865.1604
20
8223.5945
30
0.0
0
TEXT
8
C-ROAD-TEXT
7
STANDARD
10
9868.1604
20
8226.5945
30
0.0
40
3.5
1
Surfwood Ave & West Boundary (Course 2)
50
0.0
0
POINT
8
C-ROAD-TIE
10
10489.7145
20
8231.1647
30
0.0
0
TEXT
8
C-ROAD-TEXT
7
STANDARD
10
10492.7145
20
8234.1647
30
0.0
40
3.5
1
Surfwood Ave & Unit One Matchline
50
0.0
0
POINT
8
C-ROAD-TIE
10
10351.8154
20
8079.4847
30
0.0
0
TEXT
8
C-ROAD-TEXT
7
STANDARD
10
10354.8154
20
8082.4847
30
0.0
40
3.5
1
Bayou Ave & Unit One Matchline (Course 8)
50
0.0
0
POINT
8
C-ROAD-INTX
10
10093.2165
20
8612.5930
30
0.0
0
TEXT
8
C-ROAD-TEXT
7
STANDARD
10
10096.2165
20
8615.5930
30
0.0
40
3.5
1
San Salvadore Avenue ? Curve P.C.
50
0.0
0
POINT
8
C-ROAD-INTX
10
10254.0786
20
8562.9858
30
0.0
0
TEXT
8
C-ROAD-TEXT
7
STANDARD
10
10257.0786
20
8565.9858
30
0.0
40
3.5
1
San Salvadore Avenue ? Curve P.T.
50
0.0
0
POINT
8
C-ROAD-TIE
10
10342.3028
20
8500.5068
30
0.0
0
TEXT
8
C-ROAD-TEXT
7
STANDARD
10
10345.3028
20
8503.5068
30
0.0
40
3.5
1
San Salvadore Ave & Unit One Line (Course 13)
50
0.0
0
POINT
8
C-ROAD-ASSUMP-INTX
10
10181.7866
20
8614.1820
30
0.0
0
TEXT
8
C-ROAD-TEXT
7
STANDARD
10
10184.7866
20
8617.1820
30
0.0
40
3.5
1
San Salvadore Avenue Projected P.I. (T=88.58')
50
0.0
0
POINT
8
C-ROAD-TIE
10
9820.1590
20
9992.4362
30
0.0
0
TEXT
8
C-ROAD-TEXT
7
STANDARD
10
9823.1590
20
9995.4362
30
0.0
40
3.5
1
Starfish Ave & West Boundary (Course 1)
50
0.0
0
POINT
8
C-ROAD-INTX
10
11399.7176
20
10058.8695
30
0.0
0
TEXT
8
C-ROAD-TEXT
7
STANDARD
10
11402.7176
20
10061.8695
30
0.0
40
3.5
1
Starfish Ave & Beachwood Blvd
50
0.0
0
POINT
8
C-ROAD-INTX
10
11402.8702
20
9798.7722
30
0.0
0
TEXT
8
C-ROAD-TEXT
7
STANDARD
10
11405.8702
20
9801.7722
30
0.0
40
3.5
1
Sail Ave & Beachwood Blvd
50
0.0
0
POINT
8
C-ROAD-INTX
10
10234.9225
20
9489.4207
30
0.0
0
TEXT
8
C-ROAD-TEXT
7
STANDARD
10
10237.9225
20
9492.4207
30
0.0
40
3.5
1
Marina Dr ? Curve P.C.
50
0.0
0
POINT
8
C-ROAD-INTX
10
10457.6548
20
9423.6616
30
0.0
0
TEXT
8
C-ROAD-TEXT
7
STANDARD
10
10460.6548
20
9426.6616
30
0.0
40
3.5
1
Marina Ave P.T. (Point of Tangency)
50
0.0
0
POINT
8
C-ROAD-INTX
10
10837.1458
20
9154.9118
30
0.0
0
TEXT
8
C-ROAD-TEXT
7
STANDARD
10
10840.1458
20
9157.9118
30
0.0
40
3.5
1
Marina Ave & Keel Drive
50
0.0
0
POINT
8
C-ROAD-TIE
10
11058.3450
20
8998.2618
30
0.0
0
TEXT
8
C-ROAD-TEXT
7
STANDARD
10
11061.3450
20
9001.2618
30
0.0
40
3.5
1
Marina Dr & Unit One Line (Course 20)
50
0.0
0
POINT
8
C-ROAD-INTX
10
10869.0237
20
9199.9252
30
0.0
0
TEXT
8
C-ROAD-TEXT
7
STANDARD
10
10872.0237
20
9202.9252
30
0.0
40
3.5
1
Keel Drive Curve P.C.
50
0.0
0
POINT
8
C-ROAD-INTX
10
10980.4342
20
9260.5457
30
0.0
0
TEXT
8
C-ROAD-TEXT
7
STANDARD
10
10983.4342
20
9263.5457
30
0.0
40
3.5
1
Keel Drive Curve P.T.
50
0.0
0
POINT
8
C-ROAD-TIE
10
11397.5345
20
10238.9773
30
0.0
0
TEXT
8
C-ROAD-TEXT
7
STANDARD
10
11400.5345
20
10241.9773
30
0.0
40
3.5
1
Beachwood Blvd & Section 32 North Line (Course 27)
50
0.0
0
POINT
8
C-ROAD-INTX
10
11406.0228
20
9538.6750
30
0.0
0
TEXT
8
C-ROAD-TEXT
7
STANDARD
10
11409.0228
20
9541.6750
30
0.0
40
3.5
1
Shellfish Dr & Beachwood Blvd
50
0.0
0
POINT
8
C-ROAD-INTX
10
11409.1754
20
9278.5777
30
0.0
0
TEXT
8
C-ROAD-TEXT
7
STANDARD
10
11412.1754
20
9281.5777
30
0.0
40
3.5
1
Keel Dr & Beachwood Blvd
50
0.0
0
POINT
8
C-ROAD-TIE
10
11412.8248
20
8977.4966
30
0.0
0
TEXT
8
C-ROAD-TEXT
7
STANDARD
10
11415.8248
20
8980.4966
30
0.0
40
3.5
1
Beachwood Blvd & Unit One Line (Course 25)
50
0.0
0
POINT
8
C-ROAD-INTX
10
10502.5462
20
9391.8702
30
0.0
0
TEXT
8
C-ROAD-TEXT
7
STANDARD
10
10505.5462
20
9394.8702
30
0.0
40
3.5
1
Shellfish Dr & Marina Dr
50
0.0
0
POINT
8
C-ROAD-INTX
10
10534.3248
20
9436.7435
30
0.0
0
TEXT
8
C-ROAD-TEXT
7
STANDARD
10
10537.3248
20
9439.7435
30
0.0
40
3.5
1
Shellfish Dr ? Curve P.C.
50
0.0
0
POINT
8
C-ROAD-INTX
10
10664.3282
20
9507.4807
30
0.0
0
TEXT
8
C-ROAD-TEXT
7
STANDARD
10
10667.3282
20
9510.4807
30
0.0
40
3.5
1
Shellfish Dr ? Curve P.T.
50
0.0
0
POINT
8
C-ROAD-INTX
10
10137.2839
20
9222.4816
30
0.0
0
TEXT
8
C-ROAD-TEXT
7
STANDARD
10
10140.2839
20
9225.4816
30
0.0
40
3.5
1
Sands Avenue ? Curve P.C.
50
0.0
0
POINT
8
C-ROAD-INTX
10
10411.0046
20
9138.0707
30
0.0
0
TEXT
8
C-ROAD-TEXT
7
STANDARD
10
10414.0046
20
9141.0707
30
0.0
40
3.5
1
Sands Avenue ? Curve P.T.
50
0.0
0
POINT
8
C-ROAD-TIE
10
10906.4543
20
8787.2006
30
0.0
0
TEXT
8
C-ROAD-TEXT
7
STANDARD
10
10909.4543
20
8790.2006
30
0.0
40
3.5
1
Sands Ave & Unit One Line (Course 19)
50
0.0
0
POINT
8
C-ROAD-ASSUMP-INTX
10
10287.9935
20
9225.1853
30
0.0
0
TEXT
8
C-ROAD-TEXT
7
STANDARD
10
10290.9935
20
9228.1853
30
0.0
40
3.5
1
Sands Avenue Projected P.I. (T=150.73')
50
0.0
0
POINT
8
C-ROAD-INTX
10
10087.6739
20
8921.5433
30
0.0
0
TEXT
8
C-ROAD-TEXT
7
STANDARD
10
10090.6739
20
8924.5433
30
0.0
40
3.5
1
Cape Horn Avenue ? Curve P.C.
50
0.0
0
POINT
8
C-ROAD-INTX
10
10282.5307
20
8861.4528
30
0.0
0
TEXT
8
C-ROAD-TEXT
7
STANDARD
10
10285.5307
20
8864.4528
30
0.0
40
3.5
1
Cape Horn Avenue ? Curve P.T.
50
0.0
0
POINT
8
C-ROAD-TIE
10
10479.4782
20
8721.9774
30
0.0
0
TEXT
8
C-ROAD-TEXT
7
STANDARD
10
10482.4782
20
8724.9774
30
0.0
40
3.5
1
Cape Horn Ave & Unit One Line (Course 15)
50
0.0
0
POINT
8
C-ROAD-TIE
10
9852.7117
20
8917.3281
30
0.0
0
TEXT
8
C-ROAD-TEXT
7
STANDARD
10
9855.7117
20
8920.3281
30
0.0
40
3.5
1
Cape Horn Ave & West Boundary (Course 2)
50
0.0
0
POINT
8
C-ROAD-ASSUMP-INTX
10
10194.9613
20
8923.4681
30
0.0
0
TEXT
8
C-ROAD-TEXT
7
STANDARD
10
10197.9613
20
8926.4681
30
0.0
40
3.5
1
Cape Horn Avenue Projected P.I. (T=107.30')
50
0.0
0
POINT
8
C-ROAD-TIE
10
10479.4782
20
8721.9774
30
0.0
0
TEXT
8
C-ROAD-TEXT
7
STANDARD
10
10482.4782
20
8724.9774
30
0.0
40
3.5
1
Cape Horn Ave & Unit One Line (Course 15)
50
0.0
0
POINT
8
C-ROAD-ASSUMP-INTX
10
10357.5182
20
9494.5768
30
0.0
0
TEXT
8
C-ROAD-TEXT
7
STANDARD
10
10360.5182
20
9497.5768
30
0.0
40
3.5
1
Marina Avenue Projected P.I. (T=122.70')
50
0.0
0
POINT
8
C-ROAD-ASSUMP-INTX
10
10909.8519
20
9257.5771
30
0.0
0
TEXT
8
C-ROAD-TEXT
7
STANDARD
10
10912.8519
20
9260.5771
30
0.0
40
3.5
1
Keel Drive Projected P.I. (T=70.64')
50
0.0
0
POINT
8
C-ROAD-ASSUMP-INTX
10
10581.9666
20
9504.0167
30
0.0
0
TEXT
8
C-ROAD-TEXT
7
STANDARD
10
10584.9666
20
9507.0167
30
0.0
40
3.5
1
Shellfish Drive Projected P.I. (T=82.43'; plat prints 82.35')
50
0.0
0
POINT
8
CONTROL
10
10000.0000
20
10000.0000
30
0.0
0
TEXT
8
CONTROL
7
STANDARD
10
10000.0000
20
10012.0000
30
0.0
40
6.0
1
GROUND GPS TIE: Starfish & Mangrove (30.292130%%dN, -81.530280%%dW) [ZERO FUDGING]
50
0.0
72
1
11
10000.0000
21
10012.0000
31
0.0
73
2
0
TEXT
8
TITLEBLOCK
7
STANDARD
10
9750.0000
20
10180.0000
30
0.0
40
10.0
1
BEACHWOOD UNIT TWO -- ROAD CENTERLINE NETWORK & CLOSED BOUNDARY
50
0.0
0
TEXT
8
TITLEBLOCK
7
STANDARD
10
9750.0000
20
10168.0000
30
0.0
40
7.0
1
100-Agent Multiagent Consensus Cadastral Reconstruction | Scale 1" = 100'
50
0.0
0
TEXT
8
TITLEBLOCK
7
STANDARD
10
9750.0000
20
10158.0000
30
0.0
40
5.5
1
Plat Book 30, Pages 82 & 82A, Duval County, FL (Duval_Plat_Book_30_Page_82-2.pdf)
50
0.0
0
TEXT
8
TITLEBLOCK
7
STANDARD
10
9750.0000
20
10148.0000
30
0.0
40
5.0
1
RULE: Closed Outer Boundary + Parallel Centerline Offsets + Open-Ended Cul-de-Sac
50
0.0
0
ENDSEC
0
EOF
