0
SECTION
2
HEADER
9
$ACADVER
1
AC1009
9
$DWGCODEPAGE
3
ANSI_1252
0
ENDSEC
0
SECTION
2
TABLES
0
TABLE
2
LTYPE
70
6
0
LTYPE
2
CONTINUOUS
70
0
3
Solid
72
65
73
0
40
0.0
0
LTYPE
2
DASHED
70
0
3
Dashed
72
65
73
2
40
0.75
49
0.5
74
0
49
-0.25
74
0
0
LTYPE
2
DASHED2
70
0
3
Dashed (.5x)
72
65
73
2
40
0.375
49
0.25
74
0
49
-0.125
74
0
0
LTYPE
2
HIDDEN
70
0
3
Hidden
72
65
73
2
40
0.375
49
0.25
74
0
49
-0.125
74
0
0
LTYPE
2
CENTER
70
0
3
Center
72
65
73
4
40
2.0
49
1.25
74
0
49
-0.25
74
0
49
0.25
74
0
49
-0.25
74
0
0
LTYPE
2
PHANTOM
70
0
3
Phantom
72
65
73
6
40
2.5
49
1.25
74
0
49
-0.25
74
0
49
0.25
74
0
49
-0.25
74
0
49
0.25
74
0
49
-0.25
74
0
0
ENDTAB
0
TABLE
2
LAYER
70
11
0
LAYER
2
0
70
0
62
7
6
CONTINUOUS
0
LAYER
2
C-ROAD-CNTR
70
0
62
2
6
DASHED
0
LAYER
2
C-ROAD-CURV
70
0
62
4
6
CONTINUOUS
0
LAYER
2
C-ROAD-INTX
70
0
62
3
6
CONTINUOUS
0
LAYER
2
C-ROAD-ASSUMP
70
0
62
1
6
DASHED
0
LAYER
2
C-ROAD-ASSUMP-INTX
70
0
62
1
6
CONTINUOUS
0
LAYER
2
C-ROAD-PI-TANGENT
70
0
62
1
6
DASHED
0
LAYER
2
C-ROAD-TEXT
70
0
62
7
6
CONTINUOUS
0
LAYER
2
C-ROAD-ASSUMP-TEXT
70
0
62
1
6
CONTINUOUS
0
LAYER
2
CONTROL
70
0
62
1
6
CONTINUOUS
0
LAYER
2
TITLEBLOCK
70
0
62
2
6
CONTINUOUS
0
ENDTAB
0
TABLE
2
STYLE
70
4
0
STYLE
2
STANDARD
70
0
40
0.0
41
1.0
50
0.0
71
0
42
0.2
3
Arial
4

0
STYLE
2
ARIAL
70
0
40
0.0
41
1.0
50
0.0
71
0
42
0.2
3
Arial
4

0
STYLE
2
ARIAL_TTF
70
0
40
0.0
41
1.0
50
0.0
71
0
42
0.2
3
arial.ttf
4

0
STYLE
2
SIMPLEX
70
0
40
0.0
41
1.0
50
0.0
71
0
42
0.2
3
simplex.shx
4

0
ENDTAB
0
ENDSEC
0
SECTION
2
ENTITIES
0
LINE
8
C-ROAD-CNTR
10
10000.0000
20
10000.0000
30
0.0
11
9992.4362
21
10179.8410
31
0.0
0
TEXT
8
C-ROAD-TEXT
7
STANDARD
10
9996.2181
20
10094.9205
30
0.0
40
4.5
1
Mangrove Avenue [N02%%d24'30"W - 180.00']
50
0.0
72
1
11
9996.2181
21
10094.9205
31
0.0
73
2
0
LINE
8
C-ROAD-CNTR
10
10000.0000
20
10000.0000
30
0.0
11
10010.9255
21
9740.2297
31
0.0
0
TEXT
8
C-ROAD-TEXT
7
STANDARD
10
10005.4627
20
9875.1148
30
0.0
40
4.5
1
Mangrove Avenue [S02%%d24'30"E - 260.00']
50
0.0
72
1
11
10005.4627
21
9875.1148
31
0.0
73
2
0
LINE
8
C-ROAD-CNTR
10
10010.9255
20
9740.2297
30
0.0
11
10021.8509
21
9480.4593
31
0.0
0
TEXT
8
C-ROAD-TEXT
7
STANDARD
10
10016.3882
20
9615.3445
30
0.0
40
4.5
1
Mangrove Avenue [S02%%d24'30"E - 260.00']
50
0.0
72
1
11
10016.3882
21
9615.3445
31
0.0
73
2
0
LINE
8
C-ROAD-CNTR
10
10021.8509
20
9480.4593
30
0.0
11
10023.1325
21
9449.9862
31
0.0
0
TEXT
8
C-ROAD-TEXT
7
STANDARD
10
10022.4917
20
9470.2228
30
0.0
40
4.5
1
Mangrove Avenue [S02%%d24'30"E - 30.50']
50
0.0
72
1
11
10022.4917
21
9470.2228
31
0.0
73
2
0
LINE
8
C-ROAD-CNTR
10
10023.1325
20
9449.9862
30
0.0
11
10043.6211
21
8307.9300
31
0.0
0
TEXT
8
C-ROAD-TEXT
7
STANDARD
10
10033.3768
20
8883.9581
30
0.0
40
4.5
1
Mangrove Avenue [S01%%d01'40"E - 1142.24']
50
0.0
72
1
11
10033.3768
21
8883.9581
31
0.0
73
2
0
LINE
8
C-ROAD-CNTR
10
10043.6211
20
8307.9300
30
0.0
11
10047.7466
21
8077.9670
31
0.0
0
TEXT
8
C-ROAD-TEXT
7
STANDARD
10
10045.6838
20
8197.9485
30
0.0
40
4.5
1
Mangrove Avenue [S01%%d01'40"E - 230.00']
50
0.0
72
1
11
10045.6838
21
8197.9485
31
0.0
73
2
0
LINE
8
C-ROAD-CNTR
10
10047.7466
20
8077.9670
30
0.0
11
10050.0784
21
7947.9879
31
0.0
0
TEXT
8
C-ROAD-TEXT
7
STANDARD
10
10048.9125
20
8017.9775
30
0.0
40
4.5
1
Mangrove Avenue [S01%%d01'40"E - 130.00']
50
0.0
72
1
11
10048.9125
21
8017.9775
31
0.0
73
2
0
LINE
8
C-ROAD-CNTR
10
9917.7562
20
8076.3914
30
0.0
11
10047.7466
21
8077.9670
31
0.0
0
TEXT
8
C-ROAD-TEXT
7
STANDARD
10
9982.7514
20
8082.1792
30
0.0
40
4.5
1
Surfwood Avenue [N89%%d18'20"E - 130.00']
50
0.0
72
1
11
9982.7514
21
8082.1792
31
0.0
73
2
0
LINE
8
C-ROAD-CNTR
10
10047.7466
20
8077.9670
30
0.0
11
10445.7274
21
8082.7909
31
0.0
0
TEXT
8
C-ROAD-TEXT
7
STANDARD
10
10246.7370
20
8085.3790
30
0.0
40
4.5
1
Surfwood Avenue [N89%%d18'20"E - 398.01']
50
0.0
72
1
11
10246.7370
21
8085.3790
31
0.0
73
2
0
LINE
8
C-ROAD-CNTR
10
9784.1083
20
8714.1610
30
0.0
11
10314.5613
21
8338.5021
31
0.0
0
TEXT
8
C-ROAD-TEXT
7
STANDARD
10
10049.3348
20
8531.3316
30
0.0
40
4.5
1
San Salvadore Avenue [S54%%d41'40"E - 650.00']
50
0.0
72
1
11
10049.3348
21
8531.3316
31
0.0
73
2
0
LINE
8
C-ROAD-ASSUMP
10
10493.2997
20
8283.3822
30
0.0
11
10445.7274
21
8082.7909
31
0.0
0
TEXT
8
C-ROAD-ASSUMP-TEXT
7
STANDARD
10
10469.5135
20
8188.0866
30
0.0
40
4.5
1
San Salvadore - Surfwood Transition Tie [S23%%d14'20"W - 206.16'] (ASSUMED)
50
0.0
72
1
11
10469.5135
21
8188.0866
31
0.0
73
2
0
LINE
8
C-ROAD-CNTR
10
9934.3719
20
8926.3422
30
0.0
11
10587.2371
21
8463.9928
31
0.0
0
TEXT
8
C-ROAD-TEXT
7
STANDARD
10
10260.8045
20
8700.1675
30
0.0
40
4.5
1
Cape Horn Avenue [S54%%d41'40"E - 800.00']
50
0.0
72
1
11
10260.8045
21
8700.1675
31
0.0
73
2
0
LINE
8
C-ROAD-CNTR
10
9870.1148
20
9994.5373
30
0.0
11
10000.0000
21
10000.0000
31
0.0
0
TEXT
8
C-ROAD-TEXT
7
STANDARD
10
9935.0574
20
10002.2686
30
0.0
40
4.5
1
Starfish Avenue [N87%%d35'30"E - 130.00']
50
0.0
72
1
11
9935.0574
21
10002.2686
31
0.0
73
2
0
LINE
8
C-ROAD-CNTR
10
10000.0000
20
10000.0000
30
0.0
11
11452.2162
21
10061.0775
31
0.0
0
TEXT
8
C-ROAD-TEXT
7
STANDARD
10
10726.1081
20
10035.5387
30
0.0
40
4.5
1
Starfish Avenue [N87%%d35'30"E - 1453.50']
50
0.0
72
1
11
10726.1081
21
10035.5387
31
0.0
73
2
0
LINE
8
C-ROAD-CNTR
10
9881.0403
20
9734.7669
30
0.0
11
10010.9255
21
9740.2297
31
0.0
0
TEXT
8
C-ROAD-TEXT
7
STANDARD
10
9945.9829
20
9742.4983
30
0.0
40
4.5
1
Sail Avenue [N87%%d35'30"E - 130.00']
50
0.0
72
1
11
9945.9829
21
9742.4983
31
0.0
73
2
0
LINE
8
C-ROAD-CNTR
10
10010.9255
20
9740.2297
30
0.0
11
11463.1416
21
9801.3071
31
0.0
0
TEXT
8
C-ROAD-TEXT
7
STANDARD
10
10737.0335
20
9775.7684
30
0.0
40
4.5
1
Sail Avenue [N87%%d35'30"E - 1453.50']
50
0.0
72
1
11
10737.0335
21
9775.7684
31
0.0
73
2
0
LINE
8
C-ROAD-CNTR
10
9891.9657
20
9474.9966
30
0.0
11
10021.8509
21
9480.4593
31
0.0
0
TEXT
8
C-ROAD-TEXT
7
STANDARD
10
9956.9083
20
9482.7279
30
0.0
40
4.5
1
South Street [N87%%d35'30"E - 130.00']
50
0.0
72
1
11
9956.9083
21
9482.7279
31
0.0
73
2
0
LINE
8
C-ROAD-CNTR
10
10021.8509
20
9480.4593
30
0.0
11
10279.8828
21
9491.3116
31
0.0
0
TEXT
8
C-ROAD-TEXT
7
STANDARD
10
10150.8668
20
9490.8855
30
0.0
40
4.5
1
South Street [N87%%d35'30"E - 258.26']
50
0.0
72
1
11
10150.8668
21
9490.8855
31
0.0
73
2
0
LINE
8
C-ROAD-CNTR
10
10539.8129
20
9414.5717
30
0.0
11
10700.3939
21
9279.2435
31
0.0
0
TEXT
8
C-ROAD-TEXT
7
STANDARD
10
10620.1034
20
9351.9076
30
0.0
40
4.5
1
Marina Avenue [S49%%d52'40"E - 210.00']
50
0.0
72
1
11
10620.1034
21
9351.9076
31
0.0
73
2
0
LINE
8
C-ROAD-CNTR
10
10700.3939
20
9279.2435
30
0.0
11
10480.7779
21
8969.1325
31
0.0
0
TEXT
8
C-ROAD-TEXT
7
STANDARD
10
10590.5859
20
9129.1880
30
0.0
40
4.5
1
Keel Drive [S35%%d18'20"W - 380.00']
50
0.0
72
1
11
10590.5859
21
9129.1880
31
0.0
73
2
0
LINE
8
C-ROAD-ASSUMP
10
11463.1416
20
9801.3071
30
0.0
11
11514.8749
21
9455.1516
31
0.0
0
TEXT
8
C-ROAD-ASSUMP-TEXT
7
STANDARD
10
11489.0083
20
9633.2294
30
0.0
40
4.5
1
Beachwood Boulevard South Projection [S08%%d30'00"E - 350.00'] (ASSUMED)
50
0.0
72
1
11
11489.0083
21
9633.2294
31
0.0
73
2
0
LINE
8
C-ROAD-ASSUMP
10
11265.0957
20
9444.6463
30
0.0
11
11514.8749
21
9455.1516
31
0.0
0
TEXT
8
C-ROAD-ASSUMP-TEXT
7
STANDARD
10
11389.9853
20
9454.8990
30
0.0
40
4.5
1
Sands Avenue [N87%%d35'30"E - 250.00'] (ASSUMED)
50
0.0
72
1
11
11389.9853
21
9454.8990
31
0.0
73
2
0
LINE
8
C-ROAD-CNTR
10
9897.3639
20
9215.0604
30
0.0
11
10027.2491
21
9220.5232
31
0.0
0
TEXT
8
C-ROAD-TEXT
7
STANDARD
10
9962.3065
20
9222.7918
30
0.0
40
4.5
1
Shellfish Drive [N87%%d35'30"E - 130.00']
50
0.0
72
1
11
9962.3065
21
9222.7918
31
0.0
73
2
0
LINE
8
C-ROAD-CNTR
10
10027.2491
20
9220.5232
30
0.0
11
10678.3200
21
9247.9100
31
0.0
0
TEXT
8
C-ROAD-TEXT
7
STANDARD
10
10352.7846
20
9239.2166
30
0.0
40
4.5
1
Shellfish Drive [N87%%d35'30"E - 651.65']
50
0.0
72
1
11
10352.7846
21
9239.2166
31
0.0
73
2
0
LINE
8
C-ROAD-ASSUMP
10
10678.3200
20
9247.9100
30
0.0
11
11176.2334
21
9268.8473
31
0.0
0
TEXT
8
C-ROAD-ASSUMP-TEXT
7
STANDARD
10
10927.2767
20
9263.3786
30
0.0
40
4.5
1
Shellfish Drive East Extension [N87%%d35'30"E - 498.35'] (ASSUMED)
50
0.0
72
1
11
10927.2767
21
9263.3786
31
0.0
73
2
0
LINE
8
C-ROAD-PI-TANGENT
10
10279.8828
20
9491.3116
30
0.0
11
10422.9526
21
9497.3289
31
0.0
0
LINE
8
C-ROAD-PI-TANGENT
10
10422.9526
20
9497.3289
30
0.0
11
10539.8129
21
9414.5717
31
0.0
0
LINE
8
C-ROAD-PI-TANGENT
10
10314.5613
20
8338.5021
30
0.0
11
10394.8870
21
8281.6167
31
0.0
0
LINE
8
C-ROAD-PI-TANGENT
10
10394.8870
20
8281.6167
30
0.0
11
10493.2997
21
8283.3822
31
0.0
0
LINE
8
C-ROAD-PI-TANGENT
10
11452.2162
20
10061.0775
30
0.0
11
11457.6932
21
9930.8526
31
0.0
0
LINE
8
C-ROAD-PI-TANGENT
10
11457.6932
20
9930.8526
30
0.0
11
11463.1416
21
9801.3071
31
0.0
0
LINE
8
C-ROAD-PI-TANGENT
10
11265.0957
20
9444.6463
30
0.0
11
11415.6964
21
9450.9803
31
0.0
0
LINE
8
C-ROAD-PI-TANGENT
10
11415.6964
20
9450.9803
30
0.0
11
10994.7621
21
9539.3453
31
0.0
0
LINE
8
C-ROAD-PI-TANGENT
10
10550.5029
20
9067.5884
30
0.0
11
10509.6747
21
9009.9366
31
0.0
0
LINE
8
C-ROAD-PI-TANGENT
10
10509.6747
20
9009.9366
30
0.0
11
10661.9134
21
9128.2088
31
0.0
0
LINE
8
C-ROAD-PI-TANGENT
10
10383.2167
20
8608.4770
30
0.0
11
10470.7861
21
8546.4618
31
0.0
0
LINE
8
C-ROAD-PI-TANGENT
10
10470.7861
20
8546.4618
30
0.0
11
10579.5797
21
8553.5078
31
0.0
0
POLYLINE
8
C-ROAD-CURV
66
1
70
0
0
VERTEX
8
C-ROAD-CURV
10
10314.5613
20
8338.5021
30
0.0
0
VERTEX
8
C-ROAD-CURV
10
10309.7447
20
8341.9854
30
0.0
0
VERTEX
8
C-ROAD-CURV
10
10304.9981
20
8345.5634
30
0.0
0
VERTEX
8
C-ROAD-CURV
10
10300.3232
20
8349.2347
30
0.0
0
VERTEX
8
C-ROAD-CURV
10
10295.7221
20
8352.9980
30
0.0
0
VERTEX
8
C-ROAD-CURV
10
10291.1964
20
8356.8517
30
0.0
0
VERTEX
8
C-ROAD-CURV
10
10286.7480
20
8360.7943
30
0.0
0
VERTEX
8
C-ROAD-CURV
10
10282.3785
20
8364.8243
30
0.0
0
VERTEX
8
C-ROAD-CURV
10
10278.0898
20
8368.9400
30
0.0
0
VERTEX
8
C-ROAD-CURV
10
10273.8835
20
8373.1400
30
0.0
0
VERTEX
8
C-ROAD-CURV
10
10269.7612
20
8377.4225
30
0.0
0
VERTEX
8
C-ROAD-CURV
10
10265.7246
20
8381.7858
30
0.0
0
VERTEX
8
C-ROAD-CURV
10
10261.7753
20
8386.2283
30
0.0
0
VERTEX
8
C-ROAD-CURV
10
10257.9147
20
8390.7481
30
0.0
0
VERTEX
8
C-ROAD-CURV
10
10254.1445
20
8395.3436
30
0.0
0
VERTEX
8
C-ROAD-CURV
10
10250.4661
20
8400.0128
30
0.0
0
VERTEX
8
C-ROAD-CURV
10
10246.8809
20
8404.7540
30
0.0
0
VERTEX
8
C-ROAD-CURV
10
10243.3904
20
8409.5654
30
0.0
0
VERTEX
8
C-ROAD-CURV
10
10239.9959
20
8414.4450
30
0.0
0
VERTEX
8
C-ROAD-CURV
10
10236.6987
20
8419.3908
30
0.0
0
VERTEX
8
C-ROAD-CURV
10
10233.5002
20
8424.4011
30
0.0
0
VERTEX
8
C-ROAD-CURV
10
10230.4016
20
8429.4737
30
0.0
0
VERTEX
8
C-ROAD-CURV
10
10227.4042
20
8434.6067
30
0.0
0
VERTEX
8
C-ROAD-CURV
10
10224.5090
20
8439.7981
30
0.0
0
VERTEX
8
C-ROAD-CURV
10
10221.7173
20
8445.0459
30
0.0
0
VERTEX
8
C-ROAD-CURV
10
10219.0301
20
8450.3480
30
0.0
0
VERTEX
8
C-ROAD-CURV
10
10216.4485
20
8455.7022
30
0.0
0
VERTEX
8
C-ROAD-CURV
10
10213.9736
20
8461.1066
30
0.0
0
VERTEX
8
C-ROAD-CURV
10
10211.6061
20
8466.5590
30
0.0
0
VERTEX
8
C-ROAD-CURV
10
10209.3472
20
8472.0571
30
0.0
0
VERTEX
8
C-ROAD-CURV
10
10207.1977
20
8477.5990
30
0.0
0
VERTEX
8
C-ROAD-CURV
10
10205.1584
20
8483.1824
30
0.0
0
VERTEX
8
C-ROAD-CURV
10
10203.2302
20
8488.8051
30
0.0
0
SEQEND
0
TEXT
8
C-ROAD-TEXT
7
STANDARD
10
10246.8809
20
8412.7540
30
0.0
40
5.0
1
San Salvadore Avenue CURVE: R=299.96', L=190.22', Delta=36.33%%d
50
0.0
72
1
11
10246.8809
21
8412.7540
31
0.0
73
2
0
POLYLINE
8
C-ROAD-CURV
66
1
70
0
0
VERTEX
8
C-ROAD-CURV
10
10279.8828
20
9491.3116
30
0.0
0
VERTEX
8
C-ROAD-CURV
10
10288.5026
20
9491.5854
30
0.0
0
VERTEX
8
C-ROAD-CURV
10
10297.1261
20
9491.6818
30
0.0
0
VERTEX
8
C-ROAD-CURV
10
10305.7499
20
9491.6008
30
0.0
0
VERTEX
8
C-ROAD-CURV
10
10314.3701
20
9491.3425
30
0.0
0
VERTEX
8
C-ROAD-CURV
10
10322.9833
20
9490.9069
30
0.0
0
VERTEX
8
C-ROAD-CURV
10
10331.5856
20
9490.2942
30
0.0
0
VERTEX
8
C-ROAD-CURV
10
10340.1735
20
9489.5047
30
0.0
0
VERTEX
8
C-ROAD-CURV
10
10348.7433
20
9488.5388
30
0.0
0
VERTEX
8
C-ROAD-CURV
10
10357.2915
20
9487.3968
30
0.0
0
VERTEX
8
C-ROAD-CURV
10
10365.8144
20
9486.0792
30
0.0
0
VERTEX
8
C-ROAD-CURV
10
10374.3084
20
9484.5866
30
0.0
0
VERTEX
8
C-ROAD-CURV
10
10382.7699
20
9482.9196
30
0.0
0
VERTEX
8
C-ROAD-CURV
10
10391.1953
20
9481.0790
30
0.0
0
VERTEX
8
C-ROAD-CURV
10
10399.5810
20
9479.0654
30
0.0
0
VERTEX
8
C-ROAD-CURV
10
10407.9236
20
9476.8797
30
0.0
0
VERTEX
8
C-ROAD-CURV
10
10416.2194
20
9474.5230
30
0.0
0
VERTEX
8
C-ROAD-CURV
10
10424.4650
20
9471.9961
30
0.0
0
VERTEX
8
C-ROAD-CURV
10
10432.6569
20
9469.3001
30
0.0
0
VERTEX
8
C-ROAD-CURV
10
10440.7917
20
9466.4362
30
0.0
0
VERTEX
8
C-ROAD-CURV
10
10448.8658
20
9463.4056
30
0.0
0
VERTEX
8
C-ROAD-CURV
10
10456.8758
20
9460.2096
30
0.0
0
VERTEX
8
C-ROAD-CURV
10
10464.8184
20
9456.8495
30
0.0
0
VERTEX
8
C-ROAD-CURV
10
10472.6902
20
9453.3267
30
0.0
0
VERTEX
8
C-ROAD-CURV
10
10480.4879
20
9449.6428
30
0.0
0
VERTEX
8
C-ROAD-CURV
10
10488.2082
20
9445.7992
30
0.0
0
VERTEX
8
C-ROAD-CURV
10
10495.8478
20
9441.7977
30
0.0
0
VERTEX
8
C-ROAD-CURV
10
10503.4035
20
9437.6399
30
0.0
0
VERTEX
8
C-ROAD-CURV
10
10510.8720
20
9433.3276
30
0.0
0
VERTEX
8
C-ROAD-CURV
10
10518.2503
20
9428.8626
30
0.0
0
VERTEX
8
C-ROAD-CURV
10
10525.5352
20
9424.2467
30
0.0
0
VERTEX
8
C-ROAD-CURV
10
10532.7236
20
9419.4820
30
0.0
0
VERTEX
8
C-ROAD-CURV
10
10539.8125
20
9414.5705
30
0.0
0
SEQEND
0
TEXT
8
C-ROAD-TEXT
7
STANDARD
10
10416.2194
20
9482.5230
30
0.0
40
5.0
1
Marina Avenue CURVE: R=419.27', L=275.98', Delta=37.71%%d
50
0.0
72
1
11
10416.2194
21
9482.5230
31
0.0
73
2
0
POLYLINE
8
C-ROAD-CURV
66
1
70
0
0
VERTEX
8
C-ROAD-CURV
10
11452.2162
20
10061.0775
30
0.0
0
VERTEX
8
C-ROAD-CURV
10
11452.5411
20
10052.9511
30
0.0
0
VERTEX
8
C-ROAD-CURV
10
11452.8322
20
10044.8235
30
0.0
0
VERTEX
8
C-ROAD-CURV
10
11453.0897
20
10036.6948
30
0.0
0
VERTEX
8
C-ROAD-CURV
10
11453.3134
20
10028.5650
30
0.0
0
VERTEX
8
C-ROAD-CURV
10
11453.5033
20
10020.4344
30
0.0
0
VERTEX
8
C-ROAD-CURV
10
11453.6595
20
10012.3031
30
0.0
0
VERTEX
8
C-ROAD-CURV
10
11453.7820
20
10004.1712
30
0.0
0
VERTEX
8
C-ROAD-CURV
10
11453.8708
20
9996.0388
30
0.0
0
VERTEX
8
C-ROAD-CURV
10
11453.9257
20
9987.9062
30
0.0
0
VERTEX
8
C-ROAD-CURV
10
11453.9470
20
9979.7734
30
0.0
0
VERTEX
8
C-ROAD-CURV
10
11453.9345
20
9971.6406
30
0.0
0
VERTEX
8
C-ROAD-CURV
10
11453.8882
20
9963.5079
30
0.0
0
VERTEX
8
C-ROAD-CURV
10
11453.8082
20
9955.3754
30
0.0
0
VERTEX
8
C-ROAD-CURV
10
11453.6944
20
9947.2434
30
0.0
0
VERTEX
8
C-ROAD-CURV
10
11453.5469
20
9939.1119
30
0.0
0
VERTEX
8
C-ROAD-CURV
10
11453.3657
20
9930.9811
30
0.0
0
VERTEX
8
C-ROAD-CURV
10
11453.1507
20
9922.8511
30
0.0
0
VERTEX
8
C-ROAD-CURV
10
11452.9020
20
9914.7221
30
0.0
0
VERTEX
8
C-ROAD-CURV
10
11452.6195
20
9906.5942
30
0.0
0
VERTEX
8
C-ROAD-CURV
10
11452.3034
20
9898.4675
30
0.0
0
VERTEX
8
C-ROAD-CURV
10
11451.9535
20
9890.3422
30
0.0
0
VERTEX
8
C-ROAD-CURV
10
11451.5699
20
9882.2184
30
0.0
0
VERTEX
8
C-ROAD-CURV
10
11451.1526
20
9874.0963
30
0.0
0
VERTEX
8
C-ROAD-CURV
10
11450.7015
20
9865.9760
30
0.0
0
VERTEX
8
C-ROAD-CURV
10
11450.2168
20
9857.8576
30
0.0
0
VERTEX
8
C-ROAD-CURV
10
11449.6984
20
9849.7413
30
0.0
0
VERTEX
8
C-ROAD-CURV
10
11449.1464
20
9841.6272
30
0.0
0
VERTEX
8
C-ROAD-CURV
10
11448.5606
20
9833.5155
30
0.0
0
VERTEX
8
C-ROAD-CURV
10
11447.9413
20
9825.4063
30
0.0
0
VERTEX
8
C-ROAD-CURV
10
11447.2882
20
9817.2998
30
0.0
0
VERTEX
8
C-ROAD-CURV
10
11446.6015
20
9809.1960
30
0.0
0
VERTEX
8
C-ROAD-CURV
10
11445.8813
20
9801.0951
30
0.0
0
SEQEND
0
TEXT
8
C-ROAD-TEXT
7
STANDARD
10
11453.3657
20
9938.9811
30
0.0
40
5.0
1
Beachwood Boulevard CURVE: R=1959.86', L=260.19', Delta=7.61%%d
50
0.0
72
1
11
11453.3657
21
9938.9811
31
0.0
73
2
0
POLYLINE
8
C-ROAD-ASSUMP
66
1
70
0
0
VERTEX
8
C-ROAD-ASSUMP
10
11265.0957
20
9444.6463
30
0.0
0
VERTEX
8
C-ROAD-ASSUMP
10
11274.1863
20
9445.1189
30
0.0
0
VERTEX
8
C-ROAD-ASSUMP
10
11283.2658
20
9445.7716
30
0.0
0
VERTEX
8
C-ROAD-ASSUMP
10
11292.3305
20
9446.6040
30
0.0
0
VERTEX
8
C-ROAD-ASSUMP
10
11301.3770
20
9447.6159
30
0.0
0
VERTEX
8
C-ROAD-ASSUMP
10
11310.4016
20
9448.8069
30
0.0
0
VERTEX
8
C-ROAD-ASSUMP
10
11319.4009
20
9450.1764
30
0.0
0
VERTEX
8
C-ROAD-ASSUMP
10
11328.3712
20
9451.7240
30
0.0
0
VERTEX
8
C-ROAD-ASSUMP
10
11337.3092
20
9453.4491
30
0.0
0
VERTEX
8
C-ROAD-ASSUMP
10
11346.2112
20
9455.3509
30
0.0
0
VERTEX
8
C-ROAD-ASSUMP
10
11355.0737
20
9457.4287
30
0.0
0
VERTEX
8
C-ROAD-ASSUMP
10
11363.8934
20
9459.6818
30
0.0
0
VERTEX
8
C-ROAD-ASSUMP
10
11372.6666
20
9462.1092
30
0.0
0
VERTEX
8
C-ROAD-ASSUMP
10
11381.3901
20
9464.7099
30
0.0
0
VERTEX
8
C-ROAD-ASSUMP
10
11390.0603
20
9467.4830
30
0.0
0
VERTEX
8
C-ROAD-ASSUMP
10
11398.6738
20
9470.4274
30
0.0
0
VERTEX
8
C-ROAD-ASSUMP
10
11407.2273
20
9473.5418
30
0.0
0
VERTEX
8
C-ROAD-ASSUMP
10
11415.7174
20
9476.8251
30
0.0
0
VERTEX
8
C-ROAD-ASSUMP
10
11424.1408
20
9480.2761
30
0.0
0
VERTEX
8
C-ROAD-ASSUMP
10
11432.4942
20
9483.8932
30
0.0
0
VERTEX
8
C-ROAD-ASSUMP
10
11440.7742
20
9487.6752
30
0.0
0
VERTEX
8
C-ROAD-ASSUMP
10
11448.9777
20
9491.6205
30
0.0
0
VERTEX
8
C-ROAD-ASSUMP
10
11457.1014
20
9495.7276
30
0.0
0
VERTEX
8
C-ROAD-ASSUMP
10
11465.1421
20
9499.9949
30
0.0
0
VERTEX
8
C-ROAD-ASSUMP
10
11473.0966
20
9504.4206
30
0.0
0
VERTEX
8
C-ROAD-ASSUMP
10
11480.9619
20
9509.0031
30
0.0
0
VERTEX
8
C-ROAD-ASSUMP
10
11488.7349
20
9513.7406
30
0.0
0
VERTEX
8
C-ROAD-ASSUMP
10
11496.4125
20
9518.6311
30
0.0
0
VERTEX
8
C-ROAD-ASSUMP
10
11503.9916
20
9523.6729
30
0.0
0
VERTEX
8
C-ROAD-ASSUMP
10
11511.4693
20
9528.8638
30
0.0
0
VERTEX
8
C-ROAD-ASSUMP
10
11518.8428
20
9534.2019
30
0.0
0
VERTEX
8
C-ROAD-ASSUMP
10
11526.1090
20
9539.6850
30
0.0
0
VERTEX
8
C-ROAD-ASSUMP
10
11533.2651
20
9545.3110
30
0.0
0
SEQEND
0
TEXT
8
C-ROAD-TEXT
7
STANDARD
10
11407.2273
20
9481.5418
30
0.0
40
5.0
1
Sands Avenue CURVE: R=459.36', L=291.30', Delta=36.33%%d
50
0.0
72
1
11
11407.2273
21
9481.5418
31
0.0
73
2
0
POLYLINE
8
C-ROAD-CURV
66
1
70
0
0
VERTEX
8
C-ROAD-CURV
10
10550.5029
20
9067.5884
30
0.0
0
VERTEX
8
C-ROAD-CURV
10
10548.0833
20
9064.2730
30
0.0
0
VERTEX
8
C-ROAD-CURV
10
10545.5702
20
9061.0280
30
0.0
0
VERTEX
8
C-ROAD-CURV
10
10542.9655
20
9057.8560
30
0.0
0
VERTEX
8
C-ROAD-CURV
10
10540.2714
20
9054.7595
30
0.0
0
VERTEX
8
C-ROAD-CURV
10
10537.4902
20
9051.7411
30
0.0
0
VERTEX
8
C-ROAD-CURV
10
10534.6240
20
9048.8032
30
0.0
0
VERTEX
8
C-ROAD-CURV
10
10531.6752
20
9045.9482
30
0.0
0
VERTEX
8
C-ROAD-CURV
10
10528.6462
20
9043.1785
30
0.0
0
VERTEX
8
C-ROAD-CURV
10
10525.5395
20
9040.4963
30
0.0
0
VERTEX
8
C-ROAD-CURV
10
10522.3575
20
9037.9037
30
0.0
0
VERTEX
8
C-ROAD-CURV
10
10519.1030
20
9035.4029
30
0.0
0
VERTEX
8
C-ROAD-CURV
10
10515.7784
20
9032.9960
30
0.0
0
VERTEX
8
C-ROAD-CURV
10
10512.3866
20
9030.6848
30
0.0
0
VERTEX
8
C-ROAD-CURV
10
10508.9302
20
9028.4713
30
0.0
0
VERTEX
8
C-ROAD-CURV
10
10505.4121
20
9026.3572
30
0.0
0
VERTEX
8
C-ROAD-CURV
10
10501.8352
20
9024.3443
30
0.0
0
VERTEX
8
C-ROAD-CURV
10
10498.2023
20
9022.4343
30
0.0
0
VERTEX
8
C-ROAD-CURV
10
10494.5165
20
9020.6285
30
0.0
0
VERTEX
8
C-ROAD-CURV
10
10490.7806
20
9018.9287
30
0.0
0
VERTEX
8
C-ROAD-CURV
10
10486.9978
20
9017.3360
30
0.0
0
VERTEX
8
C-ROAD-CURV
10
10483.1711
20
9015.8518
30
0.0
0
VERTEX
8
C-ROAD-CURV
10
10479.3037
20
9014.4774
30
0.0
0
VERTEX
8
C-ROAD-CURV
10
10475.3987
20
9013.2138
30
0.0
0
VERTEX
8
C-ROAD-CURV
10
10471.4592
20
9012.0620
30
0.0
0
VERTEX
8
C-ROAD-CURV
10
10467.4884
20
9011.0230
30
0.0
0
VERTEX
8
C-ROAD-CURV
10
10463.4897
20
9010.0977
30
0.0
0
VERTEX
8
C-ROAD-CURV
10
10459.4662
20
9009.2868
30
0.0
0
VERTEX
8
C-ROAD-CURV
10
10455.4212
20
9008.5910
30
0.0
0
VERTEX
8
C-ROAD-CURV
10
10451.3580
20
9008.0107
30
0.0
0
VERTEX
8
C-ROAD-CURV
10
10447.2799
20
9007.5466
30
0.0
0
VERTEX
8
C-ROAD-CURV
10
10443.1903
20
9007.1989
30
0.0
0
VERTEX
8
C-ROAD-CURV
10
10439.0924
20
9006.9680
30
0.0
0
SEQEND
0
TEXT
8
C-ROAD-TEXT
7
STANDARD
10
10501.8352
20
9032.3443
30
0.0
40
5.0
1
Keel Drive CURVE: R=143.93', L=131.35', Delta=52.29%%d
50
0.0
72
1
11
10501.8352
21
9032.3443
31
0.0
73
2
0
POLYLINE
8
C-ROAD-CURV
66
1
70
0
0
VERTEX
8
C-ROAD-CURV
10
10383.2167
20
8608.4770
30
0.0
0
VERTEX
8
C-ROAD-CURV
10
10377.9658
20
8612.2744
30
0.0
0
VERTEX
8
C-ROAD-CURV
10
10372.7911
20
8616.1750
30
0.0
0
VERTEX
8
C-ROAD-CURV
10
10367.6947
20
8620.1774
30
0.0
0
VERTEX
8
C-ROAD-CURV
10
10362.6786
20
8624.2801
30
0.0
0
VERTEX
8
C-ROAD-CURV
10
10357.7448
20
8628.4813
30
0.0
0
VERTEX
8
C-ROAD-CURV
10
10352.8952
20
8632.7794
30
0.0
0
VERTEX
8
C-ROAD-CURV
10
10348.1317
20
8637.1728
30
0.0
0
VERTEX
8
C-ROAD-CURV
10
10343.4563
20
8641.6598
30
0.0
0
VERTEX
8
C-ROAD-CURV
10
10338.8706
20
8646.2385
30
0.0
0
VERTEX
8
C-ROAD-CURV
10
10334.3766
20
8650.9071
30
0.0
0
VERTEX
8
C-ROAD-CURV
10
10329.9760
20
8655.6640
30
0.0
0
VERTEX
8
C-ROAD-CURV
10
10325.6705
20
8660.5070
30
0.0
0
VERTEX
8
C-ROAD-CURV
10
10321.4618
20
8665.4345
30
0.0
0
VERTEX
8
C-ROAD-CURV
10
10317.3516
20
8670.4443
30
0.0
0
VERTEX
8
C-ROAD-CURV
10
10313.3414
20
8675.5346
30
0.0
0
VERTEX
8
C-ROAD-CURV
10
10309.4329
20
8680.7034
30
0.0
0
VERTEX
8
C-ROAD-CURV
10
10305.6277
20
8685.9487
30
0.0
0
VERTEX
8
C-ROAD-CURV
10
10301.9270
20
8691.2683
30
0.0
0
VERTEX
8
C-ROAD-CURV
10
10298.3326
20
8696.6601
30
0.0
0
VERTEX
8
C-ROAD-CURV
10
10294.8456
20
8702.1222
30
0.0
0
VERTEX
8
C-ROAD-CURV
10
10291.4676
20
8707.6523
30
0.0
0
VERTEX
8
C-ROAD-CURV
10
10288.1999
20
8713.2482
30
0.0
0
VERTEX
8
C-ROAD-CURV
10
10285.0436
20
8718.9078
30
0.0
0
VERTEX
8
C-ROAD-CURV
10
10282.0002
20
8724.6288
30
0.0
0
VERTEX
8
C-ROAD-CURV
10
10279.0707
20
8730.4090
30
0.0
0
VERTEX
8
C-ROAD-CURV
10
10276.2563
20
8736.2461
30
0.0
0
VERTEX
8
C-ROAD-CURV
10
10273.5581
20
8742.1378
30
0.0
0
VERTEX
8
C-ROAD-CURV
10
10270.9772
20
8748.0818
30
0.0
0
VERTEX
8
C-ROAD-CURV
10
10268.5146
20
8754.0758
30
0.0
0
VERTEX
8
C-ROAD-CURV
10
10266.1712
20
8760.1175
30
0.0
0
VERTEX
8
C-ROAD-CURV
10
10263.9480
20
8766.2044
30
0.0
0
VERTEX
8
C-ROAD-CURV
10
10261.8459
20
8772.3341
30
0.0
0
SEQEND
0
TEXT
8
C-ROAD-TEXT
7
STANDARD
10
10309.4329
20
8688.7034
30
0.0
40
5.0
1
Cape Horn Avenue CURVE: R=327.01', L=207.37', Delta=36.33%%d
50
0.0
72
1
11
10309.4329
21
8688.7034
31
0.0
73
2
0
POINT
8
C-ROAD-INTX
10
10000.0000
20
10000.0000
30
0.0
0
LINE
8
C-ROAD-INTX
10
10000.0000
20
9997.5000
30
0.0
11
10000.0000
21
10002.5000
31
0.0
0
LINE
8
C-ROAD-INTX
10
9997.5000
20
10000.0000
30
0.0
11
10002.5000
21
10000.0000
31
0.0
0
TEXT
8
C-ROAD-TEXT
7
STANDARD
10
10000.0000
20
9992.0000
30
0.0
40
4.0
1
Starfish Ave & Mangrove Ave (10000.0, 10000.0)
50
0.0
72
1
11
10000.0000
21
9992.0000
31
0.0
73
2
0
POINT
8
C-ROAD-INTX
10
9992.4362
20
10179.8410
30
0.0
0
LINE
8
C-ROAD-INTX
10
9992.4362
20
10177.3410
30
0.0
11
9992.4362
21
10182.3410
31
0.0
0
LINE
8
C-ROAD-INTX
10
9989.9362
20
10179.8410
30
0.0
11
9994.9362
21
10179.8410
31
0.0
0
TEXT
8
C-ROAD-TEXT
7
STANDARD
10
9992.4362
20
10171.8410
30
0.0
40
4.0
1
Mangrove Ave & Sec 32 North Line (Subdivision Limit) (10179.8, 9992.4)
50
0.0
72
1
11
9992.4362
21
10171.8410
31
0.0
73
2
0
POINT
8
C-ROAD-INTX
10
10010.9255
20
9740.2297
30
0.0
0
LINE
8
C-ROAD-INTX
10
10010.9255
20
9737.7297
30
0.0
11
10010.9255
21
9742.7297
31
0.0
0
LINE
8
C-ROAD-INTX
10
10008.4255
20
9740.2297
30
0.0
11
10013.4255
21
9740.2297
31
0.0
0
TEXT
8
C-ROAD-TEXT
7
STANDARD
10
10010.9255
20
9732.2297
30
0.0
40
4.0
1
Sail Ave & Mangrove Ave (9740.2, 10010.9)
50
0.0
72
1
11
10010.9255
21
9732.2297
31
0.0
73
2
0
POINT
8
C-ROAD-INTX
10
10021.8509
20
9480.4593
30
0.0
0
LINE
8
C-ROAD-INTX
10
10021.8509
20
9477.9593
30
0.0
11
10021.8509
21
9482.9593
31
0.0
0
LINE
8
C-ROAD-INTX
10
10019.3509
20
9480.4593
30
0.0
11
10024.3509
21
9480.4593
31
0.0
0
TEXT
8
C-ROAD-TEXT
7
STANDARD
10
10021.8509
20
9472.4593
30
0.0
40
4.0
1
South St & Mangrove Ave (9480.5, 10021.9)
50
0.0
72
1
11
10021.8509
21
9472.4593
31
0.0
73
2
0
POINT
8
C-ROAD-INTX
10
10023.1325
20
9449.9862
30
0.0
0
LINE
8
C-ROAD-INTX
10
10023.1325
20
9447.4862
30
0.0
11
10023.1325
21
9452.4862
31
0.0
0
LINE
8
C-ROAD-INTX
10
10020.6325
20
9449.9862
30
0.0
11
10025.6325
21
9449.9862
31
0.0
0
TEXT
8
C-ROAD-TEXT
7
STANDARD
10
10023.1325
20
9441.9862
30
0.0
40
4.0
1
Mangrove Ave Deflection Point (N-Leg to S-Leg) (9450.0, 10023.1)
50
0.0
72
1
11
10023.1325
21
9441.9862
31
0.0
73
2
0
POINT
8
C-ROAD-INTX
10
10047.7466
20
8077.9670
30
0.0
0
LINE
8
C-ROAD-INTX
10
10047.7466
20
8075.4670
30
0.0
11
10047.7466
21
8080.4670
31
0.0
0
LINE
8
C-ROAD-INTX
10
10045.2466
20
8077.9670
30
0.0
11
10050.2466
21
8077.9670
31
0.0
0
TEXT
8
C-ROAD-TEXT
7
STANDARD
10
10047.7466
20
8069.9670
30
0.0
40
4.0
1
Surfwood Ave & Mangrove Ave (8078.0, 10047.7)
50
0.0
72
1
11
10047.7466
21
8069.9670
31
0.0
73
2
0
POINT
8
C-ROAD-INTX
10
10043.6211
20
8307.9300
30
0.0
0
LINE
8
C-ROAD-INTX
10
10043.6211
20
8305.4300
30
0.0
11
10043.6211
21
8310.4300
31
0.0
0
LINE
8
C-ROAD-INTX
10
10041.1211
20
8307.9300
30
0.0
11
10046.1211
21
8307.9300
31
0.0
0
TEXT
8
C-ROAD-TEXT
7
STANDARD
10
10043.6211
20
8299.9300
30
0.0
40
4.0
1
Bayou Ave & Mangrove Ave (8307.9, 10043.6)
50
0.0
72
1
11
10043.6211
21
8299.9300
31
0.0
73
2
0
POINT
8
C-ROAD-INTX
10
10050.0784
20
7947.9879
30
0.0
0
LINE
8
C-ROAD-INTX
10
10050.0784
20
7945.4879
30
0.0
11
10050.0784
21
7950.4879
31
0.0
0
LINE
8
C-ROAD-INTX
10
10047.5784
20
7947.9879
30
0.0
11
10052.5784
21
7947.9879
31
0.0
0
TEXT
8
C-ROAD-TEXT
7
STANDARD
10
10050.0784
20
7939.9879
30
0.0
40
4.0
1
Mangrove Ave & Plat South Limit (7948.0, 10050.1)
50
0.0
72
1
11
10050.0784
21
7939.9879
31
0.0
73
2
0
POINT
8
C-ROAD-INTX
10
10445.7274
20
8082.7909
30
0.0
0
LINE
8
C-ROAD-INTX
10
10445.7274
20
8080.2909
30
0.0
11
10445.7274
21
8085.2909
31
0.0
0
LINE
8
C-ROAD-INTX
10
10443.2274
20
8082.7909
30
0.0
11
10448.2274
21
8082.7909
31
0.0
0
TEXT
8
C-ROAD-TEXT
7
STANDARD
10
10445.7274
20
8074.7909
30
0.0
40
4.0
1
Surfwood Ave & Unit One Matchline (8082.8, 10445.7)
50
0.0
72
1
11
10445.7274
21
8074.7909
31
0.0
73
2
0
POINT
8
C-ROAD-INTX
10
10314.5613
20
8338.5021
30
0.0
0
LINE
8
C-ROAD-INTX
10
10314.5613
20
8336.0021
30
0.0
11
10314.5613
21
8341.0021
31
0.0
0
LINE
8
C-ROAD-INTX
10
10312.0613
20
8338.5021
30
0.0
11
10317.0613
21
8338.5021
31
0.0
0
TEXT
8
C-ROAD-TEXT
7
STANDARD
10
10314.5613
20
8330.5021
30
0.0
40
4.0
1
San Salvadore Ave P.C. (Point of Curvature) (8338.5, 10314.6)
50
0.0
72
1
11
10314.5613
21
8330.5021
31
0.0
73
2
0
POINT
8
C-ROAD-INTX
10
10493.2997
20
8283.3822
30
0.0
0
LINE
8
C-ROAD-INTX
10
10493.2997
20
8280.8822
30
0.0
11
10493.2997
21
8285.8822
31
0.0
0
LINE
8
C-ROAD-INTX
10
10490.7997
20
8283.3822
30
0.0
11
10495.7997
21
8283.3822
31
0.0
0
TEXT
8
C-ROAD-TEXT
7
STANDARD
10
10493.2997
20
8275.3822
30
0.0
40
4.0
1
San Salvadore Ave P.T. (Point of Tangency) (8283.4, 10493.3)
50
0.0
72
1
11
10493.2997
21
8275.3822
31
0.0
73
2
0
POINT
8
C-ROAD-ASSUMP-INTX
10
10394.8870
20
8281.6167
30
0.0
0
LINE
8
C-ROAD-ASSUMP-INTX
10
10394.8870
20
8278.1167
30
0.0
11
10394.8870
21
8285.1167
31
0.0
0
LINE
8
C-ROAD-ASSUMP-INTX
10
10391.3870
20
8281.6167
30
0.0
11
10398.3870
21
8281.6167
31
0.0
0
TEXT
8
C-ROAD-ASSUMP-TEXT
7
STANDARD
10
10394.8870
20
8273.6167
30
0.0
40
4.0
1
Assumed P.I. Tie (San Salvadore to Surfwood) (8281.6, 10394.9)
50
0.0
72
1
11
10394.8870
21
8273.6167
31
0.0
73
2
0
POINT
8
C-ROAD-INTX
10
10587.2371
20
8463.9928
30
0.0
0
LINE
8
C-ROAD-INTX
10
10587.2371
20
8461.4928
30
0.0
11
10587.2371
21
8466.4928
31
0.0
0
LINE
8
C-ROAD-INTX
10
10584.7371
20
8463.9928
30
0.0
11
10589.7371
21
8463.9928
31
0.0
0
TEXT
8
C-ROAD-TEXT
7
STANDARD
10
10587.2371
20
8455.9928
30
0.0
40
4.0
1
Cape Horn Ave & Unit One Matchline (P.R.M. Monument) (8464.0, 10587.2)
50
0.0
72
1
11
10587.2371
21
8455.9928
31
0.0
73
2
0
POINT
8
C-ROAD-INTX
10
11452.2162
20
10061.0775
30
0.0
0
LINE
8
C-ROAD-INTX
10
11452.2162
20
10058.5775
30
0.0
11
11452.2162
21
10063.5775
31
0.0
0
LINE
8
C-ROAD-INTX
10
11449.7162
20
10061.0775
30
0.0
11
11454.7162
21
10061.0775
31
0.0
0
TEXT
8
C-ROAD-TEXT
7
STANDARD
10
11452.2162
20
10053.0775
30
0.0
40
4.0
1
Starfish Ave & Beachwood Blvd (10061.1, 11452.2)
50
0.0
72
1
11
11452.2162
21
10053.0775
31
0.0
73
2
0
POINT
8
C-ROAD-INTX
10
11463.1416
20
9801.3071
30
0.0
0
LINE
8
C-ROAD-INTX
10
11463.1416
20
9798.8071
30
0.0
11
11463.1416
21
9803.8071
31
0.0
0
LINE
8
C-ROAD-INTX
10
11460.6416
20
9801.3071
30
0.0
11
11465.6416
21
9801.3071
31
0.0
0
TEXT
8
C-ROAD-TEXT
7
STANDARD
10
11463.1416
20
9793.3071
30
0.0
40
4.0
1
Sail Ave & Beachwood Blvd (9801.3, 11463.1)
50
0.0
72
1
11
11463.1416
21
9793.3071
31
0.0
73
2
0
POINT
8
C-ROAD-INTX
10
10279.8828
20
9491.3116
30
0.0
0
LINE
8
C-ROAD-INTX
10
10279.8828
20
9488.8116
30
0.0
11
10279.8828
21
9493.8116
31
0.0
0
LINE
8
C-ROAD-INTX
10
10277.3828
20
9491.3116
30
0.0
11
10282.3828
21
9491.3116
31
0.0
0
TEXT
8
C-ROAD-TEXT
7
STANDARD
10
10279.8828
20
9483.3116
30
0.0
40
4.0
1
South St & Marina Ave P.C. (9491.3, 10279.9)
50
0.0
72
1
11
10279.8828
21
9483.3116
31
0.0
73
2
0
POINT
8
C-ROAD-INTX
10
10539.8129
20
9414.5717
30
0.0
0
LINE
8
C-ROAD-INTX
10
10539.8129
20
9412.0717
30
0.0
11
10539.8129
21
9417.0717
31
0.0
0
LINE
8
C-ROAD-INTX
10
10537.3129
20
9414.5717
30
0.0
11
10542.3129
21
9414.5717
31
0.0
0
TEXT
8
C-ROAD-TEXT
7
STANDARD
10
10539.8129
20
9406.5717
30
0.0
40
4.0
1
Marina Ave P.T. (Point of Tangency) (9414.6, 10539.8)
50
0.0
72
1
11
10539.8129
21
9406.5717
31
0.0
73
2
0
POINT
8
C-ROAD-INTX
10
10700.3939
20
9279.2435
30
0.0
0
LINE
8
C-ROAD-INTX
10
10700.3939
20
9276.7435
30
0.0
11
10700.3939
21
9281.7435
31
0.0
0
LINE
8
C-ROAD-INTX
10
10697.8939
20
9279.2435
30
0.0
11
10702.8939
21
9279.2435
31
0.0
0
TEXT
8
C-ROAD-TEXT
7
STANDARD
10
10700.3939
20
9271.2435
30
0.0
40
4.0
1
Marina Ave & Keel Drive (9279.2, 10700.4)
50
0.0
72
1
11
10700.3939
21
9271.2435
31
0.0
73
2
0
POINT
8
C-ROAD-INTX
10
10480.7779
20
8969.1325
30
0.0
0
LINE
8
C-ROAD-INTX
10
10480.7779
20
8966.6325
30
0.0
11
10480.7779
21
8971.6325
31
0.0
0
LINE
8
C-ROAD-INTX
10
10478.2779
20
8969.1325
30
0.0
11
10483.2779
21
8969.1325
31
0.0
0
TEXT
8
C-ROAD-TEXT
7
STANDARD
10
10480.7779
20
8961.1325
30
0.0
40
4.0
1
Keel Drive Southwest Terminus (8969.1, 10480.8)
50
0.0
72
1
11
10480.7779
21
8961.1325
31
0.0
73
2
0
POINT
8
C-ROAD-ASSUMP-INTX
10
11514.8749
20
9455.1516
30
0.0
0
LINE
8
C-ROAD-ASSUMP-INTX
10
11514.8749
20
9451.6516
30
0.0
11
11514.8749
21
9458.6516
31
0.0
0
LINE
8
C-ROAD-ASSUMP-INTX
10
11511.3749
20
9455.1516
30
0.0
11
11518.3749
21
9455.1516
31
0.0
0
TEXT
8
C-ROAD-ASSUMP-TEXT
7
STANDARD
10
11514.8749
20
9447.1516
30
0.0
40
4.0
1
Assumed Beachwood Blvd & Sands Ave Intersection (9455.2, 11514.9)
50
0.0
72
1
11
11514.8749
21
9447.1516
31
0.0
73
2
0
POINT
8
C-ROAD-ASSUMP-INTX
10
11265.0957
20
9444.6463
30
0.0
0
LINE
8
C-ROAD-ASSUMP-INTX
10
11265.0957
20
9441.1463
30
0.0
11
11265.0957
21
9448.1463
31
0.0
0
LINE
8
C-ROAD-ASSUMP-INTX
10
11261.5957
20
9444.6463
30
0.0
11
11268.5957
21
9444.6463
31
0.0
0
TEXT
8
C-ROAD-ASSUMP-TEXT
7
STANDARD
10
11265.0957
20
9436.6463
30
0.0
40
4.0
1
Assumed Sands Ave Curve P.C. (9444.6, 11265.1)
50
0.0
72
1
11
11265.0957
21
9436.6463
31
0.0
73
2
0
POINT
8
C-ROAD-INTX
10
10027.2491
20
9220.5232
30
0.0
0
LINE
8
C-ROAD-INTX
10
10027.2491
20
9218.0232
30
0.0
11
10027.2491
21
9223.0232
31
0.0
0
LINE
8
C-ROAD-INTX
10
10024.7491
20
9220.5232
30
0.0
11
10029.7491
21
9220.5232
31
0.0
0
TEXT
8
C-ROAD-TEXT
7
STANDARD
10
10027.2491
20
9212.5232
30
0.0
40
4.0
1
Shellfish Dr & Mangrove Ave (9220.5, 10027.2)
50
0.0
72
1
11
10027.2491
21
9212.5232
31
0.0
73
2
0
POINT
8
C-ROAD-INTX
10
10678.3200
20
9247.9100
30
0.0
0
LINE
8
C-ROAD-INTX
10
10678.3200
20
9245.4100
30
0.0
11
10678.3200
21
9250.4100
31
0.0
0
LINE
8
C-ROAD-INTX
10
10675.8200
20
9247.9100
30
0.0
11
10680.8200
21
9247.9100
31
0.0
0
TEXT
8
C-ROAD-TEXT
7
STANDARD
10
10678.3200
20
9239.9100
30
0.0
40
4.0
1
Shellfish Dr & Keel Drive Intersection (9247.9, 10678.3)
50
0.0
72
1
11
10678.3200
21
9239.9100
31
0.0
73
2
0
POINT
8
C-ROAD-ASSUMP-INTX
10
10994.7621
20
9539.3453
30
0.0
0
LINE
8
C-ROAD-ASSUMP-INTX
10
10994.7621
20
9535.8453
30
0.0
11
10994.7621
21
9542.8453
31
0.0
0
LINE
8
C-ROAD-ASSUMP-INTX
10
10991.2621
20
9539.3453
30
0.0
11
10998.2621
21
9539.3453
31
0.0
0
TEXT
8
C-ROAD-ASSUMP-TEXT
7
STANDARD
10
10994.7621
20
9531.3453
30
0.0
40
4.0
1
Assumed Sands Ave Curve P.T. (9539.3, 10994.8)
50
0.0
72
1
11
10994.7621
21
9531.3453
31
0.0
73
2
0
POINT
8
C-ROAD-INTX
10
10550.5029
20
9067.5884
30
0.0
0
LINE
8
C-ROAD-INTX
10
10550.5029
20
9065.0884
30
0.0
11
10550.5029
21
9070.0884
31
0.0
0
LINE
8
C-ROAD-INTX
10
10548.0029
20
9067.5884
30
0.0
11
10553.0029
21
9067.5884
31
0.0
0
TEXT
8
C-ROAD-TEXT
7
STANDARD
10
10550.5029
20
9059.5884
30
0.0
40
4.0
1
Keel Drive Curve P.C. (9067.6, 10550.5)
50
0.0
72
1
11
10550.5029
21
9059.5884
31
0.0
73
2
0
POINT
8
C-ROAD-INTX
10
10661.9134
20
9128.2088
30
0.0
0
LINE
8
C-ROAD-INTX
10
10661.9134
20
9125.7088
30
0.0
11
10661.9134
21
9130.7088
31
0.0
0
LINE
8
C-ROAD-INTX
10
10659.4134
20
9128.2088
30
0.0
11
10664.4134
21
9128.2088
31
0.0
0
TEXT
8
C-ROAD-TEXT
7
STANDARD
10
10661.9134
20
9120.2088
30
0.0
40
4.0
1
Keel Drive Curve P.T. (9128.2, 10661.9)
50
0.0
72
1
11
10661.9134
21
9120.2088
31
0.0
73
2
0
POINT
8
C-ROAD-INTX
10
10383.2167
20
8608.4770
30
0.0
0
LINE
8
C-ROAD-INTX
10
10383.2167
20
8605.9770
30
0.0
11
10383.2167
21
8610.9770
31
0.0
0
LINE
8
C-ROAD-INTX
10
10380.7167
20
8608.4770
30
0.0
11
10385.7167
21
8608.4770
31
0.0
0
TEXT
8
C-ROAD-TEXT
7
STANDARD
10
10383.2167
20
8600.4770
30
0.0
40
4.0
1
Cape Horn Ave Curve P.C. (8608.5, 10383.2)
50
0.0
72
1
11
10383.2167
21
8600.4770
31
0.0
73
2
0
POINT
8
C-ROAD-INTX
10
10579.5797
20
8553.5078
30
0.0
0
LINE
8
C-ROAD-INTX
10
10579.5797
20
8551.0078
30
0.0
11
10579.5797
21
8556.0078
31
0.0
0
LINE
8
C-ROAD-INTX
10
10577.0797
20
8553.5078
30
0.0
11
10582.0797
21
8553.5078
31
0.0
0
TEXT
8
C-ROAD-TEXT
7
STANDARD
10
10579.5797
20
8545.5078
30
0.0
40
4.0
1
Cape Horn Ave Curve P.T. (8553.5, 10579.6)
50
0.0
72
1
11
10579.5797
21
8545.5078
31
0.0
73
2
0
POINT
8
C-ROAD-ASSUMP-INTX
10
10422.9526
20
9497.3289
30
0.0
0
LINE
8
C-ROAD-ASSUMP-INTX
10
10422.9526
20
9493.8289
30
0.0
11
10422.9526
21
9500.8289
31
0.0
0
LINE
8
C-ROAD-ASSUMP-INTX
10
10419.4526
20
9497.3289
30
0.0
11
10426.4526
21
9497.3289
31
0.0
0
TEXT
8
C-ROAD-ASSUMP-TEXT
7
STANDARD
10
10422.9526
20
9489.3289
30
0.0
40
4.0
1
Marina Avenue Projected P.I. (T=143.20') (9497.3, 10423.0)
50
0.0
72
1
11
10422.9526
21
9489.3289
31
0.0
73
2
0
POINT
8
C-ROAD-ASSUMP-INTX
10
10394.8870
20
8281.6167
30
0.0
0
LINE
8
C-ROAD-ASSUMP-INTX
10
10394.8870
20
8278.1167
30
0.0
11
10394.8870
21
8285.1167
31
0.0
0
LINE
8
C-ROAD-ASSUMP-INTX
10
10391.3870
20
8281.6167
30
0.0
11
10398.3870
21
8281.6167
31
0.0
0
TEXT
8
C-ROAD-ASSUMP-TEXT
7
STANDARD
10
10394.8870
20
8273.6167
30
0.0
40
4.0
1
San Salvadore Ave Projected P.I. (T=98.43') (8281.6, 10394.9)
50
0.0
72
1
11
10394.8870
21
8273.6167
31
0.0
73
2
0
POINT
8
C-ROAD-ASSUMP-INTX
10
11457.6932
20
9930.8526
30
0.0
0
LINE
8
C-ROAD-ASSUMP-INTX
10
11457.6932
20
9927.3526
30
0.0
11
11457.6932
21
9934.3526
31
0.0
0
LINE
8
C-ROAD-ASSUMP-INTX
10
11454.1932
20
9930.8526
30
0.0
11
11461.1932
21
9930.8526
31
0.0
0
TEXT
8
C-ROAD-ASSUMP-TEXT
7
STANDARD
10
11457.6932
20
9922.8526
30
0.0
40
4.0
1
Beachwood Blvd Projected P.I. (T=130.34') (9930.9, 11457.7)
50
0.0
72
1
11
11457.6932
21
9922.8526
31
0.0
73
2
0
POINT
8
C-ROAD-ASSUMP-INTX
10
11415.6964
20
9450.9803
30
0.0
0
LINE
8
C-ROAD-ASSUMP-INTX
10
11415.6964
20
9447.4803
30
0.0
11
11415.6964
21
9454.4803
31
0.0
0
LINE
8
C-ROAD-ASSUMP-INTX
10
11412.1964
20
9450.9803
30
0.0
11
11419.1964
21
9450.9803
31
0.0
0
TEXT
8
C-ROAD-ASSUMP-TEXT
7
STANDARD
10
11415.6964
20
9442.9803
30
0.0
40
4.0
1
Sands Avenue Projected P.I. (T=150.73') (9451.0, 11415.7)
50
0.0
72
1
11
11415.6964
21
9442.9803
31
0.0
73
2
0
POINT
8
C-ROAD-ASSUMP-INTX
10
10509.6747
20
9009.9366
30
0.0
0
LINE
8
C-ROAD-ASSUMP-INTX
10
10509.6747
20
9006.4366
30
0.0
11
10509.6747
21
9013.4366
31
0.0
0
LINE
8
C-ROAD-ASSUMP-INTX
10
10506.1747
20
9009.9366
30
0.0
11
10513.1747
21
9009.9366
31
0.0
0
TEXT
8
C-ROAD-ASSUMP-TEXT
7
STANDARD
10
10509.6747
20
9001.9366
30
0.0
40
4.0
1
Keel Drive Projected P.I. (T=70.64') (9009.9, 10509.7)
50
0.0
72
1
11
10509.6747
21
9001.9366
31
0.0
73
2
0
POINT
8
C-ROAD-ASSUMP-INTX
10
10470.7861
20
8546.4618
30
0.0
0
LINE
8
C-ROAD-ASSUMP-INTX
10
10470.7861
20
8542.9618
30
0.0
11
10470.7861
21
8549.9618
31
0.0
0
LINE
8
C-ROAD-ASSUMP-INTX
10
10467.2861
20
8546.4618
30
0.0
11
10474.2861
21
8546.4618
31
0.0
0
TEXT
8
C-ROAD-ASSUMP-TEXT
7
STANDARD
10
10470.7861
20
8538.4618
30
0.0
40
4.0
1
Cape Horn Ave Projected P.I. (T=107.30') (8546.5, 10470.8)
50
0.0
72
1
11
10470.7861
21
8538.4618
31
0.0
73
2
0
POINT
8
CONTROL
10
10000.0000
20
10000.0000
30
0.0
0
LINE
8
CONTROL
10
10000.0000
20
9994.0000
30
0.0
11
10000.0000
21
10006.0000
31
0.0
0
LINE
8
CONTROL
10
9994.0000
20
10000.0000
30
0.0
11
10006.0000
21
10000.0000
31
0.0
0
TEXT
8
CONTROL
7
STANDARD
10
10000.0000
20
10015.0000
30
0.0
40
6.0
1
GROUND GPS CONTROL TIE: 30.292130%%d N, -81.530280%%d W (NO FUDGING)
50
0.0
0
TEXT
8
TITLEBLOCK
7
STANDARD
10
10200.0000
20
10350.0000
30
0.0
40
10.0
1
BEACHWOOD UNIT TWO -- COMPLETE ROAD CENTERLINE NETWORK (100-AGENT CONSENSUS)
50
0.0
0
TEXT
8
TITLEBLOCK
7
STANDARD
10
10200.0000
20
10332.0000
30
0.0
40
7.0
1
Plat Book 30, Pages 82 & 82A, Duval County, FL (Duval_Plat_Book_30_Page_82-2.pdf)
50
0.0
0
TEXT
8
TITLEBLOCK
7
STANDARD
10
10200.0000
20
10318.0000
30
0.0
40
6.0
1
SCALE: 1" = 100 FT | SURVEYOR ROAD CENTERLINES & RED-LINED ASSUMPTIONS
50
0.0
0
ENDSEC
0
EOF
