0
SECTION
2
HEADER
9
$ACADVER
1
AC1009
9
$DWGCODEPAGE
3
ANSI_1252
0
ENDSEC
0
SECTION
2
TABLES
0
TABLE
2
LTYPE
70
20
0
LTYPE
2
CONTINUOUS
70
0
3
Solid
72
65
73
0
40
0.0
0
LTYPE
2
DASHED
70
0
3
Dashed
72
65
73
2
40
0.75
49
0.5
74
0
49
-0.25
74
0
0
LTYPE
2
DASHED2
70
0
3
Dashed (.5x)
72
65
73
2
40
0.375
49
0.25
74
0
49
-0.125
74
0
0
LTYPE
2
HIDDEN
70
0
3
Hidden
72
65
73
2
40
0.375
49
0.25
74
0
49
-0.125
74
0
0
LTYPE
2
CENTER
70
0
3
Center
72
65
73
4
40
2.0
49
1.25
74
0
49
-0.25
74
0
49
0.25
74
0
49
-0.25
74
0
0
LTYPE
2
PHANTOM
70
0
3
Phantom
72
65
73
6
40
2.5
49
1.25
74
0
49
-0.25
74
0
49
0.25
74
0
49
-0.25
74
0
49
0.25
74
0
49
-0.25
74
0
0
LTYPE
2
ROT_2.41
70
0
3
Solid
72
65
73
0
40
0.0
0
LTYPE
2
ROT_272.41
70
0
3
Solid
72
65
73
0
40
0.0
0
LTYPE
2
ROT_29.70
70
0
3
Solid
72
65
73
0
40
0.0
0
LTYPE
2
ROT_293.03
70
0
3
Solid
72
65
73
0
40
0.0
0
LTYPE
2
ROT_305.03
70
0
3
Solid
72
65
73
0
40
0.0
0
LTYPE
2
ROT_317.41
70
0
3
Solid
72
65
73
0
40
0.0
0
LTYPE
2
ROT_330.98
70
0
3
Solid
72
65
73
0
40
0.0
0
LTYPE
2
ROT_343.55
70
0
3
Solid
72
65
73
0
40
0.0
0
LTYPE
2
ROT_356.12
70
0
3
Solid
72
65
73
0
40
0.0
0
LTYPE
2
ROT_47.20
70
0
3
Solid
72
65
73
0
40
0.0
0
LTYPE
2
ROT_47.41
70
0
3
Solid
72
65
73
0
40
0.0
0
LTYPE
2
ROT_70.66
70
0
3
Solid
72
65
73
0
40
0.0
0
LTYPE
2
ROT_79.39
70
0
3
Solid
72
65
73
0
40
0.0
0
LTYPE
2
ROT_9.69
70
0
3
Solid
72
65
73
0
40
0.0
0
ENDTAB
0
TABLE
2
LAYER
70
6
0
LAYER
2
0
70
0
62
7
6
CONTINUOUS
0
LAYER
2
LOT_POLYLINE
70
0
62
4
6
CONTINUOUS
0
LAYER
2
SHEET_LABELS
70
0
62
7
6
CONTINUOUS
0
LAYER
2
SHEET_FRAME
70
0
62
2
6
CONTINUOUS
0
LAYER
2
ERROR
70
0
62
1
6
CONTINUOUS
0
LAYER
2
TITLEBLOCK
70
0
62
2
6
CONTINUOUS
0
ENDTAB
0
TABLE
2
STYLE
70
4
0
STYLE
2
STANDARD
70
0
40
0.0
41
1.0
50
0.0
71
0
42
0.2
3
Arial
4

0
STYLE
2
ARIAL
70
0
40
0.0
41
1.0
50
0.0
71
0
42
0.2
3
Arial
4

0
STYLE
2
ARIAL_TTF
70
0
40
0.0
41
1.0
50
0.0
71
0
42
0.2
3
arial.ttf
4

0
STYLE
2
SIMPLEX
70
0
40
0.0
41
1.0
50
0.0
71
0
42
0.2
3
simplex.shx
4

0
ENDTAB
0
ENDSEC
0
SECTION
2
ENTITIES
0
LINE
8
SHEET_FRAME
10
0.0000
20
0.0000
30
0.0
11
300.0000
21
0.0000
31
0.0
0
LINE
8
SHEET_FRAME
10
300.0000
20
0.0000
30
0.0
11
300.0000
21
260.0000
31
0.0
0
LINE
8
SHEET_FRAME
10
300.0000
20
260.0000
30
0.0
11
0.0000
21
260.0000
31
0.0
0
LINE
8
SHEET_FRAME
10
0.0000
20
260.0000
30
0.0
11
0.0000
21
0.0000
31
0.0
0
POLYLINE
8
LOT_POLYLINE
66
1
70
1
0
VERTEX
8
LOT_POLYLINE
10
31.2809
20
26.0000
30
0.0
0
VERTEX
8
LOT_POLYLINE
10
26.0000
20
151.5623
30
0.0
0
VERTEX
8
LOT_POLYLINE
10
66.0938
20
195.1768
30
0.0
0
VERTEX
8
LOT_POLYLINE
10
180.7741
20
200.0000
30
0.0
0
VERTEX
8
LOT_POLYLINE
10
187.8153
20
32.5835
30
0.0
0
SEQEND
0
POLYLINE
8
LOT_POLYLINE
66
1
70
0
0
VERTEX
8
LOT_POLYLINE
10
26.0000
20
151.5623
30
0.0
0
VERTEX
8
LOT_POLYLINE
10
26.0290
20
155.6732
30
0.0
0
VERTEX
8
LOT_POLYLINE
10
26.4608
20
159.7615
30
0.0
0
VERTEX
8
LOT_POLYLINE
10
27.2912
20
163.7877
30
0.0
0
VERTEX
8
LOT_POLYLINE
10
28.5123
20
167.7132
30
0.0
0
VERTEX
8
LOT_POLYLINE
10
30.1123
20
171.5001
30
0.0
0
VERTEX
8
LOT_POLYLINE
10
32.0757
20
175.1119
30
0.0
0
VERTEX
8
LOT_POLYLINE
10
34.3837
20
178.5139
30
0.0
0
VERTEX
8
LOT_POLYLINE
10
37.0141
20
181.6733
30
0.0
0
VERTEX
8
LOT_POLYLINE
10
39.9414
20
184.5596
30
0.0
0
VERTEX
8
LOT_POLYLINE
10
43.1376
20
187.1451
30
0.0
0
VERTEX
8
LOT_POLYLINE
10
46.5718
20
189.4049
30
0.0
0
VERTEX
8
LOT_POLYLINE
10
50.2109
20
191.3172
30
0.0
0
VERTEX
8
LOT_POLYLINE
10
54.0200
20
192.8635
30
0.0
0
VERTEX
8
LOT_POLYLINE
10
57.9623
20
194.0291
30
0.0
0
VERTEX
8
LOT_POLYLINE
10
61.9999
20
194.8027
30
0.0
0
VERTEX
8
LOT_POLYLINE
10
66.0938
20
195.1768
30
0.0
0
SEQEND
0
TEXT
8
SHEET_LABELS
6
ROT_272.41
7
STANDARD
10
31.6378
20
88.9072
30
0.0
40
3.4
1
N02%%d24'30.00"W
50
272.41
0
TEXT
8
SHEET_LABELS
6
ROT_272.41
7
STANDARD
10
25.6431
20
88.6551
30
0.0
40
3.2
1
75.00'
50
272.41
0
POINT
8
SHEET_LABELS
10
31.2809
20
26.0000
30
0.0
0
TEXT
8
SHEET_LABELS
6
ROT_47.41
7
STANDARD
10
48.2555
20
171.3392
30
0.0
40
3.4
1
N42%%d35'30.00"E
50
47.41
0
TEXT
8
SHEET_LABELS
6
ROT_47.41
7
STANDARD
10
43.8383
20
175.3999
30
0.0
40
3.2
1
35.36'
50
47.41
0
POINT
8
SHEET_LABELS
10
26.0000
20
151.5623
30
0.0
0
TEXT
8
SHEET_LABELS
6
ROT_2.41
7
STANDARD
10
123.5600
20
194.5910
30
0.0
40
3.4
1
N87%%d35'30.00"E
50
2.41
0
TEXT
8
SHEET_LABELS
6
ROT_2.41
7
STANDARD
10
123.3079
20
200.5857
30
0.0
40
3.2
1
68.50'
50
2.41
0
POINT
8
SHEET_LABELS
10
66.0938
20
195.1768
30
0.0
0
TEXT
8
SHEET_LABELS
6
ROT_272.41
7
STANDARD
10
187.2920
20
116.4178
30
0.0
40
3.4
1
S02%%d24'30.00"E
50
272.41
0
TEXT
8
SHEET_LABELS
6
ROT_272.41
7
STANDARD
10
181.2973
20
116.1657
30
0.0
40
3.2
1
100.00'
50
272.41
0
POINT
8
SHEET_LABELS
10
180.7741
20
200.0000
30
0.0
0
TEXT
8
SHEET_LABELS
6
ROT_2.41
7
STANDARD
10
109.6742
20
26.2944
30
0.0
40
3.4
1
S87%%d35'30.00"W
50
2.41
0
TEXT
8
SHEET_LABELS
6
ROT_2.41
7
STANDARD
10
109.4220
20
32.2891
30
0.0
40
3.2
1
93.50'
50
2.41
0
POINT
8
SHEET_LABELS
10
187.8153
20
32.5835
30
0.0
0
TEXT
8
SHEET_LABELS
7
STANDARD
10
8.0000
20
250.0000
30
0.0
40
8.0
1
LOT Blk 16 - Lot 1   PASS
50
0.0
0
TEXT
8
SHEET_LABELS
7
STANDARD
10
8.0000
20
239.0000
30
0.0
40
4.6
1
AREA 9,216 SF (0.212 ac)
50
0.0
0
TEXT
8
SHEET_LABELS
7
STANDARD
10
8.0000
20
232.0000
30
0.0
40
4.0
1
PERIMETER 376.27'   VERTICES 5   CLOSING SIDE 0.00'
50
0.0
0
TEXT
8
SHEET_LABELS
7
STANDARD
10
8.0000
20
225.0000
30
0.0
40
3.4
1
all geometric checks passed: closed single polyline, no self-intersection, no overlap, no spikes
50
0.0
0
LINE
8
SHEET_FRAME
10
340.0000
20
0.0000
30
0.0
11
640.0000
21
0.0000
31
0.0
0
LINE
8
SHEET_FRAME
10
640.0000
20
0.0000
30
0.0
11
640.0000
21
260.0000
31
0.0
0
LINE
8
SHEET_FRAME
10
640.0000
20
260.0000
30
0.0
11
340.0000
21
260.0000
31
0.0
0
LINE
8
SHEET_FRAME
10
340.0000
20
260.0000
30
0.0
11
340.0000
21
0.0000
31
0.0
0
POLYLINE
8
LOT_POLYLINE
66
1
70
1
0
VERTEX
8
LOT_POLYLINE
10
373.0943
20
26.0000
30
0.0
0
VERTEX
8
LOT_POLYLINE
10
366.0000
20
194.6793
30
0.0
0
VERTEX
8
LOT_POLYLINE
10
492.5094
20
200.0000
30
0.0
0
VERTEX
8
LOT_POLYLINE
10
499.6038
20
31.3207
30
0.0
0
SEQEND
0
TEXT
8
SHEET_LABELS
6
ROT_272.41
7
STANDARD
10
372.5445
20
110.4657
30
0.0
40
3.4
1
N02%%d24'30.00"W
50
272.41
0
TEXT
8
SHEET_LABELS
6
ROT_272.41
7
STANDARD
10
366.5498
20
110.2136
30
0.0
40
3.2
1
100.00'
50
272.41
0
POINT
8
SHEET_LABELS
10
373.0943
20
26.0000
30
0.0
0
TEXT
8
SHEET_LABELS
6
ROT_2.41
7
STANDARD
10
429.3808
20
194.3423
30
0.0
40
3.4
1
N87%%d35'30.00"E
50
2.41
0
TEXT
8
SHEET_LABELS
6
ROT_2.41
7
STANDARD
10
429.1287
20
200.3370
30
0.0
40
3.2
1
75.00'
50
2.41
0
POINT
8
SHEET_LABELS
10
366.0000
20
194.6793
30
0.0
0
TEXT
8
SHEET_LABELS
6
ROT_272.41
7
STANDARD
10
499.0540
20
115.7864
30
0.0
40
3.4
1
S02%%d24'30.00"E
50
272.41
0
TEXT
8
SHEET_LABELS
6
ROT_272.41
7
STANDARD
10
493.0593
20
115.5343
30
0.0
40
3.2
1
100.00'
50
272.41
0
POINT
8
SHEET_LABELS
10
492.5094
20
200.0000
30
0.0
0
TEXT
8
SHEET_LABELS
6
ROT_2.41
7
STANDARD
10
436.4751
20
25.6630
30
0.0
40
3.4
1
S87%%d35'30.00"W
50
2.41
0
TEXT
8
SHEET_LABELS
6
ROT_2.41
7
STANDARD
10
436.2230
20
31.6577
30
0.0
40
3.2
1
75.00'
50
2.41
0
POINT
8
SHEET_LABELS
10
499.6038
20
31.3207
30
0.0
0
TEXT
8
SHEET_LABELS
7
STANDARD
10
348.0000
20
250.0000
30
0.0
40
8.0
1
LOT Blk 16 - Lot 2   PASS
50
0.0
0
TEXT
8
SHEET_LABELS
7
STANDARD
10
348.0000
20
239.0000
30
0.0
40
4.6
1
AREA 7,500 SF (0.172 ac)
50
0.0
0
TEXT
8
SHEET_LABELS
7
STANDARD
10
348.0000
20
232.0000
30
0.0
40
4.0
1
PERIMETER 350.00'   VERTICES 4   CLOSING SIDE 0.00'
50
0.0
0
TEXT
8
SHEET_LABELS
7
STANDARD
10
348.0000
20
225.0000
30
0.0
40
3.4
1
all geometric checks passed: closed single polyline, no self-intersection, no overlap, no spikes
50
0.0
0
LINE
8
SHEET_FRAME
10
680.0000
20
0.0000
30
0.0
11
980.0000
21
0.0000
31
0.0
0
LINE
8
SHEET_FRAME
10
980.0000
20
0.0000
30
0.0
11
980.0000
21
260.0000
31
0.0
0
LINE
8
SHEET_FRAME
10
980.0000
20
260.0000
30
0.0
11
680.0000
21
260.0000
31
0.0
0
LINE
8
SHEET_FRAME
10
680.0000
20
260.0000
30
0.0
11
680.0000
21
0.0000
31
0.0
0
POLYLINE
8
LOT_POLYLINE
66
1
70
1
0
VERTEX
8
LOT_POLYLINE
10
713.0943
20
26.0000
30
0.0
0
VERTEX
8
LOT_POLYLINE
10
706.0000
20
194.6793
30
0.0
0
VERTEX
8
LOT_POLYLINE
10
832.5094
20
200.0000
30
0.0
0
VERTEX
8
LOT_POLYLINE
10
839.6038
20
31.3207
30
0.0
0
SEQEND
0
TEXT
8
SHEET_LABELS
6
ROT_272.41
7
STANDARD
10
712.5445
20
110.4657
30
0.0
40
3.4
1
N02%%d24'30.00"W
50
272.41
0
TEXT
8
SHEET_LABELS
6
ROT_272.41
7
STANDARD
10
706.5498
20
110.2136
30
0.0
40
3.2
1
100.00'
50
272.41
0
POINT
8
SHEET_LABELS
10
713.0943
20
26.0000
30
0.0
0
TEXT
8
SHEET_LABELS
6
ROT_2.41
7
STANDARD
10
769.3808
20
194.3423
30
0.0
40
3.4
1
N87%%d35'30.00"E
50
2.41
0
TEXT
8
SHEET_LABELS
6
ROT_2.41
7
STANDARD
10
769.1287
20
200.3370
30
0.0
40
3.2
1
75.00'
50
2.41
0
POINT
8
SHEET_LABELS
10
706.0000
20
194.6793
30
0.0
0
TEXT
8
SHEET_LABELS
6
ROT_272.41
7
STANDARD
10
839.0540
20
115.7864
30
0.0
40
3.4
1
S02%%d24'30.00"E
50
272.41
0
TEXT
8
SHEET_LABELS
6
ROT_272.41
7
STANDARD
10
833.0593
20
115.5343
30
0.0
40
3.2
1
100.00'
50
272.41
0
POINT
8
SHEET_LABELS
10
832.5094
20
200.0000
30
0.0
0
TEXT
8
SHEET_LABELS
6
ROT_2.41
7
STANDARD
10
776.4751
20
25.6630
30
0.0
40
3.4
1
S87%%d35'30.00"W
50
2.41
0
TEXT
8
SHEET_LABELS
6
ROT_2.41
7
STANDARD
10
776.2230
20
31.6577
30
0.0
40
3.2
1
75.00'
50
2.41
0
POINT
8
SHEET_LABELS
10
839.6038
20
31.3207
30
0.0
0
TEXT
8
SHEET_LABELS
7
STANDARD
10
688.0000
20
250.0000
30
0.0
40
8.0
1
LOT Blk 16 - Lot 3   PASS
50
0.0
0
TEXT
8
SHEET_LABELS
7
STANDARD
10
688.0000
20
239.0000
30
0.0
40
4.6
1
AREA 7,500 SF (0.172 ac)
50
0.0
0
TEXT
8
SHEET_LABELS
7
STANDARD
10
688.0000
20
232.0000
30
0.0
40
4.0
1
PERIMETER 350.00'   VERTICES 4   CLOSING SIDE 0.00'
50
0.0
0
TEXT
8
SHEET_LABELS
7
STANDARD
10
688.0000
20
225.0000
30
0.0
40
3.4
1
all geometric checks passed: closed single polyline, no self-intersection, no overlap, no spikes
50
0.0
0
LINE
8
SHEET_FRAME
10
1020.0000
20
0.0000
30
0.0
11
1320.0000
21
0.0000
31
0.0
0
LINE
8
SHEET_FRAME
10
1320.0000
20
0.0000
30
0.0
11
1320.0000
21
260.0000
31
0.0
0
LINE
8
SHEET_FRAME
10
1320.0000
20
260.0000
30
0.0
11
1020.0000
21
260.0000
31
0.0
0
LINE
8
SHEET_FRAME
10
1020.0000
20
260.0000
30
0.0
11
1020.0000
21
0.0000
31
0.0
0
POLYLINE
8
LOT_POLYLINE
66
1
70
1
0
VERTEX
8
LOT_POLYLINE
10
1053.0943
20
26.0000
30
0.0
0
VERTEX
8
LOT_POLYLINE
10
1046.0000
20
194.6793
30
0.0
0
VERTEX
8
LOT_POLYLINE
10
1172.5094
20
200.0000
30
0.0
0
VERTEX
8
LOT_POLYLINE
10
1179.6038
20
31.3207
30
0.0
0
SEQEND
0
TEXT
8
SHEET_LABELS
6
ROT_272.41
7
STANDARD
10
1052.5445
20
110.4657
30
0.0
40
3.4
1
N02%%d24'30.00"W
50
272.41
0
TEXT
8
SHEET_LABELS
6
ROT_272.41
7
STANDARD
10
1046.5498
20
110.2136
30
0.0
40
3.2
1
100.00'
50
272.41
0
POINT
8
SHEET_LABELS
10
1053.0943
20
26.0000
30
0.0
0
TEXT
8
SHEET_LABELS
6
ROT_2.41
7
STANDARD
10
1109.3808
20
194.3423
30
0.0
40
3.4
1
N87%%d35'30.00"E
50
2.41
0
TEXT
8
SHEET_LABELS
6
ROT_2.41
7
STANDARD
10
1109.1287
20
200.3370
30
0.0
40
3.2
1
75.00'
50
2.41
0
POINT
8
SHEET_LABELS
10
1046.0000
20
194.6793
30
0.0
0
TEXT
8
SHEET_LABELS
6
ROT_272.41
7
STANDARD
10
1179.0540
20
115.7864
30
0.0
40
3.4
1
S02%%d24'30.00"E
50
272.41
0
TEXT
8
SHEET_LABELS
6
ROT_272.41
7
STANDARD
10
1173.0593
20
115.5343
30
0.0
40
3.2
1
100.00'
50
272.41
0
POINT
8
SHEET_LABELS
10
1172.5094
20
200.0000
30
0.0
0
TEXT
8
SHEET_LABELS
6
ROT_2.41
7
STANDARD
10
1116.4751
20
25.6630
30
0.0
40
3.4
1
S87%%d35'30.00"W
50
2.41
0
TEXT
8
SHEET_LABELS
6
ROT_2.41
7
STANDARD
10
1116.2230
20
31.6577
30
0.0
40
3.2
1
75.00'
50
2.41
0
POINT
8
SHEET_LABELS
10
1179.6038
20
31.3207
30
0.0
0
TEXT
8
SHEET_LABELS
7
STANDARD
10
1028.0000
20
250.0000
30
0.0
40
8.0
1
LOT Blk 16 - Lot 4   PASS
50
0.0
0
TEXT
8
SHEET_LABELS
7
STANDARD
10
1028.0000
20
239.0000
30
0.0
40
4.6
1
AREA 7,500 SF (0.172 ac)
50
0.0
0
TEXT
8
SHEET_LABELS
7
STANDARD
10
1028.0000
20
232.0000
30
0.0
40
4.0
1
PERIMETER 350.00'   VERTICES 4   CLOSING SIDE 0.00'
50
0.0
0
TEXT
8
SHEET_LABELS
7
STANDARD
10
1028.0000
20
225.0000
30
0.0
40
3.4
1
all geometric checks passed: closed single polyline, no self-intersection, no overlap, no spikes
50
0.0
0
LINE
8
SHEET_FRAME
10
0.0000
20
-300.0000
30
0.0
11
300.0000
21
-300.0000
31
0.0
0
LINE
8
SHEET_FRAME
10
300.0000
20
-300.0000
30
0.0
11
300.0000
21
-40.0000
31
0.0
0
LINE
8
SHEET_FRAME
10
300.0000
20
-40.0000
30
0.0
11
0.0000
21
-40.0000
31
0.0
0
LINE
8
SHEET_FRAME
10
0.0000
20
-40.0000
30
0.0
11
0.0000
21
-300.0000
31
0.0
0
POLYLINE
8
LOT_POLYLINE
66
1
70
1
0
VERTEX
8
LOT_POLYLINE
10
33.0943
20
-274.0000
30
0.0
0
VERTEX
8
LOT_POLYLINE
10
26.0000
20
-105.3207
30
0.0
0
VERTEX
8
LOT_POLYLINE
10
152.5094
20
-100.0000
30
0.0
0
VERTEX
8
LOT_POLYLINE
10
159.6038
20
-268.6793
30
0.0
0
SEQEND
0
TEXT
8
SHEET_LABELS
6
ROT_272.41
7
STANDARD
10
32.5445
20
-189.5343
30
0.0
40
3.4
1
N02%%d24'30.00"W
50
272.41
0
TEXT
8
SHEET_LABELS
6
ROT_272.41
7
STANDARD
10
26.5498
20
-189.7864
30
0.0
40
3.2
1
100.00'
50
272.41
0
POINT
8
SHEET_LABELS
10
33.0943
20
-274.0000
30
0.0
0
TEXT
8
SHEET_LABELS
6
ROT_2.41
7
STANDARD
10
89.3808
20
-105.6577
30
0.0
40
3.4
1
N87%%d35'30.00"E
50
2.41
0
TEXT
8
SHEET_LABELS
6
ROT_2.41
7
STANDARD
10
89.1287
20
-99.6630
30
0.0
40
3.2
1
75.00'
50
2.41
0
POINT
8
SHEET_LABELS
10
26.0000
20
-105.3207
30
0.0
0
TEXT
8
SHEET_LABELS
6
ROT_272.41
7
STANDARD
10
159.0540
20
-184.2136
30
0.0
40
3.4
1
S02%%d24'30.00"E
50
272.41
0
TEXT
8
SHEET_LABELS
6
ROT_272.41
7
STANDARD
10
153.0593
20
-184.4657
30
0.0
40
3.2
1
100.00'
50
272.41
0
POINT
8
SHEET_LABELS
10
152.5094
20
-100.0000
30
0.0
0
TEXT
8
SHEET_LABELS
6
ROT_2.41
7
STANDARD
10
96.4751
20
-274.3370
30
0.0
40
3.4
1
S87%%d35'30.00"W
50
2.41
0
TEXT
8
SHEET_LABELS
6
ROT_2.41
7
STANDARD
10
96.2230
20
-268.3423
30
0.0
40
3.2
1
75.00'
50
2.41
0
POINT
8
SHEET_LABELS
10
159.6038
20
-268.6793
30
0.0
0
TEXT
8
SHEET_LABELS
7
STANDARD
10
8.0000
20
-50.0000
30
0.0
40
8.0
1
LOT Blk 16 - Lot 5   PASS
50
0.0
0
TEXT
8
SHEET_LABELS
7
STANDARD
10
8.0000
20
-61.0000
30
0.0
40
4.6
1
AREA 7,500 SF (0.172 ac)
50
0.0
0
TEXT
8
SHEET_LABELS
7
STANDARD
10
8.0000
20
-68.0000
30
0.0
40
4.0
1
PERIMETER 350.00'   VERTICES 4   CLOSING SIDE 0.00'
50
0.0
0
TEXT
8
SHEET_LABELS
7
STANDARD
10
8.0000
20
-75.0000
30
0.0
40
3.4
1
all geometric checks passed: closed single polyline, no self-intersection, no overlap, no spikes
50
0.0
0
LINE
8
SHEET_FRAME
10
340.0000
20
-300.0000
30
0.0
11
640.0000
21
-300.0000
31
0.0
0
LINE
8
SHEET_FRAME
10
640.0000
20
-300.0000
30
0.0
11
640.0000
21
-40.0000
31
0.0
0
LINE
8
SHEET_FRAME
10
640.0000
20
-40.0000
30
0.0
11
340.0000
21
-40.0000
31
0.0
0
LINE
8
SHEET_FRAME
10
340.0000
20
-40.0000
30
0.0
11
340.0000
21
-300.0000
31
0.0
0
POLYLINE
8
LOT_POLYLINE
66
1
70
1
0
VERTEX
8
LOT_POLYLINE
10
373.0943
20
-274.0000
30
0.0
0
VERTEX
8
LOT_POLYLINE
10
366.0000
20
-105.3207
30
0.0
0
VERTEX
8
LOT_POLYLINE
10
492.5094
20
-100.0000
30
0.0
0
VERTEX
8
LOT_POLYLINE
10
499.6038
20
-268.6793
30
0.0
0
SEQEND
0
TEXT
8
SHEET_LABELS
6
ROT_272.41
7
STANDARD
10
372.5445
20
-189.5343
30
0.0
40
3.4
1
N02%%d24'30.00"W
50
272.41
0
TEXT
8
SHEET_LABELS
6
ROT_272.41
7
STANDARD
10
366.5498
20
-189.7864
30
0.0
40
3.2
1
100.00'
50
272.41
0
POINT
8
SHEET_LABELS
10
373.0943
20
-274.0000
30
0.0
0
TEXT
8
SHEET_LABELS
6
ROT_2.41
7
STANDARD
10
429.3808
20
-105.6577
30
0.0
40
3.4
1
N87%%d35'30.00"E
50
2.41
0
TEXT
8
SHEET_LABELS
6
ROT_2.41
7
STANDARD
10
429.1287
20
-99.6630
30
0.0
40
3.2
1
75.00'
50
2.41
0
POINT
8
SHEET_LABELS
10
366.0000
20
-105.3207
30
0.0
0
TEXT
8
SHEET_LABELS
6
ROT_272.41
7
STANDARD
10
499.0540
20
-184.2136
30
0.0
40
3.4
1
S02%%d24'30.00"E
50
272.41
0
TEXT
8
SHEET_LABELS
6
ROT_272.41
7
STANDARD
10
493.0593
20
-184.4657
30
0.0
40
3.2
1
100.00'
50
272.41
0
POINT
8
SHEET_LABELS
10
492.5094
20
-100.0000
30
0.0
0
TEXT
8
SHEET_LABELS
6
ROT_2.41
7
STANDARD
10
436.4751
20
-274.3370
30
0.0
40
3.4
1
S87%%d35'30.00"W
50
2.41
0
TEXT
8
SHEET_LABELS
6
ROT_2.41
7
STANDARD
10
436.2230
20
-268.3423
30
0.0
40
3.2
1
75.00'
50
2.41
0
POINT
8
SHEET_LABELS
10
499.6038
20
-268.6793
30
0.0
0
TEXT
8
SHEET_LABELS
7
STANDARD
10
348.0000
20
-50.0000
30
0.0
40
8.0
1
LOT Blk 16 - Lot 6   PASS
50
0.0
0
TEXT
8
SHEET_LABELS
7
STANDARD
10
348.0000
20
-61.0000
30
0.0
40
4.6
1
AREA 7,500 SF (0.172 ac)
50
0.0
0
TEXT
8
SHEET_LABELS
7
STANDARD
10
348.0000
20
-68.0000
30
0.0
40
4.0
1
PERIMETER 350.00'   VERTICES 4   CLOSING SIDE 0.00'
50
0.0
0
TEXT
8
SHEET_LABELS
7
STANDARD
10
348.0000
20
-75.0000
30
0.0
40
3.4
1
all geometric checks passed: closed single polyline, no self-intersection, no overlap, no spikes
50
0.0
0
LINE
8
SHEET_FRAME
10
680.0000
20
-300.0000
30
0.0
11
980.0000
21
-300.0000
31
0.0
0
LINE
8
SHEET_FRAME
10
980.0000
20
-300.0000
30
0.0
11
980.0000
21
-40.0000
31
0.0
0
LINE
8
SHEET_FRAME
10
980.0000
20
-40.0000
30
0.0
11
680.0000
21
-40.0000
31
0.0
0
LINE
8
SHEET_FRAME
10
680.0000
20
-40.0000
30
0.0
11
680.0000
21
-300.0000
31
0.0
0
POLYLINE
8
LOT_POLYLINE
66
1
70
1
0
VERTEX
8
LOT_POLYLINE
10
713.0943
20
-274.0000
30
0.0
0
VERTEX
8
LOT_POLYLINE
10
706.0000
20
-105.3207
30
0.0
0
VERTEX
8
LOT_POLYLINE
10
832.5094
20
-100.0000
30
0.0
0
VERTEX
8
LOT_POLYLINE
10
839.6038
20
-268.6793
30
0.0
0
SEQEND
0
TEXT
8
SHEET_LABELS
6
ROT_272.41
7
STANDARD
10
712.5445
20
-189.5343
30
0.0
40
3.4
1
N02%%d24'30.00"W
50
272.41
0
TEXT
8
SHEET_LABELS
6
ROT_272.41
7
STANDARD
10
706.5498
20
-189.7864
30
0.0
40
3.2
1
100.00'
50
272.41
0
POINT
8
SHEET_LABELS
10
713.0943
20
-274.0000
30
0.0
0
TEXT
8
SHEET_LABELS
6
ROT_2.41
7
STANDARD
10
769.3808
20
-105.6577
30
0.0
40
3.4
1
N87%%d35'30.00"E
50
2.41
0
TEXT
8
SHEET_LABELS
6
ROT_2.41
7
STANDARD
10
769.1287
20
-99.6630
30
0.0
40
3.2
1
75.00'
50
2.41
0
POINT
8
SHEET_LABELS
10
706.0000
20
-105.3207
30
0.0
0
TEXT
8
SHEET_LABELS
6
ROT_272.41
7
STANDARD
10
839.0540
20
-184.2136
30
0.0
40
3.4
1
S02%%d24'30.00"E
50
272.41
0
TEXT
8
SHEET_LABELS
6
ROT_272.41
7
STANDARD
10
833.0593
20
-184.4657
30
0.0
40
3.2
1
100.00'
50
272.41
0
POINT
8
SHEET_LABELS
10
832.5094
20
-100.0000
30
0.0
0
TEXT
8
SHEET_LABELS
6
ROT_2.41
7
STANDARD
10
776.4751
20
-274.3370
30
0.0
40
3.4
1
S87%%d35'30.00"W
50
2.41
0
TEXT
8
SHEET_LABELS
6
ROT_2.41
7
STANDARD
10
776.2230
20
-268.3423
30
0.0
40
3.2
1
75.00'
50
2.41
0
POINT
8
SHEET_LABELS
10
839.6038
20
-268.6793
30
0.0
0
TEXT
8
SHEET_LABELS
7
STANDARD
10
688.0000
20
-50.0000
30
0.0
40
8.0
1
LOT Blk 16 - Lot 7   PASS
50
0.0
0
TEXT
8
SHEET_LABELS
7
STANDARD
10
688.0000
20
-61.0000
30
0.0
40
4.6
1
AREA 7,500 SF (0.172 ac)
50
0.0
0
TEXT
8
SHEET_LABELS
7
STANDARD
10
688.0000
20
-68.0000
30
0.0
40
4.0
1
PERIMETER 350.00'   VERTICES 4   CLOSING SIDE 0.00'
50
0.0
0
TEXT
8
SHEET_LABELS
7
STANDARD
10
688.0000
20
-75.0000
30
0.0
40
3.4
1
all geometric checks passed: closed single polyline, no self-intersection, no overlap, no spikes
50
0.0
0
LINE
8
SHEET_FRAME
10
1020.0000
20
-300.0000
30
0.0
11
1320.0000
21
-300.0000
31
0.0
0
LINE
8
SHEET_FRAME
10
1320.0000
20
-300.0000
30
0.0
11
1320.0000
21
-40.0000
31
0.0
0
LINE
8
SHEET_FRAME
10
1320.0000
20
-40.0000
30
0.0
11
1020.0000
21
-40.0000
31
0.0
0
LINE
8
SHEET_FRAME
10
1020.0000
20
-40.0000
30
0.0
11
1020.0000
21
-300.0000
31
0.0
0
POLYLINE
8
LOT_POLYLINE
66
1
70
1
0
VERTEX
8
LOT_POLYLINE
10
1053.0943
20
-274.0000
30
0.0
0
VERTEX
8
LOT_POLYLINE
10
1046.0000
20
-105.3207
30
0.0
0
VERTEX
8
LOT_POLYLINE
10
1172.5094
20
-100.0000
30
0.0
0
VERTEX
8
LOT_POLYLINE
10
1179.6038
20
-268.6793
30
0.0
0
SEQEND
0
TEXT
8
SHEET_LABELS
6
ROT_272.41
7
STANDARD
10
1052.5445
20
-189.5343
30
0.0
40
3.4
1
N02%%d24'30.00"W
50
272.41
0
TEXT
8
SHEET_LABELS
6
ROT_272.41
7
STANDARD
10
1046.5498
20
-189.7864
30
0.0
40
3.2
1
100.00'
50
272.41
0
POINT
8
SHEET_LABELS
10
1053.0943
20
-274.0000
30
0.0
0
TEXT
8
SHEET_LABELS
6
ROT_2.41
7
STANDARD
10
1109.3808
20
-105.6577
30
0.0
40
3.4
1
N87%%d35'30.00"E
50
2.41
0
TEXT
8
SHEET_LABELS
6
ROT_2.41
7
STANDARD
10
1109.1287
20
-99.6630
30
0.0
40
3.2
1
75.00'
50
2.41
0
POINT
8
SHEET_LABELS
10
1046.0000
20
-105.3207
30
0.0
0
TEXT
8
SHEET_LABELS
6
ROT_272.41
7
STANDARD
10
1179.0540
20
-184.2136
30
0.0
40
3.4
1
S02%%d24'30.00"E
50
272.41
0
TEXT
8
SHEET_LABELS
6
ROT_272.41
7
STANDARD
10
1173.0593
20
-184.4657
30
0.0
40
3.2
1
100.00'
50
272.41
0
POINT
8
SHEET_LABELS
10
1172.5094
20
-100.0000
30
0.0
0
TEXT
8
SHEET_LABELS
6
ROT_2.41
7
STANDARD
10
1116.4751
20
-274.3370
30
0.0
40
3.4
1
S87%%d35'30.00"W
50
2.41
0
TEXT
8
SHEET_LABELS
6
ROT_2.41
7
STANDARD
10
1116.2230
20
-268.3423
30
0.0
40
3.2
1
75.00'
50
2.41
0
POINT
8
SHEET_LABELS
10
1179.6038
20
-268.6793
30
0.0
0
TEXT
8
SHEET_LABELS
7
STANDARD
10
1028.0000
20
-50.0000
30
0.0
40
8.0
1
LOT Blk 16 - Lot 8   PASS
50
0.0
0
TEXT
8
SHEET_LABELS
7
STANDARD
10
1028.0000
20
-61.0000
30
0.0
40
4.6
1
AREA 7,500 SF (0.172 ac)
50
0.0
0
TEXT
8
SHEET_LABELS
7
STANDARD
10
1028.0000
20
-68.0000
30
0.0
40
4.0
1
PERIMETER 350.00'   VERTICES 4   CLOSING SIDE 0.00'
50
0.0
0
TEXT
8
SHEET_LABELS
7
STANDARD
10
1028.0000
20
-75.0000
30
0.0
40
3.4
1
all geometric checks passed: closed single polyline, no self-intersection, no overlap, no spikes
50
0.0
0
LINE
8
SHEET_FRAME
10
0.0000
20
-600.0000
30
0.0
11
300.0000
21
-600.0000
31
0.0
0
LINE
8
SHEET_FRAME
10
300.0000
20
-600.0000
30
0.0
11
300.0000
21
-340.0000
31
0.0
0
LINE
8
SHEET_FRAME
10
300.0000
20
-340.0000
30
0.0
11
0.0000
21
-340.0000
31
0.0
0
LINE
8
SHEET_FRAME
10
0.0000
20
-340.0000
30
0.0
11
0.0000
21
-600.0000
31
0.0
0
POLYLINE
8
LOT_POLYLINE
66
1
70
1
0
VERTEX
8
LOT_POLYLINE
10
75.3951
20
-574.0000
30
0.0
0
VERTEX
8
LOT_POLYLINE
10
191.2474
20
-569.1275
30
0.0
0
VERTEX
8
LOT_POLYLINE
10
184.1342
20
-400.0000
30
0.0
0
VERTEX
8
LOT_POLYLINE
10
26.0000
20
-406.6508
30
0.0
0
VERTEX
8
LOT_POLYLINE
10
31.3349
20
-533.4964
30
0.0
0
SEQEND
0
POLYLINE
8
LOT_POLYLINE
66
1
70
0
0
VERTEX
8
LOT_POLYLINE
10
31.3349
20
-533.4964
30
0.0
0
VERTEX
8
LOT_POLYLINE
10
35.4878
20
-533.5257
30
0.0
0
VERTEX
8
LOT_POLYLINE
10
39.6178
20
-533.9619
30
0.0
0
VERTEX
8
LOT_POLYLINE
10
43.6852
20
-534.8009
30
0.0
0
VERTEX
8
LOT_POLYLINE
10
47.6508
20
-536.0344
30
0.0
0
VERTEX
8
LOT_POLYLINE
10
51.4764
20
-537.6507
30
0.0
0
VERTEX
8
LOT_POLYLINE
10
55.1251
20
-539.6342
30
0.0
0
VERTEX
8
LOT_POLYLINE
10
58.5619
20
-541.9658
30
0.0
0
VERTEX
8
LOT_POLYLINE
10
61.7535
20
-544.6231
30
0.0
0
VERTEX
8
LOT_POLYLINE
10
64.6694
20
-547.5803
30
0.0
0
VERTEX
8
LOT_POLYLINE
10
67.2813
20
-550.8091
30
0.0
0
VERTEX
8
LOT_POLYLINE
10
69.5642
20
-554.2784
30
0.0
0
VERTEX
8
LOT_POLYLINE
10
71.4960
20
-557.9548
30
0.0
0
VERTEX
8
LOT_POLYLINE
10
73.0582
20
-561.8028
30
0.0
0
VERTEX
8
LOT_POLYLINE
10
74.2357
20
-565.7854
30
0.0
0
VERTEX
8
LOT_POLYLINE
10
75.0171
20
-569.8642
30
0.0
0
VERTEX
8
LOT_POLYLINE
10
75.3951
20
-574.0000
30
0.0
0
SEQEND
0
TEXT
8
SHEET_LABELS
6
ROT_2.41
7
STANDARD
10
133.4473
20
-574.5611
30
0.0
40
3.4
1
N87%%d35'30.00"E
50
2.41
0
TEXT
8
SHEET_LABELS
6
ROT_2.41
7
STANDARD
10
133.1951
20
-568.5664
30
0.0
40
3.2
1
68.50'
50
2.41
0
POINT
8
SHEET_LABELS
10
75.3951
20
-574.0000
30
0.0
0
TEXT
8
SHEET_LABELS
6
ROT_272.41
7
STANDARD
10
190.6881
20
-484.4377
30
0.0
40
3.4
1
N02%%d24'30.00"W
50
272.41
0
TEXT
8
SHEET_LABELS
6
ROT_272.41
7
STANDARD
10
184.6934
20
-484.6898
30
0.0
40
3.2
1
100.00'
50
272.41
0
POINT
8
SHEET_LABELS
10
191.2474
20
-569.1275
30
0.0
0
TEXT
8
SHEET_LABELS
6
ROT_2.41
7
STANDARD
10
105.1932
20
-406.3228
30
0.0
40
3.4
1
S87%%d35'30.00"W
50
2.41
0
TEXT
8
SHEET_LABELS
6
ROT_2.41
7
STANDARD
10
104.9410
20
-400.3281
30
0.0
40
3.2
1
93.50'
50
2.41
0
POINT
8
SHEET_LABELS
10
184.1342
20
-400.0000
30
0.0
0
TEXT
8
SHEET_LABELS
6
ROT_272.41
7
STANDARD
10
31.6648
20
-469.9476
30
0.0
40
3.4
1
S02%%d24'30.00"E
50
272.41
0
TEXT
8
SHEET_LABELS
6
ROT_272.41
7
STANDARD
10
25.6701
20
-470.1997
30
0.0
40
3.2
1
75.00'
50
272.41
0
POINT
8
SHEET_LABELS
10
26.0000
20
-406.6508
30
0.0
0
TEXT
8
SHEET_LABELS
6
ROT_317.41
7
STANDARD
10
55.3953
20
-551.5396
30
0.0
40
3.4
1
S47%%d24'30.00"E
50
317.41
0
TEXT
8
SHEET_LABELS
6
ROT_317.41
7
STANDARD
10
51.3347
20
-555.9568
30
0.0
40
3.2
1
35.36'
50
317.41
0
POINT
8
SHEET_LABELS
10
31.3349
20
-533.4964
30
0.0
0
TEXT
8
SHEET_LABELS
7
STANDARD
10
8.0000
20
-350.0000
30
0.0
40
8.0
1
LOT Blk 16 - Lot 33   PASS
50
0.0
0
TEXT
8
SHEET_LABELS
7
STANDARD
10
8.0000
20
-361.0000
30
0.0
40
4.6
1
AREA 9,216 SF (0.212 ac)
50
0.0
0
TEXT
8
SHEET_LABELS
7
STANDARD
10
8.0000
20
-368.0000
30
0.0
40
4.0
1
PERIMETER 376.27'   VERTICES 5   CLOSING SIDE 0.00'
50
0.0
0
TEXT
8
SHEET_LABELS
7
STANDARD
10
8.0000
20
-375.0000
30
0.0
40
3.4
1
all geometric checks passed: closed single polyline, no self-intersection, no overlap, no spikes
50
0.0
0
LINE
8
SHEET_FRAME
10
340.0000
20
-600.0000
30
0.0
11
640.0000
21
-600.0000
31
0.0
0
LINE
8
SHEET_FRAME
10
640.0000
20
-600.0000
30
0.0
11
640.0000
21
-340.0000
31
0.0
0
LINE
8
SHEET_FRAME
10
640.0000
20
-340.0000
30
0.0
11
340.0000
21
-340.0000
31
0.0
0
LINE
8
SHEET_FRAME
10
340.0000
20
-340.0000
30
0.0
11
340.0000
21
-600.0000
31
0.0
0
POLYLINE
8
LOT_POLYLINE
66
1
70
1
0
VERTEX
8
LOT_POLYLINE
10
373.0519
20
-574.0000
30
0.0
0
VERTEX
8
LOT_POLYLINE
10
523.5527
20
-567.6702
30
0.0
0
VERTEX
8
LOT_POLYLINE
10
516.5008
20
-400.0000
30
0.0
0
VERTEX
8
LOT_POLYLINE
10
366.0000
20
-406.3298
30
0.0
0
SEQEND
0
TEXT
8
SHEET_LABELS
6
ROT_2.41
7
STANDARD
10
448.4284
20
-573.8325
30
0.0
40
3.4
1
N87%%d35'30.00"E
50
2.41
0
TEXT
8
SHEET_LABELS
6
ROT_2.41
7
STANDARD
10
448.1762
20
-567.8378
30
0.0
40
3.2
1
89.76'
50
2.41
0
POINT
8
SHEET_LABELS
10
373.0519
20
-574.0000
30
0.0
0
TEXT
8
SHEET_LABELS
6
ROT_272.41
7
STANDARD
10
523.0241
20
-483.7090
30
0.0
40
3.4
1
N02%%d24'30.00"W
50
272.41
0
TEXT
8
SHEET_LABELS
6
ROT_272.41
7
STANDARD
10
517.0294
20
-483.9612
30
0.0
40
3.2
1
100.00'
50
272.41
0
POINT
8
SHEET_LABELS
10
523.5527
20
-567.6702
30
0.0
0
TEXT
8
SHEET_LABELS
6
ROT_2.41
7
STANDARD
10
441.3765
20
-406.1622
30
0.0
40
3.4
1
S87%%d35'30.00"W
50
2.41
0
TEXT
8
SHEET_LABELS
6
ROT_2.41
7
STANDARD
10
441.1243
20
-400.1675
30
0.0
40
3.2
1
89.76'
50
2.41
0
POINT
8
SHEET_LABELS
10
516.5008
20
-400.0000
30
0.0
0
TEXT
8
SHEET_LABELS
6
ROT_272.41
7
STANDARD
10
372.5233
20
-490.0388
30
0.0
40
3.4
1
S02%%d24'30.00"E
50
272.41
0
TEXT
8
SHEET_LABELS
6
ROT_272.41
7
STANDARD
10
366.5286
20
-490.2910
30
0.0
40
3.2
1
100.00'
50
272.41
0
POINT
8
SHEET_LABELS
10
366.0000
20
-406.3298
30
0.0
0
TEXT
8
SHEET_LABELS
7
STANDARD
10
348.0000
20
-350.0000
30
0.0
40
8.0
1
LOT Blk 16 - Lot 32   PASS
50
0.0
0
TEXT
8
SHEET_LABELS
7
STANDARD
10
348.0000
20
-361.0000
30
0.0
40
4.6
1
AREA 8,976 SF (0.206 ac)
50
0.0
0
TEXT
8
SHEET_LABELS
7
STANDARD
10
348.0000
20
-368.0000
30
0.0
40
4.0
1
PERIMETER 379.52'   VERTICES 4   CLOSING SIDE 0.00'
50
0.0
0
TEXT
8
SHEET_LABELS
7
STANDARD
10
348.0000
20
-375.0000
30
0.0
40
3.4
1
all geometric checks passed: closed single polyline, no self-intersection, no overlap, no spikes
50
0.0
0
LINE
8
SHEET_FRAME
10
680.0000
20
-600.0000
30
0.0
11
980.0000
21
-600.0000
31
0.0
0
LINE
8
SHEET_FRAME
10
980.0000
20
-600.0000
30
0.0
11
980.0000
21
-340.0000
31
0.0
0
LINE
8
SHEET_FRAME
10
980.0000
20
-340.0000
30
0.0
11
680.0000
21
-340.0000
31
0.0
0
LINE
8
SHEET_FRAME
10
680.0000
20
-340.0000
30
0.0
11
680.0000
21
-600.0000
31
0.0
0
POLYLINE
8
LOT_POLYLINE
66
1
70
1
0
VERTEX
8
LOT_POLYLINE
10
712.6290
20
-564.9072
30
0.0
0
VERTEX
8
LOT_POLYLINE
10
846.7893
20
-574.0000
30
0.0
0
VERTEX
8
LOT_POLYLINE
10
879.3769
20
-400.0000
30
0.0
0
VERTEX
8
LOT_POLYLINE
10
706.0000
20
-407.2919
30
0.0
0
SEQEND
0
POLYLINE
8
LOT_POLYLINE
66
1
70
0
0
VERTEX
8
LOT_POLYLINE
10
712.6290
20
-564.9072
30
0.0
0
VERTEX
8
LOT_POLYLINE
10
721.0449
20
-564.6111
30
0.0
0
VERTEX
8
LOT_POLYLINE
10
729.4640
20
-564.4303
30
0.0
0
VERTEX
8
LOT_POLYLINE
10
737.8848
20
-564.3651
30
0.0
0
VERTEX
8
LOT_POLYLINE
10
746.3057
20
-564.4153
30
0.0
0
VERTEX
8
LOT_POLYLINE
10
754.7252
20
-564.5810
30
0.0
0
VERTEX
8
LOT_POLYLINE
10
763.1415
20
-564.8621
30
0.0
0
VERTEX
8
LOT_POLYLINE
10
771.5533
20
-565.2586
30
0.0
0
VERTEX
8
LOT_POLYLINE
10
779.9588
20
-565.7704
30
0.0
0
VERTEX
8
LOT_POLYLINE
10
788.3565
20
-566.3974
30
0.0
0
VERTEX
8
LOT_POLYLINE
10
796.7448
20
-567.1396
30
0.0
0
VERTEX
8
LOT_POLYLINE
10
805.1221
20
-567.9966
30
0.0
0
VERTEX
8
LOT_POLYLINE
10
813.4869
20
-568.9685
30
0.0
0
VERTEX
8
LOT_POLYLINE
10
821.8376
20
-570.0550
30
0.0
0
VERTEX
8
LOT_POLYLINE
10
830.1726
20
-571.2559
30
0.0
0
VERTEX
8
LOT_POLYLINE
10
838.4903
20
-572.5710
30
0.0
0
VERTEX
8
LOT_POLYLINE
10
846.7893
20
-574.0000
30
0.0
0
SEQEND
0
TEXT
8
SHEET_LABELS
6
ROT_356.12
7
STANDARD
10
779.9120
20
-566.4605
30
0.0
40
3.4
1
S86%%d07'21.67"E
50
356.12
0
TEXT
8
SHEET_LABELS
6
ROT_356.12
7
STANDARD
10
779.5063
20
-572.4468
30
0.0
40
3.2
1
85.24'
50
356.12
0
POINT
8
SHEET_LABELS
10
712.6290
20
-564.9072
30
0.0
0
TEXT
8
SHEET_LABELS
6
ROT_79.39
7
STANDARD
10
866.0318
20
-487.5523
30
0.0
40
3.4
1
N10%%d36'27.92"E
50
79.39
0
TEXT
8
SHEET_LABELS
6
ROT_79.39
7
STANDARD
10
860.1343
20
-486.4477
30
0.0
40
3.2
1
112.22'
50
79.39
0
POINT
8
SHEET_LABELS
10
846.7893
20
-574.0000
30
0.0
0
TEXT
8
SHEET_LABELS
6
ROT_2.41
7
STANDARD
10
792.8145
20
-406.6433
30
0.0
40
3.4
1
S87%%d35'30.00"W
50
2.41
0
TEXT
8
SHEET_LABELS
6
ROT_2.41
7
STANDARD
10
792.5624
20
-400.6486
30
0.0
40
3.2
1
110.00'
50
2.41
0
POINT
8
SHEET_LABELS
10
879.3769
20
-400.0000
30
0.0
0
TEXT
8
SHEET_LABELS
6
ROT_272.41
7
STANDARD
10
712.3119
20
-485.9735
30
0.0
40
3.4
1
S02%%d24'30.00"E
50
272.41
0
TEXT
8
SHEET_LABELS
6
ROT_272.41
7
STANDARD
10
706.3172
20
-486.2256
30
0.0
40
3.2
1
100.00'
50
272.41
0
POINT
8
SHEET_LABELS
10
706.0000
20
-407.2919
30
0.0
0
TEXT
8
SHEET_LABELS
7
STANDARD
10
688.0000
20
-350.0000
30
0.0
40
8.0
1
LOT Blk 16 - Lot 31   PASS
50
0.0
0
TEXT
8
SHEET_LABELS
7
STANDARD
10
688.0000
20
-361.0000
30
0.0
40
4.6
1
AREA 10,383 SF (0.238 ac)
50
0.0
0
TEXT
8
SHEET_LABELS
7
STANDARD
10
688.0000
20
-368.0000
30
0.0
40
4.0
1
PERIMETER 407.63'   VERTICES 4   CLOSING SIDE 0.00'
50
0.0
0
TEXT
8
SHEET_LABELS
7
STANDARD
10
688.0000
20
-375.0000
30
0.0
40
3.4
1
all geometric checks passed: closed single polyline, no self-intersection, no overlap, no spikes
50
0.0
0
LINE
8
SHEET_FRAME
10
1020.0000
20
-600.0000
30
0.0
11
1320.0000
21
-600.0000
31
0.0
0
LINE
8
SHEET_FRAME
10
1320.0000
20
-600.0000
30
0.0
11
1320.0000
21
-340.0000
31
0.0
0
LINE
8
SHEET_FRAME
10
1320.0000
20
-340.0000
30
0.0
11
1020.0000
21
-340.0000
31
0.0
0
LINE
8
SHEET_FRAME
10
1020.0000
20
-340.0000
30
0.0
11
1020.0000
21
-600.0000
31
0.0
0
POLYLINE
8
LOT_POLYLINE
66
1
70
1
0
VERTEX
8
LOT_POLYLINE
10
1046.0000
20
-543.7990
30
0.0
0
VERTEX
8
LOT_POLYLINE
10
1148.2937
20
-574.0000
30
0.0
0
VERTEX
8
LOT_POLYLINE
10
1209.3690
20
-400.0000
30
0.0
0
VERTEX
8
LOT_POLYLINE
10
1071.8482
20
-405.7839
30
0.0
0
SEQEND
0
POLYLINE
8
LOT_POLYLINE
66
1
70
0
0
VERTEX
8
LOT_POLYLINE
10
1046.0000
20
-543.7990
30
0.0
0
VERTEX
8
LOT_POLYLINE
10
1052.5665
20
-545.0226
30
0.0
0
VERTEX
8
LOT_POLYLINE
10
1059.1155
20
-546.3362
30
0.0
0
VERTEX
8
LOT_POLYLINE
10
1065.6460
20
-547.7395
30
0.0
0
VERTEX
8
LOT_POLYLINE
10
1072.1566
20
-549.2321
30
0.0
0
VERTEX
8
LOT_POLYLINE
10
1078.6461
20
-550.8140
30
0.0
0
VERTEX
8
LOT_POLYLINE
10
1085.1133
20
-552.4846
30
0.0
0
VERTEX
8
LOT_POLYLINE
10
1091.5570
20
-554.2438
30
0.0
0
VERTEX
8
LOT_POLYLINE
10
1097.9760
20
-556.0911
30
0.0
0
VERTEX
8
LOT_POLYLINE
10
1104.3690
20
-558.0264
30
0.0
0
VERTEX
8
LOT_POLYLINE
10
1110.7349
20
-560.0491
30
0.0
0
VERTEX
8
LOT_POLYLINE
10
1117.0724
20
-562.1589
30
0.0
0
VERTEX
8
LOT_POLYLINE
10
1123.3805
20
-564.3554
30
0.0
0
VERTEX
8
LOT_POLYLINE
10
1129.6578
20
-566.6382
30
0.0
0
VERTEX
8
LOT_POLYLINE
10
1135.9032
20
-569.0069
30
0.0
0
VERTEX
8
LOT_POLYLINE
10
1142.1155
20
-571.4610
30
0.0
0
VERTEX
8
LOT_POLYLINE
10
1148.2937
20
-574.0000
30
0.0
0
SEQEND
0
TEXT
8
SHEET_LABELS
6
ROT_343.55
7
STANDARD
10
1097.9963
20
-556.0223
30
0.0
40
3.4
1
S73%%d33'05.00"E
50
343.55
0
TEXT
8
SHEET_LABELS
6
ROT_343.55
7
STANDARD
10
1096.2974
20
-561.7767
30
0.0
40
3.2
1
85.24'
50
343.55
0
POINT
8
SHEET_LABELS
10
1046.0000
20
-543.7990
30
0.0
0
TEXT
8
SHEET_LABELS
6
ROT_70.66
7
STANDARD
10
1181.6620
20
-487.9936
30
0.0
40
3.4
1
N19%%d20'29.31"E
50
70.66
0
TEXT
8
SHEET_LABELS
6
ROT_70.66
7
STANDARD
10
1176.0007
20
-486.0064
30
0.0
40
3.2
1
147.37'
50
70.66
0
POINT
8
SHEET_LABELS
10
1148.2937
20
-574.0000
30
0.0
0
TEXT
8
SHEET_LABELS
6
ROT_2.41
7
STANDARD
10
1140.7347
20
-405.8893
30
0.0
40
3.4
1
S87%%d35'30.00"W
50
2.41
0
TEXT
8
SHEET_LABELS
6
ROT_2.41
7
STANDARD
10
1140.4825
20
-399.8946
30
0.0
40
3.2
1
110.00'
50
2.41
0
POINT
8
SHEET_LABELS
10
1209.3690
20
-400.0000
30
0.0
0
TEXT
8
SHEET_LABELS
6
ROT_79.39
7
STANDARD
10
1061.8728
20
-475.3437
30
0.0
40
3.4
1
S10%%d36'27.92"W
50
79.39
0
TEXT
8
SHEET_LABELS
6
ROT_79.39
7
STANDARD
10
1055.9754
20
-474.2392
30
0.0
40
3.2
1
112.22'
50
79.39
0
POINT
8
SHEET_LABELS
10
1071.8482
20
-405.7839
30
0.0
0
TEXT
8
SHEET_LABELS
7
STANDARD
10
1028.0000
20
-350.0000
30
0.0
40
8.0
1
LOT Blk 16 - Lot 30   PASS
50
0.0
0
TEXT
8
SHEET_LABELS
7
STANDARD
10
1028.0000
20
-361.0000
30
0.0
40
4.6
1
AREA 12,419 SF (0.285 ac)
50
0.0
0
TEXT
8
SHEET_LABELS
7
STANDARD
10
1028.0000
20
-368.0000
30
0.0
40
4.0
1
PERIMETER 455.00'   VERTICES 4   CLOSING SIDE 0.00'
50
0.0
0
TEXT
8
SHEET_LABELS
7
STANDARD
10
1028.0000
20
-375.0000
30
0.0
40
3.4
1
all geometric checks passed: closed single polyline, no self-intersection, no overlap, no spikes
50
0.0
0
LINE
8
SHEET_FRAME
10
0.0000
20
-900.0000
30
0.0
11
300.0000
21
-900.0000
31
0.0
0
LINE
8
SHEET_FRAME
10
300.0000
20
-900.0000
30
0.0
11
300.0000
21
-640.0000
31
0.0
0
LINE
8
SHEET_FRAME
10
300.0000
20
-640.0000
30
0.0
11
0.0000
21
-640.0000
31
0.0
0
LINE
8
SHEET_FRAME
10
0.0000
20
-640.0000
30
0.0
11
0.0000
21
-900.0000
31
0.0
0
POLYLINE
8
LOT_POLYLINE
66
1
70
1
0
VERTEX
8
LOT_POLYLINE
10
26.0000
20
-830.7912
30
0.0
0
VERTEX
8
LOT_POLYLINE
10
96.1070
20
-869.6840
30
0.0
0
VERTEX
8
LOT_POLYLINE
10
128.8861
20
-864.0842
30
0.0
0
VERTEX
8
LOT_POLYLINE
10
161.9208
20
-828.4153
30
0.0
0
VERTEX
8
LOT_POLYLINE
10
71.9087
20
-700.0000
30
0.0
0
SEQEND
0
POLYLINE
8
LOT_POLYLINE
66
1
70
0
0
VERTEX
8
LOT_POLYLINE
10
26.0000
20
-830.7912
30
0.0
0
VERTEX
8
LOT_POLYLINE
10
30.6173
20
-832.7632
30
0.0
0
VERTEX
8
LOT_POLYLINE
10
35.2072
20
-834.7984
30
0.0
0
VERTEX
8
LOT_POLYLINE
10
39.7687
20
-836.8963
30
0.0
0
VERTEX
8
LOT_POLYLINE
10
44.3010
20
-839.0566
30
0.0
0
VERTEX
8
LOT_POLYLINE
10
48.8032
20
-841.2788
30
0.0
0
VERTEX
8
LOT_POLYLINE
10
53.2746
20
-843.5625
30
0.0
0
VERTEX
8
LOT_POLYLINE
10
57.7142
20
-845.9074
30
0.0
0
VERTEX
8
LOT_POLYLINE
10
62.1213
20
-848.3129
30
0.0
0
VERTEX
8
LOT_POLYLINE
10
66.4949
20
-850.7786
30
0.0
0
VERTEX
8
LOT_POLYLINE
10
70.8343
20
-853.3040
30
0.0
0
VERTEX
8
LOT_POLYLINE
10
75.1387
20
-855.8888
30
0.0
0
VERTEX
8
LOT_POLYLINE
10
79.4073
20
-858.5323
30
0.0
0
VERTEX
8
LOT_POLYLINE
10
83.6392
20
-861.2340
30
0.0
0
VERTEX
8
LOT_POLYLINE
10
87.8336
20
-863.9936
30
0.0
0
VERTEX
8
LOT_POLYLINE
10
91.9898
20
-866.8104
30
0.0
0
VERTEX
8
LOT_POLYLINE
10
96.1070
20
-869.6840
30
0.0
0
SEQEND
0
POLYLINE
8
LOT_POLYLINE
66
1
70
0
0
VERTEX
8
LOT_POLYLINE
10
96.1070
20
-869.6840
30
0.0
0
VERTEX
8
LOT_POLYLINE
10
98.0533
20
-870.9236
30
0.0
0
VERTEX
8
LOT_POLYLINE
10
100.1118
20
-871.9665
30
0.0
0
VERTEX
8
LOT_POLYLINE
10
102.2626
20
-872.8026
30
0.0
0
VERTEX
8
LOT_POLYLINE
10
104.4849
20
-873.4238
30
0.0
0
VERTEX
8
LOT_POLYLINE
10
106.7575
20
-873.8242
30
0.0
0
VERTEX
8
LOT_POLYLINE
10
109.0584
20
-874.0000
30
0.0
0
VERTEX
8
LOT_POLYLINE
10
111.3654
20
-873.9494
30
0.0
0
VERTEX
8
LOT_POLYLINE
10
113.6563
20
-873.6729
30
0.0
0
VERTEX
8
LOT_POLYLINE
10
115.9091
20
-873.1732
30
0.0
0
VERTEX
8
LOT_POLYLINE
10
118.1021
20
-872.4550
30
0.0
0
VERTEX
8
LOT_POLYLINE
10
120.2141
20
-871.5254
30
0.0
0
VERTEX
8
LOT_POLYLINE
10
122.2249
20
-870.3932
30
0.0
0
VERTEX
8
LOT_POLYLINE
10
124.1150
20
-869.0695
30
0.0
0
VERTEX
8
LOT_POLYLINE
10
125.8662
20
-867.5668
30
0.0
0
VERTEX
8
LOT_POLYLINE
10
127.4617
20
-865.8997
30
0.0
0
VERTEX
8
LOT_POLYLINE
10
128.8861
20
-864.0842
30
0.0
0
SEQEND
0
TEXT
8
SHEET_LABELS
6
ROT_330.98
7
STANDARD
10
62.5088
20
-847.6142
30
0.0
40
3.4
1
S60%%d58'48.33"E
50
330.98
0
TEXT
8
SHEET_LABELS
6
ROT_330.98
7
STANDARD
10
59.5982
20
-852.8609
30
0.0
40
3.2
1
85.24'
50
330.98
0
POINT
8
SHEET_LABELS
10
26.0000
20
-830.7912
30
0.0
0
TEXT
8
SHEET_LABELS
6
ROT_9.69
7
STANDARD
10
113.0017
20
-869.8413
30
0.0
40
3.4
1
N80%%d18'20.00"E
50
9.69
0
TEXT
8
SHEET_LABELS
6
ROT_9.69
7
STANDARD
10
111.9914
20
-863.9269
30
0.0
40
3.2
1
35.36'
50
9.69
0
POINT
8
SHEET_LABELS
10
96.1070
20
-869.6840
30
0.0
0
TEXT
8
SHEET_LABELS
6
ROT_47.20
7
STANDARD
10
147.6045
20
-848.2882
30
0.0
40
3.4
1
N42%%d48'15.10"E
50
47.2
0
TEXT
8
SHEET_LABELS
6
ROT_47.20
7
STANDARD
10
143.2024
20
-844.2113
30
0.0
40
3.2
1
51.69'
50
47.2
0
POINT
8
SHEET_LABELS
10
128.8861
20
-864.0842
30
0.0
0
TEXT
8
SHEET_LABELS
6
ROT_305.03
7
STANDARD
10
119.3714
20
-762.4857
30
0.0
40
3.4
1
N35%%d01'42.00"W
50
305.03
0
TEXT
8
SHEET_LABELS
6
ROT_305.03
7
STANDARD
10
114.4581
20
-765.9296
30
0.0
40
3.2
1
166.73'
50
305.03
0
POINT
8
SHEET_LABELS
10
161.9208
20
-828.4153
30
0.0
0
TEXT
8
SHEET_LABELS
6
ROT_70.66
7
STANDARD
10
51.7851
20
-766.3892
30
0.0
40
3.4
1
S19%%d20'29.31"W
50
70.66
0
TEXT
8
SHEET_LABELS
6
ROT_70.66
7
STANDARD
10
46.1237
20
-764.4020
30
0.0
40
3.2
1
147.37'
50
70.66
0
POINT
8
SHEET_LABELS
10
71.9087
20
-700.0000
30
0.0
0
TEXT
8
SHEET_LABELS
7
STANDARD
10
8.0000
20
-650.0000
30
0.0
40
8.0
1
LOT Blk 16 - Lot 29   PASS
50
0.0
0
TEXT
8
SHEET_LABELS
7
STANDARD
10
8.0000
20
-661.0000
30
0.0
40
4.6
1
AREA 13,579 SF (0.312 ac)
50
0.0
0
TEXT
8
SHEET_LABELS
7
STANDARD
10
8.0000
20
-668.0000
30
0.0
40
4.0
1
PERIMETER 490.47'   VERTICES 5   CLOSING SIDE 0.00'
50
0.0
0
TEXT
8
SHEET_LABELS
7
STANDARD
10
8.0000
20
-675.0000
30
0.0
40
3.4
1
all geometric checks passed: closed single polyline, no self-intersection, no overlap, no spikes
50
0.0
0
LINE
8
SHEET_FRAME
10
340.0000
20
-900.0000
30
0.0
11
640.0000
21
-900.0000
31
0.0
0
LINE
8
SHEET_FRAME
10
640.0000
20
-900.0000
30
0.0
11
640.0000
21
-640.0000
31
0.0
0
LINE
8
SHEET_FRAME
10
640.0000
20
-640.0000
30
0.0
11
340.0000
21
-640.0000
31
0.0
0
LINE
8
SHEET_FRAME
10
340.0000
20
-640.0000
30
0.0
11
340.0000
21
-900.0000
31
0.0
0
POLYLINE
8
LOT_POLYLINE
66
1
70
1
0
VERTEX
8
LOT_POLYLINE
10
483.9704
20
-874.0000
30
0.0
0
VERTEX
8
LOT_POLYLINE
10
557.5903
20
-832.0077
30
0.0
0
VERTEX
8
LOT_POLYLINE
10
501.4785
20
-700.0000
30
0.0
0
VERTEX
8
LOT_POLYLINE
10
366.0000
20
-705.6980
30
0.0
0
SEQEND
0
POLYLINE
8
LOT_POLYLINE
66
1
70
0
0
VERTEX
8
LOT_POLYLINE
10
483.9704
20
-874.0000
30
0.0
0
VERTEX
8
LOT_POLYLINE
10
488.0104
20
-870.5161
30
0.0
0
VERTEX
8
LOT_POLYLINE
10
492.1388
20
-867.1375
30
0.0
0
VERTEX
8
LOT_POLYLINE
10
496.3528
20
-863.8663
30
0.0
0
VERTEX
8
LOT_POLYLINE
10
500.6498
20
-860.7048
30
0.0
0
VERTEX
8
LOT_POLYLINE
10
505.0268
20
-857.6551
30
0.0
0
VERTEX
8
LOT_POLYLINE
10
509.4809
20
-854.7191
30
0.0
0
VERTEX
8
LOT_POLYLINE
10
514.0091
20
-851.8989
30
0.0
0
VERTEX
8
LOT_POLYLINE
10
518.6085
20
-849.1963
30
0.0
0
VERTEX
8
LOT_POLYLINE
10
523.2761
20
-846.6131
30
0.0
0
VERTEX
8
LOT_POLYLINE
10
528.0086
20
-844.1510
30
0.0
0
VERTEX
8
LOT_POLYLINE
10
532.8030
20
-841.8117
30
0.0
0
VERTEX
8
LOT_POLYLINE
10
537.6561
20
-839.5966
30
0.0
0
VERTEX
8
LOT_POLYLINE
10
542.5646
20
-837.5074
30
0.0
0
VERTEX
8
LOT_POLYLINE
10
547.5254
20
-835.5453
30
0.0
0
VERTEX
8
LOT_POLYLINE
10
552.5350
20
-833.7116
30
0.0
0
VERTEX
8
LOT_POLYLINE
10
557.5903
20
-832.0077
30
0.0
0
SEQEND
0
TEXT
8
SHEET_LABELS
6
ROT_29.70
7
STANDARD
10
522.2667
20
-855.6097
30
0.0
40
3.4
1
N60%%d17'59.38"E
50
29.7
0
TEXT
8
SHEET_LABELS
6
ROT_29.70
7
STANDARD
10
519.2940
20
-850.3980
30
0.0
40
3.2
1
68.75'
50
29.7
0
POINT
8
SHEET_LABELS
10
483.9704
20
-874.0000
30
0.0
0
TEXT
8
SHEET_LABELS
6
ROT_293.03
7
STANDARD
10
532.2953
20
-764.8303
30
0.0
40
3.4
1
N23%%d01'43.00"W
50
293.03
0
TEXT
8
SHEET_LABELS
6
ROT_293.03
7
STANDARD
10
526.7735
20
-767.1774
30
0.0
40
3.2
1
116.36'
50
293.03
0
POINT
8
SHEET_LABELS
10
557.5903
20
-832.0077
30
0.0
0
TEXT
8
SHEET_LABELS
6
ROT_2.41
7
STANDARD
10
433.8653
20
-705.8463
30
0.0
40
3.4
1
S87%%d35'30.00"W
50
2.41
0
TEXT
8
SHEET_LABELS
6
ROT_2.41
7
STANDARD
10
433.6132
20
-699.8516
30
0.0
40
3.2
1
110.00'
50
2.41
0
POINT
8
SHEET_LABELS
10
501.4785
20
-700.0000
30
0.0
0
TEXT
8
SHEET_LABELS
6
ROT_305.03
7
STANDARD
10
427.4418
20
-788.1270
30
0.0
40
3.4
1
S35%%d01'42.00"E
50
305.03
0
TEXT
8
SHEET_LABELS
6
ROT_305.03
7
STANDARD
10
422.5286
20
-791.5709
30
0.0
40
3.2
1
166.73'
50
305.03
0
POINT
8
SHEET_LABELS
10
366.0000
20
-705.6980
30
0.0
0
TEXT
8
SHEET_LABELS
7
STANDARD
10
348.0000
20
-650.0000
30
0.0
40
8.0
1
LOT Blk 16 - Lot 28   PASS
50
0.0
0
TEXT
8
SHEET_LABELS
7
STANDARD
10
348.0000
20
-661.0000
30
0.0
40
4.6
1
AREA 11,860 SF (0.272 ac)
50
0.0
0
TEXT
8
SHEET_LABELS
7
STANDARD
10
348.0000
20
-668.0000
30
0.0
40
4.0
1
PERIMETER 462.33'   VERTICES 4   CLOSING SIDE 0.00'
50
0.0
0
TEXT
8
SHEET_LABELS
7
STANDARD
10
348.0000
20
-675.0000
30
0.0
40
3.4
1
all geometric checks passed: closed single polyline, no self-intersection, no overlap, no spikes
50
0.0
0
ENDSEC
0
EOF
