0
SECTION
2
HEADER
0
ENDSEC
0
SECTION
2
TABLES
0
TABLE
2
LTYPE
70
2
0
LTYPE
2
CONTINUOUS
70
0
3
Solid
72
65
73
0
40
0.0
0
LTYPE
2
DASHED
70
0
3
Dashed
72
65
73
2
40
0.75
49
0.5
74
0
49
-0.25
74
0
0
ENDTAB
0
TABLE
2
LAYER
70
8
0
LAYER
2
0
70
0
62
7
6
CONTINUOUS
0
LAYER
2
LOT_LINE
70
0
62
4
6
CONTINUOUS
0
LAYER
2
TEXT-LABELS
70
0
62
7
6
CONTINUOUS
0
LAYER
2
BLOCK_TITLE
70
0
62
2
6
CONTINUOUS
0
LAYER
2
ROW_STREET
70
0
62
8
6
DASHED
0
LAYER
2
ROAD_NAME
70
0
62
2
6
CONTINUOUS
0
LAYER
2
EASEMENT
70
0
62
3
6
DASHED
0
LAYER
2
DIM-LABELS
70
0
62
7
6
CONTINUOUS
0
ENDTAB
0
ENDSEC
0
SECTION
2
ENTITIES
0
TEXT
8
BLOCK_TITLE
10
0.0000
20
40.0000
30
0.0
40
10
1
BLOCK A -- Sheet 3, Lots 1-8 (local coords)
50
0.0
0
LINE
8
LOT_LINE
10
0.0000
20
0.0000
30
0.0
11
79.9956
21
0.8428
31
0.0
0
TEXT
8
DIM-LABELS
10
40.0104
20
-0.7785
30
0.0
40
2.2
1
N89°23'47.00"E  80.00'
50
0.0
0
LINE
8
LOT_LINE
10
79.9956
20
0.8428
30
0.0
11
81.3651
21
-129.1500
31
0.0
0
TEXT
8
DIM-LABELS
10
79.4804
20
-64.1663
30
0.0
40
2.2
1
S00°36'13.00"E  130.00'
50
0.0
0
LINE
8
LOT_LINE
10
81.3651
20
-129.1500
30
0.0
11
1.3695
21
-129.9928
31
0.0
0
TEXT
8
DIM-LABELS
10
41.3547
20
-128.3715
30
0.0
40
2.2
1
S89°23'47.00"W  80.00'
50
0.0
0
LINE
8
LOT_LINE
10
1.3695
20
-129.9928
30
0.0
11
0.0000
21
0.0000
31
0.0
0
TEXT
8
DIM-LABELS
10
1.8847
20
-64.9838
30
0.0
40
2.2
1
N00°36'13.00"W  130.00'
50
0.0
0
TEXT
8
TEXT-LABELS
10
30.6825
20
-68.5750
30
0.0
40
6
1
LOT 8
50
0.0
0
TEXT
8
TEXT-LABELS
10
30.6825
20
-76.5750
30
0.0
40
4
1
10,400 sf
50
0.0
0
LINE
8
LOT_LINE
10
79.9956
20
0.8428
30
0.0
11
159.9911
21
1.6856
31
0.0
0
TEXT
8
DIM-LABELS
10
120.0060
20
0.0642
30
0.0
40
2.2
1
N89°23'47.00"E  80.00'
50
0.0
0
LINE
8
LOT_LINE
10
159.9911
20
1.6856
30
0.0
11
161.3606
21
-128.3072
31
0.0
0
TEXT
8
DIM-LABELS
10
159.4760
20
-63.3235
30
0.0
40
2.2
1
S00°36'13.00"E  130.00'
50
0.0
0
LINE
8
LOT_LINE
10
161.3606
20
-128.3072
30
0.0
11
81.3651
21
-129.1500
31
0.0
0
TEXT
8
DIM-LABELS
10
121.3502
20
-127.5287
30
0.0
40
2.2
1
S89°23'47.00"W  80.00'
50
0.0
0
LINE
8
LOT_LINE
10
81.3651
20
-129.1500
30
0.0
11
79.9956
21
0.8428
31
0.0
0
TEXT
8
DIM-LABELS
10
81.8803
20
-64.1410
30
0.0
40
2.2
1
N00°36'13.00"W  130.00'
50
0.0
0
TEXT
8
TEXT-LABELS
10
110.6781
20
-67.7322
30
0.0
40
6
1
LOT 7
50
0.0
0
TEXT
8
TEXT-LABELS
10
110.6781
20
-75.7322
30
0.0
40
4
1
10,400 sf
50
0.0
0
LINE
8
LOT_LINE
10
159.9911
20
1.6856
30
0.0
11
239.9867
21
2.5284
31
0.0
0
TEXT
8
DIM-LABELS
10
200.0015
20
0.9070
30
0.0
40
2.2
1
N89°23'47.00"E  80.00'
50
0.0
0
LINE
8
LOT_LINE
10
239.9867
20
2.5284
30
0.0
11
241.3562
21
-127.4644
31
0.0
0
TEXT
8
DIM-LABELS
10
239.4715
20
-62.4807
30
0.0
40
2.2
1
S00°36'13.00"E  130.00'
50
0.0
0
LINE
8
LOT_LINE
10
241.3562
20
-127.4644
30
0.0
11
161.3606
21
-128.3072
31
0.0
0
TEXT
8
DIM-LABELS
10
201.3458
20
-126.6859
30
0.0
40
2.2
1
S89°23'47.00"W  80.00'
50
0.0
0
LINE
8
LOT_LINE
10
161.3606
20
-128.3072
30
0.0
11
159.9911
21
1.6856
31
0.0
0
TEXT
8
DIM-LABELS
10
161.8758
20
-63.2982
30
0.0
40
2.2
1
N00°36'13.00"W  130.00'
50
0.0
0
TEXT
8
TEXT-LABELS
10
190.6737
20
-66.8894
30
0.0
40
6
1
LOT 6
50
0.0
0
TEXT
8
TEXT-LABELS
10
190.6737
20
-74.8894
30
0.0
40
4
1
10,400 sf
50
0.0
0
LINE
8
LOT_LINE
10
239.9867
20
2.5284
30
0.0
11
319.9822
21
3.3711
31
0.0
0
TEXT
8
DIM-LABELS
10
279.9971
20
1.7498
30
0.0
40
2.2
1
N89°23'47.00"E  80.00'
50
0.0
0
LINE
8
LOT_LINE
10
319.9822
20
3.3711
30
0.0
11
321.3518
21
-126.6216
31
0.0
0
TEXT
8
DIM-LABELS
10
319.4671
20
-61.6379
30
0.0
40
2.2
1
S00°36'13.00"E  130.00'
50
0.0
0
LINE
8
LOT_LINE
10
321.3518
20
-126.6216
30
0.0
11
241.3562
21
-127.4644
31
0.0
0
TEXT
8
DIM-LABELS
10
281.3413
20
-125.8431
30
0.0
40
2.2
1
S89°23'47.00"W  80.00'
50
0.0
0
LINE
8
LOT_LINE
10
241.3562
20
-127.4644
30
0.0
11
239.9867
21
2.5284
31
0.0
0
TEXT
8
DIM-LABELS
10
241.8714
20
-62.4554
30
0.0
40
2.2
1
N00°36'13.00"W  130.00'
50
0.0
0
TEXT
8
TEXT-LABELS
10
270.6692
20
-66.0466
30
0.0
40
6
1
LOT 5
50
0.0
0
TEXT
8
TEXT-LABELS
10
270.6692
20
-74.0466
30
0.0
40
4
1
10,400 sf
50
0.0
0
LINE
8
LOT_LINE
10
319.9822
20
3.3711
30
0.0
11
399.9778
21
4.2139
31
0.0
0
TEXT
8
DIM-LABELS
10
359.9927
20
2.5926
30
0.0
40
2.2
1
N89°23'47.00"E  80.00'
50
0.0
0
LINE
8
LOT_LINE
10
399.9778
20
4.2139
30
0.0
11
401.3473
21
-125.7789
31
0.0
0
TEXT
8
DIM-LABELS
10
399.4626
20
-60.7951
30
0.0
40
2.2
1
S00°36'13.00"E  130.00'
50
0.0
0
LINE
8
LOT_LINE
10
401.3473
20
-125.7789
30
0.0
11
321.3518
21
-126.6216
31
0.0
0
TEXT
8
DIM-LABELS
10
361.3369
20
-125.0003
30
0.0
40
2.2
1
S89°23'47.00"W  80.00'
50
0.0
0
LINE
8
LOT_LINE
10
321.3518
20
-126.6216
30
0.0
11
319.9822
21
3.3711
31
0.0
0
TEXT
8
DIM-LABELS
10
321.8669
20
-61.6126
30
0.0
40
2.2
1
N00°36'13.00"W  130.00'
50
0.0
0
TEXT
8
TEXT-LABELS
10
350.6648
20
-65.2039
30
0.0
40
6
1
LOT 4
50
0.0
0
TEXT
8
TEXT-LABELS
10
350.6648
20
-73.2039
30
0.0
40
4
1
10,400 sf
50
0.0
0
LINE
8
LOT_LINE
10
399.9778
20
4.2139
30
0.0
11
479.9734
21
5.0567
31
0.0
0
TEXT
8
DIM-LABELS
10
439.9882
20
3.4354
30
0.0
40
2.2
1
N89°23'47.00"E  80.00'
50
0.0
0
LINE
8
LOT_LINE
10
479.9734
20
5.0567
30
0.0
11
481.3429
21
-124.9361
31
0.0
0
TEXT
8
DIM-LABELS
10
479.4582
20
-59.9523
30
0.0
40
2.2
1
S00°36'13.00"E  130.00'
50
0.0
0
LINE
8
LOT_LINE
10
481.3429
20
-124.9361
30
0.0
11
401.3473
21
-125.7789
31
0.0
0
TEXT
8
DIM-LABELS
10
441.3325
20
-124.1575
30
0.0
40
2.2
1
S89°23'47.00"W  80.00'
50
0.0
0
LINE
8
LOT_LINE
10
401.3473
20
-125.7789
30
0.0
11
399.9778
21
4.2139
31
0.0
0
TEXT
8
DIM-LABELS
10
401.8625
20
-60.7698
30
0.0
40
2.2
1
N00°36'13.00"W  130.00'
50
0.0
0
TEXT
8
TEXT-LABELS
10
430.6603
20
-64.3611
30
0.0
40
6
1
LOT 3
50
0.0
0
TEXT
8
TEXT-LABELS
10
430.6603
20
-72.3611
30
0.0
40
4
1
10,400 sf
50
0.0
0
LINE
8
LOT_LINE
10
479.9734
20
5.0567
30
0.0
11
559.9689
21
5.8995
31
0.0
0
TEXT
8
DIM-LABELS
10
519.9838
20
4.2782
30
0.0
40
2.2
1
N89°23'47.00"E  80.00'
50
0.0
0
LINE
8
LOT_LINE
10
559.9689
20
5.8995
30
0.0
11
561.3384
21
-124.0933
31
0.0
0
TEXT
8
DIM-LABELS
10
559.4538
20
-59.1095
30
0.0
40
2.2
1
S00°36'13.00"E  130.00'
50
0.0
0
LINE
8
LOT_LINE
10
561.3384
20
-124.0933
30
0.0
11
481.3429
21
-124.9361
31
0.0
0
TEXT
8
DIM-LABELS
10
521.3280
20
-123.3148
30
0.0
40
2.2
1
S89°23'47.00"W  80.00'
50
0.0
0
LINE
8
LOT_LINE
10
481.3429
20
-124.9361
30
0.0
11
479.9734
21
5.0567
31
0.0
0
TEXT
8
DIM-LABELS
10
481.8581
20
-59.9270
30
0.0
40
2.2
1
N00°36'13.00"W  130.00'
50
0.0
0
TEXT
8
TEXT-LABELS
10
510.6559
20
-63.5183
30
0.0
40
6
1
LOT 2
50
0.0
0
TEXT
8
TEXT-LABELS
10
510.6559
20
-71.5183
30
0.0
40
4
1
10,400 sf
50
0.0
0
LINE
8
LOT_LINE
10
559.9689
20
5.8995
30
0.0
11
639.9645
21
6.7423
31
0.0
0
TEXT
8
DIM-LABELS
10
599.9793
20
5.1210
30
0.0
40
2.2
1
N89°23'47.00"E  80.00'
50
0.0
0
LINE
8
LOT_LINE
10
639.9645
20
6.7423
30
0.0
11
641.3340
21
-123.2505
31
0.0
0
TEXT
8
DIM-LABELS
10
639.4493
20
-58.2668
30
0.0
40
2.2
1
S00°36'13.00"E  130.00'
50
0.0
0
LINE
8
LOT_LINE
10
641.3340
20
-123.2505
30
0.0
11
561.3384
21
-124.0933
31
0.0
0
TEXT
8
DIM-LABELS
10
601.3236
20
-122.4720
30
0.0
40
2.2
1
S89°23'47.00"W  80.00'
50
0.0
0
LINE
8
LOT_LINE
10
561.3384
20
-124.0933
30
0.0
11
559.9689
21
5.8995
31
0.0
0
TEXT
8
DIM-LABELS
10
561.8536
20
-59.0843
30
0.0
40
2.2
1
N00°36'13.00"W  130.00'
50
0.0
0
TEXT
8
TEXT-LABELS
10
590.6515
20
-62.6755
30
0.0
40
6
1
LOT 1
50
0.0
0
TEXT
8
TEXT-LABELS
10
590.6515
20
-70.6755
30
0.0
40
4
1
10,400 sf
50
0.0
0
LINE
8
EASEMENT
10
-4.9997
20
-0.0527
30
0.0
11
-3.6302
21
-130.0455
31
0.0
0
LINE
8
EASEMENT
10
4.9997
20
0.0527
30
0.0
11
6.3692
21
-129.9401
31
0.0
0
TEXT
8
TEXT-LABELS
10
0.6848
20
-64.9964
30
0.0
40
2.0
1
10' CCUA/CEC EASEMENT
50
-0.6036111111111211
0
LINE
8
EASEMENT
10
74.9958
20
0.7901
30
0.0
11
76.3654
21
-129.2027
31
0.0
0
LINE
8
EASEMENT
10
84.9953
20
0.8955
30
0.0
11
86.3648
21
-129.0973
31
0.0
0
LINE
8
EASEMENT
10
154.9914
20
1.6329
30
0.0
11
156.3609
21
-128.3599
31
0.0
0
LINE
8
EASEMENT
10
164.9908
20
1.7382
30
0.0
11
166.3604
21
-128.2545
31
0.0
0
LINE
8
EASEMENT
10
234.9870
20
2.4757
30
0.0
11
236.3565
21
-127.5171
31
0.0
0
LINE
8
EASEMENT
10
244.9864
20
2.5810
30
0.0
11
246.3559
21
-127.4118
31
0.0
0
LINE
8
EASEMENT
10
314.9825
20
3.3185
30
0.0
11
316.3520
21
-126.6743
31
0.0
0
LINE
8
EASEMENT
10
324.9820
20
3.4238
30
0.0
11
326.3515
21
-126.5690
31
0.0
0
LINE
8
EASEMENT
10
394.9781
20
4.1612
30
0.0
11
396.3476
21
-125.8315
31
0.0
0
LINE
8
EASEMENT
10
404.9775
20
4.2666
30
0.0
11
406.3471
21
-125.7262
31
0.0
0
LINE
8
EASEMENT
10
474.9736
20
5.0040
30
0.0
11
476.3432
21
-124.9888
31
0.0
0
LINE
8
EASEMENT
10
484.9731
20
5.1094
30
0.0
11
486.3426
21
-124.8834
31
0.0
0
TEXT
8
ROAD_NAME
10
259.9822
20
9.3711
30
0.0
40
6
1
COPELAND WAY (60' PRIVATE R/W)
50
0.0
0
TEXT
8
ROAD_NAME
10
261.3518
20
-134.6216
30
0.0
40
6
1
TRACT E (BUFFER)
50
0.0
0
TEXT
8
BLOCK_TITLE
10
0.0000
20
1040.0000
30
0.0
40
10
1
BLOCK B -- Sheet 3, Murrell Loop lots 29-32, 37-40 (local coords)
50
0.0
0
LINE
8
LOT_LINE
10
0.0000
20
1000.0000
30
0.0
11
59.9967
21
1000.6321
31
0.0
0
TEXT
8
DIM-LABELS
10
30.0110
20
999.1161
30
0.0
40
2.2
1
N89°23'47.00"E  60.00'
50
0.0
0
LINE
8
LOT_LINE
10
59.9967
20
1000.6321
30
0.0
11
61.2608
21
880.6387
31
0.0
0
TEXT
8
DIM-LABELS
10
59.4288
20
940.6228
30
0.0
40
2.2
1
S00°36'13.00"E  120.00'
50
0.0
0
LINE
8
LOT_LINE
10
61.2608
20
880.6387
30
0.0
11
1.2642
21
880.0067
31
0.0
0
TEXT
8
DIM-LABELS
10
31.2499
20
881.5226
30
0.0
40
2.2
1
S89°23'47.00"W  60.00'
50
0.0
0
LINE
8
LOT_LINE
10
1.2642
20
880.0067
30
0.0
11
0.0000
21
1000.0000
31
0.0
0
TEXT
8
DIM-LABELS
10
1.8320
20
940.0160
30
0.0
40
2.2
1
N00°36'13.00"W  120.00'
50
0.0
0
TEXT
8
TEXT-LABELS
10
20.6304
20
936.3194
30
0.0
40
6
1
LOT 37
50
0.0
0
TEXT
8
TEXT-LABELS
10
20.6304
20
928.3194
30
0.0
40
4
1
7,200 sf
50
0.0
0
LINE
8
LOT_LINE
10
1.2642
20
880.0067
30
0.0
11
61.2608
21
880.6387
31
0.0
0
TEXT
8
DIM-LABELS
10
31.2752
20
879.1228
30
0.0
40
2.2
1
N89°23'47.00"E  60.00'
50
0.0
0
LINE
8
LOT_LINE
10
61.2608
20
880.6387
30
0.0
11
62.5250
21
760.6454
31
0.0
0
TEXT
8
DIM-LABELS
10
60.6930
20
820.6294
30
0.0
40
2.2
1
S00°36'13.00"E  120.00'
50
0.0
0
LINE
8
LOT_LINE
10
62.5250
20
760.6454
30
0.0
11
2.5284
21
760.0133
31
0.0
0
TEXT
8
DIM-LABELS
10
32.5140
20
761.5293
30
0.0
40
2.2
1
S89°23'47.00"W  60.00'
50
0.0
0
LINE
8
LOT_LINE
10
2.5284
20
760.0133
30
0.0
11
1.2642
21
880.0067
31
0.0
0
TEXT
8
DIM-LABELS
10
3.0962
20
820.0226
30
0.0
40
2.2
1
N00°36'13.00"W  120.00'
50
0.0
0
TEXT
8
TEXT-LABELS
10
21.8946
20
816.3260
30
0.0
40
6
1
LOT 38
50
0.0
0
TEXT
8
TEXT-LABELS
10
21.8946
20
808.3260
30
0.0
40
4
1
7,200 sf
50
0.0
0
LINE
8
LOT_LINE
10
2.5284
20
760.0133
30
0.0
11
62.5250
21
760.6454
31
0.0
0
TEXT
8
DIM-LABELS
10
32.5393
20
759.1294
30
0.0
40
2.2
1
N89°23'47.00"E  60.00'
50
0.0
0
LINE
8
LOT_LINE
10
62.5250
20
760.6454
30
0.0
11
63.7892
21
640.6521
31
0.0
0
TEXT
8
DIM-LABELS
10
61.9572
20
700.6361
30
0.0
40
2.2
1
S00°36'13.00"E  120.00'
50
0.0
0
LINE
8
LOT_LINE
10
63.7892
20
640.6521
30
0.0
11
3.7925
21
640.0200
31
0.0
0
TEXT
8
DIM-LABELS
10
33.7782
20
641.5360
30
0.0
40
2.2
1
S89°23'47.00"W  60.00'
50
0.0
0
LINE
8
LOT_LINE
10
3.7925
20
640.0200
30
0.0
11
2.5284
21
760.0133
31
0.0
0
TEXT
8
DIM-LABELS
10
4.3604
20
700.0293
30
0.0
40
2.2
1
N00°36'13.00"W  120.00'
50
0.0
0
TEXT
8
TEXT-LABELS
10
23.1588
20
696.3327
30
0.0
40
6
1
LOT 39
50
0.0
0
TEXT
8
TEXT-LABELS
10
23.1588
20
688.3327
30
0.0
40
4
1
7,200 sf
50
0.0
0
LINE
8
LOT_LINE
10
3.7925
20
640.0200
30
0.0
11
63.7892
21
640.6521
31
0.0
0
TEXT
8
DIM-LABELS
10
33.8035
20
639.1361
30
0.0
40
2.2
1
N89°23'47.00"E  60.00'
50
0.0
0
LINE
8
LOT_LINE
10
63.7892
20
640.6521
30
0.0
11
65.0534
21
520.6587
31
0.0
0
TEXT
8
DIM-LABELS
10
63.2214
20
580.6428
30
0.0
40
2.2
1
S00°36'13.00"E  120.00'
50
0.0
0
LINE
8
LOT_LINE
10
65.0534
20
520.6587
30
0.0
11
5.0567
21
520.0266
31
0.0
0
TEXT
8
DIM-LABELS
10
35.0424
20
521.5426
30
0.0
40
2.2
1
S89°23'47.00"W  60.00'
50
0.0
0
LINE
8
LOT_LINE
10
5.0567
20
520.0266
30
0.0
11
3.7925
21
640.0200
31
0.0
0
TEXT
8
DIM-LABELS
10
5.6246
20
580.0359
30
0.0
40
2.2
1
N00°36'13.00"W  120.00'
50
0.0
0
TEXT
8
TEXT-LABELS
10
24.4230
20
576.3394
30
0.0
40
6
1
LOT 40
50
0.0
0
TEXT
8
TEXT-LABELS
10
24.4230
20
568.3394
30
0.0
40
4
1
7,200 sf
50
0.0
0
LINE
8
LOT_LINE
10
119.9933
20
1001.2642
30
0.0
11
179.9900
21
1001.8963
31
0.0
0
TEXT
8
DIM-LABELS
10
150.0043
20
1000.3803
30
0.0
40
2.2
1
N89°23'47.00"E  60.00'
50
0.0
0
LINE
8
LOT_LINE
10
179.9900
20
1001.8963
30
0.0
11
181.2542
21
881.9029
31
0.0
0
TEXT
8
DIM-LABELS
10
179.4222
20
941.8870
30
0.0
40
2.2
1
S00°36'13.00"E  120.00'
50
0.0
0
LINE
8
LOT_LINE
10
181.2542
20
881.9029
30
0.0
11
121.2575
21
881.2708
31
0.0
0
TEXT
8
DIM-LABELS
10
151.2432
20
882.7868
30
0.0
40
2.2
1
S89°23'47.00"W  60.00'
50
0.0
0
LINE
8
LOT_LINE
10
121.2575
20
881.2708
30
0.0
11
119.9933
21
1001.2642
31
0.0
0
TEXT
8
DIM-LABELS
10
121.8254
20
941.2801
30
0.0
40
2.2
1
N00°36'13.00"W  120.00'
50
0.0
0
TEXT
8
TEXT-LABELS
10
140.6238
20
937.5836
30
0.0
40
6
1
LOT 32
50
0.0
0
TEXT
8
TEXT-LABELS
10
140.6238
20
929.5836
30
0.0
40
4
1
7,200 sf
50
0.0
0
LINE
8
LOT_LINE
10
121.2575
20
881.2708
30
0.0
11
181.2542
21
881.9029
31
0.0
0
TEXT
8
DIM-LABELS
10
151.2685
20
880.3869
30
0.0
40
2.2
1
N89°23'47.00"E  60.00'
50
0.0
0
LINE
8
LOT_LINE
10
181.2542
20
881.9029
30
0.0
11
182.5184
21
761.9096
31
0.0
0
TEXT
8
DIM-LABELS
10
180.6863
20
821.8936
30
0.0
40
2.2
1
S00°36'13.00"E  120.00'
50
0.0
0
LINE
8
LOT_LINE
10
182.5184
20
761.9096
30
0.0
11
122.5217
21
761.2775
31
0.0
0
TEXT
8
DIM-LABELS
10
152.5074
20
762.7935
30
0.0
40
2.2
1
S89°23'47.00"W  60.00'
50
0.0
0
LINE
8
LOT_LINE
10
122.5217
20
761.2775
30
0.0
11
121.2575
21
881.2708
31
0.0
0
TEXT
8
DIM-LABELS
10
123.0895
20
821.2868
30
0.0
40
2.2
1
N00°36'13.00"W  120.00'
50
0.0
0
TEXT
8
TEXT-LABELS
10
141.8879
20
817.5902
30
0.0
40
6
1
LOT 31
50
0.0
0
TEXT
8
TEXT-LABELS
10
141.8879
20
809.5902
30
0.0
40
4
1
7,200 sf
50
0.0
0
LINE
8
LOT_LINE
10
122.5217
20
761.2775
30
0.0
11
182.5184
21
761.9096
31
0.0
0
TEXT
8
DIM-LABELS
10
152.5327
20
760.3936
30
0.0
40
2.2
1
N89°23'47.00"E  60.00'
50
0.0
0
LINE
8
LOT_LINE
10
182.5184
20
761.9096
30
0.0
11
183.7825
21
641.9162
31
0.0
0
TEXT
8
DIM-LABELS
10
181.9505
20
701.9003
30
0.0
40
2.2
1
S00°36'13.00"E  120.00'
50
0.0
0
LINE
8
LOT_LINE
10
183.7825
20
641.9162
30
0.0
11
123.7859
21
641.2842
31
0.0
0
TEXT
8
DIM-LABELS
10
153.7716
20
642.8001
30
0.0
40
2.2
1
S89°23'47.00"W  60.00'
50
0.0
0
LINE
8
LOT_LINE
10
123.7859
20
641.2842
30
0.0
11
122.5217
21
761.2775
31
0.0
0
TEXT
8
DIM-LABELS
10
124.3537
20
701.2935
30
0.0
40
2.2
1
N00°36'13.00"W  120.00'
50
0.0
0
TEXT
8
TEXT-LABELS
10
143.1521
20
697.5969
30
0.0
40
6
1
LOT 30
50
0.0
0
TEXT
8
TEXT-LABELS
10
143.1521
20
689.5969
30
0.0
40
4
1
7,200 sf
50
0.0
0
LINE
8
LOT_LINE
10
123.7859
20
641.2842
30
0.0
11
183.7825
21
641.9162
31
0.0
0
TEXT
8
DIM-LABELS
10
153.7968
20
640.4003
30
0.0
40
2.2
1
N89°23'47.00"E  60.00'
50
0.0
0
LINE
8
LOT_LINE
10
183.7825
20
641.9162
30
0.0
11
185.0467
21
521.9229
31
0.0
0
TEXT
8
DIM-LABELS
10
183.2147
20
581.9069
30
0.0
40
2.2
1
S00°36'13.00"E  120.00'
50
0.0
0
LINE
8
LOT_LINE
10
185.0467
20
521.9229
30
0.0
11
125.0500
21
521.2908
31
0.0
0
TEXT
8
DIM-LABELS
10
155.0357
20
522.8068
30
0.0
40
2.2
1
S89°23'47.00"W  60.00'
50
0.0
0
LINE
8
LOT_LINE
10
125.0500
20
521.2908
30
0.0
11
123.7859
21
641.2842
31
0.0
0
TEXT
8
DIM-LABELS
10
125.6179
20
581.3001
30
0.0
40
2.2
1
N00°36'13.00"W  120.00'
50
0.0
0
TEXT
8
TEXT-LABELS
10
144.4163
20
577.6035
30
0.0
40
6
1
LOT 29
50
0.0
0
TEXT
8
TEXT-LABELS
10
144.4163
20
569.6035
30
0.0
40
4
1
7,200 sf
50
0.0
0
LINE
8
EASEMENT
10
1.3169
20
875.0069
30
0.0
11
61.3135
21
875.6390
31
0.0
0
LINE
8
EASEMENT
10
1.2115
20
885.0064
30
0.0
11
61.2082
21
885.6385
31
0.0
0
TEXT
8
TEXT-LABELS
10
31.2625
20
880.3227
30
0.0
40
2.0
1
10' CCUA/CEC EASEMENT
50
89.39638888888888
0
LINE
8
EASEMENT
10
2.5810
20
755.0136
30
0.0
11
62.5777
21
755.6457
31
0.0
0
LINE
8
EASEMENT
10
2.4757
20
765.0130
30
0.0
11
62.4723
21
765.6451
31
0.0
0
LINE
8
EASEMENT
10
3.8452
20
635.0203
30
0.0
11
63.8419
21
635.6523
31
0.0
0
LINE
8
EASEMENT
10
3.7399
20
645.0197
30
0.0
11
63.7365
21
645.6518
31
0.0
0
LINE
8
EASEMENT
10
121.3102
20
876.2711
30
0.0
11
181.3069
21
876.9032
31
0.0
0
LINE
8
EASEMENT
10
121.2048
20
886.2706
30
0.0
11
181.2015
21
886.9026
31
0.0
0
LINE
8
EASEMENT
10
122.5744
20
756.2778
30
0.0
11
182.5710
21
756.9099
31
0.0
0
LINE
8
EASEMENT
10
122.4690
20
766.2772
30
0.0
11
182.4657
21
766.9093
31
0.0
0
LINE
8
EASEMENT
10
123.8385
20
636.2844
30
0.0
11
183.8352
21
636.9165
31
0.0
0
LINE
8
EASEMENT
10
123.7332
20
646.2839
30
0.0
11
183.7299
21
646.9160
31
0.0
0
LINE
8
ROW_STREET
10
89.9950
20
1000.9481
30
0.0
11
95.0517
21
520.9748
31
0.0
0
TEXT
8
ROAD_NAME
10
89.9950
20
1005.9481
30
0.0
40
5
1
MURRELL LOOP (60' PRIVATE R/W, schematic C/L)
50
0.0
0
TEXT
8
BLOCK_TITLE
10
0.0000
20
2040.0000
30
0.0
40
10
1
BLOCK C -- Sheet 4, Lots 33-36 (local coords)
50
0.0
0
LINE
8
LOT_LINE
10
0.0000
20
2000.0000
30
0.0
11
64.9964
21
2000.6848
31
0.0
0
TEXT
8
DIM-LABELS
10
32.5108
20
1999.1424
30
0.0
40
2.2
1
N89°23'47.00"E  65.00'
50
0.0
0
LINE
8
LOT_LINE
10
64.9964
20
2000.6848
30
0.0
11
66.1939
21
1887.0211
31
0.0
0
TEXT
8
DIM-LABELS
10
64.3952
20
1943.8403
30
0.0
40
2.2
1
S00°36'13.00"E  113.67'
50
0.0
0
LINE
8
LOT_LINE
10
66.1939
20
1887.0211
30
0.0
11
1.1975
21
1886.3363
31
0.0
0
TEXT
8
DIM-LABELS
10
33.6830
20
1887.8786
30
0.0
40
2.2
1
S89°23'47.00"W  65.00'
50
0.0
0
LINE
8
LOT_LINE
10
1.1975
20
1886.3363
30
0.0
11
0.0000
21
2000.0000
31
0.0
0
TEXT
8
DIM-LABELS
10
1.7987
20
1943.1808
30
0.0
40
2.2
1
N00°36'13.00"W  113.67'
50
0.0
0
TEXT
8
TEXT-LABELS
10
23.0969
20
1939.5105
30
0.0
40
6
1
LOT 35
50
0.0
0
TEXT
8
TEXT-LABELS
10
23.0969
20
1931.5105
30
0.0
40
4
1
7,389 sf
50
0.0
0
LINE
8
LOT_LINE
10
64.9964
20
2000.6848
30
0.0
11
129.9928
21
2001.3695
31
0.0
0
TEXT
8
DIM-LABELS
10
97.5072
20
1999.8272
30
0.0
40
2.2
1
N89°23'47.00"E  65.00'
50
0.0
0
LINE
8
LOT_LINE
10
129.9928
20
2001.3695
30
0.0
11
131.1900
21
1887.7358
31
0.0
0
TEXT
8
DIM-LABELS
10
129.3914
20
1944.5400
30
0.0
40
2.2
1
S00°36'13.00"E  113.64'
50
0.0
0
LINE
8
LOT_LINE
10
131.1900
20
1887.7358
30
0.0
11
66.1936
21
1887.0511
31
0.0
0
TEXT
8
DIM-LABELS
10
98.6791
20
1888.5934
30
0.0
40
2.2
1
S89°23'47.00"W  65.00'
50
0.0
0
LINE
8
LOT_LINE
10
66.1936
20
1887.0511
30
0.0
11
64.9964
21
2000.6848
31
0.0
0
TEXT
8
DIM-LABELS
10
66.7949
20
1943.8806
30
0.0
40
2.2
1
N00°36'13.00"W  113.64'
50
0.0
0
TEXT
8
TEXT-LABELS
10
88.0932
20
1940.2103
30
0.0
40
6
1
LOT 34
50
0.0
0
TEXT
8
TEXT-LABELS
10
88.0932
20
1932.2103
30
0.0
40
4
1
7,387 sf
50
0.0
0
LINE
8
EASEMENT
10
59.9967
20
2000.6321
30
0.0
11
61.1942
21
1886.9684
31
0.0
0
LINE
8
EASEMENT
10
69.9961
20
2000.7374
30
0.0
11
71.1936
21
1887.0737
31
0.0
0
TEXT
8
TEXT-LABELS
10
65.5951
20
1943.8529
30
0.0
40
2.0
1
10' CCUA/CEC EASEMENT
50
-0.6036111111111211
0
LINE
8
LOT_LINE
10
1.1975
20
1886.3363
30
0.0
11
61.1942
21
1886.9684
31
0.0
0
TEXT
8
DIM-LABELS
10
31.2085
20
1885.4524
30
0.0
40
2.2
1
N89°23'47.00"E  60.00'
50
0.0
0
LINE
8
LOT_LINE
10
61.1942
20
1886.9684
30
0.0
11
62.4583
21
1766.9751
31
0.0
0
TEXT
8
DIM-LABELS
10
60.6263
20
1826.9591
30
0.0
40
2.2
1
S00°36'13.00"E  120.00'
50
0.0
0
LINE
8
LOT_LINE
10
62.4583
20
1766.9751
30
0.0
11
2.4617
21
1766.3430
31
0.0
0
TEXT
8
DIM-LABELS
10
32.4474
20
1767.8589
30
0.0
40
2.2
1
S89°23'47.00"W  60.00'
50
0.0
0
LINE
8
LOT_LINE
10
2.4617
20
1766.3430
30
0.0
11
1.1975
21
1886.3363
31
0.0
0
TEXT
8
DIM-LABELS
10
3.0295
20
1826.3523
30
0.0
40
2.2
1
N00°36'13.00"W  120.00'
50
0.0
0
TEXT
8
TEXT-LABELS
10
21.8279
20
1822.6557
30
0.0
40
6
1
LOT 36
50
0.0
0
TEXT
8
TEXT-LABELS
10
21.8279
20
1814.6557
30
0.0
40
4
1
7,200 sf
50
0.0
0
LINE
8
LOT_LINE
10
61.1942
20
1886.9684
30
0.0
11
121.1908
21
1887.6005
31
0.0
0
TEXT
8
DIM-LABELS
10
91.2051
20
1886.0845
30
0.0
40
2.2
1
N89°23'47.00"E  60.00'
50
0.0
0
LINE
8
LOT_LINE
10
121.1908
20
1887.6005
30
0.0
11
122.4550
21
1767.6071
31
0.0
0
TEXT
8
DIM-LABELS
10
120.6230
20
1827.5912
30
0.0
40
2.2
1
S00°36'13.00"E  120.00'
50
0.0
0
LINE
8
LOT_LINE
10
122.4550
20
1767.6071
30
0.0
11
62.4583
21
1766.9751
31
0.0
0
TEXT
8
DIM-LABELS
10
92.4440
20
1768.4910
30
0.0
40
2.2
1
S89°23'47.00"W  60.00'
50
0.0
0
LINE
8
LOT_LINE
10
62.4583
20
1766.9751
30
0.0
11
61.1942
21
1886.9684
31
0.0
0
TEXT
8
DIM-LABELS
10
63.0262
20
1826.9844
30
0.0
40
2.2
1
N00°36'13.00"W  120.00'
50
0.0
0
TEXT
8
TEXT-LABELS
10
81.8246
20
1823.2878
30
0.0
40
6
1
LOT 33
50
0.0
0
TEXT
8
TEXT-LABELS
10
81.8246
20
1815.2878
30
0.0
40
4
1
7,200 sf
50
0.0
0
LINE
8
EASEMENT
10
56.1944
20
1886.9157
30
0.0
11
57.4586
21
1766.9224
31
0.0
0
LINE
8
EASEMENT
10
66.1939
20
1887.0211
30
0.0
11
67.4581
21
1767.0277
31
0.0
0
TEXT
8
TEXT-LABELS
10
61.8263
20
1826.9717
30
0.0
40
2.0
1
10' CCUA/CEC EASEMENT
50
-0.6036111111111211
0
TEXT
8
ROAD_NAME
10
-20.0000
20
2006.0000
30
0.0
40
6
1
MURRELL LOOP / TRACT C (OPEN SPACE)
50
0.0
0
ENDSEC
0
EOF
