0
SECTION
2
HEADER
9
$ACADVER
1
AC1009
9
$DWGCODEPAGE
3
ANSI_1252
0
ENDSEC
0
SECTION
2
TABLES
0
TABLE
2
LTYPE
70
24
0
LTYPE
2
CONTINUOUS
70
0
3
Solid
72
65
73
0
40
0.0
0
LTYPE
2
DASHED
70
0
3
Dashed
72
65
73
2
40
0.75
49
0.5
74
0
49
-0.25
74
0
0
LTYPE
2
DASHED2
70
0
3
Dashed (.5x)
72
65
73
2
40
0.375
49
0.25
74
0
49
-0.125
74
0
0
LTYPE
2
HIDDEN
70
0
3
Hidden
72
65
73
2
40
0.375
49
0.25
74
0
49
-0.125
74
0
0
LTYPE
2
CENTER
70
0
3
Center
72
65
73
4
40
2.0
49
1.25
74
0
49
-0.25
74
0
49
0.25
74
0
49
-0.25
74
0
0
LTYPE
2
PHANTOM
70
0
3
Phantom
72
65
73
6
40
2.5
49
1.25
74
0
49
-0.25
74
0
49
0.25
74
0
49
-0.25
74
0
49
0.25
74
0
49
-0.25
74
0
0
LTYPE
2
ROT_11.23
70
0
3
Solid
72
65
73
0
40
0.0
0
LTYPE
2
ROT_316.06
70
0
3
Solid
72
65
73
0
40
0.0
0
LTYPE
2
ROT_324.69
70
0
3
Solid
72
65
73
0
40
0.0
0
LTYPE
2
ROT_325.36
70
0
3
Solid
72
65
73
0
40
0.0
0
LTYPE
2
ROT_330.03
70
0
3
Solid
72
65
73
0
40
0.0
0
LTYPE
2
ROT_333.20
70
0
3
Solid
72
65
73
0
40
0.0
0
LTYPE
2
ROT_336.53
70
0
3
Solid
72
65
73
0
40
0.0
0
LTYPE
2
ROT_341.69
70
0
3
Solid
72
65
73
0
40
0.0
0
LTYPE
2
ROT_354.03
70
0
3
Solid
72
65
73
0
40
0.0
0
LTYPE
2
ROT_354.53
70
0
3
Solid
72
65
73
0
40
0.0
0
LTYPE
2
ROT_46.03
70
0
3
Solid
72
65
73
0
40
0.0
0
LTYPE
2
ROT_54.69
70
0
3
Solid
72
65
73
0
40
0.0
0
LTYPE
2
ROT_54.70
70
0
3
Solid
72
65
73
0
40
0.0
0
LTYPE
2
ROT_66.12
70
0
3
Solid
72
65
73
0
40
0.0
0
LTYPE
2
ROT_73.13
70
0
3
Solid
72
65
73
0
40
0.0
0
LTYPE
2
ROT_80.23
70
0
3
Solid
72
65
73
0
40
0.0
0
LTYPE
2
ROT_86.92
70
0
3
Solid
72
65
73
0
40
0.0
0
LTYPE
2
ROT_91.03
70
0
3
Solid
72
65
73
0
40
0.0
0
ENDTAB
0
TABLE
2
LAYER
70
6
0
LAYER
2
0
70
0
62
7
6
CONTINUOUS
0
LAYER
2
LOT_POLYLINE
70
0
62
4
6
CONTINUOUS
0
LAYER
2
SHEET_LABELS
70
0
62
7
6
CONTINUOUS
0
LAYER
2
SHEET_FRAME
70
0
62
2
6
CONTINUOUS
0
LAYER
2
ERROR
70
0
62
1
6
CONTINUOUS
0
LAYER
2
TITLEBLOCK
70
0
62
2
6
CONTINUOUS
0
ENDTAB
0
TABLE
2
STYLE
70
4
0
STYLE
2
STANDARD
70
0
40
0.0
41
1.0
50
0.0
71
0
42
0.2
3
Arial
4

0
STYLE
2
ARIAL
70
0
40
0.0
41
1.0
50
0.0
71
0
42
0.2
3
Arial
4

0
STYLE
2
ARIAL_TTF
70
0
40
0.0
41
1.0
50
0.0
71
0
42
0.2
3
arial.ttf
4

0
STYLE
2
SIMPLEX
70
0
40
0.0
41
1.0
50
0.0
71
0
42
0.2
3
simplex.shx
4

0
ENDTAB
0
ENDSEC
0
SECTION
2
ENTITIES
0
LINE
8
SHEET_FRAME
10
0.0000
20
0.0000
30
0.0
11
300.0000
21
0.0000
31
0.0
0
LINE
8
SHEET_FRAME
10
300.0000
20
0.0000
30
0.0
11
300.0000
21
260.0000
31
0.0
0
LINE
8
SHEET_FRAME
10
300.0000
20
260.0000
30
0.0
11
0.0000
21
260.0000
31
0.0
0
LINE
8
SHEET_FRAME
10
0.0000
20
260.0000
30
0.0
11
0.0000
21
0.0000
31
0.0
0
POLYLINE
8
LOT_POLYLINE
66
1
70
1
0
VERTEX
8
LOT_POLYLINE
10
28.5551
20
26.0000
30
0.0
0
VERTEX
8
LOT_POLYLINE
10
26.0000
20
168.4247
30
0.0
0
VERTEX
8
LOT_POLYLINE
10
56.4064
20
199.9421
30
0.0
0
VERTEX
8
LOT_POLYLINE
10
145.5901
20
190.6127
30
0.0
0
VERTEX
8
LOT_POLYLINE
10
137.9008
20
47.7138
30
0.0
0
SEQEND
0
POLYLINE
8
LOT_POLYLINE
66
1
70
0
0
VERTEX
8
LOT_POLYLINE
10
26.0000
20
168.4247
30
0.0
0
VERTEX
8
LOT_POLYLINE
10
26.0946
20
171.4622
30
0.0
0
VERTEX
8
LOT_POLYLINE
10
26.4866
20
174.4758
30
0.0
0
VERTEX
8
LOT_POLYLINE
10
27.1720
20
177.4364
30
0.0
0
VERTEX
8
LOT_POLYLINE
10
28.1443
20
180.3156
30
0.0
0
VERTEX
8
LOT_POLYLINE
10
29.3941
20
183.0857
30
0.0
0
VERTEX
8
LOT_POLYLINE
10
30.9094
20
185.7199
30
0.0
0
VERTEX
8
LOT_POLYLINE
10
32.6756
20
188.1928
30
0.0
0
VERTEX
8
LOT_POLYLINE
10
34.6758
20
190.4808
30
0.0
0
VERTEX
8
LOT_POLYLINE
10
36.8905
20
192.5617
30
0.0
0
VERTEX
8
LOT_POLYLINE
10
39.2985
20
194.4155
30
0.0
0
VERTEX
8
LOT_POLYLINE
10
41.8767
20
196.0243
30
0.0
0
VERTEX
8
LOT_POLYLINE
10
44.6001
20
197.3727
30
0.0
0
VERTEX
8
LOT_POLYLINE
10
47.4426
20
198.4476
30
0.0
0
VERTEX
8
LOT_POLYLINE
10
50.3767
20
199.2388
30
0.0
0
VERTEX
8
LOT_POLYLINE
10
53.3743
20
199.7386
30
0.0
0
VERTEX
8
LOT_POLYLINE
10
56.4064
20
199.9421
30
0.0
0
SEQEND
0
POLYLINE
8
LOT_POLYLINE
66
1
70
0
0
VERTEX
8
LOT_POLYLINE
10
56.4064
20
199.9421
30
0.0
0
VERTEX
8
LOT_POLYLINE
10
62.0245
20
200.0000
30
0.0
0
VERTEX
8
LOT_POLYLINE
10
67.6428
20
199.9721
30
0.0
0
VERTEX
8
LOT_POLYLINE
10
73.2600
20
199.8584
30
0.0
0
VERTEX
8
LOT_POLYLINE
10
78.8748
20
199.6590
30
0.0
0
VERTEX
8
LOT_POLYLINE
10
84.4860
20
199.3738
30
0.0
0
VERTEX
8
LOT_POLYLINE
10
90.0921
20
199.0030
30
0.0
0
VERTEX
8
LOT_POLYLINE
10
95.6919
20
198.5466
30
0.0
0
VERTEX
8
LOT_POLYLINE
10
101.2840
20
198.0047
30
0.0
0
VERTEX
8
LOT_POLYLINE
10
106.8673
20
197.3775
30
0.0
0
VERTEX
8
LOT_POLYLINE
10
112.4403
20
196.6652
30
0.0
0
VERTEX
8
LOT_POLYLINE
10
118.0018
20
195.8678
30
0.0
0
VERTEX
8
LOT_POLYLINE
10
123.5504
20
194.9855
30
0.0
0
VERTEX
8
LOT_POLYLINE
10
129.0850
20
194.0186
30
0.0
0
VERTEX
8
LOT_POLYLINE
10
134.6041
20
192.9674
30
0.0
0
VERTEX
8
LOT_POLYLINE
10
140.1065
20
191.8319
30
0.0
0
VERTEX
8
LOT_POLYLINE
10
145.5910
20
190.6126
30
0.0
0
SEQEND
0
TEXT
8
SHEET_LABELS
6
ROT_91.03
7
STANDARD
10
24.2780
20
97.1586
30
0.0
40
3.4
1
N01%%d01'40.00"W
50
91.03
72
1
11
24.2780
21
97.1586
31
0.0
73
1
0
TEXT
8
SHEET_LABELS
6
ROT_91.03
7
STANDARD
10
30.2771
20
97.2662
30
0.0
40
3.2
1
115.00'
50
91.03
72
1
11
30.2771
21
97.2662
31
0.0
73
3
0
POINT
8
SHEET_LABELS
10
28.5551
20
26.0000
30
0.0
0
TEXT
8
SHEET_LABELS
6
ROT_46.03
7
STANDARD
10
39.0442
20
186.2663
30
0.0
40
3.4
1
N43%%d58'20.00"E
50
46.03
72
1
11
39.0442
21
186.2663
31
0.0
73
1
0
TEXT
8
SHEET_LABELS
6
ROT_46.03
7
STANDARD
10
43.3623
20
182.1005
30
0.0
40
3.2
1
35.36'
50
46.03
72
1
11
43.3623
21
182.1005
31
0.0
73
3
0
POINT
8
SHEET_LABELS
10
26.0000
20
168.4247
30
0.0
0
TEXT
8
SHEET_LABELS
6
ROT_354.03
7
STANDARD
10
101.3104
20
198.2611
30
0.0
40
3.4
1
S84%%d01'41.08"E
50
354.03
72
1
11
101.3104
21
198.2611
31
0.0
73
1
0
TEXT
8
SHEET_LABELS
6
ROT_354.03
7
STANDARD
10
100.6862
20
192.2937
30
0.0
40
3.2
1
72.39'
50
354.03
72
1
11
100.6862
21
192.2937
31
0.0
73
3
0
POINT
8
SHEET_LABELS
10
56.4064
20
199.9421
30
0.0
0
TEXT
8
SHEET_LABELS
6
ROT_86.92
7
STANDARD
10
138.7498
20
119.3245
30
0.0
40
3.4
1
S03%%d04'48.38"W
50
86.92
72
1
11
138.7498
21
119.3245
31
0.0
73
1
0
TEXT
8
SHEET_LABELS
6
ROT_86.92
7
STANDARD
10
144.7411
20
119.0021
30
0.0
40
3.2
1
115.53'
50
86.92
72
1
11
144.7411
21
119.0021
31
0.0
73
3
0
POINT
8
SHEET_LABELS
10
145.5901
20
190.6127
30
0.0
0
TEXT
8
SHEET_LABELS
6
ROT_11.23
7
STANDARD
10
82.6436
20
39.7995
30
0.0
40
3.4
1
S78%%d46'06.00"W
50
11.23
72
1
11
82.6436
21
39.7995
31
0.0
73
1
0
TEXT
8
SHEET_LABELS
6
ROT_11.23
7
STANDARD
10
83.8123
20
33.9144
30
0.0
40
3.2
1
90.00'
50
11.23
72
1
11
83.8123
21
33.9144
31
0.0
73
3
0
POINT
8
SHEET_LABELS
10
137.9008
20
47.7138
30
0.0
0
TEXT
8
SHEET_LABELS
7
STANDARD
10
8.0000
20
250.0000
30
0.0
40
8.0
1
LOT Blk 9 - Lot 27   PASS
50
0.0
0
TEXT
8
SHEET_LABELS
7
STANDARD
10
8.0000
20
239.0000
30
0.0
40
4.6
1
AREA 11,900 SF (0.273 ac)
50
0.0
0
TEXT
8
SHEET_LABELS
7
STANDARD
10
8.0000
20
232.0000
30
0.0
40
4.0
1
PERIMETER 428.28'   VERTICES 5   CLOSING SIDE 0.00'
50
0.0
0
TEXT
8
SHEET_LABELS
7
STANDARD
10
8.0000
20
225.0000
30
0.0
40
3.4
1
all geometric checks passed: closed single polyline, no self-intersection, no overlap, no spikes
50
0.0
0
LINE
8
SHEET_FRAME
10
340.0000
20
0.0000
30
0.0
11
640.0000
21
0.0000
31
0.0
0
LINE
8
SHEET_FRAME
10
640.0000
20
0.0000
30
0.0
11
640.0000
21
260.0000
31
0.0
0
LINE
8
SHEET_FRAME
10
640.0000
20
260.0000
30
0.0
11
340.0000
21
260.0000
31
0.0
0
LINE
8
SHEET_FRAME
10
340.0000
20
260.0000
30
0.0
11
340.0000
21
0.0000
31
0.0
0
POLYLINE
8
LOT_POLYLINE
66
1
70
1
0
VERTEX
8
LOT_POLYLINE
10
366.0000
20
62.2401
30
0.0
0
VERTEX
8
LOT_POLYLINE
10
373.4128
20
200.0000
30
0.0
0
VERTEX
8
LOT_POLYLINE
10
491.9811
20
148.5134
30
0.0
0
VERTEX
8
LOT_POLYLINE
10
437.7432
20
26.0000
30
0.0
0
SEQEND
0
POLYLINE
8
LOT_POLYLINE
66
1
70
0
0
VERTEX
8
LOT_POLYLINE
10
373.4128
20
200.0000
30
0.0
0
VERTEX
8
LOT_POLYLINE
10
381.3085
20
198.0857
30
0.0
0
VERTEX
8
LOT_POLYLINE
10
389.1582
20
195.9910
30
0.0
0
VERTEX
8
LOT_POLYLINE
10
396.9578
20
193.7171
30
0.0
0
VERTEX
8
LOT_POLYLINE
10
404.7034
20
191.2652
30
0.0
0
VERTEX
8
LOT_POLYLINE
10
412.3907
20
188.6364
30
0.0
0
VERTEX
8
LOT_POLYLINE
10
420.0158
20
185.8323
30
0.0
0
VERTEX
8
LOT_POLYLINE
10
427.5747
20
182.8543
30
0.0
0
VERTEX
8
LOT_POLYLINE
10
435.0634
20
179.7038
30
0.0
0
VERTEX
8
LOT_POLYLINE
10
442.4779
20
176.3827
30
0.0
0
VERTEX
8
LOT_POLYLINE
10
449.8144
20
172.8927
30
0.0
0
VERTEX
8
LOT_POLYLINE
10
457.0691
20
169.2354
30
0.0
0
VERTEX
8
LOT_POLYLINE
10
464.2381
20
165.4130
30
0.0
0
VERTEX
8
LOT_POLYLINE
10
471.3177
20
161.4274
30
0.0
0
VERTEX
8
LOT_POLYLINE
10
478.3041
20
157.2807
30
0.0
0
VERTEX
8
LOT_POLYLINE
10
485.1937
20
152.9750
30
0.0
0
VERTEX
8
LOT_POLYLINE
10
491.9828
20
148.5126
30
0.0
0
SEQEND
0
TEXT
8
SHEET_LABELS
6
ROT_86.92
7
STANDARD
10
366.7108
20
131.2813
30
0.0
40
3.4
1
N03%%d04'48.38"E
50
86.92
72
1
11
366.7108
21
131.2813
31
0.0
73
1
0
TEXT
8
SHEET_LABELS
6
ROT_86.92
7
STANDARD
10
372.7021
20
130.9589
30
0.0
40
3.2
1
115.53'
50
86.92
72
1
11
372.7021
21
130.9589
31
0.0
73
3
0
POINT
8
SHEET_LABELS
10
366.0000
20
62.2401
30
0.0
0
TEXT
8
SHEET_LABELS
6
ROT_336.53
7
STANDARD
10
433.8919
20
177.0084
30
0.0
40
3.4
1
S66%%d31'40.00"E
50
336.53
72
1
11
433.8919
21
177.0084
31
0.0
73
1
0
TEXT
8
SHEET_LABELS
6
ROT_336.53
7
STANDARD
10
431.5021
20
171.5049
30
0.0
40
3.2
1
108.25'
50
336.53
72
1
11
431.5021
21
171.5049
31
0.0
73
3
0
POINT
8
SHEET_LABELS
10
373.4128
20
200.0000
30
0.0
0
TEXT
8
SHEET_LABELS
6
ROT_66.12
7
STANDARD
10
462.1190
20
88.4711
30
0.0
40
3.4
1
S23%%d52'46.03"W
50
66.12
72
1
11
462.1190
21
88.4711
31
0.0
73
1
0
TEXT
8
SHEET_LABELS
6
ROT_66.12
7
STANDARD
10
467.6054
20
86.0422
30
0.0
40
3.2
1
112.20'
50
66.12
72
1
11
467.6054
21
86.0422
31
0.0
73
3
0
POINT
8
SHEET_LABELS
10
491.9811
20
148.5134
30
0.0
0
TEXT
8
SHEET_LABELS
6
ROT_333.20
7
STANDARD
10
403.2243
20
46.7978
30
0.0
40
3.4
1
N63%%d12'00.00"W
50
333.2
72
1
11
403.2243
21
46.7978
31
0.0
73
1
0
TEXT
8
SHEET_LABELS
6
ROT_333.20
7
STANDARD
10
400.5190
20
41.4423
30
0.0
40
3.2
1
67.31'
50
333.2
72
1
11
400.5190
21
41.4423
31
0.0
73
3
0
POINT
8
SHEET_LABELS
10
437.7432
20
26.0000
30
0.0
0
TEXT
8
SHEET_LABELS
7
STANDARD
10
348.0000
20
250.0000
30
0.0
40
8.0
1
LOT Blk 9 - Lot 28   PASS
50
0.0
0
TEXT
8
SHEET_LABELS
7
STANDARD
10
348.0000
20
239.0000
30
0.0
40
4.6
1
AREA 9,992 SF (0.229 ac)
50
0.0
0
TEXT
8
SHEET_LABELS
7
STANDARD
10
348.0000
20
232.0000
30
0.0
40
4.0
1
PERIMETER 403.29'   VERTICES 4   CLOSING SIDE 0.00'
50
0.0
0
TEXT
8
SHEET_LABELS
7
STANDARD
10
348.0000
20
225.0000
30
0.0
40
3.4
1
all geometric checks passed: closed single polyline, no self-intersection, no overlap, no spikes
50
0.0
0
LINE
8
SHEET_FRAME
10
680.0000
20
0.0000
30
0.0
11
980.0000
21
0.0000
31
0.0
0
LINE
8
SHEET_FRAME
10
980.0000
20
0.0000
30
0.0
11
980.0000
21
260.0000
31
0.0
0
LINE
8
SHEET_FRAME
10
980.0000
20
260.0000
30
0.0
11
680.0000
21
260.0000
31
0.0
0
LINE
8
SHEET_FRAME
10
680.0000
20
260.0000
30
0.0
11
680.0000
21
0.0000
31
0.0
0
POLYLINE
8
LOT_POLYLINE
66
1
70
1
0
VERTEX
8
LOT_POLYLINE
10
706.0000
20
66.0341
30
0.0
0
VERTEX
8
LOT_POLYLINE
10
765.3081
20
200.0000
30
0.0
0
VERTEX
8
LOT_POLYLINE
10
772.7316
20
194.8714
30
0.0
0
VERTEX
8
LOT_POLYLINE
10
860.7185
20
132.5604
30
0.0
0
VERTEX
8
LOT_POLYLINE
10
785.2540
20
26.0000
30
0.0
0
SEQEND
0
POLYLINE
8
LOT_POLYLINE
66
1
70
0
0
VERTEX
8
LOT_POLYLINE
10
765.3081
20
200.0000
30
0.0
0
VERTEX
8
LOT_POLYLINE
10
765.7756
20
199.6845
30
0.0
0
VERTEX
8
LOT_POLYLINE
10
766.2427
20
199.3683
30
0.0
0
VERTEX
8
LOT_POLYLINE
10
766.7093
20
199.0514
30
0.0
0
VERTEX
8
LOT_POLYLINE
10
767.1755
20
198.7338
30
0.0
0
VERTEX
8
LOT_POLYLINE
10
767.6412
20
198.4155
30
0.0
0
VERTEX
8
LOT_POLYLINE
10
768.1065
20
198.0966
30
0.0
0
VERTEX
8
LOT_POLYLINE
10
768.5713
20
197.7770
30
0.0
0
VERTEX
8
LOT_POLYLINE
10
769.0356
20
197.4567
30
0.0
0
VERTEX
8
LOT_POLYLINE
10
769.4994
20
197.1358
30
0.0
0
VERTEX
8
LOT_POLYLINE
10
769.9628
20
196.8141
30
0.0
0
VERTEX
8
LOT_POLYLINE
10
770.4257
20
196.4918
30
0.0
0
VERTEX
8
LOT_POLYLINE
10
770.8882
20
196.1689
30
0.0
0
VERTEX
8
LOT_POLYLINE
10
771.3502
20
195.8452
30
0.0
0
VERTEX
8
LOT_POLYLINE
10
771.8117
20
195.5209
30
0.0
0
VERTEX
8
LOT_POLYLINE
10
772.2727
20
195.1959
30
0.0
0
VERTEX
8
LOT_POLYLINE
10
772.7333
20
194.8703
30
0.0
0
SEQEND
0
TEXT
8
SHEET_LABELS
6
ROT_66.12
7
STANDARD
10
732.9108
20
134.2315
30
0.0
40
3.4
1
N23%%d52'46.03"E
50
66.12
72
1
11
732.9108
21
134.2315
31
0.0
73
1
0
TEXT
8
SHEET_LABELS
6
ROT_66.12
7
STANDARD
10
738.3972
20
131.8026
30
0.0
40
3.2
1
112.20'
50
66.12
72
1
11
738.3972
21
131.8026
31
0.0
73
3
0
POINT
8
SHEET_LABELS
10
706.0000
20
66.0341
30
0.0
0
TEXT
8
SHEET_LABELS
6
ROT_325.36
7
STANDARD
10
770.7250
20
199.9040
30
0.0
40
3.4
1
S55%%d21'40.00"E
50
325.36
72
1
11
770.7250
21
199.9040
31
0.0
73
1
0
TEXT
8
SHEET_LABELS
6
ROT_325.36
7
STANDARD
10
767.3146
20
194.9675
30
0.0
40
3.2
1
6.91'
50
325.36
72
1
11
767.3146
21
194.9675
31
0.0
73
3
0
POINT
8
SHEET_LABELS
10
765.3081
20
200.0000
30
0.0
0
TEXT
8
SHEET_LABELS
6
ROT_324.69
7
STANDARD
10
818.4588
20
166.1642
30
0.0
40
3.4
1
S54%%d41'40.00"E
50
324.69
72
1
11
818.4588
21
166.1642
31
0.0
73
1
0
TEXT
8
SHEET_LABELS
6
ROT_324.69
7
STANDARD
10
814.9912
20
161.2677
30
0.0
40
3.2
1
82.57'
50
324.69
72
1
11
814.9912
21
161.2677
31
0.0
73
3
0
POINT
8
SHEET_LABELS
10
772.7316
20
194.8714
30
0.0
0
TEXT
8
SHEET_LABELS
6
ROT_54.69
7
STANDARD
10
820.5380
20
81.0140
30
0.0
40
3.4
1
S35%%d18'20.00"W
50
54.69
72
1
11
820.5380
21
81.0140
31
0.0
73
1
0
TEXT
8
SHEET_LABELS
6
ROT_54.69
7
STANDARD
10
825.4345
20
77.5464
30
0.0
40
3.2
1
100.00'
50
54.69
72
1
11
825.4345
21
77.5464
31
0.0
73
3
0
POINT
8
SHEET_LABELS
10
860.7185
20
132.5604
30
0.0
0
TEXT
8
SHEET_LABELS
6
ROT_333.20
7
STANDARD
10
746.9796
20
48.6948
30
0.0
40
3.4
1
N63%%d12'00.00"W
50
333.2
72
1
11
746.9796
21
48.6948
31
0.0
73
1
0
TEXT
8
SHEET_LABELS
6
ROT_333.20
7
STANDARD
10
744.2744
20
43.3393
30
0.0
40
3.2
1
68.00'
50
333.2
72
1
11
744.2744
21
43.3393
31
0.0
73
3
0
POINT
8
SHEET_LABELS
10
785.2540
20
26.0000
30
0.0
0
TEXT
8
SHEET_LABELS
7
STANDARD
10
688.0000
20
250.0000
30
0.0
40
8.0
1
LOT Blk 9 - Lot 29   PASS
50
0.0
0
TEXT
8
SHEET_LABELS
7
STANDARD
10
688.0000
20
239.0000
30
0.0
40
4.6
1
AREA 8,287 SF (0.190 ac)
50
0.0
0
TEXT
8
SHEET_LABELS
7
STANDARD
10
688.0000
20
232.0000
30
0.0
40
4.0
1
PERIMETER 369.68'   VERTICES 5   CLOSING SIDE 0.00'
50
0.0
0
TEXT
8
SHEET_LABELS
7
STANDARD
10
688.0000
20
225.0000
30
0.0
40
3.4
1
all geometric checks passed: closed single polyline, no self-intersection, no overlap, no spikes
50
0.0
0
LINE
8
SHEET_FRAME
10
0.0000
20
-300.0000
30
0.0
11
300.0000
21
-300.0000
31
0.0
0
LINE
8
SHEET_FRAME
10
300.0000
20
-300.0000
30
0.0
11
300.0000
21
-40.0000
31
0.0
0
LINE
8
SHEET_FRAME
10
300.0000
20
-40.0000
30
0.0
11
0.0000
21
-40.0000
31
0.0
0
LINE
8
SHEET_FRAME
10
0.0000
20
-40.0000
30
0.0
11
0.0000
21
-300.0000
31
0.0
0
POLYLINE
8
LOT_POLYLINE
66
1
70
1
0
VERTEX
8
LOT_POLYLINE
10
26.0000
20
-213.6409
30
0.0
0
VERTEX
8
LOT_POLYLINE
10
106.4788
20
-100.0000
30
0.0
0
VERTEX
8
LOT_POLYLINE
10
191.7095
20
-160.3591
30
0.0
0
VERTEX
8
LOT_POLYLINE
10
111.2307
20
-274.0000
30
0.0
0
SEQEND
0
TEXT
8
SHEET_LABELS
6
ROT_54.69
7
STANDARD
10
63.7912
20
-155.0866
30
0.0
40
3.4
1
N35%%d18'20.00"E
50
54.69
72
1
11
63.7912
21
-155.0866
31
0.0
73
1
0
TEXT
8
SHEET_LABELS
6
ROT_54.69
7
STANDARD
10
68.6876
20
-158.5543
30
0.0
40
3.2
1
100.00'
50
54.69
72
1
11
68.6876
21
-158.5543
31
0.0
73
3
0
POINT
8
SHEET_LABELS
10
26.0000
20
-213.6409
30
0.0
0
TEXT
8
SHEET_LABELS
6
ROT_324.69
7
STANDARD
10
150.8279
20
-127.7313
30
0.0
40
3.4
1
S54%%d41'40.00"E
50
324.69
72
1
11
150.8279
21
-127.7313
31
0.0
73
1
0
TEXT
8
SHEET_LABELS
6
ROT_324.69
7
STANDARD
10
147.3603
20
-132.6278
30
0.0
40
3.2
1
75.00'
50
324.69
72
1
11
147.3603
21
-132.6278
31
0.0
73
3
0
POINT
8
SHEET_LABELS
10
106.4788
20
-100.0000
30
0.0
0
TEXT
8
SHEET_LABELS
6
ROT_54.69
7
STANDARD
10
149.0218
20
-215.4457
30
0.0
40
3.4
1
S35%%d18'20.00"W
50
54.69
72
1
11
149.0218
21
-215.4457
31
0.0
73
1
0
TEXT
8
SHEET_LABELS
6
ROT_54.69
7
STANDARD
10
153.9183
20
-218.9134
30
0.0
40
3.2
1
100.00'
50
54.69
72
1
11
153.9183
21
-218.9134
31
0.0
73
3
0
POINT
8
SHEET_LABELS
10
191.7095
20
-160.3591
30
0.0
0
TEXT
8
SHEET_LABELS
6
ROT_324.69
7
STANDARD
10
70.3492
20
-241.3722
30
0.0
40
3.4
1
N54%%d41'40.00"W
50
324.69
72
1
11
70.3492
21
-241.3722
31
0.0
73
1
0
TEXT
8
SHEET_LABELS
6
ROT_324.69
7
STANDARD
10
66.8815
20
-246.2687
30
0.0
40
3.2
1
75.00'
50
324.69
72
1
11
66.8815
21
-246.2687
31
0.0
73
3
0
POINT
8
SHEET_LABELS
10
111.2307
20
-274.0000
30
0.0
0
TEXT
8
SHEET_LABELS
7
STANDARD
10
8.0000
20
-50.0000
30
0.0
40
8.0
1
LOT Blk 9 - Lot 30   PASS
50
0.0
0
TEXT
8
SHEET_LABELS
7
STANDARD
10
8.0000
20
-61.0000
30
0.0
40
4.6
1
AREA 7,500 SF (0.172 ac)
50
0.0
0
TEXT
8
SHEET_LABELS
7
STANDARD
10
8.0000
20
-68.0000
30
0.0
40
4.0
1
PERIMETER 350.00'   VERTICES 4   CLOSING SIDE 0.00'
50
0.0
0
TEXT
8
SHEET_LABELS
7
STANDARD
10
8.0000
20
-75.0000
30
0.0
40
3.4
1
all geometric checks passed: closed single polyline, no self-intersection, no overlap, no spikes
50
0.0
0
LINE
8
SHEET_FRAME
10
340.0000
20
-300.0000
30
0.0
11
640.0000
21
-300.0000
31
0.0
0
LINE
8
SHEET_FRAME
10
640.0000
20
-300.0000
30
0.0
11
640.0000
21
-40.0000
31
0.0
0
LINE
8
SHEET_FRAME
10
640.0000
20
-40.0000
30
0.0
11
340.0000
21
-40.0000
31
0.0
0
LINE
8
SHEET_FRAME
10
340.0000
20
-40.0000
30
0.0
11
340.0000
21
-300.0000
31
0.0
0
POLYLINE
8
LOT_POLYLINE
66
1
70
1
0
VERTEX
8
LOT_POLYLINE
10
366.0000
20
-213.6409
30
0.0
0
VERTEX
8
LOT_POLYLINE
10
446.4788
20
-100.0000
30
0.0
0
VERTEX
8
LOT_POLYLINE
10
531.7095
20
-160.3591
30
0.0
0
VERTEX
8
LOT_POLYLINE
10
451.2307
20
-274.0000
30
0.0
0
SEQEND
0
TEXT
8
SHEET_LABELS
6
ROT_54.69
7
STANDARD
10
403.7912
20
-155.0866
30
0.0
40
3.4
1
N35%%d18'20.00"E
50
54.69
72
1
11
403.7912
21
-155.0866
31
0.0
73
1
0
TEXT
8
SHEET_LABELS
6
ROT_54.69
7
STANDARD
10
408.6876
20
-158.5543
30
0.0
40
3.2
1
100.00'
50
54.69
72
1
11
408.6876
21
-158.5543
31
0.0
73
3
0
POINT
8
SHEET_LABELS
10
366.0000
20
-213.6409
30
0.0
0
TEXT
8
SHEET_LABELS
6
ROT_324.69
7
STANDARD
10
490.8279
20
-127.7313
30
0.0
40
3.4
1
S54%%d41'40.00"E
50
324.69
72
1
11
490.8279
21
-127.7313
31
0.0
73
1
0
TEXT
8
SHEET_LABELS
6
ROT_324.69
7
STANDARD
10
487.3603
20
-132.6278
30
0.0
40
3.2
1
75.00'
50
324.69
72
1
11
487.3603
21
-132.6278
31
0.0
73
3
0
POINT
8
SHEET_LABELS
10
446.4788
20
-100.0000
30
0.0
0
TEXT
8
SHEET_LABELS
6
ROT_54.69
7
STANDARD
10
489.0218
20
-215.4457
30
0.0
40
3.4
1
S35%%d18'20.00"W
50
54.69
72
1
11
489.0218
21
-215.4457
31
0.0
73
1
0
TEXT
8
SHEET_LABELS
6
ROT_54.69
7
STANDARD
10
493.9183
20
-218.9134
30
0.0
40
3.2
1
100.00'
50
54.69
72
1
11
493.9183
21
-218.9134
31
0.0
73
3
0
POINT
8
SHEET_LABELS
10
531.7095
20
-160.3591
30
0.0
0
TEXT
8
SHEET_LABELS
6
ROT_324.69
7
STANDARD
10
410.3492
20
-241.3722
30
0.0
40
3.4
1
N54%%d41'40.00"W
50
324.69
72
1
11
410.3492
21
-241.3722
31
0.0
73
1
0
TEXT
8
SHEET_LABELS
6
ROT_324.69
7
STANDARD
10
406.8815
20
-246.2687
30
0.0
40
3.2
1
75.00'
50
324.69
72
1
11
406.8815
21
-246.2687
31
0.0
73
3
0
POINT
8
SHEET_LABELS
10
451.2307
20
-274.0000
30
0.0
0
TEXT
8
SHEET_LABELS
7
STANDARD
10
348.0000
20
-50.0000
30
0.0
40
8.0
1
LOT Blk 9 - Lot 31   PASS
50
0.0
0
TEXT
8
SHEET_LABELS
7
STANDARD
10
348.0000
20
-61.0000
30
0.0
40
4.6
1
AREA 7,500 SF (0.172 ac)
50
0.0
0
TEXT
8
SHEET_LABELS
7
STANDARD
10
348.0000
20
-68.0000
30
0.0
40
4.0
1
PERIMETER 350.00'   VERTICES 4   CLOSING SIDE 0.00'
50
0.0
0
TEXT
8
SHEET_LABELS
7
STANDARD
10
348.0000
20
-75.0000
30
0.0
40
3.4
1
all geometric checks passed: closed single polyline, no self-intersection, no overlap, no spikes
50
0.0
0
LINE
8
SHEET_FRAME
10
680.0000
20
-300.0000
30
0.0
11
980.0000
21
-300.0000
31
0.0
0
LINE
8
SHEET_FRAME
10
980.0000
20
-300.0000
30
0.0
11
980.0000
21
-40.0000
31
0.0
0
LINE
8
SHEET_FRAME
10
980.0000
20
-40.0000
30
0.0
11
680.0000
21
-40.0000
31
0.0
0
LINE
8
SHEET_FRAME
10
680.0000
20
-40.0000
30
0.0
11
680.0000
21
-300.0000
31
0.0
0
POLYLINE
8
LOT_POLYLINE
66
1
70
1
0
VERTEX
8
LOT_POLYLINE
10
706.0000
20
-123.0160
30
0.0
0
VERTEX
8
LOT_POLYLINE
10
821.9031
20
-100.0000
30
0.0
0
VERTEX
8
LOT_POLYLINE
10
857.0609
20
-117.7595
30
0.0
0
VERTEX
8
LOT_POLYLINE
10
830.1585
20
-274.0000
30
0.0
0
VERTEX
8
LOT_POLYLINE
10
741.4019
20
-265.4971
30
0.0
0
VERTEX
8
LOT_POLYLINE
10
707.9783
20
-233.2867
30
0.0
0
SEQEND
0
POLYLINE
8
LOT_POLYLINE
66
1
70
0
0
VERTEX
8
LOT_POLYLINE
10
830.1585
20
-274.0000
30
0.0
0
VERTEX
8
LOT_POLYLINE
10
824.6871
20
-272.8803
30
0.0
0
VERTEX
8
LOT_POLYLINE
10
819.2003
20
-271.8382
30
0.0
0
VERTEX
8
LOT_POLYLINE
10
813.6993
20
-270.8741
30
0.0
0
VERTEX
8
LOT_POLYLINE
10
808.1852
20
-269.9881
30
0.0
0
VERTEX
8
LOT_POLYLINE
10
802.6590
20
-269.1803
30
0.0
0
VERTEX
8
LOT_POLYLINE
10
797.1220
20
-268.4510
30
0.0
0
VERTEX
8
LOT_POLYLINE
10
791.5752
20
-267.8003
30
0.0
0
VERTEX
8
LOT_POLYLINE
10
786.0197
20
-267.2283
30
0.0
0
VERTEX
8
LOT_POLYLINE
10
780.4567
20
-266.7351
30
0.0
0
VERTEX
8
LOT_POLYLINE
10
774.8872
20
-266.3209
30
0.0
0
VERTEX
8
LOT_POLYLINE
10
769.3125
20
-265.9857
30
0.0
0
VERTEX
8
LOT_POLYLINE
10
763.7335
20
-265.7296
30
0.0
0
VERTEX
8
LOT_POLYLINE
10
758.1514
20
-265.5526
30
0.0
0
VERTEX
8
LOT_POLYLINE
10
752.5675
20
-265.4548
30
0.0
0
VERTEX
8
LOT_POLYLINE
10
746.9826
20
-265.4362
30
0.0
0
VERTEX
8
LOT_POLYLINE
10
741.3981
20
-265.4968
30
0.0
0
SEQEND
0
POLYLINE
8
LOT_POLYLINE
66
1
70
0
0
VERTEX
8
LOT_POLYLINE
10
741.4019
20
-265.4971
30
0.0
0
VERTEX
8
LOT_POLYLINE
10
738.1822
20
-265.3986
30
0.0
0
VERTEX
8
LOT_POLYLINE
10
734.9877
20
-264.9849
30
0.0
0
VERTEX
8
LOT_POLYLINE
10
731.8491
20
-264.2601
30
0.0
0
VERTEX
8
LOT_POLYLINE
10
728.7967
20
-263.2311
30
0.0
0
VERTEX
8
LOT_POLYLINE
10
725.8598
20
-261.9080
30
0.0
0
VERTEX
8
LOT_POLYLINE
10
723.0667
20
-260.3033
30
0.0
0
VERTEX
8
LOT_POLYLINE
10
720.4444
20
-258.4326
30
0.0
0
VERTEX
8
LOT_POLYLINE
10
718.0181
20
-256.3138
30
0.0
0
VERTEX
8
LOT_POLYLINE
10
715.8112
20
-253.9675
30
0.0
0
VERTEX
8
LOT_POLYLINE
10
713.8448
20
-251.4161
30
0.0
0
VERTEX
8
LOT_POLYLINE
10
712.1380
20
-248.6843
30
0.0
0
VERTEX
8
LOT_POLYLINE
10
710.7072
20
-245.7983
30
0.0
0
VERTEX
8
LOT_POLYLINE
10
709.5661
20
-242.7860
30
0.0
0
VERTEX
8
LOT_POLYLINE
10
708.7258
20
-239.6763
30
0.0
0
VERTEX
8
LOT_POLYLINE
10
708.1944
20
-236.4993
30
0.0
0
VERTEX
8
LOT_POLYLINE
10
707.9769
20
-233.2854
30
0.0
0
SEQEND
0
TEXT
8
SHEET_LABELS
6
ROT_11.23
7
STANDARD
10
763.3672
20
-108.5655
30
0.0
40
3.4
1
N78%%d46'06.00"E
50
11.23
72
1
11
763.3672
21
-108.5655
31
0.0
73
1
0
TEXT
8
SHEET_LABELS
6
ROT_11.23
7
STANDARD
10
764.5359
20
-114.4505
30
0.0
40
3.2
1
90.00'
50
11.23
72
1
11
764.5359
21
-114.4505
31
0.0
73
3
0
POINT
8
SHEET_LABELS
10
706.0000
20
-123.0160
30
0.0
0
TEXT
8
SHEET_LABELS
6
ROT_333.20
7
STANDARD
10
840.8346
20
-106.2020
30
0.0
40
3.4
1
S63%%d12'00.00"E
50
333.2
72
1
11
840.8346
21
-106.2020
31
0.0
73
1
0
TEXT
8
SHEET_LABELS
6
ROT_333.20
7
STANDARD
10
838.1294
20
-111.5575
30
0.0
40
3.2
1
30.00'
50
333.2
72
1
11
838.1294
21
-111.5575
31
0.0
73
3
0
POINT
8
SHEET_LABELS
10
821.9031
20
-100.0000
30
0.0
0
TEXT
8
SHEET_LABELS
6
ROT_80.23
7
STANDARD
10
840.6532
20
-195.3707
30
0.0
40
3.4
1
S09%%d46'11.00"W
50
80.23
72
1
11
840.6532
21
-195.3707
31
0.0
73
1
0
TEXT
8
SHEET_LABELS
6
ROT_80.23
7
STANDARD
10
846.5662
20
-196.3888
30
0.0
40
3.2
1
120.75'
50
80.23
72
1
11
846.5662
21
-196.3888
31
0.0
73
3
0
POINT
8
SHEET_LABELS
10
857.0609
20
-117.7595
30
0.0
0
TEXT
8
SHEET_LABELS
6
ROT_354.53
7
STANDARD
10
786.0663
20
-266.7622
30
0.0
40
3.4
1
N84%%d31'40.00"W
50
354.53
72
1
11
786.0663
21
-266.7622
31
0.0
73
1
0
TEXT
8
SHEET_LABELS
6
ROT_354.53
7
STANDARD
10
785.4941
20
-272.7349
30
0.0
40
3.2
1
67.91'
50
354.53
72
1
11
785.4941
21
-272.7349
31
0.0
73
3
0
POINT
8
SHEET_LABELS
10
830.1585
20
-274.0000
30
0.0
0
TEXT
8
SHEET_LABELS
6
ROT_316.06
7
STANDARD
10
726.7718
20
-247.2318
30
0.0
40
3.4
1
N46%%d03'32.28"W
50
316.06
72
1
11
726.7718
21
-247.2318
31
0.0
73
1
0
TEXT
8
SHEET_LABELS
6
ROT_316.06
7
STANDARD
10
722.6083
20
-251.5521
30
0.0
40
3.2
1
35.35'
50
316.06
72
1
11
722.6083
21
-251.5521
31
0.0
73
3
0
POINT
8
SHEET_LABELS
10
741.4019
20
-265.4971
30
0.0
0
TEXT
8
SHEET_LABELS
6
ROT_91.03
7
STANDARD
10
703.9896
20
-178.2052
30
0.0
40
3.4
1
N01%%d01'40.00"W
50
91.03
72
1
11
703.9896
21
-178.2052
31
0.0
73
1
0
TEXT
8
SHEET_LABELS
6
ROT_91.03
7
STANDARD
10
709.9886
20
-178.0976
30
0.0
40
3.2
1
84.00'
50
91.03
72
1
11
709.9886
21
-178.0976
31
0.0
73
3
0
POINT
8
SHEET_LABELS
10
707.9783
20
-233.2867
30
0.0
0
TEXT
8
SHEET_LABELS
7
STANDARD
10
688.0000
20
-50.0000
30
0.0
40
8.0
1
LOT Blk 9 - Lot 26   PASS
50
0.0
0
TEXT
8
SHEET_LABELS
7
STANDARD
10
688.0000
20
-61.0000
30
0.0
40
4.6
1
AREA 12,359 SF (0.284 ac)
50
0.0
0
TEXT
8
SHEET_LABELS
7
STANDARD
10
688.0000
20
-68.0000
30
0.0
40
4.0
1
PERIMETER 428.01'   VERTICES 6   CLOSING SIDE 0.00'
50
0.0
0
TEXT
8
SHEET_LABELS
7
STANDARD
10
688.0000
20
-75.0000
30
0.0
40
3.4
1
all geometric checks passed: closed single polyline, no self-intersection, no overlap, no spikes
50
0.0
0
LINE
8
SHEET_FRAME
10
0.0000
20
-600.0000
30
0.0
11
300.0000
21
-600.0000
31
0.0
0
LINE
8
SHEET_FRAME
10
300.0000
20
-600.0000
30
0.0
11
300.0000
21
-340.0000
31
0.0
0
LINE
8
SHEET_FRAME
10
300.0000
20
-340.0000
30
0.0
11
0.0000
21
-340.0000
31
0.0
0
LINE
8
SHEET_FRAME
10
0.0000
20
-340.0000
30
0.0
11
0.0000
21
-600.0000
31
0.0
0
POLYLINE
8
LOT_POLYLINE
66
1
70
1
0
VERTEX
8
LOT_POLYLINE
10
26.0000
20
-548.1261
30
0.0
0
VERTEX
8
LOT_POLYLINE
10
51.5052
20
-400.0000
30
0.0
0
VERTEX
8
LOT_POLYLINE
10
142.9568
20
-446.1955
30
0.0
0
VERTEX
8
LOT_POLYLINE
10
104.2100
20
-574.0000
30
0.0
0
SEQEND
0
POLYLINE
8
LOT_POLYLINE
66
1
70
0
0
VERTEX
8
LOT_POLYLINE
10
104.2100
20
-574.0000
30
0.0
0
VERTEX
8
LOT_POLYLINE
10
99.5060
20
-571.8817
30
0.0
0
VERTEX
8
LOT_POLYLINE
10
94.7731
20
-569.8285
30
0.0
0
VERTEX
8
LOT_POLYLINE
10
90.0123
20
-567.8410
30
0.0
0
VERTEX
8
LOT_POLYLINE
10
85.2245
20
-565.9194
30
0.0
0
VERTEX
8
LOT_POLYLINE
10
80.4106
20
-564.0641
30
0.0
0
VERTEX
8
LOT_POLYLINE
10
75.5715
20
-562.2756
30
0.0
0
VERTEX
8
LOT_POLYLINE
10
70.7082
20
-560.5540
30
0.0
0
VERTEX
8
LOT_POLYLINE
10
65.8215
20
-558.8998
30
0.0
0
VERTEX
8
LOT_POLYLINE
10
60.9125
20
-557.3134
30
0.0
0
VERTEX
8
LOT_POLYLINE
10
55.9820
20
-555.7948
30
0.0
0
VERTEX
8
LOT_POLYLINE
10
51.0310
20
-554.3446
30
0.0
0
VERTEX
8
LOT_POLYLINE
10
46.0604
20
-552.9629
30
0.0
0
VERTEX
8
LOT_POLYLINE
10
41.0712
20
-551.6500
30
0.0
0
VERTEX
8
LOT_POLYLINE
10
36.0644
20
-550.4061
30
0.0
0
VERTEX
8
LOT_POLYLINE
10
31.0408
20
-549.2316
30
0.0
0
VERTEX
8
LOT_POLYLINE
10
26.0015
20
-548.1266
30
0.0
0
SEQEND
0
TEXT
8
SHEET_LABELS
6
ROT_80.23
7
STANDARD
10
35.7961
20
-473.5540
30
0.0
40
3.4
1
N09%%d46'11.00"E
50
80.23
72
1
11
35.7961
21
-473.5540
31
0.0
73
1
0
TEXT
8
SHEET_LABELS
6
ROT_80.23
7
STANDARD
10
41.7091
20
-474.5721
30
0.0
40
3.2
1
120.75'
50
80.23
72
1
11
41.7091
21
-474.5721
31
0.0
73
3
0
POINT
8
SHEET_LABELS
10
26.0000
20
-548.1261
30
0.0
0
TEXT
8
SHEET_LABELS
6
ROT_333.20
7
STANDARD
10
98.5837
20
-420.4200
30
0.0
40
3.4
1
S63%%d12'00.00"E
50
333.2
72
1
11
98.5837
21
-420.4200
31
0.0
73
1
0
TEXT
8
SHEET_LABELS
6
ROT_333.20
7
STANDARD
10
95.8784
20
-425.7755
30
0.0
40
3.2
1
82.31'
50
333.2
72
1
11
95.8784
21
-425.7755
31
0.0
73
3
0
POINT
8
SHEET_LABELS
10
51.5052
20
-400.0000
30
0.0
0
TEXT
8
SHEET_LABELS
6
ROT_73.13
7
STANDARD
10
120.7125
20
-509.2274
30
0.0
40
3.4
1
S16%%d51'57.08"W
50
73.13
72
1
11
120.7125
21
-509.2274
31
0.0
73
1
0
TEXT
8
SHEET_LABELS
6
ROT_73.13
7
STANDARD
10
126.4544
20
-510.9682
30
0.0
40
3.2
1
107.29'
50
73.13
72
1
11
126.4544
21
-510.9682
31
0.0
73
3
0
POINT
8
SHEET_LABELS
10
142.9568
20
-446.1955
30
0.0
0
TEXT
8
SHEET_LABELS
6
ROT_341.69
7
STANDARD
10
66.0473
20
-558.2149
30
0.0
40
3.4
1
N71%%d41'40.00"W
50
341.69
72
1
11
66.0473
21
-558.2149
31
0.0
73
1
0
TEXT
8
SHEET_LABELS
6
ROT_341.69
7
STANDARD
10
64.1628
20
-563.9112
30
0.0
40
3.2
1
66.18'
50
341.69
72
1
11
64.1628
21
-563.9112
31
0.0
73
3
0
POINT
8
SHEET_LABELS
10
104.2100
20
-574.0000
30
0.0
0
TEXT
8
SHEET_LABELS
7
STANDARD
10
8.0000
20
-350.0000
30
0.0
40
8.0
1
LOT Blk 9 - Lot 25   PASS
50
0.0
0
TEXT
8
SHEET_LABELS
7
STANDARD
10
8.0000
20
-361.0000
30
0.0
40
4.6
1
AREA 8,220 SF (0.189 ac)
50
0.0
0
TEXT
8
SHEET_LABELS
7
STANDARD
10
8.0000
20
-368.0000
30
0.0
40
4.0
1
PERIMETER 376.53'   VERTICES 4   CLOSING SIDE 0.00'
50
0.0
0
TEXT
8
SHEET_LABELS
7
STANDARD
10
8.0000
20
-375.0000
30
0.0
40
3.4
1
all geometric checks passed: closed single polyline, no self-intersection, no overlap, no spikes
50
0.0
0
LINE
8
SHEET_FRAME
10
340.0000
20
-600.0000
30
0.0
11
640.0000
21
-600.0000
31
0.0
0
LINE
8
SHEET_FRAME
10
640.0000
20
-600.0000
30
0.0
11
640.0000
21
-340.0000
31
0.0
0
LINE
8
SHEET_FRAME
10
640.0000
20
-340.0000
30
0.0
11
340.0000
21
-340.0000
31
0.0
0
LINE
8
SHEET_FRAME
10
340.0000
20
-340.0000
30
0.0
11
340.0000
21
-600.0000
31
0.0
0
POLYLINE
8
LOT_POLYLINE
66
1
70
1
0
VERTEX
8
LOT_POLYLINE
10
366.0028
20
-532.0093
30
0.0
0
VERTEX
8
LOT_POLYLINE
10
406.0243
20
-400.0000
30
0.0
0
VERTEX
8
LOT_POLYLINE
10
432.4195
20
-413.3332
30
0.0
0
VERTEX
8
LOT_POLYLINE
10
511.1136
20
-469.0631
30
0.0
0
VERTEX
8
LOT_POLYLINE
10
436.8264
20
-574.0000
30
0.0
0
VERTEX
8
LOT_POLYLINE
10
428.1071
20
-567.8251
30
0.0
0
SEQEND
0
POLYLINE
8
LOT_POLYLINE
66
1
70
0
0
VERTEX
8
LOT_POLYLINE
10
428.1071
20
-567.8251
30
0.0
0
VERTEX
8
LOT_POLYLINE
10
424.4300
20
-565.2530
30
0.0
0
VERTEX
8
LOT_POLYLINE
10
420.7232
20
-562.7239
30
0.0
0
VERTEX
8
LOT_POLYLINE
10
416.9873
20
-560.2381
30
0.0
0
VERTEX
8
LOT_POLYLINE
10
413.2227
20
-557.7959
30
0.0
0
VERTEX
8
LOT_POLYLINE
10
409.4299
20
-555.3977
30
0.0
0
VERTEX
8
LOT_POLYLINE
10
405.6094
20
-553.0438
30
0.0
0
VERTEX
8
LOT_POLYLINE
10
401.7619
20
-550.7345
30
0.0
0
VERTEX
8
LOT_POLYLINE
10
397.8877
20
-548.4701
30
0.0
0
VERTEX
8
LOT_POLYLINE
10
393.9874
20
-546.2509
30
0.0
0
VERTEX
8
LOT_POLYLINE
10
390.0616
20
-544.0773
30
0.0
0
VERTEX
8
LOT_POLYLINE
10
386.1108
20
-541.9495
30
0.0
0
VERTEX
8
LOT_POLYLINE
10
382.1354
20
-539.8678
30
0.0
0
VERTEX
8
LOT_POLYLINE
10
378.1361
20
-537.8325
30
0.0
0
VERTEX
8
LOT_POLYLINE
10
374.1134
20
-535.8439
30
0.0
0
VERTEX
8
LOT_POLYLINE
10
370.0679
20
-533.9022
30
0.0
0
VERTEX
8
LOT_POLYLINE
10
366.0000
20
-532.0077
30
0.0
0
SEQEND
0
TEXT
8
SHEET_LABELS
6
ROT_73.13
7
STANDARD
10
383.1426
20
-465.1342
30
0.0
40
3.4
1
N16%%d51'57.08"E
50
73.13
72
1
11
383.1426
21
-465.1342
31
0.0
73
1
0
TEXT
8
SHEET_LABELS
6
ROT_73.13
7
STANDARD
10
388.8845
20
-466.8750
30
0.0
40
3.2
1
107.29'
50
73.13
72
1
11
388.8845
21
-466.8750
31
0.0
73
3
0
POINT
8
SHEET_LABELS
10
366.0028
20
-532.0093
30
0.0
0
TEXT
8
SHEET_LABELS
6
ROT_333.20
7
STANDARD
10
420.5746
20
-403.9888
30
0.0
40
3.4
1
S63%%d12'00.00"E
50
333.2
72
1
11
420.5746
21
-403.9888
31
0.0
73
1
0
TEXT
8
SHEET_LABELS
6
ROT_333.20
7
STANDARD
10
417.8693
20
-409.3443
30
0.0
40
3.2
1
23.00'
50
333.2
72
1
11
417.8693
21
-409.3443
31
0.0
73
3
0
POINT
8
SHEET_LABELS
10
406.0243
20
-400.0000
30
0.0
0
TEXT
8
SHEET_LABELS
6
ROT_324.69
7
STANDARD
10
473.5004
20
-438.7499
30
0.0
40
3.4
1
S54%%d41'40.00"E
50
324.69
72
1
11
473.5004
21
-438.7499
31
0.0
73
1
0
TEXT
8
SHEET_LABELS
6
ROT_324.69
7
STANDARD
10
470.0328
20
-443.6464
30
0.0
40
3.2
1
75.00'
50
324.69
72
1
11
470.0328
21
-443.6464
31
0.0
73
3
0
POINT
8
SHEET_LABELS
10
432.4195
20
-413.3332
30
0.0
0
TEXT
8
SHEET_LABELS
6
ROT_54.70
7
STANDARD
10
471.5215
20
-519.7982
30
0.0
40
3.4
1
S35%%d17'43.97"W
50
54.7
72
1
11
471.5215
21
-519.7982
31
0.0
73
1
0
TEXT
8
SHEET_LABELS
6
ROT_54.70
7
STANDARD
10
476.4186
20
-523.2650
30
0.0
40
3.2
1
100.00'
50
54.7
72
1
11
476.4186
21
-523.2650
31
0.0
73
3
0
POINT
8
SHEET_LABELS
10
511.1136
20
-469.0631
30
0.0
0
TEXT
8
SHEET_LABELS
6
ROT_324.69
7
STANDARD
10
434.2006
20
-568.4643
30
0.0
40
3.4
1
N54%%d41'40.00"W
50
324.69
72
1
11
434.2006
21
-568.4643
31
0.0
73
1
0
TEXT
8
SHEET_LABELS
6
ROT_324.69
7
STANDARD
10
430.7330
20
-573.3608
30
0.0
40
3.2
1
8.31'
50
324.69
72
1
11
430.7330
21
-573.3608
31
0.0
73
3
0
POINT
8
SHEET_LABELS
10
436.8264
20
-574.0000
30
0.0
0
TEXT
8
SHEET_LABELS
6
ROT_330.03
7
STANDARD
10
398.5537
20
-547.3184
30
0.0
40
3.4
1
N60%%d01'40.00"W
50
330.03
72
1
11
398.5537
21
-547.3184
31
0.0
73
1
0
TEXT
8
SHEET_LABELS
6
ROT_330.03
7
STANDARD
10
395.5562
20
-552.5160
30
0.0
40
3.2
1
55.76'
50
330.03
72
1
11
395.5562
21
-552.5160
31
0.0
73
3
0
POINT
8
SHEET_LABELS
10
428.1071
20
-567.8251
30
0.0
0
TEXT
8
SHEET_LABELS
7
STANDARD
10
348.0000
20
-350.0000
30
0.0
40
8.0
1
LOT Blk 9 - Lot 24   PASS
50
0.0
0
TEXT
8
SHEET_LABELS
7
STANDARD
10
348.0000
20
-361.0000
30
0.0
40
4.6
1
AREA 8,281 SF (0.190 ac)
50
0.0
0
TEXT
8
SHEET_LABELS
7
STANDARD
10
348.0000
20
-368.0000
30
0.0
40
4.0
1
PERIMETER 369.36'   VERTICES 6   CLOSING SIDE 0.00'
50
0.0
0
TEXT
8
SHEET_LABELS
7
STANDARD
10
348.0000
20
-375.0000
30
0.0
40
3.4
1
all geometric checks passed: closed single polyline, no self-intersection, no overlap, no spikes
50
0.0
0
LINE
8
SHEET_FRAME
10
680.0000
20
-600.0000
30
0.0
11
980.0000
21
-600.0000
31
0.0
0
LINE
8
SHEET_FRAME
10
980.0000
20
-600.0000
30
0.0
11
980.0000
21
-340.0000
31
0.0
0
LINE
8
SHEET_FRAME
10
980.0000
20
-340.0000
30
0.0
11
680.0000
21
-340.0000
31
0.0
0
LINE
8
SHEET_FRAME
10
680.0000
20
-340.0000
30
0.0
11
680.0000
21
-600.0000
31
0.0
0
POLYLINE
8
LOT_POLYLINE
66
1
70
1
0
VERTEX
8
LOT_POLYLINE
10
706.0000
20
-513.6533
30
0.0
0
VERTEX
8
LOT_POLYLINE
10
786.4577
20
-400.0000
30
0.0
0
VERTEX
8
LOT_POLYLINE
10
871.6884
20
-460.3591
30
0.0
0
VERTEX
8
LOT_POLYLINE
10
791.2096
20
-574.0000
30
0.0
0
SEQEND
0
TEXT
8
SHEET_LABELS
6
ROT_54.70
7
STANDARD
10
743.7803
20
-455.0932
30
0.0
40
3.4
1
N35%%d17'43.97"E
50
54.7
72
1
11
743.7803
21
-455.0932
31
0.0
73
1
0
TEXT
8
SHEET_LABELS
6
ROT_54.70
7
STANDARD
10
748.6774
20
-458.5600
30
0.0
40
3.2
1
100.00'
50
54.7
72
1
11
748.6774
21
-458.5600
31
0.0
73
3
0
POINT
8
SHEET_LABELS
10
706.0000
20
-513.6533
30
0.0
0
TEXT
8
SHEET_LABELS
6
ROT_324.69
7
STANDARD
10
830.8069
20
-427.7313
30
0.0
40
3.4
1
S54%%d41'40.00"E
50
324.69
72
1
11
830.8069
21
-427.7313
31
0.0
73
1
0
TEXT
8
SHEET_LABELS
6
ROT_324.69
7
STANDARD
10
827.3393
20
-432.6278
30
0.0
40
3.2
1
75.00'
50
324.69
72
1
11
827.3393
21
-432.6278
31
0.0
73
3
0
POINT
8
SHEET_LABELS
10
786.4577
20
-400.0000
30
0.0
0
TEXT
8
SHEET_LABELS
6
ROT_54.69
7
STANDARD
10
829.0008
20
-515.4457
30
0.0
40
3.4
1
S35%%d18'20.00"W
50
54.69
72
1
11
829.0008
21
-515.4457
31
0.0
73
1
0
TEXT
8
SHEET_LABELS
6
ROT_54.69
7
STANDARD
10
833.8973
20
-518.9134
30
0.0
40
3.2
1
100.00'
50
54.69
72
1
11
833.8973
21
-518.9134
31
0.0
73
3
0
POINT
8
SHEET_LABELS
10
871.6884
20
-460.3591
30
0.0
0
TEXT
8
SHEET_LABELS
6
ROT_324.69
7
STANDARD
10
750.3387
20
-541.3784
30
0.0
40
3.4
1
N54%%d41'35.89"W
50
324.69
72
1
11
750.3387
21
-541.3784
31
0.0
73
1
0
TEXT
8
SHEET_LABELS
6
ROT_324.69
7
STANDARD
10
746.8710
20
-546.2748
30
0.0
40
3.2
1
74.98'
50
324.69
72
1
11
746.8710
21
-546.2748
31
0.0
73
3
0
POINT
8
SHEET_LABELS
10
791.2096
20
-574.0000
30
0.0
0
TEXT
8
SHEET_LABELS
7
STANDARD
10
688.0000
20
-350.0000
30
0.0
40
8.0
1
LOT Blk 9 - Lot 23   PASS
50
0.0
0
TEXT
8
SHEET_LABELS
7
STANDARD
10
688.0000
20
-361.0000
30
0.0
40
4.6
1
AREA 7,499 SF (0.172 ac)
50
0.0
0
TEXT
8
SHEET_LABELS
7
STANDARD
10
688.0000
20
-368.0000
30
0.0
40
4.0
1
PERIMETER 349.98'   VERTICES 4   CLOSING SIDE 0.00'
50
0.0
0
TEXT
8
SHEET_LABELS
7
STANDARD
10
688.0000
20
-375.0000
30
0.0
40
3.4
1
all geometric checks passed: closed single polyline, no self-intersection, no overlap, no spikes
50
0.0
0
ENDSEC
0
EOF
