0
SECTION
2
HEADER
9
$ACADVER
1
AC1009
9
$DWGCODEPAGE
3
ANSI_1252
0
ENDSEC
0
SECTION
2
TABLES
0
TABLE
2
LTYPE
70
7
0
LTYPE
2
CONTINUOUS
70
0
3
Solid
72
65
73
0
40
0.0
0
LTYPE
2
DASHED
70
0
3
Dashed
72
65
73
2
40
0.75
49
0.5
74
0
49
-0.25
74
0
0
LTYPE
2
DASHED2
70
0
3
Dashed (.5x)
72
65
73
2
40
0.375
49
0.25
74
0
49
-0.125
74
0
0
LTYPE
2
HIDDEN
70
0
3
Hidden
72
65
73
2
40
0.375
49
0.25
74
0
49
-0.125
74
0
0
LTYPE
2
CENTER
70
0
3
Center
72
65
73
4
40
2.0
49
1.25
74
0
49
-0.25
74
0
49
0.25
74
0
49
-0.25
74
0
0
LTYPE
2
PHANTOM
70
0
3
Phantom
72
65
73
6
40
2.5
49
1.25
74
0
49
-0.25
74
0
49
0.25
74
0
49
-0.25
74
0
49
0.25
74
0
49
-0.25
74
0
0
LTYPE
2
ROT_90.00
70
0
3
Solid
72
65
73
0
40
0.0
0
ENDTAB
0
TABLE
2
LAYER
70
14
0
LAYER
2
0
70
0
62
7
6
CONTINUOUS
0
LAYER
2
LOT_LINE
70
0
62
4
6
CONTINUOUS
0
LAYER
2
CURVE
70
0
62
6
6
CONTINUOUS
0
LAYER
2
RADIAL_LINE
70
0
62
1
6
DASHED
0
LAYER
2
BOUNDARY
70
0
62
7
6
CONTINUOUS
0
LAYER
2
MONUMENT
70
0
62
2
6
CONTINUOUS
0
LAYER
2
ROW_STREET
70
0
62
2
6
CONTINUOUS
0
LAYER
2
STREET_CL
70
0
62
2
6
DASHDOT
0
LAYER
2
EASEMENT
70
0
62
3
6
DASHED
0
LAYER
2
TEXT-LABELS
70
0
62
7
6
CONTINUOUS
0
LAYER
2
DIM-LABELS
70
0
62
3
6
CONTINUOUS
0
LAYER
2
TABLE_FRAME
70
0
62
7
6
CONTINUOUS
0
LAYER
2
TABLE_TEXT
70
0
62
4
6
CONTINUOUS
0
LAYER
2
TITLEBLOCK
70
0
62
2
6
CONTINUOUS
0
ENDTAB
0
TABLE
2
STYLE
70
4
0
STYLE
2
STANDARD
70
0
40
0.0
41
1.0
50
0.0
71
0
42
0.2
3
Arial
4

0
STYLE
2
ARIAL
70
0
40
0.0
41
1.0
50
0.0
71
0
42
0.2
3
Arial
4

0
STYLE
2
ARIAL_TTF
70
0
40
0.0
41
1.0
50
0.0
71
0
42
0.2
3
arial.ttf
4

0
STYLE
2
SIMPLEX
70
0
40
0.0
41
1.0
50
0.0
71
0
42
0.2
3
simplex.shx
4

0
ENDTAB
0
ENDSEC
0
SECTION
2
ENTITIES
0
POLYLINE
8
CURVE
66
1
70
0
0
VERTEX
8
CURVE
10
1074.9879
20
1001.3453
30
0.0
0
VERTEX
8
CURVE
10
1077.4401
20
1001.2689
30
0.0
0
VERTEX
8
CURVE
10
1079.8730
20
1000.9525
30
0.0
0
VERTEX
8
CURVE
10
1082.2632
20
1000.3991
30
0.0
0
VERTEX
8
CURVE
10
1084.5876
20
999.6142
30
0.0
0
VERTEX
8
CURVE
10
1086.8239
20
998.6052
30
0.0
0
VERTEX
8
CURVE
10
1088.9505
20
997.3818
30
0.0
0
VERTEX
8
CURVE
10
1090.9470
20
995.9559
30
0.0
0
VERTEX
8
CURVE
10
1092.7941
20
994.3412
30
0.0
0
VERTEX
8
CURVE
10
1094.4740
20
992.5532
30
0.0
0
VERTEX
8
CURVE
10
1095.9706
20
990.6092
30
0.0
0
VERTEX
8
CURVE
10
1097.2695
20
988.5278
30
0.0
0
VERTEX
8
CURVE
10
1098.3580
20
986.3292
30
0.0
0
VERTEX
8
CURVE
10
1099.2258
20
984.0344
30
0.0
0
VERTEX
8
CURVE
10
1099.8646
20
981.6656
30
0.0
0
VERTEX
8
CURVE
10
1100.2680
20
979.2456
30
0.0
0
VERTEX
8
CURVE
10
1100.4323
20
976.7977
30
0.0
0
SEQEND
0
POLYLINE
8
LOT_LINE
66
1
70
1
0
VERTEX
8
LOT_LINE
10
1001.7937
20
900.0161
30
0.0
0
VERTEX
8
LOT_LINE
10
1000.0000
20
1000.0000
30
0.0
0
VERTEX
8
LOT_LINE
10
1074.9879
20
1001.3453
30
0.0
0
VERTEX
8
LOT_LINE
10
1077.4401
20
1001.2689
30
0.0
0
VERTEX
8
LOT_LINE
10
1079.8730
20
1000.9525
30
0.0
0
VERTEX
8
LOT_LINE
10
1082.2632
20
1000.3991
30
0.0
0
VERTEX
8
LOT_LINE
10
1084.5876
20
999.6142
30
0.0
0
VERTEX
8
LOT_LINE
10
1086.8239
20
998.6052
30
0.0
0
VERTEX
8
LOT_LINE
10
1088.9505
20
997.3818
30
0.0
0
VERTEX
8
LOT_LINE
10
1090.9470
20
995.9559
30
0.0
0
VERTEX
8
LOT_LINE
10
1092.7941
20
994.3412
30
0.0
0
VERTEX
8
LOT_LINE
10
1094.4740
20
992.5532
30
0.0
0
VERTEX
8
LOT_LINE
10
1095.9706
20
990.6092
30
0.0
0
VERTEX
8
LOT_LINE
10
1097.2695
20
988.5278
30
0.0
0
VERTEX
8
LOT_LINE
10
1098.3580
20
986.3292
30
0.0
0
VERTEX
8
LOT_LINE
10
1099.2258
20
984.0344
30
0.0
0
VERTEX
8
LOT_LINE
10
1099.8646
20
981.6656
30
0.0
0
VERTEX
8
LOT_LINE
10
1100.2680
20
979.2456
30
0.0
0
VERTEX
8
LOT_LINE
10
1100.4323
20
976.7977
30
0.0
0
VERTEX
8
LOT_LINE
10
1101.7776
20
901.8098
30
0.0
0
SEQEND
0
ARC
8
CURVE
10
1075.4364
20
976.3493
30
0.0
40
25.0000
50
1.0278
51
91.0278
0
TEXT
8
TEXT-LABELS
7
STANDARD
10
1055.7983
20
955.9938
30
0.0
40
8.0
1
1
50
0.0
0
TEXT
8
DIM-LABELS
7
STANDARD
10
1004.3963
20
950.0708
30
0.0
40
5.5
1
100.0'
50
0.0
0
TEXT
8
DIM-LABELS
7
STANDARD
10
1037.5567
20
997.1732
30
0.0
40
5.5
1
75.0'
50
0.0
0
TEXT
8
DIM-LABELS
7
STANDARD
10
1085.2801
20
986.5526
30
0.0
40
5.5
1
35.4'
50
0.0
0
TEXT
8
DIM-LABELS
7
STANDARD
10
1097.6055
20
939.2410
30
0.0
40
5.5
1
75.0'
50
0.0
0
TEXT
8
DIM-LABELS
7
STANDARD
10
1051.7229
20
904.4124
30
0.0
40
5.5
1
100.0'
50
0.0
0
POLYLINE
8
LOT_LINE
66
1
70
1
0
VERTEX
8
LOT_LINE
10
1003.1794
20
822.7785
30
0.0
0
VERTEX
8
LOT_LINE
10
1001.7937
20
900.0161
30
0.0
0
VERTEX
8
LOT_LINE
10
1101.7776
20
901.8098
30
0.0
0
VERTEX
8
LOT_LINE
10
1103.1633
20
824.5722
30
0.0
0
SEQEND
0
TEXT
8
TEXT-LABELS
7
STANDARD
10
1052.4785
20
862.2942
30
0.0
40
8.0
1
2
50
0.0
0
TEXT
8
DIM-LABELS
7
STANDARD
10
1005.9860
20
861.4601
30
0.0
40
5.5
1
77.2'
50
0.0
0
TEXT
8
DIM-LABELS
7
STANDARD
10
1051.8485
20
897.4135
30
0.0
40
5.5
1
100.0'
50
0.0
0
TEXT
8
DIM-LABELS
7
STANDARD
10
1098.9710
20
863.1282
30
0.0
40
5.5
1
77.2'
50
0.0
0
TEXT
8
DIM-LABELS
7
STANDARD
10
1053.1085
20
827.1748
30
0.0
40
5.5
1
100.0'
50
0.0
0
POLYLINE
8
LOT_LINE
66
1
70
1
0
VERTEX
8
LOT_LINE
10
1004.5650
20
745.5409
30
0.0
0
VERTEX
8
LOT_LINE
10
1003.1794
20
822.7785
30
0.0
0
VERTEX
8
LOT_LINE
10
1103.1633
20
824.5722
30
0.0
0
VERTEX
8
LOT_LINE
10
1104.5489
20
747.3347
30
0.0
0
SEQEND
0
TEXT
8
TEXT-LABELS
7
STANDARD
10
1053.8641
20
785.0566
30
0.0
40
8.0
1
3
50
0.0
0
TEXT
8
DIM-LABELS
7
STANDARD
10
1007.3716
20
784.2225
30
0.0
40
5.5
1
77.2'
50
0.0
0
TEXT
8
DIM-LABELS
7
STANDARD
10
1053.2341
20
820.1759
30
0.0
40
5.5
1
100.0'
50
0.0
0
TEXT
8
DIM-LABELS
7
STANDARD
10
1100.3567
20
785.8907
30
0.0
40
5.5
1
77.2'
50
0.0
0
TEXT
8
DIM-LABELS
7
STANDARD
10
1054.4942
20
749.9372
30
0.0
40
5.5
1
100.0'
50
0.0
0
POLYLINE
8
LOT_LINE
66
1
70
1
0
VERTEX
8
LOT_LINE
10
1005.9506
20
668.3034
30
0.0
0
VERTEX
8
LOT_LINE
10
1004.5650
20
745.5409
30
0.0
0
VERTEX
8
LOT_LINE
10
1104.5489
20
747.3347
30
0.0
0
VERTEX
8
LOT_LINE
10
1105.9346
20
670.0971
30
0.0
0
SEQEND
0
TEXT
8
TEXT-LABELS
7
STANDARD
10
1055.2498
20
707.8190
30
0.0
40
8.0
1
4
50
0.0
0
TEXT
8
DIM-LABELS
7
STANDARD
10
1008.7573
20
706.9849
30
0.0
40
5.5
1
77.2'
50
0.0
0
TEXT
8
DIM-LABELS
7
STANDARD
10
1054.6197
20
742.9384
30
0.0
40
5.5
1
100.0'
50
0.0
0
TEXT
8
DIM-LABELS
7
STANDARD
10
1101.7423
20
708.6531
30
0.0
40
5.5
1
77.2'
50
0.0
0
TEXT
8
DIM-LABELS
7
STANDARD
10
1055.8798
20
672.6997
30
0.0
40
5.5
1
100.0'
50
0.0
0
POLYLINE
8
LOT_LINE
66
1
70
1
0
VERTEX
8
LOT_LINE
10
1007.3363
20
591.0658
30
0.0
0
VERTEX
8
LOT_LINE
10
1005.9506
20
668.3034
30
0.0
0
VERTEX
8
LOT_LINE
10
1105.9346
20
670.0971
30
0.0
0
VERTEX
8
LOT_LINE
10
1107.3202
20
592.8595
30
0.0
0
SEQEND
0
TEXT
8
TEXT-LABELS
7
STANDARD
10
1056.6354
20
630.5814
30
0.0
40
8.0
1
5
50
0.0
0
TEXT
8
DIM-LABELS
7
STANDARD
10
1010.1429
20
629.7474
30
0.0
40
5.5
1
77.2'
50
0.0
0
TEXT
8
DIM-LABELS
7
STANDARD
10
1056.0054
20
665.7008
30
0.0
40
5.5
1
100.0'
50
0.0
0
TEXT
8
DIM-LABELS
7
STANDARD
10
1103.1279
20
631.4155
30
0.0
40
5.5
1
77.2'
50
0.0
0
TEXT
8
DIM-LABELS
7
STANDARD
10
1057.2655
20
595.4621
30
0.0
40
5.5
1
100.0'
50
0.0
0
POLYLINE
8
LOT_LINE
66
1
70
1
0
VERTEX
8
LOT_LINE
10
1008.7219
20
513.8282
30
0.0
0
VERTEX
8
LOT_LINE
10
1007.3363
20
591.0658
30
0.0
0
VERTEX
8
LOT_LINE
10
1107.3202
20
592.8595
30
0.0
0
VERTEX
8
LOT_LINE
10
1108.7058
20
515.6219
30
0.0
0
SEQEND
0
TEXT
8
TEXT-LABELS
7
STANDARD
10
1058.0211
20
553.3439
30
0.0
40
8.0
1
6
50
0.0
0
TEXT
8
DIM-LABELS
7
STANDARD
10
1011.5286
20
552.5098
30
0.0
40
5.5
1
77.2'
50
0.0
0
TEXT
8
DIM-LABELS
7
STANDARD
10
1057.3910
20
588.4632
30
0.0
40
5.5
1
100.0'
50
0.0
0
TEXT
8
DIM-LABELS
7
STANDARD
10
1104.5136
20
554.1779
30
0.0
40
5.5
1
77.2'
50
0.0
0
TEXT
8
DIM-LABELS
7
STANDARD
10
1058.6511
20
518.2245
30
0.0
40
5.5
1
100.0'
50
0.0
0
POLYLINE
8
LOT_LINE
66
1
70
1
0
VERTEX
8
LOT_LINE
10
1010.1076
20
436.5907
30
0.0
0
VERTEX
8
LOT_LINE
10
1008.7219
20
513.8282
30
0.0
0
VERTEX
8
LOT_LINE
10
1108.7058
20
515.6219
30
0.0
0
VERTEX
8
LOT_LINE
10
1110.0915
20
438.3844
30
0.0
0
SEQEND
0
TEXT
8
TEXT-LABELS
7
STANDARD
10
1059.4067
20
476.1063
30
0.0
40
8.0
1
7
50
0.0
0
TEXT
8
DIM-LABELS
7
STANDARD
10
1012.9142
20
475.2722
30
0.0
40
5.5
1
77.2'
50
0.0
0
TEXT
8
DIM-LABELS
7
STANDARD
10
1058.7767
20
511.2256
30
0.0
40
5.5
1
100.0'
50
0.0
0
TEXT
8
DIM-LABELS
7
STANDARD
10
1105.8992
20
476.9404
30
0.0
40
5.5
1
77.2'
50
0.0
0
TEXT
8
DIM-LABELS
7
STANDARD
10
1060.0368
20
440.9870
30
0.0
40
5.5
1
100.0'
50
0.0
0
POLYLINE
8
LOT_LINE
66
1
70
1
0
VERTEX
8
LOT_LINE
10
1011.4932
20
359.3531
30
0.0
0
VERTEX
8
LOT_LINE
10
1010.1076
20
436.5907
30
0.0
0
VERTEX
8
LOT_LINE
10
1110.0915
20
438.3844
30
0.0
0
VERTEX
8
LOT_LINE
10
1111.4771
20
361.1468
30
0.0
0
SEQEND
0
TEXT
8
TEXT-LABELS
7
STANDARD
10
1060.7924
20
398.8687
30
0.0
40
8.0
1
8
50
0.0
0
TEXT
8
DIM-LABELS
7
STANDARD
10
1014.2998
20
398.0347
30
0.0
40
5.5
1
77.2'
50
0.0
0
TEXT
8
DIM-LABELS
7
STANDARD
10
1060.1623
20
433.9881
30
0.0
40
5.5
1
100.0'
50
0.0
0
TEXT
8
DIM-LABELS
7
STANDARD
10
1107.2849
20
399.7028
30
0.0
40
5.5
1
77.2'
50
0.0
0
TEXT
8
DIM-LABELS
7
STANDARD
10
1061.4224
20
363.7494
30
0.0
40
5.5
1
100.0'
50
0.0
0
POLYLINE
8
LOT_LINE
66
1
70
1
0
VERTEX
8
LOT_LINE
10
1012.8789
20
282.1155
30
0.0
0
VERTEX
8
LOT_LINE
10
1011.4932
20
359.3531
30
0.0
0
VERTEX
8
LOT_LINE
10
1111.4771
20
361.1468
30
0.0
0
VERTEX
8
LOT_LINE
10
1112.8628
20
283.9092
30
0.0
0
SEQEND
0
TEXT
8
TEXT-LABELS
7
STANDARD
10
1062.1780
20
321.6312
30
0.0
40
8.0
1
9
50
0.0
0
TEXT
8
DIM-LABELS
7
STANDARD
10
1015.6855
20
320.7971
30
0.0
40
5.5
1
77.2'
50
0.0
0
TEXT
8
DIM-LABELS
7
STANDARD
10
1061.5480
20
356.7505
30
0.0
40
5.5
1
100.0'
50
0.0
0
TEXT
8
DIM-LABELS
7
STANDARD
10
1108.6705
20
322.4652
30
0.0
40
5.5
1
77.2'
50
0.0
0
TEXT
8
DIM-LABELS
7
STANDARD
10
1062.8080
20
286.5118
30
0.0
40
5.5
1
100.0'
50
0.0
0
POLYLINE
8
LOT_LINE
66
1
70
1
0
VERTEX
8
LOT_LINE
10
1014.2586
20
205.2079
30
0.0
0
VERTEX
8
LOT_LINE
10
1012.8789
20
282.1155
30
0.0
0
VERTEX
8
LOT_LINE
10
1112.8628
20
283.9092
30
0.0
0
VERTEX
8
LOT_LINE
10
1114.2425
20
207.0016
30
0.0
0
SEQEND
0
TEXT
8
TEXT-LABELS
7
STANDARD
10
1063.5607
20
244.5586
30
0.0
40
8.0
1
10
50
0.0
0
TEXT
8
DIM-LABELS
7
STANDARD
10
1017.0682
20
243.7245
30
0.0
40
5.5
1
76.9'
50
0.0
0
TEXT
8
DIM-LABELS
7
STANDARD
10
1062.9336
20
279.5129
30
0.0
40
5.5
1
100.0'
50
0.0
0
TEXT
8
DIM-LABELS
7
STANDARD
10
1110.0532
20
245.3926
30
0.0
40
5.5
1
76.9'
50
0.0
0
TEXT
8
DIM-LABELS
7
STANDARD
10
1064.1878
20
209.6042
30
0.0
40
5.5
1
100.0'
50
0.0
0
POLYLINE
8
CURVE
66
1
70
0
0
VERTEX
8
CURVE
10
1115.5852
20
132.1578
30
0.0
0
VERTEX
8
CURVE
10
1115.5081
20
129.6965
30
0.0
0
VERTEX
8
CURVE
10
1115.1892
20
127.2548
30
0.0
0
VERTEX
8
CURVE
10
1114.6316
20
124.8563
30
0.0
0
VERTEX
8
CURVE
10
1113.8408
20
122.5242
30
0.0
0
VERTEX
8
CURVE
10
1112.8244
20
120.2813
30
0.0
0
VERTEX
8
CURVE
10
1111.5922
20
118.1493
30
0.0
0
VERTEX
8
CURVE
10
1110.1563
20
116.1488
30
0.0
0
VERTEX
8
CURVE
10
1108.5306
20
114.2993
30
0.0
0
VERTEX
8
CURVE
10
1106.7308
20
112.6187
30
0.0
0
VERTEX
8
CURVE
10
1104.7743
20
111.1233
30
0.0
0
VERTEX
8
CURVE
10
1102.6803
20
109.8277
30
0.0
0
VERTEX
8
CURVE
10
1100.4689
20
108.7443
30
0.0
0
VERTEX
8
CURVE
10
1098.1617
20
107.8838
30
0.0
0
VERTEX
8
CURVE
10
1095.7811
20
107.2544
30
0.0
0
VERTEX
8
CURVE
10
1093.3500
20
106.8622
30
0.0
0
VERTEX
8
CURVE
10
1090.8922
20
106.7111
30
0.0
0
SEQEND
0
POLYLINE
8
LOT_LINE
66
1
70
1
0
VERTEX
8
LOT_LINE
10
1016.0419
20
105.8039
30
0.0
0
VERTEX
8
LOT_LINE
10
1014.2586
20
205.2079
30
0.0
0
VERTEX
8
LOT_LINE
10
1114.2425
20
207.0016
30
0.0
0
VERTEX
8
LOT_LINE
10
1115.5852
20
132.1578
30
0.0
0
VERTEX
8
LOT_LINE
10
1115.5081
20
129.6965
30
0.0
0
VERTEX
8
LOT_LINE
10
1115.1892
20
127.2548
30
0.0
0
VERTEX
8
LOT_LINE
10
1114.6316
20
124.8563
30
0.0
0
VERTEX
8
LOT_LINE
10
1113.8408
20
122.5242
30
0.0
0
VERTEX
8
LOT_LINE
10
1112.8244
20
120.2813
30
0.0
0
VERTEX
8
LOT_LINE
10
1111.5922
20
118.1493
30
0.0
0
VERTEX
8
LOT_LINE
10
1110.1563
20
116.1488
30
0.0
0
VERTEX
8
LOT_LINE
10
1108.5306
20
114.2993
30
0.0
0
VERTEX
8
LOT_LINE
10
1106.7308
20
112.6187
30
0.0
0
VERTEX
8
LOT_LINE
10
1104.7743
20
111.1233
30
0.0
0
VERTEX
8
LOT_LINE
10
1102.6803
20
109.8277
30
0.0
0
VERTEX
8
LOT_LINE
10
1100.4689
20
108.7443
30
0.0
0
VERTEX
8
LOT_LINE
10
1098.1617
20
107.8838
30
0.0
0
VERTEX
8
LOT_LINE
10
1095.7811
20
107.2544
30
0.0
0
VERTEX
8
LOT_LINE
10
1093.3500
20
106.8622
30
0.0
0
VERTEX
8
LOT_LINE
10
1090.8922
20
106.7111
30
0.0
0
SEQEND
0
ARC
8
CURVE
10
1090.5892
20
131.7093
30
0.0
40
25.0000
50
270.6944
51
1.0278
0
TEXT
8
TEXT-LABELS
7
STANDARD
10
1070.2041
20
151.3765
30
0.0
40
8.0
1
11
50
0.0
0
TEXT
8
DIM-LABELS
7
STANDARD
10
1018.6497
20
155.5687
30
0.0
40
5.5
1
99.4'
50
0.0
0
TEXT
8
DIM-LABELS
7
STANDARD
10
1064.3133
20
202.6053
30
0.0
40
5.5
1
100.0'
50
0.0
0
TEXT
8
DIM-LABELS
7
STANDARD
10
1111.4144
20
169.5169
30
0.0
40
5.5
1
74.9'
50
0.0
0
TEXT
8
DIM-LABELS
7
STANDARD
10
1100.7269
20
121.8719
30
0.0
40
5.5
1
35.5'
50
0.0
0
TEXT
8
DIM-LABELS
7
STANDARD
10
1053.4246
20
109.7573
30
0.0
40
5.5
1
74.9'
50
0.0
0
LINE
8
ROW_STREET
10
1001.6682
20
1092.9850
30
0.0
11
1001.7937
21
1099.9839
31
0.0
0
LINE
8
ROW_STREET
10
1001.7937
20
1099.9839
30
0.0
11
994.7948
21
1100.1095
31
0.0
0
TEXT
8
DIM-LABELS
7
STANDARD
10
1101.9839
20
1003.7937
30
0.0
40
3.2
1
P.I.
50
0.0
0
LINE
8
RADIAL_LINE
10
1001.3453
20
1074.9879
30
0.0
11
1001.7937
21
1099.9839
31
0.0
0
LINE
8
RADIAL_LINE
10
976.7977
20
1100.4323
30
0.0
11
1001.7937
21
1099.9839
31
0.0
0
LINE
8
RADIAL_LINE
10
976.3493
20
1075.4364
30
0.0
11
1001.3453
21
1074.9879
31
0.0
0
LINE
8
RADIAL_LINE
10
976.3493
20
1075.4364
30
0.0
11
976.7977
21
1100.4323
31
0.0
0
TEXT
8
TEXT-LABELS
7
STANDARD
10
1060.4364
20
971.3493
30
0.0
40
3.0
1
R=25.00'
50
0.0
0
LINE
8
ROW_STREET
10
106.9311
20
1109.0368
30
0.0
11
107.0159
21
1116.0363
31
0.0
0
LINE
8
ROW_STREET
10
107.0159
20
1116.0363
30
0.0
11
114.0148
21
1115.9107
31
0.0
0
TEXT
8
DIM-LABELS
7
STANDARD
10
1118.0363
20
109.0159
30
0.0
40
3.2
1
P.I.
50
0.0
0
LINE
8
RADIAL_LINE
10
132.1578
20
1115.5852
30
0.0
11
107.0159
21
1116.0363
31
0.0
0
LINE
8
RADIAL_LINE
10
106.7111
20
1090.8922
30
0.0
11
107.0159
21
1116.0363
31
0.0
0
LINE
8
RADIAL_LINE
10
131.7093
20
1090.5892
30
0.0
11
132.1578
21
1115.5852
31
0.0
0
LINE
8
RADIAL_LINE
10
131.7093
20
1090.5892
30
0.0
11
106.7111
21
1090.8922
31
0.0
0
TEXT
8
TEXT-LABELS
7
STANDARD
10
1075.5892
20
134.7093
30
0.0
40
3.0
1
R=25.00'
50
0.0
0
POINT
8
MONUMENT
10
1101.7776
20
901.8098
30
0.0
0
POLYLINE
8
MONUMENT
66
1
70
1
0
VERTEX
8
MONUMENT
10
1104.2776
20
901.8098
30
0.0
0
VERTEX
8
MONUMENT
10
1103.5454
20
903.5776
30
0.0
0
VERTEX
8
MONUMENT
10
1101.7776
20
904.3098
30
0.0
0
VERTEX
8
MONUMENT
10
1100.0099
20
903.5776
30
0.0
0
VERTEX
8
MONUMENT
10
1099.2776
20
901.8098
30
0.0
0
VERTEX
8
MONUMENT
10
1100.0099
20
900.0420
30
0.0
0
VERTEX
8
MONUMENT
10
1101.7776
20
899.3098
30
0.0
0
VERTEX
8
MONUMENT
10
1103.5454
20
900.0420
30
0.0
0
SEQEND
0
TEXT
8
MONUMENT
7
STANDARD
10
1106.7776
20
903.8098
30
0.0
40
3.8
1
P.R.M. (Lot 1/2)
50
0.0
0
POINT
8
MONUMENT
10
1114.2425
20
207.0016
30
0.0
0
POLYLINE
8
MONUMENT
66
1
70
1
0
VERTEX
8
MONUMENT
10
1116.7425
20
207.0016
30
0.0
0
VERTEX
8
MONUMENT
10
1116.0103
20
208.7694
30
0.0
0
VERTEX
8
MONUMENT
10
1114.2425
20
209.5016
30
0.0
0
VERTEX
8
MONUMENT
10
1112.4747
20
208.7694
30
0.0
0
VERTEX
8
MONUMENT
10
1111.7425
20
207.0016
30
0.0
0
VERTEX
8
MONUMENT
10
1112.4747
20
205.2338
30
0.0
0
VERTEX
8
MONUMENT
10
1114.2425
20
204.5016
30
0.0
0
VERTEX
8
MONUMENT
10
1116.0103
20
205.2338
30
0.0
0
SEQEND
0
TEXT
8
MONUMENT
7
STANDARD
10
1119.2425
20
209.0016
30
0.0
40
3.8
1
P.R.M. (Lot 10/11)
50
0.0
0
LINE
8
BOUNDARY
10
999.1031
20
950.0080
30
0.0
11
104.9070
21
966.0499
31
0.0
0
TEXT
8
BOUNDARY
6
ROT_90.00
7
STANDARD
10
946.0290
20
552.0051
30
0.0
40
4.5
1
S. 1%%d 01' 40" E. - 1509.24' (WEST SUBDIVISION BOUNDARY)
50
90.0
0
TEXT
8
ROW_STREET
6
ROT_90.00
7
STANDARD
10
973.0290
20
552.0051
30
0.0
40
4.0
1
50' RIGHT-OF-WAY FOR DRAINAGE AND UTILITIES
50
90.0
0
LINE
8
EASEMENT
10
1000.0897
20
1004.9992
30
0.0
11
105.8936
21
1021.0411
31
0.0
0
TEXT
8
EASEMENT
6
ROT_90.00
7
STANDARD
10
1015.0201
20
552.9916
30
0.0
40
3.0
1
5' EASEMENT
50
90.0
0
LINE
8
EASEMENT
10
827.7777
20
1003.0897
30
0.0
11
829.5714
21
1103.0736
31
0.0
0
LINE
8
EASEMENT
10
817.7793
20
1003.2690
30
0.0
11
819.5730
21
1103.2530
31
0.0
0
TEXT
8
EASEMENT
7
STANDARD
10
1038.1713
20
824.6754
30
0.0
40
2.8
1
10' EASEMENT
50
0.0
0
LINE
8
EASEMENT
10
364.3523
20
1011.4035
30
0.0
11
366.1460
21
1111.3875
31
0.0
0
LINE
8
EASEMENT
10
354.3539
20
1011.5829
30
0.0
11
356.1476
21
1111.5668
31
0.0
0
TEXT
8
EASEMENT
7
STANDARD
10
1046.4852
20
361.2499
30
0.0
40
2.8
1
10' EASEMENT
50
0.0
0
LINE
8
STREET_CL
10
977.3359
20
1130.4275
30
0.0
11
132.6959
21
1145.5804
31
0.0
0
TEXT
8
ROW_STREET
6
ROT_90.00
7
STANDARD
10
1146.0039
20
555.0159
30
0.0
40
5.5
1
MANGROVE AVENUE (60' R/W) -- N 01%%d01'40" W
50
90.0
0
LINE
8
STREET_CL
10
76.7160
20
1091.4303
30
0.0
11
74.9119
21
966.5881
31
0.0
0
TEXT
8
ROW_STREET
7
STANDARD
10
1009.0092
20
64.7160
30
0.0
40
5.0
1
SURFWOOD AVENUE (60' R/W) -- N 89%%d18'20" E
50
0.0
0
LINE
8
STREET_CL
10
1031.3405
20
1074.4498
30
0.0
11
1029.0983
21
949.4699
31
0.0
0
TEXT
8
ROW_STREET
7
STANDARD
10
991.9599
20
1039.3405
30
0.0
40
5.0
1
60' CROSS STREET -- N 88%%d58'20" E
50
0.0
0
TEXT
8
TITLEBLOCK
7
STANDARD
10
960.0000
20
1070.0000
30
0.0
40
9.0
1
BEACHWOOD UNIT TWO -- BLOCK 13 MAPCHECK AUDIT
50
0.0
0
TEXT
8
TITLEBLOCK
7
STANDARD
10
960.0000
20
1055.0000
30
0.0
40
5.5
1
Plat Book 30, Pages 82 & 82A, Duval County, FL | 100% Survey-Grade Closed (11 Lots)
50
0.0
0
TEXT
8
TITLEBLOCK
7
STANDARD
10
1171.7776
20
1000.0000
30
0.0
40
4.5
1
CURVE TABLE (BLOCK 13)
50
0.0
0
TEXT
8
TABLE_FRAME
7
STANDARD
10
1171.7776
20
992.0000
30
0.0
40
3.0
1
Tag   | Radius  | Delta      | Arc     | Tan     | Chord   | Chord Bearing
50
0.0
0
LINE
8
TABLE_FRAME
10
990.0000
20
1171.7776
30
0.0
11
990.0000
21
1411.7776
31
0.0
0
TEXT
8
TABLE_TEXT
7
STANDARD
10
1171.7776
20
984.0000
30
0.0
40
2.8
1
C1    | 25.00   | 90%%d00'00"  | 39.27   | 25.00   | 35.36   | S46%%d01'40"E
50
0.0
0
TEXT
8
TABLE_TEXT
7
STANDARD
10
1171.7776
20
978.0000
30
0.0
40
2.8
1
C2    | 25.00   | 90%%d20'00"  | 39.42   | 25.15   | 35.46   | S44%%d08'20"W
50
0.0
0
TEXT
8
TITLEBLOCK
7
STANDARD
10
1171.7776
20
957.0000
30
0.0
40
4.5
1
LINE TABLE (BLOCK 13)
50
0.0
0
TEXT
8
TABLE_FRAME
7
STANDARD
10
1171.7776
20
949.0000
30
0.0
40
3.0
1
Tag   | Bearing        | Dist (ft)  | Description
50
0.0
0
LINE
8
TABLE_FRAME
10
947.0000
20
1171.7776
30
0.0
11
947.0000
21
1411.7776
31
0.0
0
TEXT
8
TABLE_TEXT
7
STANDARD
10
1171.7776
20
941.0000
30
0.0
40
2.6
1
L1    | N88%%d58'20"E    | 75.00      | Lot 1 North Tangent to P.C.
50
0.0
0
TEXT
8
TABLE_TEXT
7
STANDARD
10
1171.7776
20
935.5000
30
0.0
40
2.6
1
L2    | S01%%d01'40"E    | 75.00      | Lot 1 Frontage P.T. to Lot 1/2 PRM
50
0.0
0
TEXT
8
TABLE_TEXT
7
STANDARD
10
1171.7776
20
930.0000
30
0.0
40
2.6
1
L3    | S88%%d58'20"W    | 100.00     | Lot 1/2 Dividing Line
50
0.0
0
TEXT
8
TABLE_TEXT
7
STANDARD
10
1171.7776
20
924.5000
30
0.0
40
2.6
1
L4    | N01%%d01'40"W    | 100.00     | Lot 1 Rear Line on Drainage R/W
50
0.0
0
TEXT
8
TABLE_TEXT
7
STANDARD
10
1171.7776
20
919.0000
30
0.0
40
2.6
1
L5    | S01%%d01'40"E    | 77.25      | Lot 2 Frontage on Mangrove Ave
50
0.0
0
TEXT
8
TABLE_TEXT
7
STANDARD
10
1171.7776
20
913.5000
30
0.0
40
2.6
1
L6    | S88%%d58'20"W    | 100.00     | Lot 2/3 Dividing Line (10' Esmt)
50
0.0
0
TEXT
8
TABLE_TEXT
7
STANDARD
10
1171.7776
20
908.0000
30
0.0
40
2.6
1
L7    | N01%%d01'40"W    | 77.25      | Lot 2 Rear Line on Drainage R/W
50
0.0
0
TEXT
8
TABLE_TEXT
7
STANDARD
10
1171.7776
20
902.5000
30
0.0
40
2.6
1
L8    | S01%%d01'40"E    | 77.25      | Lot 3 Frontage on Mangrove Ave
50
0.0
0
TEXT
8
TABLE_TEXT
7
STANDARD
10
1171.7776
20
897.0000
30
0.0
40
2.6
1
L9    | S88%%d58'20"W    | 100.00     | Lot 3/4 Dividing Line
50
0.0
0
TEXT
8
TABLE_TEXT
7
STANDARD
10
1171.7776
20
891.5000
30
0.0
40
2.6
1
L10   | N01%%d01'40"W    | 77.25      | Lot 3 Rear Line on Drainage R/W
50
0.0
0
TEXT
8
TABLE_TEXT
7
STANDARD
10
1171.7776
20
886.0000
30
0.0
40
2.6
1
L11   | S01%%d01'40"E    | 77.25      | Lot 4 Frontage on Mangrove Ave
50
0.0
0
TEXT
8
TABLE_TEXT
7
STANDARD
10
1171.7776
20
880.5000
30
0.0
40
2.6
1
L12   | S88%%d58'20"W    | 100.00     | Lot 4/5 Dividing Line
50
0.0
0
TEXT
8
TABLE_TEXT
7
STANDARD
10
1171.7776
20
875.0000
30
0.0
40
2.6
1
L13   | N01%%d01'40"W    | 77.25      | Lot 4 Rear Line on Drainage R/W
50
0.0
0
TEXT
8
TABLE_TEXT
7
STANDARD
10
1171.7776
20
869.5000
30
0.0
40
2.6
1
L14   | S01%%d01'40"E    | 77.25      | Lot 5 Frontage on Mangrove Ave
50
0.0
0
TEXT
8
TABLE_TEXT
7
STANDARD
10
1171.7776
20
864.0000
30
0.0
40
2.6
1
L15   | S88%%d58'20"W    | 100.00     | Lot 5/6 Dividing Line
50
0.0
0
TEXT
8
TABLE_TEXT
7
STANDARD
10
1171.7776
20
858.5000
30
0.0
40
2.6
1
L16   | N01%%d01'40"W    | 77.25      | Lot 5 Rear Line on Drainage R/W
50
0.0
0
TEXT
8
TABLE_TEXT
7
STANDARD
10
1171.7776
20
853.0000
30
0.0
40
2.6
1
L17   | S01%%d01'40"E    | 77.25      | Lot 6 Frontage on Mangrove Ave
50
0.0
0
TEXT
8
TABLE_TEXT
7
STANDARD
10
1171.7776
20
847.5000
30
0.0
40
2.6
1
L18   | S88%%d58'20"W    | 100.00     | Lot 6/7 Dividing Line
50
0.0
0
TEXT
8
TABLE_TEXT
7
STANDARD
10
1171.7776
20
842.0000
30
0.0
40
2.6
1
L19   | N01%%d01'40"W    | 77.25      | Lot 6 Rear Line on Drainage R/W
50
0.0
0
TEXT
8
TABLE_TEXT
7
STANDARD
10
1171.7776
20
836.5000
30
0.0
40
2.6
1
L20   | S01%%d01'40"E    | 77.25      | Lot 7 Frontage on Mangrove Ave
50
0.0
0
TEXT
8
TABLE_TEXT
7
STANDARD
10
1171.7776
20
831.0000
30
0.0
40
2.6
1
L21   | S88%%d58'20"W    | 100.00     | Lot 7/8 Dividing Line
50
0.0
0
TEXT
8
TABLE_TEXT
7
STANDARD
10
1171.7776
20
825.5000
30
0.0
40
2.6
1
L22   | N01%%d01'40"W    | 77.25      | Lot 7 Rear Line on Drainage R/W
50
0.0
0
TEXT
8
TABLE_TEXT
7
STANDARD
10
1171.7776
20
820.0000
30
0.0
40
2.6
1
L23   | S01%%d01'40"E    | 77.25      | Lot 8 Frontage on Mangrove Ave
50
0.0
0
TEXT
8
TABLE_TEXT
7
STANDARD
10
1171.7776
20
814.5000
30
0.0
40
2.6
1
L24   | S88%%d58'20"W    | 100.00     | Lot 8/9 Dividing Line (10' Esmt)
50
0.0
0
TEXT
8
TABLE_TEXT
7
STANDARD
10
1171.7776
20
809.0000
30
0.0
40
2.6
1
L25   | N01%%d01'40"W    | 77.25      | Lot 8 Rear Line on Drainage R/W
50
0.0
0
TEXT
8
TITLEBLOCK
7
STANDARD
10
1171.7776
20
788.5000
30
0.0
40
4.5
1
LOT SUMMARY & CLOSURE AUDIT (F.A.C. 5J-17)
50
0.0
0
TEXT
8
TABLE_FRAME
7
STANDARD
10
1171.7776
20
780.5000
30
0.0
40
3.0
1
Lot   | Perimeter   | Area (SF)   | Acres    | Misclose   | Status
50
0.0
0
LINE
8
TABLE_FRAME
10
778.5000
20
1171.7776
30
0.0
11
778.5000
21
1411.7776
31
0.0
0
TEXT
8
TABLE_TEXT
7
STANDARD
10
1171.7776
20
772.5000
30
0.0
40
2.6
1
1     | 389.27      | 9865.9      | 0.2265   | 0.00000    | PASS (5J-17)
50
0.0
0
TEXT
8
TABLE_TEXT
7
STANDARD
10
1171.7776
20
767.0000
30
0.0
40
2.6
1
2     | 354.50      | 7725.0      | 0.1773   | 0.00000    | PASS (5J-17)
50
0.0
0
TEXT
8
TABLE_TEXT
7
STANDARD
10
1171.7776
20
761.5000
30
0.0
40
2.6
1
3     | 354.50      | 7725.0      | 0.1773   | 0.00000    | PASS (5J-17)
50
0.0
0
TEXT
8
TABLE_TEXT
7
STANDARD
10
1171.7776
20
756.0000
30
0.0
40
2.6
1
4     | 354.50      | 7725.0      | 0.1773   | 0.00000    | PASS (5J-17)
50
0.0
0
TEXT
8
TABLE_TEXT
7
STANDARD
10
1171.7776
20
750.5000
30
0.0
40
2.6
1
5     | 354.50      | 7725.0      | 0.1773   | 0.00000    | PASS (5J-17)
50
0.0
0
TEXT
8
TABLE_TEXT
7
STANDARD
10
1171.7776
20
745.0000
30
0.0
40
2.6
1
6     | 354.50      | 7725.0      | 0.1773   | 0.00000    | PASS (5J-17)
50
0.0
0
TEXT
8
TABLE_TEXT
7
STANDARD
10
1171.7776
20
739.5000
30
0.0
40
2.6
1
7     | 354.50      | 7725.0      | 0.1773   | 0.00000    | PASS (5J-17)
50
0.0
0
TEXT
8
TABLE_TEXT
7
STANDARD
10
1171.7776
20
734.0000
30
0.0
40
2.6
1
8     | 354.50      | 7725.0      | 0.1773   | 0.00000    | PASS (5J-17)
50
0.0
0
TEXT
8
TABLE_TEXT
7
STANDARD
10
1171.7776
20
728.5000
30
0.0
40
2.6
1
9     | 354.50      | 7725.0      | 0.1773   | 0.00000    | PASS (5J-17)
50
0.0
0
TEXT
8
TABLE_TEXT
7
STANDARD
10
1171.7776
20
723.0000
30
0.0
40
2.6
1
10    | 353.84      | 7692.0      | 0.1766   | 0.00000    | PASS (5J-17)
50
0.0
0
TEXT
8
TABLE_TEXT
7
STANDARD
10
1171.7776
20
717.5000
30
0.0
40
2.6
1
11    | 388.55      | 9835.1      | 0.2258   | 0.00000    | PASS (5J-17)
50
0.0
0
ENDSEC
0
EOF
