0
SECTION
2
HEADER
9
$ACADVER
1
AC1009
9
$DWGCODEPAGE
3
ANSI_1252
0
ENDSEC
0
SECTION
2
TABLES
0
TABLE
2
LTYPE
70
6
0
LTYPE
2
CONTINUOUS
70
0
3
Solid
72
65
73
0
40
0.0
0
LTYPE
2
DASHED
70
0
3
Dashed
72
65
73
2
40
0.75
49
0.5
74
0
49
-0.25
74
0
0
LTYPE
2
DASHED2
70
0
3
Dashed (.5x)
72
65
73
2
40
0.375
49
0.25
74
0
49
-0.125
74
0
0
LTYPE
2
HIDDEN
70
0
3
Hidden
72
65
73
2
40
0.375
49
0.25
74
0
49
-0.125
74
0
0
LTYPE
2
CENTER
70
0
3
Center
72
65
73
4
40
2.0
49
1.25
74
0
49
-0.25
74
0
49
0.25
74
0
49
-0.25
74
0
0
LTYPE
2
PHANTOM
70
0
3
Phantom
72
65
73
6
40
2.5
49
1.25
74
0
49
-0.25
74
0
49
0.25
74
0
49
-0.25
74
0
49
0.25
74
0
49
-0.25
74
0
0
ENDTAB
0
TABLE
2
LAYER
70
7
0
LAYER
2
0
70
0
62
7
6
CONTINUOUS
0
LAYER
2
LOT_LINE
70
0
62
4
6
CONTINUOUS
0
LAYER
2
CURVE
70
0
62
6
6
CONTINUOUS
0
LAYER
2
TEXT-LABELS
70
0
62
7
6
CONTINUOUS
0
LAYER
2
DIM-LABELS
70
0
62
3
6
CONTINUOUS
0
LAYER
2
ROW_STREET
70
0
62
2
6
CONTINUOUS
0
LAYER
2
TITLEBLOCK
70
0
62
2
6
CONTINUOUS
0
ENDTAB
0
TABLE
2
STYLE
70
4
0
STYLE
2
STANDARD
70
0
40
0.0
41
1.0
50
0.0
71
0
42
0.2
3
Arial
4

0
STYLE
2
ARIAL
70
0
40
0.0
41
1.0
50
0.0
71
0
42
0.2
3
Arial
4

0
STYLE
2
ARIAL_TTF
70
0
40
0.0
41
1.0
50
0.0
71
0
42
0.2
3
arial.ttf
4

0
STYLE
2
SIMPLEX
70
0
40
0.0
41
1.0
50
0.0
71
0
42
0.2
3
simplex.shx
4

0
ENDTAB
0
ENDSEC
0
SECTION
2
ENTITIES
0
POLYLINE
8
CURVE
66
1
70
0
0
VERTEX
8
CURVE
10
-1.2147
20
100.0373
30
0.0
0
VERTEX
8
CURVE
10
-0.9893
20
93.7889
30
0.0
0
VERTEX
8
CURVE
10
-0.7837
20
87.5398
30
0.0
0
VERTEX
8
CURVE
10
-0.5981
20
81.2900
30
0.0
0
VERTEX
8
CURVE
10
-0.4325
20
75.0397
30
0.0
0
VERTEX
8
CURVE
10
-0.2867
20
68.7889
30
0.0
0
VERTEX
8
CURVE
10
-0.1610
20
62.5377
30
0.0
0
VERTEX
8
CURVE
10
-0.0551
20
56.2861
30
0.0
0
VERTEX
8
CURVE
10
0.0308
20
50.0342
30
0.0
0
VERTEX
8
CURVE
10
0.0967
20
43.7820
30
0.0
0
VERTEX
8
CURVE
10
0.1427
20
37.5297
30
0.0
0
VERTEX
8
CURVE
10
0.1688
20
31.2773
30
0.0
0
VERTEX
8
CURVE
10
0.1749
20
25.0248
30
0.0
0
VERTEX
8
CURVE
10
0.1610
20
18.7723
30
0.0
0
VERTEX
8
CURVE
10
0.1272
20
12.5199
30
0.0
0
VERTEX
8
CURVE
10
0.0735
20
6.2676
30
0.0
0
VERTEX
8
CURVE
10
-0.0002
20
0.0156
30
0.0
0
SEQEND
0
POLYLINE
8
LOT_LINE
66
1
70
1
0
VERTEX
8
LOT_LINE
10
-97.1100
20
96.0041
30
0.0
0
VERTEX
8
LOT_LINE
10
-1.2147
20
100.0373
30
0.0
0
VERTEX
8
LOT_LINE
10
-0.9893
20
93.7889
30
0.0
0
VERTEX
8
LOT_LINE
10
-0.7837
20
87.5398
30
0.0
0
VERTEX
8
LOT_LINE
10
-0.5981
20
81.2900
30
0.0
0
VERTEX
8
LOT_LINE
10
-0.4325
20
75.0397
30
0.0
0
VERTEX
8
LOT_LINE
10
-0.2867
20
68.7889
30
0.0
0
VERTEX
8
LOT_LINE
10
-0.1610
20
62.5377
30
0.0
0
VERTEX
8
LOT_LINE
10
-0.0551
20
56.2861
30
0.0
0
VERTEX
8
LOT_LINE
10
0.0308
20
50.0342
30
0.0
0
VERTEX
8
LOT_LINE
10
0.0967
20
43.7820
30
0.0
0
VERTEX
8
LOT_LINE
10
0.1427
20
37.5297
30
0.0
0
VERTEX
8
LOT_LINE
10
0.1688
20
31.2773
30
0.0
0
VERTEX
8
LOT_LINE
10
0.1749
20
25.0248
30
0.0
0
VERTEX
8
LOT_LINE
10
0.1610
20
18.7723
30
0.0
0
VERTEX
8
LOT_LINE
10
0.1272
20
12.5199
30
0.0
0
VERTEX
8
LOT_LINE
10
0.0735
20
6.2676
30
0.0
0
VERTEX
8
LOT_LINE
10
0.0000
20
0.0000
30
0.0
0
VERTEX
8
LOT_LINE
10
-92.9079
20
-3.9075
30
0.0
0
SEQEND
0
ARC
8
CURVE
10
-1959.6845
20
26.2299
30
0.0
40
1959.8600
50
359.2332
51
2.1582
0
TEXT
8
TEXT-LABELS
7
STANDARD
10
-47.8081
20
48.0335
30
0.0
40
8.0
1
9
50
0.0
0
TEXT
8
DIM-LABELS
7
STANDARD
10
-49.0153
20
94.5238
30
0.0
40
5.5
1
96.0'
50
0.0
0
TEXT
8
DIM-LABELS
7
STANDARD
10
-4.1071
20
49.9762
30
0.0
40
5.5
1
100.0'
50
0.0
0
TEXT
8
DIM-LABELS
7
STANDARD
10
-46.6010
20
1.5431
30
0.0
40
5.5
1
93.0'
50
0.0
0
TEXT
8
DIM-LABELS
7
STANDARD
10
-91.5120
20
46.1954
30
0.0
40
5.5
1
100.0'
50
0.0
0
POLYLINE
8
LOT_LINE
66
1
70
1
0
VERTEX
8
LOT_LINE
10
-172.0437
20
92.8526
30
0.0
0
VERTEX
8
LOT_LINE
10
-97.1100
20
96.0041
30
0.0
0
VERTEX
8
LOT_LINE
10
-92.9079
20
-3.9075
30
0.0
0
VERTEX
8
LOT_LINE
10
-167.8416
20
-7.0591
30
0.0
0
SEQEND
0
TEXT
8
TEXT-LABELS
7
STANDARD
10
-132.4758
20
44.4725
30
0.0
40
8.0
1
8
50
0.0
0
TEXT
8
DIM-LABELS
7
STANDARD
10
-134.4298
20
90.9314
30
0.0
40
5.5
1
75.0'
50
0.0
0
TEXT
8
DIM-LABELS
7
STANDARD
10
-98.5058
20
45.9012
30
0.0
40
5.5
1
100.0'
50
0.0
0
TEXT
8
DIM-LABELS
7
STANDARD
10
-130.5218
20
-1.9864
30
0.0
40
5.5
1
75.0'
50
0.0
0
TEXT
8
DIM-LABELS
7
STANDARD
10
-166.4458
20
43.0438
30
0.0
40
5.5
1
100.0'
50
0.0
0
POLYLINE
8
LOT_LINE
66
1
70
1
0
VERTEX
8
LOT_LINE
10
-246.9775
20
89.7010
30
0.0
0
VERTEX
8
LOT_LINE
10
-172.0437
20
92.8526
30
0.0
0
VERTEX
8
LOT_LINE
10
-167.8416
20
-7.0591
30
0.0
0
VERTEX
8
LOT_LINE
10
-242.7754
20
-10.2107
30
0.0
0
SEQEND
0
TEXT
8
TEXT-LABELS
7
STANDARD
10
-207.4095
20
41.3209
30
0.0
40
8.0
1
7
50
0.0
0
TEXT
8
DIM-LABELS
7
STANDARD
10
-209.3635
20
87.7799
30
0.0
40
5.5
1
75.0'
50
0.0
0
TEXT
8
DIM-LABELS
7
STANDARD
10
-173.4396
20
42.7497
30
0.0
40
5.5
1
100.0'
50
0.0
0
TEXT
8
DIM-LABELS
7
STANDARD
10
-205.4556
20
-5.1380
30
0.0
40
5.5
1
75.0'
50
0.0
0
TEXT
8
DIM-LABELS
7
STANDARD
10
-241.3795
20
39.8922
30
0.0
40
5.5
1
100.0'
50
0.0
0
POLYLINE
8
LOT_LINE
66
1
70
1
0
VERTEX
8
LOT_LINE
10
-321.9112
20
86.5494
30
0.0
0
VERTEX
8
LOT_LINE
10
-246.9775
20
89.7010
30
0.0
0
VERTEX
8
LOT_LINE
10
-242.7754
20
-10.2107
30
0.0
0
VERTEX
8
LOT_LINE
10
-317.7091
20
-13.3622
30
0.0
0
SEQEND
0
TEXT
8
TEXT-LABELS
7
STANDARD
10
-282.3433
20
38.1694
30
0.0
40
8.0
1
6
50
0.0
0
TEXT
8
DIM-LABELS
7
STANDARD
10
-284.2973
20
84.6283
30
0.0
40
5.5
1
75.0'
50
0.0
0
TEXT
8
DIM-LABELS
7
STANDARD
10
-248.3733
20
39.5981
30
0.0
40
5.5
1
100.0'
50
0.0
0
TEXT
8
DIM-LABELS
7
STANDARD
10
-280.3893
20
-8.2896
30
0.0
40
5.5
1
75.0'
50
0.0
0
TEXT
8
DIM-LABELS
7
STANDARD
10
-316.3133
20
36.7407
30
0.0
40
5.5
1
100.0'
50
0.0
0
POLYLINE
8
LOT_LINE
66
1
70
1
0
VERTEX
8
LOT_LINE
10
-410.3131
20
82.8314
30
0.0
0
VERTEX
8
LOT_LINE
10
-321.9112
20
86.5494
30
0.0
0
VERTEX
8
LOT_LINE
10
-317.7091
20
-13.3622
30
0.0
0
VERTEX
8
LOT_LINE
10
-406.1110
20
-17.0803
30
0.0
0
SEQEND
0
TEXT
8
TEXT-LABELS
7
STANDARD
10
-364.0111
20
34.7346
30
0.0
40
8.0
1
5
50
0.0
0
TEXT
8
DIM-LABELS
7
STANDARD
10
-365.9651
20
81.1935
30
0.0
40
5.5
1
88.5'
50
0.0
0
TEXT
8
DIM-LABELS
7
STANDARD
10
-323.3071
20
36.4465
30
0.0
40
5.5
1
100.0'
50
0.0
0
TEXT
8
DIM-LABELS
7
STANDARD
10
-362.0571
20
-11.7243
30
0.0
40
5.5
1
88.5'
50
0.0
0
TEXT
8
DIM-LABELS
7
STANDARD
10
-404.7151
20
33.0226
30
0.0
40
5.5
1
100.0'
50
0.0
0
POLYLINE
8
LOT_LINE
66
1
70
1
0
VERTEX
8
LOT_LINE
10
-498.7149
20
79.1134
30
0.0
0
VERTEX
8
LOT_LINE
10
-410.3131
20
82.8314
30
0.0
0
VERTEX
8
LOT_LINE
10
-406.1110
20
-17.0803
30
0.0
0
VERTEX
8
LOT_LINE
10
-494.5128
20
-20.7983
30
0.0
0
SEQEND
0
TEXT
8
TEXT-LABELS
7
STANDARD
10
-452.4129
20
31.0166
30
0.0
40
8.0
1
4
50
0.0
0
TEXT
8
DIM-LABELS
7
STANDARD
10
-454.3669
20
77.4755
30
0.0
40
5.5
1
88.5'
50
0.0
0
TEXT
8
DIM-LABELS
7
STANDARD
10
-411.7089
20
32.7285
30
0.0
40
5.5
1
100.0'
50
0.0
0
TEXT
8
DIM-LABELS
7
STANDARD
10
-450.4590
20
-15.4424
30
0.0
40
5.5
1
88.5'
50
0.0
0
TEXT
8
DIM-LABELS
7
STANDARD
10
-493.1170
20
29.3046
30
0.0
40
5.5
1
100.0'
50
0.0
0
POLYLINE
8
LOT_LINE
66
1
70
1
0
VERTEX
8
LOT_LINE
10
-587.1368
20
75.3945
30
0.0
0
VERTEX
8
LOT_LINE
10
-498.7149
20
79.1134
30
0.0
0
VERTEX
8
LOT_LINE
10
-494.5128
20
-20.7983
30
0.0
0
VERTEX
8
LOT_LINE
10
-582.9347
20
-24.5171
30
0.0
0
SEQEND
0
TEXT
8
TEXT-LABELS
7
STANDARD
10
-540.8248
20
27.2981
30
0.0
40
8.0
1
3
50
0.0
0
TEXT
8
DIM-LABELS
7
STANDARD
10
-542.7788
20
73.7571
30
0.0
40
5.5
1
88.5'
50
0.0
0
TEXT
8
DIM-LABELS
7
STANDARD
10
-500.1108
20
29.0105
30
0.0
40
5.5
1
100.0'
50
0.0
0
TEXT
8
DIM-LABELS
7
STANDARD
10
-538.8708
20
-19.1608
30
0.0
40
5.5
1
88.5'
50
0.0
0
TEXT
8
DIM-LABELS
7
STANDARD
10
-581.5388
20
25.5858
30
0.0
40
5.5
1
100.0'
50
0.0
0
POLYLINE
8
LOT_LINE
66
1
70
1
0
VERTEX
8
LOT_LINE
10
-687.0484
20
71.1924
30
0.0
0
VERTEX
8
LOT_LINE
10
-587.1368
20
75.3945
30
0.0
0
VERTEX
8
LOT_LINE
10
-582.9347
20
-24.5171
30
0.0
0
VERTEX
8
LOT_LINE
10
-683.6401
20
-9.7665
30
0.0
0
SEQEND
0
TEXT
8
TEXT-LABELS
7
STANDARD
10
-635.1900
20
28.0758
30
0.0
40
8.0
1
2
50
0.0
0
TEXT
8
DIM-LABELS
7
STANDARD
10
-636.9455
20
69.7966
30
0.0
40
5.5
1
100.0'
50
0.0
0
TEXT
8
DIM-LABELS
7
STANDARD
10
-588.5326
20
25.2916
30
0.0
40
5.5
1
100.0'
50
0.0
0
TEXT
8
DIM-LABELS
7
STANDARD
10
-632.7801
20
-13.6787
30
0.0
40
5.5
1
101.8'
50
0.0
0
TEXT
8
DIM-LABELS
7
STANDARD
10
-681.8474
20
30.8602
30
0.0
40
5.5
1
81.0'
50
0.0
0
POLYLINE
8
CURVE
66
1
70
0
0
VERTEX
8
CURVE
10
-829.2157
20
26.9131
30
0.0
0
VERTEX
8
CURVE
10
-822.0767
20
33.2981
30
0.0
0
VERTEX
8
CURVE
10
-814.5853
20
39.2657
30
0.0
0
VERTEX
8
CURVE
10
-806.7659
20
44.7966
30
0.0
0
VERTEX
8
CURVE
10
-798.6439
20
49.8728
30
0.0
0
VERTEX
8
CURVE
10
-790.2458
20
54.4778
30
0.0
0
VERTEX
8
CURVE
10
-781.5988
20
58.5965
30
0.0
0
VERTEX
8
CURVE
10
-772.7312
20
62.2156
30
0.0
0
VERTEX
8
CURVE
10
-763.6716
20
65.3233
30
0.0
0
VERTEX
8
CURVE
10
-754.4496
20
67.9096
30
0.0
0
VERTEX
8
CURVE
10
-745.0952
20
69.9659
30
0.0
0
VERTEX
8
CURVE
10
-735.6387
20
71.4857
30
0.0
0
VERTEX
8
CURVE
10
-726.1110
20
72.4639
30
0.0
0
VERTEX
8
CURVE
10
-716.5431
20
72.8974
30
0.0
0
VERTEX
8
CURVE
10
-706.9659
20
72.7848
30
0.0
0
VERTEX
8
CURVE
10
-697.4108
20
72.1265
30
0.0
0
VERTEX
8
CURVE
10
-687.9088
20
70.9245
30
0.0
0
SEQEND
0
POLYLINE
8
LOT_LINE
66
1
70
1
0
VERTEX
8
LOT_LINE
10
-829.2157
20
26.9131
30
0.0
0
VERTEX
8
LOT_LINE
10
-822.0767
20
33.2981
30
0.0
0
VERTEX
8
LOT_LINE
10
-814.5853
20
39.2657
30
0.0
0
VERTEX
8
LOT_LINE
10
-806.7659
20
44.7966
30
0.0
0
VERTEX
8
LOT_LINE
10
-798.6439
20
49.8728
30
0.0
0
VERTEX
8
LOT_LINE
10
-790.2458
20
54.4778
30
0.0
0
VERTEX
8
LOT_LINE
10
-781.5988
20
58.5965
30
0.0
0
VERTEX
8
LOT_LINE
10
-772.7312
20
62.2156
30
0.0
0
VERTEX
8
LOT_LINE
10
-763.6716
20
65.3233
30
0.0
0
VERTEX
8
LOT_LINE
10
-754.4496
20
67.9096
30
0.0
0
VERTEX
8
LOT_LINE
10
-745.0952
20
69.9659
30
0.0
0
VERTEX
8
LOT_LINE
10
-735.6387
20
71.4857
30
0.0
0
VERTEX
8
LOT_LINE
10
-726.1110
20
72.4639
30
0.0
0
VERTEX
8
LOT_LINE
10
-716.5431
20
72.8974
30
0.0
0
VERTEX
8
LOT_LINE
10
-706.9659
20
72.7848
30
0.0
0
VERTEX
8
LOT_LINE
10
-697.4108
20
72.1265
30
0.0
0
VERTEX
8
LOT_LINE
10
-687.0484
20
71.1924
30
0.0
0
VERTEX
8
LOT_LINE
10
-683.6401
20
-9.7665
30
0.0
0
VERTEX
8
LOT_LINE
10
-729.4127
20
-74.4001
30
0.0
0
VERTEX
8
LOT_LINE
10
-823.2621
20
-7.9374
30
0.0
0
SEQEND
0
ARC
8
CURVE
10
-713.3641
20
-94.6831
30
0.0
40
167.9500
50
80.9853
51
133.6141
0
TEXT
8
TEXT-LABELS
7
STANDARD
10
-750.5158
20
1.2003
30
0.0
40
8.0
1
1
50
0.0
0
TEXT
8
DIM-LABELS
7
STANDARD
10
-757.0913
20
45.7111
30
0.0
40
5.5
1
148.9'
50
0.0
0
TEXT
8
DIM-LABELS
7
STANDARD
10
-688.8412
20
30.5658
30
0.0
40
5.5
1
81.0'
50
0.0
0
TEXT
8
DIM-LABELS
7
STANDARD
10
-709.3827
20
-40.0605
30
0.0
40
5.5
1
79.2'
50
0.0
0
TEXT
8
DIM-LABELS
7
STANDARD
10
-774.3146
20
-38.3125
30
0.0
40
5.5
1
115.0'
50
0.0
0
TEXT
8
DIM-LABELS
7
STANDARD
10
-822.7889
20
10.0772
30
0.0
40
5.5
1
35.4'
50
0.0
0
POLYLINE
8
CURVE
66
1
70
0
0
VERTEX
8
CURVE
10
0.0000
20
-0.0000
30
0.0
0
VERTEX
8
CURVE
10
0.4121
20
-6.2389
30
0.0
0
VERTEX
8
CURVE
10
0.8043
20
-12.4791
30
0.0
0
VERTEX
8
CURVE
10
1.1766
20
-18.7205
30
0.0
0
VERTEX
8
CURVE
10
1.5290
20
-24.9630
30
0.0
0
VERTEX
8
CURVE
10
1.8615
20
-31.2067
30
0.0
0
VERTEX
8
CURVE
10
2.1740
20
-37.4514
30
0.0
0
VERTEX
8
CURVE
10
2.4667
20
-43.6970
30
0.0
0
VERTEX
8
CURVE
10
2.7394
20
-49.9436
30
0.0
0
VERTEX
8
CURVE
10
2.9921
20
-56.1910
30
0.0
0
VERTEX
8
CURVE
10
3.2250
20
-62.4391
30
0.0
0
VERTEX
8
CURVE
10
3.4379
20
-68.6880
30
0.0
0
VERTEX
8
CURVE
10
3.6309
20
-74.9375
30
0.0
0
VERTEX
8
CURVE
10
3.8039
20
-81.1876
30
0.0
0
VERTEX
8
CURVE
10
3.9570
20
-87.4382
30
0.0
0
VERTEX
8
CURVE
10
4.0901
20
-93.6893
30
0.0
0
VERTEX
8
CURVE
10
4.2033
20
-99.9408
30
0.0
0
SEQEND
0
POLYLINE
8
LOT_LINE
66
1
70
1
0
VERTEX
8
LOT_LINE
10
-92.9079
20
-3.9075
30
0.0
0
VERTEX
8
LOT_LINE
10
0.0000
20
-0.0000
30
0.0
0
VERTEX
8
LOT_LINE
10
0.4121
20
-6.2389
30
0.0
0
VERTEX
8
LOT_LINE
10
0.8043
20
-12.4791
30
0.0
0
VERTEX
8
LOT_LINE
10
1.1766
20
-18.7205
30
0.0
0
VERTEX
8
LOT_LINE
10
1.5290
20
-24.9630
30
0.0
0
VERTEX
8
LOT_LINE
10
1.8615
20
-31.2067
30
0.0
0
VERTEX
8
LOT_LINE
10
2.1740
20
-37.4514
30
0.0
0
VERTEX
8
LOT_LINE
10
2.4667
20
-43.6970
30
0.0
0
VERTEX
8
LOT_LINE
10
2.7394
20
-49.9436
30
0.0
0
VERTEX
8
LOT_LINE
10
2.9921
20
-56.1910
30
0.0
0
VERTEX
8
LOT_LINE
10
3.2250
20
-62.4391
30
0.0
0
VERTEX
8
LOT_LINE
10
3.4379
20
-68.6880
30
0.0
0
VERTEX
8
LOT_LINE
10
3.6309
20
-74.9375
30
0.0
0
VERTEX
8
LOT_LINE
10
3.8039
20
-81.1876
30
0.0
0
VERTEX
8
LOT_LINE
10
3.9570
20
-87.4382
30
0.0
0
VERTEX
8
LOT_LINE
10
4.0901
20
-93.6893
30
0.0
0
VERTEX
8
LOT_LINE
10
4.2038
20
-99.9516
30
0.0
0
VERTEX
8
LOT_LINE
10
-85.7167
20
-103.7335
30
0.0
0
SEQEND
0
ARC
8
CURVE
10
-1955.3892
20
-132.3042
30
0.0
40
1959.8600
50
0.9459
51
3.8708
0
TEXT
8
TEXT-LABELS
7
STANDARD
10
-43.6052
20
-51.8982
30
0.0
40
8.0
1
10
50
0.0
0
TEXT
8
DIM-LABELS
7
STANDARD
10
-46.3069
20
-5.4507
30
0.0
40
5.5
1
93.0'
50
0.0
0
TEXT
8
DIM-LABELS
7
STANDARD
10
-1.3950
20
-50.1229
30
0.0
40
5.5
1
100.0'
50
0.0
0
TEXT
8
DIM-LABELS
7
STANDARD
10
-40.9035
20
-98.3457
30
0.0
40
5.5
1
90.0'
50
0.0
0
TEXT
8
DIM-LABELS
7
STANDARD
10
-85.8213
20
-53.5691
30
0.0
40
5.5
1
100.1'
50
0.0
0
POLYLINE
8
LOT_LINE
66
1
70
1
0
VERTEX
8
LOT_LINE
10
-167.8416
20
-7.0591
30
0.0
0
VERTEX
8
LOT_LINE
10
-92.9079
20
-3.9075
30
0.0
0
VERTEX
8
LOT_LINE
10
-85.7167
20
-103.7335
30
0.0
0
VERTEX
8
LOT_LINE
10
-160.6505
20
-106.8851
30
0.0
0
SEQEND
0
TEXT
8
TEXT-LABELS
7
STANDARD
10
-126.7792
20
-55.3963
30
0.0
40
8.0
1
11
50
0.0
0
TEXT
8
DIM-LABELS
7
STANDARD
10
-130.2277
20
-8.9802
30
0.0
40
5.5
1
75.0'
50
0.0
0
TEXT
8
DIM-LABELS
7
STANDARD
10
-92.8033
20
-54.0720
30
0.0
40
5.5
1
100.1'
50
0.0
0
TEXT
8
DIM-LABELS
7
STANDARD
10
-123.3307
20
-101.8124
30
0.0
40
5.5
1
75.0'
50
0.0
0
TEXT
8
DIM-LABELS
7
STANDARD
10
-160.7551
20
-56.7206
30
0.0
40
5.5
1
100.1'
50
0.0
0
POLYLINE
8
LOT_LINE
66
1
70
1
0
VERTEX
8
LOT_LINE
10
-242.7754
20
-10.2107
30
0.0
0
VERTEX
8
LOT_LINE
10
-167.8416
20
-7.0591
30
0.0
0
VERTEX
8
LOT_LINE
10
-160.6505
20
-106.8851
30
0.0
0
VERTEX
8
LOT_LINE
10
-235.5842
20
-110.0367
30
0.0
0
SEQEND
0
TEXT
8
TEXT-LABELS
7
STANDARD
10
-201.7129
20
-58.5479
30
0.0
40
8.0
1
12
50
0.0
0
TEXT
8
DIM-LABELS
7
STANDARD
10
-205.1614
20
-12.1318
30
0.0
40
5.5
1
75.0'
50
0.0
0
TEXT
8
DIM-LABELS
7
STANDARD
10
-167.7370
20
-57.2236
30
0.0
40
5.5
1
100.1'
50
0.0
0
TEXT
8
DIM-LABELS
7
STANDARD
10
-198.2644
20
-104.9640
30
0.0
40
5.5
1
75.0'
50
0.0
0
TEXT
8
DIM-LABELS
7
STANDARD
10
-235.6889
20
-59.8722
30
0.0
40
5.5
1
100.1'
50
0.0
0
POLYLINE
8
LOT_LINE
66
1
70
1
0
VERTEX
8
LOT_LINE
10
-317.7091
20
-13.3622
30
0.0
0
VERTEX
8
LOT_LINE
10
-242.7754
20
-10.2107
30
0.0
0
VERTEX
8
LOT_LINE
10
-235.5842
20
-110.0367
30
0.0
0
VERTEX
8
LOT_LINE
10
-310.5180
20
-113.1882
30
0.0
0
SEQEND
0
TEXT
8
TEXT-LABELS
7
STANDARD
10
-276.6467
20
-61.6995
30
0.0
40
8.0
1
13
50
0.0
0
TEXT
8
DIM-LABELS
7
STANDARD
10
-280.0952
20
-15.2834
30
0.0
40
5.5
1
75.0'
50
0.0
0
TEXT
8
DIM-LABELS
7
STANDARD
10
-242.6708
20
-60.3751
30
0.0
40
5.5
1
100.1'
50
0.0
0
TEXT
8
DIM-LABELS
7
STANDARD
10
-273.1982
20
-108.1155
30
0.0
40
5.5
1
75.0'
50
0.0
0
TEXT
8
DIM-LABELS
7
STANDARD
10
-310.6226
20
-63.0238
30
0.0
40
5.5
1
100.1'
50
0.0
0
POLYLINE
8
LOT_LINE
66
1
70
1
0
VERTEX
8
LOT_LINE
10
-392.6429
20
-16.5138
30
0.0
0
VERTEX
8
LOT_LINE
10
-317.7091
20
-13.3622
30
0.0
0
VERTEX
8
LOT_LINE
10
-310.5180
20
-113.1882
30
0.0
0
VERTEX
8
LOT_LINE
10
-385.4517
20
-116.3398
30
0.0
0
SEQEND
0
TEXT
8
TEXT-LABELS
7
STANDARD
10
-351.5804
20
-64.8510
30
0.0
40
8.0
1
14
50
0.0
0
TEXT
8
DIM-LABELS
7
STANDARD
10
-355.0289
20
-18.4349
30
0.0
40
5.5
1
75.0'
50
0.0
0
TEXT
8
DIM-LABELS
7
STANDARD
10
-317.6045
20
-63.5267
30
0.0
40
5.5
1
100.1'
50
0.0
0
TEXT
8
DIM-LABELS
7
STANDARD
10
-348.1319
20
-111.2671
30
0.0
40
5.5
1
75.0'
50
0.0
0
TEXT
8
DIM-LABELS
7
STANDARD
10
-385.5564
20
-66.1753
30
0.0
40
5.5
1
100.1'
50
0.0
0
POLYLINE
8
CURVE
66
1
70
0
0
VERTEX
8
CURVE
10
-385.4517
20
-116.3398
30
0.0
0
VERTEX
8
CURVE
10
-390.1874
20
-116.6037
30
0.0
0
VERTEX
8
CURVE
10
-394.9141
20
-116.9967
30
0.0
0
VERTEX
8
CURVE
10
-399.6284
20
-117.5183
30
0.0
0
VERTEX
8
CURVE
10
-404.3266
20
-118.1684
30
0.0
0
VERTEX
8
CURVE
10
-409.0054
20
-118.9463
30
0.0
0
VERTEX
8
CURVE
10
-413.6612
20
-119.8514
30
0.0
0
VERTEX
8
CURVE
10
-418.2907
20
-120.8832
30
0.0
0
VERTEX
8
CURVE
10
-422.8902
20
-122.0409
30
0.0
0
VERTEX
8
CURVE
10
-427.4565
20
-123.3235
30
0.0
0
VERTEX
8
CURVE
10
-431.9862
20
-124.7302
30
0.0
0
VERTEX
8
CURVE
10
-436.4757
20
-126.2598
30
0.0
0
VERTEX
8
CURVE
10
-440.9219
20
-127.9113
30
0.0
0
VERTEX
8
CURVE
10
-445.3215
20
-129.6835
30
0.0
0
VERTEX
8
CURVE
10
-449.6710
20
-131.5749
30
0.0
0
VERTEX
8
CURVE
10
-453.9674
20
-133.5842
30
0.0
0
VERTEX
8
CURVE
10
-458.2074
20
-135.7099
30
0.0
0
SEQEND
0
POLYLINE
8
LOT_LINE
66
1
70
1
0
VERTEX
8
LOT_LINE
10
-476.6687
20
-20.9048
30
0.0
0
VERTEX
8
LOT_LINE
10
-392.6429
20
-16.5138
30
0.0
0
VERTEX
8
LOT_LINE
10
-385.4517
20
-116.3398
30
0.0
0
VERTEX
8
LOT_LINE
10
-390.1874
20
-116.6037
30
0.0
0
VERTEX
8
LOT_LINE
10
-394.9141
20
-116.9967
30
0.0
0
VERTEX
8
LOT_LINE
10
-399.6284
20
-117.5183
30
0.0
0
VERTEX
8
LOT_LINE
10
-404.3266
20
-118.1684
30
0.0
0
VERTEX
8
LOT_LINE
10
-409.0054
20
-118.9463
30
0.0
0
VERTEX
8
LOT_LINE
10
-413.6612
20
-119.8514
30
0.0
0
VERTEX
8
LOT_LINE
10
-418.2907
20
-120.8832
30
0.0
0
VERTEX
8
LOT_LINE
10
-422.8902
20
-122.0409
30
0.0
0
VERTEX
8
LOT_LINE
10
-427.4565
20
-123.3235
30
0.0
0
VERTEX
8
LOT_LINE
10
-431.9862
20
-124.7302
30
0.0
0
VERTEX
8
LOT_LINE
10
-436.4757
20
-126.2598
30
0.0
0
VERTEX
8
LOT_LINE
10
-440.9219
20
-127.9113
30
0.0
0
VERTEX
8
LOT_LINE
10
-445.3215
20
-129.6835
30
0.0
0
VERTEX
8
LOT_LINE
10
-449.6710
20
-131.5749
30
0.0
0
VERTEX
8
LOT_LINE
10
-453.9674
20
-133.5842
30
0.0
0
VERTEX
8
LOT_LINE
10
-458.2074
20
-135.7099
30
0.0
0
SEQEND
0
ARC
8
CURVE
10
-378.1427
20
-290.1162
30
0.0
40
173.9300
50
92.4084
51
117.4082
0
TEXT
8
TEXT-LABELS
7
STANDARD
10
-428.2427
20
-72.3671
30
0.0
40
8.0
1
15
50
0.0
0
TEXT
8
DIM-LABELS
7
STANDARD
10
-434.4731
20
-22.2045
30
0.0
40
5.5
1
84.1'
50
0.0
0
TEXT
8
DIM-LABELS
7
STANDARD
10
-392.5383
20
-66.6783
30
0.0
40
5.5
1
100.1'
50
0.0
0
TEXT
8
DIM-LABELS
7
STANDARD
10
-422.7300
20
-122.6427
30
0.0
40
5.5
1
75.3'
50
0.0
0
TEXT
8
DIM-LABELS
7
STANDARD
10
-463.9824
20
-77.7517
30
0.0
40
5.5
1
116.3'
50
0.0
0
POLYLINE
8
CURVE
66
1
70
0
0
VERTEX
8
CURVE
10
-458.2074
20
-135.7099
30
0.0
0
VERTEX
8
CURVE
10
-462.7924
20
-138.1681
30
0.0
0
VERTEX
8
CURVE
10
-467.3019
20
-140.7624
30
0.0
0
VERTEX
8
CURVE
10
-471.7317
20
-143.4904
30
0.0
0
VERTEX
8
CURVE
10
-476.0780
20
-146.3496
30
0.0
0
VERTEX
8
CURVE
10
-480.3369
20
-149.3375
30
0.0
0
VERTEX
8
CURVE
10
-484.5044
20
-152.4515
30
0.0
0
VERTEX
8
CURVE
10
-488.5770
20
-155.6887
30
0.0
0
VERTEX
8
CURVE
10
-492.5509
20
-159.0463
30
0.0
0
VERTEX
8
CURVE
10
-496.4227
20
-162.5212
30
0.0
0
VERTEX
8
CURVE
10
-500.1887
20
-166.1104
30
0.0
0
VERTEX
8
CURVE
10
-503.8458
20
-169.8106
30
0.0
0
VERTEX
8
CURVE
10
-507.3905
20
-173.6185
30
0.0
0
VERTEX
8
CURVE
10
-510.8198
20
-177.5307
30
0.0
0
VERTEX
8
CURVE
10
-514.1305
20
-181.5437
30
0.0
0
VERTEX
8
CURVE
10
-517.3198
20
-185.6540
30
0.0
0
VERTEX
8
CURVE
10
-520.3846
20
-189.8578
30
0.0
0
SEQEND
0
POLYLINE
8
LOT_LINE
66
1
70
1
0
VERTEX
8
LOT_LINE
10
-539.8148
20
-23.0053
30
0.0
0
VERTEX
8
LOT_LINE
10
-476.6687
20
-20.9048
30
0.0
0
VERTEX
8
LOT_LINE
10
-458.2074
20
-135.7099
30
0.0
0
VERTEX
8
LOT_LINE
10
-462.7924
20
-138.1681
30
0.0
0
VERTEX
8
LOT_LINE
10
-467.3019
20
-140.7624
30
0.0
0
VERTEX
8
LOT_LINE
10
-471.7317
20
-143.4904
30
0.0
0
VERTEX
8
LOT_LINE
10
-476.0780
20
-146.3496
30
0.0
0
VERTEX
8
LOT_LINE
10
-480.3369
20
-149.3375
30
0.0
0
VERTEX
8
LOT_LINE
10
-484.5044
20
-152.4515
30
0.0
0
VERTEX
8
LOT_LINE
10
-488.5770
20
-155.6887
30
0.0
0
VERTEX
8
LOT_LINE
10
-492.5509
20
-159.0463
30
0.0
0
VERTEX
8
LOT_LINE
10
-496.4227
20
-162.5212
30
0.0
0
VERTEX
8
LOT_LINE
10
-500.1887
20
-166.1104
30
0.0
0
VERTEX
8
LOT_LINE
10
-503.8458
20
-169.8106
30
0.0
0
VERTEX
8
LOT_LINE
10
-507.3905
20
-173.6185
30
0.0
0
VERTEX
8
LOT_LINE
10
-510.8198
20
-177.5307
30
0.0
0
VERTEX
8
LOT_LINE
10
-514.1305
20
-181.5437
30
0.0
0
VERTEX
8
LOT_LINE
10
-517.3198
20
-185.6540
30
0.0
0
VERTEX
8
LOT_LINE
10
-520.3846
20
-189.8578
30
0.0
0
SEQEND
0
ARC
8
CURVE
10
-378.3249
20
-290.2105
30
0.0
40
173.9300
50
117.3406
51
144.7622
0
TEXT
8
TEXT-LABELS
7
STANDARD
10
-498.7689
20
-92.3694
30
0.0
40
8.0
1
16
50
0.0
0
TEXT
8
DIM-LABELS
7
STANDARD
10
-508.1254
20
-25.4531
30
0.0
40
5.5
1
63.2'
50
0.0
0
TEXT
8
DIM-LABELS
7
STANDARD
10
-470.8936
20
-78.8630
30
0.0
40
5.5
1
116.3'
50
0.0
0
TEXT
8
DIM-LABELS
7
STANDARD
10
-491.5946
20
-160.1444
30
0.0
40
5.5
1
82.5'
50
0.0
0
TEXT
8
DIM-LABELS
7
STANDARD
10
-526.6232
20
-106.0267
30
0.0
40
5.5
1
168.0'
50
0.0
0
POLYLINE
8
CURVE
66
1
70
0
0
VERTEX
8
CURVE
10
-520.3846
20
-189.8578
30
0.0
0
VERTEX
8
CURVE
10
-519.8704
20
-191.3435
30
0.0
0
VERTEX
8
CURVE
10
-519.5915
20
-192.8907
30
0.0
0
VERTEX
8
CURVE
10
-519.5548
20
-194.4625
30
0.0
0
VERTEX
8
CURVE
10
-519.7610
20
-196.0211
30
0.0
0
VERTEX
8
CURVE
10
-520.2053
20
-197.5292
30
0.0
0
VERTEX
8
CURVE
10
-520.8770
20
-198.9506
30
0.0
0
VERTEX
8
CURVE
10
-521.7600
20
-200.2514
30
0.0
0
VERTEX
8
CURVE
10
-522.8332
20
-201.4004
30
0.0
0
VERTEX
8
CURVE
10
-524.0708
20
-202.3700
30
0.0
0
VERTEX
8
CURVE
10
-525.4432
20
-203.1369
30
0.0
0
VERTEX
8
CURVE
10
-526.9175
20
-203.6829
30
0.0
0
VERTEX
8
CURVE
10
-528.4584
20
-203.9949
30
0.0
0
VERTEX
8
CURVE
10
-530.0290
20
-204.0653
30
0.0
0
VERTEX
8
CURVE
10
-531.5917
20
-203.8925
30
0.0
0
VERTEX
8
CURVE
10
-533.1090
20
-203.4806
30
0.0
0
VERTEX
8
CURVE
10
-534.5445
20
-202.8395
30
0.0
0
SEQEND
0
POLYLINE
8
LOT_LINE
66
1
70
1
0
VERTEX
8
LOT_LINE
10
-579.8476
20
-17.1415
30
0.0
0
VERTEX
8
LOT_LINE
10
-539.8148
20
-23.0053
30
0.0
0
VERTEX
8
LOT_LINE
10
-520.3846
20
-189.8578
30
0.0
0
VERTEX
8
LOT_LINE
10
-519.8704
20
-191.3435
30
0.0
0
VERTEX
8
LOT_LINE
10
-519.5915
20
-192.8907
30
0.0
0
VERTEX
8
LOT_LINE
10
-519.5548
20
-194.4625
30
0.0
0
VERTEX
8
LOT_LINE
10
-519.7610
20
-196.0211
30
0.0
0
VERTEX
8
LOT_LINE
10
-520.2053
20
-197.5292
30
0.0
0
VERTEX
8
LOT_LINE
10
-520.8770
20
-198.9506
30
0.0
0
VERTEX
8
LOT_LINE
10
-521.7600
20
-200.2514
30
0.0
0
VERTEX
8
LOT_LINE
10
-522.8332
20
-201.4004
30
0.0
0
VERTEX
8
LOT_LINE
10
-524.0708
20
-202.3700
30
0.0
0
VERTEX
8
LOT_LINE
10
-525.4432
20
-203.1369
30
0.0
0
VERTEX
8
LOT_LINE
10
-526.9175
20
-203.6829
30
0.0
0
VERTEX
8
LOT_LINE
10
-528.4584
20
-203.9949
30
0.0
0
VERTEX
8
LOT_LINE
10
-530.0290
20
-204.0653
30
0.0
0
VERTEX
8
LOT_LINE
10
-531.5917
20
-203.8925
30
0.0
0
VERTEX
8
LOT_LINE
10
-533.1090
20
-203.4806
30
0.0
0
VERTEX
8
LOT_LINE
10
-534.5459
20
-202.8408
30
0.0
0
VERTEX
8
LOT_LINE
10
-636.5561
20
-130.5987
30
0.0
0
SEQEND
0
ARC
8
CURVE
10
-529.6961
20
-193.9160
30
0.0
40
10.1574
50
241.4801
51
23.5490
0
TEXT
8
TEXT-LABELS
7
STANDARD
10
-562.2298
20
-112.6888
30
0.0
40
8.0
1
17
50
0.0
0
TEXT
8
DIM-LABELS
7
STANDARD
10
-560.3384
20
-23.5365
30
0.0
40
5.5
1
40.5'
50
0.0
0
TEXT
8
DIM-LABELS
7
STANDARD
10
-533.5762
20
-106.8364
30
0.0
40
5.5
1
168.0'
50
0.0
0
TEXT
8
DIM-LABELS
7
STANDARD
10
-529.8305
20
-193.7694
30
0.0
40
5.5
1
19.2'
50
0.0
0
TEXT
8
DIM-LABELS
7
STANDARD
10
-583.5282
20
-163.8635
30
0.0
40
5.5
1
125.0'
50
0.0
0
TEXT
8
DIM-LABELS
7
STANDARD
10
-605.0711
20
-75.4349
30
0.0
40
5.5
1
126.8'
50
0.0
0
POLYLINE
8
LOT_LINE
66
1
70
1
0
VERTEX
8
LOT_LINE
10
-680.5530
20
-2.3909
30
0.0
0
VERTEX
8
LOT_LINE
10
-579.8476
20
-17.1415
30
0.0
0
VERTEX
8
LOT_LINE
10
-636.5561
20
-130.5987
30
0.0
0
VERTEX
8
LOT_LINE
10
-726.3256
20
-67.0245
30
0.0
0
SEQEND
0
TEXT
8
TEXT-LABELS
7
STANDARD
10
-655.8206
20
-54.2889
30
0.0
40
8.0
1
18
50
0.0
0
TEXT
8
DIM-LABELS
7
STANDARD
10
-630.7076
20
-13.2293
30
0.0
40
5.5
1
101.8'
50
0.0
0
TEXT
8
DIM-LABELS
7
STANDARD
10
-611.3326
20
-72.3053
30
0.0
40
5.5
1
126.8'
50
0.0
0
TEXT
8
DIM-LABELS
7
STANDARD
10
-679.4181
20
-95.9554
30
0.0
40
5.5
1
110.0'
50
0.0
0
TEXT
8
DIM-LABELS
7
STANDARD
10
-700.5830
20
-36.7305
30
0.0
40
5.5
1
79.2'
50
0.0
0
TEXT
8
TITLEBLOCK
7
STANDARD
10
-800.0000
20
100.0000
30
0.0
40
14.0
1
BEACHWOOD UNIT TWO -- BLOCK 15 CADASTRAL AUDIT (LOTS 1-18)
50
0.0
0
TEXT
8
TITLEBLOCK
7
STANDARD
10
-800.0000
20
70.0000
30
0.0
40
10.0
1
100% MapCheck Certified: 18/18 Passed | PB 30, Pages 82 & 82A
50
0.0
0
ENDSEC
0
EOF
