0
SECTION
2
HEADER
0
ENDSEC
0
SECTION
2
TABLES
0
TABLE
2
LTYPE
70
2
0
LTYPE
2
CONTINUOUS
70
0
3
Solid
72
65
73
0
40
0.0
0
LTYPE
2
DASHED
70
0
3
Dashed
72
65
73
2
40
0.75
49
0.5
74
0
49
-0.25
74
0
0
ENDTAB
0
TABLE
2
LAYER
70
9
0
LAYER
2
0
70
0
62
7
6
CONTINUOUS
0
LAYER
2
SHEET3_SCALED
70
0
62
8
6
CONTINUOUS
0
LAYER
2
TRUE_LINEWORK
70
0
62
1
6
CONTINUOUS
0
LAYER
2
TRUE_LABELS
70
0
62
1
6
CONTINUOUS
0
LAYER
2
TRUE_LINEWORK_UNVERIFIED
70
0
62
6
6
DASHED
0
LAYER
2
ROAD_NAME
70
0
62
3
6
CONTINUOUS
0
LAYER
2
LOT_NUMBERS
70
0
62
4
6
CONTINUOUS
0
LAYER
2
CONTROL_PTS
70
0
62
2
6
CONTINUOUS
0
LAYER
2
TITLEBLOCK
70
0
62
2
6
CONTINUOUS
0
ENDTAB
0
ENDSEC
0
SECTION
2
ENTITIES
0
LINE
8
SHEET3_SCALED
10
1484.5000
20
1086.8333
30
0.0
11
1484.5000
21
205.0000
31
0.0
0
LINE
8
SHEET3_SCALED
10
671.7010
20
705.9674
30
0.0
11
611.0168
21
332.1910
31
0.0
0
LINE
8
SHEET3_SCALED
10
643.8699
20
532.8912
30
0.0
11
908.5000
21
489.8333
31
0.0
0
LINE
8
SHEET3_SCALED
10
901.4717
20
594.6530
30
0.0
11
919.6667
21
334.6667
31
0.0
0
LINE
8
SHEET3_SCALED
10
703.8333
20
859.6667
30
0.0
11
1020.6590
21
837.7231
31
0.0
0
LINE
8
SHEET3_SCALED
10
1105.0992
20
824.8416
30
0.0
11
1133.8088
21
481.9979
31
0.0
0
LINE
8
SHEET3_SCALED
10
673.0154
20
715.7614
30
0.0
11
894.6601
21
679.7927
31
0.0
0
LINE
8
SHEET3_SCALED
10
609.6213
20
635.1470
30
0.0
11
561.0788
21
335.8476
31
0.0
0
LINE
8
SHEET3_SCALED
10
1152.5000
20
858.1667
30
0.0
11
1167.1665
21
681.4862
31
0.0
0
LINE
8
SHEET3_SCALED
10
634.3711
20
473.4044
30
0.0
11
873.7030
21
435.3957
31
0.0
0
LINE
8
SHEET3_SCALED
10
1229.3526
20
411.5002
30
0.0
11
1230.8333
21
229.0000
31
0.0
0
LINE
8
SHEET3_SCALED
10
669.3765
20
645.7661
30
0.0
11
879.8317
21
611.6563
31
0.0
0
LINE
8
SHEET3_SCALED
10
408.8549
20
324.1323
30
0.0
11
560.0000
21
299.5000
31
0.0
0
LINE
8
SHEET3_SCALED
10
416.5000
20
378.5000
30
0.0
11
563.8333
21
354.5000
31
0.0
0
LINE
8
SHEET3_SCALED
10
434.6975
20
491.5222
30
0.0
11
582.0000
21
467.5000
31
0.0
0
LINE
8
SHEET3_SCALED
10
425.6667
20
432.5000
30
0.0
11
572.5000
21
408.5000
31
0.0
0
LINE
8
SHEET3_SCALED
10
1040.6646
20
227.7550
30
0.0
11
871.1665
21
226.3509
31
0.0
0
LINE
8
SHEET3_SCALED
10
803.0081
20
903.1171
30
0.0
11
954.4844
21
892.6079
31
0.0
0
LINE
8
SHEET3_SCALED
10
157.1667
20
1019.8333
30
0.0
11
160.1667
21
880.3333
31
0.0
0
LINE
8
SHEET3_SCALED
10
623.1786
20
404.4082
30
0.0
11
906.0258
21
359.4955
31
0.0
0
LINE
8
SHEET3_SCALED
10
1022.2313
20
299.7549
30
0.0
11
848.1667
21
253.8333
31
0.0
0
LINE
8
SHEET3_SCALED
10
983.1667
20
840.1667
30
0.0
11
994.5000
21
703.6667
31
0.0
0
LINE
8
SHEET3_SCALED
10
1142.3333
20
433.6667
30
0.0
11
1177.3333
21
302.5000
31
0.0
0
LINE
8
SHEET3_SCALED
10
1064.8156
20
693.5469
30
0.0
11
895.8333
21
679.5000
31
0.0
0
LINE
8
SHEET3_SCALED
10
466.8333
20
598.5000
30
0.0
11
599.7192
21
576.9915
31
0.0
0
LINE
8
SHEET3_SCALED
10
1162.2010
20
274.8700
30
0.0
11
1005.3376
21
233.4840
31
0.0
0
LINE
8
SHEET3_SCALED
10
670.3677
20
341.8778
30
0.0
11
838.6667
21
314.5000
31
0.0
0
LINE
8
SHEET3_SCALED
10
1068.9790
20
624.0844
30
0.0
11
900.8333
21
610.0000
31
0.0
0
LINE
8
SHEET3_SCALED
10
427.6822
20
260.5950
30
0.0
11
559.1667
21
239.1667
31
0.0
0
LINE
8
SHEET3_SCALED
10
481.5000
20
656.6667
30
0.0
11
609.1667
21
635.8333
31
0.0
0
LINE
8
SHEET3_SCALED
10
1055.8234
20
370.3709
30
0.0
11
885.4819
21
325.5688
31
0.0
0
LINE
8
SHEET3_SCALED
10
632.5007
20
223.6585
30
0.0
11
462.4994
21
222.9821
31
0.0
0
LINE
8
SHEET3_SCALED
10
494.0000
20
710.0000
30
0.0
11
618.0264
21
689.8290
31
0.0
0
LINE
8
SHEET3_SCALED
10
1084.3323
20
445.1735
30
0.0
11
914.0000
21
418.1667
31
0.0
0
LINE
8
SHEET3_SCALED
10
675.6667
20
776.0000
30
0.0
11
795.1667
21
756.5000
31
0.0
0
LINE
8
SHEET3_SCALED
10
1074.6667
20
375.0000
30
0.0
11
1105.3333
21
260.1667
31
0.0
0
LINE
8
SHEET3_SCALED
10
1126.3138
20
568.4011
30
0.0
11
904.9897
21
549.9575
31
0.0
0
LINE
8
SHEET3_SCALED
10
824.8333
20
777.6667
30
0.0
11
940.0000
21
777.1667
31
0.0
0
LINE
8
SHEET3_SCALED
10
838.3333
20
313.0000
30
0.0
11
729.1667
21
284.3333
31
0.0
0
LINE
8
SHEET3_SCALED
10
421.3333
20
1071.1667
30
0.0
11
290.8356
21
1070.1928
31
0.0
0
LINE
8
SHEET3_SCALED
10
731.4835
20
285.0848
30
0.0
11
616.5000
21
262.6667
31
0.0
0
LINE
8
SHEET3_SCALED
10
1029.9914
20
504.9333
30
0.0
11
908.8500
21
494.4737
31
0.0
0
LINE
8
SHEET3_SCALED
10
622.7858
20
718.3141
30
0.0
11
597.6667
21
563.1667
31
0.0
0
LINE
8
SHEET3_SCALED
10
919.8333
20
333.8333
30
0.0
11
946.8333
21
233.1667
31
0.0
0
LINE
8
SHEET3_SCALED
10
826.3333
20
717.5000
30
0.0
11
993.1667
21
717.5000
31
0.0
0
LINE
8
SHEET3_SCALED
10
780.1667
20
1007.6667
30
0.0
11
779.8333
21
905.0000
31
0.0
0
LINE
8
SHEET3_SCALED
10
893.1667
20
846.3333
30
0.0
11
893.1667
21
718.5000
31
0.0
0
LINE
8
SHEET3_SCALED
10
490.5000
20
838.8333
30
0.0
11
490.5000
21
710.6667
31
0.0
0
LINE
8
SHEET3_SCALED
10
499.8333
20
1008.0000
30
0.0
11
499.8333
21
891.1667
31
0.0
0
LINE
8
SHEET3_SCALED
10
491.0009
20
763.3492
30
0.0
11
625.0000
21
762.6667
31
0.0
0
LINE
8
SHEET3_SCALED
10
861.3333
20
1007.6667
30
0.0
11
1000.1667
21
1007.6667
31
0.0
0
LINE
8
SHEET3_SCALED
10
460.3718
20
543.7290
30
0.0
11
590.8333
21
521.8333
31
0.0
0
LINE
8
SHEET3_SCALED
10
1065.5820
20
1014.8330
30
0.0
11
1065.1667
21
895.0000
31
0.0
0
LINE
8
SHEET3_SCALED
10
1227.2319
20
712.1660
30
0.0
11
1228.0944
21
588.8340
31
0.0
0
LINE
8
SHEET3_SCALED
10
725.1667
20
1007.8333
30
0.0
11
724.8333
21
913.1667
31
0.0
0
LINE
8
SHEET3_SCALED
10
443.3333
20
546.5000
30
0.0
11
425.0539
21
434.2122
31
0.0
0
LINE
8
SHEET3_SCALED
10
1121.3333
20
628.0000
30
0.0
11
1030.5000
21
620.5000
31
0.0
0
LINE
8
SHEET3_SCALED
10
700.5238
20
580.3105
30
0.0
11
858.1694
21
554.1830
31
0.0
0
LINE
8
SHEET3_SCALED
10
385.0000
20
1008.3333
30
0.0
11
385.0000
21
889.3333
31
0.0
0
LINE
8
SHEET3_SCALED
10
952.8333
20
1075.3333
30
0.0
11
1100.0000
21
1075.3333
31
0.0
0
LINE
8
SHEET3_SCALED
10
609.8333
20
1007.6667
30
0.0
11
609.8333
21
908.3333
31
0.0
0
LINE
8
SHEET3_SCALED
10
1114.3333
20
1024.0000
30
0.0
11
1030.5000
21
1008.8333
31
0.0
0
LINE
8
SHEET3_SCALED
10
1115.3333
20
697.3333
30
0.0
11
1030.5000
21
690.3333
31
0.0
0
LINE
8
SHEET3_SCALED
10
416.8335
20
1008.7128
30
0.0
11
537.9996
21
1008.2339
31
0.0
0
LINE
8
SHEET3_SCALED
10
395.8333
20
380.6667
30
0.0
11
313.5000
21
380.0000
31
0.0
0
LINE
8
SHEET3_SCALED
10
395.6667
20
387.6667
30
0.0
11
313.5000
21
387.0000
31
0.0
0
LINE
8
SHEET3_SCALED
10
833.0000
20
310.6667
30
0.0
11
853.8333
21
232.3333
31
0.0
0
LINE
8
SHEET3_SCALED
10
440.0000
20
1008.1667
30
0.0
11
440.0000
21
921.1667
31
0.0
0
LINE
8
SHEET3_SCALED
10
895.3333
20
1007.3333
30
0.0
11
895.0000
21
927.3333
31
0.0
0
LINE
8
SHEET3_SCALED
10
652.6871
20
587.6269
30
0.0
11
748.5000
21
572.1667
31
0.0
0
LINE
8
SHEET3_SCALED
10
1120.5544
20
1012.4998
30
0.0
11
1120.1667
21
921.0000
31
0.0
0
LINE
8
SHEET3_SCALED
10
555.0830
20
999.6663
30
0.0
11
554.6667
21
901.8333
31
0.0
0
LINE
8
SHEET3_SCALED
10
1137.6667
20
453.6667
30
0.0
11
1056.1722
21
440.4656
31
0.0
0
LINE
8
SHEET3_SCALED
10
1010.0000
20
1007.0000
30
0.0
11
1010.0000
21
889.1667
31
0.0
0
LINE
8
SHEET3_SCALED
10
734.6690
20
1073.3887
30
0.0
11
559.6690
21
1071.8897
31
0.0
0
LINE
8
SHEET3_SCALED
10
950.1667
20
1003.5000
30
0.0
11
949.6956
21
893.5006
31
0.0
0
LINE
8
SHEET3_SCALED
10
893.1749
20
716.5117
30
0.0
11
901.3402
21
594.8226
31
0.0
0
LINE
8
SHEET3_SCALED
10
703.5000
20
909.8333
30
0.0
11
790.1591
21
903.8899
31
0.0
0
LINE
8
SHEET3_SCALED
10
646.6667
20
709.1667
30
0.0
11
634.6667
21
635.1667
31
0.0
0
LINE
8
SHEET3_SCALED
10
795.6667
20
853.0000
30
0.0
11
795.6667
21
751.6667
31
0.0
0
LINE
8
SHEET3_SCALED
10
1221.5511
20
755.2970
30
0.0
11
1167.5000
21
679.3333
31
0.0
0
LINE
8
SHEET3_SCALED
10
923.4475
20
673.9667
30
0.0
11
935.0000
21
598.0000
31
0.0
0
LINE
8
SHEET3_SCALED
10
1110.3379
20
756.9439
30
0.0
11
1002.1891
21
748.2222
31
0.0
0
LINE
8
SHEET3_SCALED
10
1152.9851
20
553.6793
30
0.0
11
1159.0000
21
481.5000
31
0.0
0
LINE
8
SHEET3_SCALED
10
1127.0000
20
859.8333
30
0.0
11
1132.8356
21
789.4725
31
0.0
0
LINE
8
SHEET3_SCALED
10
1152.0507
20
395.4719
30
0.0
11
1054.6401
21
370.1020
31
0.0
0
LINE
8
SHEET3_SCALED
10
1195.8333
20
330.5000
30
0.0
11
1214.0000
21
262.8333
31
0.0
0
LINE
8
SHEET3_SCALED
10
591.3333
20
1007.8333
30
0.0
11
681.0000
21
1007.8333
31
0.0
0
LINE
8
SHEET3_SCALED
10
1130.8285
20
513.0568
30
0.0
11
1030.5130
21
504.5141
31
0.0
0
LINE
8
SHEET3_SCALED
10
246.1667
20
387.1667
30
0.0
11
178.3333
21
385.6667
31
0.0
0
LINE
8
SHEET3_SCALED
10
407.3333
20
324.6667
30
0.0
11
427.5000
21
260.5000
31
0.0
0
LINE
8
SHEET3_SCALED
10
1168.2138
20
433.8458
30
0.0
11
1186.1040
21
366.1061
31
0.0
0
LINE
8
SHEET3_SCALED
10
299.5000
20
1004.6667
30
0.0
11
299.5000
21
937.6667
31
0.0
0
LINE
8
SHEET3_SCALED
10
840.1667
20
1007.5000
30
0.0
11
839.7702
21
928.0003
31
0.0
0
LINE
8
SHEET3_SCALED
10
201.3325
20
1069.9358
30
0.0
11
100.8333
21
1069.1667
31
0.0
0
LINE
8
SHEET3_SCALED
10
518.0000
20
1008.1667
30
0.0
11
591.1667
21
1008.1667
31
0.0
0
LINE
8
SHEET3_SCALED
10
765.0000
20
293.5000
30
0.0
11
781.6667
21
231.6667
31
0.0
0
LINE
8
SHEET3_SCALED
10
675.6711
20
838.0004
30
0.0
11
675.5000
21
773.1667
31
0.0
0
LINE
8
SHEET3_SCALED
10
628.8333
20
598.5000
30
0.0
11
618.6667
21
536.1667
31
0.0
0
LINE
8
SHEET3_SCALED
10
1144.6667
20
653.3333
30
0.0
11
1150.0000
21
590.8333
31
0.0
0
LINE
8
SHEET3_SCALED
10
884.0000
20
872.3333
30
0.0
11
946.5000
21
868.0000
31
0.0
0
LINE
8
SHEET3_SCALED
10
784.1667
20
879.1667
30
0.0
11
846.8202
21
874.8111
31
0.0
0
LINE
8
SHEET3_SCALED
10
613.0000
20
499.1667
30
0.0
11
602.9957
21
437.4737
31
0.0
0
LINE
8
SHEET3_SCALED
10
596.8375
20
400.5259
30
0.0
11
586.2277
21
333.9903
31
0.0
0
LINE
8
SHEET3_SCALED
10
669.8333
20
1008.8333
30
0.0
11
669.8333
21
910.8333
31
0.0
0
LINE
8
SHEET3_SCALED
10
1136.1667
20
752.3333
30
0.0
11
1141.5143
21
690.3346
31
0.0
0
LINE
8
SHEET3_SCALED
10
844.0000
20
556.6667
30
0.0
11
904.6667
21
546.5000
31
0.0
0
LINE
8
SHEET3_SCALED
10
246.2329
20
1007.8968
30
0.0
11
211.5029
21
952.8929
31
0.0
0
LINE
8
SHEET3_SCALED
10
465.0000
20
1071.8333
30
0.0
11
587.3333
21
1071.8333
31
0.0
0
LINE
8
SHEET3_SCALED
10
1006.6402
20
357.3712
30
0.0
11
1037.8170
21
241.9506
31
0.0
0
LINE
8
SHEET3_SCALED
10
1001.6667
20
497.3333
30
0.0
11
938.2665
21
477.1858
31
0.0
0
LINE
8
SHEET3_SCALED
10
481.0000
20
655.3333
30
0.0
11
466.5000
21
597.5000
31
0.0
0
LINE
8
SHEET3_SCALED
10
1228.6060
20
542.1670
30
0.0
11
1228.8599
21
451.4996
31
0.0
0
LINE
8
SHEET3_SCALED
10
425.1667
20
863.5000
30
0.0
11
482.8333
21
863.5000
31
0.0
0
LINE
8
SHEET3_SCALED
10
1098.0000
20
227.8333
30
0.0
11
1040.8333
21
227.5000
31
0.0
0
LINE
8
SHEET3_SCALED
10
1226.4086
20
834.5004
30
0.0
11
1226.8333
21
761.6667
31
0.0
0
LINE
8
SHEET3_SCALED
10
290.6667
20
1070.5000
30
0.0
11
225.1670
21
1070.1170
31
0.0
0
LINE
8
SHEET3_SCALED
10
227.5000
20
221.8333
30
0.0
11
335.0000
21
221.8333
31
0.0
0
LINE
8
SHEET3_SCALED
10
670.8333
20
1008.3333
30
0.0
11
749.3331
21
1008.1018
31
0.0
0
LINE
8
SHEET3_SCALED
10
100.7574
20
1018.8336
30
0.0
11
101.0888
21
906.8331
31
0.0
0
LINE
8
SHEET3_SCALED
10
419.0346
20
395.4943
30
0.0
11
407.3139
21
324.5307
31
0.0
0
LINE
8
SHEET3_SCALED
10
692.0000
20
885.3333
30
0.0
11
746.8333
21
881.8333
31
0.0
0
LINE
8
SHEET3_SCALED
10
489.8333
20
709.8333
30
0.0
11
481.1667
21
655.6667
31
0.0
0
LINE
8
SHEET3_SCALED
10
466.0000
20
597.0000
30
0.0
11
443.5000
21
547.0000
31
0.0
0
LINE
8
SHEET3_SCALED
10
1225.3780
20
1016.0006
30
0.0
11
1225.7530
21
892.9998
31
0.0
0
LINE
8
SHEET3_SCALED
10
1224.6669
20
1026.4265
30
0.0
11
1136.8329
21
1026.1459
31
0.0
0
LINE
8
SHEET3_SCALED
10
157.8333
20
971.3333
30
0.0
11
106.6667
21
970.3333
31
0.0
0
LINE
8
SHEET3_SCALED
10
195.3338
20
221.1781
30
0.0
11
109.9998
21
220.8992
31
0.0
0
LINE
8
SHEET3_SCALED
10
458.1670
20
222.5795
30
0.0
11
366.4996
21
222.2780
31
0.0
0
LINE
8
SHEET3_SCALED
10
706.6667
20
279.6667
30
0.0
11
719.5000
21
231.3333
31
0.0
0
LINE
8
SHEET3_SCALED
10
555.1073
20
901.9626
30
0.0
11
494.6667
21
889.8333
31
0.0
0
LINE
8
SHEET3_SCALED
10
793.5000
20
717.8333
30
0.0
11
843.3333
21
717.8333
31
0.0
0
LINE
8
SHEET3_SCALED
10
570.7692
20
879.0051
30
0.0
11
494.3318
21
864.5083
31
0.0
0
LINE
8
SHEET3_SCALED
10
818.5074
20
390.4864
30
0.0
11
823.0000
21
337.8333
31
0.0
0
LINE
8
SHEET3_SCALED
10
650.5000
20
807.1667
30
0.0
11
650.5000
21
752.8333
31
0.0
0
LINE
8
SHEET3_SCALED
10
104.0876
20
546.0003
30
0.0
11
104.4107
21
451.9997
31
0.0
0
LINE
8
SHEET3_SCALED
10
1224.6667
20
1076.5000
30
0.0
11
1158.9996
21
1076.2720
31
0.0
0
LINE
8
SHEET3_SCALED
10
105.4134
20
376.1669
30
0.0
11
105.7327
21
285.1663
31
0.0
0
LINE
8
SHEET3_SCALED
10
1224.3333
20
265.5000
30
0.0
11
1178.5000
21
253.3333
31
0.0
0
LINE
8
SHEET3_SCALED
10
1142.5415
20
243.8444
30
0.0
11
1096.8333
21
231.6667
31
0.0
0
LINE
8
SHEET3_SCALED
10
101.7600
20
865.6670
30
0.0
11
102.0774
21
776.1664
31
0.0
0
LINE
8
SHEET3_SCALED
10
100.1667
20
1069.3333
30
0.0
11
100.5000
21
1022.5000
31
0.0
0
LINE
8
SHEET3_SCALED
10
1030.1667
20
1025.6667
30
0.0
11
975.6672
21
1025.2659
31
0.0
0
LINE
8
SHEET3_SCALED
10
754.0011
20
1008.3179
30
0.0
11
839.3310
21
1007.6882
31
0.0
0
LINE
8
SHEET3_SCALED
10
895.3333
20
328.0000
30
0.0
11
846.3289
21
315.1835
31
0.0
0
LINE
8
SHEET3_SCALED
10
106.0864
20
286.8337
30
0.0
11
106.3333
21
220.6667
31
0.0
0
LINE
8
SHEET3_SCALED
10
625.5000
20
835.0000
30
0.0
11
625.6667
21
791.3333
31
0.0
0
LINE
8
SHEET3_SCALED
10
182.8333
20
1019.6667
30
0.0
11
206.1898
21
969.3441
31
0.0
0
LINE
8
SHEET3_SCALED
10
637.6667
20
909.8333
30
0.0
11
594.8333
21
906.8333
31
0.0
0
LINE
8
SHEET3_SCALED
10
247.3333
20
1009.3333
30
0.0
11
309.3333
21
1009.3333
31
0.0
0
LINE
8
SHEET3_SCALED
10
808.8333
20
1074.3333
30
0.0
11
877.3333
21
1074.3333
31
0.0
0
LINE
8
SHEET3_SCALED
10
597.8333
20
856.8333
30
0.0
11
553.9796
21
850.6443
31
0.0
0
LINE
8
SHEET3_SCALED
10
385.6667
20
888.8333
30
0.0
11
428.8319
21
888.4880
31
0.0
0
LINE
8
SHEET3_SCALED
10
1033.8333
20
1025.6667
30
0.0
11
1114.5000
21
1025.6667
31
0.0
0
LINE
8
SHEET3_SCALED
10
300.8333
20
243.3333
30
0.0
11
348.6667
21
243.3333
31
0.0
0
LINE
8
SHEET3_SCALED
10
984.5000
20
840.5000
30
0.0
11
1025.3333
21
837.6667
31
0.0
0
LINE
8
SHEET3_SCALED
10
1112.8333
20
567.0000
30
0.0
11
1072.1667
21
563.5000
31
0.0
0
LINE
8
SHEET3_SCALED
10
650.6667
20
885.0000
30
0.0
11
650.6667
21
844.6667
31
0.0
0
LINE
8
SHEET3_SCALED
10
189.3333
20
1070.0000
30
0.0
11
229.5000
21
1070.0000
31
0.0
0
LINE
8
SHEET3_SCALED
10
815.9377
20
466.5146
30
0.0
11
774.6667
21
452.3333
31
0.0
0
LINE
8
SHEET3_SCALED
10
615.5000
20
224.0000
30
0.0
11
669.6667
21
224.0000
31
0.0
0
LINE
8
SHEET3_SCALED
10
1228.1667
20
596.8333
30
0.0
11
1228.1667
21
532.3333
31
0.0
0
LINE
8
SHEET3_SCALED
10
958.3333
20
892.3333
30
0.0
11
1028.1729
21
887.9317
31
0.0
0
LINE
8
SHEET3_SCALED
10
427.5000
20
888.5000
30
0.0
11
485.8333
21
888.5000
31
0.0
0
LINE
8
SHEET3_SCALED
10
974.6667
20
1074.8333
30
0.0
11
974.8755
21
1025.3328
31
0.0
0
LINE
8
SHEET3_SCALED
10
395.8339
20
373.1999
30
0.0
11
348.6667
21
373.0000
31
0.0
0
LINE
8
SHEET3_SCALED
10
614.2937
20
350.0846
30
0.0
11
691.4385
21
337.7814
31
0.0
0
LINE
8
SHEET3_SCALED
10
1184.6667
20
1049.6667
30
0.0
11
1145.8341
21
1049.4993
31
0.0
0
LINE
8
SHEET3_SCALED
10
866.6667
20
436.1667
30
0.0
11
912.6518
21
428.9059
31
0.0
0
LINE
8
SHEET3_SCALED
10
949.6667
20
777.3333
30
0.0
11
988.0000
21
777.0000
31
0.0
0
LINE
8
SHEET3_SCALED
10
595.0156
20
906.7110
30
0.0
11
556.6667
21
901.8333
31
0.0
0
LINE
8
SHEET3_SCALED
10
103.1667
20
641.8333
30
0.0
11
103.6725
21
584.1667
31
0.0
0
LINE
8
SHEET3_SCALED
10
871.0000
20
226.3333
30
0.0
11
806.0006
21
225.7632
31
0.0
0
LINE
8
SHEET3_SCALED
10
800.8333
20
1074.0000
30
0.0
11
741.8330
21
1073.7412
31
0.0
0
LINE
8
SHEET3_SCALED
10
483.3333
20
838.5000
30
0.0
11
425.6678
21
838.2471
31
0.0
0
LINE
8
SHEET3_SCALED
10
395.6667
20
366.1667
30
0.0
11
348.6668
21
365.9587
31
0.0
0
LINE
8
SHEET3_SCALED
10
195.5000
20
221.5000
30
0.0
11
245.0000
21
221.5000
31
0.0
0
LINE
8
SHEET3_SCALED
10
144.1667
20
870.8333
30
0.0
11
107.3333
21
869.8333
31
0.0
0
LINE
8
SHEET3_SCALED
10
1224.8333
20
1050.0000
30
0.0
11
1188.1667
21
1049.8333
31
0.0
0
LINE
8
SHEET3_SCALED
10
906.3333
20
1075.0000
30
0.0
11
969.0000
21
1075.0000
31
0.0
0
LINE
8
SHEET3_SCALED
10
341.5000
20
1008.6667
30
0.0
11
422.5000
21
1008.6667
31
0.0
0
LINE
8
SHEET3_SCALED
10
144.1667
20
720.5000
30
0.0
11
108.5000
21
719.8333
31
0.0
0
LINE
8
SHEET3_SCALED
10
144.1667
20
670.8333
30
0.0
11
108.6667
21
670.0000
31
0.0
0
LINE
8
SHEET3_SCALED
10
737.3333
20
225.5000
30
0.0
11
772.5000
21
225.5000
31
0.0
0
LINE
8
SHEET3_SCALED
10
144.1667
20
610.8333
30
0.0
11
109.3333
21
610.1667
31
0.0
0
LINE
8
SHEET3_SCALED
10
101.3333
20
916.3333
30
0.0
11
101.3333
21
873.5000
31
0.0
0
LINE
8
SHEET3_SCALED
10
1139.9973
20
1076.1111
30
0.0
11
1094.0000
21
1075.6667
31
0.0
0
LINE
8
SHEET3_SCALED
10
1209.8333
20
695.6667
30
0.0
11
1189.6982
21
667.4775
31
0.0
0
LINE
8
SHEET3_SCALED
10
669.8333
20
885.5000
30
0.0
11
635.5000
21
884.6667
31
0.0
0
LINE
8
SHEET3_SCALED
10
1168.0000
20
637.0000
30
0.0
11
1148.3333
21
609.1667
31
0.0
0
LINE
8
SHEET3_SCALED
10
854.5000
20
616.0000
30
0.0
11
900.3251
21
608.2845
31
0.0
0
LINE
8
SHEET3_SCALED
10
879.3333
20
1074.6667
30
0.0
11
913.6667
21
1074.6667
31
0.0
0
LINE
8
SHEET3_SCALED
10
795.5820
20
748.3152
30
0.0
11
792.6667
21
708.3333
31
0.0
0
LINE
8
SHEET3_SCALED
10
1110.3342
20
1049.1667
30
0.0
11
1065.1670
21
1048.9314
31
0.0
0
LINE
8
SHEET3_SCALED
10
1204.5003
20
228.6163
30
0.0
11
1150.1667
21
228.3333
31
0.0
0
LINE
8
SHEET3_SCALED
10
102.5000
20
781.0000
30
0.0
11
102.5000
21
704.3333
31
0.0
0
LINE
8
SHEET3_SCALED
10
1224.8333
20
1073.3333
30
0.0
11
1224.8333
21
1020.0000
31
0.0
0
LINE
8
SHEET3_SCALED
10
426.3333
20
1071.3333
30
0.0
11
461.0000
21
1071.3333
31
0.0
0
LINE
8
SHEET3_SCALED
10
561.6667
20
283.5000
30
0.0
11
567.3333
21
252.8333
31
0.0
0
LINE
8
SHEET3_SCALED
10
610.9918
20
290.2995
30
0.0
11
618.3333
21
252.3333
31
0.0
0
LINE
8
SHEET3_SCALED
10
427.3820
20
259.2685
30
0.0
11
418.1667
21
228.6667
31
0.0
0
LINE
8
SHEET3_SCALED
10
887.6667
20
362.1667
30
0.0
11
917.6667
21
357.5000
31
0.0
0
LINE
8
SHEET3_SCALED
10
625.6609
20
771.1613
30
0.0
11
624.4665
21
735.3289
31
0.0
0
LINE
8
SHEET3_SCALED
10
1134.5000
20
1076.0000
30
0.0
11
1164.5000
21
1076.0000
31
0.0
0
LINE
8
SHEET3_SCALED
10
1201.0000
20
228.8333
30
0.0
11
1231.0000
21
228.8333
31
0.0
0
LINE
8
SHEET3_SCALED
10
593.2724
20
251.9658
30
0.0
11
561.8333
21
237.5000
31
0.0
0
LINE
8
SHEET3_SCALED
10
900.8333
20
607.0000
30
0.0
11
902.6667
21
577.3333
31
0.0
0
LINE
8
SHEET3_SCALED
10
987.8199
20
864.7338
30
0.0
11
1033.9949
21
862.3991
31
0.0
0
LINE
8
SHEET3_SCALED
10
1227.0000
20
757.6667
30
0.0
11
1227.0000
21
705.1667
31
0.0
0
LINE
8
SHEET3_SCALED
10
991.3333
20
1007.3333
30
0.0
11
1020.8333
21
1007.3333
31
0.0
0
LINE
8
SHEET3_SCALED
10
395.8333
20
395.8333
30
0.0
11
396.0000
21
366.5000
31
0.0
0
LINE
8
SHEET3_SCALED
10
443.3333
20
546.3333
30
0.0
11
472.0000
21
541.5000
31
0.0
0
LINE
8
SHEET3_SCALED
10
615.6667
20
359.5000
30
0.0
11
611.0000
21
330.8333
31
0.0
0
LINE
8
SHEET3_SCALED
10
557.1667
20
851.1667
30
0.0
11
528.6667
21
845.6667
31
0.0
0
LINE
8
SHEET3_SCALED
10
1101.3333
20
228.0000
30
0.0
11
1144.3333
21
228.0000
31
0.0
0
LINE
8
SHEET3_SCALED
10
731.8333
20
225.3333
30
0.0
11
690.6665
21
224.8518
31
0.0
0
LINE
8
SHEET3_SCALED
10
1229.0000
20
444.6667
30
0.0
11
1229.3333
21
416.3333
31
0.0
0
LINE
8
SHEET3_SCALED
10
612.3333
20
883.0000
30
0.0
11
571.8021
21
879.1627
31
0.0
0
LINE
8
SHEET3_SCALED
10
103.8333
20
581.0000
30
0.0
11
103.8333
21
542.5000
31
0.0
0
LINE
8
SHEET3_SCALED
10
309.5000
20
247.1667
30
0.0
11
349.6667
21
247.1667
31
0.0
0
LINE
8
SHEET3_SCALED
10
858.1667
20
1008.0000
30
0.0
11
831.5000
21
1007.8333
31
0.0
0
LINE
8
SHEET3_SCALED
10
1134.1667
20
479.3333
30
0.0
11
1137.8333
21
453.3333
31
0.0
0
LINE
8
SHEET3_SCALED
10
297.0000
20
394.1667
30
0.0
11
347.3333
21
394.1667
31
0.0
0
LINE
8
SHEET3_SCALED
10
649.3333
20
735.0000
30
0.0
11
646.6667
21
709.3333
31
0.0
0
LINE
8
SHEET3_SCALED
10
1225.9353
20
898.6662
30
0.0
11
1226.1667
21
863.5000
31
0.0
0
LINE
8
SHEET3_SCALED
10
695.1667
20
225.0000
30
0.0
11
670.0000
21
224.6667
31
0.0
0
LINE
8
SHEET3_SCALED
10
249.8333
20
247.0000
30
0.0
11
275.0000
21
246.8333
31
0.0
0
LINE
8
SHEET3_SCALED
10
350.8333
20
394.5000
30
0.0
11
395.6667
21
394.5000
31
0.0
0
LINE
8
SHEET3_SCALED
10
206.8333
20
1020.1667
30
0.0
11
231.8333
21
1020.1667
31
0.0
0
LINE
8
SHEET3_SCALED
10
617.5000
20
256.3333
30
0.0
11
593.0000
21
251.6667
31
0.0
0
LINE
8
SHEET3_SCALED
10
194.1667
20
1020.0000
30
0.0
11
169.3333
21
1019.8333
31
0.0
0
LINE
8
SHEET3_SCALED
10
103.0000
20
690.5000
30
0.0
11
103.0000
21
648.1667
31
0.0
0
LINE
8
SHEET3_SCALED
10
935.3333
20
595.5000
30
0.0
11
937.3333
21
571.0000
31
0.0
0
LINE
8
SHEET3_SCALED
10
275.0000
20
242.1667
30
0.0
11
299.5000
21
242.1667
31
0.0
0
LINE
8
SHEET3_SCALED
10
1158.7320
20
482.2908
30
0.0
11
1163.1667
21
454.3333
31
0.0
0
LINE
8
SHEET3_SCALED
10
1098.3333
20
911.6667
30
0.0
11
1076.8333
21
900.5000
31
0.0
0
LINE
8
SHEET3_SCALED
10
796.0000
20
777.6667
30
0.0
11
820.1667
21
777.6667
31
0.0
0
LINE
8
SHEET3_SCALED
10
285.3333
20
387.1667
30
0.0
11
309.3333
21
387.1667
31
0.0
0
LINE
8
SHEET3_SCALED
10
104.6667
20
458.0000
30
0.0
11
104.8333
21
434.1667
31
0.0
0
LINE
8
SHEET3_SCALED
10
228.4918
20
979.9146
30
0.0
11
240.1667
21
956.0000
31
0.0
0
LINE
8
SHEET3_SCALED
10
1162.8333
20
456.6667
30
0.0
11
1167.8333
21
434.3333
31
0.0
0
LINE
8
SHEET3_SCALED
10
855.6667
20
471.0000
30
0.0
11
838.0000
21
456.5000
31
0.0
0
LINE
8
SHEET3_SCALED
10
439.8333
20
911.8333
30
0.0
11
439.8333
21
889.0000
31
0.0
0
LINE
8
SHEET3_SCALED
10
275.8333
20
245.8333
30
0.0
11
298.6667
21
245.8333
31
0.0
0
LINE
8
SHEET3_SCALED
10
250.8333
20
243.3333
30
0.0
11
273.5000
21
243.3333
31
0.0
0
LINE
8
SHEET3_SCALED
10
1137.3333
20
900.1667
30
0.0
11
1116.5000
21
892.5000
31
0.0
0
LINE
8
SHEET3_SCALED
10
1117.1667
20
893.0000
30
0.0
11
1097.3333
21
883.1667
31
0.0
0
LINE
8
SHEET3_SCALED
10
587.9925
20
279.0282
30
0.0
11
592.8333
21
251.6667
31
0.0
0
LINE
8
SHEET3_SCALED
10
261.1667
20
262.1667
30
0.0
11
288.5000
21
262.1667
31
0.0
0
LINE
8
SHEET3_SCALED
10
673.8333
20
729.0000
30
0.0
11
671.6667
21
707.1667
31
0.0
0
LINE
8
SHEET3_SCALED
10
331.6667
20
262.8333
30
0.0
11
310.0000
21
260.5000
31
0.0
0
LINE
8
SHEET3_SCALED
10
246.0000
20
395.8333
30
0.0
11
246.5000
21
374.3333
31
0.0
0
LINE
8
SHEET3_SCALED
10
407.1667
20
272.8333
30
0.0
11
425.3333
21
261.5000
31
0.0
0
LINE
8
SHEET3_SCALED
10
1012.5000
20
749.1667
30
0.0
11
991.1667
21
747.5000
31
0.0
0
LINE
8
SHEET3_SCALED
10
586.0000
20
332.8333
30
0.0
11
584.6667
21
312.0000
31
0.0
0
LINE
8
SHEET3_SCALED
10
144.8326
20
920.8817
30
0.0
11
106.8317
21
920.2688
31
0.0
0
LINE
8
SHEET3_SCALED
10
1138.0000
20
453.1667
30
0.0
11
1142.5000
21
433.1667
31
0.0
0
LINE
8
SHEET3_SCALED
10
933.5000
20
609.0000
30
0.0
11
935.8333
21
588.6667
31
0.0
0
LINE
8
SHEET3_SCALED
10
104.8333
20
430.0000
30
0.0
11
104.8333
21
402.3333
31
0.0
0
LINE
8
SHEET3_SCALED
10
676.1592
20
775.6532
30
0.0
11
674.1482
21
726.9870
31
0.0
0
LINE
8
SHEET3_SCALED
10
1021.0000
20
299.5000
30
0.0
11
1001.5000
21
294.3333
31
0.0
0
LINE
8
SHEET3_SCALED
10
105.0000
20
402.1667
30
0.0
11
105.2731
21
369.6676
31
0.0
0
LINE
8
SHEET3_SCALED
10
1104.8333
20
825.6667
30
0.0
11
1106.5000
21
806.3333
31
0.0
0
LINE
8
SHEET3_SCALED
10
1195.1667
20
884.1667
30
0.0
11
1214.5000
21
883.5000
31
0.0
0
LINE
8
SHEET3_SCALED
10
559.8333
20
300.0000
30
0.0
11
562.1667
21
281.0000
31
0.0
0
LINE
8
SHEET3_SCALED
10
1117.6667
20
919.8333
30
0.0
11
1100.0000
21
912.5000
31
0.0
0
LINE
8
SHEET3_SCALED
10
244.3333
20
1020.5000
30
0.0
11
269.1667
21
1020.5000
31
0.0
0
LINE
8
SHEET3_SCALED
10
329.6667
20
222.0000
30
0.0
11
364.8333
21
222.0000
31
0.0
0
LINE
8
SHEET3_SCALED
10
309.8333
20
1008.6667
30
0.0
11
339.0000
21
1008.6667
31
0.0
0
LINE
8
SHEET3_SCALED
10
217.0000
20
946.3333
30
0.0
11
226.5000
21
930.0000
31
0.0
0
LINE
8
SHEET3_SCALED
10
312.3333
20
264.8333
30
0.0
11
331.1667
21
264.0000
31
0.0
0
LINE
8
SHEET3_SCALED
10
894.8068
20
918.8316
30
0.0
11
895.0000
21
897.0000
31
0.0
0
LINE
8
SHEET3_SCALED
10
921.8333
20
705.6667
30
0.0
11
922.3333
21
687.0000
31
0.0
0
LINE
8
SHEET3_SCALED
10
1117.0000
20
891.6667
30
0.0
11
1123.6667
21
874.3333
31
0.0
0
LINE
8
SHEET3_SCALED
10
285.1667
20
902.0000
30
0.0
11
300.1667
21
891.1667
31
0.0
0
LINE
8
SHEET3_SCALED
10
823.1667
20
336.6667
30
0.0
11
823.1667
21
318.1667
31
0.0
0
LINE
8
SHEET3_SCALED
10
650.3779
20
753.6532
30
0.0
11
649.0000
21
732.0000
31
0.0
0
LINE
8
SHEET3_SCALED
10
634.8333
20
473.0000
30
0.0
11
652.8333
21
470.0000
31
0.0
0
LINE
8
SHEET3_SCALED
10
634.6667
20
884.5000
30
0.0
11
616.8333
21
883.3333
31
0.0
0
LINE
8
SHEET3_SCALED
10
389.5000
20
273.0000
30
0.0
11
407.1667
21
273.0000
31
0.0
0
LINE
8
SHEET3_SCALED
10
584.6931
20
307.1559
30
0.0
11
586.1667
21
288.0000
31
0.0
0
LINE
8
SHEET3_SCALED
10
249.1667
20
901.1667
30
0.0
11
261.6667
21
889.1667
31
0.0
0
LINE
8
SHEET3_SCALED
10
205.7725
20
969.3875
30
0.0
11
218.0000
21
944.6667
31
0.0
0
LINE
8
SHEET3_SCALED
10
609.6667
20
308.8333
30
0.0
11
611.0000
21
291.6667
31
0.0
0
LINE
8
SHEET3_SCALED
10
675.5000
20
910.5000
30
0.0
11
703.3372
21
910.2297
31
0.0
0
LINE
8
SHEET3_SCALED
10
107.1667
20
220.6667
30
0.0
11
124.1667
21
220.6667
31
0.0
0
LINE
8
SHEET3_SCALED
10
445.3333
20
222.8333
30
0.0
11
462.3333
21
222.8333
31
0.0
0
LINE
8
SHEET3_SCALED
10
844.8333
20
471.1667
30
0.0
11
828.0000
21
469.1667
31
0.0
0
LINE
8
SHEET3_SCALED
10
938.3333
20
477.5000
30
0.0
11
919.5328
21
473.5120
31
0.0
0
LINE
8
SHEET3_SCALED
10
819.0000
20
414.1667
30
0.0
11
818.3333
21
397.3333
31
0.0
0
LINE
8
SHEET3_SCALED
10
840.0000
20
917.6667
30
0.0
11
839.8333
21
900.8333
31
0.0
0
LINE
8
SHEET3_SCALED
10
317.3333
20
395.8333
30
0.0
11
317.3333
21
374.3333
31
0.0
0
LINE
8
SHEET3_SCALED
10
624.3333
20
735.1667
30
0.0
11
622.6667
21
718.5000
31
0.0
0
LINE
8
SHEET3_SCALED
10
905.1667
20
482.5000
30
0.0
11
892.1667
21
472.1667
31
0.0
0
LINE
8
SHEET3_SCALED
10
226.8333
20
929.5000
30
0.0
11
236.5000
21
916.0000
31
0.0
0
LINE
8
SHEET3_SCALED
10
936.1667
20
539.0000
30
0.0
11
932.5000
21
522.8333
31
0.0
0
LINE
8
SHEET3_SCALED
10
832.6667
20
470.0000
30
0.0
11
816.5000
21
466.5000
31
0.0
0
LINE
8
SHEET3_SCALED
10
156.0000
20
921.3333
30
0.0
11
139.6667
21
921.0000
31
0.0
0
LINE
8
SHEET3_SCALED
10
363.8333
20
395.8333
30
0.0
11
363.8333
21
366.1667
31
0.0
0
LINE
8
SHEET3_SCALED
10
303.1667
20
919.6667
30
0.0
11
316.3333
21
910.3333
31
0.0
0
LINE
8
SHEET3_SCALED
10
769.8333
20
450.6667
30
0.0
11
754.5000
21
445.8333
31
0.0
0
LINE
8
SHEET3_SCALED
10
246.1667
20
945.6667
30
0.0
11
255.3333
21
932.5000
31
0.0
0
LINE
8
SHEET3_SCALED
10
984.0000
20
865.3333
30
0.0
11
1000.0000
21
864.5000
31
0.0
0
LINE
8
SHEET3_SCALED
10
1136.6667
20
1026.0000
30
0.0
11
1120.8333
21
1025.6667
31
0.0
0
LINE
8
SHEET3_SCALED
10
560.5000
20
329.3333
30
0.0
11
559.4987
21
310.5089
31
0.0
0
LINE
8
SHEET3_SCALED
10
317.1667
20
909.8333
30
0.0
11
331.0000
21
902.5000
31
0.0
0
LINE
8
SHEET3_SCALED
10
672.3333
20
714.5000
30
0.0
11
670.3333
21
699.0000
31
0.0
0
LINE
8
SHEET3_SCALED
10
661.5000
20
910.3333
30
0.0
11
639.9989
21
910.1021
31
0.0
0
LINE
8
SHEET3_SCALED
10
1209.1667
20
1026.6667
30
0.0
11
1224.6667
21
1026.6667
31
0.0
0
LINE
8
SHEET3_SCALED
10
1083.0000
20
875.1667
30
0.0
11
1068.8333
21
869.1667
31
0.0
0
LINE
8
SHEET3_SCALED
10
495.1667
20
864.6667
30
0.0
11
479.8333
21
863.6667
31
0.0
0
LINE
8
SHEET3_SCALED
10
490.8333
20
763.3333
30
0.0
11
506.1667
21
763.3333
31
0.0
0
LINE
8
SHEET3_SCALED
10
263.1667
20
966.1667
30
0.0
11
271.1667
21
953.1667
31
0.0
0
LINE
8
SHEET3_SCALED
10
1011.1667
20
499.8333
30
0.0
11
996.6667
21
495.6667
31
0.0
0
LINE
8
SHEET3_SCALED
10
247.3333
20
1007.5000
30
0.0
11
251.5000
21
993.0000
31
0.0
0
LINE
8
SHEET3_SCALED
10
285.1667
20
389.3333
30
0.0
11
285.3333
21
374.3333
31
0.0
0
LINE
8
SHEET3_SCALED
10
273.8333
20
266.0000
30
0.0
11
258.8333
21
265.8333
31
0.0
0
LINE
8
SHEET3_SCALED
10
797.3333
20
225.8333
30
0.0
11
782.3333
21
225.6667
31
0.0
0
LINE
8
SHEET3_SCALED
10
1030.5000
20
1025.3333
30
0.0
11
1045.5000
21
1025.3333
31
0.0
0
LINE
8
SHEET3_SCALED
10
272.0000
20
952.0000
30
0.0
11
281.3333
21
940.3333
31
0.0
0
LINE
8
SHEET3_SCALED
10
1064.6667
20
867.8333
30
0.0
11
1050.1667
21
864.3333
31
0.0
0
LINE
8
SHEET3_SCALED
10
146.6667
20
1019.6667
30
0.0
11
131.8333
21
1019.5000
31
0.0
0
LINE
8
SHEET3_SCALED
10
101.5000
20
873.3333
30
0.0
11
101.5000
21
858.5000
31
0.0
0
LINE
8
SHEET3_SCALED
10
363.6667
20
891.6667
30
0.0
11
378.1667
21
889.5000
31
0.0
0
LINE
8
SHEET3_SCALED
10
1077.1667
20
845.1667
30
0.0
11
1063.0000
21
841.5000
31
0.0
0
LINE
8
SHEET3_SCALED
10
1059.5000
20
840.6667
30
0.0
11
1045.1667
21
838.3333
31
0.0
0
LINE
8
SHEET3_SCALED
10
745.0000
20
1073.8333
30
0.0
11
730.6667
21
1073.5000
31
0.0
0
LINE
8
SHEET3_SCALED
10
1010.3333
20
1007.0000
30
0.0
11
1010.3333
21
992.6667
31
0.0
0
LINE
8
SHEET3_SCALED
10
244.3333
20
906.5000
30
0.0
11
254.1667
21
896.1667
31
0.0
0
LINE
8
SHEET3_SCALED
10
702.6667
20
1073.5000
30
0.0
11
730.0000
21
1073.5000
31
0.0
0
LINE
8
SHEET3_SCALED
10
292.5000
20
380.1667
30
0.0
11
311.1667
21
380.1667
31
0.0
0
LINE
8
SHEET3_SCALED
10
727.6667
20
300.3333
30
0.0
11
733.1667
21
287.5000
31
0.0
0
LINE
8
SHEET3_SCALED
10
257.8333
20
929.3333
30
0.0
11
267.0000
21
918.8333
31
0.0
0
LINE
8
SHEET3_SCALED
10
932.8333
20
523.5000
30
0.0
11
927.8333
21
510.5000
31
0.0
0
LINE
8
SHEET3_SCALED
10
926.1667
20
507.3333
30
0.0
11
918.6667
21
495.6667
31
0.0
0
LINE
8
SHEET3_SCALED
10
771.0000
20
568.5000
30
0.0
11
768.8333
21
555.0000
31
0.0
0
LINE
8
SHEET3_SCALED
10
347.8333
20
896.0000
30
0.0
11
361.1977
21
892.2783
31
0.0
0
LINE
8
SHEET3_SCALED
10
1032.8333
20
378.3333
30
0.0
11
1036.3333
21
365.3333
31
0.0
0
LINE
8
SHEET3_SCALED
10
462.3333
20
1071.5000
30
0.0
11
475.6667
21
1071.5000
31
0.0
0
LINE
8
SHEET3_SCALED
10
1050.5000
20
864.5000
30
0.0
11
1037.3333
21
862.6667
31
0.0
0
LINE
8
SHEET3_SCALED
10
334.3333
20
901.0000
30
0.0
11
346.6667
21
896.3333
31
0.0
0
LINE
8
SHEET3_SCALED
10
671.6667
20
910.8333
30
0.0
11
658.5000
21
910.1667
31
0.0
0
LINE
8
SHEET3_SCALED
10
517.3333
20
843.0000
30
0.0
11
504.3333
21
840.8333
31
0.0
0
LINE
8
SHEET3_SCALED
10
670.0000
20
885.6667
30
0.0
11
688.1667
21
885.6667
31
0.0
0
LINE
8
SHEET3_SCALED
10
677.8333
20
1073.1667
30
0.0
11
690.8333
21
1073.1667
31
0.0
0
LINE
8
SHEET3_SCALED
10
497.5000
20
839.8333
30
0.0
11
484.6667
21
838.6667
31
0.0
0
LINE
8
SHEET3_SCALED
10
818.5000
20
399.6667
30
0.0
11
819.0000
21
386.8333
31
0.0
0
LINE
8
SHEET3_SCALED
10
1120.5000
20
1025.5000
30
0.0
11
1120.5000
21
1012.6667
31
0.0
0
LINE
8
SHEET3_SCALED
10
913.1667
20
489.8333
30
0.0
11
903.6667
21
481.3333
31
0.0
0
LINE
8
SHEET3_SCALED
10
1006.0000
20
566.8333
30
0.0
11
1007.3333
21
554.1667
31
0.0
0
LINE
8
SHEET3_SCALED
10
856.1667
20
471.1667
30
0.0
11
843.5000
21
471.0000
31
0.0
0
LINE
8
SHEET3_SCALED
10
1226.3333
20
847.3333
30
0.0
11
1226.3333
21
834.6667
31
0.0
0
LINE
8
SHEET3_SCALED
10
791.8333
20
702.1667
30
0.0
11
790.5000
21
689.6667
31
0.0
0
LINE
8
SHEET3_SCALED
10
1010.8333
20
510.5000
30
0.0
11
1011.8333
21
498.0000
31
0.0
0
LINE
8
SHEET3_SCALED
10
995.0000
20
697.3333
30
0.0
11
996.0000
21
684.8333
31
0.0
0
LINE
8
SHEET3_SCALED
10
299.5000
20
1086.8333
30
0.0
11
299.5000
21
1074.3333
31
0.0
0
LINE
8
SHEET3_SCALED
10
936.6667
20
543.1667
30
0.0
11
934.6667
21
530.8333
31
0.0
0
LINE
8
SHEET3_SCALED
10
251.5000
20
992.8333
30
0.0
11
255.8333
21
981.1667
31
0.0
0
LINE
8
SHEET3_SCALED
10
1048.0000
20
889.5000
30
0.0
11
1035.6667
21
887.8333
31
0.0
0
LINE
8
SHEET3_SCALED
10
498.6667
20
890.5000
30
0.0
11
486.3333
21
889.0000
31
0.0
0
LINE
8
SHEET3_SCALED
10
1058.3333
20
370.8333
30
0.0
11
1046.3333
21
367.6667
31
0.0
0
LINE
8
SHEET3_SCALED
10
788.3333
20
904.0000
30
0.0
11
800.6667
21
903.3333
31
0.0
0
LINE
8
SHEET3_SCALED
10
752.6667
20
455.8333
30
0.0
11
750.8333
21
443.6667
31
0.0
0
LINE
8
SHEET3_SCALED
10
1077.0000
20
900.3333
30
0.0
11
1066.0000
21
895.0000
31
0.0
0
LINE
8
SHEET3_SCALED
10
1128.0000
20
923.3333
30
0.0
11
1116.5000
21
919.5000
31
0.0
0
LINE
8
SHEET3_SCALED
10
1107.0000
20
800.5000
30
0.0
11
1108.0000
21
788.5000
31
0.0
0
LINE
8
SHEET3_SCALED
10
555.8333
20
349.8333
30
0.0
11
554.0000
21
338.0000
31
0.0
0
LINE
8
SHEET3_SCALED
10
1064.5000
20
894.5000
30
0.0
11
1053.1667
21
890.6667
31
0.0
0
LINE
8
SHEET3_SCALED
10
262.5000
20
888.5000
30
0.0
11
271.6667
21
880.8333
31
0.0
0
LINE
8
SHEET3_SCALED
10
512.6667
20
901.1667
30
0.0
11
501.0000
21
898.6667
31
0.0
0
LINE
8
SHEET3_SCALED
10
1018.0000
20
443.5000
30
0.0
11
1020.0000
21
431.8333
31
0.0
0
LINE
8
SHEET3_SCALED
10
998.1667
20
227.5000
30
0.0
11
1010.0000
21
227.3333
31
0.0
0
LINE
8
SHEET3_SCALED
10
821.0000
20
426.1667
30
0.0
11
819.1667
21
414.5000
31
0.0
0
LINE
8
SHEET3_SCALED
10
1124.3333
20
872.1667
30
0.0
11
1126.8333
21
860.6667
31
0.0
0
LINE
8
SHEET3_SCALED
10
271.8333
20
913.8333
30
0.0
11
280.3333
21
906.0000
31
0.0
0
LINE
8
SHEET3_SCALED
10
826.8333
20
442.5000
30
0.0
11
822.5000
21
431.8333
31
0.0
0
LINE
8
SHEET3_SCALED
10
259.1667
20
973.8333
30
0.0
11
264.6667
21
963.8333
31
0.0
0
LINE
8
SHEET3_SCALED
10
309.1667
20
1009.1667
30
0.0
11
297.8333
21
1009.0000
31
0.0
0
LINE
8
SHEET3_SCALED
10
907.0000
20
472.1667
30
0.0
11
895.8333
21
472.0000
31
0.0
0
LINE
8
SHEET3_SCALED
10
277.1667
20
266.1667
30
0.0
11
288.3333
21
266.1667
31
0.0
0
LINE
8
SHEET3_SCALED
10
384.6667
20
900.3333
30
0.0
11
384.6667
21
889.3333
31
0.0
0
LINE
8
SHEET3_SCALED
10
513.8333
20
867.8333
30
0.0
11
503.1667
21
865.8333
31
0.0
0
LINE
8
SHEET3_SCALED
10
809.1667
20
1074.0000
30
0.0
11
820.0000
21
1074.0000
31
0.0
0
LINE
8
SHEET3_SCALED
10
1067.3333
20
1066.0000
30
0.0
11
1062.3333
21
1056.5000
31
0.0
0
LINE
8
SHEET3_SCALED
10
760.1667
20
1008.3333
30
0.0
11
749.5000
21
1008.1667
31
0.0
0
LINE
8
SHEET3_SCALED
10
315.6667
20
221.8333
30
0.0
11
326.3333
21
221.8333
31
0.0
0
LINE
8
SHEET3_SCALED
10
1181.6667
20
883.5000
30
0.0
11
1171.1667
21
882.0000
31
0.0
0
LINE
8
SHEET3_SCALED
10
586.1667
20
289.1667
30
0.0
11
587.6667
21
278.6667
31
0.0
0
LINE
8
SHEET3_SCALED
10
309.5000
20
885.5000
30
0.0
11
318.8333
21
880.5000
31
0.0
0
LINE
8
SHEET3_SCALED
10
562.0000
20
340.6667
30
0.0
11
560.8333
21
330.3333
31
0.0
0
LINE
8
SHEET3_SCALED
10
102.8333
20
711.3333
30
0.0
11
102.8333
21
690.6667
31
0.0
0
LINE
8
SHEET3_SCALED
10
1045.8333
20
1018.6667
30
0.0
11
1055.8333
21
1016.1667
31
0.0
0
LINE
8
SHEET3_SCALED
10
1126.0000
20
865.5000
30
0.0
11
1127.3333
21
855.3333
31
0.0
0
LINE
8
SHEET3_SCALED
10
1145.0000
20
902.1667
30
0.0
11
1135.1667
21
899.3333
31
0.0
0
LINE
8
SHEET3_SCALED
10
559.8333
20
302.6667
30
0.0
11
560.8333
21
292.5000
31
0.0
0
LINE
8
SHEET3_SCALED
10
625.5000
20
781.8333
30
0.0
11
625.3333
21
771.6667
31
0.0
0
LINE
8
SHEET3_SCALED
10
557.5000
20
347.6667
30
0.0
11
547.5000
21
345.8333
31
0.0
0
LINE
8
SHEET3_SCALED
10
1156.8333
20
904.8333
30
0.0
11
1147.0000
21
902.8333
31
0.0
0
LINE
8
SHEET3_SCALED
10
554.8333
20
997.0000
30
0.0
11
554.8333
21
987.0000
31
0.0
0
LINE
8
SHEET3_SCALED
10
829.3333
20
446.6667
30
0.0
11
824.6667
21
437.8333
31
0.0
0
LINE
8
SHEET3_SCALED
10
1192.0000
20
1068.3333
30
0.0
11
1188.8333
21
1059.0000
31
0.0
0
LINE
8
SHEET3_SCALED
10
339.0000
20
1070.6667
30
0.0
11
348.8333
21
1070.5000
31
0.0
0
LINE
8
SHEET3_SCALED
10
1034.0000
20
1019.0000
30
0.0
11
1044.0000
21
1019.0000
31
0.0
0
LINE
8
SHEET3_SCALED
10
1037.5000
20
243.3333
30
0.0
11
1037.8333
21
233.6667
31
0.0
0
LINE
8
SHEET3_SCALED
10
961.3333
20
227.1667
30
0.0
11
971.0000
21
227.0000
31
0.0
0
LINE
8
SHEET3_SCALED
10
1073.8333
20
871.3333
30
0.0
11
1064.8333
21
868.0000
31
0.0
0
LINE
8
SHEET3_SCALED
10
301.1368
20
890.6163
30
0.0
11
309.5000
21
885.6667
31
0.0
0
LINE
8
SHEET3_SCALED
10
937.1667
20
572.0000
30
0.0
11
937.5000
21
562.6667
31
0.0
0
LINE
8
SHEET3_SCALED
10
785.3333
20
225.8333
30
0.0
11
794.6667
21
225.6667
31
0.0
0
LINE
8
SHEET3_SCALED
10
390.3333
20
896.1667
30
0.0
11
399.6667
21
896.1667
31
0.0
0
LINE
8
SHEET3_SCALED
10
1097.6667
20
883.1667
30
0.0
11
1089.5000
21
878.8333
31
0.0
0
LINE
8
SHEET3_SCALED
10
823.6667
20
435.1667
30
0.0
11
821.0000
21
426.3333
31
0.0
0
LINE
8
SHEET3_SCALED
10
725.0000
20
992.6667
30
0.0
11
725.1667
21
983.5000
31
0.0
0
LINE
8
SHEET3_SCALED
10
922.3333
20
691.6667
30
0.0
11
923.0000
21
682.6667
31
0.0
0
LINE
8
SHEET3_SCALED
10
623.1667
20
404.1667
30
0.0
11
632.0000
21
402.6667
31
0.0
0
LINE
8
SHEET3_SCALED
10
1017.6667
20
227.6667
30
0.0
11
1026.5000
21
227.5000
31
0.0
0
LINE
8
SHEET3_SCALED
10
609.8333
20
313.3333
30
0.0
11
610.0000
21
304.6667
31
0.0
0
LINE
8
SHEET3_SCALED
10
559.8333
20
311.5000
30
0.0
11
559.8333
21
302.8333
31
0.0
0
LINE
8
SHEET3_SCALED
10
288.1667
20
394.3333
30
0.0
11
296.8333
21
394.3333
31
0.0
0
LINE
8
SHEET3_SCALED
10
611.0000
20
331.0000
30
0.0
11
610.3333
21
322.5000
31
0.0
0
LINE
8
SHEET3_SCALED
10
361.8333
20
1070.8333
30
0.0
11
370.3333
21
1070.6667
31
0.0
0
LINE
8
SHEET3_SCALED
10
809.3333
20
226.0000
30
0.0
11
817.8333
21
226.0000
31
0.0
0
LINE
8
SHEET3_SCALED
10
729.0000
20
308.3333
30
0.0
11
727.6667
21
300.0000
31
0.0
0
LINE
8
SHEET3_SCALED
10
680.1667
20
910.6667
30
0.0
11
671.8333
21
910.5000
31
0.0
0
LINE
8
SHEET3_SCALED
10
1065.3333
20
958.8333
30
0.0
11
1065.5000
21
950.5000
31
0.0
0
LINE
8
SHEET3_SCALED
10
877.6667
20
226.5000
30
0.0
11
886.0000
21
226.3333
31
0.0
0
LINE
8
SHEET3_SCALED
10
559.6667
20
911.5000
30
0.0
11
559.6667
21
903.1667
31
0.0
0
LINE
8
SHEET3_SCALED
10
245.5000
20
1019.3333
30
0.0
11
246.8333
21
1011.1667
31
0.0
0
LINE
8
SHEET3_SCALED
10
1226.6667
20
807.5000
30
0.0
11
1226.5000
21
799.3333
31
0.0
0
LINE
8
SHEET3_SCALED
10
1043.8333
20
838.1667
30
0.0
11
1035.8333
21
837.6667
31
0.0
0
LINE
8
SHEET3_SCALED
10
290.5000
20
263.5000
30
0.0
11
298.5000
21
263.5000
31
0.0
0
LINE
8
TRUE_LINEWORK
10
245.0000
20
1009.1667
30
0.0
11
1007.8482
21
1007.5208
31
0.0
0
TEXT
8
TRUE_LABELS
10
626.4289
20
1010.5437
30
0.0
40
4.5
1
N00°32'22"E
50
359.8763847020209
0
TEXT
8
TRUE_LABELS
10
626.4194
20
1006.1438
30
0.0
40
4.140000000000001
1
762.85'
50
359.8763847020209
0
LINE
8
TRUE_LINEWORK
10
382.8518
20
1009.8693
30
0.0
11
382.8475
21
1007.8693
31
0.0
0
LINE
8
TRUE_LINEWORK
10
437.8517
20
1009.7506
30
0.0
11
437.8474
21
1007.7506
31
0.0
0
LINE
8
TRUE_LINEWORK
10
497.8516
20
1009.6211
30
0.0
11
497.8473
21
1007.6211
31
0.0
0
LINE
8
TRUE_LINEWORK
10
552.8514
20
1009.5025
30
0.0
11
552.8471
21
1007.5025
31
0.0
0
LINE
8
TRUE_LINEWORK
10
607.8513
20
1009.3838
30
0.0
11
607.8470
21
1007.3838
31
0.0
0
LINE
8
TRUE_LINEWORK
10
667.8512
20
1009.2544
30
0.0
11
667.8469
21
1007.2544
31
0.0
0
LINE
8
TRUE_LINEWORK
10
722.8510
20
1009.1357
30
0.0
11
722.8467
21
1007.1357
31
0.0
0
LINE
8
TRUE_LINEWORK
10
777.8509
20
1009.0170
30
0.0
11
777.8466
21
1007.0170
31
0.0
0
LINE
8
TRUE_LINEWORK
10
837.8508
20
1008.8876
30
0.0
11
837.8465
21
1006.8876
31
0.0
0
LINE
8
TRUE_LINEWORK
10
892.8506
20
1008.7689
30
0.0
11
892.8463
21
1006.7689
31
0.0
0
LINE
8
TRUE_LINEWORK
10
947.8505
20
1008.6503
30
0.0
11
947.8462
21
1006.6503
31
0.0
0
TEXT
8
TRUE_LABELS
10
313.9227
20
1008.0180
30
0.0
40
2.6
1
137.85'
50
359.8763847020209
0
TEXT
8
TRUE_LABELS
10
410.3475
20
1007.8099
30
0.0
40
2.6
1
55.00'
50
359.8763847020209
0
TEXT
8
TRUE_LABELS
10
467.8473
20
1007.6859
30
0.0
40
2.6
1
60.00'
50
359.87638470202097
0
TEXT
8
TRUE_LABELS
10
525.3472
20
1007.5618
30
0.0
40
2.6
1
55.00'
50
359.8763847020209
0
TEXT
8
TRUE_LABELS
10
580.3471
20
1007.4432
30
0.0
40
2.6
1
55.00'
50
359.8763847020209
0
TEXT
8
TRUE_LABELS
10
637.8469
20
1007.3191
30
0.0
40
2.6
1
60.00'
50
359.87638470202086
0
TEXT
8
TRUE_LABELS
10
695.3468
20
1007.1950
30
0.0
40
2.6
1
55.00'
50
359.8763847020209
0
TEXT
8
TRUE_LABELS
10
750.3467
20
1007.0764
30
0.0
40
2.6
1
55.00'
50
359.8763847020209
0
TEXT
8
TRUE_LABELS
10
807.8465
20
1006.9523
30
0.0
40
2.6
1
60.00'
50
359.87638470202097
0
TEXT
8
TRUE_LABELS
10
865.3464
20
1006.8283
30
0.0
40
2.6
1
55.00'
50
359.8763847020209
0
TEXT
8
TRUE_LABELS
10
920.3463
20
1006.7096
30
0.0
40
2.6
1
55.00'
50
359.8763847020209
0
TEXT
8
TRUE_LABELS
10
977.8461
20
1006.5856
30
0.0
40
2.6
1
60.00'
50
359.87638470202086
0
LINE
8
TRUE_LINEWORK
10
245.0000
20
1009.1667
30
0.0
11
245.2583
21
1128.8864
31
0.0
0
TEXT
8
TRUE_LABELS
10
246.4291
20
1069.0237
30
0.0
40
3.0
1
N89°27'38"W
50
89.87638470202096
0
TEXT
8
TRUE_LABELS
10
243.8292
20
1069.0293
30
0.0
40
2.7600000000000002
1
119.72'
50
89.87638470202096
0
LINE
8
TRUE_LINEWORK
10
243.5000
20
1009.1699
30
0.0
11
246.5000
21
1009.1634
31
0.0
0
LINE
8
TRUE_LINEWORK
10
243.7583
20
1128.8896
30
0.0
11
246.7583
21
1128.8832
31
0.0
0
TEXT
8
TRUE_LABELS
10
283.2360
20
1046.5741
30
0.0
40
6.0
1
137
50
0.0
0
LINE
8
TRUE_LINEWORK
10
382.8497
20
1008.8693
30
0.0
11
383.1086
21
1128.8690
31
0.0
0
TEXT
8
TRUE_LABELS
10
384.2791
20
1068.8663
30
0.0
40
3.0
1
N89°27'38"W
50
89.87638470202096
0
TEXT
8
TRUE_LABELS
10
381.6791
20
1068.8719
30
0.0
40
2.7600000000000002
1
120.00'
50
89.87638470202096
0
LINE
8
TRUE_LINEWORK
10
381.3497
20
1008.8725
30
0.0
11
384.3497
21
1008.8660
31
0.0
0
LINE
8
TRUE_LINEWORK
10
381.6086
20
1128.8722
30
0.0
11
384.6086
21
1128.8657
31
0.0
0
TEXT
8
TRUE_LABELS
10
393.4693
20
1046.4296
30
0.0
40
6.0
1
136
50
0.0
0
LINE
8
TRUE_LINEWORK
10
437.8496
20
1008.7506
30
0.0
11
438.1036
21
1126.5003
31
0.0
0
TEXT
8
TRUE_LABELS
10
439.2766
20
1067.6227
30
0.0
40
3.0
1
N89°27'38"W
50
89.87638470202096
0
TEXT
8
TRUE_LABELS
10
436.6766
20
1067.6283
30
0.0
40
2.7600000000000002
1
117.75'
50
89.87638470202096
0
LINE
8
TRUE_LINEWORK
10
436.3496
20
1008.7538
30
0.0
11
439.3495
21
1008.7474
31
0.0
0
LINE
8
TRUE_LINEWORK
10
436.6036
20
1126.5036
30
0.0
11
439.6036
21
1126.4971
31
0.0
0
TEXT
8
TRUE_LABELS
10
450.1342
20
1045.5574
30
0.0
40
6.0
1
135
50
0.0
0
LINE
8
TRUE_LINEWORK
10
497.8494
20
1008.6211
30
0.0
11
498.0798
21
1115.4109
31
0.0
0
TEXT
8
TRUE_LABELS
10
499.2646
20
1062.0132
30
0.0
40
3.0
1
N89°27'38"W
50
89.87638470202093
0
TEXT
8
TRUE_LABELS
10
496.6646
20
1062.0188
30
0.0
40
2.7600000000000002
1
106.79'
50
89.87638470202093
0
LINE
8
TRUE_LINEWORK
10
496.3494
20
1008.6244
30
0.0
11
499.3494
21
1008.6179
31
0.0
0
LINE
8
TRUE_LINEWORK
10
496.5798
20
1115.4141
30
0.0
11
499.5798
21
1115.4077
31
0.0
0
TEXT
8
TRUE_LABELS
10
508.4595
20
1041.7782
30
0.0
40
6.0
1
134
50
0.0
0
LINE
8
TRUE_LINEWORK
10
552.8493
20
1008.5025
30
0.0
11
553.0651
21
1108.5422
31
0.0
0
TEXT
8
TRUE_LABELS
10
554.2572
20
1058.5196
30
0.0
40
3.0
1
N89°27'38"W
50
89.87638470202101
0
TEXT
8
TRUE_LABELS
10
551.6572
20
1058.5252
30
0.0
40
2.7600000000000002
1
100.04'
50
89.87638470202101
0
LINE
8
TRUE_LINEWORK
10
551.3493
20
1008.5057
30
0.0
11
554.3493
21
1008.4992
31
0.0
0
LINE
8
TRUE_LINEWORK
10
551.5651
20
1108.5455
30
0.0
11
554.5651
21
1108.5390
31
0.0
0
TEXT
8
TRUE_LABELS
10
563.4545
20
1039.4095
30
0.0
40
6.0
1
133
50
0.0
0
LINE
8
TRUE_LINEWORK
10
607.8492
20
1008.3838
30
0.0
11
608.0599
21
1106.0436
31
0.0
0
TEXT
8
TRUE_LABELS
10
609.2545
20
1057.2109
30
0.0
40
3.0
1
N89°27'38"W
50
89.87638470202104
0
TEXT
8
TRUE_LABELS
10
606.6545
20
1057.2165
30
0.0
40
2.7600000000000002
1
97.66'
50
89.87638470202104
0
LINE
8
TRUE_LINEWORK
10
606.3492
20
1008.3871
30
0.0
11
609.3492
21
1008.3806
31
0.0
0
LINE
8
TRUE_LINEWORK
10
606.5599
20
1106.0468
30
0.0
11
609.5599
21
1106.0404
31
0.0
0
TEXT
8
TRUE_LABELS
10
620.1193
20
1038.4939
30
0.0
40
6.0
1
132
50
0.0
0
LINE
8
TRUE_LINEWORK
10
667.8490
20
1008.2544
30
0.0
11
668.0646
21
1108.1641
31
0.0
0
TEXT
8
TRUE_LABELS
10
669.2568
20
1058.2065
30
0.0
40
3.0
1
N89°27'38"W
50
89.87638470202097
0
TEXT
8
TRUE_LABELS
10
666.6568
20
1058.2121
30
0.0
40
2.7600000000000002
1
99.91'
50
89.87638470202097
0
LINE
8
TRUE_LINEWORK
10
666.3490
20
1008.2576
30
0.0
11
669.3490
21
1008.2511
31
0.0
0
LINE
8
TRUE_LINEWORK
10
666.5646
20
1108.1674
30
0.0
11
669.5646
21
1108.1609
31
0.0
0
TEXT
8
TRUE_LABELS
10
678.4542
20
1039.1181
30
0.0
40
6.0
1
131
50
0.0
0
LINE
8
TRUE_LINEWORK
10
722.8489
20
1008.1357
30
0.0
11
723.0723
21
1111.6655
31
0.0
0
TEXT
8
TRUE_LABELS
10
724.2606
20
1059.8978
30
0.0
40
3.0
1
N89°27'38"W
50
89.876384702021
0
TEXT
8
TRUE_LABELS
10
721.6606
20
1059.9034
30
0.0
40
2.7600000000000002
1
103.53'
50
89.876384702021
0
LINE
8
TRUE_LINEWORK
10
721.3489
20
1008.1389
30
0.0
11
724.3489
21
1008.1325
31
0.0
0
LINE
8
TRUE_LINEWORK
10
721.5723
20
1111.6687
30
0.0
11
724.5722
21
1111.6622
31
0.0
0
TEXT
8
TRUE_LABELS
10
733.4566
20
1040.2061
30
0.0
40
6.0
1
130
50
0.0
0
LINE
8
TRUE_LINEWORK
10
777.8488
20
1008.0170
30
0.0
11
778.0806
21
1115.4868
31
0.0
0
TEXT
8
TRUE_LABELS
10
779.2647
20
1061.7491
30
0.0
40
3.0
1
N89°27'38"W
50
89.87638470202093
0
TEXT
8
TRUE_LABELS
10
776.6647
20
1061.7547
30
0.0
40
2.7600000000000002
1
107.47'
50
89.87638470202093
0
LINE
8
TRUE_LINEWORK
10
776.3488
20
1008.0203
30
0.0
11
779.3488
21
1008.0138
31
0.0
0
LINE
8
TRUE_LINEWORK
10
776.5806
20
1115.4900
30
0.0
11
779.5806
21
1115.4836
31
0.0
0
TEXT
8
TRUE_LABELS
10
790.1260
20
1041.3971
30
0.0
40
6.0
1
129
50
0.0
0
LINE
8
TRUE_LINEWORK
10
837.8486
20
1007.8876
30
0.0
11
838.0883
21
1118.9673
31
0.0
0
TEXT
8
TRUE_LABELS
10
839.2684
20
1063.4247
30
0.0
40
3.0
1
N89°27'38"W
50
89.87638470202094
0
TEXT
8
TRUE_LABELS
10
836.6685
20
1063.4303
30
0.0
40
2.7600000000000002
1
111.08'
50
89.87638470202094
0
LINE
8
TRUE_LINEWORK
10
836.3486
20
1007.8908
30
0.0
11
839.3486
21
1007.8844
31
0.0
0
LINE
8
TRUE_LINEWORK
10
836.5883
20
1118.9706
30
0.0
11
839.5883
21
1118.9641
31
0.0
0
TEXT
8
TRUE_LABELS
10
848.4618
20
1042.4746
30
0.0
40
6.0
1
128
50
0.0
0
LINE
8
TRUE_LINEWORK
10
892.8485
20
1007.7689
30
0.0
11
893.0960
21
1122.4687
31
0.0
0
TEXT
8
TRUE_LABELS
10
894.2722
20
1065.1160
30
0.0
40
3.0
1
N89°27'38"W
50
89.87638470202097
0
TEXT
8
TRUE_LABELS
10
891.6722
20
1065.1216
30
0.0
40
2.7600000000000002
1
114.70'
50
89.87638470202097
0
LINE
8
TRUE_LINEWORK
10
891.3485
20
1007.7722
30
0.0
11
894.3485
21
1007.7657
31
0.0
0
LINE
8
TRUE_LINEWORK
10
891.5960
20
1122.4719
30
0.0
11
894.5960
21
1122.4654
31
0.0
0
TEXT
8
TRUE_LABELS
10
903.4643
20
1043.5626
30
0.0
40
6.0
1
127
50
0.0
0
LINE
8
TRUE_LINEWORK
10
947.8484
20
1007.6503
30
0.0
11
948.1043
21
1126.2900
31
0.0
0
TEXT
8
TRUE_LABELS
10
949.2763
20
1066.9673
30
0.0
40
3.0
1
N89°27'38"W
50
89.87638470202097
0
TEXT
8
TRUE_LABELS
10
946.6763
20
1066.9729
30
0.0
40
2.7600000000000002
1
118.64'
50
89.87638470202097
0
LINE
8
TRUE_LINEWORK
10
946.3484
20
1007.6535
30
0.0
11
949.3484
21
1007.6470
31
0.0
0
LINE
8
TRUE_LINEWORK
10
946.6043
20
1126.2932
30
0.0
11
949.6043
21
1126.2868
31
0.0
0
TEXT
8
TRUE_LABELS
10
960.1336
20
1044.7537
30
0.0
40
6.0
1
126
50
0.0
0
POINT
8
LOT_NUMBERS
10
980.2066
20
949.2450
30
0.0
0
POINT
8
LOT_NUMBERS
10
922.6829
20
951.2724
30
0.0
0
POINT
8
LOT_NUMBERS
10
810.1694
20
955.2957
30
0.0
0
POINT
8
LOT_NUMBERS
10
469.8167
20
948.6675
30
0.0
0
POINT
8
LOT_NUMBERS
10
1099.9541
20
1050.7889
30
0.0
0
TEXT
8
TITLEBLOCK
10
165.0000
20
1269.1667
30
0.0
40
8
1
ATLANTIC BEACH CC UNIT 2, SHEET 3 -- ITERATION 2
50
0.0
0
TEXT
8
TITLEBLOCK
10
165.0000
20
1253.1667
30
0.0
40
6
1

50
0.0
0
TEXT
8
TITLEBLOCK
10
165.0000
20
1237.1667
30
0.0
40
6
1
GRAY  = scaled linework, ~1 ft accuracy (Iter 16)
50
0.0
0
TEXT
8
TITLEBLOCK
10
165.0000
20
1221.1667
30
0.0
40
6
1
RED   = TRUE traverse, EXACT closure, professional bearing/distance
50
0.0
0
TEXT
8
TITLEBLOCK
10
165.0000
20
1205.1667
30
0.0
40
6
1
        labels (lots 137-126): sum of 12 widths + 10.00' remainder =
50
0.0
0
TEXT
8
TITLEBLOCK
10
165.0000
20
1189.1667
30
0.0
40
6
1
        772.85' EXACT vs stated; side/front bearings exactly
50
0.0
0
TEXT
8
TITLEBLOCK
10
165.0000
20
1173.1667
30
0.0
40
6
1
        perpendicular (90.000000 deg).
50
0.0
0
TEXT
8
TITLEBLOCK
10
165.0000
20
1157.1667
30
0.0
40
6
1
CYAN DOTS = every lot polygon auto-detected from the scaled linework
50
0.0
0
TEXT
8
TITLEBLOCK
10
165.0000
20
1141.1667
30
0.0
40
6
1
        via enclosed-region detection (50 found on this sheet);
50
0.0
0
TEXT
8
TITLEBLOCK
10
165.0000
20
1125.1667
30
0.0
40
6
1
        numbers confirmed only where they match the RED transcription.
50
0.0
0
TEXT
8
TITLEBLOCK
10
165.0000
20
1109.1667
30
0.0
40
6
1

50
0.0
0
TEXT
8
TITLEBLOCK
10
165.0000
20
1093.1667
30
0.0
40
6
1
ROAD NAMES/WIDTHS -- confirmed by direct read, recorded but NOT drawn
50
0.0
0
TEXT
8
TITLEBLOCK
10
165.0000
20
1077.1667
30
0.0
40
6
1
on the map (no verified geometric registration for these yet):
50
0.0
0
TEXT
8
TITLEBLOCK
10
165.0000
20
1061.1667
30
0.0
40
6
1
   MARITIME OAK DRIVE (50' R/W)   centerline N04 17'54"E 307.87'
50
0.0
0
TEXT
8
TITLEBLOCK
10
165.0000
20
1045.1667
30
0.0
40
6
1
   TIMBER BRIDGE LANE (50' R/W)   centerline N80 24'17"W 362.66'
50
0.0
0
TEXT
8
TITLEBLOCK
10
165.0000
20
1029.1667
30
0.0
40
6
1
   ATLANTIC BEACH DRIVE (50' R/W, on sheet 6)
50
0.0
0
TEXT
8
TITLEBLOCK
10
165.0000
20
1013.1667
30
0.0
40
6
1

50
0.0
0
TEXT
8
TITLEBLOCK
10
165.0000
20
997.1667
30
0.0
40
6
1
DELIBERATELY NOT DRAWN THIS ITERATION -- would require guessed
50
0.0
0
TEXT
8
TITLEBLOCK
10
165.0000
20
981.1667
30
0.0
40
6
1
geometry rather than transcription:
50
0.0
0
TEXT
8
TITLEBLOCK
10
165.0000
20
965.1667
30
0.0
40
6
1
   Lots 138,139,142,143: front width + ONE side read, no closure check
50
0.0
0
TEXT
8
TITLEBLOCK
10
165.0000
20
949.1667
30
0.0
40
6
1
     possible without the rear boundary (not yet transcribed).
50
0.0
0
TEXT
8
TITLEBLOCK
10
165.0000
20
933.1667
30
0.0
40
6
1
   Lots 169-172, 162-165: side lengths read, but the frontage split
50
0.0
0
TEXT
8
TITLEBLOCK
10
165.0000
20
917.1667
30
0.0
40
6
1
     along Timber Bridge Lane's 362.66' run was not transcribed with
50
0.0
0
TEXT
8
TITLEBLOCK
10
165.0000
20
901.1667
30
0.0
40
6
1
     confidence -- placing these lots would require an assumed
50
0.0
0
TEXT
8
TITLEBLOCK
10
165.0000
20
885.1667
30
0.0
40
6
1
     station spacing, which is fabrication, not transcription.
50
0.0
0
TEXT
8
TITLEBLOCK
10
165.0000
20
869.1667
30
0.0
40
6
1
Next iteration: re-read those two areas at higher magnification
50
0.0
0
TEXT
8
TITLEBLOCK
10
165.0000
20
853.1667
30
0.0
40
6
1
specifically for the missing dimension, then apply the same
50
0.0
0
TEXT
8
TITLEBLOCK
10
165.0000
20
837.1667
30
0.0
40
6
1
closure-before-drawing discipline used for Block A.
50
0.0
0
ENDSEC
0
EOF
