0
SECTION
2
HEADER
9
$ACADVER
1
AC1009
9
$DWGCODEPAGE
3
ANSI_1252
0
ENDSEC
0
SECTION
2
TABLES
0
TABLE
2
LTYPE
70
16
0
LTYPE
2
CONTINUOUS
70
0
3
Solid
72
65
73
0
40
0.0
0
LTYPE
2
DASHED
70
0
3
Dashed
72
65
73
2
40
0.75
49
0.5
74
0
49
-0.25
74
0
0
LTYPE
2
DASHED2
70
0
3
Dashed (.5x)
72
65
73
2
40
0.375
49
0.25
74
0
49
-0.125
74
0
0
LTYPE
2
HIDDEN
70
0
3
Hidden
72
65
73
2
40
0.375
49
0.25
74
0
49
-0.125
74
0
0
LTYPE
2
CENTER
70
0
3
Center
72
65
73
4
40
2.0
49
1.25
74
0
49
-0.25
74
0
49
0.25
74
0
49
-0.25
74
0
0
LTYPE
2
PHANTOM
70
0
3
Phantom
72
65
73
6
40
2.5
49
1.25
74
0
49
-0.25
74
0
49
0.25
74
0
49
-0.25
74
0
49
0.25
74
0
49
-0.25
74
0
0
LTYPE
2
ROT_-87.59
70
0
3
Solid
72
65
73
0
40
0.0
0
LTYPE
2
ROT_-87.60
70
0
3
Solid
72
65
73
0
40
0.0
0
LTYPE
2
ROT_-88.95
70
0
3
Solid
72
65
73
0
40
0.0
0
LTYPE
2
ROT_-88.97
70
0
3
Solid
72
65
73
0
40
0.0
0
LTYPE
2
ROT_-90.00
70
0
3
Solid
72
65
73
0
40
0.0
0
LTYPE
2
ROT_0.03
70
0
3
Solid
72
65
73
0
40
0.0
0
LTYPE
2
ROT_1.03
70
0
3
Solid
72
65
73
0
40
0.0
0
LTYPE
2
ROT_2.41
70
0
3
Solid
72
65
73
0
40
0.0
0
LTYPE
2
ROT_88.02
70
0
3
Solid
72
65
73
0
40
0.0
0
LTYPE
2
ROT_90.00
70
0
3
Solid
72
65
73
0
40
0.0
0
ENDTAB
0
TABLE
2
LAYER
70
10
0
LAYER
2
0
70
0
62
7
6
CONTINUOUS
0
LAYER
2
LOT_BOUNDARY
70
0
62
7
6
CONTINUOUS
0
LAYER
2
CURVE
70
0
62
4
6
CONTINUOUS
0
LAYER
2
CAD_ARCS
70
0
62
4
6
CONTINUOUS
0
LAYER
2
LOT_NUMBERS
70
0
62
3
6
CONTINUOUS
0
LAYER
2
DIMENSIONS
70
0
62
2
6
CONTINUOUS
0
LAYER
2
STREET_RW
70
0
62
1
6
CONTINUOUS
0
LAYER
2
STREET_TEXT
70
0
62
2
6
CONTINUOUS
0
LAYER
2
MONUMENTS
70
0
62
6
6
CONTINUOUS
0
LAYER
2
CURVE_DATA
70
0
62
4
6
CONTINUOUS
0
ENDTAB
0
TABLE
2
STYLE
70
4
0
STYLE
2
STANDARD
70
0
40
0.0
41
1.0
50
0.0
71
0
42
0.2
3
Arial
4

0
STYLE
2
ARIAL
70
0
40
0.0
41
1.0
50
0.0
71
0
42
0.2
3
Arial
4

0
STYLE
2
ARIAL_TTF
70
0
40
0.0
41
1.0
50
0.0
71
0
42
0.2
3
arial.ttf
4

0
STYLE
2
SIMPLEX
70
0
40
0.0
41
1.0
50
0.0
71
0
42
0.2
3
simplex.shx
4

0
ENDTAB
0
ENDSEC
0
SECTION
2
ENTITIES
0
LINE
8
LOT_BOUNDARY
10
-97.1100
20
96.0041
30
0.0
11
-24.9538
21
99.0389
31
0.0
0
TEXT
8
DIMENSIONS
6
ROT_2.41
7
STANDARD
10
-60.9478
20
95.5233
30
0.0
40
2.2
1
72.22' (95.98' to P.I.)
50
2.41
72
1
11
-60.9478
21
95.5233
31
0.0
73
2
0
POLYLINE
8
CURVE
66
1
70
0
0
VERTEX
8
CURVE
10
-24.9538
20
99.0389
30
0.0
0
VERTEX
8
CURVE
10
-21.1602
20
98.9100
30
0.0
0
VERTEX
8
CURVE
10
-17.4299
20
98.2084
30
0.0
0
VERTEX
8
CURVE
10
-13.8488
20
96.9500
30
0.0
0
VERTEX
8
CURVE
10
-10.4995
20
95.1641
30
0.0
0
VERTEX
8
CURVE
10
-7.4592
20
92.8917
30
0.0
0
VERTEX
8
CURVE
10
-4.7980
20
90.1851
30
0.0
0
VERTEX
8
CURVE
10
-2.5771
20
87.1069
30
0.0
0
VERTEX
8
CURVE
10
-0.8479
20
83.7280
30
0.0
0
VERTEX
8
CURVE
10
0.3499
20
80.1262
30
0.0
0
VERTEX
8
CURVE
10
0.9886
20
76.3846
30
0.0
0
SEQEND
0
ARC
8
CAD_ARCS
10
-23.9032
20
74.0610
30
0.0
40
25.0000
50
5.3331
51
92.4083
0
POLYLINE
8
CURVE
66
1
70
0
0
VERTEX
8
CURVE
10
-4.6875
20
76.1310
30
0.0
0
VERTEX
8
CURVE
10
-4.0855
20
68.5268
30
0.0
0
VERTEX
8
CURVE
10
-3.5130
20
60.9203
30
0.0
0
VERTEX
8
CURVE
10
-2.9702
20
53.3117
30
0.0
0
VERTEX
8
CURVE
10
-2.4569
20
45.7010
30
0.0
0
VERTEX
8
CURVE
10
-1.9734
20
38.0883
30
0.0
0
VERTEX
8
CURVE
10
-1.5194
20
30.4738
30
0.0
0
VERTEX
8
CURVE
10
-1.0951
20
22.8577
30
0.0
0
VERTEX
8
CURVE
10
-0.7004
20
15.2399
30
0.0
0
VERTEX
8
CURVE
10
-0.3354
20
7.6206
30
0.0
0
VERTEX
8
CURVE
10
0.0000
20
-0.0000
30
0.0
0
SEQEND
0
ARC
8
CAD_ARCS
10
-1958.1289
20
-82.3552
30
0.0
40
1959.8600
50
2.4083
51
4.6384
0
LINE
8
LOT_BOUNDARY
10
0.0000
20
0.0000
30
0.0
11
-92.9079
21
-3.9075
31
0.0
0
TEXT
8
DIMENSIONS
6
ROT_2.41
7
STANDARD
10
-46.5380
20
0.0445
30
0.0
40
2.2
1
92.99'
50
2.41
72
1
11
-46.5380
21
0.0445
31
0.0
73
2
0
LINE
8
LOT_BOUNDARY
10
-92.9079
20
-3.9075
30
0.0
11
-97.1100
21
96.0041
31
0.0
0
TEXT
8
DIMENSIONS
6
ROT_-87.59
7
STANDARD
10
-93.0107
20
46.1323
30
0.0
40
2.2
1
100.00'   N 2%%d24'30" W
50
-87.59
72
1
11
-93.0107
21
46.1323
31
0.0
73
2
0
TEXT
8
LOT_NUMBERS
7
STANDARD
10
-53.5550
20
50.0483
30
0.0
40
8.0
1
9
50
0.0
72
1
11
-53.5550
21
50.0483
31
0.0
73
2
0
TEXT
8
DIMENSIONS
7
STANDARD
10
-53.5550
20
38.0483
30
0.0
40
3.0
1
9,372.1 SF
50
0.0
72
1
11
-53.5550
21
38.0483
31
0.0
73
2
0
TEXT
8
DIMENSIONS
7
STANDARD
10
-53.5550
20
33.0483
30
0.0
40
2.5
1
0.2152 Acres
50
0.0
72
1
11
-53.5550
21
33.0483
31
0.0
73
2
0
POLYLINE
8
CURVE
66
1
70
0
0
VERTEX
8
CURVE
10
0.0000
20
-0.0000
30
0.0
0
VERTEX
8
CURVE
10
0.3057
20
-7.6219
30
0.0
0
VERTEX
8
CURVE
10
0.5817
20
-15.2449
30
0.0
0
VERTEX
8
CURVE
10
0.8281
20
-22.8689
30
0.0
0
VERTEX
8
CURVE
10
1.0448
20
-30.4938
30
0.0
0
VERTEX
8
CURVE
10
1.2318
20
-38.1195
30
0.0
0
VERTEX
8
CURVE
10
1.3891
20
-45.7459
30
0.0
0
VERTEX
8
CURVE
10
1.5168
20
-53.3728
30
0.0
0
VERTEX
8
CURVE
10
1.6147
20
-61.0002
30
0.0
0
VERTEX
8
CURVE
10
1.6830
20
-68.6279
30
0.0
0
VERTEX
8
CURVE
10
1.7216
20
-76.2558
30
0.0
0
SEQEND
0
ARC
8
CAD_ARCS
10
-1958.1289
20
-82.3552
30
0.0
40
1959.8600
50
0.1783
51
2.4083
0
POLYLINE
8
CURVE
66
1
70
0
0
VERTEX
8
CURVE
10
1.4242
20
-76.2831
30
0.0
0
VERTEX
8
CURVE
10
1.1019
20
-80.0651
30
0.0
0
VERTEX
8
CURVE
10
0.2108
20
-83.7548
30
0.0
0
VERTEX
8
CURVE
10
-1.2286
20
-87.2670
30
0.0
0
VERTEX
8
CURVE
10
-3.1831
20
-90.5208
30
0.0
0
VERTEX
8
CURVE
10
-5.6077
20
-93.4412
30
0.0
0
VERTEX
8
CURVE
10
-8.4465
20
-95.9609
30
0.0
0
VERTEX
8
CURVE
10
-11.6340
20
-98.0218
30
0.0
0
VERTEX
8
CURVE
10
-15.0968
20
-99.5764
30
0.0
0
VERTEX
8
CURVE
10
-18.7550
20
-100.5888
30
0.0
0
VERTEX
8
CURVE
10
-22.5243
20
-101.0357
30
0.0
0
SEQEND
0
ARC
8
CAD_ARCS
10
-23.5748
20
-76.0578
30
0.0
40
25.0000
50
272.4083
51
359.4836
0
LINE
8
LOT_BOUNDARY
10
-22.5243
20
-101.0357
30
0.0
11
-88.7058
21
-103.8192
31
0.0
0
TEXT
8
DIMENSIONS
6
ROT_2.41
7
STANDARD
10
-55.6991
20
-100.4292
30
0.0
40
2.2
1
66.24' (90.00' to P.I.)
50
2.41
72
1
11
-55.6991
21
-100.4292
31
0.0
73
2
0
LINE
8
LOT_BOUNDARY
10
-88.7058
20
-103.8192
30
0.0
11
-92.9079
21
-3.9075
31
0.0
0
TEXT
8
DIMENSIONS
6
ROT_-87.59
7
STANDARD
10
-88.8086
20
-53.7793
30
0.0
40
2.2
1
100.00'   N 2%%d24'30" W
50
-87.59
72
1
11
-88.8086
21
-53.7793
31
0.0
73
2
0
POINT
8
MONUMENTS
10
-88.7058
20
-103.8192
30
0.0
0
POLYLINE
8
MONUMENTS
66
1
70
1
0
VERTEX
8
MONUMENTS
10
-87.2058
20
-103.8192
30
0.0
0
VERTEX
8
MONUMENTS
10
-87.4067
20
-103.0692
30
0.0
0
VERTEX
8
MONUMENTS
10
-87.9558
20
-102.5202
30
0.0
0
VERTEX
8
MONUMENTS
10
-88.7058
20
-102.3192
30
0.0
0
VERTEX
8
MONUMENTS
10
-89.4558
20
-102.5202
30
0.0
0
VERTEX
8
MONUMENTS
10
-90.0048
20
-103.0692
30
0.0
0
VERTEX
8
MONUMENTS
10
-90.2058
20
-103.8192
30
0.0
0
VERTEX
8
MONUMENTS
10
-90.0048
20
-104.5692
30
0.0
0
VERTEX
8
MONUMENTS
10
-89.4558
20
-105.1182
30
0.0
0
VERTEX
8
MONUMENTS
10
-88.7058
20
-105.3192
30
0.0
0
VERTEX
8
MONUMENTS
10
-87.9558
20
-105.1182
30
0.0
0
VERTEX
8
MONUMENTS
10
-87.4067
20
-104.5692
30
0.0
0
VERTEX
8
MONUMENTS
10
-87.2058
20
-103.8192
30
0.0
0
SEQEND
0
TEXT
8
MONUMENTS
7
STANDARD
10
-86.2058
20
-101.3192
30
0.0
40
2.5
1
P.R.M.
50
0.0
0
TEXT
8
LOT_NUMBERS
7
STANDARD
10
-51.4539
20
-49.8634
30
0.0
40
8.0
1
10
50
0.0
72
1
11
-51.4539
21
-49.8634
31
0.0
73
2
0
TEXT
8
DIMENSIONS
7
STANDARD
10
-51.4539
20
-61.8634
30
0.0
40
3.0
1
9,073.1 SF
50
0.0
72
1
11
-51.4539
21
-61.8634
31
0.0
73
2
0
TEXT
8
DIMENSIONS
7
STANDARD
10
-51.4539
20
-66.8634
30
0.0
40
2.5
1
0.2083 Acres
50
0.0
72
1
11
-51.4539
21
-66.8634
31
0.0
73
2
0
TEXT
8
STREET_TEXT
7
STANDARD
10
-57.1100
20
111.0041
30
0.0
40
3.8
1
SHELLFISH DRIVE (60' R/W)   N 87%%d35'30" E
50
0.0
0
TEXT
8
STREET_TEXT
7
STANDARD
10
-68.7058
20
-121.8192
30
0.0
40
3.8
1
KEEL DRIVE (60' R/W)   S 87%%d35'30" W
50
0.0
0
TEXT
8
STREET_TEXT
6
ROT_-90.00
7
STANDARD
10
25.0000
20
0.0000
30
0.0
40
3.5
1
BEACHWOOD BLVD (80' R/W)  C2: R=1959.86'
50
-90.0
0
TEXT
8
CURVE_DATA
7
STANDARD
10
-14.9538
20
105.0389
30
0.0
40
2.2
1
R=25.00'  L=37.99'
50
0.0
0
TEXT
8
CURVE_DATA
7
STANDARD
10
-17.5243
20
-109.0357
30
0.0
40
2.2
1
R=25.00'  L=37.99'
50
0.0
0
TEXT
8
CURVE_DATA
6
ROT_-90.00
7
STANDARD
10
6.0000
20
10.0000
30
0.0
40
2.2
1
Arc=100.04' (to P.I.)
50
-90.0
0
TEXT
8
CURVE_DATA
6
ROT_-90.00
7
STANDARD
10
6.0000
20
-25.0000
30
0.0
40
2.2
1
Arc=100.04' (to P.I.)
50
-90.0
0
LINE
8
LOT_BOUNDARY
10
260.0000
20
0.0000
30
0.0
11
258.6307
21
76.3277
31
0.0
0
TEXT
8
DIMENSIONS
6
ROT_-88.97
7
STANDARD
10
261.3150
20
38.1997
30
0.0
40
2.2
1
76.34' (100.74' to P.I.)
50
-88.97
72
1
11
261.3150
21
38.1997
31
0.0
73
2
0
POLYLINE
8
CURVE
66
1
70
0
0
VERTEX
8
CURVE
10
258.6307
20
76.3277
30
0.0
0
VERTEX
8
CURVE
10
258.9982
20
72.4823
30
0.0
0
VERTEX
8
CURVE
10
259.9536
20
68.7395
30
0.0
0
VERTEX
8
CURVE
10
261.4743
20
65.1885
30
0.0
0
VERTEX
8
CURVE
10
263.5239
20
61.9142
30
0.0
0
VERTEX
8
CURVE
10
266.0534
20
58.9947
30
0.0
0
VERTEX
8
CURVE
10
269.0025
20
56.4997
30
0.0
0
VERTEX
8
CURVE
10
272.3008
20
54.4888
30
0.0
0
VERTEX
8
CURVE
10
275.8694
20
53.0101
30
0.0
0
VERTEX
8
CURVE
10
279.6233
20
52.0988
30
0.0
0
VERTEX
8
CURVE
10
283.4727
20
51.7766
30
0.0
0
SEQEND
0
ARC
8
CAD_ARCS
10
283.6267
20
76.7761
30
0.0
40
25.0000
50
181.0278
51
269.6472
0
LINE
8
LOT_BOUNDARY
10
282.5715
20
101.7491
30
0.0
11
358.0347
21
104.9229
31
0.0
0
TEXT
8
DIMENSIONS
6
ROT_2.41
7
STANDARD
10
320.3871
20
101.3378
30
0.0
40
2.2
1
75.53' (99.93' to P.I.)
50
2.41
72
1
11
320.3871
21
101.3378
31
0.0
73
2
0
LINE
8
LOT_BOUNDARY
10
358.0347
20
104.9229
30
0.0
11
362.3635
21
1.8364
31
0.0
0
TEXT
8
DIMENSIONS
6
ROT_-87.60
7
STANDARD
10
358.2009
20
53.2958
30
0.0
40
2.2
1
103.17'   S 2%%d24'30" E
50
-87.6
72
1
11
358.2009
21
53.2958
31
0.0
73
2
0
LINE
8
LOT_BOUNDARY
10
362.3635
20
1.8364
30
0.0
11
260.0000
21
0.0000
31
0.0
0
TEXT
8
DIMENSIONS
6
ROT_1.03
7
STANDARD
10
311.1459
20
2.9179
30
0.0
40
2.2
1
102.38'   S 88%%d58'20" W
50
1.03
72
1
11
311.1459
21
2.9179
31
0.0
73
2
0
POINT
8
MONUMENTS
10
358.0347
20
104.9229
30
0.0
0
POLYLINE
8
MONUMENTS
66
1
70
1
0
VERTEX
8
MONUMENTS
10
359.5347
20
104.9229
30
0.0
0
VERTEX
8
MONUMENTS
10
359.3338
20
105.6729
30
0.0
0
VERTEX
8
MONUMENTS
10
358.7847
20
106.2220
30
0.0
0
VERTEX
8
MONUMENTS
10
358.0347
20
106.4229
30
0.0
0
VERTEX
8
MONUMENTS
10
357.2847
20
106.2220
30
0.0
0
VERTEX
8
MONUMENTS
10
356.7357
20
105.6729
30
0.0
0
VERTEX
8
MONUMENTS
10
356.5347
20
104.9229
30
0.0
0
VERTEX
8
MONUMENTS
10
356.7357
20
104.1729
30
0.0
0
VERTEX
8
MONUMENTS
10
357.2847
20
103.6239
30
0.0
0
VERTEX
8
MONUMENTS
10
358.0347
20
103.4229
30
0.0
0
VERTEX
8
MONUMENTS
10
358.7847
20
103.6239
30
0.0
0
VERTEX
8
MONUMENTS
10
359.3338
20
104.1729
30
0.0
0
VERTEX
8
MONUMENTS
10
359.5347
20
104.9229
30
0.0
0
SEQEND
0
TEXT
8
MONUMENTS
7
STANDARD
10
360.5347
20
107.4229
30
0.0
40
2.5
1
P.R.M.
50
0.0
0
TEXT
8
LOT_NUMBERS
7
STANDARD
10
310.0000
20
54.0000
30
0.0
40
8.0
1
24
50
0.0
72
1
11
310.0000
21
54.0000
31
0.0
73
2
0
TEXT
8
DIMENSIONS
7
STANDARD
10
310.0000
20
42.0000
30
0.0
40
3.0
1
10,185.3 SF
50
0.0
72
1
11
310.0000
21
42.0000
31
0.0
73
2
0
TEXT
8
DIMENSIONS
7
STANDARD
10
310.0000
20
37.0000
30
0.0
40
2.5
1
0.2338 Acres
50
0.0
72
1
11
310.0000
21
37.0000
31
0.0
73
2
0
LINE
8
LOT_BOUNDARY
10
362.3635
20
1.8364
30
0.0
11
358.8933
21
-98.5436
31
0.0
0
TEXT
8
DIMENSIONS
6
ROT_88.02
7
STANDARD
10
358.6296
20
-48.2845
30
0.0
40
2.2
1
100.44'   S 1%%d58'48" W
50
88.02
72
1
11
358.6296
21
-48.2845
31
0.0
73
2
0
LINE
8
LOT_BOUNDARY
10
358.8933
20
-98.5436
30
0.0
11
341.8133
21
-98.5519
31
0.0
0
TEXT
8
DIMENSIONS
6
ROT_0.03
7
STANDARD
10
350.3523
20
-96.5478
30
0.0
40
2.2
1
17.08'  S 89%%d58'20" W
50
0.03
72
1
11
350.3523
21
-96.5478
31
0.0
73
2
0
LINE
8
LOT_BOUNDARY
10
341.8133
20
-98.5519
30
0.0
11
286.8221
21
-99.5385
31
0.0
0
TEXT
8
DIMENSIONS
6
ROT_1.03
7
STANDARD
10
314.2818
20
-97.0455
30
0.0
40
2.2
1
55.00' (80.00' to P.I.)
50
1.03
72
1
11
314.2818
21
-97.0455
31
0.0
73
2
0
POLYLINE
8
CURVE
66
1
70
0
0
VERTEX
8
CURVE
10
286.8221
20
-99.5385
30
0.0
0
VERTEX
8
CURVE
10
282.9064
20
-99.3009
30
0.0
0
VERTEX
8
CURVE
10
279.0760
20
-98.4536
30
0.0
0
VERTEX
8
CURVE
10
275.4253
20
-97.0176
30
0.0
0
VERTEX
8
CURVE
10
272.0442
20
-95.0282
30
0.0
0
VERTEX
8
CURVE
10
269.0159
20
-92.5344
30
0.0
0
VERTEX
8
CURVE
10
266.4151
20
-89.5975
30
0.0
0
VERTEX
8
CURVE
10
264.3057
20
-86.2900
30
0.0
0
VERTEX
8
CURVE
10
262.7397
20
-82.6931
30
0.0
0
VERTEX
8
CURVE
10
261.7556
20
-78.8956
30
0.0
0
VERTEX
8
CURVE
10
261.3777
20
-74.9909
30
0.0
0
SEQEND
0
ARC
8
CAD_ARCS
10
286.3737
20
-74.5425
30
0.0
40
25.0000
50
181.0278
51
271.0278
0
LINE
8
LOT_BOUNDARY
10
261.3777
20
-74.9909
30
0.0
11
260.0000
21
0.0000
31
0.0
0
TEXT
8
DIMENSIONS
6
ROT_-88.95
7
STANDARD
10
262.6885
20
-37.4587
30
0.0
40
2.2
1
75.00' (100.00' to P.I.)
50
-88.95
72
1
11
262.6885
21
-37.4587
31
0.0
73
2
0
TEXT
8
LOT_NUMBERS
7
STANDARD
10
310.0000
20
-46.0000
30
0.0
40
8.0
1
23
50
0.0
72
1
11
310.0000
21
-46.0000
31
0.0
73
2
0
TEXT
8
DIMENSIONS
7
STANDARD
10
310.0000
20
-58.0000
30
0.0
40
3.0
1
9,842.5 SF
50
0.0
72
1
11
310.0000
21
-58.0000
31
0.0
73
2
0
TEXT
8
DIMENSIONS
7
STANDARD
10
310.0000
20
-63.0000
30
0.0
40
2.5
1
0.2259 Acres
50
0.0
72
1
11
310.0000
21
-63.0000
31
0.0
73
2
0
TEXT
8
STREET_TEXT
7
STANDARD
10
288.1930
20
115.7238
30
0.0
40
3.8
1
STREET (60' R/W)   N 87%%d35'30" E
50
0.0
0
TEXT
8
STREET_TEXT
7
STANDARD
10
281.8261
20
-117.9869
30
0.0
40
3.8
1
STREET (60' R/W)   N 88%%d58'20" E
50
0.0
0
TEXT
8
STREET_TEXT
6
ROT_90.00
7
STANDARD
10
240.0000
20
0.0000
30
0.0
40
3.8
1
MANGROVE AVENUE (60' R/W)   N 01%%d01'40" W
50
90.0
0
TEXT
8
CURVE_DATA
7
STANDARD
10
256.1930
20
106.7238
30
0.0
40
2.2
1
R=25.00'  L=38.67'
50
0.0
0
TEXT
8
CURVE_DATA
7
STANDARD
10
259.8261
20
-107.9869
30
0.0
40
2.2
1
R=25.00'  L=39.27'
50
0.0
0
TEXT
8
STREET_TEXT
7
STANDARD
10
150.0000
20
150.0000
30
0.0
40
6.0
1
BEACHWOOD UNIT TWO -- PLAT BOOK 30, PAGES 82 & 82A, DUVAL COUNTY, FL
50
0.0
0
TEXT
8
STREET_TEXT
7
STANDARD
10
150.0000
20
135.0000
30
0.0
40
4.5
1
CADASTRAL SURVEY AUDIT: LOTS 9 & 10 (BLOCK 15) AND LOTS 23 & 24 (BLOCK 14)
50
0.0
0
TEXT
8
STREET_TEXT
7
STANDARD
10
150.0000
20
122.0000
30
0.0
40
3.2
1
ALL LOT CORNER RETURNS MODELED WITH TRUE CURVES (R=25.00') & DEDUCTED TANGENTS
50
0.0
0
ENDSEC
0
EOF
