0
SECTION
2
HEADER
9
$ACADVER
1
AC1009
9
$DWGCODEPAGE
3
ANSI_1252
0
ENDSEC
0
SECTION
2
TABLES
0
TABLE
2
LTYPE
70
6
0
LTYPE
2
CONTINUOUS
70
0
3
Solid
72
65
73
0
40
0.0
0
LTYPE
2
DASHED
70
0
3
Dashed
72
65
73
2
40
0.75
49
0.5
74
0
49
-0.25
74
0
0
LTYPE
2
DASHED2
70
0
3
Dashed (.5x)
72
65
73
2
40
0.375
49
0.25
74
0
49
-0.125
74
0
0
LTYPE
2
HIDDEN
70
0
3
Hidden
72
65
73
2
40
0.375
49
0.25
74
0
49
-0.125
74
0
0
LTYPE
2
CENTER
70
0
3
Center
72
65
73
4
40
2.0
49
1.25
74
0
49
-0.25
74
0
49
0.25
74
0
49
-0.25
74
0
0
LTYPE
2
PHANTOM
70
0
3
Phantom
72
65
73
6
40
2.5
49
1.25
74
0
49
-0.25
74
0
49
0.25
74
0
49
-0.25
74
0
49
0.25
74
0
49
-0.25
74
0
0
ENDTAB
0
TABLE
2
LAYER
70
8
0
LAYER
2
0
70
0
62
7
6
CONTINUOUS
0
LAYER
2
BOUNDARY
70
0
62
7
6
CONTINUOUS
0
LAYER
2
LOT_LINE
70
0
62
4
6
CONTINUOUS
0
LAYER
2
ROW_STREET
70
0
62
2
6
DASHED
0
LAYER
2
TEXT-LABELS
70
0
62
7
6
CONTINUOUS
0
LAYER
2
DIM-LABELS
70
0
62
3
6
CONTINUOUS
0
LAYER
2
TITLEBLOCK
70
0
62
2
6
CONTINUOUS
0
LAYER
2
CONTROL
70
0
62
1
6
CONTINUOUS
0
ENDTAB
0
TABLE
2
STYLE
70
4
0
STYLE
2
STANDARD
70
0
40
0.0
41
1.0
50
0.0
71
0
42
0.2
3
Arial
4

0
STYLE
2
ARIAL
70
0
40
0.0
41
1.0
50
0.0
71
0
42
0.2
3
Arial
4

0
STYLE
2
ARIAL_TTF
70
0
40
0.0
41
1.0
50
0.0
71
0
42
0.2
3
arial.ttf
4

0
STYLE
2
SIMPLEX
70
0
40
0.0
41
1.0
50
0.0
71
0
42
0.2
3
simplex.shx
4

0
ENDTAB
0
ENDSEC
0
SECTION
2
ENTITIES
0
LINE
8
ROW_STREET
10
5000.0000
20
5060.0000
30
0.0
11
6320.0000
21
5060.0000
31
0.0
0
TEXT
8
TEXT-LABELS
7
STANDARD
10
5200.0000
20
5030.0000
30
0.0
40
6.0
1
COUNTY ROAD (60' R/W)
50
0.0
0
POLYLINE
8
LOT_LINE
66
1
70
1
0
VERTEX
8
LOT_LINE
10
5000.0000
20
5000.0000
30
0.0
0
VERTEX
8
LOT_LINE
10
5330.0000
20
5000.0000
30
0.0
0
VERTEX
8
LOT_LINE
10
5330.0000
20
4670.0000
30
0.0
0
VERTEX
8
LOT_LINE
10
5000.0000
20
4670.0000
30
0.0
0
SEQEND
0
TEXT
8
TEXT-LABELS
7
STANDARD
10
5165.0000
20
4865.0000
30
0.0
40
7.0
1
Lot1
50
0.0
0
TEXT
8
DIM-LABELS
7
STANDARD
10
5165.0000
20
4805.0000
30
0.0
40
5.5
1
2.50 AC
50
0.0
0
POLYLINE
8
LOT_LINE
66
1
70
1
0
VERTEX
8
LOT_LINE
10
5330.0000
20
5000.0000
30
0.0
0
VERTEX
8
LOT_LINE
10
5660.0000
20
5000.0000
30
0.0
0
VERTEX
8
LOT_LINE
10
5660.0000
20
4670.0000
30
0.0
0
VERTEX
8
LOT_LINE
10
5330.0000
20
4670.0000
30
0.0
0
SEQEND
0
TEXT
8
TEXT-LABELS
7
STANDARD
10
5495.0000
20
4865.0000
30
0.0
40
7.0
1
Lot2
50
0.0
0
TEXT
8
DIM-LABELS
7
STANDARD
10
5495.0000
20
4805.0000
30
0.0
40
5.5
1
2.50 AC
50
0.0
0
POLYLINE
8
LOT_LINE
66
1
70
1
0
VERTEX
8
LOT_LINE
10
5660.0000
20
5000.0000
30
0.0
0
VERTEX
8
LOT_LINE
10
5990.0000
20
5000.0000
30
0.0
0
VERTEX
8
LOT_LINE
10
5990.0000
20
4670.0000
30
0.0
0
VERTEX
8
LOT_LINE
10
5660.0000
20
4670.0000
30
0.0
0
SEQEND
0
TEXT
8
TEXT-LABELS
7
STANDARD
10
5825.0000
20
4865.0000
30
0.0
40
7.0
1
Lot3
50
0.0
0
TEXT
8
DIM-LABELS
7
STANDARD
10
5825.0000
20
4805.0000
30
0.0
40
5.5
1
2.50 AC
50
0.0
0
POLYLINE
8
LOT_LINE
66
1
70
1
0
VERTEX
8
LOT_LINE
10
5990.0000
20
5000.0000
30
0.0
0
VERTEX
8
LOT_LINE
10
6320.0000
20
5000.0000
30
0.0
0
VERTEX
8
LOT_LINE
10
6320.0000
20
4670.0000
30
0.0
0
VERTEX
8
LOT_LINE
10
5990.0000
20
4670.0000
30
0.0
0
SEQEND
0
TEXT
8
TEXT-LABELS
7
STANDARD
10
6155.0000
20
4865.0000
30
0.0
40
7.0
1
Lot4
50
0.0
0
TEXT
8
DIM-LABELS
7
STANDARD
10
6155.0000
20
4805.0000
30
0.0
40
5.5
1
2.50 AC
50
0.0
0
POLYLINE
8
LOT_LINE
66
1
70
1
0
VERTEX
8
LOT_LINE
10
5000.0000
20
4670.0000
30
0.0
0
VERTEX
8
LOT_LINE
10
5330.0000
20
4670.0000
30
0.0
0
VERTEX
8
LOT_LINE
10
5330.0000
20
4340.0000
30
0.0
0
VERTEX
8
LOT_LINE
10
5000.0000
20
4340.0000
30
0.0
0
SEQEND
0
TEXT
8
TEXT-LABELS
7
STANDARD
10
5165.0000
20
4535.0000
30
0.0
40
7.0
1
Lot5
50
0.0
0
TEXT
8
DIM-LABELS
7
STANDARD
10
5165.0000
20
4475.0000
30
0.0
40
5.5
1
2.50 AC
50
0.0
0
POLYLINE
8
LOT_LINE
66
1
70
1
0
VERTEX
8
LOT_LINE
10
5330.0000
20
4670.0000
30
0.0
0
VERTEX
8
LOT_LINE
10
5660.0000
20
4670.0000
30
0.0
0
VERTEX
8
LOT_LINE
10
5660.0000
20
4340.0000
30
0.0
0
VERTEX
8
LOT_LINE
10
5330.0000
20
4340.0000
30
0.0
0
SEQEND
0
TEXT
8
TEXT-LABELS
7
STANDARD
10
5495.0000
20
4535.0000
30
0.0
40
7.0
1
Lot6
50
0.0
0
TEXT
8
DIM-LABELS
7
STANDARD
10
5495.0000
20
4475.0000
30
0.0
40
5.5
1
2.50 AC
50
0.0
0
POLYLINE
8
LOT_LINE
66
1
70
1
0
VERTEX
8
LOT_LINE
10
5660.0000
20
4670.0000
30
0.0
0
VERTEX
8
LOT_LINE
10
5990.0000
20
4670.0000
30
0.0
0
VERTEX
8
LOT_LINE
10
5990.0000
20
4340.0000
30
0.0
0
VERTEX
8
LOT_LINE
10
5660.0000
20
4340.0000
30
0.0
0
SEQEND
0
TEXT
8
TEXT-LABELS
7
STANDARD
10
5825.0000
20
4535.0000
30
0.0
40
7.0
1
Lot7
50
0.0
0
TEXT
8
DIM-LABELS
7
STANDARD
10
5825.0000
20
4475.0000
30
0.0
40
5.5
1
2.50 AC
50
0.0
0
POLYLINE
8
LOT_LINE
66
1
70
1
0
VERTEX
8
LOT_LINE
10
5990.0000
20
4670.0000
30
0.0
0
VERTEX
8
LOT_LINE
10
6320.0000
20
4670.0000
30
0.0
0
VERTEX
8
LOT_LINE
10
6320.0000
20
4340.0000
30
0.0
0
VERTEX
8
LOT_LINE
10
5990.0000
20
4340.0000
30
0.0
0
SEQEND
0
TEXT
8
TEXT-LABELS
7
STANDARD
10
6155.0000
20
4535.0000
30
0.0
40
7.0
1
Lot8
50
0.0
0
TEXT
8
DIM-LABELS
7
STANDARD
10
6155.0000
20
4475.0000
30
0.0
40
5.5
1
2.50 AC
50
0.0
0
POLYLINE
8
LOT_LINE
66
1
70
1
0
VERTEX
8
LOT_LINE
10
5000.0000
20
4340.0000
30
0.0
0
VERTEX
8
LOT_LINE
10
5330.0000
20
4340.0000
30
0.0
0
VERTEX
8
LOT_LINE
10
5330.0000
20
4010.0000
30
0.0
0
VERTEX
8
LOT_LINE
10
5000.0000
20
4010.0000
30
0.0
0
SEQEND
0
TEXT
8
TEXT-LABELS
7
STANDARD
10
5165.0000
20
4205.0000
30
0.0
40
7.0
1
Lot9
50
0.0
0
TEXT
8
DIM-LABELS
7
STANDARD
10
5165.0000
20
4145.0000
30
0.0
40
5.5
1
2.50 AC
50
0.0
0
POLYLINE
8
LOT_LINE
66
1
70
1
0
VERTEX
8
LOT_LINE
10
5330.0000
20
4340.0000
30
0.0
0
VERTEX
8
LOT_LINE
10
5660.0000
20
4340.0000
30
0.0
0
VERTEX
8
LOT_LINE
10
5660.0000
20
4010.0000
30
0.0
0
VERTEX
8
LOT_LINE
10
5330.0000
20
4010.0000
30
0.0
0
SEQEND
0
TEXT
8
TEXT-LABELS
7
STANDARD
10
5495.0000
20
4205.0000
30
0.0
40
7.0
1
Lot10
50
0.0
0
TEXT
8
DIM-LABELS
7
STANDARD
10
5495.0000
20
4145.0000
30
0.0
40
5.5
1
2.50 AC
50
0.0
0
POLYLINE
8
LOT_LINE
66
1
70
1
0
VERTEX
8
LOT_LINE
10
5660.0000
20
4340.0000
30
0.0
0
VERTEX
8
LOT_LINE
10
5990.0000
20
4340.0000
30
0.0
0
VERTEX
8
LOT_LINE
10
5990.0000
20
4010.0000
30
0.0
0
VERTEX
8
LOT_LINE
10
5660.0000
20
4010.0000
30
0.0
0
SEQEND
0
TEXT
8
TEXT-LABELS
7
STANDARD
10
5825.0000
20
4205.0000
30
0.0
40
7.0
1
Lot11
50
0.0
0
TEXT
8
DIM-LABELS
7
STANDARD
10
5825.0000
20
4145.0000
30
0.0
40
5.5
1
2.50 AC
50
0.0
0
POLYLINE
8
LOT_LINE
66
1
70
1
0
VERTEX
8
LOT_LINE
10
5990.0000
20
4340.0000
30
0.0
0
VERTEX
8
LOT_LINE
10
6320.0000
20
4340.0000
30
0.0
0
VERTEX
8
LOT_LINE
10
6320.0000
20
4010.0000
30
0.0
0
VERTEX
8
LOT_LINE
10
5990.0000
20
4010.0000
30
0.0
0
SEQEND
0
TEXT
8
TEXT-LABELS
7
STANDARD
10
6155.0000
20
4205.0000
30
0.0
40
7.0
1
Lot12
50
0.0
0
TEXT
8
DIM-LABELS
7
STANDARD
10
6155.0000
20
4145.0000
30
0.0
40
5.5
1
2.50 AC
50
0.0
0
POLYLINE
8
LOT_LINE
66
1
70
1
0
VERTEX
8
LOT_LINE
10
5000.0000
20
4010.0000
30
0.0
0
VERTEX
8
LOT_LINE
10
5330.0000
20
4010.0000
30
0.0
0
VERTEX
8
LOT_LINE
10
5330.0000
20
3680.0000
30
0.0
0
VERTEX
8
LOT_LINE
10
5000.0000
20
3680.0000
30
0.0
0
SEQEND
0
TEXT
8
TEXT-LABELS
7
STANDARD
10
5165.0000
20
3875.0000
30
0.0
40
7.0
1
Lot13
50
0.0
0
TEXT
8
DIM-LABELS
7
STANDARD
10
5165.0000
20
3815.0000
30
0.0
40
5.5
1
2.50 AC
50
0.0
0
POLYLINE
8
LOT_LINE
66
1
70
1
0
VERTEX
8
LOT_LINE
10
5330.0000
20
4010.0000
30
0.0
0
VERTEX
8
LOT_LINE
10
5660.0000
20
4010.0000
30
0.0
0
VERTEX
8
LOT_LINE
10
5660.0000
20
3680.0000
30
0.0
0
VERTEX
8
LOT_LINE
10
5330.0000
20
3680.0000
30
0.0
0
SEQEND
0
TEXT
8
TEXT-LABELS
7
STANDARD
10
5495.0000
20
3875.0000
30
0.0
40
7.0
1
Lot14
50
0.0
0
TEXT
8
DIM-LABELS
7
STANDARD
10
5495.0000
20
3815.0000
30
0.0
40
5.5
1
2.50 AC
50
0.0
0
POLYLINE
8
LOT_LINE
66
1
70
1
0
VERTEX
8
LOT_LINE
10
5660.0000
20
4010.0000
30
0.0
0
VERTEX
8
LOT_LINE
10
5990.0000
20
4010.0000
30
0.0
0
VERTEX
8
LOT_LINE
10
5990.0000
20
3680.0000
30
0.0
0
VERTEX
8
LOT_LINE
10
5660.0000
20
3680.0000
30
0.0
0
SEQEND
0
TEXT
8
TEXT-LABELS
7
STANDARD
10
5825.0000
20
3875.0000
30
0.0
40
7.0
1
Lot15
50
0.0
0
TEXT
8
DIM-LABELS
7
STANDARD
10
5825.0000
20
3815.0000
30
0.0
40
5.5
1
2.50 AC
50
0.0
0
POLYLINE
8
LOT_LINE
66
1
70
1
0
VERTEX
8
LOT_LINE
10
5990.0000
20
4010.0000
30
0.0
0
VERTEX
8
LOT_LINE
10
6320.0000
20
4010.0000
30
0.0
0
VERTEX
8
LOT_LINE
10
6320.0000
20
3680.0000
30
0.0
0
VERTEX
8
LOT_LINE
10
5990.0000
20
3680.0000
30
0.0
0
SEQEND
0
TEXT
8
TEXT-LABELS
7
STANDARD
10
6155.0000
20
3875.0000
30
0.0
40
7.0
1
Lot16
50
0.0
0
TEXT
8
DIM-LABELS
7
STANDARD
10
6155.0000
20
3815.0000
30
0.0
40
5.5
1
2.50 AC
50
0.0
0
TEXT
8
TITLEBLOCK
7
STANDARD
10
5150.0000
20
5180.0000
30
0.0
40
12.0
1
HICKS SUBDIVISION
50
0.0
0
TEXT
8
TITLEBLOCK
7
STANDARD
10
5150.0000
20
5140.0000
30
0.0
40
7.0
1
PLAT BOOK 4, PAGE 85 -- DUVAL COUNTY, FL (1920)
50
0.0
0
TEXT
8
TITLEBLOCK
7
STANDARD
10
5150.0000
20
5105.0000
30
0.0
40
6.0
1
CHAS. F. SIBBALD GRANT & SEC 12, T4S, R25E
50
0.0
0
TEXT
8
CONTROL
7
STANDARD
10
5150.0000
20
5075.0000
30
0.0
40
5.5
1
GPS CONTROL TIE: 30.155280 N, -81.758330 W (NO FUDGING)
50
0.0
0
ENDSEC
0
EOF
