0
SECTION
2
HEADER
0
ENDSEC
0
SECTION
2
TABLES
0
TABLE
2
LTYPE
70
2
0
LTYPE
2
CONTINUOUS
70
0
3
Solid
72
65
73
0
40
0.0
0
LTYPE
2
DASHED
70
0
3
Dashed
72
65
73
2
40
0.75
49
0.5
74
0
49
-0.25
74
0
0
ENDTAB
0
TABLE
2
LAYER
70
8
0
LAYER
2
0
70
0
62
7
6
CONTINUOUS
0
LAYER
2
BOUNDARY
70
0
62
7
6
CONTINUOUS
0
LAYER
2
LOT_LINE
70
0
62
4
6
CONTINUOUS
0
LAYER
2
ROW_STREET
70
0
62
2
6
DASHED
0
LAYER
2
TEXT-LABELS
70
0
62
7
6
CONTINUOUS
0
LAYER
2
DIM-LABELS
70
0
62
3
6
CONTINUOUS
0
LAYER
2
TITLEBLOCK
70
0
62
2
6
CONTINUOUS
0
LAYER
2
CONTROL
70
0
62
1
6
CONTINUOUS
0
ENDTAB
0
ENDSEC
0
SECTION
2
ENTITIES
0
LINE
8
BOUNDARY
10
0.0000
20
0.0000
30
0.0
11
-279.9926
21
-2.0362
31
0.0
0
LINE
8
BOUNDARY
10
-279.9926
20
-2.0362
30
0.0
11
-500.1962
21
1083.9912
31
0.0
0
LINE
8
BOUNDARY
10
-500.1962
20
1083.9912
30
0.0
11
-7.9092
21
1087.5712
31
0.0
0
LINE
8
BOUNDARY
10
-7.9092
20
1087.5712
30
0.0
11
0.0000
21
0.0000
31
0.0
0
TEXT
8
DIM-LABELS
10
-140.0000
20
-15.0000
30
0.0
40
6.0
1
16TH STREET  S89°35'00"W  280.0'
50
0.0
0
TEXT
8
DIM-LABELS
10
-319.9926
20
497.9638
30
0.0
40
6.0
1
OLD F.E.C. RAILWAY R/W  N11°27'42.98"W  1108.1'
50
0.0
0
TEXT
8
DIM-LABELS
10
-257.9092
20
1102.5712
30
0.0
40
6.0
1
17TH STREET  N89°35'00"E  492.3'
50
0.0
0
TEXT
8
DIM-LABELS
10
15.0000
20
540.0000
30
0.0
40
6.0
1
OCEAN BOULEVARD  S00°25'00"E  1087.6'
50
0.0
0
POLYLINE
8
LOT_LINE
66
1
70
1
0
VERTEX
8
LOT_LINE
10
-440.1977
20
1084.4275
30
0.0
0
VERTEX
8
LOT_LINE
10
-390.1991
20
1084.7911
30
0.0
0
VERTEX
8
LOT_LINE
10
-389.3264
20
964.7943
30
0.0
0
VERTEX
8
LOT_LINE
10
-439.3251
20
964.4307
30
0.0
0
SEQEND
0
TEXT
8
TEXT-LABELS
10
-414.7621
20
1039.6109
30
0.0
40
3.5
1
Lot1
50
0.0
0
TEXT
8
DIM-LABELS
10
-414.7621
20
1009.6109
30
0.0
40
2.5
1
6,000 SF
50
0.0
0
POLYLINE
8
LOT_LINE
66
1
70
1
0
VERTEX
8
LOT_LINE
10
-390.1991
20
1084.7911
30
0.0
0
VERTEX
8
LOT_LINE
10
-340.2004
20
1085.1547
30
0.0
0
VERTEX
8
LOT_LINE
10
-339.3277
20
965.1579
30
0.0
0
VERTEX
8
LOT_LINE
10
-389.3264
20
964.7943
30
0.0
0
SEQEND
0
TEXT
8
TEXT-LABELS
10
-364.7634
20
1039.9745
30
0.0
40
3.5
1
Lot2
50
0.0
0
TEXT
8
DIM-LABELS
10
-364.7634
20
1009.9745
30
0.0
40
2.5
1
6,000 SF
50
0.0
0
POLYLINE
8
LOT_LINE
66
1
70
1
0
VERTEX
8
LOT_LINE
10
-340.2004
20
1085.1547
30
0.0
0
VERTEX
8
LOT_LINE
10
-290.2017
20
1085.5183
30
0.0
0
VERTEX
8
LOT_LINE
10
-289.3291
20
965.5215
30
0.0
0
VERTEX
8
LOT_LINE
10
-339.3277
20
965.1579
30
0.0
0
SEQEND
0
TEXT
8
TEXT-LABELS
10
-314.7647
20
1040.3381
30
0.0
40
3.5
1
Lot3
50
0.0
0
TEXT
8
DIM-LABELS
10
-314.7647
20
1010.3381
30
0.0
40
2.5
1
6,000 SF
50
0.0
0
POLYLINE
8
LOT_LINE
66
1
70
1
0
VERTEX
8
LOT_LINE
10
-290.2017
20
1085.5183
30
0.0
0
VERTEX
8
LOT_LINE
10
-240.2030
20
1085.8819
30
0.0
0
VERTEX
8
LOT_LINE
10
-239.3304
20
965.8851
30
0.0
0
VERTEX
8
LOT_LINE
10
-289.3291
20
965.5215
30
0.0
0
SEQEND
0
TEXT
8
TEXT-LABELS
10
-264.7660
20
1040.7017
30
0.0
40
3.5
1
Lot4
50
0.0
0
TEXT
8
DIM-LABELS
10
-264.7660
20
1010.7017
30
0.0
40
2.5
1
6,000 SF
50
0.0
0
POLYLINE
8
LOT_LINE
66
1
70
1
0
VERTEX
8
LOT_LINE
10
-240.2030
20
1085.8819
30
0.0
0
VERTEX
8
LOT_LINE
10
-190.2044
20
1086.2455
30
0.0
0
VERTEX
8
LOT_LINE
10
-189.3317
20
966.2487
30
0.0
0
VERTEX
8
LOT_LINE
10
-239.3304
20
965.8851
30
0.0
0
SEQEND
0
TEXT
8
TEXT-LABELS
10
-214.7674
20
1041.0653
30
0.0
40
3.5
1
Lot5
50
0.0
0
TEXT
8
DIM-LABELS
10
-214.7674
20
1011.0653
30
0.0
40
2.5
1
6,000 SF
50
0.0
0
POLYLINE
8
LOT_LINE
66
1
70
1
0
VERTEX
8
LOT_LINE
10
-190.2044
20
1086.2455
30
0.0
0
VERTEX
8
LOT_LINE
10
-140.2057
20
1086.6091
30
0.0
0
VERTEX
8
LOT_LINE
10
-139.3330
20
966.6123
30
0.0
0
VERTEX
8
LOT_LINE
10
-189.3317
20
966.2487
30
0.0
0
SEQEND
0
TEXT
8
TEXT-LABELS
10
-164.7687
20
1041.4289
30
0.0
40
3.5
1
Lot6
50
0.0
0
TEXT
8
DIM-LABELS
10
-164.7687
20
1011.4289
30
0.0
40
2.5
1
6,000 SF
50
0.0
0
POLYLINE
8
LOT_LINE
66
1
70
1
0
VERTEX
8
LOT_LINE
10
-140.2057
20
1086.6091
30
0.0
0
VERTEX
8
LOT_LINE
10
-90.2070
20
1086.9727
30
0.0
0
VERTEX
8
LOT_LINE
10
-89.3343
20
966.9759
30
0.0
0
VERTEX
8
LOT_LINE
10
-139.3330
20
966.6123
30
0.0
0
SEQEND
0
TEXT
8
TEXT-LABELS
10
-114.7700
20
1041.7925
30
0.0
40
3.5
1
Lot7
50
0.0
0
TEXT
8
DIM-LABELS
10
-114.7700
20
1011.7925
30
0.0
40
2.5
1
6,000 SF
50
0.0
0
POLYLINE
8
LOT_LINE
66
1
70
1
0
VERTEX
8
LOT_LINE
10
-90.2070
20
1086.9727
30
0.0
0
VERTEX
8
LOT_LINE
10
-40.2083
20
1087.3364
30
0.0
0
VERTEX
8
LOT_LINE
10
-39.3357
20
967.3395
30
0.0
0
VERTEX
8
LOT_LINE
10
-89.3343
20
966.9759
30
0.0
0
SEQEND
0
TEXT
8
TEXT-LABELS
10
-64.7713
20
1042.1561
30
0.0
40
3.5
1
Lot8
50
0.0
0
TEXT
8
DIM-LABELS
10
-64.7713
20
1012.1561
30
0.0
40
2.5
1
6,000 SF
50
0.0
0
POLYLINE
8
LOT_LINE
66
1
70
1
0
VERTEX
8
LOT_LINE
10
-40.2083
20
1087.3364
30
0.0
0
VERTEX
8
LOT_LINE
10
9.7904
20
1087.7000
30
0.0
0
VERTEX
8
LOT_LINE
10
10.6630
20
967.7031
30
0.0
0
VERTEX
8
LOT_LINE
10
-39.3357
20
967.3395
30
0.0
0
SEQEND
0
TEXT
8
TEXT-LABELS
10
-14.7727
20
1042.5197
30
0.0
40
3.5
1
Lot9
50
0.0
0
TEXT
8
DIM-LABELS
10
-14.7727
20
1012.5197
30
0.0
40
2.5
1
6,000 SF
50
0.0
0
POLYLINE
8
LOT_LINE
66
1
70
1
0
VERTEX
8
LOT_LINE
10
9.7904
20
1087.7000
30
0.0
0
VERTEX
8
LOT_LINE
10
59.7890
20
1088.0636
30
0.0
0
VERTEX
8
LOT_LINE
10
60.6617
20
968.0667
30
0.0
0
VERTEX
8
LOT_LINE
10
10.6630
20
967.7031
30
0.0
0
SEQEND
0
TEXT
8
TEXT-LABELS
10
35.2260
20
1042.8833
30
0.0
40
3.5
1
Lot10
50
0.0
0
TEXT
8
DIM-LABELS
10
35.2260
20
1012.8833
30
0.0
40
2.5
1
6,000 SF
50
0.0
0
POLYLINE
8
LOT_LINE
66
1
70
1
0
VERTEX
8
LOT_LINE
10
-438.9615
20
914.4320
30
0.0
0
VERTEX
8
LOT_LINE
10
-388.9628
20
914.7956
30
0.0
0
VERTEX
8
LOT_LINE
10
-388.0902
20
794.7988
30
0.0
0
VERTEX
8
LOT_LINE
10
-438.0888
20
794.4352
30
0.0
0
SEQEND
0
TEXT
8
TEXT-LABELS
10
-413.5258
20
869.6154
30
0.0
40
3.5
1
Lot1
50
0.0
0
TEXT
8
DIM-LABELS
10
-413.5258
20
839.6154
30
0.0
40
2.5
1
6,000 SF
50
0.0
0
POLYLINE
8
LOT_LINE
66
1
70
1
0
VERTEX
8
LOT_LINE
10
-388.9628
20
914.7956
30
0.0
0
VERTEX
8
LOT_LINE
10
-338.9641
20
915.1592
30
0.0
0
VERTEX
8
LOT_LINE
10
-338.0915
20
795.1624
30
0.0
0
VERTEX
8
LOT_LINE
10
-388.0902
20
794.7988
30
0.0
0
SEQEND
0
TEXT
8
TEXT-LABELS
10
-363.5271
20
869.9790
30
0.0
40
3.5
1
Lot2
50
0.0
0
TEXT
8
DIM-LABELS
10
-363.5271
20
839.9790
30
0.0
40
2.5
1
6,000 SF
50
0.0
0
POLYLINE
8
LOT_LINE
66
1
70
1
0
VERTEX
8
LOT_LINE
10
-338.9641
20
915.1592
30
0.0
0
VERTEX
8
LOT_LINE
10
-288.9655
20
915.5228
30
0.0
0
VERTEX
8
LOT_LINE
10
-288.0928
20
795.5260
30
0.0
0
VERTEX
8
LOT_LINE
10
-338.0915
20
795.1624
30
0.0
0
SEQEND
0
TEXT
8
TEXT-LABELS
10
-313.5285
20
870.3426
30
0.0
40
3.5
1
Lot3
50
0.0
0
TEXT
8
DIM-LABELS
10
-313.5285
20
840.3426
30
0.0
40
2.5
1
6,000 SF
50
0.0
0
POLYLINE
8
LOT_LINE
66
1
70
1
0
VERTEX
8
LOT_LINE
10
-288.9655
20
915.5228
30
0.0
0
VERTEX
8
LOT_LINE
10
-238.9668
20
915.8864
30
0.0
0
VERTEX
8
LOT_LINE
10
-238.0941
20
795.8896
30
0.0
0
VERTEX
8
LOT_LINE
10
-288.0928
20
795.5260
30
0.0
0
SEQEND
0
TEXT
8
TEXT-LABELS
10
-263.5298
20
870.7062
30
0.0
40
3.5
1
Lot4
50
0.0
0
TEXT
8
DIM-LABELS
10
-263.5298
20
840.7062
30
0.0
40
2.5
1
6,000 SF
50
0.0
0
POLYLINE
8
LOT_LINE
66
1
70
1
0
VERTEX
8
LOT_LINE
10
-238.9668
20
915.8864
30
0.0
0
VERTEX
8
LOT_LINE
10
-188.9681
20
916.2500
30
0.0
0
VERTEX
8
LOT_LINE
10
-188.0954
20
796.2532
30
0.0
0
VERTEX
8
LOT_LINE
10
-238.0941
20
795.8896
30
0.0
0
SEQEND
0
TEXT
8
TEXT-LABELS
10
-213.5311
20
871.0698
30
0.0
40
3.5
1
Lot5
50
0.0
0
TEXT
8
DIM-LABELS
10
-213.5311
20
841.0698
30
0.0
40
2.5
1
6,000 SF
50
0.0
0
POLYLINE
8
LOT_LINE
66
1
70
1
0
VERTEX
8
LOT_LINE
10
-188.9681
20
916.2500
30
0.0
0
VERTEX
8
LOT_LINE
10
-138.9694
20
916.6136
30
0.0
0
VERTEX
8
LOT_LINE
10
-138.0968
20
796.6168
30
0.0
0
VERTEX
8
LOT_LINE
10
-188.0954
20
796.2532
30
0.0
0
SEQEND
0
TEXT
8
TEXT-LABELS
10
-163.5324
20
871.4334
30
0.0
40
3.5
1
Lot6
50
0.0
0
TEXT
8
DIM-LABELS
10
-163.5324
20
841.4334
30
0.0
40
2.5
1
6,000 SF
50
0.0
0
POLYLINE
8
LOT_LINE
66
1
70
1
0
VERTEX
8
LOT_LINE
10
-138.9694
20
916.6136
30
0.0
0
VERTEX
8
LOT_LINE
10
-88.9707
20
916.9772
30
0.0
0
VERTEX
8
LOT_LINE
10
-88.0981
20
796.9804
30
0.0
0
VERTEX
8
LOT_LINE
10
-138.0968
20
796.6168
30
0.0
0
SEQEND
0
TEXT
8
TEXT-LABELS
10
-113.5338
20
871.7970
30
0.0
40
3.5
1
Lot7
50
0.0
0
TEXT
8
DIM-LABELS
10
-113.5338
20
841.7970
30
0.0
40
2.5
1
6,000 SF
50
0.0
0
POLYLINE
8
LOT_LINE
66
1
70
1
0
VERTEX
8
LOT_LINE
10
-88.9707
20
916.9772
30
0.0
0
VERTEX
8
LOT_LINE
10
-38.9721
20
917.3408
30
0.0
0
VERTEX
8
LOT_LINE
10
-38.0994
20
797.3440
30
0.0
0
VERTEX
8
LOT_LINE
10
-88.0981
20
796.9804
30
0.0
0
SEQEND
0
TEXT
8
TEXT-LABELS
10
-63.5351
20
872.1606
30
0.0
40
3.5
1
Lot8
50
0.0
0
TEXT
8
DIM-LABELS
10
-63.5351
20
842.1606
30
0.0
40
2.5
1
6,000 SF
50
0.0
0
POLYLINE
8
LOT_LINE
66
1
70
1
0
VERTEX
8
LOT_LINE
10
-38.9721
20
917.3408
30
0.0
0
VERTEX
8
LOT_LINE
10
11.0266
20
917.7045
30
0.0
0
VERTEX
8
LOT_LINE
10
11.8993
20
797.7076
30
0.0
0
VERTEX
8
LOT_LINE
10
-38.0994
20
797.3440
30
0.0
0
SEQEND
0
TEXT
8
TEXT-LABELS
10
-13.5364
20
872.5242
30
0.0
40
3.5
1
Lot9
50
0.0
0
TEXT
8
DIM-LABELS
10
-13.5364
20
842.5242
30
0.0
40
2.5
1
6,000 SF
50
0.0
0
POLYLINE
8
LOT_LINE
66
1
70
1
0
VERTEX
8
LOT_LINE
10
11.0266
20
917.7045
30
0.0
0
VERTEX
8
LOT_LINE
10
61.0253
20
918.0681
30
0.0
0
VERTEX
8
LOT_LINE
10
61.8980
20
798.0712
30
0.0
0
VERTEX
8
LOT_LINE
10
11.8993
20
797.7076
30
0.0
0
SEQEND
0
TEXT
8
TEXT-LABELS
10
36.4623
20
872.8878
30
0.0
40
3.5
1
Lot10
50
0.0
0
TEXT
8
DIM-LABELS
10
36.4623
20
842.8878
30
0.0
40
2.5
1
6,000 SF
50
0.0
0
LINE
8
ROW_STREET
10
-439.3251
20
964.4307
30
0.0
11
60.6617
21
968.0667
31
0.0
0
LINE
8
ROW_STREET
10
-438.9615
20
914.4320
30
0.0
11
61.0253
21
918.0681
31
0.0
0
TEXT
8
TEXT-LABELS
10
-240.1977
20
939.4275
30
0.0
40
4.0
1
17TH STREET (50' R/W)
50
0.0
0
POINT
8
CONTROL
10
0.0000
20
0.0000
30
0.0
0
TEXT
8
CONTROL
10
0.0000
20
15.0000
30
0.0
40
8.0
1
P.O.B. (16th St & Ocean Blvd)
50
0.0
0
POINT
8
CONTROL
10
-207.9092
20
987.5712
30
0.0
0
TEXT
8
CONTROL
10
-207.9092
20
1007.5712
30
0.0
40
5.0
1
DEWEES & COQUINA GPS: 30.342120° N, -81.398650° W (NO FUDGING)
50
0.0
0
TEXT
8
TITLEBLOCK
10
-500.1962
20
1207.5712
30
0.0
40
7.0
1
OCEAN GROVE, UNIT NO. 1 -- PLAT BOOK 15, PAGE 82, DUVAL COUNTY, FL (1939)
50
0.0
0
TEXT
8
TITLEBLOCK
10
-500.1962
20
1185.5712
30
0.0
40
4.0
1
Subdivision of part of Lot 7, Fractional Section 8, T2S, R29E, North Atlantic Beach
50
0.0
0
TEXT
8
TITLEBLOCK
10
-500.1962
20
1163.5712
30
0.0
40
4.0
1
COMPLETE PARENT BOUNDARY TRAVERSE (CAPTION) & LOT FABRIC
50
0.0
0
TEXT
8
TITLEBLOCK
10
-500.1962
20
1141.5712
30
0.0
40
4.0
1

50
0.0
0
TEXT
8
TITLEBLOCK
10
-500.1962
20
1119.5712
30
0.0
40
4.0
1
PARENT TRACT: 4 courses (16th St, FEC Railway, 17th St, Ocean Blvd).
50
0.0
0
TEXT
8
TITLEBLOCK
10
-500.1962
20
1097.5712
30
0.0
40
4.0
1
  Perimeter: 2968.0 ft | Area: 419,977 SF (9.64 Acres).
50
0.0
0
TEXT
8
TITLEBLOCK
10
-500.1962
20
1075.5712
30
0.0
40
4.0
1
  FEC Corridor Bearing: N11°27'42.98"W (1108.13 ft) | Orthogonality: EXACT 90°.
50
0.0
0
TEXT
8
TITLEBLOCK
10
-500.1962
20
1053.5712
30
0.0
40
4.0
1

50
0.0
0
TEXT
8
TITLEBLOCK
10
-500.1962
20
1031.5712
30
0.0
40
4.0
1
LOT BLOCKS: 20 lots in Blocks 1 & 2 closure-verified (all at 6,000.0 SF).
50
0.0
0
TEXT
8
TITLEBLOCK
10
-500.1962
20
1009.5712
30
0.0
40
4.0
1
GROUND-TRUTHED GPS TIE: Dewees Ave & Coquina Pl (30.342120° N, -81.398650° W).
50
0.0
0
ENDSEC
0
EOF
