0
SECTION
2
HEADER
9
$ACADVER
1
AC1009
9
$DWGCODEPAGE
3
ANSI_1252
0
ENDSEC
0
SECTION
2
TABLES
0
TABLE
2
LTYPE
70
6
0
LTYPE
2
CONTINUOUS
70
0
3
Solid
72
65
73
0
40
0.0
0
LTYPE
2
DASHED
70
0
3
Dashed
72
65
73
2
40
0.75
49
0.5
74
0
49
-0.25
74
0
0
LTYPE
2
DASHED2
70
0
3
Dashed (.5x)
72
65
73
2
40
0.375
49
0.25
74
0
49
-0.125
74
0
0
LTYPE
2
HIDDEN
70
0
3
Hidden
72
65
73
2
40
0.375
49
0.25
74
0
49
-0.125
74
0
0
LTYPE
2
CENTER
70
0
3
Center
72
65
73
4
40
2.0
49
1.25
74
0
49
-0.25
74
0
49
0.25
74
0
49
-0.25
74
0
0
LTYPE
2
PHANTOM
70
0
3
Phantom
72
65
73
6
40
2.5
49
1.25
74
0
49
-0.25
74
0
49
0.25
74
0
49
-0.25
74
0
49
0.25
74
0
49
-0.25
74
0
0
ENDTAB
0
TABLE
2
LAYER
70
9
0
LAYER
2
0
70
0
62
7
6
CONTINUOUS
0
LAYER
2
BOUNDARY
70
0
62
7
6
CONTINUOUS
0
LAYER
2
LOT_LINE
70
0
62
4
6
CONTINUOUS
0
LAYER
2
ROW_STREET
70
0
62
2
6
DASHED
0
LAYER
2
EASEMENT
70
0
62
3
6
DASHED
0
LAYER
2
TEXT-LABELS
70
0
62
7
6
CONTINUOUS
0
LAYER
2
DIM-LABELS
70
0
62
3
6
CONTINUOUS
0
LAYER
2
TITLEBLOCK
70
0
62
2
6
CONTINUOUS
0
LAYER
2
UNRESOLVED
70
0
62
1
6
DASHED
0
ENDTAB
0
TABLE
2
STYLE
70
4
0
STYLE
2
STANDARD
70
0
40
0.0
41
1.0
50
0.0
71
0
42
0.2
3
Arial
4

0
STYLE
2
ARIAL
70
0
40
0.0
41
1.0
50
0.0
71
0
42
0.2
3
Arial
4

0
STYLE
2
ARIAL_TTF
70
0
40
0.0
41
1.0
50
0.0
71
0
42
0.2
3
arial.ttf
4

0
STYLE
2
SIMPLEX
70
0
40
0.0
41
1.0
50
0.0
71
0
42
0.2
3
simplex.shx
4

0
ENDTAB
0
ENDSEC
0
SECTION
2
ENTITIES
0
LINE
8
LOT_LINE
10
0.0000
20
0.0000
30
0.0
11
103.4086
21
4.3492
31
0.0
0
LINE
8
LOT_LINE
10
103.4086
20
4.3492
30
0.0
11
107.6107
21
-95.5625
31
0.0
0
LINE
8
LOT_LINE
10
107.6107
20
-95.5625
30
0.0
11
4.2021
21
-99.9117
31
0.0
0
LINE
8
LOT_LINE
10
4.2021
20
-99.9117
30
0.0
11
0.0000
21
0.0000
31
0.0
0
TEXT
8
TEXT-LABELS
7
STANDARD
10
53.8053
20
-47.7813
30
0.0
40
9
1
1
50
0.0
0
TEXT
8
TEXT-LABELS
7
STANDARD
10
37.8053
20
-60.7813
30
0.0
40
5
1
10,350 sf
50
0.0
0
LINE
8
LOT_LINE
10
103.4086
20
4.3492
30
0.0
11
178.3423
21
7.5007
31
0.0
0
LINE
8
LOT_LINE
10
178.3423
20
7.5007
30
0.0
11
182.5444
21
-92.4109
31
0.0
0
LINE
8
LOT_LINE
10
182.5444
20
-92.4109
30
0.0
11
107.6107
21
-95.5625
31
0.0
0
LINE
8
LOT_LINE
10
107.6107
20
-95.5625
30
0.0
11
103.4086
21
4.3492
31
0.0
0
TEXT
8
TEXT-LABELS
7
STANDARD
10
142.9765
20
-44.0309
30
0.0
40
9
1
2
50
0.0
0
TEXT
8
TEXT-LABELS
7
STANDARD
10
126.9765
20
-57.0309
30
0.0
40
5
1
7,500 sf
50
0.0
0
LINE
8
LOT_LINE
10
178.3423
20
7.5007
30
0.0
11
253.2761
21
10.6523
31
0.0
0
LINE
8
LOT_LINE
10
253.2761
20
10.6523
30
0.0
11
257.4782
21
-89.2594
31
0.0
0
LINE
8
LOT_LINE
10
257.4782
20
-89.2594
30
0.0
11
182.5444
21
-92.4109
31
0.0
0
LINE
8
LOT_LINE
10
182.5444
20
-92.4109
30
0.0
11
178.3423
21
7.5007
31
0.0
0
TEXT
8
TEXT-LABELS
7
STANDARD
10
217.9103
20
-40.8793
30
0.0
40
9
1
3
50
0.0
0
TEXT
8
TEXT-LABELS
7
STANDARD
10
201.9103
20
-53.8793
30
0.0
40
5
1
7,500 sf
50
0.0
0
LINE
8
LOT_LINE
10
253.2761
20
10.6523
30
0.0
11
328.2098
21
13.8039
31
0.0
0
LINE
8
LOT_LINE
10
328.2098
20
13.8039
30
0.0
11
332.4119
21
-86.1078
31
0.0
0
LINE
8
LOT_LINE
10
332.4119
20
-86.1078
30
0.0
11
257.4782
21
-89.2594
31
0.0
0
LINE
8
LOT_LINE
10
257.4782
20
-89.2594
30
0.0
11
253.2761
21
10.6523
31
0.0
0
TEXT
8
TEXT-LABELS
7
STANDARD
10
292.8440
20
-37.7277
30
0.0
40
9
1
4
50
0.0
0
TEXT
8
TEXT-LABELS
7
STANDARD
10
276.8440
20
-50.7277
30
0.0
40
5
1
7,500 sf
50
0.0
0
LINE
8
LOT_LINE
10
328.2098
20
13.8039
30
0.0
11
403.1436
21
16.9555
31
0.0
0
LINE
8
LOT_LINE
10
403.1436
20
16.9555
30
0.0
11
407.3457
21
-82.9562
31
0.0
0
LINE
8
LOT_LINE
10
407.3457
20
-82.9562
30
0.0
11
332.4119
21
-86.1078
31
0.0
0
LINE
8
LOT_LINE
10
332.4119
20
-86.1078
30
0.0
11
328.2098
21
13.8039
31
0.0
0
TEXT
8
TEXT-LABELS
7
STANDARD
10
367.7778
20
-34.5762
30
0.0
40
9
1
5
50
0.0
0
TEXT
8
TEXT-LABELS
7
STANDARD
10
351.7778
20
-47.5762
30
0.0
40
5
1
7,500 sf
50
0.0
0
LINE
8
LOT_LINE
10
403.1436
20
16.9555
30
0.0
11
478.0774
21
20.1070
31
0.0
0
LINE
8
LOT_LINE
10
478.0774
20
20.1070
30
0.0
11
482.2795
21
-79.8046
31
0.0
0
LINE
8
LOT_LINE
10
482.2795
20
-79.8046
30
0.0
11
407.3457
21
-82.9562
31
0.0
0
LINE
8
LOT_LINE
10
407.3457
20
-82.9562
30
0.0
11
403.1436
21
16.9555
31
0.0
0
TEXT
8
TEXT-LABELS
7
STANDARD
10
442.7115
20
-31.4246
30
0.0
40
9
1
6
50
0.0
0
TEXT
8
TEXT-LABELS
7
STANDARD
10
426.7115
20
-44.4246
30
0.0
40
5
1
7,500 sf
50
0.0
0
LINE
8
LOT_LINE
10
478.0774
20
20.1070
30
0.0
11
553.0111
21
23.2586
31
0.0
0
LINE
8
LOT_LINE
10
553.0111
20
23.2586
30
0.0
11
557.2132
21
-76.6531
31
0.0
0
LINE
8
LOT_LINE
10
557.2132
20
-76.6531
30
0.0
11
482.2795
21
-79.8046
31
0.0
0
LINE
8
LOT_LINE
10
482.2795
20
-79.8046
30
0.0
11
478.0774
21
20.1070
31
0.0
0
TEXT
8
TEXT-LABELS
7
STANDARD
10
517.6453
20
-28.2730
30
0.0
40
9
1
7
50
0.0
0
TEXT
8
TEXT-LABELS
7
STANDARD
10
501.6453
20
-41.2730
30
0.0
40
5
1
7,500 sf
50
0.0
0
LINE
8
LOT_LINE
10
553.0111
20
23.2586
30
0.0
11
627.9449
21
26.4102
31
0.0
0
LINE
8
LOT_LINE
10
627.9449
20
26.4102
30
0.0
11
632.1470
21
-73.5015
31
0.0
0
LINE
8
LOT_LINE
10
632.1470
20
-73.5015
30
0.0
11
557.2132
21
-76.6531
31
0.0
0
LINE
8
LOT_LINE
10
557.2132
20
-76.6531
30
0.0
11
553.0111
21
23.2586
31
0.0
0
TEXT
8
TEXT-LABELS
7
STANDARD
10
592.5790
20
-25.1214
30
0.0
40
9
1
8
50
0.0
0
TEXT
8
TEXT-LABELS
7
STANDARD
10
576.5790
20
-38.1214
30
0.0
40
5
1
7,500 sf
50
0.0
0
LINE
8
LOT_LINE
10
627.9449
20
26.4102
30
0.0
11
702.8786
21
29.5618
31
0.0
0
LINE
8
LOT_LINE
10
702.8786
20
29.5618
30
0.0
11
707.0807
21
-70.3499
31
0.0
0
LINE
8
LOT_LINE
10
707.0807
20
-70.3499
30
0.0
11
632.1470
21
-73.5015
31
0.0
0
LINE
8
LOT_LINE
10
632.1470
20
-73.5015
30
0.0
11
627.9449
21
26.4102
31
0.0
0
TEXT
8
TEXT-LABELS
7
STANDARD
10
667.5128
20
-21.9699
30
0.0
40
9
1
9
50
0.0
0
TEXT
8
TEXT-LABELS
7
STANDARD
10
651.5128
20
-34.9699
30
0.0
40
5
1
7,500 sf
50
0.0
0
LINE
8
LOT_LINE
10
702.8786
20
29.5618
30
0.0
11
777.8124
21
32.7133
31
0.0
0
LINE
8
LOT_LINE
10
777.8124
20
32.7133
30
0.0
11
782.0145
21
-67.1983
31
0.0
0
LINE
8
LOT_LINE
10
782.0145
20
-67.1983
30
0.0
11
707.0807
21
-70.3499
31
0.0
0
LINE
8
LOT_LINE
10
707.0807
20
-70.3499
30
0.0
11
702.8786
21
29.5618
31
0.0
0
TEXT
8
TEXT-LABELS
7
STANDARD
10
742.4465
20
-18.8183
30
0.0
40
9
1
10
50
0.0
0
TEXT
8
TEXT-LABELS
7
STANDARD
10
726.4465
20
-31.8183
30
0.0
40
5
1
7,500 sf
50
0.0
0
LINE
8
LOT_LINE
10
777.8124
20
32.7133
30
0.0
11
852.7461
21
35.8649
31
0.0
0
LINE
8
LOT_LINE
10
852.7461
20
35.8649
30
0.0
11
856.9482
21
-64.0468
31
0.0
0
LINE
8
LOT_LINE
10
856.9482
20
-64.0468
30
0.0
11
782.0145
21
-67.1983
31
0.0
0
LINE
8
LOT_LINE
10
782.0145
20
-67.1983
30
0.0
11
777.8124
21
32.7133
31
0.0
0
TEXT
8
TEXT-LABELS
7
STANDARD
10
817.3803
20
-15.6667
30
0.0
40
9
1
11
50
0.0
0
TEXT
8
TEXT-LABELS
7
STANDARD
10
801.3803
20
-28.6667
30
0.0
40
5
1
7,500 sf
50
0.0
0
LINE
8
LOT_LINE
10
852.7461
20
35.8649
30
0.0
11
927.6799
21
39.0165
31
0.0
0
LINE
8
LOT_LINE
10
927.6799
20
39.0165
30
0.0
11
931.8820
21
-60.8952
31
0.0
0
LINE
8
LOT_LINE
10
931.8820
20
-60.8952
30
0.0
11
856.9482
21
-64.0468
31
0.0
0
LINE
8
LOT_LINE
10
856.9482
20
-64.0468
30
0.0
11
852.7461
21
35.8649
31
0.0
0
TEXT
8
TEXT-LABELS
7
STANDARD
10
892.3141
20
-12.5152
30
0.0
40
9
1
12
50
0.0
0
TEXT
8
TEXT-LABELS
7
STANDARD
10
876.3141
20
-25.5152
30
0.0
40
5
1
7,500 sf
50
0.0
0
LINE
8
LOT_LINE
10
927.6799
20
39.0165
30
0.0
11
1002.6136
21
42.1680
31
0.0
0
LINE
8
LOT_LINE
10
1002.6136
20
42.1680
30
0.0
11
1006.8157
21
-57.7436
31
0.0
0
LINE
8
LOT_LINE
10
1006.8157
20
-57.7436
30
0.0
11
931.8820
21
-60.8952
31
0.0
0
LINE
8
LOT_LINE
10
931.8820
20
-60.8952
30
0.0
11
927.6799
21
39.0165
31
0.0
0
TEXT
8
TEXT-LABELS
7
STANDARD
10
967.2478
20
-9.3636
30
0.0
40
9
1
13
50
0.0
0
TEXT
8
TEXT-LABELS
7
STANDARD
10
951.2478
20
-22.3636
30
0.0
40
5
1
7,500 sf
50
0.0
0
LINE
8
LOT_LINE
10
1002.6136
20
42.1680
30
0.0
11
1077.5474
21
45.3196
31
0.0
0
LINE
8
LOT_LINE
10
1077.5474
20
45.3196
30
0.0
11
1081.7495
21
-54.5921
31
0.0
0
LINE
8
LOT_LINE
10
1081.7495
20
-54.5921
30
0.0
11
1006.8157
21
-57.7436
31
0.0
0
LINE
8
LOT_LINE
10
1006.8157
20
-57.7436
30
0.0
11
1002.6136
21
42.1680
31
0.0
0
TEXT
8
TEXT-LABELS
7
STANDARD
10
1042.1816
20
-6.2120
30
0.0
40
9
1
14
50
0.0
0
TEXT
8
TEXT-LABELS
7
STANDARD
10
1026.1816
20
-19.2120
30
0.0
40
5
1
7,500 sf
50
0.0
0
LINE
8
LOT_LINE
10
1077.5474
20
45.3196
30
0.0
11
1152.4811
21
48.4712
31
0.0
0
LINE
8
LOT_LINE
10
1152.4811
20
48.4712
30
0.0
11
1156.6832
21
-51.4405
31
0.0
0
LINE
8
LOT_LINE
10
1156.6832
20
-51.4405
30
0.0
11
1081.7495
21
-54.5921
31
0.0
0
LINE
8
LOT_LINE
10
1081.7495
20
-54.5921
30
0.0
11
1077.5474
21
45.3196
31
0.0
0
TEXT
8
TEXT-LABELS
7
STANDARD
10
1117.1153
20
-3.0604
30
0.0
40
9
1
15
50
0.0
0
TEXT
8
TEXT-LABELS
7
STANDARD
10
1101.1153
20
-16.0604
30
0.0
40
5
1
7,500 sf
50
0.0
0
LINE
8
LOT_LINE
10
1152.4811
20
48.4712
30
0.0
11
1227.4149
21
51.6228
31
0.0
0
LINE
8
LOT_LINE
10
1227.4149
20
51.6228
30
0.0
11
1231.6170
21
-48.2889
31
0.0
0
LINE
8
LOT_LINE
10
1231.6170
20
-48.2889
30
0.0
11
1156.6832
21
-51.4405
31
0.0
0
LINE
8
LOT_LINE
10
1156.6832
20
-51.4405
30
0.0
11
1152.4811
21
48.4712
31
0.0
0
TEXT
8
TEXT-LABELS
7
STANDARD
10
1192.0491
20
0.0911
30
0.0
40
9
1
16
50
0.0
0
TEXT
8
TEXT-LABELS
7
STANDARD
10
1176.0491
20
-12.9089
30
0.0
40
5
1
7,500 sf
50
0.0
0
LINE
8
LOT_LINE
10
1227.4149
20
51.6228
30
0.0
11
1302.3487
21
54.7743
31
0.0
0
LINE
8
LOT_LINE
10
1302.3487
20
54.7743
30
0.0
11
1306.5508
21
-45.1373
31
0.0
0
LINE
8
LOT_LINE
10
1306.5508
20
-45.1373
30
0.0
11
1231.6170
21
-48.2889
31
0.0
0
LINE
8
LOT_LINE
10
1231.6170
20
-48.2889
30
0.0
11
1227.4149
21
51.6228
31
0.0
0
TEXT
8
TEXT-LABELS
7
STANDARD
10
1266.9828
20
3.2427
30
0.0
40
9
1
17
50
0.0
0
TEXT
8
TEXT-LABELS
7
STANDARD
10
1250.9828
20
-9.7573
30
0.0
40
5
1
7,500 sf
50
0.0
0
LINE
8
LOT_LINE
10
1302.3487
20
54.7743
30
0.0
11
1377.2824
21
57.9259
31
0.0
0
LINE
8
LOT_LINE
10
1377.2824
20
57.9259
30
0.0
11
1381.4845
21
-41.9858
31
0.0
0
LINE
8
LOT_LINE
10
1381.4845
20
-41.9858
30
0.0
11
1306.5508
21
-45.1373
31
0.0
0
LINE
8
LOT_LINE
10
1306.5508
20
-45.1373
30
0.0
11
1302.3487
21
54.7743
31
0.0
0
TEXT
8
TEXT-LABELS
7
STANDARD
10
1341.9166
20
6.3943
30
0.0
40
9
1
18
50
0.0
0
TEXT
8
TEXT-LABELS
7
STANDARD
10
1325.9166
20
-6.6057
30
0.0
40
5
1
7,500 sf
50
0.0
0
LINE
8
LOT_LINE
10
1377.2824
20
57.9259
30
0.0
11
1452.2162
21
61.0775
31
0.0
0
LINE
8
LOT_LINE
10
1452.2162
20
61.0775
30
0.0
11
1456.4183
21
-38.8342
31
0.0
0
LINE
8
LOT_LINE
10
1456.4183
20
-38.8342
30
0.0
11
1381.4845
21
-41.9858
31
0.0
0
LINE
8
LOT_LINE
10
1381.4845
20
-41.9858
30
0.0
11
1377.2824
21
57.9259
31
0.0
0
TEXT
8
TEXT-LABELS
7
STANDARD
10
1416.8503
20
9.5459
30
0.0
40
9
1
19
50
0.0
0
TEXT
8
TEXT-LABELS
7
STANDARD
10
1400.8503
20
-3.4541
30
0.0
40
5
1
7,500 sf
50
0.0
0
LINE
8
BOUNDARY
10
0.0000
20
0.0000
30
0.0
11
1452.2162
21
61.0775
31
0.0
0
TEXT
8
DIM-LABELS
7
STANDARD
10
0.0000
20
14.0000
30
0.0
40
9
1
N'ly line Sec 32   S87%%d35'30"W  1626.37'
50
0.0
0
TEXT
8
DIM-LABELS
7
STANDARD
10
0.0000
20
5.0000
30
0.0
40
8
1
POINT OF BEGINNING
50
0.0
0
LINE
8
ROW_STREET
10
4.2021
20
-99.9117
30
0.0
11
1456.4183
21
-38.8342
31
0.0
0
TEXT
8
ROW_STREET
7
STANDARD
10
304.2021
20
-121.9117
30
0.0
40
11
1
STARFISH AVENUE (60' R/W)  S87%%d35'30"W
50
0.0
0
LINE
8
EASEMENT
10
0.0000
20
50.0000
30
0.0
11
1452.2162
21
111.0775
31
0.0
0
TEXT
8
EASEMENT
7
STANDARD
10
250.0000
20
38.0000
30
0.0
40
9
1
50' RIGHT-OF-WAY FOR DRAINAGE AND UTILITIES
50
0.0
0
TEXT
8
TEXT-LABELS
7
STANDARD
10
620.0000
20
-40.0000
30
0.0
40
14
1
BLOCK 18
50
0.0
0
LINE
8
UNRESOLVED
10
1452.2162
20
61.0775
30
0.0
11
1625.0862
21
61.0775
31
0.0
0
TEXT
8
UNRESOLVED
7
STANDARD
10
1462.2162
20
73.0775
30
0.0
40
9
1
EAST TIE TO BEACHWOOD BLVD UNRESOLVED (172.87' remainder)
50
0.0
0
TEXT
8
TITLEBLOCK
7
STANDARD
10
0.0000
20
190.0000
30
0.0
40
11
1
BEACHWOOD UNIT TWO -- PLAT BOOK 30, PAGES 82 & 82A, DUVAL COUNTY, FL (1960)
50
0.0
0
TEXT
8
TITLEBLOCK
7
STANDARD
10
0.0000
20
164.0000
30
0.0
40
8
1
Beach Boulevard Estates, Inc.  |  Simmerson, Bell & Akel  |  1"=100'
50
0.0
0
TEXT
8
TITLEBLOCK
7
STANDARD
10
0.0000
20
138.0000
30
0.0
40
8
1

50
0.0
0
TEXT
8
TITLEBLOCK
7
STANDARD
10
0.0000
20
112.0000
30
0.0
40
8
1
SOURCE: 200 DPI scan; values transcribed by visual read at 3x, NOT by OCR.
50
0.0
0
TEXT
8
TITLEBLOCK
7
STANDARD
10
0.0000
20
86.0000
30
0.0
40
8
1
(Tesseract parsed 0 usable bearings here across 8 preprocessing variants.)
50
0.0
0
TEXT
8
TITLEBLOCK
7
STANDARD
10
0.0000
20
60.0000
30
0.0
40
8
1

50
0.0
0
TEXT
8
TITLEBLOCK
7
STANDARD
10
0.0000
20
34.0000
30
0.0
40
8
1
VALIDATION:
50
0.0
0
TEXT
8
TITLEBLOCK
7
STANDARD
10
0.0000
20
8.0000
30
0.0
40
8
1
Side bearing N2d24'30"W + street bearing S87d35'30"W = 90d00'00" exactly
50
0.0
0
TEXT
8
TITLEBLOCK
7
STANDARD
10
0.0000
20
-18.0000
30
0.0
40
8
1
-> included angle computed 90.000000 deg. The two bearings are read from
50
0.0
0
TEXT
8
TITLEBLOCK
7
STANDARD
10
0.0000
20
-44.0000
30
0.0
40
8
1
different parts of the sheet and independently confirm each other.
50
0.0
0
TEXT
8
TITLEBLOCK
7
STANDARD
10
0.0000
20
-70.0000
30
0.0
40
8
1
North line and Starfish Ave are parallel -> depth must be constant;
50
0.0
0
TEXT
8
TITLEBLOCK
7
STANDARD
10
0.0000
20
-96.0000
30
0.0
40
8
1
all depths transcribed as 100.00 ft. Consistent.
50
0.0
0
TEXT
8
TITLEBLOCK
7
STANDARD
10
0.0000
20
-122.0000
30
0.0
40
8
1
Block width 103.50 + 18(75.00) = 1453.50 ft of the 1626.37 ft north line.
50
0.0
0
TEXT
8
TITLEBLOCK
7
STANDARD
10
0.0000
20
-148.0000
30
0.0
40
8
1

50
0.0
0
TEXT
8
TITLEBLOCK
7
STANDARD
10
0.0000
20
-174.0000
30
0.0
40
8
1
SCOPE: Block 18 (Lots 1-19) built and closure-checked. Remaining blocks,
50
0.0
0
TEXT
8
TITLEBLOCK
7
STANDARD
10
0.0000
20
-200.0000
30
0.0
40
8
1
the diagonal Marina/Sands/Cape Horn fabric, the Beachwood Blvd tie, and the
50
0.0
0
TEXT
8
TITLEBLOCK
7
STANDARD
10
0.0000
20
-226.0000
30
0.0
40
8
1
sheet-1 caption traverse are NOT built -- not legible at this resolution.
50
0.0
0
TEXT
8
TITLEBLOCK
7
STANDARD
10
0.0000
20
-252.0000
30
0.0
40
8
1
PLAT NOTE: curve bearings/distances are CHORD bearings and distances.
50
0.0
0
ENDSEC
0
EOF
