0
SECTION
2
HEADER
0
ENDSEC
0
SECTION
2
TABLES
0
TABLE
2
LTYPE
70
2
0
LTYPE
2
CONTINUOUS
70
0
3
Solid
72
65
73
0
40
0.0
0
LTYPE
2
DASHED
70
0
3
Dashed
72
65
73
2
40
0.75
49
0.5
74
0
49
-0.25
74
0
0
ENDTAB
0
TABLE
2
LAYER
70
7
0
LAYER
2
0
70
0
62
7
6
CONTINUOUS
0
LAYER
2
CURVE
70
0
62
4
6
CONTINUOUS
0
LAYER
2
LOT_LINE
70
0
62
4
6
CONTINUOUS
0
LAYER
2
LOT_LINE_APPROX
70
0
62
1
6
DASHED
0
LAYER
2
TEXT-LABELS
70
0
62
7
6
CONTINUOUS
0
LAYER
2
BLOCK_TITLE
70
0
62
2
6
CONTINUOUS
0
LAYER
2
DIM-LABELS
70
0
62
7
6
CONTINUOUS
0
ENDTAB
0
ENDSEC
0
SECTION
2
ENTITIES
0
TEXT
8
BLOCK_TITLE
10
-20.0000
20
80.0000
30
0.0
40
10
1
BLOCK D -- Sheet 3, Lots 44-45, curved frontage (local coords)
50
0.0
0
TEXT
8
BLOCK_TITLE
10
-20.0000
20
70.0000
30
0.0
40
5
1
Outer boundary VALIDATED (area-sanity checked); internal 44/45 split APPROXIMATE (dashed red)
50
0.0
0
LINE
8
CURVE
10
0.0000
20
-0.0000
30
0.0
11
-0.4362
21
1.4378
31
0.0
0
LINE
8
CURVE
10
-0.4362
20
1.4378
30
0.0
11
-0.8460
21
2.8834
31
0.0
0
LINE
8
CURVE
10
-0.8460
20
2.8834
30
0.0
11
-1.2292
21
4.3362
31
0.0
0
LINE
8
CURVE
10
-1.2292
20
4.3362
30
0.0
11
-1.5857
21
5.7958
31
0.0
0
LINE
8
CURVE
10
-1.5857
20
5.7958
30
0.0
11
-1.9155
21
7.2617
31
0.0
0
LINE
8
CURVE
10
-1.9155
20
7.2617
30
0.0
11
-2.2183
21
8.7333
31
0.0
0
LINE
8
CURVE
10
-2.2183
20
8.7333
30
0.0
11
-2.4941
21
10.2103
31
0.0
0
LINE
8
CURVE
10
-2.4941
20
10.2103
30
0.0
11
-2.7428
21
11.6921
31
0.0
0
LINE
8
CURVE
10
-2.7428
20
11.6921
30
0.0
11
-2.9643
21
13.1782
31
0.0
0
LINE
8
CURVE
10
-2.9643
20
13.1782
30
0.0
11
-3.1585
21
14.6681
31
0.0
0
LINE
8
CURVE
10
-3.1585
20
14.6681
30
0.0
11
-3.3254
21
16.1613
31
0.0
0
LINE
8
CURVE
10
-3.3254
20
16.1613
30
0.0
11
-3.4649
21
17.6573
31
0.0
0
LINE
8
CURVE
10
-3.4649
20
17.6573
30
0.0
11
-3.5770
21
19.1556
31
0.0
0
LINE
8
CURVE
10
-3.5770
20
19.1556
30
0.0
11
-3.6616
21
20.6558
31
0.0
0
LINE
8
CURVE
10
-3.6616
20
20.6558
30
0.0
11
-3.7187
21
22.1572
31
0.0
0
LINE
8
CURVE
10
-3.7187
20
22.1572
30
0.0
11
-3.7483
21
23.6594
31
0.0
0
LINE
8
CURVE
10
-3.7483
20
23.6594
30
0.0
11
-4.3277
21
78.6564
31
0.0
0
LINE
8
CURVE
10
-4.3277
20
78.6564
30
0.0
11
-4.6943
21
79.8481
31
0.0
0
LINE
8
CURVE
10
-4.6943
20
79.8481
30
0.0
11
-5.0483
21
81.0436
31
0.0
0
LINE
8
CURVE
10
-5.0483
20
81.0436
30
0.0
11
-5.3896
21
82.2428
31
0.0
0
LINE
8
CURVE
10
-5.3896
20
82.2428
30
0.0
11
-5.7182
21
83.4455
31
0.0
0
LINE
8
CURVE
10
-5.7182
20
83.4455
30
0.0
11
-6.0341
21
84.6516
31
0.0
0
LINE
8
CURVE
10
-6.0341
20
84.6516
30
0.0
11
-6.3372
21
85.8610
31
0.0
0
LINE
8
CURVE
10
-6.3372
20
85.8610
30
0.0
11
-6.6275
21
87.0736
31
0.0
0
LINE
8
CURVE
10
-6.6275
20
87.0736
30
0.0
11
-6.9050
21
88.2891
31
0.0
0
LINE
8
CURVE
10
-6.9050
20
88.2891
30
0.0
11
-7.1697
21
89.5075
31
0.0
0
LINE
8
CURVE
10
-7.1697
20
89.5075
30
0.0
11
-7.4214
21
90.7286
31
0.0
0
LINE
8
CURVE
10
-7.4214
20
90.7286
30
0.0
11
-7.6602
21
91.9523
31
0.0
0
LINE
8
CURVE
10
-7.6602
20
91.9523
30
0.0
11
-7.8861
21
93.1785
31
0.0
0
LINE
8
CURVE
10
-7.8861
20
93.1785
30
0.0
11
-8.0991
21
94.4070
31
0.0
0
LINE
8
CURVE
10
-8.0991
20
94.4070
30
0.0
11
-8.2990
21
95.6377
31
0.0
0
LINE
8
CURVE
10
-8.2990
20
95.6377
30
0.0
11
-8.4859
21
96.8704
31
0.0
0
LINE
8
CURVE
10
-8.4859
20
96.8704
30
0.0
11
-8.6598
21
98.1050
31
0.0
0
LINE
8
CURVE
10
-8.6598
20
98.1050
30
0.0
11
-8.7889
21
99.0894
31
0.0
0
LINE
8
CURVE
10
-8.7889
20
99.0894
30
0.0
11
-8.9097
21
100.0749
31
0.0
0
LINE
8
CURVE
10
-8.9097
20
100.0749
30
0.0
11
-9.0223
21
101.0613
31
0.0
0
LINE
8
CURVE
10
-9.0223
20
101.0613
30
0.0
11
-9.1265
21
102.0487
31
0.0
0
LINE
8
CURVE
10
-9.1265
20
102.0487
30
0.0
11
-9.2224
21
103.0369
31
0.0
0
LINE
8
CURVE
10
-9.2224
20
103.0369
30
0.0
11
-9.3100
21
104.0258
31
0.0
0
LINE
8
CURVE
10
-9.3100
20
104.0258
30
0.0
11
-9.3893
21
105.0155
31
0.0
0
LINE
8
CURVE
10
-9.3893
20
105.0155
30
0.0
11
-9.4602
21
106.0058
31
0.0
0
LINE
8
CURVE
10
-9.4602
20
106.0058
30
0.0
11
-9.5228
21
106.9967
31
0.0
0
LINE
8
CURVE
10
-9.5228
20
106.9967
30
0.0
11
-9.5771
21
107.9880
31
0.0
0
LINE
8
CURVE
10
-9.5771
20
107.9880
30
0.0
11
-9.6230
21
108.9798
31
0.0
0
LINE
8
CURVE
10
-9.6230
20
108.9798
30
0.0
11
-9.6606
21
109.9719
31
0.0
0
LINE
8
CURVE
10
-9.6606
20
109.9719
30
0.0
11
-9.6898
21
110.9643
31
0.0
0
LINE
8
CURVE
10
-9.6898
20
110.9643
30
0.0
11
-9.7107
21
111.9570
31
0.0
0
LINE
8
CURVE
10
-9.7107
20
111.9570
30
0.0
11
-9.7232
21
112.9497
31
0.0
0
LINE
8
CURVE
10
-9.7232
20
112.9497
30
0.0
11
-9.7274
21
113.9425
31
0.0
0
LINE
8
CURVE
10
-9.7274
20
113.9425
30
0.0
11
-9.7272
21
152.1225
31
0.0
0
LINE
8
LOT_LINE
10
0.0000
20
0.0000
30
0.0
11
-101.9407
21
-31.9490
31
0.0
0
TEXT
8
DIM-LABELS
10
-15.0000
20
-5.0000
30
0.0
40
3
1
106.83' (R)
50
0.0
0
LINE
8
LOT_LINE
10
-9.7274
20
113.9425
30
0.0
11
-141.5574
21
113.9431
31
0.0
0
TEXT
8
DIM-LABELS
10
-4.7274
20
108.9425
30
0.0
40
3
1
131.83' (R)
50
0.0
0
LINE
8
LOT_LINE
10
-101.9407
20
-31.9490
30
0.0
11
-141.5574
21
113.9431
31
0.0
0
TEXT
8
DIM-LABELS
10
-121.7490
20
35.9971
30
0.0
40
3
1
N15°11'31.87"W 151.18' (derived)
50
0.0
0
LINE
8
LOT_LINE_APPROX
10
-3.7483
20
23.6594
30
0.0
11
-119.6741
21
33.3558
31
0.0
0
TEXT
8
TEXT-LABELS
10
-5.0000
20
-15.0000
30
0.0
40
4
1
LOT 44 (~4,951 sf, APPROX)
50
0.0
0
TEXT
8
TEXT-LABELS
10
-19.7274
20
88.9425
30
0.0
40
4
1
LOT 45 (~7,437 sf, APPROX)
50
0.0
0
TEXT
8
TEXT-LABELS
10
-70.0000
20
30.0000
30
0.0
40
5
1
COMBINED 44+45 VALIDATED AREA: 15,573 sf
50
0.0
0
TEXT
8
TEXT-LABELS
10
-2.7428
20
14.6921
30
0.0
40
4
1
C23
50
0.0
0
TEXT
8
TEXT-LABELS
10
-6.9050
20
91.2891
30
0.0
40
4
1
C24
50
0.0
0
TEXT
8
TEXT-LABELS
10
-9.4602
20
109.0058
30
0.0
40
4
1
C25
50
0.0
0
ENDSEC
0
EOF
