0
SECTION
2
HEADER
0
ENDSEC
0
SECTION
2
TABLES
0
TABLE
2
LTYPE
70
2
0
LTYPE
2
CONTINUOUS
70
0
3
Solid
72
65
73
0
40
0.0
0
LTYPE
2
DASHED
70
0
3
Dashed
72
65
73
2
40
0.75
49
0.5
74
0
49
-0.25
74
0
0
ENDTAB
0
TABLE
2
LAYER
70
7
0
LAYER
2
0
70
0
62
7
6
CONTINUOUS
0
LAYER
2
BOUNDARY
70
0
62
7
6
CONTINUOUS
0
LAYER
2
LOT_LINES
70
0
62
4
6
CONTINUOUS
0
LAYER
2
ROW_STREET
70
0
62
2
6
DASHED
0
LAYER
2
DIMENSIONS
70
0
62
7
6
CONTINUOUS
0
LAYER
2
LOT_NUMBERS
70
0
62
7
6
CONTINUOUS
0
LAYER
2
CONTROL
70
0
62
1
6
CONTINUOUS
0
ENDTAB
0
ENDSEC
0
SECTION
2
ENTITIES
0
LINE
8
ROW_STREET
10
475900.0000
20
2036000.0000
30
0.0
11
478740.0000
21
2036000.0000
31
0.0
0
TEXT
8
ROW_STREET
10
477320.0000
20
2035994.0000
30
0.0
40
12.0
1
VALE BOULEVARD
50
0.0
0
TEXT
8
ROW_STREET
10
477320.0000
20
2036006.0000
30
0.0
40
9.0
1
(60' RIGHT-OF-WAY)
50
0.0
0
POLYLINE
8
LOT_LINES
66
1
70
1
0
VERTEX
8
LOT_LINES
10
476000.0000
20
2036030.0000
30
0.0
0
VERTEX
8
LOT_LINES
10
476330.0000
20
2036030.0000
30
0.0
0
VERTEX
8
LOT_LINES
10
476330.0000
20
2036690.0000
30
0.0
0
VERTEX
8
LOT_LINES
10
476000.0000
20
2036690.0000
30
0.0
0
SEQEND
0
LINE
8
LOT_LINES
10
476000.0000
20
2036030.0000
30
0.0
11
476330.0000
21
2036030.0000
31
0.0
0
TEXT
8
DIMENSIONS
10
476165.0000
20
2036028.2000
30
0.0
40
6.0
1
EAST
50
0.0
0
TEXT
8
DIMENSIONS
10
476165.0000
20
2036031.8000
30
0.0
40
5.5200000000000005
1
330.00'
50
0.0
0
LINE
8
LOT_LINES
10
476000.0000
20
2036033.0000
30
0.0
11
476000.0000
21
2036027.0000
31
0.0
0
LINE
8
LOT_LINES
10
476330.0000
20
2036033.0000
30
0.0
11
476330.0000
21
2036027.0000
31
0.0
0
LINE
8
LOT_LINES
10
476000.0000
20
2036030.0000
30
0.0
11
476000.0000
21
2036690.0000
31
0.0
0
TEXT
8
DIMENSIONS
10
476001.8000
20
2036360.0000
30
0.0
40
6.0
1
NORTH
50
90.0
0
TEXT
8
DIMENSIONS
10
475998.2000
20
2036360.0000
30
0.0
40
5.5200000000000005
1
660.00'
50
90.0
0
LINE
8
LOT_LINES
10
475997.0000
20
2036030.0000
30
0.0
11
476003.0000
21
2036030.0000
31
0.0
0
LINE
8
LOT_LINES
10
475997.0000
20
2036690.0000
30
0.0
11
476003.0000
21
2036690.0000
31
0.0
0
TEXT
8
LOT_NUMBERS
10
476146.8000
20
2036354.4000
30
0.0
40
14.0
1
LOT 1
50
0.0
0
TEXT
8
DIMENSIONS
10
476146.8000
20
2036344.6000
30
0.0
40
6.3
1
217,800 SF
50
0.0
0
POLYLINE
8
LOT_LINES
66
1
70
1
0
VERTEX
8
LOT_LINES
10
476330.0000
20
2036030.0000
30
0.0
0
VERTEX
8
LOT_LINES
10
476660.0000
20
2036030.0000
30
0.0
0
VERTEX
8
LOT_LINES
10
476660.0000
20
2036690.0000
30
0.0
0
VERTEX
8
LOT_LINES
10
476330.0000
20
2036690.0000
30
0.0
0
SEQEND
0
LINE
8
LOT_LINES
10
476330.0000
20
2036030.0000
30
0.0
11
476660.0000
21
2036030.0000
31
0.0
0
TEXT
8
DIMENSIONS
10
476495.0000
20
2036028.2000
30
0.0
40
6.0
1
EAST
50
0.0
0
TEXT
8
DIMENSIONS
10
476495.0000
20
2036031.8000
30
0.0
40
5.5200000000000005
1
330.00'
50
0.0
0
LINE
8
LOT_LINES
10
476330.0000
20
2036033.0000
30
0.0
11
476330.0000
21
2036027.0000
31
0.0
0
LINE
8
LOT_LINES
10
476660.0000
20
2036033.0000
30
0.0
11
476660.0000
21
2036027.0000
31
0.0
0
LINE
8
LOT_LINES
10
476330.0000
20
2036030.0000
30
0.0
11
476330.0000
21
2036690.0000
31
0.0
0
TEXT
8
DIMENSIONS
10
476331.8000
20
2036360.0000
30
0.0
40
6.0
1
NORTH
50
90.0
0
TEXT
8
DIMENSIONS
10
476328.2000
20
2036360.0000
30
0.0
40
5.5200000000000005
1
660.00'
50
90.0
0
LINE
8
LOT_LINES
10
476327.0000
20
2036030.0000
30
0.0
11
476333.0000
21
2036030.0000
31
0.0
0
LINE
8
LOT_LINES
10
476327.0000
20
2036690.0000
30
0.0
11
476333.0000
21
2036690.0000
31
0.0
0
TEXT
8
LOT_NUMBERS
10
476476.8000
20
2036354.4000
30
0.0
40
14.0
1
LOT 2
50
0.0
0
TEXT
8
DIMENSIONS
10
476476.8000
20
2036344.6000
30
0.0
40
6.3
1
217,800 SF
50
0.0
0
POLYLINE
8
LOT_LINES
66
1
70
1
0
VERTEX
8
LOT_LINES
10
476660.0000
20
2036030.0000
30
0.0
0
VERTEX
8
LOT_LINES
10
476990.0000
20
2036030.0000
30
0.0
0
VERTEX
8
LOT_LINES
10
476990.0000
20
2036690.0000
30
0.0
0
VERTEX
8
LOT_LINES
10
476660.0000
20
2036690.0000
30
0.0
0
SEQEND
0
LINE
8
LOT_LINES
10
476660.0000
20
2036030.0000
30
0.0
11
476990.0000
21
2036030.0000
31
0.0
0
TEXT
8
DIMENSIONS
10
476825.0000
20
2036028.2000
30
0.0
40
6.0
1
EAST
50
0.0
0
TEXT
8
DIMENSIONS
10
476825.0000
20
2036031.8000
30
0.0
40
5.5200000000000005
1
330.00'
50
0.0
0
LINE
8
LOT_LINES
10
476660.0000
20
2036033.0000
30
0.0
11
476660.0000
21
2036027.0000
31
0.0
0
LINE
8
LOT_LINES
10
476990.0000
20
2036033.0000
30
0.0
11
476990.0000
21
2036027.0000
31
0.0
0
LINE
8
LOT_LINES
10
476660.0000
20
2036030.0000
30
0.0
11
476660.0000
21
2036690.0000
31
0.0
0
TEXT
8
DIMENSIONS
10
476661.8000
20
2036360.0000
30
0.0
40
6.0
1
NORTH
50
90.0
0
TEXT
8
DIMENSIONS
10
476658.2000
20
2036360.0000
30
0.0
40
5.5200000000000005
1
660.00'
50
90.0
0
LINE
8
LOT_LINES
10
476657.0000
20
2036030.0000
30
0.0
11
476663.0000
21
2036030.0000
31
0.0
0
LINE
8
LOT_LINES
10
476657.0000
20
2036690.0000
30
0.0
11
476663.0000
21
2036690.0000
31
0.0
0
TEXT
8
LOT_NUMBERS
10
476806.8000
20
2036354.4000
30
0.0
40
14.0
1
LOT 3
50
0.0
0
TEXT
8
DIMENSIONS
10
476806.8000
20
2036344.6000
30
0.0
40
6.3
1
217,800 SF
50
0.0
0
POLYLINE
8
LOT_LINES
66
1
70
1
0
VERTEX
8
LOT_LINES
10
476990.0000
20
2036030.0000
30
0.0
0
VERTEX
8
LOT_LINES
10
477320.0000
20
2036030.0000
30
0.0
0
VERTEX
8
LOT_LINES
10
477320.0000
20
2036690.0000
30
0.0
0
VERTEX
8
LOT_LINES
10
476990.0000
20
2036690.0000
30
0.0
0
SEQEND
0
LINE
8
LOT_LINES
10
476990.0000
20
2036030.0000
30
0.0
11
477320.0000
21
2036030.0000
31
0.0
0
TEXT
8
DIMENSIONS
10
477155.0000
20
2036028.2000
30
0.0
40
6.0
1
EAST
50
0.0
0
TEXT
8
DIMENSIONS
10
477155.0000
20
2036031.8000
30
0.0
40
5.5200000000000005
1
330.00'
50
0.0
0
LINE
8
LOT_LINES
10
476990.0000
20
2036033.0000
30
0.0
11
476990.0000
21
2036027.0000
31
0.0
0
LINE
8
LOT_LINES
10
477320.0000
20
2036033.0000
30
0.0
11
477320.0000
21
2036027.0000
31
0.0
0
LINE
8
LOT_LINES
10
476990.0000
20
2036030.0000
30
0.0
11
476990.0000
21
2036690.0000
31
0.0
0
TEXT
8
DIMENSIONS
10
476991.8000
20
2036360.0000
30
0.0
40
6.0
1
NORTH
50
90.0
0
TEXT
8
DIMENSIONS
10
476988.2000
20
2036360.0000
30
0.0
40
5.5200000000000005
1
660.00'
50
90.0
0
LINE
8
LOT_LINES
10
476987.0000
20
2036030.0000
30
0.0
11
476993.0000
21
2036030.0000
31
0.0
0
LINE
8
LOT_LINES
10
476987.0000
20
2036690.0000
30
0.0
11
476993.0000
21
2036690.0000
31
0.0
0
TEXT
8
LOT_NUMBERS
10
477136.8000
20
2036354.4000
30
0.0
40
14.0
1
LOT 4
50
0.0
0
TEXT
8
DIMENSIONS
10
477136.8000
20
2036344.6000
30
0.0
40
6.3
1
217,800 SF
50
0.0
0
POLYLINE
8
LOT_LINES
66
1
70
1
0
VERTEX
8
LOT_LINES
10
477320.0000
20
2036030.0000
30
0.0
0
VERTEX
8
LOT_LINES
10
477650.0000
20
2036030.0000
30
0.0
0
VERTEX
8
LOT_LINES
10
477650.0000
20
2036690.0000
30
0.0
0
VERTEX
8
LOT_LINES
10
477320.0000
20
2036690.0000
30
0.0
0
SEQEND
0
LINE
8
LOT_LINES
10
477320.0000
20
2036030.0000
30
0.0
11
477650.0000
21
2036030.0000
31
0.0
0
TEXT
8
DIMENSIONS
10
477485.0000
20
2036028.2000
30
0.0
40
6.0
1
EAST
50
0.0
0
TEXT
8
DIMENSIONS
10
477485.0000
20
2036031.8000
30
0.0
40
5.5200000000000005
1
330.00'
50
0.0
0
LINE
8
LOT_LINES
10
477320.0000
20
2036033.0000
30
0.0
11
477320.0000
21
2036027.0000
31
0.0
0
LINE
8
LOT_LINES
10
477650.0000
20
2036033.0000
30
0.0
11
477650.0000
21
2036027.0000
31
0.0
0
LINE
8
LOT_LINES
10
477320.0000
20
2036030.0000
30
0.0
11
477320.0000
21
2036690.0000
31
0.0
0
TEXT
8
DIMENSIONS
10
477321.8000
20
2036360.0000
30
0.0
40
6.0
1
NORTH
50
90.0
0
TEXT
8
DIMENSIONS
10
477318.2000
20
2036360.0000
30
0.0
40
5.5200000000000005
1
660.00'
50
90.0
0
LINE
8
LOT_LINES
10
477317.0000
20
2036030.0000
30
0.0
11
477323.0000
21
2036030.0000
31
0.0
0
LINE
8
LOT_LINES
10
477317.0000
20
2036690.0000
30
0.0
11
477323.0000
21
2036690.0000
31
0.0
0
TEXT
8
LOT_NUMBERS
10
477466.8000
20
2036354.4000
30
0.0
40
14.0
1
LOT 5
50
0.0
0
TEXT
8
DIMENSIONS
10
477466.8000
20
2036344.6000
30
0.0
40
6.3
1
217,800 SF
50
0.0
0
POLYLINE
8
LOT_LINES
66
1
70
1
0
VERTEX
8
LOT_LINES
10
477650.0000
20
2036030.0000
30
0.0
0
VERTEX
8
LOT_LINES
10
477980.0000
20
2036030.0000
30
0.0
0
VERTEX
8
LOT_LINES
10
477980.0000
20
2036690.0000
30
0.0
0
VERTEX
8
LOT_LINES
10
477650.0000
20
2036690.0000
30
0.0
0
SEQEND
0
LINE
8
LOT_LINES
10
477650.0000
20
2036030.0000
30
0.0
11
477980.0000
21
2036030.0000
31
0.0
0
TEXT
8
DIMENSIONS
10
477815.0000
20
2036028.2000
30
0.0
40
6.0
1
EAST
50
0.0
0
TEXT
8
DIMENSIONS
10
477815.0000
20
2036031.8000
30
0.0
40
5.5200000000000005
1
330.00'
50
0.0
0
LINE
8
LOT_LINES
10
477650.0000
20
2036033.0000
30
0.0
11
477650.0000
21
2036027.0000
31
0.0
0
LINE
8
LOT_LINES
10
477980.0000
20
2036033.0000
30
0.0
11
477980.0000
21
2036027.0000
31
0.0
0
LINE
8
LOT_LINES
10
477650.0000
20
2036030.0000
30
0.0
11
477650.0000
21
2036690.0000
31
0.0
0
TEXT
8
DIMENSIONS
10
477651.8000
20
2036360.0000
30
0.0
40
6.0
1
NORTH
50
90.0
0
TEXT
8
DIMENSIONS
10
477648.2000
20
2036360.0000
30
0.0
40
5.5200000000000005
1
660.00'
50
90.0
0
LINE
8
LOT_LINES
10
477647.0000
20
2036030.0000
30
0.0
11
477653.0000
21
2036030.0000
31
0.0
0
LINE
8
LOT_LINES
10
477647.0000
20
2036690.0000
30
0.0
11
477653.0000
21
2036690.0000
31
0.0
0
TEXT
8
LOT_NUMBERS
10
477796.8000
20
2036354.4000
30
0.0
40
14.0
1
LOT 6
50
0.0
0
TEXT
8
DIMENSIONS
10
477796.8000
20
2036344.6000
30
0.0
40
6.3
1
217,800 SF
50
0.0
0
POLYLINE
8
LOT_LINES
66
1
70
1
0
VERTEX
8
LOT_LINES
10
477980.0000
20
2036030.0000
30
0.0
0
VERTEX
8
LOT_LINES
10
478310.0000
20
2036030.0000
30
0.0
0
VERTEX
8
LOT_LINES
10
478310.0000
20
2036690.0000
30
0.0
0
VERTEX
8
LOT_LINES
10
477980.0000
20
2036690.0000
30
0.0
0
SEQEND
0
LINE
8
LOT_LINES
10
477980.0000
20
2036030.0000
30
0.0
11
478310.0000
21
2036030.0000
31
0.0
0
TEXT
8
DIMENSIONS
10
478145.0000
20
2036028.2000
30
0.0
40
6.0
1
EAST
50
0.0
0
TEXT
8
DIMENSIONS
10
478145.0000
20
2036031.8000
30
0.0
40
5.5200000000000005
1
330.00'
50
0.0
0
LINE
8
LOT_LINES
10
477980.0000
20
2036033.0000
30
0.0
11
477980.0000
21
2036027.0000
31
0.0
0
LINE
8
LOT_LINES
10
478310.0000
20
2036033.0000
30
0.0
11
478310.0000
21
2036027.0000
31
0.0
0
LINE
8
LOT_LINES
10
477980.0000
20
2036030.0000
30
0.0
11
477980.0000
21
2036690.0000
31
0.0
0
TEXT
8
DIMENSIONS
10
477981.8000
20
2036360.0000
30
0.0
40
6.0
1
NORTH
50
90.0
0
TEXT
8
DIMENSIONS
10
477978.2000
20
2036360.0000
30
0.0
40
5.5200000000000005
1
660.00'
50
90.0
0
LINE
8
LOT_LINES
10
477977.0000
20
2036030.0000
30
0.0
11
477983.0000
21
2036030.0000
31
0.0
0
LINE
8
LOT_LINES
10
477977.0000
20
2036690.0000
30
0.0
11
477983.0000
21
2036690.0000
31
0.0
0
TEXT
8
LOT_NUMBERS
10
478126.8000
20
2036354.4000
30
0.0
40
14.0
1
LOT 7
50
0.0
0
TEXT
8
DIMENSIONS
10
478126.8000
20
2036344.6000
30
0.0
40
6.3
1
217,800 SF
50
0.0
0
POLYLINE
8
LOT_LINES
66
1
70
1
0
VERTEX
8
LOT_LINES
10
478310.0000
20
2036030.0000
30
0.0
0
VERTEX
8
LOT_LINES
10
478640.0000
20
2036030.0000
30
0.0
0
VERTEX
8
LOT_LINES
10
478640.0000
20
2036690.0000
30
0.0
0
VERTEX
8
LOT_LINES
10
478310.0000
20
2036690.0000
30
0.0
0
SEQEND
0
LINE
8
LOT_LINES
10
478310.0000
20
2036030.0000
30
0.0
11
478640.0000
21
2036030.0000
31
0.0
0
TEXT
8
DIMENSIONS
10
478475.0000
20
2036028.2000
30
0.0
40
6.0
1
EAST
50
0.0
0
TEXT
8
DIMENSIONS
10
478475.0000
20
2036031.8000
30
0.0
40
5.5200000000000005
1
330.00'
50
0.0
0
LINE
8
LOT_LINES
10
478310.0000
20
2036033.0000
30
0.0
11
478310.0000
21
2036027.0000
31
0.0
0
LINE
8
LOT_LINES
10
478640.0000
20
2036033.0000
30
0.0
11
478640.0000
21
2036027.0000
31
0.0
0
LINE
8
LOT_LINES
10
478310.0000
20
2036030.0000
30
0.0
11
478310.0000
21
2036690.0000
31
0.0
0
TEXT
8
DIMENSIONS
10
478311.8000
20
2036360.0000
30
0.0
40
6.0
1
NORTH
50
90.0
0
TEXT
8
DIMENSIONS
10
478308.2000
20
2036360.0000
30
0.0
40
5.5200000000000005
1
660.00'
50
90.0
0
LINE
8
LOT_LINES
10
478307.0000
20
2036030.0000
30
0.0
11
478313.0000
21
2036030.0000
31
0.0
0
LINE
8
LOT_LINES
10
478307.0000
20
2036690.0000
30
0.0
11
478313.0000
21
2036690.0000
31
0.0
0
TEXT
8
LOT_NUMBERS
10
478456.8000
20
2036354.4000
30
0.0
40
14.0
1
LOT 8
50
0.0
0
TEXT
8
DIMENSIONS
10
478456.8000
20
2036344.6000
30
0.0
40
6.3
1
217,800 SF
50
0.0
0
POLYLINE
8
LOT_LINES
66
1
70
1
0
VERTEX
8
LOT_LINES
10
476000.0000
20
2035310.0000
30
0.0
0
VERTEX
8
LOT_LINES
10
476330.0000
20
2035310.0000
30
0.0
0
VERTEX
8
LOT_LINES
10
476330.0000
20
2035970.0000
30
0.0
0
VERTEX
8
LOT_LINES
10
476000.0000
20
2035970.0000
30
0.0
0
SEQEND
0
LINE
8
LOT_LINES
10
476000.0000
20
2035310.0000
30
0.0
11
476330.0000
21
2035310.0000
31
0.0
0
TEXT
8
DIMENSIONS
10
476165.0000
20
2035308.2000
30
0.0
40
6.0
1
EAST
50
0.0
0
TEXT
8
DIMENSIONS
10
476165.0000
20
2035311.8000
30
0.0
40
5.5200000000000005
1
330.00'
50
0.0
0
LINE
8
LOT_LINES
10
476000.0000
20
2035313.0000
30
0.0
11
476000.0000
21
2035307.0000
31
0.0
0
LINE
8
LOT_LINES
10
476330.0000
20
2035313.0000
30
0.0
11
476330.0000
21
2035307.0000
31
0.0
0
LINE
8
LOT_LINES
10
476000.0000
20
2035310.0000
30
0.0
11
476000.0000
21
2035970.0000
31
0.0
0
TEXT
8
DIMENSIONS
10
476001.8000
20
2035640.0000
30
0.0
40
6.0
1
NORTH
50
90.0
0
TEXT
8
DIMENSIONS
10
475998.2000
20
2035640.0000
30
0.0
40
5.5200000000000005
1
660.00'
50
90.0
0
LINE
8
LOT_LINES
10
475997.0000
20
2035310.0000
30
0.0
11
476003.0000
21
2035310.0000
31
0.0
0
LINE
8
LOT_LINES
10
475997.0000
20
2035970.0000
30
0.0
11
476003.0000
21
2035970.0000
31
0.0
0
TEXT
8
LOT_NUMBERS
10
476146.8000
20
2035634.4000
30
0.0
40
14.0
1
LOT 9
50
0.0
0
TEXT
8
DIMENSIONS
10
476146.8000
20
2035624.6000
30
0.0
40
6.3
1
217,800 SF
50
0.0
0
POLYLINE
8
LOT_LINES
66
1
70
1
0
VERTEX
8
LOT_LINES
10
476330.0000
20
2035310.0000
30
0.0
0
VERTEX
8
LOT_LINES
10
476660.0000
20
2035310.0000
30
0.0
0
VERTEX
8
LOT_LINES
10
476660.0000
20
2035970.0000
30
0.0
0
VERTEX
8
LOT_LINES
10
476330.0000
20
2035970.0000
30
0.0
0
SEQEND
0
LINE
8
LOT_LINES
10
476330.0000
20
2035310.0000
30
0.0
11
476660.0000
21
2035310.0000
31
0.0
0
TEXT
8
DIMENSIONS
10
476495.0000
20
2035308.2000
30
0.0
40
6.0
1
EAST
50
0.0
0
TEXT
8
DIMENSIONS
10
476495.0000
20
2035311.8000
30
0.0
40
5.5200000000000005
1
330.00'
50
0.0
0
LINE
8
LOT_LINES
10
476330.0000
20
2035313.0000
30
0.0
11
476330.0000
21
2035307.0000
31
0.0
0
LINE
8
LOT_LINES
10
476660.0000
20
2035313.0000
30
0.0
11
476660.0000
21
2035307.0000
31
0.0
0
LINE
8
LOT_LINES
10
476330.0000
20
2035310.0000
30
0.0
11
476330.0000
21
2035970.0000
31
0.0
0
TEXT
8
DIMENSIONS
10
476331.8000
20
2035640.0000
30
0.0
40
6.0
1
NORTH
50
90.0
0
TEXT
8
DIMENSIONS
10
476328.2000
20
2035640.0000
30
0.0
40
5.5200000000000005
1
660.00'
50
90.0
0
LINE
8
LOT_LINES
10
476327.0000
20
2035310.0000
30
0.0
11
476333.0000
21
2035310.0000
31
0.0
0
LINE
8
LOT_LINES
10
476327.0000
20
2035970.0000
30
0.0
11
476333.0000
21
2035970.0000
31
0.0
0
TEXT
8
LOT_NUMBERS
10
476476.8000
20
2035634.4000
30
0.0
40
14.0
1
LOT 10
50
0.0
0
TEXT
8
DIMENSIONS
10
476476.8000
20
2035624.6000
30
0.0
40
6.3
1
217,800 SF
50
0.0
0
POLYLINE
8
LOT_LINES
66
1
70
1
0
VERTEX
8
LOT_LINES
10
476660.0000
20
2035310.0000
30
0.0
0
VERTEX
8
LOT_LINES
10
476990.0000
20
2035310.0000
30
0.0
0
VERTEX
8
LOT_LINES
10
476990.0000
20
2035970.0000
30
0.0
0
VERTEX
8
LOT_LINES
10
476660.0000
20
2035970.0000
30
0.0
0
SEQEND
0
LINE
8
LOT_LINES
10
476660.0000
20
2035310.0000
30
0.0
11
476990.0000
21
2035310.0000
31
0.0
0
TEXT
8
DIMENSIONS
10
476825.0000
20
2035308.2000
30
0.0
40
6.0
1
EAST
50
0.0
0
TEXT
8
DIMENSIONS
10
476825.0000
20
2035311.8000
30
0.0
40
5.5200000000000005
1
330.00'
50
0.0
0
LINE
8
LOT_LINES
10
476660.0000
20
2035313.0000
30
0.0
11
476660.0000
21
2035307.0000
31
0.0
0
LINE
8
LOT_LINES
10
476990.0000
20
2035313.0000
30
0.0
11
476990.0000
21
2035307.0000
31
0.0
0
LINE
8
LOT_LINES
10
476660.0000
20
2035310.0000
30
0.0
11
476660.0000
21
2035970.0000
31
0.0
0
TEXT
8
DIMENSIONS
10
476661.8000
20
2035640.0000
30
0.0
40
6.0
1
NORTH
50
90.0
0
TEXT
8
DIMENSIONS
10
476658.2000
20
2035640.0000
30
0.0
40
5.5200000000000005
1
660.00'
50
90.0
0
LINE
8
LOT_LINES
10
476657.0000
20
2035310.0000
30
0.0
11
476663.0000
21
2035310.0000
31
0.0
0
LINE
8
LOT_LINES
10
476657.0000
20
2035970.0000
30
0.0
11
476663.0000
21
2035970.0000
31
0.0
0
TEXT
8
LOT_NUMBERS
10
476806.8000
20
2035634.4000
30
0.0
40
14.0
1
LOT 11
50
0.0
0
TEXT
8
DIMENSIONS
10
476806.8000
20
2035624.6000
30
0.0
40
6.3
1
217,800 SF
50
0.0
0
POLYLINE
8
LOT_LINES
66
1
70
1
0
VERTEX
8
LOT_LINES
10
476990.0000
20
2035310.0000
30
0.0
0
VERTEX
8
LOT_LINES
10
477320.0000
20
2035310.0000
30
0.0
0
VERTEX
8
LOT_LINES
10
477320.0000
20
2035970.0000
30
0.0
0
VERTEX
8
LOT_LINES
10
476990.0000
20
2035970.0000
30
0.0
0
SEQEND
0
LINE
8
LOT_LINES
10
476990.0000
20
2035310.0000
30
0.0
11
477320.0000
21
2035310.0000
31
0.0
0
TEXT
8
DIMENSIONS
10
477155.0000
20
2035308.2000
30
0.0
40
6.0
1
EAST
50
0.0
0
TEXT
8
DIMENSIONS
10
477155.0000
20
2035311.8000
30
0.0
40
5.5200000000000005
1
330.00'
50
0.0
0
LINE
8
LOT_LINES
10
476990.0000
20
2035313.0000
30
0.0
11
476990.0000
21
2035307.0000
31
0.0
0
LINE
8
LOT_LINES
10
477320.0000
20
2035313.0000
30
0.0
11
477320.0000
21
2035307.0000
31
0.0
0
LINE
8
LOT_LINES
10
476990.0000
20
2035310.0000
30
0.0
11
476990.0000
21
2035970.0000
31
0.0
0
TEXT
8
DIMENSIONS
10
476991.8000
20
2035640.0000
30
0.0
40
6.0
1
NORTH
50
90.0
0
TEXT
8
DIMENSIONS
10
476988.2000
20
2035640.0000
30
0.0
40
5.5200000000000005
1
660.00'
50
90.0
0
LINE
8
LOT_LINES
10
476987.0000
20
2035310.0000
30
0.0
11
476993.0000
21
2035310.0000
31
0.0
0
LINE
8
LOT_LINES
10
476987.0000
20
2035970.0000
30
0.0
11
476993.0000
21
2035970.0000
31
0.0
0
TEXT
8
LOT_NUMBERS
10
477136.8000
20
2035634.4000
30
0.0
40
14.0
1
LOT 12
50
0.0
0
TEXT
8
DIMENSIONS
10
477136.8000
20
2035624.6000
30
0.0
40
6.3
1
217,800 SF
50
0.0
0
POLYLINE
8
LOT_LINES
66
1
70
1
0
VERTEX
8
LOT_LINES
10
477320.0000
20
2035310.0000
30
0.0
0
VERTEX
8
LOT_LINES
10
477650.0000
20
2035310.0000
30
0.0
0
VERTEX
8
LOT_LINES
10
477650.0000
20
2035970.0000
30
0.0
0
VERTEX
8
LOT_LINES
10
477320.0000
20
2035970.0000
30
0.0
0
SEQEND
0
LINE
8
LOT_LINES
10
477320.0000
20
2035310.0000
30
0.0
11
477650.0000
21
2035310.0000
31
0.0
0
TEXT
8
DIMENSIONS
10
477485.0000
20
2035308.2000
30
0.0
40
6.0
1
EAST
50
0.0
0
TEXT
8
DIMENSIONS
10
477485.0000
20
2035311.8000
30
0.0
40
5.5200000000000005
1
330.00'
50
0.0
0
LINE
8
LOT_LINES
10
477320.0000
20
2035313.0000
30
0.0
11
477320.0000
21
2035307.0000
31
0.0
0
LINE
8
LOT_LINES
10
477650.0000
20
2035313.0000
30
0.0
11
477650.0000
21
2035307.0000
31
0.0
0
LINE
8
LOT_LINES
10
477320.0000
20
2035310.0000
30
0.0
11
477320.0000
21
2035970.0000
31
0.0
0
TEXT
8
DIMENSIONS
10
477321.8000
20
2035640.0000
30
0.0
40
6.0
1
NORTH
50
90.0
0
TEXT
8
DIMENSIONS
10
477318.2000
20
2035640.0000
30
0.0
40
5.5200000000000005
1
660.00'
50
90.0
0
LINE
8
LOT_LINES
10
477317.0000
20
2035310.0000
30
0.0
11
477323.0000
21
2035310.0000
31
0.0
0
LINE
8
LOT_LINES
10
477317.0000
20
2035970.0000
30
0.0
11
477323.0000
21
2035970.0000
31
0.0
0
TEXT
8
LOT_NUMBERS
10
477466.8000
20
2035634.4000
30
0.0
40
14.0
1
LOT 13
50
0.0
0
TEXT
8
DIMENSIONS
10
477466.8000
20
2035624.6000
30
0.0
40
6.3
1
217,800 SF
50
0.0
0
POLYLINE
8
LOT_LINES
66
1
70
1
0
VERTEX
8
LOT_LINES
10
477650.0000
20
2035310.0000
30
0.0
0
VERTEX
8
LOT_LINES
10
477980.0000
20
2035310.0000
30
0.0
0
VERTEX
8
LOT_LINES
10
477980.0000
20
2035970.0000
30
0.0
0
VERTEX
8
LOT_LINES
10
477650.0000
20
2035970.0000
30
0.0
0
SEQEND
0
LINE
8
LOT_LINES
10
477650.0000
20
2035310.0000
30
0.0
11
477980.0000
21
2035310.0000
31
0.0
0
TEXT
8
DIMENSIONS
10
477815.0000
20
2035308.2000
30
0.0
40
6.0
1
EAST
50
0.0
0
TEXT
8
DIMENSIONS
10
477815.0000
20
2035311.8000
30
0.0
40
5.5200000000000005
1
330.00'
50
0.0
0
LINE
8
LOT_LINES
10
477650.0000
20
2035313.0000
30
0.0
11
477650.0000
21
2035307.0000
31
0.0
0
LINE
8
LOT_LINES
10
477980.0000
20
2035313.0000
30
0.0
11
477980.0000
21
2035307.0000
31
0.0
0
LINE
8
LOT_LINES
10
477650.0000
20
2035310.0000
30
0.0
11
477650.0000
21
2035970.0000
31
0.0
0
TEXT
8
DIMENSIONS
10
477651.8000
20
2035640.0000
30
0.0
40
6.0
1
NORTH
50
90.0
0
TEXT
8
DIMENSIONS
10
477648.2000
20
2035640.0000
30
0.0
40
5.5200000000000005
1
660.00'
50
90.0
0
LINE
8
LOT_LINES
10
477647.0000
20
2035310.0000
30
0.0
11
477653.0000
21
2035310.0000
31
0.0
0
LINE
8
LOT_LINES
10
477647.0000
20
2035970.0000
30
0.0
11
477653.0000
21
2035970.0000
31
0.0
0
TEXT
8
LOT_NUMBERS
10
477796.8000
20
2035634.4000
30
0.0
40
14.0
1
LOT 14
50
0.0
0
TEXT
8
DIMENSIONS
10
477796.8000
20
2035624.6000
30
0.0
40
6.3
1
217,800 SF
50
0.0
0
POLYLINE
8
LOT_LINES
66
1
70
1
0
VERTEX
8
LOT_LINES
10
477980.0000
20
2035310.0000
30
0.0
0
VERTEX
8
LOT_LINES
10
478310.0000
20
2035310.0000
30
0.0
0
VERTEX
8
LOT_LINES
10
478310.0000
20
2035970.0000
30
0.0
0
VERTEX
8
LOT_LINES
10
477980.0000
20
2035970.0000
30
0.0
0
SEQEND
0
LINE
8
LOT_LINES
10
477980.0000
20
2035310.0000
30
0.0
11
478310.0000
21
2035310.0000
31
0.0
0
TEXT
8
DIMENSIONS
10
478145.0000
20
2035308.2000
30
0.0
40
6.0
1
EAST
50
0.0
0
TEXT
8
DIMENSIONS
10
478145.0000
20
2035311.8000
30
0.0
40
5.5200000000000005
1
330.00'
50
0.0
0
LINE
8
LOT_LINES
10
477980.0000
20
2035313.0000
30
0.0
11
477980.0000
21
2035307.0000
31
0.0
0
LINE
8
LOT_LINES
10
478310.0000
20
2035313.0000
30
0.0
11
478310.0000
21
2035307.0000
31
0.0
0
LINE
8
LOT_LINES
10
477980.0000
20
2035310.0000
30
0.0
11
477980.0000
21
2035970.0000
31
0.0
0
TEXT
8
DIMENSIONS
10
477981.8000
20
2035640.0000
30
0.0
40
6.0
1
NORTH
50
90.0
0
TEXT
8
DIMENSIONS
10
477978.2000
20
2035640.0000
30
0.0
40
5.5200000000000005
1
660.00'
50
90.0
0
LINE
8
LOT_LINES
10
477977.0000
20
2035310.0000
30
0.0
11
477983.0000
21
2035310.0000
31
0.0
0
LINE
8
LOT_LINES
10
477977.0000
20
2035970.0000
30
0.0
11
477983.0000
21
2035970.0000
31
0.0
0
TEXT
8
LOT_NUMBERS
10
478126.8000
20
2035634.4000
30
0.0
40
14.0
1
LOT 15
50
0.0
0
TEXT
8
DIMENSIONS
10
478126.8000
20
2035624.6000
30
0.0
40
6.3
1
217,800 SF
50
0.0
0
POLYLINE
8
LOT_LINES
66
1
70
1
0
VERTEX
8
LOT_LINES
10
478310.0000
20
2035310.0000
30
0.0
0
VERTEX
8
LOT_LINES
10
478640.0000
20
2035310.0000
30
0.0
0
VERTEX
8
LOT_LINES
10
478640.0000
20
2035970.0000
30
0.0
0
VERTEX
8
LOT_LINES
10
478310.0000
20
2035970.0000
30
0.0
0
SEQEND
0
LINE
8
LOT_LINES
10
478310.0000
20
2035310.0000
30
0.0
11
478640.0000
21
2035310.0000
31
0.0
0
TEXT
8
DIMENSIONS
10
478475.0000
20
2035308.2000
30
0.0
40
6.0
1
EAST
50
0.0
0
TEXT
8
DIMENSIONS
10
478475.0000
20
2035311.8000
30
0.0
40
5.5200000000000005
1
330.00'
50
0.0
0
LINE
8
LOT_LINES
10
478310.0000
20
2035313.0000
30
0.0
11
478310.0000
21
2035307.0000
31
0.0
0
LINE
8
LOT_LINES
10
478640.0000
20
2035313.0000
30
0.0
11
478640.0000
21
2035307.0000
31
0.0
0
LINE
8
LOT_LINES
10
478310.0000
20
2035310.0000
30
0.0
11
478310.0000
21
2035970.0000
31
0.0
0
TEXT
8
DIMENSIONS
10
478311.8000
20
2035640.0000
30
0.0
40
6.0
1
NORTH
50
90.0
0
TEXT
8
DIMENSIONS
10
478308.2000
20
2035640.0000
30
0.0
40
5.5200000000000005
1
660.00'
50
90.0
0
LINE
8
LOT_LINES
10
478307.0000
20
2035310.0000
30
0.0
11
478313.0000
21
2035310.0000
31
0.0
0
LINE
8
LOT_LINES
10
478307.0000
20
2035970.0000
30
0.0
11
478313.0000
21
2035970.0000
31
0.0
0
TEXT
8
LOT_NUMBERS
10
478456.8000
20
2035634.4000
30
0.0
40
14.0
1
LOT 16
50
0.0
0
TEXT
8
DIMENSIONS
10
478456.8000
20
2035624.6000
30
0.0
40
6.3
1
217,800 SF
50
0.0
0
LINE
8
BOUNDARY
10
476000.0000
20
2035310.0000
30
0.0
11
478640.0000
21
2035310.0000
31
0.0
0
LINE
8
BOUNDARY
10
478640.0000
20
2035310.0000
30
0.0
11
478640.0000
21
2036690.0000
31
0.0
0
LINE
8
BOUNDARY
10
478640.0000
20
2036690.0000
30
0.0
11
476000.0000
21
2036690.0000
31
0.0
0
LINE
8
BOUNDARY
10
476000.0000
20
2036690.0000
30
0.0
11
476000.0000
21
2035310.0000
31
0.0
0
POINT
8
CONTROL
10
476000.0000
20
2036000.0000
30
0.0
0
TEXT
8
CONTROL
10
476000.0000
20
2035950.0000
30
0.0
40
10.0
1
PLSS SECTION LINE TIE: Sec 24 & 25, T7S, R24E (Ground-Truthed WGS84)
50
0.0
0
ENDSEC
0
EOF
