0
SECTION
2
HEADER
0
ENDSEC
0
SECTION
2
TABLES
0
TABLE
2
LTYPE
70
2
0
LTYPE
2
CONTINUOUS
70
0
3
Solid
72
65
73
0
40
0.0
0
LTYPE
2
DASHED
70
0
3
Dashed
72
65
73
2
40
0.75
49
0.5
74
0
49
-0.25
74
0
0
ENDTAB
0
TABLE
2
LAYER
70
13
0
LAYER
2
0
70
0
62
7
6
CONTINUOUS
0
LAYER
2
BOUNDARY
70
0
62
7
6
CONTINUOUS
0
LAYER
2
MEANDER
70
0
62
6
6
DASHED
0
LAYER
2
LOT_LINE
70
0
62
4
6
CONTINUOUS
0
LAYER
2
ROW_STREET
70
0
62
2
6
DASHED
0
LAYER
2
CURVE
70
0
62
2
6
CONTINUOUS
0
LAYER
2
CURVE_RADIAL
70
0
62
8
6
DASHED
0
LAYER
2
SETBACK
70
0
62
3
6
DASHED
0
LAYER
2
DIM-LABELS
70
0
62
3
6
CONTINUOUS
0
LAYER
2
TEXT-LABELS
70
0
62
7
6
CONTINUOUS
0
LAYER
2
CURVE_TABLE
70
0
62
2
6
CONTINUOUS
0
LAYER
2
CONTROL
70
0
62
1
6
CONTINUOUS
0
LAYER
2
TITLEBLOCK
70
0
62
2
6
CONTINUOUS
0
ENDTAB
0
ENDSEC
0
SECTION
2
ENTITIES
0
LINE
8
BOUNDARY
10
0.0000
20
0.0000
30
0.0
11
1791.8900
21
0.0000
31
0.0
0
TEXT
8
DIM-LABELS
10
895.9450
20
6.0000
30
0.0
40
9
1
N90°00'00"E  1791.89'
50
0.0
0
LINE
8
BOUNDARY
10
1791.8900
20
0.0000
30
0.0
11
2010.5655
21
271.5728
31
0.0
0
TEXT
8
DIM-LABELS
10
1901.2278
20
141.7864
30
0.0
40
9
1
N38°50'30"E  348.67'
50
51.158333333333324
0
LINE
8
BOUNDARY
10
2010.5655
20
271.5728
30
0.0
11
1854.7891
21
397.0069
31
0.0
0
TEXT
8
DIM-LABELS
10
1932.6773
20
340.2899
30
0.0
40
9
1
N51°09'30"W  200.00'
50
321.1583333333333
0
LINE
8
BOUNDARY
10
1854.7891
20
397.0069
30
0.0
11
2105.6572
21
708.5597
31
0.0
0
TEXT
8
DIM-LABELS
10
1980.2232
20
558.7833
30
0.0
40
9
1
N38°50'30"E  400.00'
50
51.158333333333346
0
LINE
8
MEANDER
10
2105.6572
20
708.5597
30
0.0
11
2.6616
21
299.9882
31
0.0
0
TEXT
8
MEANDER
10
1054.1594
20
518.2740
30
0.0
40
11
1
MEANDER CLOSURE 2142.32' — SHORE DIST 3600'± (NOT A CHORD)
50
10.994502220355287
0
LINE
8
BOUNDARY
10
2.6616
20
299.9882
30
0.0
11
0.0000
21
0.0000
31
0.0
0
TEXT
8
DIM-LABELS
10
1.3308
20
155.9941
30
0.0
40
9
1
S00°30'30"W  300'±
50
89.49166666666667
0
POINT
8
CONTROL
10
0.0000
20
0.0000
30
0.0
0
TEXT
8
CONTROL
10
8.0000
20
10.0000
30
0.0
40
8
1
P.O.B. / P.R.M.  SW cor NW1/4 of SW1/4 Sec 17
50
0.0
0
POINT
8
CONTROL
10
1791.8900
20
0.0000
30
0.0
0
TEXT
8
CONTROL
10
1799.8900
20
10.0000
30
0.0
40
8
1
P.R.M. on NW'ly R/W SR 21
50
0.0
0
POINT
8
CONTROL
10
2010.5655
20
271.5728
30
0.0
0
TEXT
8
CONTROL
10
2018.5655
20
281.5728
30
0.0
40
8
1
P.R.M. S'ly cor Farnham
50
0.0
0
POINT
8
CONTROL
10
1854.7891
20
397.0069
30
0.0
0
TEXT
8
CONTROL
10
1862.7891
20
407.0069
30
0.0
40
8
1
P.R.M. W'ly cor Farnham
50
0.0
0
LINE
8
LOT_LINE
10
0.4436
20
49.9980
30
0.0
11
75.4436
21
49.9980
31
0.0
0
LINE
8
LOT_LINE
10
75.4436
20
49.9980
30
0.0
11
75.4436
21
257.8780
31
0.0
0
LINE
8
LOT_LINE
10
2.3532
20
253.0447
30
0.0
11
0.4436
21
49.9980
31
0.0
0
LINE
8
MEANDER
10
75.4436
20
257.8780
30
0.0
11
2.3532
21
253.0447
31
0.0
0
TEXT
8
DIM-LABELS
10
37.9436
20
40.9980
30
0.0
40
7
1
75'
50
0.0
0
TEXT
8
DIM-LABELS
10
75.4436
20
159.9380
30
0.0
40
7
1
207.88'
50
90.0
0
TEXT
8
MEANDER
10
38.8984
20
262.4614
30
0.0
40
6
1
S86°13'00"W 73.25'
50
3.78333333333336
0
TEXT
8
TEXT-LABELS
10
38.4210
20
152.7297
30
0.0
40
14
1
41
50
0.0
0
TEXT
8
TEXT-LABELS
10
22.4210
20
134.7297
30
0.0
40
7
1
15,211 sf
50
0.0
0
LINE
8
SETBACK
10
0.4436
20
74.9980
30
0.0
11
75.4436
21
74.9980
31
0.0
0
LINE
8
LOT_LINE
10
75.4436
20
49.9980
30
0.0
11
150.4436
21
49.9980
31
0.0
0
LINE
8
LOT_LINE
10
150.4436
20
49.9980
30
0.0
11
150.4436
21
262.0480
31
0.0
0
LINE
8
LOT_LINE
10
75.4919
20
257.8357
30
0.0
11
75.4436
21
49.9980
31
0.0
0
LINE
8
MEANDER
10
150.4436
20
262.0480
30
0.0
11
75.4919
21
257.8357
31
0.0
0
TEXT
8
DIM-LABELS
10
112.9436
20
40.9980
30
0.0
40
7
1
75'
50
0.0
0
TEXT
8
DIM-LABELS
10
150.4436
20
162.0230
30
0.0
40
7
1
212.05'
50
90.0
0
TEXT
8
MEANDER
10
112.9677
20
266.9419
30
0.0
40
6
1
S86°47'00"W 75.07'
50
3.216666666666697
0
TEXT
8
TEXT-LABELS
10
112.9557
20
154.9700
30
0.0
40
14
1
40
50
0.0
0
TEXT
8
TEXT-LABELS
10
96.9557
20
136.9700
30
0.0
40
7
1
15,741 sf
50
0.0
0
LINE
8
SETBACK
10
75.4436
20
74.9980
30
0.0
11
150.4436
21
74.9980
31
0.0
0
LINE
8
LOT_LINE
10
150.4436
20
49.9980
30
0.0
11
225.4436
21
49.9980
31
0.0
0
LINE
8
LOT_LINE
10
225.4436
20
49.9980
30
0.0
11
225.4436
21
262.3480
31
0.0
0
LINE
8
LOT_LINE
10
150.4444
20
262.0099
30
0.0
11
150.4436
21
49.9980
31
0.0
0
LINE
8
MEANDER
10
225.4436
20
262.3480
30
0.0
11
150.4444
21
262.0099
31
0.0
0
TEXT
8
DIM-LABELS
10
187.9436
20
40.9980
30
0.0
40
7
1
75'
50
0.0
0
TEXT
8
DIM-LABELS
10
225.4436
20
162.1730
30
0.0
40
7
1
212.35'
50
90.0
0
TEXT
8
MEANDER
10
187.9440
20
269.1790
30
0.0
40
6
1
S89°44'30"W 75.00'
50
0.25833333333332575
0
TEXT
8
TEXT-LABELS
10
187.9438
20
156.0885
30
0.0
40
14
1
39
50
0.0
0
TEXT
8
TEXT-LABELS
10
171.9438
20
138.0885
30
0.0
40
7
1
15,913 sf
50
0.0
0
LINE
8
SETBACK
10
150.4436
20
74.9980
30
0.0
11
225.4436
21
74.9980
31
0.0
0
LINE
8
LOT_LINE
10
225.4436
20
49.9980
30
0.0
11
300.4436
21
49.9980
31
0.0
0
LINE
8
LOT_LINE
10
300.4436
20
49.9980
30
0.0
11
300.4436
21
286.3080
31
0.0
0
LINE
8
LOT_LINE
10
225.4474
20
262.1211
30
0.0
11
225.4436
21
49.9980
31
0.0
0
LINE
8
MEANDER
10
300.4436
20
286.3080
30
0.0
11
225.4474
21
262.1211
31
0.0
0
TEXT
8
DIM-LABELS
10
262.9436
20
40.9980
30
0.0
40
7
1
75'
50
0.0
0
TEXT
8
DIM-LABELS
10
300.4436
20
174.1530
30
0.0
40
7
1
236.31'
50
90.0
0
TEXT
8
MEANDER
10
262.9455
20
281.2145
30
0.0
40
6
1
S72°07'30"W 78.80'
50
17.875
0
TEXT
8
TEXT-LABELS
10
262.9445
20
162.1063
30
0.0
40
14
1
38
50
0.0
0
TEXT
8
TEXT-LABELS
10
246.9445
20
144.1063
30
0.0
40
7
1
16,816 sf
50
0.0
0
LINE
8
SETBACK
10
225.4436
20
74.9980
30
0.0
11
300.4436
21
74.9980
31
0.0
0
TEXT
8
SETBACK
10
20.4436
20
23.9980
30
0.0
40
8
1
25' BUILDING RESTRICTION LINE
50
0.0
0
LINE
8
CURVE
10
378.4436
20
49.9980
30
0.0
11
383.6793
21
50.0437
31
0.0
0
LINE
8
CURVE
10
383.6793
20
50.0437
30
0.0
11
388.9134
21
50.1808
31
0.0
0
LINE
8
CURVE
10
388.9134
20
50.1808
30
0.0
11
394.1444
21
50.4092
31
0.0
0
LINE
8
CURVE
10
394.1444
20
50.4092
30
0.0
11
399.3705
21
50.7288
31
0.0
0
LINE
8
CURVE
10
399.3705
20
50.7288
30
0.0
11
404.5903
21
51.1396
31
0.0
0
LINE
8
CURVE
10
404.5903
20
51.1396
30
0.0
11
409.8021
21
51.6415
31
0.0
0
LINE
8
CURVE
10
409.8021
20
51.6415
30
0.0
11
415.0044
21
52.2342
31
0.0
0
LINE
8
CURVE
10
415.0044
20
52.2342
30
0.0
11
420.1955
21
52.9176
31
0.0
0
LINE
8
CURVE
10
420.1955
20
52.9176
30
0.0
11
425.3739
21
53.6915
31
0.0
0
LINE
8
CURVE
10
425.3739
20
53.6915
30
0.0
11
430.5381
21
54.5557
31
0.0
0
LINE
8
CURVE
10
430.5381
20
54.5557
30
0.0
11
435.6863
21
55.5099
31
0.0
0
LINE
8
CURVE
10
435.6863
20
55.5099
30
0.0
11
440.8171
21
56.5538
31
0.0
0
LINE
8
CURVE
10
440.8171
20
56.5538
30
0.0
11
445.9289
21
57.6870
31
0.0
0
LINE
8
CURVE
10
445.9289
20
57.6870
30
0.0
11
451.0202
21
58.9093
31
0.0
0
LINE
8
CURVE
10
451.0202
20
58.9093
30
0.0
11
456.0893
21
60.2203
31
0.0
0
LINE
8
CURVE
10
456.0893
20
60.2203
30
0.0
11
461.1348
21
61.6195
31
0.0
0
LINE
8
CURVE
10
461.1348
20
61.6195
30
0.0
11
466.1551
21
63.1066
31
0.0
0
LINE
8
CURVE
10
466.1551
20
63.1066
30
0.0
11
471.1487
21
64.6811
31
0.0
0
LINE
8
CURVE
10
471.1487
20
64.6811
30
0.0
11
476.1140
21
66.3425
31
0.0
0
LINE
8
CURVE
10
476.1140
20
66.3425
30
0.0
11
481.0496
21
68.0902
31
0.0
0
LINE
8
CURVE
10
481.0496
20
68.0902
30
0.0
11
485.9540
21
69.9239
31
0.0
0
LINE
8
CURVE
10
485.9540
20
69.9239
30
0.0
11
490.8256
21
71.8429
31
0.0
0
LINE
8
CURVE
10
490.8256
20
71.8429
30
0.0
11
495.6629
21
73.8466
31
0.0
0
LINE
8
CURVE
10
495.6629
20
73.8466
30
0.0
11
500.4646
21
75.9344
31
0.0
0
LINE
8
CURVE
10
500.4646
20
75.9344
30
0.0
11
505.2291
21
78.1057
31
0.0
0
LINE
8
CURVE
10
505.2291
20
78.1057
30
0.0
11
509.9549
21
80.3598
31
0.0
0
LINE
8
CURVE
10
509.9549
20
80.3598
30
0.0
11
514.6407
21
82.6961
31
0.0
0
LINE
8
CURVE
10
514.6407
20
82.6961
30
0.0
11
519.2851
21
85.1138
31
0.0
0
LINE
8
CURVE
10
519.2851
20
85.1138
30
0.0
11
523.8865
21
87.6121
31
0.0
0
LINE
8
CURVE
10
523.8865
20
87.6121
30
0.0
11
528.4436
21
90.1904
31
0.0
0
LINE
8
CURVE
10
528.4436
20
90.1904
30
0.0
11
532.9550
21
92.8478
31
0.0
0
LINE
8
CURVE
10
532.9550
20
92.8478
30
0.0
11
537.4194
21
95.5836
31
0.0
0
LINE
8
CURVE
10
537.4194
20
95.5836
30
0.0
11
541.8353
21
98.3969
31
0.0
0
LINE
8
CURVE
10
541.8353
20
98.3969
30
0.0
11
546.2015
21
101.2868
31
0.0
0
LINE
8
CURVE
10
546.2015
20
101.2868
30
0.0
11
550.5165
21
104.2524
31
0.0
0
LINE
8
CURVE
10
550.5165
20
104.2524
30
0.0
11
554.7792
21
107.2929
31
0.0
0
LINE
8
CURVE
10
554.7792
20
107.2929
30
0.0
11
558.9881
21
110.4074
31
0.0
0
LINE
8
CURVE
10
558.9881
20
110.4074
30
0.0
11
563.1420
21
113.5948
31
0.0
0
LINE
8
CURVE
10
563.1420
20
113.5948
30
0.0
11
567.2397
21
116.8542
31
0.0
0
LINE
8
CURVE
10
567.2397
20
116.8542
30
0.0
11
571.2799
21
120.1847
31
0.0
0
LINE
8
CURVE
10
571.2799
20
120.1847
30
0.0
11
575.2613
21
123.5852
31
0.0
0
LINE
8
CURVE
10
575.2613
20
123.5852
30
0.0
11
579.1828
21
127.0546
31
0.0
0
LINE
8
CURVE
10
579.1828
20
127.0546
30
0.0
11
583.0431
21
130.5919
31
0.0
0
LINE
8
CURVE
10
583.0431
20
130.5919
30
0.0
11
586.8411
21
134.1961
31
0.0
0
LINE
8
CURVE
10
586.8411
20
134.1961
30
0.0
11
590.5756
21
137.8660
31
0.0
0
LINE
8
CURVE
10
590.5756
20
137.8660
30
0.0
11
594.2455
21
141.6005
31
0.0
0
LINE
8
CURVE
10
594.2455
20
141.6005
30
0.0
11
597.8497
21
145.3985
31
0.0
0
LINE
8
CURVE
10
597.8497
20
145.3985
30
0.0
11
601.3870
21
149.2589
31
0.0
0
LINE
8
CURVE_RADIAL
10
378.4436
20
49.9980
30
0.0
11
378.4436
21
349.9980
31
0.0
0
LINE
8
CURVE_RADIAL
10
601.3870
20
149.2589
30
0.0
11
378.4436
21
349.9980
31
0.0
0
POINT
8
CURVE_RADIAL
10
378.4436
20
349.9980
30
0.0
0
TEXT
8
CURVE_RADIAL
10
378.4436
20
357.9980
30
0.0
40
8
1
R.P.  C1
50
0.0
0
TEXT
8
CONTROL
10
378.4436
20
37.9980
30
0.0
40
9
1
P.C.
50
0.0
0
TEXT
8
CONTROL
10
601.3870
20
159.2589
30
0.0
40
9
1
P.T.
50
0.0
0
LINE
8
ROW_STREET
10
601.3870
20
149.2589
30
0.0
11
701.7566
21
260.7306
31
0.0
0
TEXT
8
ROW_STREET
10
651.5718
20
214.9947
30
0.0
40
10
1
CARROLL DRIVE  N42°00'00.00"E
50
48.0
0
TEXT
8
CURVE_TABLE
10
1491.8900
20
420.0000
30
0.0
40
11
1
CURVE TABLE
50
0.0
0
TEXT
8
CURVE_TABLE
10
1491.8900
20
398.0000
30
0.0
40
9
1
CURVE   RADIUS    DELTA      LENGTH    CHORD     TANGENT   CHORD BEARING
50
0.0
0
TEXT
8
CURVE_TABLE
10
1491.8900
20
376.0000
30
0.0
40
9
1
C1       300.00   48°00'00"    251.33    244.04    133.57   N66°00'00.00"E
50
0.0
0
TEXT
8
CURVE_TABLE
10
1491.8900
20
354.0000
30
0.0
40
9
1

50
0.0
0
TEXT
8
CURVE_TABLE
10
1491.8900
20
332.0000
30
0.0
40
9
1
R and DELTA were READ from the plat; LENGTH, CHORD and TANGENT are
50
0.0
0
TEXT
8
CURVE_TABLE
10
1491.8900
20
310.0000
30
0.0
40
9
1
DERIVED (engine/solver.py, Iter 12). Tangent-out computes to N42°00'E,
50
0.0
0
TEXT
8
CURVE_TABLE
10
1491.8900
20
288.0000
30
0.0
40
9
1
matching the Carroll Drive bearing lettered on the sheet.
50
0.0
0
TEXT
8
TITLEBLOCK
10
-120.0000
20
717.0069
30
0.0
40
13
1
BROOKLYN LAKE ESTATES -- PLAT BOOK 4, PAGE 39, CLAY COUNTY, FLORIDA
50
0.0
0
TEXT
8
TITLEBLOCK
10
-120.0000
20
693.0069
30
0.0
40
9
1
Re-subdivision in Sec 17, T8S, R23E  |  Scale 1" = 100'
50
0.0
0
TEXT
8
TITLEBLOCK
10
-120.0000
20
669.0069
30
0.0
40
9
1

50
0.0
0
TEXT
8
TITLEBLOCK
10
-120.0000
20
645.0069
30
0.0
40
9
1
BEARING BASIS (per caption): bearings are ASSUMED, based on the Southerly
50
0.0
0
TEXT
8
TITLEBLOCK
10
-120.0000
20
621.0069
30
0.0
40
9
1
boundary line of the NW1/4 of the SW1/4 of Sec 17 having a bearing of 'East'.
50
0.0
0
TEXT
8
TITLEBLOCK
10
-120.0000
20
597.0069
30
0.0
40
9
1
NOT grid bearings -- do not treat as State Plane.
50
0.0
0
TEXT
8
TITLEBLOCK
10
-120.0000
20
573.0069
30
0.0
40
9
1

50
0.0
0
TEXT
8
TITLEBLOCK
10
-120.0000
20
549.0069
30
0.0
40
9
1
CAPTION BOUNDARY -- distances taken from the SPELLED-OUT word form:
50
0.0
0
TEXT
8
TITLEBLOCK
10
-120.0000
20
525.0069
30
0.0
40
9
1
   N90°00'00"E   1791.89'   [seventeen hundred ninety-one and eighty-nine hundredths]
50
0.0
0
TEXT
8
TITLEBLOCK
10
-120.0000
20
501.0069
30
0.0
40
9
1
        East, S line NW1/4 & NE1/4 of SW1/4
50
0.0
0
TEXT
8
TITLEBLOCK
10
-120.0000
20
477.0069
30
0.0
40
9
1
   N38°50'30"E    348.67'   [three hundred forty-eight and sixty-seven hundredths]
50
0.0
0
TEXT
8
TITLEBLOCK
10
-120.0000
20
453.0069
30
0.0
40
9
1
        NW'ly R/W line State Road No. 21
50
0.0
0
TEXT
8
TITLEBLOCK
10
-120.0000
20
429.0069
30
0.0
40
9
1
   N51°09'30"W    200.00'   [two hundred]
50
0.0
0
TEXT
8
TITLEBLOCK
10
-120.0000
20
405.0069
30
0.0
40
9
1
        SW'ly bdy of Farnham lands (DB 40 P 253)
50
0.0
0
TEXT
8
TITLEBLOCK
10
-120.0000
20
381.0069
30
0.0
40
9
1
   N38°50'30"E    400.00'   [four hundred (more or less)]
50
0.0
0
TEXT
8
TITLEBLOCK
10
-120.0000
20
357.0069
30
0.0
40
9
1
        NW'ly bdy of Farnham lands, to Lake Brooklyn
50
0.0
0
TEXT
8
TITLEBLOCK
10
-120.0000
20
333.0069
30
0.0
40
9
1
   MEANDER along Lake Brooklyn, shore distance 3600'± (chord 2142.32', sinuosity 1.68)
50
0.0
0
TEXT
8
TITLEBLOCK
10
-120.0000
20
309.0069
30
0.0
40
9
1
   S00°30'30"W  300'±   W line Sec 17 / N prolongation
50
0.0
0
TEXT
8
TITLEBLOCK
10
-120.0000
20
285.0069
30
0.0
40
9
1

50
0.0
0
TEXT
8
TITLEBLOCK
10
-120.0000
20
261.0069
30
0.0
40
9
1
CHECKS: Farnham lands corner = exactly 90°00'00" (N38°50'30"E vs N51°09'30"W).
50
0.0
0
TEXT
8
TITLEBLOCK
10
-120.0000
20
237.0069
30
0.0
40
9
1
        Curve tangent-out N42°00'E matches the drawn Carroll Drive bearing.
50
0.0
0
TEXT
8
TITLEBLOCK
10
-120.0000
20
213.0069
30
0.0
40
9
1
        Lot closures 0.04-0.27 ft (lake front is a COMPUTED closing meander).
50
0.0
0
TEXT
8
TITLEBLOCK
10
-120.0000
20
189.0069
30
0.0
40
9
1

50
0.0
0
TEXT
8
TITLEBLOCK
10
-120.0000
20
165.0069
30
0.0
40
9
1
The meander is drawn DASHED on its own layer: it is a closing line only and
50
0.0
0
TEXT
8
TITLEBLOCK
10
-120.0000
20
141.0069
30
0.0
40
9
1
does NOT represent the true lake-front boundary (plat note).
50
0.0
0
ENDSEC
0
EOF
