0
SECTION
2
HEADER
9
$ACADVER
1
AC1009
9
$DWGCODEPAGE
3
ANSI_1252
0
ENDSEC
0
SECTION
2
TABLES
0
TABLE
2
LTYPE
70
6
0
LTYPE
2
CONTINUOUS
70
0
3
Solid
72
65
73
0
40
0.0
0
LTYPE
2
DASHED
70
0
3
Dashed
72
65
73
2
40
0.75
49
0.5
74
0
49
-0.25
74
0
0
LTYPE
2
DASHED2
70
0
3
Dashed (.5x)
72
65
73
2
40
0.375
49
0.25
74
0
49
-0.125
74
0
0
LTYPE
2
HIDDEN
70
0
3
Hidden
72
65
73
2
40
0.375
49
0.25
74
0
49
-0.125
74
0
0
LTYPE
2
CENTER
70
0
3
Center
72
65
73
4
40
2.0
49
1.25
74
0
49
-0.25
74
0
49
0.25
74
0
49
-0.25
74
0
0
LTYPE
2
PHANTOM
70
0
3
Phantom
72
65
73
6
40
2.5
49
1.25
74
0
49
-0.25
74
0
49
0.25
74
0
49
-0.25
74
0
49
0.25
74
0
49
-0.25
74
0
0
ENDTAB
0
TABLE
2
LAYER
70
10
0
LAYER
2
0
70
0
62
7
6
CONTINUOUS
0
LAYER
2
C-ROAD-CNTR
70
0
62
2
6
DASHED
0
LAYER
2
C-ROAD-CURV
70
0
62
6
6
CONTINUOUS
0
LAYER
2
C-ROAD-INTX
70
0
62
4
6
CONTINUOUS
0
LAYER
2
C-ROAD-ASSUMP
70
0
62
1
6
DASHED
0
LAYER
2
C-ROAD-ASSUMP-INTX
70
0
62
1
6
CONTINUOUS
0
LAYER
2
C-ROAD-TEXT
70
0
62
7
6
CONTINUOUS
0
LAYER
2
C-ROAD-ASSUMP-TEXT
70
0
62
1
6
CONTINUOUS
0
LAYER
2
CONTROL
70
0
62
1
6
CONTINUOUS
0
LAYER
2
TITLEBLOCK
70
0
62
2
6
CONTINUOUS
0
ENDTAB
0
TABLE
2
STYLE
70
4
0
STYLE
2
STANDARD
70
0
40
0.0
41
1.0
50
0.0
71
0
42
0.2
3
Arial
4

0
STYLE
2
ARIAL
70
0
40
0.0
41
1.0
50
0.0
71
0
42
0.2
3
Arial
4

0
STYLE
2
ARIAL_TTF
70
0
40
0.0
41
1.0
50
0.0
71
0
42
0.2
3
arial.ttf
4

0
STYLE
2
SIMPLEX
70
0
40
0.0
41
1.0
50
0.0
71
0
42
0.2
3
simplex.shx
4

0
ENDTAB
0
ENDSEC
0
SECTION
2
ENTITIES
0
LINE
8
C-ROAD-CNTR
10
10000.0000
20
10000.0000
30
0.0
11
9992.4362
21
10179.8410
31
0.0
0
TEXT
8
C-ROAD-TEXT
7
STANDARD
10
9996.2181
20
10094.9205
30
0.0
40
4.5
1
Mangrove Avenue [N02%%d24'30"W - 180.00']
50
0.0
72
1
11
9996.2181
21
10094.9205
31
0.0
73
2
0
LINE
8
C-ROAD-CNTR
10
10000.0000
20
10000.0000
30
0.0
11
10010.9255
21
9740.2297
31
0.0
0
TEXT
8
C-ROAD-TEXT
7
STANDARD
10
10005.4627
20
9875.1148
30
0.0
40
4.5
1
Mangrove Avenue [S02%%d24'30"E - 260.00']
50
0.0
72
1
11
10005.4627
21
9875.1148
31
0.0
73
2
0
LINE
8
C-ROAD-CNTR
10
10010.9255
20
9740.2297
30
0.0
11
10021.8509
21
9480.4593
31
0.0
0
TEXT
8
C-ROAD-TEXT
7
STANDARD
10
10016.3882
20
9615.3445
30
0.0
40
4.5
1
Mangrove Avenue [S02%%d24'30"E - 260.00']
50
0.0
72
1
11
10016.3882
21
9615.3445
31
0.0
73
2
0
LINE
8
C-ROAD-CNTR
10
10021.8509
20
9480.4593
30
0.0
11
10023.1325
21
9449.9862
31
0.0
0
TEXT
8
C-ROAD-TEXT
7
STANDARD
10
10022.4917
20
9470.2228
30
0.0
40
4.5
1
Mangrove Avenue [S02%%d24'30"E - 30.50']
50
0.0
72
1
11
10022.4917
21
9470.2228
31
0.0
73
2
0
LINE
8
C-ROAD-CNTR
10
10023.1325
20
9449.9862
30
0.0
11
10043.6211
21
8307.9300
31
0.0
0
TEXT
8
C-ROAD-TEXT
7
STANDARD
10
10033.3768
20
8883.9581
30
0.0
40
4.5
1
Mangrove Avenue [S01%%d01'40"E - 1142.24']
50
0.0
72
1
11
10033.3768
21
8883.9581
31
0.0
73
2
0
LINE
8
C-ROAD-CNTR
10
10043.6211
20
8307.9300
30
0.0
11
10047.7466
21
8077.9670
31
0.0
0
TEXT
8
C-ROAD-TEXT
7
STANDARD
10
10045.6838
20
8197.9485
30
0.0
40
4.5
1
Mangrove Avenue [S01%%d01'40"E - 230.00']
50
0.0
72
1
11
10045.6838
21
8197.9485
31
0.0
73
2
0
LINE
8
C-ROAD-CNTR
10
10047.7466
20
8077.9670
30
0.0
11
10050.0784
21
7947.9879
31
0.0
0
TEXT
8
C-ROAD-TEXT
7
STANDARD
10
10048.9125
20
8017.9775
30
0.0
40
4.5
1
Mangrove Avenue [S01%%d01'40"E - 130.00']
50
0.0
72
1
11
10048.9125
21
8017.9775
31
0.0
73
2
0
LINE
8
C-ROAD-CNTR
10
9917.7562
20
8076.3914
30
0.0
11
10047.7466
21
8077.9670
31
0.0
0
TEXT
8
C-ROAD-TEXT
7
STANDARD
10
9982.7514
20
8082.1792
30
0.0
40
4.5
1
Surfwood Avenue [N89%%d18'20"E - 130.00']
50
0.0
72
1
11
9982.7514
21
8082.1792
31
0.0
73
2
0
LINE
8
C-ROAD-CNTR
10
10047.7466
20
8077.9670
30
0.0
11
10445.7274
21
8082.7909
31
0.0
0
TEXT
8
C-ROAD-TEXT
7
STANDARD
10
10246.7370
20
8085.3790
30
0.0
40
4.5
1
Surfwood Avenue [N89%%d18'20"E - 398.01']
50
0.0
72
1
11
10246.7370
21
8085.3790
31
0.0
73
2
0
LINE
8
C-ROAD-CNTR
10
9784.1083
20
8714.1610
30
0.0
11
10314.5613
21
8338.5021
31
0.0
0
TEXT
8
C-ROAD-TEXT
7
STANDARD
10
10049.3348
20
8531.3316
30
0.0
40
4.5
1
San Salvadore Avenue [S54%%d41'40"E - 650.00']
50
0.0
72
1
11
10049.3348
21
8531.3316
31
0.0
73
2
0
LINE
8
C-ROAD-ASSUMP
10
10493.2997
20
8283.3822
30
0.0
11
10445.7274
21
8082.7909
31
0.0
0
TEXT
8
C-ROAD-ASSUMP-TEXT
7
STANDARD
10
10469.5135
20
8188.0866
30
0.0
40
4.5
1
San Salvadore - Surfwood Transition Tie [S23%%d14'20"W - 206.16'] (ASSUMED)
50
0.0
72
1
11
10469.5135
21
8188.0866
31
0.0
73
2
0
LINE
8
C-ROAD-CNTR
10
9934.3719
20
8926.3422
30
0.0
11
10587.2371
21
8463.9928
31
0.0
0
TEXT
8
C-ROAD-TEXT
7
STANDARD
10
10260.8045
20
8700.1675
30
0.0
40
4.5
1
Cape Horn Avenue [S54%%d41'40"E - 800.00']
50
0.0
72
1
11
10260.8045
21
8700.1675
31
0.0
73
2
0
LINE
8
C-ROAD-CNTR
10
9870.1148
20
9994.5373
30
0.0
11
10000.0000
21
10000.0000
31
0.0
0
TEXT
8
C-ROAD-TEXT
7
STANDARD
10
9935.0574
20
10002.2686
30
0.0
40
4.5
1
Starfish Avenue [N87%%d35'30"E - 130.00']
50
0.0
72
1
11
9935.0574
21
10002.2686
31
0.0
73
2
0
LINE
8
C-ROAD-CNTR
10
10000.0000
20
10000.0000
30
0.0
11
11452.2162
21
10061.0775
31
0.0
0
TEXT
8
C-ROAD-TEXT
7
STANDARD
10
10726.1081
20
10035.5387
30
0.0
40
4.5
1
Starfish Avenue [N87%%d35'30"E - 1453.50']
50
0.0
72
1
11
10726.1081
21
10035.5387
31
0.0
73
2
0
LINE
8
C-ROAD-CNTR
10
9881.0403
20
9734.7669
30
0.0
11
10010.9255
21
9740.2297
31
0.0
0
TEXT
8
C-ROAD-TEXT
7
STANDARD
10
9945.9829
20
9742.4983
30
0.0
40
4.5
1
Sail Avenue [N87%%d35'30"E - 130.00']
50
0.0
72
1
11
9945.9829
21
9742.4983
31
0.0
73
2
0
LINE
8
C-ROAD-CNTR
10
10010.9255
20
9740.2297
30
0.0
11
11463.1416
21
9801.3071
31
0.0
0
TEXT
8
C-ROAD-TEXT
7
STANDARD
10
10737.0335
20
9775.7684
30
0.0
40
4.5
1
Sail Avenue [N87%%d35'30"E - 1453.50']
50
0.0
72
1
11
10737.0335
21
9775.7684
31
0.0
73
2
0
LINE
8
C-ROAD-CNTR
10
9891.9657
20
9474.9966
30
0.0
11
10021.8509
21
9480.4593
31
0.0
0
TEXT
8
C-ROAD-TEXT
7
STANDARD
10
9956.9083
20
9482.7279
30
0.0
40
4.5
1
South Street [N87%%d35'30"E - 130.00']
50
0.0
72
1
11
9956.9083
21
9482.7279
31
0.0
73
2
0
LINE
8
C-ROAD-CNTR
10
10021.8509
20
9480.4593
30
0.0
11
10279.8828
21
9491.3116
31
0.0
0
TEXT
8
C-ROAD-TEXT
7
STANDARD
10
10150.8668
20
9490.8855
30
0.0
40
4.5
1
South Street [N87%%d35'30"E - 258.26']
50
0.0
72
1
11
10150.8668
21
9490.8855
31
0.0
73
2
0
LINE
8
C-ROAD-CNTR
10
10539.8129
20
9414.5717
30
0.0
11
10700.3939
21
9279.2435
31
0.0
0
TEXT
8
C-ROAD-TEXT
7
STANDARD
10
10620.1034
20
9351.9076
30
0.0
40
4.5
1
Marina Avenue [S49%%d52'40"E - 210.00']
50
0.0
72
1
11
10620.1034
21
9351.9076
31
0.0
73
2
0
LINE
8
C-ROAD-CNTR
10
10700.3939
20
9279.2435
30
0.0
11
10480.7779
21
8969.1325
31
0.0
0
TEXT
8
C-ROAD-TEXT
7
STANDARD
10
10590.5859
20
9129.1880
30
0.0
40
4.5
1
Keel Drive [S35%%d18'20"W - 380.00']
50
0.0
72
1
11
10590.5859
21
9129.1880
31
0.0
73
2
0
LINE
8
C-ROAD-ASSUMP
10
11463.1416
20
9801.3071
30
0.0
11
11514.8749
21
9455.1516
31
0.0
0
TEXT
8
C-ROAD-ASSUMP-TEXT
7
STANDARD
10
11489.0083
20
9633.2294
30
0.0
40
4.5
1
Beachwood Boulevard South Projection [S08%%d30'00"E - 350.00'] (ASSUMED)
50
0.0
72
1
11
11489.0083
21
9633.2294
31
0.0
73
2
0
LINE
8
C-ROAD-ASSUMP
10
11265.0957
20
9444.6463
30
0.0
11
11514.8749
21
9455.1516
31
0.0
0
TEXT
8
C-ROAD-ASSUMP-TEXT
7
STANDARD
10
11389.9853
20
9454.8990
30
0.0
40
4.5
1
Sands Avenue [N87%%d35'30"E - 250.00'] (ASSUMED)
50
0.0
72
1
11
11389.9853
21
9454.8990
31
0.0
73
2
0
POLYLINE
8
C-ROAD-CURV
66
1
70
0
0
VERTEX
8
C-ROAD-CURV
10
10314.5613
20
8338.5021
30
0.0
0
VERTEX
8
C-ROAD-CURV
10
10308.1546
20
8343.1676
30
0.0
0
VERTEX
8
C-ROAD-CURV
10
10301.8734
20
8348.0006
30
0.0
0
VERTEX
8
C-ROAD-CURV
10
10295.7221
20
8352.9980
30
0.0
0
VERTEX
8
C-ROAD-CURV
10
10289.7049
20
8358.1561
30
0.0
0
VERTEX
8
C-ROAD-CURV
10
10283.8261
20
8363.4713
30
0.0
0
VERTEX
8
C-ROAD-CURV
10
10278.0898
20
8368.9400
30
0.0
0
VERTEX
8
C-ROAD-CURV
10
10272.5000
20
8374.5584
30
0.0
0
VERTEX
8
C-ROAD-CURV
10
10267.0605
20
8380.3225
30
0.0
0
VERTEX
8
C-ROAD-CURV
10
10261.7753
20
8386.2283
30
0.0
0
VERTEX
8
C-ROAD-CURV
10
10256.6479
20
8392.2716
30
0.0
0
VERTEX
8
C-ROAD-CURV
10
10251.6819
20
8398.4483
30
0.0
0
VERTEX
8
C-ROAD-CURV
10
10246.8809
20
8404.7540
30
0.0
0
VERTEX
8
C-ROAD-CURV
10
10242.2481
20
8411.1844
30
0.0
0
VERTEX
8
C-ROAD-CURV
10
10237.7869
20
8417.7350
30
0.0
0
VERTEX
8
C-ROAD-CURV
10
10233.5002
20
8424.4011
30
0.0
0
VERTEX
8
C-ROAD-CURV
10
10229.3912
20
8431.1781
30
0.0
0
VERTEX
8
C-ROAD-CURV
10
10225.4626
20
8438.0613
30
0.0
0
VERTEX
8
C-ROAD-CURV
10
10221.7173
20
8445.0459
30
0.0
0
VERTEX
8
C-ROAD-CURV
10
10218.1578
20
8452.1270
30
0.0
0
VERTEX
8
C-ROAD-CURV
10
10214.7866
20
8459.2997
30
0.0
0
VERTEX
8
C-ROAD-CURV
10
10211.6061
20
8466.5590
30
0.0
0
VERTEX
8
C-ROAD-CURV
10
10208.6185
20
8473.8997
30
0.0
0
VERTEX
8
C-ROAD-CURV
10
10205.8259
20
8481.3168
30
0.0
0
VERTEX
8
C-ROAD-CURV
10
10203.2302
20
8488.8051
30
0.0
0
SEQEND
0
TEXT
8
C-ROAD-TEXT
7
STANDARD
10
10246.8809
20
8412.7540
30
0.0
40
5.0
1
San Salvadore Avenue CURVE: R=299.96', L=190.22', Delta=36.33%%d
50
0.0
72
1
11
10246.8809
21
8412.7540
31
0.0
73
2
0
POLYLINE
8
C-ROAD-CURV
66
1
70
0
0
VERTEX
8
C-ROAD-CURV
10
10279.8828
20
9491.3116
30
0.0
0
VERTEX
8
C-ROAD-CURV
10
10291.3769
20
9491.6372
30
0.0
0
VERTEX
8
C-ROAD-CURV
10
10302.8755
20
9491.6475
30
0.0
0
VERTEX
8
C-ROAD-CURV
10
10314.3701
20
9491.3425
30
0.0
0
VERTEX
8
C-ROAD-CURV
10
10325.8521
20
9490.7223
30
0.0
0
VERTEX
8
C-ROAD-CURV
10
10337.3127
20
9489.7875
30
0.0
0
VERTEX
8
C-ROAD-CURV
10
10348.7433
20
9488.5388
30
0.0
0
VERTEX
8
C-ROAD-CURV
10
10360.1355
20
9486.9771
30
0.0
0
VERTEX
8
C-ROAD-CURV
10
10371.4805
20
9485.1036
30
0.0
0
VERTEX
8
C-ROAD-CURV
10
10382.7699
20
9482.9196
30
0.0
0
VERTEX
8
C-ROAD-CURV
10
10393.9951
20
9480.4269
30
0.0
0
VERTEX
8
C-ROAD-CURV
10
10405.1477
20
9477.6273
30
0.0
0
VERTEX
8
C-ROAD-CURV
10
10416.2194
20
9474.5230
30
0.0
0
VERTEX
8
C-ROAD-CURV
10
10427.2018
20
9471.1161
30
0.0
0
VERTEX
8
C-ROAD-CURV
10
10438.0867
20
9467.4094
30
0.0
0
VERTEX
8
C-ROAD-CURV
10
10448.8658
20
9463.4056
30
0.0
0
VERTEX
8
C-ROAD-CURV
10
10459.5310
20
9459.1077
30
0.0
0
VERTEX
8
C-ROAD-CURV
10
10470.0744
20
9454.5189
30
0.0
0
VERTEX
8
C-ROAD-CURV
10
10480.4879
20
9449.6428
30
0.0
0
VERTEX
8
C-ROAD-CURV
10
10490.7639
20
9444.4829
30
0.0
0
VERTEX
8
C-ROAD-CURV
10
10500.8945
20
9439.0431
30
0.0
0
VERTEX
8
C-ROAD-CURV
10
10510.8720
20
9433.3276
30
0.0
0
VERTEX
8
C-ROAD-CURV
10
10520.6891
20
9427.3406
30
0.0
0
VERTEX
8
C-ROAD-CURV
10
10530.3384
20
9421.0867
30
0.0
0
VERTEX
8
C-ROAD-CURV
10
10539.8125
20
9414.5705
30
0.0
0
SEQEND
0
TEXT
8
C-ROAD-TEXT
7
STANDARD
10
10416.2194
20
9482.5230
30
0.0
40
5.0
1
Marina Avenue CURVE: R=419.27', L=275.98', Delta=37.71%%d
50
0.0
72
1
11
10416.2194
21
9482.5230
31
0.0
73
2
0
POLYLINE
8
C-ROAD-CURV
66
1
70
0
0
VERTEX
8
C-ROAD-CURV
10
11452.2162
20
10061.0775
30
0.0
0
VERTEX
8
C-ROAD-CURV
10
11452.6419
20
10050.2421
30
0.0
0
VERTEX
8
C-ROAD-CURV
10
11453.0076
20
10039.4045
30
0.0
0
VERTEX
8
C-ROAD-CURV
10
11453.3134
20
10028.5650
30
0.0
0
VERTEX
8
C-ROAD-CURV
10
11453.5591
20
10017.7240
30
0.0
0
VERTEX
8
C-ROAD-CURV
10
11453.7449
20
10006.8819
30
0.0
0
VERTEX
8
C-ROAD-CURV
10
11453.8708
20
9996.0388
30
0.0
0
VERTEX
8
C-ROAD-CURV
10
11453.9366
20
9985.1953
30
0.0
0
VERTEX
8
C-ROAD-CURV
10
11453.9424
20
9974.3515
30
0.0
0
VERTEX
8
C-ROAD-CURV
10
11453.8882
20
9963.5079
30
0.0
0
VERTEX
8
C-ROAD-CURV
10
11453.7740
20
9952.6647
30
0.0
0
VERTEX
8
C-ROAD-CURV
10
11453.5998
20
9941.8223
30
0.0
0
VERTEX
8
C-ROAD-CURV
10
11453.3657
20
9930.9811
30
0.0
0
VERTEX
8
C-ROAD-CURV
10
11453.0716
20
9920.1413
30
0.0
0
VERTEX
8
C-ROAD-CURV
10
11452.7174
20
9909.3033
30
0.0
0
VERTEX
8
C-ROAD-CURV
10
11452.3034
20
9898.4675
30
0.0
0
VERTEX
8
C-ROAD-CURV
10
11451.8294
20
9887.6341
30
0.0
0
VERTEX
8
C-ROAD-CURV
10
11451.2954
20
9876.8035
30
0.0
0
VERTEX
8
C-ROAD-CURV
10
11450.7015
20
9865.9760
30
0.0
0
VERTEX
8
C-ROAD-CURV
10
11450.0478
20
9855.1519
30
0.0
0
VERTEX
8
C-ROAD-CURV
10
11449.3341
20
9844.3317
30
0.0
0
VERTEX
8
C-ROAD-CURV
10
11448.5606
20
9833.5155
30
0.0
0
VERTEX
8
C-ROAD-CURV
10
11447.7273
20
9822.7038
30
0.0
0
VERTEX
8
C-ROAD-CURV
10
11446.8342
20
9811.8969
30
0.0
0
VERTEX
8
C-ROAD-CURV
10
11445.8813
20
9801.0951
30
0.0
0
SEQEND
0
TEXT
8
C-ROAD-TEXT
7
STANDARD
10
11453.3657
20
9938.9811
30
0.0
40
5.0
1
Beachwood Boulevard CURVE: R=1959.86', L=260.19', Delta=7.61%%d
50
0.0
72
1
11
11453.3657
21
9938.9811
31
0.0
73
2
0
POINT
8
C-ROAD-INTX
10
10000.0000
20
10000.0000
30
0.0
0
LINE
8
C-ROAD-INTX
10
10000.0000
20
9997.0000
30
0.0
11
10000.0000
21
10003.0000
31
0.0
0
LINE
8
C-ROAD-INTX
10
9997.0000
20
10000.0000
30
0.0
11
10003.0000
21
10000.0000
31
0.0
0
TEXT
8
C-ROAD-TEXT
7
STANDARD
10
10000.0000
20
9992.0000
30
0.0
40
4.0
1
Starfish Ave & Mangrove Ave (10000.0, 10000.0)
50
0.0
72
1
11
10000.0000
21
9992.0000
31
0.0
73
2
0
POINT
8
C-ROAD-INTX
10
9992.4362
20
10179.8410
30
0.0
0
LINE
8
C-ROAD-INTX
10
9992.4362
20
10176.8410
30
0.0
11
9992.4362
21
10182.8410
31
0.0
0
LINE
8
C-ROAD-INTX
10
9989.4362
20
10179.8410
30
0.0
11
9995.4362
21
10179.8410
31
0.0
0
TEXT
8
C-ROAD-TEXT
7
STANDARD
10
9992.4362
20
10171.8410
30
0.0
40
4.0
1
Mangrove Ave & Sec 32 North Line (Subdivision Limit) (10179.8, 9992.4)
50
0.0
72
1
11
9992.4362
21
10171.8410
31
0.0
73
2
0
POINT
8
C-ROAD-INTX
10
10010.9255
20
9740.2297
30
0.0
0
LINE
8
C-ROAD-INTX
10
10010.9255
20
9737.2297
30
0.0
11
10010.9255
21
9743.2297
31
0.0
0
LINE
8
C-ROAD-INTX
10
10007.9255
20
9740.2297
30
0.0
11
10013.9255
21
9740.2297
31
0.0
0
TEXT
8
C-ROAD-TEXT
7
STANDARD
10
10010.9255
20
9732.2297
30
0.0
40
4.0
1
Sail Ave & Mangrove Ave (9740.2, 10010.9)
50
0.0
72
1
11
10010.9255
21
9732.2297
31
0.0
73
2
0
POINT
8
C-ROAD-INTX
10
10021.8509
20
9480.4593
30
0.0
0
LINE
8
C-ROAD-INTX
10
10021.8509
20
9477.4593
30
0.0
11
10021.8509
21
9483.4593
31
0.0
0
LINE
8
C-ROAD-INTX
10
10018.8509
20
9480.4593
30
0.0
11
10024.8509
21
9480.4593
31
0.0
0
TEXT
8
C-ROAD-TEXT
7
STANDARD
10
10021.8509
20
9472.4593
30
0.0
40
4.0
1
South St & Mangrove Ave (9480.5, 10021.9)
50
0.0
72
1
11
10021.8509
21
9472.4593
31
0.0
73
2
0
POINT
8
C-ROAD-INTX
10
10023.1325
20
9449.9862
30
0.0
0
LINE
8
C-ROAD-INTX
10
10023.1325
20
9446.9862
30
0.0
11
10023.1325
21
9452.9862
31
0.0
0
LINE
8
C-ROAD-INTX
10
10020.1325
20
9449.9862
30
0.0
11
10026.1325
21
9449.9862
31
0.0
0
TEXT
8
C-ROAD-TEXT
7
STANDARD
10
10023.1325
20
9441.9862
30
0.0
40
4.0
1
Mangrove Ave Deflection Point (N-Leg to S-Leg) (9450.0, 10023.1)
50
0.0
72
1
11
10023.1325
21
9441.9862
31
0.0
73
2
0
POINT
8
C-ROAD-INTX
10
10047.7466
20
8077.9670
30
0.0
0
LINE
8
C-ROAD-INTX
10
10047.7466
20
8074.9670
30
0.0
11
10047.7466
21
8080.9670
31
0.0
0
LINE
8
C-ROAD-INTX
10
10044.7466
20
8077.9670
30
0.0
11
10050.7466
21
8077.9670
31
0.0
0
TEXT
8
C-ROAD-TEXT
7
STANDARD
10
10047.7466
20
8069.9670
30
0.0
40
4.0
1
Surfwood Ave & Mangrove Ave (8078.0, 10047.7)
50
0.0
72
1
11
10047.7466
21
8069.9670
31
0.0
73
2
0
POINT
8
C-ROAD-INTX
10
10043.6211
20
8307.9300
30
0.0
0
LINE
8
C-ROAD-INTX
10
10043.6211
20
8304.9300
30
0.0
11
10043.6211
21
8310.9300
31
0.0
0
LINE
8
C-ROAD-INTX
10
10040.6211
20
8307.9300
30
0.0
11
10046.6211
21
8307.9300
31
0.0
0
TEXT
8
C-ROAD-TEXT
7
STANDARD
10
10043.6211
20
8299.9300
30
0.0
40
4.0
1
Bayou Ave & Mangrove Ave (8307.9, 10043.6)
50
0.0
72
1
11
10043.6211
21
8299.9300
31
0.0
73
2
0
POINT
8
C-ROAD-INTX
10
10050.0784
20
7947.9879
30
0.0
0
LINE
8
C-ROAD-INTX
10
10050.0784
20
7944.9879
30
0.0
11
10050.0784
21
7950.9879
31
0.0
0
LINE
8
C-ROAD-INTX
10
10047.0784
20
7947.9879
30
0.0
11
10053.0784
21
7947.9879
31
0.0
0
TEXT
8
C-ROAD-TEXT
7
STANDARD
10
10050.0784
20
7939.9879
30
0.0
40
4.0
1
Mangrove Ave & Plat South Limit (7948.0, 10050.1)
50
0.0
72
1
11
10050.0784
21
7939.9879
31
0.0
73
2
0
POINT
8
C-ROAD-INTX
10
10445.7274
20
8082.7909
30
0.0
0
LINE
8
C-ROAD-INTX
10
10445.7274
20
8079.7909
30
0.0
11
10445.7274
21
8085.7909
31
0.0
0
LINE
8
C-ROAD-INTX
10
10442.7274
20
8082.7909
30
0.0
11
10448.7274
21
8082.7909
31
0.0
0
TEXT
8
C-ROAD-TEXT
7
STANDARD
10
10445.7274
20
8074.7909
30
0.0
40
4.0
1
Surfwood Ave & Unit One Matchline (8082.8, 10445.7)
50
0.0
72
1
11
10445.7274
21
8074.7909
31
0.0
73
2
0
POINT
8
C-ROAD-INTX
10
10314.5613
20
8338.5021
30
0.0
0
LINE
8
C-ROAD-INTX
10
10314.5613
20
8335.5021
30
0.0
11
10314.5613
21
8341.5021
31
0.0
0
LINE
8
C-ROAD-INTX
10
10311.5613
20
8338.5021
30
0.0
11
10317.5613
21
8338.5021
31
0.0
0
TEXT
8
C-ROAD-TEXT
7
STANDARD
10
10314.5613
20
8330.5021
30
0.0
40
4.0
1
San Salvadore Ave P.C. (Point of Curvature) (8338.5, 10314.6)
50
0.0
72
1
11
10314.5613
21
8330.5021
31
0.0
73
2
0
POINT
8
C-ROAD-INTX
10
10493.2997
20
8283.3822
30
0.0
0
LINE
8
C-ROAD-INTX
10
10493.2997
20
8280.3822
30
0.0
11
10493.2997
21
8286.3822
31
0.0
0
LINE
8
C-ROAD-INTX
10
10490.2997
20
8283.3822
30
0.0
11
10496.2997
21
8283.3822
31
0.0
0
TEXT
8
C-ROAD-TEXT
7
STANDARD
10
10493.2997
20
8275.3822
30
0.0
40
4.0
1
San Salvadore Ave P.T. (Point of Tangency) (8283.4, 10493.3)
50
0.0
72
1
11
10493.2997
21
8275.3822
31
0.0
73
2
0
POINT
8
C-ROAD-ASSUMP-INTX
10
10394.8870
20
8281.6167
30
0.0
0
LINE
8
C-ROAD-ASSUMP-INTX
10
10394.8870
20
8278.6167
30
0.0
11
10394.8870
21
8284.6167
31
0.0
0
LINE
8
C-ROAD-ASSUMP-INTX
10
10391.8870
20
8281.6167
30
0.0
11
10397.8870
21
8281.6167
31
0.0
0
TEXT
8
C-ROAD-ASSUMP-TEXT
7
STANDARD
10
10394.8870
20
8273.6167
30
0.0
40
4.0
1
Assumed P.I. Tie (San Salvadore to Surfwood) (8281.6, 10394.9)
50
0.0
72
1
11
10394.8870
21
8273.6167
31
0.0
73
2
0
POINT
8
C-ROAD-INTX
10
10587.2371
20
8463.9928
30
0.0
0
LINE
8
C-ROAD-INTX
10
10587.2371
20
8460.9928
30
0.0
11
10587.2371
21
8466.9928
31
0.0
0
LINE
8
C-ROAD-INTX
10
10584.2371
20
8463.9928
30
0.0
11
10590.2371
21
8463.9928
31
0.0
0
TEXT
8
C-ROAD-TEXT
7
STANDARD
10
10587.2371
20
8455.9928
30
0.0
40
4.0
1
Cape Horn Ave & Unit One Matchline (P.R.M. Monument) (8464.0, 10587.2)
50
0.0
72
1
11
10587.2371
21
8455.9928
31
0.0
73
2
0
POINT
8
C-ROAD-INTX
10
11452.2162
20
10061.0775
30
0.0
0
LINE
8
C-ROAD-INTX
10
11452.2162
20
10058.0775
30
0.0
11
11452.2162
21
10064.0775
31
0.0
0
LINE
8
C-ROAD-INTX
10
11449.2162
20
10061.0775
30
0.0
11
11455.2162
21
10061.0775
31
0.0
0
TEXT
8
C-ROAD-TEXT
7
STANDARD
10
11452.2162
20
10053.0775
30
0.0
40
4.0
1
Starfish Ave & Beachwood Blvd (10061.1, 11452.2)
50
0.0
72
1
11
11452.2162
21
10053.0775
31
0.0
73
2
0
POINT
8
C-ROAD-INTX
10
11463.1416
20
9801.3071
30
0.0
0
LINE
8
C-ROAD-INTX
10
11463.1416
20
9798.3071
30
0.0
11
11463.1416
21
9804.3071
31
0.0
0
LINE
8
C-ROAD-INTX
10
11460.1416
20
9801.3071
30
0.0
11
11466.1416
21
9801.3071
31
0.0
0
TEXT
8
C-ROAD-TEXT
7
STANDARD
10
11463.1416
20
9793.3071
30
0.0
40
4.0
1
Sail Ave & Beachwood Blvd (9801.3, 11463.1)
50
0.0
72
1
11
11463.1416
21
9793.3071
31
0.0
73
2
0
POINT
8
C-ROAD-INTX
10
10279.8828
20
9491.3116
30
0.0
0
LINE
8
C-ROAD-INTX
10
10279.8828
20
9488.3116
30
0.0
11
10279.8828
21
9494.3116
31
0.0
0
LINE
8
C-ROAD-INTX
10
10276.8828
20
9491.3116
30
0.0
11
10282.8828
21
9491.3116
31
0.0
0
TEXT
8
C-ROAD-TEXT
7
STANDARD
10
10279.8828
20
9483.3116
30
0.0
40
4.0
1
South St & Marina Ave P.C. (9491.3, 10279.9)
50
0.0
72
1
11
10279.8828
21
9483.3116
31
0.0
73
2
0
POINT
8
C-ROAD-INTX
10
10539.8129
20
9414.5717
30
0.0
0
LINE
8
C-ROAD-INTX
10
10539.8129
20
9411.5717
30
0.0
11
10539.8129
21
9417.5717
31
0.0
0
LINE
8
C-ROAD-INTX
10
10536.8129
20
9414.5717
30
0.0
11
10542.8129
21
9414.5717
31
0.0
0
TEXT
8
C-ROAD-TEXT
7
STANDARD
10
10539.8129
20
9406.5717
30
0.0
40
4.0
1
Marina Ave P.T. (Point of Tangency) (9414.6, 10539.8)
50
0.0
72
1
11
10539.8129
21
9406.5717
31
0.0
73
2
0
POINT
8
C-ROAD-INTX
10
10700.3939
20
9279.2435
30
0.0
0
LINE
8
C-ROAD-INTX
10
10700.3939
20
9276.2435
30
0.0
11
10700.3939
21
9282.2435
31
0.0
0
LINE
8
C-ROAD-INTX
10
10697.3939
20
9279.2435
30
0.0
11
10703.3939
21
9279.2435
31
0.0
0
TEXT
8
C-ROAD-TEXT
7
STANDARD
10
10700.3939
20
9271.2435
30
0.0
40
4.0
1
Marina Ave & Keel Drive (9279.2, 10700.4)
50
0.0
72
1
11
10700.3939
21
9271.2435
31
0.0
73
2
0
POINT
8
C-ROAD-INTX
10
10480.7779
20
8969.1325
30
0.0
0
LINE
8
C-ROAD-INTX
10
10480.7779
20
8966.1325
30
0.0
11
10480.7779
21
8972.1325
31
0.0
0
LINE
8
C-ROAD-INTX
10
10477.7779
20
8969.1325
30
0.0
11
10483.7779
21
8969.1325
31
0.0
0
TEXT
8
C-ROAD-TEXT
7
STANDARD
10
10480.7779
20
8961.1325
30
0.0
40
4.0
1
Keel Drive Southwest Terminus (8969.1, 10480.8)
50
0.0
72
1
11
10480.7779
21
8961.1325
31
0.0
73
2
0
POINT
8
C-ROAD-ASSUMP-INTX
10
11514.8749
20
9455.1516
30
0.0
0
LINE
8
C-ROAD-ASSUMP-INTX
10
11514.8749
20
9452.1516
30
0.0
11
11514.8749
21
9458.1516
31
0.0
0
LINE
8
C-ROAD-ASSUMP-INTX
10
11511.8749
20
9455.1516
30
0.0
11
11517.8749
21
9455.1516
31
0.0
0
TEXT
8
C-ROAD-ASSUMP-TEXT
7
STANDARD
10
11514.8749
20
9447.1516
30
0.0
40
4.0
1
Assumed Beachwood Blvd & Sands Ave Intersection (9455.2, 11514.9)
50
0.0
72
1
11
11514.8749
21
9447.1516
31
0.0
73
2
0
POINT
8
C-ROAD-ASSUMP-INTX
10
11265.0957
20
9444.6463
30
0.0
0
LINE
8
C-ROAD-ASSUMP-INTX
10
11265.0957
20
9441.6463
30
0.0
11
11265.0957
21
9447.6463
31
0.0
0
LINE
8
C-ROAD-ASSUMP-INTX
10
11262.0957
20
9444.6463
30
0.0
11
11268.0957
21
9444.6463
31
0.0
0
TEXT
8
C-ROAD-ASSUMP-TEXT
7
STANDARD
10
11265.0957
20
9436.6463
30
0.0
40
4.0
1
Assumed Sands Ave Curve P.C. (9444.6, 11265.1)
50
0.0
72
1
11
11265.0957
21
9436.6463
31
0.0
73
2
0
POINT
8
CONTROL
10
10000.0000
20
10000.0000
30
0.0
0
LINE
8
CONTROL
10
10000.0000
20
9994.0000
30
0.0
11
10000.0000
21
10006.0000
31
0.0
0
LINE
8
CONTROL
10
9994.0000
20
10000.0000
30
0.0
11
10006.0000
21
10000.0000
31
0.0
0
TEXT
8
CONTROL
7
STANDARD
10
10000.0000
20
10015.0000
30
0.0
40
6.0
1
GROUND GPS CONTROL TIE: 30.292130%%d N, -81.530280%%d W (NO FUDGING)
50
0.0
0
TEXT
8
TITLEBLOCK
7
STANDARD
10
10200.0000
20
10350.0000
30
0.0
40
10.0
1
BEACHWOOD UNIT TWO -- COMPLETE ROAD CENTERLINE NETWORK
50
0.0
0
TEXT
8
TITLEBLOCK
7
STANDARD
10
10200.0000
20
10332.0000
30
0.0
40
7.0
1
Plat Book 30, Pages 82 & 82A, Duval County, FL (Duval_Plat_Book_30_Page_82-2.pdf)
50
0.0
0
TEXT
8
TITLEBLOCK
7
STANDARD
10
10200.0000
20
10318.0000
30
0.0
40
6.0
1
SCALE: 1" = 100 FT | SURVEYOR ROAD CENTERLINES & RED-LINED ASSUMPTIONS
50
0.0
0
ENDSEC
0
EOF
