0
SECTION
2
HEADER
0
ENDSEC
0
SECTION
2
TABLES
0
TABLE
2
LTYPE
70
2
0
LTYPE
2
CONTINUOUS
70
0
3
Solid
72
65
73
0
40
0.0
0
LTYPE
2
DASHED
70
0
3
Dashed
72
65
73
2
40
0.75
49
0.5
74
0
49
-0.25
74
0
0
ENDTAB
0
TABLE
2
LAYER
70
8
0
LAYER
2
0
70
0
62
7
6
CONTINUOUS
0
LAYER
2
BOUNDARY
70
0
62
7
6
CONTINUOUS
0
LAYER
2
CHURCH_LOT
70
0
62
2
6
CONTINUOUS
0
LAYER
2
CEMETERY_PLOTS
70
0
62
4
6
CONTINUOUS
0
LAYER
2
DIMENSIONS
70
0
62
7
6
CONTINUOUS
0
LAYER
2
PLOT_NUMBERS
70
0
62
7
6
CONTINUOUS
0
LAYER
2
WATER_LAKE
70
0
62
5
6
CONTINUOUS
0
LAYER
2
CONTROL
70
0
62
1
6
CONTINUOUS
0
ENDTAB
0
ENDSEC
0
SECTION
2
ENTITIES
0
LINE
8
BOUNDARY
10
435000.0000
20
2075000.0000
30
0.0
11
435400.0000
21
2075000.0000
31
0.0
0
LINE
8
BOUNDARY
10
435400.0000
20
2075000.0000
30
0.0
11
435400.0000
21
2075200.0000
31
0.0
0
LINE
8
BOUNDARY
10
435400.0000
20
2075200.0000
30
0.0
11
435000.0000
21
2075200.0000
31
0.0
0
LINE
8
BOUNDARY
10
435000.0000
20
2075200.0000
30
0.0
11
435000.0000
21
2075000.0000
31
0.0
0
LINE
8
BOUNDARY
10
435000.0000
20
2075000.0000
30
0.0
11
435400.0000
21
2075000.0000
31
0.0
0
TEXT
8
DIMENSIONS
10
435200.0000
20
2074998.2000
30
0.0
40
5.0
1
DUE EAST
50
0.0
0
TEXT
8
DIMENSIONS
10
435200.0000
20
2075001.8000
30
0.0
40
4.6000000000000005
1
400.0'
50
0.0
0
LINE
8
BOUNDARY
10
435000.0000
20
2075002.5000
30
0.0
11
435000.0000
21
2074997.5000
31
0.0
0
LINE
8
BOUNDARY
10
435400.0000
20
2075002.5000
30
0.0
11
435400.0000
21
2074997.5000
31
0.0
0
LINE
8
BOUNDARY
10
435000.0000
20
2075000.0000
30
0.0
11
435000.0000
21
2075200.0000
31
0.0
0
TEXT
8
DIMENSIONS
10
435001.8000
20
2075100.0000
30
0.0
40
5.0
1
DUE NORTH
50
90.0
0
TEXT
8
DIMENSIONS
10
434998.2000
20
2075100.0000
30
0.0
40
4.6000000000000005
1
200.0'
50
90.0
0
LINE
8
BOUNDARY
10
434997.5000
20
2075000.0000
30
0.0
11
435002.5000
21
2075000.0000
31
0.0
0
LINE
8
BOUNDARY
10
434997.5000
20
2075200.0000
30
0.0
11
435002.5000
21
2075200.0000
31
0.0
0
LINE
8
CHURCH_LOT
10
435250.0000
20
2075000.0000
30
0.0
11
435250.0000
21
2075200.0000
31
0.0
0
TEXT
8
CHURCH_LOT
10
435325.0000
20
2075100.0000
30
0.0
40
10.0
1
CHURCH LOT
50
0.0
0
TEXT
8
DIMENSIONS
10
435325.0000
20
2075075.0000
30
0.0
40
6.0
1
(30,000 SQ FT)
50
0.0
0
POLYLINE
8
CEMETERY_PLOTS
66
1
70
1
0
VERTEX
8
CEMETERY_PLOTS
10
435025.0000
20
2075020.0000
30
0.0
0
VERTEX
8
CEMETERY_PLOTS
10
435050.0000
20
2075020.0000
30
0.0
0
VERTEX
8
CEMETERY_PLOTS
10
435050.0000
20
2075040.0000
30
0.0
0
VERTEX
8
CEMETERY_PLOTS
10
435025.0000
20
2075040.0000
30
0.0
0
SEQEND
0
TEXT
8
PLOT_NUMBERS
10
435031.5000
20
2075028.0000
30
0.0
40
4.0
1
P-1
50
0.0
0
POLYLINE
8
CEMETERY_PLOTS
66
1
70
1
0
VERTEX
8
CEMETERY_PLOTS
10
435050.0000
20
2075020.0000
30
0.0
0
VERTEX
8
CEMETERY_PLOTS
10
435075.0000
20
2075020.0000
30
0.0
0
VERTEX
8
CEMETERY_PLOTS
10
435075.0000
20
2075040.0000
30
0.0
0
VERTEX
8
CEMETERY_PLOTS
10
435050.0000
20
2075040.0000
30
0.0
0
SEQEND
0
TEXT
8
PLOT_NUMBERS
10
435056.5000
20
2075028.0000
30
0.0
40
4.0
1
P-2
50
0.0
0
POLYLINE
8
CEMETERY_PLOTS
66
1
70
1
0
VERTEX
8
CEMETERY_PLOTS
10
435075.0000
20
2075020.0000
30
0.0
0
VERTEX
8
CEMETERY_PLOTS
10
435100.0000
20
2075020.0000
30
0.0
0
VERTEX
8
CEMETERY_PLOTS
10
435100.0000
20
2075040.0000
30
0.0
0
VERTEX
8
CEMETERY_PLOTS
10
435075.0000
20
2075040.0000
30
0.0
0
SEQEND
0
TEXT
8
PLOT_NUMBERS
10
435081.5000
20
2075028.0000
30
0.0
40
4.0
1
P-3
50
0.0
0
POLYLINE
8
CEMETERY_PLOTS
66
1
70
1
0
VERTEX
8
CEMETERY_PLOTS
10
435100.0000
20
2075020.0000
30
0.0
0
VERTEX
8
CEMETERY_PLOTS
10
435125.0000
20
2075020.0000
30
0.0
0
VERTEX
8
CEMETERY_PLOTS
10
435125.0000
20
2075040.0000
30
0.0
0
VERTEX
8
CEMETERY_PLOTS
10
435100.0000
20
2075040.0000
30
0.0
0
SEQEND
0
TEXT
8
PLOT_NUMBERS
10
435106.5000
20
2075028.0000
30
0.0
40
4.0
1
P-4
50
0.0
0
POLYLINE
8
CEMETERY_PLOTS
66
1
70
1
0
VERTEX
8
CEMETERY_PLOTS
10
435125.0000
20
2075020.0000
30
0.0
0
VERTEX
8
CEMETERY_PLOTS
10
435150.0000
20
2075020.0000
30
0.0
0
VERTEX
8
CEMETERY_PLOTS
10
435150.0000
20
2075040.0000
30
0.0
0
VERTEX
8
CEMETERY_PLOTS
10
435125.0000
20
2075040.0000
30
0.0
0
SEQEND
0
TEXT
8
PLOT_NUMBERS
10
435131.5000
20
2075028.0000
30
0.0
40
4.0
1
P-5
50
0.0
0
POLYLINE
8
CEMETERY_PLOTS
66
1
70
1
0
VERTEX
8
CEMETERY_PLOTS
10
435150.0000
20
2075020.0000
30
0.0
0
VERTEX
8
CEMETERY_PLOTS
10
435175.0000
20
2075020.0000
30
0.0
0
VERTEX
8
CEMETERY_PLOTS
10
435175.0000
20
2075040.0000
30
0.0
0
VERTEX
8
CEMETERY_PLOTS
10
435150.0000
20
2075040.0000
30
0.0
0
SEQEND
0
TEXT
8
PLOT_NUMBERS
10
435156.5000
20
2075028.0000
30
0.0
40
4.0
1
P-6
50
0.0
0
POLYLINE
8
CEMETERY_PLOTS
66
1
70
1
0
VERTEX
8
CEMETERY_PLOTS
10
435175.0000
20
2075020.0000
30
0.0
0
VERTEX
8
CEMETERY_PLOTS
10
435200.0000
20
2075020.0000
30
0.0
0
VERTEX
8
CEMETERY_PLOTS
10
435200.0000
20
2075040.0000
30
0.0
0
VERTEX
8
CEMETERY_PLOTS
10
435175.0000
20
2075040.0000
30
0.0
0
SEQEND
0
TEXT
8
PLOT_NUMBERS
10
435181.5000
20
2075028.0000
30
0.0
40
4.0
1
P-7
50
0.0
0
POLYLINE
8
CEMETERY_PLOTS
66
1
70
1
0
VERTEX
8
CEMETERY_PLOTS
10
435200.0000
20
2075020.0000
30
0.0
0
VERTEX
8
CEMETERY_PLOTS
10
435225.0000
20
2075020.0000
30
0.0
0
VERTEX
8
CEMETERY_PLOTS
10
435225.0000
20
2075040.0000
30
0.0
0
VERTEX
8
CEMETERY_PLOTS
10
435200.0000
20
2075040.0000
30
0.0
0
SEQEND
0
TEXT
8
PLOT_NUMBERS
10
435206.5000
20
2075028.0000
30
0.0
40
4.0
1
P-8
50
0.0
0
POLYLINE
8
CEMETERY_PLOTS
66
1
70
1
0
VERTEX
8
CEMETERY_PLOTS
10
435025.0000
20
2075040.0000
30
0.0
0
VERTEX
8
CEMETERY_PLOTS
10
435050.0000
20
2075040.0000
30
0.0
0
VERTEX
8
CEMETERY_PLOTS
10
435050.0000
20
2075060.0000
30
0.0
0
VERTEX
8
CEMETERY_PLOTS
10
435025.0000
20
2075060.0000
30
0.0
0
SEQEND
0
TEXT
8
PLOT_NUMBERS
10
435031.5000
20
2075048.0000
30
0.0
40
4.0
1
P-9
50
0.0
0
POLYLINE
8
CEMETERY_PLOTS
66
1
70
1
0
VERTEX
8
CEMETERY_PLOTS
10
435050.0000
20
2075040.0000
30
0.0
0
VERTEX
8
CEMETERY_PLOTS
10
435075.0000
20
2075040.0000
30
0.0
0
VERTEX
8
CEMETERY_PLOTS
10
435075.0000
20
2075060.0000
30
0.0
0
VERTEX
8
CEMETERY_PLOTS
10
435050.0000
20
2075060.0000
30
0.0
0
SEQEND
0
TEXT
8
PLOT_NUMBERS
10
435056.5000
20
2075048.0000
30
0.0
40
4.0
1
P-10
50
0.0
0
POLYLINE
8
CEMETERY_PLOTS
66
1
70
1
0
VERTEX
8
CEMETERY_PLOTS
10
435075.0000
20
2075040.0000
30
0.0
0
VERTEX
8
CEMETERY_PLOTS
10
435100.0000
20
2075040.0000
30
0.0
0
VERTEX
8
CEMETERY_PLOTS
10
435100.0000
20
2075060.0000
30
0.0
0
VERTEX
8
CEMETERY_PLOTS
10
435075.0000
20
2075060.0000
30
0.0
0
SEQEND
0
TEXT
8
PLOT_NUMBERS
10
435081.5000
20
2075048.0000
30
0.0
40
4.0
1
P-11
50
0.0
0
POLYLINE
8
CEMETERY_PLOTS
66
1
70
1
0
VERTEX
8
CEMETERY_PLOTS
10
435100.0000
20
2075040.0000
30
0.0
0
VERTEX
8
CEMETERY_PLOTS
10
435125.0000
20
2075040.0000
30
0.0
0
VERTEX
8
CEMETERY_PLOTS
10
435125.0000
20
2075060.0000
30
0.0
0
VERTEX
8
CEMETERY_PLOTS
10
435100.0000
20
2075060.0000
30
0.0
0
SEQEND
0
TEXT
8
PLOT_NUMBERS
10
435106.5000
20
2075048.0000
30
0.0
40
4.0
1
P-12
50
0.0
0
POLYLINE
8
CEMETERY_PLOTS
66
1
70
1
0
VERTEX
8
CEMETERY_PLOTS
10
435125.0000
20
2075040.0000
30
0.0
0
VERTEX
8
CEMETERY_PLOTS
10
435150.0000
20
2075040.0000
30
0.0
0
VERTEX
8
CEMETERY_PLOTS
10
435150.0000
20
2075060.0000
30
0.0
0
VERTEX
8
CEMETERY_PLOTS
10
435125.0000
20
2075060.0000
30
0.0
0
SEQEND
0
TEXT
8
PLOT_NUMBERS
10
435131.5000
20
2075048.0000
30
0.0
40
4.0
1
P-13
50
0.0
0
POLYLINE
8
CEMETERY_PLOTS
66
1
70
1
0
VERTEX
8
CEMETERY_PLOTS
10
435150.0000
20
2075040.0000
30
0.0
0
VERTEX
8
CEMETERY_PLOTS
10
435175.0000
20
2075040.0000
30
0.0
0
VERTEX
8
CEMETERY_PLOTS
10
435175.0000
20
2075060.0000
30
0.0
0
VERTEX
8
CEMETERY_PLOTS
10
435150.0000
20
2075060.0000
30
0.0
0
SEQEND
0
TEXT
8
PLOT_NUMBERS
10
435156.5000
20
2075048.0000
30
0.0
40
4.0
1
P-14
50
0.0
0
POLYLINE
8
CEMETERY_PLOTS
66
1
70
1
0
VERTEX
8
CEMETERY_PLOTS
10
435175.0000
20
2075040.0000
30
0.0
0
VERTEX
8
CEMETERY_PLOTS
10
435200.0000
20
2075040.0000
30
0.0
0
VERTEX
8
CEMETERY_PLOTS
10
435200.0000
20
2075060.0000
30
0.0
0
VERTEX
8
CEMETERY_PLOTS
10
435175.0000
20
2075060.0000
30
0.0
0
SEQEND
0
TEXT
8
PLOT_NUMBERS
10
435181.5000
20
2075048.0000
30
0.0
40
4.0
1
P-15
50
0.0
0
POLYLINE
8
CEMETERY_PLOTS
66
1
70
1
0
VERTEX
8
CEMETERY_PLOTS
10
435200.0000
20
2075040.0000
30
0.0
0
VERTEX
8
CEMETERY_PLOTS
10
435225.0000
20
2075040.0000
30
0.0
0
VERTEX
8
CEMETERY_PLOTS
10
435225.0000
20
2075060.0000
30
0.0
0
VERTEX
8
CEMETERY_PLOTS
10
435200.0000
20
2075060.0000
30
0.0
0
SEQEND
0
TEXT
8
PLOT_NUMBERS
10
435206.5000
20
2075048.0000
30
0.0
40
4.0
1
P-16
50
0.0
0
POLYLINE
8
CEMETERY_PLOTS
66
1
70
1
0
VERTEX
8
CEMETERY_PLOTS
10
435025.0000
20
2075060.0000
30
0.0
0
VERTEX
8
CEMETERY_PLOTS
10
435050.0000
20
2075060.0000
30
0.0
0
VERTEX
8
CEMETERY_PLOTS
10
435050.0000
20
2075080.0000
30
0.0
0
VERTEX
8
CEMETERY_PLOTS
10
435025.0000
20
2075080.0000
30
0.0
0
SEQEND
0
TEXT
8
PLOT_NUMBERS
10
435031.5000
20
2075068.0000
30
0.0
40
4.0
1
P-17
50
0.0
0
POLYLINE
8
CEMETERY_PLOTS
66
1
70
1
0
VERTEX
8
CEMETERY_PLOTS
10
435050.0000
20
2075060.0000
30
0.0
0
VERTEX
8
CEMETERY_PLOTS
10
435075.0000
20
2075060.0000
30
0.0
0
VERTEX
8
CEMETERY_PLOTS
10
435075.0000
20
2075080.0000
30
0.0
0
VERTEX
8
CEMETERY_PLOTS
10
435050.0000
20
2075080.0000
30
0.0
0
SEQEND
0
TEXT
8
PLOT_NUMBERS
10
435056.5000
20
2075068.0000
30
0.0
40
4.0
1
P-18
50
0.0
0
POLYLINE
8
CEMETERY_PLOTS
66
1
70
1
0
VERTEX
8
CEMETERY_PLOTS
10
435075.0000
20
2075060.0000
30
0.0
0
VERTEX
8
CEMETERY_PLOTS
10
435100.0000
20
2075060.0000
30
0.0
0
VERTEX
8
CEMETERY_PLOTS
10
435100.0000
20
2075080.0000
30
0.0
0
VERTEX
8
CEMETERY_PLOTS
10
435075.0000
20
2075080.0000
30
0.0
0
SEQEND
0
TEXT
8
PLOT_NUMBERS
10
435081.5000
20
2075068.0000
30
0.0
40
4.0
1
P-19
50
0.0
0
POLYLINE
8
CEMETERY_PLOTS
66
1
70
1
0
VERTEX
8
CEMETERY_PLOTS
10
435100.0000
20
2075060.0000
30
0.0
0
VERTEX
8
CEMETERY_PLOTS
10
435125.0000
20
2075060.0000
30
0.0
0
VERTEX
8
CEMETERY_PLOTS
10
435125.0000
20
2075080.0000
30
0.0
0
VERTEX
8
CEMETERY_PLOTS
10
435100.0000
20
2075080.0000
30
0.0
0
SEQEND
0
TEXT
8
PLOT_NUMBERS
10
435106.5000
20
2075068.0000
30
0.0
40
4.0
1
P-20
50
0.0
0
POLYLINE
8
CEMETERY_PLOTS
66
1
70
1
0
VERTEX
8
CEMETERY_PLOTS
10
435125.0000
20
2075060.0000
30
0.0
0
VERTEX
8
CEMETERY_PLOTS
10
435150.0000
20
2075060.0000
30
0.0
0
VERTEX
8
CEMETERY_PLOTS
10
435150.0000
20
2075080.0000
30
0.0
0
VERTEX
8
CEMETERY_PLOTS
10
435125.0000
20
2075080.0000
30
0.0
0
SEQEND
0
TEXT
8
PLOT_NUMBERS
10
435131.5000
20
2075068.0000
30
0.0
40
4.0
1
P-21
50
0.0
0
POLYLINE
8
CEMETERY_PLOTS
66
1
70
1
0
VERTEX
8
CEMETERY_PLOTS
10
435150.0000
20
2075060.0000
30
0.0
0
VERTEX
8
CEMETERY_PLOTS
10
435175.0000
20
2075060.0000
30
0.0
0
VERTEX
8
CEMETERY_PLOTS
10
435175.0000
20
2075080.0000
30
0.0
0
VERTEX
8
CEMETERY_PLOTS
10
435150.0000
20
2075080.0000
30
0.0
0
SEQEND
0
TEXT
8
PLOT_NUMBERS
10
435156.5000
20
2075068.0000
30
0.0
40
4.0
1
P-22
50
0.0
0
POLYLINE
8
CEMETERY_PLOTS
66
1
70
1
0
VERTEX
8
CEMETERY_PLOTS
10
435175.0000
20
2075060.0000
30
0.0
0
VERTEX
8
CEMETERY_PLOTS
10
435200.0000
20
2075060.0000
30
0.0
0
VERTEX
8
CEMETERY_PLOTS
10
435200.0000
20
2075080.0000
30
0.0
0
VERTEX
8
CEMETERY_PLOTS
10
435175.0000
20
2075080.0000
30
0.0
0
SEQEND
0
TEXT
8
PLOT_NUMBERS
10
435181.5000
20
2075068.0000
30
0.0
40
4.0
1
P-23
50
0.0
0
POLYLINE
8
CEMETERY_PLOTS
66
1
70
1
0
VERTEX
8
CEMETERY_PLOTS
10
435200.0000
20
2075060.0000
30
0.0
0
VERTEX
8
CEMETERY_PLOTS
10
435225.0000
20
2075060.0000
30
0.0
0
VERTEX
8
CEMETERY_PLOTS
10
435225.0000
20
2075080.0000
30
0.0
0
VERTEX
8
CEMETERY_PLOTS
10
435200.0000
20
2075080.0000
30
0.0
0
SEQEND
0
TEXT
8
PLOT_NUMBERS
10
435206.5000
20
2075068.0000
30
0.0
40
4.0
1
P-24
50
0.0
0
POLYLINE
8
CEMETERY_PLOTS
66
1
70
1
0
VERTEX
8
CEMETERY_PLOTS
10
435025.0000
20
2075080.0000
30
0.0
0
VERTEX
8
CEMETERY_PLOTS
10
435050.0000
20
2075080.0000
30
0.0
0
VERTEX
8
CEMETERY_PLOTS
10
435050.0000
20
2075100.0000
30
0.0
0
VERTEX
8
CEMETERY_PLOTS
10
435025.0000
20
2075100.0000
30
0.0
0
SEQEND
0
TEXT
8
PLOT_NUMBERS
10
435031.5000
20
2075088.0000
30
0.0
40
4.0
1
P-25
50
0.0
0
POLYLINE
8
CEMETERY_PLOTS
66
1
70
1
0
VERTEX
8
CEMETERY_PLOTS
10
435050.0000
20
2075080.0000
30
0.0
0
VERTEX
8
CEMETERY_PLOTS
10
435075.0000
20
2075080.0000
30
0.0
0
VERTEX
8
CEMETERY_PLOTS
10
435075.0000
20
2075100.0000
30
0.0
0
VERTEX
8
CEMETERY_PLOTS
10
435050.0000
20
2075100.0000
30
0.0
0
SEQEND
0
TEXT
8
PLOT_NUMBERS
10
435056.5000
20
2075088.0000
30
0.0
40
4.0
1
P-26
50
0.0
0
POLYLINE
8
CEMETERY_PLOTS
66
1
70
1
0
VERTEX
8
CEMETERY_PLOTS
10
435075.0000
20
2075080.0000
30
0.0
0
VERTEX
8
CEMETERY_PLOTS
10
435100.0000
20
2075080.0000
30
0.0
0
VERTEX
8
CEMETERY_PLOTS
10
435100.0000
20
2075100.0000
30
0.0
0
VERTEX
8
CEMETERY_PLOTS
10
435075.0000
20
2075100.0000
30
0.0
0
SEQEND
0
TEXT
8
PLOT_NUMBERS
10
435081.5000
20
2075088.0000
30
0.0
40
4.0
1
P-27
50
0.0
0
POLYLINE
8
CEMETERY_PLOTS
66
1
70
1
0
VERTEX
8
CEMETERY_PLOTS
10
435100.0000
20
2075080.0000
30
0.0
0
VERTEX
8
CEMETERY_PLOTS
10
435125.0000
20
2075080.0000
30
0.0
0
VERTEX
8
CEMETERY_PLOTS
10
435125.0000
20
2075100.0000
30
0.0
0
VERTEX
8
CEMETERY_PLOTS
10
435100.0000
20
2075100.0000
30
0.0
0
SEQEND
0
TEXT
8
PLOT_NUMBERS
10
435106.5000
20
2075088.0000
30
0.0
40
4.0
1
P-28
50
0.0
0
POLYLINE
8
CEMETERY_PLOTS
66
1
70
1
0
VERTEX
8
CEMETERY_PLOTS
10
435125.0000
20
2075080.0000
30
0.0
0
VERTEX
8
CEMETERY_PLOTS
10
435150.0000
20
2075080.0000
30
0.0
0
VERTEX
8
CEMETERY_PLOTS
10
435150.0000
20
2075100.0000
30
0.0
0
VERTEX
8
CEMETERY_PLOTS
10
435125.0000
20
2075100.0000
30
0.0
0
SEQEND
0
TEXT
8
PLOT_NUMBERS
10
435131.5000
20
2075088.0000
30
0.0
40
4.0
1
P-29
50
0.0
0
POLYLINE
8
CEMETERY_PLOTS
66
1
70
1
0
VERTEX
8
CEMETERY_PLOTS
10
435150.0000
20
2075080.0000
30
0.0
0
VERTEX
8
CEMETERY_PLOTS
10
435175.0000
20
2075080.0000
30
0.0
0
VERTEX
8
CEMETERY_PLOTS
10
435175.0000
20
2075100.0000
30
0.0
0
VERTEX
8
CEMETERY_PLOTS
10
435150.0000
20
2075100.0000
30
0.0
0
SEQEND
0
TEXT
8
PLOT_NUMBERS
10
435156.5000
20
2075088.0000
30
0.0
40
4.0
1
P-30
50
0.0
0
POLYLINE
8
CEMETERY_PLOTS
66
1
70
1
0
VERTEX
8
CEMETERY_PLOTS
10
435175.0000
20
2075080.0000
30
0.0
0
VERTEX
8
CEMETERY_PLOTS
10
435200.0000
20
2075080.0000
30
0.0
0
VERTEX
8
CEMETERY_PLOTS
10
435200.0000
20
2075100.0000
30
0.0
0
VERTEX
8
CEMETERY_PLOTS
10
435175.0000
20
2075100.0000
30
0.0
0
SEQEND
0
TEXT
8
PLOT_NUMBERS
10
435181.5000
20
2075088.0000
30
0.0
40
4.0
1
P-31
50
0.0
0
POLYLINE
8
CEMETERY_PLOTS
66
1
70
1
0
VERTEX
8
CEMETERY_PLOTS
10
435200.0000
20
2075080.0000
30
0.0
0
VERTEX
8
CEMETERY_PLOTS
10
435225.0000
20
2075080.0000
30
0.0
0
VERTEX
8
CEMETERY_PLOTS
10
435225.0000
20
2075100.0000
30
0.0
0
VERTEX
8
CEMETERY_PLOTS
10
435200.0000
20
2075100.0000
30
0.0
0
SEQEND
0
TEXT
8
PLOT_NUMBERS
10
435206.5000
20
2075088.0000
30
0.0
40
4.0
1
P-32
50
0.0
0
POLYLINE
8
CEMETERY_PLOTS
66
1
70
1
0
VERTEX
8
CEMETERY_PLOTS
10
435025.0000
20
2075100.0000
30
0.0
0
VERTEX
8
CEMETERY_PLOTS
10
435050.0000
20
2075100.0000
30
0.0
0
VERTEX
8
CEMETERY_PLOTS
10
435050.0000
20
2075120.0000
30
0.0
0
VERTEX
8
CEMETERY_PLOTS
10
435025.0000
20
2075120.0000
30
0.0
0
SEQEND
0
TEXT
8
PLOT_NUMBERS
10
435031.5000
20
2075108.0000
30
0.0
40
4.0
1
P-33
50
0.0
0
POLYLINE
8
CEMETERY_PLOTS
66
1
70
1
0
VERTEX
8
CEMETERY_PLOTS
10
435050.0000
20
2075100.0000
30
0.0
0
VERTEX
8
CEMETERY_PLOTS
10
435075.0000
20
2075100.0000
30
0.0
0
VERTEX
8
CEMETERY_PLOTS
10
435075.0000
20
2075120.0000
30
0.0
0
VERTEX
8
CEMETERY_PLOTS
10
435050.0000
20
2075120.0000
30
0.0
0
SEQEND
0
TEXT
8
PLOT_NUMBERS
10
435056.5000
20
2075108.0000
30
0.0
40
4.0
1
P-34
50
0.0
0
POLYLINE
8
CEMETERY_PLOTS
66
1
70
1
0
VERTEX
8
CEMETERY_PLOTS
10
435075.0000
20
2075100.0000
30
0.0
0
VERTEX
8
CEMETERY_PLOTS
10
435100.0000
20
2075100.0000
30
0.0
0
VERTEX
8
CEMETERY_PLOTS
10
435100.0000
20
2075120.0000
30
0.0
0
VERTEX
8
CEMETERY_PLOTS
10
435075.0000
20
2075120.0000
30
0.0
0
SEQEND
0
TEXT
8
PLOT_NUMBERS
10
435081.5000
20
2075108.0000
30
0.0
40
4.0
1
P-35
50
0.0
0
POLYLINE
8
CEMETERY_PLOTS
66
1
70
1
0
VERTEX
8
CEMETERY_PLOTS
10
435100.0000
20
2075100.0000
30
0.0
0
VERTEX
8
CEMETERY_PLOTS
10
435125.0000
20
2075100.0000
30
0.0
0
VERTEX
8
CEMETERY_PLOTS
10
435125.0000
20
2075120.0000
30
0.0
0
VERTEX
8
CEMETERY_PLOTS
10
435100.0000
20
2075120.0000
30
0.0
0
SEQEND
0
TEXT
8
PLOT_NUMBERS
10
435106.5000
20
2075108.0000
30
0.0
40
4.0
1
P-36
50
0.0
0
POLYLINE
8
CEMETERY_PLOTS
66
1
70
1
0
VERTEX
8
CEMETERY_PLOTS
10
435125.0000
20
2075100.0000
30
0.0
0
VERTEX
8
CEMETERY_PLOTS
10
435150.0000
20
2075100.0000
30
0.0
0
VERTEX
8
CEMETERY_PLOTS
10
435150.0000
20
2075120.0000
30
0.0
0
VERTEX
8
CEMETERY_PLOTS
10
435125.0000
20
2075120.0000
30
0.0
0
SEQEND
0
TEXT
8
PLOT_NUMBERS
10
435131.5000
20
2075108.0000
30
0.0
40
4.0
1
P-37
50
0.0
0
POLYLINE
8
CEMETERY_PLOTS
66
1
70
1
0
VERTEX
8
CEMETERY_PLOTS
10
435150.0000
20
2075100.0000
30
0.0
0
VERTEX
8
CEMETERY_PLOTS
10
435175.0000
20
2075100.0000
30
0.0
0
VERTEX
8
CEMETERY_PLOTS
10
435175.0000
20
2075120.0000
30
0.0
0
VERTEX
8
CEMETERY_PLOTS
10
435150.0000
20
2075120.0000
30
0.0
0
SEQEND
0
TEXT
8
PLOT_NUMBERS
10
435156.5000
20
2075108.0000
30
0.0
40
4.0
1
P-38
50
0.0
0
POLYLINE
8
CEMETERY_PLOTS
66
1
70
1
0
VERTEX
8
CEMETERY_PLOTS
10
435175.0000
20
2075100.0000
30
0.0
0
VERTEX
8
CEMETERY_PLOTS
10
435200.0000
20
2075100.0000
30
0.0
0
VERTEX
8
CEMETERY_PLOTS
10
435200.0000
20
2075120.0000
30
0.0
0
VERTEX
8
CEMETERY_PLOTS
10
435175.0000
20
2075120.0000
30
0.0
0
SEQEND
0
TEXT
8
PLOT_NUMBERS
10
435181.5000
20
2075108.0000
30
0.0
40
4.0
1
P-39
50
0.0
0
POLYLINE
8
CEMETERY_PLOTS
66
1
70
1
0
VERTEX
8
CEMETERY_PLOTS
10
435200.0000
20
2075100.0000
30
0.0
0
VERTEX
8
CEMETERY_PLOTS
10
435225.0000
20
2075100.0000
30
0.0
0
VERTEX
8
CEMETERY_PLOTS
10
435225.0000
20
2075120.0000
30
0.0
0
VERTEX
8
CEMETERY_PLOTS
10
435200.0000
20
2075120.0000
30
0.0
0
SEQEND
0
TEXT
8
PLOT_NUMBERS
10
435206.5000
20
2075108.0000
30
0.0
40
4.0
1
P-40
50
0.0
0
POLYLINE
8
CEMETERY_PLOTS
66
1
70
1
0
VERTEX
8
CEMETERY_PLOTS
10
435025.0000
20
2075120.0000
30
0.0
0
VERTEX
8
CEMETERY_PLOTS
10
435050.0000
20
2075120.0000
30
0.0
0
VERTEX
8
CEMETERY_PLOTS
10
435050.0000
20
2075140.0000
30
0.0
0
VERTEX
8
CEMETERY_PLOTS
10
435025.0000
20
2075140.0000
30
0.0
0
SEQEND
0
TEXT
8
PLOT_NUMBERS
10
435031.5000
20
2075128.0000
30
0.0
40
4.0
1
P-41
50
0.0
0
POLYLINE
8
CEMETERY_PLOTS
66
1
70
1
0
VERTEX
8
CEMETERY_PLOTS
10
435050.0000
20
2075120.0000
30
0.0
0
VERTEX
8
CEMETERY_PLOTS
10
435075.0000
20
2075120.0000
30
0.0
0
VERTEX
8
CEMETERY_PLOTS
10
435075.0000
20
2075140.0000
30
0.0
0
VERTEX
8
CEMETERY_PLOTS
10
435050.0000
20
2075140.0000
30
0.0
0
SEQEND
0
TEXT
8
PLOT_NUMBERS
10
435056.5000
20
2075128.0000
30
0.0
40
4.0
1
P-42
50
0.0
0
POLYLINE
8
CEMETERY_PLOTS
66
1
70
1
0
VERTEX
8
CEMETERY_PLOTS
10
435075.0000
20
2075120.0000
30
0.0
0
VERTEX
8
CEMETERY_PLOTS
10
435100.0000
20
2075120.0000
30
0.0
0
VERTEX
8
CEMETERY_PLOTS
10
435100.0000
20
2075140.0000
30
0.0
0
VERTEX
8
CEMETERY_PLOTS
10
435075.0000
20
2075140.0000
30
0.0
0
SEQEND
0
TEXT
8
PLOT_NUMBERS
10
435081.5000
20
2075128.0000
30
0.0
40
4.0
1
P-43
50
0.0
0
POLYLINE
8
CEMETERY_PLOTS
66
1
70
1
0
VERTEX
8
CEMETERY_PLOTS
10
435100.0000
20
2075120.0000
30
0.0
0
VERTEX
8
CEMETERY_PLOTS
10
435125.0000
20
2075120.0000
30
0.0
0
VERTEX
8
CEMETERY_PLOTS
10
435125.0000
20
2075140.0000
30
0.0
0
VERTEX
8
CEMETERY_PLOTS
10
435100.0000
20
2075140.0000
30
0.0
0
SEQEND
0
TEXT
8
PLOT_NUMBERS
10
435106.5000
20
2075128.0000
30
0.0
40
4.0
1
P-44
50
0.0
0
POLYLINE
8
CEMETERY_PLOTS
66
1
70
1
0
VERTEX
8
CEMETERY_PLOTS
10
435125.0000
20
2075120.0000
30
0.0
0
VERTEX
8
CEMETERY_PLOTS
10
435150.0000
20
2075120.0000
30
0.0
0
VERTEX
8
CEMETERY_PLOTS
10
435150.0000
20
2075140.0000
30
0.0
0
VERTEX
8
CEMETERY_PLOTS
10
435125.0000
20
2075140.0000
30
0.0
0
SEQEND
0
TEXT
8
PLOT_NUMBERS
10
435131.5000
20
2075128.0000
30
0.0
40
4.0
1
P-45
50
0.0
0
POLYLINE
8
CEMETERY_PLOTS
66
1
70
1
0
VERTEX
8
CEMETERY_PLOTS
10
435150.0000
20
2075120.0000
30
0.0
0
VERTEX
8
CEMETERY_PLOTS
10
435175.0000
20
2075120.0000
30
0.0
0
VERTEX
8
CEMETERY_PLOTS
10
435175.0000
20
2075140.0000
30
0.0
0
VERTEX
8
CEMETERY_PLOTS
10
435150.0000
20
2075140.0000
30
0.0
0
SEQEND
0
TEXT
8
PLOT_NUMBERS
10
435156.5000
20
2075128.0000
30
0.0
40
4.0
1
P-46
50
0.0
0
POLYLINE
8
CEMETERY_PLOTS
66
1
70
1
0
VERTEX
8
CEMETERY_PLOTS
10
435175.0000
20
2075120.0000
30
0.0
0
VERTEX
8
CEMETERY_PLOTS
10
435200.0000
20
2075120.0000
30
0.0
0
VERTEX
8
CEMETERY_PLOTS
10
435200.0000
20
2075140.0000
30
0.0
0
VERTEX
8
CEMETERY_PLOTS
10
435175.0000
20
2075140.0000
30
0.0
0
SEQEND
0
TEXT
8
PLOT_NUMBERS
10
435181.5000
20
2075128.0000
30
0.0
40
4.0
1
P-47
50
0.0
0
POLYLINE
8
CEMETERY_PLOTS
66
1
70
1
0
VERTEX
8
CEMETERY_PLOTS
10
435200.0000
20
2075120.0000
30
0.0
0
VERTEX
8
CEMETERY_PLOTS
10
435225.0000
20
2075120.0000
30
0.0
0
VERTEX
8
CEMETERY_PLOTS
10
435225.0000
20
2075140.0000
30
0.0
0
VERTEX
8
CEMETERY_PLOTS
10
435200.0000
20
2075140.0000
30
0.0
0
SEQEND
0
TEXT
8
PLOT_NUMBERS
10
435206.5000
20
2075128.0000
30
0.0
40
4.0
1
P-48
50
0.0
0
POLYLINE
8
CEMETERY_PLOTS
66
1
70
1
0
VERTEX
8
CEMETERY_PLOTS
10
435025.0000
20
2075140.0000
30
0.0
0
VERTEX
8
CEMETERY_PLOTS
10
435050.0000
20
2075140.0000
30
0.0
0
VERTEX
8
CEMETERY_PLOTS
10
435050.0000
20
2075160.0000
30
0.0
0
VERTEX
8
CEMETERY_PLOTS
10
435025.0000
20
2075160.0000
30
0.0
0
SEQEND
0
TEXT
8
PLOT_NUMBERS
10
435031.5000
20
2075148.0000
30
0.0
40
4.0
1
P-49
50
0.0
0
POLYLINE
8
CEMETERY_PLOTS
66
1
70
1
0
VERTEX
8
CEMETERY_PLOTS
10
435050.0000
20
2075140.0000
30
0.0
0
VERTEX
8
CEMETERY_PLOTS
10
435075.0000
20
2075140.0000
30
0.0
0
VERTEX
8
CEMETERY_PLOTS
10
435075.0000
20
2075160.0000
30
0.0
0
VERTEX
8
CEMETERY_PLOTS
10
435050.0000
20
2075160.0000
30
0.0
0
SEQEND
0
TEXT
8
PLOT_NUMBERS
10
435056.5000
20
2075148.0000
30
0.0
40
4.0
1
P-50
50
0.0
0
POLYLINE
8
CEMETERY_PLOTS
66
1
70
1
0
VERTEX
8
CEMETERY_PLOTS
10
435075.0000
20
2075140.0000
30
0.0
0
VERTEX
8
CEMETERY_PLOTS
10
435100.0000
20
2075140.0000
30
0.0
0
VERTEX
8
CEMETERY_PLOTS
10
435100.0000
20
2075160.0000
30
0.0
0
VERTEX
8
CEMETERY_PLOTS
10
435075.0000
20
2075160.0000
30
0.0
0
SEQEND
0
TEXT
8
PLOT_NUMBERS
10
435081.5000
20
2075148.0000
30
0.0
40
4.0
1
P-51
50
0.0
0
POLYLINE
8
CEMETERY_PLOTS
66
1
70
1
0
VERTEX
8
CEMETERY_PLOTS
10
435100.0000
20
2075140.0000
30
0.0
0
VERTEX
8
CEMETERY_PLOTS
10
435125.0000
20
2075140.0000
30
0.0
0
VERTEX
8
CEMETERY_PLOTS
10
435125.0000
20
2075160.0000
30
0.0
0
VERTEX
8
CEMETERY_PLOTS
10
435100.0000
20
2075160.0000
30
0.0
0
SEQEND
0
TEXT
8
PLOT_NUMBERS
10
435106.5000
20
2075148.0000
30
0.0
40
4.0
1
P-52
50
0.0
0
POLYLINE
8
CEMETERY_PLOTS
66
1
70
1
0
VERTEX
8
CEMETERY_PLOTS
10
435125.0000
20
2075140.0000
30
0.0
0
VERTEX
8
CEMETERY_PLOTS
10
435150.0000
20
2075140.0000
30
0.0
0
VERTEX
8
CEMETERY_PLOTS
10
435150.0000
20
2075160.0000
30
0.0
0
VERTEX
8
CEMETERY_PLOTS
10
435125.0000
20
2075160.0000
30
0.0
0
SEQEND
0
TEXT
8
PLOT_NUMBERS
10
435131.5000
20
2075148.0000
30
0.0
40
4.0
1
P-53
50
0.0
0
POLYLINE
8
CEMETERY_PLOTS
66
1
70
1
0
VERTEX
8
CEMETERY_PLOTS
10
435150.0000
20
2075140.0000
30
0.0
0
VERTEX
8
CEMETERY_PLOTS
10
435175.0000
20
2075140.0000
30
0.0
0
VERTEX
8
CEMETERY_PLOTS
10
435175.0000
20
2075160.0000
30
0.0
0
VERTEX
8
CEMETERY_PLOTS
10
435150.0000
20
2075160.0000
30
0.0
0
SEQEND
0
TEXT
8
PLOT_NUMBERS
10
435156.5000
20
2075148.0000
30
0.0
40
4.0
1
P-54
50
0.0
0
POLYLINE
8
CEMETERY_PLOTS
66
1
70
1
0
VERTEX
8
CEMETERY_PLOTS
10
435175.0000
20
2075140.0000
30
0.0
0
VERTEX
8
CEMETERY_PLOTS
10
435200.0000
20
2075140.0000
30
0.0
0
VERTEX
8
CEMETERY_PLOTS
10
435200.0000
20
2075160.0000
30
0.0
0
VERTEX
8
CEMETERY_PLOTS
10
435175.0000
20
2075160.0000
30
0.0
0
SEQEND
0
TEXT
8
PLOT_NUMBERS
10
435181.5000
20
2075148.0000
30
0.0
40
4.0
1
P-55
50
0.0
0
POLYLINE
8
CEMETERY_PLOTS
66
1
70
1
0
VERTEX
8
CEMETERY_PLOTS
10
435200.0000
20
2075140.0000
30
0.0
0
VERTEX
8
CEMETERY_PLOTS
10
435225.0000
20
2075140.0000
30
0.0
0
VERTEX
8
CEMETERY_PLOTS
10
435225.0000
20
2075160.0000
30
0.0
0
VERTEX
8
CEMETERY_PLOTS
10
435200.0000
20
2075160.0000
30
0.0
0
SEQEND
0
TEXT
8
PLOT_NUMBERS
10
435206.5000
20
2075148.0000
30
0.0
40
4.0
1
P-56
50
0.0
0
POLYLINE
8
CEMETERY_PLOTS
66
1
70
1
0
VERTEX
8
CEMETERY_PLOTS
10
435025.0000
20
2075160.0000
30
0.0
0
VERTEX
8
CEMETERY_PLOTS
10
435050.0000
20
2075160.0000
30
0.0
0
VERTEX
8
CEMETERY_PLOTS
10
435050.0000
20
2075180.0000
30
0.0
0
VERTEX
8
CEMETERY_PLOTS
10
435025.0000
20
2075180.0000
30
0.0
0
SEQEND
0
TEXT
8
PLOT_NUMBERS
10
435031.5000
20
2075168.0000
30
0.0
40
4.0
1
P-57
50
0.0
0
POLYLINE
8
CEMETERY_PLOTS
66
1
70
1
0
VERTEX
8
CEMETERY_PLOTS
10
435050.0000
20
2075160.0000
30
0.0
0
VERTEX
8
CEMETERY_PLOTS
10
435075.0000
20
2075160.0000
30
0.0
0
VERTEX
8
CEMETERY_PLOTS
10
435075.0000
20
2075180.0000
30
0.0
0
VERTEX
8
CEMETERY_PLOTS
10
435050.0000
20
2075180.0000
30
0.0
0
SEQEND
0
TEXT
8
PLOT_NUMBERS
10
435056.5000
20
2075168.0000
30
0.0
40
4.0
1
P-58
50
0.0
0
POLYLINE
8
CEMETERY_PLOTS
66
1
70
1
0
VERTEX
8
CEMETERY_PLOTS
10
435075.0000
20
2075160.0000
30
0.0
0
VERTEX
8
CEMETERY_PLOTS
10
435100.0000
20
2075160.0000
30
0.0
0
VERTEX
8
CEMETERY_PLOTS
10
435100.0000
20
2075180.0000
30
0.0
0
VERTEX
8
CEMETERY_PLOTS
10
435075.0000
20
2075180.0000
30
0.0
0
SEQEND
0
TEXT
8
PLOT_NUMBERS
10
435081.5000
20
2075168.0000
30
0.0
40
4.0
1
P-59
50
0.0
0
POLYLINE
8
CEMETERY_PLOTS
66
1
70
1
0
VERTEX
8
CEMETERY_PLOTS
10
435100.0000
20
2075160.0000
30
0.0
0
VERTEX
8
CEMETERY_PLOTS
10
435125.0000
20
2075160.0000
30
0.0
0
VERTEX
8
CEMETERY_PLOTS
10
435125.0000
20
2075180.0000
30
0.0
0
VERTEX
8
CEMETERY_PLOTS
10
435100.0000
20
2075180.0000
30
0.0
0
SEQEND
0
TEXT
8
PLOT_NUMBERS
10
435106.5000
20
2075168.0000
30
0.0
40
4.0
1
P-60
50
0.0
0
POLYLINE
8
CEMETERY_PLOTS
66
1
70
1
0
VERTEX
8
CEMETERY_PLOTS
10
435125.0000
20
2075160.0000
30
0.0
0
VERTEX
8
CEMETERY_PLOTS
10
435150.0000
20
2075160.0000
30
0.0
0
VERTEX
8
CEMETERY_PLOTS
10
435150.0000
20
2075180.0000
30
0.0
0
VERTEX
8
CEMETERY_PLOTS
10
435125.0000
20
2075180.0000
30
0.0
0
SEQEND
0
TEXT
8
PLOT_NUMBERS
10
435131.5000
20
2075168.0000
30
0.0
40
4.0
1
P-61
50
0.0
0
POLYLINE
8
CEMETERY_PLOTS
66
1
70
1
0
VERTEX
8
CEMETERY_PLOTS
10
435150.0000
20
2075160.0000
30
0.0
0
VERTEX
8
CEMETERY_PLOTS
10
435175.0000
20
2075160.0000
30
0.0
0
VERTEX
8
CEMETERY_PLOTS
10
435175.0000
20
2075180.0000
30
0.0
0
VERTEX
8
CEMETERY_PLOTS
10
435150.0000
20
2075180.0000
30
0.0
0
SEQEND
0
TEXT
8
PLOT_NUMBERS
10
435156.5000
20
2075168.0000
30
0.0
40
4.0
1
P-62
50
0.0
0
POLYLINE
8
CEMETERY_PLOTS
66
1
70
1
0
VERTEX
8
CEMETERY_PLOTS
10
435175.0000
20
2075160.0000
30
0.0
0
VERTEX
8
CEMETERY_PLOTS
10
435200.0000
20
2075160.0000
30
0.0
0
VERTEX
8
CEMETERY_PLOTS
10
435200.0000
20
2075180.0000
30
0.0
0
VERTEX
8
CEMETERY_PLOTS
10
435175.0000
20
2075180.0000
30
0.0
0
SEQEND
0
TEXT
8
PLOT_NUMBERS
10
435181.5000
20
2075168.0000
30
0.0
40
4.0
1
P-63
50
0.0
0
POLYLINE
8
CEMETERY_PLOTS
66
1
70
1
0
VERTEX
8
CEMETERY_PLOTS
10
435200.0000
20
2075160.0000
30
0.0
0
VERTEX
8
CEMETERY_PLOTS
10
435225.0000
20
2075160.0000
30
0.0
0
VERTEX
8
CEMETERY_PLOTS
10
435225.0000
20
2075180.0000
30
0.0
0
VERTEX
8
CEMETERY_PLOTS
10
435200.0000
20
2075180.0000
30
0.0
0
SEQEND
0
TEXT
8
PLOT_NUMBERS
10
435206.5000
20
2075168.0000
30
0.0
40
4.0
1
P-64
50
0.0
0
LINE
8
WATER_LAKE
10
435430.0000
20
2074970.0000
30
0.0
11
435440.0000
21
2075050.0000
31
0.0
0
LINE
8
WATER_LAKE
10
435440.0000
20
2075050.0000
30
0.0
11
435455.0000
21
2075120.0000
31
0.0
0
LINE
8
WATER_LAKE
10
435455.0000
20
2075120.0000
30
0.0
11
435445.0000
21
2075180.0000
31
0.0
0
LINE
8
WATER_LAKE
10
435445.0000
20
2075180.0000
30
0.0
11
435435.0000
21
2075230.0000
31
0.0
0
TEXT
8
WATER_LAKE
10
435460.0000
20
2075100.0000
30
0.0
40
8.0
1
KINGSLEY LAKE (WEST SHORE)
50
90.0
0
POINT
8
CONTROL
10
435000.0000
20
2075000.0000
30
0.0
0
TEXT
8
CONTROL
10
435000.0000
20
2074975.0000
30
0.0
40
6.0
1
1888 SURVEY TIE: L.R. Thomas, Dep. County Surveyor (Sec 16, T6S, R23E)
50
0.0
0
TEXT
8
BOUNDARY
10
435000.0000
20
2075220.0000
30
0.0
40
9.0
1
PUBLIC BURYING GROUND AND CHURCH LOT -- PLAT BOOK 1, PAGE 5 (1888)
50
0.0
0
ENDSEC
0
EOF
