0
SECTION
2
HEADER
9
$ACADVER
1
AC1009
9
$DWGCODEPAGE
3
ANSI_1252
0
ENDSEC
0
SECTION
2
TABLES
0
TABLE
2
LTYPE
70
6
0
LTYPE
2
CONTINUOUS
70
0
3
Solid
72
65
73
0
40
0.0
0
LTYPE
2
DASHED
70
0
3
Dashed
72
65
73
2
40
0.75
49
0.5
74
0
49
-0.25
74
0
0
LTYPE
2
DASHED2
70
0
3
Dashed (.5x)
72
65
73
2
40
0.375
49
0.25
74
0
49
-0.125
74
0
0
LTYPE
2
HIDDEN
70
0
3
Hidden
72
65
73
2
40
0.375
49
0.25
74
0
49
-0.125
74
0
0
LTYPE
2
CENTER
70
0
3
Center
72
65
73
4
40
2.0
49
1.25
74
0
49
-0.25
74
0
49
0.25
74
0
49
-0.25
74
0
0
LTYPE
2
PHANTOM
70
0
3
Phantom
72
65
73
6
40
2.5
49
1.25
74
0
49
-0.25
74
0
49
0.25
74
0
49
-0.25
74
0
49
0.25
74
0
49
-0.25
74
0
0
ENDTAB
0
TABLE
2
LAYER
70
14
0
LAYER
2
0
70
0
62
7
6
CONTINUOUS
0
LAYER
2
C-BOUNDARY
70
0
62
7
6
CONTINUOUS
0
LAYER
2
C-ROAD-CNTR
70
0
62
2
6
DASHED
0
LAYER
2
C-ROAD-CURV
70
0
62
4
6
CONTINUOUS
0
LAYER
2
C-ROAD-INTX
70
0
62
3
6
CONTINUOUS
0
LAYER
2
C-ROAD-TIE
70
0
62
4
6
CONTINUOUS
0
LAYER
2
C-ROAD-ASSUMP
70
0
62
1
6
DASHED
0
LAYER
2
C-ROAD-ASSUMP-INTX
70
0
62
1
6
CONTINUOUS
0
LAYER
2
C-ROAD-PI-TANGENT
70
0
62
1
6
DASHED
0
LAYER
2
C-ROAD-CULDESAC
70
0
62
1
6
CONTINUOUS
0
LAYER
2
C-ROAD-TEXT
70
0
62
7
6
CONTINUOUS
0
LAYER
2
C-ROAD-ASSUMP-TEXT
70
0
62
1
6
CONTINUOUS
0
LAYER
2
CONTROL
70
0
62
1
6
CONTINUOUS
0
LAYER
2
TITLEBLOCK
70
0
62
2
6
CONTINUOUS
0
ENDTAB
0
TABLE
2
STYLE
70
4
0
STYLE
2
STANDARD
70
0
40
0.0
41
1.0
50
0.0
71
0
42
0.2
3
Arial
4

0
STYLE
2
ARIAL
70
0
40
0.0
41
1.0
50
0.0
71
0
42
0.2
3
Arial
4

0
STYLE
2
ARIAL_TTF
70
0
40
0.0
41
1.0
50
0.0
71
0
42
0.2
3
arial.ttf
4

0
STYLE
2
SIMPLEX
70
0
40
0.0
41
1.0
50
0.0
71
0
42
0.2
3
simplex.shx
4

0
ENDTAB
0
ENDSEC
0
SECTION
2
ENTITIES
0
LINE
8
C-BOUNDARY
10
9812.5952
20
10172.2772
30
0.0
11
9843.2918
21
9442.2618
31
0.0
0
TEXT
8
C-ROAD-TEXT
7
STANDARD
10
9827.9435
20
9807.2695
30
0.0
40
5.0
1
S02%%d24'30"E 730.66'
50
0.0
72
1
11
9827.9435
21
9807.2695
31
0.0
73
2
0
LINE
8
C-BOUNDARY
10
9843.2918
20
9442.2618
30
0.0
11
9870.2384
21
7939.9332
31
0.0
0
TEXT
8
C-ROAD-TEXT
7
STANDARD
10
9856.7651
20
8691.0975
30
0.0
40
5.0
1
S01%%d01'40"E 1502.57'
50
0.0
72
1
11
9856.7651
21
8691.0975
31
0.0
73
2
0
LINE
8
C-BOUNDARY
10
9870.2384
20
7939.9332
30
0.0
11
9920.2347
21
7940.5282
31
0.0
0
TEXT
8
C-ROAD-TEXT
7
STANDARD
10
9895.2365
20
7940.2307
30
0.0
40
5.0
1
N89%%d18'20"E 50.00'
50
0.0
72
1
11
9895.2365
21
7940.2307
31
0.0
73
2
0
LINE
8
C-BOUNDARY
10
9920.2347
20
7940.5282
30
0.0
11
9922.0285
21
7840.5223
31
0.0
0
TEXT
8
C-ROAD-TEXT
7
STANDARD
10
9921.1316
20
7890.5253
30
0.0
40
5.0
1
S01%%d01'40"E 100.02'
50
0.0
72
1
11
9921.1316
21
7890.5253
31
0.0
73
2
0
LINE
8
C-BOUNDARY
10
9922.0285
20
7840.5223
30
0.0
11
10508.4956
21
7847.5019
31
0.0
0
TEXT
8
C-ROAD-TEXT
7
STANDARD
10
10215.2620
20
7844.0121
30
0.0
40
5.0
1
N89%%d18'20"E 586.51'
50
0.0
72
1
11
10215.2620
21
7844.0121
31
0.0
73
2
0
LINE
8
C-BOUNDARY
10
10508.4956
20
7847.5019
30
0.0
11
10507.2837
21
7947.4726
31
0.0
0
TEXT
8
C-ROAD-TEXT
7
STANDARD
10
10507.8896
20
7897.4872
30
0.0
40
5.0
1
N00%%d41'40"W 99.98'
50
0.0
72
1
11
10507.8896
21
7897.4872
31
0.0
73
2
0
LINE
8
C-BOUNDARY
10
10507.2837
20
7947.4726
30
0.0
11
10510.8638
21
8007.5127
31
0.0
0
TEXT
8
C-ROAD-TEXT
7
STANDARD
10
10509.0737
20
7977.4926
30
0.0
40
5.0
1
N03%%d24'42"E 60.15'
50
0.0
72
1
11
10509.0737
21
7977.4926
31
0.0
73
2
0
LINE
8
C-BOUNDARY
10
10510.8638
20
8007.5127
30
0.0
11
10508.4399
21
8207.4540
31
0.0
0
TEXT
8
C-ROAD-TEXT
7
STANDARD
10
10509.6518
20
8107.4834
30
0.0
40
5.0
1
N00%%d41'40"W 199.96'
50
0.0
72
1
11
10509.6518
21
8107.4834
31
0.0
73
2
0
LINE
8
C-BOUNDARY
10
10508.4399
20
8207.4540
30
0.0
11
10480.0078
21
8262.6381
31
0.0
0
TEXT
8
C-ROAD-TEXT
7
STANDARD
10
10494.2238
20
8235.0461
30
0.0
40
5.0
1
N27%%d15'10"W 62.08'
50
0.0
72
1
11
10494.2238
21
8235.0461
31
0.0
73
2
0
LINE
8
C-BOUNDARY
10
10480.0078
20
8262.6381
30
0.0
11
10478.7692
21
8364.8081
31
0.0
0
TEXT
8
C-ROAD-TEXT
7
STANDARD
10
10479.3885
20
8313.7231
30
0.0
40
5.0
1
N00%%d41'40"W 102.18'
50
0.0
72
1
11
10479.3885
21
8313.7231
31
0.0
73
2
0
LINE
8
C-BOUNDARY
10
10478.7692
20
8364.8081
30
0.0
11
10418.6880
21
8380.3807
31
0.0
0
TEXT
8
C-ROAD-TEXT
7
STANDARD
10
10448.7286
20
8372.5944
30
0.0
40
5.0
1
N75%%d27'25"W 62.07'
50
0.0
72
1
11
10448.7286
21
8372.5944
31
0.0
73
2
0
LINE
8
C-BOUNDARY
10
10418.6880
20
8380.3807
30
0.0
11
10488.0404
21
8478.2841
31
0.0
0
TEXT
8
C-ROAD-TEXT
7
STANDARD
10
10453.3642
20
8429.3324
30
0.0
40
5.0
1
N35%%d18'20"E 119.98'
50
0.0
72
1
11
10453.3642
21
8429.3324
31
0.0
73
2
0
LINE
8
C-BOUNDARY
10
10488.0404
20
8478.2841
30
0.0
11
10435.6478
21
8535.8890
31
0.0
0
TEXT
8
C-ROAD-TEXT
7
STANDARD
10
10461.8441
20
8507.0866
30
0.0
40
5.0
1
N42%%d16'43"W 77.87'
50
0.0
72
1
11
10461.8441
21
8507.0866
31
0.0
73
2
0
LINE
8
C-BOUNDARY
10
10435.6478
20
8535.8890
30
0.0
11
10551.2352
21
8699.0614
31
0.0
0
TEXT
8
C-ROAD-TEXT
7
STANDARD
10
10493.4415
20
8617.4752
30
0.0
40
5.0
1
N35%%d18'20"E 199.96'
50
0.0
72
1
11
10493.4415
21
8617.4752
31
0.0
73
2
0
LINE
8
C-BOUNDARY
10
10551.2352
20
8699.0614
30
0.0
11
10502.1767
21
8737.9162
31
0.0
0
TEXT
8
C-ROAD-TEXT
7
STANDARD
10
10526.7060
20
8718.4888
30
0.0
40
5.0
1
N51%%d36'38"W 62.58'
50
0.0
72
1
11
10526.7060
21
8718.4888
31
0.0
73
2
0
LINE
8
C-BOUNDARY
10
10502.1767
20
8737.9162
30
0.0
11
10583.0879
21
8852.1368
31
0.0
0
TEXT
8
C-ROAD-TEXT
7
STANDARD
10
10542.6323
20
8795.0265
30
0.0
40
5.0
1
N35%%d18'20"E 139.97'
50
0.0
72
1
11
10542.6323
21
8795.0265
31
0.0
73
2
0
LINE
8
C-BOUNDARY
10
10583.0879
20
8852.1368
30
0.0
11
10827.9125
21
8678.6898
31
0.0
0
TEXT
8
C-ROAD-TEXT
7
STANDARD
10
10705.5002
20
8765.4133
30
0.0
40
5.0
1
S54%%d41'40"E 300.04'
50
0.0
72
1
11
10705.5002
21
8765.4133
31
0.0
73
2
0
LINE
8
C-BOUNDARY
10
10827.9125
20
8678.6898
30
0.0
11
10885.7062
21
8760.2760
31
0.0
0
TEXT
8
C-ROAD-TEXT
7
STANDARD
10
10856.8094
20
8719.4829
30
0.0
40
5.0
1
N35%%d18'20"E 99.98'
50
0.0
72
1
11
10856.8094
21
8719.4829
31
0.0
73
2
0
LINE
8
C-BOUNDARY
10
10885.7062
20
8760.2760
30
0.0
11
10923.6086
21
8806.9557
31
0.0
0
TEXT
8
C-ROAD-TEXT
7
STANDARD
10
10904.6574
20
8783.6159
30
0.0
40
5.0
1
N39%%d04'03"E 60.13'
50
0.0
72
1
11
10904.6574
21
8783.6159
31
0.0
73
2
0
LINE
8
C-BOUNDARY
10
10923.6086
20
8806.9557
30
0.0
11
11073.8723
21
9019.0798
31
0.0
0
TEXT
8
C-ROAD-TEXT
7
STANDARD
10
10998.7404
20
8913.0177
30
0.0
40
5.0
1
N35%%d18'20"E 259.95'
50
0.0
72
1
11
10998.7404
21
8913.0177
31
0.0
73
2
0
LINE
8
C-BOUNDARY
10
11073.8723
20
9019.0798
30
0.0
11
11155.6110
21
8961.1716
31
0.0
0
TEXT
8
C-ROAD-TEXT
7
STANDARD
10
11114.7416
20
8990.1257
30
0.0
40
5.0
1
S54%%d41'40"E 100.17'
50
0.0
72
1
11
11114.7416
21
8990.1257
31
0.0
73
2
0
LINE
8
C-BOUNDARY
10
11155.6110
20
8961.1716
30
0.0
11
11240.3061
21
8908.0200
31
0.0
0
TEXT
8
C-ROAD-TEXT
7
STANDARD
10
11197.9586
20
8934.5958
30
0.0
40
5.0
1
S57%%d53'59"E 99.99'
50
0.0
72
1
11
11197.9586
21
8934.5958
31
0.0
73
2
0
LINE
8
C-BOUNDARY
10
11240.3061
20
8908.0200
30
0.0
11
11288.6267
21
8995.5486
31
0.0
0
TEXT
8
C-ROAD-TEXT
7
STANDARD
10
11264.4664
20
8951.7843
30
0.0
40
5.0
1
N28%%d53'42"E 99.98'
50
0.0
72
1
11
11264.4664
21
8951.7843
31
0.0
73
2
0
LINE
8
C-BOUNDARY
10
11288.6267
20
8995.5486
30
0.0
11
11373.0126
21
8962.8014
31
0.0
0
TEXT
8
C-ROAD-TEXT
7
STANDARD
10
11330.8197
20
8979.1750
30
0.0
40
5.0
1
S68%%d48'08"E 90.52'
50
0.0
72
1
11
11330.8197
21
8979.1750
31
0.0
73
2
0
LINE
8
C-BOUNDARY
10
11373.0126
20
8962.8014
30
0.0
11
11452.6527
21
8993.3925
31
0.0
0
TEXT
8
C-ROAD-TEXT
7
STANDARD
10
11412.8327
20
8978.0970
30
0.0
40
5.0
1
N68%%d58'32"E 85.31'
50
0.0
72
1
11
11412.8327
21
8978.0970
31
0.0
73
2
0
LINE
8
C-BOUNDARY
10
11452.6527
20
8993.3925
30
0.0
11
11437.5280
21
10240.9765
31
0.0
0
TEXT
8
C-ROAD-TEXT
7
STANDARD
10
11445.0904
20
9617.1845
30
0.0
40
5.0
1
N00%%d41'40"W 1247.68'
50
0.0
72
1
11
11445.0904
21
9617.1845
31
0.0
73
2
0
LINE
8
C-BOUNDARY
10
11437.5280
20
10240.9765
30
0.0
11
9812.5952
21
10172.2772
31
0.0
0
TEXT
8
C-ROAD-TEXT
7
STANDARD
10
10625.0616
20
10206.6269
30
0.0
40
5.0
1
S87%%d35'30"W 1626.38'
50
0.0
72
1
11
10625.0616
21
10206.6269
31
0.0
73
2
0
LINE
8
C-ROAD-CNTR
10
10000.0000
20
10000.0000
30
0.0
11
9992.4362
21
10179.8410
31
0.0
0
TEXT
8
C-ROAD-TEXT
7
STANDARD
10
9996.2181
20
10094.9205
30
0.0
40
4.5
1
Mangrove Avenue [N02%%d24'30"W - 180.00']
50
0.0
72
1
11
9996.2181
21
10094.9205
31
0.0
73
2
0
LINE
8
C-ROAD-CNTR
10
10000.0000
20
10000.0000
30
0.0
11
10010.9255
21
9740.2297
31
0.0
0
TEXT
8
C-ROAD-TEXT
7
STANDARD
10
10005.4627
20
9875.1148
30
0.0
40
4.5
1
Mangrove Avenue [S02%%d24'30"E - 260.00']
50
0.0
72
1
11
10005.4627
21
9875.1148
31
0.0
73
2
0
LINE
8
C-ROAD-CNTR
10
10010.9255
20
9740.2297
30
0.0
11
10021.8509
21
9480.4593
31
0.0
0
TEXT
8
C-ROAD-TEXT
7
STANDARD
10
10016.3882
20
9615.3445
30
0.0
40
4.5
1
Mangrove Avenue [S02%%d24'30"E - 260.00']
50
0.0
72
1
11
10016.3882
21
9615.3445
31
0.0
73
2
0
LINE
8
C-ROAD-CNTR
10
10021.8509
20
9480.4593
30
0.0
11
10023.1325
21
9449.9862
31
0.0
0
TEXT
8
C-ROAD-TEXT
7
STANDARD
10
10022.4917
20
9470.2228
30
0.0
40
4.5
1
Mangrove Avenue [S02%%d24'30"E - 30.50']
50
0.0
72
1
11
10022.4917
21
9470.2228
31
0.0
73
2
0
LINE
8
C-ROAD-CNTR
10
10023.1325
20
9449.9862
30
0.0
11
10027.0787
21
9230.0216
31
0.0
0
TEXT
8
C-ROAD-TEXT
7
STANDARD
10
10025.1056
20
9345.0039
30
0.0
40
4.5
1
Mangrove Avenue [S01%%d01'40"E - 220.00']
50
0.0
72
1
11
10025.1056
21
9345.0039
31
0.0
73
2
0
LINE
8
C-ROAD-CNTR
10
10027.0787
20
9230.0216
30
0.0
11
10045.0560
21
8227.9429
31
0.0
0
TEXT
8
C-ROAD-TEXT
7
STANDARD
10
10036.0674
20
8733.9823
30
0.0
40
4.5
1
Mangrove Avenue [S01%%d01'40"E - 1002.24']
50
0.0
72
1
11
10036.0674
21
8733.9823
31
0.0
73
2
0
LINE
8
C-ROAD-CNTR
10
10045.0560
20
8227.9429
30
0.0
11
10047.7466
21
8077.9670
31
0.0
0
TEXT
8
C-ROAD-TEXT
7
STANDARD
10
10046.4013
20
8157.9549
30
0.0
40
4.5
1
Mangrove Avenue [S01%%d01'40"E - 150.00']
50
0.0
72
1
11
10046.4013
21
8157.9549
31
0.0
73
2
0
LINE
8
C-ROAD-CNTR
10
10047.7466
20
8077.9670
30
0.0
11
10050.0784
21
7947.9879
31
0.0
0
TEXT
8
C-ROAD-TEXT
7
STANDARD
10
10048.9125
20
8017.9775
30
0.0
40
4.5
1
Mangrove Avenue [S01%%d01'40"E - 130.00']
50
0.0
72
1
11
10048.9125
21
8017.9775
31
0.0
73
2
0
LINE
8
C-ROAD-CNTR
10
9865.0693
20
8225.7613
30
0.0
11
10045.0560
21
8227.9429
31
0.0
0
TEXT
8
C-ROAD-TEXT
7
STANDARD
10
9955.0626
20
8231.8521
30
0.0
40
4.5
1
Surfwood Avenue [N89%%d18'20"E - 180.00']
50
0.0
72
1
11
9955.0626
21
8231.8521
31
0.0
73
2
0
LINE
8
C-ROAD-CNTR
10
10045.0560
20
8227.9429
30
0.0
11
10489.6234
21
8233.3315
31
0.0
0
TEXT
8
C-ROAD-TEXT
7
STANDARD
10
10267.3397
20
8235.6372
30
0.0
40
4.5
1
Surfwood Avenue [N89%%d18'20"E - 444.60']
50
0.0
72
1
11
10267.3397
21
8235.6372
31
0.0
73
2
0
LINE
8
C-ROAD-CNTR
10
9719.5470
20
8725.6589
30
0.0
11
10250.0000
21
8350.0000
31
0.0
0
TEXT
8
C-ROAD-TEXT
7
STANDARD
10
9984.7735
20
8542.8294
30
0.0
40
4.5
1
San Salvadore Avenue [S54%%d41'40"E - 650.00']
50
0.0
72
1
11
9984.7735
21
8542.8294
31
0.0
73
2
0
LINE
8
C-ROAD-ASSUMP
10
10428.7384
20
8294.8801
30
0.0
11
10489.6234
21
8233.3315
31
0.0
0
TEXT
8
C-ROAD-ASSUMP-TEXT
7
STANDARD
10
10459.1809
20
8269.1058
30
0.0
40
4.5
1
San Salvadore - Surfwood Transition Tie [S23%%d14'20"W - 86.57'] (ASSUMED)
50
0.0
72
1
11
10459.1809
21
8269.1058
31
0.0
73
2
0
LINE
8
C-ROAD-CNTR
10
9869.8105
20
8937.8401
30
0.0
11
10522.6758
21
8475.4907
31
0.0
0
TEXT
8
C-ROAD-TEXT
7
STANDARD
10
10196.2432
20
8711.6654
30
0.0
40
4.5
1
Cape Horn Avenue [S54%%d41'40"E - 800.00']
50
0.0
72
1
11
10196.2432
21
8711.6654
31
0.0
73
2
0
LINE
8
C-ROAD-CNTR
10
9820.1590
20
9992.4362
30
0.0
11
10000.0000
21
10000.0000
31
0.0
0
TEXT
8
C-ROAD-TEXT
7
STANDARD
10
9910.0795
20
10001.2181
30
0.0
40
4.5
1
Starfish Avenue [N87%%d35'30"E - 180.00']
50
0.0
72
1
11
9910.0795
21
10001.2181
31
0.0
73
2
0
LINE
8
C-ROAD-CNTR
10
10000.0000
20
10000.0000
30
0.0
11
11452.2162
21
10061.0775
31
0.0
0
TEXT
8
C-ROAD-TEXT
7
STANDARD
10
10726.1081
20
10035.5387
30
0.0
40
4.5
1
Starfish Avenue [N87%%d35'30"E - 1453.50']
50
0.0
72
1
11
10726.1081
21
10035.5387
31
0.0
73
2
0
LINE
8
C-ROAD-CNTR
10
9831.0844
20
9732.6659
30
0.0
11
10010.9255
21
9740.2297
31
0.0
0
TEXT
8
C-ROAD-TEXT
7
STANDARD
10
9921.0049
20
9741.4478
30
0.0
40
4.5
1
Sail Avenue [N87%%d35'30"E - 180.00']
50
0.0
72
1
11
9921.0049
21
9741.4478
31
0.0
73
2
0
LINE
8
C-ROAD-CNTR
10
10010.9255
20
9740.2297
30
0.0
11
11463.1416
21
9801.3071
31
0.0
0
TEXT
8
C-ROAD-TEXT
7
STANDARD
10
10737.0335
20
9775.7684
30
0.0
40
4.5
1
Sail Avenue [N87%%d35'30"E - 1453.50']
50
0.0
72
1
11
10737.0335
21
9775.7684
31
0.0
73
2
0
LINE
8
C-ROAD-CNTR
10
9842.0099
20
9472.8955
30
0.0
11
10021.8509
21
9480.4593
31
0.0
0
TEXT
8
C-ROAD-TEXT
7
STANDARD
10
9931.9304
20
9481.6774
30
0.0
40
4.5
1
South Street [N87%%d35'30"E - 180.00']
50
0.0
72
1
11
9931.9304
21
9481.6774
31
0.0
73
2
0
LINE
8
C-ROAD-CNTR
10
10021.8509
20
9480.4593
30
0.0
11
10279.8828
21
9491.3116
31
0.0
0
TEXT
8
C-ROAD-TEXT
7
STANDARD
10
10150.8668
20
9490.8855
30
0.0
40
4.5
1
South Street [N87%%d35'30"E - 258.26']
50
0.0
72
1
11
10150.8668
21
9490.8855
31
0.0
73
2
0
LINE
8
C-ROAD-CNTR
10
10539.8129
20
9414.5717
30
0.0
11
10700.3939
21
9279.2435
31
0.0
0
TEXT
8
C-ROAD-TEXT
7
STANDARD
10
10620.1034
20
9351.9076
30
0.0
40
4.5
1
Marina Avenue [S49%%d52'40"E - 210.00']
50
0.0
72
1
11
10620.1034
21
9351.9076
31
0.0
73
2
0
LINE
8
C-ROAD-CNTR
10
10700.3939
20
9279.2435
30
0.0
11
10480.7779
21
8969.1325
31
0.0
0
TEXT
8
C-ROAD-TEXT
7
STANDARD
10
10590.5859
20
9129.1880
30
0.0
40
4.5
1
Keel Drive [S35%%d18'20"W - 380.00']
50
0.0
72
1
11
10590.5859
21
9129.1880
31
0.0
73
2
0
LINE
8
C-ROAD-ASSUMP
10
11463.1416
20
9801.3071
30
0.0
11
11514.8749
21
9455.1516
31
0.0
0
TEXT
8
C-ROAD-ASSUMP-TEXT
7
STANDARD
10
11489.0083
20
9633.2294
30
0.0
40
4.5
1
Beachwood Boulevard South Projection [S08%%d30'00"E - 350.00'] (ASSUMED)
50
0.0
72
1
11
11489.0083
21
9633.2294
31
0.0
73
2
0
LINE
8
C-ROAD-ASSUMP
10
11514.8749
20
9455.1516
30
0.0
11
11460.0000
21
9480.0000
31
0.0
0
TEXT
8
C-ROAD-ASSUMP-TEXT
7
STANDARD
10
11487.4375
20
9472.5758
30
0.0
40
4.5
1
Sands Avenue Approach [S87%%d35'30"W - 60.24'] (ASSUMED)
50
0.0
72
1
11
11487.4375
21
9472.5758
31
0.0
73
2
0
LINE
8
C-ROAD-CNTR
10
9847.2377
20
9222.4579
30
0.0
11
10027.0787
21
9230.0216
31
0.0
0
TEXT
8
C-ROAD-TEXT
7
STANDARD
10
9937.1582
20
9231.2397
30
0.0
40
4.5
1
Shellfish Drive [N87%%d35'30"E - 180.00']
50
0.0
72
1
11
9937.1582
21
9231.2397
31
0.0
73
2
0
LINE
8
C-ROAD-CNTR
10
10027.0787
20
9230.0216
30
0.0
11
10678.3200
21
9247.9100
31
0.0
0
TEXT
8
C-ROAD-TEXT
7
STANDARD
10
10352.6994
20
9243.9658
30
0.0
40
4.5
1
Shellfish Drive [N87%%d35'30"E - 651.49']
50
0.0
72
1
11
10352.6994
21
9243.9658
31
0.0
73
2
0
LINE
8
C-ROAD-ASSUMP
10
10678.3200
20
9247.9100
30
0.0
11
11176.0630
21
9278.3458
31
0.0
0
TEXT
8
C-ROAD-ASSUMP-TEXT
7
STANDARD
10
10927.1915
20
9268.1279
30
0.0
40
4.5
1
Shellfish Drive East Extension [N87%%d35'30"E - 498.67'] (ASSUMED)
50
0.0
72
1
11
10927.1915
21
9268.1279
31
0.0
73
2
0
LINE
8
C-ROAD-PI-TANGENT
10
10279.8828
20
9491.3116
30
0.0
11
10422.9526
21
9497.3289
31
0.0
0
LINE
8
C-ROAD-PI-TANGENT
10
10422.9526
20
9497.3289
30
0.0
11
10539.8129
21
9414.5717
31
0.0
0
LINE
8
C-ROAD-PI-TANGENT
10
10250.0000
20
8350.0000
30
0.0
11
10330.3257
21
8293.1146
31
0.0
0
LINE
8
C-ROAD-PI-TANGENT
10
10330.3257
20
8293.1146
30
0.0
11
10428.7384
21
8294.8801
31
0.0
0
LINE
8
C-ROAD-PI-TANGENT
10
11452.2162
20
10061.0775
30
0.0
11
11457.6932
21
9930.8526
31
0.0
0
LINE
8
C-ROAD-PI-TANGENT
10
11457.6932
20
9930.8526
30
0.0
11
11463.1416
21
9801.3071
31
0.0
0
LINE
8
C-ROAD-PI-TANGENT
10
11460.0000
20
9480.0000
30
0.0
11
11309.3993
21
9473.6660
31
0.0
0
LINE
8
C-ROAD-PI-TANGENT
10
11309.3993
20
9473.6660
30
0.0
11
11189.6664
21
9574.6989
31
0.0
0
LINE
8
C-ROAD-PI-TANGENT
10
10550.5029
20
9067.5884
30
0.0
11
10591.3311
21
9125.2402
31
0.0
0
LINE
8
C-ROAD-PI-TANGENT
10
10591.3311
20
9125.2402
30
0.0
11
10661.9134
21
9128.2088
31
0.0
0
LINE
8
C-ROAD-PI-TANGENT
10
10318.6554
20
8619.9749
30
0.0
11
10406.2247
21
8557.9596
31
0.0
0
LINE
8
C-ROAD-PI-TANGENT
10
10406.2247
20
8557.9596
30
0.0
11
10515.0183
21
8565.0057
31
0.0
0
POLYLINE
8
C-ROAD-CURV
66
1
70
0
0
VERTEX
8
C-ROAD-CURV
10
10250.0000
20
8350.0000
30
0.0
0
VERTEX
8
C-ROAD-CURV
10
10254.8166
20
8346.5168
30
0.0
0
VERTEX
8
C-ROAD-CURV
10
10259.5633
20
8342.9388
30
0.0
0
VERTEX
8
C-ROAD-CURV
10
10264.2381
20
8339.2674
30
0.0
0
VERTEX
8
C-ROAD-CURV
10
10268.8393
20
8335.5042
30
0.0
0
VERTEX
8
C-ROAD-CURV
10
10273.3650
20
8331.6505
30
0.0
0
VERTEX
8
C-ROAD-CURV
10
10277.8134
20
8327.7079
30
0.0
0
VERTEX
8
C-ROAD-CURV
10
10282.1828
20
8323.6779
30
0.0
0
VERTEX
8
C-ROAD-CURV
10
10286.4715
20
8319.5621
30
0.0
0
VERTEX
8
C-ROAD-CURV
10
10290.6779
20
8315.3621
30
0.0
0
VERTEX
8
C-ROAD-CURV
10
10294.8001
20
8311.0797
30
0.0
0
VERTEX
8
C-ROAD-CURV
10
10298.8367
20
8306.7163
30
0.0
0
VERTEX
8
C-ROAD-CURV
10
10302.7861
20
8302.2739
30
0.0
0
VERTEX
8
C-ROAD-CURV
10
10306.6466
20
8297.7540
30
0.0
0
VERTEX
8
C-ROAD-CURV
10
10310.4169
20
8293.1586
30
0.0
0
VERTEX
8
C-ROAD-CURV
10
10314.0953
20
8288.4893
30
0.0
0
VERTEX
8
C-ROAD-CURV
10
10317.6805
20
8283.7481
30
0.0
0
VERTEX
8
C-ROAD-CURV
10
10321.1710
20
8278.9368
30
0.0
0
VERTEX
8
C-ROAD-CURV
10
10324.5655
20
8274.0572
30
0.0
0
VERTEX
8
C-ROAD-CURV
10
10327.8626
20
8269.1113
30
0.0
0
VERTEX
8
C-ROAD-CURV
10
10331.0611
20
8264.1011
30
0.0
0
VERTEX
8
C-ROAD-CURV
10
10334.1597
20
8259.0285
30
0.0
0
VERTEX
8
C-ROAD-CURV
10
10337.1572
20
8253.8954
30
0.0
0
VERTEX
8
C-ROAD-CURV
10
10340.0523
20
8248.7040
30
0.0
0
VERTEX
8
C-ROAD-CURV
10
10342.8440
20
8243.4562
30
0.0
0
VERTEX
8
C-ROAD-CURV
10
10345.5312
20
8238.1542
30
0.0
0
VERTEX
8
C-ROAD-CURV
10
10348.1128
20
8232.7999
30
0.0
0
VERTEX
8
C-ROAD-CURV
10
10350.5878
20
8227.3955
30
0.0
0
VERTEX
8
C-ROAD-CURV
10
10352.9552
20
8221.9432
30
0.0
0
VERTEX
8
C-ROAD-CURV
10
10355.2141
20
8216.4450
30
0.0
0
VERTEX
8
C-ROAD-CURV
10
10357.3636
20
8210.9031
30
0.0
0
VERTEX
8
C-ROAD-CURV
10
10359.4029
20
8205.3197
30
0.0
0
VERTEX
8
C-ROAD-CURV
10
10361.3311
20
8199.6971
30
0.0
0
SEQEND
0
TEXT
8
C-ROAD-TEXT
7
STANDARD
10
10317.6805
20
8291.7481
30
0.0
40
5.0
1
San Salvadore Avenue CURVE: R=299.96', L=190.22', Delta=36.33%%d
50
0.0
72
1
11
10317.6805
21
8291.7481
31
0.0
73
2
0
POLYLINE
8
C-ROAD-CURV
66
1
70
0
0
VERTEX
8
C-ROAD-CURV
10
10279.8828
20
9491.3116
30
0.0
0
VERTEX
8
C-ROAD-CURV
10
10288.5026
20
9491.5854
30
0.0
0
VERTEX
8
C-ROAD-CURV
10
10297.1261
20
9491.6818
30
0.0
0
VERTEX
8
C-ROAD-CURV
10
10305.7499
20
9491.6008
30
0.0
0
VERTEX
8
C-ROAD-CURV
10
10314.3701
20
9491.3425
30
0.0
0
VERTEX
8
C-ROAD-CURV
10
10322.9833
20
9490.9069
30
0.0
0
VERTEX
8
C-ROAD-CURV
10
10331.5856
20
9490.2942
30
0.0
0
VERTEX
8
C-ROAD-CURV
10
10340.1735
20
9489.5047
30
0.0
0
VERTEX
8
C-ROAD-CURV
10
10348.7433
20
9488.5388
30
0.0
0
VERTEX
8
C-ROAD-CURV
10
10357.2915
20
9487.3968
30
0.0
0
VERTEX
8
C-ROAD-CURV
10
10365.8144
20
9486.0792
30
0.0
0
VERTEX
8
C-ROAD-CURV
10
10374.3084
20
9484.5866
30
0.0
0
VERTEX
8
C-ROAD-CURV
10
10382.7699
20
9482.9196
30
0.0
0
VERTEX
8
C-ROAD-CURV
10
10391.1953
20
9481.0790
30
0.0
0
VERTEX
8
C-ROAD-CURV
10
10399.5810
20
9479.0654
30
0.0
0
VERTEX
8
C-ROAD-CURV
10
10407.9236
20
9476.8797
30
0.0
0
VERTEX
8
C-ROAD-CURV
10
10416.2194
20
9474.5230
30
0.0
0
VERTEX
8
C-ROAD-CURV
10
10424.4650
20
9471.9961
30
0.0
0
VERTEX
8
C-ROAD-CURV
10
10432.6569
20
9469.3001
30
0.0
0
VERTEX
8
C-ROAD-CURV
10
10440.7917
20
9466.4362
30
0.0
0
VERTEX
8
C-ROAD-CURV
10
10448.8658
20
9463.4056
30
0.0
0
VERTEX
8
C-ROAD-CURV
10
10456.8758
20
9460.2096
30
0.0
0
VERTEX
8
C-ROAD-CURV
10
10464.8184
20
9456.8495
30
0.0
0
VERTEX
8
C-ROAD-CURV
10
10472.6902
20
9453.3267
30
0.0
0
VERTEX
8
C-ROAD-CURV
10
10480.4879
20
9449.6428
30
0.0
0
VERTEX
8
C-ROAD-CURV
10
10488.2082
20
9445.7992
30
0.0
0
VERTEX
8
C-ROAD-CURV
10
10495.8478
20
9441.7977
30
0.0
0
VERTEX
8
C-ROAD-CURV
10
10503.4035
20
9437.6399
30
0.0
0
VERTEX
8
C-ROAD-CURV
10
10510.8720
20
9433.3276
30
0.0
0
VERTEX
8
C-ROAD-CURV
10
10518.2503
20
9428.8626
30
0.0
0
VERTEX
8
C-ROAD-CURV
10
10525.5352
20
9424.2467
30
0.0
0
VERTEX
8
C-ROAD-CURV
10
10532.7236
20
9419.4820
30
0.0
0
VERTEX
8
C-ROAD-CURV
10
10539.8125
20
9414.5705
30
0.0
0
SEQEND
0
TEXT
8
C-ROAD-TEXT
7
STANDARD
10
10416.2194
20
9482.5230
30
0.0
40
5.0
1
Marina Avenue CURVE: R=419.27', L=275.98', Delta=37.71%%d
50
0.0
72
1
11
10416.2194
21
9482.5230
31
0.0
73
2
0
POLYLINE
8
C-ROAD-CURV
66
1
70
0
0
VERTEX
8
C-ROAD-CURV
10
10550.5029
20
9067.5884
30
0.0
0
VERTEX
8
C-ROAD-CURV
10
10548.0833
20
9064.2730
30
0.0
0
VERTEX
8
C-ROAD-CURV
10
10545.5702
20
9061.0280
30
0.0
0
VERTEX
8
C-ROAD-CURV
10
10542.9655
20
9057.8560
30
0.0
0
VERTEX
8
C-ROAD-CURV
10
10540.2714
20
9054.7595
30
0.0
0
VERTEX
8
C-ROAD-CURV
10
10537.4902
20
9051.7411
30
0.0
0
VERTEX
8
C-ROAD-CURV
10
10534.6240
20
9048.8032
30
0.0
0
VERTEX
8
C-ROAD-CURV
10
10531.6752
20
9045.9482
30
0.0
0
VERTEX
8
C-ROAD-CURV
10
10528.6462
20
9043.1785
30
0.0
0
VERTEX
8
C-ROAD-CURV
10
10525.5395
20
9040.4963
30
0.0
0
VERTEX
8
C-ROAD-CURV
10
10522.3575
20
9037.9037
30
0.0
0
VERTEX
8
C-ROAD-CURV
10
10519.1030
20
9035.4029
30
0.0
0
VERTEX
8
C-ROAD-CURV
10
10515.7784
20
9032.9960
30
0.0
0
VERTEX
8
C-ROAD-CURV
10
10512.3866
20
9030.6848
30
0.0
0
VERTEX
8
C-ROAD-CURV
10
10508.9302
20
9028.4713
30
0.0
0
VERTEX
8
C-ROAD-CURV
10
10505.4121
20
9026.3572
30
0.0
0
VERTEX
8
C-ROAD-CURV
10
10501.8352
20
9024.3443
30
0.0
0
VERTEX
8
C-ROAD-CURV
10
10498.2023
20
9022.4343
30
0.0
0
VERTEX
8
C-ROAD-CURV
10
10494.5165
20
9020.6285
30
0.0
0
VERTEX
8
C-ROAD-CURV
10
10490.7806
20
9018.9287
30
0.0
0
VERTEX
8
C-ROAD-CURV
10
10486.9978
20
9017.3360
30
0.0
0
VERTEX
8
C-ROAD-CURV
10
10483.1711
20
9015.8518
30
0.0
0
VERTEX
8
C-ROAD-CURV
10
10479.3037
20
9014.4774
30
0.0
0
VERTEX
8
C-ROAD-CURV
10
10475.3987
20
9013.2138
30
0.0
0
VERTEX
8
C-ROAD-CURV
10
10471.4592
20
9012.0620
30
0.0
0
VERTEX
8
C-ROAD-CURV
10
10467.4884
20
9011.0230
30
0.0
0
VERTEX
8
C-ROAD-CURV
10
10463.4897
20
9010.0977
30
0.0
0
VERTEX
8
C-ROAD-CURV
10
10459.4662
20
9009.2868
30
0.0
0
VERTEX
8
C-ROAD-CURV
10
10455.4212
20
9008.5910
30
0.0
0
VERTEX
8
C-ROAD-CURV
10
10451.3580
20
9008.0107
30
0.0
0
VERTEX
8
C-ROAD-CURV
10
10447.2799
20
9007.5466
30
0.0
0
VERTEX
8
C-ROAD-CURV
10
10443.1903
20
9007.1989
30
0.0
0
VERTEX
8
C-ROAD-CURV
10
10439.0924
20
9006.9680
30
0.0
0
SEQEND
0
TEXT
8
C-ROAD-TEXT
7
STANDARD
10
10501.8352
20
9032.3443
30
0.0
40
5.0
1
Keel Drive CURVE: R=143.93', L=131.35', Delta=52.29%%d
50
0.0
72
1
11
10501.8352
21
9032.3443
31
0.0
73
2
0
POLYLINE
8
C-ROAD-CURV
66
1
70
0
0
VERTEX
8
C-ROAD-CURV
10
11452.2162
20
10061.0775
30
0.0
0
VERTEX
8
C-ROAD-CURV
10
11452.5411
20
10052.9511
30
0.0
0
VERTEX
8
C-ROAD-CURV
10
11452.8322
20
10044.8235
30
0.0
0
VERTEX
8
C-ROAD-CURV
10
11453.0897
20
10036.6948
30
0.0
0
VERTEX
8
C-ROAD-CURV
10
11453.3134
20
10028.5650
30
0.0
0
VERTEX
8
C-ROAD-CURV
10
11453.5033
20
10020.4344
30
0.0
0
VERTEX
8
C-ROAD-CURV
10
11453.6595
20
10012.3031
30
0.0
0
VERTEX
8
C-ROAD-CURV
10
11453.7820
20
10004.1712
30
0.0
0
VERTEX
8
C-ROAD-CURV
10
11453.8708
20
9996.0388
30
0.0
0
VERTEX
8
C-ROAD-CURV
10
11453.9257
20
9987.9062
30
0.0
0
VERTEX
8
C-ROAD-CURV
10
11453.9470
20
9979.7734
30
0.0
0
VERTEX
8
C-ROAD-CURV
10
11453.9345
20
9971.6406
30
0.0
0
VERTEX
8
C-ROAD-CURV
10
11453.8882
20
9963.5079
30
0.0
0
VERTEX
8
C-ROAD-CURV
10
11453.8082
20
9955.3754
30
0.0
0
VERTEX
8
C-ROAD-CURV
10
11453.6944
20
9947.2434
30
0.0
0
VERTEX
8
C-ROAD-CURV
10
11453.5469
20
9939.1119
30
0.0
0
VERTEX
8
C-ROAD-CURV
10
11453.3657
20
9930.9811
30
0.0
0
VERTEX
8
C-ROAD-CURV
10
11453.1507
20
9922.8511
30
0.0
0
VERTEX
8
C-ROAD-CURV
10
11452.9020
20
9914.7221
30
0.0
0
VERTEX
8
C-ROAD-CURV
10
11452.6195
20
9906.5942
30
0.0
0
VERTEX
8
C-ROAD-CURV
10
11452.3034
20
9898.4675
30
0.0
0
VERTEX
8
C-ROAD-CURV
10
11451.9535
20
9890.3422
30
0.0
0
VERTEX
8
C-ROAD-CURV
10
11451.5699
20
9882.2184
30
0.0
0
VERTEX
8
C-ROAD-CURV
10
11451.1526
20
9874.0963
30
0.0
0
VERTEX
8
C-ROAD-CURV
10
11450.7015
20
9865.9760
30
0.0
0
VERTEX
8
C-ROAD-CURV
10
11450.2168
20
9857.8576
30
0.0
0
VERTEX
8
C-ROAD-CURV
10
11449.6984
20
9849.7413
30
0.0
0
VERTEX
8
C-ROAD-CURV
10
11449.1464
20
9841.6272
30
0.0
0
VERTEX
8
C-ROAD-CURV
10
11448.5606
20
9833.5155
30
0.0
0
VERTEX
8
C-ROAD-CURV
10
11447.9413
20
9825.4063
30
0.0
0
VERTEX
8
C-ROAD-CURV
10
11447.2882
20
9817.2998
30
0.0
0
VERTEX
8
C-ROAD-CURV
10
11446.6015
20
9809.1960
30
0.0
0
VERTEX
8
C-ROAD-CURV
10
11445.8813
20
9801.0951
30
0.0
0
SEQEND
0
TEXT
8
C-ROAD-TEXT
7
STANDARD
10
11453.3657
20
9938.9811
30
0.0
40
5.0
1
Beachwood Boulevard CURVE: R=1959.86', L=260.19', Delta=7.61%%d
50
0.0
72
1
11
11453.3657
21
9938.9811
31
0.0
73
2
0
POLYLINE
8
C-ROAD-ASSUMP
66
1
70
0
0
VERTEX
8
C-ROAD-ASSUMP
10
11460.0000
20
9480.0000
30
0.0
0
VERTEX
8
C-ROAD-ASSUMP
10
11469.0906
20
9480.4726
30
0.0
0
VERTEX
8
C-ROAD-ASSUMP
10
11478.1701
20
9481.1253
30
0.0
0
VERTEX
8
C-ROAD-ASSUMP
10
11487.2348
20
9481.9577
30
0.0
0
VERTEX
8
C-ROAD-ASSUMP
10
11496.2812
20
9482.9696
30
0.0
0
VERTEX
8
C-ROAD-ASSUMP
10
11505.3059
20
9484.1605
30
0.0
0
VERTEX
8
C-ROAD-ASSUMP
10
11514.3051
20
9485.5301
30
0.0
0
VERTEX
8
C-ROAD-ASSUMP
10
11523.2755
20
9487.0777
30
0.0
0
VERTEX
8
C-ROAD-ASSUMP
10
11532.2134
20
9488.8027
30
0.0
0
VERTEX
8
C-ROAD-ASSUMP
10
11541.1154
20
9490.7046
30
0.0
0
VERTEX
8
C-ROAD-ASSUMP
10
11549.9780
20
9492.7824
30
0.0
0
VERTEX
8
C-ROAD-ASSUMP
10
11558.7976
20
9495.0355
30
0.0
0
VERTEX
8
C-ROAD-ASSUMP
10
11567.5709
20
9497.4628
30
0.0
0
VERTEX
8
C-ROAD-ASSUMP
10
11576.2943
20
9500.0636
30
0.0
0
VERTEX
8
C-ROAD-ASSUMP
10
11584.9645
20
9502.8367
30
0.0
0
VERTEX
8
C-ROAD-ASSUMP
10
11593.5781
20
9505.7810
30
0.0
0
VERTEX
8
C-ROAD-ASSUMP
10
11602.1316
20
9508.8955
30
0.0
0
VERTEX
8
C-ROAD-ASSUMP
10
11610.6217
20
9512.1788
30
0.0
0
VERTEX
8
C-ROAD-ASSUMP
10
11619.0451
20
9515.6297
30
0.0
0
VERTEX
8
C-ROAD-ASSUMP
10
11627.3985
20
9519.2469
30
0.0
0
VERTEX
8
C-ROAD-ASSUMP
10
11635.6785
20
9523.0289
30
0.0
0
VERTEX
8
C-ROAD-ASSUMP
10
11643.8820
20
9526.9742
30
0.0
0
VERTEX
8
C-ROAD-ASSUMP
10
11652.0056
20
9531.0813
30
0.0
0
VERTEX
8
C-ROAD-ASSUMP
10
11660.0463
20
9535.3485
30
0.0
0
VERTEX
8
C-ROAD-ASSUMP
10
11668.0009
20
9539.7743
30
0.0
0
VERTEX
8
C-ROAD-ASSUMP
10
11675.8662
20
9544.3568
30
0.0
0
VERTEX
8
C-ROAD-ASSUMP
10
11683.6392
20
9549.0942
30
0.0
0
VERTEX
8
C-ROAD-ASSUMP
10
11691.3167
20
9553.9848
30
0.0
0
VERTEX
8
C-ROAD-ASSUMP
10
11698.8959
20
9559.0265
30
0.0
0
VERTEX
8
C-ROAD-ASSUMP
10
11706.3736
20
9564.2175
30
0.0
0
VERTEX
8
C-ROAD-ASSUMP
10
11713.7470
20
9569.5555
30
0.0
0
VERTEX
8
C-ROAD-ASSUMP
10
11721.0132
20
9575.0387
30
0.0
0
VERTEX
8
C-ROAD-ASSUMP
10
11728.1693
20
9580.6647
30
0.0
0
SEQEND
0
TEXT
8
C-ROAD-TEXT
7
STANDARD
10
11602.1316
20
9516.8955
30
0.0
40
5.0
1
Sands Avenue CURVE: R=459.36', L=291.30', Delta=36.33%%d
50
0.0
72
1
11
11602.1316
21
9516.8955
31
0.0
73
2
0
POLYLINE
8
C-ROAD-CURV
66
1
70
0
0
VERTEX
8
C-ROAD-CURV
10
10318.6554
20
8619.9749
30
0.0
0
VERTEX
8
C-ROAD-CURV
10
10323.9806
20
8616.2823
30
0.0
0
VERTEX
8
C-ROAD-CURV
10
10329.3779
20
8612.6960
30
0.0
0
VERTEX
8
C-ROAD-CURV
10
10334.8452
20
8609.2174
30
0.0
0
VERTEX
8
C-ROAD-CURV
10
10340.3804
20
8605.8478
30
0.0
0
VERTEX
8
C-ROAD-CURV
10
10345.9813
20
8602.5885
30
0.0
0
VERTEX
8
C-ROAD-CURV
10
10351.6456
20
8599.4408
30
0.0
0
VERTEX
8
C-ROAD-CURV
10
10357.3713
20
8596.4060
30
0.0
0
VERTEX
8
C-ROAD-CURV
10
10363.1559
20
8593.4853
30
0.0
0
VERTEX
8
C-ROAD-CURV
10
10368.9972
20
8590.6797
30
0.0
0
VERTEX
8
C-ROAD-CURV
10
10374.8931
20
8587.9905
30
0.0
0
VERTEX
8
C-ROAD-CURV
10
10380.8410
20
8585.4186
30
0.0
0
VERTEX
8
C-ROAD-CURV
10
10386.8387
20
8582.9651
30
0.0
0
VERTEX
8
C-ROAD-CURV
10
10392.8839
20
8580.6309
30
0.0
0
VERTEX
8
C-ROAD-CURV
10
10398.9742
20
8578.4169
30
0.0
0
VERTEX
8
C-ROAD-CURV
10
10405.1071
20
8576.3241
30
0.0
0
VERTEX
8
C-ROAD-CURV
10
10411.2803
20
8574.3532
30
0.0
0
VERTEX
8
C-ROAD-CURV
10
10417.4913
20
8572.5050
30
0.0
0
VERTEX
8
C-ROAD-CURV
10
10423.7377
20
8570.7802
30
0.0
0
VERTEX
8
C-ROAD-CURV
10
10430.0171
20
8569.1796
30
0.0
0
VERTEX
8
C-ROAD-CURV
10
10436.3270
20
8567.7037
30
0.0
0
VERTEX
8
C-ROAD-CURV
10
10442.6648
20
8566.3531
30
0.0
0
VERTEX
8
C-ROAD-CURV
10
10449.0282
20
8565.1284
30
0.0
0
VERTEX
8
C-ROAD-CURV
10
10455.4146
20
8564.0300
30
0.0
0
VERTEX
8
C-ROAD-CURV
10
10461.8215
20
8563.0584
30
0.0
0
VERTEX
8
C-ROAD-CURV
10
10468.2464
20
8562.2140
30
0.0
0
VERTEX
8
C-ROAD-CURV
10
10474.6868
20
8561.4970
30
0.0
0
VERTEX
8
C-ROAD-CURV
10
10481.1402
20
8560.9077
30
0.0
0
VERTEX
8
C-ROAD-CURV
10
10487.6039
20
8560.4465
30
0.0
0
VERTEX
8
C-ROAD-CURV
10
10494.0755
20
8560.1134
30
0.0
0
VERTEX
8
C-ROAD-CURV
10
10500.5524
20
8559.9087
30
0.0
0
VERTEX
8
C-ROAD-CURV
10
10507.0322
20
8559.8323
30
0.0
0
VERTEX
8
C-ROAD-CURV
10
10513.5121
20
8559.8843
30
0.0
0
SEQEND
0
TEXT
8
C-ROAD-TEXT
7
STANDARD
10
10411.2803
20
8582.3532
30
0.0
40
5.0
1
Cape Horn Avenue CURVE: R=327.01', L=207.37', Delta=36.33%%d
50
0.0
72
1
11
10411.2803
21
8582.3532
31
0.0
73
2
0
POLYLINE
8
C-ROAD-CULDESAC
66
1
70
0
0
VERTEX
8
C-ROAD-CULDESAC
10
10510.0473
20
9060.4627
30
0.0
0
VERTEX
8
C-ROAD-CULDESAC
10
10518.7298
20
9059.7031
30
0.0
0
VERTEX
8
C-ROAD-CULDESAC
10
10527.1484
20
9057.4473
30
0.0
0
VERTEX
8
C-ROAD-CULDESAC
10
10535.0473
20
9053.7640
30
0.0
0
VERTEX
8
C-ROAD-CULDESAC
10
10542.1867
20
9048.7649
30
0.0
0
VERTEX
8
C-ROAD-CULDESAC
10
10548.3496
20
9042.6021
30
0.0
0
VERTEX
8
C-ROAD-CULDESAC
10
10553.3486
20
9035.4627
30
0.0
0
VERTEX
8
C-ROAD-CULDESAC
10
10557.0320
20
9027.5637
30
0.0
0
VERTEX
8
C-ROAD-CULDESAC
10
10559.2877
20
9019.1451
30
0.0
0
VERTEX
8
C-ROAD-CULDESAC
10
10560.0473
20
9010.4627
30
0.0
0
VERTEX
8
C-ROAD-CULDESAC
10
10559.2877
20
9001.7803
30
0.0
0
VERTEX
8
C-ROAD-CULDESAC
10
10557.0320
20
8993.3617
30
0.0
0
VERTEX
8
C-ROAD-CULDESAC
10
10553.3486
20
8985.4627
30
0.0
0
VERTEX
8
C-ROAD-CULDESAC
10
10548.3496
20
8978.3233
30
0.0
0
VERTEX
8
C-ROAD-CULDESAC
10
10542.1867
20
8972.1605
30
0.0
0
VERTEX
8
C-ROAD-CULDESAC
10
10535.0473
20
8967.1614
30
0.0
0
VERTEX
8
C-ROAD-CULDESAC
10
10527.1484
20
8963.4781
30
0.0
0
VERTEX
8
C-ROAD-CULDESAC
10
10518.7298
20
8961.2223
30
0.0
0
VERTEX
8
C-ROAD-CULDESAC
10
10510.0473
20
8960.4627
30
0.0
0
VERTEX
8
C-ROAD-CULDESAC
10
10501.3649
20
8961.2223
30
0.0
0
VERTEX
8
C-ROAD-CULDESAC
10
10492.9463
20
8963.4781
30
0.0
0
VERTEX
8
C-ROAD-CULDESAC
10
10485.0473
20
8967.1614
30
0.0
0
VERTEX
8
C-ROAD-CULDESAC
10
10477.9080
20
8972.1605
30
0.0
0
VERTEX
8
C-ROAD-CULDESAC
10
10471.7451
20
8978.3233
30
0.0
0
VERTEX
8
C-ROAD-CULDESAC
10
10466.7461
20
8985.4627
30
0.0
0
VERTEX
8
C-ROAD-CULDESAC
10
10463.0627
20
8993.3617
30
0.0
0
VERTEX
8
C-ROAD-CULDESAC
10
10460.8070
20
9001.7803
30
0.0
0
VERTEX
8
C-ROAD-CULDESAC
10
10460.0473
20
9010.4627
30
0.0
0
VERTEX
8
C-ROAD-CULDESAC
10
10460.8070
20
9019.1451
30
0.0
0
VERTEX
8
C-ROAD-CULDESAC
10
10463.0627
20
9027.5637
30
0.0
0
VERTEX
8
C-ROAD-CULDESAC
10
10466.7461
20
9035.4627
30
0.0
0
VERTEX
8
C-ROAD-CULDESAC
10
10471.7451
20
9042.6021
30
0.0
0
VERTEX
8
C-ROAD-CULDESAC
10
10477.9080
20
9048.7649
30
0.0
0
VERTEX
8
C-ROAD-CULDESAC
10
10485.0473
20
9053.7640
30
0.0
0
VERTEX
8
C-ROAD-CULDESAC
10
10492.9463
20
9057.4473
30
0.0
0
VERTEX
8
C-ROAD-CULDESAC
10
10501.3649
20
9059.7031
30
0.0
0
VERTEX
8
C-ROAD-CULDESAC
10
10510.0473
20
9060.4627
30
0.0
0
SEQEND
0
TEXT
8
C-ROAD-ASSUMP-TEXT
7
STANDARD
10
10510.0473
20
8952.4627
30
0.0
40
5.5
1
OPEN CUL-DE-SAC: Keel Drive (R=50.0')
50
0.0
72
1
11
10510.0473
21
8952.4627
31
0.0
73
2
0
POINT
8
C-ROAD-INTX
10
10000.0000
20
10000.0000
30
0.0
0
TEXT
8
C-ROAD-TEXT
7
STANDARD
10
10003.0000
20
10003.0000
30
0.0
40
3.5
1
Starfish Ave & Mangrove Ave
50
0.0
0
POINT
8
C-ROAD-TIE
10
9992.4362
20
10179.8410
30
0.0
0
TEXT
8
C-ROAD-TEXT
7
STANDARD
10
9995.4362
20
10182.8410
30
0.0
40
3.5
1
Mangrove Ave & Sec 32 North Line (Subdivision Limit)
50
0.0
0
POINT
8
C-ROAD-INTX
10
10010.9255
20
9740.2297
30
0.0
0
TEXT
8
C-ROAD-TEXT
7
STANDARD
10
10013.9255
20
9743.2297
30
0.0
40
3.5
1
Sail Ave & Mangrove Ave
50
0.0
0
POINT
8
C-ROAD-INTX
10
10021.8509
20
9480.4593
30
0.0
0
TEXT
8
C-ROAD-TEXT
7
STANDARD
10
10024.8509
20
9483.4593
30
0.0
40
3.5
1
South St & Mangrove Ave
50
0.0
0
POINT
8
C-ROAD-INTX
10
10023.1325
20
9449.9862
30
0.0
0
TEXT
8
C-ROAD-TEXT
7
STANDARD
10
10026.1325
20
9452.9862
30
0.0
40
3.5
1
Mangrove Ave Deflection Point (N-Leg to S-Leg)
50
0.0
0
POINT
8
C-ROAD-INTX
10
10027.0787
20
9230.0216
30
0.0
0
TEXT
8
C-ROAD-TEXT
7
STANDARD
10
10030.0787
20
9233.0216
30
0.0
40
3.5
1
Shellfish Dr & Mangrove Ave
50
0.0
0
POINT
8
C-ROAD-INTX
10
10045.0560
20
8227.9429
30
0.0
0
TEXT
8
C-ROAD-TEXT
7
STANDARD
10
10048.0560
20
8230.9429
30
0.0
40
3.5
1
Surfwood Ave & Mangrove Ave
50
0.0
0
POINT
8
C-ROAD-INTX
10
10047.7466
20
8077.9670
30
0.0
0
TEXT
8
C-ROAD-TEXT
7
STANDARD
10
10050.7466
20
8080.9670
30
0.0
40
3.5
1
Bayou Ave & Mangrove Ave
50
0.0
0
POINT
8
C-ROAD-TIE
10
10050.0784
20
7947.9879
30
0.0
0
TEXT
8
C-ROAD-TEXT
7
STANDARD
10
10053.0784
20
7950.9879
30
0.0
40
3.5
1
Mangrove Ave & Plat South Limit
50
0.0
0
POINT
8
C-ROAD-TIE
10
9865.0693
20
8225.7613
30
0.0
0
TEXT
8
C-ROAD-TEXT
7
STANDARD
10
9868.0693
20
8228.7613
30
0.0
40
3.5
1
Surfwood Ave & West Boundary (Course 2)
50
0.0
0
POINT
8
C-ROAD-TIE
10
10489.6234
20
8233.3315
30
0.0
0
TEXT
8
C-ROAD-TEXT
7
STANDARD
10
10492.6234
20
8236.3315
30
0.0
40
3.5
1
Surfwood Ave & Unit One Matchline
50
0.0
0
POINT
8
C-ROAD-INTX
10
10250.0000
20
8350.0000
30
0.0
0
TEXT
8
C-ROAD-TEXT
7
STANDARD
10
10253.0000
20
8353.0000
30
0.0
40
3.5
1
San Salvadore Ave P.C. (Point of Curvature)
50
0.0
0
POINT
8
C-ROAD-INTX
10
10428.7384
20
8294.8801
30
0.0
0
TEXT
8
C-ROAD-TEXT
7
STANDARD
10
10431.7384
20
8297.8801
30
0.0
40
3.5
1
San Salvadore Ave P.T. (Point of Tangency)
50
0.0
0
POINT
8
C-ROAD-ASSUMP-INTX
10
10330.3257
20
8293.1146
30
0.0
0
TEXT
8
C-ROAD-TEXT
7
STANDARD
10
10333.3257
20
8296.1146
30
0.0
40
3.5
1
Assumed P.I. Tie (San Salvadore to Surfwood)
50
0.0
0
POINT
8
C-ROAD-TIE
10
10522.6758
20
8475.4907
30
0.0
0
TEXT
8
C-ROAD-TEXT
7
STANDARD
10
10525.6758
20
8478.4907
30
0.0
40
3.5
1
Cape Horn Ave & Unit One Matchline (P.R.M. Monument)
50
0.0
0
POINT
8
C-ROAD-TIE
10
9820.1590
20
9992.4362
30
0.0
0
TEXT
8
C-ROAD-TEXT
7
STANDARD
10
9823.1590
20
9995.4362
30
0.0
40
3.5
1
Starfish Ave & West Boundary (Course 1)
50
0.0
0
POINT
8
C-ROAD-INTX
10
11452.2162
20
10061.0775
30
0.0
0
TEXT
8
C-ROAD-TEXT
7
STANDARD
10
11455.2162
20
10064.0775
30
0.0
40
3.5
1
Starfish Ave & Beachwood Blvd
50
0.0
0
POINT
8
C-ROAD-TIE
10
9831.0844
20
9732.6659
30
0.0
0
TEXT
8
C-ROAD-TEXT
7
STANDARD
10
9834.0844
20
9735.6659
30
0.0
40
3.5
1
Sail Ave & West Boundary (Course 1)
50
0.0
0
POINT
8
C-ROAD-INTX
10
11463.1416
20
9801.3071
30
0.0
0
TEXT
8
C-ROAD-TEXT
7
STANDARD
10
11466.1416
20
9804.3071
30
0.0
40
3.5
1
Sail Ave & Beachwood Blvd
50
0.0
0
POINT
8
C-ROAD-TIE
10
9842.0099
20
9472.8955
30
0.0
0
TEXT
8
C-ROAD-TEXT
7
STANDARD
10
9845.0099
20
9475.8955
30
0.0
40
3.5
1
South St & West Boundary (Course 1)
50
0.0
0
POINT
8
C-ROAD-INTX
10
10279.8828
20
9491.3116
30
0.0
0
TEXT
8
C-ROAD-TEXT
7
STANDARD
10
10282.8828
20
9494.3116
30
0.0
40
3.5
1
South St & Marina Ave P.C.
50
0.0
0
POINT
8
C-ROAD-INTX
10
10539.8129
20
9414.5717
30
0.0
0
TEXT
8
C-ROAD-TEXT
7
STANDARD
10
10542.8129
20
9417.5717
30
0.0
40
3.5
1
Marina Ave P.T. (Point of Tangency)
50
0.0
0
POINT
8
C-ROAD-INTX
10
10700.3939
20
9279.2435
30
0.0
0
TEXT
8
C-ROAD-TEXT
7
STANDARD
10
10703.3939
20
9282.2435
30
0.0
40
3.5
1
Marina Ave & Keel Drive
50
0.0
0
POINT
8
C-ROAD-INTX
10
10480.7779
20
8969.1325
30
0.0
0
TEXT
8
C-ROAD-TEXT
7
STANDARD
10
10483.7779
20
8972.1325
30
0.0
40
3.5
1
Keel Drive Southwest Terminus
50
0.0
0
POINT
8
C-ROAD-INTX
10
10550.5029
20
9067.5884
30
0.0
0
TEXT
8
C-ROAD-TEXT
7
STANDARD
10
10553.5029
20
9070.5884
30
0.0
40
3.5
1
Keel Drive Curve P.C.
50
0.0
0
POINT
8
C-ROAD-INTX
10
10661.9134
20
9128.2088
30
0.0
0
TEXT
8
C-ROAD-TEXT
7
STANDARD
10
10664.9134
20
9131.2088
30
0.0
40
3.5
1
Keel Drive Curve P.T.
50
0.0
0
POINT
8
C-ROAD-ASSUMP-INTX
10
10510.0473
20
9010.4627
30
0.0
0
TEXT
8
C-ROAD-TEXT
7
STANDARD
10
10513.0473
20
9013.4627
30
0.0
40
3.5
1
Keel Drive Open-Ended Cul-de-Sac Terminus
50
0.0
0
POINT
8
C-ROAD-ASSUMP-INTX
10
11514.8749
20
9455.1516
30
0.0
0
TEXT
8
C-ROAD-TEXT
7
STANDARD
10
11517.8749
20
9458.1516
30
0.0
40
3.5
1
Assumed Beachwood Blvd & Sands Ave Intersection
50
0.0
0
POINT
8
C-ROAD-ASSUMP-INTX
10
11460.0000
20
9480.0000
30
0.0
0
TEXT
8
C-ROAD-TEXT
7
STANDARD
10
11463.0000
20
9483.0000
30
0.0
40
3.5
1
Assumed Sands Ave Curve P.C.
50
0.0
0
POINT
8
C-ROAD-TIE
10
9847.2377
20
9222.4579
30
0.0
0
TEXT
8
C-ROAD-TEXT
7
STANDARD
10
9850.2377
20
9225.4579
30
0.0
40
3.5
1
Shellfish Dr & West Boundary (Course 2)
50
0.0
0
POINT
8
C-ROAD-INTX
10
10678.3200
20
9247.9100
30
0.0
0
TEXT
8
C-ROAD-TEXT
7
STANDARD
10
10681.3200
20
9250.9100
30
0.0
40
3.5
1
Shellfish Dr & Keel Drive Intersection
50
0.0
0
POINT
8
C-ROAD-ASSUMP-INTX
10
11189.6664
20
9574.6989
30
0.0
0
TEXT
8
C-ROAD-TEXT
7
STANDARD
10
11192.6664
20
9577.6989
30
0.0
40
3.5
1
Assumed Sands Ave Curve P.T.
50
0.0
0
POINT
8
C-ROAD-INTX
10
10318.6554
20
8619.9749
30
0.0
0
TEXT
8
C-ROAD-TEXT
7
STANDARD
10
10321.6554
20
8622.9749
30
0.0
40
3.5
1
Cape Horn Ave Curve P.C.
50
0.0
0
POINT
8
C-ROAD-INTX
10
10515.0183
20
8565.0057
30
0.0
0
TEXT
8
C-ROAD-TEXT
7
STANDARD
10
10518.0183
20
8568.0057
30
0.0
40
3.5
1
Cape Horn Ave Curve P.T.
50
0.0
0
POINT
8
C-ROAD-ASSUMP-INTX
10
10422.9526
20
9497.3289
30
0.0
0
TEXT
8
C-ROAD-TEXT
7
STANDARD
10
10425.9526
20
9500.3289
30
0.0
40
3.5
1
Marina Avenue Projected P.I. (T=143.20')
50
0.0
0
POINT
8
C-ROAD-ASSUMP-INTX
10
10330.3257
20
8293.1146
30
0.0
0
TEXT
8
C-ROAD-TEXT
7
STANDARD
10
10333.3257
20
8296.1146
30
0.0
40
3.5
1
San Salvadore Projected P.I. (T=98.42')
50
0.0
0
POINT
8
C-ROAD-ASSUMP-INTX
10
11457.6932
20
9930.8526
30
0.0
0
TEXT
8
C-ROAD-TEXT
7
STANDARD
10
11460.6932
20
9933.8526
30
0.0
40
3.5
1
Beachwood Blvd Projected P.I. (T=130.34')
50
0.0
0
POINT
8
C-ROAD-ASSUMP-INTX
10
11309.3993
20
9473.6660
30
0.0
0
TEXT
8
C-ROAD-TEXT
7
STANDARD
10
11312.3993
20
9476.6660
30
0.0
40
3.5
1
Sands Avenue Projected P.I. (T=150.73')
50
0.0
0
POINT
8
C-ROAD-ASSUMP-INTX
10
10591.3311
20
9125.2402
30
0.0
0
TEXT
8
C-ROAD-TEXT
7
STANDARD
10
10594.3311
20
9128.2402
30
0.0
40
3.5
1
Keel Drive Projected P.I. (T=70.64')
50
0.0
0
POINT
8
C-ROAD-ASSUMP-INTX
10
10406.2247
20
8557.9596
30
0.0
0
TEXT
8
C-ROAD-TEXT
7
STANDARD
10
10409.2247
20
8560.9596
30
0.0
40
3.5
1
Cape Horn Projected P.I. (T=107.30')
50
0.0
0
POINT
8
CONTROL
10
10000.0000
20
10000.0000
30
0.0
0
TEXT
8
CONTROL
7
STANDARD
10
10000.0000
20
10012.0000
30
0.0
40
6.0
1
GROUND GPS TIE: Starfish & Mangrove (30.292130%%dN, -81.530280%%dW) [ZERO FUDGING]
50
0.0
72
1
11
10000.0000
21
10012.0000
31
0.0
73
2
0
TEXT
8
TITLEBLOCK
7
STANDARD
10
9750.0000
20
10180.0000
30
0.0
40
10.0
1
BEACHWOOD UNIT TWO -- ROAD CENTERLINE NETWORK & CLOSED BOUNDARY
50
0.0
0
TEXT
8
TITLEBLOCK
7
STANDARD
10
9750.0000
20
10168.0000
30
0.0
40
7.0
1
100-Agent Multiagent Consensus Cadastral Reconstruction | Scale 1" = 100'
50
0.0
0
TEXT
8
TITLEBLOCK
7
STANDARD
10
9750.0000
20
10158.0000
30
0.0
40
5.5
1
Plat Book 30, Pages 82 & 82A, Duval County, FL (Duval_Plat_Book_30_Page_82-2.pdf)
50
0.0
0
TEXT
8
TITLEBLOCK
7
STANDARD
10
9750.0000
20
10148.0000
30
0.0
40
5.0
1
RULE: Closed Outer Boundary + Parallel Centerline Offsets + Open-Ended Cul-de-Sac
50
0.0
0
ENDSEC
0
EOF
