0
SECTION
2
HEADER
9
$ACADVER
1
AC1009
9
$DWGCODEPAGE
3
ANSI_1252
0
ENDSEC
0
SECTION
2
TABLES
0
TABLE
2
LTYPE
70
24
0
LTYPE
2
CONTINUOUS
70
0
3
Solid
72
65
73
0
40
0.0
0
LTYPE
2
DASHED
70
0
3
Dashed
72
65
73
2
40
0.75
49
0.5
74
0
49
-0.25
74
0
0
LTYPE
2
DASHED2
70
0
3
Dashed (.5x)
72
65
73
2
40
0.375
49
0.25
74
0
49
-0.125
74
0
0
LTYPE
2
HIDDEN
70
0
3
Hidden
72
65
73
2
40
0.375
49
0.25
74
0
49
-0.125
74
0
0
LTYPE
2
CENTER
70
0
3
Center
72
65
73
4
40
2.0
49
1.25
74
0
49
-0.25
74
0
49
0.25
74
0
49
-0.25
74
0
0
LTYPE
2
PHANTOM
70
0
3
Phantom
72
65
73
6
40
2.5
49
1.25
74
0
49
-0.25
74
0
49
0.25
74
0
49
-0.25
74
0
49
0.25
74
0
49
-0.25
74
0
0
LTYPE
2
ROT_11.23
70
0
3
Solid
72
65
73
0
40
0.0
0
LTYPE
2
ROT_271.03
70
0
3
Solid
72
65
73
0
40
0.0
0
LTYPE
2
ROT_319.31
70
0
3
Solid
72
65
73
0
40
0.0
0
LTYPE
2
ROT_324.69
70
0
3
Solid
72
65
73
0
40
0.0
0
LTYPE
2
ROT_325.36
70
0
3
Solid
72
65
73
0
40
0.0
0
LTYPE
2
ROT_330.03
70
0
3
Solid
72
65
73
0
40
0.0
0
LTYPE
2
ROT_333.20
70
0
3
Solid
72
65
73
0
40
0.0
0
LTYPE
2
ROT_336.53
70
0
3
Solid
72
65
73
0
40
0.0
0
LTYPE
2
ROT_341.69
70
0
3
Solid
72
65
73
0
40
0.0
0
LTYPE
2
ROT_354.03
70
0
3
Solid
72
65
73
0
40
0.0
0
LTYPE
2
ROT_354.53
70
0
3
Solid
72
65
73
0
40
0.0
0
LTYPE
2
ROT_46.03
70
0
3
Solid
72
65
73
0
40
0.0
0
LTYPE
2
ROT_54.69
70
0
3
Solid
72
65
73
0
40
0.0
0
LTYPE
2
ROT_54.70
70
0
3
Solid
72
65
73
0
40
0.0
0
LTYPE
2
ROT_66.12
70
0
3
Solid
72
65
73
0
40
0.0
0
LTYPE
2
ROT_73.13
70
0
3
Solid
72
65
73
0
40
0.0
0
LTYPE
2
ROT_80.23
70
0
3
Solid
72
65
73
0
40
0.0
0
LTYPE
2
ROT_86.92
70
0
3
Solid
72
65
73
0
40
0.0
0
ENDTAB
0
TABLE
2
LAYER
70
6
0
LAYER
2
0
70
0
62
7
6
CONTINUOUS
0
LAYER
2
LOT_POLYLINE
70
0
62
4
6
CONTINUOUS
0
LAYER
2
SHEET_LABELS
70
0
62
7
6
CONTINUOUS
0
LAYER
2
SHEET_FRAME
70
0
62
2
6
CONTINUOUS
0
LAYER
2
ERROR
70
0
62
1
6
CONTINUOUS
0
LAYER
2
TITLEBLOCK
70
0
62
2
6
CONTINUOUS
0
ENDTAB
0
TABLE
2
STYLE
70
4
0
STYLE
2
STANDARD
70
0
40
0.0
41
1.0
50
0.0
71
0
42
0.2
3
Arial
4

0
STYLE
2
ARIAL
70
0
40
0.0
41
1.0
50
0.0
71
0
42
0.2
3
Arial
4

0
STYLE
2
ARIAL_TTF
70
0
40
0.0
41
1.0
50
0.0
71
0
42
0.2
3
arial.ttf
4

0
STYLE
2
SIMPLEX
70
0
40
0.0
41
1.0
50
0.0
71
0
42
0.2
3
simplex.shx
4

0
ENDTAB
0
ENDSEC
0
SECTION
2
ENTITIES
0
LINE
8
SHEET_FRAME
10
0.0000
20
0.0000
30
0.0
11
300.0000
21
0.0000
31
0.0
0
LINE
8
SHEET_FRAME
10
300.0000
20
0.0000
30
0.0
11
300.0000
21
260.0000
31
0.0
0
LINE
8
SHEET_FRAME
10
300.0000
20
260.0000
30
0.0
11
0.0000
21
260.0000
31
0.0
0
LINE
8
SHEET_FRAME
10
0.0000
20
260.0000
30
0.0
11
0.0000
21
0.0000
31
0.0
0
POLYLINE
8
LOT_POLYLINE
66
1
70
1
0
VERTEX
8
LOT_POLYLINE
10
28.5560
20
26.0000
30
0.0
0
VERTEX
8
LOT_POLYLINE
10
26.0000
20
168.4722
30
0.0
0
VERTEX
8
LOT_POLYLINE
10
56.4166
20
200.0000
30
0.0
0
VERTEX
8
LOT_POLYLINE
10
145.6299
20
190.6675
30
0.0
0
VERTEX
8
LOT_POLYLINE
10
137.9380
20
47.7211
30
0.0
0
SEQEND
0
POLYLINE
8
LOT_POLYLINE
66
1
70
0
0
VERTEX
8
LOT_POLYLINE
10
26.0000
20
168.4722
30
0.0
0
VERTEX
8
LOT_POLYLINE
10
26.0947
20
171.5106
30
0.0
0
VERTEX
8
LOT_POLYLINE
10
26.4867
20
174.5252
30
0.0
0
VERTEX
8
LOT_POLYLINE
10
27.1724
20
177.4868
30
0.0
0
VERTEX
8
LOT_POLYLINE
10
28.1450
20
180.3670
30
0.0
0
VERTEX
8
LOT_POLYLINE
10
29.3952
20
183.1380
30
0.0
0
VERTEX
8
LOT_POLYLINE
10
30.9111
20
185.7730
30
0.0
0
VERTEX
8
LOT_POLYLINE
10
32.6779
20
188.2468
30
0.0
0
VERTEX
8
LOT_POLYLINE
10
34.6787
20
190.5355
30
0.0
0
VERTEX
8
LOT_POLYLINE
10
36.8941
20
192.6171
30
0.0
0
VERTEX
8
LOT_POLYLINE
10
39.3030
20
194.4715
30
0.0
0
VERTEX
8
LOT_POLYLINE
10
41.8820
20
196.0809
30
0.0
0
VERTEX
8
LOT_POLYLINE
10
44.6063
20
197.4297
30
0.0
0
VERTEX
8
LOT_POLYLINE
10
47.4497
20
198.5050
30
0.0
0
VERTEX
8
LOT_POLYLINE
10
50.3849
20
199.2965
30
0.0
0
VERTEX
8
LOT_POLYLINE
10
53.3834
20
199.7964
30
0.0
0
VERTEX
8
LOT_POLYLINE
10
56.4166
20
200.0000
30
0.0
0
SEQEND
0
TEXT
8
SHEET_LABELS
6
ROT_271.03
7
STANDARD
10
30.2775
20
97.2899
30
0.0
40
3.4
1
N01%%d01'40.00"W
50
271.03
0
TEXT
8
SHEET_LABELS
6
ROT_271.03
7
STANDARD
10
24.2785
20
97.1823
30
0.0
40
3.2
1
115.00'
50
271.03
0
POINT
8
SHEET_LABELS
10
28.5560
20
26.0000
30
0.0
0
TEXT
8
SHEET_LABELS
6
ROT_46.03
7
STANDARD
10
43.3673
20
182.1531
30
0.0
40
3.4
1
N43%%d58'20.00"E
50
46.03
0
TEXT
8
SHEET_LABELS
6
ROT_46.03
7
STANDARD
10
39.0493
20
186.3190
30
0.0
40
3.2
1
35.36'
50
46.03
0
POINT
8
SHEET_LABELS
10
26.0000
20
168.4722
30
0.0
0
TEXT
8
SHEET_LABELS
6
ROT_354.03
7
STANDARD
10
101.3354
20
198.3175
30
0.0
40
3.4
1
S84%%d01'41.08"E
50
354.03
0
TEXT
8
SHEET_LABELS
6
ROT_354.03
7
STANDARD
10
100.7111
20
192.3500
30
0.0
40
3.2
1
72.39'
50
354.03
0
POINT
8
SHEET_LABELS
10
56.4166
20
200.0000
30
0.0
0
TEXT
8
SHEET_LABELS
6
ROT_86.92
7
STANDARD
10
144.7796
20
119.0331
30
0.0
40
3.4
1
S03%%d04'48.38"W
50
86.92
0
TEXT
8
SHEET_LABELS
6
ROT_86.92
7
STANDARD
10
138.7883
20
119.3555
30
0.0
40
3.2
1
115.53'
50
86.92
0
POINT
8
SHEET_LABELS
10
145.6299
20
190.6675
30
0.0
0
TEXT
8
SHEET_LABELS
6
ROT_11.23
7
STANDARD
10
83.8313
20
33.9180
30
0.0
40
3.4
1
S78%%d46'06.00"W
50
11.23
0
TEXT
8
SHEET_LABELS
6
ROT_11.23
7
STANDARD
10
82.6627
20
39.8031
30
0.0
40
3.2
1
90.00'
50
11.23
0
POINT
8
SHEET_LABELS
10
137.9380
20
47.7211
30
0.0
0
TEXT
8
SHEET_LABELS
7
STANDARD
10
8.0000
20
250.0000
30
0.0
40
8.0
1
LOT Blk 9 - Lot 27   PASS
50
0.0
0
TEXT
8
SHEET_LABELS
7
STANDARD
10
8.0000
20
239.0000
30
0.0
40
4.6
1
AREA 11,793 SF (0.271 ac)
50
0.0
0
TEXT
8
SHEET_LABELS
7
STANDARD
10
8.0000
20
232.0000
30
0.0
40
4.0
1
PERIMETER 428.28'   VERTICES 5   CLOSING SIDE 0.00'
50
0.0
0
TEXT
8
SHEET_LABELS
7
STANDARD
10
8.0000
20
225.0000
30
0.0
40
3.4
1
all geometric checks passed: closed single polyline, no self-intersection, no overlap, no spikes
50
0.0
0
LINE
8
SHEET_FRAME
10
340.0000
20
0.0000
30
0.0
11
640.0000
21
0.0000
31
0.0
0
LINE
8
SHEET_FRAME
10
640.0000
20
0.0000
30
0.0
11
640.0000
21
260.0000
31
0.0
0
LINE
8
SHEET_FRAME
10
640.0000
20
260.0000
30
0.0
11
340.0000
21
260.0000
31
0.0
0
LINE
8
SHEET_FRAME
10
340.0000
20
260.0000
30
0.0
11
340.0000
21
0.0000
31
0.0
0
POLYLINE
8
LOT_POLYLINE
66
1
70
1
0
VERTEX
8
LOT_POLYLINE
10
366.0000
20
62.2401
30
0.0
0
VERTEX
8
LOT_POLYLINE
10
373.4128
20
200.0000
30
0.0
0
VERTEX
8
LOT_POLYLINE
10
491.9811
20
148.5134
30
0.0
0
VERTEX
8
LOT_POLYLINE
10
437.7432
20
26.0000
30
0.0
0
SEQEND
0
TEXT
8
SHEET_LABELS
6
ROT_86.92
7
STANDARD
10
372.7021
20
130.9589
30
0.0
40
3.4
1
N03%%d04'48.38"E
50
86.92
0
TEXT
8
SHEET_LABELS
6
ROT_86.92
7
STANDARD
10
366.7108
20
131.2813
30
0.0
40
3.2
1
115.53'
50
86.92
0
POINT
8
SHEET_LABELS
10
366.0000
20
62.2401
30
0.0
0
TEXT
8
SHEET_LABELS
6
ROT_336.53
7
STANDARD
10
433.8919
20
177.0084
30
0.0
40
3.4
1
S66%%d31'40.00"E
50
336.53
0
TEXT
8
SHEET_LABELS
6
ROT_336.53
7
STANDARD
10
431.5021
20
171.5049
30
0.0
40
3.2
1
108.25'
50
336.53
0
POINT
8
SHEET_LABELS
10
373.4128
20
200.0000
30
0.0
0
TEXT
8
SHEET_LABELS
6
ROT_66.12
7
STANDARD
10
467.6054
20
86.0422
30
0.0
40
3.4
1
S23%%d52'46.03"W
50
66.12
0
TEXT
8
SHEET_LABELS
6
ROT_66.12
7
STANDARD
10
462.1190
20
88.4711
30
0.0
40
3.2
1
112.20'
50
66.12
0
POINT
8
SHEET_LABELS
10
491.9811
20
148.5134
30
0.0
0
TEXT
8
SHEET_LABELS
6
ROT_333.20
7
STANDARD
10
403.2243
20
46.7978
30
0.0
40
3.4
1
N63%%d12'00.00"W
50
333.2
0
TEXT
8
SHEET_LABELS
6
ROT_333.20
7
STANDARD
10
400.5190
20
41.4423
30
0.0
40
3.2
1
67.31'
50
333.2
0
POINT
8
SHEET_LABELS
10
437.7432
20
26.0000
30
0.0
0
TEXT
8
SHEET_LABELS
7
STANDARD
10
348.0000
20
250.0000
30
0.0
40
8.0
1
LOT Blk 9 - Lot 28   PASS
50
0.0
0
TEXT
8
SHEET_LABELS
7
STANDARD
10
348.0000
20
239.0000
30
0.0
40
4.6
1
AREA 9,632 SF (0.221 ac)
50
0.0
0
TEXT
8
SHEET_LABELS
7
STANDARD
10
348.0000
20
232.0000
30
0.0
40
4.0
1
PERIMETER 403.29'   VERTICES 4   CLOSING SIDE 0.00'
50
0.0
0
TEXT
8
SHEET_LABELS
7
STANDARD
10
348.0000
20
225.0000
30
0.0
40
3.4
1
all geometric checks passed: closed single polyline, no self-intersection, no overlap, no spikes
50
0.0
0
LINE
8
SHEET_FRAME
10
680.0000
20
0.0000
30
0.0
11
980.0000
21
0.0000
31
0.0
0
LINE
8
SHEET_FRAME
10
980.0000
20
0.0000
30
0.0
11
980.0000
21
260.0000
31
0.0
0
LINE
8
SHEET_FRAME
10
980.0000
20
260.0000
30
0.0
11
680.0000
21
260.0000
31
0.0
0
LINE
8
SHEET_FRAME
10
680.0000
20
260.0000
30
0.0
11
680.0000
21
0.0000
31
0.0
0
POLYLINE
8
LOT_POLYLINE
66
1
70
1
0
VERTEX
8
LOT_POLYLINE
10
706.0000
20
66.0341
30
0.0
0
VERTEX
8
LOT_POLYLINE
10
765.3081
20
200.0000
30
0.0
0
VERTEX
8
LOT_POLYLINE
10
772.7316
20
194.8714
30
0.0
0
VERTEX
8
LOT_POLYLINE
10
860.7185
20
132.5604
30
0.0
0
VERTEX
8
LOT_POLYLINE
10
785.2540
20
26.0000
30
0.0
0
SEQEND
0
TEXT
8
SHEET_LABELS
6
ROT_66.12
7
STANDARD
10
738.3972
20
131.8026
30
0.0
40
3.4
1
N23%%d52'46.03"E
50
66.12
0
TEXT
8
SHEET_LABELS
6
ROT_66.12
7
STANDARD
10
732.9108
20
134.2315
30
0.0
40
3.2
1
112.20'
50
66.12
0
POINT
8
SHEET_LABELS
10
706.0000
20
66.0341
30
0.0
0
TEXT
8
SHEET_LABELS
6
ROT_325.36
7
STANDARD
10
770.7250
20
199.9040
30
0.0
40
3.4
1
S55%%d21'40.00"E
50
325.36
0
TEXT
8
SHEET_LABELS
6
ROT_325.36
7
STANDARD
10
767.3146
20
194.9675
30
0.0
40
3.2
1
6.91'
50
325.36
0
POINT
8
SHEET_LABELS
10
765.3081
20
200.0000
30
0.0
0
TEXT
8
SHEET_LABELS
6
ROT_324.69
7
STANDARD
10
818.4588
20
166.1642
30
0.0
40
3.4
1
S54%%d41'40.00"E
50
324.69
0
TEXT
8
SHEET_LABELS
6
ROT_324.69
7
STANDARD
10
814.9912
20
161.2677
30
0.0
40
3.2
1
82.57'
50
324.69
0
POINT
8
SHEET_LABELS
10
772.7316
20
194.8714
30
0.0
0
TEXT
8
SHEET_LABELS
6
ROT_54.69
7
STANDARD
10
825.4345
20
77.5464
30
0.0
40
3.4
1
S35%%d18'20.00"W
50
54.69
0
TEXT
8
SHEET_LABELS
6
ROT_54.69
7
STANDARD
10
820.5380
20
81.0140
30
0.0
40
3.2
1
100.00'
50
54.69
0
POINT
8
SHEET_LABELS
10
860.7185
20
132.5604
30
0.0
0
TEXT
8
SHEET_LABELS
6
ROT_333.20
7
STANDARD
10
746.9796
20
48.6948
30
0.0
40
3.4
1
N63%%d12'00.00"W
50
333.2
0
TEXT
8
SHEET_LABELS
6
ROT_333.20
7
STANDARD
10
744.2744
20
43.3393
30
0.0
40
3.2
1
68.00'
50
333.2
0
POINT
8
SHEET_LABELS
10
785.2540
20
26.0000
30
0.0
0
TEXT
8
SHEET_LABELS
7
STANDARD
10
688.0000
20
250.0000
30
0.0
40
8.0
1
LOT Blk 9 - Lot 29   PASS
50
0.0
0
TEXT
8
SHEET_LABELS
7
STANDARD
10
688.0000
20
239.0000
30
0.0
40
4.6
1
AREA 8,287 SF (0.190 ac)
50
0.0
0
TEXT
8
SHEET_LABELS
7
STANDARD
10
688.0000
20
232.0000
30
0.0
40
4.0
1
PERIMETER 369.68'   VERTICES 5   CLOSING SIDE 0.00'
50
0.0
0
TEXT
8
SHEET_LABELS
7
STANDARD
10
688.0000
20
225.0000
30
0.0
40
3.4
1
all geometric checks passed: closed single polyline, no self-intersection, no overlap, no spikes
50
0.0
0
LINE
8
SHEET_FRAME
10
0.0000
20
-300.0000
30
0.0
11
300.0000
21
-300.0000
31
0.0
0
LINE
8
SHEET_FRAME
10
300.0000
20
-300.0000
30
0.0
11
300.0000
21
-40.0000
31
0.0
0
LINE
8
SHEET_FRAME
10
300.0000
20
-40.0000
30
0.0
11
0.0000
21
-40.0000
31
0.0
0
LINE
8
SHEET_FRAME
10
0.0000
20
-40.0000
30
0.0
11
0.0000
21
-300.0000
31
0.0
0
POLYLINE
8
LOT_POLYLINE
66
1
70
1
0
VERTEX
8
LOT_POLYLINE
10
26.0000
20
-213.6409
30
0.0
0
VERTEX
8
LOT_POLYLINE
10
106.4788
20
-100.0000
30
0.0
0
VERTEX
8
LOT_POLYLINE
10
191.7095
20
-160.3591
30
0.0
0
VERTEX
8
LOT_POLYLINE
10
111.2307
20
-274.0000
30
0.0
0
SEQEND
0
TEXT
8
SHEET_LABELS
6
ROT_54.69
7
STANDARD
10
68.6876
20
-158.5543
30
0.0
40
3.4
1
N35%%d18'20.00"E
50
54.69
0
TEXT
8
SHEET_LABELS
6
ROT_54.69
7
STANDARD
10
63.7912
20
-155.0866
30
0.0
40
3.2
1
100.00'
50
54.69
0
POINT
8
SHEET_LABELS
10
26.0000
20
-213.6409
30
0.0
0
TEXT
8
SHEET_LABELS
6
ROT_324.69
7
STANDARD
10
150.8279
20
-127.7313
30
0.0
40
3.4
1
S54%%d41'40.00"E
50
324.69
0
TEXT
8
SHEET_LABELS
6
ROT_324.69
7
STANDARD
10
147.3603
20
-132.6278
30
0.0
40
3.2
1
75.00'
50
324.69
0
POINT
8
SHEET_LABELS
10
106.4788
20
-100.0000
30
0.0
0
TEXT
8
SHEET_LABELS
6
ROT_54.69
7
STANDARD
10
153.9183
20
-218.9134
30
0.0
40
3.4
1
S35%%d18'20.00"W
50
54.69
0
TEXT
8
SHEET_LABELS
6
ROT_54.69
7
STANDARD
10
149.0218
20
-215.4457
30
0.0
40
3.2
1
100.00'
50
54.69
0
POINT
8
SHEET_LABELS
10
191.7095
20
-160.3591
30
0.0
0
TEXT
8
SHEET_LABELS
6
ROT_324.69
7
STANDARD
10
70.3492
20
-241.3722
30
0.0
40
3.4
1
N54%%d41'40.00"W
50
324.69
0
TEXT
8
SHEET_LABELS
6
ROT_324.69
7
STANDARD
10
66.8815
20
-246.2687
30
0.0
40
3.2
1
75.00'
50
324.69
0
POINT
8
SHEET_LABELS
10
111.2307
20
-274.0000
30
0.0
0
TEXT
8
SHEET_LABELS
7
STANDARD
10
8.0000
20
-50.0000
30
0.0
40
8.0
1
LOT Blk 9 - Lot 30   PASS
50
0.0
0
TEXT
8
SHEET_LABELS
7
STANDARD
10
8.0000
20
-61.0000
30
0.0
40
4.6
1
AREA 7,500 SF (0.172 ac)
50
0.0
0
TEXT
8
SHEET_LABELS
7
STANDARD
10
8.0000
20
-68.0000
30
0.0
40
4.0
1
PERIMETER 350.00'   VERTICES 4   CLOSING SIDE 0.00'
50
0.0
0
TEXT
8
SHEET_LABELS
7
STANDARD
10
8.0000
20
-75.0000
30
0.0
40
3.4
1
all geometric checks passed: closed single polyline, no self-intersection, no overlap, no spikes
50
0.0
0
LINE
8
SHEET_FRAME
10
340.0000
20
-300.0000
30
0.0
11
640.0000
21
-300.0000
31
0.0
0
LINE
8
SHEET_FRAME
10
640.0000
20
-300.0000
30
0.0
11
640.0000
21
-40.0000
31
0.0
0
LINE
8
SHEET_FRAME
10
640.0000
20
-40.0000
30
0.0
11
340.0000
21
-40.0000
31
0.0
0
LINE
8
SHEET_FRAME
10
340.0000
20
-40.0000
30
0.0
11
340.0000
21
-300.0000
31
0.0
0
POLYLINE
8
LOT_POLYLINE
66
1
70
1
0
VERTEX
8
LOT_POLYLINE
10
366.0000
20
-213.6409
30
0.0
0
VERTEX
8
LOT_POLYLINE
10
446.4788
20
-100.0000
30
0.0
0
VERTEX
8
LOT_POLYLINE
10
531.7095
20
-160.3591
30
0.0
0
VERTEX
8
LOT_POLYLINE
10
451.2307
20
-274.0000
30
0.0
0
SEQEND
0
TEXT
8
SHEET_LABELS
6
ROT_54.69
7
STANDARD
10
408.6876
20
-158.5543
30
0.0
40
3.4
1
N35%%d18'20.00"E
50
54.69
0
TEXT
8
SHEET_LABELS
6
ROT_54.69
7
STANDARD
10
403.7912
20
-155.0866
30
0.0
40
3.2
1
100.00'
50
54.69
0
POINT
8
SHEET_LABELS
10
366.0000
20
-213.6409
30
0.0
0
TEXT
8
SHEET_LABELS
6
ROT_324.69
7
STANDARD
10
490.8279
20
-127.7313
30
0.0
40
3.4
1
S54%%d41'40.00"E
50
324.69
0
TEXT
8
SHEET_LABELS
6
ROT_324.69
7
STANDARD
10
487.3603
20
-132.6278
30
0.0
40
3.2
1
75.00'
50
324.69
0
POINT
8
SHEET_LABELS
10
446.4788
20
-100.0000
30
0.0
0
TEXT
8
SHEET_LABELS
6
ROT_54.69
7
STANDARD
10
493.9183
20
-218.9134
30
0.0
40
3.4
1
S35%%d18'20.00"W
50
54.69
0
TEXT
8
SHEET_LABELS
6
ROT_54.69
7
STANDARD
10
489.0218
20
-215.4457
30
0.0
40
3.2
1
100.00'
50
54.69
0
POINT
8
SHEET_LABELS
10
531.7095
20
-160.3591
30
0.0
0
TEXT
8
SHEET_LABELS
6
ROT_324.69
7
STANDARD
10
410.3492
20
-241.3722
30
0.0
40
3.4
1
N54%%d41'40.00"W
50
324.69
0
TEXT
8
SHEET_LABELS
6
ROT_324.69
7
STANDARD
10
406.8815
20
-246.2687
30
0.0
40
3.2
1
75.00'
50
324.69
0
POINT
8
SHEET_LABELS
10
451.2307
20
-274.0000
30
0.0
0
TEXT
8
SHEET_LABELS
7
STANDARD
10
348.0000
20
-50.0000
30
0.0
40
8.0
1
LOT Blk 9 - Lot 31   PASS
50
0.0
0
TEXT
8
SHEET_LABELS
7
STANDARD
10
348.0000
20
-61.0000
30
0.0
40
4.6
1
AREA 7,500 SF (0.172 ac)
50
0.0
0
TEXT
8
SHEET_LABELS
7
STANDARD
10
348.0000
20
-68.0000
30
0.0
40
4.0
1
PERIMETER 350.00'   VERTICES 4   CLOSING SIDE 0.00'
50
0.0
0
TEXT
8
SHEET_LABELS
7
STANDARD
10
348.0000
20
-75.0000
30
0.0
40
3.4
1
all geometric checks passed: closed single polyline, no self-intersection, no overlap, no spikes
50
0.0
0
LINE
8
SHEET_FRAME
10
680.0000
20
-300.0000
30
0.0
11
980.0000
21
-300.0000
31
0.0
0
LINE
8
SHEET_FRAME
10
980.0000
20
-300.0000
30
0.0
11
980.0000
21
-40.0000
31
0.0
0
LINE
8
SHEET_FRAME
10
980.0000
20
-40.0000
30
0.0
11
680.0000
21
-40.0000
31
0.0
0
LINE
8
SHEET_FRAME
10
680.0000
20
-40.0000
30
0.0
11
680.0000
21
-300.0000
31
0.0
0
POLYLINE
8
LOT_POLYLINE
66
1
70
1
0
VERTEX
8
LOT_POLYLINE
10
706.0000
20
-123.0160
30
0.0
0
VERTEX
8
LOT_POLYLINE
10
821.9031
20
-100.0000
30
0.0
0
VERTEX
8
LOT_POLYLINE
10
857.0609
20
-117.7595
30
0.0
0
VERTEX
8
LOT_POLYLINE
10
830.1585
20
-274.0000
30
0.0
0
VERTEX
8
LOT_POLYLINE
10
741.4019
20
-265.4971
30
0.0
0
VERTEX
8
LOT_POLYLINE
10
708.0415
20
-236.8136
30
0.0
0
SEQEND
0
POLYLINE
8
LOT_POLYLINE
66
1
70
0
0
VERTEX
8
LOT_POLYLINE
10
741.4019
20
-265.4971
30
0.0
0
VERTEX
8
LOT_POLYLINE
10
738.4143
20
-265.4164
30
0.0
0
VERTEX
8
LOT_POLYLINE
10
735.4464
20
-265.0642
30
0.0
0
VERTEX
8
LOT_POLYLINE
10
732.5228
20
-264.4435
30
0.0
0
VERTEX
8
LOT_POLYLINE
10
729.6678
20
-263.5595
30
0.0
0
VERTEX
8
LOT_POLYLINE
10
726.9051
20
-262.4194
30
0.0
0
VERTEX
8
LOT_POLYLINE
10
724.2575
20
-261.0328
30
0.0
0
VERTEX
8
LOT_POLYLINE
10
721.7470
20
-259.4111
30
0.0
0
VERTEX
8
LOT_POLYLINE
10
719.3945
20
-257.5678
30
0.0
0
VERTEX
8
LOT_POLYLINE
10
717.2193
20
-255.5181
30
0.0
0
VERTEX
8
LOT_POLYLINE
10
715.2396
20
-253.2791
30
0.0
0
VERTEX
8
LOT_POLYLINE
10
713.4718
20
-250.8693
30
0.0
0
VERTEX
8
LOT_POLYLINE
10
711.9305
20
-248.3087
30
0.0
0
VERTEX
8
LOT_POLYLINE
10
710.6285
20
-245.6185
30
0.0
0
VERTEX
8
LOT_POLYLINE
10
709.5765
20
-242.8210
30
0.0
0
VERTEX
8
LOT_POLYLINE
10
708.7834
20
-239.9395
30
0.0
0
VERTEX
8
LOT_POLYLINE
10
708.2557
20
-236.9977
30
0.0
0
SEQEND
0
TEXT
8
SHEET_LABELS
6
ROT_11.23
7
STANDARD
10
764.5359
20
-114.4505
30
0.0
40
3.4
1
N78%%d46'06.00"E
50
11.23
0
TEXT
8
SHEET_LABELS
6
ROT_11.23
7
STANDARD
10
763.3672
20
-108.5655
30
0.0
40
3.2
1
90.00'
50
11.23
0
POINT
8
SHEET_LABELS
10
706.0000
20
-123.0160
30
0.0
0
TEXT
8
SHEET_LABELS
6
ROT_333.20
7
STANDARD
10
840.8346
20
-106.2020
30
0.0
40
3.4
1
S63%%d12'00.00"E
50
333.2
0
TEXT
8
SHEET_LABELS
6
ROT_333.20
7
STANDARD
10
838.1294
20
-111.5575
30
0.0
40
3.2
1
30.00'
50
333.2
0
POINT
8
SHEET_LABELS
10
821.9031
20
-100.0000
30
0.0
0
TEXT
8
SHEET_LABELS
6
ROT_80.23
7
STANDARD
10
846.5662
20
-196.3888
30
0.0
40
3.4
1
S09%%d46'11.00"W
50
80.23
0
TEXT
8
SHEET_LABELS
6
ROT_80.23
7
STANDARD
10
840.6532
20
-195.3707
30
0.0
40
3.2
1
120.75'
50
80.23
0
POINT
8
SHEET_LABELS
10
857.0609
20
-117.7595
30
0.0
0
TEXT
8
SHEET_LABELS
6
ROT_354.53
7
STANDARD
10
786.0663
20
-266.7622
30
0.0
40
3.4
1
N84%%d31'40.00"W
50
354.53
0
TEXT
8
SHEET_LABELS
6
ROT_354.53
7
STANDARD
10
785.4941
20
-272.7349
30
0.0
40
3.2
1
67.91'
50
354.53
0
POINT
8
SHEET_LABELS
10
830.1585
20
-274.0000
30
0.0
0
TEXT
8
SHEET_LABELS
6
ROT_319.31
7
STANDARD
10
726.6776
20
-248.8806
30
0.0
40
3.4
1
N49%%d18'38.56"W
50
319.31
0
TEXT
8
SHEET_LABELS
6
ROT_319.31
7
STANDARD
10
722.7658
20
-253.4301
30
0.0
40
3.2
1
33.51'
50
319.31
0
POINT
8
SHEET_LABELS
10
741.4019
20
-265.4971
30
0.0
0
TEXT
8
SHEET_LABELS
6
ROT_271.03
7
STANDARD
10
710.0203
20
-179.8610
30
0.0
40
3.4
1
N01%%d01'40.00"W
50
271.03
0
TEXT
8
SHEET_LABELS
6
ROT_271.03
7
STANDARD
10
704.0212
20
-179.9686
30
0.0
40
3.2
1
86.69'
50
271.03
0
POINT
8
SHEET_LABELS
10
708.0415
20
-236.8136
30
0.0
0
TEXT
8
SHEET_LABELS
7
STANDARD
10
688.0000
20
-50.0000
30
0.0
40
8.0
1
LOT Blk 9 - Lot 26   PASS
50
0.0
0
TEXT
8
SHEET_LABELS
7
STANDARD
10
688.0000
20
-61.0000
30
0.0
40
4.6
1
AREA 12,446 SF (0.286 ac)
50
0.0
0
TEXT
8
SHEET_LABELS
7
STANDARD
10
688.0000
20
-68.0000
30
0.0
40
4.0
1
PERIMETER 428.86'   VERTICES 6   CLOSING SIDE 0.00'
50
0.0
0
TEXT
8
SHEET_LABELS
7
STANDARD
10
688.0000
20
-75.0000
30
0.0
40
3.4
1
all geometric checks passed: closed single polyline, no self-intersection, no overlap, no spikes
50
0.0
0
LINE
8
SHEET_FRAME
10
0.0000
20
-600.0000
30
0.0
11
300.0000
21
-600.0000
31
0.0
0
LINE
8
SHEET_FRAME
10
300.0000
20
-600.0000
30
0.0
11
300.0000
21
-340.0000
31
0.0
0
LINE
8
SHEET_FRAME
10
300.0000
20
-340.0000
30
0.0
11
0.0000
21
-340.0000
31
0.0
0
LINE
8
SHEET_FRAME
10
0.0000
20
-340.0000
30
0.0
11
0.0000
21
-600.0000
31
0.0
0
POLYLINE
8
LOT_POLYLINE
66
1
70
1
0
VERTEX
8
LOT_POLYLINE
10
26.0000
20
-548.1261
30
0.0
0
VERTEX
8
LOT_POLYLINE
10
51.5052
20
-400.0000
30
0.0
0
VERTEX
8
LOT_POLYLINE
10
142.9568
20
-446.1955
30
0.0
0
VERTEX
8
LOT_POLYLINE
10
104.2100
20
-574.0000
30
0.0
0
SEQEND
0
TEXT
8
SHEET_LABELS
6
ROT_80.23
7
STANDARD
10
41.7091
20
-474.5721
30
0.0
40
3.4
1
N09%%d46'11.00"E
50
80.23
0
TEXT
8
SHEET_LABELS
6
ROT_80.23
7
STANDARD
10
35.7961
20
-473.5540
30
0.0
40
3.2
1
120.75'
50
80.23
0
POINT
8
SHEET_LABELS
10
26.0000
20
-548.1261
30
0.0
0
TEXT
8
SHEET_LABELS
6
ROT_333.20
7
STANDARD
10
98.5837
20
-420.4200
30
0.0
40
3.4
1
S63%%d12'00.00"E
50
333.2
0
TEXT
8
SHEET_LABELS
6
ROT_333.20
7
STANDARD
10
95.8784
20
-425.7755
30
0.0
40
3.2
1
82.31'
50
333.2
0
POINT
8
SHEET_LABELS
10
51.5052
20
-400.0000
30
0.0
0
TEXT
8
SHEET_LABELS
6
ROT_73.13
7
STANDARD
10
126.4544
20
-510.9682
30
0.0
40
3.4
1
S16%%d51'57.08"W
50
73.13
0
TEXT
8
SHEET_LABELS
6
ROT_73.13
7
STANDARD
10
120.7125
20
-509.2274
30
0.0
40
3.2
1
107.29'
50
73.13
0
POINT
8
SHEET_LABELS
10
142.9568
20
-446.1955
30
0.0
0
TEXT
8
SHEET_LABELS
6
ROT_341.69
7
STANDARD
10
66.0473
20
-558.2149
30
0.0
40
3.4
1
N71%%d41'40.00"W
50
341.69
0
TEXT
8
SHEET_LABELS
6
ROT_341.69
7
STANDARD
10
64.1628
20
-563.9112
30
0.0
40
3.2
1
66.18'
50
341.69
0
POINT
8
SHEET_LABELS
10
104.2100
20
-574.0000
30
0.0
0
TEXT
8
SHEET_LABELS
7
STANDARD
10
8.0000
20
-350.0000
30
0.0
40
8.0
1
LOT Blk 9 - Lot 25   PASS
50
0.0
0
TEXT
8
SHEET_LABELS
7
STANDARD
10
8.0000
20
-361.0000
30
0.0
40
4.6
1
AREA 8,301 SF (0.191 ac)
50
0.0
0
TEXT
8
SHEET_LABELS
7
STANDARD
10
8.0000
20
-368.0000
30
0.0
40
4.0
1
PERIMETER 376.53'   VERTICES 4   CLOSING SIDE 0.00'
50
0.0
0
TEXT
8
SHEET_LABELS
7
STANDARD
10
8.0000
20
-375.0000
30
0.0
40
3.4
1
all geometric checks passed: closed single polyline, no self-intersection, no overlap, no spikes
50
0.0
0
LINE
8
SHEET_FRAME
10
340.0000
20
-600.0000
30
0.0
11
640.0000
21
-600.0000
31
0.0
0
LINE
8
SHEET_FRAME
10
640.0000
20
-600.0000
30
0.0
11
640.0000
21
-340.0000
31
0.0
0
LINE
8
SHEET_FRAME
10
640.0000
20
-340.0000
30
0.0
11
340.0000
21
-340.0000
31
0.0
0
LINE
8
SHEET_FRAME
10
340.0000
20
-340.0000
30
0.0
11
340.0000
21
-600.0000
31
0.0
0
POLYLINE
8
LOT_POLYLINE
66
1
70
1
0
VERTEX
8
LOT_POLYLINE
10
366.0000
20
-532.0093
30
0.0
0
VERTEX
8
LOT_POLYLINE
10
406.0216
20
-400.0000
30
0.0
0
VERTEX
8
LOT_POLYLINE
10
432.4168
20
-413.3332
30
0.0
0
VERTEX
8
LOT_POLYLINE
10
511.1109
20
-469.0631
30
0.0
0
VERTEX
8
LOT_POLYLINE
10
436.8237
20
-574.0000
30
0.0
0
VERTEX
8
LOT_POLYLINE
10
428.1044
20
-567.8251
30
0.0
0
SEQEND
0
TEXT
8
SHEET_LABELS
6
ROT_73.13
7
STANDARD
10
388.8817
20
-466.8750
30
0.0
40
3.4
1
N16%%d51'57.08"E
50
73.13
0
TEXT
8
SHEET_LABELS
6
ROT_73.13
7
STANDARD
10
383.1398
20
-465.1342
30
0.0
40
3.2
1
107.29'
50
73.13
0
POINT
8
SHEET_LABELS
10
366.0000
20
-532.0093
30
0.0
0
TEXT
8
SHEET_LABELS
6
ROT_333.20
7
STANDARD
10
420.5718
20
-403.9888
30
0.0
40
3.4
1
S63%%d12'00.00"E
50
333.2
0
TEXT
8
SHEET_LABELS
6
ROT_333.20
7
STANDARD
10
417.8665
20
-409.3443
30
0.0
40
3.2
1
23.00'
50
333.2
0
POINT
8
SHEET_LABELS
10
406.0216
20
-400.0000
30
0.0
0
TEXT
8
SHEET_LABELS
6
ROT_324.69
7
STANDARD
10
473.4976
20
-438.7499
30
0.0
40
3.4
1
S54%%d41'40.00"E
50
324.69
0
TEXT
8
SHEET_LABELS
6
ROT_324.69
7
STANDARD
10
470.0300
20
-443.6464
30
0.0
40
3.2
1
75.00'
50
324.69
0
POINT
8
SHEET_LABELS
10
432.4168
20
-413.3332
30
0.0
0
TEXT
8
SHEET_LABELS
6
ROT_54.70
7
STANDARD
10
476.4158
20
-523.2650
30
0.0
40
3.4
1
S35%%d17'43.97"W
50
54.7
0
TEXT
8
SHEET_LABELS
6
ROT_54.70
7
STANDARD
10
471.5187
20
-519.7982
30
0.0
40
3.2
1
100.00'
50
54.7
0
POINT
8
SHEET_LABELS
10
511.1109
20
-469.0631
30
0.0
0
TEXT
8
SHEET_LABELS
6
ROT_324.69
7
STANDARD
10
434.1978
20
-568.4643
30
0.0
40
3.4
1
N54%%d41'40.00"W
50
324.69
0
TEXT
8
SHEET_LABELS
6
ROT_324.69
7
STANDARD
10
430.7302
20
-573.3608
30
0.0
40
3.2
1
8.31'
50
324.69
0
POINT
8
SHEET_LABELS
10
436.8237
20
-574.0000
30
0.0
0
TEXT
8
SHEET_LABELS
6
ROT_330.03
7
STANDARD
10
398.5509
20
-547.3184
30
0.0
40
3.4
1
N60%%d01'40.00"W
50
330.03
0
TEXT
8
SHEET_LABELS
6
ROT_330.03
7
STANDARD
10
395.5534
20
-552.5160
30
0.0
40
3.2
1
55.76'
50
330.03
0
POINT
8
SHEET_LABELS
10
428.1044
20
-567.8251
30
0.0
0
TEXT
8
SHEET_LABELS
7
STANDARD
10
348.0000
20
-350.0000
30
0.0
40
8.0
1
LOT Blk 9 - Lot 24   PASS
50
0.0
0
TEXT
8
SHEET_LABELS
7
STANDARD
10
348.0000
20
-361.0000
30
0.0
40
4.6
1
AREA 8,330 SF (0.191 ac)
50
0.0
0
TEXT
8
SHEET_LABELS
7
STANDARD
10
348.0000
20
-368.0000
30
0.0
40
4.0
1
PERIMETER 369.36'   VERTICES 6   CLOSING SIDE 0.00'
50
0.0
0
TEXT
8
SHEET_LABELS
7
STANDARD
10
348.0000
20
-375.0000
30
0.0
40
3.4
1
all geometric checks passed: closed single polyline, no self-intersection, no overlap, no spikes
50
0.0
0
LINE
8
SHEET_FRAME
10
680.0000
20
-600.0000
30
0.0
11
980.0000
21
-600.0000
31
0.0
0
LINE
8
SHEET_FRAME
10
980.0000
20
-600.0000
30
0.0
11
980.0000
21
-340.0000
31
0.0
0
LINE
8
SHEET_FRAME
10
980.0000
20
-340.0000
30
0.0
11
680.0000
21
-340.0000
31
0.0
0
LINE
8
SHEET_FRAME
10
680.0000
20
-340.0000
30
0.0
11
680.0000
21
-600.0000
31
0.0
0
POLYLINE
8
LOT_POLYLINE
66
1
70
1
0
VERTEX
8
LOT_POLYLINE
10
706.0000
20
-513.6533
30
0.0
0
VERTEX
8
LOT_POLYLINE
10
786.4577
20
-400.0000
30
0.0
0
VERTEX
8
LOT_POLYLINE
10
871.6884
20
-460.3591
30
0.0
0
VERTEX
8
LOT_POLYLINE
10
791.2096
20
-574.0000
30
0.0
0
SEQEND
0
TEXT
8
SHEET_LABELS
6
ROT_54.70
7
STANDARD
10
748.6774
20
-458.5600
30
0.0
40
3.4
1
N35%%d17'43.97"E
50
54.7
0
TEXT
8
SHEET_LABELS
6
ROT_54.70
7
STANDARD
10
743.7803
20
-455.0932
30
0.0
40
3.2
1
100.00'
50
54.7
0
POINT
8
SHEET_LABELS
10
706.0000
20
-513.6533
30
0.0
0
TEXT
8
SHEET_LABELS
6
ROT_324.69
7
STANDARD
10
830.8069
20
-427.7313
30
0.0
40
3.4
1
S54%%d41'40.00"E
50
324.69
0
TEXT
8
SHEET_LABELS
6
ROT_324.69
7
STANDARD
10
827.3393
20
-432.6278
30
0.0
40
3.2
1
75.00'
50
324.69
0
POINT
8
SHEET_LABELS
10
786.4577
20
-400.0000
30
0.0
0
TEXT
8
SHEET_LABELS
6
ROT_54.69
7
STANDARD
10
833.8973
20
-518.9134
30
0.0
40
3.4
1
S35%%d18'20.00"W
50
54.69
0
TEXT
8
SHEET_LABELS
6
ROT_54.69
7
STANDARD
10
829.0008
20
-515.4457
30
0.0
40
3.2
1
100.00'
50
54.69
0
POINT
8
SHEET_LABELS
10
871.6884
20
-460.3591
30
0.0
0
TEXT
8
SHEET_LABELS
6
ROT_324.69
7
STANDARD
10
750.3387
20
-541.3784
30
0.0
40
3.4
1
N54%%d41'35.89"W
50
324.69
0
TEXT
8
SHEET_LABELS
6
ROT_324.69
7
STANDARD
10
746.8710
20
-546.2748
30
0.0
40
3.2
1
74.98'
50
324.69
0
POINT
8
SHEET_LABELS
10
791.2096
20
-574.0000
30
0.0
0
TEXT
8
SHEET_LABELS
7
STANDARD
10
688.0000
20
-350.0000
30
0.0
40
8.0
1
LOT Blk 9 - Lot 23   PASS
50
0.0
0
TEXT
8
SHEET_LABELS
7
STANDARD
10
688.0000
20
-361.0000
30
0.0
40
4.6
1
AREA 7,499 SF (0.172 ac)
50
0.0
0
TEXT
8
SHEET_LABELS
7
STANDARD
10
688.0000
20
-368.0000
30
0.0
40
4.0
1
PERIMETER 349.98'   VERTICES 4   CLOSING SIDE 0.00'
50
0.0
0
TEXT
8
SHEET_LABELS
7
STANDARD
10
688.0000
20
-375.0000
30
0.0
40
3.4
1
all geometric checks passed: closed single polyline, no self-intersection, no overlap, no spikes
50
0.0
0
ENDSEC
0
EOF
