0
SECTION
2
HEADER
9
$ACADVER
1
AC1009
9
$DWGCODEPAGE
3
ANSI_1252
0
ENDSEC
0
SECTION
2
TABLES
0
TABLE
2
LTYPE
70
6
0
LTYPE
2
CONTINUOUS
70
0
3
Solid
72
65
73
0
40
0.0
0
LTYPE
2
DASHED
70
0
3
Dashed
72
65
73
2
40
0.75
49
0.5
74
0
49
-0.25
74
0
0
LTYPE
2
DASHED2
70
0
3
Dashed (.5x)
72
65
73
2
40
0.375
49
0.25
74
0
49
-0.125
74
0
0
LTYPE
2
HIDDEN
70
0
3
Hidden
72
65
73
2
40
0.375
49
0.25
74
0
49
-0.125
74
0
0
LTYPE
2
CENTER
70
0
3
Center
72
65
73
4
40
2.0
49
1.25
74
0
49
-0.25
74
0
49
0.25
74
0
49
-0.25
74
0
0
LTYPE
2
PHANTOM
70
0
3
Phantom
72
65
73
6
40
2.5
49
1.25
74
0
49
-0.25
74
0
49
0.25
74
0
49
-0.25
74
0
49
0.25
74
0
49
-0.25
74
0
0
ENDTAB
0
TABLE
2
LAYER
70
6
0
LAYER
2
0
70
0
62
7
6
CONTINUOUS
0
LAYER
2
BOUNDARY
70
0
62
7
6
CONTINUOUS
0
LAYER
2
SECTION_LINE
70
0
62
8
6
DASHED
0
LAYER
2
CONTROL_POINTS
70
0
62
1
6
CONTINUOUS
0
LAYER
2
TEXT-LABELS
70
0
62
7
6
CONTINUOUS
0
LAYER
2
TITLEBLOCK
70
0
62
2
6
CONTINUOUS
0
ENDTAB
0
TABLE
2
STYLE
70
4
0
STYLE
2
STANDARD
70
0
40
0.0
41
1.0
50
0.0
71
0
42
0.2
3
Arial
4

0
STYLE
2
ARIAL
70
0
40
0.0
41
1.0
50
0.0
71
0
42
0.2
3
Arial
4

0
STYLE
2
ARIAL_TTF
70
0
40
0.0
41
1.0
50
0.0
71
0
42
0.2
3
arial.ttf
4

0
STYLE
2
SIMPLEX
70
0
40
0.0
41
1.0
50
0.0
71
0
42
0.2
3
simplex.shx
4

0
ENDTAB
0
ENDSEC
0
SECTION
2
ENTITIES
0
LINE
8
BOUNDARY
10
390364.4882
20
2109242.6727
30
0.0
11
390378.3820
21
2107923.8959
31
0.0
0
LINE
8
BOUNDARY
10
390378.3820
20
2107923.8959
30
0.0
11
389373.8405
21
2107916.3373
31
0.0
0
LINE
8
BOUNDARY
10
389373.8405
20
2107916.3373
30
0.0
11
389361.0356
21
2109237.5552
31
0.0
0
LINE
8
BOUNDARY
10
389361.0356
20
2109237.5552
30
0.0
11
390364.4924
21
2109242.7023
31
0.0
0
LINE
8
SECTION_LINE
10
390699.0538
20
2109244.3888
30
0.0
11
390364.4882
21
2109242.6727
31
0.0
0
POINT
8
CONTROL_POINTS
10
390699.0538
20
2109244.3888
30
0.0
0
TEXT
8
TEXT-LABELS
7
STANDARD
10
390699.0538
20
2109249.3888
30
0.0
40
8
1
POC
50
0.0
0
POINT
8
CONTROL_POINTS
10
390364.4882
20
2109242.6727
30
0.0
0
TEXT
8
TEXT-LABELS
7
STANDARD
10
390364.4882
20
2109247.6727
30
0.0
40
8
1
P.O.B. (State Plane Pt 1)
50
0.0
0
POINT
8
CONTROL_POINTS
10
389373.8430
20
2107916.3070
30
0.0
0
TEXT
8
TEXT-LABELS
7
STANDARD
10
389373.8430
20
2107921.3070
30
0.0
40
8
1
SW Corner Tract "H" (State Plane Pt 2)
50
0.0
0
TEXT
8
TEXT-LABELS
7
STANDARD
10
390371.4351
20
2108583.2843
30
0.0
40
6
1
S00%%d36'13"E  1318.85'
50
0.0
0
TEXT
8
TEXT-LABELS
7
STANDARD
10
389876.1112
20
2107920.1166
30
0.0
40
6
1
S89%%d34'08"W  1004.57'
50
0.0
0
TEXT
8
TEXT-LABELS
7
STANDARD
10
389367.4380
20
2108576.9462
30
0.0
40
6
1
N00%%d33'19"W  1321.28'
50
0.0
0
TEXT
8
TEXT-LABELS
7
STANDARD
10
389862.7640
20
2109240.1288
30
0.0
40
6
1
N89%%d42'22"E  1003.47'
50
0.0
0
TEXT
8
TEXT-LABELS
7
STANDARD
10
389862.7640
20
2109252.1288
30
0.0
40
7
1
TRAIL RIDGE ROAD (60' PUBLIC R/W)
50
0.0
0
TEXT
8
TITLEBLOCK
7
STANDARD
10
389361.0356
20
2109322.7023
30
0.0
40
14
1
TRAIL RIDGE ESTATES -- PB 82 PG 35-40, CLAY COUNTY, FL
50
0.0
0
TEXT
8
TITLEBLOCK
7
STANDARD
10
389361.0356
20
2109302.7023
30
0.0
40
8
1
SE 1/4 of SW 1/4, Section 19, T4S, R25E
50
0.0
0
TEXT
8
TITLEBLOCK
7
STANDARD
10
389361.0356
20
2109290.7023
30
0.0
40
6
1
Boundary closure: 0.030 ft (1 in 155393)  |  Perimeter: 4648.17 ft
50
0.0
0
TEXT
8
TITLEBLOCK
7
STANDARD
10
389361.0356
20
2109278.7023
30
0.0
40
6
1
Bearing basis: S89*42'22"E along S'ly R/W line of Trail Ridge Rd (Sheet 2, Note 3)
50
0.0
0
TEXT
8
TITLEBLOCK
7
STANDARD
10
389361.0356
20
2109266.7023
30
0.0
40
6
1
ITERATION 1 -- boundary only. Sheet 6/6 (Pg 40) not yet supplied;
50
0.0
0
TEXT
8
TITLEBLOCK
7
STANDARD
10
389361.0356
20
2109256.7023
30
0.0
40
6
1
lot fabric, Tract A/B, and remaining curve/line rows pending.
50
0.0
0
ENDSEC
0
EOF
