0
SECTION
2
HEADER
9
$ACADVER
1
AC1009
9
$DWGCODEPAGE
3
ANSI_1252
0
ENDSEC
0
SECTION
2
TABLES
0
TABLE
2
LTYPE
70
6
0
LTYPE
2
CONTINUOUS
70
0
3
Solid
72
65
73
0
40
0.0
0
LTYPE
2
DASHED
70
0
3
Dashed
72
65
73
2
40
0.75
49
0.5
74
0
49
-0.25
74
0
0
LTYPE
2
DASHED2
70
0
3
Dashed (.5x)
72
65
73
2
40
0.375
49
0.25
74
0
49
-0.125
74
0
0
LTYPE
2
HIDDEN
70
0
3
Hidden
72
65
73
2
40
0.375
49
0.25
74
0
49
-0.125
74
0
0
LTYPE
2
CENTER
70
0
3
Center
72
65
73
4
40
2.0
49
1.25
74
0
49
-0.25
74
0
49
0.25
74
0
49
-0.25
74
0
0
LTYPE
2
PHANTOM
70
0
3
Phantom
72
65
73
6
40
2.5
49
1.25
74
0
49
-0.25
74
0
49
0.25
74
0
49
-0.25
74
0
49
0.25
74
0
49
-0.25
74
0
0
ENDTAB
0
TABLE
2
LAYER
70
6
0
LAYER
2
0
70
0
62
7
6
CONTINUOUS
0
LAYER
2
LOT
70
0
62
4
6
CONTINUOUS
0
LAYER
2
LOT-FLAGGED
70
0
62
1
6
CONTINUOUS
0
LAYER
2
TEXT-LABELS
70
0
62
7
6
CONTINUOUS
0
LAYER
2
BLOCK-TEXT
70
0
62
2
6
CONTINUOUS
0
LAYER
2
TITLEBLOCK
70
0
62
2
6
CONTINUOUS
0
ENDTAB
0
TABLE
2
STYLE
70
4
0
STYLE
2
STANDARD
70
0
40
0.0
41
1.0
50
0.0
71
0
42
0.2
3
Arial
4

0
STYLE
2
ARIAL
70
0
40
0.0
41
1.0
50
0.0
71
0
42
0.2
3
Arial
4

0
STYLE
2
ARIAL_TTF
70
0
40
0.0
41
1.0
50
0.0
71
0
42
0.2
3
arial.ttf
4

0
STYLE
2
SIMPLEX
70
0
40
0.0
41
1.0
50
0.0
71
0
42
0.2
3
simplex.shx
4

0
ENDTAB
0
ENDSEC
0
SECTION
2
ENTITIES
0
POLYLINE
8
LOT
66
1
70
1
0
VERTEX
8
LOT
10
0.0000
20
0.0000
30
0.0
0
VERTEX
8
LOT
10
45.0000
20
0.0000
30
0.0
0
VERTEX
8
LOT
10
45.3840
20
-109.9993
30
0.0
0
VERTEX
8
LOT
10
0.3840
20
-109.9993
30
0.0
0
SEQEND
0
POLYLINE
8
LOT
66
1
70
1
0
VERTEX
8
LOT
10
0.3840
20
-109.9993
30
0.0
0
VERTEX
8
LOT
10
45.3840
20
-109.9993
30
0.0
0
VERTEX
8
LOT
10
45.7679
20
-219.9987
30
0.0
0
VERTEX
8
LOT
10
0.7679
20
-219.9987
30
0.0
0
SEQEND
0
POLYLINE
8
LOT
66
1
70
1
0
VERTEX
8
LOT
10
45.0000
20
0.0000
30
0.0
0
VERTEX
8
LOT
10
95.0000
20
0.0000
30
0.0
0
VERTEX
8
LOT
10
95.3840
20
-109.9993
30
0.0
0
VERTEX
8
LOT
10
45.3840
20
-109.9993
30
0.0
0
SEQEND
0
POLYLINE
8
LOT
66
1
70
1
0
VERTEX
8
LOT
10
45.3840
20
-109.9993
30
0.0
0
VERTEX
8
LOT
10
95.3840
20
-109.9993
30
0.0
0
VERTEX
8
LOT
10
95.7679
20
-219.9987
30
0.0
0
VERTEX
8
LOT
10
45.7679
20
-219.9987
30
0.0
0
SEQEND
0
POLYLINE
8
LOT
66
1
70
1
0
VERTEX
8
LOT
10
95.0000
20
0.0000
30
0.0
0
VERTEX
8
LOT
10
145.0000
20
0.0000
30
0.0
0
VERTEX
8
LOT
10
145.3840
20
-109.9993
30
0.0
0
VERTEX
8
LOT
10
95.3840
20
-109.9993
30
0.0
0
SEQEND
0
POLYLINE
8
LOT
66
1
70
1
0
VERTEX
8
LOT
10
95.3840
20
-109.9993
30
0.0
0
VERTEX
8
LOT
10
145.3840
20
-109.9993
30
0.0
0
VERTEX
8
LOT
10
145.7679
20
-219.9987
30
0.0
0
VERTEX
8
LOT
10
95.7679
20
-219.9987
30
0.0
0
SEQEND
0
POLYLINE
8
LOT
66
1
70
1
0
VERTEX
8
LOT
10
145.0000
20
0.0000
30
0.0
0
VERTEX
8
LOT
10
195.0000
20
0.0000
30
0.0
0
VERTEX
8
LOT
10
195.3840
20
-109.9993
30
0.0
0
VERTEX
8
LOT
10
145.3840
20
-109.9993
30
0.0
0
SEQEND
0
POLYLINE
8
LOT
66
1
70
1
0
VERTEX
8
LOT
10
145.3840
20
-109.9993
30
0.0
0
VERTEX
8
LOT
10
195.3840
20
-109.9993
30
0.0
0
VERTEX
8
LOT
10
195.7679
20
-219.9987
30
0.0
0
VERTEX
8
LOT
10
145.7679
20
-219.9987
30
0.0
0
SEQEND
0
POLYLINE
8
LOT
66
1
70
1
0
VERTEX
8
LOT
10
195.0000
20
0.0000
30
0.0
0
VERTEX
8
LOT
10
245.0000
20
0.0000
30
0.0
0
VERTEX
8
LOT
10
245.3840
20
-109.9993
30
0.0
0
VERTEX
8
LOT
10
195.3840
20
-109.9993
30
0.0
0
SEQEND
0
POLYLINE
8
LOT
66
1
70
1
0
VERTEX
8
LOT
10
195.3840
20
-109.9993
30
0.0
0
VERTEX
8
LOT
10
245.3840
20
-109.9993
30
0.0
0
VERTEX
8
LOT
10
245.7679
20
-219.9987
30
0.0
0
VERTEX
8
LOT
10
195.7679
20
-219.9987
30
0.0
0
SEQEND
0
POLYLINE
8
LOT
66
1
70
1
0
VERTEX
8
LOT
10
245.0000
20
0.0000
30
0.0
0
VERTEX
8
LOT
10
295.0000
20
0.0000
30
0.0
0
VERTEX
8
LOT
10
295.3840
20
-109.9993
30
0.0
0
VERTEX
8
LOT
10
245.3840
20
-109.9993
30
0.0
0
SEQEND
0
POLYLINE
8
LOT
66
1
70
1
0
VERTEX
8
LOT
10
245.3840
20
-109.9993
30
0.0
0
VERTEX
8
LOT
10
295.3840
20
-109.9993
30
0.0
0
VERTEX
8
LOT
10
295.7679
20
-219.9987
30
0.0
0
VERTEX
8
LOT
10
245.7679
20
-219.9987
30
0.0
0
SEQEND
0
POLYLINE
8
LOT
66
1
70
1
0
VERTEX
8
LOT
10
295.0000
20
0.0000
30
0.0
0
VERTEX
8
LOT
10
345.0000
20
0.0000
30
0.0
0
VERTEX
8
LOT
10
345.3840
20
-109.9993
30
0.0
0
VERTEX
8
LOT
10
295.3840
20
-109.9993
30
0.0
0
SEQEND
0
POLYLINE
8
LOT
66
1
70
1
0
VERTEX
8
LOT
10
295.3840
20
-109.9993
30
0.0
0
VERTEX
8
LOT
10
345.3840
20
-109.9993
30
0.0
0
VERTEX
8
LOT
10
345.7679
20
-219.9987
30
0.0
0
VERTEX
8
LOT
10
295.7679
20
-219.9987
30
0.0
0
SEQEND
0
POLYLINE
8
LOT
66
1
70
1
0
VERTEX
8
LOT
10
345.0000
20
0.0000
30
0.0
0
VERTEX
8
LOT
10
395.0000
20
0.0000
30
0.0
0
VERTEX
8
LOT
10
395.3840
20
-109.9993
30
0.0
0
VERTEX
8
LOT
10
345.3840
20
-109.9993
30
0.0
0
SEQEND
0
POLYLINE
8
LOT
66
1
70
1
0
VERTEX
8
LOT
10
345.3840
20
-109.9993
30
0.0
0
VERTEX
8
LOT
10
395.3840
20
-109.9993
30
0.0
0
VERTEX
8
LOT
10
395.7679
20
-219.9987
30
0.0
0
VERTEX
8
LOT
10
345.7679
20
-219.9987
30
0.0
0
SEQEND
0
POLYLINE
8
LOT
66
1
70
1
0
VERTEX
8
LOT
10
395.0000
20
0.0000
30
0.0
0
VERTEX
8
LOT
10
445.0000
20
0.0000
30
0.0
0
VERTEX
8
LOT
10
445.3840
20
-109.9993
30
0.0
0
VERTEX
8
LOT
10
395.3840
20
-109.9993
30
0.0
0
SEQEND
0
POLYLINE
8
LOT
66
1
70
1
0
VERTEX
8
LOT
10
395.3840
20
-109.9993
30
0.0
0
VERTEX
8
LOT
10
445.3840
20
-109.9993
30
0.0
0
VERTEX
8
LOT
10
445.7679
20
-219.9987
30
0.0
0
VERTEX
8
LOT
10
395.7679
20
-219.9987
30
0.0
0
SEQEND
0
POLYLINE
8
LOT
66
1
70
1
0
VERTEX
8
LOT
10
445.0000
20
0.0000
30
0.0
0
VERTEX
8
LOT
10
499.3000
20
0.0000
30
0.0
0
VERTEX
8
LOT
10
499.8440
20
-109.9987
30
0.0
0
VERTEX
8
LOT
10
445.3840
20
-109.9993
30
0.0
0
SEQEND
0
POLYLINE
8
LOT
66
1
70
1
0
VERTEX
8
LOT
10
445.3840
20
-109.9993
30
0.0
0
VERTEX
8
LOT
10
499.8440
20
-109.9987
30
0.0
0
VERTEX
8
LOT
10
500.3879
20
-219.9973
30
0.0
0
VERTEX
8
LOT
10
445.7679
20
-219.9987
30
0.0
0
SEQEND
0
POLYLINE
8
LOT
66
1
70
1
0
VERTEX
8
LOT
10
0.9076
20
-259.9984
30
0.0
0
VERTEX
8
LOT
10
50.9076
20
-259.9984
30
0.0
0
VERTEX
8
LOT
10
51.2741
20
-364.9978
30
0.0
0
VERTEX
8
LOT
10
1.2741
20
-364.9978
30
0.0
0
SEQEND
0
POLYLINE
8
LOT
66
1
70
1
0
VERTEX
8
LOT
10
1.2741
20
-364.9978
30
0.0
0
VERTEX
8
LOT
10
51.2741
20
-364.9978
30
0.0
0
VERTEX
8
LOT
10
51.6406
20
-469.9971
30
0.0
0
VERTEX
8
LOT
10
1.6406
20
-469.9971
30
0.0
0
SEQEND
0
POLYLINE
8
LOT
66
1
70
1
0
VERTEX
8
LOT
10
50.9076
20
-259.9984
30
0.0
0
VERTEX
8
LOT
10
100.9076
20
-259.9984
30
0.0
0
VERTEX
8
LOT
10
101.2741
20
-364.9978
30
0.0
0
VERTEX
8
LOT
10
51.2741
20
-364.9978
30
0.0
0
SEQEND
0
POLYLINE
8
LOT
66
1
70
1
0
VERTEX
8
LOT
10
51.2741
20
-364.9978
30
0.0
0
VERTEX
8
LOT
10
101.2741
20
-364.9978
30
0.0
0
VERTEX
8
LOT
10
101.6406
20
-469.9971
30
0.0
0
VERTEX
8
LOT
10
51.6406
20
-469.9971
30
0.0
0
SEQEND
0
POLYLINE
8
LOT
66
1
70
1
0
VERTEX
8
LOT
10
100.9076
20
-259.9984
30
0.0
0
VERTEX
8
LOT
10
150.9076
20
-259.9984
30
0.0
0
VERTEX
8
LOT
10
151.2741
20
-364.9978
30
0.0
0
VERTEX
8
LOT
10
101.2741
20
-364.9978
30
0.0
0
SEQEND
0
POLYLINE
8
LOT
66
1
70
1
0
VERTEX
8
LOT
10
101.2741
20
-364.9978
30
0.0
0
VERTEX
8
LOT
10
151.2741
20
-364.9978
30
0.0
0
VERTEX
8
LOT
10
151.6406
20
-469.9971
30
0.0
0
VERTEX
8
LOT
10
101.6406
20
-469.9971
30
0.0
0
SEQEND
0
POLYLINE
8
LOT
66
1
70
1
0
VERTEX
8
LOT
10
150.9076
20
-259.9984
30
0.0
0
VERTEX
8
LOT
10
200.9076
20
-259.9984
30
0.0
0
VERTEX
8
LOT
10
201.2741
20
-364.9978
30
0.0
0
VERTEX
8
LOT
10
151.2741
20
-364.9978
30
0.0
0
SEQEND
0
POLYLINE
8
LOT
66
1
70
1
0
VERTEX
8
LOT
10
151.2741
20
-364.9978
30
0.0
0
VERTEX
8
LOT
10
201.2741
20
-364.9978
30
0.0
0
VERTEX
8
LOT
10
201.6406
20
-469.9971
30
0.0
0
VERTEX
8
LOT
10
151.6406
20
-469.9971
30
0.0
0
SEQEND
0
POLYLINE
8
LOT
66
1
70
1
0
VERTEX
8
LOT
10
240.9076
20
-259.9984
30
0.0
0
VERTEX
8
LOT
10
290.9076
20
-259.9984
30
0.0
0
VERTEX
8
LOT
10
291.3090
20
-374.9977
30
0.0
0
VERTEX
8
LOT
10
241.3090
20
-374.9977
30
0.0
0
SEQEND
0
POLYLINE
8
LOT
66
1
70
1
0
VERTEX
8
LOT
10
290.9076
20
-259.9984
30
0.0
0
VERTEX
8
LOT
10
340.9076
20
-259.9984
30
0.0
0
VERTEX
8
LOT
10
341.3090
20
-374.9977
30
0.0
0
VERTEX
8
LOT
10
291.3090
20
-374.9977
30
0.0
0
SEQEND
0
POLYLINE
8
LOT
66
1
70
1
0
VERTEX
8
LOT
10
340.9076
20
-259.9984
30
0.0
0
VERTEX
8
LOT
10
390.9076
20
-259.9984
30
0.0
0
VERTEX
8
LOT
10
391.3090
20
-374.9977
30
0.0
0
VERTEX
8
LOT
10
341.3090
20
-374.9977
30
0.0
0
SEQEND
0
POLYLINE
8
LOT
66
1
70
1
0
VERTEX
8
LOT
10
390.9076
20
-259.9984
30
0.0
0
VERTEX
8
LOT
10
440.9076
20
-259.9984
30
0.0
0
VERTEX
8
LOT
10
441.3090
20
-374.9977
30
0.0
0
VERTEX
8
LOT
10
391.3090
20
-374.9977
30
0.0
0
SEQEND
0
POLYLINE
8
LOT
66
1
70
1
0
VERTEX
8
LOT
10
440.9076
20
-259.9984
30
0.0
0
VERTEX
8
LOT
10
498.8076
20
-259.9984
30
0.0
0
VERTEX
8
LOT
10
479.3090
20
-374.9977
30
0.0
0
VERTEX
8
LOT
10
441.3090
20
-374.9977
30
0.0
0
SEQEND
0
POLYLINE
8
LOT
66
1
70
1
0
VERTEX
8
LOT
10
241.3090
20
-374.9977
30
0.0
0
VERTEX
8
LOT
10
341.3090
20
-374.9977
30
0.0
0
VERTEX
8
LOT
10
341.4312
20
-409.9975
30
0.0
0
VERTEX
8
LOT
10
241.5184
20
-434.9973
30
0.0
0
SEQEND
0
POLYLINE
8
LOT
66
1
70
1
0
VERTEX
8
LOT
10
341.3090
20
-374.9977
30
0.0
0
VERTEX
8
LOT
10
479.3090
20
-374.9977
30
0.0
0
VERTEX
8
LOT
10
475.0964
20
-399.8431
30
0.0
0
VERTEX
8
LOT
10
487.3185
20
-451.1062
30
0.0
0
VERTEX
8
LOT
10
361.3185
20
-451.1062
30
0.0
0
VERTEX
8
LOT
10
341.5184
20
-434.9973
30
0.0
0
SEQEND
0
POLYLINE
8
LOT
66
1
70
1
0
VERTEX
8
LOT
10
391.3185
20
-451.1062
30
0.0
0
VERTEX
8
LOT
10
441.3185
20
-451.1062
30
0.0
0
VERTEX
8
LOT
10
441.7200
20
-566.1055
30
0.0
0
VERTEX
8
LOT
10
391.7200
20
-566.1055
30
0.0
0
SEQEND
0
POLYLINE
8
LOT
66
1
70
1
0
VERTEX
8
LOT
10
441.3185
20
-451.1062
30
0.0
0
VERTEX
8
LOT
10
487.3185
20
-451.1062
30
0.0
0
VERTEX
8
LOT
10
491.3344
20
-566.1055
30
0.0
0
VERTEX
8
LOT
10
441.7200
20
-566.1055
30
0.0
0
SEQEND
0
POLYLINE
8
LOT-FLAGGED
66
1
70
1
0
VERTEX
8
LOT-FLAGGED
10
241.5184
20
-434.9973
30
0.0
0
VERTEX
8
LOT-FLAGGED
10
341.4312
20
-409.9975
30
0.0
0
VERTEX
8
LOT-FLAGGED
10
341.5184
20
-434.9973
30
0.0
0
VERTEX
8
LOT-FLAGGED
10
259.6622
20
-523.3929
30
0.0
0
VERTEX
8
LOT-FLAGGED
10
258.2328
20
-521.2913
30
0.0
0
VERTEX
8
LOT-FLAGGED
10
256.8573
20
-519.1541
30
0.0
0
VERTEX
8
LOT-FLAGGED
10
255.5365
20
-516.9827
30
0.0
0
VERTEX
8
LOT-FLAGGED
10
254.2713
20
-514.7783
30
0.0
0
VERTEX
8
LOT-FLAGGED
10
253.0626
20
-512.5426
30
0.0
0
VERTEX
8
LOT-FLAGGED
10
251.9111
20
-510.2768
30
0.0
0
VERTEX
8
LOT-FLAGGED
10
250.8175
20
-507.9825
30
0.0
0
VERTEX
8
LOT-FLAGGED
10
249.7826
20
-505.6612
30
0.0
0
VERTEX
8
LOT-FLAGGED
10
248.8070
20
-503.3142
30
0.0
0
VERTEX
8
LOT-FLAGGED
10
247.8914
20
-500.9433
30
0.0
0
VERTEX
8
LOT-FLAGGED
10
247.0363
20
-498.5499
30
0.0
0
VERTEX
8
LOT-FLAGGED
10
246.2423
20
-496.1355
30
0.0
0
VERTEX
8
LOT-FLAGGED
10
245.5100
20
-493.7017
30
0.0
0
VERTEX
8
LOT-FLAGGED
10
244.8397
20
-491.2500
30
0.0
0
VERTEX
8
LOT-FLAGGED
10
244.2320
20
-488.7822
30
0.0
0
VERTEX
8
LOT-FLAGGED
10
243.6871
20
-486.2997
30
0.0
0
VERTEX
8
LOT-FLAGGED
10
243.2056
20
-483.8041
30
0.0
0
VERTEX
8
LOT-FLAGGED
10
242.7876
20
-481.2971
30
0.0
0
VERTEX
8
LOT-FLAGGED
10
242.4334
20
-478.7803
30
0.0
0
VERTEX
8
LOT-FLAGGED
10
242.1434
20
-476.2553
30
0.0
0
VERTEX
8
LOT-FLAGGED
10
241.9176
20
-473.7238
30
0.0
0
VERTEX
8
LOT-FLAGGED
10
241.7562
20
-471.1873
30
0.0
0
VERTEX
8
LOT-FLAGGED
10
241.6593
20
-468.6475
30
0.0
0
VERTEX
8
LOT-FLAGGED
10
241.6270
20
-466.1061
30
0.0
0
VERTEX
8
LOT-FLAGGED
10
241.6270
20
-466.1061
30
0.0
0
SEQEND
0
POLYLINE
8
LOT-FLAGGED
66
1
70
1
0
VERTEX
8
LOT-FLAGGED
10
341.5184
20
-434.9973
30
0.0
0
VERTEX
8
LOT-FLAGGED
10
361.3185
20
-451.1062
30
0.0
0
VERTEX
8
LOT-FLAGGED
10
325.6166
20
-564.8162
30
0.0
0
VERTEX
8
LOT-FLAGGED
10
322.3358
20
-564.2277
30
0.0
0
VERTEX
8
LOT-FLAGGED
10
319.0764
20
-563.5303
30
0.0
0
VERTEX
8
LOT-FLAGGED
10
315.8420
20
-562.7246
30
0.0
0
VERTEX
8
LOT-FLAGGED
10
312.6363
20
-561.8116
30
0.0
0
VERTEX
8
LOT-FLAGGED
10
309.4628
20
-560.7923
30
0.0
0
VERTEX
8
LOT-FLAGGED
10
306.3251
20
-559.6677
30
0.0
0
VERTEX
8
LOT-FLAGGED
10
303.2266
20
-558.4393
30
0.0
0
VERTEX
8
LOT-FLAGGED
10
300.1707
20
-557.1082
30
0.0
0
VERTEX
8
LOT-FLAGGED
10
297.1609
20
-555.6760
30
0.0
0
VERTEX
8
LOT-FLAGGED
10
294.2005
20
-554.1443
30
0.0
0
VERTEX
8
LOT-FLAGGED
10
291.2927
20
-552.5148
30
0.0
0
VERTEX
8
LOT-FLAGGED
10
288.4410
20
-550.7893
30
0.0
0
VERTEX
8
LOT-FLAGGED
10
285.6482
20
-548.9698
30
0.0
0
VERTEX
8
LOT-FLAGGED
10
282.9177
20
-547.0581
30
0.0
0
VERTEX
8
LOT-FLAGGED
10
280.2524
20
-545.0565
30
0.0
0
VERTEX
8
LOT-FLAGGED
10
277.6554
20
-542.9672
30
0.0
0
VERTEX
8
LOT-FLAGGED
10
275.1293
20
-540.7925
30
0.0
0
VERTEX
8
LOT-FLAGGED
10
272.6772
20
-538.5349
30
0.0
0
VERTEX
8
LOT-FLAGGED
10
270.3016
20
-536.1967
30
0.0
0
VERTEX
8
LOT-FLAGGED
10
268.0053
20
-533.7807
30
0.0
0
VERTEX
8
LOT-FLAGGED
10
265.7908
20
-531.2895
30
0.0
0
VERTEX
8
LOT-FLAGGED
10
263.6606
20
-528.7259
30
0.0
0
VERTEX
8
LOT-FLAGGED
10
261.6170
20
-526.0927
30
0.0
0
VERTEX
8
LOT-FLAGGED
10
259.6622
20
-523.3929
30
0.0
0
SEQEND
0
POLYLINE
8
LOT-FLAGGED
66
1
70
1
0
VERTEX
8
LOT-FLAGGED
10
361.3185
20
-451.1062
30
0.0
0
VERTEX
8
LOT-FLAGGED
10
391.3185
20
-451.1062
30
0.0
0
VERTEX
8
LOT-FLAGGED
10
391.7200
20
-566.1055
30
0.0
0
VERTEX
8
LOT-FLAGGED
10
341.9761
20
-566.1055
30
0.0
0
VERTEX
8
LOT-FLAGGED
10
341.6270
20
-566.1061
30
0.0
0
VERTEX
8
LOT-FLAGGED
10
340.9570
20
-566.1039
30
0.0
0
VERTEX
8
LOT-FLAGGED
10
340.2871
20
-566.0972
30
0.0
0
VERTEX
8
LOT-FLAGGED
10
339.6172
20
-566.0859
30
0.0
0
VERTEX
8
LOT-FLAGGED
10
338.9474
20
-566.0702
30
0.0
0
VERTEX
8
LOT-FLAGGED
10
338.2777
20
-566.0500
30
0.0
0
VERTEX
8
LOT-FLAGGED
10
337.6082
20
-566.0254
30
0.0
0
VERTEX
8
LOT-FLAGGED
10
336.9389
20
-565.9962
30
0.0
0
VERTEX
8
LOT-FLAGGED
10
336.2697
20
-565.9625
30
0.0
0
VERTEX
8
LOT-FLAGGED
10
335.6008
20
-565.9244
30
0.0
0
VERTEX
8
LOT-FLAGGED
10
334.9322
20
-565.8818
30
0.0
0
VERTEX
8
LOT-FLAGGED
10
334.2639
20
-565.8347
30
0.0
0
VERTEX
8
LOT-FLAGGED
10
333.5959
20
-565.7831
30
0.0
0
VERTEX
8
LOT-FLAGGED
10
332.9282
20
-565.7271
30
0.0
0
VERTEX
8
LOT-FLAGGED
10
332.2610
20
-565.6666
30
0.0
0
VERTEX
8
LOT-FLAGGED
10
331.5942
20
-565.6016
30
0.0
0
VERTEX
8
LOT-FLAGGED
10
330.9278
20
-565.5321
30
0.0
0
VERTEX
8
LOT-FLAGGED
10
330.2619
20
-565.4582
30
0.0
0
VERTEX
8
LOT-FLAGGED
10
329.5965
20
-565.3798
30
0.0
0
VERTEX
8
LOT-FLAGGED
10
328.9317
20
-565.2970
30
0.0
0
VERTEX
8
LOT-FLAGGED
10
328.2674
20
-565.2097
30
0.0
0
VERTEX
8
LOT-FLAGGED
10
327.6037
20
-565.1180
30
0.0
0
VERTEX
8
LOT-FLAGGED
10
326.9407
20
-565.0218
30
0.0
0
VERTEX
8
LOT-FLAGGED
10
326.2783
20
-564.9212
30
0.0
0
VERTEX
8
LOT-FLAGGED
10
325.6166
20
-564.8162
30
0.0
0
SEQEND
0
POLYLINE
8
LOT
66
1
70
1
0
VERTEX
8
LOT
10
1.7802
20
-509.9969
30
0.0
0
VERTEX
8
LOT
10
101.7802
20
-509.9969
30
0.0
0
VERTEX
8
LOT
10
101.9548
20
-559.9966
30
0.0
0
VERTEX
8
LOT
10
1.9548
20
-559.9966
30
0.0
0
SEQEND
0
POLYLINE
8
LOT
66
1
70
1
0
VERTEX
8
LOT
10
101.7802
20
-509.9969
30
0.0
0
VERTEX
8
LOT
10
211.7802
20
-509.9969
30
0.0
0
VERTEX
8
LOT
10
211.9548
20
-559.9966
30
0.0
0
VERTEX
8
LOT
10
101.9548
20
-559.9966
30
0.0
0
SEQEND
0
POLYLINE
8
LOT
66
1
70
1
0
VERTEX
8
LOT
10
1.9548
20
-559.9966
30
0.0
0
VERTEX
8
LOT
10
101.9548
20
-559.9966
30
0.0
0
VERTEX
8
LOT
10
102.1293
20
-609.9963
30
0.0
0
VERTEX
8
LOT
10
2.1293
20
-609.9963
30
0.0
0
SEQEND
0
POLYLINE
8
LOT
66
1
70
1
0
VERTEX
8
LOT
10
101.9548
20
-559.9966
30
0.0
0
VERTEX
8
LOT
10
211.9548
20
-559.9966
30
0.0
0
VERTEX
8
LOT
10
212.1293
20
-609.9963
30
0.0
0
VERTEX
8
LOT
10
102.1293
20
-609.9963
30
0.0
0
SEQEND
0
POLYLINE
8
LOT
66
1
70
1
0
VERTEX
8
LOT
10
2.1293
20
-609.9963
30
0.0
0
VERTEX
8
LOT
10
102.1293
20
-609.9963
30
0.0
0
VERTEX
8
LOT
10
102.2515
20
-644.9961
30
0.0
0
VERTEX
8
LOT
10
2.3038
20
-659.9960
30
0.0
0
SEQEND
0
POLYLINE
8
LOT
66
1
70
1
0
VERTEX
8
LOT
10
102.1293
20
-609.9963
30
0.0
0
VERTEX
8
LOT
10
212.1293
20
-609.9963
30
0.0
0
VERTEX
8
LOT
10
212.3234
20
-665.5959
30
0.0
0
VERTEX
8
LOT
10
102.2515
20
-644.9961
30
0.0
0
SEQEND
0
TEXT
8
TEXT-LABELS
7
STANDARD
10
22.6920
20
-54.9997
30
0.0
40
8
1
1
50
0.0
72
1
11
22.6920
21
-54.9997
31
0.0
73
2
0
TEXT
8
TEXT-LABELS
7
STANDARD
10
23.0760
20
-164.9990
30
0.0
40
8
1
20
50
0.0
72
1
11
23.0760
21
-164.9990
31
0.0
73
2
0
TEXT
8
TEXT-LABELS
7
STANDARD
10
70.1920
20
-54.9997
30
0.0
40
8
1
2
50
0.0
72
1
11
70.1920
21
-54.9997
31
0.0
73
2
0
TEXT
8
TEXT-LABELS
7
STANDARD
10
70.5760
20
-164.9990
30
0.0
40
8
1
19
50
0.0
72
1
11
70.5760
21
-164.9990
31
0.0
73
2
0
TEXT
8
TEXT-LABELS
7
STANDARD
10
120.1920
20
-54.9997
30
0.0
40
8
1
3
50
0.0
72
1
11
120.1920
21
-54.9997
31
0.0
73
2
0
TEXT
8
TEXT-LABELS
7
STANDARD
10
120.5760
20
-164.9990
30
0.0
40
8
1
18
50
0.0
72
1
11
120.5760
21
-164.9990
31
0.0
73
2
0
TEXT
8
TEXT-LABELS
7
STANDARD
10
170.1920
20
-54.9997
30
0.0
40
8
1
4
50
0.0
72
1
11
170.1920
21
-54.9997
31
0.0
73
2
0
TEXT
8
TEXT-LABELS
7
STANDARD
10
170.5760
20
-164.9990
30
0.0
40
8
1
17
50
0.0
72
1
11
170.5760
21
-164.9990
31
0.0
73
2
0
TEXT
8
TEXT-LABELS
7
STANDARD
10
220.1920
20
-54.9997
30
0.0
40
8
1
5
50
0.0
72
1
11
220.1920
21
-54.9997
31
0.0
73
2
0
TEXT
8
TEXT-LABELS
7
STANDARD
10
220.5760
20
-164.9990
30
0.0
40
8
1
16
50
0.0
72
1
11
220.5760
21
-164.9990
31
0.0
73
2
0
TEXT
8
TEXT-LABELS
7
STANDARD
10
270.1920
20
-54.9997
30
0.0
40
8
1
6
50
0.0
72
1
11
270.1920
21
-54.9997
31
0.0
73
2
0
TEXT
8
TEXT-LABELS
7
STANDARD
10
270.5760
20
-164.9990
30
0.0
40
8
1
15
50
0.0
72
1
11
270.5760
21
-164.9990
31
0.0
73
2
0
TEXT
8
TEXT-LABELS
7
STANDARD
10
320.1920
20
-54.9997
30
0.0
40
8
1
7
50
0.0
72
1
11
320.1920
21
-54.9997
31
0.0
73
2
0
TEXT
8
TEXT-LABELS
7
STANDARD
10
320.5760
20
-164.9990
30
0.0
40
8
1
14
50
0.0
72
1
11
320.5760
21
-164.9990
31
0.0
73
2
0
TEXT
8
TEXT-LABELS
7
STANDARD
10
370.1920
20
-54.9997
30
0.0
40
8
1
8
50
0.0
72
1
11
370.1920
21
-54.9997
31
0.0
73
2
0
TEXT
8
TEXT-LABELS
7
STANDARD
10
370.5760
20
-164.9990
30
0.0
40
8
1
13
50
0.0
72
1
11
370.5760
21
-164.9990
31
0.0
73
2
0
TEXT
8
TEXT-LABELS
7
STANDARD
10
420.1920
20
-54.9997
30
0.0
40
8
1
9
50
0.0
72
1
11
420.1920
21
-54.9997
31
0.0
73
2
0
TEXT
8
TEXT-LABELS
7
STANDARD
10
420.5760
20
-164.9990
30
0.0
40
8
1
12
50
0.0
72
1
11
420.5760
21
-164.9990
31
0.0
73
2
0
TEXT
8
TEXT-LABELS
7
STANDARD
10
472.3820
20
-54.9995
30
0.0
40
8
1
10
50
0.0
72
1
11
472.3820
21
-54.9995
31
0.0
73
2
0
TEXT
8
TEXT-LABELS
7
STANDARD
10
472.8459
20
-164.9985
30
0.0
40
8
1
11
50
0.0
72
1
11
472.8459
21
-164.9985
31
0.0
73
2
0
TEXT
8
TEXT-LABELS
7
STANDARD
10
26.0908
20
-312.4981
30
0.0
40
8
1
1
50
0.0
72
1
11
26.0908
21
-312.4981
31
0.0
73
2
0
TEXT
8
TEXT-LABELS
7
STANDARD
10
26.4573
20
-417.4975
30
0.0
40
8
1
8
50
0.0
72
1
11
26.4573
21
-417.4975
31
0.0
73
2
0
TEXT
8
TEXT-LABELS
7
STANDARD
10
76.0908
20
-312.4981
30
0.0
40
8
1
2
50
0.0
72
1
11
76.0908
21
-312.4981
31
0.0
73
2
0
TEXT
8
TEXT-LABELS
7
STANDARD
10
76.4573
20
-417.4975
30
0.0
40
8
1
7
50
0.0
72
1
11
76.4573
21
-417.4975
31
0.0
73
2
0
TEXT
8
TEXT-LABELS
7
STANDARD
10
126.0908
20
-312.4981
30
0.0
40
8
1
3
50
0.0
72
1
11
126.0908
21
-312.4981
31
0.0
73
2
0
TEXT
8
TEXT-LABELS
7
STANDARD
10
126.4573
20
-417.4975
30
0.0
40
8
1
6
50
0.0
72
1
11
126.4573
21
-417.4975
31
0.0
73
2
0
TEXT
8
TEXT-LABELS
7
STANDARD
10
176.0908
20
-312.4981
30
0.0
40
8
1
4
50
0.0
72
1
11
176.0908
21
-312.4981
31
0.0
73
2
0
TEXT
8
TEXT-LABELS
7
STANDARD
10
176.4573
20
-417.4975
30
0.0
40
8
1
5
50
0.0
72
1
11
176.4573
21
-417.4975
31
0.0
73
2
0
TEXT
8
TEXT-LABELS
7
STANDARD
10
266.1083
20
-317.4981
30
0.0
40
8
1
1
50
0.0
72
1
11
266.1083
21
-317.4981
31
0.0
73
2
0
TEXT
8
TEXT-LABELS
7
STANDARD
10
316.1083
20
-317.4981
30
0.0
40
8
1
2
50
0.0
72
1
11
316.1083
21
-317.4981
31
0.0
73
2
0
TEXT
8
TEXT-LABELS
7
STANDARD
10
366.1083
20
-317.4981
30
0.0
40
8
1
3
50
0.0
72
1
11
366.1083
21
-317.4981
31
0.0
73
2
0
TEXT
8
TEXT-LABELS
7
STANDARD
10
416.1083
20
-317.4981
30
0.0
40
8
1
4
50
0.0
72
1
11
416.1083
21
-317.4981
31
0.0
73
2
0
TEXT
8
TEXT-LABELS
7
STANDARD
10
465.0833
20
-317.4981
30
0.0
40
8
1
5
50
0.0
72
1
11
465.0833
21
-317.4981
31
0.0
73
2
0
TEXT
8
TEXT-LABELS
7
STANDARD
10
291.3919
20
-398.7476
30
0.0
40
8
1
12
50
0.0
72
1
11
291.3919
21
-398.7476
31
0.0
73
2
0
TEXT
8
TEXT-LABELS
7
STANDARD
10
414.3116
20
-414.5081
30
0.0
40
8
1
6
50
0.0
72
1
11
414.3116
21
-414.5081
31
0.0
73
2
0
TEXT
8
TEXT-LABELS
7
STANDARD
10
416.5193
20
-508.6059
30
0.0
40
8
1
8
50
0.0
72
1
11
416.5193
21
-508.6059
31
0.0
73
2
0
TEXT
8
TEXT-LABELS
7
STANDARD
10
465.4229
20
-508.6059
30
0.0
40
8
1
7
50
0.0
72
1
11
465.4229
21
-508.6059
31
0.0
73
2
0
TEXT
8
TEXT-LABELS
7
STANDARD
10
253.8622
20
-487.4806
30
0.0
40
8
1
11
50
0.0
72
1
11
253.8622
21
-487.4806
31
0.0
73
2
0
TEXT
8
TEXT-LABELS
7
STANDARD
10
294.5164
20
-540.5631
30
0.0
40
8
1
10
50
0.0
72
1
11
294.5164
21
-540.5631
31
0.0
73
2
0
TEXT
8
TEXT-LABELS
7
STANDARD
10
338.8436
20
-557.7964
30
0.0
40
8
1
9
50
0.0
72
1
11
338.8436
21
-557.7964
31
0.0
73
2
0
TEXT
8
TEXT-LABELS
7
STANDARD
10
51.8675
20
-534.9967
30
0.0
40
8
1
1
50
0.0
72
1
11
51.8675
21
-534.9967
31
0.0
73
2
0
TEXT
8
TEXT-LABELS
7
STANDARD
10
156.8675
20
-534.9967
30
0.0
40
8
1
2
50
0.0
72
1
11
156.8675
21
-534.9967
31
0.0
73
2
0
TEXT
8
TEXT-LABELS
7
STANDARD
10
52.0420
20
-584.9964
30
0.0
40
8
1
11
50
0.0
72
1
11
52.0420
21
-584.9964
31
0.0
73
2
0
TEXT
8
TEXT-LABELS
7
STANDARD
10
157.0420
20
-584.9964
30
0.0
40
8
1
3
50
0.0
72
1
11
157.0420
21
-584.9964
31
0.0
73
2
0
TEXT
8
TEXT-LABELS
7
STANDARD
10
52.2035
20
-631.2462
30
0.0
40
8
1
10
50
0.0
72
1
11
52.2035
21
-631.2462
31
0.0
73
2
0
TEXT
8
TEXT-LABELS
7
STANDARD
10
157.2084
20
-632.6461
30
0.0
40
8
1
4
50
0.0
72
1
11
157.2084
21
-632.6461
31
0.0
73
2
0
TEXT
8
BLOCK-TEXT
7
STANDARD
10
203.3840
20
-109.9993
30
0.0
40
14
1
(8)
50
0.0
72
1
11
203.3840
21
-109.9993
31
0.0
73
2
0
TEXT
8
BLOCK-TEXT
7
STANDARD
10
109.2741
20
-364.9978
30
0.0
40
14
1
(7)
50
0.0
72
1
11
109.2741
21
-364.9978
31
0.0
73
2
0
TEXT
8
BLOCK-TEXT
7
STANDARD
10
349.3090
20
-374.9977
30
0.0
40
14
1
(6)
50
0.0
72
1
11
349.3090
21
-374.9977
31
0.0
73
2
0
TEXT
8
BLOCK-TEXT
7
STANDARD
10
110.1293
20
-609.9963
30
0.0
40
14
1
(4)
50
0.0
72
1
11
110.1293
21
-609.9963
31
0.0
73
2
0
TEXT
8
TITLEBLOCK
7
STANDARD
10
250.0000
20
60.0000
30
0.0
40
14
1
OCEAN GROVE UNIT NO. 1  PB 15 PG 82 (1937)  -  claude reconstruction, in progress
50
0.0
72
1
11
250.0000
21
60.0000
31
0.0
73
2
0
TEXT
8
TITLEBLOCK
7
STANDARD
10
250.0000
20
35.0000
30
0.0
40
9
1
NO BEARINGS ON PLAT - 17TH ST TAKEN DUE EAST; BLOCK 4 LOTS 5-9 AND BLOCKS 5,3,2,1 NOT YET BUILT
50
0.0
72
1
11
250.0000
21
35.0000
31
0.0
73
2
0
ENDSEC
0
EOF
