  0
SECTION
  2
HEADER
  9
$ACADVER
  1
AC1024
  9
$ACADMAINTVER
 70
6
  9
$DWGCODEPAGE
  3
ANSI_1252
  9
$LASTSAVEDBY
  1
ezdxf
  9
$INSBASE
 10
0.0
 20
0.0
 30
0.0
  9
$EXTMIN
 10
1e+20
 20
1e+20
 30
1e+20
  9
$EXTMAX
 10
-1e+20
 20
-1e+20
 30
-1e+20
  9
$LIMMIN
 10
0.0
 20
0.0
  9
$LIMMAX
 10
420.0
 20
297.0
  9
$ORTHOMODE
 70
0
  9
$REGENMODE
 70
1
  9
$FILLMODE
 70
1
  9
$QTEXTMODE
 70
0
  9
$MIRRTEXT
 70
1
  9
$LTSCALE
 40
1.0
  9
$ATTMODE
 70
1
  9
$TEXTSIZE
 40
2.5
  9
$TRACEWID
 40
1.0
  9
$TEXTSTYLE
  7
OpenSans
  9
$CLAYER
  8
0
  9
$CELTYPE
  6
ByLayer
  9
$CECOLOR
 62
256
  9
$CELTSCALE
 40
1.0
  9
$DISPSILH
 70
0
  9
$DIMSCALE
 40
1.0
  9
$DIMASZ
 40
0.175
  9
$DIMEXO
 40
0.125
  9
$DIMDLI
 40
3.75
  9
$DIMRND
 40
0.0
  9
$DIMDLE
 40
0.0
  9
$DIMEXE
 40
0.375
  9
$DIMTP
 40
0.0
  9
$DIMTM
 40
0.0
  9
$DIMTXT
 40
0.25
  9
$DIMCEN
 40
2.5
  9
$DIMTSZ
 40
0.0
  9
$DIMTOL
 70
0
  9
$DIMLIM
 70
0
  9
$DIMTIH
 70
0
  9
$DIMTOH
 70
0
  9
$DIMSE1
 70
0
  9
$DIMSE2
 70
0
  9
$DIMTAD
 70
1
  9
$DIMZIN
 70
12
  9
$DIMBLK
  1
ARCHTICK
  9
$DIMASO
 70
1
  9
$DIMSHO
 70
1
  9
$DIMPOST
  1

  9
$DIMAPOST
  1

  9
$DIMALT
 70
0
  9
$DIMALTD
 70
3
  9
$DIMALTF
 40
0.03937007874
  9
$DIMLFAC
 40
100.0
  9
$DIMTOFL
 70
1
  9
$DIMTVP
 40
0.0
  9
$DIMTIX
 70
0
  9
$DIMSOXD
 70
0
  9
$DIMSAH
 70
0
  9
$DIMBLK1
  1

  9
$DIMBLK2
  1

  9
$DIMSTYLE
  2
EZDXF
  9
$DIMCLRD
 70
0
  9
$DIMCLRE
 70
0
  9
$DIMCLRT
 70
0
  9
$DIMTFAC
 40
0.5
  9
$DIMGAP
 40
0.1
  9
$DIMJUST
 70
0
  9
$DIMSD1
 70
0
  9
$DIMSD2
 70
0
  9
$DIMTOLJ
 70
0
  9
$DIMTZIN
 70
8
  9
$DIMALTZ
 70
0
  9
$DIMALTTZ
 70
0
  9
$DIMUPT
 70
1
  9
$DIMDEC
 70
2
  9
$DIMTDEC
 70
2
  9
$DIMALTU
 70
2
  9
$DIMALTTD
 70
3
  9
$DIMTXSTY
  7
OpenSansCondensed-Light
  9
$DIMAUNIT
 70
0
  9
$DIMADEC
 70
2
  9
$DIMALTRND
 40
0.0
  9
$DIMAZIN
 70
3
  9
$DIMDSEP
 70
46
  9
$DIMATFIT
 70
3
  9
$DIMFRAC
 70
0
  9
$DIMLDRBLK
  1

  9
$DIMLUNIT
 70
2
  9
$DIMLWD
 70
-2
  9
$DIMLWE
 70
-2
  9
$DIMTMOVE
 70
2
  9
$DIMFXL
 40
1.0
  9
$DIMFXLON
 70
0
  9
$DIMJOGANG
 40
0.785398163397
  9
$DIMTFILL
 70
0
  9
$DIMTFILLCLR
 70
0
  9
$DIMARCSYM
 70
0
  9
$DIMLTYPE
  6

  9
$DIMLTEX1
  6

  9
$DIMLTEX2
  6

  9
$DIMTXTDIRECTION
 70
0
  9
$LUNITS
 70
2
  9
$LUPREC
 70
4
  9
$SKETCHINC
 40
1.0
  9
$FILLETRAD
 40
10.0
  9
$AUNITS
 70
0
  9
$AUPREC
 70
2
  9
$MENU
  1
.
  9
$ELEVATION
 40
0.0
  9
$PELEVATION
 40
0.0
  9
$THICKNESS
 40
0.0
  9
$LIMCHECK
 70
0
  9
$CHAMFERA
 40
0.0
  9
$CHAMFERB
 40
0.0
  9
$CHAMFERC
 40
0.0
  9
$CHAMFERD
 40
0.0
  9
$SKPOLY
 70
0
  9
$TDCREATE
 40
2461308.1255208333
  9
$TDUCREATE
 40
2458532.153996898
  9
$TDUPDATE
 40
2461308.1255208333
  9
$TDUUPDATE
 40
2458532.1544311
  9
$TDINDWG
 40
0.0
  9
$TDUSRTIMER
 40
0.0
  9
$USRTIMER
 70
1
  9
$ANGBASE
 50
0.0
  9
$ANGDIR
 70
0
  9
$PDMODE
 70
0
  9
$PDSIZE
 40
0.0
  9
$PLINEWID
 40
0.0
  9
$SPLFRAME
 70
0
  9
$SPLINETYPE
 70
6
  9
$SPLINESEGS
 70
8
  9
$HANDSEED
  5
138
  9
$SURFTAB1
 70
6
  9
$SURFTAB2
 70
6
  9
$SURFTYPE
 70
6
  9
$SURFU
 70
6
  9
$SURFV
 70
6
  9
$UCSBASE
  2

  9
$UCSNAME
  2

  9
$UCSORG
 10
0.0
 20
0.0
 30
0.0
  9
$UCSXDIR
 10
1.0
 20
0.0
 30
0.0
  9
$UCSYDIR
 10
0.0
 20
1.0
 30
0.0
  9
$UCSORTHOREF
  2

  9
$UCSORTHOVIEW
 70
0
  9
$UCSORGTOP
 10
0.0
 20
0.0
 30
0.0
  9
$UCSORGBOTTOM
 10
0.0
 20
0.0
 30
0.0
  9
$UCSORGLEFT
 10
0.0
 20
0.0
 30
0.0
  9
$UCSORGRIGHT
 10
0.0
 20
0.0
 30
0.0
  9
$UCSORGFRONT
 10
0.0
 20
0.0
 30
0.0
  9
$UCSORGBACK
 10
0.0
 20
0.0
 30
0.0
  9
$PUCSBASE
  2

  9
$PUCSNAME
  2

  9
$PUCSORG
 10
0.0
 20
0.0
 30
0.0
  9
$PUCSXDIR
 10
1.0
 20
0.0
 30
0.0
  9
$PUCSYDIR
 10
0.0
 20
1.0
 30
0.0
  9
$PUCSORTHOREF
  2

  9
$PUCSORTHOVIEW
 70
0
  9
$PUCSORGTOP
 10
0.0
 20
0.0
 30
0.0
  9
$PUCSORGBOTTOM
 10
0.0
 20
0.0
 30
0.0
  9
$PUCSORGLEFT
 10
0.0
 20
0.0
 30
0.0
  9
$PUCSORGRIGHT
 10
0.0
 20
0.0
 30
0.0
  9
$PUCSORGFRONT
 10
0.0
 20
0.0
 30
0.0
  9
$PUCSORGBACK
 10
0.0
 20
0.0
 30
0.0
  9
$USERI1
 70
0
  9
$USERI2
 70
0
  9
$USERI3
 70
0
  9
$USERI4
 70
0
  9
$USERI5
 70
0
  9
$USERR1
 40
0.0
  9
$USERR2
 40
0.0
  9
$USERR3
 40
0.0
  9
$USERR4
 40
0.0
  9
$USERR5
 40
0.0
  9
$WORLDVIEW
 70
1
  9
$SHADEDGE
 70
3
  9
$SHADEDIF
 70
70
  9
$TILEMODE
 70
1
  9
$MAXACTVP
 70
64
  9
$PINSBASE
 10
0.0
 20
0.0
 30
0.0
  9
$PLIMCHECK
 70
0
  9
$PEXTMIN
 10
1e+20
 20
1e+20
 30
1e+20
  9
$PEXTMAX
 10
-1e+20
 20
-1e+20
 30
-1e+20
  9
$PLIMMIN
 10
0.0
 20
0.0
  9
$PLIMMAX
 10
420.0
 20
297.0
  9
$UNITMODE
 70
0
  9
$VISRETAIN
 70
1
  9
$PLINEGEN
 70
0
  9
$PSLTSCALE
 70
1
  9
$TREEDEPTH
 70
3020
  9
$CMLSTYLE
  2
Standard
  9
$CMLJUST
 70
0
  9
$CMLSCALE
 40
20.0
  9
$PROXYGRAPHICS
 70
1
  9
$MEASUREMENT
 70
0
  9
$CELWEIGHT
370
-1
  9
$ENDCAPS
280
0
  9
$JOINSTYLE
280
0
  9
$LWDISPLAY
290
0
  9
$INSUNITS
 70
0
  9
$HYPERLINKBASE
  1

  9
$STYLESHEET
  1

  9
$XEDIT
290
1
  9
$CEPSNTYPE
380
0
  9
$PSTYLEMODE
290
1
  9
$FINGERPRINTGUID
  2
{D9C80187-29F4-452B-BAC8-00C83C543093}
  9
$VERSIONGUID
  2
{A7DFB690-7401-4E43-AA02-F5EDD8E1B7D2}
  9
$EXTNAMES
290
1
  9
$PSVPSCALE
 40
0.0
  9
$OLESTARTUP
290
0
  9
$SORTENTS
280
127
  9
$INDEXCTL
280
0
  9
$HIDETEXT
280
1
  9
$XCLIPFRAME
280
1
  9
$HALOGAP
280
0
  9
$OBSCOLOR
 70
257
  9
$OBSLTYPE
280
0
  9
$INTERSECTIONDISPLAY
280
0
  9
$INTERSECTIONCOLOR
 70
257
  9
$DIMASSOC
280
2
  9
$PROJECTNAME
  1

  9
$CAMERADISPLAY
290
0
  9
$LENSLENGTH
 40
50.0
  9
$CAMERAHEIGHT
 40
0.0
  9
$STEPSPERSEC
 40
24.0
  9
$STEPSIZE
 40
100.0
  9
$3DDWFPREC
 40
2.0
  9
$PSOLWIDTH
 40
0.005
  9
$PSOLHEIGHT
 40
0.08
  9
$LOFTANG1
 40
1.570796326795
  9
$LOFTANG2
 40
1.570796326795
  9
$LOFTMAG1
 40
0.0
  9
$LOFTMAG2
 40
0.0
  9
$LOFTPARAM
 70
7
  9
$LOFTNORMALS
280
1
  9
$LATITUDE
 40
37.795
  9
$LONGITUDE
 40
-122.394
  9
$NORTHDIRECTION
 40
0.0
  9
$TIMEZONE
 70
-8000
  9
$LIGHTGLYPHDISPLAY
280
1
  9
$TILEMODELIGHTSYNCH
280
1
  9
$CMATERIAL
347
20
  9
$SOLIDHIST
280
0
  9
$SHOWHIST
280
1
  9
$DWFFRAME
280
2
  9
$DGNFRAME
280
2
  9
$REALWORLDSCALE
290
1
  9
$INTERFERECOLOR
 62
256
  9
$CSHADOW
280
0
  9
$SHADOWPLANELOCATION
 40
0.0
  0
ENDSEC
  0
SECTION
  2
CLASSES
  0
CLASS
  1
ACDBDICTIONARYWDFLT
  2
AcDbDictionaryWithDefault
  3
ObjectDBX Classes
 90
0
 91
0
280
0
281
0
  0
CLASS
  1
SUN
  2
AcDbSun
  3
SCENEOE
 90
1153
 91
0
280
0
281
0
  0
CLASS
  1
VISUALSTYLE
  2
AcDbVisualStyle
  3
ObjectDBX Classes
 90
4095
 91
0
280
0
281
0
  0
CLASS
  1
MATERIAL
  2
AcDbMaterial
  3
ObjectDBX Classes
 90
1153
 91
0
280
0
281
0
  0
CLASS
  1
SCALE
  2
AcDbScale
  3
ObjectDBX Classes
 90
1153
 91
0
280
0
281
0
  0
CLASS
  1
TABLESTYLE
  2
AcDbTableStyle
  3
ObjectDBX Classes
 90
4095
 91
0
280
0
281
0
  0
CLASS
  1
MLEADERSTYLE
  2
AcDbMLeaderStyle
  3
ACDB_MLEADERSTYLE_CLASS
 90
4095
 91
0
280
0
281
0
  0
CLASS
  1
DICTIONARYVAR
  2
AcDbDictionaryVar
  3
ObjectDBX Classes
 90
0
 91
0
280
0
281
0
  0
CLASS
  1
CELLSTYLEMAP
  2
AcDbCellStyleMap
  3
ObjectDBX Classes
 90
1152
 91
0
280
0
281
0
  0
CLASS
  1
MENTALRAYRENDERSETTINGS
  2
AcDbMentalRayRenderSettings
  3
SCENEOE
 90
1024
 91
0
280
0
281
0
  0
CLASS
  1
ACDBDETAILVIEWSTYLE
  2
AcDbDetailViewStyle
  3
ObjectDBX Classes
 90
1025
 91
0
280
0
281
0
  0
CLASS
  1
ACDBSECTIONVIEWSTYLE
  2
AcDbSectionViewStyle
  3
ObjectDBX Classes
 90
1025
 91
0
280
0
281
0
  0
CLASS
  1
RASTERVARIABLES
  2
AcDbRasterVariables
  3
ISM
 90
0
 91
0
280
0
281
0
  0
CLASS
  1
LAYOUT
  2
AcDbLayout
  3
ObjectDBX Classes
 90
0
 91
0
280
0
281
0
  0
CLASS
  1
ACDBPLACEHOLDER
  2
AcDbPlaceHolder
  3
ObjectDBX Classes
 90
0
 91
0
280
0
281
0
  0
ENDSEC
  0
SECTION
  2
TABLES
  0
TABLE
  2
VPORT
  5
8
330
0
100
AcDbSymbolTable
 70
1
  0
VPORT
  5
23
330
8
100
AcDbSymbolTableRecord
100
AcDbViewportTableRecord
  2
*Active
 70
0
 10
0.0
 20
0.0
 11
1.0
 21
1.0
 12
0.0
 22
0.0
 13
0.0
 23
0.0
 14
0.5
 24
0.5
 15
0.5
 25
0.5
 16
0.0
 26
0.0
 36
1.0
 17
0.0
 27
0.0
 37
0.0
 40
1000.0
 41
1.34
 42
50.0
 43
0.0
 44
0.0
 50
0.0
 51
0.0
 71
0
 72
1000
 73
1
 74
3
 75
0
 76
0
 77
0
 78
0
281
0
 65
0
146
0.0
  0
ENDTAB
  0
TABLE
  2
LTYPE
  5
2
330
0
100
AcDbSymbolTable
 70
21
  0
LTYPE
  5
24
330
2
100
AcDbSymbolTableRecord
100
AcDbLinetypeTableRecord
  2
ByBlock
 70
0
  3

 72
65
 73
0
 40
0.0
  0
LTYPE
  5
25
330
2
100
AcDbSymbolTableRecord
100
AcDbLinetypeTableRecord
  2
ByLayer
 70
0
  3

 72
65
 73
0
 40
0.0
  0
LTYPE
  5
26
330
2
100
AcDbSymbolTableRecord
100
AcDbLinetypeTableRecord
  2
Continuous
 70
0
  3

 72
65
 73
0
 40
0.0
  0
LTYPE
  5
2F
330
2
100
AcDbSymbolTableRecord
100
AcDbLinetypeTableRecord
  2
CENTER
 70
0
  3
Center ____ _ ____ _ ____ _ ____ _ ____ _ ____
 72
65
 73
4
 40
5.08
 49
3.175
 74
0
 49
-0.635
 74
0
 49
0.635
 74
0
 49
-0.635
 74
0
  0
LTYPE
  5
30
330
2
100
AcDbSymbolTableRecord
100
AcDbLinetypeTableRecord
  2
CENTERX2
 70
0
  3
Center (2x) ________  __  ________  __  ________
 72
65
 73
4
 40
8.89
 49
6.35
 74
0
 49
-0.635
 74
0
 49
1.27
 74
0
 49
-0.635
 74
0
  0
LTYPE
  5
31
330
2
100
AcDbSymbolTableRecord
100
AcDbLinetypeTableRecord
  2
CENTER2
 70
0
  3
Center (.5x) ____ _ ____ _ ____ _ ____ _ ____
 72
65
 73
4
 40
2.54
 49
1.587
 74
0
 49
-0.318
 74
0
 49
0.318
 74
0
 49
-0.318
 74
0
  0
LTYPE
  5
32
330
2
100
AcDbSymbolTableRecord
100
AcDbLinetypeTableRecord
  2
DASHED
 70
0
  3
Dashed __ __ __ __ __ __ __ __ __ __ __ __ __ _
 72
65
 73
2
 40
1.524
 49
1.27
 74
0
 49
-0.254
 74
0
  0
LTYPE
  5
33
330
2
100
AcDbSymbolTableRecord
100
AcDbLinetypeTableRecord
  2
DASHEDX2
 70
0
  3
Dashed (2x) ____  ____  ____  ____  ____  ____
 72
65
 73
2
 40
3.048
 49
2.54
 74
0
 49
-0.508
 74
0
  0
LTYPE
  5
34
330
2
100
AcDbSymbolTableRecord
100
AcDbLinetypeTableRecord
  2
DASHED2
 70
0
  3
Dashed (.5x) _ _ _ _ _ _ _ _ _ _ _ _ _ _
 72
65
 73
2
 40
0.762
 49
0.635
 74
0
 49
-0.127
 74
0
  0
LTYPE
  5
35
330
2
100
AcDbSymbolTableRecord
100
AcDbLinetypeTableRecord
  2
PHANTOM
 70
0
  3
Phantom ______  __  __  ______  __  __  ______
 72
65
 73
6
 40
6.35
 49
3.175
 74
0
 49
-0.635
 74
0
 49
0.635
 74
0
 49
-0.635
 74
0
 49
0.635
 74
0
 49
-0.635
 74
0
  0
LTYPE
  5
36
330
2
100
AcDbSymbolTableRecord
100
AcDbLinetypeTableRecord
  2
PHANTOMX2
 70
0
  3
Phantom (2x)____________    ____    ____    ____________
 72
65
 73
6
 40
10.795
 49
6.35
 74
0
 49
-0.635
 74
0
 49
1.27
 74
0
 49
-0.635
 74
0
 49
1.27
 74
0
 49
-0.635
 74
0
  0
LTYPE
  5
37
330
2
100
AcDbSymbolTableRecord
100
AcDbLinetypeTableRecord
  2
PHANTOM2
 70
0
  3
Phantom (.5x) ___ _ _ ___ _ _ ___ _ _ ___ _ _ ___
 72
65
 73
6
 40
3.175
 49
1.587
 74
0
 49
-0.318
 74
0
 49
0.318
 74
0
 49
-0.318
 74
0
 49
0.318
 74
0
 49
-0.318
 74
0
  0
LTYPE
  5
38
330
2
100
AcDbSymbolTableRecord
100
AcDbLinetypeTableRecord
  2
DASHDOT
 70
0
  3
Dash dot __ . __ . __ . __ . __ . __ . __ . __
 72
65
 73
4
 40
3.556
 49
2.54
 74
0
 49
-0.508
 74
0
 49
0.0
 74
0
 49
-0.508
 74
0
  0
LTYPE
  5
39
330
2
100
AcDbSymbolTableRecord
100
AcDbLinetypeTableRecord
  2
DASHDOTX2
 70
0
  3
Dash dot (2x) ____  .  ____  .  ____  .  ____
 72
65
 73
4
 40
6.096
 49
5.08
 74
0
 49
-0.508
 74
0
 49
0.0
 74
0
 49
-0.508
 74
0
  0
LTYPE
  5
3A
330
2
100
AcDbSymbolTableRecord
100
AcDbLinetypeTableRecord
  2
DASHDOT2
 70
0
  3
Dash dot (.5x) _ . _ . _ . _ . _ . _ . _ . _
 72
65
 73
4
 40
1.778
 49
1.27
 74
0
 49
-0.254
 74
0
 49
0.0
 74
0
 49
-0.254
 74
0
  0
LTYPE
  5
3B
330
2
100
AcDbSymbolTableRecord
100
AcDbLinetypeTableRecord
  2
DOT
 70
0
  3
Dot .  .  .  .  .  .  .  .  .  .  .  .  .  .  .  .
 72
65
 73
2
 40
0.508
 49
0.0
 74
0
 49
-0.508
 74
0
  0
LTYPE
  5
3C
330
2
100
AcDbSymbolTableRecord
100
AcDbLinetypeTableRecord
  2
DOTX2
 70
0
  3
Dot (2x) .    .    .    .    .    .    .    . 
 72
65
 73
2
 40
1.016
 49
0.0
 74
0
 49
-1.016
 74
0
  0
LTYPE
  5
3D
330
2
100
AcDbSymbolTableRecord
100
AcDbLinetypeTableRecord
  2
DOT2
 70
0
  3
Dot (.5) . . . . . . . . . . . . . . . . . . . 
 72
65
 73
2
 40
0.254
 49
0.0
 74
0
 49
-0.254
 74
0
  0
LTYPE
  5
3E
330
2
100
AcDbSymbolTableRecord
100
AcDbLinetypeTableRecord
  2
DIVIDE
 70
0
  3
Divide __ . . __ . . __ . . __ . . __ . . __
 72
65
 73
6
 40
4.064
 49
2.54
 74
0
 49
-0.508
 74
0
 49
0.0
 74
0
 49
-0.508
 74
0
 49
0.0
 74
0
 49
-0.508
 74
0
  0
LTYPE
  5
3F
330
2
100
AcDbSymbolTableRecord
100
AcDbLinetypeTableRecord
  2
DIVIDEX2
 70
0
  3
Divide (2x) ____  . .  ____  . .  ____  . .  ____
 72
65
 73
6
 40
6.604
 49
5.08
 74
0
 49
-0.508
 74
0
 49
0.0
 74
0
 49
-0.508
 74
0
 49
0.0
 74
0
 49
-0.508
 74
0
  0
LTYPE
  5
40
330
2
100
AcDbSymbolTableRecord
100
AcDbLinetypeTableRecord
  2
DIVIDE2
 70
0
  3
Divide(.5x) _ . _ . _ . _ . _ . _ . _ . _
 72
65
 73
6
 40
2.032
 49
1.27
 74
0
 49
-0.254
 74
0
 49
0.0
 74
0
 49
-0.254
 74
0
 49
0.0
 74
0
 49
-0.254
 74
0
  0
ENDTAB
  0
TABLE
  2
LAYER
  5
1
330
0
100
AcDbSymbolTable
 70
18
  0
LAYER
  5
27
330
1
100
AcDbSymbolTableRecord
100
AcDbLayerTableRecord
  2
0
 70
0
 62
7
  6
Continuous
370
-3
390
13
347
21
  0
LAYER
  5
28
330
1
100
AcDbSymbolTableRecord
100
AcDbLayerTableRecord
  2
Defpoints
 70
0
 62
7
  6
Continuous
290
0
370
-3
390
13
347
21
  0
LAYER
  5
8B
330
1
100
AcDbSymbolTableRecord
100
AcDbLayerTableRecord
  2
PLAT-LINE
 70
0
 62
7
  6
CONTINUOUS
370
-3
390
13
347
21
  0
LAYER
  5
8C
330
1
100
AcDbSymbolTableRecord
100
AcDbLayerTableRecord
  2
PLAT-LINE-DASH
 70
0
 62
8
  6
DASHED
370
-3
390
13
347
21
  0
LAYER
  5
8D
330
1
100
AcDbSymbolTableRecord
100
AcDbLayerTableRecord
  2
PLAT-CURVE
 70
0
 62
4
  6
CONTINUOUS
370
-3
390
13
347
21
  0
LAYER
  5
8E
330
1
100
AcDbSymbolTableRecord
100
AcDbLayerTableRecord
  2
PLAT-TEXT-BRG
 70
0
 62
3
  6
CONTINUOUS
370
-3
390
13
347
21
  0
LAYER
  5
8F
330
1
100
AcDbSymbolTableRecord
100
AcDbLayerTableRecord
  2
PLAT-TEXT-DIST
 70
0
 62
2
  6
CONTINUOUS
370
-3
390
13
347
21
  0
LAYER
  5
90
330
1
100
AcDbSymbolTableRecord
100
AcDbLayerTableRecord
  2
PLAT-TEXT-CURVE
 70
0
 62
6
  6
CONTINUOUS
370
-3
390
13
347
21
  0
LAYER
  5
91
330
1
100
AcDbSymbolTableRecord
100
AcDbLayerTableRecord
  2
PLAT-TEXT-LOTNO
 70
0
 62
5
  6
CONTINUOUS
370
-3
390
13
347
21
  0
LAYER
  5
92
330
1
100
AcDbSymbolTableRecord
100
AcDbLayerTableRecord
  2
PLAT-TEXT-AREA
 70
0
 62
5
  6
CONTINUOUS
370
-3
390
13
347
21
  0
LAYER
  5
93
330
1
100
AcDbSymbolTableRecord
100
AcDbLayerTableRecord
  2
PLAT-TEXT-MISC
 70
0
 62
9
  6
CONTINUOUS
370
-3
390
13
347
21
  0
LAYER
  5
94
330
1
100
AcDbSymbolTableRecord
100
AcDbLayerTableRecord
  2
PLAT-TEXT-UNASSOC
 70
0
 62
30
  6
CONTINUOUS
370
-3
390
13
347
21
  0
LAYER
  5
95
330
1
100
AcDbSymbolTableRecord
100
AcDbLayerTableRecord
  2
PLAT-TABLE-CURVE
 70
0
 62
6
  6
CONTINUOUS
370
-3
390
13
347
21
  0
LAYER
  5
96
330
1
100
AcDbSymbolTableRecord
100
AcDbLayerTableRecord
  2
PLAT-TABLE
 70
0
 62
6
  6
CONTINUOUS
370
-3
390
13
347
21
  0
LAYER
  5
97
330
1
100
AcDbSymbolTableRecord
100
AcDbLayerTableRecord
  2
PLAT-NOTES
 70
0
 62
7
  6
CONTINUOUS
370
-3
390
13
347
21
  0
LAYER
  5
98
330
1
100
AcDbSymbolTableRecord
100
AcDbLayerTableRecord
  2
PLAT-QA
 70
0
 62
1
  6
CONTINUOUS
370
-3
390
13
347
21
  0
LAYER
  5
99
330
1
100
AcDbSymbolTableRecord
100
AcDbLayerTableRecord
  2
PLAT-MON
 70
0
 62
1
  6
CONTINUOUS
370
-3
390
13
347
21
  0
LAYER
  5
9A
330
1
100
AcDbSymbolTableRecord
100
AcDbLayerTableRecord
  2
PLAT-TEXT-LOWCONF
 70
1
 62
8
  6
CONTINUOUS
370
-3
390
13
347
21
  0
ENDTAB
  0
TABLE
  2
STYLE
  5
5
330
0
100
AcDbSymbolTable
 70
27
  0
STYLE
  5
29
330
5
100
AcDbSymbolTableRecord
100
AcDbTextStyleTableRecord
  2
Standard
 70
0
 40
0.0
 41
1.0
 50
0.0
 71
0
 42
2.5
  3
txt
  4

  0
STYLE
  5
41
330
5
100
AcDbSymbolTableRecord
100
AcDbTextStyleTableRecord
  2
OpenSans-Light
 70
0
 40
0.0
 41
1.0
 50
0.0
 71
0
 42
2.5
  3
OpenSans-Light.ttf
  4

  0
STYLE
  5
42
330
5
100
AcDbSymbolTableRecord
100
AcDbTextStyleTableRecord
  2
OpenSans-Light-Italic
 70
0
 40
0.0
 41
1.0
 50
0.0
 71
0
 42
2.5
  3
OpenSans-LightItalic.ttf
  4

  0
STYLE
  5
43
330
5
100
AcDbSymbolTableRecord
100
AcDbTextStyleTableRecord
  2
OpenSans
 70
0
 40
0.0
 41
1.0
 50
0.0
 71
0
 42
2.5
  3
OpenSans-Regular.ttf
  4

  0
STYLE
  5
44
330
5
100
AcDbSymbolTableRecord
100
AcDbTextStyleTableRecord
  2
OpenSans-Italic
 70
0
 40
0.0
 41
1.0
 50
0.0
 71
0
 42
2.5
  3
OpenSans-Italic.ttf
  4

  0
STYLE
  5
45
330
5
100
AcDbSymbolTableRecord
100
AcDbTextStyleTableRecord
  2
OpenSans-SemiBold
 70
0
 40
0.0
 41
1.0
 50
0.0
 71
0
 42
2.5
  3
OpenSans-SemiBold.ttf
  4

  0
STYLE
  5
46
330
5
100
AcDbSymbolTableRecord
100
AcDbTextStyleTableRecord
  2
OpenSans-SemiBoldItalic
 70
0
 40
0.0
 41
1.0
 50
0.0
 71
0
 42
2.5
  3
OpenSans-SemiBoldItalic.ttf
  4

  0
STYLE
  5
47
330
5
100
AcDbSymbolTableRecord
100
AcDbTextStyleTableRecord
  2
OpenSans-Bold
 70
0
 40
0.0
 41
1.0
 50
0.0
 71
0
 42
2.5
  3
OpenSans-Bold.ttf
  4

  0
STYLE
  5
48
330
5
100
AcDbSymbolTableRecord
100
AcDbTextStyleTableRecord
  2
OpenSans-BoldItalic
 70
0
 40
0.0
 41
1.0
 50
0.0
 71
0
 42
2.5
  3
OpenSans-BoldItalic.ttf
  4

  0
STYLE
  5
49
330
5
100
AcDbSymbolTableRecord
100
AcDbTextStyleTableRecord
  2
OpenSans-ExtraBold
 70
0
 40
0.0
 41
1.0
 50
0.0
 71
0
 42
2.5
  3
OpenSans-ExtraBold.ttf
  4

  0
STYLE
  5
4A
330
5
100
AcDbSymbolTableRecord
100
AcDbTextStyleTableRecord
  2
OpenSans-ExtraBoldItalic
 70
0
 40
0.0
 41
1.0
 50
0.0
 71
0
 42
2.5
  3
OpenSans-ExtraBoldItalic.ttf
  4

  0
STYLE
  5
4B
330
5
100
AcDbSymbolTableRecord
100
AcDbTextStyleTableRecord
  2
OpenSansCondensed-Bold
 70
0
 40
0.0
 41
1.0
 50
0.0
 71
0
 42
2.5
  3
OpenSansCondensed-Bold.ttf
  4

  0
STYLE
  5
4C
330
5
100
AcDbSymbolTableRecord
100
AcDbTextStyleTableRecord
  2
OpenSansCondensed-Light
 70
0
 40
0.0
 41
1.0
 50
0.0
 71
0
 42
2.5
  3
OpenSansCondensed-Light.ttf
  4

  0
STYLE
  5
4D
330
5
100
AcDbSymbolTableRecord
100
AcDbTextStyleTableRecord
  2
OpenSansCondensed-Italic
 70
0
 40
0.0
 41
1.0
 50
0.0
 71
0
 42
2.5
  3
OpenSansCondensed-LightItalic.ttf
  4

  0
STYLE
  5
4E
330
5
100
AcDbSymbolTableRecord
100
AcDbTextStyleTableRecord
  2
LiberationSans
 70
0
 40
0.0
 41
1.0
 50
0.0
 71
0
 42
2.5
  3
LiberationSans-Regular.ttf
  4

  0
STYLE
  5
4F
330
5
100
AcDbSymbolTableRecord
100
AcDbTextStyleTableRecord
  2
LiberationSans-Bold
 70
0
 40
0.0
 41
1.0
 50
0.0
 71
0
 42
2.5
  3
LiberationSans-Bold.ttf
  4

  0
STYLE
  5
50
330
5
100
AcDbSymbolTableRecord
100
AcDbTextStyleTableRecord
  2
LiberationSans-BoldItalic
 70
0
 40
0.0
 41
1.0
 50
0.0
 71
0
 42
2.5
  3
LiberationSans-BoldItalic.ttf
  4

  0
STYLE
  5
51
330
5
100
AcDbSymbolTableRecord
100
AcDbTextStyleTableRecord
  2
LiberationSans-Italic
 70
0
 40
0.0
 41
1.0
 50
0.0
 71
0
 42
2.5
  3
LiberationSans-Italic.ttf
  4

  0
STYLE
  5
52
330
5
100
AcDbSymbolTableRecord
100
AcDbTextStyleTableRecord
  2
LiberationSerif
 70
0
 40
0.0
 41
1.0
 50
0.0
 71
0
 42
2.5
  3
LiberationSerif-Regular.ttf
  4

  0
STYLE
  5
53
330
5
100
AcDbSymbolTableRecord
100
AcDbTextStyleTableRecord
  2
LiberationSerif-Bold
 70
0
 40
0.0
 41
1.0
 50
0.0
 71
0
 42
2.5
  3
LiberationSerif-Bold.ttf
  4

  0
STYLE
  5
54
330
5
100
AcDbSymbolTableRecord
100
AcDbTextStyleTableRecord
  2
LiberationSerif-BoldItalic
 70
0
 40
0.0
 41
1.0
 50
0.0
 71
0
 42
2.5
  3
LiberationSerif-BoldItalic.ttf
  4

  0
STYLE
  5
55
330
5
100
AcDbSymbolTableRecord
100
AcDbTextStyleTableRecord
  2
LiberationSerif-Italic
 70
0
 40
0.0
 41
1.0
 50
0.0
 71
0
 42
2.5
  3
LiberationSerif-Italic.ttf
  4

  0
STYLE
  5
56
330
5
100
AcDbSymbolTableRecord
100
AcDbTextStyleTableRecord
  2
LiberationMono
 70
0
 40
0.0
 41
1.0
 50
0.0
 71
0
 42
2.5
  3
LiberationMono-Regular.ttf
  4

  0
STYLE
  5
57
330
5
100
AcDbSymbolTableRecord
100
AcDbTextStyleTableRecord
  2
LiberationMono-Bold
 70
0
 40
0.0
 41
1.0
 50
0.0
 71
0
 42
2.5
  3
LiberationMono-Bold.ttf
  4

  0
STYLE
  5
58
330
5
100
AcDbSymbolTableRecord
100
AcDbTextStyleTableRecord
  2
LiberationMono-BoldItalic
 70
0
 40
0.0
 41
1.0
 50
0.0
 71
0
 42
2.5
  3
LiberationMono-BoldItalic.ttf
  4

  0
STYLE
  5
59
330
5
100
AcDbSymbolTableRecord
100
AcDbTextStyleTableRecord
  2
LiberationMono-Italic
 70
0
 40
0.0
 41
1.0
 50
0.0
 71
0
 42
2.5
  3
LiberationMono-Italic.ttf
  4

  0
STYLE
  5
9B
330
5
100
AcDbSymbolTableRecord
100
AcDbTextStyleTableRecord
  2
PLAT
 70
0
 40
0.0
 41
1.0
 50
0.0
 71
0
 42
2.5
  3
arial.ttf
  4

  0
ENDTAB
  0
TABLE
  2
VIEW
  5
7
330
0
100
AcDbSymbolTable
 70
0
  0
ENDTAB
  0
TABLE
  2
UCS
  5
6
330
0
100
AcDbSymbolTable
 70
0
  0
ENDTAB
  0
TABLE
  2
APPID
  5
3
330
0
100
AcDbSymbolTable
 70
4
  0
APPID
  5
2A
330
3
100
AcDbSymbolTableRecord
100
AcDbRegAppTableRecord
  2
ACAD
 70
0
  0
APPID
  5
8A
330
3
100
AcDbSymbolTableRecord
100
AcDbRegAppTableRecord
  2
RASTER2DXF
 70
0
  0
APPID
  5
135
330
3
100
AcDbSymbolTableRecord
100
AcDbRegAppTableRecord
  2
HATCHBACKGROUNDCOLOR
 70
0
  0
APPID
  5
136
330
3
100
AcDbSymbolTableRecord
100
AcDbRegAppTableRecord
  2
EZDXF
 70
0
  0
ENDTAB
  0
TABLE
  2
DIMSTYLE
  5
4
330
0
100
AcDbSymbolTable
 70
12
100
AcDbDimStyleTable
  0
DIMSTYLE
105
2B
330
4
100
AcDbSymbolTableRecord
100
AcDbDimStyleTableRecord
  2
Standard
 70
0
 40
1.0
 41
2.5
 42
0.625
 43
3.75
 44
1.25
 45
0.0
 46
0.0
 47
0.0
 48
0.0
 49
2.5
140
2.5
141
2.5
142
0.0
143
0.03937007874
144
1.0
145
0.0
146
1.0
147
0.625
148
0.0
 69
0
 70
0
 71
0
 72
0
 73
0
 74
0
 75
0
 76
0
 77
1
 78
8
 79
3
170
0
171
3
172
1
173
0
174
0
175
0
176
0
177
0
178
0
179
2
271
2
272
2
273
2
274
3
275
0
276
0
277
2
278
44
279
0
280
0
281
0
282
0
283
0
284
8
285
0
286
0
288
0
289
3
290
0
371
-2
372
-2
  0
DIMSTYLE
105
73
330
4
100
AcDbSymbolTableRecord
100
AcDbDimStyleTableRecord
  2
EZDXF
 70
0
 40
1.0
 41
0.175
 42
0.125
 43
3.75
 44
0.375
 45
0.0
 46
0.0
 47
0.0
 48
0.0
 49
2.5
140
0.25
141
2.5
142
0.0
143
0.03937007874
144
100.0
145
0.0
146
0.5
147
0.1
148
0.0
 69
0
 70
0
 71
0
 72
0
 73
0
 74
0
 75
0
 76
0
 77
1
 78
12
 79
3
170
0
171
3
172
1
173
0
174
0
175
0
176
0
177
0
178
0
179
2
271
2
272
2
273
2
274
3
275
0
276
0
277
2
278
46
279
2
280
0
281
0
282
0
283
0
284
8
285
0
286
0
288
1
289
3
290
0
340
4C
342
74
371
-2
372
-2
  0
DIMSTYLE
105
7C
330
4
100
AcDbSymbolTableRecord
100
AcDbDimStyleTableRecord
  2
EZ_M_100_H25_CM
 70
0
 40
1.0
 41
0.25
 42
0.125
 43
3.75
 44
0.375
 45
0.0
 46
0.0
 47
0.0
 48
0.0
 49
2.5
140
0.25
141
2.5
142
0.125
143
0.03937007874
144
100.0
145
0.0
146
0.5
147
0.1
148
0.0
 69
0
 70
0
 71
0
 72
0
 73
0
 74
0
 75
0
 76
0
 77
1
 78
12
 79
3
170
0
171
3
172
1
173
0
174
0
175
0
176
0
177
0
178
0
179
2
271
2
272
2
273
2
274
3
275
0
276
0
277
2
278
46
279
2
280
0
281
0
282
0
283
0
284
8
285
0
286
0
288
1
289
3
290
0
340
4C
371
-2
372
-2
  0
DIMSTYLE
105
7D
330
4
100
AcDbSymbolTableRecord
100
AcDbDimStyleTableRecord
  2
EZ_M_50_H25_CM
 70
0
 40
1.0
 41
0.125
 42
0.0625
 43
3.75
 44
0.1875
 45
0.0
 46
0.0
 47
0.0
 48
0.0
 49
2.5
140
0.125
141
2.5
142
0.0625
143
0.03937007874
144
100.0
145
0.0
146
0.5
147
0.05
148
0.0
 69
0
 70
0
 71
0
 72
0
 73
0
 74
0
 75
0
 76
0
 77
1
 78
12
 79
3
170
0
171
3
172
1
173
0
174
0
175
0
176
0
177
0
178
0
179
2
271
2
272
2
273
2
274
3
275
0
276
0
277
2
278
46
279
2
280
0
281
0
282
0
283
0
284
8
285
0
286
0
288
1
289
3
290
0
340
4C
371
-2
372
-2
  0
DIMSTYLE
105
7E
330
4
100
AcDbSymbolTableRecord
100
AcDbDimStyleTableRecord
  2
EZ_M_25_H25_CM
 70
0
 40
1.0
 41
0.0625
 42
0.03125
 43
3.75
 44
0.09375
 45
0.0
 46
0.0
 47
0.0
 48
0.0
 49
2.5
140
0.0625
141
2.5
142
0.03125
143
0.03937007874
144
100.0
145
0.0
146
0.5
147
0.025
148
0.0
 69
0
 70
0
 71
0
 72
0
 73
0
 74
0
 75
0
 76
0
 77
1
 78
12
 79
3
170
0
171
3
172
1
173
0
174
0
175
0
176
0
177
0
178
0
179
2
271
2
272
2
273
2
274
3
275
0
276
0
277
2
278
46
279
2
280
0
281
0
282
0
283
0
284
8
285
0
286
0
288
1
289
3
290
0
340
4C
371
-2
372
-2
  0
DIMSTYLE
105
7F
330
4
100
AcDbSymbolTableRecord
100
AcDbDimStyleTableRecord
  2
EZ_M_20_H25_CM
 70
0
 40
1.0
 41
0.05
 42
0.025
 43
3.75
 44
0.07500000000000001
 45
0.0
 46
0.0
 47
0.0
 48
0.0
 49
2.5
140
0.05
141
2.5
142
0.025
143
0.03937007874
144
100.0
145
0.0
146
0.5
147
0.020000000000000004
148
0.0
 69
0
 70
0
 71
0
 72
0
 73
0
 74
0
 75
0
 76
0
 77
1
 78
12
 79
3
170
0
171
3
172
1
173
0
174
0
175
0
176
0
177
0
178
0
179
2
271
2
272
2
273
2
274
3
275
0
276
0
277
2
278
46
279
2
280
0
281
0
282
0
283
0
284
8
285
0
286
0
288
1
289
3
290
0
340
4C
371
-2
372
-2
  0
DIMSTYLE
105
80
330
4
100
AcDbSymbolTableRecord
100
AcDbDimStyleTableRecord
  2
EZ_M_10_H25_CM
 70
0
 40
1.0
 41
0.025
 42
0.0125
 43
3.75
 44
0.037500000000000006
 45
0.0
 46
0.0
 47
0.0
 48
0.0
 49
2.5
140
0.025
141
2.5
142
0.0125
143
0.03937007874
144
100.0
145
0.0
146
0.5
147
0.010000000000000002
148
0.0
 69
0
 70
0
 71
0
 72
0
 73
0
 74
0
 75
0
 76
0
 77
1
 78
12
 79
3
170
0
171
3
172
1
173
0
174
0
175
0
176
0
177
0
178
0
179
2
271
2
272
2
273
2
274
3
275
0
276
0
277
2
278
46
279
2
280
0
281
0
282
0
283
0
284
8
285
0
286
0
288
1
289
3
290
0
340
4C
371
-2
372
-2
  0
DIMSTYLE
105
81
330
4
100
AcDbSymbolTableRecord
100
AcDbDimStyleTableRecord
  2
EZ_M_5_H25_CM
 70
0
 40
1.0
 41
0.0125
 42
0.00625
 43
3.75
 44
0.018750000000000003
 45
0.0
 46
0.0
 47
0.0
 48
0.0
 49
2.5
140
0.0125
141
2.5
142
0.00625
143
0.03937007874
144
100.0
145
0.0
146
0.5
147
0.005000000000000001
148
0.0
 69
0
 70
0
 71
0
 72
0
 73
0
 74
0
 75
0
 76
0
 77
1
 78
12
 79
3
170
0
171
3
172
1
173
0
174
0
175
0
176
0
177
0
178
0
179
2
271
2
272
2
273
2
274
3
275
0
276
0
277
2
278
46
279
2
280
0
281
0
282
0
283
0
284
8
285
0
286
0
288
1
289
3
290
0
340
4C
371
-2
372
-2
  0
DIMSTYLE
105
82
330
4
100
AcDbSymbolTableRecord
100
AcDbDimStyleTableRecord
  2
EZ_M_1_H25_CM
 70
0
 40
1.0
 41
0.0025
 42
0.00125
 43
3.75
 44
0.00375
 45
0.0
 46
0.0
 47
0.0
 48
0.0
 49
2.5
140
0.0025
141
2.5
142
0.00125
143
0.03937007874
144
100.0
145
0.0
146
0.5
147
0.001
148
0.0
 69
0
 70
0
 71
0
 72
0
 73
0
 74
0
 75
0
 76
0
 77
1
 78
12
 79
3
170
0
171
3
172
1
173
0
174
0
175
0
176
0
177
0
178
0
179
2
271
2
272
2
273
2
274
3
275
0
276
0
277
2
278
46
279
2
280
0
281
0
282
0
283
0
284
8
285
0
286
0
288
1
289
3
290
0
340
4C
371
-2
372
-2
  0
DIMSTYLE
105
83
330
4
100
AcDbSymbolTableRecord
100
AcDbDimStyleTableRecord
  2
EZ_RADIUS
 70
0
 40
1.0
 41
0.25
 42
0.125
 43
3.75
 44
0.375
 45
0.0
 46
0.0
 47
0.0
 48
0.0
 49
2.5
140
0.25
141
0.0
142
0.0
143
0.03937007874
144
100.0
145
0.0
146
0.5
147
0.1
148
0.0
 69
0
 70
0
 71
0
 72
0
 73
0
 74
0
 75
0
 76
0
 77
1
 78
12
 79
3
170
0
171
3
172
0
173
0
174
0
175
0
176
0
177
0
178
0
179
2
271
2
272
2
273
2
274
3
275
0
276
0
277
2
278
46
279
1
280
0
281
0
282
0
283
0
284
8
285
0
286
0
288
1
289
3
290
0
340
4C
342
84
371
-2
372
-2
  0
DIMSTYLE
105
88
330
4
100
AcDbSymbolTableRecord
100
AcDbDimStyleTableRecord
  2
EZ_RADIUS_INSIDE
 70
0
 40
1.0
 41
0.25
 42
0.125
 43
3.75
 44
0.375
 45
0.0
 46
0.0
 47
0.0
 48
0.0
 49
2.5
140
0.25
141
0.0
142
0.0
143
0.03937007874
144
100.0
145
0.0
146
0.5
147
0.1
148
0.0
 69
0
 70
0
 71
0
 72
0
 73
0
 74
0
 75
0
 76
0
 77
0
 78
12
 79
3
170
0
171
3
172
0
173
0
174
1
175
0
176
0
177
0
178
0
179
2
271
2
272
2
273
2
274
3
275
0
276
0
277
2
278
46
279
0
280
0
281
0
282
0
283
0
284
8
285
0
286
0
288
1
289
0
290
0
340
4C
342
84
371
-2
372
-2
  0
DIMSTYLE
105
89
330
4
100
AcDbSymbolTableRecord
100
AcDbDimStyleTableRecord
  2
EZ_CURVED
 70
0
 40
1.0
 41
0.25
 42
0.125
 43
3.75
 44
0.375
 45
0.0
 46
0.0
 47
0.0
 48
0.0
 49
2.5
140
0.25
141
2.5
142
0.0
143
0.03937007874
144
100.0
145
0.0
146
0.5
147
0.1
148
0.0
 69
0
 70
0
 71
0
 72
0
 73
0
 74
0
 75
0
 76
0
 77
1
 78
12
 79
2
 90
2
170
0
171
3
172
1
173
0
174
0
175
0
176
0
177
0
178
0
179
2
271
2
272
2
273
2
274
3
275
0
276
0
277
2
278
46
279
2
280
0
281
0
282
0
283
0
284
8
285
0
286
0
288
1
289
3
290
0
340
4C
371
-2
372
-2
  0
ENDTAB
  0
TABLE
  2
BLOCK_RECORD
  5
9
330
0
100
AcDbSymbolTable
 70
5
  0
BLOCK_RECORD
  5
17
330
9
100
AcDbSymbolTableRecord
100
AcDbBlockTableRecord
  2
*Model_Space
340
1A
 70
0
280
1
281
0
  0
BLOCK_RECORD
  5
1B
330
9
100
AcDbSymbolTableRecord
100
AcDbBlockTableRecord
  2
*Paper_Space
340
1E
 70
0
280
1
281
0
  0
BLOCK_RECORD
  5
74
330
9
100
AcDbSymbolTableRecord
100
AcDbBlockTableRecord
  2
_ARCHTICK
340
0
 70
0
280
1
281
0
  0
BLOCK_RECORD
  5
78
330
9
100
AcDbSymbolTableRecord
100
AcDbBlockTableRecord
  2
_CLOSEDFILLED
340
0
 70
0
280
1
281
0
  0
BLOCK_RECORD
  5
84
330
9
100
AcDbSymbolTableRecord
100
AcDbBlockTableRecord
  2
_CLOSEDBLANK
340
0
 70
0
280
1
281
0
  0
ENDTAB
  0
ENDSEC
  0
SECTION
  2
BLOCKS
  0
BLOCK
  5
18
330
17
100
AcDbEntity
  8
0
100
AcDbBlockBegin
  2
*Model_Space
 70
0
 10
0.0
 20
0.0
 30
0.0
  3
*Model_Space
  1

  0
ENDBLK
  5
19
330
17
100
AcDbEntity
  8
0
100
AcDbBlockEnd
  0
BLOCK
  5
1C
330
1B
100
AcDbEntity
  8
0
100
AcDbBlockBegin
  2
*Paper_Space
 70
0
 10
0.0
 20
0.0
 30
0.0
  3
*Paper_Space
  1

  0
ENDBLK
  5
1D
330
1B
100
AcDbEntity
  8
0
100
AcDbBlockEnd
  0
BLOCK
  5
75
330
74
100
AcDbEntity
  8
0
100
AcDbBlockBegin
  2
_ARCHTICK
 70
0
 10
0.0
 20
0.0
 30
0.0
  3
_ARCHTICK
  1

  0
LWPOLYLINE
  5
77
330
74
100
AcDbEntity
  8
0
  6
BYBLOCK
 62
0
100
AcDbPolyline
 90
2
 70
0
 43
0.15
 10
-0.5
 20
-0.5
 10
0.5
 20
0.5
  0
ENDBLK
  5
76
330
74
100
AcDbEntity
  8
0
100
AcDbBlockEnd
  0
BLOCK
  5
79
330
78
100
AcDbEntity
  8
0
100
AcDbBlockBegin
  2
_CLOSEDFILLED
 70
0
 10
0.0
 20
0.0
 30
0.0
  3
_CLOSEDFILLED
  1

  0
SOLID
  5
7B
330
78
100
AcDbEntity
  8
0
  6
BYBLOCK
 62
0
100
AcDbTrace
 10
-1.0
 20
0.16439898372402537
 30
0.0
 11
0.0
 21
0.0
 31
0.0
 12
-1.0
 22
-0.16439898372402537
 32
0.0
 13
-1.0
 23
-0.16439898372402537
 33
0.0
  0
ENDBLK
  5
7A
330
78
100
AcDbEntity
  8
0
100
AcDbBlockEnd
  0
BLOCK
  5
85
330
84
100
AcDbEntity
  8
0
100
AcDbBlockBegin
  2
_CLOSEDBLANK
 70
0
 10
0.0
 20
0.0
 30
0.0
  3
_CLOSEDBLANK
  1

  0
LWPOLYLINE
  5
87
330
84
100
AcDbEntity
  8
0
  6
BYBLOCK
 62
0
100
AcDbPolyline
 90
3
 70
1
 10
-1.0
 20
0.16439898372402537
 10
0.0
 20
0.0
 10
-1.0
 20
-0.16439898372402537
  0
ENDBLK
  5
86
330
84
100
AcDbEntity
  8
0
100
AcDbBlockEnd
  0
ENDSEC
  0
SECTION
  2
ENTITIES
  0
LINE
  5
9C
330
17
100
AcDbEntity
  8
PLAT-LINE
420
5809919
100
AcDbLine
 10
1838.0597185716244
 20
1652.5359951889895
 30
0.0
 11
1655.0622325341276
 21
1598.369352851267
 31
0.0
1001
RASTER2DXF
1000
line 0
1040
190.846
1040
0.997
  0
LINE
  5
9D
330
17
100
AcDbEntity
  8
PLAT-LINE
420
5809919
100
AcDbLine
 10
1655.0622325341276
 20
1598.369352851267
 30
0.0
 11
1446.2730878612908
 21
1536.5684660282905
 31
0.0
1001
RASTER2DXF
1000
line 1
1040
217.744
1040
0.997
  0
LINE
  5
9E
330
17
100
AcDbEntity
  8
PLAT-LINE
420
5809919
100
AcDbLine
 10
1838.0597185716244
 20
1652.5359951889895
 30
0.0
 11
1989.3365279070174
 21
1483.020912455554
 31
0.0
1001
RASTER2DXF
1000
line 2
1040
227.2
1040
0.994
  0
LINE
  5
9F
330
17
100
AcDbEntity
  8
PLAT-LINE
420
5809919
100
AcDbLine
 10
1655.0622325341276
 20
1598.369352851267
 30
0.0
 11
1836.5249857105307
 21
1365.028415631531
 31
0.0
1001
RASTER2DXF
1000
line 3
1040
295.596
1040
1.0
  0
LINE
  5
A0
330
17
100
AcDbEntity
  8
PLAT-LINE
420
5809919
100
AcDbLine
 10
1446.2808898461428
 20
1536.5588660519115
 30
0.0
 11
1284.8088925348404
 21
1475.5659698935183
 31
0.0
1001
RASTER2DXF
1000
line 4
1040
172.607
1040
0.996
  0
LINE
  5
A1
330
17
100
AcDbEntity
  8
PLAT-LINE
420
5809919
100
AcDbLine
 10
1284.8088925348404
 20
1475.5659698935183
 30
0.0
 11
1121.9739169141708
 21
1414.0582352747501
 31
0.0
1001
RASTER2DXF
1000
line 5
1040
174.064
1040
0.996
  0
LINE
  5
A2
330
17
100
AcDbEntity
  8
PLAT-LINE
420
5809919
100
AcDbLine
 10
1446.2808898461428
 20
1536.5588660519115
 30
0.0
 11
1682.401810462363
 21
1246.0231493762194
 31
0.0
1001
RASTER2DXF
1000
line 6
1040
374.385
1040
1.0
  0
LINE
  5
A3
330
17
100
AcDbEntity
  8
PLAT-LINE
420
5809919
100
AcDbLine
 10
1989.3365279070174
 20
1483.020912455554
 30
0.0
 11
1836.5249857105307
 21
1365.028415631531
 31
0.0
1001
RASTER2DXF
1000
line 7
1040
193.064
1040
0.994
  0
LINE
  5
A4
330
17
100
AcDbEntity
  8
PLAT-LINE
420
5809919
100
AcDbLine
 10
1836.5249857105307
 20
1365.028415631531
 30
0.0
 11
1682.4018104623633
 21
1246.0231493762194
 31
0.0
1001
RASTER2DXF
1000
line 8
1040
194.721
1040
0.994
  0
LINE
  5
A5
330
17
100
AcDbEntity
  8
PLAT-LINE
420
5809919
100
AcDbLine
 10
1682.4018104623633
 20
1246.0231493762194
 30
0.0
 11
1546.5558844018478
 21
1141.130549191334
 31
0.0
1001
RASTER2DXF
1000
line 9
1040
171.629
1040
0.994
  0
LINE
  5
A6
330
17
100
AcDbEntity
  8
PLAT-LINE
420
5809919
100
AcDbLine
 10
1546.5558844018478
 20
1141.130549191334
 30
0.0
 11
1404.6669060372433
 21
1031.571843164255
 31
0.0
1001
RASTER2DXF
1000
line 10
1040
179.264
1040
0.994
  0
LINE
  5
A7
330
17
100
AcDbEntity
  8
PLAT-LINE
420
5809919
100
AcDbLine
 10
1284.8088925348404
 20
1475.5659698935183
 30
0.0
 11
1546.5558844018478
 21
1141.1305491913336
 31
0.0
1001
RASTER2DXF
1000
line 11
1040
424.686
1040
1.0
  0
LINE
  5
A8
330
17
100
AcDbEntity
  8
PLAT-LINE
420
5809919
100
AcDbLine
 10
1120.649037198718
 20
1413.03853207898
 30
0.0
 11
939.0637844385609
 21
1273.280137120893
 31
0.0
1001
RASTER2DXF
1000
line 12
1040
229.141
1040
1.0
  0
LINE
  5
A9
330
17
100
AcDbEntity
  8
PLAT-LINE
420
5809919
100
AcDbLine
 10
1120.649037198718
 20
1413.03853207898
 30
0.0
 11
1247.0984749647148
 21
1251.0441008365506
 31
0.0
1001
RASTER2DXF
1000
line 13
1040
205.503
1040
1.0
  0
LINE
  5
AA
330
17
100
AcDbEntity
  8
PLAT-LINE
420
5809919
100
AcDbLine
 10
1880.4947080298673
 20
1328.0704332224464
 30
0.0
 11
2153.82317292703
 21
1224.2552173972863
 31
0.0
1001
RASTER2DXF
1000
line 14
1040
292.38
1040
1.0
  0
LINE
  5
AB
330
17
100
AcDbEntity
  8
PLAT-LINE
420
5809919
100
AcDbLine
 10
2153.82317292703
 20
1224.2552173972863
 30
0.0
 11
2176.234729810402
 21
1108.54888678846
 31
0.0
1001
RASTER2DXF
1000
line 15
1040
117.857
1040
1.0
  0
LINE
  5
AC
330
17
100
AcDbEntity
  8
PLAT-LINE
420
5809919
100
AcDbLine
 10
2176.234729810402
 20
1108.54888678846
 30
0.0
 11
2188.283970643514
 21
1046.341095929637
 31
0.0
1001
RASTER2DXF
1000
line 16
1040
63.364
1040
1.0
  0
LINE
  5
AD
330
17
100
AcDbEntity
  8
PLAT-LINE
420
5809919
100
AcDbLine
 10
1880.4947080298673
 20
1328.0704332224464
 30
0.0
 11
1972.2658207326604
 21
1106.252976391023
 31
0.0
1001
RASTER2DXF
1000
line 17
1040
240.052
1040
1.0
  0
LINE
  5
AE
330
17
100
AcDbEntity
  8
PLAT-LINE
420
5809919
100
AcDbLine
 10
938.8928250949486
 20
1272.9820273484365
 30
0.0
 11
834.900348232244
 21
1091.645500431061
 31
0.0
1001
RASTER2DXF
1000
line 18
1040
209.039
1040
1.0
  0
LINE
  5
AF
330
17
100
AcDbEntity
  8
PLAT-LINE
420
5809919
100
AcDbLine
 10
938.8928250949486
 20
1272.9820273484365
 30
0.0
 11
1137.701441669195
 21
1141.629495420012
 31
0.0
1001
RASTER2DXF
1000
line 19
1040
238.282
1040
0.955
  0
LINE
  5
B0
330
17
100
AcDbEntity
  8
PLAT-LINE
420
5809919
100
AcDbLine
 10
1137.701441669195
 20
1141.629495420012
 30
0.0
 11
1370.5593470547547
 21
987.7806533577768
 31
0.0
1001
RASTER2DXF
1000
line 20
1040
279.092
1040
0.955
  0
LINE
  5
B1
330
17
100
AcDbEntity
  8
PLAT-LINE
420
4176208
100
AcDbLine
 10
1247.0984749647148
 20
1251.0441008365506
 30
0.0
 11
1137.701441669195
 21
1141.629495420012
 31
0.0
1001
RASTER2DXF
1000
line 21
1040
154.723
1040
1.0
  0
LINE
  5
B2
330
17
100
AcDbEntity
  8
PLAT-LINE
420
4176208
100
AcDbLine
 10
1265.8290886054058
 20
1233.8304529881507
 30
0.0
 11
1380.8912670180414
 21
1118.8540396029948
 31
0.0
1001
RASTER2DXF
1000
line 22
1040
162.662
1040
1.0
  0
LINE
  5
B3
330
17
100
AcDbEntity
  8
PLAT-LINE
420
4176208
100
AcDbLine
 10
1380.8912670180414
 20
1118.8540396029948
 30
0.0
 11
1397.416431652657
 21
1058.786796802959
 31
0.0
1001
RASTER2DXF
1000
line 23
1040
62.299
1040
1.0
  0
LINE
  5
B4
330
17
100
AcDbEntity
  8
PLAT-LINE
420
5809919
100
AcDbLine
 10
1265.8993938373687
 20
1226.9213045277006
 30
0.0
 11
1397.416431652657
 21
1058.786796802959
 31
0.0
1001
RASTER2DXF
1000
line 24
1040
213.462
1040
1.0
  0
LINE
  5
B5
330
17
100
AcDbEntity
  8
PLAT-LINE
420
4176208
100
AcDbLine
 10
1117.9935694227092
 20
1117.99340949504
 30
0.0
 11
1362.5587308994577
 21
871.7954755298069
 31
0.0
1001
RASTER2DXF
1000
line 25
1040
347.024
1040
0.948
  0
LINE
  5
B6
330
17
100
AcDbEntity
  8
PLAT-LINE
420
5809919
100
AcDbLine
 10
1925.8417714187906
 20
1105.7304190169957
 30
0.0
 11
1972.2658207326604
 21
1106.252976391023
 31
0.0
1001
RASTER2DXF
1000
line 26
1040
46.427
1040
0.984
  0
LINE
  5
B7
330
17
100
AcDbEntity
  8
PLAT-LINE
420
5809919
100
AcDbLine
 10
1972.2658207326604
 20
1106.252976391023
 30
0.0
 11
2176.234729810402
 21
1108.54888678846
 31
0.0
1001
RASTER2DXF
1000
line 27
1040
203.982
1040
0.984
  0
LINE
  5
B8
330
17
100
AcDbEntity
  8
PLAT-LINE
420
5809919
100
AcDbLine
 10
1925.5980881529995
 20
1105.5419531628208
 30
0.0
 11
1834.176538938668
 21
1034.8360706445483
 31
0.0
1001
RASTER2DXF
1000
line 28
1040
115.573
1040
0.992
  0
LINE
  5
B9
330
17
100
AcDbEntity
  8
PLAT-LINE
420
5809919
100
AcDbLine
 10
1834.176538938668
 20
1034.8360706445483
 30
0.0
 11
1781.9843854225758
 21
994.4703985836554
 31
0.0
1001
RASTER2DXF
1000
line 29
1040
65.98
1040
0.992
  0
LINE
  5
BA
330
17
100
AcDbEntity
  8
PLAT-LINE
420
5809919
100
AcDbLine
 10
1925.5980881529995
 20
1105.5419531628208
 30
0.0
 11
1972.0360294369752
 21
1073.5986181952908
 31
0.0
1001
RASTER2DXF
1000
line 30
1040
56.364
1040
1.0
  0
LINE
  5
BB
330
17
100
AcDbEntity
  8
PLAT-LINE
420
5809919
100
AcDbLine
 10
2176.2375637910636
 20
1108.5342555200878
 30
0.0
 11
2069.956667746794
 21
1054.895850616425
 31
0.0
1001
RASTER2DXF
1000
line 31
1040
119.049
1040
0.971
  0
LINE
  5
BC
330
17
100
AcDbEntity
  8
PLAT-LINE
420
5809919
100
AcDbLine
 10
834.7953116120137
 20
1091.6794136803346
 30
0.0
 11
758.4786060375792
 21
864.6095422140338
 31
0.0
1001
RASTER2DXF
1000
line 32
1040
239.552
1040
1.0
  0
LINE
  5
BD
330
17
100
AcDbEntity
  8
PLAT-LINE
420
5809919
100
AcDbLine
 10
758.5798824993818
 20
864.5019039845165
 30
0.0
 11
943.0979411499593
 21
668.3931853972381
 31
0.0
1001
RASTER2DXF
1000
line 33
1040
269.269
1040
1.0
  0
LINE
  5
BE
330
17
100
AcDbEntity
  8
PLAT-LINE
420
5809919
100
AcDbLine
 10
834.7953116120137
 20
1091.6794136803346
 30
0.0
 11
1353.0285164281372
 21
924.3570853519445
 31
0.0
1001
RASTER2DXF
1000
line 34
1040
544.575
1040
0.958
  0
LINE
  5
BF
330
17
100
AcDbEntity
  8
PLAT-LINE
420
5809919
100
AcDbLine
 10
2069.956667746794
 20
1054.895850616425
 30
0.0
 11
2188.283970643514
 21
1046.341095929637
 31
0.0
1001
RASTER2DXF
1000
line 35
1040
118.636
1040
1.0
  0
LINE
  5
C0
330
17
100
AcDbEntity
  8
PLAT-LINE
420
5809919
100
AcDbLine
 10
2031.9625151639177
 20
1036.5633455008124
 30
0.0
 11
1834.1765389386678
 21
1034.8360706445483
 31
0.0
1001
RASTER2DXF
1000
line 36
1040
197.794
1040
1.0
  0
LINE
  5
C1
330
17
100
AcDbEntity
  8
PLAT-LINE
420
5809919
100
AcDbLine
 10
2031.9625151639177
 20
1036.5633455008124
 30
0.0
 11
2076.377253838096
 21
867.366733997641
 31
0.0
1001
RASTER2DXF
1000
line 37
1040
174.929
1040
1.0
  0
LINE
  5
C2
330
17
100
AcDbEntity
  8
PLAT-LINE
420
4176208
100
AcDbLine
 10
1405.4146038473564
 20
1029.1388257399885
 30
0.0
 11
1420.6881340649884
 21
979.4385796687329
 31
0.0
1001
RASTER2DXF
1000
line 38
1040
51.994
1040
1.0
  0
LINE
  5
C3
330
17
100
AcDbEntity
  8
PLAT-LINE
420
4176208
100
AcDbLine
 10
1420.6881340649884
 20
979.4385796687329
 30
0.0
 11
1502.9275899715042
 21
896.8408040198428
 31
0.0
1001
RASTER2DXF
1000
line 39
1040
116.558
1040
1.0
  0
LINE
  5
C4
330
17
100
AcDbEntity
  8
PLAT-LINE
420
4176208
100
AcDbLine
 10
1502.9275899715042
 20
896.8408040198428
 30
0.0
 11
1420.5512428771642
 21
814.7946636199081
 31
0.0
1001
RASTER2DXF
1000
line 40
1040
116.264
1040
1.0
  0
LINE
  5
C5
330
17
100
AcDbEntity
  8
PLAT-LINE
420
4176208
100
AcDbLine
 10
1420.5512428771642
 20
814.7946636199081
 30
0.0
 11
1362.7802079647583
 21
870.5739719502262
 31
0.0
1001
RASTER2DXF
1000
line 41
1040
80.305
1040
1.0
  0
LINE
  5
C6
330
17
100
AcDbEntity
  8
PLAT-LINE
420
5809919
100
AcDbLine
 10
1405.4146038473564
 20
1029.1388257399885
 30
0.0
 11
1370.6508471277032
 21
987.889224521447
 31
0.0
1001
RASTER2DXF
1000
line 42
1040
53.945
1040
1.0
  0
LINE
  5
C7
330
17
100
AcDbEntity
  8
PLAT-LINE
420
5809919
100
AcDbLine
 10
1781.8703322400495
 20
994.5196499879457
 30
0.0
 11
1736.2135445447063
 21
946.5049275110996
 31
0.0
1001
RASTER2DXF
1000
line 43
1040
66.257
1040
1.0
  0
LINE
  5
C8
330
17
100
AcDbEntity
  8
PLAT-LINE
420
5809919
100
AcDbLine
 10
1781.8703322400495
 20
994.5196499879457
 30
0.0
 11
2076.3737740095694
 21
867.3446974417307
 31
0.0
1001
RASTER2DXF
1000
line 44
1040
320.789
1040
1.0
  0
LINE
  5
C9
330
17
100
AcDbEntity
  8
PLAT-LINE
420
5809919
100
AcDbLine
 10
1370.6508471277032
 20
987.889224521447
 30
0.0
 11
1353.335814115784
 21
924.2578679260655
 31
0.0
1001
RASTER2DXF
1000
line 45
1040
65.945
1040
1.0
  0
LINE
  5
CA
330
17
100
AcDbEntity
  8
PLAT-LINE
420
5809919
100
AcDbLine
 10
1736.1475709312858
 20
946.5577924023819
 30
0.0
 11
1704.338275027378
 21
888.4225290672457
 31
0.0
1001
RASTER2DXF
1000
line 46
1040
66.269
1040
1.0
  0
LINE
  5
CB
330
17
100
AcDbEntity
  8
PLAT-LINE
420
5809919
100
AcDbLine
 10
1736.1475709312858
 20
946.5577924023819
 30
0.0
 11
2049.3394128485143
 21
695.5960545943781
 31
0.0
1001
RASTER2DXF
1000
line 47
1040
401.336
1040
1.0
  0
LINE
  5
CC
330
17
100
AcDbEntity
  8
PLAT-LINE
420
5809919
100
AcDbLine
 10
1353.0285164281372
 20
924.3570853519445
 30
0.0
 11
1362.5587308994577
 21
871.7954755298069
 31
0.0
1001
RASTER2DXF
1000
line 48
1040
53.419
1040
1.0
  0
LINE
  5
CD
330
17
100
AcDbEntity
  8
PLAT-LINE
420
5809919
100
AcDbLine
 10
1362.5587308994577
 20
871.7954755298069
 30
0.0
 11
1364.8568339026735
 21
859.1208401635599
 31
0.0
1001
RASTER2DXF
1000
line 49
1040
12.881
1040
1.0
  0
LINE
  5
CE
330
17
100
AcDbEntity
  8
PLAT-LINE
420
5809919
100
AcDbLine
 10
1704.2580132301405
 20
888.5909536070935
 30
0.0
 11
1683.8167625230792
 21
825.5128021890687
 31
0.0
1001
RASTER2DXF
1000
line 50
1040
66.308
1040
1.0
  0
LINE
  5
CF
330
17
100
AcDbEntity
  8
PLAT-LINE
420
5809919
100
AcDbLine
 10
1704.2580132301405
 20
888.5909536070935
 30
0.0
 11
1972.4561004128632
 21
325.7934462412036
 31
0.0
1001
RASTER2DXF
1000
line 51
1040
623.435
1040
1.0
  0
LINE
  5
D0
330
17
100
AcDbEntity
  8
PLAT-LINE
420
5809919
100
AcDbLine
 10
2076.3737740095694
 20
867.3446974417307
 30
0.0
 11
2049.2624090626205
 21
695.6577580021276
 31
0.0
1001
RASTER2DXF
1000
line 52
1040
173.814
1040
1.0
  0
LINE
  5
D1
330
17
100
AcDbEntity
  8
PLAT-LINE
420
5809919
100
AcDbLine
 10
758.5798824993818
 20
864.5019039845165
 30
0.0
 11
1365.334520139162
 21
859.1166004178149
 31
0.0
1001
RASTER2DXF
1000
line 53
1040
606.779
1040
1.0
1000
distance=81
  0
LINE
  5
D2
330
17
100
AcDbEntity
  8
PLAT-LINE
420
5809919
100
AcDbLine
 10
1365.334520139162
 20
859.1166004178149
 30
0.0
 11
1403.985658435559
 21
805.696825088969
 31
0.0
1001
RASTER2DXF
1000
line 54
1040
65.936
1040
1.0
  0
LINE
  5
D3
330
17
100
AcDbEntity
  8
PLAT-LINE
420
5809919
100
AcDbLine
 10
1564.658277389657
 20
850.9275597788978
 30
0.0
 11
1684.087278293046
 21
826.3475668981105
 31
0.0
1001
RASTER2DXF
1000
line 55
1040
121.932
1040
1.0
  0
LINE
  5
D4
330
17
100
AcDbEntity
  8
PLAT-LINE
420
5809919
100
AcDbLine
 10
1564.128301465477
 20
850.5181262560782
 30
0.0
 11
1459.7756344756283
 21
769.9003507837365
 31
0.0
1001
RASTER2DXF
1000
line 56
1040
131.866
1040
0.976
  0
LINE
  5
D5
330
17
100
AcDbEntity
  8
PLAT-LINE
420
5809919
100
AcDbLine
 10
1564.128301465477
 20
850.5181262560782
 30
0.0
 11
1516.8834638853077
 21
403.2388108205264
 31
0.0
1001
RASTER2DXF
1000
line 57
1040
449.768
1040
1.0
  0
LINE
  5
D6
330
17
100
AcDbEntity
  8
PLAT-LINE
420
5809919
100
AcDbLine
 10
1683.8167625230792
 20
825.5128021890687
 30
0.0
 11
1780.294829955644
 21
268.3708243746046
 31
0.0
1001
RASTER2DXF
1000
line 58
1040
565.434
1040
1.0
  0
LINE
  5
D7
330
17
100
AcDbEntity
  8
PLAT-LINE
420
5809919
100
AcDbLine
 10
1403.9179418862311
 20
805.7904161967754
 30
0.0
 11
943.0350279036527
 21
668.3744273012153
 31
0.0
1001
RASTER2DXF
1000
line 59
1040
480.933
1040
1.0
1000
distance=67
  0
LINE
  5
D8
330
17
100
AcDbEntity
  8
PLAT-LINE
420
5809919
100
AcDbLine
 10
1403.985658435559
 20
805.696825088969
 30
0.0
 11
1459.700779419619
 21
769.9483799688919
 31
0.0
1001
RASTER2DXF
1000
line 60
1040
66.198
1040
1.0
  0
LINE
  5
D9
330
17
100
AcDbEntity
  8
PLAT-LINE
420
5809919
100
AcDbLine
 10
1503.7735991746883
 20
796.5306190820129
 30
0.0
 11
1292.6324443248047
 21
448.54326621928476
 31
0.0
1001
RASTER2DXF
1000
line 61
1040
407.033
1040
1.0
  0
LINE
  5
DA
330
17
100
AcDbEntity
  8
PLAT-LINE
420
5809919
100
AcDbLine
 10
1459.700779419619
 20
769.9483799688919
 30
0.0
 11
1092.5404373709634
 21
533.8568773477618
 31
0.0
1001
RASTER2DXF
1000
line 62
1040
436.516
1040
1.0
  0
LINE
  5
DB
330
17
100
AcDbEntity
  8
PLAT-LINE
420
5809919
100
AcDbLine
 10
2049.3394128485143
 20
695.5960545943781
 30
0.0
 11
1972.4561004128632
 21
325.7934462412036
 31
0.0
1001
RASTER2DXF
1000
line 63
1040
377.71
1040
1.0
  0
LINE
  5
DC
330
17
100
AcDbEntity
  8
PLAT-LINE
420
5809919
100
AcDbLine
 10
943.0350279036527
 20
668.3744273012153
 30
0.0
 11
1092.5496296352974
 21
533.8486066043747
 31
0.0
1001
RASTER2DXF
1000
line 64
1040
201.126
1040
1.0
  0
LINE
  5
DD
330
17
100
AcDbEntity
  8
PLAT-LINE
420
5809919
100
AcDbLine
 10
1092.5496296352974
 20
533.8486066043747
 30
0.0
 11
1292.486125199
 21
448.30211377651176
 31
0.0
1001
RASTER2DXF
1000
line 65
1040
217.469
1040
1.0
  0
LINE
  5
DE
330
17
100
AcDbEntity
  8
PLAT-LINE
420
5809919
100
AcDbLine
 10
1292.6324443248047
 20
448.54326621928476
 30
0.0
 11
1516.8975357110526
 21
403.37203249951745
 31
0.0
1001
RASTER2DXF
1000
line 66
1040
228.769
1040
1.0
  0
LINE
  5
DF
330
17
100
AcDbEntity
  8
PLAT-LINE
420
5809919
100
AcDbLine
 10
1516.8834638853077
 20
403.2388108205264
 30
0.0
 11
1780.4332388393386
 21
268.29995830785674
 31
0.0
1001
RASTER2DXF
1000
line 67
1040
296.086
1040
1.0
  0
LINE
  5
E0
330
17
100
AcDbEntity
  8
PLAT-LINE
420
5809919
100
AcDbLine
 10
1939.1390281723598
 20
315.5328557631947
 30
0.0
 11
1780.4332388393386
 21
268.29995830785674
 31
0.0
1001
RASTER2DXF
1000
line 68
1040
165.585
1040
1.0
  0
ARC
  5
E1
330
17
100
AcDbEntity
  8
PLAT-CURVE
420
16777215
100
AcDbCircle
 10
1098.9963600481453
 20
3549.077977984716
 30
0.0
 40
26.06635696238762
100
AcDbArc
 50
138.30524205182743
 51
-138.04404086653136
1001
RASTER2DXF
1000
arc 0
1040
26.066
1040
38.056
  0
ARC
  5
E2
330
17
100
AcDbEntity
  8
PLAT-CURVE
420
16777215
100
AcDbCircle
 10
1431.899124382283
 20
3551.1838351037113
 30
0.0
 40
12.771606619029345
100
AcDbArc
 50
47.42114807224132
 51
-45.29188036442851
1001
RASTER2DXF
1000
arc 1
1040
12.772
1040
59.58
  0
ARC
  5
E3
330
17
100
AcDbEntity
  8
PLAT-CURVE
420
16777215
100
AcDbCircle
 10
1677.511325082406
 20
3551.192230283923
 30
0.0
 40
12.897089016376128
100
AcDbArc
 50
46.05690573098955
 51
-47.27870106254043
1001
RASTER2DXF
1000
arc 2
1040
12.897
1040
60.025
  0
ARC
  5
E4
330
17
100
AcDbEntity
  8
PLAT-CURVE
420
16777215
100
AcDbCircle
 10
1735.5480866752396
 20
3551.2936855435983
 30
0.0
 40
12.901933714200556
100
AcDbArc
 50
42.64868662543238
 51
-40.79296670339786
1001
RASTER2DXF
1000
arc 3
1040
12.902
1040
62.276
  0
ARC
  5
E5
330
17
100
AcDbEntity
  8
PLAT-CURVE
420
16777215
100
AcDbCircle
 10
1860.5113250823917
 20
3551.192230284105
 30
0.0
 40
12.897089016394181
100
AcDbArc
 50
46.056905730350124
 51
-47.27870106305762
1001
RASTER2DXF
1000
arc 4
1040
12.897
1040
60.025
  0
ARC
  5
E6
330
17
100
AcDbEntity
  8
PLAT-CURVE
420
16777215
100
AcDbCircle
 10
2052.5113250824706
 20
3551.192230284236
 30
0.0
 40
12.897089016520551
100
AcDbArc
 50
46.05690573018975
 51
-47.27870106373009
1001
RASTER2DXF
1000
arc 5
1040
12.897
1040
60.025
  0
ARC
  5
E7
330
17
100
AcDbEntity
  8
PLAT-CURVE
420
16777215
100
AcDbCircle
 10
1512.4420748845607
 20
3504.0656792123336
 30
0.0
 40
12.874487700743579
100
AcDbArc
 50
46.23269224681985
 51
-43.30389527563068
1001
RASTER2DXF
1000
arc 6
1040
12.874
1040
60.774
  0
ARC
  5
E8
330
17
100
AcDbEntity
  8
PLAT-CURVE
420
16777215
100
AcDbCircle
 10
1211.783863893585
 20
3550.6981560885433
 30
0.0
 40
12.846932295400304
100
AcDbArc
 50
-135.31718376161936
 51
118.87458195789141
1001
RASTER2DXF
1000
arc 7
1040
12.847
1040
56.995
  0
ARC
  5
E9
330
17
100
AcDbEntity
  8
PLAT-CURVE
420
16777215
100
AcDbCircle
 10
1482.1164168441985
 20
3550.612742238787
 30
0.0
 40
12.847234954001847
100
AcDbArc
 50
-129.56576788913438
 51
116.27863140117738
1001
RASTER2DXF
1000
arc 8
1040
12.847
1040
55.125
  0
ARC
  5
EA
330
17
100
AcDbEntity
  8
PLAT-CURVE
420
16777215
100
AcDbCircle
 10
2002.1570316040984
 20
3504.170555254983
 30
0.0
 40
13.887889775917198
100
AcDbArc
 50
-81.38920766826645
 51
77.50532542205974
1001
RASTER2DXF
1000
arc 9
1040
13.888
1040
38.514
  0
ARC
  5
EB
330
17
100
AcDbEntity
  8
PLAT-CURVE
420
16777215
100
AcDbCircle
 10
1383.9723247836482
 20
3503.5423207000313
 30
0.0
 40
12.839287458117449
100
AcDbArc
 50
-129.22165592276832
 51
115.61348302439899
1001
RASTER2DXF
1000
arc 10
1040
12.839
1040
54.865
  0
TEXT
  5
EC
330
17
100
AcDbEntity
  8
PLAT-TEXT-DIST
100
AcDbText
 10
1118.8634583301819
 20
852.4423347587365
 30
0.0
 40
17.722983956804573
  1
81'
 50
359.49147967768306
  7
PLAT
 72
1
 11
1118.8634583301819
 21
852.4423347587365
 31
0.0
100
AcDbText
 73
3
  0
TEXT
  5
ED
330
17
100
AcDbEntity
  8
PLAT-TEXT-DIST
100
AcDbText
 10
1212.1249857206283
 20
739.3587941270819
 30
0.0
 40
17.722983956804573
  1
67'
 50
16.602377570598264
  7
PLAT
 72
1
 11
1212.1249857206283
 21
739.3587941270819
 31
0.0
100
AcDbText
 73
3
  0
TEXT
  5
EE
330
17
100
AcDbEntity
  8
PLAT-TEXT-MISC
100
AcDbText
 10
1014.5
 20
3550.5
 30
0.0
 40
26.65052692314938
  1
ISLE
 50
358.7962122607652
  7
PLAT
 72
1
 11
1014.5
 21
3550.5
 31
0.0
100
AcDbText
 73
2
  0
TEXT
  5
EF
330
17
100
AcDbEntity
  8
PLAT-TEXT-LOWCONF
100
AcDbText
 10
1146.4978431060745
 20
3550.977585125397
 30
0.0
 40
26.11072815024343
  1
\SLAN:
 50
359.97267369030556
  7
PLAT
 72
1
 11
1146.4978431060745
 21
3550.977585125397
 31
0.0
100
AcDbText
 73
2
  0
TEXT
  5
F0
330
17
100
AcDbEntity
  8
PLAT-TEXT-LOWCONF
100
AcDbText
 10
1271.4646461219652
 20
3550.9651931034628
 30
0.0
 40
26.40795100377174
  1
‘ON
 50
359.5533245384638
  7
PLAT
 72
1
 11
1271.4646461219652
 21
3550.9651931034628
 31
0.0
100
AcDbText
 73
2
  0
TEXT
  5
F1
330
17
100
AcDbEntity
  8
PLAT-TEXT-LOWCONF
100
AcDbText
 10
1342.6094941057625
 20
3548.771606115836
 30
0.0
 40
30.240000000000002
  1
S)
 50
25.613483024399102
  7
PLAT
 72
1
 11
1342.6094941057625
 21
3548.771606115836
 31
0.0
100
AcDbText
 73
2
  0
TEXT
  5
F2
330
17
100
AcDbEntity
  8
PLAT-TEXT-LOWCONF
100
AcDbText
 10
1573.2580947994268
 20
3544.505553647374
 30
0.0
 40
30.240000000000002
  1
ii
 50
46.232692246819795
  7
PLAT
 72
1
 11
1573.2580947994268
 21
3544.505553647374
 31
0.0
100
AcDbText
 73
2
  0
TEXT
  5
F3
330
17
100
AcDbEntity
  8
PLAT-TEXT-LOWCONF
100
AcDbText
 10
1703.5
 20
3551.0
 30
0.0
 40
26.1
  1
O
  7
PLAT
 72
1
 11
1703.5
 21
3551.0
 31
0.0
100
AcDbText
 73
2
  0
TEXT
  5
F4
330
17
100
AcDbEntity
  8
PLAT-TEXT-LOWCONF
100
AcDbText
 10
1756.6092931184403
 20
3550.5794217657226
 30
0.0
 40
26.468359818213344
  1
-O
 50
3.2569816156178604
  7
PLAT
 72
1
 11
1756.6092931184403
 21
3550.5794217657226
 31
0.0
100
AcDbText
 73
2
  0
TEXT
  5
F5
330
17
100
AcDbEntity
  8
PLAT-TEXT-LOWCONF
100
AcDbText
 10
1954.9439926297648
 20
3552.0358638985763
 30
0.0
 40
30.240000000000002
  1
a
 50
46.05690573035025
  7
PLAT
 72
1
 11
1954.9439926297648
 21
3552.0358638985763
 31
0.0
100
AcDbText
 73
2
  0
TEXT
  5
F6
330
17
100
AcDbEntity
  8
PLAT-TEXT-MISC
100
AcDbText
 10
875.4997333210002
 20
3550.5000000054706
 30
0.0
 40
25.203083214399925
  1
BEVERLY
 50
359.9988246476021
  7
PLAT
 72
1
 11
875.4997333210002
 21
3550.5000000054706
 31
0.0
100
AcDbText
 73
2
  0
TEXT
  5
F7
330
17
100
AcDbEntity
  8
PLAT-TEXT-LOWCONF
100
AcDbText
 10
1458.7475567129645
 20
3548.2703897166793
 30
0.0
 40
30.03783017857444
  1
4.
 50
44.708119635571734
  7
PLAT
 72
1
 11
1458.7475567129645
 21
3548.2703897166793
 31
0.0
100
AcDbText
 73
2
  0
TEXT
  5
F8
330
17
100
AcDbEntity
  8
PLAT-TEXT-LOWCONF
100
AcDbText
 10
1818.5
 20
3550.5
 30
0.0
 40
27.687911088816886
  1
RE
 50
356.4105386721317
  7
PLAT
 72
1
 11
1818.5
 21
3550.5
 31
0.0
100
AcDbText
 73
2
  0
TEXT
  5
F9
330
17
100
AcDbEntity
  8
PLAT-TEXT-LOWCONF
100
AcDbText
 10
1389.5
 20
3547.0
 30
0.0
 40
11.471683228696167
  1
i
 50
295.6134830243991
  7
PLAT
 72
1
 11
1389.5
 21
3547.0
 31
0.0
100
AcDbText
 73
2
  0
TEXT
  5
FA
330
17
100
AcDbEntity
  8
PLAT-TEXT-MISC
100
AcDbText
 10
1442.7415999913692
 20
3502.3952892029274
 30
0.0
 40
27.113551912854703
  1
uval
 50
3.3684973527541615
  7
PLAT
 72
1
 11
1442.7415999913692
 21
3502.3952892029274
 31
0.0
100
AcDbText
 73
2
  0
TEXT
  5
FB
330
17
100
AcDbEntity
  8
PLAT-TEXT-MISC
100
AcDbText
 10
1798.189148657911
 20
3502.768554208077
 30
0.0
 40
30.240000000000002
  1
Scale:
 50
353.89536396236883
  7
PLAT
 72
1
 11
1798.189148657911
 21
3502.768554208077
 31
0.0
100
AcDbText
 73
2
  0
TEXT
  5
FC
330
17
100
AcDbEntity
  8
PLAT-TEXT-MISC
100
AcDbText
 10
988.0342332281097
 20
3502.941400497864
 30
0.0
 40
26.254757882228684
  1
Section
 50
358.98979306923104
  7
PLAT
 72
1
 11
988.0342332281097
 21
3502.941400497864
 31
0.0
100
AcDbText
 73
2
  0
TEXT
  5
FD
330
17
100
AcDbEntity
  8
PLAT-TEXT-LOTNO
100
AcDbText
 10
1097.4285595760884
 20
3503.9351078568125
 30
0.0
 40
31.06469598891264
  1
24
 50
3.465904119895015
  7
PLAT
 72
1
 11
1097.4285595760884
 21
3503.9351078568125
 31
0.0
100
AcDbText
 73
2
  0
TEXT
  5
FE
330
17
100
AcDbEntity
  8
PLAT-TEXT-LOWCONF
100
AcDbText
 10
1183.533245373118
 20
3506.5053519125527
 30
0.0
 40
30.240000000000002
  1
We
 50
44.68281623838084
  7
PLAT
 72
1
 11
1183.533245373118
 21
3506.5053519125527
 31
0.0
100
AcDbText
 73
2
  0
TEXT
  5
FF
330
17
100
AcDbEntity
  8
PLAT-TEXT-MISC
100
AcDbText
 10
1283.4898360422876
 20
3503.7252032027445
 30
0.0
 40
27.569381614919816
  1
R27
 50
2.5841415742119693
  7
PLAT
 72
1
 11
1283.4898360422876
 21
3503.7252032027445
 31
0.0
100
AcDbText
 73
2
  0
TEXT
  5
100
330
17
100
AcDbEntity
  8
PLAT-TEXT-LOWCONF
100
AcDbText
 10
1682.2795770490116
 20
3502.3234954721283
 30
0.0
 40
29.093535134551928
  1
FL
 50
349.3884202961659
  7
PLAT
 72
1
 11
1682.2795770490116
 21
3502.3234954721283
 31
0.0
100
AcDbText
 73
2
  0
TEXT
  5
101
330
17
100
AcDbEntity
  8
PLAT-TEXT-LOWCONF
100
AcDbText
 10
1888.1067697647093
 20
3507.71590757323
 30
0.0
 40
27.860533848414114
  1
Ss
 50
312.7212989369426
  7
PLAT
 72
1
 11
1888.1067697647093
 21
3507.71590757323
 31
0.0
100
AcDbText
 73
2
  0
TEXT
  5
102
330
17
100
AcDbEntity
  8
PLAT-TEXT-LOWCONF
100
AcDbText
 10
1988.0133913954687
 20
3504.7134554896165
 30
0.0
 40
26.273589443357622
  1
1G
 50
8.610792331733478
  7
PLAT
 72
1
 11
1988.0133913954687
 21
3504.7134554896165
 31
0.0
100
AcDbText
 73
2
  0
TEXT
  5
103
330
17
100
AcDbEntity
  8
PLAT-TEXT-MISC
100
AcDbText
 10
1584.5702748263734
 20
3499.7828305585745
 30
0.0
 40
30.240000000000002
  1
ounty,
 50
358.23675928831807
  7
PLAT
 72
1
 11
1584.5702748263734
 21
3499.7828305585745
 31
0.0
100
AcDbText
 73
2
  0
TEXT
  5
104
330
17
100
AcDbEntity
  8
PLAT-TEXT-MISC
100
AcDbText
 10
2165.508867218811
 20
3335.9766965599365
 30
0.0
 40
17.72500564620039
  1
GPS Control Tie
 50
359.7948670615043
  7
PLAT
 72
1
 11
2165.508867218811
 21
3335.9766965599365
 31
0.0
100
AcDbText
 73
2
  0
TEXT
  5
105
330
17
100
AcDbEntity
  8
PLAT-TEXT-MISC
100
AcDbText
 10
2165.4963013177835
 20
3305.989300678516
 30
0.0
 40
17.160358900847886
  1
Heckscher Dr &
 50
0.023574566741388026
  7
PLAT
 72
1
 11
2165.4963013177835
 21
3305.989300678516
 31
0.0
100
AcDbText
 73
2
  0
TEXT
  5
106
330
17
100
AcDbEntity
  8
PLAT-TEXT-MISC
100
AcDbText
 10
2330.914729413031
 20
3303.9919649237304
 30
0.0
 40
21.314074904069717
  1
Bridge
 50
357.56841337015527
  7
PLAT
 72
1
 11
2330.914729413031
 21
3303.9919649237304
 31
0.0
100
AcDbText
 73
2
  0
TEXT
  5
107
330
17
100
AcDbEntity
  8
PLAT-TEXT-LOWCONF
100
AcDbText
 10
2006.0
 20
3292.0
 30
0.0
 40
29.7
  1
Q
  7
PLAT
 72
1
 11
2006.0
 21
3292.0
 31
0.0
100
AcDbText
 73
2
  0
TEXT
  5
108
330
17
100
AcDbEntity
  8
PLAT-TEXT-MISC
100
AcDbText
 10
123.95305616146106
 20
3295.6658721713698
 30
0.0
 40
18.874432058656907
  1
10000 -
 50
0.7336690121991296
  7
PLAT
 72
1
 11
123.95305616146106
 21
3295.6658721713698
 31
0.0
100
AcDbText
 73
2
  0
TEXT
  5
109
330
17
100
AcDbEntity
  8
PLAT-TEXT-LOWCONF
100
AcDbText
 10
132.4972101879889
 20
2635.492049392884
 30
0.0
 40
18.04222408401566
  1
- 0086
 50
359.9544336742246
  7
PLAT
 72
1
 11
132.4972101879889
 21
2635.492049392884
 31
0.0
100
AcDbText
 73
2
  0
TEXT
  5
10A
330
17
100
AcDbEntity
  8
PLAT-TEXT-LOWCONF
100
AcDbText
 10
132.4949341361871
 20
1975.4841577536579
 30
0.0
 40
18.076492249079667
  1
- 0096
 50
359.9174444144902
  7
PLAT
 72
1
 11
132.4949341361871
 21
1975.4841577536579
 31
0.0
100
AcDbText
 73
2
  0
TEXT
  5
10B
330
17
100
AcDbEntity
  8
PLAT-TEXT-LOWCONF
100
AcDbText
 10
40.93069763743347
 20
1848.5249085384369
 30
0.0
 40
18.4830040603086
  1
(y,
 50
295.2306334049609
  7
PLAT
 72
1
 11
40.93069763743347
 21
1848.5249085384369
 31
0.0
100
AcDbText
 73
2
  0
TEXT
  5
10C
330
17
100
AcDbEntity
  8
PLAT-TEXT-LOWCONF
100
AcDbText
 10
46.0
 20
1808.5
 30
0.0
 40
12.6
  1
1g
 50
90.0
  7
PLAT
 72
1
 11
46.0
 21
1808.5
 31
0.0
100
AcDbText
 73
2
  0
TEXT
  5
10D
330
17
100
AcDbEntity
  8
PLAT-TEXT-LOWCONF
100
AcDbText
 10
43.0
 20
1791.0
 30
0.0
 40
13.0
  1
3
  7
PLAT
 72
1
 11
43.0
 21
1791.0
 31
0.0
100
AcDbText
 73
2
  0
TEXT
  5
10E
330
17
100
AcDbEntity
  8
PLAT-TEXT-LOWCONF
100
AcDbText
 10
40.0
 20
1765.0
 30
0.0
 40
11.700000000000001
  1
chi
 50
90.0
  7
PLAT
 72
1
 11
40.0
 21
1765.0
 31
0.0
100
AcDbText
 73
2
  0
TEXT
  5
10F
330
17
100
AcDbEntity
  8
PLAT-TEXT-LOWCONF
100
AcDbText
 10
41.0
 20
1750.5
 30
0.0
 40
9.0
  1
ct
  7
PLAT
 72
1
 11
41.0
 21
1750.5
 31
0.0
100
AcDbText
 73
2
  0
TEXT
  5
110
330
17
100
AcDbEntity
  8
PLAT-TEXT-LOWCONF
100
AcDbText
 10
43.0
 20
1740.0
 30
0.0
 40
8.1
  1
wi
 50
90.0
  7
PLAT
 72
1
 11
43.0
 21
1740.0
 31
0.0
100
AcDbText
 73
2
  0
TEXT
  5
111
330
17
100
AcDbEntity
  8
PLAT-TEXT-LOWCONF
100
AcDbText
 10
43.0
 20
1724.5
 30
0.0
 40
12.6
  1
10|
 50
90.0
  7
PLAT
 72
1
 11
43.0
 21
1724.5
 31
0.0
100
AcDbText
 73
2
  0
TEXT
  5
112
330
17
100
AcDbEntity
  8
PLAT-TEXT-LOWCONF
100
AcDbText
 10
40.5
 20
1705.5
 30
0.0
 40
16.0
  1
2
  7
PLAT
 72
1
 11
40.5
 21
1705.5
 31
0.0
100
AcDbText
 73
2
  0
TEXT
  5
113
330
17
100
AcDbEntity
  8
PLAT-TEXT-CURVE
100
AcDbText
 10
1655.3815947407877
 20
1438.4929653541744
 30
0.0
 40
15.710645161824514
  1
c1
 50
3.400037243721158
  7
PLAT
 72
1
 11
1655.3815947407877
 21
1438.4929653541744
 31
0.0
100
AcDbText
 73
2
  0
TEXT
  5
114
330
17
100
AcDbEntity
  8
PLAT-TEXT-LOWCONF
100
AcDbText
 10
1490.251179042203
 20
1352.1000246534818
 30
0.0
 40
16.08479650733504
  1
13
 50
2.544099534743623
  7
PLAT
 72
1
 11
1490.251179042203
 21
1352.1000246534818
 31
0.0
100
AcDbText
 73
2
  0
TEXT
  5
115
330
17
100
AcDbEntity
  8
PLAT-TEXT-LOWCONF
100
AcDbText
 10
132.48110469092512
 20
1315.4293507642838
 30
0.0
 40
18.331960178701884
  1
9400 -
 50
359.64743358325893
  7
PLAT
 72
1
 11
132.48110469092512
 21
1315.4293507642838
 31
0.0
100
AcDbText
 73
2
  0
TEXT
  5
116
330
17
100
AcDbEntity
  8
PLAT-TEXT-LOWCONF
100
AcDbText
 10
1341.8507383116937
 20
1269.5400026537122
 30
0.0
 40
15.006853747955518
  1
L4
 50
1.6963415352897186
  7
PLAT
 72
1
 11
1341.8507383116937
 21
1269.5400026537122
 31
0.0
100
AcDbText
 73
2
  0
TEXT
  5
117
330
17
100
AcDbEntity
  8
PLAT-TEXT-MISC
100
AcDbText
 10
2053.9442877560787
 20
1166.58586886273
 30
0.0
 40
15.497603309676778
  1
L19
 50
2.011997540891116
  7
PLAT
 72
1
 11
2053.9442877560787
 21
1166.58586886273
 31
0.0
100
AcDbText
 73
2
  0
TEXT
  5
118
330
17
100
AcDbEntity
  8
PLAT-TEXT-LOWCONF
100
AcDbText
 10
1126.0
 20
1130.5
 30
0.0
 40
16.0
  1
7
  7
PLAT
 72
1
 11
1126.0
 21
1130.5
 31
0.0
100
AcDbText
 73
2
  0
TEXT
  5
119
330
17
100
AcDbEntity
  8
PLAT-TEXT-LOWCONF
100
AcDbText
 10
2019.0
 20
1069.0
 30
0.0
 40
30.240000000000002
  1
wy
  7
PLAT
 72
1
 11
2019.0
 21
1069.0
 31
0.0
100
AcDbText
 73
2
  0
TEXT
  5
11A
330
17
100
AcDbEntity
  8
PLAT-TEXT-LOWCONF
100
AcDbText
 10
2056.5
 20
1082.5
 30
0.0
 40
14.4
  1
L:
  7
PLAT
 72
1
 11
2056.5
 21
1082.5
 31
0.0
100
AcDbText
 73
2
  0
TEXT
  5
11B
330
17
100
AcDbEntity
  8
PLAT-TEXT-LOWCONF
100
AcDbText
 10
2077.894765163239
 20
1082.1992321711218
 30
0.0
 40
23.86127337588806
  1
8
 50
296.7794063496266
  7
PLAT
 72
1
 11
2077.894765163239
 21
1082.1992321711218
 31
0.0
100
AcDbText
 73
2
  0
TEXT
  5
11C
330
17
100
AcDbEntity
  8
PLAT-TEXT-LOWCONF
100
AcDbText
 10
2006.5
 20
1073.5
 30
0.0
 40
14.4
  1
NI
 50
90.0
  7
PLAT
 72
1
 11
2006.5
 21
1073.5
 31
0.0
100
AcDbText
 73
2
  0
TEXT
  5
11D
330
17
100
AcDbEntity
  8
PLAT-TEXT-LOWCONF
100
AcDbText
 10
1124.958213356813
 20
1071.508880368598
 30
0.0
 40
14.582911516907116
  1
91
 50
0.5309809880377543
  7
PLAT
 72
1
 11
1124.958213356813
 21
1071.508880368598
 31
0.0
100
AcDbText
 73
2
  0
TEXT
  5
11E
330
17
100
AcDbEntity
  8
PLAT-TEXT-LOWCONF
100
AcDbText
 10
1392.6062233197777
 20
1037.214882955237
 30
0.0
 40
19.511370388573333
  1
We,
 50
37.673305443774495
  7
PLAT
 72
1
 11
1392.6062233197777
 21
1037.214882955237
 31
0.0
100
AcDbText
 73
2
  0
TEXT
  5
11F
330
17
100
AcDbEntity
  8
PLAT-TEXT-LOWCONF
100
AcDbText
 10
1340.9494679929649
 20
1035.7209420673535
 30
0.0
 40
30.240000000000002
  1
En &
 50
56.54732473545528
  7
PLAT
 72
1
 11
1340.9494679929649
 21
1035.7209420673535
 31
0.0
100
AcDbText
 73
2
  0
TEXT
  5
120
330
17
100
AcDbEntity
  8
PLAT-TEXT-LOWCONF
100
AcDbText
 10
1294.5
 20
1028.5
 30
0.0
 40
7.2
  1
A
  7
PLAT
 72
1
 11
1294.5
 21
1028.5
 31
0.0
100
AcDbText
 73
2
  0
TEXT
  5
121
330
17
100
AcDbEntity
  8
PLAT-TEXT-LOWCONF
100
AcDbText
 10
1078.1858881637531
 20
937.7019292321756
 30
0.0
 40
18.700658215342386
  1
47
 50
14.646092010686743
  7
PLAT
 72
1
 11
1078.1858881637531
 21
937.7019292321756
 31
0.0
100
AcDbText
 73
2
  0
TEXT
  5
122
330
17
100
AcDbEntity
  8
PLAT-TEXT-LOWCONF
100
AcDbText
 10
1910.5725225455076
 20
878.3425392059908
 30
0.0
 40
30.240000000000002
  1
Se,
 50
51.29467894561492
  7
PLAT
 72
1
 11
1910.5725225455076
 21
878.3425392059908
 31
0.0
100
AcDbText
 73
2
  0
TEXT
  5
123
330
17
100
AcDbEntity
  8
PLAT-TEXT-MISC
100
AcDbText
 10
1866.391186746251
 20
716.530094772223
 30
0.0
 40
15.136498968866015
  1
L14
 50
1.239254574585516
  7
PLAT
 72
1
 11
1866.391186746251
 21
716.530094772223
 31
0.0
100
AcDbText
 73
2
  0
TEXT
  5
124
330
17
100
AcDbEntity
  8
PLAT-TEXT-LOWCONF
100
AcDbText
 10
132.49501846590329
 20
655.4763228064071
 30
0.0
 40
18.104781575368165
  1
9200 -
 50
359.8869029251188
  7
PLAT
 72
1
 11
132.49501846590329
 21
655.4763228064071
 31
0.0
100
AcDbText
 73
2
  0
TEXT
  5
125
330
17
100
AcDbEntity
  8
PLAT-TEXT-LOWCONF
100
AcDbText
 10
1331.0850474179972
 20
641.5901569615098
 30
0.0
 40
24.424296050189806
  1
? ty
 50
32.74183480891827
  7
PLAT
 72
1
 11
1331.0850474179972
 21
641.5901569615098
 31
0.0
100
AcDbText
 73
2
  0
TEXT
  5
126
330
17
100
AcDbEntity
  8
PLAT-TEXT-LOWCONF
100
AcDbText
 10
1354.0
 20
642.5
 30
0.0
 40
14.4
  1
LO
  7
PLAT
 72
1
 11
1354.0
 21
642.5
 31
0.0
100
AcDbText
 73
2
  0
TEXT
  5
127
330
17
100
AcDbEntity
  8
PLAT-TEXT-MISC
100
AcDbText
 10
1471.987545085277
 20
630.4999778392298
 30
0.0
 40
14.464032579207919
  1
L11
 50
0.10194507913547568
  7
PLAT
 72
1
 11
1471.987545085277
 21
630.4999778392298
 31
0.0
100
AcDbText
 73
2
  0
TEXT
  5
128
330
17
100
AcDbEntity
  8
PLAT-TEXT-MISC
100
AcDbText
 10
1636.9356123031287
 20
589.4983405883381
 30
0.0
 40
15.323009548604327
  1
Li2
 50
1.4763106530533037
  7
PLAT
 72
1
 11
1636.9356123031287
 21
589.4983405883381
 31
0.0
100
AcDbText
 73
2
  0
TEXT
  5
129
330
17
100
AcDbEntity
  8
PLAT-TEXT-MISC
100
AcDbText
 10
1785.899130889511
 20
579.5255412243891
 30
0.0
 40
15.005543520177664
  1
L13
 50
1.0458219784839002
  7
PLAT
 72
1
 11
1785.899130889511
 21
579.5255412243891
 31
0.0
100
AcDbText
 73
2
  0
TEXT
  5
12A
330
17
100
AcDbEntity
  8
PLAT-TEXT-MISC
100
AcDbText
 10
393.9897803353905
 20
158.91121771293137
 30
0.0
 40
19.521613316556824
  1
Road Centerline
 50
359.7738162025487
  7
PLAT
 72
1
 11
393.9897803353905
 21
158.91121771293137
 31
0.0
100
AcDbText
 73
2
  0
TEXT
  5
12B
330
17
100
AcDbEntity
  8
PLAT-TEXT-LOWCONF
100
AcDbText
 10
354.50552849381575
 20
85.99434645249767
 30
0.0
 40
17.722983956804573
  1
9500
 50
359.3592628075353
  7
PLAT
 72
1
 11
354.50552849381575
 21
85.99434645249767
 31
0.0
100
AcDbText
 73
2
  0
TEXT
  5
12C
330
17
100
AcDbEntity
  8
PLAT-TEXT-LOWCONF
100
AcDbText
 10
684.9921181577362
 20
85.99224049115128
 30
0.0
 40
17.535911585128023
  1
9600
 50
359.55189002459383
  7
PLAT
 72
1
 11
684.9921181577362
 21
85.99224049115128
 31
0.0
100
AcDbText
 73
2
  0
TEXT
  5
12D
330
17
100
AcDbEntity
  8
PLAT-TEXT-LOWCONF
100
AcDbText
 10
1015.4628507434032
 20
85.98199347246828
 30
0.0
 40
17.785574383830358
  1
9700
 50
359.29477020521057
  7
PLAT
 72
1
 11
1015.4628507434032
 21
85.98199347246828
 31
0.0
100
AcDbText
 73
2
  0
TEXT
  5
12E
330
17
100
AcDbEntity
  8
PLAT-TEXT-LOWCONF
100
AcDbText
 10
1345.4853152514097
 20
85.98915308723645
 30
0.0
 40
17.507051632623394
  1
9800
 50
359.581589649806
  7
PLAT
 72
1
 11
1345.4853152514097
 21
85.98915308723645
 31
0.0
100
AcDbText
 73
2
  0
TEXT
  5
12F
330
17
100
AcDbEntity
  8
PLAT-TEXT-LOWCONF
100
AcDbText
 10
1675.478526750095
 20
85.98424964957121
 30
0.0
 40
17.69346965063016
  1
9900
 50
359.3896664557452
  7
PLAT
 72
1
 11
1675.478526750095
 21
85.98424964957121
 31
0.0
100
AcDbText
 73
2
  0
TEXT
  5
130
330
17
100
AcDbEntity
  8
PLAT-TEXT-MISC
100
AcDbText
 10
2005.994939476585
 20
85.99663862031366
 30
0.0
 40
17.221293462933396
  1
10000
 50
359.9034593834154
  7
PLAT
 72
1
 11
2005.994939476585
 21
85.99663862031366
 31
0.0
100
AcDbText
 73
2
  0
TEXT
  5
131
330
17
100
AcDbEntity
  8
PLAT-TEXT-MISC
100
AcDbText
 10
2335.992718590188
 20
85.99638133298731
 30
0.0
 40
17.27231339785856
  1
10100
 50
359.86110312921676
  7
PLAT
 72
1
 11
2335.992718590188
 21
85.99638133298731
 31
0.0
100
AcDbText
 73
2
  0
TEXT
  5
132
330
17
100
AcDbEntity
  8
PLAT-TEXT-MISC
100
AcDbText
 10
2665.9995396787594
 20
85.99972392250129
 30
0.0
 40
17.113089815754094
  1
10200
 50
359.98945137929036
  7
PLAT
 72
1
 11
2665.9995396787594
 21
85.99972392250129
 31
0.0
100
AcDbText
 73
2
  0
TEXT
  5
133
330
17
100
AcDbEntity
  8
PLAT-TEXT-MISC
100
AcDbText
 10
1447.9286512554381
 20
44.94216872619745
 30
0.0
 40
20.9538365670851
  1
Easting
 50
357.3776831801229
  7
PLAT
 72
1
 11
1447.9286512554381
 21
44.94216872619745
 31
0.0
100
AcDbText
 73
2
  0
TEXT
  5
134
330
17
100
AcDbEntity
  8
PLAT-TEXT-LOTNO
100
AcDbText
 10
1530.5170941763217
 20
45.99970770369873
 30
0.0
 40
25.492295767438808
  1
2
 50
89.02038494316565
  7
PLAT
 72
1
 11
1530.5170941763217
 21
45.99970770369873
 31
0.0
100
AcDbText
 73
2
  0
ENDSEC
  0
SECTION
  2
OBJECTS
  0
DICTIONARY
  5
A
330
0
100
AcDbDictionary
281
1
  3
ACAD_COLOR
350
B
  3
ACAD_GROUP
350
C
  3
ACAD_LAYOUT
350
D
  3
ACAD_MATERIAL
350
E
  3
ACAD_MLEADERSTYLE
350
F
  3
ACAD_MLINESTYLE
350
10
  3
ACAD_PLOTSETTINGS
350
11
  3
ACAD_PLOTSTYLENAME
350
12
  3
ACAD_SCALELIST
350
14
  3
ACAD_TABLESTYLE
350
15
  3
ACAD_VISUALSTYLE
350
16
  3
EZDXF_META
350
2D
  0
DICTIONARY
  5
B
330
A
100
AcDbDictionary
281
1
  0
DICTIONARY
  5
C
330
A
100
AcDbDictionary
281
1
  0
DICTIONARY
  5
D
330
A
100
AcDbDictionary
281
1
  3
Model
350
1A
  3
Layout1
350
1E
  0
DICTIONARY
  5
E
330
A
100
AcDbDictionary
281
1
  3
ByBlock
350
1F
  3
ByLayer
350
20
  3
Global
350
21
  0
DICTIONARY
  5
F
330
A
100
AcDbDictionary
281
1
  3
Standard
350
2C
  0
DICTIONARY
  5
10
330
A
100
AcDbDictionary
281
1
  3
Standard
350
22
  0
DICTIONARY
  5
11
330
A
100
AcDbDictionary
281
1
  0
ACDBDICTIONARYWDFLT
  5
12
330
A
100
AcDbDictionary
281
1
  3
Normal
350
13
100
AcDbDictionaryWithDefault
340
13
  0
ACDBPLACEHOLDER
  5
13
330
12
  0
DICTIONARY
  5
14
330
A
100
AcDbDictionary
281
1
  0
DICTIONARY
  5
15
330
A
100
AcDbDictionary
281
1
  0
DICTIONARY
  5
16
330
A
100
AcDbDictionary
281
1
  3
2dWireframe
350
5A
  3
Basic
350
5B
  3
Brighten
350
5C
  3
ColorChange
350
5D
  3
Conceptual
350
5E
  3
Dim
350
5F
  3
EdgeColorOff
350
60
  3
Facepattern
350
61
  3
Flat
350
62
  3
FlatWithEdges
350
63
  3
Gouraud
350
64
  3
GouraudWithEdges
350
65
  3
Hidden
350
66
  3
JitterOff
350
67
  3
Linepattern
350
68
  3
Modeling
350
69
  3
OverhangOff
350
6A
  3
Realistic
350
6B
  3
Shaded
350
6C
  3
Shaded with edges
350
6D
  3
Shades of Gray
350
6E
  3
Sketchy
350
6F
  3
Thicken
350
70
  3
Wireframe
350
71
  3
X-Ray
350
72
  0
LAYOUT
  5
1A
330
D
100
AcDbPlotSettings
  1

  4
A3
  6

 40
7.5
 41
20.0
 42
7.5
 43
20.0
 44
420.0
 45
297.0
 46
0.0
 47
0.0
 48
0.0
 49
0.0
140
0.0
141
0.0
142
1.0
143
1.0
 70
1024
 72
1
 73
0
 74
5
  7

 75
16
 76
0
 77
2
 78
300
147
1.0
148
0.0
149
0.0
100
AcDbLayout
  1
Model
 70
1
 71
0
 10
0.0
 20
0.0
 11
420.0
 21
297.0
 12
0.0
 22
0.0
 32
0.0
 14
1e+20
 24
1e+20
 34
1e+20
 15
-1e+20
 25
-1e+20
 35
-1e+20
146
0.0
 13
0.0
 23
0.0
 33
0.0
 16
1.0
 26
0.0
 36
0.0
 17
0.0
 27
1.0
 37
0.0
 76
1
330
17
  0
LAYOUT
  5
1E
330
D
100
AcDbPlotSettings
  1

  4
A3
  6

 40
7.5
 41
20.0
 42
7.5
 43
20.0
 44
420.0
 45
297.0
 46
0.0
 47
0.0
 48
0.0
 49
0.0
140
0.0
141
0.0
142
1.0
143
1.0
 70
0
 72
1
 73
0
 74
5
  7

 75
16
 76
0
 77
2
 78
300
147
1.0
148
0.0
149
0.0
100
AcDbLayout
  1
Layout1
 70
1
 71
1
 10
0.0
 20
0.0
 11
420.0
 21
297.0
 12
0.0
 22
0.0
 32
0.0
 14
1e+20
 24
1e+20
 34
1e+20
 15
-1e+20
 25
-1e+20
 35
-1e+20
146
0.0
 13
0.0
 23
0.0
 33
0.0
 16
1.0
 26
0.0
 36
0.0
 17
0.0
 27
1.0
 37
0.0
 76
1
330
1B
  0
MATERIAL
  5
1F
102
{ACAD_REACTORS
330
E
102
}
330
E
100
AcDbMaterial
  1
ByBlock
  2

 70
0
 40
1.0
 71
1
 41
1.0
 91
-1023410177
 42
1.0
 72
1
  3

 73
1
 74
1
 75
1
 44
0.5
 73
0
 45
1.0
 46
1.0
 77
1
  4

 78
1
 79
1
170
1
 48
1.0
171
1
  6

172
1
173
1
174
1
140
1.0
141
1.0
175
1
  7

176
1
177
1
178
1
143
1.0
179
1
  8

270
1
271
1
272
1
145
1.0
146
1.0
273
1
  9

274
1
275
1
276
1
 42
1.0
 72
1
  3

 73
1
 74
1
 75
1
 94
63
  0
MATERIAL
  5
20
102
{ACAD_REACTORS
330
E
102
}
330
E
100
AcDbMaterial
  1
ByLayer
  2

 70
0
 40
1.0
 71
1
 41
1.0
 91
-1023410177
 42
1.0
 72
1
  3

 73
1
 74
1
 75
1
 44
0.5
 73
0
 45
1.0
 46
1.0
 77
1
  4

 78
1
 79
1
170
1
 48
1.0
171
1
  6

172
1
173
1
174
1
140
1.0
141
1.0
175
1
  7

176
1
177
1
178
1
143
1.0
179
1
  8

270
1
271
1
272
1
145
1.0
146
1.0
273
1
  9

274
1
275
1
276
1
 42
1.0
 72
1
  3

 73
1
 74
1
 75
1
 94
63
  0
MATERIAL
  5
21
102
{ACAD_REACTORS
330
E
102
}
330
E
100
AcDbMaterial
  1
Global
  2

 70
0
 40
1.0
 71
1
 41
1.0
 91
-1023410177
 42
1.0
 72
1
  3

 73
1
 74
1
 75
1
 44
0.5
 73
0
 45
1.0
 46
1.0
 77
1
  4

 78
1
 79
1
170
1
 48
1.0
171
1
  6

172
1
173
1
174
1
140
1.0
141
1.0
175
1
  7

176
1
177
1
178
1
143
1.0
179
1
  8

270
1
271
1
272
1
145
1.0
146
1.0
273
1
  9

274
1
275
1
276
1
 42
1.0
 72
1
  3

 73
1
 74
1
 75
1
 94
63
  0
MLINESTYLE
  5
22
102
{ACAD_REACTORS
330
10
102
}
330
10
100
AcDbMlineStyle
  2
Standard
 70
0
  3

 62
256
 51
90.0
 52
90.0
 71
2
 49
0.5
 62
256
  6
BYLAYER
 49
-0.5
 62
256
  6
BYLAYER
  0
MLEADERSTYLE
  5
2C
102
{ACAD_REACTORS
330
F
102
}
330
F
100
AcDbMLeaderStyle
179
2
170
2
171
1
172
0
 90
2
 40
0.0
 41
0.0
173
1
 91
-1056964608
 92
-2
290
1
 42
2.0
291
1
 43
8.0
  3
Standard
 44
4.0
300

342
29
174
1
175
1
176
0
178
1
 93
-1056964608
 45
4.0
292
0
297
0
 46
4.0
 94
-1056964608
 47
1.0
 49
1.0
140
1.0
294
1
141
0.0
177
0
142
1.0
295
0
296
0
143
3.75
271
0
272
9
273
9
  0
DICTIONARY
  5
2D
330
A
100
AcDbDictionary
280
1
281
1
  3
CREATED_BY_EZDXF
350
2E
  3
WRITTEN_BY_EZDXF
350
137
  0
DICTIONARYVAR
  5
2E
330
2D
100
DictionaryVariables
280
0
  1
1.4.4 @ 2026-09-24T07:00:45.511920+00:00
  0
VISUALSTYLE
  5
5A
102
{ACAD_REACTORS
330
16
102
}
330
16
100
AcDbVisualStyle
  2
2dWireframe
 70
4
 90
0
 40
0.6
 62
7
290
0
291
0
  0
VISUALSTYLE
  5
5B
102
{ACAD_REACTORS
330
16
102
}
330
16
100
AcDbVisualStyle
  2
Basic
 70
7
 90
1
 40
0.6
 62
7
290
0
291
1
  0
VISUALSTYLE
  5
5C
102
{ACAD_REACTORS
330
16
102
}
330
16
100
AcDbVisualStyle
  2
Brighten
 70
12
 90
2
 40
0.6
 62
7
290
0
291
1
  0
VISUALSTYLE
  5
5D
102
{ACAD_REACTORS
330
16
102
}
330
16
100
AcDbVisualStyle
  2
ColorChange
 70
16
 90
2
 40
0.6
 62
8
290
0
291
1
  0
VISUALSTYLE
  5
5E
102
{ACAD_REACTORS
330
16
102
}
330
16
100
AcDbVisualStyle
  2
Conceptual
 70
9
 90
3
 40
0.6
 62
7
290
0
291
0
  0
VISUALSTYLE
  5
5F
102
{ACAD_REACTORS
330
16
102
}
330
16
100
AcDbVisualStyle
  2
Dim
 70
11
 90
2
 40
0.6
 62
7
290
0
291
1
  0
VISUALSTYLE
  5
60
102
{ACAD_REACTORS
330
16
102
}
330
16
100
AcDbVisualStyle
  2
EdgeColorOff
 70
22
 90
2
 40
0.6
 62
7
290
0
291
1
  0
VISUALSTYLE
  5
61
102
{ACAD_REACTORS
330
16
102
}
330
16
100
AcDbVisualStyle
  2
Facepattern
 70
15
 90
2
 40
0.6
 62
7
290
0
291
1
  0
VISUALSTYLE
  5
62
102
{ACAD_REACTORS
330
16
102
}
330
16
100
AcDbVisualStyle
  2
Flat
 70
0
 90
2
 40
0.6
 62
7
290
0
291
1
  0
VISUALSTYLE
  5
63
102
{ACAD_REACTORS
330
16
102
}
330
16
100
AcDbVisualStyle
  2
FlatWithEdges
 70
1
 90
2
 40
0.6
 62
7
290
0
291
1
  0
VISUALSTYLE
  5
64
102
{ACAD_REACTORS
330
16
102
}
330
16
100
AcDbVisualStyle
  2
Gouraud
 70
2
 90
2
 40
0.6
 62
7
290
0
291
1
  0
VISUALSTYLE
  5
65
102
{ACAD_REACTORS
330
16
102
}
330
16
100
AcDbVisualStyle
  2
GouraudWithEdges
 70
3
 90
2
 40
0.6
 62
7
290
0
291
1
  0
VISUALSTYLE
  5
66
102
{ACAD_REACTORS
330
16
102
}
330
16
100
AcDbVisualStyle
  2
Hidden
 70
6
 90
1
 40
0.6
 62
7
290
0
291
0
  0
VISUALSTYLE
  5
67
102
{ACAD_REACTORS
330
16
102
}
330
16
100
AcDbVisualStyle
  2
JitterOff
 70
20
 90
2
 40
0.6
 62
7
290
0
291
1
  0
VISUALSTYLE
  5
68
102
{ACAD_REACTORS
330
16
102
}
330
16
100
AcDbVisualStyle
  2
Linepattern
 70
14
 90
2
 40
0.6
 62
7
290
0
291
1
  0
VISUALSTYLE
  5
69
102
{ACAD_REACTORS
330
16
102
}
330
16
100
AcDbVisualStyle
  2
Modeling
 70
10
 90
2
 40
0.6
 62
7
290
0
291
0
  0
VISUALSTYLE
  5
6A
102
{ACAD_REACTORS
330
16
102
}
330
16
100
AcDbVisualStyle
  2
OverhangOff
 70
21
 90
2
 40
0.6
 62
7
290
0
291
1
  0
VISUALSTYLE
  5
6B
102
{ACAD_REACTORS
330
16
102
}
330
16
100
AcDbVisualStyle
  2
Realistic
 70
8
 90
2
 40
0.6
 62
7
290
0
291
0
  0
VISUALSTYLE
  5
6C
102
{ACAD_REACTORS
330
16
102
}
330
16
100
AcDbVisualStyle
  2
Shaded
 70
27
 90
2
 40
0.6
 62
7
290
0
291
0
  0
VISUALSTYLE
  5
6D
102
{ACAD_REACTORS
330
16
102
}
330
16
100
AcDbVisualStyle
  2
Shaded with edges
 70
26
 90
2
 40
0.6
 62
7
290
0
291
0
  0
VISUALSTYLE
  5
6E
102
{ACAD_REACTORS
330
16
102
}
330
16
100
AcDbVisualStyle
  2
Shades of Gray
 70
23
 90
2
 40
0.6
 62
7
290
0
291
0
  0
VISUALSTYLE
  5
6F
102
{ACAD_REACTORS
330
16
102
}
330
16
100
AcDbVisualStyle
  2
Sketchy
 70
24
 90
1
 40
0.6
 62
7
290
0
291
0
  0
VISUALSTYLE
  5
70
102
{ACAD_REACTORS
330
16
102
}
330
16
100
AcDbVisualStyle
  2
Thicken
 70
13
 90
2
 40
0.6
 62
7
290
0
291
1
  0
VISUALSTYLE
  5
71
102
{ACAD_REACTORS
330
16
102
}
330
16
100
AcDbVisualStyle
  2
Wireframe
 70
5
 90
0
 40
0.6
 62
7
290
0
291
0
  0
VISUALSTYLE
  5
72
102
{ACAD_REACTORS
330
16
102
}
330
16
100
AcDbVisualStyle
  2
X-Ray
 70
25
 90
2
 40
0.5
 62
7
290
0
291
0
  0
DICTIONARYVAR
  5
137
330
2D
100
DictionaryVariables
280
0
  1
1.4.4 @ 2026-09-24T07:00:45.528254+00:00
  0
ENDSEC
  0
EOF
