  0
SECTION
  2
HEADER
  9
$ACADVER
  1
AC1024
  9
$ACADMAINTVER
 70
6
  9
$DWGCODEPAGE
  3
ANSI_1252
  9
$LASTSAVEDBY
  1
ezdxf
  9
$INSBASE
 10
0.0
 20
0.0
 30
0.0
  9
$EXTMIN
 10
1e+20
 20
1e+20
 30
1e+20
  9
$EXTMAX
 10
-1e+20
 20
-1e+20
 30
-1e+20
  9
$LIMMIN
 10
0.0
 20
0.0
  9
$LIMMAX
 10
420.0
 20
297.0
  9
$ORTHOMODE
 70
0
  9
$REGENMODE
 70
1
  9
$FILLMODE
 70
1
  9
$QTEXTMODE
 70
0
  9
$MIRRTEXT
 70
1
  9
$LTSCALE
 40
1.0
  9
$ATTMODE
 70
1
  9
$TEXTSIZE
 40
2.5
  9
$TRACEWID
 40
1.0
  9
$TEXTSTYLE
  7
OpenSans
  9
$CLAYER
  8
0
  9
$CELTYPE
  6
ByLayer
  9
$CECOLOR
 62
256
  9
$CELTSCALE
 40
1.0
  9
$DISPSILH
 70
0
  9
$DIMSCALE
 40
1.0
  9
$DIMASZ
 40
0.175
  9
$DIMEXO
 40
0.125
  9
$DIMDLI
 40
3.75
  9
$DIMRND
 40
0.0
  9
$DIMDLE
 40
0.0
  9
$DIMEXE
 40
0.375
  9
$DIMTP
 40
0.0
  9
$DIMTM
 40
0.0
  9
$DIMTXT
 40
0.25
  9
$DIMCEN
 40
2.5
  9
$DIMTSZ
 40
0.0
  9
$DIMTOL
 70
0
  9
$DIMLIM
 70
0
  9
$DIMTIH
 70
0
  9
$DIMTOH
 70
0
  9
$DIMSE1
 70
0
  9
$DIMSE2
 70
0
  9
$DIMTAD
 70
1
  9
$DIMZIN
 70
12
  9
$DIMBLK
  1
ARCHTICK
  9
$DIMASO
 70
1
  9
$DIMSHO
 70
1
  9
$DIMPOST
  1

  9
$DIMAPOST
  1

  9
$DIMALT
 70
0
  9
$DIMALTD
 70
3
  9
$DIMALTF
 40
0.03937007874
  9
$DIMLFAC
 40
100.0
  9
$DIMTOFL
 70
1
  9
$DIMTVP
 40
0.0
  9
$DIMTIX
 70
0
  9
$DIMSOXD
 70
0
  9
$DIMSAH
 70
0
  9
$DIMBLK1
  1

  9
$DIMBLK2
  1

  9
$DIMSTYLE
  2
EZDXF
  9
$DIMCLRD
 70
0
  9
$DIMCLRE
 70
0
  9
$DIMCLRT
 70
0
  9
$DIMTFAC
 40
0.5
  9
$DIMGAP
 40
0.1
  9
$DIMJUST
 70
0
  9
$DIMSD1
 70
0
  9
$DIMSD2
 70
0
  9
$DIMTOLJ
 70
0
  9
$DIMTZIN
 70
8
  9
$DIMALTZ
 70
0
  9
$DIMALTTZ
 70
0
  9
$DIMUPT
 70
1
  9
$DIMDEC
 70
2
  9
$DIMTDEC
 70
2
  9
$DIMALTU
 70
2
  9
$DIMALTTD
 70
3
  9
$DIMTXSTY
  7
OpenSansCondensed-Light
  9
$DIMAUNIT
 70
0
  9
$DIMADEC
 70
2
  9
$DIMALTRND
 40
0.0
  9
$DIMAZIN
 70
3
  9
$DIMDSEP
 70
46
  9
$DIMATFIT
 70
3
  9
$DIMFRAC
 70
0
  9
$DIMLDRBLK
  1

  9
$DIMLUNIT
 70
2
  9
$DIMLWD
 70
-2
  9
$DIMLWE
 70
-2
  9
$DIMTMOVE
 70
2
  9
$DIMFXL
 40
1.0
  9
$DIMFXLON
 70
0
  9
$DIMJOGANG
 40
0.785398163397
  9
$DIMTFILL
 70
0
  9
$DIMTFILLCLR
 70
0
  9
$DIMARCSYM
 70
0
  9
$DIMLTYPE
  6

  9
$DIMLTEX1
  6

  9
$DIMLTEX2
  6

  9
$DIMTXTDIRECTION
 70
0
  9
$LUNITS
 70
2
  9
$LUPREC
 70
4
  9
$SKETCHINC
 40
1.0
  9
$FILLETRAD
 40
10.0
  9
$AUNITS
 70
0
  9
$AUPREC
 70
2
  9
$MENU
  1
.
  9
$ELEVATION
 40
0.0
  9
$PELEVATION
 40
0.0
  9
$THICKNESS
 40
0.0
  9
$LIMCHECK
 70
0
  9
$CHAMFERA
 40
0.0
  9
$CHAMFERB
 40
0.0
  9
$CHAMFERC
 40
0.0
  9
$CHAMFERD
 40
0.0
  9
$SKPOLY
 70
0
  9
$TDCREATE
 40
2461308.1248726854
  9
$TDUCREATE
 40
2458532.153996898
  9
$TDUPDATE
 40
2461308.1248842594
  9
$TDUUPDATE
 40
2458532.1544311
  9
$TDINDWG
 40
0.0
  9
$TDUSRTIMER
 40
0.0
  9
$USRTIMER
 70
1
  9
$ANGBASE
 50
0.0
  9
$ANGDIR
 70
0
  9
$PDMODE
 70
0
  9
$PDSIZE
 40
0.0
  9
$PLINEWID
 40
0.0
  9
$SPLFRAME
 70
0
  9
$SPLINETYPE
 70
6
  9
$SPLINESEGS
 70
8
  9
$HANDSEED
  5
2CF
  9
$SURFTAB1
 70
6
  9
$SURFTAB2
 70
6
  9
$SURFTYPE
 70
6
  9
$SURFU
 70
6
  9
$SURFV
 70
6
  9
$UCSBASE
  2

  9
$UCSNAME
  2

  9
$UCSORG
 10
0.0
 20
0.0
 30
0.0
  9
$UCSXDIR
 10
1.0
 20
0.0
 30
0.0
  9
$UCSYDIR
 10
0.0
 20
1.0
 30
0.0
  9
$UCSORTHOREF
  2

  9
$UCSORTHOVIEW
 70
0
  9
$UCSORGTOP
 10
0.0
 20
0.0
 30
0.0
  9
$UCSORGBOTTOM
 10
0.0
 20
0.0
 30
0.0
  9
$UCSORGLEFT
 10
0.0
 20
0.0
 30
0.0
  9
$UCSORGRIGHT
 10
0.0
 20
0.0
 30
0.0
  9
$UCSORGFRONT
 10
0.0
 20
0.0
 30
0.0
  9
$UCSORGBACK
 10
0.0
 20
0.0
 30
0.0
  9
$PUCSBASE
  2

  9
$PUCSNAME
  2

  9
$PUCSORG
 10
0.0
 20
0.0
 30
0.0
  9
$PUCSXDIR
 10
1.0
 20
0.0
 30
0.0
  9
$PUCSYDIR
 10
0.0
 20
1.0
 30
0.0
  9
$PUCSORTHOREF
  2

  9
$PUCSORTHOVIEW
 70
0
  9
$PUCSORGTOP
 10
0.0
 20
0.0
 30
0.0
  9
$PUCSORGBOTTOM
 10
0.0
 20
0.0
 30
0.0
  9
$PUCSORGLEFT
 10
0.0
 20
0.0
 30
0.0
  9
$PUCSORGRIGHT
 10
0.0
 20
0.0
 30
0.0
  9
$PUCSORGFRONT
 10
0.0
 20
0.0
 30
0.0
  9
$PUCSORGBACK
 10
0.0
 20
0.0
 30
0.0
  9
$USERI1
 70
0
  9
$USERI2
 70
0
  9
$USERI3
 70
0
  9
$USERI4
 70
0
  9
$USERI5
 70
0
  9
$USERR1
 40
0.0
  9
$USERR2
 40
0.0
  9
$USERR3
 40
0.0
  9
$USERR4
 40
0.0
  9
$USERR5
 40
0.0
  9
$WORLDVIEW
 70
1
  9
$SHADEDGE
 70
3
  9
$SHADEDIF
 70
70
  9
$TILEMODE
 70
1
  9
$MAXACTVP
 70
64
  9
$PINSBASE
 10
0.0
 20
0.0
 30
0.0
  9
$PLIMCHECK
 70
0
  9
$PEXTMIN
 10
1e+20
 20
1e+20
 30
1e+20
  9
$PEXTMAX
 10
-1e+20
 20
-1e+20
 30
-1e+20
  9
$PLIMMIN
 10
0.0
 20
0.0
  9
$PLIMMAX
 10
420.0
 20
297.0
  9
$UNITMODE
 70
0
  9
$VISRETAIN
 70
1
  9
$PLINEGEN
 70
0
  9
$PSLTSCALE
 70
1
  9
$TREEDEPTH
 70
3020
  9
$CMLSTYLE
  2
Standard
  9
$CMLJUST
 70
0
  9
$CMLSCALE
 40
20.0
  9
$PROXYGRAPHICS
 70
1
  9
$MEASUREMENT
 70
0
  9
$CELWEIGHT
370
-1
  9
$ENDCAPS
280
0
  9
$JOINSTYLE
280
0
  9
$LWDISPLAY
290
0
  9
$INSUNITS
 70
2
  9
$HYPERLINKBASE
  1

  9
$STYLESHEET
  1

  9
$XEDIT
290
1
  9
$CEPSNTYPE
380
0
  9
$PSTYLEMODE
290
1
  9
$FINGERPRINTGUID
  2
{5EDD5D11-527C-4E45-999F-E7BBDD8364E8}
  9
$VERSIONGUID
  2
{501290F8-CBC7-47B9-9872-21E051D1BD7D}
  9
$EXTNAMES
290
1
  9
$PSVPSCALE
 40
0.0
  9
$OLESTARTUP
290
0
  9
$SORTENTS
280
127
  9
$INDEXCTL
280
0
  9
$HIDETEXT
280
1
  9
$XCLIPFRAME
280
1
  9
$HALOGAP
280
0
  9
$OBSCOLOR
 70
257
  9
$OBSLTYPE
280
0
  9
$INTERSECTIONDISPLAY
280
0
  9
$INTERSECTIONCOLOR
 70
257
  9
$DIMASSOC
280
2
  9
$PROJECTNAME
  1

  9
$CAMERADISPLAY
290
0
  9
$LENSLENGTH
 40
50.0
  9
$CAMERAHEIGHT
 40
0.0
  9
$STEPSPERSEC
 40
24.0
  9
$STEPSIZE
 40
100.0
  9
$3DDWFPREC
 40
2.0
  9
$PSOLWIDTH
 40
0.005
  9
$PSOLHEIGHT
 40
0.08
  9
$LOFTANG1
 40
1.570796326795
  9
$LOFTANG2
 40
1.570796326795
  9
$LOFTMAG1
 40
0.0
  9
$LOFTMAG2
 40
0.0
  9
$LOFTPARAM
 70
7
  9
$LOFTNORMALS
280
1
  9
$LATITUDE
 40
37.795
  9
$LONGITUDE
 40
-122.394
  9
$NORTHDIRECTION
 40
0.0
  9
$TIMEZONE
 70
-8000
  9
$LIGHTGLYPHDISPLAY
280
1
  9
$TILEMODELIGHTSYNCH
280
1
  9
$CMATERIAL
347
20
  9
$SOLIDHIST
280
0
  9
$SHOWHIST
280
1
  9
$DWFFRAME
280
2
  9
$DGNFRAME
280
2
  9
$REALWORLDSCALE
290
1
  9
$INTERFERECOLOR
 62
256
  9
$CSHADOW
280
0
  9
$SHADOWPLANELOCATION
 40
0.0
  0
ENDSEC
  0
SECTION
  2
CLASSES
  0
CLASS
  1
ACDBDICTIONARYWDFLT
  2
AcDbDictionaryWithDefault
  3
ObjectDBX Classes
 90
0
 91
0
280
0
281
0
  0
CLASS
  1
SUN
  2
AcDbSun
  3
SCENEOE
 90
1153
 91
0
280
0
281
0
  0
CLASS
  1
VISUALSTYLE
  2
AcDbVisualStyle
  3
ObjectDBX Classes
 90
4095
 91
0
280
0
281
0
  0
CLASS
  1
MATERIAL
  2
AcDbMaterial
  3
ObjectDBX Classes
 90
1153
 91
0
280
0
281
0
  0
CLASS
  1
SCALE
  2
AcDbScale
  3
ObjectDBX Classes
 90
1153
 91
0
280
0
281
0
  0
CLASS
  1
TABLESTYLE
  2
AcDbTableStyle
  3
ObjectDBX Classes
 90
4095
 91
0
280
0
281
0
  0
CLASS
  1
MLEADERSTYLE
  2
AcDbMLeaderStyle
  3
ACDB_MLEADERSTYLE_CLASS
 90
4095
 91
0
280
0
281
0
  0
CLASS
  1
DICTIONARYVAR
  2
AcDbDictionaryVar
  3
ObjectDBX Classes
 90
0
 91
0
280
0
281
0
  0
CLASS
  1
CELLSTYLEMAP
  2
AcDbCellStyleMap
  3
ObjectDBX Classes
 90
1152
 91
0
280
0
281
0
  0
CLASS
  1
MENTALRAYRENDERSETTINGS
  2
AcDbMentalRayRenderSettings
  3
SCENEOE
 90
1024
 91
0
280
0
281
0
  0
CLASS
  1
ACDBDETAILVIEWSTYLE
  2
AcDbDetailViewStyle
  3
ObjectDBX Classes
 90
1025
 91
0
280
0
281
0
  0
CLASS
  1
ACDBSECTIONVIEWSTYLE
  2
AcDbSectionViewStyle
  3
ObjectDBX Classes
 90
1025
 91
0
280
0
281
0
  0
CLASS
  1
RASTERVARIABLES
  2
AcDbRasterVariables
  3
ISM
 90
0
 91
0
280
0
281
0
  0
CLASS
  1
LAYOUT
  2
AcDbLayout
  3
ObjectDBX Classes
 90
0
 91
0
280
0
281
0
  0
CLASS
  1
ACDBPLACEHOLDER
  2
AcDbPlaceHolder
  3
ObjectDBX Classes
 90
0
 91
0
280
0
281
0
  0
ENDSEC
  0
SECTION
  2
TABLES
  0
TABLE
  2
VPORT
  5
8
330
0
100
AcDbSymbolTable
 70
1
  0
VPORT
  5
23
330
8
100
AcDbSymbolTableRecord
100
AcDbViewportTableRecord
  2
*Active
 70
0
 10
0.0
 20
0.0
 11
1.0
 21
1.0
 12
0.0
 22
0.0
 13
0.0
 23
0.0
 14
0.5
 24
0.5
 15
0.5
 25
0.5
 16
0.0
 26
0.0
 36
1.0
 17
0.0
 27
0.0
 37
0.0
 40
1000.0
 41
1.34
 42
50.0
 43
0.0
 44
0.0
 50
0.0
 51
0.0
 71
0
 72
1000
 73
1
 74
3
 75
0
 76
0
 77
0
 78
0
281
0
 65
0
146
0.0
  0
ENDTAB
  0
TABLE
  2
LTYPE
  5
2
330
0
100
AcDbSymbolTable
 70
21
  0
LTYPE
  5
24
330
2
100
AcDbSymbolTableRecord
100
AcDbLinetypeTableRecord
  2
ByBlock
 70
0
  3

 72
65
 73
0
 40
0.0
  0
LTYPE
  5
25
330
2
100
AcDbSymbolTableRecord
100
AcDbLinetypeTableRecord
  2
ByLayer
 70
0
  3

 72
65
 73
0
 40
0.0
  0
LTYPE
  5
26
330
2
100
AcDbSymbolTableRecord
100
AcDbLinetypeTableRecord
  2
Continuous
 70
0
  3

 72
65
 73
0
 40
0.0
  0
LTYPE
  5
2F
330
2
100
AcDbSymbolTableRecord
100
AcDbLinetypeTableRecord
  2
CENTER
 70
0
  3
Center ____ _ ____ _ ____ _ ____ _ ____ _ ____
 72
65
 73
4
 40
5.08
 49
3.175
 74
0
 49
-0.635
 74
0
 49
0.635
 74
0
 49
-0.635
 74
0
  0
LTYPE
  5
30
330
2
100
AcDbSymbolTableRecord
100
AcDbLinetypeTableRecord
  2
CENTERX2
 70
0
  3
Center (2x) ________  __  ________  __  ________
 72
65
 73
4
 40
8.89
 49
6.35
 74
0
 49
-0.635
 74
0
 49
1.27
 74
0
 49
-0.635
 74
0
  0
LTYPE
  5
31
330
2
100
AcDbSymbolTableRecord
100
AcDbLinetypeTableRecord
  2
CENTER2
 70
0
  3
Center (.5x) ____ _ ____ _ ____ _ ____ _ ____
 72
65
 73
4
 40
2.54
 49
1.587
 74
0
 49
-0.318
 74
0
 49
0.318
 74
0
 49
-0.318
 74
0
  0
LTYPE
  5
32
330
2
100
AcDbSymbolTableRecord
100
AcDbLinetypeTableRecord
  2
DASHED
 70
0
  3
Dashed __ __ __ __ __ __ __ __ __ __ __ __ __ _
 72
65
 73
2
 40
1.524
 49
1.27
 74
0
 49
-0.254
 74
0
  0
LTYPE
  5
33
330
2
100
AcDbSymbolTableRecord
100
AcDbLinetypeTableRecord
  2
DASHEDX2
 70
0
  3
Dashed (2x) ____  ____  ____  ____  ____  ____
 72
65
 73
2
 40
3.048
 49
2.54
 74
0
 49
-0.508
 74
0
  0
LTYPE
  5
34
330
2
100
AcDbSymbolTableRecord
100
AcDbLinetypeTableRecord
  2
DASHED2
 70
0
  3
Dashed (.5x) _ _ _ _ _ _ _ _ _ _ _ _ _ _
 72
65
 73
2
 40
0.762
 49
0.635
 74
0
 49
-0.127
 74
0
  0
LTYPE
  5
35
330
2
100
AcDbSymbolTableRecord
100
AcDbLinetypeTableRecord
  2
PHANTOM
 70
0
  3
Phantom ______  __  __  ______  __  __  ______
 72
65
 73
6
 40
6.35
 49
3.175
 74
0
 49
-0.635
 74
0
 49
0.635
 74
0
 49
-0.635
 74
0
 49
0.635
 74
0
 49
-0.635
 74
0
  0
LTYPE
  5
36
330
2
100
AcDbSymbolTableRecord
100
AcDbLinetypeTableRecord
  2
PHANTOMX2
 70
0
  3
Phantom (2x)____________    ____    ____    ____________
 72
65
 73
6
 40
10.795
 49
6.35
 74
0
 49
-0.635
 74
0
 49
1.27
 74
0
 49
-0.635
 74
0
 49
1.27
 74
0
 49
-0.635
 74
0
  0
LTYPE
  5
37
330
2
100
AcDbSymbolTableRecord
100
AcDbLinetypeTableRecord
  2
PHANTOM2
 70
0
  3
Phantom (.5x) ___ _ _ ___ _ _ ___ _ _ ___ _ _ ___
 72
65
 73
6
 40
3.175
 49
1.587
 74
0
 49
-0.318
 74
0
 49
0.318
 74
0
 49
-0.318
 74
0
 49
0.318
 74
0
 49
-0.318
 74
0
  0
LTYPE
  5
38
330
2
100
AcDbSymbolTableRecord
100
AcDbLinetypeTableRecord
  2
DASHDOT
 70
0
  3
Dash dot __ . __ . __ . __ . __ . __ . __ . __
 72
65
 73
4
 40
3.556
 49
2.54
 74
0
 49
-0.508
 74
0
 49
0.0
 74
0
 49
-0.508
 74
0
  0
LTYPE
  5
39
330
2
100
AcDbSymbolTableRecord
100
AcDbLinetypeTableRecord
  2
DASHDOTX2
 70
0
  3
Dash dot (2x) ____  .  ____  .  ____  .  ____
 72
65
 73
4
 40
6.096
 49
5.08
 74
0
 49
-0.508
 74
0
 49
0.0
 74
0
 49
-0.508
 74
0
  0
LTYPE
  5
3A
330
2
100
AcDbSymbolTableRecord
100
AcDbLinetypeTableRecord
  2
DASHDOT2
 70
0
  3
Dash dot (.5x) _ . _ . _ . _ . _ . _ . _ . _
 72
65
 73
4
 40
1.778
 49
1.27
 74
0
 49
-0.254
 74
0
 49
0.0
 74
0
 49
-0.254
 74
0
  0
LTYPE
  5
3B
330
2
100
AcDbSymbolTableRecord
100
AcDbLinetypeTableRecord
  2
DOT
 70
0
  3
Dot .  .  .  .  .  .  .  .  .  .  .  .  .  .  .  .
 72
65
 73
2
 40
0.508
 49
0.0
 74
0
 49
-0.508
 74
0
  0
LTYPE
  5
3C
330
2
100
AcDbSymbolTableRecord
100
AcDbLinetypeTableRecord
  2
DOTX2
 70
0
  3
Dot (2x) .    .    .    .    .    .    .    . 
 72
65
 73
2
 40
1.016
 49
0.0
 74
0
 49
-1.016
 74
0
  0
LTYPE
  5
3D
330
2
100
AcDbSymbolTableRecord
100
AcDbLinetypeTableRecord
  2
DOT2
 70
0
  3
Dot (.5) . . . . . . . . . . . . . . . . . . . 
 72
65
 73
2
 40
0.254
 49
0.0
 74
0
 49
-0.254
 74
0
  0
LTYPE
  5
3E
330
2
100
AcDbSymbolTableRecord
100
AcDbLinetypeTableRecord
  2
DIVIDE
 70
0
  3
Divide __ . . __ . . __ . . __ . . __ . . __
 72
65
 73
6
 40
4.064
 49
2.54
 74
0
 49
-0.508
 74
0
 49
0.0
 74
0
 49
-0.508
 74
0
 49
0.0
 74
0
 49
-0.508
 74
0
  0
LTYPE
  5
3F
330
2
100
AcDbSymbolTableRecord
100
AcDbLinetypeTableRecord
  2
DIVIDEX2
 70
0
  3
Divide (2x) ____  . .  ____  . .  ____  . .  ____
 72
65
 73
6
 40
6.604
 49
5.08
 74
0
 49
-0.508
 74
0
 49
0.0
 74
0
 49
-0.508
 74
0
 49
0.0
 74
0
 49
-0.508
 74
0
  0
LTYPE
  5
40
330
2
100
AcDbSymbolTableRecord
100
AcDbLinetypeTableRecord
  2
DIVIDE2
 70
0
  3
Divide(.5x) _ . _ . _ . _ . _ . _ . _ . _
 72
65
 73
6
 40
2.032
 49
1.27
 74
0
 49
-0.254
 74
0
 49
0.0
 74
0
 49
-0.254
 74
0
 49
0.0
 74
0
 49
-0.254
 74
0
  0
ENDTAB
  0
TABLE
  2
LAYER
  5
1
330
0
100
AcDbSymbolTable
 70
18
  0
LAYER
  5
27
330
1
100
AcDbSymbolTableRecord
100
AcDbLayerTableRecord
  2
0
 70
0
 62
7
  6
Continuous
370
-3
390
13
347
21
  0
LAYER
  5
28
330
1
100
AcDbSymbolTableRecord
100
AcDbLayerTableRecord
  2
Defpoints
 70
0
 62
7
  6
Continuous
290
0
370
-3
390
13
347
21
  0
LAYER
  5
8B
330
1
100
AcDbSymbolTableRecord
100
AcDbLayerTableRecord
  2
PLAT-LINE
 70
0
 62
7
  6
CONTINUOUS
370
-3
390
13
347
21
  0
LAYER
  5
8C
330
1
100
AcDbSymbolTableRecord
100
AcDbLayerTableRecord
  2
PLAT-LINE-DASH
 70
0
 62
8
  6
DASHED
370
-3
390
13
347
21
  0
LAYER
  5
8D
330
1
100
AcDbSymbolTableRecord
100
AcDbLayerTableRecord
  2
PLAT-CURVE
 70
0
 62
4
  6
CONTINUOUS
370
-3
390
13
347
21
  0
LAYER
  5
8E
330
1
100
AcDbSymbolTableRecord
100
AcDbLayerTableRecord
  2
PLAT-TEXT-BRG
 70
0
 62
3
  6
CONTINUOUS
370
-3
390
13
347
21
  0
LAYER
  5
8F
330
1
100
AcDbSymbolTableRecord
100
AcDbLayerTableRecord
  2
PLAT-TEXT-DIST
 70
0
 62
2
  6
CONTINUOUS
370
-3
390
13
347
21
  0
LAYER
  5
90
330
1
100
AcDbSymbolTableRecord
100
AcDbLayerTableRecord
  2
PLAT-TEXT-CURVE
 70
0
 62
6
  6
CONTINUOUS
370
-3
390
13
347
21
  0
LAYER
  5
91
330
1
100
AcDbSymbolTableRecord
100
AcDbLayerTableRecord
  2
PLAT-TEXT-LOTNO
 70
0
 62
5
  6
CONTINUOUS
370
-3
390
13
347
21
  0
LAYER
  5
92
330
1
100
AcDbSymbolTableRecord
100
AcDbLayerTableRecord
  2
PLAT-TEXT-AREA
 70
0
 62
5
  6
CONTINUOUS
370
-3
390
13
347
21
  0
LAYER
  5
93
330
1
100
AcDbSymbolTableRecord
100
AcDbLayerTableRecord
  2
PLAT-TEXT-MISC
 70
0
 62
9
  6
CONTINUOUS
370
-3
390
13
347
21
  0
LAYER
  5
94
330
1
100
AcDbSymbolTableRecord
100
AcDbLayerTableRecord
  2
PLAT-TEXT-UNASSOC
 70
0
 62
30
  6
CONTINUOUS
370
-3
390
13
347
21
  0
LAYER
  5
95
330
1
100
AcDbSymbolTableRecord
100
AcDbLayerTableRecord
  2
PLAT-TABLE-CURVE
 70
0
 62
6
  6
CONTINUOUS
370
-3
390
13
347
21
  0
LAYER
  5
96
330
1
100
AcDbSymbolTableRecord
100
AcDbLayerTableRecord
  2
PLAT-TABLE
 70
0
 62
6
  6
CONTINUOUS
370
-3
390
13
347
21
  0
LAYER
  5
97
330
1
100
AcDbSymbolTableRecord
100
AcDbLayerTableRecord
  2
PLAT-NOTES
 70
0
 62
7
  6
CONTINUOUS
370
-3
390
13
347
21
  0
LAYER
  5
98
330
1
100
AcDbSymbolTableRecord
100
AcDbLayerTableRecord
  2
PLAT-QA
 70
0
 62
1
  6
CONTINUOUS
370
-3
390
13
347
21
  0
LAYER
  5
99
330
1
100
AcDbSymbolTableRecord
100
AcDbLayerTableRecord
  2
PLAT-MON
 70
0
 62
1
  6
CONTINUOUS
370
-3
390
13
347
21
  0
LAYER
  5
9A
330
1
100
AcDbSymbolTableRecord
100
AcDbLayerTableRecord
  2
PLAT-TEXT-LOWCONF
 70
1
 62
8
  6
CONTINUOUS
370
-3
390
13
347
21
  0
ENDTAB
  0
TABLE
  2
STYLE
  5
5
330
0
100
AcDbSymbolTable
 70
27
  0
STYLE
  5
29
330
5
100
AcDbSymbolTableRecord
100
AcDbTextStyleTableRecord
  2
Standard
 70
0
 40
0.0
 41
1.0
 50
0.0
 71
0
 42
2.5
  3
txt
  4

  0
STYLE
  5
41
330
5
100
AcDbSymbolTableRecord
100
AcDbTextStyleTableRecord
  2
OpenSans-Light
 70
0
 40
0.0
 41
1.0
 50
0.0
 71
0
 42
2.5
  3
OpenSans-Light.ttf
  4

  0
STYLE
  5
42
330
5
100
AcDbSymbolTableRecord
100
AcDbTextStyleTableRecord
  2
OpenSans-Light-Italic
 70
0
 40
0.0
 41
1.0
 50
0.0
 71
0
 42
2.5
  3
OpenSans-LightItalic.ttf
  4

  0
STYLE
  5
43
330
5
100
AcDbSymbolTableRecord
100
AcDbTextStyleTableRecord
  2
OpenSans
 70
0
 40
0.0
 41
1.0
 50
0.0
 71
0
 42
2.5
  3
OpenSans-Regular.ttf
  4

  0
STYLE
  5
44
330
5
100
AcDbSymbolTableRecord
100
AcDbTextStyleTableRecord
  2
OpenSans-Italic
 70
0
 40
0.0
 41
1.0
 50
0.0
 71
0
 42
2.5
  3
OpenSans-Italic.ttf
  4

  0
STYLE
  5
45
330
5
100
AcDbSymbolTableRecord
100
AcDbTextStyleTableRecord
  2
OpenSans-SemiBold
 70
0
 40
0.0
 41
1.0
 50
0.0
 71
0
 42
2.5
  3
OpenSans-SemiBold.ttf
  4

  0
STYLE
  5
46
330
5
100
AcDbSymbolTableRecord
100
AcDbTextStyleTableRecord
  2
OpenSans-SemiBoldItalic
 70
0
 40
0.0
 41
1.0
 50
0.0
 71
0
 42
2.5
  3
OpenSans-SemiBoldItalic.ttf
  4

  0
STYLE
  5
47
330
5
100
AcDbSymbolTableRecord
100
AcDbTextStyleTableRecord
  2
OpenSans-Bold
 70
0
 40
0.0
 41
1.0
 50
0.0
 71
0
 42
2.5
  3
OpenSans-Bold.ttf
  4

  0
STYLE
  5
48
330
5
100
AcDbSymbolTableRecord
100
AcDbTextStyleTableRecord
  2
OpenSans-BoldItalic
 70
0
 40
0.0
 41
1.0
 50
0.0
 71
0
 42
2.5
  3
OpenSans-BoldItalic.ttf
  4

  0
STYLE
  5
49
330
5
100
AcDbSymbolTableRecord
100
AcDbTextStyleTableRecord
  2
OpenSans-ExtraBold
 70
0
 40
0.0
 41
1.0
 50
0.0
 71
0
 42
2.5
  3
OpenSans-ExtraBold.ttf
  4

  0
STYLE
  5
4A
330
5
100
AcDbSymbolTableRecord
100
AcDbTextStyleTableRecord
  2
OpenSans-ExtraBoldItalic
 70
0
 40
0.0
 41
1.0
 50
0.0
 71
0
 42
2.5
  3
OpenSans-ExtraBoldItalic.ttf
  4

  0
STYLE
  5
4B
330
5
100
AcDbSymbolTableRecord
100
AcDbTextStyleTableRecord
  2
OpenSansCondensed-Bold
 70
0
 40
0.0
 41
1.0
 50
0.0
 71
0
 42
2.5
  3
OpenSansCondensed-Bold.ttf
  4

  0
STYLE
  5
4C
330
5
100
AcDbSymbolTableRecord
100
AcDbTextStyleTableRecord
  2
OpenSansCondensed-Light
 70
0
 40
0.0
 41
1.0
 50
0.0
 71
0
 42
2.5
  3
OpenSansCondensed-Light.ttf
  4

  0
STYLE
  5
4D
330
5
100
AcDbSymbolTableRecord
100
AcDbTextStyleTableRecord
  2
OpenSansCondensed-Italic
 70
0
 40
0.0
 41
1.0
 50
0.0
 71
0
 42
2.5
  3
OpenSansCondensed-LightItalic.ttf
  4

  0
STYLE
  5
4E
330
5
100
AcDbSymbolTableRecord
100
AcDbTextStyleTableRecord
  2
LiberationSans
 70
0
 40
0.0
 41
1.0
 50
0.0
 71
0
 42
2.5
  3
LiberationSans-Regular.ttf
  4

  0
STYLE
  5
4F
330
5
100
AcDbSymbolTableRecord
100
AcDbTextStyleTableRecord
  2
LiberationSans-Bold
 70
0
 40
0.0
 41
1.0
 50
0.0
 71
0
 42
2.5
  3
LiberationSans-Bold.ttf
  4

  0
STYLE
  5
50
330
5
100
AcDbSymbolTableRecord
100
AcDbTextStyleTableRecord
  2
LiberationSans-BoldItalic
 70
0
 40
0.0
 41
1.0
 50
0.0
 71
0
 42
2.5
  3
LiberationSans-BoldItalic.ttf
  4

  0
STYLE
  5
51
330
5
100
AcDbSymbolTableRecord
100
AcDbTextStyleTableRecord
  2
LiberationSans-Italic
 70
0
 40
0.0
 41
1.0
 50
0.0
 71
0
 42
2.5
  3
LiberationSans-Italic.ttf
  4

  0
STYLE
  5
52
330
5
100
AcDbSymbolTableRecord
100
AcDbTextStyleTableRecord
  2
LiberationSerif
 70
0
 40
0.0
 41
1.0
 50
0.0
 71
0
 42
2.5
  3
LiberationSerif-Regular.ttf
  4

  0
STYLE
  5
53
330
5
100
AcDbSymbolTableRecord
100
AcDbTextStyleTableRecord
  2
LiberationSerif-Bold
 70
0
 40
0.0
 41
1.0
 50
0.0
 71
0
 42
2.5
  3
LiberationSerif-Bold.ttf
  4

  0
STYLE
  5
54
330
5
100
AcDbSymbolTableRecord
100
AcDbTextStyleTableRecord
  2
LiberationSerif-BoldItalic
 70
0
 40
0.0
 41
1.0
 50
0.0
 71
0
 42
2.5
  3
LiberationSerif-BoldItalic.ttf
  4

  0
STYLE
  5
55
330
5
100
AcDbSymbolTableRecord
100
AcDbTextStyleTableRecord
  2
LiberationSerif-Italic
 70
0
 40
0.0
 41
1.0
 50
0.0
 71
0
 42
2.5
  3
LiberationSerif-Italic.ttf
  4

  0
STYLE
  5
56
330
5
100
AcDbSymbolTableRecord
100
AcDbTextStyleTableRecord
  2
LiberationMono
 70
0
 40
0.0
 41
1.0
 50
0.0
 71
0
 42
2.5
  3
LiberationMono-Regular.ttf
  4

  0
STYLE
  5
57
330
5
100
AcDbSymbolTableRecord
100
AcDbTextStyleTableRecord
  2
LiberationMono-Bold
 70
0
 40
0.0
 41
1.0
 50
0.0
 71
0
 42
2.5
  3
LiberationMono-Bold.ttf
  4

  0
STYLE
  5
58
330
5
100
AcDbSymbolTableRecord
100
AcDbTextStyleTableRecord
  2
LiberationMono-BoldItalic
 70
0
 40
0.0
 41
1.0
 50
0.0
 71
0
 42
2.5
  3
LiberationMono-BoldItalic.ttf
  4

  0
STYLE
  5
59
330
5
100
AcDbSymbolTableRecord
100
AcDbTextStyleTableRecord
  2
LiberationMono-Italic
 70
0
 40
0.0
 41
1.0
 50
0.0
 71
0
 42
2.5
  3
LiberationMono-Italic.ttf
  4

  0
STYLE
  5
9B
330
5
100
AcDbSymbolTableRecord
100
AcDbTextStyleTableRecord
  2
PLAT
 70
0
 40
0.0
 41
1.0
 50
0.0
 71
0
 42
2.5
  3
arial.ttf
  4

  0
ENDTAB
  0
TABLE
  2
VIEW
  5
7
330
0
100
AcDbSymbolTable
 70
0
  0
ENDTAB
  0
TABLE
  2
UCS
  5
6
330
0
100
AcDbSymbolTable
 70
0
  0
ENDTAB
  0
TABLE
  2
APPID
  5
3
330
0
100
AcDbSymbolTable
 70
4
  0
APPID
  5
2A
330
3
100
AcDbSymbolTableRecord
100
AcDbRegAppTableRecord
  2
ACAD
 70
0
  0
APPID
  5
8A
330
3
100
AcDbSymbolTableRecord
100
AcDbRegAppTableRecord
  2
RASTER2DXF
 70
0
  0
APPID
  5
2CC
330
3
100
AcDbSymbolTableRecord
100
AcDbRegAppTableRecord
  2
HATCHBACKGROUNDCOLOR
 70
0
  0
APPID
  5
2CD
330
3
100
AcDbSymbolTableRecord
100
AcDbRegAppTableRecord
  2
EZDXF
 70
0
  0
ENDTAB
  0
TABLE
  2
DIMSTYLE
  5
4
330
0
100
AcDbSymbolTable
 70
12
100
AcDbDimStyleTable
  0
DIMSTYLE
105
2B
330
4
100
AcDbSymbolTableRecord
100
AcDbDimStyleTableRecord
  2
Standard
 70
0
 40
1.0
 41
2.5
 42
0.625
 43
3.75
 44
1.25
 45
0.0
 46
0.0
 47
0.0
 48
0.0
 49
2.5
140
2.5
141
2.5
142
0.0
143
0.03937007874
144
1.0
145
0.0
146
1.0
147
0.625
148
0.0
 69
0
 70
0
 71
0
 72
0
 73
0
 74
0
 75
0
 76
0
 77
1
 78
8
 79
3
170
0
171
3
172
1
173
0
174
0
175
0
176
0
177
0
178
0
179
2
271
2
272
2
273
2
274
3
275
0
276
0
277
2
278
44
279
0
280
0
281
0
282
0
283
0
284
8
285
0
286
0
288
0
289
3
290
0
371
-2
372
-2
  0
DIMSTYLE
105
73
330
4
100
AcDbSymbolTableRecord
100
AcDbDimStyleTableRecord
  2
EZDXF
 70
0
 40
1.0
 41
0.175
 42
0.125
 43
3.75
 44
0.375
 45
0.0
 46
0.0
 47
0.0
 48
0.0
 49
2.5
140
0.25
141
2.5
142
0.0
143
0.03937007874
144
100.0
145
0.0
146
0.5
147
0.1
148
0.0
 69
0
 70
0
 71
0
 72
0
 73
0
 74
0
 75
0
 76
0
 77
1
 78
12
 79
3
170
0
171
3
172
1
173
0
174
0
175
0
176
0
177
0
178
0
179
2
271
2
272
2
273
2
274
3
275
0
276
0
277
2
278
46
279
2
280
0
281
0
282
0
283
0
284
8
285
0
286
0
288
1
289
3
290
0
340
4C
342
74
371
-2
372
-2
  0
DIMSTYLE
105
7C
330
4
100
AcDbSymbolTableRecord
100
AcDbDimStyleTableRecord
  2
EZ_M_100_H25_CM
 70
0
 40
1.0
 41
0.25
 42
0.125
 43
3.75
 44
0.375
 45
0.0
 46
0.0
 47
0.0
 48
0.0
 49
2.5
140
0.25
141
2.5
142
0.125
143
0.03937007874
144
100.0
145
0.0
146
0.5
147
0.1
148
0.0
 69
0
 70
0
 71
0
 72
0
 73
0
 74
0
 75
0
 76
0
 77
1
 78
12
 79
3
170
0
171
3
172
1
173
0
174
0
175
0
176
0
177
0
178
0
179
2
271
2
272
2
273
2
274
3
275
0
276
0
277
2
278
46
279
2
280
0
281
0
282
0
283
0
284
8
285
0
286
0
288
1
289
3
290
0
340
4C
371
-2
372
-2
  0
DIMSTYLE
105
7D
330
4
100
AcDbSymbolTableRecord
100
AcDbDimStyleTableRecord
  2
EZ_M_50_H25_CM
 70
0
 40
1.0
 41
0.125
 42
0.0625
 43
3.75
 44
0.1875
 45
0.0
 46
0.0
 47
0.0
 48
0.0
 49
2.5
140
0.125
141
2.5
142
0.0625
143
0.03937007874
144
100.0
145
0.0
146
0.5
147
0.05
148
0.0
 69
0
 70
0
 71
0
 72
0
 73
0
 74
0
 75
0
 76
0
 77
1
 78
12
 79
3
170
0
171
3
172
1
173
0
174
0
175
0
176
0
177
0
178
0
179
2
271
2
272
2
273
2
274
3
275
0
276
0
277
2
278
46
279
2
280
0
281
0
282
0
283
0
284
8
285
0
286
0
288
1
289
3
290
0
340
4C
371
-2
372
-2
  0
DIMSTYLE
105
7E
330
4
100
AcDbSymbolTableRecord
100
AcDbDimStyleTableRecord
  2
EZ_M_25_H25_CM
 70
0
 40
1.0
 41
0.0625
 42
0.03125
 43
3.75
 44
0.09375
 45
0.0
 46
0.0
 47
0.0
 48
0.0
 49
2.5
140
0.0625
141
2.5
142
0.03125
143
0.03937007874
144
100.0
145
0.0
146
0.5
147
0.025
148
0.0
 69
0
 70
0
 71
0
 72
0
 73
0
 74
0
 75
0
 76
0
 77
1
 78
12
 79
3
170
0
171
3
172
1
173
0
174
0
175
0
176
0
177
0
178
0
179
2
271
2
272
2
273
2
274
3
275
0
276
0
277
2
278
46
279
2
280
0
281
0
282
0
283
0
284
8
285
0
286
0
288
1
289
3
290
0
340
4C
371
-2
372
-2
  0
DIMSTYLE
105
7F
330
4
100
AcDbSymbolTableRecord
100
AcDbDimStyleTableRecord
  2
EZ_M_20_H25_CM
 70
0
 40
1.0
 41
0.05
 42
0.025
 43
3.75
 44
0.07500000000000001
 45
0.0
 46
0.0
 47
0.0
 48
0.0
 49
2.5
140
0.05
141
2.5
142
0.025
143
0.03937007874
144
100.0
145
0.0
146
0.5
147
0.020000000000000004
148
0.0
 69
0
 70
0
 71
0
 72
0
 73
0
 74
0
 75
0
 76
0
 77
1
 78
12
 79
3
170
0
171
3
172
1
173
0
174
0
175
0
176
0
177
0
178
0
179
2
271
2
272
2
273
2
274
3
275
0
276
0
277
2
278
46
279
2
280
0
281
0
282
0
283
0
284
8
285
0
286
0
288
1
289
3
290
0
340
4C
371
-2
372
-2
  0
DIMSTYLE
105
80
330
4
100
AcDbSymbolTableRecord
100
AcDbDimStyleTableRecord
  2
EZ_M_10_H25_CM
 70
0
 40
1.0
 41
0.025
 42
0.0125
 43
3.75
 44
0.037500000000000006
 45
0.0
 46
0.0
 47
0.0
 48
0.0
 49
2.5
140
0.025
141
2.5
142
0.0125
143
0.03937007874
144
100.0
145
0.0
146
0.5
147
0.010000000000000002
148
0.0
 69
0
 70
0
 71
0
 72
0
 73
0
 74
0
 75
0
 76
0
 77
1
 78
12
 79
3
170
0
171
3
172
1
173
0
174
0
175
0
176
0
177
0
178
0
179
2
271
2
272
2
273
2
274
3
275
0
276
0
277
2
278
46
279
2
280
0
281
0
282
0
283
0
284
8
285
0
286
0
288
1
289
3
290
0
340
4C
371
-2
372
-2
  0
DIMSTYLE
105
81
330
4
100
AcDbSymbolTableRecord
100
AcDbDimStyleTableRecord
  2
EZ_M_5_H25_CM
 70
0
 40
1.0
 41
0.0125
 42
0.00625
 43
3.75
 44
0.018750000000000003
 45
0.0
 46
0.0
 47
0.0
 48
0.0
 49
2.5
140
0.0125
141
2.5
142
0.00625
143
0.03937007874
144
100.0
145
0.0
146
0.5
147
0.005000000000000001
148
0.0
 69
0
 70
0
 71
0
 72
0
 73
0
 74
0
 75
0
 76
0
 77
1
 78
12
 79
3
170
0
171
3
172
1
173
0
174
0
175
0
176
0
177
0
178
0
179
2
271
2
272
2
273
2
274
3
275
0
276
0
277
2
278
46
279
2
280
0
281
0
282
0
283
0
284
8
285
0
286
0
288
1
289
3
290
0
340
4C
371
-2
372
-2
  0
DIMSTYLE
105
82
330
4
100
AcDbSymbolTableRecord
100
AcDbDimStyleTableRecord
  2
EZ_M_1_H25_CM
 70
0
 40
1.0
 41
0.0025
 42
0.00125
 43
3.75
 44
0.00375
 45
0.0
 46
0.0
 47
0.0
 48
0.0
 49
2.5
140
0.0025
141
2.5
142
0.00125
143
0.03937007874
144
100.0
145
0.0
146
0.5
147
0.001
148
0.0
 69
0
 70
0
 71
0
 72
0
 73
0
 74
0
 75
0
 76
0
 77
1
 78
12
 79
3
170
0
171
3
172
1
173
0
174
0
175
0
176
0
177
0
178
0
179
2
271
2
272
2
273
2
274
3
275
0
276
0
277
2
278
46
279
2
280
0
281
0
282
0
283
0
284
8
285
0
286
0
288
1
289
3
290
0
340
4C
371
-2
372
-2
  0
DIMSTYLE
105
83
330
4
100
AcDbSymbolTableRecord
100
AcDbDimStyleTableRecord
  2
EZ_RADIUS
 70
0
 40
1.0
 41
0.25
 42
0.125
 43
3.75
 44
0.375
 45
0.0
 46
0.0
 47
0.0
 48
0.0
 49
2.5
140
0.25
141
0.0
142
0.0
143
0.03937007874
144
100.0
145
0.0
146
0.5
147
0.1
148
0.0
 69
0
 70
0
 71
0
 72
0
 73
0
 74
0
 75
0
 76
0
 77
1
 78
12
 79
3
170
0
171
3
172
0
173
0
174
0
175
0
176
0
177
0
178
0
179
2
271
2
272
2
273
2
274
3
275
0
276
0
277
2
278
46
279
1
280
0
281
0
282
0
283
0
284
8
285
0
286
0
288
1
289
3
290
0
340
4C
342
84
371
-2
372
-2
  0
DIMSTYLE
105
88
330
4
100
AcDbSymbolTableRecord
100
AcDbDimStyleTableRecord
  2
EZ_RADIUS_INSIDE
 70
0
 40
1.0
 41
0.25
 42
0.125
 43
3.75
 44
0.375
 45
0.0
 46
0.0
 47
0.0
 48
0.0
 49
2.5
140
0.25
141
0.0
142
0.0
143
0.03937007874
144
100.0
145
0.0
146
0.5
147
0.1
148
0.0
 69
0
 70
0
 71
0
 72
0
 73
0
 74
0
 75
0
 76
0
 77
0
 78
12
 79
3
170
0
171
3
172
0
173
0
174
1
175
0
176
0
177
0
178
0
179
2
271
2
272
2
273
2
274
3
275
0
276
0
277
2
278
46
279
0
280
0
281
0
282
0
283
0
284
8
285
0
286
0
288
1
289
0
290
0
340
4C
342
84
371
-2
372
-2
  0
DIMSTYLE
105
89
330
4
100
AcDbSymbolTableRecord
100
AcDbDimStyleTableRecord
  2
EZ_CURVED
 70
0
 40
1.0
 41
0.25
 42
0.125
 43
3.75
 44
0.375
 45
0.0
 46
0.0
 47
0.0
 48
0.0
 49
2.5
140
0.25
141
2.5
142
0.0
143
0.03937007874
144
100.0
145
0.0
146
0.5
147
0.1
148
0.0
 69
0
 70
0
 71
0
 72
0
 73
0
 74
0
 75
0
 76
0
 77
1
 78
12
 79
2
 90
2
170
0
171
3
172
1
173
0
174
0
175
0
176
0
177
0
178
0
179
2
271
2
272
2
273
2
274
3
275
0
276
0
277
2
278
46
279
2
280
0
281
0
282
0
283
0
284
8
285
0
286
0
288
1
289
3
290
0
340
4C
371
-2
372
-2
  0
ENDTAB
  0
TABLE
  2
BLOCK_RECORD
  5
9
330
0
100
AcDbSymbolTable
 70
5
  0
BLOCK_RECORD
  5
17
330
9
100
AcDbSymbolTableRecord
100
AcDbBlockTableRecord
  2
*Model_Space
340
1A
 70
0
280
1
281
0
  0
BLOCK_RECORD
  5
1B
330
9
100
AcDbSymbolTableRecord
100
AcDbBlockTableRecord
  2
*Paper_Space
340
1E
 70
0
280
1
281
0
  0
BLOCK_RECORD
  5
74
330
9
100
AcDbSymbolTableRecord
100
AcDbBlockTableRecord
  2
_ARCHTICK
340
0
 70
0
280
1
281
0
  0
BLOCK_RECORD
  5
78
330
9
100
AcDbSymbolTableRecord
100
AcDbBlockTableRecord
  2
_CLOSEDFILLED
340
0
 70
0
280
1
281
0
  0
BLOCK_RECORD
  5
84
330
9
100
AcDbSymbolTableRecord
100
AcDbBlockTableRecord
  2
_CLOSEDBLANK
340
0
 70
0
280
1
281
0
  0
ENDTAB
  0
ENDSEC
  0
SECTION
  2
BLOCKS
  0
BLOCK
  5
18
330
17
100
AcDbEntity
  8
0
100
AcDbBlockBegin
  2
*Model_Space
 70
0
 10
0.0
 20
0.0
 30
0.0
  3
*Model_Space
  1

  0
ENDBLK
  5
19
330
17
100
AcDbEntity
  8
0
100
AcDbBlockEnd
  0
BLOCK
  5
1C
330
1B
100
AcDbEntity
  8
0
100
AcDbBlockBegin
  2
*Paper_Space
 70
0
 10
0.0
 20
0.0
 30
0.0
  3
*Paper_Space
  1

  0
ENDBLK
  5
1D
330
1B
100
AcDbEntity
  8
0
100
AcDbBlockEnd
  0
BLOCK
  5
75
330
74
100
AcDbEntity
  8
0
100
AcDbBlockBegin
  2
_ARCHTICK
 70
0
 10
0.0
 20
0.0
 30
0.0
  3
_ARCHTICK
  1

  0
LWPOLYLINE
  5
77
330
74
100
AcDbEntity
  8
0
  6
BYBLOCK
 62
0
100
AcDbPolyline
 90
2
 70
0
 43
0.15
 10
-0.5
 20
-0.5
 10
0.5
 20
0.5
  0
ENDBLK
  5
76
330
74
100
AcDbEntity
  8
0
100
AcDbBlockEnd
  0
BLOCK
  5
79
330
78
100
AcDbEntity
  8
0
100
AcDbBlockBegin
  2
_CLOSEDFILLED
 70
0
 10
0.0
 20
0.0
 30
0.0
  3
_CLOSEDFILLED
  1

  0
SOLID
  5
7B
330
78
100
AcDbEntity
  8
0
  6
BYBLOCK
 62
0
100
AcDbTrace
 10
-1.0
 20
0.16439898372402537
 30
0.0
 11
0.0
 21
0.0
 31
0.0
 12
-1.0
 22
-0.16439898372402537
 32
0.0
 13
-1.0
 23
-0.16439898372402537
 33
0.0
  0
ENDBLK
  5
7A
330
78
100
AcDbEntity
  8
0
100
AcDbBlockEnd
  0
BLOCK
  5
85
330
84
100
AcDbEntity
  8
0
100
AcDbBlockBegin
  2
_CLOSEDBLANK
 70
0
 10
0.0
 20
0.0
 30
0.0
  3
_CLOSEDBLANK
  1

  0
LWPOLYLINE
  5
87
330
84
100
AcDbEntity
  8
0
  6
BYBLOCK
 62
0
100
AcDbPolyline
 90
3
 70
1
 10
-1.0
 20
0.16439898372402537
 10
0.0
 20
0.0
 10
-1.0
 20
-0.16439898372402537
  0
ENDBLK
  5
86
330
84
100
AcDbEntity
  8
0
100
AcDbBlockEnd
  0
ENDSEC
  0
SECTION
  2
ENTITIES
  0
LINE
  5
9C
330
17
100
AcDbEntity
  8
PLAT-LINE
100
AcDbLine
 10
-4.305200405773235
 20
367.7258414207123
 30
0.0
 11
-2.0329741864321704
 21
305.571876263132
 31
0.0
1001
RASTER2DXF
1000
line 0
1040
62.195
1040
0.94
1000
distance=== 90°
  0
LINE
  5
9D
330
17
100
AcDbEntity
  8
PLAT-LINE
100
AcDbLine
 10
-2.0329741864321704
 20
305.571876263132
 30
0.0
 11
0.552129761128981
 21
234.85952406959683
 31
0.0
1001
RASTER2DXF
1000
line 1
1040
70.76
1040
0.94
1000
distance=1618
  0
LINE
  5
9E
330
17
100
AcDbEntity
  8
PLAT-LINE
100
AcDbLine
 10
0.552129761128981
 20
234.85952406959683
 30
0.0
 11
3.2931922418857766
 21
159.88111722192033
 31
0.0
1001
RASTER2DXF
1000
line 2
1040
75.028
1040
0.94
  0
LINE
  5
9F
330
17
100
AcDbEntity
  8
PLAT-LINE
100
AcDbLine
 10
3.2931922418857766
 20
159.88111722192033
 30
0.0
 11
6.009841983749993
 21
85.57049094539353
 31
0.0
1001
RASTER2DXF
1000
line 3
1040
74.36
1040
0.94
  0
LINE
  5
A0
330
17
100
AcDbEntity
  8
PLAT-LINE
100
AcDbLine
 10
6.009841983749993
 20
85.57049094539353
 30
0.0
 11
6.917737128167914
 21
60.73613127972098
 31
0.0
1001
RASTER2DXF
1000
line 4
1040
24.851
1040
0.94
  0
LINE
  5
A1
330
17
100
AcDbEntity
  8
PLAT-LINE
100
AcDbLine
 10
99.52732474877382
 20
247.466633722507
 30
0.0
 11
96.6222757315685
 21
309.26753017044337
 31
0.0
1001
RASTER2DXF
1000
line 5
1040
61.869
1040
1.0
1000
distance=¢. 60.48%
  0
LINE
  5
A2
330
17
100
AcDbEntity
  8
PLAT-LINE
100
AcDbLine
 10
96.6222757315685
 20
309.26753017044337
 30
0.0
 11
93.6573982466092
 21
372.341194450662
 31
0.0
1001
RASTER2DXF
1000
line 6
1040
63.143
1040
1.0
1000
distance=196
  0
LINE
  5
A3
330
17
100
AcDbEntity
  8
PLAT-LINE
100
AcDbLine
 10
151.738966844973
 20
375.01831274808035
 30
0.0
 11
156.5075639188325
 21
335.2703722123996
 31
0.0
1001
RASTER2DXF
1000
line 7
1040
40.033
1040
1.0
1000
distance=100
  0
LINE
  5
A4
330
17
100
AcDbEntity
  8
PLAT-LINE
100
AcDbLine
 10
192.8231653477435
 20
323.4663205994714
 30
0.0
 11
248.55735988458275
 21
325.31843245070274
 31
0.0
1001
RASTER2DXF
1000
line 8
1040
55.765
1040
0.919
  0
LINE
  5
A5
330
17
100
AcDbEntity
  8
PLAT-LINE
100
AcDbLine
 10
248.55735988458275
 20
325.31843245070274
 30
0.0
 11
332.72577617421325
 21
328.1154464311663
 31
0.0
1001
RASTER2DXF
1000
line 9
1040
84.215
1040
0.919
1000
distance=89.76"
1000
bearing=N 87°35'30" E
  0
LINE
  5
A6
330
17
100
AcDbEntity
  8
PLAT-LINE
100
AcDbLine
 10
248.57899920103029
 20
324.6672569443589
 30
0.0
 11
246.19331003905887
 21
379.51226893136885
 31
0.0
1001
RASTER2DXF
1000
line 10
1040
54.897
1040
1.0
1000
distance=700°
  0
LINE
  5
A7
330
17
100
AcDbEntity
  8
PLAT-LINE
100
AcDbLine
 10
329.9701155581159
 20
383.43984768268274
 30
0.0
 11
332.6597373220376
 21
329.44128457488193
 31
0.0
1001
RASTER2DXF
1000
line 11
1040
54.066
1040
1.0
  0
LINE
  5
A8
330
17
100
AcDbEntity
  8
PLAT-LINE
100
AcDbLine
 10
332.6597373220376
 20
329.44128457488193
 30
0.0
 11
333.5422927283082
 21
311.7225389724719
 31
0.0
1001
RASTER2DXF
1000
line 12
1040
17.741
1040
1.0
  0
LINE
  5
A9
330
17
100
AcDbEntity
  8
PLAT-LINE
100
AcDbLine
 10
674.874903225512
 20
399.66919575208055
 30
0.0
 11
702.9127175822255
 21
330.42959552723335
 31
0.0
1001
RASTER2DXF
1000
line 13
1040
74.701
1040
0.991
1000
distance=6.36"
  0
LINE
  5
AA
330
17
100
AcDbEntity
  8
PLAT-LINE
100
AcDbLine
 10
842.3318297693512
 20
407.5327547515993
 30
0.0
 11
844.6337961150325
 21
342.35456304740035
 31
0.0
1001
RASTER2DXF
1000
line 14
1040
65.219
1040
1.0
  0
LINE
  5
AB
330
17
100
AcDbEntity
  8
PLAT-LINE
100
AcDbLine
 10
917.3505496906034
 20
411.06093119099575
 30
0.0
 11
920.3597257332856
 21
345.3760605698988
 31
0.0
1001
RASTER2DXF
1000
line 15
1040
65.754
1040
1.0
  0
LINE
  5
AC
330
17
100
AcDbEntity
  8
PLAT-LINE
100
AcDbLine
 10
995.4681471637332
 20
348.3729192471696
 30
0.0
 11
992.3556996572138
 21
414.5859314582623
 31
0.0
1001
RASTER2DXF
1000
line 16
1040
66.286
1040
1.0
  0
LINE
  5
AD
330
17
100
AcDbEntity
  8
PLAT-LINE
100
AcDbLine
 10
1067.413281371477
 20
418.114131962223
 30
0.0
 11
1070.5507538597747
 21
351.3687479053117
 31
0.0
1001
RASTER2DXF
1000
line 17
1040
66.819
1040
1.0
  0
LINE
  5
AE
330
17
100
AcDbEntity
  8
PLAT-LINE
100
AcDbLine
 10
1220.0515194049901
 20
357.3338934635591
 30
0.0
 11
1216.8642184131522
 21
425.13930995683506
 31
0.0
1001
RASTER2DXF
1000
line 18
1040
67.88
1040
1.0
  0
LINE
  5
AF
330
17
100
AcDbEntity
  8
PLAT-LINE
100
AcDbLine
 10
1292.767691848509
 20
428.7046350898725
 30
0.0
 11
1294.9918889200023
 21
360.32404679632384
 31
0.0
1001
RASTER2DXF
1000
line 19
1040
68.417
1040
1.0
  0
LINE
  5
B0
330
17
100
AcDbEntity
  8
PLAT-LINE
100
AcDbLine
 10
434.4011661682324
 20
387.70133297875987
 30
0.0
 11
421.687844495534
 21
322.68033714307137
 31
0.0
1001
RASTER2DXF
1000
line 20
1040
66.252
1040
1.0
  0
LINE
  5
B1
330
17
100
AcDbEntity
  8
PLAT-LINE
100
AcDbLine
 10
576.1098035446181
 20
394.47738911852116
 30
0.0
 11
641.9748616853899
 21
299.098468660218
 31
0.0
1001
RASTER2DXF
1000
line 21
1040
115.911
1040
1.0
1000
distance=166.73'
  0
LINE
  5
B2
330
17
100
AcDbEntity
  8
PLAT-LINE
100
AcDbLine
 10
770.949780460763
 20
339.41453878002653
 30
0.0
 11
768.4629157954907
 21
403.3937440820233
 31
0.0
1001
RASTER2DXF
1000
line 22
1040
64.028
1040
1.0
1000
distance=25.45;
1000
bearing=S 02°02'02" E
  0
LINE
  5
B3
330
17
100
AcDbEntity
  8
PLAT-LINE
100
AcDbLine
 10
1142.4957287431089
 20
420.97026842578515
 30
0.0
 11
1144.9242826959608
 21
354.3362840484907
 31
0.0
1001
RASTER2DXF
1000
line 23
1040
66.678
1040
1.0
  0
LINE
  5
B4
330
17
100
AcDbEntity
  8
PLAT-LINE
100
AcDbLine
 10
1145.8775575096374
 20
421.1365908360449
 30
0.0
 11
1148.3689819913038
 21
364.00561921014526
 31
0.0
1001
RASTER2DXF
1000
line 24
1040
57.185
1040
0.826
  0
LINE
  5
B5
330
17
100
AcDbEntity
  8
PLAT-LINE
100
AcDbLine
 10
536.5297284942568
 20
390.3222788941064
 30
0.0
 11
498.5379520167677
 21
299.3971920655871
 31
0.0
1001
RASTER2DXF
1000
line 25
1040
98.543
1040
0.985
1000
distance=141.37
  0
LINE
  5
B6
330
17
100
AcDbEntity
  8
PLAT-LINE
100
AcDbLine
 10
1139.7671324210169
 20
363.60049850437713
 30
0.0
 11
1137.61102273279
 21
412.7597137364501
 31
0.0
1001
RASTER2DXF
1000
line 26
1040
49.206
1040
0.892
  0
LINE
  5
B7
330
17
100
AcDbEntity
  8
PLAT-LINE
100
AcDbLine
 10
332.6597373220376
 20
329.44128457488193
 30
0.0
 11
408.8598472445478
 21
324.71908877668716
 31
0.0
1001
RASTER2DXF
1000
line 27
1040
76.346
1040
1.0
1000
bearing=S 86°07'22" E
1000
distance=85.28"
  0
LINE
  5
B8
330
17
100
AcDbEntity
  8
PLAT-LINE
100
AcDbLine
 10
-2.0329741864321704
 20
305.571876263132
 30
0.0
 11
96.6222757315685
 21
309.26753017044337
 31
0.0
1001
RASTER2DXF
1000
line 28
1040
98.724
1040
1.0
1000
bearing=N 87°35'00" E
  0
LINE
  5
B9
330
17
100
AcDbEntity
  8
PLAT-LINE
100
AcDbLine
 10
752.7586337730227
 20
339.86773568420836
 30
0.0
 11
702.5365949556809
 21
331.571129824737
 31
0.0
1001
RASTER2DXF
1000
line 29
1040
50.903
1040
1.0
1000
distance=59.50°
  0
LINE
  5
BA
330
17
100
AcDbEntity
  8
PLAT-LINE
100
AcDbLine
 10
752.9442329275267
 20
338.69610960342675
 30
0.0
 11
770.949780460763
 21
339.41453878002653
 31
0.0
1001
RASTER2DXF
1000
line 30
1040
18.02
1040
1.0
  0
LINE
  5
BB
330
17
100
AcDbEntity
  8
PLAT-LINE
100
AcDbLine
 10
770.949780460763
 20
339.41453878002653
 30
0.0
 11
844.6337961150325
 21
342.35456304740035
 31
0.0
1001
RASTER2DXF
1000
line 31
1040
73.743
1040
1.0
  0
LINE
  5
BC
330
17
100
AcDbEntity
  8
PLAT-LINE
100
AcDbLine
 10
844.6337961150325
 20
342.35456304740035
 30
0.0
 11
920.3597257332856
 21
345.3760605698988
 31
0.0
1001
RASTER2DXF
1000
line 32
1040
75.786
1040
1.0
1000
distance=75‘
  0
LINE
  5
BD
330
17
100
AcDbEntity
  8
PLAT-LINE
100
AcDbLine
 10
920.3597257332856
 20
345.3760605698988
 30
0.0
 11
995.4681471637332
 21
348.3729192471696
 31
0.0
1001
RASTER2DXF
1000
line 33
1040
75.168
1040
1.0
1000
distance=75°
  0
LINE
  5
BE
330
17
100
AcDbEntity
  8
PLAT-LINE
100
AcDbLine
 10
995.4681471637332
 20
348.3729192471696
 30
0.0
 11
1070.5507538597747
 21
351.3687479053117
 31
0.0
1001
RASTER2DXF
1000
line 34
1040
75.142
1040
1.0
1000
distance=75°
  0
LINE
  5
BF
330
17
100
AcDbEntity
  8
PLAT-LINE
100
AcDbLine
 10
1070.5507538597747
 20
351.3687479053117
 30
0.0
 11
1144.9242826959608
 21
354.3362840484907
 31
0.0
1001
RASTER2DXF
1000
line 35
1040
74.433
1040
1.0
1000
distance=75°
  0
LINE
  5
C0
330
17
100
AcDbEntity
  8
PLAT-LINE
100
AcDbLine
 10
1144.9242826959608
 20
354.3362840484907
 30
0.0
 11
1220.0515194049901
 21
357.3338934635591
 31
0.0
1001
RASTER2DXF
1000
line 36
1040
75.187
1040
1.0
  0
LINE
  5
C1
330
17
100
AcDbEntity
  8
PLAT-LINE
100
AcDbLine
 10
1220.0515194049901
 20
357.3338934635591
 30
0.0
 11
1294.9918889200026
 21
360.32404679632384
 31
0.0
1001
RASTER2DXF
1000
line 37
1040
75.0
1040
1.0
1000
distance=75'
  0
LINE
  5
C2
330
17
100
AcDbEntity
  8
PLAT-LINE
100
AcDbLine
 10
1294.9918889200026
 20
360.32404679632384
 30
0.0
 11
1321.7129957906154
 21
361.3902305805967
 31
0.0
1001
RASTER2DXF
1000
line 38
1040
26.742
1040
1.0
  0
LINE
  5
C3
330
17
100
AcDbEntity
  8
PLAT-LINE
100
AcDbLine
 10
421.687844495534
 20
322.68033714307137
 30
0.0
 11
498.61630494746737
 21
299.58471283159696
 31
0.0
1001
RASTER2DXF
1000
line 39
1040
80.321
1040
1.0
1000
distance=85.24"
  0
LINE
  5
C4
330
17
100
AcDbEntity
  8
PLAT-LINE
100
AcDbLine
 10
498.5379520167677
 20
299.3971920655871
 30
0.0
 11
559.8278929503226
 21
267.43429547625334
 31
0.0
1001
RASTER2DXF
1000
line 40
1040
69.124
1040
1.0
1000
distance=85.24"
  0
LINE
  5
C5
330
17
100
AcDbEntity
  8
PLAT-LINE
100
AcDbLine
 10
641.2286375078055
 20
299.7204217184738
 30
0.0
 11
606.0251865278983
 21
265.2803532468376
 31
0.0
1001
RASTER2DXF
1000
line 41
1040
49.248
1040
1.0
1000
distance=991
  0
LINE
  5
C6
330
17
100
AcDbEntity
  8
PLAT-LINE
100
AcDbLine
 10
335.6032962569195
 20
266.82783360737955
 30
0.0
 11
257.8486093507106
 21
264.13084789713366
 31
0.0
1001
RASTER2DXF
1000
line 42
1040
77.801
1040
0.955
1000
distance=‘9289 >.
  0
LINE
  5
C7
330
17
100
AcDbEntity
  8
PLAT-LINE
100
AcDbLine
 10
257.8486093507106
 20
264.13084789713366
 30
0.0
 11
175.33547784285503
 21
261.2688115950293
 31
0.0
1001
RASTER2DXF
1000
line 43
1040
82.563
1040
0.955
1000
distance=99.93"
  0
LINE
  5
C8
330
17
100
AcDbEntity
  8
PLAT-LINE
100
AcDbLine
 10
160.28577743006593
 20
224.0751284484071
 30
0.0
 11
162.19390679139957
 21
160.95961082267436
 31
0.0
1001
RASTER2DXF
1000
line 44
1040
63.144
1040
0.977
1000
distance=12.0)
  0
LINE
  5
C9
330
17
100
AcDbEntity
  8
PLAT-LINE
100
AcDbLine
 10
162.19390679139957
 20
160.95961082267436
 30
0.0
 11
164.71910551431563
 21
77.4331855527954
 31
0.0
1001
RASTER2DXF
1000
line 45
1040
83.565
1040
0.977
  0
LINE
  5
CA
330
17
100
AcDbEntity
  8
PLAT-LINE
100
AcDbLine
 10
334.91326484918505
 20
267.367169126171
 30
0.0
 11
339.7153597045898
 21
165.20924850783592
 31
0.0
1001
RASTER2DXF
1000
line 46
1040
102.271
1040
1.0
1000
bearing=N 02°24'30" W
  0
LINE
  5
CB
330
17
100
AcDbEntity
  8
PLAT-LINE
100
AcDbLine
 10
257.8252186503168
 20
264.8052068967877
 30
0.0
 11
262.5022845358389
 21
163.3569030249724
 31
0.0
1001
RASTER2DXF
1000
line 47
1040
101.556
1040
1.0
1000
bearing=N 02°24'30" W
1000
distance=103.17°
  0
LINE
  5
CC
330
17
100
AcDbEntity
  8
PLAT-LINE
100
AcDbLine
 10
755.7201622375394
 20
279.65470808605335
 30
0.0
 11
784.0649595434147
 21
280.9080071194106
 31
0.0
1001
RASTER2DXF
1000
line 48
1040
28.372
1040
1.0
1000
distance=15;
  0
LINE
  5
CD
330
17
100
AcDbEntity
  8
PLAT-LINE
100
AcDbLine
 10
784.0649595434147
 20
280.9080071194106
 30
0.0
 11
885.2319193535068
 21
285.381224957924
 31
0.0
1001
RASTER2DXF
1000
line 49
1040
101.266
1040
1.0
1000
distance=100°
  0
LINE
  5
CE
330
17
100
AcDbEntity
  8
PLAT-LINE
100
AcDbLine
 10
885.2319193535068
 20
285.381224957924
 30
0.0
 11
973.1680345418567
 21
289.26942521469243
 31
0.0
1001
RASTER2DXF
1000
line 50
1040
88.022
1040
1.0
1000
distance=88.50"
  0
LINE
  5
CF
330
17
100
AcDbEntity
  8
PLAT-LINE
100
AcDbLine
 10
973.1680345418567
 20
289.26942521469243
 30
0.0
 11
1059.9764697073845
 21
293.10776375372535
 31
0.0
1001
RASTER2DXF
1000
line 51
1040
86.893
1040
1.0
1000
distance=&8.48'
  0
LINE
  5
D0
330
17
100
AcDbEntity
  8
PLAT-LINE
100
AcDbLine
 10
1059.9764697073845
 20
293.10776375372535
 30
0.0
 11
1147.4357632017727
 21
296.97488077036064
 31
0.0
1001
RASTER2DXF
1000
line 52
1040
87.545
1040
1.0
1000
bearing=S 87°35'30" W
1000
distance=88.48'
  0
LINE
  5
D1
330
17
100
AcDbEntity
  8
PLAT-LINE
100
AcDbLine
 10
1147.4357632017727
 20
296.97488077036064
 30
0.0
 11
1222.0683412281955
 21
300.2748492579847
 31
0.0
1001
RASTER2DXF
1000
line 53
1040
74.705
1040
1.0
1000
distance=78°
  0
LINE
  5
D2
330
17
100
AcDbEntity
  8
PLAT-LINE
100
AcDbLine
 10
1222.0683412281955
 20
300.2748492579847
 30
0.0
 11
1297.7803409420699
 21
303.622545663465
 31
0.0
1001
RASTER2DXF
1000
line 54
1040
75.786
1040
1.0
1000
distance=75"
  0
LINE
  5
D3
330
17
100
AcDbEntity
  8
PLAT-LINE
100
AcDbLine
 10
1297.7803409420699
 20
303.622545663465
 30
0.0
 11
1323.707554538178
 21
304.7689483484796
 31
0.0
1001
RASTER2DXF
1000
line 55
1040
25.953
1040
1.0
  0
LINE
  5
D4
330
17
100
AcDbEntity
  8
PLAT-LINE
100
AcDbLine
 10
784.0956807510654
 20
280.2132117188935
 30
0.0
 11
787.0924820234234
 21
196.32101649759278
 31
0.0
1001
RASTER2DXF
1000
line 56
1040
83.946
1040
1.0
  0
LINE
  5
D5
330
17
100
AcDbEntity
  8
PLAT-LINE
100
AcDbLine
 10
885.2568812471067
 20
284.81668306039614
 30
0.0
 11
890.5959498029281
 21
182.25150311350302
 31
0.0
1001
RASTER2DXF
1000
line 57
1040
102.704
1040
0.994
1000
distance=100!
  0
LINE
  5
D6
330
17
100
AcDbEntity
  8
PLAT-LINE
100
AcDbLine
 10
890.5959498029281
 20
182.25150311350302
 30
0.0
 11
890.9134924443974
 21
176.15140946934022
 31
0.0
1001
RASTER2DXF
1000
line 58
1040
6.108
1040
0.994
  0
LINE
  5
D7
330
17
100
AcDbEntity
  8
PLAT-LINE
100
AcDbLine
 10
973.1879903375693
 20
288.8181019713979
 30
0.0
 11
976.8775057092112
 21
187.8377271676006
 31
0.0
1001
RASTER2DXF
1000
line 59
1040
101.048
1040
1.0
  0
LINE
  5
D8
330
17
100
AcDbEntity
  8
PLAT-LINE
100
AcDbLine
 10
1059.991483602685
 20
292.76820726501705
 30
0.0
 11
1064.5317463596584
 21
196.18040209260974
 31
0.0
1001
RASTER2DXF
1000
line 60
1040
96.694
1040
1.0
  0
LINE
  5
D9
330
17
100
AcDbEntity
  8
PLAT-LINE
100
AcDbLine
 10
1147.4457981440748
 20
296.74792902304233
 30
0.0
 11
1156.4456323067811
 21
93.29053651331843
 31
0.0
1001
RASTER2DXF
1000
line 61
1040
203.656
1040
1.0
  0
LINE
  5
DA
330
17
100
AcDbEntity
  8
PLAT-LINE
100
AcDbLine
 10
1150.9969024712968
 20
296.9095266209444
 30
0.0
 11
1154.8693487856767
 21
214.52859182163218
 31
0.0
1001
RASTER2DXF
1000
line 62
1040
82.472
1040
0.847
  0
LINE
  5
DB
330
17
100
AcDbEntity
  8
PLAT-LINE
100
AcDbLine
 10
1222.074127427073
 20
300.143987723749
 30
0.0
 11
1231.6348473241069
 21
96.7529066008887
 31
0.0
1001
RASTER2DXF
1000
line 63
1040
203.616
1040
1.0
  0
LINE
  5
DC
330
17
100
AcDbEntity
  8
PLAT-LINE
100
AcDbLine
 10
1297.781816947337
 20
303.5891641088548
 30
0.0
 11
1307.1100779849398
 21
100.22844735407142
 31
0.0
1001
RASTER2DXF
1000
line 64
1040
203.575
1040
0.99
  0
LINE
  5
DD
330
17
100
AcDbEntity
  8
PLAT-LINE
100
AcDbLine
 10
0.552129761128981
 20
234.85952406959683
 30
0.0
 11
99.32303860829154
 21
235.86137089088746
 31
0.0
1001
RASTER2DXF
1000
line 65
1040
98.776
1040
0.973
  0
LINE
  5
DE
330
17
100
AcDbEntity
  8
PLAT-LINE
100
AcDbLine
 10
438.05401461748465
 20
254.8302773007201
 30
0.0
 11
409.5417773581624
 21
153.22142040568934
 31
0.0
1001
RASTER2DXF
1000
line 66
1040
105.533
1040
1.0
  0
LINE
  5
DF
330
17
100
AcDbEntity
  8
PLAT-LINE
100
AcDbLine
 10
105.41841113259682
 20
-24.51961192790816
 30
0.0
 11
104.54483132815301
 21
12.797806678532112
 31
0.0
1001
RASTER2DXF
1000
line 67
1040
37.328
1040
1.0
  0
LINE
  5
E0
330
17
100
AcDbEntity
  8
PLAT-LINE
100
AcDbLine
 10
104.54483132815301
 20
12.797806678532112
 30
0.0
 11
102.80639333925808
 21
87.06007536071965
 31
0.0
1001
RASTER2DXF
1000
line 68
1040
74.283
1040
1.0
1000
distance=75°
  0
LINE
  5
E1
330
17
100
AcDbEntity
  8
PLAT-LINE
100
AcDbLine
 10
102.80639333925808
 20
87.06007536071965
 30
0.0
 11
101.04910913346976
 21
162.12741320933054
 31
0.0
1001
RASTER2DXF
1000
line 69
1040
75.088
1040
1.0
1000
distance=75
  0
LINE
  5
E2
330
17
100
AcDbEntity
  8
PLAT-LINE
100
AcDbLine
 10
101.04910913346976
 20
162.12741320933054
 30
0.0
 11
99.32303860829154
 21
235.86137089088746
 31
0.0
1001
RASTER2DXF
1000
line 70
1040
73.754
1040
1.0
1000
distance=75'
  0
LINE
  5
E3
330
17
100
AcDbEntity
  8
PLAT-LINE
100
AcDbLine
 10
672.5404071746822
 20
186.85165670405104
 30
0.0
 11
741.0110319890221
 21
138.940385359152
 31
0.0
1001
RASTER2DXF
1000
line 71
1040
83.569
1040
0.948
1000
distance=115°
  0
LINE
  5
E4
330
17
100
AcDbEntity
  8
PLAT-LINE
100
AcDbLine
 10
741.0110319890221
 20
138.940385359152
 30
0.0
 11
826.1518671417236
 21
79.36438957127535
 31
0.0
1001
RASTER2DXF
1000
line 72
1040
103.915
1040
0.948
  0
LINE
  5
E5
330
17
100
AcDbEntity
  8
PLAT-LINE
100
AcDbLine
 10
826.1518671417236
 20
79.36438957127535
 30
0.0
 11
915.9570981303243
 21
16.52455421482827
 31
0.0
1001
RASTER2DXF
1000
line 73
1040
109.608
1040
0.948
1000
distance=125°
  0
LINE
  5
E6
330
17
100
AcDbEntity
  8
PLAT-LINE
100
AcDbLine
 10
537.8550247206847
 20
207.36567708523904
 30
0.0
 11
591.8022862989804
 21
169.60817745169015
 31
0.0
1001
RASTER2DXF
1000
line 74
1040
65.848
1040
0.984
1000
distance=61.10°
  0
LINE
  5
E7
330
17
100
AcDbEntity
  8
PLAT-LINE
100
AcDbLine
 10
591.8022862989804
 20
169.60817745169015
 30
0.0
 11
652.6143104574023
 21
127.04605450603245
 31
0.0
1001
RASTER2DXF
1000
line 75
1040
74.227
1040
0.984
1000
distance=73°
  0
LINE
  5
E8
330
17
100
AcDbEntity
  8
PLAT-LINE
100
AcDbLine
 10
652.6143104574023
 20
127.04605450603245
 30
0.0
 11
712.788258615781
 21
84.93051872037066
 31
0.0
1001
RASTER2DXF
1000
line 76
1040
73.448
1040
0.984
  0
LINE
  5
E9
330
17
100
AcDbEntity
  8
PLAT-LINE
100
AcDbLine
 10
712.788258615781
 20
84.93051872037066
 30
0.0
 11
776.0312102961404
 21
40.66699810718674
 31
0.0
1001
RASTER2DXF
1000
line 77
1040
77.194
1040
0.984
1000
distance=75"
  0
LINE
  5
EA
330
17
100
AcDbEntity
  8
PLAT-LINE
100
AcDbLine
 10
776.0312102961404
 20
40.66699810718674
 30
0.0
 11
823.8806012686847
 21
7.1773767760041665
 31
0.0
1001
RASTER2DXF
1000
line 78
1040
58.405
1040
0.984
1000
distance=75°
  0
LINE
  5
EB
330
17
100
AcDbEntity
  8
PLAT-LINE
100
AcDbLine
 10
3.2931922418857766
 20
159.88111722192033
 30
0.0
 11
101.04910913346976
 21
162.1274132093305
 31
0.0
1001
RASTER2DXF
1000
line 79
1040
97.782
1040
0.967
  0
LINE
  5
EC
330
17
100
AcDbEntity
  8
PLAT-LINE
100
AcDbLine
 10
787.0924820234234
 20
196.32101649759278
 30
0.0
 11
881.9848332956542
 21
183.17396515882288
 31
0.0
1001
RASTER2DXF
1000
line 80
1040
95.799
1040
1.0
  0
LINE
  5
ED
330
17
100
AcDbEntity
  8
PLAT-LINE
100
AcDbLine
 10
881.9848332956542
 20
183.17396515882288
 30
0.0
 11
889.1763327868758
 21
182.1776044221963
 31
0.0
1001
RASTER2DXF
1000
line 81
1040
7.26
1040
1.0
  0
LINE
  5
EE
330
17
100
AcDbEntity
  8
PLAT-LINE
100
AcDbLine
 10
160.7343882903212
 20
160.91548617298312
 30
0.0
 11
262.346495887989
 21
163.35316564762417
 31
0.0
1001
RASTER2DXF
1000
line 82
1040
101.641
1040
1.0
1000
bearing=N 88°58'20" E
  0
LINE
  5
EF
330
17
100
AcDbEntity
  8
PLAT-LINE
100
AcDbLine
 10
262.346495887989
 20
163.35316564762417
 30
0.0
 11
341.1432624193766
 21
165.243503964414
 31
0.0
1001
RASTER2DXF
1000
line 83
1040
78.819
1040
1.0
  0
LINE
  5
F0
330
17
100
AcDbEntity
  8
PLAT-LINE
100
AcDbLine
 10
341.1432624193766
 20
165.243503964414
 30
0.0
 11
363.70461317362964
 21
159.55725429809598
 31
0.0
1001
RASTER2DXF
1000
line 84
1040
23.267
1040
0.966
  0
LINE
  5
F1
330
17
100
AcDbEntity
  8
PLAT-LINE
100
AcDbLine
 10
363.70461317362964
 20
159.55725429809598
 30
0.0
 11
448.1760590653579
 21
138.26749482193992
 31
0.0
1001
RASTER2DXF
1000
line 85
1040
87.113
1040
0.966
1000
distance=~-66. 85"
  0
LINE
  5
F2
330
17
100
AcDbEntity
  8
PLAT-LINE
100
AcDbLine
 10
448.1760590653579
 20
138.26749482193992
 30
0.0
 11
473.6199708628757
 21
131.85473893048754
 31
0.0
1001
RASTER2DXF
1000
line 86
1040
26.24
1040
0.966
1000
distance=30"
  0
LINE
  5
F3
330
17
100
AcDbEntity
  8
PLAT-LINE
100
AcDbLine
 10
198.60751740459705
 20
61.215486593046194
 30
0.0
 11
260.2617187557117
 21
59.178024383678036
 31
0.0
1001
RASTER2DXF
1000
line 87
1040
61.688
1040
0.964
1000
distance=.08
  0
LINE
  5
F4
330
17
100
AcDbEntity
  8
PLAT-LINE
100
AcDbLine
 10
1064.5317463596584
 20
196.18040209260974
 30
0.0
 11
1090.4645776216792
 21
196.776888383978
 31
0.0
1001
RASTER2DXF
1000
line 88
1040
25.94
1040
0.925
  0
LINE
  5
F5
330
17
100
AcDbEntity
  8
PLAT-LINE
100
AcDbLine
 10
882.0657685900203
 20
183.75813724314895
 30
0.0
 11
889.0953103622346
 21
184.0606066278348
 31
0.0
1001
RASTER2DXF
1000
line 89
1040
7.036
1040
0.984
  0
LINE
  5
F6
330
17
100
AcDbEntity
  8
PLAT-LINE
100
AcDbLine
 10
889.0953103622346
 20
184.0606066278348
 30
0.0
 11
927.7862878461763
 21
185.72541445339175
 31
0.0
1001
RASTER2DXF
1000
line 90
1040
38.727
1040
0.984
  0
LINE
  5
F7
330
17
100
AcDbEntity
  8
PLAT-LINE
100
AcDbLine
 10
927.7862878461763
 20
185.72541445339175
 30
0.0
 11
976.8775057092112
 21
187.8377271676006
 31
0.0
1001
RASTER2DXF
1000
line 91
1040
49.137
1040
0.984
  0
LINE
  5
F8
330
17
100
AcDbEntity
  8
PLAT-LINE
100
AcDbLine
 10
976.8775057092112
 20
187.8377271676006
 30
0.0
 11
1002.4059638481342
 21
188.93617387657096
 31
0.0
1001
RASTER2DXF
1000
line 92
1040
25.552
1040
0.984
1000
distance=~/0°
  0
LINE
  5
F9
330
17
100
AcDbEntity
  8
PLAT-LINE
100
AcDbLine
 10
1002.4059638481342
 20
188.93617387657096
 30
0.0
 11
1076.6819214883983
 21
192.13214367551353
 31
0.0
1001
RASTER2DXF
1000
line 93
1040
74.345
1040
0.984
1000
distance=--75°—
  0
LINE
  5
FA
330
17
100
AcDbEntity
  8
PLAT-LINE
100
AcDbLine
 10
1076.6819214883983
 20
192.13214367551353
 30
0.0
 11
1155.8090075238201
 21
195.5368493875871
 31
0.0
1001
RASTER2DXF
1000
line 94
1040
79.2
1040
0.984
1000
distance=75'—
  0
LINE
  5
FB
330
17
100
AcDbEntity
  8
PLAT-LINE
100
AcDbLine
 10
1155.8090075238201
 20
195.5368493875871
 30
0.0
 11
1329.1605359832151
 21
202.9958747190415
 31
0.0
1001
RASTER2DXF
1000
line 95
1040
173.512
1040
0.984
1000
distance=15.
  0
LINE
  5
FC
330
17
100
AcDbEntity
  8
PLAT-LINE
100
AcDbLine
 10
262.346495887989
 20
163.35316564762417
 30
0.0
 11
260.2884096767421
 21
60.511754702262124
 31
0.0
1001
RASTER2DXF
1000
line 96
1040
102.862
1040
0.951
1000
distance=& 100.44:
  0
LINE
  5
FD
330
17
100
AcDbEntity
  8
PLAT-LINE
100
AcDbLine
 10
363.70461317362964
 20
159.55725429809598
 30
0.0
 11
342.03512225334606
 21
52.06930133521931
 31
0.0
1001
RASTER2DXF
1000
line 97
1040
109.65
1040
0.987
1000
distance=®. $0607
  0
LINE
  5
FE
330
17
100
AcDbEntity
  8
PLAT-LINE
100
AcDbLine
 10
1076.6819214883983
 20
192.13214367551353
 30
0.0
 11
1080.827526738084
 21
89.44939962066647
 31
0.0
1001
RASTER2DXF
1000
line 98
1040
102.766
1040
1.0
1000
bearing=N 02°28'30" W
1000
distance=100°
  0
LINE
  5
FF
330
17
100
AcDbEntity
  8
PLAT-LINE
100
AcDbLine
 10
591.8022862989804
 20
169.60817745169015
 30
0.0
 11
535.354563928102
 21
88.39846922391699
 31
0.0
1001
RASTER2DXF
1000
line 99
1040
98.901
1040
0.906
1000
distance=100°
  0
LINE
  5
100
330
17
100
AcDbEntity
  8
PLAT-LINE
100
AcDbLine
 10
397.4163398241318
 20
156.41106978937904
 30
0.0
 11
409.5417773581624
 21
153.2214204056893
 31
0.0
1001
RASTER2DXF
1000
line 100
1040
12.538
1040
0.925
  0
LINE
  5
101
330
17
100
AcDbEntity
  8
PLAT-LINE
100
AcDbLine
 10
409.5417773581624
 20
153.2214204056893
 30
0.0
 11
424.4672240756445
 21
149.29521635819825
 31
0.0
1001
RASTER2DXF
1000
line 101
1040
15.433
1040
0.925
  0
LINE
  5
102
330
17
100
AcDbEntity
  8
PLAT-LINE
100
AcDbLine
 10
927.7862878461763
 20
185.72541445339175
 30
0.0
 11
943.8225411062076
 21
27.016397695358364
 31
0.0
1001
RASTER2DXF
1000
line 102
1040
159.517
1040
1.0
1000
distance=167.98"
  0
LINE
  5
103
330
17
100
AcDbEntity
  8
PLAT-LINE
100
AcDbLine
 10
1010.4739485751036
 20
99.23347963829268
 30
0.0
 11
1002.4059638481342
 21
188.93617387657096
 31
0.0
1001
RASTER2DXF
1000
line 103
1040
90.065
1040
0.889
1000
distance=116.28!
  0
LINE
  5
104
330
17
100
AcDbEntity
  8
PLAT-LINE
100
AcDbLine
 10
1068.3132329699224
 20
186.55191081505524
 30
0.0
 11
1097.5577674739995
 21
187.71396481770367
 31
0.0
1001
RASTER2DXF
1000
line 104
1040
29.268
1040
0.909
  0
LINE
  5
105
330
17
100
AcDbEntity
  8
PLAT-LINE
100
AcDbLine
 10
889.1763327868758
 20
182.1776044221963
 30
0.0
 11
825.3037359534346
 21
78.15231419200529
 31
0.0
1001
RASTER2DXF
1000
line 105
1040
122.07
1040
0.867
  0
LINE
  5
106
330
17
100
AcDbEntity
  8
PLAT-LINE
100
AcDbLine
 10
448.1760590653579
 20
138.26749482193992
 30
0.0
 11
412.11503850747073
 21
33.19284811804994
 31
0.0
1001
RASTER2DXF
1000
line 106
1040
111.09
1040
0.965
1000
distance=112.43"
  0
LINE
  5
107
330
17
100
AcDbEntity
  8
PLAT-LINE
100
AcDbLine
 10
473.6199708628757
 20
131.85473893048754
 30
0.0
 11
535.354563928102
 21
88.39846922391695
 31
0.0
1001
RASTER2DXF
1000
line 107
1040
75.496
1040
0.995
1000
distance=7523
  0
LINE
  5
108
330
17
100
AcDbEntity
  8
PLAT-LINE
100
AcDbLine
 10
535.354563928102
 20
88.39846922391695
 30
0.0
 11
640.3086359337788
 21
14.519105427631132
 31
0.0
1001
RASTER2DXF
1000
line 108
1040
128.349
1040
0.995
1000
distance=15
  0
LINE
  5
109
330
17
100
AcDbEntity
  8
PLAT-LINE
100
AcDbLine
 10
652.6143104574023
 20
127.04605450603245
 30
0.0
 11
579.5960510978996
 21
21.631374876017247
 31
0.0
1001
RASTER2DXF
1000
line 109
1040
128.234
1040
0.952
1000
distance=“00!
  0
LINE
  5
10A
330
17
100
AcDbEntity
  8
PLAT-LINE
100
AcDbLine
 10
1150.7305196731538
 20
118.47409294193827
 30
0.0
 11
1148.3263476483312
 21
169.61952472953362
 31
0.0
1001
RASTER2DXF
1000
line 110
1040
51.202
1040
0.87
1000
distance=£10"
  0
LINE
  5
10B
330
17
100
AcDbEntity
  8
PLAT-LINE
100
AcDbLine
 10
6.009841983749993
 20
85.57049094539357
 30
0.0
 11
102.80639333925808
 21
87.06007536071961
 31
0.0
1001
RASTER2DXF
1000
line 111
1040
96.808
1040
0.993
  0
LINE
  5
10C
330
17
100
AcDbEntity
  8
PLAT-LINE
100
AcDbLine
 10
1160.5508617926578
 20
93.47957723905593
 30
0.0
 11
1155.8090075238201
 21
195.53684938758713
 31
0.0
1001
RASTER2DXF
1000
line 112
1040
102.167
1040
0.811
  0
LINE
  5
10D
330
17
100
AcDbEntity
  8
PLAT-LINE
100
AcDbLine
 10
712.788258615781
 20
84.93051872037066
 30
0.0
 11
665.8652430408212
 21
18.741955496723534
 31
0.0
1001
RASTER2DXF
1000
line 113
1040
81.134
1040
1.0
  0
LINE
  5
10E
330
17
100
AcDbEntity
  8
PLAT-LINE
100
AcDbLine
 10
260.2884096767421
 20
60.511754702262124
 30
0.0
 11
342.1154403715257
 21
52.4677061773412
 31
0.0
1001
RASTER2DXF
1000
line 114
1040
82.221
1040
1.0
1000
bearing=N 84°31'40" W
1000
distance=76.78"
  0
LINE
  5
10F
330
17
100
AcDbEntity
  8
PLAT-LINE
100
AcDbLine
 10
342.03512225334606
 20
52.06930133521931
 30
0.0
 11
412.0962508714051
 21
33.138104680635934
 31
0.0
1001
RASTER2DXF
1000
line 115
1040
72.574
1040
0.991
1000
distance=76.78°
  0
LINE
  5
110
330
17
100
AcDbEntity
  8
PLAT-LINE
100
AcDbLine
 10
507.5522311561356
 20
65.95065645848265
 30
0.0
 11
475.85425065139486
 21
5.14212073954107
 31
0.0
1001
RASTER2DXF
1000
line 116
1040
68.574
1040
0.978
1000
distance=& 104.80"
  0
LINE
  5
111
330
17
100
AcDbEntity
  8
PLAT-LINE
100
AcDbLine
 10
1081.5819051286398
 20
89.84315473701052
 30
0.0
 11
1156.4456323067811
 21
93.29053651331837
 31
0.0
1001
RASTER2DXF
1000
line 117
1040
74.943
1040
1.0
1000
distance=75"
  0
LINE
  5
112
330
17
100
AcDbEntity
  8
PLAT-LINE
100
AcDbLine
 10
1156.4456323067811
 20
93.29053651331837
 30
0.0
 11
1231.6348473241069
 21
96.7529066008887
 31
0.0
1001
RASTER2DXF
1000
line 118
1040
75.269
1040
1.0
1000
distance=75°
  0
LINE
  5
113
330
17
100
AcDbEntity
  8
PLAT-LINE
100
AcDbLine
 10
1231.6348473241069
 20
96.7529066008887
 30
0.0
 11
1307.1100779849398
 21
100.22844735407148
 31
0.0
1001
RASTER2DXF
1000
line 119
1040
75.555
1040
1.0
1000
distance=75'
  0
LINE
  5
114
330
17
100
AcDbEntity
  8
PLAT-LINE
100
AcDbLine
 10
1307.1100779849398
 20
100.22844735407148
 30
0.0
 11
1333.2666821248565
 21
101.43292653031497
 31
0.0
1001
RASTER2DXF
1000
line 120
1040
26.184
1040
1.0
  0
LINE
  5
115
330
17
100
AcDbEntity
  8
PLAT-LINE
100
AcDbLine
 10
412.11503850747073
 20
33.19284811804994
 30
0.0
 11
475.85425065139486
 21
5.14212073954107
 31
0.0
1001
RASTER2DXF
1000
line 121
1040
69.639
1040
1.0
1000
distance=76.78'
  0
LINE
  5
116
330
17
100
AcDbEntity
  8
PLAT-LINE
100
AcDbLine
 10
9.47372766315857
 20
10.42553375121338
 30
0.0
 11
104.54483132815301
 21
12.797806678532112
 31
0.0
1001
RASTER2DXF
1000
line 122
1040
95.101
1040
1.0
  0
LINE
  5
117
330
17
100
AcDbEntity
  8
PLAT-LINE
100
AcDbLine
 10
776.0312102961404
 20
40.6669981071868
 30
0.0
 11
750.8953107900328
 21
4.3270425753923405
 31
0.0
1001
RASTER2DXF
1000
line 123
1040
44.186
1040
1.0
  0
LINE
  5
118
330
17
100
AcDbEntity
  8
PLAT-LINE
100
AcDbLine
 10
244.92497362349224
 20
1.1159724851810893
 30
0.0
 11
181.90555049095303
 21
-1.3759365431863273
 31
0.0
1001
RASTER2DXF
1000
line 124
1040
63.069
1040
1.0
  0
LINE
  5
119
330
17
100
AcDbEntity
  8
PLAT-LINE
100
AcDbLine
 10
261.04776424201157
 20
1.2120582866826055
 30
0.0
 11
330.57712885639125
 21
-5.690737909092604
 31
0.0
1001
RASTER2DXF
1000
line 125
1040
69.871
1040
1.0
1000
distance=89.76:
  0
LINE
  5
11A
330
17
100
AcDbEntity
  8
PLAT-LINE
100
AcDbLine
 10
330.45788458822744
 20
-6.75606028257414
 30
0.0
 11
364.7103000290057
 21
-13.944146569252922
 31
0.0
1001
RASTER2DXF
1000
line 126
1040
34.999
1040
0.963
1000
distance=20°,
  0
LINE
  5
11B
330
17
100
AcDbEntity
  8
PLAT-LINE
100
AcDbLine
 10
1336.0242584924686
 20
42.757055262024835
 30
0.0
 11
1083.6292124095785
 21
29.804945858692008
 31
0.0
1001
RASTER2DXF
1000
line 127
1040
252.727
1040
1.0
1000
distance=108.
  0
LINE
  5
11C
330
17
100
AcDbEntity
  8
PLAT-LINE
100
AcDbLine
 10
527.3431806024935
 20
214.64077519245444
 30
0.0
 11
502.59571462487855
 21
176.14515455602884
 31
0.0
1001
RASTER2DXF
1000
line 128
1040
45.764
1040
1.0
  0
LINE
  5
11D
330
17
100
AcDbEntity
  8
PLAT-LINE
100
AcDbLine
 10
324.6381992816323
 20
160.2339439452063
 30
0.0
 11
292.09401755890565
 21
158.65153717705698
 31
0.0
1001
RASTER2DXF
1000
line 129
1040
32.583
1040
0.837
  0
LINE
  5
11E
330
17
100
AcDbEntity
  8
PLAT-LINE
100
AcDbLine
 10
761.2235415916155
 20
165.9398900259375
 30
0.0
 11
740.1725892085747
 21
137.74215581030447
 31
0.0
1001
RASTER2DXF
1000
line 130
1040
35.189
1040
1.0
1000
distance=79;
  0
LINE
  5
11F
330
17
100
AcDbEntity
  8
PLAT-LINE
100
AcDbLine
 10
610.329091607002
 20
41.63106362604677
 30
0.0
 11
645.1585878088075
 21
17.165963543184574
 31
0.0
1001
RASTER2DXF
1000
line 131
1040
42.563
1040
0.888
  0
ARC
  5
120
330
17
100
AcDbEntity
  8
PLAT-CURVE
100
AcDbCircle
 10
182.2775691628578
 20
352.787575222966
 30
0.0
 40
31.15999954413484
100
AcDbArc
 50
-145.7940300392462
 51
-70.21852029613974
1001
RASTER2DXF
1000
arc 0
1040
31.16
1040
41.101
  0
ARC
  5
121
330
17
100
AcDbEntity
  8
PLAT-CURVE
100
AcDbCircle
 10
763.7106064427862
 20
137.25352778040823
 30
0.0
 40
202.51759538377658
100
AcDbArc
 50
107.47024083054794
 51
126.94957609936561
1001
RASTER2DXF
1000
arc 1
1040
202.518
1040
68.852
1000
distance="68.75"
  0
ARC
  5
122
330
17
100
AcDbEntity
  8
PLAT-CURVE
100
AcDbCircle
 10
1217.3534949185619
 20
328.22861892606784
 30
0.0
 40
12.410946518630873
100
AcDbArc
 50
68.21282293546484
 51
-179.1670806109295
1001
RASTER2DXF
1000
arc 2
1040
12.411
1040
24.395
  0
ARC
  5
123
330
17
100
AcDbEntity
  8
PLAT-CURVE
100
AcDbCircle
 10
1206.1125048779593
 20
343.7696616165806
 30
0.0
 40
16.410350811175743
100
AcDbArc
 50
-92.2097816779394
 51
-17.733187286997737
1001
RASTER2DXF
1000
arc 3
1040
16.41
1040
21.331
  0
ARC
  5
124
330
17
100
AcDbEntity
  8
PLAT-CURVE
100
AcDbCircle
 10
589.6039355211603
 20
277.93605292373695
 30
0.0
 40
6.080999583060907
100
AcDbArc
 50
-105.50019609513164
 51
88.85473535871847
1001
RASTER2DXF
1000
arc 4
1040
6.081
1040
20.628
  0
ARC
  5
125
330
17
100
AcDbEntity
  8
PLAT-CURVE
100
AcDbCircle
 10
186.9663917658682
 20
234.92096267487472
 30
0.0
 40
28.80082119322007
100
AcDbArc
 50
113.81843486732225
 51
-157.87795474809613
1001
RASTER2DXF
1000
arc 5
1040
28.801
1040
44.388
  0
ARC
  5
126
330
17
100
AcDbEntity
  8
PLAT-CURVE
100
AcDbCircle
 10
351.1904440794929
 20
-40.63384361745443
 30
0.0
 40
307.8565284985049
100
AcDbArc
 50
73.73393202183301
 51
92.90219538440034
1001
RASTER2DXF
1000
arc 6
1040
307.857
1040
102.993
1000
distance=99.37°
  0
ARC
  5
127
330
17
100
AcDbEntity
  8
PLAT-CURVE
100
AcDbCircle
 10
760.3715368292245
 20
143.91916493598575
 30
0.0
 40
135.81521623086286
100
AcDbArc
 50
91.96263913310223
 51
140.50613321452755
1001
RASTER2DXF
1000
arc 7
1040
135.815
1040
115.069
1000
distance=96
  0
ARC
  5
128
330
17
100
AcDbEntity
  8
PLAT-CURVE
100
AcDbCircle
 10
350.77760715469543
 20
-58.3538278324437
 30
0.0
 40
325.11760181151595
100
AcDbArc
 50
57.10629681559727
 51
74.42820483545063
1001
RASTER2DXF
1000
arc 8
1040
325.118
1040
98.291
1000
distance=29.36"
1000
CURVE_DATA R=359.30 D=37.7100 consistent=False
  0
ARC
  5
129
330
17
100
AcDbEntity
  8
PLAT-CURVE
100
AcDbCircle
 10
586.3191517886044
 20
274.5566766345142
 30
0.0
 40
20.8108550121073
100
AcDbArc
 50
-108.1592232817818
 51
-52.15287993682458
1001
RASTER2DXF
1000
arc 9
1040
20.811
1040
20.343
  0
ARC
  5
12A
330
17
100
AcDbEntity
  8
PLAT-CURVE
100
AcDbCircle
 10
681.3289426939846
 20
217.95395763254746
 30
0.0
 40
32.32014046412529
100
AcDbArc
 50
-170.51845657878064
 51
-105.77862910895075
1001
RASTER2DXF
1000
arc 10
1040
32.32
1040
36.519
  0
ARC
  5
12B
330
17
100
AcDbEntity
  8
PLAT-CURVE
100
AcDbCircle
 10
793.5418823933294
 20
179.68235566535847
 30
0.0
 40
11.022839873740729
100
AcDbArc
 50
53.583252041491576
 51
170.51508151302164
1001
RASTER2DXF
1000
arc 11
1040
11.023
1040
22.496
  0
ARC
  5
12C
330
17
100
AcDbEntity
  8
PLAT-CURVE
100
AcDbCircle
 10
190.4427453142938
 20
87.66979132983674
 30
0.0
 40
27.685623388205926
100
AcDbArc
 50
-158.30014186914232
 51
-72.84784873620558
1001
RASTER2DXF
1000
arc 12
1040
27.686
1040
41.291
  0
ARC
  5
12D
330
17
100
AcDbEntity
  8
PLAT-CURVE
100
AcDbCircle
 10
130.06503604920988
 20
107.6963140979979
 30
0.0
 40
11.069359210344645
100
AcDbArc
 50
144.80533917766388
 51
-105.89351089128417
1001
RASTER2DXF
1000
arc 13
1040
11.069
1040
21.117
  0
ARC
  5
12E
330
17
100
AcDbEntity
  8
PLAT-CURVE
100
AcDbCircle
 10
1073.9679374864988
 20
-86.86438889061327
 30
0.0
 40
176.447176185681
100
AcDbArc
 50
87.77199845614405
 51
110.06887709864371
1001
RASTER2DXF
1000
arc 14
1040
176.447
1040
68.665
1000
distance=15.2%
  0
ARC
  5
12F
330
17
100
AcDbEntity
  8
PLAT-CURVE
100
AcDbCircle
 10
922.126428824657
 20
41.87208123134701
 30
0.0
 40
26.087502123990014
100
AcDbArc
 50
-103.67923735292307
 51
-36.43986339237997
1001
RASTER2DXF
1000
arc 15
1040
26.088
1040
30.615
  0
ARC
  5
130
330
17
100
AcDbEntity
  8
PLAT-CURVE
100
AcDbCircle
 10
1064.0672677205268
 20
-62.123143339926514
 30
0.0
 40
149.68183608752793
100
AcDbArc
 50
110.24437329298189
 51
143.4498062310724
1001
RASTER2DXF
1000
arc 16
1040
149.682
1040
86.747
1000
distance="32.45.
  0
ARC
  5
131
330
17
100
AcDbEntity
  8
PLAT-CURVE
100
AcDbCircle
 10
953.9935212435669
 20
43.78173830663863
 30
0.0
 40
31.852580955563592
100
AcDbArc
 50
-177.6851564069948
 51
-135.21691288450918
1001
RASTER2DXF
1000
arc 17
1040
31.853
1040
23.609
  0
ARC
  5
132
330
17
100
AcDbEntity
  8
PLAT-CURVE
100
AcDbCircle
 10
189.6956574655839
 20
-24.76272500175625
 30
0.0
 40
24.65010428136347
100
AcDbArc
 50
108.42284472408194
 51
174.57701529311402
1001
RASTER2DXF
1000
arc 18
1040
24.65
1040
28.461
  0
ARC
  5
133
330
17
100
AcDbEntity
  8
PLAT-CURVE
100
AcDbCircle
 10
656.5771797759811
 20
3.9576560483326944
 30
0.0
 40
17.45977174511054
100
AcDbArc
 50
57.86138793610443
 51
130.8434397009619
1001
RASTER2DXF
1000
arc 19
1040
17.46
1040
22.24
  0
ARC
  5
134
330
17
100
AcDbEntity
  8
PLAT-CURVE
100
AcDbCircle
 10
1073.9390627988803
 20
-86.38318042410094
 30
0.0
 40
116.59150778930669
100
AcDbArc
 50
85.23253563047398
 51
117.95375784901283
1001
RASTER2DXF
1000
arc 20
1040
116.592
1040
66.585
  0
ARC
  5
135
330
17
100
AcDbEntity
  8
PLAT-CURVE
100
AcDbCircle
 10
35.297855585755656
 20
197.23448056000177
 30
0.0
 40
18.244028834711102
100
AcDbArc
 50
96.72282289402472
 51
96.72282289402472
1001
RASTER2DXF
1000
arc 21
1040
18.244
1040
114.631
  0
ARC
  5
136
330
17
100
AcDbEntity
  8
PLAT-CURVE
100
AcDbCircle
 10
1087.989464855946
 20
225.76886736214453
 30
0.0
 40
18.131435475813255
100
AcDbArc
 50
99.61700717504537
 51
99.61700717504537
1001
RASTER2DXF
1000
arc 22
1040
18.131
1040
113.923
  0
ARC
  5
137
330
17
100
AcDbEntity
  8
PLAT-CURVE
100
AcDbCircle
 10
131.19780184489423
 20
131.96222934114468
 30
0.0
 40
10.494129655853568
100
AcDbArc
 50
150.73838610571272
 51
-84.97466692634639
1001
RASTER2DXF
1000
arc 23
1040
10.494
1040
22.764
  0
CIRCLE
  5
138
330
17
100
AcDbEntity
  8
PLAT-MON
100
AcDbCircle
 10
249.2731507904852
 20
324.84649819288506
 30
0.0
 40
4.919405649327345
  0
POINT
  5
139
330
17
100
AcDbEntity
  8
PLAT-MON
100
AcDbPoint
 10
249.2731507904852
 20
324.84649819288506
 30
0.0
  0
TEXT
  5
13A
330
17
100
AcDbEntity
  8
PLAT-TEXT-DIST
100
AcDbText
 10
251.1170974170831
 20
365.7770780097483
 30
0.0
 40
8.644473220556838
  1
700'
 50
92.49072433052565
  7
PLAT
 72
1
 11
251.1170974170831
 21
365.7770780097483
 31
0.0
100
AcDbText
 73
3
  0
TEXT
  5
13B
330
17
100
AcDbEntity
  8
PLAT-TEXT-DIST
100
AcDbText
 10
533.9711709948324
 20
372.98790275525124
 30
0.0
 40
8.644473220556838
  1
141.37'
 50
67.32307080450221
  7
PLAT
 72
1
 11
533.9711709948324
 21
372.98790275525124
 31
0.0
100
AcDbText
 73
3
  0
TEXT
  5
13C
330
17
100
AcDbEntity
  8
PLAT-TEXT-BRG
100
AcDbText
 10
773.9409395530718
 20
373.7429470834606
 30
0.0
 40
8.644473220556838
  1
S 02%%d02'02" E
 50
92.2259600478982
  7
PLAT
 72
1
 11
773.9409395530718
 21
373.7429470834606
 31
0.0
100
AcDbText
 73
3
  0
TEXT
  5
13D
330
17
100
AcDbEntity
  8
PLAT-TEXT-DIST
100
AcDbText
 10
765.3092820589735
 20
373.24529730337247
 30
0.0
 40
8.644473220556838
  1
25.45'
 50
92.2259600478982
  7
PLAT
 72
1
 11
765.3092820589735
 21
373.24529730337247
 31
0.0
100
AcDbText
 73
1
  0
TEXT
  5
13E
330
17
100
AcDbEntity
  8
PLAT-TEXT-DIST
100
AcDbText
 10
157.76086475910543
 20
361.1093806675394
 30
0.0
 40
8.644473220556838
  1
100'
 50
276.84113101108386
  7
PLAT
 72
1
 11
157.76086475910543
 21
361.1093806675394
 31
0.0
100
AcDbText
 73
1
  0
TEXT
  5
13F
330
17
100
AcDbEntity
  8
PLAT-TEXT-DIST
100
AcDbText
 10
677.2679365588981
 20
382.2438673616398
 30
0.0
 40
8.644473220556838
  1
6.36'
 50
292.0449447660369
  7
PLAT
 72
1
 11
677.2679365588981
 21
382.2438673616398
 31
0.0
100
AcDbText
 73
3
  0
TEXT
  5
140
330
17
100
AcDbEntity
  8
PLAT-TEXT-DIST
100
AcDbText
 10
1.2512746717644108
 20
334.043739708339
 30
0.0
 40
8.644473220556838
  1
90'
 50
92.09368814818424
  7
PLAT
 72
1
 11
1.2512746717644108
 21
334.043739708339
 31
0.0
100
AcDbText
 73
3
  0
TEXT
  5
141
330
17
100
AcDbEntity
  8
PLAT-TEXT-DIST
100
AcDbText
 10
90.27661938444204
 20
352.2114533645043
 30
0.0
 40
8.644473220556838
  1
196'
 50
92.69129777967697
  7
PLAT
 72
1
 11
90.27661938444204
 21
352.2114533645043
 31
0.0
100
AcDbText
 73
1
  0
TEXT
  5
142
330
17
100
AcDbEntity
  8
PLAT-TEXT-DIST
100
AcDbText
 10
597.4100296783492
 20
356.0262418320531
 30
0.0
 40
8.644473220556838
  1
166.73'
 50
304.62748424504895
  7
PLAT
 72
1
 11
597.4100296783492
 21
356.0262418320531
 31
0.0
100
AcDbText
 73
3
  0
TEXT
  5
143
330
17
100
AcDbEntity
  8
PLAT-TEXT-DIST
100
AcDbText
 10
384.0418956380732
 20
330.5876098824187
 30
0.0
 40
8.644473220556838
  1
85.28'
 50
356.45385905744496
  7
PLAT
 72
1
 11
384.0418956380732
 21
330.5876098824187
 31
0.0
100
AcDbText
 73
1
  0
TEXT
  5
144
330
17
100
AcDbEntity
  8
PLAT-TEXT-BRG
100
AcDbText
 10
378.574971877204
 20
343.05187954948406
 30
0.0
 40
8.644473220556838
  1
S 86%%d07'22" E
 50
356.45385905744496
  7
PLAT
 72
1
 11
378.574971877204
 21
343.05187954948406
 31
0.0
100
AcDbText
 73
1
  0
TEXT
  5
145
330
17
100
AcDbEntity
  8
PLAT-TEXT-DIST
100
AcDbText
 10
296.25037416164537
 20
331.2279490624777
 30
0.0
 40
8.644473220556838
  1
89.76'
 50
1.9033047225058426
  7
PLAT
 72
1
 11
296.25037416164537
 21
331.2279490624777
 31
0.0
100
AcDbText
 73
1
  0
TEXT
  5
146
330
17
100
AcDbEntity
  8
PLAT-TEXT-BRG
100
AcDbText
 10
259.1994798164364
 20
321.34745992859075
 30
0.0
 40
8.644473220556838
  1
N 87%%d35'30" E
 50
1.9033047225058426
  7
PLAT
 72
1
 11
259.1994798164364
 21
321.34745992859075
 31
0.0
100
AcDbText
 73
3
  0
TEXT
  5
147
330
17
100
AcDbEntity
  8
PLAT-TEXT-DIST
100
AcDbText
 10
733.519687080081
 20
341.070308126782
 30
0.0
 40
8.644473220556838
  1
59.50'
 50
9.380456948186179
  7
PLAT
 72
1
 11
733.519687080081
 21
341.070308126782
 31
0.0
100
AcDbText
 73
1
  0
TEXT
  5
148
330
17
100
AcDbEntity
  8
PLAT-TEXT-DIST
100
AcDbText
 10
880.9284927930795
 20
348.12841306715177
 30
0.0
 40
8.644473220556838
  1
75'
 50
2.2849144709980687
  7
PLAT
 72
1
 11
880.9284927930795
 21
348.12841306715177
 31
0.0
100
AcDbText
 73
1
  0
TEXT
  5
149
330
17
100
AcDbEntity
  8
PLAT-TEXT-DIST
100
AcDbText
 10
958.6767615460478
 20
351.23060280057445
 30
0.0
 40
8.644473220556838
  1
75'
 50
2.2849144709979687
  7
PLAT
 72
1
 11
958.6767615460478
 21
351.23060280057445
 31
0.0
100
AcDbText
 73
1
  0
TEXT
  5
14A
330
17
100
AcDbEntity
  8
PLAT-TEXT-DIST
100
AcDbText
 10
1032.09455508878
 20
354.16000468992667
 30
0.0
 40
8.644473220556838
  1
75'
 50
2.284914470998053
  7
PLAT
 72
1
 11
1032.09455508878
 21
354.16000468992667
 31
0.0
100
AcDbText
 73
1
  0
TEXT
  5
14B
330
17
100
AcDbEntity
  8
PLAT-TEXT-DIST
100
AcDbText
 10
1107.175740979001
 20
357.1557766572986
 30
0.0
 40
8.644473220556838
  1
75'
 50
2.2849144709979887
  7
PLAT
 72
1
 11
1107.175740979001
 21
357.1557766572986
 31
0.0
100
AcDbText
 73
1
  0
TEXT
  5
14C
330
17
100
AcDbEntity
  8
PLAT-TEXT-DIST
100
AcDbText
 10
1254.685167663609
 20
363.0414669290397
 30
0.0
 40
8.644473220556838
  1
75'
 50
2.2849144709980553
  7
PLAT
 72
1
 11
1254.685167663609
 21
363.0414669290397
 31
0.0
100
AcDbText
 73
1
  0
TEXT
  5
14D
330
17
100
AcDbEntity
  8
PLAT-TEXT-DIST
100
AcDbText
 10
669.2125673899758
 20
321.2449248214702
 30
0.0
 40
8.644473220556838
  1
68.75'
 50
27.28040783126778
  7
PLAT
 72
1
 11
669.2125673899758
 21
321.2449248214702
 31
0.0
100
AcDbText
 73
1
  0
TEXT
  5
14E
330
17
100
AcDbEntity
  8
PLAT-TEXT-BRG
100
AcDbText
 10
47.64569460811957
 20
303.1075852331782
 30
0.0
 40
8.644473220556838
  1
N 87%%d35'00" E
 50
2.1453131930712646
  7
PLAT
 72
1
 11
47.64569460811957
 21
303.1075852331782
 31
0.0
100
AcDbText
 73
3
  0
TEXT
  5
14F
330
17
100
AcDbEntity
  8
PLAT-TEXT-DIST
100
AcDbText
 10
467.5200737640303
 20
313.4333122531366
 30
0.0
 40
8.644473220556838
  1
85.24'
 50
343.28908155838616
  7
PLAT
 72
1
 11
467.5200737640303
 21
313.4333122531366
 31
0.0
100
AcDbText
 73
1
  0
TEXT
  5
150
330
17
100
AcDbEntity
  8
PLAT-TEXT-DIST
100
AcDbText
 10
94.13266152815125
 20
270.1794945882961
 30
0.0
 40
8.644473220556838
  1
60.48'
 50
92.69129777967699
  7
PLAT
 72
1
 11
94.13266152815125
 21
270.1794945882961
 31
0.0
100
AcDbText
 73
1
  0
TEXT
  5
151
330
17
100
AcDbEntity
  8
PLAT-TEXT-DIST
100
AcDbText
 10
3.552179833056986
 20
271.10529722027394
 30
0.0
 40
8.644473220556838
  1
1618'
 50
92.09368814818436
  7
PLAT
 72
1
 11
3.552179833056986
 21
271.10529722027394
 31
0.0
100
AcDbText
 73
3
  0
TEXT
  5
152
330
17
100
AcDbEntity
  8
PLAT-TEXT-DIST
100
AcDbText
 10
1106.3566641121254
 20
290.83205970079996
 30
0.0
 40
8.644473220556838
  1
88.48'
 50
2.531752195668608
  7
PLAT
 72
1
 11
1106.3566641121254
 21
290.83205970079996
 31
0.0
100
AcDbText
 73
3
  0
TEXT
  5
153
330
17
100
AcDbEntity
  8
PLAT-TEXT-BRG
100
AcDbText
 10
1090.9400103286628
 20
298.80331333591334
 30
0.0
 40
8.644473220556838
  1
S 87%%d35'30" W
 50
2.531752195668608
  7
PLAT
 72
1
 11
1090.9400103286628
 21
298.80331333591334
 31
0.0
100
AcDbText
 73
1
  0
TEXT
  5
154
330
17
100
AcDbEntity
  8
PLAT-TEXT-DIST
100
AcDbText
 10
541.7554513932655
 20
281.73381155728816
 30
0.0
 40
8.644473220556838
  1
85.24'
 50
332.45781764358856
  7
PLAT
 72
1
 11
541.7554513932655
 21
281.73381155728816
 31
0.0
100
AcDbText
 73
1
  0
TEXT
  5
155
330
17
100
AcDbEntity
  8
PLAT-TEXT-DIST
100
AcDbText
 10
619.1521504856374
 20
284.1693143404368
 30
0.0
 40
8.644473220556838
  1
991'
 50
44.37198974691182
  7
PLAT
 72
1
 11
619.1521504856374
 21
284.1693143404368
 31
0.0
100
AcDbText
 73
1
  0
TEXT
  5
156
330
17
100
AcDbEntity
  8
PLAT-TEXT-DIST
100
AcDbText
 10
698.2571378568841
 20
269.53881544746986
 30
0.0
 40
8.644473220556838
  1
96'
 50
26.545971043106192
  7
PLAT
 72
1
 11
698.2571378568841
 21
269.53881544746986
 31
0.0
100
AcDbText
 73
1
  0
TEXT
  5
157
330
17
100
AcDbEntity
  8
PLAT-TEXT-DIST
100
AcDbText
 10
206.21078948275775
 20
258.0149114650117
 30
0.0
 40
8.644473220556838
  1
99.93'
 50
1.9865551398359003
  7
PLAT
 72
1
 11
206.21078948275775
 21
258.0149114650117
 31
0.0
100
AcDbText
 73
3
  0
TEXT
  5
158
330
17
100
AcDbEntity
  8
PLAT-TEXT-DIST
100
AcDbText
 10
291.9775240896862
 20
260.98980168517755
 30
0.0
 40
8.644473220556838
  1
9289.00'
 50
1.9865551398358434
  7
PLAT
 72
1
 11
291.9775240896862
 21
260.98980168517755
 31
0.0
100
AcDbText
 73
3
  0
TEXT
  5
159
330
17
100
AcDbEntity
  8
PLAT-TEXT-DIST
100
AcDbText
 10
391.1036222392995
 20
260.2648241836456
 30
0.0
 40
8.644473220556838
  1
99.37'
 50
352.34681499818817
  7
PLAT
 72
1
 11
391.1036222392995
 21
260.2648241836456
 31
0.0
100
AcDbText
 73
3
  0
TEXT
  5
15A
330
17
100
AcDbEntity
  8
PLAT-TEXT-DIST
100
AcDbText
 10
772.8628590000255
 20
276.0862331892444
 30
0.0
 40
8.644473220556838
  1
15'
 50
2.5317521956685813
  7
PLAT
 72
1
 11
772.8628590000255
 21
276.0862331892444
 31
0.0
100
AcDbText
 73
3
  0
TEXT
  5
15B
330
17
100
AcDbEntity
  8
PLAT-TEXT-DIST
100
AcDbText
 10
831.3303030506372
 20
278.67144099019475
 30
0.0
 40
8.644473220556838
  1
100'
 50
2.5317521956686737
  7
PLAT
 72
1
 11
831.3303030506372
 21
278.67144099019475
 31
0.0
100
AcDbText
 73
3
  0
TEXT
  5
15C
330
17
100
AcDbEntity
  8
PLAT-TEXT-BRG
100
AcDbText
 10
255.98421337917205
 20
210.88626195993493
 30
0.0
 40
8.644473220556838
  1
N 02%%d24'30" W
 50
92.6396352409576
  7
PLAT
 72
1
 11
255.98421337917205
 21
210.88626195993493
 31
0.0
100
AcDbText
 73
1
  0
TEXT
  5
15D
330
17
100
AcDbEntity
  8
PLAT-TEXT-DIST
100
AcDbText
 10
264.29751986224454
 20
218.26862492407898
 30
0.0
 40
8.644473220556838
  1
103.17'
 50
92.6396352409576
  7
PLAT
 72
1
 11
264.29751986224454
 21
218.26862492407898
 31
0.0
100
AcDbText
 73
3
  0
TEXT
  5
15E
330
17
100
AcDbEntity
  8
PLAT-TEXT-BRG
100
AcDbText
 10
333.180222244748
 20
212.18412008053213
 30
0.0
 40
8.644473220556838
  1
N 02%%d24'30" W
 50
92.69129777967703
  7
PLAT
 72
1
 11
333.180222244748
 21
212.18412008053213
 31
0.0
100
AcDbText
 73
1
  0
TEXT
  5
15F
330
17
100
AcDbEntity
  8
PLAT-TEXT-DIST
100
AcDbText
 10
931.9739171609431
 20
283.1215184741458
 30
0.0
 40
8.644473220556838
  1
88.50'
 50
2.531752195668573
  7
PLAT
 72
1
 11
931.9739171609431
 21
283.1215184741458
 31
0.0
100
AcDbText
 73
3
  0
TEXT
  5
160
330
17
100
AcDbEntity
  8
PLAT-TEXT-DIST
100
AcDbText
 10
1018.9973637571483
 20
286.9693640001336
 30
0.0
 40
8.644473220556838
  1
8.48'
 50
2.531752195668666
  7
PLAT
 72
1
 11
1018.9973637571483
 21
286.9693640001336
 31
0.0
100
AcDbText
 73
3
  0
TEXT
  5
161
330
17
100
AcDbEntity
  8
PLAT-TEXT-DIST
100
AcDbText
 10
1182.7428555811484
 20
294.209566299167
 30
0.0
 40
8.644473220556838
  1
78'
 50
2.5317521956686653
  7
PLAT
 72
1
 11
1182.7428555811484
 21
294.209566299167
 31
0.0
100
AcDbText
 73
3
  0
TEXT
  5
162
330
17
100
AcDbEntity
  8
PLAT-TEXT-DIST
100
AcDbText
 10
1255.817680242533
 20
297.44065686307397
 30
0.0
 40
8.644473220556838
  1
75'
 50
2.531752195668606
  7
PLAT
 72
1
 11
1255.817680242533
 21
297.44065686307397
 31
0.0
100
AcDbText
 73
3
  0
TEXT
  5
163
330
17
100
AcDbEntity
  8
PLAT-TEXT-DIST
100
AcDbText
 10
164.84922772709555
 20
216.1617832593556
 30
0.0
 40
8.644473220556838
  1
12.00'
 50
91.73165765299478
  7
PLAT
 72
1
 11
164.84922772709555
 21
216.1617832593556
 31
0.0
100
AcDbText
 73
3
  0
TEXT
  5
164
330
17
100
AcDbEntity
  8
PLAT-TEXT-DIST
100
AcDbText
 10
488.5727646654187
 20
231.33939630673447
 30
0.0
 40
8.644473220556838
  1
29.36'
 50
334.47371134131294
  7
PLAT
 72
1
 11
488.5727646654187
 21
231.33939630673447
 31
0.0
100
AcDbText
 73
3
  0
TEXT
  5
165
330
17
100
AcDbEntity
  8
PLAT-TEXT-DIST
100
AcDbText
 10
892.2237319851567
 20
234.12523868878324
 30
0.0
 40
8.644473220556838
  1
100'
 50
92.9798634628014
  7
PLAT
 72
1
 11
892.2237319851567
 21
234.12523868878324
 31
0.0
100
AcDbText
 73
3
  0
TEXT
  5
166
330
17
100
AcDbEntity
  8
PLAT-TEXT-DIST
100
AcDbText
 10
95.91086810215725
 20
196.93475372544566
 30
0.0
 40
8.644473220556838
  1
75'
 50
91.34101708517673
  7
PLAT
 72
1
 11
95.91086810215725
 21
196.93475372544566
 31
0.0
100
AcDbText
 73
1
  0
TEXT
  5
167
330
17
100
AcDbEntity
  8
PLAT-TEXT-BRG
100
AcDbText
 10
209.42714748043508
 20
166.4071080718882
 30
0.0
 40
8.644473220556838
  1
N 88%%d58'20" E
 50
1.3742649777234626
  7
PLAT
 72
1
 11
209.42714748043508
 21
166.4071080718882
 31
0.0
100
AcDbText
 73
1
  0
TEXT
  5
168
330
17
100
AcDbEntity
  8
PLAT-TEXT-DIST
100
AcDbText
 10
560.6149993163806
 20
186.16034486245889
 30
0.0
 40
8.644473220556838
  1
61.10'
 50
325.0119598865715
  7
PLAT
 72
1
 11
560.6149993163806
 21
186.16034486245889
 31
0.0
100
AcDbText
 73
3
  0
TEXT
  5
169
330
17
100
AcDbEntity
  8
PLAT-TEXT-DIST
100
AcDbText
 10
998.2644938670845
 20
193.08420930722139
 30
0.0
 40
8.644473220556838
  1
10'
 50
2.4638214458819383
  7
PLAT
 72
1
 11
998.2644938670845
 21
193.08420930722139
 31
0.0
100
AcDbText
 73
1
  0
TEXT
  5
16A
330
17
100
AcDbEntity
  8
PLAT-TEXT-DIST
100
AcDbText
 10
373.2080794599103
 20
161.61944928322106
 30
0.0
 40
8.644473220556838
  1
66.85'
 50
345.85407180268993
  7
PLAT
 72
1
 11
373.2080794599103
 21
161.61944928322106
 31
0.0
100
AcDbText
 73
1
  0
TEXT
  5
16B
330
17
100
AcDbEntity
  8
PLAT-TEXT-DIST
100
AcDbText
 10
694.0052857153636
 20
177.10724122816012
 30
0.0
 40
8.644473220556838
  1
115'
 50
325.01818322967944
  7
PLAT
 72
1
 11
694.0052857153636
 21
177.10724122816012
 31
0.0
100
AcDbText
 73
1
  0
TEXT
  5
16C
330
17
100
AcDbEntity
  8
PLAT-TEXT-DIST
100
AcDbText
 10
1202.3975770539992
 20
201.86771327751225
 30
0.0
 40
8.644473220556838
  1
15.00'
 50
2.4638214458818934
  7
PLAT
 72
1
 11
1202.3975770539992
 21
201.86771327751225
 31
0.0
100
AcDbText
 73
1
  0
TEXT
  5
16D
330
17
100
AcDbEntity
  8
PLAT-TEXT-DIST
100
AcDbText
 10
1034.3933199810208
 20
185.9863001929166
 30
0.0
 40
8.644473220556838
  1
75'
 50
2.4638214458818766
  7
PLAT
 72
1
 11
1034.3933199810208
 21
185.9863001929166
 31
0.0
100
AcDbText
 73
3
  0
TEXT
  5
16E
330
17
100
AcDbEntity
  8
PLAT-TEXT-DIST
100
AcDbText
 10
1119.0953355880065
 20
189.6308857679768
 30
0.0
 40
8.644473220556838
  1
75'
 50
2.4638214458819028
  7
PLAT
 72
1
 11
1119.0953355880065
 21
189.6308857679768
 31
0.0
100
AcDbText
 73
3
  0
TEXT
  5
16F
330
17
100
AcDbEntity
  8
PLAT-TEXT-DIST
100
AcDbText
 10
265.62017317049066
 20
110.914001053362
 30
0.0
 40
8.644473220556838
  1
100.44'
 50
88.85353658008546
  7
PLAT
 72
1
 11
265.62017317049066
 21
110.914001053362
 31
0.0
100
AcDbText
 73
3
  0
TEXT
  5
170
330
17
100
AcDbEntity
  8
PLAT-TEXT-DIST
100
AcDbText
 10
97.62387094520986
 20
123.75901884346852
 30
0.0
 40
8.644473220556838
  1
75'
 50
91.34101708517655
  7
PLAT
 72
1
 11
97.62387094520986
 21
123.75901884346852
 31
0.0
100
AcDbText
 73
1
  0
TEXT
  5
171
330
17
100
AcDbEntity
  8
PLAT-TEXT-DIST
100
AcDbText
 10
758.1352424856917
 20
154.57805009264604
 30
0.0
 40
8.644473220556838
  1
79'
 50
53.256907313345835
  7
PLAT
 72
1
 11
758.1352424856917
 21
154.57805009264604
 31
0.0
100
AcDbText
 73
3
  0
TEXT
  5
172
330
17
100
AcDbEntity
  8
PLAT-TEXT-DIST
100
AcDbText
 10
359.93448615781494
 20
118.98507196494836
 30
0.0
 40
8.644473220556838
  1
607.00'
 50
78.60198853770441
  7
PLAT
 72
1
 11
359.93448615781494
 21
118.98507196494836
 31
0.0
100
AcDbText
 73
3
  0
TEXT
  5
173
330
17
100
AcDbEntity
  8
PLAT-TEXT-DIST
100
AcDbText
 10
1074.1589748332408
 20
147.47820810668023
 30
0.0
 40
8.644473220556838
  1
100'
 50
92.31194402660446
  7
PLAT
 72
1
 11
1074.1589748332408
 21
147.47820810668023
 31
0.0
100
AcDbText
 73
1
  0
TEXT
  5
174
330
17
100
AcDbEntity
  8
PLAT-TEXT-BRG
100
AcDbText
 10
1083.2878592829195
 20
135.65422782813798
 30
0.0
 40
8.644473220556838
  1
N 02%%d28'30" W
 50
92.31194402660446
  7
PLAT
 72
1
 11
1083.2878592829195
 21
135.65422782813798
 31
0.0
100
AcDbText
 73
3
  0
TEXT
  5
175
330
17
100
AcDbEntity
  8
PLAT-TEXT-DIST
100
AcDbText
 10
617.8413307121939
 20
146.1078357360999
 30
0.0
 40
8.644473220556838
  1
73'
 50
325.0119598865715
  7
PLAT
 72
1
 11
617.8413307121939
 21
146.1078357360999
 31
0.0
100
AcDbText
 73
3
  0
TEXT
  5
176
330
17
100
AcDbEntity
  8
PLAT-TEXT-DIST
100
AcDbText
 10
1010.6062491225199
 20
146.01264616623774
 30
0.0
 40
8.644473220556838
  1
116.28'
 50
275.1394332397867
  7
PLAT
 72
1
 11
1010.6062491225199
 21
146.01264616623774
 31
0.0
100
AcDbText
 73
1
  0
TEXT
  5
177
330
17
100
AcDbEntity
  8
PLAT-TEXT-DIST
100
AcDbText
 10
459.3481792393458
 20
130.9943287433191
 30
0.0
 40
8.644473220556838
  1
30'
 50
345.85407180269
  7
PLAT
 72
1
 11
459.3481792393458
 21
130.9943287433191
 31
0.0
100
AcDbText
 73
3
  0
TEXT
  5
178
330
17
100
AcDbEntity
  8
PLAT-TEXT-DIST
100
AcDbText
 10
566.0837397713022
 20
125.03475486501628
 30
0.0
 40
8.644473220556838
  1
100'
 50
55.197381290995395
  7
PLAT
 72
1
 11
566.0837397713022
 21
125.03475486501628
 31
0.0
100
AcDbText
 73
3
  0
TEXT
  5
179
330
17
100
AcDbEntity
  8
PLAT-TEXT-DIST
100
AcDbText
 10
937.8661572455255
 20
128.9605713430804
 30
0.0
 40
8.644473220556838
  1
167.98'
 50
275.7696898152743
  7
PLAT
 72
1
 11
937.8661572455255
 21
128.9605713430804
 31
0.0
100
AcDbText
 73
1
  0
TEXT
  5
17A
330
17
100
AcDbEntity
  8
PLAT-TEXT-DIST
100
AcDbText
 10
509.00439041463085
 20
112.23260568568182
 30
0.0
 40
8.644473220556838
  1
7523'
 50
324.857485242464
  7
PLAT
 72
1
 11
509.00439041463085
 21
112.23260568568182
 31
0.0
100
AcDbText
 73
1
  0
TEXT
  5
17B
330
17
100
AcDbEntity
  8
PLAT-TEXT-DIST
100
AcDbText
 10
437.09612493452187
 20
92.6675876606962
 30
0.0
 40
8.644473220556838
  1
112.43'
 50
71.05807128739627
  7
PLAT
 72
1
 11
437.09612493452187
 21
92.6675876606962
 31
0.0
100
AcDbText
 73
3
  0
TEXT
  5
17C
330
17
100
AcDbEntity
  8
PLAT-TEXT-DIST
100
AcDbText
 10
1146.1726332092228
 20
123.3856866400968
 30
0.0
 40
8.644473220556838
  1
10'
 50
92.69129777967686
  7
PLAT
 72
1
 11
1146.1726332092228
 21
123.3856866400968
 31
0.0
100
AcDbText
 73
1
  0
TEXT
  5
17D
330
17
100
AcDbEntity
  8
PLAT-TEXT-DIST
100
AcDbText
 10
303.5621503434922
 20
60.60077865748957
 30
0.0
 40
8.644473220556838
  1
76.78'
 50
354.3855483939251
  7
PLAT
 72
1
 11
303.5621503434922
 21
60.60077865748957
 31
0.0
100
AcDbText
 73
1
  0
TEXT
  5
17E
330
17
100
AcDbEntity
  8
PLAT-TEXT-BRG
100
AcDbText
 10
302.0503584257107
 20
72.9099960266204
 30
0.0
 40
8.644473220556838
  1
N 84%%d31'40" W
 50
354.3855483939251
  7
PLAT
 72
1
 11
302.0503584257107
 21
72.9099960266204
 31
0.0
100
AcDbText
 73
1
  0
TEXT
  5
17F
330
17
100
AcDbEntity
  8
PLAT-TEXT-DIST
100
AcDbText
 10
204.9156948678352
 20
65.33161880332676
 30
0.0
 40
8.644473220556838
  1
8.00'
 50
358.1072576546718
  7
PLAT
 72
1
 11
204.9156948678352
 21
65.33161880332676
 31
0.0
100
AcDbText
 73
1
  0
TEXT
  5
180
330
17
100
AcDbEntity
  8
PLAT-TEXT-DIST
100
AcDbText
 10
503.2197949287279
 20
48.28884920148345
 30
0.0
 40
8.644473220556838
  1
104.80'
 50
62.4680869596786
  7
PLAT
 72
1
 11
503.2197949287279
 21
48.28884920148345
 31
0.0
100
AcDbText
 73
3
  0
TEXT
  5
181
330
17
100
AcDbEntity
  8
PLAT-TEXT-DIST
100
AcDbText
 10
575.0793046095092
 20
65.7210932657754
 30
0.0
 40
8.644473220556838
  1
15'
 50
324.857485242464
  7
PLAT
 72
1
 11
575.0793046095092
 21
65.7210932657754
 31
0.0
100
AcDbText
 73
1
  0
TEXT
  5
182
330
17
100
AcDbEntity
  8
PLAT-TEXT-DIST
100
AcDbText
 10
1051.4258830731983
 20
92.49400510874804
 30
0.0
 40
8.644473220556838
  1
15.20'
 50
7.27228529646095
  7
PLAT
 72
1
 11
1051.4258830731983
 21
92.49400510874804
 31
0.0
100
AcDbText
 73
1
  0
TEXT
  5
183
330
17
100
AcDbEntity
  8
PLAT-TEXT-DIST
100
AcDbText
 10
1119.4985769828434
 20
95.91598725391981
 30
0.0
 40
8.644473220556838
  1
75'
 50
2.6365370481096813
  7
PLAT
 72
1
 11
1119.4985769828434
 21
95.91598725391981
 31
0.0
100
AcDbText
 73
1
  0
TEXT
  5
184
330
17
100
AcDbEntity
  8
PLAT-TEXT-DIST
100
AcDbText
 10
99.48430570912438
 20
44.28531475619404
 30
0.0
 40
8.644473220556838
  1
75'
 50
91.34101708517673
  7
PLAT
 72
1
 11
99.48430570912438
 21
44.28531475619404
 31
0.0
100
AcDbText
 73
1
  0
TEXT
  5
185
330
17
100
AcDbEntity
  8
PLAT-TEXT-DIST
100
AcDbText
 10
1193.2312684175608
 20
99.31128623716884
 30
0.0
 40
8.644473220556838
  1
75'
 50
2.636537048109695
  7
PLAT
 72
1
 11
1193.2312684175608
 21
99.31128623716884
 31
0.0
100
AcDbText
 73
1
  0
TEXT
  5
186
330
17
100
AcDbEntity
  8
PLAT-TEXT-DIST
100
AcDbText
 10
1268.6239640405036
 20
102.78302635423245
 30
0.0
 40
8.644473220556838
  1
75'
 50
2.6365370481096764
  7
PLAT
 72
1
 11
1268.6239640405036
 21
102.78302635423245
 31
0.0
100
AcDbText
 73
1
  0
TEXT
  5
187
330
17
100
AcDbEntity
  8
PLAT-TEXT-DIST
100
AcDbText
 10
381.8360005394611
 20
45.791965227121466
 30
0.0
 40
8.644473220556838
  1
76.78'
 50
344.8792268350146
  7
PLAT
 72
1
 11
381.8360005394611
 21
45.791965227121466
 31
0.0
100
AcDbText
 73
1
  0
TEXT
  5
188
330
17
100
AcDbEntity
  8
PLAT-TEXT-DIST
100
AcDbText
 10
976.2975090120286
 20
64.42217830959302
 30
0.0
 40
8.644473220556838
  1
32.45'
 50
34.905909594680224
  7
PLAT
 72
1
 11
976.2975090120286
 21
64.42217830959302
 31
0.0
100
AcDbText
 73
1
  0
TEXT
  5
189
330
17
100
AcDbEntity
  8
PLAT-TEXT-DIST
100
AcDbText
 10
740.9730462472152
 20
59.928378833652225
 30
0.0
 40
8.644473220556838
  1
75'
 50
325.0119598865715
  7
PLAT
 72
1
 11
740.9730462472152
 21
59.928378833652225
 31
0.0
100
AcDbText
 73
3
  0
TEXT
  5
18A
330
17
100
AcDbEntity
  8
PLAT-TEXT-DIST
100
AcDbText
 10
879.0498873314748
 20
47.62511450625714
 30
0.0
 40
8.644473220556838
  1
125'
 50
325.01818322967944
  7
PLAT
 72
1
 11
879.0498873314748
 21
47.62511450625714
 31
0.0
100
AcDbText
 73
1
  0
TEXT
  5
18B
330
17
100
AcDbEntity
  8
PLAT-TEXT-DIST
100
AcDbText
 10
447.5417301098391
 20
22.324340855556628
 30
0.0
 40
8.644473220556838
  1
76.78'
 50
336.2463830991943
  7
PLAT
 72
1
 11
447.5417301098391
 21
22.324340855556628
 31
0.0
100
AcDbText
 73
1
  0
TEXT
  5
18C
330
17
100
AcDbEntity
  8
PLAT-TEXT-DIST
100
AcDbText
 10
583.3447810353547
 20
34.6339885357844
 30
0.0
 40
8.644473220556838
  1
0'
 50
55.29056869269857
  7
PLAT
 72
1
 11
583.3447810353547
 21
34.6339885357844
 31
0.0
100
AcDbText
 73
1
  0
TEXT
  5
18D
330
17
100
AcDbEntity
  8
PLAT-TEXT-DIST
100
AcDbText
 10
356.30200328841556
 20
-7.76322609332113
 30
0.0
 40
8.644473220556838
  1
20'
 50
348.1481049650392
  7
PLAT
 72
1
 11
356.30200328841556
 21
-7.76322609332113
 31
0.0
100
AcDbText
 73
1
  0
TEXT
  5
18E
330
17
100
AcDbEntity
  8
PLAT-TEXT-DIST
100
AcDbText
 10
803.8025539744335
 20
15.954226196756714
 30
0.0
 40
8.644473220556838
  1
75'
 50
325.01195988657145
  7
PLAT
 72
1
 11
803.8025539744335
 21
15.954226196756714
 31
0.0
100
AcDbText
 73
3
  0
TEXT
  5
18F
330
17
100
AcDbEntity
  8
PLAT-TEXT-DIST
100
AcDbText
 10
309.4986370806603
 20
-7.941574227641183
 30
0.0
 40
8.644473220556838
  1
89.76'
 50
354.3303188487291
  7
PLAT
 72
1
 11
309.4986370806603
 21
-7.941574227641183
 31
0.0
100
AcDbText
 73
3
  0
TEXT
  5
190
330
17
100
AcDbEntity
  8
PLAT-TEXT-DIST
100
AcDbText
 10
1161.8914158802843
 20
29.493188735339984
 30
0.0
 40
8.644473220556838
  1
108.00'
 50
2.9376599233237357
  7
PLAT
 72
1
 11
1161.8914158802843
 21
29.493188735339984
 31
0.0
100
AcDbText
 73
3
  0
TEXT
  5
191
330
17
100
AcDbEntity
  8
PLAT-TEXT-LOTNO
100
AcDbText
 10
197.00391232587185
 20
371.4912266186301
 30
0.0
 40
12.397273592403405
  1
33
 50
12.525290867723356
  7
PLAT
 72
1
 11
197.00391232587185
 21
371.4912266186301
 31
0.0
100
AcDbText
 73
2
  0
TEXT
  5
192
330
17
100
AcDbEntity
  8
PLAT-TEXT-LOTNO
100
AcDbText
 10
280.31423393297626
 20
374.06328990973566
 30
0.0
 40
14.250813114984364
  1
32
 50
12.358012702560472
  7
PLAT
 72
1
 11
280.31423393297626
 21
374.06328990973566
 31
0.0
100
AcDbText
 73
2
  0
TEXT
  5
193
330
17
100
AcDbEntity
  8
PLAT-TEXT-LOWCONF
100
AcDbText
 10
324.0638846897007
 20
357.2089026069235
 30
0.0
 40
7.845260653706715
  1
W.2%%d28'3
 50
92.851496681529
  7
PLAT
 72
1
 11
324.0638846897007
 21
357.2089026069235
 31
0.0
100
AcDbText
 73
2
  0
TEXT
  5
194
330
17
100
AcDbEntity
  8
PLAT-TEXT-MISC
100
AcDbText
 10
420.45112139529954
 20
362.6148595088433
 30
0.0
 40
11.089438419356116
  1
as 10%%d36
 50
78.93673784811938
  7
PLAT
 72
1
 11
420.45112139529954
 21
362.6148595088433
 31
0.0
100
AcDbText
 73
2
  0
TEXT
  5
195
330
17
100
AcDbEntity
  8
PLAT-TEXT-LOWCONF
100
AcDbText
 10
439.18407788062973
 20
373.8984433660389
 30
0.0
 40
9.323831205857397
  1
2%
 50
78.93673784811938
  7
PLAT
 72
1
 11
439.18407788062973
 21
373.8984433660389
 31
0.0
100
AcDbText
 73
2
  0
TEXT
  5
196
330
17
100
AcDbEntity
  8
PLAT-TEXT-LOWCONF
100
AcDbText
 10
512.323900510166
 20
354.63801888204233
 30
0.0
 40
10.769600974838482
  1
‘a 19%%d 20'
 50
67.32307080450215
  7
PLAT
 72
1
 11
512.323900510166
 21
354.63801888204233
 31
0.0
100
AcDbText
 73
2
  0
TEXT
  5
197
330
17
100
AcDbEntity
  8
PLAT-TEXT-LOWCONF
100
AcDbText
 10
604.3836096053997
 20
366.60036569834483
 30
0.0
 40
8.92265375918545
  1
Pe BV10 oF
 50
304.62748424504895
  7
PLAT
 72
1
 11
604.3836096053997
 21
366.60036569834483
 31
0.0
100
AcDbText
 73
2
  0
TEXT
  5
198
330
17
100
AcDbEntity
  8
PLAT-TEXT-LOTNO
100
AcDbText
 10
726.0807840682096
 20
395.88014661292345
 30
0.0
 40
13.809886325960147
  1
427
 50
3.9562147609601084
  7
PLAT
 72
1
 11
726.0807840682096
 21
395.88014661292345
 31
0.0
100
AcDbText
 73
2
  0
TEXT
  5
199
330
17
100
AcDbEntity
  8
PLAT-TEXT-LOWCONF
100
AcDbText
 10
762.2949256529627
 20
401.77447818600405
 30
0.0
 40
4.189246900751572
  1
~w
 50
2.691297779677029
  7
PLAT
 72
1
 11
762.2949256529627
 21
401.77447818600405
 31
0.0
100
AcDbText
 73
2
  0
TEXT
  5
19A
330
17
100
AcDbEntity
  8
PLAT-TEXT-LOWCONF
100
AcDbText
 10
1137.5516112109701
 20
420.07970709265953
 30
0.0
 40
3.324799127580613
  1
1
 50
2.691297779677029
  7
PLAT
 72
1
 11
1137.5516112109701
 21
420.07970709265953
 31
0.0
100
AcDbText
 73
2
  0
TEXT
  5
19B
330
17
100
AcDbEntity
  8
PLAT-TEXT-LOWCONF
100
AcDbText
 10
370.60110821428896
 20
377.4052041158793
 30
0.0
 40
13.878739901754093
  1
3;
 50
24.524271712587165
  7
PLAT
 72
1
 11
370.60110821428896
 21
377.4052041158793
 31
0.0
100
AcDbText
 73
2
  0
TEXT
  5
19C
330
17
100
AcDbEntity
  8
PLAT-TEXT-LOWCONF
100
AcDbText
 10
693.539201419042
 20
373.0926083873671
 30
0.0
 40
8.533841708993254
  1
%%d01'43%%dE.
 50
292.0449447660368
  7
PLAT
 72
1
 11
693.539201419042
 21
373.0926083873671
 31
0.0
100
AcDbText
 73
2
  0
TEXT
  5
19D
330
17
100
AcDbEntity
  8
PLAT-TEXT-LOWCONF
100
AcDbText
 10
341.78207794257025
 20
361.71413707185513
 30
0.0
 40
13.729477588318163
  1
1y, 700
 50
92.851496681529
  7
PLAT
 72
1
 11
341.78207794257025
 21
361.71413707185513
 31
0.0
100
AcDbText
 73
2
  0
TEXT
  5
19E
330
17
100
AcDbEntity
  8
PLAT-TEXT-LOWCONF
100
AcDbText
 10
953.5083538227121
 20
402.7371029716396
 30
0.0
 40
10.983520814271472
  1
re
 50
18.908536788301717
  7
PLAT
 72
1
 11
953.5083538227121
 21
402.7371029716396
 31
0.0
100
AcDbText
 73
2
  0
TEXT
  5
19F
330
17
100
AcDbEntity
  8
PLAT-TEXT-LOTNO
100
AcDbText
 10
804.8214712565064
 20
395.44681973809793
 30
0.0
 40
12.26758873473271
  1
26
 50
10.083735280332064
  7
PLAT
 72
1
 11
804.8214712565064
 21
395.44681973809793
 31
0.0
100
AcDbText
 73
2
  0
TEXT
  5
1A0
330
17
100
AcDbEntity
  8
PLAT-TEXT-LOWCONF
100
AcDbText
 10
878.9381040349601
 20
398.87796120137443
 30
0.0
 40
11.137436731134002
  1
2S
 50
12.951526127196303
  7
PLAT
 72
1
 11
878.9381040349601
 21
398.87796120137443
 31
0.0
100
AcDbText
 73
2
  0
TEXT
  5
1A1
330
17
100
AcDbEntity
  8
PLAT-TEXT-LOTNO
100
AcDbText
 10
1027.3085939589619
 20
406.07296446925545
 30
0.0
 40
13.059564286949849
  1
23
 50
9.984062165269165
  7
PLAT
 72
1
 11
1027.3085939589619
 21
406.07296446925545
 31
0.0
100
AcDbText
 73
2
  0
TEXT
  5
1A2
330
17
100
AcDbEntity
  8
PLAT-TEXT-LOTNO
100
AcDbText
 10
1101.440275320572
 20
408.27197410116736
 30
0.0
 40
12.05258010983
  1
22
 50
6.1759996067711995
  7
PLAT
 72
1
 11
1101.440275320572
 21
408.27197410116736
 31
0.0
100
AcDbText
 73
2
  0
TEXT
  5
1A3
330
17
100
AcDbEntity
  8
PLAT-TEXT-LOWCONF
100
AcDbText
 10
1172.2357743540601
 20
411.9782480007478
 30
0.0
 40
13.093235156344438
  1
<7
 50
16.91556595322254
  7
PLAT
 72
1
 11
1172.2357743540601
 21
411.9782480007478
 31
0.0
100
AcDbText
 73
2
  0
TEXT
  5
1A4
330
17
100
AcDbEntity
  8
PLAT-TEXT-LOTNO
100
AcDbText
 10
1249.2302236066132
 20
415.37900543582276
 30
0.0
 40
12.791093329164369
  1
20
 50
9.834426016331577
  7
PLAT
 72
1
 11
1249.2302236066132
 21
415.37900543582276
 31
0.0
100
AcDbText
 73
2
  0
TEXT
  5
1A5
330
17
100
AcDbEntity
  8
PLAT-TEXT-LOTNO
100
AcDbText
 10
44.304492878681
 20
353.04608408108015
 30
0.0
 40
11.969276859290206
  1
5
 50
2.691297779677029
  7
PLAT
 72
1
 11
44.304492878681
 21
353.04608408108015
 31
0.0
100
AcDbText
 73
2
  0
TEXT
  5
1A6
330
17
100
AcDbEntity
  8
PLAT-TEXT-LOTNO
100
AcDbText
 10
471.78272299195953
 20
372.6765483777647
 30
0.0
 40
12.69019340902822
  1
30
 50
14.277956255726622
  7
PLAT
 72
1
 11
471.78272299195953
 21
372.6765483777647
 31
0.0
100
AcDbText
 73
2
  0
TEXT
  5
1A7
330
17
100
AcDbEntity
  8
PLAT-TEXT-LOWCONF
100
AcDbText
 10
718.0684932999933
 20
386.7145102440087
 30
0.0
 40
4.787710743716082
  1
a
 50
2.691297779677029
  7
PLAT
 72
1
 11
718.0684932999933
 21
386.7145102440087
 31
0.0
100
AcDbText
 73
2
  0
TEXT
  5
1A8
330
17
100
AcDbEntity
  8
PLAT-TEXT-LOWCONF
100
AcDbText
 10
635.4480139542609
 20
378.96509221716946
 30
0.0
 40
13.616146765524594
  1
8%
 50
15.613601150490695
  7
PLAT
 72
1
 11
635.4480139542609
 21
378.96509221716946
 31
0.0
100
AcDbText
 73
2
  0
TEXT
  5
1A9
330
17
100
AcDbEntity
  8
PLAT-TEXT-LOWCONF
100
AcDbText
 10
724.7646600877762
 20
371.7183104661997
 30
0.0
 40
16.129778448533095
  1
4
 50
92.69129777967703
  7
PLAT
 72
1
 11
724.7646600877762
 21
371.7183104661997
 31
0.0
100
AcDbText
 73
2
  0
TEXT
  5
1AA
330
17
100
AcDbEntity
  8
PLAT-TEXT-LOWCONF
100
AcDbText
 10
275.48351975321106
 20
351.7430709182478
 30
0.0
 40
11.185596653915187
  1
“A,
 50
72.99343419797486
  7
PLAT
 72
1
 11
275.48351975321106
 21
351.7430709182478
 31
0.0
100
AcDbText
 73
2
  0
TEXT
  5
1AB
330
17
100
AcDbEntity
  8
PLAT-TEXT-LOWCONF
100
AcDbText
 10
1131.5687790733793
 20
384.5187758999015
 30
0.0
 40
7.864567404533508
  1
-Y
 50
92.51136763758888
  7
PLAT
 72
1
 11
1131.5687790733793
 21
384.5187758999015
 31
0.0
100
AcDbText
 73
2
  0
TEXT
  5
1AC
330
17
100
AcDbEntity
  8
PLAT-TEXT-LOWCONF
100
AcDbText
 10
43.64733489112916
 20
338.7027707371457
 30
0.0
 40
2.9923192148225515
  1
4 ‘
 50
2.691297779677029
  7
PLAT
 72
1
 11
43.64733489112916
 21
338.7027707371457
 31
0.0
100
AcDbText
 73
2
  0
TEXT
  5
1AD
330
17
100
AcDbEntity
  8
PLAT-TEXT-LOWCONF
100
AcDbText
 10
28.749075706925623
 20
337.0039133574067
 30
0.0
 40
3.5907830577870614
  1
2 ‘
 50
2.691297779677029
  7
PLAT
 72
1
 11
28.749075706925623
 21
337.0039133574067
 31
0.0
100
AcDbText
 73
2
  0
TEXT
  5
1AE
330
17
100
AcDbEntity
  8
PLAT-TEXT-LOWCONF
100
AcDbText
 10
42.28617991340673
 20
332.9765661457324
 30
0.0
 40
10.312432259142644
  1
“FE 01.
 50
4.628929700706408
  7
PLAT
 72
1
 11
42.28617991340673
 21
332.9765661457324
 31
0.0
100
AcDbText
 73
2
  0
TEXT
  5
1AF
330
17
100
AcDbEntity
  8
PLAT-TEXT-LOWCONF
100
AcDbText
 10
266.09723387390653
 20
342.4277161168402
 30
0.0
 40
9.051002701967768
  1
ie
 50
0.04147948987389327
  7
PLAT
 72
1
 11
266.09723387390653
 21
342.4277161168402
 31
0.0
100
AcDbText
 73
2
  0
TEXT
  5
1B0
330
17
100
AcDbEntity
  8
PLAT-TEXT-LOTNO
100
AcDbText
 10
73.32175805192094
 20
323.45531214480684
 30
0.0
 40
16.129778448533095
  1
7
 50
2.691297779677029
  7
PLAT
 72
1
 11
73.32175805192094
 21
323.45531214480684
 31
0.0
100
AcDbText
 73
2
  0
TEXT
  5
1B1
330
17
100
AcDbEntity
  8
PLAT-TEXT-LOWCONF
100
AcDbText
 10
206.10915934952618
 20
331.02851944524855
 30
0.0
 40
10.595373770711822
  1
92 60'
 50
1.9033047225058075
  7
PLAT
 72
1
 11
206.10915934952618
 21
331.02851944524855
 31
0.0
100
AcDbText
 73
2
  0
TEXT
  5
1B2
330
17
100
AcDbEntity
  8
PLAT-TEXT-LOWCONF
100
AcDbText
 10
731.9334436288773
 20
353.748703454212
 30
0.0
 40
8.976957644467655
  1
aN
 50
2.691297779677029
  7
PLAT
 72
1
 11
731.9334436288773
 21
353.748703454212
 31
0.0
100
AcDbText
 73
2
  0
TEXT
  5
1B3
330
17
100
AcDbEntity
  8
PLAT-TEXT-LOWCONF
100
AcDbText
 10
159.19430003567078
 20
323.49772254060645
 30
0.0
 40
9.974397382741838
  1
5
 50
2.691297779677029
  7
PLAT
 72
1
 11
159.19430003567078
 21
323.49772254060645
 31
0.0
100
AcDbText
 73
2
  0
TEXT
  5
1B4
330
17
100
AcDbEntity
  8
PLAT-TEXT-LOWCONF
100
AcDbText
 10
562.1826041107978
 20
340.9904859584965
 30
0.0
 40
14.651778945742995
  1
29,
 50
355.69215244463396
  7
PLAT
 72
1
 11
562.1826041107978
 21
340.9904859584965
 31
0.0
100
AcDbText
 73
2
  0
TEXT
  5
1B5
330
17
100
AcDbEntity
  8
PLAT-TEXT-LOWCONF
100
AcDbText
 10
684.884380307759
 20
348.3604505705172
 30
0.0
 40
9.707233556032591
  1
w
 50
299.9431023366333
  7
PLAT
 72
1
 11
684.884380307759
 21
348.3604505705172
 31
0.0
100
AcDbText
 73
2
  0
TEXT
  5
1B6
330
17
100
AcDbEntity
  8
PLAT-TEXT-LOWCONF
100
AcDbText
 10
432.36496799640634
 20
335.5883304447234
 30
0.0
 40
9.333187995758506
  1
x9
 50
296.2207114688887
  7
PLAT
 72
1
 11
432.36496799640634
 21
335.5883304447234
 31
0.0
100
AcDbText
 73
2
  0
TEXT
  5
1B7
330
17
100
AcDbEntity
  8
PLAT-TEXT-LOWCONF
100
AcDbText
 10
441.55296047434194
 20
335.439050423392
 30
0.0
 40
8.644477731709593
  1
£2.
 50
2.691297779677029
  7
PLAT
 72
1
 11
441.55296047434194
 21
335.439050423392
 31
0.0
100
AcDbText
 73
2
  0
TEXT
  5
1B8
330
17
100
AcDbEntity
  8
PLAT-TEXT-LOWCONF
100
AcDbText
 10
35.5217651778521
 20
314.1304529171209
 30
0.0
 40
8.36103212914003
  1
— 00m
 50
2.1453131930712743
  7
PLAT
 72
1
 11
35.5217651778521
 21
314.1304529171209
 31
0.0
100
AcDbText
 73
2
  0
TEXT
  5
1B9
330
17
100
AcDbEntity
  8
PLAT-TEXT-LOWCONF
100
AcDbText
 10
467.40224765108326
 20
328.34364546477775
 30
0.0
 40
9.981521317528196
  1
13%%d33'06"
 50
343.2890815583861
  7
PLAT
 72
1
 11
467.40224765108326
 21
328.34364546477775
 31
0.0
100
AcDbText
 73
2
  0
TEXT
  5
1BA
330
17
100
AcDbEntity
  8
PLAT-TEXT-LOWCONF
100
AcDbText
 10
662.4126891944358
 20
336.3337281423005
 30
0.0
 40
12.464872108653788
  1
“02,910!
 50
23.46388245172261
  7
PLAT
 72
1
 11
662.4126891944358
 21
336.3337281423005
 31
0.0
100
AcDbText
 73
2
  0
TEXT
  5
1BB
330
17
100
AcDbEntity
  8
PLAT-TEXT-LOWCONF
100
AcDbText
 10
806.9919635462556
 20
349.6240111082858
 30
0.0
 40
9.69829213032085
  1
SL
 50
2.2849144709980465
  7
PLAT
 72
1
 11
806.9919635462556
 21
349.6240111082858
 31
0.0
100
AcDbText
 73
2
  0
TEXT
  5
1BC
330
17
100
AcDbEntity
  8
PLAT-TEXT-LOWCONF
100
AcDbText
 10
665.5377564033205
 20
342.97218716782186
 30
0.0
 40
3.5907830577870614
  1
Pe
 50
92.69129777967703
  7
PLAT
 72
1
 11
665.5377564033205
 21
342.97218716782186
 31
0.0
100
AcDbText
 73
2
  0
TEXT
  5
1BD
330
17
100
AcDbEntity
  8
PLAT-TEXT-LOWCONF
100
AcDbText
 10
1184.4406993335733
 20
363.7359753514712
 30
0.0
 40
9.061640996359959
  1
Sh
 50
2.2849144709980465
  7
PLAT
 72
1
 11
1184.4406993335733
 21
363.7359753514712
 31
0.0
100
AcDbText
 73
2
  0
TEXT
  5
1BE
330
17
100
AcDbEntity
  8
PLAT-TEXT-LOWCONF
100
AcDbText
 10
248.21197582680105
 20
320.3595045620388
 30
0.0
 40
2.9923192148225515
  1
om
 50
2.691297779677029
  7
PLAT
 72
1
 11
248.21197582680105
 21
320.3595045620388
 31
0.0
100
AcDbText
 73
2
  0
TEXT
  5
1BF
330
17
100
AcDbEntity
  8
PLAT-TEXT-LOWCONF
100
AcDbText
 10
576.6139809358173
 20
331.8858092065629
 30
0.0
 40
5.721687332762389
  1
Sos.
 50
5.412160522903264
  7
PLAT
 72
1
 11
576.6139809358173
 21
331.8858092065629
 31
0.0
100
AcDbText
 73
2
  0
TEXT
  5
1C0
330
17
100
AcDbEntity
  8
PLAT-TEXT-LOWCONF
100
AcDbText
 10
1140.408516928779
 20
359.30299269571174
 30
0.0
 40
3.5907830577870614
  1
A
 50
2.691297779677029
  7
PLAT
 72
1
 11
1140.408516928779
 21
359.30299269571174
 31
0.0
100
AcDbText
 73
2
  0
TEXT
  5
1C1
330
17
100
AcDbEntity
  8
PLAT-TEXT-LOWCONF
100
AcDbText
 10
1320.777203972376
 20
367.11581442235837
 30
0.0
 40
5.31967860412898
  1
3
 50
2.691297779677029
  7
PLAT
 72
1
 11
1320.777203972376
 21
367.11581442235837
 31
0.0
100
AcDbText
 73
2
  0
TEXT
  5
1C2
330
17
100
AcDbEntity
  8
PLAT-TEXT-LOWCONF
100
AcDbText
 10
1148.3948450776563
 20
359.34555566199845
 30
0.0
 40
3.324799127580613
  1
1
 50
2.691297779677029
  7
PLAT
 72
1
 11
1148.3948450776563
 21
359.34555566199845
 31
0.0
100
AcDbText
 73
2
  0
TEXT
  5
1C3
330
17
100
AcDbEntity
  8
PLAT-TEXT-LOWCONF
100
AcDbText
 10
585.8705484916627
 20
326.9371708348027
 30
0.0
 40
7.137163981918598
  1
Re
 50
352.1934862461204
  7
PLAT
 72
1
 11
585.8705484916627
 21
326.9371708348027
 31
0.0
100
AcDbText
 73
2
  0
TEXT
  5
1C4
330
17
100
AcDbEntity
  8
PLAT-TEXT-LOWCONF
100
AcDbText
 10
6.007237082049187
 20
270.3388256959603
 30
0.0
 40
7.473780450878979
  1
Dazesd
 50
92.09368814818424
  7
PLAT
 72
1
 11
6.007237082049187
 21
270.3388256959603
 31
0.0
100
AcDbText
 73
2
  0
TEXT
  5
1C5
330
17
100
AcDbEntity
  8
PLAT-TEXT-LOWCONF
100
AcDbText
 10
381.92906613900885
 20
314.88759368698663
 30
0.0
 40
2.019402888207945
  1
~~ 3
 50
356.4538590574449
  7
PLAT
 72
1
 11
381.92906613900885
 21
314.88759368698663
 31
0.0
100
AcDbText
 73
2
  0
TEXT
  5
1C6
330
17
100
AcDbEntity
  8
PLAT-TEXT-LOWCONF
100
AcDbText
 10
639.855186852072
 20
321.5383732119283
 30
0.0
 40
8.836672894757042
  1
g
 50
311.645686361353
  7
PLAT
 72
1
 11
639.855186852072
 21
321.5383732119283
 31
0.0
100
AcDbText
 73
2
  0
TEXT
  5
1C7
330
17
100
AcDbEntity
  8
PLAT-TEXT-LOWCONF
100
AcDbText
 10
404.0427172734361
 20
308.6261231921069
 30
0.0
 40
14.516800603679785
  1
eZ
 50
356.4538590574449
  7
PLAT
 72
1
 11
404.0427172734361
 21
308.6261231921069
 31
0.0
100
AcDbText
 73
2
  0
TEXT
  5
1C8
330
17
100
AcDbEntity
  8
PLAT-TEXT-LOWCONF
100
AcDbText
 10
687.728824248979
 20
302.05179604305545
 30
0.0
 40
14.516800603679785
  1
Seat
 50
9.380456948186065
  7
PLAT
 72
1
 11
687.728824248979
 21
302.05179604305545
 31
0.0
100
AcDbText
 73
2
  0
TEXT
  5
1C9
330
17
100
AcDbEntity
  8
PLAT-TEXT-LOWCONF
100
AcDbText
 10
461.8540021037343
 20
293.4013504803911
 30
0.0
 40
12.882044493797427
  1
‘Curve Oats
 50
343.2890815583861
  7
PLAT
 72
1
 11
461.8540021037343
 21
293.4013504803911
 31
0.0
100
AcDbText
 73
2
  0
TEXT
  5
1CA
330
17
100
AcDbEntity
  8
PLAT-TEXT-LOWCONF
100
AcDbText
 10
74.96096625066377
 20
288.5834268350827
 30
0.0
 40
8.378493801503144
  1
19"
 50
92.69129777967703
  7
PLAT
 72
1
 11
74.96096625066377
 21
288.5834268350827
 31
0.0
100
AcDbText
 73
2
  0
TEXT
  5
1CB
330
17
100
AcDbEntity
  8
PLAT-TEXT-LOWCONF
100
AcDbText
 10
174.00875542486847
 20
291.57508985105164
 30
0.0
 40
8.644477731709593
  1
2
 50
2.691297779677029
  7
PLAT
 72
1
 11
174.00875542486847
 21
291.57508985105164
 31
0.0
100
AcDbText
 73
2
  0
TEXT
  5
1CC
330
17
100
AcDbEntity
  8
PLAT-TEXT-LOWCONF
100
AcDbText
 10
524.689064669356
 20
308.7250672652598
 30
0.0
 40
6.583102272609613
  1
Qs.
 50
2.691297779677029
  7
PLAT
 72
1
 11
524.689064669356
 21
308.7250672652598
 31
0.0
100
AcDbText
 73
2
  0
TEXT
  5
1CD
330
17
100
AcDbEntity
  8
PLAT-TEXT-LOWCONF
100
AcDbText
 10
598.1671746222149
 20
313.46989937790545
 30
0.0
 40
6.2338243145678955
  1
Ta
 50
13.960274037219165
  7
PLAT
 72
1
 11
598.1671746222149
 21
313.46989937790545
 31
0.0
100
AcDbText
 73
2
  0
TEXT
  5
1CE
330
17
100
AcDbEntity
  8
PLAT-TEXT-LOWCONF
100
AcDbText
 10
949.1254543140351
 20
321.6865842013584
 30
0.0
 40
14.516800603679785
  1
x
 50
92.69129777967703
  7
PLAT
 72
1
 11
949.1254543140351
 21
321.6865842013584
 31
0.0
100
AcDbText
 73
2
  0
TEXT
  5
1CF
330
17
100
AcDbEntity
  8
PLAT-TEXT-LOWCONF
100
AcDbText
 10
547.7877317836288
 20
297.01626817495713
 30
0.0
 40
9.778798988097597
  1
69,8500!
 50
332.45781764358856
  7
PLAT
 72
1
 11
547.7877317836288
 21
297.01626817495713
 31
0.0
100
AcDbText
 73
2
  0
TEXT
  5
1D0
330
17
100
AcDbEntity
  8
PLAT-TEXT-LOWCONF
100
AcDbText
 10
807.0122305410404
 20
314.3406329662978
 30
0.0
 40
14.363132231148246
  1
S.
 50
2.691297779677029
  7
PLAT
 72
1
 11
807.0122305410404
 21
314.3406329662978
 31
0.0
100
AcDbText
 73
2
  0
TEXT
  5
1D1
330
17
100
AcDbEntity
  8
PLAT-TEXT-LOWCONF
100
AcDbText
 10
830.2757655875112
 20
315.1013252387004
 30
0.0
 40
14.516800603679785
  1
"fT;
 50
2.691297779677029
  7
PLAT
 72
1
 11
830.2757655875112
 21
315.1013252387004
 31
0.0
100
AcDbText
 73
2
  0
TEXT
  5
1D2
330
17
100
AcDbEntity
  8
PLAT-TEXT-LOWCONF
100
AcDbText
 10
864.6282482827598
 20
316.5328432365654
 30
0.0
 40
16.129778448533095
  1
777,
 50
1.1704389895861596
  7
PLAT
 72
1
 11
864.6282482827598
 21
316.5328432365654
 31
0.0
100
AcDbText
 73
2
  0
TEXT
  5
1D3
330
17
100
AcDbEntity
  8
PLAT-TEXT-MISC
100
AcDbText
 10
914.9233915898947
 20
318.89144843152303
 30
0.0
 40
14.516800603679785
  1
FIS,
 50
6.239675909617688
  7
PLAT
 72
1
 11
914.9233915898947
 21
318.89144843152303
 31
0.0
100
AcDbText
 73
2
  0
TEXT
  5
1D4
330
17
100
AcDbEntity
  8
PLAT-TEXT-MISC
100
AcDbText
 10
1255.743495246134
 20
334.4559460552092
 30
0.0
 40
14.516800603679785
  1
RIVE
 50
2.7774916423168747
  7
PLAT
 72
1
 11
1255.743495246134
 21
334.4559460552092
 31
0.0
100
AcDbText
 73
2
  0
TEXT
  5
1D5
330
17
100
AcDbEntity
  8
PLAT-TEXT-LOWCONF
100
AcDbText
 10
416.65104932953403
 20
288.3090484743255
 30
0.0
 40
12.005856334194348
  1
R235 9.27%%d ~ 7
 50
350.2309645286971
  7
PLAT
 72
1
 11
416.65104932953403
 21
288.3090484743255
 31
0.0
100
AcDbText
 73
2
  0
TEXT
  5
1D6
330
17
100
AcDbEntity
  8
PLAT-TEXT-LOWCONF
100
AcDbText
 10
605.9452420505094
 20
304.97377287806415
 30
0.0
 40
11.885356700286316
  1
302,
 50
304.62748424504895
  7
PLAT
 72
1
 11
605.9452420505094
 21
304.97377287806415
 31
0.0
100
AcDbText
 73
2
  0
TEXT
  5
1D7
330
17
100
AcDbEntity
  8
PLAT-TEXT-LOWCONF
100
AcDbText
 10
75.47187441659116
 20
270.6337028834271
 30
0.0
 40
8.378493801503144
  1
'@.9'
 50
92.69129777967703
  7
PLAT
 72
1
 11
75.47187441659116
 21
270.6337028834271
 31
0.0
100
AcDbText
 73
2
  0
TEXT
  5
1D8
330
17
100
AcDbEntity
  8
PLAT-TEXT-LOWCONF
100
AcDbText
 10
174.41465459789055
 20
282.94014682197707
 30
0.0
 40
8.644477731709593
  1
9
 50
92.69129777967703
  7
PLAT
 72
1
 11
174.41465459789055
 21
282.94014682197707
 31
0.0
100
AcDbText
 73
2
  0
TEXT
  5
1D9
330
17
100
AcDbEntity
  8
PLAT-TEXT-LOWCONF
100
AcDbText
 10
576.3923815761079
 20
300.07964664417125
 30
0.0
 40
11.94394358484472
  1
“5.
 50
358.8547353587197
  7
PLAT
 72
1
 11
576.3923815761079
 21
300.07964664417125
 31
0.0
100
AcDbText
 73
2
  0
TEXT
  5
1DA
330
17
100
AcDbEntity
  8
PLAT-TEXT-LOTNO
100
AcDbText
 10
48.69986935600468
 20
273.7022538655889
 30
0.0
 40
12.634236684806329
  1
7
 50
2.691297779677029
  7
PLAT
 72
1
 11
48.69986935600468
 21
273.7022538655889
 31
0.0
100
AcDbText
 73
2
  0
TEXT
  5
1DB
330
17
100
AcDbEntity
  8
PLAT-TEXT-LOWCONF
100
AcDbText
 10
629.7418427848597
 20
304.3435224455617
 30
0.0
 40
4.189246900751572
  1
2 ea
 50
92.69129777967703
  7
PLAT
 72
1
 11
629.7418427848597
 21
304.3435224455617
 31
0.0
100
AcDbText
 73
2
  0
TEXT
  5
1DC
330
17
100
AcDbEntity
  8
PLAT-TEXT-LOWCONF
100
AcDbText
 10
730.6132591298458
 20
303.3259292437689
 30
0.0
 40
12.599886263038359
  1
7282.35
 50
8.294399230679403
  7
PLAT
 72
1
 11
730.6132591298458
 21
303.3259292437689
 31
0.0
100
AcDbText
 73
2
  0
TEXT
  5
1DD
330
17
100
AcDbEntity
  8
PLAT-TEXT-LOWCONF
100
AcDbText
 10
611.1080093860202
 20
297.14351589115125
 30
0.0
 40
6.649598255161226
  1
"2,
 50
2.691297779677029
  7
PLAT
 72
1
 11
611.1080093860202
 21
297.14351589115125
 31
0.0
100
AcDbText
 73
2
  0
TEXT
  5
1DE
330
17
100
AcDbEntity
  8
PLAT-TEXT-LOWCONF
100
AcDbText
 10
1202.523549344353
 20
326.6081752102899
 30
0.0
 40
2.9923192148225515
  1
a
 50
2.691297779677029
  7
PLAT
 72
1
 11
1202.523549344353
 21
326.6081752102899
 31
0.0
100
AcDbText
 73
2
  0
TEXT
  5
1DF
330
17
100
AcDbEntity
  8
PLAT-TEXT-LOWCONF
100
AcDbText
 10
582.5743701098429
 20
285.97787484813153
 30
0.0
 40
14.516800603679785
  1
y
 50
88.85473535871967
  7
PLAT
 72
1
 11
582.5743701098429
 21
285.97787484813153
 31
0.0
100
AcDbText
 73
2
  0
TEXT
  5
1E0
330
17
100
AcDbEntity
  8
PLAT-TEXT-LOWCONF
100
AcDbText
 10
409.9387819071293
 20
275.9518969915454
 30
0.0
 40
9.197119271451983
  1
4: 370,
 50
353.31806370311665
  7
PLAT
 72
1
 11
409.9387819071293
 21
275.9518969915454
 31
0.0
100
AcDbText
 73
2
  0
TEXT
  5
1E1
330
17
100
AcDbEntity
  8
PLAT-TEXT-LOWCONF
100
AcDbText
 10
257.2584117201427
 20
269.52630290753734
 30
0.0
 40
4.189246900751572
  1
o~
 50
2.691297779677029
  7
PLAT
 72
1
 11
257.2584117201427
 21
269.52630290753734
 31
0.0
100
AcDbText
 73
2
  0
TEXT
  5
1E2
330
17
100
AcDbEntity
  8
PLAT-TEXT-LOWCONF
100
AcDbText
 10
694.9131846304485
 20
268.86822274621187
 30
0.0
 40
14.516800603679785
  1
ate
 50
12.515572629064195
  7
PLAT
 72
1
 11
694.9131846304485
 21
268.86822274621187
 31
0.0
100
AcDbText
 73
2
  0
TEXT
  5
1E3
330
17
100
AcDbEntity
  8
PLAT-TEXT-LOWCONF
100
AcDbText
 10
676.7660477255013
 20
284.0374829681947
 30
0.0
 40
7.568127881352052
  1
37.
 50
16.693201969336997
  7
PLAT
 72
1
 11
676.7660477255013
 21
284.0374829681947
 31
0.0
100
AcDbText
 73
2
  0
TEXT
  5
1E4
330
17
100
AcDbEntity
  8
PLAT-TEXT-LOWCONF
100
AcDbText
 10
482.03410148571515
 20
270.1077748155307
 30
0.0
 40
9.747285372898542
  1
T2122.
 50
341.22275914622867
  7
PLAT
 72
1
 11
482.03410148571515
 21
270.1077748155307
 31
0.0
100
AcDbText
 73
2
  0
TEXT
  5
1E5
330
17
100
AcDbEntity
  8
PLAT-TEXT-LOWCONF
100
AcDbText
 10
162.94960474015198
 20
257.77053325557887
 30
0.0
 40
9.974397382741838
  1
4
 50
92.69129777967703
  7
PLAT
 72
1
 11
162.94960474015198
 21
257.77053325557887
 31
0.0
100
AcDbText
 73
2
  0
TEXT
  5
1E6
330
17
100
AcDbEntity
  8
PLAT-TEXT-LOWCONF
100
AcDbText
 10
664.7748426201258
 20
275.48953011254287
 30
0.0
 40
8.642749771005736
  1
2216,
 50
42.251627275333476
  7
PLAT
 72
1
 11
664.7748426201258
 21
275.48953011254287
 31
0.0
100
AcDbText
 73
2
  0
TEXT
  5
1E7
330
17
100
AcDbEntity
  8
PLAT-TEXT-LOWCONF
100
AcDbText
 10
10.442931377347463
 20
244.9433159061789
 30
0.0
 40
13.166204545219227
  1
ws
 50
92.69129777967703
  7
PLAT
 72
1
 11
10.442931377347463
 21
244.9433159061789
 31
0.0
100
AcDbText
 73
2
  0
TEXT
  5
1E8
330
17
100
AcDbEntity
  8
PLAT-TEXT-LOWCONF
100
AcDbText
 10
469.9830549067732
 20
259.52020140704764
 30
0.0
 40
9.868180707412096
  1
40 OF
 50
342.6048460965187
  7
PLAT
 72
1
 11
469.9830549067732
 21
259.52020140704764
 31
0.0
100
AcDbText
 73
2
  0
TEXT
  5
1E9
330
17
100
AcDbEntity
  8
PLAT-TEXT-LOWCONF
100
AcDbText
 10
87.64930731871345
 20
245.24405351580833
 30
0.0
 40
11.969276859290206
  1
9
 50
92.69129777967703
  7
PLAT
 72
1
 11
87.64930731871345
 21
245.24405351580833
 31
0.0
100
AcDbText
 73
2
  0
TEXT
  5
1EA
330
17
100
AcDbEntity
  8
PLAT-TEXT-LOWCONF
100
AcDbText
 10
43.17062255506028
 20
243.15235996006942
 30
0.0
 40
9.254656949609076
  1
toa‘
 50
0.5811389893683034
  7
PLAT
 72
1
 11
43.17062255506028
 21
243.15235996006942
 31
0.0
100
AcDbText
 73
2
  0
TEXT
  5
1EB
330
17
100
AcDbEntity
  8
PLAT-TEXT-LOWCONF
100
AcDbText
 10
792.4102153026481
 20
243.09041683917053
 30
0.0
 40
7.899343993701271
  1
‘MOE V20?/N -
 50
92.04585283746894
  7
PLAT
 72
1
 11
792.4102153026481
 21
243.09041683917053
 31
0.0
100
AcDbText
 73
2
  0
TEXT
  5
1EC
330
17
100
AcDbEntity
  8
PLAT-TEXT-LOWCONF
100
AcDbText
 10
507.09630847243
 20
259.09500220867045
 30
0.0
 40
8.320727389678877
  1
“2,
 50
14.965147811481074
  7
PLAT
 72
1
 11
507.09630847243
 21
259.09500220867045
 31
0.0
100
AcDbText
 73
2
  0
TEXT
  5
1ED
330
17
100
AcDbEntity
  8
PLAT-TEXT-LOWCONF
100
AcDbText
 10
1138.01644348882
 20
252.68892940968058
 30
0.0
 40
14.516800603679785
  1
eesements
 50
92.53279852706481
  7
PLAT
 72
1
 11
1138.01644348882
 21
252.68892940968058
 31
0.0
100
AcDbText
 73
2
  0
TEXT
  5
1EE
330
17
100
AcDbEntity
  8
PLAT-TEXT-LOWCONF
100
AcDbText
 10
1323.3757824763552
 20
297.6729339830267
 30
0.0
 40
7.780029958538633
  1
t
 50
2.691297779677029
  7
PLAT
 72
1
 11
1323.3757824763552
 21
297.6729339830267
 31
0.0
100
AcDbText
 73
2
  0
TEXT
  5
1EF
330
17
100
AcDbEntity
  8
PLAT-TEXT-LOWCONF
100
AcDbText
 10
568.9394990658477
 20
259.5466853161558
 30
0.0
 40
11.370813016325696
  1
x
 50
92.69129777967703
  7
PLAT
 72
1
 11
568.9394990658477
 21
259.5466853161558
 31
0.0
100
AcDbText
 73
2
  0
TEXT
  5
1F0
330
17
100
AcDbEntity
  8
PLAT-TEXT-LOWCONF
100
AcDbText
 10
710.9807756289158
 20
259.94573627597043
 30
0.0
 40
14.516800603679785
  1
"gg 12!
 50
12.515572629064195
  7
PLAT
 72
1
 11
710.9807756289158
 21
259.94573627597043
 31
0.0
100
AcDbText
 73
2
  0
TEXT
  5
1F1
330
17
100
AcDbEntity
  8
PLAT-TEXT-LOWCONF
100
AcDbText
 10
275.71290641423104
 20
245.09891307782897
 30
0.0
 40
11.971430731460199
  1
NY
 50
92.6396352409576
  7
PLAT
 72
1
 11
275.71290641423104
 21
245.09891307782897
 31
0.0
100
AcDbText
 73
2
  0
TEXT
  5
1F2
330
17
100
AcDbEntity
  8
PLAT-TEXT-LOWCONF
100
AcDbText
 10
347.61013397622185
 20
223.84637315713942
 30
0.0
 40
13.764668388183738
  1
108.18 2
 50
92.69129777967703
  7
PLAT
 72
1
 11
347.61013397622185
 21
223.84637315713942
 31
0.0
100
AcDbText
 73
2
  0
TEXT
  5
1F3
330
17
100
AcDbEntity
  8
PLAT-TEXT-LOWCONF
100
AcDbText
 10
880.7953154792879
 20
236.5937316883289
 30
0.0
 40
7.876390181889922
  1
1106 VS0U'N ,
 50
92.97986346280129
  7
PLAT
 72
1
 11
880.7953154792879
 21
236.5937316883289
 31
0.0
100
AcDbText
 73
2
  0
TEXT
  5
1F4
330
17
100
AcDbEntity
  8
PLAT-TEXT-LOWCONF
100
AcDbText
 10
166.23438306796447
 20
222.89949965165033
 30
0.0
 40
14.184262796091529
  1
100.14,
 50
79.00819135768586
  7
PLAT
 72
1
 11
166.23438306796447
 21
222.89949965165033
 31
0.0
100
AcDbText
 73
2
  0
TEXT
  5
1F5
330
17
100
AcDbEntity
  8
PLAT-TEXT-LOWCONF
100
AcDbText
 10
386.0688818755138
 20
244.6137283868188
 30
0.0
 40
12.357454657113719
  1
“SHEP E81
 50
358.1101295437585
  7
PLAT
 72
1
 11
386.0688818755138
 21
244.6137283868188
 31
0.0
100
AcDbText
 73
2
  0
TEXT
  5
1F6
330
17
100
AcDbEntity
  8
PLAT-TEXT-LOWCONF
100
AcDbText
 10
519.5005071363286
 20
255.16660443417558
 30
0.0
 40
7.788069184744164
  1
"2
 50
7.466343858460164
  7
PLAT
 72
1
 11
519.5005071363286
 21
255.16660443417558
 31
0.0
100
AcDbText
 73
2
  0
TEXT
  5
1F7
330
17
100
AcDbEntity
  8
PLAT-TEXT-LOWCONF
100
AcDbText
 10
605.3356473079778
 20
260.63433232020253
 30
0.0
 40
5.657024503454405
  1
y.
 50
307.84712006317517
  7
PLAT
 72
1
 11
605.3356473079778
 21
260.63433232020253
 31
0.0
100
AcDbText
 73
2
  0
TEXT
  5
1F8
330
17
100
AcDbEntity
  8
PLAT-TEXT-LOWCONF
100
AcDbText
 10
777.6689980933941
 20
241.0869849058198
 30
0.0
 40
9.037100744690637
  1
or E018 —
 50
92.04585283746894
  7
PLAT
 72
1
 11
777.6689980933941
 21
241.0869849058198
 31
0.0
100
AcDbText
 73
2
  0
TEXT
  5
1F9
330
17
100
AcDbEntity
  8
PLAT-TEXT-LOWCONF
100
AcDbText
 10
48.17696611535723
 20
227.34152071909617
 30
0.0
 40
9.934685391207749
  1
W. 58%%d58 20"E,
 50
0.5811389893683034
  7
PLAT
 72
1
 11
48.17696611535723
 21
227.34152071909617
 31
0.0
100
AcDbText
 73
2
  0
TEXT
  5
1FA
330
17
100
AcDbEntity
  8
PLAT-TEXT-LOWCONF
100
AcDbText
 10
189.40790495958976
 20
233.05217867411196
 30
0.0
 40
12.567740702254717
  1
M,
 50
92.69129777967703
  7
PLAT
 72
1
 11
189.40790495958976
 21
233.05217867411196
 31
0.0
100
AcDbText
 73
2
  0
TEXT
  5
1FB
330
17
100
AcDbEntity
  8
PLAT-TEXT-LOWCONF
100
AcDbText
 10
641.9136448253836
 20
252.74823633269557
 30
0.0
 40
7.219815351889571
  1
50:
 50
350.15535731732217
  7
PLAT
 72
1
 11
641.9136448253836
 21
252.74823633269557
 31
0.0
100
AcDbText
 73
2
  0
TEXT
  5
1FC
330
17
100
AcDbEntity
  8
PLAT-TEXT-LOWCONF
100
AcDbText
 10
718.1556977474913
 20
242.58017809352398
 30
0.0
 40
14.516800603679785
  1
asset
 50
8.29439923067946
  7
PLAT
 72
1
 11
718.1556977474913
 21
242.58017809352398
 31
0.0
100
AcDbText
 73
2
  0
TEXT
  5
1FD
330
17
100
AcDbEntity
  8
PLAT-TEXT-LOWCONF
100
AcDbText
 10
413.55959241865844
 20
201.09651209804196
 30
0.0
 40
11.583225862957294
  1
We 14%%d59'0-E RNS
 50
74.32546628854942
  7
PLAT
 72
1
 11
413.55959241865844
 21
201.09651209804196
 31
0.0
100
AcDbText
 73
2
  0
TEXT
  5
1FE
330
17
100
AcDbEntity
  8
PLAT-TEXT-LOWCONF
100
AcDbText
 10
590.533925037834
 20
246.24934291808586
 30
0.0
 40
5.984638429645103
  1
v
 50
2.691297779677029
  7
PLAT
 72
1
 11
590.533925037834
 21
246.24934291808586
 31
0.0
100
AcDbText
 73
2
  0
TEXT
  5
1FF
330
17
100
AcDbEntity
  8
PLAT-TEXT-LOWCONF
100
AcDbText
 10
8.973915461328374
 20
190.9219444743896
 30
0.0
 40
7.823333444103351
  1
a
 50
92.09368814818424
  7
PLAT
 72
1
 11
8.973915461328374
 21
190.9219444743896
 31
0.0
100
AcDbText
 73
2
  0
TEXT
  5
200
330
17
100
AcDbEntity
  8
PLAT-TEXT-LOWCONF
100
AcDbText
 10
184.8789407511867
 20
223.1867234649392
 30
0.0
 40
5.31967860412898
  1
2.
 50
2.691297779677029
  7
PLAT
 72
1
 11
184.8789407511867
 21
223.1867234649392
 31
0.0
100
AcDbText
 73
2
  0
TEXT
  5
201
330
17
100
AcDbEntity
  8
PLAT-TEXT-LOWCONF
100
AcDbText
 10
441.1691750876224
 20
232.16435726224447
 30
0.0
 40
10.213136780691583
  1
8
 50
277.3378055134699
  7
PLAT
 72
1
 11
441.1691750876224
 21
232.16435726224447
 31
0.0
100
AcDbText
 73
2
  0
TEXT
  5
202
330
17
100
AcDbEntity
  8
PLAT-TEXT-LOWCONF
100
AcDbText
 10
561.9792588025027
 20
230.59466301515724
 30
0.0
 40
14.516800603679785
  1
Z
 50
2.691297779677029
  7
PLAT
 72
1
 11
561.9792588025027
 21
230.59466301515724
 31
0.0
100
AcDbText
 73
2
  0
TEXT
  5
203
330
17
100
AcDbEntity
  8
PLAT-TEXT-LOWCONF
100
AcDbText
 10
188.51230281854004
 20
216.70057466296726
 30
0.0
 40
7.97951790619347
  1
8
 50
2.691297779677029
  7
PLAT
 72
1
 11
188.51230281854004
 21
216.70057466296726
 31
0.0
100
AcDbText
 73
2
  0
TEXT
  5
204
330
17
100
AcDbEntity
  8
PLAT-TEXT-LOWCONF
100
AcDbText
 10
475.87174346668724
 20
218.9379061241586
 30
0.0
 40
12.855241618919875
  1
‘0222699.
 50
340.7814873575868
  7
PLAT
 72
1
 11
475.87174346668724
 21
218.9379061241586
 31
0.0
100
AcDbText
 73
2
  0
TEXT
  5
205
330
17
100
AcDbEntity
  8
PLAT-TEXT-LOWCONF
100
AcDbText
 10
207.15368434029165
 20
212.9538931978803
 30
0.0
 40
14.22285768818808
  1
‘24
 50
16.85436494006143
  7
PLAT
 72
1
 11
207.15368434029165
 21
212.9538931978803
 31
0.0
100
AcDbText
 73
2
  0
TEXT
  5
206
330
17
100
AcDbEntity
  8
PLAT-TEXT-LOWCONF
100
AcDbText
 10
1144.5838576048818
 20
256.31667972035973
 30
0.0
 40
13.166204545219227
  1
A
 50
2.691297779677029
  7
PLAT
 72
1
 11
1144.5838576048818
 21
256.31667972035973
 31
0.0
100
AcDbText
 73
2
  0
TEXT
  5
207
330
17
100
AcDbEntity
  8
PLAT-TEXT-LOWCONF
100
AcDbText
 10
33.849631789832756
 20
199.2418730439936
 30
0.0
 40
14.516800603679785
  1
x
 50
301.03075176340747
  7
PLAT
 72
1
 11
33.849631789832756
 21
199.2418730439936
 31
0.0
100
AcDbText
 73
2
  0
TEXT
  5
208
330
17
100
AcDbEntity
  8
PLAT-TEXT-LOTNO
100
AcDbText
 10
292.93165376683066
 20
211.37899476513203
 30
0.0
 40
13.95033051861152
  1
25
 50
10.381630973870756
  7
PLAT
 72
1
 11
292.93165376683066
 21
211.37899476513203
 31
0.0
100
AcDbText
 73
2
  0
TEXT
  5
209
330
17
100
AcDbEntity
  8
PLAT-TEXT-LOWCONF
100
AcDbText
 10
188.6641463314096
 20
206.38945416010827
 30
0.0
 40
10.173885330396676
  1
ry
 50
92.69129777967703
  7
PLAT
 72
1
 11
188.6641463314096
 21
206.38945416010827
 31
0.0
100
AcDbText
 73
2
  0
TEXT
  5
20A
330
17
100
AcDbEntity
  8
PLAT-TEXT-LOWCONF
100
AcDbText
 10
652.1536607941351
 20
231.17213619089375
 30
0.0
 40
3.989758953096735
  1
4
 50
2.691297779677029
  7
PLAT
 72
1
 11
652.1536607941351
 21
231.17213619089375
 31
0.0
100
AcDbText
 73
2
  0
TEXT
  5
20B
330
17
100
AcDbEntity
  8
PLAT-TEXT-LOWCONF
100
AcDbText
 10
429.034430810265
 20
197.28763862576395
 30
0.0
 40
7.811908816080628
  1
M2.43%%d
 50
74.32546628854942
  7
PLAT
 72
1
 11
429.034430810265
 21
197.28763862576395
 31
0.0
100
AcDbText
 73
2
  0
TEXT
  5
20C
330
17
100
AcDbEntity
  8
PLAT-TEXT-LOTNO
100
AcDbText
 10
833.1979141775613
 20
231.69407916882432
 30
0.0
 40
11.969276859290206
  1
2
 50
2.691297779677029
  7
PLAT
 72
1
 11
833.1979141775613
 21
231.69407916882432
 31
0.0
100
AcDbText
 73
2
  0
TEXT
  5
20D
330
17
100
AcDbEntity
  8
PLAT-TEXT-LOTNO
100
AcDbText
 10
1015.2427786949427
 20
239.25284523531846
 30
0.0
 40
12.634236684806329
  1
4
 50
2.691297779677029
  7
PLAT
 72
1
 11
1015.2427786949427
 21
239.25284523531846
 31
0.0
100
AcDbText
 73
2
  0
TEXT
  5
20E
330
17
100
AcDbEntity
  8
PLAT-TEXT-LOTNO
100
AcDbText
 10
63.816537062886596
 20
192.86531270249216
 30
0.0
 40
13.299196510322451
  1
7
 50
2.691297779677029
  7
PLAT
 72
1
 11
63.816537062886596
 21
192.86531270249216
 31
0.0
100
AcDbText
 73
2
  0
TEXT
  5
20F
330
17
100
AcDbEntity
  8
PLAT-TEXT-LOTNO
100
AcDbText
 10
373.9319902466516
 20
207.32899276756376
 30
0.0
 40
14.453606766496453
  1
26
 50
11.324103032906578
  7
PLAT
 72
1
 11
373.9319902466516
 21
207.32899276756376
 31
0.0
100
AcDbText
 73
2
  0
TEXT
  5
210
330
17
100
AcDbEntity
  8
PLAT-TEXT-LOTNO
100
AcDbText
 10
929.2722961175873
 20
234.21312543147505
 30
0.0
 40
11.969276859290206
  1
3
 50
2.691297779677029
  7
PLAT
 72
1
 11
929.2722961175873
 21
234.21312543147505
 31
0.0
100
AcDbText
 73
2
  0
TEXT
  5
211
330
17
100
AcDbEntity
  8
PLAT-TEXT-LOTNO
100
AcDbText
 10
1113.9584546757217
 20
242.22889674463266
 30
0.0
 40
11.969276859290206
  1
5
 50
2.691297779677029
  7
PLAT
 72
1
 11
1113.9584546757217
 21
242.22889674463266
 31
0.0
100
AcDbText
 73
2
  0
TEXT
  5
212
330
17
100
AcDbEntity
  8
PLAT-TEXT-LOTNO
100
AcDbText
 10
1184.034338488596
 20
245.52292464877297
 30
0.0
 40
11.969276859290206
  1
6
 50
2.691297779677029
  7
PLAT
 72
1
 11
1184.034338488596
 21
245.52292464877297
 31
0.0
100
AcDbText
 73
2
  0
TEXT
  5
213
330
17
100
AcDbEntity
  8
PLAT-TEXT-LOWCONF
100
AcDbText
 10
1259.4552564095945
 20
248.40251027253646
 30
0.0
 40
10.63935720825796
  1
4
 50
2.691297779677029
  7
PLAT
 72
1
 11
1259.4552564095945
 21
248.40251027253646
 31
0.0
100
AcDbText
 73
2
  0
TEXT
  5
214
330
17
100
AcDbEntity
  8
PLAT-TEXT-LOWCONF
100
AcDbText
 10
535.9207024901727
 20
209.30027487295135
 30
0.0
 40
11.342812618611106
  1
to
 50
357.8439494332545
  7
PLAT
 72
1
 11
535.9207024901727
 21
209.30027487295135
 31
0.0
100
AcDbText
 73
2
  0
TEXT
  5
215
330
17
100
AcDbEntity
  8
PLAT-TEXT-LOWCONF
100
AcDbText
 10
587.6640520885057
 20
208.16987777436253
 30
0.0
 40
9.575421487432164
  1
a.
 50
2.691297779677029
  7
PLAT
 72
1
 11
587.6640520885057
 21
208.16987777436253
 31
0.0
100
AcDbText
 73
2
  0
TEXT
  5
216
330
17
100
AcDbEntity
  8
PLAT-TEXT-LOWCONF
100
AcDbText
 10
499.3239682290312
 20
187.40405849531592
 30
0.0
 40
11.322702980501655
  1
RICE
 50
57.26447749771728
  7
PLAT
 72
1
 11
499.3239682290312
 21
187.40405849531592
 31
0.0
100
AcDbText
 73
2
  0
TEXT
  5
217
330
17
100
AcDbEntity
  8
PLAT-TEXT-LOTNO
100
AcDbText
 10
531.2317606657274
 20
197.86170668761324
 30
0.0
 40
16.129778448533095
  1
3
 50
2.691297779677029
  7
PLAT
 72
1
 11
531.2317606657274
 21
197.86170668761324
 31
0.0
100
AcDbText
 73
2
  0
TEXT
  5
218
330
17
100
AcDbEntity
  8
PLAT-TEXT-LOTNO
100
AcDbText
 10
124.72521191237195
 20
178.75322254226853
 30
0.0
 40
15.29407598687082
  1
3
 50
92.69129777967703
  7
PLAT
 72
1
 11
124.72521191237195
 21
178.75322254226853
 31
0.0
100
AcDbText
 73
2
  0
TEXT
  5
219
330
17
100
AcDbEntity
  8
PLAT-TEXT-LOWCONF
100
AcDbText
 10
171.07319699168596
 20
181.85923608184424
 30
0.0
 40
8.678170182114568
  1
Pn
 50
30.369321582868395
  7
PLAT
 72
1
 11
171.07319699168596
 21
181.85923608184424
 31
0.0
100
AcDbText
 73
2
  0
TEXT
  5
21A
330
17
100
AcDbEntity
  8
PLAT-TEXT-LOWCONF
100
AcDbText
 10
243.76987267564164
 20
183.20703826045883
 30
0.0
 40
8.745227784083836
  1
\ 2,
 50
29.967190908244447
  7
PLAT
 72
1
 11
243.76987267564164
 21
183.20703826045883
 31
0.0
100
AcDbText
 73
2
  0
TEXT
  5
21B
330
17
100
AcDbEntity
  8
PLAT-TEXT-LOWCONF
100
AcDbText
 10
665.668990667668
 20
201.3526907558159
 30
0.0
 40
10.75244644083392
  1
a
 50
46.47573054683642
  7
PLAT
 72
1
 11
665.668990667668
 21
201.3526907558159
 31
0.0
100
AcDbText
 73
2
  0
TEXT
  5
21C
330
17
100
AcDbEntity
  8
PLAT-TEXT-LOTNO
100
AcDbText
 10
33.36961432614146
 20
170.56270439170117
 30
0.0
 40
10.97729123557909
  1
2
 50
80.3591865303888
  7
PLAT
 72
1
 11
33.36961432614146
 21
170.56270439170117
 31
0.0
100
AcDbText
 73
2
  0
TEXT
  5
21D
330
17
100
AcDbEntity
  8
PLAT-TEXT-LOTNO
100
AcDbText
 10
455.06295846278533
 20
187.4191724242977
 30
0.0
 40
15.050575130138602
  1
27
 50
15.517369191545924
  7
PLAT
 72
1
 11
455.06295846278533
 21
187.4191724242977
 31
0.0
100
AcDbText
 73
2
  0
TEXT
  5
21E
330
17
100
AcDbEntity
  8
PLAT-TEXT-LOTNO
100
AcDbText
 10
610.727434394088
 20
191.94596266207787
 30
0.0
 40
15.95903581238694
  1
4
 50
92.69129777967703
  7
PLAT
 72
1
 11
610.727434394088
 21
191.94596266207787
 31
0.0
100
AcDbText
 73
2
  0
TEXT
  5
21F
330
17
100
AcDbEntity
  8
PLAT-TEXT-LOWCONF
100
AcDbText
 10
837.002686596756
 20
197.11658308829334
 30
0.0
 40
8.992516252957813
  1
NXS.81%%d40'0IME.-
 50
352.11205582050394
  7
PLAT
 72
1
 11
837.002686596756
 21
197.11658308829334
 31
0.0
100
AcDbText
 73
2
  0
TEXT
  5
220
330
17
100
AcDbEntity
  8
PLAT-TEXT-LOWCONF
100
AcDbText
 10
1314.642460739893
 20
224.12911488402202
 30
0.0
 40
9.449701755683842
  1
“yee
 50
29.512812298802146
  7
PLAT
 72
1
 11
1314.642460739893
 21
224.12911488402202
 31
0.0
100
AcDbText
 73
2
  0
TEXT
  5
221
330
17
100
AcDbEntity
  8
PLAT-TEXT-LOWCONF
100
AcDbText
 10
1268.1190161300897
 20
219.59506852478472
 30
0.0
 40
11.31664505798454
  1
Evseme
 50
3.696776373043633
  7
PLAT
 72
1
 11
1268.1190161300897
 21
219.59506852478472
 31
0.0
100
AcDbText
 73
2
  0
TEXT
  5
222
330
17
100
AcDbEntity
  8
PLAT-TEXT-LOWCONF
100
AcDbText
 10
246.00976210768692
 20
170.34719175990213
 30
0.0
 40
8.789100864366635
  1
39% €8-- See Zor
 50
1.374264977723442
  7
PLAT
 72
1
 11
246.00976210768692
 21
170.34719175990213
 31
0.0
100
AcDbText
 73
2
  0
TEXT
  5
223
330
17
100
AcDbEntity
  8
PLAT-TEXT-LOWCONF
100
AcDbText
 10
125.12256797803911
 20
156.13830237599495
 30
0.0
 40
14.516800603679785
  1
A
 50
92.69129777967703
  7
PLAT
 72
1
 11
125.12256797803911
 21
156.13830237599495
 31
0.0
100
AcDbText
 73
2
  0
TEXT
  5
224
330
17
100
AcDbEntity
  8
PLAT-TEXT-LOWCONF
100
AcDbText
 10
503.81825288111685
 20
166.4719458112334
 30
0.0
 40
8.557406618706805
  1
"GF 60%%d
 50
57.26447749771728
  7
PLAT
 72
1
 11
503.81825288111685
 21
166.4719458112334
 31
0.0
100
AcDbText
 73
2
  0
TEXT
  5
225
330
17
100
AcDbEntity
  8
PLAT-TEXT-LOWCONF
100
AcDbText
 10
933.3359463026447
 20
197.25743724542784
 30
0.0
 40
14.516800603679785
  1
-— 88. so.
 50
2.4638214458818917
  7
PLAT
 72
1
 11
933.3359463026447
 21
197.25743724542784
 31
0.0
100
AcDbText
 73
2
  0
TEXT
  5
226
330
17
100
AcDbEntity
  8
PLAT-TEXT-LOWCONF
100
AcDbText
 10
529.613565640401
 20
174.8955141659847
 30
0.0
 40
11.784811427930887
  1
pt
 50
57.26447749771728
  7
PLAT
 72
1
 11
529.613565640401
 21
174.8955141659847
 31
0.0
100
AcDbText
 73
2
  0
TEXT
  5
227
330
17
100
AcDbEntity
  8
PLAT-TEXT-LOWCONF
100
AcDbText
 10
1168.9543349157811
 20
205.20526779169626
 30
0.0
 40
11.370813016325696
  1
Lyx:
 50
2.691297779677029
  7
PLAT
 72
1
 11
1168.9543349157811
 21
205.20526779169626
 31
0.0
100
AcDbText
 73
2
  0
TEXT
  5
228
330
17
100
AcDbEntity
  8
PLAT-TEXT-LOWCONF
100
AcDbText
 10
1120.174631295621
 20
202.29677471869132
 30
0.0
 40
10.278354809292455
  1
89.48:_\
 50
2.4638214458818988
  7
PLAT
 72
1
 11
1120.174631295621
 21
202.29677471869132
 31
0.0
100
AcDbText
 73
2
  0
TEXT
  5
229
330
17
100
AcDbEntity
  8
PLAT-TEXT-LOWCONF
100
AcDbText
 10
1016.2393807138787
 20
197.06507202562113
 30
0.0
 40
8.542377967563816
  1
1. oo OO. 4B -
 50
2.463821445881901
  7
PLAT
 72
1
 11
1016.2393807138787
 21
197.06507202562113
 31
0.0
100
AcDbText
 73
2
  0
TEXT
  5
22A
330
17
100
AcDbEntity
  8
PLAT-TEXT-LOWCONF
100
AcDbText
 10
842.7813123830545
 20
180.7055878787083
 30
0.0
 40
9.072590188733937
  1
—YOr 787
 50
352.11205582050394
  7
PLAT
 72
1
 11
842.7813123830545
 21
180.7055878787083
 31
0.0
100
AcDbText
 73
2
  0
TEXT
  5
22B
330
17
100
AcDbEntity
  8
PLAT-TEXT-LOWCONF
100
AcDbText
 10
486.16362909097217
 20
151.14170482357028
 30
0.0
 40
14.516800603679785
  1
Pee,
 50
92.69129777967703
  7
PLAT
 72
1
 11
486.16362909097217
 21
151.14170482357028
 31
0.0
100
AcDbText
 73
2
  0
TEXT
  5
22C
330
17
100
AcDbEntity
  8
PLAT-TEXT-LOWCONF
100
AcDbText
 10
752.5105957317778
 20
163.98842550716518
 30
0.0
 40
8.045867894195895
  1
BBlovte N
 50
53.25690731334578
  7
PLAT
 72
1
 11
752.5105957317778
 21
163.98842550716518
 31
0.0
100
AcDbText
 73
2
  0
TEXT
  5
22D
330
17
100
AcDbEntity
  8
PLAT-TEXT-LOWCONF
100
AcDbText
 10
241.00887214621798
 20
152.1160276126692
 30
0.0
 40
12.454535364084295
  1
‘we
 50
91.37426497772344
  7
PLAT
 72
1
 11
241.00887214621798
 21
152.1160276126692
 31
0.0
100
AcDbText
 73
2
  0
TEXT
  5
22E
330
17
100
AcDbEntity
  8
PLAT-TEXT-LOWCONF
100
AcDbText
 10
254.94625533836074
 20
119.46301150460116
 30
0.0
 40
7.286972229079603
  1
“Pu OP OFO/
 50
88.85353658008546
  7
PLAT
 72
1
 11
254.94625533836074
 21
119.46301150460116
 31
0.0
100
AcDbText
 73
2
  0
TEXT
  5
22F
330
17
100
AcDbEntity
  8
PLAT-TEXT-LOWCONF
100
AcDbText
 10
779.0650675976758
 20
176.84807222417643
 30
0.0
 40
6.747060495601562
  1
tos
 50
80.51508151302164
  7
PLAT
 72
1
 11
779.0650675976758
 21
176.84807222417643
 31
0.0
100
AcDbText
 73
2
  0
TEXT
  5
230
330
17
100
AcDbEntity
  8
PLAT-TEXT-LOWCONF
100
AcDbText
 10
11.360150667442781
 20
119.80094137867385
 30
0.0
 40
7.262354260771433
  1
4 I
 50
92.09368814818424
  7
PLAT
 72
1
 11
11.360150667442781
 21
119.80094137867385
 31
0.0
100
AcDbText
 73
2
  0
TEXT
  5
231
330
17
100
AcDbEntity
  8
PLAT-TEXT-LOWCONF
100
AcDbText
 10
390.1176073763569
 20
139.58617310219225
 30
0.0
 40
16.129778448533095
  1
0
 50
345.85407180268993
  7
PLAT
 72
1
 11
390.1176073763569
 21
139.58617310219225
 31
0.0
100
AcDbText
 73
2
  0
TEXT
  5
232
330
17
100
AcDbEntity
  8
PLAT-TEXT-LOWCONF
100
AcDbText
 10
541.7356625580028
 20
160.3932508622387
 30
0.0
 40
13.804545732507904
  1
8,28
 50
5.209743974464857
  7
PLAT
 72
1
 11
541.7356625580028
 21
160.3932508622387
 31
0.0
100
AcDbText
 73
2
  0
TEXT
  5
233
330
17
100
AcDbEntity
  8
PLAT-TEXT-LOWCONF
100
AcDbText
 10
651.5914939840791
 20
165.24199731935522
 30
0.0
 40
13.166204545219227
  1
“L
 50
2.691297779677029
  7
PLAT
 72
1
 11
651.5914939840791
 21
165.24199731935522
 31
0.0
100
AcDbText
 73
2
  0
TEXT
  5
234
330
17
100
AcDbEntity
  8
PLAT-TEXT-LOWCONF
100
AcDbText
 10
934.2405674768193
 20
178.13736294626682
 30
0.0
 40
9.214493759979858
  1
' O46" --75%%d—"
 50
2.4638214458819325
  7
PLAT
 72
1
 11
934.2405674768193
 21
178.13736294626682
 31
0.0
100
AcDbText
 73
2
  0
TEXT
  5
235
330
17
100
AcDbEntity
  8
PLAT-TEXT-LOWCONF
100
AcDbText
 10
995.7460136447233
 20
140.4005562109436
 30
0.0
 40
14.516800603679785
  1
a 3%%d08 orn)
 50
275.13943323978674
  7
PLAT
 72
1
 11
995.7460136447233
 21
140.4005562109436
 31
0.0
100
AcDbText
 73
2
  0
TEXT
  5
236
330
17
100
AcDbEntity
  8
PLAT-TEXT-LOWCONF
100
AcDbText
 10
232.46464388053772
 20
145.54027592113215
 30
0.0
 40
4.787710743716082
  1
i hey 4
 50
92.69129777967703
  7
PLAT
 72
1
 11
232.46464388053772
 21
145.54027592113215
 31
0.0
100
AcDbText
 73
2
  0
TEXT
  5
237
330
17
100
AcDbEntity
  8
PLAT-TEXT-LOWCONF
100
AcDbText
 10
556.223079906695
 20
131.01708886631846
 30
0.0
 40
8.689189739677282
  1
"90861 oSEN,
 50
55.197381290995395
  7
PLAT
 72
1
 11
556.223079906695
 21
131.01708886631846
 31
0.0
100
AcDbText
 73
2
  0
TEXT
  5
238
330
17
100
AcDbEntity
  8
PLAT-TEXT-LOWCONF
100
AcDbText
 10
1144.7284801479645
 20
182.43143571325322
 30
0.0
 40
13.166204545219227
  1
L
 50
2.691297779677029
  7
PLAT
 72
1
 11
1144.7284801479645
 21
182.43143571325322
 31
0.0
100
AcDbText
 73
2
  0
TEXT
  5
239
330
17
100
AcDbEntity
  8
PLAT-TEXT-LOWCONF
100
AcDbText
 10
448.1320184026222
 20
145.7264394156399
 30
0.0
 40
9.023554600385106
  1
$6.86
 50
345.2619844381705
  7
PLAT
 72
1
 11
448.1320184026222
 21
145.7264394156399
 31
0.0
100
AcDbText
 73
2
  0
TEXT
  5
23A
330
17
100
AcDbEntity
  8
PLAT-TEXT-LOTNO
100
AcDbText
 10
48.24683052204432
 20
127.5611088051962
 30
0.0
 40
13.299196510322451
  1
8
 50
2.691297779677029
  7
PLAT
 72
1
 11
48.24683052204432
 21
127.5611088051962
 31
0.0
100
AcDbText
 73
2
  0
TEXT
  5
23B
330
17
100
AcDbEntity
  8
PLAT-TEXT-LOWCONF
100
AcDbText
 10
343.7035166361206
 20
108.41475067913441
 30
0.0
 40
12.448769456464328
  1
PLEO HM %
 50
78.60198853770441
  7
PLAT
 72
1
 11
343.7035166361206
 21
108.41475067913441
 31
0.0
100
AcDbText
 73
2
  0
TEXT
  5
23C
330
17
100
AcDbEntity
  8
PLAT-TEXT-LOWCONF
100
AcDbText
 10
536.3127212982897
 20
153.49904232842897
 30
0.0
 40
7.780029958538633
  1
Pag!
 50
92.69129777967703
  7
PLAT
 72
1
 11
536.3127212982897
 21
153.49904232842897
 31
0.0
100
AcDbText
 73
2
  0
TEXT
  5
23D
330
17
100
AcDbEntity
  8
PLAT-TEXT-LOWCONF
100
AcDbText
 10
849.7621782181001
 20
131.96092366601107
 30
0.0
 40
9.025890850527674
  1
N.262.93:25"e .»
 50
58.44964756069902
  7
PLAT
 72
1
 11
849.7621782181001
 21
131.96092366601107
 31
0.0
100
AcDbText
 73
2
  0
TEXT
  5
23E
330
17
100
AcDbEntity
  8
PLAT-TEXT-UNASSOC
100
AcDbText
 10
244.36288844485898
 20
121.77070193093907
 30
0.0
 40
7.731308458491497
  1
"77.08"
 50
88.85353658008546
  7
PLAT
 72
1
 11
244.36288844485898
 21
121.77070193093907
 31
0.0
100
AcDbText
 73
2
  0
TEXT
  5
23F
330
17
100
AcDbEntity
  8
PLAT-TEXT-LOWCONF
100
AcDbText
 10
529.036977171461
 20
146.99379344789892
 30
0.0
 40
10.9958191571109
  1
ie
 50
72.40936381333665
  7
PLAT
 72
1
 11
529.036977171461
 21
146.99379344789892
 31
0.0
100
AcDbText
 73
2
  0
TEXT
  5
240
330
17
100
AcDbEntity
  8
PLAT-TEXT-LOWCONF
100
AcDbText
 10
234.67161258058172
 20
133.9943716844976
 30
0.0
 40
13.964156335838574
  1
08,
 50
92.69129777967703
  7
PLAT
 72
1
 11
234.67161258058172
 21
133.9943716844976
 31
0.0
100
AcDbText
 73
2
  0
TEXT
  5
241
330
17
100
AcDbEntity
  8
PLAT-TEXT-LOWCONF
100
AcDbText
 10
863.2008613356059
 20
121.51945181070786
 30
0.0
 40
12.575922629049618
  1
a 7 205 1m
 50
58.44964756069902
  7
PLAT
 72
1
 11
863.2008613356059
 21
121.51945181070786
 31
0.0
100
AcDbText
 73
2
  0
TEXT
  5
242
330
17
100
AcDbEntity
  8
PLAT-TEXT-LOWCONF
100
AcDbText
 10
894.5961394245871
 20
164.68232221394743
 30
0.0
 40
10.772349173361185
  1
ic
 50
92.69129777967703
  7
PLAT
 72
1
 11
894.5961394245871
 21
164.68232221394743
 31
0.0
100
AcDbText
 73
2
  0
TEXT
  5
243
330
17
100
AcDbEntity
  8
PLAT-TEXT-LOWCONF
100
AcDbText
 10
19.317488127000388
 20
119.87714554449023
 30
0.0
 40
2.9923192148225515
  1
In
 50
2.691297779677029
  7
PLAT
 72
1
 11
19.317488127000388
 21
119.87714554449023
 31
0.0
100
AcDbText
 73
2
  0
TEXT
  5
244
330
17
100
AcDbEntity
  8
PLAT-TEXT-LOWCONF
100
AcDbText
 10
525.8814098983912
 20
133.9684128382308
 30
0.0
 40
14.516800603679785
  1
ites
 50
48.65887953601316
  7
PLAT
 72
1
 11
525.8814098983912
 21
133.9684128382308
 31
0.0
100
AcDbText
 73
2
  0
TEXT
  5
245
330
17
100
AcDbEntity
  8
PLAT-TEXT-LOWCONF
100
AcDbText
 10
871.9773342201921
 20
121.70017050856609
 30
0.0
 40
11.44924206313459
  1
“io! Casement.
 50
58.44964756069902
  7
PLAT
 72
1
 11
871.9773342201921
 21
121.70017050856609
 31
0.0
100
AcDbText
 73
2
  0
TEXT
  5
246
330
17
100
AcDbEntity
  8
PLAT-TEXT-MISC
100
AcDbText
 10
232.37377168623215
 20
126.23087618246333
 30
0.0
 40
3.5907830577870614
  1
yee
 50
92.69129777967703
  7
PLAT
 72
1
 11
232.37377168623215
 21
126.23087618246333
 31
0.0
100
AcDbText
 73
2
  0
TEXT
  5
247
330
17
100
AcDbEntity
  8
PLAT-TEXT-LOWCONF
100
AcDbText
 10
25.353700081608736
 20
111.83971132197144
 30
0.0
 40
9.309437557225715
  1
5
 50
92.69129777967703
  7
PLAT
 72
1
 11
25.353700081608736
 21
111.83971132197144
 31
0.0
100
AcDbText
 73
2
  0
TEXT
  5
248
330
17
100
AcDbEntity
  8
PLAT-TEXT-LOWCONF
100
AcDbText
 10
424.4719870244763
 20
93.7714613379396
 30
0.0
 40
9.68862193452718
  1
\DoGLOZO6IN &
 50
71.05807128739633
  7
PLAT
 72
1
 11
424.4719870244763
 21
93.7714613379396
 31
0.0
100
AcDbText
 73
2
  0
TEXT
  5
249
330
17
100
AcDbEntity
  8
PLAT-TEXT-LOWCONF
100
AcDbText
 10
235.042017186617
 20
119.0336664736754
 30
0.0
 40
7.97951790619347
  1
8
 50
2.691297779677029
  7
PLAT
 72
1
 11
235.042017186617
 21
119.0336664736754
 31
0.0
100
AcDbText
 73
2
  0
TEXT
  5
24A
330
17
100
AcDbEntity
  8
PLAT-TEXT-LOTNO
100
AcDbText
 10
206.0778277278926
 20
113.46702591869007
 30
0.0
 40
14.837297951535147
  1
23
 50
19.736365071980345
  7
PLAT
 72
1
 11
206.0778277278926
 21
113.46702591869007
 31
0.0
100
AcDbText
 73
2
  0
TEXT
  5
24B
330
17
100
AcDbEntity
  8
PLAT-TEXT-LOWCONF
100
AcDbText
 10
927.7672783094697
 20
109.98926665930637
 30
0.0
 40
9.073410565865796
  1
N.6%%d38' 32H.
 50
275.7696898152743
  7
PLAT
 72
1
 11
927.7672783094697
 21
109.98926665930637
 31
0.0
100
AcDbText
 73
2
  0
TEXT
  5
24C
330
17
100
AcDbEntity
  8
PLAT-TEXT-LOWCONF
100
AcDbText
 10
170.28083955761707
 20
105.01413926862432
 30
0.0
 40
6.6524247844688436
  1
nat
 50
91.73165765299473
  7
PLAT
 72
1
 11
170.28083955761707
 21
105.01413926862432
 31
0.0
100
AcDbText
 73
2
  0
TEXT
  5
24D
330
17
100
AcDbEntity
  8
PLAT-TEXT-LOTNO
100
AcDbText
 10
307.38704964577636
 20
115.35612144844566
 30
0.0
 40
16.129778448533095
  1
22
 50
15.51755090720576
  7
PLAT
 72
1
 11
307.38704964577636
 21
115.35612144844566
 31
0.0
100
AcDbText
 73
2
  0
TEXT
  5
24E
330
17
100
AcDbEntity
  8
PLAT-TEXT-LOWCONF
100
AcDbText
 10
492.8659702146213
 20
108.97576214814711
 30
0.0
 40
8.955375065256113
  1
\a-.¢ 9—A
 50
324.857485242464
  7
PLAT
 72
1
 11
492.8659702146213
 21
108.97576214814711
 31
0.0
100
AcDbText
 73
2
  0
TEXT
  5
24F
330
17
100
AcDbEntity
  8
PLAT-TEXT-LOWCONF
100
AcDbText
 10
235.41669334632962
 20
111.06294983145276
 30
0.0
 40
9.575421487432164
  1
Se
 50
92.69129777967703
  7
PLAT
 72
1
 11
235.41669334632962
 21
111.06294983145276
 31
0.0
100
AcDbText
 73
2
  0
TEXT
  5
250
330
17
100
AcDbEntity
  8
PLAT-TEXT-LOWCONF
100
AcDbText
 10
18.214664845762286
 20
100.85302447928328
 30
0.0
 40
7.181566115574123
  1
a
 50
2.691297779677029
  7
PLAT
 72
1
 11
18.214664845762286
 21
100.85302447928328
 31
0.0
100
AcDbText
 73
2
  0
TEXT
  5
251
330
17
100
AcDbEntity
  8
PLAT-TEXT-LOWCONF
100
AcDbText
 10
519.5920348186775
 20
119.76120331325238
 30
0.0
 40
11.969276859290206
  1
x
 50
2.691297779677029
  7
PLAT
 72
1
 11
519.5920348186775
 21
119.76120331325238
 31
0.0
100
AcDbText
 73
2
  0
TEXT
  5
252
330
17
100
AcDbEntity
  8
PLAT-TEXT-LOWCONF
100
AcDbText
 10
1116.484840518242
 20
143.2470109817205
 30
0.0
 40
10.737520271577827
  1
By
 50
26.021495082124943
  7
PLAT
 72
1
 11
1116.484840518242
 21
143.2470109817205
 31
0.0
100
AcDbText
 73
2
  0
TEXT
  5
253
330
17
100
AcDbEntity
  8
PLAT-TEXT-MISC
100
AcDbText
 10
233.3572966054778
 20
105.30774499662884
 30
0.0
 40
5.386174586680593
  1
Fol
 50
92.69129777967703
  7
PLAT
 72
1
 11
233.3572966054778
 21
105.30774499662884
 31
0.0
100
AcDbText
 73
2
  0
TEXT
  5
254
330
17
100
AcDbEntity
  8
PLAT-TEXT-LOTNO
100
AcDbText
 10
1259.942055512538
 20
149.2118889474028
 30
0.0
 40
13.829563261608888
  1
8
 50
295.5914405931926
  7
PLAT
 72
1
 11
1259.942055512538
 21
149.2118889474028
 31
0.0
100
AcDbText
 73
2
  0
TEXT
  5
255
330
17
100
AcDbEntity
  8
PLAT-TEXT-LOWCONF
100
AcDbText
 10
1184.5735780828318
 20
145.52641053985815
 30
0.0
 40
12.86362172650833
  1
“3
 50
21.01189290987668
  7
PLAT
 72
1
 11
1184.5735780828318
 21
145.52641053985815
 31
0.0
100
AcDbText
 73
2
  0
TEXT
  5
256
330
17
100
AcDbEntity
  8
PLAT-TEXT-LOWCONF
100
AcDbText
 10
235.36131571901075
 20
98.07931227453155
 30
0.0
 40
6.583102272609613
  1
19
 50
92.69129777967703
  7
PLAT
 72
1
 11
235.36131571901075
 21
98.07931227453155
 31
0.0
100
AcDbText
 73
2
  0
TEXT
  5
257
330
17
100
AcDbEntity
  8
PLAT-TEXT-LOWCONF
100
AcDbText
 10
131.4411091899998
 20
92.52868430476065
 30
0.0
 40
5.984638429645103
  1
¢ 1
 50
92.69129777967703
  7
PLAT
 72
1
 11
131.4411091899998
 21
92.52868430476065
 31
0.0
100
AcDbText
 73
2
  0
TEXT
  5
258
330
17
100
AcDbEntity
  8
PLAT-TEXT-LOWCONF
100
AcDbText
 10
784.3422135627012
 20
117.35710493231547
 30
0.0
 40
8.237362912724087
  1
wo
 50
325.0181832296794
  7
PLAT
 72
1
 11
784.3422135627012
 21
117.35710493231547
 31
0.0
100
AcDbText
 73
2
  0
TEXT
  5
259
330
17
100
AcDbEntity
  8
PLAT-TEXT-LOTNO
100
AcDbText
 10
590.796218664367
 20
106.13306985932424
 30
0.0
 40
15.29407598687082
  1
29
 50
2.691297779677029
  7
PLAT
 72
1
 11
590.796218664367
 21
106.13306985932424
 31
0.0
100
AcDbText
 73
2
  0
TEXT
  5
25A
330
17
100
AcDbEntity
  8
PLAT-TEXT-LOWCONF
100
AcDbText
 10
235.05615398521684
 20
90.40948581242546
 30
0.0
 40
7.181566115574123
  1
83
 50
92.69129777967703
  7
PLAT
 72
1
 11
235.05615398521684
 21
90.40948581242546
 31
0.0
100
AcDbText
 73
2
  0
TEXT
  5
25B
330
17
100
AcDbEntity
  8
PLAT-TEXT-LOWCONF
100
AcDbText
 10
128.59966240835843
 20
75.08707167340991
 30
0.0
 40
14.516800603679785
  1
'G
 50
92.69129777967703
  7
PLAT
 72
1
 11
128.59966240835843
 21
75.08707167340991
 31
0.0
100
AcDbText
 73
2
  0
TEXT
  5
25C
330
17
100
AcDbEntity
  8
PLAT-TEXT-LOWCONF
100
AcDbText
 10
676.0138272231485
 20
102.34084249877858
 30
0.0
 40
8.045729215816056
  1
GL
 50
325.0119598865715
  7
PLAT
 72
1
 11
676.0138272231485
 21
102.34084249877858
 31
0.0
100
AcDbText
 73
2
  0
TEXT
  5
25D
330
17
100
AcDbEntity
  8
PLAT-TEXT-LOWCONF
100
AcDbText
 10
243.86989198679294
 20
72.85004952713712
 30
0.0
 40
14.516800603679785
  1
Va
 50
2.691297779677029
  7
PLAT
 72
1
 11
243.86989198679294
 21
72.85004952713712
 31
0.0
100
AcDbText
 73
2
  0
TEXT
  5
25E
330
17
100
AcDbEntity
  8
PLAT-TEXT-LOWCONF
100
AcDbText
 10
518.4295623564431
 20
80.76345612252469
 30
0.0
 40
14.516800603679785
  1
Ke
 50
2.691297779677029
  7
PLAT
 72
1
 11
518.4295623564431
 21
80.76345612252469
 31
0.0
100
AcDbText
 73
2
  0
TEXT
  5
25F
330
17
100
AcDbEntity
  8
PLAT-TEXT-LOWCONF
100
AcDbText
 10
1073.5652031323739
 20
109.5148701757418
 30
0.0
 40
6.028106589986211
  1
Be
 50
92.31194402660452
  7
PLAT
 72
1
 11
1073.5652031323739
 21
109.5148701757418
 31
0.0
100
AcDbText
 73
2
  0
TEXT
  5
260
330
17
100
AcDbEntity
  8
PLAT-TEXT-LOWCONF
100
AcDbText
 10
1040.9165675534941
 20
110.73407210642787
 30
0.0
 40
10.165738179438652
  1
5001
 50
6.347721010951659
  7
PLAT
 72
1
 11
1040.9165675534941
 21
110.73407210642787
 31
0.0
100
AcDbText
 73
2
  0
TEXT
  5
261
330
17
100
AcDbEntity
  8
PLAT-TEXT-LOWCONF
100
AcDbText
 10
1058.4300906304106
 20
113.13695529721195
 30
0.0
 40
6.590895864801234
  1
VR
 50
2.3119440266045217
  7
PLAT
 72
1
 11
1058.4300906304106
 21
113.13695529721195
 31
0.0
100
AcDbText
 73
2
  0
TEXT
  5
262
330
17
100
AcDbEntity
  8
PLAT-TEXT-LOWCONF
100
AcDbText
 10
1065.4242634826503
 20
113.46559615140421
 30
0.0
 40
8.378493801503144
  1
30%%d
 50
2.691297779677029
  7
PLAT
 72
1
 11
1065.4242634826503
 21
113.46559615140421
 31
0.0
100
AcDbText
 73
2
  0
TEXT
  5
263
330
17
100
AcDbEntity
  8
PLAT-TEXT-LOWCONF
100
AcDbText
 10
493.14512267795703
 20
56.8398125842009
 30
0.0
 40
11.486812174084502
  1
‘PRISLEW %
 50
62.4680869596786
  7
PLAT
 72
1
 11
493.14512267795703
 21
56.8398125842009
 31
0.0
100
AcDbText
 73
2
  0
TEXT
  5
264
330
17
100
AcDbEntity
  8
PLAT-TEXT-LOWCONF
100
AcDbText
 10
886.1781844256368
 20
98.7779007309073
 30
0.0
 40
14.95169466067539
  1
<7
 50
28.984471075134365
  7
PLAT
 72
1
 11
886.1781844256368
 21
98.7779007309073
 31
0.0
100
AcDbText
 73
2
  0
TEXT
  5
265
330
17
100
AcDbEntity
  8
PLAT-TEXT-LOWCONF
100
AcDbText
 10
1020.9835355841187
 20
105.78769379451862
 30
0.0
 40
8.648737831995803
  1
bin
 50
29.436848776002535
  7
PLAT
 72
1
 11
1020.9835355841187
 21
105.78769379451862
 31
0.0
100
AcDbText
 73
2
  0
TEXT
  5
266
330
17
100
AcDbEntity
  8
PLAT-TEXT-LOTNO
100
AcDbText
 10
462.4982744405803
 20
75.4685095850088
 30
0.0
 40
15.22398586487651
  1
20
 50
0.2451999977446393
  7
PLAT
 72
1
 11
462.4982744405803
 21
75.4685095850088
 31
0.0
100
AcDbText
 73
2
  0
TEXT
  5
267
330
17
100
AcDbEntity
  8
PLAT-TEXT-LOWCONF
100
AcDbText
 10
166.7373020250231
 20
63.89875738177844
 30
0.0
 40
9.309437557225715
  1
4
 50
2.691297779677029
  7
PLAT
 72
1
 11
166.7373020250231
 21
63.89875738177844
 31
0.0
100
AcDbText
 73
2
  0
TEXT
  5
268
330
17
100
AcDbEntity
  8
PLAT-TEXT-LOWCONF
100
AcDbText
 10
558.2052221124258
 20
63.74870833248909
 30
0.0
 40
7.829613933681463
  1
= gsi —
 50
324.857485242464
  7
PLAT
 72
1
 11
558.2052221124258
 21
63.74870833248909
 31
0.0
100
AcDbText
 73
2
  0
TEXT
  5
269
330
17
100
AcDbEntity
  8
PLAT-TEXT-LOWCONF
100
AcDbText
 10
12.150083068656272
 20
45.61007481047852
 30
0.0
 40
9.787161792225838
  1
SL
 50
92.09368814818424
  7
PLAT
 72
1
 11
12.150083068656272
 21
45.61007481047852
 31
0.0
100
AcDbText
 73
2
  0
TEXT
  5
26A
330
17
100
AcDbEntity
  8
PLAT-TEXT-LOWCONF
100
AcDbText
 10
354.8850190233715
 20
70.33816779185346
 30
0.0
 40
9.094493709454088
  1
8
 50
277.24568077535287
  7
PLAT
 72
1
 11
354.8850190233715
 21
70.33816779185346
 31
0.0
100
AcDbText
 73
2
  0
TEXT
  5
26B
330
17
100
AcDbEntity
  8
PLAT-TEXT-LOWCONF
100
AcDbText
 10
758.3401800632122
 20
89.37805837980576
 30
0.0
 40
7.780029958538633
  1
a
 50
2.691297779677029
  7
PLAT
 72
1
 11
758.3401800632122
 21
89.37805837980576
 31
0.0
100
AcDbText
 73
2
  0
TEXT
  5
26C
330
17
100
AcDbEntity
  8
PLAT-TEXT-LOWCONF
100
AcDbText
 10
992.4096061084053
 20
98.49887191093941
 30
0.0
 40
7.431421521135071
  1
35...
 50
55.923788762943275
  7
PLAT
 72
1
 11
992.4096061084053
 21
98.49887191093941
 31
0.0
100
AcDbText
 73
2
  0
TEXT
  5
26D
330
17
100
AcDbEntity
  8
PLAT-TEXT-LOWCONF
100
AcDbText
 10
129.46963522734382
 20
49.49874427295754
 30
0.0
 40
14.516800603679785
  1
wad
 50
92.69129777967703
  7
PLAT
 72
1
 11
129.46963522734382
 21
49.49874427295754
 31
0.0
100
AcDbText
 73
2
  0
TEXT
  5
26E
330
17
100
AcDbEntity
  8
PLAT-TEXT-LOWCONF
100
AcDbText
 10
365.196216580168
 20
69.23346853351907
 30
0.0
 40
7.97951790619347
  1
8
 50
92.69129777967703
  7
PLAT
 72
1
 11
365.196216580168
 21
69.23346853351907
 31
0.0
100
AcDbText
 73
2
  0
TEXT
  5
26F
330
17
100
AcDbEntity
  8
PLAT-TEXT-LOTNO
100
AcDbText
 10
50.618304825502946
 20
48.78783593662871
 30
0.0
 40
13.964156335838574
  1
4
 50
2.691297779677029
  7
PLAT
 72
1
 11
50.618304825502946
 21
48.78783593662871
 31
0.0
100
AcDbText
 73
2
  0
TEXT
  5
270
330
17
100
AcDbEntity
  8
PLAT-TEXT-LOWCONF
100
AcDbText
 10
378.9796285883797
 20
65.81206701976302
 30
0.0
 40
8.75630741916267
  1
75%%d31
 50
344.8792268350146
  7
PLAT
 72
1
 11
378.9796285883797
 21
65.81206701976302
 31
0.0
100
AcDbText
 73
2
  0
TEXT
  5
271
330
17
100
AcDbEntity
  8
PLAT-TEXT-LOWCONF
100
AcDbText
 10
976.9122547308368
 20
88.6376900441311
 30
0.0
 40
10.700621530031878
  1
2565:
 50
28.057416337238465
  7
PLAT
 72
1
 11
976.9122547308368
 21
88.6376900441311
 31
0.0
100
AcDbText
 73
2
  0
TEXT
  5
272
330
17
100
AcDbEntity
  8
PLAT-TEXT-LOWCONF
100
AcDbText
 10
398.227266242206
 20
60.467887189474766
 30
0.0
 40
10.173885330396676
  1
‘05,
 50
2.691297779677029
  7
PLAT
 72
1
 11
398.227266242206
 21
60.467887189474766
 31
0.0
100
AcDbText
 73
2
  0
TEXT
  5
273
330
17
100
AcDbEntity
  8
PLAT-TEXT-LOWCONF
100
AcDbText
 10
1332.985402176346
 20
107.40329716327014
 30
0.0
 40
5.31967860412898
  1
3
 50
2.691297779677029
  7
PLAT
 72
1
 11
1332.985402176346
 21
107.40329716327014
 31
0.0
100
AcDbText
 73
2
  0
TEXT
  5
274
330
17
100
AcDbEntity
  8
PLAT-TEXT-LOWCONF
100
AcDbText
 10
776.2033033742396
 20
77.56955537566394
 30
0.0
 40
7.314558080677348
  1
<3)
 50
2.691297779677029
  7
PLAT
 72
1
 11
776.2033033742396
 21
77.56955537566394
 31
0.0
100
AcDbText
 73
2
  0
TEXT
  5
275
330
17
100
AcDbEntity
  8
PLAT-TEXT-LOWCONF
100
AcDbText
 10
918.011402471721
 20
66.30567710037178
 30
0.0
 40
10.121865793266187
  1
SE
 50
275.7696898152743
  7
PLAT
 72
1
 11
918.011402471721
 21
66.30567710037178
 31
0.0
100
AcDbText
 73
2
  0
TEXT
  5
276
330
17
100
AcDbEntity
  8
PLAT-TEXT-LOWCONF
100
AcDbText
 10
963.0226446528219
 20
82.68997698791625
 30
0.0
 40
7.181566115574123
  1
30%
 50
2.691297779677029
  7
PLAT
 72
1
 11
963.0226446528219
 21
82.68997698791625
 31
0.0
100
AcDbText
 73
2
  0
TEXT
  5
277
330
17
100
AcDbEntity
  8
PLAT-TEXT-LOTNO
100
AcDbText
 10
648.9924295049248
 20
64.2666448512283
 30
0.0
 40
14.098146388564691
  1
30
 50
4.007818892201669
  7
PLAT
 72
1
 11
648.9924295049248
 21
64.2666448512283
 31
0.0
100
AcDbText
 73
2
  0
TEXT
  5
278
330
17
100
AcDbEntity
  8
PLAT-TEXT-LOWCONF
100
AcDbText
 10
788.5762885977902
 20
69.90227306991642
 30
0.0
 40
7.685193290637102
  1
Vgo
 50
340.0973034226451
  7
PLAT
 72
1
 11
788.5762885977902
 21
69.90227306991642
 31
0.0
100
AcDbText
 73
2
  0
TEXT
  5
279
330
17
100
AcDbEntity
  8
PLAT-TEXT-LOWCONF
100
AcDbText
 10
958.6540670646431
 20
76.49337841308358
 30
0.0
 40
9.575421487432164
  1
a
 50
2.691297779677029
  7
PLAT
 72
1
 11
958.6540670646431
 21
76.49337841308358
 31
0.0
100
AcDbText
 73
2
  0
TEXT
  5
27A
330
17
100
AcDbEntity
  8
PLAT-TEXT-LOWCONF
100
AcDbText
 10
425.7007382981791
 20
50.93913086308007
 30
0.0
 40
8.39626051862809
  1
YN
 50
341.05807128739633
  7
PLAT
 72
1
 11
425.7007382981791
 21
50.93913086308007
 31
0.0
100
AcDbText
 73
2
  0
TEXT
  5
27B
330
17
100
AcDbEntity
  8
PLAT-TEXT-MISC
100
AcDbText
 10
1036.9720459154676
 20
74.97504381858847
 30
0.0
 40
13.307822347534172
  1
Date
 50
9.778010032874647
  7
PLAT
 72
1
 11
1036.9720459154676
 21
74.97504381858847
 31
0.0
100
AcDbText
 73
2
  0
TEXT
  5
27C
330
17
100
AcDbEntity
  8
PLAT-TEXT-LOWCONF
100
AcDbText
 10
173.60092383233018
 20
38.2593239076846
 30
0.0
 40
3.5907830577870614
  1
‘ e
 50
92.69129777967703
  7
PLAT
 72
1
 11
173.60092383233018
 21
38.2593239076846
 31
0.0
100
AcDbText
 73
2
  0
TEXT
  5
27D
330
17
100
AcDbEntity
  8
PLAT-TEXT-LOWCONF
100
AcDbText
 10
949.6118593208739
 20
67.82968401581459
 30
0.0
 40
12.62778442158966
  1
i
 50
5.769689815274319
  7
PLAT
 72
1
 11
949.6118593208739
 21
67.82968401581459
 31
0.0
100
AcDbText
 73
2
  0
TEXT
  5
27E
330
17
100
AcDbEntity
  8
PLAT-TEXT-LOWCONF
100
AcDbText
 10
434.78239742501444
 20
47.5409493974401
 30
0.0
 40
6.583102272609613
  1
29,
 50
2.691297779677029
  7
PLAT
 72
1
 11
434.78239742501444
 21
47.5409493974401
 31
0.0
100
AcDbText
 73
2
  0
TEXT
  5
27F
330
17
100
AcDbEntity
  8
PLAT-TEXT-LOWCONF
100
AcDbText
 10
333.02659662976066
 20
38.430745339911994
 30
0.0
 40
14.629116161354697
  1
3
 50
2.691297779677029
  7
PLAT
 72
1
 11
333.02659662976066
 21
38.430745339911994
 31
0.0
100
AcDbText
 73
2
  0
TEXT
  5
280
330
17
100
AcDbEntity
  8
PLAT-TEXT-LOWCONF
100
AcDbText
 10
454.95742634642255
 20
39.11685732439096
 30
0.0
 40
9.166329461032317
  1
36%%d3140%%d
 50
336.2463830991943
  7
PLAT
 72
1
 11
454.95742634642255
 21
39.11685732439096
 31
0.0
100
AcDbText
 73
2
  0
TEXT
  5
281
330
17
100
AcDbEntity
  8
PLAT-TEXT-LOWCONF
100
AcDbText
 10
129.96066033293937
 20
24.891144946128264
 30
0.0
 40
14.516800603679785
  1
h
 50
2.691297779677029
  7
PLAT
 72
1
 11
129.96066033293937
 21
24.891144946128264
 31
0.0
100
AcDbText
 73
2
  0
TEXT
  5
282
330
17
100
AcDbEntity
  8
PLAT-TEXT-LOWCONF
100
AcDbText
 10
205.18931771961695
 20
31.134028586537397
 30
0.0
 40
10.513878203284914
  1
RN 68%%d58"
 50
1.9439235425675314
  7
PLAT
 72
1
 11
205.18931771961695
 21
31.134028586537397
 31
0.0
100
AcDbText
 73
2
  0
TEXT
  5
283
330
17
100
AcDbEntity
  8
PLAT-TEXT-LOWCONF
100
AcDbText
 10
592.0114983432275
 20
48.00559193466725
 30
0.0
 40
3.590654634781195
  1
ms
 50
55.29056869269863
  7
PLAT
 72
1
 11
592.0114983432275
 21
48.00559193466725
 31
0.0
100
AcDbText
 73
2
  0
TEXT
  5
284
330
17
100
AcDbEntity
  8
PLAT-TEXT-MISC
100
AcDbText
 10
369.4028182611874
 20
30.343952453197204
 30
0.0
 40
12.460901652851327
  1
Curve
 50
344.8792268350146
  7
PLAT
 72
1
 11
369.4028182611874
 21
30.343952453197204
 31
0.0
100
AcDbText
 73
2
  0
TEXT
  5
285
330
17
100
AcDbEntity
  8
PLAT-TEXT-LOWCONF
100
AcDbText
 10
251.71442653103935
 20
30.561319359225735
 30
0.0
 40
8.545093796195127
  1
¥20"E.
 50
359.22697070984196
  7
PLAT
 72
1
 11
251.71442653103935
 21
30.561319359225735
 31
0.0
100
AcDbText
 73
2
  0
TEXT
  5
286
330
17
100
AcDbEntity
  8
PLAT-TEXT-LOWCONF
100
AcDbText
 10
990.6464885724033
 20
48.89224135392149
 30
0.0
 40
14.516800603679785
  1
aan
 50
22.197634054046034
  7
PLAT
 72
1
 11
990.6464885724033
 21
48.89224135392149
 31
0.0
100
AcDbText
 73
2
  0
TEXT
  5
287
330
17
100
AcDbEntity
  8
PLAT-TEXT-LOWCONF
100
AcDbText
 10
1099.0626871961665
 20
63.455532795924086
 30
0.0
 40
14.516800603679785
  1
K.
 50
2.691297779677029
  7
PLAT
 72
1
 11
1099.0626871961665
 21
63.455532795924086
 31
0.0
100
AcDbText
 73
2
  0
TEXT
  5
288
330
17
100
AcDbEntity
  8
PLAT-TEXT-LOTNO
100
AcDbText
 10
1162.2110284670598
 20
65.42537948003798
 30
0.0
 40
16.129778448533095
  1
7
 50
2.691297779677029
  7
PLAT
 72
1
 11
1162.2110284670598
 21
65.42537948003798
 31
0.0
100
AcDbText
 73
2
  0
TEXT
  5
289
330
17
100
AcDbEntity
  8
PLAT-TEXT-LOTNO
100
AcDbText
 10
1123.369396342879
 20
63.266720008012925
 30
0.0
 40
16.129778448533095
  1
3
 50
2.691297779677029
  7
PLAT
 72
1
 11
1123.369396342879
 21
63.266720008012925
 31
0.0
100
AcDbText
 73
2
  0
TEXT
  5
28A
330
17
100
AcDbEntity
  8
PLAT-TEXT-LOTNO
100
AcDbText
 10
1142.2842368615034
 20
64.48868908075639
 30
0.0
 40
16.129778448533095
  1
3
 50
2.691297779677029
  7
PLAT
 72
1
 11
1142.2842368615034
 21
64.48868908075639
 31
0.0
100
AcDbText
 73
2
  0
TEXT
  5
28B
330
17
100
AcDbEntity
  8
PLAT-TEXT-LOWCONF
100
AcDbText
 10
814.5126065372591
 20
51.903129861638774
 30
0.0
 40
5.935904895586595
  1
tr.
 50
354.9780129472436
  7
PLAT
 72
1
 11
814.5126065372591
 21
51.903129861638774
 31
0.0
100
AcDbText
 73
2
  0
TEXT
  5
28C
330
17
100
AcDbEntity
  8
PLAT-TEXT-LOWCONF
100
AcDbText
 10
320.31236463544633
 20
23.190605552769625
 30
0.0
 40
10.16020939278396
  1
42396%%d
 50
355.3047564982737
  7
PLAT
 72
1
 11
320.31236463544633
 21
23.190605552769625
 31
0.0
100
AcDbText
 73
2
  0
TEXT
  5
28D
330
17
100
AcDbEntity
  8
PLAT-TEXT-LOWCONF
100
AcDbText
 10
1034.1603464876591
 20
59.193977106916606
 30
0.0
 40
4.083382980779505
  1
hdd
 50
16.63858807672068
  7
PLAT
 72
1
 11
1034.1603464876591
 21
59.193977106916606
 31
0.0
100
AcDbText
 73
2
  0
TEXT
  5
28E
330
17
100
AcDbEntity
  8
PLAT-TEXT-LOWCONF
100
AcDbText
 10
1264.584111352504
 20
68.12942250166674
 30
0.0
 40
10.15321053121005
  1
S.87%%d3S8S'30" KW.
 50
2.9376599233237357
  7
PLAT
 72
1
 11
1264.584111352504
 21
68.12942250166674
 31
0.0
100
AcDbText
 73
2
  0
TEXT
  5
28F
330
17
100
AcDbEntity
  8
PLAT-TEXT-LOTNO
100
AcDbText
 10
530.4194341990518
 20
30.777632191219624
 30
0.0
 40
14.273704374239676
  1
19
 50
18.60870746320205
  7
PLAT
 72
1
 11
530.4194341990518
 21
30.777632191219624
 31
0.0
100
AcDbText
 73
2
  0
TEXT
  5
290
330
17
100
AcDbEntity
  8
PLAT-TEXT-LOWCONF
100
AcDbText
 10
1013.8836850827845
 20
47.53583379998389
 30
0.0
 40
10.281853380452235
  1
90/710
 50
22.5916621798973
  7
PLAT
 72
1
 11
1013.8836850827845
 21
47.53583379998389
 31
0.0
100
AcDbText
 73
2
  0
TEXT
  5
291
330
17
100
AcDbEntity
  8
PLAT-TEXT-LOWCONF
100
AcDbText
 10
1335.112838635062
 20
69.22589142594126
 30
0.0
 40
5.386174586680593
  1
a
 50
92.69129777967703
  7
PLAT
 72
1
 11
1335.112838635062
 21
69.22589142594126
 31
0.0
100
AcDbText
 73
2
  0
TEXT
  5
292
330
17
100
AcDbEntity
  8
PLAT-TEXT-LOWCONF
100
AcDbText
 10
622.4681096180386
 20
19.884934536031295
 30
0.0
 40
14.516800603679785
  1
set
 50
324.857485242464
  7
PLAT
 72
1
 11
622.4681096180386
 21
19.884934536031295
 31
0.0
100
AcDbText
 73
2
  0
TEXT
  5
293
330
17
100
AcDbEntity
  8
PLAT-TEXT-LOWCONF
100
AcDbText
 10
10.739092292325267
 20
4.974523726468391
 30
0.0
 40
4.189246900751572
  1
A
 50
2.691297779677029
  7
PLAT
 72
1
 11
10.739092292325267
 21
4.974523726468391
 31
0.0
100
AcDbText
 73
2
  0
TEXT
  5
294
330
17
100
AcDbEntity
  8
PLAT-TEXT-LOWCONF
100
AcDbText
 10
130.83063315192464
 20
-0.6971824543240928
 30
0.0
 40
14.516800603679785
  1
M
 50
92.69129777967703
  7
PLAT
 72
1
 11
130.83063315192464
 21
-0.6971824543240928
 31
0.0
100
AcDbText
 73
2
  0
TEXT
  5
295
330
17
100
AcDbEntity
  8
PLAT-TEXT-LOWCONF
100
AcDbText
 10
419.19058504918837
 20
14.774137882255758
 30
0.0
 40
12.748931618618682
  1
Oats
 50
344.8792268350146
  7
PLAT
 72
1
 11
419.19058504918837
 21
14.774137882255758
 31
0.0
100
AcDbText
 73
2
  0
TEXT
  5
296
330
17
100
AcDbEntity
  8
PLAT-TEXT-LOWCONF
100
AcDbText
 10
827.1513792665692
 20
41.68704111657502
 30
0.0
 40
5.984638429645103
  1
on
 50
2.691297779677029
  7
PLAT
 72
1
 11
827.1513792665692
 21
41.68704111657502
 31
0.0
100
AcDbText
 73
2
  0
TEXT
  5
297
330
17
100
AcDbEntity
  8
PLAT-TEXT-LOWCONF
100
AcDbText
 10
1035.6190691261136
 20
34.07583770534356
 30
0.0
 40
14.516800603679785
  1
ene
 50
5.30060400540907
  7
PLAT
 72
1
 11
1035.6190691261136
 21
34.07583770534356
 31
0.0
100
AcDbText
 73
2
  0
TEXT
  5
298
330
17
100
AcDbEntity
  8
PLAT-TEXT-LOWCONF
100
AcDbText
 10
839.4529976557928
 20
34.40265473112444
 30
0.0
 40
8.351996069578068
  1
60,
 50
341.32772504109175
  7
PLAT
 72
1
 11
839.4529976557928
 21
34.40265473112444
 31
0.0
100
AcDbText
 73
2
  0
TEXT
  5
299
330
17
100
AcDbEntity
  8
PLAT-TEXT-LOWCONF
100
AcDbText
 10
500.32782782027266
 20
8.170064497152538
 30
0.0
 40
14.516800603679785
  1
624 VSS
 50
332.4680869596786
  7
PLAT
 72
1
 11
500.32782782027266
 21
8.170064497152538
 31
0.0
100
AcDbText
 73
2
  0
TEXT
  5
29A
330
17
100
AcDbEntity
  8
PLAT-TEXT-LOWCONF
100
AcDbText
 10
388.7180371034751
 20
8.181472548422846
 30
0.0
 40
9.962544524491024
  1
“#00,
 50
352.3505043848668
  7
PLAT
 72
1
 11
388.7180371034751
 21
8.181472548422846
 31
0.0
100
AcDbText
 73
2
  0
TEXT
  5
29B
330
17
100
AcDbEntity
  8
PLAT-TEXT-LOWCONF
100
AcDbText
 10
168.2614834154508
 20
-3.930391610387602
 30
0.0
 40
9.575421487432164
  1
J
 50
2.691297779677029
  7
PLAT
 72
1
 11
168.2614834154508
 21
-3.930391610387602
 31
0.0
100
AcDbText
 73
2
  0
TEXT
  5
29C
330
17
100
AcDbEntity
  8
PLAT-TEXT-LOWCONF
100
AcDbText
 10
994.8599988393161
 20
35.59087483999616
 30
0.0
 40
10.63935720825796
  1
2,
 50
92.69129777967703
  7
PLAT
 72
1
 11
994.8599988393161
 21
35.59087483999616
 31
0.0
100
AcDbText
 73
2
  0
TEXT
  5
29D
330
17
100
AcDbEntity
  8
PLAT-TEXT-LOWCONF
100
AcDbText
 10
369.0663333557839
 20
-3.2046492206516177
 30
0.0
 40
10.698168161375206
  1
7.2 150
 50
348.1481049650391
  7
PLAT
 72
1
 11
369.0663333557839
 21
-3.2046492206516177
 31
0.0
100
AcDbText
 73
2
  0
TEXT
  5
29E
330
17
100
AcDbEntity
  8
PLAT-TEXT-LOWCONF
100
AcDbText
 10
553.606456829474
 20
12.186276948501103
 30
0.0
 40
8.378493801503144
  1
fo.
 50
92.69129777967703
  7
PLAT
 72
1
 11
553.606456829474
 21
12.186276948501103
 31
0.0
100
AcDbText
 73
2
  0
TEXT
  5
29F
330
17
100
AcDbEntity
  8
PLAT-TEXT-LOWCONF
100
AcDbText
 10
252.4284042087234
 20
-8.92001522872269
 30
0.0
 40
14.516800603679785
  1
FI
 50
354.3303188487291
  7
PLAT
 72
1
 11
252.4284042087234
 21
-8.92001522872269
 31
0.0
100
AcDbText
 73
2
  0
TEXT
  5
2A0
330
17
100
AcDbEntity
  8
PLAT-TEXT-LOTNO
100
AcDbText
 10
988.4675190772723
 20
29.964833612087176
 30
0.0
 40
11.969276859290206
  1
6
 50
2.691297779677029
  7
PLAT
 72
1
 11
988.4675190772723
 21
29.964833612087176
 31
0.0
100
AcDbText
 73
2
  0
TEXT
  5
2A1
330
17
100
AcDbEntity
  8
PLAT-TEXT-LOWCONF
100
AcDbText
 10
204.3798609576454
 20
-7.880959463408232
 30
0.0
 40
7.909139278854978
  1
so"
 50
2.2644054776860685
  7
PLAT
 72
1
 11
204.3798609576454
 21
-7.880959463408232
 31
0.0
100
AcDbText
 73
2
  0
TEXT
  5
2A2
330
17
100
AcDbEntity
  8
PLAT-TEXT-LOWCONF
100
AcDbText
 10
515.5695546520374
 20
7.069821748951881
 30
0.0
 40
4.787710743716082
  1
av
 50
92.69129777967703
  7
PLAT
 72
1
 11
515.5695546520374
 21
7.069821748951881
 31
0.0
100
AcDbText
 73
2
  0
TEXT
  5
2A3
330
17
100
AcDbEntity
  8
PLAT-TEXT-LOWCONF
100
AcDbText
 10
533.6822906705773
 20
-0.12255687091101208
 30
0.0
 40
12.255298389917614
  1
WOR,
 50
351.61886527683316
  7
PLAT
 72
1
 11
533.6822906705773
 21
-0.12255687091101208
 31
0.0
100
AcDbText
 73
2
  0
TEXT
  5
2A4
330
17
100
AcDbEntity
  8
PLAT-TEXT-LOWCONF
100
AcDbText
 10
426.3458467893787
 20
-5.7011832562807285
 30
0.0
 40
10.583335179651476
  1
“2.
 50
343.352077612911
  7
PLAT
 72
1
 11
426.3458467893787
 21
-5.7011832562807285
 31
0.0
100
AcDbText
 73
2
  0
TEXT
  5
2A5
330
17
100
AcDbEntity
  8
PLAT-TEXT-LOWCONF
100
AcDbText
 10
496.0716005095594
 20
-1.718385417626564
 30
0.0
 40
11.009509600223565
  1
G2."
 50
336.2463830991943
  7
PLAT
 72
1
 11
496.0716005095594
 21
-1.718385417626564
 31
0.0
100
AcDbText
 73
2
  0
TEXT
  5
2A6
330
17
100
AcDbEntity
  8
PLAT-TEXT-LOWCONF
100
AcDbText
 10
945.8278667118366
 20
23.633477739094445
 30
0.0
 40
2.9923192148225515
  1
e
 50
92.69129777967703
  7
PLAT
 72
1
 11
945.8278667118366
 21
23.633477739094445
 31
0.0
100
AcDbText
 73
2
  0
TEXT
  5
2A7
330
17
100
AcDbEntity
  8
PLAT-TEXT-LOWCONF
100
AcDbText
 10
977.889511899325
 20
20.835263960087843
 30
0.0
 40
8.971536608210966
  1
a=,
 50
49.624766909319646
  7
PLAT
 72
1
 11
977.889511899325
 21
20.835263960087843
 31
0.0
100
AcDbText
 73
2
  0
TEXT
  5
2A8
330
17
100
AcDbEntity
  8
PLAT-TEXT-LOWCONF
100
AcDbText
 10
96.8409719269871
 20
-24.392880201436782
 30
0.0
 40
5.816674220764802
  1
de
 50
331.2024359021707
  7
PLAT
 72
1
 11
96.8409719269871
 21
-24.392880201436782
 31
0.0
100
AcDbText
 73
2
  0
TEXT
  5
2A9
330
17
100
AcDbEntity
  8
PLAT-TEXT-LOWCONF
100
AcDbText
 10
1048.320978797601
 20
20.565821867097895
 30
0.0
 40
6.848327502131297
  1
Ov ~
 50
10.334638192876582
  7
PLAT
 72
1
 11
1048.320978797601
 21
20.565821867097895
 31
0.0
100
AcDbText
 73
2
  0
TEXT
  5
2AA
330
17
100
AcDbEntity
  8
PLAT-TEXT-LOWCONF
100
AcDbText
 10
1104.215067985684
 20
24.411710838580973
 30
0.0
 40
6.6962714974759825
  1
TN OE .
 50
2.9376599233237357
  7
PLAT
 72
1
 11
1104.215067985684
 21
24.411710838580973
 31
0.0
100
AcDbText
 73
2
  0
TEXT
  5
2AB
330
17
100
AcDbEntity
  8
PLAT-TEXT-LOWCONF
100
AcDbText
 10
1194.5603259299935
 20
28.677187193633074
 30
0.0
 40
6.637085938083447
  1
22%%d
 50
2.9376599233237357
  7
PLAT
 72
1
 11
1194.5603259299935
 21
28.677187193633074
 31
0.0
100
AcDbText
 73
2
  0
TEXT
  5
2AC
330
17
100
AcDbEntity
  8
PLAT-TEXT-LOWCONF
100
AcDbText
 10
1264.9533708259535
 20
32.30609027983374
 30
0.0
 40
7.186651830065667
  1
75%%d
 50
2.9376599233237357
  7
PLAT
 72
1
 11
1264.9533708259535
 21
32.30609027983374
 31
0.0
100
AcDbText
 73
2
  0
TEXT
  5
2AD
330
17
100
AcDbEntity
  8
PLAT-TEXT-LOWCONF
100
AcDbText
 10
1334.380419959859
 20
35.24106514991212
 30
0.0
 40
7.314558080677348
  1
7
 50
2.691297779677029
  7
PLAT
 72
1
 11
1334.380419959859
 21
35.24106514991212
 31
0.0
100
AcDbText
 73
2
  0
TEXT
  5
2AE
330
17
100
AcDbEntity
  8
PLAT-TEXT-LOWCONF
100
AcDbText
 10
13.59747271818901
 20
-27.510123202655365
 30
0.0
 40
5.386174586680593
  1
vi
 50
2.691297779677029
  7
PLAT
 72
1
 11
13.59747271818901
 21
-27.510123202655365
 31
0.0
100
AcDbText
 73
2
  0
TEXT
  5
2AF
330
17
100
AcDbEntity
  8
PLAT-TEXT-LOWCONF
100
AcDbText
 10
54.096221524581665
 20
-25.277237743187982
 30
0.0
 40
6.033770786058384
  1
lf
 50
3.005405118131307
  7
PLAT
 72
1
 11
54.096221524581665
 21
-25.277237743187982
 31
0.0
100
AcDbText
 73
2
  0
TEXT
  5
2B0
330
17
100
AcDbEntity
  8
PLAT-TEXT-LOWCONF
100
AcDbText
 10
991.7020503709036
 20
17.801537508564792
 30
0.0
 40
4.654718778612858
  1
8
 50
2.691297779677029
  7
PLAT
 72
1
 11
991.7020503709036
 21
17.801537508564792
 31
0.0
100
AcDbText
 73
2
  0
TEXT
  5
2B1
330
17
100
AcDbEntity
  8
PLAT-TEXT-CURVE
100
AcDbText
 10
461.8540021037343
 20
280.43464064955583
 30
0.0
 40
8.644473220556838
  1
%%c=37%%d42'36"  R=359.30'*  T=122.70'  L=236.48'*  (UNCHECKED)
  7
PLAT
 72
1
 11
461.8540021037343
 21
280.43464064955583
 31
0.0
100
AcDbText
 73
3
  0
CIRCLE
  5
2B2
330
17
100
AcDbEntity
  8
PLAT-QA
100
AcDbCircle
 10
254.36363240786523
 20
365.9182982057308
 30
0.0
 40
24.66293515563989
  0
TEXT
  5
2B3
330
17
100
AcDbEntity
  8
PLAT-QA
100
AcDbText
 10
254.36363240786523
 20
343.40081184636904
 30
0.0
 40
6.051131254389786
  1
MEAS 54.90
 72
1
 11
254.36363240786523
 21
343.40081184636904
 31
0.0
100
AcDbText
 73
3
  0
CIRCLE
  5
2B4
330
17
100
AcDbEntity
  8
PLAT-QA
100
AcDbCircle
 10
161.1662537023759
 20
361.5179283188487
 30
0.0
 40
22.93246252006505
  0
TEXT
  5
2B5
330
17
100
AcDbEntity
  8
PLAT-QA
100
AcDbText
 10
161.1662537023759
 20
338.667795228138
 30
0.0
 40
6.051131254389786
  1
MEAS 53.09
 72
1
 11
161.1662537023759
 21
338.667795228138
 31
0.0
100
AcDbText
 73
3
  0
CIRCLE
  5
2B6
330
17
100
AcDbEntity
  8
PLAT-QA
100
AcDbCircle
 10
86.62337200366824
 20
352.0397266853927
 30
0.0
 40
22.675124636716472
  0
TEXT
  5
2B7
330
17
100
AcDbEntity
  8
PLAT-QA
100
AcDbText
 10
86.62337200366824
 20
328.2341721497599
 30
0.0
 40
6.051131254389786
  1
MEAS 63.14
 72
1
 11
86.62337200366824
 21
328.2341721497599
 31
0.0
100
AcDbText
 73
3
  0
CIRCLE
  5
2B8
330
17
100
AcDbEntity
  8
PLAT-QA
100
AcDbCircle
 10
594.977933464938
 20
354.3467286049106
 30
0.0
 40
38.64936707530572
  0
TEXT
  5
2B9
330
17
100
AcDbEntity
  8
PLAT-QA
100
AcDbText
 10
594.977933464938
 20
331.10759436936246
 30
0.0
 40
6.051131254389786
  1
MEAS 115.91
 72
1
 11
594.977933464938
 21
331.10759436936246
 31
0.0
100
AcDbText
 73
3
  0
CIRCLE
  5
2BA
330
17
100
AcDbEntity
  8
PLAT-QA
100
AcDbCircle
 10
732.9434277568367
 20
344.5585922023477
 30
0.0
 40
32.20660267677559
  0
TEXT
  5
2BB
330
17
100
AcDbEntity
  8
PLAT-QA
100
AcDbText
 10
732.9434277568367
 20
320.62071485836395
 30
0.0
 40
6.051131254389786
  1
MEAS 50.90
 72
1
 11
732.9434277568367
 21
320.62071485836395
 31
0.0
100
AcDbText
 73
3
  0
CIRCLE
  5
2BC
330
17
100
AcDbEntity
  8
PLAT-QA
100
AcDbCircle
 10
773.022823866434
 20
272.4684439835306
 30
0.0
 40
18.355633586280582
  0
TEXT
  5
2BD
330
17
100
AcDbEntity
  8
PLAT-QA
100
AcDbText
 10
773.022823866434
 20
248.62033777651584
 30
0.0
 40
6.051131254389786
  1
MEAS 28.37
 72
1
 11
773.022823866434
 21
248.62033777651584
 31
0.0
100
AcDbText
 73
3
  0
CIRCLE
  5
2BE
330
17
100
AcDbEntity
  8
PLAT-QA
100
AcDbCircle
 10
371.8177168619697
 20
165.11560419190874
 30
0.0
 40
40.12506956440704
  0
TEXT
  5
2BF
330
17
100
AcDbEntity
  8
PLAT-QA
100
AcDbText
 10
371.8177168619697
 20
141.47483957116322
 30
0.0
 40
6.051131254389786
  1
MEAS 87.11
 72
1
 11
371.8177168619697
 21
141.47483957116322
 31
0.0
100
AcDbText
 73
3
  0
CIRCLE
  5
2C0
330
17
100
AcDbEntity
  8
PLAT-QA
100
AcDbCircle
 10
1014.0755292842998
 20
146.32467803547533
 30
0.0
 40
32.49614392657948
  0
TEXT
  5
2C1
330
17
100
AcDbEntity
  8
PLAT-QA
100
AcDbText
 10
1014.0755292842998
 20
122.38560137775573
 30
0.0
 40
6.051131254389786
  1
MEAS 90.06
 72
1
 11
1014.0755292842998
 21
122.38560137775573
 31
0.0
100
AcDbText
 73
3
  0
CIRCLE
  5
2C2
330
17
100
AcDbEntity
  8
PLAT-QA
100
AcDbCircle
 10
458.6634829529397
 20
128.277657125953
 30
0.0
 40
19.29797677544934
  0
TEXT
  5
2C3
330
17
100
AcDbEntity
  8
PLAT-QA
100
AcDbText
 10
458.6634829529397
 20
105.62489762025618
 30
0.0
 40
6.051131254389786
  1
MEAS 26.24
 72
1
 11
458.6634829529397
 21
105.62489762025618
 31
0.0
100
AcDbText
 73
3
  0
CIRCLE
  5
2C4
330
17
100
AcDbEntity
  8
PLAT-QA
100
AcDbCircle
 10
880.5551184540197
 20
49.77625999994933
 30
0.0
 40
27.078404823780474
  0
TEXT
  5
2C5
330
17
100
AcDbEntity
  8
PLAT-QA
100
AcDbText
 10
880.5551184540197
 20
26.745869288995245
 30
0.0
 40
6.051131254389786
  1
MEAS 109.61
 72
1
 11
880.5551184540197
 21
26.745869288995245
 31
0.0
100
AcDbText
 73
3
  0
CIRCLE
  5
2C6
330
17
100
AcDbEntity
  8
PLAT-QA
100
AcDbCircle
 10
361.19899344400574
 20
15.571738809579955
 30
0.0
 40
22.82154384569911
  0
TEXT
  5
2C7
330
17
100
AcDbEntity
  8
PLAT-QA
100
AcDbText
 10
361.19899344400574
 20
-8.711533175444352
 30
0.0
 40
6.051131254389786
  1
MEAS 35.00
 72
1
 11
361.19899344400574
 21
-8.711533175444352
 31
0.0
100
AcDbText
 73
3
  0
CIRCLE
  5
2C8
330
17
100
AcDbEntity
  8
PLAT-QA
100
AcDbCircle
 10
802.209198125058
 20
13.67766695348547
 30
0.0
 40
21.611979439537194
  0
TEXT
  5
2C9
330
17
100
AcDbEntity
  8
PLAT-QA
100
AcDbText
 10
802.209198125058
 20
-9.093189328089977
 30
0.0
 40
6.051131254389786
  1
MEAS 58.40
 72
1
 11
802.209198125058
 21
-9.093189328089977
 31
0.0
100
AcDbText
 73
3
  0
CIRCLE
  5
2CA
330
17
100
AcDbEntity
  8
PLAT-QA
100
AcDbCircle
 10
309.07253259152657
 20
-12.233570333065188
 30
0.0
 40
30.35540072987086
  0
TEXT
  5
2CB
330
17
100
AcDbEntity
  8
PLAT-QA
100
AcDbText
 10
309.07253259152657
 20
-36.21130748700999
 30
0.0
 40
6.051131254389786
  1
MEAS 69.87
 72
1
 11
309.07253259152657
 21
-36.21130748700999
 31
0.0
100
AcDbText
 73
3
  0
ENDSEC
  0
SECTION
  2
OBJECTS
  0
DICTIONARY
  5
A
330
0
100
AcDbDictionary
281
1
  3
ACAD_COLOR
350
B
  3
ACAD_GROUP
350
C
  3
ACAD_LAYOUT
350
D
  3
ACAD_MATERIAL
350
E
  3
ACAD_MLEADERSTYLE
350
F
  3
ACAD_MLINESTYLE
350
10
  3
ACAD_PLOTSETTINGS
350
11
  3
ACAD_PLOTSTYLENAME
350
12
  3
ACAD_SCALELIST
350
14
  3
ACAD_TABLESTYLE
350
15
  3
ACAD_VISUALSTYLE
350
16
  3
EZDXF_META
350
2D
  0
DICTIONARY
  5
B
330
A
100
AcDbDictionary
281
1
  0
DICTIONARY
  5
C
330
A
100
AcDbDictionary
281
1
  0
DICTIONARY
  5
D
330
A
100
AcDbDictionary
281
1
  3
Model
350
1A
  3
Layout1
350
1E
  0
DICTIONARY
  5
E
330
A
100
AcDbDictionary
281
1
  3
ByBlock
350
1F
  3
ByLayer
350
20
  3
Global
350
21
  0
DICTIONARY
  5
F
330
A
100
AcDbDictionary
281
1
  3
Standard
350
2C
  0
DICTIONARY
  5
10
330
A
100
AcDbDictionary
281
1
  3
Standard
350
22
  0
DICTIONARY
  5
11
330
A
100
AcDbDictionary
281
1
  0
ACDBDICTIONARYWDFLT
  5
12
330
A
100
AcDbDictionary
281
1
  3
Normal
350
13
100
AcDbDictionaryWithDefault
340
13
  0
ACDBPLACEHOLDER
  5
13
330
12
  0
DICTIONARY
  5
14
330
A
100
AcDbDictionary
281
1
  0
DICTIONARY
  5
15
330
A
100
AcDbDictionary
281
1
  0
DICTIONARY
  5
16
330
A
100
AcDbDictionary
281
1
  3
2dWireframe
350
5A
  3
Basic
350
5B
  3
Brighten
350
5C
  3
ColorChange
350
5D
  3
Conceptual
350
5E
  3
Dim
350
5F
  3
EdgeColorOff
350
60
  3
Facepattern
350
61
  3
Flat
350
62
  3
FlatWithEdges
350
63
  3
Gouraud
350
64
  3
GouraudWithEdges
350
65
  3
Hidden
350
66
  3
JitterOff
350
67
  3
Linepattern
350
68
  3
Modeling
350
69
  3
OverhangOff
350
6A
  3
Realistic
350
6B
  3
Shaded
350
6C
  3
Shaded with edges
350
6D
  3
Shades of Gray
350
6E
  3
Sketchy
350
6F
  3
Thicken
350
70
  3
Wireframe
350
71
  3
X-Ray
350
72
  0
LAYOUT
  5
1A
330
D
100
AcDbPlotSettings
  1

  4
A3
  6

 40
7.5
 41
20.0
 42
7.5
 43
20.0
 44
420.0
 45
297.0
 46
0.0
 47
0.0
 48
0.0
 49
0.0
140
0.0
141
0.0
142
1.0
143
1.0
 70
1024
 72
1
 73
0
 74
5
  7

 75
16
 76
0
 77
2
 78
300
147
1.0
148
0.0
149
0.0
100
AcDbLayout
  1
Model
 70
1
 71
0
 10
0.0
 20
0.0
 11
420.0
 21
297.0
 12
0.0
 22
0.0
 32
0.0
 14
1e+20
 24
1e+20
 34
1e+20
 15
-1e+20
 25
-1e+20
 35
-1e+20
146
0.0
 13
0.0
 23
0.0
 33
0.0
 16
1.0
 26
0.0
 36
0.0
 17
0.0
 27
1.0
 37
0.0
 76
1
330
17
  0
LAYOUT
  5
1E
330
D
100
AcDbPlotSettings
  1

  4
A3
  6

 40
7.5
 41
20.0
 42
7.5
 43
20.0
 44
420.0
 45
297.0
 46
0.0
 47
0.0
 48
0.0
 49
0.0
140
0.0
141
0.0
142
1.0
143
1.0
 70
0
 72
1
 73
0
 74
5
  7

 75
16
 76
0
 77
2
 78
300
147
1.0
148
0.0
149
0.0
100
AcDbLayout
  1
Layout1
 70
1
 71
1
 10
0.0
 20
0.0
 11
420.0
 21
297.0
 12
0.0
 22
0.0
 32
0.0
 14
1e+20
 24
1e+20
 34
1e+20
 15
-1e+20
 25
-1e+20
 35
-1e+20
146
0.0
 13
0.0
 23
0.0
 33
0.0
 16
1.0
 26
0.0
 36
0.0
 17
0.0
 27
1.0
 37
0.0
 76
1
330
1B
  0
MATERIAL
  5
1F
102
{ACAD_REACTORS
330
E
102
}
330
E
100
AcDbMaterial
  1
ByBlock
  2

 70
0
 40
1.0
 71
1
 41
1.0
 91
-1023410177
 42
1.0
 72
1
  3

 73
1
 74
1
 75
1
 44
0.5
 73
0
 45
1.0
 46
1.0
 77
1
  4

 78
1
 79
1
170
1
 48
1.0
171
1
  6

172
1
173
1
174
1
140
1.0
141
1.0
175
1
  7

176
1
177
1
178
1
143
1.0
179
1
  8

270
1
271
1
272
1
145
1.0
146
1.0
273
1
  9

274
1
275
1
276
1
 42
1.0
 72
1
  3

 73
1
 74
1
 75
1
 94
63
  0
MATERIAL
  5
20
102
{ACAD_REACTORS
330
E
102
}
330
E
100
AcDbMaterial
  1
ByLayer
  2

 70
0
 40
1.0
 71
1
 41
1.0
 91
-1023410177
 42
1.0
 72
1
  3

 73
1
 74
1
 75
1
 44
0.5
 73
0
 45
1.0
 46
1.0
 77
1
  4

 78
1
 79
1
170
1
 48
1.0
171
1
  6

172
1
173
1
174
1
140
1.0
141
1.0
175
1
  7

176
1
177
1
178
1
143
1.0
179
1
  8

270
1
271
1
272
1
145
1.0
146
1.0
273
1
  9

274
1
275
1
276
1
 42
1.0
 72
1
  3

 73
1
 74
1
 75
1
 94
63
  0
MATERIAL
  5
21
102
{ACAD_REACTORS
330
E
102
}
330
E
100
AcDbMaterial
  1
Global
  2

 70
0
 40
1.0
 71
1
 41
1.0
 91
-1023410177
 42
1.0
 72
1
  3

 73
1
 74
1
 75
1
 44
0.5
 73
0
 45
1.0
 46
1.0
 77
1
  4

 78
1
 79
1
170
1
 48
1.0
171
1
  6

172
1
173
1
174
1
140
1.0
141
1.0
175
1
  7

176
1
177
1
178
1
143
1.0
179
1
  8

270
1
271
1
272
1
145
1.0
146
1.0
273
1
  9

274
1
275
1
276
1
 42
1.0
 72
1
  3

 73
1
 74
1
 75
1
 94
63
  0
MLINESTYLE
  5
22
102
{ACAD_REACTORS
330
10
102
}
330
10
100
AcDbMlineStyle
  2
Standard
 70
0
  3

 62
256
 51
90.0
 52
90.0
 71
2
 49
0.5
 62
256
  6
BYLAYER
 49
-0.5
 62
256
  6
BYLAYER
  0
MLEADERSTYLE
  5
2C
102
{ACAD_REACTORS
330
F
102
}
330
F
100
AcDbMLeaderStyle
179
2
170
2
171
1
172
0
 90
2
 40
0.0
 41
0.0
173
1
 91
-1056964608
 92
-2
290
1
 42
2.0
291
1
 43
8.0
  3
Standard
 44
4.0
300

342
29
174
1
175
1
176
0
178
1
 93
-1056964608
 45
4.0
292
0
297
0
 46
4.0
 94
-1056964608
 47
1.0
 49
1.0
140
1.0
294
1
141
0.0
177
0
142
1.0
295
0
296
0
143
3.75
271
0
272
9
273
9
  0
DICTIONARY
  5
2D
330
A
100
AcDbDictionary
280
1
281
1
  3
CREATED_BY_EZDXF
350
2E
  3
WRITTEN_BY_EZDXF
350
2CE
  0
DICTIONARYVAR
  5
2E
330
2D
100
DictionaryVariables
280
0
  1
1.4.4 @ 2026-09-24T06:59:49.946589+00:00
  0
VISUALSTYLE
  5
5A
102
{ACAD_REACTORS
330
16
102
}
330
16
100
AcDbVisualStyle
  2
2dWireframe
 70
4
 90
0
 40
0.6
 62
7
290
0
291
0
  0
VISUALSTYLE
  5
5B
102
{ACAD_REACTORS
330
16
102
}
330
16
100
AcDbVisualStyle
  2
Basic
 70
7
 90
1
 40
0.6
 62
7
290
0
291
1
  0
VISUALSTYLE
  5
5C
102
{ACAD_REACTORS
330
16
102
}
330
16
100
AcDbVisualStyle
  2
Brighten
 70
12
 90
2
 40
0.6
 62
7
290
0
291
1
  0
VISUALSTYLE
  5
5D
102
{ACAD_REACTORS
330
16
102
}
330
16
100
AcDbVisualStyle
  2
ColorChange
 70
16
 90
2
 40
0.6
 62
8
290
0
291
1
  0
VISUALSTYLE
  5
5E
102
{ACAD_REACTORS
330
16
102
}
330
16
100
AcDbVisualStyle
  2
Conceptual
 70
9
 90
3
 40
0.6
 62
7
290
0
291
0
  0
VISUALSTYLE
  5
5F
102
{ACAD_REACTORS
330
16
102
}
330
16
100
AcDbVisualStyle
  2
Dim
 70
11
 90
2
 40
0.6
 62
7
290
0
291
1
  0
VISUALSTYLE
  5
60
102
{ACAD_REACTORS
330
16
102
}
330
16
100
AcDbVisualStyle
  2
EdgeColorOff
 70
22
 90
2
 40
0.6
 62
7
290
0
291
1
  0
VISUALSTYLE
  5
61
102
{ACAD_REACTORS
330
16
102
}
330
16
100
AcDbVisualStyle
  2
Facepattern
 70
15
 90
2
 40
0.6
 62
7
290
0
291
1
  0
VISUALSTYLE
  5
62
102
{ACAD_REACTORS
330
16
102
}
330
16
100
AcDbVisualStyle
  2
Flat
 70
0
 90
2
 40
0.6
 62
7
290
0
291
1
  0
VISUALSTYLE
  5
63
102
{ACAD_REACTORS
330
16
102
}
330
16
100
AcDbVisualStyle
  2
FlatWithEdges
 70
1
 90
2
 40
0.6
 62
7
290
0
291
1
  0
VISUALSTYLE
  5
64
102
{ACAD_REACTORS
330
16
102
}
330
16
100
AcDbVisualStyle
  2
Gouraud
 70
2
 90
2
 40
0.6
 62
7
290
0
291
1
  0
VISUALSTYLE
  5
65
102
{ACAD_REACTORS
330
16
102
}
330
16
100
AcDbVisualStyle
  2
GouraudWithEdges
 70
3
 90
2
 40
0.6
 62
7
290
0
291
1
  0
VISUALSTYLE
  5
66
102
{ACAD_REACTORS
330
16
102
}
330
16
100
AcDbVisualStyle
  2
Hidden
 70
6
 90
1
 40
0.6
 62
7
290
0
291
0
  0
VISUALSTYLE
  5
67
102
{ACAD_REACTORS
330
16
102
}
330
16
100
AcDbVisualStyle
  2
JitterOff
 70
20
 90
2
 40
0.6
 62
7
290
0
291
1
  0
VISUALSTYLE
  5
68
102
{ACAD_REACTORS
330
16
102
}
330
16
100
AcDbVisualStyle
  2
Linepattern
 70
14
 90
2
 40
0.6
 62
7
290
0
291
1
  0
VISUALSTYLE
  5
69
102
{ACAD_REACTORS
330
16
102
}
330
16
100
AcDbVisualStyle
  2
Modeling
 70
10
 90
2
 40
0.6
 62
7
290
0
291
0
  0
VISUALSTYLE
  5
6A
102
{ACAD_REACTORS
330
16
102
}
330
16
100
AcDbVisualStyle
  2
OverhangOff
 70
21
 90
2
 40
0.6
 62
7
290
0
291
1
  0
VISUALSTYLE
  5
6B
102
{ACAD_REACTORS
330
16
102
}
330
16
100
AcDbVisualStyle
  2
Realistic
 70
8
 90
2
 40
0.6
 62
7
290
0
291
0
  0
VISUALSTYLE
  5
6C
102
{ACAD_REACTORS
330
16
102
}
330
16
100
AcDbVisualStyle
  2
Shaded
 70
27
 90
2
 40
0.6
 62
7
290
0
291
0
  0
VISUALSTYLE
  5
6D
102
{ACAD_REACTORS
330
16
102
}
330
16
100
AcDbVisualStyle
  2
Shaded with edges
 70
26
 90
2
 40
0.6
 62
7
290
0
291
0
  0
VISUALSTYLE
  5
6E
102
{ACAD_REACTORS
330
16
102
}
330
16
100
AcDbVisualStyle
  2
Shades of Gray
 70
23
 90
2
 40
0.6
 62
7
290
0
291
0
  0
VISUALSTYLE
  5
6F
102
{ACAD_REACTORS
330
16
102
}
330
16
100
AcDbVisualStyle
  2
Sketchy
 70
24
 90
1
 40
0.6
 62
7
290
0
291
0
  0
VISUALSTYLE
  5
70
102
{ACAD_REACTORS
330
16
102
}
330
16
100
AcDbVisualStyle
  2
Thicken
 70
13
 90
2
 40
0.6
 62
7
290
0
291
1
  0
VISUALSTYLE
  5
71
102
{ACAD_REACTORS
330
16
102
}
330
16
100
AcDbVisualStyle
  2
Wireframe
 70
5
 90
0
 40
0.6
 62
7
290
0
291
0
  0
VISUALSTYLE
  5
72
102
{ACAD_REACTORS
330
16
102
}
330
16
100
AcDbVisualStyle
  2
X-Ray
 70
25
 90
2
 40
0.5
 62
7
290
0
291
0
  0
DICTIONARYVAR
  5
2CE
330
2D
100
DictionaryVariables
280
0
  1
1.4.4 @ 2026-09-24T06:59:50.005525+00:00
  0
ENDSEC
  0
EOF
