  0
SECTION
  2
HEADER
  9
$ACADVER
  1
AC1024
  9
$ACADMAINTVER
 70
6
  9
$DWGCODEPAGE
  3
ANSI_1252
  9
$LASTSAVEDBY
  1
ezdxf
  9
$INSBASE
 10
0.0
 20
0.0
 30
0.0
  9
$EXTMIN
 10
1e+20
 20
1e+20
 30
1e+20
  9
$EXTMAX
 10
-1e+20
 20
-1e+20
 30
-1e+20
  9
$LIMMIN
 10
0.0
 20
0.0
  9
$LIMMAX
 10
420.0
 20
297.0
  9
$ORTHOMODE
 70
0
  9
$REGENMODE
 70
1
  9
$FILLMODE
 70
1
  9
$QTEXTMODE
 70
0
  9
$MIRRTEXT
 70
1
  9
$LTSCALE
 40
1.0
  9
$ATTMODE
 70
1
  9
$TEXTSIZE
 40
2.5
  9
$TRACEWID
 40
1.0
  9
$TEXTSTYLE
  7
OpenSans
  9
$CLAYER
  8
0
  9
$CELTYPE
  6
ByLayer
  9
$CECOLOR
 62
256
  9
$CELTSCALE
 40
1.0
  9
$DISPSILH
 70
0
  9
$DIMSCALE
 40
1.0
  9
$DIMASZ
 40
0.175
  9
$DIMEXO
 40
0.125
  9
$DIMDLI
 40
3.75
  9
$DIMRND
 40
0.0
  9
$DIMDLE
 40
0.0
  9
$DIMEXE
 40
0.375
  9
$DIMTP
 40
0.0
  9
$DIMTM
 40
0.0
  9
$DIMTXT
 40
0.25
  9
$DIMCEN
 40
2.5
  9
$DIMTSZ
 40
0.0
  9
$DIMTOL
 70
0
  9
$DIMLIM
 70
0
  9
$DIMTIH
 70
0
  9
$DIMTOH
 70
0
  9
$DIMSE1
 70
0
  9
$DIMSE2
 70
0
  9
$DIMTAD
 70
1
  9
$DIMZIN
 70
12
  9
$DIMBLK
  1
ARCHTICK
  9
$DIMASO
 70
1
  9
$DIMSHO
 70
1
  9
$DIMPOST
  1

  9
$DIMAPOST
  1

  9
$DIMALT
 70
0
  9
$DIMALTD
 70
3
  9
$DIMALTF
 40
0.03937007874
  9
$DIMLFAC
 40
100.0
  9
$DIMTOFL
 70
1
  9
$DIMTVP
 40
0.0
  9
$DIMTIX
 70
0
  9
$DIMSOXD
 70
0
  9
$DIMSAH
 70
0
  9
$DIMBLK1
  1

  9
$DIMBLK2
  1

  9
$DIMSTYLE
  2
EZDXF
  9
$DIMCLRD
 70
0
  9
$DIMCLRE
 70
0
  9
$DIMCLRT
 70
0
  9
$DIMTFAC
 40
0.5
  9
$DIMGAP
 40
0.1
  9
$DIMJUST
 70
0
  9
$DIMSD1
 70
0
  9
$DIMSD2
 70
0
  9
$DIMTOLJ
 70
0
  9
$DIMTZIN
 70
8
  9
$DIMALTZ
 70
0
  9
$DIMALTTZ
 70
0
  9
$DIMUPT
 70
1
  9
$DIMDEC
 70
2
  9
$DIMTDEC
 70
2
  9
$DIMALTU
 70
2
  9
$DIMALTTD
 70
3
  9
$DIMTXSTY
  7
OpenSansCondensed-Light
  9
$DIMAUNIT
 70
0
  9
$DIMADEC
 70
2
  9
$DIMALTRND
 40
0.0
  9
$DIMAZIN
 70
3
  9
$DIMDSEP
 70
46
  9
$DIMATFIT
 70
3
  9
$DIMFRAC
 70
0
  9
$DIMLDRBLK
  1

  9
$DIMLUNIT
 70
2
  9
$DIMLWD
 70
-2
  9
$DIMLWE
 70
-2
  9
$DIMTMOVE
 70
2
  9
$DIMFXL
 40
1.0
  9
$DIMFXLON
 70
0
  9
$DIMJOGANG
 40
0.785398163397
  9
$DIMTFILL
 70
0
  9
$DIMTFILLCLR
 70
0
  9
$DIMARCSYM
 70
0
  9
$DIMLTYPE
  6

  9
$DIMLTEX1
  6

  9
$DIMLTEX2
  6

  9
$DIMTXTDIRECTION
 70
0
  9
$LUNITS
 70
2
  9
$LUPREC
 70
4
  9
$SKETCHINC
 40
1.0
  9
$FILLETRAD
 40
10.0
  9
$AUNITS
 70
0
  9
$AUPREC
 70
2
  9
$MENU
  1
.
  9
$ELEVATION
 40
0.0
  9
$PELEVATION
 40
0.0
  9
$THICKNESS
 40
0.0
  9
$LIMCHECK
 70
0
  9
$CHAMFERA
 40
0.0
  9
$CHAMFERB
 40
0.0
  9
$CHAMFERC
 40
0.0
  9
$CHAMFERD
 40
0.0
  9
$SKPOLY
 70
0
  9
$TDCREATE
 40
2461308.1250694445
  9
$TDUCREATE
 40
2458532.153996898
  9
$TDUPDATE
 40
2461308.1250694445
  9
$TDUUPDATE
 40
2458532.1544311
  9
$TDINDWG
 40
0.0
  9
$TDUSRTIMER
 40
0.0
  9
$USRTIMER
 70
1
  9
$ANGBASE
 50
0.0
  9
$ANGDIR
 70
0
  9
$PDMODE
 70
0
  9
$PDSIZE
 40
0.0
  9
$PLINEWID
 40
0.0
  9
$SPLFRAME
 70
0
  9
$SPLINETYPE
 70
6
  9
$SPLINESEGS
 70
8
  9
$HANDSEED
  5
2DA
  9
$SURFTAB1
 70
6
  9
$SURFTAB2
 70
6
  9
$SURFTYPE
 70
6
  9
$SURFU
 70
6
  9
$SURFV
 70
6
  9
$UCSBASE
  2

  9
$UCSNAME
  2

  9
$UCSORG
 10
0.0
 20
0.0
 30
0.0
  9
$UCSXDIR
 10
1.0
 20
0.0
 30
0.0
  9
$UCSYDIR
 10
0.0
 20
1.0
 30
0.0
  9
$UCSORTHOREF
  2

  9
$UCSORTHOVIEW
 70
0
  9
$UCSORGTOP
 10
0.0
 20
0.0
 30
0.0
  9
$UCSORGBOTTOM
 10
0.0
 20
0.0
 30
0.0
  9
$UCSORGLEFT
 10
0.0
 20
0.0
 30
0.0
  9
$UCSORGRIGHT
 10
0.0
 20
0.0
 30
0.0
  9
$UCSORGFRONT
 10
0.0
 20
0.0
 30
0.0
  9
$UCSORGBACK
 10
0.0
 20
0.0
 30
0.0
  9
$PUCSBASE
  2

  9
$PUCSNAME
  2

  9
$PUCSORG
 10
0.0
 20
0.0
 30
0.0
  9
$PUCSXDIR
 10
1.0
 20
0.0
 30
0.0
  9
$PUCSYDIR
 10
0.0
 20
1.0
 30
0.0
  9
$PUCSORTHOREF
  2

  9
$PUCSORTHOVIEW
 70
0
  9
$PUCSORGTOP
 10
0.0
 20
0.0
 30
0.0
  9
$PUCSORGBOTTOM
 10
0.0
 20
0.0
 30
0.0
  9
$PUCSORGLEFT
 10
0.0
 20
0.0
 30
0.0
  9
$PUCSORGRIGHT
 10
0.0
 20
0.0
 30
0.0
  9
$PUCSORGFRONT
 10
0.0
 20
0.0
 30
0.0
  9
$PUCSORGBACK
 10
0.0
 20
0.0
 30
0.0
  9
$USERI1
 70
0
  9
$USERI2
 70
0
  9
$USERI3
 70
0
  9
$USERI4
 70
0
  9
$USERI5
 70
0
  9
$USERR1
 40
0.0
  9
$USERR2
 40
0.0
  9
$USERR3
 40
0.0
  9
$USERR4
 40
0.0
  9
$USERR5
 40
0.0
  9
$WORLDVIEW
 70
1
  9
$SHADEDGE
 70
3
  9
$SHADEDIF
 70
70
  9
$TILEMODE
 70
1
  9
$MAXACTVP
 70
64
  9
$PINSBASE
 10
0.0
 20
0.0
 30
0.0
  9
$PLIMCHECK
 70
0
  9
$PEXTMIN
 10
1e+20
 20
1e+20
 30
1e+20
  9
$PEXTMAX
 10
-1e+20
 20
-1e+20
 30
-1e+20
  9
$PLIMMIN
 10
0.0
 20
0.0
  9
$PLIMMAX
 10
420.0
 20
297.0
  9
$UNITMODE
 70
0
  9
$VISRETAIN
 70
1
  9
$PLINEGEN
 70
0
  9
$PSLTSCALE
 70
1
  9
$TREEDEPTH
 70
3020
  9
$CMLSTYLE
  2
Standard
  9
$CMLJUST
 70
0
  9
$CMLSCALE
 40
20.0
  9
$PROXYGRAPHICS
 70
1
  9
$MEASUREMENT
 70
0
  9
$CELWEIGHT
370
-1
  9
$ENDCAPS
280
0
  9
$JOINSTYLE
280
0
  9
$LWDISPLAY
290
0
  9
$INSUNITS
 70
2
  9
$HYPERLINKBASE
  1

  9
$STYLESHEET
  1

  9
$XEDIT
290
1
  9
$CEPSNTYPE
380
0
  9
$PSTYLEMODE
290
1
  9
$FINGERPRINTGUID
  2
{D93A4C44-F32B-43D8-A7DC-CCDAECC93AA4}
  9
$VERSIONGUID
  2
{440A107C-E66F-41A9-A05B-D940144B7042}
  9
$EXTNAMES
290
1
  9
$PSVPSCALE
 40
0.0
  9
$OLESTARTUP
290
0
  9
$SORTENTS
280
127
  9
$INDEXCTL
280
0
  9
$HIDETEXT
280
1
  9
$XCLIPFRAME
280
1
  9
$HALOGAP
280
0
  9
$OBSCOLOR
 70
257
  9
$OBSLTYPE
280
0
  9
$INTERSECTIONDISPLAY
280
0
  9
$INTERSECTIONCOLOR
 70
257
  9
$DIMASSOC
280
2
  9
$PROJECTNAME
  1

  9
$CAMERADISPLAY
290
0
  9
$LENSLENGTH
 40
50.0
  9
$CAMERAHEIGHT
 40
0.0
  9
$STEPSPERSEC
 40
24.0
  9
$STEPSIZE
 40
100.0
  9
$3DDWFPREC
 40
2.0
  9
$PSOLWIDTH
 40
0.005
  9
$PSOLHEIGHT
 40
0.08
  9
$LOFTANG1
 40
1.570796326795
  9
$LOFTANG2
 40
1.570796326795
  9
$LOFTMAG1
 40
0.0
  9
$LOFTMAG2
 40
0.0
  9
$LOFTPARAM
 70
7
  9
$LOFTNORMALS
280
1
  9
$LATITUDE
 40
37.795
  9
$LONGITUDE
 40
-122.394
  9
$NORTHDIRECTION
 40
0.0
  9
$TIMEZONE
 70
-8000
  9
$LIGHTGLYPHDISPLAY
280
1
  9
$TILEMODELIGHTSYNCH
280
1
  9
$CMATERIAL
347
20
  9
$SOLIDHIST
280
0
  9
$SHOWHIST
280
1
  9
$DWFFRAME
280
2
  9
$DGNFRAME
280
2
  9
$REALWORLDSCALE
290
1
  9
$INTERFERECOLOR
 62
256
  9
$CSHADOW
280
0
  9
$SHADOWPLANELOCATION
 40
0.0
  0
ENDSEC
  0
SECTION
  2
CLASSES
  0
CLASS
  1
ACDBDICTIONARYWDFLT
  2
AcDbDictionaryWithDefault
  3
ObjectDBX Classes
 90
0
 91
0
280
0
281
0
  0
CLASS
  1
SUN
  2
AcDbSun
  3
SCENEOE
 90
1153
 91
0
280
0
281
0
  0
CLASS
  1
VISUALSTYLE
  2
AcDbVisualStyle
  3
ObjectDBX Classes
 90
4095
 91
0
280
0
281
0
  0
CLASS
  1
MATERIAL
  2
AcDbMaterial
  3
ObjectDBX Classes
 90
1153
 91
0
280
0
281
0
  0
CLASS
  1
SCALE
  2
AcDbScale
  3
ObjectDBX Classes
 90
1153
 91
0
280
0
281
0
  0
CLASS
  1
TABLESTYLE
  2
AcDbTableStyle
  3
ObjectDBX Classes
 90
4095
 91
0
280
0
281
0
  0
CLASS
  1
MLEADERSTYLE
  2
AcDbMLeaderStyle
  3
ACDB_MLEADERSTYLE_CLASS
 90
4095
 91
0
280
0
281
0
  0
CLASS
  1
DICTIONARYVAR
  2
AcDbDictionaryVar
  3
ObjectDBX Classes
 90
0
 91
0
280
0
281
0
  0
CLASS
  1
CELLSTYLEMAP
  2
AcDbCellStyleMap
  3
ObjectDBX Classes
 90
1152
 91
0
280
0
281
0
  0
CLASS
  1
MENTALRAYRENDERSETTINGS
  2
AcDbMentalRayRenderSettings
  3
SCENEOE
 90
1024
 91
0
280
0
281
0
  0
CLASS
  1
ACDBDETAILVIEWSTYLE
  2
AcDbDetailViewStyle
  3
ObjectDBX Classes
 90
1025
 91
0
280
0
281
0
  0
CLASS
  1
ACDBSECTIONVIEWSTYLE
  2
AcDbSectionViewStyle
  3
ObjectDBX Classes
 90
1025
 91
0
280
0
281
0
  0
CLASS
  1
RASTERVARIABLES
  2
AcDbRasterVariables
  3
ISM
 90
0
 91
0
280
0
281
0
  0
CLASS
  1
LAYOUT
  2
AcDbLayout
  3
ObjectDBX Classes
 90
0
 91
0
280
0
281
0
  0
CLASS
  1
ACDBPLACEHOLDER
  2
AcDbPlaceHolder
  3
ObjectDBX Classes
 90
0
 91
0
280
0
281
0
  0
ENDSEC
  0
SECTION
  2
TABLES
  0
TABLE
  2
VPORT
  5
8
330
0
100
AcDbSymbolTable
 70
1
  0
VPORT
  5
23
330
8
100
AcDbSymbolTableRecord
100
AcDbViewportTableRecord
  2
*Active
 70
0
 10
0.0
 20
0.0
 11
1.0
 21
1.0
 12
0.0
 22
0.0
 13
0.0
 23
0.0
 14
0.5
 24
0.5
 15
0.5
 25
0.5
 16
0.0
 26
0.0
 36
1.0
 17
0.0
 27
0.0
 37
0.0
 40
1000.0
 41
1.34
 42
50.0
 43
0.0
 44
0.0
 50
0.0
 51
0.0
 71
0
 72
1000
 73
1
 74
3
 75
0
 76
0
 77
0
 78
0
281
0
 65
0
146
0.0
  0
ENDTAB
  0
TABLE
  2
LTYPE
  5
2
330
0
100
AcDbSymbolTable
 70
21
  0
LTYPE
  5
24
330
2
100
AcDbSymbolTableRecord
100
AcDbLinetypeTableRecord
  2
ByBlock
 70
0
  3

 72
65
 73
0
 40
0.0
  0
LTYPE
  5
25
330
2
100
AcDbSymbolTableRecord
100
AcDbLinetypeTableRecord
  2
ByLayer
 70
0
  3

 72
65
 73
0
 40
0.0
  0
LTYPE
  5
26
330
2
100
AcDbSymbolTableRecord
100
AcDbLinetypeTableRecord
  2
Continuous
 70
0
  3

 72
65
 73
0
 40
0.0
  0
LTYPE
  5
2F
330
2
100
AcDbSymbolTableRecord
100
AcDbLinetypeTableRecord
  2
CENTER
 70
0
  3
Center ____ _ ____ _ ____ _ ____ _ ____ _ ____
 72
65
 73
4
 40
5.08
 49
3.175
 74
0
 49
-0.635
 74
0
 49
0.635
 74
0
 49
-0.635
 74
0
  0
LTYPE
  5
30
330
2
100
AcDbSymbolTableRecord
100
AcDbLinetypeTableRecord
  2
CENTERX2
 70
0
  3
Center (2x) ________  __  ________  __  ________
 72
65
 73
4
 40
8.89
 49
6.35
 74
0
 49
-0.635
 74
0
 49
1.27
 74
0
 49
-0.635
 74
0
  0
LTYPE
  5
31
330
2
100
AcDbSymbolTableRecord
100
AcDbLinetypeTableRecord
  2
CENTER2
 70
0
  3
Center (.5x) ____ _ ____ _ ____ _ ____ _ ____
 72
65
 73
4
 40
2.54
 49
1.587
 74
0
 49
-0.318
 74
0
 49
0.318
 74
0
 49
-0.318
 74
0
  0
LTYPE
  5
32
330
2
100
AcDbSymbolTableRecord
100
AcDbLinetypeTableRecord
  2
DASHED
 70
0
  3
Dashed __ __ __ __ __ __ __ __ __ __ __ __ __ _
 72
65
 73
2
 40
1.524
 49
1.27
 74
0
 49
-0.254
 74
0
  0
LTYPE
  5
33
330
2
100
AcDbSymbolTableRecord
100
AcDbLinetypeTableRecord
  2
DASHEDX2
 70
0
  3
Dashed (2x) ____  ____  ____  ____  ____  ____
 72
65
 73
2
 40
3.048
 49
2.54
 74
0
 49
-0.508
 74
0
  0
LTYPE
  5
34
330
2
100
AcDbSymbolTableRecord
100
AcDbLinetypeTableRecord
  2
DASHED2
 70
0
  3
Dashed (.5x) _ _ _ _ _ _ _ _ _ _ _ _ _ _
 72
65
 73
2
 40
0.762
 49
0.635
 74
0
 49
-0.127
 74
0
  0
LTYPE
  5
35
330
2
100
AcDbSymbolTableRecord
100
AcDbLinetypeTableRecord
  2
PHANTOM
 70
0
  3
Phantom ______  __  __  ______  __  __  ______
 72
65
 73
6
 40
6.35
 49
3.175
 74
0
 49
-0.635
 74
0
 49
0.635
 74
0
 49
-0.635
 74
0
 49
0.635
 74
0
 49
-0.635
 74
0
  0
LTYPE
  5
36
330
2
100
AcDbSymbolTableRecord
100
AcDbLinetypeTableRecord
  2
PHANTOMX2
 70
0
  3
Phantom (2x)____________    ____    ____    ____________
 72
65
 73
6
 40
10.795
 49
6.35
 74
0
 49
-0.635
 74
0
 49
1.27
 74
0
 49
-0.635
 74
0
 49
1.27
 74
0
 49
-0.635
 74
0
  0
LTYPE
  5
37
330
2
100
AcDbSymbolTableRecord
100
AcDbLinetypeTableRecord
  2
PHANTOM2
 70
0
  3
Phantom (.5x) ___ _ _ ___ _ _ ___ _ _ ___ _ _ ___
 72
65
 73
6
 40
3.175
 49
1.587
 74
0
 49
-0.318
 74
0
 49
0.318
 74
0
 49
-0.318
 74
0
 49
0.318
 74
0
 49
-0.318
 74
0
  0
LTYPE
  5
38
330
2
100
AcDbSymbolTableRecord
100
AcDbLinetypeTableRecord
  2
DASHDOT
 70
0
  3
Dash dot __ . __ . __ . __ . __ . __ . __ . __
 72
65
 73
4
 40
3.556
 49
2.54
 74
0
 49
-0.508
 74
0
 49
0.0
 74
0
 49
-0.508
 74
0
  0
LTYPE
  5
39
330
2
100
AcDbSymbolTableRecord
100
AcDbLinetypeTableRecord
  2
DASHDOTX2
 70
0
  3
Dash dot (2x) ____  .  ____  .  ____  .  ____
 72
65
 73
4
 40
6.096
 49
5.08
 74
0
 49
-0.508
 74
0
 49
0.0
 74
0
 49
-0.508
 74
0
  0
LTYPE
  5
3A
330
2
100
AcDbSymbolTableRecord
100
AcDbLinetypeTableRecord
  2
DASHDOT2
 70
0
  3
Dash dot (.5x) _ . _ . _ . _ . _ . _ . _ . _
 72
65
 73
4
 40
1.778
 49
1.27
 74
0
 49
-0.254
 74
0
 49
0.0
 74
0
 49
-0.254
 74
0
  0
LTYPE
  5
3B
330
2
100
AcDbSymbolTableRecord
100
AcDbLinetypeTableRecord
  2
DOT
 70
0
  3
Dot .  .  .  .  .  .  .  .  .  .  .  .  .  .  .  .
 72
65
 73
2
 40
0.508
 49
0.0
 74
0
 49
-0.508
 74
0
  0
LTYPE
  5
3C
330
2
100
AcDbSymbolTableRecord
100
AcDbLinetypeTableRecord
  2
DOTX2
 70
0
  3
Dot (2x) .    .    .    .    .    .    .    . 
 72
65
 73
2
 40
1.016
 49
0.0
 74
0
 49
-1.016
 74
0
  0
LTYPE
  5
3D
330
2
100
AcDbSymbolTableRecord
100
AcDbLinetypeTableRecord
  2
DOT2
 70
0
  3
Dot (.5) . . . . . . . . . . . . . . . . . . . 
 72
65
 73
2
 40
0.254
 49
0.0
 74
0
 49
-0.254
 74
0
  0
LTYPE
  5
3E
330
2
100
AcDbSymbolTableRecord
100
AcDbLinetypeTableRecord
  2
DIVIDE
 70
0
  3
Divide __ . . __ . . __ . . __ . . __ . . __
 72
65
 73
6
 40
4.064
 49
2.54
 74
0
 49
-0.508
 74
0
 49
0.0
 74
0
 49
-0.508
 74
0
 49
0.0
 74
0
 49
-0.508
 74
0
  0
LTYPE
  5
3F
330
2
100
AcDbSymbolTableRecord
100
AcDbLinetypeTableRecord
  2
DIVIDEX2
 70
0
  3
Divide (2x) ____  . .  ____  . .  ____  . .  ____
 72
65
 73
6
 40
6.604
 49
5.08
 74
0
 49
-0.508
 74
0
 49
0.0
 74
0
 49
-0.508
 74
0
 49
0.0
 74
0
 49
-0.508
 74
0
  0
LTYPE
  5
40
330
2
100
AcDbSymbolTableRecord
100
AcDbLinetypeTableRecord
  2
DIVIDE2
 70
0
  3
Divide(.5x) _ . _ . _ . _ . _ . _ . _ . _
 72
65
 73
6
 40
2.032
 49
1.27
 74
0
 49
-0.254
 74
0
 49
0.0
 74
0
 49
-0.254
 74
0
 49
0.0
 74
0
 49
-0.254
 74
0
  0
ENDTAB
  0
TABLE
  2
LAYER
  5
1
330
0
100
AcDbSymbolTable
 70
18
  0
LAYER
  5
27
330
1
100
AcDbSymbolTableRecord
100
AcDbLayerTableRecord
  2
0
 70
0
 62
7
  6
Continuous
370
-3
390
13
347
21
  0
LAYER
  5
28
330
1
100
AcDbSymbolTableRecord
100
AcDbLayerTableRecord
  2
Defpoints
 70
0
 62
7
  6
Continuous
290
0
370
-3
390
13
347
21
  0
LAYER
  5
8B
330
1
100
AcDbSymbolTableRecord
100
AcDbLayerTableRecord
  2
PLAT-LINE
 70
0
 62
7
  6
CONTINUOUS
370
-3
390
13
347
21
  0
LAYER
  5
8C
330
1
100
AcDbSymbolTableRecord
100
AcDbLayerTableRecord
  2
PLAT-LINE-DASH
 70
0
 62
8
  6
DASHED
370
-3
390
13
347
21
  0
LAYER
  5
8D
330
1
100
AcDbSymbolTableRecord
100
AcDbLayerTableRecord
  2
PLAT-CURVE
 70
0
 62
4
  6
CONTINUOUS
370
-3
390
13
347
21
  0
LAYER
  5
8E
330
1
100
AcDbSymbolTableRecord
100
AcDbLayerTableRecord
  2
PLAT-TEXT-BRG
 70
0
 62
3
  6
CONTINUOUS
370
-3
390
13
347
21
  0
LAYER
  5
8F
330
1
100
AcDbSymbolTableRecord
100
AcDbLayerTableRecord
  2
PLAT-TEXT-DIST
 70
0
 62
2
  6
CONTINUOUS
370
-3
390
13
347
21
  0
LAYER
  5
90
330
1
100
AcDbSymbolTableRecord
100
AcDbLayerTableRecord
  2
PLAT-TEXT-CURVE
 70
0
 62
6
  6
CONTINUOUS
370
-3
390
13
347
21
  0
LAYER
  5
91
330
1
100
AcDbSymbolTableRecord
100
AcDbLayerTableRecord
  2
PLAT-TEXT-LOTNO
 70
0
 62
5
  6
CONTINUOUS
370
-3
390
13
347
21
  0
LAYER
  5
92
330
1
100
AcDbSymbolTableRecord
100
AcDbLayerTableRecord
  2
PLAT-TEXT-AREA
 70
0
 62
5
  6
CONTINUOUS
370
-3
390
13
347
21
  0
LAYER
  5
93
330
1
100
AcDbSymbolTableRecord
100
AcDbLayerTableRecord
  2
PLAT-TEXT-MISC
 70
0
 62
9
  6
CONTINUOUS
370
-3
390
13
347
21
  0
LAYER
  5
94
330
1
100
AcDbSymbolTableRecord
100
AcDbLayerTableRecord
  2
PLAT-TEXT-UNASSOC
 70
0
 62
30
  6
CONTINUOUS
370
-3
390
13
347
21
  0
LAYER
  5
95
330
1
100
AcDbSymbolTableRecord
100
AcDbLayerTableRecord
  2
PLAT-TABLE-CURVE
 70
0
 62
6
  6
CONTINUOUS
370
-3
390
13
347
21
  0
LAYER
  5
96
330
1
100
AcDbSymbolTableRecord
100
AcDbLayerTableRecord
  2
PLAT-TABLE
 70
0
 62
6
  6
CONTINUOUS
370
-3
390
13
347
21
  0
LAYER
  5
97
330
1
100
AcDbSymbolTableRecord
100
AcDbLayerTableRecord
  2
PLAT-NOTES
 70
0
 62
7
  6
CONTINUOUS
370
-3
390
13
347
21
  0
LAYER
  5
98
330
1
100
AcDbSymbolTableRecord
100
AcDbLayerTableRecord
  2
PLAT-QA
 70
0
 62
1
  6
CONTINUOUS
370
-3
390
13
347
21
  0
LAYER
  5
99
330
1
100
AcDbSymbolTableRecord
100
AcDbLayerTableRecord
  2
PLAT-MON
 70
0
 62
1
  6
CONTINUOUS
370
-3
390
13
347
21
  0
LAYER
  5
9A
330
1
100
AcDbSymbolTableRecord
100
AcDbLayerTableRecord
  2
PLAT-TEXT-LOWCONF
 70
1
 62
8
  6
CONTINUOUS
370
-3
390
13
347
21
  0
ENDTAB
  0
TABLE
  2
STYLE
  5
5
330
0
100
AcDbSymbolTable
 70
27
  0
STYLE
  5
29
330
5
100
AcDbSymbolTableRecord
100
AcDbTextStyleTableRecord
  2
Standard
 70
0
 40
0.0
 41
1.0
 50
0.0
 71
0
 42
2.5
  3
txt
  4

  0
STYLE
  5
41
330
5
100
AcDbSymbolTableRecord
100
AcDbTextStyleTableRecord
  2
OpenSans-Light
 70
0
 40
0.0
 41
1.0
 50
0.0
 71
0
 42
2.5
  3
OpenSans-Light.ttf
  4

  0
STYLE
  5
42
330
5
100
AcDbSymbolTableRecord
100
AcDbTextStyleTableRecord
  2
OpenSans-Light-Italic
 70
0
 40
0.0
 41
1.0
 50
0.0
 71
0
 42
2.5
  3
OpenSans-LightItalic.ttf
  4

  0
STYLE
  5
43
330
5
100
AcDbSymbolTableRecord
100
AcDbTextStyleTableRecord
  2
OpenSans
 70
0
 40
0.0
 41
1.0
 50
0.0
 71
0
 42
2.5
  3
OpenSans-Regular.ttf
  4

  0
STYLE
  5
44
330
5
100
AcDbSymbolTableRecord
100
AcDbTextStyleTableRecord
  2
OpenSans-Italic
 70
0
 40
0.0
 41
1.0
 50
0.0
 71
0
 42
2.5
  3
OpenSans-Italic.ttf
  4

  0
STYLE
  5
45
330
5
100
AcDbSymbolTableRecord
100
AcDbTextStyleTableRecord
  2
OpenSans-SemiBold
 70
0
 40
0.0
 41
1.0
 50
0.0
 71
0
 42
2.5
  3
OpenSans-SemiBold.ttf
  4

  0
STYLE
  5
46
330
5
100
AcDbSymbolTableRecord
100
AcDbTextStyleTableRecord
  2
OpenSans-SemiBoldItalic
 70
0
 40
0.0
 41
1.0
 50
0.0
 71
0
 42
2.5
  3
OpenSans-SemiBoldItalic.ttf
  4

  0
STYLE
  5
47
330
5
100
AcDbSymbolTableRecord
100
AcDbTextStyleTableRecord
  2
OpenSans-Bold
 70
0
 40
0.0
 41
1.0
 50
0.0
 71
0
 42
2.5
  3
OpenSans-Bold.ttf
  4

  0
STYLE
  5
48
330
5
100
AcDbSymbolTableRecord
100
AcDbTextStyleTableRecord
  2
OpenSans-BoldItalic
 70
0
 40
0.0
 41
1.0
 50
0.0
 71
0
 42
2.5
  3
OpenSans-BoldItalic.ttf
  4

  0
STYLE
  5
49
330
5
100
AcDbSymbolTableRecord
100
AcDbTextStyleTableRecord
  2
OpenSans-ExtraBold
 70
0
 40
0.0
 41
1.0
 50
0.0
 71
0
 42
2.5
  3
OpenSans-ExtraBold.ttf
  4

  0
STYLE
  5
4A
330
5
100
AcDbSymbolTableRecord
100
AcDbTextStyleTableRecord
  2
OpenSans-ExtraBoldItalic
 70
0
 40
0.0
 41
1.0
 50
0.0
 71
0
 42
2.5
  3
OpenSans-ExtraBoldItalic.ttf
  4

  0
STYLE
  5
4B
330
5
100
AcDbSymbolTableRecord
100
AcDbTextStyleTableRecord
  2
OpenSansCondensed-Bold
 70
0
 40
0.0
 41
1.0
 50
0.0
 71
0
 42
2.5
  3
OpenSansCondensed-Bold.ttf
  4

  0
STYLE
  5
4C
330
5
100
AcDbSymbolTableRecord
100
AcDbTextStyleTableRecord
  2
OpenSansCondensed-Light
 70
0
 40
0.0
 41
1.0
 50
0.0
 71
0
 42
2.5
  3
OpenSansCondensed-Light.ttf
  4

  0
STYLE
  5
4D
330
5
100
AcDbSymbolTableRecord
100
AcDbTextStyleTableRecord
  2
OpenSansCondensed-Italic
 70
0
 40
0.0
 41
1.0
 50
0.0
 71
0
 42
2.5
  3
OpenSansCondensed-LightItalic.ttf
  4

  0
STYLE
  5
4E
330
5
100
AcDbSymbolTableRecord
100
AcDbTextStyleTableRecord
  2
LiberationSans
 70
0
 40
0.0
 41
1.0
 50
0.0
 71
0
 42
2.5
  3
LiberationSans-Regular.ttf
  4

  0
STYLE
  5
4F
330
5
100
AcDbSymbolTableRecord
100
AcDbTextStyleTableRecord
  2
LiberationSans-Bold
 70
0
 40
0.0
 41
1.0
 50
0.0
 71
0
 42
2.5
  3
LiberationSans-Bold.ttf
  4

  0
STYLE
  5
50
330
5
100
AcDbSymbolTableRecord
100
AcDbTextStyleTableRecord
  2
LiberationSans-BoldItalic
 70
0
 40
0.0
 41
1.0
 50
0.0
 71
0
 42
2.5
  3
LiberationSans-BoldItalic.ttf
  4

  0
STYLE
  5
51
330
5
100
AcDbSymbolTableRecord
100
AcDbTextStyleTableRecord
  2
LiberationSans-Italic
 70
0
 40
0.0
 41
1.0
 50
0.0
 71
0
 42
2.5
  3
LiberationSans-Italic.ttf
  4

  0
STYLE
  5
52
330
5
100
AcDbSymbolTableRecord
100
AcDbTextStyleTableRecord
  2
LiberationSerif
 70
0
 40
0.0
 41
1.0
 50
0.0
 71
0
 42
2.5
  3
LiberationSerif-Regular.ttf
  4

  0
STYLE
  5
53
330
5
100
AcDbSymbolTableRecord
100
AcDbTextStyleTableRecord
  2
LiberationSerif-Bold
 70
0
 40
0.0
 41
1.0
 50
0.0
 71
0
 42
2.5
  3
LiberationSerif-Bold.ttf
  4

  0
STYLE
  5
54
330
5
100
AcDbSymbolTableRecord
100
AcDbTextStyleTableRecord
  2
LiberationSerif-BoldItalic
 70
0
 40
0.0
 41
1.0
 50
0.0
 71
0
 42
2.5
  3
LiberationSerif-BoldItalic.ttf
  4

  0
STYLE
  5
55
330
5
100
AcDbSymbolTableRecord
100
AcDbTextStyleTableRecord
  2
LiberationSerif-Italic
 70
0
 40
0.0
 41
1.0
 50
0.0
 71
0
 42
2.5
  3
LiberationSerif-Italic.ttf
  4

  0
STYLE
  5
56
330
5
100
AcDbSymbolTableRecord
100
AcDbTextStyleTableRecord
  2
LiberationMono
 70
0
 40
0.0
 41
1.0
 50
0.0
 71
0
 42
2.5
  3
LiberationMono-Regular.ttf
  4

  0
STYLE
  5
57
330
5
100
AcDbSymbolTableRecord
100
AcDbTextStyleTableRecord
  2
LiberationMono-Bold
 70
0
 40
0.0
 41
1.0
 50
0.0
 71
0
 42
2.5
  3
LiberationMono-Bold.ttf
  4

  0
STYLE
  5
58
330
5
100
AcDbSymbolTableRecord
100
AcDbTextStyleTableRecord
  2
LiberationMono-BoldItalic
 70
0
 40
0.0
 41
1.0
 50
0.0
 71
0
 42
2.5
  3
LiberationMono-BoldItalic.ttf
  4

  0
STYLE
  5
59
330
5
100
AcDbSymbolTableRecord
100
AcDbTextStyleTableRecord
  2
LiberationMono-Italic
 70
0
 40
0.0
 41
1.0
 50
0.0
 71
0
 42
2.5
  3
LiberationMono-Italic.ttf
  4

  0
STYLE
  5
9B
330
5
100
AcDbSymbolTableRecord
100
AcDbTextStyleTableRecord
  2
PLAT
 70
0
 40
0.0
 41
1.0
 50
0.0
 71
0
 42
2.5
  3
arial.ttf
  4

  0
ENDTAB
  0
TABLE
  2
VIEW
  5
7
330
0
100
AcDbSymbolTable
 70
0
  0
ENDTAB
  0
TABLE
  2
UCS
  5
6
330
0
100
AcDbSymbolTable
 70
0
  0
ENDTAB
  0
TABLE
  2
APPID
  5
3
330
0
100
AcDbSymbolTable
 70
4
  0
APPID
  5
2A
330
3
100
AcDbSymbolTableRecord
100
AcDbRegAppTableRecord
  2
ACAD
 70
0
  0
APPID
  5
8A
330
3
100
AcDbSymbolTableRecord
100
AcDbRegAppTableRecord
  2
RASTER2DXF
 70
0
  0
APPID
  5
2D7
330
3
100
AcDbSymbolTableRecord
100
AcDbRegAppTableRecord
  2
HATCHBACKGROUNDCOLOR
 70
0
  0
APPID
  5
2D8
330
3
100
AcDbSymbolTableRecord
100
AcDbRegAppTableRecord
  2
EZDXF
 70
0
  0
ENDTAB
  0
TABLE
  2
DIMSTYLE
  5
4
330
0
100
AcDbSymbolTable
 70
12
100
AcDbDimStyleTable
  0
DIMSTYLE
105
2B
330
4
100
AcDbSymbolTableRecord
100
AcDbDimStyleTableRecord
  2
Standard
 70
0
 40
1.0
 41
2.5
 42
0.625
 43
3.75
 44
1.25
 45
0.0
 46
0.0
 47
0.0
 48
0.0
 49
2.5
140
2.5
141
2.5
142
0.0
143
0.03937007874
144
1.0
145
0.0
146
1.0
147
0.625
148
0.0
 69
0
 70
0
 71
0
 72
0
 73
0
 74
0
 75
0
 76
0
 77
1
 78
8
 79
3
170
0
171
3
172
1
173
0
174
0
175
0
176
0
177
0
178
0
179
2
271
2
272
2
273
2
274
3
275
0
276
0
277
2
278
44
279
0
280
0
281
0
282
0
283
0
284
8
285
0
286
0
288
0
289
3
290
0
371
-2
372
-2
  0
DIMSTYLE
105
73
330
4
100
AcDbSymbolTableRecord
100
AcDbDimStyleTableRecord
  2
EZDXF
 70
0
 40
1.0
 41
0.175
 42
0.125
 43
3.75
 44
0.375
 45
0.0
 46
0.0
 47
0.0
 48
0.0
 49
2.5
140
0.25
141
2.5
142
0.0
143
0.03937007874
144
100.0
145
0.0
146
0.5
147
0.1
148
0.0
 69
0
 70
0
 71
0
 72
0
 73
0
 74
0
 75
0
 76
0
 77
1
 78
12
 79
3
170
0
171
3
172
1
173
0
174
0
175
0
176
0
177
0
178
0
179
2
271
2
272
2
273
2
274
3
275
0
276
0
277
2
278
46
279
2
280
0
281
0
282
0
283
0
284
8
285
0
286
0
288
1
289
3
290
0
340
4C
342
74
371
-2
372
-2
  0
DIMSTYLE
105
7C
330
4
100
AcDbSymbolTableRecord
100
AcDbDimStyleTableRecord
  2
EZ_M_100_H25_CM
 70
0
 40
1.0
 41
0.25
 42
0.125
 43
3.75
 44
0.375
 45
0.0
 46
0.0
 47
0.0
 48
0.0
 49
2.5
140
0.25
141
2.5
142
0.125
143
0.03937007874
144
100.0
145
0.0
146
0.5
147
0.1
148
0.0
 69
0
 70
0
 71
0
 72
0
 73
0
 74
0
 75
0
 76
0
 77
1
 78
12
 79
3
170
0
171
3
172
1
173
0
174
0
175
0
176
0
177
0
178
0
179
2
271
2
272
2
273
2
274
3
275
0
276
0
277
2
278
46
279
2
280
0
281
0
282
0
283
0
284
8
285
0
286
0
288
1
289
3
290
0
340
4C
371
-2
372
-2
  0
DIMSTYLE
105
7D
330
4
100
AcDbSymbolTableRecord
100
AcDbDimStyleTableRecord
  2
EZ_M_50_H25_CM
 70
0
 40
1.0
 41
0.125
 42
0.0625
 43
3.75
 44
0.1875
 45
0.0
 46
0.0
 47
0.0
 48
0.0
 49
2.5
140
0.125
141
2.5
142
0.0625
143
0.03937007874
144
100.0
145
0.0
146
0.5
147
0.05
148
0.0
 69
0
 70
0
 71
0
 72
0
 73
0
 74
0
 75
0
 76
0
 77
1
 78
12
 79
3
170
0
171
3
172
1
173
0
174
0
175
0
176
0
177
0
178
0
179
2
271
2
272
2
273
2
274
3
275
0
276
0
277
2
278
46
279
2
280
0
281
0
282
0
283
0
284
8
285
0
286
0
288
1
289
3
290
0
340
4C
371
-2
372
-2
  0
DIMSTYLE
105
7E
330
4
100
AcDbSymbolTableRecord
100
AcDbDimStyleTableRecord
  2
EZ_M_25_H25_CM
 70
0
 40
1.0
 41
0.0625
 42
0.03125
 43
3.75
 44
0.09375
 45
0.0
 46
0.0
 47
0.0
 48
0.0
 49
2.5
140
0.0625
141
2.5
142
0.03125
143
0.03937007874
144
100.0
145
0.0
146
0.5
147
0.025
148
0.0
 69
0
 70
0
 71
0
 72
0
 73
0
 74
0
 75
0
 76
0
 77
1
 78
12
 79
3
170
0
171
3
172
1
173
0
174
0
175
0
176
0
177
0
178
0
179
2
271
2
272
2
273
2
274
3
275
0
276
0
277
2
278
46
279
2
280
0
281
0
282
0
283
0
284
8
285
0
286
0
288
1
289
3
290
0
340
4C
371
-2
372
-2
  0
DIMSTYLE
105
7F
330
4
100
AcDbSymbolTableRecord
100
AcDbDimStyleTableRecord
  2
EZ_M_20_H25_CM
 70
0
 40
1.0
 41
0.05
 42
0.025
 43
3.75
 44
0.07500000000000001
 45
0.0
 46
0.0
 47
0.0
 48
0.0
 49
2.5
140
0.05
141
2.5
142
0.025
143
0.03937007874
144
100.0
145
0.0
146
0.5
147
0.020000000000000004
148
0.0
 69
0
 70
0
 71
0
 72
0
 73
0
 74
0
 75
0
 76
0
 77
1
 78
12
 79
3
170
0
171
3
172
1
173
0
174
0
175
0
176
0
177
0
178
0
179
2
271
2
272
2
273
2
274
3
275
0
276
0
277
2
278
46
279
2
280
0
281
0
282
0
283
0
284
8
285
0
286
0
288
1
289
3
290
0
340
4C
371
-2
372
-2
  0
DIMSTYLE
105
80
330
4
100
AcDbSymbolTableRecord
100
AcDbDimStyleTableRecord
  2
EZ_M_10_H25_CM
 70
0
 40
1.0
 41
0.025
 42
0.0125
 43
3.75
 44
0.037500000000000006
 45
0.0
 46
0.0
 47
0.0
 48
0.0
 49
2.5
140
0.025
141
2.5
142
0.0125
143
0.03937007874
144
100.0
145
0.0
146
0.5
147
0.010000000000000002
148
0.0
 69
0
 70
0
 71
0
 72
0
 73
0
 74
0
 75
0
 76
0
 77
1
 78
12
 79
3
170
0
171
3
172
1
173
0
174
0
175
0
176
0
177
0
178
0
179
2
271
2
272
2
273
2
274
3
275
0
276
0
277
2
278
46
279
2
280
0
281
0
282
0
283
0
284
8
285
0
286
0
288
1
289
3
290
0
340
4C
371
-2
372
-2
  0
DIMSTYLE
105
81
330
4
100
AcDbSymbolTableRecord
100
AcDbDimStyleTableRecord
  2
EZ_M_5_H25_CM
 70
0
 40
1.0
 41
0.0125
 42
0.00625
 43
3.75
 44
0.018750000000000003
 45
0.0
 46
0.0
 47
0.0
 48
0.0
 49
2.5
140
0.0125
141
2.5
142
0.00625
143
0.03937007874
144
100.0
145
0.0
146
0.5
147
0.005000000000000001
148
0.0
 69
0
 70
0
 71
0
 72
0
 73
0
 74
0
 75
0
 76
0
 77
1
 78
12
 79
3
170
0
171
3
172
1
173
0
174
0
175
0
176
0
177
0
178
0
179
2
271
2
272
2
273
2
274
3
275
0
276
0
277
2
278
46
279
2
280
0
281
0
282
0
283
0
284
8
285
0
286
0
288
1
289
3
290
0
340
4C
371
-2
372
-2
  0
DIMSTYLE
105
82
330
4
100
AcDbSymbolTableRecord
100
AcDbDimStyleTableRecord
  2
EZ_M_1_H25_CM
 70
0
 40
1.0
 41
0.0025
 42
0.00125
 43
3.75
 44
0.00375
 45
0.0
 46
0.0
 47
0.0
 48
0.0
 49
2.5
140
0.0025
141
2.5
142
0.00125
143
0.03937007874
144
100.0
145
0.0
146
0.5
147
0.001
148
0.0
 69
0
 70
0
 71
0
 72
0
 73
0
 74
0
 75
0
 76
0
 77
1
 78
12
 79
3
170
0
171
3
172
1
173
0
174
0
175
0
176
0
177
0
178
0
179
2
271
2
272
2
273
2
274
3
275
0
276
0
277
2
278
46
279
2
280
0
281
0
282
0
283
0
284
8
285
0
286
0
288
1
289
3
290
0
340
4C
371
-2
372
-2
  0
DIMSTYLE
105
83
330
4
100
AcDbSymbolTableRecord
100
AcDbDimStyleTableRecord
  2
EZ_RADIUS
 70
0
 40
1.0
 41
0.25
 42
0.125
 43
3.75
 44
0.375
 45
0.0
 46
0.0
 47
0.0
 48
0.0
 49
2.5
140
0.25
141
0.0
142
0.0
143
0.03937007874
144
100.0
145
0.0
146
0.5
147
0.1
148
0.0
 69
0
 70
0
 71
0
 72
0
 73
0
 74
0
 75
0
 76
0
 77
1
 78
12
 79
3
170
0
171
3
172
0
173
0
174
0
175
0
176
0
177
0
178
0
179
2
271
2
272
2
273
2
274
3
275
0
276
0
277
2
278
46
279
1
280
0
281
0
282
0
283
0
284
8
285
0
286
0
288
1
289
3
290
0
340
4C
342
84
371
-2
372
-2
  0
DIMSTYLE
105
88
330
4
100
AcDbSymbolTableRecord
100
AcDbDimStyleTableRecord
  2
EZ_RADIUS_INSIDE
 70
0
 40
1.0
 41
0.25
 42
0.125
 43
3.75
 44
0.375
 45
0.0
 46
0.0
 47
0.0
 48
0.0
 49
2.5
140
0.25
141
0.0
142
0.0
143
0.03937007874
144
100.0
145
0.0
146
0.5
147
0.1
148
0.0
 69
0
 70
0
 71
0
 72
0
 73
0
 74
0
 75
0
 76
0
 77
0
 78
12
 79
3
170
0
171
3
172
0
173
0
174
1
175
0
176
0
177
0
178
0
179
2
271
2
272
2
273
2
274
3
275
0
276
0
277
2
278
46
279
0
280
0
281
0
282
0
283
0
284
8
285
0
286
0
288
1
289
0
290
0
340
4C
342
84
371
-2
372
-2
  0
DIMSTYLE
105
89
330
4
100
AcDbSymbolTableRecord
100
AcDbDimStyleTableRecord
  2
EZ_CURVED
 70
0
 40
1.0
 41
0.25
 42
0.125
 43
3.75
 44
0.375
 45
0.0
 46
0.0
 47
0.0
 48
0.0
 49
2.5
140
0.25
141
2.5
142
0.0
143
0.03937007874
144
100.0
145
0.0
146
0.5
147
0.1
148
0.0
 69
0
 70
0
 71
0
 72
0
 73
0
 74
0
 75
0
 76
0
 77
1
 78
12
 79
2
 90
2
170
0
171
3
172
1
173
0
174
0
175
0
176
0
177
0
178
0
179
2
271
2
272
2
273
2
274
3
275
0
276
0
277
2
278
46
279
2
280
0
281
0
282
0
283
0
284
8
285
0
286
0
288
1
289
3
290
0
340
4C
371
-2
372
-2
  0
ENDTAB
  0
TABLE
  2
BLOCK_RECORD
  5
9
330
0
100
AcDbSymbolTable
 70
5
  0
BLOCK_RECORD
  5
17
330
9
100
AcDbSymbolTableRecord
100
AcDbBlockTableRecord
  2
*Model_Space
340
1A
 70
0
280
1
281
0
  0
BLOCK_RECORD
  5
1B
330
9
100
AcDbSymbolTableRecord
100
AcDbBlockTableRecord
  2
*Paper_Space
340
1E
 70
0
280
1
281
0
  0
BLOCK_RECORD
  5
74
330
9
100
AcDbSymbolTableRecord
100
AcDbBlockTableRecord
  2
_ARCHTICK
340
0
 70
0
280
1
281
0
  0
BLOCK_RECORD
  5
78
330
9
100
AcDbSymbolTableRecord
100
AcDbBlockTableRecord
  2
_CLOSEDFILLED
340
0
 70
0
280
1
281
0
  0
BLOCK_RECORD
  5
84
330
9
100
AcDbSymbolTableRecord
100
AcDbBlockTableRecord
  2
_CLOSEDBLANK
340
0
 70
0
280
1
281
0
  0
ENDTAB
  0
ENDSEC
  0
SECTION
  2
BLOCKS
  0
BLOCK
  5
18
330
17
100
AcDbEntity
  8
0
100
AcDbBlockBegin
  2
*Model_Space
 70
0
 10
0.0
 20
0.0
 30
0.0
  3
*Model_Space
  1

  0
ENDBLK
  5
19
330
17
100
AcDbEntity
  8
0
100
AcDbBlockEnd
  0
BLOCK
  5
1C
330
1B
100
AcDbEntity
  8
0
100
AcDbBlockBegin
  2
*Paper_Space
 70
0
 10
0.0
 20
0.0
 30
0.0
  3
*Paper_Space
  1

  0
ENDBLK
  5
1D
330
1B
100
AcDbEntity
  8
0
100
AcDbBlockEnd
  0
BLOCK
  5
75
330
74
100
AcDbEntity
  8
0
100
AcDbBlockBegin
  2
_ARCHTICK
 70
0
 10
0.0
 20
0.0
 30
0.0
  3
_ARCHTICK
  1

  0
LWPOLYLINE
  5
77
330
74
100
AcDbEntity
  8
0
  6
BYBLOCK
 62
0
100
AcDbPolyline
 90
2
 70
0
 43
0.15
 10
-0.5
 20
-0.5
 10
0.5
 20
0.5
  0
ENDBLK
  5
76
330
74
100
AcDbEntity
  8
0
100
AcDbBlockEnd
  0
BLOCK
  5
79
330
78
100
AcDbEntity
  8
0
100
AcDbBlockBegin
  2
_CLOSEDFILLED
 70
0
 10
0.0
 20
0.0
 30
0.0
  3
_CLOSEDFILLED
  1

  0
SOLID
  5
7B
330
78
100
AcDbEntity
  8
0
  6
BYBLOCK
 62
0
100
AcDbTrace
 10
-1.0
 20
0.16439898372402537
 30
0.0
 11
0.0
 21
0.0
 31
0.0
 12
-1.0
 22
-0.16439898372402537
 32
0.0
 13
-1.0
 23
-0.16439898372402537
 33
0.0
  0
ENDBLK
  5
7A
330
78
100
AcDbEntity
  8
0
100
AcDbBlockEnd
  0
BLOCK
  5
85
330
84
100
AcDbEntity
  8
0
100
AcDbBlockBegin
  2
_CLOSEDBLANK
 70
0
 10
0.0
 20
0.0
 30
0.0
  3
_CLOSEDBLANK
  1

  0
LWPOLYLINE
  5
87
330
84
100
AcDbEntity
  8
0
  6
BYBLOCK
 62
0
100
AcDbPolyline
 90
3
 70
1
 10
-1.0
 20
0.16439898372402537
 10
0.0
 20
0.0
 10
-1.0
 20
-0.16439898372402537
  0
ENDBLK
  5
86
330
84
100
AcDbEntity
  8
0
100
AcDbBlockEnd
  0
ENDSEC
  0
SECTION
  2
ENTITIES
  0
LINE
  5
9C
330
17
100
AcDbEntity
  8
PLAT-LINE
100
AcDbLine
 10
579.4071941942836
 20
398.16615496368956
 30
0.0
 11
646.6790149613932
 21
301.1987051257034
 31
0.0
1001
RASTER2DXF
1000
line 0
1040
118.018
1040
1.0
1000
distance=166.73'
  0
LINE
  5
9D
330
17
100
AcDbEntity
  8
PLAT-LINE
100
AcDbLine
 10
679.5072163558852
 20
402.92624265013643
 30
0.0
 11
708.1135636531293
 21
332.89432642621637
 31
0.0
1001
RASTER2DXF
1000
line 1
1040
75.649
1040
0.992
1000
distance=6.36°
  0
LINE
  5
9E
330
17
100
AcDbEntity
  8
PLAT-LINE
100
AcDbLine
 10
153.17914411519473
 20
376.40819390648664
 30
0.0
 11
156.42817143635875
 21
339.5873483956001
 31
0.0
1001
RASTER2DXF
1000
line 2
1040
36.964
1040
1.0
1000
distance=/00
  0
LINE
  5
9F
330
17
100
AcDbEntity
  8
PLAT-LINE
100
AcDbLine
 10
190.73677999370568
 20
324.427964628797
 30
0.0
 11
250.5612133877121
 21
326.52954324251266
 31
0.0
1001
RASTER2DXF
1000
line 3
1040
59.861
1040
0.923
1000
distance=93.50'
  0
LINE
  5
A0
330
17
100
AcDbEntity
  8
PLAT-LINE
100
AcDbLine
 10
250.5612133877121
 20
326.52954324251266
 30
0.0
 11
335.25758955882094
 21
329.5048508672106
 31
0.0
1001
RASTER2DXF
1000
line 4
1040
84.749
1040
0.923
1000
distance=89.76"
1000
bearing=N 87°35'30" E
  0
LINE
  5
A1
330
17
100
AcDbEntity
  8
PLAT-LINE
100
AcDbLine
 10
437.65473587654714
 20
390.4746988135531
 30
0.0
 11
424.3855302578144
 21
323.1299513278884
 31
0.0
1001
RASTER2DXF
1000
line 5
1040
68.64
1040
1.0
  0
LINE
  5
A2
330
17
100
AcDbEntity
  8
PLAT-LINE
100
AcDbLine
 10
776.8562490201398
 20
341.9826948336929
 30
0.0
 11
773.8400836530917
 21
406.9609883352218
 31
0.0
1001
RASTER2DXF
1000
line 6
1040
65.048
1040
1.0
1000
distance=5.45)
1000
bearing=N 02°24'34" W
  0
LINE
  5
A3
330
17
100
AcDbEntity
  8
PLAT-LINE
100
AcDbLine
 10
848.105594936209
 20
410.61465586442444
 30
0.0
 11
850.9184035146423
 21
345.097609705923
 31
0.0
1001
RASTER2DXF
1000
line 7
1040
65.577
1040
1.0
  0
LINE
  5
A4
330
17
100
AcDbEntity
  8
PLAT-LINE
100
AcDbLine
 10
1150.352308336229
 20
425.48980559871694
 30
0.0
 11
1153.43428441912
 21
357.8208584818558
 31
0.0
1001
RASTER2DXF
1000
line 8
1040
67.739
1040
1.0
  0
LINE
  5
A5
330
17
100
AcDbEntity
  8
PLAT-LINE
100
AcDbLine
 10
1301.784389521285
 20
432.9434565947365
 30
0.0
 11
1304.6571451374443
 21
364.1810074822153
 31
0.0
1001
RASTER2DXF
1000
line 9
1040
68.822
1040
1.0
  0
LINE
  5
A6
330
17
100
AcDbEntity
  8
PLAT-LINE
100
AcDbLine
 10
-5.228198099506017
 20
368.28394490688447
 30
0.0
 11
0.7781152005950389
 21
234.89320751930575
 31
0.0
1001
RASTER2DXF
1000
line 10
1040
133.526
1040
0.98
1000
distance=90°
  0
LINE
  5
A7
330
17
100
AcDbEntity
  8
PLAT-LINE
100
AcDbLine
 10
94.04178421749475
 20
373.16963684974996
 30
0.0
 11
97.15346208526023
 21
310.2153806270618
 31
0.0
1001
RASTER2DXF
1000
line 11
1040
63.031
1040
1.0
1000
distance=196
  0
LINE
  5
A8
330
17
100
AcDbEntity
  8
PLAT-LINE
100
AcDbLine
 10
97.15346208526023
 20
310.2153806270618
 30
0.0
 11
100.22601412930044
 21
248.05270285060172
 31
0.0
1001
RASTER2DXF
1000
line 12
1040
62.239
1040
1.0
1000
distance=£60.43 %
  0
LINE
  5
A9
330
17
100
AcDbEntity
  8
PLAT-LINE
100
AcDbLine
 10
247.90212472583232
 20
380.7422495342919
 30
0.0
 11
250.5763012323918
 21
326.10004621907876
 31
0.0
1001
RASTER2DXF
1000
line 13
1040
54.708
1040
1.0
1000
distance=100°
  0
LINE
  5
AA
330
17
100
AcDbEntity
  8
PLAT-LINE
100
AcDbLine
 10
332.9055130767546
 20
384.91710890807406
 30
0.0
 11
335.0172701214228
 21
329.4956938245019
 31
0.0
1001
RASTER2DXF
1000
line 14
1040
55.462
1040
0.991
1000
bearing=N 02°24'03" W
  0
LINE
  5
AB
330
17
100
AcDbEntity
  8
PLAT-LINE
100
AcDbLine
 10
335.0172701214228
 20
329.4956938245019
 30
0.0
 11
335.6473223537163
 21
312.9604648414032
 31
0.0
1001
RASTER2DXF
1000
line 15
1040
16.547
1040
0.991
  0
LINE
  5
AC
330
17
100
AcDbEntity
  8
PLAT-LINE
100
AcDbLine
 10
927.0510213047229
 20
348.299604368848
 30
0.0
 11
924.0827601892506
 21
414.0197314390912
 31
0.0
1001
RASTER2DXF
1000
line 16
1040
65.787
1040
1.0
  0
LINE
  5
AD
330
17
100
AcDbEntity
  8
PLAT-LINE
100
AcDbLine
 10
999.4769362400649
 20
417.72866146407625
 30
0.0
 11
1002.9235007545512
 21
351.4906581026248
 31
0.0
1001
RASTER2DXF
1000
line 17
1040
66.328
1040
1.0
  0
LINE
  5
AE
330
17
100
AcDbEntity
  8
PLAT-LINE
100
AcDbLine
 10
1075.2237090683452
 20
421.45677651367896
 30
0.0
 11
1078.5005297468042
 21
354.66928574603753
 31
0.0
1001
RASTER2DXF
1000
line 18
1040
66.868
1040
1.0
  0
LINE
  5
AF
330
17
100
AcDbEntity
  8
PLAT-LINE
100
AcDbLine
 10
1229.1124413311084
 20
361.0037393753034
 30
0.0
 11
1225.7792297364417
 21
428.86597119645205
 31
0.0
1001
RASTER2DXF
1000
line 19
1040
67.944
1040
1.0
  0
LINE
  5
B0
330
17
100
AcDbEntity
  8
PLAT-LINE
100
AcDbLine
 10
539.8950470089351
 20
391.5322779500349
 30
0.0
 11
502.27258740536786
 21
299.787136590587
 31
0.0
1001
RASTER2DXF
1000
line 20
1040
99.16
1040
0.997
1000
distance="147.37°
  0
LINE
  5
B1
330
17
100
AcDbEntity
  8
PLAT-LINE
100
AcDbLine
 10
1154.639851812955
 20
414.6358522809941
 30
0.0
 11
1157.1078276399764
 21
357.97536079805934
 31
0.0
1001
RASTER2DXF
1000
line 21
1040
56.714
1040
0.864
  0
LINE
  5
B2
330
17
100
AcDbEntity
  8
PLAT-LINE
100
AcDbLine
 10
80.4298639297632
 20
332.8177946221098
 30
0.0
 11
69.10599831109778
 21
309.0662644291484
 31
0.0
1001
RASTER2DXF
1000
line 22
1040
26.313
1040
0.987
  0
LINE
  5
B3
330
17
100
AcDbEntity
  8
PLAT-LINE
100
AcDbLine
 10
15.439830369177685
 20
306.86753931950733
 30
0.0
 11
69.10599831109778
 21
309.0662644291484
 31
0.0
1001
RASTER2DXF
1000
line 23
1040
53.711
1040
1.0
1000
distance=— 0017)
  0
LINE
  5
B4
330
17
100
AcDbEntity
  8
PLAT-LINE
100
AcDbLine
 10
69.10599831109778
 20
309.0662644291484
 30
0.0
 11
97.15346208526023
 21
310.2153806270618
 31
0.0
1001
RASTER2DXF
1000
line 24
1040
28.071
1040
1.0
  0
LINE
  5
B5
330
17
100
AcDbEntity
  8
PLAT-LINE
100
AcDbLine
 10
758.7470765171432
 20
342.41597781888447
 30
0.0
 11
707.6456206187428
 21
334.43589635582936
 31
0.0
1001
RASTER2DXF
1000
line 25
1040
51.721
1040
1.0
1000
distance=59.50°
  0
LINE
  5
B6
330
17
100
AcDbEntity
  8
PLAT-LINE
100
AcDbLine
 10
758.9014156178338
 20
341.2275483222934
 30
0.0
 11
776.8562490201398
 21
341.9826948336929
 31
0.0
1001
RASTER2DXF
1000
line 26
1040
17.971
1040
1.0
  0
LINE
  5
B7
330
17
100
AcDbEntity
  8
PLAT-LINE
100
AcDbLine
 10
776.8562490201398
 20
341.9826948336929
 30
0.0
 11
850.9184035146423
 21
345.097609705923
 31
0.0
1001
RASTER2DXF
1000
line 27
1040
74.128
1040
1.0
1000
distance=73"
  0
LINE
  5
B8
330
17
100
AcDbEntity
  8
PLAT-LINE
100
AcDbLine
 10
850.9184035146423
 20
345.097609705923
 30
0.0
 11
927.0510213047229
 21
348.299604368848
 31
0.0
1001
RASTER2DXF
1000
line 28
1040
76.2
1040
1.0
1000
distance=75'
  0
LINE
  5
B9
330
17
100
AcDbEntity
  8
PLAT-LINE
100
AcDbLine
 10
927.0510213047229
 20
348.299604368848
 30
0.0
 11
1002.9235007545512
 21
351.4906581026248
 31
0.0
1001
RASTER2DXF
1000
line 29
1040
75.94
1040
1.0
1000
distance=75’
  0
LINE
  5
BA
330
17
100
AcDbEntity
  8
PLAT-LINE
100
AcDbLine
 10
1002.9235007545512
 20
351.4906581026248
 30
0.0
 11
1078.5005297468042
 21
354.66928574603753
 31
0.0
1001
RASTER2DXF
1000
line 30
1040
75.644
1040
1.0
1000
distance=75°
  0
LINE
  5
BB
330
17
100
AcDbEntity
  8
PLAT-LINE
100
AcDbLine
 10
1078.5005297468042
 20
354.66928574603753
 30
0.0
 11
1153.43428441912
 21
357.8208584818558
 31
0.0
1001
RASTER2DXF
1000
line 31
1040
75.0
1040
1.0
1000
distance=75"
1000
bearing=S 87°35'30" W
  0
LINE
  5
BC
330
17
100
AcDbEntity
  8
PLAT-LINE
100
AcDbLine
 10
1153.43428441912
 20
357.8208584818558
 30
0.0
 11
1229.1124413311084
 21
361.0037393753034
 31
0.0
1001
RASTER2DXF
1000
line 32
1040
75.745
1040
1.0
  0
LINE
  5
BD
330
17
100
AcDbEntity
  8
PLAT-LINE
100
AcDbLine
 10
1229.1124413311084
 20
361.0037393753034
 30
0.0
 11
1304.6571451374443
 21
364.1810074822153
 31
0.0
1001
RASTER2DXF
1000
line 33
1040
75.611
1040
1.0
1000
distance=75'
  0
LINE
  5
BE
330
17
100
AcDbEntity
  8
PLAT-LINE
100
AcDbLine
 10
1304.6571451374443
 20
364.1810074822153
 30
0.0
 11
1331.5044359929825
 21
365.3101540231954
 31
0.0
1001
RASTER2DXF
1000
line 34
1040
26.871
1040
1.0
  0
LINE
  5
BF
330
17
100
AcDbEntity
  8
PLAT-LINE
100
AcDbLine
 10
0.7781152005950389
 20
234.89320751930575
 30
0.0
 11
5.99262416267311
 21
84.5675650611613
 31
0.0
1001
RASTER2DXF
1000
line 35
1040
150.416
1040
0.98
1000
distance=—75'—
  0
LINE
  5
C0
330
17
100
AcDbEntity
  8
PLAT-LINE
100
AcDbLine
 10
424.73096033196293
 20
323.97281851531795
 30
0.0
 11
489.9430933952688
 21
305.5273476490403
 31
0.0
1001
RASTER2DXF
1000
line 36
1040
67.771
1040
1.0
1000
distance=85.24"
  0
LINE
  5
C1
330
17
100
AcDbEntity
  8
PLAT-LINE
100
AcDbLine
 10
371.4273377984391
 20
317.7740101940833
 30
0.0
 11
398.6619522008584
 21
315.3684322476503
 31
0.0
1001
RASTER2DXF
1000
line 37
1040
27.341
1040
0.851
  0
LINE
  5
C2
330
17
100
AcDbEntity
  8
PLAT-LINE
100
AcDbLine
 10
646.026742826604
 20
301.739939078379
 30
0.0
 11
612.0417720761108
 21
268.8057415136118
 31
0.0
1001
RASTER2DXF
1000
line 38
1040
47.325
1040
1.0
1000
distance="51.68'
  0
LINE
  5
C3
330
17
100
AcDbEntity
  8
PLAT-LINE
100
AcDbLine
 10
160.96921160146104
 20
230.06065555312492
 30
0.0
 11
161.99682238244355
 21
160.8234467144428
 31
0.0
1001
RASTER2DXF
1000
line 39
1040
69.245
1040
1.0
1000
bearing=N 01°00'14" W
1000
distance=12,01
  0
LINE
  5
C4
330
17
100
AcDbEntity
  8
PLAT-LINE
100
AcDbLine
 10
189.88982177873106
 20
262.80571086233766
 30
0.0
 11
259.87730921979414
 21
265.28236227884946
 31
0.0
1001
RASTER2DXF
1000
line 40
1040
70.031
1040
0.968
1000
distance=99.93"
  0
LINE
  5
C5
330
17
100
AcDbEntity
  8
PLAT-LINE
100
AcDbLine
 10
259.87730921979414
 20
265.28236227884946
 30
0.0
 11
337.9483448103285
 21
268.0450666986454
 31
0.0
1001
RASTER2DXF
1000
line 41
1040
78.12
1040
0.968
1000
distance="> 83.26",
  0
LINE
  5
C6
330
17
100
AcDbEntity
  8
PLAT-LINE
100
AcDbLine
 10
337.64792782520595
 20
268.26502178321806
 30
0.0
 11
341.8655105394468
 21
166.11739491459468
 31
0.0
1001
RASTER2DXF
1000
line 42
1040
102.235
1040
1.0
1000
bearing=N 02°24'30" W
  0
LINE
  5
C7
330
17
100
AcDbEntity
  8
PLAT-LINE
100
AcDbLine
 10
264.54406838510374
 20
163.48041174508074
 30
0.0
 11
259.86530101337803
 21
265.6217011903062
 31
0.0
1001
RASTER2DXF
1000
line 43
1040
102.248
1040
1.0
1000
bearing=N 02°24'30" W
1000
distance=103.17"
  0
LINE
  5
C8
330
17
100
AcDbEntity
  8
PLAT-LINE
100
AcDbLine
 10
761.4984896671931
 20
281.7196083450765
 30
0.0
 11
789.2668791472071
 21
282.95365310651266
 31
0.0
1001
RASTER2DXF
1000
line 44
1040
27.796
1040
0.951
1000
distance=15,
  0
LINE
  5
C9
330
17
100
AcDbEntity
  8
PLAT-LINE
100
AcDbLine
 10
789.2668791472071
 20
282.95365310651266
 30
0.0
 11
876.6065187257815
 21
286.83508183558024
 31
0.0
1001
RASTER2DXF
1000
line 45
1040
87.426
1040
0.951
1000
distance=/00°
  0
LINE
  5
CA
330
17
100
AcDbEntity
  8
PLAT-LINE
100
AcDbLine
 10
1155.9750631790178
 20
299.7170587565951
 30
0.0
 11
1166.0175334058797
 21
94.7396144121777
 31
0.0
1001
RASTER2DXF
1000
line 46
1040
205.223
1040
1.0
  0
LINE
  5
CB
330
17
100
AcDbEntity
  8
PLAT-LINE
100
AcDbLine
 10
793.3478762524334
 20
192.74519121989528
 30
0.0
 11
793.1165263301633
 21
197.8588776674866
 31
0.0
1001
RASTER2DXF
1000
line 47
1040
5.119
1040
1.0
  0
LINE
  5
CC
330
17
100
AcDbEntity
  8
PLAT-LINE
100
AcDbLine
 10
793.1165263301633
 20
197.8588776674866
 30
0.0
 11
789.2753565905359
 21
282.76289426574317
 31
0.0
1001
RASTER2DXF
1000
line 48
1040
84.991
1040
1.0
1000
bearing=N 02°20'30" W
  0
LINE
  5
CD
330
17
100
AcDbEntity
  8
PLAT-LINE
100
AcDbLine
 10
891.9273969313932
 20
286.9837624949096
 30
0.0
 11
980.2244741897646
 21
291.2417544694245
 31
0.0
1001
RASTER2DXF
1000
line 49
1040
88.4
1040
1.0
1000
distance=88.50"
  0
LINE
  5
CE
330
17
100
AcDbEntity
  8
PLAT-LINE
100
AcDbLine
 10
980.2244741897646
 20
291.2417544694245
 30
0.0
 11
1068.0028305554654
 21
295.4747319194887
 31
0.0
1001
RASTER2DXF
1000
line 50
1040
87.88
1040
1.0
1000
distance=&8.48'
  0
LINE
  5
CF
330
17
100
AcDbEntity
  8
PLAT-LINE
100
AcDbLine
 10
1068.0028305554654
 20
295.4747319194887
 30
0.0
 11
1155.9750631790178
 21
299.7170587565951
 31
0.0
1001
RASTER2DXF
1000
line 51
1040
88.074
1040
1.0
1000
distance=88.48'
  0
LINE
  5
D0
330
17
100
AcDbEntity
  8
PLAT-LINE
100
AcDbLine
 10
1155.9750631790178
 20
299.7170587565951
 30
0.0
 11
1159.8217058672321
 21
299.9025572374487
 31
0.0
1001
RASTER2DXF
1000
line 52
1040
3.851
1040
1.0
  0
LINE
  5
D1
330
17
100
AcDbEntity
  8
PLAT-LINE
100
AcDbLine
 10
1159.8217058672321
 20
299.9025572374487
 30
0.0
 11
1231.2719829882217
 21
303.3481379520606
 31
0.0
1001
RASTER2DXF
1000
line 53
1040
71.533
1040
1.0
1000
distance=75°
  0
LINE
  5
D2
330
17
100
AcDbEntity
  8
PLAT-LINE
100
AcDbLine
 10
1231.2719829882217
 20
303.3481379520606
 30
0.0
 11
1307.2188466394396
 21
307.010559698708
 31
0.0
1001
RASTER2DXF
1000
line 54
1040
76.035
1040
1.0
1000
distance=75°
  0
LINE
  5
D3
330
17
100
AcDbEntity
  8
PLAT-LINE
100
AcDbLine
 10
1307.2188466394396
 20
307.010559698708
 30
0.0
 11
1334.3116914329137
 21
308.3170708458418
 31
0.0
1001
RASTER2DXF
1000
line 55
1040
27.124
1040
1.0
  0
LINE
  5
D4
330
17
100
AcDbEntity
  8
PLAT-LINE
100
AcDbLine
 10
980.2244741897646
 20
291.2417544694245
 30
0.0
 11
984.0290261707082
 21
194.26906768514135
 31
0.0
1001
RASTER2DXF
1000
line 56
1040
97.047
1040
1.0
  0
LINE
  5
D5
330
17
100
AcDbEntity
  8
PLAT-LINE
100
AcDbLine
 10
891.9273969313932
 20
286.9837624949096
 30
0.0
 11
896.8668848858845
 21
185.7019396526565
 31
0.0
1001
RASTER2DXF
1000
line 57
1040
101.402
1040
0.948
1000
distance=100°
  0
LINE
  5
D6
330
17
100
AcDbEntity
  8
PLAT-LINE
100
AcDbLine
 10
896.8668848858845
 20
185.7019396526565
 30
0.0
 11
897.3265106009032
 21
176.27753561094917
 31
0.0
1001
RASTER2DXF
1000
line 58
1040
9.436
1040
0.948
  0
LINE
  5
D7
330
17
100
AcDbEntity
  8
PLAT-LINE
100
AcDbLine
 10
1068.0028305554654
 20
295.4747319194887
 30
0.0
 11
1073.0112652224198
 21
193.70314407769922
 31
0.0
1001
RASTER2DXF
1000
line 59
1040
101.895
1040
1.0
  0
LINE
  5
D8
330
17
100
AcDbEntity
  8
PLAT-LINE-DASH
100
AcDbLine
 10
1159.8217058672321
 20
299.9025572374487
 30
0.0
 11
1164.9736117814964
 21
192.05201389233667
 31
0.0
1001
RASTER2DXF
1000
line 60
1040
107.974
1040
0.773
  0
LINE
  5
D9
330
17
100
AcDbEntity
  8
PLAT-LINE-DASH
100
AcDbLine
 10
1164.9736117814964
 20
192.05201389233667
 30
0.0
 11
1169.6136189851645
 21
94.91761230023567
 31
0.0
1001
RASTER2DXF
1000
line 61
1040
97.245
1040
0.773
  0
LINE
  5
DA
330
17
100
AcDbEntity
  8
PLAT-LINE
100
AcDbLine
 10
1231.2719829882217
 20
303.3481379520606
 30
0.0
 11
1241.3425456774926
 21
98.46802765671299
 31
0.0
1001
RASTER2DXF
1000
line 62
1040
205.127
1040
1.0
  0
LINE
  5
DB
330
17
100
AcDbEntity
  8
PLAT-LINE
100
AcDbLine
 10
1307.2188466394398
 20
307.01055969870805
 30
0.0
 11
1317.098741552519
 21
102.21778348864804
 31
0.0
1001
RASTER2DXF
1000
line 63
1040
205.031
1040
0.961
  0
LINE
  5
DC
330
17
100
AcDbEntity
  8
PLAT-LINE
100
AcDbLine
 10
0.7781152005950389
 20
234.89320751930575
 30
0.0
 11
100.1660413454158
 21
236.20397496203836
 31
0.0
1001
RASTER2DXF
1000
line 64
1040
99.397
1040
0.983
  0
LINE
  5
DD
330
17
100
AcDbEntity
  8
PLAT-LINE
100
AcDbLine
 10
441.2542924867183
 20
256.08232957755405
 30
0.0
 11
412.934001624525
 21
153.52925813565238
 31
0.0
1001
RASTER2DXF
1000
line 65
1040
106.392
1040
1.0
  0
LINE
  5
DE
330
17
100
AcDbEntity
  8
PLAT-LINE
100
AcDbLine
 10
100.1660413454158
 20
236.20397496203836
 30
0.0
 11
102.05912045149262
 21
161.77682470242422
 31
0.0
1001
RASTER2DXF
1000
line 66
1040
74.451
1040
1.0
1000
distance=75°
  0
LINE
  5
DF
330
17
100
AcDbEntity
  8
PLAT-LINE
100
AcDbLine
 10
102.05912045149262
 20
161.77682470242422
 30
0.0
 11
103.98009344922878
 21
86.25301511187979
 31
0.0
1001
RASTER2DXF
1000
line 67
1040
75.548
1040
1.0
1000
distance=75"
  0
LINE
  5
E0
330
17
100
AcDbEntity
  8
PLAT-LINE
100
AcDbLine
 10
103.98009344922878
 20
86.25301511187979
 30
0.0
 11
105.88702296313875
 21
11.281330616133431
 31
0.0
1001
RASTER2DXF
1000
line 68
1040
74.996
1040
1.0
1000
distance=75°
  0
LINE
  5
E1
330
17
100
AcDbEntity
  8
PLAT-LINE
100
AcDbLine
 10
105.88702296313875
 20
11.281330616133431
 30
0.0
 11
106.85947319532079
 21
-26.95093306385499
 31
0.0
1001
RASTER2DXF
1000
line 69
1040
38.245
1040
1.0
  0
LINE
  5
E2
330
17
100
AcDbEntity
  8
PLAT-LINE
100
AcDbLine
 10
566.0765733171229
 20
241.41999928073733
 30
0.0
 11
545.5304888380485
 21
234.90663716078717
 31
0.0
1001
RASTER2DXF
1000
line 70
1040
21.554
1040
0.999
  0
LINE
  5
E3
330
17
100
AcDbEntity
  8
PLAT-LINE
100
AcDbLine
 10
561.8322654380764
 20
230.0336014916346
 30
0.0
 11
581.5360101966368
 21
231.23862151584615
 31
0.0
1001
RASTER2DXF
1000
line 71
1040
19.741
1040
0.983
  0
LINE
  5
E4
330
17
100
AcDbEntity
  8
PLAT-LINE
100
AcDbLine
 10
531.1887924232278
 20
215.87476343821177
 30
0.0
 11
477.8648294259506
 21
131.95714431291321
 31
0.0
1001
RASTER2DXF
1000
line 72
1040
99.426
1040
0.966
1000
distance=99.60°
  0
LINE
  5
E5
330
17
100
AcDbEntity
  8
PLAT-LINE
100
AcDbLine
 10
654.3153282879078
 20
214.90501828813768
 30
0.0
 11
675.8624939915686
 21
210.42572813279614
 31
0.0
1001
RASTER2DXF
1000
line 73
1040
22.008
1040
1.0
  0
LINE
  5
E6
330
17
100
AcDbEntity
  8
PLAT-LINE
100
AcDbLine
 10
675.1025008441544
 20
189.58341980339304
 30
0.0
 11
832.3998360305686
 21
79.77119172931455
 31
0.0
1001
RASTER2DXF
1000
line 74
1040
191.836
1040
0.981
1000
distance=10°
  0
LINE
  5
E7
330
17
100
AcDbEntity
  8
PLAT-LINE
100
AcDbLine
 10
832.3998360305686
 20
79.77119172931455
 30
0.0
 11
921.426139165994
 21
17.62025514215904
 31
0.0
1001
RASTER2DXF
1000
line 75
1040
108.574
1040
0.981
1000
distance=125°
  0
LINE
  5
E8
330
17
100
AcDbEntity
  8
PLAT-LINE
100
AcDbLine
 10
541.9462792725403
 20
208.57436596091114
 30
0.0
 11
596.4436718814428
 21
170.59221407676728
 31
0.0
1001
RASTER2DXF
1000
line 76
1040
66.427
1040
0.995
1000
distance=0119
  0
LINE
  5
E9
330
17
100
AcDbEntity
  8
PLAT-LINE
100
AcDbLine
 10
596.4436718814428
 20
170.59221407676728
 30
0.0
 11
657.8086615019148
 21
127.82366599483682
 31
0.0
1001
RASTER2DXF
1000
line 77
1040
74.798
1040
0.995
1000
distance=75°
  0
LINE
  5
EA
330
17
100
AcDbEntity
  8
PLAT-LINE
100
AcDbLine
 10
657.8086615019148
 20
127.82366599483682
 30
0.0
 11
718.4376877213326
 21
85.56805022657916
 31
0.0
1001
RASTER2DXF
1000
line 78
1040
73.901
1040
0.995
1000
distance=75°
  0
LINE
  5
EB
330
17
100
AcDbEntity
  8
PLAT-LINE
100
AcDbLine
 10
718.4376877213326
 20
85.56805022657916
 30
0.0
 11
782.3307022053317
 21
41.03758621185435
 31
0.0
1001
RASTER2DXF
1000
line 79
1040
77.88
1040
0.995
1000
distance=75’
  0
LINE
  5
EC
330
17
100
AcDbEntity
  8
PLAT-LINE
100
AcDbLine
 10
782.3307022053317
 20
41.03758621185435
 30
0.0
 11
830.7763682328115
 21
7.273206723290286
 31
0.0
1001
RASTER2DXF
1000
line 80
1040
59.051
1040
0.995
1000
distance=78°
  0
LINE
  5
ED
330
17
100
AcDbEntity
  8
PLAT-LINE
100
AcDbLine
 10
793.1165263301633
 20
197.8588776674866
 30
0.0
 11
887.4829657217789
 21
184.9214228138885
 31
0.0
1001
RASTER2DXF
1000
line 81
1040
95.249
1040
1.0
1000
distance=701.78°-*
  0
LINE
  5
EE
330
17
100
AcDbEntity
  8
PLAT-LINE
100
AcDbLine
 10
36.41063191213391
 20
160.25586346462086
 30
0.0
 11
102.05912045149262
 21
161.77682470242422
 31
0.0
1001
RASTER2DXF
1000
line 82
1040
65.666
1040
0.866
  0
LINE
  5
EF
330
17
100
AcDbEntity
  8
PLAT-LINE
100
AcDbLine
 10
247.3255153838782
 20
167.4296445319054
 30
0.0
 11
272.10013068343045
 21
168.20654484861865
 31
0.0
1001
RASTER2DXF
1000
line 83
1040
24.787
1040
0.905
  0
LINE
  5
F0
330
17
100
AcDbEntity
  8
PLAT-LINE
100
AcDbLine
 10
165.77769516722395
 20
78.89520092705445
 30
0.0
 11
161.43016602534834
 21
160.80876483673396
 31
0.0
1001
RASTER2DXF
1000
line 84
1040
82.029
1040
1.0
1000
distance=100°
  0
LINE
  5
F1
330
17
100
AcDbEntity
  8
PLAT-LINE
100
AcDbLine
 10
161.43016602534834
 20
160.80876483673396
 30
0.0
 11
264.54406838510374
 21
163.4804117450807
 31
0.0
1001
RASTER2DXF
1000
line 85
1040
103.149
1040
1.0
1000
distance=-—/02.38'-
  0
LINE
  5
F2
330
17
100
AcDbEntity
  8
PLAT-LINE
100
AcDbLine
 10
264.54406838510374
 20
163.4804117450807
 30
0.0
 11
341.8916437771545
 21
165.48446169310154
 31
0.0
1001
RASTER2DXF
1000
line 86
1040
77.374
1040
1.0
  0
LINE
  5
F3
330
17
100
AcDbEntity
  8
PLAT-LINE
100
AcDbLine
 10
264.6479086247321
 20
163.48310221114605
 30
0.0
 11
262.74254983630965
 21
59.5089143561832
 31
0.0
1001
RASTER2DXF
1000
line 87
1040
103.992
1040
0.98
1000
bearing=N 01°58'48" E
1000
distance=. 700.44°
  0
LINE
  5
F4
330
17
100
AcDbEntity
  8
PLAT-LINE
100
AcDbLine
 10
198.756009463187
 20
60.24129147105856
 30
0.0
 11
262.72434859573315
 21
58.51568451496124
 31
0.0
1001
RASTER2DXF
1000
line 88
1040
63.992
1040
0.979
1000
bearing=S 88°58'20" E
  0
LINE
  5
F5
330
17
100
AcDbEntity
  8
PLAT-LINE
100
AcDbLine
 10
181.19362492591995
 20
155.14674463266928
 30
0.0
 11
327.82534679979227
 21
160.25629493675154
 31
0.0
1001
RASTER2DXF
1000
line 89
1040
146.721
1040
0.869
  0
LINE
  5
F6
330
17
100
AcDbEntity
  8
PLAT-LINE
100
AcDbLine
 10
1218.3565034827698
 20
204.54540502744226
 30
0.0
 11
1337.4883062749027
 21
209.6993191299515
 31
0.0
1001
RASTER2DXF
1000
line 90
1040
119.243
1040
0.83
  0
LINE
  5
F7
330
17
100
AcDbEntity
  8
PLAT-LINE
100
AcDbLine
 10
896.8668848858845
 20
185.70193965265645
 30
0.0
 11
1073.0112652224198
 21
193.70314407769922
 31
0.0
1001
RASTER2DXF
1000
line 91
1040
176.326
1040
0.991
1000
distance=-88.50.
  0
LINE
  5
F8
330
17
100
AcDbEntity
  8
PLAT-LINE
100
AcDbLine
 10
1073.0112652224198
 20
193.70314407769922
 30
0.0
 11
1085.0551459258088
 21
194.25022682535507
 31
0.0
1001
RASTER2DXF
1000
line 92
1040
12.056
1040
0.991
  0
LINE
  5
F9
330
17
100
AcDbEntity
  8
PLAT-LINE
100
AcDbLine
 10
1085.0551459258088
 20
194.25022682535507
 30
0.0
 11
1339.6919363921786
 21
205.8168803329244
 31
0.0
1001
RASTER2DXF
1000
line 93
1040
254.899
1040
0.991
1000
distance=-75'—-
  0
LINE
  5
FA
330
17
100
AcDbEntity
  8
PLAT-LINE
100
AcDbLine
 10
341.8655105394468
 20
166.11739491459468
 30
0.0
 11
451.8822790428394
 21
138.47667994889912
 31
0.0
1001
RASTER2DXF
1000
line 94
1040
113.436
1040
0.927
1000
distance=20",
  0
LINE
  5
FB
330
17
100
AcDbEntity
  8
PLAT-LINE
100
AcDbLine
 10
451.8822790428394
 20
138.47667994889912
 30
0.0
 11
477.883372121464
 21
131.94414120631083
 31
0.0
1001
RASTER2DXF
1000
line 95
1040
26.809
1040
0.927
1000
distance=66.86%
  0
LINE
  5
FC
330
17
100
AcDbEntity
  8
PLAT-LINE
100
AcDbLine
 10
1085.0551459258088
 20
194.25022682535507
 30
0.0
 11
1089.7724458716218
 21
90.6734563014565
 31
0.0
1001
RASTER2DXF
1000
line 96
1040
103.684
1040
1.0
1000
bearing=N 02°24'30" W
1000
distance=100°
  0
LINE
  5
FD
330
17
100
AcDbEntity
  8
PLAT-LINE
100
AcDbLine
 10
596.4436718814428
 20
170.59221407676728
 30
0.0
 11
539.6955021382314
 21
88.59824711291932
 31
0.0
1001
RASTER2DXF
1000
line 97
1040
99.716
1040
0.939
1000
distance=100°
  0
LINE
  5
FE
330
17
100
AcDbEntity
  8
PLAT-LINE
100
AcDbLine
 10
960.7858372032479
 20
184.647061577073
 30
0.0
 11
935.3550620475338
 21
182.3767289129111
 31
0.0
1001
RASTER2DXF
1000
line 98
1040
25.532
1040
0.853
  0
LINE
  5
FF
330
17
100
AcDbEntity
  8
PLAT-LINE
100
AcDbLine
 10
400.36719403495
 20
156.60802121475615
 30
0.0
 11
412.934001624525
 21
153.52925813565238
 31
0.0
1001
RASTER2DXF
1000
line 99
1040
12.938
1040
0.988
  0
LINE
  5
100
330
17
100
AcDbEntity
  8
PLAT-LINE
100
AcDbLine
 10
412.934001624525
 20
153.52925813565238
 30
0.0
 11
425.8008855953566
 21
150.37697884513696
 31
0.0
1001
RASTER2DXF
1000
line 100
1040
13.247
1040
0.988
  0
LINE
  5
101
330
17
100
AcDbEntity
  8
PLAT-LINE
100
AcDbLine
 10
776.4189635588915
 20
175.39971820592103
 30
0.0
 11
757.4898514297793
 21
157.4001581699075
 31
0.0
1001
RASTER2DXF
1000
line 101
1040
26.121
1040
1.0
1000
distance=479.20"
  0
LINE
  5
102
330
17
100
AcDbEntity
  8
PLAT-LINE
100
AcDbLine
 10
935.3550620475338
 20
182.3767289129111
 30
0.0
 11
951.2397832156387
 21
27.81500642982641
 31
0.0
1001
RASTER2DXF
1000
line 102
1040
155.376
1040
0.996
1000
distance=167.98"
  0
LINE
  5
103
330
17
100
AcDbEntity
  8
PLAT-LINE
100
AcDbLine
 10
365.7904958194443
 20
154.41747494902827
 30
0.0
 11
345.139841903279
 21
51.547364636144465
 31
0.0
1001
RASTER2DXF
1000
line 103
1040
104.922
1040
1.0
1000
distance=109.05",
  0
LINE
  5
104
330
17
100
AcDbEntity
  8
PLAT-LINE
100
AcDbLine
 10
365.7904958194443
 20
154.41747494902827
 30
0.0
 11
389.85335440888093
 21
148.54668460550053
 31
0.0
1001
RASTER2DXF
1000
line 104
1040
24.769
1040
0.905
1000
distance=—-66. 85"
  0
LINE
  5
105
330
17
100
AcDbEntity
  8
PLAT-LINE
100
AcDbLine
 10
1164.9736117814964
 20
192.05201389233667
 30
0.0
 11
1215.5159943644994
 21
194.1769105601668
 31
0.0
1001
RASTER2DXF
1000
line 105
1040
50.587
1040
0.881
1000
distance=35
  0
LINE
  5
106
330
17
100
AcDbEntity
  8
PLAT-LINE
100
AcDbLine
 10
891.6479482191999
 20
176.73848659947507
 30
0.0
 11
831.8109211150302
 21
78.92761767121206
 31
0.0
1001
RASTER2DXF
1000
line 106
1040
114.662
1040
0.945
  0
LINE
  5
107
330
17
100
AcDbEntity
  8
PLAT-LINE
100
AcDbLine
 10
1006.2436234178094
 20
180.63050416497438
 30
0.0
 11
1020.3285918128493
 21
79.55368756207122
 31
0.0
1001
RASTER2DXF
1000
line 107
1040
102.053
1040
0.997
1000
distance=16.28"
  0
LINE
  5
108
330
17
100
AcDbEntity
  8
PLAT-LINE
100
AcDbLine
 10
451.8822790428394
 20
138.47667994889912
 30
0.0
 11
415.8570166211817
 21
32.60476255839049
 31
0.0
1001
RASTER2DXF
1000
line 108
1040
111.833
1040
1.0
1000
distance=112.43°
  0
LINE
  5
109
330
17
100
AcDbEntity
  8
PLAT-LINE
100
AcDbLine
 10
477.883372121464
 20
131.94414120631083
 30
0.0
 11
539.6955021382314
 21
88.5982471129193
 31
0.0
1001
RASTER2DXF
1000
line 109
1040
75.496
1040
0.987
1000
distance=_-75"
  0
LINE
  5
10A
330
17
100
AcDbEntity
  8
PLAT-LINE
100
AcDbLine
 10
539.6955021382314
 20
88.5982471129193
 30
0.0
 11
646.5549623459245
 21
13.662812210689594
 31
0.0
1001
RASTER2DXF
1000
line 110
1040
130.515
1040
0.987
1000
distance=—-- 85!
  0
LINE
  5
10B
330
17
100
AcDbEntity
  8
PLAT-LINE
100
AcDbLine
 10
657.8086615019148
 20
127.82366599483682
 30
0.0
 11
578.5993703479584
 21
12.993419771476596
 31
0.0
1001
RASTER2DXF
1000
line 111
1040
139.499
1040
0.916
1000
distance=10"
  0
LINE
  5
10C
330
17
100
AcDbEntity
  8
PLAT-LINE
100
AcDbLine
 10
5.99262416267311
 20
84.5675650611613
 30
0.0
 11
103.98009344922878
 21
86.25301511187979
 31
0.0
1001
RASTER2DXF
1000
line 112
1040
98.002
1040
1.0
  0
LINE
  5
10D
330
17
100
AcDbEntity
  8
PLAT-LINE-DASH
100
AcDbLine
 10
1160.3700144667619
 20
108.06858329649134
 30
0.0
 11
1146.2106278025108
 21
417.23693625024157
 31
0.0
1001
RASTER2DXF
1000
line 113
1040
309.492
1040
0.799
  0
LINE
  5
10E
330
17
100
AcDbEntity
  8
PLAT-LINE
100
AcDbLine
 10
524.9889928686661
 20
90.9328898467785
 30
0.0
 11
479.6517550765676
 21
3.941718714682338
 31
0.0
1001
RASTER2DXF
1000
line 114
1040
98.097
1040
0.962
1000
distance=® 104.68"
  0
LINE
  5
10F
330
17
100
AcDbEntity
  8
PLAT-LINE
100
AcDbLine
 10
718.4376877213326
 20
85.56805022657916
 30
0.0
 11
672.5437434867855
 21
18.95404118189444
 31
0.0
1001
RASTER2DXF
1000
line 115
1040
80.893
1040
1.0
  0
LINE
  5
110
330
17
100
AcDbEntity
  8
PLAT-LINE
100
AcDbLine
 10
262.74254983630965
 20
59.5089143561832
 30
0.0
 11
331.1431247268653
 21
53.887852870926736
 31
0.0
1001
RASTER2DXF
1000
line 116
1040
68.631
1040
1.0
1000
distance=76.78°
  0
LINE
  5
111
330
17
100
AcDbEntity
  8
PLAT-LINE
100
AcDbLine
 10
1090.1452689224363
 20
90.984113453573
 30
0.0
 11
1166.0175334058797
 21
94.73961441217773
 31
0.0
1001
RASTER2DXF
1000
line 117
1040
75.965
1040
1.0
1000
distance=75°
  0
LINE
  5
112
330
17
100
AcDbEntity
  8
PLAT-LINE
100
AcDbLine
 10
1166.0175334058797
 20
94.73961441217773
 30
0.0
 11
1241.3425456774926
 21
98.46802765671299
 31
0.0
1001
RASTER2DXF
1000
line 118
1040
75.417
1040
1.0
1000
distance=75°
  0
LINE
  5
113
330
17
100
AcDbEntity
  8
PLAT-LINE
100
AcDbLine
 10
1241.3425456774926
 20
98.46802765671299
 30
0.0
 11
1317.098741552519
 21
102.21778348864798
 31
0.0
1001
RASTER2DXF
1000
line 119
1040
75.849
1040
1.0
1000
distance=75'
  0
LINE
  5
114
330
17
100
AcDbEntity
  8
PLAT-LINE
100
AcDbLine
 10
1317.098741552519
 20
102.21778348864798
 30
0.0
 11
1344.388044997957
 21
103.56854065856692
 31
0.0
1001
RASTER2DXF
1000
line 120
1040
27.323
1040
1.0
  0
LINE
  5
115
330
17
100
AcDbEntity
  8
PLAT-LINE
100
AcDbLine
 10
345.139841903279
 20
51.547364636144465
 30
0.0
 11
415.8466417416482
 21
32.57427261008567
 31
0.0
1001
RASTER2DXF
1000
line 121
1040
73.208
1040
1.0
1000
distance=76.78'
  0
LINE
  5
116
330
17
100
AcDbEntity
  8
PLAT-LINE
100
AcDbLine
 10
415.8570166211817
 20
32.60476255839049
 30
0.0
 11
479.9923823639589
 21
4.595299922818356
 31
0.0
1001
RASTER2DXF
1000
line 122
1040
69.985
1040
1.0
1000
distance=76.76°
  0
LINE
  5
117
330
17
100
AcDbEntity
  8
PLAT-LINE
100
AcDbLine
 10
9.313770759662361
 20
8.903035806989976
 30
0.0
 11
105.88702296313886
 21
11.281330616133431
 31
0.0
1001
RASTER2DXF
1000
line 123
1040
96.603
1040
1.0
  0
LINE
  5
118
330
17
100
AcDbEntity
  8
PLAT-LINE
100
AcDbLine
 10
782.3307022053317
 20
41.03758621185435
 30
0.0
 11
756.6086543405263
 21
3.9317333924707896
 31
0.0
1001
RASTER2DXF
1000
line 124
1040
45.149
1040
1.0
  0
LINE
  5
119
330
17
100
AcDbEntity
  8
PLAT-LINE
100
AcDbLine
 10
262.9829436782664
 20
-0.7202346997019617
 30
0.0
 11
185.92045922385086
 21
-1.9896529178344906
 31
0.0
1001
RASTER2DXF
1000
line 125
1040
77.073
1040
0.995
1000
distance=80°
  0
LINE
  5
11A
330
17
100
AcDbEntity
  8
PLAT-LINE
100
AcDbLine
 10
479.6517550765676
 20
3.941718714682338
 30
0.0
 11
502.79832650142475
 21
-8.701003393437617
 31
0.0
1001
RASTER2DXF
1000
line 126
1040
26.374
1040
1.0
1000
distance=62.5"
  0
LINE
  5
11B
330
17
100
AcDbEntity
  8
PLAT-LINE
100
AcDbLine
 10
1347.2942649743377
 20
44.51938062197084
 30
0.0
 11
1092.6977445567961
 21
30.775668971096195
 31
0.0
1001
RASTER2DXF
1000
line 127
1040
254.967
1040
0.995
1000
distance=108.22!
  0
LINE
  5
11C
330
17
100
AcDbEntity
  8
PLAT-LINE
100
AcDbLine
 10
793.3478762524334
 20
192.74519121989528
 30
0.0
 11
826.4704023286909
 21
187.36536949404302
 31
0.0
1001
RASTER2DXF
1000
line 128
1040
33.557
1040
0.908
  0
LINE
  5
11D
330
17
100
AcDbEntity
  8
PLAT-LINE
100
AcDbLine
 10
984.0290261707082
 20
194.26906768514135
 30
0.0
 11
1008.8797897981444
 21
195.2395284444692
 31
0.0
1001
RASTER2DXF
1000
line 129
1040
24.87
1040
0.9
1000
distance=~ 10°
  0
LINE
  5
11E
330
17
100
AcDbEntity
  8
PLAT-LINE
100
AcDbLine
 10
1092.6851326324759
 20
189.22239545395263
 30
0.0
 11
1057.5408836763913
 21
187.82151708018844
 31
0.0
1001
RASTER2DXF
1000
line 130
1040
35.172
1040
0.876
  0
LINE
  5
11F
330
17
100
AcDbEntity
  8
PLAT-LINE-DASH
100
AcDbLine
 10
1220.5423351027016
 20
194.20479073011873
 30
0.0
 11
1289.1243673415283
 21
197.53202791487638
 31
0.0
1001
RASTER2DXF
1000
line 131
1040
68.663
1040
0.717
  0
LINE
  5
120
330
17
100
AcDbEntity
  8
PLAT-LINE
100
AcDbLine
 10
514.5605037123643
 20
112.3603616279542
 30
0.0
 11
534.18626670405
 21
98.14008030523927
 31
0.0
1001
RASTER2DXF
1000
line 132
1040
24.236
1040
0.862
  0
LINE
  5
121
330
17
100
AcDbEntity
  8
PLAT-LINE
100
AcDbLine
 10
571.1015154093628
 20
59.57007232582339
 30
0.0
 11
589.9621214016155
 21
46.44811836619235
 31
0.0
1001
RASTER2DXF
1000
line 133
1040
22.976
1040
0.834
  0
LINE
  5
122
330
17
100
AcDbEntity
  8
PLAT-LINE
100
AcDbLine
 10
627.9648142020318
 20
32.691995045146314
 30
0.0
 11
650.4593685449838
 21
16.783194675399812
 31
0.0
1001
RASTER2DXF
1000
line 134
1040
27.552
1040
0.853
  0
ARC
  5
123
330
17
100
AcDbEntity
  8
PLAT-CURVE
100
AcDbCircle
 10
181.84586832048433
 20
350.709307358783
 30
0.0
 40
27.744500104921993
100
AcDbArc
 50
-156.36737454677436
 51
-71.30945200978024
1001
RASTER2DXF
1000
arc 0
1040
27.745
1040
41.188
  0
ARC
  5
124
330
17
100
AcDbEntity
  8
PLAT-CURVE
100
AcDbCircle
 10
783.4500478947589
 20
367.19348546713104
 30
0.0
 40
18.095382387486524
100
AcDbArc
 50
174.24327029531233
 51
-130.75012551199617
1001
RASTER2DXF
1000
arc 1
1040
18.095
1040
17.372
  0
ARC
  5
125
330
17
100
AcDbEntity
  8
PLAT-CURVE
100
AcDbCircle
 10
351.96394396685656
 20
-63.16198227636656
 30
0.0
 40
393.0220657019307
100
AcDbArc
 50
79.38151268253313
 51
92.43622985992346
1001
RASTER2DXF
1000
arc 2
1040
393.022
1040
89.549
1000
distance=85.28"
  0
ARC
  5
126
330
17
100
AcDbEntity
  8
PLAT-CURVE
100
AcDbCircle
 10
772.3102262332451
 20
133.0780481974631
 30
0.0
 40
209.87557392801995
100
AcDbArc
 50
107.81109228215782
 51
126.76959097300052
1001
RASTER2DXF
1000
arc 3
1040
209.876
1040
69.445
1000
distance="68.15"
  0
ARC
  5
127
330
17
100
AcDbEntity
  8
PLAT-CURVE
100
AcDbCircle
 10
811.4573438691319
 20
321.5904412447549
 30
0.0
 40
10.910779467489043
100
AcDbArc
 50
-122.16305576361927
 51
-39.37908506735308
1001
RASTER2DXF
1000
arc 4
1040
10.911
1040
15.764
  0
ARC
  5
128
330
17
100
AcDbEntity
  8
PLAT-CURVE
100
AcDbCircle
 10
933.3434090224423
 20
324.95642818926234
 30
0.0
 40
8.360279698244305
100
AcDbArc
 50
-127.09177915863458
 51
-18.50497347087758
1001
RASTER2DXF
1000
arc 5
1040
8.36
1040
15.844
  0
ARC
  5
129
330
17
100
AcDbEntity
  8
PLAT-CURVE
100
AcDbCircle
 10
367.5111149644299
 20
-34.48715029628843
 30
0.0
 40
360.4163610717177
100
AcDbArc
 50
54.62950613054977
 51
68.04334989450811
1001
RASTER2DXF
1000
arc 6
1040
360.416
1040
84.379
  0
ARC
  5
12A
330
17
100
AcDbEntity
  8
PLAT-CURVE
100
AcDbCircle
 10
1227.0544906121281
 20
330.5071956878029
 30
0.0
 40
13.740165414488377
100
AcDbArc
 50
72.40591935353362
 51
178.11919379746115
1001
RASTER2DXF
1000
arc 7
1040
13.74
1040
25.351
  0
ARC
  5
12B
330
17
100
AcDbEntity
  8
PLAT-CURVE
100
AcDbCircle
 10
1213.6318315556339
 20
348.7015658483779
 30
0.0
 40
18.40516558658363
100
AcDbArc
 50
-92.56918474630676
 51
-18.36513473851584
1001
RASTER2DXF
1000
arc 8
1040
18.405
1040
23.837
  0
ARC
  5
12C
330
17
100
AcDbEntity
  8
PLAT-CURVE
100
AcDbCircle
 10
185.3713371962699
 20
237.65251349756142
 30
0.0
 40
25.555822048866442
100
AcDbArc
 50
79.81608566873439
 51
-162.71831851236948
1001
RASTER2DXF
1000
arc 9
1040
25.556
1040
52.394
  0
ARC
  5
12D
330
17
100
AcDbEntity
  8
PLAT-CURVE
100
AcDbCircle
 10
353.4127411250085
 20
-50.62262620543052
 30
0.0
 40
319.04270255591797
100
AcDbArc
 50
74.01753742393645
 51
92.77828628078157
1001
RASTER2DXF
1000
arc 10
1040
319.043
1040
104.466
1000
distance=99.97"
  0
ARC
  5
12E
330
17
100
AcDbEntity
  8
PLAT-CURVE
100
AcDbCircle
 10
765.971347066493
 20
145.36786240689915
 30
0.0
 40
136.42508960489536
100
AcDbArc
 50
91.87884638786284
 51
140.84106517265462
1001
RASTER2DXF
1000
arc 11
1040
136.425
1040
116.582
1000
distance=98
  0
ARC
  5
12F
330
17
100
AcDbEntity
  8
PLAT-CURVE
100
AcDbCircle
 10
353.96503199443146
 20
-59.8469478877619
 30
0.0
 40
327.76626329908777
100
AcDbArc
 50
57.26858379846093
 51
74.55486093050847
1001
RASTER2DXF
1000
arc 12
1040
327.766
1040
98.888
1000
distance=29.36"
  0
ARC
  5
130
330
17
100
AcDbEntity
  8
PLAT-CURVE
100
AcDbCircle
 10
590.4258621687244
 20
277.71498778066115
 30
0.0
 40
22.504650482085147
100
AcDbArc
 50
-105.71424810320075
 51
-51.30311383996008
1001
RASTER2DXF
1000
arc 13
1040
22.505
1040
21.372
  0
ARC
  5
131
330
17
100
AcDbEntity
  8
PLAT-CURVE
100
AcDbCircle
 10
684.3033272557936
 20
218.32979270991584
 30
0.0
 40
30.182928319465358
100
AcDbArc
 50
-173.48477268458183
 51
-107.74826421251545
1001
RASTER2DXF
1000
arc 14
1040
30.183
1040
34.629
  0
ARC
  5
132
330
17
100
AcDbEntity
  8
PLAT-CURVE
100
AcDbCircle
 10
538.2032393190902
 20
199.30411542777892
 30
0.0
 40
7.3675250829202765
100
AcDbArc
 50
131.37750617441253
 51
-84.97238647843115
1001
RASTER2DXF
1000
arc 15
1040
7.368
1040
18.472
  0
ARC
  5
133
330
17
100
AcDbEntity
  8
PLAT-CURVE
100
AcDbCircle
 10
981.3932555551769
 20
199.12685253057273
 30
0.0
 40
10.232388560207653
100
AcDbArc
 50
80.84830254967797
 51
-177.55165656382792
1001
RASTER2DXF
1000
arc 16
1040
10.232
1040
18.145
  0
ARC
  5
134
330
17
100
AcDbEntity
  8
PLAT-CURVE
100
AcDbCircle
 10
191.63702258998399
 20
86.13380426919122
 30
0.0
 40
26.853346031775995
100
AcDbArc
 50
-164.36187993694247
 51
-74.62674033983328
1001
RASTER2DXF
1000
arc 17
1040
26.853
1040
42.057
  0
ARC
  5
135
330
17
100
AcDbEntity
  8
PLAT-CURVE
100
AcDbCircle
 10
997.5140137001811
 20
175.70413211353832
 30
0.0
 40
10.023733207307616
100
AcDbArc
 50
29.437298078255083
 51
121.01000775183509
1001
RASTER2DXF
1000
arc 18
1040
10.024
1040
16.02
  0
ARC
  5
136
330
17
100
AcDbEntity
  8
PLAT-CURVE
100
AcDbCircle
 10
131.9942345162018
 20
107.34638133750002
 30
0.0
 40
11.697633631901036
100
AcDbArc
 50
146.60712465052535
 51
-108.31566561045261
1001
RASTER2DXF
1000
arc 19
1040
11.698
1040
21.453
  0
ARC
  5
137
330
17
100
AcDbEntity
  8
PLAT-CURVE
100
AcDbCircle
 10
1082.1689316626362
 20
-88.1205987664001
 30
0.0
 40
178.9556580718642
100
AcDbArc
 50
87.56486907952183
 51
110.00820376753649
1001
RASTER2DXF
1000
arc 20
1040
178.956
1040
70.099
1000
distance=15.29
  0
ARC
  5
138
330
17
100
AcDbEntity
  8
PLAT-CURVE
100
AcDbCircle
 10
929.7057115073941
 20
41.512473052091394
 30
0.0
 40
25.28615025685344
100
AcDbArc
 50
-109.11316832261842
 51
-34.58660108872629
1001
RASTER2DXF
1000
arc 21
1040
25.286
1040
32.891
  0
ARC
  5
139
330
17
100
AcDbEntity
  8
PLAT-CURVE
100
AcDbCircle
 10
1074.4517883793985
 20
-64.71718104626271
 30
0.0
 40
154.0889481292688
100
AcDbArc
 50
110.5635727450129
 51
143.09345909770255
1001
RASTER2DXF
1000
arc 22
1040
154.089
1040
87.485
1000
distance=2565:
  0
ARC
  5
13A
330
17
100
AcDbEntity
  8
PLAT-CURVE
100
AcDbCircle
 10
191.91667793229203
 20
-26.259174393989753
 30
0.0
 40
24.99928621943079
100
AcDbArc
 50
103.87801771162408
 51
174.07418569358765
1001
RASTER2DXF
1000
arc 23
1040
24.999
1040
30.628
  0
ARC
  5
13B
330
17
100
AcDbEntity
  8
PLAT-CURVE
100
AcDbCircle
 10
258.2082803334617
 20
-410.3780822128251
 30
0.0
 40
409.6856715082204
100
AcDbArc
 50
76.85143490231223
 51
89.33223378161597
1001
RASTER2DXF
1000
arc 24
1040
409.686
1040
89.242
1000
distance=20"
  0
ARC
  5
13C
330
17
100
AcDbEntity
  8
PLAT-CURVE
100
AcDbCircle
 10
662.3771773309687
 20
2.505611914210334
 30
0.0
 40
18.597944396140015
100
AcDbArc
 50
-5.322615492262552
 51
129.85248663799854
1001
RASTER2DXF
1000
arc 25
1040
18.598
1040
43.877
  0
ARC
  5
13D
330
17
100
AcDbEntity
  8
PLAT-CURVE
100
AcDbCircle
 10
1082.9106745428185
 20
-87.24768869933038
 30
0.0
 40
118.42845813088995
100
AcDbArc
 50
85.259601677955
 51
118.19468255213579
1001
RASTER2DXF
1000
arc 26
1040
118.428
1040
68.076
  0
ARC
  5
13E
330
17
100
AcDbEntity
  8
PLAT-CURVE
100
AcDbCircle
 10
35.69869613195033
 20
197.1458696147065
 30
0.0
 40
18.372941509397663
100
AcDbArc
 50
97.26901080827513
 51
97.26901080827513
1001
RASTER2DXF
1000
arc 27
1040
18.373
1040
115.441
  0
ARC
  5
13F
330
17
100
AcDbEntity
  8
PLAT-CURVE
100
AcDbCircle
 10
1096.2646129918157
 20
228.23762580549322
 30
0.0
 40
18.25197127287452
100
AcDbArc
 50
92.20336830692808
 51
92.20336830692808
1001
RASTER2DXF
1000
arc 28
1040
18.252
1040
114.681
  0
ARC
  5
140
330
17
100
AcDbEntity
  8
PLAT-CURVE
100
AcDbCircle
 10
122.12683986201205
 20
124.57660221790779
 30
0.0
 40
11.471936936870947
100
AcDbArc
 50
-24.19305909803754
 51
83.54390658151286
1001
RASTER2DXF
1000
arc 29
1040
11.472
1040
21.571
  0
ARC
  5
141
330
17
100
AcDbEntity
  8
PLAT-CURVE
100
AcDbCircle
 10
137.03350328513602
 20
134.53195721855263
 30
0.0
 40
15.497068881186129
100
AcDbArc
 50
175.0402913096451
 51
-109.51946826808192
1001
RASTER2DXF
1000
arc 30
1040
15.497
1040
20.405
  0
ARC
  5
142
330
17
100
AcDbEntity
  8
PLAT-CURVE
100
AcDbCircle
 10
407.6437936048821
 20
23.361318513081642
 30
0.0
 40
9.035929049422633
100
AcDbArc
 50
-121.48372891122695
 51
-8.62118539350926
1001
RASTER2DXF
1000
arc 31
1040
9.036
1040
17.799
  0
CIRCLE
  5
143
330
17
100
AcDbEntity
  8
PLAT-MON
100
AcDbCircle
 10
249.73633227255152
 20
325.92409625995043
 30
0.0
 40
6.428486435221413
  0
POINT
  5
144
330
17
100
AcDbEntity
  8
PLAT-MON
100
AcDbPoint
 10
249.73633227255152
 20
325.92409625995043
 30
0.0
  0
CIRCLE
  5
145
330
17
100
AcDbEntity
  8
PLAT-MON
100
AcDbCircle
 10
259.14003265886504
 20
265.64703641178346
 30
0.0
 40
6.400315893716186
  0
POINT
  5
146
330
17
100
AcDbEntity
  8
PLAT-MON
100
AcDbPoint
 10
259.14003265886504
 20
265.64703641178346
 30
0.0
  0
TEXT
  5
147
330
17
100
AcDbEntity
  8
PLAT-TEXT-DIST
100
AcDbText
 10
253.08911525991846
 20
367.41659021665646
 30
0.0
 40
9.058829921767863
  1
100'
 50
92.80180645565656
  7
PLAT
 72
1
 11
253.08911525991846
 21
367.41659021665646
 31
0.0
100
AcDbText
 73
3
  0
TEXT
  5
148
330
17
100
AcDbEntity
  8
PLAT-TEXT-BRG
100
AcDbText
 10
329.3818657009729
 20
358.43526152012515
 30
0.0
 40
9.058829921767863
  1
N 02%%d24'03" W
 50
92.18212147598393
  7
PLAT
 72
1
 11
329.3818657009729
 21
358.43526152012515
 31
0.0
100
AcDbText
 73
1
  0
TEXT
  5
149
330
17
100
AcDbEntity
  8
PLAT-TEXT-DIST
100
AcDbText
 10
538.0981123740997
 20
375.2123756662573
 30
0.0
 40
9.058829921767863
  1
147.37'
 50
67.70265432741076
  7
PLAT
 72
1
 11
538.0981123740997
 21
375.2123756662573
 31
0.0
100
AcDbText
 73
3
  0
TEXT
  5
14A
330
17
100
AcDbEntity
  8
PLAT-TEXT-BRG
100
AcDbText
 10
779.7999286274396
 20
376.24980663770464
 30
0.0
 40
9.058829921767863
  1
N 02%%d24'34" W
 50
92.65765042521652
  7
PLAT
 72
1
 11
779.7999286274396
 21
376.24980663770464
 31
0.0
100
AcDbText
 73
3
  0
TEXT
  5
14B
330
17
100
AcDbEntity
  8
PLAT-TEXT-DIST
100
AcDbText
 10
770.1789513343683
 20
388.1502083907519
 30
0.0
 40
9.058829921767863
  1
5.45'
 50
92.65765042521652
  7
PLAT
 72
1
 11
770.1789513343683
 21
388.1502083907519
 31
0.0
100
AcDbText
 73
1
  0
TEXT
  5
14C
330
17
100
AcDbEntity
  8
PLAT-TEXT-DIST
100
AcDbText
 10
681.9551250239853
 20
384.955472865794
 30
0.0
 40
9.058829921767863
  1
6.36'
 50
292.21882956377885
  7
PLAT
 72
1
 11
681.9551250239853
 21
384.955472865794
 31
0.0
100
AcDbText
 73
3
  0
TEXT
  5
14D
330
17
100
AcDbEntity
  8
PLAT-TEXT-DIST
100
AcDbText
 10
158.9410241980636
 20
362.64025885077257
 30
0.0
 40
9.058829921767863
  1
100'
 50
275.0426505413459
  7
PLAT
 72
1
 11
158.9410241980636
 21
362.64025885077257
 31
0.0
100
AcDbText
 73
1
  0
TEXT
  5
14E
330
17
100
AcDbEntity
  8
PLAT-TEXT-DIST
100
AcDbText
 10
90.48507314873117
 20
353.37839929996153
 30
0.0
 40
9.058829921767863
  1
196'
 50
92.8296900434737
  7
PLAT
 72
1
 11
90.48507314873117
 21
353.37839929996153
 31
0.0
100
AcDbText
 73
1
  0
TEXT
  5
14F
330
17
100
AcDbEntity
  8
PLAT-TEXT-DIST
100
AcDbText
 10
0.22118342157589943
 20
347.9548633083234
 30
0.0
 40
9.058829921767863
  1
90'
 50
92.57817080053388
  7
PLAT
 72
1
 11
0.22118342157589943
 21
347.9548633083234
 31
0.0
100
AcDbText
 73
3
  0
TEXT
  5
150
330
17
100
AcDbEntity
  8
PLAT-TEXT-DIST
100
AcDbText
 10
601.6643123651515
 20
358.137994236656
 30
0.0
 40
9.058829921767863
  1
166.73'
 50
304.75123947022917
  7
PLAT
 72
1
 11
601.6643123651515
 21
358.137994236656
 31
0.0
100
AcDbText
 73
3
  0
TEXT
  5
151
330
17
100
AcDbEntity
  8
PLAT-TEXT-DIST
100
AcDbText
 10
207.61600637142567
 20
329.55312556139637
 30
0.0
 40
9.058829921767863
  1
93.50'
 50
2.011921939531254
  7
PLAT
 72
1
 11
207.61600637142567
 21
329.55312556139637
 31
0.0
100
AcDbText
 73
1
  0
TEXT
  5
152
330
17
100
AcDbEntity
  8
PLAT-TEXT-DIST
100
AcDbText
 10
298.3289122770124
 20
332.7397884719102
 30
0.0
 40
9.058829921767863
  1
89.76'
 50
2.0119219395312817
  7
PLAT
 72
1
 11
298.3289122770124
 21
332.7397884719102
 31
0.0
100
AcDbText
 73
1
  0
TEXT
  5
153
330
17
100
AcDbEntity
  8
PLAT-TEXT-BRG
100
AcDbText
 10
261.0498164826387
 20
322.3657895788252
 30
0.0
 40
9.058829921767863
  1
N 87%%d35'30" E
 50
2.0119219395312817
  7
PLAT
 72
1
 11
261.0498164826387
 21
322.3657895788252
 31
0.0
100
AcDbText
 73
3
  0
TEXT
  5
154
330
17
100
AcDbEntity
  8
PLAT-TEXT-DIST
100
AcDbText
 10
386.5924663440789
 20
332.8784738701723
 30
0.0
 40
9.058829921767863
  1
85.28'
 50
354.9384173415626
  7
PLAT
 72
1
 11
386.5924663440789
 21
332.8784738701723
 31
0.0
100
AcDbText
 73
1
  0
TEXT
  5
155
330
17
100
AcDbEntity
  8
PLAT-TEXT-DIST
100
AcDbText
 10
35.81369914294499
 20
312.2354800025174
 30
0.0
 40
9.058829921767863
  1
17'
 50
2.346119672399253
  7
PLAT
 72
1
 11
35.81369914294499
 21
312.2354800025174
 31
0.0
100
AcDbText
 73
1
  0
TEXT
  5
156
330
17
100
AcDbEntity
  8
PLAT-TEXT-DIST
100
AcDbText
 10
813.1718991045312
 20
348.0434819481489
 30
0.0
 40
9.058829921767863
  1
73'
 50
2.408333333333328
  7
PLAT
 72
1
 11
813.1718991045312
 21
348.0434819481489
 31
0.0
100
AcDbText
 73
1
  0
TEXT
  5
157
330
17
100
AcDbEntity
  8
PLAT-TEXT-DIST
100
AcDbText
 10
738.6972185774085
 20
343.8692717716567
 30
0.0
 40
9.058829921767863
  1
59.50'
 50
8.875710848285507
  7
PLAT
 72
1
 11
738.6972185774085
 21
343.8692717716567
 31
0.0
100
AcDbText
 73
1
  0
TEXT
  5
158
330
17
100
AcDbEntity
  8
PLAT-TEXT-DIST
100
AcDbText
 10
887.304903365408
 20
351.1613766282509
 30
0.0
 40
9.058829921767863
  1
75'
 50
2.4083333333332653
  7
PLAT
 72
1
 11
887.304903365408
 21
351.1613766282509
 31
0.0
100
AcDbText
 73
1
  0
TEXT
  5
159
330
17
100
AcDbEntity
  8
PLAT-TEXT-DIST
100
AcDbText
 10
1039.9129099579657
 20
357.57978225796853
 30
0.0
 40
9.058829921767863
  1
75'
 50
2.408333333333278
  7
PLAT
 72
1
 11
1039.9129099579657
 21
357.57978225796853
 31
0.0
100
AcDbText
 73
1
  0
TEXT
  5
15A
330
17
100
AcDbEntity
  8
PLAT-TEXT-DIST
100
AcDbText
 10
965.7918517998896
 20
354.46239000847413
 30
0.0
 40
9.058829921767863
  1
75'
 50
2.408333333333278
  7
PLAT
 72
1
 11
965.7918517998896
 21
354.46239000847413
 31
0.0
100
AcDbText
 73
1
  0
TEXT
  5
15B
330
17
100
AcDbEntity
  8
PLAT-TEXT-DIST
100
AcDbText
 10
1115.2111920289553
 20
360.74668633032724
 30
0.0
 40
9.058829921767863
  1
75'
 50
2.40833333333329
  7
PLAT
 72
1
 11
1115.2111920289553
 21
360.74668633032724
 31
0.0
100
AcDbText
 73
1
  0
TEXT
  5
15C
330
17
100
AcDbEntity
  8
PLAT-TEXT-BRG
100
AcDbText
 10
1096.9859437074713
 20
350.91332827869445
 30
0.0
 40
9.058829921767863
  1
S 87%%d35'30" W
 50
2.40833333333329
  7
PLAT
 72
1
 11
1096.9859437074713
 21
350.91332827869445
 31
0.0
100
AcDbText
 73
3
  0
TEXT
  5
15D
330
17
100
AcDbEntity
  8
PLAT-TEXT-DIST
100
AcDbText
 10
1263.8034813820384
 20
366.9961984484089
 30
0.0
 40
9.058829921767863
  1
75'
 50
2.4083333333332613
  7
PLAT
 72
1
 11
1263.8034813820384
 21
366.9961984484089
 31
0.0
100
AcDbText
 73
1
  0
TEXT
  5
15E
330
17
100
AcDbEntity
  8
PLAT-TEXT-DIST
100
AcDbText
 10
674.1039357879444
 20
323.6692892748766
 30
0.0
 40
9.058829921767863
  1
68.15'
 50
27.353564161683778
  7
PLAT
 72
1
 11
674.1039357879444
 21
323.6692892748766
 31
0.0
100
AcDbText
 73
1
  0
TEXT
  5
15F
330
17
100
AcDbEntity
  8
PLAT-TEXT-DIST
100
AcDbText
 10
471.0222983582605
 20
315.5862773038012
 30
0.0
 40
9.058829921767863
  1
85.24'
 50
344.2062661524304
  7
PLAT
 72
1
 11
471.0222983582605
 21
315.5862773038012
 31
0.0
100
AcDbText
 73
1
  0
TEXT
  5
160
330
17
100
AcDbEntity
  8
PLAT-TEXT-DIST
100
AcDbText
 10
94.57767491905763
 20
270.5784722459522
 30
0.0
 40
9.058829921767863
  1
60.43'
 50
92.82969004347376
  7
PLAT
 72
1
 11
94.57767491905763
 21
270.5784722459522
 31
0.0
100
AcDbText
 73
1
  0
TEXT
  5
161
330
17
100
AcDbEntity
  8
PLAT-TEXT-DIST
100
AcDbText
 10
623.4263365582291
 20
286.1456208567447
 30
0.0
 40
9.058829921767863
  1
51.68'
 50
44.10040840251281
  7
PLAT
 72
1
 11
623.4263365582291
 21
286.1456208567447
 31
0.0
100
AcDbText
 73
1
  0
TEXT
  5
162
330
17
100
AcDbEntity
  8
PLAT-TEXT-DIST
100
AcDbText
 10
703.4298587379188
 20
271.6877868602516
 30
0.0
 40
9.058829921767863
  1
98'
 50
26.577136042223742
  7
PLAT
 72
1
 11
703.4298587379188
 21
271.6877868602516
 31
0.0
100
AcDbText
 73
1
  0
TEXT
  5
163
330
17
100
AcDbEntity
  8
PLAT-TEXT-DIST
100
AcDbText
 10
209.61231508825563
 20
258.9713818762058
 30
0.0
 40
9.058829921767863
  1
99.93'
 50
2.0266835015916365
  7
PLAT
 72
1
 11
209.61231508825563
 21
258.9713818762058
 31
0.0
100
AcDbText
 73
3
  0
TEXT
  5
164
330
17
100
AcDbEntity
  8
PLAT-TEXT-DIST
100
AcDbText
 10
289.446645413451
 20
261.79648411255437
 30
0.0
 40
9.058829921767863
  1
83.26'
 50
2.0266835015916325
  7
PLAT
 72
1
 11
289.446645413451
 21
261.79648411255437
 31
0.0
100
AcDbText
 73
3
  0
TEXT
  5
165
330
17
100
AcDbEntity
  8
PLAT-TEXT-DIST
100
AcDbText
 10
394.1800345249174
 20
261.2373419469838
 30
0.0
 40
9.058829921767863
  1
99.97'
 50
352.4571964804629
  7
PLAT
 72
1
 11
394.1800345249174
 21
261.2373419469838
 31
0.0
100
AcDbText
 73
3
  0
TEXT
  5
166
330
17
100
AcDbEntity
  8
PLAT-TEXT-DIST
100
AcDbText
 10
778.6137167228217
 20
277.94633435859
 30
0.0
 40
9.058829921767863
  1
15'
 50
2.544586339085509
  7
PLAT
 72
1
 11
778.6137167228217
 21
277.94633435859
 31
0.0
100
AcDbText
 73
3
  0
TEXT
  5
167
330
17
100
AcDbEntity
  8
PLAT-TEXT-DIST
100
AcDbText
 10
837.688918208097
 20
280.57167361264214
 30
0.0
 40
9.058829921767863
  1
100'
 50
2.5445863390855465
  7
PLAT
 72
1
 11
837.688918208097
 21
280.57167361264214
 31
0.0
100
AcDbText
 73
3
  0
TEXT
  5
168
330
17
100
AcDbEntity
  8
PLAT-TEXT-DIST
100
AcDbText
 10
939.0871466862319
 20
284.7232910611947
 30
0.0
 40
9.058829921767863
  1
88.50'
 50
2.760862834151195
  7
PLAT
 72
1
 11
939.0871466862319
 21
284.7232910611947
 31
0.0
100
AcDbText
 73
3
  0
TEXT
  5
169
330
17
100
AcDbEntity
  8
PLAT-TEXT-DIST
100
AcDbText
 10
1026.5742038367766
 20
288.942221050586
 30
0.0
 40
9.058829921767863
  1
8.48'
 50
2.7608628341512027
  7
PLAT
 72
1
 11
1026.5742038367766
 21
288.942221050586
 31
0.0
100
AcDbText
 73
3
  0
TEXT
  5
16A
330
17
100
AcDbEntity
  8
PLAT-TEXT-BRG
100
AcDbText
 10
257.80822509633686
 20
211.54484840358
 30
0.0
 40
9.058829921767863
  1
N 02%%d24'30" W
 50
92.62270394685149
  7
PLAT
 72
1
 11
257.80822509633686
 21
211.54484840358
 31
0.0
100
AcDbText
 73
1
  0
TEXT
  5
16B
330
17
100
AcDbEntity
  8
PLAT-TEXT-DIST
100
AcDbText
 10
266.54931301498686
 20
218.68878360153428
 30
0.0
 40
9.058829921767863
  1
103.17'
 50
92.62270394685149
  7
PLAT
 72
1
 11
266.54931301498686
 21
218.68878360153428
 31
0.0
100
AcDbText
 73
3
  0
TEXT
  5
16C
330
17
100
AcDbEntity
  8
PLAT-TEXT-BRG
100
AcDbText
 10
335.3903302314808
 20
213.14933655190666
 30
0.0
 40
9.058829921767863
  1
N 02%%d24'30" W
 50
92.36434772284059
  7
PLAT
 72
1
 11
335.3903302314808
 21
213.14933655190666
 31
0.0
100
AcDbText
 73
1
  0
TEXT
  5
16D
330
17
100
AcDbEntity
  8
PLAT-TEXT-DIST
100
AcDbText
 10
1114.7312033201636
 20
293.1934579878991
 30
0.0
 40
9.058829921767863
  1
88.48'
 50
2.7608628341512356
  7
PLAT
 72
1
 11
1114.7312033201636
 21
293.1934579878991
 31
0.0
100
AcDbText
 73
3
  0
TEXT
  5
16E
330
17
100
AcDbEntity
  8
PLAT-TEXT-DIST
100
AcDbText
 10
1191.5095814331423
 20
296.8959782521283
 30
0.0
 40
9.058829921767863
  1
75'
 50
2.760862834151212
  7
PLAT
 72
1
 11
1191.5095814331423
 21
296.8959782521283
 31
0.0
100
AcDbText
 73
3
  0
TEXT
  5
16F
330
17
100
AcDbEntity
  8
PLAT-TEXT-DIST
100
AcDbText
 10
1265.1126243940114
 20
300.4453728182723
 30
0.0
 40
9.058829921767863
  1
75'
 50
2.7608628341512196
  7
PLAT
 72
1
 11
1265.1126243940114
 21
300.4453728182723
 31
0.0
100
AcDbText
 73
3
  0
TEXT
  5
170
330
17
100
AcDbEntity
  8
PLAT-TEXT-BRG
100
AcDbText
 10
795.5759256054806
 20
243.71626404218637
 30
0.0
 40
9.058829921767863
  1
N 02%%d20'30" W
 50
92.59037032563377
  7
PLAT
 72
1
 11
795.5759256054806
 21
243.71626404218637
 31
0.0
100
AcDbText
 73
3
  0
TEXT
  5
171
330
17
100
AcDbEntity
  8
PLAT-TEXT-BRG
100
AcDbText
 10
165.60088884948559
 20
223.20415232809137
 30
0.0
 40
9.058829921767863
  1
N 01%%d00'14" W
 50
90.8503150121494
  7
PLAT
 72
1
 11
165.60088884948559
 21
223.20415232809137
 31
0.0
100
AcDbText
 73
3
  0
TEXT
  5
172
330
17
100
AcDbEntity
  8
PLAT-TEXT-DIST
100
AcDbText
 10
178.34402659067146
 20
219.20337499880824
 30
0.0
 40
9.058829921767863
  1
12'
 50
90.8503150121494
  7
PLAT
 72
1
 11
178.34402659067146
 21
219.20337499880824
 31
0.0
100
AcDbText
 73
3
  0
TEXT
  5
173
330
17
100
AcDbEntity
  8
PLAT-TEXT-DIST
100
AcDbText
 10
6.717765724652056
 20
194.31699057954773
 30
0.0
 40
9.058829921767863
  1
75'
 50
91.98668440443743
  7
PLAT
 72
1
 11
6.717765724652056
 21
194.31699057954773
 31
0.0
100
AcDbText
 73
3
  0
TEXT
  5
174
330
17
100
AcDbEntity
  8
PLAT-TEXT-DIST
100
AcDbText
 10
492.2798483461027
 20
232.30211522824948
 30
0.0
 40
9.058829921767863
  1
29.36'
 50
334.5776484857382
  7
PLAT
 72
1
 11
492.2798483461027
 21
232.30211522824948
 31
0.0
100
AcDbText
 73
3
  0
TEXT
  5
175
330
17
100
AcDbEntity
  8
PLAT-TEXT-DIST
100
AcDbText
 10
898.9379861686798
 20
236.21886188437924
 30
0.0
 40
9.058829921767863
  1
100'
 50
92.79208790359525
  7
PLAT
 72
1
 11
898.9379861686798
 21
236.21886188437924
 31
0.0
100
AcDbText
 73
3
  0
TEXT
  5
176
330
17
100
AcDbEntity
  8
PLAT-TEXT-DIST
100
AcDbText
 10
96.63307794906014
 20
196.97049518508854
 30
0.0
 40
9.058829921767863
  1
75'
 50
91.45702288708083
  7
PLAT
 72
1
 11
96.63307794906014
 21
196.97049518508854
 31
0.0
100
AcDbText
 73
1
  0
TEXT
  5
177
330
17
100
AcDbEntity
  8
PLAT-TEXT-DIST
100
AcDbText
 10
564.8506315329619
 20
187.0901419060265
 30
0.0
 40
9.058829921767863
  1
119'
 50
325.1252938847875
  7
PLAT
 72
1
 11
564.8506315329619
 21
187.0901419060265
 31
0.0
100
AcDbText
 73
3
  0
TEXT
  5
178
330
17
100
AcDbEntity
  8
PLAT-TEXT-DIST
100
AcDbText
 10
1005.0012363772514
 20
199.6209323107841
 30
0.0
 40
9.058829921767863
  1
10'
 50
2.236352448364194
  7
PLAT
 72
1
 11
1005.0012363772514
 21
199.6209323107841
 31
0.0
100
AcDbText
 73
1
  0
TEXT
  5
179
330
17
100
AcDbEntity
  8
PLAT-TEXT-DIST
100
AcDbText
 10
203.78439714731908
 20
166.43708390412448
 30
0.0
 40
9.058829921767863
  1
102.38'
 50
1.48418253069435
  7
PLAT
 72
1
 11
203.78439714731908
 21
166.43708390412448
 31
0.0
100
AcDbText
 73
1
  0
TEXT
  5
17A
330
17
100
AcDbEntity
  8
PLAT-TEXT-DIST
100
AcDbText
 10
506.24852353762265
 20
168.18004365374483
 30
0.0
 40
9.058829921767863
  1
99.60'
 50
57.56680599610672
  7
PLAT
 72
1
 11
506.24852353762265
 21
168.18004365374483
 31
0.0
100
AcDbText
 73
3
  0
TEXT
  5
17B
330
17
100
AcDbEntity
  8
PLAT-TEXT-DIST
100
AcDbText
 10
372.0701526034965
 20
157.54765442747572
 30
0.0
 40
9.058829921767863
  1
66.85'
 50
346.2889927594206
  7
PLAT
 72
1
 11
372.0701526034965
 21
157.54765442747572
 31
0.0
100
AcDbText
 73
1
  0
TEXT
  5
17C
330
17
100
AcDbEntity
  8
PLAT-TEXT-DIST
100
AcDbText
 10
941.7822068145776
 20
192.27626430912656
 30
0.0
 40
9.058829921767863
  1
88.50'
 50
2.6008228543953367
  7
PLAT
 72
1
 11
941.7822068145776
 21
192.27626430912656
 31
0.0
100
AcDbText
 73
1
  0
TEXT
  5
17D
330
17
100
AcDbEntity
  8
PLAT-TEXT-DIST
100
AcDbText
 10
1191.478381335595
 20
197.6997402809458
 30
0.0
 40
9.058829921767863
  1
35'
 50
2.4074044455375883
  7
PLAT
 72
1
 11
1191.478381335595
 21
197.6997402809458
 31
0.0
100
AcDbText
 73
1
  0
TEXT
  5
17E
330
17
100
AcDbEntity
  8
PLAT-TEXT-DIST
100
AcDbText
 10
857.7732285494048
 20
184.42278589818292
 30
0.0
 40
9.058829921767863
  1
701.78'
 50
352.19352740459834
  7
PLAT
 72
1
 11
857.7732285494048
 21
184.42278589818292
 31
0.0
100
AcDbText
 73
3
  0
TEXT
  5
17F
330
17
100
AcDbEntity
  8
PLAT-TEXT-BRG
100
AcDbText
 10
259.2956236336729
 20
118.62111868944085
 30
0.0
 40
9.058829921767863
  1
N 01%%d58'48" E
 50
88.95015482704048
  7
PLAT
 72
1
 11
259.2956236336729
 21
118.62111868944085
 31
0.0
100
AcDbText
 73
1
  0
TEXT
  5
180
330
17
100
AcDbEntity
  8
PLAT-TEXT-DIST
100
AcDbText
 10
268.21061922363356
 20
110.68917695532623
 30
0.0
 40
9.058829921767863
  1
700.44'
 50
88.95015482704048
  7
PLAT
 72
1
 11
268.21061922363356
 21
110.68917695532623
 31
0.0
100
AcDbText
 73
3
  0
TEXT
  5
181
330
17
100
AcDbEntity
  8
PLAT-TEXT-DIST
100
AcDbText
 10
354.548315672751
 20
158.26077471489415
 30
0.0
 40
9.058829921767863
  1
20'
 50
345.8968585315686
  7
PLAT
 72
1
 11
354.548315672751
 21
158.26077471489415
 31
0.0
100
AcDbText
 73
3
  0
TEXT
  5
182
330
17
100
AcDbEntity
  8
PLAT-TEXT-DIST
100
AcDbText
 10
769.2975344611954
 20
162.37774091457413
 30
0.0
 40
9.058829921767863
  1
479.20'
 50
43.55808063465338
  7
PLAT
 72
1
 11
769.2975344611954
 21
162.37774091457413
 31
0.0
100
AcDbText
 73
3
  0
TEXT
  5
183
330
17
100
AcDbEntity
  8
PLAT-TEXT-DIST
100
AcDbText
 10
1125.2688353731742
 20
191.5428130588054
 30
0.0
 40
9.058829921767863
  1
75'
 50
2.600822854395342
  7
PLAT
 72
1
 11
1125.2688353731742
 21
191.5428130588054
 31
0.0
100
AcDbText
 73
3
  0
TEXT
  5
184
330
17
100
AcDbEntity
  8
PLAT-TEXT-DIST
100
AcDbText
 10
455.58606268918976
 20
142.2163183840923
 30
0.0
 40
9.058829921767863
  1
66.86'
 50
345.8968585315687
  7
PLAT
 72
1
 11
455.58606268918976
 21
142.2163183840923
 31
0.0
100
AcDbText
 73
1
  0
TEXT
  5
185
330
17
100
AcDbEntity
  8
PLAT-TEXT-DIST
100
AcDbText
 10
98.50805351533
 20
123.25509271937838
 30
0.0
 40
9.058829921767863
  1
75'
 50
91.45702288708071
  7
PLAT
 72
1
 11
98.50805351533
 21
123.25509271937838
 31
0.0
100
AcDbText
 73
1
  0
TEXT
  5
186
330
17
100
AcDbEntity
  8
PLAT-TEXT-DIST
100
AcDbText
 10
1082.5668343891527
 20
149.33105447297044
 30
0.0
 40
9.058829921767863
  1
100'
 50
92.60767671087052
  7
PLAT
 72
1
 11
1082.5668343891527
 21
149.33105447297044
 31
0.0
100
AcDbText
 73
1
  0
TEXT
  5
187
330
17
100
AcDbEntity
  8
PLAT-TEXT-BRG
100
AcDbText
 10
1092.176945391589
 20
137.4328716147409
 30
0.0
 40
9.058829921767863
  1
N 02%%d24'30" W
 50
92.60767671087052
  7
PLAT
 72
1
 11
1092.176945391589
 21
137.4328716147409
 31
0.0
100
AcDbText
 73
3
  0
TEXT
  5
188
330
17
100
AcDbEntity
  8
PLAT-TEXT-DIST
100
AcDbText
 10
622.472083495465
 20
146.9306657283134
 30
0.0
 40
9.058829921767863
  1
75'
 50
325.12529388478737
  7
PLAT
 72
1
 11
622.472083495465
 21
146.9306657283134
 31
0.0
100
AcDbText
 73
3
  0
TEXT
  5
189
330
17
100
AcDbEntity
  8
PLAT-TEXT-DIST
100
AcDbText
 10
362.6222119753346
 20
115.62166827587242
 30
0.0
 40
9.058829921767863
  1
109.05'
 50
78.64903321623223
  7
PLAT
 72
1
 11
362.6222119753346
 21
115.62166827587242
 31
0.0
100
AcDbText
 73
3
  0
TEXT
  5
18A
330
17
100
AcDbEntity
  8
PLAT-TEXT-DIST
100
AcDbText
 10
1015.4840008492946
 20
147.13767391386216
 30
0.0
 40
9.058829921767863
  1
16.28'
 50
277.93303297853106
  7
PLAT
 72
1
 11
1015.4840008492946
 21
147.13767391386216
 31
0.0
100
AcDbText
 73
1
  0
TEXT
  5
18B
330
17
100
AcDbEntity
  8
PLAT-TEXT-DIST
100
AcDbText
 10
168.79252108060496
 20
107.55230278012364
 30
0.0
 40
9.058829921767863
  1
100'
 50
93.03809968426928
  7
PLAT
 72
1
 11
168.79252108060496
 21
107.55230278012364
 31
0.0
100
AcDbText
 73
3
  0
TEXT
  5
18C
330
17
100
AcDbEntity
  8
PLAT-TEXT-DIST
100
AcDbText
 10
500.1058233519456
 20
121.89270781761856
 30
0.0
 40
9.058829921767863
  1
75'
 50
324.9598553950887
  7
PLAT
 72
1
 11
500.1058233519456
 21
121.89270781761856
 31
0.0
100
AcDbText
 73
1
  0
TEXT
  5
18D
330
17
100
AcDbEntity
  8
PLAT-TEXT-DIST
100
AcDbText
 10
570.7049449948529
 20
125.44401986628775
 30
0.0
 40
9.058829921767863
  1
100'
 50
55.31282297237237
  7
PLAT
 72
1
 11
570.7049449948529
 21
125.44401986628775
 31
0.0
100
AcDbText
 73
3
  0
TEXT
  5
18E
330
17
100
AcDbEntity
  8
PLAT-TEXT-DIST
100
AcDbText
 10
945.2319544650787
 20
130.5767722229587
 30
0.0
 40
9.058829921767863
  1
167.98'
 50
275.86783906879435
  7
PLAT
 72
1
 11
945.2319544650787
 21
130.5767722229587
 31
0.0
100
AcDbText
 73
1
  0
TEXT
  5
18F
330
17
100
AcDbEntity
  8
PLAT-TEXT-DIST
100
AcDbText
 10
441.00214663054277
 20
92.4412121081985
 30
0.0
 40
9.058829921767863
  1
112.43'
 50
71.20799189225039
  7
PLAT
 72
1
 11
441.00214663054277
 21
92.4412121081985
 31
0.0
100
AcDbText
 73
3
  0
TEXT
  5
190
330
17
100
AcDbEntity
  8
PLAT-TEXT-DIST
100
AcDbText
 10
788.7120698115083
 20
115.79441665938094
 30
0.0
 40
9.058829921767863
  1
10'
 50
325.08038226551474
  7
PLAT
 72
1
 11
788.7120698115083
 21
115.79441665938094
 31
0.0
100
AcDbText
 73
1
  0
TEXT
  5
191
330
17
100
AcDbEntity
  8
PLAT-TEXT-DIST
100
AcDbText
 10
685.1835003388969
 20
103.22372039772169
 30
0.0
 40
9.058829921767863
  1
75'
 50
325.1252938847875
  7
PLAT
 72
1
 11
685.1835003388969
 21
103.22372039772169
 31
0.0
100
AcDbText
 73
3
  0
TEXT
  5
192
330
17
100
AcDbEntity
  8
PLAT-TEXT-DIST
100
AcDbText
 10
549.3319287815611
 20
76.30857130705833
 30
0.0
 40
9.058829921767863
  1
85'
 50
324.9598553950888
  7
PLAT
 72
1
 11
549.3319287815611
 21
76.30857130705833
 31
0.0
100
AcDbText
 73
3
  0
TEXT
  5
193
330
17
100
AcDbEntity
  8
PLAT-TEXT-DIST
100
AcDbText
 10
306.1297250819892
 20
60.488101818735345
 30
0.0
 40
9.058829921767863
  1
76.78'
 50
355.30207128419477
  7
PLAT
 72
1
 11
306.1297250819892
 21
60.488101818735345
 31
0.0
100
AcDbText
 73
1
  0
TEXT
  5
194
330
17
100
AcDbEntity
  8
PLAT-TEXT-DIST
100
AcDbText
 10
507.7196729182832
 20
47.996920484192415
 30
0.0
 40
9.058829921767863
  1
104.68'
 50
62.47280051742689
  7
PLAT
 72
1
 11
507.7196729182832
 21
47.996920484192415
 31
0.0
100
AcDbText
 73
3
  0
TEXT
  5
195
330
17
100
AcDbEntity
  8
PLAT-TEXT-DIST
100
AcDbText
 10
994.7091407138106
 20
72.39915506406732
 30
0.0
 40
9.058829921767863
  1
2565'
 50
30.33897196346436
  7
PLAT
 72
1
 11
994.7091407138106
 21
72.39915506406732
 31
0.0
100
AcDbText
 73
1
  0
TEXT
  5
196
330
17
100
AcDbEntity
  8
PLAT-TEXT-DIST
100
AcDbText
 10
1059.7655373651448
 20
93.99161071040821
 30
0.0
 40
9.058829921767863
  1
15.29'
 50
7.1227200842439515
  7
PLAT
 72
1
 11
1059.7655373651448
 21
93.99161071040821
 31
0.0
100
AcDbText
 73
1
  0
TEXT
  5
197
330
17
100
AcDbEntity
  8
PLAT-TEXT-DIST
100
AcDbText
 10
1128.3901822934463
 20
97.41210802749877
 30
0.0
 40
9.058829921767863
  1
75'
 50
2.8336953832640486
  7
PLAT
 72
1
 11
1128.3901822934463
 21
97.41210802749877
 31
0.0
100
AcDbText
 73
1
  0
TEXT
  5
198
330
17
100
AcDbEntity
  8
PLAT-TEXT-DIST
100
AcDbText
 10
1278.4303857643838
 20
104.83874978915743
 30
0.0
 40
9.058829921767863
  1
75'
 50
2.8336953832640157
  7
PLAT
 72
1
 11
1278.4303857643838
 21
104.83874978915743
 31
0.0
100
AcDbText
 73
1
  0
TEXT
  5
199
330
17
100
AcDbEntity
  8
PLAT-TEXT-DIST
100
AcDbText
 10
1202.656455493059
 20
101.08811614577509
 30
0.0
 40
9.058829921767863
  1
75'
 50
2.8336953832640233
  7
PLAT
 72
1
 11
1202.656455493059
 21
101.08811614577509
 31
0.0
100
AcDbText
 73
1
  0
TEXT
  5
19A
330
17
100
AcDbEntity
  8
PLAT-TEXT-DIST
100
AcDbText
 10
100.60217790863094
 20
40.923767851742106
 30
0.0
 40
9.058829921767863
  1
75'
 50
91.45702288708071
  7
PLAT
 72
1
 11
100.60217790863094
 21
40.923767851742106
 31
0.0
100
AcDbText
 73
1
  0
TEXT
  5
19B
330
17
100
AcDbEntity
  8
PLAT-TEXT-DIST
100
AcDbText
 10
384.91182542122283
 20
45.56480678398456
 30
0.0
 40
9.058829921767863
  1
76.78'
 50
344.97939054091677
  7
PLAT
 72
1
 11
384.91182542122283
 21
45.56480678398456
 31
0.0
100
AcDbText
 73
1
  0
TEXT
  5
19C
330
17
100
AcDbEntity
  8
PLAT-TEXT-DIST
100
AcDbText
 10
746.8324065639986
 20
60.25729562695844
 30
0.0
 40
9.058829921767863
  1
75'
 50
325.1252938847874
  7
PLAT
 72
1
 11
746.8324065639986
 21
60.25729562695844
 31
0.0
100
AcDbText
 73
3
  0
TEXT
  5
19D
330
17
100
AcDbEntity
  8
PLAT-TEXT-BRG
100
AcDbText
 10
223.31272510751833
 20
55.04778795276257
 30
0.0
 40
9.058829921767863
  1
S 88%%d58'20" E
 50
358.45476645391625
  7
PLAT
 72
1
 11
223.31272510751833
 21
55.04778795276257
 31
0.0
100
AcDbText
 73
3
  0
TEXT
  5
19E
330
17
100
AcDbEntity
  8
PLAT-TEXT-DIST
100
AcDbText
 10
885.7257738807148
 20
48.06732525676076
 30
0.0
 40
9.058829921767863
  1
125'
 50
325.08038226551474
  7
PLAT
 72
1
 11
885.7257738807148
 21
48.06732525676076
 31
0.0
100
AcDbText
 73
1
  0
TEXT
  5
19F
330
17
100
AcDbEntity
  8
PLAT-TEXT-DIST
100
AcDbText
 10
451.289932788999
 20
22.072872087555286
 30
0.0
 40
9.058829921767863
  1
76.76'
 50
336.40794454951373
  7
PLAT
 72
1
 11
451.289932788999
 21
22.072872087555286
 31
0.0
100
AcDbText
 73
1
  0
TEXT
  5
1A0
330
17
100
AcDbEntity
  8
PLAT-TEXT-DIST
100
AcDbText
 10
343.6294238645344
 20
-5.066641595629692
 30
0.0
 40
9.058829921767863
  1
20'
 50
348.03711079584525
  7
PLAT
 72
1
 11
343.6294238645344
 21
-5.066641595629692
 31
0.0
100
AcDbText
 73
1
  0
TEXT
  5
1A1
330
17
100
AcDbEntity
  8
PLAT-TEXT-DIST
100
AcDbText
 10
582.7918702414626
 20
27.04829497758013
 30
0.0
 40
9.058829921767863
  1
10'
 50
55.40229544887421
  7
PLAT
 72
1
 11
582.7918702414626
 21
27.04829497758013
 31
0.0
100
AcDbText
 73
1
  0
TEXT
  5
1A2
330
17
100
AcDbEntity
  8
PLAT-TEXT-DIST
100
AcDbText
 10
206.28328726750388
 20
-6.184253968954964
 30
0.0
 40
9.058829921767863
  1
80'
 50
0.9437241659327356
  7
PLAT
 72
1
 11
206.28328726750388
 21
-6.184253968954964
 31
0.0
100
AcDbText
 73
3
  0
TEXT
  5
1A3
330
17
100
AcDbEntity
  8
PLAT-TEXT-DIST
100
AcDbText
 10
810.1318689000883
 20
16.14050989579563
 30
0.0
 40
9.058829921767863
  1
78'
 50
325.1252938847874
  7
PLAT
 72
1
 11
810.1318689000883
 21
16.14050989579563
 31
0.0
100
AcDbText
 73
3
  0
TEXT
  5
1A4
330
17
100
AcDbEntity
  8
PLAT-TEXT-DIST
100
AcDbText
 10
502.65488136435863
 20
-3.461628880118031
 30
0.0
 40
9.058829921767863
  1
62.50'
 50
331.3565094106639
  7
PLAT
 72
1
 11
502.65488136435863
 21
-3.461628880118031
 31
0.0
100
AcDbText
 73
1
  0
TEXT
  5
1A5
330
17
100
AcDbEntity
  8
PLAT-TEXT-DIST
100
AcDbText
 10
1186.2947228619312
 20
31.292241580420058
 30
0.0
 40
9.058829921767863
  1
108.22'
 50
3.089960141321967
  7
PLAT
 72
1
 11
1186.2947228619312
 21
31.292241580420058
 31
0.0
100
AcDbText
 73
3
  0
TEXT
  5
1A6
330
17
100
AcDbEntity
  8
PLAT-TEXT-LOTNO
100
AcDbText
 10
198.3425913874998
 20
373.41047164848175
 30
0.0
 40
13.474324889579917
  1
33
 50
11.558847644072841
  7
PLAT
 72
1
 11
198.3425913874998
 21
373.41047164848175
 31
0.0
100
AcDbText
 73
2
  0
TEXT
  5
1A7
330
17
100
AcDbEntity
  8
PLAT-TEXT-LOWCONF
100
AcDbText
 10
423.7857080349742
 20
364.48342423677894
 30
0.0
 40
11.859307829500098
  1
OIF 5
 50
78.8535629675369
  7
PLAT
 72
1
 11
423.7857080349742
 21
364.48342423677894
 31
0.0
100
AcDbText
 73
2
  0
TEXT
  5
1A8
330
17
100
AcDbEntity
  8
PLAT-TEXT-LOWCONF
100
AcDbText
 10
441.9731374679719
 20
375.94995835301296
 30
0.0
 40
8.910302939308858
  1
Ses!
 50
78.8535629675369
  7
PLAT
 72
1
 11
441.9731374679719
 21
375.94995835301296
 31
0.0
100
AcDbText
 73
2
  0
TEXT
  5
1A9
330
17
100
AcDbEntity
  8
PLAT-TEXT-LOWCONF
100
AcDbText
 10
518.1741641834503
 20
357.3028523087896
 30
0.0
 40
14.273356240004523
  1
S o19920'5
 50
67.7026543274107
  7
PLAT
 72
1
 11
518.1741641834503
 21
357.3028523087896
 31
0.0
100
AcDbText
 73
2
  0
TEXT
  5
1AA
330
17
100
AcDbEntity
  8
PLAT-TEXT-LOWCONF
100
AcDbText
 10
609.5934405077369
 20
367.06788382408513
 30
0.0
 40
9.433238146794135
  1
5%%d OVAQ"E.
 50
304.7512394702291
  7
PLAT
 72
1
 11
609.5934405077369
 21
367.06788382408513
 31
0.0
100
AcDbText
 73
2
  0
TEXT
  5
1AB
330
17
100
AcDbEntity
  8
PLAT-TEXT-LOWCONF
100
AcDbText
 10
697.6153234337783
 20
377.15986983934033
 30
0.0
 40
9.120919053048926
  1
"PuEP 108
 50
292.2188295637789
  7
PLAT
 72
1
 11
697.6153234337783
 21
377.15986983934033
 31
0.0
100
AcDbText
 73
2
  0
TEXT
  5
1AC
330
17
100
AcDbEntity
  8
PLAT-TEXT-LOWCONF
100
AcDbText
 10
731.375925257513
 20
398.68908063129925
 30
0.0
 40
14.119178446285272
  1
1
 50
4.028347106322144
  7
PLAT
 72
1
 11
731.375925257513
 21
398.68908063129925
 31
0.0
100
AcDbText
 73
2
  0
TEXT
  5
1AD
330
17
100
AcDbEntity
  8
PLAT-TEXT-LOWCONF
100
AcDbText
 10
767.8464920072104
 20
404.8208371885621
 30
0.0
 40
4.689264742945425
  1
7
 50
92.81739578574661
  7
PLAT
 72
1
 11
767.8464920072104
 21
404.8208371885621
 31
0.0
100
AcDbText
 73
2
  0
TEXT
  5
1AE
330
17
100
AcDbEntity
  8
PLAT-TEXT-LOWCONF
100
AcDbText
 10
1145.8549538873017
 20
423.92660935974425
 30
0.0
 40
3.3159800682256932
  1
A
 50
2.817395785746612
  7
PLAT
 72
1
 11
1145.8549538873017
 21
423.92660935974425
 31
0.0
100
AcDbText
 73
2
  0
TEXT
  5
1AF
330
17
100
AcDbEntity
  8
PLAT-TEXT-LOTNO
100
AcDbText
 10
282.0794291738403
 20
375.5431082177229
 30
0.0
 40
14.389960917586016
  1
32
 50
12.742603304507213
  7
PLAT
 72
1
 11
282.0794291738403
 21
375.5431082177229
 31
0.0
100
AcDbText
 73
2
  0
TEXT
  5
1B0
330
17
100
AcDbEntity
  8
PLAT-TEXT-LOTNO
100
AcDbText
 10
340.21640266726206
 20
371.8710640541846
 30
0.0
 40
16.613395089292364
  1
700
 50
92.81739578574661
  7
PLAT
 72
1
 11
340.21640266726206
 21
371.8710640541846
 31
0.0
100
AcDbText
 73
2
  0
TEXT
  5
1B1
330
17
100
AcDbEntity
  8
PLAT-TEXT-LOWCONF
100
AcDbText
 10
960.4755688571017
 20
406.09394960980313
 30
0.0
 40
12.56496341772493
  1
24
 50
19.583363506436513
  7
PLAT
 72
1
 11
960.4755688571017
 21
406.09394960980313
 31
0.0
100
AcDbText
 73
2
  0
TEXT
  5
1B2
330
17
100
AcDbEntity
  8
PLAT-TEXT-LOTNO
100
AcDbText
 10
810.3941576455311
 20
398.50872481647116
 30
0.0
 40
12.198012684044393
  1
26
 50
9.646826570425503
  7
PLAT
 72
1
 11
810.3941576455311
 21
398.50872481647116
 31
0.0
100
AcDbText
 73
2
  0
TEXT
  5
1B3
330
17
100
AcDbEntity
  8
PLAT-TEXT-LOTNO
100
AcDbText
 10
885.3594628036749
 20
402.1663817823727
 30
0.0
 40
12.321239249075509
  1
25
 50
12.164294115539292
  7
PLAT
 72
1
 11
885.3594628036749
 21
402.1663817823727
 31
0.0
100
AcDbText
 73
2
  0
TEXT
  5
1B4
330
17
100
AcDbEntity
  8
PLAT-TEXT-LOTNO
100
AcDbText
 10
1034.8251591806286
 20
409.5992771661676
 30
0.0
 40
12.826208586126599
  1
23
 50
9.573490190331938
  7
PLAT
 72
1
 11
1034.8251591806286
 21
409.5992771661676
 31
0.0
100
AcDbText
 73
2
  0
TEXT
  5
1B5
330
17
100
AcDbEntity
  8
PLAT-TEXT-LOTNO
100
AcDbText
 10
1180.6868419287214
 20
415.8455469810832
 30
0.0
 40
13.42539670482584
  1
27
 50
17.106406789069922
  7
PLAT
 72
1
 11
1180.6868419287214
 21
415.8455469810832
 31
0.0
100
AcDbText
 73
2
  0
TEXT
  5
1B6
330
17
100
AcDbEntity
  8
PLAT-TEXT-LOTNO
100
AcDbText
 10
1258.0691319954676
 20
419.34027762230284
 30
0.0
 40
13.41629346660497
  1
20
 50
12.01963944088692
  7
PLAT
 72
1
 11
1258.0691319954676
 21
419.34027762230284
 31
0.0
100
AcDbText
 73
2
  0
TEXT
  5
1B7
330
17
100
AcDbEntity
  8
PLAT-TEXT-LOTNO
100
AcDbText
 10
1109.2945940584455
 20
411.91108909864147
 30
0.0
 40
12.705138592234182
  1
22
 50
7.40711547063006
  7
PLAT
 72
1
 11
1109.2945940584455
 21
411.91108909864147
 31
0.0
100
AcDbText
 73
2
  0
TEXT
  5
1B8
330
17
100
AcDbEntity
  8
PLAT-TEXT-LOTNO
100
AcDbText
 10
44.64536588934607
 20
353.9717448834243
 30
0.0
 40
12.39305682064148
  1
5
 50
2.817395785746612
  7
PLAT
 72
1
 11
44.64536588934607
 21
353.9717448834243
 31
0.0
100
AcDbText
 73
2
  0
TEXT
  5
1B9
330
17
100
AcDbEntity
  8
PLAT-TEXT-LOTNO
100
AcDbText
 10
474.99483258452324
 20
375.0409712017243
 30
0.0
 40
12.418862032474202
  1
30
 50
14.099699585670976
  7
PLAT
 72
1
 11
474.99483258452324
 21
375.0409712017243
 31
0.0
100
AcDbText
 73
2
  0
TEXT
  5
1BA
330
17
100
AcDbEntity
  8
PLAT-TEXT-LOWCONF
100
AcDbText
 10
723.1498190556746
 20
389.7101178061272
 30
0.0
 40
5.1246964690760715
  1
56"
 50
92.81739578574661
  7
PLAT
 72
1
 11
723.1498190556746
 21
389.7101178061272
 31
0.0
100
AcDbText
 73
2
  0
TEXT
  5
1BB
330
17
100
AcDbEntity
  8
PLAT-TEXT-LOWCONF
100
AcDbText
 10
639.9444989616194
 20
381.7121147523693
 30
0.0
 40
13.34191455806236
  1
28
 50
14.705698508186288
  7
PLAT
 72
1
 11
639.9444989616194
 21
381.7121147523693
 31
0.0
100
AcDbText
 73
2
  0
TEXT
  5
1BC
330
17
100
AcDbEntity
  8
PLAT-TEXT-LOWCONF
100
AcDbText
 10
726.9737146840291
 20
381.91081234311343
 30
0.0
 40
7.204144191384545
  1
56
 50
88.18047325764235
  7
PLAT
 72
1
 11
726.9737146840291
 21
381.91081234311343
 31
0.0
100
AcDbText
 73
2
  0
TEXT
  5
1BD
330
17
100
AcDbEntity
  8
PLAT-TEXT-LOWCONF
100
AcDbText
 10
277.5316506523228
 20
353.119966595366
 30
0.0
 40
11.234804716998191
  1
he,
 50
71.99713237539044
  7
PLAT
 72
1
 11
277.5316506523228
 21
353.119966595366
 31
0.0
100
AcDbText
 73
2
  0
TEXT
  5
1BE
330
17
100
AcDbEntity
  8
PLAT-TEXT-LOWCONF
100
AcDbText
 10
1142.9028370082303
 20
384.87482608788014
 30
0.0
 40
12.863870010386064
  1
ft"
 50
92.43130164968034
  7
PLAT
 72
1
 11
1142.9028370082303
 21
384.87482608788014
 31
0.0
100
AcDbText
 73
2
  0
TEXT
  5
1BF
330
17
100
AcDbEntity
  8
PLAT-TEXT-LOWCONF
100
AcDbText
 10
730.5130477634752
 20
372.9694860878898
 30
0.0
 40
8.742129270776829
  1
78!
 50
92.81739578574661
  7
PLAT
 72
1
 11
730.5130477634752
 21
372.9694860878898
 31
0.0
100
AcDbText
 73
2
  0
TEXT
  5
1C0
330
17
100
AcDbEntity
  8
PLAT-TEXT-LOWCONF
100
AcDbText
 10
44.18240496337614
 20
339.5287894656773
 30
0.0
 40
3.3159800682256932
  1
wk
 50
92.81739578574661
  7
PLAT
 72
1
 11
44.18240496337614
 21
339.5287894656773
 31
0.0
100
AcDbText
 73
2
  0
TEXT
  5
1C1
330
17
100
AcDbEntity
  8
PLAT-TEXT-LOWCONF
100
AcDbText
 10
46.71145015768593
 20
334.30269585051997
 30
0.0
 40
11.071359910215882
  1
~ F483 OF.
 50
4.529117882251967
  7
PLAT
 72
1
 11
46.71145015768593
 21
334.30269585051997
 31
0.0
100
AcDbText
 73
2
  0
TEXT
  5
1C2
330
17
100
AcDbEntity
  8
PLAT-TEXT-LOWCONF
100
AcDbText
 10
28.842835613235934
 20
337.7678323404655
 30
0.0
 40
3.3159800682256932
  1
2 ‘ ‘
 50
2.817395785746612
  7
PLAT
 72
1
 11
28.842835613235934
 21
337.7678323404655
 31
0.0
100
AcDbText
 73
2
  0
TEXT
  5
1C3
330
17
100
AcDbEntity
  8
PLAT-TEXT-LOWCONF
100
AcDbText
 10
267.9497096522503
 20
344.12332247445215
 30
0.0
 40
9.09396074981274
  1
ie
 50
1.3740344917608809
  7
PLAT
 72
1
 11
267.9497096522503
 21
344.12332247445215
 31
0.0
100
AcDbText
 73
2
  0
TEXT
  5
1C4
330
17
100
AcDbEntity
  8
PLAT-TEXT-LOWCONF
100
AcDbText
 10
376.9668017994995
 20
346.9377200881079
 30
0.0
 40
9.943679489140393
  1
5. 86207'22"
 50
357.67258633352037
  7
PLAT
 72
1
 11
376.9668017994995
 21
346.9377200881079
 31
0.0
100
AcDbText
 73
2
  0
TEXT
  5
1C5
330
17
100
AcDbEntity
  8
PLAT-TEXT-LOWCONF
100
AcDbText
 10
6.324445825568546
 20
289.36448182836347
 30
0.0
 40
14.779990251432514
  1
eset
 50
93.1020151095803
  7
PLAT
 72
1
 11
6.324445825568546
 21
289.36448182836347
 31
0.0
100
AcDbText
 73
2
  0
TEXT
  5
1C6
330
17
100
AcDbEntity
  8
PLAT-TEXT-LOWCONF
100
AcDbText
 10
733.3431591495681
 20
366.56938265208703
 30
0.0
 40
6.698949632779179
  1
‘6:
 50
92.81739578574661
  7
PLAT
 72
1
 11
733.3431591495681
 21
366.56938265208703
 31
0.0
100
AcDbText
 73
2
  0
TEXT
  5
1C7
330
17
100
AcDbEntity
  8
PLAT-TEXT-LOWCONF
100
AcDbText
 10
259.9845288962227
 20
335.94188217123195
 30
0.0
 40
7.920577129872266
  1
2
 50
280.6766341466164
  7
PLAT
 72
1
 11
259.9845288962227
 21
335.94188217123195
 31
0.0
100
AcDbText
 73
2
  0
TEXT
  5
1C8
330
17
100
AcDbEntity
  8
PLAT-TEXT-LOWCONF
100
AcDbText
 10
737.0316880884241
 20
356.35496647857826
 30
0.0
 40
9.043582004251892
  1
x
 50
2.817395785746612
  7
PLAT
 72
1
 11
737.0316880884241
 21
356.35496647857826
 31
0.0
100
AcDbText
 73
2
  0
TEXT
  5
1C9
330
17
100
AcDbEntity
  8
PLAT-TEXT-LOWCONF
100
AcDbText
 10
689.7756132414878
 20
350.7229166812931
 30
0.0
 40
9.634077940211695
  1
VE.
 50
31.26993148234203
  7
PLAT
 72
1
 11
689.7756132414878
 21
350.7229166812931
 31
0.0
100
AcDbText
 73
2
  0
TEXT
  5
1CA
330
17
100
AcDbEntity
  8
PLAT-TEXT-LOWCONF
100
AcDbText
 10
566.5062751672975
 20
343.0819181110061
 30
0.0
 40
14.207449844919624
  1
294,
 50
355.55760467577176
  7
PLAT
 72
1
 11
566.5062751672975
 21
343.0819181110061
 31
0.0
100
AcDbText
 73
2
  0
TEXT
  5
1CB
330
17
100
AcDbEntity
  8
PLAT-TEXT-LOWCONF
100
AcDbText
 10
160.2693497408381
 20
324.785195691372
 30
0.0
 40
8.742129270776829
  1
c
 50
92.81739578574661
  7
PLAT
 72
1
 11
160.2693497408381
 21
324.785195691372
 31
0.0
100
AcDbText
 73
2
  0
TEXT
  5
1CC
330
17
100
AcDbEntity
  8
PLAT-TEXT-LOWCONF
100
AcDbText
 10
444.6964290531257
 20
337.4411531064304
 30
0.0
 40
8.139223803826702
  1
R
 50
92.81739578574661
  7
PLAT
 72
1
 11
444.6964290531257
 21
337.4411531064304
 31
0.0
100
AcDbText
 73
2
  0
TEXT
  5
1CD
330
17
100
AcDbEntity
  8
PLAT-TEXT-LOWCONF
100
AcDbText
 10
667.3765839729591
 20
338.4644988384002
 30
0.0
 40
12.509447588861711
  1
50%%d18'20"
 50
23.644476494724813
  7
PLAT
 72
1
 11
667.3765839729591
 21
338.4644988384002
 31
0.0
100
AcDbText
 73
2
  0
TEXT
  5
1CE
330
17
100
AcDbEntity
  8
PLAT-TEXT-LOWCONF
100
AcDbText
 10
470.77540428045415
 20
330.6017653148158
 30
0.0
 40
9.507978727433745
  1
13 %%dFF 06"
 50
344.2062661524304
  7
PLAT
 72
1
 11
470.77540428045415
 21
330.6017653148158
 31
0.0
100
AcDbText
 73
2
  0
TEXT
  5
1CF
330
17
100
AcDbEntity
  8
PLAT-TEXT-LOWCONF
100
AcDbText
 10
771.3472743909272
 20
348.6406023817975
 30
0.0
 40
6.06214031252011
  1
“4
 50
351.3563084060619
  7
PLAT
 72
1
 11
771.3472743909272
 21
348.6406023817975
 31
0.0
100
AcDbText
 73
2
  0
TEXT
  5
1D0
330
17
100
AcDbEntity
  8
PLAT-TEXT-LOWCONF
100
AcDbText
 10
670.4935974517382
 20
345.53502161965486
 30
0.0
 40
3.9188855351758196
  1
— "a
 50
92.81739578574661
  7
PLAT
 72
1
 11
670.4935974517382
 21
345.53502161965486
 31
0.0
100
AcDbText
 73
2
  0
TEXT
  5
1D1
330
17
100
AcDbEntity
  8
PLAT-TEXT-LOWCONF
100
AcDbText
 10
1193.0481974784668
 20
367.23201844158547
 30
0.0
 40
9.480392819974316
  1
7S"
 50
2.4083333333332977
  7
PLAT
 72
1
 11
1193.0481974784668
 21
367.23201844158547
 31
0.0
100
AcDbText
 73
2
  0
TEXT
  5
1D2
330
17
100
AcDbEntity
  8
PLAT-TEXT-LOWCONF
100
AcDbText
 10
580.6466125979916
 20
334.17949396364054
 30
0.0
 40
6.2416598426376435
  1
Ss,
 50
7.006988298680653
  7
PLAT
 72
1
 11
580.6466125979916
 21
334.17949396364054
 31
0.0
100
AcDbText
 73
2
  0
TEXT
  5
1D3
330
17
100
AcDbEntity
  8
PLAT-TEXT-LOWCONF
100
AcDbText
 10
1330.3818726357267
 20
371.13504281803347
 30
0.0
 40
5.359159706223343
  1
4
 50
2.817395785746612
  7
PLAT
 72
1
 11
1330.3818726357267
 21
371.13504281803347
 31
0.0
100
AcDbText
 73
2
  0
TEXT
  5
1D4
330
17
100
AcDbEntity
  8
PLAT-TEXT-LOWCONF
100
AcDbText
 10
36.80312766735324
 20
301.43535656511216
 30
0.0
 40
8.717048569683477
  1
5-87'35'31
 50
2.3461196723992437
  7
PLAT
 72
1
 11
36.80312766735324
 21
301.43535656511216
 31
0.0
100
AcDbText
 73
2
  0
TEXT
  5
1D5
330
17
100
AcDbEntity
  8
PLAT-TEXT-LOWCONF
100
AcDbText
 10
590.0099035366784
 20
329.12052337154415
 30
0.0
 40
7.304213841193491
  1
Rog
 50
352.8009945445894
  7
PLAT
 72
1
 11
590.0099035366784
 21
329.12052337154415
 31
0.0
100
AcDbText
 73
2
  0
TEXT
  5
1D6
330
17
100
AcDbEntity
  8
PLAT-TEXT-LOWCONF
100
AcDbText
 10
83.81147499507176
 20
303.7920401334468
 30
0.0
 40
6.671418264772004
  1
Ms
 50
2.3461196723992543
  7
PLAT
 72
1
 11
83.81147499507176
 21
303.7920401334468
 31
0.0
100
AcDbText
 73
2
  0
TEXT
  5
1D7
330
17
100
AcDbEntity
  8
PLAT-TEXT-LOWCONF
100
AcDbText
 10
648.0140440021785
 20
325.3136348506516
 30
0.0
 40
11.153751138577332
  1
*e,
 50
92.81739578574661
  7
PLAT
 72
1
 11
648.0140440021785
 21
325.3136348506516
 31
0.0
100
AcDbText
 73
2
  0
TEXT
  5
1D8
330
17
100
AcDbEntity
  8
PLAT-TEXT-LOWCONF
100
AcDbText
 10
453.2270697800046
 20
297.70083380744165
 30
0.0
 40
14.952055580363128
  1
959. ¢ “Ctra 27, 2 ”
 50
354.95228059510555
  7
PLAT
 72
1
 11
453.2270697800046
 21
297.70083380744165
 31
0.0
100
AcDbText
 73
2
  0
TEXT
  5
1D9
330
17
100
AcDbEntity
  8
PLAT-TEXT-MISC
100
AcDbText
 10
723.3027370013624
 20
322.72552111796756
 30
0.0
 40
14.952055580363128
  1
pata
 50
8.875710848285507
  7
PLAT
 72
1
 11
723.3027370013624
 21
322.72552111796756
 31
0.0
100
AcDbText
 73
2
  0
TEXT
  5
1DA
330
17
100
AcDbEntity
  8
PLAT-TEXT-LOWCONF
100
AcDbText
 10
595.5814033460438
 20
320.8888527177031
 30
0.0
 40
6.029054669501261
  1
oh
 50
92.81739578574661
  7
PLAT
 72
1
 11
595.5814033460438
 21
320.8888527177031
 31
0.0
100
AcDbText
 73
2
  0
TEXT
  5
1DB
330
17
100
AcDbEntity
  8
PLAT-TEXT-LOWCONF
100
AcDbText
 10
517.2901130342921
 20
313.5908895057159
 30
0.0
 40
9.544374761925006
  1
> “4
 50
17.65227497449837
  7
PLAT
 72
1
 11
517.2901130342921
 21
313.5908895057159
 31
0.0
100
AcDbText
 73
2
  0
TEXT
  5
1DC
330
17
100
AcDbEntity
  8
PLAT-TEXT-LOWCONF
100
AcDbText
 10
75.50494041862567
 20
289.09056027286726
 30
0.0
 40
9.043582004251892
  1
6
 50
2.817395785746612
  7
PLAT
 72
1
 11
75.50494041862567
 21
289.09056027286726
 31
0.0
100
AcDbText
 73
2
  0
TEXT
  5
1DD
330
17
100
AcDbEntity
  8
PLAT-TEXT-LOWCONF
100
AcDbText
 10
602.2389027935617
 20
315.55888206614793
 30
0.0
 40
6.636226564298592
  1
7
 50
14.232355171001018
  7
PLAT
 72
1
 11
602.2389027935617
 21
315.55888206614793
 31
0.0
100
AcDbText
 73
2
  0
TEXT
  5
1DE
330
17
100
AcDbEntity
  8
PLAT-TEXT-LOWCONF
100
AcDbText
 10
175.28919057394933
 20
292.15675247768036
 30
0.0
 40
7.837771070351639
  1
10
 50
92.81739578574661
  7
PLAT
 72
1
 11
175.28919057394933
 21
292.15675247768036
 31
0.0
100
AcDbText
 73
2
  0
TEXT
  5
1DF
330
17
100
AcDbEntity
  8
PLAT-TEXT-LOWCONF
100
AcDbText
 10
528.6923064123265
 20
310.38698679608444
 30
0.0
 40
6.330507402976324
  1
. 65
 50
2.817395785746612
  7
PLAT
 72
1
 11
528.6923064123265
 21
310.38698679608444
 31
0.0
100
AcDbText
 73
2
  0
TEXT
  5
1E0
330
17
100
AcDbEntity
  8
PLAT-TEXT-UNASSOC
100
AcDbText
 10
19.520249977514823
 20
272.11906184879456
 30
0.0
 40
10.855416239839936
  1
15.78"
 50
91.98668440443748
  7
PLAT
 72
1
 11
19.520249977514823
 21
272.11906184879456
 31
0.0
100
AcDbText
 73
2
  0
TEXT
  5
1E1
330
17
100
AcDbEntity
  8
PLAT-TEXT-MISC
100
AcDbText
 10
932.709351665846
 20
322.3335187357428
 30
0.0
 40
14.952055580363128
  1
Hala
 50
4.645620986535846
  7
PLAT
 72
1
 11
932.709351665846
 21
322.3335187357428
 31
0.0
100
AcDbText
 73
2
  0
TEXT
  5
1E2
330
17
100
AcDbEntity
  8
PLAT-TEXT-LOTNO
100
AcDbText
 10
817.7787164522022
 20
319.7214111777892
 30
0.0
 40
12.619617384763973
  1
4
 50
320.6209149326471
  7
PLAT
 72
1
 11
817.7787164522022
 21
319.7214111777892
 31
0.0
100
AcDbText
 73
2
  0
TEXT
  5
1E3
330
17
100
AcDbEntity
  8
PLAT-TEXT-LOWCONF
100
AcDbText
 10
836.3565967579576
 20
317.6471252469962
 30
0.0
 40
14.952055580363128
  1
‘Ha
 50
2.817395785746612
  7
PLAT
 72
1
 11
836.3565967579576
 21
317.6471252469962
 31
0.0
100
AcDbText
 73
2
  0
TEXT
  5
1E4
330
17
100
AcDbEntity
  8
PLAT-TEXT-LOWCONF
100
AcDbText
 10
1257.5378955466094
 20
338.4403364246317
 30
0.0
 40
14.952055580363128
  1
NV
 50
6.845913783988067
  7
PLAT
 72
1
 11
1257.5378955466094
 21
338.4403364246317
 31
0.0
100
AcDbText
 73
2
  0
TEXT
  5
1E5
330
17
100
AcDbEntity
  8
PLAT-TEXT-LOWCONF
100
AcDbText
 10
557.6455811007825
 20
294.6320727223965
 30
0.0
 40
12.15188915782945
  1
r0s56 49",
 50
333.85152371827115
  7
PLAT
 72
1
 11
557.6455811007825
 21
294.6320727223965
 31
0.0
100
AcDbText
 73
2
  0
TEXT
  5
1E6
330
17
100
AcDbEntity
  8
PLAT-TEXT-LOWCONF
100
AcDbText
 10
871.1071136894557
 20
319.1022125226218
 30
0.0
 40
16.18829672248948
  1
777,
 50
1.5065415707831562
  7
PLAT
 72
1
 11
871.1071136894557
 21
319.1022125226218
 31
0.0
100
AcDbText
 73
2
  0
TEXT
  5
1E7
330
17
100
AcDbEntity
  8
PLAT-TEXT-LOWCONF
100
AcDbText
 10
437.2427410431694
 20
281.3979462843653
 30
0.0
 40
14.952055580363128
  1
A225 42870 9, 27, g9, "82 O8K
 50
354.95228059510555
  7
PLAT
 72
1
 11
437.2427410431694
 21
281.3979462843653
 31
0.0
100
AcDbText
 73
2
  0
TEXT
  5
1E8
330
17
100
AcDbEntity
  8
PLAT-TEXT-LOWCONF
100
AcDbText
 10
607.0549627190123
 20
309.213116786624
 30
0.0
 40
6.330507402976324
  1
ov
 50
92.81739578574661
  7
PLAT
 72
1
 11
607.0549627190123
 21
309.213116786624
 31
0.0
100
AcDbText
 73
2
  0
TEXT
  5
1E9
330
17
100
AcDbEntity
  8
PLAT-TEXT-LOWCONF
100
AcDbText
 10
671.8963129748021
 20
295.7241884821355
 30
0.0
 40
14.952055580363128
  1
g Gurve
 50
23.644476494724813
  7
PLAT
 72
1
 11
671.8963129748021
 21
295.7241884821355
 31
0.0
100
AcDbText
 73
2
  0
TEXT
  5
1EA
330
17
100
AcDbEntity
  8
PLAT-TEXT-LOWCONF
100
AcDbText
 10
175.69255073059804
 20
283.96045835706343
 30
0.0
 40
9.043582004251892
  1
6
 50
92.81739578574661
  7
PLAT
 72
1
 11
175.69255073059804
 21
283.96045835706343
 31
0.0
100
AcDbText
 73
2
  0
TEXT
  5
1EB
330
17
100
AcDbEntity
  8
PLAT-TEXT-LOWCONF
100
AcDbText
 10
76.23483730901773
 20
270.8496427994034
 30
0.0
 40
8.739929810155655
  1
a>
 50
92.82969004347376
  7
PLAT
 72
1
 11
76.23483730901773
 21
270.8496427994034
 31
0.0
100
AcDbText
 73
2
  0
TEXT
  5
1EC
330
17
100
AcDbEntity
  8
PLAT-TEXT-LOWCONF
100
AcDbText
 10
576.6418774064952
 20
303.6921786731236
 30
0.0
 40
7.536318336876576
  1
w
 50
92.81739578574661
  7
PLAT
 72
1
 11
576.6418774064952
 21
303.6921786731236
 31
0.0
100
AcDbText
 73
2
  0
TEXT
  5
1ED
330
17
100
AcDbEntity
  8
PLAT-TEXT-LOWCONF
100
AcDbText
 10
49.241038771058356
 20
274.216258048573
 30
0.0
 40
12.058109339002522
  1
SS
 50
92.81739578574661
  7
PLAT
 72
1
 11
49.241038771058356
 21
274.216258048573
 31
0.0
100
AcDbText
 73
2
  0
TEXT
  5
1EE
330
17
100
AcDbEntity
  8
PLAT-TEXT-LOWCONF
100
AcDbText
 10
735.8398322054251
 20
305.4255014674406
 30
0.0
 40
11.299247046925627
  1
1,282.35
 50
8.265222751096474
  7
PLAT
 72
1
 11
735.8398322054251
 21
305.4255014674406
 31
0.0
100
AcDbText
 73
2
  0
TEXT
  5
1EF
330
17
100
AcDbEntity
  8
PLAT-TEXT-LOWCONF
100
AcDbText
 10
634.3587107079137
 20
306.3648921409437
 30
0.0
 40
4.220338268650883
  1
a 2
 50
92.81739578574661
  7
PLAT
 72
1
 11
634.3587107079137
 21
306.3648921409437
 31
0.0
100
AcDbText
 73
2
  0
TEXT
  5
1F0
330
17
100
AcDbEntity
  8
PLAT-TEXT-LOWCONF
100
AcDbText
 10
1288.6802761789918
 20
336.0505484846954
 30
0.0
 40
9.043582004251892
  1
2.
 50
2.817395785746612
  7
PLAT
 72
1
 11
1288.6802761789918
 21
336.0505484846954
 31
0.0
100
AcDbText
 73
2
  0
TEXT
  5
1F1
330
17
100
AcDbEntity
  8
PLAT-TEXT-LOWCONF
100
AcDbText
 10
609.8109875457208
 20
304.31845512807746
 30
0.0
 40
4.521791002125946
  1
10!
 50
92.81739578574661
  7
PLAT
 72
1
 11
609.8109875457208
 21
304.31845512807746
 31
0.0
100
AcDbText
 73
2
  0
TEXT
  5
1F2
330
17
100
AcDbEntity
  8
PLAT-TEXT-LOWCONF
100
AcDbText
 10
615.7755071277934
 20
300.41329892053847
 30
0.0
 40
8.666270647418822
  1
‘BE
 50
314.10040840251276
  7
PLAT
 72
1
 11
615.7755071277934
 21
300.41329892053847
 31
0.0
100
AcDbText
 73
2
  0
TEXT
  5
1F3
330
17
100
AcDbEntity
  8
PLAT-TEXT-LOWCONF
100
AcDbText
 10
1210.8141647781542
 20
330.54179799072665
 30
0.0
 40
3.9188855351758196
  1
t
 50
2.817395785746612
  7
PLAT
 72
1
 11
1210.8141647781542
 21
330.54179799072665
 31
0.0
100
AcDbText
 73
2
  0
TEXT
  5
1F4
330
17
100
AcDbEntity
  8
PLAT-TABLE
100
AcDbText
 10
547.3439735885768
 20
286.55987482704177
 30
0.0
 40
9.774336890336725
  1
85.24"
 50
333.01315848302374
  7
PLAT
 72
1
 11
547.3439735885768
 21
286.55987482704177
 31
0.0
100
AcDbText
 73
2
  0
TEXT
  5
1F5
330
17
100
AcDbEntity
  8
PLAT-TEXT-LOWCONF
100
AcDbText
 10
591.9380711049048
 20
292.0419513630049
 30
0.0
 40
7.162389591223322
  1
70
 50
351.45821493387416
  7
PLAT
 72
1
 11
591.9380711049048
 21
292.0419513630049
 31
0.0
100
AcDbText
 73
2
  0
TEXT
  5
1F6
330
17
100
AcDbEntity
  8
PLAT-TEXT-LOWCONF
100
AcDbText
 10
440.88071796587667
 20
268.535619648252
 30
0.0
 40
14.952055580363128
  1
4: a7ee6 5
 50
353.397911852359
  7
PLAT
 72
1
 11
440.88071796587667
 21
268.535619648252
 31
0.0
100
AcDbText
 73
2
  0
TEXT
  5
1F7
330
17
100
AcDbEntity
  8
PLAT-TEXT-LOWCONF
100
AcDbText
 10
259.0529103481486
 20
269.9469187892688
 30
0.0
 40
9.950957528728157
  1
y
 50
92.62270394685146
  7
PLAT
 72
1
 11
259.0529103481486
 21
269.9469187892688
 31
0.0
100
AcDbText
 73
2
  0
TEXT
  5
1F8
330
17
100
AcDbEntity
  8
PLAT-TEXT-LOWCONF
100
AcDbText
 10
700.0752212176571
 20
270.85141748938173
 30
0.0
 40
14.952055580363128
  1
sine
 50
12.522806993252289
  7
PLAT
 72
1
 11
700.0752212176571
 21
270.85141748938173
 31
0.0
100
AcDbText
 73
2
  0
TEXT
  5
1F9
330
17
100
AcDbEntity
  8
PLAT-TEXT-LOWCONF
100
AcDbText
 10
681.8919194840921
 20
285.94293530961363
 30
0.0
 40
7.699346409275676
  1
ve
 50
18.443792962962505
  7
PLAT
 72
1
 11
681.8919194840921
 21
285.94293530961363
 31
0.0
100
AcDbText
 73
2
  0
TEXT
  5
1FA
330
17
100
AcDbEntity
  8
PLAT-TEXT-LOTNO
100
AcDbText
 10
593.4440797545094
 20
272.3251848587678
 30
0.0
 40
16.613395089292364
  1
2
 50
2.817395785746612
  7
PLAT
 72
1
 11
593.4440797545094
 21
272.3251848587678
 31
0.0
100
AcDbText
 73
2
  0
TEXT
  5
1FB
330
17
100
AcDbEntity
  8
PLAT-TEXT-LOWCONF
100
AcDbText
 10
76.96757341649948
 20
255.9626093332996
 30
0.0
 40
5.727601936026198
  1
de
 50
92.81739578574661
  7
PLAT
 72
1
 11
76.96757341649948
 21
255.9626093332996
 31
0.0
100
AcDbText
 73
2
  0
TEXT
  5
1FC
330
17
100
AcDbEntity
  8
PLAT-TEXT-LOWCONF
100
AcDbText
 10
164.03097227950622
 20
258.57045301189464
 30
0.0
 40
9.71347696752981
  1
3
 50
2.817395785746612
  7
PLAT
 72
1
 11
164.03097227950622
 21
258.57045301189464
 31
0.0
100
AcDbText
 73
2
  0
TEXT
  5
1FD
330
17
100
AcDbEntity
  8
PLAT-TEXT-LOWCONF
100
AcDbText
 10
664.8081539232842
 20
273.92267660634866
 30
0.0
 40
9.364023746309877
  1
R16;
 50
39.52591182341587
  7
PLAT
 72
1
 11
664.8081539232842
 21
273.92267660634866
 31
0.0
100
AcDbText
 73
2
  0
TEXT
  5
1FE
330
17
100
AcDbEntity
  8
PLAT-TEXT-LOWCONF
100
AcDbText
 10
6.496585710269642
 20
244.59468204524626
 30
0.0
 40
13.892996351334375
  1
YW
 50
0.755595689860248
  7
PLAT
 72
1
 11
6.496585710269642
 21
244.59468204524626
 31
0.0
100
AcDbText
 73
2
  0
TEXT
  5
1FF
330
17
100
AcDbEntity
  8
PLAT-TEXT-LOWCONF
100
AcDbText
 10
88.35881439015213
 20
245.95958648806072
 30
0.0
 40
10.85229840510227
  1
NG
 50
2.817395785746612
  7
PLAT
 72
1
 11
88.35881439015213
 21
245.95958648806072
 31
0.0
100
AcDbText
 73
2
  0
TEXT
  5
200
330
17
100
AcDbEntity
  8
PLAT-TEXT-LOWCONF
100
AcDbText
 10
43.255491935687814
 20
242.84799104853852
 30
0.0
 40
9.75372510192734
  1
oa
 50
0.755595689860229
  7
PLAT
 72
1
 11
43.255491935687814
 21
242.84799104853852
 31
0.0
100
AcDbText
 73
2
  0
TEXT
  5
201
330
17
100
AcDbEntity
  8
PLAT-TEXT-LOWCONF
100
AcDbText
 10
887.7798729963571
 20
230.1374086989619
 30
0.0
 40
11.80206081028709
  1
\ P06 90 IES
 50
92.79208790359525
  7
PLAT
 72
1
 11
887.7798729963571
 21
230.1374086989619
 31
0.0
100
AcDbText
 73
2
  0
TEXT
  5
202
330
17
100
AcDbEntity
  8
PLAT-TEXT-LOWCONF
100
AcDbText
 10
798.0539278017909
 20
278.2002498634739
 30
0.0
 40
5.408867048348724
  1
A
 50
92.54458633908553
  7
PLAT
 72
1
 11
798.0539278017909
 21
278.2002498634739
 31
0.0
100
AcDbText
 73
2
  0
TEXT
  5
203
330
17
100
AcDbEntity
  8
PLAT-TEXT-LOWCONF
100
AcDbText
 10
510.94583363212
 20
260.5077315603021
 30
0.0
 40
8.920555263090836
  1
"2
 50
15.820198812332706
  7
PLAT
 72
1
 11
510.94583363212
 21
260.5077315603021
 31
0.0
100
AcDbText
 73
2
  0
TEXT
  5
204
330
17
100
AcDbEntity
  8
PLAT-TEXT-LOWCONF
100
AcDbText
 10
1146.7212531198643
 20
255.79316358657394
 30
0.0
 40
14.952055580363128
  1
Cyvewasez
 50
92.75737946478426
  7
PLAT
 72
1
 11
1146.7212531198643
 21
255.79316358657394
 31
0.0
100
AcDbText
 73
2
  0
TEXT
  5
205
330
17
100
AcDbEntity
  8
PLAT-TEXT-LOWCONF
100
AcDbText
 10
1332.9864251842178
 20
301.1744766302549
 30
0.0
 40
9.37852948589085
  1
7
 50
2.817395785746612
  7
PLAT
 72
1
 11
1332.9864251842178
 21
301.1744766302549
 31
0.0
100
AcDbText
 73
2
  0
TEXT
  5
206
330
17
100
AcDbEntity
  8
PLAT-TEXT-LOWCONF
100
AcDbText
 10
716.0243127169737
 20
261.9253760877432
 30
0.0
 40
14.952055580363128
  1
“mes,
 50
12.522806993252289
  7
PLAT
 72
1
 11
716.0243127169737
 21
261.9253760877432
 31
0.0
100
AcDbText
 73
2
  0
TEXT
  5
207
330
17
100
AcDbEntity
  8
PLAT-TEXT-LOWCONF
100
AcDbText
 10
277.6543592853319
 20
246.05881016401062
 30
0.0
 40
12.36666282773636
  1
a
 50
2.622703946851516
  7
PLAT
 72
1
 11
277.6543592853319
 21
246.05881016401062
 31
0.0
100
AcDbText
 73
2
  0
TEXT
  5
208
330
17
100
AcDbEntity
  8
PLAT-TEXT-LOWCONF
100
AcDbText
 10
176.33002184551145
 20
243.74948957744562
 30
0.0
 40
2.7130746012755673
  1
8 i
 50
92.81739578574661
  7
PLAT
 72
1
 11
176.33002184551145
 21
243.74948957744562
 31
0.0
100
AcDbText
 73
2
  0
TEXT
  5
209
330
17
100
AcDbEntity
  8
PLAT-TEXT-LOWCONF
100
AcDbText
 10
350.3118973979245
 20
224.66882372780884
 30
0.0
 40
13.48629901736842
  1
105.18" 2
 50
92.36434772284053
  7
PLAT
 72
1
 11
350.3118973979245
 21
224.66882372780884
 31
0.0
100
AcDbText
 73
2
  0
TEXT
  5
20A
330
17
100
AcDbEntity
  8
PLAT-TEXT-LOWCONF
100
AcDbText
 10
389.30722742392203
 20
245.6275429102126
 30
0.0
 40
12.342443708157916
  1
VPLS: 45%
 50
358.0880990665703
  7
PLAT
 72
1
 11
389.30722742392203
 21
245.6275429102126
 31
0.0
100
AcDbText
 73
2
  0
TEXT
  5
20B
330
17
100
AcDbEntity
  8
PLAT-TEXT-LOWCONF
100
AcDbText
 10
523.5717793837466
 20
256.58221653987715
 30
0.0
 40
7.06701529416667
  1
O-
 50
6.90052331226957
  7
PLAT
 72
1
 11
523.5717793837466
 21
256.58221653987715
 31
0.0
100
AcDbText
 73
2
  0
TEXT
  5
20C
330
17
100
AcDbEntity
  8
PLAT-TEXT-LOWCONF
100
AcDbText
 10
785.4414396262223
 20
227.11082742972087
 30
0.0
 40
12.392912173177464
  1
Se 9103-8
 50
92.59037032563373
  7
PLAT
 72
1
 11
785.4414396262223
 21
227.11082742972087
 31
0.0
100
AcDbText
 73
2
  0
TEXT
  5
20D
330
17
100
AcDbEntity
  8
PLAT-TEXT-LOWCONF
100
AcDbText
 10
47.96810939149759
 20
227.57813411558107
 30
0.0
 40
10.664746758133989
  1
"2 OZ BS.BB'M
 50
0.755595689860229
  7
PLAT
 72
1
 11
47.96810939149759
 21
227.57813411558107
 31
0.0
100
AcDbText
 73
2
  0
TEXT
  5
20E
330
17
100
AcDbEntity
  8
PLAT-TEXT-LOWCONF
100
AcDbText
 10
636.3126195917323
 20
259.84700467472277
 30
0.0
 40
6.6319601364513865
  1
Se
 50
2.817395785746612
  7
PLAT
 72
1
 11
636.3126195917323
 21
259.84700467472277
 31
0.0
100
AcDbText
 73
2
  0
TEXT
  5
20F
330
17
100
AcDbEntity
  8
PLAT-TEXT-LOTNO
100
AcDbText
 10
190.7321463736763
 20
233.89463985097564
 30
0.0
 40
14.067794228836275
  1
3
 50
2.817395785746612
  7
PLAT
 72
1
 11
190.7321463736763
 21
233.89463985097564
 31
0.0
100
AcDbText
 73
2
  0
TEXT
  5
210
330
17
100
AcDbEntity
  8
PLAT-TEXT-LOWCONF
100
AcDbText
 10
646.7327105636112
 20
254.43275199226477
 30
0.0
 40
7.238725198695218
  1
"Os
 50
350.9971210155245
  7
PLAT
 72
1
 11
646.7327105636112
 21
254.43275199226477
 31
0.0
100
AcDbText
 73
2
  0
TEXT
  5
211
330
17
100
AcDbEntity
  8
PLAT-TEXT-LOWCONF
100
AcDbText
 10
723.7597017968219
 20
244.12567694171787
 30
0.0
 40
14.952055580363128
  1
ere
 50
6.1364306300185945
  7
PLAT
 72
1
 11
723.7597017968219
 21
244.12567694171787
 31
0.0
100
AcDbText
 73
2
  0
TEXT
  5
212
330
17
100
AcDbEntity
  8
PLAT-TEXT-LOWCONF
100
AcDbText
 10
417.0628160917288
 20
201.45727605481918
 30
0.0
 40
12.280617996210234
  1
wy. 14%%d59'OI%%dE. RNS
 50
74.56237417211236
  7
PLAT
 72
1
 11
417.0628160917288
 21
201.45727605481918
 31
0.0
100
AcDbText
 73
2
  0
TEXT
  5
213
330
17
100
AcDbEntity
  8
PLAT-TEXT-LOWCONF
100
AcDbText
 10
594.8378952129027
 20
247.40999171968036
 30
0.0
 40
6.029054669501261
  1
Ww
 50
2.817395785746612
  7
PLAT
 72
1
 11
594.8378952129027
 21
247.40999171968036
 31
0.0
100
AcDbText
 73
2
  0
TEXT
  5
214
330
17
100
AcDbEntity
  8
PLAT-TEXT-LOWCONF
100
AcDbText
 10
186.37518882063614
 20
223.61963797791785
 30
0.0
 40
4.823243735601009
  1
WA A
 50
92.81739578574661
  7
PLAT
 72
1
 11
186.37518882063614
 21
223.61963797791785
 31
0.0
100
AcDbText
 73
2
  0
TEXT
  5
215
330
17
100
AcDbEntity
  8
PLAT-TEXT-LOWCONF
100
AcDbText
 10
444.40590574081
 20
233.2277453832811
 30
0.0
 40
10.28660726261647
  1
8
 50
277.4363633473271
  7
PLAT
 72
1
 11
444.40590574081
 21
233.2277453832811
 31
0.0
100
AcDbText
 73
2
  0
TEXT
  5
216
330
17
100
AcDbEntity
  8
PLAT-TEXT-LOWCONF
100
AcDbText
 10
564.2111103722397
 20
236.0098622859444
 30
0.0
 40
13.732846747197316
  1
4
 50
2.817395785746612
  7
PLAT
 72
1
 11
564.2111103722397
 21
236.0098622859444
 31
0.0
100
AcDbText
 73
2
  0
TEXT
  5
217
330
17
100
AcDbEntity
  8
PLAT-TEXT-LOWCONF
100
AcDbText
 10
476.0534662440755
 20
221.80824469450243
 30
0.0
 40
12.10424374022764
  1
2.22099.
 50
340.9156446921827
  7
PLAT
 72
1
 11
476.0534662440755
 21
221.80824469450243
 31
0.0
100
AcDbText
 73
2
  0
TEXT
  5
218
330
17
100
AcDbEntity
  8
PLAT-TEXT-LOWCONF
100
AcDbText
 10
202.66625701194732
 20
214.68781261247176
 30
0.0
 40
16.613395089292364
  1
324
 50
355.08605361841893
  7
PLAT
 72
1
 11
202.66625701194732
 21
214.68781261247176
 31
0.0
100
AcDbText
 73
2
  0
TEXT
  5
219
330
17
100
AcDbEntity
  8
PLAT-TEXT-LOWCONF
100
AcDbText
 10
34.411334342113946
 20
199.3928739322486
 30
0.0
 40
14.952055580363128
  1
yy
 50
31.79273814801735
  7
PLAT
 72
1
 11
34.411334342113946
 21
199.3928739322486
 31
0.0
100
AcDbText
 73
2
  0
TEXT
  5
21A
330
17
100
AcDbEntity
  8
PLAT-TEXT-LOTNO
100
AcDbText
 10
295.0980033438606
 20
211.89673684108737
 30
0.0
 40
14.80748692075406
  1
25
 50
13.144338049288876
  7
PLAT
 72
1
 11
295.0980033438606
 21
211.89673684108737
 31
0.0
100
AcDbText
 73
2
  0
TEXT
  5
21B
330
17
100
AcDbEntity
  8
PLAT-TEXT-LOWCONF
100
AcDbText
 10
576.0877015917811
 20
226.36607757766836
 30
0.0
 40
9.646487471202018
  1
a
 50
2.817395785746612
  7
PLAT
 72
1
 11
576.0877015917811
 21
226.36607757766836
 31
0.0
100
AcDbText
 73
2
  0
TEXT
  5
21C
330
17
100
AcDbEntity
  8
PLAT-TEXT-LOWCONF
100
AcDbText
 10
190.39299135675634
 20
206.71436946104825
 30
0.0
 40
10.249392938152143
  1
“At
 50
92.81739578574661
  7
PLAT
 72
1
 11
190.39299135675634
 21
206.71436946104825
 31
0.0
100
AcDbText
 73
2
  0
TEXT
  5
21D
330
17
100
AcDbEntity
  8
PLAT-TEXT-LOWCONF
100
AcDbText
 10
432.184684876036
 20
198.35083942605146
 30
0.0
 40
8.28140105141462
  1
M243"
 50
74.56237417211236
  7
PLAT
 72
1
 11
432.184684876036
 21
198.35083942605146
 31
0.0
100
AcDbText
 73
2
  0
TEXT
  5
21E
330
17
100
AcDbEntity
  8
PLAT-TEXT-LOWCONF
100
AcDbText
 10
662.6245910092408
 20
229.45103966222067
 30
0.0
 40
2.7130746012755673
  1
\s
 50
2.817395785746612
  7
PLAT
 72
1
 11
662.6245910092408
 21
229.45103966222067
 31
0.0
100
AcDbText
 73
2
  0
TEXT
  5
21F
330
17
100
AcDbEntity
  8
PLAT-TEXT-LOTNO
100
AcDbText
 10
839.4853525521198
 20
233.6275372982283
 30
0.0
 40
12.058109339002522
  1
2
 50
2.817395785746612
  7
PLAT
 72
1
 11
839.4853525521198
 21
233.6275372982283
 31
0.0
100
AcDbText
 73
2
  0
TEXT
  5
220
330
17
100
AcDbEntity
  8
PLAT-TEXT-LOTNO
100
AcDbText
 10
1022.8476341199328
 20
241.98054862893267
 30
0.0
 40
12.72800430228044
  1
4
 50
2.817395785746612
  7
PLAT
 72
1
 11
1022.8476341199328
 21
241.98054862893267
 31
0.0
100
AcDbText
 73
2
  0
TEXT
  5
221
330
17
100
AcDbEntity
  8
PLAT-TEXT-LOTNO
100
AcDbText
 10
64.47358617274313
 20
192.9721214264046
 30
0.0
 40
13.062951783919399
  1
7
 50
2.817395785746612
  7
PLAT
 72
1
 11
64.47358617274313
 21
192.9721214264046
 31
0.0
100
AcDbText
 73
2
  0
TEXT
  5
222
330
17
100
AcDbEntity
  8
PLAT-TEXT-LOTNO
100
AcDbText
 10
376.79796931278236
 20
207.82385222450912
 30
0.0
 40
15.215999810769356
  1
26
 50
15.19114006507607
  7
PLAT
 72
1
 11
376.79796931278236
 21
207.82385222450912
 31
0.0
100
AcDbText
 73
2
  0
TEXT
  5
223
330
17
100
AcDbEntity
  8
PLAT-TEXT-LOTNO
100
AcDbText
 10
936.266950992863
 20
236.37828507568847
 30
0.0
 40
12.058109339002522
  1
3
 50
2.817395785746612
  7
PLAT
 72
1
 11
936.266950992863
 21
236.37828507568847
 31
0.0
100
AcDbText
 73
2
  0
TEXT
  5
224
330
17
100
AcDbEntity
  8
PLAT-TEXT-LOTNO
100
AcDbText
 10
1122.4810766465357
 20
244.70396637664612
 30
0.0
 40
11.723161857363563
  1
5
 50
2.817395785746612
  7
PLAT
 72
1
 11
1122.4810766465357
 21
244.70396637664612
 31
0.0
100
AcDbText
 73
2
  0
TEXT
  5
225
330
17
100
AcDbEntity
  8
PLAT-TEXT-LOTNO
100
AcDbText
 10
1192.9022975604084
 20
248.16957098785235
 30
0.0
 40
11.723161857363563
  1
9
 50
2.817395785746612
  7
PLAT
 72
1
 11
1192.9022975604084
 21
248.16957098785235
 31
0.0
100
AcDbText
 73
2
  0
TEXT
  5
226
330
17
100
AcDbEntity
  8
PLAT-TEXT-LOWCONF
100
AcDbText
 10
1268.8681671773484
 20
251.40501239104952
 30
0.0
 40
10.718319412446686
  1
7
 50
2.817395785746612
  7
PLAT
 72
1
 11
1268.8681671773484
 21
251.40501239104952
 31
0.0
100
AcDbText
 73
2
  0
TEXT
  5
227
330
17
100
AcDbEntity
  8
PLAT-TEXT-LOWCONF
100
AcDbText
 10
701.1841176087684
 20
209.3798562820348
 30
0.0
 40
14.952055580363128
  1
ke
 50
348.2564403837256
  7
PLAT
 72
1
 11
701.1841176087684
 21
209.3798562820348
 31
0.0
100
AcDbText
 73
2
  0
TEXT
  5
228
330
17
100
AcDbEntity
  8
PLAT-TEXT-LOWCONF
100
AcDbText
 10
494.0394033370282
 20
173.22380902882477
 30
0.0
 40
11.967797139331395
  1
UPL E2066 cA 1
 50
57.56680599610672
  7
PLAT
 72
1
 11
494.0394033370282
 21
173.22380902882477
 31
0.0
100
AcDbText
 73
2
  0
TEXT
  5
229
330
17
100
AcDbEntity
  8
PLAT-TEXT-LOWCONF
100
AcDbText
 10
533.8810000791905
 20
208.3597203997636
 30
0.0
 40
3.9188855351758196
  1
fa
 50
92.81739578574661
  7
PLAT
 72
1
 11
533.8810000791905
 21
208.3597203997636
 31
0.0
100
AcDbText
 73
2
  0
TEXT
  5
22A
330
17
100
AcDbEntity
  8
PLAT-TEXT-LOTNO
100
AcDbText
 10
126.04918254162965
 20
178.5640632288396
 30
0.0
 40
15.74253163703107
  1
3
 50
92.81739578574661
  7
PLAT
 72
1
 11
126.04918254162965
 21
178.5640632288396
 31
0.0
100
AcDbText
 73
2
  0
TEXT
  5
22B
330
17
100
AcDbEntity
  8
PLAT-TEXT-LOWCONF
100
AcDbText
 10
215.38615819240027
 20
184.15311241260827
 30
0.0
 40
9.261344189483282
  1
Y3..0.89088 |
 50
1.2734297782869817
  7
PLAT
 72
1
 11
215.38615819240027
 21
184.15311241260827
 31
0.0
100
AcDbText
 73
2
  0
TEXT
  5
22C
330
17
100
AcDbEntity
  8
PLAT-TEXT-LOWCONF
100
AcDbText
 10
33.73101806877901
 20
170.28616494525767
 30
0.0
 40
11.047811454817033
  1
2
 50
80.90537444463905
  7
PLAT
 72
1
 11
33.73101806877901
 21
170.28616494525767
 31
0.0
100
AcDbText
 73
2
  0
TEXT
  5
22D
330
17
100
AcDbEntity
  8
PLAT-TEXT-LOTNO
100
AcDbText
 10
458.8346395060754
 20
188.1079483856585
 30
0.0
 40
15.329070264147726
  1
27
 50
15.615166588495697
  7
PLAT
 72
1
 11
458.8346395060754
 21
188.1079483856585
 31
0.0
100
AcDbText
 73
2
  0
TEXT
  5
22E
330
17
100
AcDbEntity
  8
PLAT-TEXT-LOWCONF
100
AcDbText
 10
861.3191325390175
 20
191.23830505758647
 30
0.0
 40
14.952055580363128
  1
20 10,0Po18S%
 50
352.1935274045984
  7
PLAT
 72
1
 11
861.3191325390175
 21
191.23830505758647
 31
0.0
100
AcDbText
 73
2
  0
TEXT
  5
22F
330
17
100
AcDbEntity
  8
PLAT-TEXT-LOWCONF
100
AcDbText
 10
1292.8122594942508
 20
225.08997935617748
 30
0.0
 40
12.868685751526344
  1
* fb IWISOD
 50
4.5795614923919175
  7
PLAT
 72
1
 11
1292.8122594942508
 21
225.08997935617748
 31
0.0
100
AcDbText
 73
2
  0
TEXT
  5
230
330
17
100
AcDbEntity
  8
PLAT-TEXT-LOWCONF
100
AcDbText
 10
540.0377677572246
 20
188.876893024729
 30
0.0
 40
3.684422298028548
  1
4
 50
2.817395785746612
  7
PLAT
 72
1
 11
540.0377677572246
 21
188.876893024729
 31
0.0
100
AcDbText
 73
2
  0
TEXT
  5
231
330
17
100
AcDbEntity
  8
PLAT-TEXT-LOWCONF
100
AcDbText
 10
302.6772926553911
 20
171.7352452952107
 30
0.0
 40
9.25140638340355
  1
392 €8-
 50
1.4841825306943974
  7
PLAT
 72
1
 11
302.6772926553911
 21
171.7352452952107
 31
0.0
100
AcDbText
 73
2
  0
TEXT
  5
232
330
17
100
AcDbEntity
  8
PLAT-TEXT-LOWCONF
100
AcDbText
 10
126.31589254954474
 20
156.1085486789228
 30
0.0
 40
16.613395089292364
  1
“1
 50
92.81739578574661
  7
PLAT
 72
1
 11
126.31589254954474
 21
156.1085486789228
 31
0.0
100
AcDbText
 73
2
  0
TEXT
  5
233
330
17
100
AcDbEntity
  8
PLAT-TEXT-LOWCONF
100
AcDbText
 10
536.045375499721
 20
177.94647693270096
 30
0.0
 40
8.431103501971748
  1
x
 50
2.687714122623049
  7
PLAT
 72
1
 11
536.045375499721
 21
177.94647693270096
 31
0.0
100
AcDbText
 73
2
  0
TEXT
  5
234
330
17
100
AcDbEntity
  8
PLAT-TEXT-LOWCONF
100
AcDbText
 10
770.0259168851214
 20
177.3091122198926
 30
0.0
 40
14.952055580363128
  1
set
 50
43.55808063465349
  7
PLAT
 72
1
 11
770.0259168851214
 21
177.3091122198926
 31
0.0
100
AcDbText
 73
2
  0
TEXT
  5
235
330
17
100
AcDbEntity
  8
PLAT-TEXT-LOWCONF
100
AcDbText
 10
1083.32517810374
 20
202.4201855472272
 30
0.0
 40
11.251034628599546
  1
[789 8E—- - 580 8S
 50
2.6008228543953464
  7
PLAT
 72
1
 11
1083.32517810374
 21
202.4201855472272
 31
0.0
100
AcDbText
 73
2
  0
TEXT
  5
236
330
17
100
AcDbEntity
  8
PLAT-TEXT-LOWCONF
100
AcDbText
 10
969.3810473370459
 20
195.9702751566351
 30
0.0
 40
10.943821415953307
  1
x
 50
324.12636013306275
  7
PLAT
 72
1
 11
969.3810473370459
 21
195.9702751566351
 31
0.0
100
AcDbText
 73
2
  0
TEXT
  5
237
330
17
100
AcDbEntity
  8
PLAT-TEXT-LOWCONF
100
AcDbText
 10
700.7059355778417
 20
180.51380337812543
 30
0.0
 40
9.3710462954348
  1
115%%d
 50
325.08038226551474
  7
PLAT
 72
1
 11
700.7059355778417
 21
180.51380337812543
 31
0.0
100
AcDbText
 73
2
  0
TEXT
  5
238
330
17
100
AcDbEntity
  8
PLAT-TEXT-LOWCONF
100
AcDbText
 10
531.6939571379904
 20
171.02792573575255
 30
0.0
 40
5.1246964690760715
  1
x
 50
2.817395785746612
  7
PLAT
 72
1
 11
531.6939571379904
 21
171.02792573575255
 31
0.0
100
AcDbText
 73
2
  0
TEXT
  5
239
330
17
100
AcDbEntity
  8
PLAT-TEXT-LOWCONF
100
AcDbText
 10
1271.3347563368025
 20
208.09820714765144
 30
0.0
 40
3.9188855351758196
  1
eae
 50
2.817395785746612
  7
PLAT
 72
1
 11
1271.3347563368025
 21
208.09820714765144
 31
0.0
100
AcDbText
 73
2
  0
TEXT
  5
23A
330
17
100
AcDbEntity
  8
PLAT-TEXT-LOWCONF
100
AcDbText
 10
11.538277643622678
 20
118.55665425430195
 30
0.0
 40
8.457303092526777
  1
YTS
 50
91.98668440443748
  7
PLAT
 72
1
 11
11.538277643622678
 21
118.55665425430195
 31
0.0
100
AcDbText
 73
2
  0
TEXT
  5
23B
330
17
100
AcDbEntity
  8
PLAT-TEXT-LOWCONF
100
AcDbText
 10
340.17390613926676
 20
158.08153969386734
 30
0.0
 40
7.234865603401512
  1
~2e
 50
2.817395785746612
  7
PLAT
 72
1
 11
340.17390613926676
 21
158.08153969386734
 31
0.0
100
AcDbText
 73
2
  0
TEXT
  5
23C
330
17
100
AcDbEntity
  8
PLAT-TEXT-LOWCONF
100
AcDbText
 10
545.3423926839846
 20
160.409954353774
 30
0.0
 40
16.613395089292364
  1
$26
 50
9.697269121148395
  7
PLAT
 72
1
 11
545.3423926839846
 21
160.409954353774
 31
0.0
100
AcDbText
 73
2
  0
TEXT
  5
23D
330
17
100
AcDbEntity
  8
PLAT-TEXT-LOWCONF
100
AcDbText
 10
656.662416640193
 20
166.6143222040743
 30
0.0
 40
13.263920272902773
  1
cL
 50
2.817395785746612
  7
PLAT
 72
1
 11
656.662416640193
 21
166.6143222040743
 31
0.0
100
AcDbText
 73
2
  0
TEXT
  5
23E
330
17
100
AcDbEntity
  8
PLAT-TEXT-LOWCONF
100
AcDbText
 10
349.50862336840953
 20
113.49585417597312
 30
0.0
 40
14.952055580363128
  1
~ PEL ES 081 NS
 50
78.64903321623223
  7
PLAT
 72
1
 11
349.50862336840953
 21
113.49585417597312
 31
0.0
100
AcDbText
 73
2
  0
TEXT
  5
23F
330
17
100
AcDbEntity
  8
PLAT-TEXT-LOWCONF
100
AcDbText
 10
932.8686907564269
 20
183.84875610400252
 30
0.0
 40
3.3796181956412825
  1
ren
 50
24.525133700564197
  7
PLAT
 72
1
 11
932.8686907564269
 21
183.84875610400252
 31
0.0
100
AcDbText
 73
2
  0
TEXT
  5
240
330
17
100
AcDbEntity
  8
PLAT-TEXT-LOWCONF
100
AcDbText
 10
973.2726170698716
 20
182.20705441725298
 30
0.0
 40
8.603262466858558
  1
15'—~
 50
5.101556697728256
  7
PLAT
 72
1
 11
973.2726170698716
 21
182.20705441725298
 31
0.0
100
AcDbText
 73
2
  0
TEXT
  5
241
330
17
100
AcDbEntity
  8
PLAT-TEXT-LOWCONF
100
AcDbText
 10
901.3944263496973
 20
171.6171194739485
 30
0.0
 40
11.760250630865482
  1
Ne
 50
92.79208790359536
  7
PLAT
 72
1
 11
901.3944263496973
 21
171.6171194739485
 31
0.0
100
AcDbText
 73
2
  0
TEXT
  5
242
330
17
100
AcDbEntity
  8
PLAT-TEXT-LOWCONF
100
AcDbText
 10
1039.2378826682532
 20
184.64531757663383
 30
0.0
 40
9.390548599948481
  1
45"
 50
2.600822854395345
  7
PLAT
 72
1
 11
1039.2378826682532
 21
184.64531757663383
 31
0.0
100
AcDbText
 73
2
  0
TEXT
  5
243
330
17
100
AcDbEntity
  8
PLAT-TEXT-LOWCONF
100
AcDbText
 10
563.494525852907
 20
135.30406255719623
 30
0.0
 40
9.010685130917686
  1
V.35%%d 18%%d20".
 50
55.31282297237243
  7
PLAT
 72
1
 11
563.494525852907
 21
135.30406255719623
 31
0.0
100
AcDbText
 73
2
  0
TEXT
  5
244
330
17
100
AcDbEntity
  8
PLAT-TEXT-LOWCONF
100
AcDbText
 10
234.3188261454045
 20
145.49438375960045
 30
0.0
 40
4.823243735601009
  1
ner 4
 50
92.81739578574661
  7
PLAT
 72
1
 11
234.3188261454045
 21
145.49438375960045
 31
0.0
100
AcDbText
 73
2
  0
TEXT
  5
245
330
17
100
AcDbEntity
  8
PLAT-TEXT-LOWCONF
100
AcDbText
 10
856.6762876217299
 20
132.9621339075833
 30
0.0
 40
9.324311395969659
  1
.N.26893!25%e .
 50
58.54326630826938
  7
PLAT
 72
1
 11
856.6762876217299
 21
132.9621339075833
 31
0.0
100
AcDbText
 73
2
  0
TEXT
  5
246
330
17
100
AcDbEntity
  8
PLAT-TEXT-LOWCONF
100
AcDbText
 10
1003.4782995224082
 20
138.19958259353035
 30
0.0
 40
11.81277899062688
  1
(£9, BVOC WN »
 50
277.93303297853106
  7
PLAT
 72
1
 11
1003.4782995224082
 21
138.19958259353035
 31
0.0
100
AcDbText
 73
2
  0
TEXT
  5
247
330
17
100
AcDbEntity
  8
PLAT-TEXT-LOWCONF
100
AcDbText
 10
236.885846963762
 20
134.21871685506636
 30
0.0
 40
12.661014805952648
  1
20%%d
 50
92.81739578574661
  7
PLAT
 72
1
 11
236.885846963762
 21
134.21871685506636
 31
0.0
100
AcDbText
 73
2
  0
TEXT
  5
248
330
17
100
AcDbEntity
  8
PLAT-TEXT-LOWCONF
100
AcDbText
 10
246.52374441878737
 20
121.58285777259448
 30
0.0
 40
7.776437362996728
  1
BOL
 50
88.95015482704048
  7
PLAT
 72
1
 11
246.52374441878737
 21
121.58285777259448
 31
0.0
100
AcDbText
 73
2
  0
TEXT
  5
249
330
17
100
AcDbEntity
  8
PLAT-TEXT-LOWCONF
100
AcDbText
 10
406.91386773178823
 20
136.8436417725596
 30
0.0
 40
14.952055580363128
  1
Stay
 50
345.89685853156857
  7
PLAT
 72
1
 11
406.91386773178823
 21
136.8436417725596
 31
0.0
100
AcDbText
 73
2
  0
TEXT
  5
24A
330
17
100
AcDbEntity
  8
PLAT-TEXT-LOWCONF
100
AcDbText
 10
533.865624082744
 20
148.27063721567464
 30
0.0
 40
13.368968105484347
  1
$33
 50
80.59374237495922
  7
PLAT
 72
1
 11
533.865624082744
 21
148.27063721567464
 31
0.0
100
AcDbText
 73
2
  0
TEXT
  5
24B
330
17
100
AcDbEntity
  8
PLAT-TEXT-LOWCONF
100
AcDbText
 10
873.0117705542541
 20
131.17310747063217
 30
0.0
 40
10.546262302198157
  1
SSM 2: 3: 7
 50
58.54326630826938
  7
PLAT
 72
1
 11
873.0117705542541
 21
131.17310747063217
 31
0.0
100
AcDbText
 73
2
  0
TEXT
  5
24C
330
17
100
AcDbEntity
  8
PLAT-TEXT-LOWCONF
100
AcDbText
 10
873.7180347755145
 20
122.14978221180074
 30
0.0
 40
14.952055580363128
  1
Tig PER ent.
 50
58.54326630826938
  7
PLAT
 72
1
 11
873.7180347755145
 21
122.14978221180074
 31
0.0
100
AcDbText
 73
2
  0
TEXT
  5
24D
330
17
100
AcDbEntity
  8
PLAT-TEXT-LOWCONF
100
AcDbText
 10
531.5909938398256
 20
137.7394256340665
 30
0.0
 40
11.462283498092752
  1
ve
 50
83.56645320378857
  7
PLAT
 72
1
 11
531.5909938398256
 21
137.7394256340665
 31
0.0
100
AcDbText
 73
2
  0
TEXT
  5
24E
330
17
100
AcDbEntity
  8
PLAT-TEXT-LOWCONF
100
AcDbText
 10
234.59640250320314
 20
126.2252559127117
 30
0.0
 40
3.3159800682256932
  1
Fal
 50
92.81739578574661
  7
PLAT
 72
1
 11
234.59640250320314
 21
126.2252559127117
 31
0.0
100
AcDbText
 73
2
  0
TEXT
  5
24F
330
17
100
AcDbEntity
  8
PLAT-TEXT-LOWCONF
100
AcDbText
 10
810.9133559196365
 20
148.78425083443116
 30
0.0
 40
12.157736161542248
  1
d
 50
310.34809279923104
  7
PLAT
 72
1
 11
810.9133559196365
 21
148.78425083443116
 31
0.0
100
AcDbText
 73
2
  0
TEXT
  5
250
330
17
100
AcDbEntity
  8
PLAT-TEXT-LOWCONF
100
AcDbText
 10
25.913261439778125
 20
111.0928198891989
 30
0.0
 40
8.440676537301766
  1
th
 50
2.817395785746612
  7
PLAT
 72
1
 11
25.913261439778125
 21
111.0928198891989
 31
0.0
100
AcDbText
 73
2
  0
TEXT
  5
251
330
17
100
AcDbEntity
  8
PLAT-TEXT-LOWCONF
100
AcDbText
 10
428.8835907427774
 20
93.32330103406622
 30
0.0
 40
9.603604958780778
  1
2,91, 02061 NX
 50
71.20799189225039
  7
PLAT
 72
1
 11
428.8835907427774
 21
93.32330103406622
 31
0.0
100
AcDbText
 73
2
  0
TEXT
  5
252
330
17
100
AcDbEntity
  8
PLAT-TEXT-LOWCONF
100
AcDbText
 10
237.13313047178605
 20
118.97233225412569
 30
0.0
 40
7.536318336876576
  1
58%%d
 50
92.81739578574661
  7
PLAT
 72
1
 11
237.13313047178605
 21
118.97233225412569
 31
0.0
100
AcDbText
 73
2
  0
TEXT
  5
253
330
17
100
AcDbEntity
  8
PLAT-TEXT-LOWCONF
100
AcDbText
 10
462.4969741740513
 20
129.05699279049517
 30
0.0
 40
9.947940204677082
  1
So.
 50
2.817395785746612
  7
PLAT
 72
1
 11
462.4969741740513
 21
129.05699279049517
 31
0.0
100
AcDbText
 73
2
  0
TEXT
  5
254
330
17
100
AcDbEntity
  8
PLAT-TEXT-LOTNO
100
AcDbText
 10
207.97567094351592
 20
113.14137243139238
 30
0.0
 40
15.143594001242082
  1
23
 50
20.894926097572124
  7
PLAT
 72
1
 11
207.97567094351592
 21
113.14137243139238
 31
0.0
100
AcDbText
 73
2
  0
TEXT
  5
255
330
17
100
AcDbEntity
  8
PLAT-TEXT-LOWCONF
100
AcDbText
 10
935.3143018850676
 20
111.40925912313446
 30
0.0
 40
9.702146987259942
  1
W.6%%d38'392" HW.
 50
275.86783906879435
  7
PLAT
 72
1
 11
935.3143018850676
 21
111.40925912313446
 31
0.0
100
AcDbText
 73
2
  0
TEXT
  5
256
330
17
100
AcDbEntity
  8
PLAT-TEXT-LOTNO
100
AcDbText
 10
130.58602348207648
 20
106.58018388783165
 30
0.0
 40
12.71707452587031
  1
4
 50
30.52481053573507
  7
PLAT
 72
1
 11
130.58602348207648
 21
106.58018388783165
 31
0.0
100
AcDbText
 73
2
  0
TEXT
  5
257
330
17
100
AcDbEntity
  8
PLAT-TEXT-LOTNO
100
AcDbText
 10
309.9083623371316
 20
115.08901749769194
 30
0.0
 40
16.217357154420107
  1
22
 50
16.583685689324966
  7
PLAT
 72
1
 11
309.9083623371316
 21
115.08901749769194
 31
0.0
100
AcDbText
 73
2
  0
TEXT
  5
258
330
17
100
AcDbEntity
  8
PLAT-TEXT-LOWCONF
100
AcDbText
 10
524.5104284933366
 20
123.56401490714218
 30
0.0
 40
8.429857474542166
  1
94,
 50
89.86286122882245
  7
PLAT
 72
1
 11
524.5104284933366
 21
123.56401490714218
 31
0.0
100
AcDbText
 73
2
  0
TEXT
  5
259
330
17
100
AcDbEntity
  8
PLAT-TEXT-LOWCONF
100
AcDbText
 10
535.0242328701114
 20
130.61412377787246
 30
0.0
 40
6.330507402976324
  1
G
 50
92.81739578574661
  7
PLAT
 72
1
 11
535.0242328701114
 21
130.61412377787246
 31
0.0
100
AcDbText
 73
2
  0
TEXT
  5
25A
330
17
100
AcDbEntity
  8
PLAT-TEXT-LOWCONF
100
AcDbText
 10
493.12023469496694
 20
112.68039507235027
 30
0.0
 40
8.62547945302474
  1
yr ES"
 50
324.9598553950888
  7
PLAT
 72
1
 11
493.12023469496694
 21
112.68039507235027
 31
0.0
100
AcDbText
 73
2
  0
TEXT
  5
25B
330
17
100
AcDbEntity
  8
PLAT-TEXT-LOWCONF
100
AcDbText
 10
237.20194801126667
 20
110.75957445364546
 30
0.0
 40
9.646487471202018
  1
Se
 50
92.81739578574661
  7
PLAT
 72
1
 11
237.20194801126667
 21
110.75957445364546
 31
0.0
100
AcDbText
 73
2
  0
TEXT
  5
25C
330
17
100
AcDbEntity
  8
PLAT-TEXT-LOWCONF
100
AcDbText
 10
18.904658469188462
 20
100.18429465148333
 30
0.0
 40
7.536318336876576
  1
al
 50
2.817395785746612
  7
PLAT
 72
1
 11
18.904658469188462
 21
100.18429465148333
 31
0.0
100
AcDbText
 73
2
  0
TEXT
  5
25D
330
17
100
AcDbEntity
  8
PLAT-TEXT-LOWCONF
100
AcDbText
 10
1125.0537030716052
 20
145.34229182672163
 30
0.0
 40
10.89070858819185
  1
x
 50
295.0478510740938
  7
PLAT
 72
1
 11
1125.0537030716052
 21
145.34229182672163
 31
0.0
100
AcDbText
 73
2
  0
TEXT
  5
25E
330
17
100
AcDbEntity
  8
PLAT-TEXT-MISC
100
AcDbText
 10
235.65007801444875
 20
104.81452841395708
 30
0.0
 40
5.727601936026198
  1
Tot
 50
92.81739578574661
  7
PLAT
 72
1
 11
235.65007801444875
 21
104.81452841395708
 31
0.0
100
AcDbText
 73
2
  0
TEXT
  5
25F
330
17
100
AcDbEntity
  8
PLAT-TEXT-LOWCONF
100
AcDbText
 10
1269.6355232484093
 20
151.5218615968742
 30
0.0
 40
12.46115869385202
  1
oy
 50
26.209598494779357
  7
PLAT
 72
1
 11
1269.6355232484093
 21
151.5218615968742
 31
0.0
100
AcDbText
 73
2
  0
TEXT
  5
260
330
17
100
AcDbEntity
  8
PLAT-TEXT-LOTNO
100
AcDbText
 10
1193.7040655038259
 20
147.50176267947802
 30
0.0
 40
12.845692716081361
  1
43
 50
21.742213569466514
  7
PLAT
 72
1
 11
1193.7040655038259
 21
147.50176267947802
 31
0.0
100
AcDbText
 73
2
  0
TEXT
  5
261
330
17
100
AcDbEntity
  8
PLAT-TEXT-LOWCONF
100
AcDbText
 10
237.3339857602483
 20
97.85498817288106
 30
0.0
 40
7.033897114418138
  1
8
 50
2.817395785746612
  7
PLAT
 72
1
 11
237.3339857602483
 21
97.85498817288106
 31
0.0
100
AcDbText
 73
2
  0
TEXT
  5
262
330
17
100
AcDbEntity
  8
PLAT-TEXT-LOTNO
100
AcDbText
 10
391.43992867482933
 20
101.36618182859189
 30
0.0
 40
16.555398398869322
  1
7
 50
21.53081896106255
  7
PLAT
 72
1
 11
391.43992867482933
 21
101.36618182859189
 31
0.0
100
AcDbText
 73
2
  0
TEXT
  5
263
330
17
100
AcDbEntity
  8
PLAT-TEXT-LOWCONF
100
AcDbText
 10
132.99784840347763
 20
91.88196351263866
 30
0.0
 40
6.698949632779179
  1
8
 50
2.817395785746612
  7
PLAT
 72
1
 11
132.99784840347763
 21
91.88196351263866
 31
0.0
100
AcDbText
 73
2
  0
TEXT
  5
264
330
17
100
AcDbEntity
  8
PLAT-TEXT-LOTNO
100
AcDbText
 10
595.4895701246719
 20
106.44199388519121
 30
0.0
 40
14.95842776614227
  1
29
 50
359.19207431613546
  7
PLAT
 72
1
 11
595.4895701246719
 21
106.44199388519121
 31
0.0
100
AcDbText
 73
2
  0
TEXT
  5
265
330
17
100
AcDbEntity
  8
PLAT-TEXT-LOWCONF
100
AcDbText
 10
549.87953147086
 20
92.53159699735036
 30
0.0
 40
10.696007219345681
  1
TTR
 50
324.07395949439706
  7
PLAT
 72
1
 11
549.87953147086
 21
92.53159699735036
 31
0.0
100
AcDbText
 73
2
  0
TEXT
  5
266
330
17
100
AcDbEntity
  8
PLAT-TEXT-LOWCONF
100
AcDbText
 10
1154.6207170180207
 20
116.33654097781469
 30
0.0
 40
14.7684288496387
  1
ot
 50
92.82279409101392
  7
PLAT
 72
1
 11
1154.6207170180207
 21
116.33654097781469
 31
0.0
100
AcDbText
 73
2
  0
TEXT
  5
267
330
17
100
AcDbEntity
  8
PLAT-TEXT-LOTNO
100
AcDbText
 10
130.37012601117578
 20
75.61979632990845
 30
0.0
 40
14.257709905080313
  1
9
 50
33.23994249637883
  7
PLAT
 72
1
 11
130.37012601117578
 21
75.61979632990845
 31
0.0
100
AcDbText
 73
2
  0
TEXT
  5
268
330
17
100
AcDbEntity
  8
PLAT-TEXT-LOWCONF
100
AcDbText
 10
499.9098051129614
 20
61.265534608181014
 30
0.0
 40
11.956855042105978
  1
Rw2rseeae,
 50
62.47280051742695
  7
PLAT
 72
1
 11
499.9098051129614
 21
61.265534608181014
 31
0.0
100
AcDbText
 73
2
  0
TEXT
  5
269
330
17
100
AcDbEntity
  8
PLAT-TEXT-LOWCONF
100
AcDbText
 10
301.62967919422346
 20
78.69279707875859
 30
0.0
 40
9.269739275297832
  1
1.84%%d3140'
 50
355.30207128419477
  7
PLAT
 72
1
 11
301.62967919422346
 21
78.69279707875859
 31
0.0
100
AcDbText
 73
2
  0
TEXT
  5
26A
330
17
100
AcDbEntity
  8
PLAT-TEXT-LOWCONF
100
AcDbText
 10
1082.4283625661396
 20
110.94112729088243
 30
0.0
 40
7.557234499500662
  1
Be
 50
92.60767671087046
  7
PLAT
 72
1
 11
1082.4283625661396
 21
110.94112729088243
 31
0.0
100
AcDbText
 73
2
  0
TEXT
  5
26B
330
17
100
AcDbEntity
  8
PLAT-TEXT-LOWCONF
100
AcDbText
 10
1048.8206484089237
 20
112.46010697922424
 30
0.0
 40
10.209640357718476
  1
75%%d05:
 50
6.196920882604331
  7
PLAT
 72
1
 11
1048.8206484089237
 21
112.46010697922424
 31
0.0
100
AcDbText
 73
2
  0
TEXT
  5
26C
330
17
100
AcDbEntity
  8
PLAT-TEXT-LOWCONF
100
AcDbText
 10
1066.6598084943355
 20
114.6892759123367
 30
0.0
 40
6.6341245322804285
  1
Yet
 50
2.6076767108704644
  7
PLAT
 72
1
 11
1066.6598084943355
 21
114.6892759123367
 31
0.0
100
AcDbText
 73
2
  0
TEXT
  5
26D
330
17
100
AcDbEntity
  8
PLAT-TEXT-LOWCONF
100
AcDbText
 10
1073.6885507905504
 20
115.20403913246017
 30
0.0
 40
9.71347696752981
  1
2
 50
92.81739578574661
  7
PLAT
 72
1
 11
1073.6885507905504
 21
115.20403913246017
 31
0.0
100
AcDbText
 73
2
  0
TEXT
  5
26E
330
17
100
AcDbEntity
  8
PLAT-TEXT-LOWCONF
100
AcDbText
 10
248.65179679466831
 20
68.90091641805824
 30
0.0
 40
14.952055580363128
  1
s
 50
92.81739578574661
  7
PLAT
 72
1
 11
248.65179679466831
 21
68.90091641805824
 31
0.0
100
AcDbText
 73
2
  0
TEXT
  5
26F
330
17
100
AcDbEntity
  8
PLAT-TEXT-LOWCONF
100
AcDbText
 10
1028.5178448254856
 20
107.067159713015
 30
0.0
 40
9.136167876778247
  1
Sen,
 50
31.06965890625611
  7
PLAT
 72
1
 11
1028.5178448254856
 21
107.067159713015
 31
0.0
100
AcDbText
 73
2
  0
TEXT
  5
270
330
17
100
AcDbEntity
  8
PLAT-TEXT-LOWCONF
100
AcDbText
 10
893.3899817827164
 20
100.03106172120789
 30
0.0
 40
15.04188820148086
  1
‘7
 50
28.059065673558507
  7
PLAT
 72
1
 11
893.3899817827164
 21
100.03106172120789
 31
0.0
100
AcDbText
 73
2
  0
TEXT
  5
271
330
17
100
AcDbEntity
  8
PLAT-TEXT-LOWCONF
100
AcDbText
 10
205.60570345701876
 20
67.33593648111906
 30
0.0
 40
10.178597230929102
  1
80%%d
 50
15.373259660166639
  7
PLAT
 72
1
 11
205.60570345701876
 21
67.33593648111906
 31
0.0
100
AcDbText
 73
2
  0
TEXT
  5
272
330
17
100
AcDbEntity
  8
PLAT-TEXT-LOTNO
100
AcDbText
 10
466.2072651368993
 20
75.41905792371837
 30
0.0
 40
15.339906925411972
  1
8
 50
90.81614839630606
  7
PLAT
 72
1
 11
466.2072651368993
 21
75.41905792371837
 31
0.0
100
AcDbText
 73
2
  0
TEXT
  5
273
330
17
100
AcDbEntity
  8
PLAT-TEXT-LOWCONF
100
AcDbText
 10
168.46035075351767
 20
62.942377547878976
 30
0.0
 40
9.71347696752981
  1
4
 50
2.817395785746612
  7
PLAT
 72
1
 11
168.46035075351767
 21
62.942377547878976
 31
0.0
100
AcDbText
 73
2
  0
TEXT
  5
274
330
17
100
AcDbEntity
  8
PLAT-TEXT-LOWCONF
100
AcDbText
 10
764.5550371574934
 20
90.09789621259979
 30
0.0
 40
9.37852948589085
  1
4
 50
2.817395785746612
  7
PLAT
 72
1
 11
764.5550371574934
 21
90.09789621259979
 31
0.0
100
AcDbText
 73
2
  0
TEXT
  5
275
330
17
100
AcDbEntity
  8
PLAT-TEXT-LOTNO
100
AcDbText
 10
130.93988039123155
 20
48.52016989967123
 30
0.0
 40
16.613395089292364
  1
2
 50
2.817395785746612
  7
PLAT
 72
1
 11
130.93988039123155
 21
48.52016989967123
 31
0.0
100
AcDbText
 73
2
  0
TEXT
  5
276
330
17
100
AcDbEntity
  8
PLAT-TEXT-LOWCONF
100
AcDbText
 10
368.02885106416545
 20
69.07476195750519
 30
0.0
 40
7.536318336876576
  1
£24
 50
2.817395785746612
  7
PLAT
 72
1
 11
368.02885106416545
 21
69.07476195750519
 31
0.0
100
AcDbText
 73
2
  0
TEXT
  5
277
330
17
100
AcDbEntity
  8
PLAT-TEXT-LOWCONF
100
AcDbText
 10
582.5056673052766
 20
69.68150147435588
 30
0.0
 40
9.876901295239623
  1
TB
 50
324.9598553950888
  7
PLAT
 72
1
 11
582.5056673052766
 21
69.68150147435588
 31
0.0
100
AcDbText
 73
2
  0
TEXT
  5
278
330
17
100
AcDbEntity
  8
PLAT-TEXT-LOWCONF
100
AcDbText
 10
382.36655825745254
 20
65.46958012202509
 30
0.0
 40
8.92316702786399
  1
75%%dF
 50
344.97939054091677
  7
PLAT
 72
1
 11
382.36655825745254
 21
65.46958012202509
 31
0.0
100
AcDbText
 73
2
  0
TEXT
  5
279
330
17
100
AcDbEntity
  8
PLAT-TEXT-LOTNO
100
AcDbText
 10
51.49687516370534
 20
47.79643263518625
 30
0.0
 40
13.732846747197316
  1
4
 50
2.817395785746612
  7
PLAT
 72
1
 11
51.49687516370534
 21
47.79643263518625
 31
0.0
100
AcDbText
 73
2
  0
TEXT
  5
27A
330
17
100
AcDbEntity
  8
PLAT-TEXT-LOWCONF
100
AcDbText
 10
12.146958446802387
 20
46.698306794178905
 30
0.0
 40
9.646487471202018
  1
v 5S ‘
 50
92.81739578574661
  7
PLAT
 72
1
 11
12.146958446802387
 21
46.698306794178905
 31
0.0
100
AcDbText
 73
2
  0
TEXT
  5
27B
330
17
100
AcDbEntity
  8
PLAT-TEXT-LOWCONF
100
AcDbText
 10
987.0808659438101
 20
96.52168614993595
 30
0.0
 40
4.354317261306466
  1
4
 50
2.817395785746612
  7
PLAT
 72
1
 11
987.0808659438101
 21
96.52168614993595
 31
0.0
100
AcDbText
 73
2
  0
TEXT
  5
27C
330
17
100
AcDbEntity
  8
PLAT-TEXT-LOWCONF
100
AcDbText
 10
588.2787362497585
 20
74.0451356671267
 30
0.0
 40
4.689264742945425
  1
4
 50
2.817395785746612
  7
PLAT
 72
1
 11
588.2787362497585
 21
74.0451356671267
 31
0.0
100
AcDbText
 73
2
  0
TEXT
  5
27D
330
17
100
AcDbEntity
  8
PLAT-TEXT-LOWCONF
100
AcDbText
 10
1343.256470288759
 20
109.5227161926255
 30
0.0
 40
5.426149202551135
  1
m
 50
92.81739578574661
  7
PLAT
 72
1
 11
1343.256470288759
 21
109.5227161926255
 31
0.0
100
AcDbText
 73
2
  0
TEXT
  5
27E
330
17
100
AcDbEntity
  8
PLAT-TEXT-LOWCONF
100
AcDbText
 10
403.434178362759
 20
59.99878830585388
 30
0.0
 40
9.091850944755345
  1
140%,
 50
351.34956621393843
  7
PLAT
 72
1
 11
403.434178362759
 21
59.99878830585388
 31
0.0
100
AcDbText
 73
2
  0
TEXT
  5
27F
330
17
100
AcDbEntity
  8
PLAT-TEXT-LOWCONF
100
AcDbText
 10
834.7996006697349
 20
83.69337188047878
 30
0.0
 40
4.383274775503892
  1
M1
 50
325.08038226551474
  7
PLAT
 72
1
 11
834.7996006697349
 21
83.69337188047878
 31
0.0
100
AcDbText
 73
2
  0
TEXT
  5
280
330
17
100
AcDbEntity
  8
PLAT-TEXT-LOWCONF
100
AcDbText
 10
782.4013699365181
 20
78.4004275817537
 30
0.0
 40
6.330507402976324
  1
“Ss
 50
2.817395785746612
  7
PLAT
 72
1
 11
782.4013699365181
 21
78.4004275817537
 31
0.0
100
AcDbText
 73
2
  0
TEXT
  5
281
330
17
100
AcDbEntity
  8
PLAT-TEXT-UNASSOC
100
AcDbText
 10
925.4121006139353
 20
67.3619711140723
 30
0.0
 40
10.471191733552667
  1
25.18'
 50
275.86783906879435
  7
PLAT
 72
1
 11
925.4121006139353
 21
67.3619711140723
 31
0.0
100
AcDbText
 73
2
  0
TEXT
  5
282
330
17
100
AcDbEntity
  8
PLAT-TEXT-LOWCONF
100
AcDbText
 10
13.167378288245686
 20
36.18490987318043
 30
0.0
 40
9.71347696752981
  1
7:
 50
92.81739578574661
  7
PLAT
 72
1
 11
13.167378288245686
 21
36.18490987318043
 31
0.0
100
AcDbText
 73
2
  0
TEXT
  5
283
330
17
100
AcDbEntity
  8
PLAT-TEXT-LOWCONF
100
AcDbText
 10
968.22940764684
 20
79.77570144708183
 30
0.0
 40
9.95408315332596
  1
“By
 50
275.86783906879435
  7
PLAT
 72
1
 11
968.22940764684
 21
79.77570144708183
 31
0.0
100
AcDbText
 73
2
  0
TEXT
  5
284
330
17
100
AcDbEntity
  8
PLAT-TEXT-LOWCONF
100
AcDbText
 10
654.447973627662
 20
64.56179999844426
 30
0.0
 40
14.2307192920026
  1
30.
 50
4.327332927219629
  7
PLAT
 72
1
 11
654.447973627662
 21
64.56179999844426
 31
0.0
100
AcDbText
 73
2
  0
TEXT
  5
285
330
17
100
AcDbEntity
  8
PLAT-TEXT-LOWCONF
100
AcDbText
 10
336.37629161231763
 20
41.51798013644648
 30
0.0
 40
12.009958687480049
  1
tal
 50
78.64903321623223
  7
PLAT
 72
1
 11
336.37629161231763
 21
41.51798013644648
 31
0.0
100
AcDbText
 73
2
  0
TEXT
  5
286
330
17
100
AcDbEntity
  8
PLAT-TEXT-LOWCONF
100
AcDbText
 10
794.8332223967805
 20
70.48003632475556
 30
0.0
 40
7.7341971418231195
  1
"Zo
 50
341.690119499335
  7
PLAT
 72
1
 11
794.8332223967805
 21
70.48003632475556
 31
0.0
100
AcDbText
 73
2
  0
TEXT
  5
287
330
17
100
AcDbEntity
  8
PLAT-TABLE
100
AcDbText
 10
982.2086695227333
 20
68.05326190774753
 30
0.0
 40
14.636807208406736
  1
"92.45".
 50
26.304140924899343
  7
PLAT
 72
1
 11
982.2086695227333
 21
68.05326190774753
 31
0.0
100
AcDbText
 73
2
  0
TEXT
  5
288
330
17
100
AcDbEntity
  8
PLAT-TEXT-LOWCONF
100
AcDbText
 10
1017.772509146158
 20
57.51965372317082
 30
0.0
 40
14.952055580363128
  1
“on
 50
9.649741603837356
  7
PLAT
 72
1
 11
1017.772509146158
 21
57.51965372317082
 31
0.0
100
AcDbText
 73
2
  0
TEXT
  5
289
330
17
100
AcDbEntity
  8
PLAT-TEXT-LOWCONF
100
AcDbText
 10
959.6838043119051
 20
71.58723231022557
 30
0.0
 40
7.040078269105258
  1
yw
 50
5.867839068794353
  7
PLAT
 72
1
 11
959.6838043119051
 21
71.58723231022557
 31
0.0
100
AcDbText
 73
2
  0
TEXT
  5
28A
330
17
100
AcDbEntity
  8
PLAT-TEXT-LOWCONF
100
AcDbText
 10
444.5355516988628
 20
46.26284899734475
 30
0.0
 40
7.40234628398465
  1
299;
 50
349.73354340397293
  7
PLAT
 72
1
 11
444.5355516988628
 21
46.26284899734475
 31
0.0
100
AcDbText
 73
2
  0
TEXT
  5
28B
330
17
100
AcDbEntity
  8
PLAT-TEXT-LOWCONF
100
AcDbText
 10
131.64814693542553
 20
23.906592018025407
 30
0.0
 40
16.613395089292364
  1
‘4.
 50
92.81739578574661
  7
PLAT
 72
1
 11
131.64814693542553
 21
23.906592018025407
 31
0.0
100
AcDbText
 73
2
  0
TEXT
  5
28C
330
17
100
AcDbEntity
  8
PLAT-TEXT-LOWCONF
100
AcDbText
 10
456.22583413886923
 20
39.84853109397568
 30
0.0
 40
8.917419731059791
  1
56%%dF/ME
 50
336.4079445495138
  7
PLAT
 72
1
 11
456.22583413886923
 21
39.84853109397568
 31
0.0
100
AcDbText
 73
2
  0
TEXT
  5
28D
330
17
100
AcDbEntity
  8
PLAT-TEXT-LOWCONF
100
AcDbText
 10
597.1423269714112
 20
47.914382742044495
 30
0.0
 40
4.317688317343336
  1
t &
 50
55.40229544887421
  7
PLAT
 72
1
 11
597.1423269714112
 21
47.914382742044495
 31
0.0
100
AcDbText
 73
2
  0
TEXT
  5
28E
330
17
100
AcDbEntity
  8
PLAT-TEXT-MISC
100
AcDbText
 10
369.0605861634022
 20
30.509751204110955
 30
0.0
 40
12.429244909322424
  1
Curve
 50
344.97939054091677
  7
PLAT
 72
1
 11
369.0605861634022
 21
30.509751204110955
 31
0.0
100
AcDbText
 73
2
  0
TEXT
  5
28F
330
17
100
AcDbEntity
  8
PLAT-TEXT-AREA
100
AcDbText
 10
1107.5448513943552
 20
64.38747361287216
 30
0.0
 40
14.952055580363128
  1
‘Sf
 50
2.817395785746612
  7
PLAT
 72
1
 11
1107.5448513943552
 21
64.38747361287216
 31
0.0
100
AcDbText
 73
2
  0
TEXT
  5
290
330
17
100
AcDbEntity
  8
PLAT-TEXT-LOWCONF
100
AcDbText
 10
811.3208647518903
 20
56.34892980863748
 30
0.0
 40
5.727601936026198
  1
“a
 50
2.817395785746612
  7
PLAT
 72
1
 11
811.3208647518903
 21
56.34892980863748
 31
0.0
100
AcDbText
 73
2
  0
TEXT
  5
291
330
17
100
AcDbEntity
  8
PLAT-TEXT-LOTNO
100
AcDbText
 10
1171.1326441760777
 20
67.01375886113044
 30
0.0
 40
16.613395089292364
  1
7
 50
2.817395785746612
  7
PLAT
 72
1
 11
1171.1326441760777
 21
67.01375886113044
 31
0.0
100
AcDbText
 73
2
  0
TEXT
  5
292
330
17
100
AcDbEntity
  8
PLAT-TEXT-LOTNO
100
AcDbText
 10
1132.1995884756589
 20
64.25938361414609
 30
0.0
 40
16.613395089292364
  1
3
 50
2.817395785746612
  7
PLAT
 72
1
 11
1132.1995884756589
 21
64.25938361414609
 31
0.0
100
AcDbText
 73
2
  0
TEXT
  5
293
330
17
100
AcDbEntity
  8
PLAT-TEXT-LOTNO
100
AcDbText
 10
1151.2438221344423
 20
65.69962729210127
 30
0.0
 40
16.613395089292364
  1
3
 50
2.817395785746612
  7
PLAT
 72
1
 11
1151.2438221344423
 21
65.69962729210127
 31
0.0
100
AcDbText
 73
2
  0
TEXT
  5
294
330
17
100
AcDbEntity
  8
PLAT-TEXT-LOWCONF
100
AcDbText
 10
185.68381548984604
 20
17.301004846321433
 30
0.0
 40
11.771133585918493
  1
KS
 50
334.452167690358
  7
PLAT
 72
1
 11
185.68381548984604
 21
17.301004846321433
 31
0.0
100
AcDbText
 73
2
  0
TEXT
  5
295
330
17
100
AcDbEntity
  8
PLAT-TEXT-LOWCONF
100
AcDbText
 10
820.9628089333376
 20
52.51069840993415
 30
0.0
 40
5.967035355512315
  1
A
 50
354.37807763195985
  7
PLAT
 72
1
 11
820.9628089333376
 21
52.51069840993415
 31
0.0
100
AcDbText
 73
2
  0
TEXT
  5
296
330
17
100
AcDbEntity
  8
PLAT-TEXT-LOWCONF
100
AcDbText
 10
10.79067471854296
 20
12.928600650021849
 30
0.0
 40
3.684422298028548
  1
1
 50
2.817395785746612
  7
PLAT
 72
1
 11
10.79067471854296
 21
12.928600650021849
 31
0.0
100
AcDbText
 73
2
  0
TEXT
  5
297
330
17
100
AcDbEntity
  8
PLAT-TEXT-LOWCONF
100
AcDbText
 10
323.33934529956474
 20
22.18414535515612
 30
0.0
 40
10.092089375098887
  1
4:36%%d
 50
355.36141749788266
  7
PLAT
 72
1
 11
323.33934529956474
 21
22.18414535515612
 31
0.0
100
AcDbText
 73
2
  0
TEXT
  5
298
330
17
100
AcDbEntity
  8
PLAT-TEXT-MISC
100
AcDbText
 10
473.2767447635444
 20
32.67052266646917
 30
0.0
 40
5.727601936026198
  1
g ey
 50
92.81739578574661
  7
PLAT
 72
1
 11
473.2767447635444
 21
32.67052266646917
 31
0.0
100
AcDbText
 73
2
  0
TEXT
  5
299
330
17
100
AcDbEntity
  8
PLAT-TEXT-LOWCONF
100
AcDbText
 10
1274.446156481703
 20
69.57646834288369
 30
0.0
 40
10.08663479911425
  1
S-87%%d3S’3 0" WN.
 50
3.089960141321967
  7
PLAT
 72
1
 11
1274.446156481703
 21
69.57646834288369
 31
0.0
100
AcDbText
 73
2
  0
TEXT
  5
29A
330
17
100
AcDbEntity
  8
PLAT-TEXT-LOWCONF
100
AcDbText
 10
1042.560720413912
 20
60.305780675127465
 30
0.0
 40
3.910420478073678
  1
oe!
 50
13.74762886067839
  7
PLAT
 72
1
 11
1042.560720413912
 21
60.305780675127465
 31
0.0
100
AcDbText
 73
2
  0
TEXT
  5
29B
330
17
100
AcDbEntity
  8
PLAT-TEXT-LOTNO
100
AcDbText
 10
534.9286535414062
 20
30.480325148750524
 30
0.0
 40
14.329286257166164
  1
79
 50
17.48794202683166
  7
PLAT
 72
1
 11
534.9286535414062
 21
30.480325148750524
 31
0.0
100
AcDbText
 73
2
  0
TEXT
  5
29C
330
17
100
AcDbEntity
  8
PLAT-TEXT-LOWCONF
100
AcDbText
 10
1021.8186718741822
 20
48.50108201569853
 30
0.0
 40
10.427249825192689
  1
191710"
 50
22.357784688614743
  7
PLAT
 72
1
 11
1021.8186718741822
 21
48.50108201569853
 31
0.0
100
AcDbText
 73
2
  0
TEXT
  5
29D
330
17
100
AcDbEntity
  8
PLAT-TEXT-LOWCONF
100
AcDbText
 10
400.33866033440836
 20
21.85252382458455
 30
0.0
 40
16.613395089292364
  1
1?
 50
328.5162710887729
  7
PLAT
 72
1
 11
400.33866033440836
 21
21.85252382458455
 31
0.0
100
AcDbText
 73
2
  0
TEXT
  5
29E
330
17
100
AcDbEntity
  8
PLAT-TEXT-LOWCONF
100
AcDbText
 10
626.6808766380539
 20
18.20005745066365
 30
0.0
 40
11.750805100008138
  1
\--94—-f
 50
324.9598553950888
  7
PLAT
 72
1
 11
626.6808766380539
 21
18.20005745066365
 31
0.0
100
AcDbText
 73
2
  0
TEXT
  5
29F
330
17
100
AcDbEntity
  8
PLAT-TEXT-LOWCONF
100
AcDbText
 10
132.43050003900407
 20
-2.212427640876598
 30
0.0
 40
14.952055580363128
  1
M
 50
92.81739578574661
  7
PLAT
 72
1
 11
132.43050003900407
 21
-2.212427640876598
 31
0.0
100
AcDbText
 73
2
  0
TEXT
  5
2A0
330
17
100
AcDbEntity
  8
PLAT-TEXT-LOWCONF
100
AcDbText
 10
579.8809221911829
 20
30.035989519590203
 30
0.0
 40
6.029054669501261
  1
. 4
 50
92.81739578574661
  7
PLAT
 72
1
 11
579.8809221911829
 21
30.035989519590203
 31
0.0
100
AcDbText
 73
2
  0
TEXT
  5
2A1
330
17
100
AcDbEntity
  8
PLAT-TEXT-LOWCONF
100
AcDbText
 10
833.8316959814524
 20
41.86283730143239
 30
0.0
 40
6.029054669501261
  1
aa
 50
2.817395785746612
  7
PLAT
 72
1
 11
833.8316959814524
 21
41.86283730143239
 31
0.0
100
AcDbText
 73
2
  0
TEXT
  5
2A2
330
17
100
AcDbEntity
  8
PLAT-TEXT-LOWCONF
100
AcDbText
 10
1043.8483527008084
 20
34.98237452905903
 30
0.0
 40
14.952055580363128
  1
ed
 50
0.3265371970597224
  7
PLAT
 72
1
 11
1043.8483527008084
 21
34.98237452905903
 31
0.0
100
AcDbText
 73
2
  0
TEXT
  5
2A3
330
17
100
AcDbEntity
  8
PLAT-TEXT-LOWCONF
100
AcDbText
 10
846.2783736155998
 20
35.08096517985891
 30
0.0
 40
8.213435446915668
  1
"605
 50
342.030992355607
  7
PLAT
 72
1
 11
846.2783736155998
 21
35.08096517985891
 31
0.0
100
AcDbText
 73
2
  0
TEXT
  5
2A4
330
17
100
AcDbEntity
  8
PLAT-TEXT-LOWCONF
100
AcDbText
 10
246.76439122110992
 20
8.444521969794295
 30
0.0
 40
3.3159800682256932
  1
i
 50
2.817395785746612
  7
PLAT
 72
1
 11
246.76439122110992
 21
8.444521969794295
 31
0.0
100
AcDbText
 73
2
  0
TEXT
  5
2A5
330
17
100
AcDbEntity
  8
PLAT-TEXT-LOWCONF
100
AcDbText
 10
435.4902302551283
 20
10.755221203000616
 30
0.0
 40
12.307887785231514
  1
ep
 50
336.4079445495138
  7
PLAT
 72
1
 11
435.4902302551283
 21
10.755221203000616
 31
0.0
100
AcDbText
 73
2
  0
TEXT
  5
2A6
330
17
100
AcDbEntity
  8
PLAT-TEXT-LOWCONF
100
AcDbText
 10
387.4943562830543
 20
8.144261061800705
 30
0.0
 40
12.640577270383059
  1
,00
 50
328.5162710887729
  7
PLAT
 72
1
 11
387.4943562830543
 21
8.144261061800705
 31
0.0
100
AcDbText
 73
2
  0
TEXT
  5
2A7
330
17
100
AcDbEntity
  8
PLAT-TEXT-LOWCONF
100
AcDbText
 10
1002.9571464398841
 20
36.26878150008616
 30
0.0
 40
9.947940204677082
  1
of
 50
2.817395785746612
  7
PLAT
 72
1
 11
1002.9571464398841
 21
36.26878150008616
 31
0.0
100
AcDbText
 73
2
  0
TEXT
  5
2A8
330
17
100
AcDbEntity
  8
PLAT-TEXT-LOWCONF
100
AcDbText
 10
169.97895705118884
 20
-5.394866593648999
 30
0.0
 40
9.345034737726953
  1
J
 50
2.817395785746612
  7
PLAT
 72
1
 11
169.97895705118884
 21
-5.394866593648999
 31
0.0
100
AcDbText
 73
2
  0
TEXT
  5
2A9
330
17
100
AcDbEntity
  8
PLAT-TEXT-LOWCONF
100
AcDbText
 10
356.5515782360722
 20
-0.017529132623081978
 30
0.0
 40
8.946743185612464
  1
ya
 50
347.58559954227127
  7
PLAT
 72
1
 11
356.5515782360722
 21
-0.017529132623081978
 31
0.0
100
AcDbText
 73
2
  0
TEXT
  5
2AA
330
17
100
AcDbEntity
  8
PLAT-TEXT-LOWCONF
100
AcDbText
 10
403.43675143099523
 20
6.829690272129824
 30
0.0
 40
4.434567060031808
  1
+ ga’
 50
328.5162710887729
  7
PLAT
 72
1
 11
403.43675143099523
 21
6.829690272129824
 31
0.0
100
AcDbText
 73
2
  0
TEXT
  5
2AB
330
17
100
AcDbEntity
  8
PLAT-TEXT-LOWCONF
100
AcDbText
 10
996.170474837372
 20
31.072176274022127
 30
0.0
 40
12.058109339002522
  1
6
 50
2.817395785746612
  7
PLAT
 72
1
 11
996.170474837372
 21
31.072176274022127
 31
0.0
100
AcDbText
 73
2
  0
TEXT
  5
2AC
330
17
100
AcDbEntity
  8
PLAT-TEXT-LOWCONF
100
AcDbText
 10
246.91289264995476
 20
-4.794606928138137
 30
0.0
 40
3.3494748163895895
  1
. 4
 50
2.817395785746612
  7
PLAT
 72
1
 11
246.91289264995476
 21
-4.794606928138137
 31
0.0
100
AcDbText
 73
2
  0
TEXT
  5
2AD
330
17
100
AcDbEntity
  8
PLAT-TEXT-LOWCONF
100
AcDbText
 10
659.244775570841
 20
10.750584264111865
 30
0.0
 40
14.952055580363128
  1
id
 50
324.9598553950888
  7
PLAT
 72
1
 11
659.244775570841
 21
10.750584264111865
 31
0.0
100
AcDbText
 73
2
  0
TEXT
  5
2AE
330
17
100
AcDbEntity
  8
PLAT-TEXT-LOWCONF
100
AcDbText
 10
521.3777800065856
 20
5.861998313767771
 30
0.0
 40
7.120828677807207
  1
Whe
 50
331.3565094106639
  7
PLAT
 72
1
 11
521.3777800065856
 21
5.861998313767771
 31
0.0
100
AcDbText
 73
2
  0
TEXT
  5
2AF
330
17
100
AcDbEntity
  8
PLAT-TEXT-LOWCONF
100
AcDbText
 10
1093.2619203754882
 20
34.3412016570976
 30
0.0
 40
2.7130746012755673
  1
a
 50
2.817395785746612
  7
PLAT
 72
1
 11
1093.2619203754882
 21
34.3412016570976
 31
0.0
100
AcDbText
 73
2
  0
TEXT
  5
2B0
330
17
100
AcDbEntity
  8
PLAT-TEXT-LOWCONF
100
AcDbText
 10
385.21460174373567
 20
-7.359698539151623
 30
0.0
 40
9.539286205417515
  1
450
 50
348.3554079666493
  7
PLAT
 72
1
 11
385.21460174373567
 21
-7.359698539151623
 31
0.0
100
AcDbText
 73
2
  0
TEXT
  5
2B1
330
17
100
AcDbEntity
  8
PLAT-TEXT-LOWCONF
100
AcDbText
 10
430.2156076502194
 20
-6.533180010947007
 30
0.0
 40
9.500474646349458
  1
4.27
 50
343.6172612987796
  7
PLAT
 72
1
 11
430.2156076502194
 21
-6.533180010947007
 31
0.0
100
AcDbText
 73
2
  0
TEXT
  5
2B2
330
17
100
AcDbEntity
  8
PLAT-TEXT-LOWCONF
100
AcDbText
 10
538.0491849081682
 20
-1.33761701613642
 30
0.0
 40
10.690482477065036
  1
os
 50
353.2310575710674
  7
PLAT
 72
1
 11
538.0491849081682
 21
-1.33761701613642
 31
0.0
100
AcDbText
 73
2
  0
TEXT
  5
2B3
330
17
100
AcDbEntity
  8
PLAT-TEXT-LOWCONF
100
AcDbText
 10
985.9662895700064
 20
21.47778680777867
 30
0.0
 40
9.109508477665544
  1
RY
 50
320.1257585943016
  7
PLAT
 72
1
 11
985.9662895700064
 21
21.47778680777867
 31
0.0
100
AcDbText
 73
2
  0
TEXT
  5
2B4
330
17
100
AcDbEntity
  8
PLAT-TABLE
100
AcDbText
 10
311.72558837780736
 20
-13.034301332427646
 30
0.0
 40
8.969747947938226
  1
89,76 *
 50
354.9272459418617
  7
PLAT
 72
1
 11
311.72558837780736
 21
-13.034301332427646
 31
0.0
100
AcDbText
 73
2
  0
TEXT
  5
2B5
330
17
100
AcDbEntity
  8
PLAT-TEXT-LOWCONF
100
AcDbText
 10
1274.879018954025
 20
33.86522495290939
 30
0.0
 40
7.508989540364774
  1
75%%d
 50
3.089960141321967
  7
PLAT
 72
1
 11
1274.879018954025
 21
33.86522495290939
 31
0.0
100
AcDbText
 73
2
  0
TEXT
  5
2B6
330
17
100
AcDbEntity
  8
PLAT-TEXT-LOWCONF
100
AcDbText
 10
1314.6800702112175
 20
36.015540234628304
 30
0.0
 40
7.837771070351639
  1
i
 50
2.817395785746612
  7
PLAT
 72
1
 11
1314.6800702112175
 21
36.015540234628304
 31
0.0
100
AcDbText
 73
2
  0
TEXT
  5
2B7
330
17
100
AcDbEntity
  8
PLAT-TEXT-LOWCONF
100
AcDbText
 10
1056.3004385323707
 20
22.39934522365499
 30
0.0
 40
7.078819224110575
  1
sOV ~
 50
5.393472716164524
  7
PLAT
 72
1
 11
1056.3004385323707
 21
22.39934522365499
 31
0.0
100
AcDbText
 73
2
  0
TEXT
  5
2B8
330
17
100
AcDbEntity
  8
PLAT-TEXT-LOWCONF
100
AcDbText
 10
1111.7525058071326
 20
25.432549732120577
 30
0.0
 40
10.58150707955855
  1
TNE.
 50
355.25960167795495
  7
PLAT
 72
1
 11
1111.7525058071326
 21
25.432549732120577
 31
0.0
100
AcDbText
 73
2
  0
TEXT
  5
2B9
330
17
100
AcDbEntity
  8
PLAT-TEXT-LOWCONF
100
AcDbText
 10
98.25175147239804
 20
-25.970302628841154
 30
0.0
 40
5.727443588464002
  1
oe
 50
330.68047287300396
  7
PLAT
 72
1
 11
98.25175147239804
 21
-25.970302628841154
 31
0.0
100
AcDbText
 73
2
  0
TEXT
  5
2BA
330
17
100
AcDbEntity
  8
PLAT-TEXT-LOWCONF
100
AcDbText
 10
1345.6507923735446
 20
37.13822951315714
 30
0.0
 40
6.635876237366402
  1
N
 50
293.14253020155286
  7
PLAT
 72
1
 11
1345.6507923735446
 21
37.13822951315714
 31
0.0
100
AcDbText
 73
2
  0
TEXT
  5
2BB
330
17
100
AcDbEntity
  8
PLAT-TEXT-LOWCONF
100
AcDbText
 10
55.16686268074352
 20
-27.151845606338583
 30
0.0
 40
5.985659301330672
  1
ai
 50
4.412684097343572
  7
PLAT
 72
1
 11
55.16686268074352
 21
-27.151845606338583
 31
0.0
100
AcDbText
 73
2
  0
TEXT
  5
2BC
330
17
100
AcDbEntity
  8
PLAT-TEXT-LOWCONF
100
AcDbText
 10
999.6314750781708
 20
18.666769409057906
 30
0.0
 40
4.521791002125946
  1
a
 50
92.81739578574661
  7
PLAT
 72
1
 11
999.6314750781708
 21
18.666769409057906
 31
0.0
100
AcDbText
 73
2
  0
CIRCLE
  5
2BD
330
17
100
AcDbEntity
  8
PLAT-QA
100
AcDbCircle
 10
255.91852069200678
 20
367.55506064930677
 30
0.0
 40
25.272790284291588
  0
TEXT
  5
2BE
330
17
100
AcDbEntity
  8
PLAT-QA
100
AcDbText
 10
255.91852069200678
 20
344.01561954219403
 30
0.0
 40
6.341180945237504
  1
MEAS 54.71
 72
1
 11
255.91852069200678
 21
344.01561954219403
 31
0.0
100
AcDbText
 73
3
  0
CIRCLE
  5
2BF
330
17
100
AcDbEntity
  8
PLAT-QA
100
AcDbCircle
 10
162.20376249816138
 20
362.9281589717975
 30
0.0
 40
23.423503958843252
  0
TEXT
  5
2C0
330
17
100
AcDbEntity
  8
PLAT-QA
100
AcDbText
 10
162.20376249816138
 20
339.48194129037876
 30
0.0
 40
6.341180945237504
  1
MEAS 53.34
 72
1
 11
162.20376249816138
 21
339.48194129037876
 31
0.0
100
AcDbText
 73
3
  0
CIRCLE
  5
2C1
330
17
100
AcDbEntity
  8
PLAT-QA
100
AcDbCircle
 10
87.27061191979567
 20
353.2195161924002
 30
0.0
 40
23.26393993110605
  0
TEXT
  5
2C2
330
17
100
AcDbEntity
  8
PLAT-QA
100
AcDbText
 10
87.27061191979567
 20
328.34151351795606
 30
0.0
 40
6.341180945237504
  1
MEAS 63.03
 72
1
 11
87.27061191979567
 21
328.34151351795606
 31
0.0
100
AcDbText
 73
3
  0
CIRCLE
  5
2C3
330
17
100
AcDbEntity
  8
PLAT-QA
100
AcDbCircle
 10
3.4756434499238367
 20
348.10140501680894
 30
0.0
 40
23.273485042486385
  0
TEXT
  5
2C4
330
17
100
AcDbEntity
  8
PLAT-QA
100
AcDbText
 10
3.4756434499238367
 20
322.8791026841984
 30
0.0
 40
6.341180945237504
  1
MEAS 133.53
 72
1
 11
3.4756434499238367
 21
322.8791026841984
 31
0.0
100
AcDbText
 73
3
  0
CIRCLE
  5
2C5
330
17
100
AcDbEntity
  8
PLAT-QA
100
AcDbCircle
 10
738.2790172588691
 20
346.5472765432787
 30
0.0
 40
33.15783326427785
  0
TEXT
  5
2C6
330
17
100
AcDbEntity
  8
PLAT-QA
100
AcDbText
 10
738.2790172588691
 20
321.5900021606249
 30
0.0
 40
6.341180945237504
  1
MEAS 51.72
 72
1
 11
738.2790172588691
 21
321.5900021606249
 31
0.0
100
AcDbText
 73
3
  0
CIRCLE
  5
2C7
330
17
100
AcDbEntity
  8
PLAT-QA
100
AcDbCircle
 10
778.742847335672
 20
275.04064628027027
 30
0.0
 40
19.248974387051554
  0
TEXT
  5
2C8
330
17
100
AcDbEntity
  8
PLAT-QA
100
AcDbText
 10
778.742847335672
 20
250.15528627587707
 30
0.0
 40
6.341180945237504
  1
MEAS 27.80
 72
1
 11
778.742847335672
 21
250.15528627587707
 31
0.0
100
AcDbText
 73
3
  0
CIRCLE
  5
2C9
330
17
100
AcDbEntity
  8
PLAT-QA
100
AcDbCircle
 10
837.8095883251087
 20
277.8563630238423
 30
0.0
 40
27.097823491427206
  0
TEXT
  5
2CA
330
17
100
AcDbEntity
  8
PLAT-QA
100
AcDbText
 10
837.8095883251087
 20
253.25331762309258
 30
0.0
 40
6.341180945237504
  1
MEAS 87.43
 72
1
 11
837.8095883251087
 21
253.25331762309258
 31
0.0
100
AcDbText
 73
3
  0
CIRCLE
  5
2CB
330
17
100
AcDbEntity
  8
PLAT-QA
100
AcDbCircle
 10
374.0546274230767
 20
165.6815059472291
 30
0.0
 40
41.47283704596348
  0
TEXT
  5
2CC
330
17
100
AcDbEntity
  8
PLAT-QA
100
AcDbText
 10
374.0546274230767
 20
140.40804692076455
 30
0.0
 40
6.341180945237504
  1
MEAS 24.77
 72
1
 11
374.0546274230767
 21
140.40804692076455
 31
0.0
100
AcDbText
 73
3
  0
CIRCLE
  5
2CD
330
17
100
AcDbEntity
  8
PLAT-QA
100
AcDbCircle
 10
941.6552822822488
 20
195.07047401918027
 30
0.0
 40
31.297183246484835
  0
TEXT
  5
2CE
330
17
100
AcDbEntity
  8
PLAT-QA
100
AcDbText
 10
941.6552822822488
 20
170.40138423059096
 30
0.0
 40
6.341180945237504
  1
MEAS 176.33
 72
1
 11
941.6552822822488
 21
170.40138423059096
 31
0.0
100
AcDbText
 73
3
  0
CIRCLE
  5
2CF
330
17
100
AcDbEntity
  8
PLAT-QA
100
AcDbCircle
 10
451.20954372463575
 20
146.05547611080166
 30
0.0
 40
34.8917814382589
  0
TEXT
  5
2D0
330
17
100
AcDbEntity
  8
PLAT-QA
100
AcDbText
 10
451.20954372463575
 20
121.30913953526827
 30
0.0
 40
6.341180945237504
  1
MEAS 26.81
 72
1
 11
451.20954372463575
 21
121.30913953526827
 31
0.0
100
AcDbText
 73
3
  0
CIRCLE
  5
2D1
330
17
100
AcDbEntity
  8
PLAT-QA
100
AcDbCircle
 10
306.4532599514516
 20
64.42507548935143
 30
0.0
 40
32.186734677450616
  0
TEXT
  5
2D2
330
17
100
AcDbEntity
  8
PLAT-QA
100
AcDbText
 10
306.4532599514516
 20
40.18936569705273
 30
0.0
 40
6.341180945237504
  1
MEAS 68.63
 72
1
 11
306.4532599514516
 21
40.18936569705273
 31
0.0
100
AcDbText
 73
3
  0
CIRCLE
  5
2D3
330
17
100
AcDbEntity
  8
PLAT-QA
100
AcDbCircle
 10
808.5375157954551
 20
13.852906829875337
 30
0.0
 40
22.18778854035765
  0
TEXT
  5
2D4
330
17
100
AcDbEntity
  8
PLAT-QA
100
AcDbText
 10
808.5375157954551
 20
-9.373025340474825
 30
0.0
 40
6.341180945237504
  1
MEAS 59.05
 72
1
 11
808.5375157954551
 21
-9.373025340474825
 31
0.0
100
AcDbText
 73
3
  0
CIRCLE
  5
2D5
330
17
100
AcDbEntity
  8
PLAT-QA
100
AcDbCircle
 10
506.7823745198859
 20
-1.6792005422001068
 30
0.0
 40
28.05009529912926
  0
TEXT
  5
2D6
330
17
100
AcDbEntity
  8
PLAT-QA
100
AcDbText
 10
506.7823745198859
 20
-25.757998532092664
 30
0.0
 40
6.341180945237504
  1
MEAS 26.37
 72
1
 11
506.7823745198859
 21
-25.757998532092664
 31
0.0
100
AcDbText
 73
3
  0
ENDSEC
  0
SECTION
  2
OBJECTS
  0
DICTIONARY
  5
A
330
0
100
AcDbDictionary
281
1
  3
ACAD_COLOR
350
B
  3
ACAD_GROUP
350
C
  3
ACAD_LAYOUT
350
D
  3
ACAD_MATERIAL
350
E
  3
ACAD_MLEADERSTYLE
350
F
  3
ACAD_MLINESTYLE
350
10
  3
ACAD_PLOTSETTINGS
350
11
  3
ACAD_PLOTSTYLENAME
350
12
  3
ACAD_SCALELIST
350
14
  3
ACAD_TABLESTYLE
350
15
  3
ACAD_VISUALSTYLE
350
16
  3
EZDXF_META
350
2D
  0
DICTIONARY
  5
B
330
A
100
AcDbDictionary
281
1
  0
DICTIONARY
  5
C
330
A
100
AcDbDictionary
281
1
  0
DICTIONARY
  5
D
330
A
100
AcDbDictionary
281
1
  3
Model
350
1A
  3
Layout1
350
1E
  0
DICTIONARY
  5
E
330
A
100
AcDbDictionary
281
1
  3
ByBlock
350
1F
  3
ByLayer
350
20
  3
Global
350
21
  0
DICTIONARY
  5
F
330
A
100
AcDbDictionary
281
1
  3
Standard
350
2C
  0
DICTIONARY
  5
10
330
A
100
AcDbDictionary
281
1
  3
Standard
350
22
  0
DICTIONARY
  5
11
330
A
100
AcDbDictionary
281
1
  0
ACDBDICTIONARYWDFLT
  5
12
330
A
100
AcDbDictionary
281
1
  3
Normal
350
13
100
AcDbDictionaryWithDefault
340
13
  0
ACDBPLACEHOLDER
  5
13
330
12
  0
DICTIONARY
  5
14
330
A
100
AcDbDictionary
281
1
  0
DICTIONARY
  5
15
330
A
100
AcDbDictionary
281
1
  0
DICTIONARY
  5
16
330
A
100
AcDbDictionary
281
1
  3
2dWireframe
350
5A
  3
Basic
350
5B
  3
Brighten
350
5C
  3
ColorChange
350
5D
  3
Conceptual
350
5E
  3
Dim
350
5F
  3
EdgeColorOff
350
60
  3
Facepattern
350
61
  3
Flat
350
62
  3
FlatWithEdges
350
63
  3
Gouraud
350
64
  3
GouraudWithEdges
350
65
  3
Hidden
350
66
  3
JitterOff
350
67
  3
Linepattern
350
68
  3
Modeling
350
69
  3
OverhangOff
350
6A
  3
Realistic
350
6B
  3
Shaded
350
6C
  3
Shaded with edges
350
6D
  3
Shades of Gray
350
6E
  3
Sketchy
350
6F
  3
Thicken
350
70
  3
Wireframe
350
71
  3
X-Ray
350
72
  0
LAYOUT
  5
1A
330
D
100
AcDbPlotSettings
  1

  4
A3
  6

 40
7.5
 41
20.0
 42
7.5
 43
20.0
 44
420.0
 45
297.0
 46
0.0
 47
0.0
 48
0.0
 49
0.0
140
0.0
141
0.0
142
1.0
143
1.0
 70
1024
 72
1
 73
0
 74
5
  7

 75
16
 76
0
 77
2
 78
300
147
1.0
148
0.0
149
0.0
100
AcDbLayout
  1
Model
 70
1
 71
0
 10
0.0
 20
0.0
 11
420.0
 21
297.0
 12
0.0
 22
0.0
 32
0.0
 14
1e+20
 24
1e+20
 34
1e+20
 15
-1e+20
 25
-1e+20
 35
-1e+20
146
0.0
 13
0.0
 23
0.0
 33
0.0
 16
1.0
 26
0.0
 36
0.0
 17
0.0
 27
1.0
 37
0.0
 76
1
330
17
  0
LAYOUT
  5
1E
330
D
100
AcDbPlotSettings
  1

  4
A3
  6

 40
7.5
 41
20.0
 42
7.5
 43
20.0
 44
420.0
 45
297.0
 46
0.0
 47
0.0
 48
0.0
 49
0.0
140
0.0
141
0.0
142
1.0
143
1.0
 70
0
 72
1
 73
0
 74
5
  7

 75
16
 76
0
 77
2
 78
300
147
1.0
148
0.0
149
0.0
100
AcDbLayout
  1
Layout1
 70
1
 71
1
 10
0.0
 20
0.0
 11
420.0
 21
297.0
 12
0.0
 22
0.0
 32
0.0
 14
1e+20
 24
1e+20
 34
1e+20
 15
-1e+20
 25
-1e+20
 35
-1e+20
146
0.0
 13
0.0
 23
0.0
 33
0.0
 16
1.0
 26
0.0
 36
0.0
 17
0.0
 27
1.0
 37
0.0
 76
1
330
1B
  0
MATERIAL
  5
1F
102
{ACAD_REACTORS
330
E
102
}
330
E
100
AcDbMaterial
  1
ByBlock
  2

 70
0
 40
1.0
 71
1
 41
1.0
 91
-1023410177
 42
1.0
 72
1
  3

 73
1
 74
1
 75
1
 44
0.5
 73
0
 45
1.0
 46
1.0
 77
1
  4

 78
1
 79
1
170
1
 48
1.0
171
1
  6

172
1
173
1
174
1
140
1.0
141
1.0
175
1
  7

176
1
177
1
178
1
143
1.0
179
1
  8

270
1
271
1
272
1
145
1.0
146
1.0
273
1
  9

274
1
275
1
276
1
 42
1.0
 72
1
  3

 73
1
 74
1
 75
1
 94
63
  0
MATERIAL
  5
20
102
{ACAD_REACTORS
330
E
102
}
330
E
100
AcDbMaterial
  1
ByLayer
  2

 70
0
 40
1.0
 71
1
 41
1.0
 91
-1023410177
 42
1.0
 72
1
  3

 73
1
 74
1
 75
1
 44
0.5
 73
0
 45
1.0
 46
1.0
 77
1
  4

 78
1
 79
1
170
1
 48
1.0
171
1
  6

172
1
173
1
174
1
140
1.0
141
1.0
175
1
  7

176
1
177
1
178
1
143
1.0
179
1
  8

270
1
271
1
272
1
145
1.0
146
1.0
273
1
  9

274
1
275
1
276
1
 42
1.0
 72
1
  3

 73
1
 74
1
 75
1
 94
63
  0
MATERIAL
  5
21
102
{ACAD_REACTORS
330
E
102
}
330
E
100
AcDbMaterial
  1
Global
  2

 70
0
 40
1.0
 71
1
 41
1.0
 91
-1023410177
 42
1.0
 72
1
  3

 73
1
 74
1
 75
1
 44
0.5
 73
0
 45
1.0
 46
1.0
 77
1
  4

 78
1
 79
1
170
1
 48
1.0
171
1
  6

172
1
173
1
174
1
140
1.0
141
1.0
175
1
  7

176
1
177
1
178
1
143
1.0
179
1
  8

270
1
271
1
272
1
145
1.0
146
1.0
273
1
  9

274
1
275
1
276
1
 42
1.0
 72
1
  3

 73
1
 74
1
 75
1
 94
63
  0
MLINESTYLE
  5
22
102
{ACAD_REACTORS
330
10
102
}
330
10
100
AcDbMlineStyle
  2
Standard
 70
0
  3

 62
256
 51
90.0
 52
90.0
 71
2
 49
0.5
 62
256
  6
BYLAYER
 49
-0.5
 62
256
  6
BYLAYER
  0
MLEADERSTYLE
  5
2C
102
{ACAD_REACTORS
330
F
102
}
330
F
100
AcDbMLeaderStyle
179
2
170
2
171
1
172
0
 90
2
 40
0.0
 41
0.0
173
1
 91
-1056964608
 92
-2
290
1
 42
2.0
291
1
 43
8.0
  3
Standard
 44
4.0
300

342
29
174
1
175
1
176
0
178
1
 93
-1056964608
 45
4.0
292
0
297
0
 46
4.0
 94
-1056964608
 47
1.0
 49
1.0
140
1.0
294
1
141
0.0
177
0
142
1.0
295
0
296
0
143
3.75
271
0
272
9
273
9
  0
DICTIONARY
  5
2D
330
A
100
AcDbDictionary
280
1
281
1
  3
CREATED_BY_EZDXF
350
2E
  3
WRITTEN_BY_EZDXF
350
2D9
  0
DICTIONARYVAR
  5
2E
330
2D
100
DictionaryVariables
280
0
  1
1.4.4 @ 2026-09-24T07:00:06.453856+00:00
  0
VISUALSTYLE
  5
5A
102
{ACAD_REACTORS
330
16
102
}
330
16
100
AcDbVisualStyle
  2
2dWireframe
 70
4
 90
0
 40
0.6
 62
7
290
0
291
0
  0
VISUALSTYLE
  5
5B
102
{ACAD_REACTORS
330
16
102
}
330
16
100
AcDbVisualStyle
  2
Basic
 70
7
 90
1
 40
0.6
 62
7
290
0
291
1
  0
VISUALSTYLE
  5
5C
102
{ACAD_REACTORS
330
16
102
}
330
16
100
AcDbVisualStyle
  2
Brighten
 70
12
 90
2
 40
0.6
 62
7
290
0
291
1
  0
VISUALSTYLE
  5
5D
102
{ACAD_REACTORS
330
16
102
}
330
16
100
AcDbVisualStyle
  2
ColorChange
 70
16
 90
2
 40
0.6
 62
8
290
0
291
1
  0
VISUALSTYLE
  5
5E
102
{ACAD_REACTORS
330
16
102
}
330
16
100
AcDbVisualStyle
  2
Conceptual
 70
9
 90
3
 40
0.6
 62
7
290
0
291
0
  0
VISUALSTYLE
  5
5F
102
{ACAD_REACTORS
330
16
102
}
330
16
100
AcDbVisualStyle
  2
Dim
 70
11
 90
2
 40
0.6
 62
7
290
0
291
1
  0
VISUALSTYLE
  5
60
102
{ACAD_REACTORS
330
16
102
}
330
16
100
AcDbVisualStyle
  2
EdgeColorOff
 70
22
 90
2
 40
0.6
 62
7
290
0
291
1
  0
VISUALSTYLE
  5
61
102
{ACAD_REACTORS
330
16
102
}
330
16
100
AcDbVisualStyle
  2
Facepattern
 70
15
 90
2
 40
0.6
 62
7
290
0
291
1
  0
VISUALSTYLE
  5
62
102
{ACAD_REACTORS
330
16
102
}
330
16
100
AcDbVisualStyle
  2
Flat
 70
0
 90
2
 40
0.6
 62
7
290
0
291
1
  0
VISUALSTYLE
  5
63
102
{ACAD_REACTORS
330
16
102
}
330
16
100
AcDbVisualStyle
  2
FlatWithEdges
 70
1
 90
2
 40
0.6
 62
7
290
0
291
1
  0
VISUALSTYLE
  5
64
102
{ACAD_REACTORS
330
16
102
}
330
16
100
AcDbVisualStyle
  2
Gouraud
 70
2
 90
2
 40
0.6
 62
7
290
0
291
1
  0
VISUALSTYLE
  5
65
102
{ACAD_REACTORS
330
16
102
}
330
16
100
AcDbVisualStyle
  2
GouraudWithEdges
 70
3
 90
2
 40
0.6
 62
7
290
0
291
1
  0
VISUALSTYLE
  5
66
102
{ACAD_REACTORS
330
16
102
}
330
16
100
AcDbVisualStyle
  2
Hidden
 70
6
 90
1
 40
0.6
 62
7
290
0
291
0
  0
VISUALSTYLE
  5
67
102
{ACAD_REACTORS
330
16
102
}
330
16
100
AcDbVisualStyle
  2
JitterOff
 70
20
 90
2
 40
0.6
 62
7
290
0
291
1
  0
VISUALSTYLE
  5
68
102
{ACAD_REACTORS
330
16
102
}
330
16
100
AcDbVisualStyle
  2
Linepattern
 70
14
 90
2
 40
0.6
 62
7
290
0
291
1
  0
VISUALSTYLE
  5
69
102
{ACAD_REACTORS
330
16
102
}
330
16
100
AcDbVisualStyle
  2
Modeling
 70
10
 90
2
 40
0.6
 62
7
290
0
291
0
  0
VISUALSTYLE
  5
6A
102
{ACAD_REACTORS
330
16
102
}
330
16
100
AcDbVisualStyle
  2
OverhangOff
 70
21
 90
2
 40
0.6
 62
7
290
0
291
1
  0
VISUALSTYLE
  5
6B
102
{ACAD_REACTORS
330
16
102
}
330
16
100
AcDbVisualStyle
  2
Realistic
 70
8
 90
2
 40
0.6
 62
7
290
0
291
0
  0
VISUALSTYLE
  5
6C
102
{ACAD_REACTORS
330
16
102
}
330
16
100
AcDbVisualStyle
  2
Shaded
 70
27
 90
2
 40
0.6
 62
7
290
0
291
0
  0
VISUALSTYLE
  5
6D
102
{ACAD_REACTORS
330
16
102
}
330
16
100
AcDbVisualStyle
  2
Shaded with edges
 70
26
 90
2
 40
0.6
 62
7
290
0
291
0
  0
VISUALSTYLE
  5
6E
102
{ACAD_REACTORS
330
16
102
}
330
16
100
AcDbVisualStyle
  2
Shades of Gray
 70
23
 90
2
 40
0.6
 62
7
290
0
291
0
  0
VISUALSTYLE
  5
6F
102
{ACAD_REACTORS
330
16
102
}
330
16
100
AcDbVisualStyle
  2
Sketchy
 70
24
 90
1
 40
0.6
 62
7
290
0
291
0
  0
VISUALSTYLE
  5
70
102
{ACAD_REACTORS
330
16
102
}
330
16
100
AcDbVisualStyle
  2
Thicken
 70
13
 90
2
 40
0.6
 62
7
290
0
291
1
  0
VISUALSTYLE
  5
71
102
{ACAD_REACTORS
330
16
102
}
330
16
100
AcDbVisualStyle
  2
Wireframe
 70
5
 90
0
 40
0.6
 62
7
290
0
291
0
  0
VISUALSTYLE
  5
72
102
{ACAD_REACTORS
330
16
102
}
330
16
100
AcDbVisualStyle
  2
X-Ray
 70
25
 90
2
 40
0.5
 62
7
290
0
291
0
  0
DICTIONARYVAR
  5
2D9
330
2D
100
DictionaryVariables
280
0
  1
1.4.4 @ 2026-09-24T07:00:06.500090+00:00
  0
ENDSEC
  0
EOF
