  0
SECTION
  2
HEADER
  9
$ACADVER
  1
AC1024
  9
$ACADMAINTVER
 70
6
  9
$DWGCODEPAGE
  3
ANSI_1252
  9
$LASTSAVEDBY
  1
ezdxf
  9
$INSBASE
 10
0.0
 20
0.0
 30
0.0
  9
$EXTMIN
 10
1e+20
 20
1e+20
 30
1e+20
  9
$EXTMAX
 10
-1e+20
 20
-1e+20
 30
-1e+20
  9
$LIMMIN
 10
0.0
 20
0.0
  9
$LIMMAX
 10
420.0
 20
297.0
  9
$ORTHOMODE
 70
0
  9
$REGENMODE
 70
1
  9
$FILLMODE
 70
1
  9
$QTEXTMODE
 70
0
  9
$MIRRTEXT
 70
1
  9
$LTSCALE
 40
1.0
  9
$ATTMODE
 70
1
  9
$TEXTSIZE
 40
2.5
  9
$TRACEWID
 40
1.0
  9
$TEXTSTYLE
  7
OpenSans
  9
$CLAYER
  8
0
  9
$CELTYPE
  6
ByLayer
  9
$CECOLOR
 62
256
  9
$CELTSCALE
 40
1.0
  9
$DISPSILH
 70
0
  9
$DIMSCALE
 40
1.0
  9
$DIMASZ
 40
0.175
  9
$DIMEXO
 40
0.125
  9
$DIMDLI
 40
3.75
  9
$DIMRND
 40
0.0
  9
$DIMDLE
 40
0.0
  9
$DIMEXE
 40
0.375
  9
$DIMTP
 40
0.0
  9
$DIMTM
 40
0.0
  9
$DIMTXT
 40
0.25
  9
$DIMCEN
 40
2.5
  9
$DIMTSZ
 40
0.0
  9
$DIMTOL
 70
0
  9
$DIMLIM
 70
0
  9
$DIMTIH
 70
0
  9
$DIMTOH
 70
0
  9
$DIMSE1
 70
0
  9
$DIMSE2
 70
0
  9
$DIMTAD
 70
1
  9
$DIMZIN
 70
12
  9
$DIMBLK
  1
ARCHTICK
  9
$DIMASO
 70
1
  9
$DIMSHO
 70
1
  9
$DIMPOST
  1

  9
$DIMAPOST
  1

  9
$DIMALT
 70
0
  9
$DIMALTD
 70
3
  9
$DIMALTF
 40
0.03937007874
  9
$DIMLFAC
 40
100.0
  9
$DIMTOFL
 70
1
  9
$DIMTVP
 40
0.0
  9
$DIMTIX
 70
0
  9
$DIMSOXD
 70
0
  9
$DIMSAH
 70
0
  9
$DIMBLK1
  1

  9
$DIMBLK2
  1

  9
$DIMSTYLE
  2
EZDXF
  9
$DIMCLRD
 70
0
  9
$DIMCLRE
 70
0
  9
$DIMCLRT
 70
0
  9
$DIMTFAC
 40
0.5
  9
$DIMGAP
 40
0.1
  9
$DIMJUST
 70
0
  9
$DIMSD1
 70
0
  9
$DIMSD2
 70
0
  9
$DIMTOLJ
 70
0
  9
$DIMTZIN
 70
8
  9
$DIMALTZ
 70
0
  9
$DIMALTTZ
 70
0
  9
$DIMUPT
 70
1
  9
$DIMDEC
 70
2
  9
$DIMTDEC
 70
2
  9
$DIMALTU
 70
2
  9
$DIMALTTD
 70
3
  9
$DIMTXSTY
  7
OpenSansCondensed-Light
  9
$DIMAUNIT
 70
0
  9
$DIMADEC
 70
2
  9
$DIMALTRND
 40
0.0
  9
$DIMAZIN
 70
3
  9
$DIMDSEP
 70
46
  9
$DIMATFIT
 70
3
  9
$DIMFRAC
 70
0
  9
$DIMLDRBLK
  1

  9
$DIMLUNIT
 70
2
  9
$DIMLWD
 70
-2
  9
$DIMLWE
 70
-2
  9
$DIMTMOVE
 70
2
  9
$DIMFXL
 40
1.0
  9
$DIMFXLON
 70
0
  9
$DIMJOGANG
 40
0.785398163397
  9
$DIMTFILL
 70
0
  9
$DIMTFILLCLR
 70
0
  9
$DIMARCSYM
 70
0
  9
$DIMLTYPE
  6

  9
$DIMLTEX1
  6

  9
$DIMLTEX2
  6

  9
$DIMTXTDIRECTION
 70
0
  9
$LUNITS
 70
2
  9
$LUPREC
 70
4
  9
$SKETCHINC
 40
1.0
  9
$FILLETRAD
 40
10.0
  9
$AUNITS
 70
0
  9
$AUPREC
 70
2
  9
$MENU
  1
.
  9
$ELEVATION
 40
0.0
  9
$PELEVATION
 40
0.0
  9
$THICKNESS
 40
0.0
  9
$LIMCHECK
 70
0
  9
$CHAMFERA
 40
0.0
  9
$CHAMFERB
 40
0.0
  9
$CHAMFERC
 40
0.0
  9
$CHAMFERD
 40
0.0
  9
$SKPOLY
 70
0
  9
$TDCREATE
 40
2461308.125590278
  9
$TDUCREATE
 40
2458532.153996898
  9
$TDUPDATE
 40
2461308.125590278
  9
$TDUUPDATE
 40
2458532.1544311
  9
$TDINDWG
 40
0.0
  9
$TDUSRTIMER
 40
0.0
  9
$USRTIMER
 70
1
  9
$ANGBASE
 50
0.0
  9
$ANGDIR
 70
0
  9
$PDMODE
 70
0
  9
$PDSIZE
 40
0.0
  9
$PLINEWID
 40
0.0
  9
$SPLFRAME
 70
0
  9
$SPLINETYPE
 70
6
  9
$SPLINESEGS
 70
8
  9
$HANDSEED
  5
14F
  9
$SURFTAB1
 70
6
  9
$SURFTAB2
 70
6
  9
$SURFTYPE
 70
6
  9
$SURFU
 70
6
  9
$SURFV
 70
6
  9
$UCSBASE
  2

  9
$UCSNAME
  2

  9
$UCSORG
 10
0.0
 20
0.0
 30
0.0
  9
$UCSXDIR
 10
1.0
 20
0.0
 30
0.0
  9
$UCSYDIR
 10
0.0
 20
1.0
 30
0.0
  9
$UCSORTHOREF
  2

  9
$UCSORTHOVIEW
 70
0
  9
$UCSORGTOP
 10
0.0
 20
0.0
 30
0.0
  9
$UCSORGBOTTOM
 10
0.0
 20
0.0
 30
0.0
  9
$UCSORGLEFT
 10
0.0
 20
0.0
 30
0.0
  9
$UCSORGRIGHT
 10
0.0
 20
0.0
 30
0.0
  9
$UCSORGFRONT
 10
0.0
 20
0.0
 30
0.0
  9
$UCSORGBACK
 10
0.0
 20
0.0
 30
0.0
  9
$PUCSBASE
  2

  9
$PUCSNAME
  2

  9
$PUCSORG
 10
0.0
 20
0.0
 30
0.0
  9
$PUCSXDIR
 10
1.0
 20
0.0
 30
0.0
  9
$PUCSYDIR
 10
0.0
 20
1.0
 30
0.0
  9
$PUCSORTHOREF
  2

  9
$PUCSORTHOVIEW
 70
0
  9
$PUCSORGTOP
 10
0.0
 20
0.0
 30
0.0
  9
$PUCSORGBOTTOM
 10
0.0
 20
0.0
 30
0.0
  9
$PUCSORGLEFT
 10
0.0
 20
0.0
 30
0.0
  9
$PUCSORGRIGHT
 10
0.0
 20
0.0
 30
0.0
  9
$PUCSORGFRONT
 10
0.0
 20
0.0
 30
0.0
  9
$PUCSORGBACK
 10
0.0
 20
0.0
 30
0.0
  9
$USERI1
 70
0
  9
$USERI2
 70
0
  9
$USERI3
 70
0
  9
$USERI4
 70
0
  9
$USERI5
 70
0
  9
$USERR1
 40
0.0
  9
$USERR2
 40
0.0
  9
$USERR3
 40
0.0
  9
$USERR4
 40
0.0
  9
$USERR5
 40
0.0
  9
$WORLDVIEW
 70
1
  9
$SHADEDGE
 70
3
  9
$SHADEDIF
 70
70
  9
$TILEMODE
 70
1
  9
$MAXACTVP
 70
64
  9
$PINSBASE
 10
0.0
 20
0.0
 30
0.0
  9
$PLIMCHECK
 70
0
  9
$PEXTMIN
 10
1e+20
 20
1e+20
 30
1e+20
  9
$PEXTMAX
 10
-1e+20
 20
-1e+20
 30
-1e+20
  9
$PLIMMIN
 10
0.0
 20
0.0
  9
$PLIMMAX
 10
420.0
 20
297.0
  9
$UNITMODE
 70
0
  9
$VISRETAIN
 70
1
  9
$PLINEGEN
 70
0
  9
$PSLTSCALE
 70
1
  9
$TREEDEPTH
 70
3020
  9
$CMLSTYLE
  2
Standard
  9
$CMLJUST
 70
0
  9
$CMLSCALE
 40
20.0
  9
$PROXYGRAPHICS
 70
1
  9
$MEASUREMENT
 70
0
  9
$CELWEIGHT
370
-1
  9
$ENDCAPS
280
0
  9
$JOINSTYLE
280
0
  9
$LWDISPLAY
290
0
  9
$INSUNITS
 70
2
  9
$HYPERLINKBASE
  1

  9
$STYLESHEET
  1

  9
$XEDIT
290
1
  9
$CEPSNTYPE
380
0
  9
$PSTYLEMODE
290
1
  9
$FINGERPRINTGUID
  2
{F112C9A4-B156-41BC-B84D-F88A7080F575}
  9
$VERSIONGUID
  2
{487C25A1-00D8-4181-AD7E-3CCD266C9EAC}
  9
$EXTNAMES
290
1
  9
$PSVPSCALE
 40
0.0
  9
$OLESTARTUP
290
0
  9
$SORTENTS
280
127
  9
$INDEXCTL
280
0
  9
$HIDETEXT
280
1
  9
$XCLIPFRAME
280
1
  9
$HALOGAP
280
0
  9
$OBSCOLOR
 70
257
  9
$OBSLTYPE
280
0
  9
$INTERSECTIONDISPLAY
280
0
  9
$INTERSECTIONCOLOR
 70
257
  9
$DIMASSOC
280
2
  9
$PROJECTNAME
  1

  9
$CAMERADISPLAY
290
0
  9
$LENSLENGTH
 40
50.0
  9
$CAMERAHEIGHT
 40
0.0
  9
$STEPSPERSEC
 40
24.0
  9
$STEPSIZE
 40
100.0
  9
$3DDWFPREC
 40
2.0
  9
$PSOLWIDTH
 40
0.005
  9
$PSOLHEIGHT
 40
0.08
  9
$LOFTANG1
 40
1.570796326795
  9
$LOFTANG2
 40
1.570796326795
  9
$LOFTMAG1
 40
0.0
  9
$LOFTMAG2
 40
0.0
  9
$LOFTPARAM
 70
7
  9
$LOFTNORMALS
280
1
  9
$LATITUDE
 40
37.795
  9
$LONGITUDE
 40
-122.394
  9
$NORTHDIRECTION
 40
0.0
  9
$TIMEZONE
 70
-8000
  9
$LIGHTGLYPHDISPLAY
280
1
  9
$TILEMODELIGHTSYNCH
280
1
  9
$CMATERIAL
347
20
  9
$SOLIDHIST
280
0
  9
$SHOWHIST
280
1
  9
$DWFFRAME
280
2
  9
$DGNFRAME
280
2
  9
$REALWORLDSCALE
290
1
  9
$INTERFERECOLOR
 62
256
  9
$CSHADOW
280
0
  9
$SHADOWPLANELOCATION
 40
0.0
  0
ENDSEC
  0
SECTION
  2
CLASSES
  0
CLASS
  1
ACDBDICTIONARYWDFLT
  2
AcDbDictionaryWithDefault
  3
ObjectDBX Classes
 90
0
 91
0
280
0
281
0
  0
CLASS
  1
SUN
  2
AcDbSun
  3
SCENEOE
 90
1153
 91
0
280
0
281
0
  0
CLASS
  1
VISUALSTYLE
  2
AcDbVisualStyle
  3
ObjectDBX Classes
 90
4095
 91
0
280
0
281
0
  0
CLASS
  1
MATERIAL
  2
AcDbMaterial
  3
ObjectDBX Classes
 90
1153
 91
0
280
0
281
0
  0
CLASS
  1
SCALE
  2
AcDbScale
  3
ObjectDBX Classes
 90
1153
 91
0
280
0
281
0
  0
CLASS
  1
TABLESTYLE
  2
AcDbTableStyle
  3
ObjectDBX Classes
 90
4095
 91
0
280
0
281
0
  0
CLASS
  1
MLEADERSTYLE
  2
AcDbMLeaderStyle
  3
ACDB_MLEADERSTYLE_CLASS
 90
4095
 91
0
280
0
281
0
  0
CLASS
  1
DICTIONARYVAR
  2
AcDbDictionaryVar
  3
ObjectDBX Classes
 90
0
 91
0
280
0
281
0
  0
CLASS
  1
CELLSTYLEMAP
  2
AcDbCellStyleMap
  3
ObjectDBX Classes
 90
1152
 91
0
280
0
281
0
  0
CLASS
  1
MENTALRAYRENDERSETTINGS
  2
AcDbMentalRayRenderSettings
  3
SCENEOE
 90
1024
 91
0
280
0
281
0
  0
CLASS
  1
ACDBDETAILVIEWSTYLE
  2
AcDbDetailViewStyle
  3
ObjectDBX Classes
 90
1025
 91
0
280
0
281
0
  0
CLASS
  1
ACDBSECTIONVIEWSTYLE
  2
AcDbSectionViewStyle
  3
ObjectDBX Classes
 90
1025
 91
0
280
0
281
0
  0
CLASS
  1
RASTERVARIABLES
  2
AcDbRasterVariables
  3
ISM
 90
0
 91
0
280
0
281
0
  0
CLASS
  1
LAYOUT
  2
AcDbLayout
  3
ObjectDBX Classes
 90
0
 91
0
280
0
281
0
  0
CLASS
  1
ACDBPLACEHOLDER
  2
AcDbPlaceHolder
  3
ObjectDBX Classes
 90
0
 91
0
280
0
281
0
  0
ENDSEC
  0
SECTION
  2
TABLES
  0
TABLE
  2
VPORT
  5
8
330
0
100
AcDbSymbolTable
 70
1
  0
VPORT
  5
23
330
8
100
AcDbSymbolTableRecord
100
AcDbViewportTableRecord
  2
*Active
 70
0
 10
0.0
 20
0.0
 11
1.0
 21
1.0
 12
0.0
 22
0.0
 13
0.0
 23
0.0
 14
0.5
 24
0.5
 15
0.5
 25
0.5
 16
0.0
 26
0.0
 36
1.0
 17
0.0
 27
0.0
 37
0.0
 40
1000.0
 41
1.34
 42
50.0
 43
0.0
 44
0.0
 50
0.0
 51
0.0
 71
0
 72
1000
 73
1
 74
3
 75
0
 76
0
 77
0
 78
0
281
0
 65
0
146
0.0
  0
ENDTAB
  0
TABLE
  2
LTYPE
  5
2
330
0
100
AcDbSymbolTable
 70
21
  0
LTYPE
  5
24
330
2
100
AcDbSymbolTableRecord
100
AcDbLinetypeTableRecord
  2
ByBlock
 70
0
  3

 72
65
 73
0
 40
0.0
  0
LTYPE
  5
25
330
2
100
AcDbSymbolTableRecord
100
AcDbLinetypeTableRecord
  2
ByLayer
 70
0
  3

 72
65
 73
0
 40
0.0
  0
LTYPE
  5
26
330
2
100
AcDbSymbolTableRecord
100
AcDbLinetypeTableRecord
  2
Continuous
 70
0
  3

 72
65
 73
0
 40
0.0
  0
LTYPE
  5
2F
330
2
100
AcDbSymbolTableRecord
100
AcDbLinetypeTableRecord
  2
CENTER
 70
0
  3
Center ____ _ ____ _ ____ _ ____ _ ____ _ ____
 72
65
 73
4
 40
5.08
 49
3.175
 74
0
 49
-0.635
 74
0
 49
0.635
 74
0
 49
-0.635
 74
0
  0
LTYPE
  5
30
330
2
100
AcDbSymbolTableRecord
100
AcDbLinetypeTableRecord
  2
CENTERX2
 70
0
  3
Center (2x) ________  __  ________  __  ________
 72
65
 73
4
 40
8.89
 49
6.35
 74
0
 49
-0.635
 74
0
 49
1.27
 74
0
 49
-0.635
 74
0
  0
LTYPE
  5
31
330
2
100
AcDbSymbolTableRecord
100
AcDbLinetypeTableRecord
  2
CENTER2
 70
0
  3
Center (.5x) ____ _ ____ _ ____ _ ____ _ ____
 72
65
 73
4
 40
2.54
 49
1.587
 74
0
 49
-0.318
 74
0
 49
0.318
 74
0
 49
-0.318
 74
0
  0
LTYPE
  5
32
330
2
100
AcDbSymbolTableRecord
100
AcDbLinetypeTableRecord
  2
DASHED
 70
0
  3
Dashed __ __ __ __ __ __ __ __ __ __ __ __ __ _
 72
65
 73
2
 40
1.524
 49
1.27
 74
0
 49
-0.254
 74
0
  0
LTYPE
  5
33
330
2
100
AcDbSymbolTableRecord
100
AcDbLinetypeTableRecord
  2
DASHEDX2
 70
0
  3
Dashed (2x) ____  ____  ____  ____  ____  ____
 72
65
 73
2
 40
3.048
 49
2.54
 74
0
 49
-0.508
 74
0
  0
LTYPE
  5
34
330
2
100
AcDbSymbolTableRecord
100
AcDbLinetypeTableRecord
  2
DASHED2
 70
0
  3
Dashed (.5x) _ _ _ _ _ _ _ _ _ _ _ _ _ _
 72
65
 73
2
 40
0.762
 49
0.635
 74
0
 49
-0.127
 74
0
  0
LTYPE
  5
35
330
2
100
AcDbSymbolTableRecord
100
AcDbLinetypeTableRecord
  2
PHANTOM
 70
0
  3
Phantom ______  __  __  ______  __  __  ______
 72
65
 73
6
 40
6.35
 49
3.175
 74
0
 49
-0.635
 74
0
 49
0.635
 74
0
 49
-0.635
 74
0
 49
0.635
 74
0
 49
-0.635
 74
0
  0
LTYPE
  5
36
330
2
100
AcDbSymbolTableRecord
100
AcDbLinetypeTableRecord
  2
PHANTOMX2
 70
0
  3
Phantom (2x)____________    ____    ____    ____________
 72
65
 73
6
 40
10.795
 49
6.35
 74
0
 49
-0.635
 74
0
 49
1.27
 74
0
 49
-0.635
 74
0
 49
1.27
 74
0
 49
-0.635
 74
0
  0
LTYPE
  5
37
330
2
100
AcDbSymbolTableRecord
100
AcDbLinetypeTableRecord
  2
PHANTOM2
 70
0
  3
Phantom (.5x) ___ _ _ ___ _ _ ___ _ _ ___ _ _ ___
 72
65
 73
6
 40
3.175
 49
1.587
 74
0
 49
-0.318
 74
0
 49
0.318
 74
0
 49
-0.318
 74
0
 49
0.318
 74
0
 49
-0.318
 74
0
  0
LTYPE
  5
38
330
2
100
AcDbSymbolTableRecord
100
AcDbLinetypeTableRecord
  2
DASHDOT
 70
0
  3
Dash dot __ . __ . __ . __ . __ . __ . __ . __
 72
65
 73
4
 40
3.556
 49
2.54
 74
0
 49
-0.508
 74
0
 49
0.0
 74
0
 49
-0.508
 74
0
  0
LTYPE
  5
39
330
2
100
AcDbSymbolTableRecord
100
AcDbLinetypeTableRecord
  2
DASHDOTX2
 70
0
  3
Dash dot (2x) ____  .  ____  .  ____  .  ____
 72
65
 73
4
 40
6.096
 49
5.08
 74
0
 49
-0.508
 74
0
 49
0.0
 74
0
 49
-0.508
 74
0
  0
LTYPE
  5
3A
330
2
100
AcDbSymbolTableRecord
100
AcDbLinetypeTableRecord
  2
DASHDOT2
 70
0
  3
Dash dot (.5x) _ . _ . _ . _ . _ . _ . _ . _
 72
65
 73
4
 40
1.778
 49
1.27
 74
0
 49
-0.254
 74
0
 49
0.0
 74
0
 49
-0.254
 74
0
  0
LTYPE
  5
3B
330
2
100
AcDbSymbolTableRecord
100
AcDbLinetypeTableRecord
  2
DOT
 70
0
  3
Dot .  .  .  .  .  .  .  .  .  .  .  .  .  .  .  .
 72
65
 73
2
 40
0.508
 49
0.0
 74
0
 49
-0.508
 74
0
  0
LTYPE
  5
3C
330
2
100
AcDbSymbolTableRecord
100
AcDbLinetypeTableRecord
  2
DOTX2
 70
0
  3
Dot (2x) .    .    .    .    .    .    .    . 
 72
65
 73
2
 40
1.016
 49
0.0
 74
0
 49
-1.016
 74
0
  0
LTYPE
  5
3D
330
2
100
AcDbSymbolTableRecord
100
AcDbLinetypeTableRecord
  2
DOT2
 70
0
  3
Dot (.5) . . . . . . . . . . . . . . . . . . . 
 72
65
 73
2
 40
0.254
 49
0.0
 74
0
 49
-0.254
 74
0
  0
LTYPE
  5
3E
330
2
100
AcDbSymbolTableRecord
100
AcDbLinetypeTableRecord
  2
DIVIDE
 70
0
  3
Divide __ . . __ . . __ . . __ . . __ . . __
 72
65
 73
6
 40
4.064
 49
2.54
 74
0
 49
-0.508
 74
0
 49
0.0
 74
0
 49
-0.508
 74
0
 49
0.0
 74
0
 49
-0.508
 74
0
  0
LTYPE
  5
3F
330
2
100
AcDbSymbolTableRecord
100
AcDbLinetypeTableRecord
  2
DIVIDEX2
 70
0
  3
Divide (2x) ____  . .  ____  . .  ____  . .  ____
 72
65
 73
6
 40
6.604
 49
5.08
 74
0
 49
-0.508
 74
0
 49
0.0
 74
0
 49
-0.508
 74
0
 49
0.0
 74
0
 49
-0.508
 74
0
  0
LTYPE
  5
40
330
2
100
AcDbSymbolTableRecord
100
AcDbLinetypeTableRecord
  2
DIVIDE2
 70
0
  3
Divide(.5x) _ . _ . _ . _ . _ . _ . _ . _
 72
65
 73
6
 40
2.032
 49
1.27
 74
0
 49
-0.254
 74
0
 49
0.0
 74
0
 49
-0.254
 74
0
 49
0.0
 74
0
 49
-0.254
 74
0
  0
ENDTAB
  0
TABLE
  2
LAYER
  5
1
330
0
100
AcDbSymbolTable
 70
18
  0
LAYER
  5
27
330
1
100
AcDbSymbolTableRecord
100
AcDbLayerTableRecord
  2
0
 70
0
 62
7
  6
Continuous
370
-3
390
13
347
21
  0
LAYER
  5
28
330
1
100
AcDbSymbolTableRecord
100
AcDbLayerTableRecord
  2
Defpoints
 70
0
 62
7
  6
Continuous
290
0
370
-3
390
13
347
21
  0
LAYER
  5
8B
330
1
100
AcDbSymbolTableRecord
100
AcDbLayerTableRecord
  2
PLAT-LINE
 70
0
 62
7
  6
CONTINUOUS
370
-3
390
13
347
21
  0
LAYER
  5
8C
330
1
100
AcDbSymbolTableRecord
100
AcDbLayerTableRecord
  2
PLAT-LINE-DASH
 70
0
 62
8
  6
DASHED
370
-3
390
13
347
21
  0
LAYER
  5
8D
330
1
100
AcDbSymbolTableRecord
100
AcDbLayerTableRecord
  2
PLAT-CURVE
 70
0
 62
4
  6
CONTINUOUS
370
-3
390
13
347
21
  0
LAYER
  5
8E
330
1
100
AcDbSymbolTableRecord
100
AcDbLayerTableRecord
  2
PLAT-TEXT-BRG
 70
0
 62
3
  6
CONTINUOUS
370
-3
390
13
347
21
  0
LAYER
  5
8F
330
1
100
AcDbSymbolTableRecord
100
AcDbLayerTableRecord
  2
PLAT-TEXT-DIST
 70
0
 62
2
  6
CONTINUOUS
370
-3
390
13
347
21
  0
LAYER
  5
90
330
1
100
AcDbSymbolTableRecord
100
AcDbLayerTableRecord
  2
PLAT-TEXT-CURVE
 70
0
 62
6
  6
CONTINUOUS
370
-3
390
13
347
21
  0
LAYER
  5
91
330
1
100
AcDbSymbolTableRecord
100
AcDbLayerTableRecord
  2
PLAT-TEXT-LOTNO
 70
0
 62
5
  6
CONTINUOUS
370
-3
390
13
347
21
  0
LAYER
  5
92
330
1
100
AcDbSymbolTableRecord
100
AcDbLayerTableRecord
  2
PLAT-TEXT-AREA
 70
0
 62
5
  6
CONTINUOUS
370
-3
390
13
347
21
  0
LAYER
  5
93
330
1
100
AcDbSymbolTableRecord
100
AcDbLayerTableRecord
  2
PLAT-TEXT-MISC
 70
0
 62
9
  6
CONTINUOUS
370
-3
390
13
347
21
  0
LAYER
  5
94
330
1
100
AcDbSymbolTableRecord
100
AcDbLayerTableRecord
  2
PLAT-TEXT-UNASSOC
 70
0
 62
30
  6
CONTINUOUS
370
-3
390
13
347
21
  0
LAYER
  5
95
330
1
100
AcDbSymbolTableRecord
100
AcDbLayerTableRecord
  2
PLAT-TABLE-CURVE
 70
0
 62
6
  6
CONTINUOUS
370
-3
390
13
347
21
  0
LAYER
  5
96
330
1
100
AcDbSymbolTableRecord
100
AcDbLayerTableRecord
  2
PLAT-TABLE
 70
0
 62
6
  6
CONTINUOUS
370
-3
390
13
347
21
  0
LAYER
  5
97
330
1
100
AcDbSymbolTableRecord
100
AcDbLayerTableRecord
  2
PLAT-NOTES
 70
0
 62
7
  6
CONTINUOUS
370
-3
390
13
347
21
  0
LAYER
  5
98
330
1
100
AcDbSymbolTableRecord
100
AcDbLayerTableRecord
  2
PLAT-QA
 70
0
 62
1
  6
CONTINUOUS
370
-3
390
13
347
21
  0
LAYER
  5
99
330
1
100
AcDbSymbolTableRecord
100
AcDbLayerTableRecord
  2
PLAT-MON
 70
0
 62
1
  6
CONTINUOUS
370
-3
390
13
347
21
  0
LAYER
  5
9A
330
1
100
AcDbSymbolTableRecord
100
AcDbLayerTableRecord
  2
PLAT-TEXT-LOWCONF
 70
1
 62
8
  6
CONTINUOUS
370
-3
390
13
347
21
  0
ENDTAB
  0
TABLE
  2
STYLE
  5
5
330
0
100
AcDbSymbolTable
 70
27
  0
STYLE
  5
29
330
5
100
AcDbSymbolTableRecord
100
AcDbTextStyleTableRecord
  2
Standard
 70
0
 40
0.0
 41
1.0
 50
0.0
 71
0
 42
2.5
  3
txt
  4

  0
STYLE
  5
41
330
5
100
AcDbSymbolTableRecord
100
AcDbTextStyleTableRecord
  2
OpenSans-Light
 70
0
 40
0.0
 41
1.0
 50
0.0
 71
0
 42
2.5
  3
OpenSans-Light.ttf
  4

  0
STYLE
  5
42
330
5
100
AcDbSymbolTableRecord
100
AcDbTextStyleTableRecord
  2
OpenSans-Light-Italic
 70
0
 40
0.0
 41
1.0
 50
0.0
 71
0
 42
2.5
  3
OpenSans-LightItalic.ttf
  4

  0
STYLE
  5
43
330
5
100
AcDbSymbolTableRecord
100
AcDbTextStyleTableRecord
  2
OpenSans
 70
0
 40
0.0
 41
1.0
 50
0.0
 71
0
 42
2.5
  3
OpenSans-Regular.ttf
  4

  0
STYLE
  5
44
330
5
100
AcDbSymbolTableRecord
100
AcDbTextStyleTableRecord
  2
OpenSans-Italic
 70
0
 40
0.0
 41
1.0
 50
0.0
 71
0
 42
2.5
  3
OpenSans-Italic.ttf
  4

  0
STYLE
  5
45
330
5
100
AcDbSymbolTableRecord
100
AcDbTextStyleTableRecord
  2
OpenSans-SemiBold
 70
0
 40
0.0
 41
1.0
 50
0.0
 71
0
 42
2.5
  3
OpenSans-SemiBold.ttf
  4

  0
STYLE
  5
46
330
5
100
AcDbSymbolTableRecord
100
AcDbTextStyleTableRecord
  2
OpenSans-SemiBoldItalic
 70
0
 40
0.0
 41
1.0
 50
0.0
 71
0
 42
2.5
  3
OpenSans-SemiBoldItalic.ttf
  4

  0
STYLE
  5
47
330
5
100
AcDbSymbolTableRecord
100
AcDbTextStyleTableRecord
  2
OpenSans-Bold
 70
0
 40
0.0
 41
1.0
 50
0.0
 71
0
 42
2.5
  3
OpenSans-Bold.ttf
  4

  0
STYLE
  5
48
330
5
100
AcDbSymbolTableRecord
100
AcDbTextStyleTableRecord
  2
OpenSans-BoldItalic
 70
0
 40
0.0
 41
1.0
 50
0.0
 71
0
 42
2.5
  3
OpenSans-BoldItalic.ttf
  4

  0
STYLE
  5
49
330
5
100
AcDbSymbolTableRecord
100
AcDbTextStyleTableRecord
  2
OpenSans-ExtraBold
 70
0
 40
0.0
 41
1.0
 50
0.0
 71
0
 42
2.5
  3
OpenSans-ExtraBold.ttf
  4

  0
STYLE
  5
4A
330
5
100
AcDbSymbolTableRecord
100
AcDbTextStyleTableRecord
  2
OpenSans-ExtraBoldItalic
 70
0
 40
0.0
 41
1.0
 50
0.0
 71
0
 42
2.5
  3
OpenSans-ExtraBoldItalic.ttf
  4

  0
STYLE
  5
4B
330
5
100
AcDbSymbolTableRecord
100
AcDbTextStyleTableRecord
  2
OpenSansCondensed-Bold
 70
0
 40
0.0
 41
1.0
 50
0.0
 71
0
 42
2.5
  3
OpenSansCondensed-Bold.ttf
  4

  0
STYLE
  5
4C
330
5
100
AcDbSymbolTableRecord
100
AcDbTextStyleTableRecord
  2
OpenSansCondensed-Light
 70
0
 40
0.0
 41
1.0
 50
0.0
 71
0
 42
2.5
  3
OpenSansCondensed-Light.ttf
  4

  0
STYLE
  5
4D
330
5
100
AcDbSymbolTableRecord
100
AcDbTextStyleTableRecord
  2
OpenSansCondensed-Italic
 70
0
 40
0.0
 41
1.0
 50
0.0
 71
0
 42
2.5
  3
OpenSansCondensed-LightItalic.ttf
  4

  0
STYLE
  5
4E
330
5
100
AcDbSymbolTableRecord
100
AcDbTextStyleTableRecord
  2
LiberationSans
 70
0
 40
0.0
 41
1.0
 50
0.0
 71
0
 42
2.5
  3
LiberationSans-Regular.ttf
  4

  0
STYLE
  5
4F
330
5
100
AcDbSymbolTableRecord
100
AcDbTextStyleTableRecord
  2
LiberationSans-Bold
 70
0
 40
0.0
 41
1.0
 50
0.0
 71
0
 42
2.5
  3
LiberationSans-Bold.ttf
  4

  0
STYLE
  5
50
330
5
100
AcDbSymbolTableRecord
100
AcDbTextStyleTableRecord
  2
LiberationSans-BoldItalic
 70
0
 40
0.0
 41
1.0
 50
0.0
 71
0
 42
2.5
  3
LiberationSans-BoldItalic.ttf
  4

  0
STYLE
  5
51
330
5
100
AcDbSymbolTableRecord
100
AcDbTextStyleTableRecord
  2
LiberationSans-Italic
 70
0
 40
0.0
 41
1.0
 50
0.0
 71
0
 42
2.5
  3
LiberationSans-Italic.ttf
  4

  0
STYLE
  5
52
330
5
100
AcDbSymbolTableRecord
100
AcDbTextStyleTableRecord
  2
LiberationSerif
 70
0
 40
0.0
 41
1.0
 50
0.0
 71
0
 42
2.5
  3
LiberationSerif-Regular.ttf
  4

  0
STYLE
  5
53
330
5
100
AcDbSymbolTableRecord
100
AcDbTextStyleTableRecord
  2
LiberationSerif-Bold
 70
0
 40
0.0
 41
1.0
 50
0.0
 71
0
 42
2.5
  3
LiberationSerif-Bold.ttf
  4

  0
STYLE
  5
54
330
5
100
AcDbSymbolTableRecord
100
AcDbTextStyleTableRecord
  2
LiberationSerif-BoldItalic
 70
0
 40
0.0
 41
1.0
 50
0.0
 71
0
 42
2.5
  3
LiberationSerif-BoldItalic.ttf
  4

  0
STYLE
  5
55
330
5
100
AcDbSymbolTableRecord
100
AcDbTextStyleTableRecord
  2
LiberationSerif-Italic
 70
0
 40
0.0
 41
1.0
 50
0.0
 71
0
 42
2.5
  3
LiberationSerif-Italic.ttf
  4

  0
STYLE
  5
56
330
5
100
AcDbSymbolTableRecord
100
AcDbTextStyleTableRecord
  2
LiberationMono
 70
0
 40
0.0
 41
1.0
 50
0.0
 71
0
 42
2.5
  3
LiberationMono-Regular.ttf
  4

  0
STYLE
  5
57
330
5
100
AcDbSymbolTableRecord
100
AcDbTextStyleTableRecord
  2
LiberationMono-Bold
 70
0
 40
0.0
 41
1.0
 50
0.0
 71
0
 42
2.5
  3
LiberationMono-Bold.ttf
  4

  0
STYLE
  5
58
330
5
100
AcDbSymbolTableRecord
100
AcDbTextStyleTableRecord
  2
LiberationMono-BoldItalic
 70
0
 40
0.0
 41
1.0
 50
0.0
 71
0
 42
2.5
  3
LiberationMono-BoldItalic.ttf
  4

  0
STYLE
  5
59
330
5
100
AcDbSymbolTableRecord
100
AcDbTextStyleTableRecord
  2
LiberationMono-Italic
 70
0
 40
0.0
 41
1.0
 50
0.0
 71
0
 42
2.5
  3
LiberationMono-Italic.ttf
  4

  0
STYLE
  5
9B
330
5
100
AcDbSymbolTableRecord
100
AcDbTextStyleTableRecord
  2
PLAT
 70
0
 40
0.0
 41
1.0
 50
0.0
 71
0
 42
2.5
  3
arial.ttf
  4

  0
ENDTAB
  0
TABLE
  2
VIEW
  5
7
330
0
100
AcDbSymbolTable
 70
0
  0
ENDTAB
  0
TABLE
  2
UCS
  5
6
330
0
100
AcDbSymbolTable
 70
0
  0
ENDTAB
  0
TABLE
  2
APPID
  5
3
330
0
100
AcDbSymbolTable
 70
4
  0
APPID
  5
2A
330
3
100
AcDbSymbolTableRecord
100
AcDbRegAppTableRecord
  2
ACAD
 70
0
  0
APPID
  5
8A
330
3
100
AcDbSymbolTableRecord
100
AcDbRegAppTableRecord
  2
RASTER2DXF
 70
0
  0
APPID
  5
14C
330
3
100
AcDbSymbolTableRecord
100
AcDbRegAppTableRecord
  2
HATCHBACKGROUNDCOLOR
 70
0
  0
APPID
  5
14D
330
3
100
AcDbSymbolTableRecord
100
AcDbRegAppTableRecord
  2
EZDXF
 70
0
  0
ENDTAB
  0
TABLE
  2
DIMSTYLE
  5
4
330
0
100
AcDbSymbolTable
 70
12
100
AcDbDimStyleTable
  0
DIMSTYLE
105
2B
330
4
100
AcDbSymbolTableRecord
100
AcDbDimStyleTableRecord
  2
Standard
 70
0
 40
1.0
 41
2.5
 42
0.625
 43
3.75
 44
1.25
 45
0.0
 46
0.0
 47
0.0
 48
0.0
 49
2.5
140
2.5
141
2.5
142
0.0
143
0.03937007874
144
1.0
145
0.0
146
1.0
147
0.625
148
0.0
 69
0
 70
0
 71
0
 72
0
 73
0
 74
0
 75
0
 76
0
 77
1
 78
8
 79
3
170
0
171
3
172
1
173
0
174
0
175
0
176
0
177
0
178
0
179
2
271
2
272
2
273
2
274
3
275
0
276
0
277
2
278
44
279
0
280
0
281
0
282
0
283
0
284
8
285
0
286
0
288
0
289
3
290
0
371
-2
372
-2
  0
DIMSTYLE
105
73
330
4
100
AcDbSymbolTableRecord
100
AcDbDimStyleTableRecord
  2
EZDXF
 70
0
 40
1.0
 41
0.175
 42
0.125
 43
3.75
 44
0.375
 45
0.0
 46
0.0
 47
0.0
 48
0.0
 49
2.5
140
0.25
141
2.5
142
0.0
143
0.03937007874
144
100.0
145
0.0
146
0.5
147
0.1
148
0.0
 69
0
 70
0
 71
0
 72
0
 73
0
 74
0
 75
0
 76
0
 77
1
 78
12
 79
3
170
0
171
3
172
1
173
0
174
0
175
0
176
0
177
0
178
0
179
2
271
2
272
2
273
2
274
3
275
0
276
0
277
2
278
46
279
2
280
0
281
0
282
0
283
0
284
8
285
0
286
0
288
1
289
3
290
0
340
4C
342
74
371
-2
372
-2
  0
DIMSTYLE
105
7C
330
4
100
AcDbSymbolTableRecord
100
AcDbDimStyleTableRecord
  2
EZ_M_100_H25_CM
 70
0
 40
1.0
 41
0.25
 42
0.125
 43
3.75
 44
0.375
 45
0.0
 46
0.0
 47
0.0
 48
0.0
 49
2.5
140
0.25
141
2.5
142
0.125
143
0.03937007874
144
100.0
145
0.0
146
0.5
147
0.1
148
0.0
 69
0
 70
0
 71
0
 72
0
 73
0
 74
0
 75
0
 76
0
 77
1
 78
12
 79
3
170
0
171
3
172
1
173
0
174
0
175
0
176
0
177
0
178
0
179
2
271
2
272
2
273
2
274
3
275
0
276
0
277
2
278
46
279
2
280
0
281
0
282
0
283
0
284
8
285
0
286
0
288
1
289
3
290
0
340
4C
371
-2
372
-2
  0
DIMSTYLE
105
7D
330
4
100
AcDbSymbolTableRecord
100
AcDbDimStyleTableRecord
  2
EZ_M_50_H25_CM
 70
0
 40
1.0
 41
0.125
 42
0.0625
 43
3.75
 44
0.1875
 45
0.0
 46
0.0
 47
0.0
 48
0.0
 49
2.5
140
0.125
141
2.5
142
0.0625
143
0.03937007874
144
100.0
145
0.0
146
0.5
147
0.05
148
0.0
 69
0
 70
0
 71
0
 72
0
 73
0
 74
0
 75
0
 76
0
 77
1
 78
12
 79
3
170
0
171
3
172
1
173
0
174
0
175
0
176
0
177
0
178
0
179
2
271
2
272
2
273
2
274
3
275
0
276
0
277
2
278
46
279
2
280
0
281
0
282
0
283
0
284
8
285
0
286
0
288
1
289
3
290
0
340
4C
371
-2
372
-2
  0
DIMSTYLE
105
7E
330
4
100
AcDbSymbolTableRecord
100
AcDbDimStyleTableRecord
  2
EZ_M_25_H25_CM
 70
0
 40
1.0
 41
0.0625
 42
0.03125
 43
3.75
 44
0.09375
 45
0.0
 46
0.0
 47
0.0
 48
0.0
 49
2.5
140
0.0625
141
2.5
142
0.03125
143
0.03937007874
144
100.0
145
0.0
146
0.5
147
0.025
148
0.0
 69
0
 70
0
 71
0
 72
0
 73
0
 74
0
 75
0
 76
0
 77
1
 78
12
 79
3
170
0
171
3
172
1
173
0
174
0
175
0
176
0
177
0
178
0
179
2
271
2
272
2
273
2
274
3
275
0
276
0
277
2
278
46
279
2
280
0
281
0
282
0
283
0
284
8
285
0
286
0
288
1
289
3
290
0
340
4C
371
-2
372
-2
  0
DIMSTYLE
105
7F
330
4
100
AcDbSymbolTableRecord
100
AcDbDimStyleTableRecord
  2
EZ_M_20_H25_CM
 70
0
 40
1.0
 41
0.05
 42
0.025
 43
3.75
 44
0.07500000000000001
 45
0.0
 46
0.0
 47
0.0
 48
0.0
 49
2.5
140
0.05
141
2.5
142
0.025
143
0.03937007874
144
100.0
145
0.0
146
0.5
147
0.020000000000000004
148
0.0
 69
0
 70
0
 71
0
 72
0
 73
0
 74
0
 75
0
 76
0
 77
1
 78
12
 79
3
170
0
171
3
172
1
173
0
174
0
175
0
176
0
177
0
178
0
179
2
271
2
272
2
273
2
274
3
275
0
276
0
277
2
278
46
279
2
280
0
281
0
282
0
283
0
284
8
285
0
286
0
288
1
289
3
290
0
340
4C
371
-2
372
-2
  0
DIMSTYLE
105
80
330
4
100
AcDbSymbolTableRecord
100
AcDbDimStyleTableRecord
  2
EZ_M_10_H25_CM
 70
0
 40
1.0
 41
0.025
 42
0.0125
 43
3.75
 44
0.037500000000000006
 45
0.0
 46
0.0
 47
0.0
 48
0.0
 49
2.5
140
0.025
141
2.5
142
0.0125
143
0.03937007874
144
100.0
145
0.0
146
0.5
147
0.010000000000000002
148
0.0
 69
0
 70
0
 71
0
 72
0
 73
0
 74
0
 75
0
 76
0
 77
1
 78
12
 79
3
170
0
171
3
172
1
173
0
174
0
175
0
176
0
177
0
178
0
179
2
271
2
272
2
273
2
274
3
275
0
276
0
277
2
278
46
279
2
280
0
281
0
282
0
283
0
284
8
285
0
286
0
288
1
289
3
290
0
340
4C
371
-2
372
-2
  0
DIMSTYLE
105
81
330
4
100
AcDbSymbolTableRecord
100
AcDbDimStyleTableRecord
  2
EZ_M_5_H25_CM
 70
0
 40
1.0
 41
0.0125
 42
0.00625
 43
3.75
 44
0.018750000000000003
 45
0.0
 46
0.0
 47
0.0
 48
0.0
 49
2.5
140
0.0125
141
2.5
142
0.00625
143
0.03937007874
144
100.0
145
0.0
146
0.5
147
0.005000000000000001
148
0.0
 69
0
 70
0
 71
0
 72
0
 73
0
 74
0
 75
0
 76
0
 77
1
 78
12
 79
3
170
0
171
3
172
1
173
0
174
0
175
0
176
0
177
0
178
0
179
2
271
2
272
2
273
2
274
3
275
0
276
0
277
2
278
46
279
2
280
0
281
0
282
0
283
0
284
8
285
0
286
0
288
1
289
3
290
0
340
4C
371
-2
372
-2
  0
DIMSTYLE
105
82
330
4
100
AcDbSymbolTableRecord
100
AcDbDimStyleTableRecord
  2
EZ_M_1_H25_CM
 70
0
 40
1.0
 41
0.0025
 42
0.00125
 43
3.75
 44
0.00375
 45
0.0
 46
0.0
 47
0.0
 48
0.0
 49
2.5
140
0.0025
141
2.5
142
0.00125
143
0.03937007874
144
100.0
145
0.0
146
0.5
147
0.001
148
0.0
 69
0
 70
0
 71
0
 72
0
 73
0
 74
0
 75
0
 76
0
 77
1
 78
12
 79
3
170
0
171
3
172
1
173
0
174
0
175
0
176
0
177
0
178
0
179
2
271
2
272
2
273
2
274
3
275
0
276
0
277
2
278
46
279
2
280
0
281
0
282
0
283
0
284
8
285
0
286
0
288
1
289
3
290
0
340
4C
371
-2
372
-2
  0
DIMSTYLE
105
83
330
4
100
AcDbSymbolTableRecord
100
AcDbDimStyleTableRecord
  2
EZ_RADIUS
 70
0
 40
1.0
 41
0.25
 42
0.125
 43
3.75
 44
0.375
 45
0.0
 46
0.0
 47
0.0
 48
0.0
 49
2.5
140
0.25
141
0.0
142
0.0
143
0.03937007874
144
100.0
145
0.0
146
0.5
147
0.1
148
0.0
 69
0
 70
0
 71
0
 72
0
 73
0
 74
0
 75
0
 76
0
 77
1
 78
12
 79
3
170
0
171
3
172
0
173
0
174
0
175
0
176
0
177
0
178
0
179
2
271
2
272
2
273
2
274
3
275
0
276
0
277
2
278
46
279
1
280
0
281
0
282
0
283
0
284
8
285
0
286
0
288
1
289
3
290
0
340
4C
342
84
371
-2
372
-2
  0
DIMSTYLE
105
88
330
4
100
AcDbSymbolTableRecord
100
AcDbDimStyleTableRecord
  2
EZ_RADIUS_INSIDE
 70
0
 40
1.0
 41
0.25
 42
0.125
 43
3.75
 44
0.375
 45
0.0
 46
0.0
 47
0.0
 48
0.0
 49
2.5
140
0.25
141
0.0
142
0.0
143
0.03937007874
144
100.0
145
0.0
146
0.5
147
0.1
148
0.0
 69
0
 70
0
 71
0
 72
0
 73
0
 74
0
 75
0
 76
0
 77
0
 78
12
 79
3
170
0
171
3
172
0
173
0
174
1
175
0
176
0
177
0
178
0
179
2
271
2
272
2
273
2
274
3
275
0
276
0
277
2
278
46
279
0
280
0
281
0
282
0
283
0
284
8
285
0
286
0
288
1
289
0
290
0
340
4C
342
84
371
-2
372
-2
  0
DIMSTYLE
105
89
330
4
100
AcDbSymbolTableRecord
100
AcDbDimStyleTableRecord
  2
EZ_CURVED
 70
0
 40
1.0
 41
0.25
 42
0.125
 43
3.75
 44
0.375
 45
0.0
 46
0.0
 47
0.0
 48
0.0
 49
2.5
140
0.25
141
2.5
142
0.0
143
0.03937007874
144
100.0
145
0.0
146
0.5
147
0.1
148
0.0
 69
0
 70
0
 71
0
 72
0
 73
0
 74
0
 75
0
 76
0
 77
1
 78
12
 79
2
 90
2
170
0
171
3
172
1
173
0
174
0
175
0
176
0
177
0
178
0
179
2
271
2
272
2
273
2
274
3
275
0
276
0
277
2
278
46
279
2
280
0
281
0
282
0
283
0
284
8
285
0
286
0
288
1
289
3
290
0
340
4C
371
-2
372
-2
  0
ENDTAB
  0
TABLE
  2
BLOCK_RECORD
  5
9
330
0
100
AcDbSymbolTable
 70
5
  0
BLOCK_RECORD
  5
17
330
9
100
AcDbSymbolTableRecord
100
AcDbBlockTableRecord
  2
*Model_Space
340
1A
 70
0
280
1
281
0
  0
BLOCK_RECORD
  5
1B
330
9
100
AcDbSymbolTableRecord
100
AcDbBlockTableRecord
  2
*Paper_Space
340
1E
 70
0
280
1
281
0
  0
BLOCK_RECORD
  5
74
330
9
100
AcDbSymbolTableRecord
100
AcDbBlockTableRecord
  2
_ARCHTICK
340
0
 70
0
280
1
281
0
  0
BLOCK_RECORD
  5
78
330
9
100
AcDbSymbolTableRecord
100
AcDbBlockTableRecord
  2
_CLOSEDFILLED
340
0
 70
0
280
1
281
0
  0
BLOCK_RECORD
  5
84
330
9
100
AcDbSymbolTableRecord
100
AcDbBlockTableRecord
  2
_CLOSEDBLANK
340
0
 70
0
280
1
281
0
  0
ENDTAB
  0
ENDSEC
  0
SECTION
  2
BLOCKS
  0
BLOCK
  5
18
330
17
100
AcDbEntity
  8
0
100
AcDbBlockBegin
  2
*Model_Space
 70
0
 10
0.0
 20
0.0
 30
0.0
  3
*Model_Space
  1

  0
ENDBLK
  5
19
330
17
100
AcDbEntity
  8
0
100
AcDbBlockEnd
  0
BLOCK
  5
1C
330
1B
100
AcDbEntity
  8
0
100
AcDbBlockBegin
  2
*Paper_Space
 70
0
 10
0.0
 20
0.0
 30
0.0
  3
*Paper_Space
  1

  0
ENDBLK
  5
1D
330
1B
100
AcDbEntity
  8
0
100
AcDbBlockEnd
  0
BLOCK
  5
75
330
74
100
AcDbEntity
  8
0
100
AcDbBlockBegin
  2
_ARCHTICK
 70
0
 10
0.0
 20
0.0
 30
0.0
  3
_ARCHTICK
  1

  0
LWPOLYLINE
  5
77
330
74
100
AcDbEntity
  8
0
  6
BYBLOCK
 62
0
100
AcDbPolyline
 90
2
 70
0
 43
0.15
 10
-0.5
 20
-0.5
 10
0.5
 20
0.5
  0
ENDBLK
  5
76
330
74
100
AcDbEntity
  8
0
100
AcDbBlockEnd
  0
BLOCK
  5
79
330
78
100
AcDbEntity
  8
0
100
AcDbBlockBegin
  2
_CLOSEDFILLED
 70
0
 10
0.0
 20
0.0
 30
0.0
  3
_CLOSEDFILLED
  1

  0
SOLID
  5
7B
330
78
100
AcDbEntity
  8
0
  6
BYBLOCK
 62
0
100
AcDbTrace
 10
-1.0
 20
0.16439898372402537
 30
0.0
 11
0.0
 21
0.0
 31
0.0
 12
-1.0
 22
-0.16439898372402537
 32
0.0
 13
-1.0
 23
-0.16439898372402537
 33
0.0
  0
ENDBLK
  5
7A
330
78
100
AcDbEntity
  8
0
100
AcDbBlockEnd
  0
BLOCK
  5
85
330
84
100
AcDbEntity
  8
0
100
AcDbBlockBegin
  2
_CLOSEDBLANK
 70
0
 10
0.0
 20
0.0
 30
0.0
  3
_CLOSEDBLANK
  1

  0
LWPOLYLINE
  5
87
330
84
100
AcDbEntity
  8
0
  6
BYBLOCK
 62
0
100
AcDbPolyline
 90
3
 70
1
 10
-1.0
 20
0.16439898372402537
 10
0.0
 20
0.0
 10
-1.0
 20
-0.16439898372402537
  0
ENDBLK
  5
86
330
84
100
AcDbEntity
  8
0
100
AcDbBlockEnd
  0
ENDSEC
  0
SECTION
  2
ENTITIES
  0
LINE
  5
9C
330
17
100
AcDbEntity
  8
PLAT-LINE
100
AcDbLine
 10
126.934267640995
 20
415.9326556775718
 30
0.0
 11
180.46245206096532
 21
417.8432255125898
 31
0.0
1001
RASTER2DXF
1000
line 0
1040
53.562
1040
0.92
1000
distance=93.50'
  0
LINE
  5
9D
330
17
100
AcDbEntity
  8
PLAT-LINE
100
AcDbLine
 10
180.46245206096532
 20
417.8432255125898
 30
0.0
 11
266.10313003898517
 21
420.8999795902466
 31
0.0
1001
RASTER2DXF
1000
line 1
1040
85.695
1040
0.92
1000
distance=89.76"
1000
bearing=N 87°35'30" E
  0
LINE
  5
9E
330
17
100
AcDbEntity
  8
PLAT-LINE
100
AcDbLine
 10
25.723589131109065
 20
430.9393587207214
 30
0.0
 11
27.178224427812623
 21
401.29573243961556
 31
0.0
1001
RASTER2DXF
1000
line 2
1040
29.679
1040
1.0
  0
LINE
  5
9F
330
17
100
AcDbEntity
  8
PLAT-LINE
100
AcDbLine
 10
27.178224427812623
 20
401.29573243961556
 30
0.0
 11
30.24422705326255
 21
338.81447943297337
 31
0.0
1001
RASTER2DXF
1000
line 3
1040
62.556
1040
1.0
1000
distance=£60.48 &
  0
LINE
  5
A0
330
17
100
AcDbEntity
  8
PLAT-LINE
100
AcDbLine
 10
266.93168834229107
 20
404.2368973995832
 30
0.0
 11
266.10313003898517
 21
420.8999795902466
 31
0.0
1001
RASTER2DXF
1000
line 4
1040
16.684
1040
0.991
  0
LINE
  5
A1
330
17
100
AcDbEntity
  8
PLAT-LINE
100
AcDbLine
 10
266.10313003898517
 20
420.8999795902466
 30
0.0
 11
265.0090725939932
 21
442.9024977648494
 31
0.0
1001
RASTER2DXF
1000
line 5
1040
22.03
1040
0.991
  0
LINE
  5
A2
330
17
100
AcDbEntity
  8
PLAT-LINE
100
AcDbLine
 10
10.319304489797673
 20
423.99395717042205
 30
0.0
 11
-1.0362703613107271
 21
400.1287718590438
 31
0.0
1001
RASTER2DXF
1000
line 6
1040
26.429
1040
0.987
  0
LINE
  5
A3
330
17
100
AcDbEntity
  8
PLAT-LINE
100
AcDbLine
 10
266.0955911257172
 20
421.0515941850333
 30
0.0
 11
292.0304220663844
 21
421.26041488398914
 31
0.0
1001
RASTER2DXF
1000
line 7
1040
25.936
1040
1.0
  0
LINE
  5
A4
330
17
100
AcDbEntity
  8
PLAT-LINE
100
AcDbLine
 10
-8.8987329482608
 20
399.80357787723534
 30
0.0
 11
-1.0362703613107271
 21
400.1287718590438
 31
0.0
1001
RASTER2DXF
1000
line 8
1040
7.869
1040
1.0
  0
LINE
  5
A5
330
17
100
AcDbEntity
  8
PLAT-LINE
100
AcDbLine
 10
-1.0362703613107271
 20
400.1287718590438
 30
0.0
 11
27.178224427812623
 21
401.29573243961556
 31
0.0
1001
RASTER2DXF
1000
line 9
1040
28.239
1040
1.0
  0
LINE
  5
A6
330
17
100
AcDbEntity
  8
PLAT-LINE
100
AcDbLine
 10
91.34440330259537
 20
320.7803636874245
 30
0.0
 11
92.43062147703488
 21
251.1945205052809
 31
0.0
1001
RASTER2DXF
1000
line 10
1040
69.594
1040
1.0
1000
bearing=N 01°00'14" W
1000
distance=12,04,
  0
LINE
  5
A7
330
17
100
AcDbEntity
  8
PLAT-LINE
100
AcDbLine
 10
120.38570533247683
 20
353.71299137870363
 30
0.0
 11
190.72463092248944
 21
356.26191638524307
 31
0.0
1001
RASTER2DXF
1000
line 11
1040
70.385
1040
0.973
1000
distance=99.93
  0
LINE
  5
A8
330
17
100
AcDbEntity
  8
PLAT-LINE
100
AcDbLine
 10
190.72463092248944
 20
356.26191638524307
 30
0.0
 11
268.8940829385469
 21
359.09460211821226
 31
0.0
1001
RASTER2DXF
1000
line 12
1040
78.221
1040
0.973
1000
distance="> 83.26"
  0
LINE
  5
A9
330
17
100
AcDbEntity
  8
PLAT-LINE
100
AcDbLine
 10
268.8940829385469
 20
359.09460211821226
 30
0.0
 11
295.10433553291864
 21
360.0444029248796
 31
0.0
1001
RASTER2DXF
1000
line 13
1040
26.227
1040
0.973
1000
distance=46
  0
LINE
  5
AA
330
17
100
AcDbEntity
  8
PLAT-LINE
100
AcDbLine
 10
268.8913108326502
 20
359.17109983779676
 30
0.0
 11
273.22974202493884
 21
256.01785989162454
 31
0.0
1001
RASTER2DXF
1000
line 14
1040
103.244
1040
1.0
1000
bearing=N 02°24'30" W
  0
LINE
  5
AB
330
17
100
AcDbEntity
  8
PLAT-LINE
100
AcDbLine
 10
195.4933541791092
 20
253.94401694309357
 30
0.0
 11
190.71359128852941
 21
356.5665608881851
 31
0.0
1001
RASTER2DXF
1000
line 15
1040
102.734
1040
1.0
1000
bearing=N 02°24'30" W
1000
distance=103.17
  0
LINE
  5
AC
330
17
100
AcDbEntity
  8
PLAT-LINE
100
AcDbLine
 10
-5.224476090540037
 20
326.52728946077787
 30
0.0
 11
30.204126668945747
 21
326.82642030417287
 31
0.0
1001
RASTER2DXF
1000
line 16
1040
35.43
1040
1.0
  0
LINE
  5
AD
330
17
100
AcDbEntity
  8
PLAT-LINE
100
AcDbLine
 10
30.204126668945747
 20
326.82642030417287
 30
0.0
 11
32.180521075832786
 21
252.16699783112637
 31
0.0
1001
RASTER2DXF
1000
line 17
1040
74.686
1040
1.0
1000
distance=75'
  0
LINE
  5
AE
330
17
100
AcDbEntity
  8
PLAT-LINE
100
AcDbLine
 10
32.180521075832786
 20
252.16699783112637
 30
0.0
 11
34.19418352389117
 21
176.0997539126949
 31
0.0
1001
RASTER2DXF
1000
line 18
1040
76.094
1040
1.0
1000
distance=75'
  0
LINE
  5
AF
330
17
100
AcDbEntity
  8
PLAT-LINE
100
AcDbLine
 10
34.19418352389117
 20
176.0997539126949
 30
0.0
 11
36.187079010591304
 21
100.8169937674035
 31
0.0
1001
RASTER2DXF
1000
line 19
1040
75.309
1040
1.0
1000
distance=75'
  0
LINE
  5
B0
330
17
100
AcDbEntity
  8
PLAT-LINE
100
AcDbLine
 10
36.187079010591304
 20
100.8169937674035
 30
0.0
 11
38.17179393567048
 21
25.843258988708016
 31
0.0
1001
RASTER2DXF
1000
line 20
1040
75.0
1040
1.0
1000
distance=75
  0
LINE
  5
B1
330
17
100
AcDbEntity
  8
PLAT-LINE
100
AcDbLine
 10
38.17179393567048
 20
25.843258988708016
 30
0.0
 11
39.00276421161253
 21
-5.547115664202835
 31
0.0
1001
RASTER2DXF
1000
line 21
1040
31.401
1040
1.0
  0
LINE
  5
B2
330
17
100
AcDbEntity
  8
PLAT-LINE
100
AcDbLine
 10
11.654247488150475
 20
251.68157149463028
 30
0.0
 11
32.180521075832786
 21
252.16699783112637
 31
0.0
1001
RASTER2DXF
1000
line 22
1040
20.532
1040
0.966
  0
LINE
  5
B3
330
17
100
AcDbEntity
  8
PLAT-LINE
100
AcDbLine
 10
178.18485526552445
 20
257.89989547815765
 30
0.0
 11
203.0839039731543
 21
258.69983197257534
 31
0.0
1001
RASTER2DXF
1000
line 23
1040
24.912
1040
0.905
  0
LINE
  5
B4
330
17
100
AcDbEntity
  8
PLAT-LINE
100
AcDbLine
 10
96.29378885413287
 20
168.8557154193653
 30
0.0
 11
91.86111663958937
 21
251.1793273168138
 31
0.0
1001
RASTER2DXF
1000
line 24
1040
82.443
1040
1.0
1000
distance=100°
  0
LINE
  5
B5
330
17
100
AcDbEntity
  8
PLAT-LINE
100
AcDbLine
 10
91.86111663958937
 20
251.1793273168138
 30
0.0
 11
195.4933541791092
 21
253.94401694309352
 31
0.0
1001
RASTER2DXF
1000
line 25
1040
103.669
1040
1.0
1000
distance=-—./02.38!.
  0
LINE
  5
B6
330
17
100
AcDbEntity
  8
PLAT-LINE
100
AcDbLine
 10
195.4933541791092
 20
253.94401694309352
 30
0.0
 11
273.22974202493884
 21
256.01785989162454
 31
0.0
1001
RASTER2DXF
1000
line 26
1040
77.764
1040
1.0
1000
distance=-83.26—
  0
LINE
  5
B7
330
17
100
AcDbEntity
  8
PLAT-LINE
100
AcDbLine
 10
195.59771640508512
 20
253.94680110727236
 30
0.0
 11
193.7629648137508
 21
149.44640490046697
 31
0.0
1001
RASTER2DXF
1000
line 27
1040
104.517
1040
0.98
1000
bearing=N 01°58'48" E
1000
distance== 100.44°
  0
LINE
  5
B8
330
17
100
AcDbEntity
  8
PLAT-LINE
100
AcDbLine
 10
129.45293128589032
 20
150.1331082001915
 30
0.0
 11
193.74543805956947
 21
148.448148370905
 31
0.0
1001
RASTER2DXF
1000
line 28
1040
64.315
1040
0.979
1000
distance=80°
  0
LINE
  5
B9
330
17
100
AcDbEntity
  8
PLAT-LINE
100
AcDbLine
 10
111.72868664803235
 20
245.50398081613497
 30
0.0
 11
149.07435753825817
 21
246.9232201519629
 31
0.0
1001
RASTER2DXF
1000
line 29
1040
37.373
1040
0.919
  0
LINE
  5
BA
330
17
100
AcDbEntity
  8
PLAT-LINE
100
AcDbLine
 10
297.11980818803215
 20
244.22358574474052
 30
0.0
 11
276.4484449699527
 21
140.83907823806766
 31
0.0
1001
RASTER2DXF
1000
line 30
1040
105.431
1040
1.0
1000
distance=109.05°
  0
LINE
  5
BB
330
17
100
AcDbEntity
  8
PLAT-LINE
100
AcDbLine
 10
2.6418634178607476
 20
175.70831481631362
 30
0.0
 11
34.19418352389117
 21
176.09975391269484
 31
0.0
1001
RASTER2DXF
1000
line 31
1040
31.555
1040
1.0
  0
LINE
  5
BC
330
17
100
AcDbEntity
  8
PLAT-LINE
100
AcDbLine
 10
193.7629648137508
 20
149.44640490046697
 30
0.0
 11
262.5130816177063
 21
143.84975068572106
 31
0.0
1001
RASTER2DXF
1000
line 32
1040
68.978
1040
1.0
1000
distance=76.78’
  0
LINE
  5
BD
330
17
100
AcDbEntity
  8
PLAT-LINE
100
AcDbLine
 10
276.4484449699527
 20
140.83907823806766
 30
0.0
 11
306.83741868539835
 21
133.92678498193857
 31
0.0
1001
RASTER2DXF
1000
line 33
1040
31.165
1040
1.0
1000
distance=4177)
  0
LINE
  5
BE
330
17
100
AcDbEntity
  8
PLAT-LINE
100
AcDbLine
 10
6.422045833442951
 20
100.06422384118694
 30
0.0
 11
36.187079010591304
 21
100.81699376740346
 31
0.0
1001
RASTER2DXF
1000
line 34
1040
29.775
1040
1.0
  0
LINE
  5
BF
330
17
100
AcDbEntity
  8
PLAT-LINE
100
AcDbLine
 10
194.05104277958412
 20
88.91347609876925
 30
0.0
 11
116.57339235733217
 21
87.68367603011632
 31
0.0
1001
RASTER2DXF
1000
line 35
1040
77.487
1040
0.995
1000
distance=80°
  0
LINE
  5
C0
330
17
100
AcDbEntity
  8
PLAT-LINE
100
AcDbLine
 10
98.8263727458572
 20
-1.8979669087543414
 30
0.0
 11
98.31747838128418
 21
55.535634289772645
 31
0.0
1001
RASTER2DXF
1000
line 36
1040
57.436
1040
1.0
1000
distance=100°
  0
LINE
  5
C1
330
17
100
AcDbEntity
  8
PLAT-LINE
100
AcDbLine
 10
193.794669012636
 20
89.49561296416553
 30
0.0
 11
192.59047007782323
 21
2.7716838301624307
 31
0.0
1001
RASTER2DXF
1000
line 37
1040
86.732
1040
0.992
1000
distance=99.80!
  0
LINE
  5
C2
330
17
100
AcDbEntity
  8
PLAT-LINE
100
AcDbLine
 10
282.92486148687954
 20
78.21493349054253
 30
0.0
 11
310.4339971191406
 21
71.05533120314414
 31
0.0
1001
RASTER2DXF
1000
line 38
1040
28.426
1040
1.0
1000
distance=7.24
  0
LINE
  5
C3
330
17
100
AcDbEntity
  8
PLAT-LINE
100
AcDbLine
 10
283.0786297456698
 20
78.37396050479177
 30
0.0
 11
267.4215112835485
 21
6.156233086687536
 31
0.0
1001
RASTER2DXF
1000
line 39
1040
73.896
1040
0.99
1000
distance=9.52!
  0
LINE
  5
C4
330
17
100
AcDbEntity
  8
PLAT-LINE
100
AcDbLine
 10
9.463496230074469
 20
25.257629930785697
 30
0.0
 11
38.171793935670465
 21
25.84325898870796
 31
0.0
1001
RASTER2DXF
1000
line 40
1040
28.714
1040
1.0
  0
LINE
  5
C5
330
17
100
AcDbEntity
  8
PLAT-LINE
100
AcDbLine
 10
225.79667851351581
 20
249.3648750660037
 30
0.0
 11
259.0964889709401
 21
250.75245444898215
 31
0.0
1001
RASTER2DXF
1000
line 41
1040
33.329
1040
0.869
  0
ARC
  5
C6
330
17
100
AcDbEntity
  8
PLAT-CURVE
100
AcDbCircle
 10
115.13017655027056
 20
454.83760126848426
 30
0.0
 40
40.65625853309644
100
AcDbArc
 50
-121.37910435112848
 51
-73.12175681552732
1001
RASTER2DXF
1000
arc 0
1040
40.656
1040
34.243
  0
ARC
  5
C7
330
17
100
AcDbEntity
  8
PLAT-CURVE
100
AcDbCircle
 10
115.86382421459675
 20
328.42936422208527
 30
0.0
 40
25.68480506134183
100
AcDbArc
 50
79.86007127921357
 51
-162.67433290188947
1001
RASTER2DXF
1000
arc 1
1040
25.685
1040
52.658
  0
ARC
  5
C8
330
17
100
AcDbEntity
  8
PLAT-CURVE
100
AcDbCircle
 10
122.27803837860299
 20
176.15080287266815
 30
0.0
 40
26.98887778884595
100
AcDbArc
 50
-164.31789432646644
 51
-74.58275472928442
1001
RASTER2DXF
1000
arc 2
1040
26.989
1040
42.269
  0
ARC
  5
C9
330
17
100
AcDbEntity
  8
PLAT-CURVE
100
AcDbCircle
 10
62.3178773810405
 20
197.4244173577429
 30
0.0
 40
11.756672860686765
100
AcDbArc
 50
146.65111026102065
 51
-108.27167999996527
1001
RASTER2DXF
1000
arc 3
1040
11.757
1040
21.561
  0
ARC
  5
CA
330
17
100
AcDbEntity
  8
PLAT-CURVE
100
AcDbCircle
 10
123.42632293309899
 20
62.53458579858619
 30
0.0
 40
26.066058331668117
100
AcDbArc
 50
105.2425809856941
 51
-164.42448214856938
1001
RASTER2DXF
1000
arc 4
1040
26.066
1040
41.096
  0
ARC
  5
CB
330
17
100
AcDbEntity
  8
PLAT-CURVE
100
AcDbCircle
 10
189.56836160646856
 20
-322.8155217643191
 30
0.0
 40
411.7533996360476
100
AcDbArc
 50
76.89542051280569
 51
89.37621939210798
1001
RASTER2DXF
1000
arc 5
1040
411.753
1040
89.693
1000
distance=89.76"
  0
ARC
  5
CC
330
17
100
AcDbEntity
  8
PLAT-CURVE
100
AcDbCircle
 10
52.387389543588085
 20
214.73398256457833
 30
0.0
 40
11.52983704988913
100
AcDbArc
 50
-24.14907348756037
 51
83.5878921920232
1001
RASTER2DXF
1000
arc 6
1040
11.53
1040
21.68
  0
ARC
  5
CD
330
17
100
AcDbEntity
  8
PLAT-CURVE
100
AcDbCircle
 10
67.36160286675906
 20
224.75108188462727
 30
0.0
 40
15.575284272800536
100
AcDbArc
 50
175.08427692013908
 51
-109.47548265760085
1001
RASTER2DXF
1000
arc 7
1040
15.575
1040
20.508
  0
CIRCLE
  5
CE
330
17
100
AcDbEntity
  8
PLAT-MON
100
AcDbCircle
 10
180.4855498029319
 20
417.19609910610575
 30
0.0
 40
6.460931705212628
  0
POINT
  5
CF
330
17
100
AcDbEntity
  8
PLAT-MON
100
AcDbPoint
 10
180.4855498029319
 20
417.19609910610575
 30
0.0
  0
CIRCLE
  5
D0
330
17
100
AcDbEntity
  8
PLAT-MON
100
AcDbCircle
 10
189.98321677038103
 20
356.6220878326482
 30
0.0
 40
6.432618983879953
  0
POINT
  5
D1
330
17
100
AcDbEntity
  8
PLAT-MON
100
AcDbPoint
 10
189.98321677038103
 20
356.6220878326482
 30
0.0
  0
TEXT
  5
D2
330
17
100
AcDbEntity
  8
PLAT-TEXT-DIST
100
AcDbText
 10
138.15125903016585
 20
420.75557814364146
 30
0.0
 40
8.839484820163381
  1
93.50'
 50
2.044178004268923
  7
PLAT
 72
1
 11
138.15125903016585
 21
420.75557814364146
 31
0.0
100
AcDbText
 73
1
  0
TEXT
  5
D3
330
17
100
AcDbEntity
  8
PLAT-TEXT-DIST
100
AcDbText
 10
229.32002433135634
 20
424.0096450388249
 30
0.0
 40
8.839484820163381
  1
89.76'
 50
2.044178004269068
  7
PLAT
 72
1
 11
229.32002433135634
 21
424.0096450388249
 31
0.0
100
AcDbText
 73
1
  0
TEXT
  5
D4
330
17
100
AcDbEntity
  8
PLAT-TEXT-BRG
100
AcDbText
 10
191.85702180287433
 20
413.8273725761116
 30
0.0
 40
8.839484820163381
  1
N 87%%d35'30" E
 50
2.044178004269068
  7
PLAT
 72
1
 11
191.85702180287433
 21
413.8273725761116
 31
0.0
100
AcDbText
 73
3
  0
TEXT
  5
D5
330
17
100
AcDbEntity
  8
PLAT-TEXT-DIST
100
AcDbText
 10
24.716256212690183
 20
361.2903973514065
 30
0.0
 40
8.839484820163381
  1
60.48'
 50
92.80929407156992
  7
PLAT
 72
1
 11
24.716256212690183
 21
361.2903973514065
 31
0.0
100
AcDbText
 73
1
  0
TEXT
  5
D6
330
17
100
AcDbEntity
  8
PLAT-TEXT-BRG
100
AcDbText
 10
188.3721279038557
 20
311.8425887938504
 30
0.0
 40
8.839484820163381
  1
N 02%%d24'30" W
 50
92.66668955734423
  7
PLAT
 72
1
 11
188.3721279038557
 21
311.8425887938504
 31
0.0
100
AcDbText
 73
1
  0
TEXT
  5
D7
330
17
100
AcDbEntity
  8
PLAT-TEXT-DIST
100
AcDbText
 10
197.33373239438677
 20
309.4263960952204
 30
0.0
 40
8.839484820163381
  1
103.17'
 50
92.66668955734423
  7
PLAT
 72
1
 11
197.33373239438677
 21
309.4263960952204
 31
0.0
100
AcDbText
 73
3
  0
TEXT
  5
D8
330
17
100
AcDbEntity
  8
PLAT-TEXT-DIST
100
AcDbText
 10
140.20587606693897
 20
350.00858653545777
 30
0.0
 40
8.839484820163381
  1
99.93'
 50
2.075362507207674
  7
PLAT
 72
1
 11
140.20587606693897
 21
350.00858653545777
 31
0.0
100
AcDbText
 73
3
  0
TEXT
  5
D9
330
17
100
AcDbEntity
  8
PLAT-TEXT-DIST
100
AcDbText
 10
225.3621796909786
 20
353.09446011045304
 30
0.0
 40
8.839484820163381
  1
83.26'
 50
2.0753625072076463
  7
PLAT
 72
1
 11
225.3621796909786
 21
353.09446011045304
 31
0.0
100
AcDbText
 73
3
  0
TEXT
  5
DA
330
17
100
AcDbEntity
  8
PLAT-TEXT-BRG
100
AcDbText
 10
266.7912568006806
 20
303.92384339752874
 30
0.0
 40
8.839484820163381
  1
N 02%%d24'30" W
 50
92.4083333333333
  7
PLAT
 72
1
 11
266.7912568006806
 21
303.92384339752874
 31
0.0
100
AcDbText
 73
1
  0
TEXT
  5
DB
330
17
100
AcDbEntity
  8
PLAT-TEXT-BRG
100
AcDbText
 10
95.87222916124166
 20
313.8907620749818
 30
0.0
 40
8.839484820163381
  1
N 01%%d00'14" W
 50
90.89430062265029
  7
PLAT
 72
1
 11
95.87222916124166
 21
313.8907620749818
 31
0.0
100
AcDbText
 73
3
  0
TEXT
  5
DC
330
17
100
AcDbEntity
  8
PLAT-TEXT-DIST
100
AcDbText
 10
108.31171880411952
 20
309.87383381635004
 30
0.0
 40
8.839484820163381
  1
12'
 50
90.89430062265029
  7
PLAT
 72
1
 11
108.31171880411952
 21
309.87383381635004
 31
0.0
100
AcDbText
 73
3
  0
TEXT
  5
DD
330
17
100
AcDbEntity
  8
PLAT-TEXT-DIST
100
AcDbText
 10
290.5245681050074
 20
355.4557990123645
 30
0.0
 40
8.839484820163381
  1
46'
 50
2.075362507207605
  7
PLAT
 72
1
 11
290.5245681050074
 21
355.4557990123645
 31
0.0
100
AcDbText
 73
3
  0
TEXT
  5
DE
330
17
100
AcDbEntity
  8
PLAT-TEXT-DIST
100
AcDbText
 10
26.882158946006825
 20
285.29886755005134
 30
0.0
 40
8.839484820163381
  1
75'
 50
91.5163875351783
  7
PLAT
 72
1
 11
26.882158946006825
 21
285.29886755005134
 31
0.0
100
AcDbText
 73
1
  0
TEXT
  5
DF
330
17
100
AcDbEntity
  8
PLAT-TEXT-DIST
100
AcDbText
 10
134.42829343830107
 20
256.7362447738161
 30
0.0
 40
8.839484820163381
  1
102.38'
 50
1.5281681411871342
  7
PLAT
 72
1
 11
134.42829343830107
 21
256.7362447738161
 31
0.0
100
AcDbText
 73
1
  0
TEXT
  5
E0
330
17
100
AcDbEntity
  8
PLAT-TEXT-DIST
100
AcDbText
 10
233.8895001388695
 20
259.38966009042997
 30
0.0
 40
8.839484820163381
  1
83.26'
 50
1.5281681411871644
  7
PLAT
 72
1
 11
233.8895001388695
 21
259.38966009042997
 31
0.0
100
AcDbText
 73
1
  0
TEXT
  5
E1
330
17
100
AcDbEntity
  8
PLAT-TEXT-BRG
100
AcDbText
 10
190.3855460964783
 20
208.8519513385193
 30
0.0
 40
8.839484820163381
  1
N 01%%d58'48" E
 50
88.99414043753325
  7
PLAT
 72
1
 11
190.3855460964783
 21
208.8519513385193
 31
0.0
100
AcDbText
 73
1
  0
TEXT
  5
E2
330
17
100
AcDbEntity
  8
PLAT-TEXT-DIST
100
AcDbText
 10
199.08662887701908
 20
200.89151025244672
 30
0.0
 40
8.839484820163381
  1
100.44'
 50
88.99414043753325
  7
PLAT
 72
1
 11
199.08662887701908
 21
200.89151025244672
 31
0.0
100
AcDbText
 73
3
  0
TEXT
  5
E3
330
17
100
AcDbEntity
  8
PLAT-TEXT-DIST
100
AcDbText
 10
28.785670656157826
 20
213.39263038638924
 30
0.0
 40
8.839484820163381
  1
75'
 50
91.5163875351783
  7
PLAT
 72
1
 11
28.785670656157826
 21
213.39263038638924
 31
0.0
100
AcDbText
 73
1
  0
TEXT
  5
E4
330
17
100
AcDbEntity
  8
PLAT-TEXT-DIST
100
AcDbText
 10
293.9734454271816
 20
205.94539851674776
 30
0.0
 40
8.839484820163381
  1
109.05'
 50
78.69301882672505
  7
PLAT
 72
1
 11
293.9734454271816
 21
205.94539851674776
 31
0.0
100
AcDbText
 73
3
  0
TEXT
  5
E5
330
17
100
AcDbEntity
  8
PLAT-TEXT-DIST
100
AcDbText
 10
99.1693778222758
 20
197.65264458965734
 30
0.0
 40
8.839484820163381
  1
100'
 50
93.08208529475839
  7
PLAT
 72
1
 11
99.1693778222758
 21
197.65264458965734
 31
0.0
100
AcDbText
 73
3
  0
TEXT
  5
E6
330
17
100
AcDbEntity
  8
PLAT-TEXT-DIST
100
AcDbText
 10
136.4706157594988
 20
154.3704506980802
 30
0.0
 40
8.839484820163381
  1
80'
 50
358.49875206439725
  7
PLAT
 72
1
 11
136.4706157594988
 21
154.3704506980802
 31
0.0
100
AcDbText
 73
1
  0
TEXT
  5
E7
330
17
100
AcDbEntity
  8
PLAT-TEXT-DIST
100
AcDbText
 10
237.3575981152804
 20
150.33191427689997
 30
0.0
 40
8.839484820163381
  1
76.78'
 50
355.34605689468754
  7
PLAT
 72
1
 11
237.3575981152804
 21
150.33191427689997
 31
0.0
100
AcDbText
 73
1
  0
TEXT
  5
E8
330
17
100
AcDbEntity
  8
PLAT-TEXT-DIST
100
AcDbText
 10
30.976116575478088
 20
130.6472903241923
 30
0.0
 40
8.839484820163381
  1
75'
 50
91.5163875351783
  7
PLAT
 72
1
 11
30.976116575478088
 21
130.6472903241923
 31
0.0
100
AcDbText
 73
1
  0
TEXT
  5
E9
330
17
100
AcDbEntity
  8
PLAT-TEXT-DIST
100
AcDbText
 10
296.09225659213973
 20
131.8382500659342
 30
0.0
 40
8.839484820163381
  1
4177'
 50
347.18550041769987
  7
PLAT
 72
1
 11
296.09225659213973
 21
131.8382500659342
 31
0.0
100
AcDbText
 73
3
  0
TEXT
  5
EA
330
17
100
AcDbEntity
  8
PLAT-TEXT-DIST
100
AcDbText
 10
291.75976467502693
 20
80.48251687803462
 30
0.0
 40
8.839484820163381
  1
7.24'
 50
345.41168543644466
  7
PLAT
 72
1
 11
291.75976467502693
 21
80.48251687803462
 31
0.0
100
AcDbText
 73
1
  0
TEXT
  5
EB
330
17
100
AcDbEntity
  8
PLAT-TEXT-DIST
100
AcDbText
 10
137.0680963989282
 20
83.58868860502278
 30
0.0
 40
8.839484820163381
  1
80'
 50
0.9093775611620458
  7
PLAT
 72
1
 11
137.0680963989282
 21
83.58868860502278
 31
0.0
100
AcDbText
 73
3
  0
TEXT
  5
EC
330
17
100
AcDbEntity
  8
PLAT-TEXT-DIST
100
AcDbText
 10
243.63766680671222
 20
80.9136209824607
 30
0.0
 40
8.839484820163381
  1
89.76'
 50
352.30898701326356
  7
PLAT
 72
1
 11
243.63766680671222
 21
80.9136209824607
 31
0.0
100
AcDbText
 73
3
  0
TEXT
  5
ED
330
17
100
AcDbEntity
  8
PLAT-TEXT-DIST
100
AcDbText
 10
32.985245095406874
 20
54.7513181187911
 30
0.0
 40
8.839484820163381
  1
75'
 50
91.5163875351783
  7
PLAT
 72
1
 11
32.985245095406874
 21
54.7513181187911
 31
0.0
100
AcDbText
 73
1
  0
TEXT
  5
EE
330
17
100
AcDbEntity
  8
PLAT-TEXT-DIST
100
AcDbText
 10
102.93023738517718
 20
33.77144406776106
 30
0.0
 40
8.839484820163381
  1
100'
 50
90.50765990094497
  7
PLAT
 72
1
 11
102.93023738517718
 21
33.77144406776106
 31
0.0
100
AcDbText
 73
3
  0
TEXT
  5
EF
330
17
100
AcDbEntity
  8
PLAT-TEXT-DIST
100
AcDbText
 10
197.42320670971716
 20
32.48399424376092
 30
0.0
 40
8.839484820163381
  1
99.80'
 50
89.20447466309611
  7
PLAT
 72
1
 11
197.42320670971716
 21
32.48399424376092
 31
0.0
100
AcDbText
 73
3
  0
TEXT
  5
F0
330
17
100
AcDbEntity
  8
PLAT-TEXT-DIST
100
AcDbText
 10
275.1852525726066
 20
21.106663446163747
 30
0.0
 40
8.839484820163381
  1
9.52'
 50
77.76734182321428
  7
PLAT
 72
1
 11
275.1852525726066
 21
21.106663446163747
 31
0.0
100
AcDbText
 73
3
  0
TEXT
  5
F1
330
17
100
AcDbEntity
  8
PLAT-TEXT-LOWCONF
100
AcDbText
 10
-0.45554934356778176
 20
426.4992921658967
 30
0.0
 40
7.354580936854258
  1
~ fl
 50
7.07094666814578
  7
PLAT
 72
1
 11
-0.45554934356778176
 21
426.4992921658967
 31
0.0
100
AcDbText
 73
2
  0
TEXT
  5
F2
330
17
100
AcDbEntity
  8
PLAT-TEXT-LOWCONF
100
AcDbText
 10
200.15820067165782
 20
434.61533606060607
 30
0.0
 40
10.728362267828581
  1
"a
 50
2.0441780042689857
  7
PLAT
 72
1
 11
200.15820067165782
 21
434.61533606060607
 31
0.0
100
AcDbText
 73
2
  0
TEXT
  5
F3
330
17
100
AcDbEntity
  8
PLAT-TEXT-LOWCONF
100
AcDbText
 10
259.2487861036276
 20
433.1771297119945
 30
0.0
 40
7.276057014037585
  1
cw
 50
92.8466418010268
  7
PLAT
 72
1
 11
259.2487861036276
 21
433.1771297119945
 31
0.0
100
AcDbText
 73
2
  0
TEXT
  5
F4
330
17
100
AcDbEntity
  8
PLAT-TEXT-LOWCONF
100
AcDbText
 10
282.44072007561465
 20
439.5426139942799
 30
0.0
 40
9.081687488312204
  1
IS
 50
358.3170336611397
  7
PLAT
 72
1
 11
282.44072007561465
 21
439.5426139942799
 31
0.0
100
AcDbText
 73
2
  0
TEXT
  5
F5
330
17
100
AcDbEntity
  8
PLAT-TEXT-LOWCONF
100
AcDbText
 10
90.56792291941593
 20
415.98242083359605
 30
0.0
 40
8.786251747707313
  1
a
 50
2.8613813962393806
  7
PLAT
 72
1
 11
90.56792291941593
 21
415.98242083359605
 31
0.0
100
AcDbText
 73
2
  0
TEXT
  5
F6
330
17
100
AcDbEntity
  8
PLAT-TEXT-LOWCONF
100
AcDbText
 10
180.86762017834516
 20
413.2490360982914
 30
0.0
 40
4.241638774755255
  1
[ ay
 50
2.8613813962393806
  7
PLAT
 72
1
 11
180.86762017834516
 21
413.2490360982914
 31
0.0
100
AcDbText
 73
2
  0
TEXT
  5
F7
330
17
100
AcDbEntity
  8
PLAT-TEXT-LOWCONF
100
AcDbText
 10
6.347842783831453
 20
394.46422499056143
 30
0.0
 40
6.991620037248679
  1
VO" RY,
 50
2.3684219528516137
  7
PLAT
 72
1
 11
6.347842783831453
 21
394.46422499056143
 31
0.0
100
AcDbText
 73
2
  0
TEXT
  5
F8
330
17
100
AcDbEntity
  8
PLAT-TEXT-LOWCONF
100
AcDbText
 10
101.20879206427819
 20
391.90902275555555
 30
0.0
 40
3.029741981968039
  1
\3
 50
92.86138139623938
  7
PLAT
 72
1
 11
101.20879206427819
 21
391.90902275555555
 31
0.0
100
AcDbText
 73
2
  0
TEXT
  5
F9
330
17
100
AcDbEntity
  8
PLAT-TEXT-LOWCONF
100
AcDbText
 10
5.403264360008649
 20
380.0422397507624
 30
0.0
 40
8.180303351313706
  1
19"
 50
92.86138139623938
  7
PLAT
 72
1
 11
5.403264360008649
 21
380.0422397507624
 31
0.0
100
AcDbText
 73
2
  0
TEXT
  5
FA
330
17
100
AcDbEntity
  8
PLAT-TEXT-LOWCONF
100
AcDbText
 10
105.68874114588576
 20
383.20089681562763
 30
0.0
 40
7.877329153116902
  1
30
 50
92.86138139623938
  7
PLAT
 72
1
 11
105.68874114588576
 21
383.20089681562763
 31
0.0
100
AcDbText
 73
2
  0
TEXT
  5
FB
330
17
100
AcDbEntity
  8
PLAT-TEXT-LOWCONF
100
AcDbText
 10
106.10046098623425
 20
374.96354875478175
 30
0.0
 40
8.180303351313706
  1
19
 50
92.86138139623938
  7
PLAT
 72
1
 11
106.10046098623425
 21
374.96354875478175
 31
0.0
100
AcDbText
 73
2
  0
TEXT
  5
FC
330
17
100
AcDbEntity
  8
PLAT-TEXT-UNASSOC
100
AcDbText
 10
6.1510217995421215
 20
361.70994059826137
 30
0.0
 40
8.79919356432506
  1
(@.9'
 50
92.80929407156987
  7
PLAT
 72
1
 11
6.1510217995421215
 21
361.70994059826137
 31
0.0
100
AcDbText
 73
2
  0
TEXT
  5
FD
330
17
100
AcDbEntity
  8
PLAT-TEXT-LOWCONF
100
AcDbText
 10
268.8297510959395
 20
362.87360424689905
 30
0.0
 40
3.029741981968039
  1
9
 50
2.8613813962393806
  7
PLAT
 72
1
 11
268.8297510959395
 21
362.87360424689905
 31
0.0
100
AcDbText
 73
2
  0
TEXT
  5
FE
330
17
100
AcDbEntity
  8
PLAT-TEXT-LOWCONF
100
AcDbText
 10
94.39961885738617
 20
349.43640710759763
 30
0.0
 40
9.762501941897014
  1
4
 50
2.8613813962393806
  7
PLAT
 72
1
 11
94.39961885738617
 21
349.43640710759763
 31
0.0
100
AcDbText
 73
2
  0
TEXT
  5
FF
330
17
100
AcDbEntity
  8
PLAT-TEXT-LOWCONF
100
AcDbText
 10
194.6766931975419
 20
352.76317331656185
 30
0.0
 40
3.029741981968039
  1
"4
 50
2.8613813962393806
  7
PLAT
 72
1
 11
194.6766931975419
 21
352.76317331656185
 31
0.0
100
AcDbText
 73
2
  0
TEXT
  5
100
330
17
100
AcDbEntity
  8
PLAT-TEXT-LOWCONF
100
AcDbText
 10
18.355287915622824
 20
336.7035096671201
 30
0.0
 40
12.118967927872156
  1
’ 4
 50
92.86138139623938
  7
PLAT
 72
1
 11
18.355287915622824
 21
336.7035096671201
 31
0.0
100
AcDbText
 73
2
  0
TEXT
  5
101
330
17
100
AcDbEntity
  8
PLAT-TEXT-LOWCONF
100
AcDbText
 10
208.60609538694297
 20
336.94928854520595
 30
0.0
 40
13.810087466235071
  1
3
 50
92.66668955734423
  7
PLAT
 72
1
 11
208.60609538694297
 21
336.94928854520595
 31
0.0
100
AcDbText
 73
2
  0
TEXT
  5
102
330
17
100
AcDbEntity
  8
PLAT-TEXT-LOWCONF
100
AcDbText
 10
106.77217480657858
 20
334.55013460527573
 30
0.0
 40
2.726767783771235
  1
3 1
 50
92.86138139623938
  7
PLAT
 72
1
 11
106.77217480657858
 21
334.55013460527573
 31
0.0
100
AcDbText
 73
2
  0
TEXT
  5
103
330
17
100
AcDbEntity
  8
PLAT-TEXT-LOWCONF
100
AcDbText
 10
281.6468263107751
 20
315.5074111087873
 30
0.0
 40
13.554365834826797
  1
105.13" 2
 50
92.4083333333333
  7
PLAT
 72
1
 11
281.6468263107751
 21
315.5074111087873
 31
0.0
100
AcDbText
 73
2
  0
TEXT
  5
104
330
17
100
AcDbEntity
  8
PLAT-TEXT-LOWCONF
100
AcDbText
 10
121.25458784723497
 20
324.6566615219213
 30
0.0
 40
14.13879591585085
  1
3
 50
2.8613813962393806
  7
PLAT
 72
1
 11
121.25458784723497
 21
324.6566615219213
 31
0.0
100
AcDbText
 73
2
  0
TEXT
  5
105
330
17
100
AcDbEntity
  8
PLAT-TEXT-LOWCONF
100
AcDbText
 10
9.521720559111742
 20
319.4402283006818
 30
0.0
 40
8.326461937164911
  1
ore.
 50
0.483748335141855
  7
PLAT
 72
1
 11
9.521720559111742
 21
319.4402283006818
 31
0.0
100
AcDbText
 73
2
  0
TEXT
  5
106
330
17
100
AcDbEntity
  8
PLAT-TEXT-LOWCONF
100
AcDbText
 10
120.9264708564039
 20
307.61882084788306
 30
0.0
 40
7.742673953918322
  1
9
 50
2.8613813962393806
  7
PLAT
 72
1
 11
120.9264708564039
 21
307.61882084788306
 31
0.0
100
AcDbText
 73
2
  0
TEXT
  5
107
330
17
100
AcDbEntity
  8
PLAT-TEXT-LOWCONF
100
AcDbText
 10
139.5893969665709
 20
304.2015109979726
 30
0.0
 40
13.944682708491365
  1
‘24
 50
17.34731200213605
  7
PLAT
 72
1
 11
139.5893969665709
 21
304.2015109979726
 31
0.0
100
AcDbText
 73
2
  0
TEXT
  5
108
330
17
100
AcDbEntity
  8
PLAT-TEXT-LOTNO
100
AcDbText
 10
226.16413261974947
 20
302.6282646040011
 30
0.0
 40
14.88222191720892
  1
25
 50
13.188323659781645
  7
PLAT
 72
1
 11
226.16413261974947
 21
302.6282646040011
 31
0.0
100
AcDbText
 73
2
  0
TEXT
  5
109
330
17
100
AcDbEntity
  8
PLAT-TEXT-LOWCONF
100
AcDbText
 10
120.93469261311247
 20
297.3389557206862
 30
0.0
 40
10.301122738691333
  1
A
 50
92.86138139623938
  7
PLAT
 72
1
 11
120.93469261311247
 21
297.3389557206862
 31
0.0
100
AcDbText
 73
2
  0
TEXT
  5
10A
330
17
100
AcDbEntity
  8
PLAT-TEXT-LOWCONF
100
AcDbText
 10
-2.0960537597858035
 20
287.313452692627
 30
0.0
 40
5.722845965939629
  1
4
 50
2.8613813962393806
  7
PLAT
 72
1
 11
-2.0960537597858035
 21
287.313452692627
 31
0.0
100
AcDbText
 73
2
  0
TEXT
  5
10B
330
17
100
AcDbEntity
  8
PLAT-TEXT-LOTNO
100
AcDbText
 10
56.28787253883371
 20
268.99693452716286
 30
0.0
 40
15.620003107035226
  1
3
 50
92.86138139623938
  7
PLAT
 72
1
 11
56.28787253883371
 21
268.99693452716286
 31
0.0
100
AcDbText
 73
2
  0
TEXT
  5
10C
330
17
100
AcDbEntity
  8
PLAT-TEXT-LOWCONF
100
AcDbText
 10
102.55741681221434
 20
272.2869131620517
 30
0.0
 40
8.414622068345443
  1
x
 50
299.0495079580427
  7
PLAT
 72
1
 11
102.55741681221434
 21
272.2869131620517
 31
0.0
100
AcDbText
 73
2
  0
TEXT
  5
10D
330
17
100
AcDbEntity
  8
PLAT-TEXT-LOWCONF
100
AcDbText
 10
146.07140282751385
 20
274.6831201716109
 30
0.0
 40
9.308087200560884
  1
5900: B5098 |
 50
1.3174153887797502
  7
PLAT
 72
1
 11
146.07140282751385
 21
274.6831201716109
 31
0.0
100
AcDbText
 73
2
  0
TEXT
  5
10E
330
17
100
AcDbEntity
  8
PLAT-TEXT-LOWCONF
100
AcDbText
 10
56.57325454500652
 20
246.42829698930382
 30
0.0
 40
15.620003107035226
  1
“1
 50
92.86138139623938
  7
PLAT
 72
1
 11
56.57325454500652
 21
246.42829698930382
 31
0.0
100
AcDbText
 73
2
  0
TEXT
  5
10F
330
17
100
AcDbEntity
  8
PLAT-TEXT-LOWCONF
100
AcDbText
 10
280.0779837243763
 20
210.935452026445
 30
0.0
 40
14.058002796331703
  1
iain
 50
78.693018826725
  7
PLAT
 72
1
 11
280.0779837243763
 21
210.935452026445
 31
0.0
100
AcDbText
 73
2
  0
TEXT
  5
110
330
17
100
AcDbEntity
  8
PLAT-TEXT-LOWCONF
100
AcDbText
 10
173.92676226793444
 20
242.69843571520835
 30
0.0
 40
12.897559104654107
  1
val
 50
91.52816814118711
  7
PLAT
 72
1
 11
173.92676226793444
 21
242.69843571520835
 31
0.0
100
AcDbText
 73
2
  0
TEXT
  5
111
330
17
100
AcDbEntity
  8
PLAT-TEXT-LOWCONF
100
AcDbText
 10
274.887974202578
 20
247.67610801730922
 30
0.0
 40
9.340394788956923
  1
Oe.
 50
1.528168141187166
  7
PLAT
 72
1
 11
274.887974202578
 21
247.67610801730922
 31
0.0
100
AcDbText
 73
2
  0
TEXT
  5
112
330
17
100
AcDbEntity
  8
PLAT-TEXT-LOWCONF
100
AcDbText
 10
165.12944825593138
 20
235.8438960073248
 30
0.0
 40
4.847587171148863
  1
ry
 50
2.8613813962393806
  7
PLAT
 72
1
 11
165.12944825593138
 21
235.8438960073248
 31
0.0
100
AcDbText
 73
2
  0
TEXT
  5
113
330
17
100
AcDbEntity
  8
PLAT-TEXT-LOWCONF
100
AcDbText
 10
167.71812429417318
 20
224.51330355725668
 30
0.0
 40
12.724916324265765
  1
"20%%d
 50
92.86138139623938
  7
PLAT
 72
1
 11
167.71812429417318
 21
224.51330355725668
 31
0.0
100
AcDbText
 73
2
  0
TEXT
  5
114
330
17
100
AcDbEntity
  8
PLAT-TEXT-LOWCONF
100
AcDbText
 10
177.41441183926534
 20
211.82110995843647
 30
0.0
 40
7.815685887872375
  1
BOL
 50
88.99414043753325
  7
PLAT
 72
1
 11
177.41441183926534
 21
211.82110995843647
 31
0.0
100
AcDbText
 73
2
  0
TEXT
  5
115
330
17
100
AcDbEntity
  8
PLAT-TEXT-LOWCONF
100
AcDbText
 10
165.42329293749654
 20
216.47773465306622
 30
0.0
 40
3.7030179779609367
  1
3
 50
2.8613813962393806
  7
PLAT
 72
1
 11
165.42329293749654
 21
216.47773465306622
 31
0.0
100
AcDbText
 73
2
  0
TEXT
  5
116
330
17
100
AcDbEntity
  8
PLAT-TEXT-LOWCONF
100
AcDbText
 10
167.9784194225237
 20
209.19016410709298
 30
0.0
 40
7.574354954920097
  1
18
 50
2.8613813962393806
  7
PLAT
 72
1
 11
167.9784194225237
 21
209.19016410709298
 31
0.0
100
AcDbText
 73
2
  0
TEXT
  5
117
330
17
100
AcDbEntity
  8
PLAT-TEXT-LOTNO
100
AcDbText
 10
138.67830664488642
 20
203.3072795520464
 30
0.0
 40
15.220025366675902
  1
23
 50
20.938911708064893
  7
PLAT
 72
1
 11
138.67830664488642
 21
203.3072795520464
 31
0.0
100
AcDbText
 73
2
  0
TEXT
  5
118
330
17
100
AcDbEntity
  8
PLAT-TEXT-LOTNO
100
AcDbText
 10
241.1239304847831
 20
205.34340204976849
 30
0.0
 40
15.620003107035226
  1
22
 50
16.627671299817735
  7
PLAT
 72
1
 11
241.1239304847831
 21
205.34340204976849
 31
0.0
100
AcDbText
 73
2
  0
TEXT
  5
119
330
17
100
AcDbEntity
  8
PLAT-TEXT-LOWCONF
100
AcDbText
 10
168.0539209746744
 20
200.9360111548043
 30
0.0
 40
9.695174342297726
  1
ig
 50
2.8613813962393806
  7
PLAT
 72
1
 11
168.0539209746744
 21
200.9360111548043
 31
0.0
100
AcDbText
 73
2
  0
TEXT
  5
11A
330
17
100
AcDbEntity
  8
PLAT-TEXT-MISC
100
AcDbText
 10
166.4988059898355
 20
194.9597642084076
 30
0.0
 40
5.756509765739274
  1
rot
 50
92.86138139623938
  7
PLAT
 72
1
 11
166.4988059898355
 21
194.9597642084076
 31
0.0
100
AcDbText
 73
2
  0
TEXT
  5
11B
330
17
100
AcDbEntity
  8
PLAT-TEXT-LOWCONF
100
AcDbText
 10
168.19658186292534
 20
187.96639972202516
 30
0.0
 40
6.362458162132882
  1
194
 50
92.86138139623938
  7
PLAT
 72
1
 11
168.19658186292534
 21
187.96639972202516
 31
0.0
100
AcDbText
 73
2
  0
TEXT
  5
11C
330
17
100
AcDbEntity
  8
PLAT-TEXT-LOWCONF
100
AcDbText
 10
63.33848817382152
 20
181.8827278713784
 30
0.0
 40
6.732759959928975
  1
8
 50
2.8613813962393806
  7
PLAT
 72
1
 11
63.33848817382152
 21
181.8827278713784
 31
0.0
100
AcDbText
 73
2
  0
TEXT
  5
11D
330
17
100
AcDbEntity
  8
PLAT-TEXT-LOTNO
100
AcDbText
 10
60.71005153157556
 20
165.53646111176027
 30
0.0
 40
14.329670117161752
  1
9
 50
33.2839281068716
  7
PLAT
 72
1
 11
60.71005153157556
 21
165.53646111176027
 31
0.0
100
AcDbText
 73
2
  0
TEXT
  5
11E
330
17
100
AcDbEntity
  8
PLAT-TEXT-LOWCONF
100
AcDbText
 10
232.83154854914085
 20
168.75710915905063
 30
0.0
 40
9.316524657286308
  1
1.64%%d3140'
 50
355.34605689468754
  7
PLAT
 72
1
 11
232.83154854914085
 21
168.75710915905063
 31
0.0
100
AcDbText
 73
2
  0
TEXT
  5
11F
330
17
100
AcDbEntity
  8
PLAT-TEXT-LOWCONF
100
AcDbText
 10
179.5938518117262
 20
158.874934658182
 30
0.0
 40
14.058002796331703
  1
Ss
 50
92.86138139623938
  7
PLAT
 72
1
 11
179.5938518117262
 21
158.874934658182
 31
0.0
100
AcDbText
 73
2
  0
TEXT
  5
120
330
17
100
AcDbEntity
  8
PLAT-TEXT-LOWCONF
100
AcDbText
 10
99.00229199291314
 20
152.82445098272427
 30
0.0
 40
9.762501941897014
  1
4
 50
2.8613813962393806
  7
PLAT
 72
1
 11
99.00229199291314
 21
152.82445098272427
 31
0.0
100
AcDbText
 73
2
  0
TEXT
  5
121
330
17
100
AcDbEntity
  8
PLAT-TEXT-LOWCONF
100
AcDbText
 10
289.29167481865784
 20
160.25636663464962
 30
0.0
 40
9.502705662969685
  1
8
 50
280.7276580093562
  7
PLAT
 72
1
 11
289.29167481865784
 21
160.25636663464962
 31
0.0
100
AcDbText
 73
2
  0
TEXT
  5
122
330
17
100
AcDbEntity
  8
PLAT-TEXT-LOWCONF
100
AcDbText
 10
61.30359056746978
 20
138.3005075508284
 30
0.0
 40
14.058002796331703
  1
LV.
 50
92.86138139623938
  7
PLAT
 72
1
 11
61.30359056746978
 21
138.3005075508284
 31
0.0
100
AcDbText
 73
2
  0
TEXT
  5
123
330
17
100
AcDbEntity
  8
PLAT-TEXT-LOWCONF
100
AcDbText
 10
301.1860532036127
 20
157.9684907915596
 30
0.0
 40
10.083271498742372
  1
= . y
 50
45.18129164206039
  7
PLAT
 72
1
 11
301.1860532036127
 21
157.9684907915596
 31
0.0
100
AcDbText
 73
2
  0
TEXT
  5
124
330
17
100
AcDbEntity
  8
PLAT-TEXT-LOWCONF
100
AcDbText
 10
268.750153926165
 20
141.92795491563476
 30
0.0
 40
3.635690378361647
  1
mer
 50
2.8613813962393806
  7
PLAT
 72
1
 11
268.750153926165
 21
141.92795491563476
 31
0.0
100
AcDbText
 73
2
  0
TEXT
  5
125
330
17
100
AcDbEntity
  8
PLAT-TEXT-LOTNO
100
AcDbText
 10
267.60675878167456
 20
127.71435990839215
 30
0.0
 40
15.485347907836644
  1
2
 50
2.8613813962393806
  7
PLAT
 72
1
 11
267.60675878167456
 21
127.71435990839215
 31
0.0
100
AcDbText
 73
2
  0
TEXT
  5
126
330
17
100
AcDbEntity
  8
PLAT-TEXT-LOWCONF
100
AcDbText
 10
62.034422656218595
 20
113.56325603112657
 30
0.0
 40
15.620003107035226
  1
4
 50
92.86138139623938
  7
PLAT
 72
1
 11
62.034422656218595
 21
113.56325603112657
 31
0.0
100
AcDbText
 73
2
  0
TEXT
  5
127
330
17
100
AcDbEntity
  8
PLAT-TEXT-LOWCONF
100
AcDbText
 10
153.48430472424096
 20
120.00523723376077
 30
0.0
 40
9.749605181760494
  1
"2.028508 NS
 50
0.47494395727471783
  7
PLAT
 72
1
 11
153.48430472424096
 21
120.00523723376077
 31
0.0
100
AcDbText
 73
2
  0
TEXT
  5
128
330
17
100
AcDbEntity
  8
PLAT-TEXT-LOWCONF
100
AcDbText
 10
116.44051064102325
 20
107.85534787687992
 30
0.0
 40
13.03786321704671
  1
SS
 50
0.9093775611621027
  7
PLAT
 72
1
 11
116.44051064102325
 21
107.85534787687992
 31
0.0
100
AcDbText
 73
2
  0
TEXT
  5
129
330
17
100
AcDbEntity
  8
PLAT-TEXT-LOWCONF
100
AcDbText
 10
254.6943795535786
 20
111.98001935188006
 30
0.0
 40
10.143025247452284
  1
4=36%%d
 50
355.4054031083754
  7
PLAT
 72
1
 11
254.6943795535786
 21
111.98001935188006
 31
0.0
100
AcDbText
 73
2
  0
TEXT
  5
12A
330
17
100
AcDbEntity
  8
PLAT-TEXT-LOWCONF
100
AcDbText
 10
62.84087675645996
 20
87.31302221453467
 30
0.0
 40
14.058002796331703
  1
M
 50
92.86138139623938
  7
PLAT
 72
1
 11
62.84087675645996
 21
87.31302221453467
 31
0.0
100
AcDbText
 73
2
  0
TEXT
  5
12B
330
17
100
AcDbEntity
  8
PLAT-TEXT-LOWCONF
100
AcDbText
 10
296.0178539977446
 20
104.4755611600082
 30
0.0
 40
9.645636800959293
  1
20%%d
 50
352.23852465671274
  7
PLAT
 72
1
 11
296.0178539977446
 21
104.4755611600082
 31
0.0
100
AcDbText
 73
2
  0
TEXT
  5
12C
330
17
100
AcDbEntity
  8
PLAT-TEXT-LOWCONF
100
AcDbText
 10
177.74356709256148
 20
98.11197185665907
 30
0.0
 40
3.7030179779609367
  1
3
 50
2.8613813962393806
  7
PLAT
 72
1
 11
177.74356709256148
 21
98.11197185665907
 31
0.0
100
AcDbText
 73
2
  0
TEXT
  5
12D
330
17
100
AcDbEntity
  8
PLAT-TEXT-LOWCONF
100
AcDbText
 10
100.58128926215561
 20
84.14349328743953
 30
0.0
 40
10.435777937889911
  1
3
 50
2.8613813962393806
  7
PLAT
 72
1
 11
100.58128926215561
 21
84.14349328743953
 31
0.0
100
AcDbText
 73
2
  0
TEXT
  5
12E
330
17
100
AcDbEntity
  8
PLAT-TEXT-LOWCONF
100
AcDbText
 10
180.5169162476612
 20
72.97122225331734
 30
0.0
 40
14.058002796331703
  1
A
 50
2.8613813962393806
  7
PLAT
 72
1
 11
180.5169162476612
 21
72.97122225331734
 31
0.0
100
AcDbText
 73
2
  0
TEXT
  5
12F
330
17
100
AcDbEntity
  8
PLAT-TEXT-LOWCONF
100
AcDbText
 10
163.58612381413462
 20
57.63608554927794
 30
0.0
 40
8.890642283957277
  1
a a
 50
47.76362458051369
  7
PLAT
 72
1
 11
163.58612381413462
 21
57.63608554927794
 31
0.0
100
AcDbText
 73
2
  0
TEXT
  5
130
330
17
100
AcDbEntity
  8
PLAT-TEXT-LOWCONF
100
AcDbText
 10
236.05568221256945
 20
63.29089084667004
 30
0.0
 40
8.458424666751755
  1
Of 19028
 50
353.4315619401044
  7
PLAT
 72
1
 11
236.05568221256945
 21
63.29089084667004
 31
0.0
100
AcDbText
 73
2
  0
TEXT
  5
131
330
17
100
AcDbEntity
  8
PLAT-TEXT-LOWCONF
100
AcDbText
 10
186.21585809398385
 20
33.61406156852814
 30
0.0
 40
8.499606091556501
  1
MeVGLIP
 50
89.20447466309611
  7
PLAT
 72
1
 11
186.21585809398385
 21
33.61406156852814
 31
0.0
100
AcDbText
 73
2
  0
TEXT
  5
132
330
17
100
AcDbEntity
  8
PLAT-TEXT-LOWCONF
100
AcDbText
 10
263.50981917426793
 20
33.534470644457485
 30
0.0
 40
13.647294715220198
  1
P25E. =
 50
77.76734182321434
  7
PLAT
 72
1
 11
263.50981917426793
 21
33.534470644457485
 31
0.0
100
AcDbText
 73
2
  0
TEXT
  5
133
330
17
100
AcDbEntity
  8
PLAT-TEXT-LOWCONF
100
AcDbText
 10
309.2461470207826
 20
60.02452943020671
 30
0.0
 40
5.45353556754247
  1
A
 50
92.86138139623938
  7
PLAT
 72
1
 11
309.2461470207826
 21
60.02452943020671
 31
0.0
100
AcDbText
 73
2
  0
TEXT
  5
134
330
17
100
AcDbEntity
  8
PLAT-TEXT-LOWCONF
100
AcDbText
 10
292.423841823083
 20
52.57078013060391
 30
0.0
 40
9.307238250649721
  1
OLN
 50
355.94386891330316
  7
PLAT
 72
1
 11
292.423841823083
 21
52.57078013060391
 31
0.0
100
AcDbText
 73
2
  0
TEXT
  5
135
330
17
100
AcDbEntity
  8
PLAT-TEXT-LOWCONF
100
AcDbText
 10
128.1424845030068
 20
41.52612272609622
 30
0.0
 40
15.620003107035226
  1
23,
 50
23.321727453024835
  7
PLAT
 72
1
 11
128.1424845030068
 21
41.52612272609622
 31
0.0
100
AcDbText
 73
2
  0
TEXT
  5
136
330
17
100
AcDbEntity
  8
PLAT-TEXT-LOWCONF
100
AcDbText
 10
154.61082132762098
 20
45.0487812788254
 30
0.0
 40
8.180303351313706
  1
10,
 50
2.8613813962393806
  7
PLAT
 72
1
 11
154.61082132762098
 21
45.0487812788254
 31
0.0
100
AcDbText
 73
2
  0
TEXT
  5
137
330
17
100
AcDbEntity
  8
PLAT-TEXT-LOWCONF
100
AcDbText
 10
66.84092275721285
 20
34.25775224505489
 30
0.0
 40
14.058002796331703
  1
AV.
 50
92.86138139623938
  7
PLAT
 72
1
 11
66.84092275721285
 21
34.25775224505489
 31
0.0
100
AcDbText
 73
2
  0
TEXT
  5
138
330
17
100
AcDbEntity
  8
PLAT-TEXT-LOWCONF
100
AcDbText
 10
165.5379156940492
 20
45.59494025071626
 30
0.0
 40
2.726767783771235
  1
a
 50
2.8613813962393806
  7
PLAT
 72
1
 11
165.5379156940492
 21
45.59494025071626
 31
0.0
100
AcDbText
 73
2
  0
TEXT
  5
139
330
17
100
AcDbEntity
  8
PLAT-TEXT-MISC
100
AcDbText
 10
306.0639956791318
 20
49.27112476938507
 30
0.0
 40
7.628094638230582
  1
Tos
 50
345.41168543644466
  7
PLAT
 72
1
 11
306.0639956791318
 21
49.27112476938507
 31
0.0
100
AcDbText
 73
2
  0
TEXT
  5
13A
330
17
100
AcDbEntity
  8
PLAT-TEXT-LOWCONF
100
AcDbText
 10
163.70539954106226
 20
38.42512440418446
 30
0.0
 40
11.10905393388281
  1
9
 50
2.8613813962393806
  7
PLAT
 72
1
 11
163.70539954106226
 21
38.42512440418446
 31
0.0
100
AcDbText
 73
2
  0
TEXT
  5
13B
330
17
100
AcDbEntity
  8
PLAT-TEXT-LOWCONF
100
AcDbText
 10
144.7594207025445
 20
33.09640784537385
 30
0.0
 40
8.180303351313706
  1
AY
 50
2.8613813962393806
  7
PLAT
 72
1
 11
144.7594207025445
 21
33.09640784537385
 31
0.0
100
AcDbText
 73
2
  0
TEXT
  5
13C
330
17
100
AcDbEntity
  8
PLAT-TEXT-LOWCONF
100
AcDbText
 10
159.08230773383622
 20
33.13817915529705
 30
0.0
 40
9.99814854049453
  1
a.
 50
2.8613813962393806
  7
PLAT
 72
1
 11
159.08230773383622
 21
33.13817915529705
 31
0.0
100
AcDbText
 73
2
  0
TEXT
  5
13D
330
17
100
AcDbEntity
  8
PLAT-TEXT-LOWCONF
100
AcDbText
 10
145.0040777668581
 20
26.252843826166156
 30
0.0
 40
12.90413513438896
  1
ow
 50
0.7260620776824669
  7
PLAT
 72
1
 11
145.0040777668581
 21
26.252843826166156
 31
0.0
100
AcDbText
 73
2
  0
TEXT
  5
13E
330
17
100
AcDbEntity
  8
PLAT-TEXT-LOTNO
100
AcDbText
 10
228.73959299455663
 20
28.190343723794513
 30
0.0
 40
14.426492123181339
  1
24
 50
10.97121712518026
  7
PLAT
 72
1
 11
228.73959299455663
 21
28.190343723794513
 31
0.0
100
AcDbText
 73
2
  0
TEXT
  5
13F
330
17
100
AcDbEntity
  8
PLAT-TEXT-LOWCONF
100
AcDbText
 10
64.11105191134826
 20
18.095618738556595
 30
0.0
 40
3.078486977000664
  1
ee
 50
278.13450224308355
  7
PLAT
 72
1
 11
64.11105191134826
 21
18.095618738556595
 31
0.0
100
AcDbText
 73
2
  0
TEXT
  5
140
330
17
100
AcDbEntity
  8
PLAT-TEXT-LOWCONF
100
AcDbText
 10
148.1465700030029
 20
19.27778801670786
 30
0.0
 40
8.48327754951051
  1
a
 50
2.8613813962393806
  7
PLAT
 72
1
 11
148.1465700030029
 21
19.27778801670786
 31
0.0
100
AcDbText
 73
2
  0
TEXT
  5
141
330
17
100
AcDbEntity
  8
PLAT-TEXT-LOWCONF
100
AcDbText
 10
25.510919268023116
 20
11.462911199098471
 30
0.0
 40
3.635690378361647
  1
a?
 50
92.86138139623938
  7
PLAT
 72
1
 11
25.510919268023116
 21
11.462911199098471
 31
0.0
100
AcDbText
 73
2
  0
TEXT
  5
142
330
17
100
AcDbEntity
  8
PLAT-TEXT-LOWCONF
100
AcDbText
 10
30.844993063933018
 20
1.747645128553529
 30
0.0
 40
10.390818068850631
  1
to’
 50
91.5163875351783
  7
PLAT
 72
1
 11
30.844993063933018
 21
1.747645128553529
 31
0.0
100
AcDbText
 73
2
  0
TEXT
  5
143
330
17
100
AcDbEntity
  8
PLAT-TEXT-LOWCONF
100
AcDbText
 10
67.9163153502099
 20
5.998611144997653
 30
0.0
 40
9.089225945904117
  1
9
 50
2.8613813962393806
  7
PLAT
 72
1
 11
67.9163153502099
 21
5.998611144997653
 31
0.0
100
AcDbText
 73
2
  0
TEXT
  5
144
330
17
100
AcDbEntity
  8
PLAT-TEXT-LOWCONF
100
AcDbText
 10
121.32110596329446
 20
2.5815996668408445
 30
0.0
 40
8.119804792755605
  1
x
 50
358.26996370228005
  7
PLAT
 72
1
 11
121.32110596329446
 21
2.5815996668408445
 31
0.0
100
AcDbText
 73
2
  0
TEXT
  5
145
330
17
100
AcDbEntity
  8
PLAT-TEXT-LOWCONF
100
AcDbText
 10
302.8672144192638
 20
11.30492682332607
 30
0.0
 40
7.497547817414051
  1
DE
 50
0.09086282514142274
  7
PLAT
 72
1
 11
302.8672144192638
 21
11.30492682332607
 31
0.0
100
AcDbText
 73
2
  0
CIRCLE
  5
146
330
17
100
AcDbEntity
  8
PLAT-QA
100
AcDbCircle
 10
138.0621938127866
 20
423.25090665448613
 30
0.0
 40
34.12404988017907
  0
TEXT
  5
147
330
17
100
AcDbEntity
  8
PLAT-QA
100
AcDbText
 10
138.0621938127866
 20
397.7026091017186
 30
0.0
 40
6.187639374114367
  1
MEAS 78.23
 72
1
 11
138.0621938127866
 21
397.7026091017186
 31
0.0
100
AcDbText
 73
3
  0
CIRCLE
  5
148
330
17
100
AcDbEntity
  8
PLAT-QA
100
AcDbCircle
 10
136.52757969055415
 20
156.54400632805732
 30
0.0
 40
22.56368559374817
  0
TEXT
  5
149
330
17
100
AcDbEntity
  8
PLAT-QA
100
AcDbText
 10
136.52757969055415
 20
132.60263479575707
 30
0.0
 40
6.187639374114367
  1
MEAS 96.52
 72
1
 11
136.52757969055415
 21
132.60263479575707
 31
0.0
100
AcDbText
 73
3
  0
CIRCLE
  5
14A
330
17
100
AcDbEntity
  8
PLAT-QA
100
AcDbCircle
 10
105.28768684163619
 20
33.79233241044062
 30
0.0
 40
25.780290141977826
  0
TEXT
  5
14B
330
17
100
AcDbEntity
  8
PLAT-QA
100
AcDbText
 10
105.28768684163619
 20
10.332103308338677
 30
0.0
 40
6.187639374114367
  1
MEAS 89.29
 72
1
 11
105.28768684163619
 21
10.332103308338677
 31
0.0
100
AcDbText
 73
3
  0
ENDSEC
  0
SECTION
  2
OBJECTS
  0
DICTIONARY
  5
A
330
0
100
AcDbDictionary
281
1
  3
ACAD_COLOR
350
B
  3
ACAD_GROUP
350
C
  3
ACAD_LAYOUT
350
D
  3
ACAD_MATERIAL
350
E
  3
ACAD_MLEADERSTYLE
350
F
  3
ACAD_MLINESTYLE
350
10
  3
ACAD_PLOTSETTINGS
350
11
  3
ACAD_PLOTSTYLENAME
350
12
  3
ACAD_SCALELIST
350
14
  3
ACAD_TABLESTYLE
350
15
  3
ACAD_VISUALSTYLE
350
16
  3
EZDXF_META
350
2D
  0
DICTIONARY
  5
B
330
A
100
AcDbDictionary
281
1
  0
DICTIONARY
  5
C
330
A
100
AcDbDictionary
281
1
  0
DICTIONARY
  5
D
330
A
100
AcDbDictionary
281
1
  3
Model
350
1A
  3
Layout1
350
1E
  0
DICTIONARY
  5
E
330
A
100
AcDbDictionary
281
1
  3
ByBlock
350
1F
  3
ByLayer
350
20
  3
Global
350
21
  0
DICTIONARY
  5
F
330
A
100
AcDbDictionary
281
1
  3
Standard
350
2C
  0
DICTIONARY
  5
10
330
A
100
AcDbDictionary
281
1
  3
Standard
350
22
  0
DICTIONARY
  5
11
330
A
100
AcDbDictionary
281
1
  0
ACDBDICTIONARYWDFLT
  5
12
330
A
100
AcDbDictionary
281
1
  3
Normal
350
13
100
AcDbDictionaryWithDefault
340
13
  0
ACDBPLACEHOLDER
  5
13
330
12
  0
DICTIONARY
  5
14
330
A
100
AcDbDictionary
281
1
  0
DICTIONARY
  5
15
330
A
100
AcDbDictionary
281
1
  0
DICTIONARY
  5
16
330
A
100
AcDbDictionary
281
1
  3
2dWireframe
350
5A
  3
Basic
350
5B
  3
Brighten
350
5C
  3
ColorChange
350
5D
  3
Conceptual
350
5E
  3
Dim
350
5F
  3
EdgeColorOff
350
60
  3
Facepattern
350
61
  3
Flat
350
62
  3
FlatWithEdges
350
63
  3
Gouraud
350
64
  3
GouraudWithEdges
350
65
  3
Hidden
350
66
  3
JitterOff
350
67
  3
Linepattern
350
68
  3
Modeling
350
69
  3
OverhangOff
350
6A
  3
Realistic
350
6B
  3
Shaded
350
6C
  3
Shaded with edges
350
6D
  3
Shades of Gray
350
6E
  3
Sketchy
350
6F
  3
Thicken
350
70
  3
Wireframe
350
71
  3
X-Ray
350
72
  0
LAYOUT
  5
1A
330
D
100
AcDbPlotSettings
  1

  4
A3
  6

 40
7.5
 41
20.0
 42
7.5
 43
20.0
 44
420.0
 45
297.0
 46
0.0
 47
0.0
 48
0.0
 49
0.0
140
0.0
141
0.0
142
1.0
143
1.0
 70
1024
 72
1
 73
0
 74
5
  7

 75
16
 76
0
 77
2
 78
300
147
1.0
148
0.0
149
0.0
100
AcDbLayout
  1
Model
 70
1
 71
0
 10
0.0
 20
0.0
 11
420.0
 21
297.0
 12
0.0
 22
0.0
 32
0.0
 14
1e+20
 24
1e+20
 34
1e+20
 15
-1e+20
 25
-1e+20
 35
-1e+20
146
0.0
 13
0.0
 23
0.0
 33
0.0
 16
1.0
 26
0.0
 36
0.0
 17
0.0
 27
1.0
 37
0.0
 76
1
330
17
  0
LAYOUT
  5
1E
330
D
100
AcDbPlotSettings
  1

  4
A3
  6

 40
7.5
 41
20.0
 42
7.5
 43
20.0
 44
420.0
 45
297.0
 46
0.0
 47
0.0
 48
0.0
 49
0.0
140
0.0
141
0.0
142
1.0
143
1.0
 70
0
 72
1
 73
0
 74
5
  7

 75
16
 76
0
 77
2
 78
300
147
1.0
148
0.0
149
0.0
100
AcDbLayout
  1
Layout1
 70
1
 71
1
 10
0.0
 20
0.0
 11
420.0
 21
297.0
 12
0.0
 22
0.0
 32
0.0
 14
1e+20
 24
1e+20
 34
1e+20
 15
-1e+20
 25
-1e+20
 35
-1e+20
146
0.0
 13
0.0
 23
0.0
 33
0.0
 16
1.0
 26
0.0
 36
0.0
 17
0.0
 27
1.0
 37
0.0
 76
1
330
1B
  0
MATERIAL
  5
1F
102
{ACAD_REACTORS
330
E
102
}
330
E
100
AcDbMaterial
  1
ByBlock
  2

 70
0
 40
1.0
 71
1
 41
1.0
 91
-1023410177
 42
1.0
 72
1
  3

 73
1
 74
1
 75
1
 44
0.5
 73
0
 45
1.0
 46
1.0
 77
1
  4

 78
1
 79
1
170
1
 48
1.0
171
1
  6

172
1
173
1
174
1
140
1.0
141
1.0
175
1
  7

176
1
177
1
178
1
143
1.0
179
1
  8

270
1
271
1
272
1
145
1.0
146
1.0
273
1
  9

274
1
275
1
276
1
 42
1.0
 72
1
  3

 73
1
 74
1
 75
1
 94
63
  0
MATERIAL
  5
20
102
{ACAD_REACTORS
330
E
102
}
330
E
100
AcDbMaterial
  1
ByLayer
  2

 70
0
 40
1.0
 71
1
 41
1.0
 91
-1023410177
 42
1.0
 72
1
  3

 73
1
 74
1
 75
1
 44
0.5
 73
0
 45
1.0
 46
1.0
 77
1
  4

 78
1
 79
1
170
1
 48
1.0
171
1
  6

172
1
173
1
174
1
140
1.0
141
1.0
175
1
  7

176
1
177
1
178
1
143
1.0
179
1
  8

270
1
271
1
272
1
145
1.0
146
1.0
273
1
  9

274
1
275
1
276
1
 42
1.0
 72
1
  3

 73
1
 74
1
 75
1
 94
63
  0
MATERIAL
  5
21
102
{ACAD_REACTORS
330
E
102
}
330
E
100
AcDbMaterial
  1
Global
  2

 70
0
 40
1.0
 71
1
 41
1.0
 91
-1023410177
 42
1.0
 72
1
  3

 73
1
 74
1
 75
1
 44
0.5
 73
0
 45
1.0
 46
1.0
 77
1
  4

 78
1
 79
1
170
1
 48
1.0
171
1
  6

172
1
173
1
174
1
140
1.0
141
1.0
175
1
  7

176
1
177
1
178
1
143
1.0
179
1
  8

270
1
271
1
272
1
145
1.0
146
1.0
273
1
  9

274
1
275
1
276
1
 42
1.0
 72
1
  3

 73
1
 74
1
 75
1
 94
63
  0
MLINESTYLE
  5
22
102
{ACAD_REACTORS
330
10
102
}
330
10
100
AcDbMlineStyle
  2
Standard
 70
0
  3

 62
256
 51
90.0
 52
90.0
 71
2
 49
0.5
 62
256
  6
BYLAYER
 49
-0.5
 62
256
  6
BYLAYER
  0
MLEADERSTYLE
  5
2C
102
{ACAD_REACTORS
330
F
102
}
330
F
100
AcDbMLeaderStyle
179
2
170
2
171
1
172
0
 90
2
 40
0.0
 41
0.0
173
1
 91
-1056964608
 92
-2
290
1
 42
2.0
291
1
 43
8.0
  3
Standard
 44
4.0
300

342
29
174
1
175
1
176
0
178
1
 93
-1056964608
 45
4.0
292
0
297
0
 46
4.0
 94
-1056964608
 47
1.0
 49
1.0
140
1.0
294
1
141
0.0
177
0
142
1.0
295
0
296
0
143
3.75
271
0
272
9
273
9
  0
DICTIONARY
  5
2D
330
A
100
AcDbDictionary
280
1
281
1
  3
CREATED_BY_EZDXF
350
2E
  3
WRITTEN_BY_EZDXF
350
14E
  0
DICTIONARYVAR
  5
2E
330
2D
100
DictionaryVariables
280
0
  1
1.4.4 @ 2026-09-24T07:00:51.523030+00:00
  0
VISUALSTYLE
  5
5A
102
{ACAD_REACTORS
330
16
102
}
330
16
100
AcDbVisualStyle
  2
2dWireframe
 70
4
 90
0
 40
0.6
 62
7
290
0
291
0
  0
VISUALSTYLE
  5
5B
102
{ACAD_REACTORS
330
16
102
}
330
16
100
AcDbVisualStyle
  2
Basic
 70
7
 90
1
 40
0.6
 62
7
290
0
291
1
  0
VISUALSTYLE
  5
5C
102
{ACAD_REACTORS
330
16
102
}
330
16
100
AcDbVisualStyle
  2
Brighten
 70
12
 90
2
 40
0.6
 62
7
290
0
291
1
  0
VISUALSTYLE
  5
5D
102
{ACAD_REACTORS
330
16
102
}
330
16
100
AcDbVisualStyle
  2
ColorChange
 70
16
 90
2
 40
0.6
 62
8
290
0
291
1
  0
VISUALSTYLE
  5
5E
102
{ACAD_REACTORS
330
16
102
}
330
16
100
AcDbVisualStyle
  2
Conceptual
 70
9
 90
3
 40
0.6
 62
7
290
0
291
0
  0
VISUALSTYLE
  5
5F
102
{ACAD_REACTORS
330
16
102
}
330
16
100
AcDbVisualStyle
  2
Dim
 70
11
 90
2
 40
0.6
 62
7
290
0
291
1
  0
VISUALSTYLE
  5
60
102
{ACAD_REACTORS
330
16
102
}
330
16
100
AcDbVisualStyle
  2
EdgeColorOff
 70
22
 90
2
 40
0.6
 62
7
290
0
291
1
  0
VISUALSTYLE
  5
61
102
{ACAD_REACTORS
330
16
102
}
330
16
100
AcDbVisualStyle
  2
Facepattern
 70
15
 90
2
 40
0.6
 62
7
290
0
291
1
  0
VISUALSTYLE
  5
62
102
{ACAD_REACTORS
330
16
102
}
330
16
100
AcDbVisualStyle
  2
Flat
 70
0
 90
2
 40
0.6
 62
7
290
0
291
1
  0
VISUALSTYLE
  5
63
102
{ACAD_REACTORS
330
16
102
}
330
16
100
AcDbVisualStyle
  2
FlatWithEdges
 70
1
 90
2
 40
0.6
 62
7
290
0
291
1
  0
VISUALSTYLE
  5
64
102
{ACAD_REACTORS
330
16
102
}
330
16
100
AcDbVisualStyle
  2
Gouraud
 70
2
 90
2
 40
0.6
 62
7
290
0
291
1
  0
VISUALSTYLE
  5
65
102
{ACAD_REACTORS
330
16
102
}
330
16
100
AcDbVisualStyle
  2
GouraudWithEdges
 70
3
 90
2
 40
0.6
 62
7
290
0
291
1
  0
VISUALSTYLE
  5
66
102
{ACAD_REACTORS
330
16
102
}
330
16
100
AcDbVisualStyle
  2
Hidden
 70
6
 90
1
 40
0.6
 62
7
290
0
291
0
  0
VISUALSTYLE
  5
67
102
{ACAD_REACTORS
330
16
102
}
330
16
100
AcDbVisualStyle
  2
JitterOff
 70
20
 90
2
 40
0.6
 62
7
290
0
291
1
  0
VISUALSTYLE
  5
68
102
{ACAD_REACTORS
330
16
102
}
330
16
100
AcDbVisualStyle
  2
Linepattern
 70
14
 90
2
 40
0.6
 62
7
290
0
291
1
  0
VISUALSTYLE
  5
69
102
{ACAD_REACTORS
330
16
102
}
330
16
100
AcDbVisualStyle
  2
Modeling
 70
10
 90
2
 40
0.6
 62
7
290
0
291
0
  0
VISUALSTYLE
  5
6A
102
{ACAD_REACTORS
330
16
102
}
330
16
100
AcDbVisualStyle
  2
OverhangOff
 70
21
 90
2
 40
0.6
 62
7
290
0
291
1
  0
VISUALSTYLE
  5
6B
102
{ACAD_REACTORS
330
16
102
}
330
16
100
AcDbVisualStyle
  2
Realistic
 70
8
 90
2
 40
0.6
 62
7
290
0
291
0
  0
VISUALSTYLE
  5
6C
102
{ACAD_REACTORS
330
16
102
}
330
16
100
AcDbVisualStyle
  2
Shaded
 70
27
 90
2
 40
0.6
 62
7
290
0
291
0
  0
VISUALSTYLE
  5
6D
102
{ACAD_REACTORS
330
16
102
}
330
16
100
AcDbVisualStyle
  2
Shaded with edges
 70
26
 90
2
 40
0.6
 62
7
290
0
291
0
  0
VISUALSTYLE
  5
6E
102
{ACAD_REACTORS
330
16
102
}
330
16
100
AcDbVisualStyle
  2
Shades of Gray
 70
23
 90
2
 40
0.6
 62
7
290
0
291
0
  0
VISUALSTYLE
  5
6F
102
{ACAD_REACTORS
330
16
102
}
330
16
100
AcDbVisualStyle
  2
Sketchy
 70
24
 90
1
 40
0.6
 62
7
290
0
291
0
  0
VISUALSTYLE
  5
70
102
{ACAD_REACTORS
330
16
102
}
330
16
100
AcDbVisualStyle
  2
Thicken
 70
13
 90
2
 40
0.6
 62
7
290
0
291
1
  0
VISUALSTYLE
  5
71
102
{ACAD_REACTORS
330
16
102
}
330
16
100
AcDbVisualStyle
  2
Wireframe
 70
5
 90
0
 40
0.6
 62
7
290
0
291
0
  0
VISUALSTYLE
  5
72
102
{ACAD_REACTORS
330
16
102
}
330
16
100
AcDbVisualStyle
  2
X-Ray
 70
25
 90
2
 40
0.5
 62
7
290
0
291
0
  0
DICTIONARYVAR
  5
14E
330
2D
100
DictionaryVariables
280
0
  1
1.4.4 @ 2026-09-24T07:00:51.539950+00:00
  0
ENDSEC
  0
EOF
