  0
SECTION
  2
HEADER
  9
$ACADVER
  1
AC1024
  9
$ACADMAINTVER
 70
6
  9
$DWGCODEPAGE
  3
ANSI_1252
  9
$LASTSAVEDBY
  1
ezdxf
  9
$INSBASE
 10
0.0
 20
0.0
 30
0.0
  9
$EXTMIN
 10
1e+20
 20
1e+20
 30
1e+20
  9
$EXTMAX
 10
-1e+20
 20
-1e+20
 30
-1e+20
  9
$LIMMIN
 10
0.0
 20
0.0
  9
$LIMMAX
 10
420.0
 20
297.0
  9
$ORTHOMODE
 70
0
  9
$REGENMODE
 70
1
  9
$FILLMODE
 70
1
  9
$QTEXTMODE
 70
0
  9
$MIRRTEXT
 70
1
  9
$LTSCALE
 40
1.0
  9
$ATTMODE
 70
1
  9
$TEXTSIZE
 40
2.5
  9
$TRACEWID
 40
1.0
  9
$TEXTSTYLE
  7
OpenSans
  9
$CLAYER
  8
0
  9
$CELTYPE
  6
ByLayer
  9
$CECOLOR
 62
256
  9
$CELTSCALE
 40
1.0
  9
$DISPSILH
 70
0
  9
$DIMSCALE
 40
1.0
  9
$DIMASZ
 40
0.175
  9
$DIMEXO
 40
0.125
  9
$DIMDLI
 40
3.75
  9
$DIMRND
 40
0.0
  9
$DIMDLE
 40
0.0
  9
$DIMEXE
 40
0.375
  9
$DIMTP
 40
0.0
  9
$DIMTM
 40
0.0
  9
$DIMTXT
 40
0.25
  9
$DIMCEN
 40
2.5
  9
$DIMTSZ
 40
0.0
  9
$DIMTOL
 70
0
  9
$DIMLIM
 70
0
  9
$DIMTIH
 70
0
  9
$DIMTOH
 70
0
  9
$DIMSE1
 70
0
  9
$DIMSE2
 70
0
  9
$DIMTAD
 70
1
  9
$DIMZIN
 70
12
  9
$DIMBLK
  1
ARCHTICK
  9
$DIMASO
 70
1
  9
$DIMSHO
 70
1
  9
$DIMPOST
  1

  9
$DIMAPOST
  1

  9
$DIMALT
 70
0
  9
$DIMALTD
 70
3
  9
$DIMALTF
 40
0.03937007874
  9
$DIMLFAC
 40
100.0
  9
$DIMTOFL
 70
1
  9
$DIMTVP
 40
0.0
  9
$DIMTIX
 70
0
  9
$DIMSOXD
 70
0
  9
$DIMSAH
 70
0
  9
$DIMBLK1
  1

  9
$DIMBLK2
  1

  9
$DIMSTYLE
  2
EZDXF
  9
$DIMCLRD
 70
0
  9
$DIMCLRE
 70
0
  9
$DIMCLRT
 70
0
  9
$DIMTFAC
 40
0.5
  9
$DIMGAP
 40
0.1
  9
$DIMJUST
 70
0
  9
$DIMSD1
 70
0
  9
$DIMSD2
 70
0
  9
$DIMTOLJ
 70
0
  9
$DIMTZIN
 70
8
  9
$DIMALTZ
 70
0
  9
$DIMALTTZ
 70
0
  9
$DIMUPT
 70
1
  9
$DIMDEC
 70
2
  9
$DIMTDEC
 70
2
  9
$DIMALTU
 70
2
  9
$DIMALTTD
 70
3
  9
$DIMTXSTY
  7
OpenSansCondensed-Light
  9
$DIMAUNIT
 70
0
  9
$DIMADEC
 70
2
  9
$DIMALTRND
 40
0.0
  9
$DIMAZIN
 70
3
  9
$DIMDSEP
 70
46
  9
$DIMATFIT
 70
3
  9
$DIMFRAC
 70
0
  9
$DIMLDRBLK
  1

  9
$DIMLUNIT
 70
2
  9
$DIMLWD
 70
-2
  9
$DIMLWE
 70
-2
  9
$DIMTMOVE
 70
2
  9
$DIMFXL
 40
1.0
  9
$DIMFXLON
 70
0
  9
$DIMJOGANG
 40
0.785398163397
  9
$DIMTFILL
 70
0
  9
$DIMTFILLCLR
 70
0
  9
$DIMARCSYM
 70
0
  9
$DIMLTYPE
  6

  9
$DIMLTEX1
  6

  9
$DIMLTEX2
  6

  9
$DIMTXTDIRECTION
 70
0
  9
$LUNITS
 70
2
  9
$LUPREC
 70
4
  9
$SKETCHINC
 40
1.0
  9
$FILLETRAD
 40
10.0
  9
$AUNITS
 70
0
  9
$AUPREC
 70
2
  9
$MENU
  1
.
  9
$ELEVATION
 40
0.0
  9
$PELEVATION
 40
0.0
  9
$THICKNESS
 40
0.0
  9
$LIMCHECK
 70
0
  9
$CHAMFERA
 40
0.0
  9
$CHAMFERB
 40
0.0
  9
$CHAMFERC
 40
0.0
  9
$CHAMFERD
 40
0.0
  9
$SKPOLY
 70
0
  9
$TDCREATE
 40
2461308.1256828704
  9
$TDUCREATE
 40
2458532.153996898
  9
$TDUPDATE
 40
2461308.1256828704
  9
$TDUUPDATE
 40
2458532.1544311
  9
$TDINDWG
 40
0.0
  9
$TDUSRTIMER
 40
0.0
  9
$USRTIMER
 70
1
  9
$ANGBASE
 50
0.0
  9
$ANGDIR
 70
0
  9
$PDMODE
 70
0
  9
$PDSIZE
 40
0.0
  9
$PLINEWID
 40
0.0
  9
$SPLFRAME
 70
0
  9
$SPLINETYPE
 70
6
  9
$SPLINESEGS
 70
8
  9
$HANDSEED
  5
12B
  9
$SURFTAB1
 70
6
  9
$SURFTAB2
 70
6
  9
$SURFTYPE
 70
6
  9
$SURFU
 70
6
  9
$SURFV
 70
6
  9
$UCSBASE
  2

  9
$UCSNAME
  2

  9
$UCSORG
 10
0.0
 20
0.0
 30
0.0
  9
$UCSXDIR
 10
1.0
 20
0.0
 30
0.0
  9
$UCSYDIR
 10
0.0
 20
1.0
 30
0.0
  9
$UCSORTHOREF
  2

  9
$UCSORTHOVIEW
 70
0
  9
$UCSORGTOP
 10
0.0
 20
0.0
 30
0.0
  9
$UCSORGBOTTOM
 10
0.0
 20
0.0
 30
0.0
  9
$UCSORGLEFT
 10
0.0
 20
0.0
 30
0.0
  9
$UCSORGRIGHT
 10
0.0
 20
0.0
 30
0.0
  9
$UCSORGFRONT
 10
0.0
 20
0.0
 30
0.0
  9
$UCSORGBACK
 10
0.0
 20
0.0
 30
0.0
  9
$PUCSBASE
  2

  9
$PUCSNAME
  2

  9
$PUCSORG
 10
0.0
 20
0.0
 30
0.0
  9
$PUCSXDIR
 10
1.0
 20
0.0
 30
0.0
  9
$PUCSYDIR
 10
0.0
 20
1.0
 30
0.0
  9
$PUCSORTHOREF
  2

  9
$PUCSORTHOVIEW
 70
0
  9
$PUCSORGTOP
 10
0.0
 20
0.0
 30
0.0
  9
$PUCSORGBOTTOM
 10
0.0
 20
0.0
 30
0.0
  9
$PUCSORGLEFT
 10
0.0
 20
0.0
 30
0.0
  9
$PUCSORGRIGHT
 10
0.0
 20
0.0
 30
0.0
  9
$PUCSORGFRONT
 10
0.0
 20
0.0
 30
0.0
  9
$PUCSORGBACK
 10
0.0
 20
0.0
 30
0.0
  9
$USERI1
 70
0
  9
$USERI2
 70
0
  9
$USERI3
 70
0
  9
$USERI4
 70
0
  9
$USERI5
 70
0
  9
$USERR1
 40
0.0
  9
$USERR2
 40
0.0
  9
$USERR3
 40
0.0
  9
$USERR4
 40
0.0
  9
$USERR5
 40
0.0
  9
$WORLDVIEW
 70
1
  9
$SHADEDGE
 70
3
  9
$SHADEDIF
 70
70
  9
$TILEMODE
 70
1
  9
$MAXACTVP
 70
64
  9
$PINSBASE
 10
0.0
 20
0.0
 30
0.0
  9
$PLIMCHECK
 70
0
  9
$PEXTMIN
 10
1e+20
 20
1e+20
 30
1e+20
  9
$PEXTMAX
 10
-1e+20
 20
-1e+20
 30
-1e+20
  9
$PLIMMIN
 10
0.0
 20
0.0
  9
$PLIMMAX
 10
420.0
 20
297.0
  9
$UNITMODE
 70
0
  9
$VISRETAIN
 70
1
  9
$PLINEGEN
 70
0
  9
$PSLTSCALE
 70
1
  9
$TREEDEPTH
 70
3020
  9
$CMLSTYLE
  2
Standard
  9
$CMLJUST
 70
0
  9
$CMLSCALE
 40
20.0
  9
$PROXYGRAPHICS
 70
1
  9
$MEASUREMENT
 70
0
  9
$CELWEIGHT
370
-1
  9
$ENDCAPS
280
0
  9
$JOINSTYLE
280
0
  9
$LWDISPLAY
290
0
  9
$INSUNITS
 70
2
  9
$HYPERLINKBASE
  1

  9
$STYLESHEET
  1

  9
$XEDIT
290
1
  9
$CEPSNTYPE
380
0
  9
$PSTYLEMODE
290
1
  9
$FINGERPRINTGUID
  2
{3A0FC473-FCD2-4284-B29D-55D9357541FA}
  9
$VERSIONGUID
  2
{C12E283C-7CC1-41AA-A6EB-AA8BAD66EC70}
  9
$EXTNAMES
290
1
  9
$PSVPSCALE
 40
0.0
  9
$OLESTARTUP
290
0
  9
$SORTENTS
280
127
  9
$INDEXCTL
280
0
  9
$HIDETEXT
280
1
  9
$XCLIPFRAME
280
1
  9
$HALOGAP
280
0
  9
$OBSCOLOR
 70
257
  9
$OBSLTYPE
280
0
  9
$INTERSECTIONDISPLAY
280
0
  9
$INTERSECTIONCOLOR
 70
257
  9
$DIMASSOC
280
2
  9
$PROJECTNAME
  1

  9
$CAMERADISPLAY
290
0
  9
$LENSLENGTH
 40
50.0
  9
$CAMERAHEIGHT
 40
0.0
  9
$STEPSPERSEC
 40
24.0
  9
$STEPSIZE
 40
100.0
  9
$3DDWFPREC
 40
2.0
  9
$PSOLWIDTH
 40
0.005
  9
$PSOLHEIGHT
 40
0.08
  9
$LOFTANG1
 40
1.570796326795
  9
$LOFTANG2
 40
1.570796326795
  9
$LOFTMAG1
 40
0.0
  9
$LOFTMAG2
 40
0.0
  9
$LOFTPARAM
 70
7
  9
$LOFTNORMALS
280
1
  9
$LATITUDE
 40
37.795
  9
$LONGITUDE
 40
-122.394
  9
$NORTHDIRECTION
 40
0.0
  9
$TIMEZONE
 70
-8000
  9
$LIGHTGLYPHDISPLAY
280
1
  9
$TILEMODELIGHTSYNCH
280
1
  9
$CMATERIAL
347
20
  9
$SOLIDHIST
280
0
  9
$SHOWHIST
280
1
  9
$DWFFRAME
280
2
  9
$DGNFRAME
280
2
  9
$REALWORLDSCALE
290
1
  9
$INTERFERECOLOR
 62
256
  9
$CSHADOW
280
0
  9
$SHADOWPLANELOCATION
 40
0.0
  0
ENDSEC
  0
SECTION
  2
CLASSES
  0
CLASS
  1
ACDBDICTIONARYWDFLT
  2
AcDbDictionaryWithDefault
  3
ObjectDBX Classes
 90
0
 91
0
280
0
281
0
  0
CLASS
  1
SUN
  2
AcDbSun
  3
SCENEOE
 90
1153
 91
0
280
0
281
0
  0
CLASS
  1
VISUALSTYLE
  2
AcDbVisualStyle
  3
ObjectDBX Classes
 90
4095
 91
0
280
0
281
0
  0
CLASS
  1
MATERIAL
  2
AcDbMaterial
  3
ObjectDBX Classes
 90
1153
 91
0
280
0
281
0
  0
CLASS
  1
SCALE
  2
AcDbScale
  3
ObjectDBX Classes
 90
1153
 91
0
280
0
281
0
  0
CLASS
  1
TABLESTYLE
  2
AcDbTableStyle
  3
ObjectDBX Classes
 90
4095
 91
0
280
0
281
0
  0
CLASS
  1
MLEADERSTYLE
  2
AcDbMLeaderStyle
  3
ACDB_MLEADERSTYLE_CLASS
 90
4095
 91
0
280
0
281
0
  0
CLASS
  1
DICTIONARYVAR
  2
AcDbDictionaryVar
  3
ObjectDBX Classes
 90
0
 91
0
280
0
281
0
  0
CLASS
  1
CELLSTYLEMAP
  2
AcDbCellStyleMap
  3
ObjectDBX Classes
 90
1152
 91
0
280
0
281
0
  0
CLASS
  1
MENTALRAYRENDERSETTINGS
  2
AcDbMentalRayRenderSettings
  3
SCENEOE
 90
1024
 91
0
280
0
281
0
  0
CLASS
  1
ACDBDETAILVIEWSTYLE
  2
AcDbDetailViewStyle
  3
ObjectDBX Classes
 90
1025
 91
0
280
0
281
0
  0
CLASS
  1
ACDBSECTIONVIEWSTYLE
  2
AcDbSectionViewStyle
  3
ObjectDBX Classes
 90
1025
 91
0
280
0
281
0
  0
CLASS
  1
RASTERVARIABLES
  2
AcDbRasterVariables
  3
ISM
 90
0
 91
0
280
0
281
0
  0
CLASS
  1
LAYOUT
  2
AcDbLayout
  3
ObjectDBX Classes
 90
0
 91
0
280
0
281
0
  0
CLASS
  1
ACDBPLACEHOLDER
  2
AcDbPlaceHolder
  3
ObjectDBX Classes
 90
0
 91
0
280
0
281
0
  0
ENDSEC
  0
SECTION
  2
TABLES
  0
TABLE
  2
VPORT
  5
8
330
0
100
AcDbSymbolTable
 70
1
  0
VPORT
  5
23
330
8
100
AcDbSymbolTableRecord
100
AcDbViewportTableRecord
  2
*Active
 70
0
 10
0.0
 20
0.0
 11
1.0
 21
1.0
 12
0.0
 22
0.0
 13
0.0
 23
0.0
 14
0.5
 24
0.5
 15
0.5
 25
0.5
 16
0.0
 26
0.0
 36
1.0
 17
0.0
 27
0.0
 37
0.0
 40
1000.0
 41
1.34
 42
50.0
 43
0.0
 44
0.0
 50
0.0
 51
0.0
 71
0
 72
1000
 73
1
 74
3
 75
0
 76
0
 77
0
 78
0
281
0
 65
0
146
0.0
  0
ENDTAB
  0
TABLE
  2
LTYPE
  5
2
330
0
100
AcDbSymbolTable
 70
21
  0
LTYPE
  5
24
330
2
100
AcDbSymbolTableRecord
100
AcDbLinetypeTableRecord
  2
ByBlock
 70
0
  3

 72
65
 73
0
 40
0.0
  0
LTYPE
  5
25
330
2
100
AcDbSymbolTableRecord
100
AcDbLinetypeTableRecord
  2
ByLayer
 70
0
  3

 72
65
 73
0
 40
0.0
  0
LTYPE
  5
26
330
2
100
AcDbSymbolTableRecord
100
AcDbLinetypeTableRecord
  2
Continuous
 70
0
  3

 72
65
 73
0
 40
0.0
  0
LTYPE
  5
2F
330
2
100
AcDbSymbolTableRecord
100
AcDbLinetypeTableRecord
  2
CENTER
 70
0
  3
Center ____ _ ____ _ ____ _ ____ _ ____ _ ____
 72
65
 73
4
 40
5.08
 49
3.175
 74
0
 49
-0.635
 74
0
 49
0.635
 74
0
 49
-0.635
 74
0
  0
LTYPE
  5
30
330
2
100
AcDbSymbolTableRecord
100
AcDbLinetypeTableRecord
  2
CENTERX2
 70
0
  3
Center (2x) ________  __  ________  __  ________
 72
65
 73
4
 40
8.89
 49
6.35
 74
0
 49
-0.635
 74
0
 49
1.27
 74
0
 49
-0.635
 74
0
  0
LTYPE
  5
31
330
2
100
AcDbSymbolTableRecord
100
AcDbLinetypeTableRecord
  2
CENTER2
 70
0
  3
Center (.5x) ____ _ ____ _ ____ _ ____ _ ____
 72
65
 73
4
 40
2.54
 49
1.587
 74
0
 49
-0.318
 74
0
 49
0.318
 74
0
 49
-0.318
 74
0
  0
LTYPE
  5
32
330
2
100
AcDbSymbolTableRecord
100
AcDbLinetypeTableRecord
  2
DASHED
 70
0
  3
Dashed __ __ __ __ __ __ __ __ __ __ __ __ __ _
 72
65
 73
2
 40
1.524
 49
1.27
 74
0
 49
-0.254
 74
0
  0
LTYPE
  5
33
330
2
100
AcDbSymbolTableRecord
100
AcDbLinetypeTableRecord
  2
DASHEDX2
 70
0
  3
Dashed (2x) ____  ____  ____  ____  ____  ____
 72
65
 73
2
 40
3.048
 49
2.54
 74
0
 49
-0.508
 74
0
  0
LTYPE
  5
34
330
2
100
AcDbSymbolTableRecord
100
AcDbLinetypeTableRecord
  2
DASHED2
 70
0
  3
Dashed (.5x) _ _ _ _ _ _ _ _ _ _ _ _ _ _
 72
65
 73
2
 40
0.762
 49
0.635
 74
0
 49
-0.127
 74
0
  0
LTYPE
  5
35
330
2
100
AcDbSymbolTableRecord
100
AcDbLinetypeTableRecord
  2
PHANTOM
 70
0
  3
Phantom ______  __  __  ______  __  __  ______
 72
65
 73
6
 40
6.35
 49
3.175
 74
0
 49
-0.635
 74
0
 49
0.635
 74
0
 49
-0.635
 74
0
 49
0.635
 74
0
 49
-0.635
 74
0
  0
LTYPE
  5
36
330
2
100
AcDbSymbolTableRecord
100
AcDbLinetypeTableRecord
  2
PHANTOMX2
 70
0
  3
Phantom (2x)____________    ____    ____    ____________
 72
65
 73
6
 40
10.795
 49
6.35
 74
0
 49
-0.635
 74
0
 49
1.27
 74
0
 49
-0.635
 74
0
 49
1.27
 74
0
 49
-0.635
 74
0
  0
LTYPE
  5
37
330
2
100
AcDbSymbolTableRecord
100
AcDbLinetypeTableRecord
  2
PHANTOM2
 70
0
  3
Phantom (.5x) ___ _ _ ___ _ _ ___ _ _ ___ _ _ ___
 72
65
 73
6
 40
3.175
 49
1.587
 74
0
 49
-0.318
 74
0
 49
0.318
 74
0
 49
-0.318
 74
0
 49
0.318
 74
0
 49
-0.318
 74
0
  0
LTYPE
  5
38
330
2
100
AcDbSymbolTableRecord
100
AcDbLinetypeTableRecord
  2
DASHDOT
 70
0
  3
Dash dot __ . __ . __ . __ . __ . __ . __ . __
 72
65
 73
4
 40
3.556
 49
2.54
 74
0
 49
-0.508
 74
0
 49
0.0
 74
0
 49
-0.508
 74
0
  0
LTYPE
  5
39
330
2
100
AcDbSymbolTableRecord
100
AcDbLinetypeTableRecord
  2
DASHDOTX2
 70
0
  3
Dash dot (2x) ____  .  ____  .  ____  .  ____
 72
65
 73
4
 40
6.096
 49
5.08
 74
0
 49
-0.508
 74
0
 49
0.0
 74
0
 49
-0.508
 74
0
  0
LTYPE
  5
3A
330
2
100
AcDbSymbolTableRecord
100
AcDbLinetypeTableRecord
  2
DASHDOT2
 70
0
  3
Dash dot (.5x) _ . _ . _ . _ . _ . _ . _ . _
 72
65
 73
4
 40
1.778
 49
1.27
 74
0
 49
-0.254
 74
0
 49
0.0
 74
0
 49
-0.254
 74
0
  0
LTYPE
  5
3B
330
2
100
AcDbSymbolTableRecord
100
AcDbLinetypeTableRecord
  2
DOT
 70
0
  3
Dot .  .  .  .  .  .  .  .  .  .  .  .  .  .  .  .
 72
65
 73
2
 40
0.508
 49
0.0
 74
0
 49
-0.508
 74
0
  0
LTYPE
  5
3C
330
2
100
AcDbSymbolTableRecord
100
AcDbLinetypeTableRecord
  2
DOTX2
 70
0
  3
Dot (2x) .    .    .    .    .    .    .    . 
 72
65
 73
2
 40
1.016
 49
0.0
 74
0
 49
-1.016
 74
0
  0
LTYPE
  5
3D
330
2
100
AcDbSymbolTableRecord
100
AcDbLinetypeTableRecord
  2
DOT2
 70
0
  3
Dot (.5) . . . . . . . . . . . . . . . . . . . 
 72
65
 73
2
 40
0.254
 49
0.0
 74
0
 49
-0.254
 74
0
  0
LTYPE
  5
3E
330
2
100
AcDbSymbolTableRecord
100
AcDbLinetypeTableRecord
  2
DIVIDE
 70
0
  3
Divide __ . . __ . . __ . . __ . . __ . . __
 72
65
 73
6
 40
4.064
 49
2.54
 74
0
 49
-0.508
 74
0
 49
0.0
 74
0
 49
-0.508
 74
0
 49
0.0
 74
0
 49
-0.508
 74
0
  0
LTYPE
  5
3F
330
2
100
AcDbSymbolTableRecord
100
AcDbLinetypeTableRecord
  2
DIVIDEX2
 70
0
  3
Divide (2x) ____  . .  ____  . .  ____  . .  ____
 72
65
 73
6
 40
6.604
 49
5.08
 74
0
 49
-0.508
 74
0
 49
0.0
 74
0
 49
-0.508
 74
0
 49
0.0
 74
0
 49
-0.508
 74
0
  0
LTYPE
  5
40
330
2
100
AcDbSymbolTableRecord
100
AcDbLinetypeTableRecord
  2
DIVIDE2
 70
0
  3
Divide(.5x) _ . _ . _ . _ . _ . _ . _ . _
 72
65
 73
6
 40
2.032
 49
1.27
 74
0
 49
-0.254
 74
0
 49
0.0
 74
0
 49
-0.254
 74
0
 49
0.0
 74
0
 49
-0.254
 74
0
  0
ENDTAB
  0
TABLE
  2
LAYER
  5
1
330
0
100
AcDbSymbolTable
 70
18
  0
LAYER
  5
27
330
1
100
AcDbSymbolTableRecord
100
AcDbLayerTableRecord
  2
0
 70
0
 62
7
  6
Continuous
370
-3
390
13
347
21
  0
LAYER
  5
28
330
1
100
AcDbSymbolTableRecord
100
AcDbLayerTableRecord
  2
Defpoints
 70
0
 62
7
  6
Continuous
290
0
370
-3
390
13
347
21
  0
LAYER
  5
8B
330
1
100
AcDbSymbolTableRecord
100
AcDbLayerTableRecord
  2
PLAT-LINE
 70
0
 62
7
  6
CONTINUOUS
370
-3
390
13
347
21
  0
LAYER
  5
8C
330
1
100
AcDbSymbolTableRecord
100
AcDbLayerTableRecord
  2
PLAT-LINE-DASH
 70
0
 62
8
  6
DASHED
370
-3
390
13
347
21
  0
LAYER
  5
8D
330
1
100
AcDbSymbolTableRecord
100
AcDbLayerTableRecord
  2
PLAT-CURVE
 70
0
 62
4
  6
CONTINUOUS
370
-3
390
13
347
21
  0
LAYER
  5
8E
330
1
100
AcDbSymbolTableRecord
100
AcDbLayerTableRecord
  2
PLAT-TEXT-BRG
 70
0
 62
3
  6
CONTINUOUS
370
-3
390
13
347
21
  0
LAYER
  5
8F
330
1
100
AcDbSymbolTableRecord
100
AcDbLayerTableRecord
  2
PLAT-TEXT-DIST
 70
0
 62
2
  6
CONTINUOUS
370
-3
390
13
347
21
  0
LAYER
  5
90
330
1
100
AcDbSymbolTableRecord
100
AcDbLayerTableRecord
  2
PLAT-TEXT-CURVE
 70
0
 62
6
  6
CONTINUOUS
370
-3
390
13
347
21
  0
LAYER
  5
91
330
1
100
AcDbSymbolTableRecord
100
AcDbLayerTableRecord
  2
PLAT-TEXT-LOTNO
 70
0
 62
5
  6
CONTINUOUS
370
-3
390
13
347
21
  0
LAYER
  5
92
330
1
100
AcDbSymbolTableRecord
100
AcDbLayerTableRecord
  2
PLAT-TEXT-AREA
 70
0
 62
5
  6
CONTINUOUS
370
-3
390
13
347
21
  0
LAYER
  5
93
330
1
100
AcDbSymbolTableRecord
100
AcDbLayerTableRecord
  2
PLAT-TEXT-MISC
 70
0
 62
9
  6
CONTINUOUS
370
-3
390
13
347
21
  0
LAYER
  5
94
330
1
100
AcDbSymbolTableRecord
100
AcDbLayerTableRecord
  2
PLAT-TEXT-UNASSOC
 70
0
 62
30
  6
CONTINUOUS
370
-3
390
13
347
21
  0
LAYER
  5
95
330
1
100
AcDbSymbolTableRecord
100
AcDbLayerTableRecord
  2
PLAT-TABLE-CURVE
 70
0
 62
6
  6
CONTINUOUS
370
-3
390
13
347
21
  0
LAYER
  5
96
330
1
100
AcDbSymbolTableRecord
100
AcDbLayerTableRecord
  2
PLAT-TABLE
 70
0
 62
6
  6
CONTINUOUS
370
-3
390
13
347
21
  0
LAYER
  5
97
330
1
100
AcDbSymbolTableRecord
100
AcDbLayerTableRecord
  2
PLAT-NOTES
 70
0
 62
7
  6
CONTINUOUS
370
-3
390
13
347
21
  0
LAYER
  5
98
330
1
100
AcDbSymbolTableRecord
100
AcDbLayerTableRecord
  2
PLAT-QA
 70
0
 62
1
  6
CONTINUOUS
370
-3
390
13
347
21
  0
LAYER
  5
99
330
1
100
AcDbSymbolTableRecord
100
AcDbLayerTableRecord
  2
PLAT-MON
 70
0
 62
1
  6
CONTINUOUS
370
-3
390
13
347
21
  0
LAYER
  5
9A
330
1
100
AcDbSymbolTableRecord
100
AcDbLayerTableRecord
  2
PLAT-TEXT-LOWCONF
 70
1
 62
8
  6
CONTINUOUS
370
-3
390
13
347
21
  0
ENDTAB
  0
TABLE
  2
STYLE
  5
5
330
0
100
AcDbSymbolTable
 70
27
  0
STYLE
  5
29
330
5
100
AcDbSymbolTableRecord
100
AcDbTextStyleTableRecord
  2
Standard
 70
0
 40
0.0
 41
1.0
 50
0.0
 71
0
 42
2.5
  3
txt
  4

  0
STYLE
  5
41
330
5
100
AcDbSymbolTableRecord
100
AcDbTextStyleTableRecord
  2
OpenSans-Light
 70
0
 40
0.0
 41
1.0
 50
0.0
 71
0
 42
2.5
  3
OpenSans-Light.ttf
  4

  0
STYLE
  5
42
330
5
100
AcDbSymbolTableRecord
100
AcDbTextStyleTableRecord
  2
OpenSans-Light-Italic
 70
0
 40
0.0
 41
1.0
 50
0.0
 71
0
 42
2.5
  3
OpenSans-LightItalic.ttf
  4

  0
STYLE
  5
43
330
5
100
AcDbSymbolTableRecord
100
AcDbTextStyleTableRecord
  2
OpenSans
 70
0
 40
0.0
 41
1.0
 50
0.0
 71
0
 42
2.5
  3
OpenSans-Regular.ttf
  4

  0
STYLE
  5
44
330
5
100
AcDbSymbolTableRecord
100
AcDbTextStyleTableRecord
  2
OpenSans-Italic
 70
0
 40
0.0
 41
1.0
 50
0.0
 71
0
 42
2.5
  3
OpenSans-Italic.ttf
  4

  0
STYLE
  5
45
330
5
100
AcDbSymbolTableRecord
100
AcDbTextStyleTableRecord
  2
OpenSans-SemiBold
 70
0
 40
0.0
 41
1.0
 50
0.0
 71
0
 42
2.5
  3
OpenSans-SemiBold.ttf
  4

  0
STYLE
  5
46
330
5
100
AcDbSymbolTableRecord
100
AcDbTextStyleTableRecord
  2
OpenSans-SemiBoldItalic
 70
0
 40
0.0
 41
1.0
 50
0.0
 71
0
 42
2.5
  3
OpenSans-SemiBoldItalic.ttf
  4

  0
STYLE
  5
47
330
5
100
AcDbSymbolTableRecord
100
AcDbTextStyleTableRecord
  2
OpenSans-Bold
 70
0
 40
0.0
 41
1.0
 50
0.0
 71
0
 42
2.5
  3
OpenSans-Bold.ttf
  4

  0
STYLE
  5
48
330
5
100
AcDbSymbolTableRecord
100
AcDbTextStyleTableRecord
  2
OpenSans-BoldItalic
 70
0
 40
0.0
 41
1.0
 50
0.0
 71
0
 42
2.5
  3
OpenSans-BoldItalic.ttf
  4

  0
STYLE
  5
49
330
5
100
AcDbSymbolTableRecord
100
AcDbTextStyleTableRecord
  2
OpenSans-ExtraBold
 70
0
 40
0.0
 41
1.0
 50
0.0
 71
0
 42
2.5
  3
OpenSans-ExtraBold.ttf
  4

  0
STYLE
  5
4A
330
5
100
AcDbSymbolTableRecord
100
AcDbTextStyleTableRecord
  2
OpenSans-ExtraBoldItalic
 70
0
 40
0.0
 41
1.0
 50
0.0
 71
0
 42
2.5
  3
OpenSans-ExtraBoldItalic.ttf
  4

  0
STYLE
  5
4B
330
5
100
AcDbSymbolTableRecord
100
AcDbTextStyleTableRecord
  2
OpenSansCondensed-Bold
 70
0
 40
0.0
 41
1.0
 50
0.0
 71
0
 42
2.5
  3
OpenSansCondensed-Bold.ttf
  4

  0
STYLE
  5
4C
330
5
100
AcDbSymbolTableRecord
100
AcDbTextStyleTableRecord
  2
OpenSansCondensed-Light
 70
0
 40
0.0
 41
1.0
 50
0.0
 71
0
 42
2.5
  3
OpenSansCondensed-Light.ttf
  4

  0
STYLE
  5
4D
330
5
100
AcDbSymbolTableRecord
100
AcDbTextStyleTableRecord
  2
OpenSansCondensed-Italic
 70
0
 40
0.0
 41
1.0
 50
0.0
 71
0
 42
2.5
  3
OpenSansCondensed-LightItalic.ttf
  4

  0
STYLE
  5
4E
330
5
100
AcDbSymbolTableRecord
100
AcDbTextStyleTableRecord
  2
LiberationSans
 70
0
 40
0.0
 41
1.0
 50
0.0
 71
0
 42
2.5
  3
LiberationSans-Regular.ttf
  4

  0
STYLE
  5
4F
330
5
100
AcDbSymbolTableRecord
100
AcDbTextStyleTableRecord
  2
LiberationSans-Bold
 70
0
 40
0.0
 41
1.0
 50
0.0
 71
0
 42
2.5
  3
LiberationSans-Bold.ttf
  4

  0
STYLE
  5
50
330
5
100
AcDbSymbolTableRecord
100
AcDbTextStyleTableRecord
  2
LiberationSans-BoldItalic
 70
0
 40
0.0
 41
1.0
 50
0.0
 71
0
 42
2.5
  3
LiberationSans-BoldItalic.ttf
  4

  0
STYLE
  5
51
330
5
100
AcDbSymbolTableRecord
100
AcDbTextStyleTableRecord
  2
LiberationSans-Italic
 70
0
 40
0.0
 41
1.0
 50
0.0
 71
0
 42
2.5
  3
LiberationSans-Italic.ttf
  4

  0
STYLE
  5
52
330
5
100
AcDbSymbolTableRecord
100
AcDbTextStyleTableRecord
  2
LiberationSerif
 70
0
 40
0.0
 41
1.0
 50
0.0
 71
0
 42
2.5
  3
LiberationSerif-Regular.ttf
  4

  0
STYLE
  5
53
330
5
100
AcDbSymbolTableRecord
100
AcDbTextStyleTableRecord
  2
LiberationSerif-Bold
 70
0
 40
0.0
 41
1.0
 50
0.0
 71
0
 42
2.5
  3
LiberationSerif-Bold.ttf
  4

  0
STYLE
  5
54
330
5
100
AcDbSymbolTableRecord
100
AcDbTextStyleTableRecord
  2
LiberationSerif-BoldItalic
 70
0
 40
0.0
 41
1.0
 50
0.0
 71
0
 42
2.5
  3
LiberationSerif-BoldItalic.ttf
  4

  0
STYLE
  5
55
330
5
100
AcDbSymbolTableRecord
100
AcDbTextStyleTableRecord
  2
LiberationSerif-Italic
 70
0
 40
0.0
 41
1.0
 50
0.0
 71
0
 42
2.5
  3
LiberationSerif-Italic.ttf
  4

  0
STYLE
  5
56
330
5
100
AcDbSymbolTableRecord
100
AcDbTextStyleTableRecord
  2
LiberationMono
 70
0
 40
0.0
 41
1.0
 50
0.0
 71
0
 42
2.5
  3
LiberationMono-Regular.ttf
  4

  0
STYLE
  5
57
330
5
100
AcDbSymbolTableRecord
100
AcDbTextStyleTableRecord
  2
LiberationMono-Bold
 70
0
 40
0.0
 41
1.0
 50
0.0
 71
0
 42
2.5
  3
LiberationMono-Bold.ttf
  4

  0
STYLE
  5
58
330
5
100
AcDbSymbolTableRecord
100
AcDbTextStyleTableRecord
  2
LiberationMono-BoldItalic
 70
0
 40
0.0
 41
1.0
 50
0.0
 71
0
 42
2.5
  3
LiberationMono-BoldItalic.ttf
  4

  0
STYLE
  5
59
330
5
100
AcDbSymbolTableRecord
100
AcDbTextStyleTableRecord
  2
LiberationMono-Italic
 70
0
 40
0.0
 41
1.0
 50
0.0
 71
0
 42
2.5
  3
LiberationMono-Italic.ttf
  4

  0
STYLE
  5
9B
330
5
100
AcDbSymbolTableRecord
100
AcDbTextStyleTableRecord
  2
PLAT
 70
0
 40
0.0
 41
1.0
 50
0.0
 71
0
 42
2.5
  3
arial.ttf
  4

  0
ENDTAB
  0
TABLE
  2
VIEW
  5
7
330
0
100
AcDbSymbolTable
 70
0
  0
ENDTAB
  0
TABLE
  2
UCS
  5
6
330
0
100
AcDbSymbolTable
 70
0
  0
ENDTAB
  0
TABLE
  2
APPID
  5
3
330
0
100
AcDbSymbolTable
 70
4
  0
APPID
  5
2A
330
3
100
AcDbSymbolTableRecord
100
AcDbRegAppTableRecord
  2
ACAD
 70
0
  0
APPID
  5
8A
330
3
100
AcDbSymbolTableRecord
100
AcDbRegAppTableRecord
  2
RASTER2DXF
 70
0
  0
APPID
  5
128
330
3
100
AcDbSymbolTableRecord
100
AcDbRegAppTableRecord
  2
HATCHBACKGROUNDCOLOR
 70
0
  0
APPID
  5
129
330
3
100
AcDbSymbolTableRecord
100
AcDbRegAppTableRecord
  2
EZDXF
 70
0
  0
ENDTAB
  0
TABLE
  2
DIMSTYLE
  5
4
330
0
100
AcDbSymbolTable
 70
12
100
AcDbDimStyleTable
  0
DIMSTYLE
105
2B
330
4
100
AcDbSymbolTableRecord
100
AcDbDimStyleTableRecord
  2
Standard
 70
0
 40
1.0
 41
2.5
 42
0.625
 43
3.75
 44
1.25
 45
0.0
 46
0.0
 47
0.0
 48
0.0
 49
2.5
140
2.5
141
2.5
142
0.0
143
0.03937007874
144
1.0
145
0.0
146
1.0
147
0.625
148
0.0
 69
0
 70
0
 71
0
 72
0
 73
0
 74
0
 75
0
 76
0
 77
1
 78
8
 79
3
170
0
171
3
172
1
173
0
174
0
175
0
176
0
177
0
178
0
179
2
271
2
272
2
273
2
274
3
275
0
276
0
277
2
278
44
279
0
280
0
281
0
282
0
283
0
284
8
285
0
286
0
288
0
289
3
290
0
371
-2
372
-2
  0
DIMSTYLE
105
73
330
4
100
AcDbSymbolTableRecord
100
AcDbDimStyleTableRecord
  2
EZDXF
 70
0
 40
1.0
 41
0.175
 42
0.125
 43
3.75
 44
0.375
 45
0.0
 46
0.0
 47
0.0
 48
0.0
 49
2.5
140
0.25
141
2.5
142
0.0
143
0.03937007874
144
100.0
145
0.0
146
0.5
147
0.1
148
0.0
 69
0
 70
0
 71
0
 72
0
 73
0
 74
0
 75
0
 76
0
 77
1
 78
12
 79
3
170
0
171
3
172
1
173
0
174
0
175
0
176
0
177
0
178
0
179
2
271
2
272
2
273
2
274
3
275
0
276
0
277
2
278
46
279
2
280
0
281
0
282
0
283
0
284
8
285
0
286
0
288
1
289
3
290
0
340
4C
342
74
371
-2
372
-2
  0
DIMSTYLE
105
7C
330
4
100
AcDbSymbolTableRecord
100
AcDbDimStyleTableRecord
  2
EZ_M_100_H25_CM
 70
0
 40
1.0
 41
0.25
 42
0.125
 43
3.75
 44
0.375
 45
0.0
 46
0.0
 47
0.0
 48
0.0
 49
2.5
140
0.25
141
2.5
142
0.125
143
0.03937007874
144
100.0
145
0.0
146
0.5
147
0.1
148
0.0
 69
0
 70
0
 71
0
 72
0
 73
0
 74
0
 75
0
 76
0
 77
1
 78
12
 79
3
170
0
171
3
172
1
173
0
174
0
175
0
176
0
177
0
178
0
179
2
271
2
272
2
273
2
274
3
275
0
276
0
277
2
278
46
279
2
280
0
281
0
282
0
283
0
284
8
285
0
286
0
288
1
289
3
290
0
340
4C
371
-2
372
-2
  0
DIMSTYLE
105
7D
330
4
100
AcDbSymbolTableRecord
100
AcDbDimStyleTableRecord
  2
EZ_M_50_H25_CM
 70
0
 40
1.0
 41
0.125
 42
0.0625
 43
3.75
 44
0.1875
 45
0.0
 46
0.0
 47
0.0
 48
0.0
 49
2.5
140
0.125
141
2.5
142
0.0625
143
0.03937007874
144
100.0
145
0.0
146
0.5
147
0.05
148
0.0
 69
0
 70
0
 71
0
 72
0
 73
0
 74
0
 75
0
 76
0
 77
1
 78
12
 79
3
170
0
171
3
172
1
173
0
174
0
175
0
176
0
177
0
178
0
179
2
271
2
272
2
273
2
274
3
275
0
276
0
277
2
278
46
279
2
280
0
281
0
282
0
283
0
284
8
285
0
286
0
288
1
289
3
290
0
340
4C
371
-2
372
-2
  0
DIMSTYLE
105
7E
330
4
100
AcDbSymbolTableRecord
100
AcDbDimStyleTableRecord
  2
EZ_M_25_H25_CM
 70
0
 40
1.0
 41
0.0625
 42
0.03125
 43
3.75
 44
0.09375
 45
0.0
 46
0.0
 47
0.0
 48
0.0
 49
2.5
140
0.0625
141
2.5
142
0.03125
143
0.03937007874
144
100.0
145
0.0
146
0.5
147
0.025
148
0.0
 69
0
 70
0
 71
0
 72
0
 73
0
 74
0
 75
0
 76
0
 77
1
 78
12
 79
3
170
0
171
3
172
1
173
0
174
0
175
0
176
0
177
0
178
0
179
2
271
2
272
2
273
2
274
3
275
0
276
0
277
2
278
46
279
2
280
0
281
0
282
0
283
0
284
8
285
0
286
0
288
1
289
3
290
0
340
4C
371
-2
372
-2
  0
DIMSTYLE
105
7F
330
4
100
AcDbSymbolTableRecord
100
AcDbDimStyleTableRecord
  2
EZ_M_20_H25_CM
 70
0
 40
1.0
 41
0.05
 42
0.025
 43
3.75
 44
0.07500000000000001
 45
0.0
 46
0.0
 47
0.0
 48
0.0
 49
2.5
140
0.05
141
2.5
142
0.025
143
0.03937007874
144
100.0
145
0.0
146
0.5
147
0.020000000000000004
148
0.0
 69
0
 70
0
 71
0
 72
0
 73
0
 74
0
 75
0
 76
0
 77
1
 78
12
 79
3
170
0
171
3
172
1
173
0
174
0
175
0
176
0
177
0
178
0
179
2
271
2
272
2
273
2
274
3
275
0
276
0
277
2
278
46
279
2
280
0
281
0
282
0
283
0
284
8
285
0
286
0
288
1
289
3
290
0
340
4C
371
-2
372
-2
  0
DIMSTYLE
105
80
330
4
100
AcDbSymbolTableRecord
100
AcDbDimStyleTableRecord
  2
EZ_M_10_H25_CM
 70
0
 40
1.0
 41
0.025
 42
0.0125
 43
3.75
 44
0.037500000000000006
 45
0.0
 46
0.0
 47
0.0
 48
0.0
 49
2.5
140
0.025
141
2.5
142
0.0125
143
0.03937007874
144
100.0
145
0.0
146
0.5
147
0.010000000000000002
148
0.0
 69
0
 70
0
 71
0
 72
0
 73
0
 74
0
 75
0
 76
0
 77
1
 78
12
 79
3
170
0
171
3
172
1
173
0
174
0
175
0
176
0
177
0
178
0
179
2
271
2
272
2
273
2
274
3
275
0
276
0
277
2
278
46
279
2
280
0
281
0
282
0
283
0
284
8
285
0
286
0
288
1
289
3
290
0
340
4C
371
-2
372
-2
  0
DIMSTYLE
105
81
330
4
100
AcDbSymbolTableRecord
100
AcDbDimStyleTableRecord
  2
EZ_M_5_H25_CM
 70
0
 40
1.0
 41
0.0125
 42
0.00625
 43
3.75
 44
0.018750000000000003
 45
0.0
 46
0.0
 47
0.0
 48
0.0
 49
2.5
140
0.0125
141
2.5
142
0.00625
143
0.03937007874
144
100.0
145
0.0
146
0.5
147
0.005000000000000001
148
0.0
 69
0
 70
0
 71
0
 72
0
 73
0
 74
0
 75
0
 76
0
 77
1
 78
12
 79
3
170
0
171
3
172
1
173
0
174
0
175
0
176
0
177
0
178
0
179
2
271
2
272
2
273
2
274
3
275
0
276
0
277
2
278
46
279
2
280
0
281
0
282
0
283
0
284
8
285
0
286
0
288
1
289
3
290
0
340
4C
371
-2
372
-2
  0
DIMSTYLE
105
82
330
4
100
AcDbSymbolTableRecord
100
AcDbDimStyleTableRecord
  2
EZ_M_1_H25_CM
 70
0
 40
1.0
 41
0.0025
 42
0.00125
 43
3.75
 44
0.00375
 45
0.0
 46
0.0
 47
0.0
 48
0.0
 49
2.5
140
0.0025
141
2.5
142
0.00125
143
0.03937007874
144
100.0
145
0.0
146
0.5
147
0.001
148
0.0
 69
0
 70
0
 71
0
 72
0
 73
0
 74
0
 75
0
 76
0
 77
1
 78
12
 79
3
170
0
171
3
172
1
173
0
174
0
175
0
176
0
177
0
178
0
179
2
271
2
272
2
273
2
274
3
275
0
276
0
277
2
278
46
279
2
280
0
281
0
282
0
283
0
284
8
285
0
286
0
288
1
289
3
290
0
340
4C
371
-2
372
-2
  0
DIMSTYLE
105
83
330
4
100
AcDbSymbolTableRecord
100
AcDbDimStyleTableRecord
  2
EZ_RADIUS
 70
0
 40
1.0
 41
0.25
 42
0.125
 43
3.75
 44
0.375
 45
0.0
 46
0.0
 47
0.0
 48
0.0
 49
2.5
140
0.25
141
0.0
142
0.0
143
0.03937007874
144
100.0
145
0.0
146
0.5
147
0.1
148
0.0
 69
0
 70
0
 71
0
 72
0
 73
0
 74
0
 75
0
 76
0
 77
1
 78
12
 79
3
170
0
171
3
172
0
173
0
174
0
175
0
176
0
177
0
178
0
179
2
271
2
272
2
273
2
274
3
275
0
276
0
277
2
278
46
279
1
280
0
281
0
282
0
283
0
284
8
285
0
286
0
288
1
289
3
290
0
340
4C
342
84
371
-2
372
-2
  0
DIMSTYLE
105
88
330
4
100
AcDbSymbolTableRecord
100
AcDbDimStyleTableRecord
  2
EZ_RADIUS_INSIDE
 70
0
 40
1.0
 41
0.25
 42
0.125
 43
3.75
 44
0.375
 45
0.0
 46
0.0
 47
0.0
 48
0.0
 49
2.5
140
0.25
141
0.0
142
0.0
143
0.03937007874
144
100.0
145
0.0
146
0.5
147
0.1
148
0.0
 69
0
 70
0
 71
0
 72
0
 73
0
 74
0
 75
0
 76
0
 77
0
 78
12
 79
3
170
0
171
3
172
0
173
0
174
1
175
0
176
0
177
0
178
0
179
2
271
2
272
2
273
2
274
3
275
0
276
0
277
2
278
46
279
0
280
0
281
0
282
0
283
0
284
8
285
0
286
0
288
1
289
0
290
0
340
4C
342
84
371
-2
372
-2
  0
DIMSTYLE
105
89
330
4
100
AcDbSymbolTableRecord
100
AcDbDimStyleTableRecord
  2
EZ_CURVED
 70
0
 40
1.0
 41
0.25
 42
0.125
 43
3.75
 44
0.375
 45
0.0
 46
0.0
 47
0.0
 48
0.0
 49
2.5
140
0.25
141
2.5
142
0.0
143
0.03937007874
144
100.0
145
0.0
146
0.5
147
0.1
148
0.0
 69
0
 70
0
 71
0
 72
0
 73
0
 74
0
 75
0
 76
0
 77
1
 78
12
 79
2
 90
2
170
0
171
3
172
1
173
0
174
0
175
0
176
0
177
0
178
0
179
2
271
2
272
2
273
2
274
3
275
0
276
0
277
2
278
46
279
2
280
0
281
0
282
0
283
0
284
8
285
0
286
0
288
1
289
3
290
0
340
4C
371
-2
372
-2
  0
ENDTAB
  0
TABLE
  2
BLOCK_RECORD
  5
9
330
0
100
AcDbSymbolTable
 70
5
  0
BLOCK_RECORD
  5
17
330
9
100
AcDbSymbolTableRecord
100
AcDbBlockTableRecord
  2
*Model_Space
340
1A
 70
0
280
1
281
0
  0
BLOCK_RECORD
  5
1B
330
9
100
AcDbSymbolTableRecord
100
AcDbBlockTableRecord
  2
*Paper_Space
340
1E
 70
0
280
1
281
0
  0
BLOCK_RECORD
  5
74
330
9
100
AcDbSymbolTableRecord
100
AcDbBlockTableRecord
  2
_ARCHTICK
340
0
 70
0
280
1
281
0
  0
BLOCK_RECORD
  5
78
330
9
100
AcDbSymbolTableRecord
100
AcDbBlockTableRecord
  2
_CLOSEDFILLED
340
0
 70
0
280
1
281
0
  0
BLOCK_RECORD
  5
84
330
9
100
AcDbSymbolTableRecord
100
AcDbBlockTableRecord
  2
_CLOSEDBLANK
340
0
 70
0
280
1
281
0
  0
ENDTAB
  0
ENDSEC
  0
SECTION
  2
BLOCKS
  0
BLOCK
  5
18
330
17
100
AcDbEntity
  8
0
100
AcDbBlockBegin
  2
*Model_Space
 70
0
 10
0.0
 20
0.0
 30
0.0
  3
*Model_Space
  1

  0
ENDBLK
  5
19
330
17
100
AcDbEntity
  8
0
100
AcDbBlockEnd
  0
BLOCK
  5
1C
330
1B
100
AcDbEntity
  8
0
100
AcDbBlockBegin
  2
*Paper_Space
 70
0
 10
0.0
 20
0.0
 30
0.0
  3
*Paper_Space
  1

  0
ENDBLK
  5
1D
330
1B
100
AcDbEntity
  8
0
100
AcDbBlockEnd
  0
BLOCK
  5
75
330
74
100
AcDbEntity
  8
0
100
AcDbBlockBegin
  2
_ARCHTICK
 70
0
 10
0.0
 20
0.0
 30
0.0
  3
_ARCHTICK
  1

  0
LWPOLYLINE
  5
77
330
74
100
AcDbEntity
  8
0
  6
BYBLOCK
 62
0
100
AcDbPolyline
 90
2
 70
0
 43
0.15
 10
-0.5
 20
-0.5
 10
0.5
 20
0.5
  0
ENDBLK
  5
76
330
74
100
AcDbEntity
  8
0
100
AcDbBlockEnd
  0
BLOCK
  5
79
330
78
100
AcDbEntity
  8
0
100
AcDbBlockBegin
  2
_CLOSEDFILLED
 70
0
 10
0.0
 20
0.0
 30
0.0
  3
_CLOSEDFILLED
  1

  0
SOLID
  5
7B
330
78
100
AcDbEntity
  8
0
  6
BYBLOCK
 62
0
100
AcDbTrace
 10
-1.0
 20
0.16439898372402537
 30
0.0
 11
0.0
 21
0.0
 31
0.0
 12
-1.0
 22
-0.16439898372402537
 32
0.0
 13
-1.0
 23
-0.16439898372402537
 33
0.0
  0
ENDBLK
  5
7A
330
78
100
AcDbEntity
  8
0
100
AcDbBlockEnd
  0
BLOCK
  5
85
330
84
100
AcDbEntity
  8
0
100
AcDbBlockBegin
  2
_CLOSEDBLANK
 70
0
 10
0.0
 20
0.0
 30
0.0
  3
_CLOSEDBLANK
  1

  0
LWPOLYLINE
  5
87
330
84
100
AcDbEntity
  8
0
  6
BYBLOCK
 62
0
100
AcDbPolyline
 90
3
 70
1
 10
-1.0
 20
0.16439898372402537
 10
0.0
 20
0.0
 10
-1.0
 20
-0.16439898372402537
  0
ENDBLK
  5
86
330
84
100
AcDbEntity
  8
0
100
AcDbBlockEnd
  0
ENDSEC
  0
SECTION
  2
ENTITIES
  0
LINE
  5
9C
330
17
100
AcDbEntity
  8
PLAT-LINE
100
AcDbLine
 10
105.74937814909569
 20
464.802069631753
 30
0.0
 11
105.24373125963005
 21
396.6489637882366
 31
0.0
1001
RASTER2DXF
1000
line 0
1040
68.155
1040
1.0
  0
LINE
  5
9D
330
17
100
AcDbEntity
  8
PLAT-LINE
100
AcDbLine
 10
30.24507930587862
 20
397.09871833290725
 30
0.0
 11
30.25147569546442
 21
464.4681198030982
 31
0.0
1001
RASTER2DXF
1000
line 1
1040
67.369
1040
1.0
  0
LINE
  5
9E
330
17
100
AcDbEntity
  8
PLAT-LINE
100
AcDbLine
 10
179.7641842648006
 20
464.46922754076803
 30
0.0
 11
179.51502366238222
 21
396.20357109881473
 31
0.0
1001
RASTER2DXF
1000
line 2
1040
68.266
1040
1.0
1000
distance=100°
  0
LINE
  5
9F
330
17
100
AcDbEntity
  8
PLAT-LINE
100
AcDbLine
 10
279.4659836714591
 20
464.47847594144207
 30
0.0
 11
276.86990542678035
 21
412.6001436983973
 31
0.0
1001
RASTER2DXF
1000
line 3
1040
51.943
1040
1.0
1000
distance=100.¢
  0
LINE
  5
A0
330
17
100
AcDbEntity
  8
PLAT-LINE
100
AcDbLine
 10
244.11556260256
 20
395.84414076586035
 30
0.0
 11
179.51514457748678
 21
396.224127516346
 31
0.0
1001
RASTER2DXF
1000
line 4
1040
64.602
1040
0.955
1000
distance=97.78"
  0
LINE
  5
A1
330
17
100
AcDbEntity
  8
PLAT-LINE
100
AcDbLine
 10
179.51514457748678
 20
396.224127516346
 30
0.0
 11
105.24380205622175
 21
396.6609997063666
 31
0.0
1001
RASTER2DXF
1000
line 5
1040
74.273
1040
0.955
1000
distance=75'
  0
LINE
  5
A2
330
17
100
AcDbEntity
  8
PLAT-LINE
100
AcDbLine
 10
105.24380205622175
 20
396.6609997063666
 30
0.0
 11
30.24509949313284
 21
397.102150308001
 31
0.0
1001
RASTER2DXF
1000
line 6
1040
75.0
1040
0.955
1000
distance=75'
  0
LINE
  5
A3
330
17
100
AcDbEntity
  8
PLAT-LINE
100
AcDbLine
 10
30.24509949313284
 20
397.102150308001
 30
0.0
 11
0.3293180692590454
 21
397.2781182184112
 31
0.0
1001
RASTER2DXF
1000
line 7
1040
29.916
1040
0.955
  0
LINE
  5
A4
330
17
100
AcDbEntity
  8
PLAT-LINE
100
AcDbLine
 10
359.3564335361749
 20
462.84035204393433
 30
0.0
 11
344.3432935850618
 21
2.642101018823354
 31
0.0
1001
RASTER2DXF
1000
line 8
1040
460.443
1040
0.988
  0
LINE
  5
A5
330
17
100
AcDbEntity
  8
PLAT-LINE
100
AcDbLine
 10
363.947249772374
 20
443.28312046136585
 30
0.0
 11
362.07700379070224
 21
422.9730474405575
 31
0.0
1001
RASTER2DXF
1000
line 9
1040
20.396
1040
0.857
  0
LINE
  5
A6
330
17
100
AcDbEntity
  8
PLAT-LINE
100
AcDbLine
 10
0.3333840031899342
 20
340.14087578440757
 30
0.0
 11
29.573401222006567
 21
339.9251804208562
 31
0.0
1001
RASTER2DXF
1000
line 10
1040
29.241
1040
1.0
  0
LINE
  5
A7
330
17
100
AcDbEntity
  8
PLAT-LINE
100
AcDbLine
 10
29.573401222006567
 20
339.9251804208562
 30
0.0
 11
104.99135722014253
 21
339.3688434216136
 31
0.0
1001
RASTER2DXF
1000
line 11
1040
75.42
1040
1.0
1000
distance=75'
  0
LINE
  5
A8
330
17
100
AcDbEntity
  8
PLAT-LINE
100
AcDbLine
 10
104.99135722014253
 20
339.3688434216136
 30
0.0
 11
179.05025598809559
 21
338.8225318044067
 31
0.0
1001
RASTER2DXF
1000
line 12
1040
74.061
1040
1.0
1000
distance=75"
  0
LINE
  5
A9
330
17
100
AcDbEntity
  8
PLAT-LINE
100
AcDbLine
 10
179.05025598809559
 20
338.8225318044067
 30
0.0
 11
247.84585599298276
 21
338.31504605832305
 31
0.0
1001
RASTER2DXF
1000
line 13
1040
68.797
1040
1.0
1000
distance=95.98'
  0
LINE
  5
AA
330
17
100
AcDbEntity
  8
PLAT-LINE
100
AcDbLine
 10
29.573948195933326
 20
339.99932910339487
 30
0.0
 11
29.56082445146623
 21
136.22440998518113
 31
0.0
1001
RASTER2DXF
1000
line 14
1040
203.775
1040
1.0
  0
LINE
  5
AB
330
17
100
AcDbEntity
  8
PLAT-LINE
100
AcDbLine
 10
104.99331498857165
 20
339.6342417205656
 30
0.0
 11
104.7967936915258
 21
136.37121014949122
 31
0.0
1001
RASTER2DXF
1000
line 15
1040
203.263
1040
0.961
  0
LINE
  5
AC
330
17
100
AcDbEntity
  8
PLAT-LINE
100
AcDbLine
 10
179.07614986265213
 20
136.5161437736726
 30
0.0
 11
179.06560956134658
 21
231.28676665606088
 31
0.0
1001
RASTER2DXF
1000
line 16
1040
94.771
1040
0.971
1000
distance=100°
  0
LINE
  5
AD
330
17
100
AcDbEntity
  8
PLAT-LINE
100
AcDbLine
 10
179.06560956134658
 20
231.28676665606088
 30
0.0
 11
179.0535991280301
 21
339.2757333366063
 31
0.0
1001
RASTER2DXF
1000
line 17
1040
107.989
1040
0.971
1000
distance=100°
  0
LINE
  5
AE
330
17
100
AcDbEntity
  8
PLAT-LINE
100
AcDbLine
 10
268.21792199661434
 20
153.7877243952688
 30
0.0
 11
270.65563129524406
 21
231.20945876674222
 31
0.0
1001
RASTER2DXF
1000
line 18
1040
77.46
1040
1.0
1000
distance=100.04
  0
LINE
  5
AF
330
17
100
AcDbEntity
  8
PLAT-LINE
100
AcDbLine
 10
270.65563129524406
 20
231.20945876674222
 30
0.0
 11
270.8337719197135
 21
236.86721136102983
 31
0.0
1001
RASTER2DXF
1000
line 19
1040
5.661
1040
1.0
  0
LINE
  5
B0
330
17
100
AcDbEntity
  8
PLAT-LINE
100
AcDbLine
 10
270.8337719197135
 20
236.86721136102983
 30
0.0
 11
272.9562634825225
 21
304.27761918687787
 31
0.0
1001
RASTER2DXF
1000
line 20
1040
67.444
1040
1.0
  0
LINE
  5
B1
330
17
100
AcDbEntity
  8
PLAT-LINE
100
AcDbLine
 10
358.21344571797937
 20
301.67055071582706
 30
0.0
 11
357.77843751278255
 21
277.75738607068234
 31
0.0
1001
RASTER2DXF
1000
line 21
1040
23.917
1040
0.806
  0
LINE
  5
B2
330
17
100
AcDbEntity
  8
PLAT-LINE
100
AcDbLine
 10
129.09523763423124
 20
254.82781752040918
 30
0.0
 11
149.91883304857458
 21
260.7045972397298
 31
0.0
1001
RASTER2DXF
1000
line 22
1040
21.637
1040
1.0
  0
LINE
  5
B3
330
17
100
AcDbEntity
  8
PLAT-LINE
100
AcDbLine
 10
11.960878002672644
 20
242.59329651673866
 30
0.0
 11
130.23727642350093
 21
241.89102132412972
 31
0.0
1001
RASTER2DXF
1000
line 23
1040
118.278
1040
0.83
  0
LINE
  5
B4
330
17
100
AcDbEntity
  8
PLAT-LINE
100
AcDbLine
 10
20.715467825449252
 20
239.0421778262463
 30
0.0
 11
271.828515009273
 21
236.8358907699987
 31
0.0
1001
RASTER2DXF
1000
line 24
1040
251.123
1040
0.975
  0
LINE
  5
B5
330
17
100
AcDbEntity
  8
PLAT-LINE
100
AcDbLine
 10
179.06560956134658
 20
231.28676665606088
 30
0.0
 11
271.63246421639275
 21
231.17870209725626
 31
0.0
1001
RASTER2DXF
1000
line 25
1040
92.567
1040
0.878
  0
LINE
  5
B6
330
17
100
AcDbEntity
  8
PLAT-LINE
100
AcDbLine
 10
236.4104168037089
 20
136.70575725763936
 30
0.0
 11
179.07601566080612
 21
136.57497919579615
 31
0.0
1001
RASTER2DXF
1000
line 26
1040
57.335
1040
0.952
1000
distance=90°
  0
LINE
  5
B7
330
17
100
AcDbEntity
  8
PLAT-LINE
100
AcDbLine
 10
179.07601566080612
 20
136.57497919579615
 30
0.0
 11
104.79671536261135
 21
136.40555032352353
 31
0.0
1001
RASTER2DXF
1000
line 27
1040
74.279
1040
0.952
1000
distance=75'
  0
LINE
  5
B8
330
17
100
AcDbEntity
  8
PLAT-LINE
100
AcDbLine
 10
104.79671536261135
 20
136.40555032352353
 30
0.0
 11
29.560802715047657
 21
136.23393944696568
 31
0.0
1001
RASTER2DXF
1000
line 28
1040
75.236
1040
0.952
1000
distance=75°
  0
LINE
  5
B9
330
17
100
AcDbEntity
  8
PLAT-LINE
100
AcDbLine
 10
29.560802715047657
 20
136.23393944696568
 30
0.0
 11
0.6636978178668471
 21
136.1680260111226
 31
0.0
1001
RASTER2DXF
1000
line 29
1040
28.897
1040
0.952
  0
LINE
  5
BA
330
17
100
AcDbEntity
  8
PLAT-LINE
100
AcDbLine
 10
175.07422179849254
 20
77.78440780858028
 30
0.0
 11
175.02753508495226
 21
0.9973576215586206
 31
0.0
1001
RASTER2DXF
1000
line 30
1040
76.787
1040
1.0
1000
distance=87.05°
  0
LINE
  5
BB
330
17
100
AcDbEntity
  8
PLAT-LINE
100
AcDbLine
 10
244.5688175228695
 20
76.60144974496706
 30
0.0
 11
175.07043626274407
 21
76.89838024368379
 31
0.0
1001
RASTER2DXF
1000
line 31
1040
69.499
1040
0.995
1000
distance=100!
  0
LINE
  5
BC
330
17
100
AcDbEntity
  8
PLAT-LINE
100
AcDbLine
 10
175.07043626274407
 20
76.89838024368379
 30
0.0
 11
99.21849469581625
 21
77.22245620674542
 31
0.0
1001
RASTER2DXF
1000
line 32
1040
75.853
1040
0.995
1000
distance=75"
  0
LINE
  5
BD
330
17
100
AcDbEntity
  8
PLAT-LINE
100
AcDbLine
 10
99.21849469581625
 20
77.22245620674542
 30
0.0
 11
23.547684831077333
 21
77.54575828808942
 31
0.0
1001
RASTER2DXF
1000
line 33
1040
75.672
1040
0.995
1000
distance=75"
  0
LINE
  5
BE
330
17
100
AcDbEntity
  8
PLAT-LINE
100
AcDbLine
 10
23.547684831077333
 20
77.54575828808942
 30
0.0
 11
0.6604123954044496
 21
77.64354371985584
 31
0.0
1001
RASTER2DXF
1000
line 34
1040
22.887
1040
0.995
  0
LINE
  5
BF
330
17
100
AcDbEntity
  8
PLAT-LINE
100
AcDbLine
 10
23.548181594887524
 20
77.66202886597046
 30
0.0
 11
23.957432131776216
 21
1.3333088310456844
 31
0.0
1001
RASTER2DXF
1000
line 35
1040
76.33
1040
1.0
1000
distance=105.97'
  0
LINE
  5
C0
330
17
100
AcDbEntity
  8
PLAT-LINE
100
AcDbLine
 10
99.22063387988136
 20
77.72314519081394
 30
0.0
 11
99.13379829571517
 21
0.6644606337755192
 31
0.0
1001
RASTER2DXF
1000
line 36
1040
77.059
1040
0.991
1000
distance=35°
  0
LINE
  5
C1
330
17
100
AcDbEntity
  8
PLAT-LINE
100
AcDbLine
 10
264.66809048355566
 20
42.42676964511264
 30
0.0
 11
263.86537194501943
 21
0.9809495439583884
 31
0.0
1001
RASTER2DXF
1000
line 37
1040
41.454
1040
1.0
1000
distance=90°
  0
LINE
  5
C2
330
17
100
AcDbEntity
  8
PLAT-LINE
100
AcDbLine
 10
179.11966048305362
 20
34.41282029464162
 30
0.0
 11
177.00159699845648
 21
13.629996041888006
 31
0.0
1001
RASTER2DXF
1000
line 38
1040
20.89
1040
0.886
  0
LINE
  5
C3
330
17
100
AcDbEntity
  8
PLAT-LINE
100
AcDbLine
 10
358.3548180639021
 20
261.905810105606
 30
0.0
 11
355.9341701938999
 21
242.22774476608228
 31
0.0
1001
RASTER2DXF
1000
line 39
1040
19.826
1040
1.0
1000
distance=10
  0
LINE
  5
C4
330
17
100
AcDbEntity
  8
PLAT-LINE-DASH
100
AcDbLine
 10
13.62224398329792
 20
232.24217128801297
 30
0.0
 11
161.800028072035
 21
231.54509819297758
 31
0.0
1001
RASTER2DXF
1000
line 40
1040
148.179
1040
0.717
  0
ARC
  5
C5
330
17
100
AcDbEntity
  8
PLAT-CURVE
100
AcDbCircle
 10
251.93071482450085
 20
420.9590282873224
 30
0.0
 40
26.302740911695786
100
AcDbArc
 50
-107.28489219685497
 51
-18.529639704630057
1001
RASTER2DXF
1000
arc 0
1040
26.303
1040
40.745
  0
ARC
  5
C6
330
17
100
AcDbEntity
  8
PLAT-CURVE
100
AcDbCircle
 10
26.49509878038242
 20
367.1185868643395
 30
0.0
 40
13.371727887572293
100
AcDbArc
 50
67.84979573955727
 51
175.8737150817838
1001
RASTER2DXF
1000
arc 1
1040
13.372
1040
25.211
  0
ARC
  5
C7
330
17
100
AcDbEntity
  8
PLAT-CURVE
100
AcDbCircle
 10
14.379408130827471
 20
385.49442520374896
 30
0.0
 40
18.12293460576821
100
AcDbArc
 50
-95.65816148611236
 51
-21.810944801915515
1001
RASTER2DXF
1000
arc 2
1040
18.123
1040
23.358
  0
ARC
  5
C8
330
17
100
AcDbEntity
  8
PLAT-CURVE
100
AcDbCircle
 10
248.72998319743516
 20
312.6862373625842
 30
0.0
 40
25.64405420514533
100
AcDbArc
 50
-19.14120457916924
 51
91.97577176797111
1001
RASTER2DXF
1000
arc 3
1040
25.644
1040
49.733
  0
ARC
  5
C9
330
17
100
AcDbEntity
  8
PLAT-CURVE
100
AcDbCircle
 10
10.685332850469734
 20
277.5739936512454
 30
0.0
 40
39.815881735658685
100
AcDbArc
 50
-105.69354759724204
 51
-75.40926222716837
1001
RASTER2DXF
1000
arc 4
1040
39.816
1040
21.045
  0
ARC
  5
CA
330
17
100
AcDbEntity
  8
PLAT-CURVE
100
AcDbCircle
 10
242.57241572704197
 20
163.38638938386018
 30
0.0
 40
27.382957498887603
100
AcDbArc
 50
-103.00466804039395
 51
-20.519996865254726
1001
RASTER2DXF
1000
arc 5
1040
27.383
1040
39.421
  0
ARC
  5
CB
330
17
100
AcDbEntity
  8
PLAT-CURVE
100
AcDbCircle
 10
316.00094253790274
 20
146.51141894485735
 30
0.0
 40
10.37009128877271
100
AcDbArc
 50
159.7361380662898
 51
-93.69404451386463
1001
RASTER2DXF
1000
arc 6
1040
10.37
1040
19.288
  0
ARC
  5
CC
330
17
100
AcDbEntity
  8
PLAT-CURVE
100
AcDbCircle
 10
307.56413411048993
 20
140.39169075786145
 30
0.0
 40
9.857954177202224
100
AcDbArc
 50
-29.96222724323312
 51
93.49281268224924
1001
RASTER2DXF
1000
arc 7
1040
9.858
1040
21.241
  0
ARC
  5
CD
330
17
100
AcDbEntity
  8
PLAT-CURVE
100
AcDbCircle
 10
165.38945303479844
 20
105.90025646902198
 30
0.0
 40
12.00384231188805
100
AcDbArc
 50
62.605786625668365
 51
142.609107797774
1001
RASTER2DXF
1000
arc 8
1040
12.004
1040
16.761
  0
ARC
  5
CE
330
17
100
AcDbEntity
  8
PLAT-CURVE
100
AcDbCircle
 10
133.70626209731563
 20
118.29724100101951
 30
0.0
 40
15.332924034544845
100
AcDbArc
 50
-91.8325419406538
 51
-7.747622496530846
1001
RASTER2DXF
1000
arc 9
1040
15.333
1040
22.502
  0
ARC
  5
CF
330
17
100
AcDbEntity
  8
PLAT-CURVE
100
AcDbCircle
 10
238.61331177160864
 20
50.10094996544862
 30
0.0
 40
27.161453151802444
100
AcDbArc
 50
-16.41182188585984
 51
77.33424210846532
1001
RASTER2DXF
1000
arc 10
1040
27.161
1040
44.441
  0
ARC
  5
D0
330
17
100
AcDbEntity
  8
PLAT-CURVE
100
AcDbCircle
 10
312.2623440660252
 20
41.52827919494979
 30
0.0
 40
9.50292102699372
100
AcDbArc
 50
154.24039839168134
 51
-83.14904441810306
1001
RASTER2DXF
1000
arc 11
1040
9.503
1040
20.336
  0
CIRCLE
  5
D1
330
17
100
AcDbEntity
  8
PLAT-MON
100
AcDbCircle
 10
178.53440112311128
 20
136.76441761479788
 30
0.0
 40
6.47299475938764
  0
POINT
  5
D2
330
17
100
AcDbEntity
  8
PLAT-MON
100
AcDbPoint
 10
178.53440112311128
 20
136.76441761479788
 30
0.0
  0
TEXT
  5
D3
330
17
100
AcDbEntity
  8
PLAT-TEXT-DIST
100
AcDbText
 10
274.22937157153336
 20
446.9110151996409
 30
0.0
 40
8.704122666156794
  1
100.00'
 50
87.13521336917518
  7
PLAT
 72
1
 11
274.22937157153336
 21
446.9110151996409
 31
0.0
100
AcDbText
 73
1
  0
TEXT
  5
D4
330
17
100
AcDbEntity
  8
PLAT-TEXT-DIST
100
AcDbText
 10
184.0417341905045
 20
444.046460176725
 30
0.0
 40
8.704122666156794
  1
100'
 50
89.79087892372229
  7
PLAT
 72
1
 11
184.0417341905045
 21
444.046460176725
 31
0.0
100
AcDbText
 73
3
  0
TEXT
  5
D5
330
17
100
AcDbEntity
  8
PLAT-TEXT-DIST
100
AcDbText
 10
139.9939442162854
 20
400.8087321767839
 30
0.0
 40
8.704122666156794
  1
75'
 50
359.6629838219216
  7
PLAT
 72
1
 11
139.9939442162854
 21
400.8087321767839
 31
0.0
100
AcDbText
 73
1
  0
TEXT
  5
D6
330
17
100
AcDbEntity
  8
PLAT-TEXT-DIST
100
AcDbText
 10
64.91378773044578
 20
401.25036189933365
 30
0.0
 40
8.704122666156794
  1
75'
 50
359.66298382192156
  7
PLAT
 72
1
 11
64.91378773044578
 21
401.25036189933365
 31
0.0
100
AcDbText
 73
1
  0
TEXT
  5
D7
330
17
100
AcDbEntity
  8
PLAT-TEXT-DIST
100
AcDbText
 10
230.05456299260226
 20
400.2789857305263
 30
0.0
 40
8.704122666156794
  1
97.78'
 50
359.66298382192156
  7
PLAT
 72
1
 11
230.05456299260226
 21
400.2789857305263
 31
0.0
100
AcDbText
 73
1
  0
TEXT
  5
D8
330
17
100
AcDbEntity
  8
PLAT-TEXT-DIST
100
AcDbText
 10
62.9536189515218
 20
335.32676422307446
 30
0.0
 40
8.704122666156794
  1
75'
 50
359.5773528537456
  7
PLAT
 72
1
 11
62.9536189515218
 21
335.32676422307446
 31
0.0
100
AcDbText
 73
3
  0
TEXT
  5
D9
330
17
100
AcDbEntity
  8
PLAT-TEXT-DIST
100
AcDbText
 10
138.19887794543604
 20
334.77170116094453
 30
0.0
 40
8.704122666156794
  1
75'
 50
359.5773528537456
  7
PLAT
 72
1
 11
138.19887794543604
 21
334.77170116094453
 31
0.0
100
AcDbText
 73
3
  0
TEXT
  5
DA
330
17
100
AcDbEntity
  8
PLAT-TEXT-DIST
100
AcDbText
 10
223.60991504412837
 20
334.1416480197156
 30
0.0
 40
8.704122666156794
  1
95.98'
 50
359.57735285374554
  7
PLAT
 72
1
 11
223.60991504412837
 21
334.1416480197156
 31
0.0
100
AcDbText
 73
3
  0
TEXT
  5
DB
330
17
100
AcDbEntity
  8
PLAT-TEXT-DIST
100
AcDbText
 10
183.41121001657774
 20
289.3784616768723
 30
0.0
 40
8.704122666156794
  1
100'
 50
90.00637238374875
  7
PLAT
 72
1
 11
183.41121001657774
 21
289.3784616768723
 31
0.0
100
AcDbText
 73
3
  0
TEXT
  5
DC
330
17
100
AcDbEntity
  8
PLAT-TEXT-DIST
100
AcDbText
 10
360.9691323541739
 20
247.5125462521345
 30
0.0
 40
8.704122666156794
  1
10'
 50
82.98713478377715
  7
PLAT
 72
1
 11
360.9691323541739
 21
247.5125462521345
 31
0.0
100
AcDbText
 73
3
  0
TEXT
  5
DD
330
17
100
AcDbEntity
  8
PLAT-TEXT-DIST
100
AcDbText
 10
265.1647775080148
 20
195.10986752821958
 30
0.0
 40
8.704122666156794
  1
100.04'
 50
88.19657454348832
  7
PLAT
 72
1
 11
265.1647775080148
 21
195.10986752821958
 31
0.0
100
AcDbText
 73
1
  0
TEXT
  5
DE
330
17
100
AcDbEntity
  8
PLAT-TEXT-DIST
100
AcDbText
 10
183.42284963189212
 20
184.72361723971983
 30
0.0
 40
8.704122666156794
  1
100'
 50
90.00637238374875
  7
PLAT
 72
1
 11
183.42284963189212
 21
184.72361723971983
 31
0.0
100
AcDbText
 73
3
  0
TEXT
  5
DF
330
17
100
AcDbEntity
  8
PLAT-TEXT-DIST
100
AcDbText
 10
66.62885769882439
 20
140.67056323123245
 30
0.0
 40
8.704122666156794
  1
75'
 50
0.13068974040390913
  7
PLAT
 72
1
 11
66.62885769882439
 21
140.67056323123245
 31
0.0
100
AcDbText
 73
1
  0
TEXT
  5
E0
330
17
100
AcDbEntity
  8
PLAT-TEXT-DIST
100
AcDbText
 10
220.94595381978874
 20
141.02255593260682
 30
0.0
 40
8.704122666156794
  1
90'
 50
0.13068974040390913
  7
PLAT
 72
1
 11
220.94595381978874
 21
141.02255593260682
 31
0.0
100
AcDbText
 73
1
  0
TEXT
  5
E1
330
17
100
AcDbEntity
  8
PLAT-TEXT-DIST
100
AcDbText
 10
138.55829126643994
 20
140.8346321274612
 30
0.0
 40
8.704122666156794
  1
75'
 50
0.13068974040390913
  7
PLAT
 72
1
 11
138.55829126643994
 21
140.8346321274612
 31
0.0
100
AcDbText
 73
1
  0
TEXT
  5
E2
330
17
100
AcDbEntity
  8
PLAT-TEXT-DIST
100
AcDbText
 10
59.632155750211524
 20
73.03948702498838
 30
0.0
 40
8.704122666156794
  1
75'
 50
359.75520637229647
  7
PLAT
 72
1
 11
59.632155750211524
 21
73.03948702498838
 31
0.0
100
AcDbText
 73
3
  0
TEXT
  5
E3
330
17
100
AcDbEntity
  8
PLAT-TEXT-DIST
100
AcDbText
 10
136.21577076919303
 20
72.71228500115988
 30
0.0
 40
8.704122666156794
  1
75'
 50
359.7552063722965
  7
PLAT
 72
1
 11
136.21577076919303
 21
72.71228500115988
 31
0.0
100
AcDbText
 73
3
  0
TEXT
  5
E4
330
17
100
AcDbEntity
  8
PLAT-TEXT-DIST
100
AcDbText
 10
219.78831226296361
 20
72.35522292324056
 30
0.0
 40
8.704122666156794
  1
100'
 50
359.75520637229647
  7
PLAT
 72
1
 11
219.78831226296361
 21
72.35522292324056
 31
0.0
100
AcDbText
 73
3
  0
TEXT
  5
E5
330
17
100
AcDbEntity
  8
PLAT-TEXT-DIST
100
AcDbText
 10
170.6972873035063
 20
36.87608895527951
 30
0.0
 40
8.704122666156794
  1
87.05'
 50
89.96516403079602
  7
PLAT
 72
1
 11
170.6972873035063
 21
36.87608895527951
 31
0.0
100
AcDbText
 73
1
  0
TEXT
  5
E6
330
17
100
AcDbEntity
  8
PLAT-TEXT-DIST
100
AcDbText
 10
28.180475993796428
 20
25.407836069506367
 30
0.0
 40
8.704122666156794
  1
105.97'
 50
90.30719896554592
  7
PLAT
 72
1
 11
28.180475993796428
 21
25.407836069506367
 31
0.0
100
AcDbText
 73
3
  0
TEXT
  5
E7
330
17
100
AcDbEntity
  8
PLAT-TEXT-DIST
100
AcDbText
 10
260.0517942048545
 20
28.825979357772805
 30
0.0
 40
8.704122666156794
  1
90'
 50
88.89043974140958
  7
PLAT
 72
1
 11
260.0517942048545
 21
28.825979357772805
 31
0.0
100
AcDbText
 73
1
  0
TEXT
  5
E8
330
17
100
AcDbEntity
  8
PLAT-TEXT-DIST
100
AcDbText
 10
103.4976546479801
 20
11.129015466213763
 30
0.0
 40
8.704122666156794
  1
35'
 50
89.93543478704692
  7
PLAT
 72
1
 11
103.4976546479801
 21
11.129015466213763
 31
0.0
100
AcDbText
 73
3
  0
TEXT
  5
E9
330
17
100
AcDbEntity
  8
PLAT-TEXT-LOWCONF
100
AcDbText
 10
364.69591139426643
 20
423.49965821252243
 30
0.0
 40
16.08935664583695
  1
7241.95"
 50
88.13149095996772
  7
PLAT
 72
1
 11
364.69591139426643
 21
423.49965821252243
 31
0.0
100
AcDbText
 73
2
  0
TEXT
  5
EA
330
17
100
AcDbEntity
  8
PLAT-TEXT-LOTNO
100
AcDbText
 10
61.77633730493258
 20
453.4626520085818
 30
0.0
 40
13.294158659273917
  1
20
 50
9.055868432953616
  7
PLAT
 72
1
 11
61.77633730493258
 21
453.4626520085818
 31
0.0
100
AcDbText
 73
2
  0
TEXT
  5
EB
330
17
100
AcDbEntity
  8
PLAT-TEXT-LOWCONF
100
AcDbText
 10
222.19046341863967
 20
452.6033902559179
 30
0.0
 40
11.026245791301418
  1
or
 50
17.69473649455915
  7
PLAT
 72
1
 11
222.19046341863967
 21
452.6033902559179
 31
0.0
100
AcDbText
 73
2
  0
TEXT
  5
EC
330
17
100
AcDbEntity
  8
PLAT-TEXT-LOWCONF
100
AcDbText
 10
137.5504589308794
 20
452.3156019649555
 30
0.0
 40
11.031739197927338
  1
79
 50
9.054888131616622
  7
PLAT
 72
1
 11
137.5504589308794
 21
452.3156019649555
 31
0.0
100
AcDbText
 73
2
  0
TEXT
  5
ED
330
17
100
AcDbEntity
  8
PLAT-TEXT-LOWCONF
100
AcDbText
 10
172.43314555547715
 20
447.20264487627253
 30
0.0
 40
8.716089698552484
  1
N.
 50
89.79087892372235
  7
PLAT
 72
1
 11
172.43314555547715
 21
447.20264487627253
 31
0.0
100
AcDbText
 73
2
  0
TEXT
  5
EE
330
17
100
AcDbEntity
  8
PLAT-TEXT-LOWCONF
100
AcDbText
 10
211.77241273298176
 20
424.6766646985975
 30
0.0
 40
8.713158926769216
  1
Ww
 50
41.87809904427252
  7
PLAT
 72
1
 11
211.77241273298176
 21
424.6766646985975
 31
0.0
100
AcDbText
 73
2
  0
TEXT
  5
EF
330
17
100
AcDbEntity
  8
PLAT-TEXT-LOWCONF
100
AcDbText
 10
201.18489455214905
 20
415.6069237798628
 30
0.0
 40
9.869811498003086
  1
‘a
 50
346.78966714692814
  7
PLAT
 72
1
 11
201.18489455214905
 21
415.6069237798628
 31
0.0
100
AcDbText
 73
2
  0
TEXT
  5
F0
330
17
100
AcDbEntity
  8
PLAT-TEXT-LOWCONF
100
AcDbText
 10
191.23634521652005
 20
408.7808508632187
 30
0.0
 40
7.374686459756443
  1
yb
 50
356.9292862291203
  7
PLAT
 72
1
 11
191.23634521652005
 21
408.7808508632187
 31
0.0
100
AcDbText
 73
2
  0
TEXT
  5
F1
330
17
100
AcDbEntity
  8
PLAT-TEXT-LOWCONF
100
AcDbText
 10
3.1494630086865527
 20
407.99556451755655
 30
0.0
 40
3.9029464395566444
  1
a
 50
359.66298382192156
  7
PLAT
 72
1
 11
3.1494630086865527
 21
407.99556451755655
 31
0.0
100
AcDbText
 73
2
  0
TEXT
  5
F2
330
17
100
AcDbEntity
  8
PLAT-TEXT-LOWCONF
100
AcDbText
 10
273.09926350645407
 20
398.51893744037915
 30
0.0
 40
8.372386180489833
  1
L
 50
90.0
  7
PLAT
 72
1
 11
273.09926350645407
 21
398.51893744037915
 31
0.0
100
AcDbText
 73
2
  0
TEXT
  5
F3
330
17
100
AcDbEntity
  8
PLAT-TEXT-MISC
100
AcDbText
 10
65.05436338047451
 20
372.6922852625794
 30
0.0
 40
14.480420981253255
  1
awe
 50
337.8497957395574
  7
PLAT
 72
1
 11
65.05436338047451
 21
372.6922852625794
 31
0.0
100
AcDbText
 73
2
  0
TEXT
  5
F4
330
17
100
AcDbEntity
  8
PLAT-TEXT-LOWCONF
100
AcDbText
 10
245.35742834491037
 20
366.624132943275
 30
0.0
 40
8.372386180489833
  1
30"
 50
90.0
  7
PLAT
 72
1
 11
245.35742834491037
 21
366.624132943275
 31
0.0
100
AcDbText
 73
2
  0
TEXT
  5
F5
330
17
100
AcDbEntity
  8
PLAT-TEXT-LOWCONF
100
AcDbText
 10
245.5235471183328
 20
357.98595672530934
 30
0.0
 40
7.77435859616913
  1
79
 50
90.0
  7
PLAT
 72
1
 11
245.5235471183328
 21
357.98595672530934
 31
0.0
100
AcDbText
 73
2
  0
TEXT
  5
F6
330
17
100
AcDbEntity
  8
PLAT-TEXT-LOWCONF
100
AcDbText
 10
361.25771840787104
 20
322.82086053299537
 30
0.0
 40
16.08935664583695
  1
‘£07
 50
88.13149095996772
  7
PLAT
 72
1
 11
361.25771840787104
 21
322.82086053299537
 31
0.0
100
AcDbText
 73
2
  0
TEXT
  5
F7
330
17
100
AcDbEntity
  8
PLAT-TEXT-LOWCONF
100
AcDbText
 10
270.4413631316954
 20
334.7293284461709
 30
0.0
 40
8.970413764810536
  1
J
 50
90.0
  7
PLAT
 72
1
 11
270.4413631316954
 21
334.7293284461709
 31
0.0
100
AcDbText
 73
2
  0
TEXT
  5
F8
330
17
100
AcDbEntity
  8
PLAT-TEXT-LOWCONF
100
AcDbText
 10
266.9192756825453
 20
290.60305362438953
 30
0.0
 40
13.351701242009133
  1
£00. 04:
 50
275.5514568313063
  7
PLAT
 72
1
 11
266.9192756825453
 21
290.60305362438953
 31
0.0
100
AcDbText
 73
2
  0
TEXT
  5
F9
330
17
100
AcDbEntity
  8
PLAT-TEXT-LOWCONF
100
AcDbText
 10
171.6013765314172
 20
275.59113756170234
 30
0.0
 40
9.565581272525554
  1
IOW.
 50
90.00637238374873
  7
PLAT
 72
1
 11
171.6013765314172
 21
275.59113756170234
 31
0.0
100
AcDbText
 73
2
  0
TEXT
  5
FA
330
17
100
AcDbEntity
  8
PLAT-TEXT-LOWCONF
100
AcDbText
 10
361.9112108091167
 20
277.6822061302269
 30
0.0
 40
12.110747271623861
  1
AMP oo
 50
88.9578382517401
  7
PLAT
 72
1
 11
361.9112108091167
 21
277.6822061302269
 31
0.0
100
AcDbText
 73
2
  0
TEXT
  5
FB
330
17
100
AcDbEntity
  8
PLAT-TEXT-LOWCONF
100
AcDbText
 10
64.28796531447551
 20
286.5548841536699
 30
0.0
 40
10.631601499034709
  1
4
  7
PLAT
 72
1
 11
64.28796531447551
 21
286.5548841536699
 31
0.0
100
AcDbText
 73
2
  0
TEXT
  5
FC
330
17
100
AcDbEntity
  8
PLAT-TEXT-LOWCONF
100
AcDbText
 10
137.54634439376153
 20
286.05652783340264
 30
0.0
 40
11.628314139569213
  1
8
  7
PLAT
 72
1
 11
137.54634439376153
 21
286.05652783340264
 31
0.0
100
AcDbText
 73
2
  0
TEXT
  5
FD
330
17
100
AcDbEntity
  8
PLAT-TEXT-LOTNO
100
AcDbText
 10
220.93796865181503
 20
285.39205273971294
 30
0.0
 40
12.292789233258882
  1
3
  7
PLAT
 72
1
 11
220.93796865181503
 21
285.39205273971294
 31
0.0
100
AcDbText
 73
2
  0
TEXT
  5
FE
330
17
100
AcDbEntity
  8
PLAT-TEXT-LOWCONF
100
AcDbText
 10
84.38457052027256
 20
258.47974850800955
 30
0.0
 40
14.480420981253255
  1
we Paras
 50
15.75998660837115
  7
PLAT
 72
1
 11
84.38457052027256
 21
258.47974850800955
 31
0.0
100
AcDbText
 73
2
  0
TEXT
  5
FF
330
17
100
AcDbEntity
  8
PLAT-TEXT-LOWCONF
100
AcDbText
 10
200.7442518685486
 20
249.48733132973354
 30
0.0
 40
14.480420981253255
  1
Je —-92.99L-.
 50
359.49661044876325
  7
PLAT
 72
1
 11
200.7442518685486
 21
249.48733132973354
 31
0.0
100
AcDbText
 73
2
  0
TEXT
  5
100
330
17
100
AcDbEntity
  8
PLAT-TEXT-LOWCONF
100
AcDbText
 10
171.96130491836166
 20
230.57916162801374
 30
0.0
 40
9.680718200349258
  1
2.
 50
275.5901260171163
  7
PLAT
 72
1
 11
171.96130491836166
 21
230.57916162801374
 31
0.0
100
AcDbText
 73
2
  0
TEXT
  5
101
330
17
100
AcDbEntity
  8
PLAT-TEXT-LOWCONF
100
AcDbText
 10
171.26801198878348
 20
208.64514241808686
 30
0.0
 40
8.970480223255482
  1
Qe
 50
90.00637238374873
  7
PLAT
 72
1
 11
171.26801198878348
 21
208.64514241808686
 31
0.0
100
AcDbText
 73
2
  0
TEXT
  5
102
330
17
100
AcDbEntity
  8
PLAT-TEXT-LOWCONF
100
AcDbText
 10
60.17835597627928
 20
187.56219383867855
 30
0.0
 40
13.733711244094776
  1
2
 50
23.392202709032745
  7
PLAT
 72
1
 11
60.17835597627928
 21
187.56219383867855
 31
0.0
100
AcDbText
 73
2
  0
TEXT
  5
103
330
17
100
AcDbEntity
  8
PLAT-TEXT-LOWCONF
100
AcDbText
 10
133.40940139930552
 20
187.3530742945575
 30
0.0
 40
10.72562777101291
  1
N
 50
299.00853863366865
  7
PLAT
 72
1
 11
133.40940139930552
 21
187.3530742945575
 31
0.0
100
AcDbText
 73
2
  0
TEXT
  5
104
330
17
100
AcDbEntity
  8
PLAT-TEXT-LOTNO
100
AcDbText
 10
218.6365271528048
 20
185.19060604193098
 30
0.0
 40
12.411804641605489
  1
8
 50
282.64171401479575
  7
PLAT
 72
1
 11
218.6365271528048
 21
185.19060604193098
 31
0.0
100
AcDbText
 73
2
  0
TEXT
  5
105
330
17
100
AcDbEntity
  8
PLAT-TEXT-LOWCONF
100
AcDbText
 10
171.26878796094596
 20
183.5612261931816
 30
0.0
 40
9.966645980760145
  1
2
 50
0.006372383748725952
  7
PLAT
 72
1
 11
171.26878796094596
 21
183.5612261931816
 31
0.0
100
AcDbText
 73
2
  0
TEXT
  5
106
330
17
100
AcDbEntity
  8
PLAT-TEXT-LOWCONF
100
AcDbText
 10
211.1252107441112
 20
162.8833368697034
 30
0.0
 40
9.485864879445364
  1
24,
 50
51.678405973250506
  7
PLAT
 72
1
 11
211.1252107441112
 21
162.8833368697034
 31
0.0
100
AcDbText
 73
2
  0
TEXT
  5
107
330
17
100
AcDbEntity
  8
PLAT-TEXT-LOWCONF
100
AcDbText
 10
191.85467856206583
 20
147.84665504681135
 30
0.0
 40
8.840204343281965
  1
2
 50
85.67054701315311
  7
PLAT
 72
1
 11
191.85467856206583
 21
147.84665504681135
 31
0.0
100
AcDbText
 73
2
  0
TEXT
  5
108
330
17
100
AcDbEntity
  8
PLAT-TEXT-LOWCONF
100
AcDbText
 10
263.6304934213763
 20
139.70588844825298
 30
0.0
 40
8.6381762179657
  1
7
 50
90.0
  7
PLAT
 72
1
 11
263.6304934213763
 21
139.70588844825298
 31
0.0
100
AcDbText
 73
2
  0
TEXT
  5
109
330
17
100
AcDbEntity
  8
PLAT-TEXT-LOWCONF
100
AcDbText
 10
178.74077670102702
 20
140.53306521106506
 30
0.0
 40
3.304830850205873
  1
or
 50
0.13068974040390913
  7
PLAT
 72
1
 11
178.74077670102702
 21
140.53306521106506
 31
0.0
100
AcDbText
 73
2
  0
TEXT
  5
10A
330
17
100
AcDbEntity
  8
PLAT-TEXT-LOWCONF
100
AcDbText
 10
178.07932510883137
 20
132.39666241766662
 30
0.0
 40
3.588165505924214
  1
eo
  7
PLAT
 72
1
 11
178.07932510883137
 21
132.39666241766662
 31
0.0
100
AcDbText
 73
2
  0
TEXT
  5
10B
330
17
100
AcDbEntity
  8
PLAT-TEXT-LOWCONF
100
AcDbText
 10
312.05351504794277
 20
126.45093594091308
 30
0.0
 40
16.08935664583695
  1
0 ‘
 50
60.0377727567668
  7
PLAT
 72
1
 11
312.05351504794277
 21
126.45093594091308
 31
0.0
100
AcDbText
 73
2
  0
TEXT
  5
10C
330
17
100
AcDbEntity
  8
PLAT-TEXT-LOWCONF
100
AcDbText
 10
174.87307667909283
 20
109.65218881676402
 30
0.0
 40
14.480420981253255
  1
ae
 50
332.6057866256684
  7
PLAT
 72
1
 11
174.87307667909283
 21
109.65218881676402
 31
0.0
100
AcDbText
 73
2
  0
TEXT
  5
10D
330
17
100
AcDbEntity
  8
PLAT-TEXT-LOWCONF
100
AcDbText
 10
309.6453936593859
 20
105.31930234981259
 30
0.0
 40
14.053648231536505
  1
Q
  7
PLAT
 72
1
 11
309.6453936593859
 21
105.31930234981259
 31
0.0
100
AcDbText
 73
2
  0
TEXT
  5
10E
330
17
100
AcDbEntity
  8
PLAT-TEXT-LOWCONF
100
AcDbText
 10
242.86564674357413
 20
107.47884640430401
 30
0.0
 40
8.372386180489833
  1
30
 50
90.0
  7
PLAT
 72
1
 11
242.86564674357413
 21
107.47884640430401
 31
0.0
100
AcDbText
 73
2
  0
TEXT
  5
10F
330
17
100
AcDbEntity
  8
PLAT-TEXT-LOWCONF
100
AcDbText
 10
61.027565223694296
 20
105.4290410921616
 30
0.0
 40
12.09050603455462
  1
$-87%%d35'30"H.
 50
358.16745805934625
  7
PLAT
 72
1
 11
61.027565223694296
 21
105.4290410921616
 31
0.0
100
AcDbText
 73
2
  0
TEXT
  5
110
330
17
100
AcDbEntity
  8
PLAT-TEXT-LOWCONF
100
AcDbText
 10
243.03176551699653
 20
98.17619509264864
 30
0.0
 40
7.77435859616913
  1
19
 50
90.0
  7
PLAT
 72
1
 11
243.03176551699653
 21
98.17619509264864
 31
0.0
100
AcDbText
 73
2
  0
TEXT
  5
111
330
17
100
AcDbEntity
  8
PLAT-TEXT-LOWCONF
100
AcDbText
 10
309.4792748859635
 20
82.06267407067418
 30
0.0
 40
14.480420981253255
  1
x
  7
PLAT
 72
1
 11
309.4792748859635
 21
82.06267407067418
 31
0.0
100
AcDbText
 73
2
  0
TEXT
  5
112
330
17
100
AcDbEntity
  8
PLAT-TEXT-LOWCONF
100
AcDbText
 10
102.49528320163148
 20
82.06267407067418
 30
0.0
 40
5.08323446672597
  1
i
  7
PLAT
 72
1
 11
102.49528320163148
 21
82.06267407067418
 31
0.0
100
AcDbText
 73
2
  0
TEXT
  5
113
330
17
100
AcDbEntity
  8
PLAT-TEXT-LOWCONF
100
AcDbText
 10
155.48717192338262
 20
79.07253614907063
 30
0.0
 40
0.33223754684483464
  1
4
  7
PLAT
 72
1
 11
155.48717192338262
 21
79.07253614907063
 31
0.0
100
AcDbText
 73
2
  0
TEXT
  5
114
330
17
100
AcDbEntity
  8
PLAT-TEXT-LOWCONF
100
AcDbText
 10
261.9693056871521
 20
73.92285417297569
 30
0.0
 40
9.568441349131238
  1
r
 50
90.0
  7
PLAT
 72
1
 11
261.9693056871521
 21
73.92285417297569
 31
0.0
100
AcDbText
 73
2
  0
TEXT
  5
115
330
17
100
AcDbEntity
  8
PLAT-TEXT-LOWCONF
100
AcDbText
 10
182.22380898314702
 20
36.045455977612136
 30
0.0
 40
8.97168476960821
  1
PUOE FI AZ,
 50
89.96516403079602
  7
PLAT
 72
1
 11
182.22380898314702
 21
36.045455977612136
 31
0.0
100
AcDbText
 73
2
  0
TEXT
  5
116
330
17
100
AcDbEntity
  8
PLAT-TEXT-LOWCONF
100
AcDbText
 10
308.8147997922738
 20
58.14157069784608
 30
0.0
 40
14.480420981253255
  1
4A,
 50
90.0
  7
PLAT
 72
1
 11
308.8147997922738
 21
58.14157069784608
 31
0.0
100
AcDbText
 73
2
  0
TEXT
  5
117
330
17
100
AcDbEntity
  8
PLAT-TEXT-LOWCONF
100
AcDbText
 10
16.913770678565328
 20
33.401289556314055
 30
0.0
 40
8.781900063245837
  1
O24 30%%d,
 50
90.30719896554592
  7
PLAT
 72
1
 11
16.913770678565328
 21
33.401289556314055
 31
0.0
100
AcDbText
 73
2
  0
TEXT
  5
118
330
17
100
AcDbEntity
  8
PLAT-TEXT-LOWCONF
100
AcDbText
 10
92.37944188658727
 20
25.411472840055183
 30
0.0
 40
8.690937829880703
  1
4'30"'W.
 50
89.93543478704692
  7
PLAT
 72
1
 11
92.37944188658727
 21
25.411472840055183
 31
0.0
100
AcDbText
 73
2
  0
TEXT
  5
119
330
17
100
AcDbEntity
  8
PLAT-TEXT-LOWCONF
100
AcDbText
 10
269.9430068114281
 20
36.878367699776646
 30
0.0
 40
5.648038296362189
  1
7
 50
90.0
  7
PLAT
 72
1
 11
269.9430068114281
 21
36.878367699776646
 31
0.0
100
AcDbText
 73
2
  0
TEXT
  5
11A
330
17
100
AcDbEntity
  8
PLAT-TEXT-LOWCONF
100
AcDbText
 10
216.59609728896694
 20
31.282372275710316
 30
0.0
 40
12.284349625543506
  1
g
 50
293.6427727169549
  7
PLAT
 72
1
 11
216.59609728896694
 21
31.282372275710316
 31
0.0
100
AcDbText
 73
2
  0
TEXT
  5
11B
330
17
100
AcDbEntity
  8
PLAT-TEXT-LOWCONF
100
AcDbText
 10
307.8180871517393
 20
18.106946303043486
 30
0.0
 40
14.480420981253255
  1
a
 50
90.0
  7
PLAT
 72
1
 11
307.8180871517393
 21
18.106946303043486
 31
0.0
100
AcDbText
 73
2
  0
TEXT
  5
11C
330
17
100
AcDbEntity
  8
PLAT-TEXT-LOTNO
100
AcDbText
 10
57.809333151001226
 20
19.60201526384523
 30
0.0
 40
12.95726432694855
  1
8
  7
PLAT
 72
1
 11
57.809333151001226
 21
19.60201526384523
 31
0.0
100
AcDbText
 73
2
  0
TEXT
  5
11D
330
17
100
AcDbEntity
  8
PLAT-TEXT-LOTNO
100
AcDbText
 10
133.72561260504594
 20
16.944114889086563
 30
0.0
 40
14.28621451432789
  1
6
  7
PLAT
 72
1
 11
133.72561260504594
 21
16.944114889086563
 31
0.0
100
AcDbText
 73
2
  0
CIRCLE
  5
11E
330
17
100
AcDbEntity
  8
PLAT-QA
100
AcDbCircle
 10
187.21464282725856
 20
444.0348794805367
 30
0.0
 40
27.706634289722736
  0
TEXT
  5
11F
330
17
100
AcDbEntity
  8
PLAT-QA
100
AcDbText
 10
187.21464282725856
 20
420.01874687394877
 30
0.0
 40
6.092885866309755
  1
MEAS 68.27
 72
1
 11
187.21464282725856
 21
420.01874687394877
 31
0.0
100
AcDbText
 73
3
  0
CIRCLE
  5
120
330
17
100
AcDbEntity
  8
PLAT-QA
100
AcDbCircle
 10
363.6917833200108
 20
247.17762616992624
 30
0.0
 40
19.21014282244232
  0
TEXT
  5
121
330
17
100
AcDbEntity
  8
PLAT-QA
100
AcDbText
 10
363.6917833200108
 20
223.26050892849563
 30
0.0
 40
6.092885866309755
  1
MEAS 19.83
 72
1
 11
363.6917833200108
 21
223.26050892849563
 31
0.0
100
AcDbText
 73
3
  0
CIRCLE
  5
122
330
17
100
AcDbEntity
  8
PLAT-QA
100
AcDbCircle
 10
167.7785468414573
 20
36.87786355658946
 30
0.0
 40
33.201093969870385
  0
TEXT
  5
123
330
17
100
AcDbEntity
  8
PLAT-QA
100
AcDbText
 10
167.7785468414573
 20
12.628069039164355
 30
0.0
 40
6.092885866309755
  1
MEAS 76.79
 72
1
 11
167.7785468414573
 21
12.628069039164355
 31
0.0
100
AcDbText
 73
3
  0
CIRCLE
  5
124
330
17
100
AcDbEntity
  8
PLAT-QA
100
AcDbCircle
 10
30.158334830057612
 20
25.418440725136094
 30
0.0
 40
32.060564994525656
  0
TEXT
  5
125
330
17
100
AcDbEntity
  8
PLAT-QA
100
AcDbText
 10
30.158334830057612
 20
2.8911955022209312
 30
0.0
 40
6.092885866309755
  1
MEAS 76.33
 72
1
 11
30.158334830057612
 21
2.8911955022209312
 31
0.0
100
AcDbText
 73
3
  0
CIRCLE
  5
126
330
17
100
AcDbEntity
  8
PLAT-QA
100
AcDbCircle
 10
256.8514739143401
 20
28.88796284416975
 30
0.0
 40
22.182514677338816
  0
TEXT
  5
127
330
17
100
AcDbEntity
  8
PLAT-QA
100
AcDbText
 10
256.8514739143401
 20
5.4182915367889635
 30
0.0
 40
6.092885866309755
  1
MEAS 75.55
 72
1
 11
256.8514739143401
 21
5.4182915367889635
 31
0.0
100
AcDbText
 73
3
  0
ENDSEC
  0
SECTION
  2
OBJECTS
  0
DICTIONARY
  5
A
330
0
100
AcDbDictionary
281
1
  3
ACAD_COLOR
350
B
  3
ACAD_GROUP
350
C
  3
ACAD_LAYOUT
350
D
  3
ACAD_MATERIAL
350
E
  3
ACAD_MLEADERSTYLE
350
F
  3
ACAD_MLINESTYLE
350
10
  3
ACAD_PLOTSETTINGS
350
11
  3
ACAD_PLOTSTYLENAME
350
12
  3
ACAD_SCALELIST
350
14
  3
ACAD_TABLESTYLE
350
15
  3
ACAD_VISUALSTYLE
350
16
  3
EZDXF_META
350
2D
  0
DICTIONARY
  5
B
330
A
100
AcDbDictionary
281
1
  0
DICTIONARY
  5
C
330
A
100
AcDbDictionary
281
1
  0
DICTIONARY
  5
D
330
A
100
AcDbDictionary
281
1
  3
Model
350
1A
  3
Layout1
350
1E
  0
DICTIONARY
  5
E
330
A
100
AcDbDictionary
281
1
  3
ByBlock
350
1F
  3
ByLayer
350
20
  3
Global
350
21
  0
DICTIONARY
  5
F
330
A
100
AcDbDictionary
281
1
  3
Standard
350
2C
  0
DICTIONARY
  5
10
330
A
100
AcDbDictionary
281
1
  3
Standard
350
22
  0
DICTIONARY
  5
11
330
A
100
AcDbDictionary
281
1
  0
ACDBDICTIONARYWDFLT
  5
12
330
A
100
AcDbDictionary
281
1
  3
Normal
350
13
100
AcDbDictionaryWithDefault
340
13
  0
ACDBPLACEHOLDER
  5
13
330
12
  0
DICTIONARY
  5
14
330
A
100
AcDbDictionary
281
1
  0
DICTIONARY
  5
15
330
A
100
AcDbDictionary
281
1
  0
DICTIONARY
  5
16
330
A
100
AcDbDictionary
281
1
  3
2dWireframe
350
5A
  3
Basic
350
5B
  3
Brighten
350
5C
  3
ColorChange
350
5D
  3
Conceptual
350
5E
  3
Dim
350
5F
  3
EdgeColorOff
350
60
  3
Facepattern
350
61
  3
Flat
350
62
  3
FlatWithEdges
350
63
  3
Gouraud
350
64
  3
GouraudWithEdges
350
65
  3
Hidden
350
66
  3
JitterOff
350
67
  3
Linepattern
350
68
  3
Modeling
350
69
  3
OverhangOff
350
6A
  3
Realistic
350
6B
  3
Shaded
350
6C
  3
Shaded with edges
350
6D
  3
Shades of Gray
350
6E
  3
Sketchy
350
6F
  3
Thicken
350
70
  3
Wireframe
350
71
  3
X-Ray
350
72
  0
LAYOUT
  5
1A
330
D
100
AcDbPlotSettings
  1

  4
A3
  6

 40
7.5
 41
20.0
 42
7.5
 43
20.0
 44
420.0
 45
297.0
 46
0.0
 47
0.0
 48
0.0
 49
0.0
140
0.0
141
0.0
142
1.0
143
1.0
 70
1024
 72
1
 73
0
 74
5
  7

 75
16
 76
0
 77
2
 78
300
147
1.0
148
0.0
149
0.0
100
AcDbLayout
  1
Model
 70
1
 71
0
 10
0.0
 20
0.0
 11
420.0
 21
297.0
 12
0.0
 22
0.0
 32
0.0
 14
1e+20
 24
1e+20
 34
1e+20
 15
-1e+20
 25
-1e+20
 35
-1e+20
146
0.0
 13
0.0
 23
0.0
 33
0.0
 16
1.0
 26
0.0
 36
0.0
 17
0.0
 27
1.0
 37
0.0
 76
1
330
17
  0
LAYOUT
  5
1E
330
D
100
AcDbPlotSettings
  1

  4
A3
  6

 40
7.5
 41
20.0
 42
7.5
 43
20.0
 44
420.0
 45
297.0
 46
0.0
 47
0.0
 48
0.0
 49
0.0
140
0.0
141
0.0
142
1.0
143
1.0
 70
0
 72
1
 73
0
 74
5
  7

 75
16
 76
0
 77
2
 78
300
147
1.0
148
0.0
149
0.0
100
AcDbLayout
  1
Layout1
 70
1
 71
1
 10
0.0
 20
0.0
 11
420.0
 21
297.0
 12
0.0
 22
0.0
 32
0.0
 14
1e+20
 24
1e+20
 34
1e+20
 15
-1e+20
 25
-1e+20
 35
-1e+20
146
0.0
 13
0.0
 23
0.0
 33
0.0
 16
1.0
 26
0.0
 36
0.0
 17
0.0
 27
1.0
 37
0.0
 76
1
330
1B
  0
MATERIAL
  5
1F
102
{ACAD_REACTORS
330
E
102
}
330
E
100
AcDbMaterial
  1
ByBlock
  2

 70
0
 40
1.0
 71
1
 41
1.0
 91
-1023410177
 42
1.0
 72
1
  3

 73
1
 74
1
 75
1
 44
0.5
 73
0
 45
1.0
 46
1.0
 77
1
  4

 78
1
 79
1
170
1
 48
1.0
171
1
  6

172
1
173
1
174
1
140
1.0
141
1.0
175
1
  7

176
1
177
1
178
1
143
1.0
179
1
  8

270
1
271
1
272
1
145
1.0
146
1.0
273
1
  9

274
1
275
1
276
1
 42
1.0
 72
1
  3

 73
1
 74
1
 75
1
 94
63
  0
MATERIAL
  5
20
102
{ACAD_REACTORS
330
E
102
}
330
E
100
AcDbMaterial
  1
ByLayer
  2

 70
0
 40
1.0
 71
1
 41
1.0
 91
-1023410177
 42
1.0
 72
1
  3

 73
1
 74
1
 75
1
 44
0.5
 73
0
 45
1.0
 46
1.0
 77
1
  4

 78
1
 79
1
170
1
 48
1.0
171
1
  6

172
1
173
1
174
1
140
1.0
141
1.0
175
1
  7

176
1
177
1
178
1
143
1.0
179
1
  8

270
1
271
1
272
1
145
1.0
146
1.0
273
1
  9

274
1
275
1
276
1
 42
1.0
 72
1
  3

 73
1
 74
1
 75
1
 94
63
  0
MATERIAL
  5
21
102
{ACAD_REACTORS
330
E
102
}
330
E
100
AcDbMaterial
  1
Global
  2

 70
0
 40
1.0
 71
1
 41
1.0
 91
-1023410177
 42
1.0
 72
1
  3

 73
1
 74
1
 75
1
 44
0.5
 73
0
 45
1.0
 46
1.0
 77
1
  4

 78
1
 79
1
170
1
 48
1.0
171
1
  6

172
1
173
1
174
1
140
1.0
141
1.0
175
1
  7

176
1
177
1
178
1
143
1.0
179
1
  8

270
1
271
1
272
1
145
1.0
146
1.0
273
1
  9

274
1
275
1
276
1
 42
1.0
 72
1
  3

 73
1
 74
1
 75
1
 94
63
  0
MLINESTYLE
  5
22
102
{ACAD_REACTORS
330
10
102
}
330
10
100
AcDbMlineStyle
  2
Standard
 70
0
  3

 62
256
 51
90.0
 52
90.0
 71
2
 49
0.5
 62
256
  6
BYLAYER
 49
-0.5
 62
256
  6
BYLAYER
  0
MLEADERSTYLE
  5
2C
102
{ACAD_REACTORS
330
F
102
}
330
F
100
AcDbMLeaderStyle
179
2
170
2
171
1
172
0
 90
2
 40
0.0
 41
0.0
173
1
 91
-1056964608
 92
-2
290
1
 42
2.0
291
1
 43
8.0
  3
Standard
 44
4.0
300

342
29
174
1
175
1
176
0
178
1
 93
-1056964608
 45
4.0
292
0
297
0
 46
4.0
 94
-1056964608
 47
1.0
 49
1.0
140
1.0
294
1
141
0.0
177
0
142
1.0
295
0
296
0
143
3.75
271
0
272
9
273
9
  0
DICTIONARY
  5
2D
330
A
100
AcDbDictionary
280
1
281
1
  3
CREATED_BY_EZDXF
350
2E
  3
WRITTEN_BY_EZDXF
350
12A
  0
DICTIONARYVAR
  5
2E
330
2D
100
DictionaryVariables
280
0
  1
1.4.4 @ 2026-09-24T07:00:59.443599+00:00
  0
VISUALSTYLE
  5
5A
102
{ACAD_REACTORS
330
16
102
}
330
16
100
AcDbVisualStyle
  2
2dWireframe
 70
4
 90
0
 40
0.6
 62
7
290
0
291
0
  0
VISUALSTYLE
  5
5B
102
{ACAD_REACTORS
330
16
102
}
330
16
100
AcDbVisualStyle
  2
Basic
 70
7
 90
1
 40
0.6
 62
7
290
0
291
1
  0
VISUALSTYLE
  5
5C
102
{ACAD_REACTORS
330
16
102
}
330
16
100
AcDbVisualStyle
  2
Brighten
 70
12
 90
2
 40
0.6
 62
7
290
0
291
1
  0
VISUALSTYLE
  5
5D
102
{ACAD_REACTORS
330
16
102
}
330
16
100
AcDbVisualStyle
  2
ColorChange
 70
16
 90
2
 40
0.6
 62
8
290
0
291
1
  0
VISUALSTYLE
  5
5E
102
{ACAD_REACTORS
330
16
102
}
330
16
100
AcDbVisualStyle
  2
Conceptual
 70
9
 90
3
 40
0.6
 62
7
290
0
291
0
  0
VISUALSTYLE
  5
5F
102
{ACAD_REACTORS
330
16
102
}
330
16
100
AcDbVisualStyle
  2
Dim
 70
11
 90
2
 40
0.6
 62
7
290
0
291
1
  0
VISUALSTYLE
  5
60
102
{ACAD_REACTORS
330
16
102
}
330
16
100
AcDbVisualStyle
  2
EdgeColorOff
 70
22
 90
2
 40
0.6
 62
7
290
0
291
1
  0
VISUALSTYLE
  5
61
102
{ACAD_REACTORS
330
16
102
}
330
16
100
AcDbVisualStyle
  2
Facepattern
 70
15
 90
2
 40
0.6
 62
7
290
0
291
1
  0
VISUALSTYLE
  5
62
102
{ACAD_REACTORS
330
16
102
}
330
16
100
AcDbVisualStyle
  2
Flat
 70
0
 90
2
 40
0.6
 62
7
290
0
291
1
  0
VISUALSTYLE
  5
63
102
{ACAD_REACTORS
330
16
102
}
330
16
100
AcDbVisualStyle
  2
FlatWithEdges
 70
1
 90
2
 40
0.6
 62
7
290
0
291
1
  0
VISUALSTYLE
  5
64
102
{ACAD_REACTORS
330
16
102
}
330
16
100
AcDbVisualStyle
  2
Gouraud
 70
2
 90
2
 40
0.6
 62
7
290
0
291
1
  0
VISUALSTYLE
  5
65
102
{ACAD_REACTORS
330
16
102
}
330
16
100
AcDbVisualStyle
  2
GouraudWithEdges
 70
3
 90
2
 40
0.6
 62
7
290
0
291
1
  0
VISUALSTYLE
  5
66
102
{ACAD_REACTORS
330
16
102
}
330
16
100
AcDbVisualStyle
  2
Hidden
 70
6
 90
1
 40
0.6
 62
7
290
0
291
0
  0
VISUALSTYLE
  5
67
102
{ACAD_REACTORS
330
16
102
}
330
16
100
AcDbVisualStyle
  2
JitterOff
 70
20
 90
2
 40
0.6
 62
7
290
0
291
1
  0
VISUALSTYLE
  5
68
102
{ACAD_REACTORS
330
16
102
}
330
16
100
AcDbVisualStyle
  2
Linepattern
 70
14
 90
2
 40
0.6
 62
7
290
0
291
1
  0
VISUALSTYLE
  5
69
102
{ACAD_REACTORS
330
16
102
}
330
16
100
AcDbVisualStyle
  2
Modeling
 70
10
 90
2
 40
0.6
 62
7
290
0
291
0
  0
VISUALSTYLE
  5
6A
102
{ACAD_REACTORS
330
16
102
}
330
16
100
AcDbVisualStyle
  2
OverhangOff
 70
21
 90
2
 40
0.6
 62
7
290
0
291
1
  0
VISUALSTYLE
  5
6B
102
{ACAD_REACTORS
330
16
102
}
330
16
100
AcDbVisualStyle
  2
Realistic
 70
8
 90
2
 40
0.6
 62
7
290
0
291
0
  0
VISUALSTYLE
  5
6C
102
{ACAD_REACTORS
330
16
102
}
330
16
100
AcDbVisualStyle
  2
Shaded
 70
27
 90
2
 40
0.6
 62
7
290
0
291
0
  0
VISUALSTYLE
  5
6D
102
{ACAD_REACTORS
330
16
102
}
330
16
100
AcDbVisualStyle
  2
Shaded with edges
 70
26
 90
2
 40
0.6
 62
7
290
0
291
0
  0
VISUALSTYLE
  5
6E
102
{ACAD_REACTORS
330
16
102
}
330
16
100
AcDbVisualStyle
  2
Shades of Gray
 70
23
 90
2
 40
0.6
 62
7
290
0
291
0
  0
VISUALSTYLE
  5
6F
102
{ACAD_REACTORS
330
16
102
}
330
16
100
AcDbVisualStyle
  2
Sketchy
 70
24
 90
1
 40
0.6
 62
7
290
0
291
0
  0
VISUALSTYLE
  5
70
102
{ACAD_REACTORS
330
16
102
}
330
16
100
AcDbVisualStyle
  2
Thicken
 70
13
 90
2
 40
0.6
 62
7
290
0
291
1
  0
VISUALSTYLE
  5
71
102
{ACAD_REACTORS
330
16
102
}
330
16
100
AcDbVisualStyle
  2
Wireframe
 70
5
 90
0
 40
0.6
 62
7
290
0
291
0
  0
VISUALSTYLE
  5
72
102
{ACAD_REACTORS
330
16
102
}
330
16
100
AcDbVisualStyle
  2
X-Ray
 70
25
 90
2
 40
0.5
 62
7
290
0
291
0
  0
DICTIONARYVAR
  5
12A
330
2D
100
DictionaryVariables
280
0
  1
1.4.4 @ 2026-09-24T07:00:59.459287+00:00
  0
ENDSEC
  0
EOF
