  0
SECTION
  2
HEADER
  9
$ACADVER
  1
AC1024
  9
$ACADMAINTVER
 70
6
  9
$DWGCODEPAGE
  3
ANSI_1252
  9
$LASTSAVEDBY
  1
ezdxf
  9
$INSBASE
 10
0.0
 20
0.0
 30
0.0
  9
$EXTMIN
 10
1e+20
 20
1e+20
 30
1e+20
  9
$EXTMAX
 10
-1e+20
 20
-1e+20
 30
-1e+20
  9
$LIMMIN
 10
0.0
 20
0.0
  9
$LIMMAX
 10
420.0
 20
297.0
  9
$ORTHOMODE
 70
0
  9
$REGENMODE
 70
1
  9
$FILLMODE
 70
1
  9
$QTEXTMODE
 70
0
  9
$MIRRTEXT
 70
1
  9
$LTSCALE
 40
1.0
  9
$ATTMODE
 70
1
  9
$TEXTSIZE
 40
2.5
  9
$TRACEWID
 40
1.0
  9
$TEXTSTYLE
  7
OpenSans
  9
$CLAYER
  8
0
  9
$CELTYPE
  6
ByLayer
  9
$CECOLOR
 62
256
  9
$CELTSCALE
 40
1.0
  9
$DISPSILH
 70
0
  9
$DIMSCALE
 40
1.0
  9
$DIMASZ
 40
0.175
  9
$DIMEXO
 40
0.125
  9
$DIMDLI
 40
3.75
  9
$DIMRND
 40
0.0
  9
$DIMDLE
 40
0.0
  9
$DIMEXE
 40
0.375
  9
$DIMTP
 40
0.0
  9
$DIMTM
 40
0.0
  9
$DIMTXT
 40
0.25
  9
$DIMCEN
 40
2.5
  9
$DIMTSZ
 40
0.0
  9
$DIMTOL
 70
0
  9
$DIMLIM
 70
0
  9
$DIMTIH
 70
0
  9
$DIMTOH
 70
0
  9
$DIMSE1
 70
0
  9
$DIMSE2
 70
0
  9
$DIMTAD
 70
1
  9
$DIMZIN
 70
12
  9
$DIMBLK
  1
ARCHTICK
  9
$DIMASO
 70
1
  9
$DIMSHO
 70
1
  9
$DIMPOST
  1

  9
$DIMAPOST
  1

  9
$DIMALT
 70
0
  9
$DIMALTD
 70
3
  9
$DIMALTF
 40
0.03937007874
  9
$DIMLFAC
 40
100.0
  9
$DIMTOFL
 70
1
  9
$DIMTVP
 40
0.0
  9
$DIMTIX
 70
0
  9
$DIMSOXD
 70
0
  9
$DIMSAH
 70
0
  9
$DIMBLK1
  1

  9
$DIMBLK2
  1

  9
$DIMSTYLE
  2
EZDXF
  9
$DIMCLRD
 70
0
  9
$DIMCLRE
 70
0
  9
$DIMCLRT
 70
0
  9
$DIMTFAC
 40
0.5
  9
$DIMGAP
 40
0.1
  9
$DIMJUST
 70
0
  9
$DIMSD1
 70
0
  9
$DIMSD2
 70
0
  9
$DIMTOLJ
 70
0
  9
$DIMTZIN
 70
8
  9
$DIMALTZ
 70
0
  9
$DIMALTTZ
 70
0
  9
$DIMUPT
 70
1
  9
$DIMDEC
 70
2
  9
$DIMTDEC
 70
2
  9
$DIMALTU
 70
2
  9
$DIMALTTD
 70
3
  9
$DIMTXSTY
  7
OpenSansCondensed-Light
  9
$DIMAUNIT
 70
0
  9
$DIMADEC
 70
2
  9
$DIMALTRND
 40
0.0
  9
$DIMAZIN
 70
3
  9
$DIMDSEP
 70
46
  9
$DIMATFIT
 70
3
  9
$DIMFRAC
 70
0
  9
$DIMLDRBLK
  1

  9
$DIMLUNIT
 70
2
  9
$DIMLWD
 70
-2
  9
$DIMLWE
 70
-2
  9
$DIMTMOVE
 70
2
  9
$DIMFXL
 40
1.0
  9
$DIMFXLON
 70
0
  9
$DIMJOGANG
 40
0.785398163397
  9
$DIMTFILL
 70
0
  9
$DIMTFILLCLR
 70
0
  9
$DIMARCSYM
 70
0
  9
$DIMLTYPE
  6

  9
$DIMLTEX1
  6

  9
$DIMLTEX2
  6

  9
$DIMTXTDIRECTION
 70
0
  9
$LUNITS
 70
2
  9
$LUPREC
 70
4
  9
$SKETCHINC
 40
1.0
  9
$FILLETRAD
 40
10.0
  9
$AUNITS
 70
0
  9
$AUPREC
 70
2
  9
$MENU
  1
.
  9
$ELEVATION
 40
0.0
  9
$PELEVATION
 40
0.0
  9
$THICKNESS
 40
0.0
  9
$LIMCHECK
 70
0
  9
$CHAMFERA
 40
0.0
  9
$CHAMFERB
 40
0.0
  9
$CHAMFERC
 40
0.0
  9
$CHAMFERD
 40
0.0
  9
$SKPOLY
 70
0
  9
$TDCREATE
 40
2461308.126099537
  9
$TDUCREATE
 40
2458532.153996898
  9
$TDUPDATE
 40
2461308.126099537
  9
$TDUUPDATE
 40
2458532.1544311
  9
$TDINDWG
 40
0.0
  9
$TDUSRTIMER
 40
0.0
  9
$USRTIMER
 70
1
  9
$ANGBASE
 50
0.0
  9
$ANGDIR
 70
0
  9
$PDMODE
 70
0
  9
$PDSIZE
 40
0.0
  9
$PLINEWID
 40
0.0
  9
$SPLFRAME
 70
0
  9
$SPLINETYPE
 70
6
  9
$SPLINESEGS
 70
8
  9
$HANDSEED
  5
144
  9
$SURFTAB1
 70
6
  9
$SURFTAB2
 70
6
  9
$SURFTYPE
 70
6
  9
$SURFU
 70
6
  9
$SURFV
 70
6
  9
$UCSBASE
  2

  9
$UCSNAME
  2

  9
$UCSORG
 10
0.0
 20
0.0
 30
0.0
  9
$UCSXDIR
 10
1.0
 20
0.0
 30
0.0
  9
$UCSYDIR
 10
0.0
 20
1.0
 30
0.0
  9
$UCSORTHOREF
  2

  9
$UCSORTHOVIEW
 70
0
  9
$UCSORGTOP
 10
0.0
 20
0.0
 30
0.0
  9
$UCSORGBOTTOM
 10
0.0
 20
0.0
 30
0.0
  9
$UCSORGLEFT
 10
0.0
 20
0.0
 30
0.0
  9
$UCSORGRIGHT
 10
0.0
 20
0.0
 30
0.0
  9
$UCSORGFRONT
 10
0.0
 20
0.0
 30
0.0
  9
$UCSORGBACK
 10
0.0
 20
0.0
 30
0.0
  9
$PUCSBASE
  2

  9
$PUCSNAME
  2

  9
$PUCSORG
 10
0.0
 20
0.0
 30
0.0
  9
$PUCSXDIR
 10
1.0
 20
0.0
 30
0.0
  9
$PUCSYDIR
 10
0.0
 20
1.0
 30
0.0
  9
$PUCSORTHOREF
  2

  9
$PUCSORTHOVIEW
 70
0
  9
$PUCSORGTOP
 10
0.0
 20
0.0
 30
0.0
  9
$PUCSORGBOTTOM
 10
0.0
 20
0.0
 30
0.0
  9
$PUCSORGLEFT
 10
0.0
 20
0.0
 30
0.0
  9
$PUCSORGRIGHT
 10
0.0
 20
0.0
 30
0.0
  9
$PUCSORGFRONT
 10
0.0
 20
0.0
 30
0.0
  9
$PUCSORGBACK
 10
0.0
 20
0.0
 30
0.0
  9
$USERI1
 70
0
  9
$USERI2
 70
0
  9
$USERI3
 70
0
  9
$USERI4
 70
0
  9
$USERI5
 70
0
  9
$USERR1
 40
0.0
  9
$USERR2
 40
0.0
  9
$USERR3
 40
0.0
  9
$USERR4
 40
0.0
  9
$USERR5
 40
0.0
  9
$WORLDVIEW
 70
1
  9
$SHADEDGE
 70
3
  9
$SHADEDIF
 70
70
  9
$TILEMODE
 70
1
  9
$MAXACTVP
 70
64
  9
$PINSBASE
 10
0.0
 20
0.0
 30
0.0
  9
$PLIMCHECK
 70
0
  9
$PEXTMIN
 10
1e+20
 20
1e+20
 30
1e+20
  9
$PEXTMAX
 10
-1e+20
 20
-1e+20
 30
-1e+20
  9
$PLIMMIN
 10
0.0
 20
0.0
  9
$PLIMMAX
 10
420.0
 20
297.0
  9
$UNITMODE
 70
0
  9
$VISRETAIN
 70
1
  9
$PLINEGEN
 70
0
  9
$PSLTSCALE
 70
1
  9
$TREEDEPTH
 70
3020
  9
$CMLSTYLE
  2
Standard
  9
$CMLJUST
 70
0
  9
$CMLSCALE
 40
20.0
  9
$PROXYGRAPHICS
 70
1
  9
$MEASUREMENT
 70
0
  9
$CELWEIGHT
370
-1
  9
$ENDCAPS
280
0
  9
$JOINSTYLE
280
0
  9
$LWDISPLAY
290
0
  9
$INSUNITS
 70
0
  9
$HYPERLINKBASE
  1

  9
$STYLESHEET
  1

  9
$XEDIT
290
1
  9
$CEPSNTYPE
380
0
  9
$PSTYLEMODE
290
1
  9
$FINGERPRINTGUID
  2
{7406E778-4B00-4271-A752-DE154C8D6689}
  9
$VERSIONGUID
  2
{DA861465-DE10-42E7-9887-C403EE43C043}
  9
$EXTNAMES
290
1
  9
$PSVPSCALE
 40
0.0
  9
$OLESTARTUP
290
0
  9
$SORTENTS
280
127
  9
$INDEXCTL
280
0
  9
$HIDETEXT
280
1
  9
$XCLIPFRAME
280
1
  9
$HALOGAP
280
0
  9
$OBSCOLOR
 70
257
  9
$OBSLTYPE
280
0
  9
$INTERSECTIONDISPLAY
280
0
  9
$INTERSECTIONCOLOR
 70
257
  9
$DIMASSOC
280
2
  9
$PROJECTNAME
  1

  9
$CAMERADISPLAY
290
0
  9
$LENSLENGTH
 40
50.0
  9
$CAMERAHEIGHT
 40
0.0
  9
$STEPSPERSEC
 40
24.0
  9
$STEPSIZE
 40
100.0
  9
$3DDWFPREC
 40
2.0
  9
$PSOLWIDTH
 40
0.005
  9
$PSOLHEIGHT
 40
0.08
  9
$LOFTANG1
 40
1.570796326795
  9
$LOFTANG2
 40
1.570796326795
  9
$LOFTMAG1
 40
0.0
  9
$LOFTMAG2
 40
0.0
  9
$LOFTPARAM
 70
7
  9
$LOFTNORMALS
280
1
  9
$LATITUDE
 40
37.795
  9
$LONGITUDE
 40
-122.394
  9
$NORTHDIRECTION
 40
0.0
  9
$TIMEZONE
 70
-8000
  9
$LIGHTGLYPHDISPLAY
280
1
  9
$TILEMODELIGHTSYNCH
280
1
  9
$CMATERIAL
347
20
  9
$SOLIDHIST
280
0
  9
$SHOWHIST
280
1
  9
$DWFFRAME
280
2
  9
$DGNFRAME
280
2
  9
$REALWORLDSCALE
290
1
  9
$INTERFERECOLOR
 62
256
  9
$CSHADOW
280
0
  9
$SHADOWPLANELOCATION
 40
0.0
  0
ENDSEC
  0
SECTION
  2
CLASSES
  0
CLASS
  1
ACDBDICTIONARYWDFLT
  2
AcDbDictionaryWithDefault
  3
ObjectDBX Classes
 90
0
 91
0
280
0
281
0
  0
CLASS
  1
SUN
  2
AcDbSun
  3
SCENEOE
 90
1153
 91
0
280
0
281
0
  0
CLASS
  1
VISUALSTYLE
  2
AcDbVisualStyle
  3
ObjectDBX Classes
 90
4095
 91
0
280
0
281
0
  0
CLASS
  1
MATERIAL
  2
AcDbMaterial
  3
ObjectDBX Classes
 90
1153
 91
0
280
0
281
0
  0
CLASS
  1
SCALE
  2
AcDbScale
  3
ObjectDBX Classes
 90
1153
 91
0
280
0
281
0
  0
CLASS
  1
TABLESTYLE
  2
AcDbTableStyle
  3
ObjectDBX Classes
 90
4095
 91
0
280
0
281
0
  0
CLASS
  1
MLEADERSTYLE
  2
AcDbMLeaderStyle
  3
ACDB_MLEADERSTYLE_CLASS
 90
4095
 91
0
280
0
281
0
  0
CLASS
  1
DICTIONARYVAR
  2
AcDbDictionaryVar
  3
ObjectDBX Classes
 90
0
 91
0
280
0
281
0
  0
CLASS
  1
CELLSTYLEMAP
  2
AcDbCellStyleMap
  3
ObjectDBX Classes
 90
1152
 91
0
280
0
281
0
  0
CLASS
  1
MENTALRAYRENDERSETTINGS
  2
AcDbMentalRayRenderSettings
  3
SCENEOE
 90
1024
 91
0
280
0
281
0
  0
CLASS
  1
ACDBDETAILVIEWSTYLE
  2
AcDbDetailViewStyle
  3
ObjectDBX Classes
 90
1025
 91
0
280
0
281
0
  0
CLASS
  1
ACDBSECTIONVIEWSTYLE
  2
AcDbSectionViewStyle
  3
ObjectDBX Classes
 90
1025
 91
0
280
0
281
0
  0
CLASS
  1
RASTERVARIABLES
  2
AcDbRasterVariables
  3
ISM
 90
0
 91
0
280
0
281
0
  0
CLASS
  1
LAYOUT
  2
AcDbLayout
  3
ObjectDBX Classes
 90
0
 91
0
280
0
281
0
  0
CLASS
  1
ACDBPLACEHOLDER
  2
AcDbPlaceHolder
  3
ObjectDBX Classes
 90
0
 91
0
280
0
281
0
  0
ENDSEC
  0
SECTION
  2
TABLES
  0
TABLE
  2
VPORT
  5
8
330
0
100
AcDbSymbolTable
 70
1
  0
VPORT
  5
23
330
8
100
AcDbSymbolTableRecord
100
AcDbViewportTableRecord
  2
*Active
 70
0
 10
0.0
 20
0.0
 11
1.0
 21
1.0
 12
0.0
 22
0.0
 13
0.0
 23
0.0
 14
0.5
 24
0.5
 15
0.5
 25
0.5
 16
0.0
 26
0.0
 36
1.0
 17
0.0
 27
0.0
 37
0.0
 40
1000.0
 41
1.34
 42
50.0
 43
0.0
 44
0.0
 50
0.0
 51
0.0
 71
0
 72
1000
 73
1
 74
3
 75
0
 76
0
 77
0
 78
0
281
0
 65
0
146
0.0
  0
ENDTAB
  0
TABLE
  2
LTYPE
  5
2
330
0
100
AcDbSymbolTable
 70
21
  0
LTYPE
  5
24
330
2
100
AcDbSymbolTableRecord
100
AcDbLinetypeTableRecord
  2
ByBlock
 70
0
  3

 72
65
 73
0
 40
0.0
  0
LTYPE
  5
25
330
2
100
AcDbSymbolTableRecord
100
AcDbLinetypeTableRecord
  2
ByLayer
 70
0
  3

 72
65
 73
0
 40
0.0
  0
LTYPE
  5
26
330
2
100
AcDbSymbolTableRecord
100
AcDbLinetypeTableRecord
  2
Continuous
 70
0
  3

 72
65
 73
0
 40
0.0
  0
LTYPE
  5
2F
330
2
100
AcDbSymbolTableRecord
100
AcDbLinetypeTableRecord
  2
CENTER
 70
0
  3
Center ____ _ ____ _ ____ _ ____ _ ____ _ ____
 72
65
 73
4
 40
5.08
 49
3.175
 74
0
 49
-0.635
 74
0
 49
0.635
 74
0
 49
-0.635
 74
0
  0
LTYPE
  5
30
330
2
100
AcDbSymbolTableRecord
100
AcDbLinetypeTableRecord
  2
CENTERX2
 70
0
  3
Center (2x) ________  __  ________  __  ________
 72
65
 73
4
 40
8.89
 49
6.35
 74
0
 49
-0.635
 74
0
 49
1.27
 74
0
 49
-0.635
 74
0
  0
LTYPE
  5
31
330
2
100
AcDbSymbolTableRecord
100
AcDbLinetypeTableRecord
  2
CENTER2
 70
0
  3
Center (.5x) ____ _ ____ _ ____ _ ____ _ ____
 72
65
 73
4
 40
2.54
 49
1.587
 74
0
 49
-0.318
 74
0
 49
0.318
 74
0
 49
-0.318
 74
0
  0
LTYPE
  5
32
330
2
100
AcDbSymbolTableRecord
100
AcDbLinetypeTableRecord
  2
DASHED
 70
0
  3
Dashed __ __ __ __ __ __ __ __ __ __ __ __ __ _
 72
65
 73
2
 40
1.524
 49
1.27
 74
0
 49
-0.254
 74
0
  0
LTYPE
  5
33
330
2
100
AcDbSymbolTableRecord
100
AcDbLinetypeTableRecord
  2
DASHEDX2
 70
0
  3
Dashed (2x) ____  ____  ____  ____  ____  ____
 72
65
 73
2
 40
3.048
 49
2.54
 74
0
 49
-0.508
 74
0
  0
LTYPE
  5
34
330
2
100
AcDbSymbolTableRecord
100
AcDbLinetypeTableRecord
  2
DASHED2
 70
0
  3
Dashed (.5x) _ _ _ _ _ _ _ _ _ _ _ _ _ _
 72
65
 73
2
 40
0.762
 49
0.635
 74
0
 49
-0.127
 74
0
  0
LTYPE
  5
35
330
2
100
AcDbSymbolTableRecord
100
AcDbLinetypeTableRecord
  2
PHANTOM
 70
0
  3
Phantom ______  __  __  ______  __  __  ______
 72
65
 73
6
 40
6.35
 49
3.175
 74
0
 49
-0.635
 74
0
 49
0.635
 74
0
 49
-0.635
 74
0
 49
0.635
 74
0
 49
-0.635
 74
0
  0
LTYPE
  5
36
330
2
100
AcDbSymbolTableRecord
100
AcDbLinetypeTableRecord
  2
PHANTOMX2
 70
0
  3
Phantom (2x)____________    ____    ____    ____________
 72
65
 73
6
 40
10.795
 49
6.35
 74
0
 49
-0.635
 74
0
 49
1.27
 74
0
 49
-0.635
 74
0
 49
1.27
 74
0
 49
-0.635
 74
0
  0
LTYPE
  5
37
330
2
100
AcDbSymbolTableRecord
100
AcDbLinetypeTableRecord
  2
PHANTOM2
 70
0
  3
Phantom (.5x) ___ _ _ ___ _ _ ___ _ _ ___ _ _ ___
 72
65
 73
6
 40
3.175
 49
1.587
 74
0
 49
-0.318
 74
0
 49
0.318
 74
0
 49
-0.318
 74
0
 49
0.318
 74
0
 49
-0.318
 74
0
  0
LTYPE
  5
38
330
2
100
AcDbSymbolTableRecord
100
AcDbLinetypeTableRecord
  2
DASHDOT
 70
0
  3
Dash dot __ . __ . __ . __ . __ . __ . __ . __
 72
65
 73
4
 40
3.556
 49
2.54
 74
0
 49
-0.508
 74
0
 49
0.0
 74
0
 49
-0.508
 74
0
  0
LTYPE
  5
39
330
2
100
AcDbSymbolTableRecord
100
AcDbLinetypeTableRecord
  2
DASHDOTX2
 70
0
  3
Dash dot (2x) ____  .  ____  .  ____  .  ____
 72
65
 73
4
 40
6.096
 49
5.08
 74
0
 49
-0.508
 74
0
 49
0.0
 74
0
 49
-0.508
 74
0
  0
LTYPE
  5
3A
330
2
100
AcDbSymbolTableRecord
100
AcDbLinetypeTableRecord
  2
DASHDOT2
 70
0
  3
Dash dot (.5x) _ . _ . _ . _ . _ . _ . _ . _
 72
65
 73
4
 40
1.778
 49
1.27
 74
0
 49
-0.254
 74
0
 49
0.0
 74
0
 49
-0.254
 74
0
  0
LTYPE
  5
3B
330
2
100
AcDbSymbolTableRecord
100
AcDbLinetypeTableRecord
  2
DOT
 70
0
  3
Dot .  .  .  .  .  .  .  .  .  .  .  .  .  .  .  .
 72
65
 73
2
 40
0.508
 49
0.0
 74
0
 49
-0.508
 74
0
  0
LTYPE
  5
3C
330
2
100
AcDbSymbolTableRecord
100
AcDbLinetypeTableRecord
  2
DOTX2
 70
0
  3
Dot (2x) .    .    .    .    .    .    .    . 
 72
65
 73
2
 40
1.016
 49
0.0
 74
0
 49
-1.016
 74
0
  0
LTYPE
  5
3D
330
2
100
AcDbSymbolTableRecord
100
AcDbLinetypeTableRecord
  2
DOT2
 70
0
  3
Dot (.5) . . . . . . . . . . . . . . . . . . . 
 72
65
 73
2
 40
0.254
 49
0.0
 74
0
 49
-0.254
 74
0
  0
LTYPE
  5
3E
330
2
100
AcDbSymbolTableRecord
100
AcDbLinetypeTableRecord
  2
DIVIDE
 70
0
  3
Divide __ . . __ . . __ . . __ . . __ . . __
 72
65
 73
6
 40
4.064
 49
2.54
 74
0
 49
-0.508
 74
0
 49
0.0
 74
0
 49
-0.508
 74
0
 49
0.0
 74
0
 49
-0.508
 74
0
  0
LTYPE
  5
3F
330
2
100
AcDbSymbolTableRecord
100
AcDbLinetypeTableRecord
  2
DIVIDEX2
 70
0
  3
Divide (2x) ____  . .  ____  . .  ____  . .  ____
 72
65
 73
6
 40
6.604
 49
5.08
 74
0
 49
-0.508
 74
0
 49
0.0
 74
0
 49
-0.508
 74
0
 49
0.0
 74
0
 49
-0.508
 74
0
  0
LTYPE
  5
40
330
2
100
AcDbSymbolTableRecord
100
AcDbLinetypeTableRecord
  2
DIVIDE2
 70
0
  3
Divide(.5x) _ . _ . _ . _ . _ . _ . _ . _
 72
65
 73
6
 40
2.032
 49
1.27
 74
0
 49
-0.254
 74
0
 49
0.0
 74
0
 49
-0.254
 74
0
 49
0.0
 74
0
 49
-0.254
 74
0
  0
ENDTAB
  0
TABLE
  2
LAYER
  5
1
330
0
100
AcDbSymbolTable
 70
18
  0
LAYER
  5
27
330
1
100
AcDbSymbolTableRecord
100
AcDbLayerTableRecord
  2
0
 70
0
 62
7
  6
Continuous
370
-3
390
13
347
21
  0
LAYER
  5
28
330
1
100
AcDbSymbolTableRecord
100
AcDbLayerTableRecord
  2
Defpoints
 70
0
 62
7
  6
Continuous
290
0
370
-3
390
13
347
21
  0
LAYER
  5
8B
330
1
100
AcDbSymbolTableRecord
100
AcDbLayerTableRecord
  2
PLAT-LINE
 70
0
 62
7
  6
CONTINUOUS
370
-3
390
13
347
21
  0
LAYER
  5
8C
330
1
100
AcDbSymbolTableRecord
100
AcDbLayerTableRecord
  2
PLAT-LINE-DASH
 70
0
 62
8
  6
DASHED
370
-3
390
13
347
21
  0
LAYER
  5
8D
330
1
100
AcDbSymbolTableRecord
100
AcDbLayerTableRecord
  2
PLAT-CURVE
 70
0
 62
4
  6
CONTINUOUS
370
-3
390
13
347
21
  0
LAYER
  5
8E
330
1
100
AcDbSymbolTableRecord
100
AcDbLayerTableRecord
  2
PLAT-TEXT-BRG
 70
0
 62
3
  6
CONTINUOUS
370
-3
390
13
347
21
  0
LAYER
  5
8F
330
1
100
AcDbSymbolTableRecord
100
AcDbLayerTableRecord
  2
PLAT-TEXT-DIST
 70
0
 62
2
  6
CONTINUOUS
370
-3
390
13
347
21
  0
LAYER
  5
90
330
1
100
AcDbSymbolTableRecord
100
AcDbLayerTableRecord
  2
PLAT-TEXT-CURVE
 70
0
 62
6
  6
CONTINUOUS
370
-3
390
13
347
21
  0
LAYER
  5
91
330
1
100
AcDbSymbolTableRecord
100
AcDbLayerTableRecord
  2
PLAT-TEXT-LOTNO
 70
0
 62
5
  6
CONTINUOUS
370
-3
390
13
347
21
  0
LAYER
  5
92
330
1
100
AcDbSymbolTableRecord
100
AcDbLayerTableRecord
  2
PLAT-TEXT-AREA
 70
0
 62
5
  6
CONTINUOUS
370
-3
390
13
347
21
  0
LAYER
  5
93
330
1
100
AcDbSymbolTableRecord
100
AcDbLayerTableRecord
  2
PLAT-TEXT-MISC
 70
0
 62
9
  6
CONTINUOUS
370
-3
390
13
347
21
  0
LAYER
  5
94
330
1
100
AcDbSymbolTableRecord
100
AcDbLayerTableRecord
  2
PLAT-TEXT-UNASSOC
 70
0
 62
30
  6
CONTINUOUS
370
-3
390
13
347
21
  0
LAYER
  5
95
330
1
100
AcDbSymbolTableRecord
100
AcDbLayerTableRecord
  2
PLAT-TABLE-CURVE
 70
0
 62
6
  6
CONTINUOUS
370
-3
390
13
347
21
  0
LAYER
  5
96
330
1
100
AcDbSymbolTableRecord
100
AcDbLayerTableRecord
  2
PLAT-TABLE
 70
0
 62
6
  6
CONTINUOUS
370
-3
390
13
347
21
  0
LAYER
  5
97
330
1
100
AcDbSymbolTableRecord
100
AcDbLayerTableRecord
  2
PLAT-NOTES
 70
0
 62
7
  6
CONTINUOUS
370
-3
390
13
347
21
  0
LAYER
  5
98
330
1
100
AcDbSymbolTableRecord
100
AcDbLayerTableRecord
  2
PLAT-QA
 70
0
 62
1
  6
CONTINUOUS
370
-3
390
13
347
21
  0
LAYER
  5
99
330
1
100
AcDbSymbolTableRecord
100
AcDbLayerTableRecord
  2
PLAT-MON
 70
0
 62
1
  6
CONTINUOUS
370
-3
390
13
347
21
  0
LAYER
  5
9A
330
1
100
AcDbSymbolTableRecord
100
AcDbLayerTableRecord
  2
PLAT-TEXT-LOWCONF
 70
1
 62
8
  6
CONTINUOUS
370
-3
390
13
347
21
  0
ENDTAB
  0
TABLE
  2
STYLE
  5
5
330
0
100
AcDbSymbolTable
 70
27
  0
STYLE
  5
29
330
5
100
AcDbSymbolTableRecord
100
AcDbTextStyleTableRecord
  2
Standard
 70
0
 40
0.0
 41
1.0
 50
0.0
 71
0
 42
2.5
  3
txt
  4

  0
STYLE
  5
41
330
5
100
AcDbSymbolTableRecord
100
AcDbTextStyleTableRecord
  2
OpenSans-Light
 70
0
 40
0.0
 41
1.0
 50
0.0
 71
0
 42
2.5
  3
OpenSans-Light.ttf
  4

  0
STYLE
  5
42
330
5
100
AcDbSymbolTableRecord
100
AcDbTextStyleTableRecord
  2
OpenSans-Light-Italic
 70
0
 40
0.0
 41
1.0
 50
0.0
 71
0
 42
2.5
  3
OpenSans-LightItalic.ttf
  4

  0
STYLE
  5
43
330
5
100
AcDbSymbolTableRecord
100
AcDbTextStyleTableRecord
  2
OpenSans
 70
0
 40
0.0
 41
1.0
 50
0.0
 71
0
 42
2.5
  3
OpenSans-Regular.ttf
  4

  0
STYLE
  5
44
330
5
100
AcDbSymbolTableRecord
100
AcDbTextStyleTableRecord
  2
OpenSans-Italic
 70
0
 40
0.0
 41
1.0
 50
0.0
 71
0
 42
2.5
  3
OpenSans-Italic.ttf
  4

  0
STYLE
  5
45
330
5
100
AcDbSymbolTableRecord
100
AcDbTextStyleTableRecord
  2
OpenSans-SemiBold
 70
0
 40
0.0
 41
1.0
 50
0.0
 71
0
 42
2.5
  3
OpenSans-SemiBold.ttf
  4

  0
STYLE
  5
46
330
5
100
AcDbSymbolTableRecord
100
AcDbTextStyleTableRecord
  2
OpenSans-SemiBoldItalic
 70
0
 40
0.0
 41
1.0
 50
0.0
 71
0
 42
2.5
  3
OpenSans-SemiBoldItalic.ttf
  4

  0
STYLE
  5
47
330
5
100
AcDbSymbolTableRecord
100
AcDbTextStyleTableRecord
  2
OpenSans-Bold
 70
0
 40
0.0
 41
1.0
 50
0.0
 71
0
 42
2.5
  3
OpenSans-Bold.ttf
  4

  0
STYLE
  5
48
330
5
100
AcDbSymbolTableRecord
100
AcDbTextStyleTableRecord
  2
OpenSans-BoldItalic
 70
0
 40
0.0
 41
1.0
 50
0.0
 71
0
 42
2.5
  3
OpenSans-BoldItalic.ttf
  4

  0
STYLE
  5
49
330
5
100
AcDbSymbolTableRecord
100
AcDbTextStyleTableRecord
  2
OpenSans-ExtraBold
 70
0
 40
0.0
 41
1.0
 50
0.0
 71
0
 42
2.5
  3
OpenSans-ExtraBold.ttf
  4

  0
STYLE
  5
4A
330
5
100
AcDbSymbolTableRecord
100
AcDbTextStyleTableRecord
  2
OpenSans-ExtraBoldItalic
 70
0
 40
0.0
 41
1.0
 50
0.0
 71
0
 42
2.5
  3
OpenSans-ExtraBoldItalic.ttf
  4

  0
STYLE
  5
4B
330
5
100
AcDbSymbolTableRecord
100
AcDbTextStyleTableRecord
  2
OpenSansCondensed-Bold
 70
0
 40
0.0
 41
1.0
 50
0.0
 71
0
 42
2.5
  3
OpenSansCondensed-Bold.ttf
  4

  0
STYLE
  5
4C
330
5
100
AcDbSymbolTableRecord
100
AcDbTextStyleTableRecord
  2
OpenSansCondensed-Light
 70
0
 40
0.0
 41
1.0
 50
0.0
 71
0
 42
2.5
  3
OpenSansCondensed-Light.ttf
  4

  0
STYLE
  5
4D
330
5
100
AcDbSymbolTableRecord
100
AcDbTextStyleTableRecord
  2
OpenSansCondensed-Italic
 70
0
 40
0.0
 41
1.0
 50
0.0
 71
0
 42
2.5
  3
OpenSansCondensed-LightItalic.ttf
  4

  0
STYLE
  5
4E
330
5
100
AcDbSymbolTableRecord
100
AcDbTextStyleTableRecord
  2
LiberationSans
 70
0
 40
0.0
 41
1.0
 50
0.0
 71
0
 42
2.5
  3
LiberationSans-Regular.ttf
  4

  0
STYLE
  5
4F
330
5
100
AcDbSymbolTableRecord
100
AcDbTextStyleTableRecord
  2
LiberationSans-Bold
 70
0
 40
0.0
 41
1.0
 50
0.0
 71
0
 42
2.5
  3
LiberationSans-Bold.ttf
  4

  0
STYLE
  5
50
330
5
100
AcDbSymbolTableRecord
100
AcDbTextStyleTableRecord
  2
LiberationSans-BoldItalic
 70
0
 40
0.0
 41
1.0
 50
0.0
 71
0
 42
2.5
  3
LiberationSans-BoldItalic.ttf
  4

  0
STYLE
  5
51
330
5
100
AcDbSymbolTableRecord
100
AcDbTextStyleTableRecord
  2
LiberationSans-Italic
 70
0
 40
0.0
 41
1.0
 50
0.0
 71
0
 42
2.5
  3
LiberationSans-Italic.ttf
  4

  0
STYLE
  5
52
330
5
100
AcDbSymbolTableRecord
100
AcDbTextStyleTableRecord
  2
LiberationSerif
 70
0
 40
0.0
 41
1.0
 50
0.0
 71
0
 42
2.5
  3
LiberationSerif-Regular.ttf
  4

  0
STYLE
  5
53
330
5
100
AcDbSymbolTableRecord
100
AcDbTextStyleTableRecord
  2
LiberationSerif-Bold
 70
0
 40
0.0
 41
1.0
 50
0.0
 71
0
 42
2.5
  3
LiberationSerif-Bold.ttf
  4

  0
STYLE
  5
54
330
5
100
AcDbSymbolTableRecord
100
AcDbTextStyleTableRecord
  2
LiberationSerif-BoldItalic
 70
0
 40
0.0
 41
1.0
 50
0.0
 71
0
 42
2.5
  3
LiberationSerif-BoldItalic.ttf
  4

  0
STYLE
  5
55
330
5
100
AcDbSymbolTableRecord
100
AcDbTextStyleTableRecord
  2
LiberationSerif-Italic
 70
0
 40
0.0
 41
1.0
 50
0.0
 71
0
 42
2.5
  3
LiberationSerif-Italic.ttf
  4

  0
STYLE
  5
56
330
5
100
AcDbSymbolTableRecord
100
AcDbTextStyleTableRecord
  2
LiberationMono
 70
0
 40
0.0
 41
1.0
 50
0.0
 71
0
 42
2.5
  3
LiberationMono-Regular.ttf
  4

  0
STYLE
  5
57
330
5
100
AcDbSymbolTableRecord
100
AcDbTextStyleTableRecord
  2
LiberationMono-Bold
 70
0
 40
0.0
 41
1.0
 50
0.0
 71
0
 42
2.5
  3
LiberationMono-Bold.ttf
  4

  0
STYLE
  5
58
330
5
100
AcDbSymbolTableRecord
100
AcDbTextStyleTableRecord
  2
LiberationMono-BoldItalic
 70
0
 40
0.0
 41
1.0
 50
0.0
 71
0
 42
2.5
  3
LiberationMono-BoldItalic.ttf
  4

  0
STYLE
  5
59
330
5
100
AcDbSymbolTableRecord
100
AcDbTextStyleTableRecord
  2
LiberationMono-Italic
 70
0
 40
0.0
 41
1.0
 50
0.0
 71
0
 42
2.5
  3
LiberationMono-Italic.ttf
  4

  0
STYLE
  5
9B
330
5
100
AcDbSymbolTableRecord
100
AcDbTextStyleTableRecord
  2
PLAT
 70
0
 40
0.0
 41
1.0
 50
0.0
 71
0
 42
2.5
  3
arial.ttf
  4

  0
ENDTAB
  0
TABLE
  2
VIEW
  5
7
330
0
100
AcDbSymbolTable
 70
0
  0
ENDTAB
  0
TABLE
  2
UCS
  5
6
330
0
100
AcDbSymbolTable
 70
0
  0
ENDTAB
  0
TABLE
  2
APPID
  5
3
330
0
100
AcDbSymbolTable
 70
4
  0
APPID
  5
2A
330
3
100
AcDbSymbolTableRecord
100
AcDbRegAppTableRecord
  2
ACAD
 70
0
  0
APPID
  5
8A
330
3
100
AcDbSymbolTableRecord
100
AcDbRegAppTableRecord
  2
RASTER2DXF
 70
0
  0
APPID
  5
141
330
3
100
AcDbSymbolTableRecord
100
AcDbRegAppTableRecord
  2
HATCHBACKGROUNDCOLOR
 70
0
  0
APPID
  5
142
330
3
100
AcDbSymbolTableRecord
100
AcDbRegAppTableRecord
  2
EZDXF
 70
0
  0
ENDTAB
  0
TABLE
  2
DIMSTYLE
  5
4
330
0
100
AcDbSymbolTable
 70
12
100
AcDbDimStyleTable
  0
DIMSTYLE
105
2B
330
4
100
AcDbSymbolTableRecord
100
AcDbDimStyleTableRecord
  2
Standard
 70
0
 40
1.0
 41
2.5
 42
0.625
 43
3.75
 44
1.25
 45
0.0
 46
0.0
 47
0.0
 48
0.0
 49
2.5
140
2.5
141
2.5
142
0.0
143
0.03937007874
144
1.0
145
0.0
146
1.0
147
0.625
148
0.0
 69
0
 70
0
 71
0
 72
0
 73
0
 74
0
 75
0
 76
0
 77
1
 78
8
 79
3
170
0
171
3
172
1
173
0
174
0
175
0
176
0
177
0
178
0
179
2
271
2
272
2
273
2
274
3
275
0
276
0
277
2
278
44
279
0
280
0
281
0
282
0
283
0
284
8
285
0
286
0
288
0
289
3
290
0
371
-2
372
-2
  0
DIMSTYLE
105
73
330
4
100
AcDbSymbolTableRecord
100
AcDbDimStyleTableRecord
  2
EZDXF
 70
0
 40
1.0
 41
0.175
 42
0.125
 43
3.75
 44
0.375
 45
0.0
 46
0.0
 47
0.0
 48
0.0
 49
2.5
140
0.25
141
2.5
142
0.0
143
0.03937007874
144
100.0
145
0.0
146
0.5
147
0.1
148
0.0
 69
0
 70
0
 71
0
 72
0
 73
0
 74
0
 75
0
 76
0
 77
1
 78
12
 79
3
170
0
171
3
172
1
173
0
174
0
175
0
176
0
177
0
178
0
179
2
271
2
272
2
273
2
274
3
275
0
276
0
277
2
278
46
279
2
280
0
281
0
282
0
283
0
284
8
285
0
286
0
288
1
289
3
290
0
340
4C
342
74
371
-2
372
-2
  0
DIMSTYLE
105
7C
330
4
100
AcDbSymbolTableRecord
100
AcDbDimStyleTableRecord
  2
EZ_M_100_H25_CM
 70
0
 40
1.0
 41
0.25
 42
0.125
 43
3.75
 44
0.375
 45
0.0
 46
0.0
 47
0.0
 48
0.0
 49
2.5
140
0.25
141
2.5
142
0.125
143
0.03937007874
144
100.0
145
0.0
146
0.5
147
0.1
148
0.0
 69
0
 70
0
 71
0
 72
0
 73
0
 74
0
 75
0
 76
0
 77
1
 78
12
 79
3
170
0
171
3
172
1
173
0
174
0
175
0
176
0
177
0
178
0
179
2
271
2
272
2
273
2
274
3
275
0
276
0
277
2
278
46
279
2
280
0
281
0
282
0
283
0
284
8
285
0
286
0
288
1
289
3
290
0
340
4C
371
-2
372
-2
  0
DIMSTYLE
105
7D
330
4
100
AcDbSymbolTableRecord
100
AcDbDimStyleTableRecord
  2
EZ_M_50_H25_CM
 70
0
 40
1.0
 41
0.125
 42
0.0625
 43
3.75
 44
0.1875
 45
0.0
 46
0.0
 47
0.0
 48
0.0
 49
2.5
140
0.125
141
2.5
142
0.0625
143
0.03937007874
144
100.0
145
0.0
146
0.5
147
0.05
148
0.0
 69
0
 70
0
 71
0
 72
0
 73
0
 74
0
 75
0
 76
0
 77
1
 78
12
 79
3
170
0
171
3
172
1
173
0
174
0
175
0
176
0
177
0
178
0
179
2
271
2
272
2
273
2
274
3
275
0
276
0
277
2
278
46
279
2
280
0
281
0
282
0
283
0
284
8
285
0
286
0
288
1
289
3
290
0
340
4C
371
-2
372
-2
  0
DIMSTYLE
105
7E
330
4
100
AcDbSymbolTableRecord
100
AcDbDimStyleTableRecord
  2
EZ_M_25_H25_CM
 70
0
 40
1.0
 41
0.0625
 42
0.03125
 43
3.75
 44
0.09375
 45
0.0
 46
0.0
 47
0.0
 48
0.0
 49
2.5
140
0.0625
141
2.5
142
0.03125
143
0.03937007874
144
100.0
145
0.0
146
0.5
147
0.025
148
0.0
 69
0
 70
0
 71
0
 72
0
 73
0
 74
0
 75
0
 76
0
 77
1
 78
12
 79
3
170
0
171
3
172
1
173
0
174
0
175
0
176
0
177
0
178
0
179
2
271
2
272
2
273
2
274
3
275
0
276
0
277
2
278
46
279
2
280
0
281
0
282
0
283
0
284
8
285
0
286
0
288
1
289
3
290
0
340
4C
371
-2
372
-2
  0
DIMSTYLE
105
7F
330
4
100
AcDbSymbolTableRecord
100
AcDbDimStyleTableRecord
  2
EZ_M_20_H25_CM
 70
0
 40
1.0
 41
0.05
 42
0.025
 43
3.75
 44
0.07500000000000001
 45
0.0
 46
0.0
 47
0.0
 48
0.0
 49
2.5
140
0.05
141
2.5
142
0.025
143
0.03937007874
144
100.0
145
0.0
146
0.5
147
0.020000000000000004
148
0.0
 69
0
 70
0
 71
0
 72
0
 73
0
 74
0
 75
0
 76
0
 77
1
 78
12
 79
3
170
0
171
3
172
1
173
0
174
0
175
0
176
0
177
0
178
0
179
2
271
2
272
2
273
2
274
3
275
0
276
0
277
2
278
46
279
2
280
0
281
0
282
0
283
0
284
8
285
0
286
0
288
1
289
3
290
0
340
4C
371
-2
372
-2
  0
DIMSTYLE
105
80
330
4
100
AcDbSymbolTableRecord
100
AcDbDimStyleTableRecord
  2
EZ_M_10_H25_CM
 70
0
 40
1.0
 41
0.025
 42
0.0125
 43
3.75
 44
0.037500000000000006
 45
0.0
 46
0.0
 47
0.0
 48
0.0
 49
2.5
140
0.025
141
2.5
142
0.0125
143
0.03937007874
144
100.0
145
0.0
146
0.5
147
0.010000000000000002
148
0.0
 69
0
 70
0
 71
0
 72
0
 73
0
 74
0
 75
0
 76
0
 77
1
 78
12
 79
3
170
0
171
3
172
1
173
0
174
0
175
0
176
0
177
0
178
0
179
2
271
2
272
2
273
2
274
3
275
0
276
0
277
2
278
46
279
2
280
0
281
0
282
0
283
0
284
8
285
0
286
0
288
1
289
3
290
0
340
4C
371
-2
372
-2
  0
DIMSTYLE
105
81
330
4
100
AcDbSymbolTableRecord
100
AcDbDimStyleTableRecord
  2
EZ_M_5_H25_CM
 70
0
 40
1.0
 41
0.0125
 42
0.00625
 43
3.75
 44
0.018750000000000003
 45
0.0
 46
0.0
 47
0.0
 48
0.0
 49
2.5
140
0.0125
141
2.5
142
0.00625
143
0.03937007874
144
100.0
145
0.0
146
0.5
147
0.005000000000000001
148
0.0
 69
0
 70
0
 71
0
 72
0
 73
0
 74
0
 75
0
 76
0
 77
1
 78
12
 79
3
170
0
171
3
172
1
173
0
174
0
175
0
176
0
177
0
178
0
179
2
271
2
272
2
273
2
274
3
275
0
276
0
277
2
278
46
279
2
280
0
281
0
282
0
283
0
284
8
285
0
286
0
288
1
289
3
290
0
340
4C
371
-2
372
-2
  0
DIMSTYLE
105
82
330
4
100
AcDbSymbolTableRecord
100
AcDbDimStyleTableRecord
  2
EZ_M_1_H25_CM
 70
0
 40
1.0
 41
0.0025
 42
0.00125
 43
3.75
 44
0.00375
 45
0.0
 46
0.0
 47
0.0
 48
0.0
 49
2.5
140
0.0025
141
2.5
142
0.00125
143
0.03937007874
144
100.0
145
0.0
146
0.5
147
0.001
148
0.0
 69
0
 70
0
 71
0
 72
0
 73
0
 74
0
 75
0
 76
0
 77
1
 78
12
 79
3
170
0
171
3
172
1
173
0
174
0
175
0
176
0
177
0
178
0
179
2
271
2
272
2
273
2
274
3
275
0
276
0
277
2
278
46
279
2
280
0
281
0
282
0
283
0
284
8
285
0
286
0
288
1
289
3
290
0
340
4C
371
-2
372
-2
  0
DIMSTYLE
105
83
330
4
100
AcDbSymbolTableRecord
100
AcDbDimStyleTableRecord
  2
EZ_RADIUS
 70
0
 40
1.0
 41
0.25
 42
0.125
 43
3.75
 44
0.375
 45
0.0
 46
0.0
 47
0.0
 48
0.0
 49
2.5
140
0.25
141
0.0
142
0.0
143
0.03937007874
144
100.0
145
0.0
146
0.5
147
0.1
148
0.0
 69
0
 70
0
 71
0
 72
0
 73
0
 74
0
 75
0
 76
0
 77
1
 78
12
 79
3
170
0
171
3
172
0
173
0
174
0
175
0
176
0
177
0
178
0
179
2
271
2
272
2
273
2
274
3
275
0
276
0
277
2
278
46
279
1
280
0
281
0
282
0
283
0
284
8
285
0
286
0
288
1
289
3
290
0
340
4C
342
84
371
-2
372
-2
  0
DIMSTYLE
105
88
330
4
100
AcDbSymbolTableRecord
100
AcDbDimStyleTableRecord
  2
EZ_RADIUS_INSIDE
 70
0
 40
1.0
 41
0.25
 42
0.125
 43
3.75
 44
0.375
 45
0.0
 46
0.0
 47
0.0
 48
0.0
 49
2.5
140
0.25
141
0.0
142
0.0
143
0.03937007874
144
100.0
145
0.0
146
0.5
147
0.1
148
0.0
 69
0
 70
0
 71
0
 72
0
 73
0
 74
0
 75
0
 76
0
 77
0
 78
12
 79
3
170
0
171
3
172
0
173
0
174
1
175
0
176
0
177
0
178
0
179
2
271
2
272
2
273
2
274
3
275
0
276
0
277
2
278
46
279
0
280
0
281
0
282
0
283
0
284
8
285
0
286
0
288
1
289
0
290
0
340
4C
342
84
371
-2
372
-2
  0
DIMSTYLE
105
89
330
4
100
AcDbSymbolTableRecord
100
AcDbDimStyleTableRecord
  2
EZ_CURVED
 70
0
 40
1.0
 41
0.25
 42
0.125
 43
3.75
 44
0.375
 45
0.0
 46
0.0
 47
0.0
 48
0.0
 49
2.5
140
0.25
141
2.5
142
0.0
143
0.03937007874
144
100.0
145
0.0
146
0.5
147
0.1
148
0.0
 69
0
 70
0
 71
0
 72
0
 73
0
 74
0
 75
0
 76
0
 77
1
 78
12
 79
2
 90
2
170
0
171
3
172
1
173
0
174
0
175
0
176
0
177
0
178
0
179
2
271
2
272
2
273
2
274
3
275
0
276
0
277
2
278
46
279
2
280
0
281
0
282
0
283
0
284
8
285
0
286
0
288
1
289
3
290
0
340
4C
371
-2
372
-2
  0
ENDTAB
  0
TABLE
  2
BLOCK_RECORD
  5
9
330
0
100
AcDbSymbolTable
 70
5
  0
BLOCK_RECORD
  5
17
330
9
100
AcDbSymbolTableRecord
100
AcDbBlockTableRecord
  2
*Model_Space
340
1A
 70
0
280
1
281
0
  0
BLOCK_RECORD
  5
1B
330
9
100
AcDbSymbolTableRecord
100
AcDbBlockTableRecord
  2
*Paper_Space
340
1E
 70
0
280
1
281
0
  0
BLOCK_RECORD
  5
74
330
9
100
AcDbSymbolTableRecord
100
AcDbBlockTableRecord
  2
_ARCHTICK
340
0
 70
0
280
1
281
0
  0
BLOCK_RECORD
  5
78
330
9
100
AcDbSymbolTableRecord
100
AcDbBlockTableRecord
  2
_CLOSEDFILLED
340
0
 70
0
280
1
281
0
  0
BLOCK_RECORD
  5
84
330
9
100
AcDbSymbolTableRecord
100
AcDbBlockTableRecord
  2
_CLOSEDBLANK
340
0
 70
0
280
1
281
0
  0
ENDTAB
  0
ENDSEC
  0
SECTION
  2
BLOCKS
  0
BLOCK
  5
18
330
17
100
AcDbEntity
  8
0
100
AcDbBlockBegin
  2
*Model_Space
 70
0
 10
0.0
 20
0.0
 30
0.0
  3
*Model_Space
  1

  0
ENDBLK
  5
19
330
17
100
AcDbEntity
  8
0
100
AcDbBlockEnd
  0
BLOCK
  5
1C
330
1B
100
AcDbEntity
  8
0
100
AcDbBlockBegin
  2
*Paper_Space
 70
0
 10
0.0
 20
0.0
 30
0.0
  3
*Paper_Space
  1

  0
ENDBLK
  5
1D
330
1B
100
AcDbEntity
  8
0
100
AcDbBlockEnd
  0
BLOCK
  5
75
330
74
100
AcDbEntity
  8
0
100
AcDbBlockBegin
  2
_ARCHTICK
 70
0
 10
0.0
 20
0.0
 30
0.0
  3
_ARCHTICK
  1

  0
LWPOLYLINE
  5
77
330
74
100
AcDbEntity
  8
0
  6
BYBLOCK
 62
0
100
AcDbPolyline
 90
2
 70
0
 43
0.15
 10
-0.5
 20
-0.5
 10
0.5
 20
0.5
  0
ENDBLK
  5
76
330
74
100
AcDbEntity
  8
0
100
AcDbBlockEnd
  0
BLOCK
  5
79
330
78
100
AcDbEntity
  8
0
100
AcDbBlockBegin
  2
_CLOSEDFILLED
 70
0
 10
0.0
 20
0.0
 30
0.0
  3
_CLOSEDFILLED
  1

  0
SOLID
  5
7B
330
78
100
AcDbEntity
  8
0
  6
BYBLOCK
 62
0
100
AcDbTrace
 10
-1.0
 20
0.16439898372402537
 30
0.0
 11
0.0
 21
0.0
 31
0.0
 12
-1.0
 22
-0.16439898372402537
 32
0.0
 13
-1.0
 23
-0.16439898372402537
 33
0.0
  0
ENDBLK
  5
7A
330
78
100
AcDbEntity
  8
0
100
AcDbBlockEnd
  0
BLOCK
  5
85
330
84
100
AcDbEntity
  8
0
100
AcDbBlockBegin
  2
_CLOSEDBLANK
 70
0
 10
0.0
 20
0.0
 30
0.0
  3
_CLOSEDBLANK
  1

  0
LWPOLYLINE
  5
87
330
84
100
AcDbEntity
  8
0
  6
BYBLOCK
 62
0
100
AcDbPolyline
 90
3
 70
1
 10
-1.0
 20
0.16439898372402537
 10
0.0
 20
0.0
 10
-1.0
 20
-0.16439898372402537
  0
ENDBLK
  5
86
330
84
100
AcDbEntity
  8
0
100
AcDbBlockEnd
  0
ENDSEC
  0
SECTION
  2
ENTITIES
  0
LINE
  5
9C
330
17
100
AcDbEntity
  8
PLAT-LINE
420
11513775
100
AcDbLine
 10
834.0055947217099
 20
1299.1465352725322
 30
0.0
 11
850.6631543322152
 21
1298.5105490776969
 31
0.0
1001
RASTER2DXF
1000
line 0
1040
16.67
1040
0.837
  0
LINE
  5
9D
330
17
100
AcDbEntity
  8
PLAT-LINE
420
16777215
100
AcDbLine
 10
850.6631543322152
 20
1298.5105490776969
 30
0.0
 11
883.0105195755941
 21
1297.275525567944
 31
0.0
1001
RASTER2DXF
1000
line 1
1040
32.371
1040
0.837
  0
LINE
  5
9E
330
17
100
AcDbEntity
  8
PLAT-LINE
420
16513976
100
AcDbLine
 10
1594.0855430947167
 20
1300.6714349759475
 30
0.0
 11
1629.88664325207
 21
1296.110253310662
 31
0.0
1001
RASTER2DXF
1000
line 2
1040
36.09
1040
0.942
  0
LINE
  5
9F
330
17
100
AcDbEntity
  8
PLAT-LINE
420
3552798
100
AcDbLine
 10
953.0077983322226
 20
1298.3721246174364
 30
0.0
 11
975.9977019957632
 21
1297.8903427139194
 31
0.0
1001
RASTER2DXF
1000
line 3
1040
22.995
1040
0.915
  0
LINE
  5
A0
330
17
100
AcDbEntity
  8
PLAT-LINE
420
10395166
100
AcDbLine
 10
1320.9975527907898
 20
1295.0536195094467
 30
0.0
 11
1346.943506466531
 21
1296.2377999963496
 31
0.0
1001
RASTER2DXF
1000
line 4
1040
25.973
1040
0.921
  0
LINE
  5
A1
330
17
100
AcDbEntity
  8
PLAT-LINE
420
16777215
100
AcDbLine
 10
2243.0015220788355
 20
1221.9645681624802
 30
0.0
 11
1912.003153386567
 21
1207.9273381148907
 31
0.0
1001
RASTER2DXF
1000
line 5
1040
331.296
1040
1.0
  0
LINE
  5
A2
330
17
100
AcDbEntity
  8
PLAT-LINE
420
16777215
100
AcDbLine
 10
2253.659817291796
 20
1213.985727046099
 30
0.0
 11
2272.8793447543185
 21
756.6690247905683
 31
0.0
1001
RASTER2DXF
1000
line 6
1040
457.72
1040
0.978
  0
LINE
  5
A3
330
17
100
AcDbEntity
  8
PLAT-LINE
420
16777215
100
AcDbLine
 10
543.9339635747592
 20
1194.5439357928626
 30
0.0
 11
374.9714866511548
 21
1189.3310322264097
 31
0.0
1001
RASTER2DXF
1000
line 7
1040
169.043
1040
0.913
  0
LINE
  5
A4
330
17
100
AcDbEntity
  8
PLAT-LINE
420
16777215
100
AcDbLine
 10
285.00918149685344
 20
1185.7886987530255
 30
0.0
 11
197.05366547910035
 21
1181.9668410729685
 31
0.0
1001
RASTER2DXF
1000
line 8
1040
88.039
1040
1.0
  0
LINE
  5
A5
330
17
100
AcDbEntity
  8
PLAT-LINE
420
16777215
100
AcDbLine
 10
197.05366547910035
 20
1181.9668410729685
 30
0.0
 11
216.03512103853268
 21
730.6670318221511
 31
0.0
1001
RASTER2DXF
1000
line 9
1040
451.699
1040
0.998
  0
LINE
  5
A6
330
17
100
AcDbEntity
  8
PLAT-LINE
420
16777215
100
AcDbLine
 10
216.03512103853268
 20
730.6670318221511
 30
0.0
 11
234.27447066869058
 21
297.01140498278664
 31
0.0
1001
RASTER2DXF
1000
line 10
1040
434.039
1040
0.998
  0
LINE
  5
A7
330
17
100
AcDbEntity
  8
PLAT-LINE
420
65535
100
AcDbLine
 10
1804.228354334431
 20
1094.9401519755208
 30
0.0
 11
1806.553168827464
 21
1064.9653442452343
 31
0.0
1001
RASTER2DXF
1000
line 11
1040
30.065
1040
1.0
  0
LINE
  5
A8
330
17
100
AcDbEntity
  8
PLAT-LINE
420
65535
100
AcDbLine
 10
615.5660609118811
 20
1092.9659083488943
 30
0.0
 11
635.6341148291312
 21
753.0261855697271
 31
0.0
1001
RASTER2DXF
1000
line 12
1040
340.532
1040
1.0
  0
LINE
  5
A9
330
17
100
AcDbEntity
  8
PLAT-LINE
420
16711679
100
AcDbLine
 10
1818.375117485365
 20
392.0689046337916
 30
0.0
 11
1811.7961931787725
 21
748.4327237464984
 31
0.0
1001
RASTER2DXF
1000
line 13
1040
356.425
1040
0.994
  0
LINE
  5
AA
330
17
100
AcDbEntity
  8
PLAT-LINE
420
16777215
100
AcDbLine
 10
1811.7961931787725
 20
748.4327237464984
 30
0.0
 11
1807.0190627368893
 21
1007.1978910190855
 31
0.0
1001
RASTER2DXF
1000
line 14
1040
258.809
1040
0.994
  0
LINE
  5
AB
330
17
100
AcDbEntity
  8
PLAT-LINE
420
65535
100
AcDbLine
 10
1812.7888577426493
 20
1048.8516546938895
 30
0.0
 11
1837.966288542304
 21
1014.9658470851323
 31
0.0
1001
RASTER2DXF
1000
line 15
1040
42.216
1040
1.0
  0
LINE
  5
AC
330
17
100
AcDbEntity
  8
PLAT-LINE
420
16777215
100
AcDbLine
 10
2272.919107544513
 20
756.6697351436403
 30
0.0
 11
2257.1434836844173
 21
303.8785154742343
 31
0.0
1001
RASTER2DXF
1000
line 16
1040
453.066
1040
0.995
  0
LINE
  5
AD
330
17
100
AcDbEntity
  8
PLAT-LINE
420
16777215
100
AcDbLine
 10
2272.919107544513
 20
756.6697351436403
 30
0.0
 11
1810.3828051976132
 21
748.4066308267204
 31
0.0
1001
RASTER2DXF
1000
line 17
1040
462.61
1040
0.993
1000
distance=102.38'
1000
bearing=S 88°58'20" W
  0
LINE
  5
AE
330
17
100
AcDbEntity
  8
PLAT-LINE
420
16777024
100
AcDbLine
 10
575.8827530480191
 20
748.8135289882767
 30
0.0
 11
603.9055595886125
 21
746.0443179242319
 31
0.0
1001
RASTER2DXF
1000
line 18
1040
28.159
1040
0.983
  0
LINE
  5
AF
330
17
100
AcDbEntity
  8
PLAT-LINE
420
65535
100
AcDbLine
 10
635.0102870637154
 20
748.0878714557596
 30
0.0
 11
637.6225221069657
 21
718.0541449314222
 31
0.0
1001
RASTER2DXF
1000
line 19
1040
30.147
1040
1.0
  0
LINE
  5
B0
330
17
100
AcDbEntity
  8
PLAT-LINE
420
65535
100
AcDbLine
 10
637.1683642088699
 20
718.0059853632672
 30
0.0
 11
644.390418350874
 21
405.0067372063593
 31
0.0
1001
RASTER2DXF
1000
line 20
1040
313.083
1040
1.0
  0
LINE
  5
B1
330
17
100
AcDbEntity
  8
PLAT-LINE
420
16777215
100
AcDbLine
 10
575.0100581228334
 20
745.7607875685859
 30
0.0
 11
216.03512103853268
 21
730.6670318221511
 31
0.0
1001
RASTER2DXF
1000
line 21
1040
359.292
1040
1.0
1000
distance=92.99'
  0
LINE
  5
B2
330
17
100
AcDbEntity
  8
PLAT-LINE
420
65535
100
AcDbLine
 10
643.5403456182136
 20
405.08770877683537
 30
0.0
 11
634.9432539599501
 21
365.02075659494244
 31
0.0
1001
RASTER2DXF
1000
line 22
1040
40.979
1040
1.0
  0
LINE
  5
B3
330
17
100
AcDbEntity
  8
PLAT-LINE
420
16777215
100
AcDbLine
 10
526.0080446207137
 20
292.1935466327168
 30
0.0
 11
245.01221822382877
 21
279.7089832586878
 31
0.0
1001
RASTER2DXF
1000
line 23
1040
281.273
1040
0.964
  0
LINE
  5
B4
330
17
100
AcDbEntity
  8
PLAT-LINE
420
16777215
100
AcDbLine
 10
1948.8323851435905
 20
300.03621253903384
 30
0.0
 11
2257.1434836844173
 21
303.8785154742343
 31
0.0
1001
RASTER2DXF
1000
line 24
1040
308.335
1040
1.0
  0
LINE
  5
B5
330
17
100
AcDbEntity
  8
PLAT-LINE
420
9803026
100
AcDbLine
 10
2240.0116578449365
 20
308.4589887924092
 30
0.0
 11
2265.9995909435183
 21
309.0189832805627
 31
0.0
1001
RASTER2DXF
1000
line 25
1040
25.994
1040
0.999
  0
LINE
  5
B6
330
17
100
AcDbEntity
  8
PLAT-LINE
420
16514043
100
AcDbLine
 10
850.6631543322152
 20
1298.5105490776969
 30
0.0
 11
834.1107066707734
 21
1290.734072833146
 31
0.0
1001
RASTER2DXF
1000
line 26
1040
18.288
1040
0.999
  0
ARC
  5
B7
330
17
100
AcDbEntity
  8
PLAT-CURVE
420
16777215
100
AcDbCircle
 10
1406.4834371949
 20
1299.351854390632
 30
0.0
 40
8.795707537428276
100
AcDbArc
 50
138.93874979034285
 51
-44.26668668252292
1001
RASTER2DXF
1000
arc 0
1040
8.796
1040
27.14
  0
ARC
  5
B8
330
17
100
AcDbEntity
  8
PLAT-CURVE
420
16777215
100
AcDbCircle
 10
1444.8850855234898
 20
1300.743460575477
 30
0.0
 40
8.34992272104151
100
AcDbArc
 50
21.86573891532796
 51
148.2745622982714
1001
RASTER2DXF
1000
arc 1
1040
8.35
1040
18.422
  0
ARC
  5
B9
330
17
100
AcDbEntity
  8
PLAT-CURVE
420
15132212
100
AcDbCircle
 10
1107.2226191261936
 20
1298.6321889021237
 30
0.0
 40
7.853019799368978
100
AcDbArc
 50
32.80052070325652
 51
170.55547840748096
1001
RASTER2DXF
1000
arc 2
1040
7.853
1040
18.881
  0
ARC
  5
BA
330
17
100
AcDbEntity
  8
PLAT-CURVE
420
16777215
100
AcDbCircle
 10
1475.9298105022856
 20
1297.8771565931565
 30
0.0
 40
7.4779542801401515
100
AcDbArc
 50
-154.11724046715324
 51
14.737648743475123
1001
RASTER2DXF
1000
arc 3
1040
7.478
1040
22.038
  0
ARC
  5
BB
330
17
100
AcDbEntity
  8
PLAT-CURVE
420
16777215
100
AcDbCircle
 10
1444.8738176290447
 20
1299.1332939585363
 30
0.0
 40
8.606888085884107
100
AcDbArc
 50
-138.84887900960675
 51
-14.709432419229705
1001
RASTER2DXF
1000
arc 4
1040
8.607
1040
18.648
  0
ARC
  5
BC
330
17
100
AcDbEntity
  8
PLAT-CURVE
420
65535
100
AcDbCircle
 10
527.7931879949064
 20
1083.0716689254004
 30
0.0
 40
112.63476779791351
100
AcDbArc
 50
4.509437043921006
 51
81.76104201355659
1001
RASTER2DXF
1000
arc 5
1040
112.635
1040
151.865
1000
curve_data=R=25.00
  0
ARC
  5
BD
330
17
100
AcDbEntity
  8
PLAT-CURVE
420
16777215
100
AcDbCircle
 10
1934.6025695754602
 20
1031.9732353358245
 30
0.0
 40
129.96679923442238
100
AcDbArc
 50
170.64270567962777
 51
-169.01054921911165
1001
RASTER2DXF
1000
arc 6
1040
129.967
1040
46.154
  0
ARC
  5
BE
330
17
100
AcDbEntity
  8
PLAT-CURVE
420
65535
100
AcDbCircle
 10
1917.100115551572
 20
1095.135944782312
 30
0.0
 40
112.64726868374605
100
AcDbArc
 50
-134.6272966939551
 51
-89.54021456473946
1001
RASTER2DXF
1000
arc 7
1040
112.647
1040
88.644
  0
ARC
  5
BF
330
17
100
AcDbEntity
  8
PLAT-CURVE
420
65535
100
AcDbCircle
 10
530.621103595684
 20
403.17976498973576
 30
0.0
 40
111.08204615642646
100
AcDbArc
 50
-92.38008615767986
 51
-20.091534284873507
1001
RASTER2DXF
1000
arc 8
1040
111.082
1040
140.149
1000
curve_data=R=25.00'
  0
ARC
  5
C0
330
17
100
AcDbEntity
  8
PLAT-CURVE
420
65535
100
AcDbCircle
 10
1930.6105934898562
 20
412.68523064958913
 30
0.0
 40
114.1132550247531
100
AcDbArc
 50
-169.59147546514404
 51
-80.81158206943311
1001
RASTER2DXF
1000
arc 9
1040
114.113
1040
176.819
  0
TEXT
  5
C1
330
17
100
AcDbEntity
  8
PLAT-TEXT-CURVE
100
AcDbText
 10
560.3408677297791
 20
1196.7111617678936
 30
0.0
 40
11.148013013948812
  1
R=25.00
 50
343.6496234917415
  7
PLAT
 72
1
 11
560.3408677297791
 21
1196.7111617678936
 31
0.0
100
AcDbText
 73
1
  0
TEXT
  5
C2
330
17
100
AcDbEntity
  8
PLAT-TEXT-BRG
100
AcDbText
 10
2079.084289255136
 20
758.7818167479295
 30
0.0
 40
11.148013013948812
  1
S 88%%d58'20" W
 50
1.0234670101509664
  7
PLAT
 72
1
 11
2079.084289255136
 21
758.7818167479295
 31
0.0
100
AcDbText
 73
1
  0
TEXT
  5
C3
330
17
100
AcDbEntity
  8
PLAT-TEXT-DIST
100
AcDbText
 10
1977.3289682378877
 20
772.573689959278
 30
0.0
 40
11.148013013948812
  1
102.38'
 50
1.0234670101509664
  7
PLAT
 72
1
 11
1977.3289682378877
 21
772.573689959278
 31
0.0
100
AcDbText
 73
1
  0
TEXT
  5
C4
330
17
100
AcDbEntity
  8
PLAT-TEXT-DIST
100
AcDbText
 10
426.2277300148314
 20
745.083894882116
 30
0.0
 40
11.148013013948812
  1
92.99'
 50
2.4076873064699384
  7
PLAT
 72
1
 11
426.2277300148314
 21
745.083894882116
 31
0.0
100
AcDbText
 73
1
  0
TEXT
  5
C5
330
17
100
AcDbEntity
  8
PLAT-TEXT-CURVE
100
AcDbText
 10
540.4465278403037
 20
286.9383308053209
 30
0.0
 40
11.148013013948812
  1
R=25.00'
 50
4.487326270235883
  7
PLAT
 72
1
 11
540.4465278403037
 21
286.9383308053209
 31
0.0
100
AcDbText
 73
3
  0
TEXT
  5
C6
330
17
100
AcDbEntity
  8
PLAT-TEXT-MISC
100
AcDbText
 10
1063.9981037701675
 20
1427.501419367229
 30
0.0
 40
10.879296460962154
  1
BEACHWOOD
 50
0.05428444215647232
  7
PLAT
 72
1
 11
1063.9981037701675
 21
1427.501419367229
 31
0.0
100
AcDbText
 73
2
  0
TEXT
  5
C7
330
17
100
AcDbEntity
  8
PLAT-TEXT-MISC
100
AcDbText
 10
1137.5687673076195
 20
1427.6717677009135
 30
0.0
 40
12.925676943549878
  1
UNIT
 50
4.746325048486938
  7
PLAT
 72
1
 11
1137.5687673076195
 21
1427.6717677009135
 31
0.0
100
AcDbText
 73
2
  0
TEXT
  5
C8
330
17
100
AcDbEntity
  8
PLAT-TEXT-MISC
100
AcDbText
 10
1229.0000405296594
 20
1427.5090032036671
 30
0.0
 40
11.342798370615142
  1
TWO -- PLAT BOOK
 50
359.7420737293243
  7
PLAT
 72
1
 11
1229.0000405296594
 21
1427.5090032036671
 31
0.0
100
AcDbText
 73
2
  0
TEXT
  5
C9
330
17
100
AcDbEntity
  8
PLAT-TEXT-LOWCONF
100
AcDbText
 10
1316.4535386066505
 20
1426.777817603408
 30
0.0
 40
14.223339578954345
  1
39,
 50
348.18886337311454
  7
PLAT
 72
1
 11
1316.4535386066505
 21
1426.777817603408
 31
0.0
100
AcDbText
 73
2
  0
TEXT
  5
CA
330
17
100
AcDbEntity
  8
PLAT-TEXT-MISC
100
AcDbText
 10
1379.5003297292137
 20
1427.017778270352
 30
0.0
 40
11.382420036000026
  1
PAGES 82 &
 50
358.93747106870114
  7
PLAT
 72
1
 11
1379.5003297292137
 21
1427.017778270352
 31
0.0
100
AcDbText
 73
2
  0
TEXT
  5
CB
330
17
100
AcDbEntity
  8
PLAT-TEXT-MISC
100
AcDbText
 10
1447.1774577906037
 20
1427.0638006988318
 30
0.0
 40
12.272204507363844
  1
82A,
 50
357.14933794283434
  7
PLAT
 72
1
 11
1447.1774577906037
 21
1427.0638006988318
 31
0.0
100
AcDbText
 73
2
  0
TEXT
  5
CC
330
17
100
AcDbEntity
  8
PLAT-TEXT-MISC
100
AcDbText
 10
1528.9997172100857
 20
1427.5205938073495
 30
0.0
 40
12.170743623663233
  1
DUVAL COUNTY,
 50
0.7867243782940818
  7
PLAT
 72
1
 11
1528.9997172100857
 21
1427.5205938073495
 31
0.0
100
AcDbText
 73
2
  0
TEXT
  5
CD
330
17
100
AcDbEntity
  8
PLAT-TEXT-MISC
100
AcDbText
 10
1119.0029814943252
 20
1359.50799923626
 30
0.0
 40
11.21363155847269
  1
CADASTRAL SURVEY AUDIT: LOTS
 50
0.11449512509716442
  7
PLAT
 72
1
 11
1119.0029814943252
 21
1359.50799923626
 31
0.0
100
AcDbText
 73
2
  0
TEXT
  5
CE
330
17
100
AcDbEntity
  8
PLAT-TEXT-LOWCONF
100
AcDbText
 10
1254.0
 20
1360.0
 30
0.0
 40
11.0
  1
6
  7
PLAT
 72
1
 11
1254.0
 21
1360.0
 31
0.0
100
AcDbText
 73
2
  0
TEXT
  5
CF
330
17
100
AcDbEntity
  8
PLAT-TEXT-LOWCONF
100
AcDbText
 10
1270.0
 20
1359.5
 30
0.0
 40
12.0
  1
8
  7
PLAT
 72
1
 11
1270.0
 21
1359.5
 31
0.0
100
AcDbText
 73
2
  0
TEXT
  5
D0
330
17
100
AcDbEntity
  8
PLAT-TEXT-LOWCONF
100
AcDbText
 10
1291.3085271418538
 20
1359.9751469813723
 30
0.0
 40
11.331146282061459
  1
10
 50
7.395596523947688
  7
PLAT
 72
1
 11
1291.3085271418538
 21
1359.9751469813723
 31
0.0
100
AcDbText
 73
2
  0
TEXT
  5
D1
330
17
100
AcDbEntity
  8
PLAT-TEXT-MISC
100
AcDbText
 10
1334.510064577093
 20
1359.1880244084443
 30
0.0
 40
11.699682229086127
  1
(BLOCK
 50
0.4395253099312413
  7
PLAT
 72
1
 11
1334.510064577093
 21
1359.1880244084443
 31
0.0
100
AcDbText
 73
2
  0
TEXT
  5
D2
330
17
100
AcDbEntity
  8
PLAT-TEXT-MISC
100
AcDbText
 10
1420.4948103754466
 20
1359.458424325498
 30
0.0
 40
11.882689507615877
  1
15) AND LOTS
 50
0.648593162605323
  7
PLAT
 72
1
 11
1420.4948103754466
 21
1359.458424325498
 31
0.0
100
AcDbText
 73
2
  0
TEXT
  5
D3
330
17
100
AcDbEntity
  8
PLAT-TEXT-LOWCONF
100
AcDbText
 10
1497.5039374239643
 20
1359.4836870744484
 30
0.0
 40
11.01213035203445
  1
23 &
 50
359.53359764151895
  7
PLAT
 72
1
 11
1497.5039374239643
 21
1359.4836870744484
 31
0.0
100
AcDbText
 73
2
  0
TEXT
  5
D4
330
17
100
AcDbEntity
  8
PLAT-TEXT-MISC
100
AcDbText
 10
1561.9716697874574
 20
1358.6663996875811
 30
0.0
 40
12.752718944306599
  1
24 (BLOCK
 50
0.38958734571019704
  7
PLAT
 72
1
 11
1561.9716697874574
 21
1358.6663996875811
 31
0.0
100
AcDbText
 73
2
  0
TEXT
  5
D5
330
17
100
AcDbEntity
  8
PLAT-TEXT-LOWCONF
100
AcDbText
 10
1619.9410337466975
 20
1358.9982599766452
 30
0.0
 40
12.173135472457911
  1
14)
 50
1.69023918962597
  7
PLAT
 72
1
 11
1619.9410337466975
 21
1358.9982599766452
 31
0.0
100
AcDbText
 73
2
  0
TEXT
  5
D6
330
17
100
AcDbEntity
  8
PLAT-TEXT-MISC
100
AcDbText
 10
880.163275268389
 20
1300.7764568448138
 30
0.0
 40
18.126058747557586
  1
zach
 50
357.8135071964811
  7
PLAT
 72
1
 11
880.163275268389
 21
1300.7764568448138
 31
0.0
100
AcDbText
 73
2
  0
TEXT
  5
D7
330
17
100
AcDbEntity
  8
PLAT-TEXT-LOWCONF
100
AcDbText
 10
977.5257757219379
 20
1300.2299784609665
 30
0.0
 40
18.126058747557586
  1
a &
 50
88.79947170367683
  7
PLAT
 72
1
 11
977.5257757219379
 21
1300.2299784609665
 31
0.0
100
AcDbText
 73
2
  0
TEXT
  5
D8
330
17
100
AcDbEntity
  8
PLAT-TEXT-LOWCONF
100
AcDbText
 10
1044.0
 20
1309.5
 30
0.0
 40
3.6
  1
hb v e
 50
90.0
  7
PLAT
 72
1
 11
1044.0
 21
1309.5
 31
0.0
100
AcDbText
 73
2
  0
TEXT
  5
D9
330
17
100
AcDbEntity
  8
PLAT-TEXT-LOWCONF
100
AcDbText
 10
834.0
 20
1299.5
 30
0.0
 40
18.126058747557586
  1
d
  7
PLAT
 72
1
 11
834.0
 21
1299.5
 31
0.0
100
AcDbText
 73
2
  0
TEXT
  5
DA
330
17
100
AcDbEntity
  8
PLAT-TEXT-LOWCONF
100
AcDbText
 10
1008.0
 20
1300.0
 30
0.0
 40
20.140065275063986
  1
2
 50
90.0
  7
PLAT
 72
1
 11
1008.0
 21
1300.0
 31
0.0
100
AcDbText
 73
2
  0
TEXT
  5
DB
330
17
100
AcDbEntity
  8
PLAT-TEXT-LOWCONF
100
AcDbText
 10
1042.0
 20
1299.5
 30
0.0
 40
18.126058747557586
  1
beret
  7
PLAT
 72
1
 11
1042.0
 21
1299.5
 31
0.0
100
AcDbText
 73
2
  0
TEXT
  5
DC
330
17
100
AcDbEntity
  8
PLAT-TEXT-LOWCONF
100
AcDbText
 10
1230.0197502019807
 20
1297.5179174025411
 30
0.0
 40
17.426746533784986
  1
i
 50
312.21434588193495
  7
PLAT
 72
1
 11
1230.0197502019807
 21
1297.5179174025411
 31
0.0
100
AcDbText
 73
2
  0
TEXT
  5
DD
330
17
100
AcDbEntity
  8
PLAT-TEXT-LOWCONF
100
AcDbText
 10
1264.725081061883
 20
1298.7751614358067
 30
0.0
 40
18.126058747557586
  1
ty
 50
4.722108275216954
  7
PLAT
 72
1
 11
1264.725081061883
 21
1298.7751614358067
 31
0.0
100
AcDbText
 73
2
  0
TEXT
  5
DE
330
17
100
AcDbEntity
  8
PLAT-TEXT-LOWCONF
100
AcDbText
 10
1407.0
 20
1303.0
 30
0.0
 40
13.5
  1
rR
  7
PLAT
 72
1
 11
1407.0
 21
1303.0
 31
0.0
100
AcDbText
 73
2
  0
TEXT
  5
DF
330
17
100
AcDbEntity
  8
PLAT-TEXT-LOWCONF
100
AcDbText
 10
1434.4997494900485
 20
1300.0032355660846
 30
0.0
 40
18.126058747557586
  1
alge
 50
4.427227110480771
  7
PLAT
 72
1
 11
1434.4997494900485
 21
1300.0032355660846
 31
0.0
100
AcDbText
 73
2
  0
TEXT
  5
E0
330
17
100
AcDbEntity
  8
PLAT-TEXT-LOWCONF
100
AcDbText
 10
1544.4206606123275
 20
1299.464543650483
 30
0.0
 40
18.126058747557586
  1
DBR
 50
359.30447262970273
  7
PLAT
 72
1
 11
1544.4206606123275
 21
1299.464543650483
 31
0.0
100
AcDbText
 73
2
  0
TEXT
  5
E1
330
17
100
AcDbEntity
  8
PLAT-TEXT-LOWCONF
100
AcDbText
 10
943.4541551810796
 20
1296.8123545887506
 30
0.0
 40
15.843676822259312
  1
IWGS
 50
358.79947170367683
  7
PLAT
 72
1
 11
943.4541551810796
 21
1296.8123545887506
 31
0.0
100
AcDbText
 73
2
  0
TEXT
  5
E2
330
17
100
AcDbEntity
  8
PLAT-TEXT-LOWCONF
100
AcDbText
 10
1138.0
 20
1301.0
 30
0.0
 40
9.9
  1
a
 50
90.0
  7
PLAT
 72
1
 11
1138.0
 21
1301.0
 31
0.0
100
AcDbText
 73
2
  0
TEXT
  5
E3
330
17
100
AcDbEntity
  8
PLAT-TEXT-LOWCONF
100
AcDbText
 10
1309.5
 20
1297.5
 30
0.0
 40
16.2
  1
rae
  7
PLAT
 72
1
 11
1309.5
 21
1297.5
 31
0.0
100
AcDbText
 73
2
  0
TEXT
  5
E4
330
17
100
AcDbEntity
  8
PLAT-TEXT-LOWCONF
100
AcDbText
 10
1455.2275719276256
 20
1301.9699520258528
 30
0.0
 40
7.433435902924034
  1
x
 50
339.72905498904925
  7
PLAT
 72
1
 11
1455.2275719276256
 21
1301.9699520258528
 31
0.0
100
AcDbText
 73
2
  0
TEXT
  5
E5
330
17
100
AcDbEntity
  8
PLAT-TEXT-LOWCONF
100
AcDbText
 10
1590.9792066760272
 20
1295.8367914437993
 30
0.0
 40
16.77694711674337
  1
ye
 50
352.73943820000926
  7
PLAT
 72
1
 11
1590.9792066760272
 21
1295.8367914437993
 31
0.0
100
AcDbText
 73
2
  0
TEXT
  5
E6
330
17
100
AcDbEntity
  8
PLAT-TEXT-LOWCONF
100
AcDbText
 10
1628.5
 20
1297.5
 30
0.0
 40
16.2
  1
“SN
  7
PLAT
 72
1
 11
1628.5
 21
1297.5
 31
0.0
100
AcDbText
 73
2
  0
TEXT
  5
E7
330
17
100
AcDbEntity
  8
PLAT-TEXT-MISC
100
AcDbText
 10
1660.3906039072099
 20
1301.1413408273972
 30
0.0
 40
11.079015156513867
  1
sit
 50
352.7394382000092
  7
PLAT
 72
1
 11
1660.3906039072099
 21
1301.1413408273972
 31
0.0
100
AcDbText
 73
2
  0
TEXT
  5
E8
330
17
100
AcDbEntity
  8
PLAT-TEXT-LOWCONF
100
AcDbText
 10
870.9636475925771
 20
1292.0131131031405
 30
0.0
 40
18.126058747557586
  1
Son
 50
25.16452456233435
  7
PLAT
 72
1
 11
870.9636475925771
 21
1292.0131131031405
 31
0.0
100
AcDbText
 73
2
  0
TEXT
  5
E9
330
17
100
AcDbEntity
  8
PLAT-TEXT-LOWCONF
100
AcDbText
 10
1325.0455454033424
 20
1290.5020787047793
 30
0.0
 40
4.089594690636071
  1
om
 50
2.61318174802625
  7
PLAT
 72
1
 11
1325.0455454033424
 21
1290.5020787047793
 31
0.0
100
AcDbText
 73
2
  0
TEXT
  5
EA
330
17
100
AcDbEntity
  8
PLAT-TEXT-MISC
100
AcDbText
 10
1855.0016276566612
 20
1271.7282156083431
 30
0.0
 40
12.753751893720798
  1
STREET (60'
 50
359.5913676690988
  7
PLAT
 72
1
 11
1855.0016276566612
 21
1271.7282156083431
 31
0.0
100
AcDbText
 73
2
  0
TEXT
  5
EB
330
17
100
AcDbEntity
  8
PLAT-TEXT-LOWCONF
100
AcDbText
 10
1923.9643181712872
 20
1272.0016429885786
 30
0.0
 40
12.59253443808701
  1
R/W)
 50
357.9530885951696
  7
PLAT
 72
1
 11
1923.9643181712872
 21
1272.0016429885786
 31
0.0
100
AcDbText
 73
2
  0
TEXT
  5
EC
330
17
100
AcDbEntity
  8
PLAT-TEXT-MISC
100
AcDbText
 10
2004.499757089061
 20
1272.5348496153465
 30
0.0
 40
11.307879249936839
  1
N 87%%d35'30"
 50
0.39936011001185534
  7
PLAT
 72
1
 11
2004.499757089061
 21
1272.5348496153465
 31
0.0
100
AcDbText
 73
2
  0
TEXT
  5
ED
330
17
100
AcDbEntity
  8
PLAT-TEXT-LOWCONF
100
AcDbText
 10
2062.0
 20
1272.5
 30
0.0
 40
12.0
  1
3
  7
PLAT
 72
1
 11
2062.0
 21
1272.5
 31
0.0
100
AcDbText
 73
2
  0
TEXT
  5
EE
330
17
100
AcDbEntity
  8
PLAT-TEXT-MISC
100
AcDbText
 10
278.00297015205103
 20
1250.9970473876717
 30
0.0
 40
10.235782748408257
  1
SHELLFISH DRIVE
 50
0.16967569301704089
  7
PLAT
 72
1
 11
278.00297015205103
 21
1250.9970473876717
 31
0.0
100
AcDbText
 73
2
  0
TEXT
  5
EF
330
17
100
AcDbEntity
  8
PLAT-TEXT-LOWCONF
100
AcDbText
 10
363.04174264432095
 20
1251.0687294528516
 30
0.0
 40
11.649763930536357
  1
(60%%d
 50
5.528433186752466
  7
PLAT
 72
1
 11
363.04174264432095
 21
1251.0687294528516
 31
0.0
100
AcDbText
 73
2
  0
TEXT
  5
F0
330
17
100
AcDbEntity
  8
PLAT-TEXT-MISC
100
AcDbText
 10
400.97433975370495
 20
1250.314376331587
 30
0.0
 40
11.716945446661173
  1
RNY)
 50
358.760150998285
  7
PLAT
 72
1
 11
400.97433975370495
 21
1250.314376331587
 31
0.0
100
AcDbText
 73
2
  0
TEXT
  5
F1
330
17
100
AcDbEntity
  8
PLAT-TEXT-LOWCONF
100
AcDbText
 10
439.5
 20
1251.0
 30
0.0
 40
9.9
  1
N
  7
PLAT
 72
1
 11
439.5
 21
1251.0
 31
0.0
100
AcDbText
 73
2
  0
TEXT
  5
F2
330
17
100
AcDbEntity
  8
PLAT-TEXT-MISC
100
AcDbText
 10
497.00126730713237
 20
1251.0012609151834
 30
0.0
 40
10.102482490896548
  1
87%%d35'30"E
 50
359.8551429143573
  7
PLAT
 72
1
 11
497.00126730713237
 21
1251.0012609151834
 31
0.0
100
AcDbText
 73
2
  0
TEXT
  5
F3
330
17
100
AcDbEntity
  8
PLAT-TEXT-LOWCONF
100
AcDbText
 10
2248.0
 20
1235.0
 30
0.0
 40
9.9
  1
yo
 50
90.0
  7
PLAT
 72
1
 11
2248.0
 21
1235.0
 31
0.0
100
AcDbText
 73
2
  0
TEXT
  5
F4
330
17
100
AcDbEntity
  8
PLAT-TEXT-LOWCONF
100
AcDbText
 10
2263.4362708232447
 20
1230.9031109875598
 30
0.0
 40
18.126058747557586
  1
a =
 50
297.86717961955844
  7
PLAT
 72
1
 11
2263.4362708232447
 21
1230.9031109875598
 31
0.0
100
AcDbText
 73
2
  0
TEXT
  5
F5
330
17
100
AcDbEntity
  8
PLAT-TEXT-CURVE
100
AcDbText
 10
1738.492332624251
 20
1232.0001176049636
 30
0.0
 40
10.437254582676934
  1
R=25
 50
359.1212456604619
  7
PLAT
 72
1
 11
1738.492332624251
 21
1232.0001176049636
 31
0.0
100
AcDbText
 73
2
  0
TEXT
  5
F6
330
17
100
AcDbEntity
  8
PLAT-TEXT-LOWCONF
100
AcDbText
 10
1777.5845987503333
 20
1232.2286228624675
 30
0.0
 40
11.12187585487752
  1
00
 50
6.258749812872111
  7
PLAT
 72
1
 11
1777.5845987503333
 21
1232.2286228624675
 31
0.0
100
AcDbText
 73
2
  0
TEXT
  5
F7
330
17
100
AcDbEntity
  8
PLAT-TEXT-CURVE
100
AcDbText
 10
1834.49638685274
 20
1232.1201646129562
 30
0.0
 40
11.491840471339879
  1
L=38.67'
 50
1.7222685522510233
  7
PLAT
 72
1
 11
1834.49638685274
 21
1232.1201646129562
 31
0.0
100
AcDbText
 73
2
  0
TEXT
  5
F8
330
17
100
AcDbEntity
  8
PLAT-TEXT-CURVE
100
AcDbText
 10
594.5216262262647
 20
1224.1129603932868
 30
0.0
 40
11.542915968353556
  1
L=37
 50
3.198133593069201
  7
PLAT
 72
1
 11
594.5216262262647
 21
1224.1129603932868
 31
0.0
100
AcDbText
 73
2
  0
TEXT
  5
F9
330
17
100
AcDbEntity
  8
PLAT-TEXT-LOWCONF
100
AcDbText
 10
632.6933001003961
 20
1224.2222148967849
 30
0.0
 40
10.69050140337103
  1
39
 50
3.9806731083081104
  7
PLAT
 72
1
 11
632.6933001003961
 21
1224.2222148967849
 31
0.0
100
AcDbText
 73
2
  0
TEXT
  5
FA
330
17
100
AcDbEntity
  8
PLAT-TEXT-LOWCONF
100
AcDbText
 10
2085.5
 20
1209.5
 30
0.0
 40
14.4
  1
S553
  7
PLAT
 72
1
 11
2085.5
 21
1209.5
 31
0.0
100
AcDbText
 73
2
  0
TEXT
  5
FB
330
17
100
AcDbEntity
  8
PLAT-TEXT-LOWCONF
100
AcDbText
 10
2033.8302321350793
 20
1206.7243920259557
 30
0.0
 40
14.752354282073386
  1
PSa 3 |
 50
2.057999972129892
  7
PLAT
 72
1
 11
2033.8302321350793
 21
1206.7243920259557
 31
0.0
100
AcDbText
 73
2
  0
TEXT
  5
FC
330
17
100
AcDbEntity
  8
PLAT-TEXT-LOWCONF
100
AcDbText
 10
2136.126794457842
 20
1206.0484047714262
 30
0.0
 40
13.621374902592736
  1
to Pl)
 50
2.459796450109934
  7
PLAT
 72
1
 11
2136.126794457842
 21
1206.0484047714262
 31
0.0
100
AcDbText
 73
2
  0
TEXT
  5
FD
330
17
100
AcDbEntity
  8
PLAT-TEXT-LOWCONF
100
AcDbText
 10
394.7159013600774
 20
1179.2616737762955
 30
0.0
 40
14.74364167834096
  1
35.98' to Pl.)
 50
3.305359122488028
  7
PLAT
 72
1
 11
394.7159013600774
 21
1179.2616737762955
 31
0.0
100
AcDbText
 73
2
  0
TEXT
  5
FE
330
17
100
AcDbEntity
  8
PLAT-TEXT-LOWCONF
100
AcDbText
 10
1809.7348653429772
 20
1057.2819944631567
 30
0.0
 40
11.487844732182978
  1
4
 50
39.42856676411145
  7
PLAT
 72
1
 11
1809.7348653429772
 21
1057.2819944631567
 31
0.0
100
AcDbText
 73
2
  0
TEXT
  5
FF
330
17
100
AcDbEntity
  8
PLAT-TEXT-LOWCONF
100
AcDbText
 10
2036.3666572977625
 20
993.9949125261055
 30
0.0
 40
10.33952650155128
  1
24
 50
2.184967470754202
  7
PLAT
 72
1
 11
2036.3666572977625
 21
993.9949125261055
 31
0.0
100
AcDbText
 73
2
  0
TEXT
  5
100
330
17
100
AcDbEntity
  8
PLAT-TEXT-LOWCONF
100
AcDbText
 10
2198.470806994296
 20
990.6547508967049
 30
0.0
 40
12.554044592492335
  1
LTEOL
 50
2.552923523390291
  7
PLAT
 72
1
 11
2198.470806994296
 21
990.6547508967049
 31
0.0
100
AcDbText
 73
2
  0
TEXT
  5
101
330
17
100
AcDbEntity
  8
PLAT-TEXT-LOWCONF
100
AcDbText
 10
2247.5
 20
990.5
 30
0.0
 40
10.8
  1
S
  7
PLAT
 72
1
 11
2247.5
 21
990.5
 31
0.0
100
AcDbText
 73
2
  0
TEXT
  5
102
330
17
100
AcDbEntity
  8
PLAT-TEXT-LOWCONF
100
AcDbText
 10
2304.0017013429156
 20
990.5067568224456
 30
0.0
 40
10.894283510282285
  1
%%d24'30" E
 50
359.90317455654986
  7
PLAT
 72
1
 11
2304.0017013429156
 21
990.5067568224456
 31
0.0
100
AcDbText
 73
2
  0
TEXT
  5
103
330
17
100
AcDbEntity
  8
PLAT-TEXT-LOWCONF
100
AcDbText
 10
394.0
 20
976.0
 30
0.0
 40
11.0
  1
9
  7
PLAT
 72
1
 11
394.0
 21
976.0
 31
0.0
100
AcDbText
 73
2
  0
TEXT
  5
104
330
17
100
AcDbEntity
  8
PLAT-TEXT-UNASSOC
100
AcDbText
 10
156.06119119835444
 20
958.0420185593669
 30
0.0
 40
10.49206878549379
  1
100.00'
 50
0.7864046303466807
  7
PLAT
 72
1
 11
156.06119119835444
 21
958.0420185593669
 31
0.0
100
AcDbText
 73
2
  0
TEXT
  5
105
330
17
100
AcDbEntity
  8
PLAT-TEXT-LOWCONF
100
AcDbText
 10
250.4996313677491
 20
958.0383978269391
 30
0.0
 40
10.374780284564613
  1
2%%d24'30"
 50
0.5500421508163527
  7
PLAT
 72
1
 11
250.4996313677491
 21
958.0383978269391
 31
0.0
100
AcDbText
 73
2
  0
TEXT
  5
106
330
17
100
AcDbEntity
  8
PLAT-TEXT-AREA
100
AcDbText
 10
2036.9995397750838
 20
939.5262702410977
 30
0.0
 40
12.106939891766665
  1
10,185.3 SF
 50
1.003654594791442
  7
PLAT
 72
1
 11
2036.9995397750838
 21
939.5262702410977
 31
0.0
100
AcDbText
 73
2
  0
TEXT
  5
107
330
17
100
AcDbEntity
  8
PLAT-TEXT-LOWCONF
100
AcDbText
 10
357.0
 20
922.0
 30
0.0
 40
11.0
  1
9
  7
PLAT
 72
1
 11
357.0
 21
922.0
 31
0.0
100
AcDbText
 73
2
  0
TEXT
  5
108
330
17
100
AcDbEntity
  8
PLAT-TEXT-UNASSOC
100
AcDbText
 10
389.4865714910966
 20
921.7934900572919
 30
0.0
 40
12.297536529404121
  1
372.1
 50
356.2795244385776
  7
PLAT
 72
1
 11
389.4865714910966
 21
921.7934900572919
 31
0.0
100
AcDbText
 73
2
  0
TEXT
  5
109
330
17
100
AcDbEntity
  8
PLAT-TEXT-AREA
100
AcDbText
 10
426.4731578866688
 20
922.1616218248971
 30
0.0
 40
11.105457458920514
  1
SF
 50
9.429600474960807
  7
PLAT
 72
1
 11
426.4731578866688
 21
922.1616218248971
 31
0.0
100
AcDbText
 73
2
  0
TEXT
  5
10A
330
17
100
AcDbEntity
  8
PLAT-TEXT-LOWCONF
100
AcDbText
 10
1768.9935154475857
 20
921.2384842586478
 30
0.0
 40
11.822224667416906
  1
76.34' (1
 50
359.51211972984237
  7
PLAT
 72
1
 11
1768.9935154475857
 21
921.2384842586478
 31
0.0
100
AcDbText
 73
2
  0
TEXT
  5
10B
330
17
100
AcDbEntity
  8
PLAT-TEXT-LOWCONF
100
AcDbText
 10
1817.0993699244632
 20
920.7830318535922
 30
0.0
 40
9.827565204545545
  1
0
 50
32.631322339343
  7
PLAT
 72
1
 11
1817.0993699244632
 21
920.7830318535922
 31
0.0
100
AcDbText
 73
2
  0
TEXT
  5
10C
330
17
100
AcDbEntity
  8
PLAT-TEXT-LOWCONF
100
AcDbText
 10
1863.984006455165
 20
921.852307916192
 30
0.0
 40
11.718925896007585
  1
CVa OWL
 50
358.5854753229087
  7
PLAT
 72
1
 11
1863.984006455165
 21
921.852307916192
 31
0.0
100
AcDbText
 73
2
  0
TEXT
  5
10D
330
17
100
AcDbEntity
  8
PLAT-TEXT-AREA
100
AcDbText
 10
2036.5109875946707
 20
916.7721722947597
 30
0.0
 40
10.705817695244018
  1
0.2338 Acres
 50
359.18476702462357
  7
PLAT
 72
1
 11
2036.5109875946707
 21
916.7721722947597
 31
0.0
100
AcDbText
 73
2
  0
TEXT
  5
10E
330
17
100
AcDbEntity
  8
PLAT-TEXT-LOWCONF
100
AcDbText
 10
364.5
 20
916.5
 30
0.0
 40
3.6
  1
af
  7
PLAT
 72
1
 11
364.5
 21
916.5
 31
0.0
100
AcDbText
 73
2
  0
TEXT
  5
10F
330
17
100
AcDbEntity
  8
PLAT-TEXT-AREA
100
AcDbText
 10
394.0107300591077
 20
898.7890829459903
 30
0.0
 40
10.670111196420168
  1
0.2152 Acres
 50
359.220932077134
  7
PLAT
 72
1
 11
394.0107300591077
 21
898.7890829459903
 31
0.0
100
AcDbText
 73
2
  0
TEXT
  5
110
330
17
100
AcDbEntity
  8
PLAT-TEXT-MISC
100
AcDbText
 10
598.3658686475964
 20
794.2338559998274
 30
0.0
 40
10.25400667723152
  1
Arc:
 50
355.0610550212067
  7
PLAT
 72
1
 11
598.3658686475964
 21
794.2338559998274
 31
0.0
100
AcDbText
 73
2
  0
TEXT
  5
111
330
17
100
AcDbEntity
  8
PLAT-TEXT-LOWCONF
100
AcDbText
 10
632.9971829866569
 20
794.9944435917865
 30
0.0
 40
11.077853019547176
  1
3
 50
89.68074520989154
  7
PLAT
 72
1
 11
632.9971829866569
 21
794.9944435917865
 31
0.0
100
AcDbText
 73
2
  0
TEXT
  5
112
330
17
100
AcDbEntity
  8
PLAT-TEXT-LOWCONF
100
AcDbText
 10
691.4981573864853
 20
794.1018139431204
 30
0.0
 40
11.887296876557704
  1
10.04' (to PI.)
 50
359.7348645883923
  7
PLAT
 72
1
 11
691.4981573864853
 21
794.1018139431204
 31
0.0
100
AcDbText
 73
2
  0
TEXT
  5
113
330
17
100
AcDbEntity
  8
PLAT-TEXT-LOWCONF
100
AcDbText
 10
616.5
 20
794.5
 30
0.0
 40
9.155345682064445
  1
A
 50
93.64711340445524
  7
PLAT
 72
1
 11
616.5
 21
794.5
 31
0.0
100
AcDbText
 73
2
  0
TEXT
  5
114
330
17
100
AcDbEntity
  8
PLAT-TEXT-LOWCONF
100
AcDbText
 10
623.5423643081841
 20
751.4287021772681
 30
0.0
 40
15.343797467329212
  1
nv agi OOD
 50
354.35635970032496
  7
PLAT
 72
1
 11
623.5423643081841
 21
751.4287021772681
 31
0.0
100
AcDbText
 73
2
  0
TEXT
  5
115
330
17
100
AcDbEntity
  8
PLAT-TEXT-MISC
100
AcDbText
 10
697.9905232043188
 20
750.009300486967
 30
0.0
 40
10.170008085726531
  1
BLVD
 50
0.5379611393493633
  7
PLAT
 72
1
 11
697.9905232043188
 21
750.009300486967
 31
0.0
100
AcDbText
 73
2
  0
TEXT
  5
116
330
17
100
AcDbEntity
  8
PLAT-TEXT-UNASSOC
100
AcDbText
 10
737.0508479234546
 20
749.7742349062164
 30
0.0
 40
11.673590947817416
  1
(80'
 50
4.007658406660141
  7
PLAT
 72
1
 11
737.0508479234546
 21
749.7742349062164
 31
0.0
100
AcDbText
 73
2
  0
TEXT
  5
117
330
17
100
AcDbEntity
  8
PLAT-TEXT-LOWCONF
100
AcDbText
 10
774.9821755260595
 20
749.4881825146118
 30
0.0
 40
11.693456620075423
  1
R/W)
 50
358.00543244303196
  7
PLAT
 72
1
 11
774.9821755260595
 21
749.4881825146118
 31
0.0
100
AcDbText
 73
2
  0
TEXT
  5
118
330
17
100
AcDbEntity
  8
PLAT-TEXT-CURVE
100
AcDbText
 10
815.0993501509506
 20
749.8896230918793
 30
0.0
 40
10.454631519700333
  1
C2:
 50
356.9903480137616
  7
PLAT
 72
1
 11
815.0993501509506
 21
749.8896230918793
 31
0.0
100
AcDbText
 73
2
  0
TEXT
  5
119
330
17
100
AcDbEntity
  8
PLAT-TEXT-CURVE
100
AcDbText
 10
878.988811428573
 20
750.00003576726
 30
0.0
 40
10.15313669479525
  1
R=1959.86'
 50
359.8168393460009
  7
PLAT
 72
1
 11
878.988811428573
 21
750.00003576726
 31
0.0
100
AcDbText
 73
2
  0
TEXT
  5
11A
330
17
100
AcDbEntity
  8
PLAT-TEXT-MISC
100
AcDbText
 10
1634.997519006191
 20
749.0437054070975
 30
0.0
 40
11.712524955890661
  1
MANGROVE AVENUE (60'
 50
359.96810119784544
  7
PLAT
 72
1
 11
1634.997519006191
 21
749.0437054070975
 31
0.0
100
AcDbText
 73
2
  0
TEXT
  5
11B
330
17
100
AcDbEntity
  8
PLAT-TEXT-LOWCONF
100
AcDbText
 10
1750.9693023039943
 20
749.3869712030975
 30
0.0
 40
11.695894700568026
  1
R/W)
 50
358.4201642761216
  7
PLAT
 72
1
 11
1750.9693023039943
 21
749.3869712030975
 31
0.0
100
AcDbText
 73
2
  0
TEXT
  5
11C
330
17
100
AcDbEntity
  8
PLAT-TEXT-LOWCONF
100
AcDbText
 10
1841.985323784797
 20
750.821517198873
 30
0.0
 40
10.220078713897387
  1
tivawereue ON
 50
1.0234670101509664
  7
PLAT
 72
1
 11
1841.985323784797
 21
750.821517198873
 31
0.0
100
AcDbText
 73
2
  0
TEXT
  5
11D
330
17
100
AcDbEntity
  8
PLAT-TEXT-MISC
100
AcDbText
 10
598.3293247764473
 20
636.3281916179155
 30
0.0
 40
10.215470666414216
  1
Arc:
 50
355.6488450661868
  7
PLAT
 72
1
 11
598.3293247764473
 21
636.3281916179155
 31
0.0
100
AcDbText
 73
2
  0
TEXT
  5
11E
330
17
100
AcDbEntity
  8
PLAT-TEXT-LOWCONF
100
AcDbText
 10
628.0
 20
637.0
 30
0.0
 40
9.9
  1
IT
  7
PLAT
 72
1
 11
628.0
 21
637.0
 31
0.0
100
AcDbText
 73
2
  0
TEXT
  5
11F
330
17
100
AcDbEntity
  8
PLAT-TEXT-LOWCONF
100
AcDbText
 10
691.4981954499008
 20
636.0990144330849
 30
0.0
 40
11.88215041209734
  1
0.04' (to Pl)
 50
359.7421542939436
  7
PLAT
 72
1
 11
691.4981954499008
 21
636.0990144330849
 31
0.0
100
AcDbText
 73
2
  0
TEXT
  5
120
330
17
100
AcDbEntity
  8
PLAT-TEXT-LOWCONF
100
AcDbText
 10
616.5
 20
636.5
 30
0.0
 40
9.0908110743114
  1
a
 50
92.03601286309413
  7
PLAT
 72
1
 11
616.5
 21
636.5
 31
0.0
100
AcDbText
 73
2
  0
TEXT
  5
121
330
17
100
AcDbEntity
  8
PLAT-TEXT-LOWCONF
100
AcDbText
 10
1822.49693870084
 20
579.9777570933121
 30
0.0
 40
12.5997989930291
  1
715.09' (109.00 to PA)
 50
359.66414572505204
  7
PLAT
 72
1
 11
1822.49693870084
 21
579.9777570933121
 31
0.0
100
AcDbText
 73
2
  0
TEXT
  5
122
330
17
100
AcDbEntity
  8
PLAT-TEXT-LOWCONF
100
AcDbText
 10
2036.4936317861993
 20
541.9876497386059
 30
0.0
 40
10.067089010576293
  1
23
 50
359.28788367388034
  7
PLAT
 72
1
 11
2036.4936317861993
 21
541.9876497386059
 31
0.0
100
AcDbText
 73
2
  0
TEXT
  5
123
330
17
100
AcDbEntity
  8
PLAT-TEXT-UNASSOC
100
AcDbText
 10
2197.4871444996948
 20
531.5467250186996
 30
0.0
 40
11.791616835466947
  1
100.44'
 50
1.346984651848743
  7
PLAT
 72
1
 11
2197.4871444996948
 21
531.5467250186996
 31
0.0
100
AcDbText
 73
2
  0
TEXT
  5
124
330
17
100
AcDbEntity
  8
PLAT-TEXT-LOWCONF
100
AcDbText
 10
2246.5
 20
531.5
 30
0.0
 40
10.8
  1
Ww
 50
90.0
  7
PLAT
 72
1
 11
2246.5
 21
531.5
 31
0.0
100
AcDbText
 73
2
  0
TEXT
  5
125
330
17
100
AcDbEntity
  8
PLAT-TEXT-LOWCONF
100
AcDbText
 10
2290.9998213460512
 20
531.5267317017475
 30
0.0
 40
11.112546808445398
  1
1%%d58'48"
 50
0.38291482394186005
  7
PLAT
 72
1
 11
2290.9998213460512
 21
531.5267317017475
 31
0.0
100
AcDbText
 73
2
  0
TEXT
  5
126
330
17
100
AcDbEntity
  8
PLAT-TEXT-LOWCONF
100
AcDbText
 10
403.85407571031055
 20
524.5336888709962
 30
0.0
 40
11.693200918054641
  1
10
 50
5.435100095868961
  7
PLAT
 72
1
 11
403.85407571031055
 21
524.5336888709962
 31
0.0
100
AcDbText
 73
2
  0
TEXT
  5
127
330
17
100
AcDbEntity
  8
PLAT-TEXT-UNASSOC
100
AcDbText
 10
175.05376726566374
 20
507.0246742823093
 30
0.0
 40
10.418324668548102
  1
100.00'
 50
0.6883273723402681
  7
PLAT
 72
1
 11
175.05376726566374
 21
507.0246742823093
 31
0.0
100
AcDbText
 73
2
  0
TEXT
  5
128
330
17
100
AcDbEntity
  8
PLAT-TEXT-MISC
100
AcDbText
 10
261.499702659484
 20
507.0344858471349
 30
0.0
 40
10.466116578891986
  1
112%%d24'30"
 50
0.49399785461258716
  7
PLAT
 72
1
 11
261.499702659484
 21
507.0344858471349
 31
0.0
100
AcDbText
 73
2
  0
TEXT
  5
129
330
17
100
AcDbEntity
  8
PLAT-TEXT-MISC
100
AcDbText
 10
2016.5114309991575
 20
487.9941192494524
 30
0.0
 40
10.292631874595626
  1
9,842
 50
359.34120665640535
  7
PLAT
 72
1
 11
2016.5114309991575
 21
487.9941192494524
 31
0.0
100
AcDbText
 73
2
  0
TEXT
  5
12A
330
17
100
AcDbEntity
  8
PLAT-TEXT-LOWCONF
100
AcDbText
 10
2049.5
 20
488.0
 30
0.0
 40
11.0
  1
5
  7
PLAT
 72
1
 11
2049.5
 21
488.0
 31
0.0
100
AcDbText
 73
2
  0
TEXT
  5
12B
330
17
100
AcDbEntity
  8
PLAT-TEXT-AREA
100
AcDbText
 10
2068.9398474038444
 20
488.2942967200105
 30
0.0
 40
11.33975457319148
  1
SF
 50
11.551822324208786
  7
PLAT
 72
1
 11
2068.9398474038444
 21
488.2942967200105
 31
0.0
100
AcDbText
 73
2
  0
TEXT
  5
12C
330
17
100
AcDbEntity
  8
PLAT-TEXT-LOWCONF
100
AcDbText
 10
2007.0
 20
482.5
 30
0.0
 40
3.6
  1
led
 50
90.0
  7
PLAT
 72
1
 11
2007.0
 21
482.5
 31
0.0
100
AcDbText
 73
2
  0
TEXT
  5
12D
330
17
100
AcDbEntity
  8
PLAT-TEXT-MISC
100
AcDbText
 10
390.9979582059684
 20
469.01691491907286
 30
0.0
 40
11.867274305114831
  1
9,073.1
 50
359.7578366862082
  7
PLAT
 72
1
 11
390.9979582059684
 21
469.01691491907286
 31
0.0
100
AcDbText
 73
2
  0
TEXT
  5
12E
330
17
100
AcDbEntity
  8
PLAT-TEXT-AREA
100
AcDbText
 10
436.0211924985549
 20
470.3902350915257
 30
0.0
 40
11.442940342598742
  1
SF
 50
10.927734882549885
  7
PLAT
 72
1
 11
436.0211924985549
 21
470.3902350915257
 31
0.0
100
AcDbText
 73
2
  0
TEXT
  5
12F
330
17
100
AcDbEntity
  8
PLAT-TEXT-AREA
100
AcDbText
 10
2036.995934872991
 20
464.744999006105
 30
0.0
 40
10.788285572588812
  1
0.2259 Acres
 50
359.0866902529725
  7
PLAT
 72
1
 11
2036.995934872991
 21
464.744999006105
 31
0.0
100
AcDbText
 73
2
  0
TEXT
  5
130
330
17
100
AcDbEntity
  8
PLAT-TEXT-AREA
100
AcDbText
 10
403.5049245568773
 20
447.3411351912732
 30
0.0
 40
11.487484191471799
  1
0.2083 Acres
 50
359.1729474560332
  7
PLAT
 72
1
 11
403.5049245568773
 21
447.3411351912732
 31
0.0
100
AcDbText
 73
2
  0
TEXT
  5
131
330
17
100
AcDbEntity
  8
PLAT-TEXT-LOWCONF
100
AcDbText
 10
2078.5088514067324
 20
311.7897522711419
 30
0.0
 40
12.565445604906031
  1
55.00' (80.00' to Pi. 17.08"
 50
0.7140072047663466
  7
PLAT
 72
1
 11
2078.5088514067324
 21
311.7897522711419
 31
0.0
100
AcDbText
 73
2
  0
TEXT
  5
132
330
17
100
AcDbEntity
  8
PLAT-TEXT-MISC
100
AcDbText
 10
2222.497748326358
 20
313.68067705383237
 30
0.0
 40
11.090829320479363
  1
35068 S
 50
0.7140072047664034
  7
PLAT
 72
1
 11
2222.497748326358
 21
313.68067705383237
 31
0.0
100
AcDbText
 73
2
  0
TEXT
  5
133
330
17
100
AcDbEntity
  8
PLAT-TEXT-MISC
100
AcDbText
 10
2282.36177787068
 20
313.76202759869466
 30
0.0
 40
11.98089992753674
  1
20" W
 50
357.5556495103757
  7
PLAT
 72
1
 11
2282.36177787068
 21
313.76202759869466
 31
0.0
100
AcDbText
 73
2
  0
TEXT
  5
134
330
17
100
AcDbEntity
  8
PLAT-TEXT-MISC
100
AcDbText
 10
384.4137856282798
 20
296.9404666309099
 30
0.0
 40
14.305012194189228
  1
66.24 (90.00' to PLY
 50
2.543961882330109
  7
PLAT
 72
1
 11
384.4137856282798
 21
296.9404666309099
 31
0.0
100
AcDbText
 73
2
  0
TEXT
  5
135
330
17
100
AcDbEntity
  8
PLAT-TEXT-LOWCONF
100
AcDbText
 10
246.62761608549317
 20
284.627685900552
 30
0.0
 40
18.126058747557586
  1
wd
 50
2.543961882330109
  7
PLAT
 72
1
 11
246.62761608549317
 21
284.627685900552
 31
0.0
100
AcDbText
 73
2
  0
TEXT
  5
136
330
17
100
AcDbEntity
  8
PLAT-TEXT-CURVE
100
AcDbText
 10
1769.9999897376674
 20
262.0055485937294
 30
0.0
 40
10.003188626372992
  1
R=25.00'
 50
0.10597057597607318
  7
PLAT
 72
1
 11
1769.9999897376674
 21
262.0055485937294
 31
0.0
100
AcDbText
 73
2
  0
TEXT
  5
137
330
17
100
AcDbEntity
  8
PLAT-TEXT-CURVE
100
AcDbText
 10
1850.9966838918942
 20
262.11512356774415
 30
0.0
 40
11.399254300980761
  1
L=39.27'
 50
1.6499356335478979
  7
PLAT
 72
1
 11
1850.9966838918942
 21
262.11512356774415
 31
0.0
100
AcDbText
 73
2
  0
TEXT
  5
138
330
17
100
AcDbEntity
  8
PLAT-TEXT-CURVE
100
AcDbText
 10
583.4939667057981
 20
257.1096822126183
 30
0.0
 40
11.51765799312564
  1
L=37
 50
3.1484984249369745
  7
PLAT
 72
1
 11
583.4939667057981
 21
257.1096822126183
 31
0.0
100
AcDbText
 73
2
  0
TEXT
  5
139
330
17
100
AcDbEntity
  8
PLAT-TEXT-UNASSOC
100
AcDbText
 10
618.5
 20
257.0
 30
0.0
 40
11.148013013948812
  1
".99'
 50
6.39954285223024
  7
PLAT
 72
1
 11
618.5
 21
257.0
 31
0.0
100
AcDbText
 73
2
  0
TEXT
  5
13A
330
17
100
AcDbEntity
  8
PLAT-TEXT-MISC
100
AcDbText
 10
1826.9813969229083
 20
216.15239154658434
 30
0.0
 40
11.8086593531846
  1
STREET (60'
 50
359.72297869945015
  7
PLAT
 72
1
 11
1826.9813969229083
 21
216.15239154658434
 31
0.0
100
AcDbText
 73
2
  0
TEXT
  5
13B
330
17
100
AcDbEntity
  8
PLAT-TEXT-LOWCONF
100
AcDbText
 10
1895.4370753089927
 20
216.4079446843209
 30
0.0
 40
11.695118030469875
  1
R/W)
 50
358.2771810274775
  7
PLAT
 72
1
 11
1895.4370753089927
 21
216.4079446843209
 31
0.0
100
AcDbText
 73
2
  0
TEXT
  5
13C
330
17
100
AcDbEntity
  8
PLAT-TEXT-UNASSOC
100
AcDbText
 10
1983.0
 20
217.0
 30
0.0
 40
10.35800208173793
  1
N 88%%d58'20" E
 50
0.27513241560473034
  7
PLAT
 72
1
 11
1983.0
 21
217.0
 31
0.0
100
AcDbText
 73
2
  0
TEXT
  5
13D
330
17
100
AcDbEntity
  8
PLAT-TEXT-MISC
100
AcDbText
 10
223.5000417259704
 20
199.48485103646112
 30
0.0
 40
10.978445457648728
  1
KEEL DRIVE
 50
0.15781382995186277
  7
PLAT
 72
1
 11
223.5000417259704
 21
199.48485103646112
 31
0.0
100
AcDbText
 73
2
  0
TEXT
  5
13E
330
17
100
AcDbEntity
  8
PLAT-TEXT-LOWCONF
100
AcDbText
 10
306.5012152756707
 20
198.3562703596781
 30
0.0
 40
12.82025695386135
  1
(60' R/W)
 50
0.4844408394845914
  7
PLAT
 72
1
 11
306.5012152756707
 21
198.3562703596781
 31
0.0
100
AcDbText
 73
2
  0
TEXT
  5
13F
330
17
100
AcDbEntity
  8
PLAT-TEXT-MISC
100
AcDbText
 10
421.98087347948285
 20
199.44893472602303
 30
0.0
 40
11.153720403823579
  1
87%%d35'30" W
 50
359.69140012339443
  7
PLAT
 72
1
 11
421.98087347948285
 21
199.44893472602303
 31
0.0
100
AcDbText
 73
2
  0
TEXT
  5
140
330
17
100
AcDbEntity
  8
PLAT-TEXT-LOWCONF
100
AcDbText
 10
362.5
 20
199.0
 30
0.0
 40
9.9
  1
S
  7
PLAT
 72
1
 11
362.5
 21
199.0
 31
0.0
100
AcDbText
 73
2
  0
ENDSEC
  0
SECTION
  2
OBJECTS
  0
DICTIONARY
  5
A
330
0
100
AcDbDictionary
281
1
  3
ACAD_COLOR
350
B
  3
ACAD_GROUP
350
C
  3
ACAD_LAYOUT
350
D
  3
ACAD_MATERIAL
350
E
  3
ACAD_MLEADERSTYLE
350
F
  3
ACAD_MLINESTYLE
350
10
  3
ACAD_PLOTSETTINGS
350
11
  3
ACAD_PLOTSTYLENAME
350
12
  3
ACAD_SCALELIST
350
14
  3
ACAD_TABLESTYLE
350
15
  3
ACAD_VISUALSTYLE
350
16
  3
EZDXF_META
350
2D
  0
DICTIONARY
  5
B
330
A
100
AcDbDictionary
281
1
  0
DICTIONARY
  5
C
330
A
100
AcDbDictionary
281
1
  0
DICTIONARY
  5
D
330
A
100
AcDbDictionary
281
1
  3
Model
350
1A
  3
Layout1
350
1E
  0
DICTIONARY
  5
E
330
A
100
AcDbDictionary
281
1
  3
ByBlock
350
1F
  3
ByLayer
350
20
  3
Global
350
21
  0
DICTIONARY
  5
F
330
A
100
AcDbDictionary
281
1
  3
Standard
350
2C
  0
DICTIONARY
  5
10
330
A
100
AcDbDictionary
281
1
  3
Standard
350
22
  0
DICTIONARY
  5
11
330
A
100
AcDbDictionary
281
1
  0
ACDBDICTIONARYWDFLT
  5
12
330
A
100
AcDbDictionary
281
1
  3
Normal
350
13
100
AcDbDictionaryWithDefault
340
13
  0
ACDBPLACEHOLDER
  5
13
330
12
  0
DICTIONARY
  5
14
330
A
100
AcDbDictionary
281
1
  0
DICTIONARY
  5
15
330
A
100
AcDbDictionary
281
1
  0
DICTIONARY
  5
16
330
A
100
AcDbDictionary
281
1
  3
2dWireframe
350
5A
  3
Basic
350
5B
  3
Brighten
350
5C
  3
ColorChange
350
5D
  3
Conceptual
350
5E
  3
Dim
350
5F
  3
EdgeColorOff
350
60
  3
Facepattern
350
61
  3
Flat
350
62
  3
FlatWithEdges
350
63
  3
Gouraud
350
64
  3
GouraudWithEdges
350
65
  3
Hidden
350
66
  3
JitterOff
350
67
  3
Linepattern
350
68
  3
Modeling
350
69
  3
OverhangOff
350
6A
  3
Realistic
350
6B
  3
Shaded
350
6C
  3
Shaded with edges
350
6D
  3
Shades of Gray
350
6E
  3
Sketchy
350
6F
  3
Thicken
350
70
  3
Wireframe
350
71
  3
X-Ray
350
72
  0
LAYOUT
  5
1A
330
D
100
AcDbPlotSettings
  1

  4
A3
  6

 40
7.5
 41
20.0
 42
7.5
 43
20.0
 44
420.0
 45
297.0
 46
0.0
 47
0.0
 48
0.0
 49
0.0
140
0.0
141
0.0
142
1.0
143
1.0
 70
1024
 72
1
 73
0
 74
5
  7

 75
16
 76
0
 77
2
 78
300
147
1.0
148
0.0
149
0.0
100
AcDbLayout
  1
Model
 70
1
 71
0
 10
0.0
 20
0.0
 11
420.0
 21
297.0
 12
0.0
 22
0.0
 32
0.0
 14
1e+20
 24
1e+20
 34
1e+20
 15
-1e+20
 25
-1e+20
 35
-1e+20
146
0.0
 13
0.0
 23
0.0
 33
0.0
 16
1.0
 26
0.0
 36
0.0
 17
0.0
 27
1.0
 37
0.0
 76
1
330
17
  0
LAYOUT
  5
1E
330
D
100
AcDbPlotSettings
  1

  4
A3
  6

 40
7.5
 41
20.0
 42
7.5
 43
20.0
 44
420.0
 45
297.0
 46
0.0
 47
0.0
 48
0.0
 49
0.0
140
0.0
141
0.0
142
1.0
143
1.0
 70
0
 72
1
 73
0
 74
5
  7

 75
16
 76
0
 77
2
 78
300
147
1.0
148
0.0
149
0.0
100
AcDbLayout
  1
Layout1
 70
1
 71
1
 10
0.0
 20
0.0
 11
420.0
 21
297.0
 12
0.0
 22
0.0
 32
0.0
 14
1e+20
 24
1e+20
 34
1e+20
 15
-1e+20
 25
-1e+20
 35
-1e+20
146
0.0
 13
0.0
 23
0.0
 33
0.0
 16
1.0
 26
0.0
 36
0.0
 17
0.0
 27
1.0
 37
0.0
 76
1
330
1B
  0
MATERIAL
  5
1F
102
{ACAD_REACTORS
330
E
102
}
330
E
100
AcDbMaterial
  1
ByBlock
  2

 70
0
 40
1.0
 71
1
 41
1.0
 91
-1023410177
 42
1.0
 72
1
  3

 73
1
 74
1
 75
1
 44
0.5
 73
0
 45
1.0
 46
1.0
 77
1
  4

 78
1
 79
1
170
1
 48
1.0
171
1
  6

172
1
173
1
174
1
140
1.0
141
1.0
175
1
  7

176
1
177
1
178
1
143
1.0
179
1
  8

270
1
271
1
272
1
145
1.0
146
1.0
273
1
  9

274
1
275
1
276
1
 42
1.0
 72
1
  3

 73
1
 74
1
 75
1
 94
63
  0
MATERIAL
  5
20
102
{ACAD_REACTORS
330
E
102
}
330
E
100
AcDbMaterial
  1
ByLayer
  2

 70
0
 40
1.0
 71
1
 41
1.0
 91
-1023410177
 42
1.0
 72
1
  3

 73
1
 74
1
 75
1
 44
0.5
 73
0
 45
1.0
 46
1.0
 77
1
  4

 78
1
 79
1
170
1
 48
1.0
171
1
  6

172
1
173
1
174
1
140
1.0
141
1.0
175
1
  7

176
1
177
1
178
1
143
1.0
179
1
  8

270
1
271
1
272
1
145
1.0
146
1.0
273
1
  9

274
1
275
1
276
1
 42
1.0
 72
1
  3

 73
1
 74
1
 75
1
 94
63
  0
MATERIAL
  5
21
102
{ACAD_REACTORS
330
E
102
}
330
E
100
AcDbMaterial
  1
Global
  2

 70
0
 40
1.0
 71
1
 41
1.0
 91
-1023410177
 42
1.0
 72
1
  3

 73
1
 74
1
 75
1
 44
0.5
 73
0
 45
1.0
 46
1.0
 77
1
  4

 78
1
 79
1
170
1
 48
1.0
171
1
  6

172
1
173
1
174
1
140
1.0
141
1.0
175
1
  7

176
1
177
1
178
1
143
1.0
179
1
  8

270
1
271
1
272
1
145
1.0
146
1.0
273
1
  9

274
1
275
1
276
1
 42
1.0
 72
1
  3

 73
1
 74
1
 75
1
 94
63
  0
MLINESTYLE
  5
22
102
{ACAD_REACTORS
330
10
102
}
330
10
100
AcDbMlineStyle
  2
Standard
 70
0
  3

 62
256
 51
90.0
 52
90.0
 71
2
 49
0.5
 62
256
  6
BYLAYER
 49
-0.5
 62
256
  6
BYLAYER
  0
MLEADERSTYLE
  5
2C
102
{ACAD_REACTORS
330
F
102
}
330
F
100
AcDbMLeaderStyle
179
2
170
2
171
1
172
0
 90
2
 40
0.0
 41
0.0
173
1
 91
-1056964608
 92
-2
290
1
 42
2.0
291
1
 43
8.0
  3
Standard
 44
4.0
300

342
29
174
1
175
1
176
0
178
1
 93
-1056964608
 45
4.0
292
0
297
0
 46
4.0
 94
-1056964608
 47
1.0
 49
1.0
140
1.0
294
1
141
0.0
177
0
142
1.0
295
0
296
0
143
3.75
271
0
272
9
273
9
  0
DICTIONARY
  5
2D
330
A
100
AcDbDictionary
280
1
281
1
  3
CREATED_BY_EZDXF
350
2E
  3
WRITTEN_BY_EZDXF
350
143
  0
DICTIONARYVAR
  5
2E
330
2D
100
DictionaryVariables
280
0
  1
1.4.4 @ 2026-09-24T07:01:35.119150+00:00
  0
VISUALSTYLE
  5
5A
102
{ACAD_REACTORS
330
16
102
}
330
16
100
AcDbVisualStyle
  2
2dWireframe
 70
4
 90
0
 40
0.6
 62
7
290
0
291
0
  0
VISUALSTYLE
  5
5B
102
{ACAD_REACTORS
330
16
102
}
330
16
100
AcDbVisualStyle
  2
Basic
 70
7
 90
1
 40
0.6
 62
7
290
0
291
1
  0
VISUALSTYLE
  5
5C
102
{ACAD_REACTORS
330
16
102
}
330
16
100
AcDbVisualStyle
  2
Brighten
 70
12
 90
2
 40
0.6
 62
7
290
0
291
1
  0
VISUALSTYLE
  5
5D
102
{ACAD_REACTORS
330
16
102
}
330
16
100
AcDbVisualStyle
  2
ColorChange
 70
16
 90
2
 40
0.6
 62
8
290
0
291
1
  0
VISUALSTYLE
  5
5E
102
{ACAD_REACTORS
330
16
102
}
330
16
100
AcDbVisualStyle
  2
Conceptual
 70
9
 90
3
 40
0.6
 62
7
290
0
291
0
  0
VISUALSTYLE
  5
5F
102
{ACAD_REACTORS
330
16
102
}
330
16
100
AcDbVisualStyle
  2
Dim
 70
11
 90
2
 40
0.6
 62
7
290
0
291
1
  0
VISUALSTYLE
  5
60
102
{ACAD_REACTORS
330
16
102
}
330
16
100
AcDbVisualStyle
  2
EdgeColorOff
 70
22
 90
2
 40
0.6
 62
7
290
0
291
1
  0
VISUALSTYLE
  5
61
102
{ACAD_REACTORS
330
16
102
}
330
16
100
AcDbVisualStyle
  2
Facepattern
 70
15
 90
2
 40
0.6
 62
7
290
0
291
1
  0
VISUALSTYLE
  5
62
102
{ACAD_REACTORS
330
16
102
}
330
16
100
AcDbVisualStyle
  2
Flat
 70
0
 90
2
 40
0.6
 62
7
290
0
291
1
  0
VISUALSTYLE
  5
63
102
{ACAD_REACTORS
330
16
102
}
330
16
100
AcDbVisualStyle
  2
FlatWithEdges
 70
1
 90
2
 40
0.6
 62
7
290
0
291
1
  0
VISUALSTYLE
  5
64
102
{ACAD_REACTORS
330
16
102
}
330
16
100
AcDbVisualStyle
  2
Gouraud
 70
2
 90
2
 40
0.6
 62
7
290
0
291
1
  0
VISUALSTYLE
  5
65
102
{ACAD_REACTORS
330
16
102
}
330
16
100
AcDbVisualStyle
  2
GouraudWithEdges
 70
3
 90
2
 40
0.6
 62
7
290
0
291
1
  0
VISUALSTYLE
  5
66
102
{ACAD_REACTORS
330
16
102
}
330
16
100
AcDbVisualStyle
  2
Hidden
 70
6
 90
1
 40
0.6
 62
7
290
0
291
0
  0
VISUALSTYLE
  5
67
102
{ACAD_REACTORS
330
16
102
}
330
16
100
AcDbVisualStyle
  2
JitterOff
 70
20
 90
2
 40
0.6
 62
7
290
0
291
1
  0
VISUALSTYLE
  5
68
102
{ACAD_REACTORS
330
16
102
}
330
16
100
AcDbVisualStyle
  2
Linepattern
 70
14
 90
2
 40
0.6
 62
7
290
0
291
1
  0
VISUALSTYLE
  5
69
102
{ACAD_REACTORS
330
16
102
}
330
16
100
AcDbVisualStyle
  2
Modeling
 70
10
 90
2
 40
0.6
 62
7
290
0
291
0
  0
VISUALSTYLE
  5
6A
102
{ACAD_REACTORS
330
16
102
}
330
16
100
AcDbVisualStyle
  2
OverhangOff
 70
21
 90
2
 40
0.6
 62
7
290
0
291
1
  0
VISUALSTYLE
  5
6B
102
{ACAD_REACTORS
330
16
102
}
330
16
100
AcDbVisualStyle
  2
Realistic
 70
8
 90
2
 40
0.6
 62
7
290
0
291
0
  0
VISUALSTYLE
  5
6C
102
{ACAD_REACTORS
330
16
102
}
330
16
100
AcDbVisualStyle
  2
Shaded
 70
27
 90
2
 40
0.6
 62
7
290
0
291
0
  0
VISUALSTYLE
  5
6D
102
{ACAD_REACTORS
330
16
102
}
330
16
100
AcDbVisualStyle
  2
Shaded with edges
 70
26
 90
2
 40
0.6
 62
7
290
0
291
0
  0
VISUALSTYLE
  5
6E
102
{ACAD_REACTORS
330
16
102
}
330
16
100
AcDbVisualStyle
  2
Shades of Gray
 70
23
 90
2
 40
0.6
 62
7
290
0
291
0
  0
VISUALSTYLE
  5
6F
102
{ACAD_REACTORS
330
16
102
}
330
16
100
AcDbVisualStyle
  2
Sketchy
 70
24
 90
1
 40
0.6
 62
7
290
0
291
0
  0
VISUALSTYLE
  5
70
102
{ACAD_REACTORS
330
16
102
}
330
16
100
AcDbVisualStyle
  2
Thicken
 70
13
 90
2
 40
0.6
 62
7
290
0
291
1
  0
VISUALSTYLE
  5
71
102
{ACAD_REACTORS
330
16
102
}
330
16
100
AcDbVisualStyle
  2
Wireframe
 70
5
 90
0
 40
0.6
 62
7
290
0
291
0
  0
VISUALSTYLE
  5
72
102
{ACAD_REACTORS
330
16
102
}
330
16
100
AcDbVisualStyle
  2
X-Ray
 70
25
 90
2
 40
0.5
 62
7
290
0
291
0
  0
DICTIONARYVAR
  5
143
330
2D
100
DictionaryVariables
280
0
  1
1.4.4 @ 2026-09-24T07:01:35.138973+00:00
  0
ENDSEC
  0
EOF
