  0
SECTION
  2
HEADER
  9
$ACADVER
  1
AC1024
  9
$ACADMAINTVER
 70
6
  9
$DWGCODEPAGE
  3
ANSI_1252
  9
$LASTSAVEDBY
  1
ezdxf
  9
$INSBASE
 10
0.0
 20
0.0
 30
0.0
  9
$EXTMIN
 10
1e+20
 20
1e+20
 30
1e+20
  9
$EXTMAX
 10
-1e+20
 20
-1e+20
 30
-1e+20
  9
$LIMMIN
 10
0.0
 20
0.0
  9
$LIMMAX
 10
420.0
 20
297.0
  9
$ORTHOMODE
 70
0
  9
$REGENMODE
 70
1
  9
$FILLMODE
 70
1
  9
$QTEXTMODE
 70
0
  9
$MIRRTEXT
 70
1
  9
$LTSCALE
 40
1.0
  9
$ATTMODE
 70
1
  9
$TEXTSIZE
 40
2.5
  9
$TRACEWID
 40
1.0
  9
$TEXTSTYLE
  7
OpenSans
  9
$CLAYER
  8
0
  9
$CELTYPE
  6
ByLayer
  9
$CECOLOR
 62
256
  9
$CELTSCALE
 40
1.0
  9
$DISPSILH
 70
0
  9
$DIMSCALE
 40
1.0
  9
$DIMASZ
 40
0.175
  9
$DIMEXO
 40
0.125
  9
$DIMDLI
 40
3.75
  9
$DIMRND
 40
0.0
  9
$DIMDLE
 40
0.0
  9
$DIMEXE
 40
0.375
  9
$DIMTP
 40
0.0
  9
$DIMTM
 40
0.0
  9
$DIMTXT
 40
0.25
  9
$DIMCEN
 40
2.5
  9
$DIMTSZ
 40
0.0
  9
$DIMTOL
 70
0
  9
$DIMLIM
 70
0
  9
$DIMTIH
 70
0
  9
$DIMTOH
 70
0
  9
$DIMSE1
 70
0
  9
$DIMSE2
 70
0
  9
$DIMTAD
 70
1
  9
$DIMZIN
 70
12
  9
$DIMBLK
  1
ARCHTICK
  9
$DIMASO
 70
1
  9
$DIMSHO
 70
1
  9
$DIMPOST
  1

  9
$DIMAPOST
  1

  9
$DIMALT
 70
0
  9
$DIMALTD
 70
3
  9
$DIMALTF
 40
0.03937007874
  9
$DIMLFAC
 40
100.0
  9
$DIMTOFL
 70
1
  9
$DIMTVP
 40
0.0
  9
$DIMTIX
 70
0
  9
$DIMSOXD
 70
0
  9
$DIMSAH
 70
0
  9
$DIMBLK1
  1

  9
$DIMBLK2
  1

  9
$DIMSTYLE
  2
EZDXF
  9
$DIMCLRD
 70
0
  9
$DIMCLRE
 70
0
  9
$DIMCLRT
 70
0
  9
$DIMTFAC
 40
0.5
  9
$DIMGAP
 40
0.1
  9
$DIMJUST
 70
0
  9
$DIMSD1
 70
0
  9
$DIMSD2
 70
0
  9
$DIMTOLJ
 70
0
  9
$DIMTZIN
 70
8
  9
$DIMALTZ
 70
0
  9
$DIMALTTZ
 70
0
  9
$DIMUPT
 70
1
  9
$DIMDEC
 70
2
  9
$DIMTDEC
 70
2
  9
$DIMALTU
 70
2
  9
$DIMALTTD
 70
3
  9
$DIMTXSTY
  7
OpenSansCondensed-Light
  9
$DIMAUNIT
 70
0
  9
$DIMADEC
 70
2
  9
$DIMALTRND
 40
0.0
  9
$DIMAZIN
 70
3
  9
$DIMDSEP
 70
46
  9
$DIMATFIT
 70
3
  9
$DIMFRAC
 70
0
  9
$DIMLDRBLK
  1

  9
$DIMLUNIT
 70
2
  9
$DIMLWD
 70
-2
  9
$DIMLWE
 70
-2
  9
$DIMTMOVE
 70
2
  9
$DIMFXL
 40
1.0
  9
$DIMFXLON
 70
0
  9
$DIMJOGANG
 40
0.785398163397
  9
$DIMTFILL
 70
0
  9
$DIMTFILLCLR
 70
0
  9
$DIMARCSYM
 70
0
  9
$DIMLTYPE
  6

  9
$DIMLTEX1
  6

  9
$DIMLTEX2
  6

  9
$DIMTXTDIRECTION
 70
0
  9
$LUNITS
 70
2
  9
$LUPREC
 70
4
  9
$SKETCHINC
 40
1.0
  9
$FILLETRAD
 40
10.0
  9
$AUNITS
 70
0
  9
$AUPREC
 70
2
  9
$MENU
  1
.
  9
$ELEVATION
 40
0.0
  9
$PELEVATION
 40
0.0
  9
$THICKNESS
 40
0.0
  9
$LIMCHECK
 70
0
  9
$CHAMFERA
 40
0.0
  9
$CHAMFERB
 40
0.0
  9
$CHAMFERC
 40
0.0
  9
$CHAMFERD
 40
0.0
  9
$SKPOLY
 70
0
  9
$TDCREATE
 40
2461308.125208333
  9
$TDUCREATE
 40
2458532.153996898
  9
$TDUPDATE
 40
2461308.125208333
  9
$TDUUPDATE
 40
2458532.1544311
  9
$TDINDWG
 40
0.0
  9
$TDUSRTIMER
 40
0.0
  9
$USRTIMER
 70
1
  9
$ANGBASE
 50
0.0
  9
$ANGDIR
 70
0
  9
$PDMODE
 70
0
  9
$PDSIZE
 40
0.0
  9
$PLINEWID
 40
0.0
  9
$SPLFRAME
 70
0
  9
$SPLINETYPE
 70
6
  9
$SPLINESEGS
 70
8
  9
$HANDSEED
  5
14E
  9
$SURFTAB1
 70
6
  9
$SURFTAB2
 70
6
  9
$SURFTYPE
 70
6
  9
$SURFU
 70
6
  9
$SURFV
 70
6
  9
$UCSBASE
  2

  9
$UCSNAME
  2

  9
$UCSORG
 10
0.0
 20
0.0
 30
0.0
  9
$UCSXDIR
 10
1.0
 20
0.0
 30
0.0
  9
$UCSYDIR
 10
0.0
 20
1.0
 30
0.0
  9
$UCSORTHOREF
  2

  9
$UCSORTHOVIEW
 70
0
  9
$UCSORGTOP
 10
0.0
 20
0.0
 30
0.0
  9
$UCSORGBOTTOM
 10
0.0
 20
0.0
 30
0.0
  9
$UCSORGLEFT
 10
0.0
 20
0.0
 30
0.0
  9
$UCSORGRIGHT
 10
0.0
 20
0.0
 30
0.0
  9
$UCSORGFRONT
 10
0.0
 20
0.0
 30
0.0
  9
$UCSORGBACK
 10
0.0
 20
0.0
 30
0.0
  9
$PUCSBASE
  2

  9
$PUCSNAME
  2

  9
$PUCSORG
 10
0.0
 20
0.0
 30
0.0
  9
$PUCSXDIR
 10
1.0
 20
0.0
 30
0.0
  9
$PUCSYDIR
 10
0.0
 20
1.0
 30
0.0
  9
$PUCSORTHOREF
  2

  9
$PUCSORTHOVIEW
 70
0
  9
$PUCSORGTOP
 10
0.0
 20
0.0
 30
0.0
  9
$PUCSORGBOTTOM
 10
0.0
 20
0.0
 30
0.0
  9
$PUCSORGLEFT
 10
0.0
 20
0.0
 30
0.0
  9
$PUCSORGRIGHT
 10
0.0
 20
0.0
 30
0.0
  9
$PUCSORGFRONT
 10
0.0
 20
0.0
 30
0.0
  9
$PUCSORGBACK
 10
0.0
 20
0.0
 30
0.0
  9
$USERI1
 70
0
  9
$USERI2
 70
0
  9
$USERI3
 70
0
  9
$USERI4
 70
0
  9
$USERI5
 70
0
  9
$USERR1
 40
0.0
  9
$USERR2
 40
0.0
  9
$USERR3
 40
0.0
  9
$USERR4
 40
0.0
  9
$USERR5
 40
0.0
  9
$WORLDVIEW
 70
1
  9
$SHADEDGE
 70
3
  9
$SHADEDIF
 70
70
  9
$TILEMODE
 70
1
  9
$MAXACTVP
 70
64
  9
$PINSBASE
 10
0.0
 20
0.0
 30
0.0
  9
$PLIMCHECK
 70
0
  9
$PEXTMIN
 10
1e+20
 20
1e+20
 30
1e+20
  9
$PEXTMAX
 10
-1e+20
 20
-1e+20
 30
-1e+20
  9
$PLIMMIN
 10
0.0
 20
0.0
  9
$PLIMMAX
 10
420.0
 20
297.0
  9
$UNITMODE
 70
0
  9
$VISRETAIN
 70
1
  9
$PLINEGEN
 70
0
  9
$PSLTSCALE
 70
1
  9
$TREEDEPTH
 70
3020
  9
$CMLSTYLE
  2
Standard
  9
$CMLJUST
 70
0
  9
$CMLSCALE
 40
20.0
  9
$PROXYGRAPHICS
 70
1
  9
$MEASUREMENT
 70
0
  9
$CELWEIGHT
370
-1
  9
$ENDCAPS
280
0
  9
$JOINSTYLE
280
0
  9
$LWDISPLAY
290
0
  9
$INSUNITS
 70
2
  9
$HYPERLINKBASE
  1

  9
$STYLESHEET
  1

  9
$XEDIT
290
1
  9
$CEPSNTYPE
380
0
  9
$PSTYLEMODE
290
1
  9
$FINGERPRINTGUID
  2
{9382702B-E92D-4FA7-9953-D4AB8844ED59}
  9
$VERSIONGUID
  2
{44CF94F3-0CF1-4E9B-A694-D393E0B67FEF}
  9
$EXTNAMES
290
1
  9
$PSVPSCALE
 40
0.0
  9
$OLESTARTUP
290
0
  9
$SORTENTS
280
127
  9
$INDEXCTL
280
0
  9
$HIDETEXT
280
1
  9
$XCLIPFRAME
280
1
  9
$HALOGAP
280
0
  9
$OBSCOLOR
 70
257
  9
$OBSLTYPE
280
0
  9
$INTERSECTIONDISPLAY
280
0
  9
$INTERSECTIONCOLOR
 70
257
  9
$DIMASSOC
280
2
  9
$PROJECTNAME
  1

  9
$CAMERADISPLAY
290
0
  9
$LENSLENGTH
 40
50.0
  9
$CAMERAHEIGHT
 40
0.0
  9
$STEPSPERSEC
 40
24.0
  9
$STEPSIZE
 40
100.0
  9
$3DDWFPREC
 40
2.0
  9
$PSOLWIDTH
 40
0.005
  9
$PSOLHEIGHT
 40
0.08
  9
$LOFTANG1
 40
1.570796326795
  9
$LOFTANG2
 40
1.570796326795
  9
$LOFTMAG1
 40
0.0
  9
$LOFTMAG2
 40
0.0
  9
$LOFTPARAM
 70
7
  9
$LOFTNORMALS
280
1
  9
$LATITUDE
 40
37.795
  9
$LONGITUDE
 40
-122.394
  9
$NORTHDIRECTION
 40
0.0
  9
$TIMEZONE
 70
-8000
  9
$LIGHTGLYPHDISPLAY
280
1
  9
$TILEMODELIGHTSYNCH
280
1
  9
$CMATERIAL
347
20
  9
$SOLIDHIST
280
0
  9
$SHOWHIST
280
1
  9
$DWFFRAME
280
2
  9
$DGNFRAME
280
2
  9
$REALWORLDSCALE
290
1
  9
$INTERFERECOLOR
 62
256
  9
$CSHADOW
280
0
  9
$SHADOWPLANELOCATION
 40
0.0
  0
ENDSEC
  0
SECTION
  2
CLASSES
  0
CLASS
  1
ACDBDICTIONARYWDFLT
  2
AcDbDictionaryWithDefault
  3
ObjectDBX Classes
 90
0
 91
0
280
0
281
0
  0
CLASS
  1
SUN
  2
AcDbSun
  3
SCENEOE
 90
1153
 91
0
280
0
281
0
  0
CLASS
  1
VISUALSTYLE
  2
AcDbVisualStyle
  3
ObjectDBX Classes
 90
4095
 91
0
280
0
281
0
  0
CLASS
  1
MATERIAL
  2
AcDbMaterial
  3
ObjectDBX Classes
 90
1153
 91
0
280
0
281
0
  0
CLASS
  1
SCALE
  2
AcDbScale
  3
ObjectDBX Classes
 90
1153
 91
0
280
0
281
0
  0
CLASS
  1
TABLESTYLE
  2
AcDbTableStyle
  3
ObjectDBX Classes
 90
4095
 91
0
280
0
281
0
  0
CLASS
  1
MLEADERSTYLE
  2
AcDbMLeaderStyle
  3
ACDB_MLEADERSTYLE_CLASS
 90
4095
 91
0
280
0
281
0
  0
CLASS
  1
DICTIONARYVAR
  2
AcDbDictionaryVar
  3
ObjectDBX Classes
 90
0
 91
0
280
0
281
0
  0
CLASS
  1
CELLSTYLEMAP
  2
AcDbCellStyleMap
  3
ObjectDBX Classes
 90
1152
 91
0
280
0
281
0
  0
CLASS
  1
MENTALRAYRENDERSETTINGS
  2
AcDbMentalRayRenderSettings
  3
SCENEOE
 90
1024
 91
0
280
0
281
0
  0
CLASS
  1
ACDBDETAILVIEWSTYLE
  2
AcDbDetailViewStyle
  3
ObjectDBX Classes
 90
1025
 91
0
280
0
281
0
  0
CLASS
  1
ACDBSECTIONVIEWSTYLE
  2
AcDbSectionViewStyle
  3
ObjectDBX Classes
 90
1025
 91
0
280
0
281
0
  0
CLASS
  1
RASTERVARIABLES
  2
AcDbRasterVariables
  3
ISM
 90
0
 91
0
280
0
281
0
  0
CLASS
  1
LAYOUT
  2
AcDbLayout
  3
ObjectDBX Classes
 90
0
 91
0
280
0
281
0
  0
CLASS
  1
ACDBPLACEHOLDER
  2
AcDbPlaceHolder
  3
ObjectDBX Classes
 90
0
 91
0
280
0
281
0
  0
ENDSEC
  0
SECTION
  2
TABLES
  0
TABLE
  2
VPORT
  5
8
330
0
100
AcDbSymbolTable
 70
1
  0
VPORT
  5
23
330
8
100
AcDbSymbolTableRecord
100
AcDbViewportTableRecord
  2
*Active
 70
0
 10
0.0
 20
0.0
 11
1.0
 21
1.0
 12
0.0
 22
0.0
 13
0.0
 23
0.0
 14
0.5
 24
0.5
 15
0.5
 25
0.5
 16
0.0
 26
0.0
 36
1.0
 17
0.0
 27
0.0
 37
0.0
 40
1000.0
 41
1.34
 42
50.0
 43
0.0
 44
0.0
 50
0.0
 51
0.0
 71
0
 72
1000
 73
1
 74
3
 75
0
 76
0
 77
0
 78
0
281
0
 65
0
146
0.0
  0
ENDTAB
  0
TABLE
  2
LTYPE
  5
2
330
0
100
AcDbSymbolTable
 70
21
  0
LTYPE
  5
24
330
2
100
AcDbSymbolTableRecord
100
AcDbLinetypeTableRecord
  2
ByBlock
 70
0
  3

 72
65
 73
0
 40
0.0
  0
LTYPE
  5
25
330
2
100
AcDbSymbolTableRecord
100
AcDbLinetypeTableRecord
  2
ByLayer
 70
0
  3

 72
65
 73
0
 40
0.0
  0
LTYPE
  5
26
330
2
100
AcDbSymbolTableRecord
100
AcDbLinetypeTableRecord
  2
Continuous
 70
0
  3

 72
65
 73
0
 40
0.0
  0
LTYPE
  5
2F
330
2
100
AcDbSymbolTableRecord
100
AcDbLinetypeTableRecord
  2
CENTER
 70
0
  3
Center ____ _ ____ _ ____ _ ____ _ ____ _ ____
 72
65
 73
4
 40
5.08
 49
3.175
 74
0
 49
-0.635
 74
0
 49
0.635
 74
0
 49
-0.635
 74
0
  0
LTYPE
  5
30
330
2
100
AcDbSymbolTableRecord
100
AcDbLinetypeTableRecord
  2
CENTERX2
 70
0
  3
Center (2x) ________  __  ________  __  ________
 72
65
 73
4
 40
8.89
 49
6.35
 74
0
 49
-0.635
 74
0
 49
1.27
 74
0
 49
-0.635
 74
0
  0
LTYPE
  5
31
330
2
100
AcDbSymbolTableRecord
100
AcDbLinetypeTableRecord
  2
CENTER2
 70
0
  3
Center (.5x) ____ _ ____ _ ____ _ ____ _ ____
 72
65
 73
4
 40
2.54
 49
1.587
 74
0
 49
-0.318
 74
0
 49
0.318
 74
0
 49
-0.318
 74
0
  0
LTYPE
  5
32
330
2
100
AcDbSymbolTableRecord
100
AcDbLinetypeTableRecord
  2
DASHED
 70
0
  3
Dashed __ __ __ __ __ __ __ __ __ __ __ __ __ _
 72
65
 73
2
 40
1.524
 49
1.27
 74
0
 49
-0.254
 74
0
  0
LTYPE
  5
33
330
2
100
AcDbSymbolTableRecord
100
AcDbLinetypeTableRecord
  2
DASHEDX2
 70
0
  3
Dashed (2x) ____  ____  ____  ____  ____  ____
 72
65
 73
2
 40
3.048
 49
2.54
 74
0
 49
-0.508
 74
0
  0
LTYPE
  5
34
330
2
100
AcDbSymbolTableRecord
100
AcDbLinetypeTableRecord
  2
DASHED2
 70
0
  3
Dashed (.5x) _ _ _ _ _ _ _ _ _ _ _ _ _ _
 72
65
 73
2
 40
0.762
 49
0.635
 74
0
 49
-0.127
 74
0
  0
LTYPE
  5
35
330
2
100
AcDbSymbolTableRecord
100
AcDbLinetypeTableRecord
  2
PHANTOM
 70
0
  3
Phantom ______  __  __  ______  __  __  ______
 72
65
 73
6
 40
6.35
 49
3.175
 74
0
 49
-0.635
 74
0
 49
0.635
 74
0
 49
-0.635
 74
0
 49
0.635
 74
0
 49
-0.635
 74
0
  0
LTYPE
  5
36
330
2
100
AcDbSymbolTableRecord
100
AcDbLinetypeTableRecord
  2
PHANTOMX2
 70
0
  3
Phantom (2x)____________    ____    ____    ____________
 72
65
 73
6
 40
10.795
 49
6.35
 74
0
 49
-0.635
 74
0
 49
1.27
 74
0
 49
-0.635
 74
0
 49
1.27
 74
0
 49
-0.635
 74
0
  0
LTYPE
  5
37
330
2
100
AcDbSymbolTableRecord
100
AcDbLinetypeTableRecord
  2
PHANTOM2
 70
0
  3
Phantom (.5x) ___ _ _ ___ _ _ ___ _ _ ___ _ _ ___
 72
65
 73
6
 40
3.175
 49
1.587
 74
0
 49
-0.318
 74
0
 49
0.318
 74
0
 49
-0.318
 74
0
 49
0.318
 74
0
 49
-0.318
 74
0
  0
LTYPE
  5
38
330
2
100
AcDbSymbolTableRecord
100
AcDbLinetypeTableRecord
  2
DASHDOT
 70
0
  3
Dash dot __ . __ . __ . __ . __ . __ . __ . __
 72
65
 73
4
 40
3.556
 49
2.54
 74
0
 49
-0.508
 74
0
 49
0.0
 74
0
 49
-0.508
 74
0
  0
LTYPE
  5
39
330
2
100
AcDbSymbolTableRecord
100
AcDbLinetypeTableRecord
  2
DASHDOTX2
 70
0
  3
Dash dot (2x) ____  .  ____  .  ____  .  ____
 72
65
 73
4
 40
6.096
 49
5.08
 74
0
 49
-0.508
 74
0
 49
0.0
 74
0
 49
-0.508
 74
0
  0
LTYPE
  5
3A
330
2
100
AcDbSymbolTableRecord
100
AcDbLinetypeTableRecord
  2
DASHDOT2
 70
0
  3
Dash dot (.5x) _ . _ . _ . _ . _ . _ . _ . _
 72
65
 73
4
 40
1.778
 49
1.27
 74
0
 49
-0.254
 74
0
 49
0.0
 74
0
 49
-0.254
 74
0
  0
LTYPE
  5
3B
330
2
100
AcDbSymbolTableRecord
100
AcDbLinetypeTableRecord
  2
DOT
 70
0
  3
Dot .  .  .  .  .  .  .  .  .  .  .  .  .  .  .  .
 72
65
 73
2
 40
0.508
 49
0.0
 74
0
 49
-0.508
 74
0
  0
LTYPE
  5
3C
330
2
100
AcDbSymbolTableRecord
100
AcDbLinetypeTableRecord
  2
DOTX2
 70
0
  3
Dot (2x) .    .    .    .    .    .    .    . 
 72
65
 73
2
 40
1.016
 49
0.0
 74
0
 49
-1.016
 74
0
  0
LTYPE
  5
3D
330
2
100
AcDbSymbolTableRecord
100
AcDbLinetypeTableRecord
  2
DOT2
 70
0
  3
Dot (.5) . . . . . . . . . . . . . . . . . . . 
 72
65
 73
2
 40
0.254
 49
0.0
 74
0
 49
-0.254
 74
0
  0
LTYPE
  5
3E
330
2
100
AcDbSymbolTableRecord
100
AcDbLinetypeTableRecord
  2
DIVIDE
 70
0
  3
Divide __ . . __ . . __ . . __ . . __ . . __
 72
65
 73
6
 40
4.064
 49
2.54
 74
0
 49
-0.508
 74
0
 49
0.0
 74
0
 49
-0.508
 74
0
 49
0.0
 74
0
 49
-0.508
 74
0
  0
LTYPE
  5
3F
330
2
100
AcDbSymbolTableRecord
100
AcDbLinetypeTableRecord
  2
DIVIDEX2
 70
0
  3
Divide (2x) ____  . .  ____  . .  ____  . .  ____
 72
65
 73
6
 40
6.604
 49
5.08
 74
0
 49
-0.508
 74
0
 49
0.0
 74
0
 49
-0.508
 74
0
 49
0.0
 74
0
 49
-0.508
 74
0
  0
LTYPE
  5
40
330
2
100
AcDbSymbolTableRecord
100
AcDbLinetypeTableRecord
  2
DIVIDE2
 70
0
  3
Divide(.5x) _ . _ . _ . _ . _ . _ . _ . _
 72
65
 73
6
 40
2.032
 49
1.27
 74
0
 49
-0.254
 74
0
 49
0.0
 74
0
 49
-0.254
 74
0
 49
0.0
 74
0
 49
-0.254
 74
0
  0
ENDTAB
  0
TABLE
  2
LAYER
  5
1
330
0
100
AcDbSymbolTable
 70
18
  0
LAYER
  5
27
330
1
100
AcDbSymbolTableRecord
100
AcDbLayerTableRecord
  2
0
 70
0
 62
7
  6
Continuous
370
-3
390
13
347
21
  0
LAYER
  5
28
330
1
100
AcDbSymbolTableRecord
100
AcDbLayerTableRecord
  2
Defpoints
 70
0
 62
7
  6
Continuous
290
0
370
-3
390
13
347
21
  0
LAYER
  5
8B
330
1
100
AcDbSymbolTableRecord
100
AcDbLayerTableRecord
  2
PLAT-LINE
 70
0
 62
7
  6
CONTINUOUS
370
-3
390
13
347
21
  0
LAYER
  5
8C
330
1
100
AcDbSymbolTableRecord
100
AcDbLayerTableRecord
  2
PLAT-LINE-DASH
 70
0
 62
8
  6
DASHED
370
-3
390
13
347
21
  0
LAYER
  5
8D
330
1
100
AcDbSymbolTableRecord
100
AcDbLayerTableRecord
  2
PLAT-CURVE
 70
0
 62
4
  6
CONTINUOUS
370
-3
390
13
347
21
  0
LAYER
  5
8E
330
1
100
AcDbSymbolTableRecord
100
AcDbLayerTableRecord
  2
PLAT-TEXT-BRG
 70
0
 62
3
  6
CONTINUOUS
370
-3
390
13
347
21
  0
LAYER
  5
8F
330
1
100
AcDbSymbolTableRecord
100
AcDbLayerTableRecord
  2
PLAT-TEXT-DIST
 70
0
 62
2
  6
CONTINUOUS
370
-3
390
13
347
21
  0
LAYER
  5
90
330
1
100
AcDbSymbolTableRecord
100
AcDbLayerTableRecord
  2
PLAT-TEXT-CURVE
 70
0
 62
6
  6
CONTINUOUS
370
-3
390
13
347
21
  0
LAYER
  5
91
330
1
100
AcDbSymbolTableRecord
100
AcDbLayerTableRecord
  2
PLAT-TEXT-LOTNO
 70
0
 62
5
  6
CONTINUOUS
370
-3
390
13
347
21
  0
LAYER
  5
92
330
1
100
AcDbSymbolTableRecord
100
AcDbLayerTableRecord
  2
PLAT-TEXT-AREA
 70
0
 62
5
  6
CONTINUOUS
370
-3
390
13
347
21
  0
LAYER
  5
93
330
1
100
AcDbSymbolTableRecord
100
AcDbLayerTableRecord
  2
PLAT-TEXT-MISC
 70
0
 62
9
  6
CONTINUOUS
370
-3
390
13
347
21
  0
LAYER
  5
94
330
1
100
AcDbSymbolTableRecord
100
AcDbLayerTableRecord
  2
PLAT-TEXT-UNASSOC
 70
0
 62
30
  6
CONTINUOUS
370
-3
390
13
347
21
  0
LAYER
  5
95
330
1
100
AcDbSymbolTableRecord
100
AcDbLayerTableRecord
  2
PLAT-TABLE-CURVE
 70
0
 62
6
  6
CONTINUOUS
370
-3
390
13
347
21
  0
LAYER
  5
96
330
1
100
AcDbSymbolTableRecord
100
AcDbLayerTableRecord
  2
PLAT-TABLE
 70
0
 62
6
  6
CONTINUOUS
370
-3
390
13
347
21
  0
LAYER
  5
97
330
1
100
AcDbSymbolTableRecord
100
AcDbLayerTableRecord
  2
PLAT-NOTES
 70
0
 62
7
  6
CONTINUOUS
370
-3
390
13
347
21
  0
LAYER
  5
98
330
1
100
AcDbSymbolTableRecord
100
AcDbLayerTableRecord
  2
PLAT-QA
 70
0
 62
1
  6
CONTINUOUS
370
-3
390
13
347
21
  0
LAYER
  5
99
330
1
100
AcDbSymbolTableRecord
100
AcDbLayerTableRecord
  2
PLAT-MON
 70
0
 62
1
  6
CONTINUOUS
370
-3
390
13
347
21
  0
LAYER
  5
9A
330
1
100
AcDbSymbolTableRecord
100
AcDbLayerTableRecord
  2
PLAT-TEXT-LOWCONF
 70
1
 62
8
  6
CONTINUOUS
370
-3
390
13
347
21
  0
ENDTAB
  0
TABLE
  2
STYLE
  5
5
330
0
100
AcDbSymbolTable
 70
27
  0
STYLE
  5
29
330
5
100
AcDbSymbolTableRecord
100
AcDbTextStyleTableRecord
  2
Standard
 70
0
 40
0.0
 41
1.0
 50
0.0
 71
0
 42
2.5
  3
txt
  4

  0
STYLE
  5
41
330
5
100
AcDbSymbolTableRecord
100
AcDbTextStyleTableRecord
  2
OpenSans-Light
 70
0
 40
0.0
 41
1.0
 50
0.0
 71
0
 42
2.5
  3
OpenSans-Light.ttf
  4

  0
STYLE
  5
42
330
5
100
AcDbSymbolTableRecord
100
AcDbTextStyleTableRecord
  2
OpenSans-Light-Italic
 70
0
 40
0.0
 41
1.0
 50
0.0
 71
0
 42
2.5
  3
OpenSans-LightItalic.ttf
  4

  0
STYLE
  5
43
330
5
100
AcDbSymbolTableRecord
100
AcDbTextStyleTableRecord
  2
OpenSans
 70
0
 40
0.0
 41
1.0
 50
0.0
 71
0
 42
2.5
  3
OpenSans-Regular.ttf
  4

  0
STYLE
  5
44
330
5
100
AcDbSymbolTableRecord
100
AcDbTextStyleTableRecord
  2
OpenSans-Italic
 70
0
 40
0.0
 41
1.0
 50
0.0
 71
0
 42
2.5
  3
OpenSans-Italic.ttf
  4

  0
STYLE
  5
45
330
5
100
AcDbSymbolTableRecord
100
AcDbTextStyleTableRecord
  2
OpenSans-SemiBold
 70
0
 40
0.0
 41
1.0
 50
0.0
 71
0
 42
2.5
  3
OpenSans-SemiBold.ttf
  4

  0
STYLE
  5
46
330
5
100
AcDbSymbolTableRecord
100
AcDbTextStyleTableRecord
  2
OpenSans-SemiBoldItalic
 70
0
 40
0.0
 41
1.0
 50
0.0
 71
0
 42
2.5
  3
OpenSans-SemiBoldItalic.ttf
  4

  0
STYLE
  5
47
330
5
100
AcDbSymbolTableRecord
100
AcDbTextStyleTableRecord
  2
OpenSans-Bold
 70
0
 40
0.0
 41
1.0
 50
0.0
 71
0
 42
2.5
  3
OpenSans-Bold.ttf
  4

  0
STYLE
  5
48
330
5
100
AcDbSymbolTableRecord
100
AcDbTextStyleTableRecord
  2
OpenSans-BoldItalic
 70
0
 40
0.0
 41
1.0
 50
0.0
 71
0
 42
2.5
  3
OpenSans-BoldItalic.ttf
  4

  0
STYLE
  5
49
330
5
100
AcDbSymbolTableRecord
100
AcDbTextStyleTableRecord
  2
OpenSans-ExtraBold
 70
0
 40
0.0
 41
1.0
 50
0.0
 71
0
 42
2.5
  3
OpenSans-ExtraBold.ttf
  4

  0
STYLE
  5
4A
330
5
100
AcDbSymbolTableRecord
100
AcDbTextStyleTableRecord
  2
OpenSans-ExtraBoldItalic
 70
0
 40
0.0
 41
1.0
 50
0.0
 71
0
 42
2.5
  3
OpenSans-ExtraBoldItalic.ttf
  4

  0
STYLE
  5
4B
330
5
100
AcDbSymbolTableRecord
100
AcDbTextStyleTableRecord
  2
OpenSansCondensed-Bold
 70
0
 40
0.0
 41
1.0
 50
0.0
 71
0
 42
2.5
  3
OpenSansCondensed-Bold.ttf
  4

  0
STYLE
  5
4C
330
5
100
AcDbSymbolTableRecord
100
AcDbTextStyleTableRecord
  2
OpenSansCondensed-Light
 70
0
 40
0.0
 41
1.0
 50
0.0
 71
0
 42
2.5
  3
OpenSansCondensed-Light.ttf
  4

  0
STYLE
  5
4D
330
5
100
AcDbSymbolTableRecord
100
AcDbTextStyleTableRecord
  2
OpenSansCondensed-Italic
 70
0
 40
0.0
 41
1.0
 50
0.0
 71
0
 42
2.5
  3
OpenSansCondensed-LightItalic.ttf
  4

  0
STYLE
  5
4E
330
5
100
AcDbSymbolTableRecord
100
AcDbTextStyleTableRecord
  2
LiberationSans
 70
0
 40
0.0
 41
1.0
 50
0.0
 71
0
 42
2.5
  3
LiberationSans-Regular.ttf
  4

  0
STYLE
  5
4F
330
5
100
AcDbSymbolTableRecord
100
AcDbTextStyleTableRecord
  2
LiberationSans-Bold
 70
0
 40
0.0
 41
1.0
 50
0.0
 71
0
 42
2.5
  3
LiberationSans-Bold.ttf
  4

  0
STYLE
  5
50
330
5
100
AcDbSymbolTableRecord
100
AcDbTextStyleTableRecord
  2
LiberationSans-BoldItalic
 70
0
 40
0.0
 41
1.0
 50
0.0
 71
0
 42
2.5
  3
LiberationSans-BoldItalic.ttf
  4

  0
STYLE
  5
51
330
5
100
AcDbSymbolTableRecord
100
AcDbTextStyleTableRecord
  2
LiberationSans-Italic
 70
0
 40
0.0
 41
1.0
 50
0.0
 71
0
 42
2.5
  3
LiberationSans-Italic.ttf
  4

  0
STYLE
  5
52
330
5
100
AcDbSymbolTableRecord
100
AcDbTextStyleTableRecord
  2
LiberationSerif
 70
0
 40
0.0
 41
1.0
 50
0.0
 71
0
 42
2.5
  3
LiberationSerif-Regular.ttf
  4

  0
STYLE
  5
53
330
5
100
AcDbSymbolTableRecord
100
AcDbTextStyleTableRecord
  2
LiberationSerif-Bold
 70
0
 40
0.0
 41
1.0
 50
0.0
 71
0
 42
2.5
  3
LiberationSerif-Bold.ttf
  4

  0
STYLE
  5
54
330
5
100
AcDbSymbolTableRecord
100
AcDbTextStyleTableRecord
  2
LiberationSerif-BoldItalic
 70
0
 40
0.0
 41
1.0
 50
0.0
 71
0
 42
2.5
  3
LiberationSerif-BoldItalic.ttf
  4

  0
STYLE
  5
55
330
5
100
AcDbSymbolTableRecord
100
AcDbTextStyleTableRecord
  2
LiberationSerif-Italic
 70
0
 40
0.0
 41
1.0
 50
0.0
 71
0
 42
2.5
  3
LiberationSerif-Italic.ttf
  4

  0
STYLE
  5
56
330
5
100
AcDbSymbolTableRecord
100
AcDbTextStyleTableRecord
  2
LiberationMono
 70
0
 40
0.0
 41
1.0
 50
0.0
 71
0
 42
2.5
  3
LiberationMono-Regular.ttf
  4

  0
STYLE
  5
57
330
5
100
AcDbSymbolTableRecord
100
AcDbTextStyleTableRecord
  2
LiberationMono-Bold
 70
0
 40
0.0
 41
1.0
 50
0.0
 71
0
 42
2.5
  3
LiberationMono-Bold.ttf
  4

  0
STYLE
  5
58
330
5
100
AcDbSymbolTableRecord
100
AcDbTextStyleTableRecord
  2
LiberationMono-BoldItalic
 70
0
 40
0.0
 41
1.0
 50
0.0
 71
0
 42
2.5
  3
LiberationMono-BoldItalic.ttf
  4

  0
STYLE
  5
59
330
5
100
AcDbSymbolTableRecord
100
AcDbTextStyleTableRecord
  2
LiberationMono-Italic
 70
0
 40
0.0
 41
1.0
 50
0.0
 71
0
 42
2.5
  3
LiberationMono-Italic.ttf
  4

  0
STYLE
  5
9B
330
5
100
AcDbSymbolTableRecord
100
AcDbTextStyleTableRecord
  2
PLAT
 70
0
 40
0.0
 41
1.0
 50
0.0
 71
0
 42
2.5
  3
arial.ttf
  4

  0
ENDTAB
  0
TABLE
  2
VIEW
  5
7
330
0
100
AcDbSymbolTable
 70
0
  0
ENDTAB
  0
TABLE
  2
UCS
  5
6
330
0
100
AcDbSymbolTable
 70
0
  0
ENDTAB
  0
TABLE
  2
APPID
  5
3
330
0
100
AcDbSymbolTable
 70
4
  0
APPID
  5
2A
330
3
100
AcDbSymbolTableRecord
100
AcDbRegAppTableRecord
  2
ACAD
 70
0
  0
APPID
  5
8A
330
3
100
AcDbSymbolTableRecord
100
AcDbRegAppTableRecord
  2
RASTER2DXF
 70
0
  0
APPID
  5
14B
330
3
100
AcDbSymbolTableRecord
100
AcDbRegAppTableRecord
  2
HATCHBACKGROUNDCOLOR
 70
0
  0
APPID
  5
14C
330
3
100
AcDbSymbolTableRecord
100
AcDbRegAppTableRecord
  2
EZDXF
 70
0
  0
ENDTAB
  0
TABLE
  2
DIMSTYLE
  5
4
330
0
100
AcDbSymbolTable
 70
12
100
AcDbDimStyleTable
  0
DIMSTYLE
105
2B
330
4
100
AcDbSymbolTableRecord
100
AcDbDimStyleTableRecord
  2
Standard
 70
0
 40
1.0
 41
2.5
 42
0.625
 43
3.75
 44
1.25
 45
0.0
 46
0.0
 47
0.0
 48
0.0
 49
2.5
140
2.5
141
2.5
142
0.0
143
0.03937007874
144
1.0
145
0.0
146
1.0
147
0.625
148
0.0
 69
0
 70
0
 71
0
 72
0
 73
0
 74
0
 75
0
 76
0
 77
1
 78
8
 79
3
170
0
171
3
172
1
173
0
174
0
175
0
176
0
177
0
178
0
179
2
271
2
272
2
273
2
274
3
275
0
276
0
277
2
278
44
279
0
280
0
281
0
282
0
283
0
284
8
285
0
286
0
288
0
289
3
290
0
371
-2
372
-2
  0
DIMSTYLE
105
73
330
4
100
AcDbSymbolTableRecord
100
AcDbDimStyleTableRecord
  2
EZDXF
 70
0
 40
1.0
 41
0.175
 42
0.125
 43
3.75
 44
0.375
 45
0.0
 46
0.0
 47
0.0
 48
0.0
 49
2.5
140
0.25
141
2.5
142
0.0
143
0.03937007874
144
100.0
145
0.0
146
0.5
147
0.1
148
0.0
 69
0
 70
0
 71
0
 72
0
 73
0
 74
0
 75
0
 76
0
 77
1
 78
12
 79
3
170
0
171
3
172
1
173
0
174
0
175
0
176
0
177
0
178
0
179
2
271
2
272
2
273
2
274
3
275
0
276
0
277
2
278
46
279
2
280
0
281
0
282
0
283
0
284
8
285
0
286
0
288
1
289
3
290
0
340
4C
342
74
371
-2
372
-2
  0
DIMSTYLE
105
7C
330
4
100
AcDbSymbolTableRecord
100
AcDbDimStyleTableRecord
  2
EZ_M_100_H25_CM
 70
0
 40
1.0
 41
0.25
 42
0.125
 43
3.75
 44
0.375
 45
0.0
 46
0.0
 47
0.0
 48
0.0
 49
2.5
140
0.25
141
2.5
142
0.125
143
0.03937007874
144
100.0
145
0.0
146
0.5
147
0.1
148
0.0
 69
0
 70
0
 71
0
 72
0
 73
0
 74
0
 75
0
 76
0
 77
1
 78
12
 79
3
170
0
171
3
172
1
173
0
174
0
175
0
176
0
177
0
178
0
179
2
271
2
272
2
273
2
274
3
275
0
276
0
277
2
278
46
279
2
280
0
281
0
282
0
283
0
284
8
285
0
286
0
288
1
289
3
290
0
340
4C
371
-2
372
-2
  0
DIMSTYLE
105
7D
330
4
100
AcDbSymbolTableRecord
100
AcDbDimStyleTableRecord
  2
EZ_M_50_H25_CM
 70
0
 40
1.0
 41
0.125
 42
0.0625
 43
3.75
 44
0.1875
 45
0.0
 46
0.0
 47
0.0
 48
0.0
 49
2.5
140
0.125
141
2.5
142
0.0625
143
0.03937007874
144
100.0
145
0.0
146
0.5
147
0.05
148
0.0
 69
0
 70
0
 71
0
 72
0
 73
0
 74
0
 75
0
 76
0
 77
1
 78
12
 79
3
170
0
171
3
172
1
173
0
174
0
175
0
176
0
177
0
178
0
179
2
271
2
272
2
273
2
274
3
275
0
276
0
277
2
278
46
279
2
280
0
281
0
282
0
283
0
284
8
285
0
286
0
288
1
289
3
290
0
340
4C
371
-2
372
-2
  0
DIMSTYLE
105
7E
330
4
100
AcDbSymbolTableRecord
100
AcDbDimStyleTableRecord
  2
EZ_M_25_H25_CM
 70
0
 40
1.0
 41
0.0625
 42
0.03125
 43
3.75
 44
0.09375
 45
0.0
 46
0.0
 47
0.0
 48
0.0
 49
2.5
140
0.0625
141
2.5
142
0.03125
143
0.03937007874
144
100.0
145
0.0
146
0.5
147
0.025
148
0.0
 69
0
 70
0
 71
0
 72
0
 73
0
 74
0
 75
0
 76
0
 77
1
 78
12
 79
3
170
0
171
3
172
1
173
0
174
0
175
0
176
0
177
0
178
0
179
2
271
2
272
2
273
2
274
3
275
0
276
0
277
2
278
46
279
2
280
0
281
0
282
0
283
0
284
8
285
0
286
0
288
1
289
3
290
0
340
4C
371
-2
372
-2
  0
DIMSTYLE
105
7F
330
4
100
AcDbSymbolTableRecord
100
AcDbDimStyleTableRecord
  2
EZ_M_20_H25_CM
 70
0
 40
1.0
 41
0.05
 42
0.025
 43
3.75
 44
0.07500000000000001
 45
0.0
 46
0.0
 47
0.0
 48
0.0
 49
2.5
140
0.05
141
2.5
142
0.025
143
0.03937007874
144
100.0
145
0.0
146
0.5
147
0.020000000000000004
148
0.0
 69
0
 70
0
 71
0
 72
0
 73
0
 74
0
 75
0
 76
0
 77
1
 78
12
 79
3
170
0
171
3
172
1
173
0
174
0
175
0
176
0
177
0
178
0
179
2
271
2
272
2
273
2
274
3
275
0
276
0
277
2
278
46
279
2
280
0
281
0
282
0
283
0
284
8
285
0
286
0
288
1
289
3
290
0
340
4C
371
-2
372
-2
  0
DIMSTYLE
105
80
330
4
100
AcDbSymbolTableRecord
100
AcDbDimStyleTableRecord
  2
EZ_M_10_H25_CM
 70
0
 40
1.0
 41
0.025
 42
0.0125
 43
3.75
 44
0.037500000000000006
 45
0.0
 46
0.0
 47
0.0
 48
0.0
 49
2.5
140
0.025
141
2.5
142
0.0125
143
0.03937007874
144
100.0
145
0.0
146
0.5
147
0.010000000000000002
148
0.0
 69
0
 70
0
 71
0
 72
0
 73
0
 74
0
 75
0
 76
0
 77
1
 78
12
 79
3
170
0
171
3
172
1
173
0
174
0
175
0
176
0
177
0
178
0
179
2
271
2
272
2
273
2
274
3
275
0
276
0
277
2
278
46
279
2
280
0
281
0
282
0
283
0
284
8
285
0
286
0
288
1
289
3
290
0
340
4C
371
-2
372
-2
  0
DIMSTYLE
105
81
330
4
100
AcDbSymbolTableRecord
100
AcDbDimStyleTableRecord
  2
EZ_M_5_H25_CM
 70
0
 40
1.0
 41
0.0125
 42
0.00625
 43
3.75
 44
0.018750000000000003
 45
0.0
 46
0.0
 47
0.0
 48
0.0
 49
2.5
140
0.0125
141
2.5
142
0.00625
143
0.03937007874
144
100.0
145
0.0
146
0.5
147
0.005000000000000001
148
0.0
 69
0
 70
0
 71
0
 72
0
 73
0
 74
0
 75
0
 76
0
 77
1
 78
12
 79
3
170
0
171
3
172
1
173
0
174
0
175
0
176
0
177
0
178
0
179
2
271
2
272
2
273
2
274
3
275
0
276
0
277
2
278
46
279
2
280
0
281
0
282
0
283
0
284
8
285
0
286
0
288
1
289
3
290
0
340
4C
371
-2
372
-2
  0
DIMSTYLE
105
82
330
4
100
AcDbSymbolTableRecord
100
AcDbDimStyleTableRecord
  2
EZ_M_1_H25_CM
 70
0
 40
1.0
 41
0.0025
 42
0.00125
 43
3.75
 44
0.00375
 45
0.0
 46
0.0
 47
0.0
 48
0.0
 49
2.5
140
0.0025
141
2.5
142
0.00125
143
0.03937007874
144
100.0
145
0.0
146
0.5
147
0.001
148
0.0
 69
0
 70
0
 71
0
 72
0
 73
0
 74
0
 75
0
 76
0
 77
1
 78
12
 79
3
170
0
171
3
172
1
173
0
174
0
175
0
176
0
177
0
178
0
179
2
271
2
272
2
273
2
274
3
275
0
276
0
277
2
278
46
279
2
280
0
281
0
282
0
283
0
284
8
285
0
286
0
288
1
289
3
290
0
340
4C
371
-2
372
-2
  0
DIMSTYLE
105
83
330
4
100
AcDbSymbolTableRecord
100
AcDbDimStyleTableRecord
  2
EZ_RADIUS
 70
0
 40
1.0
 41
0.25
 42
0.125
 43
3.75
 44
0.375
 45
0.0
 46
0.0
 47
0.0
 48
0.0
 49
2.5
140
0.25
141
0.0
142
0.0
143
0.03937007874
144
100.0
145
0.0
146
0.5
147
0.1
148
0.0
 69
0
 70
0
 71
0
 72
0
 73
0
 74
0
 75
0
 76
0
 77
1
 78
12
 79
3
170
0
171
3
172
0
173
0
174
0
175
0
176
0
177
0
178
0
179
2
271
2
272
2
273
2
274
3
275
0
276
0
277
2
278
46
279
1
280
0
281
0
282
0
283
0
284
8
285
0
286
0
288
1
289
3
290
0
340
4C
342
84
371
-2
372
-2
  0
DIMSTYLE
105
88
330
4
100
AcDbSymbolTableRecord
100
AcDbDimStyleTableRecord
  2
EZ_RADIUS_INSIDE
 70
0
 40
1.0
 41
0.25
 42
0.125
 43
3.75
 44
0.375
 45
0.0
 46
0.0
 47
0.0
 48
0.0
 49
2.5
140
0.25
141
0.0
142
0.0
143
0.03937007874
144
100.0
145
0.0
146
0.5
147
0.1
148
0.0
 69
0
 70
0
 71
0
 72
0
 73
0
 74
0
 75
0
 76
0
 77
0
 78
12
 79
3
170
0
171
3
172
0
173
0
174
1
175
0
176
0
177
0
178
0
179
2
271
2
272
2
273
2
274
3
275
0
276
0
277
2
278
46
279
0
280
0
281
0
282
0
283
0
284
8
285
0
286
0
288
1
289
0
290
0
340
4C
342
84
371
-2
372
-2
  0
DIMSTYLE
105
89
330
4
100
AcDbSymbolTableRecord
100
AcDbDimStyleTableRecord
  2
EZ_CURVED
 70
0
 40
1.0
 41
0.25
 42
0.125
 43
3.75
 44
0.375
 45
0.0
 46
0.0
 47
0.0
 48
0.0
 49
2.5
140
0.25
141
2.5
142
0.0
143
0.03937007874
144
100.0
145
0.0
146
0.5
147
0.1
148
0.0
 69
0
 70
0
 71
0
 72
0
 73
0
 74
0
 75
0
 76
0
 77
1
 78
12
 79
2
 90
2
170
0
171
3
172
1
173
0
174
0
175
0
176
0
177
0
178
0
179
2
271
2
272
2
273
2
274
3
275
0
276
0
277
2
278
46
279
2
280
0
281
0
282
0
283
0
284
8
285
0
286
0
288
1
289
3
290
0
340
4C
371
-2
372
-2
  0
ENDTAB
  0
TABLE
  2
BLOCK_RECORD
  5
9
330
0
100
AcDbSymbolTable
 70
5
  0
BLOCK_RECORD
  5
17
330
9
100
AcDbSymbolTableRecord
100
AcDbBlockTableRecord
  2
*Model_Space
340
1A
 70
0
280
1
281
0
  0
BLOCK_RECORD
  5
1B
330
9
100
AcDbSymbolTableRecord
100
AcDbBlockTableRecord
  2
*Paper_Space
340
1E
 70
0
280
1
281
0
  0
BLOCK_RECORD
  5
74
330
9
100
AcDbSymbolTableRecord
100
AcDbBlockTableRecord
  2
_ARCHTICK
340
0
 70
0
280
1
281
0
  0
BLOCK_RECORD
  5
78
330
9
100
AcDbSymbolTableRecord
100
AcDbBlockTableRecord
  2
_CLOSEDFILLED
340
0
 70
0
280
1
281
0
  0
BLOCK_RECORD
  5
84
330
9
100
AcDbSymbolTableRecord
100
AcDbBlockTableRecord
  2
_CLOSEDBLANK
340
0
 70
0
280
1
281
0
  0
ENDTAB
  0
ENDSEC
  0
SECTION
  2
BLOCKS
  0
BLOCK
  5
18
330
17
100
AcDbEntity
  8
0
100
AcDbBlockBegin
  2
*Model_Space
 70
0
 10
0.0
 20
0.0
 30
0.0
  3
*Model_Space
  1

  0
ENDBLK
  5
19
330
17
100
AcDbEntity
  8
0
100
AcDbBlockEnd
  0
BLOCK
  5
1C
330
1B
100
AcDbEntity
  8
0
100
AcDbBlockBegin
  2
*Paper_Space
 70
0
 10
0.0
 20
0.0
 30
0.0
  3
*Paper_Space
  1

  0
ENDBLK
  5
1D
330
1B
100
AcDbEntity
  8
0
100
AcDbBlockEnd
  0
BLOCK
  5
75
330
74
100
AcDbEntity
  8
0
100
AcDbBlockBegin
  2
_ARCHTICK
 70
0
 10
0.0
 20
0.0
 30
0.0
  3
_ARCHTICK
  1

  0
LWPOLYLINE
  5
77
330
74
100
AcDbEntity
  8
0
  6
BYBLOCK
 62
0
100
AcDbPolyline
 90
2
 70
0
 43
0.15
 10
-0.5
 20
-0.5
 10
0.5
 20
0.5
  0
ENDBLK
  5
76
330
74
100
AcDbEntity
  8
0
100
AcDbBlockEnd
  0
BLOCK
  5
79
330
78
100
AcDbEntity
  8
0
100
AcDbBlockBegin
  2
_CLOSEDFILLED
 70
0
 10
0.0
 20
0.0
 30
0.0
  3
_CLOSEDFILLED
  1

  0
SOLID
  5
7B
330
78
100
AcDbEntity
  8
0
  6
BYBLOCK
 62
0
100
AcDbTrace
 10
-1.0
 20
0.16439898372402537
 30
0.0
 11
0.0
 21
0.0
 31
0.0
 12
-1.0
 22
-0.16439898372402537
 32
0.0
 13
-1.0
 23
-0.16439898372402537
 33
0.0
  0
ENDBLK
  5
7A
330
78
100
AcDbEntity
  8
0
100
AcDbBlockEnd
  0
BLOCK
  5
85
330
84
100
AcDbEntity
  8
0
100
AcDbBlockBegin
  2
_CLOSEDBLANK
 70
0
 10
0.0
 20
0.0
 30
0.0
  3
_CLOSEDBLANK
  1

  0
LWPOLYLINE
  5
87
330
84
100
AcDbEntity
  8
0
  6
BYBLOCK
 62
0
100
AcDbPolyline
 90
3
 70
1
 10
-1.0
 20
0.16439898372402537
 10
0.0
 20
0.0
 10
-1.0
 20
-0.16439898372402537
  0
ENDBLK
  5
86
330
84
100
AcDbEntity
  8
0
100
AcDbBlockEnd
  0
ENDSEC
  0
SECTION
  2
ENTITIES
  0
LINE
  5
9C
330
17
100
AcDbEntity
  8
PLAT-LINE
100
AcDbLine
 10
258.8053541805824
 20
409.56384532378354
 30
0.0
 11
321.7103237512153
 21
308.1333935963356
 31
0.0
1001
RASTER2DXF
1000
line 0
1040
119.353
1040
0.996
  0
LINE
  5
9D
330
17
100
AcDbEntity
  8
PLAT-LINE
100
AcDbLine
 10
114.31078714884279
 20
408.82435643536184
 30
0.0
 11
97.44736474207357
 21
341.0269799040189
 31
0.0
1001
RASTER2DXF
1000
line 1
1040
69.863
1040
0.995
1000
distance=2.4
  0
LINE
  5
9E
330
17
100
AcDbEntity
  8
PLAT-LINE
100
AcDbLine
 10
7.860094010521493
 20
408.40810898677813
 30
0.0
 11
6.694947798873926
 21
335.12909215785913
 31
0.0
1001
RASTER2DXF
1000
line 2
1040
73.288
1040
0.958
1000
distance=100
  0
LINE
  5
9F
330
17
100
AcDbEntity
  8
PLAT-LINE
100
AcDbLine
 10
218.28034744216325
 20
404.7944338475104
 30
0.0
 11
175.74883110669083
 21
313.2880799405526
 31
0.0
1001
RASTER2DXF
1000
line 3
1040
100.908
1040
0.997
1000
distance=‘187.37
  0
LINE
  5
A0
330
17
100
AcDbEntity
  8
PLAT-LINE
100
AcDbLine
 10
97.8261605302082
 20
341.86851947944183
 30
0.0
 11
163.21293173755748
 21
319.8516395042782
 31
0.0
1001
RASTER2DXF
1000
line 4
1040
68.994
1040
1.0
1000
distance=85.24"
  0
LINE
  5
A1
330
17
100
AcDbEntity
  8
PLAT-LINE
100
AcDbLine
 10
43.34161595396705
 20
338.2315728015769
 30
0.0
 11
70.908227786471
 21
334.4234951011309
 31
0.0
1001
RASTER2DXF
1000
line 5
1040
27.828
1040
0.851
  0
LINE
  5
A2
330
17
100
AcDbEntity
  8
PLAT-LINE
100
AcDbLine
 10
340.8257166113456
 20
319.0428560605613
 30
0.0
 11
322.0210719502656
 21
307.63233095504825
 31
0.0
1001
RASTER2DXF
1000
line 6
1040
21.996
1040
1.0
1000
distance=307
  0
LINE
  5
A3
330
17
100
AcDbEntity
  8
PLAT-LINE
100
AcDbLine
 10
321.7103237512153
 20
308.1333935963356
 30
0.0
 11
285.5006429032562
 21
276.4157293753811
 31
0.0
1001
RASTER2DXF
1000
line 7
1040
48.137
1040
1.0
  0
LINE
  5
A4
330
17
100
AcDbEntity
  8
PLAT-LINE
100
AcDbLine
 10
6.818626335820909
 20
289.3516160582641
 30
0.0
 11
5.7744986428253355
 21
185.47299466973598
 31
0.0
1001
RASTER2DXF
1000
line 8
1040
103.884
1040
1.0
1000
distance=105.18" >
  0
LINE
  5
A5
330
17
100
AcDbEntity
  8
PLAT-LINE
100
AcDbLine
 10
111.24192039158696
 20
272.02180091594175
 30
0.0
 11
77.3262498586408
 21
169.20352470742347
 31
0.0
1001
RASTER2DXF
1000
line 9
1040
108.268
1040
1.0
1000
distance=112.43"
  0
LINE
  5
A6
330
17
100
AcDbEntity
  8
PLAT-LINE
100
AcDbLine
 10
237.4038587599702
 20
250.87109443366052
 30
0.0
 11
216.19065514779885
 21
245.27746818727394
 31
0.0
1001
RASTER2DXF
1000
line 10
1040
21.938
1040
0.999
  0
LINE
  5
A7
330
17
100
AcDbEntity
  8
PLAT-LINE
100
AcDbLine
 10
232.51939561706817
 20
239.50791865747297
 30
0.0
 11
252.61069305472537
 21
239.74717705718635
 31
0.0
1001
RASTER2DXF
1000
line 11
1040
20.093
1040
0.983
  0
LINE
  5
A8
330
17
100
AcDbEntity
  8
PLAT-LINE
100
AcDbLine
 10
200.65859046596418
 20
226.64700161203936
 30
0.0
 11
142.21532752971243
 21
144.03395515729355
 31
0.0
1001
RASTER2DXF
1000
line 12
1040
101.196
1040
0.941
1000
distance=99.60"
  0
LINE
  5
A9
330
17
100
AcDbEntity
  8
PLAT-LINE
100
AcDbLine
 10
201.28680728467992
 20
226.5472834781981
 30
0.0
 11
264.75260610507075
 21
177.33893503544886
 31
0.0
1001
RASTER2DXF
1000
line 13
1040
80.308
1040
0.99
1000
distance=61.10"
  0
LINE
  5
AA
330
17
100
AcDbEntity
  8
PLAT-LINE
100
AcDbLine
 10
264.75260610507075
 20
177.33893503544886
 30
0.0
 11
324.8945622058624
 21
130.70773544696374
 31
0.0
1001
RASTER2DXF
1000
line 14
1040
76.102
1040
0.99
1000
distance=75°
  0
LINE
  5
AB
330
17
100
AcDbEntity
  8
PLAT-LINE
100
AcDbLine
 10
324.8945622058624
 20
130.70773544696374
 30
0.0
 11
341.2013090010343
 21
118.06426300702198
 31
0.0
1001
RASTER2DXF
1000
line 15
1040
20.634
1040
0.99
  0
LINE
  5
AC
330
17
100
AcDbEntity
  8
PLAT-LINE
100
AcDbLine
 10
5.7744986428253355
 20
185.47299466973598
 30
0.0
 11
116.1845013709119
 21
151.94732074618406
 31
0.0
1001
RASTER2DXF
1000
line 16
1040
115.388
1040
0.892
1000
distance=20".
  0
LINE
  5
AD
330
17
100
AcDbEntity
  8
PLAT-LINE
100
AcDbLine
 10
116.1845013709119
 20
151.94732074618406
 30
0.0
 11
142.2207268535785
 21
144.04149714176253
 31
0.0
1001
RASTER2DXF
1000
line 17
1040
27.21
1040
0.892
1000
distance=66.86%
  0
LINE
  5
AE
330
17
100
AcDbEntity
  8
PLAT-LINE
100
AcDbLine
 10
264.75260610507075
 20
177.33893503544886
 30
0.0
 11
202.94443205686838
 21
96.83165563021358
 31
0.0
1001
RASTER2DXF
1000
line 18
1040
101.497
1040
0.911
1000
distance=100°
  0
LINE
  5
AF
330
17
100
AcDbEntity
  8
PLAT-LINE
100
AcDbLine
 10
64.71514411912467
 20
172.99437515369752
 30
0.0
 11
77.3262498586408
 21
169.20352470742347
 31
0.0
1001
RASTER2DXF
1000
line 19
1040
13.169
1040
0.988
  0
LINE
  5
B0
330
17
100
AcDbEntity
  8
PLAT-LINE
100
AcDbLine
 10
77.3262498586408
 20
169.20352470742347
 30
0.0
 11
90.23864500392678
 21
165.32210781107662
 31
0.0
1001
RASTER2DXF
1000
line 20
1040
13.483
1040
0.988
  0
LINE
  5
B1
330
17
100
AcDbEntity
  8
PLAT-LINE
100
AcDbLine
 10
29.430096045125907
 20
172.42614463259275
 30
0.0
 11
3.297395777577833
 21
68.90631127730444
 31
0.0
1001
RASTER2DXF
1000
line 21
1040
106.767
1040
1.0
1000
distance=109.05",
  0
LINE
  5
B2
330
17
100
AcDbEntity
  8
PLAT-LINE
100
AcDbLine
 10
29.430096045125907
 20
172.42614463259275
 30
0.0
 11
53.6131709389098
 21
165.29442001537376
 31
0.0
1001
RASTER2DXF
1000
line 22
1040
25.213
1040
0.905
1000
distance=—~66.85"
  0
LINE
  5
B3
330
17
100
AcDbEntity
  8
PLAT-LINE
100
AcDbLine
 10
116.1845013709119
 20
151.94732074618406
 30
0.0
 11
74.22716331634413
 21
46.11011536931002
 31
0.0
1001
RASTER2DXF
1000
line 23
1040
113.85
1040
0.992
1000
distance=112.43°
  0
LINE
  5
B4
330
17
100
AcDbEntity
  8
PLAT-LINE
100
AcDbLine
 10
142.21532752971243
 20
144.03395515729355
 30
0.0
 11
202.94443205686838
 21
96.83165563021358
 31
0.0
1001
RASTER2DXF
1000
line 24
1040
76.916
1040
0.969
1000
distance=——75"
  0
LINE
  5
B5
330
17
100
AcDbEntity
  8
PLAT-LINE
100
AcDbLine
 10
202.94443205686838
 20
96.83165563021358
 30
0.0
 11
307.82818035381985
 21
15.309720782289645
 31
0.0
1001
RASTER2DXF
1000
line 25
1040
132.84
1040
0.969
  0
LINE
  5
B6
330
17
100
AcDbEntity
  8
PLAT-LINE
100
AcDbLine
 10
324.8945622058624
 20
130.70773544696377
 30
0.0
 11
242.9737951595038
 21
23.603284468323523
 31
0.0
1001
RASTER2DXF
1000
line 26
1040
134.842
1040
0.911
1000
distance=10°
  0
LINE
  5
B7
330
17
100
AcDbEntity
  8
PLAT-LINE
100
AcDbLine
 10
188.10776200069074
 20
99.93842010777757
 30
0.0
 11
137.70684210652198
 21
13.784361307521152
 31
0.0
1001
RASTER2DXF
1000
line 27
1040
99.814
1040
0.965
1000
distance=& 104.68"
  0
LINE
  5
B8
330
17
100
AcDbEntity
  8
PLAT-LINE
100
AcDbLine
 10
3.297395777577833
 20
68.90631127730444
 30
0.0
 11
74.21966056751779
 21
46.09118971755893
 31
0.0
1001
RASTER2DXF
1000
line 28
1040
74.502
1040
1.0
1000
distance=76.78°
  0
LINE
  5
B9
330
17
100
AcDbEntity
  8
PLAT-LINE
100
AcDbLine
 10
74.22716331634413
 20
46.11011536931002
 30
0.0
 11
138.08034332877315
 21
14.422814858197711
 31
0.0
1001
RASTER2DXF
1000
line 29
1040
71.283
1040
1.0
1000
distance=16.78"
  0
LINE
  5
BA
330
17
100
AcDbEntity
  8
PLAT-LINE
100
AcDbLine
 10
137.70684210652198
 20
13.784361307521152
 30
0.0
 11
160.56133839611263
 21
-0.2364864896834149
 31
0.0
1001
RASTER2DXF
1000
line 30
1040
26.813
1040
1.0
1000
distance=62.5
  0
LINE
  5
BB
330
17
100
AcDbEntity
  8
PLAT-LINE
100
AcDbLine
 10
178.5829277273274
 20
122.25690859743736
 30
0.0
 11
197.8159147685821
 21
106.80724151701885
 31
0.0
1001
RASTER2DXF
1000
line 31
1040
24.67
1040
0.842
  0
LINE
  5
BC
330
17
100
AcDbEntity
  8
PLAT-LINE
100
AcDbLine
 10
233.41718404683363
 20
65.75307091254598
 30
0.0
 11
251.93581050322757
 21
51.47148145800017
 31
0.0
1001
RASTER2DXF
1000
line 32
1040
23.386
1040
0.834
  0
LINE
  5
BD
330
17
100
AcDbEntity
  8
PLAT-LINE
100
AcDbLine
 10
289.8504084448968
 20
35.54489257425749
 30
0.0
 11
312.12189530291585
 21
18.829069674597065
 31
0.0
1001
RASTER2DXF
1000
line 33
1040
27.847
1040
0.853
  0
ARC
  5
BE
330
17
100
AcDbEntity
  8
PLAT-CURVE
100
AcDbCircle
 10
4.496762800048259
 20
-48.05775327687249
 30
0.0
 40
400.0334285979489
100
AcDbArc
 50
76.56411689678662
 51
89.61883407417695
1001
RASTER2DXF
1000
arc 0
1040
400.033
1040
91.147
1000
distance="85.28"
  0
ARC
  5
BF
330
17
100
AcDbEntity
  8
PLAT-CURVE
100
AcDbCircle
 10
20.41877268479655
 20
-21.716297313872246
 30
0.0
 40
369.26326628704095
100
AcDbArc
 50
51.8462838093601
 51
65.12445991650114
1001
RASTER2DXF
1000
arc 1
1040
369.263
1040
85.576
1000
distance=85.24"
  0
ARC
  5
C0
330
17
100
AcDbEntity
  8
PLAT-CURVE
100
AcDbCircle
 10
6.596966085838488
 20
-35.38261028078699
 30
0.0
 40
324.73430199054803
100
AcDbArc
 50
71.20014163818983
 51
89.9608904950349
1001
RASTER2DXF
1000
arc 2
1040
324.734
1040
106.33
1000
distance=99.37"
  0
ARC
  5
C1
330
17
100
AcDbEntity
  8
PLAT-CURVE
100
AcDbCircle
 10
6.696938330230921
 20
-44.78777265732086
 30
0.0
 40
333.61348770977736
100
AcDbArc
 50
54.451188012643144
 51
71.73746514476322
1001
RASTER2DXF
1000
arc 3
1040
333.613
1040
100.652
  0
ARC
  5
C2
330
17
100
AcDbEntity
  8
PLAT-CURVE
100
AcDbCircle
 10
263.953675555518
 20
287.1713580649595
 30
0.0
 40
23.513647103526374
100
AcDbArc
 50
-108.00331876902321
 51
-56.16223912022077
1001
RASTER2DXF
1000
arc 4
1040
23.514
1040
21.275
  0
ARC
  5
C3
330
17
100
AcDbEntity
  8
PLAT-CURVE
100
AcDbCircle
 10
353.07670957780925
 20
219.4394859273278
 30
0.0
 40
26.904968800839605
100
AcDbArc
 50
-179.51062230193222
 51
-116.76552528454673
1001
RASTER2DXF
1000
arc 5
1040
26.905
1040
29.464
  0
ARC
  5
C4
330
17
100
AcDbEntity
  8
PLAT-CURVE
100
AcDbCircle
 10
206.96051481052703
 20
209.45019452026432
 30
0.0
 40
7.498958904334026
100
AcDbArc
 50
128.5601103887348
 51
-87.78978226421141
1001
RASTER2DXF
1000
arc 6
1040
7.499
1040
18.801
  0
ARC
  5
C5
330
17
100
AcDbEntity
  8
PLAT-CURVE
100
AcDbCircle
 10
323.27348438573694
 20
2.3322104841182636
 30
0.0
 40
19.912415780677616
100
AcDbArc
 50
57.65105357030311
 51
124.0580074792456
1001
RASTER2DXF
1000
arc 7
1040
19.912
1040
23.079
  0
TEXT
  5
C6
330
17
100
AcDbEntity
  8
PLAT-TEXT-DIST
100
AcDbText
 10
115.39206085397579
 20
394.48574974823816
 30
0.0
 40
9.020650121703415
  1
2.40'
 50
76.03211827324532
  7
PLAT
 72
1
 11
115.39206085397579
 21
394.48574974823816
 31
0.0
100
AcDbText
 73
3
  0
TEXT
  5
C7
330
17
100
AcDbEntity
  8
PLAT-TEXT-DIST
100
AcDbText
 10
215.5889843441689
 20
388.30306607601796
 30
0.0
 40
9.020650121703415
  1
187.37'
 50
65.07132294211158
  7
PLAT
 72
1
 11
215.5889843441689
 21
388.30306607601796
 31
0.0
100
AcDbText
 73
3
  0
TEXT
  5
C8
330
17
100
AcDbEntity
  8
PLAT-TEXT-DIST
100
AcDbText
 10
12.1550706884057
 20
394.828444838219
 30
0.0
 40
9.020650121703415
  1
100'
 50
89.0890661693274
  7
PLAT
 72
1
 11
12.1550706884057
 21
394.828444838219
 31
0.0
100
AcDbText
 73
3
  0
TEXT
  5
C9
330
17
100
AcDbEntity
  8
PLAT-TEXT-DIST
100
AcDbText
 10
59.504836815289465
 20
352.7286712384454
 30
0.0
 40
9.020650121703415
  1
85.28'
 50
352.12041702340224
  7
PLAT
 72
1
 11
59.504836815289465
 21
352.7286712384454
 31
0.0
100
AcDbText
 73
1
  0
TEXT
  5
CA
330
17
100
AcDbEntity
  8
PLAT-TEXT-DIST
100
AcDbText
 10
336.60547807329664
 20
321.75777157980735
 30
0.0
 40
9.020650121703415
  1
307'
 50
31.24907940339409
  7
PLAT
 72
1
 11
336.60547807329664
 21
321.75777157980735
 31
0.0
100
AcDbText
 73
1
  0
TEXT
  5
CB
330
17
100
AcDbEntity
  8
PLAT-TEXT-DIST
100
AcDbText
 10
144.44913872009917
 20
330.9288889129199
 30
0.0
 40
9.020650121703415
  1
85.24'
 50
341.3907123395291
  7
PLAT
 72
1
 11
144.44913872009917
 21
330.9288889129199
 31
0.0
100
AcDbText
 73
1
  0
TEXT
  5
CC
330
17
100
AcDbEntity
  8
PLAT-TEXT-DIST
100
AcDbText
 10
218.92617582484095
 20
294.9878331477817
 30
0.0
 40
9.020650121703415
  1
85.24'
 50
327.85528105368235
  7
PLAT
 72
1
 11
218.92617582484095
 21
294.9878331477817
 31
0.0
100
AcDbText
 73
1
  0
TEXT
  5
CD
330
17
100
AcDbEntity
  8
PLAT-TEXT-DIST
100
AcDbText
 10
60.93205864181436
 20
280.19796111648674
 30
0.0
 40
9.020650121703415
  1
99.37'
 50
350.13575404986346
  7
PLAT
 72
1
 11
60.93205864181436
 21
280.19796111648674
 31
0.0
100
AcDbText
 73
3
  0
TEXT
  5
CE
330
17
100
AcDbEntity
  8
PLAT-TEXT-DIST
100
AcDbText
 10
10.880433899853163
 20
244.70664896455847
 30
0.0
 40
9.020650121703415
  1
105.18'
 50
89.42411542715644
  7
PLAT
 72
1
 11
10.880433899853163
 21
244.70664896455847
 31
0.0
100
AcDbText
 73
3
  0
TEXT
  5
CF
330
17
100
AcDbEntity
  8
PLAT-TEXT-DIST
100
AcDbText
 10
97.01214427055335
 20
214.48488547948438
 30
0.0
 40
9.020650121703415
  1
112.43'
 50
71.744326963748
  7
PLAT
 72
1
 11
97.01214427055335
 21
214.48488547948438
 31
0.0
100
AcDbText
 73
3
  0
TEXT
  5
D0
330
17
100
AcDbEntity
  8
PLAT-TEXT-DIST
100
AcDbText
 10
233.62580396929206
 20
195.76592282843865
 30
0.0
 40
9.020650121703415
  1
61.10'
 50
322.21170957510316
  7
PLAT
 72
1
 11
233.62580396929206
 21
195.76592282843865
 31
0.0
100
AcDbText
 73
3
  0
TEXT
  5
D1
330
17
100
AcDbEntity
  8
PLAT-TEXT-DIST
100
AcDbText
 10
172.8165078303883
 20
179.48084841884173
 30
0.0
 40
9.020650121703415
  1
99.60'
 50
54.723120326293895
  7
PLAT
 72
1
 11
172.8165078303883
 21
179.48084841884173
 31
0.0
100
AcDbText
 73
3
  0
TEXT
  5
D2
330
17
100
AcDbEntity
  8
PLAT-TEXT-DIST
100
AcDbText
 10
35.914741137445894
 20
175.21615299799132
 30
0.0
 40
9.020650121703415
  1
66.85'
 50
343.5689157286491
  7
PLAT
 72
1
 11
35.914741137445894
 21
175.21615299799132
 31
0.0
100
AcDbText
 73
1
  0
TEXT
  5
D3
330
17
100
AcDbEntity
  8
PLAT-TEXT-DIST
100
AcDbText
 10
15.505033554835663
 20
177.80467558240406
 30
0.0
 40
9.020650121703415
  1
20.00'
 50
343.10924067454516
  7
PLAT
 72
1
 11
15.505033554835663
 21
177.80467558240406
 31
0.0
100
AcDbText
 73
3
  0
TEXT
  5
D4
330
17
100
AcDbEntity
  8
PLAT-TEXT-DIST
100
AcDbText
 10
120.09858927997689
 20
155.47249008071864
 30
0.0
 40
9.020650121703415
  1
66.86'
 50
343.1092406745452
  7
PLAT
 72
1
 11
120.09858927997689
 21
155.47249008071864
 31
0.0
100
AcDbText
 73
1
  0
TEXT
  5
D5
330
17
100
AcDbEntity
  8
PLAT-TEXT-DIST
100
AcDbText
 10
290.0349308632674
 20
152.0289806778237
 30
0.0
 40
9.020650121703415
  1
75'
 50
322.21170957510316
  7
PLAT
 72
1
 11
290.0349308632674
 21
152.0289806778237
 31
0.0
100
AcDbText
 73
3
  0
TEXT
  5
D6
330
17
100
AcDbEntity
  8
PLAT-TEXT-DIST
100
AcDbText
 10
24.176427411089907
 20
133.1873942919184
 30
0.0
 40
9.020650121703415
  1
109.05'
 50
75.83217430118873
  7
PLAT
 72
1
 11
24.176427411089907
 21
133.1873942919184
 31
0.0
100
AcDbText
 73
3
  0
TEXT
  5
D7
330
17
100
AcDbEntity
  8
PLAT-TEXT-DIST
100
AcDbText
 10
164.29802331232602
 20
132.58248446950853
 30
0.0
 40
9.020650121703415
  1
75'
 50
322.14350799170506
  7
PLAT
 72
1
 11
164.29802331232602
 21
132.58248446950853
 31
0.0
100
AcDbText
 73
1
  0
TEXT
  5
D8
330
17
100
AcDbEntity
  8
PLAT-TEXT-DIST
100
AcDbText
 10
236.23771693591706
 20
132.7907607446967
 30
0.0
 40
9.020650121703415
  1
100'
 50
52.48532572608451
  7
PLAT
 72
1
 11
236.23771693591706
 21
132.7907607446967
 31
0.0
100
AcDbText
 73
3
  0
TEXT
  5
D9
330
17
100
AcDbEntity
  8
PLAT-TEXT-DIST
100
AcDbText
 10
102.70717087887418
 20
105.71212644029771
 30
0.0
 40
9.020650121703415
  1
112.43'
 50
68.3750021115261
  7
PLAT
 72
1
 11
102.70717087887418
 21
105.71212644029771
 31
0.0
100
AcDbText
 73
3
  0
TEXT
  5
DA
330
17
100
AcDbEntity
  8
PLAT-TEXT-DIST
100
AcDbText
 10
168.32911716263834
 20
57.1970819656431
 30
0.0
 40
9.020650121703415
  1
104.68'
 50
59.67197173422568
  7
PLAT
 72
1
 11
168.32911716263834
 21
57.1970819656431
 31
0.0
100
AcDbText
 73
3
  0
TEXT
  5
DB
330
17
100
AcDbEntity
  8
PLAT-TEXT-DIST
100
AcDbText
 10
43.40505643608751
 20
60.741957688702854
 30
0.0
 40
9.020650121703415
  1
76.78'
 50
342.1674348240268
  7
PLAT
 72
1
 11
43.40505643608751
 21
60.741957688702854
 31
0.0
100
AcDbText
 73
1
  0
TEXT
  5
DC
330
17
100
AcDbEntity
  8
PLAT-TEXT-DIST
100
AcDbText
 10
109.69895750844854
 20
33.542309078152535
 30
0.0
 40
9.020650121703415
  1
16.78'
 50
333.6069787130188
  7
PLAT
 72
1
 11
109.69895750844854
 21
33.542309078152535
 31
0.0
100
AcDbText
 73
1
  0
TEXT
  5
DD
330
17
100
AcDbEntity
  8
PLAT-TEXT-DIST
100
AcDbText
 10
247.58334008984153
 20
37.053893473819954
 30
0.0
 40
9.020650121703415
  1
10'
 50
52.588782699586204
  7
PLAT
 72
1
 11
247.58334008984153
 21
37.053893473819954
 31
0.0
100
AcDbText
 73
1
  0
TEXT
  5
DE
330
17
100
AcDbEntity
  8
PLAT-TEXT-DIST
100
AcDbText
 10
160.63443394073144
 20
5.0101134504622715
 30
0.0
 40
9.020650121703415
  1
62.50'
 50
328.47158675643664
  7
PLAT
 72
1
 11
160.63443394073144
 21
5.0101134504622715
 31
0.0
100
AcDbText
 73
1
  0
TEXT
  5
DF
330
17
100
AcDbEntity
  8
PLAT-TEXT-LOWCONF
100
AcDbText
 10
2.383793123562043
 20
379.62030863236606
 30
0.0
 40
5.4214241876249565
  1
W.e7- £5 9
 50
89.08906616932745
  7
PLAT
 72
1
 11
2.383793123562043
 21
379.62030863236606
 31
0.0
100
AcDbText
 73
2
  0
TEXT
  5
E0
330
17
100
AcDbEntity
  8
PLAT-TEXT-LOWCONF
100
AcDbText
 10
98.90768004813525
 20
383.09729699550024
 30
0.0
 40
13.411702809946377
  1
810%
 50
76.03211827324532
  7
PLAT
 72
1
 11
98.90768004813525
 21
383.09729699550024
 31
0.0
100
AcDbText
 73
2
  0
TEXT
  5
E1
330
17
100
AcDbEntity
  8
PLAT-TEXT-LOWCONF
100
AcDbText
 10
194.5091407038291
 20
371.05979823066247
 30
0.0
 40
14.72298699544602
  1
“S 9.199 20's,
 50
65.07132294211158
  7
PLAT
 72
1
 11
194.5091407038291
 21
371.05979823066247
 31
0.0
100
AcDbText
 73
2
  0
TEXT
  5
E2
330
17
100
AcDbEntity
  8
PLAT-TEXT-LOWCONF
100
AcDbText
 10
287.98841490269257
 20
376.3499476800504
 30
0.0
 40
9.482014535429997
  1
5%%d OVAQ"E.
 50
301.8062933032695
  7
PLAT
 72
1
 11
287.98841490269257
 21
376.3499476800504
 31
0.0
100
AcDbText
 73
2
  0
TEXT
  5
E3
330
17
100
AcDbEntity
  8
PLAT-TEXT-LOTNO
100
AcDbText
 10
151.4947314094056
 20
391.2701093092181
 30
0.0
 40
12.621968198156042
  1
30
 50
11.10348279137844
  7
PLAT
 72
1
 11
151.4947314094056
 21
391.2701093092181
 31
0.0
100
AcDbText
 73
2
  0
TEXT
  5
E4
330
17
100
AcDbEntity
  8
PLAT-TEXT-LOTNO
100
AcDbText
 10
319.6151402171679
 20
389.5043175446553
 30
0.0
 40
12.95506701680254
  1
28
  7
PLAT
 72
1
 11
319.6151402171679
 21
389.5043175446553
 31
0.0
100
AcDbText
 73
2
  0
TEXT
  5
E5
330
17
100
AcDbEntity
  8
PLAT-TEXT-LOWCONF
100
AcDbText
 10
277.2118378733259
 20
366.37113158454946
 30
0.0
 40
9.198817706053084
  1
1€L%%d99/
 50
301.8062933032695
  7
PLAT
 72
1
 11
277.2118378733259
 21
366.37113158454946
 31
0.0
100
AcDbText
 73
2
  0
TEXT
  5
E6
330
17
100
AcDbEntity
  8
PLAT-TEXT-LOWCONF
100
AcDbText
 10
50.431808325506694
 20
367.60135378682645
 30
0.0
 40
10.12690283554601
  1
5. 86907'22"
 50
354.86323283714165
  7
PLAT
 72
1
 11
50.431808325506694
 21
367.60135378682645
 31
0.0
100
AcDbText
 73
2
  0
TEXT
  5
E7
330
17
100
AcDbEntity
  8
PLAT-TEXT-LOWCONF
100
AcDbText
 10
242.9272473702845
 20
354.2040291378709
 30
0.0
 40
14.451377136577937
  1
260
 50
352.77345578666257
  7
PLAT
 72
1
 11
242.9272473702845
 21
354.2040291378709
 31
0.0
100
AcDbText
 73
2
  0
TEXT
  5
E8
330
17
100
AcDbEntity
  8
PLAT-TEXT-LOWCONF
100
AcDbText
 10
109.5244373390908
 20
355.1212600253491
 30
0.0
 40
9.474624984588724
  1
Se
 50
29.61707314046987
  7
PLAT
 72
1
 11
109.5244373390908
 21
355.1212600253491
 31
0.0
100
AcDbText
 73
2
  0
TEXT
  5
E9
330
17
100
AcDbEntity
  8
PLAT-TEXT-LOWCONF
100
AcDbText
 10
118.81160145672855
 20
354.5597288809116
 30
0.0
 40
8.284424434428992
  1
XN
 50
90.0
  7
PLAT
 72
1
 11
118.81160145672855
 21
354.5597288809116
 31
0.0
100
AcDbText
 73
2
  0
TEXT
  5
EA
330
17
100
AcDbEntity
  8
PLAT-TEXT-LOWCONF
100
AcDbText
 10
144.98169309021296
 20
346.3024484972022
 30
0.0
 40
9.67701190844346
  1
13%%d33'06"
 50
341.3907123395291
  7
PLAT
 72
1
 11
144.98169309021296
 21
346.3024484972022
 31
0.0
100
AcDbText
 73
2
  0
TEXT
  5
EB
330
17
100
AcDbEntity
  8
PLAT-TEXT-LOWCONF
100
AcDbText
 10
256.8892037830854
 20
344.29001560859797
 30
0.0
 40
6.117653605204655
  1
Ses,
 50
4.773436432152039
  7
PLAT
 72
1
 11
256.8892037830854
 21
344.29001560859797
 31
0.0
100
AcDbText
 73
2
  0
TEXT
  5
EC
330
17
100
AcDbEntity
  8
PLAT-TEXT-LOWCONF
100
AcDbText
 10
266.122352703634
 20
338.8308820884759
 30
0.0
 40
7.434518214357016
  1
Rog
 50
349.9835987588428
  7
PLAT
 72
1
 11
266.122352703634
 21
338.8308820884759
 31
0.0
100
AcDbText
 73
2
  0
TEXT
  5
ED
330
17
100
AcDbEntity
  8
PLAT-TEXT-LOWCONF
100
AcDbText
 10
324.8994438687584
 20
332.058823009623
 30
0.0
 40
11.352729780513805
  1
yet
  7
PLAT
 72
1
 11
324.8994438687584
 21
332.058823009623
 31
0.0
100
AcDbText
 73
2
  0
TEXT
  5
EE
330
17
100
AcDbEntity
  8
PLAT-TEXT-LOWCONF
100
AcDbText
 10
79.17128162716047
 20
328.7377126501918
 30
0.0
 40
16.358874439384465
  1
2
 50
352.13488480935894
  7
PLAT
 72
1
 11
79.17128162716047
 21
328.7377126501918
 31
0.0
100
AcDbText
 73
2
  0
TEXT
  5
EF
330
17
100
AcDbEntity
  8
PLAT-TEXT-LOWCONF
100
AcDbText
 10
271.37456172039003
 20
330.18374752034896
 30
0.0
 40
6.136610692169624
  1
wt
 50
90.0
  7
PLAT
 72
1
 11
271.37456172039003
 21
330.18374752034896
 31
0.0
100
AcDbText
 73
2
  0
TEXT
  5
F0
330
17
100
AcDbEntity
  8
PLAT-TEXT-LOWCONF
100
AcDbText
 10
336.5952412845939
 20
326.10058871197964
 30
0.0
 40
9.6153478153221
  1
6
 50
31.24907940339415
  7
PLAT
 72
1
 11
336.5952412845939
 21
326.10058871197964
 31
0.0
100
AcDbText
 73
2
  0
TEXT
  5
F1
330
17
100
AcDbEntity
  8
PLAT-TEXT-LOWCONF
100
AcDbText
 10
191.41128985488766
 20
326.6833223514412
 30
0.0
 40
8.72513114343704
  1
a3
 50
284.2994570837004
  7
PLAT
 72
1
 11
191.41128985488766
 21
326.6833223514412
 31
0.0
100
AcDbText
 73
2
  0
TEXT
  5
F2
330
17
100
AcDbEntity
  8
PLAT-TEXT-LOWCONF
100
AcDbText
 10
97.16300262601905
 20
324.38805964441093
 30
0.0
 40
9.204916038254437
  1
22
  7
PLAT
 72
1
 11
97.16300262601905
 21
324.38805964441093
 31
0.0
100
AcDbText
 73
2
  0
TEXT
  5
F3
330
17
100
AcDbEntity
  8
PLAT-TEXT-LOWCONF
100
AcDbText
 10
277.87597981435306
 20
324.4321757552796
 30
0.0
 40
6.079152870603055
  1
He
 50
11.414959385254349
  7
PLAT
 72
1
 11
277.87597981435306
 21
324.4321757552796
 31
0.0
100
AcDbText
 73
2
  0
TEXT
  5
F4
330
17
100
AcDbEntity
  8
PLAT-TEXT-UNASSOC
100
AcDbText
 10
202.84907565782925
 20
322.85390697136853
 30
0.0
 40
6.443441226778106
  1
29.
  7
PLAT
 72
1
 11
202.84907565782925
 21
322.85390697136853
 31
0.0
100
AcDbText
 73
2
  0
TEXT
  5
F5
330
17
100
AcDbEntity
  8
PLAT-TEXT-LOWCONF
100
AcDbText
 10
142.64546487483457
 20
308.09267167545266
 30
0.0
 40
13.015416860909351
  1
‘urve Oxts
 50
341.3907123395291
  7
PLAT
 72
1
 11
142.64546487483457
 21
308.09267167545266
 31
0.0
100
AcDbText
 73
2
  0
TEXT
  5
F6
330
17
100
AcDbEntity
  8
PLAT-TEXT-LOWCONF
100
AcDbText
 10
231.50225851317305
 20
305.3957935366429
 30
0.0
 40
12.334289565256107
  1
7075649",
 50
330.97502988301954
  7
PLAT
 72
1
 11
231.50225851317305
 21
305.3957935366429
 31
0.0
100
AcDbText
 73
2
  0
TEXT
  5
F7
330
17
100
AcDbEntity
  8
PLAT-TEXT-LOWCONF
100
AcDbText
 10
108.57444001371904
 20
297.93867532996285
 30
0.0
 40
14.72298699544602
  1
ee ey
 50
352.13488480935894
  7
PLAT
 72
1
 11
108.57444001371904
 21
297.93867532996285
 31
0.0
100
AcDbText
 73
2
  0
TEXT
  5
F8
330
17
100
AcDbEntity
  8
PLAT-TEXT-LOWCONF
100
AcDbText
 10
282.4545532479185
 20
317.74006472789387
 30
0.0
 40
6.443441226778106
  1
es |
  7
PLAT
 72
1
 11
282.4545532479185
 21
317.74006472789387
 31
0.0
100
AcDbText
 73
2
  0
TEXT
  5
F9
330
17
100
AcDbEntity
  8
PLAT-TEXT-LOWCONF
100
AcDbText
 10
251.26011556272294
 20
313.64899093311413
 30
0.0
 40
7.670763365212031
  1
q
 50
90.0
  7
PLAT
 72
1
 11
251.26011556272294
 21
313.64899093311413
 31
0.0
100
AcDbText
 73
2
  0
TEXT
  5
FA
330
17
100
AcDbEntity
  8
PLAT-TEXT-LOWCONF
100
AcDbText
 10
310.0693013626818
 20
313.4785295249983
 30
0.0
 40
4.772919427243041
  1
2 =
 50
90.0
  7
PLAT
 72
1
 11
310.0693013626818
 21
313.4785295249983
 31
0.0
100
AcDbText
 73
2
  0
TEXT
  5
FB
330
17
100
AcDbEntity
  8
PLAT-TEXT-LOWCONF
100
AcDbText
 10
287.5517583301542
 20
312.79895175855364
 30
0.0
 40
4.656847509510679
  1
“Ox
 50
2.775405874399894
  7
PLAT
 72
1
 11
287.5517583301542
 21
312.79895175855364
 31
0.0
100
AcDbText
 73
2
  0
TEXT
  5
FC
330
17
100
AcDbEntity
  8
PLAT-TEXT-LOWCONF
100
AcDbText
 10
257.7376490711242
 20
308.70561009775525
 30
0.0
 40
6.136610692169624
  1
5 1
 50
90.0
  7
PLAT
 72
1
 11
257.7376490711242
 21
308.70561009775525
 31
0.0
100
AcDbText
 73
2
  0
TEXT
  5
FD
330
17
100
AcDbEntity
  8
PLAT-TEXT-LOWCONF
100
AcDbText
 10
283.37904308617885
 20
287.1465371213878
 30
0.0
 40
14.72298699544602
  1
oar
 50
41.216554638430125
  7
PLAT
 72
1
 11
283.37904308617885
 21
287.1465371213878
 31
0.0
100
AcDbText
 73
2
  0
TEXT
  5
FE
330
17
100
AcDbEntity
  8
PLAT-TEXT-LOWCONF
100
AcDbText
 10
290.63670083747803
 20
306.8305346084812
 30
0.0
 40
7.159379140864561
  1
"2,
  7
PLAT
 72
1
 11
290.63670083747803
 21
306.8305346084812
 31
0.0
100
AcDbText
 73
2
  0
TEXT
  5
FF
330
17
100
AcDbEntity
  8
PLAT-TEXT-LOWCONF
100
AcDbText
 10
330.07514311345693
 20
294.80583655322755
 30
0.0
 40
16.358874439384465
  1
2%
 50
31.24907940339415
  7
PLAT
 72
1
 11
330.07514311345693
 21
294.80583655322755
 31
0.0
100
AcDbText
 73
2
  0
TEXT
  5
100
330
17
100
AcDbEntity
  8
PLAT-TEXT-LOWCONF
100
AcDbText
 10
266.229889552303
 20
301.047913800095
 30
0.0
 40
7.272683347599102
  1
70x
 50
348.9173936119845
  7
PLAT
 72
1
 11
266.229889552303
 21
301.047913800095
 31
0.0
100
AcDbText
 73
2
  0
TEXT
  5
101
330
17
100
AcDbEntity
  8
PLAT-TEXT-LOWCONF
100
AcDbText
 10
111.48517778461176
 20
284.7006214689345
 30
0.0
 40
14.72298699544602
  1
ree eb og e -_
 50
350.5805160666124
  7
PLAT
 72
1
 11
111.48517778461176
 21
284.7006214689345
 31
0.0
100
AcDbText
 73
2
  0
TEXT
  5
102
330
17
100
AcDbEntity
  8
PLAT-TEXT-LOWCONF
100
AcDbText
 10
332.7246514647139
 20
274.36497025007395
 30
0.0
 40
9.165609630187681
  1
Fz
 50
51.04850996385477
  7
PLAT
 72
1
 11
332.7246514647139
 21
274.36497025007395
 31
0.0
100
AcDbText
 73
2
  0
TEXT
  5
103
330
17
100
AcDbEntity
  8
PLAT-TEXT-LOWCONF
100
AcDbText
 10
182.3146998086376
 20
273.0308331262358
 30
0.0
 40
8.161136299198425
  1
Ce ws
 50
13.221362815185557
  7
PLAT
 72
1
 11
182.3146998086376
 21
273.0308331262358
 31
0.0
100
AcDbText
 73
2
  0
TEXT
  5
104
330
17
100
AcDbEntity
  8
PLAT-TEXT-LOWCONF
100
AcDbText
 10
2.178376650035318
 20
269.50671789928305
 30
0.0
 40
4.292342076700533
  1
"as
 50
89.42411542715644
  7
PLAT
 72
1
 11
2.178376650035318
 21
269.50671789928305
 31
0.0
100
AcDbText
 73
2
  0
TEXT
  5
105
330
17
100
AcDbEntity
  8
PLAT-TEXT-LOWCONF
100
AcDbText
 10
251.26011556272294
 20
271.8859459447375
 30
0.0
 40
4.295627484518737
  1
' rs
 50
90.0
  7
PLAT
 72
1
 11
251.26011556272294
 21
271.8859459447375
 31
0.0
100
AcDbText
 73
2
  0
TEXT
  5
106
330
17
100
AcDbEntity
  8
PLAT-TEXT-LOWCONF
100
AcDbText
 10
57.90899845109102
 20
263.9922733673172
 30
0.0
 40
12.562628169574861
  1
VF 49454
 50
355.2707032808236
  7
PLAT
 72
1
 11
57.90899845109102
 21
263.9922733673172
 31
0.0
100
AcDbText
 73
2
  0
TEXT
  5
107
330
17
100
AcDbEntity
  8
PLAT-TEXT-LOWCONF
100
AcDbText
 10
194.94817131650996
 20
268.4239753196639
 30
0.0
 40
7.184488234887198
  1
“O -
 50
4.26864651219546
  7
PLAT
 72
1
 11
194.94817131650996
 21
268.4239753196639
 31
0.0
100
AcDbText
 73
2
  0
TEXT
  5
108
330
17
100
AcDbEntity
  8
PLAT-TEXT-LOWCONF
100
AcDbText
 10
309.7283785464502
 20
266.0902580687995
 30
0.0
 40
6.750271761386586
  1
Se
  7
PLAT
 72
1
 11
309.7283785464502
 21
266.0902580687995
 31
0.0
100
AcDbText
 73
2
  0
TEXT
  5
109
330
17
100
AcDbEntity
  8
PLAT-TEXT-LOWCONF
100
AcDbText
 10
320.0855642190773
 20
260.06876321990865
 30
0.0
 40
7.362203604037738
  1
"Qs
 50
348.3211129065087
  7
PLAT
 72
1
 11
320.0855642190773
 21
260.06876321990865
 31
0.0
100
AcDbText
 73
2
  0
TEXT
  5
10A
330
17
100
AcDbEntity
  8
PLAT-TEXT-LOWCONF
100
AcDbText
 10
338.3658951099084
 20
257.39672625489254
 30
0.0
 40
11.966390849730766
  1
t
  7
PLAT
 72
1
 11
338.3658951099084
 21
257.39672625489254
 31
0.0
100
AcDbText
 73
2
  0
TEXT
  5
10B
330
17
100
AcDbEntity
  8
PLAT-TEXT-LOWCONF
100
AcDbText
 10
83.91582502733064
 20
217.6998089709503
 30
0.0
 40
12.50052070078667
  1
a WEI OED t
 50
71.744326963748
  7
PLAT
 72
1
 11
83.91582502733064
 21
217.6998089709503
 31
0.0
100
AcDbText
 73
2
  0
TEXT
  5
10C
330
17
100
AcDbEntity
  8
PLAT-TEXT-LOWCONF
100
AcDbText
 10
266.9425651093786
 20
255.52165076561852
 30
0.0
 40
6.136610692169624
  1
nw
  7
PLAT
 72
1
 11
266.9425651093786
 21
255.52165076561852
 31
0.0
100
AcDbText
 73
2
  0
TEXT
  5
10D
330
17
100
AcDbEntity
  8
PLAT-TEXT-LOWCONF
100
AcDbText
 10
1.701136008319395
 20
237.27717491897852
 30
0.0
 40
3.689541440121801
  1
www
 50
89.42411542715644
  7
PLAT
 72
1
 11
1.701136008319395
 21
237.27717491897852
 31
0.0
100
AcDbText
 73
2
  0
TEXT
  5
10E
330
17
100
AcDbEntity
  8
PLAT-TABLE
100
AcDbText
 10
160.51165215039342
 20
242.460052561276
 30
0.0
 40
10.100790633738896
  1
29.36"
 50
335.36883672766635
  7
PLAT
 72
1
 11
160.51165215039342
 21
242.460052561276
 31
0.0
100
AcDbText
 73
2
  0
TEXT
  5
10F
330
17
100
AcDbEntity
  8
PLAT-TEXT-LOWCONF
100
AcDbText
 10
113.30246744726665
 20
248.62994291998888
 30
0.0
 40
9.423104751383757
  1
x “a
 50
94.61896756158046
  7
PLAT
 72
1
 11
113.30246744726665
 21
248.62994291998888
 31
0.0
100
AcDbText
 73
2
  0
TEXT
  5
110
330
17
100
AcDbEntity
  8
PLAT-TEXT-LOWCONF
100
AcDbText
 10
235.11944562344007
 20
245.56834284536427
 30
0.0
 40
10.218584809441783
  1
AN
 50
284.77186126439653
  7
PLAT
 72
1
 11
235.11944562344007
 21
245.56834284536427
 31
0.0
100
AcDbText
 73
2
  0
TEXT
  5
111
330
17
100
AcDbEntity
  8
PLAT-TEXT-LOWCONF
100
AcDbText
 10
144.93310783163741
 20
235.4258889528506
 30
0.0
 40
12.320178805576779
  1
72122099;
 50
338.09824890642216
  7
PLAT
 72
1
 11
144.93310783163741
 21
235.4258889528506
 31
0.0
100
AcDbText
 73
2
  0
TEXT
  5
112
330
17
100
AcDbEntity
  8
PLAT-TEXT-LOWCONF
100
AcDbText
 10
246.82811895171153
 20
235.06628179171977
 30
0.0
 40
9.818577107471398
  1
a
  7
PLAT
 72
1
 11
246.82811895171153
 21
235.06628179171977
 31
0.0
100
AcDbText
 73
2
  0
TEXT
  5
113
330
17
100
AcDbEntity
  8
PLAT-TEXT-LOTNO
100
AcDbText
 10
43.297197661419005
 20
226.3727499778128
 30
0.0
 40
13.977835465497478
  1
26
  7
PLAT
 72
1
 11
43.297197661419005
 21
226.3727499778128
 31
0.0
100
AcDbText
 73
2
  0
TEXT
  5
114
330
17
100
AcDbEntity
  8
PLAT-TEXT-LOWCONF
100
AcDbText
 10
210.11058697463352
 20
219.85098605166095
 30
0.0
 40
7.576625815519843
  1
ary
 50
26.459220942138302
  7
PLAT
 72
1
 11
210.11058697463352
 21
219.85098605166095
 31
0.0
100
AcDbText
 73
2
  0
TEXT
  5
115
330
17
100
AcDbEntity
  8
PLAT-TEXT-LOWCONF
100
AcDbText
 10
160.74696193618553
 20
185.15779294940572
 30
0.0
 40
12.18485925129324
  1
WIHeTI9' EX
 50
54.72312032629395
  7
PLAT
 72
1
 11
160.74696193618553
 21
185.15779294940572
 31
0.0
100
AcDbText
 73
2
  0
TEXT
  5
116
330
17
100
AcDbEntity
  8
PLAT-TEXT-LOWCONF
100
AcDbText
 10
1.7080060532191226
 20
199.77730945906117
 30
0.0
 40
3.553848656114978
  1
Tv An
 50
89.42411542715644
  7
PLAT
 72
1
 11
1.7080060532191226
 21
199.77730945906117
 31
0.0
100
AcDbText
 73
2
  0
TEXT
  5
117
330
17
100
AcDbEntity
  8
PLAT-TEXT-LOTNO
100
AcDbText
 10
125.7186794169239
 20
202.03136887796722
 30
0.0
 40
15.552559138305408
  1
27
 50
12.294538044664819
  7
PLAT
 72
1
 11
125.7186794169239
 21
202.03136887796722
 31
0.0
100
AcDbText
 73
2
  0
TEXT
  5
118
330
17
100
AcDbEntity
  8
PLAT-TEXT-LOWCONF
100
AcDbText
 10
208.30384071753556
 20
198.7580018630495
 30
0.0
 40
3.7501509785481035
  1
4
  7
PLAT
 72
1
 11
208.30384071753556
 21
198.7580018630495
 31
0.0
100
AcDbText
 73
2
  0
TEXT
  5
119
330
17
100
AcDbEntity
  8
PLAT-TEXT-LOWCONF
100
AcDbText
 10
203.6982900555921
 20
187.8457780157895
 30
0.0
 40
8.581511154429208
  1
x
 50
359.87031833687644
  7
PLAT
 72
1
 11
203.6982900555921
 21
187.8457780157895
 31
0.0
100
AcDbText
 73
2
  0
TEXT
  5
11A
330
17
100
AcDbEntity
  8
PLAT-TEXT-LOWCONF
100
AcDbText
 10
211.15203530797598
 20
167.95560764681747
 30
0.0
 40
14.72298699544602
  1
oe
 50
19.489042962863266
  7
PLAT
 72
1
 11
211.15203530797598
 21
167.95560764681747
 31
0.0
100
AcDbText
 73
2
  0
TEXT
  5
11B
330
17
100
AcDbEntity
  8
PLAT-TEXT-LOWCONF
100
AcDbText
 10
325.5893864719894
 20
170.0307987565324
 30
0.0
 40
13.951155381865004
  1
Nv
 50
339.3406785465026
  7
PLAT
 72
1
 11
325.5893864719894
 21
170.0307987565324
 31
0.0
100
AcDbText
 73
2
  0
TEXT
  5
11C
330
17
100
AcDbEntity
  8
PLAT-TEXT-LOWCONF
100
AcDbText
 10
13.43293867477243
 20
131.22903625356912
 30
0.0
 40
11.770220786942692
  1
L REL2GOSIW™
 50
75.83217430118873
  7
PLAT
 72
1
 11
13.43293867477243
 21
131.22903625356912
 31
0.0
100
AcDbText
 73
2
  0
TEXT
  5
11D
330
17
100
AcDbEntity
  8
PLAT-TEXT-LOWCONF
100
AcDbText
 10
227.1602962753265
 20
140.08649482654823
 30
0.0
 40
9.195672703295807
  1
N.35%%d 18'20"€.
 50
52.48532572608451
  7
PLAT
 72
1
 11
227.1602962753265
 21
140.08649482654823
 31
0.0
100
AcDbText
 73
2
  0
TEXT
  5
11E
330
17
100
AcDbEntity
  8
PLAT-TEXT-LOWCONF
100
AcDbText
 10
70.36505234252743
 20
152.5164876446479
 30
0.0
 40
14.72298699544602
  1
cere
 50
343.10924067454516
  7
PLAT
 72
1
 11
70.36505234252743
 21
152.5164876446479
 31
0.0
100
AcDbText
 73
2
  0
TEXT
  5
11F
330
17
100
AcDbEntity
  8
PLAT-TEXT-LOWCONF
100
AcDbText
 10
197.16172713504255
 20
147.2005699688752
 30
0.0
 40
11.670983569718592
  1
R
 50
350.8361563846802
  7
PLAT
 72
1
 11
197.16172713504255
 21
147.2005699688752
 31
0.0
100
AcDbText
 73
2
  0
TEXT
  5
120
330
17
100
AcDbEntity
  8
PLAT-TEXT-LOWCONF
100
AcDbText
 10
339.04774074237173
 20
152.7334216717773
 30
0.0
 40
3.375135880693293
  1
a
  7
PLAT
 72
1
 11
339.04774074237173
 21
152.7334216717773
 31
0.0
100
AcDbText
 73
2
  0
TEXT
  5
121
330
17
100
AcDbEntity
  8
PLAT-TEXT-LOWCONF
100
AcDbText
 10
90.5261116794681
 20
107.17747493771688
 30
0.0
 40
9.78801054371911
  1
\ 2.910206 N &
 50
68.3750021115261
  7
PLAT
 72
1
 11
90.5261116794681
 21
107.17747493771688
 31
0.0
100
AcDbText
 73
2
  0
TEXT
  5
122
330
17
100
AcDbEntity
  8
PLAT-TEXT-LOWCONF
100
AcDbText
 10
126.48236482194058
 20
141.82389155236464
 30
0.0
 40
10.12540764207988
  1
. So:
  7
PLAT
 72
1
 11
126.48236482194058
 21
141.82389155236464
 31
0.0
100
AcDbText
 73
2
  0
TEXT
  5
123
330
17
100
AcDbEntity
  8
PLAT-TEXT-LOWCONF
100
AcDbText
 10
189.28325664739054
 20
133.13422724578993
 30
0.0
 40
8.584987236175206
  1
Wise
 50
87.77110770079776
  7
PLAT
 72
1
 11
189.28325664739054
 21
133.13422724578993
 31
0.0
100
AcDbText
 73
2
  0
TEXT
  5
124
330
17
100
AcDbEntity
  8
PLAT-TEXT-LOWCONF
100
AcDbText
 10
200.29215453609189
 20
139.77835465497478
 30
0.0
 40
6.443441226778106
  1
43
 50
90.0
  7
PLAT
 72
1
 11
200.29215453609189
 21
139.77835465497478
 31
0.0
100
AcDbText
 73
2
  0
TEXT
  5
125
330
17
100
AcDbEntity
  8
PLAT-TEXT-LOWCONF
100
AcDbText
 10
184.02072185709878
 20
102.54082263906359
 30
0.0
 40
8.86330181246907
  1
I! 6 5“ -- 85”
 50
322.14350799170506
  7
PLAT
 72
1
 11
184.02072185709878
 21
102.54082263906359
 31
0.0
100
AcDbText
 73
2
  0
TEXT
  5
126
330
17
100
AcDbEntity
  8
PLAT-TEXT-LOWCONF
100
AcDbText
 10
52.85971046563468
 20
117.22829747007637
 30
0.0
 40
16.358874439384465
  1
7
 50
18.738843223184006
  7
PLAT
 72
1
 11
52.85971046563468
 21
117.22829747007637
 31
0.0
100
AcDbText
 73
2
  0
TEXT
  5
127
330
17
100
AcDbEntity
  8
PLAT-TEXT-LOTNO
100
AcDbText
 10
260.56095213994723
 20
112.18062728767576
 30
0.0
 40
15.21094802149107
  1
29
 50
356.025944631913
  7
PLAT
 72
1
 11
260.56095213994723
 21
112.18062728767576
 31
0.0
100
AcDbText
 73
2
  0
TEXT
  5
128
330
17
100
AcDbEntity
  8
PLAT-TEXT-LOWCONF
100
AcDbText
 10
213.4844800579195
 20
100.31446236582393
 30
0.0
 40
10.883060814252286
  1
QL.
 50
321.22543348052045
  7
PLAT
 72
1
 11
213.4844800579195
 21
100.31446236582393
 31
0.0
100
AcDbText
 73
2
  0
TEXT
  5
129
330
17
100
AcDbEntity
  8
PLAT-TEXT-LOWCONF
100
AcDbText
 10
161.12132849029493
 20
71.03620416137474
 30
0.0
 40
12.182037456194557
  1
RbROSoLZ'N x
 50
59.67197173422568
  7
PLAT
 72
1
 11
161.12132849029493
 21
71.03620416137474
 31
0.0
100
AcDbText
 73
2
  0
TEXT
  5
12A
330
17
100
AcDbEntity
  8
PLAT-TEXT-LOTNO
100
AcDbText
 10
127.67559467875134
 20
87.10577954718549
 30
0.0
 40
15.682449546655706
  1
20
  7
PLAT
 72
1
 11
127.67559467875134
 21
87.10577954718549
 31
0.0
100
AcDbText
 73
2
  0
TEXT
  5
12B
330
17
100
AcDbEntity
  8
PLAT-TEXT-LOWCONF
100
AcDbText
 10
17.103245706240614
 20
87.21358559778525
 30
0.0
 40
8.675709334547129
  1
8 NN
 50
278.0536873191205
  7
PLAT
 72
1
 11
17.103245706240614
 21
87.21358559778525
 31
0.0
100
AcDbText
 73
2
  0
TEXT
  5
12C
330
17
100
AcDbEntity
  8
PLAT-TEXT-LOWCONF
100
AcDbText
 10
27.44428670664749
 20
85.57162687414309
 30
0.0
 40
7.670763365212031
  1
"24
  7
PLAT
 72
1
 11
27.44428670664749
 21
85.57162687414309
 31
0.0
100
AcDbText
 73
2
  0
TEXT
  5
12D
330
17
100
AcDbEntity
  8
PLAT-TEXT-LOWCONF
100
AcDbText
 10
245.51374145362206
 20
75.45828157393888
 30
0.0
 40
10.053375147974078
  1
TB...
 50
322.14350799170506
  7
PLAT
 72
1
 11
245.51374145362206
 21
75.45828157393888
 31
0.0
100
AcDbText
 73
2
  0
TEXT
  5
12E
330
17
100
AcDbEntity
  8
PLAT-TEXT-LOWCONF
100
AcDbText
 10
41.83969238244174
 20
81.18892621565863
 30
0.0
 40
9.081855891900656
  1
75%%dSN8
 50
342.1674348240268
  7
PLAT
 72
1
 11
41.83969238244174
 21
81.18892621565863
 31
0.0
100
AcDbText
 73
2
  0
TEXT
  5
12F
330
17
100
AcDbEntity
  8
PLAT-TEXT-LOWCONF
100
AcDbText
 10
251.60103837895457
 20
79.6054775900893
 30
0.0
 40
4.295627484518737
  1
x
 50
90.0
  7
PLAT
 72
1
 11
251.60103837895457
 21
79.6054775900893
 31
0.0
100
AcDbText
 73
2
  0
TEXT
  5
130
330
17
100
AcDbEntity
  8
PLAT-TEXT-LOWCONF
100
AcDbText
 10
63.01752763877121
 20
74.56853204298324
 30
0.0
 40
9.2632010129361
  1
140%
 50
348.6091005582797
  7
PLAT
 72
1
 11
63.01752763877121
 21
74.56853204298324
 31
0.0
100
AcDbText
 73
2
  0
TEXT
  5
131
330
17
100
AcDbEntity
  8
PLAT-TEXT-LOWCONF
100
AcDbText
 10
318.3970162240169
 20
66.65394148410402
 30
0.0
 40
14.471722302409486
  1
30.
 50
1.3895061893285288
  7
PLAT
 72
1
 11
318.3970162240169
 21
66.65394148410402
 31
0.0
100
AcDbText
 73
2
  0
TEXT
  5
132
330
17
100
AcDbEntity
  8
PLAT-TEXT-LOWCONF
100
AcDbText
 10
89.1861735689255
 20
62.918340848650274
 30
0.0
 40
9.026835239612865
  1
AY
 50
287.73283506550274
  7
PLAT
 72
1
 11
89.1861735689255
 21
62.918340848650274
 31
0.0
100
AcDbText
 73
2
  0
TEXT
  5
133
330
17
100
AcDbEntity
  8
PLAT-TEXT-LOWCONF
100
AcDbText
 10
98.18577107471398
 20
60.00241565676967
 30
0.0
 40
6.443441226778106
  1
29,
  7
PLAT
 72
1
 11
98.18577107471398
 21
60.00241565676967
 31
0.0
100
AcDbText
 73
2
  0
TEXT
  5
134
330
17
100
AcDbEntity
  8
PLAT-TEXT-LOWCONF
100
AcDbText
 10
115.68254978952454
 20
51.52482204499978
 30
0.0
 40
9.230131431388997
  1
76%%dDI 46
 50
333.6069787130188
  7
PLAT
 72
1
 11
115.68254978952454
 21
51.52482204499978
 31
0.0
100
AcDbText
 73
2
  0
TEXT
  5
135
330
17
100
AcDbEntity
  8
PLAT-TEXT-LOWCONF
100
AcDbText
 10
259.3673123954051
 20
52.549303455254886
 30
0.0
 40
4.536264802472744
  1
V A
 50
52.58878269958626
  7
PLAT
 72
1
 11
259.3673123954051
 21
52.549303455254886
 31
0.0
100
AcDbText
 73
2
  0
TEXT
  5
136
330
17
100
AcDbEntity
  8
PLAT-TEXT-MISC
100
AcDbText
 10
30.305023000455577
 20
45.112439565347586
 30
0.0
 40
12.650283837266679
  1
Curve
 50
342.1674348240268
  7
PLAT
 72
1
 11
30.305023000455577
 21
45.112439565347586
 31
0.0
100
AcDbText
 73
2
  0
TEXT
  5
137
330
17
100
AcDbEntity
  8
PLAT-TEXT-LOWCONF
100
AcDbText
 10
132.78943692222603
 20
43.46765906953485
 30
0.0
 40
6.8184563246329155
  1
“2
  7
PLAT
 72
1
 11
132.78943692222603
 21
43.46765906953485
 31
0.0
100
AcDbText
 73
2
  0
TEXT
  5
138
330
17
100
AcDbEntity
  8
PLAT-TEXT-LOTNO
100
AcDbText
 10
195.1588807157402
 20
38.09125025657195
 30
0.0
 40
14.80780466221784
  1
19
 50
13.927809925178849
  7
PLAT
 72
1
 11
195.1588807157402
 21
38.09125025657195
 31
0.0
100
AcDbText
 73
2
  0
TEXT
  5
139
330
17
100
AcDbEntity
  8
PLAT-TEXT-LOWCONF
100
AcDbText
 10
243.0386923179911
 20
22.962168923245372
 30
0.0
 40
14.72298699544602
  1
cae
 50
52.58878269958626
  7
PLAT
 72
1
 11
243.0386923179911
 21
22.962168923245372
 31
0.0
100
AcDbText
 73
2
  0
TEXT
  5
13A
330
17
100
AcDbEntity
  8
PLAT-TEXT-LOWCONF
100
AcDbText
 10
287.84681636737616
 20
20.911275723166483
 30
0.0
 40
13.289453619260296
  1
\—-94-!
 50
322.14350799170506
  7
PLAT
 72
1
 11
287.84681636737616
 21
20.911275723166483
 31
0.0
100
AcDbText
 73
2
  0
TEXT
  5
13B
330
17
100
AcDbEntity
  8
PLAT-TEXT-LOWCONF
100
AcDbText
 10
2.7273825298531733
 20
37.50150978548103
 30
0.0
 40
4.602458019127218
  1
a
  7
PLAT
 72
1
 11
2.7273825298531733
 21
37.50150978548103
 31
0.0
100
AcDbText
 73
2
  0
TEXT
  5
13C
330
17
100
AcDbEntity
  8
PLAT-TEXT-LOWCONF
100
AcDbText
 10
240.86196966765775
 20
35.45597288809117
 30
0.0
 40
6.47753350840127
  1
+ 1
 50
90.0
  7
PLAT
 72
1
 11
240.86196966765775
 21
35.45597288809117
 31
0.0
100
AcDbText
 73
2
  0
TEXT
  5
13D
330
17
100
AcDbEntity
  8
PLAT-TEXT-MISC
100
AcDbText
 10
80.60877867611356
 20
27.07986028174909
 30
0.0
 40
13.134037093584165
  1
Oats
 50
342.1674348240268
  7
PLAT
 72
1
 11
80.60877867611356
 21
27.07986028174909
 31
0.0
100
AcDbText
 73
2
  0
TEXT
  5
13E
330
17
100
AcDbEntity
  8
PLAT-TEXT-LOWCONF
100
AcDbText
 10
21.219377245333533
 20
30.460987195751358
 30
0.0
 40
9.820726078525986
  1
20%
 50
349.86818157558264
  7
PLAT
 72
1
 11
21.219377245333533
 21
30.460987195751358
 31
0.0
100
AcDbText
 73
2
  0
TEXT
  5
13F
330
17
100
AcDbEntity
  8
PLAT-TEXT-LOWCONF
100
AcDbText
 10
167.5635641778539
 20
21.648598830709517
 30
0.0
 40
14.114204591990136
  1
“ae,
  7
PLAT
 72
1
 11
167.5635641778539
 21
21.648598830709517
 31
0.0
100
AcDbText
 73
2
  0
TEXT
  5
140
330
17
100
AcDbEntity
  8
PLAT-TEXT-LOWCONF
100
AcDbText
 10
337.6840494774451
 20
24.20551995244685
 30
0.0
 40
9.886761670717728
  1
7
  7
PLAT
 72
1
 11
337.6840494774451
 21
24.20551995244685
 31
0.0
100
AcDbText
 73
2
  0
TEXT
  5
141
330
17
100
AcDbEntity
  8
PLAT-TEXT-LOWCONF
100
AcDbText
 10
49.06302901474058
 20
21.66341796813819
 30
0.0
 40
10.10214147403986
  1
“#00,
 50
349.1409875881676
  7
PLAT
 72
1
 11
49.06302901474058
 21
21.66341796813819
 31
0.0
100
AcDbText
 73
2
  0
TEXT
  5
142
330
17
100
AcDbEntity
  8
PLAT-TEXT-LOWCONF
100
AcDbText
 10
28.301382484685377
 20
11.084975225466223
 30
0.0
 40
9.968787955344057
  1
7.2 450
 50
342.70795267077574
  7
PLAT
 72
1
 11
28.301382484685377
 21
11.084975225466223
 31
0.0
100
AcDbText
 73
2
  0
TEXT
  5
143
330
17
100
AcDbEntity
  8
PLAT-TEXT-LOWCONF
100
AcDbText
 10
220.5869406360213
 20
12.89829237643059
 30
0.0
 40
9.020840143140505
  1
SY
 50
347.2274377507889
  7
PLAT
 72
1
 11
220.5869406360213
 21
12.89829237643059
 31
0.0
100
AcDbText
 73
2
  0
TEXT
  5
144
330
17
100
AcDbEntity
  8
PLAT-TEXT-LOWCONF
100
AcDbText
 10
320.597488982526
 20
11.732725821492977
 30
0.0
 40
14.72298699544602
  1
id
 50
322.14350799170506
  7
PLAT
 72
1
 11
320.597488982526
 21
11.732725821492977
 31
0.0
100
AcDbText
 73
2
  0
TEXT
  5
145
330
17
100
AcDbEntity
  8
PLAT-TEXT-LOWCONF
100
AcDbText
 10
180.18470874551048
 20
13.648323504436576
 30
0.0
 40
7.278394459416479
  1
214
 50
328.4715867564367
  7
PLAT
 72
1
 11
180.18470874551048
 21
13.648323504436576
 31
0.0
100
AcDbText
 73
2
  0
TEXT
  5
146
330
17
100
AcDbEntity
  8
PLAT-TEXT-LOWCONF
100
AcDbText
 10
86.89848311483385
 20
5.6515426650354925
 30
0.0
 40
9.74127633939691
  1
“= oF.
 50
340.9094791746977
  7
PLAT
 72
1
 11
86.89848311483385
 21
5.6515426650354925
 31
0.0
100
AcDbText
 73
2
  0
TEXT
  5
147
330
17
100
AcDbEntity
  8
PLAT-TEXT-LOWCONF
100
AcDbText
 10
196.79114244511464
 20
5.483403956892943
 30
0.0
 40
10.894975902452057
  1
Sos
 50
350.3599597671371
  7
PLAT
 72
1
 11
196.79114244511464
 21
5.483403956892943
 31
0.0
100
AcDbText
 73
2
  0
TEXT
  5
148
330
17
100
AcDbEntity
  8
PLAT-TEXT-LOWCONF
100
AcDbText
 10
11.932298568107598
 20
3.920612386663919
 30
0.0
 40
6.750271761386586
  1
oo
  7
PLAT
 72
1
 11
11.932298568107598
 21
3.920612386663919
 31
0.0
100
AcDbText
 73
2
  0
CIRCLE
  5
149
330
17
100
AcDbEntity
  8
PLAT-QA
100
AcDbCircle
 10
115.8924143082713
 20
159.73156759744256
 30
0.0
 40
35.27256830712966
  0
TEXT
  5
14A
330
17
100
AcDbEntity
  8
PLAT-QA
100
AcDbText
 10
115.8924143082713
 20
134.91880011707593
 30
0.0
 40
6.314455085192391
  1
MEAS 27.21
 72
1
 11
115.8924143082713
 21
134.91880011707593
 31
0.0
100
AcDbText
 73
3
  0
ENDSEC
  0
SECTION
  2
OBJECTS
  0
DICTIONARY
  5
A
330
0
100
AcDbDictionary
281
1
  3
ACAD_COLOR
350
B
  3
ACAD_GROUP
350
C
  3
ACAD_LAYOUT
350
D
  3
ACAD_MATERIAL
350
E
  3
ACAD_MLEADERSTYLE
350
F
  3
ACAD_MLINESTYLE
350
10
  3
ACAD_PLOTSETTINGS
350
11
  3
ACAD_PLOTSTYLENAME
350
12
  3
ACAD_SCALELIST
350
14
  3
ACAD_TABLESTYLE
350
15
  3
ACAD_VISUALSTYLE
350
16
  3
EZDXF_META
350
2D
  0
DICTIONARY
  5
B
330
A
100
AcDbDictionary
281
1
  0
DICTIONARY
  5
C
330
A
100
AcDbDictionary
281
1
  0
DICTIONARY
  5
D
330
A
100
AcDbDictionary
281
1
  3
Model
350
1A
  3
Layout1
350
1E
  0
DICTIONARY
  5
E
330
A
100
AcDbDictionary
281
1
  3
ByBlock
350
1F
  3
ByLayer
350
20
  3
Global
350
21
  0
DICTIONARY
  5
F
330
A
100
AcDbDictionary
281
1
  3
Standard
350
2C
  0
DICTIONARY
  5
10
330
A
100
AcDbDictionary
281
1
  3
Standard
350
22
  0
DICTIONARY
  5
11
330
A
100
AcDbDictionary
281
1
  0
ACDBDICTIONARYWDFLT
  5
12
330
A
100
AcDbDictionary
281
1
  3
Normal
350
13
100
AcDbDictionaryWithDefault
340
13
  0
ACDBPLACEHOLDER
  5
13
330
12
  0
DICTIONARY
  5
14
330
A
100
AcDbDictionary
281
1
  0
DICTIONARY
  5
15
330
A
100
AcDbDictionary
281
1
  0
DICTIONARY
  5
16
330
A
100
AcDbDictionary
281
1
  3
2dWireframe
350
5A
  3
Basic
350
5B
  3
Brighten
350
5C
  3
ColorChange
350
5D
  3
Conceptual
350
5E
  3
Dim
350
5F
  3
EdgeColorOff
350
60
  3
Facepattern
350
61
  3
Flat
350
62
  3
FlatWithEdges
350
63
  3
Gouraud
350
64
  3
GouraudWithEdges
350
65
  3
Hidden
350
66
  3
JitterOff
350
67
  3
Linepattern
350
68
  3
Modeling
350
69
  3
OverhangOff
350
6A
  3
Realistic
350
6B
  3
Shaded
350
6C
  3
Shaded with edges
350
6D
  3
Shades of Gray
350
6E
  3
Sketchy
350
6F
  3
Thicken
350
70
  3
Wireframe
350
71
  3
X-Ray
350
72
  0
LAYOUT
  5
1A
330
D
100
AcDbPlotSettings
  1

  4
A3
  6

 40
7.5
 41
20.0
 42
7.5
 43
20.0
 44
420.0
 45
297.0
 46
0.0
 47
0.0
 48
0.0
 49
0.0
140
0.0
141
0.0
142
1.0
143
1.0
 70
1024
 72
1
 73
0
 74
5
  7

 75
16
 76
0
 77
2
 78
300
147
1.0
148
0.0
149
0.0
100
AcDbLayout
  1
Model
 70
1
 71
0
 10
0.0
 20
0.0
 11
420.0
 21
297.0
 12
0.0
 22
0.0
 32
0.0
 14
1e+20
 24
1e+20
 34
1e+20
 15
-1e+20
 25
-1e+20
 35
-1e+20
146
0.0
 13
0.0
 23
0.0
 33
0.0
 16
1.0
 26
0.0
 36
0.0
 17
0.0
 27
1.0
 37
0.0
 76
1
330
17
  0
LAYOUT
  5
1E
330
D
100
AcDbPlotSettings
  1

  4
A3
  6

 40
7.5
 41
20.0
 42
7.5
 43
20.0
 44
420.0
 45
297.0
 46
0.0
 47
0.0
 48
0.0
 49
0.0
140
0.0
141
0.0
142
1.0
143
1.0
 70
0
 72
1
 73
0
 74
5
  7

 75
16
 76
0
 77
2
 78
300
147
1.0
148
0.0
149
0.0
100
AcDbLayout
  1
Layout1
 70
1
 71
1
 10
0.0
 20
0.0
 11
420.0
 21
297.0
 12
0.0
 22
0.0
 32
0.0
 14
1e+20
 24
1e+20
 34
1e+20
 15
-1e+20
 25
-1e+20
 35
-1e+20
146
0.0
 13
0.0
 23
0.0
 33
0.0
 16
1.0
 26
0.0
 36
0.0
 17
0.0
 27
1.0
 37
0.0
 76
1
330
1B
  0
MATERIAL
  5
1F
102
{ACAD_REACTORS
330
E
102
}
330
E
100
AcDbMaterial
  1
ByBlock
  2

 70
0
 40
1.0
 71
1
 41
1.0
 91
-1023410177
 42
1.0
 72
1
  3

 73
1
 74
1
 75
1
 44
0.5
 73
0
 45
1.0
 46
1.0
 77
1
  4

 78
1
 79
1
170
1
 48
1.0
171
1
  6

172
1
173
1
174
1
140
1.0
141
1.0
175
1
  7

176
1
177
1
178
1
143
1.0
179
1
  8

270
1
271
1
272
1
145
1.0
146
1.0
273
1
  9

274
1
275
1
276
1
 42
1.0
 72
1
  3

 73
1
 74
1
 75
1
 94
63
  0
MATERIAL
  5
20
102
{ACAD_REACTORS
330
E
102
}
330
E
100
AcDbMaterial
  1
ByLayer
  2

 70
0
 40
1.0
 71
1
 41
1.0
 91
-1023410177
 42
1.0
 72
1
  3

 73
1
 74
1
 75
1
 44
0.5
 73
0
 45
1.0
 46
1.0
 77
1
  4

 78
1
 79
1
170
1
 48
1.0
171
1
  6

172
1
173
1
174
1
140
1.0
141
1.0
175
1
  7

176
1
177
1
178
1
143
1.0
179
1
  8

270
1
271
1
272
1
145
1.0
146
1.0
273
1
  9

274
1
275
1
276
1
 42
1.0
 72
1
  3

 73
1
 74
1
 75
1
 94
63
  0
MATERIAL
  5
21
102
{ACAD_REACTORS
330
E
102
}
330
E
100
AcDbMaterial
  1
Global
  2

 70
0
 40
1.0
 71
1
 41
1.0
 91
-1023410177
 42
1.0
 72
1
  3

 73
1
 74
1
 75
1
 44
0.5
 73
0
 45
1.0
 46
1.0
 77
1
  4

 78
1
 79
1
170
1
 48
1.0
171
1
  6

172
1
173
1
174
1
140
1.0
141
1.0
175
1
  7

176
1
177
1
178
1
143
1.0
179
1
  8

270
1
271
1
272
1
145
1.0
146
1.0
273
1
  9

274
1
275
1
276
1
 42
1.0
 72
1
  3

 73
1
 74
1
 75
1
 94
63
  0
MLINESTYLE
  5
22
102
{ACAD_REACTORS
330
10
102
}
330
10
100
AcDbMlineStyle
  2
Standard
 70
0
  3

 62
256
 51
90.0
 52
90.0
 71
2
 49
0.5
 62
256
  6
BYLAYER
 49
-0.5
 62
256
  6
BYLAYER
  0
MLEADERSTYLE
  5
2C
102
{ACAD_REACTORS
330
F
102
}
330
F
100
AcDbMLeaderStyle
179
2
170
2
171
1
172
0
 90
2
 40
0.0
 41
0.0
173
1
 91
-1056964608
 92
-2
290
1
 42
2.0
291
1
 43
8.0
  3
Standard
 44
4.0
300

342
29
174
1
175
1
176
0
178
1
 93
-1056964608
 45
4.0
292
0
297
0
 46
4.0
 94
-1056964608
 47
1.0
 49
1.0
140
1.0
294
1
141
0.0
177
0
142
1.0
295
0
296
0
143
3.75
271
0
272
9
273
9
  0
DICTIONARY
  5
2D
330
A
100
AcDbDictionary
280
1
281
1
  3
CREATED_BY_EZDXF
350
2E
  3
WRITTEN_BY_EZDXF
350
14D
  0
DICTIONARYVAR
  5
2E
330
2D
100
DictionaryVariables
280
0
  1
1.4.4 @ 2026-09-24T07:00:18.037896+00:00
  0
VISUALSTYLE
  5
5A
102
{ACAD_REACTORS
330
16
102
}
330
16
100
AcDbVisualStyle
  2
2dWireframe
 70
4
 90
0
 40
0.6
 62
7
290
0
291
0
  0
VISUALSTYLE
  5
5B
102
{ACAD_REACTORS
330
16
102
}
330
16
100
AcDbVisualStyle
  2
Basic
 70
7
 90
1
 40
0.6
 62
7
290
0
291
1
  0
VISUALSTYLE
  5
5C
102
{ACAD_REACTORS
330
16
102
}
330
16
100
AcDbVisualStyle
  2
Brighten
 70
12
 90
2
 40
0.6
 62
7
290
0
291
1
  0
VISUALSTYLE
  5
5D
102
{ACAD_REACTORS
330
16
102
}
330
16
100
AcDbVisualStyle
  2
ColorChange
 70
16
 90
2
 40
0.6
 62
8
290
0
291
1
  0
VISUALSTYLE
  5
5E
102
{ACAD_REACTORS
330
16
102
}
330
16
100
AcDbVisualStyle
  2
Conceptual
 70
9
 90
3
 40
0.6
 62
7
290
0
291
0
  0
VISUALSTYLE
  5
5F
102
{ACAD_REACTORS
330
16
102
}
330
16
100
AcDbVisualStyle
  2
Dim
 70
11
 90
2
 40
0.6
 62
7
290
0
291
1
  0
VISUALSTYLE
  5
60
102
{ACAD_REACTORS
330
16
102
}
330
16
100
AcDbVisualStyle
  2
EdgeColorOff
 70
22
 90
2
 40
0.6
 62
7
290
0
291
1
  0
VISUALSTYLE
  5
61
102
{ACAD_REACTORS
330
16
102
}
330
16
100
AcDbVisualStyle
  2
Facepattern
 70
15
 90
2
 40
0.6
 62
7
290
0
291
1
  0
VISUALSTYLE
  5
62
102
{ACAD_REACTORS
330
16
102
}
330
16
100
AcDbVisualStyle
  2
Flat
 70
0
 90
2
 40
0.6
 62
7
290
0
291
1
  0
VISUALSTYLE
  5
63
102
{ACAD_REACTORS
330
16
102
}
330
16
100
AcDbVisualStyle
  2
FlatWithEdges
 70
1
 90
2
 40
0.6
 62
7
290
0
291
1
  0
VISUALSTYLE
  5
64
102
{ACAD_REACTORS
330
16
102
}
330
16
100
AcDbVisualStyle
  2
Gouraud
 70
2
 90
2
 40
0.6
 62
7
290
0
291
1
  0
VISUALSTYLE
  5
65
102
{ACAD_REACTORS
330
16
102
}
330
16
100
AcDbVisualStyle
  2
GouraudWithEdges
 70
3
 90
2
 40
0.6
 62
7
290
0
291
1
  0
VISUALSTYLE
  5
66
102
{ACAD_REACTORS
330
16
102
}
330
16
100
AcDbVisualStyle
  2
Hidden
 70
6
 90
1
 40
0.6
 62
7
290
0
291
0
  0
VISUALSTYLE
  5
67
102
{ACAD_REACTORS
330
16
102
}
330
16
100
AcDbVisualStyle
  2
JitterOff
 70
20
 90
2
 40
0.6
 62
7
290
0
291
1
  0
VISUALSTYLE
  5
68
102
{ACAD_REACTORS
330
16
102
}
330
16
100
AcDbVisualStyle
  2
Linepattern
 70
14
 90
2
 40
0.6
 62
7
290
0
291
1
  0
VISUALSTYLE
  5
69
102
{ACAD_REACTORS
330
16
102
}
330
16
100
AcDbVisualStyle
  2
Modeling
 70
10
 90
2
 40
0.6
 62
7
290
0
291
0
  0
VISUALSTYLE
  5
6A
102
{ACAD_REACTORS
330
16
102
}
330
16
100
AcDbVisualStyle
  2
OverhangOff
 70
21
 90
2
 40
0.6
 62
7
290
0
291
1
  0
VISUALSTYLE
  5
6B
102
{ACAD_REACTORS
330
16
102
}
330
16
100
AcDbVisualStyle
  2
Realistic
 70
8
 90
2
 40
0.6
 62
7
290
0
291
0
  0
VISUALSTYLE
  5
6C
102
{ACAD_REACTORS
330
16
102
}
330
16
100
AcDbVisualStyle
  2
Shaded
 70
27
 90
2
 40
0.6
 62
7
290
0
291
0
  0
VISUALSTYLE
  5
6D
102
{ACAD_REACTORS
330
16
102
}
330
16
100
AcDbVisualStyle
  2
Shaded with edges
 70
26
 90
2
 40
0.6
 62
7
290
0
291
0
  0
VISUALSTYLE
  5
6E
102
{ACAD_REACTORS
330
16
102
}
330
16
100
AcDbVisualStyle
  2
Shades of Gray
 70
23
 90
2
 40
0.6
 62
7
290
0
291
0
  0
VISUALSTYLE
  5
6F
102
{ACAD_REACTORS
330
16
102
}
330
16
100
AcDbVisualStyle
  2
Sketchy
 70
24
 90
1
 40
0.6
 62
7
290
0
291
0
  0
VISUALSTYLE
  5
70
102
{ACAD_REACTORS
330
16
102
}
330
16
100
AcDbVisualStyle
  2
Thicken
 70
13
 90
2
 40
0.6
 62
7
290
0
291
1
  0
VISUALSTYLE
  5
71
102
{ACAD_REACTORS
330
16
102
}
330
16
100
AcDbVisualStyle
  2
Wireframe
 70
5
 90
0
 40
0.6
 62
7
290
0
291
0
  0
VISUALSTYLE
  5
72
102
{ACAD_REACTORS
330
16
102
}
330
16
100
AcDbVisualStyle
  2
X-Ray
 70
25
 90
2
 40
0.5
 62
7
290
0
291
0
  0
DICTIONARYVAR
  5
14D
330
2D
100
DictionaryVariables
280
0
  1
1.4.4 @ 2026-09-24T07:00:18.057763+00:00
  0
ENDSEC
  0
EOF
