  0
SECTION
  2
HEADER
  9
$ACADVER
  1
AC1024
  9
$ACADMAINTVER
 70
6
  9
$DWGCODEPAGE
  3
ANSI_1252
  9
$LASTSAVEDBY
  1
ezdxf
  9
$INSBASE
 10
0.0
 20
0.0
 30
0.0
  9
$EXTMIN
 10
1e+20
 20
1e+20
 30
1e+20
  9
$EXTMAX
 10
-1e+20
 20
-1e+20
 30
-1e+20
  9
$LIMMIN
 10
0.0
 20
0.0
  9
$LIMMAX
 10
420.0
 20
297.0
  9
$ORTHOMODE
 70
0
  9
$REGENMODE
 70
1
  9
$FILLMODE
 70
1
  9
$QTEXTMODE
 70
0
  9
$MIRRTEXT
 70
1
  9
$LTSCALE
 40
1.0
  9
$ATTMODE
 70
1
  9
$TEXTSIZE
 40
2.5
  9
$TRACEWID
 40
1.0
  9
$TEXTSTYLE
  7
OpenSans
  9
$CLAYER
  8
0
  9
$CELTYPE
  6
ByLayer
  9
$CECOLOR
 62
256
  9
$CELTSCALE
 40
1.0
  9
$DISPSILH
 70
0
  9
$DIMSCALE
 40
1.0
  9
$DIMASZ
 40
0.175
  9
$DIMEXO
 40
0.125
  9
$DIMDLI
 40
3.75
  9
$DIMRND
 40
0.0
  9
$DIMDLE
 40
0.0
  9
$DIMEXE
 40
0.375
  9
$DIMTP
 40
0.0
  9
$DIMTM
 40
0.0
  9
$DIMTXT
 40
0.25
  9
$DIMCEN
 40
2.5
  9
$DIMTSZ
 40
0.0
  9
$DIMTOL
 70
0
  9
$DIMLIM
 70
0
  9
$DIMTIH
 70
0
  9
$DIMTOH
 70
0
  9
$DIMSE1
 70
0
  9
$DIMSE2
 70
0
  9
$DIMTAD
 70
1
  9
$DIMZIN
 70
12
  9
$DIMBLK
  1
ARCHTICK
  9
$DIMASO
 70
1
  9
$DIMSHO
 70
1
  9
$DIMPOST
  1

  9
$DIMAPOST
  1

  9
$DIMALT
 70
0
  9
$DIMALTD
 70
3
  9
$DIMALTF
 40
0.03937007874
  9
$DIMLFAC
 40
100.0
  9
$DIMTOFL
 70
1
  9
$DIMTVP
 40
0.0
  9
$DIMTIX
 70
0
  9
$DIMSOXD
 70
0
  9
$DIMSAH
 70
0
  9
$DIMBLK1
  1

  9
$DIMBLK2
  1

  9
$DIMSTYLE
  2
EZDXF
  9
$DIMCLRD
 70
0
  9
$DIMCLRE
 70
0
  9
$DIMCLRT
 70
0
  9
$DIMTFAC
 40
0.5
  9
$DIMGAP
 40
0.1
  9
$DIMJUST
 70
0
  9
$DIMSD1
 70
0
  9
$DIMSD2
 70
0
  9
$DIMTOLJ
 70
0
  9
$DIMTZIN
 70
8
  9
$DIMALTZ
 70
0
  9
$DIMALTTZ
 70
0
  9
$DIMUPT
 70
1
  9
$DIMDEC
 70
2
  9
$DIMTDEC
 70
2
  9
$DIMALTU
 70
2
  9
$DIMALTTD
 70
3
  9
$DIMTXSTY
  7
OpenSansCondensed-Light
  9
$DIMAUNIT
 70
0
  9
$DIMADEC
 70
2
  9
$DIMALTRND
 40
0.0
  9
$DIMAZIN
 70
3
  9
$DIMDSEP
 70
46
  9
$DIMATFIT
 70
3
  9
$DIMFRAC
 70
0
  9
$DIMLDRBLK
  1

  9
$DIMLUNIT
 70
2
  9
$DIMLWD
 70
-2
  9
$DIMLWE
 70
-2
  9
$DIMTMOVE
 70
2
  9
$DIMFXL
 40
1.0
  9
$DIMFXLON
 70
0
  9
$DIMJOGANG
 40
0.785398163397
  9
$DIMTFILL
 70
0
  9
$DIMTFILLCLR
 70
0
  9
$DIMARCSYM
 70
0
  9
$DIMLTYPE
  6

  9
$DIMLTEX1
  6

  9
$DIMLTEX2
  6

  9
$DIMTXTDIRECTION
 70
0
  9
$LUNITS
 70
2
  9
$LUPREC
 70
4
  9
$SKETCHINC
 40
1.0
  9
$FILLETRAD
 40
10.0
  9
$AUNITS
 70
0
  9
$AUPREC
 70
2
  9
$MENU
  1
.
  9
$ELEVATION
 40
0.0
  9
$PELEVATION
 40
0.0
  9
$THICKNESS
 40
0.0
  9
$LIMCHECK
 70
0
  9
$CHAMFERA
 40
0.0
  9
$CHAMFERB
 40
0.0
  9
$CHAMFERC
 40
0.0
  9
$CHAMFERD
 40
0.0
  9
$SKPOLY
 70
0
  9
$TDCREATE
 40
2461308.125023148
  9
$TDUCREATE
 40
2458532.153996898
  9
$TDUPDATE
 40
2461308.125023148
  9
$TDUUPDATE
 40
2458532.1544311
  9
$TDINDWG
 40
0.0
  9
$TDUSRTIMER
 40
0.0
  9
$USRTIMER
 70
1
  9
$ANGBASE
 50
0.0
  9
$ANGDIR
 70
0
  9
$PDMODE
 70
0
  9
$PDSIZE
 40
0.0
  9
$PLINEWID
 40
0.0
  9
$SPLFRAME
 70
0
  9
$SPLINETYPE
 70
6
  9
$SPLINESEGS
 70
8
  9
$HANDSEED
  5
292
  9
$SURFTAB1
 70
6
  9
$SURFTAB2
 70
6
  9
$SURFTYPE
 70
6
  9
$SURFU
 70
6
  9
$SURFV
 70
6
  9
$UCSBASE
  2

  9
$UCSNAME
  2

  9
$UCSORG
 10
0.0
 20
0.0
 30
0.0
  9
$UCSXDIR
 10
1.0
 20
0.0
 30
0.0
  9
$UCSYDIR
 10
0.0
 20
1.0
 30
0.0
  9
$UCSORTHOREF
  2

  9
$UCSORTHOVIEW
 70
0
  9
$UCSORGTOP
 10
0.0
 20
0.0
 30
0.0
  9
$UCSORGBOTTOM
 10
0.0
 20
0.0
 30
0.0
  9
$UCSORGLEFT
 10
0.0
 20
0.0
 30
0.0
  9
$UCSORGRIGHT
 10
0.0
 20
0.0
 30
0.0
  9
$UCSORGFRONT
 10
0.0
 20
0.0
 30
0.0
  9
$UCSORGBACK
 10
0.0
 20
0.0
 30
0.0
  9
$PUCSBASE
  2

  9
$PUCSNAME
  2

  9
$PUCSORG
 10
0.0
 20
0.0
 30
0.0
  9
$PUCSXDIR
 10
1.0
 20
0.0
 30
0.0
  9
$PUCSYDIR
 10
0.0
 20
1.0
 30
0.0
  9
$PUCSORTHOREF
  2

  9
$PUCSORTHOVIEW
 70
0
  9
$PUCSORGTOP
 10
0.0
 20
0.0
 30
0.0
  9
$PUCSORGBOTTOM
 10
0.0
 20
0.0
 30
0.0
  9
$PUCSORGLEFT
 10
0.0
 20
0.0
 30
0.0
  9
$PUCSORGRIGHT
 10
0.0
 20
0.0
 30
0.0
  9
$PUCSORGFRONT
 10
0.0
 20
0.0
 30
0.0
  9
$PUCSORGBACK
 10
0.0
 20
0.0
 30
0.0
  9
$USERI1
 70
0
  9
$USERI2
 70
0
  9
$USERI3
 70
0
  9
$USERI4
 70
0
  9
$USERI5
 70
0
  9
$USERR1
 40
0.0
  9
$USERR2
 40
0.0
  9
$USERR3
 40
0.0
  9
$USERR4
 40
0.0
  9
$USERR5
 40
0.0
  9
$WORLDVIEW
 70
1
  9
$SHADEDGE
 70
3
  9
$SHADEDIF
 70
70
  9
$TILEMODE
 70
1
  9
$MAXACTVP
 70
64
  9
$PINSBASE
 10
0.0
 20
0.0
 30
0.0
  9
$PLIMCHECK
 70
0
  9
$PEXTMIN
 10
1e+20
 20
1e+20
 30
1e+20
  9
$PEXTMAX
 10
-1e+20
 20
-1e+20
 30
-1e+20
  9
$PLIMMIN
 10
0.0
 20
0.0
  9
$PLIMMAX
 10
420.0
 20
297.0
  9
$UNITMODE
 70
0
  9
$VISRETAIN
 70
1
  9
$PLINEGEN
 70
0
  9
$PSLTSCALE
 70
1
  9
$TREEDEPTH
 70
3020
  9
$CMLSTYLE
  2
Standard
  9
$CMLJUST
 70
0
  9
$CMLSCALE
 40
20.0
  9
$PROXYGRAPHICS
 70
1
  9
$MEASUREMENT
 70
0
  9
$CELWEIGHT
370
-1
  9
$ENDCAPS
280
0
  9
$JOINSTYLE
280
0
  9
$LWDISPLAY
290
0
  9
$INSUNITS
 70
2
  9
$HYPERLINKBASE
  1

  9
$STYLESHEET
  1

  9
$XEDIT
290
1
  9
$CEPSNTYPE
380
0
  9
$PSTYLEMODE
290
1
  9
$FINGERPRINTGUID
  2
{C9574EE9-CA4B-49AA-A548-5CF5DDFA9F99}
  9
$VERSIONGUID
  2
{D1A32789-E6DB-459C-8CA8-9E6A60426BEF}
  9
$EXTNAMES
290
1
  9
$PSVPSCALE
 40
0.0
  9
$OLESTARTUP
290
0
  9
$SORTENTS
280
127
  9
$INDEXCTL
280
0
  9
$HIDETEXT
280
1
  9
$XCLIPFRAME
280
1
  9
$HALOGAP
280
0
  9
$OBSCOLOR
 70
257
  9
$OBSLTYPE
280
0
  9
$INTERSECTIONDISPLAY
280
0
  9
$INTERSECTIONCOLOR
 70
257
  9
$DIMASSOC
280
2
  9
$PROJECTNAME
  1

  9
$CAMERADISPLAY
290
0
  9
$LENSLENGTH
 40
50.0
  9
$CAMERAHEIGHT
 40
0.0
  9
$STEPSPERSEC
 40
24.0
  9
$STEPSIZE
 40
100.0
  9
$3DDWFPREC
 40
2.0
  9
$PSOLWIDTH
 40
0.005
  9
$PSOLHEIGHT
 40
0.08
  9
$LOFTANG1
 40
1.570796326795
  9
$LOFTANG2
 40
1.570796326795
  9
$LOFTMAG1
 40
0.0
  9
$LOFTMAG2
 40
0.0
  9
$LOFTPARAM
 70
7
  9
$LOFTNORMALS
280
1
  9
$LATITUDE
 40
37.795
  9
$LONGITUDE
 40
-122.394
  9
$NORTHDIRECTION
 40
0.0
  9
$TIMEZONE
 70
-8000
  9
$LIGHTGLYPHDISPLAY
280
1
  9
$TILEMODELIGHTSYNCH
280
1
  9
$CMATERIAL
347
20
  9
$SOLIDHIST
280
0
  9
$SHOWHIST
280
1
  9
$DWFFRAME
280
2
  9
$DGNFRAME
280
2
  9
$REALWORLDSCALE
290
1
  9
$INTERFERECOLOR
 62
256
  9
$CSHADOW
280
0
  9
$SHADOWPLANELOCATION
 40
0.0
  0
ENDSEC
  0
SECTION
  2
CLASSES
  0
CLASS
  1
ACDBDICTIONARYWDFLT
  2
AcDbDictionaryWithDefault
  3
ObjectDBX Classes
 90
0
 91
0
280
0
281
0
  0
CLASS
  1
SUN
  2
AcDbSun
  3
SCENEOE
 90
1153
 91
0
280
0
281
0
  0
CLASS
  1
VISUALSTYLE
  2
AcDbVisualStyle
  3
ObjectDBX Classes
 90
4095
 91
0
280
0
281
0
  0
CLASS
  1
MATERIAL
  2
AcDbMaterial
  3
ObjectDBX Classes
 90
1153
 91
0
280
0
281
0
  0
CLASS
  1
SCALE
  2
AcDbScale
  3
ObjectDBX Classes
 90
1153
 91
0
280
0
281
0
  0
CLASS
  1
TABLESTYLE
  2
AcDbTableStyle
  3
ObjectDBX Classes
 90
4095
 91
0
280
0
281
0
  0
CLASS
  1
MLEADERSTYLE
  2
AcDbMLeaderStyle
  3
ACDB_MLEADERSTYLE_CLASS
 90
4095
 91
0
280
0
281
0
  0
CLASS
  1
DICTIONARYVAR
  2
AcDbDictionaryVar
  3
ObjectDBX Classes
 90
0
 91
0
280
0
281
0
  0
CLASS
  1
CELLSTYLEMAP
  2
AcDbCellStyleMap
  3
ObjectDBX Classes
 90
1152
 91
0
280
0
281
0
  0
CLASS
  1
MENTALRAYRENDERSETTINGS
  2
AcDbMentalRayRenderSettings
  3
SCENEOE
 90
1024
 91
0
280
0
281
0
  0
CLASS
  1
ACDBDETAILVIEWSTYLE
  2
AcDbDetailViewStyle
  3
ObjectDBX Classes
 90
1025
 91
0
280
0
281
0
  0
CLASS
  1
ACDBSECTIONVIEWSTYLE
  2
AcDbSectionViewStyle
  3
ObjectDBX Classes
 90
1025
 91
0
280
0
281
0
  0
CLASS
  1
RASTERVARIABLES
  2
AcDbRasterVariables
  3
ISM
 90
0
 91
0
280
0
281
0
  0
CLASS
  1
LAYOUT
  2
AcDbLayout
  3
ObjectDBX Classes
 90
0
 91
0
280
0
281
0
  0
CLASS
  1
ACDBPLACEHOLDER
  2
AcDbPlaceHolder
  3
ObjectDBX Classes
 90
0
 91
0
280
0
281
0
  0
ENDSEC
  0
SECTION
  2
TABLES
  0
TABLE
  2
VPORT
  5
8
330
0
100
AcDbSymbolTable
 70
1
  0
VPORT
  5
23
330
8
100
AcDbSymbolTableRecord
100
AcDbViewportTableRecord
  2
*Active
 70
0
 10
0.0
 20
0.0
 11
1.0
 21
1.0
 12
0.0
 22
0.0
 13
0.0
 23
0.0
 14
0.5
 24
0.5
 15
0.5
 25
0.5
 16
0.0
 26
0.0
 36
1.0
 17
0.0
 27
0.0
 37
0.0
 40
1000.0
 41
1.34
 42
50.0
 43
0.0
 44
0.0
 50
0.0
 51
0.0
 71
0
 72
1000
 73
1
 74
3
 75
0
 76
0
 77
0
 78
0
281
0
 65
0
146
0.0
  0
ENDTAB
  0
TABLE
  2
LTYPE
  5
2
330
0
100
AcDbSymbolTable
 70
21
  0
LTYPE
  5
24
330
2
100
AcDbSymbolTableRecord
100
AcDbLinetypeTableRecord
  2
ByBlock
 70
0
  3

 72
65
 73
0
 40
0.0
  0
LTYPE
  5
25
330
2
100
AcDbSymbolTableRecord
100
AcDbLinetypeTableRecord
  2
ByLayer
 70
0
  3

 72
65
 73
0
 40
0.0
  0
LTYPE
  5
26
330
2
100
AcDbSymbolTableRecord
100
AcDbLinetypeTableRecord
  2
Continuous
 70
0
  3

 72
65
 73
0
 40
0.0
  0
LTYPE
  5
2F
330
2
100
AcDbSymbolTableRecord
100
AcDbLinetypeTableRecord
  2
CENTER
 70
0
  3
Center ____ _ ____ _ ____ _ ____ _ ____ _ ____
 72
65
 73
4
 40
5.08
 49
3.175
 74
0
 49
-0.635
 74
0
 49
0.635
 74
0
 49
-0.635
 74
0
  0
LTYPE
  5
30
330
2
100
AcDbSymbolTableRecord
100
AcDbLinetypeTableRecord
  2
CENTERX2
 70
0
  3
Center (2x) ________  __  ________  __  ________
 72
65
 73
4
 40
8.89
 49
6.35
 74
0
 49
-0.635
 74
0
 49
1.27
 74
0
 49
-0.635
 74
0
  0
LTYPE
  5
31
330
2
100
AcDbSymbolTableRecord
100
AcDbLinetypeTableRecord
  2
CENTER2
 70
0
  3
Center (.5x) ____ _ ____ _ ____ _ ____ _ ____
 72
65
 73
4
 40
2.54
 49
1.587
 74
0
 49
-0.318
 74
0
 49
0.318
 74
0
 49
-0.318
 74
0
  0
LTYPE
  5
32
330
2
100
AcDbSymbolTableRecord
100
AcDbLinetypeTableRecord
  2
DASHED
 70
0
  3
Dashed __ __ __ __ __ __ __ __ __ __ __ __ __ _
 72
65
 73
2
 40
1.524
 49
1.27
 74
0
 49
-0.254
 74
0
  0
LTYPE
  5
33
330
2
100
AcDbSymbolTableRecord
100
AcDbLinetypeTableRecord
  2
DASHEDX2
 70
0
  3
Dashed (2x) ____  ____  ____  ____  ____  ____
 72
65
 73
2
 40
3.048
 49
2.54
 74
0
 49
-0.508
 74
0
  0
LTYPE
  5
34
330
2
100
AcDbSymbolTableRecord
100
AcDbLinetypeTableRecord
  2
DASHED2
 70
0
  3
Dashed (.5x) _ _ _ _ _ _ _ _ _ _ _ _ _ _
 72
65
 73
2
 40
0.762
 49
0.635
 74
0
 49
-0.127
 74
0
  0
LTYPE
  5
35
330
2
100
AcDbSymbolTableRecord
100
AcDbLinetypeTableRecord
  2
PHANTOM
 70
0
  3
Phantom ______  __  __  ______  __  __  ______
 72
65
 73
6
 40
6.35
 49
3.175
 74
0
 49
-0.635
 74
0
 49
0.635
 74
0
 49
-0.635
 74
0
 49
0.635
 74
0
 49
-0.635
 74
0
  0
LTYPE
  5
36
330
2
100
AcDbSymbolTableRecord
100
AcDbLinetypeTableRecord
  2
PHANTOMX2
 70
0
  3
Phantom (2x)____________    ____    ____    ____________
 72
65
 73
6
 40
10.795
 49
6.35
 74
0
 49
-0.635
 74
0
 49
1.27
 74
0
 49
-0.635
 74
0
 49
1.27
 74
0
 49
-0.635
 74
0
  0
LTYPE
  5
37
330
2
100
AcDbSymbolTableRecord
100
AcDbLinetypeTableRecord
  2
PHANTOM2
 70
0
  3
Phantom (.5x) ___ _ _ ___ _ _ ___ _ _ ___ _ _ ___
 72
65
 73
6
 40
3.175
 49
1.587
 74
0
 49
-0.318
 74
0
 49
0.318
 74
0
 49
-0.318
 74
0
 49
0.318
 74
0
 49
-0.318
 74
0
  0
LTYPE
  5
38
330
2
100
AcDbSymbolTableRecord
100
AcDbLinetypeTableRecord
  2
DASHDOT
 70
0
  3
Dash dot __ . __ . __ . __ . __ . __ . __ . __
 72
65
 73
4
 40
3.556
 49
2.54
 74
0
 49
-0.508
 74
0
 49
0.0
 74
0
 49
-0.508
 74
0
  0
LTYPE
  5
39
330
2
100
AcDbSymbolTableRecord
100
AcDbLinetypeTableRecord
  2
DASHDOTX2
 70
0
  3
Dash dot (2x) ____  .  ____  .  ____  .  ____
 72
65
 73
4
 40
6.096
 49
5.08
 74
0
 49
-0.508
 74
0
 49
0.0
 74
0
 49
-0.508
 74
0
  0
LTYPE
  5
3A
330
2
100
AcDbSymbolTableRecord
100
AcDbLinetypeTableRecord
  2
DASHDOT2
 70
0
  3
Dash dot (.5x) _ . _ . _ . _ . _ . _ . _ . _
 72
65
 73
4
 40
1.778
 49
1.27
 74
0
 49
-0.254
 74
0
 49
0.0
 74
0
 49
-0.254
 74
0
  0
LTYPE
  5
3B
330
2
100
AcDbSymbolTableRecord
100
AcDbLinetypeTableRecord
  2
DOT
 70
0
  3
Dot .  .  .  .  .  .  .  .  .  .  .  .  .  .  .  .
 72
65
 73
2
 40
0.508
 49
0.0
 74
0
 49
-0.508
 74
0
  0
LTYPE
  5
3C
330
2
100
AcDbSymbolTableRecord
100
AcDbLinetypeTableRecord
  2
DOTX2
 70
0
  3
Dot (2x) .    .    .    .    .    .    .    . 
 72
65
 73
2
 40
1.016
 49
0.0
 74
0
 49
-1.016
 74
0
  0
LTYPE
  5
3D
330
2
100
AcDbSymbolTableRecord
100
AcDbLinetypeTableRecord
  2
DOT2
 70
0
  3
Dot (.5) . . . . . . . . . . . . . . . . . . . 
 72
65
 73
2
 40
0.254
 49
0.0
 74
0
 49
-0.254
 74
0
  0
LTYPE
  5
3E
330
2
100
AcDbSymbolTableRecord
100
AcDbLinetypeTableRecord
  2
DIVIDE
 70
0
  3
Divide __ . . __ . . __ . . __ . . __ . . __
 72
65
 73
6
 40
4.064
 49
2.54
 74
0
 49
-0.508
 74
0
 49
0.0
 74
0
 49
-0.508
 74
0
 49
0.0
 74
0
 49
-0.508
 74
0
  0
LTYPE
  5
3F
330
2
100
AcDbSymbolTableRecord
100
AcDbLinetypeTableRecord
  2
DIVIDEX2
 70
0
  3
Divide (2x) ____  . .  ____  . .  ____  . .  ____
 72
65
 73
6
 40
6.604
 49
5.08
 74
0
 49
-0.508
 74
0
 49
0.0
 74
0
 49
-0.508
 74
0
 49
0.0
 74
0
 49
-0.508
 74
0
  0
LTYPE
  5
40
330
2
100
AcDbSymbolTableRecord
100
AcDbLinetypeTableRecord
  2
DIVIDE2
 70
0
  3
Divide(.5x) _ . _ . _ . _ . _ . _ . _ . _
 72
65
 73
6
 40
2.032
 49
1.27
 74
0
 49
-0.254
 74
0
 49
0.0
 74
0
 49
-0.254
 74
0
 49
0.0
 74
0
 49
-0.254
 74
0
  0
ENDTAB
  0
TABLE
  2
LAYER
  5
1
330
0
100
AcDbSymbolTable
 70
18
  0
LAYER
  5
27
330
1
100
AcDbSymbolTableRecord
100
AcDbLayerTableRecord
  2
0
 70
0
 62
7
  6
Continuous
370
-3
390
13
347
21
  0
LAYER
  5
28
330
1
100
AcDbSymbolTableRecord
100
AcDbLayerTableRecord
  2
Defpoints
 70
0
 62
7
  6
Continuous
290
0
370
-3
390
13
347
21
  0
LAYER
  5
8B
330
1
100
AcDbSymbolTableRecord
100
AcDbLayerTableRecord
  2
PLAT-LINE
 70
0
 62
7
  6
CONTINUOUS
370
-3
390
13
347
21
  0
LAYER
  5
8C
330
1
100
AcDbSymbolTableRecord
100
AcDbLayerTableRecord
  2
PLAT-LINE-DASH
 70
0
 62
8
  6
DASHED
370
-3
390
13
347
21
  0
LAYER
  5
8D
330
1
100
AcDbSymbolTableRecord
100
AcDbLayerTableRecord
  2
PLAT-CURVE
 70
0
 62
4
  6
CONTINUOUS
370
-3
390
13
347
21
  0
LAYER
  5
8E
330
1
100
AcDbSymbolTableRecord
100
AcDbLayerTableRecord
  2
PLAT-TEXT-BRG
 70
0
 62
3
  6
CONTINUOUS
370
-3
390
13
347
21
  0
LAYER
  5
8F
330
1
100
AcDbSymbolTableRecord
100
AcDbLayerTableRecord
  2
PLAT-TEXT-DIST
 70
0
 62
2
  6
CONTINUOUS
370
-3
390
13
347
21
  0
LAYER
  5
90
330
1
100
AcDbSymbolTableRecord
100
AcDbLayerTableRecord
  2
PLAT-TEXT-CURVE
 70
0
 62
6
  6
CONTINUOUS
370
-3
390
13
347
21
  0
LAYER
  5
91
330
1
100
AcDbSymbolTableRecord
100
AcDbLayerTableRecord
  2
PLAT-TEXT-LOTNO
 70
0
 62
5
  6
CONTINUOUS
370
-3
390
13
347
21
  0
LAYER
  5
92
330
1
100
AcDbSymbolTableRecord
100
AcDbLayerTableRecord
  2
PLAT-TEXT-AREA
 70
0
 62
5
  6
CONTINUOUS
370
-3
390
13
347
21
  0
LAYER
  5
93
330
1
100
AcDbSymbolTableRecord
100
AcDbLayerTableRecord
  2
PLAT-TEXT-MISC
 70
0
 62
9
  6
CONTINUOUS
370
-3
390
13
347
21
  0
LAYER
  5
94
330
1
100
AcDbSymbolTableRecord
100
AcDbLayerTableRecord
  2
PLAT-TEXT-UNASSOC
 70
0
 62
30
  6
CONTINUOUS
370
-3
390
13
347
21
  0
LAYER
  5
95
330
1
100
AcDbSymbolTableRecord
100
AcDbLayerTableRecord
  2
PLAT-TABLE-CURVE
 70
0
 62
6
  6
CONTINUOUS
370
-3
390
13
347
21
  0
LAYER
  5
96
330
1
100
AcDbSymbolTableRecord
100
AcDbLayerTableRecord
  2
PLAT-TABLE
 70
0
 62
6
  6
CONTINUOUS
370
-3
390
13
347
21
  0
LAYER
  5
97
330
1
100
AcDbSymbolTableRecord
100
AcDbLayerTableRecord
  2
PLAT-NOTES
 70
0
 62
7
  6
CONTINUOUS
370
-3
390
13
347
21
  0
LAYER
  5
98
330
1
100
AcDbSymbolTableRecord
100
AcDbLayerTableRecord
  2
PLAT-QA
 70
0
 62
1
  6
CONTINUOUS
370
-3
390
13
347
21
  0
LAYER
  5
99
330
1
100
AcDbSymbolTableRecord
100
AcDbLayerTableRecord
  2
PLAT-MON
 70
0
 62
1
  6
CONTINUOUS
370
-3
390
13
347
21
  0
LAYER
  5
9A
330
1
100
AcDbSymbolTableRecord
100
AcDbLayerTableRecord
  2
PLAT-TEXT-LOWCONF
 70
1
 62
8
  6
CONTINUOUS
370
-3
390
13
347
21
  0
ENDTAB
  0
TABLE
  2
STYLE
  5
5
330
0
100
AcDbSymbolTable
 70
27
  0
STYLE
  5
29
330
5
100
AcDbSymbolTableRecord
100
AcDbTextStyleTableRecord
  2
Standard
 70
0
 40
0.0
 41
1.0
 50
0.0
 71
0
 42
2.5
  3
txt
  4

  0
STYLE
  5
41
330
5
100
AcDbSymbolTableRecord
100
AcDbTextStyleTableRecord
  2
OpenSans-Light
 70
0
 40
0.0
 41
1.0
 50
0.0
 71
0
 42
2.5
  3
OpenSans-Light.ttf
  4

  0
STYLE
  5
42
330
5
100
AcDbSymbolTableRecord
100
AcDbTextStyleTableRecord
  2
OpenSans-Light-Italic
 70
0
 40
0.0
 41
1.0
 50
0.0
 71
0
 42
2.5
  3
OpenSans-LightItalic.ttf
  4

  0
STYLE
  5
43
330
5
100
AcDbSymbolTableRecord
100
AcDbTextStyleTableRecord
  2
OpenSans
 70
0
 40
0.0
 41
1.0
 50
0.0
 71
0
 42
2.5
  3
OpenSans-Regular.ttf
  4

  0
STYLE
  5
44
330
5
100
AcDbSymbolTableRecord
100
AcDbTextStyleTableRecord
  2
OpenSans-Italic
 70
0
 40
0.0
 41
1.0
 50
0.0
 71
0
 42
2.5
  3
OpenSans-Italic.ttf
  4

  0
STYLE
  5
45
330
5
100
AcDbSymbolTableRecord
100
AcDbTextStyleTableRecord
  2
OpenSans-SemiBold
 70
0
 40
0.0
 41
1.0
 50
0.0
 71
0
 42
2.5
  3
OpenSans-SemiBold.ttf
  4

  0
STYLE
  5
46
330
5
100
AcDbSymbolTableRecord
100
AcDbTextStyleTableRecord
  2
OpenSans-SemiBoldItalic
 70
0
 40
0.0
 41
1.0
 50
0.0
 71
0
 42
2.5
  3
OpenSans-SemiBoldItalic.ttf
  4

  0
STYLE
  5
47
330
5
100
AcDbSymbolTableRecord
100
AcDbTextStyleTableRecord
  2
OpenSans-Bold
 70
0
 40
0.0
 41
1.0
 50
0.0
 71
0
 42
2.5
  3
OpenSans-Bold.ttf
  4

  0
STYLE
  5
48
330
5
100
AcDbSymbolTableRecord
100
AcDbTextStyleTableRecord
  2
OpenSans-BoldItalic
 70
0
 40
0.0
 41
1.0
 50
0.0
 71
0
 42
2.5
  3
OpenSans-BoldItalic.ttf
  4

  0
STYLE
  5
49
330
5
100
AcDbSymbolTableRecord
100
AcDbTextStyleTableRecord
  2
OpenSans-ExtraBold
 70
0
 40
0.0
 41
1.0
 50
0.0
 71
0
 42
2.5
  3
OpenSans-ExtraBold.ttf
  4

  0
STYLE
  5
4A
330
5
100
AcDbSymbolTableRecord
100
AcDbTextStyleTableRecord
  2
OpenSans-ExtraBoldItalic
 70
0
 40
0.0
 41
1.0
 50
0.0
 71
0
 42
2.5
  3
OpenSans-ExtraBoldItalic.ttf
  4

  0
STYLE
  5
4B
330
5
100
AcDbSymbolTableRecord
100
AcDbTextStyleTableRecord
  2
OpenSansCondensed-Bold
 70
0
 40
0.0
 41
1.0
 50
0.0
 71
0
 42
2.5
  3
OpenSansCondensed-Bold.ttf
  4

  0
STYLE
  5
4C
330
5
100
AcDbSymbolTableRecord
100
AcDbTextStyleTableRecord
  2
OpenSansCondensed-Light
 70
0
 40
0.0
 41
1.0
 50
0.0
 71
0
 42
2.5
  3
OpenSansCondensed-Light.ttf
  4

  0
STYLE
  5
4D
330
5
100
AcDbSymbolTableRecord
100
AcDbTextStyleTableRecord
  2
OpenSansCondensed-Italic
 70
0
 40
0.0
 41
1.0
 50
0.0
 71
0
 42
2.5
  3
OpenSansCondensed-LightItalic.ttf
  4

  0
STYLE
  5
4E
330
5
100
AcDbSymbolTableRecord
100
AcDbTextStyleTableRecord
  2
LiberationSans
 70
0
 40
0.0
 41
1.0
 50
0.0
 71
0
 42
2.5
  3
LiberationSans-Regular.ttf
  4

  0
STYLE
  5
4F
330
5
100
AcDbSymbolTableRecord
100
AcDbTextStyleTableRecord
  2
LiberationSans-Bold
 70
0
 40
0.0
 41
1.0
 50
0.0
 71
0
 42
2.5
  3
LiberationSans-Bold.ttf
  4

  0
STYLE
  5
50
330
5
100
AcDbSymbolTableRecord
100
AcDbTextStyleTableRecord
  2
LiberationSans-BoldItalic
 70
0
 40
0.0
 41
1.0
 50
0.0
 71
0
 42
2.5
  3
LiberationSans-BoldItalic.ttf
  4

  0
STYLE
  5
51
330
5
100
AcDbSymbolTableRecord
100
AcDbTextStyleTableRecord
  2
LiberationSans-Italic
 70
0
 40
0.0
 41
1.0
 50
0.0
 71
0
 42
2.5
  3
LiberationSans-Italic.ttf
  4

  0
STYLE
  5
52
330
5
100
AcDbSymbolTableRecord
100
AcDbTextStyleTableRecord
  2
LiberationSerif
 70
0
 40
0.0
 41
1.0
 50
0.0
 71
0
 42
2.5
  3
LiberationSerif-Regular.ttf
  4

  0
STYLE
  5
53
330
5
100
AcDbSymbolTableRecord
100
AcDbTextStyleTableRecord
  2
LiberationSerif-Bold
 70
0
 40
0.0
 41
1.0
 50
0.0
 71
0
 42
2.5
  3
LiberationSerif-Bold.ttf
  4

  0
STYLE
  5
54
330
5
100
AcDbSymbolTableRecord
100
AcDbTextStyleTableRecord
  2
LiberationSerif-BoldItalic
 70
0
 40
0.0
 41
1.0
 50
0.0
 71
0
 42
2.5
  3
LiberationSerif-BoldItalic.ttf
  4

  0
STYLE
  5
55
330
5
100
AcDbSymbolTableRecord
100
AcDbTextStyleTableRecord
  2
LiberationSerif-Italic
 70
0
 40
0.0
 41
1.0
 50
0.0
 71
0
 42
2.5
  3
LiberationSerif-Italic.ttf
  4

  0
STYLE
  5
56
330
5
100
AcDbSymbolTableRecord
100
AcDbTextStyleTableRecord
  2
LiberationMono
 70
0
 40
0.0
 41
1.0
 50
0.0
 71
0
 42
2.5
  3
LiberationMono-Regular.ttf
  4

  0
STYLE
  5
57
330
5
100
AcDbSymbolTableRecord
100
AcDbTextStyleTableRecord
  2
LiberationMono-Bold
 70
0
 40
0.0
 41
1.0
 50
0.0
 71
0
 42
2.5
  3
LiberationMono-Bold.ttf
  4

  0
STYLE
  5
58
330
5
100
AcDbSymbolTableRecord
100
AcDbTextStyleTableRecord
  2
LiberationMono-BoldItalic
 70
0
 40
0.0
 41
1.0
 50
0.0
 71
0
 42
2.5
  3
LiberationMono-BoldItalic.ttf
  4

  0
STYLE
  5
59
330
5
100
AcDbSymbolTableRecord
100
AcDbTextStyleTableRecord
  2
LiberationMono-Italic
 70
0
 40
0.0
 41
1.0
 50
0.0
 71
0
 42
2.5
  3
LiberationMono-Italic.ttf
  4

  0
STYLE
  5
9B
330
5
100
AcDbSymbolTableRecord
100
AcDbTextStyleTableRecord
  2
PLAT
 70
0
 40
0.0
 41
1.0
 50
0.0
 71
0
 42
2.5
  3
arial.ttf
  4

  0
ENDTAB
  0
TABLE
  2
VIEW
  5
7
330
0
100
AcDbSymbolTable
 70
0
  0
ENDTAB
  0
TABLE
  2
UCS
  5
6
330
0
100
AcDbSymbolTable
 70
0
  0
ENDTAB
  0
TABLE
  2
APPID
  5
3
330
0
100
AcDbSymbolTable
 70
4
  0
APPID
  5
2A
330
3
100
AcDbSymbolTableRecord
100
AcDbRegAppTableRecord
  2
ACAD
 70
0
  0
APPID
  5
8A
330
3
100
AcDbSymbolTableRecord
100
AcDbRegAppTableRecord
  2
RASTER2DXF
 70
0
  0
APPID
  5
28F
330
3
100
AcDbSymbolTableRecord
100
AcDbRegAppTableRecord
  2
HATCHBACKGROUNDCOLOR
 70
0
  0
APPID
  5
290
330
3
100
AcDbSymbolTableRecord
100
AcDbRegAppTableRecord
  2
EZDXF
 70
0
  0
ENDTAB
  0
TABLE
  2
DIMSTYLE
  5
4
330
0
100
AcDbSymbolTable
 70
12
100
AcDbDimStyleTable
  0
DIMSTYLE
105
2B
330
4
100
AcDbSymbolTableRecord
100
AcDbDimStyleTableRecord
  2
Standard
 70
0
 40
1.0
 41
2.5
 42
0.625
 43
3.75
 44
1.25
 45
0.0
 46
0.0
 47
0.0
 48
0.0
 49
2.5
140
2.5
141
2.5
142
0.0
143
0.03937007874
144
1.0
145
0.0
146
1.0
147
0.625
148
0.0
 69
0
 70
0
 71
0
 72
0
 73
0
 74
0
 75
0
 76
0
 77
1
 78
8
 79
3
170
0
171
3
172
1
173
0
174
0
175
0
176
0
177
0
178
0
179
2
271
2
272
2
273
2
274
3
275
0
276
0
277
2
278
44
279
0
280
0
281
0
282
0
283
0
284
8
285
0
286
0
288
0
289
3
290
0
371
-2
372
-2
  0
DIMSTYLE
105
73
330
4
100
AcDbSymbolTableRecord
100
AcDbDimStyleTableRecord
  2
EZDXF
 70
0
 40
1.0
 41
0.175
 42
0.125
 43
3.75
 44
0.375
 45
0.0
 46
0.0
 47
0.0
 48
0.0
 49
2.5
140
0.25
141
2.5
142
0.0
143
0.03937007874
144
100.0
145
0.0
146
0.5
147
0.1
148
0.0
 69
0
 70
0
 71
0
 72
0
 73
0
 74
0
 75
0
 76
0
 77
1
 78
12
 79
3
170
0
171
3
172
1
173
0
174
0
175
0
176
0
177
0
178
0
179
2
271
2
272
2
273
2
274
3
275
0
276
0
277
2
278
46
279
2
280
0
281
0
282
0
283
0
284
8
285
0
286
0
288
1
289
3
290
0
340
4C
342
74
371
-2
372
-2
  0
DIMSTYLE
105
7C
330
4
100
AcDbSymbolTableRecord
100
AcDbDimStyleTableRecord
  2
EZ_M_100_H25_CM
 70
0
 40
1.0
 41
0.25
 42
0.125
 43
3.75
 44
0.375
 45
0.0
 46
0.0
 47
0.0
 48
0.0
 49
2.5
140
0.25
141
2.5
142
0.125
143
0.03937007874
144
100.0
145
0.0
146
0.5
147
0.1
148
0.0
 69
0
 70
0
 71
0
 72
0
 73
0
 74
0
 75
0
 76
0
 77
1
 78
12
 79
3
170
0
171
3
172
1
173
0
174
0
175
0
176
0
177
0
178
0
179
2
271
2
272
2
273
2
274
3
275
0
276
0
277
2
278
46
279
2
280
0
281
0
282
0
283
0
284
8
285
0
286
0
288
1
289
3
290
0
340
4C
371
-2
372
-2
  0
DIMSTYLE
105
7D
330
4
100
AcDbSymbolTableRecord
100
AcDbDimStyleTableRecord
  2
EZ_M_50_H25_CM
 70
0
 40
1.0
 41
0.125
 42
0.0625
 43
3.75
 44
0.1875
 45
0.0
 46
0.0
 47
0.0
 48
0.0
 49
2.5
140
0.125
141
2.5
142
0.0625
143
0.03937007874
144
100.0
145
0.0
146
0.5
147
0.05
148
0.0
 69
0
 70
0
 71
0
 72
0
 73
0
 74
0
 75
0
 76
0
 77
1
 78
12
 79
3
170
0
171
3
172
1
173
0
174
0
175
0
176
0
177
0
178
0
179
2
271
2
272
2
273
2
274
3
275
0
276
0
277
2
278
46
279
2
280
0
281
0
282
0
283
0
284
8
285
0
286
0
288
1
289
3
290
0
340
4C
371
-2
372
-2
  0
DIMSTYLE
105
7E
330
4
100
AcDbSymbolTableRecord
100
AcDbDimStyleTableRecord
  2
EZ_M_25_H25_CM
 70
0
 40
1.0
 41
0.0625
 42
0.03125
 43
3.75
 44
0.09375
 45
0.0
 46
0.0
 47
0.0
 48
0.0
 49
2.5
140
0.0625
141
2.5
142
0.03125
143
0.03937007874
144
100.0
145
0.0
146
0.5
147
0.025
148
0.0
 69
0
 70
0
 71
0
 72
0
 73
0
 74
0
 75
0
 76
0
 77
1
 78
12
 79
3
170
0
171
3
172
1
173
0
174
0
175
0
176
0
177
0
178
0
179
2
271
2
272
2
273
2
274
3
275
0
276
0
277
2
278
46
279
2
280
0
281
0
282
0
283
0
284
8
285
0
286
0
288
1
289
3
290
0
340
4C
371
-2
372
-2
  0
DIMSTYLE
105
7F
330
4
100
AcDbSymbolTableRecord
100
AcDbDimStyleTableRecord
  2
EZ_M_20_H25_CM
 70
0
 40
1.0
 41
0.05
 42
0.025
 43
3.75
 44
0.07500000000000001
 45
0.0
 46
0.0
 47
0.0
 48
0.0
 49
2.5
140
0.05
141
2.5
142
0.025
143
0.03937007874
144
100.0
145
0.0
146
0.5
147
0.020000000000000004
148
0.0
 69
0
 70
0
 71
0
 72
0
 73
0
 74
0
 75
0
 76
0
 77
1
 78
12
 79
3
170
0
171
3
172
1
173
0
174
0
175
0
176
0
177
0
178
0
179
2
271
2
272
2
273
2
274
3
275
0
276
0
277
2
278
46
279
2
280
0
281
0
282
0
283
0
284
8
285
0
286
0
288
1
289
3
290
0
340
4C
371
-2
372
-2
  0
DIMSTYLE
105
80
330
4
100
AcDbSymbolTableRecord
100
AcDbDimStyleTableRecord
  2
EZ_M_10_H25_CM
 70
0
 40
1.0
 41
0.025
 42
0.0125
 43
3.75
 44
0.037500000000000006
 45
0.0
 46
0.0
 47
0.0
 48
0.0
 49
2.5
140
0.025
141
2.5
142
0.0125
143
0.03937007874
144
100.0
145
0.0
146
0.5
147
0.010000000000000002
148
0.0
 69
0
 70
0
 71
0
 72
0
 73
0
 74
0
 75
0
 76
0
 77
1
 78
12
 79
3
170
0
171
3
172
1
173
0
174
0
175
0
176
0
177
0
178
0
179
2
271
2
272
2
273
2
274
3
275
0
276
0
277
2
278
46
279
2
280
0
281
0
282
0
283
0
284
8
285
0
286
0
288
1
289
3
290
0
340
4C
371
-2
372
-2
  0
DIMSTYLE
105
81
330
4
100
AcDbSymbolTableRecord
100
AcDbDimStyleTableRecord
  2
EZ_M_5_H25_CM
 70
0
 40
1.0
 41
0.0125
 42
0.00625
 43
3.75
 44
0.018750000000000003
 45
0.0
 46
0.0
 47
0.0
 48
0.0
 49
2.5
140
0.0125
141
2.5
142
0.00625
143
0.03937007874
144
100.0
145
0.0
146
0.5
147
0.005000000000000001
148
0.0
 69
0
 70
0
 71
0
 72
0
 73
0
 74
0
 75
0
 76
0
 77
1
 78
12
 79
3
170
0
171
3
172
1
173
0
174
0
175
0
176
0
177
0
178
0
179
2
271
2
272
2
273
2
274
3
275
0
276
0
277
2
278
46
279
2
280
0
281
0
282
0
283
0
284
8
285
0
286
0
288
1
289
3
290
0
340
4C
371
-2
372
-2
  0
DIMSTYLE
105
82
330
4
100
AcDbSymbolTableRecord
100
AcDbDimStyleTableRecord
  2
EZ_M_1_H25_CM
 70
0
 40
1.0
 41
0.0025
 42
0.00125
 43
3.75
 44
0.00375
 45
0.0
 46
0.0
 47
0.0
 48
0.0
 49
2.5
140
0.0025
141
2.5
142
0.00125
143
0.03937007874
144
100.0
145
0.0
146
0.5
147
0.001
148
0.0
 69
0
 70
0
 71
0
 72
0
 73
0
 74
0
 75
0
 76
0
 77
1
 78
12
 79
3
170
0
171
3
172
1
173
0
174
0
175
0
176
0
177
0
178
0
179
2
271
2
272
2
273
2
274
3
275
0
276
0
277
2
278
46
279
2
280
0
281
0
282
0
283
0
284
8
285
0
286
0
288
1
289
3
290
0
340
4C
371
-2
372
-2
  0
DIMSTYLE
105
83
330
4
100
AcDbSymbolTableRecord
100
AcDbDimStyleTableRecord
  2
EZ_RADIUS
 70
0
 40
1.0
 41
0.25
 42
0.125
 43
3.75
 44
0.375
 45
0.0
 46
0.0
 47
0.0
 48
0.0
 49
2.5
140
0.25
141
0.0
142
0.0
143
0.03937007874
144
100.0
145
0.0
146
0.5
147
0.1
148
0.0
 69
0
 70
0
 71
0
 72
0
 73
0
 74
0
 75
0
 76
0
 77
1
 78
12
 79
3
170
0
171
3
172
0
173
0
174
0
175
0
176
0
177
0
178
0
179
2
271
2
272
2
273
2
274
3
275
0
276
0
277
2
278
46
279
1
280
0
281
0
282
0
283
0
284
8
285
0
286
0
288
1
289
3
290
0
340
4C
342
84
371
-2
372
-2
  0
DIMSTYLE
105
88
330
4
100
AcDbSymbolTableRecord
100
AcDbDimStyleTableRecord
  2
EZ_RADIUS_INSIDE
 70
0
 40
1.0
 41
0.25
 42
0.125
 43
3.75
 44
0.375
 45
0.0
 46
0.0
 47
0.0
 48
0.0
 49
2.5
140
0.25
141
0.0
142
0.0
143
0.03937007874
144
100.0
145
0.0
146
0.5
147
0.1
148
0.0
 69
0
 70
0
 71
0
 72
0
 73
0
 74
0
 75
0
 76
0
 77
0
 78
12
 79
3
170
0
171
3
172
0
173
0
174
1
175
0
176
0
177
0
178
0
179
2
271
2
272
2
273
2
274
3
275
0
276
0
277
2
278
46
279
0
280
0
281
0
282
0
283
0
284
8
285
0
286
0
288
1
289
0
290
0
340
4C
342
84
371
-2
372
-2
  0
DIMSTYLE
105
89
330
4
100
AcDbSymbolTableRecord
100
AcDbDimStyleTableRecord
  2
EZ_CURVED
 70
0
 40
1.0
 41
0.25
 42
0.125
 43
3.75
 44
0.375
 45
0.0
 46
0.0
 47
0.0
 48
0.0
 49
2.5
140
0.25
141
2.5
142
0.0
143
0.03937007874
144
100.0
145
0.0
146
0.5
147
0.1
148
0.0
 69
0
 70
0
 71
0
 72
0
 73
0
 74
0
 75
0
 76
0
 77
1
 78
12
 79
2
 90
2
170
0
171
3
172
1
173
0
174
0
175
0
176
0
177
0
178
0
179
2
271
2
272
2
273
2
274
3
275
0
276
0
277
2
278
46
279
2
280
0
281
0
282
0
283
0
284
8
285
0
286
0
288
1
289
3
290
0
340
4C
371
-2
372
-2
  0
ENDTAB
  0
TABLE
  2
BLOCK_RECORD
  5
9
330
0
100
AcDbSymbolTable
 70
5
  0
BLOCK_RECORD
  5
17
330
9
100
AcDbSymbolTableRecord
100
AcDbBlockTableRecord
  2
*Model_Space
340
1A
 70
0
280
1
281
0
  0
BLOCK_RECORD
  5
1B
330
9
100
AcDbSymbolTableRecord
100
AcDbBlockTableRecord
  2
*Paper_Space
340
1E
 70
0
280
1
281
0
  0
BLOCK_RECORD
  5
74
330
9
100
AcDbSymbolTableRecord
100
AcDbBlockTableRecord
  2
_ARCHTICK
340
0
 70
0
280
1
281
0
  0
BLOCK_RECORD
  5
78
330
9
100
AcDbSymbolTableRecord
100
AcDbBlockTableRecord
  2
_CLOSEDFILLED
340
0
 70
0
280
1
281
0
  0
BLOCK_RECORD
  5
84
330
9
100
AcDbSymbolTableRecord
100
AcDbBlockTableRecord
  2
_CLOSEDBLANK
340
0
 70
0
280
1
281
0
  0
ENDTAB
  0
ENDSEC
  0
SECTION
  2
BLOCKS
  0
BLOCK
  5
18
330
17
100
AcDbEntity
  8
0
100
AcDbBlockBegin
  2
*Model_Space
 70
0
 10
0.0
 20
0.0
 30
0.0
  3
*Model_Space
  1

  0
ENDBLK
  5
19
330
17
100
AcDbEntity
  8
0
100
AcDbBlockEnd
  0
BLOCK
  5
1C
330
1B
100
AcDbEntity
  8
0
100
AcDbBlockBegin
  2
*Paper_Space
 70
0
 10
0.0
 20
0.0
 30
0.0
  3
*Paper_Space
  1

  0
ENDBLK
  5
1D
330
1B
100
AcDbEntity
  8
0
100
AcDbBlockEnd
  0
BLOCK
  5
75
330
74
100
AcDbEntity
  8
0
100
AcDbBlockBegin
  2
_ARCHTICK
 70
0
 10
0.0
 20
0.0
 30
0.0
  3
_ARCHTICK
  1

  0
LWPOLYLINE
  5
77
330
74
100
AcDbEntity
  8
0
  6
BYBLOCK
 62
0
100
AcDbPolyline
 90
2
 70
0
 43
0.15
 10
-0.5
 20
-0.5
 10
0.5
 20
0.5
  0
ENDBLK
  5
76
330
74
100
AcDbEntity
  8
0
100
AcDbBlockEnd
  0
BLOCK
  5
79
330
78
100
AcDbEntity
  8
0
100
AcDbBlockBegin
  2
_CLOSEDFILLED
 70
0
 10
0.0
 20
0.0
 30
0.0
  3
_CLOSEDFILLED
  1

  0
SOLID
  5
7B
330
78
100
AcDbEntity
  8
0
  6
BYBLOCK
 62
0
100
AcDbTrace
 10
-1.0
 20
0.16439898372402537
 30
0.0
 11
0.0
 21
0.0
 31
0.0
 12
-1.0
 22
-0.16439898372402537
 32
0.0
 13
-1.0
 23
-0.16439898372402537
 33
0.0
  0
ENDBLK
  5
7A
330
78
100
AcDbEntity
  8
0
100
AcDbBlockEnd
  0
BLOCK
  5
85
330
84
100
AcDbEntity
  8
0
100
AcDbBlockBegin
  2
_CLOSEDBLANK
 70
0
 10
0.0
 20
0.0
 30
0.0
  3
_CLOSEDBLANK
  1

  0
LWPOLYLINE
  5
87
330
84
100
AcDbEntity
  8
0
  6
BYBLOCK
 62
0
100
AcDbPolyline
 90
3
 70
1
 10
-1.0
 20
0.16439898372402537
 10
0.0
 20
0.0
 10
-1.0
 20
-0.16439898372402537
  0
ENDBLK
  5
86
330
84
100
AcDbEntity
  8
0
100
AcDbBlockEnd
  0
ENDSEC
  0
SECTION
  2
ENTITIES
  0
LINE
  5
9C
330
17
100
AcDbEntity
  8
PLAT-LINE
100
AcDbLine
 10
294.63131102865634
 20
734.0422283740235
 30
0.0
 11
652.9714635060454
 21
747.7268328971793
 31
0.0
1001
RASTER2DXF
1000
line 0
1040
358.601
1040
0.97
  0
LINE
  5
9D
330
17
100
AcDbEntity
  8
PLAT-LINE
100
AcDbLine
 10
121.76966507872191
 20
727.2955161446853
 30
0.0
 11
125.57559999421855
 21
644.0727361344991
 31
0.0
1001
RASTER2DXF
1000
line 1
1040
83.31
1040
1.0
  0
LINE
  5
9E
330
17
100
AcDbEntity
  8
PLAT-LINE
100
AcDbLine
 10
125.57559999421855
 20
644.0727361344991
 30
0.0
 11
129.651939582684
 21
554.9371307313774
 31
0.0
1001
RASTER2DXF
1000
line 2
1040
89.229
1040
1.0
1000
distance=23
  0
LINE
  5
9F
330
17
100
AcDbEntity
  8
PLAT-LINE
100
AcDbLine
 10
129.651939582684
 20
554.9371307313774
 30
0.0
 11
135.61544442008764
 21
393.23077287536927
 31
0.0
1001
RASTER2DXF
1000
line 3
1040
161.816
1040
0.986
1000
distance=06
  0
LINE
  5
A0
330
17
100
AcDbEntity
  8
PLAT-LINE
100
AcDbLine
 10
221.64461356803002
 20
731.4964943936088
 30
0.0
 11
225.18854937700218
 21
647.8779098427187
 31
0.0
1001
RASTER2DXF
1000
line 4
1040
83.694
1040
1.0
1000
distance=26
  0
LINE
  5
A1
330
17
100
AcDbEntity
  8
PLAT-LINE
100
AcDbLine
 10
225.18854937700218
 20
647.8779098427187
 30
0.0
 11
228.96517892155322
 21
558.7689547400537
 31
0.0
1001
RASTER2DXF
1000
line 5
1040
89.189
1040
1.0
  0
LINE
  5
A2
330
17
100
AcDbEntity
  8
PLAT-LINE
100
AcDbLine
 10
228.96517892155322
 20
558.7689547400537
 30
0.0
 11
232.8191709606837
 21
467.83464425773377
 31
0.0
1001
RASTER2DXF
1000
line 6
1040
91.016
1040
1.0
1000
distance=196
  0
LINE
  5
A3
330
17
100
AcDbEntity
  8
PLAT-LINE
100
AcDbLine
 10
232.8191709606837
 20
467.83464425773377
 30
0.0
 11
235.45359408101774
 21
405.6758625233757
 31
0.0
1001
RASTER2DXF
1000
line 7
1040
62.215
1040
1.0
1000
distance=£60.43 %
  0
LINE
  5
A4
330
17
100
AcDbEntity
  8
PLAT-LINE
100
AcDbLine
 10
74.08929548203236
 20
723.5706436298105
 30
0.0
 11
93.18326610106422
 21
1.9117977230130236
 31
0.0
1001
RASTER2DXF
1000
line 8
1040
721.911
1040
0.999
1000
distance=12
  0
LINE
  5
A5
330
17
100
AcDbEntity
  8
PLAT-LINE
100
AcDbLine
 10
239.89841989681446
 20
712.646540744862
 30
0.0
 11
252.77345303629585
 21
697.4809921374462
 31
0.0
1001
RASTER2DXF
1000
line 9
1040
19.894
1040
0.976
  0
LINE
  5
A6
330
17
100
AcDbEntity
  8
PLAT-LINE
100
AcDbLine
 10
479.55392626915364
 20
720.7377200352544
 30
0.0
 11
469.77533403223117
 21
703.1111606484674
 31
0.0
1001
RASTER2DXF
1000
line 10
1040
20.157
1040
1.0
  0
LINE
  5
A7
330
17
100
AcDbEntity
  8
PLAT-LINE
100
AcDbLine
 10
301.1330693866144
 20
674.3023917648728
 30
0.0
 11
378.52008458794245
 21
677.389112043908
 31
0.0
1001
RASTER2DXF
1000
line 11
1040
77.449
1040
0.992
1000
distance=93.50'
  0
LINE
  5
A8
330
17
100
AcDbEntity
  8
PLAT-LINE
100
AcDbLine
 10
378.52008458794245
 20
677.389112043908
 30
0.0
 11
452.44380160814865
 21
680.3376924463735
 31
0.0
1001
RASTER2DXF
1000
line 12
1040
73.982
1040
0.992
1000
distance=75°
  0
LINE
  5
A9
330
17
100
AcDbEntity
  8
PLAT-LINE
100
AcDbLine
 10
452.44380160814865
 20
680.3376924463735
 30
0.0
 11
528.0106703858498
 21
683.3518129118352
 31
0.0
1001
RASTER2DXF
1000
line 13
1040
75.627
1040
0.992
1000
distance=75°
  0
LINE
  5
AA
330
17
100
AcDbEntity
  8
PLAT-LINE
100
AcDbLine
 10
528.0106703858498
 20
683.3518129118352
 30
0.0
 11
603.896829613808
 21
686.3786688511377
 31
0.0
1001
RASTER2DXF
1000
line 14
1040
75.947
1040
0.992
1000
distance=75°
  0
LINE
  5
AB
330
17
100
AcDbEntity
  8
PLAT-LINE
100
AcDbLine
 10
603.896829613808
 20
686.3786688511377
 30
0.0
 11
655.4657206276038
 21
688.4355868139965
 31
0.0
1001
RASTER2DXF
1000
line 15
1040
51.61
1040
0.992
1000
distance=75°
  0
LINE
  5
AC
330
17
100
AcDbEntity
  8
PLAT-LINE
100
AcDbLine
 10
285.35553565897663
 20
638.9249824950696
 30
0.0
 11
288.6016399907078
 21
570.9972689451879
 31
0.0
1001
RASTER2DXF
1000
line 16
1040
68.005
1040
1.0
1000
distance=100°
  0
LINE
  5
AD
330
17
100
AcDbEntity
  8
PLAT-LINE
100
AcDbLine
 10
288.6016399907078
 20
570.9972689451879
 30
0.0
 11
288.83235430848475
 21
566.1693600155169
 31
0.0
1001
RASTER2DXF
1000
line 17
1040
4.833
1040
1.0
  0
LINE
  5
AE
330
17
100
AcDbEntity
  8
PLAT-LINE
100
AcDbLine
 10
288.83235430848475
 20
566.1693600155169
 30
0.0
 11
292.1295231999953
 21
497.17307366736196
 31
0.0
1001
RASTER2DXF
1000
line 18
1040
69.075
1040
1.0
  0
LINE
  5
AF
330
17
100
AcDbEntity
  8
PLAT-LINE
100
AcDbLine
 10
378.493999041786
 20
678.0431015131358
 30
0.0
 11
386.3040933100991
 21
482.6164941344274
 31
0.0
1001
RASTER2DXF
1000
line 19
1040
195.583
1040
1.0
1000
distance=400°
  0
LINE
  5
B0
330
17
100
AcDbEntity
  8
PLAT-LINE
100
AcDbLine
 10
603.8919723331302
 20
686.5004455006818
 30
0.0
 11
607.8886623031894
 21
582.840383733042
 31
0.0
1001
RASTER2DXF
1000
line 20
1040
103.737
1040
1.0
  0
LINE
  5
B1
330
17
100
AcDbEntity
  8
PLAT-LINE
100
AcDbLine
 10
456.5953754642199
 20
577.2242693138191
 30
0.0
 11
452.4246789466939
 21
680.817115769159
 31
0.0
1001
RASTER2DXF
1000
line 21
1040
103.677
1040
1.0
  0
LINE
  5
B2
330
17
100
AcDbEntity
  8
PLAT-LINE
100
AcDbLine
 10
527.9986653777787
 20
683.6527898900247
 30
0.0
 11
532.1041018887181
 21
575.5656760562831
 31
0.0
1001
RASTER2DXF
1000
line 22
1040
108.165
1040
1.0
  0
LINE
  5
B3
330
17
100
AcDbEntity
  8
PLAT-LINE
100
AcDbLine
 10
88.84630308128459
 20
659.0246186367626
 30
0.0
 11
107.01153033436125
 21
644.5770437760684
 31
0.0
1001
RASTER2DXF
1000
line 23
1040
23.21
1040
1.0
  0
LINE
  5
B4
330
17
100
AcDbEntity
  8
PLAT-LINE
100
AcDbLine
 10
125.57559999421855
 20
644.0727361344991
 30
0.0
 11
225.18854937700218
 21
647.8779098427187
 31
0.0
1001
RASTER2DXF
1000
line 24
1040
99.686
1040
0.923
  0
LINE
  5
B5
330
17
100
AcDbEntity
  8
PLAT-LINE-DASH
100
AcDbLine
 10
516.4392388543291
 20
583.742638000075
 30
0.0
 11
632.8831577403912
 21
587.9744144127055
 31
0.0
1001
RASTER2DXF
1000
line 25
1040
116.521
1040
0.798
1000
distance=75'
  0
LINE
  5
B6
330
17
100
AcDbEntity
  8
PLAT-LINE
100
AcDbLine
 10
287.7535427848948
 20
570.9567403910876
 30
0.0
 11
456.5953754642199
 21
577.2242693138191
 31
0.0
1001
RASTER2DXF
1000
line 26
1040
168.958
1040
0.974
1000
distance=9268.
  0
LINE
  5
B7
330
17
100
AcDbEntity
  8
PLAT-LINE
100
AcDbLine
 10
456.5953754642199
 20
577.2242693138191
 30
0.0
 11
466.9867502418404
 21
577.6100045367327
 31
0.0
1001
RASTER2DXF
1000
line 27
1040
10.399
1040
0.974
  0
LINE
  5
B8
330
17
100
AcDbEntity
  8
PLAT-LINE
100
AcDbLine
 10
466.9867502418404
 20
577.6100045367327
 30
0.0
 11
580.8248101527327
 21
581.8357542912632
 31
0.0
1001
RASTER2DXF
1000
line 28
1040
113.916
1040
0.974
1000
distance=75
  0
LINE
  5
B9
330
17
100
AcDbEntity
  8
PLAT-LINE
100
AcDbLine
 10
580.8248101527327
 20
581.8357542912632
 30
0.0
 11
607.8886623031894
 21
582.840383733042
 31
0.0
1001
RASTER2DXF
1000
line 29
1040
27.082
1040
0.974
  0
LINE
  5
BA
330
17
100
AcDbEntity
  8
PLAT-LINE
100
AcDbLine
 10
607.8886623031894
 20
582.840383733042
 30
0.0
 11
659.82332362072
 21
584.7682353011903
 31
0.0
1001
RASTER2DXF
1000
line 30
1040
51.97
1040
0.974
1000
distance=——110—
  0
LINE
  5
BB
330
17
100
AcDbEntity
  8
PLAT-LINE
100
AcDbLine
 10
466.9867502418404
 20
577.6100045367327
 30
0.0
 11
470.86451093503933
 21
485.4099530641273
 31
0.0
1001
RASTER2DXF
1000
line 31
1040
92.282
1040
0.994
1000
bearing=N 02°24'30" W
1000
distance=100°
  0
LINE
  5
BC
330
17
100
AcDbEntity
  8
PLAT-LINE
100
AcDbLine
 10
470.86451093503933
 20
485.4099530641273
 30
0.0
 11
471.5594596999623
 21
468.88641874466725
 31
0.0
1001
RASTER2DXF
1000
line 32
1040
16.538
1040
0.994
  0
LINE
  5
BD
330
17
100
AcDbEntity
  8
PLAT-LINE
100
AcDbLine
 10
364.9255226647628
 20
568.6616839193293
 30
0.0
 11
287.98980338964293
 21
566.1290965053172
 31
0.0
1001
RASTER2DXF
1000
line 33
1040
76.977
1040
0.822
  0
LINE
  5
BE
330
17
100
AcDbEntity
  8
PLAT-LINE
100
AcDbLine
 10
326.47670482293796
 20
481.3746304890999
 30
0.0
 11
386.29205739746345
 21
483.04698453249875
 31
0.0
1001
RASTER2DXF
1000
line 34
1040
59.839
1040
0.923
1000
distance=93.50'
  0
LINE
  5
BF
330
17
100
AcDbEntity
  8
PLAT-LINE
100
AcDbLine
 10
386.29205739746345
 20
483.04698453249875
 30
0.0
 11
470.97512562095756
 21
485.41460530969863
 31
0.0
1001
RASTER2DXF
1000
line 35
1040
84.716
1040
0.923
1000
distance=89.76"
1000
bearing=N 87°35'30" E
  0
LINE
  5
C0
330
17
100
AcDbEntity
  8
PLAT-LINE
100
AcDbLine
 10
563.6705884191233
 20
576.3360569254763
 30
0.0
 11
532.1041018887181
 21
575.5656760562831
 31
0.0
1001
RASTER2DXF
1000
line 36
1040
31.576
1040
1.0
  0
LINE
  5
C1
330
17
100
AcDbEntity
  8
PLAT-LINE
100
AcDbLine
 10
580.8248101527327
 20
581.8357542912632
 30
0.0
 11
560.0207391735404
 21
478.40524998553906
 31
0.0
1001
RASTER2DXF
1000
line 37
1040
105.502
1040
1.0
1000
distance=2.21"
  0
LINE
  5
C2
330
17
100
AcDbEntity
  8
PLAT-LINE
100
AcDbLine
 10
228.96517892155322
 20
558.7689547400539
 30
0.0
 11
129.651939582684
 21
554.9371307313774
 31
0.0
1001
RASTER2DXF
1000
line 38
1040
99.387
1040
1.0
  0
LINE
  5
C3
330
17
100
AcDbEntity
  8
PLAT-LINE
100
AcDbLine
 10
663.9450992791999
 20
517.8939077071681
 30
0.0
 11
637.4810028645566
 21
454.9879202239114
 31
0.0
1001
RASTER2DXF
1000
line 39
1040
68.246
1040
0.996
  0
LINE
  5
C4
330
17
100
AcDbEntity
  8
PLAT-LINE
100
AcDbLine
 10
216.27618070202294
 20
490.54768697280167
 30
0.0
 11
204.78720990364948
 21
466.88689553981465
 31
0.0
1001
RASTER2DXF
1000
line 40
1040
26.303
1040
0.987
  0
LINE
  5
C5
330
17
100
AcDbEntity
  8
PLAT-LINE
100
AcDbLine
 10
151.12745931163644
 20
465.07268212377966
 30
0.0
 11
204.78720990364948
 21
466.88689553981465
 31
0.0
1001
RASTER2DXF
1000
line 41
1040
53.69
1040
1.0
  0
LINE
  5
C6
330
17
100
AcDbEntity
  8
PLAT-LINE
100
AcDbLine
 10
204.78720990364948
 20
466.88689553981465
 30
0.0
 11
232.8191709606837
 21
467.8346442577338
 31
0.0
1001
RASTER2DXF
1000
line 42
1040
28.048
1040
1.0
  0
LINE
  5
C7
330
17
100
AcDbEntity
  8
PLAT-LINE
100
AcDbLine
 10
135.61544442008764
 20
393.23077287536927
 30
0.0
 11
138.23835022826967
 21
242.9106309903918
 31
0.0
1001
RASTER2DXF
1000
line 43
1040
150.343
1040
0.986
1000
distance=— 75!
  0
LINE
  5
C8
330
17
100
AcDbEntity
  8
PLAT-LINE
100
AcDbLine
 10
138.23835022826967
 20
242.9106309903918
 30
0.0
 11
139.5592527657889
 21
167.2089964762139
 31
0.0
1001
RASTER2DXF
1000
line 44
1040
75.713
1040
0.986
1000
distance=75°—
  0
LINE
  5
C9
330
17
100
AcDbEntity
  8
PLAT-LINE
100
AcDbLine
 10
139.5592527657889
 20
167.2089964762139
 30
0.0
 11
140.85479604086566
 21
92.96071492520599
 31
0.0
1001
RASTER2DXF
1000
line 45
1040
74.26
1040
0.986
1000
distance=73
  0
LINE
  5
CA
330
17
100
AcDbEntity
  8
PLAT-LINE
100
AcDbLine
 10
140.85479604086566
 20
92.96071492520599
 30
0.0
 11
141.55585239128743
 21
52.78279860963602
 31
0.0
1001
RASTER2DXF
1000
line 46
1040
40.184
1040
0.986
1000
distance=“40°
  0
LINE
  5
CB
330
17
100
AcDbEntity
  8
PLAT-LINE
100
AcDbLine
 10
560.450379310129
 20
479.22253900042176
 30
0.0
 11
625.4254409708897
 21
460.34130187972113
 31
0.0
1001
RASTER2DXF
1000
line 47
1040
67.663
1040
1.0
1000
distance=85.24"
  0
LINE
  5
CC
330
17
100
AcDbEntity
  8
PLAT-LINE
100
AcDbLine
 10
507.04610434343135
 20
473.4300620945721
 30
0.0
 11
534.2522912101931
 21
470.8308037283266
 31
0.0
1001
RASTER2DXF
1000
line 48
1040
27.33
1040
0.851
  0
LINE
  5
CD
330
17
100
AcDbEntity
  8
PLAT-LINE
100
AcDbLine
 10
637.4810028645566
 20
454.9879202239114
 30
0.0
 11
666.9490535333955
 21
441.018191735001
 31
0.0
1001
RASTER2DXF
1000
line 49
1040
32.612
1040
1.0
  0
LINE
  5
CE
330
17
100
AcDbEntity
  8
PLAT-LINE
100
AcDbLine
 10
296.04780484129816
 20
387.2572346349955
 30
0.0
 11
296.5800853995533
 21
318.04123629215746
 31
0.0
1001
RASTER2DXF
1000
line 50
1040
69.218
1040
1.0
1000
bearing=N 00°14'00" W
1000
distance=12,01
  0
LINE
  5
CF
330
17
100
AcDbEntity
  8
PLAT-LINE
100
AcDbLine
 10
325.1905482526639
 20
419.7820607076185
 30
0.0
 11
395.1668734748162
 21
421.7574212877121
 31
0.0
1001
RASTER2DXF
1000
line 51
1040
70.004
1040
0.968
1000
distance=99.93"
  0
LINE
  5
D0
330
17
100
AcDbEntity
  8
PLAT-LINE
100
AcDbLine
 10
395.1668734748162
 20
421.7574212877121
 30
0.0
 11
473.2254576112167
 21
423.96093582711444
 31
0.0
1001
RASTER2DXF
1000
line 52
1040
78.09
1040
0.968
1000
distance=867.26",
  0
LINE
  5
D1
330
17
100
AcDbEntity
  8
PLAT-LINE
100
AcDbLine
 10
472.9267367637716
 20
424.1829475700753
 30
0.0
 11
476.4124304869669
 21
322.0473027362821
 31
0.0
1001
RASTER2DXF
1000
line 53
1040
102.195
1040
1.0
  0
LINE
  5
D2
330
17
100
AcDbEntity
  8
PLAT-LINE
100
AcDbLine
 10
399.1040292816489
 20
319.9640995141016
 30
0.0
 11
395.1572958098151
 21
422.096706078419
 31
0.0
1001
RASTER2DXF
1000
line 54
1040
102.209
1040
1.0
1000
bearing=N 02°24'30" W
1000
distance=103.17"
  0
LINE
  5
D3
330
17
100
AcDbEntity
  8
PLAT-LINE
100
AcDbLine
 10
135.61544442008764
 20
393.23077287536927
 30
0.0
 11
235.29951726628235
 21
393.83255519686173
 31
0.0
1001
RASTER2DXF
1000
line 55
1040
99.686
1040
0.983
  0
LINE
  5
D4
330
17
100
AcDbEntity
  8
PLAT-LINE
100
AcDbLine
 10
576.4032888677824
 20
411.2647033857891
 30
0.0
 11
547.3616306577636
 21
308.95636136932853
 31
0.0
1001
RASTER2DXF
1000
line 56
1040
106.35
1040
1.0
  0
LINE
  5
D5
330
17
100
AcDbEntity
  8
PLAT-LINE
100
AcDbLine
 10
235.29951726628235
 20
393.83255519686173
 30
0.0
 11
236.67155063540258
 21
319.42261683341974
 31
0.0
1001
RASTER2DXF
1000
line 57
1040
74.423
1040
1.0
1000
distance=75°
  0
LINE
  5
D6
330
17
100
AcDbEntity
  8
PLAT-LINE
100
AcDbLine
 10
236.67155063540258
 20
319.42261683341974
 30
0.0
 11
238.06374915771795
 21
243.91905506393385
 31
0.0
1001
RASTER2DXF
1000
line 58
1040
75.516
1040
1.0
1000
distance=75°
  0
LINE
  5
D7
330
17
100
AcDbEntity
  8
PLAT-LINE
100
AcDbLine
 10
238.06374915771795
 20
243.91905506393385
 30
0.0
 11
239.4458410741325
 21
168.96360818660403
 31
0.0
1001
RASTER2DXF
1000
line 59
1040
74.968
1040
1.0
1000
distance=75'
  0
LINE
  5
D8
330
17
100
AcDbEntity
  8
PLAT-LINE
100
AcDbLine
 10
239.4458410741325
 20
168.96360818660403
 30
0.0
 11
240.82227597331348
 21
94.31496019123921
 31
0.0
1001
RASTER2DXF
1000
line 60
1040
74.661
1040
1.0
1000
distance=715
  0
LINE
  5
D9
330
17
100
AcDbEntity
  8
PLAT-LINE
100
AcDbLine
 10
240.82227597331348
 20
94.31496019123921
 30
0.0
 11
241.55970445086922
 21
54.32175827840797
 31
0.0
1001
RASTER2DXF
1000
line 61
1040
40.0
1040
1.0
1000
distance=40’
  0
LINE
  5
DA
330
17
100
AcDbEntity
  8
PLAT-LINE
100
AcDbLine
 10
241.55970445086922
 20
54.32175827840797
 30
0.0
 11
242.2996295422949
 21
14.193156681894152
 31
0.0
1001
RASTER2DXF
1000
line 62
1040
40.135
1040
1.0
1000
distance=40'
  0
LINE
  5
DB
330
17
100
AcDbEntity
  8
PLAT-LINE
100
AcDbLine
 10
242.2996295422949
 20
14.193156681894152
 30
0.0
 11
242.62044619797882
 21
-3.2057988484049247
 31
0.0
1001
RASTER2DXF
1000
line 63
1040
17.402
1040
1.0
  0
LINE
  5
DC
330
17
100
AcDbEntity
  8
PLAT-LINE
100
AcDbLine
 10
98.75934410662148
 20
350.418038853894
 30
0.0
 11
116.85145933635394
 21
335.93483953766105
 31
0.0
1001
RASTER2DXF
1000
line 64
1040
23.175
1040
0.98
  0
LINE
  5
DD
330
17
100
AcDbEntity
  8
PLAT-LINE
100
AcDbLine
 10
666.0132936748589
 20
370.43086996174185
 30
0.0
 11
612.2320678027544
 21
287.1138607778155
 31
0.0
1001
RASTER2DXF
1000
line 65
1040
99.167
1040
0.966
1000
distance=99.60"
  0
LINE
  5
DE
330
17
100
AcDbEntity
  8
PLAT-LINE
100
AcDbLine
 10
171.04163397995742
 20
318.37157510329246
 30
0.0
 11
236.67155063540258
 21
319.42261683341974
 31
0.0
1001
RASTER2DXF
1000
line 66
1040
65.638
1040
0.866
  0
LINE
  5
DF
330
17
100
AcDbEntity
  8
PLAT-LINE
100
AcDbLine
 10
381.9208068616796
 20
324.0347814257864
 30
0.0
 11
406.69075751593573
 21
324.6342727896933
 31
0.0
1001
RASTER2DXF
1000
line 67
1040
24.777
1040
0.905
  0
LINE
  5
E0
330
17
100
AcDbEntity
  8
PLAT-LINE
100
AcDbLine
 10
299.7737771023901
 20
236.11975495666093
 30
0.0
 11
296.01355780549443
 21
318.0306109198436
 31
0.0
1001
RASTER2DXF
1000
line 68
1040
81.997
1040
1.0
1000
distance=100°
  0
LINE
  5
E1
330
17
100
AcDbEntity
  8
PLAT-LINE
100
AcDbLine
 10
296.01355780549443
 20
318.0306109198436
 30
0.0
 11
399.1040292816489
 21
319.9640995141016
 31
0.0
1001
RASTER2DXF
1000
line 69
1040
103.109
1040
1.0
1000
bearing=N 88°58'20" E
1000
distance=——/02.38'_
  0
LINE
  5
E2
330
17
100
AcDbEntity
  8
PLAT-LINE
100
AcDbLine
 10
399.1040292816489
 20
319.9640995141016
 30
0.0
 11
476.4340287504312
 21
321.4144437585884
 31
0.0
1001
RASTER2DXF
1000
line 70
1040
77.344
1040
1.0
1000
distance=22.
  0
LINE
  5
E3
330
17
100
AcDbEntity
  8
PLAT-LINE
100
AcDbLine
 10
399.20784592534585
 20
319.9660466222446
 30
0.0
 11
396.5600672334598
 21
216.04836082210218
 31
0.0
1001
RASTER2DXF
1000
line 71
1040
103.951
1040
0.98
1000
distance=& 100.44:
  0
LINE
  5
E4
330
17
100
AcDbEntity
  8
PLAT-LINE
100
AcDbLine
 10
332.60515216110184
 20
217.23781058972878
 30
0.0
 11
396.5347739095687
 21
215.05567072567732
 31
0.0
1001
RASTER2DXF
1000
line 72
1040
63.967
1040
0.979
1000
distance=.08
1000
bearing=S 88°58'20" E
  0
LINE
  5
E5
330
17
100
AcDbEntity
  8
PLAT-LINE
100
AcDbLine
 10
315.7283935412843
 20
312.22965705978714
 30
0.0
 11
462.33616235693245
 21
316.2889789339824
 31
0.0
1001
RASTER2DXF
1000
line 73
1040
146.664
1040
0.869
  0
LINE
  5
E6
330
17
100
AcDbEntity
  8
PLAT-LINE
100
AcDbLine
 10
476.4124304869669
 20
322.0473027362821
 30
0.0
 11
586.1862488728846
 21
293.6315897613376
 31
0.0
1001
RASTER2DXF
1000
line 74
1040
113.392
1040
0.927
1000
distance=20"
  0
LINE
  5
E7
330
17
100
AcDbEntity
  8
PLAT-LINE
100
AcDbLine
 10
586.1862488728846
 20
293.6315897613376
 30
0.0
 11
612.7182620604199
 21
286.76359443722515
 31
0.0
1001
RASTER2DXF
1000
line 75
1040
27.407
1040
0.927
1000
distance=66.86%
  0
LINE
  5
E8
330
17
100
AcDbEntity
  8
PLAT-LINE
100
AcDbLine
 10
534.8220130045754
 20
312.12368198767774
 30
0.0
 11
547.3616306577636
 21
308.95636136932853
 31
0.0
1001
RASTER2DXF
1000
line 76
1040
12.933
1040
0.988
  0
LINE
  5
E9
330
17
100
AcDbEntity
  8
PLAT-LINE
100
AcDbLine
 10
547.3616306577636
 20
308.95636136932853
 30
0.0
 11
560.200675437602
 21
305.7134099193095
 31
0.0
1001
RASTER2DXF
1000
line 77
1040
13.242
1040
0.988
  0
LINE
  5
EA
330
17
100
AcDbEntity
  8
PLAT-LINE
100
AcDbLine
 10
500.24391743793615
 20
310.1811928349053
 30
0.0
 11
478.8664667596103
 21
207.5011202699341
 31
0.0
1001
RASTER2DXF
1000
line 78
1040
104.882
1040
1.0
1000
distance=109. 05°,
  0
LINE
  5
EB
330
17
100
AcDbEntity
  8
PLAT-LINE
100
AcDbLine
 10
500.24391743793615
 20
310.1811928349053
 30
0.0
 11
524.2548873547357
 21
304.1408229030644
 31
0.0
1001
RASTER2DXF
1000
line 79
1040
24.759
1040
0.905
1000
distance=—-66. 85"
  0
LINE
  5
EC
330
17
100
AcDbEntity
  8
PLAT-LINE
100
AcDbLine
 10
586.1862488728846
 20
293.6315897613376
 30
0.0
 11
549.4190738476532
 21
188.06084561080564
 31
0.0
1001
RASTER2DXF
1000
line 80
1040
111.79
1040
1.0
1000
distance=112.43°
  0
LINE
  5
ED
330
17
100
AcDbEntity
  8
PLAT-LINE
100
AcDbLine
 10
612.7182620604199
 20
286.76359443722515
 30
0.0
 11
673.2719898484764
 21
243.1391947101078
 31
0.0
1001
RASTER2DXF
1000
line 81
1040
74.631
1040
0.981
1000
distance=——75"
  0
LINE
  5
EE
330
17
100
AcDbEntity
  8
PLAT-LINE
100
AcDbLine
 10
102.8400737603641
 20
239.05246954113755
 30
0.0
 11
119.41293758533396
 21
227.4470547351273
 31
0.0
1001
RASTER2DXF
1000
line 82
1040
20.232
1040
0.887
  0
LINE
  5
EF
330
17
100
AcDbEntity
  8
PLAT-LINE
100
AcDbLine
 10
138.23835022826967
 20
242.9106309903918
 30
0.0
 11
238.06374915771795
 21
243.9190550639339
 31
0.0
1001
RASTER2DXF
1000
line 83
1040
99.83
1040
1.0
  0
LINE
  5
F0
330
17
100
AcDbEntity
  8
PLAT-LINE
100
AcDbLine
 10
658.9229687302968
 20
245.58484282036437
 30
0.0
 11
613.2392870134815
 21
159.43762852705387
 31
0.0
1001
RASTER2DXF
1000
line 84
1040
97.511
1040
0.962
1000
distance=& 104.68"
  0
LINE
  5
F1
330
17
100
AcDbEntity
  8
PLAT-LINE
100
AcDbLine
 10
396.5600672334598
 20
216.04836082210218
 30
0.0
 11
464.89225208805493
 21
209.94069150385587
 31
0.0
1001
RASTER2DXF
1000
line 85
1040
68.605
1040
1.0
1000
distance=76.78°
  0
LINE
  5
F2
330
17
100
AcDbEntity
  8
PLAT-LINE
100
AcDbLine
 10
478.8664667596103
 20
207.5011202699341
 30
0.0
 11
549.4084853054461
 21
188.030442397083
 31
0.0
1001
RASTER2DXF
1000
line 86
1040
73.18
1040
1.0
1000
distance=76.78
  0
LINE
  5
F3
330
17
100
AcDbEntity
  8
PLAT-LINE
100
AcDbLine
 10
549.4190738476532
 20
188.06084561080564
 30
0.0
 11
613.327776761972
 21
159.60449654292907
 31
0.0
1001
RASTER2DXF
1000
line 87
1040
69.958
1040
1.0
1000
distance=76.78!
  0
LINE
  5
F4
330
17
100
AcDbEntity
  8
PLAT-LINE
100
AcDbLine
 10
139.5592527657889
 20
167.20899647621397
 30
0.0
 11
239.4458410741325
 21
168.96360818660403
 31
0.0
1001
RASTER2DXF
1000
line 88
1040
99.902
1040
1.0
  0
LINE
  5
F5
330
17
100
AcDbEntity
  8
PLAT-LINE
100
AcDbLine
 10
396.36984498771255
 20
155.84233403734268
 30
0.0
 11
319.30382331112224
 21
155.22940515401572
 31
0.0
1001
RASTER2DXF
1000
line 89
1040
77.068
1040
0.995
1000
distance=80°
  0
LINE
  5
F6
330
17
100
AcDbEntity
  8
PLAT-LINE
100
AcDbLine
 10
302.05377499674
 20
-0.6997267507545644
 30
0.0
 11
301.9069161269928
 21
15.014613081654545
 31
0.0
1001
RASTER2DXF
1000
line 90
1040
15.715
1040
1.0
  0
LINE
  5
F7
330
17
100
AcDbEntity
  8
PLAT-LINE
100
AcDbLine
 10
301.9069161269928
 20
15.014613081654545
 30
0.0
 11
301.53032224303354
 21
55.31128894149515
 31
0.0
1001
RASTER2DXF
1000
line 91
1040
40.298
1040
1.0
1000
distance=40
  0
LINE
  5
F8
330
17
100
AcDbEntity
  8
PLAT-LINE
100
AcDbLine
 10
301.53032224303354
 20
55.31128894149515
 30
0.0
 11
300.8939973991337
 21
123.39995704893545
 31
0.0
1001
RASTER2DXF
1000
line 92
1040
68.092
1040
1.0
1000
distance=100°
  0
LINE
  5
F9
330
17
100
AcDbEntity
  8
PLAT-LINE
100
AcDbLine
 10
396.13077034718754
 20
156.42340256454398
 30
0.0
 11
393.9176497497966
 21
56.57155832233531
 31
0.0
1001
RASTER2DXF
1000
line 93
1040
99.876
1040
0.993
1000
distance=99.80'
  0
LINE
  5
FA
330
17
100
AcDbEntity
  8
PLAT-LINE
100
AcDbLine
 10
613.2392870134815
 20
159.43762852705387
 30
0.0
 11
664.3925231950559
 21
128.13881892499535
 31
0.0
1001
RASTER2DXF
1000
line 94
1040
59.969
1040
1.0
1000
distance=62.89°
  0
LINE
  5
FB
330
17
100
AcDbEntity
  8
PLAT-LINE
100
AcDbLine
 10
484.6761209902944
 20
144.5020333751799
 30
0.0
 11
547.7119272128489
 21
125.31036984513392
 31
0.0
1001
RASTER2DXF
1000
line 95
1040
65.893
1040
1.0
1000
distance=89.76"
  0
LINE
  5
FC
330
17
100
AcDbEntity
  8
PLAT-LINE
100
AcDbLine
 10
547.4716455912288
 20
124.55833271313475
 30
0.0
 11
566.7625275239118
 21
115.94756979426296
 31
0.0
1001
RASTER2DXF
1000
line 96
1040
21.125
1040
1.0
  0
LINE
  5
FD
330
17
100
AcDbEntity
  8
PLAT-LINE
100
AcDbLine
 10
484.9660267802568
 20
145.28190039851103
 30
0.0
 11
460.4726173504997
 21
36.30031696069017
 31
0.0
1001
RASTER2DXF
1000
line 97
1040
111.7
1040
0.993
1000
bearing=N 12°53'25" E
1000
distance=108.52!
  0
LINE
  5
FE
330
17
100
AcDbEntity
  8
PLAT-LINE
100
AcDbLine
 10
567.0284791885146
 20
116.51468915787524
 30
0.0
 11
617.0629546081311
 21
88.56844637476178
 31
0.0
1001
RASTER2DXF
1000
line 98
1040
57.31
1040
1.0
1000
distance=14.84!
  0
LINE
  5
FF
330
17
100
AcDbEntity
  8
PLAT-LINE
100
AcDbLine
 10
616.8550412761458
 20
88.14128224253676
 30
0.0
 11
640.5072963231729
 21
71.14804065552454
 31
0.0
1001
RASTER2DXF
1000
line 99
1040
29.124
1040
0.984
  0
LINE
  5
100
330
17
100
AcDbEntity
  8
PLAT-LINE
100
AcDbLine
 10
640.5072963231729
 20
71.14804065552454
 30
0.0
 11
683.8251444237246
 21
40.025821808375156
 31
0.0
1001
RASTER2DXF
1000
line 100
1040
53.339
1040
0.984
1000
distance=75°
  0
LINE
  5
101
330
17
100
AcDbEntity
  8
PLAT-LINE
100
AcDbLine
 10
567.0284791885146
 20
116.51468915787524
 30
0.0
 11
524.148574469855
 21
25.07692992398364
 31
0.0
1001
RASTER2DXF
1000
line 101
1040
100.993
1040
1.0
1000
distance=& 107.08",
  0
LINE
  5
102
330
17
100
AcDbEntity
  8
PLAT-LINE
100
AcDbLine
 10
141.55585239128743
 20
52.78279860963602
 30
0.0
 11
224.71846973292836
 21
54.06258845175188
 31
0.0
1001
RASTER2DXF
1000
line 102
1040
83.172
1040
1.0
1000
distance=,00/
  0
LINE
  5
103
330
17
100
AcDbEntity
  8
PLAT-LINE
100
AcDbLine
 10
224.71846973292836
 20
54.06258845175188
 30
0.0
 11
241.55970445086922
 21
54.321758278408026
 31
0.0
1001
RASTER2DXF
1000
line 103
1040
16.843
1040
1.0
  0
LINE
  5
104
330
17
100
AcDbEntity
  8
PLAT-LINE
100
AcDbLine
 10
140.85479604086566
 20
92.9607149252061
 30
0.0
 11
240.82227597331348
 21
94.31496019123932
 31
0.0
1001
RASTER2DXF
1000
line 104
1040
99.977
1040
0.982
  0
LINE
  5
105
330
17
100
AcDbEntity
  8
PLAT-LINE
100
AcDbLine
 10
640.5072963231729
 20
71.14804065552454
 30
0.0
 11
600.4474323601657
 21
14.137806122853249
 31
0.0
1001
RASTER2DXF
1000
line 105
1040
69.678
1040
0.969
  0
LINE
  5
106
330
17
100
AcDbEntity
  8
PLAT-LINE
100
AcDbLine
 10
301.11939043631617
 20
55.30744856504151
 30
0.0
 11
393.9206960687435
 21
56.70900251103336
 31
0.0
1001
RASTER2DXF
1000
line 106
1040
92.812
1040
1.0
  0
LINE
  5
107
330
17
100
AcDbEntity
  8
PLAT-LINE
100
AcDbLine
 10
224.71846973292836
 20
54.06258845175188
 30
0.0
 11
211.90636404858887
 21
31.838944454082252
 31
0.0
1001
RASTER2DXF
1000
line 107
1040
25.652
1040
0.925
  0
LINE
  5
108
330
17
100
AcDbEntity
  8
PLAT-LINE
100
AcDbLine
 10
393.9176497497966
 20
56.57155832233531
 30
0.0
 11
460.4726173504997
 21
36.30031696069017
 31
0.0
1001
RASTER2DXF
1000
line 108
1040
69.574
1040
0.919
1000
distance=,09
  0
LINE
  5
109
330
17
100
AcDbEntity
  8
PLAT-LINE
100
AcDbLine
 10
460.4726173504997
 20
36.30031696069017
 30
0.0
 11
549.3767406592231
 21
9.221993484538928
 31
0.0
1001
RASTER2DXF
1000
line 109
1040
92.936
1040
0.919
1000
bearing=S 72°51'40" E
1000
distance=,09
  0
LINE
  5
10A
330
17
100
AcDbEntity
  8
PLAT-LINE
100
AcDbLine
 10
142.4162035832611
 20
12.859571225578179
 30
0.0
 11
242.2996295422949
 21
14.193156681894152
 31
0.0
1001
RASTER2DXF
1000
line 110
1040
99.892
1040
1.0
1000
distance=100°
  0
LINE
  5
10B
330
17
100
AcDbEntity
  8
PLAT-LINE
100
AcDbLine
 10
142.4162035832611
 20
12.859571225578179
 30
0.0
 11
142.3215691679271
 21
-7.420777614608426
 31
0.0
1001
RASTER2DXF
1000
line 111
1040
20.281
1040
1.0
  0
LINE
  5
10C
330
17
100
AcDbEntity
  8
PLAT-LINE
100
AcDbLine
 10
301.7916259116862
 20
15.013535633228855
 30
0.0
 11
377.82449484846234
 21
15.56675717075484
 31
0.0
1001
RASTER2DXF
1000
line 112
1040
76.035
1040
1.0
1000
distance=96.80"
  0
LINE
  5
10D
330
17
100
AcDbEntity
  8
PLAT-LINE
100
AcDbLine
 10
408.1251155819651
 20
9.777303857481627
 30
0.0
 11
433.0953790801243
 21
3.5956248824642785
 31
0.0
1001
RASTER2DXF
1000
line 113
1040
25.724
1040
1.0
  0
LINE
  5
10E
330
17
100
AcDbEntity
  8
PLAT-LINE
100
AcDbLine
 10
648.6519438533721
 20
267.0780198291256
 30
0.0
 11
668.1679661648441
 21
252.7233188239044
 31
0.0
1001
RASTER2DXF
1000
line 114
1040
24.227
1040
0.862
  0
LINE
  5
10F
330
17
100
AcDbEntity
  8
PLAT-LINE
100
AcDbLine
 10
86.50029219592076
 20
39.11864614926611
 30
0.0
 11
86.59806461924336
 21
63.28434172995719
 31
0.0
1001
RASTER2DXF
1000
line 115
1040
24.166
1040
1.0
  0
ARC
  5
110
330
17
100
AcDbEntity
  8
PLAT-CURVE
100
AcDbCircle
 10
102.28532657403932
 20
681.4329393573107
 30
0.0
 40
45.76986707226761
100
AcDbArc
 50
-10.703966099736991
 51
40.78226446710067
1001
RASTER2DXF
1000
arc 0
1040
45.77
1040
41.129
  0
ARC
  5
111
330
17
100
AcDbEntity
  8
PLAT-CURVE
100
AcDbCircle
 10
427.84388999513646
 20
713.3572276949122
 30
0.0
 40
12.483810761917429
100
AcDbArc
 50
-143.80353586422686
 51
-14.989406242785442
1001
RASTER2DXF
1000
arc 1
1040
12.484
1040
28.066
  0
ARC
  5
112
330
17
100
AcDbEntity
  8
PLAT-CURVE
100
AcDbCircle
 10
311.24058827387086
 20
648.5877459638339
 30
0.0
 40
27.62978368951029
100
AcDbArc
 50
111.45803649294152
 51
-159.52964282090605
1001
RASTER2DXF
1000
arc 2
1040
27.63
1040
42.924
1000
distance=10
  0
ARC
  5
113
330
17
100
AcDbEntity
  8
PLAT-CURVE
100
AcDbCircle
 10
317.7731363541259
 20
507.6884130872545
 30
0.0
 40
27.71583047130729
100
AcDbArc
 50
-157.70358202212444
 51
-71.69780782372158
1001
RASTER2DXF
1000
arc 3
1040
27.716
1040
41.604
  0
ARC
  5
114
330
17
100
AcDbEntity
  8
PLAT-CURVE
100
AcDbCircle
 10
484.86781384977485
 20
92.79030492750917
 30
0.0
 40
392.8700141736792
100
AcDbArc
 50
78.97180141906695
 51
92.02651859645704
1001
RASTER2DXF
1000
arc 4
1040
392.87
1040
89.515
1000
distance=85.28"
  0
ARC
  5
115
330
17
100
AcDbEntity
  8
PLAT-CURVE
100
AcDbCircle
 10
111.51812784759358
 20
397.3557180455799
 30
0.0
 40
15.329142325496319
100
AcDbArc
 50
-27.54607960823998
 51
76.40983669075024
1001
RASTER2DXF
1000
arc 5
1040
15.329
1040
27.813
  0
ARC
  5
116
330
17
100
AcDbEntity
  8
PLAT-CURVE
100
AcDbCircle
 10
320.49413262065565
 20
394.67153545047506
 30
0.0
 40
25.54593506760337
100
AcDbArc
 50
79.4063744052719
 51
-163.12802977582905
1001
RASTER2DXF
1000
arc 6
1040
25.546
1040
52.373
  0
ARC
  5
117
330
17
100
AcDbEntity
  8
PLAT-CURVE
100
AcDbCircle
 10
486.4056445789886
 20
105.31413335291137
 30
0.0
 40
318.9192720039653
100
AcDbArc
 50
73.60782616047042
 51
92.36857501731492
1001
RASTER2DXF
1000
arc 7
1040
318.919
1040
104.426
1000
distance=93.97"
  0
ARC
  5
118
330
17
100
AcDbEntity
  8
PLAT-CURVE
100
AcDbCircle
 10
486.8917723690587
 20
96.089668338166
 30
0.0
 40
327.63945779342845
100
AcDbArc
 50
56.85887253492138
 51
74.14514966704013
1001
RASTER2DXF
1000
arc 8
1040
327.639
1040
98.85
1000
distance=29.36"
  0
ARC
  5
119
330
17
100
AcDbEntity
  8
PLAT-CURVE
100
AcDbCircle
 10
325.67418065088606
 20
243.1705308102829
 30
0.0
 40
26.84295706722638
100
AcDbArc
 50
-164.77159120041546
 51
-75.03645160324936
1001
RASTER2DXF
1000
arc 9
1040
26.843
1040
42.041
  0
ARC
  5
11A
330
17
100
AcDbEntity
  8
PLAT-CURVE
100
AcDbCircle
 10
266.20761848446455
 20
264.8006847130748
 30
0.0
 40
11.693108074674644
100
AcDbArc
 50
146.19741337581897
 51
-108.72537686613747
1001
RASTER2DXF
1000
arc 10
1040
11.693
1040
21.444
  0
ARC
  5
11B
330
17
100
AcDbEntity
  8
PLAT-CURVE
100
AcDbCircle
 10
325.9214240713075
 20
130.16310165707975
 30
0.0
 40
25.92512701650102
100
AcDbArc
 50
104.78888411174533
 51
-164.8781790225292
1001
RASTER2DXF
1000
arc 11
1040
25.925
1040
40.874
  0
ARC
  5
11C
330
17
100
AcDbEntity
  8
PLAT-CURVE
100
AcDbCircle
 10
388.6689235008698
 20
-253.61242707496132
 30
0.0
 40
409.52717320011925
100
AcDbArc
 50
76.44172363884582
 51
88.92252251814963
1001
RASTER2DXF
1000
arc 12
1040
409.527
1040
89.208
1000
distance=496°
1000
CURVE_DATA R=459.36 D=36.3300 consistent=False
  0
ARC
  5
11D
330
17
100
AcDbEntity
  8
PLAT-CURVE
100
AcDbCircle
 10
118.99953968048013
 20
108.64233649416815
 30
0.0
 40
13.418573371965303
100
AcDbArc
 50
-35.740476197529844
 51
81.59254917806871
1001
RASTER2DXF
1000
arc 13
1040
13.419
1040
27.479
  0
ARC
  5
11E
330
17
100
AcDbEntity
  8
PLAT-CURVE
100
AcDbCircle
 10
668.6224890788808
 20
82.16656782331438
 30
0.0
 40
16.498512483247616
100
AcDbArc
 50
43.94476937469097
 51
104.71396505686448
1001
RASTER2DXF
1000
arc 14
1040
16.499
1040
17.499
  0
ARC
  5
11F
330
17
100
AcDbEntity
  8
PLAT-CURVE
100
AcDbCircle
 10
664.0030222376852
 20
102.6073481300424
 30
0.0
 40
15.98661613179966
100
AcDbArc
 50
-115.29010298579357
 51
-59.25997629921581
1001
RASTER2DXF
1000
arc 15
1040
15.987
1040
15.633
  0
ARC
  5
120
330
17
100
AcDbEntity
  8
PLAT-CURVE
100
AcDbCircle
 10
176.7377394271126
 20
36.07227964312614
 30
0.0
 40
8.14522820764094
100
AcDbArc
 50
60.825926415940934
 51
-178.82935456956227
1001
RASTER2DXF
1000
arc 16
1040
8.145
1040
17.108
  0
ARC
  5
121
330
17
100
AcDbEntity
  8
PLAT-CURVE
100
AcDbCircle
 10
183.4588649956299
 20
33.32079688403161
 30
0.0
 40
9.393714987107373
100
AcDbArc
 50
-121.36239869014156
 51
-8.61255899023052
1001
RASTER2DXF
1000
arc 17
1040
9.394
1040
18.485
  0
ARC
  5
122
330
17
100
AcDbEntity
  8
PLAT-CURVE
100
AcDbCircle
 10
383.9278088349078
 20
-34.677795326697606
 30
0.0
 40
50.61388640764893
100
AcDbArc
 50
61.4401533799093
 51
96.92590967877297
1001
RASTER2DXF
1000
arc 18
1040
50.614
1040
31.347
  0
ARC
  5
123
330
17
100
AcDbEntity
  8
PLAT-CURVE
100
AcDbCircle
 10
442.09229218085545
 20
17.430937134975238
 30
0.0
 40
11.108759433969995
100
AcDbArc
 50
-141.15016248017895
 51
-35.97897949210563
1001
RASTER2DXF
1000
arc 19
1040
11.109
1040
20.391
  0
ARC
  5
124
330
17
100
AcDbEntity
  8
PLAT-CURVE
100
AcDbCircle
 10
170.59368096845256
 20
355.25145543286317
 30
0.0
 40
18.365833425458465
100
AcDbArc
 50
96.85929954543279
 51
96.85929954543279
1001
RASTER2DXF
1000
arc 20
1040
18.366
1040
115.396
  0
ARC
  5
125
330
17
100
AcDbEntity
  8
PLAT-CURVE
100
AcDbCircle
 10
256.4674548181644
 20
282.09433122094606
 30
0.0
 40
11.467498698651799
100
AcDbArc
 50
-24.602770361553233
 51
83.13419531810605
1001
RASTER2DXF
1000
arc 21
1040
11.467
1040
21.563
  0
ARC
  5
126
330
17
100
AcDbEntity
  8
PLAT-CURVE
100
AcDbCircle
 10
271.4391309227812
 20
291.9390277073352
 30
0.0
 40
15.49107340868885
100
AcDbArc
 50
174.6305800462262
 51
-109.92917953162278
1001
RASTER2DXF
1000
arc 22
1040
15.491
1040
20.397
  0
ARC
  5
127
330
17
100
AcDbEntity
  8
PLAT-CURVE
100
AcDbCircle
 10
541.1431662690259
 20
178.8799218637979
 30
0.0
 40
9.032433248711763
100
AcDbArc
 50
-121.893440174631
 51
-9.030896657032978
1001
RASTER2DXF
1000
arc 23
1040
9.032
1040
17.792
1000
distance== (50.73!
  0
CIRCLE
  5
128
330
17
100
AcDbEntity
  8
PLAT-MON
100
AcDbCircle
 10
385.46354511117454
 20
482.44663203411415
 30
0.0
 40
6.425999396283719
  0
POINT
  5
129
330
17
100
AcDbEntity
  8
PLAT-MON
100
AcDbPoint
 10
385.46354511117454
 20
482.44663203411415
 30
0.0
  0
CIRCLE
  5
12A
330
17
100
AcDbEntity
  8
PLAT-MON
100
AcDbCircle
 10
394.4325076772081
 20
422.1272150572787
 30
0.0
 40
6.397839753390842
  0
POINT
  5
12B
330
17
100
AcDbEntity
  8
PLAT-MON
100
AcDbPoint
 10
394.4325076772081
 20
422.1272150572787
 30
0.0
  0
TEXT
  5
12C
330
17
100
AcDbEntity
  8
PLAT-TEXT-DIST
100
AcDbText
 10
219.01400024702951
 20
687.1519389944622
 30
0.0
 40
9.011972047416428
  1
26'
 50
92.426866218165
  7
PLAT
 72
1
 11
219.01400024702951
 21
687.1519389944622
 31
0.0
100
AcDbText
 73
1
  0
TEXT
  5
12D
330
17
100
AcDbEntity
  8
PLAT-TEXT-DIST
100
AcDbText
 10
341.0132884738065
 20
671.3835170128003
 30
0.0
 40
9.011972047416428
  1
93.50'
 50
2.284134404095777
  7
PLAT
 72
1
 11
341.0132884738065
 21
671.3835170128003
 31
0.0
100
AcDbText
 73
3
  0
TEXT
  5
12E
330
17
100
AcDbEntity
  8
PLAT-TEXT-DIST
100
AcDbText
 10
413.2680291955523
 20
674.2655272940085
 30
0.0
 40
9.011972047416428
  1
75'
 50
2.2841344040958673
  7
PLAT
 72
1
 11
413.2680291955523
 21
674.2655272940085
 31
0.0
100
AcDbText
 73
3
  0
TEXT
  5
12F
330
17
100
AcDbEntity
  8
PLAT-TEXT-DIST
100
AcDbText
 10
491.3961708409426
 20
677.3818087341541
 30
0.0
 40
9.011972047416428
  1
75'
 50
2.284134404095781
  7
PLAT
 72
1
 11
491.3961708409426
 21
677.3818087341541
 31
0.0
100
AcDbText
 73
3
  0
TEXT
  5
130
330
17
100
AcDbEntity
  8
PLAT-TEXT-DIST
100
AcDbText
 10
565.8262151060972
 20
680.3505849093954
 30
0.0
 40
9.011972047416428
  1
75'
 50
2.284134404095853
  7
PLAT
 72
1
 11
565.8262151060972
 21
680.3505849093954
 31
0.0
100
AcDbText
 73
3
  0
TEXT
  5
131
330
17
100
AcDbEntity
  8
PLAT-TEXT-DIST
100
AcDbText
 10
641.6121383657984
 20
683.3734427568331
 30
0.0
 40
9.011972047416428
  1
75'
 50
2.2841344040957288
  7
PLAT
 72
1
 11
641.6121383657984
 21
683.3734427568331
 31
0.0
100
AcDbText
 73
3
  0
TEXT
  5
132
330
17
100
AcDbEntity
  8
PLAT-TEXT-DIST
100
AcDbText
 10
279.7648588217345
 20
642.1086535553127
 30
0.0
 40
9.011972047416428
  1
10'
 50
282.0141867139042
  7
PLAT
 72
1
 11
279.7648588217345
 21
642.1086535553127
 31
0.0
100
AcDbText
 73
3
  0
TEXT
  5
133
330
17
100
AcDbEntity
  8
PLAT-TEXT-DIST
100
AcDbText
 10
290.78137562850696
 20
619.7837979107607
 30
0.0
 40
9.011972047416428
  1
100'
 50
92.73594802979392
  7
PLAT
 72
1
 11
290.78137562850696
 21
619.7837979107607
 31
0.0
100
AcDbText
 73
3
  0
TEXT
  5
134
330
17
100
AcDbEntity
  8
PLAT-TEXT-DIST
100
AcDbText
 10
132.9363784000157
 20
581.7511701596405
 30
0.0
 40
9.011972047416428
  1
23'
 50
92.61841983782068
  7
PLAT
 72
1
 11
132.9363784000157
 21
581.7511701596405
 31
0.0
100
AcDbText
 73
3
  0
TEXT
  5
135
330
17
100
AcDbEntity
  8
PLAT-TEXT-DIST
100
AcDbText
 10
485.6487468891249
 20
582.8118405865778
 30
0.0
 40
9.011972047416428
  1
75'
 50
2.125883995389392
  7
PLAT
 72
1
 11
485.6487468891249
 21
582.8118405865778
 31
0.0
100
AcDbText
 73
1
  0
TEXT
  5
136
330
17
100
AcDbEntity
  8
PLAT-TEXT-DIST
100
AcDbText
 10
567.6226596246842
 20
590.1116939778747
 30
0.0
 40
9.011972047416428
  1
75'
 50
2.081313244820612
  7
PLAT
 72
1
 11
567.6226596246842
 21
590.1116939778747
 31
0.0
100
AcDbText
 73
1
  0
TEXT
  5
137
330
17
100
AcDbEntity
  8
PLAT-TEXT-DIST
100
AcDbText
 10
435.85724658397606
 20
571.945365758777
 30
0.0
 40
9.011972047416428
  1
9268.00'
 50
2.1258839953894726
  7
PLAT
 72
1
 11
435.85724658397606
 21
571.945365758777
 31
0.0
100
AcDbText
 73
3
  0
TEXT
  5
138
330
17
100
AcDbEntity
  8
PLAT-TEXT-DIST
100
AcDbText
 10
620.7014148750163
 20
578.8069127615431
 30
0.0
 40
9.011972047416428
  1
110'
 50
2.1258839953893314
  7
PLAT
 72
1
 11
620.7014148750163
 21
578.8069127615431
 31
0.0
100
AcDbText
 73
3
  0
TEXT
  5
139
330
17
100
AcDbEntity
  8
PLAT-TEXT-BRG
100
AcDbText
 10
464.51089426294317
 20
529.2456544079524
 30
0.0
 40
9.011972047416428
  1
N 02%%d24'30" W
 50
92.40833333333342
  7
PLAT
 72
1
 11
464.51089426294317
 21
529.2456544079524
 31
0.0
100
AcDbText
 73
1
  0
TEXT
  5
13A
330
17
100
AcDbEntity
  8
PLAT-TEXT-DIST
100
AcDbText
 10
473.4656700238721
 20
530.7950184717031
 30
0.0
 40
9.011972047416428
  1
100'
 50
92.40833333333342
  7
PLAT
 72
1
 11
473.4656700238721
 21
530.7950184717031
 31
0.0
100
AcDbText
 73
3
  0
TEXT
  5
13B
330
17
100
AcDbEntity
  8
PLAT-TEXT-DIST
100
AcDbText
 10
576.6891839085981
 20
538.4240303514409
 30
0.0
 40
9.011972047416428
  1
2.21'
 50
78.62724473267076
  7
PLAT
 72
1
 11
576.6891839085981
 21
538.4240303514409
 31
0.0
100
AcDbText
 73
3
  0
TEXT
  5
13C
330
17
100
AcDbEntity
  8
PLAT-TEXT-DIST
100
AcDbText
 10
84.13424184185318
 20
514.2845921445495
 30
0.0
 40
9.011972047416428
  1
12'
 50
91.51560361025946
  7
PLAT
 72
1
 11
84.13424184185318
 21
514.2845921445495
 31
0.0
100
AcDbText
 73
3
  0
TEXT
  5
13D
330
17
100
AcDbEntity
  8
PLAT-TEXT-DIST
100
AcDbText
 10
389.1302084607876
 20
524.7407489283679
 30
0.0
 40
9.011972047416428
  1
400'
 50
92.28856980999285
  7
PLAT
 72
1
 11
389.1302084607876
 21
524.7407489283679
 31
0.0
100
AcDbText
 73
3
  0
TEXT
  5
13E
330
17
100
AcDbEntity
  8
PLAT-TEXT-DIST
100
AcDbText
 10
226.47847726094034
 20
511.02882730161815
 30
0.0
 40
9.011972047416428
  1
196'
 50
92.426866218165
  7
PLAT
 72
1
 11
226.47847726094034
 21
511.02882730161815
 31
0.0
100
AcDbText
 73
1
  0
TEXT
  5
13F
330
17
100
AcDbEntity
  8
PLAT-TEXT-DIST
100
AcDbText
 10
135.95677244916763
 20
506.24267060916094
 30
0.0
 40
9.011972047416428
  1
6'
 50
92.11203127025414
  7
PLAT
 72
1
 11
135.95677244916763
 21
506.24267060916094
 31
0.0
100
AcDbText
 73
3
  0
TEXT
  5
140
330
17
100
AcDbEntity
  8
PLAT-TEXT-DIST
100
AcDbText
 10
343.38705801776166
 20
486.35516724672954
 30
0.0
 40
9.011972047416428
  1
93.50'
 50
1.6014930856855005
  7
PLAT
 72
1
 11
343.38705801776166
 21
486.35516724672954
 31
0.0
100
AcDbText
 73
1
  0
TEXT
  5
141
330
17
100
AcDbEntity
  8
PLAT-TEXT-DIST
100
AcDbText
 10
434.085351046144
 20
488.890965341147
 30
0.0
 40
9.011972047416428
  1
89.76'
 50
1.6014930856855132
  7
PLAT
 72
1
 11
434.085351046144
 21
488.890965341147
 31
0.0
100
AcDbText
 73
1
  0
TEXT
  5
142
330
17
100
AcDbEntity
  8
PLAT-TEXT-BRG
100
AcDbText
 10
396.7466152754146
 20
478.83153261864373
 30
0.0
 40
9.011972047416428
  1
N 87%%d35'30" E
 50
1.6014930856855132
  7
PLAT
 72
1
 11
396.7466152754146
 21
478.83153261864373
 31
0.0
100
AcDbText
 73
3
  0
TEXT
  5
143
330
17
100
AcDbEntity
  8
PLAT-TEXT-DIST
100
AcDbText
 10
522.3108779123033
 20
488.39831822971155
 30
0.0
 40
9.011972047416428
  1
85.28'
 50
354.52870607809126
  7
PLAT
 72
1
 11
522.3108779123033
 21
488.39831822971155
 31
0.0
100
AcDbText
 73
1
  0
TEXT
  5
144
330
17
100
AcDbEntity
  8
PLAT-TEXT-DIST
100
AcDbText
 10
606.5783017570784
 20
470.5105128594915
 30
0.0
 40
9.011972047416428
  1
85.24'
 50
343.79655488896407
  7
PLAT
 72
1
 11
606.5783017570784
 21
470.5105128594915
 31
0.0
100
AcDbText
 73
1
  0
TEXT
  5
145
330
17
100
AcDbEntity
  8
PLAT-TEXT-DIST
100
AcDbText
 10
229.98752693111598
 20
428.2333754776882
 30
0.0
 40
9.011972047416428
  1
60.43'
 50
92.42686621816495
  7
PLAT
 72
1
 11
229.98752693111598
 21
428.2333754776882
 31
0.0
100
AcDbText
 73
1
  0
TEXT
  5
146
330
17
100
AcDbEntity
  8
PLAT-TEXT-DIST
100
AcDbText
 10
344.87688793409126
 20
415.83000505850225
 30
0.0
 40
9.011972047416428
  1
99.93'
 50
1.6169722381248959
  7
PLAT
 72
1
 11
344.87688793409126
 21
415.83000505850225
 31
0.0
100
AcDbText
 73
3
  0
TEXT
  5
147
330
17
100
AcDbEntity
  8
PLAT-TEXT-DIST
100
AcDbText
 10
424.6984855794286
 20
418.08328767841857
 30
0.0
 40
9.011972047416428
  1
867.26'
 50
1.6169722381248566
  7
PLAT
 72
1
 11
424.6984855794286
 21
418.08328767841857
 31
0.0
100
AcDbText
 73
3
  0
TEXT
  5
148
330
17
100
AcDbEntity
  8
PLAT-TEXT-DIST
100
AcDbText
 10
529.3882929230266
 20
416.77554379416046
 30
0.0
 40
9.011972047416428
  1
93.97'
 50
352.04748521700003
  7
PLAT
 72
1
 11
529.3882929230266
 21
416.77554379416046
 31
0.0
100
AcDbText
 73
3
  0
TEXT
  5
149
330
17
100
AcDbEntity
  8
PLAT-TEXT-BRG
100
AcDbText
 10
392.73618831181295
 20
368.05769744556653
 30
0.0
 40
9.011972047416428
  1
N 02%%d24'30" W
 50
92.21299268338511
  7
PLAT
 72
1
 11
392.73618831181295
 21
368.05769744556653
 31
0.0
100
AcDbText
 73
1
  0
TEXT
  5
14A
330
17
100
AcDbEntity
  8
PLAT-TEXT-DIST
100
AcDbText
 10
401.48141494873653
 20
375.1345310279081
 30
0.0
 40
9.011972047416428
  1
103.17'
 50
92.21299268338511
  7
PLAT
 72
1
 11
401.48141494873653
 21
375.1345310279081
 31
0.0
100
AcDbText
 73
3
  0
TEXT
  5
14B
330
17
100
AcDbEntity
  8
PLAT-TEXT-BRG
100
AcDbText
 10
300.6068856887497
 20
380.3702854291323
 30
0.0
 40
9.011972047416428
  1
N 00%%d14'00" W
 50
90.44060374867797
  7
PLAT
 72
1
 11
300.6068856887497
 21
380.3702854291323
 31
0.0
100
AcDbText
 73
3
  0
TEXT
  5
14C
330
17
100
AcDbEntity
  8
PLAT-TEXT-DIST
100
AcDbText
 10
313.2554775218421
 20
376.27960369124116
 30
0.0
 40
9.011972047416428
  1
12'
 50
90.44060374867797
  7
PLAT
 72
1
 11
313.2554775218421
 21
376.27960369124116
 31
0.0
100
AcDbText
 73
3
  0
TEXT
  5
14D
330
17
100
AcDbEntity
  8
PLAT-TEXT-DIST
100
AcDbText
 10
140.83082821147514
 20
352.61411448103325
 30
0.0
 40
9.011972047416428
  1
75'
 50
90.99964104730651
  7
PLAT
 72
1
 11
140.83082821147514
 21
352.61411448103325
 31
0.0
100
AcDbText
 73
3
  0
TEXT
  5
14E
330
17
100
AcDbEntity
  8
PLAT-TEXT-DIST
100
AcDbText
 10
627.2472646900887
 20
387.1490775879675
 30
0.0
 40
9.011972047416428
  1
29.36'
 50
334.1679372222313
  7
PLAT
 72
1
 11
627.2472646900887
 21
387.1490775879675
 31
0.0
100
AcDbText
 73
3
  0
TEXT
  5
14F
330
17
100
AcDbEntity
  8
PLAT-TEXT-DIST
100
AcDbText
 10
231.51540298009976
 20
354.64150803850913
 30
0.0
 40
9.011972047416428
  1
75'
 50
91.05634832999579
  7
PLAT
 72
1
 11
231.51540298009976
 21
354.64150803850913
 31
0.0
100
AcDbText
 73
1
  0
TEXT
  5
150
330
17
100
AcDbEntity
  8
PLAT-TEXT-DIST
100
AcDbText
 10
338.3909581735734
 20
323.33218854747753
 30
0.0
 40
9.011972047416428
  1
102.38'
 50
1.0744712672279797
  7
PLAT
 72
1
 11
338.3909581735734
 21
323.33218854747753
 31
0.0
100
AcDbText
 73
1
  0
TEXT
  5
151
330
17
100
AcDbEntity
  8
PLAT-TEXT-BRG
100
AcDbText
 10
350.20431673371604
 20
336.17273086431004
 30
0.0
 40
9.011972047416428
  1
N 88%%d58'20" E
 50
1.0744712672279797
  7
PLAT
 72
1
 11
350.20431673371604
 21
336.17273086431004
 31
0.0
100
AcDbText
 73
1
  0
TEXT
  5
152
330
17
100
AcDbEntity
  8
PLAT-TEXT-DIST
100
AcDbText
 10
640.7246494407176
 20
322.94551753163125
 30
0.0
 40
9.011972047416428
  1
99.60'
 50
57.15771051180923
  7
PLAT
 72
1
 11
640.7246494407176
 21
322.94551753163125
 31
0.0
100
AcDbText
 73
3
  0
TEXT
  5
153
330
17
100
AcDbEntity
  8
PLAT-TEXT-DIST
100
AcDbText
 10
506.5380703937991
 20
313.2441728139429
 30
0.0
 40
9.011972047416428
  1
66.85'
 50
345.87928149595416
  7
PLAT
 72
1
 11
506.5380703937991
 21
313.2441728139429
 31
0.0
100
AcDbText
 73
1
  0
TEXT
  5
154
330
17
100
AcDbEntity
  8
PLAT-TEXT-DIST
100
AcDbText
 10
468.7855248830509
 20
316.7642156137318
 30
0.0
 40
9.011972047416428
  1
22.00'
 50
1.074471267228018
  7
PLAT
 72
1
 11
468.7855248830509
 21
316.7642156137318
 31
0.0
100
AcDbText
 73
3
  0
TEXT
  5
155
330
17
100
AcDbEntity
  8
PLAT-TEXT-DIST
100
AcDbText
 10
489.03927789684593
 20
314.1242513416132
 30
0.0
 40
9.011972047416428
  1
20'
 50
345.4871472681023
  7
PLAT
 72
1
 11
489.03927789684593
 21
314.1242513416132
 31
0.0
100
AcDbText
 73
3
  0
TEXT
  5
156
330
17
100
AcDbEntity
  8
PLAT-TEXT-DIST
100
AcDbText
 10
589.9686375599575
 20
297.3069967729911
 30
0.0
 40
9.011972047416428
  1
66.86'
 50
345.48714726810226
  7
PLAT
 72
1
 11
589.9686375599575
 21
297.3069967729911
 31
0.0
100
AcDbText
 73
1
  0
TEXT
  5
157
330
17
100
AcDbEntity
  8
PLAT-TEXT-DIST
100
AcDbText
 10
402.3700474774432
 20
267.168981359345
 30
0.0
 40
9.011972047416428
  1
100.44'
 50
88.54044356357417
  7
PLAT
 72
1
 11
402.3700474774432
 21
267.168981359345
 31
0.0
100
AcDbText
 73
3
  0
TEXT
  5
158
330
17
100
AcDbEntity
  8
PLAT-TEXT-DIST
100
AcDbText
 10
232.87430881261986
 20
280.94351969848674
 30
0.0
 40
9.011972047416428
  1
75'
 50
91.05634832999579
  7
PLAT
 72
1
 11
232.87430881261986
 21
280.94351969848674
 31
0.0
100
AcDbText
 73
1
  0
TEXT
  5
159
330
17
100
AcDbEntity
  8
PLAT-TEXT-DIST
100
AcDbText
 10
496.778406972517
 20
271.4284519625755
 30
0.0
 40
9.011972047416428
  1
109.05'
 50
78.23932195276592
  7
PLAT
 72
1
 11
496.778406972517
 21
271.4284519625755
 31
0.0
100
AcDbText
 73
3
  0
TEXT
  5
15A
330
17
100
AcDbEntity
  8
PLAT-TEXT-DIST
100
AcDbText
 10
302.97054627428224
 20
264.7424936518179
 30
0.0
 40
9.011972047416428
  1
100'
 50
92.62838842079444
  7
PLAT
 72
1
 11
302.97054627428224
 21
264.7424936518179
 31
0.0
100
AcDbText
 73
3
  0
TEXT
  5
15B
330
17
100
AcDbEntity
  8
PLAT-TEXT-DIST
100
AcDbText
 10
634.3150508007855
 20
276.7582812668443
 30
0.0
 40
9.011972047416428
  1
75'
 50
324.2300911125952
  7
PLAT
 72
1
 11
634.3150508007855
 21
276.7582812668443
 31
0.0
100
AcDbText
 73
1
  0
TEXT
  5
15C
330
17
100
AcDbEntity
  8
PLAT-TEXT-DIST
100
AcDbText
 10
574.9610723982247
 20
247.70000888375756
 30
0.0
 40
9.011972047416428
  1
112.43'
 50
70.79828062878403
  7
PLAT
 72
1
 11
574.9610723982247
 21
247.70000888375756
 31
0.0
100
AcDbText
 73
3
  0
TEXT
  5
15D
330
17
100
AcDbEntity
  8
PLAT-TEXT-DIST
100
AcDbText
 10
143.311353821176
 20
210.45385831156102
 30
0.0
 40
9.011972047416428
  1
75'
 50
90.99964104730657
  7
PLAT
 72
1
 11
143.311353821176
 21
210.45385831156102
 31
0.0
100
AcDbText
 73
3
  0
TEXT
  5
15E
330
17
100
AcDbEntity
  8
PLAT-TEXT-DIST
100
AcDbText
 10
339.6218042273465
 20
221.50691811055415
 30
0.0
 40
9.011972047416428
  1
8.00'
 50
358.0450551904424
  7
PLAT
 72
1
 11
339.6218042273465
 21
221.50691811055415
 31
0.0
100
AcDbText
 73
1
  0
TEXT
  5
15F
330
17
100
AcDbEntity
  8
PLAT-TEXT-BRG
100
AcDbText
 10
357.11535615089457
 20
211.89258205478615
 30
0.0
 40
9.011972047416428
  1
S 88%%d58'20" E
 50
358.0450551904424
  7
PLAT
 72
1
 11
357.11535615089457
 21
211.89258205478615
 31
0.0
100
AcDbText
 73
3
  0
TEXT
  5
160
330
17
100
AcDbEntity
  8
PLAT-TEXT-DIST
100
AcDbText
 10
439.9344175042122
 20
216.69542310372995
 30
0.0
 40
9.011972047416428
  1
76.78'
 50
354.8923600207284
  7
PLAT
 72
1
 11
439.9344175042122
 21
216.69542310372995
 31
0.0
100
AcDbText
 73
1
  0
TEXT
  5
161
330
17
100
AcDbEntity
  8
PLAT-TEXT-DIST
100
AcDbText
 10
641.3347151637724
 20
202.80017802672467
 30
0.0
 40
9.011972047416428
  1
104.68'
 50
62.06308925396053
  7
PLAT
 72
1
 11
641.3347151637724
 21
202.80017802672467
 31
0.0
100
AcDbText
 73
3
  0
TEXT
  5
162
330
17
100
AcDbEntity
  8
PLAT-TEXT-DIST
100
AcDbText
 10
234.3920565149073
 20
198.6310078308779
 30
0.0
 40
9.011972047416428
  1
75'
 50
91.05634832999579
  7
PLAT
 72
1
 11
234.3920565149073
 21
198.6310078308779
 31
0.0
100
AcDbText
 73
1
  0
TEXT
  5
163
330
17
100
AcDbEntity
  8
PLAT-TEXT-DIST
100
AcDbText
 10
518.5735162874203
 20
201.21584509851493
 30
0.0
 40
9.011972047416428
  1
76.78'
 50
344.5696792774504
  7
PLAT
 72
1
 11
518.5735162874203
 21
201.21584509851493
 31
0.0
100
AcDbText
 73
1
  0
TEXT
  5
164
330
17
100
AcDbEntity
  8
PLAT-TEXT-DIST
100
AcDbText
 10
584.7532771884589
 20
177.26022267839954
 30
0.0
 40
9.011972047416428
  1
76.78'
 50
335.99823328604737
  7
PLAT
 72
1
 11
584.7532771884589
 21
177.26022267839954
 31
0.0
100
AcDbText
 73
1
  0
TEXT
  5
165
330
17
100
AcDbEntity
  8
PLAT-TEXT-DIST
100
AcDbText
 10
453.24608869073285
 20
155.35364056864248
 30
0.0
 40
9.011972047416428
  1
496'
 50
350.96515979526146
  7
PLAT
 72
1
 11
453.24608869073285
 21
155.35364056864248
 31
0.0
100
AcDbText
 73
1
  0
TEXT
  5
166
330
17
100
AcDbEntity
  8
PLAT-TEXT-DIST
100
AcDbText
 10
144.68150999504357
 20
131.92947142055755
 30
0.0
 40
9.011972047416428
  1
73'
 50
90.99964104730645
  7
PLAT
 72
1
 11
144.68150999504357
 21
131.92947142055755
 31
0.0
100
AcDbText
 73
3
  0
TEXT
  5
167
330
17
100
AcDbEntity
  8
PLAT-TEXT-DIST
100
AcDbText
 10
339.65570503750416
 20
150.88514115956804
 30
0.0
 40
9.011972047416428
  1
80'
 50
0.45568068719944677
  7
PLAT
 72
1
 11
339.65570503750416
 21
150.88514115956804
 31
0.0
100
AcDbText
 73
3
  0
TEXT
  5
168
330
17
100
AcDbEntity
  8
PLAT-TEXT-DIST
100
AcDbText
 10
641.5696868345151
 20
147.38582482045496
 30
0.0
 40
9.011972047416428
  1
62.89'
 50
328.5390485255833
  7
PLAT
 72
1
 11
641.5696868345151
 21
147.38582482045496
 31
0.0
100
AcDbText
 73
1
  0
TEXT
  5
169
330
17
100
AcDbEntity
  8
PLAT-TEXT-DIST
100
AcDbText
 10
536.4198137702548
 20
166.19233779541773
 30
0.0
 40
9.011972047416428
  1
50.73'
 50
339.9571268947227
  7
PLAT
 72
1
 11
536.4198137702548
 21
166.19233779541773
 31
0.0
100
AcDbText
 73
3
  0
TEXT
  5
16A
330
17
100
AcDbEntity
  8
PLAT-TEXT-DIST
100
AcDbText
 10
235.74838639435495
 20
125.07272200368291
 30
0.0
 40
9.011972047416428
  1
715'
 50
91.05634832999579
  7
PLAT
 72
1
 11
235.74838639435495
 21
125.07272200368291
 31
0.0
100
AcDbText
 73
1
  0
TEXT
  5
16B
330
17
100
AcDbEntity
  8
PLAT-TEXT-DIST
100
AcDbText
 10
474.6692218588395
 20
78.91787685467615
 30
0.0
 40
9.011972047416428
  1
108.52'
 50
77.33335179124799
  7
PLAT
 72
1
 11
474.6692218588395
 21
78.91787685467615
 31
0.0
100
AcDbText
 73
3
  0
TEXT
  5
16C
330
17
100
AcDbEntity
  8
PLAT-TEXT-BRG
100
AcDbText
 10
466.4857646137496
 20
83.6045278707857
 30
0.0
 40
9.011972047416428
  1
N 12%%d53'25" E
 50
77.33335179124799
  7
PLAT
 72
1
 11
466.4857646137496
 21
83.6045278707857
 31
0.0
100
AcDbText
 73
1
  0
TEXT
  5
16D
330
17
100
AcDbEntity
  8
PLAT-TEXT-DIST
100
AcDbText
 10
531.6581073969486
 20
125.48786324004035
 30
0.0
 40
9.011972047416428
  1
89.76'
 50
343.06678625186026
  7
PLAT
 72
1
 11
531.6581073969486
 21
125.48786324004035
 31
0.0
100
AcDbText
 73
3
  0
TEXT
  5
16E
330
17
100
AcDbEntity
  8
PLAT-TEXT-DIST
100
AcDbText
 10
305.6029176344484
 20
101.70644229705508
 30
0.0
 40
9.011972047416428
  1
100'
 50
90.53544396741984
  7
PLAT
 72
1
 11
305.6029176344484
 21
101.70644229705508
 31
0.0
100
AcDbText
 73
3
  0
TEXT
  5
16F
330
17
100
AcDbEntity
  8
PLAT-TEXT-DIST
100
AcDbText
 10
399.3804570800329
 20
99.69160908214623
 30
0.0
 40
9.011972047416428
  1
99.80'
 50
88.73030174676524
  7
PLAT
 72
1
 11
399.3804570800329
 21
99.69160908214623
 31
0.0
100
AcDbText
 73
3
  0
TEXT
  5
170
330
17
100
AcDbEntity
  8
PLAT-TEXT-DIST
100
AcDbText
 10
595.6764928657713
 20
95.35242860157736
 30
0.0
 40
9.011972047416428
  1
14.84'
 50
330.81490611022133
  7
PLAT
 72
1
 11
595.6764928657713
 21
95.35242860157736
 31
0.0
100
AcDbText
 73
3
  0
TEXT
  5
171
330
17
100
AcDbEntity
  8
PLAT-TEXT-DIST
100
AcDbText
 10
145.73839080060714
 20
71.35906429719046
 30
0.0
 40
9.011972047416428
  1
40'
 50
90.99964104730657
  7
PLAT
 72
1
 11
145.73839080060714
 21
71.35906429719046
 31
0.0
100
AcDbText
 73
3
  0
TEXT
  5
172
330
17
100
AcDbEntity
  8
PLAT-TEXT-DIST
100
AcDbText
 10
236.7909028132808
 20
68.53358511309085
 30
0.0
 40
9.011972047416428
  1
40'
 50
91.05634832999584
  7
PLAT
 72
1
 11
236.7909028132808
 21
68.53358511309085
 31
0.0
100
AcDbText
 73
1
  0
TEXT
  5
173
330
17
100
AcDbEntity
  8
PLAT-TEXT-DIST
100
AcDbText
 10
189.42773275274254
 20
58.026018712111195
 30
0.0
 40
9.011972047416428
  1
0'
 50
0.881655380139159
  7
PLAT
 72
1
 11
189.42773275274254
 21
58.026018712111195
 31
0.0
100
AcDbText
 73
1
  0
TEXT
  5
174
330
17
100
AcDbEntity
  8
PLAT-TEXT-DIST
100
AcDbText
 10
540.9186531881958
 20
50.224984333491975
 30
0.0
 40
9.011972047416428
  1
107.08'
 50
64.87568492985321
  7
PLAT
 72
1
 11
540.9186531881958
 21
50.224984333491975
 31
0.0
100
AcDbText
 73
3
  0
TEXT
  5
175
330
17
100
AcDbEntity
  8
PLAT-TEXT-DIST
100
AcDbText
 10
425.1172369231887
 20
51.779178911293315
 30
0.0
 40
9.011972047416428
  1
9'
 50
343.0603685395434
  7
PLAT
 72
1
 11
425.1172369231887
 21
51.779178911293315
 31
0.0
100
AcDbText
 73
1
  0
TEXT
  5
176
330
17
100
AcDbEntity
  8
PLAT-TEXT-DIST
100
AcDbText
 10
237.4487576159577
 20
32.855928562601065
 30
0.0
 40
9.011972047416428
  1
40'
 50
91.05634832999579
  7
PLAT
 72
1
 11
237.4487576159577
 21
32.855928562601065
 31
0.0
100
AcDbText
 73
1
  0
TEXT
  5
177
330
17
100
AcDbEntity
  8
PLAT-TEXT-DIST
100
AcDbText
 10
306.2352854824732
 20
34.04118462442423
 30
0.0
 40
9.011972047416428
  1
40'
 50
90.53544396741985
  7
PLAT
 72
1
 11
306.2352854824732
 21
34.04118462442423
 31
0.0
100
AcDbText
 73
3
  0
TEXT
  5
178
330
17
100
AcDbEntity
  8
PLAT-TEXT-BRG
100
AcDbText
 10
468.0501477883091
 20
29.282003064486624
 30
0.0
 40
9.011972047416428
  1
S 72%%d51'40" E
 50
343.0603685395433
  7
PLAT
 72
1
 11
468.0501477883091
 21
29.282003064486624
 31
0.0
100
AcDbText
 73
3
  0
TEXT
  5
179
330
17
100
AcDbEntity
  8
PLAT-TEXT-DIST
100
AcDbText
 10
488.7594555883777
 20
32.39509952757775
 30
0.0
 40
9.011972047416428
  1
9'
 50
343.0603685395433
  7
PLAT
 72
1
 11
488.7594555883777
 21
32.39509952757775
 31
0.0
100
AcDbText
 73
1
  0
TEXT
  5
17A
330
17
100
AcDbEntity
  8
PLAT-TEXT-DIST
100
AcDbText
 10
665.6315950628748
 20
47.54881093222122
 30
0.0
 40
9.011972047416428
  1
75'
 50
324.30419824799054
  7
PLAT
 72
1
 11
665.6315950628748
 21
47.54881093222122
 31
0.0
100
AcDbText
 73
3
  0
TEXT
  5
17B
330
17
100
AcDbEntity
  8
PLAT-TEXT-DIST
100
AcDbText
 10
191.35291764795346
 20
9.006558167064806
 30
0.0
 40
9.011972047416428
  1
100'
 50
0.7649345003646224
  7
PLAT
 72
1
 11
191.35291764795346
 21
9.006558167064806
 31
0.0
100
AcDbText
 73
3
  0
TEXT
  5
17C
330
17
100
AcDbEntity
  8
PLAT-TEXT-DIST
100
AcDbText
 10
343.99720899572344
 20
10.814521700279794
 30
0.0
 40
9.011972047416428
  1
96.80'
 50
0.4168815451954871
  7
PLAT
 72
1
 11
343.99720899572344
 21
10.814521700279794
 31
0.0
100
AcDbText
 73
3
  0
TEXT
  5
17D
330
17
100
AcDbEntity
  8
PLAT-TEXT-LOWCONF
100
AcDbText
 10
58.15414898931749
 20
723.6164088676346
 30
0.0
 40
3.314697189015968
  1
\e
 50
92.40768452228025
  7
PLAT
 72
1
 11
58.15414898931749
 21
723.6164088676346
 31
0.0
100
AcDbText
 73
2
  0
TEXT
  5
17E
330
17
100
AcDbEntity
  8
PLAT-TEXT-LOWCONF
100
AcDbText
 10
246.84736295778282
 20
727.0263144882418
 30
0.0
 40
11.450772107509707
  1
A
 50
92.40768452228025
  7
PLAT
 72
1
 11
246.84736295778282
 21
727.0263144882418
 31
0.0
100
AcDbText
 73
2
  0
TEXT
  5
17F
330
17
100
AcDbEntity
  8
PLAT-TEXT-LOWCONF
100
AcDbText
 10
99.20165955499516
 20
704.8987099254173
 30
0.0
 40
9.926293235802053
  1
SA/.
 50
92.61841983782068
  7
PLAT
 72
1
 11
99.20165955499516
 21
704.8987099254173
 31
0.0
100
AcDbText
 73
2
  0
TEXT
  5
180
330
17
100
AcDbEntity
  8
PLAT-TEXT-LOWCONF
100
AcDbText
 10
376.1200805901231
 20
732.80469589309
 30
0.0
 40
4.043579776479366
  1
4
 50
2.186998167423299
  7
PLAT
 72
1
 11
376.1200805901231
 21
732.80469589309
 31
0.0
100
AcDbText
 73
2
  0
TEXT
  5
181
330
17
100
AcDbEntity
  8
PLAT-TEXT-LOWCONF
100
AcDbText
 10
131.996733466499
 20
716.8353962005459
 30
0.0
 40
10.848099891324987
  1
a
 50
92.40768452228025
  7
PLAT
 72
1
 11
131.996733466499
 21
716.8353962005459
 31
0.0
100
AcDbText
 73
2
  0
TEXT
  5
182
330
17
100
AcDbEntity
  8
PLAT-TEXT-LOWCONF
100
AcDbText
 10
249.67490584339532
 20
707.4465377566896
 30
0.0
 40
9.481122309217858
  1
"a,
 50
310.3301205293249
  7
PLAT
 72
1
 11
249.67490584339532
 21
707.4465377566896
 31
0.0
100
AcDbText
 73
2
  0
TEXT
  5
183
330
17
100
AcDbEntity
  8
PLAT-TEXT-LOWCONF
100
AcDbText
 10
284.76548761234335
 20
713.8756450027437
 30
0.0
 40
4.017814774564809
  1
7
 50
92.40768452228025
  7
PLAT
 72
1
 11
284.76548761234335
 21
713.8756450027437
 31
0.0
100
AcDbText
 73
2
  0
TEXT
  5
184
330
17
100
AcDbEntity
  8
PLAT-TEXT-LOWCONF
100
AcDbText
 10
455.41712041267317
 20
712.0029249078812
 30
0.0
 40
14.932876375700918
  1
A
 50
2.4076845222802494
  7
PLAT
 72
1
 11
455.41712041267317
 21
712.0029249078812
 31
0.0
100
AcDbText
 73
2
  0
TEXT
  5
185
330
17
100
AcDbEntity
  8
PLAT-TEXT-LOTNO
100
AcDbText
 10
493.25330678609726
 20
712.756030171854
 30
0.0
 40
16.59208486188991
  1
7
 50
2.407684522280249
  7
PLAT
 72
1
 11
493.25330678609726
 21
712.756030171854
 31
0.0
100
AcDbText
 73
2
  0
TEXT
  5
186
330
17
100
AcDbEntity
  8
PLAT-TEXT-LOWCONF
100
AcDbText
 10
289.47295021079924
 20
705.5281783868629
 30
0.0
 40
9.341419350863182
  1
10"
 50
92.40768452228025
  7
PLAT
 72
1
 11
289.47295021079924
 21
705.5281783868629
 31
0.0
100
AcDbText
 73
2
  0
TEXT
  5
187
330
17
100
AcDbEntity
  8
PLAT-TEXT-MISC
100
AcDbText
 10
65.56499196310585
 20
698.7944808096094
 30
0.0
 40
3.9173694052006893
  1
les
 50
2.407684522280249
  7
PLAT
 72
1
 11
65.56499196310585
 21
698.7944808096094
 31
0.0
100
AcDbText
 73
2
  0
TEXT
  5
188
330
17
100
AcDbEntity
  8
PLAT-TEXT-LOWCONF
100
AcDbText
 10
134.51803474649654
 20
629.1527306706914
 30
0.0
 40
9.659317063362044
  1
--g9'-- —- 90
 50
92.61841983782068
  7
PLAT
 72
1
 11
134.51803474649654
 21
629.1527306706914
 31
0.0
100
AcDbText
 73
2
  0
TEXT
  5
189
330
17
100
AcDbEntity
  8
PLAT-TEXT-LOWCONF
100
AcDbText
 10
59.14179162759365
 20
692.1572449935626
 30
0.0
 40
3.314697189015968
  1
fs
 50
92.40768452228025
  7
PLAT
 72
1
 11
59.14179162759365
 21
692.1572449935626
 31
0.0
100
AcDbText
 73
2
  0
TEXT
  5
18A
330
17
100
AcDbEntity
  8
PLAT-TEXT-LOWCONF
100
AcDbText
 10
290.04108053547
 20
696.0013249957219
 30
0.0
 40
9.374901140651222
  1
9
 50
92.40768452228025
  7
PLAT
 72
1
 11
290.04108053547
 21
696.0013249957219
 31
0.0
100
AcDbText
 73
2
  0
TEXT
  5
18B
330
17
100
AcDbEntity
  8
PLAT-TEXT-LOTNO
100
AcDbText
 10
169.23785131240123
 20
687.9059152316099
 30
0.0
 40
12.053444323694428
  1
3
 50
2.4076845222802494
  7
PLAT
 72
1
 11
169.23785131240123
 21
687.9059152316099
 31
0.0
100
AcDbText
 73
2
  0
TEXT
  5
18C
330
17
100
AcDbEntity
  8
PLAT-TEXT-LOWCONF
100
AcDbText
 10
96.7324267522697
 20
678.8252487622644
 30
0.0
 40
16.59208486188991
  1
4
 50
92.40768452228025
  7
PLAT
 72
1
 11
96.7324267522697
 21
678.8252487622644
 31
0.0
100
AcDbText
 73
2
  0
TEXT
  5
18D
330
17
100
AcDbEntity
  8
PLAT-TEXT-LOWCONF
100
AcDbText
 10
64.31110636797547
 20
657.2004947693471
 30
0.0
 40
11.989988752453153
  1
2%%d
 50
91.51560361025946
  7
PLAT
 72
1
 11
64.31110636797547
 21
657.2004947693471
 31
0.0
100
AcDbText
 73
2
  0
TEXT
  5
18E
330
17
100
AcDbEntity
  8
PLAT-TEXT-LOWCONF
100
AcDbText
 10
287.4021882577468
 20
671.0919517193379
 30
0.0
 40
7.834738810401379
  1
r
 50
2.4076845222802494
  7
PLAT
 72
1
 11
287.4021882577468
 21
671.0919517193379
 31
0.0
100
AcDbText
 73
2
  0
TEXT
  5
18F
330
17
100
AcDbEntity
  8
PLAT-TEXT-LOWCONF
100
AcDbText
 10
255.49199630185598
 20
664.8910819171631
 30
0.0
 40
14.765469296525675
  1
BN
 50
2.407684522280249
  7
PLAT
 72
1
 11
255.49199630185598
 21
664.8910819171631
 31
0.0
100
AcDbText
 73
2
  0
TEXT
  5
190
330
17
100
AcDbEntity
  8
PLAT-TEXT-LOWCONF
100
AcDbText
 10
260.04719269574446
 20
672.1200016618908
 30
0.0
 40
2.7120249728312467
  1
re
 50
92.40768452228025
  7
PLAT
 72
1
 11
260.04719269574446
 21
672.1200016618908
 31
0.0
100
AcDbText
 73
2
  0
TEXT
  5
191
330
17
100
AcDbEntity
  8
PLAT-TEXT-LOWCONF
100
AcDbText
 10
148.69955956852547
 20
650.3473923584079
 30
0.0
 40
6.361540059727615
  1
7
 50
92.40768452228025
  7
PLAT
 72
1
 11
148.69955956852547
 21
650.3473923584079
 31
0.0
100
AcDbText
 73
2
  0
TEXT
  5
192
330
17
100
AcDbEntity
  8
PLAT-TEXT-LOWCONF
100
AcDbText
 10
253.89902683910546
 20
650.1039506744614
 30
0.0
 40
3.3995720359732067
  1
Ca ;
 50
283.1436973207367
  7
PLAT
 72
1
 11
253.89902683910546
 21
650.1039506744614
 31
0.0
100
AcDbText
 73
2
  0
TEXT
  5
193
330
17
100
AcDbEntity
  8
PLAT-TEXT-LOWCONF
100
AcDbText
 10
101.9257485056605
 20
638.9975198952823
 30
0.0
 40
9.709719038531622
  1
‘7
 50
92.40768452228025
  7
PLAT
 72
1
 11
101.9257485056605
 21
638.9975198952823
 31
0.0
100
AcDbText
 73
2
  0
TEXT
  5
194
330
17
100
AcDbEntity
  8
PLAT-TEXT-LOWCONF
100
AcDbText
 10
150.83082853708552
 20
635.5244441503718
 30
0.0
 40
14.731987506737635
  1
8
 50
2.4076845222802494
  7
PLAT
 72
1
 11
150.83082853708552
 21
635.5244441503718
 31
0.0
100
AcDbText
 73
2
  0
TEXT
  5
195
330
17
100
AcDbEntity
  8
PLAT-TEXT-LOWCONF
100
AcDbText
 10
66.01600932677513
 20
628.5020400256598
 30
0.0
 40
11.57609225508716
  1
Ss.
 50
91.51560361025946
  7
PLAT
 72
1
 11
66.01600932677513
 21
628.5020400256598
 31
0.0
100
AcDbText
 73
2
  0
TEXT
  5
196
330
17
100
AcDbEntity
  8
PLAT-TEXT-LOWCONF
100
AcDbText
 10
98.10441774243571
 20
626.27008021083
 30
0.0
 40
14.932876375700918
  1
‘A
 50
92.40768452228025
  7
PLAT
 72
1
 11
98.10441774243571
 21
626.27008021083
 31
0.0
100
AcDbText
 73
2
  0
TEXT
  5
197
330
17
100
AcDbEntity
  8
PLAT-TEXT-LOWCONF
100
AcDbText
 10
151.95853053896306
 20
620.6592991882768
 30
0.0
 40
12.35478043178679
  1
Co/ 6
 50
92.40768452228025
  7
PLAT
 72
1
 11
151.95853053896306
 21
620.6592991882768
 31
0.0
100
AcDbText
 73
2
  0
TEXT
  5
198
330
17
100
AcDbEntity
  8
PLAT-TEXT-LOTNO
100
AcDbText
 10
410.9506617216071
 20
625.8521494651916
 30
0.0
 40
11.718626425814028
  1
2
 50
2.4076845222802494
  7
PLAT
 72
1
 11
410.9506617216071
 21
625.8521494651916
 31
0.0
100
AcDbText
 73
2
  0
TEXT
  5
199
330
17
100
AcDbEntity
  8
PLAT-TEXT-LOTNO
100
AcDbText
 10
485.24274842548664
 20
628.3056646210748
 30
0.0
 40
11.048990630053225
  1
3
 50
2.4076845222802494
  7
PLAT
 72
1
 11
485.24274842548664
 21
628.3056646210748
 31
0.0
100
AcDbText
 73
2
  0
TEXT
  5
19A
330
17
100
AcDbEntity
  8
PLAT-TEXT-LOTNO
100
AcDbText
 10
561.8624258002724
 20
631.192161191989
 30
0.0
 40
11.718626425814028
  1
4
 50
2.4076845222802494
  7
PLAT
 72
1
 11
561.8624258002724
 21
631.192161191989
 31
0.0
100
AcDbText
 73
2
  0
TEXT
  5
19B
330
17
100
AcDbEntity
  8
PLAT-TEXT-LOTNO
100
AcDbText
 10
636.9767527250344
 20
634.0153626318154
 30
0.0
 40
11.718626425814028
  1
5
 50
2.4076845222802494
  7
PLAT
 72
1
 11
636.9767527250344
 21
634.0153626318154
 31
0.0
100
AcDbText
 73
2
  0
TEXT
  5
19C
330
17
100
AcDbEntity
  8
PLAT-TEXT-LOTNO
100
AcDbText
 10
103.78486091122087
 20
606.7372141773569
 30
0.0
 40
16.071259098259237
  1
8
 50
2.407684522280249
  7
PLAT
 72
1
 11
103.78486091122087
 21
606.7372141773569
 31
0.0
100
AcDbText
 73
2
  0
TEXT
  5
19D
330
17
100
AcDbEntity
  8
PLAT-TEXT-LOWCONF
100
AcDbText
 10
152.43676041829417
 20
609.2855402325415
 30
0.0
 40
9.040083242770821
  1
4
 50
2.407684522280249
  7
PLAT
 72
1
 11
152.43676041829417
 21
609.2855402325415
 31
0.0
100
AcDbText
 73
2
  0
TEXT
  5
19E
330
17
100
AcDbEntity
  8
PLAT-TEXT-LOWCONF
100
AcDbText
 10
254.0260544903105
 20
616.0703953938553
 30
0.0
 40
3.6160332971083284
  1
a
 50
92.40768452228025
  7
PLAT
 72
1
 11
254.0260544903105
 21
616.0703953938553
 31
0.0
100
AcDbText
 73
2
  0
TEXT
  5
19F
330
17
100
AcDbEntity
  8
PLAT-TEXT-LOWCONF
100
AcDbText
 10
220.3419745250187
 20
600.244814819258
 30
0.0
 40
8.442353809718826
  1
SCR
 50
92.426866218165
  7
PLAT
 72
1
 11
220.3419745250187
 21
600.244814819258
 31
0.0
100
AcDbText
 73
2
  0
TEXT
  5
1A0
330
17
100
AcDbEntity
  8
PLAT-TEXT-LOTNO
100
AcDbText
 10
175.6273442473804
 20
599.7045468410372
 30
0.0
 40
16.59208486188991
  1
4
 50
2.4076845222802494
  7
PLAT
 72
1
 11
175.6273442473804
 21
599.7045468410372
 31
0.0
100
AcDbText
 73
2
  0
TEXT
  5
1A1
330
17
100
AcDbEntity
  8
PLAT-TEXT-LOWCONF
100
AcDbText
 10
152.8235639971649
 20
600.086176371285
 30
0.0
 40
8.705265344890421
  1
4
 50
2.4076845222802494
  7
PLAT
 72
1
 11
152.8235639971649
 21
600.086176371285
 31
0.0
100
AcDbText
 73
2
  0
TEXT
  5
1A2
330
17
100
AcDbEntity
  8
PLAT-TEXT-LOWCONF
100
AcDbText
 10
258.26291648503906
 20
598.9901844383437
 30
0.0
 40
9.709719038531622
  1
7%
 50
92.40768452228025
  7
PLAT
 72
1
 11
258.26291648503906
 21
598.9901844383437
 31
0.0
100
AcDbText
 73
2
  0
TEXT
  5
1A3
330
17
100
AcDbEntity
  8
PLAT-TEXT-LOWCONF
100
AcDbText
 10
153.0290408302357
 20
591.214302039913
 30
0.0
 40
9.944091567047904
  1
q
 50
2.407684522280249
  7
PLAT
 72
1
 11
153.0290408302357
 21
591.214302039913
 31
0.0
100
AcDbText
 73
2
  0
TEXT
  5
1A4
330
17
100
AcDbEntity
  8
PLAT-TEXT-LOWCONF
100
AcDbText
 10
256.513540641388
 20
580.8204871529117
 30
0.0
 40
6.930730486124296
  1
a
 50
2.407684522280249
  7
PLAT
 72
1
 11
256.513540641388
 21
580.8204871529117
 31
0.0
100
AcDbText
 73
2
  0
TEXT
  5
1A5
330
17
100
AcDbEntity
  8
PLAT-TEXT-LOWCONF
100
AcDbText
 10
372.4488620339176
 20
581.5292692938774
 30
0.0
 40
9.484598420166664
  1
— [SL—-- 09 €6——
 50
2.125883995389472
  7
PLAT
 72
1
 11
372.4488620339176
 21
581.5292692938774
 31
0.0
100
AcDbText
 73
2
  0
TEXT
  5
1A6
330
17
100
AcDbEntity
  8
PLAT-TEXT-LOWCONF
100
AcDbText
 10
647.2757162135895
 20
592.3883145530683
 30
0.0
 40
10.338677784226935
  1
SSL
 50
2.125883995389472
  7
PLAT
 72
1
 11
647.2757162135895
 21
592.3883145530683
 31
0.0
100
AcDbText
 73
2
  0
TEXT
  5
1A7
330
17
100
AcDbEntity
  8
PLAT-TEXT-LOWCONF
100
AcDbText
 10
259.8211446749667
 20
569.9008079892366
 30
0.0
 40
9.709719038531622
  1
2:
 50
92.40768452228025
  7
PLAT
 72
1
 11
259.8211446749667
 21
569.9008079892366
 31
0.0
100
AcDbText
 73
2
  0
TEXT
  5
1A8
330
17
100
AcDbEntity
  8
PLAT-TEXT-LOWCONF
100
AcDbText
 10
501.03197549023525
 20
571.4033728251081
 30
0.0
 40
8.830533397556682
  1
— Ho
 50
2.125883995389449
  7
PLAT
 72
1
 11
501.03197549023525
 21
571.4033728251081
 31
0.0
100
AcDbText
 73
2
  0
TEXT
  5
1A9
330
17
100
AcDbEntity
  8
PLAT-TEXT-LOWCONF
100
AcDbText
 10
562.9292176447732
 20
535.9787406589962
 30
0.0
 40
11.869819277708583
  1
NSE ROS 45
 50
78.62724473267076
  7
PLAT
 72
1
 11
562.9292176447732
 21
535.9787406589962
 31
0.0
100
AcDbText
 73
2
  0
TEXT
  5
1AA
330
17
100
AcDbEntity
  8
PLAT-TEXT-LOWCONF
100
AcDbText
 10
387.1770964505039
 20
569.558789605893
 30
0.0
 40
1.6593191281400927
  1
id —_a =
 50
2.125883995389472
  7
PLAT
 72
1
 11
387.1770964505039
 21
569.558789605893
 31
0.0
100
AcDbText
 73
2
  0
TEXT
  5
1AB
330
17
100
AcDbEntity
  8
PLAT-TEXT-LOWCONF
100
AcDbText
 10
103.14601399683096
 20
544.7130886902567
 30
0.0
 40
10.359630928213479
  1
o-
 50
311.4477527883849
  7
PLAT
 72
1
 11
103.14601399683096
 21
544.7130886902567
 31
0.0
100
AcDbText
 73
2
  0
TEXT
  5
1AC
330
17
100
AcDbEntity
  8
PLAT-TEXT-LOTNO
100
AcDbText
 10
260.98002955645813
 20
546.3240170645404
 30
0.0
 40
16.59208486188991
  1
2
 50
2.407684522280249
  7
PLAT
 72
1
 11
260.98002955645813
 21
546.3240170645404
 31
0.0
100
AcDbText
 73
2
  0
TEXT
  5
1AD
330
17
100
AcDbEntity
  8
PLAT-TEXT-LOWCONF
100
AcDbText
 10
297.95997605162074
 20
523.5831532746386
 30
0.0
 40
8.893193338294964
  1
.0O/
 50
92.73594802979392
  7
PLAT
 72
1
 11
297.95997605162074
 21
523.5831532746386
 31
0.0
100
AcDbText
 73
2
  0
TEXT
  5
1AE
330
17
100
AcDbEntity
  8
PLAT-TEXT-LOTNO
100
AcDbText
 10
334.3379478452261
 20
531.1447823800484
 30
0.0
 40
15.865785457075292
  1
33
 50
15.963685693171328
  7
PLAT
 72
1
 11
334.3379478452261
 21
531.1447823800484
 31
0.0
100
AcDbText
 73
2
  0
TEXT
  5
1AF
330
17
100
AcDbEntity
  8
PLAT-TEXT-LOTNO
100
AcDbText
 10
418.1479784510185
 20
531.8139914696536
 30
0.0
 40
14.384393760573575
  1
32
 50
12.33289204104085
  7
PLAT
 72
1
 11
418.1479784510185
 21
531.8139914696536
 31
0.0
100
AcDbText
 73
2
  0
TEXT
  5
1B0
330
17
100
AcDbEntity
  8
PLAT-TEXT-LOWCONF
100
AcDbText
 10
649.8214600406009
 20
505.929292177962
 30
0.0
 40
11.347428138106727
  1
A 6.1909"
 50
67.18385994186917
  7
PLAT
 72
1
 11
649.8214600406009
 21
505.929292177962
 31
0.0
100
AcDbText
 73
2
  0
TEXT
  5
1B1
330
17
100
AcDbEntity
  8
PLAT-TEXT-LOTNO
100
AcDbText
 10
180.6576495164202
 20
511.9486995950608
 30
0.0
 40
12.388262221574829
  1
5
 50
2.4076845222802494
  7
PLAT
 72
1
 11
180.6576495164202
 21
511.9486995950608
 31
0.0
100
AcDbText
 73
2
  0
TEXT
  5
1B2
330
17
100
AcDbEntity
  8
PLAT-TEXT-LOTNO
100
AcDbText
 10
610.9802275522898
 20
529.9331055049464
 30
0.0
 40
12.41405744994291
  1
30
 50
13.689988322204613
  7
PLAT
 72
1
 11
610.9802275522898
 21
529.9331055049464
 31
0.0
100
AcDbText
 73
2
  0
TEXT
  5
1B3
330
17
100
AcDbEntity
  8
PLAT-TEXT-LOWCONF
100
AcDbText
 10
413.4417953541627
 20
509.4326053772792
 30
0.0
 40
11.230458220004778
  1
fr,
 50
71.58742111192407
  7
PLAT
 72
1
 11
413.4417953541627
 21
509.4326053772792
 31
0.0
100
AcDbText
 73
2
  0
TEXT
  5
1B4
330
17
100
AcDbEntity
  8
PLAT-TEXT-LOWCONF
100
AcDbText
 10
180.09164153013086
 20
497.51501019287616
 30
0.0
 40
3.682996876684409
  1
1
 50
92.40768452228025
  7
PLAT
 72
1
 11
180.09164153013086
 21
497.51501019287616
 31
0.0
100
AcDbText
 73
2
  0
TEXT
  5
1B5
330
17
100
AcDbEntity
  8
PLAT-TEXT-LOWCONF
100
AcDbText
 10
182.58228762901862
 20
492.2729944286821
 30
0.0
 40
11.067076646396444
  1
~ F483 OF.
 50
4.119406618785604
  7
PLAT
 72
1
 11
182.58228762901862
 21
492.2729944286821
 31
0.0
100
AcDbText
 73
2
  0
TEXT
  5
1B6
330
17
100
AcDbEntity
  8
PLAT-TEXT-LOWCONF
100
AcDbText
 10
403.7994984205086
 20
500.50816333880493
 30
0.0
 40
9.090442497911354
  1
i
 50
0.9643232282945182
  7
PLAT
 72
1
 11
403.7994984205086
 21
500.50816333880493
 31
0.0
100
AcDbText
 73
2
  0
TEXT
  5
1B7
330
17
100
AcDbEntity
  8
PLAT-TEXT-LOWCONF
100
AcDbText
 10
512.7917453823795
 20
502.54214786203465
 30
0.0
 40
9.939832499887645
  1
5. 86207'22"
 50
357.262875070054
  7
PLAT
 72
1
 11
512.7917453823795
 21
502.54214786203465
 31
0.0
100
AcDbText
 73
2
  0
TEXT
  5
1B8
330
17
100
AcDbEntity
  8
PLAT-TEXT-LOWCONF
100
AcDbText
 10
141.86840549281203
 20
447.6436814604052
 30
0.0
 40
14.773129697093902
  1
Sizes
 50
92.61841983782068
  7
PLAT
 72
1
 11
141.86840549281203
 21
447.6436814604052
 31
0.0
100
AcDbText
 73
2
  0
TEXT
  5
1B9
330
17
100
AcDbEntity
  8
PLAT-TEXT-LOWCONF
100
AcDbText
 10
395.77912198570124
 20
492.3870323245939
 30
0.0
 40
7.917512834092472
  1
2
 50
280.26692288315
  7
PLAT
 72
1
 11
395.77912198570124
 21
492.3870323245939
 31
0.0
100
AcDbText
 73
2
  0
TEXT
  5
1BA
330
17
100
AcDbEntity
  8
PLAT-TEXT-LOWCONF
100
AcDbText
 10
296.0253210422528
 20
481.9477096690539
 30
0.0
 40
9.709719038531622
  1
7
 50
2.407684522280249
  7
PLAT
 72
1
 11
296.0253210422528
 21
481.9477096690539
 31
0.0
100
AcDbText
 73
2
  0
TEXT
  5
1BB
330
17
100
AcDbEntity
  8
PLAT-TEXT-LOWCONF
100
AcDbText
 10
571.2930441614865
 20
492.7356341214151
 30
0.0
 40
9.309044848234498
  1
Sn
 50
32.15441798138272
  7
PLAT
 72
1
 11
571.2930441614865
 21
492.7356341214151
 31
0.0
100
AcDbText
 73
2
  0
TEXT
  5
1BC
330
17
100
AcDbEntity
  8
PLAT-TEXT-LOWCONF
100
AcDbText
 10
580.4255572743806
 20
492.5653673634212
 30
0.0
 40
8.136074918493739
  1
R
 50
92.40768452228025
  7
PLAT
 72
1
 11
580.4255572743806
 21
492.5653673634212
 31
0.0
100
AcDbText
 73
2
  0
TEXT
  5
1BD
330
17
100
AcDbEntity
  8
PLAT-TEXT-LOWCONF
100
AcDbText
 10
187.8397641190601
 20
473.48135851007214
 30
0.0
 40
9.057137536084243
  1
--- 50017}
 50
1.9364084089328912
  7
PLAT
 72
1
 11
187.8397641190601
 21
473.48135851007214
 31
0.0
100
AcDbText
 73
2
  0
TEXT
  5
1BE
330
17
100
AcDbEntity
  8
PLAT-TEXT-LOWCONF
100
AcDbText
 10
606.4448887940245
 20
485.54238829917256
 30
0.0
 40
9.504300301151027
  1
13%%d33'06"
 50
343.796554888964
  7
PLAT
 72
1
 11
606.4448887940245
 21
485.54238829917256
 31
0.0
100
AcDbText
 73
2
  0
TEXT
  5
1BF
330
17
100
AcDbEntity
  8
PLAT-TEXT-LOWCONF
100
AcDbText
 10
186.495586219811
 20
459.96514334592837
 30
0.0
 40
8.713676136752602
  1
A QE, SELB
 50
1.9364084089328912
  7
PLAT
 72
1
 11
186.495586219811
 21
459.96514334592837
 31
0.0
100
AcDbText
 73
2
  0
TEXT
  5
1C0
330
17
100
AcDbEntity
  8
PLAT-TEXT-LOWCONF
100
AcDbText
 10
588.6686165358125
 20
452.7804614825747
 30
0.0
 40
14.932876375700918
  1
kere on,
 50
354.5425693316393
  7
PLAT
 72
1
 11
588.6686165358125
 21
452.7804614825747
 31
0.0
100
AcDbText
 73
2
  0
TEXT
  5
1C1
330
17
100
AcDbEntity
  8
PLAT-TEXT-LOWCONF
100
AcDbText
 10
306.4187337467163
 20
457.92141651765957
 30
0.0
 40
2.7120249728312467
  1
a
 50
92.40768452228025
  7
PLAT
 72
1
 11
306.4187337467163
 21
457.92141651765957
 31
0.0
100
AcDbText
 73
2
  0
TEXT
  5
1C2
330
17
100
AcDbEntity
  8
PLAT-TEXT-LOWCONF
100
AcDbText
 10
211.040726868059
 20
446.87369053062616
 30
0.0
 40
9.040083242770821
  1
6
 50
92.40768452228025
  7
PLAT
 72
1
 11
211.040726868059
 21
446.87369053062616
 31
0.0
100
AcDbText
 73
2
  0
TEXT
  5
1C3
330
17
100
AcDbEntity
  8
PLAT-TEXT-LOWCONF
100
AcDbText
 10
310.8057396076309
 20
449.225361994865
 30
0.0
 40
7.834738810401379
  1
40
 50
92.40768452228025
  7
PLAT
 72
1
 11
310.8057396076309
 21
449.225361994865
 31
0.0
100
AcDbText
 73
2
  0
TEXT
  5
1C4
330
17
100
AcDbEntity
  8
PLAT-TEXT-LOWCONF
100
AcDbText
 10
662.0190139848002
 20
464.8305317209529
 30
0.0
 40
7.031175855488416
  1
9;
 50
2.407684522280249
  7
PLAT
 72
1
 11
662.0190139848002
 21
464.8305317209529
 31
0.0
100
AcDbText
 73
2
  0
TEXT
  5
1C5
330
17
100
AcDbEntity
  8
PLAT-TEXT-UNASSOC
100
AcDbText
 10
154.97292139188562
 20
430.3347166469306
 30
0.0
 40
10.642648439829392
  1
18.78"
 50
90.99964104730651
  7
PLAT
 72
1
 11
154.97292139188562
 21
430.3347166469306
 31
0.0
100
AcDbText
 73
2
  0
TEXT
  5
1C6
330
17
100
AcDbEntity
  8
PLAT-TEXT-LOWCONF
100
AcDbText
 10
572.5743475289316
 20
436.5985535510879
 30
0.0
 40
14.932876375700918
  1
ey
 50
354.54256933163924
  7
PLAT
 72
1
 11
572.5743475289316
 21
436.5985535510879
 31
0.0
100
AcDbText
 73
2
  0
TEXT
  5
1C7
330
17
100
AcDbEntity
  8
PLAT-TEXT-LOWCONF
100
AcDbText
 10
311.15034643244303
 20
441.02956510029105
 30
0.0
 40
8.136074918493739
  1
19
 50
92.40768452228025
  7
PLAT
 72
1
 11
311.15034643244303
 21
441.02956510029105
 31
0.0
100
AcDbText
 73
2
  0
TEXT
  5
1C8
330
17
100
AcDbEntity
  8
PLAT-TEXT-LOWCONF
100
AcDbText
 10
211.6398792053982
 20
428.635016070672
 30
0.0
 40
8.73531665921904
  1
oO
 50
92.426866218165
  7
PLAT
 72
1
 11
211.6398792053982
 21
428.635016070672
 31
0.0
100
AcDbText
 73
2
  0
TEXT
  5
1C9
330
17
100
AcDbEntity
  8
PLAT-TEXT-LOWCONF
100
AcDbText
 10
184.68133610853596
 20
432.19325691317226
 30
0.0
 40
12.053444323694428
  1
S
 50
92.40768452228025
  7
PLAT
 72
1
 11
184.68133610853596
 21
432.19325691317226
 31
0.0
100
AcDbText
 73
2
  0
TEXT
  5
1CA
330
17
100
AcDbEntity
  8
PLAT-TEXT-LOWCONF
100
AcDbText
 10
110.9965247731443
 20
427.251922717612
 30
0.0
 40
10.546763783232626
  1
e
 50
92.40768452228025
  7
PLAT
 72
1
 11
110.9965247731443
 21
427.251922717612
 31
0.0
100
AcDbText
 73
2
  0
TEXT
  5
1CB
330
17
100
AcDbEntity
  8
PLAT-TEXT-LOWCONF
100
AcDbText
 10
110.33205769405154
 20
415.1598895710199
 30
0.0
 40
14.932876375700918
  1
N
 50
2.407684522280249
  7
PLAT
 72
1
 11
110.33205769405154
 21
415.1598895710199
 31
0.0
100
AcDbText
 73
2
  0
TEXT
  5
1CC
330
17
100
AcDbEntity
  8
PLAT-TEXT-LOWCONF
100
AcDbText
 10
576.1188843293367
 20
423.7155275895587
 30
0.0
 40
14.932876375700918
  1
Sia
 50
352.98820058889265
  7
PLAT
 72
1
 11
576.1188843293367
 21
423.7155275895587
 31
0.0
100
AcDbText
 73
2
  0
TEXT
  5
1CD
330
17
100
AcDbEntity
  8
PLAT-TEXT-LOWCONF
100
AcDbText
 10
212.2659585908799
 20
413.74894783775966
 30
0.0
 40
5.725386053754853
  1
de
 50
92.40768452228025
  7
PLAT
 72
1
 11
212.2659585908799
 21
413.74894783775966
 31
0.0
100
AcDbText
 73
2
  0
TEXT
  5
1CE
330
17
100
AcDbEntity
  8
PLAT-TEXT-LOWCONF
100
AcDbText
 10
299.31209029346337
 20
415.73338824503634
 30
0.0
 40
8.73874713467846
  1
71
 50
92.40768452228025
  7
PLAT
 72
1
 11
299.31209029346337
 21
415.73338824503634
 31
0.0
100
AcDbText
 73
2
  0
TEXT
  5
1CF
330
17
100
AcDbEntity
  8
PLAT-TEXT-LOWCONF
100
AcDbText
 10
141.74281418529867
 20
402.8834116755021
 30
0.0
 40
13.89846275892558
  1
YW
 50
0.34588442639388717
  7
PLAT
 72
1
 11
141.74281418529867
 21
402.8834116755021
 31
0.0
100
AcDbText
 73
2
  0
TEXT
  5
1D0
330
17
100
AcDbEntity
  8
PLAT-TEXT-LOWCONF
100
AcDbText
 10
223.58099998088954
 20
403.6686261898949
 30
0.0
 40
12.053444323694428
  1
5
 50
92.40768452228025
  7
PLAT
 72
1
 11
223.58099998088954
 21
403.6686261898949
 31
0.0
100
AcDbText
 73
2
  0
TEXT
  5
1D1
330
17
100
AcDbEntity
  8
PLAT-TEXT-LOWCONF
100
AcDbText
 10
178.47407443763876
 20
400.874689033819
 30
0.0
 40
9.760792901842992
  1
oat
 50
0.3458844263939227
  7
PLAT
 72
1
 11
178.47407443763876
 21
400.874689033819
 31
0.0
100
AcDbText
 73
2
  0
TEXT
  5
1D2
330
17
100
AcDbEntity
  8
PLAT-TEXT-LOWCONF
100
AcDbText
 10
467.9690340847086
 20
369.0273953569651
 30
0.0
 40
8.569312084676545
  1
‘\N.2%%d 24%%d30" WH,
 50
91.95463645937417
  7
PLAT
 72
1
 11
467.9690340847086
 21
369.0273953569651
 31
0.0
100
AcDbText
 73
2
  0
TEXT
  5
1D3
330
17
100
AcDbEntity
  8
PLAT-TEXT-LOWCONF
100
AcDbText
 10
646.0977194890004
 20
415.1901262185052
 30
0.0
 40
8.025393688136798
  1
Xs,
 50
15.410487548866342
  7
PLAT
 72
1
 11
646.0977194890004
 21
415.1901262185052
 31
0.0
100
AcDbText
 73
2
  0
TEXT
  5
1D4
330
17
100
AcDbEntity
  8
PLAT-TEXT-LOWCONF
100
AcDbText
 10
112.04348146040675
 20
386.41206823648344
 30
0.0
 40
14.397169608857233
  1
1).
 50
92.40768452228025
  7
PLAT
 72
1
 11
112.04348146040675
 21
386.41206823648344
 31
0.0
100
AcDbText
 73
2
  0
TEXT
  5
1D5
330
17
100
AcDbEntity
  8
PLAT-TEXT-LOWCONF
100
AcDbText
 10
311.50012730587804
 20
400.83062409424514
 30
0.0
 40
2.7120249728312467
  1
8 i
 50
92.40768452228025
  7
PLAT
 72
1
 11
311.50012730587804
 21
400.83062409424514
 31
0.0
100
AcDbText
 73
2
  0
TEXT
  5
1D6
330
17
100
AcDbEntity
  8
PLAT-TEXT-LOWCONF
100
AcDbText
 10
485.2738583857591
 20
380.51420826689815
 30
0.0
 40
13.481081467120966
  1
105.18" 2
 50
91.95463645937417
  7
PLAT
 72
1
 11
485.2738583857591
 21
380.51420826689815
 31
0.0
100
AcDbText
 73
2
  0
TEXT
  5
1D7
330
17
100
AcDbEntity
  8
PLAT-TEXT-LOWCONF
100
AcDbText
 10
524.4029179482181
 20
401.1855453814779
 30
0.0
 40
12.337668690182847
  1
OF 49454
 50
357.67838780310376
  7
PLAT
 72
1
 11
524.4029179482181
 21
401.1855453814779
 31
0.0
100
AcDbText
 73
2
  0
TEXT
  5
1D8
330
17
100
AcDbEntity
  8
PLAT-TEXT-LOWCONF
100
AcDbText
 10
658.6903983450142
 20
411.1759801702915
 30
0.0
 40
7.064281222547069
  1
O-
 50
6.490812048803207
  7
PLAT
 72
1
 11
658.6903983450142
 21
411.1759801702915
 31
0.0
100
AcDbText
 73
2
  0
TEXT
  5
1D9
330
17
100
AcDbEntity
  8
PLAT-TEXT-LOWCONF
100
AcDbText
 10
183.07556320674993
 20
385.58346704724846
 30
0.0
 40
10.660620803932964
  1
"2.0% RSBBh
 50
0.3458844263939227
  7
PLAT
 72
1
 11
183.07556320674993
 21
385.58346704724846
 31
0.0
100
AcDbText
 73
2
  0
TEXT
  5
1DA
330
17
100
AcDbEntity
  8
PLAT-TEXT-LOTNO
100
AcDbText
 10
325.8258695959353
 20
390.8768927085563
 30
0.0
 40
14.062351710976833
  1
3
 50
2.4076845222802494
  7
PLAT
 72
1
 11
325.8258695959353
 21
390.8768927085563
 31
0.0
100
AcDbText
 73
2
  0
TEXT
  5
1DB
330
17
100
AcDbEntity
  8
PLAT-TEXT-LOWCONF
100
AcDbText
 10
111.62914319542423
 20
376.3412346079426
 30
0.0
 40
8.136074918493739
  1
N
 50
2.407684522280249
  7
PLAT
 72
1
 11
111.62914319542423
 21
376.3412346079426
 31
0.0
100
AcDbText
 73
2
  0
TEXT
  5
1DC
330
17
100
AcDbEntity
  8
PLAT-TEXT-LOWCONF
100
AcDbText
 10
551.8313309209933
 20
356.83509940574305
 30
0.0
 40
12.275866897233305
  1
Wi8%%d59'OrE. x
 50
74.15266290864594
  7
PLAT
 72
1
 11
551.8313309209933
 21
356.83509940574305
 31
0.0
100
AcDbText
 73
2
  0
TEXT
  5
1DD
330
17
100
AcDbEntity
  8
PLAT-TEXT-LOWCONF
100
AcDbText
 10
321.39726346422265
 20
380.6372720637809
 30
0.0
 40
4.8213777294777715
  1
WA A
 50
92.40768452228025
  7
PLAT
 72
1
 11
321.39726346422265
 21
380.6372720637809
 31
0.0
100
AcDbText
 73
2
  0
TEXT
  5
1DE
330
17
100
AcDbEntity
  8
PLAT-TEXT-LOWCONF
100
AcDbText
 10
579.3902381045348
 20
388.39701754098365
 30
0.0
 40
9.254364841986378
  1
BS
 50
277.0266520838607
  7
PLAT
 72
1
 11
579.3902381045348
 21
388.39701754098365
 31
0.0
100
AcDbText
 73
2
  0
TEXT
  5
1DF
330
17
100
AcDbEntity
  8
PLAT-TEXT-LOWCONF
100
AcDbText
 10
111.91198074426913
 20
365.62948750431923
 30
0.0
 40
11.75210821560207
  1
'P,
 50
92.40768452228025
  7
PLAT
 72
1
 11
111.91198074426913
 21
365.62948750431923
 31
0.0
100
AcDbText
 73
2
  0
TEXT
  5
1E0
330
17
100
AcDbEntity
  8
PLAT-TEXT-LOWCONF
100
AcDbText
 10
610.9431196515945
 20
376.7560104243487
 30
0.0
 40
12.099560876531072
  1
E2099
 50
340.50593342869934
  7
PLAT
 72
1
 11
610.9431196515945
 21
376.7560104243487
 31
0.0
100
AcDbText
 73
2
  0
TEXT
  5
1E1
330
17
100
AcDbEntity
  8
PLAT-TEXT-LOWCONF
100
AcDbText
 10
337.61776811371465
 20
371.59268221424605
 30
0.0
 40
16.59208486188991
  1
324
 50
354.67634235495257
  7
PLAT
 72
1
 11
337.61776811371465
 21
371.59268221424605
 31
0.0
100
AcDbText
 73
2
  0
TEXT
  5
1E2
330
17
100
AcDbEntity
  8
PLAT-TEXT-LOWCONF
100
AcDbText
 10
169.32291168026754
 20
357.50673504773886
 30
0.0
 40
14.932876375700918
  1
yy
 50
31.383026884550986
  7
PLAT
 72
1
 11
169.32291168026754
 21
357.50673504773886
 31
0.0
100
AcDbText
 73
2
  0
TEXT
  5
1E3
330
17
100
AcDbEntity
  8
PLAT-TEXT-LOTNO
100
AcDbText
 10
429.9914418063212
 20
368.1420570171734
 30
0.0
 40
14.801758232182936
  1
25
 50
12.734626785822513
  7
PLAT
 72
1
 11
429.9914418063212
 21
368.1420570171734
 31
0.0
100
AcDbText
 73
2
  0
TEXT
  5
1E4
330
17
100
AcDbEntity
  8
PLAT-TEXT-LOWCONF
100
AcDbText
 10
325.29257034438064
 20
363.7102566846969
 30
0.0
 40
10.245427675140263
  1
“At
 50
92.40768452228025
  7
PLAT
 72
1
 11
325.29257034438064
 21
363.7102566846969
 31
0.0
100
AcDbText
 73
2
  0
TEXT
  5
1E5
330
17
100
AcDbEntity
  8
PLAT-TEXT-LOWCONF
100
AcDbText
 10
111.93765668666069
 20
353.0638020437583
 30
0.0
 40
11.450772107509707
  1
a
 50
2.407684522280249
  7
PLAT
 72
1
 11
111.93765668666069
 21
353.0638020437583
 31
0.0
100
AcDbText
 73
2
  0
TEXT
  5
1E6
330
17
100
AcDbEntity
  8
PLAT-TEXT-LOWCONF
100
AcDbText
 10
566.9247581624742
 20
353.62185311697186
 30
0.0
 40
8.278197160855076
  1
M243"
 50
74.15266290864594
  7
PLAT
 72
1
 11
566.9247581624742
 21
353.62185311697186
 31
0.0
100
AcDbText
 73
2
  0
TEXT
  5
1E7
330
17
100
AcDbEntity
  8
PLAT-TEXT-LOTNO
100
AcDbText
 10
199.32686935893554
 20
350.87374621553425
 30
0.0
 40
13.057898017335631
  1
7
 50
2.4076845222802494
  7
PLAT
 72
1
 11
199.32686935893554
 21
350.87374621553425
 31
0.0
100
AcDbText
 73
2
  0
TEXT
  5
1E8
330
17
100
AcDbEntity
  8
PLAT-TEXT-LOTNO
100
AcDbText
 10
511.6285989485604
 20
363.4868622224948
 30
0.0
 40
15.210113077613306
  1
92
 50
14.781428801609707
  7
PLAT
 72
1
 11
511.6285989485604
 21
363.4868622224948
 31
0.0
100
AcDbText
 73
2
  0
TEXT
  5
1E9
330
17
100
AcDbEntity
  8
PLAT-TEXT-LOWCONF
100
AcDbText
 10
669.1526107571749
 20
357.9326440336582
 30
0.0
 40
13.807520085099082
  1
x
 50
327.1577105118092
  7
PLAT
 72
1
 11
669.1526107571749
 21
357.9326440336582
 31
0.0
100
AcDbText
 73
2
  0
TEXT
  5
1EA
330
17
100
AcDbEntity
  8
PLAT-TEXT-LOWCONF
100
AcDbText
 10
628.636954910035
 20
328.13756471540387
 30
0.0
 40
11.984347625745249
  1
93023" 19%%dER
 50
57.15771051180923
  7
PLAT
 72
1
 11
628.636954910035
 21
328.13756471540387
 31
0.0
100
AcDbText
 73
2
  0
TEXT
  5
1EB
330
17
100
AcDbEntity
  8
PLAT-TEXT-LOWCONF
100
AcDbText
 10
113.02468778960039
 20
335.1809233892727
 30
0.0
 40
10.379354834292425
  1
2
 50
92.40768452228025
  7
PLAT
 72
1
 11
113.02468778960039
 21
335.1809233892727
 31
0.0
100
AcDbText
 73
2
  0
TEXT
  5
1EC
330
17
100
AcDbEntity
  8
PLAT-TEXT-LOTNO
100
AcDbText
 10
260.77408124691135
 20
336.0314890802506
 30
0.0
 40
15.736441200378836
  1
3
 50
92.40768452228025
  7
PLAT
 72
1
 11
260.77408124691135
 21
336.0314890802506
 31
0.0
100
AcDbText
 73
2
  0
TEXT
  5
1ED
330
17
100
AcDbEntity
  8
PLAT-TEXT-LOWCONF
100
AcDbText
 10
168.43482172852376
 20
328.41689357225016
 30
0.0
 40
11.043537301367971
  1
2
 50
80.49566318179649
  7
PLAT
 72
1
 11
168.43482172852376
 21
328.41689357225016
 31
0.0
100
AcDbText
 73
2
  0
TEXT
  5
1EE
330
17
100
AcDbEntity
  8
PLAT-TEXT-LOTNO
100
AcDbText
 10
593.4905054092264
 20
343.1926931762872
 30
0.0
 40
15.323139786538787
  1
27
 50
15.205455325029334
  7
PLAT
 72
1
 11
593.4905054092264
 21
343.1926931762872
 31
0.0
100
AcDbText
 73
2
  0
TEXT
  5
1EF
330
17
100
AcDbEntity
  8
PLAT-TEXT-LOWCONF
100
AcDbText
 10
437.2805314908055
 20
327.94295283942654
 30
0.0
 40
9.24782721927536
  1
392 €8-
 50
1.0744712672280343
  7
PLAT
 72
1
 11
437.2805314908055
 21
327.94295283942654
 31
0.0
100
AcDbText
 73
2
  0
TEXT
  5
1F0
330
17
100
AcDbEntity
  8
PLAT-TEXT-LOWCONF
100
AcDbText
 10
260.88016961531855
 20
313.583329529292
 30
0.0
 40
16.59208486188991
  1
“1
 50
92.40768452228025
  7
PLAT
 72
1
 11
260.88016961531855
 21
313.583329529292
 31
0.0
100
AcDbText
 73
2
  0
TEXT
  5
1F1
330
17
100
AcDbEntity
  8
PLAT-TEXT-LOWCONF
100
AcDbText
 10
377.5661481099411
 20
308.94952045321224
 30
0.0
 40
12.827825892827661
  1
val We
 50
91.07447126722798
  7
PLAT
 72
1
 11
377.5661481099411
 21
308.94952045321224
 31
0.0
100
AcDbText
 73
2
  0
TEXT
  5
1F2
330
17
100
AcDbEntity
  8
PLAT-TEXT-LOWCONF
100
AcDbText
 10
391.75024548956395
 20
275.2063519782368
 30
0.0
 40
7.687930992316556
  1
"POR: OFM
 50
88.54044356357417
  7
PLAT
 72
1
 11
391.75024548956395
 21
275.2063519782368
 31
0.0
100
AcDbText
 73
2
  0
TEXT
  5
1F3
330
17
100
AcDbEntity
  8
PLAT-TEXT-LOWCONF
100
AcDbText
 10
145.05384311875142
 20
285.856377788243
 30
0.0
 40
9.768155795045722
  1
—SL
 50
90.99964104730651
  7
PLAT
 72
1
 11
145.05384311875142
 21
285.856377788243
 31
0.0
100
AcDbText
 73
2
  0
TEXT
  5
1F4
330
17
100
AcDbEntity
  8
PLAT-TEXT-LOWCONF
100
AcDbText
 10
667.1832059030202
 20
318.10029667013146
 30
0.0
 40
8.705265344890421
  1
8
 50
2.407684522280249
  7
PLAT
 72
1
 11
667.1832059030202
 21
318.10029667013146
 31
0.0
100
AcDbText
 73
2
  0
TEXT
  5
1F5
330
17
100
AcDbEntity
  8
PLAT-TEXT-LOWCONF
100
AcDbText
 10
483.67625314451067
 20
269.3928321153388
 30
0.0
 40
14.932876375700918
  1
7250510 x
 50
78.23932195276586
  7
PLAT
 72
1
 11
483.67625314451067
 21
269.3928321153388
 31
0.0
100
AcDbText
 73
2
  0
TEXT
  5
1F6
330
17
100
AcDbEntity
  8
PLAT-TEXT-LOWCONF
100
AcDbText
 10
368.76268916183017
 20
302.20153911541513
 30
0.0
 40
4.8213777294777715
  1
ner 4
 50
92.40768452228025
  7
PLAT
 72
1
 11
368.76268916183017
 21
302.20153911541513
 31
0.0
100
AcDbText
 73
2
  0
TEXT
  5
1F7
330
17
100
AcDbEntity
  8
PLAT-TEXT-LOWCONF
100
AcDbText
 10
666.7058606872365
 20
310.0571524529249
 30
0.0
 40
9.613401111411086
  1
vas
 50
55.96336108657022
  7
PLAT
 72
1
 11
666.7058606872365
 21
310.0571524529249
 31
0.0
100
AcDbText
 73
2
  0
TEXT
  5
1F8
330
17
100
AcDbEntity
  8
PLAT-TEXT-LOTNO
100
AcDbText
 10
183.16914716689195
 20
284.84718784639915
 30
0.0
 40
13.057898017335631
  1
8
 50
2.4076845222802494
  7
PLAT
 72
1
 11
183.16914716689195
 21
284.84718784639915
 31
0.0
100
AcDbText
 73
2
  0
TEXT
  5
1F9
330
17
100
AcDbEntity
  8
PLAT-TEXT-LOWCONF
100
AcDbText
 10
371.2480529745264
 20
290.91217366779705
 30
0.0
 40
12.65611653987915
  1
“20%%d
 50
92.40768452228025
  7
PLAT
 72
1
 11
371.2480529745264
 21
290.91217366779705
 31
0.0
100
AcDbText
 73
2
  0
TEXT
  5
1FA
330
17
100
AcDbEntity
  8
PLAT-TEXT-LOWCONF
100
AcDbText
 10
380.79165451695746
 20
278.2126345260918
 30
0.0
 40
7.773428831698752
  1
BOL
 50
88.54044356357417
  7
PLAT
 72
1
 11
380.79165451695746
 21
278.2126345260918
 31
0.0
100
AcDbText
 73
2
  0
TEXT
  5
1FB
330
17
100
AcDbEntity
  8
PLAT-TEXT-LOWCONF
100
AcDbText
 10
541.2247111741236
 20
292.3206585519822
 30
0.0
 40
14.932876375700918
  1
of BR
 50
345.4871472681023
  7
PLAT
 72
1
 11
541.2247111741236
 21
292.3206585519822
 31
0.0
100
AcDbText
 73
2
  0
TEXT
  5
1FC
330
17
100
AcDbEntity
  8
PLAT-TEXT-LOWCONF
100
AcDbText
 10
666.3148476802702
 20
301.4082832533983
 30
0.0
 40
8.781325147099263
  1
Ss
 50
357.58810871872447
  7
PLAT
 72
1
 11
666.3148476802702
 21
301.4082832533983
 31
0.0
100
AcDbText
 73
2
  0
TEXT
  5
1FD
330
17
100
AcDbEntity
  8
PLAT-TEXT-LOWCONF
100
AcDbText
 10
154.31888565745038
 20
277.6020801786038
 30
0.0
 40
3.013361080923607
  1
7
 50
92.40768452228025
  7
PLAT
 72
1
 11
154.31888565745038
 21
277.6020801786038
 31
0.0
100
AcDbText
 73
2
  0
TEXT
  5
1FE
330
17
100
AcDbEntity
  8
PLAT-TEXT-LOWCONF
100
AcDbText
 10
665.4366752559815
 20
291.9615999229219
 30
0.0
 40
11.148248012104334
  1
S
 50
347.7129688798709
  7
PLAT
 72
1
 11
665.4366752559815
 21
291.9615999229219
 31
0.0
100
AcDbText
 73
2
  0
TEXT
  5
1FF
330
17
100
AcDbEntity
  8
PLAT-TEXT-LOWCONF
100
AcDbText
 10
368.90241563683213
 20
282.9383744179609
 30
0.0
 40
3.314697189015968
  1
Fal
 50
92.40768452228025
  7
PLAT
 72
1
 11
368.90241563683213
 21
282.9383744179609
 31
0.0
100
AcDbText
 73
2
  0
TEXT
  5
200
330
17
100
AcDbEntity
  8
PLAT-TEXT-LOWCONF
100
AcDbText
 10
160.1971763837026
 20
269.3038431091247
 30
0.0
 40
8.4374110265861
  1
, gS ‘
 50
92.40768452228025
  7
PLAT
 72
1
 11
160.1971763837026
 21
269.3038431091247
 31
0.0
100
AcDbText
 73
2
  0
TEXT
  5
201
330
17
100
AcDbEntity
  8
PLAT-TEXT-LOWCONF
100
AcDbText
 10
562.8742904438403
 20
248.66122791100372
 30
0.0
 40
9.599889536828114
  1
¥ .199201S"E\,
 50
70.79828062878403
  7
PLAT
 72
1
 11
562.8742904438403
 21
248.66122791100372
 31
0.0
100
AcDbText
 73
2
  0
TEXT
  5
202
330
17
100
AcDbEntity
  8
PLAT-TEXT-LOWCONF
100
AcDbText
 10
371.38625359440755
 20
275.6703096294161
 30
0.0
 40
7.533402702309017
  1
53:
 50
92.40768452228025
  7
PLAT
 72
1
 11
371.38625359440755
 21
275.6703096294161
 31
0.0
100
AcDbText
 73
2
  0
TEXT
  5
203
330
17
100
AcDbEntity
  8
PLAT-TEXT-LOTNO
100
AcDbText
 10
342.1991400172493
 20
270.05017172652026
 30
0.0
 40
15.137735280289306
  1
23
 50
20.48521483410576
  7
PLAT
 72
1
 11
342.1991400172493
 21
270.05017172652026
 31
0.0
100
AcDbText
 73
2
  0
TEXT
  5
204
330
17
100
AcDbEntity
  8
PLAT-TEXT-LOWCONF
100
AcDbText
 10
113.2350057826946
 20
258.4487213369972
 30
0.0
 40
12.35478043178679
  1
S
 50
2.4076845222802494
  7
PLAT
 72
1
 11
113.2350057826946
 21
258.4487213369972
 31
0.0
100
AcDbText
 73
2
  0
TEXT
  5
205
330
17
100
AcDbEntity
  8
PLAT-TEXT-LOTNO
100
AcDbText
 10
264.79451148130255
 20
264.04486913987455
 30
0.0
 40
12.7121545715334
  1
4
 50
30.115099272268708
  7
PLAT
 72
1
 11
264.79451148130255
 21
264.04486913987455
 31
0.0
100
AcDbText
 73
2
  0
TEXT
  5
206
330
17
100
AcDbEntity
  8
PLAT-TEXT-LOTNO
100
AcDbText
 10
444.1037125469278
 20
271.26840035839797
 30
0.0
 40
16.211083018296836
  1
22
 50
16.173974425858603
  7
PLAT
 72
1
 11
444.1037125469278
 21
271.26840035839797
 31
0.0
100
AcDbText
 73
2
  0
TEXT
  5
207
330
17
100
AcDbEntity
  8
PLAT-TEXT-LOWCONF
100
AcDbText
 10
658.6778484627907
 20
278.2059304364474
 30
0.0
 40
8.426596149482142
  1
94,
 50
89.45314996535615
  7
PLAT
 72
1
 11
658.6778484627907
 21
278.2059304364474
 31
0.0
100
AcDbText
 73
2
  0
TEXT
  5
208
330
17
100
AcDbEntity
  8
PLAT-TEXT-LOWCONF
100
AcDbText
 10
669.2377106390668
 20
285.17797910009415
 30
0.0
 40
6.328058269939575
  1
G
 50
92.40768452228025
  7
PLAT
 72
1
 11
669.2377106390668
 21
285.17797910009415
 31
0.0
100
AcDbText
 73
2
  0
TEXT
  5
209
330
17
100
AcDbEntity
  8
PLAT-TEXT-LOWCONF
100
AcDbText
 10
627.2562425089718
 20
267.6110755051723
 30
0.0
 40
8.767871813341623
  1
eS"
 50
324.23009111259523
  7
PLAT
 72
1
 11
627.2562425089718
 21
267.6110755051723
 31
0.0
100
AcDbText
 73
2
  0
TEXT
  5
20A
330
17
100
AcDbEntity
  8
PLAT-TEXT-LOWCONF
100
AcDbText
 10
371.39633809699217
 20
267.4604471501559
 30
0.0
 40
9.642755458955543
  1
ig
 50
2.407684522280249
  7
PLAT
 72
1
 11
371.39633809699217
 21
267.4604471501559
 31
0.0
100
AcDbText
 73
2
  0
TEXT
  5
20B
330
17
100
AcDbEntity
  8
PLAT-TEXT-LOTNO
100
AcDbText
 10
151.52129863419194
 20
257.5016568931319
 30
0.0
 40
12.374900176732632
  1
2
 50
279.75687987600384
  7
PLAT
 72
1
 11
151.52129863419194
 21
257.5016568931319
 31
0.0
100
AcDbText
 73
2
  0
TEXT
  5
20C
330
17
100
AcDbEntity
  8
PLAT-TEXT-MISC
100
AcDbText
 10
369.8026130567495
 20
261.5289457954003
 30
0.0
 40
5.725386053754853
  1
Tot
 50
92.40768452228025
  7
PLAT
 72
1
 11
369.8026130567495
 21
261.5289457954003
 31
0.0
100
AcDbText
 73
2
  0
TEXT
  5
20D
330
17
100
AcDbEntity
  8
PLAT-TEXT-LOWCONF
100
AcDbText
 10
113.2184849710275
 20
246.88660284311885
 30
0.0
 40
10.714172732172825
  1
8
 50
2.4076845222802494
  7
PLAT
 72
1
 11
113.2184849710275
 21
246.88660284311885
 31
0.0
100
AcDbText
 73
2
  0
TEXT
  5
20E
330
17
100
AcDbEntity
  8
PLAT-TEXT-LOWCONF
100
AcDbText
 10
104.07954011550223
 20
242.9717248190071
 30
0.0
 40
8.524064519383856
  1
Lan .
 50
324.99774838518005
  7
PLAT
 72
1
 11
104.07954011550223
 21
242.9717248190071
 31
0.0
100
AcDbText
 73
2
  0
TEXT
  5
20F
330
17
100
AcDbEntity
  8
PLAT-TEXT-LOWCONF
100
AcDbText
 10
371.4360796240699
 20
254.5602393673675
 30
0.0
 40
6.328058269939575
  1
194
 50
92.40768452228025
  7
PLAT
 72
1
 11
371.4360796240699
 21
254.5602393673675
 31
0.0
100
AcDbText
 73
2
  0
TEXT
  5
210
330
17
100
AcDbEntity
  8
PLAT-TEXT-LOTNO
100
AcDbText
 10
525.5035618245753
 20
256.96843820538567
 30
0.0
 40
16.54899348207922
  1
7
 50
21.121107697596187
  7
PLAT
 72
1
 11
525.5035618245753
 21
256.96843820538567
 31
0.0
100
AcDbText
 73
2
  0
TEXT
  5
211
330
17
100
AcDbEntity
  8
PLAT-TEXT-LOWCONF
100
AcDbText
 10
267.10027905080256
 20
249.3354711397016
 30
0.0
 40
6.026722161847214
  1
f'
 50
92.40768452228025
  7
PLAT
 72
1
 11
267.10027905080256
 21
249.3354711397016
 31
0.0
100
AcDbText
 73
2
  0
TEXT
  5
212
330
17
100
AcDbEntity
  8
PLAT-TEXT-LOWCONF
100
AcDbText
 10
371.4391313343114
 20
246.51763804922103
 30
0.0
 40
8.370447447010019
  1
8
 50
2.4076845222802494
  7
PLAT
 72
1
 11
371.4391313343114
 21
246.51763804922103
 31
0.0
100
AcDbText
 73
2
  0
TEXT
  5
213
330
17
100
AcDbEntity
  8
PLAT-TEXT-LOWCONF
100
AcDbText
 10
673.704209687279
 20
254.5716208096003
 30
0.0
 40
10.503282751380357
  1
a
 50
53.66424823093092
  7
PLAT
 72
1
 11
673.704209687279
 21
254.5716208096003
 31
0.0
100
AcDbText
 73
2
  0
TEXT
  5
214
330
17
100
AcDbEntity
  8
PLAT-TEXT-LOTNO
100
AcDbText
 10
264.3573987263398
 20
233.09879395735567
 30
0.0
 40
14.252193913054066
  1
9
 50
32.83023123291241
  7
PLAT
 72
1
 11
264.3573987263398
 21
233.09879395735567
 31
0.0
100
AcDbText
 73
2
  0
TEXT
  5
215
330
17
100
AcDbEntity
  8
PLAT-TEXT-LOWCONF
100
AcDbText
 10
633.6389013070868
 20
216.11066555227015
 30
0.0
 40
11.945787962962864
  1
Rmerseeae
 50
62.06308925396053
  7
PLAT
 72
1
 11
633.6389013070868
 21
216.11066555227015
 31
0.0
100
AcDbText
 73
2
  0
TEXT
  5
216
330
17
100
AcDbEntity
  8
PLAT-TEXT-LOWCONF
100
AcDbText
 10
435.5682842525065
 20
234.9463668978766
 30
0.0
 40
9.266153018579994
  1
02:16 098!
 50
354.8923600207284
  7
PLAT
 72
1
 11
435.5682842525065
 21
234.9463668978766
 31
0.0
100
AcDbText
 73
2
  0
TEXT
  5
217
330
17
100
AcDbEntity
  8
PLAT-TEXT-LOWCONF
100
AcDbText
 10
382.54225958216784
 20
225.5372097595898
 30
0.0
 40
14.932876375700918
  1
s
 50
92.40768452228025
  7
PLAT
 72
1
 11
382.54225958216784
 21
225.5372097595898
 31
0.0
100
AcDbText
 73
2
  0
TEXT
  5
218
330
17
100
AcDbEntity
  8
PLAT-TEXT-LOWCONF
100
AcDbText
 10
668.1563640629483
 20
240.11023519077062
 30
0.0
 40
2.0951279107588423
  1
¥en we
 50
324.23009111259523
  7
PLAT
 72
1
 11
668.1563640629483
 21
240.11023519077062
 31
0.0
100
AcDbText
 73
2
  0
TEXT
  5
219
330
17
100
AcDbEntity
  8
PLAT-TEXT-LOWCONF
100
AcDbText
 10
466.22690631219143
 20
232.57004115714898
 30
0.0
 40
4.650080122220432
  1
3
 50
84.89427619880195
  7
PLAT
 72
1
 11
466.22690631219143
 21
232.57004115714898
 31
0.0
100
AcDbText
 73
2
  0
TEXT
  5
21A
330
17
100
AcDbEntity
  8
PLAT-TEXT-LOTNO
100
AcDbText
 10
600.0545920249893
 20
230.49758014051372
 30
0.0
 40
15.333972255338919
  1
26
 50
0.40643713283971916
  7
PLAT
 72
1
 11
600.0545920249893
 21
230.49758014051372
 31
0.0
100
AcDbText
 73
2
  0
TEXT
  5
21B
330
17
100
AcDbEntity
  8
PLAT-TEXT-LOWCONF
100
AcDbText
 10
302.34129575568284
 20
220.15433550153466
 30
0.0
 40
9.709719038531622
  1
4
 50
2.407684522280249
  7
PLAT
 72
1
 11
302.34129575568284
 21
220.15433550153466
 31
0.0
100
AcDbText
 73
2
  0
TEXT
  5
21C
330
17
100
AcDbEntity
  8
PLAT-TEXT-LOWCONF
100
AcDbText
 10
264.7332104474796
 20
206.00627176377532
 30
0.0
 40
14.932876375700918
  1
LV.
 50
92.40768452228025
  7
PLAT
 72
1
 11
264.7332104474796
 21
206.00627176377532
 31
0.0
100
AcDbText
 73
2
  0
TEXT
  5
21D
330
17
100
AcDbEntity
  8
PLAT-TEXT-LOWCONF
100
AcDbText
 10
501.8713212348267
 20
224.85767843001244
 30
0.0
 40
7.533402702309017
  1
£24
 50
2.4076845222802494
  7
PLAT
 72
1
 11
501.8713212348267
 21
224.85767843001244
 31
0.0
100
AcDbText
 73
2
  0
TEXT
  5
21E
330
17
100
AcDbEntity
  8
PLAT-TEXT-LOWCONF
100
AcDbText
 10
516.1773452785646
 20
221.15149780826903
 30
0.0
 40
8.919714852269015
  1
75%%dSN8
 50
344.5696792774504
  7
PLAT
 72
1
 11
516.1773452785646
 21
221.15149780826903
 31
0.0
100
AcDbText
 73
2
  0
TEXT
  5
21F
330
17
100
AcDbEntity
  8
PLAT-TEXT-LOWCONF
100
AcDbText
 10
185.3177970250409
 20
205.85069025430516
 30
0.0
 40
12.35478043178679
  1
~Q
 50
92.40768452228025
  7
PLAT
 72
1
 11
185.3177970250409
 21
205.85069025430516
 31
0.0
100
AcDbText
 73
2
  0
TEXT
  5
220
330
17
100
AcDbEntity
  8
PLAT-TEXT-LOWCONF
100
AcDbText
 10
537.1971712348001
 20
215.53237134456805
 30
0.0
 40
9.088333509090782
  1
140%
 50
350.93985495047207
  7
PLAT
 72
1
 11
537.1971712348001
 21
215.53237134456805
 31
0.0
100
AcDbText
 73
2
  0
TEXT
  5
221
330
17
100
AcDbEntity
  8
PLAT-TEXT-LOWCONF
100
AcDbText
 10
470.0348409913912
 20
197.53851394786082
 30
0.0
 40
12.00531230059206
  1
tal
 50
78.23932195276592
  7
PLAT
 72
1
 11
470.0348409913912
 21
197.53851394786082
 31
0.0
100
AcDbText
 73
2
  0
TEXT
  5
222
330
17
100
AcDbEntity
  8
PLAT-TEXT-LOWCONF
100
AcDbText
 10
563.3842053712729
 20
205.17716102732658
 30
0.0
 40
8.861518390561347
  1
AY
 50
289.9443170562303
  7
PLAT
 72
1
 11
563.3842053712729
 21
205.17716102732658
 31
0.0
100
AcDbText
 73
2
  0
TEXT
  5
223
330
17
100
AcDbEntity
  8
PLAT-TEXT-LOWCONF
100
AcDbText
 10
578.1834086683193
 20
201.5083052937348
 30
0.0
 40
7.399482480235673
  1
299;
 50
349.32383214050657
  7
PLAT
 72
1
 11
578.1834086683193
 21
201.5083052937348
 31
0.0
100
AcDbText
 73
2
  0
TEXT
  5
224
330
17
100
AcDbEntity
  8
PLAT-TEXT-LOTNO
100
AcDbText
 10
265.2652474385747
 20
181.39778270302403
 30
0.0
 40
16.59208486188991
  1
4
 50
92.40768452228025
  7
PLAT
 72
1
 11
265.2652474385747
 21
181.39778270302403
 31
0.0
100
AcDbText
 73
2
  0
TEXT
  5
225
330
17
100
AcDbEntity
  8
PLAT-TEXT-LOWCONF
100
AcDbText
 10
589.8230201919037
 20
195.01307093727053
 30
0.0
 40
8.913969778966592
  1
WILD
 50
335.99823328604737
  7
PLAT
 72
1
 11
589.8230201919037
 21
195.01307093727053
 31
0.0
100
AcDbText
 73
2
  0
TEXT
  5
226
330
17
100
AcDbEntity
  8
PLAT-TEXT-MISC
100
AcDbText
 10
502.6269687645543
 20
186.30119840737288
 30
0.0
 40
12.424436309886152
  1
Curve
 50
344.5696792774504
  7
PLAT
 72
1
 11
502.6269687645543
 21
186.30119840737288
 31
0.0
100
AcDbText
 73
2
  0
TEXT
  5
227
330
17
100
AcDbEntity
  8
PLAT-TEXT-LOWCONF
100
AcDbText
 10
319.23141317255823
 20
174.4086738591081
 30
0.0
 40
11.766579595170183
  1
SS
 50
334.04245642689165
  7
PLAT
 72
1
 11
319.23141317255823
 21
174.4086738591081
 31
0.0
100
AcDbText
 73
2
  0
TEXT
  5
228
330
17
100
AcDbEntity
  8
PLAT-TEXT-LOWCONF
100
AcDbText
 10
144.37915056250944
 20
171.28820621320386
 30
0.0
 40
3.314697189015968
  1
i
 50
2.4076845222802494
  7
PLAT
 72
1
 11
144.37915056250944
 21
171.28820621320386
 31
0.0
100
AcDbText
 73
2
  0
TEXT
  5
229
330
17
100
AcDbEntity
  8
PLAT-TEXT-LOWCONF
100
AcDbText
 10
606.8155901431032
 20
187.71614334949666
 30
0.0
 40
5.725386053754853
  1
to,
 50
2.4076845222802494
  7
PLAT
 72
1
 11
606.8155901431032
 21
187.71614334949666
 31
0.0
100
AcDbText
 73
2
  0
TEXT
  5
22A
330
17
100
AcDbEntity
  8
PLAT-TEXT-LOTNO
100
AcDbText
 10
668.4264160280796
 20
185.08616234226614
 30
0.0
 40
14.323742573835352
  1
19
 50
17.078230763365298
  7
PLAT
 72
1
 11
668.4264160280796
 21
185.08616234226614
 31
0.0
100
AcDbText
 73
2
  0
TEXT
  5
22B
330
17
100
AcDbEntity
  8
PLAT-TEXT-LOTNO
100
AcDbText
 10
533.8302610514011
 20
177.42396642417594
 30
0.0
 40
16.59208486188991
  1
8
 50
58.106559825370084
  7
PLAT
 72
1
 11
533.8302610514011
 21
177.42396642417594
 31
0.0
100
AcDbText
 73
2
  0
TEXT
  5
22C
330
17
100
AcDbEntity
  8
PLAT-TEXT-LOWCONF
100
AcDbText
 10
265.8605795607577
 20
155.283943192249
 30
0.0
 40
14.932876375700918
  1
M
 50
92.40768452228025
  7
PLAT
 72
1
 11
265.8605795607577
 21
155.283943192249
 31
0.0
100
AcDbText
 73
2
  0
TEXT
  5
22D
330
17
100
AcDbEntity
  8
PLAT-TEXT-LOWCONF
100
AcDbText
 10
498.0370788635613
 20
170.50654310517177
 30
0.0
 40
9.610361385701363
  1
20%
 50
351.94538802566666
  7
PLAT
 72
1
 11
498.0370788635613
 21
170.50654310517177
 31
0.0
100
AcDbText
 73
2
  0
TEXT
  5
22E
330
17
100
AcDbEntity
  8
PLAT-TEXT-LOWCONF
100
AcDbText
 10
380.22349115338653
 20
165.1192407806881
 30
0.0
 40
3.682996876684409
  1
4
 50
2.407684522280249
  7
PLAT
 72
1
 11
380.22349115338653
 21
165.1192407806881
 31
0.0
100
AcDbText
 73
2
  0
TEXT
  5
22F
330
17
100
AcDbEntity
  8
PLAT-TEXT-LOTNO
100
AcDbText
 10
568.888009906535
 20
166.07997788883935
 30
0.0
 40
13.670140151308228
  1
2
 50
65.99823328604737
  7
PLAT
 72
1
 11
568.888009906535
 21
166.07997788883935
 31
0.0
100
AcDbText
 73
2
  0
TEXT
  5
230
330
17
100
AcDbEntity
  8
PLAT-TEXT-LOTNO
100
AcDbText
 10
520.8932680082711
 20
163.81316829576033
 30
0.0
 40
12.635686911125113
  1
00
 50
328.1065598253701
  7
PLAT
 72
1
 11
520.8932680082711
 21
163.81316829576033
 31
0.0
100
AcDbText
 73
2
  0
TEXT
  5
231
330
17
100
AcDbEntity
  8
PLAT-TEXT-LOWCONF
100
AcDbText
 10
379.9326914403383
 20
160.08030757024616
 30
0.0
 40
3.9173694052006893
  1
i
 50
2.4076845222802494
  7
PLAT
 72
1
 11
379.9326914403383
 21
160.08030757024616
 31
0.0
100
AcDbText
 73
2
  0
TEXT
  5
232
330
17
100
AcDbEntity
  8
PLAT-TEXT-LOWCONF
100
AcDbText
 10
303.3708022594181
 20
151.8344210513486
 30
0.0
 40
9.341419350863182
  1
J
 50
2.407684522280249
  7
PLAT
 72
1
 11
303.3708022594181
 21
151.8344210513486
 31
0.0
100
AcDbText
 73
2
  0
TEXT
  5
233
330
17
100
AcDbEntity
  8
PLAT-TEXT-LOWCONF
100
AcDbText
 10
485.23979179805474
 20
156.94896943581244
 30
0.0
 40
10.557094751657282
  1
7.
 50
347.333351791248
  7
PLAT
 72
1
 11
485.23979179805474
 21
156.94896943581244
 31
0.0
100
AcDbText
 73
2
  0
TEXT
  5
234
330
17
100
AcDbEntity
  8
PLAT-TEXT-LOWCONF
100
AcDbText
 10
536.8196914264626
 20
162.38518370950484
 30
0.0
 40
4.4328514242979224
  1
ee
 50
328.1065598253701
  7
PLAT
 72
1
 11
536.8196914264626
 21
162.38518370950484
 31
0.0
100
AcDbText
 73
2
  0
TEXT
  5
235
330
17
100
AcDbEntity
  8
PLAT-TEXT-LOWCONF
100
AcDbText
 10
380.2772982651505
 20
151.88451067567217
 30
0.0
 40
3.013361080923607
  1
-a
 50
92.40768452228025
  7
PLAT
 72
1
 11
380.2772982651505
 21
151.88451067567217
 31
0.0
100
AcDbText
 73
2
  0
TEXT
  5
236
330
17
100
AcDbEntity
  8
PLAT-TEXT-LOWCONF
100
AcDbText
 10
382.78376045487596
 20
140.09336174471284
 30
0.0
 40
14.932876375700918
  1
A
 50
2.4076845222802494
  7
PLAT
 72
1
 11
382.78376045487596
 21
140.09336174471284
 31
0.0
100
AcDbText
 73
2
  0
TEXT
  5
237
330
17
100
AcDbEntity
  8
PLAT-TEXT-LOWCONF
100
AcDbText
 10
664.1945662722869
 20
153.5560382838156
 30
0.0
 40
8.849932938834117
  1
“MORK
 50
328.5390485255832
  7
PLAT
 72
1
 11
664.1945662722869
 21
153.5560382838156
 31
0.0
100
AcDbText
 73
2
  0
TEXT
  5
238
330
17
100
AcDbEntity
  8
PLAT-TEXT-LOWCONF
100
AcDbText
 10
571.8658743231975
 20
143.86362679580589
 30
0.0
 40
10.717131318353156
  1
R459,
 50
336.89626619279676
  7
PLAT
 72
1
 11
571.8658743231975
 21
143.86362679580589
 31
0.0
100
AcDbText
 73
2
  0
TEXT
  5
239
330
17
100
AcDbEntity
  8
PLAT-TABLE
100
AcDbText
 10
444.9781467042444
 20
142.91176279164532
 30
0.0
 40
9.46024659111845
  1
89.76"
 50
354.51753467839535
  7
PLAT
 72
1
 11
444.9781467042444
 21
142.91176279164532
 31
0.0
100
AcDbText
 73
2
  0
TEXT
  5
23A
330
17
100
AcDbEntity
  8
PLAT-TEXT-LOWCONF
100
AcDbText
 10
187.52168973960792
 20
129.68123252206382
 30
0.0
 40
8.901262989143879
  1
of
 50
11.722531592710027
  7
PLAT
 72
1
 11
187.52168973960792
 21
129.68123252206382
 31
0.0
100
AcDbText
 73
2
  0
TEXT
  5
23B
330
17
100
AcDbEntity
  8
PLAT-TEXT-LOWCONF
100
AcDbText
 10
116.29605990172686
 20
125.87238984975698
 30
0.0
 40
7.700811651249218
  1
8
 50
2.407684522280249
  7
PLAT
 72
1
 11
116.29605990172686
 21
125.87238984975698
 31
0.0
100
AcDbText
 73
2
  0
TEXT
  5
23C
330
17
100
AcDbEntity
  8
PLAT-TEXT-LOWCONF
100
AcDbText
 10
365.82426209941997
 20
124.97495597580368
 30
0.0
 40
8.842573262785928
  1
"Mort
 50
47.30992770655456
  7
PLAT
 72
1
 11
365.82426209941997
 21
124.97495597580368
 31
0.0
100
AcDbText
 73
2
  0
TEXT
  5
23D
330
17
100
AcDbEntity
  8
PLAT-TEXT-LOWCONF
100
AcDbText
 10
437.94427476688725
 20
130.02826921474323
 30
0.0
 40
8.41269251586812
  1
82%%d41 80%%d
 50
352.9778650661453
  7
PLAT
 72
1
 11
437.94427476688725
 21
130.02826921474323
 31
0.0
100
AcDbText
 73
2
  0
TEXT
  5
23E
330
17
100
AcDbEntity
  8
PLAT-TEXT-LOWCONF
100
AcDbText
 10
388.01406465641094
 20
96.11940097502367
 30
0.0
 40
8.434779019481875
  1
IM.9S.LIov N
 50
88.73030174676518
  7
PLAT
 72
1
 11
388.01406465641094
 21
96.11940097502367
 31
0.0
100
AcDbText
 73
2
  0
TEXT
  5
23F
330
17
100
AcDbEntity
  8
PLAT-TEXT-LOTNO
100
AcDbText
 10
676.5230870232622
 20
131.8346583204967
 30
0.0
 40
16.59208486188991
  1
4
 50
2.4076845222802494
  7
PLAT
 72
1
 11
676.5230870232622
 21
131.8346583204967
 31
0.0
100
AcDbText
 73
2
  0
TEXT
  5
240
330
17
100
AcDbEntity
  8
PLAT-TEXT-LOWCONF
100
AcDbText
 10
601.3434144676007
 20
129.29946809103006
 30
0.0
 40
10.426255332958712
  1
a
 50
60.814906110221386
  7
PLAT
 72
1
 11
601.3434144676007
 21
129.29946809103006
 31
0.0
100
AcDbText
 73
2
  0
TEXT
  5
241
330
17
100
AcDbEntity
  8
PLAT-TEXT-LOWCONF
100
AcDbText
 10
489.35937359209146
 20
119.94366302948973
 30
0.0
 40
8.705265344890421
  1
3
 50
92.40768452228025
  7
PLAT
 72
1
 11
489.35937359209146
 21
119.94366302948973
 31
0.0
100
AcDbText
 73
2
  0
TEXT
  5
242
330
17
100
AcDbEntity
  8
PLAT-TEXT-LOWCONF
100
AcDbText
 10
330.44648527965876
 20
109.23173744252074
 30
0.0
 40
15.808611023838829
  1
23
 50
22.868030579065703
  7
PLAT
 72
1
 11
330.44648527965876
 21
109.23173744252074
 31
0.0
100
AcDbText
 73
2
  0
TEXT
  5
243
330
17
100
AcDbEntity
  8
PLAT-TEXT-LOWCONF
100
AcDbText
 10
356.7986335446582
 20
112.52678592915666
 30
0.0
 40
8.136074918493739
  1
10,
 50
2.4076845222802494
  7
PLAT
 72
1
 11
356.7986335446582
 21
112.52678592915666
 31
0.0
100
AcDbText
 73
2
  0
TEXT
  5
244
330
17
100
AcDbEntity
  8
PLAT-TEXT-LOWCONF
100
AcDbText
 10
616.518158759802
 20
123.87225640524596
 30
0.0
 40
7.544348084231692
  1
ip.
 50
3.5962811403630894
  7
PLAT
 72
1
 11
616.518158759802
 21
123.87225640524596
 31
0.0
100
AcDbText
 73
2
  0
TEXT
  5
245
330
17
100
AcDbEntity
  8
PLAT-TEXT-LOWCONF
100
AcDbText
 10
272.5818759963223
 20
110.99642531394028
 30
0.0
 40
2.7120249728312467
  1
Fe
 50
92.40768452228025
  7
PLAT
 72
1
 11
272.5818759963223
 21
110.99642531394028
 31
0.0
100
AcDbText
 73
2
  0
TEXT
  5
246
330
17
100
AcDbEntity
  8
PLAT-TEXT-LOWCONF
100
AcDbText
 10
519.1833169688956
 20
111.14251350480168
 30
0.0
 40
9.03830291363964
  1
ORI 0L.
 50
343.0667862518602
  7
PLAT
 72
1
 11
519.1833169688956
 21
111.14251350480168
 31
0.0
100
AcDbText
 73
2
  0
TEXT
  5
247
330
17
100
AcDbEntity
  8
PLAT-TEXT-LOWCONF
100
AcDbText
 10
269.42103123008866
 20
102.4856786190474
 30
0.0
 40
14.932876375700918
  1
WF,
 50
92.40768452228025
  7
PLAT
 72
1
 11
269.42103123008866
 21
102.4856786190474
 31
0.0
100
AcDbText
 73
2
  0
TEXT
  5
248
330
17
100
AcDbEntity
  8
PLAT-TEXT-LOWCONF
100
AcDbText
 10
77.15907053948973
 20
100.26617364814501
 30
0.0
 40
3.6160332971083284
  1
a.
 50
92.40768452228025
  7
PLAT
 72
1
 11
77.15907053948973
 21
100.26617364814501
 31
0.0
100
AcDbText
 73
2
  0
TEXT
  5
249
330
17
100
AcDbEntity
  8
PLAT-TEXT-LOWCONF
100
AcDbText
 10
367.67060901705224
 20
112.98391743145845
 30
0.0
 40
2.7120249728312467
  1
Te
 50
92.40768452228025
  7
PLAT
 72
1
 11
367.67060901705224
 21
112.98391743145845
 31
0.0
100
AcDbText
 73
2
  0
TEXT
  5
24A
330
17
100
AcDbEntity
  8
PLAT-TEXT-LOWCONF
100
AcDbText
 10
116.91554211118071
 20
91.21416553749424
 30
0.0
 40
14.932876375700918
  1
X
 50
2.407684522280249
  7
PLAT
 72
1
 11
116.91554211118071
 21
91.21416553749424
 31
0.0
100
AcDbText
 73
2
  0
TEXT
  5
24B
330
17
100
AcDbEntity
  8
PLAT-TEXT-LOWCONF
100
AcDbText
 10
351.00354922116327
 20
107.2123160632741
 30
0.0
 40
7.104705711846245
  1
a!
 50
19.436307560193086
  7
PLAT
 72
1
 11
351.00354922116327
 21
107.2123160632741
 31
0.0
100
AcDbText
 73
2
  0
TEXT
  5
24C
330
17
100
AcDbEntity
  8
PLAT-TEXT-LOTNO
100
AcDbText
 10
365.79159120098376
 20
105.86752236422046
 30
0.0
 40
11.048990630053225
  1
9
 50
2.407684522280249
  7
PLAT
 72
1
 11
365.79159120098376
 21
105.86752236422046
 31
0.0
100
AcDbText
 73
2
  0
TEXT
  5
24D
330
17
100
AcDbEntity
  8
PLAT-TEXT-LOWCONF
100
AcDbText
 10
346.90667143493647
 20
100.71699384814895
 30
0.0
 40
8.136074918493739
  1
Ay
 50
2.407684522280249
  7
PLAT
 72
1
 11
346.90667143493647
 21
100.71699384814895
 31
0.0
100
AcDbText
 73
2
  0
TEXT
  5
24E
330
17
100
AcDbEntity
  8
PLAT-TEXT-LOWCONF
100
AcDbText
 10
361.152001298978
 20
100.64573655285778
 30
0.0
 40
9.944091567047904
  1
of,
 50
2.407684522280249
  7
PLAT
 72
1
 11
361.152001298978
 21
100.64573655285778
 31
0.0
100
AcDbText
 73
2
  0
TEXT
  5
24F
330
17
100
AcDbEntity
  8
PLAT-TEXT-LOWCONF
100
AcDbText
 10
347.09610084917784
 20
93.90871748586909
 30
0.0
 40
12.834366367953244
  1
4 vor
 50
0.27236520372332507
  7
PLAT
 72
1
 11
347.09610084917784
 21
93.90871748586909
 31
0.0
100
AcDbText
 73
2
  0
TEXT
  5
250
330
17
100
AcDbEntity
  8
PLAT-TEXT-LOTNO
100
AcDbText
 10
430.3915313801193
 20
95.17621331508053
 30
0.0
 40
14.348492431691238
  1
24
 50
10.517520251221129
  7
PLAT
 72
1
 11
430.3915313801193
 21
95.17621331508053
 31
0.0
100
AcDbText
 73
2
  0
TEXT
  5
251
330
17
100
AcDbEntity
  8
PLAT-TEXT-LOWCONF
100
AcDbText
 10
545.3572950867444
 20
103.19671213574611
 30
0.0
 40
3.348178978804008
  1
7)
 50
2.407684522280249
  7
PLAT
 72
1
 11
545.3572950867444
 21
103.19671213574611
 31
0.0
100
AcDbText
 73
2
  0
TEXT
  5
252
330
17
100
AcDbEntity
  8
PLAT-TEXT-MISC
100
AcDbText
 10
181.82797927633538
 20
82.89911075472992
 30
0.0
 40
9.39781217382209
  1
TRACT
 50
0.776130319762361
  7
PLAT
 72
1
 11
181.82797927633538
 21
82.89911075472992
 31
0.0
100
AcDbText
 73
2
  0
TEXT
  5
253
330
17
100
AcDbEntity
  8
PLAT-TEXT-LOWCONF
100
AcDbText
 10
266.5787184505436
 20
86.43293225140201
 30
0.0
 40
3.061842526470899
  1
oo
 50
277.6808053691244
  7
PLAT
 72
1
 11
266.5787184505436
 21
86.43293225140201
 31
0.0
100
AcDbText
 73
2
  0
TEXT
  5
254
330
17
100
AcDbEntity
  8
PLAT-TEXT-LOWCONF
100
AcDbText
 10
535.663579956733
 20
61.14566960361975
 30
0.0
 40
14.932876375700918
  1
3.168708 N
 50
64.87568492985315
  7
PLAT
 72
1
 11
535.663579956733
 21
61.14566960361975
 31
0.0
100
AcDbText
 73
2
  0
TEXT
  5
255
330
17
100
AcDbEntity
  8
PLAT-TEXT-LOWCONF
100
AcDbText
 10
350.1665717772342
 20
86.94684215319694
 30
0.0
 40
8.4374110265861
  1
—y
 50
92.40768452228025
  7
PLAT
 72
1
 11
350.1665717772342
 21
86.94684215319694
 31
0.0
100
AcDbText
 73
2
  0
TEXT
  5
256
330
17
100
AcDbEntity
  8
PLAT-TEXT-LOWCONF
100
AcDbText
 10
333.5600131356915
 20
83.40012317995269
 30
0.0
 40
8.136074918493739
  1
> Se
 50
92.40768452228025
  7
PLAT
 72
1
 11
333.5600131356915
 21
83.40012317995269
 31
0.0
100
AcDbText
 73
2
  0
TEXT
  5
257
330
17
100
AcDbEntity
  8
PLAT-TEXT-LOWCONF
100
AcDbText
 10
228.13625208762434
 20
80.14029213159324
 30
0.0
 40
3.6160332971083284
  1
J
 50
92.40768452228025
  7
PLAT
 72
1
 11
228.13625208762434
 21
80.14029213159324
 31
0.0
100
AcDbText
 73
2
  0
TEXT
  5
258
330
17
100
AcDbEntity
  8
PLAT-TEXT-LOWCONF
100
AcDbText
 10
569.1490921750944
 20
84.96407843057267
 30
0.0
 40
14.932876375700918
  1
"aes
 50
17.15162459827792
  7
PLAT
 72
1
 11
569.1490921750944
 21
84.96407843057267
 31
0.0
100
AcDbText
 73
2
  0
TEXT
  5
259
330
17
100
AcDbEntity
  8
PLAT-TEXT-LOWCONF
100
AcDbText
 10
668.4043179558628
 20
93.79299511400183
 30
0.0
 40
8.73874713467846
  1
f
 50
92.40768452228025
  7
PLAT
 72
1
 11
668.4043179558628
 21
93.79299511400183
 31
0.0
100
AcDbText
 73
2
  0
TEXT
  5
25A
330
17
100
AcDbEntity
  8
PLAT-TEXT-LOWCONF
100
AcDbText
 10
183.46876276997125
 20
72.30192054897248
 30
0.0
 40
9.586985227368947
  1
ge
 50
0.8816553801391263
  7
PLAT
 72
1
 11
183.46876276997125
 21
72.30192054897248
 31
0.0
100
AcDbText
 73
2
  0
TEXT
  5
25B
330
17
100
AcDbEntity
  8
PLAT-TEXT-LOWCONF
100
AcDbText
 10
329.45737067874256
 20
77.36312994005056
 30
0.0
 40
9.040083242770821
  1
So
 50
92.40768452228025
  7
PLAT
 72
1
 11
329.45737067874256
 21
77.36312994005056
 31
0.0
100
AcDbText
 73
2
  0
TEXT
  5
25C
330
17
100
AcDbEntity
  8
PLAT-TEXT-LOWCONF
100
AcDbText
 10
117.02163047958791
 20
68.76600598653556
 30
0.0
 40
7.232066594216657
  1
A
 50
2.4076845222802494
  7
PLAT
 72
1
 11
117.02163047958791
 21
68.76600598653556
 31
0.0
100
AcDbText
 73
2
  0
TEXT
  5
25D
330
17
100
AcDbEntity
  8
PLAT-TEXT-LOWCONF
100
AcDbText
 10
270.2680180215027
 20
74.3717379672504
 30
0.0
 40
8.136074918493739
  1
to
 50
92.40768452228025
  7
PLAT
 72
1
 11
270.2680180215027
 21
74.3717379672504
 31
0.0
100
AcDbText
 73
2
  0
TEXT
  5
25E
330
17
100
AcDbEntity
  8
PLAT-TEXT-LOWCONF
100
AcDbText
 10
81.0559603217931
 20
52.941346774950716
 30
0.0
 40
11.824264837819292
  1
“60S.
 50
89.7681872378219
  7
PLAT
 72
1
 11
81.0559603217931
 21
52.941346774950716
 31
0.0
100
AcDbText
 73
2
  0
TEXT
  5
25F
330
17
100
AcDbEntity
  8
PLAT-TEXT-LOWCONF
100
AcDbText
 10
589.7175074392945
 20
78.50668648655687
 30
0.0
 40
8.654723297405384
  1
59%%d41"
 50
330.8149061102214
  7
PLAT
 72
1
 11
589.7175074392945
 21
78.50668648655687
 31
0.0
100
AcDbText
 73
2
  0
TEXT
  5
260
330
17
100
AcDbEntity
  8
PLAT-TEXT-MISC
100
AcDbText
 10
347.95334672364055
 20
67.13950522797694
 30
0.0
 40
14.932876375700918
  1
Mos. 20%%d
 50
0.865257451211902
  7
PLAT
 72
1
 11
347.95334672364055
 21
67.13950522797694
 31
0.0
100
AcDbText
 73
2
  0
TEXT
  5
261
330
17
100
AcDbEntity
  8
PLAT-TEXT-LOTNO
100
AcDbText
 10
503.52861589463043
 20
75.17985210602825
 30
0.0
 40
15.856564728248424
  1
25
 50
13.911436436697329
  7
PLAT
 72
1
 11
503.52861589463043
 21
75.17985210602825
 31
0.0
100
AcDbText
 73
2
  0
TEXT
  5
262
330
17
100
AcDbEntity
  8
PLAT-TEXT-LOWCONF
100
AcDbText
 10
270.1741364940615
 20
64.64949224562326
 30
0.0
 40
9.944091567047904
  1
WwW.
 50
92.40768452228025
  7
PLAT
 72
1
 11
270.1741364940615
 21
64.64949224562326
 31
0.0
100
AcDbText
 73
2
  0
TEXT
  5
263
330
17
100
AcDbEntity
  8
PLAT-TEXT-LOWCONF
100
AcDbText
 10
147.00815263837086
 20
56.95740687204909
 30
0.0
 40
3.6160332971083284
  1
74
 50
92.40768452228025
  7
PLAT
 72
1
 11
147.00815263837086
 21
56.95740687204909
 31
0.0
100
AcDbText
 73
2
  0
TEXT
  5
264
330
17
100
AcDbEntity
  8
PLAT-TEXT-LOWCONF
100
AcDbText
 10
579.0929613416009
 20
73.95228136649126
 30
0.0
 40
3.314697189015968
  1
"eg
 50
2.407684522280249
  7
PLAT
 72
1
 11
579.0929613416009
 21
73.95228136649126
 31
0.0
100
AcDbText
 73
2
  0
TEXT
  5
265
330
17
100
AcDbEntity
  8
PLAT-TEXT-LOWCONF
100
AcDbText
 10
82.55520365072599
 20
31.40851885847468
 30
0.0
 40
13.81932047330846
  1
os/—
 50
89.7681872378219
  7
PLAT
 72
1
 11
82.55520365072599
 21
31.40851885847468
 31
0.0
100
AcDbText
 73
2
  0
TEXT
  5
266
330
17
100
AcDbEntity
  8
PLAT-TEXT-LOWCONF
100
AcDbText
 10
679.6114122337451
 20
74.32495006673753
 30
0.0
 40
3.6160332971083284
  1
a
 50
92.40768452228025
  7
PLAT
 72
1
 11
679.6114122337451
 21
74.32495006673753
 31
0.0
100
AcDbText
 73
2
  0
TEXT
  5
267
330
17
100
AcDbEntity
  8
PLAT-TEXT-LOWCONF
100
AcDbText
 10
586.3922090097597
 20
67.72447336146519
 30
0.0
 40
7.834738810401379
  1
“a
 50
2.4076845222802494
  7
PLAT
 72
1
 11
586.3922090097597
 21
67.72447336146519
 31
0.0
100
AcDbText
 73
2
  0
TEXT
  5
268
330
17
100
AcDbEntity
  8
PLAT-TEXT-LOWCONF
100
AcDbText
 10
268.0520226562259
 20
55.3446364992202
 30
0.0
 40
3.348178978804008
  1
3
 50
2.407684522280249
  7
PLAT
 72
1
 11
268.0520226562259
 21
55.3446364992202
 31
0.0
100
AcDbText
 73
2
  0
TEXT
  5
269
330
17
100
AcDbEntity
  8
PLAT-TEXT-MISC
100
AcDbText
 10
176.8022885589944
 20
34.268666186074256
 30
0.0
 40
14.932876375700918
  1
yors &
 50
3.517663916203958
  7
PLAT
 72
1
 11
176.8022885589944
 21
34.268666186074256
 31
0.0
100
AcDbText
 73
2
  0
TEXT
  5
26A
330
17
100
AcDbEntity
  8
PLAT-TEXT-LOTNO
100
AcDbText
 10
117.12221191077273
 20
42.46380693761745
 30
0.0
 40
11.718626425814028
  1
9
 50
2.4076845222802494
  7
PLAT
 72
1
 11
117.12221191077273
 21
42.46380693761745
 31
0.0
100
AcDbText
 73
2
  0
TEXT
  5
26B
330
17
100
AcDbEntity
  8
PLAT-TEXT-LOWCONF
100
AcDbText
 10
271.3510680423408
 20
48.61351915573209
 30
0.0
 40
6.328058269939575
  1
Ww
 50
92.40768452228025
  7
PLAT
 72
1
 11
271.3510680423408
 21
48.61351915573209
 31
0.0
100
AcDbText
 73
2
  0
TEXT
  5
26C
330
17
100
AcDbEntity
  8
PLAT-TEXT-LOWCONF
100
AcDbText
 10
606.263724564405
 20
56.79915793381309
 30
0.0
 40
7.578584968313563
  1
Sry
 50
54.90511296965644
  7
PLAT
 72
1
 11
606.263724564405
 21
56.79915793381309
 31
0.0
100
AcDbText
 73
2
  0
TEXT
  5
26D
330
17
100
AcDbEntity
  8
PLAT-TEXT-LOWCONF
100
AcDbText
 10
271.22202255318405
 20
39.727579239673844
 30
0.0
 40
9.040083242770821
  1
to
 50
92.40768452228025
  7
PLAT
 72
1
 11
271.22202255318405
 21
39.727579239673844
 31
0.0
100
AcDbText
 73
2
  0
TEXT
  5
26E
330
17
100
AcDbEntity
  8
PLAT-TEXT-LOWCONF
100
AcDbText
 10
353.31614168289974
 20
39.828356217666965
 30
0.0
 40
14.932876375700918
  1
of
 50
0.865257451211902
  7
PLAT
 72
1
 11
353.31614168289974
 21
39.828356217666965
 31
0.0
100
AcDbText
 73
2
  0
TEXT
  5
26F
330
17
100
AcDbEntity
  8
PLAT-TEXT-LOTNO
100
AcDbText
 10
568.2319556270515
 20
47.4095345233838
 30
0.0
 40
15.095188322597252
  1
26
 50
351.8560510584014
  7
PLAT
 72
1
 11
568.2319556270515
 21
47.4095345233838
 31
0.0
100
AcDbText
 73
2
  0
TEXT
  5
270
330
17
100
AcDbEntity
  8
PLAT-TEXT-LOWCONF
100
AcDbText
 10
595.4796446767871
 20
50.848213383903726
 30
0.0
 40
11.048990630053225
  1
6.
 50
2.4076845222802494
  7
PLAT
 72
1
 11
595.4796446767871
 21
50.848213383903726
 31
0.0
100
AcDbText
 73
2
  0
TEXT
  5
271
330
17
100
AcDbEntity
  8
PLAT-TEXT-LOWCONF
100
AcDbText
 10
619.7294695045201
 20
33.84136057229409
 30
0.0
 40
12.18857323852233
  1
"P0881 0.
 50
54.90511296965644
  7
PLAT
 72
1
 11
619.7294695045201
 21
33.84136057229409
 31
0.0
100
AcDbText
 73
2
  0
TEXT
  5
272
330
17
100
AcDbEntity
  8
PLAT-TEXT-LOWCONF
100
AcDbText
 10
150.38668107864126
 20
24.425873962984213
 30
0.0
 40
8.136074918493739
  1
Ww
 50
92.40768452228025
  7
PLAT
 72
1
 11
150.38668107864126
 21
24.425873962984213
 31
0.0
100
AcDbText
 73
2
  0
TEXT
  5
273
330
17
100
AcDbEntity
  8
PLAT-TEXT-LOWCONF
100
AcDbText
 10
268.94120620169855
 20
26.22712888074068
 30
0.0
 40
6.696357957608016
  1
8
 50
2.407684522280249
  7
PLAT
 72
1
 11
268.94120620169855
 21
26.22712888074068
 31
0.0
100
AcDbText
 73
2
  0
TEXT
  5
274
330
17
100
AcDbEntity
  8
PLAT-TEXT-LOWCONF
100
AcDbText
 10
113.91606320218241
 20
4.766503061857009
 30
0.0
 40
14.932876375700918
  1
Af.
 50
91.51560361025946
  7
PLAT
 72
1
 11
113.91606320218241
 21
4.766503061857009
 31
0.0
100
AcDbText
 73
2
  0
TEXT
  5
275
330
17
100
AcDbEntity
  8
PLAT-TEXT-LOWCONF
100
AcDbText
 10
598.9591151938755
 20
24.900844796921376
 30
0.0
 40
9.396025674607403
  1
foo'
 50
54.90511296965644
  7
PLAT
 72
1
 11
598.9591151938755
 21
24.900844796921376
 31
0.0
100
AcDbText
 73
2
  0
TEXT
  5
276
330
17
100
AcDbEntity
  8
PLAT-TEXT-LOWCONF
100
AcDbText
 10
359.44134818680163
 20
20.964452127200843
 30
0.0
 40
11.093750394662484
  1
"F.08,85088 N ,
 50
0.4168815451954515
  7
PLAT
 72
1
 11
359.44134818680163
 21
20.964452127200843
 31
0.0
100
AcDbText
 73
2
  0
TEXT
  5
277
330
17
100
AcDbEntity
  8
PLAT-TEXT-LOWCONF
100
AcDbText
 10
430.770194217058
 20
22.97810382501109
 30
0.0
 40
13.861460972248592
  1
Avs,
 50
2.4076845222802494
  7
PLAT
 72
1
 11
430.770194217058
 21
22.97810382501109
 31
0.0
100
AcDbText
 73
2
  0
TEXT
  5
278
330
17
100
AcDbEntity
  8
PLAT-TEXT-LOWCONF
100
AcDbText
 10
271.4602081209895
 20
18.12275828662706
 30
0.0
 40
6.328058269939575
  1
vi
 50
92.40768452228025
  7
PLAT
 72
1
 11
271.4602081209895
 21
18.12275828662706
 31
0.0
100
AcDbText
 73
2
  0
TEXT
  5
279
330
17
100
AcDbEntity
  8
PLAT-TEXT-LOWCONF
100
AcDbText
 10
551.1369920565485
 20
16.40740409266226
 30
0.0
 40
11.565472774739208
  1
11.36 >-
 50
343.0603685395433
  7
PLAT
 72
1
 11
551.1369920565485
 21
16.40740409266226
 31
0.0
100
AcDbText
 73
2
  0
TEXT
  5
27A
330
17
100
AcDbEntity
  8
PLAT-TEXT-LOWCONF
100
AcDbText
 10
449.07293153864646
 20
16.06888721170128
 30
0.0
 40
13.871090127023155
  1
> ia
 50
297.728224760876
  7
PLAT
 72
1
 11
449.07293153864646
 21
16.06888721170128
 31
0.0
100
AcDbText
 73
2
  0
TEXT
  5
27B
330
17
100
AcDbEntity
  8
PLAT-TEXT-LOWCONF
100
AcDbText
 10
398.52429471878946
 20
6.965961586236915
 30
0.0
 40
8.652864885877992
  1
\ EE
 50
349.1830315293412
  7
PLAT
 72
1
 11
398.52429471878946
 21
6.965961586236915
 31
0.0
100
AcDbText
 73
2
  0
TEXT
  5
27C
330
17
100
AcDbEntity
  8
PLAT-TEXT-CURVE
100
AcDbText
 10
502.6269687645543
 20
172.78324033624824
 30
0.0
 40
9.011972047416428
  1
%%c=36%%d19'48"  R=459.36'  T=150.72'*  L=291.27'*  (UNCHECKED)
  7
PLAT
 72
1
 11
502.6269687645543
 21
172.78324033624824
 31
0.0
100
AcDbText
 73
3
  0
CIRCLE
  5
27D
330
17
100
AcDbEntity
  8
PLAT-QA
100
AcDbCircle
 10
641.7754345581473
 20
679.2794517964446
 30
0.0
 40
22.022798500142653
  0
TEXT
  5
27E
330
17
100
AcDbEntity
  8
PLAT-QA
100
AcDbText
 10
641.7754345581473
 20
654.1613096287145
 30
0.0
 40
6.308380433191499
  1
MEAS 51.61
 72
1
 11
641.7754345581473
 21
654.1613096287145
 31
0.0
100
AcDbText
 73
3
  0
CIRCLE
  5
27F
330
17
100
AcDbEntity
  8
PLAT-QA
100
AcDbCircle
 10
567.6797192243718
 20
588.541610223484
 30
0.0
 40
21.863828501121965
  0
TEXT
  5
280
330
17
100
AcDbEntity
  8
PLAT-QA
100
AcDbText
 10
567.6797192243718
 20
563.7559044625128
 30
0.0
 40
6.308380433191499
  1
MEAS 116.52
 72
1
 11
567.6797192243718
 21
563.7559044625128
 31
0.0
100
AcDbText
 73
3
  0
CIRCLE
  5
281
330
17
100
AcDbEntity
  8
PLAT-QA
100
AcDbCircle
 10
223.25904013461633
 20
510.89238061840774
 30
0.0
 40
23.20307635997333
  0
TEXT
  5
282
330
17
100
AcDbEntity
  8
PLAT-QA
100
AcDbText
 10
223.25904013461633
 20
486.093086430022
 30
0.0
 40
6.308380433191499
  1
MEAS 91.02
 72
1
 11
223.25904013461633
 21
486.093086430022
 31
0.0
100
AcDbText
 73
3
  0
CIRCLE
  5
283
330
17
100
AcDbEntity
  8
PLAT-QA
100
AcDbCircle
 10
508.5851557288488
 20
321.3815062805407
 30
0.0
 40
41.404768267758605
  0
TEXT
  5
284
330
17
100
AcDbEntity
  8
PLAT-QA
100
AcDbText
 10
508.5851557288488
 20
296.1871901374023
 30
0.0
 40
6.308380433191499
  1
MEAS 24.76
 72
1
 11
508.5851557288488
 21
296.1871901374023
 31
0.0
100
AcDbText
 73
3
  0
CIRCLE
  5
285
330
17
100
AcDbEntity
  8
PLAT-QA
100
AcDbCircle
 10
585.5763424936788
 20
301.2452393571564
 30
0.0
 40
34.826258724639295
  0
TEXT
  5
286
330
17
100
AcDbEntity
  8
PLAT-QA
100
AcDbText
 10
585.5763424936788
 20
276.6462662531343
 30
0.0
 40
6.308380433191499
  1
MEAS 27.41
 72
1
 11
585.5763424936788
 21
276.6462662531343
 31
0.0
100
AcDbText
 73
3
  0
CIRCLE
  5
287
330
17
100
AcDbEntity
  8
PLAT-QA
100
AcDbCircle
 10
440.2878901636439
 20
220.650050940763
 30
0.0
 40
32.12225848648174
  0
TEXT
  5
288
330
17
100
AcDbEntity
  8
PLAT-QA
100
AcDbText
 10
440.2878901636439
 20
196.49308254960715
 30
0.0
 40
6.308380433191499
  1
MEAS 68.60
 72
1
 11
440.2878901636439
 21
196.49308254960715
 31
0.0
100
AcDbText
 73
3
  0
CIRCLE
  5
289
330
17
100
AcDbEntity
  8
PLAT-QA
100
AcDbCircle
 10
586.4986243963443
 20
181.18001140199982
 30
0.0
 40
30.59822318135202
  0
TEXT
  5
28A
330
17
100
AcDbEntity
  8
PLAT-QA
100
AcDbText
 10
586.4986243963443
 20
156.7481879603867
 30
0.0
 40
6.308380433191499
  1
MEAS 69.96
 72
1
 11
586.4986243963443
 21
156.7481879603867
 31
0.0
100
AcDbText
 73
3
  0
CIRCLE
  5
28B
330
17
100
AcDbEntity
  8
PLAT-QA
100
AcDbCircle
 10
232.5916827679832
 20
125.01451603271906
 30
0.0
 40
22.354521837710998
  0
TEXT
  5
28C
330
17
100
AcDbEntity
  8
PLAT-QA
100
AcDbText
 10
232.5916827679832
 20
99.44189665132919
 30
0.0
 40
6.308380433191499
  1
MEAS 74.66
 72
1
 11
232.5916827679832
 21
99.44189665132919
 31
0.0
100
AcDbText
 73
3
  0
CIRCLE
  5
28D
330
17
100
AcDbEntity
  8
PLAT-QA
100
AcDbCircle
 10
664.1836584551968
 20
45.533482322822636
 30
0.0
 40
21.28745172439709
  0
TEXT
  5
28E
330
17
100
AcDbEntity
  8
PLAT-QA
100
AcDbText
 10
664.1836584551968
 20
21.538884942412693
 30
0.0
 40
6.308380433191499
  1
MEAS 53.34
 72
1
 11
664.1836584551968
 21
21.538884942412693
 31
0.0
100
AcDbText
 73
3
  0
ENDSEC
  0
SECTION
  2
OBJECTS
  0
DICTIONARY
  5
A
330
0
100
AcDbDictionary
281
1
  3
ACAD_COLOR
350
B
  3
ACAD_GROUP
350
C
  3
ACAD_LAYOUT
350
D
  3
ACAD_MATERIAL
350
E
  3
ACAD_MLEADERSTYLE
350
F
  3
ACAD_MLINESTYLE
350
10
  3
ACAD_PLOTSETTINGS
350
11
  3
ACAD_PLOTSTYLENAME
350
12
  3
ACAD_SCALELIST
350
14
  3
ACAD_TABLESTYLE
350
15
  3
ACAD_VISUALSTYLE
350
16
  3
EZDXF_META
350
2D
  0
DICTIONARY
  5
B
330
A
100
AcDbDictionary
281
1
  0
DICTIONARY
  5
C
330
A
100
AcDbDictionary
281
1
  0
DICTIONARY
  5
D
330
A
100
AcDbDictionary
281
1
  3
Model
350
1A
  3
Layout1
350
1E
  0
DICTIONARY
  5
E
330
A
100
AcDbDictionary
281
1
  3
ByBlock
350
1F
  3
ByLayer
350
20
  3
Global
350
21
  0
DICTIONARY
  5
F
330
A
100
AcDbDictionary
281
1
  3
Standard
350
2C
  0
DICTIONARY
  5
10
330
A
100
AcDbDictionary
281
1
  3
Standard
350
22
  0
DICTIONARY
  5
11
330
A
100
AcDbDictionary
281
1
  0
ACDBDICTIONARYWDFLT
  5
12
330
A
100
AcDbDictionary
281
1
  3
Normal
350
13
100
AcDbDictionaryWithDefault
340
13
  0
ACDBPLACEHOLDER
  5
13
330
12
  0
DICTIONARY
  5
14
330
A
100
AcDbDictionary
281
1
  0
DICTIONARY
  5
15
330
A
100
AcDbDictionary
281
1
  0
DICTIONARY
  5
16
330
A
100
AcDbDictionary
281
1
  3
2dWireframe
350
5A
  3
Basic
350
5B
  3
Brighten
350
5C
  3
ColorChange
350
5D
  3
Conceptual
350
5E
  3
Dim
350
5F
  3
EdgeColorOff
350
60
  3
Facepattern
350
61
  3
Flat
350
62
  3
FlatWithEdges
350
63
  3
Gouraud
350
64
  3
GouraudWithEdges
350
65
  3
Hidden
350
66
  3
JitterOff
350
67
  3
Linepattern
350
68
  3
Modeling
350
69
  3
OverhangOff
350
6A
  3
Realistic
350
6B
  3
Shaded
350
6C
  3
Shaded with edges
350
6D
  3
Shades of Gray
350
6E
  3
Sketchy
350
6F
  3
Thicken
350
70
  3
Wireframe
350
71
  3
X-Ray
350
72
  0
LAYOUT
  5
1A
330
D
100
AcDbPlotSettings
  1

  4
A3
  6

 40
7.5
 41
20.0
 42
7.5
 43
20.0
 44
420.0
 45
297.0
 46
0.0
 47
0.0
 48
0.0
 49
0.0
140
0.0
141
0.0
142
1.0
143
1.0
 70
1024
 72
1
 73
0
 74
5
  7

 75
16
 76
0
 77
2
 78
300
147
1.0
148
0.0
149
0.0
100
AcDbLayout
  1
Model
 70
1
 71
0
 10
0.0
 20
0.0
 11
420.0
 21
297.0
 12
0.0
 22
0.0
 32
0.0
 14
1e+20
 24
1e+20
 34
1e+20
 15
-1e+20
 25
-1e+20
 35
-1e+20
146
0.0
 13
0.0
 23
0.0
 33
0.0
 16
1.0
 26
0.0
 36
0.0
 17
0.0
 27
1.0
 37
0.0
 76
1
330
17
  0
LAYOUT
  5
1E
330
D
100
AcDbPlotSettings
  1

  4
A3
  6

 40
7.5
 41
20.0
 42
7.5
 43
20.0
 44
420.0
 45
297.0
 46
0.0
 47
0.0
 48
0.0
 49
0.0
140
0.0
141
0.0
142
1.0
143
1.0
 70
0
 72
1
 73
0
 74
5
  7

 75
16
 76
0
 77
2
 78
300
147
1.0
148
0.0
149
0.0
100
AcDbLayout
  1
Layout1
 70
1
 71
1
 10
0.0
 20
0.0
 11
420.0
 21
297.0
 12
0.0
 22
0.0
 32
0.0
 14
1e+20
 24
1e+20
 34
1e+20
 15
-1e+20
 25
-1e+20
 35
-1e+20
146
0.0
 13
0.0
 23
0.0
 33
0.0
 16
1.0
 26
0.0
 36
0.0
 17
0.0
 27
1.0
 37
0.0
 76
1
330
1B
  0
MATERIAL
  5
1F
102
{ACAD_REACTORS
330
E
102
}
330
E
100
AcDbMaterial
  1
ByBlock
  2

 70
0
 40
1.0
 71
1
 41
1.0
 91
-1023410177
 42
1.0
 72
1
  3

 73
1
 74
1
 75
1
 44
0.5
 73
0
 45
1.0
 46
1.0
 77
1
  4

 78
1
 79
1
170
1
 48
1.0
171
1
  6

172
1
173
1
174
1
140
1.0
141
1.0
175
1
  7

176
1
177
1
178
1
143
1.0
179
1
  8

270
1
271
1
272
1
145
1.0
146
1.0
273
1
  9

274
1
275
1
276
1
 42
1.0
 72
1
  3

 73
1
 74
1
 75
1
 94
63
  0
MATERIAL
  5
20
102
{ACAD_REACTORS
330
E
102
}
330
E
100
AcDbMaterial
  1
ByLayer
  2

 70
0
 40
1.0
 71
1
 41
1.0
 91
-1023410177
 42
1.0
 72
1
  3

 73
1
 74
1
 75
1
 44
0.5
 73
0
 45
1.0
 46
1.0
 77
1
  4

 78
1
 79
1
170
1
 48
1.0
171
1
  6

172
1
173
1
174
1
140
1.0
141
1.0
175
1
  7

176
1
177
1
178
1
143
1.0
179
1
  8

270
1
271
1
272
1
145
1.0
146
1.0
273
1
  9

274
1
275
1
276
1
 42
1.0
 72
1
  3

 73
1
 74
1
 75
1
 94
63
  0
MATERIAL
  5
21
102
{ACAD_REACTORS
330
E
102
}
330
E
100
AcDbMaterial
  1
Global
  2

 70
0
 40
1.0
 71
1
 41
1.0
 91
-1023410177
 42
1.0
 72
1
  3

 73
1
 74
1
 75
1
 44
0.5
 73
0
 45
1.0
 46
1.0
 77
1
  4

 78
1
 79
1
170
1
 48
1.0
171
1
  6

172
1
173
1
174
1
140
1.0
141
1.0
175
1
  7

176
1
177
1
178
1
143
1.0
179
1
  8

270
1
271
1
272
1
145
1.0
146
1.0
273
1
  9

274
1
275
1
276
1
 42
1.0
 72
1
  3

 73
1
 74
1
 75
1
 94
63
  0
MLINESTYLE
  5
22
102
{ACAD_REACTORS
330
10
102
}
330
10
100
AcDbMlineStyle
  2
Standard
 70
0
  3

 62
256
 51
90.0
 52
90.0
 71
2
 49
0.5
 62
256
  6
BYLAYER
 49
-0.5
 62
256
  6
BYLAYER
  0
MLEADERSTYLE
  5
2C
102
{ACAD_REACTORS
330
F
102
}
330
F
100
AcDbMLeaderStyle
179
2
170
2
171
1
172
0
 90
2
 40
0.0
 41
0.0
173
1
 91
-1056964608
 92
-2
290
1
 42
2.0
291
1
 43
8.0
  3
Standard
 44
4.0
300

342
29
174
1
175
1
176
0
178
1
 93
-1056964608
 45
4.0
292
0
297
0
 46
4.0
 94
-1056964608
 47
1.0
 49
1.0
140
1.0
294
1
141
0.0
177
0
142
1.0
295
0
296
0
143
3.75
271
0
272
9
273
9
  0
DICTIONARY
  5
2D
330
A
100
AcDbDictionary
280
1
281
1
  3
CREATED_BY_EZDXF
350
2E
  3
WRITTEN_BY_EZDXF
350
291
  0
DICTIONARYVAR
  5
2E
330
2D
100
DictionaryVariables
280
0
  1
1.4.4 @ 2026-09-24T07:00:02.179003+00:00
  0
VISUALSTYLE
  5
5A
102
{ACAD_REACTORS
330
16
102
}
330
16
100
AcDbVisualStyle
  2
2dWireframe
 70
4
 90
0
 40
0.6
 62
7
290
0
291
0
  0
VISUALSTYLE
  5
5B
102
{ACAD_REACTORS
330
16
102
}
330
16
100
AcDbVisualStyle
  2
Basic
 70
7
 90
1
 40
0.6
 62
7
290
0
291
1
  0
VISUALSTYLE
  5
5C
102
{ACAD_REACTORS
330
16
102
}
330
16
100
AcDbVisualStyle
  2
Brighten
 70
12
 90
2
 40
0.6
 62
7
290
0
291
1
  0
VISUALSTYLE
  5
5D
102
{ACAD_REACTORS
330
16
102
}
330
16
100
AcDbVisualStyle
  2
ColorChange
 70
16
 90
2
 40
0.6
 62
8
290
0
291
1
  0
VISUALSTYLE
  5
5E
102
{ACAD_REACTORS
330
16
102
}
330
16
100
AcDbVisualStyle
  2
Conceptual
 70
9
 90
3
 40
0.6
 62
7
290
0
291
0
  0
VISUALSTYLE
  5
5F
102
{ACAD_REACTORS
330
16
102
}
330
16
100
AcDbVisualStyle
  2
Dim
 70
11
 90
2
 40
0.6
 62
7
290
0
291
1
  0
VISUALSTYLE
  5
60
102
{ACAD_REACTORS
330
16
102
}
330
16
100
AcDbVisualStyle
  2
EdgeColorOff
 70
22
 90
2
 40
0.6
 62
7
290
0
291
1
  0
VISUALSTYLE
  5
61
102
{ACAD_REACTORS
330
16
102
}
330
16
100
AcDbVisualStyle
  2
Facepattern
 70
15
 90
2
 40
0.6
 62
7
290
0
291
1
  0
VISUALSTYLE
  5
62
102
{ACAD_REACTORS
330
16
102
}
330
16
100
AcDbVisualStyle
  2
Flat
 70
0
 90
2
 40
0.6
 62
7
290
0
291
1
  0
VISUALSTYLE
  5
63
102
{ACAD_REACTORS
330
16
102
}
330
16
100
AcDbVisualStyle
  2
FlatWithEdges
 70
1
 90
2
 40
0.6
 62
7
290
0
291
1
  0
VISUALSTYLE
  5
64
102
{ACAD_REACTORS
330
16
102
}
330
16
100
AcDbVisualStyle
  2
Gouraud
 70
2
 90
2
 40
0.6
 62
7
290
0
291
1
  0
VISUALSTYLE
  5
65
102
{ACAD_REACTORS
330
16
102
}
330
16
100
AcDbVisualStyle
  2
GouraudWithEdges
 70
3
 90
2
 40
0.6
 62
7
290
0
291
1
  0
VISUALSTYLE
  5
66
102
{ACAD_REACTORS
330
16
102
}
330
16
100
AcDbVisualStyle
  2
Hidden
 70
6
 90
1
 40
0.6
 62
7
290
0
291
0
  0
VISUALSTYLE
  5
67
102
{ACAD_REACTORS
330
16
102
}
330
16
100
AcDbVisualStyle
  2
JitterOff
 70
20
 90
2
 40
0.6
 62
7
290
0
291
1
  0
VISUALSTYLE
  5
68
102
{ACAD_REACTORS
330
16
102
}
330
16
100
AcDbVisualStyle
  2
Linepattern
 70
14
 90
2
 40
0.6
 62
7
290
0
291
1
  0
VISUALSTYLE
  5
69
102
{ACAD_REACTORS
330
16
102
}
330
16
100
AcDbVisualStyle
  2
Modeling
 70
10
 90
2
 40
0.6
 62
7
290
0
291
0
  0
VISUALSTYLE
  5
6A
102
{ACAD_REACTORS
330
16
102
}
330
16
100
AcDbVisualStyle
  2
OverhangOff
 70
21
 90
2
 40
0.6
 62
7
290
0
291
1
  0
VISUALSTYLE
  5
6B
102
{ACAD_REACTORS
330
16
102
}
330
16
100
AcDbVisualStyle
  2
Realistic
 70
8
 90
2
 40
0.6
 62
7
290
0
291
0
  0
VISUALSTYLE
  5
6C
102
{ACAD_REACTORS
330
16
102
}
330
16
100
AcDbVisualStyle
  2
Shaded
 70
27
 90
2
 40
0.6
 62
7
290
0
291
0
  0
VISUALSTYLE
  5
6D
102
{ACAD_REACTORS
330
16
102
}
330
16
100
AcDbVisualStyle
  2
Shaded with edges
 70
26
 90
2
 40
0.6
 62
7
290
0
291
0
  0
VISUALSTYLE
  5
6E
102
{ACAD_REACTORS
330
16
102
}
330
16
100
AcDbVisualStyle
  2
Shades of Gray
 70
23
 90
2
 40
0.6
 62
7
290
0
291
0
  0
VISUALSTYLE
  5
6F
102
{ACAD_REACTORS
330
16
102
}
330
16
100
AcDbVisualStyle
  2
Sketchy
 70
24
 90
1
 40
0.6
 62
7
290
0
291
0
  0
VISUALSTYLE
  5
70
102
{ACAD_REACTORS
330
16
102
}
330
16
100
AcDbVisualStyle
  2
Thicken
 70
13
 90
2
 40
0.6
 62
7
290
0
291
1
  0
VISUALSTYLE
  5
71
102
{ACAD_REACTORS
330
16
102
}
330
16
100
AcDbVisualStyle
  2
Wireframe
 70
5
 90
0
 40
0.6
 62
7
290
0
291
0
  0
VISUALSTYLE
  5
72
102
{ACAD_REACTORS
330
16
102
}
330
16
100
AcDbVisualStyle
  2
X-Ray
 70
25
 90
2
 40
0.5
 62
7
290
0
291
0
  0
DICTIONARYVAR
  5
291
330
2D
100
DictionaryVariables
280
0
  1
1.4.4 @ 2026-09-24T07:00:02.227229+00:00
  0
ENDSEC
  0
EOF
