  0
SECTION
  2
HEADER
  9
$ACADVER
  1
AC1024
  9
$ACADMAINTVER
 70
6
  9
$DWGCODEPAGE
  3
ANSI_1252
  9
$LASTSAVEDBY
  1
ezdxf
  9
$INSBASE
 10
0.0
 20
0.0
 30
0.0
  9
$EXTMIN
 10
1e+20
 20
1e+20
 30
1e+20
  9
$EXTMAX
 10
-1e+20
 20
-1e+20
 30
-1e+20
  9
$LIMMIN
 10
0.0
 20
0.0
  9
$LIMMAX
 10
420.0
 20
297.0
  9
$ORTHOMODE
 70
0
  9
$REGENMODE
 70
1
  9
$FILLMODE
 70
1
  9
$QTEXTMODE
 70
0
  9
$MIRRTEXT
 70
1
  9
$LTSCALE
 40
1.0
  9
$ATTMODE
 70
1
  9
$TEXTSIZE
 40
2.5
  9
$TRACEWID
 40
1.0
  9
$TEXTSTYLE
  7
OpenSans
  9
$CLAYER
  8
0
  9
$CELTYPE
  6
ByLayer
  9
$CECOLOR
 62
256
  9
$CELTSCALE
 40
1.0
  9
$DISPSILH
 70
0
  9
$DIMSCALE
 40
1.0
  9
$DIMASZ
 40
0.175
  9
$DIMEXO
 40
0.125
  9
$DIMDLI
 40
3.75
  9
$DIMRND
 40
0.0
  9
$DIMDLE
 40
0.0
  9
$DIMEXE
 40
0.375
  9
$DIMTP
 40
0.0
  9
$DIMTM
 40
0.0
  9
$DIMTXT
 40
0.25
  9
$DIMCEN
 40
2.5
  9
$DIMTSZ
 40
0.0
  9
$DIMTOL
 70
0
  9
$DIMLIM
 70
0
  9
$DIMTIH
 70
0
  9
$DIMTOH
 70
0
  9
$DIMSE1
 70
0
  9
$DIMSE2
 70
0
  9
$DIMTAD
 70
1
  9
$DIMZIN
 70
12
  9
$DIMBLK
  1
ARCHTICK
  9
$DIMASO
 70
1
  9
$DIMSHO
 70
1
  9
$DIMPOST
  1

  9
$DIMAPOST
  1

  9
$DIMALT
 70
0
  9
$DIMALTD
 70
3
  9
$DIMALTF
 40
0.03937007874
  9
$DIMLFAC
 40
100.0
  9
$DIMTOFL
 70
1
  9
$DIMTVP
 40
0.0
  9
$DIMTIX
 70
0
  9
$DIMSOXD
 70
0
  9
$DIMSAH
 70
0
  9
$DIMBLK1
  1

  9
$DIMBLK2
  1

  9
$DIMSTYLE
  2
EZDXF
  9
$DIMCLRD
 70
0
  9
$DIMCLRE
 70
0
  9
$DIMCLRT
 70
0
  9
$DIMTFAC
 40
0.5
  9
$DIMGAP
 40
0.1
  9
$DIMJUST
 70
0
  9
$DIMSD1
 70
0
  9
$DIMSD2
 70
0
  9
$DIMTOLJ
 70
0
  9
$DIMTZIN
 70
8
  9
$DIMALTZ
 70
0
  9
$DIMALTTZ
 70
0
  9
$DIMUPT
 70
1
  9
$DIMDEC
 70
2
  9
$DIMTDEC
 70
2
  9
$DIMALTU
 70
2
  9
$DIMALTTD
 70
3
  9
$DIMTXSTY
  7
OpenSansCondensed-Light
  9
$DIMAUNIT
 70
0
  9
$DIMADEC
 70
2
  9
$DIMALTRND
 40
0.0
  9
$DIMAZIN
 70
3
  9
$DIMDSEP
 70
46
  9
$DIMATFIT
 70
3
  9
$DIMFRAC
 70
0
  9
$DIMLDRBLK
  1

  9
$DIMLUNIT
 70
2
  9
$DIMLWD
 70
-2
  9
$DIMLWE
 70
-2
  9
$DIMTMOVE
 70
2
  9
$DIMFXL
 40
1.0
  9
$DIMFXLON
 70
0
  9
$DIMJOGANG
 40
0.785398163397
  9
$DIMTFILL
 70
0
  9
$DIMTFILLCLR
 70
0
  9
$DIMARCSYM
 70
0
  9
$DIMLTYPE
  6

  9
$DIMLTEX1
  6

  9
$DIMLTEX2
  6

  9
$DIMTXTDIRECTION
 70
0
  9
$LUNITS
 70
2
  9
$LUPREC
 70
4
  9
$SKETCHINC
 40
1.0
  9
$FILLETRAD
 40
10.0
  9
$AUNITS
 70
0
  9
$AUPREC
 70
2
  9
$MENU
  1
.
  9
$ELEVATION
 40
0.0
  9
$PELEVATION
 40
0.0
  9
$THICKNESS
 40
0.0
  9
$LIMCHECK
 70
0
  9
$CHAMFERA
 40
0.0
  9
$CHAMFERB
 40
0.0
  9
$CHAMFERC
 40
0.0
  9
$CHAMFERD
 40
0.0
  9
$SKPOLY
 70
0
  9
$TDCREATE
 40
2461308.126099537
  9
$TDUCREATE
 40
2458532.153996898
  9
$TDUPDATE
 40
2461308.126099537
  9
$TDUUPDATE
 40
2458532.1544311
  9
$TDINDWG
 40
0.0
  9
$TDUSRTIMER
 40
0.0
  9
$USRTIMER
 70
1
  9
$ANGBASE
 50
0.0
  9
$ANGDIR
 70
0
  9
$PDMODE
 70
0
  9
$PDSIZE
 40
0.0
  9
$PLINEWID
 40
0.0
  9
$SPLFRAME
 70
0
  9
$SPLINETYPE
 70
6
  9
$SPLINESEGS
 70
8
  9
$HANDSEED
  5
180
  9
$SURFTAB1
 70
6
  9
$SURFTAB2
 70
6
  9
$SURFTYPE
 70
6
  9
$SURFU
 70
6
  9
$SURFV
 70
6
  9
$UCSBASE
  2

  9
$UCSNAME
  2

  9
$UCSORG
 10
0.0
 20
0.0
 30
0.0
  9
$UCSXDIR
 10
1.0
 20
0.0
 30
0.0
  9
$UCSYDIR
 10
0.0
 20
1.0
 30
0.0
  9
$UCSORTHOREF
  2

  9
$UCSORTHOVIEW
 70
0
  9
$UCSORGTOP
 10
0.0
 20
0.0
 30
0.0
  9
$UCSORGBOTTOM
 10
0.0
 20
0.0
 30
0.0
  9
$UCSORGLEFT
 10
0.0
 20
0.0
 30
0.0
  9
$UCSORGRIGHT
 10
0.0
 20
0.0
 30
0.0
  9
$UCSORGFRONT
 10
0.0
 20
0.0
 30
0.0
  9
$UCSORGBACK
 10
0.0
 20
0.0
 30
0.0
  9
$PUCSBASE
  2

  9
$PUCSNAME
  2

  9
$PUCSORG
 10
0.0
 20
0.0
 30
0.0
  9
$PUCSXDIR
 10
1.0
 20
0.0
 30
0.0
  9
$PUCSYDIR
 10
0.0
 20
1.0
 30
0.0
  9
$PUCSORTHOREF
  2

  9
$PUCSORTHOVIEW
 70
0
  9
$PUCSORGTOP
 10
0.0
 20
0.0
 30
0.0
  9
$PUCSORGBOTTOM
 10
0.0
 20
0.0
 30
0.0
  9
$PUCSORGLEFT
 10
0.0
 20
0.0
 30
0.0
  9
$PUCSORGRIGHT
 10
0.0
 20
0.0
 30
0.0
  9
$PUCSORGFRONT
 10
0.0
 20
0.0
 30
0.0
  9
$PUCSORGBACK
 10
0.0
 20
0.0
 30
0.0
  9
$USERI1
 70
0
  9
$USERI2
 70
0
  9
$USERI3
 70
0
  9
$USERI4
 70
0
  9
$USERI5
 70
0
  9
$USERR1
 40
0.0
  9
$USERR2
 40
0.0
  9
$USERR3
 40
0.0
  9
$USERR4
 40
0.0
  9
$USERR5
 40
0.0
  9
$WORLDVIEW
 70
1
  9
$SHADEDGE
 70
3
  9
$SHADEDIF
 70
70
  9
$TILEMODE
 70
1
  9
$MAXACTVP
 70
64
  9
$PINSBASE
 10
0.0
 20
0.0
 30
0.0
  9
$PLIMCHECK
 70
0
  9
$PEXTMIN
 10
1e+20
 20
1e+20
 30
1e+20
  9
$PEXTMAX
 10
-1e+20
 20
-1e+20
 30
-1e+20
  9
$PLIMMIN
 10
0.0
 20
0.0
  9
$PLIMMAX
 10
420.0
 20
297.0
  9
$UNITMODE
 70
0
  9
$VISRETAIN
 70
1
  9
$PLINEGEN
 70
0
  9
$PSLTSCALE
 70
1
  9
$TREEDEPTH
 70
3020
  9
$CMLSTYLE
  2
Standard
  9
$CMLJUST
 70
0
  9
$CMLSCALE
 40
20.0
  9
$PROXYGRAPHICS
 70
1
  9
$MEASUREMENT
 70
0
  9
$CELWEIGHT
370
-1
  9
$ENDCAPS
280
0
  9
$JOINSTYLE
280
0
  9
$LWDISPLAY
290
0
  9
$INSUNITS
 70
0
  9
$HYPERLINKBASE
  1

  9
$STYLESHEET
  1

  9
$XEDIT
290
1
  9
$CEPSNTYPE
380
0
  9
$PSTYLEMODE
290
1
  9
$FINGERPRINTGUID
  2
{3E1F3E23-F0CA-46E6-9B9C-282F0D3B23DD}
  9
$VERSIONGUID
  2
{DE1739E2-F5B0-4833-9F46-D230308103C1}
  9
$EXTNAMES
290
1
  9
$PSVPSCALE
 40
0.0
  9
$OLESTARTUP
290
0
  9
$SORTENTS
280
127
  9
$INDEXCTL
280
0
  9
$HIDETEXT
280
1
  9
$XCLIPFRAME
280
1
  9
$HALOGAP
280
0
  9
$OBSCOLOR
 70
257
  9
$OBSLTYPE
280
0
  9
$INTERSECTIONDISPLAY
280
0
  9
$INTERSECTIONCOLOR
 70
257
  9
$DIMASSOC
280
2
  9
$PROJECTNAME
  1

  9
$CAMERADISPLAY
290
0
  9
$LENSLENGTH
 40
50.0
  9
$CAMERAHEIGHT
 40
0.0
  9
$STEPSPERSEC
 40
24.0
  9
$STEPSIZE
 40
100.0
  9
$3DDWFPREC
 40
2.0
  9
$PSOLWIDTH
 40
0.005
  9
$PSOLHEIGHT
 40
0.08
  9
$LOFTANG1
 40
1.570796326795
  9
$LOFTANG2
 40
1.570796326795
  9
$LOFTMAG1
 40
0.0
  9
$LOFTMAG2
 40
0.0
  9
$LOFTPARAM
 70
7
  9
$LOFTNORMALS
280
1
  9
$LATITUDE
 40
37.795
  9
$LONGITUDE
 40
-122.394
  9
$NORTHDIRECTION
 40
0.0
  9
$TIMEZONE
 70
-8000
  9
$LIGHTGLYPHDISPLAY
280
1
  9
$TILEMODELIGHTSYNCH
280
1
  9
$CMATERIAL
347
20
  9
$SOLIDHIST
280
0
  9
$SHOWHIST
280
1
  9
$DWFFRAME
280
2
  9
$DGNFRAME
280
2
  9
$REALWORLDSCALE
290
1
  9
$INTERFERECOLOR
 62
256
  9
$CSHADOW
280
0
  9
$SHADOWPLANELOCATION
 40
0.0
  0
ENDSEC
  0
SECTION
  2
CLASSES
  0
CLASS
  1
ACDBDICTIONARYWDFLT
  2
AcDbDictionaryWithDefault
  3
ObjectDBX Classes
 90
0
 91
0
280
0
281
0
  0
CLASS
  1
SUN
  2
AcDbSun
  3
SCENEOE
 90
1153
 91
0
280
0
281
0
  0
CLASS
  1
VISUALSTYLE
  2
AcDbVisualStyle
  3
ObjectDBX Classes
 90
4095
 91
0
280
0
281
0
  0
CLASS
  1
MATERIAL
  2
AcDbMaterial
  3
ObjectDBX Classes
 90
1153
 91
0
280
0
281
0
  0
CLASS
  1
SCALE
  2
AcDbScale
  3
ObjectDBX Classes
 90
1153
 91
0
280
0
281
0
  0
CLASS
  1
TABLESTYLE
  2
AcDbTableStyle
  3
ObjectDBX Classes
 90
4095
 91
0
280
0
281
0
  0
CLASS
  1
MLEADERSTYLE
  2
AcDbMLeaderStyle
  3
ACDB_MLEADERSTYLE_CLASS
 90
4095
 91
0
280
0
281
0
  0
CLASS
  1
DICTIONARYVAR
  2
AcDbDictionaryVar
  3
ObjectDBX Classes
 90
0
 91
0
280
0
281
0
  0
CLASS
  1
CELLSTYLEMAP
  2
AcDbCellStyleMap
  3
ObjectDBX Classes
 90
1152
 91
0
280
0
281
0
  0
CLASS
  1
MENTALRAYRENDERSETTINGS
  2
AcDbMentalRayRenderSettings
  3
SCENEOE
 90
1024
 91
0
280
0
281
0
  0
CLASS
  1
ACDBDETAILVIEWSTYLE
  2
AcDbDetailViewStyle
  3
ObjectDBX Classes
 90
1025
 91
0
280
0
281
0
  0
CLASS
  1
ACDBSECTIONVIEWSTYLE
  2
AcDbSectionViewStyle
  3
ObjectDBX Classes
 90
1025
 91
0
280
0
281
0
  0
CLASS
  1
RASTERVARIABLES
  2
AcDbRasterVariables
  3
ISM
 90
0
 91
0
280
0
281
0
  0
CLASS
  1
LAYOUT
  2
AcDbLayout
  3
ObjectDBX Classes
 90
0
 91
0
280
0
281
0
  0
CLASS
  1
ACDBPLACEHOLDER
  2
AcDbPlaceHolder
  3
ObjectDBX Classes
 90
0
 91
0
280
0
281
0
  0
ENDSEC
  0
SECTION
  2
TABLES
  0
TABLE
  2
VPORT
  5
8
330
0
100
AcDbSymbolTable
 70
1
  0
VPORT
  5
23
330
8
100
AcDbSymbolTableRecord
100
AcDbViewportTableRecord
  2
*Active
 70
0
 10
0.0
 20
0.0
 11
1.0
 21
1.0
 12
0.0
 22
0.0
 13
0.0
 23
0.0
 14
0.5
 24
0.5
 15
0.5
 25
0.5
 16
0.0
 26
0.0
 36
1.0
 17
0.0
 27
0.0
 37
0.0
 40
1000.0
 41
1.34
 42
50.0
 43
0.0
 44
0.0
 50
0.0
 51
0.0
 71
0
 72
1000
 73
1
 74
3
 75
0
 76
0
 77
0
 78
0
281
0
 65
0
146
0.0
  0
ENDTAB
  0
TABLE
  2
LTYPE
  5
2
330
0
100
AcDbSymbolTable
 70
21
  0
LTYPE
  5
24
330
2
100
AcDbSymbolTableRecord
100
AcDbLinetypeTableRecord
  2
ByBlock
 70
0
  3

 72
65
 73
0
 40
0.0
  0
LTYPE
  5
25
330
2
100
AcDbSymbolTableRecord
100
AcDbLinetypeTableRecord
  2
ByLayer
 70
0
  3

 72
65
 73
0
 40
0.0
  0
LTYPE
  5
26
330
2
100
AcDbSymbolTableRecord
100
AcDbLinetypeTableRecord
  2
Continuous
 70
0
  3

 72
65
 73
0
 40
0.0
  0
LTYPE
  5
2F
330
2
100
AcDbSymbolTableRecord
100
AcDbLinetypeTableRecord
  2
CENTER
 70
0
  3
Center ____ _ ____ _ ____ _ ____ _ ____ _ ____
 72
65
 73
4
 40
5.08
 49
3.175
 74
0
 49
-0.635
 74
0
 49
0.635
 74
0
 49
-0.635
 74
0
  0
LTYPE
  5
30
330
2
100
AcDbSymbolTableRecord
100
AcDbLinetypeTableRecord
  2
CENTERX2
 70
0
  3
Center (2x) ________  __  ________  __  ________
 72
65
 73
4
 40
8.89
 49
6.35
 74
0
 49
-0.635
 74
0
 49
1.27
 74
0
 49
-0.635
 74
0
  0
LTYPE
  5
31
330
2
100
AcDbSymbolTableRecord
100
AcDbLinetypeTableRecord
  2
CENTER2
 70
0
  3
Center (.5x) ____ _ ____ _ ____ _ ____ _ ____
 72
65
 73
4
 40
2.54
 49
1.587
 74
0
 49
-0.318
 74
0
 49
0.318
 74
0
 49
-0.318
 74
0
  0
LTYPE
  5
32
330
2
100
AcDbSymbolTableRecord
100
AcDbLinetypeTableRecord
  2
DASHED
 70
0
  3
Dashed __ __ __ __ __ __ __ __ __ __ __ __ __ _
 72
65
 73
2
 40
1.524
 49
1.27
 74
0
 49
-0.254
 74
0
  0
LTYPE
  5
33
330
2
100
AcDbSymbolTableRecord
100
AcDbLinetypeTableRecord
  2
DASHEDX2
 70
0
  3
Dashed (2x) ____  ____  ____  ____  ____  ____
 72
65
 73
2
 40
3.048
 49
2.54
 74
0
 49
-0.508
 74
0
  0
LTYPE
  5
34
330
2
100
AcDbSymbolTableRecord
100
AcDbLinetypeTableRecord
  2
DASHED2
 70
0
  3
Dashed (.5x) _ _ _ _ _ _ _ _ _ _ _ _ _ _
 72
65
 73
2
 40
0.762
 49
0.635
 74
0
 49
-0.127
 74
0
  0
LTYPE
  5
35
330
2
100
AcDbSymbolTableRecord
100
AcDbLinetypeTableRecord
  2
PHANTOM
 70
0
  3
Phantom ______  __  __  ______  __  __  ______
 72
65
 73
6
 40
6.35
 49
3.175
 74
0
 49
-0.635
 74
0
 49
0.635
 74
0
 49
-0.635
 74
0
 49
0.635
 74
0
 49
-0.635
 74
0
  0
LTYPE
  5
36
330
2
100
AcDbSymbolTableRecord
100
AcDbLinetypeTableRecord
  2
PHANTOMX2
 70
0
  3
Phantom (2x)____________    ____    ____    ____________
 72
65
 73
6
 40
10.795
 49
6.35
 74
0
 49
-0.635
 74
0
 49
1.27
 74
0
 49
-0.635
 74
0
 49
1.27
 74
0
 49
-0.635
 74
0
  0
LTYPE
  5
37
330
2
100
AcDbSymbolTableRecord
100
AcDbLinetypeTableRecord
  2
PHANTOM2
 70
0
  3
Phantom (.5x) ___ _ _ ___ _ _ ___ _ _ ___ _ _ ___
 72
65
 73
6
 40
3.175
 49
1.587
 74
0
 49
-0.318
 74
0
 49
0.318
 74
0
 49
-0.318
 74
0
 49
0.318
 74
0
 49
-0.318
 74
0
  0
LTYPE
  5
38
330
2
100
AcDbSymbolTableRecord
100
AcDbLinetypeTableRecord
  2
DASHDOT
 70
0
  3
Dash dot __ . __ . __ . __ . __ . __ . __ . __
 72
65
 73
4
 40
3.556
 49
2.54
 74
0
 49
-0.508
 74
0
 49
0.0
 74
0
 49
-0.508
 74
0
  0
LTYPE
  5
39
330
2
100
AcDbSymbolTableRecord
100
AcDbLinetypeTableRecord
  2
DASHDOTX2
 70
0
  3
Dash dot (2x) ____  .  ____  .  ____  .  ____
 72
65
 73
4
 40
6.096
 49
5.08
 74
0
 49
-0.508
 74
0
 49
0.0
 74
0
 49
-0.508
 74
0
  0
LTYPE
  5
3A
330
2
100
AcDbSymbolTableRecord
100
AcDbLinetypeTableRecord
  2
DASHDOT2
 70
0
  3
Dash dot (.5x) _ . _ . _ . _ . _ . _ . _ . _
 72
65
 73
4
 40
1.778
 49
1.27
 74
0
 49
-0.254
 74
0
 49
0.0
 74
0
 49
-0.254
 74
0
  0
LTYPE
  5
3B
330
2
100
AcDbSymbolTableRecord
100
AcDbLinetypeTableRecord
  2
DOT
 70
0
  3
Dot .  .  .  .  .  .  .  .  .  .  .  .  .  .  .  .
 72
65
 73
2
 40
0.508
 49
0.0
 74
0
 49
-0.508
 74
0
  0
LTYPE
  5
3C
330
2
100
AcDbSymbolTableRecord
100
AcDbLinetypeTableRecord
  2
DOTX2
 70
0
  3
Dot (2x) .    .    .    .    .    .    .    . 
 72
65
 73
2
 40
1.016
 49
0.0
 74
0
 49
-1.016
 74
0
  0
LTYPE
  5
3D
330
2
100
AcDbSymbolTableRecord
100
AcDbLinetypeTableRecord
  2
DOT2
 70
0
  3
Dot (.5) . . . . . . . . . . . . . . . . . . . 
 72
65
 73
2
 40
0.254
 49
0.0
 74
0
 49
-0.254
 74
0
  0
LTYPE
  5
3E
330
2
100
AcDbSymbolTableRecord
100
AcDbLinetypeTableRecord
  2
DIVIDE
 70
0
  3
Divide __ . . __ . . __ . . __ . . __ . . __
 72
65
 73
6
 40
4.064
 49
2.54
 74
0
 49
-0.508
 74
0
 49
0.0
 74
0
 49
-0.508
 74
0
 49
0.0
 74
0
 49
-0.508
 74
0
  0
LTYPE
  5
3F
330
2
100
AcDbSymbolTableRecord
100
AcDbLinetypeTableRecord
  2
DIVIDEX2
 70
0
  3
Divide (2x) ____  . .  ____  . .  ____  . .  ____
 72
65
 73
6
 40
6.604
 49
5.08
 74
0
 49
-0.508
 74
0
 49
0.0
 74
0
 49
-0.508
 74
0
 49
0.0
 74
0
 49
-0.508
 74
0
  0
LTYPE
  5
40
330
2
100
AcDbSymbolTableRecord
100
AcDbLinetypeTableRecord
  2
DIVIDE2
 70
0
  3
Divide(.5x) _ . _ . _ . _ . _ . _ . _ . _
 72
65
 73
6
 40
2.032
 49
1.27
 74
0
 49
-0.254
 74
0
 49
0.0
 74
0
 49
-0.254
 74
0
 49
0.0
 74
0
 49
-0.254
 74
0
  0
ENDTAB
  0
TABLE
  2
LAYER
  5
1
330
0
100
AcDbSymbolTable
 70
18
  0
LAYER
  5
27
330
1
100
AcDbSymbolTableRecord
100
AcDbLayerTableRecord
  2
0
 70
0
 62
7
  6
Continuous
370
-3
390
13
347
21
  0
LAYER
  5
28
330
1
100
AcDbSymbolTableRecord
100
AcDbLayerTableRecord
  2
Defpoints
 70
0
 62
7
  6
Continuous
290
0
370
-3
390
13
347
21
  0
LAYER
  5
8B
330
1
100
AcDbSymbolTableRecord
100
AcDbLayerTableRecord
  2
PLAT-LINE
 70
0
 62
7
  6
CONTINUOUS
370
-3
390
13
347
21
  0
LAYER
  5
8C
330
1
100
AcDbSymbolTableRecord
100
AcDbLayerTableRecord
  2
PLAT-LINE-DASH
 70
0
 62
8
  6
DASHED
370
-3
390
13
347
21
  0
LAYER
  5
8D
330
1
100
AcDbSymbolTableRecord
100
AcDbLayerTableRecord
  2
PLAT-CURVE
 70
0
 62
4
  6
CONTINUOUS
370
-3
390
13
347
21
  0
LAYER
  5
8E
330
1
100
AcDbSymbolTableRecord
100
AcDbLayerTableRecord
  2
PLAT-TEXT-BRG
 70
0
 62
3
  6
CONTINUOUS
370
-3
390
13
347
21
  0
LAYER
  5
8F
330
1
100
AcDbSymbolTableRecord
100
AcDbLayerTableRecord
  2
PLAT-TEXT-DIST
 70
0
 62
2
  6
CONTINUOUS
370
-3
390
13
347
21
  0
LAYER
  5
90
330
1
100
AcDbSymbolTableRecord
100
AcDbLayerTableRecord
  2
PLAT-TEXT-CURVE
 70
0
 62
6
  6
CONTINUOUS
370
-3
390
13
347
21
  0
LAYER
  5
91
330
1
100
AcDbSymbolTableRecord
100
AcDbLayerTableRecord
  2
PLAT-TEXT-LOTNO
 70
0
 62
5
  6
CONTINUOUS
370
-3
390
13
347
21
  0
LAYER
  5
92
330
1
100
AcDbSymbolTableRecord
100
AcDbLayerTableRecord
  2
PLAT-TEXT-AREA
 70
0
 62
5
  6
CONTINUOUS
370
-3
390
13
347
21
  0
LAYER
  5
93
330
1
100
AcDbSymbolTableRecord
100
AcDbLayerTableRecord
  2
PLAT-TEXT-MISC
 70
0
 62
9
  6
CONTINUOUS
370
-3
390
13
347
21
  0
LAYER
  5
94
330
1
100
AcDbSymbolTableRecord
100
AcDbLayerTableRecord
  2
PLAT-TEXT-UNASSOC
 70
0
 62
30
  6
CONTINUOUS
370
-3
390
13
347
21
  0
LAYER
  5
95
330
1
100
AcDbSymbolTableRecord
100
AcDbLayerTableRecord
  2
PLAT-TABLE-CURVE
 70
0
 62
6
  6
CONTINUOUS
370
-3
390
13
347
21
  0
LAYER
  5
96
330
1
100
AcDbSymbolTableRecord
100
AcDbLayerTableRecord
  2
PLAT-TABLE
 70
0
 62
6
  6
CONTINUOUS
370
-3
390
13
347
21
  0
LAYER
  5
97
330
1
100
AcDbSymbolTableRecord
100
AcDbLayerTableRecord
  2
PLAT-NOTES
 70
0
 62
7
  6
CONTINUOUS
370
-3
390
13
347
21
  0
LAYER
  5
98
330
1
100
AcDbSymbolTableRecord
100
AcDbLayerTableRecord
  2
PLAT-QA
 70
0
 62
1
  6
CONTINUOUS
370
-3
390
13
347
21
  0
LAYER
  5
99
330
1
100
AcDbSymbolTableRecord
100
AcDbLayerTableRecord
  2
PLAT-MON
 70
0
 62
1
  6
CONTINUOUS
370
-3
390
13
347
21
  0
LAYER
  5
9A
330
1
100
AcDbSymbolTableRecord
100
AcDbLayerTableRecord
  2
PLAT-TEXT-LOWCONF
 70
1
 62
8
  6
CONTINUOUS
370
-3
390
13
347
21
  0
ENDTAB
  0
TABLE
  2
STYLE
  5
5
330
0
100
AcDbSymbolTable
 70
27
  0
STYLE
  5
29
330
5
100
AcDbSymbolTableRecord
100
AcDbTextStyleTableRecord
  2
Standard
 70
0
 40
0.0
 41
1.0
 50
0.0
 71
0
 42
2.5
  3
txt
  4

  0
STYLE
  5
41
330
5
100
AcDbSymbolTableRecord
100
AcDbTextStyleTableRecord
  2
OpenSans-Light
 70
0
 40
0.0
 41
1.0
 50
0.0
 71
0
 42
2.5
  3
OpenSans-Light.ttf
  4

  0
STYLE
  5
42
330
5
100
AcDbSymbolTableRecord
100
AcDbTextStyleTableRecord
  2
OpenSans-Light-Italic
 70
0
 40
0.0
 41
1.0
 50
0.0
 71
0
 42
2.5
  3
OpenSans-LightItalic.ttf
  4

  0
STYLE
  5
43
330
5
100
AcDbSymbolTableRecord
100
AcDbTextStyleTableRecord
  2
OpenSans
 70
0
 40
0.0
 41
1.0
 50
0.0
 71
0
 42
2.5
  3
OpenSans-Regular.ttf
  4

  0
STYLE
  5
44
330
5
100
AcDbSymbolTableRecord
100
AcDbTextStyleTableRecord
  2
OpenSans-Italic
 70
0
 40
0.0
 41
1.0
 50
0.0
 71
0
 42
2.5
  3
OpenSans-Italic.ttf
  4

  0
STYLE
  5
45
330
5
100
AcDbSymbolTableRecord
100
AcDbTextStyleTableRecord
  2
OpenSans-SemiBold
 70
0
 40
0.0
 41
1.0
 50
0.0
 71
0
 42
2.5
  3
OpenSans-SemiBold.ttf
  4

  0
STYLE
  5
46
330
5
100
AcDbSymbolTableRecord
100
AcDbTextStyleTableRecord
  2
OpenSans-SemiBoldItalic
 70
0
 40
0.0
 41
1.0
 50
0.0
 71
0
 42
2.5
  3
OpenSans-SemiBoldItalic.ttf
  4

  0
STYLE
  5
47
330
5
100
AcDbSymbolTableRecord
100
AcDbTextStyleTableRecord
  2
OpenSans-Bold
 70
0
 40
0.0
 41
1.0
 50
0.0
 71
0
 42
2.5
  3
OpenSans-Bold.ttf
  4

  0
STYLE
  5
48
330
5
100
AcDbSymbolTableRecord
100
AcDbTextStyleTableRecord
  2
OpenSans-BoldItalic
 70
0
 40
0.0
 41
1.0
 50
0.0
 71
0
 42
2.5
  3
OpenSans-BoldItalic.ttf
  4

  0
STYLE
  5
49
330
5
100
AcDbSymbolTableRecord
100
AcDbTextStyleTableRecord
  2
OpenSans-ExtraBold
 70
0
 40
0.0
 41
1.0
 50
0.0
 71
0
 42
2.5
  3
OpenSans-ExtraBold.ttf
  4

  0
STYLE
  5
4A
330
5
100
AcDbSymbolTableRecord
100
AcDbTextStyleTableRecord
  2
OpenSans-ExtraBoldItalic
 70
0
 40
0.0
 41
1.0
 50
0.0
 71
0
 42
2.5
  3
OpenSans-ExtraBoldItalic.ttf
  4

  0
STYLE
  5
4B
330
5
100
AcDbSymbolTableRecord
100
AcDbTextStyleTableRecord
  2
OpenSansCondensed-Bold
 70
0
 40
0.0
 41
1.0
 50
0.0
 71
0
 42
2.5
  3
OpenSansCondensed-Bold.ttf
  4

  0
STYLE
  5
4C
330
5
100
AcDbSymbolTableRecord
100
AcDbTextStyleTableRecord
  2
OpenSansCondensed-Light
 70
0
 40
0.0
 41
1.0
 50
0.0
 71
0
 42
2.5
  3
OpenSansCondensed-Light.ttf
  4

  0
STYLE
  5
4D
330
5
100
AcDbSymbolTableRecord
100
AcDbTextStyleTableRecord
  2
OpenSansCondensed-Italic
 70
0
 40
0.0
 41
1.0
 50
0.0
 71
0
 42
2.5
  3
OpenSansCondensed-LightItalic.ttf
  4

  0
STYLE
  5
4E
330
5
100
AcDbSymbolTableRecord
100
AcDbTextStyleTableRecord
  2
LiberationSans
 70
0
 40
0.0
 41
1.0
 50
0.0
 71
0
 42
2.5
  3
LiberationSans-Regular.ttf
  4

  0
STYLE
  5
4F
330
5
100
AcDbSymbolTableRecord
100
AcDbTextStyleTableRecord
  2
LiberationSans-Bold
 70
0
 40
0.0
 41
1.0
 50
0.0
 71
0
 42
2.5
  3
LiberationSans-Bold.ttf
  4

  0
STYLE
  5
50
330
5
100
AcDbSymbolTableRecord
100
AcDbTextStyleTableRecord
  2
LiberationSans-BoldItalic
 70
0
 40
0.0
 41
1.0
 50
0.0
 71
0
 42
2.5
  3
LiberationSans-BoldItalic.ttf
  4

  0
STYLE
  5
51
330
5
100
AcDbSymbolTableRecord
100
AcDbTextStyleTableRecord
  2
LiberationSans-Italic
 70
0
 40
0.0
 41
1.0
 50
0.0
 71
0
 42
2.5
  3
LiberationSans-Italic.ttf
  4

  0
STYLE
  5
52
330
5
100
AcDbSymbolTableRecord
100
AcDbTextStyleTableRecord
  2
LiberationSerif
 70
0
 40
0.0
 41
1.0
 50
0.0
 71
0
 42
2.5
  3
LiberationSerif-Regular.ttf
  4

  0
STYLE
  5
53
330
5
100
AcDbSymbolTableRecord
100
AcDbTextStyleTableRecord
  2
LiberationSerif-Bold
 70
0
 40
0.0
 41
1.0
 50
0.0
 71
0
 42
2.5
  3
LiberationSerif-Bold.ttf
  4

  0
STYLE
  5
54
330
5
100
AcDbSymbolTableRecord
100
AcDbTextStyleTableRecord
  2
LiberationSerif-BoldItalic
 70
0
 40
0.0
 41
1.0
 50
0.0
 71
0
 42
2.5
  3
LiberationSerif-BoldItalic.ttf
  4

  0
STYLE
  5
55
330
5
100
AcDbSymbolTableRecord
100
AcDbTextStyleTableRecord
  2
LiberationSerif-Italic
 70
0
 40
0.0
 41
1.0
 50
0.0
 71
0
 42
2.5
  3
LiberationSerif-Italic.ttf
  4

  0
STYLE
  5
56
330
5
100
AcDbSymbolTableRecord
100
AcDbTextStyleTableRecord
  2
LiberationMono
 70
0
 40
0.0
 41
1.0
 50
0.0
 71
0
 42
2.5
  3
LiberationMono-Regular.ttf
  4

  0
STYLE
  5
57
330
5
100
AcDbSymbolTableRecord
100
AcDbTextStyleTableRecord
  2
LiberationMono-Bold
 70
0
 40
0.0
 41
1.0
 50
0.0
 71
0
 42
2.5
  3
LiberationMono-Bold.ttf
  4

  0
STYLE
  5
58
330
5
100
AcDbSymbolTableRecord
100
AcDbTextStyleTableRecord
  2
LiberationMono-BoldItalic
 70
0
 40
0.0
 41
1.0
 50
0.0
 71
0
 42
2.5
  3
LiberationMono-BoldItalic.ttf
  4

  0
STYLE
  5
59
330
5
100
AcDbSymbolTableRecord
100
AcDbTextStyleTableRecord
  2
LiberationMono-Italic
 70
0
 40
0.0
 41
1.0
 50
0.0
 71
0
 42
2.5
  3
LiberationMono-Italic.ttf
  4

  0
STYLE
  5
9B
330
5
100
AcDbSymbolTableRecord
100
AcDbTextStyleTableRecord
  2
PLAT
 70
0
 40
0.0
 41
1.0
 50
0.0
 71
0
 42
2.5
  3
arial.ttf
  4

  0
ENDTAB
  0
TABLE
  2
VIEW
  5
7
330
0
100
AcDbSymbolTable
 70
0
  0
ENDTAB
  0
TABLE
  2
UCS
  5
6
330
0
100
AcDbSymbolTable
 70
0
  0
ENDTAB
  0
TABLE
  2
APPID
  5
3
330
0
100
AcDbSymbolTable
 70
4
  0
APPID
  5
2A
330
3
100
AcDbSymbolTableRecord
100
AcDbRegAppTableRecord
  2
ACAD
 70
0
  0
APPID
  5
8A
330
3
100
AcDbSymbolTableRecord
100
AcDbRegAppTableRecord
  2
RASTER2DXF
 70
0
  0
APPID
  5
17D
330
3
100
AcDbSymbolTableRecord
100
AcDbRegAppTableRecord
  2
HATCHBACKGROUNDCOLOR
 70
0
  0
APPID
  5
17E
330
3
100
AcDbSymbolTableRecord
100
AcDbRegAppTableRecord
  2
EZDXF
 70
0
  0
ENDTAB
  0
TABLE
  2
DIMSTYLE
  5
4
330
0
100
AcDbSymbolTable
 70
12
100
AcDbDimStyleTable
  0
DIMSTYLE
105
2B
330
4
100
AcDbSymbolTableRecord
100
AcDbDimStyleTableRecord
  2
Standard
 70
0
 40
1.0
 41
2.5
 42
0.625
 43
3.75
 44
1.25
 45
0.0
 46
0.0
 47
0.0
 48
0.0
 49
2.5
140
2.5
141
2.5
142
0.0
143
0.03937007874
144
1.0
145
0.0
146
1.0
147
0.625
148
0.0
 69
0
 70
0
 71
0
 72
0
 73
0
 74
0
 75
0
 76
0
 77
1
 78
8
 79
3
170
0
171
3
172
1
173
0
174
0
175
0
176
0
177
0
178
0
179
2
271
2
272
2
273
2
274
3
275
0
276
0
277
2
278
44
279
0
280
0
281
0
282
0
283
0
284
8
285
0
286
0
288
0
289
3
290
0
371
-2
372
-2
  0
DIMSTYLE
105
73
330
4
100
AcDbSymbolTableRecord
100
AcDbDimStyleTableRecord
  2
EZDXF
 70
0
 40
1.0
 41
0.175
 42
0.125
 43
3.75
 44
0.375
 45
0.0
 46
0.0
 47
0.0
 48
0.0
 49
2.5
140
0.25
141
2.5
142
0.0
143
0.03937007874
144
100.0
145
0.0
146
0.5
147
0.1
148
0.0
 69
0
 70
0
 71
0
 72
0
 73
0
 74
0
 75
0
 76
0
 77
1
 78
12
 79
3
170
0
171
3
172
1
173
0
174
0
175
0
176
0
177
0
178
0
179
2
271
2
272
2
273
2
274
3
275
0
276
0
277
2
278
46
279
2
280
0
281
0
282
0
283
0
284
8
285
0
286
0
288
1
289
3
290
0
340
4C
342
74
371
-2
372
-2
  0
DIMSTYLE
105
7C
330
4
100
AcDbSymbolTableRecord
100
AcDbDimStyleTableRecord
  2
EZ_M_100_H25_CM
 70
0
 40
1.0
 41
0.25
 42
0.125
 43
3.75
 44
0.375
 45
0.0
 46
0.0
 47
0.0
 48
0.0
 49
2.5
140
0.25
141
2.5
142
0.125
143
0.03937007874
144
100.0
145
0.0
146
0.5
147
0.1
148
0.0
 69
0
 70
0
 71
0
 72
0
 73
0
 74
0
 75
0
 76
0
 77
1
 78
12
 79
3
170
0
171
3
172
1
173
0
174
0
175
0
176
0
177
0
178
0
179
2
271
2
272
2
273
2
274
3
275
0
276
0
277
2
278
46
279
2
280
0
281
0
282
0
283
0
284
8
285
0
286
0
288
1
289
3
290
0
340
4C
371
-2
372
-2
  0
DIMSTYLE
105
7D
330
4
100
AcDbSymbolTableRecord
100
AcDbDimStyleTableRecord
  2
EZ_M_50_H25_CM
 70
0
 40
1.0
 41
0.125
 42
0.0625
 43
3.75
 44
0.1875
 45
0.0
 46
0.0
 47
0.0
 48
0.0
 49
2.5
140
0.125
141
2.5
142
0.0625
143
0.03937007874
144
100.0
145
0.0
146
0.5
147
0.05
148
0.0
 69
0
 70
0
 71
0
 72
0
 73
0
 74
0
 75
0
 76
0
 77
1
 78
12
 79
3
170
0
171
3
172
1
173
0
174
0
175
0
176
0
177
0
178
0
179
2
271
2
272
2
273
2
274
3
275
0
276
0
277
2
278
46
279
2
280
0
281
0
282
0
283
0
284
8
285
0
286
0
288
1
289
3
290
0
340
4C
371
-2
372
-2
  0
DIMSTYLE
105
7E
330
4
100
AcDbSymbolTableRecord
100
AcDbDimStyleTableRecord
  2
EZ_M_25_H25_CM
 70
0
 40
1.0
 41
0.0625
 42
0.03125
 43
3.75
 44
0.09375
 45
0.0
 46
0.0
 47
0.0
 48
0.0
 49
2.5
140
0.0625
141
2.5
142
0.03125
143
0.03937007874
144
100.0
145
0.0
146
0.5
147
0.025
148
0.0
 69
0
 70
0
 71
0
 72
0
 73
0
 74
0
 75
0
 76
0
 77
1
 78
12
 79
3
170
0
171
3
172
1
173
0
174
0
175
0
176
0
177
0
178
0
179
2
271
2
272
2
273
2
274
3
275
0
276
0
277
2
278
46
279
2
280
0
281
0
282
0
283
0
284
8
285
0
286
0
288
1
289
3
290
0
340
4C
371
-2
372
-2
  0
DIMSTYLE
105
7F
330
4
100
AcDbSymbolTableRecord
100
AcDbDimStyleTableRecord
  2
EZ_M_20_H25_CM
 70
0
 40
1.0
 41
0.05
 42
0.025
 43
3.75
 44
0.07500000000000001
 45
0.0
 46
0.0
 47
0.0
 48
0.0
 49
2.5
140
0.05
141
2.5
142
0.025
143
0.03937007874
144
100.0
145
0.0
146
0.5
147
0.020000000000000004
148
0.0
 69
0
 70
0
 71
0
 72
0
 73
0
 74
0
 75
0
 76
0
 77
1
 78
12
 79
3
170
0
171
3
172
1
173
0
174
0
175
0
176
0
177
0
178
0
179
2
271
2
272
2
273
2
274
3
275
0
276
0
277
2
278
46
279
2
280
0
281
0
282
0
283
0
284
8
285
0
286
0
288
1
289
3
290
0
340
4C
371
-2
372
-2
  0
DIMSTYLE
105
80
330
4
100
AcDbSymbolTableRecord
100
AcDbDimStyleTableRecord
  2
EZ_M_10_H25_CM
 70
0
 40
1.0
 41
0.025
 42
0.0125
 43
3.75
 44
0.037500000000000006
 45
0.0
 46
0.0
 47
0.0
 48
0.0
 49
2.5
140
0.025
141
2.5
142
0.0125
143
0.03937007874
144
100.0
145
0.0
146
0.5
147
0.010000000000000002
148
0.0
 69
0
 70
0
 71
0
 72
0
 73
0
 74
0
 75
0
 76
0
 77
1
 78
12
 79
3
170
0
171
3
172
1
173
0
174
0
175
0
176
0
177
0
178
0
179
2
271
2
272
2
273
2
274
3
275
0
276
0
277
2
278
46
279
2
280
0
281
0
282
0
283
0
284
8
285
0
286
0
288
1
289
3
290
0
340
4C
371
-2
372
-2
  0
DIMSTYLE
105
81
330
4
100
AcDbSymbolTableRecord
100
AcDbDimStyleTableRecord
  2
EZ_M_5_H25_CM
 70
0
 40
1.0
 41
0.0125
 42
0.00625
 43
3.75
 44
0.018750000000000003
 45
0.0
 46
0.0
 47
0.0
 48
0.0
 49
2.5
140
0.0125
141
2.5
142
0.00625
143
0.03937007874
144
100.0
145
0.0
146
0.5
147
0.005000000000000001
148
0.0
 69
0
 70
0
 71
0
 72
0
 73
0
 74
0
 75
0
 76
0
 77
1
 78
12
 79
3
170
0
171
3
172
1
173
0
174
0
175
0
176
0
177
0
178
0
179
2
271
2
272
2
273
2
274
3
275
0
276
0
277
2
278
46
279
2
280
0
281
0
282
0
283
0
284
8
285
0
286
0
288
1
289
3
290
0
340
4C
371
-2
372
-2
  0
DIMSTYLE
105
82
330
4
100
AcDbSymbolTableRecord
100
AcDbDimStyleTableRecord
  2
EZ_M_1_H25_CM
 70
0
 40
1.0
 41
0.0025
 42
0.00125
 43
3.75
 44
0.00375
 45
0.0
 46
0.0
 47
0.0
 48
0.0
 49
2.5
140
0.0025
141
2.5
142
0.00125
143
0.03937007874
144
100.0
145
0.0
146
0.5
147
0.001
148
0.0
 69
0
 70
0
 71
0
 72
0
 73
0
 74
0
 75
0
 76
0
 77
1
 78
12
 79
3
170
0
171
3
172
1
173
0
174
0
175
0
176
0
177
0
178
0
179
2
271
2
272
2
273
2
274
3
275
0
276
0
277
2
278
46
279
2
280
0
281
0
282
0
283
0
284
8
285
0
286
0
288
1
289
3
290
0
340
4C
371
-2
372
-2
  0
DIMSTYLE
105
83
330
4
100
AcDbSymbolTableRecord
100
AcDbDimStyleTableRecord
  2
EZ_RADIUS
 70
0
 40
1.0
 41
0.25
 42
0.125
 43
3.75
 44
0.375
 45
0.0
 46
0.0
 47
0.0
 48
0.0
 49
2.5
140
0.25
141
0.0
142
0.0
143
0.03937007874
144
100.0
145
0.0
146
0.5
147
0.1
148
0.0
 69
0
 70
0
 71
0
 72
0
 73
0
 74
0
 75
0
 76
0
 77
1
 78
12
 79
3
170
0
171
3
172
0
173
0
174
0
175
0
176
0
177
0
178
0
179
2
271
2
272
2
273
2
274
3
275
0
276
0
277
2
278
46
279
1
280
0
281
0
282
0
283
0
284
8
285
0
286
0
288
1
289
3
290
0
340
4C
342
84
371
-2
372
-2
  0
DIMSTYLE
105
88
330
4
100
AcDbSymbolTableRecord
100
AcDbDimStyleTableRecord
  2
EZ_RADIUS_INSIDE
 70
0
 40
1.0
 41
0.25
 42
0.125
 43
3.75
 44
0.375
 45
0.0
 46
0.0
 47
0.0
 48
0.0
 49
2.5
140
0.25
141
0.0
142
0.0
143
0.03937007874
144
100.0
145
0.0
146
0.5
147
0.1
148
0.0
 69
0
 70
0
 71
0
 72
0
 73
0
 74
0
 75
0
 76
0
 77
0
 78
12
 79
3
170
0
171
3
172
0
173
0
174
1
175
0
176
0
177
0
178
0
179
2
271
2
272
2
273
2
274
3
275
0
276
0
277
2
278
46
279
0
280
0
281
0
282
0
283
0
284
8
285
0
286
0
288
1
289
0
290
0
340
4C
342
84
371
-2
372
-2
  0
DIMSTYLE
105
89
330
4
100
AcDbSymbolTableRecord
100
AcDbDimStyleTableRecord
  2
EZ_CURVED
 70
0
 40
1.0
 41
0.25
 42
0.125
 43
3.75
 44
0.375
 45
0.0
 46
0.0
 47
0.0
 48
0.0
 49
2.5
140
0.25
141
2.5
142
0.0
143
0.03937007874
144
100.0
145
0.0
146
0.5
147
0.1
148
0.0
 69
0
 70
0
 71
0
 72
0
 73
0
 74
0
 75
0
 76
0
 77
1
 78
12
 79
2
 90
2
170
0
171
3
172
1
173
0
174
0
175
0
176
0
177
0
178
0
179
2
271
2
272
2
273
2
274
3
275
0
276
0
277
2
278
46
279
2
280
0
281
0
282
0
283
0
284
8
285
0
286
0
288
1
289
3
290
0
340
4C
371
-2
372
-2
  0
ENDTAB
  0
TABLE
  2
BLOCK_RECORD
  5
9
330
0
100
AcDbSymbolTable
 70
5
  0
BLOCK_RECORD
  5
17
330
9
100
AcDbSymbolTableRecord
100
AcDbBlockTableRecord
  2
*Model_Space
340
1A
 70
0
280
1
281
0
  0
BLOCK_RECORD
  5
1B
330
9
100
AcDbSymbolTableRecord
100
AcDbBlockTableRecord
  2
*Paper_Space
340
1E
 70
0
280
1
281
0
  0
BLOCK_RECORD
  5
74
330
9
100
AcDbSymbolTableRecord
100
AcDbBlockTableRecord
  2
_ARCHTICK
340
0
 70
0
280
1
281
0
  0
BLOCK_RECORD
  5
78
330
9
100
AcDbSymbolTableRecord
100
AcDbBlockTableRecord
  2
_CLOSEDFILLED
340
0
 70
0
280
1
281
0
  0
BLOCK_RECORD
  5
84
330
9
100
AcDbSymbolTableRecord
100
AcDbBlockTableRecord
  2
_CLOSEDBLANK
340
0
 70
0
280
1
281
0
  0
ENDTAB
  0
ENDSEC
  0
SECTION
  2
BLOCKS
  0
BLOCK
  5
18
330
17
100
AcDbEntity
  8
0
100
AcDbBlockBegin
  2
*Model_Space
 70
0
 10
0.0
 20
0.0
 30
0.0
  3
*Model_Space
  1

  0
ENDBLK
  5
19
330
17
100
AcDbEntity
  8
0
100
AcDbBlockEnd
  0
BLOCK
  5
1C
330
1B
100
AcDbEntity
  8
0
100
AcDbBlockBegin
  2
*Paper_Space
 70
0
 10
0.0
 20
0.0
 30
0.0
  3
*Paper_Space
  1

  0
ENDBLK
  5
1D
330
1B
100
AcDbEntity
  8
0
100
AcDbBlockEnd
  0
BLOCK
  5
75
330
74
100
AcDbEntity
  8
0
100
AcDbBlockBegin
  2
_ARCHTICK
 70
0
 10
0.0
 20
0.0
 30
0.0
  3
_ARCHTICK
  1

  0
LWPOLYLINE
  5
77
330
74
100
AcDbEntity
  8
0
  6
BYBLOCK
 62
0
100
AcDbPolyline
 90
2
 70
0
 43
0.15
 10
-0.5
 20
-0.5
 10
0.5
 20
0.5
  0
ENDBLK
  5
76
330
74
100
AcDbEntity
  8
0
100
AcDbBlockEnd
  0
BLOCK
  5
79
330
78
100
AcDbEntity
  8
0
100
AcDbBlockBegin
  2
_CLOSEDFILLED
 70
0
 10
0.0
 20
0.0
 30
0.0
  3
_CLOSEDFILLED
  1

  0
SOLID
  5
7B
330
78
100
AcDbEntity
  8
0
  6
BYBLOCK
 62
0
100
AcDbTrace
 10
-1.0
 20
0.16439898372402537
 30
0.0
 11
0.0
 21
0.0
 31
0.0
 12
-1.0
 22
-0.16439898372402537
 32
0.0
 13
-1.0
 23
-0.16439898372402537
 33
0.0
  0
ENDBLK
  5
7A
330
78
100
AcDbEntity
  8
0
100
AcDbBlockEnd
  0
BLOCK
  5
85
330
84
100
AcDbEntity
  8
0
100
AcDbBlockBegin
  2
_CLOSEDBLANK
 70
0
 10
0.0
 20
0.0
 30
0.0
  3
_CLOSEDBLANK
  1

  0
LWPOLYLINE
  5
87
330
84
100
AcDbEntity
  8
0
  6
BYBLOCK
 62
0
100
AcDbPolyline
 90
3
 70
1
 10
-1.0
 20
0.16439898372402537
 10
0.0
 20
0.0
 10
-1.0
 20
-0.16439898372402537
  0
ENDBLK
  5
86
330
84
100
AcDbEntity
  8
0
100
AcDbBlockEnd
  0
ENDSEC
  0
SECTION
  2
ENTITIES
  0
LINE
  5
9C
330
17
100
AcDbEntity
  8
PLAT-LINE-DASH
100
AcDbLine
 10
289.68657316005937
 20
734.969551943667
 30
0.0
 11
289.9128259410273
 21
356.06080978598635
 31
0.0
1001
RASTER2DXF
1000
line 0
1040
378.909
1040
0.611
  0
LINE
  5
9D
330
17
100
AcDbEntity
  8
PLAT-LINE
100
AcDbLine
 10
285.04828751036905
 20
734.969531899342
 30
0.0
 11
285.019385131671
 21
8.033628459922966
 31
0.0
1001
RASTER2DXF
1000
line 1
1040
726.936
1040
0.877
  0
LINE
  5
9E
330
17
100
AcDbEntity
  8
PLAT-LINE
100
AcDbLine
 10
236.0411869891101
 20
734.9693201154361
 30
0.0
 11
281.9992338297546
 21
734.9695187228739
 31
0.0
1001
RASTER2DXF
1000
line 2
1040
45.958
1040
0.911
  0
LINE
  5
9F
330
17
100
AcDbEntity
  8
PLAT-LINE
100
AcDbLine
 10
281.9992338297546
 20
734.9695187228739
 30
0.0
 11
289.68657316005937
 21
734.969551943667
 31
0.0
1001
RASTER2DXF
1000
line 3
1040
7.687
1040
0.911
  0
LINE
  5
A0
330
17
100
AcDbEntity
  8
PLAT-LINE
100
AcDbLine
 10
289.68657316005937
 20
734.969551943667
 30
0.0
 11
330.9862842831565
 21
734.9697304201336
 31
0.0
1001
RASTER2DXF
1000
line 4
1040
41.3
1040
0.911
  0
LINE
  5
A1
330
17
100
AcDbEntity
  8
PLAT-LINE
100
AcDbLine
 10
330.9862842831565
 20
734.9697304201336
 30
0.0
 11
380.0440065877823
 21
734.9699424228013
 31
0.0
1001
RASTER2DXF
1000
line 5
1040
49.058
1040
0.911
  0
LINE
  5
A2
330
17
100
AcDbEntity
  8
PLAT-LINE
100
AcDbLine
 10
380.0440065877823
 20
734.9699424228013
 30
0.0
 11
428.99983312769814
 21
734.970153985127
 31
0.0
1001
RASTER2DXF
1000
line 6
1040
48.956
1040
0.911
  0
LINE
  5
A3
330
17
100
AcDbEntity
  8
PLAT-LINE
100
AcDbLine
 10
428.99983312769814
 20
734.970153985127
 30
0.0
 11
478.04167034648776
 21
734.9703659191474
 31
0.0
1001
RASTER2DXF
1000
line 7
1040
49.042
1040
0.911
  0
LINE
  5
A4
330
17
100
AcDbEntity
  8
PLAT-LINE
100
AcDbLine
 10
478.04167034648776
 20
734.9703659191474
 30
0.0
 11
527.2351553610733
 21
734.9705785085129
 31
0.0
1001
RASTER2DXF
1000
line 8
1040
49.193
1040
0.911
  0
LINE
  5
A5
330
17
100
AcDbEntity
  8
PLAT-LINE
100
AcDbLine
 10
527.2351553610733
 20
734.9705785085129
 30
0.0
 11
576.042615487219
 21
734.9707894296739
 31
0.0
1001
RASTER2DXF
1000
line 9
1040
48.807
1040
0.911
  0
LINE
  5
A6
330
17
100
AcDbEntity
  8
PLAT-LINE
100
AcDbLine
 10
576.042615487219
 20
734.9707894296739
 30
0.0
 11
580.0362844477314
 21
734.9708066882916
 31
0.0
1001
RASTER2DXF
1000
line 10
1040
3.994
1040
0.911
  0
LINE
  5
A7
330
17
100
AcDbEntity
  8
PLAT-LINE
100
AcDbLine
 10
580.0362844477314
 20
734.9708066882916
 30
0.0
 11
625.9642683081461
 21
734.9710051658125
 31
0.0
1001
RASTER2DXF
1000
line 11
1040
45.928
1040
0.911
  0
LINE
  5
A8
330
17
100
AcDbEntity
  8
PLAT-LINE
100
AcDbLine
 10
625.9642683081461
 20
734.9710051658125
 30
0.0
 11
674.1049557329019
 21
734.9712132055191
 31
0.0
1001
RASTER2DXF
1000
line 12
1040
48.141
1040
0.911
  0
LINE
  5
A9
330
17
100
AcDbEntity
  8
PLAT-LINE
100
AcDbLine
 10
674.1049557329019
 20
734.9712132055191
 30
0.0
 11
678.0362844607358
 21
734.9712301947338
 31
0.0
1001
RASTER2DXF
1000
line 13
1040
3.931
1040
0.911
  0
LINE
  5
AA
330
17
100
AcDbEntity
  8
PLAT-LINE
100
AcDbLine
 10
678.0362844607358
 20
734.9712301947338
 30
0.0
 11
723.9636392232767
 21
734.971428669536
 31
0.0
1001
RASTER2DXF
1000
line 14
1040
45.927
1040
0.911
  0
LINE
  5
AB
330
17
100
AcDbEntity
  8
PLAT-LINE
100
AcDbLine
 10
723.9636392232767
 20
734.971428669536
 30
0.0
 11
772.9684689146254
 21
734.9716404436285
 31
0.0
1001
RASTER2DXF
1000
line 15
1040
49.005
1040
0.911
  0
LINE
  5
AC
330
17
100
AcDbEntity
  8
PLAT-LINE
100
AcDbLine
 10
772.9684689146254
 20
734.9716404436285
 30
0.0
 11
821.9856020217183
 21
734.9718522708903
 31
0.0
1001
RASTER2DXF
1000
line 16
1040
49.017
1040
0.911
  0
LINE
  5
AD
330
17
100
AcDbEntity
  8
PLAT-LINE
100
AcDbLine
 10
330.9862842831565
 20
734.9697304201336
 30
0.0
 11
330.9635801563069
 21
8.031425618684693
 31
0.0
1001
RASTER2DXF
1000
line 17
1040
726.938
1040
0.911
  0
LINE
  5
AE
330
17
100
AcDbEntity
  8
PLAT-LINE
100
AcDbLine
 10
236.03997740059617
 20
695.0139963069347
 30
0.0
 11
821.9841051728321
 21
695.0157987224425
 31
0.0
1001
RASTER2DXF
1000
line 18
1040
585.944
1040
0.897
  0
LINE
  5
AF
330
17
100
AcDbEntity
  8
PLAT-LINE
100
AcDbLine
 10
334.0941626230426
 20
734.9697438508122
 30
0.0
 11
334.0577686788705
 21
8.031277264663572
 31
0.0
1001
RASTER2DXF
1000
line 19
1040
726.938
1040
0.886
  0
LINE
  5
B0
330
17
100
AcDbEntity
  8
PLAT-LINE
100
AcDbLine
 10
380.0440065877823
 20
734.9699424228013
 30
0.0
 11
380.0784802446511
 21
8.029070754761506
 31
0.0
1001
RASTER2DXF
1000
line 20
1040
726.941
1040
0.911
  0
LINE
  5
B1
330
17
100
AcDbEntity
  8
PLAT-LINE
100
AcDbLine
 10
432.09674059121954
 20
734.970167368395
 30
0.0
 11
432.0675551071272
 21
8.026578085600704
 31
0.0
1001
RASTER2DXF
1000
line 21
1040
726.944
1040
0.884
  0
LINE
  5
B2
330
17
100
AcDbEntity
  8
PLAT-LINE
100
AcDbLine
 10
478.0416703464877
 20
734.9703659191474
 30
0.0
 11
478.13581289001854
 21
8.024369296046984
 31
0.0
1001
RASTER2DXF
1000
line 22
1040
726.946
1040
0.911
  0
LINE
  5
B3
330
17
100
AcDbEntity
  8
PLAT-LINE
100
AcDbLine
 10
383.0827878097241
 20
734.9699555548771
 30
0.0
 11
383.0507738312491
 21
8.0289282451173
 31
0.0
1001
RASTER2DXF
1000
line 23
1040
726.941
1040
0.869
  0
LINE
  5
B4
330
17
100
AcDbEntity
  8
PLAT-LINE
100
AcDbLine
 10
428.9998331276981
 20
734.970153985127
 30
0.0
 11
428.96772884113864
 21
8.026726709929108
 31
0.0
1001
RASTER2DXF
1000
line 24
1040
726.943
1040
0.911
  0
LINE
  5
B5
330
17
100
AcDbEntity
  8
PLAT-LINE-DASH
100
AcDbLine
 10
236.03958228758444
 20
681.9625592748797
 30
0.0
 11
780.2174146108039
 21
681.9352078960909
 31
0.0
1001
RASTER2DXF
1000
line 25
1040
544.178
1040
0.396
  0
LINE
  5
B6
330
17
100
AcDbEntity
  8
PLAT-LINE
100
AcDbLine
 10
236.03988520565963
 20
691.9685982243265
 30
0.0
 11
821.9839911126162
 21
691.9711386183931
 31
0.0
1001
RASTER2DXF
1000
line 26
1040
585.944
1040
0.889
  0
LINE
  5
B7
330
17
100
AcDbEntity
  8
PLAT-LINE
100
AcDbLine
 10
236.0386755600572
 20
652.0113886573192
 30
0.0
 11
821.9824942517084
 21
652.0147641693526
 31
0.0
1001
RASTER2DXF
1000
line 27
1040
585.944
1040
0.894
  0
LINE
  5
B8
330
17
100
AcDbEntity
  8
PLAT-LINE-DASH
100
AcDbLine
 10
535.0422562109397
 20
724.9596894425672
 30
0.0
 11
535.0681037454442
 21
596.0955084703997
 31
0.0
1001
RASTER2DXF
1000
line 28
1040
128.864
1040
0.62
  0
LINE
  5
B9
330
17
100
AcDbEntity
  8
PLAT-LINE-DASH
100
AcDbLine
 10
535.0681037454442
 20
596.0955084703997
 30
0.0
 11
535.1162520278447
 21
356.04982923315146
 31
0.0
1001
RASTER2DXF
1000
line 29
1040
240.046
1040
0.62
  0
LINE
  5
BA
330
17
100
AcDbEntity
  8
PLAT-LINE
100
AcDbLine
 10
576.0426154872189
 20
734.9707894296739
 30
0.0
 11
576.0088088271564
 21
338.87512192724154
 31
0.0
1001
RASTER2DXF
1000
line 30
1040
396.096
1040
0.911
  0
LINE
  5
BB
330
17
100
AcDbEntity
  8
PLAT-LINE
100
AcDbLine
 10
576.0088088271564
 20
338.87512192724154
 30
0.0
 11
575.980570402858
 21
8.019678029463762
 31
0.0
1001
RASTER2DXF
1000
line 31
1040
330.855
1040
0.911
  0
LINE
  5
BC
330
17
100
AcDbEntity
  8
PLAT-LINE-DASH
100
AcDbLine
 10
584.094288633009
 20
724.9533338852913
 30
0.0
 11
584.0318593814271
 21
437.0193718225465
 31
0.0
1001
RASTER2DXF
1000
line 32
1040
287.934
1040
0.594
  0
LINE
  5
BD
330
17
100
AcDbEntity
  8
PLAT-LINE
100
AcDbLine
 10
236.03858323439505
 20
648.9616724237592
 30
0.0
 11
821.9823804044731
 21
648.9757892519192
 31
0.0
1001
RASTER2DXF
1000
line 33
1040
585.944
1040
0.908
  0
LINE
  5
BE
330
17
100
AcDbEntity
  8
PLAT-LINE
100
AcDbLine
 10
236.03737360346292
 20
609.0049474513858
 30
0.0
 11
821.9808835124497
 21
609.0185842207488
 31
0.0
1001
RASTER2DXF
1000
line 34
1040
585.944
1040
0.827
  0
LINE
  5
BF
330
17
100
AcDbEntity
  8
PLAT-LINE
100
AcDbLine
 10
236.0411869891101
 20
734.9693201154361
 30
0.0
 11
236.03997740059617
 21
695.0139963069347
 31
0.0
1001
RASTER2DXF
1000
line 35
1040
39.955
1040
0.891
  0
LINE
  5
C0
330
17
100
AcDbEntity
  8
PLAT-LINE
100
AcDbLine
 10
236.03997740059617
 20
695.0139963069347
 30
0.0
 11
236.03958228758444
 21
681.9625592748797
 31
0.0
1001
RASTER2DXF
1000
line 36
1040
13.051
1040
0.891
  0
LINE
  5
C1
330
17
100
AcDbEntity
  8
PLAT-LINE
100
AcDbLine
 10
236.03958228758444
 20
681.9625592748797
 30
0.0
 11
236.0386755600572
 21
652.0113886573192
 31
0.0
1001
RASTER2DXF
1000
line 37
1040
29.951
1040
0.891
  0
LINE
  5
C2
330
17
100
AcDbEntity
  8
PLAT-LINE
100
AcDbLine
 10
236.0386755600572
 20
652.0113886573192
 30
0.0
 11
236.03737360346292
 21
609.0049474513858
 31
0.0
1001
RASTER2DXF
1000
line 38
1040
43.006
1040
0.891
  0
LINE
  5
C3
330
17
100
AcDbEntity
  8
PLAT-LINE
100
AcDbLine
 10
236.03737360346292
 20
609.0049474513858
 30
0.0
 11
236.03698120296474
 21
596.0431106060137
 31
0.0
1001
RASTER2DXF
1000
line 39
1040
12.962
1040
0.891
  0
LINE
  5
C4
330
17
100
AcDbEntity
  8
PLAT-LINE
100
AcDbLine
 10
236.03698120296474
 20
596.0431106060137
 30
0.0
 11
236.0360727850109
 21
566.0361015430191
 31
0.0
1001
RASTER2DXF
1000
line 40
1040
30.007
1040
0.891
  0
LINE
  5
C5
330
17
100
AcDbEntity
  8
PLAT-LINE
100
AcDbLine
 10
236.0360727850109
 20
566.0361015430191
 30
0.0
 11
236.0347710221593
 21
523.0360600751001
 31
0.0
1001
RASTER2DXF
1000
line 41
1040
43.0
1040
0.891
  0
LINE
  5
C6
330
17
100
AcDbEntity
  8
PLAT-LINE
100
AcDbLine
 10
236.0347710221593
 20
523.0360600751001
 30
0.0
 11
236.03440521833238
 21
510.95276878460567
 31
0.0
1001
RASTER2DXF
1000
line 42
1040
12.083
1040
0.891
  0
LINE
  5
C7
330
17
100
AcDbEntity
  8
PLAT-LINE
100
AcDbLine
 10
236.03440521833238
 20
510.95276878460567
 30
0.0
 11
236.03346926555503
 21
480.0362249691425
 31
0.0
1001
RASTER2DXF
1000
line 43
1040
30.917
1040
0.891
  0
LINE
  5
C8
330
17
100
AcDbEntity
  8
PLAT-LINE
100
AcDbLine
 10
236.03346926555503
 20
480.0362249691425
 30
0.0
 11
236.03216751092765
 21
437.03645516648976
 31
0.0
1001
RASTER2DXF
1000
line 44
1040
43.0
1040
0.891
  0
LINE
  5
C9
330
17
100
AcDbEntity
  8
PLAT-LINE
100
AcDbLine
 10
236.03216751092765
 20
437.03645516648976
 30
0.0
 11
236.03086574933332
 21
394.03645523039336
 31
0.0
1001
RASTER2DXF
1000
line 45
1040
43.0
1040
0.891
  0
LINE
  5
CA
330
17
100
AcDbEntity
  8
PLAT-LINE
100
AcDbLine
 10
236.03086574933332
 20
394.03645523039336
 30
0.0
 11
236.0304999300073
 21
381.95265196865694
 31
0.0
1001
RASTER2DXF
1000
line 46
1040
12.084
1040
0.891
  0
LINE
  5
CB
330
17
100
AcDbEntity
  8
PLAT-LINE
100
AcDbLine
 10
236.0304999300073
 20
381.95265196865694
 30
0.0
 11
236.0297161657117
 21
356.0632227471069
 31
0.0
1001
RASTER2DXF
1000
line 47
1040
25.889
1040
0.891
  0
LINE
  5
CC
330
17
100
AcDbEntity
  8
PLAT-LINE
100
AcDbLine
 10
236.0297161657117
 20
356.0632227471069
 30
0.0
 11
236.02956398846595
 21
351.03647930592166
 31
0.0
1001
RASTER2DXF
1000
line 48
1040
5.027
1040
0.891
  0
LINE
  5
CD
330
17
100
AcDbEntity
  8
PLAT-LINE
100
AcDbLine
 10
236.02956398846595
 20
351.03647930592166
 30
0.0
 11
236.02919869408697
 21
338.97001618099387
 31
0.0
1001
RASTER2DXF
1000
line 49
1040
12.066
1040
0.891
  0
LINE
  5
CE
330
17
100
AcDbEntity
  8
PLAT-LINE
100
AcDbLine
 10
236.02919869408697
 20
338.97001618099387
 30
0.0
 11
236.02829247940963
 21
309.0357861062094
 31
0.0
1001
RASTER2DXF
1000
line 50
1040
29.934
1040
0.891
  0
LINE
  5
CF
330
17
100
AcDbEntity
  8
PLAT-LINE
100
AcDbLine
 10
236.02829247940963
 20
309.0357861062094
 30
0.0
 11
236.02817006339785
 21
304.99212056792487
 31
0.0
1001
RASTER2DXF
1000
line 51
1040
4.044
1040
0.891
  0
LINE
  5
D0
330
17
100
AcDbEntity
  8
PLAT-LINE
100
AcDbLine
 10
236.02817006339785
 20
304.99212056792487
 30
0.0
 11
236.0269907178153
 21
266.0357861682433
 31
0.0
1001
RASTER2DXF
1000
line 52
1040
38.956
1040
0.891
  0
LINE
  5
D1
330
17
100
AcDbEntity
  8
PLAT-LINE
100
AcDbLine
 10
236.0269907178153
 20
266.0357861682433
 30
0.0
 11
236.02568895800283
 21
223.03584508965287
 31
0.0
1001
RASTER2DXF
1000
line 53
1040
43.0
1040
0.891
  0
LINE
  5
D2
330
17
100
AcDbEntity
  8
PLAT-LINE
100
AcDbLine
 10
236.02568895800283
 20
223.03584508965287
 30
0.0
 11
236.02438720268026
 21
180.03605232292466
 31
0.0
1001
RASTER2DXF
1000
line 54
1040
43.0
1040
0.891
  0
LINE
  5
D3
330
17
100
AcDbEntity
  8
PLAT-LINE
100
AcDbLine
 10
236.02438720268026
 20
180.03605232292466
 30
0.0
 11
236.02308544097673
 21
137.03604877879286
 31
0.0
1001
RASTER2DXF
1000
line 55
1040
43.0
1040
0.891
  0
LINE
  5
D4
330
17
100
AcDbEntity
  8
PLAT-LINE
100
AcDbLine
 10
236.02308544097673
 20
137.03604877879286
 30
0.0
 11
236.02178367659837
 21
94.03595687808411
 31
0.0
1001
RASTER2DXF
1000
line 56
1040
43.0
1040
0.891
  0
LINE
  5
D5
330
17
100
AcDbEntity
  8
PLAT-LINE
100
AcDbLine
 10
236.02178367659837
 20
94.03595687808411
 30
0.0
 11
236.02048191849633
 21
51.036072297479905
 31
0.0
1001
RASTER2DXF
1000
line 57
1040
43.0
1040
0.891
  0
LINE
  5
D6
330
17
100
AcDbEntity
  8
PLAT-LINE
100
AcDbLine
 10
236.02048191849633
 20
51.036072297479905
 30
0.0
 11
236.01918015404004
 21
8.035977824672273
 31
0.0
1001
RASTER2DXF
1000
line 58
1040
43.0
1040
0.891
  0
LINE
  5
D7
330
17
100
AcDbEntity
  8
PLAT-LINE
100
AcDbLine
 10
281.9992338297546
 20
734.9695187228739
 30
0.0
 11
281.96538125958415
 21
8.03377488725016
 31
0.0
1001
RASTER2DXF
1000
line 59
1040
726.936
1040
0.911
  0
LINE
  5
D8
330
17
100
AcDbEntity
  8
PLAT-LINE-DASH
100
AcDbLine
 10
576.0088088271564
 20
338.87512192724154
 30
0.0
 11
236.02919869408697
 21
338.97001618099387
 31
0.0
1001
RASTER2DXF
1000
line 60
1040
339.98
1040
0.395
  0
LINE
  5
D9
330
17
100
AcDbEntity
  8
PLAT-LINE-DASH
100
AcDbLine
 10
482.02332769573917
 20
313.01836475139686
 30
0.0
 11
682.2030758533097
 21
313.04048947999325
 31
0.0
1001
RASTER2DXF
1000
line 61
1040
200.18
1040
0.428
  0
LINE
  5
DA
330
17
100
AcDbEntity
  8
PLAT-LINE-DASH
100
AcDbLine
 10
682.2030758533097
 20
313.04048947999325
 30
0.0
 11
731.091335605404
 21
313.045892821183
 31
0.0
1001
RASTER2DXF
1000
line 62
1040
48.888
1040
0.428
1000
distance=14
  0
LINE
  5
DB
330
17
100
AcDbEntity
  8
PLAT-LINE-DASH
100
AcDbLine
 10
731.091335605404
 20
313.045892821183
 30
0.0
 11
780.3269796584475
 21
313.05133455678293
 31
0.0
1001
RASTER2DXF
1000
line 63
1040
49.236
1040
0.428
  0
LINE
  5
DC
330
17
100
AcDbEntity
  8
PLAT-LINE
100
AcDbLine
 10
527.2351553610733
 20
734.9705785085129
 30
0.0
 11
527.2099956536506
 21
8.022016384357585
 31
0.0
1001
RASTER2DXF
1000
line 64
1040
726.949
1040
0.911
  0
LINE
  5
DD
330
17
100
AcDbEntity
  8
PLAT-LINE
100
AcDbLine
 10
482.0359772506048
 20
724.9665573423316
 30
0.0
 11
482.02332769573917
 21
313.01836475139686
 31
0.0
1001
RASTER2DXF
1000
line 65
1040
411.948
1040
0.908
  0
LINE
  5
DE
330
17
100
AcDbEntity
  8
PLAT-LINE
100
AcDbLine
 10
482.02332769573917
 20
313.01836475139686
 30
0.0
 11
482.0139623417926
 21
8.024183354220554
 31
0.0
1001
RASTER2DXF
1000
line 66
1040
304.994
1040
0.908
  0
LINE
  5
DF
330
17
100
AcDbEntity
  8
PLAT-LINE
100
AcDbLine
 10
625.9642683081461
 20
734.9710051658125
 30
0.0
 11
625.9531417064126
 21
8.017282043620412
 31
0.0
1001
RASTER2DXF
1000
line 67
1040
726.954
1040
0.91
  0
LINE
  5
E0
330
17
100
AcDbEntity
  8
PLAT-LINE
100
AcDbLine
 10
580.0362844477313
 20
734.9708066882916
 30
0.0
 11
580.0139621975109
 21
8.019484644384875
 31
0.0
1001
RASTER2DXF
1000
line 68
1040
726.951
1040
0.908
  0
LINE
  5
E1
330
17
100
AcDbEntity
  8
PLAT-LINE
100
AcDbLine
 10
674.1049557329018
 20
734.9712132055191
 30
0.0
 11
674.1130792722951
 21
8.01497296634841
 31
0.0
1001
RASTER2DXF
1000
line 69
1040
726.956
1040
0.911
  0
LINE
  5
E2
330
17
100
AcDbEntity
  8
PLAT-LINE
100
AcDbLine
 10
628.2957165749951
 20
734.9710152411528
 30
0.0
 11
628.3353401420243
 21
8.017167826689388
 31
0.0
1001
RASTER2DXF
1000
line 70
1040
726.954
1040
0.881
  0
LINE
  5
E3
330
17
100
AcDbEntity
  8
PLAT-LINE
100
AcDbLine
 10
723.9636392232766
 20
734.971428669536
 30
0.0
 11
723.9685003262073
 21
8.012582597393362
 31
0.0
1001
RASTER2DXF
1000
line 71
1040
726.959
1040
0.911
  0
LINE
  5
E4
330
17
100
AcDbEntity
  8
PLAT-LINE
100
AcDbLine
 10
678.0362844607357
 20
734.9712301947338
 30
0.0
 11
678.0139620532292
 21
8.014785934549423
 31
0.0
1001
RASTER2DXF
1000
line 72
1040
726.956
1040
0.908
  0
LINE
  5
E5
330
17
100
AcDbEntity
  8
PLAT-LINE
100
AcDbLine
 10
772.9684689146253
 20
734.9716404436285
 30
0.0
 11
772.9518961091292
 21
8.010234038578119
 31
0.0
1001
RASTER2DXF
1000
line 73
1040
726.961
1040
0.91
  0
LINE
  5
E6
330
17
100
AcDbEntity
  8
PLAT-LINE
100
AcDbLine
 10
727.0369001780222
 20
734.9714419506157
 30
0.0
 11
727.0137592506553
 21
8.01243658935175
 31
0.0
1001
RASTER2DXF
1000
line 74
1040
726.959
1040
0.904
  0
LINE
  5
E7
330
17
100
AcDbEntity
  8
PLAT-LINE
100
AcDbLine
 10
821.9856020217183
 20
734.9718522708903
 30
0.0
 11
821.984105172832
 21
695.0157987224425
 31
0.0
1001
RASTER2DXF
1000
line 75
1040
39.956
1040
0.911
  0
LINE
  5
E8
330
17
100
AcDbEntity
  8
PLAT-LINE
100
AcDbLine
 10
821.984105172832
 20
695.0157987224425
 30
0.0
 11
821.9824942517083
 21
652.0147641693526
 31
0.0
1001
RASTER2DXF
1000
line 76
1040
43.001
1040
0.911
  0
LINE
  5
E9
330
17
100
AcDbEntity
  8
PLAT-LINE
100
AcDbLine
 10
821.9824942517083
 20
652.0147641693526
 30
0.0
 11
821.9808835124496
 21
609.0185842207488
 31
0.0
1001
RASTER2DXF
1000
line 77
1040
42.996
1040
0.911
  0
LINE
  5
EA
330
17
100
AcDbEntity
  8
PLAT-LINE
100
AcDbLine
 10
821.9808835124496
 20
609.0185842207488
 30
0.0
 11
821.979272226493
 21
566.0078110183816
 31
0.0
1001
RASTER2DXF
1000
line 78
1040
43.011
1040
0.911
  0
LINE
  5
EB
330
17
100
AcDbEntity
  8
PLAT-LINE
100
AcDbLine
 10
821.979272226493
 20
566.0078110183816
 30
0.0
 11
821.9776613419768
 21
523.0077536461652
 31
0.0
1001
RASTER2DXF
1000
line 79
1040
43.0
1040
0.911
  0
LINE
  5
EC
330
17
100
AcDbEntity
  8
PLAT-LINE
100
AcDbLine
 10
821.9776613419768
 20
523.0077536461652
 30
0.0
 11
821.976050458129
 21
480.0077141128765
 31
0.0
1001
RASTER2DXF
1000
line 80
1040
43.0
1040
0.911
  0
LINE
  5
ED
330
17
100
AcDbEntity
  8
PLAT-LINE
100
AcDbLine
 10
821.976050458129
 20
480.0077141128765
 30
0.0
 11
821.9744395749036
 21
437.00769119457135
 31
0.0
1001
RASTER2DXF
1000
line 81
1040
43.0
1040
0.911
  0
LINE
  5
EE
330
17
100
AcDbEntity
  8
PLAT-LINE
100
AcDbLine
 10
821.9744395749036
 20
437.00769119457135
 30
0.0
 11
821.9728286925397
 21
394.00769127364964
 31
0.0
1001
RASTER2DXF
1000
line 82
1040
43.0
1040
0.911
  0
LINE
  5
EF
330
17
100
AcDbEntity
  8
PLAT-LINE
100
AcDbLine
 10
821.9728286925397
 20
394.00769127364964
 30
0.0
 11
821.9712178123312
 21
351.00774888857126
 31
0.0
1001
RASTER2DXF
1000
line 83
1040
43.0
1040
0.911
  0
LINE
  5
F0
330
17
100
AcDbEntity
  8
PLAT-LINE
100
AcDbLine
 10
821.9712178123312
 20
351.00774888857126
 30
0.0
 11
821.9696443966487
 21
309.00786376965647
 31
0.0
1001
RASTER2DXF
1000
line 84
1040
42.0
1040
0.911
  0
LINE
  5
F1
330
17
100
AcDbEntity
  8
PLAT-LINE
100
AcDbLine
 10
821.9696443966487
 20
309.00786376965647
 30
0.0
 11
821.9694929094959
 21
304.9641497752871
 31
0.0
1001
RASTER2DXF
1000
line 85
1040
4.044
1040
0.911
  0
LINE
  5
F2
330
17
100
AcDbEntity
  8
PLAT-LINE
100
AcDbLine
 10
821.9694929094959
 20
304.9641497752871
 30
0.0
 11
821.9680335142848
 21
266.00786384642106
 31
0.0
1001
RASTER2DXF
1000
line 86
1040
38.956
1040
0.911
  0
LINE
  5
F3
330
17
100
AcDbEntity
  8
PLAT-LINE
100
AcDbLine
 10
821.9680335142848
 20
266.00786384642106
 30
0.0
 11
821.9664226333417
 21
223.0079018524849
 31
0.0
1001
RASTER2DXF
1000
line 87
1040
43.0
1040
0.911
  0
LINE
  5
F4
330
17
100
AcDbEntity
  8
PLAT-LINE
100
AcDbLine
 10
821.9664226333417
 20
223.0079018524849
 30
0.0
 11
821.9648117461122
 21
180.00777205181612
 31
0.0
1001
RASTER2DXF
1000
line 88
1040
43.0
1040
0.911
  0
LINE
  5
F5
330
17
100
AcDbEntity
  8
PLAT-LINE
100
AcDbLine
 10
821.9648117461122
 20
180.00777205181612
 30
0.0
 11
821.9632008662402
 21
137.00783864562834
 31
0.0
1001
RASTER2DXF
1000
line 89
1040
43.0
1040
0.911
  0
LINE
  5
F6
330
17
100
AcDbEntity
  8
PLAT-LINE
100
AcDbLine
 10
821.9632008662402
 20
137.00783864562834
 30
0.0
 11
821.961589986335
 21
94.0079043572631
 31
0.0
1001
RASTER2DXF
1000
line 90
1040
43.0
1040
0.911
  0
LINE
  5
F7
330
17
100
AcDbEntity
  8
PLAT-LINE
100
AcDbLine
 10
821.961589986335
 20
94.0079043572631
 30
0.0
 11
821.9599791036651
 21
51.00789626759001
 31
0.0
1001
RASTER2DXF
1000
line 91
1040
43.0
1040
0.911
  0
LINE
  5
F8
330
17
100
AcDbEntity
  8
PLAT-LINE
100
AcDbLine
 10
821.9599791036651
 20
51.00789626759001
 30
0.0
 11
821.9583682208527
 21
8.007884373344837
 31
0.0
1001
RASTER2DXF
1000
line 92
1040
43.0
1040
0.911
  0
LINE
  5
F9
330
17
100
AcDbEntity
  8
PLAT-LINE
100
AcDbLine
 10
776.0367054110287
 20
734.9716537029951
 30
0.0
 11
776.013843211675
 21
8.010087230404793
 31
0.0
1001
RASTER2DXF
1000
line 93
1040
726.962
1040
0.904
  0
LINE
  5
FA
330
17
100
AcDbEntity
  8
PLAT-LINE-DASH
100
AcDbLine
 10
482.0359772506048
 20
724.9665573423316
 30
0.0
 11
535.0422562109397
 21
724.9596894425672
 31
0.0
1001
RASTER2DXF
1000
line 94
1040
53.006
1040
0.393
  0
LINE
  5
FB
330
17
100
AcDbEntity
  8
PLAT-LINE-DASH
100
AcDbLine
 10
535.0422562109397
 20
724.9596894425672
 30
0.0
 11
584.094288633009
 21
724.9533338852913
 31
0.0
1001
RASTER2DXF
1000
line 95
1040
49.052
1040
0.393
  0
LINE
  5
FC
330
17
100
AcDbEntity
  8
PLAT-LINE-DASH
100
AcDbLine
 10
584.094288633009
 20
724.9533338852913
 30
0.0
 11
633.0486279837182
 21
724.9469909858784
 31
0.0
1001
RASTER2DXF
1000
line 96
1040
48.954
1040
0.393
  0
LINE
  5
FD
330
17
100
AcDbEntity
  8
PLAT-LINE-DASH
100
AcDbLine
 10
633.0486279837182
 20
724.9469909858784
 30
0.0
 11
731.0740998602694
 21
724.9342900544337
 31
0.0
1001
RASTER2DXF
1000
line 97
1040
98.025
1040
0.393
  0
LINE
  5
FE
330
17
100
AcDbEntity
  8
PLAT-LINE-DASH
100
AcDbLine
 10
731.0740998602694
 20
724.9342900544337
 30
0.0
 11
780.2046450121192
 21
724.9279243244467
 31
0.0
1001
RASTER2DXF
1000
line 98
1040
49.131
1040
0.393
1000
distance=11]
  0
LINE
  5
FF
330
17
100
AcDbEntity
  8
PLAT-LINE-DASH
100
AcDbLine
 10
633.0486279837182
 20
724.9469909858784
 30
0.0
 11
633.1846721509461
 21
437.01695890544937
 31
0.0
1001
RASTER2DXF
1000
line 99
1040
287.93
1040
0.618
1000
distance=17
  0
LINE
  5
100
330
17
100
AcDbEntity
  8
PLAT-LINE-DASH
100
AcDbLine
 10
731.0740998602694
 20
724.9342900544337
 30
0.0
 11
731.091335605404
 21
313.045892821183
 31
0.0
1001
RASTER2DXF
1000
line 100
1040
411.888
1040
0.595
  0
LINE
  5
101
330
17
100
AcDbEntity
  8
PLAT-LINE-DASH
100
AcDbLine
 10
780.2046450121192
 20
724.9279243244467
 30
0.0
 11
780.2174146108039
 21
681.9352078960909
 31
0.0
1001
RASTER2DXF
1000
line 101
1040
42.993
1040
0.6
  0
LINE
  5
102
330
17
100
AcDbEntity
  8
PLAT-LINE-DASH
100
AcDbLine
 10
780.2174146108039
 20
681.9352078960909
 30
0.0
 11
780.2682075414688
 21
510.9254433327395
 31
0.0
1001
RASTER2DXF
1000
line 102
1040
171.01
1040
0.6
  0
LINE
  5
103
330
17
100
AcDbEntity
  8
PLAT-LINE-DASH
100
AcDbLine
 10
780.2682075414688
 20
510.9254433327395
 30
0.0
 11
780.3065214702278
 21
381.93001324392276
 31
0.0
1001
RASTER2DXF
1000
line 103
1040
128.995
1040
0.6
  0
LINE
  5
104
330
17
100
AcDbEntity
  8
PLAT-LINE-DASH
100
AcDbLine
 10
780.3065214702278
 20
381.93001324392276
 30
0.0
 11
780.3142116048668
 21
356.0388489251147
 31
0.0
1001
RASTER2DXF
1000
line 104
1040
25.891
1040
0.6
  0
LINE
  5
105
330
17
100
AcDbEntity
  8
PLAT-LINE-DASH
100
AcDbLine
 10
780.3142116048668
 20
356.0388489251147
 30
0.0
 11
780.3269796584475
 21
313.05133455678293
 31
0.0
1001
RASTER2DXF
1000
line 105
1040
42.988
1040
0.6
  0
LINE
  5
106
330
17
100
AcDbEntity
  8
PLAT-LINE
100
AcDbLine
 10
236.03728238888476
 20
605.9919327231564
 30
0.0
 11
530.3237498361839
 21
605.977627500566
 31
0.0
1001
RASTER2DXF
1000
line 106
1040
294.286
1040
0.901
  0
LINE
  5
107
330
17
100
AcDbEntity
  8
PLAT-LINE
100
AcDbLine
 10
530.3237498361839
 20
605.977627500566
 30
0.0
 11
682.146238179905
 21
605.9702474313808
 31
0.0
1001
RASTER2DXF
1000
line 107
1040
151.822
1040
0.901
  0
LINE
  5
108
330
17
100
AcDbEntity
  8
PLAT-LINE
100
AcDbLine
 10
682.146238179905
 20
605.9702474313808
 30
0.0
 11
821.9807690598523
 21
605.9634500950731
 31
0.0
1001
RASTER2DXF
1000
line 108
1040
139.835
1040
0.901
  0
LINE
  5
109
330
17
100
AcDbEntity
  8
PLAT-LINE
100
AcDbLine
 10
236.0360727850109
 20
566.0361015430191
 30
0.0
 11
821.9792722264931
 21
566.0078110183816
 31
0.0
1001
RASTER2DXF
1000
line 109
1040
585.943
1040
0.915
  0
LINE
  5
10A
330
17
100
AcDbEntity
  8
PLAT-LINE
100
AcDbLine
 10
530.323749836184
 20
605.977627500566
 30
0.0
 11
530.2103482912086
 21
8.02187252939359
 31
0.0
1001
RASTER2DXF
1000
line 110
1040
597.956
1040
0.888
  0
LINE
  5
10B
330
17
100
AcDbEntity
  8
PLAT-LINE-DASH
100
AcDbLine
 10
236.03698120296474
 20
596.0431106060137
 30
0.0
 11
535.0681037454443
 21
596.0955084703996
 31
0.0
1001
RASTER2DXF
1000
line 111
1040
299.031
1040
0.307
  0
LINE
  5
10C
330
17
100
AcDbEntity
  8
PLAT-LINE-DASH
100
AcDbLine
 10
682.146238179905
 20
605.9702474313808
 30
0.0
 11
682.2030758533097
 21
313.0404894799932
 31
0.0
1001
RASTER2DXF
1000
line 112
1040
292.93
1040
0.605
  0
LINE
  5
10D
330
17
100
AcDbEntity
  8
PLAT-LINE
100
AcDbLine
 10
236.03598062208994
 20
562.9917610017725
 30
0.0
 11
821.9791582058733
 21
562.964207866946
 31
0.0
1001
RASTER2DXF
1000
line 113
1040
585.943
1040
0.909
  0
LINE
  5
10E
330
17
100
AcDbEntity
  8
PLAT-LINE
100
AcDbLine
 10
236.0347710221593
 20
523.0360600751001
 30
0.0
 11
821.977661341977
 21
523.0077536461652
 31
0.0
1001
RASTER2DXF
1000
line 114
1040
585.943
1040
0.916
  0
LINE
  5
10F
330
17
100
AcDbEntity
  8
PLAT-LINE
100
AcDbLine
 10
236.0346788671788
 20
519.991981825491
 30
0.0
 11
821.9775473285822
 21
519.9643433578918
 31
0.0
1001
RASTER2DXF
1000
line 115
1040
585.943
1040
0.916
  0
LINE
  5
110
330
17
100
AcDbEntity
  8
PLAT-LINE
100
AcDbLine
 10
236.03346926555503
 20
480.03622496914255
 30
0.0
 11
821.976050458129
 21
480.00771411287656
 31
0.0
1001
RASTER2DXF
1000
line 116
1040
585.943
1040
0.915
  0
LINE
  5
111
330
17
100
AcDbEntity
  8
PLAT-LINE-DASH
100
AcDbLine
 10
236.03440521833238
 20
510.9527687846057
 30
0.0
 11
780.2682075414687
 21
510.9254433327395
 31
0.0
1001
RASTER2DXF
1000
line 117
1040
544.234
1040
0.332
  0
LINE
  5
112
330
17
100
AcDbEntity
  8
PLAT-LINE
100
AcDbLine
 10
236.03337710505684
 20
476.9919644586988
 30
0.0
 11
821.9759364471821
 21
476.96436916183177
 31
0.0
1001
RASTER2DXF
1000
line 118
1040
585.943
1040
0.916
  0
LINE
  5
113
330
17
100
AcDbEntity
  8
PLAT-LINE
100
AcDbLine
 10
236.03216751092765
 20
437.0364551664898
 30
0.0
 11
584.031859381427
 21
437.01937182254653
 31
0.0
1001
RASTER2DXF
1000
line 119
1040
348.0
1040
0.913
  0
LINE
  5
114
330
17
100
AcDbEntity
  8
PLAT-LINE
100
AcDbLine
 10
584.031859381427
 20
437.01937182254653
 30
0.0
 11
633.184672150946
 21
437.01695890544937
 31
0.0
1001
RASTER2DXF
1000
line 120
1040
49.153
1040
0.913
  0
LINE
  5
115
330
17
100
AcDbEntity
  8
PLAT-LINE
100
AcDbLine
 10
633.184672150946
 20
437.01695890544937
 30
0.0
 11
821.9744395749037
 21
437.0076911945714
 31
0.0
1001
RASTER2DXF
1000
line 121
1040
188.79
1040
0.913
  0
LINE
  5
116
330
17
100
AcDbEntity
  8
PLAT-LINE
100
AcDbLine
 10
236.03207534346245
 20
433.99196452000604
 30
0.0
 11
821.9743255648181
 21
433.9643692376972
 31
0.0
1001
RASTER2DXF
1000
line 122
1040
585.942
1040
0.916
  0
LINE
  5
117
330
17
100
AcDbEntity
  8
PLAT-LINE
100
AcDbLine
 10
236.03086574933332
 20
394.03645523039336
 30
0.0
 11
821.9728286925397
 21
394.0076912736497
 31
0.0
1001
RASTER2DXF
1000
line 123
1040
585.942
1040
0.913
  0
LINE
  5
118
330
17
100
AcDbEntity
  8
PLAT-LINE
100
AcDbLine
 10
236.03077358957222
 20
390.9922190661977
 30
0.0
 11
821.9727146790151
 21
390.9642775095901
 31
0.0
1001
RASTER2DXF
1000
line 124
1040
585.942
1040
0.92
  0
LINE
  5
119
330
17
100
AcDbEntity
  8
PLAT-LINE
100
AcDbLine
 10
236.02956398846595
 20
351.0364793059217
 30
0.0
 11
821.9712178123311
 21
351.00774888857137
 31
0.0
1001
RASTER2DXF
1000
line 125
1040
585.942
1040
0.911
  0
LINE
  5
11A
330
17
100
AcDbEntity
  8
PLAT-LINE-DASH
100
AcDbLine
 10
236.03049993000724
 20
381.952651968657
 30
0.0
 11
780.3065214702276
 21
381.9300132439227
 31
0.0
1001
RASTER2DXF
1000
line 126
1040
544.276
1040
0.344
  0
LINE
  5
11B
330
17
100
AcDbEntity
  8
PLAT-LINE-DASH
100
AcDbLine
 10
236.0297161657117
 20
356.0632227471069
 30
0.0
 11
289.9128259410273
 21
356.0608097859863
 31
0.0
1001
RASTER2DXF
1000
line 127
1040
53.883
1040
0.405
  0
LINE
  5
11C
330
17
100
AcDbEntity
  8
PLAT-LINE-DASH
100
AcDbLine
 10
289.9128259410273
 20
356.0608097859863
 30
0.0
 11
535.1162520278447
 21
356.0498292331515
 31
0.0
1001
RASTER2DXF
1000
line 128
1040
245.203
1040
0.405
1000
distance=111
  0
LINE
  5
11D
330
17
100
AcDbEntity
  8
PLAT-LINE-DASH
100
AcDbLine
 10
535.1162520278447
 20
356.0498292331515
 30
0.0
 11
780.3142116048668
 21
356.0388489251147
 31
0.0
1001
RASTER2DXF
1000
line 129
1040
245.198
1040
0.405
  0
LINE
  5
11E
330
17
100
AcDbEntity
  8
PLAT-LINE
100
AcDbLine
 10
236.02947182617356
 20
347.99215952798784
 30
0.0
 11
821.9711037955931
 21
347.96424934984174
 31
0.0
1001
RASTER2DXF
1000
line 130
1040
585.942
1040
0.918
  0
LINE
  5
11F
330
17
100
AcDbEntity
  8
PLAT-LINE
100
AcDbLine
 10
236.02829247940963
 20
309.0357861062095
 30
0.0
 11
821.9696443966488
 21
309.0078637696566
 31
0.0
1001
RASTER2DXF
1000
line 131
1040
585.941
1040
0.918
  0
LINE
  5
120
330
17
100
AcDbEntity
  8
PLAT-LINE
100
AcDbLine
 10
236.02817006339785
 20
304.992120567925
 30
0.0
 11
821.969492909496
 21
304.9641497752872
 31
0.0
1001
RASTER2DXF
1000
line 132
1040
585.941
1040
0.916
  0
LINE
  5
121
330
17
100
AcDbEntity
  8
PLAT-LINE
100
AcDbLine
 10
236.0269907178153
 20
266.03578616824336
 30
0.0
 11
821.9680335142848
 21
266.0078638464212
 31
0.0
1001
RASTER2DXF
1000
line 133
1040
585.941
1040
0.918
  0
LINE
  5
122
330
17
100
AcDbEntity
  8
PLAT-LINE
100
AcDbLine
 10
236.0268988954051
 20
263.0026934340483
 30
0.0
 11
821.9679179931455
 21
262.92420665903074
 31
0.0
1001
RASTER2DXF
1000
line 134
1040
585.941
1040
0.877
  0
LINE
  5
123
330
17
100
AcDbEntity
  8
PLAT-LINE
100
AcDbLine
 10
236.02568895800283
 20
223.03584508965287
 30
0.0
 11
821.9664226333418
 21
223.0079018524849
 31
0.0
1001
RASTER2DXF
1000
line 135
1040
585.941
1040
0.916
1000
distance=0000
  0
LINE
  5
124
330
17
100
AcDbEntity
  8
PLAT-LINE
100
AcDbLine
 10
236.02559680787328
 20
219.99192707607654
 30
0.0
 11
821.9663085654828
 21
219.9630377210974
 31
0.0
1001
RASTER2DXF
1000
line 136
1040
585.941
1040
0.895
  0
LINE
  5
125
330
17
100
AcDbEntity
  8
PLAT-LINE
100
AcDbLine
 10
236.02438720268026
 20
180.03605232292466
 30
0.0
 11
821.9648117461122
 21
180.00777205181623
 31
0.0
1001
RASTER2DXF
1000
line 137
1040
585.94
1040
0.916
1000
distance=£000
  0
LINE
  5
126
330
17
100
AcDbEntity
  8
PLAT-LINE
100
AcDbLine
 10
236.02429504286903
 20
176.9918145029834
 30
0.0
 11
821.964697720372
 21
176.9640322138439
 31
0.0
1001
RASTER2DXF
1000
line 138
1040
585.94
1040
0.908
  0
LINE
  5
127
330
17
100
AcDbEntity
  8
PLAT-LINE
100
AcDbLine
 10
236.02308544097673
 20
137.03604877879297
 30
0.0
 11
821.9632008662401
 21
137.00783864562845
 31
0.0
1001
RASTER2DXF
1000
line 139
1040
585.94
1040
0.915
1000
distance=0000
  0
LINE
  5
128
330
17
100
AcDbEntity
  8
PLAT-LINE
100
AcDbLine
 10
236.0229932812747
 20
133.9918145647065
 30
0.0
 11
821.9630868380079
 21
133.96403229022383
 31
0.0
1001
RASTER2DXF
1000
line 140
1040
585.94
1040
0.908
  0
LINE
  5
129
330
17
100
AcDbEntity
  8
PLAT-LINE
100
AcDbLine
 10
236.02178367659837
 20
94.03595687808411
 30
0.0
 11
821.9615899863351
 21
94.0079043572631
 31
0.0
1001
RASTER2DXF
1000
line 141
1040
585.94
1040
0.915
1000
distance=20
  0
LINE
  5
12A
330
17
100
AcDbEntity
  8
PLAT-LINE
100
AcDbLine
 10
236.0216915196803
 20
90.99181462642923
 30
0.0
 11
821.9614759556439
 21
90.96403236660353
 31
0.0
1001
RASTER2DXF
1000
line 142
1040
585.94
1040
0.908
1000
distance=20
  0
LINE
  5
12B
330
17
100
AcDbEntity
  8
PLAT-LINE
100
AcDbLine
 10
236.02048191849633
 20
51.03607229748002
 30
0.0
 11
821.959979103665
 21
51.00789626759001
 31
0.0
1001
RASTER2DXF
1000
line 143
1040
585.939
1040
0.913
1000
distance=20
  0
LINE
  5
12C
330
17
100
AcDbEntity
  8
PLAT-LINE
100
AcDbLine
 10
236.0203897580859
 20
47.991814688151976
 30
0.0
 11
821.95986507328
 21
47.96403244298324
 31
0.0
1001
RASTER2DXF
1000
line 144
1040
585.939
1040
0.908
  0
LINE
  5
12D
330
17
100
AcDbEntity
  8
PLAT-LINE
100
AcDbLine
 10
236.01918015404004
 20
8.035977824672273
 30
0.0
 11
281.96538125958415
 21
8.033774887250274
 31
0.0
1001
RASTER2DXF
1000
line 145
1040
45.946
1040
0.915
  0
LINE
  5
12E
330
17
100
AcDbEntity
  8
PLAT-LINE
100
AcDbLine
 10
281.96538125958415
 20
8.033774887250274
 30
0.0
 11
330.9635801563069
 21
8.031425618684693
 31
0.0
1001
RASTER2DXF
1000
line 146
1040
48.998
1040
0.915
  0
LINE
  5
12F
330
17
100
AcDbEntity
  8
PLAT-LINE
100
AcDbLine
 10
330.9635801563069
 20
8.031425618684693
 30
0.0
 11
380.0784802446511
 21
8.02907075476162
 31
0.0
1001
RASTER2DXF
1000
line 147
1040
49.115
1040
0.915
  0
LINE
  5
130
330
17
100
AcDbEntity
  8
PLAT-LINE
100
AcDbLine
 10
380.0784802446511
 20
8.02907075476162
 30
0.0
 11
428.96772884113864
 21
8.026726709929221
 31
0.0
1001
RASTER2DXF
1000
line 148
1040
48.889
1040
0.915
  0
LINE
  5
131
330
17
100
AcDbEntity
  8
PLAT-LINE
100
AcDbLine
 10
428.96772884113864
 20
8.026726709929221
 30
0.0
 11
478.13581289001854
 21
8.024369296046984
 31
0.0
1001
RASTER2DXF
1000
line 149
1040
49.168
1040
0.915
  0
LINE
  5
132
330
17
100
AcDbEntity
  8
PLAT-LINE
100
AcDbLine
 10
478.13581289001854
 20
8.024369296046984
 30
0.0
 11
482.0139623417926
 21
8.02418335422044
 31
0.0
1001
RASTER2DXF
1000
line 150
1040
3.878
1040
0.915
  0
LINE
  5
133
330
17
100
AcDbEntity
  8
PLAT-LINE
100
AcDbLine
 10
482.0139623417926
 20
8.02418335422044
 30
0.0
 11
527.2099956536506
 21
8.022016384357585
 31
0.0
1001
RASTER2DXF
1000
line 151
1040
45.196
1040
0.915
  0
LINE
  5
134
330
17
100
AcDbEntity
  8
PLAT-LINE
100
AcDbLine
 10
527.2099956536506
 20
8.022016384357585
 30
0.0
 11
575.980570402858
 21
8.019678029463762
 31
0.0
1001
RASTER2DXF
1000
line 152
1040
48.771
1040
0.915
  0
LINE
  5
135
330
17
100
AcDbEntity
  8
PLAT-LINE
100
AcDbLine
 10
575.980570402858
 20
8.019678029463762
 30
0.0
 11
580.0139621975109
 21
8.019484644384875
 31
0.0
1001
RASTER2DXF
1000
line 153
1040
4.033
1040
0.915
  0
LINE
  5
136
330
17
100
AcDbEntity
  8
PLAT-LINE
100
AcDbLine
 10
580.0139621975109
 20
8.019484644384875
 30
0.0
 11
625.9531417064126
 21
8.017282043620412
 31
0.0
1001
RASTER2DXF
1000
line 154
1040
45.939
1040
0.915
  0
LINE
  5
137
330
17
100
AcDbEntity
  8
PLAT-LINE
100
AcDbLine
 10
625.9531417064126
 20
8.017282043620412
 30
0.0
 11
674.1130792722952
 21
8.01497296634841
 31
0.0
1001
RASTER2DXF
1000
line 155
1040
48.16
1040
0.915
  0
LINE
  5
138
330
17
100
AcDbEntity
  8
PLAT-LINE
100
AcDbLine
 10
674.1130792722952
 20
8.01497296634841
 30
0.0
 11
678.0139620532292
 21
8.014785934549309
 31
0.0
1001
RASTER2DXF
1000
line 156
1040
3.901
1040
0.915
  0
LINE
  5
139
330
17
100
AcDbEntity
  8
PLAT-LINE
100
AcDbLine
 10
678.0139620532292
 20
8.014785934549309
 30
0.0
 11
723.9685003262073
 21
8.012582597393248
 31
0.0
1001
RASTER2DXF
1000
line 157
1040
45.955
1040
0.915
  0
LINE
  5
13A
330
17
100
AcDbEntity
  8
PLAT-LINE
100
AcDbLine
 10
723.9685003262073
 20
8.012582597393248
 30
0.0
 11
772.9518961091292
 21
8.010234038578119
 31
0.0
1001
RASTER2DXF
1000
line 158
1040
48.983
1040
0.915
  0
LINE
  5
13B
330
17
100
AcDbEntity
  8
PLAT-LINE
100
AcDbLine
 10
772.9518961091292
 20
8.010234038578119
 30
0.0
 11
821.9583682208527
 21
8.007884373344837
 31
0.0
1001
RASTER2DXF
1000
line 159
1040
49.006
1040
0.915
  0
TEXT
  5
13C
330
17
100
AcDbEntity
  8
PLAT-TEXT-DIST
100
AcDbText
 10
767.9999440169564
 20
712.3289763418803
 30
0.0
 40
25.20105842280389
  1
11'
 50
359.9925763197089
  7
PLAT
 72
1
 11
767.9999440169564
 21
712.3289763418803
 31
0.0
100
AcDbText
 73
3
  0
TEXT
  5
13D
330
17
100
AcDbEntity
  8
PLAT-TEXT-DIST
100
AcDbText
 10
645.7715955391093
 20
465.8159157415298
 30
0.0
 40
25.20105842280389
  1
17'
 50
90.02707170201438
  7
PLAT
 72
1
 11
645.7715955391093
 21
465.8159157415298
 31
0.0
100
AcDbText
 73
3
  0
TEXT
  5
13E
330
17
100
AcDbEntity
  8
PLAT-TEXT-DIST
100
AcDbText
 10
382.99998464761205
 20
368.65717043668445
 30
0.0
 40
25.20105842280389
  1
111'
 50
359.9974342147507
  7
PLAT
 72
1
 11
382.99998464761205
 21
368.65717043668445
 31
0.0
100
AcDbText
 73
1
  0
TEXT
  5
13F
330
17
100
AcDbEntity
  8
PLAT-TEXT-DIST
100
AcDbText
 10
719.0002603317744
 20
325.6450857517915
 30
0.0
 40
25.20105842280389
  1
14'
 50
0.00633257648665334
  7
PLAT
 72
1
 11
719.0002603317744
 21
325.6450857517915
 31
0.0
100
AcDbText
 73
1
  0
TEXT
  5
140
330
17
100
AcDbEntity
  8
PLAT-TEXT-DIST
100
AcDbText
 10
375.99976773764377
 20
235.62969901760005
 30
0.0
 40
25.20105842280389
  1
0'
 50
359.9972675913067
  7
PLAT
 72
1
 11
375.99976773764377
 21
235.62969901760005
 31
0.0
100
AcDbText
 73
1
  0
TEXT
  5
141
330
17
100
AcDbEntity
  8
PLAT-TEXT-DIST
100
AcDbText
 10
375.9997649422285
 20
192.62982567167288
 30
0.0
 40
25.20105842280389
  1
0'
 50
359.99723463323426
  7
PLAT
 72
1
 11
375.9997649422285
 21
192.62982567167288
 31
0.0
100
AcDbText
 73
1
  0
TEXT
  5
142
330
17
100
AcDbEntity
  8
PLAT-TEXT-DIST
100
AcDbText
 10
375.49981367194283
 20
149.62986288669495
 30
0.0
 40
25.20105842280389
  1
0'
 50
359.99724149016936
  7
PLAT
 72
1
 11
375.49981367194283
 21
149.62986288669495
 31
0.0
100
AcDbText
 73
1
  0
TEXT
  5
143
330
17
100
AcDbEntity
  8
PLAT-TEXT-DIST
100
AcDbText
 10
621.499766270293
 20
106.61803091618197
 30
0.0
 40
25.20105842280389
  1
20'
 50
359.9972569007444
  7
PLAT
 72
1
 11
621.499766270293
 21
106.61803091618197
 31
0.0
100
AcDbText
 73
1
  0
TEXT
  5
144
330
17
100
AcDbEntity
  8
PLAT-TEXT-DIST
100
AcDbText
 10
763.3680949645254
 20
103.56733978982398
 30
0.0
 40
25.20105842280389
  1
20'
 50
359.9972833279555
  7
PLAT
 72
1
 11
763.3680949645254
 21
103.56733978982398
 31
0.0
100
AcDbText
 73
1
  0
TEXT
  5
145
330
17
100
AcDbEntity
  8
PLAT-TEXT-DIST
100
AcDbText
 10
621.499765242748
 20
63.61806500925209
 30
0.0
 40
25.20105842280389
  1
20'
 50
359.9972448220292
  7
PLAT
 72
1
 11
621.499765242748
 21
63.61806500925209
 31
0.0
100
AcDbText
 73
1
  0
TEXT
  5
146
330
17
100
AcDbEntity
  8
PLAT-TEXT-LOWCONF
100
AcDbText
 10
348.5000199946976
 20
712.4999584728779
 30
0.0
 40
25.20052601087691
  1
Banana
 50
0.00017624684102202082
  7
PLAT
 72
1
 11
348.5000199946976
 21
712.4999584728779
 31
0.0
100
AcDbText
 73
2
  0
TEXT
  5
147
330
17
100
AcDbEntity
  8
PLAT-TEXT-LOWCONF
100
AcDbText
 10
496.5
 20
710.0
 30
0.0
 40
20.7
  1
u
  7
PLAT
 72
1
 11
496.5
 21
710.0
 31
0.0
100
AcDbText
 73
2
  0
TEXT
  5
148
330
17
100
AcDbEntity
  8
PLAT-TEXT-LOWCONF
100
AcDbText
 10
542.9999999904171
 20
623.9997231198056
 30
0.0
 40
22.506042897307807
  1
Buse
 50
89.99801699167779
  7
PLAT
 72
1
 11
542.9999999904171
 21
623.9997231198056
 31
0.0
100
AcDbText
 73
2
  0
TEXT
  5
149
330
17
100
AcDbEntity
  8
PLAT-TEXT-LOWCONF
100
AcDbText
 10
596.4999677011457
 20
709.999978467287
 30
0.0
 40
20.700274079317882
  1
id J 4
 50
0.00017624684102202082
  7
PLAT
 72
1
 11
596.4999677011457
 21
709.999978467287
 31
0.0
100
AcDbText
 73
2
  0
TEXT
  5
14A
330
17
100
AcDbEntity
  8
PLAT-TEXT-LOWCONF
100
AcDbText
 10
692.4999846480822
 20
624.0000460604679
 30
0.0
 40
19.80533373867884
  1
UUOCC
 50
89.9982406377323
  7
PLAT
 72
1
 11
692.4999846480822
 21
624.0000460604679
 31
0.0
100
AcDbText
 73
2
  0
TEXT
  5
14B
330
17
100
AcDbEntity
  8
PLAT-TEXT-LOWCONF
100
AcDbText
 10
767.9999395122732
 20
668.9998617401696
 30
0.0
 40
27.000092172556506
  1
1]
 50
0.0003300701996522548
  7
PLAT
 72
1
 11
767.9999395122732
 21
668.9998617401696
 31
0.0
100
AcDbText
 73
2
  0
TEXT
  5
14C
330
17
100
AcDbEntity
  8
PLAT-TEXT-LOWCONF
100
AcDbText
 10
250.5
 20
667.0
 30
0.0
 40
20.7
  1
ic
 50
90.0
  7
PLAT
 72
1
 11
250.5
 21
667.0
 31
0.0
100
AcDbText
 73
2
  0
TEXT
  5
14D
330
17
100
AcDbEntity
  8
PLAT-TEXT-LOWCONF
100
AcDbText
 10
400.49994239211486
 20
666.9999596739859
 30
0.0
 40
20.701021391594043
  1
JuUuUuUU
 50
0.0003300701996522548
  7
PLAT
 72
1
 11
400.49994239211486
 21
666.9999596739859
 31
0.0
100
AcDbText
 73
2
  0
TEXT
  5
14E
330
17
100
AcDbEntity
  8
PLAT-TEXT-LOWCONF
100
AcDbText
 10
596.4999395117089
 20
666.9999596739693
 30
0.0
 40
20.70051328799803
  1
id 1 4
 50
0.0003300701996522548
  7
PLAT
 72
1
 11
596.4999395117089
 21
666.9999596739693
 31
0.0
100
AcDbText
 73
2
  0
TEXT
  5
14F
330
17
100
AcDbEntity
  8
PLAT-TEXT-LOWCONF
100
AcDbText
 10
250.5
 20
626.0
 30
0.0
 40
24.3
  1
a
 50
90.0
  7
PLAT
 72
1
 11
250.5
 21
626.0
 31
0.0
100
AcDbText
 73
2
  0
TEXT
  5
150
330
17
100
AcDbEntity
  8
PLAT-TEXT-LOWCONF
100
AcDbText
 10
400.4997090890291
 20
626.4998370809626
 30
0.0
 40
25.20412632840961
  1
Joaaa
 50
0.001333455047017651
  7
PLAT
 72
1
 11
400.4997090890291
 21
626.4998370809626
 31
0.0
100
AcDbText
 73
2
  0
TEXT
  5
151
330
17
100
AcDbEntity
  8
PLAT-TEXT-LOWCONF
100
AcDbText
 10
596.4998915675247
 20
582.9998916145348
 30
0.0
 40
16.221659753135842
  1
hmmm
 50
89.98757724669878
  7
PLAT
 72
1
 11
596.4998915675247
 21
582.9998916145348
 31
0.0
100
AcDbText
 73
2
  0
TEXT
  5
152
330
17
100
AcDbEntity
  8
PLAT-TEXT-LOWCONF
100
AcDbText
 10
645.4938591892983
 20
583.49668966594
 30
0.0
 40
16.236994283956392
  1
Wav
 50
90.02707170201438
  7
PLAT
 72
1
 11
645.4938591892983
 21
583.49668966594
 31
0.0
100
AcDbText
 73
2
  0
TEXT
  5
153
330
17
100
AcDbEntity
  8
PLAT-TEXT-LOWCONF
100
AcDbText
 10
743.4995606327439
 20
583.4997070619381
 30
0.0
 40
16.203464807913956
  1
LILIL
 50
90.00239758016744
  7
PLAT
 72
1
 11
743.4995606327439
 21
583.4997070619381
 31
0.0
100
AcDbText
 73
2
  0
TEXT
  5
154
330
17
100
AcDbEntity
  8
PLAT-TEXT-LOWCONF
100
AcDbText
 10
792.5
 20
626.5
 30
0.0
 40
25.2
  1
q
  7
PLAT
 72
1
 11
792.5
 21
626.5
 31
0.0
100
AcDbText
 73
2
  0
TEXT
  5
155
330
17
100
AcDbEntity
  8
PLAT-TEXT-LOWCONF
100
AcDbText
 10
792.4967332905566
 20
561.9983654322598
 30
0.0
 40
16.2128304901336
  1
VALA
 50
90.01701786139552
  7
PLAT
 72
1
 11
792.4967332905566
 21
561.9983654322598
 31
0.0
100
AcDbText
 73
2
  0
TEXT
  5
156
330
17
100
AcDbEntity
  8
PLAT-TEXT-LOWCONF
100
AcDbText
 10
373.49997585898717
 20
581.0000000011655
 30
0.0
 40
20.711515240047074
  1
UsUuUuUU
 50
359.9972336437009
  7
PLAT
 72
1
 11
373.49997585898717
 21
581.0000000011655
 31
0.0
100
AcDbText
 73
2
  0
TEXT
  5
157
330
17
100
AcDbEntity
  8
PLAT-TEXT-LOWCONF
100
AcDbText
 10
250.5
 20
540.5
 30
0.0
 40
25.2
  1
a
 50
90.0
  7
PLAT
 72
1
 11
250.5
 21
540.5
 31
0.0
100
AcDbText
 73
2
  0
TEXT
  5
158
330
17
100
AcDbEntity
  8
PLAT-TEXT-LOWCONF
100
AcDbText
 10
326.5000241534302
 20
540.499975844236
 30
0.0
 40
25.20278258123281
  1
id
 50
359.9972320870573
  7
PLAT
 72
1
 11
326.5000241534302
 21
540.499975844236
 31
0.0
100
AcDbText
 73
2
  0
TEXT
  5
159
330
17
100
AcDbEntity
  8
PLAT-TEXT-LOWCONF
100
AcDbText
 10
449.0000151128044
 20
540.5027488495439
 30
0.0
 40
25.79834123497646
  1
gaa
 50
359.6849986978038
  7
PLAT
 72
1
 11
449.0000151128044
 21
540.5027488495439
 31
0.0
100
AcDbText
 73
2
  0
TEXT
  5
15A
330
17
100
AcDbEntity
  8
PLAT-TEXT-LOWCONF
100
AcDbText
 10
670.0006325530097
 20
497.4999513111151
 30
0.0
 40
25.21138596804018
  1
CrPrrere
 50
359.99721209588535
  7
PLAT
 72
1
 11
670.0006325530097
 21
497.4999513111151
 31
0.0
100
AcDbText
 73
2
  0
TEXT
  5
15B
330
17
100
AcDbEntity
  8
PLAT-TEXT-LOWCONF
100
AcDbText
 10
250.5
 20
495.5
 30
0.0
 40
21.6
  1
ic
 50
90.0
  7
PLAT
 72
1
 11
250.5
 21
495.5
 31
0.0
100
AcDbText
 73
2
  0
TEXT
  5
15C
330
17
100
AcDbEntity
  8
PLAT-TEXT-MISC
100
AcDbText
 10
400.5005352379817
 20
495.49997564490326
 30
0.0
 40
21.60928394212219
  1
nanny
 50
359.99721209588535
  7
PLAT
 72
1
 11
400.5005352379817
 21
495.49997564490326
 31
0.0
100
AcDbText
 73
2
  0
TEXT
  5
15D
330
17
100
AcDbEntity
  8
PLAT-TEXT-LOWCONF
100
AcDbText
 10
252.49877392221862
 20
414.00000003711773
 30
0.0
 40
23.400681144012825
  1
\Dat
 50
89.99826545475878
  7
PLAT
 72
1
 11
252.49877392221862
 21
414.00000003711773
 31
0.0
100
AcDbText
 73
2
  0
TEXT
  5
15E
330
17
100
AcDbEntity
  8
PLAT-TEXT-LOWCONF
100
AcDbText
 10
305.0
 20
454.5
 30
0.0
 40
28.0
  1
7
  7
PLAT
 72
1
 11
305.0
 21
454.5
 31
0.0
100
AcDbText
 73
2
  0
TEXT
  5
15F
330
17
100
AcDbEntity
  8
PLAT-TEXT-LOWCONF
100
AcDbText
 10
350.9978722522146
 20
414.0000251388667
 30
0.0
 40
24.299053748159427
  1
[OQ
 50
89.99713150494159
  7
PLAT
 72
1
 11
350.9978722522146
 21
414.0000251388667
 31
0.0
100
AcDbText
 73
2
  0
TEXT
  5
160
330
17
100
AcDbEntity
  8
PLAT-TEXT-MISC
100
AcDbText
 10
447.5066877068847
 20
454.50274761168276
 30
0.0
 40
25.276443642390838
  1
g Pa
 50
359.9549348848632
  7
PLAT
 72
1
 11
447.5066877068847
 21
454.50274761168276
 31
0.0
100
AcDbText
 73
2
  0
TEXT
  5
161
330
17
100
AcDbEntity
  8
PLAT-TEXT-LOWCONF
100
AcDbText
 10
548.4955870463431
 20
433.0010020131861
 30
0.0
 40
18.004693220127503
  1
Wut
 50
90.01149236821976
  7
PLAT
 72
1
 11
548.4955870463431
 21
433.0010020131861
 31
0.0
100
AcDbText
 73
2
  0
TEXT
  5
162
330
17
100
AcDbEntity
  8
PLAT-TEXT-LOWCONF
100
AcDbText
 10
598.9774509576956
 20
304.5001132980125
 30
0.0
 40
27.89668205079747
  1
“H=zAcesegogs
 50
89.98757724669878
  7
PLAT
 72
1
 11
598.9774509576956
 21
304.5001132980125
 31
0.0
100
AcDbText
 73
2
  0
TEXT
  5
163
330
17
100
AcDbEntity
  8
PLAT-TEXT-LOWCONF
100
AcDbText
 10
694.4979625537624
 20
433.0005816999191
 30
0.0
 40
16.20855651198054
  1
Wu
 50
90.01111720019617
  7
PLAT
 72
1
 11
694.4979625537624
 21
433.0005816999191
 31
0.0
100
AcDbText
 73
2
  0
TEXT
  5
164
330
17
100
AcDbEntity
  8
PLAT-TEXT-LOWCONF
100
AcDbText
 10
743.5
 20
454.5
 30
0.0
 40
28.0
  1
3
  7
PLAT
 72
1
 11
743.5
 21
454.5
 31
0.0
100
AcDbText
 73
2
  0
TEXT
  5
165
330
17
100
AcDbEntity
  8
PLAT-TEXT-LOWCONF
100
AcDbText
 10
792.9744562135257
 20
304.50088346620794
 30
0.0
 40
24.336621251305996
  1
Sogguuue
 50
90.01701786139552
  7
PLAT
 72
1
 11
792.9744562135257
 21
304.50088346620794
 31
0.0
100
AcDbText
 73
2
  0
TEXT
  5
166
330
17
100
AcDbEntity
  8
PLAT-TEXT-LOWCONF
100
AcDbText
 10
302.0
 20
411.5
 30
0.0
 40
28.0
  1
5
  7
PLAT
 72
1
 11
302.0
 21
411.5
 31
0.0
100
AcDbText
 73
2
  0
TEXT
  5
167
330
17
100
AcDbEntity
  8
PLAT-TEXT-LOWCONF
100
AcDbText
 10
400.0
 20
411.5
 30
0.0
 40
25.2
  1
a
 50
90.0
  7
PLAT
 72
1
 11
400.0
 21
411.5
 31
0.0
100
AcDbText
 73
2
  0
TEXT
  5
168
330
17
100
AcDbEntity
  8
PLAT-TEXT-LOWCONF
100
AcDbText
 10
447.4992371823938
 20
392.4999598824155
 30
0.0
 40
19.80090331949857
  1
=a
 50
89.99769967699655
  7
PLAT
 72
1
 11
447.4992371823938
 21
392.4999598824155
 31
0.0
100
AcDbText
 73
2
  0
TEXT
  5
169
330
17
100
AcDbEntity
  8
PLAT-TEXT-LOWCONF
100
AcDbText
 10
496.4987563805678
 20
371.0000153915195
 30
0.0
 40
19.800690891036396
  1
an)
 50
89.9982406377323
  7
PLAT
 72
1
 11
496.4987563805678
 21
371.0000153915195
 31
0.0
100
AcDbText
 73
2
  0
TEXT
  5
16A
330
17
100
AcDbEntity
  8
PLAT-TEXT-LOWCONF
100
AcDbText
 10
651.5
 20
411.5
 30
0.0
 40
25.2
  1
Q
 50
90.0
  7
PLAT
 72
1
 11
651.5
 21
411.5
 31
0.0
100
AcDbText
 73
2
  0
TEXT
  5
16B
330
17
100
AcDbEntity
  8
PLAT-TEXT-LOWCONF
100
AcDbText
 10
743.5
 20
411.5
 30
0.0
 40
25.2
  1
WA
 50
90.0
  7
PLAT
 72
1
 11
743.5
 21
411.5
 31
0.0
100
AcDbText
 73
2
  0
TEXT
  5
16C
330
17
100
AcDbEntity
  8
PLAT-TEXT-LOWCONF
100
AcDbText
 10
645.9977379705863
 20
259.5003269145261
 30
0.0
 40
24.306769648123225
  1
099047
 50
90.00312298114363
  7
PLAT
 72
1
 11
645.9977379705863
 21
259.5003269145261
 31
0.0
100
AcDbText
 73
2
  0
TEXT
  5
16D
330
17
100
AcDbEntity
  8
PLAT-TEXT-LOWCONF
100
AcDbText
 10
350.0
 20
324.0
 30
0.0
 40
20.70934965459349
  1
oannan
 50
359.9972696379387
  7
PLAT
 72
1
 11
350.0
 21
324.0
 31
0.0
100
AcDbText
 73
2
  0
TEXT
  5
16E
330
17
100
AcDbEntity
  8
PLAT-TEXT-LOWCONF
100
AcDbText
 10
532.9999447378456
 20
325.9999999938922
 30
0.0
 40
17.104973494985508
  1
VAAN
 50
0.006332576486613561
  7
PLAT
 72
1
 11
532.9999447378456
 21
325.9999999938922
 31
0.0
100
AcDbText
 73
2
  0
TEXT
  5
16F
330
17
100
AcDbEntity
  8
PLAT-TEXT-LOWCONF
100
AcDbText
 10
252.999757815004
 20
154.00010596467098
 30
0.0
 40
24.307247471276956
  1
SOOOOO2
 50
89.99826545475878
  7
PLAT
 72
1
 11
252.999757815004
 21
154.00010596467098
 31
0.0
100
AcDbText
 73
2
  0
TEXT
  5
170
330
17
100
AcDbEntity
  8
PLAT-TEXT-LOWCONF
100
AcDbText
 10
425.4999285204239
 20
283.00002383031017
 30
0.0
 40
24.310464749606634
  1
000009
 50
359.9972696379387
  7
PLAT
 72
1
 11
425.4999285204239
 21
283.00002383031017
 31
0.0
100
AcDbText
 73
2
  0
TEXT
  5
171
330
17
100
AcDbEntity
  8
PLAT-TEXT-LOWCONF
100
AcDbText
 10
694.9999999995285
 20
153.99998464666783
 30
0.0
 40
24.306908988436007
  1
SSagggs
 50
89.9982406377323
  7
PLAT
 72
1
 11
694.9999999995285
 21
153.99998464666783
 31
0.0
100
AcDbText
 73
2
  0
TEXT
  5
172
330
17
100
AcDbEntity
  8
PLAT-TEXT-LOWCONF
100
AcDbText
 10
743.9979308865637
 20
218.4999841496117
 30
0.0
 40
24.299799443352548
  1
SOOO
 50
89.99817613171871
  7
PLAT
 72
1
 11
743.9979308865637
 21
218.4999841496117
 31
0.0
100
AcDbText
 73
2
  0
TEXT
  5
173
330
17
100
AcDbEntity
  8
PLAT-TEXT-LOWCONF
100
AcDbText
 10
498.5
 20
197.0
 30
0.0
 40
23.40221086922211
  1
OOO
 50
89.9982406377323
  7
PLAT
 72
1
 11
498.5
 21
197.0
 31
0.0
100
AcDbText
 73
2
  0
TEXT
  5
174
330
17
100
AcDbEntity
  8
PLAT-TEXT-LOWCONF
100
AcDbText
 10
547.5
 20
240.0
 30
0.0
 40
24.3
  1
ze
 50
90.0
  7
PLAT
 72
1
 11
547.5
 21
240.0
 31
0.0
100
AcDbText
 73
2
  0
TEXT
  5
175
330
17
100
AcDbEntity
  8
PLAT-TEXT-LOWCONF
100
AcDbText
 10
547.5
 20
197.0
 30
0.0
 40
24.3
  1
xe
 50
90.0
  7
PLAT
 72
1
 11
547.5
 21
197.0
 31
0.0
100
AcDbText
 73
2
  0
TEXT
  5
176
330
17
100
AcDbEntity
  8
PLAT-TEXT-LOWCONF
100
AcDbText
 10
547.9999999640333
 20
111.49981035128451
 30
0.0
 40
24.31348360310972
  1
O99
 50
89.98913392874732
  7
PLAT
 72
1
 11
547.9999999640333
 21
111.49981035128451
 31
0.0
100
AcDbText
 73
2
  0
TEXT
  5
177
330
17
100
AcDbEntity
  8
PLAT-TEXT-MISC
100
AcDbText
 10
400.5000478749676
 20
111.49997605965109
 30
0.0
 40
25.208445318607584
  1
00000
 50
359.9972569007444
  7
PLAT
 72
1
 11
400.5000478749676
 21
111.49997605965109
 31
0.0
100
AcDbText
 73
2
  0
TEXT
  5
178
330
17
100
AcDbEntity
  8
PLAT-TEXT-MISC
100
AcDbText
 10
400.4999999988438
 20
68.49997595653645
 30
0.0
 40
25.208482505836713
  1
00000
 50
359.9972448220292
  7
PLAT
 72
1
 11
400.4999999988438
 21
68.49997595653645
 31
0.0
100
AcDbText
 73
2
  0
TEXT
  5
179
330
17
100
AcDbEntity
  8
PLAT-TEXT-LOWCONF
100
AcDbText
 10
743.9999999989867
 20
46.99996816749342
 30
0.0
 40
24.301031361358984
  1
oO
 50
89.99817613171871
  7
PLAT
 72
1
 11
743.9999999989867
 21
46.99996816749342
 31
0.0
100
AcDbText
 73
2
  0
TEXT
  5
17A
330
17
100
AcDbEntity
  8
PLAT-TEXT-LOWCONF
100
AcDbText
 10
793.0
 20
68.5
 30
0.0
 40
25.2
  1
ke
 50
90.0
  7
PLAT
 72
1
 11
793.0
 21
68.5
 31
0.0
100
AcDbText
 73
2
  0
TEXT
  5
17B
330
17
100
AcDbEntity
  8
PLAT-TEXT-MISC
100
AcDbText
 10
474.4999999977012
 20
25.499952053981247
 30
0.0
 40
25.214800908056585
  1
00000000
 50
359.9972528954803
  7
PLAT
 72
1
 11
474.4999999977012
 21
25.499952053981247
 31
0.0
100
AcDbText
 73
2
  0
TEXT
  5
17C
330
17
100
AcDbEntity
  8
PLAT-TEXT-LOWCONF
100
AcDbText
 10
793.5
 20
25.5
 30
0.0
 40
25.2
  1
a
  7
PLAT
 72
1
 11
793.5
 21
25.5
 31
0.0
100
AcDbText
 73
2
  0
ENDSEC
  0
SECTION
  2
OBJECTS
  0
DICTIONARY
  5
A
330
0
100
AcDbDictionary
281
1
  3
ACAD_COLOR
350
B
  3
ACAD_GROUP
350
C
  3
ACAD_LAYOUT
350
D
  3
ACAD_MATERIAL
350
E
  3
ACAD_MLEADERSTYLE
350
F
  3
ACAD_MLINESTYLE
350
10
  3
ACAD_PLOTSETTINGS
350
11
  3
ACAD_PLOTSTYLENAME
350
12
  3
ACAD_SCALELIST
350
14
  3
ACAD_TABLESTYLE
350
15
  3
ACAD_VISUALSTYLE
350
16
  3
EZDXF_META
350
2D
  0
DICTIONARY
  5
B
330
A
100
AcDbDictionary
281
1
  0
DICTIONARY
  5
C
330
A
100
AcDbDictionary
281
1
  0
DICTIONARY
  5
D
330
A
100
AcDbDictionary
281
1
  3
Model
350
1A
  3
Layout1
350
1E
  0
DICTIONARY
  5
E
330
A
100
AcDbDictionary
281
1
  3
ByBlock
350
1F
  3
ByLayer
350
20
  3
Global
350
21
  0
DICTIONARY
  5
F
330
A
100
AcDbDictionary
281
1
  3
Standard
350
2C
  0
DICTIONARY
  5
10
330
A
100
AcDbDictionary
281
1
  3
Standard
350
22
  0
DICTIONARY
  5
11
330
A
100
AcDbDictionary
281
1
  0
ACDBDICTIONARYWDFLT
  5
12
330
A
100
AcDbDictionary
281
1
  3
Normal
350
13
100
AcDbDictionaryWithDefault
340
13
  0
ACDBPLACEHOLDER
  5
13
330
12
  0
DICTIONARY
  5
14
330
A
100
AcDbDictionary
281
1
  0
DICTIONARY
  5
15
330
A
100
AcDbDictionary
281
1
  0
DICTIONARY
  5
16
330
A
100
AcDbDictionary
281
1
  3
2dWireframe
350
5A
  3
Basic
350
5B
  3
Brighten
350
5C
  3
ColorChange
350
5D
  3
Conceptual
350
5E
  3
Dim
350
5F
  3
EdgeColorOff
350
60
  3
Facepattern
350
61
  3
Flat
350
62
  3
FlatWithEdges
350
63
  3
Gouraud
350
64
  3
GouraudWithEdges
350
65
  3
Hidden
350
66
  3
JitterOff
350
67
  3
Linepattern
350
68
  3
Modeling
350
69
  3
OverhangOff
350
6A
  3
Realistic
350
6B
  3
Shaded
350
6C
  3
Shaded with edges
350
6D
  3
Shades of Gray
350
6E
  3
Sketchy
350
6F
  3
Thicken
350
70
  3
Wireframe
350
71
  3
X-Ray
350
72
  0
LAYOUT
  5
1A
330
D
100
AcDbPlotSettings
  1

  4
A3
  6

 40
7.5
 41
20.0
 42
7.5
 43
20.0
 44
420.0
 45
297.0
 46
0.0
 47
0.0
 48
0.0
 49
0.0
140
0.0
141
0.0
142
1.0
143
1.0
 70
1024
 72
1
 73
0
 74
5
  7

 75
16
 76
0
 77
2
 78
300
147
1.0
148
0.0
149
0.0
100
AcDbLayout
  1
Model
 70
1
 71
0
 10
0.0
 20
0.0
 11
420.0
 21
297.0
 12
0.0
 22
0.0
 32
0.0
 14
1e+20
 24
1e+20
 34
1e+20
 15
-1e+20
 25
-1e+20
 35
-1e+20
146
0.0
 13
0.0
 23
0.0
 33
0.0
 16
1.0
 26
0.0
 36
0.0
 17
0.0
 27
1.0
 37
0.0
 76
1
330
17
  0
LAYOUT
  5
1E
330
D
100
AcDbPlotSettings
  1

  4
A3
  6

 40
7.5
 41
20.0
 42
7.5
 43
20.0
 44
420.0
 45
297.0
 46
0.0
 47
0.0
 48
0.0
 49
0.0
140
0.0
141
0.0
142
1.0
143
1.0
 70
0
 72
1
 73
0
 74
5
  7

 75
16
 76
0
 77
2
 78
300
147
1.0
148
0.0
149
0.0
100
AcDbLayout
  1
Layout1
 70
1
 71
1
 10
0.0
 20
0.0
 11
420.0
 21
297.0
 12
0.0
 22
0.0
 32
0.0
 14
1e+20
 24
1e+20
 34
1e+20
 15
-1e+20
 25
-1e+20
 35
-1e+20
146
0.0
 13
0.0
 23
0.0
 33
0.0
 16
1.0
 26
0.0
 36
0.0
 17
0.0
 27
1.0
 37
0.0
 76
1
330
1B
  0
MATERIAL
  5
1F
102
{ACAD_REACTORS
330
E
102
}
330
E
100
AcDbMaterial
  1
ByBlock
  2

 70
0
 40
1.0
 71
1
 41
1.0
 91
-1023410177
 42
1.0
 72
1
  3

 73
1
 74
1
 75
1
 44
0.5
 73
0
 45
1.0
 46
1.0
 77
1
  4

 78
1
 79
1
170
1
 48
1.0
171
1
  6

172
1
173
1
174
1
140
1.0
141
1.0
175
1
  7

176
1
177
1
178
1
143
1.0
179
1
  8

270
1
271
1
272
1
145
1.0
146
1.0
273
1
  9

274
1
275
1
276
1
 42
1.0
 72
1
  3

 73
1
 74
1
 75
1
 94
63
  0
MATERIAL
  5
20
102
{ACAD_REACTORS
330
E
102
}
330
E
100
AcDbMaterial
  1
ByLayer
  2

 70
0
 40
1.0
 71
1
 41
1.0
 91
-1023410177
 42
1.0
 72
1
  3

 73
1
 74
1
 75
1
 44
0.5
 73
0
 45
1.0
 46
1.0
 77
1
  4

 78
1
 79
1
170
1
 48
1.0
171
1
  6

172
1
173
1
174
1
140
1.0
141
1.0
175
1
  7

176
1
177
1
178
1
143
1.0
179
1
  8

270
1
271
1
272
1
145
1.0
146
1.0
273
1
  9

274
1
275
1
276
1
 42
1.0
 72
1
  3

 73
1
 74
1
 75
1
 94
63
  0
MATERIAL
  5
21
102
{ACAD_REACTORS
330
E
102
}
330
E
100
AcDbMaterial
  1
Global
  2

 70
0
 40
1.0
 71
1
 41
1.0
 91
-1023410177
 42
1.0
 72
1
  3

 73
1
 74
1
 75
1
 44
0.5
 73
0
 45
1.0
 46
1.0
 77
1
  4

 78
1
 79
1
170
1
 48
1.0
171
1
  6

172
1
173
1
174
1
140
1.0
141
1.0
175
1
  7

176
1
177
1
178
1
143
1.0
179
1
  8

270
1
271
1
272
1
145
1.0
146
1.0
273
1
  9

274
1
275
1
276
1
 42
1.0
 72
1
  3

 73
1
 74
1
 75
1
 94
63
  0
MLINESTYLE
  5
22
102
{ACAD_REACTORS
330
10
102
}
330
10
100
AcDbMlineStyle
  2
Standard
 70
0
  3

 62
256
 51
90.0
 52
90.0
 71
2
 49
0.5
 62
256
  6
BYLAYER
 49
-0.5
 62
256
  6
BYLAYER
  0
MLEADERSTYLE
  5
2C
102
{ACAD_REACTORS
330
F
102
}
330
F
100
AcDbMLeaderStyle
179
2
170
2
171
1
172
0
 90
2
 40
0.0
 41
0.0
173
1
 91
-1056964608
 92
-2
290
1
 42
2.0
291
1
 43
8.0
  3
Standard
 44
4.0
300

342
29
174
1
175
1
176
0
178
1
 93
-1056964608
 45
4.0
292
0
297
0
 46
4.0
 94
-1056964608
 47
1.0
 49
1.0
140
1.0
294
1
141
0.0
177
0
142
1.0
295
0
296
0
143
3.75
271
0
272
9
273
9
  0
DICTIONARY
  5
2D
330
A
100
AcDbDictionary
280
1
281
1
  3
CREATED_BY_EZDXF
350
2E
  3
WRITTEN_BY_EZDXF
350
17F
  0
DICTIONARYVAR
  5
2E
330
2D
100
DictionaryVariables
280
0
  1
1.4.4 @ 2026-09-24T07:01:35.799160+00:00
  0
VISUALSTYLE
  5
5A
102
{ACAD_REACTORS
330
16
102
}
330
16
100
AcDbVisualStyle
  2
2dWireframe
 70
4
 90
0
 40
0.6
 62
7
290
0
291
0
  0
VISUALSTYLE
  5
5B
102
{ACAD_REACTORS
330
16
102
}
330
16
100
AcDbVisualStyle
  2
Basic
 70
7
 90
1
 40
0.6
 62
7
290
0
291
1
  0
VISUALSTYLE
  5
5C
102
{ACAD_REACTORS
330
16
102
}
330
16
100
AcDbVisualStyle
  2
Brighten
 70
12
 90
2
 40
0.6
 62
7
290
0
291
1
  0
VISUALSTYLE
  5
5D
102
{ACAD_REACTORS
330
16
102
}
330
16
100
AcDbVisualStyle
  2
ColorChange
 70
16
 90
2
 40
0.6
 62
8
290
0
291
1
  0
VISUALSTYLE
  5
5E
102
{ACAD_REACTORS
330
16
102
}
330
16
100
AcDbVisualStyle
  2
Conceptual
 70
9
 90
3
 40
0.6
 62
7
290
0
291
0
  0
VISUALSTYLE
  5
5F
102
{ACAD_REACTORS
330
16
102
}
330
16
100
AcDbVisualStyle
  2
Dim
 70
11
 90
2
 40
0.6
 62
7
290
0
291
1
  0
VISUALSTYLE
  5
60
102
{ACAD_REACTORS
330
16
102
}
330
16
100
AcDbVisualStyle
  2
EdgeColorOff
 70
22
 90
2
 40
0.6
 62
7
290
0
291
1
  0
VISUALSTYLE
  5
61
102
{ACAD_REACTORS
330
16
102
}
330
16
100
AcDbVisualStyle
  2
Facepattern
 70
15
 90
2
 40
0.6
 62
7
290
0
291
1
  0
VISUALSTYLE
  5
62
102
{ACAD_REACTORS
330
16
102
}
330
16
100
AcDbVisualStyle
  2
Flat
 70
0
 90
2
 40
0.6
 62
7
290
0
291
1
  0
VISUALSTYLE
  5
63
102
{ACAD_REACTORS
330
16
102
}
330
16
100
AcDbVisualStyle
  2
FlatWithEdges
 70
1
 90
2
 40
0.6
 62
7
290
0
291
1
  0
VISUALSTYLE
  5
64
102
{ACAD_REACTORS
330
16
102
}
330
16
100
AcDbVisualStyle
  2
Gouraud
 70
2
 90
2
 40
0.6
 62
7
290
0
291
1
  0
VISUALSTYLE
  5
65
102
{ACAD_REACTORS
330
16
102
}
330
16
100
AcDbVisualStyle
  2
GouraudWithEdges
 70
3
 90
2
 40
0.6
 62
7
290
0
291
1
  0
VISUALSTYLE
  5
66
102
{ACAD_REACTORS
330
16
102
}
330
16
100
AcDbVisualStyle
  2
Hidden
 70
6
 90
1
 40
0.6
 62
7
290
0
291
0
  0
VISUALSTYLE
  5
67
102
{ACAD_REACTORS
330
16
102
}
330
16
100
AcDbVisualStyle
  2
JitterOff
 70
20
 90
2
 40
0.6
 62
7
290
0
291
1
  0
VISUALSTYLE
  5
68
102
{ACAD_REACTORS
330
16
102
}
330
16
100
AcDbVisualStyle
  2
Linepattern
 70
14
 90
2
 40
0.6
 62
7
290
0
291
1
  0
VISUALSTYLE
  5
69
102
{ACAD_REACTORS
330
16
102
}
330
16
100
AcDbVisualStyle
  2
Modeling
 70
10
 90
2
 40
0.6
 62
7
290
0
291
0
  0
VISUALSTYLE
  5
6A
102
{ACAD_REACTORS
330
16
102
}
330
16
100
AcDbVisualStyle
  2
OverhangOff
 70
21
 90
2
 40
0.6
 62
7
290
0
291
1
  0
VISUALSTYLE
  5
6B
102
{ACAD_REACTORS
330
16
102
}
330
16
100
AcDbVisualStyle
  2
Realistic
 70
8
 90
2
 40
0.6
 62
7
290
0
291
0
  0
VISUALSTYLE
  5
6C
102
{ACAD_REACTORS
330
16
102
}
330
16
100
AcDbVisualStyle
  2
Shaded
 70
27
 90
2
 40
0.6
 62
7
290
0
291
0
  0
VISUALSTYLE
  5
6D
102
{ACAD_REACTORS
330
16
102
}
330
16
100
AcDbVisualStyle
  2
Shaded with edges
 70
26
 90
2
 40
0.6
 62
7
290
0
291
0
  0
VISUALSTYLE
  5
6E
102
{ACAD_REACTORS
330
16
102
}
330
16
100
AcDbVisualStyle
  2
Shades of Gray
 70
23
 90
2
 40
0.6
 62
7
290
0
291
0
  0
VISUALSTYLE
  5
6F
102
{ACAD_REACTORS
330
16
102
}
330
16
100
AcDbVisualStyle
  2
Sketchy
 70
24
 90
1
 40
0.6
 62
7
290
0
291
0
  0
VISUALSTYLE
  5
70
102
{ACAD_REACTORS
330
16
102
}
330
16
100
AcDbVisualStyle
  2
Thicken
 70
13
 90
2
 40
0.6
 62
7
290
0
291
1
  0
VISUALSTYLE
  5
71
102
{ACAD_REACTORS
330
16
102
}
330
16
100
AcDbVisualStyle
  2
Wireframe
 70
5
 90
0
 40
0.6
 62
7
290
0
291
0
  0
VISUALSTYLE
  5
72
102
{ACAD_REACTORS
330
16
102
}
330
16
100
AcDbVisualStyle
  2
X-Ray
 70
25
 90
2
 40
0.5
 62
7
290
0
291
0
  0
DICTIONARYVAR
  5
17F
330
2D
100
DictionaryVariables
280
0
  1
1.4.4 @ 2026-09-24T07:01:35.811736+00:00
  0
ENDSEC
  0
EOF
