0
SECTION
2
HEADER
9
$ACADVER
1
AC1009
9
$DWGCODEPAGE
3
ANSI_1252
0
ENDSEC
0
SECTION
2
TABLES
0
TABLE
2
LTYPE
70
6
0
LTYPE
2
CONTINUOUS
70
0
3
Solid
72
65
73
0
40
0.0
0
LTYPE
2
DASHED
70
0
3
Dashed
72
65
73
2
40
0.75
49
0.5
74
0
49
-0.25
74
0
0
LTYPE
2
DASHED2
70
0
3
Dashed (.5x)
72
65
73
2
40
0.375
49
0.25
74
0
49
-0.125
74
0
0
LTYPE
2
HIDDEN
70
0
3
Hidden
72
65
73
2
40
0.375
49
0.25
74
0
49
-0.125
74
0
0
LTYPE
2
CENTER
70
0
3
Center
72
65
73
4
40
2.0
49
1.25
74
0
49
-0.25
74
0
49
0.25
74
0
49
-0.25
74
0
0
LTYPE
2
PHANTOM
70
0
3
Phantom
72
65
73
6
40
2.5
49
1.25
74
0
49
-0.25
74
0
49
0.25
74
0
49
-0.25
74
0
49
0.25
74
0
49
-0.25
74
0
0
ENDTAB
0
TABLE
2
LAYER
70
11
0
LAYER
2
0
70
0
62
7
6
CONTINUOUS
0
LAYER
2
BOUNDARY
70
0
62
7
6
CONTINUOUS
0
LAYER
2
ROW
70
0
62
2
6
CONTINUOUS
0
LAYER
2
CENTERLINE
70
0
62
8
6
DASHED
0
LAYER
2
FILLET
70
0
62
6
6
CONTINUOUS
0
LAYER
2
LOT
70
0
62
4
6
CONTINUOUS
0
LAYER
2
LOT-CURVE
70
0
62
6
6
CONTINUOUS
0
LAYER
2
BLOCK-MISFIT
70
0
62
1
6
CONTINUOUS
0
LAYER
2
LOT-TEXT
70
0
62
7
6
CONTINUOUS
0
LAYER
2
BLOCK-TEXT
70
0
62
2
6
CONTINUOUS
0
LAYER
2
TITLEBLOCK
70
0
62
2
6
CONTINUOUS
0
ENDTAB
0
TABLE
2
STYLE
70
4
0
STYLE
2
STANDARD
70
0
40
0.0
41
1.0
50
0.0
71
0
42
0.2
3
Arial
4

0
STYLE
2
ARIAL
70
0
40
0.0
41
1.0
50
0.0
71
0
42
0.2
3
Arial
4

0
STYLE
2
ARIAL_TTF
70
0
40
0.0
41
1.0
50
0.0
71
0
42
0.2
3
arial.ttf
4

0
STYLE
2
SIMPLEX
70
0
40
0.0
41
1.0
50
0.0
71
0
42
0.2
3
simplex.shx
4

0
ENDTAB
0
ENDSEC
0
SECTION
2
ENTITIES
0
LINE
8
BOUNDARY
10
9812.5952
20
10172.2772
30
0.0
11
9843.2915
21
9442.4225
31
0.0
0
LINE
8
BOUNDARY
10
9843.2915
20
9442.4225
30
0.0
11
9870.3630
21
7933.4253
31
0.0
0
LINE
8
BOUNDARY
10
9870.3630
20
7933.4253
30
0.0
11
9920.3593
21
7934.0313
31
0.0
0
LINE
8
BOUNDARY
10
9920.3593
20
7934.0313
30
0.0
11
9922.1530
21
7834.0474
31
0.0
0
LINE
8
BOUNDARY
10
9922.1530
20
7834.0474
30
0.0
11
10319.5538
21
7838.8642
31
0.0
0
LINE
8
BOUNDARY
10
10319.5538
20
7838.8642
30
0.0
11
10318.3418
21
7938.8569
31
0.0
0
LINE
8
BOUNDARY
10
10318.3418
20
7938.8569
30
0.0
11
10321.9219
21
7998.9103
31
0.0
0
LINE
8
BOUNDARY
10
10321.9219
20
7998.9103
30
0.0
11
10319.4979
21
8198.8956
31
0.0
0
LINE
8
BOUNDARY
10
10319.4979
20
8198.8956
30
0.0
11
10288.7763
21
8258.5383
31
0.0
0
LINE
8
BOUNDARY
10
10288.7763
20
8258.5383
30
0.0
11
10287.5376
21
8360.7307
31
0.0
0
LINE
8
BOUNDARY
10
10287.5376
20
8360.7307
30
0.0
11
10275.8543
21
8363.7616
31
0.0
0
LINE
8
BOUNDARY
10
10275.8543
20
8363.7616
30
0.0
11
10345.2067
21
8461.6914
31
0.0
0
LINE
8
BOUNDARY
10
10345.2067
20
8461.6914
30
0.0
11
10339.3964
21
8539.3544
31
0.0
0
LINE
8
BOUNDARY
10
10339.3964
20
8539.3544
30
0.0
11
10454.9837
21
8702.5707
31
0.0
0
LINE
8
BOUNDARY
10
10454.9837
20
8702.5707
30
0.0
11
10503.9953
21
8741.4020
31
0.0
0
LINE
8
BOUNDARY
10
10503.9953
20
8741.4020
30
0.0
11
10584.9064
21
8855.6534
31
0.0
0
LINE
8
BOUNDARY
10
10584.9064
20
8855.6534
30
0.0
11
10829.7309
21
8682.2724
31
0.0
0
LINE
8
BOUNDARY
10
10829.7309
20
8682.2724
30
0.0
11
10887.5245
21
8763.8806
31
0.0
0
LINE
8
BOUNDARY
10
10887.5245
20
8763.8806
30
0.0
11
10925.4269
21
8810.5735
31
0.0
0
LINE
8
BOUNDARY
10
10925.4269
20
8810.5735
30
0.0
11
11075.6905
21
9022.7547
31
0.0
0
LINE
8
BOUNDARY
10
11075.6905
20
9022.7547
30
0.0
11
11157.4292
21
8964.8685
31
0.0
0
LINE
8
BOUNDARY
10
11157.4292
20
8964.8685
30
0.0
11
11242.1242
21
8911.7389
31
0.0
0
LINE
8
BOUNDARY
10
11242.1242
20
8911.7389
30
0.0
11
11290.4448
21
8999.2896
31
0.0
0
LINE
8
BOUNDARY
10
11290.4448
20
8999.2896
30
0.0
11
11373.0022
21
8962.1906
31
0.0
0
LINE
8
BOUNDARY
10
11373.0022
20
8962.1906
30
0.0
11
11452.6422
21
8992.8006
31
0.0
0
LINE
8
BOUNDARY
10
11452.6422
20
8992.8006
30
0.0
11
11437.5170
21
10240.6589
31
0.0
0
LINE
8
BOUNDARY
10
11437.5170
20
10240.6589
30
0.0
11
9812.5836
21
10172.3173
31
0.0
0
POLYLINE
8
ROW
66
1
70
0
0
VERTEX
8
ROW
10
10022.4080
20
10181.1421
30
0.0
0
VERTEX
8
ROW
10
10028.7129
20
10031.2341
30
0.0
0
SEQEND
0
POLYLINE
8
ROW
66
1
70
0
0
VERTEX
8
ROW
10
10032.2847
20
9946.3092
30
0.0
0
VERTEX
8
ROW
10
10038.5878
20
9796.4417
30
0.0
0
SEQEND
0
POLYLINE
8
ROW
66
1
70
0
0
VERTEX
8
ROW
10
10043.2101
20
9686.5389
30
0.0
0
VERTEX
8
ROW
10
10049.5133
20
9536.6714
30
0.0
0
SEQEND
0
POLYLINE
8
ROW
66
1
70
0
0
VERTEX
8
ROW
10
9962.4610
20
10178.6208
30
0.0
0
VERTEX
8
ROW
10
9968.7659
20
10028.7129
30
0.0
0
SEQEND
0
POLYLINE
8
ROW
66
1
70
0
0
VERTEX
8
ROW
10
9972.3377
20
9943.7880
30
0.0
0
VERTEX
8
ROW
10
9993.2350
20
9446.9200
30
0.0
0
SEQEND
0
POLYLINE
8
ROW
66
1
70
0
0
VERTEX
8
ROW
10
10053.5957
20
9427.3487
30
0.0
0
VERTEX
8
ROW
10
10056.3103
20
9276.0378
30
0.0
0
SEQEND
0
POLYLINE
8
ROW
66
1
70
0
0
VERTEX
8
ROW
10
10058.2834
20
9166.0555
30
0.0
0
VERTEX
8
ROW
10
10059.1802
20
9116.0635
30
0.0
0
SEQEND
0
POLYLINE
8
ROW
66
1
70
0
0
VERTEX
8
ROW
10
10060.7946
20
9026.0780
30
0.0
0
VERTEX
8
ROW
10
10061.6914
20
8976.0860
30
0.0
0
SEQEND
0
POLYLINE
8
ROW
66
1
70
0
0
VERTEX
8
ROW
10
10063.6645
20
8866.1037
30
0.0
0
VERTEX
8
ROW
10
10067.2340
20
8667.1357
30
0.0
0
SEQEND
0
POLYLINE
8
ROW
66
1
70
0
0
VERTEX
8
ROW
10
10069.2071
20
8557.1534
30
0.0
0
VERTEX
8
ROW
10
10074.1652
20
8280.7829
30
0.0
0
SEQEND
0
POLYLINE
8
ROW
66
1
70
0
0
VERTEX
8
ROW
10
10076.1383
20
8170.7987
30
0.0
0
VERTEX
8
ROW
10
10078.8290
20
8020.8129
30
0.0
0
SEQEND
0
POLYLINE
8
ROW
66
1
70
0
0
VERTEX
8
ROW
10
9993.2350
20
9446.9200
30
0.0
0
VERTEX
8
ROW
10
9999.1899
20
9114.9873
30
0.0
0
SEQEND
0
POLYLINE
8
ROW
66
1
70
0
0
VERTEX
8
ROW
10
10000.8042
20
9025.0018
30
0.0
0
VERTEX
8
ROW
10
10001.7011
20
8975.0098
30
0.0
0
SEQEND
0
POLYLINE
8
ROW
66
1
70
0
0
VERTEX
8
ROW
10
10003.6742
20
8865.0275
30
0.0
0
VERTEX
8
ROW
10
10018.8272
20
8020.3765
30
0.0
0
SEQEND
0
POLYLINE
8
ROW
66
1
70
0
0
VERTEX
8
ROW
10
9869.2867
20
7993.4166
30
0.0
0
VERTEX
8
ROW
10
9994.1342
20
7994.9299
30
0.0
0
SEQEND
0
POLYLINE
8
ROW
66
1
70
0
0
VERTEX
8
ROW
10
10104.1280
20
7996.2631
30
0.0
0
VERTEX
8
ROW
10
10321.9215
20
7998.9030
30
0.0
0
SEQEND
0
POLYLINE
8
ROW
66
1
70
0
0
VERTEX
8
ROW
10
9870.3630
20
7933.4253
30
0.0
0
VERTEX
8
ROW
10
10318.3417
20
7938.8552
30
0.0
0
SEQEND
0
POLYLINE
8
ROW
66
1
70
0
0
VERTEX
8
ROW
10
10099.4642
20
8256.2332
30
0.0
0
VERTEX
8
ROW
10
10288.7816
20
8258.5279
30
0.0
0
SEQEND
0
POLYLINE
8
ROW
66
1
70
0
0
VERTEX
8
ROW
10
10100.8313
20
8196.2453
30
0.0
0
VERTEX
8
ROW
10
10319.4978
20
8198.8958
30
0.0
0
SEQEND
0
POLYLINE
8
ROW
66
1
70
0
0
VERTEX
8
ROW
10
9818.8984
20
10022.4097
30
0.0
0
VERTEX
8
ROW
10
9968.7659
20
10028.7129
30
0.0
0
SEQEND
0
POLYLINE
8
ROW
66
1
70
0
0
VERTEX
8
ROW
10
10028.7129
20
10031.2341
30
0.0
0
VERTEX
8
ROW
10
11335.1295
20
10086.1796
30
0.0
0
SEQEND
0
POLYLINE
8
ROW
66
1
70
0
0
VERTEX
8
ROW
10
9821.4196
20
9962.4627
30
0.0
0
VERTEX
8
ROW
10
9946.3092
20
9967.7153
30
0.0
0
SEQEND
0
POLYLINE
8
ROW
66
1
70
0
0
VERTEX
8
ROW
10
10056.2120
20
9972.3377
30
0.0
0
VERTEX
8
ROW
10
11334.3623
20
10026.0942
30
0.0
0
SEQEND
0
POLYLINE
8
ROW
66
1
70
0
0
VERTEX
8
ROW
10
10064.6162
20
9772.5143
30
0.0
0
VERTEX
8
ROW
10
11338.2821
20
9826.0823
30
0.0
0
SEQEND
0
POLYLINE
8
ROW
66
1
70
0
0
VERTEX
8
ROW
10
10067.1375
20
9712.5673
30
0.0
0
VERTEX
8
ROW
10
11337.5149
20
9765.9970
30
0.0
0
SEQEND
0
POLYLINE
8
ROW
66
1
70
0
0
VERTEX
8
ROW
10
11437.5170
20
10240.6589
30
0.0
0
VERTEX
8
ROW
10
11452.6422
20
8992.8006
30
0.0
0
SEQEND
0
POLYLINE
8
ROW
66
1
70
0
0
VERTEX
8
ROW
10
11357.5519
20
10237.2957
30
0.0
0
VERTEX
8
ROW
10
11359.0772
20
10111.4605
30
0.0
0
SEQEND
0
POLYLINE
8
ROW
66
1
70
0
0
VERTEX
8
ROW
10
11360.4110
20
10001.4193
30
0.0
0
VERTEX
8
ROW
10
11362.2298
20
9851.3632
30
0.0
0
SEQEND
0
POLYLINE
8
ROW
66
1
70
0
0
VERTEX
8
ROW
10
11363.5636
20
9741.3221
30
0.0
0
VERTEX
8
ROW
10
11365.3824
20
9591.2660
30
0.0
0
SEQEND
0
POLYLINE
8
ROW
66
1
70
0
0
VERTEX
8
ROW
10
11366.7162
20
9481.2248
30
0.0
0
VERTEX
8
ROW
10
11368.5350
20
9331.1687
30
0.0
0
SEQEND
0
POLYLINE
8
ROW
66
1
70
0
0
VERTEX
8
ROW
10
11369.8688
20
9221.1275
30
0.0
0
VERTEX
8
ROW
10
11373.0074
20
8962.1926
30
0.0
0
SEQEND
0
POLYLINE
8
ROW
66
1
70
0
0
VERTEX
8
ROW
10
10075.5417
20
9512.7440
30
0.0
0
VERTEX
8
ROW
10
10233.6619
20
9519.3942
30
0.0
0
SEQEND
0
POLYLINE
8
ROW
66
1
70
0
0
VERTEX
8
ROW
10
10077.5412
20
9452.7750
30
0.0
0
VERTEX
8
ROW
10
10236.1832
20
9459.4472
30
0.0
0
SEQEND
0
POLYLINE
8
ROW
66
1
70
0
0
VERTEX
8
ROW
10
10236.1832
20
9459.4472
30
0.0
0
VERTEX
8
ROW
10
10241.2205
20
9459.6204
30
0.0
0
VERTEX
8
ROW
10
10246.2599
20
9459.7166
30
0.0
0
VERTEX
8
ROW
10
10251.3002
20
9459.7355
30
0.0
0
VERTEX
8
ROW
10
10256.3402
20
9459.6774
30
0.0
0
VERTEX
8
ROW
10
10261.3787
20
9459.5420
30
0.0
0
VERTEX
8
ROW
10
10266.4145
20
9459.3296
30
0.0
0
VERTEX
8
ROW
10
10271.4465
20
9459.0401
30
0.0
0
VERTEX
8
ROW
10
10276.4735
20
9458.6736
30
0.0
0
VERTEX
8
ROW
10
10281.4943
20
9458.2302
30
0.0
0
VERTEX
8
ROW
10
10286.5077
20
9457.7100
30
0.0
0
VERTEX
8
ROW
10
10291.5125
20
9457.1132
30
0.0
0
VERTEX
8
ROW
10
10296.5077
20
9456.4398
30
0.0
0
VERTEX
8
ROW
10
10301.4919
20
9455.6900
30
0.0
0
VERTEX
8
ROW
10
10306.4641
20
9454.8640
30
0.0
0
VERTEX
8
ROW
10
10311.4231
20
9453.9620
30
0.0
0
VERTEX
8
ROW
10
10316.3676
20
9452.9841
30
0.0
0
VERTEX
8
ROW
10
10321.2966
20
9451.9308
30
0.0
0
VERTEX
8
ROW
10
10326.2089
20
9450.8021
30
0.0
0
VERTEX
8
ROW
10
10331.1034
20
9449.5983
30
0.0
0
VERTEX
8
ROW
10
10335.9789
20
9448.3197
30
0.0
0
VERTEX
8
ROW
10
10340.8342
20
9446.9667
30
0.0
0
VERTEX
8
ROW
10
10345.6682
20
9445.5395
30
0.0
0
VERTEX
8
ROW
10
10350.4799
20
9444.0385
30
0.0
0
VERTEX
8
ROW
10
10355.2680
20
9442.4640
30
0.0
0
VERTEX
8
ROW
10
10360.0314
20
9440.8164
30
0.0
0
VERTEX
8
ROW
10
10364.7690
20
9439.0961
30
0.0
0
VERTEX
8
ROW
10
10369.4798
20
9437.3034
30
0.0
0
VERTEX
8
ROW
10
10374.1626
20
9435.4389
30
0.0
0
VERTEX
8
ROW
10
10378.8162
20
9433.5029
30
0.0
0
VERTEX
8
ROW
10
10383.4397
20
9431.4959
30
0.0
0
VERTEX
8
ROW
10
10388.0320
20
9429.4183
30
0.0
0
VERTEX
8
ROW
10
10392.5919
20
9427.2707
30
0.0
0
VERTEX
8
ROW
10
10397.1183
20
9425.0536
30
0.0
0
VERTEX
8
ROW
10
10401.6104
20
9422.7674
30
0.0
0
VERTEX
8
ROW
10
10406.0669
20
9420.4127
30
0.0
0
VERTEX
8
ROW
10
10410.4868
20
9417.9901
30
0.0
0
VERTEX
8
ROW
10
10414.8691
20
9415.5001
30
0.0
0
VERTEX
8
ROW
10
10419.2128
20
9412.9434
30
0.0
0
VERTEX
8
ROW
10
10423.5169
20
9410.3204
30
0.0
0
VERTEX
8
ROW
10
10427.7803
20
9407.6319
30
0.0
0
VERTEX
8
ROW
10
10432.0021
20
9404.8784
30
0.0
0
VERTEX
8
ROW
10
10436.1812
20
9402.0606
30
0.0
0
VERTEX
8
ROW
10
10440.3166
20
9399.1792
30
0.0
0
SEQEND
0
POLYLINE
8
ROW
66
1
70
0
0
VERTEX
8
ROW
10
10233.6619
20
9519.3942
30
0.0
0
VERTEX
8
ROW
10
10238.6828
20
9519.5729
30
0.0
0
VERTEX
8
ROW
10
10243.7056
20
9519.6868
30
0.0
0
VERTEX
8
ROW
10
10248.7294
20
9519.7359
30
0.0
0
VERTEX
8
ROW
10
10253.7535
20
9519.7201
30
0.0
0
VERTEX
8
ROW
10
10258.7769
20
9519.6395
30
0.0
0
VERTEX
8
ROW
10
10263.7989
20
9519.4941
30
0.0
0
VERTEX
8
ROW
10
10268.8186
20
9519.2838
30
0.0
0
VERTEX
8
ROW
10
10273.8351
20
9519.0088
30
0.0
0
VERTEX
8
ROW
10
10278.8477
20
9518.6691
30
0.0
0
VERTEX
8
ROW
10
10283.8555
20
9518.2647
30
0.0
0
VERTEX
8
ROW
10
10288.8576
20
9517.7957
30
0.0
0
VERTEX
8
ROW
10
10293.8533
20
9517.2622
30
0.0
0
VERTEX
8
ROW
10
10298.8417
20
9516.6642
30
0.0
0
VERTEX
8
ROW
10
10303.8219
20
9516.0020
30
0.0
0
VERTEX
8
ROW
10
10308.7932
20
9515.2755
30
0.0
0
VERTEX
8
ROW
10
10313.7547
20
9514.4849
30
0.0
0
VERTEX
8
ROW
10
10318.7055
20
9513.6303
30
0.0
0
VERTEX
8
ROW
10
10323.6449
20
9512.7119
30
0.0
0
VERTEX
8
ROW
10
10328.5721
20
9511.7299
30
0.0
0
VERTEX
8
ROW
10
10333.4862
20
9510.6843
30
0.0
0
VERTEX
8
ROW
10
10338.3864
20
9509.5754
30
0.0
0
VERTEX
8
ROW
10
10343.2718
20
9508.4034
30
0.0
0
VERTEX
8
ROW
10
10348.1417
20
9507.1684
30
0.0
0
VERTEX
8
ROW
10
10352.9953
20
9505.8706
30
0.0
0
VERTEX
8
ROW
10
10357.8317
20
9504.5103
30
0.0
0
VERTEX
8
ROW
10
10362.6502
20
9503.0877
30
0.0
0
VERTEX
8
ROW
10
10367.4499
20
9501.6031
30
0.0
0
VERTEX
8
ROW
10
10372.2300
20
9500.0566
30
0.0
0
VERTEX
8
ROW
10
10376.9898
20
9498.4485
30
0.0
0
VERTEX
8
ROW
10
10381.7285
20
9496.7792
30
0.0
0
VERTEX
8
ROW
10
10386.4452
20
9495.0488
30
0.0
0
VERTEX
8
ROW
10
10391.1391
20
9493.2577
30
0.0
0
VERTEX
8
ROW
10
10395.8096
20
9491.4062
30
0.0
0
VERTEX
8
ROW
10
10400.4558
20
9489.4945
30
0.0
0
VERTEX
8
ROW
10
10405.0769
20
9487.5231
30
0.0
0
VERTEX
8
ROW
10
10409.6722
20
9485.4922
30
0.0
0
VERTEX
8
ROW
10
10414.2409
20
9483.4021
30
0.0
0
VERTEX
8
ROW
10
10418.7822
20
9481.2532
30
0.0
0
VERTEX
8
ROW
10
10423.2954
20
9479.0459
30
0.0
0
VERTEX
8
ROW
10
10427.7798
20
9476.7806
30
0.0
0
VERTEX
8
ROW
10
10432.2345
20
9474.4575
30
0.0
0
VERTEX
8
ROW
10
10436.6589
20
9472.0772
30
0.0
0
VERTEX
8
ROW
10
10441.0523
20
9469.6399
30
0.0
0
VERTEX
8
ROW
10
10445.4137
20
9467.1462
30
0.0
0
VERTEX
8
ROW
10
10449.7427
20
9464.5964
30
0.0
0
VERTEX
8
ROW
10
10454.0384
20
9461.9909
30
0.0
0
VERTEX
8
ROW
10
10458.3001
20
9459.3302
30
0.0
0
VERTEX
8
ROW
10
10462.5270
20
9456.6147
30
0.0
0
VERTEX
8
ROW
10
10466.7186
20
9453.8449
30
0.0
0
VERTEX
8
ROW
10
10470.8741
20
9451.0212
30
0.0
0
VERTEX
8
ROW
10
10474.9929
20
9448.1441
30
0.0
0
SEQEND
0
POLYLINE
8
ROW
66
1
70
0
0
VERTEX
8
ROW
10
10474.9929
20
9448.1441
30
0.0
0
VERTEX
8
ROW
10
10474.9998
20
9448.1392
30
0.0
0
SEQEND
0
POLYLINE
8
ROW
66
1
70
0
0
VERTEX
8
ROW
10
10564.7688
20
9384.5661
30
0.0
0
VERTEX
8
ROW
10
10809.5994
20
9211.1807
30
0.0
0
SEQEND
0
POLYLINE
8
ROW
66
1
70
0
0
VERTEX
8
ROW
10
10899.3684
20
9147.6077
30
0.0
0
VERTEX
8
ROW
10
11075.6831
20
9022.7443
30
0.0
0
SEQEND
0
POLYLINE
8
ROW
66
1
70
0
0
VERTEX
8
ROW
10
10440.3166
20
9399.1792
30
0.0
0
VERTEX
8
ROW
10
11041.0069
20
8973.7794
30
0.0
0
SEQEND
0
POLYLINE
8
ROW
66
1
70
0
0
VERTEX
8
ROW
10
10558.8072
20
9419.4054
30
0.0
0
VERTEX
8
ROW
10
10558.8112
20
9419.4110
30
0.0
0
VERTEX
8
ROW
10
10558.8151
20
9419.4166
30
0.0
0
SEQEND
0
POLYLINE
8
ROW
66
1
70
0
0
VERTEX
8
ROW
10
10558.8151
20
9419.4166
30
0.0
0
VERTEX
8
ROW
10
10561.7998
20
9423.4712
30
0.0
0
VERTEX
8
ROW
10
10564.9304
20
9427.4143
30
0.0
0
VERTEX
8
ROW
10
10568.2028
20
9431.2405
30
0.0
0
VERTEX
8
ROW
10
10571.6126
20
9434.9447
30
0.0
0
VERTEX
8
ROW
10
10575.1554
20
9438.5220
30
0.0
0
VERTEX
8
ROW
10
10578.8263
20
9441.9677
30
0.0
0
VERTEX
8
ROW
10
10582.6205
20
9445.2771
30
0.0
0
VERTEX
8
ROW
10
10586.5329
20
9448.4458
30
0.0
0
VERTEX
8
ROW
10
10590.5584
20
9451.4697
30
0.0
0
VERTEX
8
ROW
10
10594.6915
20
9454.3447
30
0.0
0
VERTEX
8
ROW
10
10598.9268
20
9457.0669
30
0.0
0
VERTEX
8
ROW
10
10603.2586
20
9459.6328
30
0.0
0
VERTEX
8
ROW
10
10607.6812
20
9462.0389
30
0.0
0
VERTEX
8
ROW
10
10612.1886
20
9464.2820
30
0.0
0
VERTEX
8
ROW
10
10616.7748
20
9466.3592
30
0.0
0
VERTEX
8
ROW
10
10621.4338
20
9468.2676
30
0.0
0
VERTEX
8
ROW
10
10626.1594
20
9470.0047
30
0.0
0
VERTEX
8
ROW
10
10630.9451
20
9471.5683
30
0.0
0
VERTEX
8
ROW
10
10635.7848
20
9472.9561
30
0.0
0
VERTEX
8
ROW
10
10640.6718
20
9474.1664
30
0.0
0
VERTEX
8
ROW
10
10645.5998
20
9475.1976
30
0.0
0
VERTEX
8
ROW
10
10650.5621
20
9476.0483
30
0.0
0
VERTEX
8
ROW
10
10655.5522
20
9476.7174
30
0.0
0
VERTEX
8
ROW
10
10660.5633
20
9477.2039
30
0.0
0
VERTEX
8
ROW
10
10665.5889
20
9477.5072
30
0.0
0
SEQEND
0
POLYLINE
8
ROW
66
1
70
0
0
VERTEX
8
ROW
10
10509.8502
20
9454.0928
30
0.0
0
VERTEX
8
ROW
10
10512.8019
20
9458.1501
30
0.0
0
VERTEX
8
ROW
10
10515.8554
20
9462.1312
30
0.0
0
VERTEX
8
ROW
10
10519.0088
20
9466.0337
30
0.0
0
VERTEX
8
ROW
10
10522.2602
20
9469.8550
30
0.0
0
VERTEX
8
ROW
10
10525.6073
20
9473.5927
30
0.0
0
VERTEX
8
ROW
10
10529.0481
20
9477.2443
30
0.0
0
VERTEX
8
ROW
10
10532.5803
20
9480.8076
30
0.0
0
VERTEX
8
ROW
10
10536.2017
20
9484.2802
30
0.0
0
VERTEX
8
ROW
10
10539.9100
20
9487.6599
30
0.0
0
VERTEX
8
ROW
10
10543.7027
20
9490.9446
30
0.0
0
VERTEX
8
ROW
10
10547.5774
20
9494.1320
30
0.0
0
VERTEX
8
ROW
10
10551.5317
20
9497.2202
30
0.0
0
VERTEX
8
ROW
10
10555.5630
20
9500.2073
30
0.0
0
VERTEX
8
ROW
10
10559.6687
20
9503.0911
30
0.0
0
VERTEX
8
ROW
10
10563.8462
20
9505.8701
30
0.0
0
VERTEX
8
ROW
10
10568.0927
20
9508.5422
30
0.0
0
VERTEX
8
ROW
10
10572.4056
20
9511.1058
30
0.0
0
VERTEX
8
ROW
10
10576.7821
20
9513.5594
30
0.0
0
VERTEX
8
ROW
10
10581.2194
20
9515.9012
30
0.0
0
VERTEX
8
ROW
10
10585.7146
20
9518.1298
30
0.0
0
VERTEX
8
ROW
10
10590.2649
20
9520.2437
30
0.0
0
VERTEX
8
ROW
10
10594.8672
20
9522.2417
30
0.0
0
VERTEX
8
ROW
10
10599.5187
20
9524.1224
30
0.0
0
VERTEX
8
ROW
10
10604.2164
20
9525.8845
30
0.0
0
VERTEX
8
ROW
10
10608.9573
20
9527.5271
30
0.0
0
VERTEX
8
ROW
10
10613.7382
20
9529.0490
30
0.0
0
VERTEX
8
ROW
10
10618.5562
20
9530.4492
30
0.0
0
VERTEX
8
ROW
10
10623.4081
20
9531.7268
30
0.0
0
VERTEX
8
ROW
10
10628.2909
20
9532.8811
30
0.0
0
VERTEX
8
ROW
10
10633.2013
20
9533.9113
30
0.0
0
VERTEX
8
ROW
10
10638.1362
20
9534.8166
30
0.0
0
VERTEX
8
ROW
10
10643.0926
20
9535.5966
30
0.0
0
VERTEX
8
ROW
10
10648.0671
20
9536.2508
30
0.0
0
VERTEX
8
ROW
10
10653.0565
20
9536.7786
30
0.0
0
VERTEX
8
ROW
10
10658.0578
20
9537.1798
30
0.0
0
VERTEX
8
ROW
10
10663.0676
20
9537.4542
30
0.0
0
SEQEND
0
POLYLINE
8
ROW
66
1
70
0
0
VERTEX
8
ROW
10
10663.0676
20
9537.4542
30
0.0
0
VERTEX
8
ROW
10
11341.4348
20
9565.9850
30
0.0
0
SEQEND
0
POLYLINE
8
ROW
66
1
70
0
0
VERTEX
8
ROW
10
10665.5889
20
9477.5072
30
0.0
0
VERTEX
8
ROW
10
11340.6675
20
9505.8997
30
0.0
0
SEQEND
0
POLYLINE
8
ROW
66
1
70
0
0
VERTEX
8
ROW
10
10844.4499
20
9217.1343
30
0.0
0
VERTEX
8
ROW
10
10844.5412
20
9217.2633
30
0.0
0
SEQEND
0
POLYLINE
8
ROW
66
1
70
0
0
VERTEX
8
ROW
10
10893.4148
20
9182.4581
30
0.0
0
VERTEX
8
ROW
10
10893.5061
20
9182.5871
30
0.0
0
SEQEND
0
POLYLINE
8
ROW
66
1
70
0
0
VERTEX
8
ROW
10
10893.5061
20
9182.5871
30
0.0
0
VERTEX
8
ROW
10
10896.6062
20
9186.7595
30
0.0
0
VERTEX
8
ROW
10
10899.8934
20
9190.7861
30
0.0
0
VERTEX
8
ROW
10
10903.3608
20
9194.6585
30
0.0
0
VERTEX
8
ROW
10
10907.0012
20
9198.3688
30
0.0
0
VERTEX
8
ROW
10
10910.8071
20
9201.9092
30
0.0
0
VERTEX
8
ROW
10
10914.7705
20
9205.2722
30
0.0
0
VERTEX
8
ROW
10
10918.8832
20
9208.4511
30
0.0
0
VERTEX
8
ROW
10
10923.1366
20
9211.4390
30
0.0
0
VERTEX
8
ROW
10
10927.5218
20
9214.2298
30
0.0
0
VERTEX
8
ROW
10
10932.0298
20
9216.8176
30
0.0
0
VERTEX
8
ROW
10
10936.6511
20
9219.1972
30
0.0
0
VERTEX
8
ROW
10
10941.3762
20
9221.3635
30
0.0
0
VERTEX
8
ROW
10
10946.1951
20
9223.3120
30
0.0
0
VERTEX
8
ROW
10
10951.0979
20
9225.0386
30
0.0
0
VERTEX
8
ROW
10
10956.0744
20
9226.5399
30
0.0
0
VERTEX
8
ROW
10
10961.1142
20
9227.8126
30
0.0
0
VERTEX
8
ROW
10
10966.2067
20
9228.8541
30
0.0
0
VERTEX
8
ROW
10
10971.3415
20
9229.6622
30
0.0
0
VERTEX
8
ROW
10
10976.5078
20
9230.2353
30
0.0
0
VERTEX
8
ROW
10
10981.6948
20
9230.5722
30
0.0
0
SEQEND
0
POLYLINE
8
ROW
66
1
70
0
0
VERTEX
8
ROW
10
10844.5412
20
9217.2633
30
0.0
0
VERTEX
8
ROW
10
10847.5614
20
9221.3976
30
0.0
0
VERTEX
8
ROW
10
10850.7019
20
9225.4411
30
0.0
0
VERTEX
8
ROW
10
10853.9601
20
9229.3905
30
0.0
0
VERTEX
8
ROW
10
10857.3331
20
9233.2423
30
0.0
0
VERTEX
8
ROW
10
10860.8180
20
9236.9931
30
0.0
0
VERTEX
8
ROW
10
10864.4118
20
9240.6397
30
0.0
0
VERTEX
8
ROW
10
10868.1114
20
9244.1790
30
0.0
0
VERTEX
8
ROW
10
10871.9136
20
9247.6078
30
0.0
0
VERTEX
8
ROW
10
10875.8150
20
9250.9232
30
0.0
0
VERTEX
8
ROW
10
10879.8123
20
9254.1224
30
0.0
0
VERTEX
8
ROW
10
10883.9021
20
9257.2025
30
0.0
0
VERTEX
8
ROW
10
10888.0807
20
9260.1610
30
0.0
0
VERTEX
8
ROW
10
10892.3446
20
9262.9951
30
0.0
0
VERTEX
8
ROW
10
10896.6901
20
9265.7025
30
0.0
0
VERTEX
8
ROW
10
10901.1134
20
9268.2809
30
0.0
0
VERTEX
8
ROW
10
10905.6106
20
9270.7279
30
0.0
0
VERTEX
8
ROW
10
10910.1780
20
9273.0415
30
0.0
0
VERTEX
8
ROW
10
10914.8114
20
9275.2197
30
0.0
0
VERTEX
8
ROW
10
10919.5070
20
9277.2605
30
0.0
0
VERTEX
8
ROW
10
10924.2606
20
9279.1623
30
0.0
0
VERTEX
8
ROW
10
10929.0681
20
9280.9233
30
0.0
0
VERTEX
8
ROW
10
10933.9253
20
9282.5421
30
0.0
0
VERTEX
8
ROW
10
10938.8281
20
9284.0172
30
0.0
0
VERTEX
8
ROW
10
10943.7722
20
9285.3473
30
0.0
0
VERTEX
8
ROW
10
10948.7533
20
9286.5314
30
0.0
0
VERTEX
8
ROW
10
10953.7671
20
9287.5683
30
0.0
0
VERTEX
8
ROW
10
10958.8092
20
9288.4572
30
0.0
0
VERTEX
8
ROW
10
10963.8753
20
9289.1973
30
0.0
0
VERTEX
8
ROW
10
10968.9610
20
9289.7880
30
0.0
0
VERTEX
8
ROW
10
10974.0619
20
9290.2288
30
0.0
0
VERTEX
8
ROW
10
10979.1736
20
9290.5192
30
0.0
0
SEQEND
0
POLYLINE
8
ROW
66
1
70
0
0
VERTEX
8
ROW
10
10979.1736
20
9290.5192
30
0.0
0
VERTEX
8
ROW
10
11344.5874
20
9305.8878
30
0.0
0
SEQEND
0
POLYLINE
8
ROW
66
1
70
0
0
VERTEX
8
ROW
10
10981.6948
20
9230.5722
30
0.0
0
VERTEX
8
ROW
10
11343.8201
20
9245.8025
30
0.0
0
SEQEND
0
POLYLINE
8
ROW
66
1
70
0
0
VERTEX
8
ROW
10
10081.7547
20
9251.4902
30
0.0
0
VERTEX
8
ROW
10
10136.7458
20
9252.4768
30
0.0
0
SEQEND
0
POLYLINE
8
ROW
66
1
70
0
0
VERTEX
8
ROW
10
10082.8309
20
9191.4999
30
0.0
0
VERTEX
8
ROW
10
10137.8221
20
9192.4864
30
0.0
0
SEQEND
0
POLYLINE
8
ROW
66
1
70
0
0
VERTEX
8
ROW
10
10137.8221
20
9192.4864
30
0.0
0
VERTEX
8
ROW
10
10142.8637
20
9192.5473
30
0.0
0
VERTEX
8
ROW
10
10147.9058
20
9192.5489
30
0.0
0
VERTEX
8
ROW
10
10152.9475
20
9192.4913
30
0.0
0
VERTEX
8
ROW
10
10157.9882
20
9192.3745
30
0.0
0
VERTEX
8
ROW
10
10163.0272
20
9192.1986
30
0.0
0
VERTEX
8
ROW
10
10168.0638
20
9191.9634
30
0.0
0
VERTEX
8
ROW
10
10173.0973
20
9191.6692
30
0.0
0
VERTEX
8
ROW
10
10178.1269
20
9191.3158
30
0.0
0
VERTEX
8
ROW
10
10183.1521
20
9190.9035
30
0.0
0
VERTEX
8
ROW
10
10188.1721
20
9190.4321
30
0.0
0
VERTEX
8
ROW
10
10193.1862
20
9189.9018
30
0.0
0
VERTEX
8
ROW
10
10198.1937
20
9189.3127
30
0.0
0
VERTEX
8
ROW
10
10203.1940
20
9188.6648
30
0.0
0
VERTEX
8
ROW
10
10208.1863
20
9187.9582
30
0.0
0
VERTEX
8
ROW
10
10213.1699
20
9187.1931
30
0.0
0
VERTEX
8
ROW
10
10218.1443
20
9186.3695
30
0.0
0
VERTEX
8
ROW
10
10223.1086
20
9185.4875
30
0.0
0
VERTEX
8
ROW
10
10228.0622
20
9184.5473
30
0.0
0
VERTEX
8
ROW
10
10233.0045
20
9183.5490
30
0.0
0
VERTEX
8
ROW
10
10237.9346
20
9182.4928
30
0.0
0
VERTEX
8
ROW
10
10242.8521
20
9181.3787
30
0.0
0
VERTEX
8
ROW
10
10247.7561
20
9180.2069
30
0.0
0
VERTEX
8
ROW
10
10252.6460
20
9178.9776
30
0.0
0
VERTEX
8
ROW
10
10257.5211
20
9177.6910
30
0.0
0
VERTEX
8
ROW
10
10262.3808
20
9176.3473
30
0.0
0
VERTEX
8
ROW
10
10267.2244
20
9174.9465
30
0.0
0
VERTEX
8
ROW
10
10272.0512
20
9173.4890
30
0.0
0
VERTEX
8
ROW
10
10276.8606
20
9171.9749
30
0.0
0
VERTEX
8
ROW
10
10281.6518
20
9170.4044
30
0.0
0
VERTEX
8
ROW
10
10286.4243
20
9168.7778
30
0.0
0
VERTEX
8
ROW
10
10291.1773
20
9167.0952
30
0.0
0
VERTEX
8
ROW
10
10295.9103
20
9165.3570
30
0.0
0
VERTEX
8
ROW
10
10300.6225
20
9163.5632
30
0.0
0
VERTEX
8
ROW
10
10305.3133
20
9161.7143
30
0.0
0
VERTEX
8
ROW
10
10309.9821
20
9159.8104
30
0.0
0
VERTEX
8
ROW
10
10314.6282
20
9157.8518
30
0.0
0
VERTEX
8
ROW
10
10319.2510
20
9155.8388
30
0.0
0
VERTEX
8
ROW
10
10323.8498
20
9153.7717
30
0.0
0
VERTEX
8
ROW
10
10328.4240
20
9151.6507
30
0.0
0
VERTEX
8
ROW
10
10332.9731
20
9149.4761
30
0.0
0
VERTEX
8
ROW
10
10337.4962
20
9147.2482
30
0.0
0
VERTEX
8
ROW
10
10341.9929
20
9144.9674
30
0.0
0
VERTEX
8
ROW
10
10346.4625
20
9142.6340
30
0.0
0
VERTEX
8
ROW
10
10350.9044
20
9140.2482
30
0.0
0
VERTEX
8
ROW
10
10355.3180
20
9137.8104
30
0.0
0
VERTEX
8
ROW
10
10359.7026
20
9135.3209
30
0.0
0
VERTEX
8
ROW
10
10364.0577
20
9132.7802
30
0.0
0
VERTEX
8
ROW
10
10368.3827
20
9130.1884
30
0.0
0
VERTEX
8
ROW
10
10372.6769
20
9127.5461
30
0.0
0
VERTEX
8
ROW
10
10376.9398
20
9124.8535
30
0.0
0
VERTEX
8
ROW
10
10381.1708
20
9122.1111
30
0.0
0
VERTEX
8
ROW
10
10385.3693
20
9119.3191
30
0.0
0
VERTEX
8
ROW
10
10389.5347
20
9116.4781
30
0.0
0
VERTEX
8
ROW
10
10393.6665
20
9113.5883
30
0.0
0
SEQEND
0
POLYLINE
8
ROW
66
1
70
0
0
VERTEX
8
ROW
10
10136.7458
20
9252.4768
30
0.0
0
VERTEX
8
ROW
10
10141.7506
20
9252.5409
30
0.0
0
VERTEX
8
ROW
10
10146.7557
20
9252.5539
30
0.0
0
VERTEX
8
ROW
10
10151.7607
20
9252.5157
30
0.0
0
VERTEX
8
ROW
10
10156.7651
20
9252.4264
30
0.0
0
VERTEX
8
ROW
10
10161.7683
20
9252.2858
30
0.0
0
VERTEX
8
ROW
10
10166.7697
20
9252.0941
30
0.0
0
VERTEX
8
ROW
10
10171.7690
20
9251.8512
30
0.0
0
VERTEX
8
ROW
10
10176.7655
20
9251.5572
30
0.0
0
VERTEX
8
ROW
10
10181.7588
20
9251.2121
30
0.0
0
VERTEX
8
ROW
10
10186.7482
20
9250.8160
30
0.0
0
VERTEX
8
ROW
10
10191.7333
20
9250.3688
30
0.0
0
VERTEX
8
ROW
10
10196.7137
20
9249.8707
30
0.0
0
VERTEX
8
ROW
10
10201.6886
20
9249.3217
30
0.0
0
VERTEX
8
ROW
10
10206.6577
20
9248.7218
30
0.0
0
VERTEX
8
ROW
10
10211.6204
20
9248.0712
30
0.0
0
VERTEX
8
ROW
10
10216.5761
20
9247.3698
30
0.0
0
VERTEX
8
ROW
10
10221.5245
20
9246.6177
30
0.0
0
VERTEX
8
ROW
10
10226.4648
20
9245.8151
30
0.0
0
VERTEX
8
ROW
10
10231.3968
20
9244.9620
30
0.0
0
VERTEX
8
ROW
10
10236.3197
20
9244.0585
30
0.0
0
VERTEX
8
ROW
10
10241.2331
20
9243.1047
30
0.0
0
VERTEX
8
ROW
10
10246.1366
20
9242.1007
30
0.0
0
VERTEX
8
ROW
10
10251.0295
20
9241.0466
30
0.0
0
VERTEX
8
ROW
10
10255.9113
20
9239.9425
30
0.0
0
VERTEX
8
ROW
10
10260.7816
20
9238.7886
30
0.0
0
VERTEX
8
ROW
10
10265.6399
20
9237.5849
30
0.0
0
VERTEX
8
ROW
10
10270.4856
20
9236.3315
30
0.0
0
VERTEX
8
ROW
10
10275.3182
20
9235.0287
30
0.0
0
VERTEX
8
ROW
10
10280.1372
20
9233.6765
30
0.0
0
VERTEX
8
ROW
10
10284.9422
20
9232.2751
30
0.0
0
VERTEX
8
ROW
10
10289.7326
20
9230.8246
30
0.0
0
VERTEX
8
ROW
10
10294.5078
20
9229.3252
30
0.0
0
VERTEX
8
ROW
10
10299.2675
20
9227.7770
30
0.0
0
VERTEX
8
ROW
10
10304.0112
20
9226.1803
30
0.0
0
VERTEX
8
ROW
10
10308.7382
20
9224.5351
30
0.0
0
VERTEX
8
ROW
10
10313.4482
20
9222.8416
30
0.0
0
VERTEX
8
ROW
10
10318.1406
20
9221.1000
30
0.0
0
VERTEX
8
ROW
10
10322.8149
20
9219.3106
30
0.0
0
VERTEX
8
ROW
10
10327.4707
20
9217.4734
30
0.0
0
VERTEX
8
ROW
10
10332.1074
20
9215.5887
30
0.0
0
VERTEX
8
ROW
10
10336.7247
20
9213.6567
30
0.0
0
VERTEX
8
ROW
10
10341.3219
20
9211.6776
30
0.0
0
VERTEX
8
ROW
10
10345.8987
20
9209.6516
30
0.0
0
VERTEX
8
ROW
10
10350.4545
20
9207.5788
30
0.0
0
VERTEX
8
ROW
10
10354.9888
20
9205.4596
30
0.0
0
VERTEX
8
ROW
10
10359.5013
20
9203.2941
30
0.0
0
VERTEX
8
ROW
10
10363.9913
20
9201.0825
30
0.0
0
VERTEX
8
ROW
10
10368.4585
20
9198.8252
30
0.0
0
VERTEX
8
ROW
10
10372.9024
20
9196.5222
30
0.0
0
VERTEX
8
ROW
10
10377.3225
20
9194.1740
30
0.0
0
VERTEX
8
ROW
10
10381.7184
20
9191.7806
30
0.0
0
VERTEX
8
ROW
10
10386.0895
20
9189.3424
30
0.0
0
VERTEX
8
ROW
10
10390.4355
20
9186.8597
30
0.0
0
VERTEX
8
ROW
10
10394.7558
20
9184.3326
30
0.0
0
VERTEX
8
ROW
10
10399.0501
20
9181.7615
30
0.0
0
VERTEX
8
ROW
10
10403.3179
20
9179.1466
30
0.0
0
VERTEX
8
ROW
10
10407.5587
20
9176.4881
30
0.0
0
VERTEX
8
ROW
10
10411.7721
20
9173.7865
30
0.0
0
VERTEX
8
ROW
10
10415.9576
20
9171.0418
30
0.0
0
VERTEX
8
ROW
10
10420.1148
20
9168.2546
30
0.0
0
VERTEX
8
ROW
10
10424.2433
20
9165.4249
30
0.0
0
VERTEX
8
ROW
10
10428.3427
20
9162.5532
30
0.0
0
SEQEND
0
POLYLINE
8
ROW
66
1
70
0
0
VERTEX
8
ROW
10
10428.3427
20
9162.5532
30
0.0
0
VERTEX
8
ROW
10
10925.4022
20
8810.5430
30
0.0
0
SEQEND
0
POLYLINE
8
ROW
66
1
70
0
0
VERTEX
8
ROW
10
10393.6665
20
9113.5883
30
0.0
0
VERTEX
8
ROW
10
10887.5064
20
8763.8582
30
0.0
0
SEQEND
0
POLYLINE
8
ROW
66
1
70
0
0
VERTEX
8
ROW
10
9852.1736
20
8947.3233
30
0.0
0
VERTEX
8
ROW
10
9977.1535
20
8949.5654
30
0.0
0
SEQEND
0
POLYLINE
8
ROW
66
1
70
0
0
VERTEX
8
ROW
10
9853.2499
20
8887.3329
30
0.0
0
VERTEX
8
ROW
10
9978.2297
20
8889.5751
30
0.0
0
SEQEND
0
POLYLINE
8
ROW
66
1
70
0
0
VERTEX
8
ROW
10
10088.2120
20
8891.5481
30
0.0
0
VERTEX
8
ROW
10
10093.3022
20
8891.5958
30
0.0
0
VERTEX
8
ROW
10
10098.3923
20
8891.5563
30
0.0
0
VERTEX
8
ROW
10
10103.4811
20
8891.4295
30
0.0
0
VERTEX
8
ROW
10
10108.5669
20
8891.2155
30
0.0
0
VERTEX
8
ROW
10
10113.6484
20
8890.9144
30
0.0
0
VERTEX
8
ROW
10
10118.7239
20
8890.5263
30
0.0
0
VERTEX
8
ROW
10
10123.7920
20
8890.0512
30
0.0
0
VERTEX
8
ROW
10
10128.8512
20
8889.4893
30
0.0
0
VERTEX
8
ROW
10
10133.9001
20
8888.8409
30
0.0
0
VERTEX
8
ROW
10
10138.9371
20
8888.1059
30
0.0
0
VERTEX
8
ROW
10
10143.9608
20
8887.2848
30
0.0
0
VERTEX
8
ROW
10
10148.9697
20
8886.3777
30
0.0
0
VERTEX
8
ROW
10
10153.9622
20
8885.3849
30
0.0
0
VERTEX
8
ROW
10
10158.9371
20
8884.3067
30
0.0
0
VERTEX
8
ROW
10
10163.8927
20
8883.1433
30
0.0
0
VERTEX
8
ROW
10
10168.8276
20
8881.8952
30
0.0
0
VERTEX
8
ROW
10
10173.7405
20
8880.5628
30
0.0
0
VERTEX
8
ROW
10
10178.6298
20
8879.1463
30
0.0
0
VERTEX
8
ROW
10
10183.4941
20
8877.6462
30
0.0
0
VERTEX
8
ROW
10
10188.3319
20
8876.0630
30
0.0
0
VERTEX
8
ROW
10
10193.1420
20
8874.3971
30
0.0
0
VERTEX
8
ROW
10
10197.9227
20
8872.6490
30
0.0
0
VERTEX
8
ROW
10
10202.6728
20
8870.8193
30
0.0
0
VERTEX
8
ROW
10
10207.3909
20
8868.9084
30
0.0
0
VERTEX
8
ROW
10
10212.0755
20
8866.9169
30
0.0
0
VERTEX
8
ROW
10
10216.7253
20
8864.8455
30
0.0
0
VERTEX
8
ROW
10
10221.3389
20
8862.6946
30
0.0
0
VERTEX
8
ROW
10
10225.9150
20
8860.4650
30
0.0
0
VERTEX
8
ROW
10
10230.4522
20
8858.1573
30
0.0
0
VERTEX
8
ROW
10
10234.9492
20
8855.7722
30
0.0
0
VERTEX
8
ROW
10
10239.4046
20
8853.3104
30
0.0
0
VERTEX
8
ROW
10
10243.8172
20
8850.7725
30
0.0
0
VERTEX
8
ROW
10
10248.1856
20
8848.1594
30
0.0
0
VERTEX
8
ROW
10
10252.5087
20
8845.4719
30
0.0
0
VERTEX
8
ROW
10
10256.7850
20
8842.7106
30
0.0
0
VERTEX
8
ROW
10
10261.0134
20
8839.8765
30
0.0
0
VERTEX
8
ROW
10
10265.1926
20
8836.9703
30
0.0
0
SEQEND
0
POLYLINE
8
ROW
66
1
70
0
0
VERTEX
8
ROW
10
10087.1358
20
8951.5385
30
0.0
0
VERTEX
8
ROW
10
10092.1664
20
8951.5933
30
0.0
0
VERTEX
8
ROW
10
10097.1973
20
8951.5772
30
0.0
0
VERTEX
8
ROW
10
10102.2275
20
8951.4902
30
0.0
0
VERTEX
8
ROW
10
10107.2559
20
8951.3323
30
0.0
0
VERTEX
8
ROW
10
10112.2816
20
8951.1036
30
0.0
0
VERTEX
8
ROW
10
10117.3036
20
8950.8041
30
0.0
0
VERTEX
8
ROW
10
10122.3209
20
8950.4339
30
0.0
0
VERTEX
8
ROW
10
10127.3325
20
8949.9930
30
0.0
0
VERTEX
8
ROW
10
10132.3373
20
8949.4815
30
0.0
0
VERTEX
8
ROW
10
10137.3344
20
8948.8996
30
0.0
0
VERTEX
8
ROW
10
10142.3229
20
8948.2472
30
0.0
0
VERTEX
8
ROW
10
10147.3016
20
8947.5247
30
0.0
0
VERTEX
8
ROW
10
10152.2697
20
8946.7321
30
0.0
0
VERTEX
8
ROW
10
10157.2261
20
8945.8695
30
0.0
0
VERTEX
8
ROW
10
10162.1699
20
8944.9372
30
0.0
0
VERTEX
8
ROW
10
10167.1001
20
8943.9353
30
0.0
0
VERTEX
8
ROW
10
10172.0156
20
8942.8640
30
0.0
0
VERTEX
8
ROW
10
10176.9155
20
8941.7236
30
0.0
0
VERTEX
8
ROW
10
10181.7989
20
8940.5143
30
0.0
0
VERTEX
8
ROW
10
10186.6648
20
8939.2362
30
0.0
0
VERTEX
8
ROW
10
10191.5122
20
8937.8897
30
0.0
0
VERTEX
8
ROW
10
10196.3401
20
8936.4751
30
0.0
0
VERTEX
8
ROW
10
10201.1476
20
8934.9925
30
0.0
0
VERTEX
8
ROW
10
10205.9338
20
8933.4424
30
0.0
0
VERTEX
8
ROW
10
10210.6976
20
8931.8249
30
0.0
0
VERTEX
8
ROW
10
10215.4381
20
8930.1405
30
0.0
0
VERTEX
8
ROW
10
10220.1545
20
8928.3895
30
0.0
0
VERTEX
8
ROW
10
10224.8457
20
8926.5721
30
0.0
0
VERTEX
8
ROW
10
10229.5108
20
8924.6889
30
0.0
0
VERTEX
8
ROW
10
10234.1489
20
8922.7401
30
0.0
0
VERTEX
8
ROW
10
10238.7591
20
8920.7261
30
0.0
0
VERTEX
8
ROW
10
10243.3405
20
8918.6474
30
0.0
0
VERTEX
8
ROW
10
10247.8921
20
8916.5043
30
0.0
0
VERTEX
8
ROW
10
10252.4131
20
8914.2973
30
0.0
0
VERTEX
8
ROW
10
10256.9025
20
8912.0267
30
0.0
0
VERTEX
8
ROW
10
10261.3595
20
8909.6932
30
0.0
0
VERTEX
8
ROW
10
10265.7832
20
8907.2971
30
0.0
0
VERTEX
8
ROW
10
10270.1726
20
8904.8389
30
0.0
0
VERTEX
8
ROW
10
10274.5270
20
8902.3191
30
0.0
0
VERTEX
8
ROW
10
10278.8454
20
8899.7381
30
0.0
0
VERTEX
8
ROW
10
10283.1271
20
8897.0966
30
0.0
0
VERTEX
8
ROW
10
10287.3711
20
8894.3950
30
0.0
0
VERTEX
8
ROW
10
10291.5766
20
8891.6339
30
0.0
0
VERTEX
8
ROW
10
10295.7427
20
8888.8137
30
0.0
0
VERTEX
8
ROW
10
10299.8688
20
8885.9352
30
0.0
0
SEQEND
0
POLYLINE
8
ROW
66
1
70
0
0
VERTEX
8
ROW
10
10299.8688
20
8885.9352
30
0.0
0
VERTEX
8
ROW
10
10503.9778
20
8741.3882
30
0.0
0
SEQEND
0
POLYLINE
8
ROW
66
1
70
0
0
VERTEX
8
ROW
10
10265.1926
20
8836.9703
30
0.0
0
VERTEX
8
ROW
10
10454.9787
20
8702.5666
30
0.0
0
SEQEND
0
POLYLINE
8
ROW
66
1
70
0
0
VERTEX
8
ROW
10
10093.7546
20
8582.5979
30
0.0
0
VERTEX
8
ROW
10
10098.8266
20
8582.6352
30
0.0
0
VERTEX
8
ROW
10
10103.8983
20
8582.5654
30
0.0
0
VERTEX
8
ROW
10
10108.9674
20
8582.3884
30
0.0
0
VERTEX
8
ROW
10
10114.0316
20
8582.1043
30
0.0
0
VERTEX
8
ROW
10
10119.0886
20
8581.7132
30
0.0
0
VERTEX
8
ROW
10
10124.1363
20
8581.2153
30
0.0
0
VERTEX
8
ROW
10
10129.1723
20
8580.6108
30
0.0
0
VERTEX
8
ROW
10
10134.1944
20
8579.9000
30
0.0
0
VERTEX
8
ROW
10
10139.2003
20
8579.0833
30
0.0
0
VERTEX
8
ROW
10
10144.1879
20
8578.1609
30
0.0
0
VERTEX
8
ROW
10
10149.1549
20
8577.1333
30
0.0
0
VERTEX
8
ROW
10
10154.0990
20
8576.0009
30
0.0
0
VERTEX
8
ROW
10
10159.0181
20
8574.7643
30
0.0
0
VERTEX
8
ROW
10
10163.9100
20
8573.4240
30
0.0
0
VERTEX
8
ROW
10
10168.7724
20
8571.9806
30
0.0
0
VERTEX
8
ROW
10
10173.6032
20
8570.4348
30
0.0
0
VERTEX
8
ROW
10
10178.4003
20
8568.7871
30
0.0
0
VERTEX
8
ROW
10
10183.1615
20
8567.0385
30
0.0
0
VERTEX
8
ROW
10
10187.8847
20
8565.1896
30
0.0
0
VERTEX
8
ROW
10
10192.5677
20
8563.2413
30
0.0
0
VERTEX
8
ROW
10
10197.2086
20
8561.1945
30
0.0
0
VERTEX
8
ROW
10
10201.8051
20
8559.0500
30
0.0
0
VERTEX
8
ROW
10
10206.3552
20
8556.8089
30
0.0
0
VERTEX
8
ROW
10
10210.8570
20
8554.4721
30
0.0
0
VERTEX
8
ROW
10
10215.3084
20
8552.0406
30
0.0
0
VERTEX
8
ROW
10
10219.7074
20
8549.5156
30
0.0
0
VERTEX
8
ROW
10
10224.0520
20
8546.8982
30
0.0
0
VERTEX
8
ROW
10
10228.3404
20
8544.1895
30
0.0
0
VERTEX
8
ROW
10
10232.5705
20
8541.3909
30
0.0
0
VERTEX
8
ROW
10
10236.7405
20
8538.5034
30
0.0
0
SEQEND
0
POLYLINE
8
ROW
66
1
70
0
0
VERTEX
8
ROW
10
10092.6784
20
8642.5882
30
0.0
0
VERTEX
8
ROW
10
10097.6838
20
8642.6362
30
0.0
0
VERTEX
8
ROW
10
10102.6893
20
8642.6007
30
0.0
0
VERTEX
8
ROW
10
10107.6935
20
8642.4817
30
0.0
0
VERTEX
8
ROW
10
10112.6950
20
8642.2792
30
0.0
0
VERTEX
8
ROW
10
10117.6924
20
8641.9932
30
0.0
0
VERTEX
8
ROW
10
10122.6844
20
8641.6239
30
0.0
0
VERTEX
8
ROW
10
10127.6695
20
8641.1714
30
0.0
0
VERTEX
8
ROW
10
10132.6464
20
8640.6357
30
0.0
0
VERTEX
8
ROW
10
10137.6136
20
8640.0170
30
0.0
0
VERTEX
8
ROW
10
10142.5698
20
8639.3156
30
0.0
0
VERTEX
8
ROW
10
10147.5137
20
8638.5315
30
0.0
0
VERTEX
8
ROW
10
10152.4437
20
8637.6651
30
0.0
0
VERTEX
8
ROW
10
10157.3586
20
8636.7165
30
0.0
0
VERTEX
8
ROW
10
10162.2570
20
8635.6860
30
0.0
0
VERTEX
8
ROW
10
10167.1375
20
8634.5739
30
0.0
0
VERTEX
8
ROW
10
10171.9988
20
8633.3806
30
0.0
0
VERTEX
8
ROW
10
10176.8395
20
8632.1063
30
0.0
0
VERTEX
8
ROW
10
10181.6583
20
8630.7513
30
0.0
0
VERTEX
8
ROW
10
10186.4537
20
8629.3162
30
0.0
0
VERTEX
8
ROW
10
10191.2246
20
8627.8012
30
0.0
0
VERTEX
8
ROW
10
10195.9695
20
8626.2069
30
0.0
0
VERTEX
8
ROW
10
10200.6871
20
8624.5336
30
0.0
0
VERTEX
8
ROW
10
10205.3762
20
8622.7818
30
0.0
0
VERTEX
8
ROW
10
10210.0354
20
8620.9519
30
0.0
0
VERTEX
8
ROW
10
10214.6634
20
8619.0446
30
0.0
0
VERTEX
8
ROW
10
10219.2589
20
8617.0604
30
0.0
0
VERTEX
8
ROW
10
10223.8207
20
8614.9997
30
0.0
0
VERTEX
8
ROW
10
10228.3474
20
8612.8632
30
0.0
0
VERTEX
8
ROW
10
10232.8379
20
8610.6515
30
0.0
0
VERTEX
8
ROW
10
10237.2909
20
8608.3651
30
0.0
0
VERTEX
8
ROW
10
10241.7050
20
8606.0047
30
0.0
0
VERTEX
8
ROW
10
10246.0792
20
8603.5710
30
0.0
0
VERTEX
8
ROW
10
10250.4121
20
8601.0647
30
0.0
0
VERTEX
8
ROW
10
10254.7026
20
8598.4864
30
0.0
0
VERTEX
8
ROW
10
10258.9495
20
8595.8368
30
0.0
0
VERTEX
8
ROW
10
10263.1516
20
8593.1168
30
0.0
0
VERTEX
8
ROW
10
10267.3077
20
8590.3270
30
0.0
0
VERTEX
8
ROW
10
10271.4167
20
8587.4683
30
0.0
0
SEQEND
0
POLYLINE
8
ROW
66
1
70
0
0
VERTEX
8
ROW
10
10271.4167
20
8587.4683
30
0.0
0
VERTEX
8
ROW
10
10339.3986
20
8539.3245
30
0.0
0
SEQEND
0
POLYLINE
8
ROW
66
1
70
0
0
VERTEX
8
ROW
10
10236.7405
20
8538.5034
30
0.0
0
VERTEX
8
ROW
10
10345.2069
20
8461.6891
30
0.0
0
SEQEND
0
POLYLINE
8
ROW
66
1
70
0
0
VERTEX
8
ROW
10
9849.6624
20
9087.3007
30
0.0
0
VERTEX
8
ROW
10
9974.6423
20
9089.5429
30
0.0
0
SEQEND
0
POLYLINE
8
ROW
66
1
70
0
0
VERTEX
8
ROW
10
10084.6246
20
9091.5160
30
0.0
0
VERTEX
8
ROW
10
10156.4131
20
9092.8038
30
0.0
0
SEQEND
0
POLYLINE
8
ROW
66
1
70
0
0
VERTEX
8
ROW
10
9850.3799
20
9047.3072
30
0.0
0
VERTEX
8
ROW
10
9975.3598
20
9049.5493
30
0.0
0
SEQEND
0
POLYLINE
8
ROW
66
1
70
0
0
VERTEX
8
ROW
10
10085.3421
20
9051.5224
30
0.0
0
VERTEX
8
ROW
10
10157.1306
20
9052.8103
30
0.0
0
SEQEND
0
LINE
8
CENTERLINE
10
11397.5345
20
10238.9773
30
0.0
11
11399.7176
21
10058.8695
31
0.0
0
LINE
8
CENTERLINE
10
11399.7176
20
10058.8695
30
0.0
11
11402.8702
21
9798.7722
31
0.0
0
LINE
8
CENTERLINE
10
11402.8702
20
9798.7722
30
0.0
11
11406.0228
21
9538.6750
31
0.0
0
LINE
8
CENTERLINE
10
11406.0228
20
9538.6750
30
0.0
11
11409.1754
21
9278.5777
31
0.0
0
LINE
8
CENTERLINE
10
11409.1754
20
9278.5777
30
0.0
11
11412.8248
21
8977.4966
31
0.0
0
LINE
8
CENTERLINE
10
10000.0000
20
10000.0000
30
0.0
11
11399.7176
21
10058.8695
31
0.0
0
LINE
8
CENTERLINE
10
10010.9255
20
9740.2297
30
0.0
11
11402.8702
21
9798.7722
31
0.0
0
LINE
8
CENTERLINE
10
10021.8509
20
9480.4593
30
0.0
11
10234.9225
21
9489.4207
31
0.0
0
LINE
8
CENTERLINE
10
10457.6548
20
9423.6616
30
0.0
11
11058.3450
21
8998.2618
31
0.0
0
LINE
8
CENTERLINE
10
10502.5462
20
9391.8702
30
0.0
11
10534.3248
21
9436.7435
31
0.0
0
LINE
8
CENTERLINE
10
10664.3282
20
9507.4807
30
0.0
11
11406.0228
21
9538.6750
31
0.0
0
LINE
8
CENTERLINE
10
10837.1458
20
9154.9118
30
0.0
11
10869.0237
21
9199.9252
31
0.0
0
LINE
8
CENTERLINE
10
10980.4342
20
9260.5457
30
0.0
11
11409.1754
21
9278.5777
31
0.0
0
POLYLINE
8
CENTERLINE
66
1
70
0
0
VERTEX
8
CENTERLINE
10
10234.9225
20
9489.4207
30
0.0
0
VERTEX
8
CENTERLINE
10
10239.8462
20
9489.5940
30
0.0
0
VERTEX
8
CENTERLINE
10
10244.7717
20
9489.6997
30
0.0
0
VERTEX
8
CENTERLINE
10
10249.6983
20
9489.7379
30
0.0
0
VERTEX
8
CENTERLINE
10
10254.6249
20
9489.7085
30
0.0
0
VERTEX
8
CENTERLINE
10
10259.5506
20
9489.6116
30
0.0
0
VERTEX
8
CENTERLINE
10
10264.4745
20
9489.4471
30
0.0
0
VERTEX
8
CENTERLINE
10
10269.3958
20
9489.2151
30
0.0
0
VERTEX
8
CENTERLINE
10
10274.3133
20
9488.9157
30
0.0
0
VERTEX
8
CENTERLINE
10
10279.2264
20
9488.5489
30
0.0
0
VERTEX
8
CENTERLINE
10
10284.1339
20
9488.1147
30
0.0
0
VERTEX
8
CENTERLINE
10
10289.0350
20
9487.6133
30
0.0
0
VERTEX
8
CENTERLINE
10
10293.9287
20
9487.0447
30
0.0
0
VERTEX
8
CENTERLINE
10
10298.8143
20
9486.4090
30
0.0
0
VERTEX
8
CENTERLINE
10
10303.6906
20
9485.7064
30
0.0
0
VERTEX
8
CENTERLINE
10
10308.5568
20
9484.9371
30
0.0
0
VERTEX
8
CENTERLINE
10
10313.4121
20
9484.1010
30
0.0
0
VERTEX
8
CENTERLINE
10
10318.2554
20
9483.1985
30
0.0
0
VERTEX
8
CENTERLINE
10
10323.0859
20
9482.2296
30
0.0
0
VERTEX
8
CENTERLINE
10
10327.9026
20
9481.1946
30
0.0
0
VERTEX
8
CENTERLINE
10
10332.7047
20
9480.0936
30
0.0
0
VERTEX
8
CENTERLINE
10
10337.4912
20
9478.9269
30
0.0
0
VERTEX
8
CENTERLINE
10
10342.2613
20
9477.6947
30
0.0
0
VERTEX
8
CENTERLINE
10
10347.0141
20
9476.3972
30
0.0
0
VERTEX
8
CENTERLINE
10
10351.7486
20
9475.0346
30
0.0
0
VERTEX
8
CENTERLINE
10
10356.4640
20
9473.6072
30
0.0
0
VERTEX
8
CENTERLINE
10
10361.1593
20
9472.1153
30
0.0
0
VERTEX
8
CENTERLINE
10
10365.8338
20
9470.5591
30
0.0
0
VERTEX
8
CENTERLINE
10
10370.4865
20
9468.9390
30
0.0
0
VERTEX
8
CENTERLINE
10
10375.1165
20
9467.2553
30
0.0
0
VERTEX
8
CENTERLINE
10
10379.7230
20
9465.5082
30
0.0
0
VERTEX
8
CENTERLINE
10
10384.3052
20
9463.6981
30
0.0
0
VERTEX
8
CENTERLINE
10
10388.8620
20
9461.8253
30
0.0
0
VERTEX
8
CENTERLINE
10
10393.3928
20
9459.8903
30
0.0
0
VERTEX
8
CENTERLINE
10
10397.8966
20
9457.8932
30
0.0
0
VERTEX
8
CENTERLINE
10
10402.3726
20
9455.8347
30
0.0
0
VERTEX
8
CENTERLINE
10
10406.8199
20
9453.7149
30
0.0
0
VERTEX
8
CENTERLINE
10
10411.2378
20
9451.5343
30
0.0
0
VERTEX
8
CENTERLINE
10
10415.6253
20
9449.2934
30
0.0
0
VERTEX
8
CENTERLINE
10
10419.9817
20
9446.9925
30
0.0
0
VERTEX
8
CENTERLINE
10
10424.3061
20
9444.6321
30
0.0
0
VERTEX
8
CENTERLINE
10
10428.5978
20
9442.2126
30
0.0
0
VERTEX
8
CENTERLINE
10
10432.8559
20
9439.7345
30
0.0
0
VERTEX
8
CENTERLINE
10
10437.0796
20
9437.1983
30
0.0
0
VERTEX
8
CENTERLINE
10
10441.2681
20
9434.6043
30
0.0
0
VERTEX
8
CENTERLINE
10
10445.4206
20
9431.9532
30
0.0
0
VERTEX
8
CENTERLINE
10
10449.5365
20
9429.2453
30
0.0
0
VERTEX
8
CENTERLINE
10
10453.6147
20
9426.4813
30
0.0
0
VERTEX
8
CENTERLINE
10
10457.6548
20
9423.6616
30
0.0
0
SEQEND
0
POLYLINE
8
CENTERLINE
66
1
70
0
0
VERTEX
8
CENTERLINE
10
10534.3248
20
9436.7435
30
0.0
0
VERTEX
8
CENTERLINE
10
10536.1948
20
9439.3316
30
0.0
0
VERTEX
8
CENTERLINE
10
10538.1137
20
9441.8836
30
0.0
0
VERTEX
8
CENTERLINE
10
10540.0807
20
9444.3988
30
0.0
0
VERTEX
8
CENTERLINE
10
10542.0953
20
9446.8760
30
0.0
0
VERTEX
8
CENTERLINE
10
10544.1565
20
9449.3145
30
0.0
0
VERTEX
8
CENTERLINE
10
10546.2637
20
9451.7134
30
0.0
0
VERTEX
8
CENTERLINE
10
10548.4162
20
9454.0718
30
0.0
0
VERTEX
8
CENTERLINE
10
10550.6131
20
9456.3889
30
0.0
0
VERTEX
8
CENTERLINE
10
10552.8536
20
9458.6637
30
0.0
0
VERTEX
8
CENTERLINE
10
10555.1370
20
9460.8956
30
0.0
0
VERTEX
8
CENTERLINE
10
10557.4624
20
9463.0837
30
0.0
0
VERTEX
8
CENTERLINE
10
10559.8290
20
9465.2271
30
0.0
0
VERTEX
8
CENTERLINE
10
10562.2359
20
9467.3252
30
0.0
0
VERTEX
8
CENTERLINE
10
10564.6823
20
9469.3771
30
0.0
0
VERTEX
8
CENTERLINE
10
10567.1672
20
9471.3822
30
0.0
0
VERTEX
8
CENTERLINE
10
10569.6898
20
9473.3396
30
0.0
0
VERTEX
8
CENTERLINE
10
10572.2492
20
9475.2488
30
0.0
0
VERTEX
8
CENTERLINE
10
10574.8443
20
9477.1089
30
0.0
0
VERTEX
8
CENTERLINE
10
10577.4744
20
9478.9194
30
0.0
0
VERTEX
8
CENTERLINE
10
10580.1384
20
9480.6796
30
0.0
0
VERTEX
8
CENTERLINE
10
10582.8354
20
9482.3887
30
0.0
0
VERTEX
8
CENTERLINE
10
10585.5644
20
9484.0463
30
0.0
0
VERTEX
8
CENTERLINE
10
10588.3245
20
9485.6518
30
0.0
0
VERTEX
8
CENTERLINE
10
10591.1145
20
9487.2044
30
0.0
0
VERTEX
8
CENTERLINE
10
10593.9336
20
9488.7038
30
0.0
0
VERTEX
8
CENTERLINE
10
10596.7806
20
9490.1493
30
0.0
0
VERTEX
8
CENTERLINE
10
10599.6546
20
9491.5404
30
0.0
0
VERTEX
8
CENTERLINE
10
10602.5546
20
9492.8766
30
0.0
0
VERTEX
8
CENTERLINE
10
10605.4794
20
9494.1574
30
0.0
0
VERTEX
8
CENTERLINE
10
10608.4280
20
9495.3824
30
0.0
0
VERTEX
8
CENTERLINE
10
10611.3994
20
9496.5511
30
0.0
0
VERTEX
8
CENTERLINE
10
10614.3925
20
9497.6632
30
0.0
0
VERTEX
8
CENTERLINE
10
10617.4062
20
9498.7181
30
0.0
0
VERTEX
8
CENTERLINE
10
10620.4394
20
9499.7155
30
0.0
0
VERTEX
8
CENTERLINE
10
10623.4910
20
9500.6551
30
0.0
0
VERTEX
8
CENTERLINE
10
10626.5599
20
9501.5365
30
0.0
0
VERTEX
8
CENTERLINE
10
10629.6450
20
9502.3595
30
0.0
0
VERTEX
8
CENTERLINE
10
10632.7452
20
9503.1236
30
0.0
0
VERTEX
8
CENTERLINE
10
10635.8593
20
9503.8286
30
0.0
0
VERTEX
8
CENTERLINE
10
10638.9864
20
9504.4743
30
0.0
0
VERTEX
8
CENTERLINE
10
10642.1251
20
9505.0605
30
0.0
0
VERTEX
8
CENTERLINE
10
10645.2744
20
9505.5868
30
0.0
0
VERTEX
8
CENTERLINE
10
10648.4331
20
9506.0533
30
0.0
0
VERTEX
8
CENTERLINE
10
10651.6001
20
9506.4595
30
0.0
0
VERTEX
8
CENTERLINE
10
10654.7743
20
9506.8055
30
0.0
0
VERTEX
8
CENTERLINE
10
10657.9545
20
9507.0911
30
0.0
0
VERTEX
8
CENTERLINE
10
10661.1395
20
9507.3162
30
0.0
0
VERTEX
8
CENTERLINE
10
10664.3282
20
9507.4807
30
0.0
0
SEQEND
0
POLYLINE
8
CENTERLINE
66
1
70
0
0
VERTEX
8
CENTERLINE
10
10869.0237
20
9199.9252
30
0.0
0
VERTEX
8
CENTERLINE
10
10870.6262
20
9202.1432
30
0.0
0
VERTEX
8
CENTERLINE
10
10872.2707
20
9204.3302
30
0.0
0
VERTEX
8
CENTERLINE
10
10873.9564
20
9206.4856
30
0.0
0
VERTEX
8
CENTERLINE
10
10875.6828
20
9208.6086
30
0.0
0
VERTEX
8
CENTERLINE
10
10877.4493
20
9210.6984
30
0.0
0
VERTEX
8
CENTERLINE
10
10879.2551
20
9212.7542
30
0.0
0
VERTEX
8
CENTERLINE
10
10881.0997
20
9214.7753
30
0.0
0
VERTEX
8
CENTERLINE
10
10882.9824
20
9216.7609
30
0.0
0
VERTEX
8
CENTERLINE
10
10884.9026
20
9218.7105
30
0.0
0
VERTEX
8
CENTERLINE
10
10886.8594
20
9220.6231
30
0.0
0
VERTEX
8
CENTERLINE
10
10888.8522
20
9222.4982
30
0.0
0
VERTEX
8
CENTERLINE
10
10890.8803
20
9224.3351
30
0.0
0
VERTEX
8
CENTERLINE
10
10892.9430
20
9226.1331
30
0.0
0
VERTEX
8
CENTERLINE
10
10895.0395
20
9227.8916
30
0.0
0
VERTEX
8
CENTERLINE
10
10897.1690
20
9229.6099
30
0.0
0
VERTEX
8
CENTERLINE
10
10899.3308
20
9231.2874
30
0.0
0
VERTEX
8
CENTERLINE
10
10901.5242
20
9232.9235
30
0.0
0
VERTEX
8
CENTERLINE
10
10903.7482
20
9234.5176
30
0.0
0
VERTEX
8
CENTERLINE
10
10906.0021
20
9236.0692
30
0.0
0
VERTEX
8
CENTERLINE
10
10908.2851
20
9237.5776
30
0.0
0
VERTEX
8
CENTERLINE
10
10910.5964
20
9239.0423
30
0.0
0
VERTEX
8
CENTERLINE
10
10912.9351
20
9240.4629
30
0.0
0
VERTEX
8
CENTERLINE
10
10915.3004
20
9241.8387
30
0.0
0
VERTEX
8
CENTERLINE
10
10917.6914
20
9243.1693
30
0.0
0
VERTEX
8
CENTERLINE
10
10920.1073
20
9244.4542
30
0.0
0
VERTEX
8
CENTERLINE
10
10922.5471
20
9245.6929
30
0.0
0
VERTEX
8
CENTERLINE
10
10925.0101
20
9246.8851
30
0.0
0
VERTEX
8
CENTERLINE
10
10927.4953
20
9248.0302
30
0.0
0
VERTEX
8
CENTERLINE
10
10930.0018
20
9249.1278
30
0.0
0
VERTEX
8
CENTERLINE
10
10932.5288
20
9250.1777
30
0.0
0
VERTEX
8
CENTERLINE
10
10935.0752
20
9251.1792
30
0.0
0
VERTEX
8
CENTERLINE
10
10937.6402
20
9252.1322
30
0.0
0
VERTEX
8
CENTERLINE
10
10940.2229
20
9253.0363
30
0.0
0
VERTEX
8
CENTERLINE
10
10942.8222
20
9253.8911
30
0.0
0
VERTEX
8
CENTERLINE
10
10945.4374
20
9254.6963
30
0.0
0
VERTEX
8
CENTERLINE
10
10948.0674
20
9255.4516
30
0.0
0
VERTEX
8
CENTERLINE
10
10950.7113
20
9256.1569
30
0.0
0
VERTEX
8
CENTERLINE
10
10953.3681
20
9256.8117
30
0.0
0
VERTEX
8
CENTERLINE
10
10956.0369
20
9257.4159
30
0.0
0
VERTEX
8
CENTERLINE
10
10958.7167
20
9257.9693
30
0.0
0
VERTEX
8
CENTERLINE
10
10961.4065
20
9258.4716
30
0.0
0
VERTEX
8
CENTERLINE
10
10964.1054
20
9258.9227
30
0.0
0
VERTEX
8
CENTERLINE
10
10966.8124
20
9259.3224
30
0.0
0
VERTEX
8
CENTERLINE
10
10969.5264
20
9259.6705
30
0.0
0
VERTEX
8
CENTERLINE
10
10972.2466
20
9259.9671
30
0.0
0
VERTEX
8
CENTERLINE
10
10974.9720
20
9260.2118
30
0.0
0
VERTEX
8
CENTERLINE
10
10977.7015
20
9260.4047
30
0.0
0
VERTEX
8
CENTERLINE
10
10980.4342
20
9260.5457
30
0.0
0
SEQEND
0
POLYLINE
8
CENTERLINE
66
1
70
0
0
VERTEX
8
CENTERLINE
10
10137.2839
20
9222.4816
30
0.0
0
VERTEX
8
CENTERLINE
10
10143.3522
20
9222.5504
30
0.0
0
VERTEX
8
CENTERLINE
10
10149.4208
20
9222.5390
30
0.0
0
VERTEX
8
CENTERLINE
10
10155.4888
20
9222.4474
30
0.0
0
VERTEX
8
CENTERLINE
10
10161.5550
20
9222.2757
30
0.0
0
VERTEX
8
CENTERLINE
10
10167.6184
20
9222.0238
30
0.0
0
VERTEX
8
CENTERLINE
10
10173.6779
20
9221.6919
30
0.0
0
VERTEX
8
CENTERLINE
10
10179.7326
20
9221.2799
30
0.0
0
VERTEX
8
CENTERLINE
10
10185.7813
20
9220.7880
30
0.0
0
VERTEX
8
CENTERLINE
10
10191.8229
20
9220.2163
30
0.0
0
VERTEX
8
CENTERLINE
10
10197.8565
20
9219.5647
30
0.0
0
VERTEX
8
CENTERLINE
10
10203.8809
20
9218.8335
30
0.0
0
VERTEX
8
CENTERLINE
10
10209.8951
20
9218.0228
30
0.0
0
VERTEX
8
CENTERLINE
10
10215.8982
20
9217.1327
30
0.0
0
VERTEX
8
CENTERLINE
10
10221.8889
20
9216.1634
30
0.0
0
VERTEX
8
CENTERLINE
10
10227.8663
20
9215.1150
30
0.0
0
VERTEX
8
CENTERLINE
10
10233.8293
20
9213.9878
30
0.0
0
VERTEX
8
CENTERLINE
10
10239.7769
20
9212.7819
30
0.0
0
VERTEX
8
CENTERLINE
10
10245.7081
20
9211.4975
30
0.0
0
VERTEX
8
CENTERLINE
10
10251.6218
20
9210.1348
30
0.0
0
VERTEX
8
CENTERLINE
10
10257.5169
20
9208.6942
30
0.0
0
VERTEX
8
CENTERLINE
10
10263.3926
20
9207.1758
30
0.0
0
VERTEX
8
CENTERLINE
10
10269.2476
20
9205.5799
30
0.0
0
VERTEX
8
CENTERLINE
10
10275.0810
20
9203.9068
30
0.0
0
VERTEX
8
CENTERLINE
10
10280.8919
20
9202.1568
30
0.0
0
VERTEX
8
CENTERLINE
10
10286.6791
20
9200.3302
30
0.0
0
VERTEX
8
CENTERLINE
10
10292.4417
20
9198.4272
30
0.0
0
VERTEX
8
CENTERLINE
10
10298.1786
20
9196.4484
30
0.0
0
VERTEX
8
CENTERLINE
10
10303.8889
20
9194.3939
30
0.0
0
VERTEX
8
CENTERLINE
10
10309.5715
20
9192.2641
30
0.0
0
VERTEX
8
CENTERLINE
10
10315.2256
20
9190.0594
30
0.0
0
VERTEX
8
CENTERLINE
10
10320.8500
20
9187.7803
30
0.0
0
VERTEX
8
CENTERLINE
10
10326.4438
20
9185.4270
30
0.0
0
VERTEX
8
CENTERLINE
10
10332.0060
20
9183.0001
30
0.0
0
VERTEX
8
CENTERLINE
10
10337.5357
20
9180.4999
30
0.0
0
VERTEX
8
CENTERLINE
10
10343.0318
20
9177.9268
30
0.0
0
VERTEX
8
CENTERLINE
10
10348.4935
20
9175.2814
30
0.0
0
VERTEX
8
CENTERLINE
10
10353.9198
20
9172.5641
30
0.0
0
VERTEX
8
CENTERLINE
10
10359.3097
20
9169.7753
30
0.0
0
VERTEX
8
CENTERLINE
10
10364.6623
20
9166.9155
30
0.0
0
VERTEX
8
CENTERLINE
10
10369.9766
20
9163.9853
30
0.0
0
VERTEX
8
CENTERLINE
10
10375.2518
20
9160.9851
30
0.0
0
VERTEX
8
CENTERLINE
10
10380.4868
20
9157.9155
30
0.0
0
VERTEX
8
CENTERLINE
10
10385.6809
20
9154.7770
30
0.0
0
VERTEX
8
CENTERLINE
10
10390.8330
20
9151.5701
30
0.0
0
VERTEX
8
CENTERLINE
10
10395.9424
20
9148.2955
30
0.0
0
VERTEX
8
CENTERLINE
10
10401.0080
20
9144.9537
30
0.0
0
VERTEX
8
CENTERLINE
10
10406.0290
20
9141.5452
30
0.0
0
VERTEX
8
CENTERLINE
10
10411.0046
20
9138.0707
30
0.0
0
SEQEND
0
POLYLINE
8
CENTERLINE
66
1
70
0
0
VERTEX
8
CENTERLINE
10
10087.6739
20
8921.5433
30
0.0
0
VERTEX
8
CENTERLINE
10
10091.9938
20
8921.5923
30
0.0
0
VERTEX
8
CENTERLINE
10
10096.3140
20
8921.5842
30
0.0
0
VERTEX
8
CENTERLINE
10
10100.6336
20
8921.5190
30
0.0
0
VERTEX
8
CENTERLINE
10
10104.9520
20
8921.3967
30
0.0
0
VERTEX
8
CENTERLINE
10
10109.2685
20
8921.2174
30
0.0
0
VERTEX
8
CENTERLINE
10
10113.5822
20
8920.9811
30
0.0
0
VERTEX
8
CENTERLINE
10
10117.8924
20
8920.6879
30
0.0
0
VERTEX
8
CENTERLINE
10
10122.1983
20
8920.3377
30
0.0
0
VERTEX
8
CENTERLINE
10
10126.4992
20
8919.9307
30
0.0
0
VERTEX
8
CENTERLINE
10
10130.7944
20
8919.4668
30
0.0
0
VERTEX
8
CENTERLINE
10
10135.0831
20
8918.9463
30
0.0
0
VERTEX
8
CENTERLINE
10
10139.3645
20
8918.3692
30
0.0
0
VERTEX
8
CENTERLINE
10
10143.6380
20
8917.7356
30
0.0
0
VERTEX
8
CENTERLINE
10
10147.9026
20
8917.0455
30
0.0
0
VERTEX
8
CENTERLINE
10
10152.1579
20
8916.2992
30
0.0
0
VERTEX
8
CENTERLINE
10
10156.4028
20
8915.4967
30
0.0
0
VERTEX
8
CENTERLINE
10
10160.6368
20
8914.6383
30
0.0
0
VERTEX
8
CENTERLINE
10
10164.8591
20
8913.7239
30
0.0
0
VERTEX
8
CENTERLINE
10
10169.0689
20
8912.7539
30
0.0
0
VERTEX
8
CENTERLINE
10
10173.2656
20
8911.7283
30
0.0
0
VERTEX
8
CENTERLINE
10
10177.4484
20
8910.6474
30
0.0
0
VERTEX
8
CENTERLINE
10
10181.6165
20
8909.5113
30
0.0
0
VERTEX
8
CENTERLINE
10
10185.7692
20
8908.3203
30
0.0
0
VERTEX
8
CENTERLINE
10
10189.9058
20
8907.0745
30
0.0
0
VERTEX
8
CENTERLINE
10
10194.0256
20
8905.7741
30
0.0
0
VERTEX
8
CENTERLINE
10
10198.1279
20
8904.4195
30
0.0
0
VERTEX
8
CENTERLINE
10
10202.2119
20
8903.0107
30
0.0
0
VERTEX
8
CENTERLINE
10
10206.2770
20
8901.5482
30
0.0
0
VERTEX
8
CENTERLINE
10
10210.3223
20
8900.0320
30
0.0
0
VERTEX
8
CENTERLINE
10
10214.3473
20
8898.4626
30
0.0
0
VERTEX
8
CENTERLINE
10
10218.3512
20
8896.8401
30
0.0
0
VERTEX
8
CENTERLINE
10
10222.3334
20
8895.1649
30
0.0
0
VERTEX
8
CENTERLINE
10
10226.2930
20
8893.4372
30
0.0
0
VERTEX
8
CENTERLINE
10
10230.2295
20
8891.6573
30
0.0
0
VERTEX
8
CENTERLINE
10
10234.1421
20
8889.8256
30
0.0
0
VERTEX
8
CENTERLINE
10
10238.0302
20
8887.9424
30
0.0
0
VERTEX
8
CENTERLINE
10
10241.8930
20
8886.0079
30
0.0
0
VERTEX
8
CENTERLINE
10
10245.7300
20
8884.0226
30
0.0
0
VERTEX
8
CENTERLINE
10
10249.5404
20
8881.9868
30
0.0
0
VERTEX
8
CENTERLINE
10
10253.3236
20
8879.9008
30
0.0
0
VERTEX
8
CENTERLINE
10
10257.0789
20
8877.7651
30
0.0
0
VERTEX
8
CENTERLINE
10
10260.8056
20
8875.5799
30
0.0
0
VERTEX
8
CENTERLINE
10
10264.5032
20
8873.3456
30
0.0
0
VERTEX
8
CENTERLINE
10
10268.1709
20
8871.0627
30
0.0
0
VERTEX
8
CENTERLINE
10
10271.8081
20
8868.7316
30
0.0
0
VERTEX
8
CENTERLINE
10
10275.4143
20
8866.3526
30
0.0
0
VERTEX
8
CENTERLINE
10
10278.9886
20
8863.9262
30
0.0
0
VERTEX
8
CENTERLINE
10
10282.5307
20
8861.4528
30
0.0
0
SEQEND
0
POLYLINE
8
CENTERLINE
66
1
70
0
0
VERTEX
8
CENTERLINE
10
10093.2165
20
8612.5930
30
0.0
0
VERTEX
8
CENTERLINE
10
10096.7827
20
8612.6334
30
0.0
0
VERTEX
8
CENTERLINE
10
10100.3492
20
8612.6267
30
0.0
0
VERTEX
8
CENTERLINE
10
10103.9153
20
8612.5729
30
0.0
0
VERTEX
8
CENTERLINE
10
10107.4803
20
8612.4720
30
0.0
0
VERTEX
8
CENTERLINE
10
10111.0437
20
8612.3240
30
0.0
0
VERTEX
8
CENTERLINE
10
10114.6048
20
8612.1289
30
0.0
0
VERTEX
8
CENTERLINE
10
10118.1630
20
8611.8868
30
0.0
0
VERTEX
8
CENTERLINE
10
10121.7178
20
8611.5977
30
0.0
0
VERTEX
8
CENTERLINE
10
10125.2684
20
8611.2617
30
0.0
0
VERTEX
8
CENTERLINE
10
10128.8142
20
8610.8788
30
0.0
0
VERTEX
8
CENTERLINE
10
10132.3547
20
8610.4491
30
0.0
0
VERTEX
8
CENTERLINE
10
10135.8892
20
8609.9727
30
0.0
0
VERTEX
8
CENTERLINE
10
10139.4171
20
8609.4496
30
0.0
0
VERTEX
8
CENTERLINE
10
10142.9378
20
8608.8799
30
0.0
0
VERTEX
8
CENTERLINE
10
10146.4506
20
8608.2638
30
0.0
0
VERTEX
8
CENTERLINE
10
10149.9550
20
8607.6013
30
0.0
0
VERTEX
8
CENTERLINE
10
10153.4503
20
8606.8926
30
0.0
0
VERTEX
8
CENTERLINE
10
10156.9360
20
8606.1378
30
0.0
0
VERTEX
8
CENTERLINE
10
10160.4114
20
8605.3370
30
0.0
0
VERTEX
8
CENTERLINE
10
10163.8759
20
8604.4903
30
0.0
0
VERTEX
8
CENTERLINE
10
10167.3289
20
8603.5980
30
0.0
0
VERTEX
8
CENTERLINE
10
10170.7699
20
8602.6601
30
0.0
0
VERTEX
8
CENTERLINE
10
10174.1981
20
8601.6769
30
0.0
0
VERTEX
8
CENTERLINE
10
10177.6131
20
8600.6484
30
0.0
0
VERTEX
8
CENTERLINE
10
10181.0141
20
8599.5749
30
0.0
0
VERTEX
8
CENTERLINE
10
10184.4007
20
8598.4566
30
0.0
0
VERTEX
8
CENTERLINE
10
10187.7722
20
8597.2936
30
0.0
0
VERTEX
8
CENTERLINE
10
10191.1281
20
8596.0862
30
0.0
0
VERTEX
8
CENTERLINE
10
10194.4677
20
8594.8346
30
0.0
0
VERTEX
8
CENTERLINE
10
10197.7905
20
8593.5389
30
0.0
0
VERTEX
8
CENTERLINE
10
10201.0959
20
8592.1995
30
0.0
0
VERTEX
8
CENTERLINE
10
10204.3833
20
8590.8165
30
0.0
0
VERTEX
8
CENTERLINE
10
10207.6522
20
8589.3903
30
0.0
0
VERTEX
8
CENTERLINE
10
10210.9019
20
8587.9209
30
0.0
0
VERTEX
8
CENTERLINE
10
10214.1319
20
8586.4088
30
0.0
0
VERTEX
8
CENTERLINE
10
10217.3417
20
8584.8541
30
0.0
0
VERTEX
8
CENTERLINE
10
10220.5306
20
8583.2571
30
0.0
0
VERTEX
8
CENTERLINE
10
10223.6982
20
8581.6182
30
0.0
0
VERTEX
8
CENTERLINE
10
10226.8438
20
8579.9375
30
0.0
0
VERTEX
8
CENTERLINE
10
10229.9670
20
8578.2155
30
0.0
0
VERTEX
8
CENTERLINE
10
10233.0672
20
8576.4523
30
0.0
0
VERTEX
8
CENTERLINE
10
10236.1437
20
8574.6483
30
0.0
0
VERTEX
8
CENTERLINE
10
10239.1962
20
8572.8039
30
0.0
0
VERTEX
8
CENTERLINE
10
10242.2241
20
8570.9193
30
0.0
0
VERTEX
8
CENTERLINE
10
10245.2268
20
8568.9948
30
0.0
0
VERTEX
8
CENTERLINE
10
10248.2038
20
8567.0309
30
0.0
0
VERTEX
8
CENTERLINE
10
10251.1546
20
8565.0278
30
0.0
0
VERTEX
8
CENTERLINE
10
10254.0786
20
8562.9858
30
0.0
0
SEQEND
0
POLYLINE
8
FILLET
66
1
70
0
0
VERTEX
8
FILLET
10
9946.3092
20
9967.7153
30
0.0
0
VERTEX
8
FILLET
10
9949.5785
20
9967.6388
30
0.0
0
VERTEX
8
FILLET
10
9952.8098
20
9967.1361
30
0.0
0
VERTEX
8
FILLET
10
9955.9478
20
9966.2160
30
0.0
0
VERTEX
8
FILLET
10
9958.9389
20
9964.8942
30
0.0
0
VERTEX
8
FILLET
10
9961.7319
20
9963.1933
30
0.0
0
VERTEX
8
FILLET
10
9964.2790
20
9961.1423
30
0.0
0
VERTEX
8
FILLET
10
9966.5365
20
9958.7765
30
0.0
0
VERTEX
8
FILLET
10
9968.4660
20
9956.1362
30
0.0
0
VERTEX
8
FILLET
10
9970.0343
20
9953.2666
30
0.0
0
VERTEX
8
FILLET
10
9971.2147
20
9950.2169
30
0.0
0
VERTEX
8
FILLET
10
9971.9868
20
9947.0392
30
0.0
0
VERTEX
8
FILLET
10
9972.3377
20
9943.7880
30
0.0
0
SEQEND
0
POLYLINE
8
FILLET
66
1
70
0
0
VERTEX
8
FILLET
10
10032.2847
20
9946.3092
30
0.0
0
VERTEX
8
FILLET
10
10032.3612
20
9949.5785
30
0.0
0
VERTEX
8
FILLET
10
10032.8639
20
9952.8098
30
0.0
0
VERTEX
8
FILLET
10
10033.7840
20
9955.9478
30
0.0
0
VERTEX
8
FILLET
10
10035.1058
20
9958.9389
30
0.0
0
VERTEX
8
FILLET
10
10036.8067
20
9961.7319
30
0.0
0
VERTEX
8
FILLET
10
10038.8577
20
9964.2790
30
0.0
0
VERTEX
8
FILLET
10
10041.2235
20
9966.5365
30
0.0
0
VERTEX
8
FILLET
10
10043.8638
20
9968.4660
30
0.0
0
VERTEX
8
FILLET
10
10046.7334
20
9970.0343
30
0.0
0
VERTEX
8
FILLET
10
10049.7831
20
9971.2147
30
0.0
0
VERTEX
8
FILLET
10
10052.9608
20
9971.9868
30
0.0
0
VERTEX
8
FILLET
10
10056.2120
20
9972.3377
30
0.0
0
SEQEND
0
POLYLINE
8
FILLET
66
1
70
0
0
VERTEX
8
FILLET
10
10064.6162
20
9772.5143
30
0.0
0
VERTEX
8
FILLET
10
10061.3470
20
9772.5909
30
0.0
0
VERTEX
8
FILLET
10
10058.1157
20
9773.0935
30
0.0
0
VERTEX
8
FILLET
10
10054.9776
20
9774.0136
30
0.0
0
VERTEX
8
FILLET
10
10051.9865
20
9775.3355
30
0.0
0
VERTEX
8
FILLET
10
10049.1936
20
9777.0364
30
0.0
0
VERTEX
8
FILLET
10
10046.6465
20
9779.0873
30
0.0
0
VERTEX
8
FILLET
10
10044.3889
20
9781.4532
30
0.0
0
VERTEX
8
FILLET
10
10042.4595
20
9784.0935
30
0.0
0
VERTEX
8
FILLET
10
10040.8911
20
9786.9630
30
0.0
0
VERTEX
8
FILLET
10
10039.7108
20
9790.0127
30
0.0
0
VERTEX
8
FILLET
10
10038.9386
20
9793.1904
30
0.0
0
VERTEX
8
FILLET
10
10038.5878
20
9796.4417
30
0.0
0
SEQEND
0
POLYLINE
8
FILLET
66
1
70
0
0
VERTEX
8
FILLET
10
10043.2101
20
9686.5389
30
0.0
0
VERTEX
8
FILLET
10
10043.2867
20
9689.8081
30
0.0
0
VERTEX
8
FILLET
10
10043.7893
20
9693.0394
30
0.0
0
VERTEX
8
FILLET
10
10044.7094
20
9696.1775
30
0.0
0
VERTEX
8
FILLET
10
10046.0313
20
9699.1686
30
0.0
0
VERTEX
8
FILLET
10
10047.7322
20
9701.9615
30
0.0
0
VERTEX
8
FILLET
10
10049.7831
20
9704.5086
30
0.0
0
VERTEX
8
FILLET
10
10052.1490
20
9706.7662
30
0.0
0
VERTEX
8
FILLET
10
10054.7893
20
9708.6956
30
0.0
0
VERTEX
8
FILLET
10
10057.6588
20
9710.2640
30
0.0
0
VERTEX
8
FILLET
10
10060.7085
20
9711.4443
30
0.0
0
VERTEX
8
FILLET
10
10063.8862
20
9712.2165
30
0.0
0
VERTEX
8
FILLET
10
10067.1375
20
9712.5673
30
0.0
0
SEQEND
0
POLYLINE
8
FILLET
66
1
70
0
0
VERTEX
8
FILLET
10
11335.1295
20
10086.1796
30
0.0
0
VERTEX
8
FILLET
10
11338.3194
20
10086.5197
30
0.0
0
VERTEX
8
FILLET
10
11341.4395
20
10087.2656
30
0.0
0
VERTEX
8
FILLET
10
11344.4383
20
10088.4048
30
0.0
0
VERTEX
8
FILLET
10
11347.2666
20
10089.9187
30
0.0
0
VERTEX
8
FILLET
10
11349.8778
20
10091.7823
30
0.0
0
VERTEX
8
FILLET
10
11352.2288
20
10093.9649
30
0.0
0
VERTEX
8
FILLET
10
11354.2809
20
10096.4306
30
0.0
0
VERTEX
8
FILLET
10
11356.0005
20
10099.1388
30
0.0
0
VERTEX
8
FILLET
10
11357.3590
20
10102.0449
30
0.0
0
VERTEX
8
FILLET
10
11358.3343
20
10105.1010
30
0.0
0
VERTEX
8
FILLET
10
11358.9102
20
10108.2569
30
0.0
0
VERTEX
8
FILLET
10
11359.0772
20
10111.4605
30
0.0
0
SEQEND
0
POLYLINE
8
FILLET
66
1
70
0
0
VERTEX
8
FILLET
10
11334.3623
20
10026.0942
30
0.0
0
VERTEX
8
FILLET
10
11337.6936
20
10026.0121
30
0.0
0
VERTEX
8
FILLET
10
11340.9844
20
10025.4876
30
0.0
0
VERTEX
8
FILLET
10
11344.1762
20
10024.5301
30
0.0
0
VERTEX
8
FILLET
10
11347.2123
20
10023.1565
30
0.0
0
VERTEX
8
FILLET
10
11350.0388
20
10021.3914
30
0.0
0
VERTEX
8
FILLET
10
11352.6054
20
10019.2661
30
0.0
0
VERTEX
8
FILLET
10
11354.8665
20
10016.8183
30
0.0
0
VERTEX
8
FILLET
10
11356.7820
20
10014.0915
30
0.0
0
VERTEX
8
FILLET
10
11358.3179
20
10011.1342
30
0.0
0
VERTEX
8
FILLET
10
11359.4467
20
10007.9989
30
0.0
0
VERTEX
8
FILLET
10
11360.1486
20
10004.7413
30
0.0
0
VERTEX
8
FILLET
10
11360.4110
20
10001.4193
30
0.0
0
SEQEND
0
POLYLINE
8
FILLET
66
1
70
0
0
VERTEX
8
FILLET
10
11338.2821
20
9826.0823
30
0.0
0
VERTEX
8
FILLET
10
11341.4720
20
9826.4225
30
0.0
0
VERTEX
8
FILLET
10
11344.5921
20
9827.1683
30
0.0
0
VERTEX
8
FILLET
10
11347.5910
20
9828.3075
30
0.0
0
VERTEX
8
FILLET
10
11350.4192
20
9829.8214
30
0.0
0
VERTEX
8
FILLET
10
11353.0304
20
9831.6850
30
0.0
0
VERTEX
8
FILLET
10
11355.3814
20
9833.8676
30
0.0
0
VERTEX
8
FILLET
10
11357.4336
20
9836.3333
30
0.0
0
VERTEX
8
FILLET
10
11359.1531
20
9839.0415
30
0.0
0
VERTEX
8
FILLET
10
11360.5117
20
9841.9476
30
0.0
0
VERTEX
8
FILLET
10
11361.4869
20
9845.0037
30
0.0
0
VERTEX
8
FILLET
10
11362.0628
20
9848.1596
30
0.0
0
VERTEX
8
FILLET
10
11362.2298
20
9851.3632
30
0.0
0
SEQEND
0
POLYLINE
8
FILLET
66
1
70
0
0
VERTEX
8
FILLET
10
11337.5149
20
9765.9970
30
0.0
0
VERTEX
8
FILLET
10
11340.8462
20
9765.9148
30
0.0
0
VERTEX
8
FILLET
10
11344.1370
20
9765.3903
30
0.0
0
VERTEX
8
FILLET
10
11347.3288
20
9764.4328
30
0.0
0
VERTEX
8
FILLET
10
11350.3649
20
9763.0593
30
0.0
0
VERTEX
8
FILLET
10
11353.1914
20
9761.2942
30
0.0
0
VERTEX
8
FILLET
10
11355.7580
20
9759.1689
30
0.0
0
VERTEX
8
FILLET
10
11358.0192
20
9756.7211
30
0.0
0
VERTEX
8
FILLET
10
11359.9347
20
9753.9943
30
0.0
0
VERTEX
8
FILLET
10
11361.4705
20
9751.0370
30
0.0
0
VERTEX
8
FILLET
10
11362.5994
20
9747.9017
30
0.0
0
VERTEX
8
FILLET
10
11363.3012
20
9744.6441
30
0.0
0
VERTEX
8
FILLET
10
11363.5636
20
9741.3221
30
0.0
0
SEQEND
0
POLYLINE
8
FILLET
66
1
70
0
0
VERTEX
8
FILLET
10
11341.4348
20
9565.9850
30
0.0
0
VERTEX
8
FILLET
10
11344.6246
20
9566.3252
30
0.0
0
VERTEX
8
FILLET
10
11347.7447
20
9567.0710
30
0.0
0
VERTEX
8
FILLET
10
11350.7436
20
9568.2103
30
0.0
0
VERTEX
8
FILLET
10
11353.5719
20
9569.7242
30
0.0
0
VERTEX
8
FILLET
10
11356.1830
20
9571.5877
30
0.0
0
VERTEX
8
FILLET
10
11358.5340
20
9573.7704
30
0.0
0
VERTEX
8
FILLET
10
11360.5862
20
9576.2361
30
0.0
0
VERTEX
8
FILLET
10
11362.3057
20
9578.9443
30
0.0
0
VERTEX
8
FILLET
10
11363.6643
20
9581.8503
30
0.0
0
VERTEX
8
FILLET
10
11364.6395
20
9584.9065
30
0.0
0
VERTEX
8
FILLET
10
11365.2154
20
9588.0623
30
0.0
0
VERTEX
8
FILLET
10
11365.3824
20
9591.2660
30
0.0
0
SEQEND
0
POLYLINE
8
FILLET
66
1
70
0
0
VERTEX
8
FILLET
10
11340.6675
20
9505.8997
30
0.0
0
VERTEX
8
FILLET
10
11343.9988
20
9505.8175
30
0.0
0
VERTEX
8
FILLET
10
11347.2896
20
9505.2930
30
0.0
0
VERTEX
8
FILLET
10
11350.4815
20
9504.3355
30
0.0
0
VERTEX
8
FILLET
10
11353.5176
20
9502.9620
30
0.0
0
VERTEX
8
FILLET
10
11356.3440
20
9501.1969
30
0.0
0
VERTEX
8
FILLET
10
11358.9106
20
9499.0716
30
0.0
0
VERTEX
8
FILLET
10
11361.1718
20
9496.6238
30
0.0
0
VERTEX
8
FILLET
10
11363.0873
20
9493.8970
30
0.0
0
VERTEX
8
FILLET
10
11364.6231
20
9490.9397
30
0.0
0
VERTEX
8
FILLET
10
11365.7520
20
9487.8044
30
0.0
0
VERTEX
8
FILLET
10
11366.4538
20
9484.5468
30
0.0
0
VERTEX
8
FILLET
10
11366.7162
20
9481.2248
30
0.0
0
SEQEND
0
POLYLINE
8
FILLET
66
1
70
0
0
VERTEX
8
FILLET
10
11344.5874
20
9305.8878
30
0.0
0
VERTEX
8
FILLET
10
11347.7773
20
9306.2279
30
0.0
0
VERTEX
8
FILLET
10
11350.8973
20
9306.9738
30
0.0
0
VERTEX
8
FILLET
10
11353.8962
20
9308.1130
30
0.0
0
VERTEX
8
FILLET
10
11356.7245
20
9309.6269
30
0.0
0
VERTEX
8
FILLET
10
11359.3356
20
9311.4905
30
0.0
0
VERTEX
8
FILLET
10
11361.6866
20
9313.6731
30
0.0
0
VERTEX
8
FILLET
10
11363.7388
20
9316.1388
30
0.0
0
VERTEX
8
FILLET
10
11365.4583
20
9318.8470
30
0.0
0
VERTEX
8
FILLET
10
11366.8169
20
9321.7531
30
0.0
0
VERTEX
8
FILLET
10
11367.7922
20
9324.8092
30
0.0
0
VERTEX
8
FILLET
10
11368.3680
20
9327.9651
30
0.0
0
VERTEX
8
FILLET
10
11368.5350
20
9331.1687
30
0.0
0
SEQEND
0
POLYLINE
8
FILLET
66
1
70
0
0
VERTEX
8
FILLET
10
11343.8201
20
9245.8025
30
0.0
0
VERTEX
8
FILLET
10
11347.1515
20
9245.7203
30
0.0
0
VERTEX
8
FILLET
10
11350.4423
20
9245.1958
30
0.0
0
VERTEX
8
FILLET
10
11353.6341
20
9244.2383
30
0.0
0
VERTEX
8
FILLET
10
11356.6702
20
9242.8648
30
0.0
0
VERTEX
8
FILLET
10
11359.4967
20
9241.0997
30
0.0
0
VERTEX
8
FILLET
10
11362.0633
20
9238.9743
30
0.0
0
VERTEX
8
FILLET
10
11364.3244
20
9236.5265
30
0.0
0
VERTEX
8
FILLET
10
11366.2399
20
9233.7997
30
0.0
0
VERTEX
8
FILLET
10
11367.7757
20
9230.8424
30
0.0
0
VERTEX
8
FILLET
10
11368.9046
20
9227.7071
30
0.0
0
VERTEX
8
FILLET
10
11369.6065
20
9224.4495
30
0.0
0
VERTEX
8
FILLET
10
11369.8688
20
9221.1275
30
0.0
0
SEQEND
0
POLYLINE
8
FILLET
66
1
70
0
0
VERTEX
8
FILLET
10
10075.5417
20
9512.7440
30
0.0
0
VERTEX
8
FILLET
10
10072.2724
20
9512.8205
30
0.0
0
VERTEX
8
FILLET
10
10069.0411
20
9513.3232
30
0.0
0
VERTEX
8
FILLET
10
10065.9031
20
9514.2433
30
0.0
0
VERTEX
8
FILLET
10
10062.9120
20
9515.5651
30
0.0
0
VERTEX
8
FILLET
10
10060.1190
20
9517.2660
30
0.0
0
VERTEX
8
FILLET
10
10057.5719
20
9519.3170
30
0.0
0
VERTEX
8
FILLET
10
10055.3144
20
9521.6828
30
0.0
0
VERTEX
8
FILLET
10
10053.3849
20
9524.3231
30
0.0
0
VERTEX
8
FILLET
10
10051.8166
20
9527.1927
30
0.0
0
VERTEX
8
FILLET
10
10050.6363
20
9530.2424
30
0.0
0
VERTEX
8
FILLET
10
10049.8641
20
9533.4201
30
0.0
0
VERTEX
8
FILLET
10
10049.5133
20
9536.6714
30
0.0
0
SEQEND
0
POLYLINE
8
FILLET
66
1
70
0
0
VERTEX
8
FILLET
10
10053.5957
20
9427.3487
30
0.0
0
VERTEX
8
FILLET
10
10053.7455
20
9430.5652
30
0.0
0
VERTEX
8
FILLET
10
10054.3074
20
9433.7359
30
0.0
0
VERTEX
8
FILLET
10
10055.2721
20
9436.8080
30
0.0
0
VERTEX
8
FILLET
10
10056.6238
20
9439.7307
30
0.0
0
VERTEX
8
FILLET
10
10058.3399
20
9442.4553
30
0.0
0
VERTEX
8
FILLET
10
10060.3920
20
9444.9368
30
0.0
0
VERTEX
8
FILLET
10
10062.7460
20
9447.1339
30
0.0
0
VERTEX
8
FILLET
10
10065.3629
20
9449.0103
30
0.0
0
VERTEX
8
FILLET
10
10068.1993
20
9450.5347
30
0.0
0
VERTEX
8
FILLET
10
10071.2081
20
9451.6819
30
0.0
0
VERTEX
8
FILLET
10
10074.3394
20
9452.4328
30
0.0
0
VERTEX
8
FILLET
10
10077.5412
20
9452.7750
30
0.0
0
SEQEND
0
POLYLINE
8
FILLET
66
1
70
0
0
VERTEX
8
FILLET
10
10081.7547
20
9251.4902
30
0.0
0
VERTEX
8
FILLET
10
10078.4882
20
9251.6455
30
0.0
0
VERTEX
8
FILLET
10
10075.2700
20
9252.2259
30
0.0
0
VERTEX
8
FILLET
10
10072.1550
20
9253.2213
30
0.0
0
VERTEX
8
FILLET
10
10069.1966
20
9254.6148
30
0.0
0
VERTEX
8
FILLET
10
10066.4454
20
9256.3826
30
0.0
0
VERTEX
8
FILLET
10
10063.9485
20
9258.4943
30
0.0
0
VERTEX
8
FILLET
10
10061.7486
20
9260.9138
30
0.0
0
VERTEX
8
FILLET
10
10059.8833
20
9263.5999
30
0.0
0
VERTEX
8
FILLET
10
10058.3846
20
9266.5064
30
0.0
0
VERTEX
8
FILLET
10
10057.2780
20
9269.5836
30
0.0
0
VERTEX
8
FILLET
10
10056.5826
20
9272.7790
30
0.0
0
VERTEX
8
FILLET
10
10056.3103
20
9276.0378
30
0.0
0
SEQEND
0
POLYLINE
8
FILLET
66
1
70
0
0
VERTEX
8
FILLET
10
10058.2834
20
9166.0555
30
0.0
0
VERTEX
8
FILLET
10
10058.4387
20
9169.3219
30
0.0
0
VERTEX
8
FILLET
10
10059.0190
20
9172.5402
30
0.0
0
VERTEX
8
FILLET
10
10060.0145
20
9175.6551
30
0.0
0
VERTEX
8
FILLET
10
10061.4080
20
9178.6135
30
0.0
0
VERTEX
8
FILLET
10
10063.1757
20
9181.3647
30
0.0
0
VERTEX
8
FILLET
10
10065.2874
20
9183.8616
30
0.0
0
VERTEX
8
FILLET
10
10067.7070
20
9186.0616
30
0.0
0
VERTEX
8
FILLET
10
10070.3930
20
9187.9268
30
0.0
0
VERTEX
8
FILLET
10
10073.2995
20
9189.4256
30
0.0
0
VERTEX
8
FILLET
10
10076.3768
20
9190.5321
30
0.0
0
VERTEX
8
FILLET
10
10079.5721
20
9191.2275
30
0.0
0
VERTEX
8
FILLET
10
10082.8309
20
9191.4999
30
0.0
0
SEQEND
0
POLYLINE
8
FILLET
66
1
70
0
0
VERTEX
8
FILLET
10
10084.6246
20
9091.5160
30
0.0
0
VERTEX
8
FILLET
10
10081.3582
20
9091.6713
30
0.0
0
VERTEX
8
FILLET
10
10078.1399
20
9092.2516
30
0.0
0
VERTEX
8
FILLET
10
10075.0249
20
9093.2471
30
0.0
0
VERTEX
8
FILLET
10
10072.0666
20
9094.6406
30
0.0
0
VERTEX
8
FILLET
10
10069.3154
20
9096.4083
30
0.0
0
VERTEX
8
FILLET
10
10066.8185
20
9098.5200
30
0.0
0
VERTEX
8
FILLET
10
10064.6185
20
9100.9396
30
0.0
0
VERTEX
8
FILLET
10
10062.7533
20
9103.6256
30
0.0
0
VERTEX
8
FILLET
10
10061.2545
20
9106.5321
30
0.0
0
VERTEX
8
FILLET
10
10060.1480
20
9109.6094
30
0.0
0
VERTEX
8
FILLET
10
10059.4526
20
9112.8047
30
0.0
0
VERTEX
8
FILLET
10
10059.1802
20
9116.0635
30
0.0
0
SEQEND
0
POLYLINE
8
FILLET
66
1
70
0
0
VERTEX
8
FILLET
10
10060.7946
20
9026.0780
30
0.0
0
VERTEX
8
FILLET
10
10060.9499
20
9029.3445
30
0.0
0
VERTEX
8
FILLET
10
10061.5302
20
9032.5627
30
0.0
0
VERTEX
8
FILLET
10
10062.5257
20
9035.6777
30
0.0
0
VERTEX
8
FILLET
10
10063.9192
20
9038.6361
30
0.0
0
VERTEX
8
FILLET
10
10065.6869
20
9041.3872
30
0.0
0
VERTEX
8
FILLET
10
10067.7986
20
9043.8842
30
0.0
0
VERTEX
8
FILLET
10
10070.2182
20
9046.0841
30
0.0
0
VERTEX
8
FILLET
10
10072.9042
20
9047.9494
30
0.0
0
VERTEX
8
FILLET
10
10075.8107
20
9049.4481
30
0.0
0
VERTEX
8
FILLET
10
10078.8880
20
9050.5546
30
0.0
0
VERTEX
8
FILLET
10
10082.0833
20
9051.2500
30
0.0
0
VERTEX
8
FILLET
10
10085.3421
20
9051.5224
30
0.0
0
SEQEND
0
POLYLINE
8
FILLET
66
1
70
0
0
VERTEX
8
FILLET
10
9999.1899
20
9114.9873
30
0.0
0
VERTEX
8
FILLET
10
9999.0346
20
9111.7208
30
0.0
0
VERTEX
8
FILLET
10
9998.4542
20
9108.5026
30
0.0
0
VERTEX
8
FILLET
10
9997.4588
20
9105.3876
30
0.0
0
VERTEX
8
FILLET
10
9996.0653
20
9102.4292
30
0.0
0
VERTEX
8
FILLET
10
9994.2975
20
9099.6780
30
0.0
0
VERTEX
8
FILLET
10
9992.1858
20
9097.1811
30
0.0
0
VERTEX
8
FILLET
10
9989.7662
20
9094.9812
30
0.0
0
VERTEX
8
FILLET
10
9987.0802
20
9093.1159
30
0.0
0
VERTEX
8
FILLET
10
9984.1737
20
9091.6172
30
0.0
0
VERTEX
8
FILLET
10
9981.0965
20
9090.5107
30
0.0
0
VERTEX
8
FILLET
10
9977.9011
20
9089.8153
30
0.0
0
VERTEX
8
FILLET
10
9974.6423
20
9089.5429
30
0.0
0
SEQEND
0
POLYLINE
8
FILLET
66
1
70
0
0
VERTEX
8
FILLET
10
9975.3598
20
9049.5493
30
0.0
0
VERTEX
8
FILLET
10
9978.6263
20
9049.3940
30
0.0
0
VERTEX
8
FILLET
10
9981.8445
20
9048.8137
30
0.0
0
VERTEX
8
FILLET
10
9984.9595
20
9047.8182
30
0.0
0
VERTEX
8
FILLET
10
9987.9179
20
9046.4247
30
0.0
0
VERTEX
8
FILLET
10
9990.6691
20
9044.6570
30
0.0
0
VERTEX
8
FILLET
10
9993.1660
20
9042.5452
30
0.0
0
VERTEX
8
FILLET
10
9995.3659
20
9040.1257
30
0.0
0
VERTEX
8
FILLET
10
9997.2312
20
9037.4397
30
0.0
0
VERTEX
8
FILLET
10
9998.7299
20
9034.5332
30
0.0
0
VERTEX
8
FILLET
10
9999.8364
20
9031.4559
30
0.0
0
VERTEX
8
FILLET
10
10000.5318
20
9028.2606
30
0.0
0
VERTEX
8
FILLET
10
10000.8042
20
9025.0018
30
0.0
0
SEQEND
0
POLYLINE
8
FILLET
66
1
70
0
0
VERTEX
8
FILLET
10
10087.1358
20
8951.5385
30
0.0
0
VERTEX
8
FILLET
10
10083.8694
20
8951.6938
30
0.0
0
VERTEX
8
FILLET
10
10080.6511
20
8952.2741
30
0.0
0
VERTEX
8
FILLET
10
10077.5361
20
8953.2696
30
0.0
0
VERTEX
8
FILLET
10
10074.5778
20
8954.6631
30
0.0
0
VERTEX
8
FILLET
10
10071.8266
20
8956.4308
30
0.0
0
VERTEX
8
FILLET
10
10069.3297
20
8958.5426
30
0.0
0
VERTEX
8
FILLET
10
10067.1297
20
8960.9621
30
0.0
0
VERTEX
8
FILLET
10
10065.2645
20
8963.6481
30
0.0
0
VERTEX
8
FILLET
10
10063.7657
20
8966.5546
30
0.0
0
VERTEX
8
FILLET
10
10062.6592
20
8969.6319
30
0.0
0
VERTEX
8
FILLET
10
10061.9638
20
8972.8272
30
0.0
0
VERTEX
8
FILLET
10
10061.6914
20
8976.0860
30
0.0
0
SEQEND
0
POLYLINE
8
FILLET
66
1
70
0
0
VERTEX
8
FILLET
10
10063.6645
20
8866.1037
30
0.0
0
VERTEX
8
FILLET
10
10063.8198
20
8869.3702
30
0.0
0
VERTEX
8
FILLET
10
10064.4002
20
8872.5884
30
0.0
0
VERTEX
8
FILLET
10
10065.3956
20
8875.7034
30
0.0
0
VERTEX
8
FILLET
10
10066.7891
20
8878.6618
30
0.0
0
VERTEX
8
FILLET
10
10068.5568
20
8881.4130
30
0.0
0
VERTEX
8
FILLET
10
10070.6686
20
8883.9099
30
0.0
0
VERTEX
8
FILLET
10
10073.0881
20
8886.1098
30
0.0
0
VERTEX
8
FILLET
10
10075.7741
20
8887.9751
30
0.0
0
VERTEX
8
FILLET
10
10078.6806
20
8889.4738
30
0.0
0
VERTEX
8
FILLET
10
10081.7579
20
8890.5804
30
0.0
0
VERTEX
8
FILLET
10
10084.9533
20
8891.2758
30
0.0
0
VERTEX
8
FILLET
10
10088.2120
20
8891.5481
30
0.0
0
SEQEND
0
POLYLINE
8
FILLET
66
1
70
0
0
VERTEX
8
FILLET
10
10001.7011
20
8975.0098
30
0.0
0
VERTEX
8
FILLET
10
10001.5458
20
8971.7433
30
0.0
0
VERTEX
8
FILLET
10
10000.9654
20
8968.5251
30
0.0
0
VERTEX
8
FILLET
10
9999.9700
20
8965.4101
30
0.0
0
VERTEX
8
FILLET
10
9998.5765
20
8962.4517
30
0.0
0
VERTEX
8
FILLET
10
9996.8087
20
8959.7006
30
0.0
0
VERTEX
8
FILLET
10
9994.6970
20
8957.2036
30
0.0
0
VERTEX
8
FILLET
10
9992.2774
20
8955.0037
30
0.0
0
VERTEX
8
FILLET
10
9989.5914
20
8953.1384
30
0.0
0
VERTEX
8
FILLET
10
9986.6849
20
8951.6397
30
0.0
0
VERTEX
8
FILLET
10
9983.6077
20
8950.5332
30
0.0
0
VERTEX
8
FILLET
10
9980.4123
20
8949.8378
30
0.0
0
VERTEX
8
FILLET
10
9977.1535
20
8949.5654
30
0.0
0
SEQEND
0
POLYLINE
8
FILLET
66
1
70
0
0
VERTEX
8
FILLET
10
9978.2297
20
8889.5751
30
0.0
0
VERTEX
8
FILLET
10
9981.4962
20
8889.4197
30
0.0
0
VERTEX
8
FILLET
10
9984.7145
20
8888.8394
30
0.0
0
VERTEX
8
FILLET
10
9987.8294
20
8887.8440
30
0.0
0
VERTEX
8
FILLET
10
9990.7878
20
8886.4504
30
0.0
0
VERTEX
8
FILLET
10
9993.5390
20
8884.6827
30
0.0
0
VERTEX
8
FILLET
10
9996.0359
20
8882.5710
30
0.0
0
VERTEX
8
FILLET
10
9998.2358
20
8880.1514
30
0.0
0
VERTEX
8
FILLET
10
10000.1011
20
8877.4654
30
0.0
0
VERTEX
8
FILLET
10
10001.5998
20
8874.5589
30
0.0
0
VERTEX
8
FILLET
10
10002.7064
20
8871.4817
30
0.0
0
VERTEX
8
FILLET
10
10003.4018
20
8868.2863
30
0.0
0
VERTEX
8
FILLET
10
10003.6742
20
8865.0275
30
0.0
0
SEQEND
0
POLYLINE
8
FILLET
66
1
70
0
0
VERTEX
8
FILLET
10
10509.8502
20
9454.0928
30
0.0
0
VERTEX
8
FILLET
10
10507.7898
20
9451.5534
30
0.0
0
VERTEX
8
FILLET
10
10505.4155
20
9449.3047
30
0.0
0
VERTEX
8
FILLET
10
10502.7681
20
9447.3851
30
0.0
0
VERTEX
8
FILLET
10
10499.8927
20
9445.8275
30
0.0
0
VERTEX
8
FILLET
10
10496.8386
20
9444.6585
30
0.0
0
VERTEX
8
FILLET
10
10493.6581
20
9443.8982
30
0.0
0
VERTEX
8
FILLET
10
10490.4055
20
9443.5596
30
0.0
0
VERTEX
8
FILLET
10
10487.1365
20
9443.6483
30
0.0
0
VERTEX
8
FILLET
10
10483.9071
20
9444.1630
30
0.0
0
VERTEX
8
FILLET
10
10480.7725
20
9445.0948
30
0.0
0
VERTEX
8
FILLET
10
10477.7864
20
9446.4278
30
0.0
0
VERTEX
8
FILLET
10
10474.9998
20
9448.1392
30
0.0
0
SEQEND
0
POLYLINE
8
FILLET
66
1
70
0
0
VERTEX
8
FILLET
10
10564.7688
20
9384.5661
30
0.0
0
VERTEX
8
FILLET
10
10562.2294
20
9386.6266
30
0.0
0
VERTEX
8
FILLET
10
10559.9806
20
9389.0008
30
0.0
0
VERTEX
8
FILLET
10
10558.0611
20
9391.6483
30
0.0
0
VERTEX
8
FILLET
10
10556.5035
20
9394.5237
30
0.0
0
VERTEX
8
FILLET
10
10555.3345
20
9397.5778
30
0.0
0
VERTEX
8
FILLET
10
10554.5742
20
9400.7583
30
0.0
0
VERTEX
8
FILLET
10
10554.2355
20
9404.0109
30
0.0
0
VERTEX
8
FILLET
10
10554.3243
20
9407.2799
30
0.0
0
VERTEX
8
FILLET
10
10554.8390
20
9410.5093
30
0.0
0
VERTEX
8
FILLET
10
10555.7708
20
9413.6438
30
0.0
0
VERTEX
8
FILLET
10
10557.1038
20
9416.6300
30
0.0
0
VERTEX
8
FILLET
10
10558.8151
20
9419.4166
30
0.0
0
SEQEND
0
POLYLINE
8
FILLET
66
1
70
0
0
VERTEX
8
FILLET
10
10844.4499
20
9217.1343
30
0.0
0
VERTEX
8
FILLET
10
10842.3894
20
9214.5950
30
0.0
0
VERTEX
8
FILLET
10
10840.0152
20
9212.3462
30
0.0
0
VERTEX
8
FILLET
10
10837.3677
20
9210.4266
30
0.0
0
VERTEX
8
FILLET
10
10834.4923
20
9208.8690
30
0.0
0
VERTEX
8
FILLET
10
10831.4382
20
9207.7001
30
0.0
0
VERTEX
8
FILLET
10
10828.2577
20
9206.9398
30
0.0
0
VERTEX
8
FILLET
10
10825.0051
20
9206.6011
30
0.0
0
VERTEX
8
FILLET
10
10821.7362
20
9206.6899
30
0.0
0
VERTEX
8
FILLET
10
10818.5068
20
9207.2046
30
0.0
0
VERTEX
8
FILLET
10
10815.3722
20
9208.1364
30
0.0
0
VERTEX
8
FILLET
10
10812.3860
20
9209.4694
30
0.0
0
VERTEX
8
FILLET
10
10809.5994
20
9211.1807
30
0.0
0
SEQEND
0
POLYLINE
8
FILLET
66
1
70
0
0
VERTEX
8
FILLET
10
10899.3684
20
9147.6077
30
0.0
0
VERTEX
8
FILLET
10
10896.8290
20
9149.6681
30
0.0
0
VERTEX
8
FILLET
10
10894.5803
20
9152.0424
30
0.0
0
VERTEX
8
FILLET
10
10892.6607
20
9154.6899
30
0.0
0
VERTEX
8
FILLET
10
10891.1031
20
9157.5652
30
0.0
0
VERTEX
8
FILLET
10
10889.9341
20
9160.6193
30
0.0
0
VERTEX
8
FILLET
10
10889.1738
20
9163.7999
30
0.0
0
VERTEX
8
FILLET
10
10888.8351
20
9167.0525
30
0.0
0
VERTEX
8
FILLET
10
10888.9239
20
9170.3214
30
0.0
0
VERTEX
8
FILLET
10
10889.4386
20
9173.5508
30
0.0
0
VERTEX
8
FILLET
10
10890.3704
20
9176.6854
30
0.0
0
VERTEX
8
FILLET
10
10891.7034
20
9179.6715
30
0.0
0
VERTEX
8
FILLET
10
10893.4148
20
9182.4581
30
0.0
0
SEQEND
0
POLYLINE
8
FILLET
66
1
70
0
0
VERTEX
8
FILLET
10
10092.6784
20
8642.5882
30
0.0
0
VERTEX
8
FILLET
10
10089.4119
20
8642.7435
30
0.0
0
VERTEX
8
FILLET
10
10086.1937
20
8643.3239
30
0.0
0
VERTEX
8
FILLET
10
10083.0787
20
8644.3193
30
0.0
0
VERTEX
8
FILLET
10
10080.1203
20
8645.7128
30
0.0
0
VERTEX
8
FILLET
10
10077.3691
20
8647.4805
30
0.0
0
VERTEX
8
FILLET
10
10074.8722
20
8649.5923
30
0.0
0
VERTEX
8
FILLET
10
10072.6723
20
8652.0118
30
0.0
0
VERTEX
8
FILLET
10
10070.8070
20
8654.6978
30
0.0
0
VERTEX
8
FILLET
10
10069.3083
20
8657.6043
30
0.0
0
VERTEX
8
FILLET
10
10068.2018
20
8660.6816
30
0.0
0
VERTEX
8
FILLET
10
10067.5064
20
8663.8770
30
0.0
0
VERTEX
8
FILLET
10
10067.2340
20
8667.1357
30
0.0
0
SEQEND
0
POLYLINE
8
FILLET
66
1
70
0
0
VERTEX
8
FILLET
10
10069.2071
20
8557.1534
30
0.0
0
VERTEX
8
FILLET
10
10069.3624
20
8560.4199
30
0.0
0
VERTEX
8
FILLET
10
10069.9427
20
8563.6382
30
0.0
0
VERTEX
8
FILLET
10
10070.9382
20
8566.7531
30
0.0
0
VERTEX
8
FILLET
10
10072.3317
20
8569.7115
30
0.0
0
VERTEX
8
FILLET
10
10074.0994
20
8572.4627
30
0.0
0
VERTEX
8
FILLET
10
10076.2111
20
8574.9596
30
0.0
0
VERTEX
8
FILLET
10
10078.6307
20
8577.1595
30
0.0
0
VERTEX
8
FILLET
10
10081.3167
20
8579.0248
30
0.0
0
VERTEX
8
FILLET
10
10084.2232
20
8580.5235
30
0.0
0
VERTEX
8
FILLET
10
10087.3005
20
8581.6301
30
0.0
0
VERTEX
8
FILLET
10
10090.4958
20
8582.3255
30
0.0
0
VERTEX
8
FILLET
10
10093.7546
20
8582.5979
30
0.0
0
SEQEND
0
POLYLINE
8
FILLET
66
1
70
0
0
VERTEX
8
FILLET
10
10099.4642
20
8256.2332
30
0.0
0
VERTEX
8
FILLET
10
10096.2107
20
8256.4060
30
0.0
0
VERTEX
8
FILLET
10
10093.0073
20
8257.0005
30
0.0
0
VERTEX
8
FILLET
10
10089.9085
20
8258.0066
30
0.0
0
VERTEX
8
FILLET
10
10086.9668
20
8259.4071
30
0.0
0
VERTEX
8
FILLET
10
10084.2322
20
8261.1782
30
0.0
0
VERTEX
8
FILLET
10
10081.7511
20
8263.2900
30
0.0
0
VERTEX
8
FILLET
10
10079.5658
20
8265.7064
30
0.0
0
VERTEX
8
FILLET
10
10077.7133
20
8268.3866
30
0.0
0
VERTEX
8
FILLET
10
10076.2250
20
8271.2848
30
0.0
0
VERTEX
8
FILLET
10
10075.1263
20
8274.3520
30
0.0
0
VERTEX
8
FILLET
10
10074.4358
20
8277.5361
30
0.0
0
VERTEX
8
FILLET
10
10074.1652
20
8280.7829
30
0.0
0
SEQEND
0
POLYLINE
8
FILLET
66
1
70
0
0
VERTEX
8
FILLET
10
10076.1383
20
8170.7987
30
0.0
0
VERTEX
8
FILLET
10
10076.2950
20
8174.0772
30
0.0
0
VERTEX
8
FILLET
10
10076.8798
20
8177.3070
30
0.0
0
VERTEX
8
FILLET
10
10077.8827
20
8180.4322
30
0.0
0
VERTEX
8
FILLET
10
10079.2864
20
8183.3992
30
0.0
0
VERTEX
8
FILLET
10
10081.0667
20
8186.1567
30
0.0
0
VERTEX
8
FILLET
10
10083.1929
20
8188.6572
30
0.0
0
VERTEX
8
FILLET
10
10085.6284
20
8190.8575
30
0.0
0
VERTEX
8
FILLET
10
10088.3311
20
8192.7199
30
0.0
0
VERTEX
8
FILLET
10
10091.2545
20
8194.2122
30
0.0
0
VERTEX
8
FILLET
10
10094.3483
20
8195.3085
30
0.0
0
VERTEX
8
FILLET
10
10097.5589
20
8195.9902
30
0.0
0
VERTEX
8
FILLET
10
10100.8313
20
8196.2453
30
0.0
0
SEQEND
0
POLYLINE
8
FILLET
66
1
70
0
0
VERTEX
8
FILLET
10
10104.1280
20
7996.2631
30
0.0
0
VERTEX
8
FILLET
10
10100.8746
20
7996.4360
30
0.0
0
VERTEX
8
FILLET
10
10097.6712
20
7997.0305
30
0.0
0
VERTEX
8
FILLET
10
10094.5723
20
7998.0366
30
0.0
0
VERTEX
8
FILLET
10
10091.6306
20
7999.4371
30
0.0
0
VERTEX
8
FILLET
10
10088.8961
20
8001.2082
30
0.0
0
VERTEX
8
FILLET
10
10086.4150
20
8003.3200
30
0.0
0
VERTEX
8
FILLET
10
10084.2297
20
8005.7364
30
0.0
0
VERTEX
8
FILLET
10
10082.3771
20
8008.4165
30
0.0
0
VERTEX
8
FILLET
10
10080.8889
20
8011.3148
30
0.0
0
VERTEX
8
FILLET
10
10079.7901
20
8014.3820
30
0.0
0
VERTEX
8
FILLET
10
10079.0996
20
8017.5661
30
0.0
0
VERTEX
8
FILLET
10
10078.8290
20
8020.8129
30
0.0
0
SEQEND
0
POLYLINE
8
FILLET
66
1
70
0
0
VERTEX
8
FILLET
10
10018.8272
20
8020.3765
30
0.0
0
VERTEX
8
FILLET
10
10018.6705
20
8017.0980
30
0.0
0
VERTEX
8
FILLET
10
10018.0857
20
8013.8683
30
0.0
0
VERTEX
8
FILLET
10
10017.0828
20
8010.7430
30
0.0
0
VERTEX
8
FILLET
10
10015.6791
20
8007.7760
30
0.0
0
VERTEX
8
FILLET
10
10013.8988
20
8005.0186
30
0.0
0
VERTEX
8
FILLET
10
10011.7726
20
8002.5181
30
0.0
0
VERTEX
8
FILLET
10
10009.3371
20
8000.3177
30
0.0
0
VERTEX
8
FILLET
10
10006.6344
20
7998.4553
30
0.0
0
VERTEX
8
FILLET
10
10003.7110
20
7996.9631
30
0.0
0
VERTEX
8
FILLET
10
10000.6173
20
7995.8667
30
0.0
0
VERTEX
8
FILLET
10
9997.4066
20
7995.1851
30
0.0
0
VERTEX
8
FILLET
10
9994.1342
20
7994.9299
30
0.0
0
SEQEND
0
POLYLINE
8
LOT
66
1
70
0
0
VERTEX
8
LOT
10
9864.6468
20
10124.4222
30
0.0
0
VERTEX
8
LOT
10
9968.0554
20
10128.7714
30
0.0
0
SEQEND
0
POLYLINE
8
LOT
66
1
70
0
0
VERTEX
8
LOT
10
9968.0554
20
10128.7714
30
0.0
0
VERTEX
8
LOT
10
9972.2575
20
10028.8597
30
0.0
0
SEQEND
0
POLYLINE
8
LOT
66
1
70
0
0
VERTEX
8
LOT
10
9972.2575
20
10028.8597
30
0.0
0
VERTEX
8
LOT
10
9868.8489
20
10024.5106
30
0.0
0
SEQEND
0
POLYLINE
8
LOT
66
1
70
0
0
VERTEX
8
LOT
10
9868.8489
20
10024.5106
30
0.0
0
VERTEX
8
LOT
10
9864.6468
20
10124.4222
30
0.0
0
SEQEND
0
TEXT
8
LOT-TEXT
7
STANDARD
10
9918.4522
20
10076.6410
30
0.0
40
6.0
1
1
50
0.0
72
1
11
9918.4522
21
10076.6410
31
0.0
73
2
0
POLYLINE
8
LOT
66
1
70
0
0
VERTEX
8
LOT
10
9968.0554
20
10128.7714
30
0.0
0
VERTEX
8
LOT
10
10042.9892
20
10131.9230
30
0.0
0
SEQEND
0
POLYLINE
8
LOT
66
1
70
0
0
VERTEX
8
LOT
10
10042.9892
20
10131.9230
30
0.0
0
VERTEX
8
LOT
10
10047.1913
20
10032.0113
30
0.0
0
SEQEND
0
POLYLINE
8
LOT
66
1
70
0
0
VERTEX
8
LOT
10
10047.1913
20
10032.0113
30
0.0
0
VERTEX
8
LOT
10
9972.2575
20
10028.8597
30
0.0
0
SEQEND
0
POLYLINE
8
LOT
66
1
70
0
0
VERTEX
8
LOT
10
9972.2575
20
10028.8597
30
0.0
0
VERTEX
8
LOT
10
9968.0554
20
10128.7714
30
0.0
0
SEQEND
0
TEXT
8
LOT-TEXT
7
STANDARD
10
10007.6233
20
10080.3913
30
0.0
40
6.0
1
2
50
0.0
72
1
11
10007.6233
21
10080.3913
31
0.0
73
2
0
POLYLINE
8
LOT
66
1
70
0
0
VERTEX
8
LOT
10
10042.9892
20
10131.9230
30
0.0
0
VERTEX
8
LOT
10
10117.9229
20
10135.0745
30
0.0
0
SEQEND
0
POLYLINE
8
LOT
66
1
70
0
0
VERTEX
8
LOT
10
10117.9229
20
10135.0745
30
0.0
0
VERTEX
8
LOT
10
10122.1250
20
10035.1629
30
0.0
0
SEQEND
0
POLYLINE
8
LOT
66
1
70
0
0
VERTEX
8
LOT
10
10122.1250
20
10035.1629
30
0.0
0
VERTEX
8
LOT
10
10047.1913
20
10032.0113
30
0.0
0
SEQEND
0
POLYLINE
8
LOT
66
1
70
0
0
VERTEX
8
LOT
10
10047.1913
20
10032.0113
30
0.0
0
VERTEX
8
LOT
10
10042.9892
20
10131.9230
30
0.0
0
SEQEND
0
TEXT
8
LOT-TEXT
7
STANDARD
10
10082.5571
20
10083.5429
30
0.0
40
6.0
1
3
50
0.0
72
1
11
10082.5571
21
10083.5429
31
0.0
73
2
0
POLYLINE
8
LOT
66
1
70
0
0
VERTEX
8
LOT
10
10117.9229
20
10135.0745
30
0.0
0
VERTEX
8
LOT
10
10192.8567
20
10138.2261
30
0.0
0
SEQEND
0
POLYLINE
8
LOT
66
1
70
0
0
VERTEX
8
LOT
10
10192.8567
20
10138.2261
30
0.0
0
VERTEX
8
LOT
10
10197.0588
20
10038.3144
30
0.0
0
SEQEND
0
POLYLINE
8
LOT
66
1
70
0
0
VERTEX
8
LOT
10
10197.0588
20
10038.3144
30
0.0
0
VERTEX
8
LOT
10
10122.1250
20
10035.1629
30
0.0
0
SEQEND
0
POLYLINE
8
LOT
66
1
70
0
0
VERTEX
8
LOT
10
10122.1250
20
10035.1629
30
0.0
0
VERTEX
8
LOT
10
10117.9229
20
10135.0745
30
0.0
0
SEQEND
0
TEXT
8
LOT-TEXT
7
STANDARD
10
10157.4908
20
10086.6945
30
0.0
40
6.0
1
4
50
0.0
72
1
11
10157.4908
21
10086.6945
31
0.0
73
2
0
POLYLINE
8
LOT
66
1
70
0
0
VERTEX
8
LOT
10
10192.8567
20
10138.2261
30
0.0
0
VERTEX
8
LOT
10
10267.7904
20
10141.3777
30
0.0
0
SEQEND
0
POLYLINE
8
LOT
66
1
70
0
0
VERTEX
8
LOT
10
10267.7904
20
10141.3777
30
0.0
0
VERTEX
8
LOT
10
10271.9925
20
10041.4660
30
0.0
0
SEQEND
0
POLYLINE
8
LOT
66
1
70
0
0
VERTEX
8
LOT
10
10271.9925
20
10041.4660
30
0.0
0
VERTEX
8
LOT
10
10197.0588
20
10038.3144
30
0.0
0
SEQEND
0
POLYLINE
8
LOT
66
1
70
0
0
VERTEX
8
LOT
10
10197.0588
20
10038.3144
30
0.0
0
VERTEX
8
LOT
10
10192.8567
20
10138.2261
30
0.0
0
SEQEND
0
TEXT
8
LOT-TEXT
7
STANDARD
10
10232.4246
20
10089.8461
30
0.0
40
6.0
1
5
50
0.0
72
1
11
10232.4246
21
10089.8461
31
0.0
73
2
0
POLYLINE
8
LOT
66
1
70
0
0
VERTEX
8
LOT
10
10267.7904
20
10141.3777
30
0.0
0
VERTEX
8
LOT
10
10342.7242
20
10144.5293
30
0.0
0
SEQEND
0
POLYLINE
8
LOT
66
1
70
0
0
VERTEX
8
LOT
10
10342.7242
20
10144.5293
30
0.0
0
VERTEX
8
LOT
10
10346.9263
20
10044.6176
30
0.0
0
SEQEND
0
POLYLINE
8
LOT
66
1
70
0
0
VERTEX
8
LOT
10
10346.9263
20
10044.6176
30
0.0
0
VERTEX
8
LOT
10
10271.9925
20
10041.4660
30
0.0
0
SEQEND
0
POLYLINE
8
LOT
66
1
70
0
0
VERTEX
8
LOT
10
10271.9925
20
10041.4660
30
0.0
0
VERTEX
8
LOT
10
10267.7904
20
10141.3777
30
0.0
0
SEQEND
0
TEXT
8
LOT-TEXT
7
STANDARD
10
10307.3584
20
10092.9976
30
0.0
40
6.0
1
6
50
0.0
72
1
11
10307.3584
21
10092.9976
31
0.0
73
2
0
POLYLINE
8
LOT
66
1
70
0
0
VERTEX
8
LOT
10
10342.7242
20
10144.5293
30
0.0
0
VERTEX
8
LOT
10
10417.6579
20
10147.6808
30
0.0
0
SEQEND
0
POLYLINE
8
LOT
66
1
70
0
0
VERTEX
8
LOT
10
10417.6579
20
10147.6808
30
0.0
0
VERTEX
8
LOT
10
10421.8600
20
10047.7692
30
0.0
0
SEQEND
0
POLYLINE
8
LOT
66
1
70
0
0
VERTEX
8
LOT
10
10421.8600
20
10047.7692
30
0.0
0
VERTEX
8
LOT
10
10346.9263
20
10044.6176
30
0.0
0
SEQEND
0
POLYLINE
8
LOT
66
1
70
0
0
VERTEX
8
LOT
10
10346.9263
20
10044.6176
30
0.0
0
VERTEX
8
LOT
10
10342.7242
20
10144.5293
30
0.0
0
SEQEND
0
TEXT
8
LOT-TEXT
7
STANDARD
10
10382.2921
20
10096.1492
30
0.0
40
6.0
1
7
50
0.0
72
1
11
10382.2921
21
10096.1492
31
0.0
73
2
0
POLYLINE
8
LOT
66
1
70
0
0
VERTEX
8
LOT
10
10417.6579
20
10147.6808
30
0.0
0
VERTEX
8
LOT
10
10492.5917
20
10150.8324
30
0.0
0
SEQEND
0
POLYLINE
8
LOT
66
1
70
0
0
VERTEX
8
LOT
10
10492.5917
20
10150.8324
30
0.0
0
VERTEX
8
LOT
10
10496.7938
20
10050.9207
30
0.0
0
SEQEND
0
POLYLINE
8
LOT
66
1
70
0
0
VERTEX
8
LOT
10
10496.7938
20
10050.9207
30
0.0
0
VERTEX
8
LOT
10
10421.8600
20
10047.7692
30
0.0
0
SEQEND
0
POLYLINE
8
LOT
66
1
70
0
0
VERTEX
8
LOT
10
10421.8600
20
10047.7692
30
0.0
0
VERTEX
8
LOT
10
10417.6579
20
10147.6808
30
0.0
0
SEQEND
0
TEXT
8
LOT-TEXT
7
STANDARD
10
10457.2259
20
10099.3008
30
0.0
40
6.0
1
8
50
0.0
72
1
11
10457.2259
21
10099.3008
31
0.0
73
2
0
POLYLINE
8
LOT
66
1
70
0
0
VERTEX
8
LOT
10
10492.5917
20
10150.8324
30
0.0
0
VERTEX
8
LOT
10
10567.5255
20
10153.9840
30
0.0
0
SEQEND
0
POLYLINE
8
LOT
66
1
70
0
0
VERTEX
8
LOT
10
10567.5255
20
10153.9840
30
0.0
0
VERTEX
8
LOT
10
10571.7275
20
10054.0723
30
0.0
0
SEQEND
0
POLYLINE
8
LOT
66
1
70
0
0
VERTEX
8
LOT
10
10571.7275
20
10054.0723
30
0.0
0
VERTEX
8
LOT
10
10496.7938
20
10050.9207
30
0.0
0
SEQEND
0
POLYLINE
8
LOT
66
1
70
0
0
VERTEX
8
LOT
10
10496.7938
20
10050.9207
30
0.0
0
VERTEX
8
LOT
10
10492.5917
20
10150.8324
30
0.0
0
SEQEND
0
TEXT
8
LOT-TEXT
7
STANDARD
10
10532.1596
20
10102.4524
30
0.0
40
6.0
1
9
50
0.0
72
1
11
10532.1596
21
10102.4524
31
0.0
73
2
0
POLYLINE
8
LOT
66
1
70
0
0
VERTEX
8
LOT
10
10567.5255
20
10153.9840
30
0.0
0
VERTEX
8
LOT
10
10642.4592
20
10157.1356
30
0.0
0
SEQEND
0
POLYLINE
8
LOT
66
1
70
0
0
VERTEX
8
LOT
10
10642.4592
20
10157.1356
30
0.0
0
VERTEX
8
LOT
10
10646.6613
20
10057.2239
30
0.0
0
SEQEND
0
POLYLINE
8
LOT
66
1
70
0
0
VERTEX
8
LOT
10
10646.6613
20
10057.2239
30
0.0
0
VERTEX
8
LOT
10
10571.7275
20
10054.0723
30
0.0
0
SEQEND
0
POLYLINE
8
LOT
66
1
70
0
0
VERTEX
8
LOT
10
10571.7275
20
10054.0723
30
0.0
0
VERTEX
8
LOT
10
10567.5255
20
10153.9840
30
0.0
0
SEQEND
0
TEXT
8
LOT-TEXT
7
STANDARD
10
10607.0934
20
10105.6039
30
0.0
40
6.0
1
10
50
0.0
72
1
11
10607.0934
21
10105.6039
31
0.0
73
2
0
POLYLINE
8
LOT
66
1
70
0
0
VERTEX
8
LOT
10
10642.4592
20
10157.1356
30
0.0
0
VERTEX
8
LOT
10
10717.3930
20
10160.2871
30
0.0
0
SEQEND
0
POLYLINE
8
LOT
66
1
70
0
0
VERTEX
8
LOT
10
10717.3930
20
10160.2871
30
0.0
0
VERTEX
8
LOT
10
10721.5951
20
10060.3755
30
0.0
0
SEQEND
0
POLYLINE
8
LOT
66
1
70
0
0
VERTEX
8
LOT
10
10721.5951
20
10060.3755
30
0.0
0
VERTEX
8
LOT
10
10646.6613
20
10057.2239
30
0.0
0
SEQEND
0
POLYLINE
8
LOT
66
1
70
0
0
VERTEX
8
LOT
10
10646.6613
20
10057.2239
30
0.0
0
VERTEX
8
LOT
10
10642.4592
20
10157.1356
30
0.0
0
SEQEND
0
TEXT
8
LOT-TEXT
7
STANDARD
10
10682.0271
20
10108.7555
30
0.0
40
6.0
1
11
50
0.0
72
1
11
10682.0271
21
10108.7555
31
0.0
73
2
0
POLYLINE
8
LOT
66
1
70
0
0
VERTEX
8
LOT
10
10717.3930
20
10160.2871
30
0.0
0
VERTEX
8
LOT
10
10792.3267
20
10163.4387
30
0.0
0
SEQEND
0
POLYLINE
8
LOT
66
1
70
0
0
VERTEX
8
LOT
10
10792.3267
20
10163.4387
30
0.0
0
VERTEX
8
LOT
10
10796.5288
20
10063.5270
30
0.0
0
SEQEND
0
POLYLINE
8
LOT
66
1
70
0
0
VERTEX
8
LOT
10
10796.5288
20
10063.5270
30
0.0
0
VERTEX
8
LOT
10
10721.5951
20
10060.3755
30
0.0
0
SEQEND
0
POLYLINE
8
LOT
66
1
70
0
0
VERTEX
8
LOT
10
10721.5951
20
10060.3755
30
0.0
0
VERTEX
8
LOT
10
10717.3930
20
10160.2871
30
0.0
0
SEQEND
0
TEXT
8
LOT-TEXT
7
STANDARD
10
10756.9609
20
10111.9071
30
0.0
40
6.0
1
12
50
0.0
72
1
11
10756.9609
21
10111.9071
31
0.0
73
2
0
POLYLINE
8
LOT
66
1
70
0
0
VERTEX
8
LOT
10
10792.3267
20
10163.4387
30
0.0
0
VERTEX
8
LOT
10
10867.2605
20
10166.5903
30
0.0
0
SEQEND
0
POLYLINE
8
LOT
66
1
70
0
0
VERTEX
8
LOT
10
10867.2605
20
10166.5903
30
0.0
0
VERTEX
8
LOT
10
10871.4626
20
10066.6786
30
0.0
0
SEQEND
0
POLYLINE
8
LOT
66
1
70
0
0
VERTEX
8
LOT
10
10871.4626
20
10066.6786
30
0.0
0
VERTEX
8
LOT
10
10796.5288
20
10063.5270
30
0.0
0
SEQEND
0
POLYLINE
8
LOT
66
1
70
0
0
VERTEX
8
LOT
10
10796.5288
20
10063.5270
30
0.0
0
VERTEX
8
LOT
10
10792.3267
20
10163.4387
30
0.0
0
SEQEND
0
TEXT
8
LOT-TEXT
7
STANDARD
10
10831.8946
20
10115.0586
30
0.0
40
6.0
1
13
50
0.0
72
1
11
10831.8946
21
10115.0586
31
0.0
73
2
0
POLYLINE
8
LOT
66
1
70
0
0
VERTEX
8
LOT
10
10867.2605
20
10166.5903
30
0.0
0
VERTEX
8
LOT
10
10942.1942
20
10169.7418
30
0.0
0
SEQEND
0
POLYLINE
8
LOT
66
1
70
0
0
VERTEX
8
LOT
10
10942.1942
20
10169.7418
30
0.0
0
VERTEX
8
LOT
10
10946.3963
20
10069.8302
30
0.0
0
SEQEND
0
POLYLINE
8
LOT
66
1
70
0
0
VERTEX
8
LOT
10
10946.3963
20
10069.8302
30
0.0
0
VERTEX
8
LOT
10
10871.4626
20
10066.6786
30
0.0
0
SEQEND
0
POLYLINE
8
LOT
66
1
70
0
0
VERTEX
8
LOT
10
10871.4626
20
10066.6786
30
0.0
0
VERTEX
8
LOT
10
10867.2605
20
10166.5903
30
0.0
0
SEQEND
0
TEXT
8
LOT-TEXT
7
STANDARD
10
10906.8284
20
10118.2102
30
0.0
40
6.0
1
14
50
0.0
72
1
11
10906.8284
21
10118.2102
31
0.0
73
2
0
POLYLINE
8
LOT
66
1
70
0
0
VERTEX
8
LOT
10
10942.1942
20
10169.7418
30
0.0
0
VERTEX
8
LOT
10
11017.1280
20
10172.8934
30
0.0
0
SEQEND
0
POLYLINE
8
LOT
66
1
70
0
0
VERTEX
8
LOT
10
11017.1280
20
10172.8934
30
0.0
0
VERTEX
8
LOT
10
11021.3301
20
10072.9817
30
0.0
0
SEQEND
0
POLYLINE
8
LOT
66
1
70
0
0
VERTEX
8
LOT
10
11021.3301
20
10072.9817
30
0.0
0
VERTEX
8
LOT
10
10946.3963
20
10069.8302
30
0.0
0
SEQEND
0
POLYLINE
8
LOT
66
1
70
0
0
VERTEX
8
LOT
10
10946.3963
20
10069.8302
30
0.0
0
VERTEX
8
LOT
10
10942.1942
20
10169.7418
30
0.0
0
SEQEND
0
TEXT
8
LOT-TEXT
7
STANDARD
10
10981.7622
20
10121.3618
30
0.0
40
6.0
1
15
50
0.0
72
1
11
10981.7622
21
10121.3618
31
0.0
73
2
0
POLYLINE
8
LOT
66
1
70
0
0
VERTEX
8
LOT
10
11017.1280
20
10172.8934
30
0.0
0
VERTEX
8
LOT
10
11092.0617
20
10176.0450
30
0.0
0
SEQEND
0
POLYLINE
8
LOT
66
1
70
0
0
VERTEX
8
LOT
10
11092.0617
20
10176.0450
30
0.0
0
VERTEX
8
LOT
10
11096.2638
20
10076.1333
30
0.0
0
SEQEND
0
POLYLINE
8
LOT
66
1
70
0
0
VERTEX
8
LOT
10
11096.2638
20
10076.1333
30
0.0
0
VERTEX
8
LOT
10
11021.3301
20
10072.9817
30
0.0
0
SEQEND
0
POLYLINE
8
LOT
66
1
70
0
0
VERTEX
8
LOT
10
11021.3301
20
10072.9817
30
0.0
0
VERTEX
8
LOT
10
11017.1280
20
10172.8934
30
0.0
0
SEQEND
0
TEXT
8
LOT-TEXT
7
STANDARD
10
11056.6959
20
10124.5134
30
0.0
40
6.0
1
16
50
0.0
72
1
11
11056.6959
21
10124.5134
31
0.0
73
2
0
POLYLINE
8
LOT
66
1
70
0
0
VERTEX
8
LOT
10
11092.0617
20
10176.0450
30
0.0
0
VERTEX
8
LOT
10
11166.9955
20
10179.1966
30
0.0
0
SEQEND
0
POLYLINE
8
LOT
66
1
70
0
0
VERTEX
8
LOT
10
11166.9955
20
10179.1966
30
0.0
0
VERTEX
8
LOT
10
11171.1976
20
10079.2849
30
0.0
0
SEQEND
0
POLYLINE
8
LOT
66
1
70
0
0
VERTEX
8
LOT
10
11171.1976
20
10079.2849
30
0.0
0
VERTEX
8
LOT
10
11096.2638
20
10076.1333
30
0.0
0
SEQEND
0
POLYLINE
8
LOT
66
1
70
0
0
VERTEX
8
LOT
10
11096.2638
20
10076.1333
30
0.0
0
VERTEX
8
LOT
10
11092.0617
20
10176.0450
30
0.0
0
SEQEND
0
TEXT
8
LOT-TEXT
7
STANDARD
10
11131.6297
20
10127.6649
30
0.0
40
6.0
1
17
50
0.0
72
1
11
11131.6297
21
10127.6649
31
0.0
73
2
0
POLYLINE
8
LOT
66
1
70
0
0
VERTEX
8
LOT
10
11166.9955
20
10179.1966
30
0.0
0
VERTEX
8
LOT
10
11241.9292
20
10182.3481
30
0.0
0
SEQEND
0
POLYLINE
8
LOT
66
1
70
0
0
VERTEX
8
LOT
10
11241.9292
20
10182.3481
30
0.0
0
VERTEX
8
LOT
10
11246.1313
20
10082.4365
30
0.0
0
SEQEND
0
POLYLINE
8
LOT
66
1
70
0
0
VERTEX
8
LOT
10
11246.1313
20
10082.4365
30
0.0
0
VERTEX
8
LOT
10
11171.1976
20
10079.2849
30
0.0
0
SEQEND
0
POLYLINE
8
LOT
66
1
70
0
0
VERTEX
8
LOT
10
11171.1976
20
10079.2849
30
0.0
0
VERTEX
8
LOT
10
11166.9955
20
10179.1966
30
0.0
0
SEQEND
0
TEXT
8
LOT-TEXT
7
STANDARD
10
11206.5634
20
10130.8165
30
0.0
40
6.0
1
18
50
0.0
72
1
11
11206.5634
21
10130.8165
31
0.0
73
2
0
POLYLINE
8
LOT
66
1
70
0
0
VERTEX
8
LOT
10
11241.9292
20
10182.3481
30
0.0
0
VERTEX
8
LOT
10
11358.1565
20
10187.2364
30
0.0
0
SEQEND
0
POLYLINE
8
LOT
66
1
70
0
0
VERTEX
8
LOT
10
11358.1565
20
10187.2364
30
0.0
0
VERTEX
8
LOT
10
11359.0772
20
10111.4605
30
0.0
0
SEQEND
0
POLYLINE
8
LOT-CURVE
66
1
70
0
0
VERTEX
8
LOT-CURVE
10
11359.0772
20
10111.4605
30
0.0
0
VERTEX
8
LOT-CURVE
10
11358.9905
20
10109.0553
30
0.0
0
VERTEX
8
LOT-CURVE
10
11358.6729
20
10106.6697
30
0.0
0
VERTEX
8
LOT-CURVE
10
11358.1274
20
10104.3256
30
0.0
0
VERTEX
8
LOT-CURVE
10
11357.3590
20
10102.0449
30
0.0
0
VERTEX
8
LOT-CURVE
10
11356.3749
20
10099.8486
30
0.0
0
VERTEX
8
LOT-CURVE
10
11355.1842
20
10097.7571
30
0.0
0
VERTEX
8
LOT-CURVE
10
11353.7979
20
10095.7898
30
0.0
0
VERTEX
8
LOT-CURVE
10
11352.2288
20
10093.9649
30
0.0
0
VERTEX
8
LOT-CURVE
10
11350.4915
20
10092.2993
30
0.0
0
VERTEX
8
LOT-CURVE
10
11348.6021
20
10090.8085
30
0.0
0
VERTEX
8
LOT-CURVE
10
11346.5781
20
10089.5063
30
0.0
0
VERTEX
8
LOT-CURVE
10
11344.4383
20
10088.4048
30
0.0
0
VERTEX
8
LOT-CURVE
10
11342.2025
20
10087.5141
30
0.0
0
VERTEX
8
LOT-CURVE
10
11339.8914
20
10086.8425
30
0.0
0
VERTEX
8
LOT-CURVE
10
11337.5264
20
10086.3963
30
0.0
0
VERTEX
8
LOT-CURVE
10
11335.1295
20
10086.1796
30
0.0
0
SEQEND
0
POLYLINE
8
LOT
66
1
70
0
0
VERTEX
8
LOT
10
11335.1295
20
10086.1796
30
0.0
0
VERTEX
8
LOT
10
11246.1313
20
10082.4365
30
0.0
0
SEQEND
0
POLYLINE
8
LOT
66
1
70
0
0
VERTEX
8
LOT
10
11246.1313
20
10082.4365
30
0.0
0
VERTEX
8
LOT
10
11241.9292
20
10182.3481
30
0.0
0
SEQEND
0
TEXT
8
LOT-TEXT
7
STANDARD
10
11308.0848
20
10129.9322
30
0.0
40
6.0
1
19
50
0.0
72
1
11
11308.0848
21
10129.9322
31
0.0
73
2
0
TEXT
8
BLOCK-TEXT
7
STANDARD
10
10607.7434
20
10105.3600
30
0.0
40
14.0
1
(18)
50
0.0
72
1
11
10607.7434
21
10105.3600
31
0.0
73
2
0
POLYLINE
8
LOT-CURVE
66
1
70
0
0
VERTEX
8
LOT-CURVE
10
10032.2847
20
9946.3092
30
0.0
0
VERTEX
8
LOT-CURVE
10
10032.3020
20
9948.7625
30
0.0
0
VERTEX
8
LOT-CURVE
10
10032.5597
20
9951.2023
30
0.0
0
VERTEX
8
LOT-CURVE
10
10033.0552
20
9953.6052
30
0.0
0
VERTEX
8
LOT-CURVE
10
10033.7840
20
9955.9478
30
0.0
0
VERTEX
8
LOT-CURVE
10
10034.7388
20
9958.2078
30
0.0
0
VERTEX
8
LOT-CURVE
10
10035.9106
20
9960.3632
30
0.0
0
VERTEX
8
LOT-CURVE
10
10037.2879
20
9962.3935
30
0.0
0
VERTEX
8
LOT-CURVE
10
10038.8577
20
9964.2790
30
0.0
0
VERTEX
8
LOT-CURVE
10
10040.6047
20
9966.0015
30
0.0
0
VERTEX
8
LOT-CURVE
10
10042.5121
20
9967.5445
30
0.0
0
VERTEX
8
LOT-CURVE
10
10044.5616
20
9968.8931
30
0.0
0
VERTEX
8
LOT-CURVE
10
10046.7334
20
9970.0343
30
0.0
0
VERTEX
8
LOT-CURVE
10
10049.0066
20
9970.9572
30
0.0
0
VERTEX
8
LOT-CURVE
10
10051.3593
20
9971.6528
30
0.0
0
VERTEX
8
LOT-CURVE
10
10053.7688
20
9972.1144
30
0.0
0
VERTEX
8
LOT-CURVE
10
10056.2120
20
9972.3377
30
0.0
0
SEQEND
0
POLYLINE
8
LOT
66
1
70
0
0
VERTEX
8
LOT
10
10056.2120
20
9972.3377
30
0.0
0
VERTEX
8
LOT
10
10124.6515
20
9975.2161
30
0.0
0
SEQEND
0
POLYLINE
8
LOT
66
1
70
0
0
VERTEX
8
LOT
10
10124.6515
20
9975.2161
30
0.0
0
VERTEX
8
LOT
10
10128.8536
20
9875.3044
30
0.0
0
SEQEND
0
POLYLINE
8
LOT
66
1
70
0
0
VERTEX
8
LOT
10
10128.8536
20
9875.3044
30
0.0
0
VERTEX
8
LOT
10
10035.4362
20
9871.3755
30
0.0
0
SEQEND
0
POLYLINE
8
LOT
66
1
70
0
0
VERTEX
8
LOT
10
10035.4362
20
9871.3755
30
0.0
0
VERTEX
8
LOT
10
10032.2847
20
9946.3092
30
0.0
0
SEQEND
0
TEXT
8
LOT-TEXT
7
STANDARD
10
10075.4876
20
9928.1086
30
0.0
40
6.0
1
1
50
0.0
72
1
11
10075.4876
21
9928.1086
31
0.0
73
2
0
POLYLINE
8
LOT
66
1
70
0
0
VERTEX
8
LOT
10
10124.6515
20
9975.2161
30
0.0
0
VERTEX
8
LOT
10
10199.5853
20
9978.3677
30
0.0
0
SEQEND
0
POLYLINE
8
LOT
66
1
70
0
0
VERTEX
8
LOT
10
10199.5853
20
9978.3677
30
0.0
0
VERTEX
8
LOT
10
10203.7874
20
9878.4560
30
0.0
0
SEQEND
0
POLYLINE
8
LOT
66
1
70
0
0
VERTEX
8
LOT
10
10203.7874
20
9878.4560
30
0.0
0
VERTEX
8
LOT
10
10128.8536
20
9875.3044
30
0.0
0
SEQEND
0
POLYLINE
8
LOT
66
1
70
0
0
VERTEX
8
LOT
10
10128.8536
20
9875.3044
30
0.0
0
VERTEX
8
LOT
10
10124.6515
20
9975.2161
30
0.0
0
SEQEND
0
TEXT
8
LOT-TEXT
7
STANDARD
10
10164.2195
20
9926.8360
30
0.0
40
6.0
1
2
50
0.0
72
1
11
10164.2195
21
9926.8360
31
0.0
73
2
0
POLYLINE
8
LOT
66
1
70
0
0
VERTEX
8
LOT
10
10199.5853
20
9978.3677
30
0.0
0
VERTEX
8
LOT
10
10274.5191
20
9981.5192
30
0.0
0
SEQEND
0
POLYLINE
8
LOT
66
1
70
0
0
VERTEX
8
LOT
10
10274.5191
20
9981.5192
30
0.0
0
VERTEX
8
LOT
10
10278.7212
20
9881.6076
30
0.0
0
SEQEND
0
POLYLINE
8
LOT
66
1
70
0
0
VERTEX
8
LOT
10
10278.7212
20
9881.6076
30
0.0
0
VERTEX
8
LOT
10
10203.7874
20
9878.4560
30
0.0
0
SEQEND
0
POLYLINE
8
LOT
66
1
70
0
0
VERTEX
8
LOT
10
10203.7874
20
9878.4560
30
0.0
0
VERTEX
8
LOT
10
10199.5853
20
9978.3677
30
0.0
0
SEQEND
0
TEXT
8
LOT-TEXT
7
STANDARD
10
10239.1532
20
9929.9876
30
0.0
40
6.0
1
3
50
0.0
72
1
11
10239.1532
21
9929.9876
31
0.0
73
2
0
POLYLINE
8
LOT
66
1
70
0
0
VERTEX
8
LOT
10
10274.5191
20
9981.5192
30
0.0
0
VERTEX
8
LOT
10
10349.4528
20
9984.6708
30
0.0
0
SEQEND
0
POLYLINE
8
LOT
66
1
70
0
0
VERTEX
8
LOT
10
10349.4528
20
9984.6708
30
0.0
0
VERTEX
8
LOT
10
10353.6549
20
9884.7591
30
0.0
0
SEQEND
0
POLYLINE
8
LOT
66
1
70
0
0
VERTEX
8
LOT
10
10353.6549
20
9884.7591
30
0.0
0
VERTEX
8
LOT
10
10278.7212
20
9881.6076
30
0.0
0
SEQEND
0
POLYLINE
8
LOT
66
1
70
0
0
VERTEX
8
LOT
10
10278.7212
20
9881.6076
30
0.0
0
VERTEX
8
LOT
10
10274.5191
20
9981.5192
30
0.0
0
SEQEND
0
TEXT
8
LOT-TEXT
7
STANDARD
10
10314.0870
20
9933.1392
30
0.0
40
6.0
1
4
50
0.0
72
1
11
10314.0870
21
9933.1392
31
0.0
73
2
0
POLYLINE
8
LOT
66
1
70
0
0
VERTEX
8
LOT
10
10349.4528
20
9984.6708
30
0.0
0
VERTEX
8
LOT
10
10424.3866
20
9987.8224
30
0.0
0
SEQEND
0
POLYLINE
8
LOT
66
1
70
0
0
VERTEX
8
LOT
10
10424.3866
20
9987.8224
30
0.0
0
VERTEX
8
LOT
10
10428.5887
20
9887.9107
30
0.0
0
SEQEND
0
POLYLINE
8
LOT
66
1
70
0
0
VERTEX
8
LOT
10
10428.5887
20
9887.9107
30
0.0
0
VERTEX
8
LOT
10
10353.6549
20
9884.7591
30
0.0
0
SEQEND
0
POLYLINE
8
LOT
66
1
70
0
0
VERTEX
8
LOT
10
10353.6549
20
9884.7591
30
0.0
0
VERTEX
8
LOT
10
10349.4528
20
9984.6708
30
0.0
0
SEQEND
0
TEXT
8
LOT-TEXT
7
STANDARD
10
10389.0207
20
9936.2908
30
0.0
40
6.0
1
5
50
0.0
72
1
11
10389.0207
21
9936.2908
31
0.0
73
2
0
POLYLINE
8
LOT
66
1
70
0
0
VERTEX
8
LOT
10
10424.3866
20
9987.8224
30
0.0
0
VERTEX
8
LOT
10
10499.3203
20
9990.9740
30
0.0
0
SEQEND
0
POLYLINE
8
LOT
66
1
70
0
0
VERTEX
8
LOT
10
10499.3203
20
9990.9740
30
0.0
0
VERTEX
8
LOT
10
10503.5224
20
9891.0623
30
0.0
0
SEQEND
0
POLYLINE
8
LOT
66
1
70
0
0
VERTEX
8
LOT
10
10503.5224
20
9891.0623
30
0.0
0
VERTEX
8
LOT
10
10428.5887
20
9887.9107
30
0.0
0
SEQEND
0
POLYLINE
8
LOT
66
1
70
0
0
VERTEX
8
LOT
10
10428.5887
20
9887.9107
30
0.0
0
VERTEX
8
LOT
10
10424.3866
20
9987.8224
30
0.0
0
SEQEND
0
TEXT
8
LOT-TEXT
7
STANDARD
10
10463.9545
20
9939.4423
30
0.0
40
6.0
1
6
50
0.0
72
1
11
10463.9545
21
9939.4423
31
0.0
73
2
0
POLYLINE
8
LOT
66
1
70
0
0
VERTEX
8
LOT
10
10499.3203
20
9990.9740
30
0.0
0
VERTEX
8
LOT
10
10574.2541
20
9994.1255
30
0.0
0
SEQEND
0
POLYLINE
8
LOT
66
1
70
0
0
VERTEX
8
LOT
10
10574.2541
20
9994.1255
30
0.0
0
VERTEX
8
LOT
10
10578.4562
20
9894.2139
30
0.0
0
SEQEND
0
POLYLINE
8
LOT
66
1
70
0
0
VERTEX
8
LOT
10
10578.4562
20
9894.2139
30
0.0
0
VERTEX
8
LOT
10
10503.5224
20
9891.0623
30
0.0
0
SEQEND
0
POLYLINE
8
LOT
66
1
70
0
0
VERTEX
8
LOT
10
10503.5224
20
9891.0623
30
0.0
0
VERTEX
8
LOT
10
10499.3203
20
9990.9740
30
0.0
0
SEQEND
0
TEXT
8
LOT-TEXT
7
STANDARD
10
10538.8882
20
9942.5939
30
0.0
40
6.0
1
7
50
0.0
72
1
11
10538.8882
21
9942.5939
31
0.0
73
2
0
POLYLINE
8
LOT
66
1
70
0
0
VERTEX
8
LOT
10
10574.2541
20
9994.1255
30
0.0
0
VERTEX
8
LOT
10
10649.1878
20
9997.2771
30
0.0
0
SEQEND
0
POLYLINE
8
LOT
66
1
70
0
0
VERTEX
8
LOT
10
10649.1878
20
9997.2771
30
0.0
0
VERTEX
8
LOT
10
10653.3899
20
9897.3654
30
0.0
0
SEQEND
0
POLYLINE
8
LOT
66
1
70
0
0
VERTEX
8
LOT
10
10653.3899
20
9897.3654
30
0.0
0
VERTEX
8
LOT
10
10578.4562
20
9894.2139
30
0.0
0
SEQEND
0
POLYLINE
8
LOT
66
1
70
0
0
VERTEX
8
LOT
10
10578.4562
20
9894.2139
30
0.0
0
VERTEX
8
LOT
10
10574.2541
20
9994.1255
30
0.0
0
SEQEND
0
TEXT
8
LOT-TEXT
7
STANDARD
10
10613.8220
20
9945.7455
30
0.0
40
6.0
1
8
50
0.0
72
1
11
10613.8220
21
9945.7455
31
0.0
73
2
0
POLYLINE
8
LOT
66
1
70
0
0
VERTEX
8
LOT
10
10649.1878
20
9997.2771
30
0.0
0
VERTEX
8
LOT
10
10724.1216
20
10000.4287
30
0.0
0
SEQEND
0
POLYLINE
8
LOT
66
1
70
0
0
VERTEX
8
LOT
10
10724.1216
20
10000.4287
30
0.0
0
VERTEX
8
LOT
10
10728.3237
20
9900.5170
30
0.0
0
SEQEND
0
POLYLINE
8
LOT
66
1
70
0
0
VERTEX
8
LOT
10
10728.3237
20
9900.5170
30
0.0
0
VERTEX
8
LOT
10
10653.3899
20
9897.3654
30
0.0
0
SEQEND
0
POLYLINE
8
LOT
66
1
70
0
0
VERTEX
8
LOT
10
10653.3899
20
9897.3654
30
0.0
0
VERTEX
8
LOT
10
10649.1878
20
9997.2771
30
0.0
0
SEQEND
0
TEXT
8
LOT-TEXT
7
STANDARD
10
10688.7558
20
9948.8970
30
0.0
40
6.0
1
9
50
0.0
72
1
11
10688.7558
21
9948.8970
31
0.0
73
2
0
POLYLINE
8
LOT
66
1
70
0
0
VERTEX
8
LOT
10
10724.1216
20
10000.4287
30
0.0
0
VERTEX
8
LOT
10
10799.0553
20
10003.5802
30
0.0
0
SEQEND
0
POLYLINE
8
LOT
66
1
70
0
0
VERTEX
8
LOT
10
10799.0553
20
10003.5802
30
0.0
0
VERTEX
8
LOT
10
10803.2574
20
9903.6686
30
0.0
0
SEQEND
0
POLYLINE
8
LOT
66
1
70
0
0
VERTEX
8
LOT
10
10803.2574
20
9903.6686
30
0.0
0
VERTEX
8
LOT
10
10728.3237
20
9900.5170
30
0.0
0
SEQEND
0
POLYLINE
8
LOT
66
1
70
0
0
VERTEX
8
LOT
10
10728.3237
20
9900.5170
30
0.0
0
VERTEX
8
LOT
10
10724.1216
20
10000.4287
30
0.0
0
SEQEND
0
TEXT
8
LOT-TEXT
7
STANDARD
10
10763.6895
20
9952.0486
30
0.0
40
6.0
1
10
50
0.0
72
1
11
10763.6895
21
9952.0486
31
0.0
73
2
0
POLYLINE
8
LOT
66
1
70
0
0
VERTEX
8
LOT
10
10799.0553
20
10003.5802
30
0.0
0
VERTEX
8
LOT
10
10873.9891
20
10006.7318
30
0.0
0
SEQEND
0
POLYLINE
8
LOT
66
1
70
0
0
VERTEX
8
LOT
10
10873.9891
20
10006.7318
30
0.0
0
VERTEX
8
LOT
10
10878.1912
20
9906.8201
30
0.0
0
SEQEND
0
POLYLINE
8
LOT
66
1
70
0
0
VERTEX
8
LOT
10
10878.1912
20
9906.8201
30
0.0
0
VERTEX
8
LOT
10
10803.2574
20
9903.6686
30
0.0
0
SEQEND
0
POLYLINE
8
LOT
66
1
70
0
0
VERTEX
8
LOT
10
10803.2574
20
9903.6686
30
0.0
0
VERTEX
8
LOT
10
10799.0553
20
10003.5802
30
0.0
0
SEQEND
0
TEXT
8
LOT-TEXT
7
STANDARD
10
10838.6233
20
9955.2002
30
0.0
40
6.0
1
11
50
0.0
72
1
11
10838.6233
21
9955.2002
31
0.0
73
2
0
POLYLINE
8
LOT
66
1
70
0
0
VERTEX
8
LOT
10
10873.9891
20
10006.7318
30
0.0
0
VERTEX
8
LOT
10
10948.9228
20
10009.8834
30
0.0
0
SEQEND
0
POLYLINE
8
LOT
66
1
70
0
0
VERTEX
8
LOT
10
10948.9228
20
10009.8834
30
0.0
0
VERTEX
8
LOT
10
10953.1249
20
9909.9717
30
0.0
0
SEQEND
0
POLYLINE
8
LOT
66
1
70
0
0
VERTEX
8
LOT
10
10953.1249
20
9909.9717
30
0.0
0
VERTEX
8
LOT
10
10878.1912
20
9906.8201
30
0.0
0
SEQEND
0
POLYLINE
8
LOT
66
1
70
0
0
VERTEX
8
LOT
10
10878.1912
20
9906.8201
30
0.0
0
VERTEX
8
LOT
10
10873.9891
20
10006.7318
30
0.0
0
SEQEND
0
TEXT
8
LOT-TEXT
7
STANDARD
10
10913.5570
20
9958.3518
30
0.0
40
6.0
1
12
50
0.0
72
1
11
10913.5570
21
9958.3518
31
0.0
73
2
0
POLYLINE
8
LOT
66
1
70
0
0
VERTEX
8
LOT
10
10948.9228
20
10009.8834
30
0.0
0
VERTEX
8
LOT
10
11023.8566
20
10013.0350
30
0.0
0
SEQEND
0
POLYLINE
8
LOT
66
1
70
0
0
VERTEX
8
LOT
10
11023.8566
20
10013.0350
30
0.0
0
VERTEX
8
LOT
10
11028.0587
20
9913.1233
30
0.0
0
SEQEND
0
POLYLINE
8
LOT
66
1
70
0
0
VERTEX
8
LOT
10
11028.0587
20
9913.1233
30
0.0
0
VERTEX
8
LOT
10
10953.1249
20
9909.9717
30
0.0
0
SEQEND
0
POLYLINE
8
LOT
66
1
70
0
0
VERTEX
8
LOT
10
10953.1249
20
9909.9717
30
0.0
0
VERTEX
8
LOT
10
10948.9228
20
10009.8834
30
0.0
0
SEQEND
0
TEXT
8
LOT-TEXT
7
STANDARD
10
10988.4908
20
9961.5033
30
0.0
40
6.0
1
13
50
0.0
72
1
11
10988.4908
21
9961.5033
31
0.0
73
2
0
POLYLINE
8
LOT
66
1
70
0
0
VERTEX
8
LOT
10
11023.8566
20
10013.0350
30
0.0
0
VERTEX
8
LOT
10
11098.7904
20
10016.1865
30
0.0
0
SEQEND
0
POLYLINE
8
LOT
66
1
70
0
0
VERTEX
8
LOT
10
11098.7904
20
10016.1865
30
0.0
0
VERTEX
8
LOT
10
11102.9925
20
9916.2749
30
0.0
0
SEQEND
0
POLYLINE
8
LOT
66
1
70
0
0
VERTEX
8
LOT
10
11102.9925
20
9916.2749
30
0.0
0
VERTEX
8
LOT
10
11028.0587
20
9913.1233
30
0.0
0
SEQEND
0
POLYLINE
8
LOT
66
1
70
0
0
VERTEX
8
LOT
10
11028.0587
20
9913.1233
30
0.0
0
VERTEX
8
LOT
10
11023.8566
20
10013.0350
30
0.0
0
SEQEND
0
TEXT
8
LOT-TEXT
7
STANDARD
10
11063.4245
20
9964.6549
30
0.0
40
6.0
1
14
50
0.0
72
1
11
11063.4245
21
9964.6549
31
0.0
73
2
0
POLYLINE
8
LOT
66
1
70
0
0
VERTEX
8
LOT
10
11098.7904
20
10016.1865
30
0.0
0
VERTEX
8
LOT
10
11173.7241
20
10019.3381
30
0.0
0
SEQEND
0
POLYLINE
8
LOT
66
1
70
0
0
VERTEX
8
LOT
10
11173.7241
20
10019.3381
30
0.0
0
VERTEX
8
LOT
10
11177.9262
20
9919.4264
30
0.0
0
SEQEND
0
POLYLINE
8
LOT
66
1
70
0
0
VERTEX
8
LOT
10
11177.9262
20
9919.4264
30
0.0
0
VERTEX
8
LOT
10
11102.9925
20
9916.2749
30
0.0
0
SEQEND
0
POLYLINE
8
LOT
66
1
70
0
0
VERTEX
8
LOT
10
11102.9925
20
9916.2749
30
0.0
0
VERTEX
8
LOT
10
11098.7904
20
10016.1865
30
0.0
0
SEQEND
0
TEXT
8
LOT-TEXT
7
STANDARD
10
11138.3583
20
9967.8065
30
0.0
40
6.0
1
15
50
0.0
72
1
11
11138.3583
21
9967.8065
31
0.0
73
2
0
POLYLINE
8
LOT
66
1
70
0
0
VERTEX
8
LOT
10
11173.7241
20
10019.3381
30
0.0
0
VERTEX
8
LOT
10
11248.6579
20
10022.4897
30
0.0
0
SEQEND
0
POLYLINE
8
LOT
66
1
70
0
0
VERTEX
8
LOT
10
11248.6579
20
10022.4897
30
0.0
0
VERTEX
8
LOT
10
11252.8600
20
9922.5780
30
0.0
0
SEQEND
0
POLYLINE
8
LOT
66
1
70
0
0
VERTEX
8
LOT
10
11252.8600
20
9922.5780
30
0.0
0
VERTEX
8
LOT
10
11177.9262
20
9919.4264
30
0.0
0
SEQEND
0
POLYLINE
8
LOT
66
1
70
0
0
VERTEX
8
LOT
10
11177.9262
20
9919.4264
30
0.0
0
VERTEX
8
LOT
10
11173.7241
20
10019.3381
30
0.0
0
SEQEND
0
TEXT
8
LOT-TEXT
7
STANDARD
10
11213.2920
20
9970.9581
30
0.0
40
6.0
1
16
50
0.0
72
1
11
11213.2920
21
9970.9581
31
0.0
73
2
0
POLYLINE
8
LOT
66
1
70
0
0
VERTEX
8
LOT
10
11248.6579
20
10022.4897
30
0.0
0
VERTEX
8
LOT
10
11357.1120
20
10027.0511
30
0.0
0
SEQEND
0
POLYLINE
8
LOT
66
1
70
0
0
VERTEX
8
LOT
10
11357.1120
20
10027.0511
30
0.0
0
VERTEX
8
LOT
10
11364.3014
20
9927.2650
30
0.0
0
SEQEND
0
POLYLINE
8
LOT
66
1
70
0
0
VERTEX
8
LOT
10
11364.3014
20
9927.2650
30
0.0
0
VERTEX
8
LOT
10
11252.8600
20
9922.5780
30
0.0
0
SEQEND
0
POLYLINE
8
LOT
66
1
70
0
0
VERTEX
8
LOT
10
11252.8600
20
9922.5780
30
0.0
0
VERTEX
8
LOT
10
11248.6579
20
10022.4897
30
0.0
0
SEQEND
0
TEXT
8
LOT-TEXT
7
STANDARD
10
11305.7328
20
9974.8459
30
0.0
40
6.0
1
17
50
0.0
72
1
11
11305.7328
21
9974.8459
31
0.0
73
2
0
POLYLINE
8
LOT
66
1
70
0
0
VERTEX
8
LOT
10
10035.4362
20
9871.3755
30
0.0
0
VERTEX
8
LOT
10
10128.8536
20
9875.3044
30
0.0
0
SEQEND
0
POLYLINE
8
LOT
66
1
70
0
0
VERTEX
8
LOT
10
10128.8536
20
9875.3044
30
0.0
0
VERTEX
8
LOT
10
10133.0557
20
9775.3927
30
0.0
0
SEQEND
0
POLYLINE
8
LOT
66
1
70
0
0
VERTEX
8
LOT
10
10133.0557
20
9775.3927
30
0.0
0
VERTEX
8
LOT
10
10064.6162
20
9772.5143
30
0.0
0
SEQEND
0
POLYLINE
8
LOT-CURVE
66
1
70
0
0
VERTEX
8
LOT-CURVE
10
10064.6162
20
9772.5143
30
0.0
0
VERTEX
8
LOT-CURVE
10
10062.1629
20
9772.5316
30
0.0
0
VERTEX
8
LOT-CURVE
10
10059.7231
20
9772.7893
30
0.0
0
VERTEX
8
LOT-CURVE
10
10057.3203
20
9773.2849
30
0.0
0
VERTEX
8
LOT-CURVE
10
10054.9776
20
9774.0136
30
0.0
0
VERTEX
8
LOT-CURVE
10
10052.7177
20
9774.9685
30
0.0
0
VERTEX
8
LOT-CURVE
10
10050.5622
20
9776.1402
30
0.0
0
VERTEX
8
LOT-CURVE
10
10048.5320
20
9777.5176
30
0.0
0
VERTEX
8
LOT-CURVE
10
10046.6465
20
9779.0873
30
0.0
0
VERTEX
8
LOT-CURVE
10
10044.9240
20
9780.8343
30
0.0
0
VERTEX
8
LOT-CURVE
10
10043.3810
20
9782.7418
30
0.0
0
VERTEX
8
LOT-CURVE
10
10042.0324
20
9784.7912
30
0.0
0
VERTEX
8
LOT-CURVE
10
10040.8911
20
9786.9630
30
0.0
0
VERTEX
8
LOT-CURVE
10
10039.9683
20
9789.2362
30
0.0
0
VERTEX
8
LOT-CURVE
10
10039.2727
20
9791.5889
30
0.0
0
VERTEX
8
LOT-CURVE
10
10038.8110
20
9793.9985
30
0.0
0
VERTEX
8
LOT-CURVE
10
10038.5878
20
9796.4417
30
0.0
0
SEQEND
0
POLYLINE
8
LOT
66
1
70
0
0
VERTEX
8
LOT
10
10038.5878
20
9796.4417
30
0.0
0
VERTEX
8
LOT
10
10035.4362
20
9871.3755
30
0.0
0
SEQEND
0
TEXT
8
LOT-TEXT
7
STANDARD
10
10080.1099
20
9818.2057
30
0.0
40
6.0
1
34
50
0.0
72
1
11
10080.1099
21
9818.2057
31
0.0
73
2
0
POLYLINE
8
LOT
66
1
70
0
0
VERTEX
8
LOT
10
10128.8536
20
9875.3044
30
0.0
0
VERTEX
8
LOT
10
10203.7874
20
9878.4560
30
0.0
0
SEQEND
0
POLYLINE
8
LOT
66
1
70
0
0
VERTEX
8
LOT
10
10203.7874
20
9878.4560
30
0.0
0
VERTEX
8
LOT
10
10207.9895
20
9778.5443
30
0.0
0
SEQEND
0
POLYLINE
8
LOT
66
1
70
0
0
VERTEX
8
LOT
10
10207.9895
20
9778.5443
30
0.0
0
VERTEX
8
LOT
10
10133.0557
20
9775.3927
30
0.0
0
SEQEND
0
POLYLINE
8
LOT
66
1
70
0
0
VERTEX
8
LOT
10
10133.0557
20
9775.3927
30
0.0
0
VERTEX
8
LOT
10
10128.8536
20
9875.3044
30
0.0
0
SEQEND
0
TEXT
8
LOT-TEXT
7
STANDARD
10
10168.4216
20
9826.9244
30
0.0
40
6.0
1
33
50
0.0
72
1
11
10168.4216
21
9826.9244
31
0.0
73
2
0
POLYLINE
8
LOT
66
1
70
0
0
VERTEX
8
LOT
10
10203.7874
20
9878.4560
30
0.0
0
VERTEX
8
LOT
10
10278.7212
20
9881.6076
30
0.0
0
SEQEND
0
POLYLINE
8
LOT
66
1
70
0
0
VERTEX
8
LOT
10
10278.7212
20
9881.6076
30
0.0
0
VERTEX
8
LOT
10
10282.9232
20
9781.6959
30
0.0
0
SEQEND
0
POLYLINE
8
LOT
66
1
70
0
0
VERTEX
8
LOT
10
10282.9232
20
9781.6959
30
0.0
0
VERTEX
8
LOT
10
10207.9895
20
9778.5443
30
0.0
0
SEQEND
0
POLYLINE
8
LOT
66
1
70
0
0
VERTEX
8
LOT
10
10207.9895
20
9778.5443
30
0.0
0
VERTEX
8
LOT
10
10203.7874
20
9878.4560
30
0.0
0
SEQEND
0
TEXT
8
LOT-TEXT
7
STANDARD
10
10243.3553
20
9830.0759
30
0.0
40
6.0
1
32
50
0.0
72
1
11
10243.3553
21
9830.0759
31
0.0
73
2
0
POLYLINE
8
LOT
66
1
70
0
0
VERTEX
8
LOT
10
10278.7212
20
9881.6076
30
0.0
0
VERTEX
8
LOT
10
10353.6549
20
9884.7591
30
0.0
0
SEQEND
0
POLYLINE
8
LOT
66
1
70
0
0
VERTEX
8
LOT
10
10353.6549
20
9884.7591
30
0.0
0
VERTEX
8
LOT
10
10357.8570
20
9784.8475
30
0.0
0
SEQEND
0
POLYLINE
8
LOT
66
1
70
0
0
VERTEX
8
LOT
10
10357.8570
20
9784.8475
30
0.0
0
VERTEX
8
LOT
10
10282.9232
20
9781.6959
30
0.0
0
SEQEND
0
POLYLINE
8
LOT
66
1
70
0
0
VERTEX
8
LOT
10
10282.9232
20
9781.6959
30
0.0
0
VERTEX
8
LOT
10
10278.7212
20
9881.6076
30
0.0
0
SEQEND
0
TEXT
8
LOT-TEXT
7
STANDARD
10
10318.2891
20
9833.2275
30
0.0
40
6.0
1
31
50
0.0
72
1
11
10318.2891
21
9833.2275
31
0.0
73
2
0
POLYLINE
8
LOT
66
1
70
0
0
VERTEX
8
LOT
10
10353.6549
20
9884.7591
30
0.0
0
VERTEX
8
LOT
10
10428.5887
20
9887.9107
30
0.0
0
SEQEND
0
POLYLINE
8
LOT
66
1
70
0
0
VERTEX
8
LOT
10
10428.5887
20
9887.9107
30
0.0
0
VERTEX
8
LOT
10
10432.7908
20
9787.9990
30
0.0
0
SEQEND
0
POLYLINE
8
LOT
66
1
70
0
0
VERTEX
8
LOT
10
10432.7908
20
9787.9990
30
0.0
0
VERTEX
8
LOT
10
10357.8570
20
9784.8475
30
0.0
0
SEQEND
0
POLYLINE
8
LOT
66
1
70
0
0
VERTEX
8
LOT
10
10357.8570
20
9784.8475
30
0.0
0
VERTEX
8
LOT
10
10353.6549
20
9884.7591
30
0.0
0
SEQEND
0
TEXT
8
LOT-TEXT
7
STANDARD
10
10393.2228
20
9836.3791
30
0.0
40
6.0
1
30
50
0.0
72
1
11
10393.2228
21
9836.3791
31
0.0
73
2
0
POLYLINE
8
LOT
66
1
70
0
0
VERTEX
8
LOT
10
10428.5887
20
9887.9107
30
0.0
0
VERTEX
8
LOT
10
10503.5224
20
9891.0623
30
0.0
0
SEQEND
0
POLYLINE
8
LOT
66
1
70
0
0
VERTEX
8
LOT
10
10503.5224
20
9891.0623
30
0.0
0
VERTEX
8
LOT
10
10507.7245
20
9791.1506
30
0.0
0
SEQEND
0
POLYLINE
8
LOT
66
1
70
0
0
VERTEX
8
LOT
10
10507.7245
20
9791.1506
30
0.0
0
VERTEX
8
LOT
10
10432.7908
20
9787.9990
30
0.0
0
SEQEND
0
POLYLINE
8
LOT
66
1
70
0
0
VERTEX
8
LOT
10
10432.7908
20
9787.9990
30
0.0
0
VERTEX
8
LOT
10
10428.5887
20
9887.9107
30
0.0
0
SEQEND
0
TEXT
8
LOT-TEXT
7
STANDARD
10
10468.1566
20
9839.5307
30
0.0
40
6.0
1
29
50
0.0
72
1
11
10468.1566
21
9839.5307
31
0.0
73
2
0
POLYLINE
8
LOT
66
1
70
0
0
VERTEX
8
LOT
10
10503.5224
20
9891.0623
30
0.0
0
VERTEX
8
LOT
10
10578.4562
20
9894.2139
30
0.0
0
SEQEND
0
POLYLINE
8
LOT
66
1
70
0
0
VERTEX
8
LOT
10
10578.4562
20
9894.2139
30
0.0
0
VERTEX
8
LOT
10
10582.6583
20
9794.3022
30
0.0
0
SEQEND
0
POLYLINE
8
LOT
66
1
70
0
0
VERTEX
8
LOT
10
10582.6583
20
9794.3022
30
0.0
0
VERTEX
8
LOT
10
10507.7245
20
9791.1506
30
0.0
0
SEQEND
0
POLYLINE
8
LOT
66
1
70
0
0
VERTEX
8
LOT
10
10507.7245
20
9791.1506
30
0.0
0
VERTEX
8
LOT
10
10503.5224
20
9891.0623
30
0.0
0
SEQEND
0
TEXT
8
LOT-TEXT
7
STANDARD
10
10543.0903
20
9842.6822
30
0.0
40
6.0
1
28
50
0.0
72
1
11
10543.0903
21
9842.6822
31
0.0
73
2
0
POLYLINE
8
LOT
66
1
70
0
0
VERTEX
8
LOT
10
10578.4562
20
9894.2139
30
0.0
0
VERTEX
8
LOT
10
10653.3899
20
9897.3654
30
0.0
0
SEQEND
0
POLYLINE
8
LOT
66
1
70
0
0
VERTEX
8
LOT
10
10653.3899
20
9897.3654
30
0.0
0
VERTEX
8
LOT
10
10657.5920
20
9797.4538
30
0.0
0
SEQEND
0
POLYLINE
8
LOT
66
1
70
0
0
VERTEX
8
LOT
10
10657.5920
20
9797.4538
30
0.0
0
VERTEX
8
LOT
10
10582.6583
20
9794.3022
30
0.0
0
SEQEND
0
POLYLINE
8
LOT
66
1
70
0
0
VERTEX
8
LOT
10
10582.6583
20
9794.3022
30
0.0
0
VERTEX
8
LOT
10
10578.4562
20
9894.2139
30
0.0
0
SEQEND
0
TEXT
8
LOT-TEXT
7
STANDARD
10
10618.0241
20
9845.8338
30
0.0
40
6.0
1
27
50
0.0
72
1
11
10618.0241
21
9845.8338
31
0.0
73
2
0
POLYLINE
8
LOT
66
1
70
0
0
VERTEX
8
LOT
10
10653.3899
20
9897.3654
30
0.0
0
VERTEX
8
LOT
10
10728.3237
20
9900.5170
30
0.0
0
SEQEND
0
POLYLINE
8
LOT
66
1
70
0
0
VERTEX
8
LOT
10
10728.3237
20
9900.5170
30
0.0
0
VERTEX
8
LOT
10
10732.5258
20
9800.6053
30
0.0
0
SEQEND
0
POLYLINE
8
LOT
66
1
70
0
0
VERTEX
8
LOT
10
10732.5258
20
9800.6053
30
0.0
0
VERTEX
8
LOT
10
10657.5920
20
9797.4538
30
0.0
0
SEQEND
0
POLYLINE
8
LOT
66
1
70
0
0
VERTEX
8
LOT
10
10657.5920
20
9797.4538
30
0.0
0
VERTEX
8
LOT
10
10653.3899
20
9897.3654
30
0.0
0
SEQEND
0
TEXT
8
LOT-TEXT
7
STANDARD
10
10692.9579
20
9848.9854
30
0.0
40
6.0
1
26
50
0.0
72
1
11
10692.9579
21
9848.9854
31
0.0
73
2
0
POLYLINE
8
LOT
66
1
70
0
0
VERTEX
8
LOT
10
10728.3237
20
9900.5170
30
0.0
0
VERTEX
8
LOT
10
10803.2574
20
9903.6686
30
0.0
0
SEQEND
0
POLYLINE
8
LOT
66
1
70
0
0
VERTEX
8
LOT
10
10803.2574
20
9903.6686
30
0.0
0
VERTEX
8
LOT
10
10807.4595
20
9803.7569
30
0.0
0
SEQEND
0
POLYLINE
8
LOT
66
1
70
0
0
VERTEX
8
LOT
10
10807.4595
20
9803.7569
30
0.0
0
VERTEX
8
LOT
10
10732.5258
20
9800.6053
30
0.0
0
SEQEND
0
POLYLINE
8
LOT
66
1
70
0
0
VERTEX
8
LOT
10
10732.5258
20
9800.6053
30
0.0
0
VERTEX
8
LOT
10
10728.3237
20
9900.5170
30
0.0
0
SEQEND
0
TEXT
8
LOT-TEXT
7
STANDARD
10
10767.8916
20
9852.1369
30
0.0
40
6.0
1
25
50
0.0
72
1
11
10767.8916
21
9852.1369
31
0.0
73
2
0
POLYLINE
8
LOT
66
1
70
0
0
VERTEX
8
LOT
10
10803.2574
20
9903.6686
30
0.0
0
VERTEX
8
LOT
10
10878.1912
20
9906.8201
30
0.0
0
SEQEND
0
POLYLINE
8
LOT
66
1
70
0
0
VERTEX
8
LOT
10
10878.1912
20
9906.8201
30
0.0
0
VERTEX
8
LOT
10
10882.3933
20
9806.9085
30
0.0
0
SEQEND
0
POLYLINE
8
LOT
66
1
70
0
0
VERTEX
8
LOT
10
10882.3933
20
9806.9085
30
0.0
0
VERTEX
8
LOT
10
10807.4595
20
9803.7569
30
0.0
0
SEQEND
0
POLYLINE
8
LOT
66
1
70
0
0
VERTEX
8
LOT
10
10807.4595
20
9803.7569
30
0.0
0
VERTEX
8
LOT
10
10803.2574
20
9903.6686
30
0.0
0
SEQEND
0
TEXT
8
LOT-TEXT
7
STANDARD
10
10842.8254
20
9855.2885
30
0.0
40
6.0
1
24
50
0.0
72
1
11
10842.8254
21
9855.2885
31
0.0
73
2
0
POLYLINE
8
LOT
66
1
70
0
0
VERTEX
8
LOT
10
10878.1912
20
9906.8201
30
0.0
0
VERTEX
8
LOT
10
10953.1249
20
9909.9717
30
0.0
0
SEQEND
0
POLYLINE
8
LOT
66
1
70
0
0
VERTEX
8
LOT
10
10953.1249
20
9909.9717
30
0.0
0
VERTEX
8
LOT
10
10957.3270
20
9810.0600
30
0.0
0
SEQEND
0
POLYLINE
8
LOT
66
1
70
0
0
VERTEX
8
LOT
10
10957.3270
20
9810.0600
30
0.0
0
VERTEX
8
LOT
10
10882.3933
20
9806.9085
30
0.0
0
SEQEND
0
POLYLINE
8
LOT
66
1
70
0
0
VERTEX
8
LOT
10
10882.3933
20
9806.9085
30
0.0
0
VERTEX
8
LOT
10
10878.1912
20
9906.8201
30
0.0
0
SEQEND
0
TEXT
8
LOT-TEXT
7
STANDARD
10
10917.7591
20
9858.4401
30
0.0
40
6.0
1
23
50
0.0
72
1
11
10917.7591
21
9858.4401
31
0.0
73
2
0
POLYLINE
8
LOT
66
1
70
0
0
VERTEX
8
LOT
10
10953.1249
20
9909.9717
30
0.0
0
VERTEX
8
LOT
10
11028.0587
20
9913.1233
30
0.0
0
SEQEND
0
POLYLINE
8
LOT
66
1
70
0
0
VERTEX
8
LOT
10
11028.0587
20
9913.1233
30
0.0
0
VERTEX
8
LOT
10
11032.2608
20
9813.2116
30
0.0
0
SEQEND
0
POLYLINE
8
LOT
66
1
70
0
0
VERTEX
8
LOT
10
11032.2608
20
9813.2116
30
0.0
0
VERTEX
8
LOT
10
10957.3270
20
9810.0600
30
0.0
0
SEQEND
0
POLYLINE
8
LOT
66
1
70
0
0
VERTEX
8
LOT
10
10957.3270
20
9810.0600
30
0.0
0
VERTEX
8
LOT
10
10953.1249
20
9909.9717
30
0.0
0
SEQEND
0
TEXT
8
LOT-TEXT
7
STANDARD
10
10992.6929
20
9861.5917
30
0.0
40
6.0
1
22
50
0.0
72
1
11
10992.6929
21
9861.5917
31
0.0
73
2
0
POLYLINE
8
LOT
66
1
70
0
0
VERTEX
8
LOT
10
11028.0587
20
9913.1233
30
0.0
0
VERTEX
8
LOT
10
11102.9925
20
9916.2749
30
0.0
0
SEQEND
0
POLYLINE
8
LOT
66
1
70
0
0
VERTEX
8
LOT
10
11102.9925
20
9916.2749
30
0.0
0
VERTEX
8
LOT
10
11107.1945
20
9816.3632
30
0.0
0
SEQEND
0
POLYLINE
8
LOT
66
1
70
0
0
VERTEX
8
LOT
10
11107.1945
20
9816.3632
30
0.0
0
VERTEX
8
LOT
10
11032.2608
20
9813.2116
30
0.0
0
SEQEND
0
POLYLINE
8
LOT
66
1
70
0
0
VERTEX
8
LOT
10
11032.2608
20
9813.2116
30
0.0
0
VERTEX
8
LOT
10
11028.0587
20
9913.1233
30
0.0
0
SEQEND
0
TEXT
8
LOT-TEXT
7
STANDARD
10
11067.6266
20
9864.7432
30
0.0
40
6.0
1
21
50
0.0
72
1
11
11067.6266
21
9864.7432
31
0.0
73
2
0
POLYLINE
8
LOT
66
1
70
0
0
VERTEX
8
LOT
10
11102.9925
20
9916.2749
30
0.0
0
VERTEX
8
LOT
10
11177.9262
20
9919.4264
30
0.0
0
SEQEND
0
POLYLINE
8
LOT
66
1
70
0
0
VERTEX
8
LOT
10
11177.9262
20
9919.4264
30
0.0
0
VERTEX
8
LOT
10
11182.1283
20
9819.5148
30
0.0
0
SEQEND
0
POLYLINE
8
LOT
66
1
70
0
0
VERTEX
8
LOT
10
11182.1283
20
9819.5148
30
0.0
0
VERTEX
8
LOT
10
11107.1945
20
9816.3632
30
0.0
0
SEQEND
0
POLYLINE
8
LOT
66
1
70
0
0
VERTEX
8
LOT
10
11107.1945
20
9816.3632
30
0.0
0
VERTEX
8
LOT
10
11102.9925
20
9916.2749
30
0.0
0
SEQEND
0
TEXT
8
LOT-TEXT
7
STANDARD
10
11142.5604
20
9867.8948
30
0.0
40
6.0
1
20
50
0.0
72
1
11
11142.5604
21
9867.8948
31
0.0
73
2
0
POLYLINE
8
LOT
66
1
70
0
0
VERTEX
8
LOT
10
11177.9262
20
9919.4264
30
0.0
0
VERTEX
8
LOT
10
11252.8600
20
9922.5780
30
0.0
0
SEQEND
0
POLYLINE
8
LOT
66
1
70
0
0
VERTEX
8
LOT
10
11252.8600
20
9922.5780
30
0.0
0
VERTEX
8
LOT
10
11257.0621
20
9822.6663
30
0.0
0
SEQEND
0
POLYLINE
8
LOT
66
1
70
0
0
VERTEX
8
LOT
10
11257.0621
20
9822.6663
30
0.0
0
VERTEX
8
LOT
10
11182.1283
20
9819.5148
30
0.0
0
SEQEND
0
POLYLINE
8
LOT
66
1
70
0
0
VERTEX
8
LOT
10
11182.1283
20
9819.5148
30
0.0
0
VERTEX
8
LOT
10
11177.9262
20
9919.4264
30
0.0
0
SEQEND
0
TEXT
8
LOT-TEXT
7
STANDARD
10
11217.4941
20
9871.0464
30
0.0
40
6.0
1
19
50
0.0
72
1
11
11217.4941
21
9871.0464
31
0.0
73
2
0
POLYLINE
8
LOT
66
1
70
0
0
VERTEX
8
LOT
10
11252.8600
20
9922.5780
30
0.0
0
VERTEX
8
LOT
10
11364.3014
20
9927.2650
30
0.0
0
SEQEND
0
POLYLINE
8
LOT
66
1
70
0
0
VERTEX
8
LOT
10
11364.3014
20
9927.2650
30
0.0
0
VERTEX
8
LOT
10
11362.5288
20
9827.1021
30
0.0
0
SEQEND
0
POLYLINE
8
LOT
66
1
70
0
0
VERTEX
8
LOT
10
11362.5288
20
9827.1021
30
0.0
0
VERTEX
8
LOT
10
11257.0621
20
9822.6663
30
0.0
0
SEQEND
0
POLYLINE
8
LOT
66
1
70
0
0
VERTEX
8
LOT
10
11257.0621
20
9822.6663
30
0.0
0
VERTEX
8
LOT
10
11252.8600
20
9922.5780
30
0.0
0
SEQEND
0
TEXT
8
LOT-TEXT
7
STANDARD
10
11309.1881
20
9874.9029
30
0.0
40
6.0
1
18
50
0.0
72
1
11
11309.1881
21
9874.9029
31
0.0
73
2
0
TEXT
8
BLOCK-TEXT
7
STANDARD
10
10691.0654
20
9898.9500
30
0.0
40
14.0
1
(17)
50
0.0
72
1
11
10691.0654
21
9898.9500
31
0.0
73
2
0
POLYLINE
8
LOT
66
1
70
0
0
VERTEX
8
LOT
10
10046.3617
20
9611.6051
30
0.0
0
VERTEX
8
LOT
10
10043.2101
20
9686.5389
30
0.0
0
SEQEND
0
POLYLINE
8
LOT-CURVE
66
1
70
0
0
VERTEX
8
LOT-CURVE
10
10043.2101
20
9686.5389
30
0.0
0
VERTEX
8
LOT-CURVE
10
10043.2274
20
9688.9922
30
0.0
0
VERTEX
8
LOT-CURVE
10
10043.4851
20
9691.4320
30
0.0
0
VERTEX
8
LOT-CURVE
10
10043.9807
20
9693.8348
30
0.0
0
VERTEX
8
LOT-CURVE
10
10044.7094
20
9696.1775
30
0.0
0
VERTEX
8
LOT-CURVE
10
10045.6643
20
9698.4374
30
0.0
0
VERTEX
8
LOT-CURVE
10
10046.8360
20
9700.5929
30
0.0
0
VERTEX
8
LOT-CURVE
10
10048.2134
20
9702.6231
30
0.0
0
VERTEX
8
LOT-CURVE
10
10049.7831
20
9704.5086
30
0.0
0
VERTEX
8
LOT-CURVE
10
10051.5301
20
9706.2311
30
0.0
0
VERTEX
8
LOT-CURVE
10
10053.4376
20
9707.7741
30
0.0
0
VERTEX
8
LOT-CURVE
10
10055.4870
20
9709.1227
30
0.0
0
VERTEX
8
LOT-CURVE
10
10057.6588
20
9710.2640
30
0.0
0
VERTEX
8
LOT-CURVE
10
10059.9320
20
9711.1868
30
0.0
0
VERTEX
8
LOT-CURVE
10
10062.2847
20
9711.8824
30
0.0
0
VERTEX
8
LOT-CURVE
10
10064.6943
20
9712.3441
30
0.0
0
VERTEX
8
LOT-CURVE
10
10067.1375
20
9712.5673
30
0.0
0
SEQEND
0
POLYLINE
8
LOT
66
1
70
0
0
VERTEX
8
LOT
10
10067.1375
20
9712.5673
30
0.0
0
VERTEX
8
LOT
10
10135.5770
20
9715.4457
30
0.0
0
SEQEND
0
POLYLINE
8
LOT
66
1
70
0
0
VERTEX
8
LOT
10
10135.5770
20
9715.4457
30
0.0
0
VERTEX
8
LOT
10
10139.7791
20
9615.5341
30
0.0
0
SEQEND
0
POLYLINE
8
LOT
66
1
70
0
0
VERTEX
8
LOT
10
10139.7791
20
9615.5341
30
0.0
0
VERTEX
8
LOT
10
10046.3617
20
9611.6051
30
0.0
0
SEQEND
0
TEXT
8
LOT-TEXT
7
STANDARD
10
10086.4131
20
9668.3382
30
0.0
40
6.0
1
1
50
0.0
72
1
11
10086.4131
21
9668.3382
31
0.0
73
2
0
POLYLINE
8
LOT
66
1
70
0
0
VERTEX
8
LOT
10
10139.7791
20
9615.5341
30
0.0
0
VERTEX
8
LOT
10
10135.5770
20
9715.4457
30
0.0
0
SEQEND
0
POLYLINE
8
LOT
66
1
70
0
0
VERTEX
8
LOT
10
10135.5770
20
9715.4457
30
0.0
0
VERTEX
8
LOT
10
10210.5108
20
9718.5973
30
0.0
0
SEQEND
0
POLYLINE
8
LOT
66
1
70
0
0
VERTEX
8
LOT
10
10210.5108
20
9718.5973
30
0.0
0
VERTEX
8
LOT
10
10214.7128
20
9618.6856
30
0.0
0
SEQEND
0
POLYLINE
8
LOT
66
1
70
0
0
VERTEX
8
LOT
10
10214.7128
20
9618.6856
30
0.0
0
VERTEX
8
LOT
10
10139.7791
20
9615.5341
30
0.0
0
SEQEND
0
TEXT
8
LOT-TEXT
7
STANDARD
10
10175.1449
20
9667.0657
30
0.0
40
6.0
1
2
50
0.0
72
1
11
10175.1449
21
9667.0657
31
0.0
73
2
0
POLYLINE
8
LOT
66
1
70
0
0
VERTEX
8
LOT
10
10214.7128
20
9618.6856
30
0.0
0
VERTEX
8
LOT
10
10210.5108
20
9718.5973
30
0.0
0
SEQEND
0
POLYLINE
8
LOT
66
1
70
0
0
VERTEX
8
LOT
10
10210.5108
20
9718.5973
30
0.0
0
VERTEX
8
LOT
10
10285.4445
20
9721.7489
30
0.0
0
SEQEND
0
POLYLINE
8
LOT
66
1
70
0
0
VERTEX
8
LOT
10
10285.4445
20
9721.7489
30
0.0
0
VERTEX
8
LOT
10
10289.6466
20
9621.8372
30
0.0
0
SEQEND
0
POLYLINE
8
LOT
66
1
70
0
0
VERTEX
8
LOT
10
10289.6466
20
9621.8372
30
0.0
0
VERTEX
8
LOT
10
10214.7128
20
9618.6856
30
0.0
0
SEQEND
0
TEXT
8
LOT-TEXT
7
STANDARD
10
10250.0787
20
9670.2173
30
0.0
40
6.0
1
3
50
0.0
72
1
11
10250.0787
21
9670.2173
31
0.0
73
2
0
POLYLINE
8
LOT
66
1
70
0
0
VERTEX
8
LOT
10
10289.6466
20
9621.8372
30
0.0
0
VERTEX
8
LOT
10
10285.4445
20
9721.7489
30
0.0
0
SEQEND
0
POLYLINE
8
LOT
66
1
70
0
0
VERTEX
8
LOT
10
10285.4445
20
9721.7489
30
0.0
0
VERTEX
8
LOT
10
10360.3783
20
9724.9005
30
0.0
0
SEQEND
0
POLYLINE
8
LOT
66
1
70
0
0
VERTEX
8
LOT
10
10360.3783
20
9724.9005
30
0.0
0
VERTEX
8
LOT
10
10364.5804
20
9624.9888
30
0.0
0
SEQEND
0
POLYLINE
8
LOT
66
1
70
0
0
VERTEX
8
LOT
10
10364.5804
20
9624.9888
30
0.0
0
VERTEX
8
LOT
10
10289.6466
20
9621.8372
30
0.0
0
SEQEND
0
TEXT
8
LOT-TEXT
7
STANDARD
10
10325.0124
20
9673.3688
30
0.0
40
6.0
1
4
50
0.0
72
1
11
10325.0124
21
9673.3688
31
0.0
73
2
0
POLYLINE
8
LOT
66
1
70
0
0
VERTEX
8
LOT
10
10364.5804
20
9624.9888
30
0.0
0
VERTEX
8
LOT
10
10360.3783
20
9724.9005
30
0.0
0
SEQEND
0
POLYLINE
8
LOT
66
1
70
0
0
VERTEX
8
LOT
10
10360.3783
20
9724.9005
30
0.0
0
VERTEX
8
LOT
10
10435.3120
20
9728.0520
30
0.0
0
SEQEND
0
POLYLINE
8
LOT
66
1
70
0
0
VERTEX
8
LOT
10
10435.3120
20
9728.0520
30
0.0
0
VERTEX
8
LOT
10
10439.5141
20
9628.1404
30
0.0
0
SEQEND
0
POLYLINE
8
LOT
66
1
70
0
0
VERTEX
8
LOT
10
10439.5141
20
9628.1404
30
0.0
0
VERTEX
8
LOT
10
10364.5804
20
9624.9888
30
0.0
0
SEQEND
0
TEXT
8
LOT-TEXT
7
STANDARD
10
10399.9462
20
9676.5204
30
0.0
40
6.0
1
5
50
0.0
72
1
11
10399.9462
21
9676.5204
31
0.0
73
2
0
POLYLINE
8
LOT
66
1
70
0
0
VERTEX
8
LOT
10
10439.5141
20
9628.1404
30
0.0
0
VERTEX
8
LOT
10
10435.3120
20
9728.0520
30
0.0
0
SEQEND
0
POLYLINE
8
LOT
66
1
70
0
0
VERTEX
8
LOT
10
10435.3120
20
9728.0520
30
0.0
0
VERTEX
8
LOT
10
10510.2458
20
9731.2036
30
0.0
0
SEQEND
0
POLYLINE
8
LOT
66
1
70
0
0
VERTEX
8
LOT
10
10510.2458
20
9731.2036
30
0.0
0
VERTEX
8
LOT
10
10514.4479
20
9631.2919
30
0.0
0
SEQEND
0
POLYLINE
8
LOT
66
1
70
0
0
VERTEX
8
LOT
10
10514.4479
20
9631.2919
30
0.0
0
VERTEX
8
LOT
10
10439.5141
20
9628.1404
30
0.0
0
SEQEND
0
TEXT
8
LOT-TEXT
7
STANDARD
10
10474.8799
20
9679.6720
30
0.0
40
6.0
1
6
50
0.0
72
1
11
10474.8799
21
9679.6720
31
0.0
73
2
0
POLYLINE
8
LOT
66
1
70
0
0
VERTEX
8
LOT
10
10514.4479
20
9631.2919
30
0.0
0
VERTEX
8
LOT
10
10510.2458
20
9731.2036
30
0.0
0
SEQEND
0
POLYLINE
8
LOT
66
1
70
0
0
VERTEX
8
LOT
10
10510.2458
20
9731.2036
30
0.0
0
VERTEX
8
LOT
10
10585.1795
20
9734.3552
30
0.0
0
SEQEND
0
POLYLINE
8
LOT
66
1
70
0
0
VERTEX
8
LOT
10
10585.1795
20
9734.3552
30
0.0
0
VERTEX
8
LOT
10
10589.3816
20
9634.4435
30
0.0
0
SEQEND
0
POLYLINE
8
LOT
66
1
70
0
0
VERTEX
8
LOT
10
10589.3816
20
9634.4435
30
0.0
0
VERTEX
8
LOT
10
10514.4479
20
9631.2919
30
0.0
0
SEQEND
0
TEXT
8
LOT-TEXT
7
STANDARD
10
10549.8137
20
9682.8236
30
0.0
40
6.0
1
7
50
0.0
72
1
11
10549.8137
21
9682.8236
31
0.0
73
2
0
POLYLINE
8
LOT
66
1
70
0
0
VERTEX
8
LOT
10
10589.3816
20
9634.4435
30
0.0
0
VERTEX
8
LOT
10
10585.1795
20
9734.3552
30
0.0
0
SEQEND
0
POLYLINE
8
LOT
66
1
70
0
0
VERTEX
8
LOT
10
10585.1795
20
9734.3552
30
0.0
0
VERTEX
8
LOT
10
10660.1133
20
9737.5067
30
0.0
0
SEQEND
0
POLYLINE
8
LOT
66
1
70
0
0
VERTEX
8
LOT
10
10660.1133
20
9737.5067
30
0.0
0
VERTEX
8
LOT
10
10664.3154
20
9637.5951
30
0.0
0
SEQEND
0
POLYLINE
8
LOT
66
1
70
0
0
VERTEX
8
LOT
10
10664.3154
20
9637.5951
30
0.0
0
VERTEX
8
LOT
10
10589.3816
20
9634.4435
30
0.0
0
SEQEND
0
TEXT
8
LOT-TEXT
7
STANDARD
10
10624.7475
20
9685.9751
30
0.0
40
6.0
1
8
50
0.0
72
1
11
10624.7475
21
9685.9751
31
0.0
73
2
0
POLYLINE
8
LOT
66
1
70
0
0
VERTEX
8
LOT
10
10046.3617
20
9611.6051
30
0.0
0
VERTEX
8
LOT
10
10139.7791
20
9615.5341
30
0.0
0
SEQEND
0
POLYLINE
8
LOT
66
1
70
0
0
VERTEX
8
LOT
10
10139.7791
20
9615.5341
30
0.0
0
VERTEX
8
LOT
10
10143.9812
20
9515.6224
30
0.0
0
SEQEND
0
POLYLINE
8
LOT
66
1
70
0
0
VERTEX
8
LOT
10
10143.9812
20
9515.6224
30
0.0
0
VERTEX
8
LOT
10
10075.5417
20
9512.7440
30
0.0
0
SEQEND
0
POLYLINE
8
LOT-CURVE
66
1
70
0
0
VERTEX
8
LOT-CURVE
10
10075.5417
20
9512.7440
30
0.0
0
VERTEX
8
LOT-CURVE
10
10073.0884
20
9512.7613
30
0.0
0
VERTEX
8
LOT-CURVE
10
10070.6486
20
9513.0190
30
0.0
0
VERTEX
8
LOT-CURVE
10
10068.2458
20
9513.5145
30
0.0
0
VERTEX
8
LOT-CURVE
10
10065.9031
20
9514.2433
30
0.0
0
VERTEX
8
LOT-CURVE
10
10063.6431
20
9515.1981
30
0.0
0
VERTEX
8
LOT-CURVE
10
10061.4877
20
9516.3699
30
0.0
0
VERTEX
8
LOT-CURVE
10
10059.4574
20
9517.7472
30
0.0
0
VERTEX
8
LOT-CURVE
10
10057.5719
20
9519.3170
30
0.0
0
VERTEX
8
LOT-CURVE
10
10055.8494
20
9521.0640
30
0.0
0
VERTEX
8
LOT-CURVE
10
10054.3064
20
9522.9714
30
0.0
0
VERTEX
8
LOT-CURVE
10
10052.9578
20
9525.0209
30
0.0
0
VERTEX
8
LOT-CURVE
10
10051.8166
20
9527.1927
30
0.0
0
VERTEX
8
LOT-CURVE
10
10050.8937
20
9529.4659
30
0.0
0
VERTEX
8
LOT-CURVE
10
10050.1981
20
9531.8186
30
0.0
0
VERTEX
8
LOT-CURVE
10
10049.7365
20
9534.2281
30
0.0
0
VERTEX
8
LOT-CURVE
10
10049.5133
20
9536.6714
30
0.0
0
SEQEND
0
POLYLINE
8
LOT
66
1
70
0
0
VERTEX
8
LOT
10
10049.5133
20
9536.6714
30
0.0
0
VERTEX
8
LOT
10
10046.3617
20
9611.6051
30
0.0
0
SEQEND
0
TEXT
8
LOT-TEXT
7
STANDARD
10
10091.0354
20
9558.4354
30
0.0
40
6.0
1
33
50
0.0
72
1
11
10091.0354
21
9558.4354
31
0.0
73
2
0
POLYLINE
8
LOT
66
1
70
0
0
VERTEX
8
LOT
10
10143.9812
20
9515.6224
30
0.0
0
VERTEX
8
LOT
10
10233.6619
20
9519.3942
30
0.0
0
SEQEND
0
POLYLINE
8
LOT
66
1
70
0
0
VERTEX
8
LOT
10
10233.6619
20
9519.3942
30
0.0
0
VERTEX
8
LOT
10
10229.4598
20
9619.3059
30
0.0
0
SEQEND
0
POLYLINE
8
LOT
66
1
70
0
0
VERTEX
8
LOT
10
10229.4598
20
9619.3059
30
0.0
0
VERTEX
8
LOT
10
10139.7791
20
9615.5341
30
0.0
0
SEQEND
0
POLYLINE
8
LOT
66
1
70
0
0
VERTEX
8
LOT
10
10139.7791
20
9615.5341
30
0.0
0
VERTEX
8
LOT
10
10143.9812
20
9515.6224
30
0.0
0
SEQEND
0
TEXT
8
LOT-TEXT
7
STANDARD
10
10186.7205
20
9567.4641
30
0.0
40
6.0
1
32
50
0.0
72
1
11
10186.7205
21
9567.4641
31
0.0
73
2
0
POLYLINE
8
LOT-CURVE
66
1
70
0
0
VERTEX
8
LOT-CURVE
10
10233.6619
20
9519.3942
30
0.0
0
VERTEX
8
LOT-CURVE
10
10238.9967
20
9519.5819
30
0.0
0
VERTEX
8
LOT-CURVE
10
10244.3335
20
9519.6965
30
0.0
0
VERTEX
8
LOT-CURVE
10
10249.6715
20
9519.7379
30
0.0
0
VERTEX
8
LOT-CURVE
10
10255.0094
20
9519.7060
30
0.0
0
VERTEX
8
LOT-CURVE
10
10260.3465
20
9519.6010
30
0.0
0
VERTEX
8
LOT-CURVE
10
10265.6816
20
9519.4228
30
0.0
0
VERTEX
8
LOT-CURVE
10
10271.0137
20
9519.1715
30
0.0
0
VERTEX
8
LOT-CURVE
10
10276.3420
20
9518.8470
30
0.0
0
VERTEX
8
LOT-CURVE
10
10281.6652
20
9518.4496
30
0.0
0
VERTEX
8
LOT-CURVE
10
10286.9825
20
9517.9791
30
0.0
0
VERTEX
8
LOT-CURVE
10
10292.2929
20
9517.4358
30
0.0
0
VERTEX
8
LOT-CURVE
10
10297.5953
20
9516.8198
30
0.0
0
VERTEX
8
LOT-CURVE
10
10302.8888
20
9516.1310
30
0.0
0
VERTEX
8
LOT-CURVE
10
10308.1723
20
9515.3698
30
0.0
0
VERTEX
8
LOT-CURVE
10
10313.4449
20
9514.5362
30
0.0
0
VERTEX
8
LOT-CURVE
10
10318.7055
20
9513.6303
30
0.0
0
SEQEND
0
POLYLINE
8
LOT
66
1
70
0
0
VERTEX
8
LOT
10
10318.7055
20
9513.6303
30
0.0
0
VERTEX
8
LOT
10
10339.3627
20
9623.9282
30
0.0
0
SEQEND
0
POLYLINE
8
LOT
66
1
70
0
0
VERTEX
8
LOT
10
10339.3627
20
9623.9282
30
0.0
0
VERTEX
8
LOT
10
10229.4598
20
9619.3059
30
0.0
0
SEQEND
0
POLYLINE
8
LOT
66
1
70
0
0
VERTEX
8
LOT
10
10229.4598
20
9619.3059
30
0.0
0
VERTEX
8
LOT
10
10233.6619
20
9519.3942
30
0.0
0
SEQEND
0
TEXT
8
LOT-TEXT
7
STANDARD
10
10280.2975
20
9569.0646
30
0.0
40
6.0
1
31
50
0.0
72
1
11
10280.2975
21
9569.0646
31
0.0
73
2
0
POLYLINE
8
LOT-CURVE
66
1
70
0
0
VERTEX
8
LOT-CURVE
10
10318.7055
20
9513.6303
30
0.0
0
VERTEX
8
LOT-CURVE
10
10323.9533
20
9512.6524
30
0.0
0
VERTEX
8
LOT-CURVE
10
10329.1871
20
9511.6027
30
0.0
0
VERTEX
8
LOT-CURVE
10
10334.4061
20
9510.4812
30
0.0
0
VERTEX
8
LOT-CURVE
10
10339.6091
20
9509.2883
30
0.0
0
VERTEX
8
LOT-CURVE
10
10344.7954
20
9508.0242
30
0.0
0
VERTEX
8
LOT-CURVE
10
10349.9638
20
9506.6890
30
0.0
0
VERTEX
8
LOT-CURVE
10
10355.1134
20
9505.2832
30
0.0
0
VERTEX
8
LOT-CURVE
10
10360.2433
20
9503.8068
30
0.0
0
VERTEX
8
LOT-CURVE
10
10365.3524
20
9502.2602
30
0.0
0
VERTEX
8
LOT-CURVE
10
10370.4398
20
9500.6437
30
0.0
0
VERTEX
8
LOT-CURVE
10
10375.5046
20
9498.9576
30
0.0
0
VERTEX
8
LOT-CURVE
10
10380.5458
20
9497.2022
30
0.0
0
VERTEX
8
LOT-CURVE
10
10385.5625
20
9495.3779
30
0.0
0
VERTEX
8
LOT-CURVE
10
10390.5536
20
9493.4849
30
0.0
0
VERTEX
8
LOT-CURVE
10
10395.5184
20
9491.5237
30
0.0
0
VERTEX
8
LOT-CURVE
10
10400.4558
20
9489.4945
30
0.0
0
SEQEND
0
POLYLINE
8
LOT
66
1
70
0
0
VERTEX
8
LOT
10
10400.4558
20
9489.4945
30
0.0
0
VERTEX
8
LOT
10
10449.2655
20
9628.5505
30
0.0
0
SEQEND
0
POLYLINE
8
LOT
66
1
70
0
0
VERTEX
8
LOT
10
10449.2655
20
9628.5505
30
0.0
0
VERTEX
8
LOT
10
10339.3627
20
9623.9282
30
0.0
0
SEQEND
0
POLYLINE
8
LOT
66
1
70
0
0
VERTEX
8
LOT
10
10339.3627
20
9623.9282
30
0.0
0
VERTEX
8
LOT
10
10318.7055
20
9513.6303
30
0.0
0
SEQEND
0
TEXT
8
LOT-TEXT
7
STANDARD
10
10376.9474
20
9563.9009
30
0.0
40
6.0
1
30
50
0.0
72
1
11
10376.9474
21
9563.9009
31
0.0
73
2
0
POLYLINE
8
LOT-CURVE
66
1
70
0
0
VERTEX
8
LOT-CURVE
10
10400.4558
20
9489.4945
30
0.0
0
VERTEX
8
LOT-CURVE
10
10405.3648
20
9487.3979
30
0.0
0
VERTEX
8
LOT-CURVE
10
10410.2447
20
9485.2341
30
0.0
0
VERTEX
8
LOT-CURVE
10
10415.0945
20
9483.0036
30
0.0
0
VERTEX
8
LOT-CURVE
10
10419.9132
20
9480.7069
30
0.0
0
VERTEX
8
LOT-CURVE
10
10424.6999
20
9478.3442
30
0.0
0
VERTEX
8
LOT-CURVE
10
10429.4538
20
9475.9162
30
0.0
0
VERTEX
8
LOT-CURVE
10
10434.1740
20
9473.4232
30
0.0
0
VERTEX
8
LOT-CURVE
10
10438.8595
20
9470.8656
30
0.0
0
VERTEX
8
LOT-CURVE
10
10443.5096
20
9468.2441
30
0.0
0
VERTEX
8
LOT-CURVE
10
10448.1232
20
9465.5591
30
0.0
0
VERTEX
8
LOT-CURVE
10
10452.6996
20
9462.8110
30
0.0
0
VERTEX
8
LOT-CURVE
10
10457.2379
20
9460.0005
30
0.0
0
VERTEX
8
LOT-CURVE
10
10461.7372
20
9457.1280
30
0.0
0
VERTEX
8
LOT-CURVE
10
10466.1967
20
9454.1940
30
0.0
0
VERTEX
8
LOT-CURVE
10
10470.6155
20
9451.1992
30
0.0
0
VERTEX
8
LOT-CURVE
10
10474.9929
20
9448.1441
30
0.0
0
SEQEND
0
POLYLINE
8
LOT-CURVE
66
1
70
0
0
VERTEX
8
LOT-CURVE
10
10474.9929
20
9448.1441
30
0.0
0
VERTEX
8
LOT-CURVE
10
10477.0622
20
9446.8261
30
0.0
0
VERTEX
8
LOT-CURVE
10
10479.2507
20
9445.7174
30
0.0
0
VERTEX
8
LOT-CURVE
10
10481.5374
20
9444.8284
30
0.0
0
VERTEX
8
LOT-CURVE
10
10483.9002
20
9444.1679
30
0.0
0
VERTEX
8
LOT-CURVE
10
10486.3164
20
9443.7422
30
0.0
0
VERTEX
8
LOT-CURVE
10
10488.7626
20
9443.5553
30
0.0
0
VERTEX
8
LOT-CURVE
10
10491.2154
20
9443.6092
30
0.0
0
VERTEX
8
LOT-CURVE
10
10493.6511
20
9443.9031
30
0.0
0
VERTEX
8
LOT-CURVE
10
10496.0463
20
9444.4344
30
0.0
0
VERTEX
8
LOT-CURVE
10
10498.3778
20
9445.1979
30
0.0
0
VERTEX
8
LOT-CURVE
10
10500.6233
20
9446.1863
30
0.0
0
VERTEX
8
LOT-CURVE
10
10502.7611
20
9447.3900
30
0.0
0
VERTEX
8
LOT-CURVE
10
10504.7707
20
9448.7975
30
0.0
0
VERTEX
8
LOT-CURVE
10
10506.6325
20
9450.3951
30
0.0
0
VERTEX
8
LOT-CURVE
10
10508.3289
20
9452.1675
30
0.0
0
VERTEX
8
LOT-CURVE
10
10509.8433
20
9454.0977
30
0.0
0
SEQEND
0
POLYLINE
8
LOT
66
1
70
0
0
VERTEX
8
LOT
10
10509.8433
20
9454.0977
30
0.0
0
VERTEX
8
LOT
10
10544.9654
20
9492.0206
30
0.0
0
SEQEND
0
POLYLINE
8
LOT
66
1
70
0
0
VERTEX
8
LOT
10
10544.9654
20
9492.0206
30
0.0
0
VERTEX
8
LOT
10
10449.2655
20
9628.5505
30
0.0
0
SEQEND
0
POLYLINE
8
LOT
66
1
70
0
0
VERTEX
8
LOT
10
10449.2655
20
9628.5505
30
0.0
0
VERTEX
8
LOT
10
10400.4558
20
9489.4945
30
0.0
0
SEQEND
0
TEXT
8
LOT-TEXT
7
STANDARD
10
10475.9046
20
9502.4615
30
0.0
40
6.0
1
29
50
0.0
72
1
11
10475.9046
21
9502.4615
31
0.0
73
2
0
POLYLINE
8
LOT-CURVE
66
1
70
0
0
VERTEX
8
LOT-CURVE
10
10544.9654
20
9492.0206
30
0.0
0
VERTEX
8
LOT-CURVE
10
10548.2427
20
9494.8468
30
0.0
0
VERTEX
8
LOT-CURVE
10
10551.5917
20
9497.5876
30
0.0
0
VERTEX
8
LOT-CURVE
10
10555.0103
20
9500.2412
30
0.0
0
VERTEX
8
LOT-CURVE
10
10558.4960
20
9502.8059
30
0.0
0
VERTEX
8
LOT-CURVE
10
10562.0467
20
9505.2799
30
0.0
0
VERTEX
8
LOT-CURVE
10
10565.6600
20
9507.6616
30
0.0
0
VERTEX
8
LOT-CURVE
10
10569.3334
20
9509.9494
30
0.0
0
VERTEX
8
LOT-CURVE
10
10573.0645
20
9512.1418
30
0.0
0
VERTEX
8
LOT-CURVE
10
10576.8509
20
9514.2374
30
0.0
0
VERTEX
8
LOT-CURVE
10
10580.6901
20
9516.2347
30
0.0
0
VERTEX
8
LOT-CURVE
10
10584.5794
20
9518.1324
30
0.0
0
VERTEX
8
LOT-CURVE
10
10588.5163
20
9519.9293
30
0.0
0
VERTEX
8
LOT-CURVE
10
10592.4982
20
9521.6241
30
0.0
0
VERTEX
8
LOT-CURVE
10
10596.5225
20
9523.2158
30
0.0
0
VERTEX
8
LOT-CURVE
10
10600.5864
20
9524.7033
30
0.0
0
VERTEX
8
LOT-CURVE
10
10604.6873
20
9526.0856
30
0.0
0
SEQEND
0
POLYLINE
8
LOT
66
1
70
0
0
VERTEX
8
LOT
10
10604.6873
20
9526.0856
30
0.0
0
VERTEX
8
LOT
10
10559.1683
20
9633.1728
30
0.0
0
SEQEND
0
POLYLINE
8
LOT
66
1
70
0
0
VERTEX
8
LOT
10
10559.1683
20
9633.1728
30
0.0
0
VERTEX
8
LOT
10
10449.2655
20
9628.5505
30
0.0
0
SEQEND
0
POLYLINE
8
LOT
66
1
70
0
0
VERTEX
8
LOT
10
10449.2655
20
9628.5505
30
0.0
0
VERTEX
8
LOT
10
10544.9654
20
9492.0206
30
0.0
0
SEQEND
0
TEXT
8
LOT-TEXT
7
STANDARD
10
10539.5216
20
9569.9573
30
0.0
40
6.0
1
28
50
0.0
72
1
11
10539.5216
21
9569.9573
31
0.0
73
2
0
TEXT
8
BLOCK-TEXT
7
STANDARD
10
10345.4617
20
9623.9475
30
0.0
40
14.0
1
(16)
50
0.0
72
1
11
10345.4617
21
9623.9475
31
0.0
73
2
0
POLYLINE
8
LOT
66
1
70
0
0
VERTEX
8
LOT
10
11270.5088
20
9502.9490
30
0.0
0
VERTEX
8
LOT
10
11340.6675
20
9505.8997
30
0.0
0
SEQEND
0
POLYLINE
8
LOT-CURVE
66
1
70
0
0
VERTEX
8
LOT-CURVE
10
11340.6675
20
9505.8997
30
0.0
0
VERTEX
8
LOT-CURVE
10
11343.1675
20
9505.8798
30
0.0
0
VERTEX
8
LOT-CURVE
10
11345.6530
20
9505.6102
30
0.0
0
VERTEX
8
LOT-CURVE
10
11348.0991
20
9505.0937
30
0.0
0
VERTEX
8
LOT-CURVE
10
11350.4815
20
9504.3355
30
0.0
0
VERTEX
8
LOT-CURVE
10
11352.7761
20
9503.3432
30
0.0
0
VERTEX
8
LOT-CURVE
10
11354.9602
20
9502.1266
30
0.0
0
VERTEX
8
LOT-CURVE
10
11357.0119
20
9500.6980
30
0.0
0
VERTEX
8
LOT-CURVE
10
11358.9106
20
9499.0716
30
0.0
0
VERTEX
8
LOT-CURVE
10
11360.6374
20
9497.2637
30
0.0
0
VERTEX
8
LOT-CURVE
10
11362.1750
20
9495.2924
30
0.0
0
VERTEX
8
LOT-CURVE
10
11363.5080
20
9493.1773
30
0.0
0
VERTEX
8
LOT-CURVE
10
11364.6231
20
9490.9397
30
0.0
0
VERTEX
8
LOT-CURVE
10
11365.5091
20
9488.6019
30
0.0
0
VERTEX
8
LOT-CURVE
10
11366.1572
20
9486.1873
30
0.0
0
VERTEX
8
LOT-CURVE
10
11366.5609
20
9483.7200
30
0.0
0
VERTEX
8
LOT-CURVE
10
11366.7162
20
9481.2248
30
0.0
0
SEQEND
0
POLYLINE
8
LOT
66
1
70
0
0
VERTEX
8
LOT
10
11366.7162
20
9481.2248
30
0.0
0
VERTEX
8
LOT
10
11367.6187
20
9406.9448
30
0.0
0
SEQEND
0
POLYLINE
8
LOT
66
1
70
0
0
VERTEX
8
LOT
10
11367.6187
20
9406.9448
30
0.0
0
VERTEX
8
LOT
10
11274.7109
20
9403.0373
30
0.0
0
SEQEND
0
POLYLINE
8
LOT
66
1
70
0
0
VERTEX
8
LOT
10
11274.7109
20
9403.0373
30
0.0
0
VERTEX
8
LOT
10
11270.5088
20
9502.9490
30
0.0
0
SEQEND
0
TEXT
8
LOT-TEXT
7
STANDARD
10
11324.0444
20
9460.0111
30
0.0
40
6.0
1
9
50
0.0
72
1
11
11324.0444
21
9460.0111
31
0.0
73
2
0
POLYLINE
8
LOT
66
1
70
0
0
VERTEX
8
LOT
10
11195.5750
20
9499.7974
30
0.0
0
VERTEX
8
LOT
10
11270.5088
20
9502.9490
30
0.0
0
SEQEND
0
POLYLINE
8
LOT
66
1
70
0
0
VERTEX
8
LOT
10
11270.5088
20
9502.9490
30
0.0
0
VERTEX
8
LOT
10
11274.7109
20
9403.0373
30
0.0
0
SEQEND
0
POLYLINE
8
LOT
66
1
70
0
0
VERTEX
8
LOT
10
11274.7109
20
9403.0373
30
0.0
0
VERTEX
8
LOT
10
11199.7771
20
9399.8857
30
0.0
0
SEQEND
0
POLYLINE
8
LOT
66
1
70
0
0
VERTEX
8
LOT
10
11199.7771
20
9399.8857
30
0.0
0
VERTEX
8
LOT
10
11195.5750
20
9499.7974
30
0.0
0
SEQEND
0
TEXT
8
LOT-TEXT
7
STANDARD
10
11235.1430
20
9451.4174
30
0.0
40
6.0
1
8
50
0.0
72
1
11
11235.1430
21
9451.4174
31
0.0
73
2
0
POLYLINE
8
LOT
66
1
70
0
0
VERTEX
8
LOT
10
11120.6413
20
9496.6458
30
0.0
0
VERTEX
8
LOT
10
11195.5750
20
9499.7974
30
0.0
0
SEQEND
0
POLYLINE
8
LOT
66
1
70
0
0
VERTEX
8
LOT
10
11195.5750
20
9499.7974
30
0.0
0
VERTEX
8
LOT
10
11199.7771
20
9399.8857
30
0.0
0
SEQEND
0
POLYLINE
8
LOT
66
1
70
0
0
VERTEX
8
LOT
10
11199.7771
20
9399.8857
30
0.0
0
VERTEX
8
LOT
10
11124.8434
20
9396.7342
30
0.0
0
SEQEND
0
POLYLINE
8
LOT
66
1
70
0
0
VERTEX
8
LOT
10
11124.8434
20
9396.7342
30
0.0
0
VERTEX
8
LOT
10
11120.6413
20
9496.6458
30
0.0
0
SEQEND
0
TEXT
8
LOT-TEXT
7
STANDARD
10
11160.2092
20
9448.2658
30
0.0
40
6.0
1
7
50
0.0
72
1
11
11160.2092
21
9448.2658
31
0.0
73
2
0
POLYLINE
8
LOT
66
1
70
0
0
VERTEX
8
LOT
10
11045.7075
20
9493.4943
30
0.0
0
VERTEX
8
LOT
10
11120.6413
20
9496.6458
30
0.0
0
SEQEND
0
POLYLINE
8
LOT
66
1
70
0
0
VERTEX
8
LOT
10
11120.6413
20
9496.6458
30
0.0
0
VERTEX
8
LOT
10
11124.8434
20
9396.7342
30
0.0
0
SEQEND
0
POLYLINE
8
LOT
66
1
70
0
0
VERTEX
8
LOT
10
11124.8434
20
9396.7342
30
0.0
0
VERTEX
8
LOT
10
11049.9096
20
9393.5826
30
0.0
0
SEQEND
0
POLYLINE
8
LOT
66
1
70
0
0
VERTEX
8
LOT
10
11049.9096
20
9393.5826
30
0.0
0
VERTEX
8
LOT
10
11045.7075
20
9493.4943
30
0.0
0
SEQEND
0
TEXT
8
LOT-TEXT
7
STANDARD
10
11085.2754
20
9445.1142
30
0.0
40
6.0
1
6
50
0.0
72
1
11
11085.2754
21
9445.1142
31
0.0
73
2
0
POLYLINE
8
LOT
66
1
70
0
0
VERTEX
8
LOT
10
10957.3057
20
9489.7762
30
0.0
0
VERTEX
8
LOT
10
11045.7075
20
9493.4943
30
0.0
0
SEQEND
0
POLYLINE
8
LOT
66
1
70
0
0
VERTEX
8
LOT
10
11045.7075
20
9493.4943
30
0.0
0
VERTEX
8
LOT
10
11049.9096
20
9393.5826
30
0.0
0
SEQEND
0
POLYLINE
8
LOT
66
1
70
0
0
VERTEX
8
LOT
10
11049.9096
20
9393.5826
30
0.0
0
VERTEX
8
LOT
10
10961.5078
20
9389.8646
30
0.0
0
SEQEND
0
POLYLINE
8
LOT
66
1
70
0
0
VERTEX
8
LOT
10
10961.5078
20
9389.8646
30
0.0
0
VERTEX
8
LOT
10
10957.3057
20
9489.7762
30
0.0
0
SEQEND
0
TEXT
8
LOT-TEXT
7
STANDARD
10
11003.6076
20
9441.6794
30
0.0
40
6.0
1
5
50
0.0
72
1
11
11003.6076
21
9441.6794
31
0.0
73
2
0
POLYLINE
8
LOT
66
1
70
0
0
VERTEX
8
LOT
10
10868.9038
20
9486.0582
30
0.0
0
VERTEX
8
LOT
10
10957.3057
20
9489.7762
30
0.0
0
SEQEND
0
POLYLINE
8
LOT
66
1
70
0
0
VERTEX
8
LOT
10
10957.3057
20
9489.7762
30
0.0
0
VERTEX
8
LOT
10
10961.5078
20
9389.8646
30
0.0
0
SEQEND
0
POLYLINE
8
LOT
66
1
70
0
0
VERTEX
8
LOT
10
10961.5078
20
9389.8646
30
0.0
0
VERTEX
8
LOT
10
10873.1059
20
9386.1466
30
0.0
0
SEQEND
0
POLYLINE
8
LOT
66
1
70
0
0
VERTEX
8
LOT
10
10873.1059
20
9386.1466
30
0.0
0
VERTEX
8
LOT
10
10868.9038
20
9486.0582
30
0.0
0
SEQEND
0
TEXT
8
LOT-TEXT
7
STANDARD
10
10915.2058
20
9437.9614
30
0.0
40
6.0
1
4
50
0.0
72
1
11
10915.2058
21
9437.9614
31
0.0
73
2
0
POLYLINE
8
LOT
66
1
70
0
0
VERTEX
8
LOT
10
10780.4820
20
9482.3394
30
0.0
0
VERTEX
8
LOT
10
10868.9038
20
9486.0582
30
0.0
0
SEQEND
0
POLYLINE
8
LOT
66
1
70
0
0
VERTEX
8
LOT
10
10868.9038
20
9486.0582
30
0.0
0
VERTEX
8
LOT
10
10873.1059
20
9386.1466
30
0.0
0
SEQEND
0
POLYLINE
8
LOT
66
1
70
0
0
VERTEX
8
LOT
10
10873.1059
20
9386.1466
30
0.0
0
VERTEX
8
LOT
10
10784.6841
20
9382.4277
30
0.0
0
SEQEND
0
POLYLINE
8
LOT
66
1
70
0
0
VERTEX
8
LOT
10
10784.6841
20
9382.4277
30
0.0
0
VERTEX
8
LOT
10
10780.4820
20
9482.3394
30
0.0
0
SEQEND
0
TEXT
8
LOT-TEXT
7
STANDARD
10
10826.7940
20
9434.2430
30
0.0
40
6.0
1
3
50
0.0
72
1
11
10826.7940
21
9434.2430
31
0.0
73
2
0
POLYLINE
8
LOT
66
1
70
0
0
VERTEX
8
LOT
10
10680.5703
20
9478.1373
30
0.0
0
VERTEX
8
LOT
10
10780.4820
20
9482.3394
30
0.0
0
SEQEND
0
POLYLINE
8
LOT
66
1
70
0
0
VERTEX
8
LOT
10
10780.4820
20
9482.3394
30
0.0
0
VERTEX
8
LOT
10
10784.6841
20
9382.4277
30
0.0
0
SEQEND
0
POLYLINE
8
LOT
66
1
70
0
0
VERTEX
8
LOT
10
10784.6841
20
9382.4277
30
0.0
0
VERTEX
8
LOT
10
10683.9786
20
9397.1784
30
0.0
0
SEQEND
0
POLYLINE
8
LOT
66
1
70
0
0
VERTEX
8
LOT
10
10683.9786
20
9397.1784
30
0.0
0
VERTEX
8
LOT
10
10680.5703
20
9478.1373
30
0.0
0
SEQEND
0
TEXT
8
LOT-TEXT
7
STANDARD
10
10732.4288
20
9435.0207
30
0.0
40
6.0
1
2
50
0.0
72
1
11
10732.4288
21
9435.0207
31
0.0
73
2
0
POLYLINE
8
LOT
66
1
70
0
0
VERTEX
8
LOT
10
10638.2029
20
9332.5404
30
0.0
0
VERTEX
8
LOT
10
10564.7555
20
9384.5547
30
0.0
0
SEQEND
0
POLYLINE
8
LOT-CURVE
66
1
70
0
0
VERTEX
8
LOT-CURVE
10
10564.7555
20
9384.5547
30
0.0
0
VERTEX
8
LOT-CURVE
10
10562.8254
20
9386.0692
30
0.0
0
VERTEX
8
LOT-CURVE
10
10561.0529
20
9387.7655
30
0.0
0
VERTEX
8
LOT-CURVE
10
10559.4553
20
9389.6274
30
0.0
0
VERTEX
8
LOT-CURVE
10
10558.0478
20
9391.6369
30
0.0
0
VERTEX
8
LOT-CURVE
10
10556.8441
20
9393.7747
30
0.0
0
VERTEX
8
LOT-CURVE
10
10555.8558
20
9396.0202
30
0.0
0
VERTEX
8
LOT-CURVE
10
10555.0923
20
9398.3518
30
0.0
0
VERTEX
8
LOT-CURVE
10
10554.5610
20
9400.7469
30
0.0
0
VERTEX
8
LOT-CURVE
10
10554.2670
20
9403.1826
30
0.0
0
VERTEX
8
LOT-CURVE
10
10554.2132
20
9405.6354
30
0.0
0
VERTEX
8
LOT-CURVE
10
10554.4000
20
9408.0817
30
0.0
0
VERTEX
8
LOT-CURVE
10
10554.8257
20
9410.4978
30
0.0
0
VERTEX
8
LOT-CURVE
10
10555.4863
20
9412.8606
30
0.0
0
VERTEX
8
LOT-CURVE
10
10556.3752
20
9415.1473
30
0.0
0
VERTEX
8
LOT-CURVE
10
10557.4840
20
9417.3359
30
0.0
0
VERTEX
8
LOT-CURVE
10
10558.8019
20
9419.4052
30
0.0
0
SEQEND
0
POLYLINE
8
LOT-CURVE
66
1
70
0
0
VERTEX
8
LOT-CURVE
10
10558.8019
20
9419.4052
30
0.0
0
VERTEX
8
LOT-CURVE
10
10563.5297
20
9425.6930
30
0.0
0
VERTEX
8
LOT-CURVE
10
10568.6083
20
9431.7011
30
0.0
0
VERTEX
8
LOT-CURVE
10
10574.0211
20
9437.4099
30
0.0
0
VERTEX
8
LOT-CURVE
10
10579.7505
20
9442.8009
30
0.0
0
VERTEX
8
LOT-CURVE
10
10585.7779
20
9447.8565
30
0.0
0
VERTEX
8
LOT-CURVE
10
10592.0837
20
9452.5603
30
0.0
0
VERTEX
8
LOT-CURVE
10
10598.6474
20
9456.8971
30
0.0
0
VERTEX
8
LOT-CURVE
10
10605.4476
20
9460.8525
30
0.0
0
VERTEX
8
LOT-CURVE
10
10612.4622
20
9464.4140
30
0.0
0
VERTEX
8
LOT-CURVE
10
10619.6685
20
9467.5697
30
0.0
0
VERTEX
8
LOT-CURVE
10
10627.0429
20
9470.3096
30
0.0
0
VERTEX
8
LOT-CURVE
10
10634.5616
20
9472.6246
30
0.0
0
VERTEX
8
LOT-CURVE
10
10642.1999
20
9474.5072
30
0.0
0
VERTEX
8
LOT-CURVE
10
10649.9332
20
9475.9514
30
0.0
0
VERTEX
8
LOT-CURVE
10
10657.7362
20
9476.9524
30
0.0
0
VERTEX
8
LOT-CURVE
10
10665.5836
20
9477.5070
30
0.0
0
SEQEND
0
POLYLINE
8
LOT
66
1
70
0
0
VERTEX
8
LOT
10
10665.5836
20
9477.5070
30
0.0
0
VERTEX
8
LOT
10
10680.5703
20
9478.1373
30
0.0
0
SEQEND
0
POLYLINE
8
LOT
66
1
70
0
0
VERTEX
8
LOT
10
10680.5703
20
9478.1373
30
0.0
0
VERTEX
8
LOT
10
10683.9786
20
9397.1784
30
0.0
0
SEQEND
0
POLYLINE
8
LOT
66
1
70
0
0
VERTEX
8
LOT
10
10683.9786
20
9397.1784
30
0.0
0
VERTEX
8
LOT
10
10638.2029
20
9332.5404
30
0.0
0
SEQEND
0
TEXT
8
LOT-TEXT
7
STANDARD
10
10631.9821
20
9414.8872
30
0.0
40
6.0
1
1
50
0.0
72
1
11
10631.9821
21
9414.8872
31
0.0
73
2
0
POLYLINE
8
LOT
66
1
70
0
0
VERTEX
8
LOT
10
11274.7109
20
9403.0373
30
0.0
0
VERTEX
8
LOT
10
11367.6187
20
9406.9448
30
0.0
0
SEQEND
0
POLYLINE
8
LOT
66
1
70
0
0
VERTEX
8
LOT
10
11367.6187
20
9406.9448
30
0.0
0
VERTEX
8
LOT
10
11368.5394
20
9331.1689
30
0.0
0
SEQEND
0
POLYLINE
8
LOT-CURVE
66
1
70
0
0
VERTEX
8
LOT-CURVE
10
11368.5394
20
9331.1689
30
0.0
0
VERTEX
8
LOT-CURVE
10
11368.4527
20
9328.7637
30
0.0
0
VERTEX
8
LOT-CURVE
10
11368.1351
20
9326.3781
30
0.0
0
VERTEX
8
LOT-CURVE
10
11367.5896
20
9324.0340
30
0.0
0
VERTEX
8
LOT-CURVE
10
11366.8213
20
9321.7533
30
0.0
0
VERTEX
8
LOT-CURVE
10
11365.8372
20
9319.5570
30
0.0
0
VERTEX
8
LOT-CURVE
10
11364.6464
20
9317.4655
30
0.0
0
VERTEX
8
LOT-CURVE
10
11363.2601
20
9315.4982
30
0.0
0
VERTEX
8
LOT-CURVE
10
11361.6910
20
9313.6733
30
0.0
0
VERTEX
8
LOT-CURVE
10
11359.9538
20
9312.0077
30
0.0
0
VERTEX
8
LOT-CURVE
10
11358.0644
20
9310.5170
30
0.0
0
VERTEX
8
LOT-CURVE
10
11356.0404
20
9309.2148
30
0.0
0
VERTEX
8
LOT-CURVE
10
11353.9006
20
9308.1132
30
0.0
0
VERTEX
8
LOT-CURVE
10
11351.6648
20
9307.2225
30
0.0
0
VERTEX
8
LOT-CURVE
10
11349.3537
20
9306.5509
30
0.0
0
VERTEX
8
LOT-CURVE
10
11346.9887
20
9306.1047
30
0.0
0
VERTEX
8
LOT-CURVE
10
11344.5918
20
9305.8880
30
0.0
0
SEQEND
0
POLYLINE
8
LOT
66
1
70
0
0
VERTEX
8
LOT
10
11344.5918
20
9305.8880
30
0.0
0
VERTEX
8
LOT
10
11278.9130
20
9303.1256
30
0.0
0
SEQEND
0
POLYLINE
8
LOT
66
1
70
0
0
VERTEX
8
LOT
10
11278.9130
20
9303.1256
30
0.0
0
VERTEX
8
LOT
10
11274.7109
20
9403.0373
30
0.0
0
SEQEND
0
TEXT
8
LOT-TEXT
7
STANDARD
10
11326.8748
20
9350.0329
30
0.0
40
6.0
1
10
50
0.0
72
1
11
11326.8748
21
9350.0329
31
0.0
73
2
0
POLYLINE
8
LOT
66
1
70
0
0
VERTEX
8
LOT
10
11199.7771
20
9399.8857
30
0.0
0
VERTEX
8
LOT
10
11274.7109
20
9403.0373
30
0.0
0
SEQEND
0
POLYLINE
8
LOT
66
1
70
0
0
VERTEX
8
LOT
10
11274.7109
20
9403.0373
30
0.0
0
VERTEX
8
LOT
10
11278.9130
20
9303.1256
30
0.0
0
SEQEND
0
POLYLINE
8
LOT
66
1
70
0
0
VERTEX
8
LOT
10
11278.9130
20
9303.1256
30
0.0
0
VERTEX
8
LOT
10
11203.9792
20
9299.9741
30
0.0
0
SEQEND
0
POLYLINE
8
LOT
66
1
70
0
0
VERTEX
8
LOT
10
11203.9792
20
9299.9741
30
0.0
0
VERTEX
8
LOT
10
11199.7771
20
9399.8857
30
0.0
0
SEQEND
0
TEXT
8
LOT-TEXT
7
STANDARD
10
11239.3450
20
9351.5057
30
0.0
40
6.0
1
11
50
0.0
72
1
11
11239.3450
21
9351.5057
31
0.0
73
2
0
POLYLINE
8
LOT
66
1
70
0
0
VERTEX
8
LOT
10
11124.8434
20
9396.7342
30
0.0
0
VERTEX
8
LOT
10
11199.7771
20
9399.8857
30
0.0
0
SEQEND
0
POLYLINE
8
LOT
66
1
70
0
0
VERTEX
8
LOT
10
11199.7771
20
9399.8857
30
0.0
0
VERTEX
8
LOT
10
11203.9792
20
9299.9741
30
0.0
0
SEQEND
0
POLYLINE
8
LOT
66
1
70
0
0
VERTEX
8
LOT
10
11203.9792
20
9299.9741
30
0.0
0
VERTEX
8
LOT
10
11129.0455
20
9296.8225
30
0.0
0
SEQEND
0
POLYLINE
8
LOT
66
1
70
0
0
VERTEX
8
LOT
10
11129.0455
20
9296.8225
30
0.0
0
VERTEX
8
LOT
10
11124.8434
20
9396.7342
30
0.0
0
SEQEND
0
TEXT
8
LOT-TEXT
7
STANDARD
10
11164.4113
20
9348.3541
30
0.0
40
6.0
1
12
50
0.0
72
1
11
11164.4113
21
9348.3541
31
0.0
73
2
0
POLYLINE
8
LOT
66
1
70
0
0
VERTEX
8
LOT
10
11049.9096
20
9393.5826
30
0.0
0
VERTEX
8
LOT
10
11124.8434
20
9396.7342
30
0.0
0
SEQEND
0
POLYLINE
8
LOT
66
1
70
0
0
VERTEX
8
LOT
10
11124.8434
20
9396.7342
30
0.0
0
VERTEX
8
LOT
10
11129.0455
20
9296.8225
30
0.0
0
SEQEND
0
POLYLINE
8
LOT
66
1
70
0
0
VERTEX
8
LOT
10
11129.0455
20
9296.8225
30
0.0
0
VERTEX
8
LOT
10
11054.1117
20
9293.6709
30
0.0
0
SEQEND
0
POLYLINE
8
LOT
66
1
70
0
0
VERTEX
8
LOT
10
11054.1117
20
9293.6709
30
0.0
0
VERTEX
8
LOT
10
11049.9096
20
9393.5826
30
0.0
0
SEQEND
0
TEXT
8
LOT-TEXT
7
STANDARD
10
11089.4775
20
9345.2025
30
0.0
40
6.0
1
13
50
0.0
72
1
11
11089.4775
21
9345.2025
31
0.0
73
2
0
POLYLINE
8
LOT
66
1
70
0
0
VERTEX
8
LOT
10
10974.9759
20
9390.4310
30
0.0
0
VERTEX
8
LOT
10
11049.9096
20
9393.5826
30
0.0
0
SEQEND
0
POLYLINE
8
LOT
66
1
70
0
0
VERTEX
8
LOT
10
11049.9096
20
9393.5826
30
0.0
0
VERTEX
8
LOT
10
11054.1117
20
9293.6709
30
0.0
0
SEQEND
0
POLYLINE
8
LOT
66
1
70
0
0
VERTEX
8
LOT
10
11054.1117
20
9293.6709
30
0.0
0
VERTEX
8
LOT
10
10979.1780
20
9290.5193
30
0.0
0
SEQEND
0
POLYLINE
8
LOT
66
1
70
0
0
VERTEX
8
LOT
10
10979.1780
20
9290.5193
30
0.0
0
VERTEX
8
LOT
10
10974.9759
20
9390.4310
30
0.0
0
SEQEND
0
TEXT
8
LOT-TEXT
7
STANDARD
10
11014.5438
20
9342.0510
30
0.0
40
6.0
1
14
50
0.0
72
1
11
11014.5438
21
9342.0510
31
0.0
73
2
0
POLYLINE
8
LOT
66
1
70
0
0
VERTEX
8
LOT
10
10900.0421
20
9387.2794
30
0.0
0
VERTEX
8
LOT
10
10974.9759
20
9390.4310
30
0.0
0
SEQEND
0
POLYLINE
8
LOT
66
1
70
0
0
VERTEX
8
LOT
10
10974.9759
20
9390.4310
30
0.0
0
VERTEX
8
LOT
10
10979.1780
20
9290.5193
30
0.0
0
SEQEND
0
POLYLINE
8
LOT-CURVE
66
1
70
0
0
VERTEX
8
LOT-CURVE
10
10979.1780
20
9290.5193
30
0.0
0
VERTEX
8
LOT-CURVE
10
10974.4417
20
9290.2563
30
0.0
0
VERTEX
8
LOT-CURVE
10
10969.7143
20
9289.8643
30
0.0
0
VERTEX
8
LOT-CURVE
10
10964.9995
20
9289.3435
30
0.0
0
VERTEX
8
LOT-CURVE
10
10960.3005
20
9288.6942
30
0.0
0
VERTEX
8
LOT-CURVE
10
10955.6210
20
9287.9171
30
0.0
0
VERTEX
8
LOT-CURVE
10
10950.9645
20
9287.0127
30
0.0
0
VERTEX
8
LOT-CURVE
10
10946.3343
20
9285.9816
30
0.0
0
VERTEX
8
LOT-CURVE
10
10941.7340
20
9284.8247
30
0.0
0
VERTEX
8
LOT-CURVE
10
10937.1670
20
9283.5427
30
0.0
0
VERTEX
8
LOT-CURVE
10
10932.6366
20
9282.1366
30
0.0
0
VERTEX
8
LOT-CURVE
10
10928.1462
20
9280.6075
30
0.0
0
VERTEX
8
LOT-CURVE
10
10923.6992
20
9278.9566
30
0.0
0
VERTEX
8
LOT-CURVE
10
10919.2989
20
9277.1849
30
0.0
0
VERTEX
8
LOT-CURVE
10
10914.9485
20
9275.2940
30
0.0
0
VERTEX
8
LOT-CURVE
10
10910.6513
20
9273.2851
30
0.0
0
VERTEX
8
LOT-CURVE
10
10906.4105
20
9271.1598
30
0.0
0
SEQEND
0
POLYLINE
8
LOT
66
1
70
0
0
VERTEX
8
LOT
10
10906.4105
20
9271.1598
30
0.0
0
VERTEX
8
LOT
10
10900.0421
20
9387.2794
30
0.0
0
SEQEND
0
TEXT
8
LOT-TEXT
7
STANDARD
10
10940.1516
20
9334.8474
30
0.0
40
6.0
1
15
50
0.0
72
1
11
10940.1516
21
9334.8474
31
0.0
73
2
0
POLYLINE
8
LOT
66
1
70
0
0
VERTEX
8
LOT
10
10825.1083
20
9384.1279
30
0.0
0
VERTEX
8
LOT
10
10900.0421
20
9387.2794
30
0.0
0
SEQEND
0
POLYLINE
8
LOT
66
1
70
0
0
VERTEX
8
LOT
10
10900.0421
20
9387.2794
30
0.0
0
VERTEX
8
LOT
10
10906.4105
20
9271.1598
30
0.0
0
SEQEND
0
POLYLINE
8
LOT-CURVE
66
1
70
0
0
VERTEX
8
LOT-CURVE
10
10906.4105
20
9271.1598
30
0.0
0
VERTEX
8
LOT-CURVE
10
10901.8509
20
9268.7086
30
0.0
0
VERTEX
8
LOT-CURVE
10
10897.3661
20
9266.1229
30
0.0
0
VERTEX
8
LOT-CURVE
10
10892.9604
20
9263.4048
30
0.0
0
VERTEX
8
LOT-CURVE
10
10888.6374
20
9260.5568
30
0.0
0
VERTEX
8
LOT-CURVE
10
10884.4012
20
9257.5815
30
0.0
0
VERTEX
8
LOT-CURVE
10
10880.2553
20
9254.4813
30
0.0
0
VERTEX
8
LOT-CURVE
10
10876.2036
20
9251.2592
30
0.0
0
VERTEX
8
LOT-CURVE
10
10872.2495
20
9247.9179
30
0.0
0
VERTEX
8
LOT-CURVE
10
10868.3966
20
9244.4604
30
0.0
0
VERTEX
8
LOT-CURVE
10
10864.6484
20
9240.8898
30
0.0
0
VERTEX
8
LOT-CURVE
10
10861.0080
20
9237.2093
30
0.0
0
VERTEX
8
LOT-CURVE
10
10857.4788
20
9233.4220
30
0.0
0
VERTEX
8
LOT-CURVE
10
10854.0639
20
9229.5313
30
0.0
0
VERTEX
8
LOT-CURVE
10
10850.7663
20
9225.5408
30
0.0
0
VERTEX
8
LOT-CURVE
10
10847.5889
20
9221.4539
30
0.0
0
VERTEX
8
LOT-CURVE
10
10844.5345
20
9217.2742
30
0.0
0
SEQEND
0
POLYLINE
8
LOT
66
1
70
0
0
VERTEX
8
LOT
10
10844.5345
20
9217.2742
30
0.0
0
VERTEX
8
LOT
10
10825.1083
20
9384.1279
30
0.0
0
SEQEND
0
TEXT
8
LOT-TEXT
7
STANDARD
10
10869.0239
20
9314.9603
30
0.0
40
6.0
1
16
50
0.0
72
1
11
10869.0239
21
9314.9603
31
0.0
73
2
0
POLYLINE
8
LOT
66
1
70
0
0
VERTEX
8
LOT
10
10784.6841
20
9382.4277
30
0.0
0
VERTEX
8
LOT
10
10825.1083
20
9384.1279
30
0.0
0
SEQEND
0
POLYLINE
8
LOT
66
1
70
0
0
VERTEX
8
LOT
10
10825.1083
20
9384.1279
30
0.0
0
VERTEX
8
LOT
10
10844.5345
20
9217.2742
30
0.0
0
SEQEND
0
POLYLINE
8
LOT
66
1
70
0
0
VERTEX
8
LOT
10
10844.5345
20
9217.2742
30
0.0
0
VERTEX
8
LOT
10
10844.4305
20
9217.1273
30
0.0
0
SEQEND
0
POLYLINE
8
LOT-CURVE
66
1
70
0
0
VERTEX
8
LOT-CURVE
10
10844.4305
20
9217.1273
30
0.0
0
VERTEX
8
LOT-CURVE
10
10842.9160
20
9215.1971
30
0.0
0
VERTEX
8
LOT-CURVE
10
10841.2197
20
9213.4247
30
0.0
0
VERTEX
8
LOT-CURVE
10
10839.3578
20
9211.8271
30
0.0
0
VERTEX
8
LOT-CURVE
10
10837.3483
20
9210.4196
30
0.0
0
VERTEX
8
LOT-CURVE
10
10835.2105
20
9209.2159
30
0.0
0
VERTEX
8
LOT-CURVE
10
10832.9650
20
9208.2276
30
0.0
0
VERTEX
8
LOT-CURVE
10
10830.6334
20
9207.4640
30
0.0
0
VERTEX
8
LOT-CURVE
10
10828.2383
20
9206.9327
30
0.0
0
VERTEX
8
LOT-CURVE
10
10825.8025
20
9206.6388
30
0.0
0
VERTEX
8
LOT-CURVE
10
10823.3498
20
9206.5850
30
0.0
0
VERTEX
8
LOT-CURVE
10
10820.9035
20
9206.7718
30
0.0
0
VERTEX
8
LOT-CURVE
10
10818.4873
20
9207.1975
30
0.0
0
VERTEX
8
LOT-CURVE
10
10816.1245
20
9207.8581
30
0.0
0
VERTEX
8
LOT-CURVE
10
10813.8379
20
9208.7470
30
0.0
0
VERTEX
8
LOT-CURVE
10
10811.6493
20
9209.8558
30
0.0
0
VERTEX
8
LOT-CURVE
10
10809.5800
20
9211.1737
30
0.0
0
SEQEND
0
POLYLINE
8
LOT
66
1
70
0
0
VERTEX
8
LOT
10
10809.5800
20
9211.1737
30
0.0
0
VERTEX
8
LOT
10
10727.9718
20
9268.9674
30
0.0
0
SEQEND
0
POLYLINE
8
LOT
66
1
70
0
0
VERTEX
8
LOT
10
10727.9718
20
9268.9674
30
0.0
0
VERTEX
8
LOT
10
10784.6841
20
9382.4277
30
0.0
0
SEQEND
0
TEXT
8
LOT-TEXT
7
STANDARD
10
10806.0515
20
9280.1830
30
0.0
40
6.0
1
17
50
0.0
72
1
11
10806.0515
21
9280.1830
31
0.0
73
2
0
POLYLINE
8
LOT
66
1
70
0
0
VERTEX
8
LOT
10
10638.2029
20
9332.5404
30
0.0
0
VERTEX
8
LOT
10
10683.9786
20
9397.1784
30
0.0
0
SEQEND
0
POLYLINE
8
LOT
66
1
70
0
0
VERTEX
8
LOT
10
10683.9786
20
9397.1784
30
0.0
0
VERTEX
8
LOT
10
10784.6841
20
9382.4277
30
0.0
0
SEQEND
0
POLYLINE
8
LOT
66
1
70
0
0
VERTEX
8
LOT
10
10784.6841
20
9382.4277
30
0.0
0
VERTEX
8
LOT
10
10727.9718
20
9268.9674
30
0.0
0
SEQEND
0
POLYLINE
8
LOT
66
1
70
0
0
VERTEX
8
LOT
10
10727.9718
20
9268.9674
30
0.0
0
VERTEX
8
LOT
10
10638.2029
20
9332.5404
30
0.0
0
SEQEND
0
TEXT
8
LOT-TEXT
7
STANDARD
10
10708.7094
20
9345.2785
30
0.0
40
6.0
1
18
50
0.0
72
1
11
10708.7094
21
9345.2785
31
0.0
73
2
0
TEXT
8
BLOCK-TEXT
7
STANDARD
10
11004.0711
20
9387.8342
30
0.0
40
14.0
1
(15)
50
0.0
72
1
11
11004.0711
21
9387.8342
31
0.0
73
2
0
POLYLINE
8
LOT
66
1
70
0
0
VERTEX
8
LOT
10
9905.0357
20
8788.2349
30
0.0
0
VERTEX
8
LOT
10
9903.2420
20
8888.2188
30
0.0
0
SEQEND
0
POLYLINE
8
LOT
66
1
70
0
0
VERTEX
8
LOT
10
9903.2420
20
8888.2188
30
0.0
0
VERTEX
8
LOT
10
9978.2299
20
8889.5641
30
0.0
0
SEQEND
0
POLYLINE
8
LOT-CURVE
66
1
70
0
0
VERTEX
8
LOT-CURVE
10
9978.2299
20
8889.5641
30
0.0
0
VERTEX
8
LOT-CURVE
10
9980.6821
20
8889.4876
30
0.0
0
VERTEX
8
LOT-CURVE
10
9983.1150
20
8889.1712
30
0.0
0
VERTEX
8
LOT-CURVE
10
9985.5052
20
8888.6179
30
0.0
0
VERTEX
8
LOT-CURVE
10
9987.8296
20
8887.8330
30
0.0
0
VERTEX
8
LOT-CURVE
10
9990.0659
20
8886.8239
30
0.0
0
VERTEX
8
LOT-CURVE
10
9992.1925
20
8885.6006
30
0.0
0
VERTEX
8
LOT-CURVE
10
9994.1890
20
8884.1747
30
0.0
0
VERTEX
8
LOT-CURVE
10
9996.0361
20
8882.5600
30
0.0
0
VERTEX
8
LOT-CURVE
10
9997.7160
20
8880.7720
30
0.0
0
VERTEX
8
LOT-CURVE
10
9999.2126
20
8878.8280
30
0.0
0
VERTEX
8
LOT-CURVE
10
10000.5115
20
8876.7466
30
0.0
0
VERTEX
8
LOT-CURVE
10
10001.6000
20
8874.5479
30
0.0
0
VERTEX
8
LOT-CURVE
10
10002.4679
20
8872.2531
30
0.0
0
VERTEX
8
LOT-CURVE
10
10003.1066
20
8869.8844
30
0.0
0
VERTEX
8
LOT-CURVE
10
10003.5100
20
8867.4644
30
0.0
0
VERTEX
8
LOT-CURVE
10
10003.6743
20
8865.0165
30
0.0
0
SEQEND
0
POLYLINE
8
LOT
66
1
70
0
0
VERTEX
8
LOT
10
10003.6743
20
8865.0165
30
0.0
0
VERTEX
8
LOT
10
10005.0196
20
8790.0286
30
0.0
0
SEQEND
0
POLYLINE
8
LOT
66
1
70
0
0
VERTEX
8
LOT
10
10005.0196
20
8790.0286
30
0.0
0
VERTEX
8
LOT
10
9905.0357
20
8788.2349
30
0.0
0
SEQEND
0
TEXT
8
LOT-TEXT
7
STANDARD
10
9959.0403
20
8844.2126
30
0.0
40
6.0
1
1
50
0.0
72
1
11
9959.0403
21
8844.2126
31
0.0
73
2
0
POLYLINE
8
LOT
66
1
70
0
0
VERTEX
8
LOT
10
9906.4214
20
8710.9973
30
0.0
0
VERTEX
8
LOT
10
9905.0357
20
8788.2349
30
0.0
0
SEQEND
0
POLYLINE
8
LOT
66
1
70
0
0
VERTEX
8
LOT
10
9905.0357
20
8788.2349
30
0.0
0
VERTEX
8
LOT
10
10005.0196
20
8790.0286
30
0.0
0
SEQEND
0
POLYLINE
8
LOT
66
1
70
0
0
VERTEX
8
LOT
10
10005.0196
20
8790.0286
30
0.0
0
VERTEX
8
LOT
10
10006.4053
20
8712.7910
30
0.0
0
SEQEND
0
POLYLINE
8
LOT
66
1
70
0
0
VERTEX
8
LOT
10
10006.4053
20
8712.7910
30
0.0
0
VERTEX
8
LOT
10
9906.4214
20
8710.9973
30
0.0
0
SEQEND
0
TEXT
8
LOT-TEXT
7
STANDARD
10
9955.7205
20
8750.5129
30
0.0
40
6.0
1
2
50
0.0
72
1
11
9955.7205
21
8750.5129
31
0.0
73
2
0
POLYLINE
8
LOT
66
1
70
0
0
VERTEX
8
LOT
10
9907.8070
20
8633.7597
30
0.0
0
VERTEX
8
LOT
10
9906.4214
20
8710.9973
30
0.0
0
SEQEND
0
POLYLINE
8
LOT
66
1
70
0
0
VERTEX
8
LOT
10
9906.4214
20
8710.9973
30
0.0
0
VERTEX
8
LOT
10
10006.4053
20
8712.7910
30
0.0
0
SEQEND
0
POLYLINE
8
LOT
66
1
70
0
0
VERTEX
8
LOT
10
10006.4053
20
8712.7910
30
0.0
0
VERTEX
8
LOT
10
10007.7909
20
8635.5534
30
0.0
0
SEQEND
0
POLYLINE
8
LOT
66
1
70
0
0
VERTEX
8
LOT
10
10007.7909
20
8635.5534
30
0.0
0
VERTEX
8
LOT
10
9907.8070
20
8633.7597
30
0.0
0
SEQEND
0
TEXT
8
LOT-TEXT
7
STANDARD
10
9957.1061
20
8673.2754
30
0.0
40
6.0
1
3
50
0.0
72
1
11
9957.1061
21
8673.2754
31
0.0
73
2
0
POLYLINE
8
LOT
66
1
70
0
0
VERTEX
8
LOT
10
9909.1927
20
8556.5221
30
0.0
0
VERTEX
8
LOT
10
9907.8070
20
8633.7597
30
0.0
0
SEQEND
0
POLYLINE
8
LOT
66
1
70
0
0
VERTEX
8
LOT
10
9907.8070
20
8633.7597
30
0.0
0
VERTEX
8
LOT
10
10007.7909
20
8635.5534
30
0.0
0
SEQEND
0
POLYLINE
8
LOT
66
1
70
0
0
VERTEX
8
LOT
10
10007.7909
20
8635.5534
30
0.0
0
VERTEX
8
LOT
10
10009.1766
20
8558.3159
30
0.0
0
SEQEND
0
POLYLINE
8
LOT
66
1
70
0
0
VERTEX
8
LOT
10
10009.1766
20
8558.3159
30
0.0
0
VERTEX
8
LOT
10
9909.1927
20
8556.5221
30
0.0
0
SEQEND
0
TEXT
8
LOT-TEXT
7
STANDARD
10
9958.4918
20
8596.0378
30
0.0
40
6.0
1
4
50
0.0
72
1
11
9958.4918
21
8596.0378
31
0.0
73
2
0
POLYLINE
8
LOT
66
1
70
0
0
VERTEX
8
LOT
10
9910.5783
20
8479.2846
30
0.0
0
VERTEX
8
LOT
10
9909.1927
20
8556.5221
30
0.0
0
SEQEND
0
POLYLINE
8
LOT
66
1
70
0
0
VERTEX
8
LOT
10
9909.1927
20
8556.5221
30
0.0
0
VERTEX
8
LOT
10
10009.1766
20
8558.3159
30
0.0
0
SEQEND
0
POLYLINE
8
LOT
66
1
70
0
0
VERTEX
8
LOT
10
10009.1766
20
8558.3159
30
0.0
0
VERTEX
8
LOT
10
10010.5622
20
8481.0783
30
0.0
0
SEQEND
0
POLYLINE
8
LOT
66
1
70
0
0
VERTEX
8
LOT
10
10010.5622
20
8481.0783
30
0.0
0
VERTEX
8
LOT
10
9910.5783
20
8479.2846
30
0.0
0
SEQEND
0
TEXT
8
LOT-TEXT
7
STANDARD
10
9959.8774
20
8518.8002
30
0.0
40
6.0
1
5
50
0.0
72
1
11
9959.8774
21
8518.8002
31
0.0
73
2
0
POLYLINE
8
LOT
66
1
70
0
0
VERTEX
8
LOT
10
9911.9639
20
8402.0470
30
0.0
0
VERTEX
8
LOT
10
9910.5783
20
8479.2846
30
0.0
0
SEQEND
0
POLYLINE
8
LOT
66
1
70
0
0
VERTEX
8
LOT
10
9910.5783
20
8479.2846
30
0.0
0
VERTEX
8
LOT
10
10010.5622
20
8481.0783
30
0.0
0
SEQEND
0
POLYLINE
8
LOT
66
1
70
0
0
VERTEX
8
LOT
10
10010.5622
20
8481.0783
30
0.0
0
VERTEX
8
LOT
10
10011.9479
20
8403.8407
30
0.0
0
SEQEND
0
POLYLINE
8
LOT
66
1
70
0
0
VERTEX
8
LOT
10
10011.9479
20
8403.8407
30
0.0
0
VERTEX
8
LOT
10
9911.9639
20
8402.0470
30
0.0
0
SEQEND
0
TEXT
8
LOT-TEXT
7
STANDARD
10
9961.2631
20
8441.5626
30
0.0
40
6.0
1
6
50
0.0
72
1
11
9961.2631
21
8441.5626
31
0.0
73
2
0
POLYLINE
8
LOT
66
1
70
0
0
VERTEX
8
LOT
10
9913.3496
20
8324.8094
30
0.0
0
VERTEX
8
LOT
10
9911.9639
20
8402.0470
30
0.0
0
SEQEND
0
POLYLINE
8
LOT
66
1
70
0
0
VERTEX
8
LOT
10
9911.9639
20
8402.0470
30
0.0
0
VERTEX
8
LOT
10
10011.9479
20
8403.8407
30
0.0
0
SEQEND
0
POLYLINE
8
LOT
66
1
70
0
0
VERTEX
8
LOT
10
10011.9479
20
8403.8407
30
0.0
0
VERTEX
8
LOT
10
10013.3335
20
8326.6031
30
0.0
0
SEQEND
0
POLYLINE
8
LOT
66
1
70
0
0
VERTEX
8
LOT
10
10013.3335
20
8326.6031
30
0.0
0
VERTEX
8
LOT
10
9913.3496
20
8324.8094
30
0.0
0
SEQEND
0
TEXT
8
LOT-TEXT
7
STANDARD
10
9962.6487
20
8364.3251
30
0.0
40
6.0
1
7
50
0.0
72
1
11
9962.6487
21
8364.3251
31
0.0
73
2
0
POLYLINE
8
LOT
66
1
70
0
0
VERTEX
8
LOT
10
9914.7352
20
8247.5719
30
0.0
0
VERTEX
8
LOT
10
9913.3496
20
8324.8094
30
0.0
0
SEQEND
0
POLYLINE
8
LOT
66
1
70
0
0
VERTEX
8
LOT
10
9913.3496
20
8324.8094
30
0.0
0
VERTEX
8
LOT
10
10013.3335
20
8326.6031
30
0.0
0
SEQEND
0
POLYLINE
8
LOT
66
1
70
0
0
VERTEX
8
LOT
10
10013.3335
20
8326.6031
30
0.0
0
VERTEX
8
LOT
10
10014.7191
20
8249.3656
30
0.0
0
SEQEND
0
POLYLINE
8
LOT
66
1
70
0
0
VERTEX
8
LOT
10
10014.7191
20
8249.3656
30
0.0
0
VERTEX
8
LOT
10
9914.7352
20
8247.5719
30
0.0
0
SEQEND
0
TEXT
8
LOT-TEXT
7
STANDARD
10
9964.0344
20
8287.0875
30
0.0
40
6.0
1
8
50
0.0
72
1
11
9964.0344
21
8287.0875
31
0.0
73
2
0
POLYLINE
8
LOT
66
1
70
0
0
VERTEX
8
LOT
10
9916.1209
20
8170.3343
30
0.0
0
VERTEX
8
LOT
10
9914.7352
20
8247.5719
30
0.0
0
SEQEND
0
POLYLINE
8
LOT
66
1
70
0
0
VERTEX
8
LOT
10
9914.7352
20
8247.5719
30
0.0
0
VERTEX
8
LOT
10
10014.7191
20
8249.3656
30
0.0
0
SEQEND
0
POLYLINE
8
LOT
66
1
70
0
0
VERTEX
8
LOT
10
10014.7191
20
8249.3656
30
0.0
0
VERTEX
8
LOT
10
10016.1048
20
8172.1280
30
0.0
0
SEQEND
0
POLYLINE
8
LOT
66
1
70
0
0
VERTEX
8
LOT
10
10016.1048
20
8172.1280
30
0.0
0
VERTEX
8
LOT
10
9916.1209
20
8170.3343
30
0.0
0
SEQEND
0
TEXT
8
LOT-TEXT
7
STANDARD
10
9965.4200
20
8209.8499
30
0.0
40
6.0
1
9
50
0.0
72
1
11
9965.4200
21
8209.8499
31
0.0
73
2
0
POLYLINE
8
LOT
66
1
70
0
0
VERTEX
8
LOT
10
9917.5006
20
8093.4267
30
0.0
0
VERTEX
8
LOT
10
9916.1209
20
8170.3343
30
0.0
0
SEQEND
0
POLYLINE
8
LOT
66
1
70
0
0
VERTEX
8
LOT
10
9916.1209
20
8170.3343
30
0.0
0
VERTEX
8
LOT
10
10016.1048
20
8172.1280
30
0.0
0
SEQEND
0
POLYLINE
8
LOT
66
1
70
0
0
VERTEX
8
LOT
10
10016.1048
20
8172.1280
30
0.0
0
VERTEX
8
LOT
10
10017.4845
20
8095.2204
30
0.0
0
SEQEND
0
POLYLINE
8
LOT
66
1
70
0
0
VERTEX
8
LOT
10
10017.4845
20
8095.2204
30
0.0
0
VERTEX
8
LOT
10
9917.5006
20
8093.4267
30
0.0
0
SEQEND
0
TEXT
8
LOT-TEXT
7
STANDARD
10
9966.8027
20
8132.7773
30
0.0
40
6.0
1
10
50
0.0
72
1
11
9966.8027
21
8132.7773
31
0.0
73
2
0
POLYLINE
8
LOT
66
1
70
0
0
VERTEX
8
LOT
10
9919.2839
20
7994.0227
30
0.0
0
VERTEX
8
LOT
10
9917.5006
20
8093.4267
30
0.0
0
SEQEND
0
POLYLINE
8
LOT
66
1
70
0
0
VERTEX
8
LOT
10
9917.5006
20
8093.4267
30
0.0
0
VERTEX
8
LOT
10
10017.4845
20
8095.2204
30
0.0
0
SEQEND
0
POLYLINE
8
LOT
66
1
70
0
0
VERTEX
8
LOT
10
10017.4845
20
8095.2204
30
0.0
0
VERTEX
8
LOT
10
10018.8272
20
8020.3765
30
0.0
0
SEQEND
0
POLYLINE
8
LOT-CURVE
66
1
70
0
0
VERTEX
8
LOT-CURVE
10
10018.8272
20
8020.3765
30
0.0
0
VERTEX
8
LOT-CURVE
10
10018.7501
20
8017.9152
30
0.0
0
VERTEX
8
LOT-CURVE
10
10018.4312
20
8015.4735
30
0.0
0
VERTEX
8
LOT-CURVE
10
10017.8736
20
8013.0750
30
0.0
0
VERTEX
8
LOT-CURVE
10
10017.0828
20
8010.7430
30
0.0
0
VERTEX
8
LOT-CURVE
10
10016.0664
20
8008.5001
30
0.0
0
VERTEX
8
LOT-CURVE
10
10014.8342
20
8006.3681
30
0.0
0
VERTEX
8
LOT-CURVE
10
10013.3983
20
8004.3676
30
0.0
0
VERTEX
8
LOT-CURVE
10
10011.7726
20
8002.5181
30
0.0
0
VERTEX
8
LOT-CURVE
10
10009.9728
20
8000.8375
30
0.0
0
VERTEX
8
LOT-CURVE
10
10008.0164
20
7999.3421
30
0.0
0
VERTEX
8
LOT-CURVE
10
10005.9223
20
7998.0464
30
0.0
0
VERTEX
8
LOT-CURVE
10
10003.7110
20
7996.9631
30
0.0
0
VERTEX
8
LOT-CURVE
10
10001.4038
20
7996.1025
30
0.0
0
VERTEX
8
LOT-CURVE
10
9999.0231
20
7995.4731
30
0.0
0
VERTEX
8
LOT-CURVE
10
9996.5921
20
7995.0810
30
0.0
0
VERTEX
8
LOT-CURVE
10
9994.1342
20
7994.9299
30
0.0
0
SEQEND
0
POLYLINE
8
LOT
66
1
70
0
0
VERTEX
8
LOT
10
9994.1342
20
7994.9299
30
0.0
0
VERTEX
8
LOT
10
9919.2839
20
7994.0227
30
0.0
0
SEQEND
0
TEXT
8
LOT-TEXT
7
STANDARD
10
9973.4461
20
8039.5952
30
0.0
40
6.0
1
11
50
0.0
72
1
11
9973.4461
21
8039.5952
31
0.0
73
2
0
TEXT
8
BLOCK-TEXT
7
STANDARD
10
9962.1683
20
8441.6397
30
0.0
40
14.0
1
(13)
50
0.0
72
1
11
9962.1683
21
8441.6397
31
0.0
73
2
0
POLYLINE
8
LOT
66
1
70
0
0
VERTEX
8
LOT
10
10071.7183
20
8417.1760
30
0.0
0
VERTEX
8
LOT
10
10070.3730
20
8492.1639
30
0.0
0
SEQEND
0
POLYLINE
8
LOT
66
1
70
0
0
VERTEX
8
LOT
10
10070.3730
20
8492.1639
30
0.0
0
VERTEX
8
LOT
10
10170.3569
20
8493.9576
30
0.0
0
SEQEND
0
POLYLINE
8
LOT
66
1
70
0
0
VERTEX
8
LOT
10
10170.3569
20
8493.9576
30
0.0
0
VERTEX
8
LOT
10
10191.6990
20
8419.3284
30
0.0
0
SEQEND
0
POLYLINE
8
LOT
66
1
70
0
0
VERTEX
8
LOT
10
10191.6990
20
8419.3284
30
0.0
0
VERTEX
8
LOT
10
10071.7183
20
8417.1760
30
0.0
0
SEQEND
0
TEXT
8
LOT-TEXT
7
STANDARD
10
10126.0368
20
8455.6565
30
0.0
40
6.0
1
7
50
0.0
72
1
11
10126.0368
21
8455.6565
31
0.0
73
2
0
POLYLINE
8
LOT
66
1
70
0
0
VERTEX
8
LOT
10
10072.9967
20
8345.9174
30
0.0
0
VERTEX
8
LOT
10
10071.7183
20
8417.1760
30
0.0
0
SEQEND
0
POLYLINE
8
LOT
66
1
70
0
0
VERTEX
8
LOT
10
10071.7183
20
8417.1760
30
0.0
0
VERTEX
8
LOT
10
10191.6990
20
8419.3284
30
0.0
0
SEQEND
0
POLYLINE
8
LOT
66
1
70
0
0
VERTEX
8
LOT
10
10191.6990
20
8419.3284
30
0.0
0
VERTEX
8
LOT
10
10193.4973
20
8348.0792
30
0.0
0
SEQEND
0
POLYLINE
8
LOT
66
1
70
0
0
VERTEX
8
LOT
10
10193.4973
20
8348.0792
30
0.0
0
VERTEX
8
LOT
10
10072.9967
20
8345.9174
30
0.0
0
SEQEND
0
TEXT
8
LOT-TEXT
7
STANDARD
10
10132.4778
20
8382.6253
30
0.0
40
6.0
1
6
50
0.0
72
1
11
10132.4778
21
8382.6253
31
0.0
73
2
0
POLYLINE
8
LOT
66
1
70
0
0
VERTEX
8
LOT
10
10074.6110
20
8255.9319
30
0.0
0
VERTEX
8
LOT
10
10072.9967
20
8345.9174
30
0.0
0
SEQEND
0
POLYLINE
8
LOT
66
1
70
0
0
VERTEX
8
LOT
10
10072.9967
20
8345.9174
30
0.0
0
VERTEX
8
LOT
10
10193.4973
20
8348.0792
30
0.0
0
SEQEND
0
POLYLINE
8
LOT
66
1
70
0
0
VERTEX
8
LOT
10
10193.4973
20
8348.0792
30
0.0
0
VERTEX
8
LOT
10
10194.6022
20
8257.3863
30
0.0
0
SEQEND
0
POLYLINE
8
LOT
66
1
70
0
0
VERTEX
8
LOT
10
10194.6022
20
8257.3863
30
0.0
0
VERTEX
8
LOT
10
10074.6110
20
8255.9319
30
0.0
0
SEQEND
0
TEXT
8
LOT-TEXT
7
STANDARD
10
10133.9268
20
8301.8287
30
0.0
40
6.0
1
5
50
0.0
72
1
11
10133.9268
21
8301.8287
31
0.0
73
2
0
POLYLINE
8
LOT
66
1
70
0
0
VERTEX
8
LOT
10
10194.6022
20
8257.3863
30
0.0
0
VERTEX
8
LOT
10
10193.5030
20
8348.0697
30
0.0
0
SEQEND
0
POLYLINE
8
LOT
66
1
70
0
0
VERTEX
8
LOT
10
10193.5030
20
8348.0697
30
0.0
0
VERTEX
8
LOT
10
10287.5566
20
8360.7205
30
0.0
0
SEQEND
0
POLYLINE
8
LOT
66
1
70
0
0
VERTEX
8
LOT
10
10287.5566
20
8360.7205
30
0.0
0
VERTEX
8
LOT
10
10288.7953
20
8258.5280
30
0.0
0
SEQEND
0
POLYLINE
8
LOT
66
1
70
0
0
VERTEX
8
LOT
10
10288.7953
20
8258.5280
30
0.0
0
VERTEX
8
LOT
10
10194.6022
20
8257.3863
30
0.0
0
SEQEND
0
TEXT
8
LOT-TEXT
7
STANDARD
10
10241.1143
20
8306.1761
30
0.0
40
6.0
1
4
50
0.0
72
1
11
10241.1143
21
8306.1761
31
0.0
73
2
0
TEXT
8
BLOCK-TEXT
7
STANDARD
10
10158.3889
20
8361.5716
30
0.0
40
14.0
1
(12)
50
0.0
72
1
11
10158.3889
21
8361.5716
31
0.0
73
2
0
POLYLINE
8
LOT
66
1
70
0
0
VERTEX
8
LOT
10
10077.4810
20
8095.9566
30
0.0
0
VERTEX
8
LOT
10
10075.6872
20
8195.9406
30
0.0
0
SEQEND
0
POLYLINE
8
LOT
66
1
70
0
0
VERTEX
8
LOT
10
10075.6872
20
8195.9406
30
0.0
0
VERTEX
8
LOT
10
10169.5104
20
8197.0778
30
0.0
0
SEQEND
0
POLYLINE
8
LOT
66
1
70
0
0
VERTEX
8
LOT
10
10169.5104
20
8197.0778
30
0.0
0
VERTEX
8
LOT
10
10170.7241
20
8097.0868
30
0.0
0
SEQEND
0
POLYLINE
8
LOT
66
1
70
0
0
VERTEX
8
LOT
10
10170.7241
20
8097.0868
30
0.0
0
VERTEX
8
LOT
10
10077.4810
20
8095.9566
30
0.0
0
SEQEND
0
TEXT
8
LOT-TEXT
7
STANDARD
10
10123.3507
20
8146.5155
30
0.0
40
6.0
1
15
50
0.0
72
1
11
10123.3507
21
8146.5155
31
0.0
73
2
0
POLYLINE
8
LOT
66
1
70
0
0
VERTEX
8
LOT
10
10170.7241
20
8097.0868
30
0.0
0
VERTEX
8
LOT
10
10169.5104
20
8197.0778
30
0.0
0
SEQEND
0
POLYLINE
8
LOT
66
1
70
0
0
VERTEX
8
LOT
10
10169.5104
20
8197.0778
30
0.0
0
VERTEX
8
LOT
10
10244.5048
20
8197.9868
30
0.0
0
SEQEND
0
POLYLINE
8
LOT
66
1
70
0
0
VERTEX
8
LOT
10
10244.5048
20
8197.9868
30
0.0
0
VERTEX
8
LOT
10
10245.7186
20
8097.9958
30
0.0
0
SEQEND
0
POLYLINE
8
LOT
66
1
70
0
0
VERTEX
8
LOT
10
10245.7186
20
8097.9958
30
0.0
0
VERTEX
8
LOT
10
10170.7241
20
8097.0868
30
0.0
0
SEQEND
0
TEXT
8
LOT-TEXT
7
STANDARD
10
10207.6145
20
8147.5368
30
0.0
40
6.0
1
16
50
0.0
72
1
11
10207.6145
21
8147.5368
31
0.0
73
2
0
POLYLINE
8
LOT
66
1
70
0
0
VERTEX
8
LOT
10
10245.7186
20
8097.9958
30
0.0
0
VERTEX
8
LOT
10
10244.5048
20
8197.9868
30
0.0
0
SEQEND
0
POLYLINE
8
LOT
66
1
70
0
0
VERTEX
8
LOT
10
10244.5048
20
8197.9868
30
0.0
0
VERTEX
8
LOT
10
10319.4993
20
8198.8958
30
0.0
0
SEQEND
0
POLYLINE
8
LOT
66
1
70
0
0
VERTEX
8
LOT
10
10319.4993
20
8198.8958
30
0.0
0
VERTEX
8
LOT
10
10320.7131
20
8098.9048
30
0.0
0
SEQEND
0
POLYLINE
8
LOT
66
1
70
0
0
VERTEX
8
LOT
10
10320.7131
20
8098.9048
30
0.0
0
VERTEX
8
LOT
10
10245.7186
20
8097.9958
30
0.0
0
SEQEND
0
TEXT
8
LOT-TEXT
7
STANDARD
10
10282.6090
20
8148.4458
30
0.0
40
6.0
1
17
50
0.0
72
1
11
10282.6090
21
8148.4458
31
0.0
73
2
0
POLYLINE
8
LOT
66
1
70
0
0
VERTEX
8
LOT
10
10079.2747
20
7995.9727
30
0.0
0
VERTEX
8
LOT
10
10077.4810
20
8095.9566
30
0.0
0
SEQEND
0
POLYLINE
8
LOT
66
1
70
0
0
VERTEX
8
LOT
10
10077.4810
20
8095.9566
30
0.0
0
VERTEX
8
LOT
10
10170.7241
20
8097.0868
30
0.0
0
SEQEND
0
POLYLINE
8
LOT
66
1
70
0
0
VERTEX
8
LOT
10
10170.7241
20
8097.0868
30
0.0
0
VERTEX
8
LOT
10
10171.9379
20
7997.0959
30
0.0
0
SEQEND
0
POLYLINE
8
LOT
66
1
70
0
0
VERTEX
8
LOT
10
10171.9379
20
7997.0959
30
0.0
0
VERTEX
8
LOT
10
10079.2747
20
7995.9727
30
0.0
0
SEQEND
0
TEXT
8
LOT-TEXT
7
STANDARD
10
10124.8544
20
8046.5280
30
0.0
40
6.0
1
14
50
0.0
72
1
11
10124.8544
21
8046.5280
31
0.0
73
2
0
POLYLINE
8
LOT
66
1
70
0
0
VERTEX
8
LOT
10
10171.9379
20
7997.0959
30
0.0
0
VERTEX
8
LOT
10
10170.7241
20
8097.0868
30
0.0
0
SEQEND
0
POLYLINE
8
LOT
66
1
70
0
0
VERTEX
8
LOT
10
10170.7241
20
8097.0868
30
0.0
0
VERTEX
8
LOT
10
10245.7186
20
8097.9958
30
0.0
0
SEQEND
0
POLYLINE
8
LOT
66
1
70
0
0
VERTEX
8
LOT
10
10245.7186
20
8097.9958
30
0.0
0
VERTEX
8
LOT
10
10246.9324
20
7998.0049
30
0.0
0
SEQEND
0
POLYLINE
8
LOT
66
1
70
0
0
VERTEX
8
LOT
10
10246.9324
20
7998.0049
30
0.0
0
VERTEX
8
LOT
10
10171.9379
20
7997.0959
30
0.0
0
SEQEND
0
TEXT
8
LOT-TEXT
7
STANDARD
10
10208.8282
20
8047.5459
30
0.0
40
6.0
1
13
50
0.0
72
1
11
10208.8282
21
8047.5459
31
0.0
73
2
0
POLYLINE
8
LOT
66
1
70
0
0
VERTEX
8
LOT
10
10246.9324
20
7998.0049
30
0.0
0
VERTEX
8
LOT
10
10245.7186
20
8097.9958
30
0.0
0
SEQEND
0
POLYLINE
8
LOT
66
1
70
0
0
VERTEX
8
LOT
10
10245.7186
20
8097.9958
30
0.0
0
VERTEX
8
LOT
10
10320.7131
20
8098.9048
30
0.0
0
SEQEND
0
POLYLINE
8
LOT
66
1
70
0
0
VERTEX
8
LOT
10
10320.7131
20
8098.9048
30
0.0
0
VERTEX
8
LOT
10
10321.9269
20
7998.9139
30
0.0
0
SEQEND
0
POLYLINE
8
LOT
66
1
70
0
0
VERTEX
8
LOT
10
10321.9269
20
7998.9139
30
0.0
0
VERTEX
8
LOT
10
10246.9324
20
7998.0049
30
0.0
0
SEQEND
0
TEXT
8
LOT-TEXT
7
STANDARD
10
10283.8227
20
8048.4549
30
0.0
40
6.0
1
12
50
0.0
72
1
11
10283.8227
21
8048.4549
31
0.0
73
2
0
TEXT
8
BLOCK-TEXT
7
STANDARD
10
10205.1799
20
8097.5045
30
0.0
40
14.0
1
(11)
50
0.0
72
1
11
10205.1799
21
8097.5045
31
0.0
73
2
0
POLYLINE
8
LOT
66
1
70
0
0
VERTEX
8
LOT
10
10065.7273
20
8751.1222
30
0.0
0
VERTEX
8
LOT
10
10063.6645
20
8866.1037
30
0.0
0
SEQEND
0
POLYLINE
8
LOT-CURVE
66
1
70
0
0
VERTEX
8
LOT-CURVE
10
10063.6645
20
8866.1037
30
0.0
0
VERTEX
8
LOT-CURVE
10
10063.7409
20
8868.5559
30
0.0
0
VERTEX
8
LOT-CURVE
10
10064.0573
20
8870.9888
30
0.0
0
VERTEX
8
LOT-CURVE
10
10064.6106
20
8873.3790
30
0.0
0
VERTEX
8
LOT-CURVE
10
10065.3956
20
8875.7034
30
0.0
0
VERTEX
8
LOT-CURVE
10
10066.4046
20
8877.9397
30
0.0
0
VERTEX
8
LOT-CURVE
10
10067.6279
20
8880.0663
30
0.0
0
VERTEX
8
LOT-CURVE
10
10069.0538
20
8882.0628
30
0.0
0
VERTEX
8
LOT-CURVE
10
10070.6686
20
8883.9099
30
0.0
0
VERTEX
8
LOT-CURVE
10
10072.4566
20
8885.5898
30
0.0
0
VERTEX
8
LOT-CURVE
10
10074.4006
20
8887.0864
30
0.0
0
VERTEX
8
LOT-CURVE
10
10076.4820
20
8888.3853
30
0.0
0
VERTEX
8
LOT-CURVE
10
10078.6806
20
8889.4738
30
0.0
0
VERTEX
8
LOT-CURVE
10
10080.9754
20
8890.3416
30
0.0
0
VERTEX
8
LOT-CURVE
10
10083.3442
20
8890.9804
30
0.0
0
VERTEX
8
LOT-CURVE
10
10085.7642
20
8891.3838
30
0.0
0
VERTEX
8
LOT-CURVE
10
10088.2120
20
8891.5481
30
0.0
0
SEQEND
0
POLYLINE
8
LOT
66
1
70
0
0
VERTEX
8
LOT
10
10088.2120
20
8891.5481
30
0.0
0
VERTEX
8
LOT
10
10160.2113
20
8884.0164
30
0.0
0
SEQEND
0
POLYLINE
8
LOT
66
1
70
0
0
VERTEX
8
LOT
10
10160.2113
20
8884.0164
30
0.0
0
VERTEX
8
LOT
10
10154.0036
20
8768.6521
30
0.0
0
SEQEND
0
POLYLINE
8
LOT
66
1
70
0
0
VERTEX
8
LOT
10
10154.0036
20
8768.6521
30
0.0
0
VERTEX
8
LOT
10
10065.7273
20
8751.1222
30
0.0
0
SEQEND
0
TEXT
8
LOT-TEXT
7
STANDARD
10
10106.3637
20
8832.2885
30
0.0
40
6.0
1
27
50
0.0
72
1
11
10106.3637
21
8832.2885
31
0.0
73
2
0
POLYLINE
8
LOT
66
1
70
0
0
VERTEX
8
LOT
10
10154.0036
20
8768.6521
30
0.0
0
VERTEX
8
LOT
10
10160.2113
20
8884.0164
30
0.0
0
SEQEND
0
POLYLINE
8
LOT
66
1
70
0
0
VERTEX
8
LOT
10
10160.2113
20
8884.0164
30
0.0
0
VERTEX
8
LOT
10
10259.5040
20
8840.8999
30
0.0
0
SEQEND
0
POLYLINE
8
LOT
66
1
70
0
0
VERTEX
8
LOT
10
10259.5040
20
8840.8999
30
0.0
0
VERTEX
8
LOT
10
10214.0835
20
8738.3036
30
0.0
0
SEQEND
0
POLYLINE
8
LOT
66
1
70
0
0
VERTEX
8
LOT
10
10214.0835
20
8738.3036
30
0.0
0
VERTEX
8
LOT
10
10154.0036
20
8768.6521
30
0.0
0
SEQEND
0
TEXT
8
LOT-TEXT
7
STANDARD
10
10196.9506
20
8807.9680
30
0.0
40
6.0
1
28
50
0.0
72
1
11
10196.9506
21
8807.9680
31
0.0
73
2
0
POLYLINE
8
LOT
66
1
70
0
0
VERTEX
8
LOT
10
10214.0835
20
8738.3036
30
0.0
0
VERTEX
8
LOT
10
10259.5040
20
8840.8999
30
0.0
0
SEQEND
0
POLYLINE
8
LOT
66
1
70
0
0
VERTEX
8
LOT
10
10259.5040
20
8840.8999
30
0.0
0
VERTEX
8
LOT
10
10265.1892
20
8836.9723
30
0.0
0
SEQEND
0
POLYLINE
8
LOT
66
1
70
0
0
VERTEX
8
LOT
10
10265.1892
20
8836.9723
30
0.0
0
VERTEX
8
LOT
10
10332.5730
20
8789.2520
30
0.0
0
SEQEND
0
POLYLINE
8
LOT
66
1
70
0
0
VERTEX
8
LOT
10
10332.5730
20
8789.2520
30
0.0
0
VERTEX
8
LOT
10
10274.7793
20
8707.6439
30
0.0
0
SEQEND
0
POLYLINE
8
LOT
66
1
70
0
0
VERTEX
8
LOT
10
10274.7793
20
8707.6439
30
0.0
0
VERTEX
8
LOT
10
10214.0835
20
8738.3036
30
0.0
0
SEQEND
0
TEXT
8
LOT-TEXT
7
STANDARD
10
10269.2258
20
8782.6143
30
0.0
40
6.0
1
29
50
0.0
72
1
11
10269.2258
21
8782.6143
31
0.0
73
2
0
POLYLINE
8
LOT
66
1
70
0
0
VERTEX
8
LOT
10
10274.7793
20
8707.6439
30
0.0
0
VERTEX
8
LOT
10
10332.5730
20
8789.2520
30
0.0
0
SEQEND
0
POLYLINE
8
LOT
66
1
70
0
0
VERTEX
8
LOT
10
10332.5730
20
8789.2520
30
0.0
0
VERTEX
8
LOT
10
10393.7791
20
8745.9068
30
0.0
0
SEQEND
0
POLYLINE
8
LOT
66
1
70
0
0
VERTEX
8
LOT
10
10393.7791
20
8745.9068
30
0.0
0
VERTEX
8
LOT
10
10335.9855
20
8664.2986
30
0.0
0
SEQEND
0
POLYLINE
8
LOT
66
1
70
0
0
VERTEX
8
LOT
10
10335.9855
20
8664.2986
30
0.0
0
VERTEX
8
LOT
10
10274.7793
20
8707.6439
30
0.0
0
SEQEND
0
TEXT
8
LOT-TEXT
7
STANDARD
10
10334.2792
20
8726.7753
30
0.0
40
6.0
1
30
50
0.0
72
1
11
10334.2792
21
8726.7753
31
0.0
73
2
0
POLYLINE
8
LOT
66
1
70
0
0
VERTEX
8
LOT
10
10335.9855
20
8664.2986
30
0.0
0
VERTEX
8
LOT
10
10393.7791
20
8745.9068
30
0.0
0
SEQEND
0
POLYLINE
8
LOT
66
1
70
0
0
VERTEX
8
LOT
10
10393.7791
20
8745.9068
30
0.0
0
VERTEX
8
LOT
10
10454.9853
20
8702.5615
30
0.0
0
SEQEND
0
POLYLINE
8
LOT
66
1
70
0
0
VERTEX
8
LOT
10
10454.9853
20
8702.5615
30
0.0
0
VERTEX
8
LOT
10
10397.1916
20
8620.9534
30
0.0
0
SEQEND
0
POLYLINE
8
LOT
66
1
70
0
0
VERTEX
8
LOT
10
10397.1916
20
8620.9534
30
0.0
0
VERTEX
8
LOT
10
10335.9855
20
8664.2986
30
0.0
0
SEQEND
0
TEXT
8
LOT-TEXT
7
STANDARD
10
10395.4854
20
8683.4301
30
0.0
40
6.0
1
31
50
0.0
72
1
11
10395.4854
21
8683.4301
31
0.0
73
2
0
POLYLINE
8
LOT
66
1
70
0
0
VERTEX
8
LOT
10
10065.7273
20
8751.1222
30
0.0
0
VERTEX
8
LOT
10
10154.0036
20
8768.6521
30
0.0
0
SEQEND
0
POLYLINE
8
LOT
66
1
70
0
0
VERTEX
8
LOT
10
10154.0036
20
8768.6521
30
0.0
0
VERTEX
8
LOT
10
10180.7811
20
8755.1258
30
0.0
0
SEQEND
0
POLYLINE
8
LOT
66
1
70
0
0
VERTEX
8
LOT
10
10180.7811
20
8755.1258
30
0.0
0
VERTEX
8
LOT
10
10160.2912
20
8636.1269
30
0.0
0
SEQEND
0
POLYLINE
8
LOT
66
1
70
0
0
VERTEX
8
LOT
10
10160.2912
20
8636.1269
30
0.0
0
VERTEX
8
LOT
10
10092.6907
20
8642.6031
30
0.0
0
SEQEND
0
POLYLINE
8
LOT-CURVE
66
1
70
0
0
VERTEX
8
LOT-CURVE
10
10092.6907
20
8642.6031
30
0.0
0
VERTEX
8
LOT-CURVE
10
10090.3969
20
8642.6526
30
0.0
0
VERTEX
8
LOT-CURVE
10
10088.1173
20
8642.9123
30
0.0
0
VERTEX
8
LOT-CURVE
10
10085.8710
20
8643.3799
30
0.0
0
VERTEX
8
LOT-CURVE
10
10083.6771
20
8644.0514
30
0.0
0
VERTEX
8
LOT-CURVE
10
10081.5541
20
8644.9212
30
0.0
0
VERTEX
8
LOT-CURVE
10
10079.5196
20
8645.9820
30
0.0
0
VERTEX
8
LOT-CURVE
10
10077.5911
20
8647.2248
30
0.0
0
VERTEX
8
LOT-CURVE
10
10075.7845
20
8648.6393
30
0.0
0
VERTEX
8
LOT-CURVE
10
10074.1153
20
8650.2133
30
0.0
0
VERTEX
8
LOT-CURVE
10
10072.5974
20
8651.9338
30
0.0
0
VERTEX
8
LOT-CURVE
10
10071.2436
20
8653.7862
30
0.0
0
VERTEX
8
LOT-CURVE
10
10070.0653
20
8655.7549
30
0.0
0
VERTEX
8
LOT-CURVE
10
10069.0725
20
8657.8234
30
0.0
0
VERTEX
8
LOT-CURVE
10
10068.2735
20
8659.9741
30
0.0
0
VERTEX
8
LOT-CURVE
10
10067.6751
20
8662.1891
30
0.0
0
VERTEX
8
LOT-CURVE
10
10067.2822
20
8664.4495
30
0.0
0
SEQEND
0
POLYLINE
8
LOT
66
1
70
0
0
VERTEX
8
LOT
10
10067.2822
20
8664.4495
30
0.0
0
VERTEX
8
LOT
10
10065.7273
20
8751.1222
30
0.0
0
SEQEND
0
TEXT
8
LOT-TEXT
7
STANDARD
10
10120.1293
20
8703.0133
30
0.0
40
6.0
1
26
50
0.0
72
1
11
10120.1293
21
8703.0133
31
0.0
73
2
0
POLYLINE
8
LOT
66
1
70
0
0
VERTEX
8
LOT
10
10160.2912
20
8636.1269
30
0.0
0
VERTEX
8
LOT
10
10180.7811
20
8755.1258
30
0.0
0
SEQEND
0
POLYLINE
8
LOT
66
1
70
0
0
VERTEX
8
LOT
10
10180.7811
20
8755.1258
30
0.0
0
VERTEX
8
LOT
10
10254.2499
20
8718.0141
30
0.0
0
SEQEND
0
POLYLINE
8
LOT
66
1
70
0
0
VERTEX
8
LOT
10
10254.2499
20
8718.0141
30
0.0
0
VERTEX
8
LOT
10
10223.1222
20
8615.3408
30
0.0
0
SEQEND
0
POLYLINE
8
LOT
66
1
70
0
0
VERTEX
8
LOT
10
10223.1222
20
8615.3408
30
0.0
0
VERTEX
8
LOT
10
10160.2912
20
8636.1269
30
0.0
0
SEQEND
0
TEXT
8
LOT-TEXT
7
STANDARD
10
10204.6111
20
8681.1519
30
0.0
40
6.0
1
25
50
0.0
72
1
11
10204.6111
21
8681.1519
31
0.0
73
2
0
POLYLINE
8
LOT
66
1
70
0
0
VERTEX
8
LOT
10
10223.1222
20
8615.3408
30
0.0
0
VERTEX
8
LOT
10
10254.2499
20
8718.0141
30
0.0
0
SEQEND
0
POLYLINE
8
LOT
66
1
70
0
0
VERTEX
8
LOT
10
10254.2499
20
8718.0141
30
0.0
0
VERTEX
8
LOT
10
10274.7793
20
8707.6439
30
0.0
0
SEQEND
0
POLYLINE
8
LOT
66
1
70
0
0
VERTEX
8
LOT
10
10274.7793
20
8707.6439
30
0.0
0
VERTEX
8
LOT
10
10335.9855
20
8664.2986
30
0.0
0
SEQEND
0
POLYLINE
8
LOT
66
1
70
0
0
VERTEX
8
LOT
10
10335.9855
20
8664.2986
30
0.0
0
VERTEX
8
LOT
10
10278.2069
20
8582.6816
30
0.0
0
SEQEND
0
POLYLINE
8
LOT
66
1
70
0
0
VERTEX
8
LOT
10
10278.2069
20
8582.6816
30
0.0
0
VERTEX
8
LOT
10
10271.4253
20
8587.4842
30
0.0
0
SEQEND
0
POLYLINE
8
LOT
66
1
70
0
0
VERTEX
8
LOT
10
10271.4253
20
8587.4842
30
0.0
0
VERTEX
8
LOT
10
10223.1222
20
8615.3408
30
0.0
0
SEQEND
0
TEXT
8
LOT-TEXT
7
STANDARD
10
10272.9615
20
8645.9105
30
0.0
40
6.0
1
24
50
0.0
72
1
11
10272.9615
21
8645.9105
31
0.0
73
2
0
POLYLINE
8
LOT
66
1
70
0
0
VERTEX
8
LOT
10
10278.2069
20
8582.6816
30
0.0
0
VERTEX
8
LOT
10
10335.9855
20
8664.2986
30
0.0
0
SEQEND
0
POLYLINE
8
LOT
66
1
70
0
0
VERTEX
8
LOT
10
10335.9855
20
8664.2986
30
0.0
0
VERTEX
8
LOT
10
10397.1916
20
8620.9534
30
0.0
0
SEQEND
0
POLYLINE
8
LOT
66
1
70
0
0
VERTEX
8
LOT
10
10397.1916
20
8620.9534
30
0.0
0
VERTEX
8
LOT
10
10339.3979
20
8539.3452
30
0.0
0
SEQEND
0
POLYLINE
8
LOT
66
1
70
0
0
VERTEX
8
LOT
10
10339.3979
20
8539.3452
30
0.0
0
VERTEX
8
LOT
10
10278.2069
20
8582.6816
30
0.0
0
SEQEND
0
TEXT
8
LOT-TEXT
7
STANDARD
10
10337.6955
20
8601.8197
30
0.0
40
6.0
1
23
50
0.0
72
1
11
10337.6955
21
8601.8197
31
0.0
73
2
0
TEXT
8
BLOCK-TEXT
7
STANDARD
10
10248.6336
20
8718.3302
30
0.0
40
14.0
1
(9)
50
0.0
72
1
11
10248.6336
21
8718.3302
31
0.0
73
2
0
TEXT
8
TITLEBLOCK
7
STANDARD
10
10632.6129
20
10300.6589
30
0.0
40
20.0
1
BEACHWOOD UNIT TWO  --  PLAT BOOK 30, PAGES 82 & 82A, DUVAL COUNTY, FL (1960)
50
0.0
72
1
11
10632.6129
21
10300.6589
31
0.0
73
2
0
TEXT
8
TITLEBLOCK
7
STANDARD
10
10632.6129
20
10270.6589
30
0.0
40
9.0
1
Full plat composed from street network + 8 block solvers (115 lots). Not placed: BLOCK_14, BLOCK_10, BLOCK_6, BLOCK_7, BLOCK_8
50
0.0
72
1
11
10632.6129
21
10270.6589
31
0.0
73
2
0
ENDSEC
0
EOF
