0
SECTION
2
HEADER
9
$ACADVER
1
AC1009
9
$DWGCODEPAGE
3
ANSI_1252
0
ENDSEC
0
SECTION
2
TABLES
0
TABLE
2
LTYPE
70
6
0
LTYPE
2
CONTINUOUS
70
0
3
Solid
72
65
73
0
40
0.0
0
LTYPE
2
DASHED
70
0
3
Dashed
72
65
73
2
40
0.75
49
0.5
74
0
49
-0.25
74
0
0
LTYPE
2
DASHED2
70
0
3
Dashed (.5x)
72
65
73
2
40
0.375
49
0.25
74
0
49
-0.125
74
0
0
LTYPE
2
HIDDEN
70
0
3
Hidden
72
65
73
2
40
0.375
49
0.25
74
0
49
-0.125
74
0
0
LTYPE
2
CENTER
70
0
3
Center
72
65
73
4
40
2.0
49
1.25
74
0
49
-0.25
74
0
49
0.25
74
0
49
-0.25
74
0
0
LTYPE
2
PHANTOM
70
0
3
Phantom
72
65
73
6
40
2.5
49
1.25
74
0
49
-0.25
74
0
49
0.25
74
0
49
-0.25
74
0
49
0.25
74
0
49
-0.25
74
0
0
ENDTAB
0
TABLE
2
LAYER
70
7
0
LAYER
2
0
70
0
62
7
6
CONTINUOUS
0
LAYER
2
BOUNDARY
70
0
62
7
6
CONTINUOUS
0
LAYER
2
PARCEL
70
0
62
4
6
CONTINUOUS
0
LAYER
2
PARCEL-FLAGGED
70
0
62
1
6
CONTINUOUS
0
LAYER
2
RR-ROW
70
0
62
2
6
DASHDOT
0
LAYER
2
TEXT-LABELS
70
0
62
7
6
CONTINUOUS
0
LAYER
2
TITLEBLOCK
70
0
62
2
6
CONTINUOUS
0
ENDTAB
0
TABLE
2
STYLE
70
4
0
STYLE
2
STANDARD
70
0
40
0.0
41
1.0
50
0.0
71
0
42
0.2
3
Arial
4

0
STYLE
2
ARIAL
70
0
40
0.0
41
1.0
50
0.0
71
0
42
0.2
3
Arial
4

0
STYLE
2
ARIAL_TTF
70
0
40
0.0
41
1.0
50
0.0
71
0
42
0.2
3
arial.ttf
4

0
STYLE
2
SIMPLEX
70
0
40
0.0
41
1.0
50
0.0
71
0
42
0.2
3
simplex.shx
4

0
ENDTAB
0
ENDSEC
0
SECTION
2
ENTITIES
0
POLYLINE
8
BOUNDARY
66
1
70
1
0
VERTEX
8
BOUNDARY
10
0.0000
20
0.0000
30
0.0
0
VERTEX
8
BOUNDARY
10
1320.0000
20
0.0000
30
0.0
0
VERTEX
8
BOUNDARY
10
1308.9984
20
-1332.9546
30
0.0
0
VERTEX
8
BOUNDARY
10
0.0000
20
-1335.0000
30
0.0
0
SEQEND
0
POLYLINE
8
PARCEL
66
1
70
1
0
VERTEX
8
PARCEL
10
0.0000
20
0.0000
30
0.0
0
VERTEX
8
PARCEL
10
451.3000
20
0.0000
30
0.0
0
VERTEX
8
PARCEL
10
451.3000
20
-321.0000
30
0.0
0
VERTEX
8
PARCEL
10
0.0000
20
-321.0000
30
0.0
0
SEQEND
0
POLYLINE
8
PARCEL
66
1
70
1
0
VERTEX
8
PARCEL
10
451.3000
20
0.0000
30
0.0
0
VERTEX
8
PARCEL
10
902.6000
20
0.0000
30
0.0
0
VERTEX
8
PARCEL
10
902.6000
20
-321.0000
30
0.0
0
VERTEX
8
PARCEL
10
451.3000
20
-321.0000
30
0.0
0
SEQEND
0
POLYLINE
8
PARCEL
66
1
70
1
0
VERTEX
8
PARCEL
10
902.6000
20
0.0000
30
0.0
0
VERTEX
8
PARCEL
10
1320.0000
20
0.0000
30
0.0
0
VERTEX
8
PARCEL
10
1316.5551
20
-417.3858
30
0.0
0
VERTEX
8
PARCEL
10
902.6000
20
-417.4000
30
0.0
0
SEQEND
0
POLYLINE
8
PARCEL
66
1
70
1
0
VERTEX
8
PARCEL
10
902.6000
20
-417.4000
30
0.0
0
VERTEX
8
PARCEL
10
1316.5551
20
-417.3858
30
0.0
0
VERTEX
8
PARCEL
10
1313.9718
20
-730.3751
30
0.0
0
VERTEX
8
PARCEL
10
902.6000
20
-729.0000
30
0.0
0
SEQEND
0
POLYLINE
8
PARCEL
66
1
70
1
0
VERTEX
8
PARCEL
10
570.0000
20
-321.0000
30
0.0
0
VERTEX
8
PARCEL
10
902.6000
20
-321.0000
30
0.0
0
VERTEX
8
PARCEL
10
902.6000
20
-729.0000
30
0.0
0
VERTEX
8
PARCEL
10
570.0000
20
-729.0000
30
0.0
0
SEQEND
0
POLYLINE
8
PARCEL
66
1
70
1
0
VERTEX
8
PARCEL
10
0.0000
20
-321.0000
30
0.0
0
VERTEX
8
PARCEL
10
570.0000
20
-321.0000
30
0.0
0
VERTEX
8
PARCEL
10
570.0000
20
-979.7000
30
0.0
0
VERTEX
8
PARCEL
10
558.2019
20
-981.5897
30
0.0
0
VERTEX
8
PARCEL
10
546.3997
20
-983.4532
30
0.0
0
VERTEX
8
PARCEL
10
534.5933
20
-985.2905
30
0.0
0
VERTEX
8
PARCEL
10
522.7829
20
-987.1015
30
0.0
0
VERTEX
8
PARCEL
10
510.9685
20
-988.8863
30
0.0
0
VERTEX
8
PARCEL
10
499.1501
20
-990.6448
30
0.0
0
VERTEX
8
PARCEL
10
487.3279
20
-992.3771
30
0.0
0
VERTEX
8
PARCEL
10
475.5018
20
-994.0831
30
0.0
0
VERTEX
8
PARCEL
10
463.6720
20
-995.7628
30
0.0
0
VERTEX
8
PARCEL
10
451.8385
20
-997.4163
30
0.0
0
VERTEX
8
PARCEL
10
440.0014
20
-999.0434
30
0.0
0
VERTEX
8
PARCEL
10
428.1606
20
-1000.6443
30
0.0
0
VERTEX
8
PARCEL
10
416.3164
20
-1002.2188
30
0.0
0
VERTEX
8
PARCEL
10
404.4686
20
-1003.7670
30
0.0
0
VERTEX
8
PARCEL
10
392.6175
20
-1005.2889
30
0.0
0
VERTEX
8
PARCEL
10
380.7630
20
-1006.7845
30
0.0
0
VERTEX
8
PARCEL
10
368.9052
20
-1008.2537
30
0.0
0
VERTEX
8
PARCEL
10
357.0442
20
-1009.6966
30
0.0
0
VERTEX
8
PARCEL
10
345.1800
20
-1011.1131
30
0.0
0
VERTEX
8
PARCEL
10
333.3126
20
-1012.5032
30
0.0
0
VERTEX
8
PARCEL
10
321.4423
20
-1013.8670
30
0.0
0
VERTEX
8
PARCEL
10
309.5689
20
-1015.2044
30
0.0
0
VERTEX
8
PARCEL
10
297.6925
20
-1016.5154
30
0.0
0
VERTEX
8
PARCEL
10
285.8133
20
-1017.8001
30
0.0
0
VERTEX
8
PARCEL
10
273.9313
20
-1019.0583
30
0.0
0
VERTEX
8
PARCEL
10
262.0465
20
-1020.2901
30
0.0
0
VERTEX
8
PARCEL
10
250.1590
20
-1021.4956
30
0.0
0
VERTEX
8
PARCEL
10
238.2689
20
-1022.6746
30
0.0
0
VERTEX
8
PARCEL
10
226.3761
20
-1023.8272
30
0.0
0
VERTEX
8
PARCEL
10
214.4808
20
-1024.9533
30
0.0
0
VERTEX
8
PARCEL
10
202.5831
20
-1026.0531
30
0.0
0
VERTEX
8
PARCEL
10
190.6829
20
-1027.1264
30
0.0
0
VERTEX
8
PARCEL
10
178.7804
20
-1028.1732
30
0.0
0
VERTEX
8
PARCEL
10
166.8756
20
-1029.1937
30
0.0
0
VERTEX
8
PARCEL
10
154.9685
20
-1030.1876
30
0.0
0
VERTEX
8
PARCEL
10
143.0593
20
-1031.1551
30
0.0
0
VERTEX
8
PARCEL
10
131.1480
20
-1032.0962
30
0.0
0
VERTEX
8
PARCEL
10
119.2345
20
-1033.0108
30
0.0
0
VERTEX
8
PARCEL
10
107.3191
20
-1033.8989
30
0.0
0
VERTEX
8
PARCEL
10
95.4018
20
-1034.7605
30
0.0
0
VERTEX
8
PARCEL
10
83.4825
20
-1035.5957
30
0.0
0
VERTEX
8
PARCEL
10
71.5615
20
-1036.4043
30
0.0
0
VERTEX
8
PARCEL
10
59.6386
20
-1037.1865
30
0.0
0
VERTEX
8
PARCEL
10
47.7141
20
-1037.9422
30
0.0
0
VERTEX
8
PARCEL
10
35.7879
20
-1038.6714
30
0.0
0
VERTEX
8
PARCEL
10
23.8601
20
-1039.3741
30
0.0
0
VERTEX
8
PARCEL
10
11.9308
20
-1040.0503
30
0.0
0
VERTEX
8
PARCEL
10
0.0000
20
-1040.7000
30
0.0
0
SEQEND
0
POLYLINE
8
PARCEL
66
1
70
1
0
VERTEX
8
PARCEL
10
570.0000
20
-729.0000
30
0.0
0
VERTEX
8
PARCEL
10
902.6000
20
-729.0000
30
0.0
0
VERTEX
8
PARCEL
10
1313.9718
20
-730.3751
30
0.0
0
VERTEX
8
PARCEL
10
1313.3569
20
-804.8726
30
0.0
0
VERTEX
8
PARCEL
10
1298.1482
20
-809.5866
30
0.0
0
VERTEX
8
PARCEL
10
1282.9256
20
-814.2556
30
0.0
0
VERTEX
8
PARCEL
10
1267.6893
20
-818.8794
30
0.0
0
VERTEX
8
PARCEL
10
1252.4393
20
-823.4582
30
0.0
0
VERTEX
8
PARCEL
10
1237.1758
20
-827.9917
30
0.0
0
VERTEX
8
PARCEL
10
1221.8990
20
-832.4801
30
0.0
0
VERTEX
8
PARCEL
10
1206.6089
20
-836.9232
30
0.0
0
VERTEX
8
PARCEL
10
1191.3058
20
-841.3210
30
0.0
0
VERTEX
8
PARCEL
10
1175.9897
20
-845.6735
30
0.0
0
VERTEX
8
PARCEL
10
1160.6608
20
-849.9807
30
0.0
0
VERTEX
8
PARCEL
10
1145.3192
20
-854.2424
30
0.0
0
VERTEX
8
PARCEL
10
1129.9650
20
-858.4587
30
0.0
0
VERTEX
8
PARCEL
10
1114.5984
20
-862.6295
30
0.0
0
VERTEX
8
PARCEL
10
1099.2196
20
-866.7548
30
0.0
0
VERTEX
8
PARCEL
10
1083.8286
20
-870.8345
30
0.0
0
VERTEX
8
PARCEL
10
1068.4256
20
-874.8687
30
0.0
0
VERTEX
8
PARCEL
10
1053.0107
20
-878.8572
30
0.0
0
VERTEX
8
PARCEL
10
1037.5841
20
-882.8001
30
0.0
0
VERTEX
8
PARCEL
10
1022.1459
20
-886.6973
30
0.0
0
VERTEX
8
PARCEL
10
1006.6962
20
-890.5488
30
0.0
0
VERTEX
8
PARCEL
10
991.2352
20
-894.3545
30
0.0
0
VERTEX
8
PARCEL
10
975.7629
20
-898.1144
30
0.0
0
VERTEX
8
PARCEL
10
960.2796
20
-901.8285
30
0.0
0
VERTEX
8
PARCEL
10
944.7854
20
-905.4968
30
0.0
0
VERTEX
8
PARCEL
10
929.2804
20
-909.1191
30
0.0
0
VERTEX
8
PARCEL
10
913.7647
20
-912.6956
30
0.0
0
VERTEX
8
PARCEL
10
898.2385
20
-916.2261
30
0.0
0
VERTEX
8
PARCEL
10
882.7019
20
-919.7106
30
0.0
0
VERTEX
8
PARCEL
10
867.1551
20
-923.1490
30
0.0
0
VERTEX
8
PARCEL
10
851.5982
20
-926.5415
30
0.0
0
VERTEX
8
PARCEL
10
836.0313
20
-929.8879
30
0.0
0
VERTEX
8
PARCEL
10
820.4545
20
-933.1881
30
0.0
0
VERTEX
8
PARCEL
10
804.8681
20
-936.4422
30
0.0
0
VERTEX
8
PARCEL
10
789.2720
20
-939.6502
30
0.0
0
VERTEX
8
PARCEL
10
773.6666
20
-942.8120
30
0.0
0
VERTEX
8
PARCEL
10
758.0518
20
-945.9276
30
0.0
0
VERTEX
8
PARCEL
10
742.4279
20
-948.9969
30
0.0
0
VERTEX
8
PARCEL
10
726.7950
20
-952.0200
30
0.0
0
VERTEX
8
PARCEL
10
711.1532
20
-954.9967
30
0.0
0
VERTEX
8
PARCEL
10
695.5027
20
-957.9271
30
0.0
0
VERTEX
8
PARCEL
10
679.8435
20
-960.8112
30
0.0
0
VERTEX
8
PARCEL
10
664.1759
20
-963.6489
30
0.0
0
VERTEX
8
PARCEL
10
648.5000
20
-966.4403
30
0.0
0
VERTEX
8
PARCEL
10
632.8158
20
-969.1851
30
0.0
0
VERTEX
8
PARCEL
10
617.1236
20
-971.8836
30
0.0
0
VERTEX
8
PARCEL
10
601.4235
20
-974.5356
30
0.0
0
VERTEX
8
PARCEL
10
585.7156
20
-977.1410
30
0.0
0
VERTEX
8
PARCEL
10
570.0000
20
-979.7000
30
0.0
0
SEQEND
0
POLYLINE
8
PARCEL
66
1
70
1
0
VERTEX
8
PARCEL
10
0.0000
20
-1117.1388
30
0.0
0
VERTEX
8
PARCEL
10
11.6808
20
-1117.3402
30
0.0
0
VERTEX
8
PARCEL
10
23.3622
20
-1117.4996
30
0.0
0
VERTEX
8
PARCEL
10
35.0442
20
-1117.6170
30
0.0
0
VERTEX
8
PARCEL
10
46.7265
20
-1117.6923
30
0.0
0
VERTEX
8
PARCEL
10
58.4090
20
-1117.7256
30
0.0
0
VERTEX
8
PARCEL
10
70.0915
20
-1117.7170
30
0.0
0
VERTEX
8
PARCEL
10
81.7739
20
-1117.6663
30
0.0
0
VERTEX
8
PARCEL
10
93.4561
20
-1117.5736
30
0.0
0
VERTEX
8
PARCEL
10
105.1378
20
-1117.4389
30
0.0
0
VERTEX
8
PARCEL
10
116.8190
20
-1117.2622
30
0.0
0
VERTEX
8
PARCEL
10
128.4995
20
-1117.0435
30
0.0
0
VERTEX
8
PARCEL
10
140.1791
20
-1116.7828
30
0.0
0
VERTEX
8
PARCEL
10
151.8578
20
-1116.4801
30
0.0
0
VERTEX
8
PARCEL
10
163.5352
20
-1116.1354
30
0.0
0
VERTEX
8
PARCEL
10
175.2113
20
-1115.7487
30
0.0
0
VERTEX
8
PARCEL
10
186.8860
20
-1115.3200
30
0.0
0
VERTEX
8
PARCEL
10
198.5590
20
-1114.8493
30
0.0
0
VERTEX
8
PARCEL
10
210.2303
20
-1114.3367
30
0.0
0
VERTEX
8
PARCEL
10
221.8997
20
-1113.7821
30
0.0
0
VERTEX
8
PARCEL
10
233.5670
20
-1113.1855
30
0.0
0
VERTEX
8
PARCEL
10
245.2321
20
-1112.5470
30
0.0
0
VERTEX
8
PARCEL
10
256.8948
20
-1111.8666
30
0.0
0
VERTEX
8
PARCEL
10
268.5549
20
-1111.1442
30
0.0
0
VERTEX
8
PARCEL
10
280.2124
20
-1110.3798
30
0.0
0
VERTEX
8
PARCEL
10
291.8671
20
-1109.5736
30
0.0
0
VERTEX
8
PARCEL
10
303.5188
20
-1108.7255
30
0.0
0
VERTEX
8
PARCEL
10
315.1674
20
-1107.8354
30
0.0
0
VERTEX
8
PARCEL
10
326.8127
20
-1106.9035
30
0.0
0
VERTEX
8
PARCEL
10
338.4546
20
-1105.9297
30
0.0
0
VERTEX
8
PARCEL
10
350.0929
20
-1104.9141
30
0.0
0
VERTEX
8
PARCEL
10
361.7275
20
-1103.8566
30
0.0
0
VERTEX
8
PARCEL
10
373.3581
20
-1102.7573
30
0.0
0
VERTEX
8
PARCEL
10
384.9848
20
-1101.6162
30
0.0
0
VERTEX
8
PARCEL
10
396.6073
20
-1100.4332
30
0.0
0
VERTEX
8
PARCEL
10
408.2255
20
-1099.2085
30
0.0
0
VERTEX
8
PARCEL
10
419.8391
20
-1097.9420
30
0.0
0
VERTEX
8
PARCEL
10
431.4482
20
-1096.6337
30
0.0
0
VERTEX
8
PARCEL
10
443.0525
20
-1095.2837
30
0.0
0
VERTEX
8
PARCEL
10
454.6518
20
-1093.8920
30
0.0
0
VERTEX
8
PARCEL
10
466.2461
20
-1092.4586
30
0.0
0
VERTEX
8
PARCEL
10
477.8351
20
-1090.9835
30
0.0
0
VERTEX
8
PARCEL
10
489.4188
20
-1089.4668
30
0.0
0
VERTEX
8
PARCEL
10
500.9969
20
-1087.9083
30
0.0
0
VERTEX
8
PARCEL
10
512.5693
20
-1086.3083
30
0.0
0
VERTEX
8
PARCEL
10
524.1359
20
-1084.6667
30
0.0
0
VERTEX
8
PARCEL
10
535.6966
20
-1082.9835
30
0.0
0
VERTEX
8
PARCEL
10
547.2511
20
-1081.2587
30
0.0
0
VERTEX
8
PARCEL
10
558.7993
20
-1079.4924
30
0.0
0
VERTEX
8
PARCEL
10
558.7993
20
-1334.1268
30
0.0
0
VERTEX
8
PARCEL
10
0.0000
20
-1335.0000
30
0.0
0
SEQEND
0
POLYLINE
8
PARCEL
66
1
70
1
0
VERTEX
8
PARCEL
10
558.7993
20
-1079.4924
30
0.0
0
VERTEX
8
PARCEL
10
567.4091
20
-1078.1478
30
0.0
0
VERTEX
8
PARCEL
10
576.0152
20
-1076.7802
30
0.0
0
VERTEX
8
PARCEL
10
584.6176
20
-1075.3895
30
0.0
0
VERTEX
8
PARCEL
10
593.2162
20
-1073.9757
30
0.0
0
VERTEX
8
PARCEL
10
601.8110
20
-1072.5388
30
0.0
0
VERTEX
8
PARCEL
10
610.4020
20
-1071.0789
30
0.0
0
VERTEX
8
PARCEL
10
618.9890
20
-1069.5960
30
0.0
0
VERTEX
8
PARCEL
10
627.5719
20
-1068.0900
30
0.0
0
VERTEX
8
PARCEL
10
636.1508
20
-1066.5611
30
0.0
0
VERTEX
8
PARCEL
10
644.7256
20
-1065.0091
30
0.0
0
VERTEX
8
PARCEL
10
653.2962
20
-1063.4341
30
0.0
0
VERTEX
8
PARCEL
10
661.8625
20
-1061.8361
30
0.0
0
VERTEX
8
PARCEL
10
670.4245
20
-1060.2152
30
0.0
0
VERTEX
8
PARCEL
10
678.9822
20
-1058.5713
30
0.0
0
VERTEX
8
PARCEL
10
687.5354
20
-1056.9045
30
0.0
0
VERTEX
8
PARCEL
10
696.0841
20
-1055.2147
30
0.0
0
VERTEX
8
PARCEL
10
704.6282
20
-1053.5020
30
0.0
0
VERTEX
8
PARCEL
10
713.1677
20
-1051.7664
30
0.0
0
VERTEX
8
PARCEL
10
721.7025
20
-1050.0079
30
0.0
0
VERTEX
8
PARCEL
10
730.2326
20
-1048.2265
30
0.0
0
VERTEX
8
PARCEL
10
738.7578
20
-1046.4222
30
0.0
0
VERTEX
8
PARCEL
10
747.2782
20
-1044.5951
30
0.0
0
VERTEX
8
PARCEL
10
755.7937
20
-1042.7451
30
0.0
0
VERTEX
8
PARCEL
10
764.3041
20
-1040.8723
30
0.0
0
VERTEX
8
PARCEL
10
772.8096
20
-1038.9767
30
0.0
0
VERTEX
8
PARCEL
10
781.3098
20
-1037.0582
30
0.0
0
VERTEX
8
PARCEL
10
789.8050
20
-1035.1170
30
0.0
0
VERTEX
8
PARCEL
10
798.2948
20
-1033.1530
30
0.0
0
VERTEX
8
PARCEL
10
806.7794
20
-1031.1662
30
0.0
0
VERTEX
8
PARCEL
10
815.2587
20
-1029.1567
30
0.0
0
VERTEX
8
PARCEL
10
823.7325
20
-1027.1244
30
0.0
0
VERTEX
8
PARCEL
10
832.2008
20
-1025.0694
30
0.0
0
VERTEX
8
PARCEL
10
840.6636
20
-1022.9917
30
0.0
0
VERTEX
8
PARCEL
10
849.1207
20
-1020.8913
30
0.0
0
VERTEX
8
PARCEL
10
857.5722
20
-1018.7682
30
0.0
0
VERTEX
8
PARCEL
10
866.0180
20
-1016.6225
30
0.0
0
VERTEX
8
PARCEL
10
874.4580
20
-1014.4541
30
0.0
0
VERTEX
8
PARCEL
10
882.8922
20
-1012.2631
30
0.0
0
VERTEX
8
PARCEL
10
891.3204
20
-1010.0495
30
0.0
0
VERTEX
8
PARCEL
10
899.7427
20
-1007.8133
30
0.0
0
VERTEX
8
PARCEL
10
908.1590
20
-1005.5545
30
0.0
0
VERTEX
8
PARCEL
10
916.5691
20
-1003.2731
30
0.0
0
VERTEX
8
PARCEL
10
924.9731
20
-1000.9692
30
0.0
0
VERTEX
8
PARCEL
10
933.3709
20
-998.6427
30
0.0
0
VERTEX
8
PARCEL
10
941.7625
20
-996.2938
30
0.0
0
VERTEX
8
PARCEL
10
950.1477
20
-993.9223
30
0.0
0
VERTEX
8
PARCEL
10
958.5265
20
-991.5283
30
0.0
0
VERTEX
8
PARCEL
10
966.8988
20
-989.1119
30
0.0
0
VERTEX
8
PARCEL
10
966.8988
20
-1333.4892
30
0.0
0
VERTEX
8
PARCEL
10
558.7993
20
-1334.1268
30
0.0
0
SEQEND
0
POLYLINE
8
PARCEL-FLAGGED
66
1
70
1
0
VERTEX
8
PARCEL-FLAGGED
10
966.8988
20
-989.1119
30
0.0
0
VERTEX
8
PARCEL-FLAGGED
10
974.2393
20
-986.9733
30
0.0
0
VERTEX
8
PARCEL-FLAGGED
10
981.5746
20
-984.8174
30
0.0
0
VERTEX
8
PARCEL-FLAGGED
10
988.9049
20
-982.6443
30
0.0
0
VERTEX
8
PARCEL-FLAGGED
10
996.2301
20
-980.4539
30
0.0
0
VERTEX
8
PARCEL-FLAGGED
10
1003.5500
20
-978.2462
30
0.0
0
VERTEX
8
PARCEL-FLAGGED
10
1010.8648
20
-976.0214
30
0.0
0
VERTEX
8
PARCEL-FLAGGED
10
1018.1743
20
-973.7793
30
0.0
0
VERTEX
8
PARCEL-FLAGGED
10
1025.4785
20
-971.5201
30
0.0
0
VERTEX
8
PARCEL-FLAGGED
10
1032.7774
20
-969.2436
30
0.0
0
VERTEX
8
PARCEL-FLAGGED
10
1040.0709
20
-966.9500
30
0.0
0
VERTEX
8
PARCEL-FLAGGED
10
1047.3589
20
-964.6392
30
0.0
0
VERTEX
8
PARCEL-FLAGGED
10
1054.6416
20
-962.3113
30
0.0
0
VERTEX
8
PARCEL-FLAGGED
10
1061.9187
20
-959.9663
30
0.0
0
VERTEX
8
PARCEL-FLAGGED
10
1069.1903
20
-957.6041
30
0.0
0
VERTEX
8
PARCEL-FLAGGED
10
1076.4562
20
-955.2249
30
0.0
0
VERTEX
8
PARCEL-FLAGGED
10
1083.7166
20
-952.8285
30
0.0
0
VERTEX
8
PARCEL-FLAGGED
10
1090.9713
20
-950.4150
30
0.0
0
VERTEX
8
PARCEL-FLAGGED
10
1098.2204
20
-947.9845
30
0.0
0
VERTEX
8
PARCEL-FLAGGED
10
1105.4636
20
-945.5370
30
0.0
0
VERTEX
8
PARCEL-FLAGGED
10
1112.7011
20
-943.0724
30
0.0
0
VERTEX
8
PARCEL-FLAGGED
10
1119.9328
20
-940.5907
30
0.0
0
VERTEX
8
PARCEL-FLAGGED
10
1127.1586
20
-938.0921
30
0.0
0
VERTEX
8
PARCEL-FLAGGED
10
1134.3786
20
-935.5764
30
0.0
0
VERTEX
8
PARCEL-FLAGGED
10
1141.5925
20
-933.0438
30
0.0
0
VERTEX
8
PARCEL-FLAGGED
10
1148.8005
20
-930.4942
30
0.0
0
VERTEX
8
PARCEL-FLAGGED
10
1156.0025
20
-927.9277
30
0.0
0
VERTEX
8
PARCEL-FLAGGED
10
1163.1984
20
-925.3442
30
0.0
0
VERTEX
8
PARCEL-FLAGGED
10
1170.3882
20
-922.7438
30
0.0
0
VERTEX
8
PARCEL-FLAGGED
10
1177.5719
20
-920.1264
30
0.0
0
VERTEX
8
PARCEL-FLAGGED
10
1184.7494
20
-917.4922
30
0.0
0
VERTEX
8
PARCEL-FLAGGED
10
1191.9207
20
-914.8411
30
0.0
0
VERTEX
8
PARCEL-FLAGGED
10
1199.0857
20
-912.1731
30
0.0
0
VERTEX
8
PARCEL-FLAGGED
10
1206.2444
20
-909.4882
30
0.0
0
VERTEX
8
PARCEL-FLAGGED
10
1213.3968
20
-906.7865
30
0.0
0
VERTEX
8
PARCEL-FLAGGED
10
1220.5428
20
-904.0680
30
0.0
0
VERTEX
8
PARCEL-FLAGGED
10
1227.6824
20
-901.3327
30
0.0
0
VERTEX
8
PARCEL-FLAGGED
10
1234.8155
20
-898.5806
30
0.0
0
VERTEX
8
PARCEL-FLAGGED
10
1241.9422
20
-895.8117
30
0.0
0
VERTEX
8
PARCEL-FLAGGED
10
1249.0623
20
-893.0261
30
0.0
0
VERTEX
8
PARCEL-FLAGGED
10
1256.1758
20
-890.2236
30
0.0
0
VERTEX
8
PARCEL-FLAGGED
10
1263.2827
20
-887.4045
30
0.0
0
VERTEX
8
PARCEL-FLAGGED
10
1270.3829
20
-884.5686
30
0.0
0
VERTEX
8
PARCEL-FLAGGED
10
1277.4765
20
-881.7161
30
0.0
0
VERTEX
8
PARCEL-FLAGGED
10
1284.5633
20
-878.8468
30
0.0
0
VERTEX
8
PARCEL-FLAGGED
10
1291.6434
20
-875.9609
30
0.0
0
VERTEX
8
PARCEL-FLAGGED
10
1298.7166
20
-873.0584
30
0.0
0
VERTEX
8
PARCEL-FLAGGED
10
1305.7830
20
-870.1391
30
0.0
0
VERTEX
8
PARCEL-FLAGGED
10
1312.8425
20
-867.2033
30
0.0
0
VERTEX
8
PARCEL-FLAGGED
10
1308.9984
20
-1332.9546
30
0.0
0
VERTEX
8
PARCEL-FLAGGED
10
966.8988
20
-1333.4892
30
0.0
0
SEQEND
0
POLYLINE
8
RR-ROW
66
1
70
0
0
VERTEX
8
RR-ROW
10
-0.0000
20
-1040.7000
30
0.0
0
VERTEX
8
RR-ROW
10
27.8275
20
-1039.1433
30
0.0
0
VERTEX
8
RR-ROW
10
55.6465
20
-1037.4425
30
0.0
0
VERTEX
8
RR-ROW
10
83.4563
20
-1035.5975
30
0.0
0
VERTEX
8
RR-ROW
10
111.2562
20
-1033.6084
30
0.0
0
VERTEX
8
RR-ROW
10
139.0455
20
-1031.4752
30
0.0
0
VERTEX
8
RR-ROW
10
166.8233
20
-1029.1981
30
0.0
0
VERTEX
8
RR-ROW
10
194.5889
20
-1026.7770
30
0.0
0
VERTEX
8
RR-ROW
10
222.3416
20
-1024.2121
30
0.0
0
VERTEX
8
RR-ROW
10
250.0806
20
-1021.5034
30
0.0
0
VERTEX
8
RR-ROW
10
277.8052
20
-1018.6510
30
0.0
0
VERTEX
8
RR-ROW
10
305.5147
20
-1015.6549
30
0.0
0
VERTEX
8
RR-ROW
10
333.2083
20
-1012.5153
30
0.0
0
VERTEX
8
RR-ROW
10
360.8852
20
-1009.2322
30
0.0
0
VERTEX
8
RR-ROW
10
388.5448
20
-1005.8057
30
0.0
0
VERTEX
8
RR-ROW
10
416.1862
20
-1002.2360
30
0.0
0
VERTEX
8
RR-ROW
10
443.8087
20
-998.5230
30
0.0
0
VERTEX
8
RR-ROW
10
471.4116
20
-994.6669
30
0.0
0
VERTEX
8
RR-ROW
10
498.9942
20
-990.6679
30
0.0
0
VERTEX
8
RR-ROW
10
526.5557
20
-986.5259
30
0.0
0
VERTEX
8
RR-ROW
10
554.0954
20
-982.2412
30
0.0
0
VERTEX
8
RR-ROW
10
581.6124
20
-977.8138
30
0.0
0
VERTEX
8
RR-ROW
10
609.1062
20
-973.2438
30
0.0
0
VERTEX
8
RR-ROW
10
636.5759
20
-968.5315
30
0.0
0
VERTEX
8
RR-ROW
10
664.0208
20
-963.6768
30
0.0
0
VERTEX
8
RR-ROW
10
691.4402
20
-958.6800
30
0.0
0
VERTEX
8
RR-ROW
10
718.8333
20
-953.5411
30
0.0
0
VERTEX
8
RR-ROW
10
746.1994
20
-948.2604
30
0.0
0
VERTEX
8
RR-ROW
10
773.5378
20
-942.8379
30
0.0
0
VERTEX
8
RR-ROW
10
800.8478
20
-937.2738
30
0.0
0
VERTEX
8
RR-ROW
10
828.1285
20
-931.5682
30
0.0
0
VERTEX
8
RR-ROW
10
855.3793
20
-925.7214
30
0.0
0
VERTEX
8
RR-ROW
10
882.5994
20
-919.7334
30
0.0
0
VERTEX
8
RR-ROW
10
909.7881
20
-913.6044
30
0.0
0
VERTEX
8
RR-ROW
10
936.9447
20
-907.3346
30
0.0
0
VERTEX
8
RR-ROW
10
964.0685
20
-900.9242
30
0.0
0
VERTEX
8
RR-ROW
10
991.1586
20
-894.3732
30
0.0
0
VERTEX
8
RR-ROW
10
1018.2145
20
-887.6820
30
0.0
0
VERTEX
8
RR-ROW
10
1045.2353
20
-880.8507
30
0.0
0
VERTEX
8
RR-ROW
10
1072.2203
20
-873.8794
30
0.0
0
VERTEX
8
RR-ROW
10
1099.1688
20
-866.7683
30
0.0
0
VERTEX
8
RR-ROW
10
1126.0802
20
-859.5177
30
0.0
0
VERTEX
8
RR-ROW
10
1152.9536
20
-852.1277
30
0.0
0
VERTEX
8
RR-ROW
10
1179.7883
20
-844.5986
30
0.0
0
VERTEX
8
RR-ROW
10
1206.5837
20
-836.9305
30
0.0
0
VERTEX
8
RR-ROW
10
1233.3389
20
-829.1236
30
0.0
0
VERTEX
8
RR-ROW
10
1260.0534
20
-821.1782
30
0.0
0
VERTEX
8
RR-ROW
10
1286.7263
20
-813.0945
30
0.0
0
VERTEX
8
RR-ROW
10
1313.3569
20
-804.8726
30
0.0
0
SEQEND
0
POLYLINE
8
RR-ROW
66
1
70
0
0
VERTEX
8
RR-ROW
10
0.0000
20
-1117.1388
30
0.0
0
VERTEX
8
RR-ROW
10
28.0391
20
-1117.5516
30
0.0
0
VERTEX
8
RR-ROW
10
56.0808
20
-1117.7224
30
0.0
0
VERTEX
8
RR-ROW
10
84.1229
20
-1117.6510
30
0.0
0
VERTEX
8
RR-ROW
10
112.1633
20
-1117.3377
30
0.0
0
VERTEX
8
RR-ROW
10
140.2000
20
-1116.7823
30
0.0
0
VERTEX
8
RR-ROW
10
168.2309
20
-1115.9849
30
0.0
0
VERTEX
8
RR-ROW
10
196.2538
20
-1114.9456
30
0.0
0
VERTEX
8
RR-ROW
10
224.2667
20
-1113.6645
30
0.0
0
VERTEX
8
RR-ROW
10
252.2675
20
-1112.1416
30
0.0
0
VERTEX
8
RR-ROW
10
280.2541
20
-1110.3770
30
0.0
0
VERTEX
8
RR-ROW
10
308.2244
20
-1108.3710
30
0.0
0
VERTEX
8
RR-ROW
10
336.1764
20
-1106.1236
30
0.0
0
VERTEX
8
RR-ROW
10
364.1079
20
-1103.6350
30
0.0
0
VERTEX
8
RR-ROW
10
392.0170
20
-1100.9055
30
0.0
0
VERTEX
8
RR-ROW
10
419.9014
20
-1097.9351
30
0.0
0
VERTEX
8
RR-ROW
10
447.7591
20
-1094.7241
30
0.0
0
VERTEX
8
RR-ROW
10
475.5881
20
-1091.2728
30
0.0
0
VERTEX
8
RR-ROW
10
503.3863
20
-1087.5815
30
0.0
0
VERTEX
8
RR-ROW
10
531.1515
20
-1083.6503
30
0.0
0
VERTEX
8
RR-ROW
10
558.8818
20
-1079.4796
30
0.0
0
VERTEX
8
RR-ROW
10
586.5751
20
-1075.0697
30
0.0
0
VERTEX
8
RR-ROW
10
614.2292
20
-1070.4209
30
0.0
0
VERTEX
8
RR-ROW
10
641.8422
20
-1065.5336
30
0.0
0
VERTEX
8
RR-ROW
10
669.4120
20
-1060.4081
30
0.0
0
VERTEX
8
RR-ROW
10
696.9366
20
-1055.0449
30
0.0
0
VERTEX
8
RR-ROW
10
724.4138
20
-1049.4443
30
0.0
0
VERTEX
8
RR-ROW
10
751.8416
20
-1043.6067
30
0.0
0
VERTEX
8
RR-ROW
10
779.2180
20
-1037.5325
30
0.0
0
VERTEX
8
RR-ROW
10
806.5410
20
-1031.2223
30
0.0
0
VERTEX
8
RR-ROW
10
833.8085
20
-1024.6765
30
0.0
0
VERTEX
8
RR-ROW
10
861.0185
20
-1017.8956
30
0.0
0
VERTEX
8
RR-ROW
10
888.1689
20
-1010.8801
30
0.0
0
VERTEX
8
RR-ROW
10
915.2578
20
-1003.6304
30
0.0
0
VERTEX
8
RR-ROW
10
942.2831
20
-996.1472
30
0.0
0
VERTEX
8
RR-ROW
10
969.2428
20
-988.4311
30
0.0
0
VERTEX
8
RR-ROW
10
996.1348
20
-980.4825
30
0.0
0
VERTEX
8
RR-ROW
10
1022.9573
20
-972.3020
30
0.0
0
VERTEX
8
RR-ROW
10
1049.7082
20
-963.8904
30
0.0
0
VERTEX
8
RR-ROW
10
1076.3854
20
-955.2481
30
0.0
0
VERTEX
8
RR-ROW
10
1102.9871
20
-946.3760
30
0.0
0
VERTEX
8
RR-ROW
10
1129.5112
20
-937.2745
30
0.0
0
VERTEX
8
RR-ROW
10
1155.9557
20
-927.9444
30
0.0
0
VERTEX
8
RR-ROW
10
1182.3187
20
-918.3864
30
0.0
0
VERTEX
8
RR-ROW
10
1208.5983
20
-908.6012
30
0.0
0
VERTEX
8
RR-ROW
10
1234.7923
20
-898.5896
30
0.0
0
VERTEX
8
RR-ROW
10
1260.8990
20
-888.3522
30
0.0
0
VERTEX
8
RR-ROW
10
1286.9164
20
-877.8898
30
0.0
0
VERTEX
8
RR-ROW
10
1312.8425
20
-867.2033
30
0.0
0
SEQEND
0
TEXT
8
TEXT-LABELS
7
STANDARD
10
225.6500
20
-145.5000
30
0.0
40
12
1
LOUISA NEWMAN
50
0.0
72
1
11
225.6500
21
-145.5000
31
0.0
73
2
0
TEXT
8
TEXT-LABELS
7
STANDARD
10
225.6500
20
-175.5000
30
0.0
40
8
1
3.32A stated / 3.33A calc
50
0.0
72
1
11
225.6500
21
-175.5000
31
0.0
73
2
0
TEXT
8
TEXT-LABELS
7
STANDARD
10
676.9500
20
-145.5000
30
0.0
40
12
1
WILLIAM HICKS
50
0.0
72
1
11
676.9500
21
-145.5000
31
0.0
73
2
0
TEXT
8
TEXT-LABELS
7
STANDARD
10
676.9500
20
-175.5000
30
0.0
40
8
1
3.32A stated / 3.33A calc
50
0.0
72
1
11
676.9500
21
-175.5000
31
0.0
73
2
0
TEXT
8
TEXT-LABELS
7
STANDARD
10
1110.4388
20
-193.6964
30
0.0
40
12
1
MARGENA ROBERSON (N)
50
0.0
72
1
11
1110.4388
21
-193.6964
31
0.0
73
2
0
TEXT
8
TEXT-LABELS
7
STANDARD
10
1110.4388
20
-223.6964
30
0.0
40
8
1
4.0A stated / 3.98A calc
50
0.0
72
1
11
1110.4388
21
-223.6964
31
0.0
73
2
0
TEXT
8
TEXT-LABELS
7
STANDARD
10
1108.9317
20
-558.5402
30
0.0
40
12
1
MARGENA ROBERSON (S)
50
0.0
72
1
11
1108.9317
21
-558.5402
31
0.0
73
2
0
TEXT
8
TEXT-LABELS
7
STANDARD
10
1108.9317
20
-588.5402
30
0.0
40
8
1
3.0A stated / 2.96A calc
50
0.0
72
1
11
1108.9317
21
-588.5402
31
0.0
73
2
0
TEXT
8
TEXT-LABELS
7
STANDARD
10
736.3000
20
-510.0000
30
0.0
40
12
1
LEVI HICKS
50
0.0
72
1
11
736.3000
21
-510.0000
31
0.0
73
2
0
TEXT
8
TEXT-LABELS
7
STANDARD
10
736.3000
20
-540.0000
30
0.0
40
8
1
3.07A stated / 3.12A calc
50
0.0
72
1
11
736.3000
21
-540.0000
31
0.0
73
2
0
TEXT
8
TEXT-LABELS
7
STANDARD
10
285.5101
20
-972.9389
30
0.0
40
12
1
EDWARD HICKS
50
0.0
72
1
11
285.5101
21
-972.9389
31
0.0
73
2
0
TEXT
8
TEXT-LABELS
7
STANDARD
10
285.5101
20
-1002.9389
30
0.0
40
8
1
9.0A stated / 9.09A calc
50
0.0
72
1
11
285.5101
21
-1002.9389
31
0.0
73
2
0
TEXT
8
TEXT-LABELS
7
STANDARD
10
942.8498
20
-876.0177
30
0.0
40
12
1
WILSON HICKS
50
0.0
72
1
11
942.8498
21
-876.0177
31
0.0
73
2
0
TEXT
8
TEXT-LABELS
7
STANDARD
10
942.8498
20
-906.0177
30
0.0
40
8
1
2.97A stated / 2.94A calc
50
0.0
72
1
11
942.8498
21
-906.0177
31
0.0
73
2
0
TEXT
8
TEXT-LABELS
7
STANDARD
10
279.9093
20
-1100.1457
30
0.0
40
12
1
FRANK HICKS
50
0.0
72
1
11
279.9093
21
-1100.1457
31
0.0
73
2
0
TEXT
8
TEXT-LABELS
7
STANDARD
10
279.9093
20
-1130.1457
30
0.0
40
8
1
3.0A stated / 2.93A calc
50
0.0
72
1
11
279.9093
21
-1130.1457
31
0.0
73
2
0
TEXT
8
TEXT-LABELS
7
STANDARD
10
763.7616
20
-1035.1678
30
0.0
40
12
1
RICHARD HICKS (W)
50
0.0
72
1
11
763.7616
21
-1035.1678
31
0.0
73
2
0
TEXT
8
TEXT-LABELS
7
STANDARD
10
763.7616
20
-1065.1678
30
0.0
40
8
1
2.8A stated / 2.76A calc
50
0.0
72
1
11
763.7616
21
-1065.1678
31
0.0
73
2
0
TEXT
8
TEXT-LABELS
7
STANDARD
10
1140.8751
20
-932.1069
30
0.0
40
12
1
RICHARD HICKS (E)
50
0.0
72
1
11
1140.8751
21
-932.1069
31
0.0
73
2
0
TEXT
8
TEXT-LABELS
7
STANDARD
10
1140.8751
20
-962.1069
30
0.0
40
8
1
3.0A stated / 3.17A calc
50
0.0
72
1
11
1140.8751
21
-962.1069
31
0.0
73
2
0
TEXT
8
TEXT-LABELS
7
STANDARD
10
656.6785
20
-1018.9194
30
0.0
40
9
1
A.C.L. R.R. (fitted, no curve data on plat)
50
0.0
72
1
11
656.6785
21
-1018.9194
31
0.0
73
2
0
TEXT
8
TITLEBLOCK
7
STANDARD
10
660.0000
20
120.0000
30
0.0
40
18
1
HICKS SUBDIVISION  NW1/4 NE1/4 SEC 12 T2S R25E  PB 4 FOLIO 85 (1912)
50
0.0
72
1
11
660.0000
21
120.0000
31
0.0
73
2
0
TEXT
8
TITLEBLOCK
7
STANDARD
10
660.0000
20
80.0000
30
0.0
40
10
1
NO BEARINGS ON PLAT - ORIENTATION ASSUMED CARDINAL
50
0.0
72
1
11
660.0000
21
80.0000
31
0.0
73
2
0
ENDSEC
0
EOF
