0
SECTION
2
HEADER
9
$ACADVER
1
AC1009
9
$DWGCODEPAGE
3
ANSI_1252
0
ENDSEC
0
SECTION
2
TABLES
0
TABLE
2
LTYPE
70
6
0
LTYPE
2
CONTINUOUS
70
0
3
Solid
72
65
73
0
40
0.0
0
LTYPE
2
DASHED
70
0
3
Dashed
72
65
73
2
40
0.75
49
0.5
74
0
49
-0.25
74
0
0
LTYPE
2
DASHED2
70
0
3
Dashed (.5x)
72
65
73
2
40
0.375
49
0.25
74
0
49
-0.125
74
0
0
LTYPE
2
HIDDEN
70
0
3
Hidden
72
65
73
2
40
0.375
49
0.25
74
0
49
-0.125
74
0
0
LTYPE
2
CENTER
70
0
3
Center
72
65
73
4
40
2.0
49
1.25
74
0
49
-0.25
74
0
49
0.25
74
0
49
-0.25
74
0
0
LTYPE
2
PHANTOM
70
0
3
Phantom
72
65
73
6
40
2.5
49
1.25
74
0
49
-0.25
74
0
49
0.25
74
0
49
-0.25
74
0
49
0.25
74
0
49
-0.25
74
0
0
ENDTAB
0
TABLE
2
LAYER
70
7
0
LAYER
2
0
70
0
62
7
6
CONTINUOUS
0
LAYER
2
BOUNDARY
70
0
62
7
6
CONTINUOUS
0
LAYER
2
PARCEL
70
0
62
4
6
CONTINUOUS
0
LAYER
2
PARCEL-FLAGGED
70
0
62
1
6
CONTINUOUS
0
LAYER
2
RR-ROW
70
0
62
2
6
DASHDOT
0
LAYER
2
TEXT-LABELS
70
0
62
7
6
CONTINUOUS
0
LAYER
2
TITLEBLOCK
70
0
62
2
6
CONTINUOUS
0
ENDTAB
0
TABLE
2
STYLE
70
4
0
STYLE
2
STANDARD
70
0
40
0.0
41
1.0
50
0.0
71
0
42
0.2
3
Arial
4

0
STYLE
2
ARIAL
70
0
40
0.0
41
1.0
50
0.0
71
0
42
0.2
3
Arial
4

0
STYLE
2
ARIAL_TTF
70
0
40
0.0
41
1.0
50
0.0
71
0
42
0.2
3
arial.ttf
4

0
STYLE
2
SIMPLEX
70
0
40
0.0
41
1.0
50
0.0
71
0
42
0.2
3
simplex.shx
4

0
ENDTAB
0
ENDSEC
0
SECTION
2
ENTITIES
0
POLYLINE
8
BOUNDARY
66
1
70
1
0
VERTEX
8
BOUNDARY
10
0.0000
20
0.0000
30
0.0
0
VERTEX
8
BOUNDARY
10
1320.0000
20
0.0000
30
0.0
0
VERTEX
8
BOUNDARY
10
1308.9984
20
-1332.9546
30
0.0
0
VERTEX
8
BOUNDARY
10
0.0000
20
-1335.0000
30
0.0
0
SEQEND
0
POLYLINE
8
PARCEL
66
1
70
1
0
VERTEX
8
PARCEL
10
0.0000
20
0.0000
30
0.0
0
VERTEX
8
PARCEL
10
451.3000
20
0.0000
30
0.0
0
VERTEX
8
PARCEL
10
451.3000
20
-321.0000
30
0.0
0
VERTEX
8
PARCEL
10
0.0000
20
-321.0000
30
0.0
0
SEQEND
0
POLYLINE
8
PARCEL
66
1
70
1
0
VERTEX
8
PARCEL
10
451.3000
20
0.0000
30
0.0
0
VERTEX
8
PARCEL
10
902.6000
20
0.0000
30
0.0
0
VERTEX
8
PARCEL
10
902.6000
20
-321.0000
30
0.0
0
VERTEX
8
PARCEL
10
451.3000
20
-321.0000
30
0.0
0
SEQEND
0
POLYLINE
8
PARCEL
66
1
70
1
0
VERTEX
8
PARCEL
10
902.6000
20
0.0000
30
0.0
0
VERTEX
8
PARCEL
10
1320.0000
20
0.0000
30
0.0
0
VERTEX
8
PARCEL
10
1316.5551
20
-417.3858
30
0.0
0
VERTEX
8
PARCEL
10
902.6000
20
-417.4000
30
0.0
0
SEQEND
0
POLYLINE
8
PARCEL
66
1
70
1
0
VERTEX
8
PARCEL
10
902.6000
20
-417.4000
30
0.0
0
VERTEX
8
PARCEL
10
1316.5551
20
-417.3858
30
0.0
0
VERTEX
8
PARCEL
10
1313.9718
20
-730.3751
30
0.0
0
VERTEX
8
PARCEL
10
902.6000
20
-729.0000
30
0.0
0
SEQEND
0
POLYLINE
8
PARCEL
66
1
70
1
0
VERTEX
8
PARCEL
10
570.0000
20
-321.0000
30
0.0
0
VERTEX
8
PARCEL
10
902.6000
20
-321.0000
30
0.0
0
VERTEX
8
PARCEL
10
902.6000
20
-729.0000
30
0.0
0
VERTEX
8
PARCEL
10
570.0000
20
-729.0000
30
0.0
0
SEQEND
0
POLYLINE
8
PARCEL
66
1
70
1
0
VERTEX
8
PARCEL
10
0.0000
20
-321.0000
30
0.0
0
VERTEX
8
PARCEL
10
570.0000
20
-321.0000
30
0.0
0
VERTEX
8
PARCEL
10
570.0000
20
-977.5662
30
0.0
0
VERTEX
8
PARCEL
10
558.1985
20
-979.4759
30
0.0
0
VERTEX
8
PARCEL
10
546.3931
20
-981.3614
30
0.0
0
VERTEX
8
PARCEL
10
534.5839
20
-983.2227
30
0.0
0
VERTEX
8
PARCEL
10
522.7709
20
-985.0598
30
0.0
0
VERTEX
8
PARCEL
10
510.9541
20
-986.8726
30
0.0
0
VERTEX
8
PARCEL
10
499.1336
20
-988.6612
30
0.0
0
VERTEX
8
PARCEL
10
487.3095
20
-990.4256
30
0.0
0
VERTEX
8
PARCEL
10
475.4818
20
-992.1657
30
0.0
0
VERTEX
8
PARCEL
10
463.6506
20
-993.8816
30
0.0
0
VERTEX
8
PARCEL
10
451.8159
20
-995.5731
30
0.0
0
VERTEX
8
PARCEL
10
439.9777
20
-997.2404
30
0.0
0
VERTEX
8
PARCEL
10
428.1361
20
-998.8835
30
0.0
0
VERTEX
8
PARCEL
10
416.2912
20
-1000.5022
30
0.0
0
VERTEX
8
PARCEL
10
404.4430
20
-1002.0966
30
0.0
0
VERTEX
8
PARCEL
10
392.5915
20
-1003.6668
30
0.0
0
VERTEX
8
PARCEL
10
380.7369
20
-1005.2126
30
0.0
0
VERTEX
8
PARCEL
10
368.8791
20
-1006.7341
30
0.0
0
VERTEX
8
PARCEL
10
357.0182
20
-1008.2313
30
0.0
0
VERTEX
8
PARCEL
10
345.1543
20
-1009.7042
30
0.0
0
VERTEX
8
PARCEL
10
333.2873
20
-1011.1527
30
0.0
0
VERTEX
8
PARCEL
10
321.4175
20
-1012.5769
30
0.0
0
VERTEX
8
PARCEL
10
309.5447
20
-1013.9768
30
0.0
0
VERTEX
8
PARCEL
10
297.6691
20
-1015.3523
30
0.0
0
VERTEX
8
PARCEL
10
285.7907
20
-1016.7034
30
0.0
0
VERTEX
8
PARCEL
10
273.9095
20
-1018.0302
30
0.0
0
VERTEX
8
PARCEL
10
262.0256
20
-1019.3326
30
0.0
0
VERTEX
8
PARCEL
10
250.1391
20
-1020.6107
30
0.0
0
VERTEX
8
PARCEL
10
238.2500
20
-1021.8643
30
0.0
0
VERTEX
8
PARCEL
10
226.3584
20
-1023.0936
30
0.0
0
VERTEX
8
PARCEL
10
214.4643
20
-1024.2985
30
0.0
0
VERTEX
8
PARCEL
10
202.5677
20
-1025.4790
30
0.0
0
VERTEX
8
PARCEL
10
190.6687
20
-1026.6351
30
0.0
0
VERTEX
8
PARCEL
10
178.7674
20
-1027.7668
30
0.0
0
VERTEX
8
PARCEL
10
166.8637
20
-1028.8741
30
0.0
0
VERTEX
8
PARCEL
10
154.9579
20
-1029.9569
30
0.0
0
VERTEX
8
PARCEL
10
143.0498
20
-1031.0154
30
0.0
0
VERTEX
8
PARCEL
10
131.1396
20
-1032.0494
30
0.0
0
VERTEX
8
PARCEL
10
119.2273
20
-1033.0590
30
0.0
0
VERTEX
8
PARCEL
10
107.3129
20
-1034.0442
30
0.0
0
VERTEX
8
PARCEL
10
95.3966
20
-1035.0049
30
0.0
0
VERTEX
8
PARCEL
10
83.4783
20
-1035.9412
30
0.0
0
VERTEX
8
PARCEL
10
71.5581
20
-1036.8530
30
0.0
0
VERTEX
8
PARCEL
10
59.6361
20
-1037.7404
30
0.0
0
VERTEX
8
PARCEL
10
47.7123
20
-1038.6034
30
0.0
0
VERTEX
8
PARCEL
10
35.7867
20
-1039.4419
30
0.0
0
VERTEX
8
PARCEL
10
23.8594
20
-1040.2559
30
0.0
0
VERTEX
8
PARCEL
10
11.9305
20
-1041.0455
30
0.0
0
VERTEX
8
PARCEL
10
0.0000
20
-1041.8106
30
0.0
0
SEQEND
0
POLYLINE
8
PARCEL
66
1
70
1
0
VERTEX
8
PARCEL
10
570.0000
20
-729.0000
30
0.0
0
VERTEX
8
PARCEL
10
902.6000
20
-729.0000
30
0.0
0
VERTEX
8
PARCEL
10
1313.9718
20
-730.3751
30
0.0
0
VERTEX
8
PARCEL
10
1313.3483
20
-805.9171
30
0.0
0
VERTEX
8
PARCEL
10
1298.1120
20
-810.4813
30
0.0
0
VERTEX
8
PARCEL
10
1282.8632
20
-815.0039
30
0.0
0
VERTEX
8
PARCEL
10
1267.6022
20
-819.4849
30
0.0
0
VERTEX
8
PARCEL
10
1252.3290
20
-823.9242
30
0.0
0
VERTEX
8
PARCEL
10
1237.0437
20
-828.3219
30
0.0
0
VERTEX
8
PARCEL
10
1221.7465
20
-832.6778
30
0.0
0
VERTEX
8
PARCEL
10
1206.4375
20
-836.9920
30
0.0
0
VERTEX
8
PARCEL
10
1191.1168
20
-841.2644
30
0.0
0
VERTEX
8
PARCEL
10
1175.7844
20
-845.4950
30
0.0
0
VERTEX
8
PARCEL
10
1160.4406
20
-849.6837
30
0.0
0
VERTEX
8
PARCEL
10
1145.0854
20
-853.8305
30
0.0
0
VERTEX
8
PARCEL
10
1129.7189
20
-857.9355
30
0.0
0
VERTEX
8
PARCEL
10
1114.3413
20
-861.9985
30
0.0
0
VERTEX
8
PARCEL
10
1098.9527
20
-866.0195
30
0.0
0
VERTEX
8
PARCEL
10
1083.5532
20
-869.9985
30
0.0
0
VERTEX
8
PARCEL
10
1068.1428
20
-873.9355
30
0.0
0
VERTEX
8
PARCEL
10
1052.7218
20
-877.8305
30
0.0
0
VERTEX
8
PARCEL
10
1037.2902
20
-881.6833
30
0.0
0
VERTEX
8
PARCEL
10
1021.8482
20
-885.4940
30
0.0
0
VERTEX
8
PARCEL
10
1006.3958
20
-889.2626
30
0.0
0
VERTEX
8
PARCEL
10
990.9332
20
-892.9890
30
0.0
0
VERTEX
8
PARCEL
10
975.4604
20
-896.6732
30
0.0
0
VERTEX
8
PARCEL
10
959.9777
20
-900.3152
30
0.0
0
VERTEX
8
PARCEL
10
944.4851
20
-903.9149
30
0.0
0
VERTEX
8
PARCEL
10
928.9828
20
-907.4723
30
0.0
0
VERTEX
8
PARCEL
10
913.4708
20
-910.9875
30
0.0
0
VERTEX
8
PARCEL
10
897.9492
20
-914.4603
30
0.0
0
VERTEX
8
PARCEL
10
882.4183
20
-917.8907
30
0.0
0
VERTEX
8
PARCEL
10
866.8780
20
-921.2787
30
0.0
0
VERTEX
8
PARCEL
10
851.3286
20
-924.6244
30
0.0
0
VERTEX
8
PARCEL
10
835.7701
20
-927.9275
30
0.0
0
VERTEX
8
PARCEL
10
820.2026
20
-931.1883
30
0.0
0
VERTEX
8
PARCEL
10
804.6263
20
-934.4065
30
0.0
0
VERTEX
8
PARCEL
10
789.0412
20
-937.5822
30
0.0
0
VERTEX
8
PARCEL
10
773.4476
20
-940.7154
30
0.0
0
VERTEX
8
PARCEL
10
757.8455
20
-943.8061
30
0.0
0
VERTEX
8
PARCEL
10
742.2350
20
-946.8541
30
0.0
0
VERTEX
8
PARCEL
10
726.6162
20
-949.8596
30
0.0
0
VERTEX
8
PARCEL
10
710.9893
20
-952.8224
30
0.0
0
VERTEX
8
PARCEL
10
695.3544
20
-955.7426
30
0.0
0
VERTEX
8
PARCEL
10
679.7115
20
-958.6201
30
0.0
0
VERTEX
8
PARCEL
10
664.0609
20
-961.4549
30
0.0
0
VERTEX
8
PARCEL
10
648.4026
20
-964.2471
30
0.0
0
VERTEX
8
PARCEL
10
632.7367
20
-966.9964
30
0.0
0
VERTEX
8
PARCEL
10
617.0634
20
-969.7031
30
0.0
0
VERTEX
8
PARCEL
10
601.3828
20
-972.3669
30
0.0
0
VERTEX
8
PARCEL
10
585.6949
20
-974.9880
30
0.0
0
VERTEX
8
PARCEL
10
570.0000
20
-977.5662
30
0.0
0
SEQEND
0
POLYLINE
8
PARCEL
66
1
70
1
0
VERTEX
8
PARCEL
10
0.0000
20
-1131.8222
30
0.0
0
VERTEX
8
PARCEL
10
11.6930
20
-1131.0840
30
0.0
0
VERTEX
8
PARCEL
10
23.3845
20
-1130.3226
30
0.0
0
VERTEX
8
PARCEL
10
35.0745
20
-1129.5381
30
0.0
0
VERTEX
8
PARCEL
10
46.7629
20
-1128.7305
30
0.0
0
VERTEX
8
PARCEL
10
58.4497
20
-1127.8997
30
0.0
0
VERTEX
8
PARCEL
10
70.1348
20
-1127.0458
30
0.0
0
VERTEX
8
PARCEL
10
81.8182
20
-1126.1688
30
0.0
0
VERTEX
8
PARCEL
10
93.4999
20
-1125.2687
30
0.0
0
VERTEX
8
PARCEL
10
105.1797
20
-1124.3454
30
0.0
0
VERTEX
8
PARCEL
10
116.8577
20
-1123.3990
30
0.0
0
VERTEX
8
PARCEL
10
128.5338
20
-1122.4295
30
0.0
0
VERTEX
8
PARCEL
10
140.2080
20
-1121.4369
30
0.0
0
VERTEX
8
PARCEL
10
151.8802
20
-1120.4212
30
0.0
0
VERTEX
8
PARCEL
10
163.5503
20
-1119.3824
30
0.0
0
VERTEX
8
PARCEL
10
175.2184
20
-1118.3205
30
0.0
0
VERTEX
8
PARCEL
10
186.8843
20
-1117.2355
30
0.0
0
VERTEX
8
PARCEL
10
198.5481
20
-1116.1274
30
0.0
0
VERTEX
8
PARCEL
10
210.2096
20
-1114.9962
30
0.0
0
VERTEX
8
PARCEL
10
221.8689
20
-1113.8420
30
0.0
0
VERTEX
8
PARCEL
10
233.5259
20
-1112.6646
30
0.0
0
VERTEX
8
PARCEL
10
245.1805
20
-1111.4642
30
0.0
0
VERTEX
8
PARCEL
10
256.8327
20
-1110.2408
30
0.0
0
VERTEX
8
PARCEL
10
268.4825
20
-1108.9942
30
0.0
0
VERTEX
8
PARCEL
10
280.1298
20
-1107.7247
30
0.0
0
VERTEX
8
PARCEL
10
291.7746
20
-1106.4320
30
0.0
0
VERTEX
8
PARCEL
10
303.4167
20
-1105.1164
30
0.0
0
VERTEX
8
PARCEL
10
315.0563
20
-1103.7776
30
0.0
0
VERTEX
8
PARCEL
10
326.6932
20
-1102.4159
30
0.0
0
VERTEX
8
PARCEL
10
338.3273
20
-1101.0311
30
0.0
0
VERTEX
8
PARCEL
10
349.9587
20
-1099.6233
30
0.0
0
VERTEX
8
PARCEL
10
361.5873
20
-1098.1925
30
0.0
0
VERTEX
8
PARCEL
10
373.2130
20
-1096.7386
30
0.0
0
VERTEX
8
PARCEL
10
384.8359
20
-1095.2618
30
0.0
0
VERTEX
8
PARCEL
10
396.4557
20
-1093.7619
30
0.0
0
VERTEX
8
PARCEL
10
408.0726
20
-1092.2391
30
0.0
0
VERTEX
8
PARCEL
10
419.6865
20
-1090.6932
30
0.0
0
VERTEX
8
PARCEL
10
431.2973
20
-1089.1244
30
0.0
0
VERTEX
8
PARCEL
10
442.9049
20
-1087.5326
30
0.0
0
VERTEX
8
PARCEL
10
454.5094
20
-1085.9178
30
0.0
0
VERTEX
8
PARCEL
10
466.1106
20
-1084.2801
30
0.0
0
VERTEX
8
PARCEL
10
477.7086
20
-1082.6194
30
0.0
0
VERTEX
8
PARCEL
10
489.3033
20
-1080.9357
30
0.0
0
VERTEX
8
PARCEL
10
500.8946
20
-1079.2291
30
0.0
0
VERTEX
8
PARCEL
10
512.4825
20
-1077.4996
30
0.0
0
VERTEX
8
PARCEL
10
524.0670
20
-1075.7471
30
0.0
0
VERTEX
8
PARCEL
10
535.6480
20
-1073.9717
30
0.0
0
VERTEX
8
PARCEL
10
547.2255
20
-1072.1734
30
0.0
0
VERTEX
8
PARCEL
10
558.7993
20
-1070.3522
30
0.0
0
VERTEX
8
PARCEL
10
558.7993
20
-1334.1268
30
0.0
0
VERTEX
8
PARCEL
10
0.0000
20
-1335.0000
30
0.0
0
SEQEND
0
POLYLINE
8
PARCEL
66
1
70
1
0
VERTEX
8
PARCEL
10
558.7993
20
-1070.3522
30
0.0
0
VERTEX
8
PARCEL
10
567.3550
20
-1068.9908
30
0.0
0
VERTEX
8
PARCEL
10
575.9087
20
-1067.6169
30
0.0
0
VERTEX
8
PARCEL
10
584.4604
20
-1066.2304
30
0.0
0
VERTEX
8
PARCEL
10
593.0100
20
-1064.8315
30
0.0
0
VERTEX
8
PARCEL
10
601.5576
20
-1063.4200
30
0.0
0
VERTEX
8
PARCEL
10
610.1031
20
-1061.9961
30
0.0
0
VERTEX
8
PARCEL
10
618.6465
20
-1060.5596
30
0.0
0
VERTEX
8
PARCEL
10
627.1878
20
-1059.1106
30
0.0
0
VERTEX
8
PARCEL
10
635.7270
20
-1057.6491
30
0.0
0
VERTEX
8
PARCEL
10
644.2640
20
-1056.1752
30
0.0
0
VERTEX
8
PARCEL
10
652.7988
20
-1054.6887
30
0.0
0
VERTEX
8
PARCEL
10
661.3315
20
-1053.1898
30
0.0
0
VERTEX
8
PARCEL
10
669.8620
20
-1051.6783
30
0.0
0
VERTEX
8
PARCEL
10
678.3902
20
-1050.1544
30
0.0
0
VERTEX
8
PARCEL
10
686.9162
20
-1048.6180
30
0.0
0
VERTEX
8
PARCEL
10
695.4400
20
-1047.0691
30
0.0
0
VERTEX
8
PARCEL
10
703.9615
20
-1045.5078
30
0.0
0
VERTEX
8
PARCEL
10
712.4806
20
-1043.9339
30
0.0
0
VERTEX
8
PARCEL
10
720.9975
20
-1042.3477
30
0.0
0
VERTEX
8
PARCEL
10
729.5120
20
-1040.7489
30
0.0
0
VERTEX
8
PARCEL
10
738.0242
20
-1039.1377
30
0.0
0
VERTEX
8
PARCEL
10
746.5340
20
-1037.5140
30
0.0
0
VERTEX
8
PARCEL
10
755.0415
20
-1035.8779
30
0.0
0
VERTEX
8
PARCEL
10
763.5465
20
-1034.2293
30
0.0
0
VERTEX
8
PARCEL
10
772.0491
20
-1032.5683
30
0.0
0
VERTEX
8
PARCEL
10
780.5493
20
-1030.8949
30
0.0
0
VERTEX
8
PARCEL
10
789.0470
20
-1029.2090
30
0.0
0
VERTEX
8
PARCEL
10
797.5422
20
-1027.5106
30
0.0
0
VERTEX
8
PARCEL
10
806.0350
20
-1025.7999
30
0.0
0
VERTEX
8
PARCEL
10
814.5252
20
-1024.0767
30
0.0
0
VERTEX
8
PARCEL
10
823.0129
20
-1022.3411
30
0.0
0
VERTEX
8
PARCEL
10
831.4980
20
-1020.5930
30
0.0
0
VERTEX
8
PARCEL
10
839.9806
20
-1018.8326
30
0.0
0
VERTEX
8
PARCEL
10
848.4606
20
-1017.0597
30
0.0
0
VERTEX
8
PARCEL
10
856.9380
20
-1015.2745
30
0.0
0
VERTEX
8
PARCEL
10
865.4127
20
-1013.4768
30
0.0
0
VERTEX
8
PARCEL
10
873.8849
20
-1011.6667
30
0.0
0
VERTEX
8
PARCEL
10
882.3543
20
-1009.8442
30
0.0
0
VERTEX
8
PARCEL
10
890.8211
20
-1008.0093
30
0.0
0
VERTEX
8
PARCEL
10
899.2852
20
-1006.1621
30
0.0
0
VERTEX
8
PARCEL
10
907.7466
20
-1004.3024
30
0.0
0
VERTEX
8
PARCEL
10
916.2053
20
-1002.4304
30
0.0
0
VERTEX
8
PARCEL
10
924.6612
20
-1000.5460
30
0.0
0
VERTEX
8
PARCEL
10
933.1143
20
-998.6492
30
0.0
0
VERTEX
8
PARCEL
10
941.5647
20
-996.7401
30
0.0
0
VERTEX
8
PARCEL
10
950.0122
20
-994.8186
30
0.0
0
VERTEX
8
PARCEL
10
958.4569
20
-992.8847
30
0.0
0
VERTEX
8
PARCEL
10
966.8988
20
-990.9385
30
0.0
0
VERTEX
8
PARCEL
10
966.8988
20
-1333.4892
30
0.0
0
VERTEX
8
PARCEL
10
558.7993
20
-1334.1268
30
0.0
0
SEQEND
0
POLYLINE
8
PARCEL
66
1
70
1
0
VERTEX
8
PARCEL
10
966.8988
20
-990.9385
30
0.0
0
VERTEX
8
PARCEL
10
974.1544
20
-989.2553
30
0.0
0
VERTEX
8
PARCEL
10
981.4078
20
-987.5631
30
0.0
0
VERTEX
8
PARCEL
10
988.6591
20
-985.8617
30
0.0
0
VERTEX
8
PARCEL
10
995.9083
20
-984.1512
30
0.0
0
VERTEX
8
PARCEL
10
1003.1553
20
-982.4315
30
0.0
0
VERTEX
8
PARCEL
10
1010.4001
20
-980.7028
30
0.0
0
VERTEX
8
PARCEL
10
1017.6428
20
-978.9649
30
0.0
0
VERTEX
8
PARCEL
10
1024.8832
20
-977.2179
30
0.0
0
VERTEX
8
PARCEL
10
1032.1215
20
-975.4619
30
0.0
0
VERTEX
8
PARCEL
10
1039.3575
20
-973.6967
30
0.0
0
VERTEX
8
PARCEL
10
1046.5914
20
-971.9224
30
0.0
0
VERTEX
8
PARCEL
10
1053.8229
20
-970.1390
30
0.0
0
VERTEX
8
PARCEL
10
1061.0523
20
-968.3465
30
0.0
0
VERTEX
8
PARCEL
10
1068.2793
20
-966.5449
30
0.0
0
VERTEX
8
PARCEL
10
1075.5041
20
-964.7342
30
0.0
0
VERTEX
8
PARCEL
10
1082.7266
20
-962.9144
30
0.0
0
VERTEX
8
PARCEL
10
1089.9468
20
-961.0856
30
0.0
0
VERTEX
8
PARCEL
10
1097.1647
20
-959.2476
30
0.0
0
VERTEX
8
PARCEL
10
1104.3803
20
-957.4006
30
0.0
0
VERTEX
8
PARCEL
10
1111.5936
20
-955.5445
30
0.0
0
VERTEX
8
PARCEL
10
1118.8045
20
-953.6793
30
0.0
0
VERTEX
8
PARCEL
10
1126.0131
20
-951.8051
30
0.0
0
VERTEX
8
PARCEL
10
1133.2193
20
-949.9218
30
0.0
0
VERTEX
8
PARCEL
10
1140.4231
20
-948.0294
30
0.0
0
VERTEX
8
PARCEL
10
1147.6245
20
-946.1280
30
0.0
0
VERTEX
8
PARCEL
10
1154.8236
20
-944.2175
30
0.0
0
VERTEX
8
PARCEL
10
1162.0202
20
-942.2979
30
0.0
0
VERTEX
8
PARCEL
10
1169.2144
20
-940.3693
30
0.0
0
VERTEX
8
PARCEL
10
1176.4062
20
-938.4316
30
0.0
0
VERTEX
8
PARCEL
10
1183.5955
20
-936.4849
30
0.0
0
VERTEX
8
PARCEL
10
1190.7824
20
-934.5291
30
0.0
0
VERTEX
8
PARCEL
10
1197.9668
20
-932.5643
30
0.0
0
VERTEX
8
PARCEL
10
1205.1487
20
-930.5905
30
0.0
0
VERTEX
8
PARCEL
10
1212.3282
20
-928.6076
30
0.0
0
VERTEX
8
PARCEL
10
1219.5051
20
-926.6157
30
0.0
0
VERTEX
8
PARCEL
10
1226.6795
20
-924.6148
30
0.0
0
VERTEX
8
PARCEL
10
1233.8514
20
-922.6048
30
0.0
0
VERTEX
8
PARCEL
10
1241.0208
20
-920.5859
30
0.0
0
VERTEX
8
PARCEL
10
1248.1876
20
-918.5579
30
0.0
0
VERTEX
8
PARCEL
10
1255.3519
20
-916.5208
30
0.0
0
VERTEX
8
PARCEL
10
1262.5136
20
-914.4748
30
0.0
0
VERTEX
8
PARCEL
10
1269.6727
20
-912.4198
30
0.0
0
VERTEX
8
PARCEL
10
1276.8293
20
-910.3557
30
0.0
0
VERTEX
8
PARCEL
10
1283.9832
20
-908.2827
30
0.0
0
VERTEX
8
PARCEL
10
1291.1345
20
-906.2006
30
0.0
0
VERTEX
8
PARCEL
10
1298.2832
20
-904.1096
30
0.0
0
VERTEX
8
PARCEL
10
1305.4292
20
-902.0095
30
0.0
0
VERTEX
8
PARCEL
10
1312.5726
20
-899.9005
30
0.0
0
VERTEX
8
PARCEL
10
1308.9984
20
-1332.9546
30
0.0
0
VERTEX
8
PARCEL
10
966.8988
20
-1333.4892
30
0.0
0
SEQEND
0
POLYLINE
8
RR-ROW
66
1
70
0
0
VERTEX
8
RR-ROW
10
0.0000
20
-1041.8106
30
0.0
0
VERTEX
8
RR-ROW
10
27.8007
20
-1039.9896
30
0.0
0
VERTEX
8
RR-ROW
10
55.5924
20
-1038.0358
30
0.0
0
VERTEX
8
RR-ROW
10
83.3745
20
-1035.9492
30
0.0
0
VERTEX
8
RR-ROW
10
111.1462
20
-1033.7299
30
0.0
0
VERTEX
8
RR-ROW
10
138.9070
20
-1031.3778
30
0.0
0
VERTEX
8
RR-ROW
10
166.6563
20
-1028.8931
30
0.0
0
VERTEX
8
RR-ROW
10
194.3934
20
-1026.2759
30
0.0
0
VERTEX
8
RR-ROW
10
222.1176
20
-1023.5260
30
0.0
0
VERTEX
8
RR-ROW
10
249.8284
20
-1020.6438
30
0.0
0
VERTEX
8
RR-ROW
10
277.5251
20
-1017.6291
30
0.0
0
VERTEX
8
RR-ROW
10
305.2071
20
-1014.4821
30
0.0
0
VERTEX
8
RR-ROW
10
332.8738
20
-1011.2028
30
0.0
0
VERTEX
8
RR-ROW
10
360.5244
20
-1007.7913
30
0.0
0
VERTEX
8
RR-ROW
10
388.1584
20
-1004.2478
30
0.0
0
VERTEX
8
RR-ROW
10
415.7752
20
-1000.5722
30
0.0
0
VERTEX
8
RR-ROW
10
443.3741
20
-996.7646
30
0.0
0
VERTEX
8
RR-ROW
10
470.9544
20
-992.8252
30
0.0
0
VERTEX
8
RR-ROW
10
498.5157
20
-988.7541
30
0.0
0
VERTEX
8
RR-ROW
10
526.0571
20
-984.5512
30
0.0
0
VERTEX
8
RR-ROW
10
553.5782
20
-980.2168
30
0.0
0
VERTEX
8
RR-ROW
10
581.0782
20
-975.7509
30
0.0
0
VERTEX
8
RR-ROW
10
608.5566
20
-971.1537
30
0.0
0
VERTEX
8
RR-ROW
10
636.0127
20
-966.4251
30
0.0
0
VERTEX
8
RR-ROW
10
663.4458
20
-961.5655
30
0.0
0
VERTEX
8
RR-ROW
10
690.8555
20
-956.5747
30
0.0
0
VERTEX
8
RR-ROW
10
718.2409
20
-951.4530
30
0.0
0
VERTEX
8
RR-ROW
10
745.6016
20
-946.2005
30
0.0
0
VERTEX
8
RR-ROW
10
772.9369
20
-940.8173
30
0.0
0
VERTEX
8
RR-ROW
10
800.2461
20
-935.3035
30
0.0
0
VERTEX
8
RR-ROW
10
827.5287
20
-929.6593
30
0.0
0
VERTEX
8
RR-ROW
10
854.7840
20
-923.8847
30
0.0
0
VERTEX
8
RR-ROW
10
882.0113
20
-917.9800
30
0.0
0
VERTEX
8
RR-ROW
10
909.2102
20
-911.9452
30
0.0
0
VERTEX
8
RR-ROW
10
936.3799
20
-905.7804
30
0.0
0
VERTEX
8
RR-ROW
10
963.5198
20
-899.4859
30
0.0
0
VERTEX
8
RR-ROW
10
990.6293
20
-893.0618
30
0.0
0
VERTEX
8
RR-ROW
10
1017.7078
20
-886.5082
30
0.0
0
VERTEX
8
RR-ROW
10
1044.7547
20
-879.8252
30
0.0
0
VERTEX
8
RR-ROW
10
1071.7693
20
-873.0131
30
0.0
0
VERTEX
8
RR-ROW
10
1098.7511
20
-866.0719
30
0.0
0
VERTEX
8
RR-ROW
10
1125.6994
20
-859.0018
30
0.0
0
VERTEX
8
RR-ROW
10
1152.6136
20
-851.8031
30
0.0
0
VERTEX
8
RR-ROW
10
1179.4931
20
-844.4758
30
0.0
0
VERTEX
8
RR-ROW
10
1206.3372
20
-837.0201
30
0.0
0
VERTEX
8
RR-ROW
10
1233.1454
20
-829.4362
30
0.0
0
VERTEX
8
RR-ROW
10
1259.9171
20
-821.7243
30
0.0
0
VERTEX
8
RR-ROW
10
1286.6516
20
-813.8845
30
0.0
0
VERTEX
8
RR-ROW
10
1313.3483
20
-805.9171
30
0.0
0
SEQEND
0
POLYLINE
8
RR-ROW
66
1
70
0
0
VERTEX
8
RR-ROW
10
0.0000
20
-1131.8222
30
0.0
0
VERTEX
8
RR-ROW
10
27.7701
20
-1130.0310
30
0.0
0
VERTEX
8
RR-ROW
10
55.5315
20
-1128.1093
30
0.0
0
VERTEX
8
RR-ROW
10
83.2836
20
-1126.0572
30
0.0
0
VERTEX
8
RR-ROW
10
111.0257
20
-1123.8745
30
0.0
0
VERTEX
8
RR-ROW
10
138.7572
20
-1121.5615
30
0.0
0
VERTEX
8
RR-ROW
10
166.4775
20
-1119.1182
30
0.0
0
VERTEX
8
RR-ROW
10
194.1861
20
-1116.5445
30
0.0
0
VERTEX
8
RR-ROW
10
221.8822
20
-1113.8406
30
0.0
0
VERTEX
8
RR-ROW
10
249.5654
20
-1111.0066
30
0.0
0
VERTEX
8
RR-ROW
10
277.2349
20
-1108.0424
30
0.0
0
VERTEX
8
RR-ROW
10
304.8901
20
-1104.9482
30
0.0
0
VERTEX
8
RR-ROW
10
332.5306
20
-1101.7240
30
0.0
0
VERTEX
8
RR-ROW
10
360.1555
20
-1098.3699
30
0.0
0
VERTEX
8
RR-ROW
10
387.7644
20
-1094.8860
30
0.0
0
VERTEX
8
RR-ROW
10
415.3566
20
-1091.2723
30
0.0
0
VERTEX
8
RR-ROW
10
442.9315
20
-1087.5289
30
0.0
0
VERTEX
8
RR-ROW
10
470.4885
20
-1083.6560
30
0.0
0
VERTEX
8
RR-ROW
10
498.0270
20
-1079.6535
30
0.0
0
VERTEX
8
RR-ROW
10
525.5463
20
-1075.5216
30
0.0
0
VERTEX
8
RR-ROW
10
553.0460
20
-1071.2604
30
0.0
0
VERTEX
8
RR-ROW
10
580.5253
20
-1066.8700
30
0.0
0
VERTEX
8
RR-ROW
10
607.9836
20
-1062.3504
30
0.0
0
VERTEX
8
RR-ROW
10
635.4204
20
-1057.7018
30
0.0
0
VERTEX
8
RR-ROW
10
662.8351
20
-1052.9243
30
0.0
0
VERTEX
8
RR-ROW
10
690.2269
20
-1048.0179
30
0.0
0
VERTEX
8
RR-ROW
10
717.5955
20
-1042.9828
30
0.0
0
VERTEX
8
RR-ROW
10
744.9400
20
-1037.8192
30
0.0
0
VERTEX
8
RR-ROW
10
772.2600
20
-1032.5270
30
0.0
0
VERTEX
8
RR-ROW
10
799.5548
20
-1027.1064
30
0.0
0
VERTEX
8
RR-ROW
10
826.8238
20
-1021.5576
30
0.0
0
VERTEX
8
RR-ROW
10
854.0664
20
-1015.8806
30
0.0
0
VERTEX
8
RR-ROW
10
881.2820
20
-1010.0757
30
0.0
0
VERTEX
8
RR-ROW
10
908.4700
20
-1004.1428
30
0.0
0
VERTEX
8
RR-ROW
10
935.6299
20
-998.0823
30
0.0
0
VERTEX
8
RR-ROW
10
962.7609
20
-991.8941
30
0.0
0
VERTEX
8
RR-ROW
10
989.8626
20
-985.5784
30
0.0
0
VERTEX
8
RR-ROW
10
1016.9343
20
-979.1353
30
0.0
0
VERTEX
8
RR-ROW
10
1043.9753
20
-972.5651
30
0.0
0
VERTEX
8
RR-ROW
10
1070.9852
20
-965.8679
30
0.0
0
VERTEX
8
RR-ROW
10
1097.9633
20
-959.0437
30
0.0
0
VERTEX
8
RR-ROW
10
1124.9091
20
-952.0928
30
0.0
0
VERTEX
8
RR-ROW
10
1151.8218
20
-945.0152
30
0.0
0
VERTEX
8
RR-ROW
10
1178.7010
20
-937.8113
30
0.0
0
VERTEX
8
RR-ROW
10
1205.5460
20
-930.4810
30
0.0
0
VERTEX
8
RR-ROW
10
1232.3563
20
-923.0247
30
0.0
0
VERTEX
8
RR-ROW
10
1259.1312
20
-915.4423
30
0.0
0
VERTEX
8
RR-ROW
10
1285.8702
20
-907.7342
30
0.0
0
VERTEX
8
RR-ROW
10
1312.5726
20
-899.9005
30
0.0
0
SEQEND
0
TEXT
8
TEXT-LABELS
7
STANDARD
10
225.6500
20
-145.5000
30
0.0
40
12
1
LOUISA NEWMAN
50
0.0
72
1
11
225.6500
21
-145.5000
31
0.0
73
2
0
TEXT
8
TEXT-LABELS
7
STANDARD
10
225.6500
20
-175.5000
30
0.0
40
8
1
3.32A stated / 3.33A calc
50
0.0
72
1
11
225.6500
21
-175.5000
31
0.0
73
2
0
TEXT
8
TEXT-LABELS
7
STANDARD
10
676.9500
20
-145.5000
30
0.0
40
12
1
WILLIAM HICKS
50
0.0
72
1
11
676.9500
21
-145.5000
31
0.0
73
2
0
TEXT
8
TEXT-LABELS
7
STANDARD
10
676.9500
20
-175.5000
30
0.0
40
8
1
3.32A stated / 3.33A calc
50
0.0
72
1
11
676.9500
21
-175.5000
31
0.0
73
2
0
TEXT
8
TEXT-LABELS
7
STANDARD
10
1110.4388
20
-193.6964
30
0.0
40
12
1
MARGENA ROBERSON (N)
50
0.0
72
1
11
1110.4388
21
-193.6964
31
0.0
73
2
0
TEXT
8
TEXT-LABELS
7
STANDARD
10
1110.4388
20
-223.6964
30
0.0
40
8
1
4.0A stated / 3.98A calc
50
0.0
72
1
11
1110.4388
21
-223.6964
31
0.0
73
2
0
TEXT
8
TEXT-LABELS
7
STANDARD
10
1108.9317
20
-558.5402
30
0.0
40
12
1
MARGENA ROBERSON (S)
50
0.0
72
1
11
1108.9317
21
-558.5402
31
0.0
73
2
0
TEXT
8
TEXT-LABELS
7
STANDARD
10
1108.9317
20
-588.5402
30
0.0
40
8
1
3.0A stated / 2.96A calc
50
0.0
72
1
11
1108.9317
21
-588.5402
31
0.0
73
2
0
TEXT
8
TEXT-LABELS
7
STANDARD
10
736.3000
20
-510.0000
30
0.0
40
12
1
LEVI HICKS
50
0.0
72
1
11
736.3000
21
-510.0000
31
0.0
73
2
0
TEXT
8
TEXT-LABELS
7
STANDARD
10
736.3000
20
-540.0000
30
0.0
40
8
1
3.07A stated / 3.12A calc
50
0.0
72
1
11
736.3000
21
-540.0000
31
0.0
73
2
0
TEXT
8
TEXT-LABELS
7
STANDARD
10
285.4959
20
-972.0805
30
0.0
40
12
1
EDWARD HICKS
50
0.0
72
1
11
285.4959
21
-972.0805
31
0.0
73
2
0
TEXT
8
TEXT-LABELS
7
STANDARD
10
285.4959
20
-1002.0805
30
0.0
40
8
1
9.0A stated / 9.07A calc
50
0.0
72
1
11
285.4959
21
-1002.0805
31
0.0
73
2
0
TEXT
8
TEXT-LABELS
7
STANDARD
10
942.6637
20
-874.8666
30
0.0
40
12
1
WILSON HICKS
50
0.0
72
1
11
942.6637
21
-874.8666
31
0.0
73
2
0
TEXT
8
TEXT-LABELS
7
STANDARD
10
942.6637
20
-904.8666
30
0.0
40
8
1
2.97A stated / 2.92A calc
50
0.0
72
1
11
942.6637
21
-904.8666
31
0.0
73
2
0
TEXT
8
TEXT-LABELS
7
STANDARD
10
279.8576
20
-1099.4058
30
0.0
40
12
1
FRANK HICKS
50
0.0
72
1
11
279.8576
21
-1099.4058
31
0.0
73
2
0
TEXT
8
TEXT-LABELS
7
STANDARD
10
279.8576
20
-1129.4058
30
0.0
40
8
1
3.0A stated / 2.94A calc
50
0.0
72
1
11
279.8576
21
-1129.4058
31
0.0
73
2
0
TEXT
8
TEXT-LABELS
7
STANDARD
10
763.2865
20
-1029.7818
30
0.0
40
12
1
RICHARD HICKS (W)
50
0.0
72
1
11
763.2865
21
-1029.7818
31
0.0
73
2
0
TEXT
8
TEXT-LABELS
7
STANDARD
10
763.2865
20
-1059.7818
30
0.0
40
8
1
2.8A stated / 2.82A calc
50
0.0
72
1
11
763.2865
21
-1059.7818
31
0.0
73
2
0
TEXT
8
TEXT-LABELS
7
STANDARD
10
1140.0967
20
-947.2643
30
0.0
40
12
1
RICHARD HICKS (E)
50
0.0
72
1
11
1140.0967
21
-947.2643
31
0.0
73
2
0
TEXT
8
TEXT-LABELS
7
STANDARD
10
1140.0967
20
-977.2643
30
0.0
40
8
1
3.0A stated / 3.04A calc
50
0.0
72
1
11
1140.0967
21
-977.2643
31
0.0
73
2
0
TEXT
8
TEXT-LABELS
7
STANDARD
10
656.6742
20
-1026.8164
30
0.0
40
9
1
A.C.L. R.R. (fitted, no curve data on plat)
50
0.0
72
1
11
656.6742
21
-1026.8164
31
0.0
73
2
0
TEXT
8
TITLEBLOCK
7
STANDARD
10
660.0000
20
120.0000
30
0.0
40
18
1
HICKS SUBDIVISION  NW1/4 NE1/4 SEC 12 T2S R25E  PB 4 FOLIO 85 (1912)
50
0.0
72
1
11
660.0000
21
120.0000
31
0.0
73
2
0
TEXT
8
TITLEBLOCK
7
STANDARD
10
660.0000
20
80.0000
30
0.0
40
10
1
NO BEARINGS ON PLAT - ORIENTATION ASSUMED CARDINAL
50
0.0
72
1
11
660.0000
21
80.0000
31
0.0
73
2
0
ENDSEC
0
EOF
